<svg width="38" height="38" viewBox="0 0 38 38" fill="none" xmlns="http://www.w3.org/2000/svg">
<path d="M6 7C6.55231 7 7 6.55228 7 6C7 5.44772 6.55231 5 6 5C5.44769 5 5 5.44772 5 6C5 6.55228 5.44769 7 6 7Z" fill="#485465"/>
<path d="M10 7C10.5523 7 11 6.55228 11 6C11 5.44772 10.5523 5 10 5C9.44769 5 9 5.44772 9 6C9 6.55228 9.44769 7 10 7Z" fill="#485465"/>
<path d="M15 6C15 6.55228 14.5523 7 14 7C13.4477 7 13 6.55228 13 6C13 5.44772 13.4477 5 14 5C14.5523 5 15 5.44772 15 6Z" fill="#485465"/>
<rect x="0.5" y="0.5" width="37" height="37" rx="4.5" stroke="#485465"/>
<rect x="1" y="10" width="36" height="1" fill="#485465"/>
</svg>
