<svg width="10" height="31" viewBox="0 0 10 31" fill="none" xmlns="http://www.w3.org/2000/svg">
    <path d="M1.06189 1.54958L1.06204 1.54957L1.06115 1.53745C1.02085 0.990872 1.46674 0.5 2.0625 0.5H7.875C8.47076 0.5 8.91665 0.990872 8.87635 1.53745L8.87621 1.53744L8.87561 1.54958L8.06361 18.008C8.0201 18.4573 7.56611 18.875 7.0625 18.875H2.875C2.37139 18.875 1.9174 18.4573 1.87389 18.008L1.06189 1.54958ZM5 21.8125C7.48894 21.8125 9.5 23.7832 9.5 26.1562C9.5 28.5859 7.49309 30.5 5 30.5C2.44856 30.5 0.5 28.5899 0.5 26.1562C0.5 23.7792 2.4527 21.8125 5 21.8125Z" stroke="#485465"/>
</svg>
