<svg width="38" height="33" viewBox="0 0 38 33" fill="none" xmlns="http://www.w3.org/2000/svg">
<path d="M15.175 1.6606L14.7875 1.97658L14.7879 1.97707L15.175 1.6606ZM19.8532 7.3828L19.4661 7.69927L19.6161 7.8828H19.8532V7.3828ZM32.5 31.1H5.5V32.1H32.5V31.1ZM5.5 31.1C3.28259 31.1 1.5 29.3471 1.5 27.2224H0.5C0.5 29.9253 2.75661 32.1 5.5 32.1V31.1ZM1.5 27.2224V5.3758H0.5V27.2224H1.5ZM1.5 5.3758C1.5 3.25138 3.28232 1.5 5.5 1.5V0.5C2.75688 0.5 0.5 2.67262 0.5 5.3758H1.5ZM5.5 1.5H13.7818V0.5H5.5V1.5ZM13.7818 1.5C14.1708 1.5 14.5411 1.67447 14.7875 1.97658L15.5625 1.34462C15.1249 0.807933 14.4692 0.5 13.7818 0.5V1.5ZM14.7879 1.97707L19.4661 7.69927L20.2403 7.06633L15.5621 1.34413L14.7879 1.97707ZM19.8532 7.8828H32.5V6.8828H19.8532V7.8828ZM32.5 7.8828C34.7175 7.8828 36.5 9.63405 36.5 11.7604H37.5C37.5 9.05555 35.2433 6.8828 32.5 6.8828V7.8828ZM36.5 11.7604V27.2224H37.5V11.7604H36.5ZM36.5 27.2224C36.5 29.3471 34.7174 31.1 32.5 31.1V32.1C35.2434 32.1 37.5 29.9253 37.5 27.2224H36.5Z" fill="#485465"/>
</svg>
