<svg width="12" height="31" viewBox="0 0 12 31" fill="none" xmlns="http://www.w3.org/2000/svg">
    <path d="M9 25.7324V26.2324H9.5H10.75C11.1764 26.2324 11.5 26.5683 11.5 26.9434V29.7891C11.5 30.2085 11.1934 30.5 10.75 30.5H1.25C0.98395 30.5 0.803115 30.4159 0.691648 30.3079C0.581605 30.2013 0.5 30.0339 0.5 29.7891V26.9434C0.5 26.5519 0.777717 26.2324 1.25 26.2324H2.5H3V25.7324V16.9531V16.4531H2.5H1.25C0.777717 16.4531 0.5 16.1336 0.5 15.7422V12.8359C0.5 12.4445 0.777717 12.125 1.25 12.125H8.25C8.67644 12.125 9 12.4609 9 12.8359V25.7324ZM2 4.35938C2 2.28459 3.76563 0.5 6 0.5C8.17644 0.5 10 2.28903 10 4.35938C10 6.48584 8.18103 8.21875 6 8.21875C3.76106 8.21875 2 6.49026 2 4.35938Z" stroke="#485465"/>
</svg>
