<svg width="28" height="31" viewBox="0 0 28 31" fill="none" xmlns="http://www.w3.org/2000/svg">
    <path d="M23 13.5625V14.0625H23.5H25C26.3639 14.0625 27.5 15.1855 27.5 16.4688V28.0938C27.5 29.4309 26.3708 30.5 25 30.5H3C1.57356 30.5 0.5 29.4375 0.5 28.0938V16.4688C0.5 15.1788 1.58042 14.0625 3 14.0625H4.5H5V13.5625V9.20312C5 4.46662 9.01323 0.5 14 0.5C18.9264 0.5 23 4.46872 23 9.20312V13.5625ZM18.5 14.0625H19V13.5625V9.20312C19 6.55081 16.6986 4.34375 14 4.34375C11.2344 4.34375 9 6.55526 9 9.20312V13.5625V14.0625H9.5H18.5ZM14 26.6562C15.6277 26.6562 17 25.426 17 23.7344V20.8281C17 19.2051 15.6361 17.9062 14 17.9062C12.2931 17.9062 11 19.2132 11 20.8281V23.7344C11 25.4179 12.3014 26.6562 14 26.6562Z" stroke="#485465"/>
</svg>
