<svg width="31" height="31" viewBox="0 0 31 31" fill="none" xmlns="http://www.w3.org/2000/svg">
<path fill-rule="evenodd" clip-rule="evenodd" d="M11 1H20C20.5523 1 21 1.44772 21 2V5H10V2C10 1.44772 10.4477 1 11 1ZM9 5V2C9 0.89543 9.89543 0 11 0H20C21.1046 0 22 0.895431 22 2V5H29C30.1046 5 31 5.89543 31 7V29C31 30.1046 30.1046 31 29 31H2C0.89543 31 0 30.1046 0 29V7C0 5.89543 0.89543 5 2 5H9ZM22 6H21H10H9H2C1.44772 6 1 6.44772 1 7V29C1 29.5523 1.44772 30 2 30H29C29.5523 30 30 29.5523 30 29V7C30 6.44772 29.5523 6 29 6H22ZM11 18.5C11 20.9853 13.0147 23 15.5 23C17.9853 23 20 20.9853 20 18.5C20 16.0147 17.9853 14 15.5 14C13.0147 14 11 16.0147 11 18.5ZM15.5 13C12.4624 13 10 15.4624 10 18.5C10 21.5376 12.4624 24 15.5 24C18.5376 24 21 21.5376 21 18.5C21 15.4624 18.5376 13 15.5 13Z" fill="#485465"/>
</svg>
