<svg width="40" height="40" viewBox="0 0 40 40" fill="none" xmlns="http://www.w3.org/2000/svg">
<path fill-rule="evenodd" clip-rule="evenodd" d="M6 0C2.68629 0 0 2.68629 0 6V34C0 37.3137 2.68629 40 6 40H34C37.3137 40 40 37.3137 40 34V6C40 2.68629 37.3137 0 34 0H6ZM6 1C3.23858 1 1 3.23858 1 6V34C1 36.7614 3.23858 39 6 39H34C36.7614 39 39 36.7614 39 34V6C39 3.23858 36.7614 1 34 1H6Z" fill="#485465"/>
<rect x="4.5" y="26.5" width="14" height="9" rx="1.5" fill="white" stroke="#485465"/>
<rect x="4.5" y="4.5" width="14" height="19" rx="1.5" fill="white" stroke="#485465"/>
<rect x="21.5" y="16.5" width="14" height="19" rx="1.5" fill="white" stroke="#485465"/>
<rect x="21.5" y="4.5" width="14" height="9" rx="1.5" fill="white" stroke="#485465"/>
</svg>
