<svg width="34" height="34" viewBox="0 0 34 34" fill="none" xmlns="http://www.w3.org/2000/svg">
	<path d="M17 6.5C18.6569 6.5 20 5.15685 20 3.5C20 1.84315 18.6569 0.5 17 0.5C15.3431 0.5 14 1.84315 14 3.5C14 5.15685 15.3431 6.5 17 6.5Z" fill="#D0021B"/>
	<path d="M17 33.5C18.6569 33.5 20 32.1569 20 30.5C20 28.8431 18.6569 27.5 17 27.5C15.3431 27.5 14 28.8431 14 30.5C14 32.1569 15.3431 33.5 17 33.5Z" fill="#4A90E2"/>
	<path d="M31 19.5C32.6569 19.5 34 18.1569 34 16.5C34 14.8431 32.6569 13.5 31 13.5C29.3431 13.5 28 14.8431 28 16.5C28 18.1569 29.3431 19.5 31 19.5Z" fill="#F8E71C"/>
	<path d="M3 19.5C4.65685 19.5 6 18.1569 6 16.5C6 14.8431 4.65685 13.5 3 13.5C1.34315 13.5 0 14.8431 0 16.5C0 18.1569 1.34315 19.5 3 19.5Z" fill="#B8E986"/>
	<path d="M27 10.5C28.6569 10.5 30 9.15685 30 7.5C30 5.84315 28.6569 4.5 27 4.5C25.3431 4.5 24 5.84315 24 7.5C24 9.15685 25.3431 10.5 27 10.5Z" fill="#F5A623"/>
	<path d="M7 29.5C8.65685 29.5 10 28.1569 10 26.5C10 24.8431 8.65685 23.5 7 23.5C5.34315 23.5 4 24.8431 4 26.5C4 28.1569 5.34315 29.5 7 29.5Z" fill="#50E3C2"/>
	<path d="M27 29.5C28.6569 29.5 30 28.1569 30 26.5C30 24.8431 28.6569 23.5 27 23.5C25.3431 23.5 24 24.8431 24 26.5C24 28.1569 25.3431 29.5 27 29.5Z" fill="#BD10E0"/>
	<path d="M7 10.5C8.65685 10.5 10 9.15685 10 7.5C10 5.84315 8.65685 4.5 7 4.5C5.34315 4.5 4 5.84315 4 7.5C4 9.15685 5.34315 10.5 7 10.5Z" fill="#7ED321"/>
</svg>
