<svg xmlns="http://www.w3.org/2000/svg" viewBox="0 0 142 106.39"><defs><style>.cls-1{isolation:isolate;}.cls-2,.cls-22{fill:#72c287;}.cls-13,.cls-2,.cls-6{opacity:0.3;}.cls-3{fill:#e9e9e9;mix-blend-mode:multiply;}.cls-4{fill:#1a2e35;}.cls-5{fill:#8e8e8e;}.cls-7{fill:#4d4d4d;}.cls-19,.cls-8{fill:#0078ff;}.cls-9{fill:#ffb570;}.cls-10{opacity:0.2;}.cls-11,.cls-20{fill:#c16078;}.cls-12{fill:#e87677;}.cls-14{fill:#ff8835;}.cls-15{fill:#ffab4b;}.cls-16{fill:#cc8948;}.cls-17{fill:#a36f41;}.cls-18,.cls-23{fill:#fff;}.cls-18{opacity:0.9;}.cls-19{opacity:0.5;}.cls-20{opacity:0.6;}.cls-21{fill:#579b67;}</style></defs><g class="cls-1"><g id="Layer_2" data-name="Layer 2"><g id="Layer_1-2" data-name="Layer 1"><path class="cls-2" d="M72.32,106.39c38,0,54.58-11.3,54.58-11.3s24.84-11.85,10.42-42.81c-11.48-24.65-52.58-44.81-72.74-36S46.22,36.08,24.07,52.11,7,80.88,11,87.32C11,87.32,23.36,106.39,72.32,106.39Z"/><ellipse id="_Path_" data-name="&lt;Path&gt;" class="cls-3" cx="71" cy="98.39" rx="71" ry="2.07"/><rect class="cls-4" x="63.33" y="56.3" width="33.39" height="3.38" rx="1.23"/><polygon class="cls-5" points="95.35 97.27 96.72 97.27 95.14 59.68 93.25 59.68 95.35 97.27"/><polygon class="cls-5" points="82.74 97.27 81.37 97.27 82.95 59.68 84.84 59.68 82.74 97.27"/><polygon class="cls-5" points="77.31 97.27 78.68 97.27 77.1 59.68 75.21 59.68 77.31 97.27"/><polygon class="cls-5" points="64.7 97.27 63.33 97.27 64.91 59.68 66.8 59.68 64.7 97.27"/><g class="cls-6"><polyline class="cls-7" points="95.21 61.27 95.15 59.67 93.25 59.67 93.34 61.27"/><polygon class="cls-7" points="82.88 61.27 84.75 61.27 84.84 59.67 82.95 59.67 82.88 61.27"/><polygon class="cls-7" points="75.21 59.67 75.3 61.27 77.17 61.27 77.1 59.67 75.21 59.67"/><polygon class="cls-8" points="64.84 61.27 66.71 61.27 66.8 59.67 64.9 59.67 64.84 61.27"/></g><polygon class="cls-9" points="76.43 91.75 73.33 93.39 68.44 86.8 71.55 85.15 76.43 91.75"/><path class="cls-4" d="M72.21,92.38l3.23-2.25a.24.24,0,0,1,.35,0l1.94,2.46a.62.62,0,0,1-.15.86c-1.14.76-1.65,1-3.14,1.91A50.55,50.55,0,0,1,70,97.83c-1.32.57-1.89-.77-1.37-1.14a9.69,9.69,0,0,0,3.24-3.79A1,1,0,0,1,72.21,92.38Z"/><polygon class="cls-10" points="71.55 85.15 68.44 86.8 70.8 89.97 73.83 88.23 71.55 85.15"/><path class="cls-11" d="M79,46.09S55,45.34,54.87,55.4c-.12,14.46,13.6,33.44,13.6,33.44l5.35-3.57s-9.41-13.8-9.49-25.09c7.1-2,23.8-.75,26-6.63,1.77-4.81.85-7.46.85-7.46Z"/><polygon class="cls-4" points="75.29 86.19 68.91 90.1 66.9 88.07 73.92 83.65 75.29 86.19"/><polygon class="cls-9" points="70.69 95.79 67.22 95.63 66.64 87.41 70.13 87.57 70.69 95.79"/><path class="cls-4" d="M67.13,95l3.94-.12a.24.24,0,0,1,.27.23l.29,3.11a.61.61,0,0,1-.59.64c-1.38,0-2,0-3.77,0a30.73,30.73,0,0,1-4.62,0c-1.43-.18-1.24-1.62-.6-1.67a9.7,9.7,0,0,0,4.49-2A1,1,0,0,1,67.13,95Z"/><polygon class="cls-10" points="70.13 87.58 66.64 87.41 66.97 92.11 70.44 92.1 70.13 87.58"/><path class="cls-12" d="M87.59,46.09s-25.19,2.38-24.27,10c1.32,10.94,2,34.51,2,34.51l6.42.25S74.44,69.55,73,58.35c6.52,0,22.48.47,23.93-3.46,1.29-3.47.83-8.8.83-8.8Z"/><polygon class="cls-4" points="72.43 91.2 64.72 90.82 64.44 87.47 72.89 88.05 72.43 91.2"/><path class="cls-9" d="M82,23.87c0,.62-.09,1.15-.16,1.72s-.15,1.11-.23,1.67c-.18,1.11-.39,2.21-.65,3.32a26.39,26.39,0,0,1-2.42,6.67,12.57,12.57,0,0,1-1.12,1.68,8,8,0,0,1-1.67,1.55,8.37,8.37,0,0,1-4,1.37,11.61,11.61,0,0,1-3.77-.36,13.65,13.65,0,0,1-1.71-.55c-.27-.1-.54-.22-.81-.35a9.28,9.28,0,0,1-.83-.42l1-2.45.7.09.73.07c.49,0,1,.07,1.45.07a10,10,0,0,0,2.64-.31,4.21,4.21,0,0,0,1.86-1,4,4,0,0,0,.61-.71,9,9,0,0,0,.58-1,17.58,17.58,0,0,0,.95-2.6c.27-.93.5-1.9.7-2.89s.37-2,.53-3l.22-1.52c.06-.5.14-1,.18-1.48Z"/><path class="cls-4" d="M82,20.89c-2.57-2.49-5.74-1-7,3.64a42.55,42.55,0,0,0-1.46,7.65l8.15,1.68C83.18,29.41,84.66,23.44,82,20.89Z"/><path class="cls-13" d="M79.4,26c.58-.53,2.24,1.83,3.25,4.73-.29,1.09-.62,2.16-1,3.15l-4.9-1C77.19,30,78.09,27.16,79.4,26Z"/><path class="cls-9" d="M65,36.59l-1.81-.7-.08,3.89s3.07,1.33,3.7-.2l-.22-1A3.16,3.16,0,0,0,65,36.59Z"/><polygon class="cls-9" points="61 35.99 59.92 39.26 63.1 39.78 63.18 35.89 61 35.99"/><path class="cls-4" d="M63.77,38.58a.21.21,0,0,1-.19-.11l-3.27-6.3a.21.21,0,0,1,.09-.28.21.21,0,0,1,.29.09L64,38.27a.22.22,0,0,1-.09.29Z"/><path class="cls-4" d="M81.72,18.39l3.91-1.11,5-.24a3.48,3.48,0,0,1,3.47,2.41,87.78,87.78,0,0,1,2.49,10.8,111.81,111.81,0,0,1,1.17,15.84H79a140.65,140.65,0,0,0-2.57-22.38A3.47,3.47,0,0,1,78.39,20Z"/><path class="cls-13" d="M96.61,30.25c-.5-2.88-1.15-6.11-1.88-8.78-3.34-.57-5,6.77-4,10.4s6.29,1.44,6.29,1.44C96.92,32.2,96.78,31.17,96.61,30.25Z"/><path class="cls-4" d="M85,9.67c.8,2,.32,5.6-1.27,4.57S84.48,8.46,85,9.67Z"/><path class="cls-9" d="M84.07,10.93l-1.52,2.32-2.06,3.16a3.11,3.11,0,0,1,.63.94c.38.76.69,1.33-.9,2.42a1,1,0,0,0-.48,1c.09.5.58,1,2.31.67a8,8,0,0,0,4.33-2.4c.57-.58.44-1-.11-1.6C84.7,15.79,84.23,13.1,84.07,10.93Z"/><path class="cls-10" d="M81,15.63l1.27-2.25.09.19a5.14,5.14,0,0,1,.27.86,3.65,3.65,0,0,1-1.4,3.11,1.14,1.14,0,0,0-.1-.19,4,4,0,0,0-.58-.9l-.05,0Z"/><path class="cls-4" d="M73.39,8.2c-.47,1.06,1.2,4.08,3.12,2.86S74.22,6.31,73.39,8.2Z"/><path class="cls-9" d="M83.4,7.13c.72,3.31,1.31,5.22.12,7.33-1.78,3.18-6.25,2.74-8-.31C74,11.4,73.13,6.44,76,4.3A4.71,4.71,0,0,1,83.4,7.13Z"/><path class="cls-4" d="M84.39,9.4c-1.14,1.62-4.14-1.35-3.9-3.35-3,1.69-6.2,4-8.16,2-2.26-2.19-1.64-5.34,1-5.62-.47.91,2.18,1.32,3.61-.1,2.4-2.37,6.19-1.87,6.12,0C84.9,1.69,86.9,5.84,84.39,9.4Z"/><path class="cls-4" d="M82.72,3c.71-.53.24-2.41-1.4-3C82.88.2,84.49,1.36,82.72,3Z"/><path class="cls-9" d="M85.44,9.26a3.1,3.1,0,0,1-.69,2.09c-.63.75-1.6.15-1.83-.79A2.37,2.37,0,0,1,83.81,8C84.62,7.63,85.4,8.31,85.44,9.26Z"/><path class="cls-4" d="M78.64,9.81c.09.27,0,.54-.15.61S78.1,10.31,78,10s0-.53.16-.6S78.55,9.55,78.64,9.81Z"/><path class="cls-4" d="M75.64,10.92c.09.26,0,.53-.15.6s-.39-.1-.48-.37,0-.54.16-.61S75.55,10.65,75.64,10.92Z"/><path class="cls-14" d="M76.67,10.77a9,9,0,0,1-.28,2.38,1.35,1.35,0,0,0,1.13-.26Z"/><path class="cls-4" d="M78.28,14.36a2.45,2.45,0,0,0,1.43-1.26.09.09,0,0,0,0-.11.08.08,0,0,0-.11,0,2.32,2.32,0,0,1-1.63,1.26.08.08,0,0,0,0,.16A1.68,1.68,0,0,0,78.28,14.36Z"/><path class="cls-4" d="M78.92,8.65,79,8.6a.16.16,0,0,0,0-.23,1.58,1.58,0,0,0-1.49-.16.16.16,0,0,0-.08.22.16.16,0,0,0,.22.08,1.27,1.27,0,0,1,1.17.14A.17.17,0,0,0,78.92,8.65Z"/><path class="cls-4" d="M75.05,9.18a.19.19,0,0,0,0-.08A.15.15,0,0,0,74.82,9a1.56,1.56,0,0,0-1,1.14.17.17,0,0,0,.14.19.18.18,0,0,0,.19-.14,1.25,1.25,0,0,1,.77-.89A.16.16,0,0,0,75.05,9.18Z"/><path class="cls-9" d="M93.49,19.56c.35.59.66,1.12,1,1.7s.6,1.12.88,1.7c.58,1.13,1.11,2.31,1.61,3.5s.94,2.42,1.33,3.71a21.31,21.31,0,0,1,.83,4.12A9.82,9.82,0,0,1,99,36.74a5.17,5.17,0,0,1-.48,1.54,4.7,4.7,0,0,1-1.12,1.45,4.91,4.91,0,0,1-1.41.85,5.75,5.75,0,0,1-1.35.38A8.93,8.93,0,0,1,92.3,41a14.91,14.91,0,0,1-2.07-.33c-.66-.15-1.3-.33-1.93-.54a24.73,24.73,0,0,1-3.61-1.53l.93-2.47a29.69,29.69,0,0,0,6.78.71,5.71,5.71,0,0,0,1.32-.23c.36-.11.56-.27.54-.32s0,0,0,0,0,0,0-.23a5.51,5.51,0,0,0-.07-1.23,16.26,16.26,0,0,0-.82-3.06c-.37-1.06-.81-2.14-1.29-3.2s-1-2.13-1.52-3.19c-.26-.53-.53-1.06-.81-1.58l-.83-1.53Z"/><path class="cls-4" d="M91.77,17.1c-3.54-.54-5.28,2.5-3.61,7a42.94,42.94,0,0,0,3.23,7.08L99,27.86C97.65,23.38,95.4,17.65,91.77,17.1Z"/><path class="cls-9" d="M83.66,35.8,82,36.3l2.32,3.29s3.43-1.23,2.73-2.73l-.86-.49A3.27,3.27,0,0,0,83.66,35.8Z"/><polygon class="cls-9" points="80.58 38.56 82.22 40.2 84.34 39.59 82.03 36.3 80.58 38.56"/><path class="cls-15" d="M122.77,41.42H21.23A1.22,1.22,0,0,1,20,40.2h0A1.22,1.22,0,0,1,21.23,39H122.77A1.22,1.22,0,0,1,124,40.2h0A1.22,1.22,0,0,1,122.77,41.42Z"/><path class="cls-16" d="M122.77,41.42H99a1.22,1.22,0,0,1-1.22-1.22h0A1.22,1.22,0,0,1,99,39h23.77A1.22,1.22,0,0,1,124,40.2h0A1.22,1.22,0,0,1,122.77,41.42Z"/><polygon class="cls-16" points="121.65 98.88 123.99 98.88 121.3 41.42 118.06 41.42 121.65 98.88"/><polygon class="cls-16" points="100.12 98.88 97.78 98.88 100.47 41.42 103.71 41.42 100.12 98.88"/><polygon class="cls-17" points="43.88 98.88 46.22 98.88 43.53 41.42 40.29 41.42 43.88 98.88"/><polygon class="cls-16" points="22.35 98.88 20.01 98.88 22.7 41.42 25.94 41.42 22.35 98.88"/><rect class="cls-16" x="23.39" y="44.48" width="78.09" height="4.82"/><path class="cls-8" d="M36.24,35.74a.51.51,0,0,0-.52.51v2.22a.51.51,0,0,0,.52.51h16.6a.16.16,0,0,0,.17-.17v-2.9a.17.17,0,0,0-.17-.17Z"/><path class="cls-18" d="M46.11,36H53a0,0,0,0,1,0,0v2.62a0,0,0,0,1,0,0h-6.9a.34.34,0,0,1-.34-.34V36.39A.34.34,0,0,1,46.11,36Z"/><rect class="cls-8" x="27.63" y="35.74" width="17.8" height="3.24" rx="0.59"/><rect class="cls-10" x="27.63" y="35.74" width="17.8" height="3.24" rx="0.59"/><rect class="cls-19" x="33.92" y="35.74" width="2.96" height="3.24" rx="0.24"/><rect class="cls-19" x="37.59" y="35.74" width="2.96" height="3.24" rx="0.24"/><path class="cls-11" d="M33.23,31.75a.51.51,0,0,0-.51.51v3a.51.51,0,0,0,.51.51h18a.16.16,0,0,0,.17-.17V31.92a.17.17,0,0,0-.17-.17Z"/><path class="cls-18" d="M43.11,32.06h8.28a0,0,0,0,1,0,0v3.37a0,0,0,0,1,0,0H43.11a.34.34,0,0,1-.34-.34V32.4A.34.34,0,0,1,43.11,32.06Z"/><rect class="cls-12" x="27.3" y="31.75" width="15.13" height="3.99" rx="0.59"/><rect class="cls-20" x="29.95" y="32.54" width="10.95" height="2.41" rx="0.36"/><path class="cls-21" d="M38.51,29.84c-.28,0-.51.14-.51.3v1.31c0,.17.23.3.51.3H55.12c.09,0,.17,0,.17-.1V29.94c0-.05-.08-.1-.17-.1Z"/><path class="cls-18" d="M48.3,30h7a0,0,0,0,1,0,0v1.55a0,0,0,0,1,0,0h-7a.26.26,0,0,1-.26-.26v-1A.26.26,0,0,1,48.3,30Z"/><rect class="cls-8" x="29.91" y="29.84" width="17.8" height="1.91" rx="0.45"/><rect class="cls-22" x="29.91" y="29.84" width="17.8" height="1.91" rx="0.45"/><rect class="cls-21" x="31.83" y="29.84" width="0.69" height="1.91" rx="0.09"/><rect class="cls-21" x="45.65" y="29.84" width="0.67" height="1.91" rx="0.09"/><path class="cls-15" d="M35.51,27.08c-.29,0-.52.14-.52.3v2.16c0,.17.23.3.52.3h18c.09,0,.16,0,.16-.1V27.18c0-.06-.07-.1-.16-.1Z"/><path class="cls-18" d="M45.3,27.26h8.36a0,0,0,0,1,0,0v2.4a0,0,0,0,1,0,0H45.3A.26.26,0,0,1,45,29.4V27.52A.26.26,0,0,1,45.3,27.26Z"/><rect class="cls-16" x="29.57" y="27.08" width="15.13" height="2.76" rx="0.45"/><path class="cls-23" d="M75.63,38.37H60.52a.3.3,0,0,0-.3.31h0a.3.3,0,0,0,.3.3H75.63a.31.31,0,0,0,.31-.3h0A.31.31,0,0,0,75.63,38.37Z"/><polygon class="cls-4" points="105.2 37.65 115.13 37.65 116.03 38.95 104.31 38.95 105.2 37.65"/><path d="M120.54,15.46a1.34,1.34,0,1,1-1.34-1.34A1.34,1.34,0,0,1,120.54,15.46Z"/><path class="cls-4" d="M110.5,38.53a.53.53,0,0,1-.17,0,.42.42,0,0,1-.22-.55l9.57-22.64a.42.42,0,0,1,.55-.23.42.42,0,0,1,.22.55l-9.57,22.65A.41.41,0,0,1,110.5,38.53Z"/><path class="cls-4" d="M120.06,15.88a.49.49,0,0,1-.25-.08l-17.38-13a.43.43,0,0,1-.08-.59.42.42,0,0,1,.59-.08l17.38,13a.43.43,0,0,1,.08.59A.42.42,0,0,1,120.06,15.88Z"/><path class="cls-4" d="M121.4,15.46a1.34,1.34,0,1,1-1.34-1.34A1.34,1.34,0,0,1,121.4,15.46Z"/><circle class="cls-4" cx="102.69" cy="2.43" r="1.33"/><path class="cls-23" d="M100.82,8.53a3,3,0,1,1,0-4.23A3,3,0,0,1,100.82,8.53Z"/><path class="cls-4" d="M102.69,2.43a6.41,6.41,0,0,0-9.06,0l9.06,9.06A6.41,6.41,0,0,0,102.69,2.43Z"/></g></g></g></svg>