<svg xmlns="http://www.w3.org/2000/svg" viewBox="0 0 123.58 122.79"><defs><style>.cls-1{isolation:isolate;}.cls-2{opacity:0.25;}.cls-3{fill:#3ec7cf;}.cls-4{fill:#e9e9e9;mix-blend-mode:multiply;}.cls-5{fill:#ff9291;}.cls-6{fill:#0e3063;}.cls-7{fill:#fff;}.cls-8{fill:#0a214c;}.cls-9{fill:#ffab4b;}.cls-10{fill:#00676c;}.cls-11{fill:#ff6969;}.cls-12{fill:#ffd133;}.cls-13{opacity:0.8;}.cls-14{fill:#ff6a46;}.cls-15,.cls-16{fill:#37202b;}.cls-16{stroke:#ff9291;stroke-miterlimit:10;stroke-width:0.13px;}</style></defs><g class="cls-1"><g id="Layer_2" data-name="Layer 2"><g id="Layer_1-2" data-name="Layer 1"><g class="cls-2"><path class="cls-3" d="M109.49,114C135,99.37,118,84.37,118,84.37a24,24,0,0,1-6.48-12c-2-9.18,6.38-18.54,3.6-27.5-2-6.6-9.47-10.08-16.35-10.66s-13.81.92-20.7.5c-8.26-.52-16.06-3.76-23.9-6.43S38,23.5,29.89,25.25,14.25,33.75,14.18,42c0,3.73,1.39,7.6.07,11.09-2.05,5.4-9.32,6.77-12.59,11.52s-1.16,10.82,1,16c8.58,21.23,28.59,32.54,45.45,38.3C48.06,119,80.93,130.28,109.49,114Z"/></g><path class="cls-4" d="M104.1,117.29c0,.94-16.06,1.69-35.88,1.69s-35.88-.75-35.88-1.69,16.06-1.68,35.88-1.68S104.1,116.36,104.1,117.29Z"/><polygon class="cls-5" points="62.44 28.92 53.01 37.36 54.46 40.73 65.53 33.28 62.44 28.92"/><path class="cls-6" d="M52.7,8.21a6.23,6.23,0,0,1,3.07,5.62c-.16,1.33-.89,2.72-.3,3.92.38.81,1.25,1.25,1.85,1.91a3.64,3.64,0,0,1,0,4.77c-.8.87-2,1.33-2.59,2.38-.27.54-.33,1.16-.61,1.69A3.28,3.28,0,0,1,50.92,30a13.23,13.23,0,0,1-3.54-1.06,6.28,6.28,0,0,0-3.63-.5c-2,.47-3.41,2.55-5.44,2.54a3.51,3.51,0,0,1-3.16-3.66,5.73,5.73,0,0,1,2.78-4.37,3.89,3.89,0,0,0,1.46-1.26c.51-1-.1-2.13-.51-3.16-.47-1.19-.58-2.73.36-3.6a6.07,6.07,0,0,0,.82-.7,3,3,0,0,0,.37-1.64,7.12,7.12,0,0,1,4.18-5.79C47.23,5.62,50.38,6.69,52.7,8.21Z"/><path class="cls-5" d="M64.42,40.22l7.9,8.5-1,2.11s-9.09-5.6-10.67-9.75S64.42,40.22,64.42,40.22Z"/><path class="cls-7" d="M69.08,112.21l1-6.15,3.27-.21-.66,6.7S69.94,113.07,69.08,112.21Z"/><path class="cls-8" d="M72.76,112.11a7.85,7.85,0,0,1-3.68.1s-6.13,2.34-6,4.17c0,0-.29.53,2.48.52s7.08,0,7.2,0S74.16,116.19,72.76,112.11Z"/><path class="cls-7" d="M72.89,116.9c-.12.06-4.49,0-7.3,0s-2.52-.53-2.52-.53a1,1,0,0,1,.06-.37l10.26-.26C73.32,116.65,73,116.87,72.89,116.9Z"/><path class="cls-7" d="M90.59,112.21l-1.69-6,4.08-.69,1.24,7S91.45,113.07,90.59,112.21Z"/><path class="cls-8" d="M94.27,112.11a7.85,7.85,0,0,1-3.68.1s-6.13,2.34-6,4.17c0,0-.29.53,2.48.52s7.09,0,7.2,0S95.67,116.19,94.27,112.11Z"/><path class="cls-7" d="M94.4,116.9c-.12.06-4.49,0-7.3,0s-2.52-.53-2.52-.53a1.19,1.19,0,0,1,.06-.37l10.26-.26C94.83,116.65,94.47,116.87,94.4,116.9Z"/><path class="cls-9" d="M91,55.11l3.56,54.35H89L79.42,68.55,74,109.46H68.63s.4-46.64,0-54.35S91,55.11,91,55.11Z"/><path class="cls-10" d="M83.66,17s10.27,3.07,11.85,5.84S97.46,33,97.46,33l-5.77.93.13,24.37s-9,3.17-23.58,0V33.63l-1.72,1.06-5.13-7.25s7.2-8.18,10.7-9.19A35,35,0,0,1,83.66,17Z"/><path class="cls-11" d="M77.09,8.2s-.38-.66-.74-.44c-.93.58-.14,1.49.42,1.73Z"/><path class="cls-5" d="M77.11,5.87h0a1.34,1.34,0,0,1,0-.2,5.29,5.29,0,0,1,6.14-4.61,5.22,5.22,0,0,1,4.49,5.06,5,5,0,0,1-.68,2.53c-.61,1.15-1.14,2.14-1.67,2.95a7.15,7.15,0,0,0-1.16,4.53l.1,1.25c-3.42,1.39-4.76-.3-4.76-.3l.16-2.27a.58.58,0,0,0-.5-.6h0C75.22,13.6,77,7.63,77.11,5.87Z"/><polygon class="cls-8" points="88.18 7 86.41 10.34 85.46 10.07 85.31 5.55 88.18 7"/><path class="cls-5" d="M85.33,9.94a.75.75,0,0,1,.44-.32,1.38,1.38,0,0,1,1.45.26c.59.68-.88,2.23-2.1,1.29C85.12,11.17,84.79,10.78,85.33,9.94Z"/><path class="cls-8" d="M78.15,4s-.81.45-1.29,3.55c0,0,.07-3.49.5-3.84S78.15,4,78.15,4Z"/><path class="cls-8" d="M88.75,5.47a6.43,6.43,0,0,0-.29-1.94A2.55,2.55,0,0,0,87.34,2a2.2,2.2,0,0,1-.74-.48A3.36,3.36,0,0,1,86.34,1,2,2,0,0,0,84.17.28a6.63,6.63,0,0,1-2.39.37C80.88.49,80-.25,79.17.09a6.17,6.17,0,0,0-.77.48,4.16,4.16,0,0,1-1.76.3A2.08,2.08,0,0,0,75,1.54a1.2,1.2,0,0,0,.51,1.73,1.53,1.53,0,0,1,.37.16c.48.32.18,1.18.6,1.58a1,1,0,0,0,.84.16A3.77,3.77,0,0,1,78.23,5c.65,0,1.15.63,1.79.77.9.2,1.77-.56,2.7-.54,1.38,0,2.19,1.65,3.51,2.05C87.86,7.79,88.7,6.9,88.75,5.47Z"/><path class="cls-5" d="M48.47,89s-4.22,20.32-2.75,22.39,3.78,4.17,3.84,5.28-7.66-1.43-8.19-2.61-.1-2.94,0-8,1.26-15.47,1.26-15.47Z"/><path class="cls-6" d="M49.56,116.66c0-.75-1.12-2-2.27-3.32-.69,2.23-4.76-.87-6.14-2a6.1,6.1,0,0,0,.22,2.71C41.9,115.23,49.61,117.76,49.56,116.66Z"/><path class="cls-5" d="M57.67,89.19s-.9,20.73.88,22.54,4.41,3.51,4.64,4.59-7.79-.18-8.5-1.26-.57-2.88-1.26-7.92S52.2,91.67,52.2,91.67Z"/><path class="cls-6" d="M63.19,116.32c-.16-.74-1.42-1.76-2.78-2.9-.31,2.3-4.83-.1-6.37-1a6,6,0,0,0,.65,2.64C55.4,116.14,63.42,117.4,63.19,116.32Z"/><path class="cls-12" d="M50,22s6.93,0,8.14,2.26c1.52,2.82,5.39,14.91,7.07,16a31.32,31.32,0,0,1-4.64,2.37s-2.47-4.52-3.16-6.2c0,0,.19,6.3.49,6.89A20.28,20.28,0,0,1,62.7,57.48c-.39,8.7-1.31,35.58-1.31,35.58H40.76s1-32.22,1.39-36.17c.28-2.85,2.73-7.46,4.07-9.8A3.29,3.29,0,0,0,46.34,44l-3.6-7.58-2,8.57-4.31-.63s.82-17.19,3.43-19.33C43.8,21.84,50,22,50,22Z"/><path class="cls-7" d="M44.59,23.07S39.4,26.51,52,28.92c0,0,5.19-5.13.94-6.44L49.33,22Z"/><path class="cls-11" d="M52.07,13.45s.33-.64.67-.43c.86.53.09,1.45-.42,1.68Z"/><path class="cls-5" d="M50.45,21.48,50.2,19.2c3-.7,2-6.3,1.81-8h0c0-.07,0-.13,0-.19a4.88,4.88,0,0,0-5.52-4.31A4.88,4.88,0,0,0,42.91,14a21.17,21.17,0,0,0,2.37,3.86,4.78,4.78,0,0,1,1.2,3.32h0a1.42,1.42,0,0,1-1.14,1.36l-.55.11L51.53,28l.85-5.82-1.25-.05A.69.69,0,0,1,50.45,21.48Z"/><path class="cls-6" d="M46.47,11.75a21.9,21.9,0,0,0-1.42,2.13,5.29,5.29,0,0,0-1,2.49,6.17,6.17,0,0,1-2-2.2,4.55,4.55,0,0,1-.59-1.24,5.12,5.12,0,0,1,0-1.95,5.35,5.35,0,0,1,.73-2.4,4,4,0,0,1,1.26-1.09,6.88,6.88,0,0,1,3.71-1A5,5,0,0,1,50.71,8c1.14,1.24,1.44,3,1.69,4.67a4.85,4.85,0,0,0-1.27-1.72,3.9,3.9,0,0,0-1.08-.86,20.73,20.73,0,0,1-2.15-.91A5.89,5.89,0,0,1,46.47,11.75Z"/><path class="cls-5" d="M44.54,15.24a.7.7,0,0,0-.41-.3,1.22,1.22,0,0,0-1.32.27c-.54.66.84,2.11,1.94,1.19C44.75,16.4,45.05,16,44.54,15.24Z"/><path class="cls-11" d="M51,16.52s-.59-.34-.8-.27a.64.64,0,0,0-.33.34.48.48,0,0,0-.4-.25,4.42,4.42,0,0,0-1.13.54s.88,1.09,1.68.91,1-1.27,1-1.27Z"/><path class="cls-7" d="M48.35,16.88A24.79,24.79,0,0,0,51,16.52s-.45.84-1.07.87A4,4,0,0,1,48.35,16.88Z"/><path class="cls-8" d="M57.37,36.53a.07.07,0,0,1-.06,0,.07.07,0,0,1,0-.09s1.78-1.08,1.13-3.86c-.31-1.33-2.23-2.36-2.25-2.37a.07.07,0,0,1,0-.09.06.06,0,0,1,.09,0c.08,0,2,1.06,2.31,2.46.67,2.88-1.17,4-1.19,4Z"/><path class="cls-8" d="M48.16,36.92a6,6,0,0,1-3-1.12.07.07,0,0,1,0-.1.06.06,0,0,1,.09,0s2.07,1.5,3.75,1a4.28,4.28,0,0,0,2.37-2.52.08.08,0,0,1,.09,0s.06.06,0,.09A4.42,4.42,0,0,1,49,36.79,2.62,2.62,0,0,1,48.16,36.92Z"/><path class="cls-5" d="M63.08,66.55s.17,11,1.92,15.94l-1.92.68A35.16,35.16,0,0,1,59.69,68.8C59.58,60.66,63.08,66.55,63.08,66.55Z"/><path class="cls-5" d="M62.74,82.47a16.89,16.89,0,0,0,.68,2.78c.32.65.44,1.66.86,1.61s0-1.58,0-1.58,1.18.88,1.5,1.2.76.67,1,.45-1.11-1.57-1.11-1.57,1.51,1.09,1.79.94-1.44-1.82-1.44-1.82a11.94,11.94,0,0,0,1.76,1.23c.21,0,.2-.28-.24-.85a6.66,6.66,0,0,0-1-1,13.54,13.54,0,0,0,1.34.83c.17,0,.44,0-.31-.79a31.08,31.08,0,0,1-2.94-2.52Z"/><path class="cls-5" d="M44.42,83.44A16,16,0,0,1,45.63,86c.16.71.7,1.57.35,1.79s-1-1.2-1-1.2-.37,1.43-.41,1.88-.17,1-.51,1-.12-1.93-.12-1.93-.5,1.8-.81,1.86,0-2.32,0-2.32a11.82,11.82,0,0,1-.6,2.06c-.17.13-.33-.08-.34-.81a6.5,6.5,0,0,1,.16-1.47,14.3,14.3,0,0,1-.52,1.49c-.1.14-.35.26-.26-.81a29.72,29.72,0,0,0,.72-3.81Z"/><path class="cls-7" d="M60.63,110s-.18,3.9-.15,4-.3.53-.3.53l-1.24.19-1.11-.56s.22-3.63.12-4.2S60.63,110,60.63,110Z"/><path class="cls-8" d="M57.83,114.11a3.23,3.23,0,0,0,2.65-.24s4.67,1.92,4.48,3.27c0,0,.19.4-1.85.25s-5.23-.34-5.32-.39S57.3,117.15,57.83,114.11Z"/><path class="cls-7" d="M50.59,110s-.18,3.9-.15,4-.3.53-.3.53l-1.24.19-1.11-.56s.21-3.63.11-4.2S50.59,110,50.59,110Z"/><path class="cls-8" d="M47.79,114.11a3.21,3.21,0,0,0,2.64-.24s4.68,1.92,4.49,3.27c0,0,.19.4-1.86.25s-5.23-.34-5.31-.39S47.26,117.15,47.79,114.11Z"/><path class="cls-8" d="M62.18,81.76A89.22,89.22,0,0,1,63.25,99.2a74.78,74.78,0,0,1-1.9,13.32H57.16S58.43,86.38,55.89,86s-.17,6.73-4.83,26l-3.81-.12s.85-19.47,0-29.29Z"/><path class="cls-7" d="M56.43,56.42s4.36,1.82,5.72,3.94a30.48,30.48,0,0,1,2.5,6.69,6,6,0,0,1-3.69.84s.2,10.93,1.67,14c0,0-.79,1.8-4.63,1.86s-8.56-.57-9.24-.23a13.75,13.75,0,0,1-2,.68s-.7-9.78-.79-14.82c0-2.25-.75-2-.75-2l-2.92-1.89s1.81-6.5,4.51-7.67a19.61,19.61,0,0,1,5.44-1.4Z"/><path class="cls-5" d="M59.34,47.46s.44-.66.78-.39c.88.69,0,1.57-.59,1.76Z"/><path class="cls-5" d="M59.53,45h0v-.21A5.39,5.39,0,1,0,49.23,47c1.13,2.87,1.83,4.84,3.31,5.76a.93.93,0,0,1,.43.79v1.36a1.82,1.82,0,0,1-.76,1.49h0c3,1.15,4.22,0,4.22,0h0a2,2,0,0,1-.71-1.51v-.75a.93.93,0,0,1,.79-.92h0C61.64,52.45,59.53,46.88,59.53,45Z"/><path class="cls-8" d="M50.72,48.83s1.65-3.49,1.49-5.35l-3.41-.3a6.45,6.45,0,0,0,1,5.31Z"/><path class="cls-5" d="M50.87,48.53a.78.78,0,0,0-.42-.38,1.35,1.35,0,0,0-1.48.13c-.66.67.67,2.42,2,1.55C51,49.83,51.33,49.45,50.87,48.53Z"/><path class="cls-8" d="M48.51,42.53a2.67,2.67,0,0,1-.5-1.69.75.75,0,0,1,.83.29,2.23,2.23,0,0,1,.33.88c0-.79.68-1.35,1.26-1.78A6.2,6.2,0,0,1,52.79,39a15.27,15.27,0,0,1,3.7,0c.91,0,1.83.12,2.74.13l.53,0c.26,0,.78-.1.78.3a1.48,1.48,0,0,1-.62,1.1,3.92,3.92,0,0,1-1.12.56,2.15,2.15,0,0,1,.67.06,8,8,0,0,1,.83.26.6.6,0,0,1,.37.29.42.42,0,0,1,0,.25c0,.78-1,1.34-1.6,1.57-2.11.76-4.44.22-6.68.3a10.55,10.55,0,0,1-3.17.07,3.45,3.45,0,0,1-1.4-1,.22.22,0,0,1,.18-.34A2,2,0,0,0,48.51,42.53Z"/><path class="cls-8" d="M58.79,43.69a7.08,7.08,0,0,1,.8,2,6.13,6.13,0,0,0-.17-2.52C59,42.6,58.79,43.69,58.79,43.69Z"/><path class="cls-5" d="M45.89,67.17s-2.22,13.45-1.43,17l-2.2.07a56.77,56.77,0,0,1,.52-19Z"/><path class="cls-7" d="M44.33,60.46a49.39,49.39,0,0,0-2.53,6.61s2.42,1.8,4.09,1.66,1.66-1.33,1.66-1.33l-1.66-4.74Z"/><path class="cls-5" d="M40.76,45S44.12,54.52,46,58.47L44.54,60s-7.76-10-7.73-15.51Z"/><path class="cls-5" d="M44.87,57.26a18.83,18.83,0,0,1,2.6.86c.63.33,1.48.2,1.42.6s-1.42.29-1.42.29.82,1.19,1.12,1.52.71,1,.49,1.29-1.59-1.43-1.59-1.43,1,1.52.85,1.79-1.72-1.48-1.72-1.48a12.64,12.64,0,0,1,1.14,1.77c0,.21-.28.19-.83-.27a6.65,6.65,0,0,1-1-1.06s.73,1.17.77,1.34,0,.43-.77-.33a11.09,11.09,0,0,1-2.32-3.9Z"/><path class="cls-5" d="M91.28,54.36a25.45,25.45,0,0,0-2.38,2.75c-.48.81-1.54,1.24-1.19,1.66s1.81-.65,1.81-.65-.12,1.92-.25,2.5-.08,1.68.34,1.8.82-2.71.82-2.71-.1,2.42.26,2.62,1-2.87,1-2.87a15.71,15.71,0,0,0-.08,2.8c.15.22.44,0,.75-.87a9.46,9.46,0,0,0,.39-1.88,18.41,18.41,0,0,0,0,2.05c.07.22.33.47.64-.9a14.53,14.53,0,0,0,0-6Z"/><path class="cls-5" d="M93.39,55.1c0-.92,3.5-6.93,3.8-12.38a65.11,65.11,0,0,0-.31-10c-1.53-.75-6.4-.25-6.4-.25l2.26,10.77L91.05,54.82Z"/><g class="cls-13"><path class="cls-14" d="M48.35,15.51c0,.21-.4.42-.93.47s-1-.09-1-.3.4-.42.93-.46S48.33,15.3,48.35,15.51Z"/></g><g class="cls-13"><path class="cls-14" d="M52.87,15.11c0,.21-.33.41-.78.45s-.84-.1-.86-.31.33-.41.79-.45S52.86,14.9,52.87,15.11Z"/></g><path class="cls-15" d="M48.27,14.35c0,.29-.08.54-.24.55s-.31-.21-.34-.49.09-.54.25-.55S48.25,14.07,48.27,14.35Z"/><path class="cls-15" d="M51.12,14.1c0,.29-.08.53-.24.55s-.31-.21-.34-.5.09-.53.25-.54S51.1,13.81,51.12,14.1Z"/><path class="cls-16" d="M46.65,13.17c0-.31.24-.91,1.21-1a.28.28,0,0,1,.28.17h0a.25.25,0,0,1-.17.33,1.16,1.16,0,0,0-.8.69.25.25,0,0,1-.35.12h0A.26.26,0,0,1,46.65,13.17Z"/><path class="cls-16" d="M51.64,12.72a1.23,1.23,0,0,0-1.38-.8.25.25,0,0,0-.24.21h0a.26.26,0,0,0,.23.3,1.14,1.14,0,0,1,.9.53.25.25,0,0,0,.37.07l0,0A.28.28,0,0,0,51.64,12.72Z"/><path class="cls-15" d="M49.73,15.69a1,1,0,0,0,.9-.6.12.12,0,0,0,0-.1c-.57-1-1.15-1.93-1.15-1.94a.14.14,0,0,0-.17,0,.13.13,0,0,0,0,.16l1.12,1.89a.83.83,0,0,1-.68.39.11.11,0,0,0-.1.13A.12.12,0,0,0,49.73,15.69Z"/><g class="cls-13"><path class="cls-14" d="M81.4,10c0,.23.47.41,1,.41s1-.18,1-.41-.46-.41-1-.41S81.4,9.79,81.4,10Z"/></g><g class="cls-13"><path class="cls-14" d="M76.48,10c0,.23.4.41.9.41s.89-.18.89-.41-.4-.41-.89-.41S76.48,9.79,76.48,10Z"/></g><path class="cls-15" d="M81.37,8.77c0,.31.14.57.31.57s.32-.26.32-.57-.14-.57-.32-.57S81.37,8.46,81.37,8.77Z"/><path class="cls-15" d="M78.27,8.77c0,.31.14.57.32.57s.32-.26.32-.57-.15-.57-.32-.57S78.27,8.46,78.27,8.77Z"/><path class="cls-15" d="M83,7.33a1.3,1.3,0,0,0-1.4-1,.27.27,0,0,0-.28.2h0a.28.28,0,0,0,.21.35,1.23,1.23,0,0,1,.92.66.28.28,0,0,0,.39.1l0,0A.29.29,0,0,0,83,7.33Z"/><path class="cls-15" d="M77.59,7.33a1.3,1.3,0,0,1,1.4-1,.27.27,0,0,1,.28.2h0a.28.28,0,0,1-.21.35,1.23,1.23,0,0,0-.92.66.28.28,0,0,1-.39.1l0,0A.27.27,0,0,1,77.59,7.33Z"/><path class="cls-15" d="M81.5,11a3.31,3.31,0,0,1-2.09,1,2,2,0,0,1-1.17-.39.13.13,0,1,1,.15-.21c1.42,1,2.91-.55,2.93-.57a.13.13,0,1,1,.18.18"/><path class="cls-15" d="M79.93,10.34a1.11,1.11,0,0,1-1-.55.11.11,0,0,1,0-.11c.52-1.08,1-2.19,1.06-2.2a.13.13,0,0,1,.23.11s-.51,1.08-1,2.14a.9.9,0,0,0,.77.36.12.12,0,0,1,.13.12A.13.13,0,0,1,79.93,10.34Z"/><g class="cls-13"><path class="cls-14" d="M54.66,49.05c0,.23-.47.42-1,.42s-1-.19-1-.42.47-.41,1-.41S54.66,48.83,54.66,49.05Z"/></g><g class="cls-13"><path class="cls-14" d="M59.57,49.05c0,.23-.4.42-.89.42s-.9-.19-.9-.42.4-.41.9-.41S59.57,48.83,59.57,49.05Z"/></g><path class="cls-15" d="M54.69,47.8c0,.31-.14.57-.32.57s-.31-.26-.31-.57.14-.57.31-.57S54.69,47.49,54.69,47.8Z"/><path class="cls-15" d="M57.78,47.8c0,.31-.14.57-.31.57s-.32-.26-.32-.57.14-.57.32-.57S57.78,47.49,57.78,47.8Z"/><path class="cls-15" d="M53.06,46.36c.07-.33.34-1,1.4-1a.28.28,0,0,1,.28.2h0a.28.28,0,0,1-.22.35,1.25,1.25,0,0,0-.92.66.27.27,0,0,1-.39.1l0,0A.27.27,0,0,1,53.06,46.36Z"/><path class="cls-15" d="M58.47,46.36a1.31,1.31,0,0,0-1.41-1,.29.29,0,0,0-.28.2h0a.28.28,0,0,0,.22.35,1.23,1.23,0,0,1,.92.66.27.27,0,0,0,.39.1l0,0A.29.29,0,0,0,58.47,46.36Z"/><path class="cls-15" d="M54.55,50a3.34,3.34,0,0,0,2.09,1,1.91,1.91,0,0,0,1.17-.39.12.12,0,0,0,0-.18.13.13,0,0,0-.17,0c-1.42,1-2.92-.55-2.93-.57a.13.13,0,0,0-.19.18"/><path class="cls-15" d="M56.12,49.37a1.13,1.13,0,0,0,1-.55.14.14,0,0,0,0-.11c-.52-1.08-1-2.19-1-2.2a.13.13,0,0,0-.17-.06.13.13,0,0,0-.07.17s.52,1.08,1,2.14a.87.87,0,0,1-.77.36.12.12,0,0,0-.12.13A.12.12,0,0,0,56.12,49.37Z"/></g></g></g></svg>