<svg xmlns="http://www.w3.org/2000/svg" xmlns:xlink="http://www.w3.org/1999/xlink" viewBox="0 0 502.68 291.09"><defs><style>.cls-1{fill:url(#linear-gradient);}.cls-2{fill:url(#linear-gradient-2);}.cls-3{fill:none;}.cls-4{fill:url(#linear-gradient-3);}.cls-5{isolation:isolate;}.cls-6{fill:#75c189;}.cls-7{fill:#55a062;}.cls-16,.cls-8{fill:#fdbba5;}.cls-9{fill:#ed892f;}.cls-10{fill:#b2b2b2;}.cls-11{fill:#fc9d45;}.cls-12{fill:#cbcbcb;}.cls-13{fill:#0a213f;}.cls-14{fill:#d67d89;}.cls-15{fill:#fff;}.cls-16{opacity:0.65;mix-blend-mode:multiply;}.cls-17{fill:#fdda31;}.cls-18{fill:#db8038;}.cls-19{fill:#fa5;}.cls-20{clip-path:url(#clip-path);}.cls-21{clip-path:url(#clip-path-2);}.cls-22{fill:url(#linear-gradient-6);}.cls-23{clip-path:url(#clip-path-3);}.cls-24{fill:#2f358f;}.cls-25{clip-path:url(#clip-path-4);}.cls-26{clip-path:url(#clip-path-5);}.cls-27{clip-path:url(#clip-path-6);}.cls-28{clip-path:url(#clip-path-7);}.cls-29{clip-path:url(#clip-path-8);}.cls-30{clip-path:url(#clip-path-9);}.cls-31{clip-path:url(#clip-path-10);}.cls-32{clip-path:url(#clip-path-11);}.cls-33{clip-path:url(#clip-path-12);}.cls-34{clip-path:url(#clip-path-13);}.cls-35{fill:#c6d8e5;}.cls-36{fill:#1ba575;}.cls-37{fill:#2dc788;}.cls-38{fill:#a8c4e1;}.cls-39{fill:url(#linear-gradient-8);}.cls-40{fill:#e78e23;}.cls-41{fill:#fdd39c;}.cls-42{fill:url(#linear-gradient-9);}.cls-43{fill:url(#linear-gradient-10);}.cls-44{fill:#231f20;}</style><linearGradient id="linear-gradient" x1="313.05" y1="166.26" x2="347.03" y2="112.77" gradientTransform="matrix(1, 0.04, -0.04, 1, 155.79, 24.85)" gradientUnits="userSpaceOnUse"><stop offset="0" stop-color="#fb9b33"/><stop offset="1" stop-color="#fdc762"/></linearGradient><linearGradient id="linear-gradient-2" x1="264.3" y1="85.76" x2="287.18" y2="133.53" gradientTransform="matrix(1, 0.04, -0.04, 1, 155.79, 24.85)" gradientUnits="userSpaceOnUse"><stop offset="0" stop-color="#fdc762"/><stop offset="1" stop-color="#fb9b33"/></linearGradient><linearGradient id="linear-gradient-3" x1="289.98" y1="169.2" x2="254.33" y2="125.47" gradientTransform="matrix(1, 0.04, -0.04, 1, 155.79, 24.85)" gradientUnits="userSpaceOnUse"><stop offset="0" stop-color="#1ba57d"/><stop offset="1" stop-color="#2dc790"/></linearGradient><clipPath id="clip-path"><path class="cls-1" d="M457.9,202.05c2.23,9.79,17.79,11.89,23.65,3.49,6.28-9-4-22.52,5.62-30,3.87-3,5.46-2.86,9.11-6.18s-.06-9.35,4.92-16.72c5.16-7.62-4.28-12.81-12-7.76-5.14,3.38-8.49,9.24-12.76,13.47-2.94,2.9-8.21.8-8.86,7.94a81.39,81.39,0,0,1-2.3,14.05c-.86,3.18-4.44,4.8-6,7.58C457.23,191.83,457,197.94,457.9,202.05Z"/></clipPath><clipPath id="clip-path-2"><path class="cls-2" d="M438.68,202.67c-4.56.89-9.3-5.13-11.31-8.55-3.23-5.53-5.06-12.65-3.39-18.52,1.34-4.69,3.74-10.28,1.8-15.11-2.06-5.11-6-5.31-8.56-10-4.43-8.15-.19-12.48-.05-17.23.2-6.77-3.28-7.74-3-14.52.2-5.59,7.92-8.73,12.15-5.61,11,8.12,7.18,12.8,12.09,19.63s11.1.23,11.68,23.32c.13,5.13-1.84,10.06-.84,15.23.51,2.64,2,4.79,2.74,7.34C454.17,186.56,447.2,201,438.68,202.67Z"/></clipPath><linearGradient id="linear-gradient-6" x1="313.27" y1="154.97" x2="296.12" y2="52.71" xlink:href="#linear-gradient-3"/><clipPath id="clip-path-3"><path class="cls-4" d="M446.17,208.87c-2.93,10.73-18.28,10.38-21.5,1.23-2.92-8.33,3.18-16.63-6.15-22.11-3.39-2-6-2-9.44-5.66s-1.64-7.73-2.59-11.64c-.34-1.37-4.55-5.79-5-7.14-2.14-7,6.62-13.37,12.3-7.09,4.76,5.26,10.58,5.7,15.16,9.7a32.25,32.25,0,0,1,7.66,9.2c2.29,4.57,1.71,9.54,3.19,14.33.94,3,4.18,4.2,5.71,6.8C447.88,200.47,447.32,204.7,446.17,208.87Z"/></clipPath><clipPath id="clip-path-4"><path class="cls-3" d="M453.35,287.78a28.41,28.41,0,0,1-28.42-28.42v-29.2a2.39,2.39,0,0,1,2.39-2.39h52.06a2.39,2.39,0,0,1,2.39,2.39v29.2A28.41,28.41,0,0,1,453.35,287.78Z"/></clipPath><clipPath id="clip-path-5"><rect class="cls-3" x="472.8" y="208.23" width="27.17" height="27.17"/></clipPath><clipPath id="clip-path-6"><rect class="cls-3" x="472.8" y="235.4" width="27.17" height="27.17"/></clipPath><clipPath id="clip-path-7"><rect class="cls-3" x="472.8" y="262.56" width="27.17" height="27.17"/></clipPath><clipPath id="clip-path-8"><rect class="cls-3" x="445.64" y="208.23" width="27.17" height="27.17"/></clipPath><clipPath id="clip-path-9"><rect class="cls-3" x="445.64" y="235.4" width="27.17" height="27.17"/></clipPath><clipPath id="clip-path-10"><rect class="cls-3" x="445.64" y="262.56" width="27.17" height="27.17"/></clipPath><clipPath id="clip-path-11"><rect class="cls-3" x="418.47" y="208.23" width="27.17" height="27.17"/></clipPath><clipPath id="clip-path-12"><rect class="cls-3" x="418.47" y="235.4" width="27.17" height="27.17"/></clipPath><clipPath id="clip-path-13"><rect class="cls-3" x="418.47" y="262.56" width="27.17" height="27.17"/></clipPath><linearGradient id="linear-gradient-8" x1="2164.77" y1="6071.82" x2="2164.77" y2="6012.06" gradientTransform="translate(-2135.96 -5908.51)" gradientUnits="userSpaceOnUse"><stop offset="0" stop-color="#fcc855"/><stop offset="1" stop-color="#f3ac4d"/></linearGradient><linearGradient id="linear-gradient-9" x1="2175.41" y1="6066.96" x2="2175.41" y2="6007.2" gradientTransform="translate(-2151.44 -5914.29)" xlink:href="#linear-gradient-8"/><linearGradient id="linear-gradient-10" x1="2186.17" y1="6072.34" x2="2186.17" y2="6012.58" gradientTransform="translate(-2156.83 -5930.43)" xlink:href="#linear-gradient-8"/></defs><g class="cls-5"><g id="Layer_2" data-name="Layer 2"><g id="Layer_8" data-name="Layer 8"><path class="cls-6" d="M403.55,227.79c-5.22,14.52-18.77,50.33-28.25,60.81L248,289.08s-21.42-22-27.3-31.6c-31-50.49-21.23-76.8.84-90,.78-.47,1.59-.92,2.41-1.37,26.12-14,66.85-11.57,79.8-9.1l.48.1C347,165.72,365,31.88,399.74,52.11c3.12,1.81,5.87,5.83,8.21,11.54C420.87,95.14,421.42,178.16,403.55,227.79Z"/><path class="cls-7" d="M408,63.65a131.77,131.77,0,0,1-2.71,23.48C392.5,151.19,392,174,372.43,192.36c-10.91,10.28-87.58,30.65-125,7.18-21.5-13.49-23.37-23.86-23.56-33.45,26.12-14,66.85-11.57,79.8-9.1l.48.1C347,165.72,365,31.88,399.74,52.11,402.86,53.92,405.61,57.94,408,63.65Z"/><path class="cls-6" d="M76.57,240.42c2.43,8.89-4.43,42,14.15,46.08,21.83,4.85,76.4,3.23,86.1-1.62s18.6-30.72,13.74-55.78c-2.88-14.9-4.41-27.58-14.45-34.16-.16-.11-.33-.21-.5-.31s-.33-.21-.51-.31c-6.89-4-17.51-5.39-34.58-3.08-13.71,1.87-39.49-4.18-51,2.49A19.5,19.5,0,0,0,85.3,197c-.17.17-.33.35-.49.52l-.4.45C74.29,209.58,74.46,232.65,76.57,240.42Z"/><path class="cls-7" d="M84.81,197.54a21.94,21.94,0,0,0,6.31,1.24,22.9,22.9,0,0,1,7.95,1.89,41.88,41.88,0,0,1,7.68,5,10.29,10.29,0,0,0,4.32,2.23c1,.25,2.36,1.12,3.5,1.28a44.64,44.64,0,0,0,10.85-.21c13.07-1.81,31.3-2.9,40.08-5.72a18.5,18.5,0,0,0,10.11-8.6c-.16-.11-.33-.21-.51-.31-6.89-4-17.51-5.39-34.58-3.08-13.71,1.87-39.49-4.18-51,2.49A19.5,19.5,0,0,0,85.3,197C85.13,197.19,85,197.37,84.81,197.54Z"/><path class="cls-8" d="M144.26,189.75s-.09-.76-4.39.58c-3.29,1-2.66-.32-9.15-6.9-6.74-6.84-7.13-7.41-4.32-8.85s2.13-1.61,5.24,2c6,7,11.55,4.84,11.55,4.84Z"/><path class="cls-9" d="M129.71,174.28s-2.65.48-1.36,3.55,6.14,8.07,7.16,9.75,3.67,3,4.36,2.75-3.48,3.36-6.3,2-3-6.94-5.53-9.45c-4.23-4.29-6.24-9.4-5-12.13C124.69,167.31,129.71,174.28,129.71,174.28Z"/><path class="cls-10" d="M363.71,160s7.92,15.31-10.56,23.23-52.8,4.76-66,2.12-42.77-9-42.77-9-13.2,7.92-23.76,9.5c-23.18,3.48-77.09,4.49-77.09,4.49l-3.17-9.77S239.63,155.8,248.6,155.8,332,157.38,332,157.38Z"/><path class="cls-8" d="M161.62,199s-.21-.83-4.82,1.21c-3.51,1.56-3,0-11.06-6.47-8.39-6.73-8.9-7.31-6-9.28s2.16-2.07,6.08,1.54c7.55,7,13.48,3.87,13.48,3.87Z"/><path class="cls-11" d="M143.41,183.73s-2.88.88-1,4.13,7.88,8.17,9.23,9.91,4.47,2.83,5.2,2.48-3.43,4.19-6.74,3-4.3-7.32-7.37-9.78c-5.27-4.22-8.17-9.65-7.1-12.85C136.93,176.64,143.41,183.73,143.41,183.73Z"/><path class="cls-12" d="M366.88,168.47s5.27,10.83-10.56,23.23c-47.65,37.32-73.45,25.56-66,2.11,4.07-12.83-39.6-13.2-39.6-13.2s-10,7.4-20.6,9C207,193.07,159.37,201,159.37,201L153,190.12S241.74,159,250.72,159s84.48,6.87,84.48,6.87Z"/><path class="cls-13" d="M342.24,27.13s-3,14.29-5.13,20.74-7.18,8.65-3.22,19.57C338.14,79.15,353.34,77,357.26,73s7.52-4,11.42-1.91,11.9,13.79,16.36,4.39C409,25,342.24,27.13,342.24,27.13Z"/><path class="cls-8" d="M295.18,132.69s-15.6,2-17.12,2.31.23,11.71.23,11.71,16.89-.52,20.23-2.32S295.18,132.69,295.18,132.69Z"/><path class="cls-14" d="M296.26,146.5l35.2-5.81c7.37-2.39,6.79-5.36,6.89-5.78l15.06-55.86c1.08-4.54,1.23-8.94-3.68-9.72S336.91,71.2,334.55,79c0,0-6.48,38.74-9.49,42.26s-30.16,9.84-30.16,9.84C296.58,138.19,297.37,139.61,296.26,146.5Z"/><path class="cls-8" d="M263.51,137.43a11.13,11.13,0,0,1,12.6-7.76,10,10,0,0,1,7.73,12.49,11.16,11.16,0,0,1-12.61,7.76A10,10,0,0,1,263.51,137.43Z"/><path class="cls-15" d="M296.74,146.57a33.05,33.05,0,0,0,.06-9.16c0-.29-.06-.56-.08-.8a14.91,14.91,0,0,0-1.4-5.71l-.84.49.42-.25-.42.25a14.56,14.56,0,0,1,1.27,5.31c0,.25.05.52.08.81a32.37,32.37,0,0,1-.05,8.91Z"/><path class="cls-14" d="M383.67,77.24s-7.17-6.78-27.32-7.84l-1.14-.07a43.22,43.22,0,0,0-8.87.55c-4.79.69-8.47,8.9-8.5,13.74,0,6.54-1.25,9.58-4,13.72-5.41,8.23-7,15.53-2.14,21.67,4.28,5.43,5.52,20.59-2.54,47.31,0,0,9,7.81,39.82,3.9,0,0-4.78-30.48,5.88-47.67C383.52,108.62,383.67,77.24,383.67,77.24Z"/><path class="cls-8" d="M349.73,69.33s-9,14.64-4.12,25.46l1.58,3.81S366.28,90,370.57,72.48s-17.88-2.8-17.88-2.8Z"/><path d="M346.93,99.24l.45-.19c.22-.09,21.83-9.57,24.69-33.59l-1-.12c-2.57,21.55-20.56,31.11-23.65,32.6a30.94,30.94,0,0,1,2.67-28.32l-.78-.58a32,32,0,0,0-2.6,29.75Z"/><path class="cls-8" d="M368.67,55.69s-3.83,9.74,0,15.41c0,0-12.49,7.32-18.5-.31,0,0,3.61-11.46,2.11-17.74C351.14,48.18,368.67,55.69,368.67,55.69Z"/><path class="cls-16" d="M352.48,54.06s12.09,2.19,15.72-.06c0,0,2,16.81,1.36,18.81a29.36,29.36,0,0,1-17-14.22S352.54,55.09,352.48,54.06Z"/><path class="cls-8" d="M346.51,25c-.44.69-1.21,2.91-1.19,6.48,0,4-.54,5.88-1.2,10.16-.78,5,4.4,20,20.69,16.77,12.92-2.58,16.61-17,16.75-27.95,0,0-13.76-16.51-24.48-13.18C357.08,17.27,352.27,15.81,346.51,25Z"/><path class="cls-15" d="M360.63,46.53c-2.12,1-6.81,1.6-11.53-1.29a.49.49,0,0,0-.71.56,7.36,7.36,0,0,0,6.38,5.61c3.78.48,5.7-2.48,6.45-4.07C361.42,46.93,361,46.33,360.63,46.53Z"/><path class="cls-13" d="M362.83,19.62s-15.8.24-17.49,11.54c-.55,3.7-6.31,19.28,1.3,25.62,0,0-9.49-14.13-7-23.83,3-11.62,5.18-8.85,3.74-12.75s6.58-19.09,18.79-14S362.83,19.62,362.83,19.62Z"/><path class="cls-8" d="M328.65,148.57s-2.79,4.08,23.39-6c3.74-1.44,5.45,11.94,5.45,11.94s1.14,2.26-24,6.47C323.81,162.58,328.65,148.57,328.65,148.57Z"/><path class="cls-14" d="M349.74,158.73c4.38-2.16,22.34-7.12,29.89-9.34a21.94,21.94,0,0,0,4.89-2.06c2.37-1.36,4.34-3.17,4.93-9.08,1.26-9.31.13-51.64.13-51.64-.11-5.28-4.53-13.24-12.92-13.33-5.28,0-7.13,7.21-7,12.49l.49,48.55L346,143.83,347.2,146a47.71,47.71,0,0,1,2.32,10.1Z"/><path class="cls-8" d="M316.22,153.4a11.16,11.16,0,0,1,13.4-6.28,10,10,0,0,1,6.26,13.29,11.13,11.13,0,0,1-13.4,6.28A10,10,0,0,1,316.22,153.4Z"/><path d="M346.26,144.86a.52.52,0,0,0,.25,0l23.81-10.06a.48.48,0,0,0,.29-.46l-.28-28.5a.49.49,0,0,0-1,0l.29,28.18-23.51,9.93a.49.49,0,0,0-.26.64A.48.48,0,0,0,346.26,144.86Z"/><path class="cls-13" d="M355,14.21l-.3-4.81C359.66-4.4,375.56.57,380,2.31c9.47,3.68,14.4,12.44,24,16.6,8,3.44,12.71,12.88,10,19-1,2.32,2.42,4.36,2,11.14-.52,8.2-2.75,10.52-6.83,12.24s-1.8,7.64-4,12.23c-4.09,8.37-17.94,13.71-26.62,8-7.5-4.92-8.27-5.7-10.71-12.06-1.76-4.58-1.85-14.25,2.15-18s7.59-5.25,6.1-11.82-6.69-8.88-14.49-12.35C353.08,23.52,355,14.21,355,14.21Z"/><path class="cls-8" d="M369.75,42.82c-.49,3.18,1.17,6.08,3.72,6.47s5-1.85,5.51-5S377.71,38,375.13,38A5.2,5.2,0,0,0,369.75,42.82Z"/><path class="cls-17" d="M373.42,47.83a1.94,1.94,0,1,0,2.22-1.62A2,2,0,0,0,373.42,47.83Z"/><path class="cls-18" d="M319.29,168l-55.72-9.9L254,120a3,3,0,0,1,3.48-3.73L306.65,125a3,3,0,0,1,2.41,2.25Z"/><path class="cls-19" d="M315.86,167.39l-55.72-9.9-9.56-38.08a3,3,0,0,1,3.49-3.73l49.15,8.73a3,3,0,0,1,2.42,2.25Z"/><path class="cls-15" d="M316.42,167.91l-56.61-10.06-9.62-38.34a3.45,3.45,0,0,1,3.95-4.24L303.29,124a3.45,3.45,0,0,1,2.75,2.55Zm-55.94-10.77,54.83,9.74-10.07-40.12a2.65,2.65,0,0,0-2.09-2L254,116.08a2.64,2.64,0,0,0-3,3.23Z"/><path class="cls-15" d="M285.29,142.55a6.27,6.27,0,0,0-5-5.38c-2.6-.46-4.58,1.2-4.42,3.7a6.27,6.27,0,0,0,5,5.38C283.47,146.72,285.45,145.06,285.29,142.55Z"/><path class="cls-13" d="M409.11,58.38s4,2.77,2,8.81-12.58,12.08-12.58,12.08l3-21.64Z"/><path class="cls-1" d="M457.9,202.05c2.23,9.79,17.79,11.89,23.65,3.49,6.28-9-4-22.52,5.62-30,3.87-3,5.46-2.86,9.11-6.18s-.06-9.35,4.92-16.72c5.16-7.62-4.28-12.81-12-7.76-5.14,3.38-8.49,9.24-12.76,13.47-2.94,2.9-8.21.8-8.86,7.94a81.39,81.39,0,0,1-2.3,14.05c-.86,3.18-4.44,4.8-6,7.58C457.23,191.83,457,197.94,457.9,202.05Z"/><g class="cls-20"><path class="cls-15" d="M486,162.25c-7.17,0-.13-14.17.71-13.65C486.93,148.74,481.3,162.25,486,162.25Z"/><path class="cls-15" d="M485,169c-1.44.29-2.22-.1-2.34-1.19-.81,1.49,13.73-5.84,12.11-6.93C496.67,162.17,486.25,169,485,169Z"/><path class="cls-15" d="M474.37,189.77c-1.42.45-2.33.14-2.73-.91-.7,2.52,12.05-4.5,10.62-5.19C484.71,184.84,475,189.77,474.37,189.77Z"/><path class="cls-15" d="M468.38,205.72c-1,.39-1.74.19-2.13-.62-.34,2.43,18.18-6.24,14.82-7.61C484.51,198.91,470.74,205.72,468.38,205.72Z"/></g><path class="cls-15" d="M460.7,237.06a.47.47,0,0,1-.47-.5c0-.08.53-8.86,4.77-27.27,5.55-24.13,26.41-56.32,26.62-56.64a.47.47,0,0,1,.79.51c-.21.32-21,32.38-26.49,56.35-4.22,18.33-4.75,27-4.75,27.11A.47.47,0,0,1,460.7,237.06Z"/><path class="cls-2" d="M438.68,202.67c-4.56.89-9.3-5.13-11.31-8.55-3.23-5.53-5.06-12.65-3.39-18.52,1.34-4.69,3.74-10.28,1.8-15.11-2.06-5.11-6-5.31-8.56-10-4.43-8.15-.19-12.48-.05-17.23.2-6.77-3.28-7.74-3-14.52.2-5.59,7.92-8.73,12.15-5.61,11,8.12,7.18,12.8,12.09,19.63s11.1.23,11.68,23.32c.13,5.13-1.84,10.06-.84,15.23.51,2.64,2,4.79,2.74,7.34C454.17,186.56,447.2,201,438.68,202.67Z"/><g class="cls-21"><path class="cls-15" d="M427.25,134.63c2.9,0,3.26-11.39,3.77-11.49C432,123,432.32,134.63,427.25,134.63Z"/><path class="cls-15" d="M428.2,144.54c-1,0-12.3-5.69-10.14-7.17-1.77,1.23,13.64,8.08,13,6.15C430.69,144.65,429.74,145,428.2,144.54Z"/><path class="cls-15" d="M433,151.36c5,0,4.33-17.17,5.05-17.27C438.51,134,440.37,151.36,433,151.36Z"/><path class="cls-15" d="M435.13,164.16c-2.14,0-12.51-7.79-10.2-9-2,1,13,10.41,12.36,8.16C437,164.22,436.26,164.5,435.13,164.16Z"/><path class="cls-15" d="M439.14,172.44c4.95,0,8.2-18.79,9.35-18.84C448,153.67,447,172.44,439.14,172.44Z"/></g><path class="cls-15" d="M446.05,234.11a.41.41,0,0,1-.42-.41c0-.13-.17-12.63-.6-31.72-.5-22.46-22-77.95-22.26-78.51a.42.42,0,0,1,.24-.55.43.43,0,0,1,.54.24c.22.56,21.82,56.2,22.33,78.81.42,19.09.59,31.59.59,31.72a.41.41,0,0,1-.41.42Z"/><path class="cls-22" d="M467.44,196c-6.36,2.79-17.57,1.83-22.88-3.77a29.32,29.32,0,0,1-7.92-22.31c.53-7.53,5.08-9.1,7.94-15.83,3.36-7.86.45-14-5.17-20.85-4-4.93-6.08-6-7.14-12.41-2-12.24,5-13.69,5.46-19.79.19-2.63-.53-11.59.22-14.13,2.47-8.37,13.32-8.2,19-1.42,6.83,8.2,5.34,9.5,7.63,16.91,2.94,9.47,15.2-1.23,14.51,30.93-.19,9-2.81,10.69-3.23,16.88-.32,4.76,3.27,11.52,4.41,16.22a49,49,0,0,1,1.23,13.28C481.17,187.91,471.3,194.27,467.44,196Z"/><path class="cls-15" d="M447.12,238.79a.51.51,0,0,1-.36-.15.48.48,0,0,1,0-.67c13.59-12.06,14.83-48.82,14.36-69.66-.72-32.17-13.05-75.62-13.18-76.06a.47.47,0,0,1,.33-.58.46.46,0,0,1,.58.32c.13.44,12.49,44,13.21,76.3.48,21-.8,58.08-14.67,70.39A.51.51,0,0,1,447.12,238.79Z"/><path class="cls-15" d="M453.58,113.11a.47.47,0,0,1-.05-.94c6.6-.71,7-16.08,7-16.23a.51.51,0,0,1,.48-.46.46.46,0,0,1,.46.48c0,.66-.47,16.35-7.88,17.15Z"/><path class="cls-15" d="M452.37,127.8c-10.33,0-17.57-14-17.66-14.18a.48.48,0,0,1,.21-.63.46.46,0,0,1,.63.2c.09.18,9,17.41,20.79,12.91a.45.45,0,0,1,.6.27.46.46,0,0,1-.27.61A12.11,12.11,0,0,1,452.37,127.8Z"/><path class="cls-15" d="M458.09,135.75a.47.47,0,0,1-.47-.44.48.48,0,0,1,.45-.5c12.9-.64,14.45-24.5,14.47-24.74a.49.49,0,0,1,.5-.45.48.48,0,0,1,.44.5c-.06,1-1.62,24.95-15.36,25.63Z"/><path class="cls-15" d="M461,157.33a.47.47,0,0,1,0-.94c10.49-1,15-16.5,15-16.66a.46.46,0,0,1,.58-.32.47.47,0,0,1,.33.58c-.19.66-4.73,16.24-15.86,17.34Z"/><path class="cls-15" d="M461.55,166.19c-12.06-1.07-14.85-12.16-14.88-12.27a.48.48,0,0,1,.35-.57.47.47,0,0,1,.57.35,15.76,15.76,0,0,0,14,11.55.47.47,0,0,1,0,.94Z"/><path class="cls-15" d="M461.59,185.77h0a.47.47,0,1,1,0-.94c10.25,0,16.64-17.16,16.71-17.33a.47.47,0,0,1,.6-.28.46.46,0,0,1,.28.6C478.87,168.56,472.44,185.77,461.59,185.77Z"/><path class="cls-15" d="M461.19,192.86c-13.91-.5-19.64-17.19-19.69-17.36a.47.47,0,0,1,.29-.6.47.47,0,0,1,.6.3c.05.16,5.58,16.24,18.82,16.72a.47.47,0,0,1,0,.94Z"/><path class="cls-4" d="M446.17,208.87c-2.93,10.73-18.28,10.38-21.5,1.23-2.92-8.33,3.18-16.63-6.15-22.11-3.39-2-6-2-9.44-5.66s-1.64-7.73-2.59-11.64c-.34-1.37-4.55-5.79-5-7.14-2.14-7,6.62-13.37,12.3-7.09,4.76,5.26,10.58,5.7,15.16,9.7a32.25,32.25,0,0,1,7.66,9.2c2.29,4.57,1.71,9.54,3.19,14.33.94,3,4.18,4.2,5.71,6.8C447.88,200.47,447.32,204.7,446.17,208.87Z"/><g class="cls-23"><path class="cls-15" d="M415.45,169.68c2.46,0,1.94-5,1-9.78C416.3,159.14,420.64,169.68,415.45,169.68Z"/><path class="cls-15" d="M415.69,178.79c-.73,0-8.53-1.74-7.45-3.11-.67.86,15,3.52,13.39.79C423.75,179.57,415.75,178.79,415.69,178.79Z"/><path class="cls-15" d="M426.46,184.07c3.42-2.31,3.55-7,2.48-9.94-.19-.5-3.11-9.18-2.66-9.41C427.27,164.21,434.88,184.07,426.46,184.07Z"/><path class="cls-15" d="M432.15,196.2c4.13-3.45,5.84-8.46,5.85-10.76C439.71,185.43,436.52,195.24,432.15,196.2Z"/><path class="cls-15" d="M437.19,210.63c6.2-3.94,6.11-14.95,6.56-14.95C445,195.68,442.71,210.63,437.19,210.63Z"/><path class="cls-15" d="M425.29,189.63c-1.46,0-9-3.93-8.54-6.68,1.79,3.59,10.52,7.79,12,5.12Q428.43,190.31,425.29,189.63Z"/></g><path class="cls-15" d="M441.53,234a.46.46,0,0,1-.47-.44c0-.23-1.8-23.07-11.5-42.24a123.49,123.49,0,0,0-21.5-29.58.46.46,0,0,1,0-.66.48.48,0,0,1,.67,0,125,125,0,0,1,21.7,29.83c9.78,19.35,11.57,42.37,11.59,42.6a.48.48,0,0,1-.44.51Z"/><path class="cls-24" d="M453.35,287.78a28.41,28.41,0,0,1-28.42-28.42V230a2.24,2.24,0,0,1,2.24-2.24h52.36a2.24,2.24,0,0,1,2.24,2.24v29.35A28.41,28.41,0,0,1,453.35,287.78Z"/><g class="cls-25"><g class="cls-26"><path class="cls-15" d="M500,236.76a1.36,1.36,0,1,0-1.36-1.36A1.36,1.36,0,0,0,500,236.76Z"/><path class="cls-15" d="M486.39,236.76A1.36,1.36,0,1,0,485,235.4,1.36,1.36,0,0,0,486.39,236.76Z"/><path class="cls-15" d="M500,223.17a1.36,1.36,0,1,0-1.36-1.36A1.36,1.36,0,0,0,500,223.17Z"/><path class="cls-15" d="M486.39,223.17a1.36,1.36,0,1,0-1.36-1.36A1.36,1.36,0,0,0,486.39,223.17Z"/><path class="cls-15" d="M479.59,230a1.36,1.36,0,1,0-1.35-1.35A1.35,1.35,0,0,0,479.59,230Z"/><path class="cls-15" d="M493.18,230a1.36,1.36,0,1,0-1.36-1.35A1.35,1.35,0,0,0,493.18,230Z"/><path class="cls-15" d="M479.59,216.38a1.36,1.36,0,1,0-1.35-1.36A1.36,1.36,0,0,0,479.59,216.38Z"/><path class="cls-15" d="M493.18,216.38a1.36,1.36,0,1,0-1.36-1.36A1.36,1.36,0,0,0,493.18,216.38Z"/><path class="cls-15" d="M472.8,236.76a1.36,1.36,0,1,0-1.35-1.36A1.36,1.36,0,0,0,472.8,236.76Z"/><path class="cls-15" d="M472.8,223.17a1.36,1.36,0,1,0,0-2.71,1.36,1.36,0,0,0,0,2.71Z"/><path class="cls-15" d="M500,209.59a1.36,1.36,0,1,0-1.36-1.36A1.36,1.36,0,0,0,500,209.59Z"/><path class="cls-15" d="M486.39,209.59a1.36,1.36,0,1,0-1.36-1.36A1.36,1.36,0,0,0,486.39,209.59Z"/><path class="cls-15" d="M472.8,209.59a1.36,1.36,0,1,0-1.35-1.36A1.36,1.36,0,0,0,472.8,209.59Z"/></g><g class="cls-27"><path class="cls-15" d="M500,263.92a1.36,1.36,0,1,0-1.36-1.36A1.36,1.36,0,0,0,500,263.92Z"/><path class="cls-15" d="M486.39,263.92a1.36,1.36,0,1,0-1.36-1.36A1.36,1.36,0,0,0,486.39,263.92Z"/><path class="cls-15" d="M500,250.34a1.36,1.36,0,1,0-1.36-1.36A1.36,1.36,0,0,0,500,250.34Z"/><path class="cls-15" d="M486.39,250.34A1.36,1.36,0,1,0,485,249,1.36,1.36,0,0,0,486.39,250.34Z"/><path class="cls-15" d="M479.59,257.13a1.36,1.36,0,1,0-1.35-1.36A1.36,1.36,0,0,0,479.59,257.13Z"/><path class="cls-15" d="M493.18,257.13a1.36,1.36,0,1,0-1.36-1.36A1.36,1.36,0,0,0,493.18,257.13Z"/><path class="cls-15" d="M479.59,243.55a1.36,1.36,0,1,0-1.35-1.36A1.36,1.36,0,0,0,479.59,243.55Z"/><path class="cls-15" d="M493.18,243.55a1.36,1.36,0,1,0-1.36-1.36A1.36,1.36,0,0,0,493.18,243.55Z"/><path class="cls-15" d="M472.8,263.92a1.36,1.36,0,1,0,0-2.71,1.36,1.36,0,0,0,0,2.71Z"/><path class="cls-15" d="M472.8,250.34a1.36,1.36,0,1,0-1.35-1.36A1.36,1.36,0,0,0,472.8,250.34Z"/><path class="cls-15" d="M500,236.76a1.36,1.36,0,1,0-1.36-1.36A1.36,1.36,0,0,0,500,236.76Z"/><path class="cls-15" d="M486.39,236.76A1.36,1.36,0,1,0,485,235.4,1.36,1.36,0,0,0,486.39,236.76Z"/><path class="cls-15" d="M472.8,236.76a1.36,1.36,0,1,0-1.35-1.36A1.36,1.36,0,0,0,472.8,236.76Z"/></g><g class="cls-28"><path class="cls-15" d="M500,291.09a1.36,1.36,0,1,0-1.36-1.36A1.36,1.36,0,0,0,500,291.09Z"/><path class="cls-15" d="M486.39,291.09a1.36,1.36,0,1,0-1.36-1.36A1.36,1.36,0,0,0,486.39,291.09Z"/><path class="cls-15" d="M500,277.51a1.36,1.36,0,1,0-1.36-1.36A1.36,1.36,0,0,0,500,277.51Z"/><path class="cls-15" d="M486.39,277.51a1.36,1.36,0,1,0-1.36-1.36A1.36,1.36,0,0,0,486.39,277.51Z"/><path class="cls-15" d="M479.59,284.3a1.36,1.36,0,1,0-1.35-1.36A1.36,1.36,0,0,0,479.59,284.3Z"/><path class="cls-15" d="M493.18,284.3a1.36,1.36,0,1,0-1.36-1.36A1.36,1.36,0,0,0,493.18,284.3Z"/><path class="cls-15" d="M479.59,270.71a1.36,1.36,0,1,0-1.35-1.35A1.35,1.35,0,0,0,479.59,270.71Z"/><path class="cls-15" d="M493.18,270.71a1.36,1.36,0,1,0-1.36-1.35A1.35,1.35,0,0,0,493.18,270.71Z"/><path class="cls-15" d="M472.8,291.09a1.36,1.36,0,1,0-1.35-1.36A1.36,1.36,0,0,0,472.8,291.09Z"/><path class="cls-15" d="M472.8,277.51a1.36,1.36,0,1,0-1.35-1.36A1.36,1.36,0,0,0,472.8,277.51Z"/><path class="cls-15" d="M500,263.92a1.36,1.36,0,1,0-1.36-1.36A1.36,1.36,0,0,0,500,263.92Z"/><path class="cls-15" d="M486.39,263.92a1.36,1.36,0,1,0-1.36-1.36A1.36,1.36,0,0,0,486.39,263.92Z"/><path class="cls-15" d="M472.8,263.92a1.36,1.36,0,1,0,0-2.71,1.36,1.36,0,0,0,0,2.71Z"/></g><g class="cls-29"><path class="cls-15" d="M472.8,236.76a1.36,1.36,0,1,0-1.35-1.36A1.36,1.36,0,0,0,472.8,236.76Z"/><path class="cls-15" d="M459.22,236.76a1.36,1.36,0,1,0-1.36-1.36A1.36,1.36,0,0,0,459.22,236.76Z"/><path class="cls-15" d="M472.8,223.17a1.36,1.36,0,1,0,0-2.71,1.36,1.36,0,0,0,0,2.71Z"/><path class="cls-15" d="M459.22,223.17a1.36,1.36,0,1,0-1.36-1.36A1.36,1.36,0,0,0,459.22,223.17Z"/><path class="cls-15" d="M452.43,230a1.36,1.36,0,1,0-1.36-1.35A1.35,1.35,0,0,0,452.43,230Z"/><path class="cls-15" d="M466,230a1.36,1.36,0,1,0-1.36-1.35A1.35,1.35,0,0,0,466,230Z"/><path class="cls-15" d="M452.43,216.38a1.36,1.36,0,1,0-1.36-1.36A1.36,1.36,0,0,0,452.43,216.38Z"/><path class="cls-15" d="M466,216.38a1.36,1.36,0,1,0-1.36-1.36A1.36,1.36,0,0,0,466,216.38Z"/><path class="cls-15" d="M445.64,236.76a1.36,1.36,0,1,0-1.36-1.36A1.36,1.36,0,0,0,445.64,236.76Z"/><path class="cls-15" d="M445.64,223.17a1.36,1.36,0,1,0-1.36-1.36A1.36,1.36,0,0,0,445.64,223.17Z"/><path class="cls-15" d="M472.8,209.59a1.36,1.36,0,1,0-1.35-1.36A1.36,1.36,0,0,0,472.8,209.59Z"/><path class="cls-15" d="M459.22,209.59a1.36,1.36,0,1,0-1.36-1.36A1.36,1.36,0,0,0,459.22,209.59Z"/><path class="cls-15" d="M445.64,209.59a1.36,1.36,0,1,0-1.36-1.36A1.36,1.36,0,0,0,445.64,209.59Z"/></g><g class="cls-30"><path class="cls-15" d="M472.8,263.92a1.36,1.36,0,1,0,0-2.71,1.36,1.36,0,0,0,0,2.71Z"/><path class="cls-15" d="M459.22,263.92a1.36,1.36,0,1,0-1.36-1.36A1.36,1.36,0,0,0,459.22,263.92Z"/><path class="cls-15" d="M472.8,250.34a1.36,1.36,0,1,0-1.35-1.36A1.36,1.36,0,0,0,472.8,250.34Z"/><path class="cls-15" d="M459.22,250.34a1.36,1.36,0,1,0-1.36-1.36A1.36,1.36,0,0,0,459.22,250.34Z"/><path class="cls-15" d="M452.43,257.13a1.36,1.36,0,1,0-1.36-1.36A1.36,1.36,0,0,0,452.43,257.13Z"/><path class="cls-15" d="M466,257.13a1.36,1.36,0,1,0-1.36-1.36A1.36,1.36,0,0,0,466,257.13Z"/><path class="cls-15" d="M452.43,243.55a1.36,1.36,0,1,0-1.36-1.36A1.36,1.36,0,0,0,452.43,243.55Z"/><path class="cls-15" d="M466,243.55a1.36,1.36,0,1,0-1.36-1.36A1.36,1.36,0,0,0,466,243.55Z"/><path class="cls-15" d="M445.64,263.92a1.36,1.36,0,1,0-1.36-1.36A1.36,1.36,0,0,0,445.64,263.92Z"/><path class="cls-15" d="M445.64,250.34a1.36,1.36,0,1,0-1.36-1.36A1.36,1.36,0,0,0,445.64,250.34Z"/><path class="cls-15" d="M472.8,236.76a1.36,1.36,0,1,0-1.35-1.36A1.36,1.36,0,0,0,472.8,236.76Z"/><path class="cls-15" d="M459.22,236.76a1.36,1.36,0,1,0-1.36-1.36A1.36,1.36,0,0,0,459.22,236.76Z"/><path class="cls-15" d="M445.64,236.76a1.36,1.36,0,1,0-1.36-1.36A1.36,1.36,0,0,0,445.64,236.76Z"/></g><g class="cls-31"><path class="cls-15" d="M472.8,291.09a1.36,1.36,0,1,0-1.35-1.36A1.36,1.36,0,0,0,472.8,291.09Z"/><path class="cls-15" d="M459.22,291.09a1.36,1.36,0,1,0-1.36-1.36A1.36,1.36,0,0,0,459.22,291.09Z"/><path class="cls-15" d="M472.8,277.51a1.36,1.36,0,1,0-1.35-1.36A1.36,1.36,0,0,0,472.8,277.51Z"/><path class="cls-15" d="M459.22,277.51a1.36,1.36,0,1,0-1.36-1.36A1.36,1.36,0,0,0,459.22,277.51Z"/><path class="cls-15" d="M452.43,284.3a1.36,1.36,0,1,0-1.36-1.36A1.36,1.36,0,0,0,452.43,284.3Z"/><path class="cls-15" d="M466,284.3a1.36,1.36,0,1,0-1.36-1.36A1.36,1.36,0,0,0,466,284.3Z"/><path class="cls-15" d="M452.43,270.71a1.36,1.36,0,1,0-1.36-1.35A1.35,1.35,0,0,0,452.43,270.71Z"/><path class="cls-15" d="M466,270.71a1.36,1.36,0,1,0-1.36-1.35A1.35,1.35,0,0,0,466,270.71Z"/><path class="cls-15" d="M445.64,291.09a1.36,1.36,0,1,0-1.36-1.36A1.36,1.36,0,0,0,445.64,291.09Z"/><path class="cls-15" d="M445.64,277.51a1.36,1.36,0,1,0-1.36-1.36A1.36,1.36,0,0,0,445.64,277.51Z"/><path class="cls-15" d="M472.8,263.92a1.36,1.36,0,1,0,0-2.71,1.36,1.36,0,0,0,0,2.71Z"/><path class="cls-15" d="M459.22,263.92a1.36,1.36,0,1,0-1.36-1.36A1.36,1.36,0,0,0,459.22,263.92Z"/><path class="cls-15" d="M445.64,263.92a1.36,1.36,0,1,0-1.36-1.36A1.36,1.36,0,0,0,445.64,263.92Z"/></g><g class="cls-32"><path class="cls-15" d="M445.64,236.76a1.36,1.36,0,1,0-1.36-1.36A1.36,1.36,0,0,0,445.64,236.76Z"/><path class="cls-15" d="M432.05,236.76a1.36,1.36,0,1,0-1.35-1.36A1.36,1.36,0,0,0,432.05,236.76Z"/><path class="cls-15" d="M445.64,223.17a1.36,1.36,0,1,0-1.36-1.36A1.36,1.36,0,0,0,445.64,223.17Z"/><path class="cls-15" d="M432.05,223.17a1.36,1.36,0,1,0,0-2.71,1.36,1.36,0,0,0,0,2.71Z"/><path class="cls-15" d="M425.26,230a1.36,1.36,0,1,0-1.35-1.35A1.35,1.35,0,0,0,425.26,230Z"/><path class="cls-15" d="M438.85,230a1.36,1.36,0,1,0-1.36-1.35A1.34,1.34,0,0,0,438.85,230Z"/><path class="cls-15" d="M425.26,216.38a1.36,1.36,0,1,0-1.35-1.36A1.36,1.36,0,0,0,425.26,216.38Z"/><path class="cls-15" d="M438.85,216.38a1.36,1.36,0,1,0-1.36-1.36A1.35,1.35,0,0,0,438.85,216.38Z"/><path class="cls-15" d="M418.47,236.76a1.36,1.36,0,1,0-1.36-1.36A1.36,1.36,0,0,0,418.47,236.76Z"/><path class="cls-15" d="M418.47,223.17a1.36,1.36,0,1,0-1.36-1.36A1.36,1.36,0,0,0,418.47,223.17Z"/><path class="cls-15" d="M445.64,209.59a1.36,1.36,0,1,0-1.36-1.36A1.36,1.36,0,0,0,445.64,209.59Z"/><path class="cls-15" d="M432.05,209.59a1.36,1.36,0,1,0-1.35-1.36A1.36,1.36,0,0,0,432.05,209.59Z"/><path class="cls-15" d="M418.47,209.59a1.36,1.36,0,1,0-1.36-1.36A1.36,1.36,0,0,0,418.47,209.59Z"/></g><g class="cls-33"><path class="cls-15" d="M445.64,263.92a1.36,1.36,0,1,0-1.36-1.36A1.36,1.36,0,0,0,445.64,263.92Z"/><path class="cls-15" d="M432.05,263.92a1.36,1.36,0,1,0,0-2.71,1.36,1.36,0,0,0,0,2.71Z"/><path class="cls-15" d="M445.64,250.34a1.36,1.36,0,1,0-1.36-1.36A1.36,1.36,0,0,0,445.64,250.34Z"/><path class="cls-15" d="M432.05,250.34A1.36,1.36,0,1,0,430.7,249,1.36,1.36,0,0,0,432.05,250.34Z"/><path class="cls-15" d="M425.26,257.13a1.36,1.36,0,1,0-1.35-1.36A1.36,1.36,0,0,0,425.26,257.13Z"/><path class="cls-15" d="M438.85,257.13a1.36,1.36,0,1,0-1.36-1.36A1.35,1.35,0,0,0,438.85,257.13Z"/><path class="cls-15" d="M425.26,243.55a1.36,1.36,0,1,0-1.35-1.36A1.36,1.36,0,0,0,425.26,243.55Z"/><path class="cls-15" d="M438.85,243.55a1.36,1.36,0,1,0-1.36-1.36A1.35,1.35,0,0,0,438.85,243.55Z"/><path class="cls-15" d="M418.47,263.92a1.36,1.36,0,1,0-1.36-1.36A1.36,1.36,0,0,0,418.47,263.92Z"/><path class="cls-15" d="M418.47,250.34a1.36,1.36,0,1,0-1.36-1.36A1.36,1.36,0,0,0,418.47,250.34Z"/><path class="cls-15" d="M445.64,236.76a1.36,1.36,0,1,0-1.36-1.36A1.36,1.36,0,0,0,445.64,236.76Z"/><path class="cls-15" d="M432.05,236.76a1.36,1.36,0,1,0-1.35-1.36A1.36,1.36,0,0,0,432.05,236.76Z"/><path class="cls-15" d="M418.47,236.76a1.36,1.36,0,1,0-1.36-1.36A1.36,1.36,0,0,0,418.47,236.76Z"/></g><g class="cls-34"><path class="cls-15" d="M445.64,291.09a1.36,1.36,0,1,0-1.36-1.36A1.36,1.36,0,0,0,445.64,291.09Z"/><path class="cls-15" d="M432.05,291.09a1.36,1.36,0,1,0-1.35-1.36A1.36,1.36,0,0,0,432.05,291.09Z"/><path class="cls-15" d="M445.64,277.51a1.36,1.36,0,1,0-1.36-1.36A1.36,1.36,0,0,0,445.64,277.51Z"/><path class="cls-15" d="M432.05,277.51a1.36,1.36,0,1,0-1.35-1.36A1.36,1.36,0,0,0,432.05,277.51Z"/><path class="cls-15" d="M425.26,284.3a1.36,1.36,0,1,0-1.35-1.36A1.36,1.36,0,0,0,425.26,284.3Z"/><path class="cls-15" d="M438.85,284.3a1.36,1.36,0,1,0-1.36-1.36A1.35,1.35,0,0,0,438.85,284.3Z"/><path class="cls-15" d="M425.26,270.71a1.36,1.36,0,1,0-1.35-1.35A1.35,1.35,0,0,0,425.26,270.71Z"/><path class="cls-15" d="M438.85,270.71a1.36,1.36,0,0,0,0-2.71,1.36,1.36,0,1,0,0,2.71Z"/><path class="cls-15" d="M418.47,291.09a1.36,1.36,0,1,0-1.36-1.36A1.36,1.36,0,0,0,418.47,291.09Z"/><path class="cls-15" d="M418.47,277.51a1.36,1.36,0,1,0-1.36-1.36A1.36,1.36,0,0,0,418.47,277.51Z"/><path class="cls-15" d="M445.64,263.92a1.36,1.36,0,1,0-1.36-1.36A1.36,1.36,0,0,0,445.64,263.92Z"/><path class="cls-15" d="M432.05,263.92a1.36,1.36,0,1,0,0-2.71,1.36,1.36,0,0,0,0,2.71Z"/><path class="cls-15" d="M418.47,263.92a1.36,1.36,0,1,0-1.36-1.36A1.36,1.36,0,0,0,418.47,263.92Z"/></g></g><polygon class="cls-35" points="131.16 134.64 107.21 134.64 104.83 113.56 133.53 113.56 131.16 134.64"/><path class="cls-36" d="M121.67,114.5s-3.31-25,19.91-32.76c-2.49,1.38-13.27,22.12-13.41,31.93C125.27,115.88,121.67,114.5,121.67,114.5Z"/><path class="cls-36" d="M122.29,105.52s1-25.22-22.86-30.78c2.6,1.15,15.26,20.8,16.31,30.56C118.84,107.23,122.29,105.52,122.29,105.52Z"/><path class="cls-37" d="M120,113.2S118.64,88,94.38,84.69c2.7.9,17.14,19.28,19.09,28.9C116.73,115.23,120,113.2,120,113.2Z"/><path class="cls-37" d="M122.66,113.92s12.68-21.83-5.78-37.9c1.77,2.23,3.75,25.52.1,34.63C118.81,113.81,122.66,113.92,122.66,113.92Z"/><path class="cls-38" d="M132.13,117.12h-25.9a2.79,2.79,0,0,1,0-5.57h25.9a2.79,2.79,0,1,1,0,5.57Z"/><rect class="cls-24" y="133.4" width="142.29" height="5.55"/><rect class="cls-19" x="65.32" y="87.2" width="10.74" height="46.19"/><path class="cls-15" d="M73.53,126.59a2.85,2.85,0,1,0-2.84,2.85A2.84,2.84,0,0,0,73.53,126.59Z"/><rect class="cls-35" x="67.1" y="90.86" width="7.4" height="23.66"/><rect class="cls-19" x="53.24" y="87.2" width="10.74" height="46.19"/><path class="cls-15" d="M61.46,126.59a2.85,2.85,0,1,0-2.85,2.85A2.85,2.85,0,0,0,61.46,126.59Z"/><rect class="cls-35" x="55.03" y="90.86" width="7.4" height="23.66"/><rect class="cls-39" x="23.45" y="105.05" width="10.74" height="46.19" transform="translate(-99.32 156.96) rotate(-90)"/><path class="cls-40" d="M45.12,125.3A2.85,2.85,0,1,0,48,128.14,2.84,2.84,0,0,0,45.12,125.3Z"/><rect class="cls-41" x="17.51" y="116.2" width="7.4" height="23.66" transform="translate(-106.81 149.24) rotate(-90)"/><rect class="cls-42" x="18.59" y="94.42" width="10.74" height="46.19" transform="translate(-93.55 141.47) rotate(-90)"/><path class="cls-40" d="M40.26,114.67a2.85,2.85,0,1,0,2.85,2.84A2.84,2.84,0,0,0,40.26,114.67Z"/><rect class="cls-41" x="12.65" y="105.57" width="7.4" height="23.66" transform="translate(-101.04 133.75) rotate(-90)"/><rect class="cls-43" x="23.97" y="83.65" width="10.74" height="46.19" transform="translate(-77.4 136.09) rotate(-90)"/><path class="cls-40" d="M45.65,103.9a2.85,2.85,0,1,0,2.84,2.85A2.85,2.85,0,0,0,45.65,103.9Z"/><rect class="cls-41" x="18.03" y="94.8" width="7.4" height="23.66" transform="translate(-84.89 128.37) rotate(-90)"/><rect class="cls-19" x="77.39" y="87.2" width="10.74" height="46.19"/><path class="cls-15" d="M85.61,126.59a2.85,2.85,0,1,0-2.85,2.85A2.84,2.84,0,0,0,85.61,126.59Z"/><rect class="cls-35" x="79.18" y="90.86" width="7.4" height="23.66"/><path class="cls-44" d="M345.87,33.19c.09,1.56,1,3.29,2.7,3.51a2.5,2.5,0,0,0,2.85-2.48c0-.64-1.05-.65-1,0a1.52,1.52,0,0,1-1.93,1.44,2.6,2.6,0,0,1-1.6-2.47c0-.65-1.05-.65-1,0Z"/><path class="cls-44" d="M359.55,35.54a2.73,2.73,0,0,0,5.39.73.51.51,0,0,0-1-.27,1.72,1.72,0,0,1-3.4-.46.51.51,0,0,0-1,0Z"/><path class="cls-44" d="M353.59,36.39l-.45,8.24a.52.52,0,0,0,.51.51l1,0a.51.51,0,0,0,0-1h-1l.5.5c.15-2.75.31-5.49.46-8.24,0-.65-1-.65-1,0Z"/></g></g></g></svg>