<svg xmlns="http://www.w3.org/2000/svg" viewBox="0 0 376.62 325.68"><defs><style>.cls-1{fill:#885d3e;}.cls-2{fill:#fdca2f;}.cls-3{fill:#ee81ab;}.cls-4{fill:#4ec0c4;}.cls-5{fill:#231f20;}.cls-6{fill:#2d74b5;}.cls-7{fill:#282733;}.cls-8{fill:#ec9992;}.cls-9{fill:#fa5;}.cls-10{fill:#323340;}.cls-11{fill:#db8038;}.cls-12{fill:#fff;}.cls-13{fill:#dd769e;}</style></defs><g id="Layer_2" data-name="Layer 2"><g id="Layer_8" data-name="Layer 8"><polygon class="cls-1" points="7.43 325.68 0 325.68 7.67 218.17 65.53 218.17 75.88 325.68 69.46 325.68 57.37 233.58 17.47 233.58 7.43 325.68"/><rect class="cls-2" x="33.06" y="128.89" width="8.77" height="89.28"/><path class="cls-2" d="M54.05,218.51H21.83c0-1.15,7.21-2.08,16.11-2.08S54.05,217.36,54.05,218.51Z"/><path class="cls-3" d="M14.55,164.27c0-3.6,8.08-48,8.08-48H52l8.38,48.23Z"/><path class="cls-4" d="M87.62,157.46c2.83-30.46,20.13-64.09,42.79-83.72,16.5-14.29,40.67-21,62.14-21.94,16.34-.68,41.17,4.32,56,11.37,19,9,33.37,34.29,41,54.24C309.77,170,304,216.2,296.44,272.32a64,64,0,0,1-7.53,21.89c-7.76,14.39-19.18,18.7-27.29,20.39-26.08,5.43-47.62-2.87-74.16-1.31-18,1.07-36.1,2.13-54.09.63-15.5-1.3-32.27-5.39-41.71-18.2-7.27-9.86-8.72-23-9.37-35.36C80.46,225.57,87.62,157.46,87.62,157.46Z"/><path class="cls-5" d="M94.47,187.31c21.14-.55,42.29-1.15,63.44-1.61,10.25-.23,20.48-.24,30.72.06,9.55.28,19.1.67,28.66.38,9.87-.31,19.87-1.31,29.27-4.5.46-.16.27-.89-.2-.73-17.37,5.9-36.49,4.74-54.54,4.19-20.61-.63-41.18,0-61.79.54l-35.56.91a.38.38,0,0,0,0,.76Z"/><path class="cls-6" d="M179.53,15.88c-.83-1.23,8.43-13.73,12.31-15a19.72,19.72,0,0,1,24.8,12.94,25.74,25.74,0,0,0,1.57,4.68,4.65,4.65,0,0,0,3.85,2.69c2.23,0,3.79-2.19,5.86-3a6.58,6.58,0,0,1,6.07,1,13.87,13.87,0,0,1,4,4.92c1.2,2.22,2.32,4.78,4.61,5.85s5.16.2,7.71-.46,5.65-.91,7.42,1c1.44,1.58,1.38,4,2.35,5.92,1.57,3.12,5.54,4.24,9,4a10.74,10.74,0,0,1,4.27.14c2.23.79,3.36,3.3,3.71,5.65,1.16,7.63-3.45,15.28-9.83,19.62s-14.23,5.9-21.92,6.61c-6,.56-12.21.65-18.12-.76s-11.57-4.41-15.33-9.18-5.64-11.06-10.81-14c-3.26-1.87-7.25-2-10.68-3.53a26,26,0,0,1-5.58-3.68c-2.18-1.76-4.4-3.71-5.4-6.33-2.46-6.43,1.36-12.31.1-19.08"/><path class="cls-5" d="M182.75,21.48a3.06,3.06,0,0,0-3.54,1.36,8,8,0,0,0-1.2,4.4,9,9,0,0,0,1,4.63,3.8,3.8,0,0,0,3.48,2.1,4.23,4.23,0,0,0,3-2.41,11.35,11.35,0,0,0,1.09-4.25,8.25,8.25,0,0,0-.62-4.72c-.75-1.36-2.44-2.08-3.53-1.1"/><path class="cls-7" d="M226.41,169.42c-9,22.24-25.41,16.33-33.39,17.14-12.52,1.26-25.05,2.53-37.44,4.72-3.92,7.12-4.6,15.51-5.19,23.61q-2.64,35.79-5.26,71.58c-4.41,2.21-14.61.06-19.52-.46-2-19.08-7.82-92.54-6.28-97.47a37.83,37.83,0,0,1,4.5-8.73q5.17-8.2,10.37-16.4c2.21-3.49,4.53-7.09,8-9.33,3-1.93,6.59-2.67,10.08-3.37,5.63-1.13,24.44-4.29,30.07-5.42"/><path class="cls-8" d="M185.55,14.38C184,21,182.4,28.1,184.73,34.5A8.63,8.63,0,0,0,187.92,39a7.63,7.63,0,0,0,5.31.85c4.18-.68,7.73-3.67,9.86-7.32a28.55,28.55,0,0,0,3.35-12.14c.36-4.25-.05-9.15-3.41-11.78a12.19,12.19,0,0,0-6.63-2.12c-2.27-.19-4.7-.12-6.62,1.12-2.5,1.62-3.48,4.81-3.73,7.79"/><path class="cls-8" d="M189.67,38.83a52.63,52.63,0,0,0-1.45,10.89,30.37,30.37,0,0,0-7,1L171.42,53A27.58,27.58,0,0,0,165,55a9.13,9.13,0,0,0-4.56,4.78c1.13,3.39,5.31,4.46,8.86,4.88C180.47,66,191.77,66,203.05,66.09a71.61,71.61,0,0,0,14.64-.94,36,36,0,0,0,11.84-4.69,6.28,6.28,0,0,0-2.83-4.33,16.68,16.68,0,0,0-4.89-2.07,104,104,0,0,0-23.94-4,46.49,46.49,0,0,1,.37-14.37,22.58,22.58,0,0,1-9,2.64"/><path class="cls-6" d="M187.91,6.38a9.08,9.08,0,0,0-3.2,5.82,5.81,5.81,0,0,0,.1,2.2,5.7,5.7,0,0,0,3.7,3.57,20.56,20.56,0,0,0,5.25.84,21,21,0,0,1,8.73,2.27c2.62,1.5,4.74,4.2,4.83,7.22,3.09-4.17,2.64-10,1.15-15-.82-2.72-2-5.5-4.22-7.26a12.41,12.41,0,0,0-4.82-2.14c-4-1-8.88-.63-11.54,2.56"/><path class="cls-5" d="M210,26.6a4.35,4.35,0,0,0-5.69-1.5,6.24,6.24,0,0,0-2,2,11.86,11.86,0,0,0-2,7.16,4.91,4.91,0,0,0,.85,2.75,3.71,3.71,0,0,0,1,.87,5.73,5.73,0,0,0,5.93-.25,8.23,8.23,0,0,0,3.37-5.08c.49-2.13.21-4.61-1.4-6.1"/><path class="cls-5" d="M182.36,25.39c-.28-4-.34-9.78,1-13.52s3.83-7.07,7.16-8.68a12.28,12.28,0,0,1,11.82,1,20.31,20.31,0,0,1,7.75,10.23c1.63,4.41,2.09,9.58.24,13.88a5.85,5.85,0,0,0-2.7-.44,33.33,33.33,0,0,0,0-9.25c-.56-4.2-1.89-8.54-4.9-11.17-3.69-3.23-9.34-2.95-13.17.08s-5.72,12.66-5.72,17.87c0,0-1,0-1.46,0"/><path class="cls-9" d="M161.47,56C147.11,66.38,132,77.79,126,94.49a20.46,20.46,0,0,0-1.42,9.41c.76,5.86,5.23,10.47,9.61,14.44a230.49,230.49,0,0,0,39.07,28.58c8.39,4.88,17.11,9.24,25,14.84s15.16,12.6,19.29,21.38c1.54-2.35,6.45-5.93,8.8-10.84,3.6-7.52,2.39-19.23,1.1-27.47a45.72,45.72,0,0,0,13.72-.07c4.5-.88,8.9-3,11.7-6.67,3.53-4.58,4.06-10.87,3-16.56s-3.49-11-5.43-16.44c-3.06-8.53-4.92-17.44-7.84-26s-7.06-17-13.76-23.1c-6.38,5.47-15.41,6.35-23.8,6.64-7.05.25-39.27,1.4-43.65-6.63"/><path class="cls-5" d="M171.88,134.74c4.7,0,14.69-.69,19.56-.4a10,10,0,0,0-.75-4.55.77.77,0,0,0-.26-.39.82.82,0,0,0-.58-.06c-5.95.8-11-.21-18,.59.85,1.64-.5,3,0,4.81"/><path class="cls-10" d="M118.9,136Q98.2,176.56,78.31,217.5c-1.09,2.24-2.21,4.69-1.72,7.14.46,2.27,2.23,4.05,4,5.5a38.58,38.58,0,0,0,7.64,4.79,2.16,2.16,0,0,0,1.55.29,2.25,2.25,0,0,0,1-.92l28.79-39.49c7.83-10.73,15.73-21.59,20.92-33.83a9,9,0,0,1,2.32-3.7A8.46,8.46,0,0,1,145.7,156l29.05-8.85a56.85,56.85,0,0,0-13.17-22.69,11.54,11.54,0,0,0-3.69-2.87c-2.51-1.06-5.37-.42-8,.3a134,134,0,0,0-31.4,13.16"/><path class="cls-5" d="M217.05,97.14a109.27,109.27,0,0,1,4.11,16.35c.09.48.82.27.74-.21a110.72,110.72,0,0,0-4.12-16.34c-.16-.46-.89-.26-.73.2Z"/><path class="cls-8" d="M182.38,112.5a12.77,12.77,0,0,0-5.53-.38,16.11,16.11,0,0,0-4.15,1.29,13.37,13.37,0,0,0-5.09,3.68A7.42,7.42,0,0,0,166,123a5.17,5.17,0,0,0,4.22,4.17,10.49,10.49,0,0,0,2.89-.26,26.43,26.43,0,0,1,9.09.1c-.48-5,1.71-9.84,1.58-14.81"/><path class="cls-9" d="M73.52,221.27c-1.56,3.7-3.6,8.28-5.16,12a1.27,1.27,0,0,1-.52.71,1.28,1.28,0,0,1-.8,0c-3.7-.64-7.43-1.35-11.16-1.09s-7.56,1.62-10,4.46q7.55,5.29,15.2,10.42c2,1.33,4,2.65,6.06,3.79,2.67,1.45,5.5,2.61,8.06,4.25,2.23,1.44,4.29,3.26,6.83,4a1.55,1.55,0,0,0,.9.07,1.76,1.76,0,0,0,.88-1q5.69-11.52,11-23.2c-6.36-5.78-13.87-10.13-21.31-14.44"/><path class="cls-11" d="M44.58,238c-1,6.57,30.79,22.63,35.37,23.29s3.09-1.48,3.34-1.86c.46-.72-.43-1.44-.94-2.12-2.25-3-5.21-5.1-7.88-7.27-1.39-1.13-18.41-12.94-27.33-13.28a4.4,4.4,0,0,0-1.62,0,1.22,1.22,0,0,0-.88,1.19"/><path class="cls-6" d="M254.76,316.14a125.2,125.2,0,0,1,1-21.9l-70.27-.85a34.46,34.46,0,0,0-8.84.65,14.44,14.44,0,0,0-10,8.36c-1.75,4.39-.67,10.23,3,12.78A10.43,10.43,0,0,0,175,317.1c23,1.29,49.58.81,79.68-.05"/><path class="cls-12" d="M254,312.79a69.7,69.7,0,0,1,.79-14.92l-58.3-.58a34.49,34.49,0,0,0-7.33.45c-3.5.72-6.83,2.7-8.29,5.69a6.74,6.74,0,0,0,2.48,8.71,10,10,0,0,0,4.43,1.3c19,.88,41.13.55,66.11,0"/><path class="cls-7" d="M247.06,294.1a134.69,134.69,0,0,1,.69-19.48l-50.58-.76a20,20,0,0,0-6.35.59,11.26,11.26,0,0,0-7.19,7.43c-1.26,3.9-.49,9.1,2.15,11.37a6.69,6.69,0,0,0,3.84,1.71c16.52,1.14,35.68.71,57.34,0"/><path class="cls-12" d="M246.31,291.9a91,91,0,0,1,.6-14.76l-43.8-.57a19.63,19.63,0,0,0-5.51.44,9.21,9.21,0,0,0-6.22,5.63c-1.09,3-.42,6.9,1.86,8.62a6.18,6.18,0,0,0,3.33,1.29c14.3.87,30.9.55,49.66,0"/><path class="cls-6" d="M302.72,226.42a60,60,0,0,0-14.07-26.7c-4-4.33-9-9.25-7.78-15a2.67,2.67,0,0,1,.91-1.69c.86-.61,2-.21,3,.2l8.85,3.75c4.51-12-11.34-32.15-7.61-36.67s7.16,3.71,7.16,3.71q-1.14-13.85-2.27-27.69c-.23-2.69-.39-5.62,1.13-7.85,2.76-4.09,9.58-3,12.73.77s3.68,9.05,4.1,14q.9,10.44,2,20.87a2.49,2.49,0,0,0,1.93,2.2c2,.41,2.85-2.31,4.14-3.86,2-2.43,6.28-1.83,8.26.63s2,6,1,9-2.84,5.62-4.46,8.33a58.23,58.23,0,0,0-7.38,19.9c3.38,1.43,7.32-2.71,10.7-.52a4.67,4.67,0,0,1,2,3.93c0,3.1-1.92,5.5-3.8,7.74-7.19,8.57-13.45,16.38-20.63,24.95"/><path class="cls-3" d="M286.18,319.12l-4.63-66.42h52.69s-1.83,67.74-2.62,67.73C327.29,320.36,286.18,319.12,286.18,319.12Z"/><path class="cls-5" d="M304.94,250.87c-3-16.1.35-32.44.83-48.61a206.69,206.69,0,0,0-1.16-25.12c-.75-8.3-1.54-16.6-2.31-24.91Q301,138.12,299.68,124c-.11-1.23-2.05-1.24-1.94,0q2.36,25.21,4.69,50.44a246.29,246.29,0,0,1,1.46,25.17c-.08,8.21-1,16.38-1.59,24.56-.66,9.07-.89,18.22.77,27.21.22,1.22,2.09.7,1.87-.52Z"/><path class="cls-6" d="M290.47,244.94a17.86,17.86,0,0,0-9.93-6.17c-3.59-.8-7.32-.47-11-.67S262,237,259.43,234.39c-1.11-1.16-1.75-3.34-.37-4.15s3.25.43,4.24-.67-.41-2.71-1.67-3.48c-4.51-2.74-9.27-5.13-13.42-8.4s-7.73-7.58-8.87-12.74c-.46-2.08-.44-4.45.86-6.14,2.3-3,7-2.19,10.4-.56a34.67,34.67,0,0,1,12.59,10.3c1,1.37,2,2.87,3.55,3.65s3.78.47,4.44-1.12c.83-2-1.17-4.83.5-6.21a2.76,2.76,0,0,1,2-.44c3.32.32,5.84,3,7.8,5.74a60.47,60.47,0,0,1,11.41,35"/><path class="cls-6" d="M315.23,235.3a42.74,42.74,0,0,1,11-23,3.09,3.09,0,0,1,1.11-.86c1.13-.42,2.37.62,2.63,1.79a6.38,6.38,0,0,1-.54,3.5c2.6.48,4.3-2.57,5.14-5.08q3.11-9.21,6.22-18.43c.75-2.24,3-5,4.85-3.53,1,.79.92,2.26,1.06,3.52s1,2.75,2.25,2.44c.66-.16,1.07-.82,1.38-1.43,3.41-6.66,3.56-14.91,8.28-20.72a9,9,0,0,1,4.75-3.29c4-.91,8,2.59,8.89,6.59s-.51,8.15-2.4,11.79-4.27,7.06-5.52,11c1.9,1.38,4.05-1.41,6.27-2.22,2.48-.9,5.35,1.2,5.87,3.8s-.86,5.27-2.83,7a23,23,0,0,1-6.93,3.79l-13.83,5.62c-2.25.91-4.92,2.5-4.61,4.9l6.9,1.13c1.25,1.55-.9,3.56-2.74,4.33a86.81,86.81,0,0,1-36.08,6.65"/><path class="cls-5" d="M295.72,251.12a71.31,71.31,0,0,0-25.05-29.2,69,69,0,0,0-9.62-5.36c-1.12-.52-2.11,1.15-1,1.67a69.42,69.42,0,0,1,28.7,24.46,68.18,68.18,0,0,1,5.26,9.4c.52,1.14,2.19.15,1.68-1Z"/><path class="cls-5" d="M312.39,251.19a28.14,28.14,0,0,1,3.54-13.35,29.07,29.07,0,0,1,9.85-10.32c4.23-2.73,8.78-4.9,12.86-7.88a61.82,61.82,0,0,0,19.29-23.07c.54-1.12-1.13-2.1-1.68-1a59.91,59.91,0,0,1-18.2,22.09c-4.12,3-8.72,5.27-13,8a31.42,31.42,0,0,0-10.22,10.23,30.16,30.16,0,0,0-4.35,15.25,1,1,0,0,0,1.94,0Z"/><polygon class="cls-13" points="340.08 246.77 339.68 256.93 275.71 256.93 275.71 247.04 340.08 246.77"/><path class="cls-11" d="M107.4,319.1c-.82.33-.7,1.65,0,2.15a3.65,3.65,0,0,0,2.55.35,134.76,134.76,0,0,0,38.39-10.11,2.66,2.66,0,0,0,1.07-.67c.71-.84.11-2.25-.88-2.73a5.36,5.36,0,0,0-3.25-.16c-9.33,1.59-18.34,4.6-27.31,7.6L107.69,319"/><path class="cls-9" d="M123,285c.72,4.08,2.59,9.9,3,13.39a20.64,20.64,0,0,0-11.35,2.71c-2.88,1.77-4.44,2.74-6,5.74a17.56,17.56,0,0,0-1.49,4.36,24,24,0,0,0-.22,9.09c0,.25,9.9-1.2,13.12-2,9.66-2.46,16.8-3.75,26.6-7.55.83-.33,1.81-.58,2.21-1.38a3.4,3.4,0,0,0,.09-2.12c-1.32-7.34-.24-15.3-2.11-22.51-3.54-.38-22.71.56-23.9.29"/><path class="cls-9" d="M256.31,124.13c-1.43-3.43-6.81-6.82-14.43-8.32-9.9-1.93-53.95-6-59-6.06a166.86,166.86,0,0,0-2,17.09c.15.58,40.71,23.23,66.53,17.25,6.41-1.49,11.6-10.92,9-20"/><path class="cls-5" d="M256.63,123.94c-1.14-2.58-3.67-4.36-6.11-5.62a32.68,32.68,0,0,0-9.56-3.06c-4.19-.72-8.44-1.2-12.67-1.68-11.49-1.32-23-2.43-34.52-3.42-3.63-.31-7.29-.72-10.93-.79a.38.38,0,0,0-.36.28c-.79,4.32-1.29,8.7-1.73,13.07a15.51,15.51,0,0,0-.32,4,.87.87,0,0,0,.45.7,24.94,24.94,0,0,0,4,2.26c2.67,1.4,5.39,2.72,8.13,4a156.2,156.2,0,0,0,23.31,8.59c8.44,2.31,17.37,3.93,26.14,3.07a22.63,22.63,0,0,0,6.32-1.23,12.23,12.23,0,0,0,5.1-4.13A18.43,18.43,0,0,0,256.67,124a.38.38,0,0,0-.73.21,17.84,17.84,0,0,1-1.62,13.6,13.58,13.58,0,0,1-4,4.52,12.27,12.27,0,0,1-5,1.76c-7.21,1.24-14.7.45-21.81-1a146,146,0,0,1-37.09-13.57c-1.44-.73-2.87-1.49-4.26-2.31a3.93,3.93,0,0,1-.94-.59c-.11-.13.06.19,0,0a4.94,4.94,0,0,1,.06-1.21c.25-3.31.65-6.62,1.09-9.92.13-1,.27-2,.42-3,.06-.41.13-.83.19-1.24,0-.09.33-1.46,0-1.19.22-.16,1.24.05,1.51.07,11,.65,22,1.82,33,3,5.95.61,11.89,1.25,17.82,2,6.12.8,12.65,1.68,17.7,5.53a9.48,9.48,0,0,1,3.06,3.62c.19.44.85.06.65-.39Z"/><path class="cls-5" d="M99.46,93.59c5.75,14.09,10.25,28,16.55,41.37,8.48-.22,55.59-.44,60.57-.24Q169.67,113,162.76,91.36c-5.63,1.12-63.3,2.23-63.3,2.23"/><path class="cls-5" d="M184.41,23.33a2.65,2.65,0,0,0,2,2.64,1.88,1.88,0,0,0,2.14-1.86c0-.49-.79-.49-.76,0a1.12,1.12,0,0,1-1.44,1.07,2,2,0,0,1-1.21-1.85c0-.49-.79-.49-.76,0Z"/><path class="cls-5" d="M194.69,25.1a2,2,0,0,0,4,.55.38.38,0,0,0-.73-.21,1.3,1.3,0,0,1-2.56-.34.38.38,0,0,0-.75,0Z"/><path class="cls-5" d="M190.21,25.73c-.11,2.07-.22,4.13-.34,6.2a.4.4,0,0,0,.38.38H191a.38.38,0,0,0,0-.76h-.75l.38.38c.12-2.07.23-4.13.34-6.2,0-.49-.73-.49-.76,0Z"/><path class="cls-5" d="M191,36.87a3.84,3.84,0,0,0,3.76-2.16c.21-.44-.45-.82-.66-.38a3.1,3.1,0,0,1-3.1,1.78c-.49,0-.49.72,0,.76Z"/><path class="cls-5" d="M158.44,58.6c3.21,4.55,9.46,5.91,14.63,6.84a114.51,114.51,0,0,0,19,1.61,139.43,139.43,0,0,0,20.31-1.25,53.85,53.85,0,0,0,13.32-3.08,21.88,21.88,0,0,0,5.65-3.6c.37-.31-.17-.84-.54-.53a21.44,21.44,0,0,1-4.5,3,41.71,41.71,0,0,1-11,3,131.49,131.49,0,0,1-38.76.62,59.76,59.76,0,0,1-8.28-1.65c-3.44-1-7-2.33-9.18-5.36-.28-.4-.94,0-.66.38Z"/></g></g></svg>