<svg xmlns="http://www.w3.org/2000/svg" xmlns:xlink="http://www.w3.org/1999/xlink" viewBox="0 0 459.06 310.1"><defs><style>.cls-1{isolation:isolate;}.cls-2{fill:#c5503d;}.cls-3{fill:#456d26;}.cls-4{fill:#2a4117;}.cls-5{fill:#ad4735;}.cls-6{fill:#fa5;}.cls-7{fill:#db8038;}.cls-16,.cls-8{fill:#f5a789;}.cls-9{fill:#186f7f;}.cls-10{fill:#1a7888;}.cls-11,.cls-30{fill:#fff;}.cls-12{fill:#90532e;}.cls-13{fill:#09161c;}.cls-14{fill:#211913;}.cls-15{fill:#33261e;}.cls-16{opacity:0.35;mix-blend-mode:multiply;}.cls-17{fill:#0d164e;}.cls-18{fill:#1d869a;}.cls-19{fill:url(#linear-gradient);}.cls-20{fill:url(#linear-gradient-2);}.cls-21{fill:#5260d0;}.cls-22{fill:url(#linear-gradient-3);}.cls-23{fill:#313744;}.cls-24{fill:url(#linear-gradient-4);}.cls-25{fill:url(#linear-gradient-5);}.cls-26{fill:url(#linear-gradient-6);}.cls-27{fill:url(#linear-gradient-7);}.cls-28{fill:url(#linear-gradient-8);}.cls-29{fill:#33501d;}.cls-30{opacity:0.8;}.cls-31{fill:#231f20;}</style><linearGradient id="linear-gradient" x1="755.34" y1="187.44" x2="780.07" y2="162.71" gradientTransform="matrix(-1, 0, 0, 1, 1013.3, 0)" gradientUnits="userSpaceOnUse"><stop offset="0" stop-color="#7484f7"/><stop offset="1" stop-color="#5260d0"/></linearGradient><linearGradient id="linear-gradient-2" x1="852.11" y1="211.07" x2="852.11" y2="192.42" gradientTransform="matrix(1, 0, 0, -1, -690.92, 345.29)" xlink:href="#linear-gradient"/><linearGradient id="linear-gradient-3" x1="757.23" y1="118.34" x2="801.71" y2="168.99" xlink:href="#linear-gradient"/><linearGradient id="linear-gradient-4" x1="74.85" y1="214.67" x2="74.85" y2="345.32" gradientUnits="userSpaceOnUse"><stop offset="0" stop-color="#868686"/><stop offset="1" stop-color="#424242"/></linearGradient><linearGradient id="linear-gradient-5" x1="0.56" y1="199.07" x2="149.15" y2="199.07" gradientUnits="userSpaceOnUse"><stop offset="0" stop-color="#fff"/><stop offset="0.14" stop-color="#fbfbfb"/><stop offset="1" stop-color="#eaeaea"/></linearGradient><linearGradient id="linear-gradient-6" x1="100.9" y1="181.48" x2="114.74" y2="180.74" gradientUnits="userSpaceOnUse"><stop offset="0" stop-color="#fff"/><stop offset="1" stop-color="#eaeaea"/></linearGradient><linearGradient id="linear-gradient-7" x1="130.39" y1="183.99" x2="120.4" y2="180.7" xlink:href="#linear-gradient-6"/><linearGradient id="linear-gradient-8" x1="143.02" y1="199.18" x2="99.5" y2="184.86" xlink:href="#linear-gradient-6"/></defs><g class="cls-1"><g id="Layer_2" data-name="Layer 2"><g id="Layer_8" data-name="Layer 8"><polygon class="cls-2" points="35.05 192.46 12.22 192.46 9.96 172.37 37.32 172.37 35.05 192.46"/><path class="cls-3" d="M26,173.27S22.85,149.42,45,142c-2.37,1.32-12.65,21.08-12.78,30.44A7,7,0,0,1,26,173.27Z"/><path class="cls-3" d="M26.6,164.71s.93-24-21.79-29.34c2.48,1.1,14.55,19.82,15.55,29.13A6.91,6.91,0,0,0,26.6,164.71Z"/><path class="cls-4" d="M24.43,172S23.12,148,0,144.86c2.57.85,16.33,18.37,18.2,27.54A6.9,6.9,0,0,0,24.43,172Z"/><path class="cls-4" d="M27,172.71s12.09-20.8-5.5-36.12c1.68,2.13,3.56,24.32.09,33A6.9,6.9,0,0,0,27,172.71Z"/><path class="cls-5" d="M36,175.77H11.3a2.66,2.66,0,1,1,0-5.32H36a2.66,2.66,0,0,1,0,5.32Z"/><path class="cls-6" d="M95.35,245.23c5,14,18,48.36,27.14,58.43l122.39.46S265.45,283,271.1,273.76c29.83-48.52,20.41-73.8-.8-86.5-.75-.46-1.52-.89-2.31-1.32-25.11-13.48-64.25-11.12-76.69-8.74l-.46.09C149.71,185.58,132.44,57,99,76.41c-3,1.74-5.64,5.6-7.89,11.09C78.71,117.76,78.18,197.53,95.35,245.23Z"/><path class="cls-7" d="M91.12,87.5a126.13,126.13,0,0,0,2.61,22.56c12.24,61.56,12.75,83.43,31.52,101.12,10.49,9.88,84.16,29.45,120.09,6.9,20.66-13,22.46-22.93,22.65-32.14-25.11-13.48-64.25-11.12-76.69-8.74l-.46.09C149.71,185.58,132.44,57,99,76.41,96,78.15,93.37,82,91.12,87.5Z"/><path class="cls-8" d="M231.78,143.82A11,11,0,1,1,247,140.69,11,11,0,0,1,231.78,143.82Z"/><path class="cls-9" d="M160.54,72.1a10.58,10.58,0,0,0-5.21,14.11l17.61,37.56.86,1.83a16.61,16.61,0,0,0,2.21,3.31,16.32,16.32,0,0,0,6.41,4.54,18.08,18.08,0,0,0,1.89.61l1,.21.49.09,1.62.27,3.22.55,12.91,2.17,25.82,4.35,3.2-16.73-25.6-5.49-12.8-2.74-3.2-.68-1.6-.35-.2,0-.12,0,.17,0a2.14,2.14,0,0,1,.34.09,2.86,2.86,0,0,1,1.16.76,3,3,0,0,1,.42.57c.13.27-.08-.2-.16-.4l-.32-.76-16-38.27a10.56,10.56,0,0,0-14.11-5.56Z"/><path class="cls-10" d="M123.64,177.14c49-9.21,46.14,7.57,67.35.12-11.64-28.26-16.59-47.6-14.9-89.87.47-11.76-7.29-21.85-18.67-22.49l-23.81-1c-11.35-.64-22.21,10.9-23,25.72C108.57,126.33,112.6,114.68,123.64,177.14Z"/><path class="cls-11" d="M133,65.94c-.48,3.83,11.44,11.35,19.67,12s9.64-5.88,10.12-9.71-5.8-7.43-14-8.06S133.5,62.12,133,65.94Z"/><path class="cls-11" d="M212.81,288.18l-5.38,12.59a4.23,4.23,0,0,1-3.88,1.83c-2.92,0-4.07-1.31-4.46-1.89s2-10.51,2-10.51Z"/><path class="cls-12" d="M226.94,310.1H210.1a16.61,16.61,0,0,0-1.76-.56,34.66,34.66,0,0,0-3.59-.32l.05.88h-7.17c-.34-2.16.08-8.88.08-9.37a.66.66,0,0,1,.92-.57c.26.14,2.68,2,4.82,2s3.76-2.1,4.34-2.17a6.88,6.88,0,0,1,2.26.92s13.89,6.75,15.63,7.33C227.16,308.75,226.93,309.53,226.94,310.1Z"/><path class="cls-13" d="M197.63,310.1a19.32,19.32,0,0,1-.13-2.34c2.2,0,5.5,0,6.9,0,1.7,0,4.43,1.28,5.93,1.28H226.8a2.2,2.2,0,0,1,.14,1.08H210.1a16.61,16.61,0,0,0-1.76-.56,34.66,34.66,0,0,0-3.59-.32l.05.88Z"/><path class="cls-11" d="M256.63,286.89l8.23,12.59a8.42,8.42,0,0,1-5,1.84c-2.92,0-4.07-1.31-4.46-1.89s-10.45-10.52-10.45-10.52Z"/><path class="cls-12" d="M283.21,308.82H266.37a16.61,16.61,0,0,0-1.76-.56,34.66,34.66,0,0,0-3.59-.32l.05.88H253.9c-.34-2.16.08-8.88.08-9.37a.66.66,0,0,1,.92-.57c.26.14,2.68,2,4.82,2s3.76-2.1,4.34-2.17a6.88,6.88,0,0,1,2.26.92S280.21,306.4,282,307C283.43,307.47,283.2,308.25,283.21,308.82Z"/><path class="cls-13" d="M253.9,308.82a19.32,19.32,0,0,1-.13-2.34c2.2,0,5.5,0,6.9,0,1.7,0,4.43,1.28,5.93,1.28h16.47a2.2,2.2,0,0,1,.14,1.08H266.37a16.61,16.61,0,0,0-1.76-.56,34.66,34.66,0,0,0-3.59-.32l.05.88Z"/><path class="cls-14" d="M198.11,291.3c2.14-28.35,14.61-73.44,19.33-77.88-21.3-3.66-32.06-9.14-59.52-9.14S128,173.42,128,173.42s120-15.34,126.18,14.87c3.35,16.42-25.07,78.36-38,103Z"/><path class="cls-15" d="M122.51,173s98.26-4.87,103,25.34c2.61,16.43,22,67.94,35.55,92.57H245c-56.53-51.56-48.6-66.44-47.68-78.1-16.54-3.66-35.79-.27-55.05-9.41C121.92,193.7,122.51,173,122.51,173Z"/><path class="cls-8" d="M135.44,35.23s2.64,25.72,1.41,30.49c3.91,5.26,18.23,5.48,22.94,4.41,1-5,.66-23.38-.14-24.2s-13.05-8.22-13.05-8.22Z"/><path class="cls-16" d="M138.15,55.87c-1.57-2.11-1.6-8.47-2-12.57l10.47,2.32s12.9,6.49,13.7,7.31c.51.52-.16,8.85-.25,15.6C152.28,66.92,141.28,60.1,138.15,55.87Z"/><path class="cls-8" d="M136,29.2s-.38,15.76,3.49,20,18.55,13.89,26.3,11,5-36.25,3.82-40-7.4-9.4-14.66-9.95-12.4-2.2-14.33,2.11S136,29.2,136,29.2Z"/><path class="cls-17" d="M140.1,33.25c0,.9,5.68,8.35,6.5,8.89s19.8,1.63,22.24,1.72,2.3-4.34,2.3-4.34,7.61,22.72-7.06,23.45-27.44-11.2-27.44-14S140.1,33.25,140.1,33.25Z"/><path class="cls-17" d="M140.12,42.34,142.27,39s-.94-14.38.94-20.56c1.75.53,17.07,6,26.61,1.34S175.34,5,171.71,2.42,148.18-.4,146.43.4,141.6,4,141.19,3.9s-6.32,3.36-9.54,6.32.67,28.36.67,28.36Z"/><path class="cls-8" d="M138.44,37.48c2.12,2.65,2.26,6.06.31,7.62s-5.25.68-7.37-2-2.25-6.06-.3-7.62S136.32,34.83,138.44,37.48Z"/><path class="cls-11" d="M158.85,46.4c.34.9,1.86,4.41,5.34,4.45,4,0,4.72-3.88,4.92-4.33Z"/><circle class="cls-8" cx="191.36" cy="140.93" r="11.01" transform="matrix(0.99, -0.16, 0.16, 0.99, -20.5, 33.26)"/><path class="cls-18" d="M120.45,71.24a10.58,10.58,0,0,0-6.54,13.55l13.9,39.08.69,1.9a16.26,16.26,0,0,0,7.82,8.65,15.33,15.33,0,0,0,1.82.78c.31.12.62.21.94.31l.48.13,1.58.43,3.16.85,12.64,3.41,25.27,6.82L187,130.8l-24.95-7.93-12.48-4-3.12-1-1.56-.49-.19-.07-.11,0a.94.94,0,0,1,.16,0,3,3,0,0,1,.32.12,2.89,2.89,0,0,1,1.09.87,2.34,2.34,0,0,1,.36.61c.1.28-.06-.21-.12-.42l-.24-.78L134,78.13a10.57,10.57,0,0,0-13.51-6.89Z"/><path d="M186.37,130.46l.32-1-40.09-12.1c-1-3-9.65-29.79-9.87-30.52-.73-2.54-3.71-2.68-3.84-2.68l0,1.08c.09,0,2.33.12,2.84,1.9.23.79,9.57,29.6,10,30.83l.08.27Z"/><path class="cls-19" d="M177.25,175.78h67.87l19.27-47.23c1.09-2.65-.68-5.65-3.32-5.65H201.19a3.65,3.65,0,0,0-3.32,2.37Z"/><path class="cls-20" d="M140.39,169.54H182a0,0,0,0,1,0,0v3.64a2.55,2.55,0,0,1-2.55,2.55h-39a0,0,0,0,1,0,0v-6.2A0,0,0,0,1,140.39,169.54Z" transform="translate(322.38 345.29) rotate(180)"/><path class="cls-11" d="M181.42,175.78h67.87l19.27-47.23c1.09-2.65-.68-5.65-3.32-5.65H205.37a3.65,3.65,0,0,0-3.33,2.37Z"/><path class="cls-21" d="M201.59,125.05a4.16,4.16,0,0,1,3.78-2.69h59.87a4,4,0,0,1,3.47,2.08,4.91,4.91,0,0,1,.3,4.34l-19.4,47.54h-69Zm66.52,3.28a3.72,3.72,0,0,0-.23-3.3,3.07,3.07,0,0,0-2.64-1.58H205.37a3.16,3.16,0,0,0-2.88,2l-20.3,49.75H249Z"/><path class="cls-22" d="M221.65,150.34a8.27,8.27,0,0,1,7.75-5.83c3.49,0,5.68,2.61,4.89,5.83a8.28,8.28,0,0,1-7.75,5.82C223.05,156.16,220.86,153.55,221.65,150.34Z"/><rect class="cls-23" x="67.64" y="208.43" width="14.43" height="98.95"/><path class="cls-23" d="M122.31,307.38H27.4l.5-.17a140.9,140.9,0,0,1,46.95-8h0a140.91,140.91,0,0,1,47,8Z"/><polygon class="cls-24" points="132.18 216.51 17.52 216.51 6.89 198.28 142.82 198.28 132.18 216.51"/><rect class="cls-25" x="0.56" y="192.55" width="148.59" height="13.04" rx="2.86"/><path class="cls-26" d="M94.51,171.49s3.45,19.44,13.08,19.44h9.64s4.82-12.56,7.91-19.44Z"/><path class="cls-27" d="M117.67,188.61a1.37,1.37,0,0,1,0-2.74c4.19,0,6.82-1.49,7.83-4.43a5.11,5.11,0,0,0-.24-4.57,3.06,3.06,0,0,0-2.62-1.21,1.37,1.37,0,0,1,0-2.74,5.79,5.79,0,0,1,4.85,2.35,7.78,7.78,0,0,1,.6,7.06C126.71,186.38,123,188.61,117.67,188.61Z"/><path class="cls-28" d="M89.65,188c.26.06,2.62,1.62,4.67,3a12.31,12.31,0,0,0,6.83,2.08h25.31a5.61,5.61,0,0,0,3.76-1.44l4.09-3.63Z"/><path class="cls-11" d="M126.86,193.64l-.48,0a.55.55,0,0,1-.46-.63.55.55,0,0,1,.63-.45c2,.31,4.89-2.27,6.54-4H89.65a.54.54,0,0,1-.54-.54.55.55,0,0,1,.54-.55h44.66a.55.55,0,0,1,.5.32.54.54,0,0,1-.08.58C134.54,188.57,130.24,193.64,126.86,193.64Z"/><path class="cls-29" d="M399.7,270.45s-12.13-52.73-39.52-60.86c9.22,7,26,56.67,28.2,61.28S399.7,270.45,399.7,270.45Z"/><path class="cls-11" d="M385.87,249.16s4.87,3.17,9.23,6.07c.67,1.9,1.27,3.69,1.79,5.32l-9.49-6.4s-1.5,3.1-3,6.2c-.64-1.7-1.33-3.54-2.07-5.48Z"/><path class="cls-11" d="M382.42,237.66s3.74,2.43,7.59,5q1.35,2.94,2.5,5.78L384,242.64s-1.85,3.84-3.56,7.26c-.7-1.81-1.43-3.66-2.17-5.54Z"/><path class="cls-11" d="M375.43,225.2s3.25,1.58,6.91,3.39q1.76,2.68,3.33,5.49l-8.1-4.12s-1.2,3.52-2.4,6.93c-.82-2-1.65-3.9-2.49-5.8Z"/><path class="cls-11" d="M376.43,220.81l-7.16-2.48s-.32,1.67-.75,3.85c-1-2-2-3.78-2.9-5.41l.88-2.87,4.2,1.39A46.44,46.44,0,0,1,376.43,220.81Z"/><path class="cls-29" d="M391,274.62s8.07-53.5,34.76-63.7c-8.65,7.74-21.63,58.49-23.45,63.26S391,274.62,391,274.62Z"/><path class="cls-11" d="M403.12,252.34s-4.61,3.53-8.74,6.75q-.78,2.93-1.38,5.45l9-7.11s1.73,3,3.51,5.95l1.64-5.62Z"/><path class="cls-11" d="M405.69,240.61s-3.55,2.7-7.19,5.54c-.75,2-1.43,4-2.05,6l8.09-6.42s2.14,3.69,4.1,7c.56-1.85,1.15-3.75,1.75-5.68Z"/><path class="cls-11" d="M411.7,227.65s-3.11,1.82-6.63,3.91c-1,1.87-2,3.78-2.9,5.72l7.77-4.72s1.46,3.42,2.92,6.73c.66-2,1.34-4,2-6Z"/><path class="cls-11" d="M410.37,223.35l6.95-3s.45,1.64,1.05,3.78c.83-2,1.66-3.92,2.48-5.61l-1.1-2.79-4.08,1.7A46,46,0,0,0,410.37,223.35Z"/><path class="cls-4" d="M392.73,269.34s38.94-37.55,66.33-29.42c-11.57.88-52.75,33.27-57.08,36S392.73,269.34,392.73,269.34Z"/><path class="cls-11" d="M415.93,259.05s-5.81,0-11,.05c-1.6,1.22-3.08,2.39-4.41,3.48l11.45-.19s-.44,3.42-.84,6.86l4.73-3.46Z"/><path class="cls-11" d="M425.1,251.3s-4.45,0-9.07,0c-1.82,1.15-3.58,2.32-5.25,3.48l10.32-.17s-.54,4.22-1,8c1.57-1.13,3.19-2.29,4.84-3.45Z"/><path class="cls-11" d="M437.76,244.67s-3.58-.45-7.64-.92c-1.95.85-3.89,1.78-5.78,2.77l9,1s-.93,3.61-1.78,7.12c1.76-1.19,3.51-2.37,5.25-3.5Z"/><path class="cls-11" d="M439.32,240.45l7.36,1.83s-.65,1.58-1.47,3.64c1.89-1.11,3.7-2.1,5.38-2.95l.82-2.88L447.14,239A47.65,47.65,0,0,0,439.32,240.45Z"/><path class="cls-4" d="M399.53,273.07s-33.17-42.74-61.44-38.6c11.33,2.52,47.45,40.47,51.36,43.74S399.53,273.07,399.53,273.07Z"/><path class="cls-11" d="M378,259.57s5.75.82,10.92,1.63c1.41,1.43,2.71,2.8,3.87,4.07l-11.3-1.82s-.06,3.44-.15,6.91c-1.3-1.28-2.7-2.66-4.19-4.11Z"/><path class="cls-11" d="M370.07,250.58s4.42.64,9,1.33c1.64,1.4,3.21,2.81,4.7,4.2l-10.19-1.65s-.07,4.26-.18,8.08l-4.3-4.11Z"/><path class="cls-11" d="M358.49,242.22s3.61.06,7.7.17c1.81,1.13,3.59,2.33,5.32,3.58l-9.08-.34s.4,3.71.74,7.3c-1.57-1.43-3.14-2.84-4.69-4.21Z"/><path class="cls-11" d="M357.56,237.81l-7.55.76.94,3.81c-1.72-1.36-3.36-2.61-4.9-3.69l-.41-3,4.39-.51A47.66,47.66,0,0,1,357.56,237.81Z"/><path class="cls-2" d="M421.75,270.46c3.4,7.68,4.2,16.23,2.28,22.3C420.71,303.28,409.32,306,396.32,306s-24.39-2.71-27.71-13.23c-1.92-6.07-1.11-14.62,2.29-22.3Z"/><rect class="cls-2" x="367.64" y="266.88" width="57.36" height="7.15" rx="1.23" transform="translate(792.64 540.9) rotate(180)"/><circle class="cls-6" cx="41.55" cy="58.5" r="26.55" transform="translate(-29.2 46.52) rotate(-45)"/><circle class="cls-30" cx="41.55" cy="58.5" r="20" transform="translate(-29.2 46.52) rotate(-45)"/><path class="cls-21" d="M51,65.54a.52.52,0,0,1-.29-.09l-9.41-6.52A.53.53,0,0,1,41,58.5V44.77a.52.52,0,1,1,1,0V58.23l9.19,6.37a.52.52,0,0,1,.13.72A.51.51,0,0,1,51,65.54Z"/><path class="cls-21" d="M42.68,58.5a1.13,1.13,0,1,1-1.13-1.12A1.12,1.12,0,0,1,42.68,58.5Z"/><path class="cls-31" d="M172.29,29.08c-.09,1.53-1,3.23-2.65,3.45a2.48,2.48,0,0,1-2.81-2.43c0-.64,1-.64,1,0a1.49,1.49,0,0,0,1.89,1.41,2.56,2.56,0,0,0,1.57-2.43c0-.63,1-.64,1,0Z"/><path class="cls-31" d="M158.85,31.39a2.68,2.68,0,0,1-5.29.72.5.5,0,0,1,1-.27,1.69,1.69,0,0,0,3.34-.45.5.5,0,0,1,1,0Z"/><path class="cls-31" d="M164.7,32.22q.23,4.05.44,8.1a.51.51,0,0,1-.49.5h-1a.5.5,0,0,1,0-1l1,0-.5.5q-.22-4.05-.44-8.1c0-.64.95-.64,1,0Z"/></g></g></g></svg>