<svg xmlns="http://www.w3.org/2000/svg" viewBox="0 0 13.83 10.2"><defs><style>.cls-1{opacity:0.5;}.cls-2{fill:#363638;}</style></defs><g id="Layer_2" data-name="Layer 2"><g id="Layer_1-2" data-name="Layer 1"><g class="cls-1"><path class="cls-2" d="M13.7,1.64a4.24,4.24,0,0,0-.83-.81C10.78-.69,7.85.27,6.92.64,6,.27,3.05-.69,1,.83a4,4,0,0,0-.84.81A.68.68,0,0,0,0,2V9.54a.67.67,0,0,0,.67.66h0A.64.64,0,0,0,1.16,10,3.77,3.77,0,0,1,4.08,8.82,3.63,3.63,0,0,1,6.43,10a.91.91,0,0,0,.16.11l.07,0h0a.66.66,0,0,0,.44,0h0l0,0A.88.88,0,0,0,7.35,10a3.62,3.62,0,0,1,2.4-1.15A3.83,3.83,0,0,1,12.67,10a.67.67,0,0,0,.94,0,.64.64,0,0,0,.22-.48V2A.68.68,0,0,0,13.7,1.64Zm-1.21.63V8.18A4.88,4.88,0,0,0,10,7.5H9.65a4.81,4.81,0,0,0-2.06.66V1.8c.79-.29,3-1,4.48.09A2.53,2.53,0,0,1,12.49,2.27ZM6.25,1.8V8.16a5,5,0,0,0-2-.66h0a4.91,4.91,0,0,0-2.85.68V2.27a3,3,0,0,1,.42-.38C3.18.85,5.3,1.45,6.25,1.8Z"/></g></g></g></svg>