<svg xmlns="http://www.w3.org/2000/svg" viewBox="0 0 47.83 9.55"><defs><style>.cls-1{fill:#252525;}.cls-2{fill:#c6c6c6;}.cls-3{opacity:0;}.cls-4{fill:#fff;}.cls-5{fill:#f59c1c;}.cls-6{fill:#fd5f01;}.cls-7{fill:#e9001b;}.cls-8{fill:#171e6d;}.cls-9{fill:#0270cf;}.cls-10{fill:#0073a5;}</style></defs><g id="Layer_2" data-name="Layer 2"><g id="Layer_1-2" data-name="Layer 1"><rect class="cls-1" x="16.75" width="14.33" height="9.55" rx="1.2"/><path class="cls-2" d="M13.13.15a1,1,0,0,1,1,1.05V8.35a1,1,0,0,1-1,1.05H1.2a1,1,0,0,1-1-1.05V1.2A1,1,0,0,1,1.2.15H13.13m0-.15H1.2A1.2,1.2,0,0,0,0,1.2V8.35a1.2,1.2,0,0,0,1.2,1.2H13.13a1.2,1.2,0,0,0,1.2-1.2V1.2A1.2,1.2,0,0,0,13.13,0Z"/><g class="cls-3"><rect class="cls-4" x="18.28" y="1.14" width="10.99" height="7.27"/></g><path class="cls-5" d="M28.36,6.64v-.1h0v0h-.1v0h0v.1Zm.19,0V6.52h0l0,.09,0-.09h0v.12h0V6.55l0,.08h0l0-.08v.09Z"/><rect class="cls-6" x="22.32" y="2.41" width="2.9" height="4.74"/><path class="cls-7" d="M22.62,4.78a3,3,0,0,1,1.15-2.37,3,3,0,1,0,0,4.73A3,3,0,0,1,22.62,4.78Z"/><path class="cls-5" d="M28.65,4.78a3,3,0,0,1-4.88,2.36,3,3,0,0,0,0-4.73,3,3,0,0,1,4.88,2.36Z"/><polygon class="cls-8" points="6.32 6.76 5.28 6.76 5.93 2.79 6.97 2.79 6.32 6.76"/><path class="cls-8" d="M4.41,2.79l-1,2.73-.12-.59h0L3,3.15a.44.44,0,0,0-.49-.36H.84l0,.07a3.75,3.75,0,0,1,1.08.45l.9,3.45H3.88l1.65-4Z"/><path class="cls-8" d="M12.56,6.76h.95l-.83-4h-.84a.46.46,0,0,0-.47.29L9.82,6.76H10.9l.22-.59h1.31Zm-1.14-1.4L12,3.87l.31,1.49Z"/><path class="cls-8" d="M9.9,3.74l.15-.85a3,3,0,0,0-.93-.17c-.51,0-1.73.22-1.73,1.31s1.43,1,1.43,1.58-1.29.45-1.71.11L7,6.61a2.94,2.94,0,0,0,1.17.22c.7,0,1.77-.36,1.77-1.36S8.45,4.34,8.45,3.89,9.46,3.5,9.9,3.74Z"/><path class="cls-8" d="M3.31,4.93,3,3.15a.44.44,0,0,0-.49-.36H.84l0,.07a4,4,0,0,1,1.54.77A3.16,3.16,0,0,1,3.31,4.93Z"/><rect class="cls-9" x="33.5" width="14.33" height="9.55" rx="1.2"/><polygon class="cls-4" points="46.45 4.92 46.45 4.66 46.33 4.92 45.23 4.92 45.09 4.64 45.09 4.92 43.04 4.92 42.79 4.35 42.38 4.35 42.13 4.92 41.06 4.92 41.06 3.19 41.84 1.43 43.34 1.43 43.55 1.93 43.55 1.44 45.37 1.44 45.77 2.27 46.17 1.43 47.83 1.43 47.83 4.92 46.45 4.92"/><polygon class="cls-4" points="47.16 5.68 46.69 6.19 46.23 5.68 43.06 5.68 43.06 9.18 46.19 9.18 46.66 8.64 47.09 9.18 47.83 9.18 47.83 5.68 47.16 5.68"/><path class="cls-10" d="M47.83,8.68V6.21h-.58l-.7.76-.68-.77h-2.4V8.68H45.8l.73-.82.71.82Zm-2.35-.52H44.07V7.67h1.35V7.2H44.07V6.73h1.48l.6.67Zm2.35.19-.9-.94.9-.92Z"/><path class="cls-10" d="M46.47,1.93l-.75,1.66L45,1.93H44V4.31L43,1.93h-.81L41.07,4.41h.64L42,3.85h1.21l.24.56h1.23V2.57l.82,1.84H46l.84-1.81V4.41h.61V1.93ZM42.18,3.32l.36-.87.38.87Z"/></g></g></svg>