<svg xmlns="http://www.w3.org/2000/svg" viewBox="0 0 10.26 9.37"><defs><style>.cls-1{fill:#aeaeae;}</style></defs><g id="Layer_2" data-name="Layer 2"><g id="Layer_1-2" data-name="Layer 1"><path class="cls-1" d="M8.94.88H8.2V.43a.43.43,0,1,0-.86,0V.88H5.56V.43a.43.43,0,1,0-.86,0V.88H2.92V.43a.44.44,0,0,0-.87,0V.88H1.31A1.31,1.31,0,0,0,0,2.19V8.06A1.31,1.31,0,0,0,1.31,9.37H8.94a1.31,1.31,0,0,0,1.32-1.31V2.19A1.32,1.32,0,0,0,8.94.88ZM.86,2.19a.45.45,0,0,1,.45-.45h.74v.45a.44.44,0,0,0,.87,0V1.74H4.7v.45a.43.43,0,1,0,.86,0V1.74H7.34v.45a.43.43,0,1,0,.86,0V1.74h.74a.45.45,0,0,1,.45.45v1H.86Zm8.53,1.9v4a.45.45,0,0,1-.45.45H1.31a.45.45,0,0,1-.45-.45v-4Z"/></g></g></svg>