<svg xmlns="http://www.w3.org/2000/svg" viewBox="0 0 10.23 11.04"><defs><style>.cls-1{fill:#fff;}</style></defs><g id="Layer_2" data-name="Layer 2"><g id="Layer_1-2" data-name="Layer 1"><path class="cls-1" d="M.83,2.16l.78,8.63a.28.28,0,0,0,.27.25H8.34a.31.31,0,0,0,.28-.25L9.4,2.16H10a.27.27,0,0,0,.27-.27A.28.28,0,0,0,10,1.61H7V1.08A1.08,1.08,0,0,0,5.92,0H4.31A1.08,1.08,0,0,0,3.23,1.08v.53h-3A.28.28,0,0,0,0,1.89a.27.27,0,0,0,.27.27ZM3.77,1.08A.54.54,0,0,1,4.31.54H5.92a.54.54,0,0,1,.54.54v.53H3.77ZM8.85,2.16,8.1,10.49h-6L1.38,2.16Z"/><path class="cls-1" d="M2.82,3.52l.41,5.65a.27.27,0,0,0,.27.25h0a.26.26,0,0,0,.21-.09.27.27,0,0,0,.06-.17v0l-.4-5.64a.27.27,0,0,0-.27-.25h0A.28.28,0,0,0,2.82,3.52Z"/><path class="cls-1" d="M5.12,3.23a.28.28,0,0,0-.28.27V9.15a.28.28,0,0,0,.28.27.27.27,0,0,0,.27-.27V3.5A.27.27,0,0,0,5.12,3.23Z"/><path class="cls-1" d="M6.46,9.13a.27.27,0,0,0,.25.29A.28.28,0,0,0,7,9.17l.41-5.65a.28.28,0,0,0-.26-.29h0a.27.27,0,0,0-.27.25Z"/></g></g></svg>