<svg xmlns="http://www.w3.org/2000/svg" viewBox="0 0 18.49 18.49"><defs><style>.cls-1{fill:#ffab4b;}</style></defs><g id="Layer_2" data-name="Layer 2"><g id="Layer_1-2" data-name="Layer 1"><path class="cls-1" d="M12.65,5.46a.39.39,0,0,0-.27.11L4.79,13.16a.39.39,0,0,0,0,.53.36.36,0,0,0,.54,0l7.58-7.58a.38.38,0,0,0,0-.54h0A.36.36,0,0,0,12.65,5.46Z"/><path class="cls-1" d="M18.38,3.23,15.26.11A.4.4,0,0,0,15,0h0a.39.39,0,0,0-.27.11L9.24,5.59,5.59,9.24,1.67,13.17a.42.42,0,0,0-.09.14L0,18a.37.37,0,0,0,.09.39.39.39,0,0,0,.39.09l4.68-1.56a.46.46,0,0,0,.15-.09L9.24,12.9l.54-.53h0l2.59-2.59.53-.54,5.48-5.47A.4.4,0,0,0,18.38,3.23ZM1,17.51,2.1,14.13l2.26,2.25ZM15.11,6,5.06,16,2.47,13.43l.13-.13,10.05-10,2.59,2.59Zm.66-.65L13.18,2.72,15,.91,17.58,3.5Z"/></g></g></svg>