<svg xmlns="http://www.w3.org/2000/svg" viewBox="0 0 18.66 19.04"><defs><style>.cls-1{fill:#4285f4;}.cls-2{fill:#34a853;}.cls-3{fill:#fbbc05;}.cls-4{fill:#eb4335;}</style></defs><g id="Layer_2" data-name="Layer 2"><g id="Layer_1-2" data-name="Layer 1"><path class="cls-1" d="M18.66,9.73a8,8,0,0,0-.2-1.94H9.52v3.53h5.25a4.67,4.67,0,0,1-1.95,3.09l0,.12,2.83,2.18.19,0a9.3,9.3,0,0,0,2.84-7"/><path class="cls-2" d="M9.52,19a9.05,9.05,0,0,0,6.3-2.31l-3-2.32a5.62,5.62,0,0,1-3.3.95,5.74,5.74,0,0,1-5.42-4H4L1.05,13.69l0,.1A9.51,9.51,0,0,0,9.52,19"/><path class="cls-3" d="M4.1,11.4a5.84,5.84,0,0,1-.31-1.88,6.12,6.12,0,0,1,.3-1.88V7.51l-3-2.31L1,5.25a9.45,9.45,0,0,0,0,8.54L4.1,11.4"/><path class="cls-4" d="M9.52,3.68A5.25,5.25,0,0,1,13.2,5.1l2.69-2.62A9.13,9.13,0,0,0,9.52,0,9.51,9.51,0,0,0,1,5.25L4.09,7.64a5.76,5.76,0,0,1,5.43-4"/></g></g></svg>