<svg xmlns="http://www.w3.org/2000/svg" viewBox="0 0 551.38 388.21"><defs><style>.cls-1{isolation:isolate;}.cls-2{fill:#46c7ce;opacity:0.25;}.cls-3{mix-blend-mode:multiply;}.cls-4{fill:#eaeaea;}.cls-5{fill:#da7c5d;}.cls-6{fill:#134286;}.cls-21,.cls-25,.cls-27,.cls-7,.cls-9{fill:none;stroke-linecap:round;stroke-linejoin:round;}.cls-25,.cls-27,.cls-7,.cls-9{stroke:#000;}.cls-7{stroke-width:0.46px;}.cls-8{fill:#bf6179;}.cls-9{stroke-width:0.44px;}.cls-10,.cls-26{fill:#fff;}.cls-11{fill:#c97a32;}.cls-12{fill:#fa5;}.cls-13{fill:#b8563a;}.cls-14{fill:#d65642;}.cls-15{fill:#e89987;}.cls-16{fill:#dcdcdc;}.cls-17{fill:#142a35;}.cls-18{fill:#f9b08b;}.cls-19{fill:#9c7c52;}.cls-20{fill:#363638;}.cls-21{stroke:#e0e0e0;stroke-width:0.75px;}.cls-22{fill:#42210b;}.cls-23{fill:#754c24;}.cls-24{fill:#ec8970;}.cls-25{stroke-width:0.45px;}.cls-26{opacity:0.22;}.cls-27{stroke-width:1.01px;}.cls-28{fill:#ffd371;}</style></defs><g class="cls-1"><g id="Layer_2" data-name="Layer 2"><g id="Layer_8" data-name="Layer 8"><path class="cls-2" d="M285.28,388.21c-156,0-224-46.36-224-46.36s-102-48.64-42.76-175.77C65.59,64.91,234.29-17.84,317.09,18.13S392.44,99.57,483.38,165.4,553.28,283.49,537,310C537,310,486.28,388.21,285.28,388.21Z"/><g class="cls-3"><ellipse class="cls-4" cx="243.24" cy="374.36" rx="185.53" ry="10.47"/></g><path d="M113.16,361.1l-9.08,5a2.62,2.62,0,0,0-1.25,2.9c.24.91,1,1.6,3,1.64,4.5.09,29.19-3.22,29.19-3.22V370l9.29,0s.58-13.18-2.23-14.9Z"/><path class="cls-5" d="M130.15,352.94l-17,8.16s6.39,4.49,13.32,1.5,15.63-7.51,15.63-7.51l-1.27-3.42Z"/><polygon class="cls-5" points="140.84 351.67 142.11 313.82 129.08 314.62 129.08 356.87 140.84 351.67"/><path d="M226.15,361.1l9.09,5a2.63,2.63,0,0,1,1.25,2.9c-.24.91-1,1.6-3,1.64-4.49.09-29.18-3.22-29.18-3.22v2.67l-9.16-.12s-.71-13.16,2.1-14.88Z"/><path class="cls-5" d="M209.16,352.94l17,8.16s-6.38,4.49-13.32,1.5-15.62-7.51-15.62-7.51l1.26-3.42Z"/><polygon class="cls-5" points="198.47 351.67 188.94 313.82 201.97 314.62 211.28 357.73 198.47 351.67"/><path class="cls-6" d="M137.14,131.26s-17.94,29.24-17.5,55.05,6.78,153.89,6.78,153.89h21.5l4.32-161.87,2.59-.16,33.55,162.1,20.19-1.94L187.3,187.8a117.68,117.68,0,0,0-7.58-27.12c-3.1-7.43-6.82-20-12.13-26.51Z"/><line class="cls-7" x1="152.36" y1="178.43" x2="164.37" y2="177.7"/><path class="cls-5" d="M107,101.67,91.09,125.48c-5.57,8.72,7.75,17.7,13.77,9.34L132,98.63Z"/><path class="cls-8" d="M130.2,73.94c-10.06-3.31-25.39,22.63-31.44,32l24.28,16C127.54,114.52,157.54,84.67,130.2,73.94Z"/><path class="cls-8" d="M170.21,73.65s17.4,1.13,18.1,26.73l-11.94,2.75Z"/><path class="cls-8" d="M127.67,73.54c19.45-3.57,30.21-3.57,44.81.57,16.53,4.69,2.54,49.31-1.34,66.24H132.41L119.38,90C121.16,86,121.59,73.91,127.67,73.54Z"/><line class="cls-9" x1="126.92" y1="119.14" x2="122.29" y2="99.57"/><line class="cls-9" x1="176.84" y1="112.44" x2="179.62" y2="92.87"/><path class="cls-10" d="M156.31,79.1l-12.1-7.47.64-4.15h-2a3.13,3.13,0,0,0-2.2.91L137,72l8.34,12.49a2.63,2.63,0,0,0,3.88.56Z"/><path class="cls-10" d="M159.94,67.48h1.5A3.11,3.11,0,0,1,164,68.87l2.51,3.74-1.09,10.83a1.41,1.41,0,0,1-2.27,1l-6.87-5.31,3.87-6.47Z"/><path class="cls-10" d="M157.51,84.26a1.2,1.2,0,1,1-1.2-1.2A1.2,1.2,0,0,1,157.51,84.26Z"/><path class="cls-10" d="M157.77,89a1.2,1.2,0,1,1-1.19-1.2A1.19,1.19,0,0,1,157.77,89Z"/><path class="cls-5" d="M145.74,111.92s6.76-12,24.47-4.89l-6.87,14.6-15.49-.53Z"/><polygon class="cls-5" points="145.74 111.92 98.16 120.08 100.94 137.83 147.85 121.1 145.74 111.92"/><line class="cls-9" x1="115.3" y1="117.14" x2="103.67" y2="119.14"/><path class="cls-10" d="M149.12,150l-3.23-3.58,19.6-46s35.16-5.92,49.54-1Z"/><path class="cls-11" d="M215,99.33l-7.65,1L184.63,145s6.6.17,9.55-5.56Z"/><polygon class="cls-12" points="207.38 100.38 168.23 103.85 149.12 149.97 184.63 145.02 207.38 100.38"/><polygon class="cls-10" points="215.03 99.33 210.42 78.13 205.91 78.13 197.15 98.24 215.03 99.33"/><path class="cls-5" d="M198.51,131.13s5.21,1.27,9.62-5.46.14-10.3.14-10.3l-11.05-7.77a1.18,1.18,0,0,0-1.5.11h0a1.17,1.17,0,0,0,0,1.69l6.55,6.3-9.91-6.52a1.58,1.58,0,0,0-2.23.51h0a1.58,1.58,0,0,0,.38,2.07l9.19,7.19-8.26-4.27a1.32,1.32,0,0,0-1.8.58h0a1.34,1.34,0,0,0,.41,1.66l8.4,6.12-7.17-3.42a1.41,1.41,0,0,0-1.86.62h0a1.42,1.42,0,0,0,.42,1.81l9.66,7.07Z"/><path class="cls-13" d="M164.75,43.62a15.22,15.22,0,0,1,1.55-5.56c1.22-2.42,3.11-4.74,6-3.42,4.92,2.25.19,10.27-4.81,11-1.47.21-2.84-.79-2.73-2Z"/><circle class="cls-10" cx="171.44" cy="44.29" r="1.35" transform="translate(-5.6 40.84) rotate(-13.37)"/><circle cx="134.71" cy="47.5" r="12.41" transform="translate(5.87 109.16) rotate(-45)"/><path d="M137.76,15.33s-3.67-2-7.52,3.53S127,35.91,134.83,38Z"/><path d="M137.76,15.33s2.09-10.78,18.29-8.56S183,15.91,171.71,31.25Z"/><path d="M171.43,28.32c.15,10.45-7.64,19-18.89,19.17s-20.49-8.18-20.64-18.63,8.85-19,20.1-19.2S171.29,17.88,171.43,28.32Z"/><polygon class="cls-5" points="148.5 43.74 144.21 71.63 156.31 79.1 160.18 72.63 158.97 46.82 148.5 43.74"/><polygon class="cls-13" points="159.72 62.9 149.22 52.94 159.03 48.77 159.72 62.9"/><path class="cls-5" d="M148.85,14a22.83,22.83,0,0,1,10.61-.57c4.75.94,10.87,3.83,11.75,12.49,1.48,14.43-.12,25.26-7.21,28.63-5.44,2.59-9.44,1.67-15.79-1.91-2.37-1.33-4.69-6.27-5.37-9L140,35.9S132.43,18.71,148.85,14Z"/><path d="M164.3,27s-.48,1.2,1.39,1.41a16.06,16.06,0,0,1,3.11.52,1.18,1.18,0,0,0,1.24-.32h0a.65.65,0,0,0,0-.86,4.75,4.75,0,0,0-3.12-1.56C164.71,26,164.3,27,164.3,27Z"/><path d="M158.7,27s.63,1.18-2,1.44a40.82,40.82,0,0,0-5.47,1.05,2,2,0,0,1-1.71-.29h0a.53.53,0,0,1,0-.87,12.63,12.63,0,0,1,5.5-2.09C158.17,25.93,158.7,27,158.7,27Z"/><path class="cls-14" d="M164.82,47.59a3,3,0,0,1-3.1,2.07,5.75,5.75,0,0,1-4.78-2.9Z"/><path class="cls-14" d="M157.26,46.76s7-1.22,7.43.74C164.69,47.5,159.82,48.24,157.26,46.76Z"/><path class="cls-9" d="M165.19,47.31s-3.71,1.79-8.5-.85"/><path d="M142.67,40.11s7.74-16.71-2.89-22c0,0-3.4-3.38-5.13,5.67C131.88,38.24,142.67,40.11,142.67,40.11Z"/><path class="cls-5" d="M144.81,43.87a15.8,15.8,0,0,0-2.43-5.57c-1.62-2.34-3.91-4.5-6.73-2.7-4.8,3.06,1.28,10.73,6.6,10.75,1.57,0,2.84-1.24,2.56-2.48Z"/><path class="cls-9" d="M137,39.48c3.75-1.34,5.82,2.86,5.82,2.86"/><path class="cls-10" d="M142.84,45.81a1.36,1.36,0,1,1-1.35-1.35A1.35,1.35,0,0,1,142.84,45.81Z"/><path d="M141,18.78s9.38,3.88,17.38,0,12.7,3.47,12.7,3.47S168.24,10.57,155,11.48,141,18.78,141,18.78Z"/><path class="cls-15" d="M156.18,41.13c0,.91-1.83,1.69-4.13,1.75s-4.19-.64-4.22-1.54,1.83-1.69,4.14-1.75S156.16,40.23,156.18,41.13Z"/><path class="cls-15" d="M173.23,42.32c-.32,0-.66.06-1,.07-2.31.06-4.19-.64-4.22-1.54s1.83-1.69,4.14-1.75c.31,0,.61,0,.91,0Z"/><path d="M155.93,36.14c0,1.25-.51,2.27-1.21,2.29s-1.29-1-1.32-2.23.51-2.27,1.21-2.28S155.9,34.9,155.93,36.14Z"/><path d="M168.26,35.84c0,1.25-.51,2.27-1.21,2.29s-1.29-1-1.32-2.23.51-2.27,1.21-2.28S168.23,34.6,168.26,35.84Z"/><path d="M162.07,42.27a.52.52,0,0,1-.53-.5.51.51,0,0,1,.5-.52,3.53,3.53,0,0,0,3-1.5c-2.15-4.17-4.28-8.37-4.3-8.42a.5.5,0,0,1,.22-.68.51.51,0,0,1,.69.22s2.24,4.41,4.43,8.65a.52.52,0,0,1,0,.44A4.37,4.37,0,0,1,162.07,42.27Z"/><rect class="cls-16" x="321.53" y="339.44" width="16.16" height="22.13"/><path d="M322.39,355.75l6.38,4.25,7.09-2.24a2.46,2.46,0,0,1,1.69.07h0a2.47,2.47,0,0,1,1.53,2.29v9.08H291.39s.06-8,11.87-6L320,355.55A2.49,2.49,0,0,1,322.39,355.75Z"/><rect x="327.31" y="369.2" width="11.78" height="3.04"/><polygon points="327.31 369.2 321.06 372.24 291.39 372.24 291.39 369.2 327.31 369.2"/><polygon class="cls-16" points="383.25 339.44 367.09 339.44 369.91 361.57 386.07 361.57 383.25 339.44"/><path d="M370.77,355.75l6.38,4.25,7.09-2.24a2.46,2.46,0,0,1,1.69.07h0a2.47,2.47,0,0,1,1.53,2.29v9.08H339.77s.06-8,11.88-6l16.7-7.61A2.49,2.49,0,0,1,370.77,355.75Z"/><rect x="375.69" y="369.2" width="11.78" height="3.04"/><polygon points="375.69 369.2 369.44 372.24 339.77 372.24 339.77 369.2 375.69 369.2"/><path class="cls-17" d="M321,134.34s-1.59,3.12-2.59,32.72c-.2,6.08-1.18,17-1.24,26.76l.41,155h25.11l2.85-161.93,18.44,161.93,25.41-.66-15-208-23.77-2.9Z"/><line class="cls-7" x1="345.5" y1="186.85" x2="332.88" y2="181.42"/><path class="cls-18" d="M322.23,143.9l-24.17,52.54-7.69-.53C299.7,160,299.69,160.1,306.54,138c1.08-3.5,8.15-4.34,11.55-3h0C321.28,136.27,323.5,140.7,322.23,143.9Z"/><path class="cls-18" d="M298.74,191.73s2,7.14-1.38,13.62l.7,7.13a2.14,2.14,0,0,1-1.7,2.33h0a2.31,2.31,0,0,1-2.68-1.65L292.54,209l-.41,1.44a10.53,10.53,0,0,0,.44,6.93l2.63,6.32c.3.72,1.13.6.65,1.18h0a2.14,2.14,0,0,1-3.5-.35l-5.44-6.94a12.06,12.06,0,0,1-1-9.92l7-18.4Z"/><path class="cls-10" d="M304.64,137.17l2.09-33.44c3-25.63,19-32.47,19-32.47L327,114.89l-4.85-2.67-3.45,45.48-14.67,34.12-14.37-6Z"/><path class="cls-19" d="M350.89,65.12a71.34,71.34,0,0,1,19.87,4.52A53.36,53.36,0,0,1,375.94,72c4.53,2.37,3.17,7.5,2.6,12.73l-2.66,70.78-55.34-1.34a4.46,4.46,0,0,1-4.34-4.69l2.19-56.76c.21-10,1.94-19.66,8.61-22,7.48-2.64,16.61-5.59,20.59-5.83Z"/><path class="cls-10" d="M330.37,69.5s10.51-4.11,17.22-4.66c0,0,9.16.39,15.47,2.33l-23,30.22Z"/><polygon class="cls-20" points="343.2 70.06 347.83 75.89 342.33 79.89 337.95 75.25 343.2 70.06"/><polygon class="cls-20" points="343.49 77.4 346.26 89.27 340.1 97.39 337.95 91.22 341.63 77.4 343.49 77.4"/><polyline class="cls-21" points="348.04 76.21 349.31 78.13 356.75 74.97"/><polyline class="cls-21" points="337.95 75.25 336.24 76.84 332.35 73.86"/><path class="cls-10" d="M373.88,70.89s17.1,2.75,53.51,52.18l-18.76,14.66-30.07-34.81C366.76,87.51,373.88,70.89,373.88,70.89Z"/><polygon class="cls-22" points="384.83 87.51 344.21 102.28 347.61 112.13 386.99 97.38 384.83 87.51"/><polygon class="cls-10" points="347.76 107.83 346.26 103.04 384.58 89.44 385.95 94.35 347.76 107.83"/><polygon class="cls-23" points="384.24 92.1 403.95 148.7 363.35 162.68 343.14 106.71 384.24 92.1"/><polygon class="cls-22" points="384.24 92.1 384.83 87.51 404.62 143.85 403.95 148.7 384.24 92.1"/><polygon class="cls-18" points="398.27 127.5 368.4 138.34 369.89 149.53 400.42 143.82 398.27 127.5"/><path class="cls-18" d="M368.4,138.34s-19.06-6.46-19.37.7.73,24.31,20.86,10.49Z"/><path class="cls-18" d="M368.92,139.24,366.69,136a11.3,11.3,0,0,0-5.21-4.12l-3.91-1.53a2.18,2.18,0,0,0-2.58.79h0a2.17,2.17,0,0,0,.34,2.86l5.25,4.71Z"/><path class="cls-10" d="M413.33,119.72l-38.72,12.55,3.58,19.7,43.22-10.79a11.5,11.5,0,0,0,7.11-15.87h0A11.5,11.5,0,0,0,413.33,119.72Z"/><line class="cls-21" x1="398.12" y1="124.65" x2="408.63" y2="121.25"/><path class="cls-16" d="M345.27,4.25s-13.08-5.87-19.86,1.27c-5.32,5.6,3.73,15.36,8.58,14.81S345.27,4.25,345.27,4.25Z"/><path class="cls-24" d="M334.32,37.76a15.43,15.43,0,0,0-1.56-5.6c-1.23-2.43-3.13-4.77-6-3.44-5,2.26-.19,10.34,4.85,11.05,1.48.21,2.86-.8,2.75-2Z"/><path class="cls-16" d="M327.59,21.52c-.15,10.52,7.7,19.14,19,19.3s20.64-8.24,20.78-18.76S358.48,2.88,347.15,2.72A18.78,18.78,0,0,0,327.59,21.52Z"/><polygon class="cls-18" points="352.36 37.04 354.67 65.54 343.2 70.06 338.89 66.77 340.14 40.14 352.36 37.04"/><polygon class="cls-24" points="339.38 56.33 349.96 46.3 340.08 42.1 339.38 56.33"/><path class="cls-18" d="M350.33,7.07a22.73,22.73,0,0,0-10.68-.57c-4.79.93-10.95,3.85-11.84,12.56-1.48,14.53.12,26.28,7.26,29.67,5.48,2.61,9.51,1.69,15.91-1.92,2.38-1.34,4.72-7.15,5.4-9.93l2.83-7.74S366.86,11.84,350.33,7.07Z"/><path class="cls-18" d="M354.4,38a16,16,0,0,1,2.44-5.61c1.63-2.36,3.94-4.52,6.78-2.72,4.83,3.08-1.29,10.81-6.65,10.83-1.58,0-2.86-1.25-2.57-2.5Z"/><path class="cls-25" d="M362.24,33.59c-3.78-1.35-5.87,2.88-5.87,2.88"/><path class="cls-16" d="M339.65,6.5a5.61,5.61,0,0,1,6.78,3.56c2.6,6.83,10.43,9.85,17.17,7.78,0,0-1.54-9.73-11.53-12.58S339.65,6.5,339.65,6.5Z"/><path class="cls-16" d="M339.38,4.25S341.57-.9,350.76.14c11,1.24,17.45,10.54,15.72,16-1.33,4.22-10.11-1.83-10.11-1.83Z"/><path d="M343.39,27.16c0,1.38.56,2.52,1.34,2.53s1.42-1.08,1.45-2.46-.56-2.52-1.33-2.54S343.42,25.78,343.39,27.16Z"/><path d="M329.73,26.83c0,1.38.57,2.52,1.34,2.53s1.42-1.08,1.46-2.46-.57-2.52-1.34-2.53S329.76,25.45,329.73,26.83Z"/><path class="cls-10" d="M350.33,21.49c-.38-1-1.72-3-6.31-3.56a1,1,0,0,0-1.17.5h0c-.15.45.32,1,1,1.12A7.09,7.09,0,0,1,348,21.91a1.67,1.67,0,0,0,1.72.47l.13-.05A.63.63,0,0,0,350.33,21.49Z"/><path class="cls-10" d="M326.83,19.31c.24-1,1.29-2.72,5.87-2.43a1.49,1.49,0,0,1,1.26.72h0c.22.49-.18.93-.86.95a4.82,4.82,0,0,0-3.84,1.62,1.41,1.41,0,0,1-1.68.15l-.14-.07C327,20,326.75,19.64,326.83,19.31Z"/><polyline class="cls-25" points="336.05 29.47 334.33 32.79 335.63 33.85"/><path class="cls-10" d="M335.35,35.38a1.94,1.94,0,0,1,1.36-1.19,4.79,4.79,0,0,1,4.79,1.72c2.87,3.06,5.54,2.87,6.5,2.2,0,0-5.16,6.6-11.86,1A4.25,4.25,0,0,1,335.35,35.38Z"/><path class="cls-10" d="M336.15,37a2.43,2.43,0,0,0-2.77-2.86,4.85,4.85,0,0,0-2.95,1.65c-2.62,2.8-4.23,2.62-5.1,2,0,0,3.87,6,10,1A4.68,4.68,0,0,0,336.15,37Z"/><path class="cls-26" d="M328.43,21.94l-5.2,5.66s0,4,3.76,4.46l8-9S334.53,21,328.43,21.94Z"/><path class="cls-26" d="M345.27,21.94l-6.13,6.41s0,4.13,4.69,3.71l8.89-9.46S350.88,21.83,345.27,21.94Z"/><path class="cls-27" d="M338.45,24.73a15.4,15.4,0,0,0,1.28,5.75,2.94,2.94,0,0,0,2.49,1.6l7.41,0a3.3,3.3,0,0,0,2.95-2.68,14.32,14.32,0,0,0,.17-4.47,3.06,3.06,0,0,0-2.45-2.63c-2.39-.43-10-.22-10-.22A2.5,2.5,0,0,0,338.45,24.73Z"/><path d="M349.26,21.68l4.86.26a.52.52,0,0,1,.49.54l0,.89a.53.53,0,0,1-.22.41l-1.61,1.13S351.88,22,349.26,21.68Z"/><path class="cls-27" d="M335,24.63a15.73,15.73,0,0,1-1.17,5.85,3,3,0,0,1-2.49,1.6l-4.89,0a3.3,3.3,0,0,1-2.95-2.68,14.32,14.32,0,0,1-.17-4.47,3.06,3.06,0,0,1,2.45-2.63A52.67,52.67,0,0,1,333.1,22C334.53,22.06,335.07,23.4,335,24.63Z"/><path d="M326.79,21.68l-4.86.26a.52.52,0,0,0-.49.54l0,.89a.53.53,0,0,0,.22.41l1.61,1.13S324.17,22,326.79,21.68Z"/><path class="cls-27" d="M335,26.9s1.22-1.24,3.6.17"/><line class="cls-27" x1="358.97" y1="29.79" x2="352.72" y2="23.66"/><rect class="cls-12" x="422.33" y="18.9" width="63.95" height="44.82" rx="5"/><rect class="cls-10" x="473.04" y="42.33" width="7.42" height="16.56" transform="translate(953.5 101.22) rotate(-180)"/><rect class="cls-28" x="461.82" y="34.02" width="7.42" height="24.88" transform="translate(931.05 92.91) rotate(-180)"/><rect class="cls-10" x="450.59" y="27.14" width="7.42" height="31.75" transform="translate(908.61 86.03) rotate(-180)"/><rect class="cls-28" x="439.37" y="37.7" width="7.42" height="21.19" transform="translate(886.17 96.6) rotate(-180)"/><rect class="cls-10" x="428.15" y="46.45" width="7.42" height="12.44" transform="translate(863.72 105.35) rotate(-180)"/></g></g></g></svg>