<svg xmlns="http://www.w3.org/2000/svg" viewBox="0 0 112.71 44.7"><defs><style>.cls-1{fill:#f4c13c;}.cls-2{fill:#f48e05;}</style></defs><g id="Layer_2" data-name="Layer 2"><g id="Layer_1-2" data-name="Layer 1"><path class="cls-1" d="M49.09,20.93V17.88H46.31V14.44l-3.17,1v2.48H41v3.05h2.14V26c0,3.32,1.5,4.62,6,4.13V27.3c-1.82.09-2.78.07-2.78-1.26V20.93Z"/><path class="cls-1" d="M57.92,30.52A6.49,6.49,0,1,0,51.42,24,6.45,6.45,0,0,0,57.92,30.52Zm0-3.1A3.26,3.26,0,0,1,54.6,24a3.33,3.33,0,1,1,6.66,0A3.27,3.27,0,0,1,57.92,27.42Z"/><path class="cls-1" d="M71,20V17.88H67.79V30.17H71V24.3c0-2.59,2.09-3.32,3.74-3.13V17.63A3.79,3.79,0,0,0,71,20Z"/><path class="cls-1" d="M79.25,16.4a2,2,0,0,0,2-1.94,2,2,0,1,0-3.91,0A2,2,0,0,0,79.25,16.4ZM77.67,30.17h3.18V17.88H77.67Z"/><path class="cls-1" d="M91.71,17.54A4.18,4.18,0,0,0,88,19.26V17.88H84.87V30.17H88V23.53c0-2.14,1.16-3,2.71-3A2.29,2.29,0,0,1,93.19,23v7.15h3.17V22.62C96.36,19.35,94.32,17.54,91.71,17.54Z"/><path class="cls-1" d="M109.61,17.88V19.4a4.71,4.71,0,0,0-3.94-1.86,6.16,6.16,0,0,0-6.12,6.29,6.14,6.14,0,0,0,6.12,6.29,4.69,4.69,0,0,0,3.94-1.87v1.33c0,1.94-1.23,3-3.22,3a3.21,3.21,0,0,1-3.23-1.73l-2.7,1.55c1.08,2,3.2,3,5.83,3,3.25,0,6.42-1.82,6.42-5.85V17.88Zm-3.45,9.32a3.36,3.36,0,1,1,3.45-3.37A3.29,3.29,0,0,1,106.16,27.2Z"/><path class="cls-2" d="M38.72,37.59A22.35,22.35,0,1,1,38.61,7L36.28,9.2a19.14,19.14,0,1,0,.09,26.2Z"/><path class="cls-2" d="M11.85,30.17H23.36V26.9H16.89l3.37-3.37c1.62-1.62,2.83-3.41,2.83-5.5a5.37,5.37,0,0,0-5.68-5.41,6.07,6.07,0,0,0-5.69,3.64l2.86,1.67a3.12,3.12,0,0,1,2.88-2,2.11,2.11,0,0,1,2.23,2.24c0,1.16-.86,2.29-2,3.44l-5.88,6.05Z"/><path class="cls-2" d="M34.94,17.88v6.64c0,2.14-1.16,3.05-2.71,3.05A2.29,2.29,0,0,1,29.8,25V17.88H26.62v7.55c0,3.27,2.05,5.09,4.65,5.09a4.19,4.19,0,0,0,3.67-1.73v1.38h3.17V17.88Z"/></g></g></svg>