<svg xmlns="http://www.w3.org/2000/svg" viewBox="0 0 97.31 104.45"><defs><style>.cls-1{fill:#835d3b;}.cls-2{fill:#f8c502;}.cls-3{fill:#ea7fa5;}.cls-4{fill:#48babf;opacity:0.5;}.cls-5{fill:#231f20;}.cls-6{fill:#2873b1;}.cls-7{fill:#282733;}.cls-8{fill:#e8938a;}.cls-9{fill:#ffab4b;}.cls-10{fill:#323340;}.cls-11{fill:#d7802d;}.cls-12{fill:#fff;}</style></defs><g id="Layer_2" data-name="Layer 2"><g id="Layer_1-2" data-name="Layer 1"><polygon class="cls-1" points="94.93 104.45 97.31 104.45 94.85 69.97 76.29 69.97 72.98 104.45 75.04 104.45 78.91 74.92 91.71 74.92 94.93 104.45"/><rect class="cls-2" x="83.9" y="41.34" width="2.81" height="28.63" transform="translate(170.61 111.31) rotate(180)"/><path class="cls-2" d="M80,70.08H90.31c0-.37-2.31-.67-5.17-.67S80,69.71,80,70.08Z"/><path class="cls-3" d="M92.65,52.68c0-1.15-2.6-15.38-2.6-15.38h-9.4L78,52.77Z"/><path class="cls-4" d="M69.21,50.5A43.25,43.25,0,0,0,55.49,23.65c-5.29-4.58-13.05-6.75-19.93-7a44.93,44.93,0,0,0-18,3.65c-6.08,2.88-10.7,11-13.15,17.39C-2,54.53-.18,69.34,2.24,87.34a20.54,20.54,0,0,0,2.41,7,12.27,12.27,0,0,0,8.76,6.54c8.36,1.74,15.27-.92,23.78-.42a122.56,122.56,0,0,0,17.35.2c5-.42,10.35-1.73,13.38-5.83,2.33-3.17,2.79-7.37,3-11.35C71.51,72.35,69.21,50.5,69.21,50.5Z"/><path class="cls-5" d="M67,60.07c-6.78-.17-13.56-.36-20.34-.51-3.29-.07-6.57-.08-9.86,0-3.06.09-6.12.21-9.19.12a32.5,32.5,0,0,1-9.39-1.44c-.14,0-.08-.29.07-.24,5.57,1.89,11.7,1.52,17.49,1.35,6.61-.21,13.21,0,19.82.17l11.4.29c.16,0,.16.25,0,.24Z"/><path class="cls-6" d="M39.73,5.09C40,4.7,37,.69,35.79.29a6.44,6.44,0,0,0-4.85.42,6.39,6.39,0,0,0-3.11,3.73,8.25,8.25,0,0,1-.5,1.5,1.5,1.5,0,0,1-1.24.87c-.71,0-1.21-.71-1.88-1a2.07,2.07,0,0,0-1.94.31A4.28,4.28,0,0,0,21,7.72,3.89,3.89,0,0,1,19.5,9.6,3.77,3.77,0,0,1,17,9.45a2.4,2.4,0,0,0-2.38.33c-.46.51-.45,1.29-.76,1.91A2.94,2.94,0,0,1,11,13a3.5,3.5,0,0,0-1.37,0,2.14,2.14,0,0,0-1.19,1.81,6.77,6.77,0,0,0,3.15,6.29,14.85,14.85,0,0,0,7,2.12A18,18,0,0,0,24.43,23a8.77,8.77,0,0,0,4.92-2.95c1.19-1.5,1.81-3.54,3.47-4.5,1-.6,2.32-.64,3.42-1.13A7.93,7.93,0,0,0,38,13.24a5.12,5.12,0,0,0,1.73-2c.8-2.06-.43-4,0-6.12"/><path class="cls-5" d="M38.7,6.89a1,1,0,0,1,1.13.43,2.53,2.53,0,0,1,.39,1.42,2.83,2.83,0,0,1-.33,1.48,1.21,1.21,0,0,1-1.12.67,1.31,1.31,0,0,1-1-.77,3.42,3.42,0,0,1-.35-1.36,2.68,2.68,0,0,1,.19-1.52.78.78,0,0,1,1.14-.35"/><path class="cls-7" d="M24.7,54.34c2.88,7.13,8.15,5.24,10.71,5.49,4,.41,8,.81,12,1.52,1.25,2.28,1.47,5,1.66,7.57q.84,11.47,1.69,23c1.41.71,4.68,0,6.26-.15.63-6.12,2.51-29.68,2-31.26a12,12,0,0,0-1.44-2.8l-3.33-5.26a9.07,9.07,0,0,0-2.57-3,9.07,9.07,0,0,0-3.23-1.08C46.66,48,40.63,47,38.83,46.6"/><path class="cls-8" d="M37.8,4.61c.51,2.13,1,4.4.26,6.46a2.7,2.7,0,0,1-1,1.43,2.49,2.49,0,0,1-1.7.27,4.69,4.69,0,0,1-3.16-2.35A9.06,9.06,0,0,1,31.1,6.53c-.11-1.37,0-2.94,1.1-3.78a3.84,3.84,0,0,1,2.12-.68,3.34,3.34,0,0,1,2.12.36,3.18,3.18,0,0,1,1.2,2.5"/><path class="cls-8" d="M36.48,12.45A17.23,17.23,0,0,1,37,16a9.48,9.48,0,0,1,2.24.33l3.15.71a8.81,8.81,0,0,1,2.06.65,2.91,2.91,0,0,1,1.46,1.53c-.36,1.09-1.7,1.43-2.84,1.57a97.77,97.77,0,0,1-10.83.46,23.81,23.81,0,0,1-4.7-.3,11.76,11.76,0,0,1-3.79-1.51A2,2,0,0,1,24.6,18a5.57,5.57,0,0,1,1.57-.66,32.81,32.81,0,0,1,7.68-1.28,14.86,14.86,0,0,0-.12-4.61,7.15,7.15,0,0,0,2.89.84"/><path class="cls-6" d="M37,2.05a2.86,2.86,0,0,1,1,1.86,1.88,1.88,0,0,1,0,.71,1.81,1.81,0,0,1-1.19,1.14A6.28,6.28,0,0,1,35.17,6a6.88,6.88,0,0,0-2.8.73,2.92,2.92,0,0,0-1.55,2.32c-1-1.34-.85-3.21-.37-4.8A4.5,4.5,0,0,1,31.8,2a4,4,0,0,1,1.55-.69,3.69,3.69,0,0,1,3.7.82"/><path class="cls-5" d="M30,8.53a1.39,1.39,0,0,1,1.82-.48,2,2,0,0,1,.64.64A3.79,3.79,0,0,1,33.07,11a1.51,1.51,0,0,1-.28.88,1,1,0,0,1-.32.28,1.83,1.83,0,0,1-1.9-.08,2.63,2.63,0,0,1-1.08-1.63,2,2,0,0,1,.44-1.95"/><path class="cls-5" d="M38.83,8.14a12.08,12.08,0,0,0-.32-4.33A4.88,4.88,0,0,0,36.21,1a4,4,0,0,0-3.79.32,6.58,6.58,0,0,0-2.49,3.29,6.11,6.11,0,0,0-.07,4.45,1.72,1.72,0,0,1,.87-.14,10.55,10.55,0,0,1,0-3A5.66,5.66,0,0,1,32.3,2.39a3.33,3.33,0,0,1,4.22,0c1.23,1,1.84,4.06,1.84,5.73a3.47,3.47,0,0,0,.47,0"/><path class="cls-9" d="M45.53,18c4.6,3.34,9.46,7,11.37,12.36a6.63,6.63,0,0,1,.45,3c-.24,1.88-1.68,3.36-3.08,4.63a73.52,73.52,0,0,1-12.53,9.17c-2.69,1.57-5.49,3-8,4.76a18.13,18.13,0,0,0-6.19,6.86c-.49-.76-2.07-1.9-2.82-3.48-1.16-2.41-.77-6.17-.36-8.81a14.68,14.68,0,0,1-4.39,0,6.16,6.16,0,0,1-3.76-2.14,6.76,6.76,0,0,1-1-5.31A33.91,33.91,0,0,1,17,33.71c1-2.74,1.57-5.6,2.51-8.35A17.44,17.44,0,0,1,23.89,18c2.05,1.76,4.94,2,7.64,2.13,2.26.08,12.59.45,14-2.13"/><path class="cls-5" d="M42.19,43.21c-1.51,0-4.72-.22-6.28-.12a3.28,3.28,0,0,1,.24-1.46.3.3,0,0,1,.09-.13.28.28,0,0,1,.18,0c1.91.26,3.54-.07,5.77.19-.28.53.16,1,0,1.54"/><path class="cls-10" d="M59.18,43.63q6.63,13,13,26.13a3.77,3.77,0,0,1,.55,2.29,3.25,3.25,0,0,1-1.3,1.76A12.18,12.18,0,0,1,69,75.35a.73.73,0,0,1-.5.09.68.68,0,0,1-.33-.3L58.94,62.48a55.5,55.5,0,0,1-6.71-10.85,3,3,0,0,0-.75-1.19,2.81,2.81,0,0,0-.9-.4l-9.31-2.83a18.16,18.16,0,0,1,4.22-7.28A3.89,3.89,0,0,1,46.67,39a3.92,3.92,0,0,1,2.57.1,42.8,42.8,0,0,1,10.07,4.22"/><path class="cls-5" d="M27.7,31.16a35,35,0,0,0-1.32,5.24c0,.15-.26.09-.23-.07a33.78,33.78,0,0,1,1.32-5.24.12.12,0,0,1,.23.07Z"/><path class="cls-8" d="M38.82,36.08A4.07,4.07,0,0,1,40.59,36a5.13,5.13,0,0,1,1.33.41,4.39,4.39,0,0,1,1.64,1.18,2.4,2.4,0,0,1,.53,1.9,1.66,1.66,0,0,1-1.36,1.34,3.26,3.26,0,0,1-.93-.08,8.37,8.37,0,0,0-2.91,0c.15-1.59-.55-3.16-.51-4.75"/><path class="cls-9" d="M73.73,71c.5,1.18,1.16,2.65,1.66,3.84a.4.4,0,0,0,.16.22.39.39,0,0,0,.26,0,14.94,14.94,0,0,1,3.58-.34,4.6,4.6,0,0,1,3.21,1.43c-1.61,1.13-3.24,2.24-4.87,3.34-.64.42-1.28.85-2,1.21-.85.47-1.76.84-2.58,1.37A9.16,9.16,0,0,1,71,83.33a.49.49,0,0,1-.29,0,.55.55,0,0,1-.28-.32q-1.83-3.69-3.54-7.44A38.7,38.7,0,0,1,73.73,71"/><path class="cls-11" d="M83,76.32c.32,2.11-9.87,7.26-11.34,7.47s-1-.47-1.07-.59.14-.46.3-.68a13.22,13.22,0,0,1,2.53-2.34c.44-.36,5.9-4.15,8.76-4.26a1.5,1.5,0,0,1,.52,0,.38.38,0,0,1,.29.38"/><path class="cls-6" d="M15.6,101.39a39.22,39.22,0,0,0-.3-7l22.54-.27a10.37,10.37,0,0,1,2.83.21A4.62,4.62,0,0,1,43.87,97a3.56,3.56,0,0,1-1,4.1,3.34,3.34,0,0,1-1.71.61c-7.36.42-15.9.26-25.55,0"/><path class="cls-12" d="M15.87,100.32a22.49,22.49,0,0,0-.26-4.78l18.7-.19a10.84,10.84,0,0,1,2.35.14,3.76,3.76,0,0,1,2.66,1.83,2.15,2.15,0,0,1-.8,2.79,3.17,3.17,0,0,1-1.42.42c-6.1.28-13.19.17-21.2,0"/><path class="cls-7" d="M18.08,94.32a43.3,43.3,0,0,0-.23-6.24l16.22-.25a6.35,6.35,0,0,1,2,.19,3.61,3.61,0,0,1,2.31,2.39,3.69,3.69,0,0,1-.69,3.64,2.14,2.14,0,0,1-1.23.55,181.65,181.65,0,0,1-18.39,0"/><path class="cls-12" d="M18.31,93.62a28.71,28.71,0,0,0-.19-4.73l14.05-.19a6.59,6.59,0,0,1,1.77.14,3,3,0,0,1,2,1.81,2.54,2.54,0,0,1-.59,2.76,2,2,0,0,1-1.07.42c-4.59.28-9.91.17-15.93,0"/><path class="cls-11" d="M62.87,102.34c.26.11.22.53,0,.69a1.15,1.15,0,0,1-.82.12A43.41,43.41,0,0,1,49.73,99.9a.85.85,0,0,1-.34-.21.61.61,0,0,1,.28-.88,1.67,1.67,0,0,1,1,0,58.41,58.41,0,0,1,8.76,2.44l3.3,1.1"/><path class="cls-9" d="M57.87,91.41c-.23,1.3-.83,3.17-1,4.29a6.65,6.65,0,0,1,3.64.87,4.13,4.13,0,0,1,1.92,1.84,5.4,5.4,0,0,1,.48,1.4,7.7,7.7,0,0,1,.07,2.91,32.19,32.19,0,0,1-4.21-.64,65.64,65.64,0,0,1-8.53-2.43c-.26-.1-.58-.18-.71-.44a1.05,1.05,0,0,1,0-.68c.42-2.35.07-4.9.67-7.22,1.14-.12,7.29.18,7.67.1"/><path class="cls-9" d="M15.11,39.81c.46-1.1,2.18-2.19,4.63-2.67,3.17-.62,17.3-1.91,18.93-1.94a53.22,53.22,0,0,1,.65,5.48c0,.19-13.06,7.45-21.34,5.53-2.05-.47-3.72-3.5-2.87-6.4"/><path class="cls-5" d="M15,39.75A4.09,4.09,0,0,1,17,38,10.39,10.39,0,0,1,20,37c1.35-.24,2.71-.39,4.06-.54,3.69-.43,7.38-.78,11.08-1.1,1.16-.1,2.33-.23,3.5-.25a.13.13,0,0,1,.12.09c.25,1.38.41,2.79.55,4.19a5,5,0,0,1,.11,1.27.31.31,0,0,1-.15.22,7.65,7.65,0,0,1-1.28.72c-.86.46-1.73.88-2.61,1.28a49.64,49.64,0,0,1-7.48,2.75,23.55,23.55,0,0,1-8.38,1,7.39,7.39,0,0,1-2-.4,4,4,0,0,1-1.63-1.32,5.92,5.92,0,0,1-.9-5.09.13.13,0,0,1,.24.07,5.67,5.67,0,0,0,.52,4.36A4.37,4.37,0,0,0,17,45.66a4,4,0,0,0,1.61.56,19,19,0,0,0,7-.32,47.13,47.13,0,0,0,11.89-4.35c.46-.24.92-.48,1.37-.75a1.14,1.14,0,0,0,.3-.18s0,.06,0,0a1.26,1.26,0,0,0,0-.39c-.08-1.06-.21-2.13-.35-3.18,0-.32-.08-.64-.13-1,0-.13,0-.27-.07-.4s-.1-.47,0-.38c-.07,0-.4,0-.48,0-3.54.21-7.07.59-10.58.95-1.91.2-3.82.4-5.72.65s-4.06.54-5.68,1.78a3.11,3.11,0,0,0-1,1.15c-.06.15-.27,0-.21-.12Z"/><path class="cls-5" d="M65.41,30c-1.84,4.51-3.28,9-5.31,13.26-2.71-.07-17.82-.14-19.42-.07q2.22-7,4.43-13.91c1.81.36,20.3.72,20.3.72"/><path class="cls-5" d="M38.17,7.48a.84.84,0,0,1-.65.85.61.61,0,0,1-.69-.6c0-.15.25-.16.24,0a.37.37,0,0,0,.47.35.63.63,0,0,0,.38-.6c0-.15.26-.15.25,0Z"/><path class="cls-5" d="M34.87,8.05a.68.68,0,0,1-.57.69.7.7,0,0,1-.73-.51.13.13,0,0,1,.24-.07.42.42,0,0,0,.82-.11.12.12,0,0,1,.24,0Z"/><path class="cls-5" d="M36.31,8.25c0,.66.07,1.33.11,2a.12.12,0,0,1-.13.12h-.24a.13.13,0,0,1,0-.25h.24l-.12.12c0-.66-.07-1.33-.11-2,0-.15.24-.15.25,0Z"/><path class="cls-5" d="M36.06,11.83a1.24,1.24,0,0,1-1.21-.7c-.06-.14.15-.26.21-.12a1,1,0,0,0,1,.57c.15,0,.15.23,0,.25Z"/><path class="cls-5" d="M46.5,18.79c-1,1.46-3,1.9-4.69,2.2a38,38,0,0,1-6.11.52,44.29,44.29,0,0,1-6.51-.41,17,17,0,0,1-4.28-1A7.16,7.16,0,0,1,23.1,19c-.12-.1,0-.27.17-.17a7.11,7.11,0,0,0,1.45,1,13.43,13.43,0,0,0,3.54.95,42.1,42.1,0,0,0,12.43.2,18.55,18.55,0,0,0,2.65-.53,5.1,5.1,0,0,0,2.95-1.72c.08-.13.3,0,.21.12Z"/></g></g></svg>