<svg xmlns="http://www.w3.org/2000/svg" viewBox="0 0 112.34 100.49"><defs><style>.cls-1{isolation:isolate;}.cls-2{fill:#48babf;opacity:0.5;}.cls-3{fill:#e9e9e9;mix-blend-mode:multiply;}.cls-4{fill:#ff9b79;}.cls-5{fill:#cbd2e6;}.cls-6{fill:#363638;}.cls-7{fill:#575759;}.cls-8{fill:#ffaf2a;}.cls-9{fill:#dc7f21;}.cls-10{fill:#e87677;}.cls-11{fill:#c16078;}.cls-12{fill:#fff;}.cls-13{fill:#f46c62;}.cls-14{opacity:0.8;}.cls-15{fill:#ffab4b;}.cls-16{fill:#fd615c;}.cls-17{fill:#00b46f;}.cls-18{fill:#007d55;}.cls-19{fill:#0076f9;}.cls-20{fill:#004ec9;}.cls-21{fill:#cd0f1c;}</style></defs><g class="cls-1"><g id="Layer_2" data-name="Layer 2"><g id="Layer_1-2" data-name="Layer 1"><path class="cls-2" d="M54.21,96.47C86,96.47,99.86,87,99.86,87s20.77-9.91,8.71-35.81C99,30.6,64.6,13.74,47.73,21.07s-15.35,16.59-33.88,30S-.39,75.13,2.93,80.53C2.93,80.53,13.26,96.47,54.21,96.47Z"/><ellipse class="cls-3" cx="56.17" cy="97.9" rx="42.61" ry="2.59"/><path class="cls-4" d="M58.83,25.72,54.52,41.46l1.54-1.77a7.8,7.8,0,0,1-2,.7,14.22,14.22,0,0,1-2.35.3q-1.24.06-2.58,0c-.88,0-1.79-.1-2.7-.18h0a2.46,2.46,0,0,0-.6,4.88c1,.15,1.91.29,2.9.41s2,.2,3.05.22a20.11,20.11,0,0,0,3.25-.18,13.34,13.34,0,0,0,3.42-.94A2.67,2.67,0,0,0,60,43.29l.06-.16,5.16-15.48a3.32,3.32,0,0,0-6.3-2.1A1.09,1.09,0,0,0,58.83,25.72Z"/><path class="cls-5" d="M57.17,82.78a.43.43,0,0,0,.19,0l22.55-8.13a.56.56,0,0,0,.34-.72.58.58,0,0,0-.73-.35L57,81.67a.58.58,0,0,0-.35.73A.59.59,0,0,0,57.17,82.78Z"/><path class="cls-5" d="M80.65,82.78a.57.57,0,0,0,.2-1.11L58,73.41a.57.57,0,0,0-.39,1.07l22.82,8.26A.43.43,0,0,0,80.65,82.78Z"/><path class="cls-5" d="M55.16,97.3a1,1,0,0,0,1-.84L60.2,66.05h17l4,30.41a1,1,0,1,0,1.93-.26L79.06,65a1,1,0,0,0-1-.85H59.35a1,1,0,0,0-1,.85L54.2,96.2A1,1,0,0,0,55,97.3Z"/><path class="cls-5" d="M64.78,65.08H77c3.86,0,8-2.11,8.58-5.92a71.9,71.9,0,0,0,.77-14.57,17.74,17.74,0,0,0-6.72-13.06h0s-2.44,10.6.62,25.23C79,62.31,64.78,65.08,64.78,65.08Z"/><path class="cls-6" d="M67.31,2.91A4.87,4.87,0,0,1,72.59.08c2.68.46,3.82,3.8,3.67,9-.23,7.5,2.3,12,2.3,12l-3.36.76S66.63,9,67.31,2.91Z"/><path class="cls-6" d="M36.61,84.27h5.44s1.26-6,1.68-9.42.64-11.41.64-11.41,4.33,1.41,13.41.88c20.1-1.17,12.48-15.94,12.48-15.94-.68.94-4.84.29-7.69.73-8.73.84-16.29,4.27-20.84,6.23a23.14,23.14,0,0,0-2.91,1.49c-1.1.68-1.78,2.73-2.2,5.42C35.38,70.35,36.61,84.27,36.61,84.27Z"/><path class="cls-7" d="M41.37,81.37a.2.2,0,0,0,.19-.16,92.72,92.72,0,0,0,1.26-12.6c.18-3.22.34-6.26.76-6.63s1.72-.06,3.49.23c3.5.58,8.79,1.46,14.63.1a10.57,10.57,0,0,0,7-4.59c2.47-4,1.34-8.91,1.33-9a.2.2,0,0,0-.38.09s1.1,4.83-1.28,8.67a10.21,10.21,0,0,1-6.71,4.41c-5.76,1.34-11,.47-14.48-.1-2.08-.35-3.34-.56-3.81-.14s-.66,2.68-.89,6.9a93.11,93.11,0,0,1-1.25,12.54.2.2,0,0,0,.15.23Z"/><path class="cls-7" d="M36.5,81.47h0l6.05-.13a.2.2,0,0,0,.19-.2.19.19,0,0,0-.2-.19l-6,.13a.19.19,0,0,0-.19.2A.2.2,0,0,0,36.5,81.47Z"/><polygon class="cls-4" points="36.76 91.24 40.6 91.24 41.34 86.74 41.74 84.27 36.97 84.27 36.9 86.74 36.76 91.24"/><polygon class="cls-8" points="36.76 91.24 40.6 91.24 41.15 87.89 41.34 86.74 36.9 86.74 36.86 87.93 36.76 91.24"/><polygon class="cls-9" points="36.86 87.93 41.15 87.89 41.34 86.74 36.9 86.74 36.86 87.93"/><path class="cls-10" d="M27.29,97.3H41.8a2,2,0,0,0,.2-.8,23.13,23.13,0,0,0-.5-4.43c0-.14,0-.28-.06-.4s0-.38,0-.5a.74.74,0,0,0-.89-.84c-1.47,1.44-3.13-.72-4.11,0l-.12.1a4,4,0,0,0-.38.31c-.25.21-.6.51-1.07.93a17.85,17.85,0,0,1-4.78,2.42l-.59.26-.4.21c-1.36.73-1.79,1.44-1.89,2A1.08,1.08,0,0,0,27.29,97.3Z"/><path class="cls-11" d="M29.06,94.55a3.8,3.8,0,0,0,1.88.89H31a17.68,17.68,0,0,0,3.61-1.67c.81-.44,1.55-.88,2.08-1.23.87-.57,1-.79,1-.94.13-.57-.82-1-1.48-1.18a4,4,0,0,0-.38.31c.82.22,1.5.58,1.47.78a12.38,12.38,0,0,1-3,1.95A19.15,19.15,0,0,1,31,95a2.94,2.94,0,0,1-1.53-.7Z"/><path class="cls-11" d="M27.29,97.3H41.8a2,2,0,0,0,.2-.8H27.17A1.08,1.08,0,0,0,27.29,97.3Z"/><path class="cls-11" d="M40.32,97.3h.43A3.18,3.18,0,0,1,40,95a4.1,4.1,0,0,1,1.53-2.91c0-.14,0-.28-.06-.4A4.46,4.46,0,0,0,39.63,95,3.55,3.55,0,0,0,40.32,97.3Z"/><path class="cls-12" d="M35.08,92.51a.23.23,0,0,0,.23-.18.24.24,0,0,0-.17-.29l-.91-.22a.24.24,0,0,0-.29.17.24.24,0,0,0,.17.29l.91.23Z"/><path class="cls-12" d="M36,91.76a.23.23,0,0,0,.23-.18.24.24,0,0,0-.17-.29l-.91-.23a.24.24,0,0,0-.11.47l.9.22Z"/><path class="cls-12" d="M34.17,93a.24.24,0,0,0,.06-.47l-.91-.22a.23.23,0,0,0-.29.17.24.24,0,0,0,.18.29l.9.22Z"/><path class="cls-12" d="M33.27,93.55a.24.24,0,0,0,0-.47l-.9-.23a.24.24,0,0,0-.29.18.24.24,0,0,0,.17.29l.91.22Z"/><path class="cls-12" d="M32.28,94a.26.26,0,0,0,.23-.18.24.24,0,0,0-.18-.29l-.9-.23a.24.24,0,0,0-.29.18.24.24,0,0,0,.17.29l.91.22Z"/><path class="cls-12" d="M31.2,94.42a.26.26,0,0,0,.24-.18.24.24,0,0,0-.18-.29l-.91-.23a.25.25,0,0,0-.29.18.24.24,0,0,0,.18.28l.91.23Z"/><path class="cls-11" d="M80.32,43.7s.17,1.17-1.4,1.5l-16.38.54a1.83,1.83,0,0,1-.9-1.92S68.55,39.93,80.32,43.7Z"/><path class="cls-4" d="M62.32,49.11c8.5,4.68,17.78.91,17.78.91a25.47,25.47,0,0,1-1-3.9c-.28-1.48-.44-2.79-.52-3.47-3.61-.2-12.48-.58-15.95.24l0,1.4Z"/><path class="cls-13" d="M68.6,46.87c.06.44.26.77.44.75s.28-.41.22-.84S69,46,68.81,46,68.54,46.43,68.6,46.87Z"/><path class="cls-13" d="M62.57,44.29c3.62-.22,10.75-.3,16.5,1.83-.28-1.48-.44-2.79-.52-3.47-3.61-.2-12.48-.58-15.95.24Z"/><path class="cls-10" d="M58.53,37.56a2.55,2.55,0,0,0,.13.29.54.54,0,0,0,.05.11,8,8,0,0,0,1.75,2.09l.35.3.53.41.19.12v0c0,.06,0,.13,0,.2,0,.26,0,.58.06,1s0,.61,0,1,0,.52,0,.8c4.8-2.15,14.7-.8,18.68-.12-.07-.35-.14-.69-.2-1a31.23,31.23,0,0,1-.5-4.12,42.44,42.44,0,0,1,.45-7.4c0-.18.05-.37.08-.55s0-.24,0-.36c.14-.89.3-1.78.48-2.64.78-3.77.23-7.73-3.59-8.2l-.82-.09c-1.8-.19-3.28-.26-3.69-.28h-.12L65.07,21.2l-.7.2-1.12.38-.43.16c-.36.13-.68.26-1,.39a8.35,8.35,0,0,0-1.43.78c-1.62,1.15-1.37,2.45-1.33,5v.49q0,.49,0,1,0,.74-.12,1.44c0,.19,0,.38-.07.57s0,.35-.07.52C58.5,34.39,58.13,36.36,58.53,37.56Z"/><path class="cls-11" d="M65.07,21.2a3,3,0,0,0,3,1.24c2.39-.17,4-2.45,4.51-3.39h-.12Z"/><path class="cls-12" d="M67.61,25.42l-.21,0a1.86,1.86,0,0,1-1.59-.57c-1.15-1.25-.67-4.11-.65-4.23a.17.17,0,1,1,.34.06s-.46,2.81.57,3.93a1.51,1.51,0,0,0,1.3.46c2.31-.19,4.9-6.06,4.93-6.12a.17.17,0,1,1,.32.14C72.52,19.36,70.06,24.92,67.61,25.42Z"/><path class="cls-4" d="M60.41,23.11a13,13,0,0,1-1.36,6.5c0-.43,0-.87,0-1.3v-.18C59,25.56,58.79,24.26,60.41,23.11Z"/><path class="cls-4" d="M74,26.09c.85,3.28,4,5.9,6.07,5.08,0-.18.05-.37.08-.55s0-.24,0-.36c.14-.89.3-1.78.48-2.64.78-3.77.23-7.73-3.59-8.2l-.82-.09C74.36,20.14,73,22.33,74,26.09Z"/><path class="cls-4" d="M73.57,23.6l-5,18.16,1.77-2a9.12,9.12,0,0,1-2.26.81,16.18,16.18,0,0,1-2.71.34,29.61,29.61,0,0,1-3,0c-1,0-2.06-.12-3.12-.21h0a2.84,2.84,0,0,0-.69,5.63c1.09.18,2.2.34,3.34.48s2.31.23,3.52.25a22.91,22.91,0,0,0,3.75-.2,15.87,15.87,0,0,0,4-1.09,3.13,3.13,0,0,0,1.71-1.86l.06-.18,6-17.87a3.83,3.83,0,0,0-7.27-2.42A1.52,1.52,0,0,0,73.57,23.6Z"/><path class="cls-13" d="M71.34,41.18a.17.17,0,0,0,.13-.07.15.15,0,0,0,0-.2,6.24,6.24,0,0,0-2.27-.73.15.15,0,0,0-.16.13.14.14,0,0,0,.13.16,6.11,6.11,0,0,1,2.15.69Z"/><path class="cls-13" d="M69.54,40.53a.11.11,0,0,0,.07,0A4.23,4.23,0,0,1,71.14,40a.13.13,0,0,0,.13-.15.15.15,0,0,0-.15-.14,4.13,4.13,0,0,0-1.66.52.15.15,0,0,0,0,.2A.16.16,0,0,0,69.54,40.53Z"/><path class="cls-6" d="M68.56,16.65a6.17,6.17,0,0,0,4.53-4.23,8.15,8.15,0,0,0-.77-7,6,6,0,0,0-6.39-2.57C62.59,3.55,60.1,5.25,59.74,8,59.05,13.12,63.18,19.37,68.56,16.65Z"/><path class="cls-8" d="M72.92,13a.19.19,0,0,0,.16-.09,8,8,0,0,0,.31-6.29A5.73,5.73,0,0,0,70,3a6,6,0,0,0-2.31-.42.18.18,0,0,0,0,.36h0a6,6,0,0,1,2.17.41,5.37,5.37,0,0,1,3.2,3.39,7.81,7.81,0,0,1-.29,6,.18.18,0,0,0,.07.25Z"/><path class="cls-13" d="M61.72,13s-1.15-.91-1.45.29.55,3.34,1.89,2.69Z"/><path class="cls-8" d="M62.84,15.24a1.82,1.82,0,0,1,1.21,1.32,1.73,1.73,0,1,1-2.68-1.08,1.59,1.59,0,0,1,.64-.27h0a.31.31,0,0,1-.05.29,1.35,1.35,0,0,0-.51.25,1.46,1.46,0,1,0,2.31.87,1.42,1.42,0,0,0-1.07-1.11Z"/><path class="cls-4" d="M65.2,18.17l.48,3s2.25,2.29,6.36-1.83a4.75,4.75,0,0,1-1.39-4,5.54,5.54,0,0,0-.83.64,2.93,2.93,0,0,1-.34.24A10.84,10.84,0,0,1,65.2,18.17Z"/><path class="cls-6" d="M65.2,18.17l.23,1.43A9.4,9.4,0,0,0,69.82,16l-.34.24A10.84,10.84,0,0,1,65.2,18.17Z"/><path class="cls-4" d="M60.61,12.31c.07.31.13.62.19.9s.12.61.18.89c.46,2.08.83,3.19,1.44,3.61,3.07,2.11,8.06-2.16,8.22-2.3h0c0-.24,0-.48,0-.72a18.7,18.7,0,0,0-.92-5.52,4.25,4.25,0,0,0-3.53-3.59c-1.91-.28-3.33.82-4.23,1.3C60.61,7.61,60.08,9.65,60.61,12.31Z"/><path class="cls-6" d="M69.61,7.27s-2.15-4.13-6.43-3-4.51,3.14-4.59,4.14,2.22-.77,2.22-.77.08,2,.85,1.38a12.54,12.54,0,0,0,2-2.38s2.55,2.51,5,1.83C70,8.11,69.61,7.27,69.61,7.27Z"/><path class="cls-13" d="M64.35,16.36a1.44,1.44,0,0,0,1-.41.16.16,0,0,0,0-.22.15.15,0,0,0-.21,0A1.07,1.07,0,0,1,64,16a.14.14,0,0,0-.19.09.16.16,0,0,0,.09.2A1.26,1.26,0,0,0,64.35,16.36Z"/><path class="cls-12" d="M65.63,13.86a15.58,15.58,0,0,1-3.14.61,1.59,1.59,0,0,0,2.07,1A1.56,1.56,0,0,0,65.63,13.86Z"/><path class="cls-6" d="M61.8,9.56s.53-.06.45.46-1.25.2-1.83,1.24C60.42,11.26,59.87,10.17,61.8,9.56Z"/><path class="cls-6" d="M64.18,9.07a.39.39,0,0,0-.23.61c.28.44,1.23-.31,2.16.43C66.11,10.11,66.2,8.89,64.18,9.07Z"/><path class="cls-13" d="M65.11,12.8c0,.25.6.34,1.22.22s1.09-.43,1-.68-.59-.34-1.22-.21S65.06,12.55,65.11,12.8Z"/><path class="cls-12" d="M59,13l1.66-.28a1.6,1.6,0,0,0,0,.21,0,0,0,0,0,0,0l-1.68.29a.14.14,0,0,1-.15-.1A.13.13,0,0,1,59,13Z"/><path class="cls-12" d="M63.51,12h0a2.15,2.15,0,0,0,.66,1.14,2.1,2.1,0,0,0,1.83.49,2.14,2.14,0,0,0,1-.54,2.58,2.58,0,0,0,.33-.41,2.13,2.13,0,0,0,.27-1.53,1.41,1.41,0,0,0-.06-.22.92.92,0,0,0-.09-.23,2.09,2.09,0,0,0-2.33-1.18h0a2.1,2.1,0,0,0-1.64,1.8,1.14,1.14,0,0,0,0,.26A2,2,0,0,0,63.51,12Zm.25,0A1.84,1.84,0,0,1,65.2,9.72a1.56,1.56,0,0,1,.48,0,1.87,1.87,0,0,1,1.62,1.19h0a2.29,2.29,0,0,1,.08.28A1.86,1.86,0,0,1,66,13.34h0A1.86,1.86,0,0,1,63.76,11.91Z"/><path class="cls-12" d="M58.65,13a2.14,2.14,0,0,0,1.08,1.44,2.75,2.75,0,0,0,.45.17l.26,0h.09a2.1,2.1,0,0,0,.61,0l.06,0,.11,0A1.88,1.88,0,0,0,62,14.2a2.11,2.11,0,0,0,.77-2.09,2,2,0,0,0-.11-.35h0l-.12-.25a2,2,0,0,0-.72-.74,2,2,0,0,0-.89-.31,2,2,0,0,0-.35,0l-.3,0-.15,0-.22.07-.18.09A2.11,2.11,0,0,0,58.65,13Zm1.13-2,.16-.09.23-.08.17,0,.23,0h.14a1.94,1.94,0,0,1,.79.18,1.85,1.85,0,0,1,.9.91,1.61,1.61,0,0,1,.12.39A1.84,1.84,0,0,1,62,13.82l-.09.09a1.79,1.79,0,0,1-.78.42h-.08a2.05,2.05,0,0,1-.6,0h-.08l-.27-.07a1.84,1.84,0,0,1-.4-.19,1.82,1.82,0,0,1-.76-.92L58.92,13a.5.5,0,0,1,0-.12A1.84,1.84,0,0,1,59.78,10.94Z"/><path class="cls-12" d="M70.14,11l0,0a.12.12,0,0,0,0-.17c-.84-1.31-2.84-.14-2.86-.12a.13.13,0,0,0,0,.17.14.14,0,0,0,.17,0S69.3,9.88,70,11A.12.12,0,0,0,70.14,11Z"/><path class="cls-12" d="M62.57,11.82a.1.1,0,0,0,.08-.05c.26-.42.83-.23.84-.23a.12.12,0,0,0,.16-.08.12.12,0,0,0-.08-.15,1,1,0,0,0-1.13.32.12.12,0,0,0,.13.19Z"/><g class="cls-14"><path class="cls-13" d="M60.8,13.21c.06.32.12.61.18.89.57-.14,1-.42.93-.65S61.37,13.12,60.8,13.21Z"/></g><path class="cls-6" d="M64.67,11.57c.07.33.28.58.47.54s.29-.34.22-.68-.28-.58-.47-.54S64.61,11.23,64.67,11.57Z"/><path class="cls-6" d="M61.34,12.24c.07.34.28.58.46.54s.29-.34.22-.68-.27-.58-.46-.54S61.27,11.91,61.34,12.24Z"/><path class="cls-6" d="M63.06,13.15a1.67,1.67,0,0,1-.29,0,.27.27,0,0,1-.1-.06.2.2,0,0,1,0-.11l.22-1.57a.14.14,0,0,1,.16-.12.15.15,0,0,1,.12.16L63,12.88a1.08,1.08,0,0,0,.54-.24.14.14,0,1,1,.18.22A1.52,1.52,0,0,1,63.06,13.15Z"/><path class="cls-6" d="M69.27,14.26a3,3,0,0,0,1.37,1.15h0c0-.24,0-.48,0-.72A2.59,2.59,0,0,1,69.27,14.26Z"/><path class="cls-4" d="M69.41,11.8s1-2.09,2.26-.87c1,1,.13,4.38-1.69,3.66Z"/><path class="cls-8" d="M71.83,13.59A1.84,1.84,0,0,1,73,14.91a1.73,1.73,0,1,1-2.67-1.08,1.7,1.7,0,0,1,.63-.27h0a.29.29,0,0,1-.05.29,1.44,1.44,0,0,0-1.06,1.7A1.46,1.46,0,0,0,72.77,15a1.42,1.42,0,0,0-1.08-1.11Z"/><path class="cls-6" d="M70.05,14h0a.14.14,0,0,1-.15-.13,2.65,2.65,0,0,1,1.1-2.4.13.13,0,0,1,.19,0,.13.13,0,0,1,0,.19h0a2.4,2.4,0,0,0-1,2.15A.14.14,0,0,1,70.05,14Z"/><path class="cls-6" d="M71.17,12.9a.1.1,0,0,1-.09,0c-.14-.07-.55-.24-.78-.13a.14.14,0,0,1-.19-.07.14.14,0,0,1,.07-.18,1.33,1.33,0,0,1,1,.13.14.14,0,0,1,.06.19A.12.12,0,0,1,71.17,12.9Z"/><path class="cls-6" d="M68.14,8.26s1.32,3.59,1.4,4.31c.1,1,1.4-2.39.09-5.27Z"/><path class="cls-6" d="M46.08,84.29h5.43s1.26-6,1.69-9.42.64-11.41.64-11.41,4.33,1.41,13.4.88C87.34,63.16,79.72,48.4,79.72,48.4c-.68.93-5.77,2.23-8.61,2.68-8.73.83-15.37,2.31-19.91,4.27a25.52,25.52,0,0,0-2.92,1.5c-1.09.68-1.78,2.72-2.19,5.42C44.85,70.36,46.08,84.29,46.08,84.29Z"/><path class="cls-7" d="M50.84,81.38a.19.19,0,0,0,.19-.15,92.88,92.88,0,0,0,1.26-12.6c.18-3.22.34-6.26.76-6.63s1.72-.06,3.48.23c3.51.58,8.8,1.46,14.64.1a10.57,10.57,0,0,0,7-4.59c2.47-4,1.34-8.91,1.33-9a.2.2,0,0,0-.23-.15.2.2,0,0,0-.15.24c0,.05,1.1,4.83-1.28,8.67A10.21,10.21,0,0,1,71.08,62c-5.76,1.34-11,.47-14.48-.11-2.08-.34-3.34-.55-3.81-.13s-.66,2.68-.89,6.9a93.11,93.11,0,0,1-1.25,12.54.2.2,0,0,0,.15.23Z"/><path class="cls-7" d="M46,81.49h0l6-.13a.19.19,0,0,0,.19-.2A.18.18,0,0,0,52,81L46,81.1a.19.19,0,0,0-.19.2A.2.2,0,0,0,46,81.49Z"/><polygon class="cls-4" points="46.23 91.26 50.06 91.26 50.8 86.76 51.21 84.29 46.44 84.29 46.36 86.76 46.23 91.26"/><polygon class="cls-8" points="46.23 91.26 50.06 91.26 50.62 87.91 50.8 86.76 46.36 86.76 46.33 87.95 46.23 91.26"/><polygon class="cls-9" points="46.33 87.95 50.62 87.91 50.8 86.76 46.36 86.76 46.33 87.95"/><path class="cls-10" d="M36.75,97.32H51.27a1.88,1.88,0,0,0,.19-.8A23.94,23.94,0,0,0,51,92.09c0-.14,0-.28-.06-.4s0-.38,0-.5a.74.74,0,0,0-.89-.84c-1.47,1.44-3.14-.72-4.11,0l-.13.1-.37.31c-.25.2-.6.5-1.07.93a18.14,18.14,0,0,1-4.78,2.42c-.21.09-.41.17-.59.26l-.4.2c-1.36.74-1.8,1.44-1.9,2A1.14,1.14,0,0,0,36.75,97.32Z"/><path class="cls-10" d="M38.53,94.56a3.73,3.73,0,0,0,1.87.9h.09a18.58,18.58,0,0,0,3.61-1.66c.81-.44,1.54-.88,2.07-1.23.87-.57,1-.79,1.06-.94.13-.58-.82-1-1.49-1.18l-.37.31c.82.22,1.5.57,1.47.78a12.21,12.21,0,0,1-3,1.94,17.69,17.69,0,0,1-3.38,1.58,2.81,2.81,0,0,1-1.53-.69Z"/><path class="cls-11" d="M36.75,97.32H51.27a1.88,1.88,0,0,0,.19-.8H36.63A1.14,1.14,0,0,0,36.75,97.32Z"/><path class="cls-11" d="M49.79,97.32h.43A3.18,3.18,0,0,1,49.44,95,4.1,4.1,0,0,1,51,92.09c0-.14,0-.28-.06-.4A4.44,4.44,0,0,0,49.1,95,3.5,3.5,0,0,0,49.79,97.32Z"/><path class="cls-12" d="M44.55,92.53a.24.24,0,0,0,.05-.47l-.9-.22a.23.23,0,0,0-.29.17.24.24,0,0,0,.17.29l.91.23Z"/><path class="cls-12" d="M45.45,91.78a.23.23,0,0,0,.23-.18.24.24,0,0,0-.17-.29l-.91-.23a.24.24,0,0,0-.29.18.25.25,0,0,0,.17.29l.91.22Z"/><path class="cls-12" d="M43.64,93.06a.23.23,0,0,0,.23-.18.24.24,0,0,0-.17-.29l-.91-.23a.24.24,0,0,0-.11.47l.9.22Z"/><path class="cls-12" d="M42.73,93.57a.26.26,0,0,0,.24-.18.24.24,0,0,0-.18-.29l-.91-.23a.24.24,0,0,0-.11.47l.91.22Z"/><path class="cls-12" d="M41.74,94a.26.26,0,0,0,.24-.19.25.25,0,0,0-.18-.29l-.91-.22a.24.24,0,0,0-.28.17.23.23,0,0,0,.17.29l.91.23Z"/><path class="cls-12" d="M40.67,94.44a.25.25,0,0,0,.06-.48l-.91-.22a.24.24,0,1,0-.11.46l.9.23Z"/><path class="cls-15" d="M26,48.18v1.21c0,.69.42,1.25.94,1.25H92.13c.52,0,.94-.56.94-1.25V48.18c0-.69-.42-1.26-.94-1.26H27C26.46,46.92,26,47.49,26,48.18Z"/><rect class="cls-9" x="26.04" y="48.56" width="67.02" height="0.55"/><path class="cls-9" d="M28,53.74H89.24a.5.5,0,0,0,.5-.5V50.63H27.5v2.61A.5.5,0,0,0,28,53.74Z"/><rect class="cls-9" x="30.75" y="69.11" width="54.77" height="2.13"/><polygon class="cls-15" points="89.47 97.7 78.86 53.74 82.59 53.74 93.19 97.7 89.47 97.7"/><polygon class="cls-15" points="26.88 97.7 37.48 53.74 33.76 53.74 23.15 97.7 26.88 97.7"/><rect class="cls-8" x="86.45" y="36.85" width="1.16" height="8.77" transform="translate(166.8 95.18) rotate(-171.29)"/><polygon class="cls-4" points="87.12 36.82 88.27 36.99 88.01 36.12 87.88 35.66 87.62 36.05 87.12 36.82"/><rect class="cls-6" x="85.83" y="44.94" width="1.16" height="0.64" transform="translate(164.97 103.08) rotate(-171.29)"/><path class="cls-16" d="M85.79,46l1,.15a.07.07,0,0,0,.09-.06l.07-.43-1.15-.18-.07.43A.1.1,0,0,0,85.79,46Z"/><polygon class="cls-6" points="87.62 36.05 88.01 36.12 87.88 35.66 87.62 36.05"/><rect class="cls-9" x="86.27" y="44.14" width="0.46" height="1.16" transform="translate(29.2 123.44) rotate(-81.29)"/><path class="cls-9" d="M87.91,37.38l-1,6.42a.09.09,0,0,1-.1.07h0a.08.08,0,0,1-.07-.1l1-6.42a.1.1,0,0,1,.1-.08h0A.09.09,0,0,1,87.91,37.38Z"/><path class="cls-9" d="M87.46,37.31l-1,6.42a.09.09,0,0,1-.1.07h0a.08.08,0,0,1-.07-.1l1-6.42a.08.08,0,0,1,.1-.07h0A.08.08,0,0,1,87.46,37.31Z"/><rect class="cls-17" x="81.22" y="40.66" width="8.77" height="1.16" transform="translate(44.08 126.71) rotate(-89.81)"/><polygon class="cls-4" points="85.04 36.86 86.2 36.86 85.82 36.03 85.62 35.6 85.42 36.03 85.04 36.86"/><rect class="cls-6" x="85.01" y="44.99" width="1.16" height="0.64" transform="translate(171.03 90.9) rotate(-179.81)"/><path class="cls-16" d="M85.08,46.13h1a.08.08,0,0,0,.08-.08v-.43H85v.43A.07.07,0,0,0,85.08,46.13Z"/><polygon class="cls-6" points="85.42 36.03 85.82 36.03 85.62 35.6 85.42 36.03"/><rect class="cls-18" x="85.36" y="44.18" width="0.46" height="1.16" transform="translate(40.55 130.21) rotate(-89.81)"/><path class="cls-18" d="M85.91,37.29l0,6.5a.09.09,0,0,1-.09.08h0a.09.09,0,0,1-.09-.09l0-6.49a.09.09,0,0,1,.09-.09h0A.09.09,0,0,1,85.91,37.29Z"/><path class="cls-18" d="M85.45,37.29l0,6.49a.09.09,0,0,1-.09.09h0a.09.09,0,0,1-.08-.09l0-6.49a.09.09,0,0,1,.09-.09h0A.08.08,0,0,1,85.45,37.29Z"/><rect class="cls-19" x="83.64" y="36.85" width="1.16" height="8.77" transform="translate(-4.96 12.26) rotate(-8.09)"/><polygon class="cls-4" points="83.03 36.98 84.18 36.82 83.69 36.05 83.43 35.65 83.29 36.1 83.03 36.98"/><rect class="cls-6" x="84.21" y="44.95" width="1.16" height="0.64" transform="translate(175.11 78.15) rotate(171.91)"/><path class="cls-16" d="M84.41,46.15l1-.14a.08.08,0,0,0,.07-.09l-.06-.42-1.16.16.06.43A.08.08,0,0,0,84.41,46.15Z"/><polygon class="cls-6" points="83.29 36.1 83.69 36.05 83.43 35.65 83.29 36.1"/><rect class="cls-20" x="84.14" y="44.49" width="1.16" height="0.46" transform="matrix(0.99, -0.14, 0.14, 0.99, -5.45, 12.36)"/><path class="cls-20" d="M84,37.28l.91,6.43a.08.08,0,0,1-.08.1h0a.09.09,0,0,1-.1-.07l-.91-6.43a.09.09,0,0,1,.08-.1h0A.1.1,0,0,1,84,37.28Z"/><path class="cls-20" d="M83.51,37.35l.91,6.43a.09.09,0,0,1-.08.1h0a.1.1,0,0,1-.1-.08l-.91-6.43a.09.09,0,0,1,.08-.1h0A.11.11,0,0,1,83.51,37.35Z"/><polygon class="cls-16" points="82.65 40.33 82.71 40.8 82.77 41.22 82.85 41.87 82.91 42.29 82.99 42.95 83.05 43.37 83.13 44.02 83.18 44.44 83.27 45.1 83.32 45.51 83.41 46.18 83.46 46.58 83.5 46.92 88.08 46.92 88.12 46.58 88.17 46.18 88.26 45.51 88.31 45.1 88.4 44.44 88.45 44.02 88.53 43.37 88.59 42.95 88.67 42.29 88.73 41.87 88.81 41.22 88.87 40.8 88.93 40.33 82.65 40.33"/><polygon class="cls-21" points="82.71 40.8 82.77 41.22 88.81 41.22 88.87 40.8 82.71 40.8"/><polygon class="cls-21" points="82.85 41.87 82.91 42.29 88.67 42.29 88.73 41.87 82.85 41.87"/><polygon class="cls-21" points="82.99 42.95 83.05 43.37 88.53 43.37 88.59 42.95 82.99 42.95"/><polygon class="cls-21" points="83.13 44.02 83.18 44.44 88.4 44.44 88.45 44.02 83.13 44.02"/><polygon class="cls-21" points="83.27 45.1 83.32 45.51 88.26 45.51 88.31 45.1 83.27 45.1"/><polygon class="cls-21" points="83.41 46.18 83.46 46.58 88.12 46.58 88.17 46.18 83.41 46.18"/><path class="cls-6" d="M26.42,23.61l3.9,16.48.1.44.27,1.11a1.06,1.06,0,0,0,1,.82H58a1.06,1.06,0,0,0,1-1.31l-4.27-18a1.06,1.06,0,0,0-1-.82H27.46A1.06,1.06,0,0,0,26.42,23.61Z"/><polygon class="cls-7" points="30.32 40.09 30.42 40.53 57.69 40.53 57.69 40.09 30.32 40.09"/><path class="cls-8" d="M47.4,26.38a2.67,2.67,0,0,0,2.51,2.12,1.71,1.71,0,0,0,1.72-2.12,2.67,2.67,0,0,0-2.51-2.12A1.71,1.71,0,0,0,47.4,26.38Z"/><path class="cls-6" d="M49.79,26c0,.23.16.42.26.42s.15-.19.11-.42-.17-.43-.27-.43S49.74,25.74,49.79,26Z"/><path class="cls-6" d="M48.68,26c0,.23.17.42.27.42s.15-.19.1-.42-.16-.43-.26-.43S48.64,25.74,48.68,26Z"/><path class="cls-6" d="M49.69,27.41a.94.94,0,0,0,1-.92.12.12,0,0,0-.09-.11c-.06,0-.1,0-.1.07a.78.78,0,0,1-.8.78,1.24,1.24,0,0,1-1.08-.78.12.12,0,0,0-.12-.07.08.08,0,0,0-.05.11A1.5,1.5,0,0,0,49.69,27.41Z"/><path class="cls-16" d="M35.26,36.26c0,1.09-1.88,2.46-1.88,2.46S31.23,37.35,31,36.26,32,34.71,33,35.6A1.22,1.22,0,0,1,35.26,36.26Z"/><path class="cls-7" d="M39.18,33.08a2.36,2.36,0,0,0,2.28,2.06,1.8,1.8,0,0,0,1.83-2.06A2.34,2.34,0,0,0,41,31,1.81,1.81,0,0,0,39.18,33.08Z"/><path class="cls-7" d="M52.68,22.3l4.54,20.16H58a1.06,1.06,0,0,0,1-1.31l-4.26-18a1.08,1.08,0,0,0-1-.82Z"/><polygon class="cls-12" points="45.07 42.46 45.87 46.94 43.24 46.94 42.44 42.46 45.07 42.46"/><path class="cls-12" d="M49.81,46.17l-.54-.76a1,1,0,0,0-.84-.43H41.22a1,1,0,0,0-.91.55l-.36.69a.49.49,0,0,0,.43.72h9A.49.49,0,0,0,49.81,46.17Z"/><path class="cls-12" d="M64.84,46.94H43.17l-.24-.82a.8.8,0,0,1,.77-1h20a.8.8,0,0,1,.77.58Z"/></g></g></g></svg>