<svg xmlns="http://www.w3.org/2000/svg" xmlns:xlink="http://www.w3.org/1999/xlink" viewBox="0 0 131.11 140.18"><defs><style>.cls-1{isolation:isolate;}.cls-2{fill:#c14f38;}.cls-3{fill:#446e21;}.cls-4{fill:#294214;}.cls-5{fill:#a94631;}.cls-6{fill:#ffab4b;}.cls-7{fill:#d7802d;}.cls-16,.cls-8{fill:#f1a180;}.cls-9{fill:#106f80;}.cls-10{fill:#117883;}.cls-11,.cls-29{fill:#fff;}.cls-12{fill:#8b5329;}.cls-13{fill:#08161c;}.cls-14{fill:#211913;}.cls-15{fill:#33261d;}.cls-16{opacity:0.35;mix-blend-mode:multiply;}.cls-17{fill:#0c144f;}.cls-18{fill:#128095;}.cls-19{fill:url(#linear-gradient);}.cls-20{fill:url(#linear-gradient-2);}.cls-21{fill:#515ccd;}.cls-22{fill:url(#linear-gradient-3);}.cls-23{fill:#313745;}.cls-24{fill:url(#linear-gradient-4);}.cls-25{fill:url(#linear-gradient-5);}.cls-26{fill:url(#linear-gradient-6);}.cls-27{fill:url(#linear-gradient-7);}.cls-28{fill:url(#linear-gradient-8);}.cls-29{opacity:0.8;}.cls-30{fill:#231f20;}</style><linearGradient id="linear-gradient" x1="10284.44" y1="84.73" x2="10295.62" y2="73.55" gradientTransform="matrix(-1, 0, 0, 1, 10401.06, 0)" gradientUnits="userSpaceOnUse"><stop offset="0" stop-color="#7380f4"/><stop offset="1" stop-color="#515ccd"/></linearGradient><linearGradient id="linear-gradient-2" x1="10328.19" y1="95.42" x2="10328.19" y2="86.99" gradientTransform="matrix(1, 0, 0, -1, -10255.32, 156.09)" xlink:href="#linear-gradient"/><linearGradient id="linear-gradient-3" x1="10285.3" y1="53.5" x2="10305.41" y2="76.39" xlink:href="#linear-gradient"/><linearGradient id="linear-gradient-4" x1="33.84" y1="97.04" x2="33.84" y2="156.1" gradientUnits="userSpaceOnUse"><stop offset="0" stop-color="gray"/><stop offset="1" stop-color="#424242"/></linearGradient><linearGradient id="linear-gradient-5" x1="0.25" y1="89.99" x2="67.42" y2="89.99" gradientUnits="userSpaceOnUse"><stop offset="0" stop-color="#fff"/><stop offset="0.14" stop-color="#f5f5f5"/><stop offset="1" stop-color="#e4e4e4"/></linearGradient><linearGradient id="linear-gradient-6" x1="45.61" y1="82.04" x2="51.87" y2="81.7" gradientUnits="userSpaceOnUse"><stop offset="0" stop-color="#fff"/><stop offset="1" stop-color="#e4e4e4"/></linearGradient><linearGradient id="linear-gradient-7" x1="58.94" y1="83.17" x2="54.43" y2="81.69" xlink:href="#linear-gradient-6"/><linearGradient id="linear-gradient-8" x1="64.65" y1="90.04" x2="44.98" y2="83.57" xlink:href="#linear-gradient-6"/></defs><g class="cls-1"><g id="Layer_2" data-name="Layer 2"><g id="Layer_1-2" data-name="Layer 1"><polygon class="cls-2" points="15.85 87 5.53 87 4.5 77.92 16.87 77.92 15.85 87"/><path class="cls-3" d="M11.76,78.33s-1.43-10.78,8.58-14.12c-1.08.6-5.72,9.53-5.78,13.76A3.14,3.14,0,0,1,11.76,78.33Z"/><path class="cls-3" d="M12,74.46s.43-10.87-9.85-13.26c1.13.49,6.58,9,7,13.16A3.13,3.13,0,0,0,12,74.46Z"/><path class="cls-4" d="M11,77.77S10.45,66.91,0,65.48c1.16.39,7.38,8.31,8.23,12.45A3.1,3.1,0,0,0,11,77.77Z"/><path class="cls-4" d="M12.18,78.07s5.47-9.4-2.49-16.32c.77,1,1.62,11,.05,14.92A3.09,3.09,0,0,0,12.18,78.07Z"/><path class="cls-5" d="M16.26,79.46H5.11a1.2,1.2,0,1,1,0-2.4H16.26a1.2,1.2,0,0,1,0,2.4Z"/><path class="cls-6" d="M43.1,110.86c2.27,6.3,8.16,21.86,12.27,26.41l55.33.21s9.3-9.57,11.85-13.73c13.49-21.93,9.23-33.36-.36-39.1l-1-.59c-11.35-6.1-29.05-5-34.67-4l-.21,0c-18.59,3.75-26.4-54.39-41.51-45.6-1.36.79-2.55,2.53-3.57,5C35.58,53.23,35.34,89.3,43.1,110.86Z"/><path class="cls-7" d="M41.19,39.55a57.35,57.35,0,0,0,1.18,10.21c5.53,27.82,5.76,37.71,14.25,45.71,4.74,4.46,38.05,13.31,54.29,3.12,9.34-5.87,10.15-10.37,10.24-14.53-11.35-6.1-29.05-5-34.67-4l-.21,0c-18.59,3.75-26.4-54.39-41.51-45.6C43.4,35.33,42.21,37.07,41.19,39.55Z"/><path class="cls-8" d="M104.78,65a5,5,0,1,1,6.89-1.42A5,5,0,0,1,104.78,65Z"/><path class="cls-9" d="M72.57,32.59A4.78,4.78,0,0,0,70.22,39l8,17,.39.83a7.07,7.07,0,0,0,1,1.49,7.38,7.38,0,0,0,2.9,2.06,6,6,0,0,0,.85.27l.43.1.22,0,.73.12,1.46.25,5.84,1,11.67,2,1.45-7.57L93.54,54l-5.78-1.24-1.45-.31-.72-.15-.09,0h0l.15,0a1.42,1.42,0,0,1,.53.34,1.57,1.57,0,0,1,.19.26c.06.12,0-.09-.07-.18l-.15-.34L79,35.11a4.78,4.78,0,0,0-6.38-2.52Z"/><path class="cls-10" d="M55.89,80.08c22.15-4.16,20.86,3.42,30.45,0-5.26-12.77-7.5-21.52-6.74-40.63.21-5.31-3.29-9.87-8.44-10.16L60.4,28.89c-5.13-.29-10,4.92-10.41,11.62C49.08,57.11,50.9,51.84,55.89,80.08Z"/><path class="cls-11" d="M60.13,29.81c-.22,1.73,5.18,5.13,8.89,5.41s4.36-2.65,4.58-4.38S71,27.47,67.26,27.19,60.35,28.08,60.13,29.81Z"/><path class="cls-11" d="M96.2,130.27,93.77,136a1.92,1.92,0,0,1-1.75.82,2.26,2.26,0,0,1-2-.85c-.18-.27.9-4.76.9-4.76Z"/><path class="cls-12" d="M102.59,140.18H95a7.55,7.55,0,0,0-.8-.25,14.23,14.23,0,0,0-1.62-.14l0,.39H89.34a37.76,37.76,0,0,1,0-4.23.3.3,0,0,1,.42-.26,4.66,4.66,0,0,0,2.18.91c1,0,1.7-.95,2-1a3.22,3.22,0,0,1,1,.42s6.28,3.05,7.06,3.31S102.58,139.92,102.59,140.18Z"/><path class="cls-13" d="M89.34,140.18a8.88,8.88,0,0,1-.06-1.05c1,0,2.49,0,3.12,0s2,.58,2.68.58h7.45a.91.91,0,0,1,.06.48H95a7.55,7.55,0,0,0-.8-.25,14.23,14.23,0,0,0-1.62-.14l0,.39Z"/><path class="cls-11" d="M116,129.69l3.72,5.69a3.82,3.82,0,0,1-2.28.83,2.22,2.22,0,0,1-2-.85c-.18-.27-4.73-4.75-4.73-4.75Z"/><path class="cls-12" d="M128,139.61h-7.62a5.23,5.23,0,0,0-.79-.26,14.23,14.23,0,0,0-1.62-.14l0,.4h-3.24a35.62,35.62,0,0,1,0-4.24.3.3,0,0,1,.42-.26,4.66,4.66,0,0,0,2.18.91c1,0,1.7-.94,2-1a3.15,3.15,0,0,1,1,.42s6.28,3,7.07,3.31S128,139.34,128,139.61Z"/><path class="cls-13" d="M114.78,139.61a7.39,7.39,0,0,1-.06-1.06c1,0,2.49,0,3.12,0s2,.58,2.68.58H128a1,1,0,0,1,.07.49h-7.62a5.23,5.23,0,0,0-.79-.26,14.23,14.23,0,0,0-1.62-.14l0,.4Z"/><path class="cls-14" d="M89.56,131.68c1-12.81,6.6-33.2,8.74-35.2-9.63-1.66-14.5-4.13-26.91-4.13s-13.52-14-13.52-14,54.25-6.93,57,6.73c1.51,7.42-11.34,35.42-17.19,46.56Z"/><path class="cls-15" d="M55.38,78.19S99.8,76,102,89.64c1.18,7.43,9.93,30.72,16.07,41.85h-7.27c-25.56-23.31-22-30-21.56-35.3-7.47-1.66-16.18-.13-24.88-4.26A15.48,15.48,0,0,1,55.38,78.19Z"/><path class="cls-8" d="M61.23,15.93s1.19,11.62.63,13.78c1.77,2.38,8.25,2.48,10.37,2,.44-2.24.3-10.56-.06-10.94s-5.9-3.71-5.9-3.71Z"/><path class="cls-16" d="M62.45,25.26c-.71-1-.72-3.83-.91-5.69l4.73,1.05s5.84,2.94,6.2,3.31-.07,4-.11,7.05C68.84,30.25,63.87,27.17,62.45,25.26Z"/><path class="cls-8" d="M61.47,13.2s-.17,7.12,1.58,9.06,8.39,6.28,11.89,5,2.27-16.38,1.73-18.07S73.32,4.92,70,4.67s-5.6-1-6.47,1A60,60,0,0,0,61.47,13.2Z"/><path class="cls-17" d="M63.33,15a20.79,20.79,0,0,0,2.94,4c.37.25,9,.74,10.06.78s1-2,1-2,3.44,10.28-3.19,10.61-12.4-5.07-12.4-6.34A63.63,63.63,0,0,1,63.33,15Z"/><path class="cls-17" d="M63.34,19.14l1-1.52s-.42-6.5.43-9.29c.79.24,7.72,2.73,12,.6s2.49-6.68.85-7.84S67-.18,66.2.18,64,1.82,63.83,1.76a17.94,17.94,0,0,0-4.32,2.86c-1.46,1.34.31,12.82.31,12.82Z"/><path class="cls-8" d="M62.58,16.94c1,1.2,1,2.74.14,3.45s-2.37.3-3.33-.89-1-2.74-.14-3.45S61.63,15.75,62.58,16.94Z"/><path class="cls-11" d="M71.81,21a2.86,2.86,0,0,0,2.41,2,2.33,2.33,0,0,0,2.23-2Z"/><circle class="cls-8" cx="86.51" cy="63.71" r="4.98"/><path class="cls-18" d="M54.45,32.21a4.78,4.78,0,0,0-3,6.12L57.78,56l.31.85a7.37,7.37,0,0,0,.85,1.59,7.25,7.25,0,0,0,2.69,2.32,6,6,0,0,0,.82.36l.42.14.22.06.71.19,1.43.39,5.71,1.54,11.43,3.08,2.17-7.39L73.26,55.55l-5.64-1.8-1.41-.44-.71-.23-.08,0,0,0,.07,0,.15,0a1.33,1.33,0,0,1,.49.39,1.56,1.56,0,0,1,.16.28c.05.13,0-.09,0-.19l-.11-.35L60.56,35.32a4.78,4.78,0,0,0-6.11-3.11Z"/><path d="M84.25,59l.14-.47L66.27,53c-.44-1.35-4.36-13.47-4.46-13.8A1.89,1.89,0,0,0,60.07,38v.49s1,0,1.28.86c.11.35,4.33,13.38,4.51,13.93l0,.13Z"/><path class="cls-19" d="M80.13,79.46h30.68l8.71-21.35a1.8,1.8,0,0,0-1.5-2.55H91a1.64,1.64,0,0,0-1.5,1.07Z"/><path class="cls-20" d="M63.46,76.64h18.8a0,0,0,0,1,0,0v.87a1.93,1.93,0,0,1-1.93,1.93H63.46a0,0,0,0,1,0,0v-2.8A0,0,0,0,1,63.46,76.64Z" transform="translate(145.73 156.09) rotate(180)"/><path class="cls-11" d="M82,79.46h30.68l8.72-21.35a1.8,1.8,0,0,0-1.51-2.55H92.84a1.66,1.66,0,0,0-1.51,1.07Z"/><path class="cls-21" d="M91.13,56.53a1.87,1.87,0,0,1,1.71-1.22H119.9a1.83,1.83,0,0,1,1.57.94,2.22,2.22,0,0,1,.14,2l-8.77,21.5H81.67ZM121.2,58a1.7,1.7,0,0,0-.1-1.49,1.4,1.4,0,0,0-1.2-.72H92.84a1.44,1.44,0,0,0-1.3.93L82.36,79.22h30.19Z"/><path class="cls-22" d="M100.2,68a3.74,3.74,0,0,1,3.5-2.63A2.08,2.08,0,0,1,105.91,68a3.74,3.74,0,0,1-3.5,2.63A2.08,2.08,0,0,1,100.2,68Z"/><rect class="cls-23" x="30.58" y="94.22" width="6.52" height="44.73"/><path class="cls-23" d="M55.29,139H12.39l.22-.07a63.72,63.72,0,0,1,21.23-3.64h0a63.72,63.72,0,0,1,21.23,3.64Z"/><polygon class="cls-24" points="59.75 97.87 7.92 97.87 3.11 89.64 64.56 89.64 59.75 97.87"/><rect class="cls-25" x="0.25" y="87.04" width="67.17" height="5.9" rx="2.16"/><path class="cls-26" d="M42.73,77.52s1.55,8.79,5.91,8.79H53s2.18-5.68,3.58-8.79Z"/><path class="cls-27" d="M53.19,85.26a.62.62,0,0,1-.62-.62.62.62,0,0,1,.62-.62c1.9,0,3.09-.67,3.54-2A2.31,2.31,0,0,0,56.62,80a1.38,1.38,0,0,0-1.18-.54.62.62,0,0,1,0-1.24,2.62,2.62,0,0,1,2.19,1.06,3.5,3.5,0,0,1,.28,3.19C57.28,84.25,55.61,85.26,53.19,85.26Z"/><path class="cls-28" d="M40.53,85c.11,0,1.18.73,2.11,1.35a5.56,5.56,0,0,0,3.09.94H57.17a2.56,2.56,0,0,0,1.7-.65L60.72,85Z"/><path class="cls-11" d="M57.35,87.54l-.22,0a.25.25,0,0,1-.21-.28.26.26,0,0,1,.29-.21c.88.14,2.21-1,2.95-1.8H40.53a.25.25,0,1,1,0-.49H60.72a.24.24,0,0,1,.22.14.24.24,0,0,1,0,.26C60.82,85.25,58.88,87.54,57.35,87.54Z"/><circle class="cls-6" cx="18.79" cy="26.45" r="12"/><circle class="cls-29" cx="18.79" cy="26.45" r="9.04"/><path class="cls-21" d="M23,29.63a.23.23,0,0,1-.14,0l-4.25-2.95a.26.26,0,0,1-.1-.19V20.24a.24.24,0,1,1,.47,0v6.08l4.15,2.88a.24.24,0,0,1,.06.33A.26.26,0,0,1,23,29.63Z"/><path class="cls-21" d="M19.29,26.45a.51.51,0,0,1-1,0,.51.51,0,1,1,1,0Z"/><path class="cls-30" d="M77.88,13.15a1.56,1.56,0,0,1-1.2,1.56,1.12,1.12,0,0,1-1.26-1.11c0-.28.46-.28.45,0a.67.67,0,0,0,.85.64,1.14,1.14,0,0,0,.71-1.09c0-.29.47-.29.45,0Z"/><path class="cls-30" d="M71.81,14.19a1.21,1.21,0,0,1-2.39.32.22.22,0,0,1,.43-.11.77.77,0,0,0,1.51-.21.23.23,0,0,1,.45,0Z"/><path class="cls-30" d="M74.45,14.57c.07,1.22.14,2.44.2,3.66a.22.22,0,0,1-.22.22H74A.23.23,0,0,1,74,18h.44l-.22.23L74,14.57c0-.29.44-.29.45,0Z"/></g></g></g></svg>