<svg xmlns="http://www.w3.org/2000/svg" viewBox="0 0 13.26 11.77"><defs><style>.cls-1{opacity:0.5;}.cls-2{fill:#363638;}.cls-3{fill:none;stroke:#363638;stroke-linecap:round;stroke-linejoin:round;stroke-width:1.3px;}</style></defs><g id="Layer_2" data-name="Layer 2"><g id="Layer_1-2" data-name="Layer 1"><g class="cls-1"><path class="cls-2" d="M4.57,9.38a.55.55,0,0,1,.55.55.55.55,0,0,1-.55.54A.54.54,0,0,1,4,9.93a.55.55,0,0,1,.54-.55m0-1.3A1.85,1.85,0,1,0,6.42,9.93,1.84,1.84,0,0,0,4.57,8.08Z"/><path class="cls-2" d="M8.74,5.34h.07a.51.51,0,0,1,.36.2.5.5,0,0,1,.11.4.54.54,0,0,1-.53.48H8.68a.51.51,0,0,1-.36-.2.53.53,0,0,1-.11-.4.54.54,0,0,1,.53-.48m0-1.3a1.85,1.85,0,0,0-.21,3.68h.22A1.85,1.85,0,0,0,9,4.05Z"/><path class="cls-2" d="M4.63,1.3H4.7a.55.55,0,0,1,.47.61.54.54,0,0,1-.54.48H4.57a.54.54,0,0,1-.48-.6.56.56,0,0,1,.54-.48m0-1.3a1.84,1.84,0,0,0-.22,3.67l.22,0A1.85,1.85,0,0,0,4.85,0Z"/><line class="cls-3" x1="0.65" y1="9.93" x2="1.71" y2="9.93"/><line class="cls-3" x1="0.65" y1="5.88" x2="5.67" y2="5.88"/><line class="cls-3" x1="11.64" y1="5.89" x2="12.61" y2="5.88"/><line class="cls-3" x1="0.74" y1="1.72" x2="1.71" y2="1.71"/><line class="cls-3" x1="7.47" y1="1.71" x2="12.61" y2="1.68"/><line class="cls-3" x1="7.47" y1="9.93" x2="12.61" y2="9.93"/></g></g></g></svg>