<svg xmlns="http://www.w3.org/2000/svg" viewBox="0 0 10.24 13.97"><defs><style>.cls-1{opacity:0.5;}.cls-2{fill:#363638;}</style></defs><g id="Layer_2" data-name="Layer 2"><g id="Layer_1-2" data-name="Layer 1"><g class="cls-1"><path class="cls-2" d="M8.64,7.66a6.35,6.35,0,0,0-3.52-1,6.35,6.35,0,0,0-3.52,1A3.26,3.26,0,0,0,0,10.32v2.94A.71.71,0,0,0,.71,14H9.54a.7.7,0,0,0,.7-.71V10.32A3.26,3.26,0,0,0,8.64,7.66ZM2.39,8.84a5,5,0,0,1,2.73-.76,5,5,0,0,1,2.73.76,1.88,1.88,0,0,1,1,1.48v2.24H1.41V10.32A1.88,1.88,0,0,1,2.39,8.84Z"/><path class="cls-2" d="M5.12,5.83A2.92,2.92,0,1,0,2.21,2.91,2.92,2.92,0,0,0,5.12,5.83Zm0-4.42a1.51,1.51,0,1,1-1.5,1.5A1.5,1.5,0,0,1,5.12,1.41Z"/></g></g></g></svg>