<svg xmlns="http://www.w3.org/2000/svg" viewBox="0 0 22.65 25.49"><defs><style>.cls-1{opacity:0.7;}.cls-2{fill:#c7c7c7;}</style></defs><g id="Layer_2" data-name="Layer 2"><g id="Layer_1-2" data-name="Layer 1"><g class="cls-1"><path class="cls-2" d="M6.34,0a4.42,4.42,0,1,0,4.42,4.42A4.42,4.42,0,0,0,6.34,0Zm0,7.89A3.47,3.47,0,1,1,9.81,4.42,3.48,3.48,0,0,1,6.34,7.89Z"/><path class="cls-2" d="M16.3,5a4.42,4.42,0,1,0,4.42,4.42A4.43,4.43,0,0,0,16.3,5Zm0,7.89a3.47,3.47,0,1,1,3.47-3.47A3.47,3.47,0,0,1,16.3,12.84Z"/><path class="cls-2" d="M10,21.64v3.43a.42.42,0,0,0,.43.42H22.22a.43.43,0,0,0,.43-.42V21.64a6.34,6.34,0,0,0-9.54-5.47l-.42.24,0-.47A6.34,6.34,0,0,0,0,16.69v3.42a.43.43,0,0,0,.43.43h9.62l0,.35A6.59,6.59,0,0,0,10,21.64Zm6.34-5.49a5.5,5.5,0,0,1,5.49,5.49v3h-11v-3A5.51,5.51,0,0,1,16.3,16.15ZM.85,19.69v-3a5.49,5.49,0,1,1,11,0v.46l-.09.1a6.42,6.42,0,0,0-1.4,2.23l-.07.21Z"/></g></g></g></svg>