<svg xmlns="http://www.w3.org/2000/svg" viewBox="0 0 23.49 26.34"><defs><style>.cls-1{opacity:0.7;}.cls-2{fill:#c7c7c7;}</style></defs><g id="Layer_2" data-name="Layer 2"><g id="Layer_1-2" data-name="Layer 1"><g class="cls-1"><path class="cls-2" d="M23.07,19.86a2.56,2.56,0,0,0-.78-.79l-.72-.49a3.36,3.36,0,0,0,1-2.06s0-.08,0-.12v-.66a3.41,3.41,0,1,0-6.82-.24v.69s0,.12,0,.18v.1a3.32,3.32,0,0,0,1,2.15l-.64.36a3.34,3.34,0,0,0-.76-.74l-.2-.13a.31.31,0,0,0-.1-.05l-.69-.28a3.76,3.76,0,0,0,1.26-2.47.57.57,0,0,0,0-.13v-.73a3.79,3.79,0,0,0-7.57,0V15s0,.16,0,.25v.06a3.8,3.8,0,0,0,1.18,2.44l-1,.55a2.81,2.81,0,0,0-.82.68L7,18.58A3.36,3.36,0,0,0,8,16.5a.49.49,0,0,0,0-.12v-.64a3.41,3.41,0,0,0-6.81-.25,1,1,0,0,0,0,.25v.45a1.93,1.93,0,0,0,0,.23v0a3.42,3.42,0,0,0,1,2.15l-.8.45A2.73,2.73,0,0,0,0,21.44v4.45a.45.45,0,0,0,.45.45H23a.45.45,0,0,0,.45-.45V21.32A2.72,2.72,0,0,0,23.07,19.86Zm-6.41-3.55s0-.09,0-.12v-.45a2.5,2.5,0,1,1,5-.2.67.67,0,0,1,0,.2v.67a2.54,2.54,0,0,1-1,1.77l-.06.05s0,0-.05,0a1.18,1.18,0,0,1-.19.11l-.08.05h0l-.11,0-.05,0-.07,0a3,3,0,0,1-.4.12,2.5,2.5,0,0,1-.47.05h-.06l-.27,0h-.13l-.09,0h0l-.07,0-.1,0-.12,0-.13-.05h-.06a.05.05,0,0,0,0,0l-.08,0-.06,0,0,0h0l-.05,0h0l0,0h0a2.42,2.42,0,0,1-1.1-1.82A.78.78,0,0,0,16.66,16.31ZM9,15.25v-.08A1.36,1.36,0,0,1,9,15v-.51A2.81,2.81,0,0,1,9.4,13a2.87,2.87,0,0,1,5.34,1.47v.75a2.87,2.87,0,0,1-1.15,2.06l-.11.07-.18.12,0,0h0a1.55,1.55,0,0,1-.29.14,2.69,2.69,0,0,1-1.09.22l-.35,0a3,3,0,0,1-.32-.06c-.11,0-.21-.06-.32-.09l-.25-.11-.06,0-.18-.11-.06,0h0l-.05,0h0A2.84,2.84,0,0,1,9,15.25Zm-.25,3.8,1.33-.76.09.05.06,0,.32.14.42.13a3.07,3.07,0,0,0,.42.07,2.73,2.73,0,0,0,.57,0l.31,0,.18,0,.27-.05.16,0,.42-.14.2-.1a9.12,9.12,0,0,0,1.2.53l.16.11a2.29,2.29,0,0,1,.59.61,1,1,0,0,1,.11.21,2,2,0,0,1,.22.92v4.69H7.7V20.88A2.18,2.18,0,0,1,8,19.79a2,2,0,0,1,.76-.74ZM2.07,16.38s0-.15,0-.19v-.45a2.5,2.5,0,1,1,5-.22.81.81,0,0,1,0,.22v.45a.41.41,0,0,1,0,.11v.1a2.54,2.54,0,0,1-1,1.78L6,18.23l0,0H6l-.1.06-.1.06-.24.12a2.64,2.64,0,0,1-.4.12l-.16,0-.24,0H4.25L4,18.62h0l-.23-.07-.17-.08-.12-.05-.05,0-.14-.08h0l0,0a2.5,2.5,0,0,1-1.1-1.82ZM.91,21.44a1.83,1.83,0,0,1,.92-1.58L3,19.21l0,0,.08,0,.29.13.29.08.08,0a2.32,2.32,0,0,0,.38.06,2.83,2.83,0,0,0,.41,0,2.73,2.73,0,0,0,.41,0H5a2,2,0,0,0,.35-.07l.08,0a2.8,2.8,0,0,0,.41-.13L6,19.28l.17-.09,0,0h0l.81.55a3,3,0,0,0-.11.32l0,.11a2,2,0,0,0,0,.24.77.77,0,0,0,0,.15,1.64,1.64,0,0,0,0,.22s0,.08,0,.12v4.56H.91Zm21.67,4H16.7V20.74a2.18,2.18,0,0,0,0-.44s0-.07,0-.11,0-.23-.09-.35a.07.07,0,0,1,0-.05l.67-.38,0,0,.32-.18.09,0s0,0,0,0l.08,0,0,0,.16.07.15,0h0l.14,0h0l.08,0h.12l.19,0,.21,0h.42l.17,0,.29,0a3.13,3.13,0,0,0,.52-.16l.07,0,.09,0h0l.08,0h.08l.1,0h0l1,.66a1.58,1.58,0,0,1,.51.52,1.85,1.85,0,0,1,.28,1Z"/><path class="cls-2" d="M3.41,8.39v2.73a.45.45,0,0,0,.45.45.5.5,0,0,0,.27-.08l3-2.21H9.6a4.56,4.56,0,0,0,2.89-1,4.6,4.6,0,0,0,2.89,1h2.45l3,2.21a.5.5,0,0,0,.27.08.45.45,0,0,0,.2,0,.45.45,0,0,0,.25-.41V8.39A4.64,4.64,0,0,0,18.85,0H15.38a4.68,4.68,0,0,0-2.89,1A4.66,4.66,0,0,0,9.6,0H6.14A4.64,4.64,0,0,0,3.41,8.39ZM18.85.91a3.73,3.73,0,0,1,2,6.86.45.45,0,0,0-.21.38v2.08L18.25,8.46A.44.44,0,0,0,18,8.37H15.39a3.73,3.73,0,0,1-2.61-1.06l0,0a3.74,3.74,0,0,1-1.1-2.64c0-.13,0-.25,0-.38A3.73,3.73,0,0,1,15.39.91ZM3.5,2A3.73,3.73,0,0,1,6.14.91H9.6a3.71,3.71,0,0,1,2.23.74c-.09.11-.18.22-.26.34l-.06.09-.17.28a.91.91,0,0,0-.07.14c0,.09-.09.17-.13.26l-.06.15a2.77,2.77,0,0,0-.1.26,1,1,0,0,1-.05.16,2.68,2.68,0,0,1-.07.27l0,.16c0,.1,0,.2-.05.29a.77.77,0,0,1,0,.15c0,.14,0,.29,0,.44s0,.3,0,.44a.78.78,0,0,1,0,.14c0,.1,0,.2,0,.29s0,.11,0,.17l.06.25L11,6.1a2.25,2.25,0,0,0,.08.24,1.11,1.11,0,0,1,.07.16c0,.08.07.16.11.23s.06.11.08.16l.14.22.09.15c0,.08.11.15.17.23l.09.11,0,0a3.65,3.65,0,0,1-2.23.75H7a.5.5,0,0,0-.27.08L4.31,10.23V8.15a.44.44,0,0,0-.2-.38A3.73,3.73,0,0,1,3,2.61,4.09,4.09,0,0,1,3.5,2Z"/><path class="cls-2" d="M14.38,5.26h5.47a.47.47,0,0,0,.46-.46.46.46,0,0,0-.46-.45H14.38a.46.46,0,0,0-.46.45A.47.47,0,0,0,14.38,5.26Z"/><path class="cls-2" d="M4.77,5.26H9.3a.46.46,0,0,0,.45-.46.45.45,0,0,0-.45-.45H4.77a.46.46,0,0,0-.46.45A.47.47,0,0,0,4.77,5.26Z"/></g></g></g></svg>