<svg xmlns="http://www.w3.org/2000/svg" viewBox="0 0 24.77 25.45"><defs><style>.cls-1{opacity:0.7;}.cls-2{fill:#c7c7c7;}</style></defs><g id="Layer_2" data-name="Layer 2"><g id="Layer_1-2" data-name="Layer 1"><g class="cls-1"><path class="cls-2" d="M12.39,11.92a2.89,2.89,0,1,0,2.88,2.89A2.89,2.89,0,0,0,12.39,11.92Zm0,4.85a2,2,0,1,1,2-2A2,2,0,0,1,12.39,16.77Z"/><path class="cls-2" d="M4.44,11.92a2.89,2.89,0,1,0,2.88,2.89A2.89,2.89,0,0,0,4.44,11.92Zm0,4.85a2,2,0,1,1,2-2A2,2,0,0,1,4.44,16.77Z"/><path class="cls-2" d="M20.34,11.92a2.89,2.89,0,1,0,2.88,2.89A2.89,2.89,0,0,0,20.34,11.92Zm0,4.85a2,2,0,1,1,2-2A2,2,0,0,1,20.34,16.77Z"/><path class="cls-2" d="M20.34,18.41a4.52,4.52,0,0,0-4,2.39l0,0,0,0a4.47,4.47,0,0,0-7.91,0l0,0,0,0a4.51,4.51,0,0,0-3.95-2.39,4.44,4.44,0,0,0-3.12,1.27A4.27,4.27,0,0,0,0,22.75V25a.47.47,0,0,0,.46.47H24.31a.46.46,0,0,0,.46-.47V22.75a4.26,4.26,0,0,0-1.31-3.07A4.46,4.46,0,0,0,20.34,18.41ZM8,24.52h-7V22.75a3.51,3.51,0,0,1,7,0Zm8,0h-7V22.75a3.51,3.51,0,0,1,7,0Zm8,0h-7V22.75a3.52,3.52,0,0,1,7,0Z"/><path class="cls-2" d="M22.46,2a2,2,0,0,0-2-2H14.37A1.91,1.91,0,0,0,13,.58,2,2,0,0,0,12.4,2V6.45a2,2,0,0,0,2,2h3.11l2.44,2.32a.62.62,0,0,0,1-.56l-.32-1.78h0a2,2,0,0,0,1.79-2Zm-.92,4.48a1.06,1.06,0,0,1-1.05,1.06h-.14a.65.65,0,0,0-.51.23h0a.7.7,0,0,0-.15.55l.21,1.18-1.79-1.7a.94.94,0,0,0-.65-.26H14.37a1.06,1.06,0,0,1-1-1.06V2a1.06,1.06,0,0,1,1-1.06h6.12A1.06,1.06,0,0,1,21.54,2Z"/><rect class="cls-2" x="14.6" y="3.74" width="5.65" height="0.91" rx="0.39"/><path class="cls-2" d="M3.36,10.85a.63.63,0,0,0,.72-.1L6.53,8.43H9.64a2,2,0,0,0,2-2V2A2,2,0,0,0,11,.58,1.93,1.93,0,0,0,9.64,0H3.52a2,2,0,0,0-2,2V6.45a2,2,0,0,0,1.79,2h0L3,10.19A.63.63,0,0,0,3.36,10.85Zm-.89-4.4V2a1.06,1.06,0,0,1,1-1.06H9.64a1.06,1.06,0,0,1,1,1.06V6.45a1.06,1.06,0,0,1-1,1.06H6.55a.94.94,0,0,0-.65.26L4.1,9.47l.22-1.18a.7.7,0,0,0-.15-.55.66.66,0,0,0-.51-.23H3.52A1.06,1.06,0,0,1,2.47,6.45Z"/><rect class="cls-2" x="3.75" y="3.74" width="5.65" height="0.91" rx="0.39"/></g></g></g></svg>