<svg width="585" height="232" viewBox="0 0 585 232" fill="none" xmlns="http://www.w3.org/2000/svg">
<path d="M254.8 108.623V92.8007H240.372V74.9367L223.9 79.9131V92.8007H212.792V108.623H223.9V135.164C223.9 152.39 231.689 159.153 254.8 156.601V141.672C245.352 142.182 240.372 142.054 240.372 135.164V108.623H254.8Z" fill="#FFCC3B"/>
<path d="M300.612 158.387C319.382 158.387 334.449 143.713 334.449 124.701C334.449 105.688 319.382 91.0143 300.612 91.0143C281.842 91.0143 266.903 105.688 266.903 124.701C266.903 143.713 281.842 158.387 300.612 158.387ZM300.612 142.31C290.908 142.31 283.375 135.036 283.375 124.701C283.375 114.365 290.908 107.092 300.612 107.092C310.444 107.092 317.978 114.365 317.978 124.701C317.978 135.036 310.444 142.31 300.612 142.31Z" fill="#FFCC3B"/>
<path d="M368.312 103.774V92.8007H351.841V156.601H368.312V126.104C368.312 112.706 379.166 108.878 387.721 109.899V91.5247C379.676 91.5247 371.632 95.0975 368.312 103.774Z" fill="#FFCC3B"/>
<path d="M411.33 85.1447C416.948 85.1447 421.545 80.5511 421.545 75.0643C421.545 69.5775 416.948 64.8563 411.33 64.8563C405.839 64.8563 401.243 69.5775 401.243 75.0643C401.243 80.5511 405.839 85.1447 411.33 85.1447ZM403.158 156.601H419.63V92.8007H403.158V156.601Z" fill="#FFCC3B"/>
<path d="M476.006 91.0143C467.451 91.0143 460.812 94.2043 456.981 99.9463V92.8007H440.509V156.601H456.981V122.149C456.981 111.048 462.982 106.326 471.027 106.326C478.432 106.326 483.668 110.792 483.668 119.469V156.601H500.139V117.428C500.139 100.457 489.541 91.0143 476.006 91.0143Z" fill="#FFCC3B"/>
<path d="M568.911 92.8007V100.712C564.442 94.7147 557.547 91.0143 548.482 91.0143C530.35 91.0143 516.688 105.816 516.688 123.68C516.688 141.672 530.35 156.346 548.482 156.346C557.547 156.346 564.442 152.645 568.911 146.648V153.538C568.911 163.619 562.527 169.233 552.185 169.233C542.353 169.233 538.139 165.278 535.458 160.301L521.412 168.34C527.03 178.676 538.011 183.907 551.674 183.907C568.528 183.907 585 174.465 585 153.538V92.8007H568.911ZM551.035 141.161C540.693 141.161 533.159 133.888 533.159 123.68C533.159 113.6 540.693 106.326 551.035 106.326C561.378 106.326 568.911 113.6 568.911 123.68C568.911 133.888 561.378 141.161 551.035 141.161Z" fill="#FFCC3B"/>
<path d="M200.973 195.112C185.104 212.118 164.486 223.966 141.796 229.117C119.105 234.269 95.3889 232.487 73.7243 224.002C52.0597 215.518 33.4468 200.723 20.3006 181.536C7.15446 162.35 0.08193 139.658 0.000707179 116.405C-0.0805157 93.152 6.83331 70.4113 19.8451 51.1336C32.8569 31.8559 51.366 16.9311 72.9708 8.29564C94.5757 -0.339808 118.279 -2.28724 141.005 2.70602C163.731 7.69928 184.431 19.4027 200.419 36.2979L188.311 47.7393C174.619 33.2695 156.89 23.2461 137.427 18.9696C117.963 14.6931 97.6625 16.361 79.1591 23.7568C60.6557 31.1526 44.8036 43.935 33.6596 60.4453C22.5157 76.9557 16.5944 96.4318 16.6639 116.347C16.7335 136.262 22.7908 155.696 34.0497 172.128C45.3087 188.561 61.2497 201.232 79.8044 208.499C98.359 215.765 118.671 217.291 138.104 212.879C157.537 208.467 175.195 198.32 188.787 183.755L200.973 195.112Z" fill="#FF9900"/>
<path d="M61.4862 156.6H121.244V139.629H87.662L105.155 122.148C113.582 113.726 119.839 104.412 119.839 93.5655C119.839 75.7015 105.666 65.4935 90.3434 65.4935C78.2132 65.4935 66.5937 71.6183 60.8478 84.3783L75.6595 93.0551C78.5963 86.6751 83.7037 82.5919 90.5988 82.5919C97.3662 82.5919 102.218 87.0579 102.218 94.2035C102.218 100.201 97.7492 106.07 92.0033 112.068L61.4862 143.457V156.6Z" fill="#FF9900"/>
<path d="M181.346 92.7999V127.252C181.346 138.353 175.345 143.074 167.301 143.074C159.895 143.074 154.66 138.608 154.66 129.932V92.7999H138.188V131.973C138.188 148.944 148.786 158.386 162.321 158.386C170.876 158.386 177.516 155.196 181.346 149.454V156.6H197.818V92.7999H181.346Z" fill="#FF9900"/>
</svg>
