<svg xmlns="http://www.w3.org/2000/svg" viewBox="0 0 42.82 29.76"><defs><style>.cls-1{fill:#fa5;}</style></defs><g id="Layer_2" data-name="Layer 2"><g id="Option_1" data-name="Option 1"><path class="cls-1" d="M11.08,21a13.93,13.93,0,0,0,11.13,0,1.53,1.53,0,0,0,.95-1.42v-6l2.91-1.6a.81.81,0,0,0,.43-.73.83.83,0,0,0-.43-.73l-9-5a.83.83,0,0,0-.81,0l-9,5a.83.83,0,0,0-.43.73.81.81,0,0,0,.43.73l2.91,1.6v6A1.53,1.53,0,0,0,11.08,21Zm10.83-1.42a.3.3,0,0,1-.18.27,12.75,12.75,0,0,1-10.17,0,.3.3,0,0,1-.18-.27V14.19l4.86,2.68a.86.86,0,0,0,.41.1.85.85,0,0,0,.4-.1l2.45-1.35v3.34a.63.63,0,1,0,1.25,0v-4l1.16-.64ZM16.65,6.69l8.15,4.48-4.58,2.52-3.14-3a.63.63,0,0,0-.87.91l2.86,2.69-2.42,1.34L8.5,11.17Z"/><path class="cls-1" d="M11.2,6.42a.63.63,0,1,0,0-1.25H8.65a.63.63,0,0,0,0,1.25Z"/><path class="cls-1" d="M41.06,23.74h-.49V1.55A1.56,1.56,0,0,0,39,0H9.91a.63.63,0,1,0,0,1.25H39a.31.31,0,0,1,.3.3V23.74H38.06V17.51a.63.63,0,1,0-1.25,0v6.23H6v-20h30.8V15a.63.63,0,1,0,1.25,0V3.14a.63.63,0,0,0-.63-.63h-32a.63.63,0,0,0-.62.63v20.6H3.5V1.55a.31.31,0,0,1,.3-.3H7.4A.63.63,0,1,0,7.4,0H3.8A1.55,1.55,0,0,0,2.25,1.55V23.74h-.5A1.75,1.75,0,0,0,0,25.49V28a1.75,1.75,0,0,0,1.75,1.75H14.27a.63.63,0,0,0,0-1.25H1.75a.51.51,0,0,1-.5-.5V25.49a.5.5,0,0,1,.5-.5h14.7l.79,1.66a1.28,1.28,0,0,0,1.14.73h6.05a1.28,1.28,0,0,0,1.15-.73L26.37,25H41.06a.5.5,0,0,1,.5.5V28a.5.5,0,0,1-.5.5H16.77a.63.63,0,0,0,0,1.25H41.06A1.75,1.75,0,0,0,42.82,28V25.49A1.75,1.75,0,0,0,41.06,23.74ZM24.45,26.11H18.38a0,0,0,0,1,0,0L17.84,25H25Z"/><path class="cls-1" d="M26.37,20h8.11a1,1,0,0,0,1-1V16.05a1,1,0,0,0-1-1H26.37a1,1,0,0,0-1,1V19A1,1,0,0,0,26.37,20Zm.29-3.62h7.52V18.7H26.66Z"/></g></g></svg>