<svg xmlns="http://www.w3.org/2000/svg" viewBox="0 0 28 28"><defs><style>.cls-1{fill:#fa5;}</style></defs><g id="Layer_2" data-name="Layer 2"><g id="Option_1" data-name="Option 1"><path class="cls-1" d="M14,0A14,14,0,1,0,28,14,14,14,0,0,0,14,0Zm0,27A13,13,0,1,1,27,14,13,13,0,0,1,14,27Z"/><path class="cls-1" d="M18.58,17.39h0a.52.52,0,0,0-.37.16,6,6,0,0,1-8.42,0,.52.52,0,1,0-.73.73,7,7,0,0,0,9.88,0,.51.51,0,0,0,.15-.37.48.48,0,0,0-.15-.36A.52.52,0,0,0,18.58,17.39Z"/><path class="cls-1" d="M9.55,11.12h0l0,0a1,1,0,0,0,.28-.68,1,1,0,0,0-.28-.68,1,1,0,0,0-1.37,0,1,1,0,0,0-.28.68,1,1,0,0,0,.28.68,1,1,0,0,0,.69.29,1,1,0,0,0,.68-.29Z"/><path class="cls-1" d="M19.11,9.49a1,1,0,0,0-.68.29,1,1,0,0,0-.28.68,1,1,0,0,0,.28.68,1,1,0,0,0,.68.29,1,1,0,0,0,.69-.29,1,1,0,0,0,.28-.68,1,1,0,0,0-1-1Z"/></g></g></svg>