<svg xmlns="http://www.w3.org/2000/svg" xmlns:xlink="http://www.w3.org/1999/xlink" viewBox="0 0 344.27 256.77"><defs><style>.cls-1{fill:none;}.cls-2{isolation:isolate;}.cls-15,.cls-3{fill:#ffd371;}.cls-3{opacity:0.3;}.cls-11,.cls-4{fill:#fff;}.cls-5{fill:#e7e7e7;}.cls-6{fill:#fafafa;}.cls-7{fill:#f0f0f0;}.cls-8{fill:#eaeaea;mix-blend-mode:multiply;}.cls-13,.cls-9{fill:#1b2e35;}.cls-11,.cls-12,.cls-19,.cls-9{opacity:0.2;}.cls-10{fill:#fa5;}.cls-14{fill:#e8e8e8;}.cls-16{fill:#cc5b54;}.cls-17{fill:#cb5b54;}.cls-18{fill:#b82425;}.cls-20{clip-path:url(#clip-path);}</style><clipPath id="clip-path"><path class="cls-1" d="M109.67,130.18s6.35,33.62,1.54,48.39C89.66,175.05,67.1,189,50.71,176.4c.61-17.88,3.93-40,7-45.48C57.67,130.92,85.69,128.21,109.67,130.18Z"/></clipPath></defs><g class="cls-2"><g id="Layer_2" data-name="Layer 2"><g id="Option_1" data-name="Option 1"><path class="cls-3" d="M180,256.5C82.68,258.48,39.61,228,39.61,228S-24.65,196.45,10.53,109.8c28-68.94,132.08-127,184.22-103.73s48.11,54.06,105.73,97.39,45.22,78.9,35.42,97C335.9,200.45,305.35,254,180,256.5Z"/><path class="cls-4" d="M213.84,92.6A2.8,2.8,0,0,1,211,89.52l.32,0-.32,0a3.36,3.36,0,0,1,3.28-3,2.79,2.79,0,0,1,2.81,3.08A3.36,3.36,0,0,1,213.84,92.6Zm.46-5.46a2.71,2.71,0,0,0-2.64,2.44A2.15,2.15,0,0,0,213.84,92a2.71,2.71,0,0,0,2.64-2.44,2.16,2.16,0,0,0-2.18-2.38Z"/><path class="cls-4" d="M204.18,92.6a2.79,2.79,0,0,1-2.82-3.08l.32,0-.32,0a3.36,3.36,0,0,1,3.27-3,2.82,2.82,0,0,1,2.1.9,2.86,2.86,0,0,1,.72,2.18A3.36,3.36,0,0,1,204.18,92.6Zm.45-5.46A2.7,2.7,0,0,0,202,89.58a2.18,2.18,0,0,0,.55,1.69,2.2,2.2,0,0,0,1.63.69,2.69,2.69,0,0,0,2.63-2.44,2.14,2.14,0,0,0-.55-1.68A2.17,2.17,0,0,0,204.63,87.14Z"/><path class="cls-4" d="M194.51,92.6a2.79,2.79,0,0,1-2.81-3.08l.31,0-.31,0a3.35,3.35,0,0,1,3.27-3,2.79,2.79,0,0,1,2.09.9,2.83,2.83,0,0,1,.73,2.18A3.36,3.36,0,0,1,194.51,92.6Zm.46-5.46a2.72,2.72,0,0,0-2.64,2.44,2.22,2.22,0,0,0,.56,1.69,2.2,2.2,0,0,0,1.62.69,2.7,2.7,0,0,0,2.64-2.44A2.16,2.16,0,0,0,195,87.14Z"/><path class="cls-5" d="M204.78,104.67A2.79,2.79,0,0,1,202,101.6l.32,0-.32,0a3.35,3.35,0,0,1,3.27-3,2.79,2.79,0,0,1,2.82,3.07A3.35,3.35,0,0,1,204.78,104.67Zm.45-5.45a2.69,2.69,0,0,0-2.63,2.43,2.14,2.14,0,0,0,2.18,2.38,2.69,2.69,0,0,0,2.63-2.43,2.14,2.14,0,0,0-2.18-2.38Z"/><path class="cls-5" d="M195.11,104.67a2.79,2.79,0,0,1-2.81-3.07l.31,0-.31,0a3.35,3.35,0,0,1,3.27-3,2.8,2.8,0,0,1,2.82,3.07A3.35,3.35,0,0,1,195.11,104.67Zm.46-5.45a2.71,2.71,0,0,0-2.64,2.43,2.22,2.22,0,0,0,.56,1.69,2.16,2.16,0,0,0,1.62.69,2.7,2.7,0,0,0,2.64-2.43,2.18,2.18,0,0,0-.56-1.69A2.14,2.14,0,0,0,195.57,99.22Z"/><path class="cls-5" d="M185.45,104.67a2.8,2.8,0,0,1-2.82-3.07l.32,0-.32,0a3.35,3.35,0,0,1,3.28-3,2.79,2.79,0,0,1,2.81,3.07A3.35,3.35,0,0,1,185.45,104.67Zm.46-5.45a2.7,2.7,0,0,0-2.64,2.43,2.18,2.18,0,0,0,.56,1.69,2.14,2.14,0,0,0,1.62.69,2.71,2.71,0,0,0,2.64-2.43,2.22,2.22,0,0,0-.56-1.69A2.16,2.16,0,0,0,185.91,99.22Z"/><path class="cls-6" d="M167.12,109.69a4,4,0,0,1,3.91-3.6H283.38a3.27,3.27,0,0,1,3.3,3.6l-1,11.61H166.14Z"/><path class="cls-7" d="M195.71,116.74a2.79,2.79,0,0,1-2.81-3.07l.31,0-.31,0a3.35,3.35,0,0,1,3.27-3,2.8,2.8,0,0,1,2.82,3.07A3.35,3.35,0,0,1,195.71,116.74Zm.46-5.45a2.71,2.71,0,0,0-2.64,2.43,2.22,2.22,0,0,0,.56,1.69,2.16,2.16,0,0,0,1.62.69,2.7,2.7,0,0,0,2.64-2.43,2.18,2.18,0,0,0-.56-1.69A2.14,2.14,0,0,0,196.17,111.29Z"/><path class="cls-7" d="M186.05,116.74a2.8,2.8,0,0,1-2.82-3.07l.32,0-.32,0a3.35,3.35,0,0,1,3.28-3,2.79,2.79,0,0,1,2.81,3.07A3.34,3.34,0,0,1,186.05,116.74Zm.46-5.45a2.7,2.7,0,0,0-2.64,2.43,2.18,2.18,0,0,0,.56,1.69,2.14,2.14,0,0,0,1.62.69,2.71,2.71,0,0,0,2.64-2.43,2.22,2.22,0,0,0-.56-1.69A2.16,2.16,0,0,0,186.51,111.29Z"/><path class="cls-7" d="M176.39,116.74a2.79,2.79,0,0,1-2.82-3.07l.32,0-.32,0a3.35,3.35,0,0,1,3.27-3,2.79,2.79,0,0,1,2.82,3.07A3.35,3.35,0,0,1,176.39,116.74Zm.45-5.45a2.69,2.69,0,0,0-2.63,2.43,2.14,2.14,0,0,0,2.18,2.38,2.69,2.69,0,0,0,2.63-2.43,2.14,2.14,0,0,0-2.18-2.38Z"/><ellipse id="_Path_" data-name="&lt;Path&gt;" class="cls-8" cx="82.57" cy="248.36" rx="55.26" ry="8.41"/><path class="cls-7" d="M277,176.86H23.34a2,2,0,0,1-2.06-2.19L31,6A2.35,2.35,0,0,1,33.3,3.78H286.91A2,2,0,0,1,289,6l-9.7,168.7A2.35,2.35,0,0,1,277,176.86Z"/><path class="cls-9" d="M277,177.26H23.34a2.45,2.45,0,0,1-1.8-.76,2.48,2.48,0,0,1-.67-1.86l9.7-168.7A2.77,2.77,0,0,1,33.3,3.37H286.91A2.45,2.45,0,0,1,289.38,6l-9.7,168.7A2.76,2.76,0,0,1,277,177.26Z"/><path class="cls-4" d="M273.91,173.49H20.3a2,2,0,0,1-2.07-2.19L27.93,2.6A2.35,2.35,0,0,1,30.25.41H283.87a2,2,0,0,1,2.06,2.19l-9.7,168.7A2.35,2.35,0,0,1,273.91,173.49Z"/><path class="cls-4" d="M273.91,173.9H20.3a2.45,2.45,0,0,1-2.47-2.62L27.53,2.57A2.76,2.76,0,0,1,30.25,0H283.87a2.41,2.41,0,0,1,1.8.77,2.45,2.45,0,0,1,.67,1.85l-9.7,168.7A2.77,2.77,0,0,1,273.91,173.9Z"/><path class="cls-10" d="M283.87.41H30.25A2.35,2.35,0,0,0,27.93,2.6L27,18.47H285l.91-15.87A2,2,0,0,0,283.87.41Z"/><polygon class="cls-4" points="46.02 10.15 35.09 10.15 35.17 8.73 46.1 8.73 46.02 10.15"/><polygon class="cls-4" points="45.81 13.75 34.88 13.75 34.96 12.33 45.89 12.33 45.81 13.75"/><polygon class="cls-4" points="46.23 6.55 35.3 6.55 35.38 5.13 46.31 5.13 46.23 6.55"/><path class="cls-11" d="M154,14.41H55.17A2.12,2.12,0,0,1,53,12.15l.31-5.42a2.44,2.44,0,0,1,2.39-2.26h98.82a2.12,2.12,0,0,1,2.14,2.26l-.32,5.42A2.43,2.43,0,0,1,154,14.41Z"/><g class="cls-12"><polygon class="cls-4" points="104.55 36.9 25.96 36.9 27.02 18.47 105.61 18.47 104.55 36.9"/><path class="cls-13" d="M104.55,37.11H26a.23.23,0,0,1-.15-.07.25.25,0,0,1,0-.15l1.06-18.43a.19.19,0,0,1,.2-.19h78.59a.2.2,0,0,1,.15.06.23.23,0,0,1,.06.16l-1.06,18.42A.22.22,0,0,1,104.55,37.11ZM26.18,36.7h78.18l1-18H27.21Z"/><polygon class="cls-4" points="103.49 55.33 24.9 55.33 25.96 36.9 104.55 36.9 103.49 55.33"/><path class="cls-13" d="M103.49,55.53H24.9a.22.22,0,0,1-.15-.06.27.27,0,0,1-.05-.15l1.06-18.43a.2.2,0,0,1,.2-.19h78.59a.2.2,0,0,1,.15.06.22.22,0,0,1,.06.15L103.7,55.34A.21.21,0,0,1,103.49,55.53Zm-78.37-.4H103.3l1-18H26.15Z"/><polygon class="cls-4" points="102.43 73.76 23.84 73.76 24.9 55.33 103.49 55.33 102.43 73.76"/><path class="cls-13" d="M102.43,74H23.84a.22.22,0,0,1-.15-.06.27.27,0,0,1-.05-.15L24.7,55.32a.2.2,0,0,1,.2-.19h78.59a.2.2,0,0,1,.15.06.22.22,0,0,1,.06.15l-1.06,18.43A.21.21,0,0,1,102.43,74Zm-78.37-.4h78.18l1-18H25.09Z"/><polygon class="cls-4" points="97.6 157.86 19.01 157.86 19.91 142.23 98.5 142.23 97.6 157.86"/><path class="cls-13" d="M97.6,158.06H19a.21.21,0,0,1-.21-.21l.9-15.63a.21.21,0,0,1,.2-.19H98.5a.18.18,0,0,1,.14.06.22.22,0,0,1,.06.15l-.9,15.63A.2.2,0,0,1,97.6,158.06Zm-78.38-.4H97.41l.87-15.22H20.1Z"/><path class="cls-4" d="M96.7,173.49H20.44a2.19,2.19,0,0,1-2.2-2.34L19,157.86H97.6Z"/><path class="cls-13" d="M96.7,173.69H20.44a2.4,2.4,0,0,1-1.76-.74,2.44,2.44,0,0,1-.64-1.81l.76-13.29a.21.21,0,0,1,.21-.19H97.6a.22.22,0,0,1,.15.06.27.27,0,0,1,0,.15l-.9,15.63A.19.19,0,0,1,96.7,173.69ZM19.2,158.06l-.76,13.1a2,2,0,0,0,.54,1.51,2,2,0,0,0,1.46.62H96.51l.87-15.23Z"/><polygon class="cls-4" points="98.5 142.23 19.91 142.23 23.84 73.76 102.43 73.76 98.5 142.23"/><path class="cls-13" d="M98.5,142.44H19.9a.21.21,0,0,1-.14-.07.2.2,0,0,1-.06-.15l3.94-68.47a.2.2,0,0,1,.2-.19h78.59a.21.21,0,0,1,.21.21L98.7,142.24A.21.21,0,0,1,98.5,142.44ZM20.12,142H98.3L102.22,74H24Z"/><polyline class="cls-4" points="116.03 173.49 123.3 47.02 264.05 47.02 256.77 173.49"/><path class="cls-13" d="M256.77,173.69h0a.19.19,0,0,1-.19-.21l7.26-126.26H123.5L116.23,173.5a.2.2,0,0,1-.4,0L123.1,47a.21.21,0,0,1,.2-.19H264.05a.18.18,0,0,1,.14.06.22.22,0,0,1,.06.15L257,173.5A.21.21,0,0,1,256.77,173.69Z"/><path class="cls-13" d="M135.75,160.91h-8.12a.6.6,0,0,1-.61-.65l.11-1.85a.69.69,0,0,1,.68-.65h8.12a.61.61,0,0,1,.62.65l-.11,1.85A.7.7,0,0,1,135.75,160.91Z"/><path class="cls-13" d="M157.92,160.91h-8.11a.61.61,0,0,1-.62-.65l.11-1.85a.7.7,0,0,1,.69-.65h8.12a.6.6,0,0,1,.61.65l-.11,1.85A.7.7,0,0,1,157.92,160.91Z"/><path class="cls-13" d="M180.1,160.91H172a.6.6,0,0,1-.61-.65l.1-1.85a.7.7,0,0,1,.69-.65h8.12a.6.6,0,0,1,.61.65l-.1,1.85A.7.7,0,0,1,180.1,160.91Z"/><path class="cls-13" d="M202.27,160.91h-8.12a.6.6,0,0,1-.61-.65l.11-1.85a.69.69,0,0,1,.68-.65h8.12a.61.61,0,0,1,.62.65l-.11,1.85A.7.7,0,0,1,202.27,160.91Z"/><path class="cls-13" d="M224.44,160.91h-8.11a.61.61,0,0,1-.62-.65l.11-1.85a.7.7,0,0,1,.69-.65h8.12a.61.61,0,0,1,.61.65l-.11,1.85A.7.7,0,0,1,224.44,160.91Z"/><path class="cls-13" d="M246.62,160.91H238.5a.6.6,0,0,1-.61-.65l.1-1.85a.7.7,0,0,1,.69-.65h8.12a.6.6,0,0,1,.61.65l-.1,1.85A.7.7,0,0,1,246.62,160.91Z"/><path class="cls-13" d="M263.62,43.17H246.83a.61.61,0,0,1-.62-.65l.11-1.84A.71.71,0,0,1,247,40H263.8a.61.61,0,0,1,.61.66l-.11,1.84A.69.69,0,0,1,263.62,43.17Z"/><path class="cls-13" d="M57.17,48.28H32.53a.86.86,0,0,1-.87-.92l.14-2.49a1,1,0,0,1,1-.92H57.42a.87.87,0,0,1,.88.92l-.15,2.49A1,1,0,0,1,57.17,48.28Z"/><path class="cls-13" d="M72.23,88.15h-42a.82.82,0,0,1-.83-.87l.13-2.12a.93.93,0,0,1,.92-.88h42a.82.82,0,0,1,.83.88l-.12,2.12A1,1,0,0,1,72.23,88.15Z"/><path class="cls-13" d="M59.88,102.67H29.35a.82.82,0,0,1-.82-.88l.12-2.12a.94.94,0,0,1,.93-.87H60.1a.83.83,0,0,1,.83.87l-.13,2.12A.94.94,0,0,1,59.88,102.67Z"/><path class="cls-13" d="M53.26,117.18H28.52a.83.83,0,0,1-.83-.88l.13-2.12a.93.93,0,0,1,.92-.87H53.49a.81.81,0,0,1,.82.87l-.12,2.12A.94.94,0,0,1,53.26,117.18Z"/><path class="cls-13" d="M64.17,131.69H27.68a.81.81,0,0,1-.82-.87l.12-2.13a.94.94,0,0,1,.93-.87H64.39a.81.81,0,0,1,.83.87l-.12,2.13A1,1,0,0,1,64.17,131.69Z"/><path class="cls-13" d="M51.17,66.71H31.47a.86.86,0,0,1-.87-.92l.14-2.49a1,1,0,0,1,1-.92h19.7a.86.86,0,0,1,.87.92l-.14,2.49A1,1,0,0,1,51.17,66.71Z"/><path class="cls-13" d="M46.25,152.22H26.56a.87.87,0,0,1-.88-.93l.15-2.49a1,1,0,0,1,1-.92H46.5a.86.86,0,0,1,.87.92l-.14,2.49A1,1,0,0,1,46.25,152.22Z"/><polygon class="cls-4" points="191.65 82.25 156.46 82.25 158.49 47.02 193.68 47.02 191.65 82.25"/><path class="cls-13" d="M191.65,82.45H156.46a.18.18,0,0,1-.14-.06.22.22,0,0,1-.06-.15l2-35.23a.19.19,0,0,1,.2-.19h35.18a.2.2,0,0,1,.15.06.22.22,0,0,1,.06.15l-2,35.23A.19.19,0,0,1,191.65,82.45Zm-35-.4h34.78l2-34.83H158.68Z"/><polygon class="cls-4" points="132.36 92.17 128.66 92.17 128.87 88.46 132.57 88.46 132.36 92.17"/><path class="cls-13" d="M132.36,92.37h-3.7a.21.21,0,0,1-.21-.21l.22-3.71a.19.19,0,0,1,.2-.19h3.7a.2.2,0,0,1,.15.06.22.22,0,0,1,.06.15l-.22,3.71A.19.19,0,0,1,132.36,92.37Zm-3.49-.4h3.3l.19-3.3h-3.3Z"/><polygon class="cls-4" points="226.83 82.25 191.65 82.25 193.68 47.02 228.86 47.02 226.83 82.25"/><path class="cls-13" d="M226.83,82.45H191.65a.2.2,0,0,1-.15-.06.17.17,0,0,1-.05-.15l2-35.23a.21.21,0,0,1,.2-.19h35.19a.2.2,0,0,1,.15.06.17.17,0,0,1,.05.15l-2,35.23A.21.21,0,0,1,226.83,82.45Zm-35-.4h34.78l2-34.83H193.87Z"/><polygon class="cls-4" points="262.02 82.25 226.83 82.25 228.86 47.02 264.05 47.02 262.02 82.25"/><path class="cls-13" d="M262,82.45H226.83a.2.2,0,0,1-.14-.06.22.22,0,0,1-.06-.15l2-35.23a.19.19,0,0,1,.2-.19h35.19a.18.18,0,0,1,.14.06.22.22,0,0,1,.06.15l-2,35.23A.19.19,0,0,1,262,82.45Zm-35-.4h34.78l2-34.83H229.05Z"/><line class="cls-4" x1="105.08" y1="27.69" x2="284.49" y2="27.69"/><path class="cls-13" d="M284.49,27.89H105.08a.2.2,0,0,1-.2-.2.21.21,0,0,1,.2-.21H284.49a.21.21,0,0,1,.2.21A.2.2,0,0,1,284.49,27.89Z"/><line class="cls-4" x1="128.36" y1="97.41" x2="253.2" y2="97.41"/><path class="cls-13" d="M253.2,97.51H128.36a.11.11,0,0,1-.11-.1.1.1,0,0,1,.11-.1H253.2a.1.1,0,0,1,.1.1A.11.11,0,0,1,253.2,97.51Z"/><line class="cls-4" x1="127.71" y1="108.61" x2="252.55" y2="108.61"/><path class="cls-13" d="M252.55,108.71H127.71a.1.1,0,0,1,0-.2H252.55a.1.1,0,1,1,0,.2Z"/><line class="cls-4" x1="127.07" y1="119.81" x2="251.91" y2="119.81"/><path class="cls-13" d="M251.91,119.91H127.07a.09.09,0,0,1-.1-.1.1.1,0,0,1,.1-.1H251.91a.1.1,0,0,1,.1.1A.09.09,0,0,1,251.91,119.91Z"/><line class="cls-4" x1="126.42" y1="131.01" x2="251.27" y2="131.01"/><path class="cls-13" d="M251.27,131.11H126.42a.1.1,0,0,1-.1-.1.11.11,0,0,1,.1-.1H251.27a.11.11,0,0,1,.1.1A.1.1,0,0,1,251.27,131.11Z"/><line class="cls-4" x1="125.78" y1="142.21" x2="250.62" y2="142.21"/><path class="cls-13" d="M250.62,142.32H125.78a.1.1,0,0,1-.1-.11.1.1,0,0,1,.1-.1H250.62a.1.1,0,0,1,.1.1A.1.1,0,0,1,250.62,142.32Z"/><line class="cls-4" x1="125.13" y1="153.42" x2="249.98" y2="153.42"/><path class="cls-13" d="M250,153.52H125.13a.11.11,0,0,1-.1-.1.11.11,0,0,1,.1-.11H250a.11.11,0,0,1,.1.11A.11.11,0,0,1,250,153.52Z"/><polygon class="cls-4" points="165.12 53.98 161.41 53.98 161.63 50.27 165.33 50.27 165.12 53.98"/><path class="cls-13" d="M165.12,54.18h-3.71a.2.2,0,0,1-.14-.06.22.22,0,0,1-.06-.15l.22-3.71a.19.19,0,0,1,.2-.19h3.7a.2.2,0,0,1,.15.06.17.17,0,0,1,.05.15L165.32,54A.19.19,0,0,1,165.12,54.18Zm-3.49-.4h3.3l.19-3.31h-3.3Z"/><polygon class="cls-4" points="200.23 53.98 196.53 53.98 196.74 50.27 200.44 50.27 200.23 53.98"/><path class="cls-13" d="M200.23,54.18h-3.7a.2.2,0,0,1-.15-.06.22.22,0,0,1-.06-.15l.22-3.71a.19.19,0,0,1,.2-.19h3.7a.2.2,0,0,1,.15.06.22.22,0,0,1,.06.15L200.43,54A.19.19,0,0,1,200.23,54.18Zm-3.49-.4H200l.19-3.31h-3.3Z"/><polygon class="cls-4" points="235.42 53.98 231.71 53.98 231.93 50.27 235.63 50.27 235.42 53.98"/><path class="cls-13" d="M235.42,54.18h-3.71a.22.22,0,0,1-.15-.06.27.27,0,0,1-.05-.15l.21-3.71a.21.21,0,0,1,.21-.19h3.7a.2.2,0,0,1,.15.06.17.17,0,0,1,.05.15L235.62,54A.21.21,0,0,1,235.42,54.18Zm-3.49-.4h3.29l.19-3.31h-3.29Z"/></g><polygon class="cls-10" points="137.67 153.42 126.58 153.42 127.03 145.6 138.12 145.6 137.67 153.42"/><polygon class="cls-14" points="148.75 153.42 137.67 153.42 138.67 135.92 149.76 135.92 148.75 153.42"/><polygon class="cls-10" points="159.84 153.42 148.75 153.42 150.42 124.48 161.5 124.48 159.84 153.42"/><polygon class="cls-14" points="170.93 153.42 159.84 153.42 162.05 114.92 173.14 114.92 170.93 153.42"/><polygon class="cls-10" points="182.01 153.42 170.93 153.42 173.34 111.36 184.43 111.36 182.01 153.42"/><polygon class="cls-14" points="193.1 153.42 182.01 153.42 184.15 116.28 195.24 116.28 193.1 153.42"/><polygon class="cls-10" points="204.19 153.42 193.1 153.42 195.11 118.43 206.2 118.43 204.19 153.42"/><polygon class="cls-14" points="215.27 153.42 204.19 153.42 206.4 114.92 217.49 114.92 215.27 153.42"/><polygon class="cls-10" points="226.36 153.42 215.27 153.42 217.04 122.75 228.12 122.75 226.36 153.42"/><polygon class="cls-14" points="237.45 153.42 226.36 153.42 228.75 111.8 239.84 111.8 237.45 153.42"/><path class="cls-10" d="M237.55,153.31h10.89l2.9-50.52H240.46Z"/><path class="cls-15" d="M156.46,82.45H121.28a.2.2,0,0,1-.15-.06.22.22,0,0,1-.06-.15l2-35.23a.21.21,0,0,1,.2-.19h35.19a.2.2,0,0,1,.15.06.17.17,0,0,1,.05.15l-2,35.23A.21.21,0,0,1,156.46,82.45Z"/><path class="cls-4" d="M129.86,54.18h-3.7a.2.2,0,0,1-.15-.06A.22.22,0,0,1,126,54l.22-3.71a.19.19,0,0,1,.2-.19h3.7a.2.2,0,0,1,.15.06.22.22,0,0,1,.06.15L130.06,54A.19.19,0,0,1,129.86,54.18Zm-3.49-.4h3.3l.19-3.31h-3.3Z"/><path class="cls-16" d="M65.23,89.25l-.91,1.17-1,1.31c-.65.89-1.31,1.77-1.93,2.69-1.26,1.8-2.41,3.65-3.45,5.48-.52.92-1,1.84-1.41,2.75a28.51,28.51,0,0,0-1.13,2.68,17.23,17.23,0,0,0-1.06,4.76l-.54-2.24c.44,1.33.9,2.72,1.48,4.13s1.16,2.86,1.84,4.29,1.34,2.91,2,4.39,1.46,3,2.09,4.42l.13.31a3.95,3.95,0,0,1-5.91,4.79,44.41,44.41,0,0,1-4.28-3.53,54.69,54.69,0,0,1-3.83-3.93,50.58,50.58,0,0,1-3.46-4.41,42.56,42.56,0,0,1-3-5,4.57,4.57,0,0,1-.47-1.57l-.07-.68a27.9,27.9,0,0,1,.83-9.9,42.53,42.53,0,0,1,3.09-8.3,57.82,57.82,0,0,1,4.17-7.26c.78-1.14,1.56-2.26,2.4-3.35q.63-.81,1.29-1.62l.69-.8.78-.88a7.76,7.76,0,0,1,12,9.89Z"/><path class="cls-10" d="M62.1,71c-6.9,2.11-13.85,13.29-13.85,13.29.12,4.2,6.28,14,10.91,16.26A23.32,23.32,0,0,0,66.7,90.25C69.2,83.13,65.55,72.19,62.1,71Z"/><path class="cls-17" d="M59.72,124.53l-4.1,1.83c-3.34,3.32,1.67,6.88,1.67,6.88L59,135.93a2.39,2.39,0,0,0,3,.71l2.87-1.25a2.49,2.49,0,0,0,1.5-3.12l-1.1-2.56a4.86,4.86,0,0,0-1.45-1.9Z"/><path class="cls-17" d="M86.8,71.3a6.35,6.35,0,0,0-3-2.83,5.76,5.76,0,0,1-.1-3.89L69.12,59.93c1.18,4.83,2.1,8.64.31,11,2.86,1.75,8.12,4.89,13.85,4.73S87.73,73.33,86.8,71.3Z"/><path class="cls-13" d="M85.39,50.78c.11.56.49,1,.85.89s.58-.59.48-1.15-.49-1-.86-.88S85.29,50.22,85.39,50.78Z"/><path class="cls-18" d="M85.79,51.59l.84,4.7a5.21,5.21,0,0,0,1.66-.23.63.63,0,0,0,.15-1.1A11.19,11.19,0,0,1,85.79,51.59Z"/><path class="cls-13" d="M86.37,47.38a.3.3,0,0,1-.25.19,2.61,2.61,0,0,0-2,1.37.34.34,0,0,1-.44.17.35.35,0,0,1-.17-.45A3.31,3.31,0,0,1,86,46.91a.34.34,0,0,1,.39.28A.3.3,0,0,1,86.37,47.38Z"/><path class="cls-17" d="M66.27,52.55c1.74,6.28,3.07,10.51,7.6,12.53,9,4,13-.25,13.36-6.88.29-6-2.61-15.23-9.84-16.58S64.53,46.27,66.27,52.55Z"/><polygon class="cls-17" points="65.68 231.97 55.54 232.08 55.1 244.65 63.56 244.58 65.68 231.97"/><path class="cls-13" d="M54.29,183.91c-.86-16.13-.52-45.57,4.89-53l31.69-.74s-10.1,40.45-12.68,55.51c-2.69,15.66-13.81,54-13.81,54l-9.1-.28S50,202.32,54.29,183.91Z"/><polygon class="cls-17" points="105.83 231.97 95.72 232.08 98.02 244.65 106.47 244.58 105.83 231.97"/><path class="cls-13" d="M97.73,248.54h2.15l.38-.94,1.34,1H114a7.92,7.92,0,0,0-1.26-3.2,9.66,9.66,0,0,1-5.31-2.47.59.59,0,0,0-.53-.21c-1.23.3-6.14,1.34-9.2.25a.38.38,0,0,0-.54.45A36.23,36.23,0,0,1,97.73,248.54Z"/><path class="cls-13" d="M83.5,183.91c-4.46-16.13-11-45.57-7.28-53l32.21-.74s-1.42,40.45-.64,55.51c.82,15.66-1.57,54-1.57,54l-9,.37S83.28,202.32,83.5,183.91Z"/><path class="cls-19" d="M75.35,134.13c-7.84,1-14.51,2-18.62,2.73-3,11.64-3.14,33.82-2.44,47-.13.57-.26,1.16-.37,1.76,7.58,3,15.76,1.78,24.32-.27.56-3.21,1.44-7.5,2.48-12.28C77.38,159.25,74.21,142.33,75.35,134.13Z"/><path class="cls-19" d="M107.92,148c-1.84-9-3.86-16-3.86-16-4.54.06-9.21.3-13.8.64-1.66,6.72-6.36,25.88-9.54,40.49.94,3.93,1.9,7.62,2.78,10.79v.16c7.82-2,15.91-4.2,24.11-4.14C107.46,171,107.67,158.27,107.92,148Z"/><path class="cls-10" d="M88.33,69.32a140.86,140.86,0,0,0-21.42.17A14.14,14.14,0,0,0,54.26,86c3.57,21.17,1.26,36.81,3.41,45,0,0,32.85.58,52-.74,1.37-22.37-3.55-27-9.25-50.61A14.34,14.34,0,0,0,88.33,69.32Z"/><path class="cls-13" d="M109.67,130.18s6.35,33.62,1.54,48.39C89.66,175.05,67.1,189,50.71,176.4c.61-17.88,3.93-40,7-45.48C57.67,130.92,85.69,128.21,109.67,130.18Z"/><g class="cls-20"><path class="cls-11" d="M57.82,199.35l-3.81.36c10.15-26.73-.69-48.92,8.49-70.54l3.24-.26C56.73,150.5,67.75,172.66,57.82,199.35Z"/><path class="cls-11" d="M70,198.2l-3.79.35c9.43-26.6-2-48.69,6.65-70.22l3.23-.26C67.68,149.57,79.24,171.63,70,198.2Z"/><path class="cls-11" d="M82.18,197.05l-3.78.36c8.73-26.48-3.2-48.47,4.84-69.91l3.21-.26C78.59,148.65,90.69,170.61,82.18,197.05Z"/><path class="cls-11" d="M94.27,195.91l-3.76.36c8-26.36-4.44-48.25,3-69.6l3.2-.25C89.44,147.73,102.08,169.6,94.27,195.91Z"/><path class="cls-11" d="M106.3,194.78l-3.74.35c7.34-26.23-5.67-48,1.24-69.28l3.19-.26C100.25,146.82,113.42,168.59,106.3,194.78Z"/><path class="cls-11" d="M52.1,140.69c.21-1.17.47-2.33.76-3.48l59.61-4.88c-.13,1.13-.21,2.26-.25,3.4Z"/><path class="cls-11" d="M51,152.15c0-1.21.09-2.41.17-3.62l61.25-5.14c.1,1.17.21,2.35.35,3.53Z"/><path class="cls-11" d="M51,164.18c0-1.28,0-2.55,0-3.81l63-5.44c.19,1.23.39,2.47.58,3.71Z"/><path class="cls-11" d="M50.7,176.92c.09-1.37.15-2.72.19-4.06l64.74-5.75c.15,1.31.29,2.62.39,3.95Z"/><path class="cls-11" d="M48.78,190.57c.34-1.47.63-2.92.87-4.36l66.66-6.1c0,1.4-.11,2.82-.24,4.25Z"/></g><path class="cls-16" d="M101.51,77.63l0,0h0l0,0,.14.13.32.3.73.64c.51.42,1,.87,1.58,1.27a29.73,29.73,0,0,0,3.42,2.26A28.27,28.27,0,0,0,111.37,84a25.25,25.25,0,0,0,3.87,1.11l-3.18.48c1.27-.36,2.65-.83,4-1.32s2.86-1,4.31-1.6l4.44-1.69c1.49-.55,3-1.14,4.54-1.61l.17-.06a4,4,0,0,1,4.21,6.39,48.93,48.93,0,0,1-3.6,3.72c-1.25,1.17-2.55,2.28-3.89,3.36s-2.75,2.11-4.23,3.09a44.55,44.55,0,0,1-4.79,2.76,4.86,4.86,0,0,1-2.22.5l-1,0a32.62,32.62,0,0,1-6.81-.84c-1.11-.27-2.21-.58-3.3-.94s-2.13-.81-3.16-1.28A35.09,35.09,0,0,1,95,92.6a33.08,33.08,0,0,1-2.65-2.14c-.42-.38-.85-.78-1.26-1.2l-.64-.67-.33-.36-.43-.51a7.77,7.77,0,0,1,11.83-10.09Z"/><path class="cls-17" d="M128.68,81.53l2.73,3.57c4,2.5,6.31-3.21,6.31-3.21L141,78.63a2.37,2.37,0,0,0,0-3.08L139.12,73a2.48,2.48,0,0,0-3.38-.74l-3.29,2.63a4.87,4.87,0,0,0-1.52,1.85Z"/><path class="cls-10" d="M88.65,69.65c7.19.56,16.52,10.19,16.52,10.19.62,2.86.16,13.62-4.81,17.45,0,0-8.54-.42-12.2-6.3C84.17,84.58,81,69.05,88.65,69.65Z"/><path class="cls-13" d="M85,43.18C87,39,81.4,33.31,77.06,37.24S69.57,40.39,66,40.7c-4.82.4-2.58,5.1-2.58,5.1s-7.86-1.49-4.66,6.64c3.83,9.69-4.83,15.49-.83,24.64S73.22,88,80.59,87c0,0-2.22-5.62,2.16-9.89,8.87-8.62-2.93-15.89-2-23.65C84.39,54.1,82.36,48.38,85,43.18Z"/><path class="cls-13" d="M80.77,53.43l-2.14,1.15c-.24,3.28,4,7.7,6.25,10.58S87.81,71,87.2,76.27C91.65,63.6,81.31,61.23,80.77,53.43Z"/><path class="cls-17" d="M78.56,54.44A6,6,0,0,0,82,57.51c2,.69,3.15-1.08,2.71-3-.4-1.76-1.92-4.23-4-4.07A2.73,2.73,0,0,0,78.56,54.44Z"/><path class="cls-13" d="M54,248.54h2.15l.58-.94,1.13,1h13a6.59,6.59,0,0,0-.55-3.2s-3.88-.38-5.38-2.47a.47.47,0,0,0-.48-.21c-1.29.3-6.43,1.34-9.25.25a.47.47,0,0,0-.64.45A36,36,0,0,1,54,248.54Z"/></g></g></g></svg>