<svg xmlns="http://www.w3.org/2000/svg" viewBox="0 0 43.73 30.48"><defs><style>.cls-1{fill:#46c7ce;}</style></defs><g id="Layer_2" data-name="Layer 2"><g id="Option_1" data-name="Option 1"><path class="cls-1" d="M10.34,12.6h0a5.73,5.73,0,1,0,5.73,5.72A5.73,5.73,0,0,0,10.34,12.6Zm0,9.82a4.09,4.09,0,1,1,4.09-4.09A4.09,4.09,0,0,1,10.34,22.42Z"/><path class="cls-1" d="M43.6,16.62c-.22-1-1.36-1.84-3.4-2.46a24,24,0,0,0-6.31-.89h-.23V13l-.23-9.85C33.1,2.25,32,1.49,30.06.91A25.92,25.92,0,0,0,22.85,0a25.17,25.17,0,0,0-7.13.91c-1.54.48-3.39,1.36-3.39,2.84a1.07,1.07,0,0,0,0,.25V4l.1,4.17-.29,0A10.12,10.12,0,0,0,10.34,8a10.35,10.35,0,1,0,6.48,18.4l.09-.07.12,0a25.94,25.94,0,0,0,5.47.6h.19l0,.19c.23,1,1.45,1.89,3.52,2.5a25.72,25.72,0,0,0,6.94.85,25.53,25.53,0,0,0,7.14-.92c1.55-.47,3.39-1.35,3.39-2.84ZM14,3.37a5.57,5.57,0,0,1,2.14-1.05h0a23.92,23.92,0,0,1,6.71-.85,24.83,24.83,0,0,1,6.78.85,6.59,6.59,0,0,1,2,.92.77.77,0,0,1,.29.63.75.75,0,0,1-.18.31,5.91,5.91,0,0,1-2.14,1A25,25,0,0,1,22.84,6a24.26,24.26,0,0,1-6.49-.79A5.39,5.39,0,0,1,14,4.12.57.57,0,0,1,14,3.37ZM32.18,5.69V8.58L31.75,9h0a6.06,6.06,0,0,1-2.11,1,24.31,24.31,0,0,1-6.78.86,25.52,25.52,0,0,1-6-.66h-.08l-.06,0a9.78,9.78,0,0,0-2.62-1.5L14,8.62l-.07-2.8.35.18A9.42,9.42,0,0,0,16,6.64a25.59,25.59,0,0,0,6.91.85,25.69,25.69,0,0,0,7.19-.92,7.83,7.83,0,0,0,1.78-.7ZM16.31,24.89h0a8.82,8.82,0,0,1-6,2.32H9.92a8.87,8.87,0,0,1,.42-17.74A9,9,0,0,1,13,9.85a8.69,8.69,0,0,1,3.16,1.75A8.9,8.9,0,0,1,19,16.54a9.21,9.21,0,0,1,.18,1.79A8.8,8.8,0,0,1,16.31,24.89Zm6.1.59a26.73,26.73,0,0,1-3.83-.33l-.4-.07.25-.32A10.27,10.27,0,0,0,20,22.12L20,22h.17c.78.07,1.48.1,2.17.11h.25v.26a.45.45,0,0,0,0,.16v0l0,3Zm-1.77-8.07v-.27l.27,0,1.4.05h.19l0,.18,0,.09h0v.05l0,3.06h-.24c-.57,0-1.12,0-1.64-.07h-.27l.05-.27a10.48,10.48,0,0,0,.18-1.92C20.68,18.05,20.67,17.76,20.64,17.41Zm2.41-1.74-.07.08h-.14c-.79,0-1.58,0-2.35-.09h-.16l0-.16a10.4,10.4,0,0,0-1.4-3l-.29-.43.52.06a31.51,31.51,0,0,0,3.73.23,25.77,25.77,0,0,0,7.2-.92,9,9,0,0,0,1.78-.72l.36-.18v2.71h-.24a24.26,24.26,0,0,0-5.75.79A7,7,0,0,0,23.05,15.67Zm1,1.46s0-.08,0-.14l0-.11.06-.09c.16-.22.71-.78,2.57-1.29a24.12,24.12,0,0,1,6.34-.75H33a24.31,24.31,0,0,1,6.77.84c1.92.58,2.31,1.15,2.39,1.31l0,.1,0,.1c-.05.12-.42.75-2.46,1.35a24.27,24.27,0,0,1-6.7.83,25.16,25.16,0,0,1-6.31-.73,4.94,4.94,0,0,1-2.63-1.29l0-.06Zm18.22,9.63v0c0,.12-.33.74-2.34,1.37a23.65,23.65,0,0,1-6.72.86,24.09,24.09,0,0,1-6.69-.83c-1.71-.53-2.33-1.15-2.33-1.43l0-2.75.35.16a10.91,10.91,0,0,0,2,.71,26.59,26.59,0,0,0,6.52.74,25.6,25.6,0,0,0,7.16-.91A8.07,8.07,0,0,0,41.9,24l.36-.21Zm0-5.13a.6.6,0,0,0-.06.22l0,.07c0,.13-.34.74-2.37,1.37a24.65,24.65,0,0,1-6.76.84,24.46,24.46,0,0,1-5.92-.64,6.87,6.87,0,0,1-2.92-1.27l-.06-.07v-.09l0-3,.35.17A21.21,21.21,0,0,0,33,20.75a26.06,26.06,0,0,0,7.1-.89,10.16,10.16,0,0,0,1.81-.71l.35-.18v2.41A1.31,1.31,0,0,1,42.21,21.63Z"/></g></g></svg>