<svg xmlns="http://www.w3.org/2000/svg" xmlns:xlink="http://www.w3.org/1999/xlink" viewBox="0 0 211.67 165.22"><defs><style>.cls-1{fill:#ffd371;}.cls-2{isolation:isolate;}.cls-3{fill:#46c7ce;opacity:0.25;}.cls-4{fill:#fa5;}.cls-18,.cls-5{fill:#fff;}.cls-6{fill:#363638;}.cls-7{fill:#b77969;}.cls-8{opacity:0.5;mix-blend-mode:multiply;}.cls-9{fill:#a5b547;}.cls-10{fill:#9e5f52;}.cls-11{clip-path:url(#clip-path);}.cls-12{fill:#f5a07e;}.cls-13{fill:#e27860;}.cls-14{fill:#b8d0cd;}.cls-15{fill:#dcdcdc;}.cls-16{fill:#a9a9a9;}.cls-17{fill:#4ec0c4;}.cls-18{opacity:0.2;}.cls-19{fill:#2a9e9e;}.cls-20{fill:none;stroke:#422e2d;stroke-miterlimit:10;}.cls-21{fill:#422e2d;}.cls-22{fill:#ec7738;}</style><clipPath id="clip-path"><path class="cls-1" d="M102.33,119.61c-.57,2.93-.43,6.85-.54,9.88a54.63,54.63,0,0,0,.27,9,88.07,88.07,0,0,1-13.69.5c-2,0-4-.05-6-.2-3.18-.23-6.32-.78-9.49-1.18-3-.37-6-.6-9-.7a175,175,0,0,0-1-22.54C62,107,60.36,99.4,60.39,92c0-2.43-.22-6.63,2.59-7.72,2.5-1,5-1.86,7.58-2.73a37.79,37.79,0,0,1,7.25-1.84,32.19,32.19,0,0,1,10.72.5A66.28,66.28,0,0,1,98,83c1.13.42,2.67.7,3.57,1.48,1,.9,1.64,2.73,2.16,4a41.67,41.67,0,0,1,3.2,13.08,23.52,23.52,0,0,1-.18,6.49c-.72,3.39-2.58,6.37-3.81,9.57A12.46,12.46,0,0,0,102.33,119.61Z"/></clipPath></defs><g class="cls-2"><g id="Layer_2" data-name="Layer 2"><g id="Option_1" data-name="Option 1"><path class="cls-3" d="M25.61,68.62c-4.44,6.31-7.86,14.89-5.48,22.81s9.93,12.76,13.24,20.26c1.87,4.24,1.92,8.9,2,13.45.1,6-1.07,12.28,3,17.32,2.38,3,6,4.73,9.61,5.89,7.29,2.32,14.94,3.41,21.42,7.79,10.65,7.2,23.72,9.72,36.41,8.94a82.15,82.15,0,0,0,19-3.48c7.16-2.19,13.53-6.06,20.74-8.13,12.5-3.59,29.59-3.64,36.9-16.29,4.92-8.51,6.63-19,2.8-28.31-1.82-4.41-5.3-7.78-7.28-12.11a27.77,27.77,0,0,1-1.64-19.15c.07-.26.15-.53.23-.78,1.91-6,5.76-11,7.35-17.1,3.28-12.49-4-25.69-13.51-33.72a40.3,40.3,0,0,0-13.21-7.69c-13.29-4.37-28.06.69-41.4-3.54C105.49,11.55,97.09,3.13,86.67.69a29.28,29.28,0,0,0-23.48,5,37.91,37.91,0,0,0-14,21c-2.09,7.81-2,16.38-5.72,23.48-3.17,6.06-9,9.34-13.79,13.74A29.66,29.66,0,0,0,25.61,68.62Z"/><path class="cls-4" d="M207.9,145H3.77A3.69,3.69,0,0,1,0,141.4H0a3.69,3.69,0,0,1,3.77-3.59H207.9a3.69,3.69,0,0,1,3.77,3.59h0A3.69,3.69,0,0,1,207.9,145Z"/><path class="cls-4" d="M152.26,52.16H141.55a8.3,8.3,0,0,0-8.27,8.28h0a8.27,8.27,0,0,0,3.58,6.81v5.83l6-4.36h9.44a8.3,8.3,0,0,0,8.28-8.28h0A8.3,8.3,0,0,0,152.26,52.16Z"/><circle class="cls-5" cx="140.91" cy="60.44" r="1.26"/><circle class="cls-5" cx="146.91" cy="60.44" r="1.26"/><circle class="cls-5" cx="152.91" cy="60.44" r="1.26"/><path class="cls-6" d="M51.3,109c5.36,1.89,11.83,1.7,16.7-1.43s9.17-5.3,15.07-5.19c5.27.1,9.63,3,14.73,3.55a14,14,0,0,0,11.1-4.11c2.86-2.76,4.77-7,3.52-10.76-.65-2-2.08-3.61-2.89-5.53-1.88-4.43,3.06-7.1,1.84-11.75-1.05-4-5.4-6.79-5.33-10.89,0-3,2.37-5.32,3.18-8.1a11,11,0,0,0-.81-8.49A10.08,10.08,0,0,0,103.64,42c-1.79-.76-3.79-.78-5.17-2.34-2.46-2.78-3.37-5.8-6.75-7.84C88.86,30.1,85.08,30,81.8,30.29A25.18,25.18,0,0,0,63.32,40.94a12.7,12.7,0,0,0-2.54,7c0,2.82,0,5.66-1.77,8.06-1.46,2-3.79,3.2-6.1,4.11a30.85,30.85,0,0,0-6.76,3.08c-2,1.43-3.64,3.77-3.41,6.24.2,2.07,1.63,3.87,1.82,5.94.35,3.76-3.28,6.5-5.51,9.54a14.84,14.84,0,0,0-1.29,15c2.71,5.46,7.64,6.69,12.8,8.74Z"/><path d="M64.47,84c-.19,4.62.88,8.1,5.11,10.39a24.92,24.92,0,0,0,11.13,2.51C86.94,97,93.89,95.39,98.56,91a4.59,4.59,0,0,0,1.72-2.93c0-1-.53-2-.58-3.1-.08-1.78,1.3-3.25,1.92-4.92.81-2.21.26-4.67-.47-6.9s-1.66-4.49-1.55-6.84c.15-3,2-5.71,3.44-8.39s2.62-5.93,1.37-8.71a6.21,6.21,0,0,0-4.8-3.46c-2.13-.24-4,2.19-5.4,3.53A33.06,33.06,0,0,1,88.14,54c-3,1.84-6.37,3.2-9.23,5.31a13,13,0,0,0-4.4,5.07c-.93,2.29.69,4.51-1.27,6.62C72,72.37,70,72.84,68.48,73.89,65.19,76.14,64.62,80.29,64.47,84Z"/><path class="cls-7" d="M76.39,89.56c2.81,3.19,8.19,3.44,12,2.14A6.11,6.11,0,0,0,92.78,86c.06-3.11-2.66-5.32-3.35-8.22a19.49,19.49,0,0,1-.32-5c0-2,.07-3.91.16-5.86a20.85,20.85,0,0,0-5.55-.53c-1.69.07-3.39-.1-5.08,0a.54.54,0,0,0-.38.11.52.52,0,0,0-.13.37c-.23,2.63,0,5.3-.18,7.93a13.36,13.36,0,0,1-2.13,6.88A6.42,6.42,0,0,0,76.39,89.56Z"/><path class="cls-7" d="M121.06,125.47c.75-.25,1.5-.5,2.23-.76,4-1.41,8.16-2.57,12.2-4,2.7-1,5.39-1.94,8.09-2.89,2.3-.81,4.67-2.18,7.11-2.42a2.4,2.4,0,0,1,1.71.32,2.82,2.82,0,0,1,.76,2.29,4.3,4.3,0,0,1-.71,3,4.15,4.15,0,0,1-.92.7c-3.36,2.11-6.67,4.37-10.1,6.39-4,2.39-8.16,4.64-12.4,6.66-2.37,1.12-4.8,2.13-7.2,3.22s-5.1,2.44-7.88,2.44a5.37,5.37,0,0,1-5.25-3.62,6.24,6.24,0,0,1,.9-5.76,9.63,9.63,0,0,1,2.76-2.09A56.91,56.91,0,0,1,121.06,125.47Z"/><path class="cls-1" d="M104.25,125.4c-1.73-5.19-3.1-8-5.06-12.58-3-7-6.42-14.57-5.13-22.37.62-3.73,3.82-6.85,7.79-6.16a8.77,8.77,0,0,1,5.78,3.92,32.07,32.07,0,0,1,3.23,7.4,136.76,136.76,0,0,1,4,13.61c1.1,4.6,1.69,9.34,3.19,13.84a15.82,15.82,0,0,1,.87,3.16c-2.38,1.89-7.69,5.82-10.2,11.12A108.14,108.14,0,0,1,104.25,125.4Z"/><g class="cls-8"><path class="cls-9" d="M105.69,113.9c-.19,4.54-.51,9.12-.7,13.66-.56-1.72-1.42-4.11-1.88-5.39-.91-2.56-2.33-5.45-3-8.09a72.33,72.33,0,0,1-1.62-9.82,17.54,17.54,0,0,1-.09-3.69,26.48,26.48,0,0,1,1.23-4.07c.35-1.08.72-2.14,1.11-3.2.32-.86,1.79-1.93,1.32-3a59.63,59.63,0,0,1,3.36,9.11,29.56,29.56,0,0,1,.5,8.8Z"/></g><path class="cls-1" d="M49.33,101.28c-2.07,4.39-4,8.86-5.65,13.42a89.3,89.3,0,0,0-3.25,9.54c-.67,2.74-1.44,6.35.37,8.81a6.28,6.28,0,0,0,7.25,1.88,9.32,9.32,0,0,0,4.53-4.67c1.31-2.57,2.61-5.15,4-7.69,2.86-5.27,6-10.37,8.92-15.62,2.56-4.64,4.78-9.86,4.7-15.26-.06-3.79-2.76-7.34-6.79-7.25a8.77,8.77,0,0,0-6.3,3,32.51,32.51,0,0,0-4.29,6.84Q51,97.74,49.33,101.28Z"/><g class="cls-8"><path class="cls-9" d="M56.82,114.26c-.75,4-1.46,7.94-2.28,11.89l-.09.46c.79-1.63,2.12-4,2.76-5.22,1.28-2.4,3.73-6.62,5.17-9a21.56,21.56,0,0,0,2.83-7c.46-2.06-.18-3.13-.57-5.18A21.84,21.84,0,0,0,63,95.86c-.3-.69-.51-1.59-.8-2.27a8.46,8.46,0,0,1-.47-2.89,24.8,24.8,0,0,0-1,4.09C59.66,101.32,58.05,107.75,56.82,114.26Z"/></g><path class="cls-10" d="M89.31,77.4a21.19,21.19,0,0,1-.23-4.64c0-2,.06-3.9.15-5.85a20.77,20.77,0,0,0-5.54-.53c-1.7.07-3.39-.1-5.09,0a.62.62,0,0,0-.38.12.57.57,0,0,0-.13.36c-.22,2.64,0,5.3-.18,7.94a19.11,19.11,0,0,1-.28,2.26,10.15,10.15,0,0,0,.81.66,8.66,8.66,0,0,0,7.42,1.35A11,11,0,0,0,89.31,77.4Z"/><path class="cls-1" d="M102.33,119.61c-.57,2.93-.43,6.85-.54,9.88a54.63,54.63,0,0,0,.27,9,88.07,88.07,0,0,1-13.69.5c-2,0-4-.05-6-.2-3.18-.23-6.32-.78-9.49-1.18-3-.37-6-.6-9-.7a175,175,0,0,0-1-22.54C62,107,60.36,99.4,60.39,92c0-2.43-.22-6.63,2.59-7.72,2.5-1,5-1.86,7.58-2.73a37.79,37.79,0,0,1,7.25-1.84,32.19,32.19,0,0,1,10.72.5A66.28,66.28,0,0,1,98,83c1.13.42,2.67.7,3.57,1.48,1,.9,1.64,2.73,2.16,4a41.67,41.67,0,0,1,3.2,13.08,23.52,23.52,0,0,1-.18,6.49c-.72,3.39-2.58,6.37-3.81,9.57A12.46,12.46,0,0,0,102.33,119.61Z"/><g class="cls-11"><path class="cls-7" d="M87.74,67.82a20.59,20.59,0,0,0-3.6-.17A15,15,0,0,0,75,70.82c-2.07,1.69-4.25,4.19-4.29,7.85,0,2.21,1,4.17,1.86,6.18,3.11,6.85,8,12.22,13.8,11.61,7.42-.78,12-11.36,9.15-21.31A11.64,11.64,0,0,0,93,70.28,9,9,0,0,0,87.74,67.82Z"/></g><path class="cls-12" d="M166,115.22a15.85,15.85,0,0,1,3.4,1.75c.74.48,1.65,1.17,1.53,2.17a.43.43,0,0,1-.32.39.93.93,0,0,1-.23,0c-1.41-.34-2.62-1.44-4.07-1.43a4.67,4.67,0,0,1,1.47.64c.51.25,1,.53,1.49.82a5.81,5.81,0,0,1,2.12,1.85.94.94,0,0,1,.11.75,1,1,0,0,1-1,.59,3,3,0,0,1-1.14-.35l-.86-.4a4.08,4.08,0,0,1,1.52,1.27,1,1,0,0,1-.31,1.37c-.43.2-.84,0-1.25-.17-.62-.19-1.22-.52-1.86-.66.39.09.6.7.66,1.09a1.35,1.35,0,0,1-.4,1.09.89.89,0,0,1-.42.24,1.32,1.32,0,0,1-.61-.11L162,124.71c-2-.72-3.89-1.61-5.95-2.16a13.66,13.66,0,0,0-2.26-.51c-1.26-.13-2.76-.67-4-.34-1.06.27-3.46.86-4.49.49-1.45-.53-1.18-.71-1-2,.18-1.62,3.18-2.52,4.53-3.22.89-.47,1.34-1.77,2.09-2.43a13.32,13.32,0,0,1,2.29-1.61,7.37,7.37,0,0,1,2-.68,15.2,15.2,0,0,1,1.78-.12,12.76,12.76,0,0,0,3.39-1.13c.79-.31,1.67-.68,2.42-.06a1.6,1.6,0,0,1,.54,1.45c-.1.64-.47.68-1,.89-.38.16-1.22.7-1.61.66A22.56,22.56,0,0,1,166,115.22Z"/><path class="cls-13" d="M162.38,116.79a11.35,11.35,0,0,1,1.15.16,8.77,8.77,0,0,1,1.12.29,10.17,10.17,0,0,1,1.09.41c.18.07.36.16.53.24l.51.28-.54-.22-.54-.2c-.36-.14-.72-.26-1.09-.38s-.73-.22-1.11-.31S162.76,116.88,162.38,116.79Z"/><path class="cls-13" d="M162.25,118.9a11.6,11.6,0,0,1,1.82.56,16,16,0,0,1,1.72.83c.55.31,1.09.64,1.62,1l.79.54c.26.18.52.36.77.55l-1.62-1c-.54-.33-1.08-.66-1.63-1s-1.12-.59-1.69-.85A15.81,15.81,0,0,0,162.25,118.9Z"/><path class="cls-13" d="M161.55,121.4l.37.06.36.08.35.1.35.11a10.25,10.25,0,0,1,1.35.6,14.6,14.6,0,0,1,1.27.75l.61.41.6.44-.64-.38-.63-.38c-.42-.24-.84-.49-1.27-.72s-.87-.43-1.32-.61A10,10,0,0,0,161.55,121.4Z"/><path class="cls-7" d="M55.86,126.71l2.28.47c4.14.81,8.22,1.89,12.36,2.71,2.77.55,5.55,1,8.33,1.59,2.35.46,5.06.47,7.24,1.5a2.34,2.34,0,0,1,1.29,1.14,2.79,2.79,0,0,1-.53,2.34,4.27,4.27,0,0,1-2.14,2.24,4,4,0,0,1-1.14.14c-3.92.12-7.88.4-11.8.41-4.64,0-9.28-.12-13.9-.52-2.58-.22-5.15-.59-7.74-.86s-5.57-.46-7.91-1.86a5.31,5.31,0,0,1-2.6-5.76,6.29,6.29,0,0,1,3.7-4.5,9.54,9.54,0,0,1,3.4-.41A55.07,55.07,0,0,1,55.86,126.71Z"/><path class="cls-5" d="M102.56,56.92c3.66,3.76.34,12.94-5.48,11.61-6.26-1.42-5.32-11.18.34-12.78A5,5,0,0,1,102.56,56.92Z"/><path class="cls-7" d="M73.76,56.71a25.33,25.33,0,0,1,1.11-7.54c3.06-9.37,14.74-11.68,21.78-5,7.85,7.5,4.85,25.43-3.42,31.73a9.26,9.26,0,0,1-7.9,1.56C77.21,75.32,73.71,65.33,73.76,56.71Z"/><path class="cls-12" d="M75.3,57c-3.6-2-4.71,3-4.09,5.49a7.9,7.9,0,0,0,1.3,2.86c.85,1.13,3.3,3,4.71,1.77a3.14,3.14,0,0,0,.72-2.37C78,62.42,77.73,58.28,75.3,57Z"/><path class="cls-10" d="M73.74,49.56c3.22-9.87,15.53-12.3,22.94-5.22a14.54,14.54,0,0,1,3.6,5.81,7.24,7.24,0,0,1-.57.77,11.1,11.1,0,0,1-3.83,2.59,55.15,55.15,0,0,1-13,3.87l-1,.18a11.25,11.25,0,0,0-3.52,1.18c-3,1.79-1.73,5.73-4,7.45a2,2,0,0,1-.6.33,33.18,33.18,0,0,1-1.19-9A26.85,26.85,0,0,1,73.74,49.56Z"/><path class="cls-6" d="M81.53,56.44a11.11,11.11,0,0,0-3.29,1.72c-2.71,2.25-.79,5.93-2.71,8-1.7,1.82-4.29-.59-5-2.27-1.25-3.1-1.18-6.55-1.09-9.9a20.94,20.94,0,0,1,.66-5.53,13.47,13.47,0,0,1,3.14-5.17A20.11,20.11,0,0,1,89.12,37.1c4.56.29,12.56,4.12,9,9.93a11,11,0,0,1-3.36,3.17,55.19,55.19,0,0,1-12.26,5.9Z"/><path class="cls-14" d="M70.79,56.2,73.31,56c-.73-7,1.31-16.17,7.3-19.5,2.24-1.25,12.17-3.28,15.88.66a13.23,13.23,0,0,1,.85,1c-2.07-6.93-13.3-6.06-18.47-3.73C71,38.05,70.05,48.75,70.79,56.2Z"/><path class="cls-5" d="M73.79,55.53c5.07,1.3,7,10.86,1.37,12.77-6.08,2-10.37-6.77-6.37-11.09A5,5,0,0,1,73.79,55.53Z"/><path class="cls-14" d="M72.12,56.76c3.51.56,5.66,8,2,10.05-3.88,2.2-7.52-4.43-5.23-8.24A3.11,3.11,0,0,1,72.12,56.76Z"/><rect class="cls-15" x="96.55" y="132.7" width="28.38" height="5.56" transform="translate(221.47 270.95) rotate(-180)"/><path class="cls-15" d="M120.06,133.23l7.16-36.46a2.06,2.06,0,0,1,2-1.66h47.61a2,2,0,0,1,1.65.85h0l2.2,2.6-1.95-.42L171.7,134a2.06,2.06,0,0,1-2,1.65H122.07A2.05,2.05,0,0,1,120.06,133.23Z"/><path class="cls-16" d="M171.86,138.25H124.25a2.05,2.05,0,0,1-2-2.45l7.16-36.46a2.07,2.07,0,0,1,2-1.66H179a2.06,2.06,0,0,1,2,2.45l-7.17,36.46A2,2,0,0,1,171.86,138.25Z"/><path class="cls-5" d="M156.88,117.06a5.57,5.57,0,0,1-5.25,4.46,3.57,3.57,0,0,1-3.59-4.46,5.61,5.61,0,0,1,5.25-4.45A3.6,3.6,0,0,1,156.88,117.06Z"/><path class="cls-7" d="M79.33,137.9c1.39.29,2.48,1.51,3.86,1.92a4.79,4.79,0,0,0,3-.22c.87-.33,1.76-.51,2.66-.79a5.16,5.16,0,0,1,2.39-.54c2,.41,3.92,1.81,5.7,2.71a2,2,0,0,0,1.28.33c.44-.08.81-.61.56-1,.51.48,1.19,1.44,2,1.07a.69.69,0,0,0,.35-.92,3,3,0,0,0,1,.79,1,1,0,0,0,1.14-.27,1.21,1.21,0,0,0,.15-.57,4.25,4.25,0,0,0-.46-2c-1.4-3.06-4.57-5.34-7.27-7.16a6,6,0,0,0-1.52-.82,5.57,5.57,0,0,0-1.53-.17,30.64,30.64,0,0,0-9.87,1.6,4.24,4.24,0,0,1-2.12-.1,3.35,3.35,0,0,0-1.54,0,2.65,2.65,0,0,0-1.32,1.07,5,5,0,0,0-1,3.08c.06.82.12,1.7,1.09,1.88.39.07.79,0,1.19.06Z"/><path class="cls-5" d="M20.22,116.48a4.29,4.29,0,0,1-.1-3.26,12.7,12.7,0,0,1,1.5-3,13.5,13.5,0,0,0,1.64-3.34,7.15,7.15,0,0,0-.08-4c-.78-2.52-2.38-4.38-3.48-6.27a9,9,0,0,1-1.19-3,5.26,5.26,0,0,1,.39-3.29,4.75,4.75,0,0,0-1.41,3.34,8.4,8.4,0,0,0,.75,3.68c1,2.29,2.39,4.15,3,6.15a5.35,5.35,0,0,1,.17,2.93,15.85,15.85,0,0,1-1.17,3.06A10.89,10.89,0,0,0,19.12,113,4.13,4.13,0,0,0,20.22,116.48Z"/><path class="cls-17" d="M19,117.87h1.53a6.31,6.31,0,0,1,6.31,6.31v14a0,0,0,0,1,0,0H12.66a0,0,0,0,1,0,0v-14A6.31,6.31,0,0,1,19,117.87Z" transform="translate(39.46 256) rotate(-180)"/><path class="cls-17" d="M5.52,128.68a6.15,6.15,0,1,0,6.15-6.23A6.19,6.19,0,0,0,5.52,128.68Zm2.19,0a4,4,0,1,1,4,4A4,4,0,0,1,7.71,128.68Z"/><path class="cls-18" d="M24.69,130.44h0a.76.76,0,0,0,.76-.76v-9.87a.76.76,0,0,0-.76-.76h0a.77.77,0,0,0-.77.76v9.87A.77.77,0,0,0,24.69,130.44Z"/><path class="cls-19" d="M15.92,117.87v16.68a3.58,3.58,0,0,0,3.59,3.58H16.24a3.58,3.58,0,0,1-3.58-3.58V117.87Z"/><path class="cls-20" d="M93.81,55.13A4.08,4.08,0,0,1,98,56.29"/><path class="cls-20" d="M82.32,55.78A4.07,4.07,0,0,1,86.61,55"/><path class="cls-5" d="M92.67,69.92a67.13,67.13,0,0,1-9.83-1.69s2.36,4.18,6.85,4.57C90.72,72.89,92.67,69.92,92.67,69.92Z"/><ellipse class="cls-21" cx="84.23" cy="60.17" rx="2.19" ry="1.21" transform="translate(10.66 133) rotate(-80.25)"/><ellipse class="cls-21" cx="95.15" cy="60.68" rx="2.19" ry="1.21" transform="translate(19.24 144.18) rotate(-80.25)"/><path class="cls-21" d="M89.69,59.71A6.9,6.9,0,0,0,90,62.39a7.46,7.46,0,0,0,.62,1.38,7.42,7.42,0,0,1,.62,1.16,1.59,1.59,0,0,1-.52,1.74c-.4.36-.76.46-.73.55s.42.11,1-.22a2.21,2.21,0,0,0,.8-.83,1.91,1.91,0,0,0,.14-1.46,6.65,6.65,0,0,0-.6-1.35,7.46,7.46,0,0,1-.49-1.26,6.59,6.59,0,0,1-.24-2.38c.12-1.33.29-2,.06-2.11S89.84,58.14,89.69,59.71Z"/><rect class="cls-4" x="11.65" y="27.58" width="25.74" height="17.78" transform="translate(-0.05 0.04) rotate(-0.08)"/><polygon class="cls-22" points="11.63 27.6 11.64 28.74 24.52 40.13 37.38 28.7 37.38 27.56 24.52 39.03 11.63 27.6"/><polygon class="cls-22" points="27 36.78 36.66 45.34 37.4 45.34 37.4 44.89 27.55 36.15 27 36.78"/><polygon class="cls-22" points="11.66 44.99 11.66 45.38 12.47 45.38 22.11 36.78 21.55 36.16 11.66 44.99"/><polygon class="cls-4" points="37.38 27.56 24.52 39.03 11.63 27.6 37.38 27.56"/><circle class="cls-22" cx="36.16" cy="28.47" r="5.59"/><path class="cls-5" d="M35,31.12h0a.49.49,0,0,1-.38-.16l-1.37-1.37a.52.52,0,0,1,0-.76.54.54,0,0,1,.76,0l1,1L38.86,26a.54.54,0,1,1,.77.77L35.4,31A.51.51,0,0,1,35,31.12Z"/></g></g></g></svg>