<svg xmlns="http://www.w3.org/2000/svg" viewBox="0 0 336.98 274.03"><defs><style>.cls-1{isolation:isolate;}.cls-18,.cls-2{fill:#ffd371;}.cls-2{opacity:0.3;}.cls-3{fill:#eaeaea;mix-blend-mode:multiply;}.cls-4{fill:#fa5;}.cls-5{fill:#fff;}.cls-6{fill:#dcdcdc;}.cls-7{fill:#363638;}.cls-8{fill:#f7b897;}.cls-9{fill:#a05f4e;}.cls-10{fill:#cb6c53;}.cls-11{fill:#b2bebe;}.cls-12{fill:#504647;}.cls-13{fill:#352f31;}.cls-14{fill:#ef846f;}.cls-15{fill:#d7634e;}.cls-16{fill:#9f8a80;}.cls-17{fill:#75c189;}</style></defs><g class="cls-1"><g id="Layer_2" data-name="Layer 2"><g id="Option_1" data-name="Option 1"><path class="cls-2" d="M151.89,19.19C246.41,7.93,291.26,33.43,291.26,33.43S356.84,58,330.92,145.71C310.29,215.51,214.56,282,161.58,264.37s-52-48-112.27-84.64-51.59-72.45-43.8-91C5.51,88.73,30.11,33.71,151.89,19.19Z"/><ellipse id="_Path_" data-name="&lt;Path&gt;" class="cls-3" cx="173.69" cy="263.62" rx="131.33" ry="10.41"/><path class="cls-4" d="M260.9,139.05A95.91,95.91,0,1,1,165,43.15a94.08,94.08,0,0,1,11.44.69c1.38.16,2.77.35,4.14.58,1.06.17,2.11.36,3.15.58A95.89,95.89,0,0,1,260.9,139.05Z"/><circle class="cls-5" cx="165" cy="139.04" r="86.52" transform="translate(-49.99 157.4) rotate(-45)"/><path class="cls-6" d="M135.7,88.85a.93.93,0,0,1-.79-.46L126.58,74a.92.92,0,0,1,.33-1.26.93.93,0,0,1,1.26.34l8.33,14.43a.9.9,0,0,1-.34,1.25A.84.84,0,0,1,135.7,88.85Z"/><path class="cls-6" d="M114.22,110.24a.87.87,0,0,1-.46-.13l-14.42-8.33a.9.9,0,0,1-.34-1.25.91.91,0,0,1,1.26-.34l14.42,8.33a.92.92,0,0,1-.46,1.72Z"/><path class="cls-6" d="M99.67,177.13a.92.92,0,0,1-.46-1.72l14.43-8.33a.92.92,0,1,1,.92,1.6L100.13,177A.93.93,0,0,1,99.67,177.13Z"/><path class="cls-6" d="M127.16,204.71a.84.84,0,0,1-.46-.13.91.91,0,0,1-.34-1.25l8.33-14.43a.93.93,0,0,1,1.26-.34.92.92,0,0,1,.33,1.26L128,204.25A1,1,0,0,1,127.16,204.71Z"/><path class="cls-6" d="M202.38,204.83a.91.91,0,0,1-.8-.46L193.25,190a.93.93,0,0,1,1.6-.93l8.33,14.43a.93.93,0,0,1-.34,1.26A1,1,0,0,1,202.38,204.83Z"/><path class="cls-6" d="M230,177.35a.84.84,0,0,1-.46-.13l-14.43-8.33a.92.92,0,1,1,.92-1.59l14.43,8.33a.91.91,0,0,1,.33,1.26A.93.93,0,0,1,230,177.35Z"/><path class="cls-6" d="M215.66,110.45a.91.91,0,0,1-.8-.46.9.9,0,0,1,.34-1.25l14.42-8.33a.92.92,0,1,1,.92,1.59l-14.42,8.33A.88.88,0,0,1,215.66,110.45Z"/><path class="cls-6" d="M194.27,89a.93.93,0,0,1-.46-.12.91.91,0,0,1-.34-1.26l8.33-14.43a.92.92,0,1,1,1.59.93l-8.33,14.42A.91.91,0,0,1,194.27,89Z"/><path class="cls-6" d="M165,82a1.84,1.84,0,0,1-1.84-1.85V63.48a1.84,1.84,0,0,1,3.68,0V80.14A1.84,1.84,0,0,1,165,82Z"/><path class="cls-6" d="M106.1,140.89H89.44a1.85,1.85,0,0,1,0-3.69H106.1a1.85,1.85,0,0,1,0,3.69Z"/><path class="cls-6" d="M165,216.45a1.84,1.84,0,0,1-1.84-1.84V198a1.84,1.84,0,1,1,3.68,0v16.66A1.84,1.84,0,0,1,165,216.45Z"/><path class="cls-6" d="M240.56,140.89H223.9a1.85,1.85,0,0,1,0-3.69h16.66a1.85,1.85,0,0,1,0,3.69Z"/><path class="cls-7" d="M207.67,141.69H166.42a3.17,3.17,0,0,1-3-2.18l-22-66.57a3.17,3.17,0,0,1,6-2l21.28,64.39h39a3.18,3.18,0,1,1,0,6.35Z"/><path class="cls-8" d="M79.88,263.44a.72.72,0,0,1-.59.29H63.08a1.45,1.45,0,0,1-.47-.25c-.65-.54-.6-1.55-.49-3,0-.42.07-.86.08-1.35s0-1.1,0-1.83a17.52,17.52,0,0,0,3,.26,16.23,16.23,0,0,0,4-.49,7.7,7.7,0,0,0,1.5,1.76,9.16,9.16,0,0,0,2.75,1.65A35.86,35.86,0,0,0,79,262.2c.21.05.83.23,1,.66A.71.71,0,0,1,79.88,263.44Z"/><path class="cls-9" d="M62.61,263.48a1.27,1.27,0,0,0,.47.25H79.29a.72.72,0,0,0,.59-.29.71.71,0,0,0,.07-.58c-.16-.43-.79-.6-1-.66a37,37,0,0,1-5.54-1.76H62.12C62,261.93,62,262.94,62.61,263.48Z"/><path class="cls-8" d="M106.18,263.44a.74.74,0,0,1-.59.29H89.38a1.48,1.48,0,0,1-.48-.25c-.66-.54-.59-1.55-.48-3,0-.42.06-.86.08-1.35s0-1.24,0-2.06a12.8,12.8,0,0,0,4.15.33,12.44,12.44,0,0,0,2.7-.52,7.33,7.33,0,0,0,1.63,2,9.26,9.26,0,0,0,2.74,1.65,36,36,0,0,0,5.55,1.76c.19.05.83.23,1,.66A.66.66,0,0,1,106.18,263.44Z"/><path class="cls-9" d="M88.9,263.48a1.3,1.3,0,0,0,.48.25h16.21a.73.73,0,0,0,.59-.29.66.66,0,0,0,.06-.58c-.15-.43-.78-.6-1-.66a37.1,37.1,0,0,1-5.55-1.76H88.42C88.31,261.93,88.25,262.94,88.9,263.48Z"/><path class="cls-10" d="M100.33,226.7a264.53,264.53,0,0,1-4,29.8c-.29.11-.6.23-1,.34a12.44,12.44,0,0,1-2.7.52,12.8,12.8,0,0,1-4.15-.33,9.7,9.7,0,0,1-1.39-.43A65.16,65.16,0,0,1,85.57,243c0-5.81.72-7,1.18-16.2.58-11.32-.32-14.8-.75-16.29-.69-2.38-1.15-2.87-3.71-8.89-2.12-4.94-3.7-9-4.73-11.79q-.82,13-2.24,26.65C73.88,230.54,72.06,244,70,256.81c-.26.07-.53.16-.84.22a16.23,16.23,0,0,1-4,.49,17.52,17.52,0,0,1-3-.26c-.57-.1-1.07-.22-1.51-.34q-.6-15.87-.82-32.37c-.25-21.53.09-42.32.89-62.3l29.64-.35c1.9,9.76,3.83,17.63,5.24,23,2.93,11.27,4.52,15.15,5.23,23C101,209.65,101.29,214.32,100.33,226.7Z"/><path class="cls-11" d="M100.62,143.85a1.3,1.3,0,0,0-.55-.62c-.23-.11-.35,0-1.35.08a15.43,15.43,0,0,1-2.87,0C94,143,93.93,138,92.69,132a34.49,34.49,0,0,0-3.79-10.38,11,11,0,0,0-4.21-4.2,9.2,9.2,0,0,0-1.84-.74c-1.27-.26-2.65-.49-4.14-.65a42.87,42.87,0,0,0-6-.25l-3.41,1a19.73,19.73,0,0,0-7.63,8.49c-1.38,3.11-.9,4.62-1.29,11.42-.52,9.21-1,11.62-1.56,20.36-.17,2.69-.41,7.61,2.5,9.72,1.84,1.34,4,.87,6.75.53,13.52-1.63,20.83,2.62,23.22-1.18a5,5,0,0,0,.45-3.58c-.38-2.46-.85-5.87-1.38-10.07a56.39,56.39,0,0,0,5.66-.37c2.06-.18,2.36-.28,2.71-.49a4,4,0,0,0,1.4-1.49A7.82,7.82,0,0,0,100.62,143.85Z"/><rect class="cls-12" x="45.57" y="144.17" width="34.85" height="24.99" rx="2.06" transform="translate(31.8 -9.28) rotate(11.26)"/><path class="cls-8" d="M70.36,170.87a5.41,5.41,0,0,1-5.18,2.26,4.64,4.64,0,0,1-3.07-1.9c-.47-.8-.3-1.29-.89-3.39-.16-.57-.32-1-.65-1.87-1.23-3.29-2.64-6.07-4.07-9.56a5.25,5.25,0,0,0,3.16-1.14,7.53,7.53,0,0,0,2.68-3.34,47.72,47.72,0,0,1,1.29,4.62,42.35,42.35,0,0,0,1.69,6.35,9.62,9.62,0,0,0,1.17,2.59c1.52,1.91,3.93,2.3,3.86,3.37a.85.85,0,0,1-.22.48c-.65.6-2.31-.63-2.72-.16a.77.77,0,0,0,.15.9.72.72,0,0,0,.33.19C68.33,170.38,69.2,170.6,70.36,170.87Z"/><path class="cls-11" d="M68.54,126.08c-7.53,7.63-8.08,11.07-7.86,12.58,0,.19,1,6,1.28,8,.52,1.76.91,2.54.74,3.88a5.48,5.48,0,0,1-.36,1.38,7.53,7.53,0,0,1-2.68,3.34,5.25,5.25,0,0,1-3.16,1.14,2.71,2.71,0,0,1-.41-.09c-1.59-.55-2.11-3-2.62-6.93-.92-7-1.37-10.52-1-12.76C54.29,126,62.84,120.2,64.06,119.4a26.29,26.29,0,0,1,7.27-3.3Z"/><path class="cls-8" d="M118,148.5c-2.48.81-2.78.69-5.19-.21a8.38,8.38,0,0,0-3-.42q-3.65.91-7.52,1.77l-2.16.47a7.82,7.82,0,0,0,.52-6.26c1.07,0,6.37-.24,7.9-.34a26.28,26.28,0,0,1,3.37-1.22c1-.21,4-.15,4.1.63.35,1.26-3.15,1-3.28,1.41s2.06,2.2,4.37,1.91c3.79-.47,4.14-.88,4.68-.59C123.37,146.52,119.75,147.91,118,148.5Z"/><path class="cls-8" d="M69.51,106.81c.57.31,1,0,1.53-.06.71-.37,1.48,1.33,3.45,1.38,1.64,0,1.82-1.11,3.7-1.18,1.67,0,2.49.83,3.52.28a2.44,2.44,0,0,0,1.09-1.37,28.79,28.79,0,0,0-2.21-9.58,4.29,4.29,0,0,1-2.19.38c-1.59.12-1.62.83-3.07.91a7.4,7.4,0,0,0-1.43.06,10.61,10.61,0,0,0-1.75.67c-1.21.45-1.36.35-1.51.6-.34.55.4,1.15.64,2.78.06.42.25,2-.35,2.27-.29.16-.5-.1-1,0a1.64,1.64,0,0,0-1,.73A1.69,1.69,0,0,0,69.51,106.81Z"/><path class="cls-8" d="M70.41,113c.07.56.35,2.72.41,3.23a3.89,3.89,0,0,0,1.84,2,3.52,3.52,0,0,0,2.35.34,3.8,3.8,0,0,0,2.44-2H77a5.29,5.29,0,0,1-3.34-.7A5.9,5.9,0,0,1,72,113.28c-.36-.88-.52-1.6-.78-1.59S71,112.46,70.41,113Z"/><path class="cls-9" d="M64.19,103.11a13.07,13.07,0,0,1-.06,2.12,6.93,6.93,0,0,0,.8,3.43c.66,1.12,1.16.89,1.67,2,.41.89.23,1.28.77,1.95a2.26,2.26,0,0,0,1.6.94,1.92,1.92,0,0,0,1.28-.39,1.21,1.21,0,0,0,.16-.16c.56-.56.54-1.31.8-1.33s.42.71.78,1.59a5.9,5.9,0,0,0,1.67,2.65,5.29,5.29,0,0,0,3.34.7h.45c1.66,0,3.23-.14,4.24-1.21.36-.39.77-1,1-4.77.12-2,.13-3.59.11-4.78a2.44,2.44,0,0,1-1.09,1.37c-1,.55-1.85-.32-3.52-.28-1.88.07-2.06,1.22-3.7,1.18-2,0-2.74-1.75-3.45-1.38-.51,0-1,.37-1.53.06a1.69,1.69,0,0,1-.64-2.09,1.64,1.64,0,0,1,1-.73c.53-.14.74.12,1,0,.6-.31.41-1.85.35-2.27-.24-1.63-1-2.23-.64-2.78.15-.25.3-.15,1.51-.6a10.61,10.61,0,0,1,1.75-.67,7.4,7.4,0,0,1,1.43-.06c1.45-.08,1.48-.79,3.07-.91a4.29,4.29,0,0,0,2.19-.38,2.75,2.75,0,0,0,.9-.92,3.57,3.57,0,0,0,.25-3.25,3.31,3.31,0,0,0-2.25-2c-.68-.14-.82.16-2.21.18-1.2,0-1.26-.18-2-.09-1.27.13-1.46.76-2.7,1.16s-1.51-.21-3.26,0c-.78.12-2.7.38-3.69,1.76-.51.68-.22.9-.91,2.14s-1.18,1.34-1.52,2.21a5.25,5.25,0,0,0,.26,3.45A10.85,10.85,0,0,1,64.19,103.11Z"/><path class="cls-13" d="M79.65,102.07c.1.63.52,1.09.94,1s.7-.63.61-1.26-.52-1.09-.94-1S79.56,101.44,79.65,102.07Z"/><path class="cls-13" d="M73.75,103.08c.14.62.6,1,1,.94s.64-.69.49-1.31-.61-1-1-.94S73.6,102.46,73.75,103.08Z"/><path class="cls-9" d="M72,101.16c-.08-.51,1.06-1,1.39-1.18s1-.49,1.33-.23a.36.36,0,0,1,.13.29c0,.2-.25.32-.35.37-1.37.71-2,1.28-2.34,1A.44.44,0,0,1,72,101.16Z"/><path class="cls-14" d="M77.83,106.37a.17.17,0,0,1-.17-.09.16.16,0,0,1,.07-.21c.38-.19,1-.57,1-1.07,0-.17-.07-.3-.36-.77l-.07-.1c-.35-.57-.63-1-.81-1.35a.15.15,0,0,1,.06-.21.15.15,0,0,1,.21.05c.18.31.46.77.81,1.34l.06.1c.31.49.42.67.42.94,0,.67-.75,1.13-1.19,1.35Z"/><path class="cls-9" d="M81.11,99.47c-.1-.48-1.3-.55-1.65-.57s-1.08-.08-1.26.26a.34.34,0,0,0,0,.31c.08.16.33.19.44.2,1.46.16,2.19.46,2.43.07A.37.37,0,0,0,81.11,99.47Z"/><path class="cls-15" d="M80.67,108.23a.43.43,0,0,1,0,.16s0,0,0,.07a2.52,2.52,0,0,1-.89,1.44,2.44,2.44,0,0,1-1.85.45,2.67,2.67,0,0,1-1.63-1,1,1,0,0,1-.16-.3.4.4,0,0,1,0-.26c.13-.34.86-.07,2.45-.41,1.31-.28,1.78-.68,2-.44A.43.43,0,0,1,80.67,108.23Z"/><path class="cls-5" d="M80.67,108.23a6.67,6.67,0,0,1-1.69.67,7,7,0,0,1-2.86.13.4.4,0,0,1,0-.26c.13-.34.86-.07,2.45-.41,1.31-.28,1.78-.68,2-.44A.43.43,0,0,1,80.67,108.23Z"/><path class="cls-8" d="M295.83,263.49a1.58,1.58,0,0,1-.48.25H279.14a.73.73,0,0,1-.59-.29.76.76,0,0,1-.07-.58c.17-.43.79-.6,1-.65a38.35,38.35,0,0,0,5.55-1.77,9.18,9.18,0,0,0,2.75-1.65,7.15,7.15,0,0,0,1.49-1.75,16.85,16.85,0,0,0,4,.48,15.89,15.89,0,0,0,3-.26c0,.73,0,1.34,0,1.84s.05.93.07,1.34C296.42,261.94,296.48,263,295.83,263.49Z"/><path class="cls-12" d="M295.83,263.49a1.3,1.3,0,0,1-.48.25H279.14a.73.73,0,0,1-.59-.29.71.71,0,0,1-.07-.58c.16-.43.8-.6,1-.65a37.15,37.15,0,0,0,5.55-1.77h11.29C296.42,261.94,296.49,263,295.83,263.49Z"/><path class="cls-8" d="M269.53,263.49a1.45,1.45,0,0,1-.47.25H252.85a.76.76,0,0,1-.6-.29.74.74,0,0,1-.06-.58c.15-.43.79-.6,1-.65a38.35,38.35,0,0,0,5.55-1.77,9.16,9.16,0,0,0,2.74-1.65,7.34,7.34,0,0,0,1.62-1.95,12.69,12.69,0,0,0,2.7.52,12.89,12.89,0,0,0,4.16-.32c0,.82,0,1.51,0,2.06s.05.93.08,1.34C270.12,261.94,270.19,263,269.53,263.49Z"/><path class="cls-12" d="M269.53,263.49a1.27,1.27,0,0,1-.47.25H252.85a.74.74,0,0,1-.6-.29.69.69,0,0,1-.06-.58c.16-.43.79-.6,1-.65a37.53,37.53,0,0,0,5.55-1.77H270C270.13,261.94,270.19,263,269.53,263.49Z"/><path class="cls-16" d="M298.56,224.57q-.19,16.49-.82,32.36a14.1,14.1,0,0,1-1.5.34,15.89,15.89,0,0,1-3,.26,16.85,16.85,0,0,1-4-.48c-.3-.08-.58-.15-.83-.23-2.06-12.81-3.87-26.27-5.32-40.35-.94-9.12-1.67-18-2.24-26.65-1,2.75-2.61,6.85-4.72,11.8-2.56,6-3,6.51-3.72,8.88-.43,1.5-1.32,5-.75,16.29.47,9.2,1.24,10.39,1.19,16.21a65.81,65.81,0,0,1-1.54,13.62c-.38.13-.84.29-1.38.43a12.89,12.89,0,0,1-4.16.32,12.69,12.69,0,0,1-2.7-.52c-.35-.11-.67-.23-.95-.34a260.12,260.12,0,0,1-4-29.79c-1-12.39-.7-17.05-.54-18.8.71-7.82,2.29-11.69,5.23-23,1.41-5.41,3.33-13.28,5.23-23l29.64.35C298.48,182.24,298.82,203,298.56,224.57Z"/><path class="cls-17" d="M313.35,149.28c-1,1.76-3.47,2.05-6.57,2.41-2,.23-3.46.4-4.91-.54l-.22-.16c-1.43-1.05-2-2.71-2.53-4.41a12.6,12.6,0,0,1-.51-2,2,2,0,0,1,.29-1.71c.66-.7,1.8.07,2.24-.44.87-1-2.2-5.41-3.83-7.6,0,.31,0,.63,0,.94.09,2,.1,3.21.13,4.17.5,16.78,3.18,24-.33,26.8-1,.81-1.67.55-6.76.54-14.85-.06-21.13,2.15-23.21-1.19a5.13,5.13,0,0,1-.46-3.58c.38-2.46.85-5.86,1.39-10.07a55.42,55.42,0,0,1-5.66-.36c-2.07-.19-2.36-.27-2.72-.48a3.89,3.89,0,0,1-1.34-1.39c-1.23-2-1.27-5.08-.53-6.32a1.21,1.21,0,0,1,.49-.47c.24-.11.36,0,1.37.06a15.53,15.53,0,0,0,2.86,0c1.82-.36,1.92-5.27,3.15-11.1a33.55,33.55,0,0,1,3.78-10.13,11.9,11.9,0,0,1,2.56-3l0,0,.17-.14a12.4,12.4,0,0,1,3.08-2,14,14,0,0,1,4.16-1.13,28.94,28.94,0,0,1,7.34-.11,21.8,21.8,0,0,1,7.24,1.76,17.33,17.33,0,0,1,2.42,1.28c4.36,2.75,6.93,6.89,9.81,11.52a56.08,56.08,0,0,1,4,7.84C313.06,144.48,314.29,147.63,313.35,149.28Z"/><path class="cls-8" d="M301.65,151c-2-.07-4-.18-6.07-.33s-4.23-.34-6.26-.55a10.59,10.59,0,0,0-4.45.53c-2.6,1-2.92,1.18-5.66.36-1.9-.58-5.9-2-4.17-3,.59-.35,1,.1,5.13.49,2.53.26,4.85-1.77,4.71-2.2s-4-.06-3.62-1.45c.13-.85,3.38-1,4.45-.8a21.63,21.63,0,0,1,3.57,1.19c1.37.05,2.86,0,4.45-.06a42.45,42.45,0,0,0,4.88-.58,12.6,12.6,0,0,0,.51,2C299.68,148.28,300.22,149.94,301.65,151Z"/><path class="cls-8" d="M291.46,106.12a2.64,2.64,0,0,1-3.13,1.06A25,25,0,0,0,287,112.6a23.67,23.67,0,0,0-.18,3.24,26.79,26.79,0,0,1-4.15,9.79c-.88,1.27-2.92,4.24-4.21,3.8-1-.34-1.08-2.78-1.12-4.27a22.48,22.48,0,0,1,1.87-9.17c.05-.14.11-.26.16-.4.15-.93.29-1.86.44-2.79a3.84,3.84,0,0,1-1.52-.21c-3.32-1.24-4.52-7.83-3.15-12.73a14.21,14.21,0,0,1,3.67-6.2q2.17,2.32,4.52,4.7c1.84,1.86,3.67,3.65,5.46,5.36a1.91,1.91,0,0,1,2.29,0A2,2,0,0,1,291.46,106.12Z"/><path class="cls-13" d="M277.42,102.09c-.06.66-.47,1.17-.92,1.13s-.76-.61-.7-1.28.47-1.16.92-1.12S277.48,101.43,277.42,102.09Z"/><path class="cls-13" d="M283.62,102.81c-.12.65-.57,1.12-1,1s-.7-.68-.58-1.33.57-1.12,1-1S283.74,102.16,283.62,102.81Z"/><path class="cls-12" d="M285.1,100.7c.06-.54-1.16-1-1.51-1.16s-1.1-.45-1.4-.15a.36.36,0,0,0-.12.31c0,.2.28.31.39.36,1.46.66,2.12,1.22,2.49.9A.37.37,0,0,0,285.1,100.7Z"/><path class="cls-14" d="M279.56,106.46h-.05c-.47-.2-1.27-.64-1.31-1.34,0-.28.09-.47.38-1l.06-.11c.34-.61.6-1.11.77-1.44a.19.19,0,0,1,.22-.07.18.18,0,0,1,.07.23c-.17.32-.43.83-.77,1.44l-.06.11c-.28.5-.35.64-.34.82,0,.52.71.89,1.11,1.06a.17.17,0,0,1,.09.21A.16.16,0,0,1,279.56,106.46Z"/><path class="cls-12" d="M275.78,99.05c.12-.5,1.36-.52,1.73-.53s1.13,0,1.31.32a.39.39,0,0,1,0,.32c-.09.17-.36.18-.47.19-1.52.11-2.3.4-2.53,0A.41.41,0,0,1,275.78,99.05Z"/><path class="cls-12" d="M294.6,110.33c-.23-.7-.53-1.55-.94-2.64-2.53-6.76,0-8.75-2.65-12.59a10.4,10.4,0,0,0-5.9-4,10.21,10.21,0,0,0-8.31,1.75c-3.72,2.88-1.29,5.89-5.5,14.8a11,11,0,0,0-1.5,6.41,10.14,10.14,0,0,0,1.69,4.17,8.25,8.25,0,0,0,.79.89,12.4,12.4,0,0,1,3.08-2,13.87,13.87,0,0,1,3.89-1.09l.6-3.19a3.84,3.84,0,0,1-1.52-.21c-3.32-1.24-4.52-7.83-3.15-12.73a14.21,14.21,0,0,1,3.67-6.2q2.17,2.32,4.52,4.7c1.84,1.86,3.67,3.65,5.46,5.36a1.91,1.91,0,0,1,2.29,0,2,2,0,0,1,.34,2.45,2.64,2.64,0,0,1-3.13,1.06c-.17.48-.34,1-.5,1.58a15.89,15.89,0,0,0-1.91,9.75,5.77,5.77,0,0,0,1.9,4,5.44,5.44,0,0,0,3.54.86,6.92,6.92,0,0,0,3.64-1.09C297.23,120.61,297.51,115.53,294.6,110.33Z"/><path class="cls-14" d="M279.4,109.19a3.63,3.63,0,0,1-.64-.06,3.38,3.38,0,0,1-1.25-.53.16.16,0,0,1,0-.2.15.15,0,0,1,.2,0,3,3,0,0,0,1.14.49,3.26,3.26,0,0,0,2-.26.14.14,0,0,1,.18.07.12.12,0,0,1-.06.18A3.61,3.61,0,0,1,279.4,109.19Z"/><path class="cls-8" d="M258.39,150.24c-4-1.34-7.07-2.31-8.62-2.77a11.7,11.7,0,0,0-2.22-.46,12.06,12.06,0,0,0-2.29,0c-3-.22-5.34-1-5.81-2a6.57,6.57,0,0,1-.24-.65,8.16,8.16,0,0,1-.2-2.22c-.28-1.85-4.53-2.13-4.53-3.5a1.11,1.11,0,0,1,.51-.83c1.18-.77,4,1.7,5.7,2l2,.32a24.33,24.33,0,0,1,5.59,1.66c1,.48,1,.58,1.87.92a14.54,14.54,0,0,0,3.1.77c1.16.19,2.71.4,4.57.54a7.65,7.65,0,0,0-.48,2.83A7.39,7.39,0,0,0,258.39,150.24Z"/><path class="cls-8" d="M154.86,75.05a9.46,9.46,0,0,1,.07,6.06c-1.37,3.92-5.81,7-8.44,5.94a3.39,3.39,0,0,1-2.07-3c.07-1.56,1.81-1.71,3.17-3.93,1.59-2.6.52-4.5,1.89-5.57C150.21,74,151.66,73.66,154.86,75.05Z"/><path class="cls-18" d="M183.74,45a36.76,36.76,0,0,0-2.29-15,18.46,18.46,0,0,0-3.8-2.69,18,18,0,0,0-3.26-1.36l-7.06-2.07a23.55,23.55,0,0,0-6.34.44,24.89,24.89,0,0,0-10.93,5.5c-2.29,1.89-7.63,6.27-8.76,13.39a20.07,20.07,0,0,0-.21,3c-.15,7.84,2.94,19.28,3.68,22,.17.44,1.56,4,2.8,6.52a4.07,4.07,0,0,0,1.59,1.8,3.57,3.57,0,0,0,1.39.41c3.22.36,4.83.53,5.29.21,1.38-1,.66-4.1-.61-9.41-1.12-4.68-2-7.42-3-12.58a20.42,20.42,0,0,1-.37-7.39,18.8,18.8,0,0,1,1-3.75,95.58,95.58,0,0,1,23.65-.09l.86.11c1.1.14,2.2.29,3.28.47S182.7,44.78,183.74,45Z"/><path class="cls-8" d="M168.68,12.57a2.29,2.29,0,0,0,2,2,10.55,10.55,0,0,1-.7,4.79c-.64,1.58-1.28,1.95-2.09,3.89a7.4,7.4,0,0,0-.31.89q2.83,12.06,4.56,11.9,1.55-.14,2.21-10.18c.14-.41.81-2.37,1-2.94a3.22,3.22,0,0,0,1.34.46c3.29.3,6.86-4.64,8-9.11a16.42,16.42,0,0,0,.39-2.42A17.39,17.39,0,0,1,183.91,9a21.3,21.3,0,0,1-.61-2.7.5.5,0,0,1,0,.12c0-.13,0-.26,0-.38-.42.39-.9.79-1.45,1.21A22.35,22.35,0,0,1,175,10.89a22.88,22.88,0,0,1-3.18.81,1.76,1.76,0,0,0-1.85-1A1.86,1.86,0,0,0,168.68,12.57Z"/><path class="cls-13" d="M182,15.22c-.21.6-.06,1.21.35,1.35s.9-.22,1.12-.82.06-1.2-.34-1.35S182.17,14.63,182,15.22Z"/><path class="cls-13" d="M176.28,13.33c-.16.62.05,1.21.46,1.31s.89-.3,1-.92,0-1.2-.47-1.31S176.44,12.72,176.28,13.33Z"/><path class="cls-9" d="M175.69,10.61c.24-.45,1.46-.19,1.82-.12s1.11.22,1.2.61a.36.36,0,0,1-.07.31c-.13.15-.39.1-.51.08-1.51-.24-2.33-.13-2.46-.59A.37.37,0,0,1,175.69,10.61Z"/><path class="cls-14" d="M178.33,18.15a.15.15,0,0,1-.11-.16.16.16,0,0,1,.16-.15c.42,0,1.16,0,1.39-.46.09-.15.08-.3,0-.85v-.12c0-.67-.06-1.22-.08-1.57a.16.16,0,0,1,.15-.16.16.16,0,0,1,.17.15c0,.35,0,.89.08,1.56v.12c0,.57.05.78-.08,1-.32.58-1.19.64-1.68.63Z"/><path class="cls-9" d="M184.51,13.53c.1-.48-1-1-1.27-1.18s-1-.51-1.26-.27a.36.36,0,0,0-.14.27c0,.19.23.31.33.37,1.27.72,1.81,1.3,2.18,1A.46.46,0,0,0,184.51,13.53Z"/><path class="cls-14" d="M179.43,20.71a3.37,3.37,0,0,1-3.12-1.27.14.14,0,1,1,.21-.17,3.19,3.19,0,0,0,1.66,1.09,2.9,2.9,0,0,0,1.21.07.15.15,0,1,1,0,.28Z"/><path class="cls-9" d="M183.18,23.34a12.48,12.48,0,0,0-1,1.34,7.37,7.37,0,0,0-.73,5.28,18.56,18.56,0,0,0-5.16-3.35c-.66-.28-1.29-.51-1.9-.7.33-1,.66-2,1-2.94a3.54,3.54,0,0,0,1.34.46c3.29.3,6.85-4.65,8-9.11a15,15,0,0,0,.39-2.42A20.13,20.13,0,0,1,183.91,9a19.69,19.69,0,0,1-.61-2.7s0,.09,0,.12a2.48,2.48,0,0,1,0-.38l-.69.61A23,23,0,0,1,175,10.89a22.88,22.88,0,0,1-3.18.81,1.78,1.78,0,0,0-1.85-1,1.86,1.86,0,0,0-1.32,1.89,2.31,2.31,0,0,0,2,2,10.67,10.67,0,0,1-.7,4.79c-.63,1.59-1.27,1.95-2.09,3.89-.13.34-.23.62-.31.89-.44,1.3-.3,1.84-.76,3.07a10.69,10.69,0,0,1-5.13,5.36c-.66.32-4.46,2.15-7.73.37a7,7,0,0,1-3.33-4.58,5.91,5.91,0,0,1,.07-2.15,8.07,8.07,0,0,1,1-2.33,17.62,17.62,0,0,1,1.25-1.7c1.72-2.12,2.45-1.49,4.2-3.43,3-3.36,1.77-5.72,4.19-7.59,1.36-1.06,2.46-1,3.69-2.64a9.11,9.11,0,0,0,1.4-3c1.48-3.4,6.2-5.71,10.5-5.6a11.85,11.85,0,0,1,6.33,2.12,8.92,8.92,0,0,1,3.5,3.71,8.61,8.61,0,0,1,.85,3.32c.09,1.53-.3,1.76-.31,3.75a30.48,30.48,0,0,1,.13,3.21,10,10,0,0,1-1.73,4.37C184.77,21.82,184.22,22.07,183.18,23.34Z"/><path class="cls-8" d="M182.89,47c-1.61-.31-3.78-1.35-3.78-2.55,0-1.55,3.66-3.45,6.34-2.43,1.7.64,3.12,2.49,2.48,3.8S184.45,47.27,182.89,47Z"/></g></g></g></svg>