<svg xmlns="http://www.w3.org/2000/svg" xmlns:xlink="http://www.w3.org/1999/xlink" viewBox="0 0 230.9 189.97"><defs><style>.cls-1{fill:#070707;}.cls-2{isolation:isolate;}.cls-3{opacity:0.25;}.cls-4{fill:#46c7ce;}.cls-5{fill:#eaeaea;mix-blend-mode:multiply;}.cls-6{fill:#fb9782;}.cls-7{fill:#0b4f5a;}.cls-23,.cls-25,.cls-28,.cls-29,.cls-31,.cls-36,.cls-37,.cls-38,.cls-40,.cls-43,.cls-8{fill:none;stroke-linecap:round;stroke-linejoin:round;}.cls-8{stroke:#022f3b;stroke-width:1.5px;}.cls-9{fill:#18727c;}.cls-10{fill:#fa654e;}.cls-11{fill:#f3f4f4;}.cls-12{fill:#e13a3c;}.cls-13{fill:#008596;}.cls-14{fill:#ced5db;}.cls-15{fill:#fb6d5f;}.cls-16{fill:#0b1b11;}.cls-17{fill:#022f3b;}.cls-18{fill:#e47d6f;}.cls-19{clip-path:url(#clip-path);}.cls-20{fill:#fff;}.cls-21{fill:#fa5;}.cls-22{clip-path:url(#clip-path-2);}.cls-23,.cls-29,.cls-36,.cls-40,.cls-43{stroke:#000;}.cls-23{stroke-width:0.95px;}.cls-24{fill:#f19b8e;}.cls-25,.cls-28{stroke:#d9736a;}.cls-25{stroke-width:0.75px;}.cls-26{fill:#21221c;}.cls-27,.cls-39{fill:#1d0300;}.cls-28,.cls-29{stroke-width:0.7px;}.cls-30{fill:#709afa;}.cls-31{stroke:#5084ea;stroke-width:0.67px;}.cls-32{fill:#f7b49b;}.cls-33{fill:#bd4a23;}.cls-34{fill:#168984;}.cls-35{fill:#f0a891;}.cls-36{stroke-width:0.87px;}.cls-37{stroke:#ed6a91;stroke-width:0.95px;}.cls-38{stroke:#cf6460;}.cls-38,.cls-40{stroke-width:0.66px;}.cls-39{stroke:#1d0300;stroke-miterlimit:10;stroke-width:0.2px;}.cls-41{fill:#f8af96;}.cls-42{fill:#f982a2;}.cls-43{stroke-width:0.91px;}</style><clipPath id="clip-path"><path class="cls-1" d="M115.38,169.63s-3.84,2.41-5.87-1.3l-14.86,7.89,23.14-.14Z"/></clipPath><clipPath id="clip-path-2"><path class="cls-1" d="M125.92,169.63s3.85,2.41,5.88-1.3l14.85,7.89-23.14-.14Z"/></clipPath></defs><g class="cls-2"><g id="Layer_2" data-name="Layer 2"><g id="Option_1" data-name="Option 1"><g class="cls-3"><path class="cls-4" d="M26.11,24.37c-47.34,27-15.84,54.84-15.84,54.84a44.57,44.57,0,0,1,12,22.18c3.63,17-11.83,34.36-6.67,51,3.8,12.23,17.55,18.68,30.31,19.75s25.59-1.71,38.37-.91c15.31.95,29.77,7,44.3,11.9s30.09,8.92,45.08,5.68,29-15.75,29.11-31.1c.06-6.91-2.57-14.1-.12-20.56,3.8-10,17.27-12.54,23.33-21.34,5.93-8.61,2.15-20.06-1.76-29.75-15.9-39.34-53-60.31-84.25-71C140,15.06,79.06-5.88,26.11,24.37Z"/></g><path class="cls-5" d="M62.9,179c0,1.16-12.47,2.11-27.85,2.11S7.2,180.14,7.2,179s12.47-2.12,27.85-2.12S62.9,177.81,62.9,179Z"/><path class="cls-6" d="M43.28,166.34l.64,5.73a6.48,6.48,0,0,0,4.71-.77v-5.71S44.21,165.15,43.28,166.34Z"/><path class="cls-7" d="M50.5,77.72l-1,57.79-.16,30.4-6.78.4S37.75,138.85,40.18,131c-3.51-13.49-4.34-32.41-5-52.75Z"/><path class="cls-8" d="M38.45,87.06s0,31.37,4.09,43.8c0,0-2.86,9.64,1.79,33.45"/><path class="cls-9" d="M49.93,164.11a6,6,0,0,1-.17,3.67l-7.7-.15a9.84,9.84,0,0,1-.33-3.65Z"/><path class="cls-10" d="M41.75,177.93c0,.75.07,1.25.07,1.25H60.75a3.21,3.21,0,0,0-.09-1.25c-1-3.8-9.2-3.88-9.89-5.66-1.48-3.84-2.61-1.58-2.61-1.58s-4.3-.9-5.41,1.19A17.47,17.47,0,0,0,41.75,177.93Z"/><path class="cls-11" d="M53.46,175.5h-.07a.24.24,0,0,1-.16-.29,1.92,1.92,0,0,1,1-1.32,2,2,0,0,1,1.51.05.24.24,0,0,1,.11.32.25.25,0,0,1-.31.11h0a1.46,1.46,0,0,0-1.11-.05,1.43,1.43,0,0,0-.72,1A.23.23,0,0,1,53.46,175.5Z"/><path class="cls-11" d="M52.31,175h-.06a.24.24,0,0,1-.17-.29,1.69,1.69,0,0,1,2.48-1.27.23.23,0,0,1,.11.31.22.22,0,0,1-.31.11h0a1.24,1.24,0,0,0-1.83,1A.22.22,0,0,1,52.31,175Z"/><path class="cls-11" d="M51.13,174.69h-.06a.23.23,0,0,1-.17-.28,1.86,1.86,0,0,1,1-1.32,1.94,1.94,0,0,1,1.5,0,.24.24,0,0,1,.11.32.24.24,0,0,1-.31.11,1.46,1.46,0,0,0-1.11-.05,1.48,1.48,0,0,0-.71,1A.25.25,0,0,1,51.13,174.69Z"/><path class="cls-12" d="M41.75,177.93c0,.75.07,1.25.07,1.25H60.75a3.21,3.21,0,0,0-.09-1.25Z"/><path class="cls-6" d="M15.71,166.34l-.27,5.88s3.09,1.42,5.3,0l.32-6.63S16.64,165.15,15.71,166.34Z"/><path class="cls-9" d="M42.48,77.81s1.22,5.94-7.74,13.67l-6.59,41.25L22,165.24l-6.63,0s1.33-23,3-37l3.21-50Z"/><path class="cls-10" d="M11.2,179.48H23.81a6.8,6.8,0,0,0,.14-1.34,7.26,7.26,0,0,0-.14-1.61c-.33-1.54-1.67-1.16-2.81-4.34a4.49,4.49,0,0,0-1.24-1.56,2.81,2.81,0,0,0-4.12,0c-1.83,1.87-2.32,4.22-3.46,5.17a3.24,3.24,0,0,0-1,2.34A5,5,0,0,0,11.2,179.48Z"/><path class="cls-11" d="M20,174.3a.23.23,0,0,1-.2-.13,2.4,2.4,0,0,0-2.24-1,2.4,2.4,0,0,0-2.23,1,.23.23,0,0,1-.31.11.24.24,0,0,1-.11-.32,2.82,2.82,0,0,1,2.65-1.24A2.81,2.81,0,0,1,20.18,174a.23.23,0,0,1-.1.32Z"/><path class="cls-11" d="M20,173.19a.23.23,0,0,1-.2-.13,2.39,2.39,0,0,0-2.24-1,2.4,2.4,0,0,0-2.23,1,.23.23,0,0,1-.31.1.23.23,0,0,1-.11-.31,2.82,2.82,0,0,1,2.65-1.25,2.8,2.8,0,0,1,2.65,1.25.22.22,0,0,1-.1.31A.2.2,0,0,1,20,173.19Z"/><path class="cls-11" d="M20,172.16a.23.23,0,0,1-.2-.13,2.4,2.4,0,0,0-2.24-1,2.4,2.4,0,0,0-2.23,1,.23.23,0,0,1-.31.11.24.24,0,0,1-.11-.32,2.82,2.82,0,0,1,2.65-1.24,2.81,2.81,0,0,1,2.65,1.24.23.23,0,0,1-.1.32Z"/><path class="cls-12" d="M11.2,179.48H23.81a6.8,6.8,0,0,0,.14-1.34H11.13A5,5,0,0,0,11.2,179.48Z"/><path class="cls-13" d="M22.6,164.37a6,6,0,0,1-.18,3.66l-8.19-.15a9.5,9.5,0,0,1-.17-3.6Z"/><path class="cls-11" d="M50.7,80.5c-.76,3.36-30.45,11.57-30.45,4.55,0-4.82,1.44-22.53,1.73-30.15a21.84,21.84,0,0,0-.19-3.11h0v0l0-.28a.2.2,0,0,1,0-.07c0-.33-.09-.68-.14-1v0a.13.13,0,0,1,0-.06l0-.17c-.09-.63-.19-1.29-.3-2-.06-.37-.13-.75-.19-1.14-.11-.6-.21-1.22-.32-1.84-.06-.35-.13-.7-.19-1-1.12-6.35-2.28-12.95-.82-14.27,2.65-2.38,11.09-5.65,11.09-5.65l7.59.11s9.8,2.15,10.94,4.7c.8,1.79.56,8.8.31,15.52,0,.42,0,.84,0,1.26,0,1-.07,1.94-.1,2.87,0,.16,0,.31,0,.47s0,.51,0,.76c0,.91,0,1.79,0,2.6v.14c0,1.26,0,2.64.09,4.11,0,.44.05.88.07,1.34C50.2,68.26,51.68,76.15,50.7,80.5Z"/><path class="cls-14" d="M43.8,72.58h-.06c-4.65-.8-8.53-4.91-11-8.22a45.25,45.25,0,0,1-4.21-7,.34.34,0,0,1,.17-.44.33.33,0,0,1,.43.17A43.91,43.91,0,0,0,33.3,64c2.37,3.2,6.12,7.18,10.55,7.95a.32.32,0,0,1,.27.37A.33.33,0,0,1,43.8,72.58Z"/><path class="cls-14" d="M37,30.46a10.86,10.86,0,0,1-4.34-.94,12.33,12.33,0,0,1-3.19-2,.3.3,0,0,1,0-.42.3.3,0,0,1,.43,0S34.65,31.29,40,29.33a.31.31,0,0,1,.39.19.29.29,0,0,1-.18.38A9.22,9.22,0,0,1,37,30.46Z"/><path class="cls-14" d="M43.35,78.06a22.67,22.67,0,0,1-9.87-2.62,32,32,0,0,1-6-3.85.29.29,0,0,1,0-.42.31.31,0,0,1,.43,0,32,32,0,0,0,5.85,3.77c3.17,1.6,7.93,3.28,12.6,2.23a.3.3,0,0,1,.36.23.29.29,0,0,1-.23.36A14,14,0,0,1,43.35,78.06Z"/><path class="cls-14" d="M39,79.94a15.37,15.37,0,0,1-6.27-1.34.28.28,0,0,1-.14-.4.29.29,0,0,1,.4-.14,15,15,0,0,0,8.8,1,.29.29,0,0,1,.36.23.3.3,0,0,1-.23.36A13.7,13.7,0,0,1,39,79.94Z"/><path class="cls-6" d="M13.55,54.49c.4-1,.89-2.11,1.39-3.2.38-.83.77-1.65,1.14-2.42,1.05-2.2,2.18-4.47,3.41-6.57.2-3.11.22-7.84-1.21-9.82a4,4,0,0,0-3.15,1.94q-1.61,2.69-3.2,5.44c-1.06,1.84-2.1,3.72-3.09,5.66-.08.15-.15.31-.23.47-.9,1.79-1.76,3.63-2.51,5.55A48.09,48.09,0,0,0,4,58H4a4,4,0,0,0,.06,2.12l0,.09,0,.06,0,.1.08.19c0,.13.09.25.14.36s.2.45.31.67c.2.43.4.85.62,1.26.42.83.86,1.62,1.33,2.4.92,1.56,1.9,3,2.94,4.49.52.72,1.06,1.42,1.6,2.12s1.09,1.38,1.66,2c1.13,1.34,2.31,2.64,3.52,3.89a2.72,2.72,0,0,0,4.14-3.52h0c-1-1.31-1.9-2.64-2.78-4-.44-.68-.86-1.36-1.27-2s-.8-1.38-1.18-2.08c-.76-1.4-1.46-2.83-2.08-4.26-.3-.71-.59-1.43-.85-2.14l-.21-.6c0-.08-.05-.16-.07-.24l.09-.34A41.65,41.65,0,0,1,13.55,54.49Z"/><path class="cls-11" d="M16.42,51.64l3.76-7S21.89,41.81,22,40.1c.2-3.11.32-4.48-.66-7.62-.16-.53-1.1-2.52-1.59-2.64C15.41,32.18,9,42.12,8.23,44.27,8.23,44.27,10.88,49.76,16.42,51.64Z"/><path class="cls-15" d="M8.64,58.19a.27.27,0,0,0,.28.28,11.88,11.88,0,0,1,3.21.67c0-.08-.05-.16-.07-.24l.09-.34a12,12,0,0,0-3.24-.65A.28.28,0,0,0,8.64,58.19Z"/><path class="cls-15" d="M11.37,58.89a.39.39,0,0,0,.14,0,.27.27,0,0,0,.08-.38A11.69,11.69,0,0,0,9.82,56.6a.28.28,0,0,0-.39,0,.29.29,0,0,0,0,.4,11.92,11.92,0,0,1,1.67,1.74A.3.3,0,0,0,11.37,58.89Z"/><path class="cls-6" d="M22.18,75.94l-1.81,4.13c-2,.42-4.3-2.65-4.3-2.65a4.9,4.9,0,0,1,2.78-3.94l2.75.94a1.06,1.06,0,0,1,.59,1.5Z"/><path class="cls-16" d="M16.14,77.67S17.07,74.29,19,73a2,2,0,0,1,2,1.11,47.84,47.84,0,0,0-3,5.24A2.64,2.64,0,0,1,16.14,77.67Z"/><path class="cls-16" d="M19.11,74.92a1.81,1.81,0,1,1-2.61.58A1.9,1.9,0,0,1,19.11,74.92Z"/><path class="cls-7" d="M18.8,75.41a1.32,1.32,0,1,1-1.91.42A1.39,1.39,0,0,1,18.8,75.41Z"/><path class="cls-6" d="M21.6,78.5s2.65.24,3,1.14-3.37.77-3.37.77,1.81.33,1.94.78c.3,1-2.3.83-3.48.51s-.75-1.39-.25-1.42c0,0-.59-1.26.17-2a1.43,1.43,0,0,1,.14-2s-.82-1.61.36-1.93c0,0,.3-1.83,1.06-1.8l0,1.76a19.29,19.29,0,0,1,3.56.29c1,.28.81,1.76-2.9,1.67,0,0,3.08.2,3.76,1.11S23.6,78.52,21.6,78.5Z"/><path class="cls-14" d="M24.29,40a25.13,25.13,0,0,0-2.08,2.8c-.18.26-.35.53-.51.79-.34.54-.66,1.07-.94,1.56-.06-.35-.13-.7-.19-1a32.25,32.25,0,0,1,3.21-4.55.33.33,0,0,1,.48,0A.34.34,0,0,1,24.29,40Z"/><path class="cls-14" d="M21.61,43.61a.33.33,0,0,1-.33-.27.34.34,0,0,1,.26-.41,20.25,20.25,0,0,1,2.7-.36.35.35,0,1,1,.05.69,19.46,19.46,0,0,0-2.6.34Z"/><path class="cls-6" d="M65.92,58h0a48.09,48.09,0,0,0-2.09-6.45c-.75-1.92-1.61-3.76-2.51-5.55-.08-.16-.15-.32-.23-.47-1-1.94-2-3.82-3.09-5.66s-2.13-3.65-3.2-5.44a4,4,0,0,0-3.15-1.94c-1.43,2-1.41,6.71-1.21,9.82,1.23,2.1,2.35,4.37,3.41,6.57.37.77.76,1.59,1.14,2.42.5,1.09,1,2.19,1.39,3.2a41.65,41.65,0,0,1,1.4,4.07l.09.34c0,.08,0,.16-.07.24l-.21.6c-.26.71-.55,1.43-.85,2.14-.62,1.43-1.32,2.86-2.08,4.26-.38.7-.78,1.39-1.18,2.08s-.84,1.37-1.28,2-.79,1.2-1.2,1.8v6.49a2.75,2.75,0,0,0,2.57-.77q1.82-1.87,3.52-3.89c.56-.66,1.12-1.35,1.66-2s1.08-1.4,1.6-2.12c1-1.44,2-2.93,2.94-4.49.47-.78.91-1.57,1.33-2.4.22-.41.42-.83.62-1.26.11-.22.21-.44.3-.67l.15-.36.08-.19,0-.1,0-.06,0-.09A4,4,0,0,0,65.92,58Z"/><path class="cls-11" d="M53.51,51.64l-3.77-7s-1.29-2.89-1.81-4.52c-1.11-3.44-.88-4.55-.11-8,.12-.54,1.06-3.1,1.55-3.21C53.71,31.24,61,42.12,61.7,44.27,61.7,44.27,59.05,49.76,53.51,51.64Z"/><path class="cls-15" d="M61.29,58.19a.28.28,0,0,1-.28.28,11.88,11.88,0,0,0-3.21.67c0-.08.05-.16.07-.24l-.09-.34A12,12,0,0,1,61,57.91.29.29,0,0,1,61.29,58.19Z"/><path class="cls-15" d="M58.55,58.89a.35.35,0,0,1-.13,0,.27.27,0,0,1-.08-.38,11.69,11.69,0,0,1,1.77-1.86.28.28,0,0,1,.39,0,.28.28,0,0,1,0,.4,12.59,12.59,0,0,0-1.66,1.74A.3.3,0,0,1,58.55,58.89Z"/><path class="cls-6" d="M49.88,77.94s-2.65.24-3,1.14,3.37.77,3.37.77-1.81.33-2,.79c-.29,1,2.31.83,3.49.51s.75-1.4.25-1.42c0,0,.59-1.27-.17-2a1.44,1.44,0,0,0-.14-2s.82-1.61-.36-1.92c0,0,.06-2.11-.7-2.08v2a22.91,22.91,0,0,0-3.88.32c-1,.29-.81,1.77,2.9,1.67,0,0-3.08.2-3.76,1.11S47.88,78,49.88,77.94Z"/><path class="cls-14" d="M49.68,44.52c0,.42,0,.84,0,1.26-.26-.44-.55-.92-.86-1.41-.16-.26-.33-.52-.51-.79a25.94,25.94,0,0,0-2.08-2.79.35.35,0,0,1,0-.49.36.36,0,0,1,.49,0A31.32,31.32,0,0,1,49.68,44.52Z"/><path class="cls-14" d="M48.8,44.38A18.8,18.8,0,0,0,46.2,44a.33.33,0,0,1-.32-.36.34.34,0,0,1,.36-.32,18.51,18.51,0,0,1,2.7.36.34.34,0,0,1,.27.4S49.11,44.46,48.8,44.38Z"/><path class="cls-17" d="M26.45,8.2s-3.1-4-1.1-6.86,6.09-.22,6.09-.22,4.42-1.55,7-.22a4.5,4.5,0,0,1,2.66,3.43A3.61,3.61,0,0,1,42.51,7.1a7.13,7.13,0,0,1-1.09,3.42Z"/><path class="cls-6" d="M27.66,12.52a1.64,1.64,0,0,0-2.28,1.41c-.45,2.16,1.82,4.43,3.63,3.69C29,17.62,28.59,13.43,27.66,12.52Z"/><path class="cls-15" d="M28.54,16.81a.23.23,0,0,1-.23-.2,4.07,4.07,0,0,0-1.51-2.44.24.24,0,1,1,.26-.4,4.4,4.4,0,0,1,1.72,2.76.25.25,0,0,1-.19.28Z"/><path class="cls-15" d="M26.69,15.64a.23.23,0,0,1-.2-.13.24.24,0,0,1,.1-.32,2.61,2.61,0,0,1,1.44-.3.24.24,0,0,1-.09.47,2.12,2.12,0,0,0-1.13.26Z"/><path class="cls-6" d="M40.6,12.52a1.64,1.64,0,0,1,2.28,1.41c.46,2.16-1.81,4.43-3.63,3.69C39.25,17.62,39.68,13.43,40.6,12.52Z"/><path class="cls-15" d="M39.72,16.81a.23.23,0,0,0,.23-.2,4.07,4.07,0,0,1,1.51-2.44.24.24,0,1,0-.26-.4,4.4,4.4,0,0,0-1.72,2.76.25.25,0,0,0,.2.28Z"/><path class="cls-15" d="M41.57,15.64a.24.24,0,0,0,.1-.45,2.61,2.61,0,0,0-1.44-.3.24.24,0,0,0-.19.28.25.25,0,0,0,.28.19,2.12,2.12,0,0,1,1.13.26Z"/><path class="cls-6" d="M38.45,25.52a6.21,6.21,0,0,1-7.93,0l.09-1.07.47-5.34h6.71l.32,3.09Z"/><path class="cls-17" d="M38.11,22.2c-.77.95-2.93,2.87-7.5,2.25l.47-5.34h6.71Z"/><path class="cls-6" d="M40.88,12.94c-.08.55-.19,1.13-.32,1.72A21.23,21.23,0,0,1,40,16.94c-1.13,3.58-3.16,6.86-6.37,6.22-2.67-.54-4.29-3.31-5.27-6.24-.25-.75-.46-1.52-.63-2.26-.11-.47-.21-.94-.29-1.38-.21-1.09-.33-2-.41-2.77a2.3,2.3,0,0,1,1-2.14c5.37-3.8,12.56-1.3,13,.86A12.85,12.85,0,0,1,40.88,12.94Z"/><path class="cls-17" d="M36,12s.12-1.11,1-1.16,2.18.36,2.12,1.49Z"/><path class="cls-17" d="M32.94,12s-.12-1.11-1-1.16-2.18.36-2.12,1.49Z"/><path class="cls-17" d="M41.59,8.72c-.05,2.18-1,6.43-1.36,6.27s0-2.87,0-3.69L40,9.1l.41-.87a10.7,10.7,0,0,0-6.08-1.46,13.39,13.39,0,0,0-5.83,1.48l.43.85c-.06.67-.66,3.29-.66,3.29,0,.31-.17,2.49-.35,2.43-.36-.12-.91-4.08-1.16-4.77a4.85,4.85,0,0,1-.22-1.8c.1-1.53.89-3.67,4.11-5.12,3.91-1.76,10.32-.65,11,4.9A5,5,0,0,1,41.59,8.72Z"/><path class="cls-17" d="M41.59,8.72,40,9.1l.41-.87a10.7,10.7,0,0,0-6.08-1.46,13.39,13.39,0,0,0-5.83,1.48l.43.85-2.39-.85c-.23-1.41.66-4.11,3.88-5.56C34.28.92,41.1,2,41.57,8A5,5,0,0,1,41.59,8.72Z"/><path class="cls-15" d="M31.38,15.24c0,.38-.59.69-1.33.7s-1.35-.29-1.35-.67.59-.69,1.33-.7S31.38,14.86,31.38,15.24Z"/><path class="cls-15" d="M39.75,15.24c0,.38-.59.69-1.33.7s-1.34-.29-1.35-.67.59-.69,1.33-.7S39.75,14.86,39.75,15.24Z"/><path class="cls-17" d="M41,12.82c-.08.55-.31,1.25-.44,1.84A21.23,21.23,0,0,1,40,16.94c-1.13,3.58-3.16,6.86-6.37,6.22-2.67-.54-4.29-3.31-5.27-6.24-.25-.75-.46-1.52-.63-2.26-.11-.47-.29-1.16-.37-1.6h.87s1.11,4.55,2.58,4.84,1.13-1.12,4-.16a2.86,2.86,0,0,1,2.57-.15c1.23.53,1.57-.18,2-.92s.76-3.85.76-3.85Z"/><path class="cls-11" d="M32.12,18.32a15.25,15.25,0,0,0,4.73,0,2.72,2.72,0,0,1-2.43,1.93C32.85,20.25,32.12,18.32,32.12,18.32Z"/><path class="cls-17" d="M32.18,13.73c0,.37-.15.68-.36.68s-.38-.3-.38-.67.15-.68.36-.68S32.18,13.35,32.18,13.73Z"/><path class="cls-17" d="M36.62,13.73c0,.37.15.68.36.68s.38-.3.39-.67-.16-.68-.36-.68S36.63,13.35,36.62,13.73Z"/><path class="cls-15" d="M34.67,17a2.87,2.87,0,0,1-.68-.09.21.21,0,0,1-.16-.26.21.21,0,0,1,.26-.16,2.35,2.35,0,0,0,.72.08c0-.36-.26-2-.49-3.41a.22.22,0,1,1,.43-.07c.12.76.52,3.29.49,3.58a.38.38,0,0,1-.15.24A.77.77,0,0,1,34.67,17Z"/><path class="cls-5" d="M89,178.75c0,1.17,13.9,2.11,31.06,2.11s31.06-.94,31.06-2.11-13.91-2.11-31.06-2.11S89,177.58,89,178.75Z"/><polygon class="cls-18" points="115.13 159.25 115.13 171.08 109.63 171.26 109.26 155.55 115.13 159.25"/><path class="cls-1" d="M115.38,169.63s-3.84,2.41-5.87-1.3l-14.86,7.89,23.14-.14Z"/><g class="cls-19"><path class="cls-20" d="M97.3,171.52s5.71.86,5.27,8l-9.88-2.71Z"/></g><rect class="cls-20" x="94.66" y="176.15" width="23.14" height="2.02" transform="translate(-1.08 0.65) rotate(-0.35)"/><path class="cls-20" d="M107.75,172.19a.31.31,0,0,1-.16-.12,8.18,8.18,0,0,0-1.81-1.77.35.35,0,0,1-.11-.51.4.4,0,0,1,.54-.1,8.68,8.68,0,0,1,2,1.95.36.36,0,0,1-.09.51A.4.4,0,0,1,107.75,172.19Z"/><path class="cls-20" d="M105.86,173.14a.48.48,0,0,1-.16-.12,8.18,8.18,0,0,0-1.81-1.77.35.35,0,0,1-.11-.51.4.4,0,0,1,.54-.1,8.5,8.5,0,0,1,2,1.94.37.37,0,0,1-.09.52A.4.4,0,0,1,105.86,173.14Z"/><path class="cls-20" d="M104,174.08a.31.31,0,0,1-.16-.12A7.93,7.93,0,0,0,102,172.2a.37.37,0,0,1-.11-.52.4.4,0,0,1,.54-.1,9,9,0,0,1,2,1.95.36.36,0,0,1-.09.51A.4.4,0,0,1,104,174.08Z"/><path class="cls-21" d="M112.2,69.6s-9.82,11.65-6.66,42.78l2.53,51.94h8L121.3,69.6Z"/><polygon class="cls-18" points="126.18 159.25 126.18 171.08 131.68 171.26 132.05 155.55 126.18 159.25"/><path class="cls-1" d="M125.92,169.63s3.85,2.41,5.88-1.3l14.85,7.89-23.14-.14Z"/><g class="cls-22"><path class="cls-20" d="M144,171.52s-5.72.86-5.28,8l9.89-2.71Z"/></g><rect class="cls-20" x="134.06" y="165.59" width="2.02" height="23.14" transform="translate(-42.91 311.15) rotate(-89.65)"/><path class="cls-20" d="M133.56,172.19a.36.36,0,0,0,.16-.12,8.18,8.18,0,0,1,1.81-1.77.35.35,0,0,0,.1-.51.39.39,0,0,0-.53-.1,8.47,8.47,0,0,0-2,1.95.35.35,0,0,0,.08.51A.42.42,0,0,0,133.56,172.19Z"/><path class="cls-20" d="M135.45,173.14a.61.61,0,0,0,.16-.12,8.18,8.18,0,0,1,1.81-1.77.36.36,0,0,0,.11-.51.41.41,0,0,0-.54-.1,8.5,8.5,0,0,0-2,1.94.36.36,0,0,0,.08.52A.42.42,0,0,0,135.45,173.14Z"/><path class="cls-20" d="M137.34,174.08a.36.36,0,0,0,.16-.12,7.71,7.71,0,0,1,1.81-1.76.37.37,0,0,0,.11-.52.41.41,0,0,0-.54-.1,9,9,0,0,0-2,1.95.35.35,0,0,0,.08.51A.42.42,0,0,0,137.34,174.08Z"/><path class="cls-21" d="M129.65,69.6s9.83,11.65,6.66,42.78l-2.53,51.94h-8.86L120.56,69.6Z"/><rect class="cls-21" x="113.59" y="75.96" width="15.35" height="15.35" transform="translate(242.54 167.28) rotate(-180)"/><line class="cls-23" x1="119.03" y1="91.32" x2="126.11" y2="90.88"/><path class="cls-24" d="M83,34.74l-3.47,1.09L86.89,58.7a4.2,4.2,0,0,0,6.18,2.21h0a4.2,4.2,0,0,0,1.45-5.61Z"/><path class="cls-24" d="M82.87,34l-.27-.9a8.24,8.24,0,0,0-1.9-3.24l-1.55-1.62a.86.86,0,0,0-1.31.09h0a1.1,1.1,0,0,0-.06,1.23l1.24,2-7.18-3.92a.67.67,0,0,0-1,.31l-.1.25A.68.68,0,0,0,71,29l4.73,2.81-5.88-2.48a.68.68,0,0,0-.93.38l-.06.18a.67.67,0,0,0,.33.82L74.3,33.2l-4.27-1a.66.66,0,0,0-.84.6v.09a.67.67,0,0,0,.44.66L74,34.9l-2.41-.2a.67.67,0,0,0-.8.8h0a.65.65,0,0,0,.44.48l11,3.38.68-2.52A5.1,5.1,0,0,0,82.87,34Z"/><path class="cls-25" d="M79,31.55a4.38,4.38,0,0,0,.77,3.64"/><path class="cls-26" d="M108.18,35.92s-6,1.51-15,15.38l-4.2-12-9.59,4.29L85.9,61a6.81,6.81,0,0,0,11,2.62c2.84-2.66,12-12.74,13.79-16.15Z"/><path class="cls-24" d="M137.64,67.56s-4.55,1.28-2.13,6.2c2.17,4.44,6,5.36,9.09,4.62a.87.87,0,0,0,.56-1.23h0a.89.89,0,0,0-.81-.5c-1.13,0-3.16-.16-3.72-1.68-.73-2,.31-4.17-.84-6.21Z"/><polygon class="cls-24" points="137.64 67.56 140.37 63.03 144.4 65.29 139.48 70.65 137.64 67.56"/><path class="cls-26" d="M137.67,37.93s7.72,3.81,17.28,13.55a3.82,3.82,0,0,1,1,3.77c-.74,2.44-3.23,6.51-11,11.83l-6.77-3.45,5.92-7.87-11.31-4.69Z"/><polygon class="cls-20" points="107.13 77.07 133.81 77.39 130.74 36.28 110.14 36.28 107.13 77.07"/><path class="cls-26" d="M132,35l5.64,2.93S132.41,57.05,140,86.52L133.45,88A173.52,173.52,0,0,1,127,37Z"/><path class="cls-26" d="M109,35l-3.26,2.12A2.59,2.59,0,0,0,104.31,40c1.09,5.6,3.39,22.7-2.79,46.61l6.58,1.52A164.49,164.49,0,0,0,115,37Z"/><path class="cls-24" d="M117.76,28.56a6.79,6.79,0,0,0,2.29,1.26,3,3,0,0,0,2.17-.52l1.28-.88.52,6.33-.14.14a4.46,4.46,0,0,1-6.41.06l-.27-.26Z"/><path class="cls-24" d="M113.6,18.74a28.8,28.8,0,0,0,.79,6.81,5.94,5.94,0,0,0,3.1,3.74l.29.17a5.77,5.77,0,0,0,5.58.09h0a6.05,6.05,0,0,0,3.33-4,42.64,42.64,0,0,0,.78-6.78s.58-7.43-6.9-7.33S113.6,18.74,113.6,18.74Z"/><ellipse class="cls-27" cx="123.76" cy="20.78" rx="0.61" ry="0.78"/><ellipse class="cls-27" cx="117.82" cy="20.78" rx="0.61" ry="0.78"/><polyline class="cls-28" points="121.34 22.42 121.34 23.51 120.61 23.51"/><path d="M126,18.4l-4-.36s.35-1,2-.86A2.23,2.23,0,0,1,126,18.4Z"/><path d="M115.82,18.4l4-.36s-.36-1-2-.86A2.22,2.22,0,0,0,115.82,18.4Z"/><path class="cls-29" d="M123.16,24.39a3.3,3.3,0,0,1-2.62.56"/><path class="cls-20" d="M127.27,16.07s-4.87-3.77-13.68,0a7,7,0,0,1,13.68,0Z"/><path class="cls-30" d="M115.43,31.49l5.19-1.24,5,1.24s5.21-6.71,4.51-13.32a10.29,10.29,0,0,0-6.48-8.57,8.52,8.52,0,0,0-6.3,0,10.31,10.31,0,0,0-6.4,8.56C110.29,24.78,115.43,31.49,115.43,31.49Zm-1.36-12.7a7.36,7.36,0,0,1,3.2-5.53,5.49,5.49,0,0,1,6.62,0,7.36,7.36,0,0,1,3.2,5.53c.21,4.56-1.55,8.72-5,10.45a3.22,3.22,0,0,1-2.87,0C115.77,27.54,113.86,23.37,114.07,18.79Z"/><path class="cls-30" d="M125.12,30.23l7,4.64s-9,7.46-23.52.39l7.31-5Z"/><path class="cls-31" d="M125.66,30.74a6.35,6.35,0,0,1-5,1.61"/><path class="cls-31" d="M126,34.67a18.09,18.09,0,0,1-14.39-1.19"/><path class="cls-31" d="M123.54,30.48a5.92,5.92,0,0,1-4.84-1.35"/><path class="cls-31" d="M115.43,30.74a2.21,2.21,0,0,0,1.77,1"/><path class="cls-15" d="M123,22.44c0,.32.49.58,1.11.59s1.12-.24,1.12-.56-.49-.58-1.11-.58S123,22.13,123,22.44Z"/><path class="cls-15" d="M116,22.44c0,.32.49.58,1.11.59s1.12-.24,1.12-.56-.49-.58-1.11-.58S116,22.13,116,22.44Z"/><path class="cls-5" d="M149.46,178.14c0,1.2,18.23,2.18,40.72,2.18s40.72-1,40.72-2.18S212.67,176,190.18,176,149.46,176.93,149.46,178.14Z"/><path class="cls-32" d="M181.63,54.72,175,79.57l-3.56-.37s1.93-15.48,3.78-25.8a3.56,3.56,0,0,1,4.1-2.45h0A3.42,3.42,0,0,1,181.63,54.72Z"/><path class="cls-32" d="M174.62,77.89a8,8,0,0,1,.35,6.29l.63,3.46a1.16,1.16,0,0,1-.67,1.28h0a1,1,0,0,1-1.29-.62l-.7-2-.13.73a5.61,5.61,0,0,0,.5,3.39l1.48,2.93a1.13,1.13,0,0,1,0,1.07h0a.94.94,0,0,1-1.61.08L170.75,91a6.25,6.25,0,0,1-.88-4.82l2-9.06Z"/><path class="cls-32" d="M213.42,54.85l9.07,24.07,3.5-.71S222.56,63,219.71,52.9a3.56,3.56,0,0,0-4.31-2h0A3.42,3.42,0,0,0,213.42,54.85Z"/><path class="cls-32" d="M222.65,77.22a8,8,0,0,0,.26,6.3L222.62,87a1.17,1.17,0,0,0,.8,1.2h0a1,1,0,0,0,1.22-.74l.51-2,.19.72a5.5,5.5,0,0,1-.17,3.43L224,92.65a1.12,1.12,0,0,0,.15,1.06h0a.93.93,0,0,0,1.61-.07l2-3.77a6.24,6.24,0,0,0,.4-4.89l-2.85-8.82Z"/><path class="cls-33" d="M186.76,9.69S186.13,16,179,21.06C171.36,26.47,177,41.44,191,40.74c15.21-.76,21.52-20.3,11.6-35.14Z"/><path class="cls-34" d="M196.27,26.37l-10.63,3c-3.07.86-5.53,4.11-4.6,7.16l9.57,21.66,16.2-.73L212.51,34c.48-3.19-2.82-6.08-6-6.45Z"/><path class="cls-35" d="M185.64,29.36l10.63-3,10.21,1.16-.21.18a17.88,17.88,0,0,1-20.63,1.65Z"/><path class="cls-34" d="M216.41,34.16l5.13,21.17a2.3,2.3,0,0,1-1.41,3.05L215.27,60a2,2,0,0,1-2.09-.52c-1.78-1.9-4.69-11.84-4.45-19.15l-2.78-5,.53-7.78C211.69,28.16,215.44,31.79,216.41,34.16Z"/><line class="cls-36" x1="209.83" y1="45.47" x2="212.08" y2="38.06"/><line class="cls-37" x1="207.76" y1="65.23" x2="210.51" y2="74.91"/><path class="cls-34" d="M177.42,36.4l-3.59,18.26a2.31,2.31,0,0,0,1.76,2.86l3.78.86c.77.16,1.24,2,1.71,1.34,1.55-2.09,5.75-10.85,4.67-18.09l2.2-5.28-2.31-7C180.54,30.58,178.11,33.93,177.42,36.4Z"/><line class="cls-36" x1="185.25" y1="46.88" x2="182.17" y2="39.78"/><circle class="cls-35" cx="188.9" cy="17" r="2.53"/><path class="cls-38" d="M187.44,16.76s1-.57,2.06,1.09"/><path class="cls-35" d="M200.64,16A2.53,2.53,0,1,0,203,13.27,2.54,2.54,0,0,0,200.64,16Z"/><path class="cls-38" d="M204.55,15.28s-1.05-.38-1.81,1.47"/><ellipse class="cls-33" cx="195.44" cy="10.26" rx="8.71" ry="8.13" transform="translate(-0.17 16.48) rotate(-4.83)"/><path class="cls-35" d="M198.89,21.23a6.12,6.12,0,0,1-2,1.42,2.61,2.61,0,0,1-2-.35l-1.24-.77.24,8.34L194,30a3.83,3.83,0,0,0,5.83-.43l.23-.28Z"/><path class="cls-27" d="M192.77,20.5s1.81,4.73,4.31,4.47c2-.21,2.24-4.78,2.24-4.78Z"/><path class="cls-35" d="M202.45,11.1a29.6,29.6,0,0,1-.21,6.83,6,6,0,0,1-2.77,4l-.28.19a5.72,5.72,0,0,1-5.53.56h0A6,6,0,0,1,190,19a42.32,42.32,0,0,1-1.35-6.67s-1.2-7.33,6.24-7.87S202.45,11.1,202.45,11.1Z"/><polyline class="cls-38" points="195.28 15.51 195.37 16.57 196.1 16.51"/><path d="M189.9,12.1l3.9-.69s-.43-1-2-.69A2.22,2.22,0,0,0,189.9,12.1Z"/><path d="M200.71,11.18l-4,0s.26-1.05,1.87-1A2.2,2.2,0,0,1,200.71,11.18Z"/><path class="cls-39" d="M192.93,14.17c0,.38-.11.69-.32.71s-.41-.27-.44-.64.11-.69.32-.71S192.9,13.8,192.93,14.17Z"/><path class="cls-39" d="M199.14,13.14c0,.37-.12.69-.33.71s-.41-.27-.44-.64.12-.69.33-.71S199.11,12.77,199.14,13.14Z"/><path class="cls-40" d="M193.65,18.24a5.79,5.79,0,0,0,4.37-.36"/><path class="cls-33" d="M202.3,9.42s-10.9,1.33-11-5.12C191.32,4.3,200.62.79,202.3,9.42Z"/><path class="cls-33" d="M188.36,10.6s3.71-1.93,3.38-5.87C191.74,4.73,187.83,5.52,188.36,10.6Z"/><path class="cls-15" d="M193.68,16.65c.06.32-.41.67-1,.78s-1.18-.06-1.24-.38.41-.67,1-.78S193.62,16.33,193.68,16.65Z"/><path class="cls-15" d="M200.8,15.51c.06.32-.41.67-1,.78s-1.18-.06-1.24-.38.41-.67,1-.78S200.74,15.19,200.8,15.51Z"/><path class="cls-26" d="M216.67,173l4.8,2.65a1.38,1.38,0,0,1,.66,1.53c-.12.48-.53.84-1.6.87-2.38,0-12.89-1.71-12.89-1.71v1.35h-4.91s-.31-7,1.18-7.88Z"/><path class="cls-41" d="M210.23,168.71l6.44,4.31s-.83,2.38-4.5.79-8.26-4-8.26-4l.67-1.81Z"/><polygon class="cls-41" points="204.58 168.03 203.91 148.02 210.29 148.44 210.29 170.78 204.58 168.03"/><path class="cls-26" d="M162,173l-4.8,2.65a1.38,1.38,0,0,0-.66,1.53c.12.48.53.84,1.6.87,2.38,0,12.89-1.71,12.89-1.71v1.41l4.84-.06s.38-7-1.11-7.87Z"/><path class="cls-41" d="M168.45,168.71,162,173s.83,2.38,4.5.79,8.26-4,8.26-4L174.1,168Z"/><polygon class="cls-41" points="174.1 168.03 179.14 148.02 172.76 148.44 167.84 171.24 174.1 168.03"/><path class="cls-42" d="M206.81,57.45s8.71,12.48,8.48,26.13S212.2,162,212.2,162H201.83l-3.28-84.6-1.37-.08L178.44,162l-9.68-1L180,84.37A62.14,62.14,0,0,1,184,70a49.93,49.93,0,0,1,6.69-11.87Z"/><line class="cls-43" x1="194.09" y1="78.01" x2="200.72" y2="76.86"/><line class="cls-37" x1="188.83" y1="65.66" x2="185.63" y2="74.87"/></g></g></g></svg>