<svg xmlns="http://www.w3.org/2000/svg" viewBox="0 0 328.33 261.74"><defs><style>.cls-1{fill:#46c7ce;opacity:0.25;}.cls-2{fill:#c2c2c2;}.cls-3{fill:#dcdcdc;}.cls-4{fill:#f5f5f5;}.cls-5{fill:#e1e1e1;}.cls-6{fill:#75c189;}</style></defs><g id="Layer_2" data-name="Layer 2"><g id="Option_1" data-name="Option 1"><path class="cls-1" d="M238.88,231.42s118.45-35.23,82.74-105.32C300.48,84.62,243.87,98,216.19,53.55,180.49-3.82,130.73-8.51,83,9,47.14,22.08,46.48,24.56,24.76,38.61c-56.34,36.46,1.09,114.44,1.09,114.44S102.43,276.22,238.88,231.42Z"/><rect class="cls-2" x="91.71" y="26.45" width="153.79" height="225.78" transform="translate(-17.59 24.56) rotate(-7.92)"/><rect class="cls-3" x="80.71" y="18.9" width="153.79" height="225.78" transform="translate(-16.66 22.97) rotate(-7.92)"/><rect class="cls-4" x="68.66" y="15.84" width="153.79" height="221.46" transform="translate(-16.05 21.26) rotate(-7.92)"/><path class="cls-3" d="M182.94,233.16S220,212.82,231.1,186.09A41.08,41.08,0,0,1,200.73,197S194.21,226,182.94,233.16Z"/><path class="cls-5" d="M200,63.29c0,.14-27,4-60.44,8.67S79,80.26,79,80.12s27-4,60.45-8.67S199.93,63.15,200,63.29Z"/><path class="cls-5" d="M202.17,79.21c0,.14-27,4-60.44,8.67S81.23,96.18,81.21,96s27-4,60.44-8.67S202.15,79.06,202.17,79.21Z"/><path class="cls-5" d="M204.38,95.12c0,.14-27,4-60.44,8.67s-60.5,8.3-60.52,8.16,27-4,60.45-8.67S204.36,95,204.38,95.12Z"/><path class="cls-5" d="M206.59,111c0,.14-27,4-60.44,8.67s-60.49,8.3-60.51,8.15,27-4,60.44-8.67S206.57,110.89,206.59,111Z"/><path class="cls-5" d="M208.81,127c0,.14-27.05,4-60.44,8.67s-60.5,8.3-60.52,8.16,27-4,60.45-8.67S208.79,126.81,208.81,127Z"/><path class="cls-5" d="M211,142.87c0,.14-27,4-60.44,8.67s-60.5,8.3-60.52,8.15,27-4,60.45-8.67S211,142.72,211,142.87Z"/><path class="cls-5" d="M213.24,158.78c0,.14-27.05,4-60.44,8.67s-60.5,8.3-60.52,8.16,27-4,60.44-8.67S213.22,158.64,213.24,158.78Z"/><path class="cls-5" d="M215.45,174.7c0,.14-27,4-60.44,8.67s-60.5,8.3-60.52,8.15,27-4,60.45-8.67S215.43,174.55,215.45,174.7Z"/><path class="cls-6" d="M169.94,161.17c-.15.06-1-1.86-2.39-5.41s-3.36-8.71-5.74-15.16c-4.76-12.9-11.24-30.91-18.41-51.26l2.34.2c-1.49,2.74-3.09,5.63-4.62,8.61-2.73,5.27-5.28,10.48-7.57,15.59s-4.42,10.08-6.32,14.86c-3.78,9.58-6.76,18.37-9,25.82s-3.89,13.56-5,17.78-1.75,6.56-1.93,6.52.15-2.44.94-6.75,2.17-10.5,4.23-18.06,4.89-16.48,8.57-26.18c1.86-4.84,3.91-9.89,6.23-15s4.83-10.43,7.59-15.74c1.54-3,3.16-5.91,4.68-8.67a1.3,1.3,0,0,1,1.75-.51,1.26,1.26,0,0,1,.59.7h0c7.1,20.38,13.28,38.49,17.61,51.54,2.17,6.53,3.87,11.79,5,15.43S170.1,161.12,169.94,161.17Z"/><path class="cls-6" d="M161.32,130.66c.12.71-13.08,3.57-29.48,6.39s-29.81,4.53-29.93,3.82,13.08-3.57,29.49-6.39S161.2,130,161.32,130.66Z"/><path class="cls-6" d="M157.56,75.48s.27-.19.86-.43l1.09-.44c.45-.16,1-.3,1.57-.48a23.7,23.7,0,0,1,4.53-.79,22.49,22.49,0,0,1,6.28.49,24.72,24.72,0,0,1,7.31,3,34.22,34.22,0,0,1,7.15,6.08,46.09,46.09,0,0,1,6.19,8.81,20.16,20.16,0,0,1,1.24,2.66l1.09,2.78.92,2.92c.32,1,.51,2,.77,3a55.5,55.5,0,0,1,1.3,13.22A69.47,69.47,0,0,1,196,130.63a102.91,102.91,0,0,1-4.65,14.62c-.46,1.23-1,2.44-1.51,3.68s-1.15,2.46-1.72,3.7-1.31,2.42-2,3.6-1.45,2.38-2.31,3.49a79.69,79.69,0,0,1-26.21,23,78.29,78.29,0,0,1-17.09,7.25,48.47,48.47,0,0,1-19.17,1.61,30.67,30.67,0,0,1-9.45-2.81,24.25,24.25,0,0,1-7.76-6,29.74,29.74,0,0,1-5-8.2,44.84,44.84,0,0,1-2.61-9A81.93,81.93,0,0,1,98,130.75a92.85,92.85,0,0,1,5.47-15.35c1.08-2.41,2.33-4.7,3.54-7l2-3.27c.63-1.09,1.38-2.1,2.06-3.14A90.48,90.48,0,0,1,120,90.83a86,86,0,0,1,9.66-9c1.61-1.36,3.32-2.5,4.93-3.69l2.5-1.61,1.22-.78,1.25-.71L142,73.64l2.44-1.21c1.58-.84,3.21-1.44,4.73-2.13a86.79,86.79,0,0,1,16.39-4.82A106.58,106.58,0,0,1,176.22,64a20.77,20.77,0,0,1,3.75-.15,19.85,19.85,0,0,1-3.69.67c-2.42.38-6,1-10.51,2a90.64,90.64,0,0,0-16,5.18c-1.48.7-3.06,1.32-4.6,2.17l-2.36,1.23-2.37,1.4-1.21.71L138,78l-2.42,1.61c-1.56,1.18-3.22,2.33-4.77,3.68a86.6,86.6,0,0,0-9.34,9,89.23,89.23,0,0,0-8.62,11c-.65,1-1.37,2-2,3.08L109,109.53c-1.16,2.21-2.36,4.46-3.39,6.82a91.08,91.08,0,0,0-5.24,15A80.05,80.05,0,0,0,99,165.11c1.09,5.72,3.16,11.47,7,15.93a21.9,21.9,0,0,0,7,5.36,28,28,0,0,0,8.65,2.56,46.16,46.16,0,0,0,18.13-1.53,76.94,76.94,0,0,0,16.53-7,78,78,0,0,0,25.51-22.13c.83-1.07,1.49-2.24,2.24-3.34s1.32-2.3,2-3.44,1.16-2.34,1.68-3.54,1.06-2.4,1.52-3.61a103.16,103.16,0,0,0,4.67-14.27,59.82,59.82,0,0,0,.85-26.58c-.24-1-.4-2-.7-3s-.57-1.91-.84-2.84-.68-1.81-1-2.7a18.63,18.63,0,0,0-1.12-2.54,46.22,46.22,0,0,0-5.82-8.62,33.32,33.32,0,0,0-6.73-6,23.67,23.67,0,0,0-6.88-3.09,22.91,22.91,0,0,0-6-.71,26.88,26.88,0,0,0-4.44.53c-.59.13-1.12.23-1.57.35l-1.12.31A2.8,2.8,0,0,1,157.56,75.48Z"/><path class="cls-6" d="M168.57,122c-.72,0-.93-8.37-.48-18.63s1.39-18.54,2.11-18.51.94,8.37.49,18.63S169.29,122,168.57,122Z"/><path class="cls-6" d="M181.84,100.13c.21.68-5.37,3-12.55,4.76s-13.17,2.43-13.31,1.73,5.57-2.46,12.68-4.25S181.63,99.43,181.84,100.13Z"/></g></g></svg>