<svg xmlns="http://www.w3.org/2000/svg" xmlns:xlink="http://www.w3.org/1999/xlink" viewBox="0 0 343.3 265.68"><defs><style>.cls-1{fill:none;}.cls-2{isolation:isolate;}.cls-20,.cls-3{fill:#75c189;}.cls-3{opacity:0.3;}.cls-4{fill:#005a5b;}.cls-5{fill:#33918e;}.cls-6{fill:#eaeaea;mix-blend-mode:multiply;}.cls-7{fill:#00302d;}.cls-8{fill:#ccd3e6;}.cls-9{fill:#384e4f;}.cls-10{fill:#f16854;}.cls-11{fill:#ffbf6b;}.cls-12{fill:#5a7b7b;}.cls-13{fill:#fff;}.cls-14{fill:#008280;}.cls-15{fill:#58b2dd;}.cls-16{fill:#fa5;}.cls-17{fill:#f1cec3;}.cls-18{fill:#f3e3df;}.cls-19{fill:#ff9e8d;}.cls-21{fill:#ff9036;}.cls-22{fill:#55a062;}.cls-23{fill:#eb7466;}.cls-24{fill:#1e1e1e;}.cls-25{fill:#fb6260;}.cls-26{fill:#d44033;}.cls-27{fill:#dc7024;}.cls-28{clip-path:url(#clip-path);}</style><clipPath id="clip-path" transform="translate(0 -11.57)"><rect class="cls-1" x="114.61" width="147.39" height="182.21" transform="translate(376.61 182.21) rotate(-180)"/></clipPath></defs><g class="cls-2"><g id="Layer_2" data-name="Layer 2"><g id="Option_1" data-name="Option 1"><path class="cls-3" d="M158.2,29.19c94.52-11.26,139.38,14.24,139.38,14.24S363.15,68,337.23,155.71C316.61,225.51,220.87,292,167.89,274.37s-52-48-112.27-84.64S4,117.28,11.82,98.73C11.82,98.73,36.42,43.71,158.2,29.19Z" transform="translate(0 -11.57)"/><path class="cls-4" d="M34.56,160.6a.5.5,0,0,0,0-.27c-.72-5,3.09-8.38,3.13-8.41a.5.5,0,1,0-.66-.76c-.17.16-4.26,3.79-3.47,9.31a.51.51,0,0,0,.57.43A.51.51,0,0,0,34.56,160.6Z" transform="translate(0 -11.57)"/><path class="cls-5" d="M36.26,153.6A2.43,2.43,0,1,0,35,150.42,2.42,2.42,0,0,0,36.26,153.6Z" transform="translate(0 -11.57)"/><ellipse class="cls-6" cx="172.77" cy="239.49" rx="165.81" ry="11.14"/><rect class="cls-7" x="39.81" y="57.99" width="266.77" height="165.41" rx="10.1"/><path class="cls-8" d="M294.72,87.18V208.29a6.68,6.68,0,0,1-6.88,6.45H58.55a7.08,7.08,0,0,1-5.13-2.14,6.17,6.17,0,0,1-1.76-4.31V87.18a6.68,6.68,0,0,1,6.89-6.45H287.84a7.11,7.11,0,0,1,3.48.89A6.37,6.37,0,0,1,294.72,87.18Z" transform="translate(0 -11.57)"/><path class="cls-9" d="M331.49,229.22v.92a20.93,20.93,0,0,1-20.93,20.93H35.82a20.93,20.93,0,0,1-20.93-20.93v-.92Z" transform="translate(0 -11.57)"/><path class="cls-7" d="M175.53,240.14a3,3,0,1,1-3-3A3,3,0,0,1,175.53,240.14Z" transform="translate(0 -11.57)"/><path class="cls-7" d="M164.84,240.14a3,3,0,1,1-3-3A3,3,0,0,1,164.84,240.14Z" transform="translate(0 -11.57)"/><path class="cls-7" d="M186.22,240.14a3,3,0,1,1-3-3A3,3,0,0,1,186.22,240.14Z" transform="translate(0 -11.57)"/><path class="cls-10" d="M292.35,240.14a3,3,0,1,1-3-3A3,3,0,0,1,292.35,240.14Z" transform="translate(0 -11.57)"/><path class="cls-11" d="M303,240.14a3,3,0,1,1-3-3A3,3,0,0,1,303,240.14Z" transform="translate(0 -11.57)"/><path class="cls-12" d="M137.71,229.22v.21a2.78,2.78,0,0,0,2.48,3h64.63a2.78,2.78,0,0,0,2.48-3v-.21Z" transform="translate(0 -11.57)"/><path class="cls-13" d="M294.72,87.62v7.62H51.66V87.62a6.89,6.89,0,0,1,6.89-6.89H287.84a6.83,6.83,0,0,1,5.64,3A6.76,6.76,0,0,1,294.72,87.62Z" transform="translate(0 -11.57)"/><path class="cls-14" d="M275.16,88.36a1.83,1.83,0,1,1-1.82-1.82A1.82,1.82,0,0,1,275.16,88.36Z" transform="translate(0 -11.57)"/><path class="cls-15" d="M281.07,88.36a1.83,1.83,0,1,1-1.83-1.82A1.82,1.82,0,0,1,281.07,88.36Z" transform="translate(0 -11.57)"/><path class="cls-16" d="M286.69,88.36a1.83,1.83,0,1,1-1.83-1.82A1.82,1.82,0,0,1,286.69,88.36Z" transform="translate(0 -11.57)"/><rect class="cls-17" x="75.33" y="74.86" width="188.83" height="3.86" rx="1.84"/><path class="cls-7" d="M63.18,88.36v1.78a.33.33,0,0,1-.49.29l-1.55-.9-1.54-.89a.33.33,0,0,1,0-.57l1.54-.89,1.55-.89a.32.32,0,0,1,.49.28Z" transform="translate(0 -11.57)"/><path class="cls-7" d="M65.89,88.36v1.78a.34.34,0,0,0,.5.29l1.54-.9,1.55-.89a.34.34,0,0,0,0-.57l-1.55-.89-1.54-.89a.33.33,0,0,0-.5.28Z" transform="translate(0 -11.57)"/><rect class="cls-13" x="89.55" y="89.73" width="176.54" height="99.1" rx="4.14"/><path class="cls-17" d="M231.81,170.82a3.47,3.47,0,0,0,.47,1.81c.15.26.31.51.45.77l2.48,4.46,1.62-2.92c.43-.78.9-1.53,1.35-2.29a3.48,3.48,0,0,0,.48-1.75,3.43,3.43,0,0,0-6.85-.08Zm2-.33a1.45,1.45,0,1,1,1.44,1.45A1.44,1.44,0,0,1,233.79,170.49Z" transform="translate(0 -11.57)"/><path class="cls-17" d="M218.07,172.77a5.14,5.14,0,1,0,5.14-5.14A5.14,5.14,0,0,0,218.07,172.77Zm2.88,1.89a6.46,6.46,0,0,1-.27-1.8H223v1.8Zm1.21,2.71a4.7,4.7,0,0,1-3.07-2.29h1.56a6.11,6.11,0,0,0,.89,1.63A4.35,4.35,0,0,0,222.16,177.37Zm.84-2.29v2.41a4.53,4.53,0,0,1-1.14-1,5.56,5.56,0,0,1-.77-1.37Zm-1.8-4.84a6.62,6.62,0,0,1,1.61-2.18H223v2.19Zm-2,0a4.72,4.72,0,0,1,2.88-2.06,5,5,0,0,0-.65.8,6.75,6.75,0,0,0-.7,1.26Zm1.46,2.21a5.6,5.6,0,0,1,.36-1.8h2v1.8Zm-2.19,0a4.93,4.93,0,0,1,.49-1.8h1.62a6.21,6.21,0,0,0-.33,1.8Zm1.77.41a7.37,7.37,0,0,0,.26,1.8h-1.64a4.82,4.82,0,0,1-.4-1.8Zm5.84,0h1.83a4.82,4.82,0,0,1-.4,1.8h-1.69A7.37,7.37,0,0,0,226.1,172.86Zm-2.69-2.62v-2.19h.13a6,6,0,0,1,1,1.16,6.08,6.08,0,0,1,.58,1Zm1.92.41a5.87,5.87,0,0,1,.35,1.8h-2.27v-1.8Zm.28-.41a7.32,7.32,0,0,0-.69-1.26,7.71,7.71,0,0,0-.67-.82,4.77,4.77,0,0,1,2.94,2.08Zm.08,2.62a6.85,6.85,0,0,1-.28,1.8h-2v-1.8Zm.41-.41a6.58,6.58,0,0,0-.34-1.8h1.67a4.74,4.74,0,0,1,.49,1.8Zm1.22,2.63a4.75,4.75,0,0,1-3.13,2.31,5.89,5.89,0,0,0,.63-.68,5.6,5.6,0,0,0,.89-1.63Zm-2,0a4.9,4.9,0,0,1-1.86,2.38v-2.38Z" transform="translate(0 -11.57)"/><path class="cls-17" d="M247.16,171c0-.44-.43-.67-1-.67a1.69,1.69,0,0,0-1.49,1L242.16,170a4.67,4.67,0,0,1,4.47-2.33c2.25,0,3.93,1,3.93,2.74,0,2.2-2.29,2.59-2.29,3.69h-3C245.31,172.36,247.16,171.85,247.16,171Zm-2.26,5.4a1.9,1.9,0,0,1,3.78,0,1.9,1.9,0,0,1-3.78,0Z" transform="translate(0 -11.57)"/><rect class="cls-13" x="265.62" y="109" width="11.69" height="36.34" rx="2.32"/><rect class="cls-7" x="267.59" y="123.84" width="6.42" height="4.96" rx="1.66"/><polygon class="cls-7" points="275.87 123.84 275.87 128.79 273.87 127.11 273.87 125.53 275.87 123.84"/><circle class="cls-16" cx="271.73" cy="137.59" r="4.13"/><path class="cls-13" d="M269.78,151.53a.47.47,0,0,0,.31-.12l3.89-3.89a.44.44,0,0,0,0-.62.43.43,0,0,0-.61,0l-3.89,3.89a.44.44,0,0,0,0,.62A.42.42,0,0,0,269.78,151.53Z" transform="translate(0 -11.57)"/><path class="cls-13" d="M273.67,151.53a.47.47,0,0,0,.31-.12.44.44,0,0,0,0-.62l-3.89-3.89a.43.43,0,0,0-.61,0,.44.44,0,0,0,0,.62l3.89,3.89A.42.42,0,0,0,273.67,151.53Z" transform="translate(0 -11.57)"/><path class="cls-7" d="M271.73,123.07h0a1.13,1.13,0,0,1,1.13,1.13v3.65a1.14,1.14,0,0,1-1.14,1.14h0a1.14,1.14,0,0,1-1.14-1.14v-3.65a1.14,1.14,0,0,1,1.14-1.14Z" transform="translate(543.46 240.5) rotate(180)"/><rect class="cls-7" x="271.5" y="127.62" width="0.46" height="2.78" rx="0.23" transform="translate(543.46 246.44) rotate(-180)"/><rect class="cls-7" x="269.45" y="129.63" width="4.56" height="0.98" rx="0.49" transform="translate(543.46 248.67) rotate(180)"/><rect class="cls-18" x="95.45" y="137.58" width="44.75" height="25.12" rx="1.94"/><rect class="cls-18" x="210.39" y="98.14" width="44.75" height="25.12" rx="1.94"/><rect class="cls-18" x="210.32" y="138.24" width="44.82" height="2.15" rx="1.03"/><rect class="cls-18" x="210.32" y="129.14" width="44.82" height="2.15" rx="1.03"/><rect class="cls-18" x="210.32" y="147.33" width="44.82" height="2.15" rx="1.03"/><rect class="cls-18" x="95.38" y="116.96" width="44.82" height="2.15" rx="1.03"/><rect class="cls-18" x="95.38" y="107.87" width="44.82" height="2.15" rx="1.03"/><rect class="cls-18" x="95.38" y="126.06" width="44.82" height="2.15" rx="1.03"/><path class="cls-7" d="M89.55,185H266.1v14.48a.92.92,0,0,1-.92.91H90.47a.92.92,0,0,1-.92-.91Z" transform="translate(0 -11.57)"/><path class="cls-13" d="M253.44,190.71V189.4h1.63v-1.16h-2.21a.58.58,0,0,0-.58.58v1.89Z" transform="translate(0 -11.57)"/><path class="cls-13" d="M253.44,193h-1.16v2a.58.58,0,0,0,.58.58h2.21v-1.16h-1.63Z" transform="translate(0 -11.57)"/><path class="cls-13" d="M258.47,190.71h1.16v-1.89a.58.58,0,0,0-.58-.58h-2.13v1.16h1.55Z" transform="translate(0 -11.57)"/><path class="cls-13" d="M258.47,193v1.41h-1.55v1.16h2.13a.58.58,0,0,0,.58-.58v-2Z" transform="translate(0 -11.57)"/><rect class="cls-18" x="89.55" y="170.54" width="176.54" height="2.89"/><path class="cls-7" d="M102.38,106.71h2v4.37H107v1.54h-4.66Z" transform="translate(0 -11.57)"/><path class="cls-7" d="M107.58,106.71h2v5.91h-2Z" transform="translate(0 -11.57)"/><path class="cls-7" d="M116.85,106.71l-2.5,5.91h-2l-2.49-5.91H112l1.41,3.45,1.44-3.45Z" transform="translate(0 -11.57)"/><path class="cls-7" d="M122,111.12v1.5H117v-5.91h4.81v1.51H119v.69h2.5v1.43H119v.78Z" transform="translate(0 -11.57)"/><path class="cls-16" d="M99.1,109.62a2.43,2.43,0,1,1-2.43-2.43A2.43,2.43,0,0,1,99.1,109.62Z" transform="translate(0 -11.57)"/><path class="cls-7" d="M30.65,192.53c11.15-.54,21.15-4.09,27.61-2.87s6.36-15.47-.13-20.44c-4.82-3.7,2.29-11.07,2.24-17a11.5,11.5,0,0,0-3-11.28c-4.92-4.83-10-5-15.06-2.52-3.34,1.2-6.59,4.44-7.58,12.63-1.72,14.12-7.41,12-16,23.61C13.67,181.44,19.49,193.07,30.65,192.53Z" transform="translate(0 -11.57)"/><path class="cls-19" d="M60.73,173.42l1.59,2.23,1.57,2.23q1.56,2.24,3.1,4.48c2,3,4.07,6,6,9.16,1,1.56,2,3.15,2.9,4.81.47.83.94,1.67,1.39,2.58.23.45.46.93.69,1.43s.45,1,.68,1.72l0,.06,0,.07,0,.14.08.28.09.33c0,.11,0,.23.07.3s.07.35.1.55.06.41.09.67a9.16,9.16,0,0,1,0,1v.36a1.36,1.36,0,0,1,0,.2,2,2,0,0,1,0,.24,5.65,5.65,0,0,1-.39,1.34c-.07.15-.14.28-.24.47l-.16.26a.51.51,0,0,1-.09.13l-.1.15-.22.28-.27.29-.15.14-.16.15-.34.27a6.32,6.32,0,0,1-.79.47,4.08,4.08,0,0,1-.42.17,3.31,3.31,0,0,1-.41.14l-.2.05-.2.05-.38.06-.19,0h-.94l-.13,0-.24,0-.23,0-.19,0-.19-.05-.32-.1a5.41,5.41,0,0,1-.87-.38l-.29-.17-.13-.07-.11-.08-.11-.07-.1-.07a1.09,1.09,0,0,1-.17-.13c-.23-.17-.4-.31-.56-.45-.31-.27-.54-.51-.77-.74-.43-.45-.79-.87-1.13-1.27-.67-.81-1.26-1.59-1.83-2.37-.29-.39-.57-.77-.85-1.17l-.41-.58-.42-.62a4.91,4.91,0,0,1,8.07-5.58l.06.08.34.5.37.51c.24.34.49.68.74,1,.49.67,1,1.32,1.48,1.89.24.28.47.54.66.74l.2.19,0,0,0,0-.06,0,0,0,0,0-.15-.09a3.92,3.92,0,0,0-.56-.24l-.24-.08L75,201l-.16,0-.19,0-.19,0h-.93l-.16,0a3.43,3.43,0,0,0-.34.06l-.18,0-.19,0-.37.13-.38.16a5.09,5.09,0,0,0-.71.42l-.31.25-.15.13-.13.12-.24.27a2.35,2.35,0,0,0-.19.25.47.47,0,0,0-.09.12L70,203l-.14.22c-.09.16-.14.27-.2.4a4,4,0,0,0-.3,1l0,.15v.31a2.87,2.87,0,0,0,0,.32h0s0-.07,0-.12v0h0s0,0,0,0v0h0v0c-.06-.17-.18-.47-.32-.78s-.3-.65-.48-1c-.35-.69-.76-1.42-1.17-2.15-.84-1.46-1.75-2.95-2.68-4.42-1.87-3-3.85-5.91-5.85-8.84-1-1.46-2-2.92-3-4.38l-1.54-2.17-1.54-2.16,0,0a5,5,0,0,1,8.09-5.81Z" transform="translate(0 -11.57)"/><path class="cls-5" d="M61.26,219.45a4.09,4.09,0,0,1-.18,2.74c-.53.8-4.83,1.63-10.24,2.15l-1,.1c-1.14.1-2.33.18-3.53.25l-.84.05c-9.14.46-19-.07-19.59-2.89-1.13-5.44,2.11-13.67,1.36-22.15-.3-3.42-3.16-10.16-3.42-14.4-.4-6.45-.51-12.5.4-14,.63-1.07,3.39-2,6.37-2.74.92-.23,1.86-.43,2.76-.62,3.09-.62,5.76-1,5.76-1a84.26,84.26,0,0,1,13.34,1.79,19.1,19.1,0,0,1,2.64.85l.32.15,1,.49c5.14,2.48,4.44,2.95,4,6-.58,4.49-1.06,4.22.13,8.12.09.32.2.66.32,1,.29.93.66,2,1.11,3.44a12.83,12.83,0,0,1,.63,3c0,.16,0,.31,0,.46,0,4.66-4.7,4.28-4.7,10.15a42.91,42.91,0,0,0,1.65,10.48,3.74,3.74,0,0,1,.12.45c.49,1.84,1,3.51,1.27,4.93C61.12,218.68,61.2,219.08,61.26,219.45Z" transform="translate(0 -11.57)"/><path class="cls-4" d="M49.25,217.38a17.67,17.67,0,0,1-5.31-.9,22.69,22.69,0,0,1-4.82-2.22.23.23,0,0,1,.25-.39c.08,0,7.85,5,14.35,2.15a.24.24,0,0,1,.19.43A11.44,11.44,0,0,1,49.25,217.38Z" transform="translate(0 -11.57)"/><path class="cls-19" d="M23.79,185.3c-.4-6.45-.51-12.5.4-14,.63-1.07,3.39-2,6.37-2.74C37.05,177.47,30.36,189.74,23.79,185.3Z" transform="translate(0 -11.57)"/><path class="cls-19" d="M60.6,184.33c-3.5-3.92-4.11-10.61-4.18-14.12,5.14,2.48,4.44,2.95,4,6C59.89,180.7,59.41,180.43,60.6,184.33Z" transform="translate(0 -11.57)"/><path class="cls-19" d="M52.42,168.72c-.6,3.18-1.12,9.17-6.14,9.17s-11.3-7.93-13-10a40.5,40.5,0,0,0,6-1.78S47,167.34,52.42,168.72Z" transform="translate(0 -11.57)"/><path class="cls-4" d="M49.79,210.55h-.22a3.87,3.87,0,0,1-2.88-1.29c-1.9-2.11-1.63-6-1.62-6.16a.24.24,0,0,1,.16-.2c2.23-.79,9.18,2,9.47,2.08a.25.25,0,0,1,.15.23C54.85,205.25,54.55,210.55,49.79,210.55Zm-4.26-7.27c0,.75-.05,3.93,1.5,5.66a3.5,3.5,0,0,0,2.56,1.14,4.12,4.12,0,0,0,4.1-2.38,7,7,0,0,0,.68-2.36C53.33,204.94,47.57,202.77,45.53,203.28Z" transform="translate(0 -11.57)"/><path class="cls-4" d="M61,218.26a5.06,5.06,0,0,1-.83,2.38,1.53,1.53,0,0,1-1.42.78c-.73-.12-1.39-1-1.86-2.41-.6-1.87-.54-3.32.18-4.3a3.91,3.91,0,0,1,2.66-1.38,3.74,3.74,0,0,0-.12-.45,4.28,4.28,0,0,0-2.91,1.55c-.82,1.11-.9,2.71-.25,4.73.52,1.61,1.31,2.57,2.22,2.72l.24,0a2.09,2.09,0,0,0,1.63-1,4.67,4.67,0,0,0,.7-1.47C61.2,219.08,61.12,218.68,61,218.26Z" transform="translate(0 -11.57)"/><path class="cls-4" d="M52.44,220.9c-.38-.9-1.47-1.48-3.23-1.73-5.06-.72-5.9,2.88-5.91,2.91a.25.25,0,0,0,0,.17,7.55,7.55,0,0,0,2.12,2.49l.84-.05a6.13,6.13,0,0,1-2.5-2.59c.15-.5,1.15-3.07,5.37-2.47,1.58.22,2.55.71,2.86,1.45a2.26,2.26,0,0,1-.36,1.92,7.87,7.87,0,0,1-1.84,1.44l1-.1a8,8,0,0,0,1.17-1v0A2.7,2.7,0,0,0,52.44,220.9Z" transform="translate(0 -11.57)"/><path class="cls-20" d="M64.26,227.19a150.17,150.17,0,0,1,1.82-15.66,85.8,85.8,0,0,0-10,4.75h0c-1.88,1.14-3.58,2.15-4.82,2.84a10.8,10.8,0,0,1-6.69.85,32.54,32.54,0,0,1-9-2.92s-14.88-6.74-17.67-6.52c-2.17.17,9.5,12.36,19.16,17.36A17.58,17.58,0,0,0,41.77,230c9.45,3,18.32.29,22.46-1.41C64.23,228.14,64.24,227.67,64.26,227.19Z" transform="translate(0 -11.57)"/><polygon class="cls-19" points="91.34 238.5 92.61 246.49 100.08 247 99.3 237.2 91.34 238.5"/><path class="cls-11" d="M117.49,269.75l-26.71,0a3.79,3.79,0,0,1-.35-1.48c-.16-2.26.56-5.87.91-8.14,0-.27.08-.51.11-.74a7.75,7.75,0,0,0,.08-.93,1.37,1.37,0,0,1,1.65-1.53c2.7,2.65,5.76-1.32,7.55,0,0,0,.77.55,2.89,2.46s5.72,3.18,8.79,4.46c4,1.67,5.09,3.32,5.31,4.46A2.11,2.11,0,0,1,117.49,269.75Z" transform="translate(0 -11.57)"/><path class="cls-21" d="M117.49,269.75l-26.71,0a3.79,3.79,0,0,1-.35-1.48l27.29,0A2.11,2.11,0,0,1,117.49,269.75Z" transform="translate(0 -11.57)"/><path class="cls-13" d="M101.13,258s.48-1.17,1.53-.8,1,2.12,1,2.12S103,260.93,101.13,258Z" transform="translate(0 -11.57)"/><path class="cls-13" d="M100.8,263.27a.44.44,0,0,1-.44-.44,5.63,5.63,0,0,1,1.73-4.15.44.44,0,1,1,.57.67,4.73,4.73,0,0,0-1.42,3.48A.44.44,0,0,1,100.8,263.27Z" transform="translate(0 -11.57)"/><path class="cls-13" d="M106.35,259.81a.41.41,0,0,1-.29-.11,5.59,5.59,0,0,0-3.1-.53.44.44,0,0,1-.47-.41.44.44,0,0,1,.41-.47c.28,0,2.73-.14,3.74.76a.44.44,0,0,1,0,.62A.47.47,0,0,1,106.35,259.81Z" transform="translate(0 -11.57)"/><path class="cls-13" d="M102.71,258.1l-.25-.23c-.14-.13-.33-.3-.55-.48l-.14-.11a9.23,9.23,0,0,0-1.79-1.17,3.85,3.85,0,0,0-1.6-.42h0a1.89,1.89,0,0,0-1.38.59,1.35,1.35,0,0,0-.35,1.34s0,.06,0,.09a2,2,0,0,0,.65.86,4.28,4.28,0,0,0,2.1.82,17.64,17.64,0,0,0,2,.16h.18a5.19,5.19,0,0,0,.85,0l.1,0-.18-.91v0h0l.22-.23Zm-2.64.41-.55-.07c-1.16-.16-1.83-.64-2-1.05l0-.08a.44.44,0,0,1,.14-.37.89.89,0,0,1,.7-.29h0a2.29,2.29,0,0,1,.62.1,4.86,4.86,0,0,1,1,.47,11.62,11.62,0,0,1,1.12.77h0a7.88,7.88,0,0,1,.7.6h-.32A13,13,0,0,1,100.07,258.51Z" transform="translate(0 -11.57)"/><path class="cls-13" d="M103.2,259.07l-.41-.86a3,3,0,0,0,1.67-2.17c0-.16-.08-.36-.5-.48a.53.53,0,0,0-.52.06,3.37,3.37,0,0,0-.59,2.24l-.95,0c0-.23,0-2.25,1-3a1.45,1.45,0,0,1,1.37-.22,1.46,1.46,0,0,1,1.18,1.31C105.5,257.14,104.32,258.54,103.2,259.07Z" transform="translate(0 -11.57)"/><path class="cls-21" d="M93.51,269.72h-.8a5.8,5.8,0,0,0,1.44-4.27,7.52,7.52,0,0,0-2.81-5.35c0-.27.08-.51.11-.74a8.16,8.16,0,0,1,3.34,6.06A6.47,6.47,0,0,1,93.51,269.72Z" transform="translate(0 -11.57)"/><path class="cls-13" d="M103.16,260.92a.44.44,0,0,1-.42-.33.44.44,0,0,1,.32-.54l1.67-.41a.44.44,0,0,1,.53.32.43.43,0,0,1-.32.53l-1.67.42Z" transform="translate(0 -11.57)"/><path class="cls-13" d="M104.83,261.89a.44.44,0,0,1-.43-.33.46.46,0,0,1,.33-.54l1.67-.41a.44.44,0,0,1,.53.32.45.45,0,0,1-.32.54l-1.67.41Z" transform="translate(0 -11.57)"/><path class="cls-13" d="M106.5,262.83a.45.45,0,0,1-.43-.34.44.44,0,0,1,.32-.53l1.67-.41a.44.44,0,0,1,.54.32.45.45,0,0,1-.33.53l-1.66.41Z" transform="translate(0 -11.57)"/><path class="cls-13" d="M108.32,263.69a.44.44,0,0,1-.43-.34.44.44,0,0,1,.32-.53l1.67-.41a.44.44,0,1,1,.21.85l-1.67.42Z" transform="translate(0 -11.57)"/><path class="cls-13" d="M110.29,264.43a.44.44,0,0,1-.1-.87l1.66-.41a.44.44,0,1,1,.22.85l-1.67.41Z" transform="translate(0 -11.57)"/><path class="cls-20" d="M53.35,217.91c9-4.78,24.88-14.31,31.56-15.66,11.65-2.36,15.45,49.64,15.45,49.64L91,252.8s-8.75-22.41-9.44-31.06c0,0-12.16,11.69-36.8,12.18Z" transform="translate(0 -11.57)"/><path class="cls-22" d="M89.83,250.44a4.89,4.89,0,0,0,1.35,2.84l9.69-1a7.55,7.55,0,0,0-.27-3.1Z" transform="translate(0 -11.57)"/><path class="cls-22" d="M91.93,250.71a.28.28,0,0,1-.27-.19c0-.08-2.35-7.75-4.55-14.5-1.94-6-4-17-4.46-19.63a34.62,34.62,0,0,1-9.09,7.44,58.41,58.41,0,0,1-10.73,4.79,72.6,72.6,0,0,1-12.45,3,.28.28,0,0,1-.3-.24.27.27,0,0,1,.24-.3,73.06,73.06,0,0,0,12.35-3c6.2-2.09,14.69-6,19.93-12.51a.27.27,0,0,1,.28-.1.3.3,0,0,1,.2.22c0,.13,2.35,13.41,4.55,20.14s4.53,14.44,4.56,14.51a.27.27,0,0,1-.19.34Z" transform="translate(0 -11.57)"/><path class="cls-19" d="M48.92,169.94c-5.15,6.94-11.35-1.35-11.26-3.2a32.14,32.14,0,0,0,2.73-9.61l9.91,5.54c-.08.3-.16.61-.23.91a43.34,43.34,0,0,0-1,4.41A15.14,15.14,0,0,0,48.92,169.94Z" transform="translate(0 -11.57)"/><path class="cls-7" d="M49.12,168c-5.33-2.16-8-8.46-8-8.46l8.92,4.05A43.34,43.34,0,0,0,49.12,168Z" transform="translate(0 -11.57)"/><path class="cls-23" d="M53.92,155.23s1.24-2.46,3.25-1.52,1,8-3,7.1Z" transform="translate(0 -11.57)"/><path class="cls-13" d="M50.75,162.27a3.55,3.55,0,1,1,3.43,3.67A3.56,3.56,0,0,1,50.75,162.27Zm.53,0a3,3,0,1,0,3.12-2.93A3,3,0,0,0,51.28,162.29Z" transform="translate(0 -11.57)"/><path class="cls-19" d="M40.11,158c.67,3,7.48,7.36,10.69,6.42,2-.57,3.81-2,5.27-5.64l0-.06.24-.64c.14-.37.27-.74.38-1.1,0-.08.05-.17.08-.25s.12-.44.17-.64.12-.51.16-.74c.67-3.74,1.51-7.94-1.58-10.8s-8.34-4.29-11.92-1.37c0,0-2.72,2.6-3.42,8.05S39.63,155.8,40.11,158Z" transform="translate(0 -11.57)"/><path class="cls-7" d="M46.61,142.88s-2.6,5.63-4.48,6.57-2.92-2.14-2.92-2.14S43.94,138.8,46.61,142.88Z" transform="translate(0 -11.57)"/><path class="cls-7" d="M53.91,144.09s-4,4.4-8.07,2.68-.74-4.84-.74-4.84S53.39,139.78,53.91,144.09Z" transform="translate(0 -11.57)"/><path class="cls-7" d="M52.84,143.54s1.24,6.57,5.52,6.06-.7-7.52-3.5-7.64S52.84,143.54,52.84,143.54Z" transform="translate(0 -11.57)"/><path class="cls-23" d="M49,160.42l.17,0a.23.23,0,0,0,.22-.21.22.22,0,0,0-.21-.22,1.34,1.34,0,0,1-1.14-.74.21.21,0,0,0-.39.18A1.76,1.76,0,0,0,49,160.42Z" transform="translate(0 -11.57)"/><path class="cls-24" d="M50.79,159.38a3.44,3.44,0,0,0,.47,0,.22.22,0,0,0,.21-.21.21.21,0,0,0-.22-.21,2.68,2.68,0,0,1-2.76-2.59.21.21,0,0,0-.23-.19.22.22,0,0,0-.2.22A3,3,0,0,0,50.79,159.38Z" transform="translate(0 -11.57)"/><path class="cls-7" d="M51.08,157a2,2,0,0,1-.4-.07.26.26,0,0,1-.18-.32.27.27,0,0,1,.32-.18,1.47,1.47,0,0,0,1.2-.17,11.93,11.93,0,0,1-.56-4.08.24.24,0,0,1,.25-.25.25.25,0,0,1,.26.25c0,.86.07,3.25.6,4a.25.25,0,0,1,0,.33A2.07,2.07,0,0,1,51.08,157Z" transform="translate(0 -11.57)"/><path class="cls-23" d="M56.1,158.67l.24-.64c.14-.37.27-.74.38-1.1,0-.08.05-.17.08-.25l-.19,0c-1.41-.26-2.64,0-2.74.55S54.75,158.39,56.1,158.67Z" transform="translate(0 -11.57)"/><path class="cls-23" d="M43,154.91c-.11.56.94,1.24,2.35,1.5s2.63,0,2.74-.54-.95-1.24-2.35-1.51S43.05,154.34,43,154.91Z" transform="translate(0 -11.57)"/><path class="cls-13" d="M47.68,156.66a3.46,3.46,0,1,1,3.7-3.21A3.47,3.47,0,0,1,47.68,156.66Zm.44-6.4a3,3,0,1,0,2.75,3.15A3,3,0,0,0,48.12,150.26Z" transform="translate(0 -11.57)"/><path class="cls-13" d="M55.52,158.23A3.47,3.47,0,1,1,59.21,155,3.48,3.48,0,0,1,55.52,158.23Zm.44-6.41A3,3,0,1,0,58.7,155,3,3,0,0,0,56,151.82Z" transform="translate(0 -11.57)"/><path class="cls-13" d="M52.37,154.45a.86.86,0,0,0-1.16-.27l-.25-.45a1.36,1.36,0,0,1,1.84.45Z" transform="translate(0 -11.57)"/><path class="cls-13" d="M44.87,151.93a.34.34,0,0,1-.26-.15s-.54-.57-2.94-1.13a.34.34,0,0,1-.25-.41.33.33,0,0,1,.41-.26c2.76.64,3.28,1.3,3.35,1.43a.34.34,0,0,1-.11.47A.39.39,0,0,1,44.87,151.93Z" transform="translate(0 -11.57)"/><path class="cls-13" d="M58.94,155.24a.3.3,0,0,1-.15-.05,3.14,3.14,0,0,0-1.32-.48.26.26,0,1,1,.07-.51,3.85,3.85,0,0,1,1.58.59.25.25,0,0,1,0,.36A.22.22,0,0,1,58.94,155.24Z" transform="translate(0 -11.57)"/><path class="cls-7" d="M50.63,148.73a2.91,2.91,0,0,0-2.47-1.17c-.88.07-.9.93.08,1.09a3.16,3.16,0,0,1,1.66.66A.47.47,0,0,0,50.63,148.73Z" transform="translate(0 -11.57)"/><path class="cls-7" d="M54.51,149.61a2.91,2.91,0,0,1,2.73-.11c.79.4.48,1.21-.5,1a3.25,3.25,0,0,0-1.78,0A.48.48,0,0,1,54.51,149.61Z" transform="translate(0 -11.57)"/><path class="cls-19" d="M41.68,150.72a2.81,2.81,0,0,0-3.27-1.79c-2.37.59-2.67,8.43,1.82,8.31Z" transform="translate(0 -11.57)"/><path class="cls-13" d="M37.26,155.32c.1.17.15.33.26.49a3,3,0,1,0,1.88.42c-.61-.29-.67-.57-.65-.84a3.55,3.55,0,1,1-4.46,3.31A3.61,3.61,0,0,1,37.26,155.32Z" transform="translate(0 -11.57)"/><path class="cls-7" d="M40.16,154.15a.21.21,0,0,1-.19.23h0a.2.2,0,0,1-.18-.19,4.1,4.1,0,0,0-.49-1.52c-.49.31-.89.6-.89.61a.28.28,0,0,1-.15,0,.24.24,0,0,1-.15-.09.21.21,0,0,1,0-.29s.41-.31.92-.63a2.63,2.63,0,0,0-1.18-.92A.21.21,0,1,1,38,151,3.84,3.84,0,0,1,40.16,154.15Z" transform="translate(0 -11.57)"/><path class="cls-7" d="M48.4,153.05c-.1.51.06,1,.34,1s.61-.3.71-.81-.05-1-.34-1S48.5,152.55,48.4,153.05Z" transform="translate(0 -11.57)"/><path class="cls-7" d="M54,154.3c-.1.51.05,1,.34,1s.61-.3.71-.81-.06-1-.34-1S54.14,153.8,54,154.3Z" transform="translate(0 -11.57)"/><path class="cls-9" d="M68.93,218.86l-41.34,4.45a.17.17,0,0,1-.18-.15h0a2.33,2.33,0,0,1,2.07-2.57l39.19-4.22a.17.17,0,0,1,.18.15l.23,2.16A.16.16,0,0,1,68.93,218.86Z" transform="translate(0 -11.57)"/><path class="cls-7" d="M80.28,194.53l-2.81,22.38A1.31,1.31,0,0,1,76.32,218l-31.79,3.42A1.29,1.29,0,0,1,43.11,220l2.81-22.38a1.29,1.29,0,0,1,1.15-1.12l31.78-3.43A1.3,1.3,0,0,1,80.28,194.53Z" transform="translate(0 -11.57)"/><path class="cls-9" d="M59.62,207.68c.26,2,3.84,4,3.84,4s3.59-2.87,3.85-4.87c.28-2.18-2.22-2.57-3.84-.78C61.85,204.64,59.35,205.56,59.62,207.68Z" transform="translate(0 -11.57)"/><path class="cls-9" d="M48.33,196.37l-2.87,25-.93.1A1.29,1.29,0,0,1,43.11,220l2.81-22.38a1.29,1.29,0,0,1,1.15-1.12Z" transform="translate(0 -11.57)"/><path class="cls-19" d="M61.56,237.22s-3.4-.55-4.45-1.66l-2.21,7.06L63,244.29S62.92,238.33,61.56,237.22Z" transform="translate(0 -11.57)"/><path class="cls-11" d="M81.36,254.47l-10.49-23.3a3.63,3.63,0,0,0-1.43.28c-2,.74-4.9,2.79-6.75,4-.21.14-.41.27-.6.38s-.57.34-.78.44c-1.61.73-.78,1.25-.78,1.25,3.37,1.32,1.2,6.33,3,7.38,0,0,.78.45,3.28,1.55s5,3.75,7.34,5.92c3,2.81,4.89,3.14,6,2.88A2,2,0,0,0,81.36,254.47Z" transform="translate(0 -11.57)"/><path class="cls-13" d="M63,243.57s-.94.64-.41,1.5,2,.43,2,.43S65.9,244.65,63,243.57Z" transform="translate(0 -11.57)"/><path class="cls-13" d="M67.53,242.29a.39.39,0,0,0-.46-.3,5,5,0,0,0-3.31,2.3.39.39,0,0,0,.16.53.38.38,0,0,0,.53-.16,4.28,4.28,0,0,1,2.78-1.9A.39.39,0,0,0,67.53,242.29Z" transform="translate(0 -11.57)"/><path class="cls-13" d="M65.55,247.81a.39.39,0,0,0-.15-.23A5,5,0,0,1,64.35,245a.38.38,0,0,0-.45-.33.39.39,0,0,0-.33.44c0,.25.39,2.42,1.36,3.14a.41.41,0,0,0,.56-.08A.37.37,0,0,0,65.55,247.81Z" transform="translate(0 -11.57)"/><path class="cls-13" d="M63.53,244.7l.15-.24v0h.85v-.09a6.38,6.38,0,0,0-.12-.75,1.24,1.24,0,0,0,0-.16,14.6,14.6,0,0,0-.51-1.67,3.84,3.84,0,0,0-1.11-1.69,1.77,1.77,0,0,0-.88-.41H61.8a1.21,1.21,0,0,0-1.11.56,1.65,1.65,0,0,0-.25,1.32v0a3.41,3.41,0,0,0,.67,1.31,8.73,8.73,0,0,0,1.36,1.36l.12.1c.2.16.39.29.53.39l.25.17Zm0-.89c0,.11,0,.2.06.28-.19-.13-.42-.3-.66-.5h0a8.71,8.71,0,0,1-.89-.84,4.28,4.28,0,0,1-.6-.8,2,2,0,0,1-.21-.52v0a.82.82,0,0,1,.13-.67.39.39,0,0,1,.3-.19h.07c.39,0,.94.54,1.3,1.54.06.16.11.32.16.47A9.8,9.8,0,0,1,63.58,243.81Z" transform="translate(0 -11.57)"/><path class="cls-13" d="M64.31,245.19l-.83-.2c-.2.85-1,1.8-1.59,1.87-.14,0-.33,0-.51-.34a.48.48,0,0,1-.05-.47c.23-.47,1.26-.82,1.85-.94l-.16-.84c-.2,0-2,.4-2.46,1.41a1.49,1.49,0,0,0,1.44,2A3.41,3.41,0,0,0,64.31,245.19Z" transform="translate(0 -11.57)"/><path class="cls-21" d="M81.36,254.47l-10.49-23.3a3.63,3.63,0,0,0-1.43.28l10.72,23.79A2,2,0,0,0,81.36,254.47Z" transform="translate(0 -11.57)"/><path class="cls-21" d="M71.94,233.55l-.31-.69a5.62,5.62,0,0,1-3.17,2.93,7.22,7.22,0,0,1-5.77-.35c-.21.14-.41.27-.6.38a7.85,7.85,0,0,0,6.59.54A6.23,6.23,0,0,0,71.94,233.55Z" transform="translate(0 -11.57)"/><path class="cls-13" d="M68.05,245.43a.41.41,0,0,0-.46-.24.42.42,0,0,0-.34.49l.29,1.61a.42.42,0,0,0,.83-.15l-.29-1.62Z" transform="translate(0 -11.57)"/><path class="cls-13" d="M66.18,244.53a.4.4,0,0,0-.46-.24.42.42,0,0,0-.34.49l.3,1.61a.42.42,0,0,0,.83-.15l-.3-1.62A.16.16,0,0,0,66.18,244.53Z" transform="translate(0 -11.57)"/><path class="cls-13" d="M69.55,246.5a.42.42,0,0,0-.8.25l.29,1.62a.43.43,0,0,0,.49.34.42.42,0,0,0,.34-.49l-.29-1.62Z" transform="translate(0 -11.57)"/><path class="cls-13" d="M71,247.59a.42.42,0,0,0-.8.25l.29,1.62a.42.42,0,0,0,.49.34.43.43,0,0,0,.34-.49l-.29-1.62Z" transform="translate(0 -11.57)"/><path class="cls-13" d="M72.48,248.84a.42.42,0,0,0-.79.25L72,250.7a.41.41,0,0,0,.49.34.42.42,0,0,0,.34-.49l-.3-1.61A.17.17,0,0,0,72.48,248.84Z" transform="translate(0 -11.57)"/><path class="cls-13" d="M73.9,250.27a.42.42,0,0,0-.8.25l.3,1.62a.42.42,0,1,0,.82-.15l-.29-1.62Z" transform="translate(0 -11.57)"/><path class="cls-20" d="M17.83,210.53S8.41,205.45,3,209.38c-10,7.18,7,21,26.32,27.75S54.92,243,54.92,243s4.21-1.16,2.71-8c0,0-11.16-4.24-17-8.68S30.9,216.4,17.83,210.53Z" transform="translate(0 -11.57)"/><path class="cls-22" d="M52.6,233.28a.28.28,0,0,1-.13,0c-.1-.06-9.72-5.47-13.68-8.72C35.6,221.91,28.61,217,28.53,217a.27.27,0,0,1-.06-.38.28.28,0,0,1,.38-.07c.07.05,7.08,5,10.29,7.61,3.92,3.22,13.5,8.61,13.59,8.66a.27.27,0,0,1-.13.51Z" transform="translate(0 -11.57)"/><path class="cls-22" d="M56.88,237c-4.06-1-12.34-4.77-22.14-10.16-7.33-4-15.78-9.17-17-10.95-.67-1-.84-1.75-.5-2.34.5-.89,2-1,2.62-1a.29.29,0,0,1,.29.31h0a.3.3,0,0,1-.3.28c-.65,0-1.78.1-2.1.67s.11,1.19.47,1.71c1,1.44,8.08,6,16.83,10.78,7.53,4.13,17.26,9,22,10.09Z" transform="translate(0 -11.57)"/><path class="cls-22" d="M56.12,234.08c-.46,3.58-1.39,6.84-3.41,9.34a3.34,3.34,0,0,0,3.31.35c1.21-.68,3.54-6.28,2.65-9.27A2.87,2.87,0,0,0,56.12,234.08Z" transform="translate(0 -11.57)"/><path class="cls-19" d="M12.63,206.3v.2l0,.2,0,.41c0,.14,0,.29.06.44l0,.22c0,.07,0,.16,0,.24l.1.48,0,.09,0,.15c0,.1,0,.2.08.3l.1.28a2,2,0,0,0,.1.26c0,.09.07.17.11.26l.06.12.05.11c.08.14.15.28.24.42s.08.13.11.19l.12.17c.08.11.17.24.24.32a2.88,2.88,0,0,0,.22.27l.06.07,0,.06.1.11.22.21.19.18a4.64,4.64,0,0,0,.36.31,9.4,9.4,0,0,0,1.16.78c.33.18.63.33.89.45.55.24,1,.4,1.44.55a24.22,24.22,0,0,0,2.39.65c.75.17,1.47.31,2.18.43,1.42.24,2.79.43,4.15.59s2.71.29,4.06.39c2.69.22,5.35.36,8,.44l4,.06c.25-3,.75-5.93,1.1-8.91l-.28,0-3.82-.66c-2.54-.44-5.07-.89-7.57-1.36-1.25-.23-2.49-.47-3.71-.73s-2.42-.53-3.57-.82l-1.18-.32c0-.25.08-.51.13-.77.1-.53.22-1.09.35-1.65s.27-1.13.42-1.7c.62-2.31,1.36-4.69,2.15-7.06s1.64-4.78,2.5-7.17c.43-1.2.88-2.39,1.32-3.59l1.31-3.54,0-.07A5.87,5.87,0,0,0,22,173.78l-.22.48-.22.47-.41.92c-.28.62-.54,1.23-.81,1.85-.53,1.23-1,2.48-1.53,3.73-1,2.5-1.9,5-2.76,7.61-.42,1.3-.83,2.6-1.21,3.93s-.75,2.68-1.07,4.07-.62,2.81-.84,4.33c-.11.76-.2,1.54-.26,2.38A20.65,20.65,0,0,0,12.63,206.3Z" transform="translate(0 -11.57)"/><path class="cls-23" d="M18.23,206.25a.31.31,0,0,0,.2-.07c2.17-2,5.77-2.07,5.81-2.07a.29.29,0,0,0,0-.57c-.16,0-3.86,0-6.2,2.23a.27.27,0,0,0,0,.39A.27.27,0,0,0,18.23,206.25Z" transform="translate(0 -11.57)"/><path class="cls-23" d="M23.16,204.19a.29.29,0,0,0,.25-.14.29.29,0,0,0-.11-.39c-1.43-.81-4.14-.42-4.25-.4a.28.28,0,0,0,.08.56s2.63-.38,3.89.33A.25.25,0,0,0,23.16,204.19Z" transform="translate(0 -11.57)"/><path class="cls-11" d="M150.69,222.57h.87v-1.29l-32.65,0a3.92,3.92,0,0,0,0,7.84l32.65,0V228h-.86Z" transform="translate(0 -11.57)"/><path class="cls-13" d="M150.92,222.57V228l-30,0a2.67,2.67,0,0,1-2.65-2.71,2.77,2.77,0,0,1,.77-1.92,2.62,2.62,0,0,1,1.88-.8Z" transform="translate(0 -11.57)"/><path class="cls-17" d="M150.92,224v.83l-29.19,0a.42.42,0,0,1-.41-.42h0a.41.41,0,0,1,.41-.42Z" transform="translate(0 -11.57)"/><path class="cls-17" d="M150.92,226v.83l-29.18,0a.42.42,0,0,1-.42-.41h0a.42.42,0,0,1,.41-.41Z" transform="translate(0 -11.57)"/><path class="cls-5" d="M147.77,214.73h.87v-1.29l-32.66.05a3.92,3.92,0,0,0,0,7.84l32.65-.05v-1.11h-.86Z" transform="translate(0 -11.57)"/><path class="cls-13" d="M148,214.73v5.44l-30,0a2.7,2.7,0,0,1-2.65-2.72,2.74,2.74,0,0,1,.78-1.92,2.61,2.61,0,0,1,1.87-.8Z" transform="translate(0 -11.57)"/><path class="cls-17" d="M148,216.11v.83l-29.18,0a.42.42,0,0,1-.42-.42h0a.41.41,0,0,1,.41-.41Z" transform="translate(0 -11.57)"/><path class="cls-17" d="M148,218.16V219l-29.18,0a.41.41,0,0,1-.42-.41h0a.42.42,0,0,1,.42-.42Z" transform="translate(0 -11.57)"/><path class="cls-10" d="M153.47,206.89h.86V205.6l-32.65,0a3.92,3.92,0,1,0,0,7.84l32.65,0v-1.12h-.87Z" transform="translate(0 -11.57)"/><path class="cls-13" d="M153.69,206.89v5.43l-30,0a2.68,2.68,0,0,1-2.65-2.71,2.75,2.75,0,0,1,.77-1.93,2.66,2.66,0,0,1,1.87-.8Z" transform="translate(0 -11.57)"/><path class="cls-17" d="M153.69,208.26v.83l-29.18,0a.42.42,0,0,1-.42-.41h0a.42.42,0,0,1,.42-.41Z" transform="translate(0 -11.57)"/><path class="cls-17" d="M153.69,210.31v.83l-29.19,0a.41.41,0,0,1-.41-.42h0a.4.4,0,0,1,.41-.41Z" transform="translate(0 -11.57)"/><rect class="cls-10" x="121.67" y="185.38" width="2.35" height="17.72" transform="matrix(0.99, -0.15, 0.15, 0.99, -28, 9.27)"/><polygon class="cls-19" points="122.66 173.74 120.34 174.09 120.85 172.32 121.11 171.4 121.64 172.2 122.66 173.74"/><rect class="cls-7" x="122.91" y="201.73" width="2.35" height="1.29" transform="matrix(0.99, -0.15, 0.15, 0.99, -29.22, 9.56)"/><path class="cls-25" d="M125.35,203.87l-2,.3a.16.16,0,0,1-.18-.13l-.13-.86,2.33-.35.13.86A.17.17,0,0,1,125.35,203.87Z" transform="translate(0 -11.57)"/><polygon class="cls-7" points="121.64 172.2 120.85 172.32 121.11 171.4 121.64 172.2"/><rect class="cls-26" x="122.74" y="200.82" width="2.35" height="0.92" transform="translate(-29.04 9.51) rotate(-8.71)"/><path class="cls-26" d="M121.05,186.44l2,13a.17.17,0,0,0,.2.15h0a.17.17,0,0,0,.15-.2l-2-13a.18.18,0,0,0-.2-.15h0A.18.18,0,0,0,121.05,186.44Z" transform="translate(0 -11.57)"/><path class="cls-26" d="M122,186.3l2,13a.18.18,0,0,0,.21.15h0a.17.17,0,0,0,.15-.2l-2-13a.18.18,0,0,0-.2-.15h0A.18.18,0,0,0,122,186.3Z" transform="translate(0 -11.57)"/><rect class="cls-5" x="124.54" y="185.39" width="2.35" height="17.72" transform="translate(-0.64 -11.16) rotate(-0.19)"/><polygon class="cls-19" points="126.86 173.82 124.51 173.83 125.28 172.15 125.68 171.28 126.08 172.15 126.86 173.82"/><rect class="cls-7" x="124.57" y="201.83" width="2.35" height="1.29" transform="translate(-0.66 -11.16) rotate(-0.19)"/><path class="cls-25" d="M126.77,204.14h-2a.16.16,0,0,1-.16-.16v-.87h2.35V204A.15.15,0,0,1,126.77,204.14Z" transform="translate(0 -11.57)"/><polygon class="cls-7" points="126.08 172.15 125.28 172.15 125.68 171.28 126.08 172.15"/><rect class="cls-4" x="124.57" y="200.91" width="2.35" height="0.92" transform="translate(-0.66 -11.16) rotate(-0.19)"/><path class="cls-4" d="M125.1,186.27l0,13.12a.18.18,0,0,0,.18.18h0a.18.18,0,0,0,.18-.18l0-13.12a.18.18,0,0,0-.18-.18h0A.18.18,0,0,0,125.1,186.27Z" transform="translate(0 -11.57)"/><path class="cls-4" d="M126,186.26l0,13.13a.18.18,0,0,0,.18.18h0a.18.18,0,0,0,.18-.18l0-13.13a.18.18,0,0,0-.18-.18h0A.18.18,0,0,0,126,186.26Z" transform="translate(0 -11.57)"/><rect class="cls-21" x="119.65" y="193.07" width="17.72" height="2.35" transform="translate(-81.88 282.59) rotate(-81.91)"/><polygon class="cls-19" points="130.92 174.07 128.59 173.74 129.59 172.19 130.11 171.38 130.39 172.3 130.92 174.07"/><rect class="cls-7" x="126.18" y="201.74" width="2.35" height="1.29" transform="translate(29.73 -27.47) rotate(8.09)"/><path class="cls-25" d="M128.13,204.18l-2-.29a.15.15,0,0,1-.13-.17l.12-.86,2.33.33-.13.86A.16.16,0,0,1,128.13,204.18Z" transform="translate(0 -11.57)"/><polygon class="cls-7" points="130.39 172.3 129.59 172.19 130.11 171.38 130.39 172.3"/><rect class="cls-27" x="127.05" y="200.11" width="0.92" height="2.35" transform="translate(-89.72 287.64) rotate(-81.91)"/><path class="cls-27" d="M129.05,186.25l-1.85,13a.18.18,0,0,0,.15.2h0a.18.18,0,0,0,.21-.15l1.84-13a.18.18,0,0,0-.15-.21h0A.18.18,0,0,0,129.05,186.25Z" transform="translate(0 -11.57)"/><path class="cls-27" d="M130,186.38l-1.85,13a.18.18,0,0,0,.16.2h0a.18.18,0,0,0,.2-.15l1.84-13a.17.17,0,0,0-.15-.2h0A.18.18,0,0,0,130,186.38Z" transform="translate(0 -11.57)"/><polygon class="cls-11" points="132.06 181.02 131.87 182.73 131.79 183.41 130.61 194.05 120.63 194.05 119.58 184.6 119.38 182.73 119.19 181.02 132.06 181.02"/><polygon class="cls-21" points="131.87 182.73 131.79 183.41 119.58 184.6 119.38 182.73 131.87 182.73"/><polygon class="cls-11" points="132.48 182.73 118.79 182.73 118.53 180.23 132.74 180.23 132.48 182.73"/><g class="cls-28"><path class="cls-19" d="M142.14,65.86s-2.57,5.82-7.32,5.76c-3.85-.06-6.36-4.41-7.18-6.08-.2-.4-.3-.65-.3-.65a6.1,6.1,0,0,1-.68-.15c-.94-.26-2.56-.88-2.92-2.21-.51-1.89,3.19-2.14,3.19-2.14s-1.35-2-.62-3,3.12-.63,3.12-.63-2.1-2.29-.88-3.5c1.82-1.82,3.82,1.22,4,1.4-.12-.23-2.51-4.45-.57-4.6,1.7-.13,3.81,2.29,5.05,4.46l.31.55.33-.13c1-.34,4-1.18,5.26.62C144.48,57.71,142.14,65.86,142.14,65.86Z" transform="translate(0 -11.57)"/><path class="cls-23" d="M136.5,68.39a.37.37,0,0,1-.34-.12.36.36,0,0,1,0-.52,3.31,3.31,0,0,0,1.23-2.52c0-2.43-2.65-4.79-2.67-4.81a.37.37,0,0,1,0-.52.35.35,0,0,1,.51,0c.12.1,2.92,2.61,2.92,5.36a4,4,0,0,1-1.48,3.07A.32.32,0,0,1,136.5,68.39Z" transform="translate(0 -11.57)"/><path class="cls-23" d="M135.66,58.82a1.14,1.14,0,0,1-.75.84,1.1,1.1,0,0,1-.26.06,3.16,3.16,0,0,1-.68,0,2.67,2.67,0,0,1,.36.49,1.13,1.13,0,0,1,.16.49,1,1,0,0,1-.38.85,4.69,4.69,0,0,1-3.27.43,3.87,3.87,0,0,1,1.22,2.11,1.14,1.14,0,0,1-.42,1.05,2.06,2.06,0,0,1-.91.36,11.92,11.92,0,0,1-3.09.06c-.2-.4-.3-.65-.3-.65a6.1,6.1,0,0,1-.68-.15.34.34,0,0,1,.2,0c1.36.19,3.73.31,4.33-.17a.43.43,0,0,0,.14-.41,4.36,4.36,0,0,0-2.15-2.52.37.37,0,0,1,.27-.68c.88.24,3.33.72,4.2,0,.12-.1.12-.18.11-.22a1.21,1.21,0,0,0-.41-.63,8.76,8.76,0,0,0-1.9-1.33.33.33,0,0,1-.15-.16.34.34,0,0,1,0-.34.35.35,0,0,1,.49-.15c.12.06.36.19.65.37A7.84,7.84,0,0,0,134,59a1.36,1.36,0,0,0,.64,0,.42.42,0,0,0,.28-.34,2.36,2.36,0,0,0-.1-1.17.35.35,0,0,1,.13-.39h0a.36.36,0,0,1,.56.18A3.14,3.14,0,0,1,135.66,58.82Z" transform="translate(0 -11.57)"/><path class="cls-9" d="M134.77,51.5a9.64,9.64,0,0,1,1.35,1.65c.38.61.64.94.9,1.34,0,0,0,0,0,0l.65-30.74a.36.36,0,0,0-.72,0L134.77,51.5Z" transform="translate(0 -11.57)"/><path class="cls-9" d="M136.55,69.13c-2.76.91-3.13-.39-3.13-.39l.56-7.12.13-.09a1,1,0,0,0,.38-.85,1.13,1.13,0,0,0-.16-.49,2,2,0,0,0-.22-.32l0-.15a3,3,0,0,0,.52,0,1.1,1.1,0,0,0,.26-.06,1,1,0,0,0,.58-.46,1.83,1.83,0,0,0,.95.75,1.91,1.91,0,0,0,.34.1Z" transform="translate(0 -11.57)"/><path class="cls-23" d="M141.36,59a12.75,12.75,0,0,1-2.74,1,4,4,0,0,1-2.18,0,1.8,1.8,0,0,1-1.1-1.06c-.74-1.8.74-3.53,1.68-4.4l.31.55.33-.13c-.81.71-2.24,2.25-1.64,3.71a1.13,1.13,0,0,0,.67.65c1.22.45,3.54-.49,4.33-.89a.36.36,0,0,1,.5.16A.36.36,0,0,1,141.36,59Z" transform="translate(0 -11.57)"/><path class="cls-16" d="M179.74,61.44h0s0,0,0,0l0,0,0,.08-.09.2-.22.44-.23.45a5.06,5.06,0,0,1-.24.46c-.32.63-.66,1.26-1,1.88-.72,1.25-1.46,2.51-2.26,3.72s-1.61,2.41-2.48,3.57c-.44.57-.88,1.15-1.34,1.7s-.91,1.11-1.37,1.67c-.94,1.07-1.91,2.12-2.91,3.12-.25.26-.51.49-.76.74s-.51.5-.77.73c-.53.46-1,.94-1.58,1.39-1.06.92-2.17,1.74-3.29,2.57s-2.28,1.55-3.47,2.23c-.3.17-.59.35-.89.51l-.91.48-.45.24-.12.06.06,0,.08,0a1.75,1.75,0,0,1,.32-.12,4.57,4.57,0,0,1,1.49-.28h.5l.13,0,.27,0,.21,0,.1,0,.07,0,.14,0,.08,0,0,0h0c.1.06-.1,0-.37-.24a11.76,11.76,0,0,1-1-.92c-.38-.39-.79-.84-1.2-1.33-.83-1-1.67-2.11-2.5-3.29s-1.64-2.45-2.44-3.74-1.59-2.62-2.36-4-1.54-2.72-2.28-4.1q-.57-1-1.11-2.07l-1.06-2-13.69,5.64.23.68.23.62.45,1.24c.31.82.62,1.63,1,2.44.66,1.62,1.34,3.22,2.07,4.82s1.51,3.18,2.34,4.77c.42.79.84,1.59,1.29,2.38s.91,1.58,1.4,2.37A52.86,52.86,0,0,0,143,95.59c.62.8,1.29,1.61,2,2.43a28.13,28.13,0,0,0,2.58,2.48,18.78,18.78,0,0,0,3.77,2.47l.29.14.32.15.66.27c.23.08.48.17.72.24l.37.12.4.11.81.18c.29.06.59.1.88.14l.45.05.47,0c.32,0,.63,0,1,0a12.81,12.81,0,0,0,3.91-.73c.3-.11.6-.23.89-.36l.22-.1.2-.1.17-.08.64-.33,1.3-.67,1.26-.72a55.94,55.94,0,0,0,4.87-3.12c1.56-1.13,3.08-2.31,4.5-3.57s2.81-2.58,4.13-3.94l1-1c.33-.35.63-.71.94-1.06s.62-.71.92-1.07l.9-1.08a69.63,69.63,0,0,0,6.27-9.25c.91-1.62,1.77-3.26,2.55-5,.39-.85.77-1.71,1.13-2.59.09-.22.17-.45.26-.67s.18-.46.26-.69.17-.47.26-.71l.29-.86Z" transform="translate(0 -11.57)"/><path class="cls-21" d="M138.69,71.68a1,1,0,1,0,1.18-.84A1,1,0,0,0,138.69,71.68Z" transform="translate(0 -11.57)"/><path class="cls-21" d="M154.86,94a.44.44,0,0,0,.5-.21,33.13,33.13,0,0,0,2.58-7.15.44.44,0,0,0-.86-.19,32.15,32.15,0,0,1-2.49,6.92.43.43,0,0,0,.18.59Z" transform="translate(0 -11.57)"/><path class="cls-21" d="M158.36,91.61a.42.42,0,0,0,.53-.51,36.68,36.68,0,0,0-1.12-4.2.45.45,0,0,0-.58-.22.44.44,0,0,0-.22.58,36.62,36.62,0,0,1,1.07,4A.43.43,0,0,0,158.36,91.61Z" transform="translate(0 -11.57)"/><path class="cls-21" d="M133.54,79.1a.43.43,0,0,0,.33,0c4.48-2.74,13.95-6.44,14-6.48a.44.44,0,0,0,.25-.56.44.44,0,0,0-.57-.25c-.09,0-9.64,3.77-14.18,6.54a.44.44,0,0,0-.15.6A.48.48,0,0,0,133.54,79.1Z" transform="translate(0 -11.57)"/><path class="cls-21" d="M137.76,76.86a.4.4,0,0,0,.3,0,.43.43,0,0,0,.2-.58L135.32,70a.44.44,0,0,0-.58-.21.44.44,0,0,0-.21.58l2.94,6.23A.44.44,0,0,0,137.76,76.86Z" transform="translate(0 -11.57)"/><path class="cls-7" d="M226.19,162c-.09.38-.19.75-.31,1.12v0c-.15.49-.32,1-.5,1.41-1.64,4-14.26,4.56-26.67,3.14-9.63-1.09-19.14-3.38-23.31-6.18-3.91-2.62,4.49-26.76,4.49-26.76l47.08,10S228,154.83,226.19,162Z" transform="translate(0 -11.57)"/><path class="cls-7" d="M193.49,204.31H170.12c.85-12.93,2.16-27.44,3.75-42.68,0-.41.09-.81.13-1.22.14-1.36.29-2.72.44-4.08l.12-1.1,4.53,2.1,1.11.51L198,166.08l-.18,1.57Z" transform="translate(0 -11.57)"/><path class="cls-9" d="M190.7,204.31h-1.17l4.79-36a.57.57,0,0,1,.64-.5.58.58,0,0,1,.5.65Z" transform="translate(0 -11.57)"/><path class="cls-9" d="M185.22,147.47a23.43,23.43,0,0,1-5,10.37,13.2,13.2,0,0,1-2.66,2.26,11.16,11.16,0,0,1-2.46,1.19,9.84,9.84,0,0,1-1.21.34c0-.41.09-.81.13-1.22l.58-.17a10,10,0,0,0,2.34-1.11,12.14,12.14,0,0,0,2.17-1.8c3.81-4,5-10,5-10.08a.58.58,0,0,1,.67-.46A.57.57,0,0,1,185.22,147.47Z" transform="translate(0 -11.57)"/><path class="cls-9" d="M194.71,165.24a.48.48,0,0,0,.46.49h0a.46.46,0,0,0,.5-.44c.09-1.74.2-3.53.31-5.31,0-.31,0-.62.07-.94.39-5.82.88-11.53,1.25-15.57,0-.33.06-.64.09-.95.08-.88.15-1.67.22-2.33l-1-.16c-.06.67-.13,1.46-.22,2.35,0,.31-.05.63-.09,1-.36,4-.85,9.67-1.24,15.45,0,.32,0,.64-.07,1C194.91,161.59,194.8,163.44,194.71,165.24Z" transform="translate(0 -11.57)"/><path class="cls-9" d="M193.35,159.09a11.65,11.65,0,0,0,1.68.65,8.79,8.79,0,0,0,.95.24,5.8,5.8,0,0,0,.92.12,3.17,3.17,0,0,0,1.61-.25,1.94,1.94,0,0,0,1.1-1.47c.35-1.79,1.1-9.21,1.61-14.45,0-.32.06-.64.09-.94.08-.84.15-1.61.21-2.25l-1-.13c-.07.66-.14,1.43-.22,2.28,0,.3-.06.62-.09.94-.51,5.23-1.25,12.64-1.6,14.38a1,1,0,0,1-.58.81,3.38,3.38,0,0,1-2,0,8.78,8.78,0,0,1-1-.26,11.35,11.35,0,0,1-1.32-.52.5.5,0,0,0-.65.21A.46.46,0,0,0,193.35,159.09Z" transform="translate(0 -11.57)"/><path class="cls-7" d="M225.89,163.14v.06c0,.37-.07.76-.11,1.14-1,11-2.66,27.59-4.05,40H198.63l.09-44.21a138,138,0,0,1,13.34-5.39l1.12-.38c.72-.23,1.43-.45,2.14-.65l1.13-.32c4.26-1.16,8.21-1.73,10.42-.81,0,0-.34,3.75-.88,9.49C226,162.4,225.92,162.77,225.89,163.14Z" transform="translate(0 -11.57)"/><path class="cls-9" d="M218.41,204.31c1.33-15.09,3-37.93,3-38.22a.58.58,0,1,1,1.15.08c0,.29-1.65,23-3,38.14Z" transform="translate(0 -11.57)"/><path class="cls-9" d="M225.89,163.14v.06c0,.37-.07.76-.11,1.14a9.23,9.23,0,0,1-4.8-.44A15.39,15.39,0,0,1,214,158a29.1,29.1,0,0,1-2-3.28,26.68,26.68,0,0,1-1.37-3.09.58.58,0,0,1,1.09-.39,25.18,25.18,0,0,0,1.4,3.1,29.09,29.09,0,0,0,1.83,3,14.25,14.25,0,0,0,6.36,5.46A8.16,8.16,0,0,0,225.89,163.14Z" transform="translate(0 -11.57)"/><path class="cls-13" d="M234,110.31c-.09,1.23-.19,2.46-.32,3.69-.63,6.16-3,26.79-5.12,32.56a52.45,52.45,0,0,1-25,4.82c-1.6-.07-3.18-.2-4.73-.4-1.38-.16-2.74-.38-4.08-.64-8.7-1.68-16.32-5.19-21.05-9.62,2.24-8.66,4.85-24.35,5.82-31.08.19-1.25.35-2.47.49-3.67s.27-2.3.39-3.4c.12-1.26.23-2.49.32-3.68s.18-2.52.24-3.72.1-2.51.13-3.7c.34-16.2-2.62-24.2-1.83-28.08,1.17-5.85,6.58-5.77,11.5-7.6l.86-.34.57-.26a11,11,0,0,0,4.5-3.75l14.46,0a20.29,20.29,0,0,0,3.27,2l.61.3c.52.25,1.09.49,1.71.73A27.63,27.63,0,0,0,222.18,56c6.48,1.05,10.2,7.94,10.88,19.12.35,5.65.71,11,1,16.09,0,.34,0,.68,0,1A160.66,160.66,0,0,1,234,110.31Z" transform="translate(0 -11.57)"/><polygon class="cls-10" points="194.05 106.94 196.53 112.95 196.53 112.95 197.64 115.65 200.78 123.28 202.31 120.34 202.85 119.3 204.07 116.94 204.61 115.9 205.84 113.54 206.38 112.5 207.61 110.15 207.61 110.14 208.15 109.11 209.3 106.89 209.28 106.65 209.1 104.89 208.7 100.9 208.53 99.14 208.13 95.15 207.95 93.39 207.56 89.41 207.38 87.65 206.98 83.66 206.81 81.9 206.41 77.91 206.23 76.15 205.84 72.16 205.66 70.4 205.26 66.42 205.09 64.65 204.69 60.67 204.51 58.91 204.32 56.98 204.1 54.78 201.05 54.66 200.96 55.34 200.78 56.74 200.72 57.17 200.35 59.9 200.16 61.3 199.74 64.46 199.56 65.86 199.13 69.02 198.94 70.42 198.52 73.58 198.33 74.97 197.91 78.14 197.72 79.53 197.3 82.7 197.11 84.09 196.69 87.25 196.5 88.65 196.08 91.82 195.89 93.21 195.47 96.37 195.28 97.77 194.86 100.93 194.67 102.33 194.25 105.49 194.06 106.89 194.05 106.94"/><polygon class="cls-26" points="200.72 57.17 202.52 60.38 204.32 56.98 204.1 54.78 201.05 54.66 200.96 55.34 200.78 56.74 200.72 57.17"/><path class="cls-16" d="M234,110.31c-.09,1.23-.19,2.46-.32,3.69-.63,6.16-3,26.79-5.12,32.56a52.45,52.45,0,0,1-25,4.82l-4.4-7-4.41,5.92c-8.7-1.68-16.32-5.19-21.05-9.62.81-3.14,1.67-7.2,2.48-11.42.2-1,.39-2,.58-3.06,1.19-6.47,2.22-12.89,2.76-16.6.19-1.25.35-2.47.49-3.67s.27-2.3.39-3.4c.12-1.26.23-2.49.32-3.68s.18-2.52.24-3.72.1-2.51.13-3.7c.34-16.2-2.62-24.2-1.83-28.08,1.17-5.85,6.58-5.77,11.5-7.6l.25.12,10.74,47.54,14.72-48.86.27-.06A27.63,27.63,0,0,0,222.18,56c6.48,1.05,10.2,7.94,10.88,19.12.35,5.65.71,11,1,16.09,0,.34,0,.68,0,1A160.66,160.66,0,0,1,234,110.31Z" transform="translate(0 -11.57)"/><path class="cls-21" d="M224.88,148.84a.5.5,0,0,0,.48-.33c7.07-18.82,7-54.66,7-55a.53.53,0,0,0-.52-.51h0a.52.52,0,0,0-.52.52c0,.36.12,36-6.89,54.65a.52.52,0,0,0,.3.66A.63.63,0,0,0,224.88,148.84Z" transform="translate(0 -11.57)"/><path class="cls-21" d="M189,125.47a91.94,91.94,0,0,1-12.78,3.83c.2-1,.39-2,.58-3.06,5.34-1.31,11.54-3.27,11.54-3.27Z" transform="translate(0 -11.57)"/><path class="cls-21" d="M210.75,125s10.52,6.32,15.34,8.13l-1.47,2.56a109.84,109.84,0,0,1-15.1-8.41Z" transform="translate(0 -11.57)"/><path class="cls-21" d="M191,55.91a5.13,5.13,0,0,0-6.51,1.81l2.41,15.58,5.45,3.23-3.7,2.21,4.13,18.1,9,6.61Z" transform="translate(0 -11.57)"/><path class="cls-21" d="M214.36,54.53s4-2.53,6.72,1.24l-3.4,17.59-5.46,3.21,3.69,2.22-4.2,18.09-10,6.57Z" transform="translate(0 -11.57)"/><path class="cls-21" d="M198.7,139.6a1.09,1.09,0,1,0,1-1.18A1.1,1.1,0,0,0,198.7,139.6Z" transform="translate(0 -11.57)"/><path class="cls-21" d="M199.16,131.52a1.09,1.09,0,1,0,1-1.18A1.1,1.1,0,0,0,199.16,131.52Z" transform="translate(0 -11.57)"/><path class="cls-21" d="M199.62,123.44a1.09,1.09,0,1,0,1-1.18A1.1,1.1,0,0,0,199.62,123.44Z" transform="translate(0 -11.57)"/><path class="cls-21" d="M200.09,115.36a1.09,1.09,0,1,0,1-1.18A1.09,1.09,0,0,0,200.09,115.36Z" transform="translate(0 -11.57)"/><path class="cls-21" d="M200.55,107.28a1.09,1.09,0,1,0,1-1.18A1.1,1.1,0,0,0,200.55,107.28Z" transform="translate(0 -11.57)"/><path class="cls-21" d="M181.49,92.05a.46.46,0,0,1-.77-.34c0-3.56-.13-7.38-.39-11.41,0-.18,0-.33,0-.43a.48.48,0,0,1,.44-.5.46.46,0,0,1,.49.44c0,.11,0,.25,0,.43.26,4,.39,7.88.39,11.46a.45.45,0,0,1-.15.34Z" transform="translate(0 -11.57)"/><path class="cls-7" d="M212.67,34.7a11.3,11.3,0,0,0,4.09-6.08c.69-3.27-2.07-3.27-2.07-3.27s2.25-3.55.9-6.21a4.84,4.84,0,0,0-5.07-2.69s.91-5.29-7.5-4.86-13.42.75-14.79,4.39a3.38,3.38,0,0,0,2.07,4.7s-3.4,2.07-1.74,4.21a3.58,3.58,0,0,0,3.74,1.52Z" transform="translate(0 -11.57)"/><path class="cls-23" d="M195.68,33.24s-1-3.92-4.24-3.19-3.8,11.21,2.21,11.16Z" transform="translate(0 -11.57)"/><path class="cls-19" d="M210.79,52.58s.75,1.33-5.11,2.94A12.51,12.51,0,0,1,197,54.47a11.77,11.77,0,0,1-1.19-.79,16.07,16.07,0,0,0,0-8,1.66,1.66,0,0,0,0-.16L211,37.93Z" transform="translate(0 -11.57)"/><path class="cls-7" d="M208.8,43.91S205.13,54,197,54.47a11.77,11.77,0,0,1-1.19-.79,16.07,16.07,0,0,0,0-8Z" transform="translate(0 -11.57)"/><path class="cls-19" d="M202.88,49.17c-6.29,1.16-11.27-1.59-11.81-7-.14-1.29-.19-3.17-.19-5.13V35.74c0-.3,0-.61,0-.91,0-3.49.17-6.65.17-6.65,1-8.67,9.61-11.81,16.45-8.45s4.09,13.89,4,19.05A10.29,10.29,0,0,1,202.88,49.17Z" transform="translate(0 -11.57)"/><path class="cls-13" d="M201.64,38.89s-.89,2.87-3.24,3.34c-2.68.53-3.28-2.82-3.28-2.82Z" transform="translate(0 -11.57)"/><path class="cls-7" d="M203.33,30.35c1.78.37,2.28-1.53.68-2.52a4.8,4.8,0,0,0-2.36-.85c-2.35,0-2.42,1.64-1.24,2.31A12.75,12.75,0,0,0,203.33,30.35Z" transform="translate(0 -11.57)"/><path class="cls-7" d="M193.23,29.4c-1.81.16-2.08-1.79-.37-2.58a4.68,4.68,0,0,1,2.45-.55c2.32.27,2.19,1.92.95,2.44A12.62,12.62,0,0,1,193.23,29.4Z" transform="translate(0 -11.57)"/><path class="cls-23" d="M191.59,37.15c-.25,0-.49,0-.71-.09V35.74c0-.3,0-.61,0-.91a6.57,6.57,0,0,1,.88,0c1.57.12,2.81.73,2.77,1.36S193.17,37.27,191.59,37.15Z" transform="translate(0 -11.57)"/><path class="cls-13" d="M189.1,32.07a3.91,3.91,0,1,1,3.08,4.59A3.92,3.92,0,0,1,189.1,32.07Zm.56.11a3.34,3.34,0,1,0,3.91-2.63A3.33,3.33,0,0,0,189.66,32.18Z" transform="translate(0 -11.57)"/><path class="cls-7" d="M196.89,37.69a.24.24,0,0,1-.14,0c-1.42-1-1.69-1.49-1.73-1.58a.29.29,0,0,1,0-.27l2.06-3.09s0,0,0,0a5.34,5.34,0,0,0,.58-2.83.27.27,0,0,1,.29-.27.28.28,0,0,1,.27.29,5.67,5.67,0,0,1-.7,3.16L195.62,36a6.9,6.9,0,0,0,1.45,1.23.27.27,0,0,1,.07.39A.29.29,0,0,1,196.89,37.69Z" transform="translate(0 -11.57)"/><path class="cls-23" d="M208.08,36c-.05.64-1.37,1.06-3,.94s-2.82-.73-2.77-1.37,1.37-1,2.95-.94S208.13,35.34,208.08,36Z" transform="translate(0 -11.57)"/><path class="cls-13" d="M198.41,32.33a3.91,3.91,0,1,1,3.08,4.59A3.9,3.9,0,0,1,198.41,32.33Zm.56.11a3.33,3.33,0,1,0,3.91-2.63A3.34,3.34,0,0,0,199,32.44Z" transform="translate(0 -11.57)"/><path class="cls-13" d="M196.52,33.12h0a.28.28,0,0,0,.33-.23s.14-.74.68-.71a1,1,0,0,1,.83.7.28.28,0,0,0,.54-.18,1.59,1.59,0,0,0-1.34-1.1,1.32,1.32,0,0,0-1.27,1.19A.28.28,0,0,0,196.52,33.12Z" transform="translate(0 -11.57)"/><path class="cls-13" d="M205.73,32.61a.3.3,0,0,0,.31-.14,3.39,3.39,0,0,1,4.55-1.36A.3.3,0,0,0,211,31a.28.28,0,0,0-.13-.38s-3.5-1.68-5.32,1.59a.3.3,0,0,0,.12.39Z" transform="translate(0 -11.57)"/><path class="cls-7" d="M191.06,28.77h0a10.47,10.47,0,0,1,2.55-8.49c4.34-5,13.2-4.71,16.73.37s1.8,9.49,1.8,9.49-1.43.51-2.12,3.3l-1.89-.08a13.74,13.74,0,0,1,0-6.13c.74-3.8-6-7.59-10.51-6.74a8.23,8.23,0,0,0-6,5A13.79,13.79,0,0,0,191.06,28.77Z" transform="translate(0 -11.57)"/><path class="cls-7" d="M205.74,22.69s-3.17-1.24-4.7-.64-3.75,1.39-5.42.19S192,24.6,192,24.6s2.13-6.35,7.37-5S204.62,20.4,205.74,22.69Z" transform="translate(0 -11.57)"/><path class="cls-23" d="M197.6,43.42l-.2-.06a.28.28,0,0,1-.16-.37.29.29,0,0,1,.37-.15,1.84,1.84,0,0,0,1.77-.29.28.28,0,0,1,.37.43A2.32,2.32,0,0,1,197.6,43.42Z" transform="translate(0 -11.57)"/><path class="cls-19" d="M210.34,31.69s1.82-2.89,4.76-1.45,1.18,11.78-4.67,10.37Z" transform="translate(0 -11.57)"/><path class="cls-7" d="M211.63,37h-.06a.29.29,0,0,1-.19-.35c0-.13,1-3.12,3.7-3.53a.28.28,0,1,1,.09.55c-2.39.37-3.24,3.11-3.25,3.14A.28.28,0,0,1,211.63,37Z" transform="translate(0 -11.57)"/><path class="cls-7" d="M214.17,36A.28.28,0,0,1,214,36s-.54-.61-1.17-1.2a.28.28,0,0,1,.39-.41c.65.61,1.18,1.21,1.2,1.23a.29.29,0,0,1,0,.4A.28.28,0,0,1,214.17,36Z" transform="translate(0 -11.57)"/><path class="cls-7" d="M202.6,33c0,.63-.31,1.13-.66,1.13s-.65-.52-.64-1.14.3-1.13.66-1.13S202.6,32.4,202.6,33Z" transform="translate(0 -11.57)"/><path class="cls-7" d="M195.3,33c0,.63-.3,1.13-.66,1.13S194,33.65,194,33s.3-1.13.66-1.13S195.31,32.42,195.3,33Z" transform="translate(0 -11.57)"/><path class="cls-13" d="M211,49s2.18.66,3.35,5.58c-1.52,4.47-5.78,8.22-11.77,9.32l0-8.79A15.53,15.53,0,0,0,211,49Z" transform="translate(0 -11.57)"/><path class="cls-13" d="M196.11,50.19s-3.6.82-5.1,5.72c3.85,4.71,5.92,6.49,11.58,7.94l0-8.79S199.21,55,196.11,50.19Z" transform="translate(0 -11.57)"/><polygon class="cls-10" points="206.66 51 202.58 57.03 198.7 50.99 202.6 45.95 206.66 51"/><path class="cls-17" d="M194.39,68.74a.42.42,0,0,1-.28-.1A.45.45,0,0,1,194,68l8.21-10.76a.5.5,0,0,1,.36-.18.48.48,0,0,1,.36.16l8.12,9.32a.48.48,0,0,1,0,.66.46.46,0,0,1-.66,0l-7.74-8.89-7.86,10.3A.47.47,0,0,1,194.39,68.74Z" transform="translate(0 -11.57)"/><path class="cls-17" d="M202.6,58h0a.47.47,0,0,1-.47-.47l0-2a.47.47,0,0,1,.47-.46h0a.45.45,0,0,1,.46.47v2.05A.47.47,0,0,1,202.6,58Z" transform="translate(0 -11.57)"/><path class="cls-19" d="M226.44,144.21c-1-.28-2.51.79-3.86,1.15a16.5,16.5,0,0,0-5.55,2.81c-.75.66-4.5,4.93-6.19,6.79a1.07,1.07,0,0,0,0,1.5c.56.5,1.72.49,4-1.58.1-.09.79-.69.86-.74a5,5,0,0,1,2-1s-1.25,1.13-3.38,3.16c2.33,4.05,6.12,7.91,11.17,6.9a30.56,30.56,0,0,0,2-3.74c1-1.73,3.92-6.2,4.77-8.64C232.83,149.17,229.68,145.1,226.44,144.21Z" transform="translate(0 -11.57)"/><path class="cls-16" d="M228.52,59.66,229,60l.37.3.68.58,1.29,1.14c.84.77,1.64,1.54,2.43,2.32,1.58,1.55,3.09,3.16,4.55,4.8a95.59,95.59,0,0,1,8,10.51,85.65,85.65,0,0,1,6.46,11.7c.92,2.06,1.76,4.15,2.5,6.3.38,1.06.72,2.15,1,3.24.16.54.32,1.09.46,1.64l.11.41.06.21.11.42a14.92,14.92,0,0,1,.41,3.7c0,.53,0,1-.07,1.46a21.87,21.87,0,0,1-.36,2.44,32.1,32.1,0,0,1-1.08,3.94c-.4,1.2-.83,2.31-1.28,3.37s-.91,2.1-1.39,3.09c-1,2-2,3.9-3,5.75s-2.09,3.65-3.17,5.43c-2.16,3.54-4.41,7-6.72,10.33-1.17,1.68-2.34,3.34-3.54,5-.59.82-1.19,1.65-1.8,2.47l-.92,1.23-1,1.25-12.45-8.77.75-1.19.76-1.23,1.51-2.48c1-1.65,2-3.32,3-5,1.95-3.34,3.84-6.7,5.62-10.05q1.33-2.52,2.56-5c.81-1.67,1.57-3.34,2.24-5a45.09,45.09,0,0,0,1.67-4.64,14.78,14.78,0,0,0,.4-1.82,4.56,4.56,0,0,0,0-.51s0-.06,0,0a1.18,1.18,0,0,0,0,.2,3.38,3.38,0,0,0,.08.55l0,.09v0h0v0l-.05-.15-.1-.3-.4-1.21c-.29-.8-.58-1.6-.9-2.39-.63-1.59-1.35-3.15-2.12-4.69a70.24,70.24,0,0,0-5.39-9c-1-1.44-2.08-2.85-3.19-4.23s-2.27-2.72-3.47-4-2.42-2.59-3.68-3.8c-.64-.61-1.28-1.2-1.91-1.77-.32-.29-.63-.57-.94-.83l-.46-.39-.33-.27Z" transform="translate(0 -11.57)"/><path class="cls-21" d="M239.69,108.19a.47.47,0,0,1-.45-.37.45.45,0,0,1,.35-.55,48,48,0,0,1,7.24-1,.49.49,0,0,1,.49.45.48.48,0,0,1-.45.49,48.17,48.17,0,0,0-7.08,1Z" transform="translate(0 -11.57)"/><path class="cls-21" d="M240,108.13a.46.46,0,0,1-.37-.18.48.48,0,0,1,.09-.66c1.57-1.19,3.76-2.52,3.86-2.58a.47.47,0,1,1,.48.8s-2.25,1.36-3.77,2.53A.52.52,0,0,1,240,108.13Z" transform="translate(0 -11.57)"/><path class="cls-21" d="M234,97.39a.48.48,0,0,1-.39-.21c-.09-.13-8.38-13-13.75-17.63a.47.47,0,1,1,.61-.71c5.47,4.72,13.58,17.3,13.92,17.83a.47.47,0,0,1-.14.65A.47.47,0,0,1,234,97.39Z" transform="translate(0 -11.57)"/><path class="cls-21" d="M223,82.51H223l-4-.61a.47.47,0,1,1,.14-.92l4,.61a.47.47,0,0,1-.08.93Z" transform="translate(0 -11.57)"/><path class="cls-21" d="M237.37,147.18a.43.43,0,0,1-.27-.08l-12.33-8.5a.47.47,0,0,1-.12-.65.47.47,0,0,1,.65-.12l12.33,8.5a.47.47,0,0,1-.26.85Z" transform="translate(0 -11.57)"/><path class="cls-21" d="M229.93,150.69a.5.5,0,0,1-.26-.08.48.48,0,0,1-.13-.65l3.81-5.73a.47.47,0,0,1,.78.52l-3.81,5.73A.48.48,0,0,1,229.93,150.69Z" transform="translate(0 -11.57)"/><path class="cls-21" d="M227.88,145.9a1.09,1.09,0,0,0,1.94-1,1.09,1.09,0,1,0-1.94,1Z" transform="translate(0 -11.57)"/></g></g></g></g></svg>