<svg xmlns="http://www.w3.org/2000/svg" viewBox="0 0 322.21 259.49"><defs><style>.cls-1{opacity:0.25;}.cls-2{fill:#4ec0c4;}.cls-3{fill:#c9d1d8;}.cls-10,.cls-11,.cls-13,.cls-14,.cls-15,.cls-16,.cls-17,.cls-18,.cls-19,.cls-21,.cls-22,.cls-23,.cls-24,.cls-25,.cls-26,.cls-28,.cls-3,.cls-30,.cls-31,.cls-32,.cls-33,.cls-34,.cls-35,.cls-37,.cls-38,.cls-39,.cls-4,.cls-40,.cls-41,.cls-42,.cls-43,.cls-44,.cls-45,.cls-46,.cls-49,.cls-5,.cls-52,.cls-53,.cls-54,.cls-55,.cls-56,.cls-57,.cls-58,.cls-59,.cls-6,.cls-60,.cls-61,.cls-62,.cls-63,.cls-66,.cls-67,.cls-68,.cls-7,.cls-72,.cls-73,.cls-74,.cls-76,.cls-9{fill-rule:evenodd;}.cls-4{fill:#d7dfe7;}.cls-5{fill:#f9f9f9;}.cls-6{fill:#fcae98;}.cls-29,.cls-7{fill:#fff;}.cls-74,.cls-8{fill:#ceccca;}.cls-9{fill:#314865;}.cls-10{fill:#e9eef2;}.cls-11,.cls-50{fill:#29307d;}.cls-12,.cls-13{fill:#fa5;}.cls-14{fill:#ffbb7d;}.cls-15{fill:#ffd7b6;}.cls-16{fill:#dee4ea;}.cls-17{fill:#eceae8;}.cls-18{fill:#db8038;}.cls-19{fill:#46c7ce;}.cls-20{fill:#37a0a0;}.cls-21{fill:#dadada;}.cls-22{fill:#bcbcbc;}.cls-23{fill:#c6c7fc;}.cls-24{fill:#354a63;}.cls-25,.cls-71{fill:#3c150b;}.cls-26,.cls-51{fill:#db8f7b;}.cls-27,.cls-46{fill:#a46451;}.cls-28{fill:#377872;}.cls-30{fill:#d6dbf5;}.cls-31{fill:#1e62b9;}.cls-32{fill:#3677e4;}.cls-33{fill:#e6a498;}.cls-34{fill:#f7beb3;}.cls-35{fill:#4c3530;}.cls-36{fill:#b16d61;}.cls-37{fill:#8a94c9;}.cls-38{fill:#b0b2f7;}.cls-39{fill:#d8d9fd;}.cls-40{fill:#e4e4fd;}.cls-41{fill:#cecffc;}.cls-42,.cls-47{fill:#26364c;}.cls-43,.cls-69{fill:#fad27f;}.cls-44{fill:#fc7270;}.cls-45{fill:#c27d6a;}.cls-48,.cls-68{fill:#834837;}.cls-49,.cls-75{fill:#e94846;}.cls-52,.cls-65{fill:#e85451;}.cls-53,.cls-64{fill:#cd8876;}.cls-54{fill:#9da7d8;}.cls-55{fill:#f3bc5b;}.cls-56{fill:#b77b24;}.cls-57{fill:#ce9334;}.cls-58{fill:#cf8a7f;}.cls-59{fill:#301e49;}.cls-60{fill:#cbcbcb;}.cls-61{fill:#e5e5e5;}.cls-62{fill:#fcb9a4;}.cls-63{fill:#eaa18c;}.cls-66{fill:#718da9;}.cls-67{fill:#3c5677;}.cls-70,.cls-72{fill:#cf9d38;}.cls-73{fill:#eef0f1;}.cls-76{fill:#f4f4ff;}</style></defs><g id="Layer_2" data-name="Layer 2"><g id="Option_1" data-name="Option 1"><g class="cls-1"><path class="cls-2" d="M285.49,232.94c66.58-38,22.28-77.14,22.28-77.14a62.68,62.68,0,0,1-16.89-31.2c-5.1-23.94,16.65-48.34,9.39-71.72-5.34-17.2-24.68-26.27-42.63-27.78s-36,2.4-54,1.29c-21.54-1.34-41.88-9.79-62.31-16.75S99-2.91,77.93,1.66,37.16,23.82,37,45.4c-.08,9.73,3.62,19.83.17,28.93C31.81,88.39,12.86,92,4.33,104.35c-8.34,12.1-3,28.21,2.48,41.84C29.18,201.52,81.34,231,125.32,246,125.32,246,211,275.49,285.49,232.94Z"/></g><polygon class="cls-3" points="86.16 203.27 100.73 203.27 100.73 237.54 90.58 239.44 86.16 236.74 86.16 203.27 86.16 203.27"/><polygon class="cls-4" points="86.16 203.27 90.03 203.27 90.03 239.44 86.16 236.74 86.16 203.27 86.16 203.27"/><polyline class="cls-5" points="74.86 199.69 11.04 164.15 252.09 137.98"/><polyline class="cls-5" points="74.86 199.69 302.58 166.57 302.58 145.71 250.41 137.72"/><path class="cls-6" d="M215,56s-3.45,24.28,2,35.48,20.53,6.67,22,7.91,1.51,9.73,1.51,9.73l30-2.49-2.71-19.11S261.59,40.81,215,56Z"/><path class="cls-7" d="M133.08,136.78s.18,9.11.23,10.08-.4,3.7,3.65,5,22.36,5,22.36,5l-38.53,4.54s-17.31-3.14-19.74-5.42-2.28-3-2.33-5.46,0-11.47,0-11.47l34.36-2.22Z"/><path class="cls-8" d="M99.06,137.72c.15,3.71.48,11.69.6,14.94a3.45,3.45,0,0,0,2.21,3.32c2.76,1.29,17.24,5,18.92,5.37l38.53-4.54.21,1.83-38.86,4.58-.16,0c-.05,0-16.26-4.07-19.41-5.54a5.33,5.33,0,0,1-3.27-5.1l-.6-14.74,1.83-.08Z"/><path class="cls-3" d="M58.8,12.91Q92,14.2,125.11,15.45t66.34,2.4a5.22,5.22,0,0,1,4.94,4.4c1.79,17.41,3.5,34.83,4.94,52.23s2.7,34.8,4,52.21a4.44,4.44,0,0,1-4.15,4.59c-22.05,2.09-44,4.42-66.07,6.34S91,141,68.9,142.19a4.81,4.81,0,0,1-4.84-4.59c-1.59-20-3.3-40-4.9-60s-3-40-4.48-60a4.1,4.1,0,0,1,4.12-4.68Z"/><path class="cls-7" d="M59.84,11.8q33.16,1.3,66.32,2.55t66.33,2.4a5.21,5.21,0,0,1,4.95,4.39c1.79,17.41,3.5,34.83,4.94,52.23s2.7,34.81,4,52.22a4.44,4.44,0,0,1-4.15,4.59c-22.05,2.09-44,4.42-66.08,6.33S92.05,139.84,70,141.09a4.81,4.81,0,0,1-4.84-4.59c-1.59-20-3.31-40-4.9-60s-3-40-4.48-60a4.1,4.1,0,0,1,4.11-4.69Z"/><path class="cls-9" d="M62.75,18.76C64.12,37.83,65.5,56.9,67,76c1.16,14.51,2.38,29,3.57,43.54l127.87-8.18c-.93-12.46-1.87-24.93-2.9-37.38-1.39-16.82-3-33.62-4.75-50.41q-32.44-1.14-64.91-2.35Q94.32,20,62.75,18.76Z"/><polygon class="cls-3" points="74.86 210.84 74.86 199.69 302.58 166.57 302.58 175.28 74.86 210.84 74.86 210.84"/><polygon class="cls-4" points="74.86 210.84 74.86 199.69 11.04 163.81 11.04 174.2 74.86 210.84"/><path class="cls-7" d="M115.62,174.56c11.23,8.72-2.55,10.76-10,10.76-37,0-10.61-26.8,10-10.76Z"/><path class="cls-10" d="M118.9,182.3c-2.42,2.32-8.94,3-13.32,3-16.31,0-20.31-5.19-17.92-9.64,4.75,4.2,14.73,10.07,31.24,6.62Z"/><path class="cls-11" d="M228.36,23.81c-13.22,3.51-20.12,11.76-19.78,23.3s6.45,13.12,15.6,13.12,11.71,2,13.34,7.57S242.29,80,242.29,84,242,88.61,247,91.55s28.26.23,29.84-7.24-1.69-9,2.49-19.22c13.2-32.12-28-47.36-51-41.28Z"/><path class="cls-12" d="M256.14,25.14c-.06,0-21.23-3.64-20.37,36.16l-6.49.13c-.53-24.93,6.73-35,13.91-38.91,5.72-3.11,13-.44,12.95,2.62Z"/><path class="cls-13" d="M232.88,55.73c6.27,0,11.35,6.26,11.35,14s-5.08,14-11.35,14-11.36-6.25-11.36-14,5.09-14,11.36-14Z"/><path class="cls-14" d="M230.56,83.39c-5.16-1.31-9-6.94-9-13.68s3.88-12.37,9-13.69c5.16,1.32,9,6.95,9,13.69s-3.88,12.37-9,13.68Z"/><path class="cls-15" d="M223.87,69.71c0-10.78,12.28-10.78,12.28,0s-12.28,10.78-12.28,0Z"/><polygon class="cls-7" points="112.86 168.36 181.31 159.43 216.49 171.86 141.72 184.58 112.86 168.36 112.86 168.36"/><polygon class="cls-16" points="235.98 163.22 250.55 163.22 250.55 238.35 235.98 238.35 235.98 163.22 235.98 163.22"/><polygon class="cls-17" points="235.98 163.22 243.27 163.22 243.27 238.35 235.98 238.35 235.98 163.22 235.98 163.22"/><polygon class="cls-18" points="129.01 132.18 131.58 131.82 136.2 164.25 133.63 164.61 129.01 132.18 129.01 132.18"/><path class="cls-6" d="M210.83,172.13s-22.83,24.54-31.65,25.1c-2.8.18-51.51-18.18-58.37-25.87-2.64-3-2.13-6.75-1.88-8a32.52,32.52,0,0,1,1.21-6.38c.89-2.44,3.91-2.67,4.73-5s6.72-1.78,6.72-1.78a8.17,8.17,0,0,0,.86,2.54c.45.43,1.74-.75,2-1s1.3-1.24,3.48-.4,2.49,3.74,3.2,6.68-.82,5.92,2.67,7.89c6.76,3,30.91,9.71,32.72,8.27,2-1.63,19.33-22.33,19.33-22.33l15,20.36Z"/><path class="cls-19" d="M283.4,99.86c-8.74-3.28-14.35-2.6-24.86,0S218.75,115.92,215.36,120s-23.63,29.52-23.74,31.44,2,12.67,8.7,19,9.84,6.9,9.84,6.9l8.7-4.18s.16,59.93-2.37,62.87c-.5.58-.66,22.53-.4,23.47L302.58,236V123c-3.06-10.89-8.73-19.17-19.18-23.1Z"/><path class="cls-20" d="M231.87,179.44c0,.08,7.68,28.17,43.93,34.22l-.17,1.07c-36.95-6.16-44.78-34.91-44.8-35l1-.3ZM196,150.07a28,28,0,0,0,16,23.12l-.46.95a29.13,29.13,0,0,1-16.59-24l1.05,0ZM242,159l-20.57,13.12-.58-.91L241.4,158.1l.58.91Zm-22.09-40c.06,0,22.94.12,22.94,32.32h-1.08c0-31.13-21.82-31.24-21.89-31.24l0-1.08Zm5.49,62.9c0,.14,8.39,48.59,26.71,52.8l-.25,1.06c-19-4.38-27.5-53.53-27.52-53.67l1.06-.19Z"/><path class="cls-10" d="M98.12,170.06c1.31,0,2.38.56,2.38,1.26s-1.07,1.25-2.38,1.25-2.38-.56-2.38-1.25,1.07-1.26,2.38-1.26Z"/><path class="cls-21" d="M132.62,15.55a2.15,2.15,0,0,1,1.67,2.12c.07,1.11-.56,2-1.42,1.91a2.14,2.14,0,0,1-1.67-2.12c-.07-1.11.57-2,1.42-1.91Z"/><path class="cls-22" d="M132.65,16.09a1.56,1.56,0,0,1,1.23,1.55c.05.82-.42,1.44-1,1.4a1.56,1.56,0,0,1-1.23-1.55c-.05-.82.42-1.44,1-1.4Z"/><path class="cls-23" d="M129,52.45q-15-.08-30.09-.19L97.49,36.94c-.46-5.09-.91-10.22-1.35-15.35l30.09,1.14q.66,7.47,1.35,14.88c.46,5,.92,9.91,1.38,14.84Z"/><path class="cls-10" d="M110.72,44.44s-.67-.44-3.68.46-4.51,2.36-5,3.81a11.56,11.56,0,0,0-.44,3.56q12.28.1,24.55.17a8.81,8.81,0,0,0-1.4-4.54c-1.2-1.81-8.75-3.47-8.75-3.47a5.51,5.51,0,0,1-5.32,0Z"/><path class="cls-24" d="M119.51,44.48c.82.31,1.63.64,2.46,1,.2,2.32.41,4.66.64,7h-2.39q-.36-4-.71-7.93Z"/><path class="cls-25" d="M114.89,24.37s-1.19-1.67-4.21-1.51-4.4,2-5,4.42.75,6.39,1.38,7.36,10.65.78,10.65.78S118.81,34.31,119,30s-3.51-6-4.12-5.6Z"/><path class="cls-26" d="M107.49,33.18s-.56-1-1.28-.69-.61,2,.27,3,1.33,1.17,1.28.67-.19-2-.27-3Z"/><path class="cls-26" d="M117.12,33.45s.38-1,1.15-.62,1,2.06.27,3-1.11,1.09-1.16.6-.18-2-.26-3Z"/><path class="cls-6" d="M113.56,38.32l1.14.16s-.21,3.92.46,4.79a9.25,9.25,0,0,0,2.4,1.81,7.71,7.71,0,0,1-4.39.83,6.52,6.52,0,0,1-3.86-1.45s1.58-.56,1.76-1.15a29.41,29.41,0,0,0-.5-4.53l3-.46Z"/><path class="cls-26" d="M113.56,38.32l1.14.16a23,23,0,0,0,.11,3.75,4.85,4.85,0,0,1-3.76-.07c-.13-1.36-.48-3.38-.48-3.38l3-.46Z"/><path class="cls-24" d="M105.5,44.89l2.33-.58c.22,2.69.46,5.34.7,8h-2.38q-.34-3.7-.65-7.42Z"/><path class="cls-6" d="M106.75,30.76s.3,5.85,1.93,8a5.12,5.12,0,0,0,6.93,1.32c2.38-1.55,2.17-5.7,2.17-6.66a22.75,22.75,0,0,0-.9-3.9,10.9,10.9,0,0,1-1.7-2.2,5,5,0,0,1-.26-.85s-.92.57-1.66,1.11a2.33,2.33,0,0,0-.88,1.11,1.19,1.19,0,0,1-.21-1.17c.25-.66.28-.76.28-.76a5.61,5.61,0,0,0-2.16,1.11,5.53,5.53,0,0,0-.92,1.24s-.42-.12-.29-.78.27-1.16.27-1.16a28,28,0,0,0-1.87,2.57,4.22,4.22,0,0,1-.73,1.05Z"/><path class="cls-27" d="M110.6,36.58a3.23,3.23,0,0,0,3.69.07c.08.13.16.23.24.35a3.64,3.64,0,0,1-4.14-.12,2.73,2.73,0,0,1,.21-.3Z"/><path class="cls-27" d="M112.32,33.23a4.12,4.12,0,0,1-.2,1.46.48.48,0,0,0-.11.15c-.13.16-.24.31-.16.42s.72.18.72.18c0,.15,0,.28,0,.41a1.54,1.54,0,0,1-1-.36c-.29-.36-.1-.61.11-.91l.11-.15a4.07,4.07,0,0,0,.13-1.23l.4,0Z"/><path class="cls-25" d="M109.61,31.66c.32,0,.6.36.64.8s-.18.8-.49.79-.6-.37-.64-.81.18-.79.49-.78Z"/><path class="cls-25" d="M114.16,31.79c.31,0,.6.37.64.81s-.18.78-.5.77a.81.81,0,0,1-.64-.8c0-.44.18-.79.5-.78Z"/><path d="M108.25,30.66a1.72,1.72,0,0,1,2.38.17l-.27.27a1.33,1.33,0,0,0-1.84-.12,2.85,2.85,0,0,1-.27-.32Zm7.16.21s-1.47-1.1-2.35,0c.11.11.22.2.32.29.67-.88,1.83,0,1.83,0l.2-.32Z"/><path class="cls-7" d="M109.44,32a.18.18,0,0,1,.17.18.14.14,0,0,1-.14.16.19.19,0,0,1-.18-.17.16.16,0,0,1,.15-.17Z"/><path class="cls-7" d="M114,32.13a.19.19,0,0,1,.18.18.14.14,0,0,1-.14.16.19.19,0,0,1-.18-.17c0-.1.05-.17.14-.17Z"/><path class="cls-28" d="M165.81,111.76c-10.24.77-20.47,1.55-30.69,2.25s-20.46,1.29-30.69,1.88q-1.34-15.52-2.69-31.13T99,53.46q15.4.1,30.82.17t30.84,0c.9,9.75,1.82,19.48,2.69,29.18s1.68,19.34,2.48,29Z"/><path class="cls-29" d="M119.19,101.4c-.29-.05-.57-.1-.85-.17a4.87,4.87,0,0,1-3.66-3.63,3.75,3.75,0,0,1,.69-3.3,4.54,4.54,0,0,1,3.2-1.82,7.69,7.69,0,0,1,1.08,0,1.8,1.8,0,0,0,.61,0,.74.74,0,0,1,.32,0,8.34,8.34,0,0,1,.85.26c.28.1.54.24.83.37a.73.73,0,0,1,.15-.16A5.19,5.19,0,0,1,125.68,91a5.54,5.54,0,0,1,1.72-.07,1,1,0,0,0,.24,0,.86.86,0,0,1,.55,0A5.82,5.82,0,0,1,130.63,92,4.15,4.15,0,0,1,131,98.2a4.83,4.83,0,0,1-1.3,1c-.14.07-.16.14-.15.3a5.15,5.15,0,0,1-1.11,4,5.22,5.22,0,0,1-3,1.88,5.13,5.13,0,0,1-5.41-2,5.43,5.43,0,0,1-.88-2.06Zm37.56-45.61c-.24.31-.62.34-.79.06.13-.09.24-.1.79-.06Zm2.88,7.48a.83.83,0,0,1,.72,0,1.4,1.4,0,0,1-.1.16.54.54,0,0,1-.45.07c-.11,0-.16-.1-.17-.25Zm-1.52,3.14a1.23,1.23,0,0,1,.78-.11.63.63,0,0,1-.6.35.21.21,0,0,1-.18-.24ZM153,64.67a1,1,0,0,1-.69.11.23.23,0,0,1-.21-.2.74.74,0,0,1,.9.09Zm-.81.39a1.63,1.63,0,0,1,1.07-.06,2.39,2.39,0,0,1-.78.29c-.16,0-.2,0-.29-.23Zm6.08-1.41a.69.69,0,0,1-.76.36.21.21,0,0,1-.2-.24,2.69,2.69,0,0,1,1-.12ZM149,56.3a5,5,0,0,1,1.27.08s-.05.08-.09.1a1.7,1.7,0,0,1-.92.11c-.16,0-.2-.06-.26-.29Zm-1.15,8.64s0,.08-.07.09a1.59,1.59,0,0,1-.68.21c-.24,0-.25,0-.37-.26a1.58,1.58,0,0,1,1.12,0Zm13.27,1.23c0,.12,0,.18-.12.24a.78.78,0,0,1-.49.16c-.23,0-.27,0-.38-.24a1.61,1.61,0,0,1,1-.16Zm-12-9.31a3.34,3.34,0,0,1,1.33,0l-.17.1a2.41,2.41,0,0,1-.8.15.35.35,0,0,1-.36-.29Zm4.83,14a1.68,1.68,0,0,1-.95.26c-.16,0-.28-.06-.31-.25a4.18,4.18,0,0,1,.94-.14c.09,0,.24,0,.32.13ZM157.68,59a.54.54,0,0,1-.47.32l-.36,0c-.2,0-.2,0-.3-.17a1.28,1.28,0,0,1,1.13-.19Zm-3.52,12.41a2.59,2.59,0,0,1-1.12.26c-.13,0-.16-.11-.21-.19s.16-.1.25-.11a2.48,2.48,0,0,1,1.08,0ZM160,67.18c0,.12-.11.09-.19,0a1,1,0,0,1-.45-.59,1,1,0,0,1,.19-.89s.08,0,.17-.08c-.05.3-.21.54-.11.8a2,2,0,0,0,.39.72Zm-.51-4.7a1.52,1.52,0,0,0-.08.22,1.18,1.18,0,0,0,0,.9c.1.19.18.37.27.55a.17.17,0,0,1,0,.1s-.12,0-.13,0a3,3,0,0,1-.35-.47,1.41,1.41,0,0,1,0-1.17.19.19,0,0,1,.24-.12ZM148.9,72.21c-.18-.07-.18-.19-.21-.29s0-.14-.14-.17a.74.74,0,0,1-.21-.22l.27-.13a1.83,1.83,0,0,0,0-.33c0-.1,0-.17.19-.14l.13.48c.16,0,.31,0,.48-.06,0,.25-.28.31-.47.43,0,.13,0,.27,0,.43ZM158.4,56c-.17-.17-.19-.19,0-.3s.18-.11.28-.15a1.67,1.67,0,0,1,.3-.08,1.76,1.76,0,0,1,.1,1.28c-.32-.24-.28-.55-.34-.87a2,2,0,0,1-.31.12Zm-1.89,8.66c-.23-.19-.24-.23-.34-.87l-.26-.19a2.8,2.8,0,0,1,.28-.31.26.26,0,0,1,.22,0s.1.11.11.17c0,.23.08.48.12.73a.56.56,0,0,1-.13.51Zm3.57-4.58a.7.7,0,0,1-.28-.52,3.45,3.45,0,0,1-.05-.57c-.1,0-.2.08-.27-.06s0-.18.2-.28.25-.08.32,0a.37.37,0,0,1,.07.12c0,.3.09.59.13.89a.68.68,0,0,1-.12.42Zm-5.72-1c.15-.08.2-.28.46-.19l-.22.33c.14.18.4.27.42.58-.22-.11-.39-.21-.58-.32-.21.12-.17.41-.4.55a.19.19,0,0,1-.1-.27c.08-.17.16-.31.24-.49-.1-.09-.22-.21-.32-.32.12-.09.12-.09.5.13Zm4.23-.28c-.14-.14-.39-.17-.38-.41.23-.08.38.12.59.16s.29-.36.65-.31c-.16.16-.29.31-.41.45.09.13.17.24.25.37-.17.09-.28-.06-.42-.07l-.39.44c-.17-.3,0-.43.11-.63Zm-4.77-3c.13-.24.13-.5.37-.72a3.45,3.45,0,0,1-.11.62c0,.21-.06.41-.12.62s-.09.39-.14.58c-.11,0-.14-.07-.14-.12a2.5,2.5,0,0,1,0-.48.39.39,0,0,0-.07-.32c-.11-.21-.21-.43-.31-.63,0,0,0-.05,0-.06l0-.11s.12,0,.14,0,.22.36.34.57ZM146.94,58a1,1,0,0,1-.33-1l-.19.05a.15.15,0,0,1-.17-.11c0-.07,0-.12.05-.16a2,2,0,0,1,.28-.21c.19-.13.33,0,.36.16s.07.47.11.7a.66.66,0,0,1-.11.52Zm7.59-1.78c-.11,0-.22,0-.23-.12a.28.28,0,0,1,.1-.17.49.49,0,0,1,.23-.11.31.31,0,0,1,.25,0c.11,0,.08.14.07.22s-.1.26-.15.39l.53.06a.89.89,0,0,1-.51.39.28.28,0,0,1-.3-.07c-.09-.09-.18-.19-.13-.33s.09-.17.14-.3Zm3.12.62c-.17-.43,0-.78.11-1.17a1.76,1.76,0,0,1-.56-.56.15.15,0,0,1,.25,0,.88.88,0,0,1,.19.2,1.13,1.13,0,0,1,.17.24c.16-.26.15-.6.48-.73a9.36,9.36,0,0,0-.36,1.31,6.4,6.4,0,0,1-.2.62s0,.07-.08.12Zm-.54,15.91c-.06,0-.12,0-.18,0l-.2-.11a2,2,0,0,1-.76-1.26,2.08,2.08,0,0,1,.08-1s0-.07,0-.09.07,0,.09,0a.11.11,0,0,1,.07.08,1.66,1.66,0,0,1,0,.32,2.41,2.41,0,0,0,.66,1.85,1.79,1.79,0,0,0,.24.22Zm-.1-6.56c.42.06.55.21.38.61a1.13,1.13,0,0,1-.51.59c-.25-.13-.27-.21-.11-.39l.3-.32a1.31,1.31,0,0,1,.05-.15c-.21,0-.44,0-.49-.25h-.1c-.06,0-.16,0-.18-.06a.24.24,0,0,1,.09-.13.85.85,0,0,1,.19-.1c.22-.09.32,0,.38.19Zm.88,5.54s.06-.06.1-.07c.41-.11.82-.22,1.24-.31a2.69,2.69,0,0,1,.49,0,.28.28,0,0,1,.19.11.21.21,0,0,1-.07.18.39.39,0,0,1-.27.11c-.38.09-.77.14-1.17.22l-.15,0c-.21,0-.26,0-.36-.23Zm2.79.4a.44.44,0,0,1-.08-.17,3.08,3.08,0,0,1,0-.53,2.16,2.16,0,0,1,.06-.38,1.33,1.33,0,0,0-.21-1c0-.08-.16-.15,0-.23s.19,0,.24.11a1.34,1.34,0,0,1,.36,1,2.49,2.49,0,0,1-.2,1,.93.93,0,0,0-.1.2Zm.07-9.18c-.16,0-.3,0-.35-.13s0-.16.23-.25l.13-.05c.26-.06.4.05.38.29a2.84,2.84,0,0,1-.06.31,1.34,1.34,0,0,0-.08.26h.25l.24,0a.4.4,0,0,1-.25.42.41.41,0,0,1-.44-.07c-.15-.12-.25-.26-.17-.45s.06-.2.12-.34ZM155.4,59.7l-.17.1c-.16-.15-.18-.18-.07-.29a.92.92,0,0,1,.35-.19c.22-.06.37.07.32.27l-.18.51a1.66,1.66,0,0,0-.06.21l.49.06a.47.47,0,0,1-.57.41.43.43,0,0,1-.3-.44c0-.15.1-.28.14-.42a1.63,1.63,0,0,1,.09-.19l0,0Zm-6.54,5.18c.13-.24.16-.51.4-.72v.13a6.28,6.28,0,0,0-.3,1.59,8.48,8.48,0,0,1-.13.88s0,.07-.08.15c0-.1-.05-.16-.06-.21a3.23,3.23,0,0,1,.06-1.24.5.5,0,0,0-.06-.35,5.83,5.83,0,0,1-.34-.66c0-.07,0-.14,0-.14a.22.22,0,0,1,.17,0c.11.17.19.33.3.52ZM145.47,58a.24.24,0,0,1-.12-.3,4.17,4.17,0,0,1,.18-.57c.05-.15.12-.3.17-.45a2.08,2.08,0,0,1-.73-.83c.09-.11.17-.08.25,0s.21.26.32.41l.2.25c.19-.33.21-.7.52-.94a11.83,11.83,0,0,1-.79,2.4Zm16.1,7.6a.51.51,0,0,0,0,.48c.13,0,.13-.06.15-.13a2.09,2.09,0,0,1,0-.35.36.36,0,0,1,0-.09c0,.49.08,1,.13,1.45-.11-.12-.11-.28-.17-.42a.42.42,0,0,1-.47-.28.68.68,0,0,1,0-.59c0-.09.13-.13.28-.07ZM149.86,65c-.08,0-.12.09-.18.12-.18-.14-.18-.15-.1-.31a.5.5,0,0,1,.37-.33c.21-.05.39.07.36.27s-.08.35-.12.52-.07.24-.11.37l.52,0a.4.4,0,0,1-.25.46.46.46,0,0,1-.48,0,.47.47,0,0,1-.21-.5c.05-.19.12-.39.2-.62Zm9.42,9.31c-.2-.24-.09-.49-.19-.71-.18,0-.26,0-.34-.21l.37-.19c0-.13,0-.25,0-.4l-.4.06c-.2,0-.23,0-.28-.22a3.68,3.68,0,0,1,.82-.23c.19,0,.27.06.27.24s0,.29,0,.43c.18.07.37-.08.56.09a2.68,2.68,0,0,1-.36.16.23.23,0,0,0-.18.25,1,1,0,0,1-.25.73Zm-.44-4.34a.77.77,0,0,0,.19,0c.28.1.36.2.32.45a.78.78,0,0,1-.27.51.46.46,0,0,1-.69,0,2.71,2.71,0,0,1-.22-.27l.36,0a.3.3,0,0,0,.35-.22.76.76,0,0,1-.43-.21.38.38,0,0,1,0-.43,2.1,2.1,0,0,1-.26-.13s0-.1-.07-.15a.54.54,0,0,1,.61,0c.22.11.12.29.11.47Zm-11.33,1.71c.1-.28.16-.52.24-.76a1,1,0,0,1,.1-.21s.06-.12.14-.06,0,.09,0,.13c-.07.32-.13.61-.2.91-.09.48-.19.94-.28,1.4,0,0,0,.11,0,.17s0,.1,0,.14,0,.17-.14.15a.24.24,0,0,1-.15-.16,1.11,1.11,0,0,1,0-.44,4.06,4.06,0,0,1,.15-.71.41.41,0,0,0-.08-.41c-.2-.27-.39-.54-.56-.8a.66.66,0,0,1-.09-.27s0-.09.08-.09.1,0,.12,0c.12.36.48.59.66,1ZM161.13,76l.51-.28,0,0a.57.57,0,0,1-.08.13c.42.14.46.2.4.63l0,0c.31.14.36.25.28.56a.88.88,0,0,1-.52.53.72.72,0,0,1-.9-.47c.05,0,.1,0,.16,0a1.53,1.53,0,0,0,.32,0,.5.5,0,0,0,.53-.3c-.12,0-.25,0-.35-.1s-.09-.16,0-.26a.56.56,0,0,0,.15-.32c-.16-.14-.47.07-.55-.25Zm-11-4.84c-.19-.14-.21-.23-.13-.4a.78.78,0,0,1,.58-.36c.28,0,.44.11.43.36a.73.73,0,0,1-.07.3c-.08.22-.17.44-.28.69a2,2,0,0,1,.92.19,1.61,1.61,0,0,1-.93.34c-.33,0-.59-.34-.47-.61s.19-.37.28-.56l.14-.29c-.15,0-.26.05-.26.12s-.12.17-.21.22Zm5.56-3.34c-.1-.12-.19-.19-.22-.28-.1-.24-.21-.49-.29-.73-.17-.61-.36-1.22-.5-1.83a3.65,3.65,0,0,1-.1-1.57,1.94,1.94,0,0,1,.12-.39.51.51,0,0,1,.13-.16s.1,0,.12,0,.06.08.05.12a.29.29,0,0,1-.06.17c-.22.2-.16.48-.14.75a6.77,6.77,0,0,0,.42,1.89c.17.52.36,1,.53,1.55a.47.47,0,0,1-.06.49ZM152.4,55.06a1.44,1.44,0,0,0-.08-.17.59.59,0,0,0-.21.33,2.38,2.38,0,0,0-.08,1c.07.69.15,1.38.24,2.08,0,.38.12.77.19,1.16,0,.12.06.24.08.36a.37.37,0,0,1-.11.35.45.45,0,0,1-.23-.28,2.63,2.63,0,0,1-.1-.47c-.11-.85-.22-1.7-.28-2.54a5.31,5.31,0,0,1,0-1.49A3,3,0,0,1,152,55a.57.57,0,0,1,.12-.18c.1-.13.23-.18.31-.14s.08.12,0,.35Zm.55,3a1.62,1.62,0,0,1,.64-.15c.69-.08,1.4-.14,2.09-.24s1.61-.28,2.41-.42a12.62,12.62,0,0,1,2.14-.22,1.22,1.22,0,0,1,.32,0,.2.2,0,0,1,.12.1.18.18,0,0,1-.08.13,2,2,0,0,1-.42.09,28.39,28.39,0,0,0-3.17.43,24.26,24.26,0,0,1-2.42.32l-1.35.1c-.19,0-.2,0-.28-.18Zm8.73,6.62-2.05.3c-.35,0-.68.07-1,.09a16.93,16.93,0,0,0-1.88.23c-.23,0-.47,0-.69,0a.12.12,0,0,1-.12,0,.15.15,0,0,1-.08-.11s0-.07.08-.1.06,0,.09,0l1.45-.28c.43-.07.87-.09,1.3-.15.58-.07,1.18-.15,1.77-.24l1.12-.16c0,.14,0,.3,0,.43Zm-38.22.89a.66.66,0,0,0,.15.14c1.25.93,2.58,1.75,3.91,2.58l5.25,3.26.1.06c.18.11.29.24.21.45,0,0,0,0,0,0a2.29,2.29,0,0,1,.28.08c.14,0,.18.13.12.24a.32.32,0,0,1-.32.23l-1.38.08-1.67,0-1.81.09-1.63.07L125,73c-.62,0-1.27,0-1.9,0s-1.33.1-2,.14c-.51,0-1,.11-1.49.13a6,6,0,0,1-1-.11.28.28,0,0,1-.24-.15s0-.09,0-.1.06-.2,0-.31a4,4,0,0,1,0-.69,5.23,5.23,0,0,0-.07-1.12c-.08-.75-.17-1.5-.25-2.25,0-.41-.11-.82-.16-1.23-.2-1.36-.36-2.73-.47-4.12-.06-.76-.13-1.52-.18-2.28a2.67,2.67,0,0,1,0-.4c.12-.09.21,0,.29.08s.3.37.46.53c.43.39.87.76,1.31,1.14l1.55,1.25c.8.64,1.6,1.29,2.41,1.92.07,0,.15.08.23.13-.16-.17-.33-.34-.49-.52a1.72,1.72,0,0,1-.22-.33,1,1,0,0,1,0-1.14,2.67,2.67,0,0,1,.66-.64,10.35,10.35,0,0,1,2.27-1.22l1.51-.54s0,0,0,0a21.55,21.55,0,0,1,1-2.87,5.81,5.81,0,0,0,.41-1.44c0-.15.09-.2.25-.17a.19.19,0,0,1,.19.24c0,.14-.05.27-.09.4-.28.73-.58,1.45-.86,2.18-.18.47-.36.95-.54,1.4a1.73,1.73,0,0,0,0,.2,1.4,1.4,0,0,1,.24-.06,17,17,0,0,1,3-.54,27.3,27.3,0,0,1,2.87-.15,6.48,6.48,0,0,1,1.45.14,1.07,1.07,0,0,1,.27.09c.08,0,.12.12.05.21a.5.5,0,0,0-.36-.16,6.89,6.89,0,0,0-1-.09,22.44,22.44,0,0,0-6.36.84A14.07,14.07,0,0,0,124,63a3.71,3.71,0,0,0-.86.77.66.66,0,0,0,0,.79,2.27,2.27,0,0,0,.73.75,4,4,0,0,0,1.69.59c.65.11,1.32.19,2,.25l2.55.1a12.47,12.47,0,0,0,3.76-.38,4.24,4.24,0,0,0,1.93-1,2.56,2.56,0,0,0,.88-1.73,3,3,0,0,0-.33-1.25.63.63,0,0,0-.35-.31,3.11,3.11,0,0,0-1.08-.19,7.2,7.2,0,0,1-1.53-.19,7.83,7.83,0,0,1-.92-.34c.06-.11.17-.09.25-.09l1.47.06.85.06a3.26,3.26,0,0,1,1,.18,1.31,1.31,0,0,1,.73.63,2.76,2.76,0,0,1-.34,3.24A4.25,4.25,0,0,1,134,66.3a9.55,9.55,0,0,1-2.26.39c-.64,0-1.3.07-2,0a36.81,36.81,0,0,1-4-.31,5.38,5.38,0,0,1-2.21-.81ZM109,57.46a.45.45,0,0,1-.23,0,.26.26,0,0,0-.35.08,1.25,1.25,0,0,0-.16.24c.11.24.4.39.31.66-.12,0-.17,0-.24-.1a1.62,1.62,0,0,1-.41-.94.43.43,0,0,0,.17.06c.12-.21.27-.43.57-.4s.26.24.36.39,0,0,0,.05Zm20.27,17.15a1.21,1.21,0,0,1,.58-.19c.15,0,.22.08.16.21s-.25.22-.44.24-.21-.12-.3-.26Zm-16.94-6.73a.47.47,0,0,1-.36.28l-.52,0a.16.16,0,0,1-.17-.14,1.77,1.77,0,0,1,1-.18Zm14.36-3.67a1,1,0,0,1,.91-.08c0,.18-.19.23-.33.27a1.22,1.22,0,0,1-.32,0c-.16,0-.19-.11-.26-.23ZM126.1,75a1,1,0,0,1-.71.38.29.29,0,0,1-.23-.13c-.08-.09,0-.16.06-.19a2.07,2.07,0,0,1,.88-.06Zm.46-11.38a1.38,1.38,0,0,1,1,0c0,.24-.24.24-.42.23s-.43,0-.54-.28Zm5.08.08a1.69,1.69,0,0,0,.27.12c-.26.1-.23.3-.32.48-.12-.12-.18-.26-.35-.28s-.09-.12,0-.18l.15-.09a1.61,1.61,0,0,1,0-.22.16.16,0,0,1,.11-.1s.09,0,.12.09a1,1,0,0,1,0,.18Zm12-7.25a2.11,2.11,0,0,1,1.27,0,.49.49,0,0,1-.15.11,1.93,1.93,0,0,1-.93.08c-.11,0-.16-.06-.19-.19ZM111.16,67.32a1.85,1.85,0,0,1,.88-.12.34.34,0,0,1,.16.1c0,.08-.06.12-.12.15a1.42,1.42,0,0,1-.68.12c-.15,0-.17,0-.24-.25ZM125,74.56a.66.66,0,0,1,.15-.07c.21,0,.44,0,.65-.06s.26,0,.32.1-.08.19-.25.22-.43,0-.65,0-.11,0-.22-.21Zm17.21-3.44c0,.07,0,.14-.09.17l-.56.36a.41.41,0,0,1-.19,0,.24.24,0,0,1-.23-.17c0-.09,0-.11.11-.15a2.3,2.3,0,0,1,1-.25ZM117,58.3a.47.47,0,0,1-.13-.11,6,6,0,0,1-.33-.54.24.24,0,0,1,0-.13.1.1,0,0,1,.17-.08s.08.1.12.13l.52-.27c0,.08,0,.13,0,.16a1.56,1.56,0,0,1-.16.2c-.09.1-.18.18-.08.35s0,.21-.08.29Zm15.79,5.15c-.2.07-.29.17-.26.37a.35.35,0,0,1,0,.24,1.07,1.07,0,0,1-.2-.92c.21,0,.12.15.21.22s.12-.11.2-.16a.29.29,0,0,1,.4.12c.12.2.21.41,0,.61-.22-.09-.25-.29-.32-.48Zm-1,10.45H132c.16,0,.2.1.13.22a.36.36,0,0,1-.44.21.42.42,0,0,1-.29-.41,1.37,1.37,0,0,1,0-.19c-.13,0-.13,0-.24.18-.17-.14-.18-.21,0-.34a.41.41,0,0,1,.23-.14c.22-.08.34,0,.37.23a1.29,1.29,0,0,0,0,.25Zm-1,1.12c-.06-.1-.14-.16-.17-.25a4.76,4.76,0,0,1-.19-.61s.05-.08.06-.13.12,0,.14.08.07.11.11.18,0,0,0,0c.27-.19.43-.16.6.12a.42.42,0,0,1,0,.52c-.28-.06-.25-.32-.38-.49a.22.22,0,0,0-.12.3c0,.1,0,.17-.1.29Zm-17.23-20.5a.9.9,0,0,0,.26-.13c.29-.27.38-.28.77,0,0,.28-.09.33-.4.18l-.36.32a2.27,2.27,0,0,1,.32.9,1.72,1.72,0,0,1-.59-1.22ZM129.36,74a.61.61,0,0,1-.7.35.31.31,0,0,1-.23-.43l.09-.14s0,0,0,0a.2.2,0,0,1-.09-.26.3.3,0,0,1,.31-.1.22.22,0,0,1,.2.21,2.48,2.48,0,0,1,0,.27c.33,0,.33,0,.49.15Zm-3.48-9.7a.71.71,0,0,1-.4.4.29.29,0,0,1-.32-.07,1.14,1.14,0,0,1-.4-.84.57.57,0,0,1,.66-.42c.13,0,.14.08.06.26h-.1c-.28,0-.38.18-.27.41a.61.61,0,0,0,.09.16.23.23,0,0,0,.27.12l.29,0,.12,0Zm-21.77,9.49c-.12.22-.13.46-.31.62-.09,0-.14-.07-.12-.17.1-.27.19-.55.28-.84,0-.07.06-.13.16-.14a.19.19,0,0,1,.18.14l.45,1a.46.46,0,0,1,0,.49c-.37-.29-.37-.73-.61-1.11Zm11.79-7.11c.16,0,.16,0,.34.23l.09-.11a.41.41,0,0,1,.68.16,1,1,0,0,1,.11.85c-.34-.2-.35-.53-.47-.81-.23,0-.33.11-.33.31s0,.24,0,.36,0,.15,0,.24a2.43,2.43,0,0,1-.4-1.23Zm17.33-4.06-.22.14c-.17-.16-.18-.26,0-.36a.59.59,0,0,1,.22-.12.29.29,0,0,1,.42.3.71.71,0,0,1,0,.25c.17,0,.33-.07.51.06a.48.48,0,0,1-.3.43l-.16.06a.35.35,0,0,1-.49-.38.92.92,0,0,1,.07-.26v-.12Zm-5,12.44c-.27-.14-.28-.35-.36-.55-.24.11-.07.4-.27.53-.2,0-.2-.22-.31-.37,0,.16-.06.29-.09.44-.25-.08-.31-.3-.21-.77h.46a.28.28,0,0,0,.14-.1.36.36,0,0,1,.6.19,1.54,1.54,0,0,1,.09.37,1,1,0,0,1,0,.27Zm-19.74-2.72c.31,0,.27.28.43.4.06,0,.06-.11.1-.18a.33.33,0,0,1,.26-.22.27.27,0,0,1,.3.06.26.26,0,0,1,0,.32c-.28.16-.25.42-.25.68a.91.91,0,0,1-.06.32c0,.09-.1.1-.18,0a.76.76,0,0,1-.12-.19c-.15-.36-.3-.73-.43-1.11,0,0,0,0,0-.1Zm22.08-9.44.31-.06a1,1,0,0,1,.24,0,.2.2,0,0,1,.12.1.3.3,0,0,1-.2.33c-.16,0-.34.08-.51.12a.26.26,0,0,1-.29-.1.28.28,0,0,1-.08-.3c.08-.15.13-.33.2-.5a.3.3,0,0,0-.29.18c-.2-.1-.24-.21-.11-.32a1.07,1.07,0,0,1,.39-.18.26.26,0,0,1,.29.25.72.72,0,0,1,0,.25c0,.07,0,.15,0,.24ZM142.44,57a5.79,5.79,0,0,1,.57-1.32.24.24,0,0,1,0,.08c-.2.78-.41,1.56-.61,2.33,0,0,0,.06-.08.11s-.05-.09-.06-.14-.05-.22,0-.32a1.41,1.41,0,0,0-.14-.89,6.59,6.59,0,0,1-.24-.87c0-.08,0-.15.1-.16s.13.07.14.14c.09.33.19.67.3,1Zm-32.89,9.5a3.93,3.93,0,0,1,.22.85.72.72,0,0,0,.2-.09.39.39,0,0,1,.55.34.88.88,0,0,1-.24.76c-.07.09-.16.17-.29.12a.49.49,0,0,1-.38-.31,1.1,1.1,0,0,1,0-.18,4.66,4.66,0,0,0-.11-1.23,2.18,2.18,0,0,1,0-.25Zm.65,1h0c-.28.06-.39.3-.28.6a.46.46,0,0,0,.28-.6Zm35.94-3s0,.07,0,.11c-.07.7-.15,1.39-.23,2.09,0,0,0,.06-.05.11a.3.3,0,0,1-.18-.27,3.23,3.23,0,0,1,0-.44.46.46,0,0,0-.08-.28c-.22-.38-.42-.76-.62-1.13a.12.12,0,0,1,0-.19.16.16,0,0,1,.19.09,2.55,2.55,0,0,1,.14.24c.14.23.27.47.43.73,0-.19.08-.38.13-.55a1.13,1.13,0,0,1,.16-.52Zm-30.26,3.36c-.28-.15-.3-.44-.44-.71a1.33,1.33,0,0,1-.06.28c0,.06,0,.15-.1.16s-.15-.06-.19-.15a2.05,2.05,0,0,0-.16-.26.41.41,0,0,0-.05.16c0,.1.05.2.06.3a.6.6,0,0,1,0,.22,1.33,1.33,0,0,1-.35-1.07c.16,0,.11.14.2.16a.71.71,0,0,1,.21,0,.2.2,0,0,0,.16-.1.33.33,0,0,1,.6.06,2.16,2.16,0,0,1,.22.49.49.49,0,0,1-.08.49Zm-2.22,0c.28,0,.51-.17.78,0a.61.61,0,0,0,0,.13.74.74,0,0,1-.69.32.5.5,0,0,1-.39-.56,3.45,3.45,0,0,1,.15-.4c-.1,0-.2.11-.28,0a.25.25,0,0,1,0-.31.6.6,0,0,1,.47-.23.18.18,0,0,1,.22.18,1,1,0,0,1,0,.38,3.59,3.59,0,0,1-.2.51Zm1.44-14.29v.23c.24,0,.44-.18.72-.07a.73.73,0,0,1-.36.53l-.25.13c-.12.06-.25.11-.37,0a.43.43,0,0,1-.19-.41c0-.13,0-.23.07-.36s0,0,0-.06Zm-9.3,20.78a.86.86,0,0,1-.29.51,14.67,14.67,0,0,1-1.72,1.5l0,0s-.12.1-.2,0,0-.16,0-.23l.76-.69c.26-.26.51-.53.79-.79.12-.12.27-.22.4-.33a1.49,1.49,0,0,1,.25-.07.1.1,0,0,1,0,0ZM116,58.82a2.27,2.27,0,0,1-.56-.94,2.07,2.07,0,0,0-.25.15c-.16-.15-.16-.15,0-.3a3.4,3.4,0,0,1,1-.91c.1,0,.1,0,.28,0a4.57,4.57,0,0,1-.35.39.25.25,0,0,0,0,.32c.14.29.27.57.38.86a.86.86,0,0,1,0,.35,3.15,3.15,0,0,1-.64-1.23l-.24.19c.14.26.28.54.41.8s.12.21,0,.34Zm12.69,5.47a.25.25,0,0,1-.2-.29c0-.2,0-.42,0-.64a.39.39,0,0,0,.28-.06.35.35,0,0,1,.42,0,2.44,2.44,0,0,1,.32-.11.33.33,0,0,1,.39.16,6,6,0,0,1,.17.82c0,.09,0,.17-.09.29-.39-.19-.36-.51-.41-.81-.22.09-.12.35-.3.46-.26-.09-.26-.32-.33-.57a.51.51,0,0,0-.15.39.31.31,0,0,1-.09.33Zm-5,10.82a1.57,1.57,0,0,1-.12.21c-.16.24-.41.23-.61,0a.67.67,0,0,1,.48-1,.29.29,0,0,1,.3.13c0,.08.1.16.15.25a2.27,2.27,0,0,0,.22.32.31.31,0,0,0,.28.14.11.11,0,0,1,.15.12.28.28,0,0,1-.15.26.24.24,0,0,1-.3,0,4.64,4.64,0,0,1-.4-.36Zm-.29-.51h0c-.3.22-.32.31-.15.49a.79.79,0,0,0,.15-.49Zm-18.59,2.94c.26.15.32.14.5-.06a.6.6,0,0,0,.19-.52h-.29a.25.25,0,0,1-.26-.34,1.63,1.63,0,0,1,.11-.23l0,0-.32.45a.18.18,0,0,1-.1-.26,1.72,1.72,0,0,1,.54-.66.22.22,0,0,1,.13,0c.12,0,.2,0,.2.14a1.61,1.61,0,0,1-.07.37,1.52,1.52,0,0,1-.06.2s0,0,0,0c.42,0,.54.17.49.58a1,1,0,0,1-.35.72.47.47,0,0,1-.73-.23.41.41,0,0,1,0-.12Zm8.71-23.42c-.13.17-.24.32-.35.44a.28.28,0,0,0-.06.31,3,3,0,0,0,.16.42,2.12,2.12,0,0,1,.13.87c-.13-.1-.2-.18-.35-.61-.08-.22-.13-.41-.21-.68l-.37.26.3.57c.07.13.15.26.2.38a.29.29,0,0,1,0,.33c-.2-.09-.2-.09-.66-1.14a2,2,0,0,0-.25.14c-.06,0-.1.09-.16.1a.22.22,0,0,1-.18,0c-.06,0,0-.11,0-.17A4.29,4.29,0,0,0,112,55c.36-.29.73-.59,1.1-.87.11-.07.11-.06.35,0Zm.69,4.55a1.37,1.37,0,0,0-.13.2c-.17-.1-.24-.2-.17-.36a1.78,1.78,0,0,1,.28-.48c.08-.12.22-.11.36-.08s.16.17.14.32,0,.48-.08.73c0,0,0,.09,0,.17a2.83,2.83,0,0,1,.94-.32c0,.07,0,.12,0,.13a4.5,4.5,0,0,1-.8.77c-.1,0-.21.14-.33,0a.46.46,0,0,1-.23-.41l.12-.71ZM142.9,71.25c.59-.12,1.07-.32,1.59-.38a.06.06,0,0,1,0,0,.47.47,0,0,1-.13.15c-.28.17-.54.35-.82.5a1.6,1.6,0,0,1-.48.16.39.39,0,0,1-.43-.14.39.39,0,0,1-.12-.44c.07-.15.17-.32.23-.48s.07-.19.1-.28a.35.35,0,0,0-.41.09,2,2,0,0,0,.1.23.24.24,0,0,1-.24-.16.22.22,0,0,1,0-.3.58.58,0,0,1,.55-.16.37.37,0,0,1,.3.43A2.35,2.35,0,0,1,143,71a1.06,1.06,0,0,1-.13.27Zm-3.54.8c0,.23.13.44,0,.6a.27.27,0,0,1-.2-.24c-.1-.27-.19-.55-.27-.85,0,0,0-.15,0-.17a.34.34,0,0,1,.26,0,2.82,2.82,0,0,1,.29.18,1.72,1.72,0,0,0,.19.17c.09-.2.18-.36.28-.54a.32.32,0,0,1,.26-.17.27.27,0,0,1,.34.14,3.77,3.77,0,0,1,.34.81.25.25,0,0,1-.08.29c-.34-.11-.4-.42-.58-.71-.08.21-.15.37-.2.55-.12.35-.18.36-.48.09l-.12-.1Zm-.6.81a1,1,0,0,1-.54.46c-.32.12-.64.23-1,.32a.37.37,0,0,1-.5-.19.29.29,0,0,1,0-.32l.48-.77.18-.23-.24,0c-.29.07-.58.16-.87.24s-.16,0-.27-.11a3.71,3.71,0,0,1,1.94-.51c.08.15,0,.27-.08.38s-.21.26-.32.4a4.35,4.35,0,0,0-.36.55,2.94,2.94,0,0,1,1.54-.26Zm-29.31-1.81c-.22,0-.21.24-.3.37-.18-.09-.22-.16-.22-.29a.55.55,0,0,1,.48-.46.29.29,0,0,1,.36.27,3.42,3.42,0,0,1,0,.46,1.43,1.43,0,0,1,0,.23c.21,0,.41-.12.65-.17,0-.09-.06-.2-.1-.3s-.07-.16-.1-.25a.11.11,0,0,1,.06-.09s.09,0,.1,0a.46.46,0,0,1,.08.13c.12.25.24.5.38.76a1.91,1.91,0,0,1,.14-.21.35.35,0,0,1,.56,0,1.41,1.41,0,0,1,.23.35,4.87,4.87,0,0,1,.21.53s0,.06,0,.14c-.39-.15-.5-.51-.7-.78-.17.12-.14.29-.12.45s.06.15.08.23a.3.3,0,0,1-.06.33c-.15,0-.2-.13-.24-.22s-.23-.47-.34-.7c0-.07-.05-.15-.1-.27a.9.9,0,0,1-.18.16,3.42,3.42,0,0,1-.4.36c-.13.11-.25.07-.37-.08a.53.53,0,0,1-.13-.43,5.15,5.15,0,0,0,0-.55Zm-2.86,2.16-.32.22c-.08,0-.15.09-.23,0s-.05-.15,0-.21.25-.26.39-.39c.36-.3.72-.61,1.11-.91a.85.85,0,0,1,.35-.15c.06,0,.14,0,.22,0,0,.33-.3.46-.52.64a2.94,2.94,0,0,1,.52,1.84.68.68,0,0,1-.1.27c-.23-.13-.23-.14-.19-.38a1.65,1.65,0,0,0,0-.3,3.69,3.69,0,0,0-.4-1.3l-.57.42c.1.37.22.71.32,1.06a5.23,5.23,0,0,1,.12.57,1,1,0,0,1,0,.25c-.06.12-.16.13-.23,0a.41.41,0,0,1-.08-.25c-.09-.42-.17-.84-.27-1.26,0,0,0-.1-.06-.18ZM130.3,55.09c.22-.1.41-.2.61-.27l1.28-.46a1.56,1.56,0,0,1,.25,0,.43.43,0,0,0,0,.05.36.36,0,0,1-.09.08l-1.12.59a3,3,0,0,0-.37.25l.29.16c0,.17-.17.06-.23.11a3.08,3.08,0,0,1,.42.39.4.4,0,0,1,.08.26s-.07.08-.12.09-.07-.05-.1-.08,0-.06-.05-.07l-.76-.46c0,.26.09.49,0,.71-.23-.11-.12-.42-.39-.52-.26.21-.6.36-.74.7-.16-.07-.2-.13-.14-.25s.18-.23.27-.35a.9.9,0,0,0,.15-.18c-.26.13-.58.13-.71.43-.23-.1-.25-.19-.07-.32a3.78,3.78,0,0,1,.43-.26c.15-.08.31-.15.51-.27a4.54,4.54,0,0,0-1.34-.2.5.5,0,0,1,0,.13,1.5,1.5,0,0,1-.22-.11c-.12-.1-.12-.22,0-.25a4.81,4.81,0,0,1,.75-.05l.35,0c-.07-.18-.31-.28-.31-.47a.21.21,0,0,1,.27,0c.1.08.21.16.32.26a.33.33,0,0,0,.37.08c0,.07,0,.23.16.22,0-.28,0-.55.07-.81a1,1,0,0,1,.08-.29c0-.07,0-.12.16-.08.07.22-.09.38-.06.59s0,.4,0,.61Zm15.81,21.49c-.08.17-.1.21-.28.15a.62.62,0,0,1-.26-.09,10.51,10.51,0,0,0-2.72-1c-.81-.21-1.64-.39-2.44-.58-.45-.11-.33,0-.63-.37a.87.87,0,0,0-.18.11l.93,1,.23.33a.2.2,0,0,1,0,.26c-.07.09-.17,0-.25,0a1.4,1.4,0,0,1-.3-.23,6.9,6.9,0,0,1-.46-.58c-.16-.17-.31-.36-.47-.54a.48.48,0,0,1-.09-.11c-.18-.24-.16-.31.1-.44a6,6,0,0,0,1.19-.67c.09-.07.09-.07.27-.06,0,.36-.38.42-.55.67l.27.08c.78.21,1.6.41,2.39.65a11.71,11.71,0,0,1,2.14.72l.16.08,1,.56ZM108.19,55.21a4.75,4.75,0,0,1,3,1,4.29,4.29,0,0,1,1.64,2.49,5,5,0,0,1-1,4.47,4.84,4.84,0,0,1-3.2,1.73A4.68,4.68,0,0,1,104.15,63a4.55,4.55,0,0,1-1-3,4.73,4.73,0,0,1,2.63-4.06,1.74,1.74,0,0,0,.13-.15.68.68,0,0,1,.18-.13,5.11,5.11,0,0,1,2.1-.41ZM112,57.85h0c-.07.06-.12.08-.17.12-.47.31-.91.63-1.39.9-.84.5-1.69.94-2.56,1.43a.43.43,0,0,1-.27-.27c-.06-.15,0-.26.14-.29a1.29,1.29,0,0,0,.33-.17,4.3,4.3,0,0,1,.45-.29c1-.55,2-1.1,2.94-1.74a1.28,1.28,0,0,1,.22-.17,4.59,4.59,0,0,0-5.37-1.27s-.11,0-.13,0-.23,0-.32.05a5.07,5.07,0,0,0-1.45,1.32,4.12,4.12,0,0,0-.59,3.95,4.4,4.4,0,0,0,5,2.87,4.53,4.53,0,0,0,2.3-1.23,4.42,4.42,0,0,0,1.35-3.77,3.77,3.77,0,0,0-.46-1.46Zm20.68,14.32h0l-.23-.16c-1.85-1.16-3.7-2.34-5.57-3.49a47.4,47.4,0,0,1-6.39-4.68c-.2-.18-.4-.33-.59-.5-.49-.44-1-.85-1.49-1.29-.32-.28-.6-.6-.89-.91l-.15-.15a1.56,1.56,0,0,1,0,.22c.07.61.15,1.23.22,1.86,0,.42.1.85.16,1.26.09.73.2,1.44.29,2.15s.2,1.34.29,2,.16,1.18.24,1.77c0,.34.11.69.16,1.06l.2,0a10.06,10.06,0,0,1,1.55-.16l.2.05A5.07,5.07,0,0,0,121,72.7c.76,0,1.5-.11,2.24-.14.55,0,1.11,0,1.67,0l2.48-.12,1.32-.07,2.59-.12,1.28,0,.15,0Zm-12.22.64h0c0-.44-.08-.86-.12-1.27a5.5,5.5,0,0,0-1.51.15v1.2a6.86,6.86,0,0,0,1.63-.08ZM108.76,84a.2.2,0,0,1,.28.14c.13.26.25.53.39.8,0,.07.08.13.14.25,0-.24.07-.43.11-.61.15-.61.27-1.19.4-1.79a6.86,6.86,0,0,0,.19-1.56c0-.07,0-.15,0-.21s.09-.28.29-.21a4.14,4.14,0,0,0,1.16.07h4l2.31,0c.87,0,1.74,0,2.62,0l2.6,0,3.62-.06q1.83-.06,3.63-.15c.81,0,1.62-.13,2.44-.2l1.41-.13,1.05-.12a.31.31,0,0,1,.4.21l.72-.13a7.9,7.9,0,0,1,1.36-.17c.36,0,.72-.06,1.08-.07.21,0,.28.07.21.26s-.12.23-.32.22a11.64,11.64,0,0,0-2.58.23,2.45,2.45,0,0,1-1.08.06,3.28,3.28,0,0,0-1.21,0c-.39.05-.79.07-1.18.11-1.29.13-2.58.16-3.9.21l-4.73.17-4.36,0h-2.24l-3.42,0h-2.6c-.27,0-.53,0-.83,0,0,0,0,0,0,.09a8.94,8.94,0,0,1-.35,2.19L110,85.36c0,.06,0,.14,0,.21a.48.48,0,0,1,0,.17c0,.06-.11.12-.16.19s-.14-.1-.19-.15a6.47,6.47,0,0,1-.84-1.71.33.33,0,0,1,0-.1Zm23.16.63h-.15c0-.05-.05-.1,0-.14a.92.92,0,0,1,.38-.56l.06,0a1.07,1.07,0,0,1,.31,0c.11.06.07.18,0,.27s-.15.36-.21.55l.56-.07.18,0a.82.82,0,0,1,0,.18,1,1,0,0,1-.79.41.26.26,0,0,1-.25-.13.64.64,0,0,1-.07-.52Zm8.7-6.78a.39.39,0,0,1,.22.48.56.56,0,0,1-.22-.48Zm-5.38,5.81a.34.34,0,0,1-.23.25,1.18,1.18,0,0,1-.7.08c-.12,0-.16-.09-.18-.23.35-.16.74,0,1.11-.1Zm23.24-6.29v0a1.68,1.68,0,0,1-1.07.4c-.16,0-.17,0-.3-.24.09-.14.28-.07.42-.1a2.6,2.6,0,0,1,.5-.1.85.85,0,0,1,.45,0Zm-1.56-.3.43-.11a1.33,1.33,0,0,1,.66,0c.12,0,.24.07.22.25-.31,0-.64.1-1,.13s-.23,0-.35-.24Zm-8.79,8.43a1.63,1.63,0,0,1,1.39-.06,1.09,1.09,0,0,1-.54.23,3.35,3.35,0,0,1-.63,0c-.16,0-.17,0-.22-.22Zm-25-5.84a.31.31,0,0,1-.12.09,3.41,3.41,0,0,1-1.24.28c-.22,0-.22,0-.3-.24a2.84,2.84,0,0,1,1.66-.13Zm-1.56-.7a2.46,2.46,0,0,1,1.55-.1c-.07.06-.09.11-.13.13a1.9,1.9,0,0,1-.74.2l-.34,0c-.24,0-.24,0-.34-.25Zm27.69,5.83a.52.52,0,0,1-.48.28c-.27,0-.57,0-.85,0a.17.17,0,0,1-.17-.14s0-.12.07-.13a2.2,2.2,0,0,1,1.37,0,.11.11,0,0,1,.06,0Zm1.42-8.16a.32.32,0,0,1,0,.14,2,2,0,0,1-.09.26.67.67,0,0,0,.24.74.51.51,0,0,1,.23.48.35.35,0,0,1-.3-.09,1.15,1.15,0,0,1-.46-.68,1.05,1.05,0,0,1,.18-.78c0-.06.11-.08.16-.11l.06,0Zm-27.91,6.64a.31.31,0,0,1,.35.08,1,1,0,0,1,.31.66,1.37,1.37,0,0,1-.18.8s0,0,0,.07l0,0c-.18-.12-.2-.18-.16-.37s.06-.26.09-.39a.74.74,0,0,0-.17-.63,2.55,2.55,0,0,1-.14-.24ZM130,84.79c-.08.18-.14.21-.3.15a.89.89,0,0,1-.44-.39,1.44,1.44,0,0,1-.16-1.19,1,1,0,0,1,.12-.33.35.35,0,0,1,.1-.13.2.2,0,0,1,0,.24,2.15,2.15,0,0,0,0,.76,1.62,1.62,0,0,0,.5.82s.12,0,.2.07Zm23.18-6.46c0-.09-.08-.18-.12-.29a.35.35,0,0,1-.34-.25c0-.14.19-.08.3-.14a5.42,5.42,0,0,1,.08-.54.62.62,0,0,1,.17-.26s.08,0,.16,0a1.31,1.31,0,0,0-.09.85l.44,0c0,.15-.11.2-.22.24s-.29.14-.29.33c0,0,0,0,0,.07Zm-36.37,6c.2,0,.37,0,.55,0a2.3,2.3,0,0,0,.69,0,1.93,1.93,0,0,1,.6,0,1,1,0,0,1-.64.43,2.16,2.16,0,0,1-1,0c-.14,0-.16-.13-.19-.29Zm-4.12,1.47c0,.11-.16.12-.27,0a.88.88,0,0,1-.34-.29,2.73,2.73,0,0,1-.36-.7,1.15,1.15,0,0,1,.28-1.07.15.15,0,0,1,.22,0s0,.06,0,.08l-.08.15a1,1,0,0,0,.16,1.32c.13.15.27.31.4.48Zm24.57-2a.35.35,0,0,1-.16.06s-.13,0-.14,0-.06-.16,0-.2a2.27,2.27,0,0,1,.32-.3.34.34,0,0,1,.28,0c.11,0,.12.13.14.23s.05.4.08.59a1,1,0,0,1-.08.51c-.08.12-.18.12-.24,0a1.54,1.54,0,0,1-.14-.37c0-.14,0-.29,0-.45Zm-17.17,1.1c-.15-.22-.15-.26-.06-.4s.2-.25.34-.39c-.06-.1-.27-.16-.27-.35.21-.07.32.16.52.17l.37-.36a.27.27,0,0,1,.36-.07c-.16.19-.3.39-.46.58a1.39,1.39,0,0,1,.22.15.47.47,0,0,1,.1.1s-.1.08-.14.08a1.47,1.47,0,0,1-.29,0l-.11,0c-.18.2-.38.37-.58.58Zm7-.26c-.4.06-.4.06-.52-.15.06,0,.13-.11.21-.13.24-.06.35-.19.29-.45a.56.56,0,0,1,0-.13c0-.12.08-.14.22-.09s0,.27.09.43a2.68,2.68,0,0,1,.8-.07c0,.1-.09.13-.15.16s-.37.2-.57.28a.22.22,0,0,0-.13.17c0,.12-.06.25-.08.4-.15-.15-.1-.3-.16-.42ZM122,86.72a.88.88,0,0,1-.32-.62l-.12-.7a.29.29,0,0,1-.17-.06.18.18,0,0,1,0-.3.38.38,0,0,1,.35-.06c.12,0,.14.14.17.25.07.31.15.62.23.93a.61.61,0,0,1-.15.56Zm33.09-1.5a.8.8,0,0,1-.31-.43c-.06-.21-.09-.44-.13-.65s0-.18.07-.19.11.08.19.14a1.79,1.79,0,0,1,.19-.09,2,2,0,0,1,.47-.1c.34,0,.49.17.37.53-.32-.12-.65-.25-.94,0a1.7,1.7,0,0,1,.09.76Zm-41-.47c-.16.28-.32.55-.47.83-.15-.07-.13-.14-.09-.21s.14-.38.22-.57.08-.13.14-.23l-.23-.22a1.14,1.14,0,0,1-.25-.24s0-.12,0-.18.13,0,.18,0l.32.22a.87.87,0,0,0,.18.11c.17-.13.18-.37.48-.45-.11.22-.2.41-.3.59.08.09.18.14.23.23a.94.94,0,0,1,.2.29c0,.11-.05.17-.16.1a2.63,2.63,0,0,1-.41-.27ZM146.39,87a.32.32,0,0,1-.22-.26c-.06-.22-.07-.46-.11-.69,0-.07,0-.16.11-.19l.13.33.08-.08a.44.44,0,0,1,.49-.18.5.5,0,0,1,.34.35,1.21,1.21,0,0,1,0,.42s0,.08-.08.14c-.24-.11-.31-.32-.43-.5a.45.45,0,0,0-.24.37c0,.18,0,.18-.12.29Zm-8.18-4.66c.09,0,.19,0,.25.06a.91.91,0,0,1,.59,1,2.78,2.78,0,0,1-.6,1.2.28.28,0,0,1-.07-.3c.06-.2.11-.4.18-.61a1.27,1.27,0,0,1,.06-.18.62.62,0,0,0-.21-.79.35.35,0,0,1-.2-.37ZM155.64,78a.86.86,0,0,1,0-.16c.1-.28.2-.56.28-.84a2.19,2.19,0,0,0,.1-.34c0-.23,0-.3-.22-.42a2.26,2.26,0,0,1-.2-.13.18.18,0,0,1-.05-.15s.11-.06.16-.07a.8.8,0,0,1,.67.51.94.94,0,0,1,0,.44,2.18,2.18,0,0,1-.6,1.1l-.11.08s0,0-.05,0Zm-40,7.55c-.22,0-.26.13-.38.2-.13-.15-.16-.2,0-.29a2.35,2.35,0,0,1,.39-.19.22.22,0,0,1,.29.23,1.12,1.12,0,0,1-.09.37c-.1.23-.22.43-.34.67l.92,0a.36.36,0,0,1-.08.15,1.1,1.1,0,0,1-1,.33.3.3,0,0,1-.24-.48c.16-.25.32-.48.46-.72a2.29,2.29,0,0,0,.1-.23Zm16.15-2.36s0,0,0,.06c-.19.72-.35,1.43-.52,2.16-.05.23-.15.46-.21.71a1.65,1.65,0,0,0-.1.19.18.18,0,0,1-.13-.23c0-.26.08-.51.13-.76s.15-.56.22-.79c-.22-.35-.43-.65-.63-1,0,0,0-.06,0-.09a.17.17,0,0,1,.25.06c.16.19.33.39.49.61a3.07,3.07,0,0,1,.14-.34,1.75,1.75,0,0,1,.12-.32,3.14,3.14,0,0,1,.18-.31l.06,0ZM152,77.85l.42-.94.06,0c.07.09,0,.18,0,.26-.15.49-.28,1-.43,1.46,0,.08-.05.18-.09.29a.71.71,0,0,1,.17,0,.83.83,0,0,1-.32.44.3.3,0,0,1-.2-.35,2.87,2.87,0,0,1,.17-.59.34.34,0,0,0,0-.4,7.47,7.47,0,0,1-.51-.74.22.22,0,0,1,0-.16.33.33,0,0,1,.2,0s.08,0,.11.09.11.16.16.25l.29.5Zm-16,7.55a.25.25,0,0,1-.14-.29,4,4,0,0,1,.22-.9c.07-.16.12-.32.19-.47a1,1,0,0,1-.79-.67.21.21,0,0,1,.3,0,2.58,2.58,0,0,1,.36.31c.05.05.09.11.17.18a1.34,1.34,0,0,0,.1-.17c.1-.24.18-.46.27-.68,0,0,0-.11.08-.17a.13.13,0,0,1,.09,0,.11.11,0,0,1,.07.08.5.5,0,0,1,0,.13c-.2.72-.41,1.43-.62,2.14a1.41,1.41,0,0,1-.26.52Zm-11.09-2.25c.31-.05.58-.2.88,0a.64.64,0,0,1-.44.47,2.83,2.83,0,0,1-.44.11c-.13,0-.28.07-.37-.07a.42.42,0,0,1-.09-.47,4.08,4.08,0,0,0,.18-.42.74.74,0,0,0,.07-.21l0,0-.24.19c-.19-.14-.21-.29-.08-.42a.48.48,0,0,1,.49-.13c.19,0,.29.15.28.32a2.34,2.34,0,0,1-.09.46c0,.07-.06.13-.1.23Zm14.53-1.4c-.05,0-.08-.11-.12-.15s0,0,0-.07a.75.75,0,0,1,.48-.16c.24,0,.37.14.31.34a1.72,1.72,0,0,1-.14.4c0,.12-.09.24-.14.36.44,0,.81-.27,1.29-.13,0,.06-.05.15-.09.2a1.06,1.06,0,0,1-.55.3L140,83a.49.49,0,0,1-.53-.25.27.27,0,0,1,0-.27,4.69,4.69,0,0,0,.21-.46l.15-.32-.4.1Zm14,3.91s.06-.11.09-.15a.4.4,0,0,1,.59,0,2.6,2.6,0,0,1,.26.65c0,.07,0,.19,0,.28a.12.12,0,0,1-.2,0,1,1,0,0,1-.21-.31,1.12,1.12,0,0,1-.1-.31,1.79,1.79,0,0,1-.14.28c0,.06-.11.16-.15.16a.43.43,0,0,1-.21-.14,1,1,0,0,1-.16-.24c-.22.21,0,.53-.24.73-.06-.06-.14-.1-.16-.15a5.65,5.65,0,0,1-.22-.62c0-.06,0-.14.1-.12s.14,0,.2-.08a.4.4,0,0,1,.41-.11l.19.06Zm-4-8.21a6.63,6.63,0,0,0-.59.31,1.3,1.3,0,0,1-.19.89c-.27-.2-.19-.49-.31-.75-.18,0-.38.08-.48-.17.07-.12.23-.11.35-.15a.18.18,0,0,0,.16-.21,4.07,4.07,0,0,1,0-.61,2.08,2.08,0,0,1-.35,0c-.16,0-.2,0-.25-.24a2.86,2.86,0,0,1,.73-.09c.19,0,.27.12.27.3s0,.43,0,.66l.65,0s0,.05,0,.07ZM153.22,85c-.43,0-.56-.37-.82-.63a2.91,2.91,0,0,1-.1.28.53.53,0,0,1-.46.37c-.24,0-.38-.14-.5-.33a.74.74,0,0,1,.62-1.14.31.31,0,0,1,.23.08,2.34,2.34,0,0,1,.4.37,3.42,3.42,0,0,1,.36.4,3.36,3.36,0,0,1,.27.49.4.4,0,0,1,0,.11Zm-1.39-.31h0c0-.07.08-.11.11-.18.06-.25.13-.5.2-.74a.16.16,0,0,0-.22,0,1.84,1.84,0,0,0-.34.27c-.19.24-.11.5.25.69Zm2.35-7.25c-.3-.15-.35-.31-.18-.55a.82.82,0,0,1,.59-.33c.28,0,.44.11.37.34a2.87,2.87,0,0,1-.17.44c0,.11-.11.19-.17.31.23,0,.45-.09.66,0a1.21,1.21,0,0,1-.66.56.4.4,0,0,1-.35-.09.47.47,0,0,1-.15-.59.49.49,0,0,0,0-.11s0,0,0,0Zm-8.61,8.74a.43.43,0,0,1-.34-.22c-.1-.15-.2-.3-.3-.47s-.1-.14-.16-.24a3.43,3.43,0,0,0-.12.39c-.06.13-.11.29-.32.3a.46.46,0,0,1-.39-.26.85.85,0,0,1,.41-1.19.34.34,0,0,1,.44.12c.22.32.44.62.64.94a1.65,1.65,0,0,1,.18.41c0,.07,0,.14,0,.22Zm-1.34-.61h0a1.1,1.1,0,0,0,.15-.89.56.56,0,0,0-.15.89Zm-24.38-7.13c0-.36-.15-.72,0-1.06h.07c0,.06,0,.1,0,.15,0,.38.11.75.16,1.12a2,2,0,0,0,.07.26,2.29,2.29,0,0,1,.09.44c0,.14,0,.29-.19.34a.64.64,0,0,0-.17.16c-.37.35-.73.28-1-.2a.81.81,0,0,1,.51-1.18,1.94,1.94,0,0,1,.36,0Zm.14,1h0a2.62,2.62,0,0,0-.13-.48.22.22,0,0,0-.28-.15.47.47,0,0,0-.25.74.19.19,0,0,0,.25.09c.12-.06.25-.11.41-.2Zm38.89,3.07a.33.33,0,0,1-.31.26,2.42,2.42,0,0,1-.38,0,.24.24,0,0,1-.22-.16c0-.11.08-.13.16-.15l.42-.08a.33.33,0,0,1,.33.11Zm4.25,4.61a4,4,0,0,1,.59-.1c0,.12,0,.24,0,.34l-.12,0c-.29,0-.4,0-.49-.26Zm-6-4.45c-.17.07-.2.19-.23.35a.43.43,0,0,1-.12.32.85.85,0,0,1-.3-.91l.2.07a.51.51,0,0,1,.52-.22.73.73,0,0,1,.29.11.74.74,0,0,1,.09.73c-.05.1-.14.12-.22,0a2.82,2.82,0,0,1-.23-.46Zm3.65.11c-.2-.08-.26-.27-.34-.45-.24.09-.18.36-.35.48-.24-.09-.28-.29-.32-.49-.28,0-.32.06-.31.32,0,.11,0,.24,0,.38h-.05s-.1-.08-.11-.13l-.25-.75c0-.07,0-.14.05-.16s.13,0,.17.09,0,0,.06.09a.86.86,0,0,1,.16-.1.94.94,0,0,1,.33-.08.52.52,0,0,0,.28,0,.92.92,0,0,1,.28-.09.43.43,0,0,1,.49.3.56.56,0,0,1-.12.63Zm1.05,23.59a1.93,1.93,0,0,1-.41-1.19,1.91,1.91,0,0,0-.23.1c-1,.52-2,1.06-3,1.57a.21.21,0,0,1-.12,0,.13.13,0,0,1-.08,0,.11.11,0,0,1,0-.08.57.57,0,0,1,.15-.12c.44-.26.89-.52,1.35-.77l1.79-1c.14-.08.14-.08.12-.25l-.4-.06a3.81,3.81,0,0,1-2.66-1.52,2.62,2.62,0,0,1,0-3.27,4.27,4.27,0,0,1,2.44-1.53l.18-.05.07,0c0-.42-.06-.85-.06-1.28s0-.85,0-1.3a3.07,3.07,0,0,0-.58.49c-.2-.11-.24-.17-.12-.31s.32-.32.47-.49a1.73,1.73,0,0,0,.26-.28c.12-.14.16-.16.4-.14.08.16,0,.27-.06.43a4.12,4.12,0,0,0,.52.24l.32.23c.06,0,.13.13,0,.24-.36,0-.62-.29-1-.43,0,.86.12,1.69.18,2.53l.51,0s.08,0,.09,0c.18-.17.4-.12.62-.1a4.48,4.48,0,0,1,2.13.76l.09.07c0,.19,0,.39,0,.58a2,2,0,0,0-.37-.31,4.25,4.25,0,0,0-2-.67c-.15,0-.29,0-.39-.14a.1.1,0,0,0-.08,0,5.82,5.82,0,0,0-.6,0c0,.21,0,.37,0,.55.06.52.1,1.08.12,1.61a.37.37,0,0,0,.12.24,22.24,22.24,0,0,1,2,1.38,8.14,8.14,0,0,0,.63-.54c.2-.2.31-.21.51,0l.22.18c0,.2,0,.38,0,.57-.18-.17-.38-.33-.57-.51-.2.16-.4.31-.64.47l.87.55a.64.64,0,0,0,.36-.36c0,.24,0,.47.06.69a4.46,4.46,0,0,1-2.42,1.38,2.34,2.34,0,0,0-.76.33c-.1,0-.08.11-.07.19,0,.25,0,.5.05.75a.83.83,0,0,1-.12.57Zm1.43-6.45a.45.45,0,0,1-.11.46A.3.3,0,0,1,163,100c0-.09.06-.1.25-.11Zm-.4-.21a.45.45,0,0,1-.36.45.47.47,0,0,1-.51-.24.25.25,0,0,1,0-.19.6.6,0,0,1,.68-.25c.13.05.2.12.2.23Zm-.36.11h0l-.28-.16a.91.91,0,0,0-.07.14c.11.08.2.18.35,0Zm1.33-.13c0,.06-.05.11-.09.22a1.23,1.23,0,0,1-.29-.76c0-.07,0-.12.13-.12a2.91,2.91,0,0,0,.17.3c.22,0,.32-.26.6-.21l-.14.25c.09.12.22.24.18.43-.2.07-.37,0-.56-.11Zm.24-2.56a1.08,1.08,0,0,1,.58-.08v.1a.52.52,0,0,1-.39.15c-.07,0-.11-.09-.19-.17Zm1.14,8.58a.61.61,0,0,1-.23.55.31.31,0,0,1,0-.38c.05-.09.05-.22.27-.17Zm-.59-8.89-.2.06c-.19,0-.21,0-.33-.19.06-.1.18-.08.29-.07a.87.87,0,0,1,.23,0,1.28,1.28,0,0,0,0,.19Zm-1,8.22a1.8,1.8,0,0,1-.06.22.91.91,0,0,0,0,.65s0,.08,0,.09-.08,0-.1,0a.37.37,0,0,1-.2-.37,1.52,1.52,0,0,1,.18-.53s.1-.06.15-.09l.07,0ZM161,93a1.05,1.05,0,0,1,0,.19c-.28.48-.54.94-.81,1.42a.33.33,0,0,1-.23.2c-.13-.13-.14-.19,0-.34s.19-.27.28-.4l.13-.21a1.19,1.19,0,0,1-.5-.57c.09-.08.18-.06.28,0s.22.21.34.33c.24-.2.32-.48.55-.67l.06,0Zm3.31,12.63a1.8,1.8,0,0,0,.19,0c.16.06.2.12.09.26a.53.53,0,0,1-.51.19c-.13,0-.33-.21-.34-.35a.48.48,0,0,1,.05-.14c0-.06.09-.11.13-.16s0,0,0,0-.23-.1-.22-.21.15-.13.26-.15h.16c.24,0,.34.14.28.36l-.07.21ZM162,96.93c.22,0,.41-.23.69-.06a.65.65,0,0,1,.19-.18.38.38,0,0,1,.64.17.37.37,0,0,1-.08.38c-.19,0-.2-.17-.34-.24l-.17.19-.15.2c-.2,0-.21-.17-.36-.27-.06.14-.12.26-.18.38-.23-.11-.3-.25-.24-.57Zm-1,1.51h-.1l-.12,0a4,4,0,0,0-2.32,1.6,2.24,2.24,0,0,0,0,2.7,3.55,3.55,0,0,0,2.61,1.43h.25c-.12-1.93-.25-3.85-.35-5.77Zm.82,5.77h0a1.68,1.68,0,0,0,1-.2l1.48-.88.12-.08c-.93-.67-1.76-1.45-2.77-2,.08,1.07.13,2.13.21,3.21Zm-14.58-2.1A1,1,0,0,1,147,102s-.06,0-.07,0a1,1,0,0,1-.32.31c-.27.19-.53.37-.77.57a6.36,6.36,0,0,1-3,1.22,8.43,8.43,0,0,1-3-.12c-.68-.17-1.36-.32-2.05-.51a3.33,3.33,0,0,1-.72-.31.88.88,0,0,1-.5-.72c0-.32-.09-.62-.12-.94s0-.82-.06-1.24,0-.74-.06-1.13c-.1-1.31-.21-2.62-.34-3.93-.07-.62-.16-1.23-.24-1.86-.05-.44-.12-.86-.16-1.3a.8.8,0,0,0-.15-.43.39.39,0,0,1,.1-.6,3.3,3.3,0,0,1,.86-.43,12.65,12.65,0,0,1,2.2-.55,23.87,23.87,0,0,1,2.56-.32c.45,0,.91-.08,1.37-.07s1.2,0,1.77,0c.14,0,.28,0,.42,0s.12,0,.17,0a5.37,5.37,0,0,1,1.24.26.79.79,0,0,1,.16.08.43.43,0,0,1,.25.54.75.75,0,0,1-.33.47.21.21,0,0,0-.08.22c.07.41.15.81.21,1.23.12.87.23,1.76.34,2.64.06.49.12,1,.17,1.48.09.83.19,1.69.25,2.55s.11,1.69.16,2.53a.56.56,0,0,1-.16.42Zm4-5.91-.61.18-.11.27c-.22-.13-.29-.25-.25-.46s.13-.74.19-1.12c0-.18,0-.36.05-.56,0,0,.07-.08.11-.12s.13,0,.16.1l.24.45c.21.38.4.76.62,1.14a.76.76,0,0,1,.12.57c-.06.14-.14.18-.26.06s-.18-.14-.16-.28-.07-.14-.1-.23Zm-.62-.23h0l.48,0c-.14-.28-.24-.55-.36-.82h-.06c0,.28,0,.55-.06.84Zm-8.78,11.81c0-.18,0-.37-.19-.52a.19.19,0,0,1,0-.31.68.68,0,0,1-.12-.12.22.22,0,0,1,0-.32,1.22,1.22,0,0,1,1-.18.21.21,0,0,1,.13.3,1.33,1.33,0,0,1-.11.24,2,2,0,0,0,.27.08c.21.11.28.23.18.43a.9.9,0,0,1-.25.39,5.58,5.58,0,0,1-.64.44.72.72,0,0,1-.52.05c-.18-.07-.22-.18-.08-.3a1.7,1.7,0,0,1,.26-.18Zm0-1.15h0a2,2,0,0,1,.09.22l.33-.22s0,0,0-.06l-.4.06Zm.6.78h0a.09.09,0,0,1,0-.06l-.36,0a1.84,1.84,0,0,0,.09.25l.3-.21Zm7.31-5.69a.77.77,0,0,1-.23-.6c0-.67,0-1.35-.09-2,0-.34-.08-.68-.13-1s-.14-.63-.19-1c-.11-.67-.2-1.35-.3-2,0-.16,0-.3-.06-.45l-.18-1.14c-.06-.41-.11-.82-.18-1.24s-.14-1-.21-1.44a1.55,1.55,0,0,1,0-.15l-.49.14c-.06,0-.11,0-.16,0a.25.25,0,0,1-.12-.08s0-.1,0-.12a2.74,2.74,0,0,1,1.24-.35c.06,0,.17,0,.18.08a.36.36,0,0,1,0,.23c0,.05-.09.06-.16.1a.75.75,0,0,1-.07-.12c-.13,0-.14.07-.12.16.06.29.14.56.2.84.11.58.21,1.14.37,1.71s.19,1.25.32,1.89a1.12,1.12,0,0,1,0,.32.3.3,0,0,1-.17.29c.06.37.14.74.21,1.12a19.87,19.87,0,0,1,.45,2.52c0,.58.11,1.15.15,1.73,0,.16,0,.35,0,.53a2.26,2.26,0,0,0,.63-.17s.07-.15.11-.22c.17.1.24.19.18.35a.53.53,0,0,1-.41.39l-.64.12c-.25.06-.51.11-.76.18s-.19,0-.25-.06a.15.15,0,0,1,.09-.22l.6-.24a1.5,1.5,0,0,1,.2-.07Zm-13,4.3a.32.32,0,0,1-.14.3c-.06-.07-.11-.16-.18-.23a.19.19,0,0,1-.27-.1c-.07-.18.09-.24.18-.32s0-.26,0-.38a.32.32,0,0,1,0-.17c0-.05.06-.08.11-.11s.06.07.06.12,0,.28,0,.43a74.79,74.79,0,0,1,11.85-1.35,1.13,1.13,0,0,1,0-.18.86.86,0,0,1,0-.17c0-.08,0-.18.11-.19s.13.1.16.16,0,.14.07.21a.23.23,0,0,0,.14.17c.17,0,.21.11.13.25a.67.67,0,0,0-.05.5.9.9,0,0,1,0,.4c0,.07-.08.12-.13.19,0-.16,0-.28-.06-.41a3.44,3.44,0,0,0-.14-.37h-1c-.75,0-1.47.06-2.22.12s-1.29.11-1.94.17l-1.81.19c-.51.06-1,.11-1.52.19l-1.18.16-2.08.36-.08,0Zm-.82-14h0a.31.31,0,0,1,0,.09c.11.61.24,1.23.35,1.88s.2,1.3.28,2c.1,1,.2,1.89.29,2.83,0,.42,0,.85.08,1.26,0,.65.09,1.29.16,1.94s.17.79.85,1c.46.13.91.26,1.36.36a11.47,11.47,0,0,0,2.47.33,6,6,0,0,0,3.54-1.08c.44-.32.92-.63,1.36-1l0,0a.22.22,0,0,0,.12-.25c0-.22,0-.44-.05-.65,0-.43,0-.87,0-1.31-.09-1.2-.19-2.39-.29-3.59-.12-1.39-.23-2.78-.36-4.17,0-.13,0-.26,0-.43a.9.9,0,0,0-.19.08l-.57.21a20.86,20.86,0,0,1-3.92.74c-.21,0-.44,0-.65,0q-.87.06-1.74.09c-.21,0-.42,0-.54.18,0,0-.06,0-.11.06s-.05-.14-.08-.21c-.24-.07-.31-.06-.43,0l-.36-.09a5.11,5.11,0,0,1-.58,0c-.32-.07-.63-.16-1-.25Zm8.65-2h0a19,19,0,0,0-2.63.06c-.58.62-1.25,1.15-1.86,1.8.25,0,.45,0,.64,0a.48.48,0,0,0,.32-.17c.25-.3.54-.6.81-.88a7.21,7.21,0,0,1,1.08-.8,1.09,1.09,0,0,1,0,.22,3.33,3.33,0,0,1-.24.32c-.27.25-.53.5-.81.78-.14.12-.28.27-.43.41a1,1,0,0,0,.29,0,.41.41,0,0,0,.38-.2,6.12,6.12,0,0,1,1.31-1.23l.23-.1s0,0,0,0a4.7,4.7,0,0,1-.59.69c-.21.22-.42.44-.65.66a2.3,2.3,0,0,0,.46,0,.44.44,0,0,0,.31-.17,6,6,0,0,1,1.34-1.32s0,0,0-.07Zm-4.68.26h0c-.55.55-1.07,1.09-1.61,1.65h.17a.42.42,0,0,0,.39-.15,4.92,4.92,0,0,1,.62-.67c.28-.25.59-.46.88-.7.08-.05.16-.11.28-.05-.25.28-.5.52-.74.77a5.75,5.75,0,0,0-.76.8c.3,0,.54,0,.73-.24a7.28,7.28,0,0,1,1.63-1.5l.06-.09c-.6.08-1.14.14-1.65.19Zm-.24,0h0c-.27,0-.49.1-.72.13a.49.49,0,0,0-.37.2c-.24.27-.5.52-.75.78a5.4,5.4,0,0,1-.41.45l.4,0a.31.31,0,0,0,.28-.12,5.88,5.88,0,0,1,.53-.59c.33-.29.67-.56,1-.89Zm6,0h0l-.79.86a2,2,0,0,0,1.31-.71l-.52-.15Zm-.79-.1h0l-1.25,1.23c.16,0,.29,0,.4-.1a5.41,5.41,0,0,1,1.05-.86c.09-.07.19-.12.32-.21l-.52-.06Zm-8.2,1.61h0c.44.07.36.11.6-.16l.9-.91.13-.12a.86.86,0,0,0-.68.31,1.31,1.31,0,0,1-.21.2l-.74.68Zm-.78-.32h0a.58.58,0,0,0,.38.23.2.2,0,0,0,.16,0c.26-.25.51-.52.79-.81a3.54,3.54,0,0,0-1.33.61Zm-11,10.88a.77.77,0,0,1-.11,1.37,2.53,2.53,0,0,1-.36.12h-.17a.36.36,0,0,1-.32-.15.17.17,0,0,1,0-.23c-.06-.29-.12-.53-.17-.77s0-.23-.07-.33,0-.18-.14-.23a.2.2,0,0,1-.07-.28.89.89,0,0,1,1.21-.26.46.46,0,0,1,.21.55,1.17,1.17,0,0,1-.06.2Zm-.63,1h0a.24.24,0,0,0,.14,0,.77.77,0,0,0,.19-.08c.22-.1.23-.14.14-.39a1,1,0,0,0-.51.15c0,.11,0,.22,0,.35Zm.31-1.34h0a.49.49,0,0,0-.52-.07s-.09.06-.08.1a2.1,2.1,0,0,0,.12.42c.17-.16.32-.29.48-.45Zm-7.14-4.86a.21.21,0,0,1-.15-.23c0-.32,0-.63,0-1s.12-.56.17-.85a.42.42,0,0,1,.26-.33.93.93,0,0,1,0,.1,6.44,6.44,0,0,0,.7,1.26c.08.13.07.46,0,.5a.19.19,0,0,1-.15,0s-.09-.06-.11-.07c-.23.07-.44.13-.68.22,0,.07-.07.19-.12.32Zm.73-.94h0c-.17-.35-.32-.68-.47-1a3.78,3.78,0,0,0-.13,1.26c.21-.09.4-.15.6-.24Zm10.27-2.29a1.29,1.29,0,0,1-.08.27,2.29,2.29,0,0,1-.37.51.78.78,0,0,1-1.15-.05,1.07,1.07,0,0,1-.28-.74,2.75,2.75,0,0,1,.18-.85.64.64,0,0,1,.9-.28c.28.13.31.25.14.53l-.2-.13a.27.27,0,0,0-.44.14,1.22,1.22,0,0,0-.07.8.39.39,0,0,0,.51.24c.2-.08.4-.19.6-.29s.13-.08.26-.15Zm1,4.94h0a.91.91,0,0,1,.18-.08,5,5,0,0,0,1.29-1.12,3.66,3.66,0,0,0-.53-5.27,5.41,5.41,0,0,0-2.29-1,.61.61,0,0,1-.41-.17s-.15,0-.22-.06a7.56,7.56,0,0,0-1.06,0,5.58,5.58,0,0,0-2.93,1.16,4,4,0,0,0-.94,1,4.4,4.4,0,0,1,1.73,2.21h.14a5.18,5.18,0,0,1,2.49.55l.16.07a1.58,1.58,0,0,1,.31.09,4.72,4.72,0,0,1,1.37,1.26,4.82,4.82,0,0,1,.71,1.37ZM122,93.51h0l-.2-.12a5.5,5.5,0,0,0-1.31-.45.53.53,0,0,1-.37-.15.29.29,0,0,0-.18-.07,4.22,4.22,0,0,0-1.18.07,4.67,4.67,0,0,0-2.87,1.53,3.42,3.42,0,0,0-.68,3.64,4.42,4.42,0,0,0,3.76,2.89h.15a5.14,5.14,0,0,1,2.56-4.59,3.58,3.58,0,0,1-.08-1.38,4,4,0,0,1,.4-1.36Zm7.15,6h0a6,6,0,0,1-5.26-.4,4.94,4.94,0,0,1-4.31,2.31,4.55,4.55,0,0,0,1.87,2.86,4.68,4.68,0,0,0,4.54.51,4.94,4.94,0,0,0,2.92-2.91,4.21,4.21,0,0,0,.24-2.37Zm-4.75-3.61h0a4.37,4.37,0,0,1-.33,2.85,5.45,5.45,0,0,0,5,.28,3.16,3.16,0,0,0-.67-1.37,7.46,7.46,0,0,0-1.5-1.3.09.09,0,0,0-.07,0,5.16,5.16,0,0,0-1.71-.45,1.38,1.38,0,0,0-.67,0Zm-2.59.77h0a4.71,4.71,0,0,0-2.28,4.2,4.35,4.35,0,0,0,3.93-2.07c-.25-.1-.36-.38-.64-.44,0,0,0-.07,0-.1s0-.09,0-.08-.11-.17-.17-.2a.29.29,0,0,1-.18-.21s0,0,0-.06-.08,0-.08-.08c-.08-.34-.33-.59-.44-1Zm.48-3h0a3.56,3.56,0,0,0-.28,2.4,6.58,6.58,0,0,1,1.77-.54,3.69,3.69,0,0,0-1.49-1.86Zm1.75,2.87h0l-.07,0c-.27.5-.55,1-.81,1.51a.87.87,0,0,0,.17.16c.2-.27.41-.54.64-.8a.3.3,0,0,0,0-.14c0-.23,0-.48,0-.71Zm-.23-.37h0l-.53.89-.36.62s0,.08,0,.13l.08,0a.19.19,0,0,1,0-.08c.31-.48.62-1,.91-1.42a.31.31,0,0,0,0-.19.56.56,0,0,0-.06-.23c-.29,0-.36,0-.42.41.1,0,.13-.2.33-.16Zm-.71-.1h0l-.49.91a1.33,1.33,0,0,0-.09.21s0,.07,0,.12c.25-.45.49-.87.74-1.3l-.2.06Zm-.32.14h0l0,0c-.15.2-.3.4-.43.61,0,0,0,.1,0,.16h0c.14-.26.27-.5.4-.76Zm.87,2.25h0a1.25,1.25,0,0,0,.19-.56c-.24.34-.3.44-.19.56Zm-1.44-1.81h0l.13-.27c-.14,0-.25.08-.13.27Z"/><path class="cls-30" d="M144.77,58l-4.84,2.77c.15.23.31.47.47.69l4.82-2.75c-.16-.24-.31-.46-.45-.71Z"/><path class="cls-31" d="M109.19,83.47s-.89,0-1,.23.83,1.78,1,1.9,0-2.13,0-2.13Z"/><path class="cls-32" d="M107.61,86.82s-3,5.33-3.7,9.21,2.52,14.49,2.9,16.18a28.4,28.4,0,0,1,.59,3.52q10.23-.6,20.46-1.24c-.31-3.48-.59-7-.88-10.45s-7.92-17.55-7.92-17.55-10.47,1.63-11.45.33Z"/><path class="cls-31" d="M127.86,114.49c-.31-3.48-.59-7-.88-10.45,0,0,0-.08,0-.11a3.32,3.32,0,0,1-2.53.77c-1.23-.16-3.66-.5-5.2.32s-3.72-.23-3.85-1.65a41.51,41.51,0,0,0-1.06-5.73A7.55,7.55,0,0,0,110,92.72c-2.82-1-3,0-2.89.1s.61.3.93.44q2.43,11.11,4.83,22.15l15-.92Z"/><path class="cls-31" d="M104.63,93.45a7.83,7.83,0,0,0-.72,2.58c-.45,2.35,2.52,14.49,2.9,16.18a28.4,28.4,0,0,1,.59,3.52l2.37-.14c-1.48-8.53-2.46-18.07-.57-22.37a3.61,3.61,0,0,0-4.57.23Z"/><path class="cls-33" d="M115.3,85.24s1.38,5.36,1.43,5.91-7.52-.55-7.53-1.78,0-4.92,0-7.38c0,0,3.52,4.13,6.13,3.25Z"/><path class="cls-34" d="M116.52,86s.69.28,3.77-2.63,12.49-14,14-16.12,2.51-4,2.44-4.76a2.66,2.66,0,0,1,.65-2.2,3,3,0,0,1,1.51-.49c.35-.1,1.08-.41,1.41-.48s2.9-1.24,3.33-1.11.06.84-1.09,1.49-2.1.85-2.16,1.34-.42,2.12,0,1.55.52-1.34,1-1.86,1-.94,1.13-.5-.78,2.53-1.16,3.26a8.88,8.88,0,0,1-2.21,2.84c-1.14.92-3.63,6-3.63,6s-4.1,9.13-6.95,12.57-5.92,7.62-6.79,6.69-3.46-3.7-5.19-5.57Z"/><path class="cls-33" d="M132.56,69.42c.8-1,1.37-1.69,1.69-2.16s.71-1.05,1-1.53a12.07,12.07,0,0,1,3,1.62,48.18,48.18,0,0,0-2.47,4.33l-3.21-2.26Z"/><path class="cls-32" d="M134.44,66.18s2.91,1,3.73,2.29l.81,1.26s-3.38,5-4,6.33-2.05,3.38-3.73,6.48a21.38,21.38,0,0,1-4.5,5.74c-.45.29-3.37,5.66-4.47,4.68s-4.39-3.91-6.57-5.88l-.24-.92s3.61-1.42,4.4-2.37,1.19-2.07,1.79-2.33,1.38-1.73,1.9-2.08.26-.65,1.43-1.58A12.77,12.77,0,0,0,127.5,75c1.16-1.47,4.62-5.9,6.94-8.83Z"/><path class="cls-34" d="M118.71,78.22a9,9,0,0,1-.13,3.94c-.47,2.86-4.32,4.74-6.69,3.4s-3-2.21-3.68-4.94c0,0-.08-3.41.47-4.6a16.92,16.92,0,0,1,1.24-2.21s.09,0,.83.76,1.51,1.08,1.39.86l-.67-1.36a10.61,10.61,0,0,0,2.18,1.79,3.63,3.63,0,0,0,2.72.25l-.71-.46a3.15,3.15,0,0,1-.93-1.76,15.38,15.38,0,0,0,2.73,2.25,2.2,2.2,0,0,1,1.25,2.08Zm-10.5,2.4c-.08-.36-.13-.61-.25-1.18s-.28-1.43-.37-2.12c.21,1.1.42,2.2.62,3.3Z"/><path class="cls-35" d="M112.32,77.43c-.3,0-.51.36-.48.79s.31.77.61.76.51-.36.48-.78-.31-.78-.61-.77Zm4.69-.1c-.31,0-.51.36-.48.79a.76.76,0,0,0,.63.76c.3,0,.5-.36.46-.78s-.3-.78-.61-.77Z"/><path class="cls-36" d="M115.3,77.8a15.85,15.85,0,0,0,1.4,3.07c.27.26-1.25.39-1.26.39a1.57,1.57,0,0,0,0,.23s2-.18,1.37-.78a15.26,15.26,0,0,1-1.33-3l-.22.07Z"/><path class="cls-7" d="M116.93,82.52a8.18,8.18,0,0,1-1.92.17c-1,0-2.12-.17-2.12-.17a3.26,3.26,0,0,0,2.28,1,2.07,2.07,0,0,0,1.76-1Z"/><path class="cls-35" d="M108.4,69.18c-4.49,0-3.71,8.26-1.4,10.57,1.78,1.78,2,2,2,2a34.24,34.24,0,0,1-.64-4.55,8.13,8.13,0,0,1,1.53-3.4c.16,0,1.29,1.5,2.22,1.62l-.67-1.36c1.25,1.51,3,2.78,4.9,2l-.71-.46a3.15,3.15,0,0,1-.93-1.76,11.64,11.64,0,0,0,2.73,2.25c1.49.81,1.31,3,1.31,3,2.66-3.9.89-8.53-3.72-10.47-4.45-1.88-6.65.47-6.65.47Z"/><path class="cls-36" d="M117.5,81.65s.27.21-.09,1.23a.78.78,0,0,0,.21.09c.4-1.17,0-1.49,0-1.49a1.77,1.77,0,0,0-.14.17Z"/><path class="cls-36" d="M111.47,81.42a1.77,1.77,0,0,0,.06,1.71.77.77,0,0,0,.19-.11,1.52,1.52,0,0,1,0-1.48l-.2-.12Z"/><path class="cls-30" d="M108.16,83.7S106.93,86,107,87s6.95,7.94,7.33,7.35l2.28-3.57s-8.14-4.42-8.46-7.06Z"/><path class="cls-37" d="M116.62,90.76l.54,2.17-1.64-.43,1.1-1.74Z"/><path class="cls-32" d="M106.93,92.38a6.18,6.18,0,0,1,5.29,3c2.06,3.21,2.8,11.91,3.26,17.2.06.77.14,1.67.24,2.65l-6.53.38a10.1,10.1,0,0,0-.48-2.37c-.71-3-4.09-12-4.09-15.86s2.31-5,2.31-5Z"/><path class="cls-34" d="M108,78.06s-.59-.33-1,0c-.65.55.07,3.32,1.37,3.14a10.25,10.25,0,0,1-.38-3.15Z"/><path class="cls-35" d="M118,76.75s-1.33-1.11-2.13.17a3.05,3.05,0,0,0,.32.22c.59-.92,1.59-.1,1.59-.09a2.86,2.86,0,0,1,.22-.3Zm-4.73.09s-1.34-1.11-2.13.18l.32.21c.57-.92,1.58-.1,1.58-.09l.23-.3Z"/><path class="cls-30" d="M117.92,88.71c.19.87.39,1.75.59,2.61-.32-.21-.62-.42-.93-.64.11-.65.23-1.3.34-2Z"/><path class="cls-31" d="M122.58,81.81s2.7-.21,3.89,1.47l.24-.16c-1.29-1.84-4.16-1.61-4.17-1.61s0,.2,0,.3Zm-1.69,1.67s3.5,3,2.2,6.71a1.25,1.25,0,0,0,.29.11c1.36-3.88-2.29-7-2.31-7s-.13.15-.18.23Zm6.69-7.3a4.4,4.4,0,0,0,3.67,1.34,2.33,2.33,0,0,1,0-.29A4,4,0,0,1,127.82,76l-.24.18Zm-2.15,1.88a3.82,3.82,0,0,1,2.51,4.58l.3.08a4.16,4.16,0,0,0-2.74-5,1.74,1.74,0,0,0-.07.29Zm-3.14,14.31s-2-3.61-4.84-5c0,.09-.08.19-.12.26C120.05,89,122,92.49,122,92.5l.27-.13Zm-6.63,3.5s2.5,4.73,6.87,5.7a1.81,1.81,0,0,1,0-.31c-4.23-.92-6.65-5.52-6.65-5.53s-.19.09-.27.14Zm-9.43,1.83s.09,10.29,5,15.28a2.08,2.08,0,0,1,.21-.21c-4.87-4.88-5-15-5-15l-.3,0Zm3.22,2.67s.58,8,3,10.88l.23-.19c-2.37-2.83-2.93-10.68-2.93-10.7a1.63,1.63,0,0,1-.31,0Z"/><path class="cls-33" d="M107.12,79.08s0-.52.28-.59.49.42.55.87,0,1.19-.06,1.09-.38-.66-.46-.47-.52-.17-.27-.4.53.39.57,0-.21-.44-.45-.39-.16-.1-.16-.1Z"/><path class="cls-23" d="M100.23,84.2q-15,.31-30.06.56c-.47-5.21-.93-10.45-1.37-15.66s-.9-10.47-1.36-15.71q15,.16,30.09.29c.45,5.08.9,10.19,1.34,15.27s.9,10.17,1.36,15.25Z"/><path class="cls-38" d="M100.23,84.2q-15,.31-30.06.56-.57-6.32-1.12-12.64L68,59.44Q76,65.74,84.09,71.91t16.13,12a1.93,1.93,0,0,0,0,.24Z"/><path class="cls-39" d="M103,116q-15,.8-29.94,1.48c-.47-5.18-.93-10.39-1.37-15.58s-.9-10.43-1.35-15.65q15-.25,30.05-.6c.44,5.07.89,10.15,1.32,15.21s.85,10.1,1.29,15.14Z"/><path class="cls-40" d="M194.82,81l-30.06,1.19c-.44-4.7-.87-9.44-1.31-14.16s-.88-9.47-1.32-14.2q15-.07,30.09-.18c.43,4.56.87,9.14,1.31,13.69s.85,9.12,1.29,13.66Z"/><path class="cls-39" d="M197.25,109.42l-30,2.24c-.41-4.69-.77-9.37-1.17-14.07s-.81-9.4-1.22-14.1l30.06-1.25c.4,4.55.81,9.1,1.19,13.63s.73,9,1.12,13.55Z"/><path class="cls-40" d="M97.39,52.25q-15-.15-30.09-.34c-.46-5.23-.91-10.49-1.37-15.73S65,25.66,64.6,20.39l30.07,1.14c.44,5.14.89,10.28,1.35,15.39s.91,10.22,1.37,15.33Z"/><path class="cls-40" d="M160.52,52.47q-15.06,0-30.09,0c-.47-4.93-.91-9.87-1.37-14.81s-.91-9.9-1.35-14.86q15,.54,30.08,1.05.68,7.18,1.36,14.35c.46,4.76.9,9.54,1.37,14.28Z"/><path class="cls-41" d="M192.09,52.33q-15.06.09-30.09.14c-.47-4.74-.93-9.51-1.39-14.25s-.9-9.55-1.36-14.33q15,.46,30.09.89c.46,4.6.9,9.22,1.36,13.81s.92,9.16,1.39,13.74Z"/><path class="cls-42" d="M79,23.72a2.47,2.47,0,0,0-3.73,2.2,3.28,3.28,0,0,0-3,.59,2.57,2.57,0,0,0-.61,3,3,3,0,0,0-1.78,2.77,4.59,4.59,0,0,0,.75,3,4.37,4.37,0,0,0,.24,3.44c1,1.44,1.15,1.19,1.15,1.19a2.86,2.86,0,0,0,1,2.43,5.69,5.69,0,0,0,3.06,1,1.67,1.67,0,0,0,1.5,1.06,2.6,2.6,0,0,0,1.93-.34A4.39,4.39,0,0,0,82,45a1.86,1.86,0,0,0,1.81-1s2.08.89,3.21.06A2,2,0,0,0,87.78,42a2,2,0,0,0,2.66-.64,2.07,2.07,0,0,0,.41-2.65,2.25,2.25,0,0,0,1.63-2.2,3.47,3.47,0,0,0-1.66-3.07s.9-1.1.24-3.36a2.25,2.25,0,0,0-2.58-1.84s.47-1-.63-2.44a3.79,3.79,0,0,0-3.29-1.15,3.22,3.22,0,0,0-1.63-1.45,1.31,1.31,0,0,0-1.5.48S80,22.4,79,23.72Z"/><path class="cls-43" d="M81,45.45a15,15,0,0,0-4,1.07,8.44,8.44,0,0,0-3.33,3.91,4.84,4.84,0,0,0,0,1.57l18.83.2c-1.87-5.05-5.11-7.09-11.53-6.75Z"/><path class="cls-44" d="M77.72,46.22c-.24.08.15-.13-.68.3s-3.19,3.07-3.33,3.91a4.84,4.84,0,0,0,0,1.57l4.51,0c-.17-1.93-.34-3.89-.52-5.83Zm14.84,6c-1.15-3.08-2.8-5.06-5.39-6,.18,2,.35,4,.54,6l4.85.05Z"/><path class="cls-45" d="M84,42s-.16,2.79.3,3.39a2.65,2.65,0,0,0,1.34.81,5,5,0,0,1-3.82.83c-2.35-.39-2.17-1-2.17-1s1,0,1-.77-.26-2.84-.26-2.84A3.77,3.77,0,0,0,84,42Z"/><path class="cls-46" d="M86,36.12s0-.58,1.24-.19.52,3.09-.32,3.25-1.07.49-1.06,0,.08-2,.14-3Z"/><path class="cls-46" d="M76.4,35.88s-.13-.58-1.27-.25,0,3.12.93,3.32,1.16.53,1,0-.47-2.06-.7-3.09Z"/><path class="cls-46" d="M84,42a15.57,15.57,0,0,0,.07,2.6,4.28,4.28,0,0,1-3.42.2c-.07-.92-.24-2.37-.24-2.37A3.77,3.77,0,0,0,84,42Z"/><path class="cls-45" d="M84.61,30.79c1.09,1.27,1.93,3.4,1.58,8.13-.46,6.15-7.92,6-9.48-.17-1.2-4.81-.76-6.88.13-8.14s6.69-1.1,7.77.18Z"/><path class="cls-42" d="M79.1,34.91c.22,0,.42.27.45.6s-.14.58-.36.58-.43-.27-.45-.6.13-.59.36-.58Z"/><path class="cls-42" d="M83.39,35c.22,0,.44.29.46.61s-.13.58-.36.57-.42-.27-.45-.59.12-.59.35-.59Z"/><path class="cls-47" d="M77.47,34a1.65,1.65,0,0,1,2.41,0l-.26.29a1.29,1.29,0,0,0-1.87,0,3.22,3.22,0,0,1-.28-.33Zm7.12.2s-1.44-1.29-2.42-.12c.1.11.2.2.31.31.75-.9,1.88.12,1.88.12l.23-.31Z"/><path class="cls-48" d="M80.59,37.72s.85.72,1.5.1l.3.34c-.9.83-2-.11-2-.11s.13-.22.21-.33Z"/><path class="cls-48" d="M80,39.62a2.94,2.94,0,0,0,3.08.2c.07.14.13.26.21.39A3.35,3.35,0,0,1,79.84,40a4,4,0,0,0,.2-.35Z"/><path class="cls-43" d="M86.33,32a4.49,4.49,0,0,0-2.44-2.1,8.56,8.56,0,0,0-6.47-.2,3.22,3.22,0,0,0-2.09,2c-1.75-5.74,11.75-5.29,11,.31Z"/><path class="cls-7" d="M95.69,52.23q-13.22-.13-26.43-.29c0-.06,0-.13,0-.2-.06-.59-.1-1.21-.14-1.82a1.43,1.43,0,0,1,1.39-1.65c7.79.11,15.57.23,23.35.32a1.81,1.81,0,0,1,1.69,1.66c.06.59.1,1.19.16,1.77a1.49,1.49,0,0,1,0,.21Z"/><path class="cls-26" d="M172.54,65.11A1.69,1.69,0,0,0,174,66.72a.74.74,0,0,0,.64-.36c-.16-.65-.32-1.32-.46-2-.78-.47-1.67-.29-1.64.74Z"/><path class="cls-26" d="M185,64.87a1.42,1.42,0,0,1-1.15,1.65.92.92,0,0,1-.71-.33c0-.67,0-1.33.07-2a1.06,1.06,0,0,1,1.79.66Z"/><path class="cls-44" d="M178.38,72.91a5.38,5.38,0,0,1-3.14,1.15c-1.56-.11-3.78,0-4.79,2.11s-5.58,6-1.86,5.84L191,81.12c3.73-.15,0-2.83-1.86-5.13a7.18,7.18,0,0,0-4.84-2.43s-5.16.86-5.9-.65Z"/><path class="cls-49" d="M172.37,81.86h.47c.32-2.09,1-4.71,1-4.72a3,3,0,0,1-.45-.12s-.73,2.72-1,4.85Zm14.68-.58.48,0c-.72-2.05-1.95-4.66-1.95-4.67a4.29,4.29,0,0,1-.42.15s1.18,2.53,1.89,4.54Z"/><path class="cls-6" d="M181.37,69.34s.2,3.17.86,3.7a4,4,0,0,0,2.05.52,14,14,0,0,1-4.77,1.31,5.37,5.37,0,0,1-3.21-.9s1.38-.48,1.42-1.28a22.36,22.36,0,0,0-.26-2.8s3.59,0,3.91-.55Z"/><path class="cls-26" d="M181.37,69.34s.07,1,.24,2a6.31,6.31,0,0,1-3.18.4c-.82-.13-.53-.11-.77-.21l-.2-1.59s3.59,0,3.91-.55Z"/><path class="cls-6" d="M178.88,59.53a34.72,34.72,0,0,0-3.68.67c-1.46.39-1.54,2.15-1.52,3a12.13,12.13,0,0,0,.15,1.57s.48,5,4.48,5.6,5.21-2.27,5.24-3.88a38.3,38.3,0,0,0-.43-4.43c-.06-.71-1.43-2.56-4.24-2.51Z"/><path class="cls-11" d="M183.52,65.55c.56-1.16,1.91-4.48.8-7.23-.43-1-2.3-2.06-2.24-1.6s1.19.88-.93-.15a12.38,12.38,0,0,0-6.28-.91c-1.2.19-1.33.55-.75.77a4.28,4.28,0,0,1,.79.37,5.6,5.6,0,0,0-4,1.25c-.4.27.38.64.38.64s-.7,0-.84,1.62,0,2.62.26,2.67.77-1,.77-1a17.46,17.46,0,0,0,1.32,2.67,12.92,12.92,0,0,0,1.32,1.48,10.44,10.44,0,0,1-.26-3.8c.34-1.48,2.56-2.06,3.7-2.26s2.78-.38,2.78-.38,1.49,1,2.07,1.47,1.09,4.38,1.09,4.38Z"/><path class="cls-25" d="M176.83,63.33a.65.65,0,0,1,.55.63c0,.36-.16.65-.43.66s-.51-.29-.55-.64.16-.64.43-.65Z"/><path class="cls-25" d="M180.05,63.28a.65.65,0,0,1,.55.63c0,.36-.15.64-.43.65a.62.62,0,0,1-.53-.63c0-.37.15-.65.41-.65Z"/><path class="cls-50" d="M175.23,62.83a1.79,1.79,0,0,1,2.63-.11,4,4,0,0,0-.28.3,1.33,1.33,0,0,0-2,.09c-.14-.09-.27-.19-.39-.28Zm3.71-.06a1.79,1.79,0,0,1,2.62-.12c-.09.11-.19.21-.28.3a1.35,1.35,0,0,0-2,.09c-.13-.08-.26-.18-.38-.27Z"/><path class="cls-51" d="M178,65.8s.94.46,1.53-.08l.28.24a1.9,1.9,0,0,1-2,.15c.06-.11.11-.2.16-.31Z"/><path class="cls-7" d="M177.46,67.65a30.62,30.62,0,0,1,3.63-.14c.16.14-2.46,1.39-3.63.14Z"/><path class="cls-7" d="M176.75,63.63a.18.18,0,0,1,.17.15.15.15,0,0,1-.14.15.2.2,0,0,1-.18-.15.16.16,0,0,1,.15-.15Z"/><path class="cls-7" d="M180.28,63.57a.16.16,0,0,1,.17.14.14.14,0,0,1-.13.16.17.17,0,0,1-.17-.15c0-.08,0-.14.13-.15Z"/><path class="cls-7" d="M124.44,52.43q-12.27-.06-24.53-.16c0-.11,0-.22,0-.33-.09-1-.17-1.95-.25-2.93-.13-1.48.4-2.67,1.2-2.66q10.83.15,21.67.28c.78,0,1.55,1.19,1.68,2.63.08,1,.18,1.91.26,2.86,0,.1,0,.2,0,.31Z"/><path class="cls-42" d="M171.83,30.56s-1.46-.92-1.53-1.61-1.05-2.38-1.83-2.59a3.18,3.18,0,0,0-1.86.36s-1.21-.09-1.45.44a1.5,1.5,0,0,0-.08,1,.74.74,0,0,0-.66.92,2.77,2.77,0,0,0,.27,1.12s-1,.79-.47,1.56.64.91.64.91a.59.59,0,0,0-.36.94c.44.73.72.85.72.85s-.1,1.63.51,1.9a3,3,0,0,0,1,.27,2.66,2.66,0,0,0,1.07.46,1.49,1.49,0,0,0,.78-.24s1.11.28,1.44,0-.26-4.28,1.86-6.34Z"/><path class="cls-42" d="M178,30.7s1.31-.85,1.24-1.52.57-2.32,1.32-2.49a3.86,3.86,0,0,1,1.94.46s1.21,0,1.55.5a1.63,1.63,0,0,1,.28,1,1,1,0,0,1,.84.94,2,2,0,0,1-.07,1.07s1.15.8.77,1.54-.46.87-.46.87.82.24.53.93-.55.81-.55.81.43,1.61-.13,1.85a2.55,2.55,0,0,1-.9.24,2.07,2.07,0,0,1-1,.41,1.9,1.9,0,0,1-.83-.23,1.24,1.24,0,0,1-1.8-.09c-.82-1-.21-4.16-2.74-6.29Z"/><path class="cls-46" d="M171.22,38.48s.37,1.51-.55,1.05a2.93,2.93,0,0,1-1.18-2.71c.15-.67.44-.76.44-.76s1-.12,1.29,2.42Z"/><path class="cls-46" d="M179.72,38.6s.32,1.41,1.15,1,.53-1.91.25-2.57-.57-.76-.57-.76-1.08-.16-.83,2.37Z"/><path class="cls-45" d="M174,42.37s.66,2.19-.05,2.36a36,36,0,0,0-5.86,2.12c-1,.64-1.41,2.29-1.53,3.55a14.68,14.68,0,0,0-.11,2.06q10.71,0,21.43-.11a7.33,7.33,0,0,0-1.23-3.94c-1-1.19-4.52-2.92-5.42-3.34s-1.85-.27-1.92-1-.2-2.11-.2-2.11-3.16,1.3-5.11.42Z"/><path class="cls-46" d="M174,42.37s.64,2.13,0,2.35a6.11,6.11,0,0,0,3.68.45,3.52,3.52,0,0,0,1.67-1s0,.27,0-.12-.2-2.11-.2-2.11-3.16,1.3-5.11.42Z"/><path class="cls-42" d="M175.26,29.54s-3,0-4.47,1.3-1.42,3.47-1.44,4.46,1,2,1.2,2.65-.06-2.8,0-3.71,1.34-1.19,1.84-1.05a9.25,9.25,0,0,0,4.1.19c1.26-.43,1.91,0,2.18.49a3.76,3.76,0,0,0,.94,1.19c.39.27.71,2.18.71,2.18a7.22,7.22,0,0,1,.62-1.53c.18-.1,0-6-5.67-6.17Z"/><path class="cls-45" d="M180.31,35.79s.23,4.33.12,5.09a4.4,4.4,0,0,1-2.89,3c-1.82.54-5-.56-5.69-2.36a26.35,26.35,0,0,1-1.56-4.88c0-.24-.09-.46-.12-.67A3.18,3.18,0,0,1,172,32.41c1.22-.37,4.73-.64,6.17.05s2.12,3.33,2.12,3.33Z"/><path class="cls-42" d="M173.51,37.56a.7.7,0,0,1,.6.66.53.53,0,0,1-.47.65.68.68,0,0,1-.59-.66c0-.36.17-.66.46-.65Z"/><path class="cls-42" d="M178.14,37.63a.71.71,0,0,1,.6.66.52.52,0,0,1-.47.63.7.7,0,0,1-.6-.65.52.52,0,0,1,.47-.64Z"/><path class="cls-47" d="M171.85,36.7a2.19,2.19,0,0,1,2.62.08c-.12.13-.23.27-.33.4a1.65,1.65,0,0,0-1.93,0l-.36-.46Z"/><path class="cls-47" d="M176.75,36.78a2.21,2.21,0,0,1,2.62.06c-.12.14-.22.29-.33.4a1.67,1.67,0,0,0-1.93,0l-.36-.44Z"/><path class="cls-48" d="M175,39.89s1.23.89,2,0a5.07,5.07,0,0,0,.45.36c-1,1.31-2.72.11-2.72.1l.31-.42Z"/><path class="cls-48" d="M174.54,41.54s2.28,1.07,3.3-.07l.34.28c-1.23,1.36-3.79.15-3.79.15a1.94,1.94,0,0,1,.15-.36Z"/><path class="cls-52" d="M170.3,28.61a1,1,0,0,1,1,.86.75.75,0,0,1-.79.83,1,1,0,0,1-.94-.87.73.73,0,0,1,.77-.82Z"/><path class="cls-44" d="M169.5,29.63a1,1,0,0,1,.95.86.74.74,0,0,1-.79.81,1,1,0,0,1-.95-.85.75.75,0,0,1,.79-.82Z"/><path class="cls-52" d="M179.15,28.84a.74.74,0,0,0-.79.81,1,1,0,0,0,.95.84.72.72,0,0,0,.78-.8,1,1,0,0,0-.94-.85Z"/><path class="cls-44" d="M180.16,29.88a.74.74,0,0,0-.79.81,1,1,0,0,0,.95.85.74.74,0,0,0,.79-.81,1,1,0,0,0-1-.85Z"/><path class="cls-44" d="M168.23,46.07c.8-.29,2-.76,2.38-.92s1.78,3.75,4.54,4.63,6.13-.34,6.38-1.5.55-3.37.55-3.37l2.35,1.31c.38.21.37,3.8.45,4.59a9.52,9.52,0,0,0,.29,1.56l-16.32.08a23.2,23.2,0,0,0-.62-6.38Z"/><path class="cls-7" d="M173.58,38.22a.13.13,0,0,1,.14.13.12.12,0,0,1-.12.14.19.19,0,0,1-.16-.15.12.12,0,0,1,.14-.12Z"/><path class="cls-7" d="M178.26,38.28a.13.13,0,0,1,.14.13.11.11,0,0,1-.12.14.17.17,0,0,1-.16-.14.13.13,0,0,1,.14-.13Z"/><path class="cls-52" d="M168.94,46.29a.38.38,0,0,1,.37.33A.3.3,0,0,1,169,47a.38.38,0,0,1-.37-.34.31.31,0,0,1,.32-.33Z"/><path class="cls-52" d="M170.85,46.3a.38.38,0,0,1,.37.33.3.3,0,0,1-.31.33.37.37,0,0,1-.38-.34.3.3,0,0,1,.32-.32Z"/><path class="cls-52" d="M169.91,47.91a.4.4,0,0,1,.38.34.29.29,0,0,1-.31.33.39.39,0,0,1-.39-.33.33.33,0,0,1,.32-.34Z"/><path class="cls-52" d="M172.09,48.42a.39.39,0,0,1,.38.34.3.3,0,0,1-.32.33.38.38,0,0,1-.37-.33.3.3,0,0,1,.31-.34Z"/><path class="cls-52" d="M169.39,49.64a.38.38,0,0,1,.38.34.32.32,0,0,1-.31.34.42.42,0,0,1-.39-.34.32.32,0,0,1,.32-.34Z"/><path class="cls-52" d="M171.43,50.31a.38.38,0,0,1,.38.33.3.3,0,0,1-.31.33.36.36,0,0,1-.37-.33.29.29,0,0,1,.3-.33Z"/><path class="cls-52" d="M169.79,51.55a.38.38,0,0,1,.38.34.31.31,0,0,1-.31.33.4.4,0,0,1-.39-.33.32.32,0,0,1,.32-.34Z"/><path class="cls-52" d="M173.74,50.31a.37.37,0,0,1,.37.33.31.31,0,0,1-.31.33.38.38,0,0,1-.38-.33.3.3,0,0,1,.32-.33Z"/><path class="cls-52" d="M172.87,51.54a.4.4,0,0,1,.39.34.31.31,0,0,1-.32.33.38.38,0,0,1-.37-.33.3.3,0,0,1,.3-.34Z"/><path class="cls-52" d="M175.52,50.31a.38.38,0,0,1,.38.33.3.3,0,0,1-.31.32.39.39,0,0,1-.39-.32.31.31,0,0,1,.32-.33Z"/><path class="cls-52" d="M177.5,50.31a.38.38,0,0,1,.38.32.31.31,0,0,1-.32.33.38.38,0,0,1-.37-.33.28.28,0,0,1,.31-.32Z"/><path class="cls-52" d="M175.86,51.53a.38.38,0,0,1,.37.34.3.3,0,0,1-.31.33.39.39,0,0,1-.38-.33.31.31,0,0,1,.32-.34Z"/><path class="cls-52" d="M179.8,50.3a.36.36,0,0,1,.37.33.28.28,0,0,1-.3.32.38.38,0,0,1-.38-.32.29.29,0,0,1,.31-.33Z"/><path class="cls-52" d="M179,51.53a.35.35,0,0,1,.37.33.3.3,0,0,1-.32.32.38.38,0,0,1-.37-.32.31.31,0,0,1,.32-.33Z"/><path class="cls-52" d="M181.11,49.63a.39.39,0,0,1,.37.34.31.31,0,0,1-.32.33.38.38,0,0,1-.37-.33.3.3,0,0,1,.32-.34Z"/><path class="cls-52" d="M183.15,50.29a.37.37,0,0,1,.37.32.32.32,0,0,1-.31.34.39.39,0,0,1-.38-.33.3.3,0,0,1,.32-.33Z"/><path class="cls-52" d="M181.49,51.51a.4.4,0,0,1,.39.34.3.3,0,0,1-.32.32.35.35,0,0,1-.37-.32.3.3,0,0,1,.3-.34Z"/><path class="cls-52" d="M184.59,51.5a.37.37,0,0,1,.37.33.29.29,0,0,1-.31.32.36.36,0,0,1-.37-.32.29.29,0,0,1,.31-.33Z"/><path class="cls-52" d="M184.13,49.4a.39.39,0,0,1,.38.32.3.3,0,0,1-.31.34.36.36,0,0,1-.37-.33.29.29,0,0,1,.3-.33Z"/><path class="cls-52" d="M182.59,48.11a.36.36,0,0,1,.37.32.29.29,0,0,1-.31.33.38.38,0,0,1-.38-.33.29.29,0,0,1,.32-.32Z"/><path class="cls-52" d="M183.89,47a.37.37,0,0,1,.38.32.31.31,0,0,1-.31.34.37.37,0,0,1-.37-.33.28.28,0,0,1,.3-.33Z"/><path class="cls-52" d="M182.71,45.69a.37.37,0,0,1,.37.32.3.3,0,0,1-.32.32.35.35,0,0,1-.37-.32.29.29,0,0,1,.32-.32Z"/><path class="cls-53" d="M183.64,51.37a16,16,0,0,0-1.17-3.47,5.91,5.91,0,0,1-1-2.69c-.07-.85-.68-1.7-.17-1.76a.77.77,0,0,1,.88.57c.12.34.19.88.32,1.19s.11.48.2.29a9.12,9.12,0,0,0,.36-2,15.78,15.78,0,0,1,.07-2.3.39.39,0,0,1,.69.09c.14.36.17,2.87.28,2.93a13.72,13.72,0,0,0,.25-2.16c0-.33,0-1,.46-1s.4,1.11.38,1.39a17.46,17.46,0,0,0-.12,2.06c.08.13.21.14.24,0s.57-1.84.63-2.18.18-.68.49-.62.39.3.31.82-.62,2.64-.64,2.8a.22.22,0,0,0,.22.25,4.54,4.54,0,0,0,1-.68,3.88,3.88,0,0,1,.67-.75c.18-.08.52-.06.53.22s-.68,1.16-1,1.51a10.33,10.33,0,0,1-.78.76,11.73,11.73,0,0,1-1.06,2c-.21.08,1.7,3.79,1.17,3.79l-3.13,0c-.05-.33-.11-.68-.16-1Z"/><path class="cls-54" d="M149,48.33l11.13.05c.12,1.37.26,2.74.39,4.09H148.14c-.09-1-.19-1.93-.28-2.9A1.12,1.12,0,0,1,149,48.33Z"/><path class="cls-55" d="M143.62,44.28c1.29,1.72,5.29,1,5.66-.36,3.88,1.45,4.79,2,5.42,6.09a11.47,11.47,0,0,1,0,2.48h-15.6l-.36-3c-.1-.89.57-4.06,4.9-5.21Zm-5.38,5.25s-.31,1.39-.7,2.94h.92c-.08-1-.16-2-.22-2.95Z"/><path class="cls-56" d="M150,46.57s-2.46,2.82-2.81,4.72-.17.84-.28,1.2h2.41c.23-2,.45-3.94.68-5.91Z"/><path class="cls-57" d="M143.62,44.28s3.69-.84,5.66-.36c1,.88-4.57,3.18-5.66.36Z"/><path class="cls-34" d="M147.5,39.64a8.15,8.15,0,0,0,.71,2.63,5.69,5.69,0,0,0,1.29,2.18,4.44,4.44,0,0,1-2.64,1.45c-1.55.16-2.78-.19-2.79-.78s0-2.35,0-3.54a3.2,3.2,0,0,0,3.45-1.94Z"/><path class="cls-7" d="M143.62,44.28c1.29,1.72,5.29,1,5.66-.36,0,0,.31.11.76.3a4.83,4.83,0,0,1-3.59,1.69,5,5,0,0,1-3.56-1.42c.2-.09.58-.16.73-.21Z"/><path class="cls-56" d="M141.77,47.75a12.68,12.68,0,0,0-1.17,4.73h-1.24a7.35,7.35,0,0,1,2.41-4.73Z"/><path class="cls-58" d="M147.5,39.64a20.38,20.38,0,0,0,.71,2.63l.09.23a4.05,4.05,0,0,1-3.13,1.25,4.84,4.84,0,0,1-1.11-.17c0-.67,0-1.33,0-2a3.2,3.2,0,0,0,3.45-1.94Z"/><path class="cls-59" d="M142.21,27.3a5,5,0,0,0-4.09.57c.76-.81,2-1.38,4.09-.57Zm-4.93,1.39c-1,1.31-1.11,4.94,1.58,4.82,1.63-.07,6.16-.49,6.8.27s-.13,4.53,1,4.88,1.11,1.3,2.11,1.31,2.52-1.43,2.68-4.32-1.32-9.74-8.32-8.15c-3.57-1.88-5.2-.12-5.86,1.19Z"/><path class="cls-34" d="M139.13,33.5a11.84,11.84,0,0,1,.57,4.43c-.08,2.83,3,4.23,4.65,4.28a3.81,3.81,0,0,0,4.12-3.88,2.1,2.1,0,0,0,1-1.5,1.12,1.12,0,0,0-1.54-1,1.56,1.56,0,0,0-.62,1.45c.06.61-.05,1-.32,1-.66,0-.68-3.09-.53-3.48a1.24,1.24,0,0,0-.72-1.69,36.54,36.54,0,0,0-6.61.37Z"/><path class="cls-33" d="M139.13,33.5s.08.22.19.63a24.19,24.19,0,0,1,4.19-.5c2.32-.05,2.57.59,2.76,1.14s.1.18.15.25a.77.77,0,0,1,0-.2,1.24,1.24,0,0,0-.72-1.69,36.54,36.54,0,0,0-6.61.37Z"/><path class="cls-59" d="M141.26,35.37a.66.66,0,0,1,.55.64c0,.34-.16.63-.43.62a.65.65,0,0,1-.54-.64c0-.35.16-.63.42-.62Z"/><path class="cls-59" d="M144.39,35.44a.65.65,0,0,1,.54.64c0,.35-.16.61-.43.61a.64.64,0,0,1-.53-.64c0-.35.16-.61.42-.61Z"/><path class="cls-36" d="M142.79,36.68s-.22,1.29-.71,1.59c-.08,0-.11.08-.11.13a.31.31,0,0,0,.05.12.35.35,0,0,0,.14.13.74.74,0,0,0,.69.08.91.91,0,0,0,.09.22,1,1,0,0,1-.89-.12.73.73,0,0,1-.2-.19.34.34,0,0,1-.09-.25.37.37,0,0,1,.18-.33c.43-.23.64-1.43.64-1.43l.21,0Z"/><path class="cls-36" d="M142.49,39.81a1.57,1.57,0,0,0,2.09-.32l.27.23a1.88,1.88,0,0,1-2.52.36l.16-.27Z"/><path class="cls-59" d="M140.28,34.68a1.23,1.23,0,0,1,1.78,0l-.26.31a.82.82,0,0,0-1.18,0,2.58,2.58,0,0,1-.34-.32Zm3.07.07a1.24,1.24,0,0,1,1.79,0c-.09.11-.19.21-.27.32a.81.81,0,0,0-1.17,0c-.12-.11-.24-.2-.35-.32Z"/><path class="cls-56" d="M152.91,46.59c.51,1.4.2,3.67-.39,5.89h1.72c.06-2.29-.25-4.53-1.33-5.89Z"/><path class="cls-55" d="M153.06,52.48c.6-2.91.64-5.76-.6-6.23-3.12-1.23-4.49,2.88-5.23,6.23,1.93,0,3.88,0,5.83,0Z"/><path class="cls-7" d="M141.56,35.66a.18.18,0,0,1,.17.17.14.14,0,0,1-.15.17.19.19,0,0,1-.18-.18c0-.1.06-.16.16-.16Z"/><path class="cls-7" d="M144.65,35.72a.2.2,0,0,1,.18.18c0,.09-.06.16-.16.16a.18.18,0,0,1-.17-.17.14.14,0,0,1,.15-.17Z"/><path class="cls-33" d="M148.94,36.55a.77.77,0,0,0-.69-.43c-.52,0-.7,1-.52,1.39s.68-.1.81.18.49-.06.33-.42-.77-.05-.81-.32.16-.51.31-.38.37.33.51.22.06-.24.06-.24Z"/><path class="cls-60" d="M129,37.14l6.51-.41a.74.74,0,0,1,.7.58c1.37,5.08,2.71,10.13,4.07,15.17l-9.87,0c-.48-5.1-.93-10.21-1.41-15.32Z"/><path class="cls-61" d="M129,37.39l6.16-.4a.76.76,0,0,1,.71.6Q138,45,140,52.48l-9.58,0c-.47-5-.92-10-1.39-15.07Z"/><path class="cls-56" d="M151.36,47.33a23.13,23.13,0,0,1,0,5.16h-.22a23.13,23.13,0,0,0,0-5.15,1.61,1.61,0,0,0,.22,0Z"/><path class="cls-56" d="M143.11,47a10.12,10.12,0,0,0,3.28,4.45,1.25,1.25,0,0,1-.12.17,10.46,10.46,0,0,1-3.37-4.56l.21-.06Zm-.81,1.81a6.89,6.89,0,0,0,.93,3.66,1.92,1.92,0,0,1-.24,0,7.24,7.24,0,0,1-.9-3.7l.21,0Z"/><path class="cls-43" d="M82.68,56.2s.82-1,3.23,0,3,3.53,3.59,4.83,2.42,1.3,2.11,3.68-.45,1.44.32,2.61,1.21,2.33.55,3.11a1.74,1.74,0,0,0,0,2.51c.75,1,2.29,1.35,1,3.9s-15.66,3-17.1.22,0-2.69-.42-4.84-1.3-3.28-.37-4.48-.62-1.63-.39-3.54,1.65-1.11,1.73-2.65,1.19-6.45,5.77-5.33Z"/><path class="cls-62" d="M81.7,70.64s.47,3.31-.56,4.11-5.92,1-6.88,1.84-.85,6.46-.83,8.12q10.84-.18,21.71-.41c-.07-1.85-.16-6.54-2-7.54s-5.37-1-6.38-2.64-.78-2.52-.78-2.52-3.73.11-4.23-1Z"/><path class="cls-63" d="M81.7,70.64a13.54,13.54,0,0,1,.09,2.21,7.22,7.22,0,0,0,1.56.8,4.28,4.28,0,0,0,3.05-.07,3,3,0,0,1-.47-2s-3.73.11-4.23-1Z"/><path class="cls-62" d="M87.84,62a13.13,13.13,0,0,0,.49,2.79,10,10,0,0,1-.15,5.41,3.82,3.82,0,0,1-5,2c-2.21-.9-3.2-2.07-3.52-3.51a18.83,18.83,0,0,0-.63-2.27,3.93,3.93,0,0,0,.19-2.06c-.25-.91-.27-1.08.19-1.74s.06-.92.42-1.6.66-1.69,1.74-.83,1.71,0,2.37-.32,1.2-1,1.78.43,1.77,1,2,1.24a.5.5,0,0,1,.12.43Z"/><path class="cls-9" d="M86.13,64.39c-.27,0-.46.29-.42.63a.61.61,0,0,0,.53.6.51.51,0,0,0,.44-.61.64.64,0,0,0-.55-.62Z"/><path class="cls-9" d="M81.88,64.4a.51.51,0,0,0-.44.61c0,.33.28.63.55.62a.52.52,0,0,0,.44-.61.66.66,0,0,0-.55-.62Z"/><path class="cls-64" d="M87.35,64A1.68,1.68,0,0,0,84.88,64a1.09,1.09,0,0,0,.13.17,1.5,1.5,0,0,1,2.19.05l.15-.14Z"/><path class="cls-64" d="M83.08,64A1.66,1.66,0,0,0,80.62,64a1.09,1.09,0,0,0,.13.17,1.52,1.52,0,0,1,2.2.06l.13-.15Z"/><path class="cls-27" d="M84,65.5s.28,1.15.69,1.4a.55.55,0,0,1,.23.19.31.31,0,0,1,0,.18.26.26,0,0,1-.06.18.74.74,0,0,1-.38.2,2.6,2.6,0,0,0,.1.25,1.21,1.21,0,0,0,.46-.26.52.52,0,0,0,.14-.34.63.63,0,0,0-.12-.34.86.86,0,0,0-.31-.29c-.31-.18-.56-1.22-.56-1.22l-.24,0Z"/><path class="cls-7" d="M85.89,68.94s-3.45-.08-3.49,0a3.11,3.11,0,0,0,2,1c.88,0,1.87-1,1.44-1.06Z"/><path class="cls-63" d="M86.68,66.77c-.35,0-.61.16-.6.33s.31.32.67.32.61-.15.6-.33-.32-.33-.67-.32Z"/><path class="cls-63" d="M81.78,66.79c-.35,0-.62.15-.61.33s.3.3.66.3.62-.12.61-.3-.32-.33-.66-.33Z"/><path class="cls-63" d="M88.62,64.72a.81.81,0,0,1,.76.23,1.8,1.8,0,0,1,.06,2,1.66,1.66,0,0,1-.82.78,14.3,14.3,0,0,0,0-3Z"/><path class="cls-63" d="M78.24,64.39s-.53-.38-.76.4A2.82,2.82,0,0,0,78.27,67a2.93,2.93,0,0,0,1.11.36,10.92,10.92,0,0,1-1.14-3Z"/><path class="cls-65" d="M90.25,75.55c0,1.47.12,2.94.19,4.41h.62c-.06-1.46-.12-2.93-.17-4.39-.21,0-.43,0-.64,0Z"/><path class="cls-65" d="M76.52,75.53c.31,1.49.62,3,.92,4.43l.63-.1-.92-4.42-.63.09Z"/><path class="cls-52" d="M90.8,79.25s-1,2.33-5.25,2.27-8-2.94-8.11-2.08-.25,3.48-.38,5.21q7.41-.12,14.83-.28a19.5,19.5,0,0,0-1.09-5.12Z"/><path class="cls-64" d="M85.51,77.1l2.15-.6a1.66,1.66,0,0,1-.06-.21l-2.16.59a.81.81,0,0,0,.07.22Zm-2-.2c-.76-.17-1.51-.36-2.25-.54,0,.07,0,.15,0,.22l2.25.53c0-.06,0-.13,0-.21Z"/><path class="cls-7" d="M86.36,64.69a.15.15,0,0,0-.13.17.17.17,0,0,0,.16.15.13.13,0,0,0,.13-.15.19.19,0,0,0-.16-.17Z"/><path class="cls-7" d="M82.08,64.7a.14.14,0,0,0-.13.16.16.16,0,0,0,.16.15.14.14,0,0,0,.13-.16.17.17,0,0,0-.16-.15Z"/><path class="cls-66" d="M178,76l16.27-.55c.17,1.85.35,3.7.52,5.55l-19.6.78c-.12-1.19-.23-2.37-.34-3.55S176.19,76,178,76Z"/><path class="cls-67" d="M194.37,76c.14,1.67.29,3.34.45,5l-19.6.78c-.11-1-.19-2-.28-3-.11-1.17,1.3-2.17,3.14-2.23L194.37,76Z"/><path class="cls-42" d="M187,77.61h.43c0,.64.1,1.28.17,1.91h-.43c-.06-.62-.13-1.27-.17-1.91Zm4.15-.14h.43c0,.62.11,1.26.18,1.89l-.43,0c-.06-.63-.13-1.26-.18-1.9Zm-.83,0h.43c.05.63.12,1.26.18,1.89l-.44,0c-.06-.63-.13-1.26-.17-1.91Zm-.83,0,.43,0c0,.64.11,1.27.17,1.9h-.42c-.07-.62-.14-1.25-.18-1.89Zm-.84,0,.44,0c0,.64.11,1.28.18,1.9h-.43c-.07-.62-.13-1.25-.19-1.89Zm-.82,0h.42c0,.65.11,1.28.18,1.91H188c-.07-.63-.13-1.26-.17-1.91Z"/><path class="cls-68" d="M179.87,86.84c-2.49,1.11-3,2.56-2.93,3.3a10,10,0,0,0,1.12,4A81.34,81.34,0,0,0,178,105l14.23-1.46c2.37-.24-2.14-5.33-2.73-7.58-.4-1.52-.27-4.41-1.52-6.7-1.52-2.77-5.62-3.55-8.1-2.43Z"/><path class="cls-43" d="M177.5,92.41s-1,.39-1,1.27.17,2.2.77,2.67,1.1.86,1,.17-.49-2.74-.74-4.11Z"/><path class="cls-62" d="M186.1,97.47a17.07,17.07,0,0,0,.86,3.63c.5,1,.5,1.05.5,1.05a7.2,7.2,0,0,1-2.81,1.22c-1.34.14-2.24-.07-2.29-.63s-.23-2.8-.27-3.37,2.95-.52,4-1.9Z"/><path class="cls-26" d="M186.1,97.47s.18,1.22.43,2.32a6.78,6.78,0,0,1-3.38,1.75,2.23,2.23,0,0,1-.88,0c-.07-.73-.15-1.82-.18-2.19s2.95-.52,4-1.9Z"/><path class="cls-62" d="M177.36,90.82a25.14,25.14,0,0,0,.91,5.78A4.33,4.33,0,0,0,183,99.84a4.74,4.74,0,0,0,4.12-3.07,29.73,29.73,0,0,0,.16-4.48,3,3,0,0,1-2.12-.4c-1.43-.66-6.26-2.54-6.26-2.54a5.94,5.94,0,0,0-1.54,1.47Z"/><path class="cls-69" d="M187,92.89s-1.75-6.68-7.57-5.87c3.68-2.79,8.06,1.41,8.71,5.59l-1.14.28Z"/><path class="cls-70" d="M187,92.89a11.66,11.66,0,0,0-.59-1.52,2,2,0,0,1,1.09-.52c.24,0,.11,0,.15,0a8.29,8.29,0,0,1,.49,1.75l-1.14.28Z"/><path class="cls-43" d="M182.47,102.44a17.68,17.68,0,0,0-1.8,1.19c-1.72,1.22-3.17.54-3.45,1.9a24.4,24.4,0,0,0-.35,3.28c-.11.72-.2,1.44-.27,2.15q10.2-.78,20.43-1.52a13.8,13.8,0,0,0-1-3.64c-.62-1.34-.64-2.42-1.8-3.06s-7.13-1.29-7.13-1.29c.5,1.2-3.34,2.4-4.67,1Z"/><path class="cls-61" d="M166.44,101.43l11.66-.73a2.23,2.23,0,0,1,2.27,1.67c.54,2.55,1.07,5.09,1.63,7.63a1.73,1.73,0,0,1,0,.55l-14.76,1.11c-.29-3.41-.56-6.81-.83-10.23Z"/><path class="cls-70" d="M181.88,103.21a4.8,4.8,0,0,0,6.42-1.1,2,2,0,0,0,.23.18,5.1,5.1,0,0,1-6.82,1.15,2.68,2.68,0,0,1,.17-.23Z"/><path class="cls-70" d="M191.65,105a15.86,15.86,0,0,0-.55,4.72l-.29,0a15.85,15.85,0,0,1,.55-4.79l.29,0Z"/><path class="cls-25" d="M183,92.71c.23,0,.44.23.47.55s-.15.58-.37.59-.42-.24-.46-.55.14-.58.36-.59Z"/><path class="cls-25" d="M179.2,92.91c.23,0,.44.23.47.55s-.14.58-.36.59-.44-.23-.47-.55.14-.58.36-.59Z"/><path class="cls-71" d="M178.2,92.48a1.37,1.37,0,0,1,1.92-.11.8.8,0,0,0-.15.18,1.1,1.1,0,0,0-1.58.07l-.19-.14Z"/><path class="cls-71" d="M182,92.27a1.38,1.38,0,0,1,1.92-.1,1.1,1.1,0,0,0-.14.18,1.13,1.13,0,0,0-1.59.07,1.39,1.39,0,0,1-.19-.15Z"/><path class="cls-27" d="M180.81,94s.06,1.41-.32,1.75c-.2.19.74.47.74.47a1,1,0,0,0-.07.21s-1.32-.4-.84-.85c.29-.27.25-1.57.25-1.57Z"/><path class="cls-7" d="M180.48,97.29l2.81-.72c.48-.12-.66,1.29-1.45,1.48s-1.36-.76-1.36-.76Z"/><path class="cls-43" d="M187.5,91.28a2.23,2.23,0,0,1,2.12,2.21,2.1,2.1,0,0,1-1.73,2.44,2.26,2.26,0,0,1-2.12-2.24,2.07,2.07,0,0,1,1.73-2.41Z"/><path class="cls-72" d="M188,91.42a1.66,1.66,0,0,1,1.58,1.64,1.56,1.56,0,0,1-1.31,1.81,1.64,1.64,0,0,1-1.56-1.64A1.55,1.55,0,0,1,188,91.42Z"/><path class="cls-43" d="M188.41,91.84a1.24,1.24,0,0,1,1.19,1.22,1.18,1.18,0,0,1-1,1.37,1.25,1.25,0,0,1-1.17-1.24,1.15,1.15,0,0,1,1-1.35Z"/><path class="cls-7" d="M170.7,105.21a1.32,1.32,0,1,1-1.27,1.41,1.33,1.33,0,0,1,1.27-1.41Z"/><path class="cls-7" d="M183,92.93c.08,0,.14,0,.15.1a.13.13,0,0,1-.12.14.12.12,0,0,1-.13-.12.1.1,0,0,1,.1-.12Z"/><path class="cls-7" d="M179.23,93.13a.12.12,0,0,1,.13.11.12.12,0,0,1-.12.13.12.12,0,0,1-.13-.11.12.12,0,0,1,.12-.13Z"/><path class="cls-44" d="M83.09,107.23s-5.21,2.74-5.7,3.88-.6,4-.72,6.18c7.58-.36,15.15-.73,22.75-1.12a35,35,0,0,0-1.44-6c-.73-1.39-6.78-4-7.42-3.29s-2.58,2.84-3.85,4.26l-3.62-4Z"/><path class="cls-46" d="M80.42,95.85A2.25,2.25,0,0,0,80.06,98c.22,1.13,1,1.84,1.33,1.66s-1-3.78-1-3.78Z"/><path class="cls-46" d="M92,95.51a2.47,2.47,0,0,1,.72,2.07c0,1.13-.67,1.88-1,1.72s.31-3.79.31-3.79Z"/><path class="cls-24" d="M79.46,91.73a12.62,12.62,0,0,0,.16,2.86c.26,1.06-.46,3.42,1.36,3.35s9.07-.37,10.88-.46,1.16-3,.74-6.08a4.42,4.42,0,0,0-3.14-3.76,7.78,7.78,0,0,0-6.15-.86c-3.27,1-3.85,5-3.85,5Z"/><path class="cls-63" d="M89.2,102.18c.13.94.28,1.88.42,2.82s.27,1.87.42,2.81l-2.6,2.88-2.85-2.92c0-1.8,0-3.61.08-5.43,0,0,3.27.78,4.53-.16Z"/><path class="cls-53" d="M89.2,102.18c.09.7.2,1.41.32,2.1a6.07,6.07,0,0,1-4.89.18c0-.7,0-1.4,0-2.12,0,0,3.27.78,4.53-.16Z"/><path class="cls-63" d="M89.61,90.31a14,14,0,0,1,2.15,3.4c.52,1.5,0,7.16-1.14,8.45a5.84,5.84,0,0,1-7.43.26c-2.8-2.14-2.44-7.81-2.43-8.39s2.29-3.75,2.28-3.35a2.68,2.68,0,0,1-.57,1.09,6.44,6.44,0,0,0,1.3-.89c.75-.63,1-.82.86-.63s-1.13,1.37-1,1.42a5.09,5.09,0,0,0,1.64-.88c.6-.44,1.74-1.42,1.74-1.42s.73,2.14,1.08,1.79S88,89.63,88,89.63a11.27,11.27,0,0,0,1.57,1.47c.43.21,0-.79,0-.79Z"/><path class="cls-47" d="M87.63,93.44A1.65,1.65,0,0,1,90,93.37a2.4,2.4,0,0,0-.16.27,1.37,1.37,0,0,0-2,0,1.26,1.26,0,0,1-.22-.24Z"/><path class="cls-47" d="M82.19,93.6a1.65,1.65,0,0,1,2.33-.08l-.16.26a1.38,1.38,0,0,0-2,0,2.34,2.34,0,0,1-.22-.23Z"/><path class="cls-42" d="M83.61,94.3c.24,0,.44.31.48.71s-.12.74-.36.74-.44-.31-.48-.71.13-.74.36-.74Z"/><path class="cls-42" d="M88.5,94.16c.24,0,.44.31.48.71s-.12.74-.36.74-.44-.31-.48-.72.13-.72.36-.73Z"/><path class="cls-27" d="M85.2,97a1.61,1.61,0,0,0,2.13-.09,1.43,1.43,0,0,0,.22.26,1.92,1.92,0,0,1-2.54.06L85.2,97Z"/><path class="cls-27" d="M84.53,99.34a5.3,5.3,0,0,0,4.69-.12l.18.28a5.69,5.69,0,0,1-5,.16,2.33,2.33,0,0,1,.1-.32Z"/><path class="cls-73" d="M89.08,109.19c-.51.66-1,1.31-1.51,2,.16,1.43.32,2.86.49,4.29l-1.46.07c-.12-1.44-.25-2.86-.37-4.3.48-.86,1-1.71,1.45-2.56.46.18.93.37,1.4.54Z"/><path class="cls-74" d="M85.64,108.2,87,109.92c-.25.43-.49.87-.73,1.29-.51-.72-1-1.43-1.54-2.16.31-.29.63-.57,1-.85Z"/><path class="cls-75" d="M79.32,114c-.08,1.06-.16,2.1-.22,3.13l-.31,0c.07-1,.15-2.12.23-3.18a1.6,1.6,0,0,1,.3,0Z"/><path class="cls-75" d="M95.7,113.28c.24,1,.51,2,.77,3h.31c-.27-1-.53-2-.79-3.09a2.47,2.47,0,0,0-.29.06Z"/><path class="cls-43" d="M79.2,115.7Q87.59,115,96,114.35c.18.66.35,1.32.52,2q-8.68.45-17.37.85c0-.49.06-1,.1-1.47Z"/><path class="cls-76" d="M89.62,105c.35,2.37-2.08,3.55-1.94,3.65,1.07.79,2.16,1.57,3.25,2.35.4-3.59,1.4-4.06-1.31-6Z"/><path class="cls-76" d="M84.61,105.4s-.24.28-.13,1.18,1.61,1.18,1.16,1.62l-2.71,2.68c-.44.45-.21-2.51-.3-3.62s2-2.21,2-1.86Z"/><path class="cls-7" d="M83.57,94.62a.13.13,0,0,1,.14.12.12.12,0,0,1-.12.13.14.14,0,0,1-.14-.12.13.13,0,0,1,.12-.13Z"/><path class="cls-7" d="M88.54,94.47a.14.14,0,1,1-.12.14.15.15,0,0,1,.12-.14Z"/><path class="cls-63" d="M80.47,106.44a9.43,9.43,0,0,0,.75-3.87c-.1-1.17.43-2.33-.2-2.41s-.88.33-1,.8,0,1.22-.12,1.65,0,.66-.17.42a15.67,15.67,0,0,1-.94-2.81,25.11,25.11,0,0,0-.64-3.16.44.44,0,0,0-.82.16c-.1.5.48,3.94.36,4a21.29,21.29,0,0,1-.83-3c-.13-.45-.21-1.4-.81-1.38s-.22,1.53-.14,1.91a25.26,25.26,0,0,1,.64,2.85c-.06.18-.22.21-.29,0s-1.14-2.54-1.29-3-.39-1-.76-.85-.39.44-.16,1.15,1.39,3.63,1.45,3.85a.27.27,0,0,1-.22.37,7.47,7.47,0,0,1-1.44-.93,8,8,0,0,0-1-1c-.24-.11-.66-.06-.62.32a8.9,8.9,0,0,0,1.59,2.07,13.44,13.44,0,0,0,1.12,1,21.07,21.07,0,0,0,1.8,2.7c.25.09-1,10-1,10l3.72-.18c.31-2,.47-9.42,1-10.71Z"/></g></g></svg>