<svg xmlns="http://www.w3.org/2000/svg" viewBox="0 0 71.56 56"><defs><style>.cls-1{fill:#fa5;}</style></defs><g id="Layer_2" data-name="Layer 2"><g id="Option_1" data-name="Option 1"><path class="cls-1" d="M24.16,32.1a9.61,9.61,0,1,0-9.61-9.61A9.63,9.63,0,0,0,24.16,32.1Zm0-16.53a6.92,6.92,0,1,1-6.92,6.92A6.93,6.93,0,0,1,24.16,15.57Z"/><path class="cls-1" d="M70.4,39.64H67.33V2.32H70.4A1.16,1.16,0,0,0,70.4,0H1.16a1.16,1.16,0,0,0,0,2.32H4.23V39.64H1.16a1.16,1.16,0,1,0,0,2.32H11.73a13.56,13.56,0,0,0-1.21,5.62v7.18A1.25,1.25,0,0,0,11.76,56H36.55a1.24,1.24,0,0,0,1.24-1.24V47.58A13.56,13.56,0,0,0,36.58,42H70.4a1.16,1.16,0,1,0,0-2.32ZM35.31,53.52H13V47.58a11.15,11.15,0,0,1,18.49-8.39,1.87,1.87,0,0,0,.29.34,1.4,1.4,0,0,0,.26.16,11.14,11.14,0,0,1,3.27,7.89ZM65,39.64H35.23a12.21,12.21,0,0,0-.84-1.06l12.3-14.75a1.39,1.39,0,1,0-2.14-1.78L32.34,36.68a13.63,13.63,0,0,0-19.26,3H8.61v0l-.18,0H6.55V2.32H65Z"/><path class="cls-1" d="M37.62,10.7H58.09a1.32,1.32,0,0,0,0-2.63H37.62a1.32,1.32,0,0,0,0,2.63Z"/><path class="cls-1" d="M58.09,15.08H48.66a1.32,1.32,0,0,0,0,2.63h9.43a1.32,1.32,0,0,0,0-2.63Z"/></g></g></svg>