<svg xmlns="http://www.w3.org/2000/svg" viewBox="0 0 222.7 182.71"><defs><style>.cls-1{isolation:isolate;}.cls-2{opacity:0.25;}.cls-3{fill:#4ec0c4;}.cls-4{fill:#eaeaea;mix-blend-mode:multiply;}.cls-5{fill:#fa5;}.cls-6{fill:#fff;}.cls-7{fill:#e8c7cd;}.cls-12,.cls-13,.cls-16,.cls-17,.cls-19,.cls-22,.cls-24,.cls-26,.cls-27,.cls-28,.cls-8{fill:none;}.cls-8{stroke:#d3b1b9;}.cls-16,.cls-17,.cls-22,.cls-24,.cls-27,.cls-8{stroke-miterlimit:10;}.cls-16,.cls-8{stroke-width:0.84px;}.cls-9{fill:#ffd371;}.cls-10{fill:#c06057;}.cls-11{fill:#0b181b;}.cls-12,.cls-13,.cls-28{stroke:#312220;}.cls-12,.cls-13,.cls-19,.cls-26,.cls-28{stroke-linecap:round;stroke-linejoin:round;}.cls-12{stroke-width:0.58px;}.cls-13{stroke-width:0.52px;}.cls-14{fill:#3aafaf;}.cls-15{fill:#46c7ce;}.cls-16{stroke:#54382d;}.cls-17{stroke:#54382f;stroke-width:1.15px;}.cls-18{fill:#54382f;}.cls-19,.cls-27{stroke:#fff;}.cls-19{stroke-width:0.98px;}.cls-20{fill:#f6afa4;}.cls-21{fill:#fc9086;}.cls-22{stroke:#fc6d67;stroke-width:1.02px;}.cls-23{fill:#fdc0b3;}.cls-24{stroke:#e1e1e1;stroke-width:0.76px;}.cls-25{fill:#ee988b;}.cls-26{stroke:#0b181b;stroke-width:0.53px;}.cls-27{stroke-width:0.49px;}.cls-28{stroke-width:0.56px;}</style></defs><g class="cls-1"><g id="Layer_2" data-name="Layer 2"><g id="Option_1" data-name="Option 1"><g class="cls-2"><path class="cls-3" d="M216.51,59.87c5.79,10.44,9.3,24.2,2.33,33.88-4.13,5.74-11.23,8.87-14.82,15-4.61,7.85-2,17.92,1.58,26.31s8.06,17.08,6.82,26.13c-1.64,11.89-13.38,20.43-25.17,21.42s-23.32-4.1-33.21-10.7-19.22-14.95-30.87-16.63c-9.92-1.43-19.86,2.34-28.79,7S76.84,172.39,67.16,175c-18.58,5-39.82-2.44-51.33-18.05s-12.57-38.39-2.56-55c3.46-5.75,8.22-12.84,4.57-18.47-3.28-5.06-11.11-4.65-15.24-9-4.72-5-2.25-13.33,1.31-19.25A73.3,73.3,0,0,1,33.13,27.84s99.75-57.23,153.08-7.59C208.7,41.18,216.51,59.87,216.51,59.87Z"/></g><ellipse class="cls-4" cx="110.2" cy="151.7" rx="102.5" ry="5.47"/><path class="cls-5" d="M162.83,117.36H140.28A2.39,2.39,0,0,1,137.9,115h0a2.39,2.39,0,0,1,2.38-2.38h22.55a2.38,2.38,0,0,1,2.38,2.38h0A2.38,2.38,0,0,1,162.83,117.36Z"/><path class="cls-5" d="M178.35,117.36H151.74a2.76,2.76,0,0,1-2.61-3.55L161.84,70a2.73,2.73,0,0,1,2.61-2h26.61a2.76,2.76,0,0,1,2.61,3.55L181,115.38A2.73,2.73,0,0,1,178.35,117.36Z"/><path class="cls-6" d="M174.69,117.36H151.51a2.76,2.76,0,0,1-2.61-3.55L161.61,70a2.73,2.73,0,0,1,2.61-2H187.4a2.75,2.75,0,0,1,2.6,3.55l-12.7,43.81A2.75,2.75,0,0,1,174.69,117.36Z"/><path class="cls-5" d="M178.34,117.36H150.18A2.38,2.38,0,0,1,147.8,115h0a2.38,2.38,0,0,1,2.38-2.38h28.16a2.38,2.38,0,0,1,2.38,2.38h0A2.38,2.38,0,0,1,178.34,117.36Z"/><path class="cls-7" d="M144.66,65.94a114,114,0,0,0-10.74,18.87,3.73,3.73,0,0,0,.3,3.52h0c1.55,2.36,5.59,1.81,7.15-.37,0,0,11.9-16.48,11.39-17.15C152.64,70.65,144.66,65.94,144.66,65.94Z"/><path class="cls-7" d="M137.29,81.81,121.7,75.54l-1.35,8.16,15.7,6a3.1,3.1,0,0,0,1.78.15,4.06,4.06,0,0,0,3.09-4.65h0A4,4,0,0,0,137.29,81.81Z"/><path class="cls-7" d="M156.82,63.94,146,65.33a2,2,0,0,0-1.78,2.23l7,30.26,23.17-.06-3.28-30.1a2.06,2.06,0,0,0-1.81-2.28Z"/><path class="cls-8" d="M147.3,80.14c0-.36-1.93-7.72-1.93-7.72"/><path class="cls-9" d="M152.73,94.17H134.06V92.06h18.67a1.05,1.05,0,0,1,1.05,1.06h0A1,1,0,0,1,152.73,94.17Z"/><path class="cls-9" d="M136.52,94.17H109.71a3.17,3.17,0,0,1-3-2.32l-4.83-17.33a2.4,2.4,0,0,1,2.32-3h24.78A2.09,2.09,0,0,1,131,73Z"/><path class="cls-5" d="M120.42,83.79a2.34,2.34,0,1,1-2.34-2.34A2.34,2.34,0,0,1,120.42,83.79Z"/><path class="cls-7" d="M161.89,71.21a193.9,193.9,0,0,0,12.52,21,4.76,4.76,0,0,0,3.79,1.52h0c2.91-.13,4.14-3.26,3-5.8,0,0-9.3-21.5-10.59-21.86C170.45,66.06,161.89,71.21,161.89,71.21Z"/><polygon class="cls-10" points="155.17 89.6 160.23 89.21 160.07 94.27 155.69 94.27 155.17 89.6"/><path class="cls-10" d="M155.54,89.6s-11.6-4.47-10.31,4.66h11.14Z"/><path class="cls-7" d="M177,85.93l-18.18.55.35,8.14,18.9-.4a4.18,4.18,0,0,0,3.33-5.68h0A4.19,4.19,0,0,0,177,85.93Z"/><polyline class="cls-8" points="165.4 75.71 170.21 86.13 158.77 86.48 158.76 89.21"/><line class="cls-8" x1="170.21" y1="86.13" x2="172.75" y2="87.38"/><path class="cls-11" d="M149.37,51.8a2.35,2.35,0,0,1-1.91,2.69,2.37,2.37,0,1,1,1.91-2.69Z"/><path class="cls-10" d="M152.59,58.1l.53,6.33a3.11,3.11,0,0,0,3.73,3.09h0c1.81-.17,3.72-1.22,3.48-3.17L159,54.43Z"/><path class="cls-10" d="M154.1,60.09h0c-3.61.32-6.85-2.37-7.21-5.41l-.73-6.37a7,7,0,0,1,5.77-7.86h0c3.76-.59,7.94,2,8.53,5.86l.51,5A8,8,0,0,1,154.1,60.09Z"/><polyline class="cls-12" points="150.46 52.31 150.44 53.73 151.34 53.69"/><path class="cls-11" d="M154.1,48.47s-1.5,0-1.46.62c0,0,0,.42,1.34.4s1.62-.15,1.71-.56S154.79,48.42,154.1,48.47Z"/><path class="cls-11" d="M148,48.81s1.21-.23,1.36.34c0,0,.09.39-1,.57s-1.43.07-1.55-.24S147.44,48.87,148,48.81Z"/><path class="cls-12" d="M152.83,51.28a1.59,1.59,0,0,1,1.92,0"/><path class="cls-12" d="M149.22,51.59s-.68-.7-1.62.15"/><path class="cls-11" d="M156.81,43.15s-1.7,2.19,1.68,4.83c0,0-.57,5.47-1.31,6.86,0,0-6.85-1.4-10.06.84,0,0,.11,4.78,5.74,5,7.49.3,8.28-7.31,8.28-7.31l-1.57-3.68,2.56.34s5.19-7.84-2.91-7.84Z"/><path class="cls-10" d="M163.73,50.68a2.34,2.34,0,0,1-1.91,2.69,2.36,2.36,0,1,1,1.91-2.69Z"/><path class="cls-13" d="M160.78,51.72s-.26-1.7,1.35-1.68"/><path class="cls-11" d="M157.15,43.49a93.91,93.91,0,0,1-10.05.08s-3.73-1.4-2.18-3.66c1.22-1.79,4.19-.33,4.19-.33s-.05-1.85,1.25-2.35c1.55-.6,6.11-1.09,10,5.09Z"/><path class="cls-10" d="M153.06,64.42l-2,.26s-.89,3.34,3.75,3.68c4.83.35,6.73-1.44,7.67-3.83l-5.32-1Z"/><rect class="cls-10" x="134.2" y="134.54" width="6.82" height="9.22" transform="translate(275.81 277.71) rotate(179.76)"/><path class="cls-14" d="M156.53,97.76l.48,2.94a10.33,10.33,0,0,1-10.19,12h-3v25.94l-12.65.17L130.41,107a9,9,0,0,1,9-9.21Z"/><path class="cls-11" d="M141.09,142.43c-1.6.43-5.28,1.57-7-.91l-11.52,6.25,20.34-.14L142,143A.75.75,0,0,0,141.09,142.43Z"/><rect class="cls-6" x="122.59" y="147.7" width="20.34" height="1.76" transform="translate(266.5 296.29) rotate(179.62)"/><path class="cls-6" d="M134.23,144.25a.32.32,0,0,1-.13-.1,6.57,6.57,0,0,0-1.51-1.54.33.33,0,0,1-.08-.45.32.32,0,0,1,.44-.09,7.57,7.57,0,0,1,1.67,1.7.33.33,0,0,1-.07.45A.31.31,0,0,1,134.23,144.25Z"/><path class="cls-6" d="M132.66,145.08a.28.28,0,0,1-.13-.11,7.5,7.5,0,0,0-1.5-1.54.31.31,0,0,1-.09-.44.31.31,0,0,1,.44-.09,7.16,7.16,0,0,1,1.67,1.69.33.33,0,0,1-.07.45A.34.34,0,0,1,132.66,145.08Z"/><path class="cls-6" d="M131.1,145.9a.36.36,0,0,1-.14-.1,6.43,6.43,0,0,0-1.5-1.54.32.32,0,0,1-.09-.45.33.33,0,0,1,.45-.09,7.66,7.66,0,0,1,1.66,1.7.31.31,0,0,1-.07.45A.29.29,0,0,1,131.1,145.9Z"/><rect class="cls-10" x="152.06" y="134.54" width="6.82" height="9.22" transform="translate(311.53 277.64) rotate(179.76)"/><path class="cls-11" d="M158.85,142.05c-1.61.42-5.24,1.83-6.95-.64l-11.52,6.24,20.34-.14-.95-4.85A.73.73,0,0,0,158.85,142.05Z"/><rect class="cls-6" x="140.39" y="147.58" width="20.34" height="1.76" transform="translate(302.09 295.93) rotate(179.62)"/><path class="cls-6" d="M152,144.13a.31.31,0,0,1-.13-.1,6.43,6.43,0,0,0-1.5-1.54.32.32,0,0,1-.09-.45.34.34,0,0,1,.45-.09,7.66,7.66,0,0,1,1.66,1.7.32.32,0,0,1-.07.45A.31.31,0,0,1,152,144.13Z"/><path class="cls-6" d="M150.46,145a.36.36,0,0,1-.14-.11,7,7,0,0,0-1.5-1.54.32.32,0,1,1,.36-.53,7.38,7.38,0,0,1,1.67,1.69.32.32,0,0,1-.08.45A.32.32,0,0,1,150.46,145Z"/><path class="cls-6" d="M148.89,145.78a.26.26,0,0,1-.13-.1,6.9,6.9,0,0,0-1.5-1.54.32.32,0,0,1-.09-.45.33.33,0,0,1,.44-.09,7.34,7.34,0,0,1,1.67,1.7.33.33,0,0,1-.07.45A.31.31,0,0,1,148.89,145.78Z"/><path class="cls-15" d="M174.39,97.76l.48,2.94a10.33,10.33,0,0,1-10.19,12h-3.05v25.94l-12.65.17L148.27,107a9,9,0,0,1,9-9.21Z"/><path class="cls-16" d="M148.15,112.6v-6.06a9,9,0,0,1,8.91-9h2.25"/><polyline class="cls-17" points="119.02 150.1 100.86 96.14 86.25 149.44"/><polyline class="cls-17" points="195.36 150.1 177.2 96.14 162.58 149.44"/><rect class="cls-18" x="74.29" y="94.18" width="129.02" height="3.66"/><rect class="cls-5" x="92.82" y="33.27" width="33.6" height="13.25" rx="2.09" transform="translate(219.23 79.79) rotate(180)"/><line class="cls-19" x1="120.5" y1="38.35" x2="98.17" y2="38.35"/><line class="cls-19" x1="105.89" y1="41.87" x2="98.25" y2="41.87"/><polygon class="cls-5" points="121.7 44.76 121.7 50.75 114.06 44.76 121.7 44.76"/><polygon class="cls-20" points="69 54.92 73.69 73.45 82.86 89.31 79.69 91.98 66.7 75.71 61.51 60.71 69 54.92"/><path class="cls-20" d="M82.86,89.31,91,91.71c.78.23,1.51.54,1.74,1.3a1.59,1.59,0,0,1-.12,1.15v0a1.66,1.66,0,0,1-1.83.92L84,94.21,85,96a.9.9,0,0,1,0,1h0a.9.9,0,0,1-1.22.22l-2.39-1.59a3,3,0,0,1-1.28-1.85L79.7,92l1-2.67Z"/><polygon class="cls-21" points="69.82 51.61 72.97 62.99 63.03 67.53 66.15 58.25 69.82 51.61"/><path class="cls-21" d="M57.74,46.05s-9.55-3.52-15.09,6.56-10,32-10,32l24.7,2.07,9.68-28.23c1.21-2.6,4.25-6,2.1-7.88A11.18,11.18,0,0,0,65,48.3Z"/><line class="cls-22" x1="64.09" y1="67.05" x2="66.89" y2="58.87"/><path class="cls-23" d="M62,71.42l-10-21.24-7.8,11.47,11,15a5,5,0,0,0,4.27,2l20.91-.94L83,74.15Z"/><path class="cls-23" d="M83,74.15l9.06.53,3.7,1.24a.83.83,0,0,1,.53,1h0a.81.81,0,0,1-1,.56l-3.65-1-2.57-.21,1.1,1a3.66,3.66,0,0,1,1.09,1.79l.15.59a1.57,1.57,0,0,1-1.09,1.91l-1.79.5a1.57,1.57,0,0,1-1.89-.92l-.56-1.36-1.73-.87A5.24,5.24,0,0,1,79.7,77.8c-1.9-1.6.22-2.07.42-2.16Z"/><polygon class="cls-21" points="52.92 48.61 61.51 63.33 48.15 72.81 41.32 58.21 52.92 48.61"/><polyline class="cls-22" points="44.42 65.45 48.47 72.58 50.84 70.87"/><line class="cls-22" x1="58.85" y1="65.22" x2="53.36" y2="54.92"/><polygon class="cls-23" points="71.75 143.54 70.92 127.17 63.54 128.45 65.59 145.36 71.93 144.15 71.75 143.54"/><path d="M64.67,142.12s5.27,2.18,7.75-1.35l12.79,6.68L63,147.5Z"/><polygon class="cls-6" points="85.2 149.37 63.02 149.41 63.03 147.5 85.21 147.45 85.2 149.37"/><path class="cls-6" d="M72.28,143.74a.44.44,0,0,0,.15-.12,7.55,7.55,0,0,1,1.67-1.69.36.36,0,0,0,.1-.49.37.37,0,0,0-.5-.09,8.55,8.55,0,0,0-1.85,1.86.35.35,0,0,0,.08.49A.4.4,0,0,0,72.28,143.74Z"/><path class="cls-6" d="M74,144.62a.44.44,0,0,0,.15-.12,7.83,7.83,0,0,1,1.67-1.69.34.34,0,0,0,.1-.48.38.38,0,0,0-.5-.1,8.55,8.55,0,0,0-1.85,1.86.35.35,0,0,0,.08.49A.34.34,0,0,0,74,144.62Z"/><path class="cls-6" d="M75.76,145.5a.29.29,0,0,0,.15-.12,7.35,7.35,0,0,1,1.67-1.68.36.36,0,0,0,.1-.49.36.36,0,0,0-.5-.09A8,8,0,0,0,75.33,145a.35.35,0,0,0,.08.49A.37.37,0,0,0,75.76,145.5Z"/><path class="cls-6" d="M57.37,86.64l13.77,20.5c1.45,2.54,1.35,3.41,1.54,6.33l1.44,24.74L62,139l-3-24.56-15-24.22-.75-4.85Z"/><polygon class="cls-23" points="38.49 144.65 42.82 127.73 35.45 129.01 32.17 144.65 38.19 145.36 38.49 144.65"/><path d="M31.88,142.12s5.27,2.18,7.75-1.35l12.79,6.68-22.18.05Z"/><polygon class="cls-6" points="52.41 149.37 30.23 149.41 30.24 147.5 52.42 147.45 52.41 149.37"/><path class="cls-6" d="M39.49,143.74a.44.44,0,0,0,.15-.12,7.55,7.55,0,0,1,1.67-1.69.36.36,0,0,0,.1-.49.37.37,0,0,0-.5-.09,8.31,8.31,0,0,0-1.85,1.86.34.34,0,0,0,.08.49A.4.4,0,0,0,39.49,143.74Z"/><path class="cls-6" d="M41.23,144.62a.44.44,0,0,0,.15-.12,7.83,7.83,0,0,1,1.67-1.69.34.34,0,0,0,.1-.48.38.38,0,0,0-.5-.1,8.31,8.31,0,0,0-1.85,1.86.35.35,0,0,0,.43.53Z"/><path class="cls-6" d="M43,145.5a.29.29,0,0,0,.15-.12,7.35,7.35,0,0,1,1.67-1.68.36.36,0,0,0,.1-.49.36.36,0,0,0-.5-.09A7.8,7.8,0,0,0,42.54,145a.34.34,0,0,0,.08.49A.36.36,0,0,0,43,145.5Z"/><polyline class="cls-24" points="50.96 100.84 50.94 97.95 54.92 93.32"/><path class="cls-6" d="M33.37,84.63s-3.25,6.91.86,16.34c.15.36.31.68.47,1l1.67,14.32-5.73,23.11,12.63.15,6.81-20.34a15.5,15.5,0,0,0,.49-3.11L50.4,89.85l3-3.56Z"/><path class="cls-11" d="M74.59,31.26s2.73,5.7-2.06,5.52Z"/><path class="cls-25" d="M69.25,38.18a2.54,2.54,0,0,0,1.3,3.34,2.51,2.51,0,0,0,3.28-1.4,2.49,2.49,0,1,0-4.58-1.94Z"/><path class="cls-23" d="M66,43.48l-2,5.81a3,3,0,0,1-4.22,2h0c-1.65-.58-3.2-2-2.51-3.78l3.55-9Z"/><path class="cls-11" d="M64.72,47.34s-4.87-1.22-4.51-7c.11-1.84,6,2.59,6,2.59Z"/><path class="cls-23" d="M63.71,44.57h0a6.47,6.47,0,0,0,8-3.38l2.18-5.79a6.8,6.8,0,0,0-3.56-8.72h0c-3.39-1.44-7.91,0-9.37,3.49L59.34,34.7A7.71,7.71,0,0,0,63.71,44.57Z"/><polyline class="cls-26" points="68.92 38.23 68.63 39.47 67.8 39.22"/><path class="cls-11" d="M67.22,32.26s1.4.35,1.21.92c0,0-.13.39-1.34.06s-1.49-.52-1.47-.92S66.58,32.05,67.22,32.26Z"/><path class="cls-11" d="M72.69,34.41s-1.08-.5-1.36,0c0,0-.18.34.78.76s1.32.39,1.51.13S73.22,34.6,72.69,34.41Z"/><path class="cls-11" d="M70.44,37.53a.6.6,0,1,0,1.13.43.61.61,0,0,0-.35-.79A.6.6,0,0,0,70.44,37.53Z"/><path class="cls-11" d="M65.5,35.66a.6.6,0,1,0,.78-.37A.61.61,0,0,0,65.5,35.66Z"/><path class="cls-27" d="M69.59,37.2a2.84,2.84,0,1,0,3.67-1.62A2.84,2.84,0,0,0,69.59,37.2Z"/><path class="cls-27" d="M65,33.27a2.84,2.84,0,1,0,3.75,1.45A2.84,2.84,0,0,0,65,33.27Z"/><line class="cls-27" x1="63.5" y1="34.85" x2="61.01" y2="33.88"/><line class="cls-27" x1="68.58" y1="37.41" x2="69.38" y2="37.71"/><path class="cls-26" d="M65.46,39.85s.61,1.21,2.9,1.21"/><path class="cls-11" d="M59.34,26.11a2.83,2.83,0,0,1,3.71-1.51h0a7.53,7.53,0,0,1,7.48-.84c3.88,1.56,6.64,5,6.51,7.32s-3.14,1.12-3.14,1.12a69.17,69.17,0,0,1-8-2.85c-.36,1.59-1.36,4-4.1,3.11l-2.25,4.4S57.56,29.45,59.34,26.11Z"/><path class="cls-23" d="M56.33,33.54a2.47,2.47,0,1,0,3.25-1.38A2.52,2.52,0,0,0,56.33,33.54Z"/><path class="cls-28" d="M59.14,35.39s.71-1.7-1-2.1"/><path class="cls-23" d="M55.79,45.56l6,1.4,4.12,1.65S64.71,52.66,61,52C54.17,50.75,55.79,45.56,55.79,45.56Z"/></g></g></g></svg>