<svg xmlns="http://www.w3.org/2000/svg" viewBox="0 0 317.44 218.71"><defs><style>.cls-1{opacity:0.3;}.cls-2{fill:#ffd371;}.cls-3{fill:#cbcbcb;}.cls-11,.cls-12,.cls-13,.cls-14,.cls-15,.cls-16,.cls-18,.cls-19,.cls-21,.cls-22,.cls-23,.cls-24,.cls-25,.cls-26,.cls-28,.cls-29,.cls-3,.cls-30,.cls-31,.cls-32,.cls-33,.cls-34,.cls-35,.cls-36,.cls-37,.cls-38,.cls-4,.cls-41,.cls-42,.cls-45,.cls-46,.cls-47,.cls-48,.cls-49,.cls-5,.cls-50,.cls-51,.cls-52,.cls-53,.cls-54,.cls-55,.cls-58,.cls-59,.cls-6,.cls-60,.cls-64,.cls-65,.cls-66,.cls-68,.cls-69,.cls-7,.cls-70,.cls-8,.cls-9{fill-rule:evenodd;}.cls-4{fill:#301e49;}.cls-5{fill:#3b3678;}.cls-6{fill:#ae4432;}.cls-7{fill:#5e281e;}.cls-8{fill:#bcbcbc;}.cls-9{fill:#fa5;}.cls-10{fill:#fc9727;}.cls-11{fill:#c6c7fc;}.cls-12{fill:#e9eef2;}.cls-13{fill:#354a63;}.cls-14,.cls-63{fill:#3c150b;}.cls-15,.cls-44{fill:#db8f7b;}.cls-16{fill:#fcae98;}.cls-17,.cls-38{fill:#a46451;}.cls-18,.cls-20{fill:#fff;}.cls-19{fill:#377872;}.cls-21{fill:#d6dbf5;}.cls-22{fill:#1e62b9;}.cls-23{fill:#3677e4;}.cls-24{fill:#e6a498;}.cls-25{fill:#f7beb3;}.cls-26{fill:#4c3530;}.cls-27{fill:#b16d61;}.cls-28{fill:#b5beea;}.cls-29{fill:#8a94c9;}.cls-30{fill:#b0b2f7;}.cls-31{fill:#cecffc;}.cls-32{fill:#d8d9fd;}.cls-33{fill:#e4e4fd;}.cls-34,.cls-39{fill:#26364c;}.cls-35,.cls-61{fill:#fad27f;}.cls-36{fill:#fc7270;}.cls-37{fill:#c27d6a;}.cls-40,.cls-60{fill:#834837;}.cls-41,.cls-67{fill:#e94846;}.cls-42,.cls-43{fill:#29307d;}.cls-45,.cls-57{fill:#e85451;}.cls-46,.cls-56{fill:#cd8876;}.cls-47{fill:#9da7d8;}.cls-48{fill:#f3bc5b;}.cls-49{fill:#b77b24;}.cls-50{fill:#ce9334;}.cls-51{fill:#cf8a7f;}.cls-52{fill:#e5e5e5;}.cls-53{fill:#fcb9a4;}.cls-54{fill:#eaa18c;}.cls-55{fill:#314865;}.cls-58{fill:#718da9;}.cls-59{fill:#3c5677;}.cls-62,.cls-64{fill:#cf9d38;}.cls-65{fill:#eef0f1;}.cls-66{fill:#ceccca;}.cls-68{fill:#f4f4ff;}.cls-69{fill:#3980ec;}.cls-70{fill:#cc665a;}</style></defs><g id="Layer_2" data-name="Layer 2"><g id="Option_1" data-name="Option 1"><g class="cls-1"><path class="cls-2" d="M39.73,35.15C-16.67,78,29.15,107,29.15,107a56.13,56.13,0,0,1,19.56,25.62c7.78,20.71-9.1,45.38.6,65.3,7.13,14.66,26.1,20.19,42.81,19.16s32.83-6.93,49.52-8.31c20-1.67,39.81,3.18,59.51,6.68s40.58,5.6,59.41-1.28,34.67-25.2,32.06-44.5c-1.18-8.7-5.88-17.23-3.88-25.81,3.11-13.27,20.09-19,26.35-31.17,6.11-11.91-.85-25.6-7.68-37C279.7,29.2,227.89,9.77,185.48,2.21,185.48,2.21,102.81-12.74,39.73,35.15Z"/></g><path class="cls-3" d="M245.56,31.89H75.63a6.37,6.37,0,0,0-6.41,6.3V163.72a6.37,6.37,0,0,0,6.41,6.3H245.56a6.38,6.38,0,0,0,6.42-6.3V38.19a6.38,6.38,0,0,0-6.42-6.3Z"/><path class="cls-4" d="M245.56,33.68H75.63A4.57,4.57,0,0,0,71,38.19V163.72a4.57,4.57,0,0,0,4.59,4.51H245.56a4.57,4.57,0,0,0,4.59-4.51V38.19a4.57,4.57,0,0,0-4.59-4.51Z"/><polygon class="cls-5" points="87.36 46.88 229.07 46.88 229.07 155.03 87.36 155.03 87.36 46.88 87.36 46.88"/><path class="cls-6" d="M69.53,70.48c4.75-9,16.74-13.19,15.27-2.29s-9.09,19-9.89,27.7,1.75,17.2-3.53,27.57-14.1,12.61-16.64,17.07S51.4,151.4,51.4,151.4H18.13s9.62-18.48,10.42-28.33S32.3,88.8,35,83.42s5.61-5.26,5.61-5.26a32.18,32.18,0,0,1,11-7.35c6.67-2.62,18-9.31,18-9.31l0,9Z"/><path class="cls-7" d="M69.7,70.18c.25-.45.52-.9.81-1.33,0,.06-.35.53-.81,1.33Zm-.15-4.49v4.78a53.38,53.38,0,0,0-5.08,12,42.83,42.83,0,0,1-6.91,13.65s-3-11.24-.4-16.48,9.18-11.43,12.4-14Z"/><path class="cls-8" d="M236.57,97a3.94,3.94,0,1,0,4,3.94,4,4,0,0,0-4-3.94Z"/><path class="cls-3" d="M235.11,97.29a3.92,3.92,0,0,0,0,7.34,3.92,3.92,0,0,0,0-7.34Z"/><path class="cls-6" d="M252,70.62c-4.74-9-16.73-13.2-15.26-2.3s9.08,19,9.89,27.71-1.75,17.2,3.53,27.57,14.1,12.61,16.64,17.07,3.34,10.87,3.34,10.87h33.26s-9.61-18.49-10.42-28.33-3.74-34.27-6.41-39.66-5.61-5.25-5.61-5.25A32.15,32.15,0,0,0,270,71c-6.67-2.63-18-9.32-18-9.32l0,9Z"/><path class="cls-7" d="M251.79,70.32c-.25-.46-.52-.9-.81-1.33,0,.06.34.53.81,1.33Zm.15-4.49V70.6a53.79,53.79,0,0,1,5.08,12,42.81,42.81,0,0,0,6.91,13.66s2.19-10.58-.44-15.82-8.34-12.09-11.56-14.64Z"/><path class="cls-9" d="M14,151.4c10.87-5,27.49-3.86,41,0v53.84H0L14,151.4Z"/><path class="cls-9" d="M307.24,151.4c-8.93-7.55-26.57-5.55-41,0l-2.85,53.84h53.14l-9.33-53.84Z"/><path class="cls-10" d="M11.76,170.72c.08,0,26.94-4.05,39.24.79l-.78,1.91c-11.76-4.62-38.07-.67-38.15-.66l-.31-2Z"/><path class="cls-10" d="M268.48,170.72c.08,0,26.94-4.05,39.24.79l-.78,1.91c-11.76-4.62-38.07-.67-38.15-.66l-.31-2Z"/><polygon class="cls-11" points="157.41 78.39 124.17 78.39 124.17 48.51 157.41 48.51 157.41 78.39 157.41 78.39"/><path class="cls-12" d="M138,70.57s-.7-.41-4.12.51-5,1.85-5.84,3.82a14.41,14.41,0,0,0-.84,3.49h27.11a10,10,0,0,0-1.08-4.56c-1.57-2.47-9.35-3.35-9.35-3.35a6.78,6.78,0,0,1-5.88.09Z"/><polygon class="cls-13" points="147.75 70.48 150.38 71.38 150.38 78.39 147.75 78.39 147.75 70.48 147.75 70.48"/><path class="cls-14" d="M144.68,50.54s-1.14-1.61-4.51-1.33a6.46,6.46,0,0,0-6,4.53c-.89,2.38.21,6.27.8,7.22s11.7.51,11.7.51,1.32-1.12,2-5.47-3.29-5.89-4-5.46Z"/><path class="cls-15" d="M135.61,59.52s-.53-1-1.35-.65-.88,2,0,3,1.35.62,1.35.62V59.52Z"/><path class="cls-15" d="M146.23,59.52s.53-1,1.35-.65.87,2,0,3-1.35.62-1.35.62V59.52Z"/><path class="cls-16" d="M141.81,64.44l1.25.14s-.65,3.89,0,4.75a8.68,8.68,0,0,0,2.47,1.77,10,10,0,0,1-4.91.89,7,7,0,0,1-4.14-1.38s1.8-.57,2.05-1.16-.08-4.48-.08-4.48l3.36-.53Z"/><path class="cls-15" d="M141.81,64.44l1.25.14a19.89,19.89,0,0,0-.27,3.73,6,6,0,0,1-4.16,0c0-1.35-.18-3.34-.18-3.34l3.36-.53Z"/><polygon class="cls-13" points="132.22 71.09 134.84 70.48 134.84 78.39 132.22 78.39 132.22 71.09 132.22 71.09"/><path class="cls-16" d="M135,57.14s-.26,5.76,1.33,7.82a5.78,5.78,0,0,0,7.53,1.16c2.79-1.59,3-5.71,3.09-6.68a19,19,0,0,0-.61-3.85,9.12,9.12,0,0,1-1.66-2.15,4.54,4.54,0,0,1-.21-.83s-1.07.58-1.94,1.15a2.72,2.72,0,0,0-1.08,1.13,1,1,0,0,1-.13-1.15l.4-.76a7.6,7.6,0,0,0-2.52,1.18,5.75,5.75,0,0,0-1.13,1.25s-.46-.11-.24-.76.41-1.16.41-1.16-1.8,1.85-2.33,2.6a5,5,0,0,1-.91,1Z"/><path class="cls-17" d="M138.71,62.78a3.79,3.79,0,0,0,4.08,0l.22.34a4.28,4.28,0,0,1-4.57,0l.27-.32Z"/><path class="cls-17" d="M140.94,59.43a3.54,3.54,0,0,1-.37,1.45l-.13.15c-.16.17-.29.32-.21.42s.77.16.77.16V62s-.82,0-1.11-.33-.06-.61.21-.92l.13-.14a3.43,3.43,0,0,0,.28-1.23l.43,0Z"/><path class="cls-14" d="M138.11,58a.8.8,0,1,1-.63.78.72.72,0,0,1,.63-.78Z"/><path class="cls-14" d="M143.13,58a.81.81,0,1,1-.62.78.72.72,0,0,1,.62-.78Z"/><path d="M136.7,57a2.06,2.06,0,0,1,2.61.11l-.32.26c-.84-.88-2,0-2,0L136.7,57Zm7.91,0s-1.52-1.06-2.61.11l.32.26c.83-.88,2,0,2,0l.26-.32Z"/><path class="cls-18" d="M137.88,58.3a.16.16,0,1,1-.18.16.17.17,0,0,1,.18-.16Z"/><path class="cls-18" d="M142.88,58.3a.16.16,0,1,1,0,.32.16.16,0,1,1,0-.32Z"/><polygon class="cls-19" points="192.27 140.96 124.17 140.96 124.17 79.58 192.27 79.58 192.27 140.96 192.27 140.96"/><path class="cls-20" d="M141.82,127.34c-.32-.07-.63-.12-.93-.21a4.82,4.82,0,0,1-3.7-3.77,3.61,3.61,0,0,1,1.08-3.26,5.62,5.62,0,0,1,3.7-1.69,11.83,11.83,0,0,1,1.19,0,2.66,2.66,0,0,0,.69,0,.72.72,0,0,1,.35,0c.31.09.62.18.91.29s.57.26.88.41l.17-.16a6.37,6.37,0,0,1,3.8-1.82,7.63,7.63,0,0,1,1.91,0,.89.89,0,0,0,.28,0,1.11,1.11,0,0,1,.6,0,6.18,6.18,0,0,1,2.56,1.24,3.79,3.79,0,0,1,1.45,2.69,4.24,4.24,0,0,1-1.58,3.57,5.5,5.5,0,0,1-1.52,1c-.16.07-.2.14-.19.29a5.07,5.07,0,0,1-1.62,4,6.22,6.22,0,0,1-3.46,1.74,5.75,5.75,0,0,1-5.8-2.27,4.79,4.79,0,0,1-.77-2.09Zm45.94-45.49c-.3.33-.71.35-.87.06.15-.09.27-.1.87-.06Zm2.4,7.86a.94.94,0,0,1,.8,0,1.12,1.12,0,0,1-.13.16.67.67,0,0,1-.5.07c-.12,0-.17-.11-.17-.25Zm-2,3.24a1.62,1.62,0,0,1,.87-.1.81.81,0,0,1-.71.37.21.21,0,0,1-.16-.27Zm-5.45-1.9a1.18,1.18,0,0,1-.78.11.25.25,0,0,1-.22-.22.89.89,0,0,1,1,.11Zm-.94.39a1.93,1.93,0,0,1,1.19,0,3.15,3.15,0,0,1-.9.29c-.18,0-.21,0-.29-.25Zm6.85-1.36a.82.82,0,0,1-.87.36.22.22,0,0,1-.2-.26,3.42,3.42,0,0,1,1.07-.1Zm-9.48-7.72a5.41,5.41,0,0,1,1.39.07c-.05,0-.07.09-.11.11a2.25,2.25,0,0,1-1,.11c-.17,0-.21-.07-.25-.29ZM177,91.26s-.06.08-.09.09a2,2,0,0,1-.76.2c-.27,0-.29,0-.39-.27a1.82,1.82,0,0,1,1.24,0Zm14.5,1.5c0,.13-.05.2-.14.25a1.23,1.23,0,0,1-.57.17c-.26,0-.3,0-.38-.26a1.71,1.71,0,0,1,1.09-.16ZM179.2,82.92a4.06,4.06,0,0,1,1.47,0c-.1,0-.14.09-.2.11a2.36,2.36,0,0,1-.88.14.37.37,0,0,1-.39-.3Zm3.89,14.62a1.89,1.89,0,0,1-1.06.25c-.17,0-.3-.07-.32-.27a5.17,5.17,0,0,1,1-.11c.1,0,.27,0,.34.13Zm5.35-12.28a.65.65,0,0,1-.53.31l-.42,0c-.21,0-.21,0-.31-.17a1.48,1.48,0,0,1,1.26-.18ZM183.3,98.12a3.1,3.1,0,0,1-1.28.24c-.14,0-.16-.1-.21-.19s.19-.11.29-.12a2.87,2.87,0,0,1,1.2.07Zm6.86-4.33c0,.12-.14.1-.22,0a1,1,0,0,1-.43-.63,1.07,1.07,0,0,1,.31-.93s.09,0,.19-.08c-.1.31-.29.56-.21.84a1.8,1.8,0,0,0,.36.75Zm-.08-4.91-.1.21a1.21,1.21,0,0,0,0,1l.24.58s0,.1,0,.1-.13,0-.15,0a2.22,2.22,0,0,1-.33-.49,1.45,1.45,0,0,1,.14-1.23.21.21,0,0,1,.26-.11Zm-12.67,9.9c-.19-.08-.18-.21-.21-.31s0-.14-.13-.18-.12-.13-.21-.22l.31-.14c0-.1,0-.22,0-.34s0-.17.22-.14c0,.15.06.32.09.5l.54,0c-.08.26-.35.32-.56.44,0,.13,0,.27-.07.44Zm12.15-16.71c-.18-.18-.18-.2,0-.31a2.06,2.06,0,0,1,.33-.17,1.94,1.94,0,0,1,.33-.07,1.67,1.67,0,0,1,0,1.32c-.33-.24-.26-.57-.29-.9l-.36.13Zm-3,9c-.23-.2-.24-.24-.27-.91L186,90a2.45,2.45,0,0,1,.33-.32.38.38,0,0,1,.26,0s.09.11.1.17c0,.25,0,.51.06.76a.61.61,0,0,1-.21.54ZM191,86.35a.65.65,0,0,1-.26-.55c0-.19,0-.39,0-.6-.1,0-.23.09-.29-.06s0-.19.26-.3.29-.07.35,0a.19.19,0,0,1,0,.13c0,.31.05.62.06.93a.68.68,0,0,1-.17.44Zm-6.2-1.14c.16-.09.24-.28.51-.19-.09.12-.18.22-.27.33.14.19.42.3.4.62l-.6-.34c-.25.12-.24.43-.5.57a.18.18,0,0,1-.08-.29c.09-.16.2-.32.31-.5l-.33-.34c.15-.09.15-.09.56.14Zm4.68-.25c-.12-.15-.41-.18-.36-.43.26-.09.4.12.62.17.23-.11.37-.37.76-.33l-.5.47.25.4c-.21.1-.32-.07-.48-.08l-.47.45c-.16-.3.1-.45.18-.65Zm-4.95-3.12c.17-.25.21-.52.48-.75a2.78,2.78,0,0,1-.18.65c-.06.21-.11.43-.18.64s-.15.41-.23.6c-.13,0-.15-.06-.14-.13a2.07,2.07,0,0,1,.07-.49.4.4,0,0,0,0-.34c-.1-.21-.19-.43-.28-.65,0,0,0,0,0-.06s0-.09,0-.13.14,0,.16.06c.11.19.21.38.32.6Zm-7.82,2.28c-.36-.28-.3-.63-.29-1l-.19,0a.17.17,0,0,1-.19-.1c0-.08,0-.12.06-.17l.33-.21c.23-.12.38,0,.39.17s0,.48.05.71a.6.6,0,0,1-.16.54Zm8.57-1.79c-.14,0-.25,0-.25-.12a.25.25,0,0,1,.13-.19.62.62,0,0,1,.26-.12.56.56,0,0,1,.29,0c.1,0,.07.16,0,.24s-.12.26-.19.4l.57.07a1.23,1.23,0,0,1-.6.41.31.31,0,0,1-.32-.08c-.09-.1-.19-.21-.11-.35s.11-.18.19-.3Zm3.37.66c-.14-.45.12-.82.25-1.21a1.75,1.75,0,0,1-.57-.61.18.18,0,0,1,.28,0,1,1,0,0,1,.2.22,1.81,1.81,0,0,1,.16.25c.21-.26.22-.62.6-.76a7.57,7.57,0,0,0-.52,1.37c-.08.22-.19.43-.29.64a.69.69,0,0,1-.11.13Zm-2.23,16.6a.59.59,0,0,1-.19,0,.45.45,0,0,1-.21-.12,1.8,1.8,0,0,1-.71-1.33,2.24,2.24,0,0,1,.17-1s0-.07,0-.09.09,0,.12,0,.07.06.06.09,0,.22-.06.33a2.33,2.33,0,0,0,.54,1.94c.06.08.15.15.24.25Zm.55-6.85c.46.07.59.22.36.64a1.38,1.38,0,0,1-.63.61c-.26-.16-.27-.24-.07-.41s.24-.22.35-.34.05-.08.08-.14c-.24,0-.49,0-.51-.27h-.11c-.08,0-.18,0-.2-.07s.06-.1.11-.14a1.12,1.12,0,0,1,.22-.1c.26-.09.36,0,.4.21Zm.42,5.79a.39.39,0,0,1,.11-.06c.46-.1.93-.21,1.4-.29a2,2,0,0,1,.55,0c.07,0,.19.06.19.11a.25.25,0,0,1-.1.2.72.72,0,0,1-.3.11l-1.31.19-.16,0c-.25,0-.3,0-.38-.26Zm3,.5a.45.45,0,0,1-.07-.18,3.43,3.43,0,0,1,.08-.56,2.85,2.85,0,0,1,.11-.39,1.31,1.31,0,0,0-.13-1.09c-.05-.08-.16-.18,0-.25s.2,0,.26.12a1.37,1.37,0,0,1,.3,1.07,2.61,2.61,0,0,1-.34,1.1c0,.06-.09.12-.13.19Zm1-9.61c-.17,0-.32,0-.36-.14s.05-.18.27-.26l.16,0c.29,0,.43.06.39.31a2,2,0,0,1-.11.32,2.78,2.78,0,0,1-.12.26h.29l.27,0a.47.47,0,0,1-.33.44.48.48,0,0,1-.49-.07c-.13-.14-.24-.29-.14-.48a2.88,2.88,0,0,0,.17-.35Zm-5.55-3.5-.21.09c-.16-.15-.18-.18,0-.29a1.36,1.36,0,0,1,.4-.2c.25-.06.4.08.32.29s-.16.35-.25.53l-.09.22.54.06a.56.56,0,0,1-.67.42.4.4,0,0,1-.28-.46,4.08,4.08,0,0,1,.19-.42l.12-.22,0,0Zm-7.75,5.29c.17-.25.23-.53.51-.74,0,.07,0,.11,0,.14a6,6,0,0,0-.48,1.63c-.07.31-.16.61-.24.91a1.17,1.17,0,0,1-.1.15c0-.11,0-.16-.06-.22a3.28,3.28,0,0,1,.2-1.27.41.41,0,0,0,0-.36c-.11-.23-.2-.46-.3-.69,0-.07,0-.14.06-.16a.27.27,0,0,1,.18.07c.1.17.18.34.28.54Zm-3-7.14a.22.22,0,0,1-.11-.31,6,6,0,0,1,.25-.58c.07-.16.15-.31.23-.47a2,2,0,0,1-.73-.85c.12-.1.21-.08.28,0l.31.42.19.26c.25-.33.32-.71.68-1a14.33,14.33,0,0,1-1.1,2.48Zm17,8.1a.5.5,0,0,0-.11.5c.15,0,.16,0,.18-.13s0-.25.08-.37a.36.36,0,0,1,.05-.09V93.6a1,1,0,0,1-.14-.45.42.42,0,0,1-.49-.3.7.7,0,0,1,.1-.62c.06-.09.16-.13.33-.06Zm-12.86-.88-.2.13c-.19-.15-.19-.17-.1-.33a.66.66,0,0,1,.46-.32c.24,0,.41.07.36.28a3.2,3.2,0,0,1-.18.52l-.15.39.56,0a.44.44,0,0,1-.32.47.55.55,0,0,1-.53,0,.45.45,0,0,1-.19-.51c.08-.21.18-.4.29-.65Zm9.44,9.9c-.2-.26-.06-.51-.14-.75-.21,0-.29-.06-.36-.24l.43-.18c0-.13,0-.26,0-.42l-.44.05c-.23,0-.25,0-.29-.24a4.17,4.17,0,0,1,.93-.2c.22,0,.3.06.27.25a3.44,3.44,0,0,0-.05.45c.18.09.41-.07.6.11-.15.06-.28.12-.41.16a.25.25,0,0,0-.22.26,1.13,1.13,0,0,1-.35.75Zm0-4.55.19.06c.3.1.38.22.31.48a1,1,0,0,1-.33.52.52.52,0,0,1-.77,0,2.45,2.45,0,0,1-.21-.3h.4a.35.35,0,0,0,.4-.21c-.17-.06-.35-.09-.45-.25a.35.35,0,0,1,0-.44,2.51,2.51,0,0,1-.28-.13s0-.12-.06-.18a.71.71,0,0,1,.68,0c.22.13.09.32.07.51Zm-12.67,1.51c.13-.29.23-.54.34-.78l.12-.22c0-.05.1-.11.18-.06s0,.1,0,.14c-.1.32-.21.63-.31.94l-.45,1.43a.53.53,0,0,0,0,.18.38.38,0,0,1,0,.15c0,.07-.07.18-.18.14a.25.25,0,0,1-.15-.17,1.35,1.35,0,0,1,0-.45,6.39,6.39,0,0,1,.24-.74.37.37,0,0,0,0-.42c-.19-.27-.36-.55-.53-.84a.83.83,0,0,1-.07-.27s.06-.09.1-.1a.23.23,0,0,1,.12.06c.11.37.47.61.64,1Zm14.58,4.92.58-.27,0,0L191,103c.45.17.48.23.38.68l0,0c.32.15.37.28.25.58a1,1,0,0,1-.62.55.77.77,0,0,1-1-.52h.18c.12,0,.23.06.35.07a.56.56,0,0,0,.61-.3c-.14,0-.28,0-.37-.11s-.09-.19,0-.28a.49.49,0,0,0,.19-.33c-.15-.16-.51.05-.56-.28Zm-11.63-5.35c-.18-.15-.2-.24-.1-.4a.9.9,0,0,1,.68-.37c.31,0,.48.12.44.39a1.42,1.42,0,0,1-.1.29c-.12.24-.25.47-.38.71a2,2,0,0,1,1,.23,1.94,1.94,0,0,1-1.06.32.46.46,0,0,1-.44-.64c.1-.19.24-.38.36-.57l.17-.29c-.15,0-.28,0-.28.12s-.16.17-.27.21Zm6.47-3.34a1.26,1.26,0,0,1-.21-.29,7.19,7.19,0,0,1-.24-.79c-.13-.63-.26-1.26-.37-1.9a3.74,3.74,0,0,1,.06-1.63,2,2,0,0,1,.17-.4.61.61,0,0,1,.16-.16.17.17,0,0,1,.15,0,.12.12,0,0,1,0,.12.34.34,0,0,1-.08.17c-.27.22-.23.51-.25.78a6.67,6.67,0,0,0,.28,2c.14.55.29,1.09.43,1.63a.56.56,0,0,1-.13.51ZM183,81.07l-.08-.18a.81.81,0,0,0-.26.33,2.59,2.59,0,0,0-.19,1.06c0,.72,0,1.43.05,2.15,0,.4.06.81.09,1.21,0,.13.05.25.05.38a.37.37,0,0,1-.16.35.35.35,0,0,1-.21-.29,2.78,2.78,0,0,1-.08-.49c0-.88-.05-1.76-.05-2.63a5,5,0,0,1,.18-1.54,1.84,1.84,0,0,1,.17-.38,1,1,0,0,1,.15-.2c.13-.13.28-.18.36-.13s.07.12,0,.36Zm.3,3.15a2.42,2.42,0,0,1,.72-.13c.78-.08,1.56-.14,2.34-.24s1.8-.28,2.7-.41a17.13,17.13,0,0,1,2.37-.23,1.49,1.49,0,0,1,.36.05s.11.07.11.11a.17.17,0,0,1-.1.12,1.46,1.46,0,0,1-.46.1,34.88,34.88,0,0,0-3.54.42c-.91.13-1.81.27-2.72.32l-1.5.08c-.2,0-.22,0-.28-.19Zm8.94,7-2.3.26c-.38,0-.75.08-1.13.09a18.42,18.42,0,0,0-2.1.2,6.51,6.51,0,0,1-.77,0,.25.25,0,0,1-.13,0,.18.18,0,0,1-.08-.12s.06-.07.1-.1l.11,0c.54-.09,1.08-.2,1.63-.27s1-.09,1.44-.14q1-.09,2-.21l1.25-.16v.46ZM150,91.63a1,1,0,0,0,.15.14c1.29,1,2.68,1.79,4.06,2.63l5.49,3.39a.47.47,0,0,0,.09.06c.2.11.31.25.19.46,0,0,0,0,0,0l.31.07c.14.06.17.15.11.26a.44.44,0,0,1-.39.23l-1.53,0-1.86,0-2,0-1.81,0q-.94,0-1.89,0c-.7,0-1.41,0-2.11,0s-1.48.06-2.22.1c-.55,0-1.1.09-1.66.1a10.09,10.09,0,0,1-1.09-.12c-.11,0-.23-.05-.26-.16s0-.1,0-.11.08-.2.08-.3a5.27,5.27,0,0,1,0-.69,5.29,5.29,0,0,0,.05-1.12c0-.75-.05-1.5-.08-2.25,0-.4,0-.81,0-1.21-.08-1.37-.12-2.74-.11-4.11,0-.76,0-1.52,0-2.28a3.12,3.12,0,0,1,.06-.41c.14-.08.24,0,.32.09a5.4,5.4,0,0,0,.45.52c.43.39.88.77,1.34,1.14s1.06.85,1.59,1.27l2.46,1.94a1,1,0,0,0,.25.13c-.17-.17-.35-.35-.51-.53a2.07,2.07,0,0,1-.19-.32,1,1,0,0,1,.17-1.15,2.87,2.87,0,0,1,.78-.64,12.71,12.71,0,0,1,2.62-1.2c.56-.19,1.13-.36,1.72-.54,0,0,0,0,0,0a21.63,21.63,0,0,1,1.37-2.88,6.93,6.93,0,0,0,.61-1.46c0-.15.12-.2.29-.18a.19.19,0,0,1,.18.25,2,2,0,0,1-.15.41c-.38.74-.78,1.47-1.16,2.2-.25.47-.5.94-.74,1.42,0,0,0,.1-.07.18l.27-.06a21.78,21.78,0,0,1,3.33-.52c1.06-.09,2.12-.15,3.18-.14a7.75,7.75,0,0,1,1.6.15,1.83,1.83,0,0,1,.28.1c.09,0,.13.12,0,.21a.51.51,0,0,0-.37-.16,10.45,10.45,0,0,0-1.1-.1,27.6,27.6,0,0,0-7.14.81A17.67,17.67,0,0,0,150.81,89a4.1,4.1,0,0,0-1,.76.66.66,0,0,0-.13.8,2.07,2.07,0,0,0,.73.74,4.44,4.44,0,0,0,1.82.63c.71.11,1.42.2,2.14.25.93.07,1.86.1,2.8.15a15.64,15.64,0,0,0,4.21-.34,5.37,5.37,0,0,0,2.23-1,2.67,2.67,0,0,0,1.12-1.76,2.53,2.53,0,0,0-.23-1.26.64.64,0,0,0-.36-.32,3.49,3.49,0,0,0-1.16-.2,7.79,7.79,0,0,1-1.67-.21,6.09,6.09,0,0,1-1-.36.34.34,0,0,1,.28-.08l1.61.07.94.07a3.82,3.82,0,0,1,1.06.2,1.17,1.17,0,0,1,.73.64,2.71,2.71,0,0,1-.69,3.29,5.37,5.37,0,0,1-2.68,1.34,13.51,13.51,0,0,1-2.54.35c-.72,0-1.45,0-2.17,0a38.18,38.18,0,0,1-4.41-.36,5.72,5.72,0,0,1-2.38-.82l-.05,0Zm-15.21-8.16a1,1,0,0,1-.25,0,.3.3,0,0,0-.39.07,2.41,2.41,0,0,0-.21.24c.1.23.41.38.28.66a.23.23,0,0,1-.25-.11,1.52,1.52,0,0,1-.37-.93l.19.06c.16-.2.32-.42.66-.39s.26.23.37.37l0,.06Zm20.67,17.31a1.65,1.65,0,0,1,.67-.19c.17,0,.23.09.15.23a.54.54,0,0,1-.5.22c-.2,0-.23-.12-.32-.26Zm-18-7a.59.59,0,0,1-.42.27c-.19,0-.39,0-.58,0s-.17,0-.18-.14a2.15,2.15,0,0,1,1.18-.16Zm16.23-3.56a1.32,1.32,0,0,1,1-.06.46.46,0,0,1-.4.27l-.36,0c-.17,0-.2-.11-.25-.25ZM152,101.1a1.22,1.22,0,0,1-.81.36.27.27,0,0,1-.25-.12c-.07-.11,0-.18.08-.21a2.44,2.44,0,0,1,1,0Zm1.64-11.44a1.43,1.43,0,0,1,1.06,0c-.08.23-.29.23-.49.23s-.48,0-.57-.28Zm5.6.12.28.11c-.27.09-.27.31-.39.48-.12-.11-.16-.25-.35-.28s-.1-.12,0-.19l.16-.09a.55.55,0,0,1,0-.22.18.18,0,0,1,.12-.1s.1.06.13.1a.9.9,0,0,1,0,.19Zm14-7.31a2.52,2.52,0,0,1,1.39,0,2,2,0,0,1-.17.12,2.39,2.39,0,0,1-1,.07c-.12,0-.18-.06-.19-.19Zm-37,10.76a2.35,2.35,0,0,1,1-.12.24.24,0,0,1,.16.11c0,.08-.06.11-.14.15a2.41,2.41,0,0,1-.76.11c-.16,0-.19,0-.25-.25Zm14.53,7.41a.46.46,0,0,1,.16-.06l.74-.07c.13,0,.27,0,.33.13s-.1.19-.29.2-.48,0-.72,0-.12,0-.22-.21Zm19.31-3.13c-.05.07-.07.13-.11.16-.21.13-.43.25-.65.36a.49.49,0,0,1-.21,0,.23.23,0,0,1-.23-.17c0-.1.05-.13.13-.16a2.91,2.91,0,0,1,1.07-.23ZM143.57,84.29a1.5,1.5,0,0,1-.13-.11c-.11-.18-.22-.35-.32-.53a.35.35,0,0,1,0-.14.13.13,0,0,1,.21-.08.88.88,0,0,1,.12.15l.59-.29c0,.09,0,.14,0,.17s-.13.13-.2.2-.21.18-.11.35,0,.2-.13.28Zm16.94,5.25c-.23.07-.35.17-.32.36a.41.41,0,0,1-.08.25,1,1,0,0,1-.13-.93c.23,0,.11.16.2.22l.24-.14a.3.3,0,0,1,.44.12c.11.2.19.41,0,.61-.23-.1-.26-.29-.31-.49Zm-2.19,10.57h.27c.18,0,.22.09.13.23a.45.45,0,0,1-.51.2.42.42,0,0,1-.28-.43,1.8,1.8,0,0,1,0-.19.53.53,0,0,0-.3.18c-.17-.15-.18-.22,0-.35a.74.74,0,0,1,.28-.14c.25-.08.38,0,.38.24v.26Zm-1.18,1.11A1.42,1.42,0,0,1,157,101a6,6,0,0,1-.15-.61s.05-.09.07-.13.12,0,.15.07a.69.69,0,0,1,.1.19h.05c.3-.19.5-.15.66.13a.41.41,0,0,1,0,.53c-.31-.06-.25-.34-.38-.51-.15.07-.21.16-.16.3s0,.18-.14.29Zm-17-20.68a2.33,2.33,0,0,0,.31-.14c.34-.27.45-.28.86-.06,0,.29-.14.34-.47.19l-.43.31a2,2,0,0,1,.27.91,1.54,1.54,0,0,1-.54-1.21Zm15.53,19.57a.77.77,0,0,1-.81.34.29.29,0,0,1-.21-.44l.12-.14-.05-.06a.18.18,0,0,1-.07-.25.33.33,0,0,1,.34-.11c.14,0,.21.11.2.22a2.33,2.33,0,0,1,0,.28c.37,0,.37,0,.53.16Zm-2.87-9.83a.75.75,0,0,1-.47.4.32.32,0,0,1-.35-.07.94.94,0,0,1-.35-.85.67.67,0,0,1,.76-.41c.14,0,.15.08,0,.27a.45.45,0,0,0-.12,0c-.3,0-.42.18-.32.42a1,1,0,0,0,.07.15.25.25,0,0,0,.29.13,1.86,1.86,0,0,1,.33,0,.27.27,0,0,1,.12,0Zm-25,9.22c-.16.2-.2.43-.41.58-.1,0-.15-.06-.11-.16.14-.27.26-.54.39-.81a.19.19,0,0,1,.19-.14c.12,0,.15.06.19.14l.39,1a.45.45,0,0,1-.06.48c-.4-.28-.36-.72-.58-1.08Zm13.72-6.92c.18,0,.18,0,.35.23a1.14,1.14,0,0,1,.11-.11.47.47,0,0,1,.74.16.9.9,0,0,1,0,.86c-.35-.2-.33-.54-.43-.81-.24,0-.38.11-.4.31s0,.23,0,.35,0,.15-.06.24a2.13,2.13,0,0,1-.31-1.23Zm19.53-3.92-.25.12c-.17-.15-.18-.25,0-.37a.87.87,0,0,1,.24-.1c.29-.08.47,0,.45.31,0,.08,0,.15,0,.24.17,0,.38-.07.54.08a.51.51,0,0,1-.37.43l-.18.06c-.31.09-.57-.09-.51-.38a1.62,1.62,0,0,1,.11-.28.59.59,0,0,1,0-.11Zm-6.81,12.5c-.28-.15-.27-.37-.35-.56-.27.11-.11.4-.33.52-.23,0-.21-.23-.31-.37,0,.16-.1.29-.14.43-.27-.08-.32-.31-.18-.77a4.25,4.25,0,0,0,.51,0c.06,0,.11-.05.16-.08.31-.19.55-.12.66.19a1.19,1.19,0,0,1,.06.37,1,1,0,0,1-.08.28Zm-21.52-3c.33,0,.27.27.42.4.09,0,.1-.12.14-.18a.43.43,0,0,1,.32-.21.33.33,0,0,1,.33.07.25.25,0,0,1-.08.3c-.33.16-.32.42-.35.68a1.49,1.49,0,0,1-.09.3c0,.1-.14.1-.22,0a.52.52,0,0,1-.12-.18c-.13-.37-.25-.73-.36-1.1,0,0,0,0,0-.1Zm25.3-9.21.35-.06a1.22,1.22,0,0,1,.27,0,.24.24,0,0,1,.13.11c0,.11-.12.31-.25.34l-.57.1a.29.29,0,0,1-.32-.09c-.07-.1-.13-.19-.06-.31s.18-.33.27-.51a.38.38,0,0,0-.35.18c-.21-.1-.25-.22-.09-.32a1.35,1.35,0,0,1,.45-.17.25.25,0,0,1,.3.24,1.19,1.19,0,0,1-.05.26c0,.07,0,.15-.08.24ZM171.81,83a7.43,7.43,0,0,1,.78-1.35s0,.06,0,.08l-.9,2.38s-.06.06-.11.11a.79.79,0,0,1,0-.13.91.91,0,0,1,0-.33,1.14,1.14,0,0,0-.06-.92,7,7,0,0,1-.17-.89.13.13,0,0,1,.12-.17c.11,0,.14.07.15.14.07.35.13.69.2,1.08Zm-37.24,9.37a3.79,3.79,0,0,1,.16.84l.22-.09c.31-.09.56,0,.57.34a.94.94,0,0,1-.33.76c-.1.08-.21.16-.34.11s-.35-.13-.38-.31a.41.41,0,0,1,0-.19,3.78,3.78,0,0,0,0-1.21c0-.08,0-.16,0-.25Zm.61,1h0a.43.43,0,0,0-.37.59.48.48,0,0,0,.37-.59Zm40-2.62s0,.08,0,.11c-.15.72-.31,1.44-.47,2.16a.9.9,0,0,1-.07.11.28.28,0,0,1-.16-.29,3.42,3.42,0,0,1,0-.45.43.43,0,0,0-.06-.29c-.2-.39-.38-.78-.57-1.17,0-.06-.06-.14,0-.18a.16.16,0,0,1,.21.07c0,.08.08.17.13.26l.39.76c.07-.2.13-.39.21-.57a1.21,1.21,0,0,1,.24-.53Zm-33.75,3c-.28-.15-.28-.44-.41-.72a1.3,1.3,0,0,1-.08.29.29.29,0,0,1-.14.15c-.11,0-.16-.07-.19-.14a1.49,1.49,0,0,0-.15-.27.38.38,0,0,0-.08.17c0,.09.05.19.05.28a1,1,0,0,1-.05.22,1.15,1.15,0,0,1-.28-1.06c.18-.05.1.14.21.17a.86.86,0,0,1,.23-.05.21.21,0,0,0,.2-.09.38.38,0,0,1,.65.06,2.3,2.3,0,0,1,.18.5.43.43,0,0,1-.14.49Zm-2.43,0c.3,0,.57-.17.85,0a.69.69,0,0,1,0,.13.91.91,0,0,1-.79.31.45.45,0,0,1-.37-.56c0-.13.13-.24.2-.39-.11,0-.23.11-.3,0a.23.23,0,0,1,.05-.31.77.77,0,0,1,.52-.24c.15,0,.26.07.25.2a1.27,1.27,0,0,1-.1.37,4.92,4.92,0,0,1-.26.51Zm3-14.21c0,.08,0,.16,0,.24.27,0,.52-.2.81-.08a.9.9,0,0,1-.45.53l-.3.13c-.14,0-.28.1-.41,0a.39.39,0,0,1-.17-.41l.12-.34a.14.14,0,0,1,0-.07Zm-12.34,20.53a1,1,0,0,1-.37.49,16.73,16.73,0,0,1-2,1.46l0,0c-.07,0-.15.09-.22,0s0-.16,0-.22l.9-.68c.31-.25.61-.51.93-.75a3.08,3.08,0,0,1,.48-.32,1.15,1.15,0,0,1,.28-.07l.05,0Zm12.77-15.3c-.33-.26-.37-.61-.53-.94l-.28.16c-.17-.16-.17-.17,0-.3a4.37,4.37,0,0,1,1.24-.91c.13-.06.13-.06.31,0-.14.14-.27.27-.41.39a.24.24,0,0,0-.07.32,9,9,0,0,1,.33.86.65.65,0,0,1,0,.34c-.37-.33-.4-.78-.57-1.22l-.29.19c.13.27.25.53.38.79,0,.11.11.22-.07.34Zm13.47,5.54a.24.24,0,0,1-.19-.28c0-.22,0-.43.05-.66a.59.59,0,0,0,.32-.06.39.39,0,0,1,.45,0l.37-.12c.17,0,.38,0,.41.17a4.72,4.72,0,0,1,.11.83c0,.09-.08.18-.13.3-.4-.21-.34-.53-.37-.83-.25.09-.18.36-.38.47-.28-.1-.26-.33-.31-.58a.53.53,0,0,0-.2.39.36.36,0,0,1-.13.33Zm-6.6,10.82a2.12,2.12,0,0,1-.15.21.42.42,0,0,1-.68,0c-.35-.46.17-1,.61-1a.33.33,0,0,1,.33.13c.06.09.1.17.15.26a2.37,2.37,0,0,0,.22.33.3.3,0,0,0,.3.13c.11,0,.17,0,.15.12a.35.35,0,0,1-.2.28.28.28,0,0,1-.33,0c-.14-.11-.26-.24-.4-.36Zm-.27-.52h0c-.34.21-.38.31-.22.48a.68.68,0,0,0,.22-.48Zm-20.82,2.59c.29.15.35.14.57-.06a.6.6,0,0,0,.26-.51h-.32c-.22,0-.35-.17-.25-.34s.09-.15.13-.22l0,0c-.14.14-.27.29-.41.44-.12-.07-.15-.15-.08-.26a1.93,1.93,0,0,1,.66-.64.38.38,0,0,1,.15-.05c.15,0,.22,0,.21.15a3,3,0,0,1-.11.37l-.09.18,0,0c.47.06.59.19.49.6a1.12,1.12,0,0,1-.45.69.51.51,0,0,1-.78-.24s0-.06,0-.11Zm11.94-23.11c-.16.17-.29.32-.43.45a.25.25,0,0,0-.1.3l.12.42a1.52,1.52,0,0,1,.07.86c-.14-.08-.2-.18-.32-.59-.07-.21-.11-.43-.17-.69l-.43.26.27.58c.06.13.14.24.19.37a.32.32,0,0,1,0,.34c-.21-.1-.21-.1-.64-1.15l-.27.15a.7.7,0,0,1-.19.1.25.25,0,0,1-.19,0c-.07,0,0-.11,0-.16l.4-.3,1.32-.86c.12-.08.13-.07.38,0Zm.31,4.52-.17.21c-.18-.1-.24-.2-.15-.36a2.32,2.32,0,0,1,.36-.48.38.38,0,0,1,.4-.07c.11,0,.16.16.13.31s-.11.48-.16.72c0,.06,0,.11-.05.18a4.07,4.07,0,0,1,1.08-.32c0,.06,0,.11-.06.13a4.8,4.8,0,0,1-1,.76c-.12.06-.24.14-.38,0s-.25-.24-.2-.42.13-.46.2-.69l0,0Zm30.45,13c.64-.11,1.19-.31,1.77-.35l0,0a.58.58,0,0,1-.17.14c-.31.17-.62.35-.94.5a2.49,2.49,0,0,1-.55.16.43.43,0,0,1-.46-.15.39.39,0,0,1-.1-.45c.1-.17.22-.33.32-.5s.08-.18.13-.28a.45.45,0,0,0-.48.08l.11.24a.27.27,0,0,1-.26-.18.25.25,0,0,1,.07-.31.76.76,0,0,1,.62-.14.37.37,0,0,1,.29.46,3.82,3.82,0,0,1-.21.46c0,.08-.09.16-.16.28Zm-4,.74c0,.24.1.45-.11.62a.31.31,0,0,1-.2-.25l-.21-.86c0-.07,0-.17,0-.2a.45.45,0,0,1,.28,0,1.27,1.27,0,0,1,.31.2l.18.17c.13-.19.25-.36.36-.54a.42.42,0,0,1,.31-.18.3.3,0,0,1,.36.16,3.12,3.12,0,0,1,.3.84.27.27,0,0,1-.12.29c-.36-.13-.39-.45-.57-.73l-.28.55c-.17.35-.23.36-.53.07l-.12-.1Zm-.74.81a1.16,1.16,0,0,1-.65.46c-.35.12-.72.22-1.08.31a.41.41,0,0,1-.54-.21.29.29,0,0,1,0-.32l.61-.77c.06-.07.13-.13.23-.23a1.57,1.57,0,0,0-.27,0l-1,.23c-.19,0-.19,0-.29-.12a4.51,4.51,0,0,1,2.21-.48c.06.15,0,.27-.13.39s-.27.26-.4.39-.32.36-.46.55a3.7,3.7,0,0,1,1.73-.23ZM134,96.9c-.27,0-.27.24-.39.35-.17-.08-.22-.14-.2-.27a.65.65,0,0,1,.57-.46c.23,0,.36.07.37.27a3.38,3.38,0,0,1,0,.45v.24l.73-.17A1.87,1.87,0,0,1,135,97a1.25,1.25,0,0,1-.07-.26s0-.08.06-.09a.18.18,0,0,1,.12,0,.4.4,0,0,1,.07.13l.34.75c.07-.08.11-.14.17-.2a.42.42,0,0,1,.62,0,1.08,1.08,0,0,1,.22.35,4.76,4.76,0,0,1,.19.53s0,.07-.05.13c-.4-.15-.48-.49-.68-.78a.43.43,0,0,0-.18.45,1,1,0,0,0,.07.23.3.3,0,0,1-.1.33c-.17,0-.21-.13-.25-.23s-.2-.46-.29-.69l-.1-.26-.2.14a4.29,4.29,0,0,1-.48.36.27.27,0,0,1-.4-.08.57.57,0,0,1-.12-.43c0-.18,0-.36,0-.55ZM130.62,99l-.38.22c-.08,0-.17.08-.24,0s0-.14,0-.2a5.58,5.58,0,0,1,.48-.37c.43-.31.86-.6,1.31-.89a1.07,1.07,0,0,1,.4-.15c.07,0,.16,0,.25,0-.09.33-.38.46-.64.63a2.64,2.64,0,0,1,.39,1.82,1,1,0,0,1-.15.27c-.24-.14-.23-.15-.17-.38a.82.82,0,0,0,0-.31,3.1,3.1,0,0,0-.3-1.27l-.68.41c.08.36.17.7.25,1a3.7,3.7,0,0,1,.07.57.46.46,0,0,1-.06.25.14.14,0,0,1-.25,0,.61.61,0,0,1-.08-.25c-.06-.42-.11-.84-.16-1.26,0,0,0-.1-.06-.17Zm28-17.94c.26-.1.48-.2.71-.28l1.46-.46a1.33,1.33,0,0,1,.28,0l0,0-.11.08c-.43.2-.87.39-1.3.6-.15.07-.29.16-.46.25l.32.17c0,.16-.19.06-.26.1.15.14.3.26.43.4a.49.49,0,0,1,.06.27s-.09.07-.14.09-.07,0-.1-.08,0-.06,0-.07l-.8-.46c-.07.24.06.48-.08.71-.24-.12-.09-.43-.38-.52-.31.21-.7.36-.89.7-.17-.07-.21-.13-.12-.25a2.18,2.18,0,0,1,.33-.35,1.53,1.53,0,0,0,.18-.18c-.29.12-.66.13-.83.43-.24-.1-.26-.19,0-.33s.33-.17.5-.25l.59-.28a5.3,5.3,0,0,0-1.45-.21l-.09.14a1.93,1.93,0,0,1-.21-.13c-.13-.09-.11-.21.06-.24a7.54,7.54,0,0,1,.82-.06,2.64,2.64,0,0,1,.38,0c-.06-.19-.3-.28-.29-.48a.22.22,0,0,1,.29,0l.33.27a.36.36,0,0,0,.4.08c0,.09,0,.23.16.22.05-.27.1-.55.16-.82a1,1,0,0,1,.11-.29.13.13,0,0,1,.18-.07c.07.21-.12.39-.12.59s0,.39-.05.62Zm15.29,22.15c-.1.18-.14.21-.32.16l-.28-.11a11.1,11.1,0,0,0-2.9-1.08c-.87-.23-1.76-.43-2.64-.65-.48-.12-.36,0-.65-.41l-.22.11c.31.37.62.73.92,1.1a4.15,4.15,0,0,1,.24.34.21.21,0,0,1-.06.27c-.09.08-.2,0-.28,0a1.44,1.44,0,0,1-.3-.24c-.17-.2-.31-.4-.47-.6l-.45-.57a.94.94,0,0,1-.09-.12c-.17-.25-.15-.32.15-.43a8,8,0,0,0,1.38-.67c.11-.07.11-.07.31-.05,0,.36-.46.42-.68.66l.28.1c.86.23,1.73.46,2.59.71a12.59,12.59,0,0,1,2.28.81l.17.08,1,.61Zm-39.74-22a5.18,5.18,0,0,1,3.26,1A3.74,3.74,0,0,1,139,84.69a4.9,4.9,0,0,1-1.59,4.42,5.89,5.89,0,0,1-3.68,1.7,5,5,0,0,1-4.78-1.93,3.86,3.86,0,0,1-.8-2.94A4.72,4.72,0,0,1,129.72,83a6.14,6.14,0,0,1,1.7-1.1.75.75,0,0,0,.17-.14,1,1,0,0,1,.22-.13,6.41,6.41,0,0,1,2.34-.41Zm4,2.6h0l-.21.12c-.54.3-1.06.62-1.62.89-1,.49-2,.94-3,1.42a.4.4,0,0,1-.28-.27.2.2,0,0,1,.18-.29,1.15,1.15,0,0,0,.39-.17,5.21,5.21,0,0,1,.52-.28,36.56,36.56,0,0,0,3.42-1.74l.26-.16a4.6,4.6,0,0,0-3.49-1.62,5.58,5.58,0,0,0-2.33.39s-.12,0-.15,0-.24,0-.35,0a6,6,0,0,0-1.72,1.3,3.88,3.88,0,0,0-1,3.88A4.47,4.47,0,0,0,134,90.23a5.65,5.65,0,0,0,2.65-1.2,4.59,4.59,0,0,0,1.88-3.74,3.28,3.28,0,0,0-.37-1.44Zm21.42,14.52h0l-.24-.16c-1.93-1.21-3.86-2.43-5.81-3.62a47.07,47.07,0,0,1-6.59-4.76l-.6-.5c-.51-.43-1-.85-1.53-1.29-.32-.29-.6-.61-.89-.91l-.15-.15,0,.21c0,.62,0,1.24,0,1.86l.06,1.26c0,.72.07,1.43.11,2.15l.12,2c0,.59.07,1.18.1,1.77,0,.34,0,.69.06,1.06l.24,0a13.76,13.76,0,0,1,1.71-.14.72.72,0,0,1,.21.05,4.36,4.36,0,0,0,.11,1.53c.83,0,1.65-.09,2.47-.11.61,0,1.23,0,1.84,0,.91,0,1.83-.05,2.75-.07l1.47,0,2.89-.07,1.41,0,.17,0ZM146,98.8h0V97.53a7.93,7.93,0,0,0-1.68.13c0,.4-.08.79-.13,1.2A8.46,8.46,0,0,0,146,98.8Zm-14,10.86a.21.21,0,0,1,.3.14c.12.27.24.53.37.8a2.46,2.46,0,0,0,.14.26c.07-.24.11-.43.17-.61.2-.59.39-1.18.61-1.76a6.89,6.89,0,0,0,.36-1.54c0-.07,0-.14,0-.21s.13-.27.34-.2a4.52,4.52,0,0,0,1.27.1l2,0,2.36,0,2.56,0,2.9,0,2.86,0c1.34,0,2.67,0,4,0s2.67,0,4,0c.91,0,1.82-.08,2.72-.12l1.58-.1,1.16-.09c.24,0,.35,0,.43.23.26,0,.53-.06.8-.11a8.6,8.6,0,0,1,1.52-.14c.4,0,.79,0,1.19,0,.24,0,.3.08.21.27s-.15.22-.38.21a13.89,13.89,0,0,0-2.88.16,2.93,2.93,0,0,1-1.18,0,3.77,3.77,0,0,0-1.34,0l-1.3.07c-1.44.1-2.89.09-4.34.09-1.74,0-3.48,0-5.23,0-1.6,0-3.21,0-4.81-.06l-2.48,0-3.78,0-2.86-.06c-.3,0-.59,0-.9-.07a.13.13,0,0,0,0,.09,9.24,9.24,0,0,1-.59,2.16c-.2.58-.38,1.18-.57,1.77a1.33,1.33,0,0,0,0,.21s0,.12,0,.16a1.7,1.7,0,0,1-.19.19,1,1,0,0,1-.2-.15,5.7,5.7,0,0,1-.77-1.71v-.1ZM157.47,111h0l-.18,0s-.05-.11,0-.15a1,1,0,0,1,.47-.55l.07,0a.92.92,0,0,1,.34,0c.11.06.06.18,0,.27s-.19.35-.29.54l.63,0,.2,0a.69.69,0,0,1-.05.17,1.19,1.19,0,0,1-.91.4.29.29,0,0,1-.26-.15.62.62,0,0,1,0-.53Zm10.25-6.63a.35.35,0,0,1,.2.49.53.53,0,0,1-.2-.49Zm-6.52,5.77c0,.13-.14.19-.25.24a1.33,1.33,0,0,1-.79,0,.2.2,0,0,1-.17-.23,4.07,4.07,0,0,1,1.21-.06Zm26.27-5.71s0,0,0,0a2,2,0,0,1-1.22.37c-.17,0-.18,0-.3-.25.12-.15.32-.07.48-.1a3.35,3.35,0,0,1,.54-.08,1.1,1.1,0,0,1,.51,0Zm-1.7-.36c.16,0,.32-.08.47-.1a1.84,1.84,0,0,1,.74,0c.13,0,.27.08.22.28-.36,0-.72.07-1.08.09s-.25,0-.35-.26Zm-10.53,8.43a1.92,1.92,0,0,1,1.55,0,1.28,1.28,0,0,1-.63.21c-.23,0-.46,0-.69,0s-.2,0-.23-.23Zm-27-6.76a.5.5,0,0,1-.14.08,4.14,4.14,0,0,1-1.4.26c-.25,0-.25,0-.31-.24a3.53,3.53,0,0,1,1.85-.1Zm-1.65-.74a3,3,0,0,1,1.71-.06,1.31,1.31,0,0,1-.16.13,2.08,2.08,0,0,1-.82.17l-.39,0c-.27,0-.27,0-.34-.27Zm30,6.81a.65.65,0,0,1-.57.27c-.31,0-.62,0-.93,0-.12,0-.17-.08-.17-.16a.14.14,0,0,1,.08-.13,2.68,2.68,0,0,1,1.51,0l.08,0Zm2.38-8.39a.83.83,0,0,1,0,.15,2.06,2.06,0,0,1-.12.26.62.62,0,0,0,.19.77.46.46,0,0,1,.2.49.3.3,0,0,1-.32-.09,1.17,1.17,0,0,1-.45-.72,1.11,1.11,0,0,1,.3-.8c0-.05.12-.07.18-.11l.06.05Zm-31.43,5.93a.32.32,0,0,1,.36.09.92.92,0,0,1,.28.68,1.27,1.27,0,0,1-.26.79.27.27,0,0,1-.08.07l-.05,0c-.17-.12-.2-.19-.13-.39s.1-.25.13-.38a.72.72,0,0,0-.14-.64,1.08,1.08,0,0,1-.11-.24Zm7.84,1.78c-.11.17-.18.2-.35.13a.83.83,0,0,1-.46-.4,1.36,1.36,0,0,1-.05-1.21,1.91,1.91,0,0,1,.16-.32.8.8,0,0,1,.13-.13c.09.1,0,.17,0,.24a1.7,1.7,0,0,0-.14.77,1.39,1.39,0,0,0,.48.85s.12,0,.21.07Zm26.18-5.84q0-.13-.09-.3c-.19,0-.33-.1-.36-.28s.23-.07.35-.12.08-.38.14-.57a1,1,0,0,1,.21-.27,1.25,1.25,0,0,1,.19,0,1.26,1.26,0,0,0-.17.88l.47,0a.31.31,0,0,1-.26.24c-.21,0-.35.14-.36.33,0,0,0,0-.06.08Zm-40.68,5a4,4,0,0,1,.6,0,3.21,3.21,0,0,0,.76,0,1.88,1.88,0,0,1,.67,0,1.2,1.2,0,0,1-.75.41,2.77,2.77,0,0,1-1.11-.08c-.15,0-.16-.13-.17-.29Zm-4.68,1.34c-.07.12-.2.11-.31,0a1,1,0,0,1-.35-.3,2.39,2.39,0,0,1-.32-.71,1.06,1.06,0,0,1,.39-1,.18.18,0,0,1,.25,0,.15.15,0,0,1,0,.09.67.67,0,0,1-.09.14.94.94,0,0,0,0,1.31l.4.49Zm27.28-1.23a.77.77,0,0,1-.17,0c-.06,0-.15,0-.16,0a.18.18,0,0,1,0-.19,1.61,1.61,0,0,1,.38-.31.54.54,0,0,1,.31,0c.13,0,.13.14.13.24s0,.41,0,.62a.78.78,0,0,1-.14.5c-.09.12-.19.12-.26,0a1.07,1.07,0,0,1-.1-.39,3.26,3.26,0,0,1,0-.45Zm-19,.57c-.15-.22-.14-.26,0-.4l.39-.38c-.05-.1-.28-.17-.26-.36.25-.07.33.17.55.19l.45-.35a.35.35,0,0,1,.4-.08l-.57.58.26.15a1,1,0,0,1,.08.11c-.05,0-.1.08-.15.08a1.83,1.83,0,0,1-.32-.07.45.45,0,0,1-.11,0l-.71.56Zm7.71-.06c-.45.06-.45.06-.56-.16a.68.68,0,0,1,.24-.12c.28-.06.41-.19.37-.44a.32.32,0,0,1,0-.14c0-.12.1-.14.25-.09s0,.28,0,.44a3.34,3.34,0,0,1,.9,0c0,.11-.12.13-.19.16-.22.1-.43.19-.65.27s-.15.08-.17.17a3.86,3.86,0,0,1-.14.39c-.14-.15-.06-.3-.12-.43Zm-5.82,2a.83.83,0,0,1-.28-.63l-.06-.69c-.06,0-.14,0-.18-.09s-.09-.2,0-.28a.45.45,0,0,1,.39-.06c.13,0,.14.15.16.26,0,.31.1.63.15.94a.55.55,0,0,1-.22.55Zm36.64-.29a.69.69,0,0,1-.29-.45,4.08,4.08,0,0,1-.09-.69c0-.07,0-.18.09-.19s.12.08.22.15a1.94,1.94,0,0,1,.21-.08,2.25,2.25,0,0,1,.52-.08c.38,0,.52.2.36.55-.34-.14-.7-.28-1,0a1.56,1.56,0,0,1,0,.78Zm-45.19-1.91-.6.81c-.15-.06-.13-.14-.09-.21s.21-.37.32-.56a2.22,2.22,0,0,1,.17-.22l-.24-.22a2,2,0,0,1-.25-.25s0-.11,0-.17.15,0,.2,0,.22.14.33.21l.18.13c.2-.14.25-.38.58-.44-.15.21-.26.39-.39.58a2.51,2.51,0,0,1,.23.21.93.93,0,0,1,.18.32c0,.1-.07.16-.18.1l-.42-.3Zm35.41,3.34a.33.33,0,0,1-.22-.28c0-.23-.05-.47-.07-.71,0-.08,0-.16.15-.19s.07.21.1.33l.1-.07a.59.59,0,0,1,.58-.16.44.44,0,0,1,.34.38,1.19,1.19,0,0,1,0,.42s-.06.09-.1.14c-.25-.11-.29-.34-.41-.53a.53.53,0,0,0-.31.38c0,.18,0,.18-.16.29Zm-8.56-5.08a.78.78,0,0,1,.29.06c.36.22.68.51.54,1a3,3,0,0,1-.78,1.2.23.23,0,0,1,0-.3,6.5,6.5,0,0,1,.25-.61,1.86,1.86,0,0,1,.1-.2.57.57,0,0,0-.16-.8.35.35,0,0,1-.19-.38ZM184.27,105a.59.59,0,0,1,0-.17c.12-.29.26-.58.38-.87a1.92,1.92,0,0,0,.14-.36c.07-.22,0-.31-.2-.44a1,1,0,0,1-.2-.12.2.2,0,0,1-.05-.17.24.24,0,0,1,.19-.06.76.76,0,0,1,.68.54,1.23,1.23,0,0,1,0,.47,2.49,2.49,0,0,1-.76,1.12.6.6,0,0,1-.13.09l-.06,0Zm-44.91,6.42c-.23-.06-.28.13-.42.18-.14-.14-.16-.19,0-.27a1.66,1.66,0,0,1,.43-.19c.19,0,.33.08.3.25a1,1,0,0,1-.13.36c-.13.21-.28.42-.44.64h1l-.09.15a1.38,1.38,0,0,1-1.15.29.28.28,0,0,1-.2-.49l.58-.69a1.67,1.67,0,0,0,.12-.23Zm18-1.89s0,.05,0,.07l-.77,2.16c-.09.24-.21.48-.31.72,0,.06-.08.12-.12.19s-.15-.15-.13-.24c.07-.26.12-.52.21-.77s.23-.55.33-.8c-.21-.34-.41-.66-.6-1a.4.4,0,0,1,0-.11.21.21,0,0,1,.27.08l.5.63c.05-.11.1-.22.16-.33s.1-.22.16-.33a3.4,3.4,0,0,1,.25-.31l0,0Zm22.81-4.79c.19-.32.37-.64.55-1h.07c.07.09,0,.18,0,.26l-.61,1.51-.13.29.18,0a.77.77,0,0,1-.39.44.27.27,0,0,1-.18-.36,2.63,2.63,0,0,1,.25-.6.35.35,0,0,0,0-.42c-.17-.25-.32-.52-.47-.78a.15.15,0,0,1,0-.17.4.4,0,0,1,.22,0s.09,0,.11.09.1.19.14.28.19.34.28.52Zm-18.42,7.21a.28.28,0,0,1-.13-.31,3.27,3.27,0,0,1,.34-.9l.25-.49a.94.94,0,0,1-.8-.7.24.24,0,0,1,.32,0l.37.33a1.29,1.29,0,0,1,.15.2,2.25,2.25,0,0,0,.15-.19l.36-.67a.91.91,0,0,1,.11-.16.13.13,0,0,1,.1,0,.13.13,0,0,1,.06.09.39.39,0,0,1-.05.14c-.3.72-.59,1.44-.9,2.15a1.57,1.57,0,0,1-.33.53Zm-12-2.63c.35-.06.66-.2,1,0a.78.78,0,0,1-.53.47l-.52.1c-.14,0-.3,0-.4-.08a.38.38,0,0,1-.06-.47l.26-.43.09-.21-.05,0-.29.19c-.19-.14-.21-.29-.05-.42a.67.67,0,0,1,.57-.12c.2,0,.3.16.26.33a2.44,2.44,0,0,1-.14.46c0,.07-.07.13-.12.24Zm16.16-1-.12-.17,0-.07a.91.91,0,0,1,.54-.14c.27,0,.39.15.32.37a3.49,3.49,0,0,1-.19.39c-.06.12-.13.23-.2.37.48,0,.92-.26,1.43-.1a.76.76,0,0,1-.12.2,1.28,1.28,0,0,1-.63.3l-.54.09a.52.52,0,0,1-.56-.27.26.26,0,0,1,0-.28c.1-.15.19-.31.28-.46l.19-.32-.45.09Zm15,4.55.13-.15a.44.44,0,0,1,.64.07,2.4,2.4,0,0,1,.24.68c0,.09-.05.2-.09.29a.13.13,0,0,1-.22,0,1.67,1.67,0,0,1-.21-.33,3.23,3.23,0,0,1-.08-.33,3.06,3.06,0,0,1-.18.29c-.05.06-.13.16-.18.15a.46.46,0,0,1-.22-.15c-.06-.08-.1-.17-.16-.27-.25.23,0,.56-.32.76-.06-.06-.14-.1-.16-.16-.08-.22-.13-.43-.19-.65s0-.16.11-.13.17,0,.24-.07a.5.5,0,0,1,.46-.1l.19.07Zm-3.59-8.66-.69.3a1.37,1.37,0,0,1-.29.93c-.29-.23-.16-.53-.27-.79-.21,0-.44.07-.51-.2.09-.11.26-.1.39-.13s.2-.09.2-.22,0-.39.05-.62h-.38c-.19,0-.23,0-.27-.26a4.78,4.78,0,0,1,.84-.08c.2,0,.28.13.26.33s0,.44-.06.68h.72v.06Zm3.49,8c-.46-.08-.6-.41-.84-.69-.05.1-.1.19-.14.28a.57.57,0,0,1-1.07,0,.8.8,0,0,1,.81-1.15.41.41,0,0,1,.25.08,3.68,3.68,0,0,1,.39.4,3.47,3.47,0,0,1,.35.43c.11.17.18.35.27.52s0,.06,0,.13Zm-1.51-.4h0a.76.76,0,0,0,.13-.17c.11-.25.21-.51.31-.76a.17.17,0,0,0-.24,0,2.23,2.23,0,0,0-.41.27c-.23.24-.16.5.21.71Zm3.33-7.44c-.32-.15-.37-.32-.14-.57a1,1,0,0,1,.68-.33c.31,0,.46.12.37.38a4.92,4.92,0,0,1-.24.45l-.2.31c.26,0,.51-.07.72.06a1.43,1.43,0,0,1-.78.56.4.4,0,0,1-.38-.1.45.45,0,0,1-.11-.61.54.54,0,0,0,.07-.13s0,0,0,0Zm-10.37,8.73a.44.44,0,0,1-.35-.24c-.11-.16-.19-.33-.28-.49l-.16-.27c-.07.16-.11.28-.17.39s-.15.31-.38.31-.31-.14-.4-.29c-.28-.42.12-1.09.58-1.2a.39.39,0,0,1,.47.15c.21.33.42.65.61,1a1.3,1.3,0,0,1,.15.43c0,.06,0,.14-.07.22Zm-1.41-.68h0a1.1,1.1,0,0,0,.26-.9c-.41.23-.52.61-.26.9Zm-26.19-8c.08-.36-.08-.74.12-1.07h.08a.44.44,0,0,1,.05.15l.06,1.12a1.19,1.19,0,0,0,0,.26c0,.15.05.3.06.45a.3.3,0,0,1-.25.33c-.08,0-.14.1-.2.15-.45.35-.84.27-1-.22a.85.85,0,0,1,.67-1.17,2.66,2.66,0,0,1,.4,0Zm.06,1h0a2.49,2.49,0,0,0-.08-.5.25.25,0,0,0-.3-.16.49.49,0,0,0-.36.74.19.19,0,0,0,.27.09l.47-.17Zm42.57,4.37a.36.36,0,0,1-.37.25,1.87,1.87,0,0,1-.41,0c-.13,0-.22-.08-.22-.17s.1-.13.19-.14a3.4,3.4,0,0,1,.46-.07.35.35,0,0,1,.35.13Zm4.25,5a4.78,4.78,0,0,1,.65-.07v.36h-.14c-.32,0-.44,0-.51-.3Zm-6.24-4.92a.38.38,0,0,0-.28.35.46.46,0,0,1-.16.34.85.85,0,0,1-.26-1l.22.09a.61.61,0,0,1,.59-.22.63.63,0,0,1,.31.14.7.7,0,0,1,0,.75c-.07.11-.17.12-.25,0a2.67,2.67,0,0,1-.21-.48Zm4,.27a.76.76,0,0,1-.35-.5c-.28.09-.22.37-.42.5a.51.51,0,0,1-.31-.54c-.32,0-.37.07-.37.33v.39l-.07,0a1.21,1.21,0,0,1-.1-.14c-.08-.26-.14-.53-.21-.79,0-.08,0-.15.08-.18s.15,0,.17.11l.05.1a1.24,1.24,0,0,1,.2-.1,1.61,1.61,0,0,1,.37-.07.55.55,0,0,0,.31,0,1.16,1.16,0,0,1,.32-.08.46.46,0,0,1,.52.34.66.66,0,0,1-.19.66ZM188.33,135a2,2,0,0,1-.37-1.27l-.24.08-3.51,1.44a.33.33,0,0,1-.13,0,.15.15,0,0,1-.09,0,.1.1,0,0,1,0-.09l.17-.11,1.55-.71,2.08-.92c.15-.07.15-.07.16-.25l-.45-.08a4.29,4.29,0,0,1-2.81-1.77,2.67,2.67,0,0,1,.29-3.43,5,5,0,0,1,2.83-1.46l.19,0,.08,0c0-.45,0-.9.06-1.35s.07-.89.11-1.35a3.36,3.36,0,0,0-.69.47c-.21-.12-.24-.2-.09-.34a6.06,6.06,0,0,1,.54-.47c.11-.1.23-.19.33-.29s.19-.16.45-.12c.08.16-.08.28-.12.45l.55.29a1.42,1.42,0,0,1,.34.25c.07,0,.14.14,0,.24-.39,0-.65-.32-1-.49-.06.9,0,1.78,0,2.66l.57,0a.13.13,0,0,0,.11,0,.81.81,0,0,1,.68-.07,4.89,4.89,0,0,1,2.28.95l.09.07v.62a2.64,2.64,0,0,0-.39-.34,4.58,4.58,0,0,0-2.14-.85c-.16,0-.32,0-.41-.16a.16.16,0,0,0-.09,0,3.84,3.84,0,0,0-.68,0v2.27a.28.28,0,0,0,.1.26,22.62,22.62,0,0,1,2.07,1.58,6.78,6.78,0,0,0,.73-.52c.24-.2.36-.2.59,0l.22.21v.59l-.59-.56-.75.44.91.64a.77.77,0,0,0,.43-.35v.73a5,5,0,0,1-2.79,1.28,3.07,3.07,0,0,0-.87.29c-.11,0-.1.12-.1.2,0,.27,0,.53,0,.79a.78.78,0,0,1-.17.59Zm2.14-6.67a.43.43,0,0,1-.15.47.3.3,0,0,1-.13-.38c.05-.1.07-.11.28-.09Zm-.41-.25a.5.5,0,0,1-.44.45.49.49,0,0,1-.53-.3.23.23,0,0,1,0-.18.68.68,0,0,1,.78-.23.24.24,0,0,1,.19.26Zm-.41.09h0l-.29-.19-.09.15c.11.09.21.18.38,0Zm1.49-.05a1.83,1.83,0,0,0-.13.22,1.24,1.24,0,0,1-.25-.82c0-.07,0-.12.16-.12s.1.22.16.33c.24,0,.37-.26.68-.18l-.19.26c.1.13.25.26.18.46a1,1,0,0,1-.61-.15Zm.5-2.68a1,1,0,0,1,.63,0v.1a.66.66,0,0,1-.45.13c-.07,0-.11-.1-.18-.18Zm.47,9.1a.67.67,0,0,1-.32.58.3.3,0,0,1,0-.41c.06-.09.08-.23.32-.17Zm.16-9.4-.23,0c-.22,0-.25,0-.36-.2.08-.12.22-.09.34-.09l.25,0v.2Zm-1.92,8.6a1.72,1.72,0,0,1-.07.21.77.77,0,0,0-.07.69s0,.08-.05.09-.09,0-.12,0a.43.43,0,0,1-.19-.42,2,2,0,0,1,.26-.52s.11-.06.17-.09l.07.05Zm-1.67-12.87a1.08,1.08,0,0,1-.08.19c-.34.48-.68,1-1,1.45-.06.08-.12.18-.26.19-.13-.14-.14-.2,0-.36s.23-.27.35-.4l.17-.21a1.34,1.34,0,0,1-.52-.63.22.22,0,0,1,.31,0l.37.37c.27-.2.39-.49.66-.67l.06,0Zm2.47,13.49.2,0c.18.07.21.16.09.3a.59.59,0,0,1-.58.14.52.52,0,0,1-.34-.37.18.18,0,0,1,.06-.15.81.81,0,0,1,.16-.16s0-.05,0-.05-.24-.12-.21-.24.18-.12.3-.13H191q.43,0,.3.39l-.11.22Zm-1.78-9.26c.25,0,.48-.22.77,0,.08-.06.14-.13.22-.18a.42.42,0,0,1,.69.22.36.36,0,0,1-.12.4c-.19,0-.2-.19-.34-.28l-.21.21-.17.19c-.23,0-.22-.19-.37-.3l-.25.38c-.24-.12-.3-.28-.22-.6Zm-1.26,1.51H188l-.14,0a4.63,4.63,0,0,0-2.7,1.53A2.25,2.25,0,0,0,185,131a3.85,3.85,0,0,0,2.74,1.67l.27,0c.05-2,.09-4,.13-6.07Zm.39,6.12h0a2.17,2.17,0,0,0,1.09-.15l1.7-.82a1.1,1.1,0,0,0,.14-.09c-1-.76-1.8-1.63-2.86-2.33,0,1.14,0,2.25-.07,3.39Zm-15.88-3.13-.2-.12s0,0-.06,0a1.31,1.31,0,0,1-.39.3c-.31.17-.61.36-.91.54a7.52,7.52,0,0,1-3.38,1.07,9.47,9.47,0,0,1-3.23-.3c-.74-.21-1.48-.41-2.21-.64a3.47,3.47,0,0,1-.78-.36.88.88,0,0,1-.48-.77c0-.32,0-.64,0-1s0-.85,0-1.27.05-.76.05-1.15q0-2,0-4c0-.63-.06-1.27-.09-1.91,0-.44,0-.89-.05-1.33a.86.86,0,0,0-.12-.44c-.15-.24-.1-.43.17-.6a3.4,3.4,0,0,1,1-.41,15.49,15.49,0,0,1,2.46-.47,26.92,26.92,0,0,1,2.85-.21c.51,0,1,0,1.52,0,.66,0,1.31.08,2,.12h.44a.62.62,0,0,1,.19,0,5.57,5.57,0,0,1,1.35.34l.17.09a.42.42,0,0,1,.22.56.92.92,0,0,1-.4.47.21.21,0,0,0-.12.23c0,.42.09.84.11,1.26,0,.91.08,1.83.11,2.74l.06,1.53c0,.88,0,1.77,0,2.65s0,1.75-.07,2.63a.66.66,0,0,1-.22.43Zm4.92-5.89-.68.15-.16.27a.36.36,0,0,1-.22-.48c.1-.38.21-.77.31-1.16,0-.18.06-.37.11-.56s.08-.09.13-.13.14.07.17.12.14.32.21.47c.19.41.39.81.58,1.21.1.2.2.38.08.6s-.18.18-.3,0-.18-.15-.15-.29-.05-.16-.08-.25Zm-.65-.27h.52l-.32-.88H177l-.15.87ZM166.1,135.05a.72.72,0,0,0-.14-.54c-.08-.08-.14-.22,0-.31a1.12,1.12,0,0,1-.11-.15.2.2,0,0,1,.07-.31,1.46,1.46,0,0,1,1.14-.12c.16.07.2.17.13.32s-.1.15-.15.23l.28.11c.23.11.29.24.17.44a1.2,1.2,0,0,1-.32.39,4.4,4.4,0,0,1-.74.41.72.72,0,0,1-.56,0c-.23-.07-.25-.19-.07-.31l.28-.17Zm.16-1.18h0l.08.24.4-.2,0-.06-.46,0Zm.59.85h0l0-.06h-.39c0,.09,0,.17.07.27l.35-.2Zm8.58-5.4a.8.8,0,0,1-.19-.64q.06-1.05.09-2.1a9.73,9.73,0,0,0-.06-1.07c0-.33-.07-.66-.1-1-.06-.71-.11-1.43-.16-2.14,0-.15,0-.3,0-.45,0-.4-.08-.8-.1-1.19s0-.86-.08-1.29-.07-1-.1-1.5c0,0,0-.09,0-.16l-.55.12a.62.62,0,0,1-.19,0,.15.15,0,0,1-.11-.08.12.12,0,0,1,.05-.12,3.06,3.06,0,0,1,1.41-.31c.06,0,.18.06.18.1a.32.32,0,0,1-.08.23.48.48,0,0,1-.19.09,1,1,0,0,1-.05-.12c-.16,0-.17.06-.15.16,0,.29.1.58.14.88.08.59.13,1.18.25,1.77s.08,1.32.17,2a1.93,1.93,0,0,1,0,.34.3.3,0,0,1-.22.29c0,.39.09.78.13,1.18a19.21,19.21,0,0,1,.27,2.63c0,.6,0,1.2,0,1.79,0,.18,0,.36,0,.56a2.9,2.9,0,0,0,.71-.15c.06,0,.09-.14.13-.21.2.11.25.21.18.37a.6.6,0,0,1-.49.38l-.71.09-.84.13c-.12,0-.22,0-.28-.09s0-.17.12-.2l.67-.22.23-.06Zm-14.69,3.61a.29.29,0,0,1-.19.31l-.16-.24c-.14,0-.25,0-.3-.13s.12-.23.24-.32,0-.26,0-.39a.27.27,0,0,1,0-.16c0-.05.09-.07.13-.11s.07.09.07.14,0,.28,0,.43a87.78,87.78,0,0,1,13.17-.64,1.15,1.15,0,0,0,0-.19c0-.06,0-.11,0-.17s0-.19.15-.2.13.1.15.18,0,.14.05.21a.23.23,0,0,0,.15.18c.18.07.21.14.11.28a.71.71,0,0,0-.09.51,1.49,1.49,0,0,1,0,.42c0,.06-.1.11-.17.18a2.67,2.67,0,0,0,0-.42,3.57,3.57,0,0,0-.12-.4c-.38,0-.75-.05-1.11-.05-.82,0-1.63,0-2.45,0s-1.44,0-2.16.07l-2,.07c-.56,0-1.12.06-1.69.1l-1.29.09c-.79.07-1.56.16-2.34.25l-.1,0Zm.41-14.27h0v.1c.07.64.15,1.28.21,1.92s.09,1.35.11,2c0,1,.05,1.92.06,2.89,0,.43,0,.86,0,1.29q0,1,0,2c0,.67.12.82.85,1.06.48.16,1,.32,1.47.44a12.55,12.55,0,0,0,2.68.49,7.17,7.17,0,0,0,4-.9l1.58-.89,0,0a.25.25,0,0,0,.15-.26c0-.22,0-.45,0-.67,0-.45.07-.91.08-1.36,0-1.24,0-2.47,0-3.71,0-1.43,0-2.87,0-4.31v-.45l-.23.07c-.22.06-.43.14-.66.19a23.78,23.78,0,0,1-4.38.58l-.72,0H164.5c-.24,0-.47,0-.63.17a.64.64,0,0,1-.12.06c0-.09-.05-.16-.07-.24a.58.58,0,0,0-.47,0c-.15,0-.27-.08-.39-.1s-.44,0-.65-.07-.66-.2-1-.31Zm9.73-1.68h0a23.76,23.76,0,0,0-2.91-.06c-.71.62-1.49,1.13-2.22,1.77h.71a.52.52,0,0,0,.37-.16c.31-.3.64-.58,1-.86a6,6,0,0,1,1.28-.77.71.71,0,0,1-.07.21,2.33,2.33,0,0,1-.31.32l-.95.76-.52.42a1.17,1.17,0,0,0,.32,0,.48.48,0,0,0,.44-.19,6.49,6.49,0,0,1,1.58-1.19,2,2,0,0,1,.26-.11l0,0a4.65,4.65,0,0,1-.71.69l-.79.66a2.73,2.73,0,0,0,.5,0,.47.47,0,0,0,.37-.17,7,7,0,0,1,1.61-1.28.78.78,0,0,1,0-.07Zm-5.18.06h0l-1.95,1.61h.19a.49.49,0,0,0,.46-.16,7.88,7.88,0,0,1,.75-.64c.33-.24.68-.45,1-.67a.28.28,0,0,1,.31,0l-.91.75a9.3,9.3,0,0,0-.9.78.93.93,0,0,0,.83-.21,8.56,8.56,0,0,1,1.93-1.47s0,0,.08-.08l-1.83.12Zm-.28,0h0c-.29,0-.54.08-.8.09a.73.73,0,0,0-.43.18c-.29.27-.59.52-.9.78l-.5.44.44,0a.36.36,0,0,0,.31-.11,7.4,7.4,0,0,1,.66-.58c.38-.28.79-.55,1.22-.85Zm6.62.21h0l-.95.85a2.39,2.39,0,0,0,1.51-.67l-.56-.18Zm-.84-.14h0l-1.52,1.2a.56.56,0,0,0,.46-.08,6.79,6.79,0,0,1,1.25-.83l.37-.21-.56-.08ZM162,118.43h0c.47.1.39.13.68-.14s.72-.59,1.08-.89l.15-.12a1.12,1.12,0,0,0-.78.29,1.69,1.69,0,0,1-.25.2l-.88.66Zm-.83-.37h0a.65.65,0,0,0,.41.26.25.25,0,0,0,.17,0l.95-.79a4.57,4.57,0,0,0-1.53.56ZM148,128.57a.74.74,0,0,1-.24,1.36l-.4.1a.61.61,0,0,1-.19,0,.38.38,0,0,1-.34-.17.18.18,0,0,1,.07-.24c0-.28-.09-.53-.12-.78s0-.22,0-.33,0-.18-.14-.24-.12-.16,0-.27a1,1,0,0,1,1.36-.2.41.41,0,0,1,.18.55l-.1.21Zm-.77,1h0a.32.32,0,0,0,.14,0l.24-.07c.23-.09.25-.13.18-.38a1.06,1.06,0,0,0-.56.11v.36Zm.46-1.32h0a.55.55,0,0,0-.56-.11s-.11.07-.11.11a3.34,3.34,0,0,0,.09.43l.58-.43Zm-7.42-5.2a.19.19,0,0,1-.14-.24c0-.31.07-.63.14-.94a8.34,8.34,0,0,1,.26-.85.51.51,0,0,1,.31-.32l.07.11a5.93,5.93,0,0,0,.65,1.28c.07.13,0,.46-.08.5a.19.19,0,0,1-.15,0,.32.32,0,0,1-.13-.07l-.78.19c0,.08-.09.19-.15.32Zm.9-.9h0l-.43-1a3.82,3.82,0,0,0-.26,1.25l.69-.21Zm11.54-1.88a.81.81,0,0,1-.1.27,3.67,3.67,0,0,1-.47.5.9.9,0,0,1-1.25-.11.85.85,0,0,1-.25-.75,2.66,2.66,0,0,1,.28-.85.8.8,0,0,1,1-.25c.29.15.31.28.09.54l-.21-.13a.36.36,0,0,0-.52.11,1.27,1.27,0,0,0-.15.81.41.41,0,0,0,.53.26c.25-.07.48-.17.72-.26l.29-.14Zm.65,5h0l.21-.08a5.69,5.69,0,0,0,1.53-1,3.67,3.67,0,0,0,1.2-3.15,3.4,3.4,0,0,0-1.29-2.22,5.65,5.65,0,0,0-2.41-1.13.7.7,0,0,1-.44-.18s-.15-.06-.23-.07a9.26,9.26,0,0,0-1.18,0,7,7,0,0,0-3.35,1.05,4.58,4.58,0,0,0-1.11.95,4.34,4.34,0,0,1,1.69,2.29l.14,0a6,6,0,0,1,2.69.66l.18.07a3,3,0,0,1,.32.11,4.64,4.64,0,0,1,1.41,1.34,4.5,4.5,0,0,1,.64,1.41Zm-7.7-5.68h0l-.21-.13a5.63,5.63,0,0,0-1.41-.5.66.66,0,0,1-.38-.17.32.32,0,0,0-.2-.06,5.65,5.65,0,0,0-1.3,0,5.76,5.76,0,0,0-3.31,1.42,3.28,3.28,0,0,0-1.11,3.59,4.57,4.57,0,0,0,3.88,3.06h.16a5.45,5.45,0,0,1,3.27-4.49,3.26,3.26,0,0,1,0-1.39,4.26,4.26,0,0,1,.58-1.34Zm7.32,6.34h0a7.23,7.23,0,0,1-5.77-.65,5.94,5.94,0,0,1-5,2.11,4.22,4.22,0,0,0,1.79,3,5.54,5.54,0,0,0,5,.74,5.61,5.61,0,0,0,3.49-2.78,4.15,4.15,0,0,0,.49-2.38Zm-4.91-3.86h0a4.08,4.08,0,0,1-.63,2.85,6.5,6.5,0,0,0,5.45.52,3.48,3.48,0,0,0-.61-1.42,7.89,7.89,0,0,0-1.55-1.38s-.05,0-.08,0a5.43,5.43,0,0,0-1.83-.52,1.72,1.72,0,0,0-.75,0Zm-2.91.66h0a5,5,0,0,0-2.93,4.11,5.24,5.24,0,0,0,4.54-1.9c-.27-.1-.35-.39-.66-.47,0,0-.05-.06-.07-.09s0-.1,0-.1-.09-.16-.16-.2a.24.24,0,0,1-.16-.23s0,0-.08,0-.07,0-.08-.08c0-.34-.29-.62-.37-1Zm.81-2.95h0a3.27,3.27,0,0,0-.55,2.39,8,8,0,0,1,2-.48,3.55,3.55,0,0,0-1.47-1.91Zm1.64,2.93h-.07l-1.05,1.48.17.18.79-.79a.29.29,0,0,0,0-.13c0-.24.08-.48.11-.73Zm-.21-.37h0l-.67.87-.45.61s0,.08,0,.13l.07,0,.05-.09,1.12-1.38a.27.27,0,0,0,.06-.19.85.85,0,0,0,0-.23c-.32,0-.4.05-.52.4.13,0,.17-.2.39-.15Zm-.77-.13h0l-.63.89a2.26,2.26,0,0,0-.13.2s0,.08,0,.13l1-1.27-.23,0Zm-.36.13h0l0,0c-.18.19-.37.39-.54.59,0,0,0,.1,0,.16h0l.52-.74Zm.74,2.28h0a1.64,1.64,0,0,0,.26-.53c-.32.32-.37.42-.26.53Zm-1.42-1.88h0a2.2,2.2,0,0,0,.17-.25c-.17,0-.28.06-.17.25Z"/><polygon class="cls-21" points="174.3 84.05 168.69 86.84 169.12 87.55 174.73 84.76 174.3 84.05 174.3 84.05"/><path class="cls-22" d="M132.49,109.17s-1-.07-1.16.2.76,1.78.94,1.91.22-2.11.22-2.11Z"/><path class="cls-23" d="M130.43,112.44s-3.78,5.16-5,9,1.26,13.43,1.7,16.07c.11.73.21,2,.3,3.5h22.69V130.37c0-3.55-7.06-17.93-7.06-17.93s-11.7,1.31-12.66,0Z"/><path class="cls-22" d="M150.15,141v-10.7a4.9,4.9,0,0,1-2.86.66c-1.67-.28-4-.7-5.75.05s-4.11-.43-4.11-1.84a35.58,35.58,0,0,0-.64-5.74,7.14,7.14,0,0,0-4.27-5c-3-1.12-3.21,0-3.21,0l1,.47L133.54,141Z"/><path class="cls-22" d="M126.5,118.88a18.89,18.89,0,0,0-1,2.51c-1.19,3.79,1.26,13.43,1.7,16.07.11.73.21,2,.3,3.5h2.64c-.83-8.51-1-18,1.47-22.15a4.34,4.34,0,0,0-5.07.07Z"/><path class="cls-24" d="M139.07,111.1s1,5.37,1,5.92-8.13-2-8.13-2l.69-7.29s3.47,4.18,6.44,3.39Z"/><path class="cls-25" d="M140.32,111.89s.76.3,4.43-2.52,15.17-13.83,17-16,3.17-4.07,3.17-4.8a2.75,2.75,0,0,1,1-2.24,3.81,3.81,0,0,1,1.71-.49c.39-.1,1.22-.41,1.6-.47s3.33-1.26,3.8-1.13,0,.86-1.37,1.52-2.41.85-2.52,1.35-.68,2.16-.14,1.59.72-1.36,1.26-1.9,1.17-.94,1.29-.49-1.13,2.58-1.62,3.32a10.17,10.17,0,0,1-2.72,2.87c-1.35.92-4.59,6-4.59,6s-5.44,9.16-8.93,12.54a69.59,69.59,0,0,1-8.12,6.49l-5.21-5.73Z"/><path class="cls-24" d="M159.66,95.59c1-1,1.73-1.75,2.09-2.17s.89-1,1.27-1.54a12.43,12.43,0,0,1,3.12,1.69A51.43,51.43,0,0,0,163,97.94l-3.34-2.35Z"/><path class="cls-23" d="M162.07,92.33s3.11,1.09,3.88,2.39l.77,1.3s-4.24,5.07-5.06,6.37-2.58,3.37-4.74,6.45a24.08,24.08,0,0,1-5.53,5.65c-.52.28-5.37,4.53-5.37,4.53l-6.7-6.09-.16-.92s4.11-1.31,5.08-2.24,1.51-2,2.2-2.28,1.69-1.7,2.3-2,.36-.65,1.73-1.56a21.46,21.46,0,0,0,3.05-2.74l8.55-8.82Z"/><path class="cls-25" d="M143.53,104.18a15.23,15.23,0,0,1-.55,3.93c-1.22,4.31-5.08,4.67-7.7,3.2-2.32-1.29-3.1-2.27-3.57-5,0,0,.24-3.37,1-4.55a17.61,17.61,0,0,1,1.58-2.16s.09,0,.83.77a2.78,2.78,0,0,0,1.46.87l-.61-1.36a10.59,10.59,0,0,0,2.24,1.8,4.4,4.4,0,0,0,3,.31l-.72-.47a2.73,2.73,0,0,1-.86-1.77,11,11,0,0,0,2.79,2.29,2.46,2.46,0,0,1,1.19,2.1Zm-11.82,2.16q-.11-.53-.18-1.17c-.09-.71-.17-1.41-.2-2.11l.38,3.28Z"/><path class="cls-26" d="M136.54,103.26a.79.79,0,1,0,.6.77.7.7,0,0,0-.6-.77Zm5.19,0a.79.79,0,1,0,.61.77.7.7,0,0,0-.61-.77Z"/><path class="cls-27" d="M139.8,103.68a13.56,13.56,0,0,0,1.24,3.09c.27.26-1.43.37-1.43.37v.22s2.23-.13,1.6-.74a13.88,13.88,0,0,1-1.18-3l-.24.06Z"/><path class="cls-18" d="M141.13,108.42a9.77,9.77,0,0,1-2.13.12c-1.1-.07-2.33-.22-2.33-.22a3.53,3.53,0,0,0,2.42,1.05,2.55,2.55,0,0,0,2-1Z"/><path class="cls-26" d="M133,95c-5-.06-4.92,8.09-2.6,10.41,1.81,1.8,2.06,2,2.06,2a29.35,29.35,0,0,1-.27-4.5,8.53,8.53,0,0,1,2-3.34c.18,0,1.28,1.51,2.29,1.64l-.61-1.36c1.24,1.52,3,2.81,5.2,2.11l-.72-.47a2.73,2.73,0,0,1-.86-1.77,11,11,0,0,0,2.79,2.29c1.56.83,1.15,3,1.15,3,3.32-3.84,1.83-8.5-3.08-10.48C135.68,92.74,133,95,133,95Z"/><path class="cls-27" d="M141.84,107.57s.28.21-.22,1.23l.23.09c.57-1.17.16-1.48.16-1.48l-.17.16Z"/><path class="cls-27" d="M135.21,107.19a1.61,1.61,0,0,0-.09,1.71l.21-.11a1.41,1.41,0,0,1,.09-1.48l-.21-.12Z"/><path class="cls-21" d="M131.33,109.37s-1.57,2.26-1.57,3.21,7.38,7.51,7.38,7.51l2.85-3.46s-8.57-4.64-8.66-7.26Z"/><polygon class="cls-28" points="141.62 114.63 140.39 118.88 139.16 112.01 141.62 114.63 141.62 114.63"/><polygon class="cls-29" points="139.99 116.63 140.38 118.81 138.6 118.31 139.99 116.63 139.99 116.63"/><path class="cls-23" d="M129.15,117.9a6.67,6.67,0,0,1,5.55,3.17c2,3.26,2,12,2,17.24,0,.77,0,1.67,0,2.65h-7.24c-.08-.87-.18-1.68-.3-2.38-.88-5.31-3.41-12-3-15.83s3-4.85,3-4.85Z"/><path class="cls-25" d="M131.7,103.81a1.15,1.15,0,0,0-1.1,0c-.76.52-.24,3.28,1.22,3.11a8.38,8.38,0,0,1-.12-3.1Z"/><path class="cls-26" d="M142.86,102.7s-1.38-1.12-2.37.13l.34.22c.72-.91,1.75-.07,1.76-.07l.27-.28Zm-5.24,0s-1.38-1.12-2.37.13l.34.22c.72-.91,1.75-.07,1.75-.07l.28-.28Z"/><polygon class="cls-21" points="141.62 114.63 142.02 117.25 141.05 116.59 141.62 114.63 141.62 114.63"/><path class="cls-22" d="M147.43,107.86s3-.14,4.16,1.59l.28-.16c-1.26-1.88-4.44-1.73-4.45-1.73v.3Zm-2,1.62s3.58,3.14,1.8,6.8l.3.12c1.87-3.85-1.85-7.13-1.86-7.14l-.24.22Zm8.11-7.16s1,1.46,3.93,1.46v-.31c-2.73,0-3.65-1.31-3.65-1.32l-.28.17Zm-2.56,1.85a3.58,3.58,0,0,1,2.33,4.68l.32.08a3.87,3.87,0,0,0-2.55-5l-.1.28Zm-4.87,14.26s-1.87-3.68-4.84-5.13l-.16.26c2.88,1.41,4.7,5,4.7,5l.3-.13Zm-7.62,3.24s2.3,4.82,7,6l.08-.29c-4.56-1.13-6.79-5.81-6.79-5.82l-.31.12Zm-10.59,1.46S127,133.28,132,138.45l.25-.2c-4.9-5.07-4.06-15.07-4.05-15.1l-.33,0Zm3.31,2.76s-.12,7.91,2.31,10.92l.27-.18c-2.37-2.93-2.25-10.71-2.25-10.74Z"/><path class="cls-24" d="M130.64,104.8s0-.52.37-.59.5.43.51.87-.09,1.18-.16,1.08-.36-.65-.47-.47-.54-.18-.25-.4.53.39.63,0-.19-.44-.46-.4-.17-.09-.17-.09Z"/><polygon class="cls-30" points="122.54 109.68 89.3 109.68 89.3 79.79 122.54 79.79 122.54 109.68 122.54 109.68"/><polygon class="cls-31" points="122.54 109.68 89.3 109.68 89.3 85.55 122.54 109.45 122.54 109.68 122.54 109.68"/><polygon class="cls-32" points="122.54 140.96 89.3 140.96 89.3 111.08 122.54 111.08 122.54 140.96 122.54 140.96"/><polygon class="cls-33" points="227.13 109.68 193.89 109.68 193.89 79.79 227.13 79.79 227.13 109.68 227.13 109.68"/><polygon class="cls-32" points="227.13 140.96 193.89 140.96 193.89 111.08 227.13 111.08 227.13 140.96 227.13 140.96"/><path class="cls-31" d="M227.13,141H193.89v-5.08c2.27-2.11,5.7-3.37,4.54-6.63-1.83-5.15-3.91-5.62,2.47-11.27s14-6.61,24.68-.55c.56.31,1.07.62,1.55.91V141Z"/><polygon class="cls-33" points="122.54 78.39 89.3 78.39 89.3 48.51 122.54 48.51 122.54 78.39 122.54 78.39"/><polygon class="cls-33" points="192.27 78.39 159.03 78.39 159.03 48.51 192.27 48.51 192.27 78.39 192.27 78.39"/><polygon class="cls-31" points="227.13 78.39 193.89 78.39 193.89 48.51 227.13 48.51 227.13 78.39 227.13 78.39"/><path class="cls-34" d="M104.94,51.18a3,3,0,0,0-4.34,2.23,4.32,4.32,0,0,0-3.4.65,2.37,2.37,0,0,0-1,2.89A3.47,3.47,0,0,0,94,59.62a3.58,3.58,0,0,0,.53,2.86s-1,1.93-.06,3.28,1.14,1.12,1.14,1.12a2.25,2.25,0,0,0,.92,2.29,6.48,6.48,0,0,0,3.29.93s.18.82,1.56,1a3.37,3.37,0,0,0,2.16-.36,4.87,4.87,0,0,0,2.68.86,2.33,2.33,0,0,0,2.07-.94s2.21.82,3.55,0a2,2,0,0,0,1.07-2.07,2.54,2.54,0,0,0,3-.66c1.59-1.48.73-2.6.73-2.6a2.67,2.67,0,0,0,2-2.16c.43-1.91-1.53-2.93-1.53-2.93a3.49,3.49,0,0,0,.61-3.27A2.24,2.24,0,0,0,115,55.24a2.05,2.05,0,0,0-.45-2.35c-1.08-1.38-3.54-1-3.54-1a2.86,2.86,0,0,0-1.66-1.35,1.73,1.73,0,0,0-1.72.52,2,2,0,0,0-2.73.12Z"/><path class="cls-35" d="M105.11,72a20.27,20.27,0,0,0-4.51,1.07c-1.68.74-3.68,2.41-4.07,3.81a9.28,9.28,0,0,0-.13,1.49h20.79c-1.56-4.87-4.94-6.81-12.08-6.37Z"/><path class="cls-36" d="M101.38,72.8c-.28.09-.54.19-.78.29-1.68.74-3.68,2.41-4.07,3.81a9.28,9.28,0,0,0-.13,1.49h5V72.8Zm15.81,5.59c-1-3-2.59-4.86-5.35-5.78v5.78Z"/><path class="cls-37" d="M108.74,68.59s-.45,2.69,0,3.27a2.66,2.66,0,0,0,1.41.76,6.63,6.63,0,0,1-4.31.85c-2.56-.34-2.3-.91-2.3-.91s1.16,0,1.2-.76,0-2.73,0-2.73a4.82,4.82,0,0,0,4-.48Z"/><path class="cls-38" d="M111.51,62.92s.09-.57,1.39-.22.26,3-.69,3.16-1.16,0-1.16,0l.46-2.94Z"/><path class="cls-38" d="M100.92,62.92s-.09-.57-1.39-.22-.26,3,.7,3.16,1.15,0,1.15,0l-.46-2.94Z"/><path class="cls-38" d="M108.74,68.59a14.27,14.27,0,0,0-.19,2.51,5.45,5.45,0,0,1-3.79.25c0-.88,0-2.28,0-2.28a4.82,4.82,0,0,0,4-.48Z"/><path class="cls-37" d="M110.51,57.81c1.08,1.19,1.81,3.23.95,7.81a5.31,5.31,0,0,1-10.48,0c-.86-4.58-.17-6.57,1-7.81s7.5-1.23,8.58,0Z"/><path class="cls-34" d="M104,61.92a.58.58,0,1,1-.45.56.51.51,0,0,1,.45-.56Z"/><path class="cls-34" d="M108.74,61.92a.58.58,0,1,1-.45.56.51.51,0,0,1,.45-.56Z"/><path class="cls-39" d="M102.28,61.08s1.47-1.2,2.67,0l-.32.28c-.91-.88-2.06.07-2.06.07l-.29-.31Zm7.87,0s-1.47-1.2-2.67,0l.32.28c.91-.88,2.06.07,2.06.07l.29-.31Z"/><path class="cls-40" d="M105.38,64.58a1.4,1.4,0,0,0,1.66.07l.28.31a1.85,1.85,0,0,1-2.21-.06l.27-.32Z"/><path class="cls-40" d="M104.57,66.43a3.5,3.5,0,0,0,3.39.12l.19.37a4,4,0,0,1-3.84-.16l.26-.33Z"/><path class="cls-35" d="M112.3,58.91a4,4,0,0,0-2.51-2,10.7,10.7,0,0,0-7.15,0,4,4,0,0,0-2.51,2c-1.37-5.44,13.55-5.44,12.17,0Z"/><path class="cls-18" d="M120.65,78.39H91.46a1.15,1.15,0,0,1,0-.19V76.47a1.66,1.66,0,0,1,1.71-1.6h25.78a1.67,1.67,0,0,1,1.72,1.6V78.2a1.15,1.15,0,0,1,0,.19Z"/><path class="cls-15" d="M204.21,91.89a1.65,1.65,0,0,0,1.44,1.74.92.92,0,0,0,.75-.37l-.29-2.14c-.81-.51-1.82-.3-1.9.77Z"/><path class="cls-15" d="M217.92,91.89a1.65,1.65,0,0,1-1.44,1.74.94.94,0,0,1-.75-.37l.3-2.14c.8-.51,1.81-.3,1.89.77Z"/><path class="cls-36" d="M209.83,100.34a6.4,6.4,0,0,1-3.56,1.13c-1.72-.16-4.17-.12-5.5,2.1a40.28,40.28,0,0,0-2.64,6.11h24.75a9.57,9.57,0,0,0-1.53-5.64,7.39,7.39,0,0,0-5.06-2.8s-5.78.75-6.46-.9Z"/><path class="cls-41" d="M202.3,109.68h.53c.57-2.2,1.62-5,1.62-5l-.49-.15s-1.08,2.86-1.66,5.12Zm16.25,0h.53c-.58-2.26-1.66-5.11-1.66-5.12l-.49.15s1,2.77,1.62,5Z"/><path class="cls-16" d="M213.52,96.61s-.11,3.41.56,4a4.35,4.35,0,0,0,2.21.63,16.33,16.33,0,0,1-5.41,1.26,5.71,5.71,0,0,1-3.45-1.08s1.58-.49,1.71-1.33a22.09,22.09,0,0,0,0-3s4,.13,4.38-.48Z"/><path class="cls-15" d="M213.52,96.61a19.64,19.64,0,0,0,0,2.11A5.7,5.7,0,0,1,210,99a5.15,5.15,0,0,1-.84-.23c0-.88-.05-1.72-.05-1.72s4,.13,4.38-.48Z"/><path class="cls-16" d="M211.81,86s-2.48.27-4.13.66-1.93,2.27-2,3.15a11.38,11.38,0,0,0,0,1.68s0,5.28,4.35,6.1,6-2.3,6.17-4.05a37,37,0,0,0,0-4.77c0-.76-1.29-2.77-4.39-2.77Z"/><path class="cls-42" d="M216.27,92.6c.75-1.25,2.58-4.81,1.65-7.79-.34-1.12-2.32-2.24-2.3-1.76s1.22,1-1-.16a13.52,13.52,0,0,0-6.83-1c-1.35.19-1.53.57-.91.82a4.55,4.55,0,0,1,.83.4c-2-.37-4,1-4.52,1.29s.37.68.37.68-.79,0-1.11,1.71-.3,2.78,0,2.84.95-1,.95-1a17.63,17.63,0,0,0,1.18,2.86A13.42,13.42,0,0,0,205.86,93,10.85,10.85,0,0,1,206,89c.53-1.57,3-2.16,4.29-2.35s3.12-.38,3.12-.38,1.54,1.07,2.12,1.61.74,4.76.74,4.76Z"/><path class="cls-14" d="M209.14,90.07a.7.7,0,1,1-.54.68.62.62,0,0,1,.54-.68Z"/><path class="cls-14" d="M212.7,90.07a.71.71,0,1,1-.53.68.62.62,0,0,1,.53-.68Z"/><path class="cls-43" d="M207.43,89.51a2.06,2.06,0,0,1,2.91-.09l-.35.33a1.53,1.53,0,0,0-2.17.06l-.39-.3Zm4.1,0a2.05,2.05,0,0,1,2.91-.09l-.36.33a1.53,1.53,0,0,0-2.17.06l-.38-.3Z"/><path class="cls-44" d="M210.17,92.73a1.68,1.68,0,0,0,1.7-.06l.27.28a2.13,2.13,0,0,1-2.18.1l.21-.32Z"/><path class="cls-18" d="M209.36,94.7a35.71,35.71,0,0,1,4-.07c.17.15-2.86,1.43-4,.07Z"/><path class="cls-18" d="M209,90.39a.16.16,0,1,1,0,.31.16.16,0,1,1,0-.31Z"/><path class="cls-18" d="M212.93,90.39a.16.16,0,1,1,0,.31.16.16,0,1,1,0-.31Z"/><path class="cls-18" d="M152.42,78.39H125.33c0-.1,0-.21,0-.31V75.22c0-1.45.72-2.63,1.6-2.63h23.92c.88,0,1.6,1.18,1.6,2.63v2.86c0,.1,0,.21,0,.31Z"/><path class="cls-34" d="M207.12,55.17s-1.54-1-1.54-1.67-.89-2.5-1.73-2.69a4,4,0,0,0-2.11.43s-1.34-.07-1.66.5a1.59,1.59,0,0,0-.2,1.07.91.91,0,0,0-.82,1,2.44,2.44,0,0,0,.18,1.17s-1.19.85-.68,1.65.61.94.61.94-.89.24-.49,1,.7.9.7.9-.29,1.72.35,2a3,3,0,0,0,1,.26,2.67,2.67,0,0,0,1.14.47,1.91,1.91,0,0,0,.88-.25s1.2.28,1.59,0,.18-4.54,2.76-6.77Z"/><path class="cls-34" d="M213.91,55.17s1.53-1,1.53-1.67.89-2.5,1.74-2.69a4,4,0,0,1,2.1.43s1.34-.07,1.66.5a1.59,1.59,0,0,1,.2,1.07.91.91,0,0,1,.82,1,2.44,2.44,0,0,1-.18,1.17s1.19.85.69,1.65-.61.94-.61.94.88.24.49,1-.7.9-.7.9.29,1.72-.35,2a3,3,0,0,1-1,.26,2.67,2.67,0,0,1-1.15.47,1.91,1.91,0,0,1-.88-.25s-1.18.95-2-.07.23-4.45-2.35-6.68Z"/><path class="cls-38" d="M205.58,63.6s.25,1.58-.71,1.1a2.76,2.76,0,0,1-1-2.85c.24-.71.56-.81.56-.81s1.17-.15,1.17,2.56Z"/><path class="cls-38" d="M215,63.6s.22,1.49,1.18,1,.79-2.06.55-2.76-.55-.81-.55-.81S215,60.89,215,63.6Z"/><path class="cls-37" d="M208.22,67.69s.5,2.33-.3,2.5a45.58,45.58,0,0,0-6.7,2.29c-1.16.68-1.71,2-2.07,3.75-.18.89-.28,1.64-.34,2.16h23.67c0-1.28-.15-3.25-.92-4.27-1.15-1.56-4.68-3.14-5.64-3.59s-2-.28-2-1.07V67.19s-3.62,1.42-5.69.5Z"/><path class="cls-38" d="M208.22,67.69s.48,2.26-.27,2.49a6.19,6.19,0,0,0,4,.48,5.18,5.18,0,0,0,2-1.08.49.49,0,0,1,0-.12V67.19s-3.62,1.42-5.69.5Z"/><path class="cls-34" d="M211,54s-3.38,0-5.09,1.49a7,7,0,0,0-2.07,4.75c-.12,1,.88,2.14,1,2.79s.25-3,.4-3.92,1.6-1.3,2.14-1.16a10.56,10.56,0,0,0,4.53.11c1.43-.48,2.1,0,2.35.49a3.38,3.38,0,0,0,.91,1.26c.4.29.55,2.32.55,2.32a8.35,8.35,0,0,1,.85-1.64c.21-.11.7-6.49-5.6-6.49Z"/><path class="cls-37" d="M215.92,60.58s-.21,4.63-.43,5.45A5.51,5.51,0,0,1,212,69.3c-2.07.59-5.48-.56-6-2.46a25.54,25.54,0,0,1-1.19-5.16c0-.24,0-.48-.05-.71a3.84,3.84,0,0,1,2.43-3.84c1.4-.42,5.3-.79,6.82-.08s2,3.53,2,3.53Z"/><path class="cls-34" d="M208.22,62.58a.7.7,0,1,1-.59.69.65.65,0,0,1,.59-.69Z"/><path class="cls-34" d="M213.32,62.58a.7.7,0,1,1-.58.69.64.64,0,0,1,.58-.69Z"/><path class="cls-39" d="M206.47,61.69a2.56,2.56,0,0,1,2.89,0l-.41.43a1.91,1.91,0,0,0-2.13,0l-.35-.48Z"/><path class="cls-39" d="M211.88,61.69a2.55,2.55,0,0,1,2.89,0l-.41.43a1.91,1.91,0,0,0-2.13,0l-.35-.48Z"/><path class="cls-40" d="M209.55,65s1.25.93,2.17-.06l.47.37c-1.31,1.41-3,.14-3,.14l.38-.45Z"/><path class="cls-40" d="M208.91,66.79s2.39,1.13,3.66-.1l.33.3c-1.5,1.46-4.19.19-4.2.19l.21-.39Z"/><path class="cls-45" d="M205.63,53.15a.89.89,0,1,1-1,.89.93.93,0,0,1,1-.89Z"/><path class="cls-36" d="M204.62,54.24a.89.89,0,1,1,0,1.77.89.89,0,1,1,0-1.77Z"/><path class="cls-45" d="M215.4,53.15a.89.89,0,1,0,.95.89.93.93,0,0,0-.95-.89Z"/><path class="cls-36" d="M216.4,54.24a.89.89,0,1,0,1,.89.93.93,0,0,0-1-.89Z"/><path class="cls-36" d="M201.46,71.66l2.71-1s1.57,4,4.53,4.91,6.81-.36,7.22-1.61,1-3.61,1-3.61l2.46,1.38v5a15.85,15.85,0,0,0,.15,1.68h-18c.22-2.1.43-5.11,0-6.73Z"/><path class="cls-18" d="M208.21,63.27a.16.16,0,0,1,.16.15.15.15,0,0,1-.16.14.15.15,0,0,1-.15-.14.15.15,0,0,1,.15-.15Z"/><path class="cls-18" d="M213.38,63.27a.15.15,0,0,1,.15.15.15.15,0,0,1-.15.14.15.15,0,0,1-.16-.14.16.16,0,0,1,.16-.15Z"/><path class="cls-45" d="M202.22,71.89a.36.36,0,0,1,.38.35.38.38,0,0,1-.76,0,.36.36,0,0,1,.38-.35Z"/><path class="cls-45" d="M204.33,71.89a.36.36,0,0,1,.38.35.39.39,0,1,1-.38-.35Z"/><path class="cls-45" d="M203.12,73.6a.36.36,0,1,1-.38.35.37.37,0,0,1,.38-.35Z"/><path class="cls-45" d="M205.47,74.14a.35.35,0,1,1-.38.35.37.37,0,0,1,.38-.35Z"/><path class="cls-45" d="M202.36,75.43a.37.37,0,0,1,.38.35.38.38,0,0,1-.76,0,.37.37,0,0,1,.38-.35Z"/><path class="cls-45" d="M204.55,76.13a.36.36,0,1,1,0,.71.36.36,0,1,1,0-.71Z"/><path class="cls-45" d="M202.6,77.45a.37.37,0,0,1,.38.35.38.38,0,0,1-.76,0,.37.37,0,0,1,.38-.35Z"/><path class="cls-45" d="M207.09,76.13a.36.36,0,1,1-.38.36.37.37,0,0,1,.38-.36Z"/><path class="cls-45" d="M206,77.45a.37.37,0,0,1,.38.35.38.38,0,0,1-.76,0,.37.37,0,0,1,.38-.35Z"/><path class="cls-45" d="M209.06,76.13a.36.36,0,1,1-.38.36.37.37,0,0,1,.38-.36Z"/><path class="cls-45" d="M211.25,76.13a.36.36,0,1,1-.38.36.37.37,0,0,1,.38-.36Z"/><path class="cls-45" d="M209.3,77.45a.37.37,0,0,1,.38.35.38.38,0,0,1-.76,0,.37.37,0,0,1,.38-.35Z"/><path class="cls-45" d="M213.79,76.13a.36.36,0,1,1-.38.36.37.37,0,0,1,.38-.36Z"/><path class="cls-45" d="M212.71,77.45a.37.37,0,0,1,.38.35.38.38,0,0,1-.76,0,.37.37,0,0,1,.38-.35Z"/><path class="cls-45" d="M215.3,75.43a.37.37,0,0,1,.38.35.36.36,0,0,1-.38.35.37.37,0,0,1-.39-.35.38.38,0,0,1,.39-.35Z"/><path class="cls-45" d="M217.48,76.13a.36.36,0,1,1-.38.36.37.37,0,0,1,.38-.36Z"/><path class="cls-45" d="M215.53,77.45a.37.37,0,0,1,.38.35.38.38,0,0,1-.76,0,.37.37,0,0,1,.38-.35Z"/><path class="cls-45" d="M218.94,77.45a.37.37,0,0,1,.38.35.38.38,0,0,1-.76,0,.37.37,0,0,1,.38-.35Z"/><path class="cls-45" d="M218.67,75.19a.37.37,0,0,1,.38.35.38.38,0,0,1-.76,0,.37.37,0,0,1,.38-.35Z"/><path class="cls-45" d="M217.1,73.78a.36.36,0,1,1-.38.36.37.37,0,0,1,.38-.36Z"/><path class="cls-45" d="M218.67,72.59a.36.36,0,1,1-.38.35.37.37,0,0,1,.38-.35Z"/><path class="cls-45" d="M217.48,71.18a.36.36,0,1,1-.38.35.37.37,0,0,1,.38-.35Z"/><path class="cls-46" d="M217.91,77.29a15.48,15.48,0,0,0-.92-3.72,5.91,5.91,0,0,1-.79-2.9c0-.92-.57-1.81,0-1.88a.74.74,0,0,1,.9.6c.1.36.12,1,.23,1.28s.07.51.19.32a10.72,10.72,0,0,0,.62-2.21,21,21,0,0,1,.32-2.48.43.43,0,0,1,.75.1c.13.38-.12,3.08,0,3.15a13.58,13.58,0,0,0,.52-2.33c.08-.35.06-1.1.61-1.1s.32,1.19.27,1.49a18.42,18.42,0,0,0-.36,2.22c.08.14.22.17.27,0s.83-2,.93-2.36.28-.74.61-.67.39.33.25.89-1,2.84-1,3a.24.24,0,0,0,.23.28,6.15,6.15,0,0,0,1.23-.75,5.21,5.21,0,0,1,.81-.82c.21-.09.59-.06.57.24a6.15,6.15,0,0,1-1.25,1.64,10.82,10.82,0,0,1-.94.82,14.58,14.58,0,0,1-1.39,2.15c-.23.07.89,4.09.89,4.09H218l-.06-1.1Z"/><path class="cls-47" d="M180,74.11h12.3v4.28H178.58v-3A1.35,1.35,0,0,1,180,74.11Z"/><path class="cls-28" d="M178.08,74.62h14.19v3.77h-15.5V75.84a1.27,1.27,0,0,1,1.31-1.22Z"/><path class="cls-48" d="M174.44,70c1.27,1.76,5.73,1,6.3-.42,4.13,1.46,5.08,2.06,5.36,6.27a12.48,12.48,0,0,1-.28,2.57H168.58l-.08-3c0-.9,1-4.14,5.94-5.37ZM168,75.39s-.47,1.41-1.06,3h1l0-3Z"/><path class="cls-49" d="M181.21,72.28a8.61,8.61,0,0,0-3.6,4.89c-.14.45-.28.86-.43,1.22h2.66l1.37-6.11Z"/><path class="cls-50" d="M174.44,70s4.17-.89,6.3-.42c1,.91-5.38,3.32-6.3.42Z"/><path class="cls-25" d="M179.23,65.16a6.92,6.92,0,0,0,.48,2.69,5.1,5.1,0,0,0,1.2,2.24,5.67,5.67,0,0,1-3,1.52,4.76,4.76,0,0,1-3-.77l.34-3.64a4.09,4.09,0,0,0,4-2Z"/><path class="cls-18" d="M174.44,70c1.27,1.76,5.73,1,6.3-.42,0,0,.32.11.8.3a6,6,0,0,1-4.14,1.78,5.14,5.14,0,0,1-3.79-1.43c.23-.09.66-.18.83-.23Z"/><path class="cls-49" d="M172.05,73.55a13.44,13.44,0,0,0-1.79,4.84h-1.37a8.28,8.28,0,0,1,3.16-4.84Z"/><path class="cls-51" d="M179.23,65.16a6.92,6.92,0,0,0,.48,2.69l.09.25a5.18,5.18,0,0,1-3.6,1.32,5.49,5.49,0,0,1-1.2-.17l.19-2a4.09,4.09,0,0,0,4-2Z"/><path class="cls-4" d="M174.65,52.59a6.1,6.1,0,0,0-4.59.72,4.25,4.25,0,0,1,4.59-.72ZM169,54.16c-1.19,1.36-1.73,5.07,1.27,4.88,1.81-.11,6.86-.65,7.48.11s-.61,4.66.62,5,1.09,1.32,2.19,1.32S183.54,64,184,61s-.44-10.06-8.36-8.19c-3.76-1.81-5.74,0-6.62,1.39Z"/><path class="cls-25" d="M170.59,59a10.38,10.38,0,0,1,.19,4.51c-.39,2.9,2.82,4.29,4.69,4.32a4.72,4.72,0,0,0,5-4.07s1.15-.62,1.25-1.56-1.09-1.29-1.6-1a1.76,1.76,0,0,0-.83,1.51c0,.62-.16,1-.45,1-.75,0-.44-3.17-.24-3.57a1.14,1.14,0,0,0-.62-1.73c-.52-.21-5.72.26-7.36.54Z"/><path class="cls-24" d="M170.59,59a4.63,4.63,0,0,1,.16.63,32.1,32.1,0,0,1,4.69-.61c2.57-.1,2.66.09,2.94,1.11a.64.64,0,0,0,.13.26,1,1,0,0,1,.06-.2,1.14,1.14,0,0,0-.62-1.73c-.52-.21-5.72.26-7.36.54Z"/><path class="cls-4" d="M172.77,60.88a.66.66,0,1,1-.54.65.6.6,0,0,1,.54-.65Z"/><path class="cls-4" d="M176.22,60.88a.66.66,0,1,1-.54.65.6.6,0,0,1,.54-.65Z"/><path class="cls-27" d="M174.33,62.2s-.39,1.32-1,1.63a.19.19,0,0,0-.12.15.14.14,0,0,0,0,.11.35.35,0,0,0,.14.13.89.89,0,0,0,.75.09l.08.21a1.17,1.17,0,0,1-1-.11.67.67,0,0,1-.21-.2.37.37,0,0,1,.17-.58c.49-.26.85-1.49.85-1.49l.24.06Z"/><path class="cls-27" d="M173.66,65.41a1.88,1.88,0,0,0,2.35-.36l.27.22a2.24,2.24,0,0,1-2.82.42l.2-.28Z"/><path class="cls-4" d="M171.75,60.2a1.47,1.47,0,0,1,2,0l-.33.33a1,1,0,0,0-1.31,0l-.34-.31Zm3.4,0a1.47,1.47,0,0,1,2,0l-.33.33a1,1,0,0,0-1.31,0l-.34-.31Z"/><path class="cls-49" d="M184.48,72.28c.4,1.44-.17,3.8-1,6.11h1.9c.3-2.38.2-4.7-.85-6.11Z"/><path class="cls-48" d="M184,78.39c1-3,1.3-6,0-6.47-3.34-1.25-5.28,3-6.43,6.47Z"/><path class="cls-18" d="M173.05,61.17a.18.18,0,1,1-.18.17.18.18,0,0,1,.18-.17Z"/><path class="cls-18" d="M176.48,61.17a.18.18,0,0,1,.18.17.18.18,0,0,1-.18.18.18.18,0,1,1,0-.35Z"/><path class="cls-24" d="M181.14,61.94a.73.73,0,0,0-.73-.42c-.57,0-.87,1-.72,1.43s.78-.11.89.17.55-.07.41-.44-.85,0-.86-.31.23-.53.38-.4.37.33.54.21.09-.24.09-.24Z"/><path class="cls-3" d="M159,62.93l7.25-.54A.69.69,0,0,1,167,63l2.95,15.42H159V62.93Z"/><path class="cls-52" d="M159,63.19l6.86-.53a.7.7,0,0,1,.72.59l3,15.14H159V63.19Z"/><path class="cls-49" d="M182.68,73.05a21.53,21.53,0,0,1-.51,5.34h-.25a21.73,21.73,0,0,0,.52-5.33Z"/><path class="cls-49" d="M173.61,72.8a9.06,9.06,0,0,0,3.16,4.54l-.15.18a9.27,9.27,0,0,1-3.25-4.67l.24,0Zm-1.09,1.84a6.33,6.33,0,0,0,.65,3.75h-.27a6.59,6.59,0,0,1-.62-3.79l.24,0Z"/><path class="cls-35" d="M105.88,82.36s1-1,3.56,0,2.93,3.4,3.5,4.67,2.55,1.26,2,3.57-.64,1.4.1,2.54,1.13,2.27.31,3a1.57,1.57,0,0,0-.28,2.43c.74,1,2.4,1.35.74,3.82s-17.59,2.68-18.91,0,.3-2.58,0-4.65-1.11-3.14,0-4.28-.53-1.56-.1-3.39S98.74,89,99,87.51s1.94-6.21,6.9-5.15Z"/><path class="cls-53" d="M103.39,96.27s.2,3.18-1,3.94-6.54.85-7.77,1.71c-1,.74-1.56,6.17-1.69,7.76h24c.11-1.81.24-6.49-1.54-7.37-2.21-1.1-5.83-1-6.8-2.64s-.6-2.45-.6-2.45-4.12.08-4.58-1Z"/><path class="cls-54" d="M103.39,96.27a10.34,10.34,0,0,1-.11,2.12,8.2,8.2,0,0,0,1.65.79,4.78,4.78,0,0,0,3.36,0,2.53,2.53,0,0,1-.32-1.92s-4.12.08-4.58-1Z"/><path class="cls-53" d="M111,87.9a10.51,10.51,0,0,0,.28,2.7,8.61,8.61,0,0,1-.69,5.24,4.81,4.81,0,0,1-5.67,1.93c-2.36-.88-3.32-2-3.54-3.4a14.73,14.73,0,0,0-.47-2.18,3.46,3.46,0,0,0,.41-2c-.2-.87-.22-1,.36-1.69s.15-.87.62-1.53.88-1.62,2-.81,1.91,0,2.66-.31,1.41-.94,1.93.41,1.86,1,2,1.19a.45.45,0,0,1,.09.42Z"/><path class="cls-55" d="M108.9,90.26a.57.57,0,0,0-.54.59.58.58,0,0,0,.54.59.57.57,0,0,0,.54-.59.56.56,0,0,0-.54-.59Z"/><path class="cls-55" d="M104.2,90.26a.56.56,0,0,0-.54.59.54.54,0,1,0,1.08,0,.56.56,0,0,0-.54-.59Z"/><path class="cls-56" d="M110.27,89.91a2,2,0,0,0-2.73-.07l.15.16a1.77,1.77,0,0,1,2.41,0l.17-.14Z"/><path class="cls-56" d="M105.57,89.91a2,2,0,0,0-2.74-.07L103,90a1.77,1.77,0,0,1,2.41,0l.17-.14Z"/><path class="cls-17" d="M106.44,91.31s.19,1.12.63,1.36a.59.59,0,0,1,.22.19.23.23,0,0,1,0,.17.21.21,0,0,1-.1.17.91.91,0,0,1-.42.2l.07.24a1.35,1.35,0,0,0,.54-.26.5.5,0,0,0,.18-.33.48.48,0,0,0-.09-.32.93.93,0,0,0-.31-.28c-.33-.17-.5-1.17-.5-1.18l-.27,0Z"/><path class="cls-18" d="M108.19,94.65s-3.8-.11-3.86,0a3.25,3.25,0,0,0,2.17,1c1,0,2.15-.94,1.69-1Z"/><path class="cls-54" d="M109.27,92.56c-.38,0-.7.14-.7.31s.32.31.7.31.7-.14.7-.31-.31-.31-.7-.31Z"/><path class="cls-54" d="M103.86,92.56c-.39,0-.71.14-.71.31s.32.31.71.31.7-.14.7-.31-.32-.31-.7-.31Z"/><path class="cls-54" d="M111.63,90.58a.87.87,0,0,1,.8.21,1.56,1.56,0,0,1-.12,1.9,2,2,0,0,1-1,.75,13,13,0,0,0,.3-2.86Z"/><path class="cls-54" d="M100.18,90.26s-.55-.37-.88.38a2.29,2.29,0,0,0,.66,2.1,3.39,3.39,0,0,0,1.19.35,8.66,8.66,0,0,1-1-2.83Z"/><polygon class="cls-57" points="112.37 101.08 112.13 105.36 112.83 105.39 113.07 101.12 112.37 101.08 112.37 101.08"/><polygon class="cls-57" points="97.21 100.93 97.79 105.17 98.48 105.09 97.9 100.85 97.21 100.93 97.21 100.93"/><path class="cls-45" d="M112.6,104.69s-1.26,2.24-6,2.11a23.35,23.35,0,0,1-8.75-2.11l-.93,5h16.4a15.75,15.75,0,0,0-.72-5Z"/><path class="cls-56" d="M107,102.53l2.43-.55,0-.21-2.44.55.06.21Zm-2.2-.21-2.44-.55,0,.21,2.44.55.05-.21Z"/><path class="cls-18" d="M109.12,90.55a.15.15,0,1,0,0,.3.15.15,0,0,0,0-.3Z"/><path class="cls-18" d="M104.4,90.55a.15.15,0,1,0,0,.3.15.15,0,1,0,0-.3Z"/><path class="cls-58" d="M209.14,103.61h18v6.07H205.45v-3.8c0-1.25,1.66-2.27,3.69-2.27Z"/><path class="cls-59" d="M227.13,104.2v5.48H205.45v-3.21c0-1.25,1.66-2.27,3.69-2.27Z"/><path class="cls-34" d="M218.82,105.71h.48v2.07h-.48v-2.07Zm4.59,0h.48v2.07h-.48v-2.07Zm-.91,0H223v2.07h-.47v-2.07Zm-.92,0h.47v2.07h-.47v-2.07Zm-.92,0h.47v2.07h-.47v-2.07Zm-.92,0h.48v2.07h-.48v-2.07Z"/><path class="cls-60" d="M215.21,115c3.3,1.24,4.08,3,4.08,3.92s.15,1.68-1,5c1,4.29,1.42,16.4,1.42,16.4l-18.52-3.53s2.18-6.89,2.7-9.76c.35-1.93-.13-5.56,1.21-8.51,1.63-3.58,6.77-4.77,10.07-3.53Z"/><path class="cls-35" d="M218.86,121.81s1.33.4,1.41,1.5,0,2.74-.71,3.37-1.23.27-1.23.27l.53-5.14Z"/><path class="cls-53" d="M208.42,128.72a20.91,20.91,0,0,1-.72,4.6c-.54,1.33-.54,1.37-.54,1.37a9.79,9.79,0,0,0,3.73,1.28,4.23,4.23,0,0,0,2.85-.95v-4.24s-3.83-.42-5.32-2.06Z"/><path class="cls-15" d="M208.42,128.72s-.09,1.54-.31,2.93a6.93,6.93,0,0,0,4.51,1.92,8.18,8.18,0,0,0,1.12,0v-2.74s-3.83-.42-5.32-2.06Z"/><path class="cls-53" d="M218.82,119.83a29.26,29.26,0,0,1-.51,7.22,5.4,5.4,0,0,1-5.69,4.39c-2.85-.1-5.11-2-5.57-3.53a38.06,38.06,0,0,1-.7-5.61,3.82,3.82,0,0,0,2.66-.63c1.75-.92,7.71-3.57,7.71-3.57a8,8,0,0,1,2.1,1.73Z"/><path class="cls-61" d="M206.83,123s1.48-8.47,9-7.8c-5-3.27-10.14,2.25-10.5,7.52l1.49.28Z"/><path class="cls-62" d="M206.83,123a11.62,11.62,0,0,1,.58-2,2.23,2.23,0,0,0-1.45-.56h-.19a9.56,9.56,0,0,0-.43,2.23l1.49.28Z"/><path class="cls-35" d="M213.58,134.65A19.26,19.26,0,0,1,216,136c3.6,2.13,4.39,2.45,5.09,5H196.25c.09-.33.18-.66.29-1,.79-2.08.58-3.13,2-4s9-2.2,9-2.2c-.52,1.54,4.5,2.73,6.07.87Z"/><path class="cls-62" d="M214.4,135.55s-4,3.2-8.31-.86l-.27.25c4.56,4.3,8.82.89,8.83.88l-.25-.27Z"/><path class="cls-62" d="M202.12,138.63a23.28,23.28,0,0,1,.7,2.33h.39a25.28,25.28,0,0,0-.73-2.45l-.36.12Z"/><path class="cls-14" d="M211.84,122.54c-.29,0-.52.32-.52.71s.23.72.52.72.53-.32.53-.72-.24-.71-.53-.71Z"/><path class="cls-14" d="M216.72,122.54c-.29,0-.53.32-.53.71s.24.72.53.72.52-.32.52-.72-.23-.71-.52-.71Z"/><path class="cls-63" d="M218,121.93a1.8,1.8,0,0,0-2.45,0l.19.22a1.48,1.48,0,0,1,2,0l.23-.19Z"/><path class="cls-63" d="M213.07,121.93a1.8,1.8,0,0,0-2.45,0l.19.22a1.5,1.5,0,0,1,2,0l.22-.19Z"/><path class="cls-17" d="M214.79,124s.09,1.75.61,2.15c.27.21-.9.64-.9.64l.11.26s1.65-.6,1-1.11c-.41-.32-.5-2-.5-2l-.3,0Z"/><path class="cls-18" d="M215.57,128.07l-3.66-.69s1,1.57,2,1.74,1.64-1.05,1.64-1.05Z"/><path class="cls-35" d="M206,121a3,3,0,1,0,2.46,2.93A2.74,2.74,0,0,0,206,121Z"/><path class="cls-64" d="M205.33,121.26a2.21,2.21,0,1,0,1.83,2.18,2,2,0,0,0-1.83-2.18Z"/><path class="cls-35" d="M204.86,121.81a1.65,1.65,0,1,0,1.38,1.63,1.52,1.52,0,0,0-1.38-1.63Z"/><path class="cls-18" d="M211.86,122.81a.16.16,0,1,0,.17.16.17.17,0,0,0-.17-.16Z"/><path class="cls-18" d="M216.72,122.81a.16.16,0,1,0,0,.31.16.16,0,0,0,.16-.15.16.16,0,0,0-.16-.16Z"/><path class="cls-36" d="M101.41,131.55s-5.85,2.18-6.66,3.51c-.5.83-1,3.78-1.38,5.9H118.6a30.13,30.13,0,0,0-1-5.9c-.67-1.38-7.9-3.51-7.9-3.51l-4.65,4-3.63-4Z"/><path class="cls-38" d="M99.55,120.5a2.09,2.09,0,0,0-.6,2c.14,1.1.92,1.8,1.3,1.63s-.7-3.67-.7-3.67Z"/><path class="cls-38" d="M112.37,120.5a2.11,2.11,0,0,1,.6,2c-.14,1.1-.93,1.8-1.3,1.63s.7-3.67.7-3.67Z"/><path class="cls-13" d="M98.88,116.52a10.55,10.55,0,0,0-.09,2.76,22.5,22.5,0,0,0,1.17,3.26l12.07-.12a12.55,12.55,0,0,0,1.4-5.9,4.16,4.16,0,0,0-3.1-3.73,9.3,9.3,0,0,0-6.72-.94,7,7,0,0,0-4.73,4.67Z"/><path class="cls-54" d="M108.64,126.9l.2,2.74.2,2.74-3.14,2.68L103,132.12l.6-5.22s3.55.86,5,0Z"/><path class="cls-46" d="M108.64,126.9l.15,2a7.73,7.73,0,0,1-5.41,0l.23-2s3.55.86,5,0Z"/><path class="cls-54" d="M110.22,115.39a12,12,0,0,1,2,3.36c.42,1.47-.67,7-2,8.17a7.24,7.24,0,0,1-8.24,0c-2.89-2.16-1.94-7.61-1.87-8.17s2.89-3.54,2.84-3.15-.74,1-.74,1a8.12,8.12,0,0,0,1.53-.83c.88-.59,1.13-.77,1-.59s-1.37,1.31-1.19,1.36a6.62,6.62,0,0,0,1.88-.82c.7-.41,2.06-1.32,2.06-1.32s.6,2.09,1,1.76,0-1.49,0-1.49a10.83,10.83,0,0,0,1.6,1.46c.46.21.09-.77.09-.77Z"/><path class="cls-39" d="M107.75,118.38a2,2,0,0,1,2.58,0l-.21.25a1.67,1.67,0,0,0-2.14,0l-.23-.23Z"/><path class="cls-39" d="M101.72,118.38a2,2,0,0,1,2.58,0l-.21.25a1.67,1.67,0,0,0-2.14,0l-.23-.23Z"/><path class="cls-34" d="M103.22,119.1c.26,0,.47.31.47.7s-.21.7-.47.7-.47-.31-.47-.7.21-.7.47-.7Z"/><path class="cls-34" d="M108.64,119.1c.25,0,.46.31.46.7s-.21.7-.46.7-.47-.31-.47-.7.21-.7.47-.7Z"/><path class="cls-17" d="M104.74,121.69a1.89,1.89,0,0,0,2.35,0l.2.25a2.25,2.25,0,0,1-2.78,0l.23-.23Z"/><path class="cls-17" d="M103.76,124a6.59,6.59,0,0,0,5.2,0l.15.28a7,7,0,0,1-5.5,0l.15-.28Z"/><polygon class="cls-65" points="107.84 133.69 106 135.52 106.13 139.69 104.5 139.69 104.5 135.52 106.36 133.1 107.84 133.69 107.84 133.69"/><polygon class="cls-66" points="104.14 132.58 105.43 134.31 104.5 135.52 103.01 133.37 104.14 132.58 104.14 132.58"/><polygon class="cls-67" points="96.61 137.95 96.06 140.96 95.71 140.96 96.28 137.9 96.61 137.95 96.61 137.95"/><polygon class="cls-67" points="114.77 137.95 115.33 140.96 115.67 140.96 115.1 137.9 114.77 137.95 114.77 137.95"/><polygon class="cls-35" points="96.32 139.54 114.96 138.99 115.33 140.96 96.06 140.96 96.32 139.54 96.32 139.54"/><path class="cls-68" d="M108.84,129.64c.16,2.31-2.63,3.35-2.48,3.46l3.35,2.42c.78-3.48,1.94-3.89-.87-5.88Z"/><path class="cls-68" d="M103.27,129.84s-.29.26-.26,1.14,1.13,1.6,1.13,1.6l-3.24,2.48v-3.49c0-1.08,2.41-2.06,2.37-1.73Z"/><path class="cls-18" d="M103.15,119.4a.13.13,0,0,1,.13.13.12.12,0,0,1-.13.12.13.13,0,0,1-.14-.12.13.13,0,0,1,.14-.13Z"/><path class="cls-18" d="M108.65,119.4a.14.14,0,0,1,.14.13.14.14,0,0,1-.28,0,.14.14,0,0,1,.14-.13Z"/><path class="cls-54" d="M98.59,130.69a8.36,8.36,0,0,0,1.2-3.69c0-1.13.69-2.23,0-2.32a.92.92,0,0,0-1.12.74c-.11.45-.15,1.17-.28,1.58s-.08.62-.23.39a13.11,13.11,0,0,1-.77-2.73,22.25,22.25,0,0,0-.4-3,.52.52,0,0,0-.92.11c-.15.47.15,3.8,0,3.88a17.69,17.69,0,0,1-.63-2.87c-.1-.43-.08-1.35-.76-1.35s-.39,1.46-.33,1.83a22.13,22.13,0,0,1,.44,2.75c-.09.16-.27.2-.33,0s-1-2.46-1.14-2.91-.34-.91-.76-.82-.48.4-.3,1.09,1.2,3.5,1.25,3.72a.29.29,0,0,1-.28.35,7.79,7.79,0,0,1-1.51-.93,5.63,5.63,0,0,0-1-1c-.26-.12-.71-.08-.7.28a7.56,7.56,0,0,0,1.55,2,14.47,14.47,0,0,0,1.15,1,18.36,18.36,0,0,0,1.72,2.64c.28.1-2,9.5-2,9.5h4.14c.52-1.88,1.39-9,2.06-10.27Z"/><path class="cls-69" d="M143,142.47a4.9,4.9,0,1,1-5,4.89,4.94,4.94,0,0,1,5-4.89Z"/><path class="cls-69" d="M158.15,142.47a4.9,4.9,0,1,1-5,4.89,4.94,4.94,0,0,1,5-4.89Z"/><path class="cls-18" d="M155,145.9h2.25v-.42H155V145h2.69v.87h1.15v2.93H155V145.9Zm6.34-.87-2.19.87v2.93l2.19.87V145Z"/><path class="cls-70" d="M173.43,142.47a4.9,4.9,0,1,1-5,4.89,4.94,4.94,0,0,1,5-4.89Z"/><path class="cls-18" d="M140.81,144.79h4a.88.88,0,0,1,.88.86V148a.86.86,0,0,1-.85.86l.4,1.37-1.41-1.37h-3a.87.87,0,0,1-.88-.86v-2.34a.88.88,0,0,1,.88-.86Zm.29,1.89a.34.34,0,1,1-.34.34.34.34,0,0,1,.34-.34Zm3.41,0a.34.34,0,1,1,0,.68.34.34,0,1,1,0-.68Zm-1.14,0a.34.34,0,1,1,0,.68.34.34,0,1,1,0-.68Zm-1.13,0a.34.34,0,1,1-.35.34.35.35,0,0,1,.35-.34Z"/><path class="cls-18" d="M174.32,150.4a1.63,1.63,0,0,0,2-1l-1.44-1.28c-.72,1.88-3.9-1.94-1.88-2.27l-1-1.63s-1.55.3-1.36,1.69c.17,1.23,2.53,4.07,3.72,4.47Z"/></g></g></svg>