<svg xmlns="http://www.w3.org/2000/svg" viewBox="0 0 375.17 240.52"><defs><style>.cls-1{isolation:isolate;}.cls-11,.cls-2{fill:#ffd371;}.cls-12,.cls-2,.cls-7{opacity:0.3;}.cls-3{fill:#eaeaea;mix-blend-mode:multiply;}.cls-4{fill:#e8e8e8;}.cls-5{fill:#fa5;}.cls-6{fill:#fff;}.cls-7{fill:#666;}.cls-8{fill:#e7e8fb;}.cls-9{fill:#c2c2c2;}.cls-10,.cls-12{fill:#0f1837;}.cls-13{fill:#fdc2bd;}.cls-14{fill:#fc8481;}.cls-15{fill:#e67779;}.cls-16{fill:#cca24c;}</style></defs><g class="cls-1"><g id="Layer_2" data-name="Layer 2"><g id="Option_1" data-name="Option 1"><path class="cls-2" d="M220.25,225.45c-85.81,1.74-123.8-25.12-123.8-25.12S39.79,172.49,70.81,96.08C95.5,35.28,187.29-15.91,233.26,4.6s42.43,47.68,93.25,85.89,39.87,69.57,31.23,85.52C357.74,176,330.8,223.2,220.25,225.45Z"/><ellipse id="_Path_" data-name="&lt;Path&gt;" class="cls-3" cx="181.2" cy="231.69" rx="58.07" ry="8.83"/><rect class="cls-4" y="48.33" width="91.59" height="63.16"/><rect class="cls-5" y="42.02" width="91.59" height="6.32"/><rect class="cls-6" x="81.48" y="43.91" width="2.53" height="2.53"/><rect class="cls-6" x="76.43" y="43.91" width="2.53" height="2.53"/><rect class="cls-6" x="71.37" y="43.91" width="2.53" height="2.53"/><rect class="cls-5" x="6.32" y="54.65" width="31.58" height="31.58"/><path class="cls-6" d="M37.9,86.23H6.32V78s3.79-5.79,7.89-5.79,7.9,3,7.9,3,4.1-6.1,7.89-6.1,7.9,3.15,7.9,3.15Z"/><circle class="cls-6" cx="22.11" cy="63.91" r="2.53"/><rect class="cls-6" x="48.95" y="62.6" width="31.58" height="1.26"/><rect class="cls-6" x="48.95" y="69.81" width="31.58" height="1.26"/><rect class="cls-6" x="48.95" y="77.02" width="31.58" height="1.26"/><rect class="cls-6" x="48.95" y="84.23" width="31.58" height="1.26"/><rect class="cls-6" x="6.32" y="91.44" width="74.22" height="1.26"/><rect class="cls-6" x="6.32" y="98.65" width="74.22" height="1.26"/><rect class="cls-6" x="6.32" y="105.86" width="74.22" height="1.26"/><rect class="cls-7" x="75.48" y="42.02" width="16.11" height="69.48"/><rect class="cls-4" x="283.58" y="128.21" width="91.59" height="63.16"/><circle class="cls-6" cx="329.37" cy="153.8" r="11.84"/><path class="cls-5" d="M324.48,148.41V159.2a2.21,2.21,0,0,0,3.46,1.83l7.89-5.4a2.21,2.21,0,0,0,0-3.65l-7.89-5.4A2.21,2.21,0,0,0,324.48,148.41Z"/><rect class="cls-6" x="291.48" y="180.42" width="75.8" height="6.32"/><rect class="cls-8" x="297.79" y="182.95" width="63.16" height="1.26"/><rect class="cls-5" x="297.79" y="182.95" width="13.9" height="1.26"/><path class="cls-5" d="M310.58,182v3.08a.63.63,0,0,0,1,.52l2.25-1.54a.63.63,0,0,0,0-1l-2.25-1.54A.63.63,0,0,0,310.58,182Z"/><rect class="cls-5" x="283.58" y="121.89" width="91.59" height="6.32"/><rect class="cls-6" x="365.06" y="123.78" width="2.53" height="2.53"/><rect class="cls-6" x="360.01" y="123.78" width="2.53" height="2.53"/><rect class="cls-6" x="354.96" y="123.78" width="2.53" height="2.53"/><rect class="cls-7" x="283.91" y="121.89" width="9.95" height="55.47"/><rect class="cls-9" x="84.87" y="5.5" width="208.44" height="171.31"/><rect class="cls-6" x="80.37" y="1" width="208.44" height="171.31"/><rect class="cls-4" x="104.15" y="60.91" width="161.7" height="21.48" rx="9.84"/><path class="cls-5" d="M231.1,60.91H256a9.84,9.84,0,0,1,9.84,9.84v1.79A9.84,9.84,0,0,1,256,82.38H231.1a0,0,0,0,1,0,0V60.91A0,0,0,0,1,231.1,60.91Z"/><path class="cls-6" d="M246.53,74.54A4.81,4.81,0,1,1,250,73.13,4.86,4.86,0,0,1,246.53,74.54Zm0-8.42a3.58,3.58,0,1,0,2.53,6.11h0a3.57,3.57,0,0,0,0-5.06A3.56,3.56,0,0,0,246.53,66.12Z"/><path class="cls-6" d="M226,72.59H112.27a1,1,0,0,1-1-1h0a1,1,0,0,1,1-.94H226a.94.94,0,0,1,.94.94h0A.94.94,0,0,1,226,72.59Z"/><rect class="cls-5" x="80.38" y="0.5" width="208.44" height="17.69"/><rect class="cls-6" x="253.44" y="6.82" width="5.05" height="5.05"/><rect class="cls-6" x="263.55" y="6.82" width="5.05" height="5.05"/><rect class="cls-6" x="273.66" y="6.82" width="5.05" height="5.05"/><path class="cls-10" d="M111.32,14.9a5.56,5.56,0,1,1,5.56-5.55A5.56,5.56,0,0,1,111.32,14.9Zm0-10.48a4.93,4.93,0,1,0,4.93,4.93A4.93,4.93,0,0,0,111.32,4.42Z"/><path class="cls-10" d="M111.32,13.7a.31.31,0,0,1-.31-.32V5.31a.32.32,0,1,1,.63,0v8.07A.32.32,0,0,1,111.32,13.7Z"/><path class="cls-10" d="M115.36,9.66h-8.07a.32.32,0,1,1,0-.63h8.07a.32.32,0,1,1,0,.63Z"/><rect class="cls-11" x="80.38" y="0.5" width="19.41" height="17.69"/><path class="cls-10" d="M87.27,12.52a.28.28,0,0,1-.22-.1.3.3,0,0,1,0-.44l5.71-5.71a.31.31,0,0,1,.44.44l-5.71,5.71A.28.28,0,0,1,87.27,12.52Z"/><path class="cls-10" d="M93,12.52a.28.28,0,0,1-.22-.1L87.05,6.71a.31.31,0,0,1,.44-.44L93.2,12a.3.3,0,0,1,0,.44A.28.28,0,0,1,93,12.52Z"/><path class="cls-12" d="M179.38,131.61l-1.28-1.45,1.14-1.34-7.86-11.09,7.17-8c.09.75.2,1.5.32,2.25.32,4.08.68,8.41.91,12.7A35.17,35.17,0,0,1,179.38,131.61Z"/><path class="cls-13" d="M197.23,65.66l-.8-7.6a8.29,8.29,0,0,0-16.49,1.74l1.19,11.28v7.55h12.05V72A6.09,6.09,0,0,0,197.23,65.66Z"/><path class="cls-10" d="M196.59,46.86c-1.76-2.53-8.52-2.84-9.43-.63-4.36-.69-8.77,2.27-9,5.65-3.71,4.08-.73,7.69-.73,7.69,1.18,5,3.33,10.92,3.73,11.35h5c3.08-1,4.19-4.61,4.19-6.51l-.73-4.82c2.36,0,1.73,3.4,2.56,3.31l.84-.09.87-6.59v0C195.91,55.13,200.26,52.13,196.59,46.86Z"/><path class="cls-13" d="M190.84,62.17c0-2.9-1.16-3.05-2.06-2-2,2.23-.61,5.72,1,5.09C191.09,64.7,190.84,62.92,190.84,62.17Z"/><path class="cls-13" d="M162.75,123.65l4.32,7.72-.7,11.41a2.27,2.27,0,0,0,1.3,2.19l2,.92s5.8-19.1,5.8-19.42-7.21-8.45-7.21-8.45Z"/><path class="cls-11" d="M170.57,80.12c-6.5,5.06-20.72,20.64-20.72,26.85,0,3.79,12.56,19.42,12.56,19.42l7.62-9-7.86-11.1L173.49,93.7Z"/><polygon class="cls-13" points="201.28 226.31 201.28 216.51 192.6 216.88 192.79 229.61 201.28 226.31"/><polygon class="cls-14" points="201.28 221.81 201.28 216.51 192.6 216.88 192.68 222.13 201.28 221.81"/><path class="cls-10" d="M192.62,231.72h19.1a1.56,1.56,0,0,0,1.56-1.56h0a1.57,1.57,0,0,0-1-1.47l-10-3.69a28.38,28.38,0,0,1-5.1,1.52,23.42,23.42,0,0,1-4.76-.89.61.61,0,0,0-.77.64l.43,4.89A.62.62,0,0,0,192.62,231.72Z"/><path class="cls-10" d="M201.1,226.14c-.09-.7-.25-3.37.18-3.29s1.93.71,2.17,1.5a5,5,0,0,1-.16,2.13Z"/><path class="cls-6" d="M203.85,227.61a.24.24,0,0,1-.22-.14.24.24,0,0,1,.13-.31c1-.41,1.06-1.1,1.06-1.13a.24.24,0,0,1,.26-.22.23.23,0,0,1,.21.25,1.93,1.93,0,0,1-1.35,1.53A.15.15,0,0,1,203.85,227.61Z"/><path class="cls-6" d="M211.41,230.69H192.46a.16.16,0,0,1-.16-.16.16.16,0,0,1,.16-.15h18.95a.15.15,0,0,1,.15.15A.16.16,0,0,1,211.41,230.69Z"/><path class="cls-6" d="M205.56,228.18a.23.23,0,0,1-.21-.13.25.25,0,0,1,.11-.32,1.65,1.65,0,0,0,.89-1.16.22.22,0,0,1,.26-.2.24.24,0,0,1,.2.27,2.09,2.09,0,0,1-1.15,1.52A.16.16,0,0,1,205.56,228.18Z"/><polygon class="cls-15" points="181.34 133.88 201.12 132.59 203.24 217.66 190.75 219.35 181.34 133.88"/><polygon class="cls-13" points="166.22 226.3 168.46 216.51 158.82 216.51 157.73 229.6 166.22 226.3"/><polygon class="cls-14" points="166.8 223.74 168.46 216.51 158.82 216.51 158.35 222.19 166.8 223.74"/><path class="cls-10" d="M161.17,225c1.23,0,3.81,1.22,5.14.9.95-.22,2.68,1.49,3.59,2.49a2.3,2.3,0,0,1,.59,1.55h0a1.79,1.79,0,0,1-1.79,1.79h-11a1,1,0,0,1-1-1.16l.68-4.3A5.64,5.64,0,0,1,161.17,225Z"/><path class="cls-6" d="M169.34,230.68H157.18a.15.15,0,0,1-.15-.15.16.16,0,0,1,.15-.16h12.16a.16.16,0,0,1,.16.16A.16.16,0,0,1,169.34,230.68Z"/><polygon class="cls-15" points="169.63 132.59 157.53 218.51 169.69 220.19 189.44 133.02 169.63 132.59"/><path class="cls-12" d="M169.63,132.59s4.46,10.59,31.56,3.17l-.07-3.17Z"/><path class="cls-12" d="M183.93,157.32c3.58,1.16,9.64-1,9.64-1s-7.75,1.34-9.64-.56c-1.57.76-6,.57-9.84-.71A16.47,16.47,0,0,0,183.93,157.32Z"/><path class="cls-11" d="M181.13,77.1h12.05l5.41.39c6.32,12,3,39.39,3.6,55.51-4.46,3.29-27.56,3.52-33.6-.41-.18-5.91,2.36-12.24,2-19.31-.77-14.66-3.15-29.94,0-33.16C171.89,78.78,178,77.1,181.13,77.1Z"/><path class="cls-16" d="M171.8,104.6q.84-.25,1.68-.48c.56-.16,1.14-.25,1.71-.38s1.15-.16,1.73-.25,1.16-.11,1.74-.15a44,44,0,0,1,7,.21c2.32.24,4.61.57,6.91.84,1.15.14,2.3.24,3.45.28.58,0,1.15,0,1.73,0s1.16-.07,1.74-.09A22.33,22.33,0,0,1,196,105c-1.17,0-2.33,0-3.49-.11-2.33-.15-4.63-.47-6.93-.69a59.13,59.13,0,0,0-6.91-.36A36.45,36.45,0,0,0,171.8,104.6Z"/><path class="cls-16" d="M171.8,110.55l1.68-.49c.56-.15,1.14-.24,1.71-.37s1.15-.16,1.73-.25,1.16-.11,1.74-.15a42.89,42.89,0,0,1,7,.21c2.32.24,4.61.57,6.91.84q1.73.21,3.45.27c.58,0,1.15,0,1.73,0s1.16-.07,1.74-.09a21.17,21.17,0,0,1-3.47.37c-1.17,0-2.33,0-3.49-.1-2.33-.16-4.63-.47-6.93-.69a59.13,59.13,0,0,0-6.91-.36A36.45,36.45,0,0,0,171.8,110.55Z"/><path class="cls-16" d="M169.66,100.59c-.22-1.39-.39-2.79-.53-4.18s-.24-2.8-.31-4.21-.08-2.81,0-4.22a14.71,14.71,0,0,1,.66-4.17,14.61,14.61,0,0,0-.17,2.09c0,.69,0,1.39,0,2.09,0,1.39.09,2.79.15,4.19s.13,2.79.16,4.19S169.7,99.18,169.66,100.59Z"/><path class="cls-13" d="M228.41,84.56l4-5.26,1.27-4.94a1.26,1.26,0,0,1,1.28-1l1.8.09,3.65-4.75a.79.79,0,0,1,.78-.32h0a.83.83,0,0,1,.66,1.12l-2.08,5.53,4,1.46a2.52,2.52,0,0,1,1.66,2.37v1a1.48,1.48,0,0,1-1.15,1.44h0a1.53,1.53,0,0,1-1-.15L242,80.54,241,83.05a2,2,0,0,1-2.68,1.17h0l-3.44,5.69Z"/><path class="cls-11" d="M198.59,77.49c6.28,0,17.48,14,20.64,17l9.68-13,8.85,6.43-13.21,17.62a7,7,0,0,1-10.12,1.08l-18.36-16Z"/><path class="cls-16" d="M202.36,96.12a16.65,16.65,0,0,1-4.47-4.87,9.19,9.19,0,0,1-1.21-3.13,4.61,4.61,0,0,1,.58-3.26,5.5,5.5,0,0,0-.1,3.16,11.38,11.38,0,0,0,1.27,2.91,25.23,25.23,0,0,0,1.83,2.67C200.94,94.45,201.63,95.29,202.36,96.12Z"/><path class="cls-6" d="M250.33,87.76a.57.57,0,0,1-.42-.17l-4.16-4.15a.6.6,0,0,1,0-.84.58.58,0,0,1,.84,0l4.16,4.15a.6.6,0,0,1,0,.84A.58.58,0,0,1,250.33,87.76Z"/></g></g></g></svg>