<svg xmlns="http://www.w3.org/2000/svg" viewBox="0 0 42.5 42.63"><defs><style>.cls-1{fill:#fff;}.cls-2{fill:#fa5;}</style></defs><g id="Layer_2" data-name="Layer 2"><g id="Option_1" data-name="Option 1"><polygon class="cls-1" points="17.37 0 42.5 25.13 42.5 42.63 0 0.13 17.37 0"/><path class="cls-2" d="M19.2,10.66l-.55-.55-1.2,1.2-.37-.38L20,8.06l.93.93A1.2,1.2,0,0,1,21,10.82C20.59,11.26,19.92,11.38,19.2,10.66Zm.31-.31c.43.43.81.41,1.13.09s.35-.71-.07-1.14L20,8.75,19,9.8Z"/><path class="cls-2" d="M20.41,14.34a1.65,1.65,0,1,1,2.33,0A1.59,1.59,0,0,1,20.41,14.34Zm.33-.33a1.07,1.07,0,0,0,1.61-.07,1.07,1.07,0,0,0,.08-1.59,1.05,1.05,0,0,0-1.59.08A1,1,0,0,0,20.74,14Z"/><path class="cls-2" d="M25.61,14.88a1.51,1.51,0,0,1-.09,2.23,1.53,1.53,0,0,1-2.24.1,1.37,1.37,0,0,1-.4-1.3L21.4,17.4,21,17l3.33-3.33.38.38-.42.42A1.31,1.31,0,0,1,25.61,14.88Zm-.4.24a1.12,1.12,0,0,0-1.61.07,1.09,1.09,0,1,0,1.54,1.53A1.09,1.09,0,0,0,25.21,15.12Z"/><path class="cls-2" d="M26.88,20.74l-.38-.38.34-.33a1.18,1.18,0,0,1-1.09-.35,1.25,1.25,0,0,1,0-1.9l1.32-1.32.38.37L26.21,18.1a.85.85,0,0,0-.06,1.32.89.89,0,0,0,1.37-.07l1.24-1.25.38.38Z"/><path class="cls-2" d="M30.56,18.32l.38.38-3.05,3.05-.38-.38Z"/><path class="cls-2" d="M31.75,21a1.33,1.33,0,0,1,.39,1.29l.41-.41.38.37-2.26,2.26-.38-.38.43-.42a1.35,1.35,0,0,1-1.31-.38,1.55,1.55,0,0,1,.11-2.25A1.51,1.51,0,0,1,31.75,21Zm-.25.4a1.09,1.09,0,0,0-1.6.07,1.09,1.09,0,1,0,1.6-.07Z"/><path class="cls-2" d="M31.68,25.54l-.37-.38,2.25-2.25.38.37-.37.37a1.06,1.06,0,0,1,1.14.32l-.39.39-.1-.1a.81.81,0,0,0-1.31,0Z"/></g></g></svg>