<svg xmlns="http://www.w3.org/2000/svg" xmlns:xlink="http://www.w3.org/1999/xlink" viewBox="0 0 222.4 159.33"><defs><style>.cls-1{fill:none;}.cls-2,.cls-7{opacity:0.3;}.cls-3{fill:#ffd371;}.cls-4{fill:#a9a9a9;}.cls-5{fill:#dcdcdc;}.cls-6{fill:#fff;}.cls-7,.cls-9{fill:#8f8f8f;}.cls-8{fill:#666;}.cls-10{fill:#77cbda;}.cls-11{fill:#549893;}.cls-12{fill:#fa5;}.cls-13{fill:#f8a7af;}.cls-14{fill:#1b9e76;}.cls-15{clip-path:url(#clip-path);}.cls-16{fill:#894021;}.cls-17{fill:#1e1b1b;}.cls-18{fill:#6d3016;}.cls-19{clip-path:url(#clip-path-2);}.cls-20{fill:#2b3c7b;}.cls-21{fill:#f6a684;}.cls-22{fill:#db5045;}.cls-23{fill:#e38b66;}.cls-24{clip-path:url(#clip-path-3);}.cls-25{fill:#fdcdb9;}.cls-26{fill:#ded6d3;}.cls-27{fill:#f7b5a8;}.cls-28{clip-path:url(#clip-path-4);}.cls-29{fill:#f8c649;}.cls-30{fill:#f5ae30;}.cls-31{fill:#a1ace0;}.cls-32{clip-path:url(#clip-path-5);}.cls-33{fill:#23a398;}.cls-34{clip-path:url(#clip-path-6);}.cls-35{fill:#d87432;}.cls-36{fill:#be572c;}.cls-37{fill:#8abef9;}.cls-38{fill:#19172f;}.cls-39{fill:#538ad0;}</style><clipPath id="clip-path"><rect class="cls-1" x="136.32" y="69.42" width="49.02" height="45.89"/></clipPath><clipPath id="clip-path-2"><rect class="cls-1" x="136.32" y="23.53" width="49.02" height="45.89"/></clipPath><clipPath id="clip-path-3"><rect class="cls-1" x="87.3" y="23.53" width="49.02" height="45.89"/></clipPath><clipPath id="clip-path-4"><rect class="cls-1" x="38.28" y="69.42" width="49.02" height="45.89"/></clipPath><clipPath id="clip-path-5"><rect class="cls-1" x="87.3" y="69.42" width="49.02" height="45.89"/></clipPath><clipPath id="clip-path-6"><rect class="cls-1" x="38.28" y="23.53" width="49.02" height="45.89"/></clipPath></defs><g id="Layer_2" data-name="Layer 2"><g id="Option_1" data-name="Option 1"><g class="cls-2"><path class="cls-3" d="M204,128.06c38.75-33.45,4.26-52,4.26-52a40.16,40.16,0,0,1-15.35-17.37c-6.6-14.44,4.44-32.95-3.5-46.73C183.56,1.84,169.59-1.18,157.55.39S134.14,7,122.14,8.8C107.76,11,93.21,8.5,78.8,7S49.2,5,35.91,10.84,12,30.6,14.83,44.29c1.26,6.17,5.06,12.05,4,18.29C17.23,72.24,5.22,77.17,1.27,86.21-2.59,95,3.09,104.5,8.56,112.35c22.22,31.88,60.59,43.22,91.62,46.53C100.18,158.88,160.65,165.48,204,128.06Z"/></g><rect class="cls-4" x="35.45" y="118.72" width="22.34" height="4.21"/><rect class="cls-4" x="164.69" y="118.72" width="22.34" height="4.21"/><rect class="cls-5" x="30.14" y="16" width="162.21" height="104.5" rx="5.85"/><rect class="cls-6" x="37.14" y="22.36" width="148.19" height="91.77"/><rect class="cls-4" x="37.14" y="22.36" width="148.19" height="92.94"/><rect class="cls-6" x="38.28" y="23.53" width="147.06" height="91.77"/><path class="cls-5" d="M204.63,144.31l-10.21-19.14a6.65,6.65,0,0,0-2-2.24A4.44,4.44,0,0,0,190,122H33.79a4.67,4.67,0,0,0-2.5.93,7.23,7.23,0,0,0-2.13,2.24L17.93,144.31a3.21,3.21,0,0,0-.5,1.59,1.48,1.48,0,0,0,.5,1.17,2.05,2.05,0,0,0,1.41.45H203.05a2.18,2.18,0,0,0,1.47-.48,1.62,1.62,0,0,0,.53-1.26A3.21,3.21,0,0,0,204.63,144.31Z"/><path class="cls-7" d="M205.05,147a2.91,2.91,0,0,1-2.91,2.91H20.34A2.91,2.91,0,0,1,17.43,147h0a2.91,2.91,0,0,1,2.91-2.91h181.8a2.91,2.91,0,0,1,2.91,2.91Z"/><path class="cls-8" d="M87.83,144.08v.38a2.92,2.92,0,0,0,2.92,2.92h41a2.93,2.93,0,0,0,2.93-2.92v-.38Z"/><polygon class="cls-9" points="194.75 133.64 27.73 133.64 33.83 124.48 189.2 124.41 194.75 133.64"/><polygon class="cls-4" points="140.51 141.62 136.95 135.68 119.66 135.69 119.66 135.68 85.89 135.7 81.97 141.59 119.07 141.59 119.07 141.62 140.51 141.62"/><path class="cls-8" d="M57.79,144.08l5-.05,5.73,0,7.42-.05,18.59-.07,10.48,0h21.65l10.49,0,9.8,0,8.78,0,7.43.05,5.72,0,5,.05-5,0-5.72,0-7.43.05-8.78,0-9.8,0-10.49,0H105l-10.48,0-18.59-.08-7.42-.05-5.73,0Z"/><rect class="cls-10" x="38.28" y="23.53" width="49.02" height="45.89"/><rect class="cls-11" x="38.28" y="69.42" width="49.02" height="45.89"/><rect class="cls-12" x="87.3" y="23.53" width="49.02" height="45.89"/><rect class="cls-13" x="87.3" y="69.42" width="49.02" height="45.89"/><rect class="cls-3" x="136.32" y="23.53" width="49.02" height="45.89"/><rect class="cls-14" x="136.32" y="69.42" width="49.02" height="45.89"/><g class="cls-15"><path class="cls-16" d="M144.16,101.09s-1.22,14.54-9,19.91l3.36,4.88s8.22-4.85,14.65-22.6Z"/><path class="cls-17" d="M143.58,104.9s-1.75,12.43-9.87,17.23C133.71,122.13,140.58,118,143.58,104.9Z"/><path class="cls-12" d="M148.19,90.37c3.23-.55,14.69,1.22,16.6,1.67s10.57,3,12.1,4.44c.94.89-4,3.58-2.71,35.74,0,.85-15.48,3.33-28.06-.42C144.91,131.44,149.41,98.6,148.19,90.37Z"/><path class="cls-16" d="M173.32,99.75c-.25.64-.48,1.29-.72,1.94-.57,1.56-1.07,3.13-1.54,4.72-.57,2-1.1,3.9-1.58,5.88a12.24,12.24,0,0,0-.55,4.12c.32,2.91,4.32,4.24,6.26,2.64a7.5,7.5,0,0,0,2-4.48c.13-1.44.25-2.88.38-4.33.19-2.12.43-4.23.65-6.35,0-.45.09-.9.13-1.36Z"/><path class="cls-12" d="M167.44,109.61c0-2.59.11-5.18.07-7.77a10.59,10.59,0,0,1,.4-3.64,4.37,4.37,0,0,1,2.64-2.53c1.88-.63,5-.5,6.52,1a4.38,4.38,0,0,1,1,1.48,6,6,0,0,1,.43,2l-.12,9.69Z"/><path class="cls-12" d="M143,103.69c.42-2.56.89-5.11,1.23-7.68a10.61,10.61,0,0,1,.94-3.54,4.35,4.35,0,0,1,3-2.1c1.95-.35,5,.25,6.31,1.91a4.44,4.44,0,0,1,.75,1.6,5.9,5.9,0,0,1,.13,2l-1.56,9.56Z"/><rect class="cls-16" x="160.04" y="86.78" width="5.13" height="6.49" transform="translate(59.18 244.46) rotate(-85.16)"/><path class="cls-16" d="M165.82,90.35s-.09.82-.1.88a4.15,4.15,0,0,1-.46,2.36,4,4,0,0,1-2.16,1.16c-1.2.27-3.11.49-3.73-.79a2.65,2.65,0,0,1-.25-1.11c0-.55.06-1.1.09-1.64a1.64,1.64,0,0,1,.19-.78c.14-.22.78.32.87.07s0-.41.36-.52c.18-.06.41,0,.61-.1a7.14,7.14,0,0,1,2.44,0A13,13,0,0,1,165.82,90.35Z"/><path class="cls-17" d="M160.7,73.82c.15.09.15.55.38.52s.32-.56.44-.73a.72.72,0,0,1,1.12-.1c.2.2.33.81.69.5.2-.17.21-.48.39-.67a.64.64,0,0,1,.83,0,2.23,2.23,0,0,1,.49.79c.1.21.31.37.47.14s0-.64.2-.91c.46-.52,1.29-.1,1.67.2,1.52,1.22,1.83,4.44,1.77,6.6,0,.67-.09,1.35-.17,2a10.83,10.83,0,0,1-.63,3,4,4,0,0,1-2.91,1.93c-2.35.69-3.88,1.68-5.61-.44a6.62,6.62,0,0,1-1.47-3.44,36.28,36.28,0,0,1-.09-6.59S158.35,72.35,160.7,73.82Z"/><path class="cls-18" d="M164.5,88.52s-1.08,3-5.27,3l.29-3.45Z"/><path class="cls-16" d="M158,84.25c0,1.46.07,3.09,1,4.3,1.45,1.86,4.38,1.55,6.17.38a6.08,6.08,0,0,0,1.57-1.42,7.73,7.73,0,0,0,1.38-4.16c.05-1.58,0-3.2-1-4.22s-2.74-.75-4.31-.61c-1,.09-2.46-.31-3.45-.16-1.35.2-1.22,2.3-1.29,3.27S158,83.37,158,84.25Z"/><path class="cls-16" d="M167,85.05a4.39,4.39,0,0,1,.26-.63c.09-.16.18-.32.26-.48a2.91,2.91,0,0,1,.33-.63.92.92,0,0,1,.31-.28,1.08,1.08,0,0,1,.35-.1,1,1,0,0,1,.65.13l.08,0,0,0a.8.8,0,0,1,.34.74,2.46,2.46,0,0,1-.38.86c-.17.32-.3.65-.49,1a1.45,1.45,0,0,1-.87.76.85.85,0,0,1-.62-.15.81.81,0,0,1-.33-.6A1.55,1.55,0,0,1,167,85.05Z"/><path class="cls-17" d="M164.65,81.81h-.1A2,2,0,0,1,164,82c-.27,0-.43-.15-.3-.43.29-.57,1-.43,1.52-.26a3.66,3.66,0,0,1,.83.38c.14.08.39.41.08.47s-.63-.16-.95-.27A1.2,1.2,0,0,0,164.65,81.81Z"/><path class="cls-17" d="M160.45,81.11l.1,0a2.36,2.36,0,0,0,.57.18c.27,0,.45-.12.33-.41-.24-.59-1-.5-1.5-.37a3.8,3.8,0,0,0-.85.32c-.14.07-.41.38-.12.46s.65-.11,1-.19A1,1,0,0,1,160.45,81.11Z"/><path class="cls-17" d="M164.22,82.85c0,.28.11.51.28.52s.31-.21.33-.49-.11-.51-.28-.52S164.23,82.57,164.22,82.85Z"/><path class="cls-17" d="M160.22,82.31c0,.28.11.51.27.52s.32-.21.33-.49-.11-.51-.28-.52S160.23,82,160.22,82.31Z"/><path class="cls-17" d="M162.43,82.12a2.64,2.64,0,0,1-.06,1.31,4.2,4.2,0,0,1-.64,1.31c-.1.13-.27.23-.23.39s.41.34.66.36.09.2,0,.19c-.36,0-.75-.17-.82-.58,0-.15.08-.23.17-.34a4.12,4.12,0,0,0,.52-.85,3.32,3.32,0,0,0,.3-1.24c0-.12,0-.24,0-.35a1.32,1.32,0,0,1,0-.13C162.22,82.08,162.39,82,162.43,82.12Z"/><path class="cls-17" d="M167.57,79.62s1.15,2-.63,4.72l.84-.24s.05-1.4,1.12-1.17C168.9,82.93,168.45,79.69,167.57,79.62Z"/><path class="cls-17" d="M169,84.46c-.2.48-.88,1.91-1.56,1.28a.06.06,0,1,1,.09-.09c.56.52,1.19-.84,1.34-1.22C168.86,84.35,169,84.39,169,84.46Z"/><path class="cls-6" d="M161.47,87.3a11.32,11.32,0,0,0,1.7.23c-.1.39-.91.56-1.82.38s-1.59-.64-1.54-1A12.31,12.31,0,0,0,161.47,87.3Z"/><path class="cls-18" d="M161.62,78.47c-.18,0,.35.15.52.19a12.32,12.32,0,0,0,3.21,0,2.3,2.3,0,0,1,2.34,2.12,4.3,4.3,0,0,1,0,.8,8.58,8.58,0,0,1-.77,2.71s2.49-3.18,0-5.39c0,0-.83-.88-3.16-.52C163.82,78.43,162.09,78.53,161.62,78.47Z"/><path class="cls-17" d="M167.45,86.35l0,.06s0,.08-.07.14-.07.14-.12.22-.11.17-.17.27l-.11.15-.11.16a1,1,0,0,0-.13.16l-.15.16a7.84,7.84,0,0,1-2.22,1.65l-.59.29c.48-.25,1-.42,1.45-.69l.19-.12a6,6,0,0,0,1.72-1.73,2.79,2.79,0,0,0,.16-.28l.1-.23.05-.15Z"/><path class="cls-17" d="M166,88.29c0,.37-.08.73-.11,1.1s-.07.73-.11,1.09l-.09,1.09-.1,1.1h0a1.42,1.42,0,0,1-.11.35,3.07,3.07,0,0,1-1.95,1.64,5.35,5.35,0,0,1-1.49.25h-.76l-.38,0-.38,0,.38.06.38,0,.38,0H162l.38,0,.38,0a3.54,3.54,0,0,0,2.59-1.5,2.31,2.31,0,0,0,.18-.35,2.29,2.29,0,0,0,.12-.37h0l.08-1.09c0-.37.06-.73.08-1.1s.06-.73.08-1.09S166,88.66,166,88.29Z"/><path class="cls-17" d="M166,92.35l2,.73,2,.71,2,.71,1,.35,1,.35c.32.12.64.24,1,.38a9.79,9.79,0,0,1,.92.45c.15.09.3.17.44.27l.41.29a5.29,5.29,0,0,1,.71.71l.07.1.08.1.14.21.12.22a1.51,1.51,0,0,1,.11.22,4.62,4.62,0,0,1,.19.47l.08.23.07.25a5.48,5.48,0,0,1,.13,1,5.81,5.81,0,0,1,0,1h0l0,2.15,0,2.16v4.31l.18-.17h-5.15l-2.57,0h-1.28l-1.29,0,1.29,0,1.28,0,2.57.08,2.57.07,2.57.06h.18v-.18l0-2.15,0-1.08,0-1.08,0-2.15c0-.72,0-1.44,0-2.16v0a6.5,6.5,0,0,0,0-1.08,5.71,5.71,0,0,0-.14-1.08l-.07-.25-.09-.27c-.06-.17-.14-.33-.21-.5l-.13-.24c-.05-.08-.09-.16-.14-.23l-.15-.23-.08-.11-.09-.1a4.26,4.26,0,0,0-.77-.76l-.44-.32c-.15-.1-.31-.18-.47-.27a8.39,8.39,0,0,0-1-.45q-.49-.19-1-.36c-.33-.12-.67-.23-1-.33l-1-.33-2-.64L168,93C167.35,92.76,166.68,92.56,166,92.35Z"/><path class="cls-17" d="M174.18,132.22a52.09,52.09,0,0,1-19.45,1.24,47.35,47.35,0,0,0,19.45-.75Z"/><path class="cls-16" d="M157,109.25c.48.5,6.82,8.16,8.41,9.44a12.06,12.06,0,0,0,3.49,2.25c2.77,1,5.14-.27,7.1-2.84.88-1.15-4.06-4.73-5.25-5.42L167,110.5c-1.84-1.08-3.65-2.2-5.47-3.29l-1.17-.71Z"/><path class="cls-17" d="M163.3,108.28l9.47,5.6A78.43,78.43,0,0,1,163.3,108.28Z"/><path class="cls-17" d="M148.32,98.49,146,128.92S148.14,108.24,148.32,98.49Z"/><path class="cls-16" d="M161.75,101.92a.44.44,0,0,0-.34-.19c-.3,0-.51.41-.65.63a5.56,5.56,0,0,0-.52,1.07,3.06,3.06,0,0,1-.42,1.1.18.18,0,0,1-.21,0c-.31-.23-1.59-4.52-2-5.87a.68.68,0,0,0-1.29.41c.41,1.27,1.32,4.2,1.36,4.4s0,.34-.1.37-.28-.32-.33-.42-.15-.35-.23-.52c-.2-.4-.39-.81-.58-1.22l-.57-1.29-.46-1.05a1,1,0,0,0,0-.1.69.69,0,0,0-.85-.44.67.67,0,0,0-.43.85c.27.63,2,4.08,2,4.2a1.62,1.62,0,0,1,.1.18c0,.09-.12.14-.18.11s-1.78-2.13-2.22-2.75l-.5-.72a.6.6,0,1,0-1,.67c.51.78,2.55,3.14,2.66,3.3s-.06.5-.27.38a3.17,3.17,0,0,1-.56-.47,14.59,14.59,0,0,1-1.54-1.7,1.54,1.54,0,0,0-.83-.59.45.45,0,0,0-.56.4,1.12,1.12,0,0,0,.3.66,3.11,3.11,0,0,0,.23.28c.39.45,2.64,3.21,3.48,4a18.85,18.85,0,0,0,1.49,1.33c.54.42,1,.9,1.59,1.32a2.54,2.54,0,0,0,1.27.63.1.1,0,0,0,.08,0,2.54,2.54,0,0,0,1.59-.7,4,4,0,0,0,1.22-.92c.21-.29,1.47.65,1.26.38-1.88-2.51-2.32-3.59-2.37-4.86a9.38,9.38,0,0,1,.46-2A1.32,1.32,0,0,0,161.75,101.92Z"/></g><g class="cls-19"><path class="cls-20" d="M168.87,43.23c.07-.28.15-.55.21-.83a5.7,5.7,0,0,0-.22-2.59c-.25-1.06.12-2.13,0-3.2a6.28,6.28,0,0,0-.59-1.84A6.92,6.92,0,0,0,165.61,32c-2.09-1.33-5.18-1.45-7.56-1a6.93,6.93,0,0,0-3.93,2.38,8.78,8.78,0,0,0-1.87,2.42c-.64,1.55.07,3.26-.44,4.83a12.11,12.11,0,0,0-.56,2.5,11.16,11.16,0,0,0,.47,2.78c.81,3.74,2.6,1.9,3.51,2.08s3.35.74,4.33.48a5.71,5.71,0,0,1,2.95.24,2.62,2.62,0,0,0,1.24.14c.8-.18,1.45-.74,2.26-.88a3.72,3.72,0,0,1,1.1-.08c.39,0,.9.23,1.27,0s.24-.56.23-.84c0-.65.09-1.29.11-1.94A8.12,8.12,0,0,1,168.87,43.23Z"/><path class="cls-20" d="M155,48.33a18.3,18.3,0,0,1,9.37,0l-.22,1.57-8.72.74L155,48.41"/><rect class="cls-21" x="157.58" y="40.83" width="4.56" height="8.19"/><path class="cls-21" d="M155.26,48.83s7.65-.53,9.1.17l-1.61,3.94h-6Z"/><path class="cls-13" d="M150.35,82.5l18-.33-2.89-32.48h-2.19c-.37,1-1.82,1.75-3.56,1.75s-3.18-.75-3.55-1.75h-2.31Z"/><path class="cls-22" d="M164.23,48.86s3.23,1,3.4,1a8.36,8.36,0,0,1,4.89,6,64.65,64.65,0,0,1,1.32,15.34,31,31,0,0,0,.49,6.6c.51,2.75.2,8.81-3.53,8.89-.25,0-7.6-.69-8.77-17.77-.15-2.13-.59-6.52-.48-8.54C162,52.76,164.23,48.88,164.23,48.86Z"/><path class="cls-22" d="M155.4,48.86s-3.23,1-3.4,1a8.36,8.36,0,0,0-4.89,6A62.83,62.83,0,0,0,146,67.23c-.16,3.39-.92,6.64-1.2,10-.22,2.63.44,8.68,3.86,8.76a13.32,13.32,0,0,0,1.74-2.11c1-1.2,6.62-15.6,7.57-24.2C158.76,52.18,155.4,48.88,155.4,48.86Z"/><path class="cls-17" d="M156.84,50.64a5.12,5.12,0,0,0,4,.69s-2.86.21-4.14-1.2Z"/><path class="cls-23" d="M159.11,51.24a3,3,0,0,0,3-2.57l1.67.08A3.8,3.8,0,0,1,159.11,51.24Z"/><path class="cls-22" d="M164.93,48.75s3.68,4.52-.29,6.42a4.08,4.08,0,0,1-3.09,4.53S162.09,45.48,164.93,48.75Z"/><path class="cls-17" d="M164.36,48.75c1.59,1.81,2.29,4.51.11,6.11C166.77,53.34,166.06,50.49,164.36,48.75Z"/><path class="cls-17" d="M164.22,55.43A4.28,4.28,0,0,1,162,59.15,3.83,3.83,0,0,0,164.22,55.43Z"/><path class="cls-22" d="M154.55,48.73s-3.68,4.52.29,6.42a4.08,4.08,0,0,0,3.09,4.53S157.39,45.46,154.55,48.73Z"/><path class="cls-17" d="M155.12,48.73c-1.59,1.81-2.29,4.51-.11,6.1C152.72,53.32,153.42,50.47,155.12,48.73Z"/><path class="cls-17" d="M155.27,55.4a4.24,4.24,0,0,0,2.23,3.72A3.8,3.8,0,0,1,155.27,55.4Z"/><path class="cls-17" d="M154.2,49.22a2.21,2.21,0,0,0-.14.26c-.05.08-.09.18-.15.3s-.12.25-.18.4-.12.3-.18.47-.11.36-.16.55a5.6,5.6,0,0,0-.12.59,3.08,3.08,0,0,0,0,.61,1.67,1.67,0,0,0,0,.31v.15l0,.14,0,.08a.19.19,0,0,0,0,.07l0,.14a2.31,2.31,0,0,0,.1.28l.12.25c.05.08.09.16.14.23l.15.21.16.19c0,.06.11.11.16.16l.14.14.14.12.06.05.06,0,.23.18-.26-.13-.07,0-.07,0-.16-.1-.17-.12c-.06,0-.12-.09-.18-.15l-.19-.18-.18-.21c-.06-.07-.11-.15-.17-.23s0-.09-.08-.14l-.07-.13c-.05-.1-.09-.2-.13-.3a2.8,2.8,0,0,1-.09-.31,1,1,0,0,0,0-.17.88.88,0,0,0,0-.16,1.88,1.88,0,0,1,0-.34,3.67,3.67,0,0,1,.05-.66,5.45,5.45,0,0,1,.14-.61c.07-.2.14-.39.21-.56s.08-.17.12-.24l.12-.23.23-.38c.07-.11.14-.2.2-.28A1.47,1.47,0,0,1,154.2,49.22Z"/><path class="cls-17" d="M164.07,48.27h.09a1.48,1.48,0,0,1,.26.07.71.71,0,0,1,.18.08l.09.06.09.07a3.59,3.59,0,0,1,.39.39,3.1,3.1,0,0,1,.37.53,4.36,4.36,0,0,1,.32.65,7.61,7.61,0,0,1,.25.72c.07.25.14.51.19.77a1.62,1.62,0,0,1,0,.19v.1l0,.1c0,.14,0,.27,0,.4a3.34,3.34,0,0,1,0,.78,3.18,3.18,0,0,1-.22.7,1.53,1.53,0,0,1-.37.55,3.92,3.92,0,0,1-.42.34A3.43,3.43,0,0,1,165,55a1.31,1.31,0,0,1-.24.12l-.08,0,.08,0L165,55c.09-.07.2-.15.32-.26a3.24,3.24,0,0,0,.38-.37,1.47,1.47,0,0,0,.31-.52,4.1,4.1,0,0,0,.17-.67,3.48,3.48,0,0,0,0-.73c0-.12,0-.25,0-.37l0-.1v-.09l0-.19c-.05-.26-.11-.51-.18-.76s-.14-.48-.22-.71a6.45,6.45,0,0,0-.28-.64,3.52,3.52,0,0,0-.33-.54,2.74,2.74,0,0,0-.34-.4l-.08-.08-.08-.06-.16-.1a1,1,0,0,0-.25-.09h-.09Z"/><path class="cls-17" d="M165.32,49.25s6.65.41,7.53,8.33C172.85,57.58,172.25,50.59,165.32,49.25Z"/><path class="cls-17" d="M173.82,67.22l.1,7.47A48.57,48.57,0,0,1,173.82,67.22Z"/><path class="cls-23" d="M162.15,47.13c0-1.42.11-3.25.11-3.25l-3.7.13a3.49,3.49,0,0,0-.75,1.65A4.79,4.79,0,0,0,162.15,47.13Z"/><path class="cls-21" d="M164.81,40.34c0,2.6-2.46,6.14-4.94,6.14s-5-3.49-5-6.14a5,5,0,1,1,9.93,0Z"/><path class="cls-23" d="M159.57,40a3.68,3.68,0,0,1,.06.66c0,.08,0,.16,0,.24a2.49,2.49,0,0,1-.13.67c0,.1-.11.22-.16.33a1.06,1.06,0,0,0-.06.19.58.58,0,0,0,0,.19.63.63,0,0,0,0,.19.53.53,0,0,0,.11.21.61.61,0,0,0,.26.19.88.88,0,0,0,.33.06s.07,0,.07-.07a.06.06,0,0,0-.06-.07.76.76,0,0,1-.36-.09.45.45,0,0,1-.13-.11.6.6,0,0,1-.08-.16.4.4,0,0,1,0-.15.5.5,0,0,1,0-.16,1.17,1.17,0,0,1,.09-.24,2.06,2.06,0,0,0,.12-.26,2.19,2.19,0,0,0,.14-.71,2,2,0,0,0,0-.25,4,4,0,0,0-.06-.69.08.08,0,0,0-.08-.06.08.08,0,0,0-.06.09Z"/><path class="cls-17" d="M157.78,40.16c0,.22-.13.41-.3.41s-.29-.19-.29-.41.13-.4.29-.4S157.78,39.94,157.78,40.16Z"/><path class="cls-17" d="M157.88,38.64a2.81,2.81,0,0,0-.9.17,2.86,2.86,0,0,0-.47.22c-.15.09-.29.19-.44.27a.09.09,0,0,0,0,.11.08.08,0,0,0,0,0,.06.06,0,0,0,.06,0,4.7,4.7,0,0,0,.9-.28,3.43,3.43,0,0,1,.84-.14c.15,0,.46,0,.43-.23S158,38.64,157.88,38.64Z"/><path class="cls-17" d="M161.43,40.16c0,.22.14.41.3.41s.3-.19.3-.41-.14-.4-.3-.4S161.43,39.94,161.43,40.16Z"/><path class="cls-17" d="M161.33,38.64a2.81,2.81,0,0,1,.9.17,2.86,2.86,0,0,1,.47.22c.15.09.29.19.44.27a.08.08,0,0,1,.05.11.08.08,0,0,1,0,0,.06.06,0,0,1-.06,0,4.7,4.7,0,0,1-.9-.28,3.43,3.43,0,0,0-.84-.14c-.15,0-.46,0-.43-.23S161.2,38.64,161.33,38.64Z"/><path class="cls-6" d="M158.38,43.81a6.45,6.45,0,0,0,3.06.07,2.17,2.17,0,0,1-1.55.84A1.84,1.84,0,0,1,158.38,43.81Z"/><path class="cls-21" d="M163.88,40.82c.08.74-.07,1.36.43,1.31s1.52-.87,1.52-1.61c0-1-.5-1.18-1-1.13A1.3,1.3,0,0,0,163.88,40.82Z"/><path class="cls-23" d="M164.51,41.5a1.5,1.5,0,0,0,.4-.22,1.05,1.05,0,0,0,.3-.39h0a1.24,1.24,0,0,0-.06-.37.79.79,0,0,0-.18-.31l-.08-.07h0a.09.09,0,0,1,0-.12.1.1,0,0,1,.12,0,.63.63,0,0,1,.23.21,1.09,1.09,0,0,1,.1.19,1,1,0,0,0,0-.26.43.43,0,0,0,0-.11v0h0a.09.09,0,0,1,.05-.12.08.08,0,0,1,.11.05,1.76,1.76,0,0,1,.06.17,1.56,1.56,0,0,1,.06.42,1.15,1.15,0,0,1,0,.31,1,1,0,0,1-.05.16h0a1.21,1.21,0,0,1-.21.33,1.48,1.48,0,0,1-.59.39.09.09,0,0,1-.12,0A.1.1,0,0,1,164.51,41.5Z"/><path class="cls-23" d="M159.87,34.75s0,.61,0,.64a1.88,1.88,0,0,0,1.1,1.22c.32.16.7.2,1,.33a1.77,1.77,0,0,1,.68.5c.73.79,1.13,1.8,2.23,2.16a1.17,1.17,0,0,0,.52.07s.51-.15.49-.19l-1.6-3.61Z"/><path class="cls-20" d="M167.24,37.75a4.05,4.05,0,0,0-2.13-3.59,5.6,5.6,0,0,0-4.09-.47,1.47,1.47,0,0,0-1,2c.32.76,1.23.78,1.91.95.9.22,1.44,1.28,1.81,2,1.85,3.72,3.31,4.12,4.32,3.9C169,42.34,167.25,38.51,167.24,37.75Z"/><path class="cls-20" d="M160.21,33.86l-.11,1.78s.09.55-1.72.75a2.23,2.23,0,0,0-2,1.28,4.9,4.9,0,0,1-1.12,1.77,2,2,0,0,1-1.34.53S153.63,34.56,160.21,33.86Z"/><path class="cls-21" d="M155.62,40.82c-.08.74.07,1.36-.43,1.31s-1.52-.87-1.52-1.61c0-1,.5-1.18,1-1.13A1.29,1.29,0,0,1,155.62,40.82Z"/><path class="cls-23" d="M155,41.5a1.67,1.67,0,0,1-.4-.22,1.05,1.05,0,0,1-.3-.39h0a1.24,1.24,0,0,1,.06-.37.79.79,0,0,1,.18-.31l.08-.07h0a.09.09,0,0,0,0-.12.1.1,0,0,0-.12,0,.56.56,0,0,0-.22.21.68.68,0,0,0-.11.19,1,1,0,0,1,0-.26.43.43,0,0,1,0-.11v0h0a.09.09,0,0,0-.05-.12.08.08,0,0,0-.11.05,1.76,1.76,0,0,0-.06.17,1.61,1.61,0,0,0-.05.42,1.71,1.71,0,0,0,0,.31s0,.11.05.16h0a1.52,1.52,0,0,0,.21.33,1.48,1.48,0,0,0,.59.39.09.09,0,1,0,.07-.16Z"/><path class="cls-20" d="M164.44,28.44a1,1,0,0,0-.33-.5,2.1,2.1,0,0,0-1.22-.43c-1.13-.14-3.13,0-3.81,1.06-.43.68,0,1.68.29,2.43.74,2,2.71-.36,3.65-.94C163.56,29.73,164.62,29.24,164.44,28.44Z"/><path class="cls-13" d="M163.24,31c-.06-.24-.35-.34-.57-.37h0c.2-.14.47-.36.36-.63a.37.37,0,0,0-.33-.21.48.48,0,0,0-.37.19,2.34,2.34,0,0,0-.39.71l0,0a14.12,14.12,0,0,1-2.49-.12c-.17-.1-.33.17-.16.26A14.3,14.3,0,0,0,162,31a.8.8,0,0,0,.7.63A.54.54,0,0,0,163.24,31Zm-.58-.92h0l0,0s0,0,0,0h0c0,.05,0,0-.07.09a1.5,1.5,0,0,1-.24.18l-.05,0a1.59,1.59,0,0,1,.13-.22A.48.48,0,0,1,162.66,30.12Zm.28,1.06v0a.24.24,0,0,1-.24.15.51.51,0,0,1-.3-.15.5.5,0,0,1-.13-.26,1.22,1.22,0,0,1,.27,0,.79.79,0,0,1,.25.05h0l.06,0,0,0,0,0h0v0S162.94,31.16,162.94,31.18Z"/></g><g class="cls-24"><path class="cls-25" d="M102.61,52.62l.27.07c1.5.41,3.54,1,5,.08a2.63,2.63,0,0,0,1.1-2,2.21,2.21,0,0,0-.42-1.47,4.48,4.48,0,0,0-2.62-1.55c-2.62-.69-5.15-1.67-7.81-2.2-1.33-.26-2.85-.76-3.13-2.27-.2-1,.74-3.83,1-4.83.14-.55-.41.58-.26,0,.11-.38.21-.76.29-1.15a3.94,3.94,0,0,0,.2-1.11l-2.84-4.72c-.11.32-.79,2.89-.91,3.28-1,2.87-2.31,5.72-2.76,8.73a6,6,0,0,0,.33,4c.86,1.42,2.58,1.9,4.06,2.42,1.85.64,3.73,1.25,5.61,1.82C100.66,52.07,101.63,52.35,102.61,52.62Z"/><path class="cls-25" d="M100.54,34.23a.45.45,0,0,0,0-.34c-.15-.21-.55-.19-.77-.19a5.17,5.17,0,0,0-1,.11,2.5,2.5,0,0,1-1,.19c-.07,0-.14-.06-.13-.13A43.57,43.57,0,0,1,101,29.65a.59.59,0,0,0-.9-.76c-.75.88-2.51,2.92-2.64,3s-.25.16-.32.09.11-.35.16-.43.19-.27.27-.41l.65-1,.69-1,.57-.82.06-.08a.62.62,0,0,0-.07-.84.6.6,0,0,0-.83.07c-.35.49-2.12,3.36-2.19,3.45a.83.83,0,0,1-.09.16c-.05,0-.15,0-.16-.08s.76-2.31,1-2.93c.1-.23.2-.47.31-.7a.52.52,0,1,0-1-.42c-.35.74-1.16,3.35-1.22,3.5s-.4.19-.41,0a4.69,4.69,0,0,1,.09-.64,13.23,13.23,0,0,1,.55-1.93,1.33,1.33,0,0,0,0-.88.39.39,0,0,0-.55-.24,1,1,0,0,0-.36.53c0,.1-.07.2-.1.3-.15.5-1.16,3.45-1.39,4.46a17.2,17.2,0,0,0-.3,1.72c-.07.6-.19,1.19-.24,1.79a2.16,2.16,0,0,0,.12,1.24.08.08,0,0,0,0,.07,2.23,2.23,0,0,0,1.26.86,3.68,3.68,0,0,0,1.25.48c.32,0,.2,1.39.3,1.11,1-2.56,1.59-3.38,2.51-4a8.08,8.08,0,0,1,1.71-.6A1.13,1.13,0,0,0,100.54,34.23Z"/><path class="cls-10" d="M111.53,48.89S109,55,105.33,54.8l-8.57-2.1,2.55-8.1,8.17,2.62Z"/><path class="cls-25" d="M127.68,77.72s-2.33,3.27-2.48,3.73c-.23.66.49,1.41.83,1.88a1.74,1.74,0,0,0,.65.64c.36.16.64-.11.69-.47a1.86,1.86,0,0,0-.29-1.1c0-.05-.36-.65-.37-.64l1.28-1-.31-3.08"/><path class="cls-26" d="M126.88,82c.09.17.19.34.2.37a1.9,1.9,0,0,1,.3,1,6.89,6.89,0,0,1-.54.65.58.58,0,0,1-.16,0,1.74,1.74,0,0,1-.65-.64l-.1-.14.14-.19a11.56,11.56,0,0,1,.81-1"/><path class="cls-25" d="M131,59.67a64.1,64.1,0,0,1,1.69,19.77l-5.62-.85s1.76-3-2.27-19.7Z"/><path class="cls-10" d="M102.59,82c.92.88,21.2,1.3,21.81,0,.32-.67,0-18.4.57-25.6.17-2,.37-4,.62-6,.19-1.47,0-2.75-1.59-3.13-3.48-.8-19.46,0-20.23.36-1,.51-.64,1.77-.51,2.64C104.19,56.51,102.31,81.74,102.59,82Z"/><rect class="cls-25" x="111.92" y="41.44" width="4.52" height="5.92"/><path class="cls-25" d="M109.07,38.66a7.87,7.87,0,0,0,1.73,4.05,4.11,4.11,0,0,0,6.64,0,7.78,7.78,0,0,0,1.73-4.05A5.41,5.41,0,0,0,118,34.51a5,5,0,0,0-7.78,0A5.49,5.49,0,0,0,109.07,38.66Z"/><path class="cls-25" d="M109.07,38.66a7.87,7.87,0,0,0,1.73,4.05,4.11,4.11,0,0,0,6.64,0,7.78,7.78,0,0,0,1.73-4.05A5.41,5.41,0,0,0,118,34.51a5,5,0,0,0-7.78,0A5.49,5.49,0,0,0,109.07,38.66Z"/><path class="cls-25" d="M118.25,39.55a5.07,5.07,0,0,1,.13-.56c.05-.15.11-.29.15-.43a2.39,2.39,0,0,1,.19-.57.79.79,0,0,1,.21-.27.72.72,0,0,1,.28-.13.89.89,0,0,1,.56,0l.07,0h0a.66.66,0,0,1,.39.57,2,2,0,0,1-.2.76c-.09.28-.16.57-.27.85a1.22,1.22,0,0,1-.62.75.7.7,0,0,1-.53,0,.68.68,0,0,1-.36-.45A1.4,1.4,0,0,1,118.25,39.55Z"/><path class="cls-25" d="M110,40.09a.67.67,0,0,1-.35.45.72.72,0,0,1-.54,0,1.26,1.26,0,0,1-.62-.75c-.11-.28-.17-.57-.27-.85a2,2,0,0,1-.19-.76.65.65,0,0,1,.38-.57h0l.07,0a.86.86,0,0,1,.55,0,.72.72,0,0,1,.28.13,1,1,0,0,1,.22.27,2.93,2.93,0,0,1,.19.57c0,.14.1.28.14.43a2.68,2.68,0,0,1,.13.56A1.4,1.4,0,0,1,110,40.09Z"/><path class="cls-17" d="M114.7,37.08c.23.77.81,3.22-.65,3.06-.08,0-.08-.14,0-.13,1.32.14.73-2.2.52-2.89C114.54,37,114.67,37,114.7,37.08Z"/><path class="cls-27" d="M119.72,39.1c-.1.52-.46,1.08-1,.95a.07.07,0,0,1,0-.13c.52.12.81-.42.9-.86C119.61,39,119.74,39,119.72,39.1Z"/><path class="cls-27" d="M108.72,39.06c.09.44.38,1,.9.86.08,0,.11.11,0,.13-.6.13-1-.43-1.06-.95C108.58,39,108.7,39,108.72,39.06Z"/><path class="cls-17" d="M116.49,37.34a.31.31,0,0,1,.06-.13l.07-.06,0,0h.17l0,0a.22.22,0,0,1,.07.06.24.24,0,0,1,.07.13.87.87,0,0,1,.06.32.65.65,0,0,1-.14.42.28.28,0,0,1-.26.07.3.3,0,0,1-.19-.19A.88.88,0,0,1,116.49,37.34Z"/><path class="cls-17" d="M116.87,36.36l.74.32c.18.08.49.23.63,0s-.69-.84-.94-1a1.72,1.72,0,0,0-.85-.28.37.37,0,0,0-.2.07.35.35,0,0,0-.15.19C116,36.08,116.59,36.26,116.87,36.36Zm-.29-.72h0S116.55,35.59,116.58,35.64Z"/><path class="cls-17" d="M111.86,37.32a.34.34,0,0,1,.06-.12s0-.05.07-.06l.05,0h.17l.05,0a.13.13,0,0,1,.07.06.29.29,0,0,1,.07.12.87.87,0,0,1,.06.32.63.63,0,0,1-.14.42.26.26,0,0,1-.26.07.28.28,0,0,1-.19-.19A.88.88,0,0,1,111.86,37.32Z"/><path class="cls-17" d="M113,35.72a.35.35,0,0,0-.15-.19.38.38,0,0,0-.21-.07,1.72,1.72,0,0,0-.84.28c-.25.13-1.16.6-.94,1s.45.09.63,0l.74-.32C112.51,36.3,113.09,36.12,113,35.72Zm-.48,0h0S112.54,35.66,112.52,35.67Z"/><path class="cls-6" d="M112.86,41a1.45,1.45,0,0,1,.46.37,2.09,2.09,0,0,0,.49.39,1.61,1.61,0,0,0,1.36,0c.11,0,.27-.13.41-.19s.26-.09.31,0-.06.3-.23.44a1.73,1.73,0,0,1-.54.3,2.42,2.42,0,0,1-1.92-.11,1.51,1.51,0,0,1-.75-.79.4.4,0,0,1,0-.41A.29.29,0,0,1,112.86,41Z"/><path class="cls-6" d="M108.13,35.52c-.57-2.34.67-4.71,2.22-6.39a6.29,6.29,0,0,1,.8-.75,5.41,5.41,0,0,1,2.58-1c1.13-.12,2,.09,2.12,1.33a6.25,6.25,0,0,0,1.05-.19,6.2,6.2,0,0,1,1.14,0c.74.05,2.34.24,2.44,1.22,0,.3-.17.47-.35.67.39.1.84.1,1.25.19a7.45,7.45,0,0,1,1.2.35,2.81,2.81,0,0,1,.54.29c.27.19.38.41.16.68a4.26,4.26,0,0,1-.8.66c-.3.23-.61.45-.93.65A4.86,4.86,0,0,0,120,35a9.39,9.39,0,0,0-.69,2.57c-.05.24-.12.48-.19.72s0,.38-.15.48-.19-.33-.2-.39a16.73,16.73,0,0,0-.26-2.74,3.67,3.67,0,0,0-1.15-1.76,4.3,4.3,0,0,0-1.79-.88,5.27,5.27,0,0,0-1.19-.1c-2.4.1-4.59,1.52-4.71,4.06a9.42,9.42,0,0,0,.18,2.25A14.59,14.59,0,0,1,108.13,35.52Z"/><path class="cls-10" d="M120.34,46.93l2.87.09a14.08,14.08,0,0,1,4.06.86,3.84,3.84,0,0,1,2.19,2.37c.55,1.51,3.57,10,3.51,10.19L125.16,62,122,53.12Z"/><path class="cls-25" d="M120.34,46.93a89.54,89.54,0,0,0-12.78.29l6.86,3.49Z"/><path class="cls-27" d="M114,44.4a3.11,3.11,0,0,1-2.06-.68v2.76A3.3,3.3,0,0,1,114,44.4Z"/><path class="cls-27" d="M117.37,48.83l-3,1.88-6.86-3.49s6.43,2.83,6.88,3.26Z"/><path class="cls-27" d="M113.33,33s-4.89.64-3.53,6.19C109.8,39.18,108.74,34.11,113.33,33Z"/><path class="cls-6" d="M124.17,52.39a8.88,8.88,0,0,1-1,4.58,3.43,3.43,0,0,1-2.6,1.93,3.15,3.15,0,0,1-2.69-1.65,8.32,8.32,0,0,1-1.19-4.44v-.42a.08.08,0,0,1,.08-.07h7.34a.08.08,0,1,1,0,.15h-7.34l.08-.08a8.77,8.77,0,0,0,1,4.42,2.75,2.75,0,0,0,5.26,0,8.57,8.57,0,0,0,1-4.42A.08.08,0,0,1,124.17,52.39Z"/><path class="cls-17" d="M120.38,47l-3.86,2.46-1.91,1.22c-.07,0-.16.14-.25.09l-.49-.25-6.35-3.23c-.09,0,0-.18.08-.14l4,2,2.35,1.2.51.26c.06,0-.1,0,0,0l.2-.13,5.69-3.63C120.39,46.8,120.47,46.94,120.38,47Z"/><path class="cls-17" d="M124.09,81.53a99.63,99.63,0,0,1-14,.52c-2.36-.07-4.72-.23-7.07-.52-.1,0-.1-.18,0-.16a94.35,94.35,0,0,0,19.45.16l1.65-.16C124.2,81.35,124.19,81.51,124.09,81.53Z"/><path class="cls-25" d="M132.35,76.49a24.9,24.9,0,0,1,.34,3.65,16.43,16.43,0,0,1-.15,2.43,3.07,3.07,0,0,1-.64,1.67,1,1,0,0,1-.86.3s-.14.7-1.44.49c0,0-.26.79-1.53.23-.1-.05-.42.07-.55.06-1-.07-1-1.39-1.12-2.18a9.39,9.39,0,0,1,0-2.54,4.58,4.58,0,0,1,.86-2.13l.53-2.75Z"/><path class="cls-20" d="M115.3,37.62A1.31,1.31,0,0,0,116,38.7a2.4,2.4,0,0,0,1.64.24,1.83,1.83,0,0,0,1.24-.77,1.07,1.07,0,0,0-.09-1.23,2.22,2.22,0,0,0-2.13-.64c-.65.12-1.38.58-1.39,1.32a.09.09,0,0,1-.17,0c0-1.06,1.22-1.55,2.12-1.54s2.06.6,2,1.64-1.25,1.45-2.12,1.44-2-.55-2-1.54A.09.09,0,0,1,115.3,37.62Z"/><path class="cls-20" d="M110.47,37.72a1.35,1.35,0,0,0,.73,1.09,2.46,2.46,0,0,0,1.64.24,1.86,1.86,0,0,0,1.24-.78A1.07,1.07,0,0,0,114,37a2.23,2.23,0,0,0-2.13-.64c-.65.13-1.38.59-1.39,1.32a.09.09,0,0,1-.17,0c0-1,1.22-1.55,2.12-1.53s2.07.59,2,1.64-1.25,1.45-2.12,1.43-2-.54-2-1.54C110.3,37.62,110.47,37.62,110.47,37.72Z"/><path class="cls-20" d="M115.23,37.56h-.93c-.1,0-.1-.17,0-.17h.93C115.33,37.39,115.33,37.56,115.23,37.56Z"/><path class="cls-20" d="M110.34,37.88l-2-1.51c-.08-.06,0-.2.09-.14l2,1.51C110.51,37.8,110.43,38,110.34,37.88Z"/></g><g class="cls-28"><polygon class="cls-16" points="39.4 123.58 38.18 122.1 39.85 119.88 41.7 121.52 39.4 123.58"/><path class="cls-29" d="M72.24,82.72c.28-2.34-8.91,1.79-10.59.16a3.43,3.43,0,0,0,1.19-2.61c0-1.9,2.18-7.38.31-7.07-7.77,1.29-8.08,6.11-10.29,6.83-2.46.79-5.54,1.49-7.35,3.47-1,1.14-1.27,2.79-2.44,3.83s-2.79,1.28-4.21,1.78c-4.68,1.63-8.29,5.9-8.29,11,0,5.87,6,14.94,13.92,14.94s14.56-5.64,14.56-11.51c0-.41.35-2.28.29-2.69C63,99.43,70.86,94.46,72.24,82.72Z"/><path class="cls-22" d="M77.42,92.22A3.06,3.06,0,0,0,73.28,90a2.53,2.53,0,0,0-1.46,2.45c0,.56-1.1,1.15-.95,1.69.59,2.07,6.15,14.73,8.12,16.7.54.53,4.12-3.54,3.72-3.94C81.75,105.94,77.42,92.22,77.42,92.22Z"/><path class="cls-16" d="M91.62,120s-11.14-6.85-8.46-8.54c0,0,1.77-1.53,4,.68l5.69,6.8Z"/><path class="cls-16" d="M92.77,118.78a7.74,7.74,0,0,1,3.67.64l2.8,1s.21.69-2-.11c0,0,.8,1.7-.22,2.22,0,0-.32,0-.06-.63a2.22,2.22,0,0,0-.45-1.75s.46,1.61-.62,2.35c0,0-.47,0-.1-.5a2.06,2.06,0,0,0,.11-2s0,.14,0,.19a4.13,4.13,0,0,1,0,.5,1.89,1.89,0,0,1-.51,1.19,1,1,0,0,1-.33.25c-.13,0-.31.06-.34-.11s.31-.53.43-.73a1.9,1.9,0,0,0,.23-.58c0-.16.1-.5-.06-.61s-.33,0-.44.06a5.54,5.54,0,0,1-1.2.36,2.51,2.51,0,0,1-1.6-.1,1,1,0,0,1-.33-.28s-.27-.35-.24-.39l.86-1.21Z"/><path class="cls-22" d="M79.6,111.55c-4.54-4.79,1.17-6.44,2.76-5,1.34,1.21,9.79,9.5,10.46,10.7.22.39-2.51,3.07-2.75,2.66C88.71,117.48,84.22,116.43,79.6,111.55Z"/><path class="cls-30" d="M93.64,117.3a21.2,21.2,0,0,0-3.44,3.42L89,118.6A21.18,21.18,0,0,1,91.83,116Z"/><path class="cls-22" d="M53.76,96.81s5.59,11,1.86,20.21c0,0-6.06,11.41-.25,20l21.32-.56s2.76-8.11-2.87-22.41c0,0-4-13.12,4.66-18.78Z"/><path class="cls-29" d="M62.53,73.3c-4.62,1.08-6.88,6.25-5.45,12.39.38,1.59.53,2.14.89,3.64l13.21,1.82c1.13-1,2.33-6.27,1.07-11.66-1-4.31-3.26-5.7-5.94-6.3A16.69,16.69,0,0,0,62.53,73.3Z"/><rect class="cls-16" x="61.2" y="90.26" width="8.61" height="4"/><polygon class="cls-13" points="71.37 105.08 58.88 105.08 59.42 90.21 60.92 90.26 65.39 93.29 69.77 90.25 71.37 90.1 71.37 105.08"/><path class="cls-17" d="M59.42,90.21s1.67,12.67,8.94,9.22l-2.64,2.25S58.74,97.65,59.42,90.21Z"/><path class="cls-22" d="M58.39,124s14.64.19,14.64.18l-1-13.14L74.5,89.8l-3.68.34s0,.14,0,.18c0,3.15-2.56,10.12-5.71,10.12s-5.7-7-5.7-10.12v-.11H54.64c-2.73,0,3.75,21,3.75,21l-3,12.87S58.39,124,58.39,124Z"/><rect class="cls-16" x="61.57" y="85.93" width="7.06" height="4.37" transform="translate(-23.34 152.77) rotate(-89.71)"/><path class="cls-18" d="M63.34,86.69s2.31,1.37,4,.52v1.16A4.63,4.63,0,0,1,63.34,86.69Z"/><path class="cls-16" d="M69.66,82.86A7.78,7.78,0,0,1,69,85.45a3.88,3.88,0,0,1-2.58,2.31,3.5,3.5,0,0,1-1.6,0,5,5,0,0,1-1.4-.55A5.39,5.39,0,0,1,61.29,85a7.74,7.74,0,0,1-.66-1.67,6.37,6.37,0,0,1-.19-1.06,4.62,4.62,0,0,1,1.21-3.67,4.83,4.83,0,0,1,3.71-1.57c1.49,0,2.26.22,3.09,1.24A6.49,6.49,0,0,1,69.66,82.86Z"/><path class="cls-31" d="M66.66,84.4h0Z"/><path class="cls-17" d="M66.38,84.56l.09-.1a3.15,3.15,0,0,1-.48-.95,4.88,4.88,0,0,1-.19-1,3.12,3.12,0,0,1,.13-1.22h0a5.5,5.5,0,0,0,0,1.21,5.32,5.32,0,0,0,.19,1,2.92,2.92,0,0,0,.49.94l0,0,0,0a.88.88,0,0,1-.15.18.72.72,0,0,1-.45.19.55.55,0,0,1-.22,0A.92.92,0,0,0,66.38,84.56Z"/><path class="cls-17" d="M67.61,81.8c0,.25-.1.46-.26.47S67,82.1,67,81.85s.1-.45.26-.47S67.59,81.56,67.61,81.8Z"/><path class="cls-17" d="M63.94,82.6c0,.24-.09.45-.26.47s-.32-.18-.34-.42.1-.46.27-.47S63.92,82.35,63.94,82.6Z"/><path class="cls-17" d="M64.05,80.89a.61.61,0,0,0-.4,0,2.37,2.37,0,0,0-.88.34l-.26.2s0,.1,0,.12a.06.06,0,0,0,.07,0,1,1,0,0,0,.23-.08,1.48,1.48,0,0,1,.27-.1,2.74,2.74,0,0,1,.5-.08l.27,0a.36.36,0,0,0,.26-.11C64.21,81,64.12,81,64.05,80.89Z"/><path class="cls-17" d="M66.57,80.6a.32.32,0,0,0,.27,0l.27-.07a2.1,2.1,0,0,1,.5-.09h.29a1.92,1.92,0,0,0,.24,0,.1.1,0,0,0,0-.16,1.19,1.19,0,0,0-.32-.1,2.29,2.29,0,0,0-.94,0,.55.55,0,0,0-.35.19C66.53,80.42,66.47,80.54,66.57,80.6Z"/><path class="cls-6" d="M64.59,86l3-.71S66.84,87.81,64.59,86Z"/><path class="cls-18" d="M62,90.26s2.63,2.31,3.33,3l-4.45-3Z"/><path class="cls-18" d="M65.22,77.91c.06,0-.31.71-.33.76a4.6,4.6,0,0,1-1.35,1.56A18.94,18.94,0,0,0,61,82.13a2.71,2.71,0,0,0-.47.64S63.77,76.8,65.22,77.91Z"/><path class="cls-29" d="M64.69,76.85c.26,0,.09,1,.06,1.19a3.5,3.5,0,0,1-1.48,2,10.91,10.91,0,0,0-1.85,1.53,8.47,8.47,0,0,0-.92,1.24c-1.06,1.77-1.41-.53-1.41-.53S59.89,77.4,64.69,76.85Z"/><path class="cls-16" d="M61.8,84.43a11,11,0,0,0-.69-1.37.85.85,0,0,0-.25-.21.68.68,0,0,0-.28-.07.77.77,0,0,0-.51.11l-.06,0,0,0a.62.62,0,0,0-.26.59,1.86,1.86,0,0,0,.31.67c.14.25.24.51.4.74a1.17,1.17,0,0,0,.7.59.71.71,0,0,0,.49-.12.65.65,0,0,0,.25-.48A1.12,1.12,0,0,0,61.8,84.43Z"/><path class="cls-18" d="M60.37,84.26c.18.46.61.93,1.14.7.06,0,0-.14-.06-.11-.46.2-.82-.24-1-.64C60.45,84.14,60.34,84.19,60.37,84.26Z"/><path class="cls-29" d="M64.69,76.85c-.94,1.24,1.06,1.6,1.79,1.79a5.32,5.32,0,0,1,3.09,2.15,2.26,2.26,0,0,1,.43.93,2.15,2.15,0,0,1,0,1,3,3,0,0,0,.28-1.65,5.87,5.87,0,0,0-.56-1.67c-.14-.29-.3-.57-.46-.85a8.18,8.18,0,0,0-.52-.86,3.29,3.29,0,0,0-.65-.9S65.79,75.42,64.69,76.85Z"/><path class="cls-16" d="M69.09,82.73a9.77,9.77,0,0,1,0-1.53.65.65,0,0,1,.34-.49.85.85,0,0,1,.51-.13h.1a.62.62,0,0,1,.5.41,1.89,1.89,0,0,1,0,.75c0,.28,0,.56,0,.83a1.18,1.18,0,0,1-.38.84.63.63,0,0,1-.93-.21A1.22,1.22,0,0,1,69.09,82.73Z"/><path class="cls-18" d="M70.3,82c0,.49-.14,1.09-.71,1.12-.08,0-.08-.11,0-.11.5,0,.63-.59.6-1C70.18,81.87,70.3,81.87,70.3,82Z"/><path class="cls-22" d="M50.61,96.39c1.44-4.74,2.8-5.59,2.8-5.59s.83-.9,2.92-.56c1.06.18,1.52,1.45,1.57,2.32a6.72,6.72,0,0,1,.24,1.76c-.46,2.07-3.14,12.49-7,17.54-.45.59-4.91-3.76-4.65-4.25C47.65,105.42,50.27,97.49,50.61,96.39Z"/><path class="cls-22" d="M48.22,104.41c3.67-5.1,4.18,5.89,2.86,7.53-1.12,1.39-8.7,10.35-9.84,11.08-.38.24-3.16-2.29-2.77-2.54C40.79,119,47.74,105.08,48.22,104.41Z"/><path class="cls-30" d="M41.24,123.82a20.77,20.77,0,0,0-3.54-3.17l2-1.33A20.46,20.46,0,0,1,42.38,122Z"/></g><g class="cls-32"><path class="cls-20" d="M102.71,94s-8.26,7.07-7.34,17.56c0,0,.28,6,6.65,3.44,0,0-2.59-4.27,3.75-13.07Z"/><path class="cls-20" d="M128.56,147.7a59.18,59.18,0,0,1-2-13.43A61.73,61.73,0,0,0,124,121c-.8-3-1.61-6.48-3.64-8.86-3.57-4.19-11-3.85-15-.6C98.64,117,99.86,126.9,101,134.38c.32,2.16.68,4.32.93,6.5a69.88,69.88,0,0,1,.51,10.43c-.08,2-1.23,5.06,1.09,6.28a4.77,4.77,0,0,0,1.43.45,15.1,15.1,0,0,0,3.29.11c1.26-.07,2.51-.15,3.78-.14a84,84,0,0,1,11.09,1c2.72.38,6.77.56,6.85-3.16A27.86,27.86,0,0,0,128.56,147.7Z"/><path class="cls-20" d="M122.92,99.56c0,7.89-5.28,13.81-10.64,13.81s-10.6-5.92-10.6-13.81c0-5,.63-6.17,3.51-6.09,2.11,0,5.11,0,7.09,0,1.57,0,5.46,0,6.89,0C122.61,93.41,122.92,94,122.92,99.56Z"/><path class="cls-25" d="M105.19,93.47c.12,2.4,3.2,4.32,7,4.32s6.87-1.92,7-4.32Z"/><path class="cls-33" d="M104.77,109.17s5.39,1.74,15,0v2.43s-2.58,2.23-15.15.56A4.82,4.82,0,0,0,104.77,109.17Z"/><path class="cls-20" d="M118.15,95a21.85,21.85,0,0,1,2.94-1.52c1.85-.22,3.12,0,4.27,1.43s1.48,4,2.28,5.6a17.43,17.43,0,0,0,2,3,4.63,4.63,0,0,1,1.2,2.37,3.3,3.3,0,0,1-1.7,3,2.79,2.79,0,0,1-2,0,6.69,6.69,0,0,1-1.78-1.24,9.69,9.69,0,0,1-1.17-1.31,11.86,11.86,0,0,1-1.24-1.84Z"/><path class="cls-25" d="M111.22,119.77c-3.45-1.34-11.58-4.13-12.63-4.6a3.29,3.29,0,0,1-1.67-1.23c-1.07-2,1.39-4.58,3.41-3.94,1.69.54,11.73,7.08,12,7.26Z"/><rect class="cls-25" x="110.4" y="86.94" width="3.93" height="7.09"/><path class="cls-27" d="M112,89.78a4.26,4.26,0,0,0,2.29-.43v2.78A2.46,2.46,0,0,0,112,89.78Z"/><path class="cls-33" d="M112.75,76.87c.12-.87.12-1.71-.9-2.06a3.28,3.28,0,0,0-3,.35,3.82,3.82,0,0,1-.7.49c-.58.25-1.25,0-1.83.31s-1.15,1.05-1.82,1.46a5.41,5.41,0,0,1-2,.62,2.25,2.25,0,0,0-1.73,1.09c-.3.61-.15,1.33-.47,1.93A4.15,4.15,0,0,1,99,82.22c-1.2.93-.86,2.46,0,3.44s.6,2.07,1.86,2.62,3,.1,4.33.86a3.07,3.07,0,0,0,1.91.57,11.38,11.38,0,0,1,3-.11c.78.12,1.67.11,2.06-.67.88-1.72.1-3.89.26-5.72a22.41,22.41,0,0,0,.35-2.46c0-.82-.19-1.62-.19-2.44A10,10,0,0,1,112.75,76.87Z"/><path class="cls-33" d="M111.94,76.87c-.13-.87-.12-1.71.89-2.06a3.28,3.28,0,0,1,3,.35,3.58,3.58,0,0,0,.71.49c.58.25,1.24,0,1.83.31s1.14,1.05,1.81,1.46a5.47,5.47,0,0,0,2,.62,2.22,2.22,0,0,1,1.73,1.09c.3.61.15,1.33.47,1.93a4.15,4.15,0,0,0,1.33,1.16c1.21.93.86,2.46,0,3.44s-.6,2.07-1.86,2.62-3,.1-4.33.86a3.05,3.05,0,0,1-1.91.57,11.36,11.36,0,0,0-3-.11c-.78.12-1.66.11-2.06-.67-.87-1.72-.1-3.89-.26-5.72a22.39,22.39,0,0,1-.34-2.46c0-.82.19-1.62.19-2.44A14,14,0,0,0,111.94,76.87Z"/><path class="cls-25" d="M118.15,84.12a8.38,8.38,0,0,1-2,4.43,4.89,4.89,0,0,1-7.64,0,8.38,8.38,0,0,1-2-4.43,5.71,5.71,0,0,1,1.34-4.53,5.92,5.92,0,0,1,8.94,0A5.68,5.68,0,0,1,118.15,84.12Z"/><path class="cls-25" d="M118.15,84.12a8.38,8.38,0,0,1-2,4.43,4.89,4.89,0,0,1-7.64,0,8.38,8.38,0,0,1-2-4.43,5.71,5.71,0,0,1,1.34-4.53,5.92,5.92,0,0,1,8.94,0A5.68,5.68,0,0,1,118.15,84.12Z"/><path class="cls-25" d="M107.59,85.49a4.27,4.27,0,0,0-.15-.64c0-.17-.12-.33-.16-.5a3.2,3.2,0,0,0-.22-.66,1.48,1.48,0,0,0-.25-.31,1.17,1.17,0,0,0-1-.13l-.08,0,0,0a.76.76,0,0,0-.45.65,2.49,2.49,0,0,0,.23.88c.11.32.18.66.31,1a1.38,1.38,0,0,0,.72.86.81.81,0,0,0,.61,0,.77.77,0,0,0,.41-.52A1.62,1.62,0,0,0,107.59,85.49Z"/><path class="cls-25" d="M117.12,86.11a.76.76,0,0,0,.4.52.84.84,0,0,0,.62,0,1.4,1.4,0,0,0,.71-.86c.13-.31.2-.65.32-1a2.71,2.71,0,0,0,.22-.88.75.75,0,0,0-.44-.65l0,0-.08,0a1,1,0,0,0-.64,0,.84.84,0,0,0-.32.14,1,1,0,0,0-.25.31,3.2,3.2,0,0,0-.22.66c0,.17-.11.33-.17.5a4.27,4.27,0,0,0-.15.64A1.62,1.62,0,0,0,117.12,86.11Z"/><path class="cls-17" d="M110.85,83.18c-.1,0-.19-.09-.29-.13h0a.34.34,0,0,0,0-.17c0-.05,0-.12-.08-.13h0c-.07,0-.1.14-.12.2a.63.63,0,0,1-.2.26.8.8,0,0,1-.84.09c-.25-.1-.54-.3-.49-.62,0-.14-.2-.16-.22,0a.7.7,0,0,0,.17.53.82.82,0,0,1-.35.2c-.07,0-.05.14,0,.12a1,1,0,0,0,.41-.23.39.39,0,0,0,.1.08l.15.09a3.27,3.27,0,0,1-.14.33c0,.07.06.14.1.07a3.84,3.84,0,0,0,.14-.36,1.29,1.29,0,0,0,.47.11c0,.11,0,.23,0,.34s.13.06.12,0,0-.22,0-.33a1,1,0,0,0,.37-.11,1.49,1.49,0,0,0,.27.23c.07,0,.14,0,.07-.09a1.21,1.21,0,0,1-.24-.21l.08-.08a1.29,1.29,0,0,0,.15-.17,1.73,1.73,0,0,0,.31.14C110.88,83.32,110.92,83.2,110.85,83.18Z"/><path class="cls-17" d="M108.37,81.54l.21-.11h0s0,0,0,0l.06,0,.13-.05.3-.08a1.94,1.94,0,0,1,1.57.41l.15.13c.09.09.22,0,.13-.13a2.1,2.1,0,0,0-1.65-.62,2.46,2.46,0,0,0-1,.29l0,0C108.17,81.44,108.27,81.6,108.37,81.54Z"/><path class="cls-17" d="M113.83,83.18a2,2,0,0,0,.29-.13h0a.34.34,0,0,1-.05-.17.13.13,0,0,1,.09-.13h0c.07,0,.1.14.13.2a.7.7,0,0,0,.19.26.8.8,0,0,0,.84.09c.26-.1.55-.3.5-.62,0-.14.19-.16.21,0a.69.69,0,0,1-.16.53.73.73,0,0,0,.34.2c.07,0,0,.14,0,.12a1,1,0,0,1-.4-.23l-.11.08-.14.09a1.89,1.89,0,0,0,.13.33c0,.07-.06.14-.09.07a2.28,2.28,0,0,1-.15-.36,1.29,1.29,0,0,1-.46.11c0,.11,0,.23,0,.34s-.12.06-.12,0,0-.22,0-.33a.94.94,0,0,1-.37-.11,2,2,0,0,1-.28.23c-.07,0-.14,0-.07-.09a1.64,1.64,0,0,0,.25-.21l-.09-.08a.79.79,0,0,1-.14-.17,2.12,2.12,0,0,1-.31.14C113.8,83.32,113.76,83.2,113.83,83.18Z"/><path class="cls-17" d="M116.31,81.54l-.2-.11h0s0,0,0,0l0,0-.14-.05-.3-.08a1.94,1.94,0,0,0-1.57.41l-.15.13c-.08.09-.22,0-.13-.13a2.13,2.13,0,0,1,1.65-.62,2.51,2.51,0,0,1,1,.29l0,0A.1.1,0,0,1,116.31,81.54Z"/><path class="cls-17" d="M111,87.46a2.4,2.4,0,0,0,.7.43,1.63,1.63,0,0,0,1.49-.06,2.22,2.22,0,0,0,.44-.37c.08-.1,0-.23-.14-.14a1.59,1.59,0,0,1-.77.5,1.42,1.42,0,0,1-.71,0,2.06,2.06,0,0,1-.57-.25l-.19-.13,0,0s0,0,0,0l0,0,0,0,0,0A.1.1,0,0,0,111,87.46Z"/><path class="cls-17" d="M112.09,82.66c-.26.87-.91,3.7.76,3.5.09,0,.09-.15,0-.14-1.52.18-.86-2.53-.62-3.33C112.25,82.61,112.12,82.57,112.09,82.66Z"/><path class="cls-17" d="M107.23,86.59s1.55,3.85,5.2,3.8A5.28,5.28,0,0,1,107.23,86.59Z"/><path class="cls-27" d="M105.9,85c.12.59.53,1.24,1.21,1.09.09,0,0-.16,0-.14-.61.14-.94-.48-1-1C106,84.84,105.89,84.88,105.9,85Z"/><path class="cls-17" d="M118.56,84.93c-.1.51-.43,1.13-1,1a.07.07,0,0,0,0,.14c.68.15,1.09-.5,1.21-1.09C118.71,84.88,118.58,84.84,118.56,84.93Z"/><path class="cls-27" d="M112.15,77.76c-.07,0,0,.65,0,.69a1.45,1.45,0,0,0,1.2,1,2.8,2.8,0,0,1,.73.27,3.3,3.3,0,0,1,.6.58,2.48,2.48,0,0,0,1.46.63s1,.14,1.57,2.07L117.07,79Z"/><path class="cls-33" d="M119.49,82.22a5,5,0,0,0-.31-.61c-.19-.31-.39-.61-.59-.9-.38-.56-.73-1.13-1.15-1.66a6,6,0,0,0-1.64-1.46,5.15,5.15,0,0,0-2-.7,4.9,4.9,0,0,0-.54,0,1.93,1.93,0,0,0-.48,0,1,1,0,0,0-.28.07,1,1,0,0,0-.16-.06l-.36-.05-.7,0a11,11,0,0,0-1.15,0,3.76,3.76,0,0,0-1.08.29,4.31,4.31,0,0,0-2.17,2.26c-.07.18-.12.37-.2.55s-.12.3-.19.45a3.19,3.19,0,0,0-.35,1.2,4,4,0,0,0,.1.69c0,.2,0,1,.27,1s.39-.5.44-.71a4,4,0,0,1,.5-1.18,2.33,2.33,0,0,1,1.07-1.1,3.51,3.51,0,0,0,1-.41,6.25,6.25,0,0,0,.69-.85c.34-.4.89-.41,1.35-.58a1.46,1.46,0,0,0,.68-.49c-.06.09.17.48.22.55a1.21,1.21,0,0,0,.43.38c.37.21.82.25,1.19.48s.75.83,1.27,1.06,1.13.22,1.43.74a4.68,4.68,0,0,1,.86,2.45c0,.1-.13.55.1.49s.57-.64.72-.88c.42-.63,1.14.31,1.15-.44A1.33,1.33,0,0,0,119.49,82.22Z"/><path class="cls-17" d="M105.19,93.47a.66.66,0,0,1,0,.09c0,.06,0,.14.06.25a3.46,3.46,0,0,0,.13.38,4.69,4.69,0,0,0,.22.46,3.67,3.67,0,0,0,.33.51,4.9,4.9,0,0,0,1,1,5.55,5.55,0,0,0,.62.41l.33.18.33.16.34.14.34.12c.11,0,.22.07.33.11l.16,0,.16,0,.3.08.29.07.51.11.21,0,.18,0,.35.07h-.54l-.22,0-.52-.06-.3,0-.31-.06-.17,0-.16,0-.18,0-.17,0-.35-.11-.35-.14-.35-.16-.35-.18c-.22-.14-.44-.28-.65-.44a4.43,4.43,0,0,1-.55-.51,5.3,5.3,0,0,1-.44-.55,4.41,4.41,0,0,1-.3-.56,3.26,3.26,0,0,1-.26-.9A2.88,2.88,0,0,1,105.19,93.47Z"/><path class="cls-27" d="M118.49,93.49s.14,2.26-3.38,3.89c0,0,3.82-.88,4.06-3.91Z"/><path class="cls-17" d="M105.55,110.07l.15,0,.43.11c.36.09.89.2,1.53.31.31.06.66.1,1,.15l.57.07.59.06.61,0,.31,0h.32l.63,0h.65c.42,0,.85,0,1.27,0l.32,0,.31,0,.61,0,.59-.06.56-.07.54-.08.49-.08.46-.08.21,0,.2,0,.36-.07.16,0,.15,0,.43-.1.15,0-.15.05-.41.14-.66.2c-.25.08-.54.15-.86.23s-.66.15-1,.21l-.57.1-.29,0-.31,0c-.4,0-.82.1-1.25.12s-.86,0-1.29,0h-.65l-.65,0-.63,0-.62-.06c-.41,0-.8-.11-1.16-.17l-1-.21-.86-.23-.65-.21-.41-.16Z"/><path class="cls-17" d="M105.55,111.08l.15,0,.43.11c.36.09.89.2,1.53.31.31.06.66.1,1,.15l.57.07.59.06.61,0,.31,0h.32l.63,0h.65c.42,0,.85,0,1.27,0l.32,0,.31,0,.61,0,.59-.07c.19,0,.38,0,.56-.06l.54-.08.49-.08.46-.08.21,0,.2,0,.36-.07.16,0,.15,0,.43-.09.15,0-.15,0-.41.14-.66.2c-.25.08-.54.14-.86.23s-.66.15-1,.21l-.57.1-.29,0-.31,0c-.4,0-.82.1-1.25.12s-.86.05-1.29.05h-.65l-.65,0-.63,0-.62-.06c-.41-.05-.8-.11-1.16-.17s-.72-.14-1-.22-.61-.15-.86-.22l-.65-.21-.41-.16Z"/><path class="cls-17" d="M115.73,97.33a1.17,1.17,0,0,0-.5-.38,1,1,0,0,0-.67,0,3.94,3.94,0,0,0-1.92,1.82,4.11,4.11,0,0,0-.3-.29,3.41,3.41,0,0,0-.83-.52,4.37,4.37,0,0,0-1-.34.73.73,0,0,0-.69.09,1.12,1.12,0,0,0-.22.81.94.94,0,0,0,.27.68,1.38,1.38,0,0,0,1.28.2c.43-.08.84-.26,1.27-.32,0,.18-.18.34-.22.53a1.34,1.34,0,0,0,.15.71,1.15,1.15,0,0,1-.08.73,1.11,1.11,0,0,0,0,.57.23.23,0,0,0,.24.24.24.24,0,0,0,0-.48h0a2.48,2.48,0,0,1,.1-.39,1.2,1.2,0,0,0,.06-.7c-.06-.23-.22-.43-.15-.68a2.88,2.88,0,0,1,.13-.31,1.18,1.18,0,0,0,.32.21.83.83,0,0,1,.27.19.69.69,0,0,1,.11.4c0,.15,0,.29,0,.44a1,1,0,0,0,.15.35,1.16,1.16,0,0,1,.18.37,1,1,0,0,1,0,.24.24.24,0,1,0,.25.15,1.59,1.59,0,0,0-.18-.8,1.23,1.23,0,0,1-.17-.32,2.32,2.32,0,0,1,0-.46.82.82,0,0,0-.35-.69,2.65,2.65,0,0,1-.4-.24l.12,0a5.51,5.51,0,0,0,1.57,0,2,2,0,0,0,1.31-.66A1,1,0,0,0,115.73,97.33Zm-5,1.9a.81.81,0,0,1-.74-.29,1.11,1.11,0,0,1-.07-.78.39.39,0,0,1,.17-.3.82.82,0,0,1,.38,0,4.55,4.55,0,0,1,1,.35,3,3,0,0,1,.82.55l.07.07A13.58,13.58,0,0,1,110.7,99.23Zm5-1.06c-.12.46-.73.65-1.14.73a5.23,5.23,0,0,1-1.58,0h-.1a5.49,5.49,0,0,1,1-1.22c.34-.3.88-.68,1.36-.49A.86.86,0,0,1,115.68,98.17Z"/><path class="cls-17" d="M114.16,86.61a.12.12,0,0,0,0,.23A.12.12,0,0,0,114.16,86.61Z"/><path class="cls-17" d="M114.26,81.21h0Z"/><path class="cls-25" d="M125.75,90.42a3.28,3.28,0,0,0,0,.46c0,.45-.09.89-.12,1.33-.06.64-.09,1.28-.13,1.93s-.11,1.59-.14,2.38,0,1.74,0,2.6,0,1.77,0,2.65.11,1.65.16,2.48a16.14,16.14,0,0,0,.39,2.31,2.88,2.88,0,0,0,.83,1.76,2.75,2.75,0,0,0,3.2-.3,3.15,3.15,0,0,0,.87-2.57,14.63,14.63,0,0,0-.56-2.77L127.5,90.35Z"/><path class="cls-17" d="M127.72,91.33l2.4,11.07S128.64,97,127.72,91.33Z"/><path class="cls-25" d="M127.69,90.41a9.31,9.31,0,0,0,2.09-4L130.86,83s-.5-.71-1.35,2c0,0-1-2-2.27-1.44,0,0-.2.33.55.53a2.69,2.69,0,0,1,1.33,1.71s-1.18-1.62-2.69-1.14c0,0-.35.43.4.46a2.49,2.49,0,0,1,2,1.36.73.73,0,0,0-.18-.17,3.82,3.82,0,0,0-.47-.35,2.31,2.31,0,0,0-1.5-.4,1.19,1.19,0,0,0-.49.13c-.14.08-.28.26-.14.4s.73.1,1,.13a2.23,2.23,0,0,1,.72.22c.18.08.54.26.52.5s-.24.3-.37.37a7,7,0,0,0-1.23.87,3,3,0,0,0-1.08,1.6,1.25,1.25,0,0,0,0,.51c0,.06.14.52.2.52l1.77.08Z"/></g><g class="cls-34"><path class="cls-17" d="M58.68,29.26s3.78-.3,4.81,1.16l-.44-.06A7.94,7.94,0,0,0,58.68,29.26Z"/><path class="cls-17" d="M61.19,27.67a4.31,4.31,0,0,1,2.4,3.43A7.76,7.76,0,0,0,61.19,27.67Z"/><path class="cls-17" d="M59,30.17a5.47,5.47,0,0,0-1.18.4,8.24,8.24,0,0,0-3.24,3.07A4.66,4.66,0,0,0,54,34.83a8.18,8.18,0,0,0,0,4.28,5,5,0,0,0,1.16,2,12.66,12.66,0,0,0,3.65,2.56c2.39,1.12.16,4.28.17,4.8,0,.35,4.28-.22,5.35-1.43.36-.4,1.26-.92,2-1.51a16.22,16.22,0,0,0,3.3-3.32A9.11,9.11,0,0,0,70.86,36a14.75,14.75,0,0,0-.43-1.86,8.16,8.16,0,0,0-1.05-2.21,5.3,5.3,0,0,0-2.31-1.85,4.07,4.07,0,0,0-1.62-.32,10.8,10.8,0,0,0-1.78.36l-.43.07a1.2,1.2,0,0,1-.42,0A5.12,5.12,0,0,0,60,30C59.64,30,59.3,30.1,59,30.17Z"/><path class="cls-17" d="M67.33,31.79a6.73,6.73,0,0,0-3-1.3,13.17,13.17,0,0,0-5.62.29,2.65,2.65,0,0,0-1.26.58,6.07,6.07,0,0,0-1.29,3.9,11.43,11.43,0,0,0,.34,4.24,6.65,6.65,0,0,0,2.19,3.3,8.55,8.55,0,0,0,3,1.34c.57.15,1.17.18,1.75.29A3.44,3.44,0,0,0,66,44.29a7.27,7.27,0,0,0,3.78-6.15C69.82,38,70.22,34.07,67.33,31.79Z"/><rect class="cls-35" x="60.03" y="43.21" width="6.7" height="4.15" transform="translate(17.78 108.44) rotate(-89.71)"/><path class="cls-36" d="M61.71,43.94s2.19,1.29,3.76.49v1.09A4.38,4.38,0,0,1,61.71,43.94Z"/><path class="cls-35" d="M68.55,40.64a7.88,7.88,0,0,1-1.33,2.54A4.14,4.14,0,0,1,64,45a4.29,4.29,0,0,1-.94-.15,5,5,0,0,1-.73-.28A6,6,0,0,1,61,43.63a5.91,5.91,0,0,1-1.69-2.76A8.81,8.81,0,0,1,59,39a7.39,7.39,0,0,1,.06-1.15,5,5,0,0,1,2.16-3.54,5.22,5.22,0,0,1,4.26-.73c1.55.41,2.3.78,2.92,2A6.89,6.89,0,0,1,68.55,40.64Z"/><path class="cls-37" d="M66.28,37.09h0Z"/><path class="cls-17" d="M64.71,41.62l.12-.08a3.66,3.66,0,0,1-.26-1.11,4.56,4.56,0,0,1,.05-1.12,3.46,3.46,0,0,1,.43-1.25h0a5.77,5.77,0,0,0-.32,1.25,4.81,4.81,0,0,0,0,1.08A3.08,3.08,0,0,0,65,41.51l0,.06,0,0a1.77,1.77,0,0,1-.2.15.89.89,0,0,1-.52.09L64,41.79A1,1,0,0,0,64.71,41.62Z"/><path class="cls-17" d="M66.67,39c0,.26-.21.45-.39.43S66,39.21,66,39s.21-.46.38-.43S66.71,38.78,66.67,39Z"/><path class="cls-17" d="M62.65,39c0,.26-.21.45-.39.42s-.29-.26-.25-.52.21-.45.39-.43S62.69,38.71,62.65,39Z"/><path class="cls-17" d="M63.17,37.22a.56.56,0,0,0-.39-.15,2.32,2.32,0,0,0-1,.14,1.87,1.87,0,0,0-.32.15.11.11,0,0,0,.07.17,1.27,1.27,0,0,0,.26,0,1.55,1.55,0,0,1,.31,0,3.27,3.27,0,0,1,.54,0l.29,0a.37.37,0,0,0,.29,0C63.3,37.42,63.23,37.29,63.17,37.22Z"/><path class="cls-17" d="M65.88,37.53a.35.35,0,0,0,.28.08,1.51,1.51,0,0,0,.3,0,4.89,4.89,0,0,1,.54,0l.3.07a1.11,1.11,0,0,0,.26.07.09.09,0,0,0,.07,0,.08.08,0,0,0,0-.14l-.3-.18a2.55,2.55,0,0,0-1-.26.58.58,0,0,0-.41.11C65.88,37.33,65.79,37.44,65.88,37.53Z"/><path class="cls-36" d="M64.92,34.36c.14.1-1,1.23-1.11,1.32A14,14,0,0,1,61.11,37c-.38.18-1.31.35-1.53.73C59.58,37.72,63.9,33.63,64.92,34.36Z"/><path class="cls-17" d="M64.83,33.16c.28,0-.16,1.1-.23,1.25a3.8,3.8,0,0,1-1.35,1.41,5.11,5.11,0,0,1-1.55.63c-.59.17-1.51.71-1.67,3C60,40.54,58.57,38,57.81,37.41c-1.72-1.39-.14,0-.14,0S59.68,32.55,64.83,33.16Z"/><path class="cls-35" d="M60,39.66a12.9,12.9,0,0,0-.4-1.6.8.8,0,0,0-.2-.28.94.94,0,0,0-.28-.15,1,1,0,0,0-.56,0l-.07,0h0a.63.63,0,0,0-.41.55,2,2,0,0,0,.16.78c.08.29.13.59.23.87a1.24,1.24,0,0,0,.59.78.72.72,0,0,0,.54,0,.73.73,0,0,0,.39-.44A1.71,1.71,0,0,0,60,39.66Z"/><path class="cls-17" d="M58.51,39.14c.08.52.41,1.11,1,1a.06.06,0,0,0,0-.12c-.53.09-.8-.47-.87-.91C58.62,39,58.5,39.06,58.51,39.14Z"/><path class="cls-17" d="M64.83,33.16c-1.29,1.06.72,1.93,1.43,2.3a5.39,5.39,0,0,1,2.79,2.79,3.15,3.15,0,0,1,.14,1.29,2.37,2.37,0,0,1-.27,1.08,3.2,3.2,0,0,0,.7-1.66,6.6,6.6,0,0,0-.18-1.88c-.08-.34-.17-.67-.27-1s-.21-.69-.33-1A3.67,3.67,0,0,0,68.37,34S66.32,31.93,64.83,33.16Z"/><path class="cls-6" d="M62.49,42.71l3.25.38S64.41,44.29,62.49,42.71Z"/><rect class="cls-35" x="59.68" y="47.32" width="8.17" height="3.8"/><polygon class="cls-30" points="69.33 61.39 57.48 61.39 57.99 47.27 59.46 47.27 63.66 50.2 67.87 47.27 69.33 47.27 69.33 61.39"/><path class="cls-22" d="M63.64,51.07a.38.38,0,1,0,.38.38A.38.38,0,0,0,63.64,51.07Zm-.19.44a.06.06,0,0,1-.06-.06.07.07,0,0,1,.06-.07.07.07,0,0,1,.07.07A.07.07,0,0,1,63.45,51.51Zm.39,0a.07.07,0,0,1-.07-.06.07.07,0,0,1,.07-.07.07.07,0,0,1,.06.07A.06.06,0,0,1,63.84,51.51Z"/><path class="cls-38" d="M63.85,51.44s0,0,0,0h-.37s0,0,0,0h0l0,0h.37a0,0,0,0,1,0,0Z"/><path class="cls-22" d="M63.64,52.78a.38.38,0,1,0,.38.38A.38.38,0,0,0,63.64,52.78Zm-.19.44a.06.06,0,0,1-.06-.06.06.06,0,0,1,.06-.06.07.07,0,0,1,.07.06S63.49,53.22,63.45,53.22Zm.39,0s-.07,0-.07-.06a.07.07,0,0,1,.07-.06.06.06,0,0,1,.06.06A.06.06,0,0,1,63.84,53.22Z"/><path class="cls-38" d="M63.85,53.16a0,0,0,0,1,0,0h-.37a0,0,0,0,1,0,0h0l0,0h.37a0,0,0,0,1,0,0Z"/><path class="cls-22" d="M63.64,54.5a.38.38,0,1,0,.38.38A.38.38,0,0,0,63.64,54.5Zm-.19.44a.06.06,0,0,1-.06-.06.07.07,0,0,1,.06-.07.07.07,0,0,1,.07.07A.07.07,0,0,1,63.45,54.94Zm.39,0a.07.07,0,0,1-.07-.06.07.07,0,0,1,.07-.07.07.07,0,0,1,.06.07A.06.06,0,0,1,63.84,54.94Z"/><path class="cls-38" d="M63.85,54.88l0,0h-.37l0,0h0s0,0,0,0h.37s0,0,0,0Z"/><path class="cls-36" d="M60.48,47.32s2.94,1.71,3.16,2.87l-4.22-2.87Z"/><path class="cls-38" d="M63.7,50.19l5.19-2.59a.58.58,0,0,0-.13-.4Z"/><path class="cls-20" d="M77.88,54.8c-1-5.51-2.37-6.62-2.37-6.62a4.2,4.2,0,0,0-2.85-1.08c-1.15-.06-2,1.56-2.11,2.53a7.42,7.42,0,0,0,0,1.94C70.76,54,74.1,70,75.82,70.1c.78.05,2.57.32,3,0C81.16,68.29,78.12,56.09,77.88,54.8Z"/><path class="cls-20" d="M72.66,47.1l-3.84.17v.11c0,3-2.42,9.6-5.42,9.6S58,50.37,58,47.38v-.11l-5.44.06C50,47.33,55,66.74,55,66.74L51.63,79.5c0,2.59,23.55,2.59,23.55,0L71.61,67.21Z"/><path class="cls-20" d="M47.74,55.34c.72-5.56,2-6.76,2-6.76a4.24,4.24,0,0,1,2.79-1.24c1.15-.12,2,1.44,2.24,2.4a7.44,7.44,0,0,1,.15,1.94c-.13,2.39-1.79,16.21-3.37,18.82-.43.7-3.51.46-4,.12C45.18,69,47.57,56.63,47.74,55.34Z"/><path class="cls-22" d="M67.44,47.33c.4-.21,1.17-.46,1.38-.06l-5.16,2.92C63.45,49.79,67.44,47.33,67.44,47.33Z"/><path class="cls-22" d="M59.86,47.33c-.41-.21-1.66-.46-1.87-.06l5.65,2.92C63.85,49.79,59.86,47.33,59.86,47.33Z"/></g><path class="cls-39" d="M113.47,19.13h-.15a1.75,1.75,0,0,1-.51,1.23,1.74,1.74,0,1,1,0-2.46,1.75,1.75,0,0,1,.51,1.23h.3a2,2,0,1,0-2,2,2,2,0,0,0,2-2Z"/></g></g></svg>