<svg xmlns="http://www.w3.org/2000/svg" viewBox="0 0 298.24 266.63"><defs><style>.cls-1{isolation:isolate;}.cls-2{opacity:0.3;}.cls-3{fill:#ffd371;}.cls-4{mix-blend-mode:multiply;}.cls-5{fill:#eaeaea;}.cls-6{fill:#fa5;}.cls-7{fill:#ec7738;}.cls-8{fill:#ff5146;}.cls-9{fill:#cc1525;}.cls-10{fill:#ff9e86;}.cls-11{fill:#00433b;}.cls-12{fill:#006c60;}.cls-13{fill:#ff7e6a;}.cls-14{fill:#260a05;}.cls-15{opacity:0.5;}.cls-16{fill:#fff;}.cls-17{fill:#088;}.cls-18{fill:gray;}.cls-19{fill:#ffad4d;}.cls-20{fill:#594b53;}</style></defs><g class="cls-1"><g id="Layer_2" data-name="Layer 2"><g id="Option_1" data-name="Option 1"><g class="cls-2"><path class="cls-3" d="M290,79.79c7.72,13.92,12.4,32.26,3.11,45.16-5.5,7.65-15,11.83-19.75,20-6.15,10.46-2.65,23.88,2.1,35.07s10.74,22.76,9.08,34.82C282.36,230.65,266.71,242,251,243.36s-31.08-5.47-44.26-14.26-25.62-19.93-41.14-22.17c-13.23-1.91-26.47,3.12-38.38,9.27s-23.37,13.57-36.28,17.07C66.18,240,37.86,230,22.52,209.21s-16.76-51.16-3.41-73.34c4.61-7.67,11-17.11,6.08-24.62-4.37-6.74-14.8-6.19-20.3-12-6.29-6.69-3-17.77,1.75-25.66A97.59,97.59,0,0,1,45.57,37.11s133-76.28,204-10.12C279.58,54.88,290,79.79,290,79.79Z"/></g><g class="cls-4"><ellipse class="cls-5" cx="124.8" cy="254.59" rx="121.79" ry="12.04"/></g><path class="cls-6" d="M193.08,236.7a46.67,46.67,0,0,1-4.69,4.1c-8.47,6.5-20.17,11.16-35.71,12.72-79.5,8-105.77-29.34-112.19-86.71-2.86-25.57,3.84-42.44,12.14-53.29.87-1.13,1.76-2.2,2.65-3.21.5-.56,1-1.12,1.55-1.66a47.31,47.31,0,0,1,41.4-13.6c12,2,22.82,8.35,31.63,21.11,14.09,20.41.76,38,41,39.12C201.72,156.18,221.25,208.59,193.08,236.7Z"/><path class="cls-7" d="M71.38,112.81s-9.4,20.11,1.45,57,25.23,34,34.52,34c16.22,0,49.08-15.28,55.5-27.32s-5.69-12.76-28.38-14.54S94.85,104.84,71.38,112.81Z"/><path class="cls-7" d="M91.76,219.35a.67.67,0,0,1-.49-.21.68.68,0,0,1,0-1,83.64,83.64,0,0,1,20.93-14.71,47.52,47.52,0,0,1,9.22-3.53.66.66,0,0,1,.81.51.67.67,0,0,1-.51.81c-.16,0-14.28,3.41-29.52,17.9A.66.66,0,0,1,91.76,219.35Z"/><path class="cls-7" d="M94.44,210.31a.66.66,0,0,1-.56-.3.68.68,0,0,1,.18-.94,46.64,46.64,0,0,1,19.56-6.49.67.67,0,1,1,.15,1.34,46,46,0,0,0-19,6.27A.68.68,0,0,1,94.44,210.31Z"/><path class="cls-7" d="M69.93,154.45a.67.67,0,0,1-.67-.59,37.85,37.85,0,0,0-7-17.44,33.78,33.78,0,0,0-5.59-6.11.67.67,0,0,1-.11-.94.66.66,0,0,1,.94-.12,33.91,33.91,0,0,1,5.83,6.33,39.31,39.31,0,0,1,7.27,18.11.67.67,0,0,1-.59.75Z"/><path class="cls-7" d="M193.08,236.7a46.67,46.67,0,0,1-4.69,4.1c-9.79,5.88-21.72,9.74-34.87,11.25a107.57,107.57,0,0,1-12.31.71,108.81,108.81,0,0,1-33.46-5.25c-27.9-9-48-28.37-56.69-54.44a126.89,126.89,0,0,1-6.93-41.32,93.68,93.68,0,0,1,5.06-29.84,84.09,84.09,0,0,1,3.44-8.39c.87-1.13,1.76-2.2,2.65-3.21.5-.56,1-1.12,1.55-1.66a78.43,78.43,0,0,0-6.32,13.81c-5,14.36-8.71,38.19,1.9,70.16,8.51,25.63,28.32,44.64,55.78,53.53,29.17,9.45,62.91,5.62,84-9.53A.71.71,0,0,1,193.08,236.7Z"/><path class="cls-8" d="M76.5,89.58s-11-11.22,5-19.12,34.82,4.17,37.9,13S76.5,89.58,76.5,89.58Z"/><path class="cls-9" d="M95.6,81.88a.42.42,0,0,1-.28-.1C91,78.05,83.65,78.39,83.58,78.39h0a.42.42,0,0,1-.42-.4.41.41,0,0,1,.4-.45c.31,0,7.72-.36,12.33,3.59a.43.43,0,0,1,0,.6A.43.43,0,0,1,95.6,81.88Z"/><path class="cls-9" d="M84.88,82.41a.42.42,0,0,1-.37-.22.42.42,0,0,1,.18-.57c.21-.11,5.26-2.78,8.85-1.94a.42.42,0,1,1-.19.82c-3.28-.76-8.22,1.84-8.27,1.86A.35.35,0,0,1,84.88,82.41Z"/><path class="cls-10" d="M195.48,230l5.63,10.38a111,111,0,0,0,15.15,2.26c12.51,1,16.22-1,17.1,1.78.69,2.18-8.82,7.1-13.22,7.88s-14,4.72-20.26,5.41-9-7.18-10.4-10-5.86-12.3-5.86-12.3Z"/><path class="cls-8" d="M228.46,247.12a3.54,3.54,0,0,1-.53,2.12,3,3,0,0,1-.22.28c-2.21,2.44-11.08,3.63-11.08,3.63a4.18,4.18,0,0,0,1.15-2.72c.28-2.82-1.07-6.43-1.65-7.84-.16-.38-.26-.6-.26-.6a28.13,28.13,0,0,1,4.31-.66,28.91,28.91,0,0,1,3.42-.06,21.42,21.42,0,0,1,2.91.3s.31.5.68,1.27A11.66,11.66,0,0,1,228.46,247.12Z"/><path class="cls-9" d="M224.69,245.4l-3.07.32s-.41-1.5-.87-2.88c-.19-.56-.39-1.1-.57-1.51a28.91,28.91,0,0,1,3.42-.06,16.39,16.39,0,0,1,.59,1.62A11.75,11.75,0,0,1,224.69,245.4Z"/><path class="cls-8" d="M232.28,245.91s-28.65,9.07-32.5,9.74a12.54,12.54,0,0,1-5.94-.08,25.7,25.7,0,0,0,.44,3.05,3.05,3.05,0,0,0,3.89,2.24c7.66-2.37,33-10.28,34.72-11.68C234.93,247.53,234.49,245.77,232.28,245.91Z"/><path class="cls-10" d="M169.09,227.58l-.37,9.32a110.69,110.69,0,0,0,11.86,9.69c10.26,7.22,14.45,7.42,13.79,10.28-.52,2.22-11.22,1.59-15.4,0s-14.45-3.1-20.17-5.7-4.05-10.77-3.83-13.91.68-10.19.68-10.19Z"/><path class="cls-8" d="M188.75,256.71a3.52,3.52,0,0,1-1.54,1.56,1.85,1.85,0,0,1-.33.12c-3.15,1-11.37-2.55-11.37-2.55a4.2,4.2,0,0,0,2.37-1.74c1.68-2.28,2.38-6.08,2.59-7.59.06-.41.09-.65.09-.65a29,29,0,0,1,4,1.64,28.44,28.44,0,0,1,3,1.7,19.78,19.78,0,0,1,2.35,1.75s0,.59-.06,1.44A11.35,11.35,0,0,1,188.75,256.71Z"/><path class="cls-9" d="M186.39,253.31l-2.8-1.3s.42-1.5.73-2.91c.12-.58.23-1.15.28-1.6a28.44,28.44,0,0,1,3,1.7,13.8,13.8,0,0,1-.32,1.69A11.37,11.37,0,0,1,186.39,253.31Z"/><path class="cls-8" d="M192.65,257.63s-29.25-6.86-32.9-8.25a12.59,12.59,0,0,1-5.07-3.11,26.55,26.55,0,0,0-1.18,2.85,3.06,3.06,0,0,0,2.19,3.92c7.8,1.88,33.62,8,35.82,7.71C194.1,260.37,194.62,258.63,192.65,257.63Z"/><path class="cls-11" d="M179,153.53c-7.42-5.71-34.09-3.36-55-.41-.6,9.47,2.32,1.61.55,10.92,26.09,1.34,33.41,3.39,33.41,3.39s-3.9,21.23-3.71,30.11-3,34.56-3,34.56l18.81,3.54S189.67,161.71,179,153.53Z"/><path class="cls-12" d="M171.12,231.51a.46.46,0,0,1-.26,0l-18.57-3.79a.51.51,0,1,1,.2-1l18.57,3.79a.52.52,0,0,1,.4.6A.54.54,0,0,1,171.12,231.51Z"/><path class="cls-12" d="M155.87,227.9a.52.52,0,0,1-.66-.59c0-.09,2-9.48,2.12-24.64s4.8-38,4.84-38.25a.51.51,0,0,1,1,.2c0,.23-4.71,22.88-4.83,38.06s-2.12,24.75-2.14,24.85A.5.5,0,0,1,155.87,227.9Z"/><path class="cls-10" d="M169.07,98.33c-.69-.92-.19-2.86-.36-4.37a17.75,17.75,0,0,1,.66-6.73c.92-2.53,4-9.82,6.08-10.67s-.13,5.64-.55,7a5.37,5.37,0,0,0-.21,2.41s6.18-14.52,7.89-15-1,8.12-1.66,10.24c0,0,5.26-10.68,6.45-10.65,2.38.06-3.12,12.09-3.12,12.09s4.88-8.76,6.3-7.92S186.79,85,186.79,85s4-5.24,5.57-5.07-6,11.83-7.41,13.49-4.74,6.41-6.89,8.23C176.6,102.85,171.24,101.26,169.07,98.33Z"/><path class="cls-13" d="M186,88.76a.45.45,0,0,0,.07-.59,12.62,12.62,0,0,0-8.47-4.87.45.45,0,0,0-.48.4.45.45,0,0,0,.4.48h0c.05,0,5,.53,7.82,4.5a.45.45,0,0,0,.62.11Z"/><path class="cls-13" d="M177.71,96.19a.44.44,0,0,0,.12-.48C176,90.76,179,87.87,179,87.84a.44.44,0,0,0-.6-.65h0c-.14.13-3.41,3.33-1.37,8.82a.44.44,0,0,0,.57.26A.42.42,0,0,0,177.71,96.19Z"/><path class="cls-8" d="M127.76,88.17v0h0l0,0,0,.09.09.22.22.49c.14.34.3.69.47,1,.33.71.67,1.43,1,2.14.74,1.42,1.51,2.85,2.36,4.24.42.69.85,1.38,1.29,2.06s.89,1.35,1.36,2,.94,1.31,1.43,2,1,1.28,1.48,1.9a56.55,56.55,0,0,0,14.06,12.47c.33.21.66.41,1,.6s.67.39,1,.57l.26.15a3,3,0,0,0-.36-.17,4.83,4.83,0,0,0-.81-.29,5.4,5.4,0,0,0-.88-.15,5.34,5.34,0,0,0-.79,0,3.77,3.77,0,0,0-1,.18.84.84,0,0,0-.3.12,2.84,2.84,0,0,0,.61-.38,16,16,0,0,0,1.24-1.08c.46-.44.94-.94,1.42-1.49,1-1.09,2-2.34,3-3.65,2-2.65,3.88-5.55,5.74-8.54.93-1.49,1.85-3,2.74-4.53.46-.77.91-1.53,1.35-2.3L167,93.58l15.65,7.11-.29.76-.28.71-.56,1.38c-.38.91-.77,1.82-1.17,2.72-.81,1.81-1.65,3.59-2.53,5.37a106,106,0,0,1-6,10.59c-1.16,1.75-2.41,3.5-3.85,5.27-.72.89-1.49,1.77-2.35,2.67a29.78,29.78,0,0,1-2.91,2.7,22.78,22.78,0,0,1-4.07,2.7,16.5,16.5,0,0,1-2.9,1.17,15.46,15.46,0,0,1-3.79.67,13.51,13.51,0,0,1-2.19-.06,14.53,14.53,0,0,1-4.39-1.16c-.34-.15-.66-.32-1-.48l-.36-.2c-.48-.26-1-.52-1.44-.8s-.94-.55-1.41-.84c-.94-.56-1.86-1.16-2.77-1.76s-1.79-1.25-2.66-1.91-1.73-1.33-2.57-2-1.66-1.41-2.46-2.14a71.32,71.32,0,0,1-8.7-9.55c-1.29-1.71-2.51-3.46-3.64-5.27s-2.2-3.63-3.17-5.52c-.49-1-.95-1.9-1.4-2.86s-.88-1.94-1.29-2.93-.79-2-1.15-3c-.18-.52-.36-1-.53-1.58-.09-.28-.17-.55-.26-.84l-.29-1Z"/><path class="cls-9" d="M154.09,125.41a.51.51,0,0,1-.61-.26,34.21,34.21,0,0,1-2.56-8,.51.51,0,0,1,.41-.59.52.52,0,0,1,.59.41,33.29,33.29,0,0,0,2.47,7.71.51.51,0,0,1-.23.68Z"/><path class="cls-9" d="M150.19,122.56a.57.57,0,0,1-.29,0,.51.51,0,0,1-.36-.62,39.1,39.1,0,0,1,1.46-4.76.5.5,0,0,1,.67-.23.51.51,0,0,1,.24.68,39.63,39.63,0,0,0-1.39,4.56A.52.52,0,0,1,150.19,122.56Z"/><path class="cls-9" d="M179,109a.49.49,0,0,1-.44-.06c-5-3.32-15.32-7.78-15.42-7.82a.51.51,0,1,1,.4-.93c.1,0,10.48,4.54,15.58,7.9a.52.52,0,0,1,.14.71A.56.56,0,0,1,179,109Z"/><path class="cls-8" d="M127.9,88.48c1.34,4-.87,13.85,1.27,31.12q.24,1.89.54,3.93c.2,1.27.42,2.59.66,3.94s.48,2.56.75,3.9c.24,1.16.5,2.36.78,3.59s.6,2.54.93,3.86c.09.37.2.77.31,1.2,0,.1.05.21.08.32s.05.19.07.29l.06.22,0,.16c0,.09.05.19.08.29a.09.09,0,0,0,0,0l.09.36,0,0c0,.1,0,.21.08.31.13.49.26,1,.4,1.52,0,.13.07.27.11.4s.09.36.14.54c.09.35.19.71.29,1.08l.15.56.33,1.21.06.22c.27,1,.55,2,.83,3,.13.46.26.93.4,1.4s.32,1.13.49,1.71c.24.84.48,1.69.73,2.53l.31,1.08c.1.32.2.64.29,1l.35,1.16.23.77.15.48.29,1c.1.31.19.63.29.94s.14.44.2.66.13.38.19.57a1,1,0,0,0,0,.16c0,.11.07.22.1.33s.14.45.22.67.16.52.25.77c.66,2.06,1.32,4,1.93,5.62-4.56,5.25-12.31,9.82-21.43,12.58l-5-3.29L111.73,186a56.13,56.13,0,0,1-27.22-2.41c-2.91-5.93-7.69-27.69-9.05-34.21-.26-1.29-.51-2.59-.73-3.9a170.31,170.31,0,0,1-2-19.32c0-.37,0-.73-.07-1.1V125c-.42-5.63-7.78-22.24-7-28.21C67.05,84.9,74.6,88,81.4,86.19a29.85,29.85,0,0,0,5.65-2.13c.64-.33,1.22-.65,1.75-1l.62-.39a21.83,21.83,0,0,0,3.27-2.53l15.43-1.61a11.75,11.75,0,0,0,5.23,3.51c.21.07.42.15.63.21l1,.27C120.39,84,126.16,83.19,127.9,88.48Z"/><path class="cls-9" d="M89.16,171.59a.42.42,0,0,1-.39-.28C80.32,148.64,76,109.49,75.91,109.1a.43.43,0,0,1,.37-.47.44.44,0,0,1,.47.38c0,.39,4.4,39.44,12.81,62a.42.42,0,0,1-.25.54A.4.4,0,0,1,89.16,171.59Z"/><path class="cls-9" d="M104.09,88.08c.17.49-.42,1.13-1.31,1.42s-1.74.13-1.9-.36.42-1.12,1.31-1.42S103.93,87.59,104.09,88.08Z"/><path class="cls-9" d="M111,86.32c.16.49-.43,1.13-1.32,1.42s-1.74.13-1.9-.36.43-1.12,1.32-1.42S110.83,85.83,111,86.32Z"/><path class="cls-9" d="M112.94,90a.43.43,0,0,1-.41-.32.41.41,0,0,1,.31-.51c6-1.53,6.32-5.11,6.33-5.26a.44.44,0,0,1,.46-.39A.43.43,0,0,1,120,84c0,.18-.4,4.33-7,6Z"/><path class="cls-9" d="M122.09,127.34a52.77,52.77,0,0,1-19.42-3.89,49,49,0,0,1-9.33-4.85.42.42,0,1,1,.49-.69,48.71,48.71,0,0,0,9.18,4.77,50.87,50.87,0,0,0,22.65,3.67.43.43,0,0,1,.46.39.43.43,0,0,1-.39.45C124.49,127.29,123.28,127.34,122.09,127.34Z"/><path class="cls-9" d="M98.06,142.27s19-4.83,30.78-5l3.62,15.64s-18.73,3.15-30.58,5.21Z"/><path class="cls-9" d="M87.42,93.68a17.16,17.16,0,0,1-8.35-2.08,14.47,14.47,0,0,1-4.57-3.82.42.42,0,0,1,.7-.48h0a13.62,13.62,0,0,0,4.32,3.58c2.65,1.46,7.11,2.85,13.32,1.22a.42.42,0,0,1,.22.82A22.18,22.18,0,0,1,87.42,93.68Z"/><path class="cls-14" d="M136,150.6c-.28-1-.56-2-.83-3C135.42,148.57,135.7,149.57,136,150.6Z"/><path class="cls-14" d="M134.61,145.61c-.1-.37-.2-.73-.29-1.08C134.42,144.88,134.51,145.24,134.61,145.61Z"/><path class="cls-9" d="M130.44,125.39l-.1,0a.51.51,0,0,1-.57-.44c-.92-7.06-1.94-15.45-2-17.81a.51.51,0,0,1,1,0c.09,2.34,1.11,10.69,2,17.73A.51.51,0,0,1,130.44,125.39Z"/><path class="cls-14" d="M112,46.57a7.57,7.57,0,0,1,1.68,9.71S111.91,49.43,112,46.57Z"/><path class="cls-14" d="M92.38,73s-3.17,3.08-3.82.81A3.48,3.48,0,0,1,89,70.43s-3.43,3.29-3.48.81a8.23,8.23,0,0,1,1.73-4.69,5.87,5.87,0,0,1-2.14-6c1-3.73,1.16-6.46.12-9.51s-.56-6.2,1-7.57a7.76,7.76,0,0,1,5.4-1.68,8.12,8.12,0,0,1,8.07-5.43c6.38.15,10.09-4.82,13.3-3.53s6.9,11.91-1.75,15.06C111.21,47.84,94.08,59.33,92.38,73Z"/><path class="cls-10" d="M108.56,76.06l.42,4a12.62,12.62,0,0,1-1.32,1.15c-6.55,4.93-14.64.52-14.64.52l-1.46-14,15,7.28Z"/><path class="cls-14" d="M108.52,75.71l.46,4.38a12.62,12.62,0,0,1-1.32,1.15c-6.2-1.74-11.18-7.53-11.18-7.53l10,1.37Z"/><path class="cls-13" d="M111.73,57.69s2-2.94,3.58-.37,1.15,8.14-2.42,7.61Z"/><path class="cls-10" d="M115.16,66.91s.88,8.33-7.78,9.21S92.2,70.86,91.86,70.58h0l-.27-1.74-1.44-9L89.37,55s-2-8.63,6.12-11.09c6-1.8,11.75-1.39,15,1.48l.3.29a7.45,7.45,0,0,1,2.06,3.9L114,58.25l.29,2.13Z"/><path class="cls-14" d="M90.14,59.8a4.82,4.82,0,0,1,2.8,3h0a2.23,2.23,0,0,0,2-2.61c-.14-.74-.31-1.63-.52-2.63-.61-3-1.57-3.94.17-5.81s.1-3,1.68-4.31,6,1.12,9.17.47c3.74-.78,3.42-3.32,6.68-.41A7.64,7.64,0,0,0,107,41.91c-4.25-1.18-16.2-.14-18,5.56S90.14,59.8,90.14,59.8Z"/><path class="cls-14" d="M97,53.52h0a2.08,2.08,0,0,0,2.82.77,12.16,12.16,0,0,1,2-.9A1.92,1.92,0,0,0,103,50.87h0S98.7,50.92,97,53.52Z"/><path class="cls-14" d="M113,51.73h0A2,2,0,0,1,110.55,53a10.66,10.66,0,0,0-2-.44,1.81,1.81,0,0,1-1.59-2.09h0S110.92,49.67,113,51.73Z"/><path class="cls-13" d="M102.8,60.5c.06.6-1.14,1.23-2.68,1.39s-2.84-.2-2.9-.81,1.13-1.23,2.67-1.39S102.73,59.89,102.8,60.5Z"/><path class="cls-13" d="M114.27,60.38l-.67.1c-1.54.16-2.84-.2-2.9-.81s1.13-1.23,2.67-1.39l.61,0Z"/><path class="cls-14" d="M103,57.11c.08.83-.22,1.55-.69,1.59s-.91-.58-1-1.42.22-1.54.69-1.59S102.87,56.28,103,57.11Z"/><path class="cls-14" d="M111.32,56.23c.09.84-.22,1.55-.68,1.6s-.92-.59-1-1.42.22-1.55.68-1.59S111.24,55.4,111.32,56.23Z"/><path class="cls-14" d="M108.6,64.84c-3,.32-5.81-2-5.84-2.06a.34.34,0,1,1,.45-.52c.18.15,4.46,3.78,7.94.7a.36.36,0,0,1,.49,0,.35.35,0,0,1,0,.49A5.37,5.37,0,0,1,108.6,64.84Z"/><path class="cls-14" d="M94.22,66.92c0,.1-.86,2.75-2.36,3.66h0l-.27-1.74A6,6,0,0,0,94.22,66.92Z"/><path class="cls-10" d="M92.09,61.3s-3.79-4.13-5.87-.36c-1.7,3.11,2.88,10.26,6.59,7.25Z"/><path class="cls-14" d="M92.22,66.9a.36.36,0,0,1-.38-.27A5.76,5.76,0,0,0,88,62.36a.34.34,0,0,1,.18-.66,6.44,6.44,0,0,1,4.3,4.78.34.34,0,0,1-.27.41Z"/><path class="cls-14" d="M88.8,65.15a.37.37,0,0,1-.28-.09.36.36,0,0,1,0-.49,3.35,3.35,0,0,1,2.31-1.07.35.35,0,0,1,.29.39.34.34,0,0,1-.39.29c-.61-.09-1.45.6-1.72.87A.3.3,0,0,1,88.8,65.15Z"/><path class="cls-14" d="M106.8,60.94a.34.34,0,0,1-.38-.3.35.35,0,0,1,.31-.38,2.34,2.34,0,0,0,1.94-1.17c-1.66-2.67-3.31-5.37-3.33-5.39a.35.35,0,0,1,.11-.48.34.34,0,0,1,.48.12s1.73,2.82,3.42,5.55a.33.33,0,0,1,0,.29A3,3,0,0,1,106.8,60.94Z"/><g class="cls-15"><path class="cls-16" d="M107,58.22c.07,1.15-1.81,2.21-4.2,2.36s-4.39-.68-4.46-1.84,1.81-2.21,4.2-2.36S106.89,57.06,107,58.22Z"/></g><g class="cls-15"><path class="cls-16" d="M118,57.75c.07,1.16-1.81,2.22-4.2,2.36s-4.39-.68-4.46-1.83,1.81-2.22,4.2-2.36S118,56.59,118,57.75Z"/></g><path class="cls-14" d="M109.4,58.27a.27.27,0,0,1-.17-.06,1.88,1.88,0,0,0-2.16,0,.25.25,0,0,1-.28-.42,2.35,2.35,0,0,1,2.78,0,.26.26,0,0,1,0,.36A.25.25,0,0,1,109.4,58.27Z"/><path class="cls-14" d="M89.15,59.43a.23.23,0,0,1-.2-.1A.24.24,0,0,1,89,59c3.82-3,9.2-.83,9.43-.74a.26.26,0,0,1-.2.47s-5.33-2.12-8.92.67A.27.27,0,0,1,89.15,59.43Z"/><path class="cls-12" d="M82,176.58s1.19,34.83,43.24,21c22.46-7.41,32.42-13.1,32.42-13.1s7.08,19.65,10.89,27.67S183,239.76,183,239.76l18.14-4.47S180,161.76,166.93,158.65s-28.7,1.84-56.31,8.1C110.62,166.75,86.5,170.44,82,176.58Z"/><path class="cls-17" d="M183.47,233.16a.5.5,0,0,1-.59-.22c-5.86-9.47-11.67-23.83-16.35-35.36-2-4.86-3.66-9.05-5.08-12.18-1.92-4.25-2.7-5.09-3-5.22-1.3-.56-5.58,1.38-11,3.82-7.84,3.55-19.69,8.91-33.47,11.77-7.07,1.46-13.2.5-18.2-2.86-8.91-6-11.11-17.31-11.2-17.79a.5.5,0,0,1,1-.19c0,.12,2.22,11.41,10.78,17.15,4.77,3.2,10.63,4.1,17.42,2.69,13.67-2.83,25.46-8.16,33.26-11.69,6.3-2.85,10.1-4.56,11.81-3.83,1.56.67,4,6.61,8.62,17.95,4.66,11.5,10.46,25.81,16.27,35.21a.5.5,0,0,1-.16.7Z"/><path class="cls-17" d="M198.91,229.66h0l-18.34,4.85a.51.51,0,0,1-.26-1l18.34-4.85a.51.51,0,0,1,.29,1Z"/><rect class="cls-18" x="122.63" y="158.38" width="56.26" height="7.33" rx="0.19" transform="translate(-14.55 14.87) rotate(-5.39)"/><path class="cls-16" d="M185,162.51a4.67,4.67,0,0,0,4.17-3.88l6.78-40.21a3.8,3.8,0,0,0-4.1-4.41l-25.08,2.37a3.78,3.78,0,0,0-3.37,3.09L155,165.33Z"/><path class="cls-16" d="M168.64,154.38l-.46,1.83,1.7-.13-.29,2.16-2,.15-.51,2-2.26.18.51-2-1.39.11-.51,2-2.25.18.51-2L160,159l.29-2.16,2-.15.46-1.83L161,155l.3-2.16,2-.15.51-2,2.25-.17-.51,2,1.4-.1.51-2,2.25-.17-.51,2,1.7-.14-.3,2.17Zm-2.25.17-1.39.11-.46,1.83,1.39-.11Z"/><path class="cls-19" d="M192.81,125c-.59,2.63-3,4.92-5.33,5.13s-3.79-1.76-3.2-4.38,3-4.92,5.32-5.13S193.39,122.42,192.81,125Z"/><path class="cls-14" d="M188,124.57c-.12.52-.38,1-.58,1s-.28-.39-.16-.92.38-1,.58-1S188.16,124,188,124.57Z"/><path class="cls-14" d="M190.27,124.37c-.12.53-.38,1-.59,1s-.27-.4-.16-.92.38-1,.59-1S190.38,123.85,190.27,124.37Z"/><path class="cls-14" d="M188.06,127.73c-1.83.16-1.79-1.85-1.79-1.87a.29.29,0,0,1,.19-.26.14.14,0,0,1,.19.14c0,.07,0,1.71,1.5,1.57a3.13,3.13,0,0,0,2.29-1.9.28.28,0,0,1,.25-.18c.1,0,.14.12.09.24S189.9,127.57,188.06,127.73Z"/><path class="cls-16" d="M163.35,119.48,155.08,165l-2.86.27,8.26-45.47a3.8,3.8,0,0,1,3.38-3.1l2.86-.27A3.78,3.78,0,0,0,163.35,119.48Z"/><path class="cls-18" d="M155.34,164.66h-.07a.43.43,0,0,1-.35-.49l8.18-45.38a.42.42,0,0,1,.83.15l-8.17,45.38A.44.44,0,0,1,155.34,164.66Z"/><path class="cls-18" d="M172.47,140.4a3.45,3.45,0,0,0,3.85,4.14,6,6,0,0,0,5.07-5,3.45,3.45,0,0,0-3.85-4.14A6,6,0,0,0,172.47,140.4Z"/><path class="cls-10" d="M137.33,151.33s13-2.91,17.61-.74l-1.6,8.28s-7.35-.51-9.07.34-1.81,4.15-8.41,4.34Z"/><path class="cls-8" d="M135.89,149.69l-1.53-.24-3.07-.51q-3.07-.51-6.14-1.09c-4.09-.75-8.14-1.57-12.11-2.47q-3-.69-5.88-1.46c-1.92-.51-3.81-1.06-5.6-1.65a47.5,47.5,0,0,1-4.92-1.9,17.4,17.4,0,0,1-1.75-.94h0l-.06-.1c-.23-.37-.45-.76-.67-1.14-.43-.77-.86-1.54-1.25-2.34-.79-1.58-1.49-3.23-2.13-4.9a61,61,0,0,1-2.9-10.5c-.34-1.81-.6-3.64-.8-5.48s-.33-3.71-.39-5.58-.07-3.73,0-5.58c0-.92.09-1.83.16-2.73,0-.45.07-.89.12-1.31l.06-.62,0-.41L66,95.45l0,.38,0,.27-.06.52-.11,1c-.06.63-.12,1.25-.17,1.87-.08,1.23-.14,2.45-.17,3.66q-.09,3.62.09,7.21a89.31,89.31,0,0,0,1.94,14.31c.26,1.19.54,2.37.85,3.55s.67,2.35,1,3.52c.74,2.33,1.6,4.64,2.56,6.92.9,2.08,1.9,4.14,3,6.15l.29.53c.61,1.09,1.25,2.16,1.92,3.22.34.53.67,1.05,1,1.57l.26.39.13.2.26.37a15.7,15.7,0,0,0,1.41,1.71c.46.48.91.9,1.33,1.26s.84.68,1.24,1A24.85,24.85,0,0,0,85,156.44c1,.56,2,1,2.86,1.42.38.17.75.32,1.12.47,1.26.52,2.46.94,3.65,1.33s2.34.73,3.49,1c2.3.62,4.55,1.14,6.78,1.6s4.43.86,6.63,1.23c4.4.72,8.77,1.29,13.13,1.77q3.27.34,6.54.63l3.28.26,1.64.11,1.7.11,1.61-16.48ZM94.47,139.11s0,0,0,0l.18.15.07.07A1.63,1.63,0,0,1,94.47,139.11Z"/><path class="cls-9" d="M87.81,157.86c-.91-.4-1.85-.86-2.86-1.42A24.85,24.85,0,0,1,82.7,155c-.4-.29-.81-.61-1.24-1s-.87-.78-1.33-1.26a15.7,15.7,0,0,1-1.41-1.71l-.26-.37-.13-.2-.26-.39c-.36-.52-.69-1-1-1.57-.67-1.06-1.31-2.13-1.92-3.22l-.29-.53.17-.08S88.62,144.9,87.81,157.86Z"/><path class="cls-9" d="M116.23,165.09a.68.68,0,0,1-.21,0c-.17,0-17.28-1.68-26.87-6.18a33.27,33.27,0,0,1-14.37-13.54.51.51,0,0,1,.9-.46A32.88,32.88,0,0,0,89.58,158c9.43,4.42,26.37,6.06,26.54,6.08a.51.51,0,0,1,.46.55A.52.52,0,0,1,116.23,165.09Z"/><path class="cls-9" d="M88.68,145.37a.51.51,0,0,1-.5-.11.5.5,0,0,1,0-.72,52.22,52.22,0,0,1,5.91-5.16.51.51,0,0,1,.61.81,52.62,52.62,0,0,0-5.79,5A.49.49,0,0,1,88.68,145.37Z"/><path class="cls-9" d="M94.3,140.45h-.06c-2,.43-4.67,1.29-4.7,1.3a.51.51,0,1,1-.31-1h0c.11,0,2.73-.88,4.8-1.32a.51.51,0,0,1,.27,1Z"/><path class="cls-9" d="M89.74,128.08h0a.5.5,0,0,1-.63-.34c-.2-.65-4.73-16.06-4.73-23.81a.5.5,0,0,1,.5-.51.51.51,0,0,1,.51.51c0,7.61,4.64,23.36,4.69,23.52A.51.51,0,0,1,89.74,128.08Z"/><path class="cls-9" d="M85.35,108.72a.51.51,0,0,1-.43-.06.49.49,0,0,1-.16-.69l1.66-2.65a.51.51,0,1,1,.86.54l-1.66,2.64A.52.52,0,0,1,85.35,108.72Z"/><path class="cls-9" d="M127.86,165.72a.53.53,0,0,1-.22,0,.51.51,0,0,1-.45-.56l1.74-16a.51.51,0,1,1,1,.11l-1.74,16A.5.5,0,0,1,127.86,165.72Z"/><path class="cls-16" d="M114.57,140.36a.43.43,0,0,1-.4-.29c-4.9-14.62-12-51.06-12-51.43a.42.42,0,0,1,.34-.49.41.41,0,0,1,.49.33c.07.37,7.14,36.75,12,51.33a.41.41,0,0,1-.26.53A.34.34,0,0,1,114.57,140.36Z"/><path class="cls-16" d="M125.05,139a.42.42,0,0,1-.42-.36c-3-21.78-15.44-51.09-15.57-51.38a.42.42,0,0,1,.78-.33c.13.29,12.63,29.71,15.62,51.59a.42.42,0,0,1-.36.48Z"/><path class="cls-16" d="M95,195.77a5.42,5.42,0,0,1-2.85-.93c-3.59-2.25-7.94-9.06-9.55-19.22a.43.43,0,0,1,.84-.13c1.57,9.89,5.73,16.49,9.16,18.64a3.94,3.94,0,0,0,3.2.68,3,3,0,0,0,1.76-1.56c3-5.63-2.21-22.61-2.26-22.78a.42.42,0,0,1,.28-.53.43.43,0,0,1,.53.28c.22.71,5.35,17.48,2.2,23.43a3.81,3.81,0,0,1-2.26,2A3.7,3.7,0,0,1,95,195.77Z"/><path class="cls-6" d="M71.59,249.73c-.11.47-.24.93-.38,1.38-1,3-2.82,5.48-5.3,6.49-9.38,3.81-18.2,2.49-36.15,2.07s-31.28-5.17-29.62-20a19.11,19.11,0,0,1,.66-3.27,16.47,16.47,0,0,1,1.58-3.64h0A16.94,16.94,0,0,1,5,229.4a18.75,18.75,0,0,1,19.41-4.46c6.71,2.3,18.57,3.42,30.92,3.66C68.59,228.87,73.55,241.26,71.59,249.73Z"/><path class="cls-7" d="M71.59,249.73c-.11.47-.24.93-.38,1.38-3.19,2.78-9.18,4.53-17.86,5.22-2.73.22-5.73.33-9,.33a220.07,220.07,0,0,1-25.69-1.72c-8-1-13.48-3.8-16.17-8.43A15.73,15.73,0,0,1,.8,236.45a16.47,16.47,0,0,1,1.58-3.64c-.7,2.14-2.23,8.21.76,13.35,2.58,4.42,7.84,7.13,15.65,8.07C47,257.62,66.2,256,71.59,249.73Z"/><path class="cls-7" d="M18,231.44a9.51,9.51,0,0,0-8.69,10.93l.06.32c1.19,5.95,9.19,5.77,31.4,6,17.39.16,26.33-6.06,21.71-13.75C58.75,228.81,29.69,230.49,18,231.44Z"/><path class="cls-14" d="M59.9,235.94C51.81,246,18.8,246.58,14.47,239c-2.11-3.68-1.53-8.38-.38-12.25.13-.4.25-.8.38-1.19a36.14,36.14,0,0,1,2.69-6s-.14,3.59,12,2.3a40.12,40.12,0,0,1,4.68-.19l1,0C48,222.11,66.9,227.23,59.9,235.94Z"/><path class="cls-19" d="M33.38,229.93c-1.91,2.13-5.22,2.93-9.57,2.32l-.29,0c-5.49-.85-8.17-3.46-9.43-5.42.13-.4.25-.8.38-1.19.94,1.81,3.4,4.88,9.47,5.73,4,.56,7.06-.13,8.75-2,1.52-1.7,1.92-4.32,1.18-7.61l1,0C35.57,225.21,35.08,228,33.38,229.93Z"/><path class="cls-14" d="M55.33,228.6s7.75-.57,8.67-4.48-16.86-.48-18.82-8.54,5.9-14.47,8.45-12.12c3,2.8-3.6,4-4,8.13-.3,3.44,1.83,6.61,8.45,7.08s9.58,1.51,9.55,4.58c0,3.35-5.39,6.8-8.65,7S55.33,228.6,55.33,228.6Z"/><path class="cls-14" d="M21.32,216.62a20.6,20.6,0,0,0-6-5,.77.77,0,0,0-1.13.76l.71,6.86S20.24,219.72,21.32,216.62Z"/><path class="cls-20" d="M16.18,218.43c-.31-1.56-.38-3.19-.74-5,0,0,4,2.41,4.28,3.73C19.72,217.14,17.49,218.83,16.18,218.43Z"/><path class="cls-14" d="M28.34,216.9a20.82,20.82,0,0,1,7.3-2.43.86.86,0,0,1,.87,1.24l-2.83,5.65S28.23,220.18,28.34,216.9Z"/><path class="cls-20" d="M32.48,220.45c.85-1.33,1.51-2.83,2.51-4.41,0,0-4.64.78-5.34,1.92C29.65,218,31.11,220.35,32.48,220.45Z"/><path class="cls-14" d="M18.32,216.74s-4.78.73-4.42,6.34,5.82,6.21,5.82,6.21,1,1.8,4.34,2.53c2.16.47,5.37.32,6.19-1.27,0,0,4.69-1.72,4.63-5.89C34.82,220,29.24,214.34,18.32,216.74Z"/><path class="cls-14" d="M13.46,230s1.95,8,3.59,9.6a9.18,9.18,0,0,0,5.69,2.82c3.68.45,3,2.9,1.9,3.74-1.27,1-3.52.43-6.9.43-2.93,0-5.68-.59-6.67-2.51s-.92-7.61.13-10.81C11.85,231.3,12.76,230.27,13.46,230Z"/><path class="cls-14" d="M38.19,230.52s-1.95,8-3.59,9.61A9.69,9.69,0,0,1,28.91,243a2.4,2.4,0,0,0-1.9,3.74c1.07,1.19,3.52.42,6.9.42,2.93,0,6.38-1.17,7.37-3.09s.22-7-.83-10.22C39.8,231.83,38.89,230.8,38.19,230.52Z"/><path class="cls-14" d="M54.53,228.94s5.15-1.23,6.81,2.65c2.61,6.1.53,9.59-6.43,10.56S40,244.43,46,239.48A32.9,32.9,0,0,0,54.53,228.94Z"/><path class="cls-20" d="M26.81,225.8a9,9,0,0,0-2.63,0c-.93.42.57,2.16,1.52,2.3a1.86,1.86,0,0,0,1.86-1.69A.66.66,0,0,0,26.81,225.8Z"/><path class="cls-20" d="M27.88,224.2a.1.1,0,0,0-.13.16,2.27,2.27,0,0,0,2.2.92,1.58,1.58,0,0,0,1.29-1.3.1.1,0,0,0-.19-.07,1.71,1.71,0,0,1-1.47.83A3,3,0,0,1,27.88,224.2Z"/><path class="cls-20" d="M19.83,223.78a.1.1,0,0,0-.16.12,2.26,2.26,0,0,0,2,1.32,1.6,1.6,0,0,0,1.51-1,.1.1,0,0,0-.17-.11,1.68,1.68,0,0,1-1.61.54A3,3,0,0,1,19.83,223.78Z"/><path class="cls-16" d="M237.24,9.32V57.8a2.3,2.3,0,0,1-2.3,2.31H152.88a2.3,2.3,0,0,1-2.31-2.31V9.32A2.31,2.31,0,0,1,152.88,7h82.06A2.31,2.31,0,0,1,237.24,9.32Z"/><path class="cls-6" d="M186.78,36.79a15.28,15.28,0,1,1-29.36-5.91l14.09,5.91-.72-15.26h.72A15.27,15.27,0,0,1,186.78,36.79Z"/><path class="cls-3" d="M169.26,19a15.34,15.34,0,0,0-13.36,9.35L170,34.27Z"/><rect class="cls-7" x="221.45" y="26.27" width="2.1" height="2.1"/><rect class="cls-6" x="224.94" y="27.06" width="7.56" height="0.53" rx="0.02"/><rect class="cls-7" x="221.45" y="22.53" width="2.1" height="2.1"/><rect class="cls-6" x="224.94" y="23.32" width="7.56" height="0.53" rx="0.02"/><rect class="cls-7" x="221.45" y="30.01" width="2.1" height="2.1"/><rect class="cls-6" x="224.94" y="30.79" width="7.56" height="0.53" rx="0.02"/><path class="cls-6" d="M232.24,38.68H221.71a.27.27,0,0,1-.26-.27h0a.26.26,0,0,1,.26-.26h10.53a.26.26,0,0,1,.26.26h0A.27.27,0,0,1,232.24,38.68Z"/><path class="cls-6" d="M232.24,40.83H221.71a.26.26,0,0,1-.26-.26h0a.26.26,0,0,1,.26-.26h10.53a.26.26,0,0,1,.26.26h0A.26.26,0,0,1,232.24,40.83Z"/><path class="cls-6" d="M232.24,43H221.71a.26.26,0,0,1-.26-.26h0a.27.27,0,0,1,.26-.27h10.53a.27.27,0,0,1,.26.27h0A.26.26,0,0,1,232.24,43Z"/><path class="cls-6" d="M232.24,45.15H221.71a.27.27,0,0,1-.26-.27h0a.26.26,0,0,1,.26-.26h10.53a.26.26,0,0,1,.26.26h0A.27.27,0,0,1,232.24,45.15Z"/><path class="cls-6" d="M232.24,47.3H221.71a.26.26,0,0,1-.26-.26h0a.26.26,0,0,1,.26-.26h10.53a.26.26,0,0,1,.26.26h0A.26.26,0,0,1,232.24,47.3Z"/><path class="cls-6" d="M232.24,49.46H221.71a.26.26,0,0,1-.26-.26h0a.27.27,0,0,1,.26-.27h10.53a.27.27,0,0,1,.26.27h0A.26.26,0,0,1,232.24,49.46Z"/><path class="cls-6" d="M232.24,51.62H221.71a.27.27,0,0,1-.26-.27h0a.26.26,0,0,1,.26-.26h10.53a.26.26,0,0,1,.26.26h0A.27.27,0,0,1,232.24,51.62Z"/><path class="cls-6" d="M237.24,9.32v4H150.57v-4A2.31,2.31,0,0,1,152.88,7h82.06A2.31,2.31,0,0,1,237.24,9.32Z"/><path class="cls-3" d="M228.11,10.19a1.07,1.07,0,1,1-1.06-1.07A1.06,1.06,0,0,1,228.11,10.19Z"/><path class="cls-16" d="M231.57,10.19a1.07,1.07,0,1,1-1.06-1.07A1.06,1.06,0,0,1,231.57,10.19Z"/><path class="cls-7" d="M234.89,10.19a1.07,1.07,0,1,1-1.07-1.07A1.07,1.07,0,0,1,234.89,10.19Z"/><path class="cls-7" d="M186.78,36.79A15.25,15.25,0,0,1,182.85,47L171.51,36.79l-.72-15.26h.72A15.27,15.27,0,0,1,186.78,36.79Z"/><rect class="cls-6" x="201.65" y="32.93" width="4.86" height="20.83"/><path class="cls-7" d="M201.65,48.27a19,19,0,0,0,4.86-2.51v8h-4.86Z"/><rect class="cls-6" x="193.7" y="38.72" width="4.86" height="15.05"/><path class="cls-7" d="M197.67,48.62a6.84,6.84,0,0,0,.9.08v5.06H193.7v-5A8.85,8.85,0,0,1,197.67,48.62Z"/><rect class="cls-6" x="209.6" y="26.7" width="4.86" height="27.06"/><path class="cls-7" d="M214.46,41.53V53.76H209.6V43.61C211.33,42.44,212.94,41.53,214.46,41.53Z"/><path class="cls-3" d="M214.26,18.82l-4.38.94,1.17,1.15-6.71,6.85L202,25.45,193.64,34a.82.82,0,0,0,0,1.16h0a.82.82,0,0,0,1.17,0L202,27.78l2.36,2.31,7.87-8,1.18,1.16Z"/><rect class="cls-6" x="28.9" y="62.06" width="33.48" height="23.13" transform="translate(-0.11 0.07) rotate(-0.08)"/><polygon class="cls-7" points="28.89 62.09 28.89 63.57 45.65 78.38 62.37 63.52 62.36 62.04 45.65 76.95 28.89 62.09"/><polygon class="cls-7" points="48.87 74.03 61.43 85.16 62.4 85.16 62.4 84.57 49.59 73.21 48.87 74.03"/><polygon class="cls-7" points="28.92 84.7 28.92 85.21 29.98 85.21 42.5 74.03 41.78 73.22 28.92 84.7"/><polygon class="cls-6" points="62.36 62.04 45.65 76.95 28.89 62.09 62.36 62.04"/><circle class="cls-7" cx="60.79" cy="63.22" r="7.27"/><path class="cls-16" d="M59.3,66.67h0a.71.71,0,0,1-.5-.21L57,64.68a.69.69,0,0,1,0-1,.7.7,0,0,1,1,0L59.3,65l5-5a.72.72,0,0,1,1,0,.7.7,0,0,1,0,1L59.8,66.46A.75.75,0,0,1,59.3,66.67Z"/><path class="cls-16" d="M253.31,154.45V72.32A2.26,2.26,0,0,0,251,70.05H209.47a2.27,2.27,0,0,0-2.27,2.27v82.13a4.6,4.6,0,0,0,4.6,4.6h36.91A4.6,4.6,0,0,0,253.31,154.45Z"/><path class="cls-6" d="M246.41,132.42H215.69a1,1,0,0,1-1-1h0a1,1,0,0,1,1-1h30.72a1,1,0,0,1,1,1h0A1,1,0,0,1,246.41,132.42Z"/><path class="cls-6" d="M246.41,138.85H215.69a1,1,0,0,1-1-1h0a1,1,0,0,1,1-1h30.72a1,1,0,0,1,1,1h0A1,1,0,0,1,246.41,138.85Z"/><path class="cls-6" d="M246.41,145.27H215.69a1,1,0,0,1-1-1h0a1,1,0,0,1,1-1h30.72a1,1,0,0,1,1,1h0A1,1,0,0,1,246.41,145.27Z"/><path class="cls-6" d="M246.41,151.7H215.69a1,1,0,0,1-1-1h0a1,1,0,0,1,1-1h30.72a1,1,0,0,1,1,1h0A1,1,0,0,1,246.41,151.7Z"/><path class="cls-6" d="M253.31,72.32v6.31H207.2V72.32a2.27,2.27,0,0,1,2.27-2.27H251A2.26,2.26,0,0,1,253.31,72.32Z"/><path class="cls-3" d="M242.15,73.92a1.5,1.5,0,1,1-1.5-1.5A1.5,1.5,0,0,1,242.15,73.92Z"/><path class="cls-16" d="M247,73.92a1.5,1.5,0,1,1-1.5-1.5A1.5,1.5,0,0,1,247,73.92Z"/><path class="cls-7" d="M251.66,73.92a1.5,1.5,0,1,1-1.5-1.5A1.5,1.5,0,0,1,251.66,73.92Z"/><rect class="cls-7" x="216.33" y="113.78" width="5.19" height="12.53"/><rect class="cls-6" x="223.98" y="104.88" width="5.19" height="21.43"/><rect class="cls-7" x="232.45" y="98.31" width="5.19" height="28"/><rect class="cls-6" x="240.75" y="90.6" width="5.19" height="35.71"/><polygon class="cls-3" points="236.38 85.11 239.97 86.43 239.56 82.22 236.38 85.11"/><path class="cls-3" d="M214.9,107.69a.38.38,0,0,1-.36-.25.38.38,0,0,1,.23-.5c.15-.06,15.76-6,23.38-22.11a.38.38,0,0,1,.51-.19.39.39,0,0,1,.19.52c-7.75,16.37-23.65,22.45-23.81,22.51A.34.34,0,0,1,214.9,107.69Z"/><path class="cls-6" d="M38.26,20.94V33.76a3.07,3.07,0,0,0,3.07,3.06H64.61l7,2.53a.9.9,0,0,0,1.14-1.17l-2.66-6.86V20.94A3.07,3.07,0,0,0,67,17.87H41.33A3.07,3.07,0,0,0,38.26,20.94Z"/><path class="cls-16" d="M58.48,27.71a2.22,2.22,0,1,0,2.22-2.22A2.22,2.22,0,0,0,58.48,27.71Z"/><path class="cls-16" d="M51.45,27.71a2.22,2.22,0,1,0,2.22-2.22A2.22,2.22,0,0,0,51.45,27.71Z"/><path class="cls-16" d="M44.43,27.71a2.22,2.22,0,1,0,2.22-2.22A2.21,2.21,0,0,0,44.43,27.71Z"/><rect class="cls-6" x="81.13" y="7.26" width="13.66" height="13.66" rx="1.29"/><path class="cls-16" d="M91.83,11.28c0-.1,0-.19-.07-.29a2.13,2.13,0,0,0-.46-.88,2.26,2.26,0,0,0-.56-.46.63.63,0,0,0-.83.16l-1.14,1.38a.66.66,0,0,0,.1.93c.2.18.42.35.63.53l.08,0A6,6,0,0,1,87,15.86l-.46-.38-.24-.2a.66.66,0,0,0-.79,0,1,1,0,0,0-.21.21l-1,1.25a.84.84,0,0,0-.2.45v.18a1.61,1.61,0,0,0,.19.31,2.31,2.31,0,0,0,.69.5,1.9,1.9,0,0,0,1,.19,3.82,3.82,0,0,0,.66-.12,5.24,5.24,0,0,0,1.54-.75,8,8,0,0,0,1.3-1.1,13.05,13.05,0,0,0,1.43-1.79A6.43,6.43,0,0,0,91.67,13a3.35,3.35,0,0,0,.18-.89c0-.12,0-.25,0-.37Z"/><rect class="cls-6" x="100.91" y="7.01" width="13.87" height="13.87" rx="1.15"/><rect class="cls-6" x="119.6" y="7.01" width="13.87" height="13.87" rx="1.15"/><path class="cls-16" d="M108.91,15.48a2.09,2.09,0,0,1-1.73.84,1.54,1.54,0,0,1-1.63-1.7,2.66,2.66,0,0,1,2.38-2.88,1.19,1.19,0,0,1,1.17.62l.09-.54h1.42l-.45,2.57c-.08.47,0,.78.37.78.71,0,1-1.12,1-2.08,0-1.56-1-2.52-2.83-2.52a4.07,4.07,0,0,0-4.09,4.18,2.46,2.46,0,0,0,2.75,2.62,4.53,4.53,0,0,0,1.81-.37l.28,1.12a5.73,5.73,0,0,1-2.26.44,3.57,3.57,0,0,1-3.91-3.68,5.4,5.4,0,0,1,5.6-5.49c2.46,0,4,1.49,4,3.65,0,1.71-.92,3.26-2.6,3.26A1.29,1.29,0,0,1,108.91,15.48ZM108.12,13a1.19,1.19,0,0,0-1.05,1.31.66.66,0,0,0,.69.75,1.21,1.21,0,0,0,1.08-1.27A.7.7,0,0,0,108.12,13Z"/><path class="cls-16" d="M126.45,9.59A2.35,2.35,0,0,1,129,12h-1.66c0-.53-.26-.92-.88-.92s-.89.32-.89,1a4.15,4.15,0,0,0,.24,1.15h1.91v1.22H126.1v0a2.25,2.25,0,0,1-.7,1.63h3.68v1.42h-5.4l-.26-.89a2.58,2.58,0,0,0,1-2.17v0h-1.15V13.25h.86a4.71,4.71,0,0,1-.2-1.33A2.3,2.3,0,0,1,126.45,9.59Z"/></g></g></g></svg>