<svg xmlns="http://www.w3.org/2000/svg" viewBox="0 0 25.19 23.22"><defs><style>.cls-1{fill:#75c189;}</style></defs><g id="Layer_2" data-name="Layer 2"><g id="Option_1" data-name="Option 1"><path class="cls-1" d="M21.4,8.27A.62.62,0,0,0,21,9a9.85,9.85,0,0,1,.42,2.86,10.08,10.08,0,1,1-5.2-8.82h0c.19.11.39.22.57.35a.69.69,0,0,0,.34.09.63.63,0,0,0,.52-.28.62.62,0,0,0-.19-.86c-.2-.13-.42-.26-.64-.38h0a11.33,11.33,0,1,0,5.37,6.68A.62.62,0,0,0,21.4,8.27Z"/><path class="cls-1" d="M25,.19a.61.61,0,0,0-.87,0L11.31,12.63,7,8.58a.62.62,0,1,0-.85.91l4.71,4.45a.59.59,0,0,0,.43.17.65.65,0,0,0,.43-.17L25,1.06A.61.61,0,0,0,25,.19Z"/></g></g></svg>