<svg xmlns="http://www.w3.org/2000/svg" xmlns:xlink="http://www.w3.org/1999/xlink" viewBox="0 0 246.35 154.65"><defs><style>.cls-1{fill:none;}.cls-2{isolation:isolate;}.cls-10,.cls-3{fill:#ffd371;}.cls-3{opacity:0.3;}.cls-4{fill:#7c906d;}.cls-5{fill:#fdc575;}.cls-6{fill:#eaeaea;mix-blend-mode:multiply;}.cls-7{fill:#bf8f51;}.cls-8{fill:#a5714c;}.cls-9{fill:#fa5;}.cls-11{fill:#fff;}.cls-12{fill:#d37b5f;}.cls-13{fill:#9e5a48;}.cls-14{fill:#672f20;}.cls-15{fill:#231f20;}.cls-16{fill:#d36d51;}.cls-17{fill:#46c7ce;}.cls-18{clip-path:url(#clip-path);}.cls-19{fill:#209e84;}.cls-20{fill:#362b2f;}.cls-21{fill:#199b9e;}.cls-22{fill:#d5d5d5;}.cls-23{fill:#fffcfd;}.cls-24{fill:#b6b3b1;}</style><clipPath id="clip-path"><path class="cls-1" d="M124.75,36.09c-9.83,4.6-16.31-.18-16.31-.18s-10.25,2.31-15.08,9.26c-3.15,4.54-3.61,12.64-3.61,12.64l11.69,2.44-1.38,22.2s14.13,3.14,33.49-1V60.94L144,57.66S142,46.27,134.77,40.83A24.23,24.23,0,0,0,124.75,36.09Z"/></clipPath></defs><g class="cls-2"><g id="Layer_2" data-name="Layer 2"><g id="Option_1" data-name="Option 1"><path class="cls-3" d="M113.1,150.68c62.08,0,89.16-18.45,89.16-18.45s40.57-19.36,17-69.95C200.52,22,133.39-10.91,100.44,3.41S70.46,35.82,34.27,62,6.45,109,12.93,119.54C12.93,119.54,33.11,150.68,113.1,150.68Z"/><path class="cls-4" d="M246.35,127.38l-.06.13A.19.19,0,0,1,246.35,127.38Z"/><path class="cls-5" d="M246.35,127.38l-.06.13A.19.19,0,0,1,246.35,127.38Z"/><ellipse class="cls-6" cx="119.17" cy="128.71" rx="119.17" ry="6.71"/><rect class="cls-7" x="35.95" y="63.02" width="161.69" height="49.88"/><rect class="cls-8" x="12.71" y="111.17" width="211.55" height="3.47"/><path class="cls-9" d="M83.71,98.84v10c0,1.28-.7,2.32-1.57,2.32H16c-.87,0-1.57-1-1.57-2.32v-10c0-7.74,4.28-14.07,9.51-14.07H74.2C79.43,84.77,83.71,91.1,83.71,98.84Z"/><path class="cls-9" d="M153,98.84v10c0,1.28-.71,2.32-1.57,2.32H85.28c-.86,0-1.57-1-1.57-2.32v-10c0-7.74,4.28-14.07,9.52-14.07h50.23C148.69,84.77,153,91.1,153,98.84Z"/><path class="cls-9" d="M222.24,98.84v10c0,1.28-.71,2.32-1.57,2.32H154.55c-.87,0-1.57-1-1.57-2.32v-10c0-7.74,4.28-14.07,9.51-14.07h50.23C218,84.77,222.24,91.1,222.24,98.84Z"/><rect class="cls-8" x="16.07" y="112.9" width="4.32" height="16.27"/><rect class="cls-8" x="81.55" y="112.9" width="4.32" height="16.27"/><rect class="cls-8" x="151.25" y="112.9" width="4.32" height="16.27"/><rect class="cls-8" x="216.74" y="112.9" width="4.32" height="16.27"/><path class="cls-9" d="M86.86,60.51l.07,19.25a6.59,6.59,0,0,1-6.68,6.44l-46.89.16A6.59,6.59,0,0,1,26.64,80l-.07-19.24a6.57,6.57,0,0,1,6.67-6.44l46.89-.16A6.58,6.58,0,0,1,86.86,60.51Z"/><path class="cls-9" d="M213.25,60.27l.24,19.24A6.56,6.56,0,0,1,206.88,86L160,86.55a6.59,6.59,0,0,1-6.78-6.34L153,61a6.58,6.58,0,0,1,6.62-6.49l46.89-.54A6.59,6.59,0,0,1,213.25,60.27Z"/><path class="cls-9" d="M150,60.31l.22,19.25A6.56,6.56,0,0,1,143.54,86l-46.89.49a6.59,6.59,0,0,1-6.77-6.35l-.22-19.24a6.58,6.58,0,0,1,6.63-6.49L143.18,54A6.59,6.59,0,0,1,150,60.31Z"/><path class="cls-8" d="M37.46,64.93h0a1.25,1.25,0,0,1-1.25-1.25h0a1.25,1.25,0,0,1,1.25-1.24h0a1.25,1.25,0,0,1,1.25,1.24h0A1.25,1.25,0,0,1,37.46,64.93Z"/><path class="cls-8" d="M54.68,64.93h0a1.25,1.25,0,0,1-1.24-1.25h0a1.25,1.25,0,0,1,1.24-1.24h0a1.25,1.25,0,0,1,1.25,1.24h0A1.25,1.25,0,0,1,54.68,64.93Z"/><path class="cls-8" d="M71.91,64.93h0a1.25,1.25,0,0,1-1.25-1.25h0a1.25,1.25,0,0,1,1.25-1.24h0a1.25,1.25,0,0,1,1.25,1.24h0A1.26,1.26,0,0,1,71.91,64.93Z"/><path class="cls-8" d="M37.46,76.34h0a1.25,1.25,0,0,1-1.25-1.25h0a1.26,1.26,0,0,1,1.25-1.25h0a1.26,1.26,0,0,1,1.25,1.25h0A1.25,1.25,0,0,1,37.46,76.34Z"/><path class="cls-8" d="M54.68,76.34h0a1.25,1.25,0,0,1-1.24-1.25h0a1.25,1.25,0,0,1,1.24-1.25h0a1.26,1.26,0,0,1,1.25,1.25h0A1.25,1.25,0,0,1,54.68,76.34Z"/><path class="cls-8" d="M71.91,76.34h0a1.25,1.25,0,0,1-1.25-1.25h0a1.26,1.26,0,0,1,1.25-1.25h0a1.26,1.26,0,0,1,1.25,1.25h0A1.26,1.26,0,0,1,71.91,76.34Z"/><path class="cls-8" d="M103.4,66.24h0A1.25,1.25,0,0,1,102.15,65h0a1.26,1.26,0,0,1,1.25-1.25h0A1.25,1.25,0,0,1,104.64,65h0A1.25,1.25,0,0,1,103.4,66.24Z"/><path class="cls-8" d="M120.62,66.24h0A1.25,1.25,0,0,1,119.37,65h0a1.26,1.26,0,0,1,1.25-1.25h0A1.26,1.26,0,0,1,121.87,65h0A1.25,1.25,0,0,1,120.62,66.24Z"/><path class="cls-8" d="M137.84,66.24h0A1.25,1.25,0,0,1,136.6,65h0a1.25,1.25,0,0,1,1.24-1.25h0A1.26,1.26,0,0,1,139.09,65h0A1.25,1.25,0,0,1,137.84,66.24Z"/><path class="cls-8" d="M103.4,77.65h0a1.25,1.25,0,0,1-1.25-1.25h0a1.26,1.26,0,0,1,1.25-1.25h0a1.25,1.25,0,0,1,1.24,1.25h0A1.25,1.25,0,0,1,103.4,77.65Z"/><path class="cls-8" d="M120.62,77.65h0a1.25,1.25,0,0,1-1.25-1.25h0a1.26,1.26,0,0,1,1.25-1.25h0a1.26,1.26,0,0,1,1.25,1.25h0A1.25,1.25,0,0,1,120.62,77.65Z"/><path class="cls-8" d="M137.84,77.65h0a1.25,1.25,0,0,1-1.24-1.25h0a1.25,1.25,0,0,1,1.24-1.25h0a1.26,1.26,0,0,1,1.25,1.25h0A1.25,1.25,0,0,1,137.84,77.65Z"/><path class="cls-8" d="M167.05,66h0a1.25,1.25,0,0,1-1.26-1.23h0A1.25,1.25,0,0,1,167,63.54h0a1.25,1.25,0,0,1,1.26,1.23h0A1.25,1.25,0,0,1,167.05,66Z"/><path class="cls-8" d="M184.27,65.79h0A1.25,1.25,0,0,1,183,64.56h0a1.25,1.25,0,0,1,1.23-1.26h0a1.25,1.25,0,0,1,1.26,1.23h0A1.25,1.25,0,0,1,184.27,65.79Z"/><path class="cls-8" d="M201.5,65.55h0a1.25,1.25,0,0,1-1.27-1.23h0a1.24,1.24,0,0,1,1.23-1.26h0a1.25,1.25,0,0,1,1.27,1.23h0A1.25,1.25,0,0,1,201.5,65.55Z"/><path class="cls-8" d="M167.21,77.44h0A1.25,1.25,0,0,1,166,76.21h0A1.25,1.25,0,0,1,167.18,75h0a1.25,1.25,0,0,1,1.26,1.23h0A1.25,1.25,0,0,1,167.21,77.44Z"/><path class="cls-8" d="M184.43,77.2h0A1.25,1.25,0,0,1,183.17,76h0a1.24,1.24,0,0,1,1.23-1.26h0a1.24,1.24,0,0,1,1.26,1.23h0A1.25,1.25,0,0,1,184.43,77.2Z"/><path class="cls-8" d="M201.66,77h0a1.26,1.26,0,0,1-1.27-1.23h0a1.25,1.25,0,0,1,1.23-1.27h0a1.26,1.26,0,0,1,1.27,1.23h0A1.26,1.26,0,0,1,201.66,77Z"/><rect class="cls-7" x="14.45" y="102.69" width="207.79" height="8.48"/><path class="cls-10" d="M49.63,85.51c1.75-3-.28-22.26-1.43-23-1.36-.9-24.19.66-26.05,1.56-1.59.77.54,19.38,2.3,22.67C25.42,88.55,47.89,88.53,49.63,85.51Z"/><path class="cls-11" d="M43.89,88c-1.44-.08-4.39-.31-3.61-1.46,2.82-4.18,8.59-12.13,13-14.32,6.08-3,28.59,5.46,25.11,8.45S69.44,91,64.29,91C62.27,91,50.32,88.35,43.89,88Z"/><path class="cls-11" d="M214.43,87.57c2.38-3.1,3.32-24.81,2.19-25.84-1.33-1.22-26.23-3.14-28.38-2.44-1.85.61-2.56,21.64-1.2,25.59C187.79,87.06,212.06,90.65,214.43,87.57Z"/><path class="cls-10" d="M197.13,89.31c3.61-1,2.15-14.28,2.15-14.28C191.23,69.77,184,70,184,70c-8,5.64-9,17.94-9,17.94S185.74,92.5,197.13,89.31Z"/><path class="cls-12" d="M134.88,44.42c-2-2.75-1.45-4.39-4.9-6.06-4.18-2-8.15-3.28-8.91-3.88-1.39-1.08-1-5.75-1-5.75l-3.53-3.05-3.91,3.05s.42,4.67-1,5.75c-1,.81-8,2.84-13.33,6.34-1.85,1.2-.2,2.53-1.36,4.09Z"/><path class="cls-13" d="M112.69,29.31s1.6,2.29,3.68,2.49,3.87-3.3,3.87-3.3l-7.59.23Z"/><path class="cls-12" d="M121.87,24.42a3.18,3.18,0,0,1,0,.41,8,8,0,0,1-.53,2.58,6.68,6.68,0,0,1-1.62,1.73,5.57,5.57,0,0,1-3.58,1.49,6.42,6.42,0,0,1-3.66-1.57,9.22,9.22,0,0,1-1.58-1.74,4.5,4.5,0,0,1-.58-2.57c0-.27,0-.45,0-.45-1.24-1.1-2.4-3.18-1.65-4.52s2,0,2,0A7.53,7.53,0,0,1,112,15.43s.4-.87,4.34-.81,4.58.9,5,2.32a7.94,7.94,0,0,1,.17,3.19,1.2,1.2,0,0,1,1.57-.52C125.38,21.29,121.87,24.42,121.87,24.42Z"/><path class="cls-14" d="M122.75,19.51a18.57,18.57,0,0,0,0-2,18.22,18.22,0,0,0-.29-3.13,10.32,10.32,0,0,0-.84-3.12,2.29,2.29,0,0,1-.62,1.32,4.12,4.12,0,0,0-.33-2.78,2.7,2.7,0,0,1-1,1.63,8.5,8.5,0,0,0,0-3.1,11.16,11.16,0,0,1-3.39,2.11c-.87.32-1.78.5-2.67.77a5.4,5.4,0,0,0-2.39,1.37c-1.62,1.8-1.67,4.38-1.68,6.65a1.86,1.86,0,0,1,1.15.59,10.39,10.39,0,0,0,2-3.56s4.29.75,7.07,0a27,27,0,0,0,1.74,3.91A1.14,1.14,0,0,1,122.75,19.51Z"/><path class="cls-15" d="M110.76,21.49l-.15-.21a4.93,4.93,0,0,0-1.17-1.11l.09-.13a5.25,5.25,0,0,1,1,.92,1.53,1.53,0,0,0-.4-.71l.12-.11a1.73,1.73,0,0,1,.48,1.09Z"/><path class="cls-15" d="M121.52,21.87v-.25a1.63,1.63,0,0,1,.48-1.09l.11.11a1.46,1.46,0,0,0-.39.71,4.7,4.7,0,0,1,1-.92l.09.13a4.93,4.93,0,0,0-1.17,1.11Z"/><path class="cls-14" d="M114.6,19.89a5.63,5.63,0,0,0-.92-.1c-.29,0-.58,0-.86,0l-.41,0-.43,0s-.06,0-.06,0l0,0a1.41,1.41,0,0,1,.46-.3A5.77,5.77,0,0,1,114,19l.38-.05a5,5,0,0,1,1.5.05.18.18,0,0,1,.17.13.72.72,0,0,1-.39.79A1.66,1.66,0,0,1,114.6,19.89Z"/><path class="cls-14" d="M118.52,19.86a7.26,7.26,0,0,1,.93-.06c.29,0,.58,0,.86.06l.41,0a3.18,3.18,0,0,0,.43.06s0,0,0,0,0,0,0,0a1.6,1.6,0,0,0-.45-.32A5.64,5.64,0,0,0,119.2,19l-.37-.07a5.46,5.46,0,0,0-1.51,0,.18.18,0,0,0-.17.12.71.71,0,0,0,.35.81A1.61,1.61,0,0,0,118.52,19.86Z"/><path class="cls-15" d="M117,25a2.92,2.92,0,0,1-.73-.13l0-.15a1.64,1.64,0,0,0,.84.1v0c0-.29,0-5.2,0-5.41h.16c0,.05,0,5.12,0,5.4a.17.17,0,0,1-.07.15A.37.37,0,0,1,117,25Z"/><path class="cls-15" d="M114.61,21.51c0,.25-.13.45-.29.45s-.3-.2-.3-.45.13-.45.3-.45S114.61,21.26,114.61,21.51Z"/><path class="cls-15" d="M119.13,21.51c0,.25-.13.45-.3.45s-.3-.2-.3-.45.14-.45.3-.45S119.13,21.26,119.13,21.51Z"/><path class="cls-16" d="M113.74,27a2.39,2.39,0,0,1-1.27,2.1,9.22,9.22,0,0,1-1.58-1.74,4.5,4.5,0,0,1-.58-2.57,2.54,2.54,0,0,1,1-.19A2.43,2.43,0,0,1,113.74,27Z"/><path class="cls-16" d="M121.86,24.83a8,8,0,0,1-.53,2.58,6.68,6.68,0,0,1-1.62,1.73A2.38,2.38,0,0,1,118.28,27a2.42,2.42,0,0,1,2.45-2.4A2.36,2.36,0,0,1,121.86,24.83Z"/><path class="cls-17" d="M100.14,81.23a18.72,18.72,0,0,0,5,.92c5.82.45,11.62.85,17.46.77a23.71,23.71,0,0,0,7.81-1.11,33.8,33.8,0,0,0,3.17-1.34V60.94L144,57.66S142,46.27,134.77,40.83a24.23,24.23,0,0,0-10-4.74c-9.83,4.6-16.31-.18-16.31-.18s-10.25,2.31-15.08,9.26c-3.15,4.54-3.61,12.64-3.61,12.64l11.69,2.44Z"/><g class="cls-18"><path class="cls-19" d="M145,63.18c-15.06-.09-54.45-.31-55.86-.13l.1,0-.46-3.36c.7-.24,35.51-.06,56.2.07Z"/><path class="cls-19" d="M144.56,70c-15.06-.1-54.45-.31-55.86-.13l.09,0-.46-3.37c.71-.24,35.52,0,56.2.08Z"/><path class="cls-19" d="M144.05,76.8c-15.06-.1-54.45-.31-55.86-.13l.1,0-.46-3.37c.7-.24,35.51,0,56.2.08Z"/><path class="cls-19" d="M122.57,82.92a23.71,23.71,0,0,0,7.81-1.11c.27-.09.53-.19.8-.3-10.52-.06-22-.11-30.57-.12a20.37,20.37,0,0,0,4.5.76C110.93,82.6,116.73,83,122.57,82.92Z"/></g><path class="cls-20" d="M102,81.42,104,80.25l28.43-.88s8.31-3.93,7.74-1.23-2.51,18.73-16.52,15.32-15.67,2.59-22-.76S102,81.42,102,81.42Z"/><path class="cls-12" d="M102.16,74.34a62.24,62.24,0,0,0-6.81.21c-1,.26,2.76-10.13,5.18-14.49h0a21.81,21.81,0,0,0-2.14-.45s-2.26-.51-4.45-.93c-1.41-.27-2.88-.62-4.13-.86C87.67,68,85.6,79.22,87.45,80.75c1.61,1.33,8.86.47,15.57-.69,6.45-1.12,12.41-2.52,12.41-2.52l0-3.11S108,74.32,102.16,74.34Z"/><path class="cls-12" d="M119.68,99.68s5.71,5.4,7.39,10.17c2.31,6.55,2.66,6.52,3.42,5.58s.32-3.13.19-4.16c-.09-.7-.23-1.4-.35-2.09a43.19,43.19,0,0,1-.63-9.63,3.52,3.52,0,0,0-.33-2.16,1.79,1.79,0,0,0-.45-.46c-1-.77-2.49-.46-3.66-.92a18.89,18.89,0,0,1-3.38-1.8,36.36,36.36,0,0,1-3.95-2.93Z"/><path class="cls-20" d="M123.6,92.93S83.81,67.13,76.21,70.3,67.91,86.1,119,100.83Z"/><path class="cls-21" d="M89.83,148.06a3.64,3.64,0,0,0,4,.45c3.94-2,11.74-6.33,10.21-8.37-2-2.7-19.09,3.82-19.09,3.82Z"/><path class="cls-17" d="M94.89,148s-.93-9.68-7.33-9.52-9.21,10.74-5,12.26S91.93,149.48,94.89,148Z"/><path class="cls-12" d="M143.79,57.26c-1.22.43-2.44.83-3.66,1.21s-2.35.83-3.53,1.3a13.88,13.88,0,0,1-1.78.51l.06.24c1.19,5,4.2,10.74,3.38,10.68a42.49,42.49,0,0,0-5.25.64c-5.93.92-14.64,2.48-14.64,2.48l.55,3.06s6.7.46,13.59.49c6.53,0,13.23-.33,14.55-1.84s.16-9.84-3.11-18.37C143.9,57.52,143.84,57.39,143.79,57.26Z"/><path class="cls-22" d="M134.26,61.46l-.41,17a1.47,1.47,0,0,1-1.41,1.35H102.36a1.48,1.48,0,0,1-1.42-1.36l-.53-17a1.53,1.53,0,0,1,1.42-1.77h31A1.52,1.52,0,0,1,134.26,61.46Z"/><ellipse class="cls-23" cx="117.12" cy="69.75" rx="1.61" ry="1.54"/><path class="cls-24" d="M133.62,80.64v.77c0,.4-.17.72-.37.72H101.83c-.21,0-.37-.32-.37-.72v-.77c0-.4.16-.72.37-.72h31.42C133.45,79.92,133.62,80.24,133.62,80.64Z"/><path class="cls-20" d="M129.4,130.88s18.2-43.79,13.71-50.69-17-5.32-22.3,47.61Z"/><path class="cls-21" d="M124.6,148.61A3.64,3.64,0,0,1,121,147c-2.36-3.75-6.84-11.45-4.48-12.42,3.13-1.28,14.44,13.07,14.44,13.07Z"/><path class="cls-12" d="M121.93,128.2s-1.12,7.34-2.12,9.05,4,6.54,5.27,10.95,3.56,5.74,4,4-1.27-8.5-1.8-11.66a21.66,21.66,0,0,1,1.08-10.08Z"/><path class="cls-17" d="M120.31,145.92s5.77-7.83,11.17-4.42,2.41,13.95-2,13.1S122.06,148.76,120.31,145.92Z"/><path class="cls-11" d="M114.77,26.28l3.35.09a2.29,2.29,0,0,1-1.81,1A1.9,1.9,0,0,1,114.77,26.28Z"/><rect class="cls-9" x="148.88" y="28.3" width="21" height="11.46" rx="5.73"/><polygon class="cls-9" points="151.94 39.33 151.94 43.05 155.51 39.33 151.94 39.33"/><circle class="cls-11" cx="153.71" cy="34.03" r="1.31"/><circle class="cls-11" cx="159.38" cy="34.03" r="1.31"/><circle class="cls-11" cx="165.05" cy="34.03" r="1.31"/><rect class="cls-9" x="67.88" y="11.3" width="21" height="11.46" rx="5.73" transform="translate(156.76 34.06) rotate(180)"/><polygon class="cls-9" points="85.83 22.33 85.83 26.05 82.25 22.33 85.83 22.33"/><circle class="cls-11" cx="84.05" cy="17.03" r="1.31"/><circle class="cls-11" cx="78.38" cy="17.03" r="1.31"/><circle class="cls-11" cx="72.71" cy="17.03" r="1.31"/></g></g></g></svg>