<svg xmlns="http://www.w3.org/2000/svg" viewBox="0 0 122.6 46.6"><defs><style>.cls-1{fill:red;}.cls-2{fill:#fa5;}</style></defs><g id="Layer_2" data-name="Layer 2"><g id="Option_1" data-name="Option 1"><line class="cls-1" x1="76.28" y1="22.5" x2="45.28" y2="22.5"/><path class="cls-2" d="M76.28,23.5h-2a1,1,0,0,1,0-2h2a1,1,0,0,1,0,2Zm-7,0h-2a1,1,0,0,1,0-2h2a1,1,0,0,1,0,2Zm-7,0h-2a1,1,0,0,1,0-2h2a1,1,0,0,1,0,2Zm-7,0h-2a1,1,0,0,1,0-2h2a1,1,0,0,1,0,2Zm-7,0h-2a1,1,0,0,1,0-2h2a1,1,0,0,1,0,2Z"/><path class="cls-2" d="M23.3,10.31a9.2,9.2,0,1,0,9.2,9.19A9.21,9.21,0,0,0,23.3,10.31Zm0,16.51a7.32,7.32,0,1,1,7.31-7.32A7.33,7.33,0,0,1,23.3,26.82Z"/><path class="cls-2" d="M23.3,0A23.3,23.3,0,1,0,46.6,23.3,23.32,23.32,0,0,0,23.3,0Zm0,44.83a21.34,21.34,0,0,1-11-3,11.54,11.54,0,0,1,22.06,0A21.34,21.34,0,0,1,23.3,44.83Zm12.48-4a13.22,13.22,0,0,0-25,0,21.53,21.53,0,1,1,25,0Z"/><path class="cls-2" d="M99.3,10.31a9.2,9.2,0,1,0,9.2,9.19A9.21,9.21,0,0,0,99.3,10.31Zm0,16.51a7.32,7.32,0,1,1,7.31-7.32A7.33,7.33,0,0,1,99.3,26.82Z"/><path class="cls-2" d="M99.3,0a23.3,23.3,0,1,0,23.3,23.3A23.32,23.32,0,0,0,99.3,0Zm0,44.83a21.34,21.34,0,0,1-11-3,11.54,11.54,0,0,1,22.06,0A21.34,21.34,0,0,1,99.3,44.83Zm12.48-4a13.22,13.22,0,0,0-25,0,21.53,21.53,0,1,1,25,0Z"/></g></g></svg>