<?xml version="1.0" encoding="utf-8"?>
<!-- Generator: Adobe Illustrator 25.0.1, SVG Export Plug-In . SVG Version: 6.00 Build 0)  -->
<svg version="1.1" id="Layer_1" xmlns="http://www.w3.org/2000/svg" xmlns:xlink="http://www.w3.org/1999/xlink" x="0px" y="0px"
	 viewBox="0 0 42.1 47.4" style="enable-background:new 0 0 42.1 47.4;" xml:space="preserve">
<style type="text/css">
	.st0{fill:#FFAB4B;}
</style>
<g>
	<path class="st0" d="M11.8,16.4c4.5,0,8.2-3.7,8.2-8.2C20,3.7,16.3,0,11.8,0C7.3,0,3.6,3.7,3.6,8.2C3.6,12.7,7.3,16.4,11.8,16.4z
		 M11.8,1.8c3.6,0,6.4,2.9,6.4,6.4c0,3.6-2.9,6.4-6.4,6.4s-6.4-2.9-6.4-6.4C5.3,4.7,8.2,1.8,11.8,1.8z"/>
	<path class="st0" d="M30.3,25.6c4.5,0,8.2-3.7,8.2-8.2c0-4.5-3.7-8.2-8.2-8.2c-4.5,0-8.2,3.7-8.2,8.2S25.8,25.6,30.3,25.6z
		 M30.3,11c3.6,0,6.4,2.9,6.4,6.4s-2.9,6.4-6.4,6.4c-3.6,0-6.4-2.9-6.4-6.4S26.7,11,30.3,11z"/>
	<path class="st0" d="M30.3,28.4c-2.1,0-4.1,0.6-5.9,1.6l-0.8,0.5l-0.1-0.9c-0.7-5.9-5.7-10.4-11.7-10.4C5.3,19.2,0,24.5,0,31v6.4
		c0,0.4,0.4,0.8,0.8,0.8h17.9l-0.1,0.7c-0.1,0.5-0.1,0.9-0.1,1.4v6.4c0,0.4,0.4,0.8,0.8,0.8h22c0.4,0,0.8-0.4,0.8-0.8v-6.4
		C42.1,33.7,36.8,28.4,30.3,28.4z M19.2,36.2l-0.1,0.4H1.6V31c0-5.6,4.6-10.2,10.2-10.2S22,25.4,22,31v0.9L21.8,32
		C20.7,33.2,19.8,34.6,19.2,36.2z M40.5,45.8H20.1v-5.6c0-5.6,4.6-10.2,10.2-10.2c5.6,0,10.2,4.6,10.2,10.2V45.8z"/>
</g>
</svg>
