<svg xmlns="http://www.w3.org/2000/svg" viewBox="0 0 259.35 192.66"><defs><style>.cls-1{isolation:isolate;}.cls-2,.cls-3{fill:#eaeaea;mix-blend-mode:multiply;}.cls-2{opacity:0.7;}.cls-4{fill:#fff;}.cls-10,.cls-15,.cls-18,.cls-22,.cls-24,.cls-25,.cls-5,.cls-7,.cls-8,.cls-9{fill:none;}.cls-5{stroke:#e8e8e8;}.cls-10,.cls-15,.cls-18,.cls-25,.cls-5{stroke-miterlimit:10;}.cls-6{fill:#fa5;}.cls-7{stroke:#c2c2c2;stroke-width:0.98px;}.cls-22,.cls-24,.cls-7,.cls-8,.cls-9{stroke-linecap:round;stroke-linejoin:round;}.cls-8{stroke:#fff;stroke-width:1.22px;}.cls-22,.cls-24,.cls-9{stroke:#1b182b;}.cls-9{stroke-width:5.46px;}.cls-10{stroke:#363638;stroke-width:1.88px;}.cls-11{fill:#fdbc9c;}.cls-12{fill:#147dda;}.cls-13{fill:#1788fa;}.cls-14{fill:#1eb1fb;}.cls-15{stroke:#54382d;stroke-width:0.84px;}.cls-16{fill:#fdc8bd;}.cls-17{fill:#fc9086;}.cls-18{stroke:#fc6d67;stroke-width:0.73px;}.cls-19{fill:#934c56;}.cls-20{fill:#fcb0a8;}.cls-21{fill:#1b182b;}.cls-22{stroke-width:0.56px;}.cls-23{fill:#783742;}.cls-24{stroke-width:0.71px;}.cls-25{stroke:#54382f;stroke-width:1.15px;}</style></defs><g class="cls-1"><g id="Layer_2" data-name="Layer 2"><g id="Option_1" data-name="Option 1"><path class="cls-2" d="M135.59,192.59c-73.3,1.49-105.75-21.46-105.75-21.46s-48.41-23.78-21.91-89C29,30.14,107.43-13.59,146.71,3.93S183,44.66,226.36,77.3s34.07,59.44,26.69,73.06C253.05,150.36,230,190.68,135.59,192.59Z"/><ellipse class="cls-3" cx="171.37" cy="184.52" rx="73.65" ry="5.63"/><rect class="cls-4" x="26.4" y="12.36" width="116.09" height="82.62" rx="2.36"/><line class="cls-5" x1="26.7" y1="39.98" x2="142.39" y2="39.98"/><line class="cls-5" x1="26.7" y1="65.82" x2="142.39" y2="65.82"/><circle class="cls-6" cx="45.73" cy="28" r="7.02"/><circle class="cls-6" cx="45.73" cy="52.83" r="7.02" transform="translate(-15.95 85.68) rotate(-77.16)"/><circle class="cls-6" cx="45.73" cy="78.6" r="7.02"/><line class="cls-7" x1="57" y1="24.96" x2="119.79" y2="24.96"/><line class="cls-7" x1="57" y1="29.88" x2="66.31" y2="29.88"/><line class="cls-7" x1="57" y1="50.05" x2="119.79" y2="50.05"/><line class="cls-7" x1="57" y1="54.97" x2="90.28" y2="54.97"/><line class="cls-7" x1="57" y1="76.08" x2="70.72" y2="76.08"/><line class="cls-7" x1="57" y1="81" x2="119.79" y2="81"/><polyline class="cls-8" points="42.91 28.74 44.9 30.1 48.54 25.91"/><polyline class="cls-8" points="42.91 53.51 44.9 54.87 48.54 50.68"/><polyline class="cls-8" points="42.91 79.34 44.9 80.7 48.54 76.5"/><path class="cls-6" d="M189.62,29.65h17.13a4.14,4.14,0,0,0,4.14-4.15h0a4.14,4.14,0,0,0-4.14-4.14H189.62a4.15,4.15,0,0,0-4.15,4.14h0A4.15,4.15,0,0,0,189.62,29.65Z"/><path class="cls-4" d="M201.82,25.51a1.11,1.11,0,1,0,2.21,0,1.11,1.11,0,0,0-2.21,0Z"/><path class="cls-4" d="M197.08,25.5a1.11,1.11,0,1,0,1.11-1.1A1.11,1.11,0,0,0,197.08,25.5Z"/><path class="cls-4" d="M192.34,25.49a1.11,1.11,0,0,0,2.21,0,1.11,1.11,0,1,0-2.21,0Z"/><path class="cls-9" d="M181.22,136.31h21.6c12.14,0,20.63-7.83,22.65-19.8l5.36-31.82"/><path class="cls-10" d="M181.46,183.15l9.7-44.93a11.25,11.25,0,0,1,11-8.83h0a11.25,11.25,0,0,1,11,9L222,183.15"/><polygon class="cls-11" points="138.09 176.7 143.1 160.8 151.06 160.37 146.07 177.44 138.39 177.49 138.09 176.7"/><path d="M147.18,174.14s-6.59,2.71-9.68-1.56l-13.56,8.24,25.28-.16Z"/><rect class="cls-4" x="123.95" y="180.74" width="25.28" height="2.33" transform="translate(-1.17 0.88) rotate(-0.37)"/><path class="cls-4" d="M137.67,176.18a.43.43,0,0,1-.19-.14,9.38,9.38,0,0,0-2.08-2,.42.42,0,0,1-.13-.59.48.48,0,0,1,.62-.12,10.09,10.09,0,0,1,2.32,2.24.42.42,0,0,1-.1.6A.46.46,0,0,1,137.67,176.18Z"/><path class="cls-4" d="M135.49,177.27a.4.4,0,0,1-.18-.14,9.53,9.53,0,0,0-2.09-2,.41.41,0,0,1-.12-.59.48.48,0,0,1,.62-.12,10.13,10.13,0,0,1,2.31,2.24.42.42,0,0,1-.1.6A.46.46,0,0,1,135.49,177.27Z"/><path class="cls-4" d="M133.32,178.36a.45.45,0,0,1-.19-.14,9.1,9.1,0,0,0-2.08-2,.42.42,0,0,1-.13-.59.46.46,0,0,1,.62-.12,9.7,9.7,0,0,1,2.31,2.24.4.4,0,0,1-.1.59A.42.42,0,0,1,133.32,178.36Z"/><path class="cls-12" d="M166.15,114.73l-6.92.44a11.48,11.48,0,0,0-10.34,8.38L138,165.33l15-1.4,12.12-36.7Z"/><polygon class="cls-13" points="154.25 167.28 136.09 167.28 137.35 160.59 155.5 160.59 154.25 167.28"/><polygon class="cls-11" points="167.13 176.7 167.36 161.01 175.32 160.59 175.1 177.44 167.42 177.49 167.13 176.7"/><path d="M176.22,174.14s-6.59,2.71-9.68-1.56L153,180.82l25.28-.16Z"/><rect class="cls-4" x="152.98" y="180.74" width="25.28" height="2.33" transform="translate(-1.17 1.07) rotate(-0.37)"/><path class="cls-4" d="M166.7,176.18a.4.4,0,0,1-.18-.14,9.53,9.53,0,0,0-2.09-2,.41.41,0,0,1-.12-.59.48.48,0,0,1,.62-.12,10.17,10.17,0,0,1,2.31,2.24.42.42,0,0,1-.1.6A.46.46,0,0,1,166.7,176.18Z"/><path class="cls-4" d="M164.53,177.27a.38.38,0,0,1-.19-.14,9.38,9.38,0,0,0-2.08-2,.42.42,0,0,1-.13-.59.48.48,0,0,1,.62-.12,9.7,9.7,0,0,1,2.31,2.24.42.42,0,0,1-.1.6A.44.44,0,0,1,164.53,177.27Z"/><path class="cls-4" d="M162.35,178.36a.42.42,0,0,1-.18-.14,9.24,9.24,0,0,0-2.09-2,.41.41,0,0,1-.12-.59.46.46,0,0,1,.62-.12,10.13,10.13,0,0,1,2.31,2.24.41.41,0,0,1-.1.59A.44.44,0,0,1,162.35,178.36Z"/><path class="cls-13" d="M208.73,114l-21.66.86-16.17.33c-4.72,0-8.56,2.85-8.63,7.57-.22,14.51.9,44.66,1.58,44.53.93-.19,14.18,0,14.18,0l1.35-32.95,10.39,1.13c2.56,0,10,.5,12.32-.65C206.82,132.41,212.85,126.8,208.73,114Z"/><rect class="cls-14" x="161.43" y="160.58" width="18.15" height="6.69"/><line class="cls-15" x1="179.38" y1="134.33" x2="179.13" y2="126.95"/><path class="cls-16" d="M145.9,88.25l-8.71-4.35s-7.1-.53-11.41.41a.82.82,0,0,0-.63,1h0a.81.81,0,0,0,.88.62l4-.44-2.14,1.46a.92.92,0,0,0,.11,1.58h0a.9.9,0,0,0,.83,0c1.19-.66,4.94-2.38,8.59-.32L134,89.71a1.07,1.07,0,0,0-.35,1.71h0a1.11,1.11,0,0,0,.94.35l3.17-.42a9.78,9.78,0,0,0,7.18-.13Z"/><path class="cls-17" d="M174.31,77c-2.76,6.75-6.7,20.2-6.7,20.2L145.82,86.94l-2.88,7.47L161.42,107l20.22-.84,1.5-15.81Z"/><path class="cls-17" d="M177.94,72.59A11.19,11.19,0,0,0,174.31,77L173,114.73s23.15,4.87,35.73-.74c0,0-.35-31.6-7.52-40,0,0-2.25-4.44-13.74-4.46A15.77,15.77,0,0,0,177.94,72.59Z"/><line class="cls-18" x1="175.91" y1="83.75" x2="177.58" y2="110.24"/><path class="cls-16" d="M153.51,105.63l-.31-6.5s-2.34-4.87-4.46-4.94a6.89,6.89,0,0,0-4.57,2.12,1,1,0,0,0,.27,1.63,9.42,9.42,0,0,1,3.34,2.56s-1,5.25.71,7.41c.88,1.1,6.08,2.33,6.08,2.33Z"/><path class="cls-17" d="M188.88,75.82l-4.17,26.45-31.38,1.36v11.1l33.74-.82a3.65,3.65,0,0,0,3-1.06l.34.16s9.14.16,11.71-31.05Z"/><polyline class="cls-18" points="156.25 103.5 184.72 102.22 188.1 80.76"/><line class="cls-18" x1="184.72" y1="102.22" x2="189.06" y2="103.5"/><path class="cls-18" d="M201.45,90.31l-3.16,14.13a16.88,16.88,0,0,1-5.49,9.12l-1.42,1.12"/><path class="cls-19" d="M172.28,45.39s.79,3.73,0,6-3.27,3.34-2.15,9.28-.08,6.07-.35,7.75c0,0,23.85,2.25,35.79-3.88l-4.26-7.31c-2.24-3.84-3.08-10.16-3.08-10.16l-9.14-3.5Z"/><path class="cls-19" d="M177.94,41c-.27-.08.79-1.65,1.06-1.74,4.25-1.35,13.31-3.15,17.93,4.31,3.38,5.47,0,15.78-7.14,18.89-6.78,3-5.63-19.51-5.63-19.51Z"/><path class="cls-20" d="M179.68,54.94A3.36,3.36,0,1,1,175.94,52,3.37,3.37,0,0,1,179.68,54.94Z"/><path class="cls-16" d="M180.84,63.93l.83,7.28c.28,2.56,2,3.76,4.53,3.45h0c2.15-.25,4-1.61,4.05-3.77l-1.86-11.41Z"/><path class="cls-21" d="M181.35,68.43c5.11-.44,7.74-7.75,7.74-7.75l-8.35,2.5Z"/><path class="cls-16" d="M183.12,65h0c-4.32.23-8.06-3-8.36-6.52l-.67-8.3a8.21,8.21,0,0,1,7.19-8.87h0c4.51-.54,9.38,2.58,9.92,7.08l.47,6.69A9,9,0,0,1,183.12,65Z"/><path class="cls-19" d="M187.68,47.32c-2.05,3.06,1.29,7.41,1.29,7.41l6.33-7.65S188.89,45.51,187.68,47.32Z"/><path class="cls-16" d="M195.66,53.92A3.37,3.37,0,1,1,191.91,51,3.38,3.38,0,0,1,195.66,53.92Z"/><path class="cls-22" d="M191.27,55.46S191,53,193.34,53.14"/><polyline class="cls-22" points="178.86 57.23 178.79 58.22 179.77 58.22"/><path class="cls-23" d="M183.72,51.17s-1.87-.07-1.86.53c0,0,0,.4,1.65.44s2.05-.06,2.18-.45S184.6,51.15,183.72,51.17Z"/><path class="cls-23" d="M176.25,51.41s1.54-.16,1.69.4c0,0,.09.38-1.26.5s-1.79,0-1.93-.31S175.52,51.44,176.25,51.41Z"/><path class="cls-24" d="M182,55.1s.83-1.2,2.38,0"/><path class="cls-24" d="M175.59,55.34a1,1,0,0,1,1.77-.08"/><path class="cls-24" d="M180.41,60a2.41,2.41,0,0,0,2.31-1"/><path class="cls-19" d="M179,39.24s-9.22,3.33-7.31,6.8c1.42,2.57,10.7,4.17,19.51,2.35,0,0,4-3.27-.95-6.65C190.25,41.74,187.57,38,179,39.24Z"/><path class="cls-16" d="M179.13,71.79a17.41,17.41,0,0,1,6.5-2.23,34.46,34.46,0,0,1,8.5.63s-.26,4.11-8,5a11.78,11.78,0,0,1-4.58-.28C180,74.51,179.67,73.48,179.13,71.79Z"/><path class="cls-6" d="M153.08,112.89H126.66v-3h26.42a1.49,1.49,0,0,1,1.49,1.49h0A1.49,1.49,0,0,1,153.08,112.89Z"/><path class="cls-6" d="M130.13,112.89H92.2a4.49,4.49,0,0,1-4.33-3.28L80.39,82.73a1.55,1.55,0,0,1,1.49-2h38.38a1.85,1.85,0,0,1,1.79,1.38Z"/><path class="cls-4" d="M106.6,97.45a3.31,3.31,0,1,1-3.31-3.32A3.31,3.31,0,0,1,106.6,97.45Z"/><line class="cls-25" x1="120.33" y1="116.43" x2="120.33" y2="183.15"/><rect class="cls-4" x="62.57" y="112.89" width="112.71" height="7.08"/></g></g></g></svg>