<svg xmlns="http://www.w3.org/2000/svg" viewBox="0 0 19 19"><defs><style>.cls-1{fill:#fa5;}</style></defs><g id="Layer_2" data-name="Layer 2"><g id="Option_1" data-name="Option 1"><path class="cls-1" d="M13,5.61a.38.38,0,0,0-.28.12L4.93,13.52a.38.38,0,0,0,0,.55.36.36,0,0,0,.27.12.39.39,0,0,0,.28-.12l7.79-7.79a.39.39,0,0,0,0-.55h0A.36.36,0,0,0,13,5.61Z"/><path class="cls-1" d="M19,18.49l-1.6-4.81a.38.38,0,0,0-.09-.15h0l-4-4,5.63-5.63a.39.39,0,0,0,0-.55L15.68.11A.41.41,0,0,0,15.4,0h0a.39.39,0,0,0-.27.11L9.5,5.74,3.87.11A.39.39,0,0,0,3.6,0a.41.41,0,0,0-.28.11L.11,3.32a.39.39,0,0,0,0,.55L5.74,9.5l-4,4a.38.38,0,0,0-.09.15L0,18.49a.4.4,0,0,0,.09.4.4.4,0,0,0,.4.09l4.81-1.6a.54.54,0,0,0,.16-.1l4-4,4,4a.54.54,0,0,0,.16.1L18.49,19a.38.38,0,0,0,.49-.49ZM15.4.94,18.06,3.6,16.21,5.45,13.55,2.79ZM.94,3.6,3.6.94,5.45,2.79,2.79,5.45ZM3.34,6,6,3.34,9,6.29l-1,1.06L6.28,5.73A.38.38,0,0,0,6,5.61a.36.36,0,0,0-.27.12.39.39,0,0,0,0,.55L7.35,7.9,6.29,9ZM1,18l1.16-3.48,2.32,2.32Zm4.2-1.54L2.54,13.8l.13-.13L13,3.34,15.66,6l-.13.13Zm4.85-3.75,2.66-2.66,3.75,3.75L13.8,16.46Zm4.47,4.13,2.32-2.32L18,18Z"/></g></g></svg>