<svg xmlns="http://www.w3.org/2000/svg" viewBox="0 0 27.56 19.22"><defs><style>.cls-1{fill:#fa5;}</style></defs><g id="Layer_2" data-name="Layer 2"><g id="Option_1" data-name="Option 1"><path class="cls-1" d="M6.52,7.94h0a3.61,3.61,0,1,0,3.61,3.61A3.61,3.61,0,0,0,6.52,7.94Zm0,6.19A2.58,2.58,0,1,1,9.1,11.56,2.57,2.57,0,0,1,6.52,14.13Z"/><path class="cls-1" d="M27.49,10.48c-.14-.64-.86-1.17-2.15-1.55a15.24,15.24,0,0,0-4-.57h-.14V8.21L21.07,2C20.87,1.42,20.16.94,19,.58A16,16,0,0,0,14.41,0a15.57,15.57,0,0,0-4.5.58c-1,.3-2.13.85-2.13,1.78a.81.81,0,0,0,0,.16v0l.07,2.63-.19,0A6.23,6.23,0,0,0,6.52,5a6.52,6.52,0,1,0,4.08,11.6l.06-.05.07,0a16.46,16.46,0,0,0,3.46.37h.12l0,.11c.15.65.92,1.2,2.22,1.58a16.54,16.54,0,0,0,4.38.54,15.74,15.74,0,0,0,4.5-.59c1-.29,2.13-.85,2.13-1.79ZM8.82,2.13a3.32,3.32,0,0,1,1.35-.66h0A14.9,14.9,0,0,1,14.4.93a15.2,15.2,0,0,1,4.27.54A4,4,0,0,1,20,2a.49.49,0,0,1,.19.4.62.62,0,0,1-.12.19,3.64,3.64,0,0,1-1.35.64,15.73,15.73,0,0,1-4.27.54,15.3,15.3,0,0,1-4.09-.5A3.43,3.43,0,0,1,8.82,2.6.36.36,0,0,1,8.82,2.13ZM20.29,3.58V5.41L20,5.7h0a3.77,3.77,0,0,1-1.33.62,15.2,15.2,0,0,1-4.27.54,15.79,15.79,0,0,1-3.78-.41h-.05l0,0a6.58,6.58,0,0,0-1.65-.94l-.1,0,0-1.76L9,3.78a6.46,6.46,0,0,0,1.08.41,16.51,16.51,0,0,0,4.36.53A16.37,16.37,0,0,0,19,4.14a4.73,4.73,0,0,0,1.12-.44Zm-10,12.11h0a5.58,5.58,0,0,1-3.76,1.46H6.25a5.6,5.6,0,0,1-3.5-9.73A5.6,5.6,0,0,1,6.52,6a5.51,5.51,0,0,1,1.65.25,5.43,5.43,0,0,1,2,1.11A5.6,5.6,0,0,1,12,10.43a6.27,6.27,0,0,1,.11,1.13A5.52,5.52,0,0,1,10.28,15.69Zm3.85.37a16,16,0,0,1-2.42-.21l-.25,0,.16-.2a6.47,6.47,0,0,0,1-1.67l0-.1h.12c.48,0,.93.06,1.36.06h.16v.15a.41.41,0,0,0,0,.11h0l0,1.88ZM13,11V10.8l.17,0,.89,0h.12l0,.12s0,0,0,0h0v0l0,1.92h-.16c-.35,0-.7,0-1,0h-.17l0-.17A6.28,6.28,0,0,0,13,11.55Q13,11.3,13,11Zm1.52-1.1,0,0H14.4c-.5,0-1,0-1.48-.06h-.11l0-.1a6.15,6.15,0,0,0-.88-1.87l-.18-.28.33,0a18.78,18.78,0,0,0,2.35.15,16.37,16.37,0,0,0,4.54-.58,6,6,0,0,0,1.12-.45l.22-.12V8.36h-.14a15,15,0,0,0-3.63.51A4.23,4.23,0,0,0,14.53,9.88Zm.62.92s0-.06,0-.09l0-.07,0-.06a2.92,2.92,0,0,1,1.62-.81,15.54,15.54,0,0,1,4-.47h0a15.39,15.39,0,0,1,4.27.53c1.2.36,1.46.72,1.5.82l0,.07,0,.06c0,.08-.27.47-1.56.85a15.3,15.3,0,0,1-4.22.52,15.72,15.72,0,0,1-4-.46c-1.18-.32-1.55-.67-1.65-.81l0,0Zm11.49,6.07h0c0,.08-.2.47-1.47.86a14.69,14.69,0,0,1-4.24.55,15.14,15.14,0,0,1-4.21-.53c-1.08-.33-1.48-.72-1.48-.9l0-1.73.22.1a7.1,7.1,0,0,0,1.27.45,16.92,16.92,0,0,0,4.11.46,16.3,16.3,0,0,0,4.52-.57,5.06,5.06,0,0,0,1.08-.44l.23-.13Zm0-3.24a.42.42,0,0,0,0,.15v0c0,.08-.22.47-1.5.86a15.52,15.52,0,0,1-4.26.53,16,16,0,0,1-3.73-.4,4.44,4.44,0,0,1-1.84-.8l0,0V13.9l0-1.86.22.11a13.45,13.45,0,0,0,5.42.93,16.46,16.46,0,0,0,4.48-.56,5.55,5.55,0,0,0,1.13-.45l.22-.11v1.52A1.55,1.55,0,0,1,26.61,13.63Z"/></g></g></svg>