<svg xmlns="http://www.w3.org/2000/svg" viewBox="0 0 71.23 66.4"><defs><style>.cls-1{fill:#fa5;}</style></defs><g id="Layer_2" data-name="Layer 2"><g id="Option_1" data-name="Option 1"><path class="cls-1" d="M18.35,29.72a4.59,4.59,0,1,0-4.59-4.59A4.59,4.59,0,0,0,18.35,29.72Zm-2.44-4.59a2.44,2.44,0,1,1,2.44,2.44A2.43,2.43,0,0,1,15.91,25.13Z"/><path class="cls-1" d="M6.83,29.72a4.59,4.59,0,1,0-4.58-4.59A4.6,4.6,0,0,0,6.83,29.72ZM4.4,25.13a2.44,2.44,0,1,1,2.43,2.44A2.43,2.43,0,0,1,4.4,25.13Z"/><path class="cls-1" d="M29.86,29.72a4.59,4.59,0,1,0-4.59-4.59A4.59,4.59,0,0,0,29.86,29.72Zm-2.44-4.59a2.44,2.44,0,1,1,2.44,2.44A2.44,2.44,0,0,1,27.42,25.13Z"/><path class="cls-1" d="M52.89,29.72a4.59,4.59,0,1,0-4.59-4.59A4.59,4.59,0,0,0,52.89,29.72Zm-2.44-4.59a2.44,2.44,0,1,1,2.44,2.44A2.43,2.43,0,0,1,50.45,25.13Z"/><path class="cls-1" d="M41.37,29.72a4.59,4.59,0,1,0-4.58-4.59A4.6,4.6,0,0,0,41.37,29.72Zm-2.43-4.59a2.44,2.44,0,1,1,2.43,2.44A2.43,2.43,0,0,1,38.94,25.13Z"/><path class="cls-1" d="M64.4,29.72a4.59,4.59,0,1,0-4.58-4.59A4.6,4.6,0,0,0,64.4,29.72ZM62,25.13a2.44,2.44,0,1,1,2.43,2.44A2.43,2.43,0,0,1,62,25.13Z"/><path class="cls-1" d="M69.2,33a6.86,6.86,0,0,0-4.8-2,7,7,0,0,0-5.76,3.12,6.87,6.87,0,0,0-11.51,0A7,7,0,0,0,41.37,31a6.88,6.88,0,0,0-4.8,2,7.42,7.42,0,0,0-1,1.16,7,7,0,0,0-1-1.16,6.86,6.86,0,0,0-4.8-2,7,7,0,0,0-5.76,3.12,6.87,6.87,0,0,0-11.51,0A7,7,0,0,0,6.83,31,6.86,6.86,0,0,0,2,33a6.55,6.55,0,0,0-2,4.74v3.22A1.07,1.07,0,0,0,1.07,42H70.16a1.07,1.07,0,0,0,1.07-1.08V37.69A6.55,6.55,0,0,0,69.2,33Zm-.12,4.74v2.15H59.72V37.69a4.68,4.68,0,0,1,9.36,0Zm-11.51,0v2.15H48.2V37.69a4.69,4.69,0,0,1,9.37,0ZM2.15,39.84V37.69a4.68,4.68,0,0,1,9.36,0v2.15Zm11.51,0V37.69a4.69,4.69,0,0,1,9.37,0v2.15Zm23-2.15a4.69,4.69,0,0,1,9.37,0v2.15H36.69ZM25.18,39.84V37.69a4.68,4.68,0,0,1,9.36,0v2.15Z"/><path class="cls-1" d="M22.93,49.54a4.59,4.59,0,1,0-4.58,4.59A4.59,4.59,0,0,0,22.93,49.54Zm-2.15,0a2.44,2.44,0,1,1-2.43-2.43A2.43,2.43,0,0,1,20.78,49.54Z"/><path class="cls-1" d="M11.42,49.54a4.59,4.59,0,1,0-4.59,4.59A4.59,4.59,0,0,0,11.42,49.54Zm-2.15,0a2.44,2.44,0,1,1-2.44-2.43A2.44,2.44,0,0,1,9.27,49.54Z"/><path class="cls-1" d="M34.44,49.54a4.59,4.59,0,1,0-4.58,4.59A4.58,4.58,0,0,0,34.44,49.54Zm-7,0A2.44,2.44,0,1,1,29.86,52,2.44,2.44,0,0,1,27.42,49.54Z"/><path class="cls-1" d="M57.47,49.54a4.59,4.59,0,1,0-4.58,4.59A4.58,4.58,0,0,0,57.47,49.54Zm-7,0A2.44,2.44,0,1,1,52.89,52,2.43,2.43,0,0,1,50.45,49.54Z"/><path class="cls-1" d="M46,49.54a4.59,4.59,0,1,0-4.59,4.59A4.59,4.59,0,0,0,46,49.54Zm-7,0A2.44,2.44,0,1,1,41.37,52,2.43,2.43,0,0,1,38.94,49.54Z"/><path class="cls-1" d="M69,49.54a4.59,4.59,0,1,0-4.59,4.59A4.59,4.59,0,0,0,69,49.54Zm-2.15,0a2.44,2.44,0,1,1-2.44-2.43A2.44,2.44,0,0,1,66.84,49.54Z"/><path class="cls-1" d="M64.4,55.4a7,7,0,0,0-5.76,3.12,6.87,6.87,0,0,0-11.51,0,7,7,0,0,0-5.76-3.12,6.88,6.88,0,0,0-4.8,2,7,7,0,0,0-1,1.16,6.58,6.58,0,0,0-1-1.16,6.86,6.86,0,0,0-4.8-2,7,7,0,0,0-5.76,3.12,6.87,6.87,0,0,0-11.51,0A7,7,0,0,0,6.83,55.4a6.86,6.86,0,0,0-4.8,2,6.55,6.55,0,0,0-2,4.73v3.23A1.07,1.07,0,0,0,1.07,66.4H70.16a1.07,1.07,0,0,0,1.07-1.08V62.09a6.55,6.55,0,0,0-2-4.73A6.86,6.86,0,0,0,64.4,55.4Zm4.68,6.69v2.16H59.72V62.09a4.68,4.68,0,0,1,9.36,0Zm-11.51,0v2.16H48.2V62.09a4.69,4.69,0,0,1,9.37,0ZM2.15,64.25V62.09a4.68,4.68,0,0,1,9.36,0v2.16Zm11.51,0V62.09a4.69,4.69,0,0,1,9.37,0v2.16Zm23-2.16a4.69,4.69,0,0,1,9.37,0v2.16H36.69ZM25.18,64.25V62.09a4.68,4.68,0,0,1,9.36,0v2.16Z"/><path class="cls-1" d="M21.76,0H10.92A3.75,3.75,0,0,0,7.18,3.74v7.94a3.72,3.72,0,0,0,3.16,3.7l-.51,2.87a1.35,1.35,0,0,0,2.27,1.23l4.27-4.05h5.39a3.75,3.75,0,0,0,3.74-3.75V3.74A3.76,3.76,0,0,0,21.76,0ZM12.59,15a1.41,1.41,0,0,0-.31-1.18,1.43,1.43,0,0,0-1.11-.52h-.25a1.6,1.6,0,0,1-1.6-1.6V3.74a1.6,1.6,0,0,1,1.6-1.6H21.76a1.6,1.6,0,0,1,1.59,1.6v7.94a1.59,1.59,0,0,1-1.59,1.6H16.29a1.89,1.89,0,0,0-1.33.54l-2.6,2.46Z"/><path class="cls-1" d="M59.18,1.1A3.68,3.68,0,0,0,56.54,0H45.7A3.75,3.75,0,0,0,42,3.74v7.94a3.73,3.73,0,0,0,3.17,3.7l-.52,2.87a1.36,1.36,0,0,0,.69,1.44,1.34,1.34,0,0,0,.65.17,1.39,1.39,0,0,0,.94-.38l4.27-4.05h5.38a3.75,3.75,0,0,0,3.74-3.75V3.74A3.68,3.68,0,0,0,59.18,1.1ZM47.38,15a1.45,1.45,0,0,0-.32-1.18,1.41,1.41,0,0,0-1.1-.52H45.7a1.59,1.59,0,0,1-1.59-1.6V3.74a1.6,1.6,0,0,1,1.59-1.6H56.54a1.6,1.6,0,0,1,1.6,1.6v7.94a1.6,1.6,0,0,1-1.6,1.6H51.07a1.91,1.91,0,0,0-1.33.54l-2.6,2.46Z"/><circle class="cls-1" cx="12.63" cy="7.7" r="1.15"/><circle class="cls-1" cx="16.33" cy="7.7" r="1.15"/><circle class="cls-1" cx="20.05" cy="7.7" r="1.15"/><circle class="cls-1" cx="47.41" cy="7.7" r="1.15"/><circle class="cls-1" cx="51.11" cy="7.7" r="1.15"/><circle class="cls-1" cx="54.83" cy="7.7" r="1.15"/></g></g></svg>