<svg xmlns="http://www.w3.org/2000/svg" xmlns:xlink="http://www.w3.org/1999/xlink" viewBox="0 0 221.84 166.51"><defs><style>.cls-1{fill:none;}.cls-2{isolation:isolate;}.cls-12,.cls-3{fill:#75c189;}.cls-11,.cls-3{opacity:0.25;}.cls-4{opacity:0.8;}.cls-5{opacity:0.5;}.cls-6{fill:#ccd3e6;}.cls-7{fill:#eaeaea;mix-blend-mode:multiply;}.cls-8{fill:#fff;}.cls-9{fill:#575759;}.cls-10{fill:#363638;}.cls-13{fill:#fa5;}.cls-14{fill:#1b95f2;}.cls-15{fill:#cfdceb;}.cls-16{clip-path:url(#clip-path);}.cls-17{fill:#75492a;}.cls-18{fill:#fb7564;}.cls-19{fill:#1b1535;}.cls-20{fill:#27346f;}.cls-21{fill:#605848;}.cls-22{fill:#fdf1e3;}.cls-23{fill:#f1d6c0;}.cls-24{fill:#19201e;}.cls-25{fill:#bd4a42;}.cls-26{fill:#2b261e;}.cls-27{fill:#458c56;}.cls-28{fill:#922527;}.cls-29{fill:#561506;}</style><clipPath id="clip-path" transform="translate(0 -7.25)"><path class="cls-1" d="M176.18,2V115.65c0,1.13-.58,2-1.29,2H34.53c-.71,0-1.29-.91-1.29-2V2c0-1.13.58-2,1.29-2H174.89C175.6,0,176.18.91,176.18,2Z"/></clipPath></defs><g class="cls-2"><g id="Layer_2" data-name="Layer 2"><g id="Option_1" data-name="Option 1"><path class="cls-3" d="M125.41,173.73c57.47,1.79,116.88-60,89.6-97.86C193.85,46.53,158,60,132,45.58,84,19,16.25,13.85,3.1,51.7S21.7,134.87,40,150.83C65.79,173.32,125.41,173.73,125.41,173.73Z" transform="translate(0 -7.25)"/><g class="cls-4"><g class="cls-5"><ellipse class="cls-6" cx="184.58" cy="75.73" rx="3.15" ry="3.39"/></g></g><ellipse class="cls-7" cx="109.06" cy="162.29" rx="73.91" ry="3.81"/><path class="cls-6" d="M159.12,158.87H148.87v10.65h12V160.6A1.73,1.73,0,0,0,159.12,158.87Z" transform="translate(0 -7.25)"/><rect class="cls-6" x="94.09" y="128.79" width="35.55" height="22.82"/><path class="cls-8" d="M69,151.62h77.51a10.28,10.28,0,0,1,10.28,10.28v.37a0,0,0,0,1,0,0H58.74a0,0,0,0,1,0,0v-.37A10.28,10.28,0,0,1,69,151.62Z"/><rect class="cls-8" x="89.73" y="128.79" width="35.55" height="22.82"/><polygon class="cls-6" points="89.73 135.8 125.28 132.95 125.29 128.79 89.78 128.79 89.73 135.8"/><rect class="cls-6" x="27.08" y="29.79" width="161.3" height="99" rx="4.75"/><path class="cls-9" d="M188.38,41.79v82.89H173.7V37h9.93A4.75,4.75,0,0,1,188.38,41.79Z" transform="translate(0 -7.25)"/><path class="cls-8" d="M182.34,41.79V131.3a4.75,4.75,0,0,1-4.75,4.75H31.83a4.75,4.75,0,0,1-4.75-4.75V41.79A4.75,4.75,0,0,1,31.83,37H178.07l.19,0,.11,0h.06l.12,0A4.75,4.75,0,0,1,182.34,41.79Z" transform="translate(0 -7.25)"/><path class="cls-10" d="M178.55,37.14l-.12,0h-.06l-.11,0-.19,0H31.83a4.75,4.75,0,0,0-4.75,4.75v82.89H182.34V41.79A4.75,4.75,0,0,0,178.55,37.14Zm-2.37,79.26a1.29,1.29,0,0,1-1.29,1.29H34.53a1.29,1.29,0,0,1-1.29-1.29V44.5a1.3,1.3,0,0,1,1.29-1.3H174.89a1.3,1.3,0,0,1,1.29,1.3Z" transform="translate(0 -7.25)"/><g class="cls-11"><rect class="cls-12" x="33.24" y="35.95" width="142.94" height="74.49" rx="1.29"/></g><path class="cls-8" d="M176.18,44.5v6.78H33.24V44.5a1.3,1.3,0,0,1,1.29-1.3H174.89A1.3,1.3,0,0,1,176.18,44.5Z" transform="translate(0 -7.25)"/><path class="cls-13" d="M165.11,47.13A1.1,1.1,0,1,1,164,46,1.1,1.1,0,0,1,165.11,47.13Z" transform="translate(0 -7.25)"/><circle class="cls-14" cx="167.57" cy="39.88" r="1.1"/><rect class="cls-15" x="45.72" y="38.72" width="113.72" height="2.32" rx="1.02"/><path d="M38.4,47.13v1.08a.19.19,0,0,1-.29.17l-.93-.54-.93-.54a.19.19,0,0,1,0-.34l.93-.53.93-.54a.19.19,0,0,1,.29.17Z" transform="translate(0 -7.25)"/><path d="M40,47.13v1.08a.19.19,0,0,0,.29.17l.93-.54.94-.54a.2.2,0,0,0,0-.34l-.94-.53-.93-.54a.19.19,0,0,0-.29.17Z" transform="translate(0 -7.25)"/><rect class="cls-10" x="178.08" y="77.89" width="2.64" height="0.62" rx="0.28" transform="translate(-2.75 142.51) rotate(-45)"/><rect class="cls-10" x="179.09" y="76.88" width="0.62" height="2.64" rx="0.28" transform="translate(-2.75 142.51) rotate(-45)"/><g class="cls-16"><path class="cls-17" d="M139.16,14.49s4.64-1.45,6.9,2c1.92,2.91,1,4.92,1.86,6.53s2.74,1.6,2.42,4.26,2.51,1.84,2.71,4.54-1.26,3.21.73,4.2,4.15,4.94,2.36,7c-2.58,3-11.17-2.19-16,1s-10.69,2.09-10.53-.47,3.35-4.09,2-5.94-2.42-4.4-1.17-6.79.62-2.09.18-4.61a23.33,23.33,0,0,1,.23-5.47c.22-2.16.27-3,2.24-4.7A6.42,6.42,0,0,1,139.16,14.49Z" transform="translate(0 -7.25)"/><path class="cls-17" d="M110.67,161.43c.88-1.42,8.78-9,8.78-9s1.62,1.27,1.54,2.66,0,8.31,0,9.73h-1l-.6-3.87s-2.18,3.5-3.82,4.69-7.18,1-8.51.81S109.79,162.85,110.67,161.43Z" transform="translate(0 -7.25)"/><path class="cls-18" d="M120.4,149l-1.05,3.11a4,4,0,0,1,0,2.53,18.76,18.76,0,0,1-3.72,5.67c-1.38,1.53-4.34,3.05-5.23,2.66s1.68-3.46,2.44-5a17.74,17.74,0,0,0,1.31-4.48c.26-1.37.43-4.75.43-4.75Z" transform="translate(0 -7.25)"/><path class="cls-17" d="M141.79,151.75a3.47,3.47,0,0,0-1.86,3.25c-.07,2.53,0,9.82,0,9.82h.91l.53-3.08a9.61,9.61,0,0,0,1.58,4.09c1.26,1.6,4,1.66,5.78,1.4s.47-3.59-.27-5.45-2.26-6.31-2.26-6.31Z" transform="translate(0 -7.25)"/><path class="cls-18" d="M142.26,148.13s.06,3.08-.47,3.62a5,5,0,0,0-.73,4.38c.53,2.13.88,5.23,2.13,6.56s4.47,1.37,4.74.31-1.64-5-1.73-7.05-.45-7.53-.45-7.53Z" transform="translate(0 -7.25)"/><path class="cls-19" d="M123.17,84.71c4.49,2.58,15.33,3.91,22.4,1.1,2.6-1,3.05-1.66,2.85-6.32,0-.17,0-.35,0-.52,0-.37,0-.73-.07-1.09,0-.18,0-.36,0-.53,0-.65-.12-1.29-.19-1.9,0-.17,0-.33,0-.5a28,28,0,0,0-.66-3.54c0-.17-.09-.33-.13-.48-.25-.93-.45-1.49-.45-1.49a31,31,0,0,1-3.5.34h-.5a58.08,58.08,0,0,1-15.22-2l-.49-.13-1.17-.33s-.26.46-.63,1.23l-.22.45a24.81,24.81,0,0,0-1.76,5,.64.64,0,0,0,0,.07c0,.16-.07.33-.1.49l0,.1c-.29,1.39-.55,2.84-.74,4.23h0l-.06.53C122,82.5,122,84,123.17,84.71Z" transform="translate(0 -7.25)"/><path class="cls-20" d="M123.17,74.7h0a7.09,7.09,0,0,0,2.4-2.25,4.38,4.38,0,0,0,.28-.42h0a15.77,15.77,0,0,0,1.7-4.2l-.49-.13a14.54,14.54,0,0,1-1.67,4.11c-.08.14-.18.28-.27.42A6.9,6.9,0,0,1,123.32,74a.64.64,0,0,0,0,.07c0,.16-.07.33-.1.49Z" transform="translate(0 -7.25)"/><path class="cls-20" d="M142.81,69.79A14,14,0,0,0,144,74.25c.08.16.15.31.24.46A6.77,6.77,0,0,0,146,76.8a5.56,5.56,0,0,0,2.38,1.08c0-.18,0-.36,0-.53a5.07,5.07,0,0,1-2-.95,6.19,6.19,0,0,1-1.51-1.79c-.09-.15-.17-.3-.25-.46a13.27,13.27,0,0,1-1.18-4.37Z" transform="translate(0 -7.25)"/><path class="cls-21" d="M125.08,69l1.12.47.47.19a33.34,33.34,0,0,0,8.59,2.16l.38,0a47.14,47.14,0,0,0,8.45-.09l.53,0c1-.11,2-.23,2.77-.35,0-.17-.09-.33-.13-.48-.8.12-1.77.24-2.85.35l-.51,0a45.44,45.44,0,0,1-8.59,0,33.13,33.13,0,0,1-8.4-2.1h0l-.47-.19c-.41-.16-.79-.33-1.14-.48Z" transform="translate(0 -7.25)"/><path class="cls-19" d="M124.8,137.14c-1.4,5-2.91,10.49-4,14.51h-7.06l3.85-36.08.07-.61.15-1.37c.29-13,1.93-25.2,4.64-34.66l12,5.6c-.58,14.26-4.71,21.73-7.91,31.19C126.55,115.72,128.53,124.47,124.8,137.14Z" transform="translate(0 -7.25)"/><path class="cls-20" d="M114.15,150a.24.24,0,0,1-.24-.24.24.24,0,0,1,.24-.24l7-.1h0a.24.24,0,0,1,.24.24.23.23,0,0,1-.24.24l-7,.1Z" transform="translate(0 -7.25)"/><path class="cls-20" d="M117.57,115.57a9.15,9.15,0,0,0,1.6.15,7.47,7.47,0,0,0,1.79-.21.3.3,0,1,0-.15-.59,7.55,7.55,0,0,1-3.17,0Z" transform="translate(0 -7.25)"/><path class="cls-20" d="M123.61,136.26c-1,3.93-2.27,9.07-3.37,13.37h-.52c1.11-4.32,2.44-9.52,3.4-13.49,2-8.15,1.34-21.17,1.33-21.3a.28.28,0,0,1,0-.13,79.58,79.58,0,0,0,7.79-26.89.26.26,0,0,1,.27-.24.25.25,0,0,1,.23.27,80.37,80.37,0,0,1-7.81,27C125,115.9,125.54,128.34,123.61,136.26Z" transform="translate(0 -7.25)"/><path class="cls-19" d="M148.25,115.55c0,.71,0,1.42-.07,2.15l-.56,34h-6.7c-.79-4.7-2-11.72-3.09-18.51-2-12,.13-16.65.13-16.65s-2.62-23.74-2.82-29.9l13.28-7.1s3.09,10.65-.15,35.42C148.27,115.12,148.26,115.34,148.25,115.55Z" transform="translate(0 -7.25)"/><path class="cls-20" d="M138.89,127.79c.29,2,2,13.68,3.15,21.84h-.51c-1.2-8.15-2.92-19.81-3.21-21.76-.74-5,.78-11.29,1-11.94l-3.43-28.31a.28.28,0,1,1,.56-.07l3.44,28.37a.34.34,0,0,1,0,.1C139.81,116.09,138.13,122.68,138.89,127.79Z" transform="translate(0 -7.25)"/><path class="cls-20" d="M147.45,149.68h-6.69a.25.25,0,0,1,0-.49h6.69a.25.25,0,1,1,0,.49Z" transform="translate(0 -7.25)"/><path class="cls-20" d="M143.78,115.74a7.47,7.47,0,0,0,1.79.21,9.87,9.87,0,0,0,2.68-.4c0-.21,0-.43,0-.64a8.19,8.19,0,0,1-4.34.24.3.3,0,0,0-.37.22A.31.31,0,0,0,143.78,115.74Z" transform="translate(0 -7.25)"/><path class="cls-20" d="M134,85a.26.26,0,0,1-.28.22h0a.25.25,0,0,1-.22-.28c.11-.93.22-1.89.32-2.85,0-.17,0-.33.05-.5.33-3.13.59-6.21.76-8.39,0-.17,0-.34,0-.51,0-.48.07-.9.1-1.26h.5c0,.36-.06.79-.09,1.27,0,.17,0,.34,0,.51-.18,2.16-.44,5.21-.76,8.32,0,.17,0,.35-.05.52C134.21,83,134.1,84,134,85Z" transform="translate(0 -7.25)"/><path class="cls-20" d="M135.24,81.81a5.49,5.49,0,0,1-.92.2,4.21,4.21,0,0,1-.51,0,2.57,2.57,0,0,1-.48,0,1.7,1.7,0,0,1-.81-.27,1.09,1.09,0,0,1-.43-.88c0-1,.27-5,.48-7.82,0-.18,0-.35,0-.51,0-.46.07-.87.1-1.22l.5,0c0,.35-.06.77-.1,1.23,0,.16,0,.33,0,.51-.21,2.82-.49,6.83-.47,7.78a.54.54,0,0,0,.22.48,1.68,1.68,0,0,0,1,.2,4.18,4.18,0,0,0,.51-.06,4.44,4.44,0,0,0,.72-.16.26.26,0,0,1,.32.17A.25.25,0,0,1,135.24,81.81Z" transform="translate(0 -7.25)"/><path class="cls-22" d="M146.21,67.36l-1.54,6.48c-3.87-.3-8.43-.86-11.87-2.64,0,0-4.59,1.54-6.91.82l1.7-4.66Z" transform="translate(0 -7.25)"/><path class="cls-20" d="M134,42.63l-.26.58-.26.57-.54,1.13c-.35.75-.72,1.49-1.09,2.23l-.56,1.12-.58,1.1c-.38.74-.77,1.47-1.17,2.21s-.81,1.46-1.23,2.19l-.63,1.09L127,55.94c-.44.73-.9,1.45-1.37,2.18s-1,1.45-1.51,2.18c-.27.37-.56.74-.86,1.12s-.63.76-1,1.16l-.29.31c-.1.11-.22.22-.33.32l-.18.17-.2.17-.22.18a.53.53,0,0,1-.11.09l-.13.1-.13.09a.85.85,0,0,1-.14.1l-.32.21-.12.07-.1.06-.2.11-.4.2L119,65A16.67,16.67,0,0,1,116,66a25.48,25.48,0,0,1-2.87.46,32.92,32.92,0,0,1-5.43,0c-.88,0-1.75-.15-2.62-.26l-1.3-.2-.66-.12-.33-.07-.36-.07a3.15,3.15,0,0,1-.3-6.08l1.08-.33h1.08l1.14,0c.76,0,1.52-.08,2.27-.13a40.54,40.54,0,0,0,4.33-.56c.68-.14,1.33-.3,1.93-.48a9.21,9.21,0,0,0,1.55-.63.71.71,0,0,0,.15-.08l.14-.08.07,0,0,0h0l-.07,0s0,0,0,0h0v0l.08-.07.1-.12.12-.13c.17-.2.37-.45.57-.71l.61-.85c.41-.59.82-1.22,1.23-1.86s.81-1.31,1.21-2c.8-1.34,1.6-2.71,2.37-4.1l1.17-2.09,1.16-2.1,2.31-4.2,0,0A4.06,4.06,0,0,1,134,42.63Z" transform="translate(0 -7.25)"/><path class="cls-19" d="M118.12,59.28a.28.28,0,0,0,.15-.08.25.25,0,0,0,0-.35,18.07,18.07,0,0,0-2.09-1.72.24.24,0,0,0-.34.06.25.25,0,0,0,.06.35,17.77,17.77,0,0,1,2,1.67A.22.22,0,0,0,118.12,59.28Z" transform="translate(0 -7.25)"/><path class="cls-19" d="M117.73,57.51a.25.25,0,0,0,.21-.26.25.25,0,0,0-.26-.23,12.89,12.89,0,0,0-1.58.15.24.24,0,0,0-.19.29.25.25,0,0,0,.29.2,11.89,11.89,0,0,1,1.5-.15Z" transform="translate(0 -7.25)"/><path class="cls-20" d="M123.52,72.16c4.45,0,7.13-.61,9.56-2.6,4.55,4.74,15.8,4.92,15.8,4.92a55.5,55.5,0,0,1-1.49-10.06h0a34.75,34.75,0,0,1,.55-4.18c1.11-3.21,2.41-5.51,3.57-8.82.07-.21.15-.43.23-.64l.15-.42c.38-1,.79-2.07,1.21-3.06,1.87-4.34,2.17-9.23-2.31-10.73l-1-.31c-2.12-.67-3.89-1.11-4.38-1.23l-.13,0-9.41.78-.89.07c-1.32.15-2.71.11-3.59.31a20.57,20.57,0,0,0-2,.36c-1.86.55-1.81,3-2.38,6.14l0,.16v0q-.15.8-.36,1.56c-.15.58-.32,1.15-.5,1.7-1.08,3.4-2.39,5-2.17,7.1.21,1.94,2.18,4.59,2.71,5.15l.19.2v0l0,.24c0,.33-.1.72-.17,1.16C125.87,67.86,123.52,72.16,123.52,72.16Z" transform="translate(0 -7.25)"/><path class="cls-19" d="M126.08,58.1a.25.25,0,0,1-.17-.08c-.12-.12-2.84-3-1.89-5.67.26-.73.57-1.47.9-2.26a27.57,27.57,0,0,0,2.38-8.6.24.24,0,0,1,.26-.22.24.24,0,0,1,.22.26,27.54,27.54,0,0,1-2.42,8.74c-.32.78-.62,1.52-.88,2.25-.85,2.36,1.75,5.14,1.78,5.17a.24.24,0,0,1,0,.34A.28.28,0,0,1,126.08,58.1Z" transform="translate(0 -7.25)"/><path class="cls-19" d="M134,47.76a.53.53,0,1,0,.52-.53A.52.52,0,0,0,134,47.76Z" transform="translate(0 -7.25)"/><circle class="cls-19" cx="133.73" cy="45.18" r="0.53"/><circle class="cls-19" cx="133.26" cy="49.94" r="0.53"/><path class="cls-19" d="M132.53,62.08a.53.53,0,1,0,.52-.53A.52.52,0,0,0,132.53,62.08Z" transform="translate(0 -7.25)"/><circle class="cls-19" cx="133.08" cy="59.91" r="0.53"/><path class="cls-19" d="M137,35.77a12.13,12.13,0,0,0-3.47.19l.15,5.37,1.22.26-1,1,1.24,3.6A57.93,57.93,0,0,0,137,35.77Z" transform="translate(0 -7.25)"/><path class="cls-19" d="M145.32,35l3.73,1-4.38,5.83-3.3-.26,1.16,2.52L135.1,46.2s8.6-8.17,9.29-11.12Z" transform="translate(0 -7.25)"/><path class="cls-22" d="M144.67,35.44S142.52,40,135.1,46.2A58.08,58.08,0,0,1,137,36.1S141.36,37.62,144.67,35.44Z" transform="translate(0 -7.25)"/><path class="cls-19" d="M134.06,50c2.45,0,7.43-3.5,7.64-3.65a.2.2,0,0,0,.05-.28.2.2,0,0,0-.28-.05c-.05,0-5.09,3.58-7.41,3.58s-2.71-2.42-2.71-2.45a.2.2,0,1,0-.4.08S131.52,50,134.06,50Z" transform="translate(0 -7.25)"/><path class="cls-18" d="M137,35.77l-.14.76c-.19,2.36,1.53,3.54,4,2.28,1.93-1,3.57-2.46,3.84-3.37Z" transform="translate(0 -7.25)"/><path class="cls-19" d="M140.49,59.88a.21.21,0,0,1-.19.11.19.19,0,0,1-.1,0,12.56,12.56,0,0,0-7.88-1.17,13.42,13.42,0,0,1-5.5.06l0-.24v0l-.19-.2a12.93,12.93,0,0,0,5.57,0,12.65,12.65,0,0,1,8.18,1.22A.21.21,0,0,1,140.49,59.88Z" transform="translate(0 -7.25)"/><path class="cls-17" d="M139.57,15.16s-.51-4.84,4.39-4.1,5.69,7.27.63,8.51S139.57,15.16,139.57,15.16Z" transform="translate(0 -7.25)"/><path class="cls-23" d="M147,18.46l.07,0a.2.2,0,0,0,.11-.27c0-.05-2.3-5.19-7.67-4a.21.21,0,0,0-.15.25.2.2,0,0,0,.25.16c5-1.13,7.1,3.53,7.19,3.73A.22.22,0,0,0,147,18.46Z" transform="translate(0 -7.25)"/><path class="cls-18" d="M136.85,36.53c2.86,3.17,7.72.07,7.82-1.21a19.9,19.9,0,0,1-.93-6.86l-7.24,3,.09.64a27.68,27.68,0,0,1,.28,3.1A10.19,10.19,0,0,1,136.85,36.53Z" transform="translate(0 -7.25)"/><path class="cls-24" d="M136.87,35.18C140.7,34.14,143,30,143,30l-6.44,2A27.68,27.68,0,0,1,136.87,35.18Z" transform="translate(0 -7.25)"/><path class="cls-25" d="M134.63,26.05s-.64-1.79-2.1-1.32-1.31,5.38,1.49,5.11Z" transform="translate(0 -7.25)"/><path class="cls-18" d="M143.87,29c-.7,2-5.73,4.43-7.85,3.52-1.29-.55-2.45-1.7-3.15-4.3v0c0-.15-.08-.3-.11-.45s-.13-.54-.17-.79c0-.06,0-.12,0-.18l-.06-.46a4.87,4.87,0,0,1,0-.51c-.15-2.62-.38-5.57,2-7.27s6.07-2.25,8.28,0a9.67,9.67,0,0,1,1.68,5.8C144.4,28.19,144.38,27.61,143.87,29Z" transform="translate(0 -7.25)"/><path class="cls-22" d="M135.08,28.05a7.68,7.68,0,0,0,3.57-.93s-.19,2-1.6,2.24S135.08,28.05,135.08,28.05Z" transform="translate(0 -7.25)"/><path class="cls-26" d="M137.28,24.86a.17.17,0,0,0,.16-.15s0-.42.28-.51a.57.57,0,0,1,.69.31.17.17,0,0,0,.3-.14.89.89,0,0,0-1.1-.48c-.45.16-.49.77-.5.8a.18.18,0,0,0,.16.17Z" transform="translate(0 -7.25)"/><path class="cls-26" d="M133.92,25.51a.16.16,0,0,0,.16-.15s0-.42.28-.5a.55.55,0,0,1,.69.3.17.17,0,0,0,.22.08.16.16,0,0,0,.07-.22.87.87,0,0,0-1.09-.47c-.45.16-.49.77-.5.79a.17.17,0,0,0,.16.17Z" transform="translate(0 -7.25)"/><path class="cls-24" d="M136.34,27.14h.3a.19.19,0,0,0,.16-.21.18.18,0,0,0-.2-.16,1.07,1.07,0,0,1-.84-.26,8.68,8.68,0,0,0,.87-2.82.19.19,0,0,0-.37-.05,6.93,6.93,0,0,1-.88,2.76.2.2,0,0,0,0,.24A1.5,1.5,0,0,0,136.34,27.14Z" transform="translate(0 -7.25)"/><path class="cls-25" d="M136.85,30.88l-.11,0a.14.14,0,0,1-.12-.17.14.14,0,0,1,.17-.12,1,1,0,0,0,.9-.34.15.15,0,1,1,.23.18A1.25,1.25,0,0,1,136.85,30.88Z" transform="translate(0 -7.25)"/><path class="cls-25" d="M132.86,28.22c0-.15-.08-.3-.11-.45s-.13-.54-.17-.79c0-.06,0-.12,0-.18h.14c1-.06,1.8.2,1.83.6S133.8,28.14,132.86,28.22Z" transform="translate(0 -7.25)"/><path class="cls-25" d="M142.11,26.34c0,.4-.75.77-1.73.84s-1.81-.2-1.84-.6.75-.77,1.74-.84S142.08,25.94,142.11,26.34Z" transform="translate(0 -7.25)"/><path class="cls-17" d="M140.66,18.19s1.31,4.07,2.52,4.86,2.18-1.22,2.18-1.22S142.82,15.61,140.66,18.19Z" transform="translate(0 -7.25)"/><path class="cls-17" d="M135.55,18.42s2.38,3.33,5.31,2.49.91-3.25.91-3.25S136.26,15.5,135.55,18.42Z" transform="translate(0 -7.25)"/><path class="cls-17" d="M136.34,18.12s-1.39,4.4-4.28,3.7,1.09-5.09,3-4.95S136.34,18.12,136.34,18.12Z" transform="translate(0 -7.25)"/><path class="cls-17" d="M137.73,21.72a2,2,0,0,1,1.85.35c.47.39.13.88-.49.57a2.27,2.27,0,0,0-1.19-.3A.32.32,0,0,1,137.73,21.72Z" transform="translate(0 -7.25)"/><path class="cls-17" d="M134.62,22.14a2,2,0,0,0-1.83.45c-.45.42-.08.89.52.55a2.22,2.22,0,0,1,1.17-.37A.32.32,0,0,0,134.62,22.14Z" transform="translate(0 -7.25)"/><path class="cls-18" d="M143.39,24a1.94,1.94,0,0,1,2.38-1c1.58.6,1.14,6-1.92,5.54Z" transform="translate(0 -7.25)"/><path class="cls-17" d="M142.42,21.61s.55.72.52,3.34a10.37,10.37,0,0,1-.31,3.27,8.31,8.31,0,0,0,1.18-5.77C143.14,17.11,142.42,21.61,142.42,21.61Z" transform="translate(0 -7.25)"/><path class="cls-24" d="M144.15,26.44a.16.16,0,0,0,.11.17h0a.16.16,0,0,0,.14-.12,3,3,0,0,1,.45-1l.57.49a.1.1,0,0,0,.1,0,.14.14,0,0,0,.1,0,.15.15,0,0,0,0-.21s-.26-.24-.57-.5a1.74,1.74,0,0,1,.88-.53.15.15,0,0,0,.11-.18.16.16,0,0,0-.18-.11A2.68,2.68,0,0,0,144.15,26.44Z" transform="translate(0 -7.25)"/><path class="cls-18" d="M150.5,67.6s-.41-.15-.93-.3A6.66,6.66,0,0,0,148,67a2.11,2.11,0,0,0-.52.07c0,.67.05,1.34.1,2,0,.12-.15.12-.26.14a5.51,5.51,0,0,1-1.16-.1,6.72,6.72,0,0,0-1.7-.05,7.64,7.64,0,0,0-2.59,1.11c-.54.26.21.92,1.14.76a7.23,7.23,0,0,1,2.08-.1,7.07,7.07,0,0,0-1.85.47c-.29.15-.73.33-1.13.53a4.69,4.69,0,0,0-.55.31c-.29.2-.49.4-.48.61s.58.32,1.24.22l.81-.13.32,0a9.81,9.81,0,0,1,2.18-.23,5.52,5.52,0,0,0-1.41.57,3.15,3.15,0,0,1-.27.19l-.58.41a3.7,3.7,0,0,0-.8.69c-.27.36.75.67,1.68.31a5.91,5.91,0,0,0,.84-.44,3.07,3.07,0,0,1,.68-.34l.08,0a.81.81,0,0,1,.38,0l-.49.38h0l-.05,0c-.17.14-.35.28-.49.42a3,3,0,0,0-.67,1.27c-.06.26,0,.48.13.56s.5-.07.88-.3a6.09,6.09,0,0,1,1.74-.91,41.22,41.22,0,0,0,4.28-.85c1.63-.41,2.46-2.37,2.72-3.12.07-.18.1-.29.1-.29A4.36,4.36,0,0,0,150.5,67.6Z" transform="translate(0 -7.25)"/><path class="cls-20" d="M154.37,39.81l.17.22.17.22.33.43.64.86c.42.57.84,1.15,1.25,1.73L158.14,45l.6.89.59.91c.39.6.77,1.21,1.15,1.83s.76,1.24,1.12,1.88.73,1.28,1.08,2,.69,1.35,1,2.08c0,.1.08.18.13.28l.12.28.12.28.12.3c.07.2.15.39.23.61l.11.32,0,.08,0,0,0,.06a2,2,0,0,0,.08.26,8.1,8.1,0,0,1,.09,4,10.29,10.29,0,0,1-1.2,3,15.06,15.06,0,0,1-1.56,2.2,22.43,22.43,0,0,1-1.7,1.79c-.58.54-1.18,1-1.78,1.53s-1.23.93-1.85,1.36l-1,.62-.49.3L155,72l-.28.16a2.94,2.94,0,0,1-3.8-4.34l.42-.55h0l0,0,0,0,.09-.07.16-.16.35-.33c.23-.22.46-.44.68-.67.46-.45.89-.91,1.32-1.37a23.29,23.29,0,0,0,2.21-2.8,9,9,0,0,0,.71-1.3,2.79,2.79,0,0,0,.26-.94.38.38,0,0,0,0-.16s0,0,0,0h0v0l0-.05-.07-.16-.17-.36a1.51,1.51,0,0,0-.09-.18l-.09-.2-.1-.19-.11-.19c-.28-.53-.59-1.08-.92-1.63s-.67-1.1-1-1.66c-.7-1.11-1.45-2.23-2.2-3.34l-1.15-1.68L150,48.15l-2.32-3.33,0,0a4.19,4.19,0,0,1,6.74-5Z" transform="translate(0 -7.25)"/><path class="cls-19" d="M155.74,71.6h-.07c-3.25-1.1-3.54-5-3.54-5a.22.22,0,0,1,.43,0s.27,3.64,3.25,4.65a.21.21,0,0,1,.13.27A.2.2,0,0,1,155.74,71.6Z" transform="translate(0 -7.25)"/><path class="cls-19" d="M151.69,72a.21.21,0,0,1-.13-.38L153.63,70a.21.21,0,0,1,.3,0,.22.22,0,0,1,0,.3L151.83,72A.24.24,0,0,1,151.69,72Z" transform="translate(0 -7.25)"/><path class="cls-19" d="M151.85,69.27a.35.35,0,0,1-.7,0,.35.35,0,0,1,.7,0Z" transform="translate(0 -7.25)"/><path class="cls-19" d="M159.4,61.39a.29.29,0,0,0,.14-.08.24.24,0,0,0,0-.35,19.09,19.09,0,0,0-2.09-1.72.25.25,0,1,0-.28.41,17.22,17.22,0,0,1,2,1.67A.25.25,0,0,0,159.4,61.39Z" transform="translate(0 -7.25)"/><path class="cls-19" d="M159,59.62a.26.26,0,0,0,.21-.26.25.25,0,0,0-.26-.23,13.16,13.16,0,0,0-1.59.15.25.25,0,0,0-.19.29.26.26,0,0,0,.3.2,11.89,11.89,0,0,1,1.5-.15Z" transform="translate(0 -7.25)"/><path class="cls-19" d="M151.55,50.64a.21.21,0,0,1-.18-.09l-3.44-4.95a.22.22,0,0,1,.36-.24l3.43,5a.21.21,0,0,1-.05.3A.27.27,0,0,1,151.55,50.64Z" transform="translate(0 -7.25)"/><path class="cls-24" d="M53.77,82.76c0,.2.11.41.17.61v0q.12.4.27.78c.9,2.19,7.82,2.51,14.64,1.75,5.28-.59,10.51-1.84,12.8-3.37s-2.43-14.7-2.43-14.7L53.37,73.28A33.44,33.44,0,0,0,53.77,82.76Z" transform="translate(0 -7.25)"/><polygon class="cls-18" points="76.12 146.09 76.77 150.91 82.05 150.91 81.85 145.94 76.12 146.09"/><path class="cls-24" d="M95.1,166.51h-20a2.75,2.75,0,0,1-.26-1.11,32.65,32.65,0,0,1,.68-6.1c0-.2.06-.38.08-.55a5.2,5.2,0,0,0,.06-.69,1,1,0,0,1,1.23-1.15c2,2,4.31-1,5.65,0,0,0,.58.41,2.17,1.84s4.28,2.37,6.58,3.33c3,1.24,3.81,2.48,4,3.34A1.58,1.58,0,0,1,95.1,166.51Z" transform="translate(0 -7.25)"/><path class="cls-21" d="M95.1,166.51h-20a2.75,2.75,0,0,1-.26-1.11H95.26A1.58,1.58,0,0,1,95.1,166.51Z" transform="translate(0 -7.25)"/><path class="cls-21" d="M77.14,166.51h-.59a4.38,4.38,0,0,0,1.07-3.2,5.65,5.65,0,0,0-2.1-4c0-.2.06-.38.08-.55a6.15,6.15,0,0,1,2.5,4.53A4.86,4.86,0,0,1,77.14,166.51Z" transform="translate(0 -7.25)"/><path class="cls-21" d="M84.37,159.91a.33.33,0,0,1-.08-.65l1.25-.31a.33.33,0,0,1,.16.64l-1.25.31Z" transform="translate(0 -7.25)"/><path class="cls-21" d="M85.62,160.64a.33.33,0,0,1-.08-.65l1.25-.31a.33.33,0,0,1,.4.24.34.34,0,0,1-.25.4l-1.24.31Z" transform="translate(0 -7.25)"/><path class="cls-21" d="M86.86,161.33a.32.32,0,0,1-.31-.25.31.31,0,0,1,.24-.39l1.25-.31a.32.32,0,1,1,.15.63l-1.25.32Z" transform="translate(0 -7.25)"/><path class="cls-21" d="M88.23,162a.33.33,0,0,1-.08-.65L89.4,161a.33.33,0,1,1,.16.64l-1.25.31Z" transform="translate(0 -7.25)"/><path class="cls-21" d="M89.7,162.53a.33.33,0,0,1-.08-.65l1.25-.31a.33.33,0,0,1,.4.24.32.32,0,0,1-.24.4l-1.25.31Z" transform="translate(0 -7.25)"/><path class="cls-24" d="M85.06,120.17l-2,30.45-.05.73-.14,2.19-7.61.23s-.1-.91-.25-2.42c0-.23,0-.48-.07-.73-.66-7-2.1-23.39-1.33-28.2L69.35,85.86l-.1-.86L79,80.5l.61-.28,2.48-1.15c0,.2,0,.4.07.6.08.75.16,1.5.23,2.24,0,.23,0,.45.07.67C84,96.72,85,109.7,85.05,119.29c0,.23,0,.45,0,.67Z" transform="translate(0 -7.25)"/><path class="cls-21" d="M83,150.62l-.05.73H75c0-.23,0-.48-.07-.73Z" transform="translate(0 -7.25)"/><path class="cls-21" d="M85.06,120a9.35,9.35,0,0,1-2.19.24,12.47,12.47,0,0,1-2.3-.21.32.32,0,0,1-.25-.38.32.32,0,0,1,.38-.26,11.25,11.25,0,0,0,4.35-.06C85.06,119.51,85.06,119.74,85.06,120Z" transform="translate(0 -7.25)"/><path class="cls-21" d="M76.64,151.35H76c0-.25-.06-.49-.08-.73-2.31-20-.86-28.7-.72-29.47L70.64,86.33a.31.31,0,0,1,.62-.08l4.57,34.87a.21.21,0,0,1,0,.11c0,.08-1.68,8.65.72,29.39Z" transform="translate(0 -7.25)"/><path class="cls-21" d="M76.28,74.8A12.9,12.9,0,0,0,79,80.5a7.25,7.25,0,0,0,1.45,1.24,6,6,0,0,0,1.35.66q.33.1.66.18c0-.22,0-.44-.07-.67l-.31-.09a5.85,5.85,0,0,1-1.29-.61,6.26,6.26,0,0,1-1.18-1,12.47,12.47,0,0,1-2.74-5.54.32.32,0,0,0-.62.12Z" transform="translate(0 -7.25)"/><path class="cls-21" d="M71.73,84.54a.26.26,0,0,1-.25.27h0a.26.26,0,0,1-.28-.24c0-1-.1-1.94-.16-2.91l0-.52c-.21-3.2-.48-6.33-.68-8.55,0-.18,0-.35,0-.52-.05-.48-.09-.92-.12-1.28l.52-.09c0,.37.08.8.12,1.3,0,.16,0,.34,0,.52.2,2.19.46,5.3.67,8.48l0,.52C71.63,82.54,71.68,83.55,71.73,84.54Z" transform="translate(0 -7.25)"/><path class="cls-21" d="M72.49,81.17a7.47,7.47,0,0,1-.93.35l-.52.14a4.26,4.26,0,0,1-.5.06,1.75,1.75,0,0,1-.89-.14,1.07,1.07,0,0,1-.6-.81c-.19-1-.6-5-.87-7.93,0-.18,0-.35-.05-.52,0-.46-.08-.88-.11-1.23l.53-.07c0,.36.07.78.11,1.25,0,.17,0,.34,0,.52.27,2.87.67,6.93.86,7.89a.54.54,0,0,0,.32.44,1.83,1.83,0,0,0,1.12,0l.52-.14a5.85,5.85,0,0,0,.72-.29.28.28,0,0,1,.36.12A.25.25,0,0,1,72.49,81.17Z" transform="translate(0 -7.25)"/><polygon class="cls-18" points="61.99 146.76 62.51 150.91 67.8 150.91 68.11 146.54 61.99 146.76"/><path class="cls-24" d="M68.86,81.72v71.15L68.78,154H60.93c-.09-.55-.3-1.47-.58-2.65-.05-.23-.11-.48-.17-.73-1-4.38-2.72-11.65-3-18-.44-9.21-.32-21.15-.32-21.15-.85-6.51-2.17-20.24-2.9-28.1v0c0-.21,0-.42,0-.61-.3-3.16-.48-5.21-.48-5.21,1.22-.51,3.38-.19,5.72.45l.62.17A71.44,71.44,0,0,1,68.86,81.72Z" transform="translate(0 -7.25)"/><path class="cls-21" d="M68.86,150.62v.73H60.35c-.05-.23-.11-.48-.17-.73Z" transform="translate(0 -7.25)"/><path class="cls-21" d="M68.86,117.81v.67a8.72,8.72,0,0,1-1.89.19,13.89,13.89,0,0,1-3.61-.51.32.32,0,0,1-.22-.4.33.33,0,0,1,.41-.22A12.15,12.15,0,0,0,68.86,117.81Z" transform="translate(0 -7.25)"/><path class="cls-21" d="M61.73,151.35h-.64c0-.23-.09-.47-.14-.73-.7-3.74-1.93-10.43-2.58-14.8-.91-6.24-.49-23.51-.47-24.24-.7-6-2.12-26.35-2.13-26.56a.33.33,0,0,1,.29-.34.32.32,0,0,1,.34.3c0,.21,1.44,20.63,2.14,26.55v0c0,.18-.46,17.87.46,24.15.65,4.41,1.9,11.18,2.6,14.9C61.65,150.88,61.69,151.12,61.73,151.35Z" transform="translate(0 -7.25)"/><path class="cls-24" d="M70,165.23s0,.09,0,.13c0,.22,0,.41,0,.57,0,.36,0,.58,0,.58H58a6.3,6.3,0,0,1,0-1.15A6,6,0,0,1,60.13,161c2.26-1.74,1.39-1.37,1.85-2.17.05-.09.46-1.43.5-1.53.39-.82.74-1.21,2.88-1.21,2.83,0,3.08,1.37,3.38,2.1a15.4,15.4,0,0,1,.47,1.68c.07.3.14.62.21,1,.18.82.34,1.68.45,2.36A13.21,13.21,0,0,1,70,165.23Z" transform="translate(0 -7.25)"/><path class="cls-21" d="M70,165.23s0,.09,0,.13c0,.22,0,.41,0,.57a3.4,3.4,0,0,1-1.24-1.61,6.67,6.67,0,0,1,.45-4.51h0c.07.3.14.62.21,1a5.39,5.39,0,0,0-.14,3.36A2.73,2.73,0,0,0,70,165.23Z" transform="translate(0 -7.25)"/><path class="cls-21" d="M70,165.36a11.37,11.37,0,0,1-.07,1.15H58a6.3,6.3,0,0,1,0-1.15Z" transform="translate(0 -7.25)"/><path class="cls-21" d="M65.75,159.75h-.08a5.82,5.82,0,0,0-2.77-.05.33.33,0,0,1-.41-.24.34.34,0,0,1,.23-.42,6.58,6.58,0,0,1,3.12.05.34.34,0,0,1-.09.67Z" transform="translate(0 -7.25)"/><path class="cls-21" d="M65.24,160.83h-.08a6.07,6.07,0,0,0-2.77-.06.33.33,0,0,1-.41-.24.33.33,0,0,1,.23-.41,6.43,6.43,0,0,1,3.12,0,.33.33,0,0,1,.24.41A.34.34,0,0,1,65.24,160.83Z" transform="translate(0 -7.25)"/><path class="cls-21" d="M64.64,162.05h-.08A6,6,0,0,0,61.8,162a.33.33,0,0,1-.42-.23.34.34,0,0,1,.23-.42,6.58,6.58,0,0,1,3.12,0,.34.34,0,0,1-.09.67Z" transform="translate(0 -7.25)"/><path class="cls-21" d="M53.77,82.76c0,.2.11.41.17.61v0h0a5.18,5.18,0,0,0,3.06-1,8.44,8.44,0,0,0,2.74-4.2,16.3,16.3,0,0,0,.76-3.87.31.31,0,0,0-.3-.33.31.31,0,0,0-.33.3A16.12,16.12,0,0,1,59.13,78a7.81,7.81,0,0,1-2.5,3.86,4.61,4.61,0,0,1-2.74.9Z" transform="translate(0 -7.25)"/><path class="cls-12" d="M85.88,37.85l.31,2,.33,2.06c.22,1.37.46,2.74.72,4.06s.57,2.61.91,3.74c0,.14.09.28.14.41l0,.1v0l0-.06a2.12,2.12,0,0,0-.11-.21,2.37,2.37,0,0,0-.26-.32,1.3,1.3,0,0,0-.19-.15c-.08,0-.06,0,0,0a2.32,2.32,0,0,0,.45.15,9,9,0,0,0,1.51.24c.58,0,1.2.07,1.84.07,1.28,0,2.64-.07,4-.18s2.76-.26,4.16-.43c.7-.08,1.4-.18,2.1-.27l2.07-.27.1,0A3.18,3.18,0,0,1,105.53,55l-.29.1-.28.1-.55.19-1.09.36c-.73.23-1.46.44-2.2.64-1.47.4-3,.75-4.5,1-.77.14-1.54.28-2.33.38s-1.59.2-2.41.26-1.67.08-2.56.06a16.66,16.66,0,0,1-2.85-.3,10.1,10.1,0,0,1-1.65-.46,8.88,8.88,0,0,1-1.92-1,7.77,7.77,0,0,1-1-.86A6.63,6.63,0,0,1,81,54.32a6.7,6.7,0,0,1-.37-.7l-.08-.18,0-.13-.06-.16c-.09-.21-.17-.42-.25-.62q-.45-1.23-.78-2.4c-.22-.79-.41-1.57-.58-2.34-.34-1.55-.6-3.08-.8-4.6-.1-.77-.18-1.53-.26-2.29l-.09-1.16,0-.58v-.29l0-.32a4.17,4.17,0,0,1,8.29-.8Z" transform="translate(0 -7.25)"/><path class="cls-27" d="M86.37,51.77a.32.32,0,0,1-.14,0,.28.28,0,0,1-.1-.37,3.53,3.53,0,0,1,2-1.88.28.28,0,0,1,.32.21.27.27,0,0,1-.21.32,3.11,3.11,0,0,0-1.68,1.62A.28.28,0,0,1,86.37,51.77Z" transform="translate(0 -7.25)"/><path class="cls-27" d="M101.91,56.19a.27.27,0,0,1-.36-.13c-1.87-3.85-.92-6.59-.88-6.7a.28.28,0,0,1,.35-.17.27.27,0,0,1,.16.35h0a8.75,8.75,0,0,0,.86,6.29.27.27,0,0,1-.13.36Z" transform="translate(0 -7.25)"/><path class="cls-27" d="M103.75,50.18h-.06l-2.92.56a.28.28,0,0,1-.32-.22.27.27,0,0,1,.22-.32l2.92-.55a.28.28,0,0,1,.16.52Z" transform="translate(0 -7.25)"/><path class="cls-27" d="M103.06,53.6a.56.56,0,1,1-1.09.22.57.57,0,0,1,.44-.66A.56.56,0,0,1,103.06,53.6Z" transform="translate(0 -7.25)"/><path class="cls-18" d="M104.18,49.22c.24-.44,1.1-.6,1.67-.94a7.78,7.78,0,0,1,2.8-1c1.17-.1,4.63-.19,5.35.48s-2.27,1-2.88,1.05a2.3,2.3,0,0,0-1,.35s6.9-.18,7.41.41-3.41,1.09-4.38,1.2c0,0,5.21.15,5.41.63.41,1-5.37,1-5.37,1s4.37.35,4.29,1.06-4.76.37-4.76.37,2.81.65,3,1.3-5.81-.25-6.71-.5-3.29-.11-4.41-.63C103.87,53.65,103.41,50.61,104.18,49.22Z" transform="translate(0 -7.25)"/><path class="cls-25" d="M111.07,54.22a.19.19,0,0,0,.24-.08,5.52,5.52,0,0,0,.4-4.25.18.18,0,0,0-.24-.12.18.18,0,0,0-.12.24h0a5.26,5.26,0,0,1-.37,3.93.2.2,0,0,0,.07.27Z" transform="translate(0 -7.25)"/><path class="cls-25" d="M106.6,52.27a.2.2,0,0,0,.21,0,3.21,3.21,0,0,1,3.34-1,.2.2,0,0,0,.15-.36h0A3.57,3.57,0,0,0,106.54,52a.19.19,0,0,0,0,.28Z" transform="translate(0 -7.25)"/><path class="cls-12" d="M81.49,75.58c-6.07,4.23-19.11,5.06-28.18-1.1-.65-3.07-.32-13.68-.19-16.84q0-.95.12-1.89a81.43,81.43,0,0,1,1.31-9.16l.09-.51c.51-2.58,1.08-5.24,1.68-8.07,1.17-5.61,3.56-8.82,6.91-8.87A13.51,13.51,0,0,0,67,28.57l.33-.11a9.72,9.72,0,0,0,1.8-.78l7.32,1.05a5.52,5.52,0,0,0,2,2.23l.27.17c2.43,1.5,5.49,1.71,5.66,4.93.11,2-2,5.85-3,14.07-.07.61-.14,1.23-.21,1.88s-.11,1.24-.15,1.9-.08,1.24-.11,1.88,0,1.16-.06,1.75,0,1.25,0,1.9C80.84,62.91,81,71,81.49,75.58Z" transform="translate(0 -7.25)"/><path class="cls-27" d="M81,57.51a.24.24,0,0,1-.21-.24c.14-4.38,1.37-13,1.38-13a.24.24,0,0,1,.27-.2.23.23,0,0,1,.2.27c0,.08-1.24,8.62-1.37,13a.25.25,0,0,1-.25.23Z" transform="translate(0 -7.25)"/><path class="cls-27" d="M68.65,72.29a.56.56,0,1,1-.42-.67A.56.56,0,0,1,68.65,72.29Z" transform="translate(0 -7.25)"/><path class="cls-27" d="M68.35,75a.56.56,0,0,1-.67.42.55.55,0,0,1-.41-.67.56.56,0,0,1,.67-.42A.55.55,0,0,1,68.35,75Z" transform="translate(0 -7.25)"/><path class="cls-27" d="M77.11,47.1A2.3,2.3,0,0,1,75.43,46c-1.19-1.87-.12-5.51-.07-5.66a.23.23,0,0,1,.26-.17l4.87.7a.25.25,0,0,1,.2.24c0,.16,0,4-1.67,5.41A2.31,2.31,0,0,1,77.11,47.1Zm-1.35-6.39c-.21.77-.86,3.62.07,5.08a2,2,0,0,0,2.88.41c1.3-1.14,1.48-4.05,1.5-4.85Z" transform="translate(0 -7.25)"/><path class="cls-24" d="M75.92,9.79s-6.06-2.11-7.28,1.36S69.5,21,67.23,21.76c0,0,1.88,3.25,4.35.45S75.92,9.79,75.92,9.79Z" transform="translate(0 -7.25)"/><path class="cls-24" d="M72,11.29s-.16-4.77,5.49-3.94c4,.57,4.54,6.32,6.43,6.54s-.25,5.29-3,4S72,11.29,72,11.29Z" transform="translate(0 -7.25)"/><path class="cls-18" d="M76.75,27.5l-.27,1.86a5,5,0,0,1-.73.37c-3.5,1.47-6.64-1.43-6.64-1.43L70,21.86l5.91,5Z" transform="translate(0 -7.25)"/><path class="cls-24" d="M76.75,27.45l-.27,1.91a5,5,0,0,1-.73.37,12.45,12.45,0,0,1-4.17-4.66L76,26.83Z" transform="translate(0 -7.25)"/><path class="cls-12" d="M69.4,26.42a3.72,3.72,0,0,0-3.18,2.45c1.8,2.52,3.39,4.7,6.34,5.7l.64-4.45A7.89,7.89,0,0,1,69.4,26.42Z" transform="translate(0 -7.25)"/><path class="cls-12" d="M76.73,28.13A4,4,0,0,1,79,31.41c-2.3,2.1-3.47,2.85-6.44,3.16l.64-4.45S74.8,30.33,76.73,28.13Z" transform="translate(0 -7.25)"/><polygon class="cls-28" points="72.84 55.6 71.14 58.45 71.14 58.45 70.38 59.74 68.23 63.36 67.67 61.76 67.48 61.2 67.03 59.91 66.83 59.35 66.39 58.06 66.19 57.5 65.74 56.22 65.75 56.22 65.55 55.65 65.13 54.45 65.16 54.33 65.38 53.45 65.87 51.46 66.09 50.58 66.59 48.6 66.81 47.72 67.3 45.73 67.52 44.85 68.02 42.87 68.24 41.99 68.73 40 68.95 39.13 69.45 37.14 69.67 36.26 70.16 34.27 70.38 33.4 70.88 31.41 71.1 30.53 71.61 28.48 73.16 28.64 73.16 28.99 73.15 29.71 73.13 31.34 73.12 32.06 73.1 33.69 73.09 34.41 73.07 36.04 73.06 36.76 73.04 38.39 73.03 39.11 73.01 40.75 73.01 41.47 72.99 43.1 72.98 43.82 72.96 45.45 72.95 46.17 72.93 47.8 72.92 48.52 72.9 50.15 72.89 50.87 72.87 52.5 72.87 53.22 72.85 54.85 72.84 55.57 72.84 55.6"/><polygon class="cls-29" points="73.15 29.71 70.88 31.41 71.1 30.53 73.16 28.99 73.15 29.71"/><polygon class="cls-29" points="73.12 32.06 70.16 34.27 70.38 33.4 73.13 31.34 73.12 32.06"/><polygon class="cls-29" points="73.09 34.41 69.45 37.14 69.67 36.26 73.1 33.69 73.09 34.41"/><polygon class="cls-29" points="73.06 36.76 68.73 40 68.95 39.13 73.07 36.04 73.06 36.76"/><polygon class="cls-29" points="73.03 39.11 68.02 42.87 68.24 41.99 73.04 38.39 73.03 39.11"/><polygon class="cls-29" points="73.01 41.47 67.3 45.73 67.52 44.85 73.01 40.75 73.01 41.47"/><polygon class="cls-29" points="72.98 43.82 66.59 48.6 66.81 47.72 72.99 43.1 72.98 43.82"/><polygon class="cls-29" points="72.95 46.17 65.87 51.46 66.09 50.58 72.96 45.45 72.95 46.17"/><polygon class="cls-29" points="72.92 48.52 65.16 54.33 65.38 53.45 72.93 47.8 72.92 48.52"/><polygon class="cls-29" points="72.89 50.87 65.75 56.22 65.55 55.65 72.9 50.15 72.89 50.87"/><polygon class="cls-29" points="72.87 53.22 66.39 58.06 66.19 57.5 72.87 52.5 72.87 53.22"/><polygon class="cls-29" points="72.84 55.57 67.03 59.91 66.83 59.35 72.85 54.85 72.84 55.57"/><polygon class="cls-29" points="71.14 58.45 70.38 59.74 67.67 61.76 67.48 61.2 71.14 58.45"/><polygon class="cls-29" points="71.61 28.48 72.21 29.73 73.16 28.64 73.15 29.68 72.12 30.47 71.41 29.26 71.61 28.48"/><polygon class="cls-28" points="70.6 26.38 72.21 29.73 74.62 26.95 73.02 24.12 70.6 26.38"/><path class="cls-27" d="M69.1,35.54a.21.21,0,0,1-.14-.07c-1.8-1.91-2.93-6.36-3-6.55a.24.24,0,0,1,.47-.11S67.52,33,69.14,35l3.71-3.76a.25.25,0,0,1,.2-.07.27.27,0,0,1,.18.13l2.29,4.52c.56-.73,2-2.68,3.28-4.5a.24.24,0,0,1,.39.27c-1.58,2.3-3.5,4.79-3.52,4.82a.24.24,0,0,1-.21.09.23.23,0,0,1-.19-.13L73,31.77,69.3,35.48a.24.24,0,0,1-.17.07Z" transform="translate(0 -7.25)"/><path class="cls-23" d="M73,31.6a.22.22,0,0,1-.2-.26l.15-1.06a.24.24,0,1,1,.47.07l-.15,1A.24.24,0,0,1,73,31.6Z" transform="translate(0 -7.25)"/><path class="cls-25" d="M80.26,19.6s1.23-1.09,1.65.24S81.5,23.63,80,23Z" transform="translate(0 -7.25)"/><path class="cls-18" d="M80.75,24.14a3.84,3.84,0,0,1-4.54,3.26,10,10,0,0,1-6.35-4.26h0l.08-.82.38-4.22.2-2.26s.07-4.11,4-4.29c2.88-.14,5.44.71,6.56,2.36l.1.16a3.49,3.49,0,0,1,.48,2l-.45,4.05-.11,1Z" transform="translate(0 -7.25)"/><path class="cls-24" d="M72.51,16.87s.33,4.15,1.3,4.23,2.1-1.22,4,0a3.14,3.14,0,0,1,2.12,0c1.08.41,1.18.6,1.25,1.65s-.73,6.09-4.35,6.27-5.48-3.21-5.53-5.44a22.85,22.85,0,0,1,.23-3.83Z" transform="translate(0 -7.25)"/><path class="cls-24" d="M70.31,18.1s1.29,1.08,1.27,1.9l.84,0s-.12-4.06.51-4.85,1.69-1.88,1.24-2.7c0,0,7.38,4.29,7.66,1.84s-4.57-3.87-6.57-3.62S69.43,11.94,70.31,18.1Z" transform="translate(0 -7.25)"/><path class="cls-22" d="M79.31,22a7.71,7.71,0,0,1-3.59-.87s.22,2,1.64,2.21S79.31,22,79.31,22Z" transform="translate(0 -7.25)"/><path class="cls-21" d="M77.82,24.09h0a.16.16,0,0,0,.08-.23.17.17,0,0,0-.23-.09.88.88,0,0,1-1-.25.18.18,0,0,0-.25,0,.19.19,0,0,0,0,.26A1.22,1.22,0,0,0,77.82,24.09Z" transform="translate(0 -7.25)"/><path class="cls-26" d="M77.06,18.82a.16.16,0,0,1-.16-.15s-.05-.42-.29-.51a.57.57,0,0,0-.69.32.16.16,0,1,1-.29-.14.87.87,0,0,1,1.08-.48c.46.15.51.75.51.78a.15.15,0,0,1-.15.17Z" transform="translate(0 -7.25)"/><path class="cls-26" d="M80.43,19.42a.15.15,0,0,1-.16-.15s0-.42-.3-.5a.55.55,0,0,0-.68.32.17.17,0,0,1-.21.08A.17.17,0,0,1,79,19a.89.89,0,0,1,1.09-.49c.45.16.51.76.51.79a.16.16,0,0,1-.15.17Z" transform="translate(0 -7.25)"/><path class="cls-24" d="M75.4,16.85c-1.05-.1-1-1.27,0-1.55a2.7,2.7,0,0,1,1.46-.07c1.31.4,1.06,1.35.3,1.53A7.68,7.68,0,0,1,75.4,16.85Z" transform="translate(0 -7.25)"/><path class="cls-24" d="M81.19,17.85c1,.21,1.32-.92.38-1.5a2.69,2.69,0,0,0-1.38-.49c-1.36,0-1.39,1-.71,1.38A7,7,0,0,0,81.19,17.85Z" transform="translate(0 -7.25)"/><path class="cls-25" d="M75.92,19.85c0,.28-.65.42-1.36.32s-1.25-.41-1.21-.69.65-.43,1.36-.32S76,19.57,75.92,19.85Z" transform="translate(0 -7.25)"/><path class="cls-25" d="M81.1,21.1l-.32,0c-.71-.11-1.25-.42-1.21-.7s.65-.42,1.36-.32a2.3,2.3,0,0,1,.28.06Z" transform="translate(0 -7.25)"/><path class="cls-24" d="M71.33,21.76a3.53,3.53,0,0,1-1.47,1.38h0l.08-.82A2.7,2.7,0,0,0,71.33,21.76Z" transform="translate(0 -7.25)"/><path class="cls-18" d="M71,19s-1.24-2.28-2.6-.82c-1.12,1.2.13,4.94,2.14,4Z" transform="translate(0 -7.25)"/><path class="cls-24" d="M70.44,21.52a.16.16,0,0,1-.14-.16A2.68,2.68,0,0,0,69.07,19a.16.16,0,0,1-.06-.22.17.17,0,0,1,.22-.06,3,3,0,0,1,1.39,2.64.17.17,0,0,1-.17.16Z" transform="translate(0 -7.25)"/><path class="cls-24" d="M69.1,20.35a.15.15,0,0,1-.12-.07.16.16,0,0,1,.06-.22,1.54,1.54,0,0,1,1.16-.22.16.16,0,0,1-.12.3,1.27,1.27,0,0,0-.88.19A.12.12,0,0,1,69.1,20.35Z" transform="translate(0 -7.25)"/><path class="cls-24" d="M77.67,20.5a.16.16,0,1,1,0-.31,1.09,1.09,0,0,0,1-.31c-.44-1.39-.88-2.79-.88-2.8a.16.16,0,1,1,.3-.1s.46,1.47.91,2.89A.13.13,0,0,1,79,20,1.32,1.32,0,0,1,77.67,20.5Z" transform="translate(0 -7.25)"/><path class="cls-22" d="M76,20.49a2.12,2.12,0,1,1,2.16-2.09A2.12,2.12,0,0,1,76,20.49Zm.07-3.92a1.81,1.81,0,1,0,1.77,1.83A1.81,1.81,0,0,0,76.07,16.57Z" transform="translate(0 -7.25)"/><path class="cls-22" d="M80.84,21.19A2.12,2.12,0,1,1,83,19.1,2.11,2.11,0,0,1,80.84,21.19Zm.06-3.92a1.81,1.81,0,1,0,1.78,1.83A1.8,1.8,0,0,0,80.9,17.27Z" transform="translate(0 -7.25)"/><path class="cls-22" d="M78.79,19a.51.51,0,0,0-.71-.13l-.17-.27a.83.83,0,0,1,1.14.22Z" transform="translate(0 -7.25)"/><path class="cls-22" d="M74.13,17.69a.21.21,0,0,1-.16-.08s-.35-.34-1.83-.6a.21.21,0,0,1-.17-.24.2.2,0,0,1,.24-.17c1.71.3,2.05.69,2.1.76a.21.21,0,0,1-.06.29A.19.19,0,0,1,74.13,17.69Z" transform="translate(0 -7.25)"/><path class="cls-12" d="M66.32,34.63l.08.33.08.35.17.7.32,1.4.66,2.81c.44,1.86.88,3.73,1.34,5.56.11.46.23.91.35,1.36s.23.91.35,1.36c.25.89.5,1.77.76,2.61.14.42.27.83.41,1.22s.27.77.41,1.11.28.63.37.8.07.13,0,.09l-.15-.14-.07-.06a.39.39,0,0,0-.1-.08L71.24,54c-.08,0,0,0,0,.06l.37.2c.29.14.66.3,1,.46.77.31,1.63.61,2.5.9,1.76.58,3.59,1.12,5.44,1.66s3.72,1.06,5.59,1.59l2.82.79,1.41.41,1.39.41h0a3.07,3.07,0,0,1-1,6l-1.51-.08-1.5-.11c-1-.07-2-.16-3-.26q-3-.3-6-.74c-1-.15-2-.31-3-.5s-2-.38-3-.6c-.51-.11-1-.24-1.55-.37s-1-.28-1.6-.44S68.6,63,68,62.79c-.3-.12-.63-.26-1-.42l-.27-.14-.14-.07-.15-.09a5.54,5.54,0,0,1-.66-.4l-.39-.29-.24-.19L65,61a9.35,9.35,0,0,1-.64-.69,12,12,0,0,1-.81-1.11,19.16,19.16,0,0,1-1-1.82c-.27-.57-.49-1.1-.7-1.63s-.41-1-.59-1.56c-.35-1-.68-2-1-3l-.42-1.49-.39-1.49c-.5-2-.94-4-1.32-5.94-.19-1-.37-2-.53-3l-.23-1.49L57.25,37l0-.38-.05-.4a4.66,4.66,0,0,1,9.15-1.69Z" transform="translate(0 -7.25)"/><path class="cls-27" d="M86.64,66.3a.27.27,0,0,1-.27-.27c-.11-4.28,1.88-6.38,2-6.47a.27.27,0,0,1,.39.38h0A8.79,8.79,0,0,0,86.91,66a.28.28,0,0,1-.26.28Z" transform="translate(0 -7.25)"/><path class="cls-27" d="M90.8,61.58h-.06l-2.89-.7a.28.28,0,0,1-.2-.33.29.29,0,0,1,.33-.2l2.89.71a.27.27,0,0,1,.2.32A.27.27,0,0,1,90.8,61.58Z" transform="translate(0 -7.25)"/><path class="cls-27" d="M88.76,64.42a.54.54,0,0,1-.66.41.56.56,0,0,1-.42-.67.56.56,0,1,1,1.08.26Z" transform="translate(0 -7.25)"/><path class="cls-27" d="M68.86,45.92a.29.29,0,0,1-.26-.19C68,44,66,37.49,66,37.42a.27.27,0,1,1,.52-.16c0,.06,2.06,6.59,2.63,8.3a.26.26,0,0,1-.16.34Z" transform="translate(0 -7.25)"/><path class="cls-27" d="M67.07,40.33h0a.29.29,0,0,1-.25-.3L67,38.17a.29.29,0,0,1,.3-.24.27.27,0,0,1,.24.3l-.18,1.85A.27.27,0,0,1,67.07,40.33Z" transform="translate(0 -7.25)"/><path class="cls-27" d="M80.69,66.3h0c-.51-.07-12.42-1.7-16.41-5.39-4.59-4.26-7.44-18.76-7.56-19.38a.27.27,0,0,1,.21-.31.27.27,0,0,1,.32.21c0,.15,2.94,14.94,7.4,19.08,3.86,3.58,16,5.23,16.11,5.25a.27.27,0,0,1,0,.54Z" transform="translate(0 -7.25)"/><path class="cls-18" d="M103.46,65.24l-.16-.12-.22-.17-1.61-1.24-1.22-.93s0-1.17,0-1.86v0a2.66,2.66,0,0,0,0-.42,2.77,2.77,0,0,0-.26-.85.39.39,0,0,0-.08-.1.57.57,0,0,0-.13-.08A21.76,21.76,0,0,0,97,59.16a3.37,3.37,0,0,0-1.92.59c-.63.3-1.68,1.16-2.26,1.47h0a.66.66,0,0,1-.29.11h-.27a1,1,0,0,0-1,.53,9.76,9.76,0,0,0-1,2.58,6.66,6.66,0,0,0-.09,1.78c.37.1.63.17.73.21l.29.16a7.17,7.17,0,0,1,.59.41l.59.41a8.7,8.7,0,0,0,.77.46l0,0c.46.24,1.27.59,2,.92l2.07.84.18.09.32.14.35.13h0c.4.14.83.23,1,.09a.73.73,0,0,0,.27-.56v0a.34.34,0,0,1,0-.09.18.18,0,0,1,0-.06s0,0,.14.07a1,1,0,0,0,.42.07c.33,0,.75,0,.92-.5a1.36,1.36,0,0,0,0-.17h0a.74.74,0,0,0,0-.47h0a.58.58,0,0,0-.07-.12,1.77,1.77,0,0,0,.26.11,1.29,1.29,0,0,0,.4,0,1.09,1.09,0,0,0,.86-.84,1.18,1.18,0,0,0-.06-.69l0-.07c0-.06,0-.1-.06-.13l0,0,.06,0h0a2.42,2.42,0,0,0,.86.12.56.56,0,0,0,.42-.18A1.12,1.12,0,0,0,103.46,65.24Z" transform="translate(0 -7.25)"/><path class="cls-18" d="M104.13,65.11l.15,0c.28-1.87-.09-3.86-1.7-4.83a4.53,4.53,0,0,1-.71.15c-.69,0-3.77-.83-4.39-.94a10.28,10.28,0,0,0-2.84.69c-.34.12-.46,1.23-.75,1.79s-.61,1.09-.24,1.35h0a.45.45,0,0,0,.17.08.52.52,0,0,0,.18,0c.65,0,1.23-.38,1.66-1.61l.15,0a1.43,1.43,0,0,0,.71-.34l0,0,.19.11.32.19.29.17c1.06.61,2.87,1.64,3.45,1.89l.12,0h0l.11.06,0,0a2.09,2.09,0,0,1,.29.16,15.54,15.54,0,0,0,2,1.2.28.28,0,0,0,.15,0l.49-.11Z" transform="translate(0 -7.25)"/><path class="cls-25" d="M103.31,65.4h0a73.46,73.46,0,0,1-6.7-3.8,1.92,1.92,0,0,1-.77.33c-.38,1.19-1,1.54-1.35,1.63a1,1,0,0,1-.9-.15c-.42-.38,0-1.12.17-1.48l0-.06c.06-.12.2-.53.32-.88a7.51,7.51,0,0,1,.31-.84,12.35,12.35,0,0,1,3-.86,10.82,10.82,0,0,1,2.48.55.17.17,0,0,1,.11.2.16.16,0,0,1-.21.11,10,10,0,0,0-2.35-.53,15.52,15.52,0,0,0-2.77.73c-.05.1-.18.47-.27.74A9,9,0,0,1,94,62l0,.07c-.12.22-.47.88-.24,1.09a.61.61,0,0,0,.59.08c.29-.08.83-.39,1.15-1.5a.18.18,0,0,1,.13-.12,1.47,1.47,0,0,0,.77-.33.16.16,0,0,1,.22,0,76.9,76.9,0,0,0,6.75,3.83.16.16,0,0,1-.06.32Z" transform="translate(0 -7.25)"/><path class="cls-18" d="M93.88,68.27l0,.08h0a3,3,0,0,1-.24.53,1,1,0,0,1-1.11.05,1,1,0,0,1-.46-1,4.45,4.45,0,0,1,.64-1h0a.69.69,0,0,1,.34-.22.88.88,0,0,1,1.06.5C94.27,67.68,94,68,93.88,68.27Z" transform="translate(0 -7.25)"/><path class="cls-18" d="M92.27,67.4a1,1,0,0,1-.59.49.74.74,0,0,1-.3,0,.85.85,0,0,1-.82-.81.64.64,0,0,1,.3-.51l.1-.07h0a7.1,7.1,0,0,1,1.23.83Z" transform="translate(0 -7.25)"/><path class="cls-18" d="M97.05,70c-.08.12-.15.24-.2.3s-.56.12-1-.07a.53.53,0,0,1-.26-.25.85.85,0,0,1,0-.87l.05-.08h0c.19-.32.47-.71.66-.73s.74,0,.89.76A1.12,1.12,0,0,1,97.05,70Z" transform="translate(0 -7.25)"/><path class="cls-18" d="M95.93,68.59a10.85,10.85,0,0,0-.59.92h0a1,1,0,0,1-.1.15c-.16.23-.52.31-1,0h0A.91.91,0,0,1,94,68.49a4.07,4.07,0,0,1,.61-.88h0a.3.3,0,0,1,.08-.08.94.94,0,0,1,1.23-.11A.83.83,0,0,1,95.93,68.59Z" transform="translate(0 -7.25)"/><path class="cls-25" d="M93.85,68.51h0a.15.15,0,0,1-.1-.2.31.31,0,0,0,0-.08,1.63,1.63,0,0,1,.11-.23.78.78,0,0,0,.1-.68.72.72,0,0,0-.88-.41.55.55,0,0,0-.25.17h0a3.07,3.07,0,0,0-.49.72.16.16,0,0,1-.3-.13,3.28,3.28,0,0,1,.56-.81h0a.93.93,0,0,1,.42-.27,1,1,0,0,1,1.14,1.55,1.54,1.54,0,0,0-.09.19l0,.08A.15.15,0,0,1,93.85,68.51Z" transform="translate(0 -7.25)"/><path class="cls-25" d="M92.27,67.56a.19.19,0,0,1-.1,0l-.07,0a7,7,0,0,0-1.19-.81.16.16,0,0,1-.08-.06.16.16,0,0,1,0-.22.14.14,0,0,1,.15,0,6.4,6.4,0,0,1,1.28.85l.08.06a.16.16,0,0,1-.1.29Z" transform="translate(0 -7.25)"/><path class="cls-25" d="M97.23,69.73h0a.18.18,0,0,1-.14-.19c.09-.51,0-.88-.18-1a.47.47,0,0,0-.48,0,2,2,0,0,0-.59.66h0a.41.41,0,0,0,0,.09.17.17,0,0,1-.23,0,.16.16,0,0,1-.05-.22.41.41,0,0,1,.05-.09h0a2.45,2.45,0,0,1,.73-.79.82.82,0,0,1,.82.08c.21.16.45.53.3,1.35A.15.15,0,0,1,97.23,69.73Z" transform="translate(0 -7.25)"/><path class="cls-25" d="M95.55,69.32l-.08,0a.16.16,0,0,1,0-.23l.1-.17a2.48,2.48,0,0,1,.29-.41.89.89,0,0,0,.18-.64.43.43,0,0,0-.18-.3.79.79,0,0,0-1,.1l-.08.07a3.76,3.76,0,0,0-.58.85.15.15,0,0,1-.22.06.16.16,0,0,1-.07-.22,5.07,5.07,0,0,1,.64-.92l.1-.09A1.11,1.11,0,0,1,96,67.28a.74.74,0,0,1,.31.53,1.2,1.2,0,0,1-.25.88,2.6,2.6,0,0,0-.26.38l-.11.17A.16.16,0,0,1,95.55,69.32Z" transform="translate(0 -7.25)"/></g></g></g></g></svg>