<svg xmlns="http://www.w3.org/2000/svg" viewBox="0 0 40.89 32"><defs><style>.cls-1{fill:#46c7ce;}</style></defs><g id="Layer_2" data-name="Layer 2"><g id="Option_1" data-name="Option 1"><path class="cls-1" d="M13.8,18.34a5.49,5.49,0,1,0-5.49-5.49A5.5,5.5,0,0,0,13.8,18.34Zm0-9.44a4,4,0,1,1-4,3.95A4,4,0,0,1,13.8,8.9Z"/><path class="cls-1" d="M40.23,22.65H38.47V1.33h1.76a.67.67,0,0,0,0-1.33H.66a.67.67,0,0,0,0,1.33H2.42V22.65H.66A.67.67,0,0,0,.66,24h6A7.83,7.83,0,0,0,6,27.19v4.1a.71.71,0,0,0,.71.71H20.89a.71.71,0,0,0,.71-.71v-4.1A7.68,7.68,0,0,0,20.9,24H40.23a.67.67,0,0,0,0-1.33Zm-20,7.93H7.43V27.19A6.38,6.38,0,0,1,18,22.39a.62.62,0,0,0,.16.2l.15.09a6.39,6.39,0,0,1,1.87,4.51Zm17-7.93h-17a7,7,0,0,0-.48-.6l7-8.43a.8.8,0,0,0-.1-1.12.78.78,0,0,0-1.12.1l-7,8.36a7.79,7.79,0,0,0-11,1.69H3.74V1.33H37.15Z"/><path class="cls-1" d="M21.5,6.12H33.19a.76.76,0,0,0,0-1.51H21.5a.76.76,0,0,0,0,1.51Z"/><path class="cls-1" d="M33.19,8.62H27.81a.75.75,0,0,0,0,1.5h5.38a.75.75,0,0,0,0-1.5Z"/></g></g></svg>