<svg xmlns="http://www.w3.org/2000/svg" viewBox="0 0 75.28 28.61"><defs><style>.cls-1{fill:#75c189;}</style></defs><g id="Layer_2" data-name="Layer 2"><g id="Option_1" data-name="Option 1"><path class="cls-1" d="M46.84,14.82h-2a1,1,0,0,1,0-2h2a1,1,0,0,1,0,2Zm-7,0h-2a1,1,0,0,1,0-2h2a1,1,0,0,1,0,2Zm-7,0h-2a1,1,0,1,1,0-2h2a1,1,0,0,1,0,2Z"/><path class="cls-1" d="M14.31,6.33A5.65,5.65,0,1,0,20,12,5.65,5.65,0,0,0,14.31,6.33Zm0,10.14A4.49,4.49,0,1,1,18.8,12,4.5,4.5,0,0,1,14.31,16.47Z"/><path class="cls-1" d="M14.31,0a14.31,14.31,0,1,0,14.3,14.31A14.33,14.33,0,0,0,14.31,0Zm0,27.53a13.24,13.24,0,0,1-6.78-1.87,7.09,7.09,0,0,1,13.55,0A13.2,13.2,0,0,1,14.31,27.53ZM22,25.07a8.12,8.12,0,0,0-15.33,0,13.23,13.23,0,1,1,15.33,0Z"/><path class="cls-1" d="M61,6.33A5.65,5.65,0,1,0,66.62,12,5.65,5.65,0,0,0,61,6.33Zm0,10.14A4.49,4.49,0,1,1,65.46,12,4.5,4.5,0,0,1,61,16.47Z"/><path class="cls-1" d="M61,0A14.31,14.31,0,1,0,75.28,14.31,14.32,14.32,0,0,0,61,0Zm0,27.53a13.2,13.2,0,0,1-6.77-1.87,7.09,7.09,0,0,1,13.55,0A13.24,13.24,0,0,1,61,27.53Zm7.67-2.46a8.12,8.12,0,0,0-15.33,0,13.22,13.22,0,1,1,15.33,0Z"/></g></g></svg>