<svg xmlns="http://www.w3.org/2000/svg" viewBox="0 0 17 15.67"><defs><style>.cls-1{fill:#fa5;}</style></defs><g id="Layer_2" data-name="Layer 2"><g id="Option_1" data-name="Option 1"><path class="cls-1" d="M14.44,5.58a.42.42,0,0,0-.28.52A6.58,6.58,0,0,1,14.44,8a6.8,6.8,0,1,1-3.51-5.95h0l.39.23a.39.39,0,0,0,.23.07.43.43,0,0,0,.35-.19.42.42,0,0,0-.13-.58c-.14-.09-.28-.18-.43-.26h0A7.64,7.64,0,1,0,15.28,8,7.55,7.55,0,0,0,15,5.86.41.41,0,0,0,14.44,5.58Z"/><path class="cls-1" d="M16.88.13a.41.41,0,0,0-.59,0L7.63,8.53,4.74,5.79a.42.42,0,0,0-.57.61l3.18,3a.39.39,0,0,0,.29.11.41.41,0,0,0,.29-.11L16.87.72A.41.41,0,0,0,16.88.13Z"/></g></g></svg>