<svg xmlns="http://www.w3.org/2000/svg" viewBox="0 0 228.39 169.25"><defs><style>.cls-1{isolation:isolate;}.cls-16,.cls-2{fill:#363638;}.cls-2{opacity:0.05;}.cls-3{fill:#eaeaea;mix-blend-mode:multiply;}.cls-4{fill:#fa5;}.cls-5{fill:#fff;}.cls-6{fill:#dcdcdc;}.cls-7{fill:#c2c2c2;}.cls-8{fill:#f7b897;}.cls-9{fill:#a05f4e;}.cls-10{fill:#75c189;}.cls-11{fill:#666;}.cls-12{fill:#352f31;}.cls-13{fill:#ef846f;}.cls-14{fill:#d7634e;}.cls-15{fill:#504647;}.cls-17{fill:#e67779;}</style></defs><g class="cls-1"><g id="Layer_2" data-name="Layer 2"><g id="Option_1" data-name="Option 1"><path class="cls-2" d="M30,124.61s-58.1-66.12-12.54-97.24c27-18.41,55.91,11,87.79-6.88,41.12-23.07,72.3-7.62,94.58,21.1,16.72,21.56,16.26,23.37,24.27,40.3,20.79,43.91-40.4,72-40.4,72S95.43,203.44,30,124.61Z"/><ellipse id="_Path_" data-name="&lt;Path&gt;" class="cls-3" cx="49.08" cy="158.38" rx="26.49" ry="4.59"/><ellipse id="_Path_2" data-name="&lt;Path&gt;" class="cls-3" cx="186.76" cy="158.38" rx="25.34" ry="4.59"/><path class="cls-4" d="M177,68.75A68.81,68.81,0,1,1,108.23,0a67.41,67.41,0,0,1,8.21.49c1,.12,2,.26,3,.42.76.12,1.51.26,2.26.41A68.76,68.76,0,0,1,177,68.75Z"/><circle class="cls-5" cx="108.23" cy="68.75" r="62.03" transform="translate(-16.92 96.67) rotate(-45)"/><path class="cls-6" d="M87.23,32.76a.68.68,0,0,1-.58-.33l-6-10.34a.66.66,0,0,1,1.15-.66l6,10.34a.66.66,0,0,1-.24.9A.68.68,0,0,1,87.23,32.76Z"/><path class="cls-6" d="M71.82,48.1a.68.68,0,0,1-.33-.09L61.15,42a.66.66,0,0,1,.66-1.15l10.34,6a.66.66,0,0,1,.25.9A.68.68,0,0,1,71.82,48.1Z"/><path class="cls-6" d="M61.39,96.06a.65.65,0,0,1-.57-.33.67.67,0,0,1,.24-.91l10.34-6A.66.66,0,1,1,72.06,90L61.72,96A.66.66,0,0,1,61.39,96.06Z"/><path class="cls-6" d="M81.1,115.83a.63.63,0,0,1-.33-.09.65.65,0,0,1-.24-.9l6-10.34a.66.66,0,0,1,.9-.25.67.67,0,0,1,.24.91l-6,10.34A.65.65,0,0,1,81.1,115.83Z"/><path class="cls-6" d="M135,115.92a.65.65,0,0,1-.57-.33l-6-10.34a.67.67,0,0,1,.25-.91.66.66,0,0,1,.9.25l6,10.34a.66.66,0,0,1-.24.9A.68.68,0,0,1,135,115.92Z"/><path class="cls-6" d="M154.8,96.21a.66.66,0,0,1-.33-.09l-10.34-6a.65.65,0,0,1-.24-.9.65.65,0,0,1,.9-.24l10.34,6a.65.65,0,0,1,.24.9A.65.65,0,0,1,154.8,96.21Z"/><path class="cls-6" d="M144.55,48.25a.63.63,0,0,1-.57-.33.65.65,0,0,1,.24-.9l10.34-6a.65.65,0,0,1,.9.24.65.65,0,0,1-.24.9l-10.34,6A.67.67,0,0,1,144.55,48.25Z"/><path class="cls-6" d="M129.21,32.85a.68.68,0,0,1-.33-.09.66.66,0,0,1-.24-.9l6-10.34a.65.65,0,0,1,.9-.24.66.66,0,0,1,.25.9l-6,10.34A.65.65,0,0,1,129.21,32.85Z"/><path class="cls-6" d="M108.23,27.84a1.32,1.32,0,0,1-1.32-1.32V14.58a1.32,1.32,0,1,1,2.64,0V26.52A1.32,1.32,0,0,1,108.23,27.84Z"/><path class="cls-6" d="M66,70.07H54.06a1.32,1.32,0,0,1,0-2.64H66a1.32,1.32,0,0,1,0,2.64Z"/><path class="cls-6" d="M108.23,124.25a1.32,1.32,0,0,1-1.32-1.32V111a1.32,1.32,0,1,1,2.64,0v12A1.32,1.32,0,0,1,108.23,124.25Z"/><path class="cls-6" d="M162.4,70.07H150.46a1.32,1.32,0,1,1,0-2.64H162.4a1.32,1.32,0,1,1,0,2.64Z"/><path class="cls-7" d="M138.82,70.65H109.25a2.27,2.27,0,0,1-2.16-1.57L91.31,21.36a2.28,2.28,0,0,1,4.32-1.43L110.89,66.1h27.93a2.28,2.28,0,1,1,0,4.55Z"/><path class="cls-8" d="M189.47,157.94a.53.53,0,0,0,.43.21h11.62a1.13,1.13,0,0,0,.34-.18c.47-.39.43-1.11.35-2.18,0-.3-.05-.62-.06-1s0-.79,0-1.31a12.24,12.24,0,0,1-2.14.19,12.39,12.39,0,0,1-2.86-.35,5.45,5.45,0,0,1-1.07,1.25,6.67,6.67,0,0,1-2,1.19,25.1,25.1,0,0,1-4,1.26c-.14,0-.59.17-.7.48A.47.47,0,0,0,189.47,157.94Z"/><path class="cls-9" d="M201.86,158a1,1,0,0,1-.34.18H189.9a.53.53,0,0,1-.43-.21.47.47,0,0,1,0-.41c.11-.32.56-.44.7-.48a26.17,26.17,0,0,0,4-1.26h8.1C202.28,156.86,202.33,157.58,201.86,158Z"/><path class="cls-8" d="M170.62,157.94a.53.53,0,0,0,.42.21h11.63A1.13,1.13,0,0,0,183,158c.47-.39.42-1.11.34-2.18,0-.3,0-.62,0-1s0-.89,0-1.47a9.25,9.25,0,0,1-3,.23,9.56,9.56,0,0,1-1.94-.37,5.28,5.28,0,0,1-1.16,1.39,6.8,6.8,0,0,1-2,1.19,25.43,25.43,0,0,1-4,1.26c-.14,0-.6.17-.71.48A.49.49,0,0,0,170.62,157.94Z"/><path class="cls-9" d="M183,158a1.26,1.26,0,0,1-.34.18H171a.52.52,0,0,1-.42-.21.54.54,0,0,1-.05-.41c.12-.32.57-.44.71-.48a26.53,26.53,0,0,0,4-1.26h8.09C183.43,156.86,183.48,157.58,183,158Z"/><path class="cls-10" d="M174.81,131.6A190.65,190.65,0,0,0,177.7,153c.21.08.44.17.69.25a9.56,9.56,0,0,0,1.94.37,9.25,9.25,0,0,0,3-.23,9.42,9.42,0,0,0,1-.31,46.84,46.84,0,0,0,1.1-9.77c0-4.16-.52-5-.85-11.61-.41-8.12.23-10.61.54-11.69.5-1.7.82-2,2.66-6.37,1.52-3.54,2.65-6.48,3.39-8.45q.6,9.28,1.6,19.11c1,10.09,2.34,19.74,3.81,28.92l.6.17a12.39,12.39,0,0,0,2.86.35,12.24,12.24,0,0,0,2.14-.19,9.71,9.71,0,0,0,1.08-.25q.44-11.37.59-23.2c.18-15.44-.06-30.34-.64-44.67l-21.25-.25c-1.36,7-2.74,12.64-3.75,16.52-2.11,8.08-3.24,10.86-3.75,16.46C174.31,119.37,174.13,122.72,174.81,131.6Z"/><path class="cls-11" d="M174.6,72.2a.92.92,0,0,1,.4-.44c.17-.08.25,0,1,0a10.17,10.17,0,0,0,2.06,0c1.3-.26,1.37-3.86,2.26-8.13A24.88,24.88,0,0,1,183,56.26a7.87,7.87,0,0,1,3-3,6.48,6.48,0,0,1,1.31-.53c.91-.19,1.91-.35,3-.47a33.14,33.14,0,0,1,4.32-.18l2.44.71a14.22,14.22,0,0,1,5.48,6.09c1,2.23.64,3.31.92,8.19.37,6.6.73,8.33,1.12,14.6.12,1.92.29,5.45-1.79,7-1.32,1-2.87.62-4.85.38-9.69-1.17-14.93,1.88-16.64-.84a3.64,3.64,0,0,1-.33-2.57c.28-1.76.61-4.21,1-7.22a40.09,40.09,0,0,1-4-.26c-1.48-.14-1.69-.2-2-.35a3,3,0,0,1-1-1.08A5.64,5.64,0,0,1,174.6,72.2Z"/><rect class="cls-5" x="189.09" y="72.43" width="24.99" height="17.92" rx="2.06" transform="translate(415.18 121.84) rotate(168.74)"/><path class="cls-8" d="M196.3,91.57A3.89,3.89,0,0,0,200,93.19a3.3,3.3,0,0,0,2.19-1.36,13,13,0,0,0,.65-2.43c.11-.41.23-.72.46-1.34.88-2.36,1.89-4.36,2.92-6.86a3.72,3.72,0,0,1-2.27-.82A5.4,5.4,0,0,1,202.05,78a33.27,33.27,0,0,0-.92,3.31,29.92,29.92,0,0,1-1.22,4.55,6.68,6.68,0,0,1-.83,1.86c-1.09,1.37-2.82,1.65-2.77,2.42a.64.64,0,0,0,.16.34c.47.43,1.65-.45,1.95-.11a.57.57,0,0,1-.11.65.47.47,0,0,1-.24.13C197.75,91.22,197.13,91.38,196.3,91.57Z"/><path class="cls-11" d="M197.61,59.46c5.39,5.46,5.79,7.93,5.64,9,0,.14-.69,4.31-.93,5.75A6.13,6.13,0,0,0,201.8,77a3.78,3.78,0,0,0,.25,1A5.4,5.4,0,0,0,204,80.38a3.72,3.72,0,0,0,2.27.82,1,1,0,0,0,.29-.07c1.14-.39,1.51-2.13,1.88-5,.66-5,1-7.54.71-9.15-1.29-7.62-7.43-11.78-8.3-12.35a18.72,18.72,0,0,0-5.21-2.37Q196.6,55.87,197.61,59.46Z"/><path class="cls-8" d="M162.14,75.53c1.78.58,2,.5,3.72-.15a6.12,6.12,0,0,1,2.18-.3q2.61.66,5.39,1.27l1.55.33a5.64,5.64,0,0,1-.38-4.48c-.76,0-4.56-.18-5.66-.24a15.74,15.74,0,0,0-2.42-.88c-.69-.15-2.84-.11-2.93.45-.25.91,2.25.69,2.35,1s-1.48,1.58-3.14,1.37c-2.71-.33-3-.63-3.35-.42C158.3,74.11,160.89,75.11,162.14,75.53Z"/><path class="cls-8" d="M196.91,45.64c-.41.23-.73,0-1.1,0-.5-.27-1.06.95-2.47,1-1.18,0-1.31-.8-2.65-.85s-1.78.59-2.53.2a1.81,1.81,0,0,1-.78-1A20.84,20.84,0,0,1,189,38.09a3.08,3.08,0,0,0,1.58.27c1.14.09,1.16.6,2.2.66a4.84,4.84,0,0,1,1,0,7.22,7.22,0,0,1,1.26.48c.86.32,1,.25,1.08.43.24.4-.28.83-.46,2,0,.3-.18,1.41.26,1.63.2.11.35-.07.73,0a1.13,1.13,0,0,1,.74.52A1.22,1.22,0,0,1,196.91,45.64Z"/><path class="cls-8" d="M196.27,50.09c-.06.41-.25,1.95-.3,2.32a2.81,2.81,0,0,1-1.32,1.43,2.48,2.48,0,0,1-1.68.25,2.75,2.75,0,0,1-1.75-1.42h.32a3.83,3.83,0,0,0,2.4-.5,4.27,4.27,0,0,0,1.19-1.9c.26-.63.37-1.15.56-1.14S195.86,49.69,196.27,50.09Z"/><path class="cls-9" d="M200.72,43a9,9,0,0,0,.05,1.52,4.94,4.94,0,0,1-.58,2.46c-.47.8-.82.64-1.19,1.45-.29.64-.16.91-.55,1.39a1.63,1.63,0,0,1-1.15.68,1.48,1.48,0,0,1-.92-.28.6.6,0,0,1-.11-.12c-.41-.4-.39-.94-.58-1s-.3.51-.56,1.14a4.27,4.27,0,0,1-1.19,1.9,3.83,3.83,0,0,1-2.4.5h-.32a4,4,0,0,1-3-.86c-.26-.28-.56-.73-.72-3.42-.08-1.41-.09-2.58-.08-3.43a1.81,1.81,0,0,0,.78,1c.75.39,1.33-.23,2.53-.2s1.47.87,2.65.85c1.41,0,2-1.26,2.47-1,.37,0,.69.27,1.1,0a1.22,1.22,0,0,0,.46-1.5,1.13,1.13,0,0,0-.74-.52c-.38-.1-.53.08-.73,0-.44-.22-.3-1.33-.26-1.63.18-1.16.7-1.59.46-2-.11-.18-.22-.11-1.08-.43a7.22,7.22,0,0,0-1.26-.48,4.84,4.84,0,0,0-1,0c-1-.06-1.06-.57-2.2-.66a3.08,3.08,0,0,1-1.58-.27,2.08,2.08,0,0,1-.64-.66,2.55,2.55,0,0,1-.18-2.33,2.39,2.39,0,0,1,1.61-1.42c.5-.1.59.12,1.59.13s.9-.13,1.44-.07c.91.1,1,.55,1.93.84s1.08-.15,2.34,0a3.89,3.89,0,0,1,2.65,1.26c.36.49.15.64.64,1.54s.85,1,1.09,1.58a3.72,3.72,0,0,1-.18,2.47A8.31,8.31,0,0,0,200.72,43Z"/><path class="cls-12" d="M189.64,42.24c-.07.45-.37.78-.67.74s-.5-.45-.44-.9.37-.78.68-.74S189.7,41.79,189.64,42.24Z"/><path class="cls-12" d="M193.87,43c-.1.45-.43.75-.73.68s-.46-.49-.35-.94.43-.74.73-.67S194,42.52,193.87,43Z"/><path class="cls-9" d="M195.11,41.59c.06-.37-.76-.74-1-.85s-.74-.35-1-.16a.25.25,0,0,0-.09.21c0,.14.18.22.25.26,1,.51,1.41.92,1.68.72A.36.36,0,0,0,195.11,41.59Z"/><path class="cls-13" d="M191,45.32a.11.11,0,0,0,.12-.06.12.12,0,0,0-.06-.15c-.26-.13-.72-.41-.72-.77,0-.12.06-.21.26-.55l0-.07.58-1a.11.11,0,0,0-.19-.11l-.58,1,0,.07c-.21.35-.3.48-.29.68,0,.47.53.81.84,1Z"/><path class="cls-9" d="M188.59,40.38c.08-.35.93-.39,1.18-.41s.78-.06.91.19a.24.24,0,0,1,0,.22c-.06.12-.24.13-.32.14-1,.11-1.57.33-1.74,0A.25.25,0,0,1,188.59,40.38Z"/><path class="cls-14" d="M188.91,46.66a.47.47,0,0,0,0,.12s0,0,0,0a1.85,1.85,0,0,0,.63,1,1.8,1.8,0,0,0,1.33.32,1.93,1.93,0,0,0,1.17-.73.76.76,0,0,0,.11-.22.23.23,0,0,0,0-.18c-.09-.24-.61,0-1.75-.3-.94-.2-1.28-.48-1.45-.31A.31.31,0,0,0,188.91,46.66Z"/><path class="cls-5" d="M188.91,46.66a4.83,4.83,0,0,0,1.21.48,5.1,5.1,0,0,0,2,.09.23.23,0,0,0,0-.18c-.09-.24-.61,0-1.75-.3-.94-.2-1.28-.48-1.45-.31A.31.31,0,0,0,188.91,46.66Z"/><path class="cls-8" d="M33.16,158a1.26,1.26,0,0,0,.34.18H45.13a.51.51,0,0,0,.42-.21.56.56,0,0,0,.05-.42c-.12-.31-.56-.43-.71-.47a26.9,26.9,0,0,1-4-1.26,6.8,6.8,0,0,1-2-1.19,5.23,5.23,0,0,1-1.07-1.25,11.82,11.82,0,0,1-2.85.34,11.59,11.59,0,0,1-2.15-.18c0,.52,0,.95,0,1.31s0,.67,0,1C32.74,156.87,32.7,157.59,33.16,158Z"/><path class="cls-15" d="M33.16,158a1.26,1.26,0,0,0,.34.18H45.13a.52.52,0,0,0,.42-.21.51.51,0,0,0,.05-.42c-.11-.31-.57-.43-.71-.47a28.14,28.14,0,0,1-4-1.26H32.82C32.74,156.86,32.69,157.59,33.16,158Z"/><path class="cls-8" d="M52,158a1,1,0,0,0,.34.18H64a.52.52,0,0,0,.42-.21.48.48,0,0,0,0-.42c-.11-.31-.57-.43-.71-.47a26.9,26.9,0,0,1-4-1.26,6.78,6.78,0,0,1-2-1.19,5,5,0,0,1-1.17-1.4,8.79,8.79,0,0,1-1.93.38,9.34,9.34,0,0,1-3-.23c0,.59,0,1.08,0,1.47s0,.67-.06,1C51.59,156.87,51.54,157.59,52,158Z"/><path class="cls-15" d="M52,158a1,1,0,0,0,.34.18H64a.51.51,0,0,0,.42-.21.48.48,0,0,0,0-.42c-.11-.31-.56-.43-.71-.47a28.14,28.14,0,0,1-4-1.26H51.67C51.59,156.86,51.55,157.59,52,158Z"/><path class="cls-16" d="M31.2,130.07q.15,11.82.59,23.2a10.27,10.27,0,0,0,1.08.25,11.59,11.59,0,0,0,2.15.18,11.82,11.82,0,0,0,2.85-.34l.6-.17c1.47-9.18,2.77-18.83,3.81-28.93q1-9.81,1.61-19.1c.73,2,1.87,4.91,3.38,8.46,1.84,4.3,2.17,4.66,2.67,6.37.31,1.07,1,3.56.54,11.67-.34,6.6-.89,7.45-.85,11.62a46.84,46.84,0,0,0,1.1,9.77c.27.1.6.2,1,.31a9.34,9.34,0,0,0,3,.23,8.79,8.79,0,0,0,1.93-.38c.26-.08.48-.16.69-.24a191,191,0,0,0,2.89-21.36c.68-8.88.5-12.22.39-13.47-.51-5.61-1.65-8.39-3.75-16.48-1-3.87-2.39-9.52-3.76-16.51l-21.25.25C31.26,99.72,31,114.63,31.2,130.07Z"/><path class="cls-17" d="M20.6,76.09c.71,1.27,2.49,1.47,4.71,1.73,1.44.16,2.48.28,3.52-.39a1,1,0,0,0,.16-.12,5.84,5.84,0,0,0,1.81-3.16,7.46,7.46,0,0,0,.37-1.41A1.43,1.43,0,0,0,31,71.51c-.47-.49-1.29.06-1.6-.31-.63-.71,1.58-3.88,2.74-5.45,0,.22,0,.46,0,.67-.06,1.44-.07,2.31-.09,3-.36,12-2.28,17.22.24,19.22.72.58,1.19.4,4.84.39,10.65,0,15.15,1.54,16.64-.85A3.62,3.62,0,0,0,54,85.6c-.27-1.77-.61-4.2-1-7.22.85,0,2.14-.09,4.06-.26,1.48-.13,1.69-.19,1.94-.35a2.79,2.79,0,0,0,1-1,5.23,5.23,0,0,0,.37-4.53.76.76,0,0,0-.35-.34c-.17-.08-.25,0-1,0a11.81,11.81,0,0,1-2,0c-1.31-.25-1.37-3.78-2.26-8A23.75,23.75,0,0,0,52,56.76,8.49,8.49,0,0,0,50.2,54.6l0,0-.12-.1A9.25,9.25,0,0,0,47.84,53a10.41,10.41,0,0,0-3-.81,20.93,20.93,0,0,0-5.26-.07,15.82,15.82,0,0,0-5.19,1.25,14.62,14.62,0,0,0-1.74.93c-3.12,2-5,4.93-7,8.25a40.55,40.55,0,0,0-2.89,5.63C20.81,72.65,19.93,74.91,20.6,76.09Z"/><path class="cls-8" d="M29,77.31c1.41,0,2.86-.12,4.35-.23s3-.25,4.49-.4a7.67,7.67,0,0,1,3.19.38c1.86.75,2.09.85,4.06.27,1.36-.42,4.23-1.44,3-2.15-.43-.25-.71.08-3.68.36-1.81.18-3.48-1.27-3.38-1.58s2.84,0,2.6-1c-.09-.61-2.43-.72-3.19-.58a16.34,16.34,0,0,0-2.56.86,31.43,31.43,0,0,1-6.69-.46,7.46,7.46,0,0,1-.37,1.41A5.84,5.84,0,0,1,29,77.31Z"/><path class="cls-8" d="M36.3,45.15a1.9,1.9,0,0,0,2.24.76,18.13,18.13,0,0,1,.93,3.88,17.74,17.74,0,0,1,.12,2.33,19.22,19.22,0,0,0,3,7c.63.91,2.09,3,3,2.72.74-.25.77-2,.8-3.06a16.17,16.17,0,0,0-1.34-6.58,2.36,2.36,0,0,0-.12-.28c-.1-.67-.2-1.34-.31-2a2.66,2.66,0,0,0,1.09-.15C48.09,48.9,49,44.17,48,40.66a10.26,10.26,0,0,0-2.63-4.45c-1.05,1.11-2.13,2.24-3.25,3.37-1.31,1.34-2.62,2.62-3.91,3.84a1.37,1.37,0,0,0-1.64,0A1.44,1.44,0,0,0,36.3,45.15Z"/><path class="cls-12" d="M46.36,42.26c0,.47.34.83.66.8s.55-.43.5-.91-.34-.83-.66-.8S46.32,41.78,46.36,42.26Z"/><path class="cls-12" d="M41.91,42.77c.09.47.42.8.73.75s.51-.49.42-1-.41-.8-.73-.74S41.83,42.3,41.91,42.77Z"/><path class="cls-15" d="M40.85,41.26c0-.38.83-.72,1.09-.83s.79-.32,1-.11a.28.28,0,0,1,.09.22c0,.14-.21.23-.28.26-1,.47-1.52.88-1.79.65A.36.36,0,0,1,40.85,41.26Z"/><path class="cls-13" d="M44.83,45.39h0c.34-.14.91-.46.94-1,0-.21-.07-.35-.27-.72l-.05-.08c-.24-.44-.42-.8-.54-1a.12.12,0,0,0-.21.11l.55,1,0,.08c.2.36.25.46.25.59,0,.37-.51.63-.8.76a.11.11,0,0,0-.06.15A.11.11,0,0,0,44.83,45.39Z"/><path class="cls-15" d="M47.54,40.08c-.09-.36-1-.38-1.24-.39s-.82,0-.94.24a.24.24,0,0,0,0,.22c.06.12.25.14.33.14,1.1.08,1.65.29,1.82,0A.25.25,0,0,0,47.54,40.08Z"/><path class="cls-15" d="M34.05,48.16c.16-.5.37-1.11.67-1.89,1.82-4.85,0-6.27,1.9-9a7.41,7.41,0,0,1,4.23-2.86,7.29,7.29,0,0,1,6,1.26c2.67,2.06.92,4.21,3.94,10.61a7.8,7.8,0,0,1,1.07,4.59,7.17,7.17,0,0,1-1.21,3,6.75,6.75,0,0,1-.56.64A9.25,9.25,0,0,0,47.84,53a10.21,10.21,0,0,0-2.79-.78c-.14-.76-.28-1.52-.43-2.29a2.66,2.66,0,0,0,1.09-.15C48.09,48.9,49,44.17,48,40.66a10.26,10.26,0,0,0-2.63-4.45c-1.05,1.11-2.13,2.24-3.25,3.37-1.31,1.34-2.62,2.62-3.91,3.84a1.37,1.37,0,0,0-1.64,0,1.44,1.44,0,0,0-.24,1.76,1.9,1.9,0,0,0,2.24.76c.12.34.24.73.36,1.13a11.4,11.4,0,0,1,1.36,7,4.11,4.11,0,0,1-1.35,2.85,3.93,3.93,0,0,1-2.54.62,5,5,0,0,1-2.61-.78C32.16,55.53,32,51.89,34.05,48.16Z"/><path class="cls-13" d="M44.94,47.35a2.49,2.49,0,0,0,.46-.05,2.38,2.38,0,0,0,.9-.38.1.1,0,0,0-.12-.16,2.22,2.22,0,0,1-.82.35A2.25,2.25,0,0,1,44,46.92a.11.11,0,0,0-.14,0,.1.1,0,0,0,0,.13A2.44,2.44,0,0,0,44.94,47.35Z"/><path class="cls-8" d="M60,76.78c2.85-1,5.06-1.66,6.18-2a8.73,8.73,0,0,1,1.59-.33,8.45,8.45,0,0,1,1.64,0c2.17-.15,3.83-.73,4.16-1.45a4.3,4.3,0,0,0,.18-.46,5.85,5.85,0,0,0,.14-1.6c.2-1.32,3.25-1.52,3.25-2.51a.75.75,0,0,0-.37-.59c-.85-.56-2.89,1.21-4.09,1.41l-1.45.23a17.2,17.2,0,0,0-4,1.19c-.74.34-.73.42-1.35.66a10.09,10.09,0,0,1-2.22.55c-.83.14-1.94.29-3.28.39a5.26,5.26,0,0,1,.35,2A5.35,5.35,0,0,1,60,76.78Z"/></g></g></g></svg>