<svg xmlns="http://www.w3.org/2000/svg" viewBox="0 0 354.59 242.2"><defs><style>.cls-1,.cls-19{fill:#75c189;}.cls-1{opacity:0.25;}.cls-13,.cls-2{fill:#fa5;}.cls-3,.cls-8{fill:#fff;}.cls-4{fill:#c9d1d8;}.cls-10,.cls-11,.cls-12,.cls-13,.cls-14,.cls-15,.cls-16,.cls-17,.cls-18,.cls-19,.cls-21,.cls-22,.cls-23,.cls-24,.cls-25,.cls-26,.cls-28,.cls-29,.cls-30,.cls-31,.cls-32,.cls-33,.cls-34,.cls-36,.cls-37,.cls-38,.cls-39,.cls-4,.cls-40,.cls-41,.cls-42,.cls-43,.cls-44,.cls-45,.cls-48,.cls-5,.cls-51,.cls-52,.cls-53,.cls-54,.cls-55,.cls-56,.cls-57,.cls-58,.cls-59,.cls-6,.cls-60,.cls-61,.cls-62,.cls-65,.cls-66,.cls-67,.cls-7,.cls-71,.cls-72,.cls-73,.cls-75,.cls-8{fill-rule:evenodd;}.cls-5{fill:#d7dfe7;}.cls-6{fill:#f9f9f9;}.cls-7{fill:#fcae98;}.cls-73,.cls-9{fill:#ceccca;}.cls-10{fill:#314865;}.cls-11{fill:#e9eef2;}.cls-12,.cls-49{fill:#29307d;}.cls-14{fill:#ffbb7d;}.cls-15{fill:#ffd7b6;}.cls-16{fill:#dee4ea;}.cls-17{fill:#eceae8;}.cls-18{fill:#db8038;}.cls-20{fill:#55a062;}.cls-21{fill:#dadada;}.cls-22{fill:#bcbcbc;}.cls-23{fill:#c6c7fc;}.cls-24{fill:#354a63;}.cls-25,.cls-70{fill:#3c150b;}.cls-26,.cls-50{fill:#db8f7b;}.cls-27,.cls-45{fill:#a46451;}.cls-28{fill:#377872;}.cls-29{fill:#d6dbf5;}.cls-30{fill:#1e62b9;}.cls-31{fill:#3677e4;}.cls-32{fill:#e6a498;}.cls-33{fill:#f7beb3;}.cls-34{fill:#4c3530;}.cls-35{fill:#b16d61;}.cls-36{fill:#8a94c9;}.cls-37{fill:#b0b2f7;}.cls-38{fill:#d8d9fd;}.cls-39{fill:#e4e4fd;}.cls-40{fill:#cecffc;}.cls-41,.cls-46{fill:#26364c;}.cls-42,.cls-68{fill:#fad27f;}.cls-43{fill:#fc7270;}.cls-44{fill:#c27d6a;}.cls-47,.cls-67{fill:#834837;}.cls-48,.cls-74{fill:#e94846;}.cls-51,.cls-64{fill:#e85451;}.cls-52,.cls-63{fill:#cd8876;}.cls-53{fill:#9da7d8;}.cls-54{fill:#f3bc5b;}.cls-55{fill:#b77b24;}.cls-56{fill:#ce9334;}.cls-57{fill:#cf8a7f;}.cls-58{fill:#301e49;}.cls-59{fill:#cbcbcb;}.cls-60{fill:#e5e5e5;}.cls-61{fill:#fcb9a4;}.cls-62{fill:#eaa18c;}.cls-65{fill:#718da9;}.cls-66{fill:#3c5677;}.cls-69,.cls-71{fill:#cf9d38;}.cls-72{fill:#eef0f1;}.cls-75{fill:#f4f4ff;}.cls-76{fill:none;stroke:#fff;stroke-miterlimit:10;}</style></defs><g id="Layer_2" data-name="Layer 2"><g id="Option_1" data-name="Option 1"><path class="cls-1" d="M149.75,229.35C64,232-24.67,139.76,16,83.31c31.57-43.79,85-23.65,124-45.2C211.55-1.55,312.66-9.25,332.28,47.25s-27.76,124.12-55,147.92C238.73,228.75,149.75,229.35,149.75,229.35Z"/><path class="cls-2" d="M0,44H44.18a1.51,1.51,0,0,1,1.51,1.51V67.23a1.51,1.51,0,0,1-1.51,1.51H1.51A1.51,1.51,0,0,1,0,67.23V44a0,0,0,0,1,0,0Z" transform="translate(45.69 112.77) rotate(-180)"/><polygon class="cls-2" points="45.69 63.63 45.72 74.55 36.4 63.66 45.69 63.63"/><path class="cls-3" d="M15.14,56.1a2.06,2.06,0,1,1-2.06-2.05A2.06,2.06,0,0,1,15.14,56.1Z"/><path class="cls-3" d="M24,56.08a2.06,2.06,0,1,1-2.07-2A2.06,2.06,0,0,1,24,56.08Z"/><path class="cls-3" d="M32.79,56.05a2.06,2.06,0,1,1-2.07-2A2.06,2.06,0,0,1,32.79,56.05Z"/><polygon class="cls-4" points="97.94 191.47 112.51 191.47 112.51 225.74 102.35 227.64 97.94 224.93 97.94 191.47 97.94 191.47"/><polygon class="cls-5" points="97.94 191.47 101.8 191.47 101.8 227.64 97.94 224.93 97.94 191.47 97.94 191.47"/><polyline class="cls-6" points="86.64 187.89 22.81 152.35 263.86 126.18"/><polyline class="cls-6" points="86.64 187.89 314.36 154.78 314.36 133.91 262.19 125.92"/><path class="cls-7" d="M226.8,44.22s-3.45,24.28,2,35.48,20.53,6.67,22,7.91,1.52,9.73,1.52,9.73l30-2.49L279.7,75.74S273.37,29,226.8,44.22Z"/><path class="cls-8" d="M144.86,125s.18,9.11.23,10.08-.4,3.69,3.65,5,22.36,5,22.36,5l-38.53,4.54s-17.31-3.14-19.74-5.42-2.28-3-2.33-5.46,0-11.47,0-11.47L144.86,125Z"/><path class="cls-9" d="M110.83,125.92c.16,3.71.49,11.69.61,14.94a3.45,3.45,0,0,0,2.21,3.32c2.76,1.29,17.23,4.95,18.92,5.37L171.1,145l.21,1.83-38.87,4.58-.16,0s-16.26-4.07-19.41-5.54a5.32,5.32,0,0,1-3.26-5.1L109,126l1.83-.07Z"/><path class="cls-4" d="M70.57,1.11q33.17,1.29,66.32,2.54t66.33,2.4a5.23,5.23,0,0,1,4.95,4.4c1.79,17.41,3.5,34.82,4.94,52.23s2.7,34.8,4,52.21a4.44,4.44,0,0,1-4.15,4.59c-22.05,2.09-44.05,4.42-66.08,6.33s-44.11,3.33-66.21,4.58a4.81,4.81,0,0,1-4.84-4.59c-1.59-20-3.31-40-4.9-60s-3-40-4.48-60a4.09,4.09,0,0,1,4.11-4.68Z"/><path class="cls-8" d="M71.62,0q33.16,1.31,66.32,2.55T204.27,5a5.21,5.21,0,0,1,4.95,4.39c1.79,17.41,3.5,34.83,4.93,52.23s2.71,34.81,4,52.22a4.43,4.43,0,0,1-4.14,4.59c-22.06,2.09-44.05,4.42-66.08,6.33s-44.11,3.33-66.21,4.58a4.81,4.81,0,0,1-4.84-4.59c-1.59-20-3.31-40-4.91-60s-3-40-4.48-60A4.11,4.11,0,0,1,71.62,0Z"/><path class="cls-10" d="M74.52,7C75.9,26,77.28,45.1,78.8,64.15c1.16,14.52,2.38,29,3.57,43.55l127.87-8.18c-.93-12.46-1.87-24.93-2.9-37.38-1.39-16.82-3-33.62-4.75-50.41q-32.44-1.14-64.91-2.35Q106.1,8.2,74.52,7Z"/><polygon class="cls-4" points="86.64 199.03 86.64 187.89 314.36 154.78 314.36 163.47 86.64 199.03 86.64 199.03"/><polygon class="cls-5" points="86.64 199.03 86.64 187.89 22.81 152.01 22.81 162.4 86.64 199.03"/><path class="cls-8" d="M127.4,162.76c11.23,8.72-2.55,10.76-10.05,10.76-37,0-10.6-26.8,10.05-10.76Z"/><path class="cls-11" d="M130.68,170.5c-2.43,2.32-9,3-13.33,3-16.3,0-20.3-5.2-17.92-9.64,4.76,4.2,14.74,10.07,31.25,6.62Z"/><path class="cls-12" d="M240.14,12c-13.22,3.51-20.12,11.76-19.78,23.3S226.8,48.43,236,48.43s11.7,2,13.34,7.57,4.77,12.22,4.77,16.18-.25,4.63,4.72,7.57,28.26.23,29.84-7.24-1.69-9,2.49-19.22c13.2-32.12-28-47.36-51-41.28Z"/><path class="cls-2" d="M267.92,13.34c-.06,0-21.23-3.64-20.37,36.16l-6.49.13c-.54-24.93,6.73-35,13.91-38.91,5.72-3.11,13-.44,13,2.62Z"/><path class="cls-13" d="M244.65,43.93c6.27,0,11.36,6.26,11.36,14s-5.09,14-11.36,14-11.35-6.25-11.35-14,5.08-14,11.35-14Z"/><path class="cls-14" d="M242.34,71.59c-5.16-1.31-9-6.94-9-13.68s3.88-12.37,9-13.69c5.16,1.32,9,7,9,13.69s-3.87,12.37-9,13.68Z"/><path class="cls-15" d="M235.64,57.91c0-10.79,12.29-10.78,12.29,0s-12.29,10.78-12.29,0Z"/><polygon class="cls-8" points="124.63 156.56 193.09 147.63 228.27 160.06 153.49 172.78 124.63 156.56 124.63 156.56"/><polygon class="cls-16" points="247.76 151.42 262.33 151.42 262.33 226.55 247.76 226.55 247.76 151.42 247.76 151.42"/><polygon class="cls-17" points="247.76 151.42 255.04 151.42 255.04 226.55 247.76 226.55 247.76 151.42 247.76 151.42"/><polygon class="cls-18" points="140.79 120.38 143.35 120.02 147.98 152.45 145.41 152.81 140.79 120.38 140.79 120.38"/><path class="cls-7" d="M222.61,160.33s-22.83,24.54-31.65,25.1c-2.8.18-51.51-18.18-58.37-25.87-2.64-2.95-2.13-6.75-1.89-8a33.29,33.29,0,0,1,1.21-6.38c.89-2.44,3.92-2.67,4.74-5s6.72-1.78,6.72-1.78a8.26,8.26,0,0,0,.86,2.54c.45.43,1.73-.75,2-1s1.3-1.24,3.48-.4,2.49,3.74,3.2,6.68-.83,5.92,2.67,7.89c6.76,3,30.91,9.71,32.72,8.26,2-1.62,19.33-22.32,19.33-22.32l15,20.36Z"/><path class="cls-19" d="M295.18,88.06c-8.74-3.28-14.35-2.6-24.87,0s-39.78,16.06-43.18,20.13-23.62,29.52-23.73,31.44,2,12.67,8.7,19,9.83,6.9,9.83,6.9l8.71-4.18s.16,59.93-2.38,62.87c-.5.58-.65,17-.39,18l86.49-18v-113c-3.06-10.89-8.73-19.17-19.18-23.1Z"/><path class="cls-20" d="M243.65,167.64c0,.08,7.67,28.17,43.93,34.22l-.18,1.07c-36.94-6.16-44.77-34.91-44.8-35l1.05-.3ZM207.8,138.27a28,28,0,0,0,16,23.12l-.46,1a29.15,29.15,0,0,1-16.59-24l1.06,0Zm46,8.94-20.57,13.12-.58-.91,20.57-13.12.58.91Zm-22.1-40c.07,0,23,.12,23,32.32h-1.09c0-31.13-21.82-31.24-21.88-31.24l0-1.08Zm5.5,62.9c0,.14,8.39,48.59,26.7,52.8l-.24,1.06c-19-4.38-27.5-53.53-27.53-53.67l1.07-.19Z"/><path class="cls-11" d="M109.9,158.26c1.31,0,2.38.56,2.38,1.26s-1.07,1.25-2.38,1.25-2.38-.56-2.38-1.25,1.06-1.26,2.38-1.26Z"/><path class="cls-21" d="M144.4,3.75a2.14,2.14,0,0,1,1.67,2.12c.07,1.11-.57,2-1.42,1.91A2.14,2.14,0,0,1,143,5.66c-.07-1.11.56-2,1.42-1.91Z"/><path class="cls-22" d="M144.43,4.29a1.57,1.57,0,0,1,1.23,1.55c.05.82-.42,1.44-1,1.4a1.56,1.56,0,0,1-1.23-1.55c0-.82.41-1.44,1-1.4Z"/><path class="cls-23" d="M140.74,40.65q-15.06-.07-30.09-.2-.7-7.64-1.39-15.31c-.46-5.09-.9-10.22-1.34-15.35L138,10.93q.66,7.47,1.34,14.88c.46,5,.92,9.91,1.39,14.84Z"/><path class="cls-11" d="M122.5,32.64s-.67-.44-3.68.46-4.51,2.36-5,3.81a11.26,11.26,0,0,0-.44,3.56q12.27.11,24.55.17a8.81,8.81,0,0,0-1.4-4.54c-1.2-1.81-8.76-3.47-8.76-3.47a5.49,5.49,0,0,1-5.31,0Z"/><path class="cls-24" d="M131.29,32.68l2.45,1c.2,2.32.42,4.66.64,7H132q-.36-4-.71-7.93Z"/><path class="cls-25" d="M126.67,12.57s-1.19-1.67-4.21-1.51-4.4,2-5,4.42.76,6.39,1.39,7.36,10.65.78,10.65.78,1.08-1.11,1.27-5.45-3.5-6-4.11-5.6Z"/><path class="cls-26" d="M119.27,21.38s-.57-1-1.28-.69-.61,2,.27,3,1.32,1.17,1.28.67-.19-2-.27-3Z"/><path class="cls-26" d="M128.89,21.64s.39-1,1.16-.61,1,2.06.27,3-1.11,1.09-1.16.6-.19-2-.27-3Z"/><path class="cls-7" d="M125.33,26.52l1.15.16s-.21,3.92.45,4.79a9.42,9.42,0,0,0,2.4,1.81,7.69,7.69,0,0,1-4.38.83,6.54,6.54,0,0,1-3.87-1.45s1.59-.56,1.76-1.15a28.35,28.35,0,0,0-.49-4.53l3-.46Z"/><path class="cls-26" d="M125.33,26.52l1.15.16a23,23,0,0,0,.11,3.75,4.85,4.85,0,0,1-3.76-.07c-.13-1.36-.48-3.38-.48-3.38l3-.46Z"/><path class="cls-24" d="M117.27,33.09l2.33-.58c.23,2.68.47,5.34.71,8h-2.38c-.23-2.47-.46-4.94-.66-7.42Z"/><path class="cls-7" d="M118.52,19s.3,5.85,1.94,8a5.12,5.12,0,0,0,6.93,1.32c2.38-1.55,2.16-5.7,2.17-6.66a22.55,22.55,0,0,0-.91-3.9,10.59,10.59,0,0,1-1.69-2.2,6.83,6.83,0,0,1-.27-.85s-.92.57-1.65,1.11a2.33,2.33,0,0,0-.88,1.11,1.19,1.19,0,0,1-.21-1.17c.25-.66.28-.76.28-.76A5.61,5.61,0,0,0,122.07,16a5.14,5.14,0,0,0-.92,1.24s-.43-.12-.29-.78.26-1.16.26-1.16a28.38,28.38,0,0,0-1.86,2.57,4.37,4.37,0,0,1-.74,1.05Z"/><path class="cls-27" d="M122.38,24.78a3.23,3.23,0,0,0,3.69.07c.08.13.16.23.24.35a3.66,3.66,0,0,1-4.15-.12l.22-.3Z"/><path class="cls-27" d="M124.1,21.43a4.12,4.12,0,0,1-.2,1.46.48.48,0,0,0-.11.15c-.13.16-.24.31-.16.42s.72.18.72.18,0,.28,0,.41-.75,0-1-.36-.11-.61.11-.92a.61.61,0,0,0,.1-.14,3.86,3.86,0,0,0,.14-1.23l.4,0Z"/><path class="cls-25" d="M121.39,19.86a.81.81,0,0,1,.64.8c0,.44-.19.8-.49.79s-.6-.37-.64-.81.18-.79.49-.78Z"/><path class="cls-25" d="M125.93,20c.32,0,.6.37.64.81s-.18.78-.49.77a.81.81,0,0,1-.64-.8c0-.44.18-.79.49-.78Z"/><path d="M120,18.86a1.71,1.71,0,0,1,2.37.17l-.26.27a1.33,1.33,0,0,0-1.84-.12,2.08,2.08,0,0,1-.27-.32Zm7.16.21s-1.47-1.1-2.35,0a2.67,2.67,0,0,0,.32.28c.67-.87,1.83,0,1.83,0l.2-.31Z"/><path class="cls-8" d="M121.22,20.2a.2.2,0,0,1,.17.18.14.14,0,0,1-.15.16.19.19,0,0,1-.17-.17.15.15,0,0,1,.15-.17Z"/><path class="cls-8" d="M125.73,20.33a.19.19,0,0,1,.19.17.15.15,0,0,1-.15.17.19.19,0,0,1-.17-.18.14.14,0,0,1,.13-.16Z"/><path class="cls-28" d="M177.59,100c-10.24.77-20.47,1.55-30.69,2.24s-20.46,1.3-30.69,1.89q-1.35-15.53-2.7-31.13t-2.75-31.3q15.4.11,30.82.17t30.84,0c.9,9.75,1.82,19.48,2.69,29.18s1.68,19.34,2.48,29Z"/><path class="cls-3" d="M131,89.6c-.29,0-.57-.1-.85-.17a4.87,4.87,0,0,1-3.67-3.63,3.75,3.75,0,0,1,.7-3.3,4.54,4.54,0,0,1,3.2-1.82,7.54,7.54,0,0,1,1.07,0,1.85,1.85,0,0,0,.62,0,.74.74,0,0,1,.32,0,8.34,8.34,0,0,1,.85.26c.28.1.53.24.83.37a1,1,0,0,1,.14-.16,5.23,5.23,0,0,1,3.28-1.93,5.53,5.53,0,0,1,1.72-.07,1,1,0,0,0,.24,0,.86.86,0,0,1,.55,0,5.88,5.88,0,0,1,2.44,1.13,4.15,4.15,0,0,1,.41,6.16,4.92,4.92,0,0,1-1.31,1c-.13.07-.16.14-.14.3a5.18,5.18,0,0,1-1.11,4,5.25,5.25,0,0,1-3,1.88,5.12,5.12,0,0,1-5.41-2A5.32,5.32,0,0,1,131,89.6ZM168.52,44c-.24.31-.61.34-.78.06.13-.09.24-.1.78-.06Zm2.88,7.48a.83.83,0,0,1,.72,0,.65.65,0,0,1-.09.16.58.58,0,0,1-.45.07c-.11,0-.16-.1-.18-.25Zm-1.52,3.14a1.27,1.27,0,0,1,.79-.11.65.65,0,0,1-.6.35.21.21,0,0,1-.19-.24Zm-5.1-1.74a1,1,0,0,1-.69.11.27.27,0,0,1-.22-.2.75.75,0,0,1,.91.09Zm-.81.38a1.66,1.66,0,0,1,1.06,0,2.26,2.26,0,0,1-.77.29c-.16,0-.2,0-.29-.24Zm6.07-1.4a.68.68,0,0,1-.76.36.22.22,0,0,1-.2-.24,2.72,2.72,0,0,1,1-.12Zm-9.26-7.35a5,5,0,0,1,1.27.08s-.06.08-.1.1a1.67,1.67,0,0,1-.91.11c-.16,0-.2-.06-.26-.29Zm-1.16,8.64s0,.08-.06.09a1.64,1.64,0,0,1-.68.21c-.24,0-.26,0-.38-.26a1.59,1.59,0,0,1,1.12,0Zm13.28,1.23c0,.12,0,.18-.12.24a.85.85,0,0,1-.5.16c-.22,0-.26,0-.37-.24a1.54,1.54,0,0,1,1-.16Zm-12-9.31a3.17,3.17,0,0,1,1.33,0l-.17.1a2.18,2.18,0,0,1-.8.14.33.33,0,0,1-.36-.28Zm4.82,14a1.63,1.63,0,0,1-.94.26c-.16,0-.28-.07-.31-.25a4,4,0,0,1,.93-.14c.1,0,.24,0,.32.13Zm3.75-11.86a.57.57,0,0,1-.47.32l-.36,0c-.2,0-.2,0-.31-.17a1.3,1.3,0,0,1,1.14-.19Zm-3.52,12.41a2.59,2.59,0,0,1-1.12.26c-.13,0-.16-.11-.21-.19s.16-.1.25-.11a2.48,2.48,0,0,1,1.08,0Zm5.84-4.27c0,.12-.11.09-.19,0a.94.94,0,0,1-.45-.59,1,1,0,0,1,.18-.89s.08,0,.18-.08c-.06.3-.22.53-.11.8a2,2,0,0,0,.39.72Zm-.51-4.7a.85.85,0,0,0-.08.22,1.09,1.09,0,0,0,0,.9c.09.19.17.37.27.55a.17.17,0,0,1,0,.1.21.21,0,0,1-.14,0A2.94,2.94,0,0,1,171,52a1.37,1.37,0,0,1,0-1.17.19.19,0,0,1,.24-.12ZM160.68,60.4c-.18-.06-.18-.18-.22-.28s0-.14-.13-.17a.74.74,0,0,1-.21-.22l.26-.13c0-.11,0-.22,0-.33s0-.17.19-.14l.13.48c.16,0,.31,0,.48-.06,0,.25-.28.31-.47.43,0,.13,0,.27,0,.42Zm9.5-16.22c-.18-.17-.19-.19,0-.3s.17-.11.28-.15a1.57,1.57,0,0,1,.29-.08,1.71,1.71,0,0,1,.11,1.28c-.32-.24-.28-.55-.35-.87l-.3.12Zm-1.9,8.66c-.22-.19-.24-.23-.33-.87l-.27-.19c.11-.11.18-.22.28-.31a.29.29,0,0,1,.23,0s.09.11.11.17c0,.23.08.48.12.73a.57.57,0,0,1-.14.51Zm3.58-4.58a.67.67,0,0,1-.28-.52,5,5,0,0,1-.06-.57c-.09,0-.2.08-.26-.06s0-.18.2-.28.25-.08.32,0a.2.2,0,0,1,.06.12c0,.3.1.59.14.89a.7.7,0,0,1-.12.42Zm-5.72-1c.15-.08.2-.28.45-.19-.08.11-.14.22-.21.33.13.18.4.27.41.58l-.57-.32c-.21.12-.17.41-.4.55a.19.19,0,0,1-.11-.27c.08-.17.16-.31.24-.49l-.32-.32c.12-.09.12-.09.51.13Zm4.22-.28c-.13-.14-.38-.17-.37-.41.23-.08.37.12.59.16.18-.11.29-.36.65-.31-.16.16-.29.31-.41.45.09.13.17.24.25.37-.17.09-.28-.06-.43-.07l-.38.44c-.18-.3,0-.43.1-.63Zm-4.77-3c.14-.24.14-.5.38-.72a3.45,3.45,0,0,1-.11.62c0,.21-.07.41-.12.62a5.47,5.47,0,0,1-.15.58.12.12,0,0,1-.13-.13,3.65,3.65,0,0,1,0-.47.39.39,0,0,0-.06-.32c-.11-.21-.22-.43-.31-.63,0,0,0,0,0-.06l0-.11a.3.3,0,0,1,.15.05c.11.17.21.36.33.57Zm-6.87,2.24c-.35-.27-.32-.61-.34-.95l-.18,0a.16.16,0,0,1-.18-.11c0-.07,0-.12.06-.16a2,2,0,0,1,.28-.21c.18-.13.33-.05.36.16s.06.47.1.7a.62.62,0,0,1-.1.52Zm7.59-1.78c-.12,0-.22,0-.24-.12s.06-.12.11-.17a.45.45,0,0,1,.23-.11.32.32,0,0,1,.25,0c.11,0,.08.14.07.22s-.1.26-.15.39l.53.06a.88.88,0,0,1-.52.39.27.27,0,0,1-.29-.07c-.09-.1-.19-.19-.13-.33s.09-.17.14-.3Zm3.12.62c-.17-.43,0-.78.11-1.17a1.67,1.67,0,0,1-.56-.56.15.15,0,0,1,.25,0,.88.88,0,0,1,.19.2c.06.07.1.14.17.24.16-.26.15-.6.48-.73a8.17,8.17,0,0,0-.36,1.31,6.4,6.4,0,0,1-.2.62s0,.07-.08.12ZM168.88,61s-.12,0-.17,0l-.2-.11a1.92,1.92,0,0,1-.76-1.26,2.07,2.07,0,0,1,.08-1s0-.07,0-.09a.1.1,0,0,1,.09,0,.11.11,0,0,1,.07.08,2.72,2.72,0,0,1,0,.31,2.44,2.44,0,0,0,.65,1.86l.24.22Zm-.09-6.56c.41.06.55.21.37.61a1.07,1.07,0,0,1-.5.59c-.26-.13-.27-.21-.11-.39s.2-.22.29-.32,0-.09.06-.15c-.22,0-.44,0-.5-.25h-.09c-.07,0-.16,0-.19-.06a.22.22,0,0,1,.1-.13,1,1,0,0,1,.18-.1c.23-.09.32,0,.39.19Zm.88,5.54s.05-.06.09-.07c.42-.11.83-.22,1.24-.31a2.8,2.8,0,0,1,.5,0c.06,0,.17.06.18.1a.19.19,0,0,1-.06.19.4.4,0,0,1-.27.11l-1.17.22-.15,0c-.21,0-.27,0-.36-.23Zm2.79.4a.44.44,0,0,1-.08-.17,4.87,4.87,0,0,1,0-.54,1.69,1.69,0,0,1,.07-.38,1.32,1.32,0,0,0-.21-1c-.06-.08-.16-.15,0-.23s.19,0,.24.11a1.34,1.34,0,0,1,.36,1,2.49,2.49,0,0,1-.2,1.05,2,2,0,0,0-.11.2Zm.06-9.18c-.16,0-.29,0-.34-.13s0-.16.22-.25l.14,0c.26-.06.4,0,.38.29a2.84,2.84,0,0,1-.06.31,1.34,1.34,0,0,0-.08.26H173l.24,0a.42.42,0,0,1-.69.35c-.15-.12-.26-.26-.18-.45s.07-.2.12-.34Zm-5.34-3.28L167,48c-.16-.14-.18-.17-.07-.28a1,1,0,0,1,.34-.19c.23-.06.38.07.32.27s-.12.34-.17.51a.73.73,0,0,0-.06.21l.49.06a.47.47,0,0,1-.58.41.43.43,0,0,1-.29-.44,3,3,0,0,1,.14-.42,1.11,1.11,0,0,1,.09-.19l0,0Zm-6.54,5.18c.13-.24.16-.51.4-.72v.13a6.28,6.28,0,0,0-.3,1.59,8.89,8.89,0,0,1-.13.88s0,.07-.08.15l-.07-.21a3.44,3.44,0,0,1,.07-1.24.46.46,0,0,0-.07-.35c-.12-.2-.22-.44-.33-.66s0-.14,0-.15a.24.24,0,0,1,.17.06c.11.17.19.33.3.52Zm-3.39-6.89a.22.22,0,0,1-.12-.3c0-.19.11-.38.17-.57l.18-.45a2.11,2.11,0,0,1-.74-.83c.1-.11.18-.08.26,0l.32.41.2.25c.18-.33.21-.7.52-.94a12.49,12.49,0,0,1-.79,2.4Zm16.1,7.6a.51.51,0,0,0,0,.48c.13,0,.13-.06.14-.13s0-.23,0-.35l0-.09c0,.49.08,1,.13,1.44-.11-.11-.11-.27-.18-.41a.41.41,0,0,1-.46-.28.68.68,0,0,1,0-.59c0-.09.13-.13.28-.07Zm-11.72-.64-.17.12c-.19-.14-.19-.15-.11-.31a.53.53,0,0,1,.38-.33c.21-.05.38.07.36.27s-.08.35-.12.52-.07.24-.11.37l.52,0a.4.4,0,0,1-.25.46.48.48,0,0,1-.48,0,.49.49,0,0,1-.22-.5c.06-.19.12-.39.2-.62Zm9.43,9.31c-.2-.24-.1-.49-.19-.71-.19,0-.27,0-.35-.22l.38-.18c0-.13,0-.25,0-.4l-.4.06c-.2,0-.22,0-.28-.22a3.93,3.93,0,0,1,.83-.23c.19,0,.27.06.27.24a3.17,3.17,0,0,0,0,.43c.19.07.38-.08.56.09a2.22,2.22,0,0,1-.36.16.23.23,0,0,0-.17.25,1.1,1.1,0,0,1-.25.73Zm-.44-4.34.18.05c.28.1.36.2.32.45a.73.73,0,0,1-.26.51.47.47,0,0,1-.7,0,2.91,2.91,0,0,1-.21-.27l.36,0a.31.31,0,0,0,.35-.22.76.76,0,0,1-.43-.21.36.36,0,0,1,0-.43,2.24,2.24,0,0,1-.27-.13s0-.1-.06-.15a.54.54,0,0,1,.61,0c.21.11.12.29.11.47Zm-11.33,1.71c.09-.28.16-.52.24-.76a1,1,0,0,1,.09-.21s.07-.12.15-.06,0,.09,0,.13c-.07.32-.14.61-.2.91-.1.48-.19.94-.28,1.4,0,0,0,.11,0,.17a.65.65,0,0,1,0,.14c0,.07,0,.17-.15.15s-.13-.11-.14-.17a.9.9,0,0,1,0-.43,4.06,4.06,0,0,1,.15-.71.43.43,0,0,0-.08-.41c-.2-.27-.39-.54-.56-.8a.68.68,0,0,1-.1-.27s0-.09.08-.09a.17.17,0,0,1,.12,0c.12.36.48.59.67,1Zm13.62,4.37.5-.28s0,0,0,0l-.08.13c.41.14.45.2.4.63l0,0c.31.14.36.25.28.55a.9.9,0,0,1-.52.54.72.72,0,0,1-.9-.47c.05,0,.1,0,.16,0a1.53,1.53,0,0,0,.32.05.5.5,0,0,0,.53-.3c-.12,0-.26,0-.35-.1s-.09-.16,0-.26a.54.54,0,0,0,.14-.32c-.16-.14-.46.07-.54-.25Zm-11-4.84c-.19-.14-.22-.23-.14-.4a.78.78,0,0,1,.59-.36c.28,0,.44.11.43.36a.73.73,0,0,1-.07.3c-.08.22-.17.44-.28.69a2,2,0,0,1,.92.19,1.63,1.63,0,0,1-.93.34c-.34,0-.59-.34-.47-.61s.19-.37.28-.56l.13-.29c-.14,0-.25,0-.25.12s-.12.17-.21.22ZM167.48,56c-.09-.13-.18-.19-.21-.28A7.38,7.38,0,0,1,167,55c-.17-.62-.36-1.22-.51-1.83a3.81,3.81,0,0,1-.09-1.57,1.46,1.46,0,0,1,.12-.39.51.51,0,0,1,.13-.16s.1,0,.12,0,.06.08,0,.12a.28.28,0,0,1,0,.17c-.23.2-.16.48-.15.75A7.17,7.17,0,0,0,167,54c.17.52.36,1,.53,1.55a.48.48,0,0,1-.07.49Zm-3.3-12.76-.08-.18a.65.65,0,0,0-.21.34,2.38,2.38,0,0,0-.08,1q.09,1,.24,2.07c0,.39.12.78.18,1.17a2.33,2.33,0,0,1,.08.36.32.32,0,0,1-.1.34.39.39,0,0,1-.23-.27,3.72,3.72,0,0,1-.11-.48c-.1-.84-.21-1.69-.28-2.53a5,5,0,0,1,0-1.49,2.53,2.53,0,0,1,.12-.36.47.47,0,0,1,.12-.18.28.28,0,0,1,.31-.14c.06.05.08.12,0,.35Zm.55,3a1.58,1.58,0,0,1,.64-.15c.69-.08,1.4-.14,2.09-.24s1.61-.28,2.41-.42a12.61,12.61,0,0,1,2.13-.22,1.12,1.12,0,0,1,.32,0,.16.16,0,0,1,.12.1.18.18,0,0,1-.08.13,1.75,1.75,0,0,1-.41.09,28.08,28.08,0,0,0-3.17.43,24.07,24.07,0,0,1-2.43.32l-1.34.09c-.19,0-.2,0-.28-.17Zm8.72,6.62-2,.3-1,.09a16.64,16.64,0,0,0-1.88.23c-.23,0-.47,0-.7.05a.13.13,0,0,1-.12,0s-.08-.07-.08-.11.05-.07.08-.1a.38.38,0,0,1,.1,0l1.45-.28c.43-.07.87-.09,1.29-.15.59-.07,1.19-.15,1.78-.24l1.11-.16c0,.14,0,.3,0,.43Zm-38.21.89a.92.92,0,0,0,.14.14c1.25.93,2.59,1.75,3.92,2.58l5.25,3.26.09.06c.19.11.3.24.22.45,0,0,0,0,0,0l.28.07c.13.05.17.14.12.25a.34.34,0,0,1-.32.23l-1.39.08L141.9,61l-1.81.09-1.63.07-1.72.06c-.62,0-1.28,0-1.9,0s-1.34.1-2,.14c-.51,0-1,.11-1.5.13a6,6,0,0,1-1-.11.28.28,0,0,1-.24-.15s0-.09,0-.1.06-.2.05-.31a4,4,0,0,1-.05-.69A5.23,5.23,0,0,0,130,59c-.08-.75-.17-1.5-.25-2.25-.06-.41-.11-.82-.16-1.23-.2-1.36-.36-2.73-.47-4.12-.07-.76-.13-1.52-.19-2.28,0-.13,0-.27,0-.4s.21,0,.29.08.29.37.45.53L131,50.48l1.55,1.25c.8.64,1.6,1.29,2.41,1.91a1.76,1.76,0,0,0,.23.14c-.16-.17-.34-.34-.5-.53a1.77,1.77,0,0,1-.21-.32,1,1,0,0,1,0-1.14,2.47,2.47,0,0,1,.65-.64,10.65,10.65,0,0,1,2.28-1.22l1.51-.54h0a21.51,21.51,0,0,1,1-2.87,5.83,5.83,0,0,0,.42-1.44c0-.15.09-.2.25-.17a.2.2,0,0,1,.19.24c0,.14-.06.27-.1.4-.28.73-.57,1.45-.85,2.18-.19.47-.36,1-.55,1.4a1.15,1.15,0,0,1,0,.2,2.07,2.07,0,0,1,.24-.06,17.16,17.16,0,0,1,3-.54,27.16,27.16,0,0,1,2.87-.15,6.48,6.48,0,0,1,1.45.14,1.22,1.22,0,0,1,.27.09c.08.05.12.12.05.21a.54.54,0,0,0-.36-.16,6.89,6.89,0,0,0-1-.09,22.44,22.44,0,0,0-6.36.84,14.07,14.07,0,0,0-3.65,1.62,3.76,3.76,0,0,0-.87.77.67.67,0,0,0,0,.79,2.31,2.31,0,0,0,.74.75,4,4,0,0,0,1.69.59c.65.11,1.32.19,2,.25l2.55.1a12.4,12.4,0,0,0,3.75-.38,4.28,4.28,0,0,0,1.94-1,2.56,2.56,0,0,0,.88-1.73,2.82,2.82,0,0,0-.34-1.25.55.55,0,0,0-.34-.31,3.11,3.11,0,0,0-1.08-.19,7.37,7.37,0,0,1-1.54-.19,9.42,9.42,0,0,1-.92-.34c.07-.11.18-.09.26-.09l1.46.06.86.06a3.26,3.26,0,0,1,1,.18,1.38,1.38,0,0,1,.73.63,2.76,2.76,0,0,1-.34,3.24,4.25,4.25,0,0,1-2.31,1.33,9.55,9.55,0,0,1-2.27.39c-.63,0-1.29.07-1.94,0a36.62,36.62,0,0,1-4-.31,5.38,5.38,0,0,1-2.21-.81Zm-14.52-8.15a.4.4,0,0,1-.22,0,.26.26,0,0,0-.35.08.91.91,0,0,0-.16.24c.11.24.4.39.31.66-.12,0-.18,0-.24-.11a1.65,1.65,0,0,1-.42-.93.55.55,0,0,0,.18.06c.12-.21.26-.43.57-.4s.25.24.36.39,0,0,0,0ZM141,62.81a1.28,1.28,0,0,1,.59-.19c.15,0,.21.08.16.21s-.25.21-.44.24-.21-.12-.31-.26Zm-16.93-6.73a.47.47,0,0,1-.36.28l-.52,0a.17.17,0,0,1-.18-.14,1.8,1.8,0,0,1,1.06-.18Zm14.36-3.67a1,1,0,0,1,.91-.08c0,.18-.19.23-.34.27a1.12,1.12,0,0,1-.32,0c-.16,0-.18-.11-.25-.23Zm-.55,10.78a1,1,0,0,1-.7.38.26.26,0,0,1-.23-.13c-.08-.09-.05-.16.05-.19a2.1,2.1,0,0,1,.88-.06Zm.47-11.38a1.33,1.33,0,0,1,1,0c-.05.24-.24.24-.43.23s-.42,0-.53-.28Zm5.08.08.26.12c-.25.1-.22.3-.32.48-.12-.12-.17-.26-.34-.28s-.09-.12,0-.18a.85.85,0,0,1,.15-.09.81.81,0,0,1,0-.22s.06-.1.1-.1.1.05.12.09a1,1,0,0,1,.06.18Zm12-7.25a2.11,2.11,0,0,1,1.27,0,.49.49,0,0,1-.15.11,1.93,1.93,0,0,1-.93.08c-.11,0-.16-.06-.19-.19ZM122.94,55.51a2,2,0,0,1,.88-.11.34.34,0,0,1,.16.1c0,.08-.06.12-.12.15a1.44,1.44,0,0,1-.68.12c-.15,0-.18,0-.24-.26Zm13.8,7.25a.51.51,0,0,1,.15-.07,4.76,4.76,0,0,1,.65-.06c.12,0,.25,0,.32.1s-.08.19-.25.22-.43,0-.66,0-.1,0-.21-.21ZM154,59.32c0,.07-.06.14-.1.17a6.65,6.65,0,0,1-.56.36.37.37,0,0,1-.18,0,.24.24,0,0,1-.23-.17c0-.09,0-.11.11-.15a2.3,2.3,0,0,1,1-.25ZM128.76,46.5a.36.36,0,0,1-.13-.11c-.12-.18-.23-.35-.34-.54a.38.38,0,0,1,0-.13.1.1,0,0,1,.18-.08s.08.09.12.13l.52-.27a1.18,1.18,0,0,1,0,.16l-.16.2c-.09.1-.19.18-.08.35s0,.21-.08.29Zm15.79,5.15c-.2.07-.29.17-.27.37a.3.3,0,0,1,0,.24,1.14,1.14,0,0,1-.2-.92c.22,0,.12.15.22.22a1.75,1.75,0,0,1,.2-.16.29.29,0,0,1,.4.12c.12.2.21.41,0,.61-.23-.09-.25-.29-.32-.48Zm-1,10.45h.24c.16,0,.2.1.14.22a.37.37,0,0,1-.44.21.42.42,0,0,1-.29-.41,1.37,1.37,0,0,1,0-.19c-.13,0-.13,0-.24.18-.17-.14-.18-.21,0-.34a.42.42,0,0,1,.22-.14c.23-.09.35,0,.38.23,0,.07,0,.15,0,.25Zm-1,1.12a2.23,2.23,0,0,1-.17-.25,3.57,3.57,0,0,1-.19-.61s0-.08.06-.13.12,0,.14.07.07.12.11.19,0,0,0,0c.26-.2.42-.16.6.12a.42.42,0,0,1,0,.52c-.28-.06-.25-.32-.38-.49a.22.22,0,0,0-.13.3c.05.1,0,.17-.09.29Zm-17.23-20.5a.84.84,0,0,0,.25-.13c.3-.27.39-.28.78-.05,0,.28-.1.33-.4.18l-.36.32a2.63,2.63,0,0,1,.32.9,1.7,1.7,0,0,1-.59-1.22Zm15.82,19.43a.63.63,0,0,1-.71.35.3.3,0,0,1-.22-.43.67.67,0,0,1,.09-.14l0,0a.19.19,0,0,1-.09-.26.26.26,0,0,1,.3-.1.2.2,0,0,1,.2.21,2.65,2.65,0,0,1,0,.27c.33,0,.33,0,.49.15Zm-3.48-9.7a.71.71,0,0,1-.4.4.28.28,0,0,1-.32-.07,1.14,1.14,0,0,1-.4-.84.56.56,0,0,1,.65-.42c.14,0,.15.08.07.26h-.11c-.28,0-.37.18-.26.41a.42.42,0,0,0,.09.16.24.24,0,0,0,.27.12l.29,0,.12,0Zm-21.77,9.49c-.12.22-.14.46-.31.62-.09,0-.15-.07-.12-.17.09-.27.19-.55.28-.84,0-.07.05-.13.16-.14a.17.17,0,0,1,.17.14c.16.35.31.67.46,1a.46.46,0,0,1,0,.48c-.37-.28-.37-.72-.61-1.1Zm11.79-7.11c.16,0,.16,0,.33.23l.1-.11a.41.41,0,0,1,.68.16,1,1,0,0,1,.1.85c-.33-.2-.34-.53-.46-.82-.23,0-.34.12-.34.32s0,.24,0,.36,0,.15,0,.24a2.43,2.43,0,0,1-.4-1.23ZM145,50.77l-.21.14c-.17-.16-.19-.26,0-.36a.48.48,0,0,1,.21-.12c.26-.08.43,0,.43.3a1.07,1.07,0,0,1,0,.25c.17,0,.33-.07.5.06a.46.46,0,0,1-.29.43.52.52,0,0,0-.16.06.35.35,0,0,1-.49-.38,1.38,1.38,0,0,1,.06-.26v-.12ZM140,63.21c-.26-.14-.28-.35-.36-.56-.24.12-.06.41-.26.54-.2,0-.2-.22-.31-.37a3.82,3.82,0,0,0-.09.44c-.26-.08-.31-.3-.22-.77h.47s.09-.06.13-.1c.27-.18.5-.11.6.19a2.24,2.24,0,0,1,.1.37.78.78,0,0,1-.06.27Zm-19.73-2.72c.3,0,.26.28.42.4s.07-.11.11-.18a.33.33,0,0,1,.25-.22.28.28,0,0,1,.31.06c0,.08,0,.27,0,.32-.28.16-.26.42-.26.68a.89.89,0,0,1,0,.32c0,.09-.11.1-.19,0a1.22,1.22,0,0,1-.12-.19c-.14-.36-.29-.73-.42-1.11,0,0,0,0,0-.1Zm22.08-9.44a1.3,1.3,0,0,1,.31-.06,1,1,0,0,1,.24,0,.16.16,0,0,1,.11.1.31.31,0,0,1-.19.33c-.16.05-.34.08-.51.12a.26.26,0,0,1-.29-.1c-.07-.09-.14-.18-.08-.3a4.94,4.94,0,0,0,.2-.51c-.18,0-.23.1-.3.19-.2-.1-.24-.21-.1-.32a1,1,0,0,1,.38-.18.26.26,0,0,1,.3.25.72.72,0,0,1,0,.25c0,.07,0,.15,0,.24Zm11.91-5.87a6.29,6.29,0,0,1,.58-1.32.24.24,0,0,1,0,.08c-.2.78-.41,1.56-.61,2.33,0,0,0,.06-.08.11s-.05-.09-.07-.14a.86.86,0,0,1,0-.32,1.34,1.34,0,0,0-.13-.89,6.59,6.59,0,0,1-.24-.87c0-.08,0-.15.09-.16s.14.07.15.14c.09.33.19.67.29,1Zm-32.89,9.5a3.44,3.44,0,0,1,.23.85,1.76,1.76,0,0,0,.2-.09.39.39,0,0,1,.55.34.88.88,0,0,1-.24.76.25.25,0,0,1-.3.12.48.48,0,0,1-.37-.31,1.13,1.13,0,0,1,0-.18,4.27,4.27,0,0,0-.1-1.23,1.1,1.1,0,0,1,0-.25Zm.66,1h0c-.28.06-.39.3-.28.6a.46.46,0,0,0,.28-.6Zm35.94-3s0,.07,0,.11c-.06.7-.14,1.39-.22,2.09a1.09,1.09,0,0,0-.06.11.29.29,0,0,1-.17-.28,3.09,3.09,0,0,1,0-.43.54.54,0,0,0-.08-.28c-.23-.38-.43-.76-.63-1.13a.12.12,0,0,1,0-.19c.08,0,.14,0,.18.09a1.1,1.1,0,0,1,.15.24c.13.23.27.47.43.73,0-.19.08-.38.13-.55a1.13,1.13,0,0,1,.16-.52Zm-30.27,3.36c-.28-.15-.29-.44-.44-.71a.94.94,0,0,1,0,.28c0,.06,0,.15-.11.16s-.14-.06-.18-.15a2.63,2.63,0,0,0-.16-.26.4.4,0,0,0-.06.16c0,.1.06.2.07.3a.64.64,0,0,1,0,.22,1.36,1.36,0,0,1-.34-1.07c.16-.05.1.14.2.16a.65.65,0,0,1,.21,0,.19.19,0,0,0,.16-.09.33.33,0,0,1,.6.06,2.13,2.13,0,0,1,.21.49.47.47,0,0,1-.08.49Zm-2.21,0c.28,0,.51-.18.77,0,0,0,0,.09,0,.13a.74.74,0,0,1-.7.32.49.49,0,0,1-.38-.56,3.24,3.24,0,0,1,.14-.4c-.09,0-.2.11-.28,0a.26.26,0,0,1,0-.3.58.58,0,0,1,.46-.23.18.18,0,0,1,.23.18,1.17,1.17,0,0,1,0,.38,4.12,4.12,0,0,1-.2.51Zm1.44-14.29V42c.24,0,.44-.18.72-.07a.73.73,0,0,1-.36.53l-.25.13a.33.33,0,0,1-.38,0,.45.45,0,0,1-.18-.41c0-.13,0-.23.06-.36s0,0,0-.06Zm-9.3,20.78a.91.91,0,0,1-.29.5,15.49,15.49,0,0,1-1.72,1.51l0,0c-.06,0-.12.1-.2,0a.15.15,0,0,1,0-.23l.76-.69c.25-.27.51-.53.79-.79a3.19,3.19,0,0,1,.4-.33,1.26,1.26,0,0,1,.25-.07l0,0ZM127.76,47a2.27,2.27,0,0,1-.56-.94,2.07,2.07,0,0,0-.25.15c-.16-.15-.16-.15-.06-.3a3.52,3.52,0,0,1,1-.91c.11-.06.11-.06.28,0a4.53,4.53,0,0,1-.34.39.23.23,0,0,0,0,.32c.13.29.27.57.37.86a.72.72,0,0,1,0,.35,3.29,3.29,0,0,1-.64-1.23l-.24.19c.15.26.28.54.42.8s.12.21,0,.34Zm12.69,5.47a.25.25,0,0,1-.2-.29c0-.2,0-.42,0-.64a.38.38,0,0,0,.28-.06.36.36,0,0,1,.43,0,2,2,0,0,1,.32-.11.32.32,0,0,1,.39.16,5.68,5.68,0,0,1,.17.82c0,.09,0,.17-.09.29-.39-.2-.36-.51-.42-.81-.21.09-.12.35-.29.46-.27-.09-.27-.32-.33-.57a.51.51,0,0,0-.15.39.36.36,0,0,1-.09.33Zm-5,10.82a1.57,1.57,0,0,1-.12.21c-.16.24-.42.23-.62,0a.67.67,0,0,1,.48-1,.3.3,0,0,1,.31.13,2.36,2.36,0,0,0,.15.25,1.66,1.66,0,0,0,.22.32.31.31,0,0,0,.28.14c.1,0,.16,0,.15.11a.29.29,0,0,1-.15.27.24.24,0,0,1-.3,0,4.64,4.64,0,0,1-.4-.36Zm-.3-.51h0c-.29.22-.32.31-.14.49a.73.73,0,0,0,.14-.49Zm-18.59,2.94c.27.15.32.14.51-.07a.57.57,0,0,0,.19-.51H117a.24.24,0,0,1-.25-.34,1.63,1.63,0,0,1,.11-.23l-.06,0c-.1.16-.21.3-.32.45a.17.17,0,0,1-.09-.26,1.69,1.69,0,0,1,.53-.66.26.26,0,0,1,.14,0c.12,0,.2,0,.2.13a1.43,1.43,0,0,1-.07.37.74.74,0,0,1-.07.21l0,0c.43,0,.55.17.5.58a1.06,1.06,0,0,1-.35.72.47.47,0,0,1-.73-.23,1,1,0,0,1,0-.12Zm8.72-23.42c-.14.17-.24.32-.35.44a.28.28,0,0,0-.07.31c.06.14.1.29.16.42a2.14,2.14,0,0,1,.14.87c-.14-.1-.2-.18-.35-.61-.08-.22-.13-.41-.21-.68l-.37.26.3.57c.07.13.15.26.2.38a.3.3,0,0,1,0,.33c-.2-.09-.2-.09-.66-1.15l-.26.15s-.09.09-.16.1a.21.21,0,0,1-.17,0c-.07-.05,0-.11,0-.17a4.29,4.29,0,0,0,.35-.28c.36-.29.73-.59,1.1-.87.11-.07.11-.06.35,0Zm.69,4.54a2.39,2.39,0,0,0-.13.21c-.18-.1-.24-.21-.18-.36a2.52,2.52,0,0,1,.28-.48c.08-.13.23-.12.36-.08s.16.17.15.32,0,.48-.08.73c0,0,0,.09,0,.17a2.88,2.88,0,0,1,1-.32c0,.07,0,.12,0,.13a4.5,4.5,0,0,1-.8.77c-.11,0-.21.14-.33,0a.42.42,0,0,1-.23-.4l.12-.71,0,0Zm28.72,12.59c.58-.12,1.06-.32,1.58-.38a0,0,0,0,1,0,0,.4.4,0,0,1-.14.15c-.28.17-.53.35-.81.5a1.7,1.7,0,0,1-.48.16.42.42,0,0,1-.44-.14c-.1-.13-.2-.26-.12-.44a4.3,4.3,0,0,0,.24-.48c0-.09.07-.19.1-.28a.37.37,0,0,0-.42.09l.11.22a.24.24,0,0,1-.24-.15.22.22,0,0,1,0-.3.56.56,0,0,1,.54-.16.37.37,0,0,1,.31.43,2.35,2.35,0,0,1-.15.47,1.06,1.06,0,0,1-.13.27Zm-3.55.8c0,.23.14.44,0,.6a.3.3,0,0,1-.2-.24c-.09-.27-.18-.55-.26-.85,0,0,0-.15,0-.17a.32.32,0,0,1,.25-.05,1.83,1.83,0,0,1,.3.18,1.52,1.52,0,0,0,.18.17l.28-.54a.36.36,0,0,1,.27-.17.26.26,0,0,1,.33.14,3.82,3.82,0,0,1,.35.81.27.27,0,0,1-.08.29c-.35-.11-.4-.42-.59-.71-.08.21-.14.37-.2.55-.12.35-.17.36-.48.09a.46.46,0,0,0-.12-.1Zm-.6.81a1,1,0,0,1-.53.46c-.32.12-.64.23-1,.32a.38.38,0,0,1-.5-.19.29.29,0,0,1,0-.32c.16-.26.32-.51.47-.77a2.92,2.92,0,0,0,.19-.23l-.24,0-.88.24c-.16,0-.16,0-.26-.11a3.71,3.71,0,0,1,1.94-.51c.08.15,0,.27-.08.38s-.21.26-.32.4a4.35,4.35,0,0,0-.36.55,2.81,2.81,0,0,1,1.53-.26Zm-29.3-1.81c-.23,0-.21.24-.31.37-.17-.09-.21-.16-.21-.29a.54.54,0,0,1,.48-.46.29.29,0,0,1,.36.27,3.28,3.28,0,0,1,0,.46c0,.07,0,.14,0,.23l.65-.18c0-.08-.07-.19-.11-.29a2.5,2.5,0,0,0-.09-.25.13.13,0,0,1,.05-.09s.1,0,.11,0a.91.91,0,0,1,.08.13l.37.76.15-.21a.35.35,0,0,1,.56,0,1.77,1.77,0,0,1,.23.35c.08.17.14.35.21.53a.7.7,0,0,1,0,.14c-.38-.15-.49-.51-.69-.78a.38.38,0,0,0-.12.44,1,1,0,0,0,.08.24A.29.29,0,0,1,123,61c-.14,0-.2-.13-.24-.22s-.22-.47-.33-.7c0-.07-.05-.15-.11-.27a.65.65,0,0,1-.17.16,3.42,3.42,0,0,1-.4.36c-.13.1-.25.07-.37-.08a.58.58,0,0,1-.14-.43c0-.18,0-.36,0-.55Zm-2.86,2.16-.32.22c-.08,0-.15.09-.23,0a.13.13,0,0,1,0-.21c.14-.13.26-.27.4-.39.36-.3.72-.61,1.11-.91a.81.81,0,0,1,.34-.15.49.49,0,0,1,.23,0c0,.33-.31.46-.52.64a2.94,2.94,0,0,1,.52,1.84c0,.1-.07.17-.11.27-.22-.13-.22-.14-.18-.38a1.54,1.54,0,0,0,0-.3,3.69,3.69,0,0,0-.4-1.3l-.58.42c.11.37.23.71.32,1.06a2.75,2.75,0,0,1,.12.57.69.69,0,0,1,0,.25c0,.12-.16.13-.22,0a.36.36,0,0,1-.08-.25c-.1-.42-.18-.84-.27-1.26,0-.06,0-.1-.06-.18Zm23.7-18.12a6.16,6.16,0,0,1,.62-.27c.42-.16.85-.32,1.27-.46a1.7,1.7,0,0,1,.26,0,.43.43,0,0,0,0,0s0,.06-.09.08l-1.12.59a3.11,3.11,0,0,0-.38.25l.3.16c0,.17-.17.06-.23.11a3,3,0,0,1,.41.39.34.34,0,0,1,.08.26s-.06.08-.12.09l-.09-.08s0-.06-.05-.07l-.76-.46c0,.26.09.49,0,.71-.23-.11-.12-.42-.39-.52-.27.21-.6.36-.75.7-.16-.07-.2-.13-.13-.25a4.11,4.11,0,0,1,.27-.35.86.86,0,0,0,.14-.18c-.25.13-.57.13-.7.43-.23-.1-.26-.19-.07-.32a3.07,3.07,0,0,1,.43-.26c.14-.08.3-.15.5-.27a4.13,4.13,0,0,0-1.33-.2s0,.08,0,.13a2.51,2.51,0,0,1-.23-.11c-.12-.1-.12-.22,0-.25a6.15,6.15,0,0,1,.75-.06l.34,0c-.06-.18-.3-.28-.3-.47a.2.2,0,0,1,.26,0,4.15,4.15,0,0,1,.32.27.35.35,0,0,0,.38.08c0,.07,0,.23.16.22q0-.42.06-.81a1.38,1.38,0,0,1,.08-.29c0-.07.06-.12.16-.08.08.22-.08.38-.05.59s0,.4,0,.61Zm15.82,21.49c-.08.17-.11.21-.28.15a.86.86,0,0,1-.27-.09,10.44,10.44,0,0,0-2.71-1c-.82-.21-1.64-.39-2.44-.58-.46-.11-.34,0-.63-.37a.93.93,0,0,0-.19.11l.94,1c.06.1.14.21.22.33a.2.2,0,0,1,0,.26c-.07.09-.18,0-.26,0a1.63,1.63,0,0,1-.29-.23,7,7,0,0,1-.47-.58c-.16-.17-.3-.36-.46-.54l-.1-.11c-.17-.24-.16-.31.11-.44a6,6,0,0,0,1.19-.67c.09-.07.09-.07.26-.06,0,.36-.37.42-.54.67l.26.08c.79.21,1.6.41,2.4.64a12.46,12.46,0,0,1,2.13.73l.16.08,1,.56ZM120,43.41a4.76,4.76,0,0,1,3,1,4.29,4.29,0,0,1,1.64,2.49,5,5,0,0,1-1,4.47,4.79,4.79,0,0,1-3.2,1.73,4.67,4.67,0,0,1-4.47-1.94,4.57,4.57,0,0,1-1-3,4.39,4.39,0,0,1,1.18-3,4.46,4.46,0,0,1,1.44-1.1,1,1,0,0,0,.14-.15.51.51,0,0,1,.18-.13,5.06,5.06,0,0,1,2.09-.41Zm3.82,2.64h0l-.18.12c-.46.3-.9.63-1.38.9-.84.5-1.7.94-2.56,1.43a.41.41,0,0,1-.27-.27c-.07-.15,0-.26.13-.29a1.2,1.2,0,0,0,.34-.17,3.46,3.46,0,0,1,.45-.29,31.91,31.91,0,0,0,2.93-1.75l.23-.16a4.59,4.59,0,0,0-5.37-1.27s-.11,0-.13,0-.23,0-.32,0a5,5,0,0,0-1.46,1.32,4.14,4.14,0,0,0-.58,4,4.48,4.48,0,0,0,8.63-2.13,3.77,3.77,0,0,0-.46-1.46Zm20.68,14.32h0l-.23-.16c-1.85-1.16-3.7-2.34-5.57-3.49a48.14,48.14,0,0,1-6.4-4.68c-.2-.18-.4-.33-.58-.5-.5-.44-1-.85-1.49-1.29-.32-.28-.6-.6-.9-.91l-.14-.15c0,.1,0,.16,0,.22.07.61.15,1.23.21,1.86.06.42.11.85.16,1.26l.3,2.15c.09.68.2,1.34.29,2s.16,1.18.24,1.77c0,.34.11.69.16,1.06l.2,0a9.8,9.8,0,0,1,1.54-.16l.2.05a5.33,5.33,0,0,0,.23,1.52c.76,0,1.49-.11,2.24-.14.55,0,1.11,0,1.66,0,.83,0,1.66-.08,2.48-.12l1.32-.07,2.6-.12c.43,0,.85-.05,1.28-.05l.15,0ZM132.24,61h0c0-.44-.08-.86-.12-1.27a5.46,5.46,0,0,0-1.51.15v1.2a6.86,6.86,0,0,0,1.63-.08Zm-11.7,11.16c.14,0,.22,0,.28.14s.25.53.38.8l.15.25c0-.24.07-.43.11-.61.14-.61.26-1.19.4-1.8A6.7,6.7,0,0,0,122,69.4c0-.07,0-.15,0-.21s.09-.28.29-.21a4.12,4.12,0,0,0,1.16.07h4l2.3,0c.88,0,1.75,0,2.63,0l2.6,0,3.62-.06c1.21,0,2.43-.09,3.63-.15l2.43-.2,1.42-.13c.36-.05.7-.09,1.05-.12a.32.32,0,0,1,.4.21l.72-.13a7.78,7.78,0,0,1,1.36-.17c.36,0,.72-.06,1.08-.07.21,0,.28.07.21.26s-.12.23-.32.22a11.07,11.07,0,0,0-2.58.23,2.45,2.45,0,0,1-1.08.06,3.33,3.33,0,0,0-1.22,0c-.38,0-.78.07-1.17.11-1.29.13-2.58.16-3.9.21l-4.73.17-4.36,0h-2.24l-3.43,0H123.3c-.27,0-.54,0-.83,0,0,0,0,0,0,.09a8.48,8.48,0,0,1-.34,2.19l-.36,1.81c0,.06,0,.14,0,.21s0,.12,0,.17a2.31,2.31,0,0,1-.16.19c0-.06-.13-.1-.18-.16a6.27,6.27,0,0,1-.84-1.7s0-.06,0-.1Zm23.16.63h-.15s-.05-.1,0-.14a.87.87,0,0,1,.37-.56s0,0,.07,0a1,1,0,0,1,.31,0c.1.06.06.18,0,.27s-.15.36-.22.55l.56-.07.19,0c0,.07,0,.14,0,.18a.93.93,0,0,1-.78.41.28.28,0,0,1-.26-.13.64.64,0,0,1-.06-.52ZM152.4,66a.38.38,0,0,1,.21.48.56.56,0,0,1-.21-.48ZM147,71.83a.31.31,0,0,1-.23.24,1.13,1.13,0,0,1-.71.09c-.12,0-.16-.1-.17-.23.35-.16.73,0,1.11-.1Zm23.24-6.29v0a1.68,1.68,0,0,1-1.07.4c-.16,0-.17,0-.31-.24.1-.14.28-.07.43-.1a2.66,2.66,0,0,1,.49-.1.89.89,0,0,1,.46,0Zm-1.56-.3.42-.11a1.37,1.37,0,0,1,.67,0c.12,0,.24.07.21.25-.3.05-.64.1-1,.13s-.22,0-.34-.24Zm-8.8,8.43a1.65,1.65,0,0,1,1.4-.06,1.09,1.09,0,0,1-.54.23,3.41,3.41,0,0,1-.63,0c-.16,0-.17,0-.23-.22Zm-25-5.84a.31.31,0,0,1-.12.09,3.45,3.45,0,0,1-1.24.28c-.23,0-.23,0-.31-.24a2.88,2.88,0,0,1,1.67-.13Zm-1.56-.7a2.45,2.45,0,0,1,1.55-.1c-.07.06-.1.11-.14.13a1.85,1.85,0,0,1-.73.2l-.35,0c-.24,0-.24,0-.33-.25ZM161.06,73a.52.52,0,0,1-.48.28c-.28,0-.57,0-.85,0a.17.17,0,0,1-.17-.14s0-.12.06-.13a2.24,2.24,0,0,1,1.38,0l.06,0Zm1.41-8.16a.61.61,0,0,1,0,.14c0,.09-.07.18-.09.26a.65.65,0,0,0,.24.74.47.47,0,0,1,.22.48.33.33,0,0,1-.29-.09,1.21,1.21,0,0,1-.47-.68,1.11,1.11,0,0,1,.19-.78c0-.06.11-.08.16-.11s0,0,.05,0Zm-27.9,6.64a.32.32,0,0,1,.35.08.91.91,0,0,1,.3.66,1.29,1.29,0,0,1-.17.8s0,0-.05.07l-.06,0c-.17-.12-.2-.18-.16-.37s.07-.26.1-.39a.73.73,0,0,0-.18-.63,2.6,2.6,0,0,1-.13-.24ZM141.82,73c-.08.18-.15.21-.31.15a.94.94,0,0,1-.44-.39,1.47,1.47,0,0,1-.16-1.19,1.61,1.61,0,0,1,.12-.33.58.58,0,0,1,.11-.13.22.22,0,0,1,0,.24,2,2,0,0,0-.06.76,1.71,1.71,0,0,0,.51.82s.12,0,.2.07ZM165,66.53c0-.09-.08-.18-.12-.29a.33.33,0,0,1-.33-.25c0-.14.19-.08.29-.14s0-.36.08-.54a.76.76,0,0,1,.18-.26s.08,0,.16,0a1.31,1.31,0,0,0-.1.85l.44,0c0,.15-.1.2-.21.24s-.29.14-.29.33c0,0,0,.05,0,.07Zm-36.36,6a5.15,5.15,0,0,1,.54,0,2.75,2.75,0,0,0,.7,0,1.93,1.93,0,0,1,.6,0,.94.94,0,0,1-.64.42,2.2,2.2,0,0,1-1,0c-.13,0-.16-.13-.18-.29ZM124.51,74c0,.11-.16.12-.27.05a.81.81,0,0,1-.34-.29,2.73,2.73,0,0,1-.36-.7,1.12,1.12,0,0,1,.28-1.07.15.15,0,0,1,.22,0s0,.06,0,.08l-.08.15a1,1,0,0,0,.16,1.32c.13.15.27.31.4.48Zm24.57-2c-.07,0-.1.06-.16.06s-.13,0-.15,0-.05-.16,0-.2a1.81,1.81,0,0,1,.32-.3.34.34,0,0,1,.28,0c.11,0,.12.13.13.22s.06.41.08.6a.89.89,0,0,1-.08.51c-.08.12-.17.12-.24,0a2.05,2.05,0,0,1-.13-.37,3.14,3.14,0,0,1,0-.45Zm-17.18,1.1c-.14-.22-.14-.26-.05-.4s.2-.25.33-.39c-.05-.1-.26-.16-.26-.35.21-.07.32.16.52.17s.24-.23.37-.36a.27.27,0,0,1,.36-.07l-.47.58a1.53,1.53,0,0,1,.23.15.28.28,0,0,1,.09.1s-.09.08-.13.08a1.47,1.47,0,0,1-.29,0l-.11,0c-.19.2-.39.37-.59.58Zm7-.26c-.4.06-.4.06-.52-.15.07,0,.14-.11.22-.13a.34.34,0,0,0,.29-.45.56.56,0,0,1,0-.13c0-.12.08-.14.21-.09s.06.27.1.43a2.65,2.65,0,0,1,.8-.07c0,.1-.1.13-.15.16s-.37.2-.57.28a.26.26,0,0,0-.14.17,4,4,0,0,1-.08.4c-.14-.15-.09-.3-.16-.42Zm-5.07,2.1a.88.88,0,0,1-.32-.62l-.12-.7a.63.63,0,0,1-.18-.06.18.18,0,0,1,0-.3.37.37,0,0,1,.34-.06c.12,0,.15.14.18.25.06.31.14.62.22.93a.61.61,0,0,1-.14.56Zm33.09-1.5a.8.8,0,0,1-.31-.43,5,5,0,0,1-.13-.65c0-.07-.06-.18.06-.19s.12.08.2.14a1.79,1.79,0,0,1,.19-.09,2,2,0,0,1,.47-.1c.34,0,.49.17.37.53-.32-.12-.66-.25-1,0a1.69,1.69,0,0,1,.1.76Zm-41-.47c-.16.28-.32.55-.46.83-.15-.07-.14-.14-.1-.21s.15-.38.23-.57.08-.13.13-.23a2.28,2.28,0,0,1-.22-.22,1.2,1.2,0,0,1-.26-.24s0-.12,0-.18.14,0,.19,0l.32.22a.82.82,0,0,0,.17.11c.18-.13.19-.37.48-.45-.1.22-.2.41-.29.59.08.09.17.14.23.22a1.12,1.12,0,0,1,.2.3c0,.11-.06.17-.16.1a3.3,3.3,0,0,1-.42-.27Zm32.32,2.2a.35.35,0,0,1-.23-.26c-.05-.22-.06-.46-.1-.69,0-.07,0-.16.1-.19a2.84,2.84,0,0,0,.14.32l.08-.07a.43.43,0,0,1,.49-.18.47.47,0,0,1,.33.35,1,1,0,0,1,.06.42c0,.05-.06.08-.08.14-.24-.11-.31-.32-.43-.5a.43.43,0,0,0-.24.37c0,.18,0,.18-.12.29ZM150,70.49a.66.66,0,0,1,.25.06.91.91,0,0,1,.59,1,2.78,2.78,0,0,1-.6,1.2.28.28,0,0,1-.07-.3c.05-.2.11-.4.17-.61a1,1,0,0,1,.07-.18.62.62,0,0,0-.21-.79.35.35,0,0,1-.2-.37Zm17.43-4.31a.86.86,0,0,1,0-.16c.1-.28.2-.56.28-.84a1.43,1.43,0,0,0,.09-.34c0-.23,0-.3-.21-.42-.06,0-.15-.07-.2-.13s-.07-.12,0-.15.1-.06.16-.07a.79.79,0,0,1,.66.51,1.1,1.1,0,0,1,0,.44,2.18,2.18,0,0,1-.6,1.1l-.11.08s0,0-.05,0Zm-40,7.55c-.21,0-.25.13-.37.2-.13-.15-.16-.2,0-.29a2.69,2.69,0,0,1,.38-.19.23.23,0,0,1,.3.23,1.13,1.13,0,0,1-.1.37,6.77,6.77,0,0,1-.33.66l.92,0a.53.53,0,0,1-.08.15,1.11,1.11,0,0,1-1,.33.31.31,0,0,1-.24-.48c.16-.25.32-.48.47-.72a1.09,1.09,0,0,0,.09-.23Zm16.15-2.36s0,0,0,.06c-.19.72-.35,1.43-.52,2.15-.06.24-.15.47-.22.72,0,.06-.06.11-.09.19a.17.17,0,0,1-.13-.23c0-.26.08-.51.13-.76s.15-.56.22-.79c-.22-.35-.43-.65-.63-1,0,0,0-.06,0-.09a.18.18,0,0,1,.25,0c.16.2.33.4.49.62a2.44,2.44,0,0,1,.14-.34,1.73,1.73,0,0,1,.11-.32,3.21,3.21,0,0,1,.19-.31l.05,0Zm20.22-5.32c.13-.32.28-.63.41-.94l.07,0c.07.09,0,.18,0,.26l-.42,1.46-.1.29a1,1,0,0,1,.18,0,.83.83,0,0,1-.32.44.29.29,0,0,1-.2-.35,2.87,2.87,0,0,1,.17-.59.35.35,0,0,0,0-.4,7.47,7.47,0,0,1-.51-.74.15.15,0,0,1,0-.16.31.31,0,0,1,.2-.05s.08.05.11.08l.16.26c.09.16.18.33.29.5Zm-16,7.55a.27.27,0,0,1-.15-.29,4.57,4.57,0,0,1,.23-.9c.07-.16.12-.32.19-.47a1,1,0,0,1-.79-.67.2.2,0,0,1,.29,0,2.11,2.11,0,0,1,.36.31c.06,0,.1.11.18.18a1.34,1.34,0,0,0,.1-.17c.1-.24.18-.46.27-.68,0,0,.05-.11.08-.17a.13.13,0,0,1,.09,0,.11.11,0,0,1,.07.08.5.5,0,0,1,0,.13c-.2.72-.41,1.43-.63,2.14a1.39,1.39,0,0,1-.25.52Zm-11.09-2.25c.31,0,.57-.2.88,0a.65.65,0,0,1-.44.47,3.15,3.15,0,0,1-.44.11c-.13,0-.28.07-.37-.07a.42.42,0,0,1-.09-.47,4.08,4.08,0,0,0,.18-.42.74.74,0,0,0,.07-.21l0,0-.24.19c-.19-.14-.22-.29-.08-.42a.48.48,0,0,1,.49-.13c.19,0,.29.15.28.32a3.4,3.4,0,0,1-.09.46c0,.07-.06.13-.1.23ZM151.15,70a1.31,1.31,0,0,1-.12-.15s0,0,0-.07a.73.73,0,0,1,.48-.16c.24,0,.37.14.3.34a1.87,1.87,0,0,1-.13.4,2.75,2.75,0,0,1-.15.36c.44,0,.82-.27,1.3-.13,0,.06-.06.15-.1.2a1,1,0,0,1-.54.3l-.48.11a.5.5,0,0,1-.54-.25.29.29,0,0,1,0-.27c.08-.15.14-.31.21-.46l.15-.32-.4.1Zm14,3.91.1-.15a.39.39,0,0,1,.58,0,3.08,3.08,0,0,1,.27.65c0,.07,0,.19,0,.28a.11.11,0,0,1-.2,0,.84.84,0,0,1-.22-.3,1.17,1.17,0,0,1-.09-.31,1.7,1.7,0,0,1-.15.28c0,.06-.1.16-.14.16a.52.52,0,0,1-.22-.14,2.5,2.5,0,0,1-.16-.24c-.21.21,0,.53-.24.73,0-.06-.13-.1-.16-.15a4.11,4.11,0,0,1-.21-.62c0-.06,0-.15.09-.12s.15,0,.2-.08a.42.42,0,0,1,.42-.11l.18.06Zm-4-8.21c-.2.09-.4.2-.6.31a1.29,1.29,0,0,1-.18.89c-.27-.2-.19-.49-.31-.75-.19,0-.39.08-.48-.17.07-.12.23-.11.35-.15a.18.18,0,0,0,.16-.21,4,4,0,0,1,0-.61,2,2,0,0,1-.34,0c-.16,0-.2,0-.26-.24a2.94,2.94,0,0,1,.74-.09c.18,0,.26.12.26.3s0,.43,0,.66l.65,0s0,0,0,.07ZM165,73.23c-.42,0-.56-.37-.81-.63a2.74,2.74,0,0,1-.11.28.52.52,0,0,1-.45.37.55.55,0,0,1-.51-.33.74.74,0,0,1,.63-1.14.32.32,0,0,1,.23.08,2.79,2.79,0,0,1,.4.37,3.42,3.42,0,0,1,.36.4,4.59,4.59,0,0,1,.26.49s0,.06,0,.11Zm-1.38-.31h0c0-.07.08-.11.1-.18.07-.25.14-.5.2-.74s-.16-.08-.21,0a2.33,2.33,0,0,0-.35.27c-.18.24-.1.5.26.69ZM166,65.67c-.29-.15-.34-.31-.17-.55a.76.76,0,0,1,.59-.33c.28,0,.44.11.37.34a2.87,2.87,0,0,1-.17.44l-.18.31c.24,0,.46-.09.67,0a1.2,1.2,0,0,1-.67.56.38.38,0,0,1-.34-.09.47.47,0,0,1-.15-.59s0-.08,0-.12,0,0,0,0Zm-8.61,8.74a.43.43,0,0,1-.33-.22c-.11-.15-.2-.3-.31-.47a1.43,1.43,0,0,0-.16-.24c0,.14-.08.26-.12.39s-.1.29-.32.3-.29-.13-.38-.26a.84.84,0,0,1,.41-1.19.35.35,0,0,1,.44.11c.21.33.44.63.64,1a1.62,1.62,0,0,1,.17.41c0,.07,0,.14,0,.22ZM156,73.8h0a1.11,1.11,0,0,0,.15-.89.56.56,0,0,0-.15.89Zm-24.39-7.13c0-.36-.14-.72,0-1.06h.06c0,.06.06.1.06.15.05.38.1.75.16,1.12,0,.09.05.18.06.26a3.48,3.48,0,0,1,.1.44.29.29,0,0,1-.19.34c-.07,0-.12.1-.17.16-.38.35-.74.28-1-.2a.81.81,0,0,1,.5-1.18,2.06,2.06,0,0,1,.36,0Zm.15,1h0a3.76,3.76,0,0,0-.13-.48.22.22,0,0,0-.28-.15.48.48,0,0,0-.26.74c.07.09.15.14.26.09s.25-.11.41-.2Zm38.89,3.07a.33.33,0,0,1-.31.26,2.48,2.48,0,0,1-.39,0,.23.23,0,0,1-.21-.16c0-.11.08-.13.16-.15l.41-.08a.35.35,0,0,1,.34.11Zm4.25,4.61a3.91,3.91,0,0,1,.58-.1c0,.12,0,.23,0,.34l-.12,0c-.29,0-.4,0-.49-.26Zm-6-4.45c-.18.06-.2.19-.23.35a.47.47,0,0,1-.12.32.87.87,0,0,1-.31-.91l.2.07a.52.52,0,0,1,.52-.22.72.72,0,0,1,.3.11.75.75,0,0,1,.09.72c-.05.11-.15.13-.23,0a3.15,3.15,0,0,1-.22-.45Zm3.65.11c-.2-.08-.27-.27-.35-.45-.24.09-.17.36-.34.48-.24-.09-.28-.29-.32-.49-.28,0-.32.06-.31.32s0,.24,0,.38h-.06s-.09-.08-.1-.13c-.08-.25-.18-.5-.26-.75,0-.07,0-.14.06-.17s.13,0,.17.1,0,0,.05.09.11-.08.16-.1a1.05,1.05,0,0,1,.34-.08.69.69,0,0,0,.28,0,.84.84,0,0,1,.28-.09.43.43,0,0,1,.49.3.56.56,0,0,1-.12.63Zm1.05,23.59a1.93,1.93,0,0,1-.41-1.19,1.91,1.91,0,0,0-.23.1l-3,1.57a.21.21,0,0,1-.12,0s-.07,0-.08,0a.11.11,0,0,1,0-.08.44.44,0,0,1,.15-.12l1.34-.77,1.8-1c.14-.08.14-.08.12-.25l-.4-.06A3.79,3.79,0,0,1,170,91.29,2.6,2.6,0,0,1,170,88a4.22,4.22,0,0,1,2.44-1.53l.17,0s0,0,.08,0c0-.42-.06-.85-.06-1.28s0-.85,0-1.3a3,3,0,0,0-.57.49c-.2-.11-.24-.17-.12-.31s.32-.32.47-.49a2.33,2.33,0,0,0,.26-.28c.12-.14.16-.16.4-.14.08.16,0,.26-.06.43a4.74,4.74,0,0,0,.51.24c.11.08.23.15.32.23s.14.12,0,.24c-.36,0-.61-.29-.95-.43,0,.86.12,1.69.18,2.53l.51,0s.08,0,.09,0c.17-.17.4-.12.61-.1a4.52,4.52,0,0,1,2.14.76.31.31,0,0,0,.09.07c0,.19,0,.39,0,.58a2.89,2.89,0,0,0-.37-.31,4.25,4.25,0,0,0-2-.67c-.15,0-.3,0-.39-.14a.1.1,0,0,0-.08,0,5.82,5.82,0,0,0-.6.05,5.48,5.48,0,0,1,0,.55c.06.52.1,1.08.12,1.61a.33.33,0,0,0,.12.24,23,23,0,0,1,2,1.38c.21-.18.43-.34.63-.54s.3-.21.5,0l.23.19c0,.19,0,.38,0,.56-.19-.16-.39-.32-.57-.5-.2.16-.4.31-.64.47l.86.55a.61.61,0,0,0,.36-.36c0,.24,0,.47.07.69a4.48,4.48,0,0,1-2.43,1.38,2.2,2.2,0,0,0-.75.33c-.1.05-.08.11-.07.19,0,.25,0,.5.05.75a.83.83,0,0,1-.12.57ZM175,88.13a.45.45,0,0,1-.11.46.3.3,0,0,1-.15-.35c0-.09.07-.1.26-.11Zm-.4-.21a.45.45,0,0,1-.36.45.46.46,0,0,1-.51-.24.25.25,0,0,1,0-.19.6.6,0,0,1,.68-.25c.13,0,.2.12.2.23Zm-.36.11h0l-.28-.16a.46.46,0,0,0-.07.14c.11.08.2.18.35,0Zm1.33-.13a1.9,1.9,0,0,0-.09.22,1.24,1.24,0,0,1-.3-.76c0-.07,0-.12.14-.12a1.78,1.78,0,0,0,.17.3c.21,0,.32-.26.6-.21a2.07,2.07,0,0,1-.15.25c.1.12.23.24.19.43-.2.07-.37,0-.56-.11Zm.24-2.56a1,1,0,0,1,.57-.08v.1a.49.49,0,0,1-.38.15c-.07,0-.11-.09-.19-.17Zm1.13,8.57a.61.61,0,0,1-.22.56.28.28,0,0,1,0-.38c.05-.09.05-.22.26-.18ZM176.35,85l-.2.06c-.19,0-.22,0-.34-.19.07-.1.19-.08.3-.07a.77.77,0,0,1,.22,0,.65.65,0,0,0,0,.19Zm-1.06,8.22a.87.87,0,0,1,0,.22.91.91,0,0,0,0,.65s0,.08,0,.09a.11.11,0,0,1-.11,0,.41.41,0,0,1-.2-.37,1.78,1.78,0,0,1,.19-.53s.09-.06.15-.09l.06,0Zm-2.53-12.09a1.05,1.05,0,0,1,0,.19c-.28.48-.55.94-.81,1.42-.06.09-.11.18-.23.2s-.15-.19,0-.34a4.85,4.85,0,0,1,.28-.4L172,82a1.22,1.22,0,0,1-.51-.57.19.19,0,0,1,.28,0c.12.1.23.21.35.33.24-.2.32-.48.55-.67l.06,0Zm3.31,12.63a1.67,1.67,0,0,0,.18,0c.16.06.2.12.1.26a.51.51,0,0,1-.51.18.54.54,0,0,1-.35-.34.84.84,0,0,1,.06-.14c0-.06.09-.11.13-.16s0,0,0,0-.22-.1-.21-.21.15-.13.25-.15h.16c.24,0,.35.14.28.36s0,.13-.06.21Zm-2.34-8.66c.23,0,.42-.23.7-.06a1.09,1.09,0,0,1,.18-.19.38.38,0,0,1,.64.18.35.35,0,0,1-.08.38c-.18,0-.2-.17-.33-.24a1,1,0,0,0-.17.19l-.15.2c-.2,0-.21-.17-.36-.27-.07.14-.12.26-.19.38-.22-.11-.29-.25-.24-.57Zm-1,1.51h-.09l-.12,0a4,4,0,0,0-2.32,1.59,2.24,2.24,0,0,0,0,2.71,3.49,3.49,0,0,0,2.61,1.42h.25c-.12-1.92-.25-3.84-.36-5.76Zm.83,5.77h0a1.77,1.77,0,0,0,1-.2l1.48-.88.12-.08c-.94-.67-1.76-1.45-2.77-2,.07,1.07.13,2.13.21,3.21ZM159,90.31a1.11,1.11,0,0,1-.19-.09s-.05,0-.06,0a1,1,0,0,1-.32.31c-.27.19-.54.37-.78.57a6.32,6.32,0,0,1-3,1.22,8.42,8.42,0,0,1-3-.12c-.68-.17-1.36-.32-2.06-.51a3.82,3.82,0,0,1-.72-.31.89.89,0,0,1-.49-.72c0-.32-.09-.62-.12-1s0-.81-.06-1.23,0-.74-.06-1.13c-.1-1.31-.21-2.62-.34-3.93-.07-.62-.16-1.23-.24-1.86-.06-.44-.12-.87-.16-1.3a1,1,0,0,0-.15-.43.4.4,0,0,1,.09-.6,3.36,3.36,0,0,1,.87-.43,12.65,12.65,0,0,1,2.2-.55A23.87,23.87,0,0,1,153,78c.45,0,.9-.08,1.37-.07s1.2,0,1.77,0l.41,0c.07,0,.12,0,.18,0a5.37,5.37,0,0,1,1.24.26,1.19,1.19,0,0,1,.16.08.43.43,0,0,1,.25.54.83.83,0,0,1-.33.47.19.19,0,0,0-.08.22c.06.41.14.81.21,1.23.12.87.23,1.76.33,2.64.07.49.12,1,.18,1.48.09.83.18,1.69.25,2.55s.11,1.69.16,2.53a.6.6,0,0,1-.16.42Zm4-5.91-.61.18-.11.27c-.23-.13-.29-.25-.25-.46.05-.36.13-.74.18-1.12,0-.18,0-.36.06-.56a.28.28,0,0,1,.1-.12c.06,0,.14,0,.16.1s.16.3.24.45c.22.38.4.76.63,1.14a.76.76,0,0,1,.12.57c-.07.14-.15.18-.27.06a.33.33,0,0,1-.16-.28c0-.07-.06-.14-.09-.23Zm-.63-.23h0l.48,0c-.13-.28-.24-.55-.36-.82h-.05c0,.28,0,.55-.07.84ZM153.53,96c0-.19,0-.37-.18-.52a.19.19,0,0,1,0-.31.68.68,0,0,1-.12-.12.22.22,0,0,1,0-.32,1.2,1.2,0,0,1,1-.18.21.21,0,0,1,.14.3,1.33,1.33,0,0,1-.11.24,1.62,1.62,0,0,0,.27.08c.21.11.28.23.18.43a.9.9,0,0,1-.25.39,6.62,6.62,0,0,1-.64.44.72.72,0,0,1-.52,0c-.19-.07-.23-.18-.08-.3a2.27,2.27,0,0,1,.25-.18Zm0-1.15h0l.1.21c.13-.07.22-.14.33-.21s0,0,0-.06l-.4.06Zm.6.78h0a.14.14,0,0,1,0-.06l-.36,0a1.06,1.06,0,0,0,.09.25l.29-.21Zm7.32-5.69a.77.77,0,0,1-.23-.6c0-.68,0-1.35-.09-2,0-.34-.08-.68-.13-1s-.14-.64-.19-1c-.11-.67-.2-1.35-.31-2,0-.16,0-.3,0-.45-.07-.37-.12-.76-.19-1.14s-.1-.82-.17-1.24-.15-1-.21-1.44a.54.54,0,0,1,0-.15l-.5.14s-.1,0-.16,0a.32.32,0,0,1-.12-.08.25.25,0,0,1,0-.12,2.82,2.82,0,0,1,1.24-.35c.07,0,.18,0,.19.08a.36.36,0,0,1,0,.23s-.1.06-.16.09a.26.26,0,0,1-.07-.11c-.13,0-.15.07-.12.16.05.29.13.56.2.84.11.58.21,1.14.37,1.71s.19,1.25.32,1.89a1.12,1.12,0,0,1,0,.32.3.3,0,0,1-.17.29c.06.37.14.74.21,1.12a19.56,19.56,0,0,1,.45,2.52c0,.58.11,1.15.15,1.73,0,.16,0,.35,0,.53a2.8,2.8,0,0,0,.63-.17s.06-.15.1-.22c.18.1.24.19.19.35a.56.56,0,0,1-.41.39l-.64.12c-.26.06-.51.11-.76.18s-.19,0-.25-.06,0-.18.09-.22.39-.16.6-.24a1.5,1.5,0,0,1,.2-.07Zm-13,4.3a.32.32,0,0,1-.14.3c-.06-.07-.11-.16-.18-.23a.2.2,0,0,1-.28-.1c-.06-.18.1-.24.19-.32s0-.26,0-.38a.32.32,0,0,1,0-.17s.06-.08.1-.11.07.07.07.12,0,.28,0,.43a74.53,74.53,0,0,1,11.84-1.35c0-.06,0-.12,0-.18a.47.47,0,0,1,0-.17c0-.08,0-.18.11-.19s.13.1.16.16l.06.21a.24.24,0,0,0,.15.16c.17,0,.21.12.13.26a.65.65,0,0,0-.05.49.94.94,0,0,1,0,.41c0,.07-.08.12-.13.19,0-.16,0-.28-.06-.41s-.09-.24-.14-.37h-1c-.74,0-1.46.06-2.21.12s-1.29.11-1.95.17l-1.81.19c-.5.06-1,.11-1.52.19l-1.17.16c-.68.11-1.39.23-2.08.36l-.08,0Zm-.82-14h0a.31.31,0,0,1,0,.09c.11.61.24,1.23.35,1.88s.2,1.3.28,2c.1.95.2,1.89.29,2.83,0,.42,0,.85.08,1.25,0,.66.09,1.3.16,1.95s.17.79.85,1c.45.13.91.26,1.36.36a11.38,11.38,0,0,0,2.47.33,6,6,0,0,0,3.54-1.08c.44-.32.92-.63,1.36-1l0,0a.25.25,0,0,0,.12-.25c0-.22,0-.44-.05-.65,0-.43,0-.87,0-1.31-.1-1.2-.19-2.39-.3-3.59-.12-1.39-.22-2.78-.36-4.17,0-.13,0-.27,0-.43a.78.78,0,0,0-.18.08l-.58.21a20.6,20.6,0,0,1-3.91.74c-.22,0-.44,0-.66,0-.57,0-1.16.07-1.73.09-.21,0-.43,0-.55.18,0,0-.05,0-.1.06a1.45,1.45,0,0,1-.08-.21c-.24-.07-.31-.06-.43,0l-.36-.09a5.11,5.11,0,0,1-.58,0c-.32-.07-.63-.16-1-.25Zm8.64-2h0a18.88,18.88,0,0,0-2.62.06c-.59.62-1.25,1.15-1.87,1.8.26,0,.46,0,.64,0a.5.5,0,0,0,.32-.17c.26-.3.55-.6.82-.88a6.31,6.31,0,0,1,1.08-.8,1.09,1.09,0,0,1,0,.22,3.33,3.33,0,0,1-.24.32c-.27.25-.54.5-.82.78l-.42.41a1,1,0,0,0,.29,0,.4.4,0,0,0,.37-.2,6.15,6.15,0,0,1,1.32-1.23l.23-.1,0,0a5.4,5.4,0,0,1-.59.69c-.21.22-.42.44-.65.66a2.16,2.16,0,0,0,.45,0,.42.42,0,0,0,.32-.18,6.36,6.36,0,0,1,1.33-1.31s0,0,0-.07Zm-4.67.25h0l-1.62,1.66h.18a.39.39,0,0,0,.38-.15,5,5,0,0,1,.63-.67c.28-.25.59-.46.88-.7.08,0,.16-.11.28,0-.25.28-.51.52-.75.77a7.23,7.23,0,0,0-.76.8c.31,0,.55,0,.74-.24a7.23,7.23,0,0,1,1.62-1.5s0,0,.07-.09q-.9.12-1.65.18Zm-.24,0h0l-.72.13a.53.53,0,0,0-.38.2c-.24.27-.49.52-.74.78a5.63,5.63,0,0,1-.42.45l.4,0a.29.29,0,0,0,.28-.13,7.28,7.28,0,0,1,.54-.58l1-.89Zm6,0h0l-.78.86a2,2,0,0,0,1.3-.71l-.52-.15Zm-.78-.1h0l-1.26,1.22c.16,0,.3,0,.4-.09a5.47,5.47,0,0,1,1.06-.86c.09-.07.18-.12.32-.21l-.52-.06Zm-8.2,1.6h0c.44.08.36.12.6-.15s.6-.6.89-.91a.87.87,0,0,1,.14-.12.86.86,0,0,0-.68.31,2.09,2.09,0,0,1-.22.2l-.73.67Zm-.78-.31h0a.56.56,0,0,0,.38.23.21.21,0,0,0,.16,0l.79-.81a3.54,3.54,0,0,0-1.33.61Zm-11,10.88a.77.77,0,0,1-.11,1.37,1.65,1.65,0,0,1-.36.11.47.47,0,0,1-.17,0,.36.36,0,0,1-.32-.15.17.17,0,0,1,.05-.24c-.07-.28-.12-.52-.17-.76s0-.23-.07-.33,0-.18-.15-.23a.19.19,0,0,1-.06-.28.89.89,0,0,1,1.21-.26.46.46,0,0,1,.21.55,1.17,1.17,0,0,1-.06.2Zm-.63,1h0a.19.19,0,0,0,.13,0,.7.7,0,0,0,.2-.08c.22-.1.23-.15.13-.39a1,1,0,0,0-.5.15c0,.11,0,.22,0,.35Zm.31-1.34h0a.49.49,0,0,0-.52-.07s-.1.06-.08.1a1.6,1.6,0,0,0,.12.42l.48-.45Zm-7.15-4.86a.21.21,0,0,1-.14-.23c0-.32,0-.63,0-1a8.52,8.52,0,0,1,.17-.85.43.43,0,0,1,.25-.33.44.44,0,0,1,.06.1,6.44,6.44,0,0,0,.7,1.26c.08.13.07.46,0,.5a.24.24,0,0,1-.15,0s-.09-.06-.12-.07c-.22.07-.44.13-.68.22a2.32,2.32,0,0,1-.12.32Zm.74-.94h0c-.18-.35-.32-.68-.47-1a3.62,3.62,0,0,0-.13,1.27c.21-.09.4-.15.6-.24Zm10.27-2.29a1.29,1.29,0,0,1-.08.27,3.17,3.17,0,0,1-.37.51.78.78,0,0,1-1.15,0,1,1,0,0,1-.28-.74,2.68,2.68,0,0,1,.17-.85.65.65,0,0,1,.91-.28c.28.13.31.25.13.52l-.2-.12a.28.28,0,0,0-.44.13,1.32,1.32,0,0,0-.06.81.39.39,0,0,0,.5.24,5.59,5.59,0,0,0,.6-.3,1.41,1.41,0,0,0,.27-.14Zm1,4.94h0a1.32,1.32,0,0,1,.19-.08,5.13,5.13,0,0,0,1.29-1.12,3.67,3.67,0,0,0,.8-3.15,3.57,3.57,0,0,0-1.33-2.12,5.41,5.41,0,0,0-2.29-1,.66.66,0,0,1-.42-.17c0-.05-.14-.05-.21-.06a7.67,7.67,0,0,0-1.07,0,5.65,5.65,0,0,0-2.93,1.16,4,4,0,0,0-.93,1,4.45,4.45,0,0,1,1.73,2.21h.14a5.18,5.18,0,0,1,2.49.55l.16.07a1.49,1.49,0,0,1,.3.09,4.64,4.64,0,0,1,1.38,1.26,4.55,4.55,0,0,1,.7,1.37Zm-7.45-5.33h0a1.51,1.51,0,0,0-.2-.12,5.28,5.28,0,0,0-1.3-.45.55.55,0,0,1-.38-.15.28.28,0,0,0-.17-.07,4.22,4.22,0,0,0-1.18.07,4.67,4.67,0,0,0-2.87,1.53,3.4,3.4,0,0,0-.68,3.64,4.42,4.42,0,0,0,3.76,2.89h.14a5.16,5.16,0,0,1,2.56-4.59,3.78,3.78,0,0,1-.08-1.38,4.51,4.51,0,0,1,.4-1.36Zm7.16,6h0a6,6,0,0,1-5.26-.4,5,5,0,0,1-4.31,2.31,4.51,4.51,0,0,0,1.87,2.86,4.68,4.68,0,0,0,4.54.51,5,5,0,0,0,2.92-2.91,4.3,4.3,0,0,0,.24-2.37Zm-4.76-3.61h0a4.3,4.3,0,0,1-.32,2.85,5.45,5.45,0,0,0,4.95.28,3.41,3.41,0,0,0-.67-1.37,7.52,7.52,0,0,0-1.51-1.3s0,0-.06,0a5.39,5.39,0,0,0-1.71-.44,1.42,1.42,0,0,0-.68,0Zm-2.58.77h0a4.69,4.69,0,0,0-2.28,4.2A4.35,4.35,0,0,0,135.25,87c-.25-.1-.36-.38-.64-.44,0,0,0-.07-.05-.1s0-.09,0-.08-.11-.17-.18-.2-.16-.11-.17-.21,0,0,0-.06-.08-.05-.08-.08c-.08-.34-.34-.59-.44-1Zm.48-3h0a3.56,3.56,0,0,0-.28,2.4,6.58,6.58,0,0,1,1.77-.54,3.8,3.8,0,0,0-1.49-1.86Zm1.74,2.87h0l-.06,0c-.27.5-.55,1-.82,1.51a1.37,1.37,0,0,0,.18.16c.2-.27.41-.54.64-.8a.3.3,0,0,0,0-.14c0-.23,0-.48,0-.71Zm-.22-.37h0l-.54.89c-.12.21-.22.4-.36.62a.48.48,0,0,0,0,.12l.08,0a.19.19,0,0,1,0-.08l.91-1.42a.31.31,0,0,0,0-.19.64.64,0,0,0-.05-.24c-.29,0-.36.06-.43.42.11,0,.14-.2.34-.16Zm-.71-.1h0l-.49.91c0,.07-.07.13-.1.21s0,.07,0,.12l.75-1.3-.2.06Zm-.32.14h0l0,0c-.14.2-.29.4-.42.61,0,0,0,.1,0,.16h0c.13-.26.27-.5.4-.76Zm.87,2.25h0a1.23,1.23,0,0,0,.18-.56c-.24.34-.29.44-.18.56ZM134,84.86h0l.13-.27c-.15,0-.25.08-.13.27Z"/><path class="cls-29" d="M156.54,46.16l-4.83,2.77c.14.23.3.47.46.69L157,46.86c-.16-.23-.31-.45-.46-.7Z"/><path class="cls-30" d="M121,71.67s-.88,0-1,.23.83,1.78,1,1.9,0-2.13,0-2.13Z"/><path class="cls-31" d="M119.39,75s-3,5.33-3.7,9.21,2.52,14.49,2.9,16.18a30.4,30.4,0,0,1,.59,3.52q10.23-.6,20.45-1.24c-.3-3.48-.58-7-.88-10.45s-7.91-17.55-7.91-17.55-10.48,1.63-11.45.33Z"/><path class="cls-30" d="M139.63,102.69c-.3-3.48-.58-7-.88-10.45,0,0,0-.08,0-.11a3.33,3.33,0,0,1-2.53.77c-1.23-.16-3.66-.5-5.2.32s-3.72-.23-3.85-1.65a41.19,41.19,0,0,0-1.07-5.73,7.51,7.51,0,0,0-4.3-4.92c-2.83-1-3.05,0-2.89.1s.61.3.93.44q2.42,11.12,4.82,22.15l15-.92Z"/><path class="cls-30" d="M116.41,81.65a7.56,7.56,0,0,0-.72,2.58c-.45,2.35,2.52,14.49,2.9,16.18a30.4,30.4,0,0,1,.59,3.52l2.37-.14c-1.48-8.53-2.47-18.07-.57-22.37a3.61,3.61,0,0,0-4.57.23Z"/><path class="cls-32" d="M127.08,73.44s1.37,5.36,1.43,5.91S121,78.8,121,77.57s0-4.92,0-7.39c0,0,3.52,4.14,6.13,3.26Z"/><path class="cls-33" d="M128.29,74.21s.7.28,3.77-2.63,12.5-14,14-16.12,2.51-4,2.44-4.76a2.66,2.66,0,0,1,.65-2.2,3,3,0,0,1,1.51-.49c.34-.1,1.08-.42,1.41-.48s2.9-1.24,3.33-1.11,0,.84-1.09,1.49-2.11.85-2.16,1.34-.43,2.12,0,1.55.52-1.34,1-1.86,1-.94,1.14-.5-.78,2.53-1.16,3.26a8.94,8.94,0,0,1-2.22,2.84c-1.14.92-3.62,6-3.62,6s-4.1,9.12-7,12.57-5.91,7.62-6.78,6.69l-5.2-5.57Z"/><path class="cls-32" d="M144.34,57.62c.8-1,1.36-1.69,1.69-2.16s.71-1.05,1-1.53a12,12,0,0,1,3,1.62,45.59,45.59,0,0,0-2.46,4.33c-1.07-.75-2.15-1.5-3.21-2.26Z"/><path class="cls-31" d="M146.22,54.37s2.91,1,3.73,2.3l.81,1.26s-3.38,5-4,6.33-2.05,3.38-3.73,6.48a21.12,21.12,0,0,1-4.51,5.74c-.44.29-3.36,5.66-4.46,4.68s-4.4-3.91-6.57-5.88l-.24-.92s3.6-1.42,4.4-2.37,1.18-2.07,1.78-2.33,1.39-1.73,1.91-2.08.26-.65,1.42-1.58a12.52,12.52,0,0,0,2.52-2.79c1.16-1.48,4.63-5.9,6.95-8.84Z"/><path class="cls-33" d="M130.49,66.42a9,9,0,0,1-.13,3.94c-.47,2.86-4.33,4.73-6.69,3.4s-3-2.21-3.68-4.94c0,0-.08-3.41.47-4.6A15.67,15.67,0,0,1,121.7,62s.08,0,.82.76,1.52,1.08,1.4.86-.45-.91-.68-1.36a10.84,10.84,0,0,0,2.19,1.79,3.63,3.63,0,0,0,2.72.25l-.71-.46a3.15,3.15,0,0,1-.93-1.76,15,15,0,0,0,2.73,2.25,2.2,2.2,0,0,1,1.25,2.08ZM120,68.82c-.08-.36-.13-.61-.25-1.18s-.28-1.43-.38-2.12q.33,1.65.63,3.3Z"/><path class="cls-34" d="M124.1,65.63c-.3,0-.51.36-.48.79s.31.76.61.75.51-.35.48-.77-.32-.78-.61-.77Zm4.69-.1c-.31,0-.52.36-.48.79a.75.75,0,0,0,.62.76c.3,0,.51-.36.47-.78s-.31-.78-.61-.77Z"/><path class="cls-35" d="M127.08,66a15,15,0,0,0,1.4,3.06c.27.27-1.25.4-1.27.4a2.23,2.23,0,0,1,0,.23s2-.18,1.38-.78a15.4,15.4,0,0,1-1.34-3l-.21.07Z"/><path class="cls-8" d="M128.71,70.72a8.18,8.18,0,0,1-1.92.17c-1,0-2.12-.17-2.12-.17a3.26,3.26,0,0,0,2.28,1,2.09,2.09,0,0,0,1.76-1Z"/><path class="cls-34" d="M120.18,57.38c-4.49,0-3.71,8.26-1.4,10.56,1.78,1.79,2,2,2,2a36.3,36.3,0,0,1-.64-4.55A8.22,8.22,0,0,1,121.7,62c.16,0,1.29,1.5,2.22,1.62-.22-.45-.45-.91-.68-1.36,1.25,1.51,3,2.78,4.91,2l-.71-.46a3.15,3.15,0,0,1-.93-1.76,11.4,11.4,0,0,0,2.73,2.25c1.48.81,1.31,3,1.31,3,2.66-3.9.89-8.53-3.72-10.47-4.46-1.88-6.65.47-6.65.47Z"/><path class="cls-35" d="M129.28,69.85s.27.21-.09,1.23a.67.67,0,0,0,.21.09c.4-1.17,0-1.49,0-1.49l-.13.17Z"/><path class="cls-35" d="M123.24,69.62a1.73,1.73,0,0,0,.07,1.7.58.58,0,0,0,.19-.1,1.53,1.53,0,0,1-.06-1.48l-.2-.12Z"/><path class="cls-29" d="M119.94,71.9s-1.23,2.31-1.15,3.28,6.95,7.94,7.33,7.35L128.4,79s-8.14-4.42-8.46-7.06Z"/><path class="cls-36" d="M128.4,79c.17.73.36,1.45.53,2.17l-1.64-.43L128.4,79Z"/><path class="cls-31" d="M118.71,80.58a6.18,6.18,0,0,1,5.29,3c2.06,3.21,2.8,11.91,3.25,17.2.07.77.15,1.67.24,2.65l-6.53.38a9.13,9.13,0,0,0-.48-2.37c-.7-3-4.09-12-4.09-15.86s2.32-5,2.32-5Z"/><path class="cls-33" d="M119.76,66.26a.94.94,0,0,0-1,0c-.65.55.06,3.32,1.37,3.14a10.5,10.5,0,0,1-.39-3.15Z"/><path class="cls-34" d="M129.76,65s-1.33-1.11-2.13.17a2.27,2.27,0,0,0,.32.22c.58-.92,1.58-.1,1.58-.09l.23-.3ZM125,65s-1.35-1.11-2.13.18l.32.21c.57-.92,1.58-.1,1.58-.09L125,65Z"/><path class="cls-29" d="M129.69,76.91l.6,2.61c-.32-.21-.62-.42-.93-.64.11-.65.23-1.3.33-2Z"/><path class="cls-30" d="M134.36,70s2.7-.21,3.89,1.47l.24-.16c-1.3-1.84-4.16-1.61-4.17-1.61s0,.2,0,.3Zm-1.7,1.67s3.51,3,2.2,6.71a1.54,1.54,0,0,0,.3.11c1.35-3.88-2.3-7-2.31-7l-.19.23Zm6.69-7.3A4.43,4.43,0,0,0,143,65.72a2.16,2.16,0,0,1,0-.29,4,4,0,0,1-3.41-1.23l-.24.18Zm-2.14,1.88a3.82,3.82,0,0,1,2.5,4.58l.31.08a4.16,4.16,0,0,0-2.75-5c0,.1-.05.2-.06.29Zm-3.15,14.31s-2-3.62-4.83-5c0,.09-.08.19-.12.26,2.71,1.33,4.69,4.83,4.69,4.84l.26-.13Zm-6.62,3.5s2.49,4.73,6.86,5.69c0-.09,0-.19.06-.3-4.23-.92-6.65-5.52-6.65-5.53l-.27.14ZM118,85.9s.09,10.29,5,15.28l.22-.21c-4.87-4.88-5-15-5-15l-.3,0Zm3.22,2.67s.57,8,3,10.88l.23-.19c-2.37-2.83-2.93-10.68-2.93-10.7a1.66,1.66,0,0,1-.31,0Z"/><path class="cls-32" d="M118.9,67.28s0-.52.28-.59.49.42.54.86,0,1.2,0,1.1-.39-.66-.47-.47-.51-.17-.26-.4.52.39.57,0-.21-.44-.45-.39-.16-.1-.16-.1Z"/><path class="cls-23" d="M112,72.4q-15.06.31-30.07.56c-.46-5.21-.92-10.45-1.37-15.66s-.89-10.47-1.36-15.72q15,.18,30.09.3c.46,5.08.9,10.19,1.35,15.27s.89,10.17,1.36,15.25Z"/><path class="cls-37" d="M112,72.4q-15.06.31-30.07.56c-.37-4.21-.75-8.42-1.11-12.64L79.75,47.64q8.06,6.3,16.12,12.47t16.13,12a1.93,1.93,0,0,0,0,.24Z"/><path class="cls-38" d="M114.74,104.17c-10,.53-20,1-29.94,1.48-.47-5.18-.93-10.39-1.38-15.58s-.89-10.43-1.34-15.65q15-.26,30.05-.6c.44,5.07.89,10.15,1.32,15.2s.85,10.11,1.29,15.15Z"/><path class="cls-39" d="M206.6,69.17l-30.07,1.19c-.44-4.7-.86-9.44-1.3-14.16s-.88-9.47-1.32-14.2q15-.07,30.09-.18c.42,4.56.86,9.14,1.3,13.68s.86,9.13,1.3,13.67Z"/><path class="cls-38" d="M209,97.62l-30,2.24c-.41-4.69-.78-9.37-1.17-14.07s-.81-9.4-1.23-14.1l30.07-1.25c.4,4.55.81,9.1,1.18,13.63s.74,9,1.12,13.55Z"/><path class="cls-39" d="M109.17,40.45q-15-.15-30.09-.34c-.47-5.23-.91-10.49-1.37-15.73S76.8,13.86,76.37,8.59l30.08,1.14c.44,5.13.89,10.28,1.35,15.39s.9,10.22,1.37,15.33Z"/><path class="cls-39" d="M172.3,40.67q-15.06,0-30.09,0c-.47-4.93-.92-9.87-1.38-14.81s-.9-9.9-1.34-14.86q15,.54,30.07,1c.46,4.79.9,9.58,1.36,14.35s.91,9.54,1.38,14.28Z"/><path class="cls-40" d="M203.87,40.53q-15.06.09-30.1.14c-.46-4.74-.92-9.51-1.38-14.25s-.91-9.55-1.36-14.33q15,.46,30.09.89c.45,4.6.9,9.22,1.36,13.81s.92,9.16,1.39,13.74Z"/><path class="cls-41" d="M90.74,11.92A2.46,2.46,0,0,0,87,14.11a3.26,3.26,0,0,0-3,.6,2.56,2.56,0,0,0-.62,3,3,3,0,0,0-1.77,2.77,4.62,4.62,0,0,0,.75,3,4.35,4.35,0,0,0,.24,3.43c1,1.45,1.14,1.2,1.14,1.2a2.86,2.86,0,0,0,1.06,2.43,5.69,5.69,0,0,0,3.06,1,1.66,1.66,0,0,0,1.49,1.06,2.61,2.61,0,0,0,1.94-.34,4.35,4.35,0,0,0,2.48.94,1.86,1.86,0,0,0,1.81-.95s2.08.89,3.21.06a2,2,0,0,0,.77-2.12,2,2,0,0,0,2.65-.64,2.08,2.08,0,0,0,.42-2.66,2.22,2.22,0,0,0,1.62-2.19,3.45,3.45,0,0,0-1.65-3.07s.9-1.1.24-3.36a2.26,2.26,0,0,0-2.59-1.84s.48-1-.62-2.44a3.79,3.79,0,0,0-3.29-1.15,3.27,3.27,0,0,0-1.63-1.45,1.29,1.29,0,0,0-1.5.48s-1.43-1.29-2.47,0Z"/><path class="cls-42" d="M92.81,33.65a15,15,0,0,0-4,1.07,8.38,8.38,0,0,0-3.33,3.91,4.85,4.85,0,0,0,0,1.57l18.83.2c-1.86-5-5.1-7.1-11.52-6.75Z"/><path class="cls-43" d="M89.5,34.42c-.24.08.15-.13-.68.3s-3.2,3.07-3.33,3.91a4.85,4.85,0,0,0,0,1.57l4.52,0c-.17-1.93-.35-3.89-.52-5.83Zm14.83,6c-1.14-3.08-2.8-5.06-5.38-6,.17,2,.35,4,.53,6l4.85,0Z"/><path class="cls-44" d="M95.79,30.15s-.16,2.78.29,3.39a2.71,2.71,0,0,0,1.35.81,5,5,0,0,1-3.82.82c-2.36-.38-2.18-1-2.18-1s1.06,0,1-.77-.27-2.84-.27-2.84a3.82,3.82,0,0,0,3.6-.43Z"/><path class="cls-45" d="M97.76,24.32s0-.58,1.24-.19.52,3.09-.32,3.25-1.06.49-1.05,0,.08-2,.13-3Z"/><path class="cls-45" d="M88.18,24.08s-.13-.58-1.28-.25,0,3.12.94,3.32,1.15.53,1,0-.46-2.06-.69-3.09Z"/><path class="cls-45" d="M95.79,30.15a15.57,15.57,0,0,0,.07,2.6,4.34,4.34,0,0,1-3.43.2c-.06-.92-.24-2.37-.24-2.37a3.82,3.82,0,0,0,3.6-.43Z"/><path class="cls-44" d="M96.39,19c1.09,1.27,1.93,3.4,1.57,8.13C97.5,33.27,90,33.17,88.49,27c-1.21-4.81-.76-6.88.13-8.14s6.68-1.1,7.77.18Z"/><path class="cls-41" d="M90.87,23.11c.23,0,.43.27.46.6s-.14.58-.36.57-.43-.26-.46-.59.14-.59.36-.58Z"/><path class="cls-41" d="M95.16,23.21c.23,0,.44.29.47.61s-.13.58-.36.57-.42-.27-.45-.59.12-.59.34-.59Z"/><path class="cls-46" d="M89.25,22.19a1.65,1.65,0,0,1,2.41,0c-.09.1-.19.19-.27.29a1.28,1.28,0,0,0-1.86,0,2.31,2.31,0,0,1-.28-.33Zm7.11.19S94.92,21.1,94,22.27l.31.31c.74-.9,1.88.12,1.88.12s.14-.21.22-.32Z"/><path class="cls-47" d="M92.37,25.92s.85.72,1.5.1l.3.34c-.9.83-2-.11-2-.11l.22-.33Z"/><path class="cls-47" d="M91.82,27.82a2.93,2.93,0,0,0,3.08.2,2.32,2.32,0,0,0,.21.38,3.34,3.34,0,0,1-3.49-.23l.2-.35Z"/><path class="cls-42" d="M98.11,20.18a4.49,4.49,0,0,0-2.44-2.1,8.58,8.58,0,0,0-6.48-.2,3.25,3.25,0,0,0-2.09,2c-1.74-5.74,11.76-5.29,11,.31Z"/><path class="cls-8" d="M107.46,40.43Q94.26,40.3,81,40.14c0-.07,0-.13,0-.2-.06-.59-.1-1.21-.15-1.82a1.44,1.44,0,0,1,1.4-1.65c7.78.11,15.57.23,23.35.32a1.81,1.81,0,0,1,1.69,1.66c0,.59.1,1.19.16,1.77a1.48,1.48,0,0,1,0,.21Z"/><path class="cls-26" d="M184.32,53.31a1.69,1.69,0,0,0,1.46,1.61.74.74,0,0,0,.64-.36c-.16-.65-.32-1.32-.47-2-.77-.47-1.66-.29-1.63.74Z"/><path class="cls-26" d="M196.72,53.07a1.41,1.41,0,0,1-1.14,1.65.89.89,0,0,1-.71-.34c0-.66,0-1.32.07-2a1.05,1.05,0,0,1,1.78.66Z"/><path class="cls-43" d="M190.15,61.11A5.37,5.37,0,0,1,187,62.26c-1.56-.11-3.78,0-4.8,2.11s-5.57,6-1.85,5.84l22.39-.89c3.73-.15,0-2.83-1.87-5.13a7.16,7.16,0,0,0-4.83-2.43s-5.16.86-5.91-.65Z"/><path class="cls-48" d="M184.14,70.06h.48c.32-2.09,1-4.71,1-4.72-.16,0-.31-.07-.45-.12s-.74,2.72-1.06,4.85Zm14.69-.58.48,0c-.72-2-1.95-4.66-1.95-4.67l-.42.15s1.18,2.53,1.89,4.54Z"/><path class="cls-7" d="M193.15,57.54s.2,3.17.85,3.7a4,4,0,0,0,2.06.52,14,14,0,0,1-4.77,1.31,5.42,5.42,0,0,1-3.22-.9s1.39-.48,1.43-1.28a21.84,21.84,0,0,0-.27-2.8s3.6,0,3.92-.55Z"/><path class="cls-26" d="M193.15,57.54s.07,1,.24,2a6.31,6.31,0,0,1-3.18.4c-.82-.13-.54-.11-.78-.21-.09-.8-.2-1.59-.2-1.59s3.6,0,3.92-.55Z"/><path class="cls-7" d="M190.66,47.73a34.72,34.72,0,0,0-3.68.67c-1.46.39-1.54,2.15-1.52,3a12.16,12.16,0,0,0,.15,1.58s.48,4.95,4.48,5.6,5.21-2.27,5.23-3.88a36.57,36.57,0,0,0-.42-4.43c-.06-.71-1.43-2.56-4.24-2.51Z"/><path class="cls-12" d="M195.3,53.75c.56-1.16,1.9-4.48.8-7.23-.43-1.05-2.3-2.06-2.24-1.6s1.19.88-.94-.15a12.47,12.47,0,0,0-6.27-.92c-1.2.2-1.33.56-.75.78a4.28,4.28,0,0,1,.79.37,5.65,5.65,0,0,0-4,1.25c-.39.27.39.64.39.64s-.71,0-.84,1.62,0,2.62.25,2.67.78-1,.78-1a17.46,17.46,0,0,0,1.32,2.67,13.33,13.33,0,0,0,1.31,1.48,10.53,10.53,0,0,1-.25-3.8c.33-1.48,2.56-2.06,3.69-2.26s2.79-.38,2.79-.38,1.49,1,2.06,1.47,1.1,4.38,1.1,4.38Z"/><path class="cls-25" d="M188.61,51.53c.26,0,.5.28.54.63s-.16.65-.42.66-.51-.29-.55-.64.16-.64.43-.65Z"/><path class="cls-25" d="M191.83,51.48a.64.64,0,0,1,.55.63c0,.36-.15.64-.43.65a.63.63,0,0,1-.53-.64c0-.36.15-.64.41-.64Z"/><path class="cls-49" d="M187,51a1.78,1.78,0,0,1,2.62-.11l-.28.3a1.34,1.34,0,0,0-2,.09L187,51Zm3.7-.06a1.81,1.81,0,0,1,2.63-.12l-.28.3a1.34,1.34,0,0,0-2,.09l-.39-.27Z"/><path class="cls-50" d="M189.78,54a1.51,1.51,0,0,0,1.53-.08l.28.24a1.9,1.9,0,0,1-2,.15c0-.11.11-.2.16-.31Z"/><path class="cls-8" d="M189.23,55.85a30.87,30.87,0,0,1,3.64-.14c.16.14-2.46,1.39-3.64.14Z"/><path class="cls-8" d="M188.53,51.83a.18.18,0,0,1,.17.15.15.15,0,0,1-.15.14.17.17,0,0,1-.17-.14.16.16,0,0,1,.15-.15Z"/><path class="cls-8" d="M192.06,51.77a.16.16,0,0,1,.17.14.15.15,0,0,1-.13.16c-.1,0-.17-.07-.17-.15s0-.14.13-.15Z"/><path class="cls-8" d="M136.22,40.63q-12.27-.06-24.53-.17c0-.1,0-.21,0-.32-.1-1-.17-2-.25-2.93-.13-1.48.4-2.67,1.19-2.66q10.84.15,21.67.28c.79,0,1.56,1.19,1.68,2.62.09,1,.18,1.92.27,2.87,0,.1,0,.2,0,.31Z"/><path class="cls-41" d="M183.61,18.76s-1.47-.92-1.53-1.61-1.05-2.38-1.83-2.59a3.18,3.18,0,0,0-1.86.36s-1.22-.09-1.46.44a1.47,1.47,0,0,0-.08,1,.74.74,0,0,0-.65.93,2.77,2.77,0,0,0,.27,1.12s-1,.78-.47,1.56.64.91.64.91a.59.59,0,0,0-.36.94c.43.73.72.85.72.85s-.1,1.63.51,1.9a2.87,2.87,0,0,0,.94.27,2.73,2.73,0,0,0,1.08.46,1.48,1.48,0,0,0,.77-.24s1.12.28,1.44,0-.25-4.28,1.87-6.34Z"/><path class="cls-41" d="M189.77,18.9s1.3-.85,1.24-1.52.57-2.32,1.31-2.49a3.88,3.88,0,0,1,2,.46s1.21,0,1.55.5a1.63,1.63,0,0,1,.28,1,1,1,0,0,1,.84.94,2.21,2.21,0,0,1-.07,1.07s1.15.8.77,1.54-.46.86-.46.86.81.25.53.94-.55.81-.55.81.43,1.61-.13,1.85a2.57,2.57,0,0,1-.91.24,2.07,2.07,0,0,1-1,.41,1.9,1.9,0,0,1-.83-.23,1.24,1.24,0,0,1-1.8-.09c-.82-1-.21-4.16-2.74-6.29Z"/><path class="cls-45" d="M183,26.68s.36,1.51-.55,1.05A3,3,0,0,1,181.26,25c.16-.66.44-.75.44-.75s1-.12,1.3,2.42Z"/><path class="cls-45" d="M191.5,26.8s.32,1.4,1.14,1,.54-1.91.26-2.57-.58-.76-.58-.76-1.07-.16-.82,2.37Z"/><path class="cls-44" d="M185.78,30.57s.65,2.19-.05,2.35a37.5,37.5,0,0,0-5.87,2.13c-1,.64-1.4,2.29-1.53,3.55a15.78,15.78,0,0,0-.1,2.06q10.71,0,21.42-.11a7.4,7.4,0,0,0-1.22-3.94c-1-1.19-4.52-2.92-5.43-3.34s-1.84-.27-1.91-1-.2-2.11-.2-2.11-3.16,1.3-5.11.42Z"/><path class="cls-45" d="M185.78,30.57s.64,2.13,0,2.35a6.11,6.11,0,0,0,3.68.45,3.64,3.64,0,0,0,1.68-1s0,.27,0-.12-.2-2.11-.2-2.11-3.16,1.3-5.11.42Z"/><path class="cls-41" d="M187,17.74s-3.05,0-4.46,1.3-1.43,3.47-1.44,4.46,1,2,1.2,2.65-.06-2.8,0-3.71,1.34-1.19,1.84-1.05a9.4,9.4,0,0,0,4.1.19c1.25-.43,1.91.05,2.17.49a3.79,3.79,0,0,0,.95,1.19c.38.27.7,2.18.7,2.18a7.31,7.31,0,0,1,.63-1.53c.18-.1,0-6-5.68-6.17Z"/><path class="cls-44" d="M192.08,24s.24,4.33.12,5.09a4.36,4.36,0,0,1-2.89,3c-1.82.54-5-.56-5.69-2.36a27.94,27.94,0,0,1-1.56-4.88c0-.24-.08-.46-.12-.67a3.19,3.19,0,0,1,1.86-3.59c1.22-.37,4.73-.64,6.17.05S192.08,24,192.08,24Z"/><path class="cls-41" d="M185.29,25.76a.7.7,0,0,1,.6.66.54.54,0,0,1-.47.65.7.7,0,0,1-.6-.66c0-.36.18-.66.47-.65Z"/><path class="cls-41" d="M189.91,25.83a.69.69,0,0,1,.6.66.51.51,0,0,1-.46.63.7.7,0,0,1-.6-.65.52.52,0,0,1,.46-.64Z"/><path class="cls-46" d="M183.62,24.9a2.21,2.21,0,0,1,2.63.08c-.12.13-.23.27-.34.4a1.66,1.66,0,0,0-1.93,0l-.36-.46Z"/><path class="cls-46" d="M188.53,25a2.21,2.21,0,0,1,2.62.06c-.12.14-.22.29-.33.4a1.67,1.67,0,0,0-1.93,0l-.36-.44Z"/><path class="cls-47" d="M186.73,28.09s1.22.89,2,0a3,3,0,0,0,.45.35c-1,1.32-2.72.12-2.72.11s.2-.28.31-.42Z"/><path class="cls-47" d="M186.31,29.74s2.28,1.07,3.31-.07c.11.09.21.19.33.28-1.22,1.36-3.78.15-3.78.15a3,3,0,0,1,.14-.36Z"/><path class="cls-51" d="M182.08,16.81a1,1,0,0,1,1,.86.76.76,0,0,1-.79.83,1,1,0,0,1-.95-.87.74.74,0,0,1,.78-.82Z"/><path class="cls-43" d="M181.28,17.83a1,1,0,0,1,.94.86.72.72,0,0,1-.78.81,1,1,0,0,1-.95-.85.74.74,0,0,1,.79-.82Z"/><path class="cls-51" d="M190.93,17a.74.74,0,0,0-.79.81,1,1,0,0,0,1,.84.73.73,0,0,0,.78-.8,1,1,0,0,0-.94-.85Z"/><path class="cls-43" d="M191.94,18.08a.74.74,0,0,0-.79.81,1,1,0,0,0,.95.85.74.74,0,0,0,.78-.81,1,1,0,0,0-.94-.85Z"/><path class="cls-43" d="M180,34.27c.8-.29,2-.76,2.37-.92s1.78,3.75,4.55,4.63,6.13-.35,6.38-1.5.55-3.37.55-3.37l2.34,1.31c.39.21.38,3.8.46,4.59a9.52,9.52,0,0,0,.29,1.56l-16.33.08a23.22,23.22,0,0,0-.61-6.38Z"/><path class="cls-8" d="M185.36,26.42a.13.13,0,0,1,.14.13.12.12,0,0,1-.12.14.18.18,0,0,1-.16-.15.12.12,0,0,1,.14-.12Z"/><path class="cls-8" d="M190,26.48a.14.14,0,0,1,.15.13.11.11,0,0,1-.12.14.16.16,0,0,1-.16-.14c0-.08,0-.13.13-.13Z"/><path class="cls-51" d="M180.72,34.49a.39.39,0,0,1,.37.33.31.31,0,0,1-.32.34.37.37,0,0,1-.37-.34.3.3,0,0,1,.32-.33Z"/><path class="cls-51" d="M182.62,34.5a.39.39,0,0,1,.38.33.3.3,0,0,1-.31.33.39.39,0,0,1-.39-.34.32.32,0,0,1,.32-.32Z"/><path class="cls-51" d="M181.69,36.11a.38.38,0,0,1,.37.34.29.29,0,0,1-.3.33.39.39,0,0,1-.39-.33.32.32,0,0,1,.32-.34Z"/><path class="cls-51" d="M183.86,36.62a.4.4,0,0,1,.39.34.31.31,0,0,1-.32.33.37.37,0,0,1-.37-.33.29.29,0,0,1,.3-.34Z"/><path class="cls-51" d="M181.17,37.84a.37.37,0,0,1,.37.34.31.31,0,0,1-.3.34.42.42,0,0,1-.39-.34.32.32,0,0,1,.32-.34Z"/><path class="cls-51" d="M183.21,38.51a.36.36,0,0,1,.37.33.29.29,0,0,1-.3.33.38.38,0,0,1-.38-.33.29.29,0,0,1,.31-.33Z"/><path class="cls-51" d="M181.57,39.75a.37.37,0,0,1,.37.33.31.31,0,0,1-.3.34.4.4,0,0,1-.39-.34.32.32,0,0,1,.32-.33Z"/><path class="cls-51" d="M185.52,38.51a.37.37,0,0,1,.37.33.31.31,0,0,1-.31.33.38.38,0,0,1-.38-.33.3.3,0,0,1,.32-.33Z"/><path class="cls-51" d="M184.65,39.74a.41.41,0,0,1,.39.33.31.31,0,0,1-.32.34.4.4,0,0,1-.38-.34.3.3,0,0,1,.31-.33Z"/><path class="cls-51" d="M187.3,38.51a.36.36,0,0,1,.37.33.29.29,0,0,1-.3.32.39.39,0,0,1-.39-.32.31.31,0,0,1,.32-.33Z"/><path class="cls-51" d="M189.27,38.51a.39.39,0,0,1,.39.32.31.31,0,0,1-.32.33.37.37,0,0,1-.37-.33.28.28,0,0,1,.3-.32Z"/><path class="cls-51" d="M187.63,39.73a.39.39,0,0,1,.38.33.31.31,0,0,1-.31.34.41.41,0,0,1-.39-.34.32.32,0,0,1,.32-.33Z"/><path class="cls-51" d="M191.58,38.5a.37.37,0,0,1,.37.33.28.28,0,0,1-.3.32.38.38,0,0,1-.38-.32.29.29,0,0,1,.31-.33Z"/><path class="cls-51" d="M190.73,39.72a.37.37,0,0,1,.37.34.3.3,0,0,1-.32.32.37.37,0,0,1-.37-.32.31.31,0,0,1,.32-.34Z"/><path class="cls-51" d="M192.88,37.83a.39.39,0,0,1,.38.34.31.31,0,0,1-.32.33.4.4,0,0,1-.38-.33.32.32,0,0,1,.32-.34Z"/><path class="cls-51" d="M194.92,38.49a.38.38,0,0,1,.38.32.32.32,0,0,1-.31.34.41.41,0,0,1-.39-.33.31.31,0,0,1,.32-.33Z"/><path class="cls-51" d="M193.27,39.71a.41.41,0,0,1,.39.34.3.3,0,0,1-.32.32.37.37,0,0,1-.38-.32.31.31,0,0,1,.31-.34Z"/><path class="cls-51" d="M196.36,39.69a.39.39,0,0,1,.38.34.3.3,0,0,1-.31.32.35.35,0,0,1-.37-.32.3.3,0,0,1,.3-.34Z"/><path class="cls-51" d="M195.91,37.6a.37.37,0,0,1,.37.32.29.29,0,0,1-.3.34.38.38,0,0,1-.38-.33.3.3,0,0,1,.31-.33Z"/><path class="cls-51" d="M194.36,36.31a.37.37,0,0,1,.38.32.29.29,0,0,1-.31.33.4.4,0,0,1-.39-.33.3.3,0,0,1,.32-.32Z"/><path class="cls-51" d="M195.67,35.19a.36.36,0,0,1,.37.33.3.3,0,0,1-.3.34.39.39,0,0,1-.38-.33.3.3,0,0,1,.31-.34Z"/><path class="cls-51" d="M194.48,33.89a.38.38,0,0,1,.38.32.3.3,0,0,1-.32.32.36.36,0,0,1-.38-.32.3.3,0,0,1,.32-.32Z"/><path class="cls-52" d="M195.42,39.57a15.5,15.5,0,0,0-1.18-3.47,5.89,5.89,0,0,1-1-2.69c-.07-.85-.68-1.7-.17-1.76a.77.77,0,0,1,.88.57c.12.34.18.88.32,1.19s.1.47.2.29a9.12,9.12,0,0,0,.36-2.05,17.6,17.6,0,0,1,.06-2.3.4.4,0,0,1,.7.09c.14.36.16,2.87.28,2.93a13.72,13.72,0,0,0,.25-2.16c0-.33,0-1,.45-1s.4,1.11.39,1.39a17.34,17.34,0,0,0-.12,2.06c.08.13.21.14.24,0s.57-1.84.63-2.18.17-.68.49-.62.38.3.3.82-.62,2.64-.64,2.8a.23.23,0,0,0,.23.25,5,5,0,0,0,1-.68,3.88,3.88,0,0,1,.67-.75c.18-.08.52-.06.53.22a5,5,0,0,1-1,1.51,9.15,9.15,0,0,1-.77.76,12.12,12.12,0,0,1-1.06,2c-.21.08,1.69,3.79,1.17,3.79l-3.13,0c-.06-.33-.11-.68-.16-1Z"/><path class="cls-53" d="M160.78,36.53l11.13,0c.12,1.37.25,2.74.39,4.09H159.92c-.1-1-.19-1.93-.28-2.9a1.12,1.12,0,0,1,1.14-1.25Z"/><path class="cls-54" d="M155.4,32.48c1.29,1.72,5.29,1,5.66-.36,3.88,1.45,4.79,2,5.41,6.08a10.86,10.86,0,0,1,0,2.49H150.85l-.36-3c-.09-.89.58-4.06,4.91-5.21ZM150,37.73s-.3,1.39-.69,2.94h.92c-.08-1-.16-2-.23-3Z"/><path class="cls-55" d="M161.73,34.77s-2.46,2.82-2.81,4.72-.18.84-.28,1.2h2.41q.33-3,.68-5.91Z"/><path class="cls-56" d="M155.4,32.48s3.69-.84,5.66-.36c1,.88-4.57,3.18-5.66.36Z"/><path class="cls-33" d="M159.28,27.84a8.25,8.25,0,0,0,.7,2.63,6,6,0,0,0,1.29,2.18,4.4,4.4,0,0,1-2.63,1.45c-1.56.15-2.78-.19-2.79-.78s0-2.35,0-3.54a3.21,3.21,0,0,0,3.46-1.94Z"/><path class="cls-8" d="M155.4,32.48c1.29,1.72,5.29,1,5.66-.36,0,0,.31.11.76.3a4.84,4.84,0,0,1-3.6,1.69,4.93,4.93,0,0,1-3.55-1.42c.2-.09.58-.16.73-.21Z"/><path class="cls-55" d="M153.55,36a12.7,12.7,0,0,0-1.18,4.73h-1.24A7.41,7.41,0,0,1,153.55,36Z"/><path class="cls-57" d="M159.28,27.84a19.74,19.74,0,0,0,.7,2.63c.36.9.07.16.1.23A4.08,4.08,0,0,1,156.94,32a4.77,4.77,0,0,1-1.1-.17c0-.67,0-1.33,0-2a3.21,3.21,0,0,0,3.46-1.94Z"/><path class="cls-58" d="M154,15.5a5,5,0,0,0-4.1.57c.76-.81,2-1.38,4.1-.57Zm-4.94,1.39c-1,1.31-1.1,4.94,1.59,4.82,1.63-.08,6.16-.49,6.8.27s-.14,4.53,1,4.88,1.11,1.3,2.11,1.31,2.51-1.43,2.67-4.32-1.32-9.75-8.31-8.15c-3.57-1.88-5.2-.12-5.87,1.19Z"/><path class="cls-33" d="M150.91,21.7a11.84,11.84,0,0,1,.57,4.43c-.08,2.83,3,4.23,4.65,4.28a3.82,3.82,0,0,0,4.12-3.89,2.1,2.1,0,0,0,1-1.5,1.13,1.13,0,0,0-1.55-1,1.58,1.58,0,0,0-.61,1.45c0,.61-.05,1-.32,1-.67,0-.68-3.09-.53-3.48a1.24,1.24,0,0,0-.72-1.69,36.5,36.5,0,0,0-6.61.37Z"/><path class="cls-32" d="M150.91,21.7s.08.22.18.63a24.33,24.33,0,0,1,4.2-.5c2.32,0,2.57.59,2.76,1.14s.09.17.15.25a.77.77,0,0,1,0-.2,1.25,1.25,0,0,0-.72-1.69,36.5,36.5,0,0,0-6.61.37Z"/><path class="cls-58" d="M153,23.57a.67.67,0,0,1,.55.64c0,.34-.16.62-.43.62a.67.67,0,0,1-.55-.64c0-.35.16-.63.43-.62Z"/><path class="cls-58" d="M156.17,23.64a.63.63,0,0,1,.53.63c0,.36-.16.62-.42.62a.66.66,0,0,1-.54-.64c0-.36.16-.61.43-.61Z"/><path class="cls-35" d="M154.57,24.88s-.22,1.28-.72,1.59a.13.13,0,0,0-.1.13.21.21,0,0,0,.05.12.4.4,0,0,0,.13.13.77.77,0,0,0,.7.08.63.63,0,0,0,.09.22,1,1,0,0,1-.89-.12.92.92,0,0,1-.2-.19.35.35,0,0,1-.1-.25.4.4,0,0,1,.19-.33c.43-.23.64-1.43.64-1.43l.21.05Z"/><path class="cls-35" d="M154.27,28a1.58,1.58,0,0,0,2.09-.32c.08.07.17.14.26.23a1.87,1.87,0,0,1-2.51.36,2.4,2.4,0,0,1,.16-.27Z"/><path class="cls-58" d="M152.05,22.88a1.23,1.23,0,0,1,1.79,0l-.27.31a.81.81,0,0,0-1.17,0,3.49,3.49,0,0,1-.35-.32Zm3.08.07a1.24,1.24,0,0,1,1.79,0,3.82,3.82,0,0,0-.27.32.81.81,0,0,0-1.17,0c-.12-.11-.24-.2-.35-.32Z"/><path class="cls-55" d="M164.69,34.79c.5,1.4.2,3.67-.39,5.89H166c0-2.29-.25-4.53-1.33-5.89Z"/><path class="cls-54" d="M164.83,40.68c.6-2.91.64-5.76-.6-6.24-3.12-1.22-4.49,2.89-5.22,6.24Z"/><path class="cls-8" d="M153.33,23.86a.18.18,0,0,1,.18.17.15.15,0,0,1-.15.17.21.21,0,0,1-.19-.18.15.15,0,0,1,.16-.16Z"/><path class="cls-8" d="M156.42,23.92a.2.2,0,0,1,.19.18.15.15,0,0,1-.16.16.17.17,0,0,1-.17-.17.14.14,0,0,1,.14-.17Z"/><path class="cls-32" d="M160.72,24.75a.78.78,0,0,0-.7-.43c-.51,0-.69,1-.52,1.39s.69-.1.82.18.49-.06.33-.42-.77,0-.81-.32.16-.51.3-.38.38.33.52.22.06-.24.06-.24Z"/><path class="cls-59" d="M140.79,25.34l6.52-.41a.73.73,0,0,1,.69.58q2.06,7.62,4.08,15.17l-9.87,0c-.48-5.1-.94-10.21-1.42-15.32Z"/><path class="cls-60" d="M140.82,25.59l6.16-.4a.74.74,0,0,1,.7.59c1.38,5,2.73,9.95,4.11,14.9l-9.58,0c-.47-5-.92-10-1.39-15.07Z"/><path class="cls-55" d="M163.14,35.53a23.49,23.49,0,0,1,0,5.16h-.21a22.79,22.79,0,0,0,0-5.15Z"/><path class="cls-55" d="M154.89,35.21a10.12,10.12,0,0,0,3.28,4.45l-.12.17a10.46,10.46,0,0,1-3.37-4.56l.21-.06ZM154.08,37a6.89,6.89,0,0,0,.93,3.66h-.24a7.12,7.12,0,0,1-.9-3.7l.21,0Z"/><path class="cls-42" d="M94.46,44.4s.82-1,3.22,0,3,3.53,3.6,4.83,2.42,1.3,2.11,3.68-.46,1.44.32,2.61,1.21,2.33.54,3.11a1.74,1.74,0,0,0,0,2.51c.75,1,2.29,1.35,1,3.9s-15.66,3-17.1.22,0-2.69-.42-4.84-1.3-3.28-.38-4.48-.61-1.63-.38-3.54,1.65-1.11,1.73-2.65,1.18-6.45,5.77-5.33Z"/><path class="cls-61" d="M93.47,58.84s.47,3.31-.56,4.11S87,64,86,64.79s-.86,6.46-.83,8.12c7.22-.12,14.47-.26,21.71-.41-.07-1.85-.16-6.54-2-7.54s-5.37-1-6.39-2.64-.77-2.52-.77-2.52-3.73.11-4.24-1Z"/><path class="cls-62" d="M93.47,58.84a12.94,12.94,0,0,1,.1,2.21,7.34,7.34,0,0,0,1.55.8,4.31,4.31,0,0,0,3.06-.07,3,3,0,0,1-.47-2s-3.73.11-4.24-1Z"/><path class="cls-61" d="M99.62,50.16a13.13,13.13,0,0,0,.49,2.79,10,10,0,0,1-.15,5.41,3.83,3.83,0,0,1-5,2c-2.21-.9-3.19-2.07-3.51-3.51a18.83,18.83,0,0,0-.63-2.27,4,4,0,0,0,.19-2.06c-.25-.91-.28-1.08.18-1.74s.06-.92.43-1.6.65-1.69,1.73-.84,1.72,0,2.37-.31,1.2-1,1.79.43,1.77,1,2,1.24a.54.54,0,0,1,.12.43Z"/><path class="cls-10" d="M97.91,52.59c-.27,0-.46.29-.43.63a.62.62,0,0,0,.54.6c.27,0,.46-.28.44-.61a.64.64,0,0,0-.55-.62Z"/><path class="cls-10" d="M93.66,52.6a.51.51,0,0,0-.44.61.65.65,0,0,0,.55.62.51.51,0,0,0,.43-.61.65.65,0,0,0-.54-.62Z"/><path class="cls-63" d="M99.12,52.24a1.67,1.67,0,0,0-2.46-.08,1.09,1.09,0,0,0,.13.17,1.51,1.51,0,0,1,2.19.05l.14-.14Z"/><path class="cls-63" d="M94.86,52.24a1.67,1.67,0,0,0-2.47-.08.75.75,0,0,0,.14.17,1.5,1.5,0,0,1,2.19.06,1,1,0,0,1,.14-.15Z"/><path class="cls-27" d="M95.78,53.7s.28,1.15.69,1.4a.6.6,0,0,1,.23.19.31.31,0,0,1,0,.18.24.24,0,0,1-.07.18.66.66,0,0,1-.37.2,2.5,2.5,0,0,0,.09.25,1.19,1.19,0,0,0,.47-.26.53.53,0,0,0,0-.68.76.76,0,0,0-.3-.29c-.31-.18-.56-1.22-.56-1.22l-.24.05Z"/><path class="cls-8" d="M97.67,57.14s-3.45-.08-3.49,0a3.11,3.11,0,0,0,2,1c.87-.06,1.87-1,1.44-1.06Z"/><path class="cls-62" d="M98.46,55c-.36,0-.62.16-.6.33s.31.32.66.32.62-.15.6-.33-.31-.33-.66-.32Z"/><path class="cls-62" d="M93.55,55c-.34,0-.61.15-.6.33s.3.3.66.3.62-.12.61-.3S93.9,55,93.55,55Z"/><path class="cls-62" d="M100.4,52.92a.81.81,0,0,1,.76.23,1.78,1.78,0,0,1,0,2,1.66,1.66,0,0,1-.81.78,14.3,14.3,0,0,0,0-3Z"/><path class="cls-62" d="M90,52.59s-.53-.38-.76.4a2.75,2.75,0,0,0,.79,2.19,2.9,2.9,0,0,0,1.1.36A10.67,10.67,0,0,1,90,52.59Z"/><path class="cls-64" d="M102,63.75c0,1.47.12,2.94.18,4.41h.63c-.07-1.46-.12-2.93-.17-4.39-.22,0-.43,0-.64,0Z"/><path class="cls-64" d="M88.3,63.73c.31,1.49.61,3,.92,4.43l.63-.1c-.31-1.48-.62-2.94-.92-4.42l-.63.09Z"/><path class="cls-51" d="M102.57,67.45s-.95,2.33-5.25,2.27-8-2.94-8.1-2.08-.25,3.48-.39,5.21q7.42-.12,14.84-.28a19.2,19.2,0,0,0-1.1-5.12Z"/><path class="cls-63" d="M97.28,65.29l2.16-.59c0-.07,0-.15-.06-.21l-2.16.59a1.05,1.05,0,0,0,.06.21Zm-2-.19-2.25-.55a2.23,2.23,0,0,0,0,.23l2.25.53a1,1,0,0,1,0-.21Z"/><path class="cls-8" d="M98.14,52.89a.16.16,0,0,0-.14.17.18.18,0,0,0,.16.15.15.15,0,0,0,.14-.15.19.19,0,0,0-.16-.17Z"/><path class="cls-8" d="M93.86,52.9a.14.14,0,0,0-.13.16.15.15,0,0,0,.15.15.14.14,0,0,0,.14-.16.17.17,0,0,0-.16-.15Z"/><path class="cls-65" d="M189.81,64.16l16.27-.54q.25,2.77.52,5.55L187,70c-.12-1.19-.22-2.37-.33-3.55s1.31-2.17,3.15-2.24Z"/><path class="cls-66" d="M206.14,64.16c.15,1.68.3,3.35.46,5L187,70c-.1-1-.18-2-.28-3-.1-1.17,1.31-2.17,3.15-2.23l16.28-.56Z"/><path class="cls-41" d="M198.75,65.81h.42c0,.63.11,1.28.18,1.91h-.43c-.07-.62-.13-1.27-.17-1.91Zm4.14-.14h.44c0,.62.11,1.26.18,1.89h-.43c-.07-.62-.13-1.25-.19-1.89Zm-.82,0h.42c.06.64.12,1.27.19,1.9l-.44,0c-.07-.63-.13-1.26-.17-1.91Zm-.83,0,.43,0c0,.64.1,1.27.17,1.9h-.43c-.06-.62-.13-1.25-.17-1.89Zm-.84,0,.44,0c0,.64.11,1.28.17,1.9h-.42c-.07-.62-.14-1.25-.19-1.89Zm-.83,0H200c0,.65.11,1.28.17,1.91h-.42c-.07-.63-.14-1.26-.18-1.91Z"/><path class="cls-67" d="M191.65,75c-2.49,1.11-3,2.56-2.94,3.3a10.15,10.15,0,0,0,1.12,4,80.78,80.78,0,0,0-.06,10.88L204,91.75c2.37-.24-2.15-5.33-2.73-7.58-.4-1.52-.27-4.41-1.52-6.7-1.52-2.77-5.62-3.55-8.1-2.43Z"/><path class="cls-42" d="M189.27,80.61s-1,.39-1,1.26.18,2.21.78,2.68,1.1.86,1,.17-.49-2.74-.75-4.11Z"/><path class="cls-61" d="M197.88,85.67a17.51,17.51,0,0,0,.85,3.63c.51,1,.51,1,.51,1a7.2,7.2,0,0,1-2.81,1.22c-1.34.14-2.25-.07-2.29-.63s-.23-2.8-.27-3.37,2.95-.52,4-1.9Z"/><path class="cls-26" d="M197.88,85.67s.17,1.22.43,2.32a6.8,6.8,0,0,1-3.39,1.75,2.07,2.07,0,0,1-.88,0c-.06-.72-.14-1.81-.17-2.18s2.95-.52,4-1.9Z"/><path class="cls-61" d="M189.14,79a25.14,25.14,0,0,0,.91,5.78A4.34,4.34,0,0,0,194.78,88,4.72,4.72,0,0,0,198.89,85a29.73,29.73,0,0,0,.16-4.48,3,3,0,0,1-2.11-.4c-1.43-.66-6.27-2.54-6.27-2.54A6,6,0,0,0,189.14,79Z"/><path class="cls-68" d="M198.73,81.09s-1.74-6.68-7.56-5.87c3.67-2.79,8.06,1.41,8.71,5.59l-1.15.28Z"/><path class="cls-69" d="M198.73,81.09a10.66,10.66,0,0,0-.58-1.52,2,2,0,0,1,1.09-.52c.24,0,.11,0,.15,0a9.68,9.68,0,0,1,.49,1.75l-1.15.28Z"/><path class="cls-42" d="M194.24,90.64a17.68,17.68,0,0,0-1.8,1.19c-1.71,1.22-3.17.54-3.45,1.9a23.66,23.66,0,0,0-.34,3.28c-.11.72-.2,1.44-.27,2.15q10.2-.78,20.43-1.52a13.8,13.8,0,0,0-1-3.64c-.63-1.34-.65-2.42-1.8-3.06s-7.13-1.29-7.13-1.29c.49,1.2-3.34,2.4-4.68,1Z"/><path class="cls-60" d="M178.21,89.63l11.66-.73a2.23,2.23,0,0,1,2.28,1.67c.54,2.54,1.07,5.09,1.63,7.63a1.47,1.47,0,0,1,0,.55l-14.75,1.11c-.29-3.41-.56-6.81-.84-10.23Z"/><path class="cls-69" d="M193.66,91.41a4.8,4.8,0,0,0,6.42-1.1,2,2,0,0,0,.23.18,5.09,5.09,0,0,1-6.83,1.14c.06-.06.11-.14.18-.22Z"/><path class="cls-69" d="M203.43,93.2a15.51,15.51,0,0,0-.55,4.72l-.29,0a16,16,0,0,1,.54-4.79l.3,0Z"/><path class="cls-25" d="M194.79,80.91c.23,0,.44.23.47.55s-.15.58-.38.59-.42-.24-.45-.56.13-.57.36-.58Z"/><path class="cls-25" d="M191,81.11c.22,0,.44.23.47.55s-.14.58-.36.59-.44-.23-.47-.55.13-.59.36-.59Z"/><path class="cls-70" d="M190,80.68a1.37,1.37,0,0,1,1.92-.11,1.07,1.07,0,0,0-.15.17,1.1,1.1,0,0,0-1.58.08,1.56,1.56,0,0,1-.19-.14Z"/><path class="cls-70" d="M193.79,80.47a1.39,1.39,0,0,1,1.92-.11,1.16,1.16,0,0,1-1.73.26,1,1,0,0,1-.19-.15Z"/><path class="cls-27" d="M192.59,82.18s0,1.41-.32,1.75c-.2.19.73.47.73.47s-.05.14-.06.21-1.32-.4-.84-.85c.29-.27.25-1.57.25-1.57Z"/><path class="cls-8" d="M192.26,85.49c.93-.25,2.33-.6,2.81-.72s-.67,1.29-1.45,1.48-1.36-.76-1.36-.76Z"/><path class="cls-42" d="M199.28,79.48a2.23,2.23,0,0,1,2.12,2.21,2.08,2.08,0,0,1-1.73,2.43,2.25,2.25,0,0,1-2.12-2.23,2.07,2.07,0,0,1,1.73-2.41Z"/><path class="cls-71" d="M199.8,79.62a1.66,1.66,0,0,1,1.57,1.64,1.56,1.56,0,0,1-1.3,1.81,1.63,1.63,0,0,1-1.56-1.64,1.55,1.55,0,0,1,1.29-1.81Z"/><path class="cls-42" d="M200.19,80a1.24,1.24,0,0,1,1.18,1.22,1.16,1.16,0,0,1-1,1.36,1.23,1.23,0,0,1-1.17-1.23,1.15,1.15,0,0,1,1-1.35Z"/><path class="cls-8" d="M182.48,93.41a1.32,1.32,0,1,1-1.27,1.41,1.33,1.33,0,0,1,1.27-1.41Z"/><path class="cls-8" d="M194.79,81.13c.07,0,.14,0,.15.1a.14.14,0,0,1-.12.14.13.13,0,0,1-.14-.12.11.11,0,0,1,.11-.12Z"/><path class="cls-8" d="M191,81.33a.12.12,0,0,1,.13.11.12.12,0,0,1-.12.13.12.12,0,0,1-.13-.11.11.11,0,0,1,.12-.13Z"/><path class="cls-43" d="M94.87,95.42s-5.21,2.75-5.7,3.89-.6,4-.72,6.18c7.58-.36,15.15-.73,22.75-1.12a35.71,35.71,0,0,0-1.44-6c-.73-1.4-6.78-4-7.43-3.29l-3.85,4.26c-1.2-1.32-2.41-2.64-3.61-4Z"/><path class="cls-45" d="M92.19,84.05a2.31,2.31,0,0,0-.36,2.12c.23,1.13,1,1.84,1.34,1.66s-1-3.78-1-3.78Z"/><path class="cls-45" d="M103.79,83.71a2.53,2.53,0,0,1,.72,2.07c0,1.13-.68,1.88-1,1.72s.31-3.79.31-3.79Z"/><path class="cls-24" d="M91.23,79.93a12.62,12.62,0,0,0,.16,2.86c.26,1.06-.45,3.42,1.36,3.35s9.08-.37,10.89-.46,1.15-3,.73-6.09a4.44,4.44,0,0,0-3.13-3.76A7.81,7.81,0,0,0,95.08,75c-3.27,1-3.85,5-3.85,5Z"/><path class="cls-62" d="M101,90.38c.14.94.28,1.88.43,2.82s.27,1.87.41,2.81l-2.59,2.88c-1-1-1.91-2-2.86-2.92,0-1.8,0-3.61.08-5.43,0,0,3.28.78,4.53-.16Z"/><path class="cls-52" d="M101,90.38c.1.7.2,1.41.32,2.1a6.07,6.07,0,0,1-4.89.18c0-.7,0-1.4,0-2.12,0,0,3.28.78,4.53-.16Z"/><path class="cls-62" d="M101.39,78.51a14,14,0,0,1,2.14,3.4c.52,1.5,0,7.16-1.13,8.45a5.85,5.85,0,0,1-7.44.26c-2.79-2.14-2.43-7.81-2.42-8.39s2.29-3.76,2.28-3.35A2.79,2.79,0,0,1,94.24,80a6.63,6.63,0,0,0,1.31-.89c.75-.63,1-.82.85-.63s-1.12,1.37-1,1.42A5,5,0,0,0,97.08,79c.6-.44,1.75-1.42,1.75-1.42s.73,2.14,1.08,1.79-.12-1.53-.12-1.53a10.72,10.72,0,0,0,1.57,1.47c.43.21,0-.79,0-.79Z"/><path class="cls-46" d="M99.4,81.64a1.66,1.66,0,0,1,2.33-.07c0,.08-.1.18-.16.27a1.36,1.36,0,0,0-1.94,0,1.25,1.25,0,0,1-.23-.23Z"/><path class="cls-46" d="M94,81.8a1.65,1.65,0,0,1,2.33-.08l-.16.26a1.37,1.37,0,0,0-2,0L94,81.8Z"/><path class="cls-41" d="M95.39,82.5c.23,0,.44.31.48.71s-.13.73-.36.74-.45-.31-.48-.71.13-.74.36-.74Z"/><path class="cls-41" d="M100.28,82.36c.23,0,.44.31.48.71s-.13.74-.36.74-.45-.31-.48-.72.13-.72.36-.73Z"/><path class="cls-27" d="M97,85.15a1.61,1.61,0,0,0,2.13-.09,1.83,1.83,0,0,0,.21.26,1.9,1.9,0,0,1-2.53.06,1.92,1.92,0,0,1,.19-.23Z"/><path class="cls-27" d="M96.31,87.54a5.3,5.3,0,0,0,4.69-.12l.17.28a5.7,5.7,0,0,1-5,.16c0-.1.07-.21.11-.32Z"/><path class="cls-72" d="M100.85,97.39l-1.5,2c.16,1.43.32,2.86.49,4.29l-1.46.07c-.12-1.44-.26-2.86-.38-4.3.48-.86,1-1.71,1.46-2.56l1.39.54Z"/><path class="cls-73" d="M97.42,96.4l1.32,1.72c-.26.43-.5.87-.74,1.29-.5-.72-1-1.43-1.53-2.16.31-.29.63-.57,1-.85Z"/><path class="cls-74" d="M91.1,102.24c-.08,1.06-.16,2.1-.23,3.13l-.3,0c.06-1,.14-2.12.22-3.19l.31,0Z"/><path class="cls-74" d="M107.48,101.48c.24,1,.5,2,.77,3h.31c-.27-1-.54-2.05-.79-3.09a1.24,1.24,0,0,0-.29.06Z"/><path class="cls-42" d="M91,103.9q8.37-.66,16.75-1.35c.17.66.35,1.32.52,2q-8.7.44-17.38.85c0-.49.07-1,.11-1.47Z"/><path class="cls-75" d="M101.4,93.2c.35,2.37-2.08,3.55-1.94,3.65,1.07.79,2.15,1.57,3.25,2.35.4-3.59,1.4-4.06-1.31-6Z"/><path class="cls-75" d="M96.39,93.6s-.24.28-.13,1.18S97.87,96,97.42,96.4s-2.26,2.23-2.71,2.68-.21-2.51-.31-3.62,2-2.21,2-1.86Z"/><path class="cls-8" d="M95.35,82.82a.12.12,0,0,1,.13.12.11.11,0,0,1-.12.13.14.14,0,0,1-.13-.12.12.12,0,0,1,.12-.13Z"/><path class="cls-8" d="M100.32,82.67a.14.14,0,0,1,0,.27.15.15,0,0,1-.14-.13.14.14,0,0,1,.12-.14Z"/><path class="cls-62" d="M92.25,94.64A9.41,9.41,0,0,0,93,90.77c-.1-1.18.44-2.33-.2-2.41s-.88.33-.94.8,0,1.22-.12,1.65,0,.65-.18.42a16.64,16.64,0,0,1-.93-2.81A29.31,29.31,0,0,0,90,85.26a.45.45,0,0,0-.83.16c-.1.5.49,3.94.36,4a21.49,21.49,0,0,1-.82-3c-.13-.45-.21-1.4-.82-1.38s-.21,1.53-.13,1.91a25.26,25.26,0,0,1,.64,2.85c-.07.18-.22.21-.29,0s-1.14-2.54-1.29-3-.4-1-.76-.85-.4.44-.16,1.15,1.38,3.63,1.45,3.85a.27.27,0,0,1-.23.37,8.13,8.13,0,0,1-1.44-.93,6.4,6.4,0,0,0-1-1c-.24-.11-.66-.06-.61.32a8.9,8.9,0,0,0,1.59,2.07,13.44,13.44,0,0,0,1.12,1,22,22,0,0,0,1.79,2.7c.26.09-1,10-1,10l3.72-.18c.3-2,.46-9.42,1-10.71Z"/><rect class="cls-2" x="320.14" y="40.2" width="34.45" height="34" rx="3.97"/><polyline class="cls-76" points="327.85 64.45 335.17 55.08 339.32 57.96 346.76 48.94"/><polyline class="cls-76" points="344.91 48.79 346.99 48.78 347.16 50.76"/></g></g></svg>