<svg xmlns="http://www.w3.org/2000/svg" xmlns:xlink="http://www.w3.org/1999/xlink" viewBox="0 0 348.69 234.64"><defs><style>.cls-1{fill:#070707;}.cls-2{isolation:isolate;}.cls-3{fill:#46c7ce;opacity:0.25;}.cls-4{fill:#eaeaea;mix-blend-mode:multiply;}.cls-5{fill:#fb9782;}.cls-6{fill:#0b4f5a;}.cls-22,.cls-24,.cls-27,.cls-28,.cls-30,.cls-35,.cls-36,.cls-37,.cls-39,.cls-42,.cls-43,.cls-7{fill:none;stroke-linecap:round;stroke-linejoin:round;}.cls-7{stroke:#022f3b;stroke-width:1.5px;}.cls-8{fill:#18727c;}.cls-9{fill:#fa654e;}.cls-10{fill:#f3f4f4;}.cls-11{fill:#e13a3c;}.cls-12{fill:#008596;}.cls-13{fill:#ced5db;}.cls-14{fill:#fb6d5f;}.cls-15{fill:#0b1b11;}.cls-16{fill:#022f3b;}.cls-17{fill:#e47d6f;}.cls-18{clip-path:url(#clip-path);}.cls-19{fill:#fff;}.cls-20{fill:#fa5;}.cls-21{clip-path:url(#clip-path-2);}.cls-22,.cls-28,.cls-35,.cls-39,.cls-42{stroke:#000;}.cls-22{stroke-width:0.95px;}.cls-23{fill:#f19b8e;}.cls-24,.cls-27{stroke:#d9736a;}.cls-24{stroke-width:0.75px;}.cls-25{fill:#21221c;}.cls-26,.cls-38{fill:#1d0300;}.cls-27,.cls-28{stroke-width:0.7px;}.cls-29{fill:#709afa;}.cls-30{stroke:#5084ea;stroke-width:0.67px;}.cls-31{fill:#f7b49b;}.cls-32{fill:#bd4a23;}.cls-33{fill:#168984;}.cls-34{fill:#f0a891;}.cls-35{stroke-width:0.87px;}.cls-36{stroke:#ed6a91;stroke-width:0.95px;}.cls-37{stroke:#cf6460;}.cls-37,.cls-39{stroke-width:0.66px;}.cls-38{stroke:#1d0300;stroke-miterlimit:10;stroke-width:0.2px;}.cls-40{fill:#f8af96;}.cls-41{fill:#f982a2;}.cls-42{stroke-width:0.91px;}.cls-43{stroke:#363638;stroke-width:0.89px;}.cls-44{fill:#e8e8e8;}</style><clipPath id="clip-path"><path class="cls-1" d="M175.16,201.38s-4,2.52-6.12-1.35l-15.49,8.22,24.13-.14Z"/></clipPath><clipPath id="clip-path-2"><path class="cls-1" d="M186.15,201.38s4,2.52,6.13-1.35l15.49,8.22-24.13-.14Z"/></clipPath></defs><g class="cls-2"><g id="Layer_2" data-name="Layer 2"><g id="Option_1" data-name="Option 1"><path class="cls-3" d="M151.57,234.58C61.23,237.4-32.14,140.23,10.74,80.77,44,34.65,100.31,55.87,141.29,33.16,216.66-8.6,323.15-16.71,343.81,42.79s-29.23,130.73-58,155.8C245.28,234,151.57,234.58,151.57,234.58Z"/><path class="cls-4" d="M316.29,211.3c0,3.29-61.33,6-137,6s-137-2.67-137-6,61.34-6,137-6S316.29,208,316.29,211.3Z"/><path class="cls-5" d="M97.15,198l.67,6a6.75,6.75,0,0,0,4.91-.8v-6S98.12,196.71,97.15,198Z"/><path class="cls-6" d="M104.68,105.56l-1.09,60.25-.17,31.69-7.07.42s-5-28.63-2.43-36.83c-3.66-14.06-4.52-33.78-5.26-55Z"/><path class="cls-7" d="M92.11,115.29s0,32.71,4.27,45.66c0,0-3,10.06,1.86,34.89"/><path class="cls-8" d="M104.09,195.63a6.27,6.27,0,0,1-.18,3.83l-8-.16a10.25,10.25,0,0,1-.34-3.81Z"/><path class="cls-9" d="M95.56,210c0,.78.07,1.3.07,1.3h19.73a3.26,3.26,0,0,0-.09-1.3c-1.08-4-9.59-4-10.31-5.91-1.54-4-2.72-1.65-2.72-1.65s-4.48-.93-5.65,1.25A18.38,18.38,0,0,0,95.56,210Z"/><path class="cls-10" d="M107.76,207.5h-.06a.24.24,0,0,1-.17-.3,1.91,1.91,0,0,1,1-1.38,2,2,0,0,1,1.57.05.24.24,0,1,1-.21.44h0a1.58,1.58,0,0,0-1.16-.05,1.49,1.49,0,0,0-.74,1.06A.25.25,0,0,1,107.76,207.5Z"/><path class="cls-10" d="M106.57,207h-.07a.24.24,0,0,1-.17-.3,2,2,0,0,1,1-1.38,2.08,2.08,0,0,1,1.58,0,.25.25,0,0,1,.11.33.25.25,0,0,1-.33.11h0a1.28,1.28,0,0,0-1.9,1A.24.24,0,0,1,106.57,207Z"/><path class="cls-10" d="M105.34,206.66h-.07a.24.24,0,0,1-.17-.3,1.77,1.77,0,0,1,2.59-1.32.23.23,0,0,1,.11.32.25.25,0,0,1-.32.12,1.29,1.29,0,0,0-1.91,1A.24.24,0,0,1,105.34,206.66Z"/><path class="cls-11" d="M95.56,210c0,.78.07,1.3.07,1.3h19.73a3.26,3.26,0,0,0-.09-1.3Z"/><path class="cls-5" d="M68.41,198l-.29,6.13s3.22,1.48,5.53,0l.34-6.91S69.38,196.71,68.41,198Z"/><path class="cls-8" d="M96.32,105.64s1.27,6.2-8.08,14.26l-6.86,43L75,196.8l-6.92,0s1.38-24,3.15-38.54l3.35-52.16Z"/><path class="cls-9" d="M63.7,211.65H76.85a7.75,7.75,0,0,0,.15-1.39,7.32,7.32,0,0,0-.15-1.68c-.34-1.61-1.74-1.21-2.93-4.53a4.66,4.66,0,0,0-1.29-1.62,2.93,2.93,0,0,0-4.3,0c-1.91,2-2.41,4.4-3.61,5.39a3.44,3.44,0,0,0-1.1,2.45A5.65,5.65,0,0,0,63.7,211.65Z"/><path class="cls-10" d="M72.85,206.25a.26.26,0,0,1-.22-.13,3.14,3.14,0,0,0-4.65,0,.25.25,0,1,1-.44-.22,3.59,3.59,0,0,1,5.53,0,.25.25,0,0,1-.11.33A.2.2,0,0,1,72.85,206.25Z"/><path class="cls-10" d="M72.85,205.09a.26.26,0,0,1-.22-.13A3.14,3.14,0,0,0,68,205a.25.25,0,0,1-.44-.22,3.59,3.59,0,0,1,5.53,0,.24.24,0,0,1-.11.32A.2.2,0,0,1,72.85,205.09Z"/><path class="cls-10" d="M72.85,204a.26.26,0,0,1-.22-.13,3.14,3.14,0,0,0-4.65,0,.25.25,0,1,1-.44-.22,3.59,3.59,0,0,1,5.53,0A.25.25,0,0,1,73,204Z"/><path class="cls-11" d="M63.7,211.65H76.85a7.75,7.75,0,0,0,.15-1.39H63.62A5.65,5.65,0,0,0,63.7,211.65Z"/><path class="cls-12" d="M75.58,195.89a6.19,6.19,0,0,1-.18,3.83l-8.54-.17a9.82,9.82,0,0,1-.17-3.74Z"/><path class="cls-10" d="M104.89,108.45c-.79,3.5-31.75,12.06-31.75,4.74,0-5,1.5-23.48,1.8-31.43a24,24,0,0,0-.19-3.25h0v0l0-.3s0-.05,0-.07c0-.35-.09-.71-.14-1.08a0,0,0,0,1,0,0,.13.13,0,0,0,0-.06l0-.18c-.1-.66-.21-1.34-.32-2.05-.06-.39-.13-.78-.2-1.19q-.16-.94-.33-1.92c-.07-.36-.13-.72-.2-1.09C72.3,63.89,71.1,57,72.62,55.63c2.76-2.48,11.56-5.89,11.56-5.89l7.91.11s10.22,2.25,11.41,4.9c.84,1.87.58,9.17.33,16.18,0,.44,0,.88,0,1.32,0,1-.07,2-.1,3,0,.16,0,.33,0,.49s0,.53,0,.79c0,1,0,1.87,0,2.72v.14c0,1.31,0,2.75.1,4.28,0,.46,0,.93.08,1.4C104.37,95.68,105.91,103.91,104.89,108.45Z"/><path class="cls-13" d="M97.69,100.2h-.06c-4.84-.83-8.89-5.12-11.44-8.56a46.1,46.1,0,0,1-4.38-7.31.34.34,0,0,1,.62-.28,44.69,44.69,0,0,0,4.32,7.19c2.47,3.34,6.38,7.49,11,8.29a.34.34,0,0,1-.06.68Z"/><path class="cls-13" d="M90.63,56.28a11.41,11.41,0,0,1-4.52-1,13.29,13.29,0,0,1-3.33-2,.3.3,0,0,1,0-.44.33.33,0,0,1,.45,0s4.94,4.35,10.54,2.32a.32.32,0,0,1,.41.19.33.33,0,0,1-.19.41A10,10,0,0,1,90.63,56.28Z"/><path class="cls-13" d="M97.22,105.91a23.6,23.6,0,0,1-10.29-2.74,33.81,33.81,0,0,1-6.22-4,.32.32,0,0,1,.41-.48,33.12,33.12,0,0,0,6.11,3.94c3.3,1.66,8.27,3.41,13.13,2.32a.31.31,0,0,1,.38.24.3.3,0,0,1-.24.37A14.71,14.71,0,0,1,97.22,105.91Z"/><path class="cls-13" d="M92.71,107.86a16.18,16.18,0,0,1-6.54-1.39.32.32,0,0,1,.27-.57,15.64,15.64,0,0,0,9.18,1,.32.32,0,0,1,.38.24.33.33,0,0,1-.25.38A14.17,14.17,0,0,1,92.71,107.86Z"/><path class="cls-5" d="M66.15,81.33c.42-1.06.93-2.2,1.45-3.34.4-.86.8-1.71,1.19-2.52,1.1-2.3,2.27-4.66,3.55-6.85.21-3.24.24-8.17-1.25-10.24a4.17,4.17,0,0,0-3.29,2c-1.11,1.87-2.24,3.76-3.34,5.68S62.28,70,61.24,72l-.24.49c-.94,1.87-1.83,3.79-2.62,5.79A52.35,52.35,0,0,0,56.2,85h0a4.13,4.13,0,0,0,.07,2.21l0,.09,0,.07,0,.1.08.2a3.17,3.17,0,0,0,.16.37c.1.25.2.47.31.7.21.45.42.89.65,1.32.44.86.9,1.69,1.38,2.5,1,1.63,2,3.18,3.08,4.68.53.75,1.09,1.48,1.66,2.21s1.14,1.44,1.73,2.13q1.78,2.1,3.67,4.06A2.84,2.84,0,0,0,73.4,102h0c-1-1.36-2-2.74-2.89-4.16-.46-.7-.9-1.42-1.33-2.13s-.84-1.45-1.24-2.18C67.15,92,66.42,90.53,65.78,89c-.32-.75-.62-1.5-.89-2.24-.07-.21-.15-.41-.21-.62l-.09-.25c0-.12.07-.24.11-.36A43.31,43.31,0,0,1,66.15,81.33Z"/><path class="cls-10" d="M69.14,78.36,73.07,71s1.78-2.92,1.89-4.7c.21-3.25.33-4.67-.68-7.95-.17-.55-1.15-2.63-1.66-2.75-4.53,2.43-11.26,12.8-12,15C60.6,70.67,63.37,76.39,69.14,78.36Z"/><path class="cls-14" d="M61,85.19a.29.29,0,0,0,.29.29,12.15,12.15,0,0,1,3.36.7l-.09-.25c0-.12.07-.24.11-.36a12.26,12.26,0,0,0-3.38-.67A.29.29,0,0,0,61,85.19Z"/><path class="cls-14" d="M63.88,85.91a.23.23,0,0,0,.14,0,.28.28,0,0,0,.09-.4,13.35,13.35,0,0,0-1.84-1.94.29.29,0,1,0-.39.43,12.58,12.58,0,0,1,1.74,1.82A.28.28,0,0,0,63.88,85.91Z"/><path class="cls-5" d="M75.15,103.7,73.26,108c-2,.44-4.48-2.77-4.48-2.77a5.12,5.12,0,0,1,2.9-4.1l2.86,1a1.11,1.11,0,0,1,.62,1.56Z"/><path class="cls-15" d="M68.85,105.5s1-3.52,3-4.86a2,2,0,0,1,2.09,1.16,48.91,48.91,0,0,0-3.07,5.46A2.76,2.76,0,0,1,68.85,105.5Z"/><path class="cls-15" d="M72,102.64a1.88,1.88,0,1,1-2.72.59A2,2,0,0,1,72,102.64Z"/><path class="cls-6" d="M71.62,103.14a1.38,1.38,0,1,1-1.36,2.38,1.46,1.46,0,0,1-.63-1.94A1.44,1.44,0,0,1,71.62,103.14Z"/><path class="cls-5" d="M74.55,106.36s2.75.25,3.1,1.19-3.52.8-3.52.8,1.89.35,2,.82c.31,1.07-2.41.87-3.64.53s-.78-1.45-.26-1.48c0,0-.61-1.32.18-2.1a1.5,1.5,0,0,1,.15-2s-.86-1.68.37-2c0,0,.31-1.91,1.1-1.87L74,102a20,20,0,0,1,3.71.3c1,.29.84,1.83-3,1.74,0,0,3.21.21,3.92,1.16S76.63,106.39,74.55,106.36Z"/><path class="cls-13" d="M77.35,66.23a27.33,27.33,0,0,0-2.17,2.92l-.53.82c-.36.57-.69,1.12-1,1.63-.07-.36-.13-.72-.2-1.09a34.52,34.52,0,0,1,3.35-4.75.35.35,0,0,1,.5,0A.34.34,0,0,1,77.35,66.23Z"/><path class="cls-13" d="M74.56,70a.36.36,0,0,1-.35-.29.35.35,0,0,1,.27-.42,22.43,22.43,0,0,1,2.82-.38.36.36,0,0,1,0,.72,21.63,21.63,0,0,0-2.72.36Z"/><path class="cls-5" d="M120.76,85h0a52.35,52.35,0,0,0-2.18-6.73c-.79-2-1.68-3.92-2.62-5.79l-.24-.49c-1-2-2.12-4-3.22-5.89s-2.22-3.81-3.34-5.68a4.17,4.17,0,0,0-3.28-2c-1.49,2.07-1.47,7-1.26,10.24,1.28,2.19,2.45,4.55,3.55,6.85.39.81.79,1.66,1.19,2.52.52,1.14,1,2.28,1.45,3.34.56,1.41,1,2.82,1.46,4.24,0,.12.06.24.1.36a2.41,2.41,0,0,0-.08.25c-.07.21-.14.41-.22.62-.27.74-.57,1.49-.89,2.24-.64,1.49-1.37,3-2.16,4.43-.4.73-.81,1.46-1.24,2.18s-.86,1.43-1.32,2.13-.83,1.26-1.25,1.88v6.76a2.82,2.82,0,0,0,2.67-.79c1.26-1.31,2.49-2.66,3.67-4.06.59-.69,1.16-1.41,1.73-2.13S114.41,98,115,97.23c1.08-1.5,2.11-3,3.07-4.68.48-.81.94-1.64,1.39-2.5.22-.43.43-.87.64-1.32.11-.23.21-.45.32-.7s.1-.24.15-.37l.08-.2,0-.1,0-.07,0-.09A4.23,4.23,0,0,0,120.76,85Z"/><path class="cls-10" d="M107.82,78.36,103.89,71s-1.35-3-1.89-4.7c-1.15-3.59-.92-4.75-.11-8.33.12-.56,1.1-3.22,1.61-3.34,4.53,2.43,12.1,13.77,12.86,16C116.36,70.67,113.59,76.39,107.82,78.36Z"/><path class="cls-14" d="M115.93,85.19a.29.29,0,0,1-.29.29,12,12,0,0,0-3.35.7c0-.08,0-.16.08-.25s-.07-.24-.1-.36a12.11,12.11,0,0,1,3.37-.67A.29.29,0,0,1,115.93,85.19Z"/><path class="cls-14" d="M113.08,85.91a.23.23,0,0,1-.14,0,.29.29,0,0,1-.09-.4,12.74,12.74,0,0,1,1.85-1.94.29.29,0,0,1,.41,0,.3.3,0,0,1,0,.41,13.16,13.16,0,0,0-1.74,1.82A.28.28,0,0,1,113.08,85.91Z"/><path class="cls-5" d="M104,105.78s-2.76.26-3.1,1.19,3.52.81,3.52.81-1.89.34-2,.81c-.31,1.08,2.41.87,3.64.54s.78-1.46.26-1.49c0,0,.61-1.31-.18-2.1a1.5,1.5,0,0,0-.15-2s.85-1.68-.37-2c0,0,.06-2.21-.73-2.17v2.08a23.81,23.81,0,0,0-4,.34c-1,.29-.84,1.84,3,1.74,0,0-3.21.21-3.92,1.16S102,105.81,104,105.78Z"/><path class="cls-13" d="M103.83,70.93c0,.44,0,.88,0,1.32-.27-.46-.57-1-.89-1.47l-.53-.82A26.09,26.09,0,0,0,100.18,67a.36.36,0,0,1,0-.51.35.35,0,0,1,.5,0A31.57,31.57,0,0,1,103.83,70.93Z"/><path class="cls-13" d="M102.9,70.79a19.1,19.1,0,0,0-2.71-.36.36.36,0,0,1-.33-.38.36.36,0,0,1,.38-.34,18.84,18.84,0,0,1,2.82.38.35.35,0,0,1,.27.42S103.23,70.87,102.9,70.79Z"/><path class="cls-16" d="M79.61,33.07s-3.24-4.16-1.16-7.16,6.35-.23,6.35-.23,4.62-1.62,7.27-.23A4.69,4.69,0,0,1,94.84,29a3.75,3.75,0,0,1,1.51,2.88,7.48,7.48,0,0,1-1.14,3.58Z"/><path class="cls-5" d="M80.87,37.57A1.7,1.7,0,0,0,78.49,39c-.48,2.25,1.89,4.61,3.78,3.85C82.27,42.89,81.83,38.52,80.87,37.57Z"/><path class="cls-14" d="M81.78,42a.25.25,0,0,1-.24-.21A4.16,4.16,0,0,0,80,39.29.24.24,0,0,1,79.9,39a.24.24,0,0,1,.34-.07A4.57,4.57,0,0,1,82,41.75a.25.25,0,0,1-.2.29Z"/><path class="cls-14" d="M79.86,40.82a.26.26,0,0,1-.22-.13.25.25,0,0,1,.11-.34,2.87,2.87,0,0,1,1.5-.31.25.25,0,0,1,.2.29.25.25,0,0,1-.29.2A2.29,2.29,0,0,0,80,40.8.17.17,0,0,1,79.86,40.82Z"/><path class="cls-5" d="M94.35,37.57A1.71,1.71,0,0,1,96.74,39c.47,2.25-1.9,4.61-3.79,3.85C93,42.89,93.39,38.52,94.35,37.57Z"/><path class="cls-14" d="M93.44,42a.25.25,0,0,0,.24-.21,4.2,4.2,0,0,1,1.58-2.54.25.25,0,0,0,.07-.34.25.25,0,0,0-.35-.07,4.62,4.62,0,0,0-1.79,2.87.26.26,0,0,0,.2.29Z"/><path class="cls-14" d="M95.37,40.82a.24.24,0,0,0,.21-.13.25.25,0,0,0-.1-.34A3,3,0,0,0,94,40a.25.25,0,1,0,.1.49,2.27,2.27,0,0,1,1.17.27A.19.19,0,0,0,95.37,40.82Z"/><path class="cls-5" d="M92.11,51.12a6.47,6.47,0,0,1-8.26,0L84,50l.48-5.57h7l.34,3.23Z"/><path class="cls-16" d="M91.76,47.67c-.8,1-3.05,3-7.81,2.34l.48-5.57h7Z"/><path class="cls-5" d="M94.64,38c-.08.58-.19,1.18-.32,1.81s-.37,1.58-.62,2.37c-1.18,3.73-3.3,7.15-6.64,6.48-2.79-.56-4.48-3.45-5.49-6.5-.27-.79-.49-1.58-.67-2.35-.11-.5-.21-1-.3-1.45-.21-1.13-.34-2.14-.42-2.89a2.38,2.38,0,0,1,1-2.23c5.6-4,13.09-1.36,13.61.9A13.35,13.35,0,0,1,94.64,38Z"/><path class="cls-16" d="M89.56,37s.12-1.16,1-1.22,2.27.39,2.21,1.56Z"/><path class="cls-16" d="M86.37,37s-.13-1.16-1-1.22-2.27.39-2.21,1.56Z"/><path class="cls-16" d="M95.39,33.61c-.06,2.27-1.06,6.71-1.41,6.53s0-3,0-3.84L93.68,34l.42-.91a11.21,11.21,0,0,0-6.33-1.52,13.93,13.93,0,0,0-6.08,1.55l.45.88c-.07.7-.69,3.44-.69,3.44,0,.31-.18,2.59-.37,2.53-.38-.12-1-4.25-1.21-5a5,5,0,0,1-.22-1.87c.09-1.6.93-3.83,4.28-5.34C88,26,94.69,27.1,95.37,32.89A5.39,5.39,0,0,1,95.39,33.61Z"/><path class="cls-16" d="M95.39,33.61,93.68,34l.42-.91a11.21,11.21,0,0,0-6.33-1.52,13.93,13.93,0,0,0-6.08,1.55l.45.88-2.49-.88c-.25-1.48.69-4.29,4-5.8,4.08-1.84,11.18-.72,11.68,5.57C95.38,33.09,95.4,33.34,95.39,33.61Z"/><path class="cls-14" d="M84.75,40.4c0,.4-.62.72-1.39.73S82,40.83,82,40.44s.62-.72,1.39-.73S84.74,40,84.75,40.4Z"/><path class="cls-14" d="M93.47,40.4c0,.4-.61.72-1.39.73s-1.4-.3-1.4-.69.61-.72,1.39-.73S93.47,40,93.47,40.4Z"/><path class="cls-16" d="M94.78,37.88c-.09.58-.33,1.3-.46,1.93s-.37,1.58-.62,2.37c-1.18,3.73-3.3,7.15-6.64,6.48-2.79-.56-4.48-3.45-5.49-6.5-.27-.79-.49-1.58-.67-2.35-.11-.5-.3-1.22-.38-1.68h.91s1.16,4.75,2.69,5S85.29,42,88.24,43a3,3,0,0,1,2.68-.16c1.29.56,1.65-.18,2.15-1s.79-4,.79-4Z"/><path class="cls-10" d="M85.51,43.62a15.93,15.93,0,0,0,4.94,0,2.84,2.84,0,0,1-2.53,2C86.28,45.63,85.51,43.62,85.51,43.62Z"/><path class="cls-16" d="M85.58,38.83c0,.39-.16.71-.38.71s-.39-.31-.4-.7.16-.71.38-.71S85.57,38.44,85.58,38.83Z"/><path class="cls-16" d="M90.21,38.83c0,.39.16.71.37.71s.4-.31.41-.7-.17-.71-.38-.71S90.21,38.44,90.21,38.83Z"/><path class="cls-14" d="M88.17,42.28a3.18,3.18,0,0,1-.71-.1.22.22,0,0,1-.16-.27.23.23,0,0,1,.27-.17,2.56,2.56,0,0,0,.75.08c0-.37-.27-2.06-.51-3.55A.22.22,0,0,1,88,38a.22.22,0,0,1,.25.18c.13.8.55,3.43.51,3.74a.33.33,0,0,1-.15.25A.84.84,0,0,1,88.17,42.28Z"/><polygon class="cls-17" points="174.9 190.56 174.9 202.9 169.16 203.09 168.78 186.7 174.9 190.56"/><path class="cls-1" d="M175.16,201.38s-4,2.52-6.12-1.35l-15.49,8.22,24.13-.14Z"/><g class="cls-18"><path class="cls-19" d="M156.31,203.35s6,.89,5.5,8.3l-10.31-2.82Z"/></g><rect class="cls-19" x="153.56" y="208.18" width="24.13" height="2.11" transform="translate(-1.28 1.02) rotate(-0.35)"/><path class="cls-19" d="M167.21,204.05a.3.3,0,0,1-.17-.12,8.16,8.16,0,0,0-1.89-1.84.37.37,0,0,1-.11-.54.42.42,0,0,1,.56-.11,9.41,9.41,0,0,1,2.09,2,.36.36,0,0,1-.09.54A.37.37,0,0,1,167.21,204.05Z"/><path class="cls-19" d="M165.23,205a.4.4,0,0,1-.16-.13,8.43,8.43,0,0,0-1.89-1.84.36.36,0,0,1-.11-.53.42.42,0,0,1,.56-.11,9.14,9.14,0,0,1,2.09,2,.38.38,0,0,1-.09.54A.44.44,0,0,1,165.23,205Z"/><path class="cls-19" d="M163.26,206a.4.4,0,0,1-.16-.13,8.16,8.16,0,0,0-1.89-1.84.37.37,0,0,1-.11-.54.42.42,0,0,1,.56-.1,8.88,8.88,0,0,1,2.09,2,.37.37,0,0,1-.09.53A.41.41,0,0,1,163.26,206Z"/><path class="cls-20" d="M171.85,97.08s-10.25,12.15-6.95,44.61l2.64,54.15h8.33l5.46-98.76Z"/><polygon class="cls-17" points="186.42 190.56 186.42 202.9 192.16 203.09 192.54 186.7 186.42 190.56"/><path class="cls-1" d="M186.15,201.38s4,2.52,6.13-1.35l15.49,8.22-24.13-.14Z"/><g class="cls-21"><path class="cls-19" d="M205,203.35s-6,.89-5.5,8.3l10.31-2.82Z"/></g><rect class="cls-19" x="194.64" y="197.17" width="2.11" height="24.13" transform="translate(-14.73 403.65) rotate(-89.65)"/><path class="cls-19" d="M194.11,204.05a.3.3,0,0,0,.17-.12,8.16,8.16,0,0,1,1.89-1.84.39.39,0,0,0,.11-.54.42.42,0,0,0-.56-.11,9.33,9.33,0,0,0-2.1,2,.38.38,0,0,0,.09.54A.39.39,0,0,0,194.11,204.05Z"/><path class="cls-19" d="M196.08,205a.37.37,0,0,0,.17-.13,8.43,8.43,0,0,1,1.89-1.84.36.36,0,0,0,.11-.53.42.42,0,0,0-.56-.11,9.14,9.14,0,0,0-2.09,2,.38.38,0,0,0,.09.54A.42.42,0,0,0,196.08,205Z"/><path class="cls-19" d="M198.06,206a.4.4,0,0,0,.16-.13,8.16,8.16,0,0,1,1.89-1.84.37.37,0,0,0,.11-.54.42.42,0,0,0-.56-.1,8.88,8.88,0,0,0-2.09,2,.37.37,0,0,0,.09.53A.41.41,0,0,0,198.06,206Z"/><path class="cls-20" d="M190,97.08s10.25,12.15,7,44.61l-2.64,54.15h-9.24l-4.55-98.76Z"/><rect class="cls-20" x="173.3" y="103.72" width="16.01" height="16.01" transform="translate(362.61 223.44) rotate(-180)"/><line class="cls-22" x1="178.96" y1="119.73" x2="186.35" y2="119.27"/><path class="cls-23" d="M141.42,60.73l-3.62,1.14,7.66,23.85A4.36,4.36,0,0,0,151.9,88h0a4.36,4.36,0,0,0,1.51-5.84Z"/><path class="cls-23" d="M141.27,59.94,141,59a8.49,8.49,0,0,0-2-3.38l-1.62-1.69A.89.89,0,0,0,136,54h0A1.15,1.15,0,0,0,136,55.3l1.29,2.11-7.48-4.09a.7.7,0,0,0-1,.33l-.11.26a.69.69,0,0,0,.25.84l4.93,2.94-6.13-2.59a.69.69,0,0,0-1,.39l-.07.2a.69.69,0,0,0,.34.85l5.3,2.59L127.88,58a.7.7,0,0,0-.88.64v.08a.69.69,0,0,0,.46.69L132,60.91l-2.51-.21a.69.69,0,0,0-.83.83h0a.67.67,0,0,0,.46.5l11.5,3.53.71-2.64A5.39,5.39,0,0,0,141.27,59.94Z"/><path class="cls-24" d="M137.25,57.41a4.56,4.56,0,0,0,.8,3.8"/><path class="cls-25" d="M167.65,62s-6.2,1.57-15.62,16l-4.37-12.49-10,4.48,6.76,18.14a7.11,7.11,0,0,0,11.5,2.74c3-2.77,12.47-13.28,14.38-16.84Z"/><path class="cls-23" d="M198.37,95s-4.74,1.34-2.22,6.47c2.27,4.63,6.2,5.59,9.48,4.82a.92.92,0,0,0,.59-1.28h0a.91.91,0,0,0-.85-.52c-1.18,0-3.29-.17-3.88-1.76-.76-2.07.32-4.34-.88-6.47Z"/><polygon class="cls-23" points="198.37 94.95 201.22 90.24 205.42 92.59 200.29 98.18 198.37 94.95"/><path class="cls-25" d="M198.4,64.06s8,4,18,14.13a4,4,0,0,1,1,3.94c-.77,2.54-3.36,6.78-11.49,12.33l-7.05-3.6,6.16-8.21-11.79-4.89Z"/><polygon class="cls-19" points="166.56 104.88 194.38 105.2 191.17 62.35 169.7 62.35 166.56 104.88"/><path class="cls-25" d="M192.52,61l5.88,3.05s-5.48,19.94,2.46,50.67L194,116.31a181.11,181.11,0,0,1-6.7-53.22Z"/><path class="cls-25" d="M168.54,61l-3.4,2.2a2.72,2.72,0,0,0-1.52,3c1.13,5.84,3.53,23.67-2.91,48.6l6.86,1.59a171.25,171.25,0,0,0,7.22-53.29Z"/><path class="cls-23" d="M177.64,54.29A7,7,0,0,0,180,55.61a3.26,3.26,0,0,0,2.27-.55l1.33-.91.54,6.6-.15.14a4.64,4.64,0,0,1-6.68.06l-.28-.27Z"/><path class="cls-23" d="M173.31,44.06a29.81,29.81,0,0,0,.82,7.09,6.21,6.21,0,0,0,3.23,3.91l.3.17a6,6,0,0,0,5.82.09h0A6.22,6.22,0,0,0,187,51.19a44.67,44.67,0,0,0,.82-7.06s.6-7.75-7.2-7.65S173.31,44.06,173.31,44.06Z"/><ellipse class="cls-26" cx="183.9" cy="46.18" rx="0.63" ry="0.81"/><ellipse class="cls-26" cx="177.71" cy="46.18" rx="0.63" ry="0.81"/><polyline class="cls-27" points="181.38 47.89 181.38 49.03 180.61 49.03"/><path d="M186.25,43.7l-4.12-.37s.37-1.07,2-.9A2.31,2.31,0,0,1,186.25,43.7Z"/><path d="M175.62,43.7l4.13-.37s-.37-1.07-2-.9A2.31,2.31,0,0,0,175.62,43.7Z"/><path class="cls-28" d="M183.27,50a3.45,3.45,0,0,1-2.73.58"/><path class="cls-19" d="M187.56,41.27s-5.08-3.93-14.26,0a7.31,7.31,0,0,1,14.26,0Z"/><path class="cls-29" d="M175.22,57.35l5.4-1.29,5.26,1.29s5.43-7,4.7-13.89a10.72,10.72,0,0,0-6.75-8.93,8.83,8.83,0,0,0-6.57,0,10.72,10.72,0,0,0-6.67,8.92C169.86,50.35,175.22,57.35,175.22,57.35ZM173.8,44.11a7.66,7.66,0,0,1,3.34-5.77,5.72,5.72,0,0,1,6.89,0,7.66,7.66,0,0,1,3.34,5.77c.22,4.76-1.61,9.09-5.17,10.9a3.38,3.38,0,0,1-3,0C175.57,53.23,173.57,48.89,173.8,44.11Z"/><path class="cls-29" d="M185.32,56l7.29,4.84s-9.34,7.78-24.53.41L175.7,56Z"/><path class="cls-30" d="M185.88,56.57a6.62,6.62,0,0,1-5.27,1.67"/><path class="cls-30" d="M186.25,60.67a18.86,18.86,0,0,1-15-1.24"/><path class="cls-30" d="M183.67,56.3a6.18,6.18,0,0,1-5-1.41"/><path class="cls-30" d="M175.22,56.57a2.3,2.3,0,0,0,1.84,1"/><path class="cls-14" d="M183.11,47.91c0,.33.51.61,1.15.61s1.17-.25,1.18-.58-.52-.6-1.16-.61S183.11,47.59,183.11,47.91Z"/><path class="cls-14" d="M175.84,47.91c0,.33.51.61,1.15.61s1.17-.25,1.18-.58-.52-.6-1.16-.61S175.84,47.59,175.84,47.91Z"/><path class="cls-31" d="M251.79,81.57l-7,25.91-3.71-.38s2-16.15,3.95-26.91a3.7,3.7,0,0,1,4.27-2.55h0A3.54,3.54,0,0,1,251.79,81.57Z"/><path class="cls-31" d="M244.49,105.73a8.33,8.33,0,0,1,.37,6.56l.65,3.61a1.19,1.19,0,0,1-.7,1.33h0a1,1,0,0,1-1.34-.65l-.74-2.06-.12.77a5.73,5.73,0,0,0,.52,3.54l1.53,3a1.15,1.15,0,0,1,0,1.11h0a1,1,0,0,1-1.68.09l-2.49-3.71a6.5,6.5,0,0,1-.91-5l2.06-9.45Z"/><path class="cls-31" d="M284.94,81.7l9.46,25.11,3.65-.75s-3.57-15.86-6.54-26.39a3.71,3.71,0,0,0-4.5-2.12h0A3.55,3.55,0,0,0,284.94,81.7Z"/><path class="cls-31" d="M294.57,105a8.34,8.34,0,0,0,.27,6.56l-.3,3.66a1.21,1.21,0,0,0,.83,1.26h0a1,1,0,0,0,1.28-.77l.52-2.13.2.76a5.8,5.8,0,0,1-.17,3.57L296,121.12a1.19,1.19,0,0,0,.15,1.11h0a1,1,0,0,0,1.68-.08l2.12-3.94a6.55,6.55,0,0,0,.42-5.09l-3-9.2Z"/><path class="cls-32" d="M257.15,34.62s-.66,6.57-8.11,11.86c-8,5.63-2,21.24,12.57,20.51,15.86-.79,22.44-21.16,12.09-36.64Z"/><path class="cls-33" d="M267.06,52,256,55.12c-3.2.9-5.76,4.3-4.8,7.48l10,22.58,16.89-.76L284,60c.51-3.33-2.94-6.35-6.28-6.73Z"/><path class="cls-34" d="M256,55.12,267.06,52l10.65,1.21-.22.19A18.61,18.61,0,0,1,256,55.12Z"/><path class="cls-33" d="M288.06,60.13l5.35,22.08a2.4,2.4,0,0,1-1.47,3.17l-5.06,1.68a2.08,2.08,0,0,1-2.18-.55c-1.87-2-4.9-12.34-4.64-20l-2.91-5.21.56-8.11C283.14,53.88,287.05,57.66,288.06,60.13Z"/><line class="cls-35" x1="281.2" y1="71.92" x2="283.55" y2="64.2"/><line class="cls-36" x1="279.04" y1="92.53" x2="281.91" y2="102.62"/><path class="cls-33" d="M247.41,62.47l-3.74,19a2.39,2.39,0,0,0,1.83,3l3.94.89c.8.17,1.29,2.06,1.78,1.41,1.62-2.18,6-11.32,4.87-18.87l2.3-5.51L256,55.12C250.66,56.39,248.13,59.9,247.41,62.47Z"/><line class="cls-35" x1="255.57" y1="73.39" x2="252.36" y2="65.99"/><circle class="cls-34" cx="259.38" cy="42.24" r="2.64"/><path class="cls-37" d="M257.85,42s1-.6,2.16,1.14"/><path class="cls-34" d="M271.62,41.2A2.64,2.64,0,1,0,274,38.35,2.63,2.63,0,0,0,271.62,41.2Z"/><path class="cls-37" d="M275.7,40.44s-1.1-.39-1.89,1.54"/><ellipse class="cls-32" cx="266.2" cy="35.21" rx="9.08" ry="8.48" transform="translate(-2.02 22.52) rotate(-4.83)"/><path class="cls-34" d="M269.8,46.65a6.26,6.26,0,0,1-2.07,1.48,2.73,2.73,0,0,1-2.11-.36L264.33,47l.25,8.7.14.14a4,4,0,0,0,6.09-.45l.24-.3Z"/><path class="cls-26" d="M263.42,45.89s1.88,4.93,4.48,4.66c2.14-.22,2.34-5,2.34-5Z"/><path class="cls-34" d="M273.5,36.09a29.82,29.82,0,0,1-.22,7.12,6.22,6.22,0,0,1-2.88,4.15l-.29.2a6,6,0,0,1-5.77.58h0a6.25,6.25,0,0,1-3.8-3.82,43.45,43.45,0,0,1-1.4-7s-1.25-7.65,6.51-8.2S273.5,36.09,273.5,36.09Z"/><polyline class="cls-37" points="266.03 40.68 266.12 41.8 266.88 41.73"/><path d="M260.42,37.13l4.07-.72s-.46-1-2.1-.72A2.31,2.31,0,0,0,260.42,37.13Z"/><path d="M271.69,36.18l-4.13,0s.28-1.09,1.95-1.06A2.31,2.31,0,0,1,271.69,36.18Z"/><path class="cls-38" d="M263.58,39.29c0,.39-.12.72-.34.74s-.42-.28-.46-.67.12-.72.34-.74S263.55,38.91,263.58,39.29Z"/><path class="cls-38" d="M270.05,38.22c0,.39-.12.72-.34.73s-.42-.28-.46-.67.12-.71.34-.73S270,37.83,270.05,38.22Z"/><path class="cls-39" d="M264.33,43.54a6,6,0,0,0,4.55-.39"/><path class="cls-32" d="M273.35,34.34S262,35.73,261.9,29C261.9,29,271.6,25.34,273.35,34.34Z"/><path class="cls-32" d="M258.81,35.57s3.87-2,3.52-6.12C262.33,29.45,258.27,30.27,258.81,35.57Z"/><path class="cls-14" d="M264.36,41.88c.06.33-.42.7-1.08.81s-1.23-.06-1.29-.4.42-.7,1.08-.81S264.3,41.54,264.36,41.88Z"/><path class="cls-14" d="M271.78,40.69c.06.33-.42.7-1.08.81s-1.23-.07-1.29-.4.43-.7,1.08-.81S271.73,40.35,271.78,40.69Z"/><path class="cls-25" d="M288.33,204.92l5,2.76a1.45,1.45,0,0,1,.69,1.59c-.13.5-.56.89-1.68.91-2.47,0-13.43-1.78-13.43-1.78v1.41H273.8s-.32-7.27,1.22-8.22Z"/><path class="cls-40" d="M281.62,200.42l6.71,4.5s-.87,2.48-4.69.82S275,201.6,275,201.6l.7-1.88Z"/><polygon class="cls-40" points="275.72 199.72 275.02 178.85 281.68 179.29 281.68 202.59 275.72 199.72"/><path class="cls-25" d="M231.34,204.92l-5,2.76a1.43,1.43,0,0,0-.68,1.59c.13.5.55.89,1.67.91,2.47,0,13.43-1.78,13.43-1.78v1.47l5.05-.06s.4-7.26-1.15-8.21Z"/><path class="cls-40" d="M238.05,200.42l-6.71,4.5s.87,2.48,4.69.82,8.62-4.14,8.62-4.14l-.7-1.88Z"/><polygon class="cls-40" points="243.95 199.72 249.2 178.85 242.55 179.29 237.42 203.06 243.95 199.72"/><path class="cls-41" d="M278.05,84.42s9.09,13,8.84,27.24-3.21,81.74-3.21,81.74H272.86l-3.42-88.21L268,105.1l-19.54,88.33-10.09-1.07,11.73-79.87a64.86,64.86,0,0,1,4.18-15,52.05,52.05,0,0,1,7-12.38Z"/><line class="cls-42" x1="264.79" y1="105.85" x2="271.7" y2="104.65"/><line class="cls-36" x1="259.3" y1="92.98" x2="255.97" y2="102.58"/><rect class="cls-19" x="296.96" y="32.89" width="34.76" height="13.6" rx="1.96" transform="translate(628.68 79.38) rotate(180)"/><line class="cls-43" x1="325.65" y1="38.1" x2="302.46" y2="38.1"/><line class="cls-43" x1="315.34" y1="41.71" x2="302.46" y2="41.71"/><polygon class="cls-19" points="301.14 44.68 301.14 50.83 308.98 44.68 301.14 44.68"/><rect class="cls-44" x="103.96" y="8.89" width="34.76" height="13.6" rx="1.96" transform="translate(242.68 31.38) rotate(180)"/><line class="cls-43" x1="132.65" y1="14.1" x2="109.46" y2="14.1"/><line class="cls-43" x1="122.34" y1="17.71" x2="109.46" y2="17.71"/><polygon class="cls-44" points="108.14 20.68 108.14 26.83 115.98 20.68 108.14 20.68"/></g></g></g></svg>