<svg xmlns="http://www.w3.org/2000/svg" xmlns:xlink="http://www.w3.org/1999/xlink" viewBox="0 0 255.8 150"><defs><style>.cls-1{isolation:isolate;}.cls-2{fill:none;}.cls-3{fill:#363636;}.cls-4{fill:#404040;}.cls-5{fill:#737373;}.cls-6{fill:#fa5;}.cls-7{fill:#fff;}.cls-15,.cls-21,.cls-8{mix-blend-mode:multiply;}.cls-9{fill:#c2c2c2;}.cls-10{fill:#ffd371;}.cls-11{fill:#eecec7;}.cls-12{fill:#e5d3d3;}.cls-13{opacity:0.1;fill:url(#linear-gradient);}.cls-14{fill:#a1aec7;}.cls-15{fill:#eaeaea;}.cls-16{fill:#2b1711;}.cls-17{fill:#fc8667;}.cls-18{fill:#e67779;}.cls-19{fill:#4d4d4d;}.cls-20{fill:#ed7353;}.cls-21{fill:#ccc;}.cls-22{fill:#363638;}.cls-23{fill:#deb2a8;}.cls-24{fill:#9c7c52;}.cls-25{fill:#75c189;}.cls-26{fill:#bfbfbf;}.cls-27{fill:#5c1813;}</style><linearGradient id="linear-gradient" x1="164.82" y1="36.48" x2="198.06" y2="36.48" gradientUnits="userSpaceOnUse"><stop offset="0" stop-color="#fc9727" stop-opacity="0"/><stop offset="1" stop-color="#fc9727"/></linearGradient></defs><g class="cls-1"><g id="Layer_2" data-name="Layer 2"><g id="Option_1" data-name="Option 1"><rect class="cls-2" x="82.96" y="124.33" width="114.49" height="3.56"/><rect class="cls-3" x="71.07" y="124.33" width="11.89" height="3.56"/><rect class="cls-3" x="197.45" y="124.33" width="11.89" height="3.56"/><path class="cls-4" d="M83,121.86v2.47H197.45v-2.47h11.89v2.47h25.57a4.64,4.64,0,0,0,4.64-4.64V4.64A4.64,4.64,0,0,0,234.91,0H45.5a4.64,4.64,0,0,0-4.64,4.64V119.69a4.64,4.64,0,0,0,4.64,4.64H71.07v-2.47ZM42.78,112V6a4,4,0,0,1,4-4H233.58a4,4,0,0,1,4,4.05V112a4.05,4.05,0,0,1-4,4.06H46.83A4.05,4.05,0,0,1,42.78,112Z"/><rect class="cls-4" x="71.07" y="121.86" width="11.89" height="2.47"/><rect class="cls-4" x="197.45" y="121.86" width="11.89" height="2.47"/><path class="cls-4" d="M242.63,127.89H209.34v2.32H197.45v-2.32H83v2.32H71.07v-2.32H38.8A3.82,3.82,0,0,0,35,131.71v.89a3.82,3.82,0,0,0,3.82,3.82H242.63a3.82,3.82,0,0,0,3.82-3.82v-.89A3.82,3.82,0,0,0,242.63,127.89Z"/><rect class="cls-4" x="71.07" y="127.89" width="11.89" height="2.32"/><rect class="cls-4" x="197.45" y="127.89" width="11.89" height="2.32"/><path class="cls-5" d="M237.63,112V6a4,4,0,0,0-4-4H46.83a4,4,0,0,0-4,4.05V112a4.05,4.05,0,0,0,4,4.06H233.58A4.05,4.05,0,0,0,237.63,112ZM45.76,113V4.9H234.65V113Z"/><path class="cls-6" d="M234.65,4.9H45.76V113H234.65Zm-5.84,102.29H51.6V10.74H228.81Z"/><rect class="cls-7" x="51.6" y="10.74" width="177.22" height="96.45"/><g class="cls-8"><rect class="cls-9" x="57.62" y="19.2" width="47.95" height="77.99" rx="2.6"/></g><rect class="cls-10" x="55.24" y="17.09" width="47.95" height="77.99" rx="2.6"/><g class="cls-8"><rect class="cls-11" x="65.39" y="26.8" width="30.56" height="30.56" rx="1.25"/></g><rect class="cls-6" x="63.94" y="25.65" width="30.56" height="30.56" rx="1.25"/><rect class="cls-7" x="70.35" y="62.23" width="17.74" height="2.28" rx="1.14"/><rect class="cls-7" x="61.11" y="69.64" width="36.23" height="2.28" rx="1.14"/><rect class="cls-7" x="61.11" y="77.04" width="36.23" height="2.28" rx="1.14"/><rect class="cls-7" x="61.11" y="84.45" width="36.23" height="2.28" rx="1.14"/><g class="cls-8"><path class="cls-12" d="M87.38,49.16c-2.15-.8-4.22-2.27-4.87-6.6a6.58,6.58,0,0,0,2.8-5.62c0-3.48-2.28-6.3-5.1-6.3s-5.1,2.82-5.1,6.3a6.58,6.58,0,0,0,2.8,5.62c-.65,4.33-2.71,5.8-4.87,6.6a3.69,3.69,0,0,0-2.53,3.38h19.4A3.69,3.69,0,0,0,87.38,49.16Z"/></g><path class="cls-7" d="M88,48.62c-2.16-.8-4.22-2.27-4.87-6.6a6.59,6.59,0,0,0,2.8-5.62c0-3.48-2.28-6.31-5.1-6.31s-5.1,2.83-5.1,6.31A6.59,6.59,0,0,0,78.5,42c-.65,4.33-2.72,5.8-4.87,6.6A3.68,3.68,0,0,0,71.1,52H90.5A3.68,3.68,0,0,0,88,48.62Z"/><rect class="cls-9" x="128.3" y="21.42" width="70.21" height="54.26" rx="4.42"/><rect class="cls-10" x="130.53" y="19.19" width="70.21" height="54.26" rx="4.42"/><rect class="cls-13" x="164.82" y="22.62" width="33.24" height="27.72" rx="2.57"/><path class="cls-7" d="M165.56,42.37a.4.4,0,0,1-.25-.09.39.39,0,0,1,0-.54l9.54-11a.46.46,0,0,1,.27-.13.4.4,0,0,1,.28.1l10.85,10.06,6.16-5.37a.38.38,0,0,1,.51,0l4.4,4.25a.39.39,0,0,1,0,.54.38.38,0,0,1-.54,0l-4.15-4-6.14,5.36a.39.39,0,0,1-.51,0l-10.82-10-9.28,10.73A.36.36,0,0,1,165.56,42.37Z"/><path class="cls-7" d="M189,32.31A2.32,2.32,0,1,1,191.36,30,2.32,2.32,0,0,1,189,32.31Zm0-3.87A1.56,1.56,0,1,0,190.6,30,1.56,1.56,0,0,0,189,28.44Z"/><path class="cls-7" d="M162.88,70a1.24,1.24,0,1,1-1.24-1.24A1.24,1.24,0,0,1,162.88,70Z"/><path class="cls-7" d="M166.88,70a1.24,1.24,0,1,1-1.24-1.24A1.24,1.24,0,0,1,166.88,70Z"/><path class="cls-6" d="M170.88,70a1.25,1.25,0,1,1-1.24-1.24A1.24,1.24,0,0,1,170.88,70Z"/><path class="cls-7" d="M156.54,27.31H135.38a1,1,0,0,1-1-1h0a1,1,0,0,1,1-1.05h21.16a1,1,0,0,1,1.05,1.05h0A1,1,0,0,1,156.54,27.31Z"/><path class="cls-7" d="M156.54,39.12H135.38a1,1,0,0,1-1-1h0a1,1,0,0,1,1-1h21.16a1,1,0,0,1,1.05,1h0A1,1,0,0,1,156.54,39.12Z"/><path class="cls-7" d="M156.54,50.93H135.38a1,1,0,0,1-1-1h0a1,1,0,0,1,1-1h21.16a1,1,0,0,1,1.05,1h0A1,1,0,0,1,156.54,50.93Z"/><path class="cls-7" d="M196.73,60.64H135.38a1,1,0,0,1-1-1h0a1,1,0,0,1,1-1h61.35a1,1,0,0,1,1.05,1h0A1,1,0,0,1,196.73,60.64Z"/><g class="cls-8"><circle class="cls-6" cx="124.12" cy="95.03" r="5.58" transform="translate(3.12 193.99) rotate(-76.72)"/></g><g class="cls-8"><path class="cls-14" d="M122.62,98.57a.45.45,0,0,1-.37-.2.44.44,0,0,1,.15-.6l4.69-2.87-4.66-2.85a.43.43,0,0,1-.15-.59.44.44,0,0,1,.6-.14l4.8,2.92a.76.76,0,0,1,.36.66.77.77,0,0,1-.36.66l-4.83,3A.46.46,0,0,1,122.62,98.57ZM127.23,95Z"/></g><path class="cls-7" d="M122.71,98.22a.42.42,0,0,1-.37-.21.42.42,0,0,1,.14-.59l4.7-2.87-4.67-2.85A.43.43,0,0,1,123,91l4.8,2.93a.77.77,0,0,1,.37.66.76.76,0,0,1-.37.65l-4.83,3A.46.46,0,0,1,122.71,98.22Zm4.6-3.59Z"/><g class="cls-8"><circle class="cls-6" cx="139.46" cy="95.03" r="5.58" transform="translate(23.33 217.47) rotate(-80.78)"/></g><g class="cls-8"><path class="cls-14" d="M138,98.57a.43.43,0,0,1-.37-.2.45.45,0,0,1,.14-.6l4.7-2.87-4.67-2.85a.43.43,0,1,1,.45-.73l4.8,2.92a.77.77,0,0,1,.37.66.78.78,0,0,1-.37.66l-4.83,3A.43.43,0,0,1,138,98.57Zm4.6-3.59Z"/></g><path class="cls-7" d="M138.05,98.22a.44.44,0,0,1-.37-.21.43.43,0,0,1,.15-.59l4.69-2.87-4.66-2.85a.43.43,0,0,1-.15-.59.44.44,0,0,1,.6-.15l4.8,2.93a.77.77,0,0,1,.37.66.76.76,0,0,1-.37.65l-4.83,3A.46.46,0,0,1,138.05,98.22Zm4.61-3.59Z"/><g class="cls-8"><circle class="cls-6" cx="156.97" cy="95.03" r="5.58"/></g><g class="cls-8"><path class="cls-14" d="M155.48,98.57a.43.43,0,0,1-.37-.2.44.44,0,0,1,.14-.6L160,94.9l-4.67-2.85a.43.43,0,0,1,.45-.73l4.8,2.92a.77.77,0,0,1,.37.66.78.78,0,0,1-.37.66l-4.83,3A.46.46,0,0,1,155.48,98.57Zm4.6-3.59Z"/></g><path class="cls-7" d="M155.56,98.22a.43.43,0,0,1-.22-.8L160,94.55l-4.67-2.85a.43.43,0,0,1-.14-.59.43.43,0,0,1,.59-.15l4.8,2.93a.77.77,0,0,1,.37.66.73.73,0,0,1-.37.65l-4.82,3A.46.46,0,0,1,155.56,98.22Zm4.6-3.59h0Z"/><ellipse id="_Path_" data-name="&lt;Path&gt;" class="cls-15" cx="127.9" cy="140.79" rx="127.9" ry="9.21"/><path class="cls-16" d="M18.36,139.43a7.12,7.12,0,0,0-.7,3.28H33.21c-.43-1-5.63-3-7.06-3.66a4.43,4.43,0,0,1-1.74-1.2Z"/><path class="cls-16" d="M34.23,139.43a7.27,7.27,0,0,0-.7,3.28H49.08c-.42-1-5.63-3-7.06-3.66a4.31,4.31,0,0,1-1.73-1.2Z"/><path class="cls-17" d="M61.31,47.37a8.52,8.52,0,0,1,1.51-3.61c.73-.75,1-2.49,1.19-2.51.6,0,.62.75.43,1.6s-.25,1.45.27.93,2.66-4,3.14-3.82-.6,2.26-.54,2.89a6.72,6.72,0,0,1,0,3.24c-.46,1.1-3,3.26-3.26,3.61s-2.66-.1-2.76-.37A12.69,12.69,0,0,1,61.31,47.37Z"/><path class="cls-18" d="M35.6,42c.6.1-.1,1.1.9,1.64s3.55,1,5.79,2.47,10,9.19,10,9.19l9-8.18a26.38,26.38,0,0,1,3.24,2.47S57,62.74,54.1,63.82s-9.49-3.32-9.8-3.32c-.23.62.13,11.65-3.37,11.58L38.51,73c-.39.16-13.27-1-14-1.41a2.06,2.06,0,0,1-.92-1.13s-9.11.69-9.41-1.55,4-18.9,5.94-21,7.94-4.25,8-4.48c.46-1,.39-2.24,2-2.31A29.75,29.75,0,0,1,35.6,42Z"/><path class="cls-16" d="M40.75,74a14.41,14.41,0,0,1,.18-1.92,36.74,36.74,0,0,1-8.23-.34,30.71,30.71,0,0,0-8.16-.15l.08,1.87S36.09,75,36.35,75,40.75,74,40.75,74Z"/><path class="cls-19" d="M40.75,74c.23,1.08,4.51,8.27,2.78,34.19-.23,3.31-2,29.86-2,30.09C40,140,33,140.21,33,140.21s.16-26.78.16-29.63-1.62-10.65-1.62-10.65-2.47,9.41-2.47,11.42-4,27.62-4,27.62c-3.4,2.16-7.72.7-7.72.7s.39-20.14,1.7-26.62,2.23-8.88,2.23-11.73-1.08-17.44.39-21.76a21.1,21.1,0,0,1,2.93-6.1C26,73.23,40.75,74,40.75,74Z"/><path class="cls-16" d="M35.63,33.47A1.39,1.39,0,1,0,37,32.08,1.39,1.39,0,0,0,35.63,33.47Zm.23,0A1.16,1.16,0,1,1,37,34.63,1.16,1.16,0,0,1,35.86,33.47Z"/><path class="cls-20" d="M36.81,33.09a17.55,17.55,0,0,0,1,2.77c0,.16-.9.67-.9.67Z"/><path class="cls-17" d="M36.84,30.82c.18,1.6.49,6.61.49,6.61s-1.65,2.91-1.7,3.06,0,1.39,0,1.47c-2.39,1.21-6.12.36-6-.72.36-.8-.47-2.83-.47-2.83s3-7.13,3.14-7.2S36.84,30.82,36.84,30.82Z"/><path class="cls-16" d="M37.51,29.54c.54.36.18,1.54-.39,1.74s-1.8.06-1.57,1.06.47,1.83.08,2.24.1,1.23.28,1.62,0,1.13.44,1.26a2,2,0,0,0,1,0A2.74,2.74,0,0,1,37.51,40c-.7,1.19-2.19,1.42-2.65.52s-.49-4.45-.49-4.45,0-2.55-.39-2.73-1.49.49-1.26,2,.72,2.26.29,2.8-.75.49-.85.64c-.34.7-2,.47-2.83.31-1.88,0-1.8-1.72-2.83-2.52a3,3,0,0,1-1-2c-.67-.51.23-2.67.72-3.21s.13-2.11,1.39-3,3.39-.36,4-1,3.76-1.26,4.35.39C37.79,27.38,38,28.79,37.51,29.54Z"/><path class="cls-20" d="M34.2,36.06c-.64.41-1.27-.21-1.14-1.19A2,2,0,0,1,34,33.46Z"/><rect class="cls-16" x="34.19" y="33.31" width="4.16" height="0.22"/><path class="cls-17" d="M34.11,33c.55-.15.67.7.43,1.53a1.84,1.84,0,0,0,.1,1.54c.13.25,0,.65-.68.06S33.55,33.18,34.11,33Z"/><path class="cls-21" d="M38.86,53.36h0a.08.08,0,0,0,.07-.08,9.41,9.41,0,0,1,2.64-6.92.08.08,0,0,0,0-.1.08.08,0,0,0-.1,0,9.61,9.61,0,0,0-2.68,7A.07.07,0,0,0,38.86,53.36Z"/><path class="cls-21" d="M32.84,44.6a11.14,11.14,0,0,0,2.79-.35.07.07,0,0,0,0-.08.06.06,0,0,0-.08-.05,10.43,10.43,0,0,1-6.51-.35s-.08,0-.09,0a.06.06,0,0,0,0,.09A9.86,9.86,0,0,0,32.84,44.6Z"/><path class="cls-21" d="M53.79,57.45a.05.05,0,0,0,.05,0,.06.06,0,0,0,0-.09l-.49-.44a11.88,11.88,0,0,1-.93-.87,11.05,11.05,0,0,1,1.09.3.05.05,0,0,0,.08,0,.06.06,0,0,0,0-.09,8.1,8.1,0,0,0-1.18-.31.1.1,0,0,0-.11.06c0,.12.11.27,1,1.05l.49.44Z"/><path class="cls-21" d="M63.36,50.15a.06.06,0,0,0,0-.11A13.3,13.3,0,0,0,60.65,48a.08.08,0,0,0-.1,0,.07.07,0,0,0,0,.09,13.92,13.92,0,0,1,2.72,2Z"/><path class="cls-21" d="M23.85,69.75h0a.07.07,0,0,0,.07-.07,25,25,0,0,0-1.28-6.77c-1.13-3.25-2-6.22-1.38-9.65a.08.08,0,0,0-.06-.08s-.07,0-.08.06c-.64,3.46.25,6.45,1.39,9.72a24.83,24.83,0,0,1,1.27,6.73A.07.07,0,0,0,23.85,69.75Z"/><path class="cls-21" d="M42.79,59.8a.08.08,0,0,0,.07,0,.08.08,0,0,0,0-.09c-1.56-.49-2.08-.61-2.08-.61a.07.07,0,0,0-.09.05.07.07,0,0,0,0,.08s.52.12,2.08.62Z"/><path class="cls-21" d="M31,99.07h0A.08.08,0,0,0,31,99c0-.09-1.94-9.44-2.71-11.89s-.73-6.22,0-10.38c0,0,0-.08-.06-.08a.07.07,0,0,0-.08,0c-.74,4.18-.74,8.09,0,10.45S30.86,98.92,30.88,99A.08.08,0,0,0,31,99.07Z"/><path class="cls-21" d="M37,78.45l-7.49.13s-.61,4.92,3.4,6.38C37.84,83.75,37,78.45,37,78.45Z"/><path class="cls-22" d="M36.72,78.71l-6.89.12S29.26,83.35,33,84.7C37.48,83.59,36.72,78.71,36.72,78.71Z"/><path class="cls-21" d="M21.61,85.45a5.2,5.2,0,0,1-.63-.28,22.75,22.75,0,0,1,.71-5.61c.06-.19.13-.37.19-.55l3.82-.07S26.53,84.24,21.61,85.45Z"/><path class="cls-22" d="M21.64,85.19A4.27,4.27,0,0,1,21,84.9a21.31,21.31,0,0,1,.7-5.34c0-.1.07-.2.1-.3l3.62-.06S26.17,84.08,21.64,85.19Z"/><rect class="cls-22" x="38.02" y="71.97" width="0.77" height="2.39"/><rect class="cls-22" x="31.9" y="71.51" width="0.77" height="2.39"/><rect class="cls-22" x="24.85" y="71.3" width="0.77" height="2.39"/><path class="cls-17" d="M181.21,77a4.63,4.63,0,0,0-.36-2.25,16.17,16.17,0,0,1-.33-2.46c-.51.09-.76.28-.74,1.1s-.19,1-.69.71-2-2.56-2.46-2.31,1.35,3,.86,2.48-2.41-2.19-2.85-2,.27,1.24.12,1.12c-.94,0,1.39,2.69,1.31,2.75-.7.06-1.77-.8-1.79-.25s1.58,1.47,2.48,1.93,2.65,1.2,3,1.34,1.49.13,1.62-.33A6.9,6.9,0,0,0,181.21,77Z"/><g class="cls-8"><path class="cls-23" d="M178.84,77s0,0,0,0c-1.51-.81-2.13-.34-2.14-.34s-.05,0-.06,0,0-.06,0-.07.65-.5,2.15.28a2.46,2.46,0,0,1,.46-2.26s.05,0,.06,0a0,0,0,0,1,0,.07c-.81.68-.41,2.24-.41,2.26a0,0,0,0,1,0,0Z"/></g><g class="cls-8"><path class="cls-23" d="M176.7,75.07l0,0L175.45,74a0,0,0,0,1,0-.07,0,0,0,0,1,.07,0L176.73,75a0,0,0,0,1,0,.07Z"/></g><g class="cls-8"><path class="cls-23" d="M176.49,75.82h0s0,0,0-.06a1.72,1.72,0,0,1,.86-1,0,0,0,0,1,.07,0,.06.06,0,0,1,0,.07,1.67,1.67,0,0,0-.82.93A0,0,0,0,1,176.49,75.82Z"/></g><path class="cls-17" d="M218.28,134.48a22.48,22.48,0,0,0,0,2.84,3.89,3.89,0,0,0,.44.76,4.66,4.66,0,0,1,.5,2.81l-10-.1c1.3-1.62,4.35-2.5,5.1-2.82a1.55,1.55,0,0,0,.81-.62,25.26,25.26,0,0,0,.25-3C215.32,133.75,218.28,134.48,218.28,134.48Z"/><path class="cls-16" d="M214.25,138a1.72,1.72,0,0,0,.71-.47c.73.07,1,.66,1.23,1.25s1.92-.06,2.6-.52a4.75,4.75,0,0,1,.41,2.66l-10-.1C210.45,139.17,213.5,138.29,214.25,138Z"/><path class="cls-17" d="M207.35,134.48a24.52,24.52,0,0,0,0,2.84,4.49,4.49,0,0,0,.44.76,4.52,4.52,0,0,1,.5,2.81l-10.05-.1c1.3-1.62,4.35-2.5,5.1-2.82a1.63,1.63,0,0,0,.82-.62,25.27,25.27,0,0,0,.24-3C204.39,133.75,207.35,134.48,207.35,134.48Z"/><path class="cls-16" d="M203.32,138a1.72,1.72,0,0,0,.71-.47c.73.07,1,.66,1.23,1.25s1.92-.06,2.61-.52a4.82,4.82,0,0,1,.4,2.66l-10.05-.1C199.52,139.17,202.57,138.29,203.32,138Z"/><path class="cls-24" d="M201.71,102.16c-1.62,23.46,1.51,34.09,1.51,34.09l5.43-.46A46.28,46.28,0,0,0,211,123.54s1.15,8.66,2.43,12.13l5.77-.23c3.59-9.48.81-33.17.81-33.17S209.57,99,208.65,99,201.71,102.16,201.71,102.16Z"/><path class="cls-25" d="M222.4,82.89a21.54,21.54,0,0,0-8.78-6.39l-4.74.37a130.1,130.1,0,0,1-15,2.65c-8.46-3.25-12.56-3.21-12.56-3.21l-2.16,2.8s5.77,6.07,11.06,8.32,13.15,1.85,13.15,1.85c-.46,2.16-1.67,13-1.67,13l3.45,1.54,2.93.14c4.47.69,12.17.15,12.79-.77s-.08-4.7-.08-4.7C224.09,93.91,225.94,87.44,222.4,82.89Z"/><path class="cls-16" d="M207,67.11c-1.8-.6-.08-5.38,4.24-4.81-1.31-1.36.38-1.85.51-1.62-.28-3.34,3.11-2.67,3.11-2.8,3.26-.21,2.34,3.26,2.47,3.11,1.82-.7,2,.33,2,.33,3.32.31,2.86,3.78.49,3.78,1.75,3-2.13,3.08-3,2.46a4.27,4.27,0,0,1-2.44,5s-3.57.16-3.75-.28S207,67.11,207,67.11Z"/><path class="cls-17" d="M208.54,66.57a.69.69,0,0,1-.92.29.53.53,0,0,1-.58.25c0,.43-.15,1.18-.28,2.28s-.84,3.33.23,5c.79,1.21,2.62,1.37,2.62,1.43,0,.59-.12,1.09-.73,1.08-.29,1.11.81,2.11,2.23,1.75a5.25,5.25,0,0,0,2.51-2.12c-.83-1,.54-3.43.54-3.43a1.42,1.42,0,0,0,1.63-1.75,1,1,0,0,0-1.83,0c-1.33.37-.32-2.7-.32-2.7-.51,0-.68-.71-.68-.71-1.35-.19-1.62-1.69-1.71-1.5C208.92,67.68,208.54,66.57,208.54,66.57Z"/><path class="cls-16" d="M208.43,71.41h0c-.38-.06-.9-.46-.9-.69,0,0,0-.12.17-.13a2,2,0,0,0,1.09-1.17,1.2,1.2,0,0,0-.38-1.34,0,0,0,0,1,.07-.07,1.31,1.31,0,0,1,.41,1.44,2,2,0,0,1-1.18,1.23c-.08,0-.08,0-.08,0s.44.52.81.58c0,0,0,0,0,0A0,0,0,0,1,208.43,71.41Z"/><g class="cls-8"><path class="cls-23" d="M209.82,75.83a.05.05,0,0,1,0,0,0,0,0,0,1,0,0c2.59-.2,3.57-1.71,3.69-2.11,0,0,0,0,.06,0a.06.06,0,0,1,0,.06c-.16.5-1.18,2-3.78,2.18Z"/></g><g class="cls-8"><path class="cls-23" d="M214.45,72.64a0,0,0,0,1,0,0,0,0,0,0,1,0,0c.24,0,.4-.1.45-.24a.38.38,0,0,0-.1-.4.46.46,0,0,0-.53-.07h-.05a.06.06,0,0,1,0,0s.16-.5.5-.62a.62.62,0,0,1,.57.12,0,0,0,0,1,0,.07s0,0-.06,0a.54.54,0,0,0-.48-.11.82.82,0,0,0-.41.46.58.58,0,0,1,.54.13.48.48,0,0,1,.13.5.55.55,0,0,1-.54.31Z"/></g><g class="cls-8"><path class="cls-26" d="M203.07,92.42h0a0,0,0,0,1,0,0c0-.08.6-7.72,2.16-11.76a.05.05,0,0,1,.07,0s0,0,0,.06c-1.56,4-2.15,11.66-2.16,11.74A0,0,0,0,1,203.07,92.42Z"/></g><g class="cls-8"><path class="cls-26" d="M214.66,83.64a0,0,0,0,1,0,0,4.77,4.77,0,0,1,2.3-4.67,0,0,0,0,1,.06,0s0,0,0,.07a4.67,4.67,0,0,0-2.24,4.57.06.06,0,0,1-.05.06Z"/></g><g class="cls-8"><path class="cls-26" d="M210.42,98.85s0,0,0,0a0,0,0,0,1,0-.06,16.73,16.73,0,0,0,3-3.26,12.77,12.77,0,0,0,2.41-8.57.05.05,0,0,1,.05,0s.05,0,.05,0a12.91,12.91,0,0,1-2.43,8.64,16.33,16.33,0,0,1-3,3.27Z"/></g><g class="cls-8"><path class="cls-26" d="M211,122.24a0,0,0,0,1,0,0l-1.62-14.41a2.59,2.59,0,0,1-2-2,0,0,0,0,1,0-.06s.06,0,.06,0a2.52,2.52,0,0,0,2,1.93.06.06,0,0,1,.05,0l1.61,14.44s0,0,0,.06Z"/></g><g class="cls-8"><path class="cls-26" d="M216.27,107.87h0a3.15,3.15,0,0,1-2.59-3,.06.06,0,0,1,0-.06s.05,0,.05,0a3.05,3.05,0,0,0,2.5,2.89s.05,0,0,0A0,0,0,0,1,216.27,107.87Z"/></g><g class="cls-8"><path class="cls-26" d="M218,133.76a.05.05,0,0,1,0,0c0-.23-.86-22.76-1.85-28.62a.05.05,0,0,1,0-.06.06.06,0,0,1,.06,0c1,5.86,1.84,28.4,1.85,28.62a.06.06,0,0,1-.05.06Z"/></g><g class="cls-8"><path class="cls-23" d="M208.86,74.45a1.43,1.43,0,0,1-1-.32,0,0,0,0,1,0-.07.06.06,0,0,1,.07,0,1.81,1.81,0,0,0,1.51.23,0,0,0,0,1,.06,0,0,0,0,0,1,0,.06A2.32,2.32,0,0,1,208.86,74.45Z"/></g><path class="cls-16" d="M207.39,72.29c.11-.56.4-.17,1.14,0s1.63-.34,2-.18.05,1.68-1.29,1.81A1.65,1.65,0,0,1,207.39,72.29Z"/><path class="cls-27" d="M210.57,72.16a1.55,1.55,0,0,0-.83.11l-.22.29a1.69,1.69,0,0,0-.93,1.35,1.94,1.94,0,0,0,.69.06C210.62,73.84,211,72.31,210.57,72.16Z"/><path class="cls-7" d="M210.27,72.14a3.67,3.67,0,0,1-1.74.2c-.42-.13-.7-.31-.88-.34A1.38,1.38,0,0,0,210.27,72.14Z"/><path class="cls-16" d="M211.57,70c0,.41-.22.74-.49.74s-.49-.33-.49-.74.22-.73.49-.73S211.57,69.56,211.57,70Z"/><path class="cls-16" d="M208.38,69.54c0,.4-.22.73-.5.73s-.49-.33-.49-.73.22-.73.49-.73S208.38,69.14,208.38,69.54Z"/><path class="cls-16" d="M210.28,68.56a4.58,4.58,0,0,1,2.23.5C212.28,68.41,210.82,67.47,210.28,68.56Z"/><path class="cls-16" d="M207.17,68.18a1.76,1.76,0,0,1,1.16,0C208.12,67.39,207.2,67.47,207.17,68.18Z"/><path class="cls-17" d="M210.23,99.38c-1.24-.27-3.66-.31-4.16-.54s-.58.5.19.81.81.58.23,1.16-2.55,2.4-1.25,2.07c-.71,1.39.09,1.32.09,1.32.16.23.54.15.54.15.93.81,2.66,0,3.66-.77a20.31,20.31,0,0,1,2-1.35Z"/><g class="cls-8"><path class="cls-23" d="M205.28,102.9a.05.05,0,0,1,0,0,0,0,0,0,1,0-.07,22.78,22.78,0,0,0,1.84-1.46,0,0,0,1,1,.07.07,22,22,0,0,1-1.86,1.47S205.29,102.9,205.28,102.9Z"/></g><g class="cls-8"><path class="cls-23" d="M205.66,104a0,0,0,0,1,0,0,.05.05,0,0,1,0-.07,13.25,13.25,0,0,0,1.87-1.43s.06,0,.07,0a0,0,0,0,1,0,.07,13.54,13.54,0,0,1-1.89,1.45Z"/></g><g class="cls-8"><path class="cls-23" d="M206.09,104.23a0,0,0,0,1-.05,0,0,0,0,0,1,0-.06,8.76,8.76,0,0,0,1.71-.53s.05,0,.06,0,0,0,0,.06a7.65,7.65,0,0,1-1.72.55Z"/></g></g></g></g></svg>