<svg xmlns="http://www.w3.org/2000/svg" viewBox="0 0 212.56 165.36"><defs><style>.cls-1{isolation:isolate;}.cls-2{fill:#ffd371;opacity:0.3;}.cls-3{fill:#eaeaea;mix-blend-mode:multiply;}.cls-4{fill:#b7c2ca;}.cls-5{fill:#070707;}.cls-6{fill:#9ba9b3;}.cls-7{fill:#e67779;}.cls-8{fill:#ec9992;}.cls-13,.cls-16,.cls-18,.cls-19,.cls-23,.cls-24,.cls-9{fill:none;}.cls-16,.cls-9{stroke:#1d0300;}.cls-13,.cls-16,.cls-23,.cls-9{stroke-linecap:round;stroke-linejoin:round;}.cls-9{stroke-width:0.47px;}.cls-10{fill:#ecedef;}.cls-11{fill:#363638;}.cls-12,.cls-17{fill:#fff;}.cls-13,.cls-18,.cls-19,.cls-23{stroke:#fff;}.cls-13{stroke-width:0.82px;}.cls-14{fill:#1d0300;}.cls-15{fill:#e48280;}.cls-16{stroke-width:0.42px;}.cls-17{opacity:0.23;}.cls-18,.cls-19,.cls-24{stroke-miterlimit:10;}.cls-18{stroke-width:0.34px;}.cls-19{stroke-width:0.3px;}.cls-20{fill:#a9a9a9;}.cls-21{fill:#14284d;}.cls-22{fill:#fa5;}.cls-23{stroke-width:0.89px;}.cls-24{stroke:#363638;stroke-width:2px;}</style></defs><g class="cls-1"><g id="Layer_2" data-name="Layer 2"><g id="Option_1" data-name="Option 1"><path class="cls-2" d="M120.19,155.51c-59.21,10.64-88.47-3.78-88.47-3.78s-42.29-13-29.21-69.35C12.92,37.57,70.84-8,104.92,1.18s34.62,28.35,74,49.21,35.26,43.79,31,55.78C210,106.17,196.49,141.8,120.19,155.51Z"/><ellipse class="cls-3" cx="110.26" cy="159.37" rx="59.25" ry="3.78"/><rect class="cls-4" x="81.84" y="118.81" width="2.87" height="14.12"/><rect class="cls-5" x="80.46" y="130.17" width="5.73" height="17.73"/><rect class="cls-4" x="71.41" y="146.75" width="23.94" height="2.3"/><rect class="cls-4" x="71.41" y="146.75" width="1.88" height="6.91"/><path class="cls-5" d="M74.9,155.76a3.49,3.49,0,1,1-3.49-3.49A3.5,3.5,0,0,1,74.9,155.76Z"/><rect class="cls-4" x="93.46" y="146.75" width="1.88" height="6.91" transform="translate(188.8 300.42) rotate(180)"/><path class="cls-5" d="M91.86,155.76a3.49,3.49,0,1,0,3.48-3.49A3.49,3.49,0,0,0,91.86,155.76Z"/><rect class="cls-5" x="74.86" y="115.56" width="16.91" height="5.15"/><path class="cls-4" d="M35,56.44l21.2,56.68h44.35l-26-59a3,3,0,0,0-2.75-1.78h-34A3,3,0,0,0,35,56.44Z"/><path class="cls-6" d="M114.54,117.58H61a4.85,4.85,0,0,1-4.84-4.85h0A4.84,4.84,0,0,1,61,107.89h53.5Z"/><path class="cls-7" d="M94.08,53.56s7.06,2.2,9.71,28.24l-5.73,4.06Z"/><polygon class="cls-8" points="120.73 83.27 114.5 82.1 114.7 88.01 120.09 88.01 120.73 83.27"/><path class="cls-8" d="M120.73,83.27S133.53,76.76,132,88h-12.7Z"/><path class="cls-7" d="M95.19,76.27l24.3,2.31L119.28,88l-23.49-.16c-3.14.3-6-2.88-6.51-6h0C88.69,78.3,91.5,76.42,95.19,76.27Z"/><line class="cls-9" x1="103.02" y1="77.02" x2="100.06" y2="76.74"/><path class="cls-10" d="M76.42,97s9.57,1.93,17.4-1.89l2.61-32.86L87.2,51.41H77L72.83,69.29Z"/><path class="cls-8" d="M77,51.41,77.2,56s7.19,2.91,11.49,0a23.56,23.56,0,0,0-1.49-4.54Z"/><path class="cls-7" d="M77,51.41s1.19,32.21.84,48.46L70.79,99c-3.76-.44-5.88.63-5.77-3.16l1.06-26.15L63.84,59.16a7.93,7.93,0,0,1,3.58-5.92A43.52,43.52,0,0,1,77,51.41Z"/><path class="cls-7" d="M87.2,51.41s2.2,4,3.14,15.61,1.25,31.36,1.25,31.36h0c4-.83,7,3.23,6.84-.89-.26-8.57-1-30.19-2.31-36.09L94.87,55c-.07-.31-.37-1.22-.37-1.22s-1-.92-7.3-2.36Z"/><path class="cls-9" d="M98.34,90.63s.06-16.43-1.91-28.38"/><path class="cls-7" d="M74.4,63.38A118.75,118.75,0,0,1,62.18,85c-.92,1.29-3.08,1.94-4.66,1.87h0c-3.58-.16-5.09-4-3.74-7.14,0,0,6.34-18.24,12-25Z"/><path class="cls-11" d="M87,74l4.42,9.61,1.48-.8-4.3-9.54a.88.88,0,0,0-1.14-.45h0A.88.88,0,0,0,87,74Z"/><polygon class="cls-8" points="84.48 82.7 78.26 81.53 78.45 87.44 83.84 87.44 84.48 82.7"/><path class="cls-8" d="M84.48,82.7s12.81-6.5,11.22,4.73H83Z"/><path class="cls-7" d="M59.06,77.19l22.28,2.59L81,87.87l-23.24-.49a5.13,5.13,0,0,1-4.1-7h0A5.13,5.13,0,0,1,59.06,77.19Z"/><polyline class="cls-9" points="73.28 64.61 67.04 78.11 77.78 79.36"/><line class="cls-9" x1="67.04" y1="78.11" x2="64.23" y2="78.97"/><polygon class="cls-5" points="126.12 148.19 135.49 148.19 150.98 156.48 124.34 156.16 126.12 148.19"/><polygon class="cls-12" points="124.25 159.08 124.34 156.16 150.98 156.48 150.89 159.4 124.25 159.08"/><line class="cls-13" x1="141.96" y1="151.25" x2="138.89" y2="152.08"/><line class="cls-13" x1="138.96" y1="149.71" x2="135.89" y2="150.54"/><polygon class="cls-8" points="132.06 134.99 122.51 134.99 126.12 148.19 135.67 148.19 132.06 134.99"/><path class="cls-5" d="M107.83,92.36l8.83.8a10.66,10.66,0,0,1,9.59,7.77l9.38,40.13-13.46.61-11.93-37.32Z"/><polygon class="cls-5" points="120.48 142.86 137.43 142.86 136.27 136.66 119.31 136.66 120.48 142.86"/><polygon class="cls-5" points="101.17 148.19 110.54 148.19 126.03 156.48 99.39 156.16 101.17 148.19"/><polygon class="cls-12" points="99.3 159.08 99.39 156.16 126.03 156.48 125.94 159.4 99.3 159.08"/><line class="cls-13" x1="117.01" y1="151.25" x2="113.94" y2="152.08"/><line class="cls-13" x1="114.01" y1="149.71" x2="110.94" y2="150.54"/><polygon class="cls-8" points="111.23 134.99 101.68 134.99 101.17 148.19 110.72 148.19 111.23 134.99"/><path class="cls-11" d="M65,92.31h41.9a8,8,0,0,1,8,7.88c.2,13.46-.84,42.8-1.47,42.67-.85-.17-13.83,0-13.83,0l.12-33.3-19.4-.44a32.15,32.15,0,0,1-5.45-.62C70.08,107.49,61.91,104.51,65,92.31Z"/><rect class="cls-11" x="98.19" y="136.66" width="17.52" height="6.21" transform="translate(213.9 279.52) rotate(180)"/><path class="cls-14" d="M95.63,23.46s1,3.89-1.2,6.27l-1.51-4.59Z"/><path class="cls-15" d="M91.53,35.7a2.83,2.83,0,1,0,2.14-3.38A2.82,2.82,0,0,0,91.53,35.7Z"/><polygon class="cls-8" points="86.86 42.77 86.61 53.9 78.24 53.17 80.3 35.08 86.86 42.77"/><polygon class="cls-14" points="86.72 48.69 80.75 41.34 86.82 43.37 86.72 48.69"/><path class="cls-8" d="M90.78,23.75c2.86.38,4.25,3.41,4.54,6.13.32,3.13.61,8-.36,10.36-1.5,3.68-4.7,5.83-9.53,4.52,0,0-5.66-.69-6.48-9.22C78,25.45,84.7,22.94,90.78,23.75Z"/><path class="cls-14" d="M80.3,37.06,83,31.25c.28-1.44-.58-3.06-.89-4.82,6.11-2.34,7.41-2.26,11.91-.56,0,0-2.29-4.83-11.68-4-13,1.19-11.4,15.66-2.7,19.44Z"/><path class="cls-8" d="M76.14,36.12a3.1,3.1,0,1,0,2.34-3.71A3.1,3.1,0,0,0,76.14,36.12Z"/><path class="cls-16" d="M77.83,34.43a2.27,2.27,0,0,1,2.74,2"/><path class="cls-14" d="M82.06,26.43s7.31,2.76,12.52.57c0,0,4.35-5.38-4.26-7.26-9-1.95-12.47,3.41-12.47,3.41Z"/><path class="cls-14" d="M93.65,34.9a.65.65,0,1,0,1.28-.24.65.65,0,0,0-1.28.24Z"/><path class="cls-14" d="M88.18,34.9a.65.65,0,1,0,1.28-.24.65.65,0,0,0-1.28.24Z"/><path class="cls-9" d="M92.45,35.62,92.91,37a.36.36,0,0,1-.28.44l-.68.13"/><path class="cls-14" d="M93.08,30.23s-.25.76.71.92a7.44,7.44,0,0,1,1.59.36.52.52,0,0,0,.64-.19h0a.52.52,0,0,0,0-.56,2.35,2.35,0,0,0-1.59-1C93.3,29.53,93.08,30.23,93.08,30.23Z"/><path class="cls-14" d="M89.73,30.26s.29.77-.94.91a14.32,14.32,0,0,0-2.59.62.72.72,0,0,1-.8-.21h0a.4.4,0,0,1,0-.55,5.08,5.08,0,0,1,2.6-1.3C89.49,29.55,89.73,30.26,89.73,30.26Z"/><path class="cls-9" d="M90.18,39.26a2.77,2.77,0,0,0,2.87-.1"/><path class="cls-17" d="M87.54,31.5,91,36.23s-1,2-2.73,1.78L84.78,33.4S85.73,31.37,87.54,31.5Z"/><path class="cls-17" d="M95.46,31.61l2.74,4.65s-.82,2-2.14,1.76l-2.77-4.54S94,31.48,95.46,31.61Z"/><path class="cls-18" d="M91.3,34.78a3.41,3.41,0,1,1-3.4-3.4A3.4,3.4,0,0,1,91.3,34.78Z"/><path class="cls-19" d="M98.43,34.84c0,1.85-1.2,3.35-2.68,3.35s-2.68-1.5-2.68-3.35,1.2-3.35,2.68-3.35S98.43,33,98.43,34.84Z"/><path class="cls-18" d="M91.3,34.78a2.73,2.73,0,0,1,1.77,0"/><line class="cls-18" x1="84.49" y1="34.78" x2="81.74" y2="33.71"/><rect class="cls-6" x="110.21" y="31.56" width="60.71" height="40.77" rx="4.01"/><rect class="cls-4" x="114.5" y="31.56" width="60.71" height="40.77" rx="4.01"/><circle class="cls-6" cx="146.2" cy="46.6" r="3.56"/><path class="cls-20" d="M141.17,57l2.26,24.37a6,6,0,0,1-1.5,4.54H128.49a.76.76,0,0,0-.76.76h0a.76.76,0,0,0,.76.76h28.17l.25-.25a6.28,6.28,0,0,0,1.62-6.07L152,57Z"/><path class="cls-12" d="M96.64,85.86H118.9a.76.76,0,0,1,.77.77h0a.76.76,0,0,1-.77.76H96.64a.77.77,0,0,1-.77-.76h0A.77.77,0,0,1,96.64,85.86Z"/><rect class="cls-21" x="38.69" y="87.41" width="155.65" height="5.31" transform="translate(233.03 180.13) rotate(180)"/><rect class="cls-22" x="134.46" y="1.6" width="31.05" height="12.15" rx="1.96" transform="translate(299.97 15.36) rotate(180)"/><line class="cls-23" x1="160.09" y1="6.26" x2="139.37" y2="6.26"/><line class="cls-23" x1="150.88" y1="9.49" x2="139.37" y2="9.49"/><polygon class="cls-22" points="138.2 12.14 138.2 17.63 145.2 12.14 138.2 12.14"/><rect class="cls-22" x="26.56" y="10.29" width="28.66" height="23.7" rx="2.16" transform="translate(81.78 44.27) rotate(180)"/><path class="cls-12" d="M46.58,20.49l-.95-.16a4.87,4.87,0,0,0-.48-1.18l.55-.78a.74.74,0,0,0-.08-.93l-.57-.57a.73.73,0,0,0-.93-.06l-.78.55a4.9,4.9,0,0,0-1.18-.49l-.16-1a.72.72,0,0,0-.7-.6h-.81a.73.73,0,0,0-.72.6l-.16.94a4.8,4.8,0,0,0-1.17.48l-.79-.52a.71.71,0,0,0-.92.08l-.57.56a.73.73,0,0,0-.08.93l.55.79a4.83,4.83,0,0,0-.49,1.17l-.94.17a.73.73,0,0,0-.6.71V22a.73.73,0,0,0,.6.71l.94.17a5,5,0,0,0,.49,1.17l-.55.79a.71.71,0,0,0,.08.92l.57.57a.71.71,0,0,0,.92.08l.79-.55a5,5,0,0,0,1.17.49l.17.94a.72.72,0,0,0,.71.6h.81a.72.72,0,0,0,.72-.6l.16-.94a5.07,5.07,0,0,0,1.18-.49l.76.54a.73.73,0,0,0,.93-.08l.57-.57a.74.74,0,0,0,.08-.93l-.55-.78a5,5,0,0,0,.48-1.18l.95-.16a.74.74,0,0,0,.6-.72v-.8A.73.73,0,0,0,46.58,20.49Zm-5.69,3.27A2.16,2.16,0,1,1,43,21.6h0A2.15,2.15,0,0,1,40.89,23.76Z"/><line class="cls-24" x1="189.51" y1="94.32" x2="189.51" y2="165.36"/><line class="cls-24" x1="42.97" y1="94.32" x2="42.97" y2="165.36"/></g></g></g></svg>