<svg xmlns="http://www.w3.org/2000/svg" viewBox="0 0 336.98 278.24"><defs><style>.cls-1,.cls-17,.cls-18,.cls-19,.cls-20,.cls-29,.cls-6,.cls-7,.cls-9{isolation:isolate;}.cls-2,.cls-28{fill:#ffd371;}.cls-2,.cls-29{opacity:0.3;}.cls-3{fill:#eaeaea;mix-blend-mode:multiply;}.cls-4{fill:#1b2e35;}.cls-5{fill:#0080ff;}.cls-17,.cls-19,.cls-20,.cls-29,.cls-6,.cls-8{fill:#fff;}.cls-6{opacity:0.6;}.cls-19,.cls-7,.cls-9{opacity:0.2;}.cls-10{fill:#fbc2bc;}.cls-11{fill:#e98380;}.cls-12,.cls-21{fill:none;}.cls-12{stroke:#1b2e35;stroke-linecap:round;stroke-linejoin:round;stroke-width:0.72px;}.cls-13{fill:#fb5857;}.cls-14{fill:#fa5;}.cls-15{fill:#9b5c29;}.cls-16{fill:#c97a32;}.cls-17{opacity:0.5;}.cls-18{opacity:0.4;}.cls-20{opacity:0.8;}.cls-21{stroke:#fff;stroke-miterlimit:10;stroke-width:2px;}.cls-22{fill:#fb8a7e;}.cls-23{fill:#fbb378;}.cls-24{fill:#e67779;}.cls-25{fill:#bf6179;}.cls-26{fill:#363638;}.cls-27{fill:#d19428;}</style></defs><g class="cls-1"><g id="Layer_2" data-name="Layer 2"><g id="Option_1" data-name="Option 1"><path class="cls-2" d="M151.89,30.19c94.52-11.26,139.37,14.24,139.37,14.24S356.84,69,330.92,156.71C310.29,226.51,214.56,293,161.58,275.37s-52-48-112.27-84.64-51.59-72.45-43.8-91C5.51,99.73,30.11,44.71,151.89,30.19Z"/><ellipse id="_Path_" data-name="&lt;Path&gt;" class="cls-3" cx="162.25" cy="264.77" rx="131.33" ry="10.41"/><polygon class="cls-4" points="209.5 80.17 197.69 80.17 200.84 113.98 182.16 116.78 182.16 119.14 221.49 119.14 221.49 116.78 213.43 113.98 209.5 80.17"/><path class="cls-4" d="M163.66,101.63a3.67,3.67,0,0,0,3.7,4.11h71.48a4.59,4.59,0,0,0,4.48-4.11l4.24-45.76a3.72,3.72,0,0,0-.09-1.34,3.65,3.65,0,0,0-3.61-2.77H172.38a4.59,4.59,0,0,0-4.48,4.11Z"/><path class="cls-5" d="M238.84,103.44a2.29,2.29,0,0,0,2.19-2l4.24-45.76a1.76,1.76,0,0,0,0-.57,1.36,1.36,0,0,0-1.38-1H172.38a2.27,2.27,0,0,0-2.18,2L166,101.84a1.5,1.5,0,0,0,.35,1.16,1.39,1.39,0,0,0,1.06.44Z"/><path class="cls-6" d="M238.84,103.44a2.29,2.29,0,0,0,2.19-2l4.24-45.76a1.76,1.76,0,0,0,0-.57,1.36,1.36,0,0,0-1.38-1H172.38a2.27,2.27,0,0,0-2.18,2L166,101.84a1.5,1.5,0,0,0,.35,1.16,1.39,1.39,0,0,0,1.06.44Z"/><path class="cls-4" d="M189.17,91.32S187.71,65.74,194,59.9s14.8-4.16,19.28-1,9.44,11.24,5,35.36Z"/><path class="cls-5" d="M218.11,103.44l0-.12c.55-1.75,1.15-3.63,1.83-5.65q.75-2.3,1.65-4.88a77.13,77.13,0,0,0-11-2.65,84.86,84.86,0,0,0-11.9-1.26c-5.15,0-11.07.54-11.07.54s-.85.2-1.37,5.67c-.19,2-.37,4.69-.47,8.35Z"/><path class="cls-5" d="M218.11,103.44l0-.12c.55-1.75,1.15-3.63,1.83-5.65q.75-2.3,1.65-4.88a77.13,77.13,0,0,0-11-2.65,84.86,84.86,0,0,0-11.9-1.26c-5.15,0-11.07.54-11.07.54s-.85.2-1.37,5.67c-.17,1.76-.32,4.61-.4,8.35Z"/><g class="cls-7"><path d="M218.11,103.44l0-.12c.55-1.75,1.15-3.63,1.83-5.65q.75-2.3,1.65-4.88a77.13,77.13,0,0,0-11-2.65,84.86,84.86,0,0,0-11.9-1.26c-5.15,0-11.07.54-11.07.54s-.85.2-1.37,5.67c-.19,2-.37,4.69-.47,8.35Z"/><path d="M218.11,103.44l0-.12c.55-1.75,1.15-3.63,1.83-5.65q.75-2.3,1.65-4.88a77.13,77.13,0,0,0-11-2.65,84.86,84.86,0,0,0-11.9-1.26c-5.15,0-11.07.54-11.07.54s-.85.2-1.37,5.67c-.17,1.76-.32,4.61-.4,8.35Z"/></g><path class="cls-8" d="M187.11,103.44h0l-.46-7.59-.4-6.43c-1.58.31-5.77,7.51-9.27,14Z"/><path class="cls-9" d="M187.11,103.44h0l-.46-7.59a30.51,30.51,0,0,0-4.68,7.59Z"/><path class="cls-8" d="M226.18,103.44c-2.81-8.22-4.55-10.65-4.55-10.65l-3.78,10.65Z"/><path class="cls-10" d="M200.92,94.73c6.53-.83,8.49-3.62,8.49-3.62-4.14-3.91-.7-10.68-.7-10.68l-7.86,1.47a23.54,23.54,0,0,1,.31,3.3c.06,4.77-2.1,4.82-2.1,4.82C197.68,92.6,200.92,94.73,200.92,94.73Z"/><path class="cls-9" d="M200.85,81.9a23.54,23.54,0,0,1,.31,3.3c5.3,0,7.55-4.77,7.55-4.77Z"/><path class="cls-10" d="M205.19,59.92c-6.83-.37-9.23,3.17-10.11,10.18-1.11,8.76.5,15.12,9.14,13.71C216,81.89,216.54,60.55,205.19,59.92Z"/><path class="cls-11" d="M199.51,70a14.3,14.3,0,0,1-2.14,2.72,1.89,1.89,0,0,0,1.76.87Z"/><path class="cls-12" d="M204.05,64.92A3.55,3.55,0,0,1,207,66.11"/><path class="cls-12" d="M199.1,64.36a3.16,3.16,0,0,0-2.75.41"/><path class="cls-4" d="M200,76.3a17.25,17.25,0,0,1,.67,2.41,3.31,3.31,0,0,0,.44,0c2-.09,2.89-.79,3.28-1.54a2.51,2.51,0,0,0,.26-1.2,2.16,2.16,0,0,0-.09-.69,9.41,9.41,0,0,1-3.88,1Z"/><path class="cls-8" d="M200.66,76.25l.21.71c1.89-.09,3.2-.41,3.76-1a2.16,2.16,0,0,0-.09-.69A9.41,9.41,0,0,1,200.66,76.25Z"/><path class="cls-13" d="M201.09,78.69c2-.09,2.89-.79,3.28-1.54a6.5,6.5,0,0,0-2.2.54A2.41,2.41,0,0,0,201.09,78.69Z"/><path class="cls-4" d="M212,71.85s-2.89-5.79-2.17-10.1c0,0-13.23-6.27-14.65,7.43,0,0-.66-12.27,11.1-11.9s10.77,17.55,4.42,22.34C210.73,79.62,213.81,75.46,212,71.85Z"/><path class="cls-10" d="M210.83,73.23a3,3,0,0,1,3.38-2.56c2.1.34,2.87,4.74-2.45,5.5C211,76.28,210.61,75.52,210.83,73.23Z"/><path class="cls-4" d="M202.31,69.69s1.68-1.48,3-.27A14.94,14.94,0,0,1,202.31,69.69Z"/><path class="cls-4" d="M199.08,69.6s-1.54-1.63-2.94-.55A14.82,14.82,0,0,0,199.08,69.6Z"/><path class="cls-10" d="M215.46,91.83s-7.66,6.22-14.8,6.12S191,89.83,191,89.83A40.65,40.65,0,0,1,215.46,91.83Z"/><path class="cls-8" d="M219.23,103.44c.69-3.7,1.48-7.35,2.39-10.65l-6.81-2.13a49,49,0,0,0-4.46,12.78Z"/><path class="cls-8" d="M190.84,103.44c.82-6.73.88-14.56.88-14.56l-5.47.54c-1.35,3.66-2.06,8.75-2.41,14Z"/><path class="cls-4" d="M202.31,58.36a9.18,9.18,0,0,0-8.11,6.85,10.38,10.38,0,0,1,6.64-1.37,16.85,16.85,0,0,1,1.47-2.48,8.06,8.06,0,0,0-.81,2.54,23.2,23.2,0,0,1,3.67.71,9.09,9.09,0,0,1,1.26-1.88,6.52,6.52,0,0,0-.41,2.12,27.51,27.51,0,0,1,2.69,1,12,12,0,0,1,2.06-4.72S209.05,57.73,202.31,58.36Z"/><path class="cls-5" d="M212.09,75.12,212,75a1.72,1.72,0,0,1-.2-1.09c.1-.8,1.3-2.77,2.22-1.63a1.58,1.58,0,0,1,.28,1,3.1,3.1,0,0,1-.4,1.42,1.34,1.34,0,0,1-1,.78A1,1,0,0,1,212.09,75.12Z"/><path class="cls-9" d="M212.09,75.12,212,75a1.72,1.72,0,0,1-.2-1.09c.1-.8,1.3-2.77,2.22-1.63a1.58,1.58,0,0,1,.28,1,3.1,3.1,0,0,1-.4,1.42,1.34,1.34,0,0,1-1,.78A1,1,0,0,1,212.09,75.12Z"/><path class="cls-14" d="M212.2,73.86s.82-1.73,1.37-1.41.33,1.86-.2,2.14a1.57,1.57,0,0,0-.71.86s-2.27,2.76-2.86,2.47v-.77A7.35,7.35,0,0,0,212.2,73.86Z"/><polygon class="cls-4" points="197.74 266.54 203.37 266.54 213.49 125.72 206.02 125.72 197.74 266.54"/><polygon class="cls-15" points="197.74 266.54 203.37 266.54 212.99 132.72 213.49 125.95 206.02 125.95 205.61 132.72 197.74 266.54"/><polygon class="cls-9" points="205.61 132.38 212.99 132.38 213.49 125.95 206.02 125.95 205.61 132.38"/><polygon class="cls-4" points="156.43 266.54 162.06 266.54 162.98 125.72 155.51 125.72 156.43 266.54"/><polygon class="cls-16" points="155.5 125.95 155.65 148.67 156.42 266.54 162.06 266.54 162.83 148.67 162.98 125.95 155.5 125.95"/><polygon class="cls-9" points="155.5 125.95 155.65 148.92 162.83 148.92 162.98 125.95 155.5 125.95"/><polygon class="cls-4" points="96.66 266.54 102.29 266.54 112.41 125.72 104.94 125.72 96.66 266.54"/><polygon class="cls-17" points="96.66 266.54 102.29 266.54 111.91 132.72 112.41 125.95 104.94 125.95 104.53 132.72 96.66 266.54"/><polygon class="cls-9" points="104.53 132.38 111.91 132.38 112.41 125.95 104.94 125.95 104.53 132.38"/><polygon class="cls-4" points="262.14 266.54 267.77 266.54 259.49 125.72 252.03 125.72 262.14 266.54"/><polygon class="cls-16" points="252.03 125.95 252.52 132.72 262.14 266.54 267.77 266.54 259.9 132.72 259.5 125.95 252.03 125.95"/><polygon class="cls-9" points="259.5 125.95 252.03 125.95 252.52 132.38 259.9 132.38 259.5 125.95"/><path class="cls-5" d="M101.18,122.19H263.25a2.16,2.16,0,0,1,2.16,2.16v4.89a0,0,0,0,1,0,0H99a0,0,0,0,1,0,0v-4.89A2.16,2.16,0,0,1,101.18,122.19Z" transform="translate(364.43 251.44) rotate(180)"/><path class="cls-14" d="M101.18,122.19H263.25a2.16,2.16,0,0,1,2.16,2.16v4.89a0,0,0,0,1,0,0H99a0,0,0,0,1,0,0v-4.89A2.16,2.16,0,0,1,101.18,122.19Z" transform="translate(364.43 251.44) rotate(180)"/><rect class="cls-9" x="99.02" y="122.19" width="166.4" height="3.53" transform="translate(364.43 247.91) rotate(180)"/><path class="cls-5" d="M95.53,123.11H268.9a2,2,0,0,0,2-2h0a2,2,0,0,0-2-2H95.53a2,2,0,0,0-2,2h0A2,2,0,0,0,95.53,123.11Z"/><path class="cls-14" d="M95.53,123.11H268.9a2,2,0,0,0,2-2h0a2,2,0,0,0-2-2H95.53a2,2,0,0,0-2,2h0A2,2,0,0,0,95.53,123.11Z"/><polygon class="cls-4" points="197.8 119.14 196.9 115.71 159.63 115.71 142.47 117.43 141.82 119.14 197.8 119.14"/><polygon class="cls-18" points="159.63 115.71 159.63 119.14 197.8 119.14 196.9 115.71 159.63 115.71"/><path class="cls-4" d="M266.6,114.14a11.35,11.35,0,0,1-.92,5h-39.5v-.94h.8v-8.13h-.8v-.94h39.5A11.64,11.64,0,0,1,266.6,114.14Z"/><path class="cls-19" d="M266.6,114.14a11.35,11.35,0,0,1-.92,5h-39.5v-.94h.8v-8.13h-.8v-.94h39.5A11.64,11.64,0,0,1,266.6,114.14Z"/><path class="cls-9" d="M245.47,114.14a11.35,11.35,0,0,1-.92,5H226.18v-.94h.8v-8.13h-.8v-.94h18.37A11.64,11.64,0,0,1,245.47,114.14Z"/><path class="cls-20" d="M243.52,114.14a9.19,9.19,0,0,1-.75,4.06H227v-8.13h15.79A9.43,9.43,0,0,1,243.52,114.14Z"/><path class="cls-6" d="M260.17,114.14a11.35,11.35,0,0,1-.92,5H251.9a11.35,11.35,0,0,0,.92-5,11.64,11.64,0,0,0-.92-5h7.35A11.64,11.64,0,0,1,260.17,114.14Z"/><path class="cls-14" d="M270.12,104.13a11.35,11.35,0,0,1-.92,5H229.7v-.94h.8v-8.13h-.8v-.94h39.5A11.7,11.7,0,0,1,270.12,104.13Z"/><path class="cls-9" d="M249,104.13a11.35,11.35,0,0,1-.92,5H229.7v-.94h.8v-8.13h-.8v-.94h18.37A11.7,11.7,0,0,1,249,104.13Z"/><path class="cls-20" d="M247,104.13a9.19,9.19,0,0,1-.75,4.06H230.5v-8.13h15.79A9.43,9.43,0,0,1,247,104.13Z"/><path class="cls-9" d="M263.69,104.13a11.35,11.35,0,0,1-.92,5h-7.35a11.35,11.35,0,0,0,.92-5,11.7,11.7,0,0,0-.92-5h7.35A11.7,11.7,0,0,1,263.69,104.13Z"/><rect class="cls-14" x="167.91" width="33.2" height="33.2" rx="3.03"/><path class="cls-14" d="M180.71,30.25s1.7,9.35,14,13.57c0,0-7-6.78-7-13.57Z"/><line class="cls-21" x1="177" y1="10.38" x2="192.03" y2="10.38"/><path class="cls-21" d="M182,6.74a25.72,25.72,0,0,0,3.91,16.48"/><path class="cls-21" d="M188,22.2s4-.67,3-4.31c-.88-3.23-9.81-5-12.09.67-1.74,4.3,2.48,3.6,4.93,2.24,4.28-2.36,5.17-7.75,5.17-7.75"/><path class="cls-14" d="M115,30.25s1.69,9.35,14,13.57c0,0-7-6.78-7-13.57Z"/><rect class="cls-14" x="102.22" width="33.2" height="33.2" rx="3.03"/><g id="_Group_" data-name="&lt;Group&gt;"><path class="cls-5" d="M200,103.36l-11.34,10.5,1.57,1.28,11-10.5a.88.88,0,0,0,0-1.26h0A.87.87,0,0,0,200,103.36Z"/><path class="cls-22" d="M184,111.89l6.66-3s5.58-1,7.88-.52,7.39,7.43,7.27,8.28-8.82,2.91-9,2.91-4-2.14-4-2.14l-6.16,2.14Z"/><polygon class="cls-23" points="126.33 257.15 133.65 256.14 134.66 238.74 127.35 239.75 126.33 257.15"/><polygon class="cls-9" points="127.35 239.75 134.66 238.75 134.08 248.7 126.78 249.34 127.35 239.75"/><path class="cls-24" d="M126.62,154.86l-1.79-11.19-41-2.46s-4.37,23.29-1,29.49c6,11.07,38.24,5.48,47.68,6.57-5.64,23.08-5.09,68.17-5.09,68.17l13.48,1s10.37-48.58,12.47-71.67C152.74,159.21,139.83,159.6,126.62,154.86Z"/><polygon class="cls-25" points="123.8 246.07 140 247.14 141.38 240.2 123.58 239.37 123.8 246.07"/><path class="cls-4" d="M134.2,255.26l-8.27-.52a.53.53,0,0,0-.58.47h0l-.81,6.52a1.3,1.3,0,0,0,1.21,1.38c2.88.14,4.27.06,7.91.26a70.34,70.34,0,0,0,9.72.31c3.08-.3,2.7-3.34,1.37-3.49-3.15-.36-7.33-2.68-9.31-4.44A2.1,2.1,0,0,0,134.2,255.26Z"/><polygon class="cls-23" points="143.21 257.08 150.58 257.62 155.2 240.82 147.84 240.28 143.21 257.08"/><path class="cls-26" d="M151.61,258s0,0,0,.06h.06a9,9,0,0,0,1.8.77,2,2,0,0,0,1.43,0,.93.93,0,0,0,.47-.87.63.63,0,0,0-.25-.57,3,3,0,0,0-2.07-.06,2.7,2.7,0,0,0,1.09-1.49.64.64,0,0,0-.45-.67.81.81,0,0,0-.74,0c-.89.49-1.24,2.55-1.26,2.66h0l-.12,0A.11.11,0,0,0,151.61,258Zm.55-.41-.17,0c.17-.68.54-1.79,1.08-2.08a.51.51,0,0,1,.4,0l.08,0c.22.09.25.23.24.33C153.73,256.31,152.88,257.14,152.16,257.54Zm0,.38c1-.29,2.32-.56,2.74-.25a.33.33,0,0,1,.12.29.63.63,0,0,1-.28.55C154.33,258.75,153.39,258.53,152.18,257.92Z"/><polygon class="cls-9" points="147.84 240.28 155.2 240.82 152.56 250.43 145.28 249.54 147.84 240.28"/><path class="cls-24" d="M157.69,249.25l-13-3.82s7.75-43.72,15.6-58.88c-.59-.19-1.37-.44-2.33-.73-1.74-.52-4-1.17-6.76-1.93-18.85-5.22-57.07-15-57.07-15l17.46-16.29s69.54,10.6,71,28.93C183.3,190.31,157.69,249.25,157.69,249.25Z"/><polygon class="cls-25" points="143.05 245.72 158.67 250.14 161.47 243.64 144.23 239.12 143.05 245.72"/><path class="cls-4" d="M151.31,256.88l-8-2.23a.53.53,0,0,0-.66.33h0l-2.15,6.21a1.31,1.31,0,0,0,.89,1.61c2.8.73,4.17.94,7.69,1.89a67.85,67.85,0,0,0,9.44,2.33c3.08.35,3.34-2.7,2.07-3.12-3-1-6.62-4.15-8.18-6.28A2.07,2.07,0,0,0,151.31,256.88Z"/><path class="cls-5" d="M134.38,256.16l.15,0s.17.05.19.07,0,0,0,.05h.06a9.74,9.74,0,0,0,1.92.38,2,2,0,0,0,1.41-.28.92.92,0,0,0,.27-.94.67.67,0,0,0-.37-.52,3.08,3.08,0,0,0-2,.38,2.65,2.65,0,0,0,.73-1.69.71.71,0,0,0-.63-.56,1.08,1.08,0,0,0-.82.2c-.77.66-.89,2.75-.89,2.88h0Zm.79-.43-.15.09a3.77,3.77,0,0,1,.62-2.26.52.52,0,0,1,.38-.13h.08c.24,0,.3.17.31.27A3.46,3.46,0,0,1,135.17,255.73Zm.11.37c.89-.49,2.15-1,2.62-.81a.3.3,0,0,1,.18.25.65.65,0,0,1-.16.6C137.55,256.46,136.58,256.44,135.28,256.1Z"/><path class="cls-22" d="M156.61,68.93a12.07,12.07,0,0,1-.56,1.14,11.93,11.93,0,0,1-5.13,4.86,11.11,11.11,0,0,1-1.69.69,10.7,10.7,0,0,1-12.32-4.16c-3.52-5-2.57-9.91-1.63-18.36A11.43,11.43,0,0,1,137,48a11.6,11.6,0,0,1,16-3.64C160.68,49.07,159.7,61.71,156.61,68.93Z"/><path class="cls-9" d="M150.92,74.93a11.11,11.11,0,0,1-1.69.69A10.84,10.84,0,0,1,140,74.48a12.9,12.9,0,0,1,2-2.59A16.82,16.82,0,0,1,150.92,74.93Z"/><path class="cls-22" d="M128.78,77.18c1.45,5.45,10.81,9.83,10.81,9.83s6.31,2,6.27-.4c-2.82-2.57-3.4-5-2.81-7.33a10.92,10.92,0,0,1,2-3.82,22.77,22.77,0,0,1,1.57-1.84l-5.54-14.75C139.12,65,134.65,75.63,128.78,77.18Z"/><path class="cls-4" d="M155.43,50.43s2.37,8-5.82,13.72c0,0-3.44,7.38-5.36,8.29s-6.26.36-7.72,0-9-6.64-6.84-21.37S144.25,41,144.25,41s4.23-3.66,12.09.89C162.89,45.67,161.61,52.79,155.43,50.43Z"/><path class="cls-22" d="M148.5,60.34a5.5,5.5,0,0,0,2.15,4.19c1.58,1,3.11-1.2,3.29-3.76.14-2.27-.48-5.6-2.37-5.49S148.28,58,148.5,60.34Z"/><path class="cls-4" d="M156.44,87.84s-11.62-13-27.14-11.67S98.23,89.5,90.49,108.34s-10.06,47.32-10.06,47.32,25.12,7.19,50.65.64A271.38,271.38,0,0,1,156.44,87.84Z"/><path class="cls-4" d="M156.44,87.84c3.92,4.07,15.12,22.73,18.3,23.43s7.83-2.17,11.47-1.08,7.37,4.41,6.52,6.52-9.38,7.78-20,8.09c-9.07.26-28.18-22.32-28.18-22.32C144.58,93.75,156.44,87.84,156.44,87.84Z"/><path class="cls-4" d="M156.92,72.35l0-.92a1.62,1.62,0,0,0,1.56-1.73c0-1.36-3.4-4.32-5.55-5.86l.54-.75c.61.44,5.94,4.34,5.93,6.62A2.52,2.52,0,0,1,156.92,72.35Z"/><path class="cls-27" d="M156.38,60c0,3.8-2.21,6.88-4.95,6.88s-5-3.08-5-6.88,2.22-6.89,5-6.89S156.38,56.22,156.38,60Z"/><ellipse class="cls-28" cx="153.17" cy="60.03" rx="3.26" ry="4.54"/><path class="cls-28" d="M154.72,56.73S155,36.86,140,40.3c0,0,11.19,1.35,11.92,17Z"/><rect class="cls-4" x="156.04" y="71.22" width="1.71" height="1.36" rx="0.51" transform="translate(-9.96 27.78) rotate(-9.81)"/></g><path class="cls-5" d="M74.24,173.75h60.68a5,5,0,0,1,5,5v5.74a0,0,0,0,1,0,0H69.24a0,0,0,0,1,0,0v-5.74A5,5,0,0,1,74.24,173.75Z"/><path class="cls-14" d="M74.24,173.75h60.68a5,5,0,0,1,5,5v5.74a0,0,0,0,1,0,0H69.24a0,0,0,0,1,0,0v-5.74A5,5,0,0,1,74.24,173.75Z"/><rect class="cls-5" x="48.58" y="95.93" width="52.07" height="36.68" rx="14.58" transform="translate(149.23 228.53) rotate(180)"/><rect class="cls-14" x="48.58" y="95.93" width="52.07" height="36.68" rx="14.58" transform="translate(149.23 228.53) rotate(180)"/><path class="cls-4" d="M71.93,245.64,98.41,243V205.83H108.9V243l26.59,2.61a5.15,5.15,0,0,1,4.65,5.13v4H67.28v-4A5.16,5.16,0,0,1,71.93,245.64Z"/><path class="cls-19" d="M71.93,245.64,98.41,243V205.83H108.9V243l26.59,2.61a5.15,5.15,0,0,1,4.65,5.13v4H67.28v-4A5.16,5.16,0,0,1,71.93,245.64Z"/><circle class="cls-4" cx="137.34" cy="259.68" r="6.86" transform="translate(-39.82 25.35) rotate(-9.22)"/><circle class="cls-4" cx="70.09" cy="259.68" r="6.86" transform="translate(-163.09 125.62) rotate(-45)"/><path class="cls-4" d="M100.74,180.69h5.84a4.13,4.13,0,0,1,4.13,4.13v29a0,0,0,0,1,0,0H96.6a0,0,0,0,1,0,0v-29A4.13,4.13,0,0,1,100.74,180.69Z" transform="translate(207.31 394.51) rotate(180)"/><path class="cls-29" d="M100.74,180.69h5.84a4.13,4.13,0,0,1,4.13,4.13v29a0,0,0,0,1,0,0H96.6a0,0,0,0,1,0,0v-29A4.13,4.13,0,0,1,100.74,180.69Z" transform="translate(207.31 394.51) rotate(180)"/><path class="cls-4" d="M78.57,122.53s-2,49.61,11.82,58.16H74.61s-12.22-16.91-8.76-58.16Z"/><path class="cls-29" d="M78.57,122.53s-2,49.61,11.82,58.16H74.61s-12.22-16.91-8.76-58.16Z"/><rect class="cls-4" x="66.3" y="179.12" width="76.58" height="5.37" rx="2.01"/><rect class="cls-6" x="66.3" y="179.12" width="76.58" height="5.37" rx="2.01"/><rect class="cls-4" x="56.93" y="107.07" width="29.42" height="20.73" rx="7.57"/><rect class="cls-19" x="56.93" y="107.07" width="29.42" height="20.73" rx="7.57"/><path class="cls-8" d="M109,15.71a10,10,0,1,0,10-10A10,10,0,0,0,109,15.71Zm5.58,3.67a13.42,13.42,0,0,1-.53-3.49h4.5v3.49ZM117,24.63a9.1,9.1,0,0,1-6-4.45h3a11.16,11.16,0,0,0,1.73,3.17A9.76,9.76,0,0,0,117,24.63Zm1.62-4.45v4.66a8.06,8.06,0,0,1-2.21-2,10.06,10.06,0,0,1-1.48-2.65Zm-3.47-9.37a12.52,12.52,0,0,1,3.11-4.22l.36,0v4.24Zm-3.85,0a9.17,9.17,0,0,1,5.57-4,14.68,14.68,0,0,0-1.26,1.55,13.55,13.55,0,0,0-1.34,2.45Zm2.83,4.28a11.51,11.51,0,0,1,.69-3.48h3.8v3.48Zm-4.24,0a9,9,0,0,1,1-3.48h3.13a12.22,12.22,0,0,0-.64,3.48Zm3.43.8a14.48,14.48,0,0,0,.5,3.49h-3.18a9.28,9.28,0,0,1-.77-3.49Zm11.31,0h3.54a9.28,9.28,0,0,1-.77,3.49h-3.27A14.48,14.48,0,0,0,124.58,15.89Zm-5.21-5.08V6.57h.25a11.31,11.31,0,0,1,2,2.26,12.35,12.35,0,0,1,1.12,2Zm3.71.8a11.57,11.57,0,0,1,.69,3.48h-4.4V11.61Zm.55-.8a13.55,13.55,0,0,0-1.34-2.45A15.3,15.3,0,0,0,121,6.78a9.22,9.22,0,0,1,5.69,4Zm.14,5.08a12.62,12.62,0,0,1-.53,3.49h-3.87V15.89Zm.8-.8a12.22,12.22,0,0,0-.64-3.48h3.22a9,9,0,0,1,.95,3.48ZM127,20.18a9.24,9.24,0,0,1-6.08,4.47,9.53,9.53,0,0,0,1.23-1.3,10.9,10.9,0,0,0,1.72-3.17Zm-4,0a9.36,9.36,0,0,1-3.6,4.61V20.18Z"/></g></g></g></svg>