<svg xmlns="http://www.w3.org/2000/svg" viewBox="0 0 327.55 259.09"><defs><style>.cls-1{isolation:isolate;}.cls-2,.cls-20{fill:#46c7ce;}.cls-2{opacity:0.25;}.cls-3{fill:#f2ab97;}.cls-4{fill:#fa5;}.cls-5{fill:#051932;}.cls-17,.cls-6{fill:#c2c2c2;}.cls-6{opacity:0.5;}.cls-15,.cls-19,.cls-6{mix-blend-mode:multiply;}.cls-7{fill:#f09785;}.cls-8{fill:#09223d;}.cls-9{fill:#051832;}.cls-10{fill:#fff;}.cls-11{fill:#b13c3e;}.cls-12{fill:#b6494e;}.cls-13{fill:#ae723f;}.cls-14,.cls-19{fill:#dddfe3;}.cls-15{fill:#eaeaea;}.cls-16{fill:#0c2951;}.cls-17{opacity:0.4;mix-blend-mode:color-burn;}.cls-18{fill:#393a62;}.cls-21{fill:#649b34;}</style></defs><g class="cls-1"><g id="Layer_2" data-name="Layer 2"><g id="Option_1" data-name="Option 1"><path class="cls-2" d="M185.21,239.64C94,256,48.89,233.82,48.89,233.82s-65.17-20.1-45-106.88c16-69,105.29-139.21,157.81-125.12S215,45.5,275.72,77.65s54.33,67.48,47.81,86C323.53,163.61,302.78,218.52,185.21,239.64Z"/><path class="cls-3" d="M167.05,79.32c-1.67-1.1-2.69-3.72-5.32-5.37s-7.4-1.75-11.15-3.08c-1.41-.5-4.32.12-5.07,1s5.71,4.62,7.3,5.7,8.77,2.55,11.44,4.73C164.25,82.28,167.6,79.76,167.05,79.32Z"/><path class="cls-4" d="M197,59.32c-4.49,3.24-10.51,27.56-10.51,27.56s-17.45-6.15-19.94-9c-2.33-2.67-6.64,4.24-5.53,5.46,2.74,3,28.7,19.1,30.7,15.55S202,74.18,202,74.18Z"/><path class="cls-5" d="M218,144.19c.21,2.59,2.52,24.7,6.95,47.53,4.5,23.21,3.48,47,3.48,47a17.94,17.94,0,0,0,4.55.74,13.61,13.61,0,0,0,5.08-.55s2.54-36.47.61-49.81c-3-20.73,1.3-52.69-1.94-62.61,0,0-5.29-6.09-11.41-6.18s-14-.16-19.73-.11c-3.52,0-5.71,6.11-7,6.27-.25,6.82-2.28,35.31-.52,61.08,1.57,23,3.43,43.35,3.36,50,0,0,1.22,1.41,4.74,1.31,2.65-.08,4.61-.31,5.56-1.58-.91-11,3-33.85.42-48.67-.7-11.28,4-44.37,4-44.37Z"/><path class="cls-4" d="M209.43,53.88l1.69-.66,7.62-3.92,4,4.48,12.83,4.57s-1.87,9.54-.86,34.2c.54,13.22.61,29.07.61,29.07l.42,4.81a239.58,239.58,0,0,1-37.12,0l-.54-4.14s0-20.58-.34-35.26S197,59.32,197,59.32Z"/><polygon class="cls-6" points="233.29 75.31 234.58 89.56 235.29 120.95 233.69 120.95 232.26 81.26 233.29 75.31"/><path class="cls-3" d="M211.59,44.65c0,1.83-.35,7.49-.47,8.57l-1.69.66,7.16,12.46L224,54.23a11.85,11.85,0,0,0-1.25-.45,54,54,0,0,1-.6-8.66Z"/><path class="cls-7" d="M211.59,44.65a11.34,11.34,0,0,1,0,1.83s3.13,3.71,5.37,3.71,5.1-3.43,5.1-3.43,0-2.29.05-3.25Z"/><path class="cls-7" d="M229.67,34.09c-.26,1.91-1.74,4.37-3.16,3.63a3.16,3.16,0,0,1-1.86-3.51,3.3,3.3,0,0,1,2.77-3.16C229.07,30.72,229.92,32.17,229.67,34.09Z"/><path class="cls-7" d="M205,34.1c.25,1.92,1.74,4.37,3.16,3.63A3.16,3.16,0,0,0,210,34.22a3.31,3.31,0,0,0-2.78-3.16C205.55,30.73,204.7,32.19,205,34.1Z"/><path class="cls-3" d="M205.4,31.68a1.61,1.61,0,0,1,2.43.86l-.18-1.36a2.19,2.19,0,0,0-1.16-.15A1.5,1.5,0,0,0,205.4,31.68Z"/><path class="cls-3" d="M227,30.1a9.66,9.66,0,1,1-19.31,0c0-7.16,4.32-10.6,9.65-10.6S227,23.09,227,30.1Z"/><path class="cls-3" d="M227,30.1c0,5.17,0,9.49-2,12.3-1.18,1.69-4.26,4.6-6.49,5.33a6.27,6.27,0,0,1-2.69-.1c-2.22-.78-5.06-3.61-6.19-5.22-2-2.81-2-7.13-2-12.3"/><path class="cls-8" d="M222.76,34.7c0,.88-.53,1.59-1.18,1.59s-1.18-.71-1.18-1.59.52-1.59,1.18-1.59S222.76,33.82,222.76,34.7Z"/><path class="cls-8" d="M214,34.7c0,.88-.53,1.6-1.18,1.6s-1.19-.72-1.19-1.59.53-1.59,1.18-1.59S214,33.83,214,34.7Z"/><path class="cls-9" d="M220,29.36a6.27,6.27,0,0,1,2.07-.06,5.65,5.65,0,0,1,2,.6.29.29,0,0,1,.11.4.3.3,0,0,1-.31.15h0c-.64-.11-1.25-.25-1.89-.32s-1.29-.14-1.92-.19h0a.3.3,0,0,1-.27-.32A.29.29,0,0,1,220,29.36Z"/><path class="cls-9" d="M214,30c-.63.05-1.29.09-1.92.18s-1.25.21-1.89.32h0a.29.29,0,0,1-.34-.24.3.3,0,0,1,.14-.31,5.65,5.65,0,0,1,2-.6,6.86,6.86,0,0,1,2.07.06.29.29,0,0,1,.23.35.3.3,0,0,1-.26.23Z"/><path class="cls-7" d="M215.62,38.72a6.46,6.46,0,0,1,3.38,0c.52.32-1.12.74-1.69.74S215.13,39,215.62,38.72Z"/><path class="cls-10" d="M214.07,41.85a57.16,57.16,0,0,0,6.1.13h0a8.35,8.35,0,0,1-3,1,8.29,8.29,0,0,1-3.14-1.16C214,41.84,213.91,41.82,214.07,41.85Z"/><path class="cls-9" d="M207.65,34.53c.2.66,1.37.56,1.39-.1s-1-4.49.37-6.74c2.94-4.75,11.7.28,14.56-4.55,0,0-.69,3.71,1.15,5.64.63.85.51,5,.51,6s1.28.56,1.33,0,.83-6.3.83-6.3L225,21.58l-6.17-3.83-7.44,1.48-3.45,4.69-1.31,5.71Z"/><path class="cls-5" d="M228.51,238.2c.19,2.89-3,4.46-3,7.16a5,5,0,0,0,.2,2c.79,1.25,2.76,1.41,4.38,1.41a17.88,17.88,0,0,0,6.6-1c3.07-1.3,1.29-6.65,1.29-9.62,0-.3-.56-.46-1.42-.52-1.25-4.74-6.29-3.35-6.82.38C228.77,238.16,228.51,238.2,228.51,238.2Z"/><path class="cls-5" d="M211.74,237.23c.33,2.53.89,7.29,1.19,9.28.14.9-.15,1.56-.8,1.59-3,.18-11,.67-12.89.67-2.28,0-4.44-.17-4.84-1.14-.6-1.46.22-4.4,4.77-5.92,2.68-.89,2.19-4.88,2.19-4.34,0,0,.37-2.57,2.21-.56,1.29,1.41,1.58,1.32,3.61,1C210.35,237.33,211.57,236,211.74,237.23Z"/><path class="cls-11" d="M222.37,145V121h-1.05v21.78C221.32,144.65,222.37,145,222.37,145Z"/><rect class="cls-10" x="222.37" y="121.62" width="26.08" height="23.05"/><polygon class="cls-11" points="227.87 144.07 222.08 144.07 222.37 145.02 227.87 145.02 227.87 144.07"/><path class="cls-11" d="M225.68,142.83c0,.68-.63,1.24-1.7,1.24s-1.61-.66-1.61-1.24l-.35,1.5h3.92Z"/><rect class="cls-11" x="221.32" y="120.95" width="6.82" height="0.92"/><rect class="cls-12" x="225.68" y="120.95" width="26.08" height="24.07"/><path class="cls-3" d="M240.86,133.33c-3,2.95-2.23,6.65-2.61,9.18-.26,1.72-1.19,3.67.16,3.06,2.43-1.09,2.12-5.38,2.12-5.38a1.81,1.81,0,0,1,.89,1.48c.19,1.88-2.73,2-3,3.9s3.2.88,5.62-.35c3.93-1.84,3.27-8.53,3.28-9.15,0-1.34.09-5.13.09-5.13l-6.83-4.59S241.33,132.85,240.86,133.33Z"/><path class="cls-7" d="M246,141.83a8.61,8.61,0,0,1-1.56,3.19"/><path class="cls-7" d="M244.63,142.24a14.44,14.44,0,0,1-2.08,3.66"/><path class="cls-7" d="M243,142.73s-1.29,3.07-3,3.88"/><rect class="cls-11" x="225.7" y="120.95" width="0.97" height="24.07"/><path class="cls-9" d="M226.19,20.32c-.92,1.33-2.64,2.69-6.86,2.54s-10.87,3.81-12.17,3.68c-1.57-4.22,1.54-10.17,9.74-9.2C223.69,18.14,227,17,227,17A6.11,6.11,0,0,1,226.19,20.32Z"/><path class="cls-9" d="M207,23.91s-2.53,3-.09,7.63l0-.21,3-6.77-.79-.81Z"/><path class="cls-9" d="M225,20.51c1.62,1,3.69,4.72,2.56,9.39l-1.4-2.25L224,22Z"/><polygon class="cls-4" points="225.06 54.62 222.47 52.01 216.7 61.95 211.22 52.01 208.46 54.3 216.85 69.95 225.06 54.62"/><polygon class="cls-6" points="225.06 54.62 221.11 65.69 216.7 61.95 221.58 67.5 225.06 54.62"/><polygon class="cls-6" points="216.7 61.95 212.51 65.31 208.46 54.3 212.06 67.5 216.7 61.95"/><polygon class="cls-5" points="218.8 61.88 214.04 61.88 215.53 65.85 213.19 116.65 216.34 121.5 219.87 116.78 217.61 65.98 218.8 61.88"/><polygon class="cls-13" points="221.11 65.69 216.66 61.88 218.65 58.59 221.11 65.69"/><polygon class="cls-13" points="216.66 61.88 212.51 65.31 214.5 57.95 216.66 61.88"/><polygon class="cls-6" points="197.66 84.97 199.56 80.41 198.06 118.75 197.66 84.97"/><path class="cls-7" d="M240.32,133.91s5.87,1.06,7.08-1.15v-.93l-6.4.9-.06.42Z"/><path class="cls-4" d="M233.69,83.16s4.21,29.66,5.13,42c0,.59.64.86.67,1.4.18,2.52.29,4.32.28,4.94,0,2.06,7.39,2.15,7.61,0a37.46,37.46,0,0,0,.19-4.52c0-.49.87-1.39.88-1.93.05-12.89-3.66-36.92-4.88-46.24-2.26-17.26-3.11-17.5-8-20.52l-1.86,8.5Z"/><path class="cls-7" d="M164.46,76.48a6.33,6.33,0,0,0-5.09,3.45l2.07.79s2.06-3,3.66-3.43Z"/><rect class="cls-14" x="213.19" y="126.99" width="5.91" height="4.84"/><path class="cls-15" d="M61.87,249.94c0,5.06,45.49,9.15,101.6,9.15s101.59-4.09,101.59-9.15-45.49-9.15-101.59-9.15S61.87,244.88,61.87,249.94Z"/><path class="cls-16" d="M109.42,237.07c.62,1.1,1.35,5.82,1.35,5.82l.79-.07s-.8-4.89-.48-4.52a10.41,10.41,0,0,0,1.76,1.48c1.74,1.23,1.83,4.48,4.77,6.17s8.42,1.45,9,.06-1.42-3.47-3.53-4.06c-1.16-1.56-1.08-3.75-3.84-7.34a8.91,8.91,0,0,1-1-2.63,18.26,18.26,0,0,1-4.51.54c-1.72,0-3.28-.23-3.62-.81,0,.46.08-.34,0,0A7.46,7.46,0,0,0,109.42,237.07Z"/><path class="cls-3" d="M116.87,178c1,16.86-.49,39.68,1.42,53.15,0,.21.12.82.23,1.72,0,.24,1.53,2.75,2.5,4.62.8,1.55,1.45,3.63,2,4.48.47.69-1.8,1.15-2.3,1-2.43-.46-6.33-6.23-6.75-6.73-2.2-2.57-3.88-2.28-3.87-4.51.54-14.14-6.83-32.18-3.7-46.6"/><path class="cls-12" d="M118.4,64.86c.77,1.25,4.54,12.32,4.54,12.32l-6.28-.59Z"/><path class="cls-16" d="M82.89,237.31c-1,1.64-.48,6.22.8,8.36.77,1.28,3.65,4.12,5.42,3.88S92,246.37,92.45,244c.61-3.13-.81-7.12-.81-7.12Z"/><path class="cls-3" d="M106.14,186.51l-4.77-41.83c-1.15,12-8.13,42.61-8,46.57.17,6.55-2.21,21.56-2.4,33.11,0,.6-8,9.84-8.06,9.19-.36-3.37-.73-21.7-1-26.68-.7-13.05,1-24.75,1.23-27.53,1.89-22.83-4.53-43.66-1.2-57.32a83.66,83.66,0,0,0,37.76,2.16c1.62,26.9-1.66,45.1-2,56.17"/><path class="cls-3" d="M82.38,222.11c.12,1,.31,7.56.45,12.09,0,.79-.13,2.54-.16,3.21a5.87,5.87,0,0,0,.58,2.29A5.68,5.68,0,0,0,88,243.23c2.3.22,3.41-2.2,3.59-3.79a11.08,11.08,0,0,0,.12-2.6c-.12-.69-.63-3.11-.72-4a71.07,71.07,0,0,1,0-10.27C91,221.41,82.38,222.11,82.38,222.11Z"/><path class="cls-7" d="M82.43,185.36c1.6,1.71,7.57,3.49,11.2,2.07l.94-3.94-11.46-4.15Z"/><path class="cls-7" d="M106.09,186.83c1.66,1.72,10,2.13,11.14.72l0-4.86-11.35,2A18.91,18.91,0,0,0,106.09,186.83Z"/><polygon class="cls-17" points="101.41 145.1 102.15 142.04 106.6 186.51 101.41 145.1"/><path class="cls-18" d="M81.91,122s-1.86,2-2,17.73,3.86,27.09,2.57,39.59c4.57,5.55,29.49,7.51,36.06,2.62.92-11.62,4.72-43.35,1.73-57.6C107.74,107.31,81.91,122,81.91,122Z"/><path class="cls-9" d="M88.43,64.07c5.87-13.22-5.13-24.56,3.48-36.79,5.1-7.25,17-5.24,18.91.38,0,0,9.09,3.23,4.59,18.1a32.1,32.1,0,0,0,0,19.29Z"/><path class="cls-12" d="M84.67,63a38.36,38.36,0,0,1,6.72-2.87L94.87,59l14,1.13,2.94,1a16.63,16.63,0,0,1,6.54,3.76c2.42,2.59-1.13,23.94-1.13,23.94l2.85,28-.7,3.75.8,3.84s-6.84,3-18.9,2.54S81.91,122,81.91,122l.52-4.11-.52-3,4.46-28.11Z"/><path class="cls-3" d="M96.75,45.49c.64,4.9,1.08,9,.07,13.06a1.65,1.65,0,0,0-1.95-.3s4.47,11.5,7.35,11.5,6.7-9.63,6.7-9.63l-3.17-1.2s-.53-.46,0-3.79-3.88-10.19-3.88-10.19Z"/><path class="cls-3" d="M96.79,51.32c0,1.8-.38,6.75-.5,7.81,0,0,11.26.74,11.41,1.15a54.77,54.77,0,0,1-.59-8.49Z"/><path class="cls-7" d="M96.79,51.32a11,11,0,0,1,0,1.8s3.07,3.64,5.27,3.64,5-3.37,5-3.37,0-2.25,0-3.19Z"/><path class="cls-7" d="M114.51,41c-.25,1.88-1.7,4.29-3.1,3.56a3.1,3.1,0,0,1-1.82-3.44,3.24,3.24,0,0,1,2.72-3.1C113.92,37.67,114.76,39.09,114.51,41Z"/><path class="cls-7" d="M90.28,41c.25,1.88,1.71,4.29,3.11,3.56A3.1,3.1,0,0,0,95.2,41.1,3.21,3.21,0,0,0,92.47,38C90.87,37.68,90,39.11,90.28,41Z"/><path class="cls-3" d="M90.72,38.61a1.57,1.57,0,0,1,2.38.84l-.17-1.33A2.17,2.17,0,0,0,91.79,38,1.46,1.46,0,0,0,90.72,38.61Z"/><path class="cls-3" d="M111.86,37.07a9.47,9.47,0,0,1-18.93,0c0-7,4.23-10.4,9.46-10.4S111.86,30.19,111.86,37.07Z"/><path class="cls-3" d="M111.86,37.07c0,5.06,0,9.29-1.92,12-1.16,1.65-4.18,4.51-6.37,5.23a6.37,6.37,0,0,1-2.64-.1c-2.17-.77-5-3.54-6.06-5.12-1.93-2.75-1.93-7-1.94-12.05"/><path class="cls-8" d="M107.74,41.57c0,.86-.52,1.56-1.16,1.56s-1.16-.7-1.16-1.56.52-1.56,1.16-1.56S107.74,40.71,107.74,41.57Z"/><path class="cls-8" d="M99.19,41.58c0,.86-.52,1.56-1.16,1.56s-1.15-.7-1.16-1.56S97.39,40,98,40,99.19,40.72,99.19,41.58Z"/><path class="cls-9" d="M105,37.35a6.22,6.22,0,0,1,2.06-.08,5.27,5.27,0,0,1,2,.61.36.36,0,0,1,.12.49.35.35,0,0,1-.36.17l-.93-.15c-.3-.06-.61-.1-.92-.14s-.62-.07-.93-.11l-.93-.09h0a.36.36,0,0,1-.32-.38A.38.38,0,0,1,105,37.35Z"/><path class="cls-9" d="M99.16,38.05l-.94.1c-.31,0-.62.06-.93.11s-.61.08-.92.14l-.92.14a.34.34,0,0,1-.41-.29.35.35,0,0,1,.17-.36,5.06,5.06,0,0,1,2-.62,5.91,5.91,0,0,1,2,.09.34.34,0,0,1,.26.42.35.35,0,0,1-.3.27Z"/><path class="cls-7" d="M100.75,45.51a6.16,6.16,0,0,1,3.3,0c.52.31-1.09.72-1.65.72S100.26,45.78,100.75,45.51Z"/><path class="cls-7" d="M98.52,48.6a24.2,24.2,0,0,0,7.38.24c.24,0,.34,0,0,.14-.55.23-2.19,1.87-3.66,1.87S98.92,49,98.44,48.73C98.24,48.6,98.33,48.56,98.52,48.6Z"/><path class="cls-10" d="M106.09,48.84c.11,0-.93.62-1.29.91a19.23,19.23,0,0,1-5.23-.15c-1.63-1.08-1.17-1-1.17-1A60.42,60.42,0,0,0,106.09,48.84Z"/><path class="cls-9" d="M92.93,41.41c.19.64,1.34.55,1.36-.1s-1-4.4.36-6.61c2.89-4.66,11.47.27,14.27-4.46,0,0-.67,3.64,1.14,5.53.61.83.49,4.91.49,5.86s1.26.55,1.31-.05.8-6.18.8-6.18l-2.74-6.69-6-3.75-7.3,1.45L93.2,31,91.91,36.6Z"/><polygon class="cls-19" points="94.42 59.14 98.03 72.6 101.95 69.72 105.75 72.67 109.55 60.33 102.4 68.72 101.28 68.72 94.42 59.14"/><polygon class="cls-12" points="94.31 58.77 96.5 56.76 101.95 69.72 98.34 71.38 94.31 58.77"/><polygon class="cls-12" points="107.38 57.74 101.95 69.72 105.42 71.38 109.55 59.82 107.38 57.74"/><path class="cls-8" d="M111.23,40.19l-1.59-.47-.06-.08c-.18-.18-.39-.35-.61-.53a5.2,5.2,0,0,0-.78-.41,3.67,3.67,0,0,0-.92-.21,3.76,3.76,0,0,0-2,.31,3.91,3.91,0,0,0-1.4,1.13l-.24-.14a2,2,0,0,0-.55-.22,1.77,1.77,0,0,0-.33-.08l-.35,0a3.07,3.07,0,0,0-.68,0,3.2,3.2,0,0,0-.57.18,1.78,1.78,0,0,0-.24.12,1,1,0,0,1-.13-.16c-.18-.18-.39-.35-.61-.53a4.87,4.87,0,0,0-.79-.41,3.6,3.6,0,0,0-.91-.21,3.74,3.74,0,0,0-2,.31,4.12,4.12,0,0,0-1.24.93h0l-1.93.46v.69l1,.74c0,.22,0,.43-.06.69a4.16,4.16,0,0,0,.67,2,4,4,0,0,0,1.6,1.3,2.7,2.7,0,0,0,.48.16,1.79,1.79,0,0,0,.48.1l.45,0a2.39,2.39,0,0,0,.48,0,3.9,3.9,0,0,0,1.63-.56,7.49,7.49,0,0,0,.6-.49c.16-.18.32-.35.45-.53l.31-.54a5.31,5.31,0,0,0,.18-.51,3,3,0,0,0,.14-.7l0-.24v0s0-.09,0-.27a3.13,3.13,0,0,0-.11-.74,4.63,4.63,0,0,0-.15-.51c-.09-.16-.18-.33-.27-.52h.08c.14,0,.32,0,.5-.06h.27a1.41,1.41,0,0,1,.29,0h.28a1.17,1.17,0,0,1,.27,0,2.14,2.14,0,0,1,.49.09l.15,0a3.38,3.38,0,0,0-.35.85,4.38,4.38,0,0,0-.14,1.08,4,4,0,0,0,.66,2,4.15,4.15,0,0,0,1.6,1.3,2.81,2.81,0,0,0,.49.16,1.65,1.65,0,0,0,.47.1l.45,0a2.43,2.43,0,0,0,.49,0,3.86,3.86,0,0,0,1.62-.56,7.49,7.49,0,0,0,.6-.49c.16-.18.32-.35.45-.53s.22-.37.31-.54a5.31,5.31,0,0,0,.18-.51,3,3,0,0,0,.14-.7l0-.24v0s0-.09,0-.27,0-.26,0-.43l.69-.72Zm-10.13,3c0,.12-.07.26-.12.41l-.25.48c-.1.16-.24.31-.37.48s-.32.3-.5.45a3.08,3.08,0,0,1-1.43.52l-.4,0-.45,0a1.36,1.36,0,0,1-.42-.1,3.39,3.39,0,0,1-.41-.15,3.32,3.32,0,0,1-1.35-1.18,3.12,3.12,0,0,1,.08-3.48,3.47,3.47,0,0,1,1.34-1.08,3.15,3.15,0,0,1,1.59-.21,2.39,2.39,0,0,1,.73.16c.21.07.42.21.62.3s.35.27.51.41.27.29.38.44l.26.45c.06.15.1.29.15.42a2.67,2.67,0,0,1,.12.61l0,.21a1.59,1.59,0,0,0,0,.22A2.09,2.09,0,0,1,101.1,43.16Zm8.78,0c0,.12-.06.26-.12.41s-.16.31-.24.48-.24.31-.37.48-.33.3-.51.45a3,3,0,0,1-1.43.52,3,3,0,0,1-.4,0l-.45,0a1.43,1.43,0,0,1-.42-.1,3.25,3.25,0,0,1-.4-.15,3.35,3.35,0,0,1-1.36-1.18,3.53,3.53,0,0,1-.48-1.76,3.42,3.42,0,0,1,.57-1.72,3.37,3.37,0,0,1,1.33-1.08,3.15,3.15,0,0,1,1.59-.21,2.32,2.32,0,0,1,.73.16c.22.07.42.21.63.3s.35.27.5.41.27.29.38.44l.26.45c.07.15.1.29.15.42a2.21,2.21,0,0,1,.12.61l0,.21s0,.09,0,.22A2.51,2.51,0,0,1,109.88,43.16Z"/><rect class="cls-8" x="114.33" y="113.14" width="3.65" height="4.06"/><polygon class="cls-8" points="106.61 118.25 125.7 118.25 125.7 117.38 116.18 116.38 106.61 117.38 106.61 118.25"/><path class="cls-8" d="M119.67,70.92A20.74,20.74,0,0,1,115.78,112a30.89,30.89,0,0,1-4.53-.43l-.4,1.92a18.3,18.3,0,0,0,4.93.49,22.72,22.72,0,0,0,4.27-45Z"/><rect class="cls-8" x="94.88" y="90.51" width="42.91" height="1.82" transform="translate(3.28 186.87) rotate(-78.34)"/><circle class="cls-20" cx="115.78" cy="91.3" r="17.71"/><path class="cls-3" d="M131.25,99.93s-6.86,1-7.88,7.37c0,0,2.95.76,6-2S131.25,99.93,131.25,99.93Z"/><path class="cls-21" d="M129.49,80.07s3.51,7-1.42,11.23a14.85,14.85,0,0,1-9.44,2.57c-3.47-.33-5.29,3.58-4.92,5.56a35.15,35.15,0,0,1,.32,5.72c0,1.26-.16,1.43-1,.43-2.6-3.11-7.88-8.62-7.87-11.27,0-4.31,9.51-2.39,11.49-1.94-2.07-4.34-3-5.11-2.84-9.69s5.82-6.48,4.41-8.93C118.23,73.75,124.35,74,129.49,80.07Z"/><path class="cls-3" d="M84.67,63l-.09.23c-1,2.47-11.26,24.86-10.58,31.68.53,5.24,25.75,8.16,25.75,8.16s5.09,5,8.62,5.15.85-1-1.15-1.93-4.68-4.48-4.65-5.78c0,0,2.74-.8,3.86-2.57a3.29,3.29,0,0,0,.28-3.52c-.24-.21-1.18.77-1.34,1.24s-.9.93-1.6,1.26-2.17-.89-4,.28S83.44,91,81.57,91l5.71-14.34"/><path class="cls-12" d="M84.67,63C83,63.77,80,72.17,79.46,73.71S85,82.37,86,81l2.73-3.61s-.4-9.67-.25-10S84.67,63,84.67,63Z"/></g></g></g></svg>