<svg xmlns="http://www.w3.org/2000/svg" viewBox="0 0 18.28 15.02"><defs><style>.cls-1{fill:#fa5;}</style></defs><g id="Layer_2" data-name="Layer 2"><g id="Option_1" data-name="Option 1"><path class="cls-1" d="M16.61,4.91a.28.28,0,0,0,.21-.08l1-.94a.3.3,0,0,0,0-.43.3.3,0,0,0-.43,0l-1,.95a.27.27,0,0,0-.1.21.25.25,0,0,0,.08.21A.27.27,0,0,0,16.61,4.91Z"/><path class="cls-1" d="M17.87,10.67a.3.3,0,0,1-.43,0l-1-.94a.3.3,0,0,1-.1-.22.25.25,0,0,1,.08-.21.28.28,0,0,1,.22-.1.29.29,0,0,1,.21.08l1,.94A.3.3,0,0,1,17.87,10.67Z"/><path class="cls-1" d="M18,6.76h-.8a.31.31,0,0,0,0,.61H18a.31.31,0,0,0,0-.61Z"/><path class="cls-1" d="M16.45,7A1.75,1.75,0,0,0,14.9,5.26h0V.56A.57.57,0,0,0,13.8.28,7.45,7.45,0,0,1,9.18,3.73a9.63,9.63,0,0,1-2.88.38H3A3,3,0,0,0,2.67,10h0l1,4.13A1.16,1.16,0,0,0,4.83,15h.69a1.15,1.15,0,0,0,.91-.44,1.17,1.17,0,0,0,.21-1L5.77,10H6.3a9.66,9.66,0,0,1,2.88.38,7.45,7.45,0,0,1,4.62,3.45.57.57,0,0,0,.49.28l.15,0a.56.56,0,0,0,.42-.54V8.88h0a1.75,1.75,0,0,0,1.55-1.74ZM6.05,13.74a.54.54,0,0,1-.53.67H4.83A.54.54,0,0,1,4.3,14l-1-4h1.8ZM6,9.41h-3A2.35,2.35,0,0,1,3,4.72H6Zm8.27,4-.1-.16A8.27,8.27,0,0,0,9.33,9.81a10.92,10.92,0,0,0-2.68-.4H6.59V4.72h.06a10.92,10.92,0,0,0,2.68-.4A8.23,8.23,0,0,0,14.15.89l.1-.16Zm1.59-6.27a1.15,1.15,0,0,1-.92,1.12l-.06,0V5.86l.06,0A1.15,1.15,0,0,1,15.84,7Z"/></g></g></svg>