<svg xmlns="http://www.w3.org/2000/svg" viewBox="0 0 18 22.07"><defs><style>.cls-1{fill:#fa5;}</style></defs><g id="Layer_2" data-name="Layer 2"><g id="Option_1" data-name="Option 1"><path class="cls-1" d="M9,8.83a3,3,0,1,0-3-3A3,3,0,0,0,9,8.83ZM9,3.68A2.16,2.16,0,1,1,6.81,5.83,2.15,2.15,0,0,1,9,3.68Z"/><path class="cls-1" d="M5.11,16.27h7.72a.39.39,0,0,0,.39-.38V13.65a4.25,4.25,0,1,0-8.5,0v2.24A.38.38,0,0,0,5.11,16.27Zm.38-2.62a3.48,3.48,0,0,1,7,0V15.5H5.49Z"/><rect class="cls-1" x="2.23" y="18.53" width="13.47" height="0.73" rx="0.36"/><path class="cls-1" d="M17.61,0H.39A.38.38,0,0,0,0,.39V21.68a.39.39,0,0,0,.39.39H17.61a.39.39,0,0,0,.39-.39V.39A.38.38,0,0,0,17.61,0Zm-.38,21.3H.77V.77H17.23Z"/></g></g></svg>