<svg xmlns="http://www.w3.org/2000/svg" viewBox="0 0 360.3 251"><defs><style>.cls-1{isolation:isolate;}.cls-2,.cls-9{fill:#75c189;}.cls-19,.cls-2{opacity:0.3;}.cls-3{fill:#eaeaea;mix-blend-mode:multiply;}.cls-4{fill:#fff;}.cls-5{fill:#c2c2c2;}.cls-19,.cls-6{fill:#47294e;}.cls-7{fill:#ccedd4;}.cls-8{fill:#e4e4e0;}.cls-10{fill:#52a064;}.cls-11{fill:#ffbf9d;}.cls-12{fill:#ffa68a;}.cls-13{fill:#ff8984;}.cls-14{fill:#a99b96;}.cls-15{fill:#fff6e7;}.cls-16{fill:#ffebcb;}.cls-17{fill:#f48d70;}.cls-18{fill:#d26d69;}.cls-20{fill:#fa5;}</style></defs><g class="cls-1"><g id="Layer_2" data-name="Layer 2"><g id="Option_1" data-name="Option 1"><path class="cls-2" d="M156.61,243.25C63.27,246.16-33.21,145.76,11.1,84.32,45.46,36.67,103.65,58.59,146,35.13,223.87-8,333.9-16.41,355.26,45.07s-30.21,135.08-59.92,161C253.45,242.59,156.61,243.25,156.61,243.25Z"/><ellipse class="cls-3" cx="181.25" cy="242.62" rx="71.13" ry="8.38"/><polygon class="cls-4" points="202.83 232.46 158.86 232.46 164.49 190.79 197.2 190.79 202.83 232.46"/><polygon class="cls-5" points="197.2 190.79 164.49 190.79 162.38 206.37 199.3 206.37 197.2 190.79"/><rect class="cls-5" x="130.5" y="232.46" width="100.7" height="9.23"/><path class="cls-6" d="M287.37,46.15a8.58,8.58,0,0,0-8.58-8.58H82.9a8.58,8.58,0,0,0-8.58,8.58V171.33H287.37Z"/><rect class="cls-4" x="80.92" y="44.17" width="199.85" height="120.56" rx="1.98"/><path class="cls-7" d="M108.46,164.73A88.76,88.76,0,0,1,94,126.92c-.7-5.36-.59-11.58,3.43-15.19,3.27-2.94,8.19-3.24,11.74-5.83,3-2.21,4.75-5.9,5.35-9.62,1-6.33.1-12.54,2-18.86,2.92-9.55,9.83-20,20.51-21.41,7.67-1,15.12,2.87,21.4,7.38s12.12,9.88,19.33,12.66c8.47,3.25,17.9,2.58,26.88,1.29s18-3.16,27-2.14S250,80.75,253.83,89c5.22,11.09-.83,24.56,2.51,36.36,1.93,6.8,6.79,12.36,9.69,18.81s3.08,16.47-2.66,20.6Z"/><path class="cls-4" d="M74.32,171.33v18.32a8.58,8.58,0,0,0,8.58,8.58H278.79a8.58,8.58,0,0,0,8.58-8.58V171.33Z"/><circle class="cls-5" cx="180.84" cy="185.43" r="5.52"/><path class="cls-5" d="M287.37,171.33h-213v18.32a8.58,8.58,0,0,0,8.58,8.58h6.26V182.87a6.61,6.61,0,0,1,6.6-6.6H287.37Z"/><path class="cls-4" d="M244.24,135.19a29.58,29.58,0,0,0-19.68-22.9l-28.32-9.56-15.4,3.08-15.39-3.08-28.32,9.56a29.58,29.58,0,0,0-19.68,22.9l-5.2,29.54H249.44Z"/><polygon class="cls-8" points="137.81 164.9 132.86 128.29 144.24 164.9 137.81 164.9"/><polygon class="cls-8" points="223.88 164.9 228.83 128.29 217.45 164.9 223.88 164.9"/><path class="cls-8" d="M208.73,140a130,130,0,0,1-14.5.5,98.71,98.71,0,0,1-31.7-6,128.72,128.72,0,0,1-13.32-5.75,50.49,50.49,0,0,0,12.07,8.61,59.22,59.22,0,0,0,33.07,6.24A50,50,0,0,0,208.73,140Z"/><path class="cls-8" d="M208.5,131.67c-4,.6-9.16,1.48-14.34,2s-10.37.87-14.43,1.17a45.21,45.21,0,0,0,28.77-3.21Z"/><path class="cls-8" d="M216.69,148.09c-3.76.78-8,1.72-12.57,2.6s-9.35,1.72-14.2,2.4-9.7,1.18-14.31,1.57-9,.65-12.8.93a66.49,66.49,0,0,0,12.85,1.81,81.47,81.47,0,0,0,14.77-.7,80.61,80.61,0,0,0,14.39-3.37A65.8,65.8,0,0,0,216.69,148.09Z"/><polygon class="cls-8" points="180.84 105.81 165.46 102.73 171.5 122.93 175.69 117.9 177.46 119.22 180.84 119.22 184.23 119.22 186 117.9 190.19 122.93 196.24 102.73 180.84 105.81"/><polygon class="cls-9" points="180.84 105.81 175.69 114.19 178.27 121.53 180.84 121.53 183.42 121.53 186 114.19 180.84 105.81"/><polygon class="cls-9" points="183.42 121.53 180.84 121.53 178.27 121.53 171.5 164.73 180.84 164.73 190.19 164.73 183.42 121.53"/><path class="cls-10" d="M180.84,105.81l.92,1.48-3.54,6.16a2.24,2.24,0,0,0-.18,1.84l.19.54a3.8,3.8,0,0,0,3.59,2.57h2.7l-1.1,3.13h-5.15l-2.58-7.34Z"/><polygon class="cls-4" points="169.03 93.88 180.84 105.81 172.6 119.22 165.46 102.73 169.03 93.88"/><polygon class="cls-4" points="192.66 93.88 180.84 105.81 189.09 119.22 196.24 102.73 192.66 93.88"/><polygon class="cls-10" points="180.84 92.18 169.03 93.88 180.84 105.81 192.66 93.88 180.84 92.18"/><path class="cls-11" d="M171.5,86.94v9.44l9.34,9.43,9.35-9.43V86.94a12.32,12.32,0,0,1-18.69,0Z"/><path class="cls-6" d="M171.5,69.75V86.94a12.32,12.32,0,0,0,18.69,0V69.75Z"/><circle class="cls-12" cx="151.58" cy="61.92" r="9.48"/><circle class="cls-13" cx="151.58" cy="61.92" r="5.85"/><circle class="cls-12" cx="210.11" cy="61.92" r="9.48"/><circle class="cls-13" cx="210.11" cy="61.92" r="5.85"/><path class="cls-11" d="M180.84,15a26.58,26.58,0,0,0-26.57,26.57V58.67a26.58,26.58,0,1,0,53.15,0V41.58A26.58,26.58,0,0,0,180.84,15Z"/><path class="cls-14" d="M194.29,65.14l-.3-.3a10,10,0,0,0-7.05-2.92H174.75a10,10,0,0,0-7.05,2.92l-.3.3a10,10,0,0,0-2.92,7v3.67a9.49,9.49,0,0,0,6,8.82l1.34.53a24.48,24.48,0,0,0,18.09,0l1.34-.53a9.49,9.49,0,0,0,6-8.82V72.19A10,10,0,0,0,194.29,65.14Zm-1,9.62a5,5,0,0,1-3.5,4.79l-5,1.57a3.73,3.73,0,0,1-3.69-.84.48.48,0,0,0-.65,0,3.73,3.73,0,0,1-3.69.84l-5-1.57a5,5,0,0,1-3.5-4.79V71.33a3.79,3.79,0,0,1,3.25-3.75l4.63-.67a7.35,7.35,0,0,0,4.59-2.55,7.4,7.4,0,0,0,4.6,2.55l4.63.67a3.79,3.79,0,0,1,3.25,3.75Z"/><path class="cls-12" d="M174.85,60.27a7.09,7.09,0,0,0,12,0Z"/><path class="cls-4" d="M190.68,68.71a57.51,57.51,0,0,1-19.67.54,9.81,9.81,0,0,0,5,8,10.22,10.22,0,0,0,9.58-.11A10.59,10.59,0,0,0,190.68,68.71Z"/><path class="cls-14" d="M214.8,27.69a5.29,5.29,0,0,0,.09-5.13,5.58,5.58,0,0,0-4.39-2.92,8.61,8.61,0,0,0,.64-8.58,10.75,10.75,0,0,0-6.8-5.53,14.35,14.35,0,0,0-8.88.41A18.37,18.37,0,0,0,181.93,0h-2.17a18.37,18.37,0,0,0-13.53,5.94,14.35,14.35,0,0,0-8.88-.41,10.75,10.75,0,0,0-6.8,5.53,8.61,8.61,0,0,0,.64,8.58,5.58,5.58,0,0,0-4.39,2.92,5.29,5.29,0,0,0,.09,5.13,9,9,0,0,0-5,9.43A10.62,10.62,0,0,0,149,45l1.72,7.37a13.09,13.09,0,0,0,3.51,6.29V47.56a6,6,0,0,1,1.73-4.2l2.11-2.1a6.71,6.71,0,0,0,2-4.73V30.36a7.53,7.53,0,0,1,3.07-6.07l3.58-2.63a4,4,0,0,1,4.85.12l1.13.92a7.79,7.79,0,0,0,4.94,1.76h6.41A7.79,7.79,0,0,0,189,22.7l1.13-.92a4,4,0,0,1,4.85-.12l3.58,2.63a7.53,7.53,0,0,1,3.07,6.07v6.17a6.71,6.71,0,0,0,2,4.73l2.11,2.1a6,6,0,0,1,1.73,4.2V58.67a13.09,13.09,0,0,0,3.51-6.29L212.65,45a10.64,10.64,0,0,0,7.2-7.89A9,9,0,0,0,214.8,27.69Z"/><path class="cls-14" d="M168.68,39.43a10.52,10.52,0,0,0-7.83,5.19l16.7-2.08A10.55,10.55,0,0,0,168.68,39.43Z"/><ellipse cx="169.14" cy="49.39" rx="2.23" ry="3.58"/><path class="cls-14" d="M193,39.43a10.52,10.52,0,0,1,7.83,5.19l-16.7-2.08A10.55,10.55,0,0,1,193,39.43Z"/><ellipse cx="192.55" cy="49.39" rx="2.23" ry="3.58"/><path class="cls-12" d="M174.85,54.35a17.31,17.31,0,0,0-10.56,0A17.46,17.46,0,0,0,174.85,54.35Z"/><path class="cls-12" d="M186.83,54.35a17.34,17.34,0,0,1,10.57,0A17.49,17.49,0,0,1,186.83,54.35Z"/><polygon class="cls-15" points="115.71 110.97 117.11 108.5 145.49 101.28 148.09 104.45 115.71 110.97"/><polygon class="cls-15" points="115.71 110.97 96.97 89.98 102.82 89.3 117.11 108.5 115.71 110.97"/><polygon class="cls-16" points="96.97 89.98 96.97 95.07 115.71 110.97 96.97 89.98"/><polygon class="cls-16" points="148.09 104.45 147.81 106.81 115.71 110.97 148.09 104.45"/><polygon class="cls-17" points="115.71 110.97 93.56 92.18 93.56 141 112.25 157.69 115.71 110.97 115.71 110.97"/><polygon class="cls-18" points="115.71 110.97 112.25 157.69 112.25 157.69 144.24 156.82 149.84 106.55 115.71 110.97"/><path class="cls-19" d="M107,153l-2.2-30h0a3.8,3.8,0,0,1,3.75,3.14l.8,4.46,2.92-11.31h0a4.85,4.85,0,0,1,4.1,4.92l-.23,8.74,4.17-7.69h0a4,4,0,0,1,2.75,4.35l-1.16,8.9,4.3-6.34h0a3.87,3.87,0,0,1,2.24,4.17l-2.06,12.47,1,8.54-15.1.42Z"/><path class="cls-11" d="M109.06,159.94,104,143.13,102.82,125a2,2,0,0,1,2-2.08h0a1.94,1.94,0,0,1,1.93,1.69l1.92,14.22,1.48-17.65a2.15,2.15,0,0,1,2.14-2h0a2.15,2.15,0,0,1,2.15,2.15v18.3l3.26-12.91a2.17,2.17,0,0,1,2.63-1.57h0a2.17,2.17,0,0,1,1.63,2.36L120,143.13l4-10a1.73,1.73,0,0,1,2.16-1h0a1.75,1.75,0,0,1,1.16,2l-2.55,14.69.3,5.82a15.23,15.23,0,0,1-1.51,7.42h0l-2.58.51a15.42,15.42,0,0,1-11.93-2.55Z"/><path class="cls-8" d="M109.06,159.94h0A15.42,15.42,0,0,0,121,162.49l2.58-.51.44,2.75h-15Z"/><path class="cls-20" d="M231.1,97.73l9.2-15.6a13.14,13.14,0,0,1-1-5.07V44.19A13.2,13.2,0,0,1,252.48,31h48.79a13.2,13.2,0,0,1,13.19,13.19V77.06a13.19,13.19,0,0,1-13.19,13.19H252.48a13.18,13.18,0,0,1-6.13-1.51Z"/><rect class="cls-4" x="251.91" y="48.67" width="49.14" height="5.41"/><rect class="cls-4" x="251.91" y="58.72" width="30.53" height="5.41"/><rect class="cls-4" x="251.91" y="68.77" width="37.58" height="5.41"/><rect class="cls-20" x="8.2" y="80.49" width="77.83" height="45.78" rx="10"/><circle class="cls-4" cx="47.11" cy="103.38" r="12.01" transform="translate(-35.98 25.9) rotate(-22.5)"/><polygon class="cls-20" points="55.03 103.38 42.5 96.14 42.5 110.62 55.03 103.38"/></g></g></g></svg>