<svg xmlns="http://www.w3.org/2000/svg" viewBox="0 0 51.53 31.75"><defs><style>.cls-1{fill:#fa5;}</style></defs><g id="Layer_2" data-name="Layer 2"><g id="Option_1" data-name="Option 1"><path class="cls-1" d="M51.53,26.91V7.62a.83.83,0,0,0-.82-.83H35.23v-6A.83.83,0,0,0,34.4,0H.83A.83.83,0,0,0,0,.83V20.12a.83.83,0,0,0,.83.82H16.3V23.3H11.09a.83.83,0,0,0,0,1.65H16.3v2a.83.83,0,0,0,.83.82h16V30.1H27.4a.83.83,0,1,0,0,1.65h13a.83.83,0,0,0,0-1.65h-5.7V27.73h16A.82.82,0,0,0,51.53,26.91ZM16.3,7.62V19.29H1.65V1.65H33.58V6.79H17.13A.83.83,0,0,0,16.3,7.62ZM49.88,26.08H18V8.44H49.88Z"/></g></g></svg>