<svg xmlns="http://www.w3.org/2000/svg" xmlns:xlink="http://www.w3.org/1999/xlink" viewBox="0 0 281.12 193.05"><defs><style>.cls-1{isolation:isolate;}.cls-2{fill:#46c7ce;opacity:0.25;}.cls-3{mix-blend-mode:multiply;}.cls-4{fill:#eaeaea;}.cls-5{fill:#37202b;}.cls-6{fill:#d0887d;}.cls-7{fill:#fff;}.cls-8{clip-path:url(#clip-path);}.cls-10,.cls-11,.cls-12,.cls-14,.cls-15,.cls-16,.cls-18,.cls-19,.cls-9{fill:none;}.cls-10,.cls-11,.cls-14,.cls-9{stroke:#fff;}.cls-10,.cls-11,.cls-12,.cls-14,.cls-15,.cls-16,.cls-19,.cls-9{stroke-linecap:round;stroke-linejoin:round;}.cls-9{stroke-width:0.73px;}.cls-10{stroke-width:0.72px;}.cls-11{stroke-width:0.7px;}.cls-12,.cls-15{stroke:#000;}.cls-12{stroke-width:0.5px;}.cls-13{clip-path:url(#clip-path-2);}.cls-14{stroke-width:0.79px;}.cls-15,.cls-16{stroke-width:0.82px;}.cls-16{stroke:#ead9dd;}.cls-17{fill:#a15342;}.cls-18{stroke:#f1ad2d;stroke-miterlimit:10;stroke-width:0.75px;}.cls-19{stroke:#a15342;stroke-width:0.48px;}.cls-20{opacity:0.8;}.cls-21{fill:#ff6b4d;}.cls-22{fill:#13242c;}.cls-23{fill:#f98c6a;}.cls-24{fill:#3f5576;}.cls-25{fill:#d24942;}.cls-26{fill:#881f0b;}.cls-27{fill:#f0ebe6;}.cls-28{fill:#0b6163;}.cls-29{fill:#043133;}.cls-30{fill:#c35f49;}.cls-31{fill:#ff8368;}.cls-32{fill:#ff6b53;}.cls-33{fill:#3938a8;}.cls-34{fill:#fa5;}.cls-35{fill:#db8038;}.cls-36{fill:#6a4d5d;}.cls-37{fill:#ff9217;}.cls-38{fill:#2d4f8a;}</style><clipPath id="clip-path"><path d="M50.69,183l-.4-6.27s-1.64-2.82-5.63-.36a16.78,16.78,0,0,1-2.21,3.91A19.5,19.5,0,0,0,40.19,183Z"/></clipPath><clipPath id="clip-path-2"><path d="M65.24,176.89a5.81,5.81,0,0,0,5.27,0,1.93,1.93,0,0,1,3.08-1,13.25,13.25,0,0,0,6.5,3.71c5.39,1.1,5.63,3.6,5.63,3.6H63.61a50,50,0,0,1,.44-5.55A.87.87,0,0,1,65.24,176.89Z"/></clipPath></defs><g class="cls-1"><g id="Layer_2" data-name="Layer 2"><g id="Option_1" data-name="Option 1"><path class="cls-2" d="M145.45,193.05c-79.54,0-114.23-23.64-114.23-23.64s-52-24.8-21.8-89.61c24-51.58,110-93.77,152.25-75.44s38.41,41.53,84.78,75.09,35.64,60.21,27.34,73.7C273.79,153.15,247.93,193.05,145.45,193.05Z"/><g class="cls-3"><ellipse class="cls-4" cx="151.41" cy="184.25" rx="123.59" ry="3.67"/></g><path class="cls-5" d="M53.19,71.73c-3.69-.67-6.8,1.65-7.75,5.28a68.91,68.91,0,0,0-2,13.48,249.35,249.35,0,0,0,.14,30.72,6,6,0,0,0,5.78,5.45h0a6,6,0,0,0,6.08-5.29l3.72-41.79a7.14,7.14,0,0,0-5.85-7.83Z"/><polygon class="cls-6" points="44.88 177.65 44.83 160.57 51.5 160.82 50.06 178.53 44.88 177.65"/><path class="cls-7" d="M40.19,183a4,4,0,0,0-.6,2.48h11.1V183Z"/><path d="M50.69,183l-.4-6.27s-1.64-2.82-5.63-.36a16.78,16.78,0,0,1-2.21,3.91A19.5,19.5,0,0,0,40.19,183Z"/><g class="cls-8"><path class="cls-7" d="M51.09,183.66s-.18-2.78-5.11-2.78-6.32,2.69-6.32,2.69l12.24.09"/></g><path class="cls-9" d="M45,179.75a3.53,3.53,0,0,1,3.41.11"/><path class="cls-10" d="M45.26,178.7a3.3,3.3,0,0,1,3.29.11"/><path class="cls-11" d="M45.62,177.65a3,3,0,0,1,3.09.1"/><line class="cls-12" x1="50.69" y1="182.99" x2="40.19" y2="182.99"/><path class="cls-5" d="M55.37,121l-2.86,50.75-9.86.15.89-51.39a5.93,5.93,0,0,1,6.07-5.67h0A5.93,5.93,0,0,1,55.37,121Z"/><path class="cls-5" d="M65.73,71.67c3.7-.57,5.94,1.83,6.79,5.48a68.4,68.4,0,0,1,1.64,13.53,248.64,248.64,0,0,1-1,30.7,6,6,0,0,1-5.92,5.31h0a6,6,0,0,1-5.93-5.45L59.55,79.36a7.15,7.15,0,0,1,6-7.67Z"/><polygon class="cls-6" points="65.62 179.33 64.89 162.26 71.94 162.26 71.11 180.02 65.62 179.33"/><path d="M65.24,176.89a5.81,5.81,0,0,0,5.27,0,1.93,1.93,0,0,1,3.08-1,13.25,13.25,0,0,0,6.5,3.71c5.39,1.1,5.63,3.6,5.63,3.6H63.61a50,50,0,0,1,.44-5.55A.87.87,0,0,1,65.24,176.89Z"/><g class="cls-13"><path class="cls-7" d="M80.85,178.78s-2.45,1.13-3.58,5.59l9.18-.37S86.7,179.91,80.85,178.78Z"/></g><rect class="cls-7" x="63.61" y="183.12" width="22.12" height="2.5"/><path class="cls-14" d="M78,178.84s-.87,0-1.54,1.18"/><path class="cls-14" d="M76.85,178.26s-.87,0-1.54,1.17"/><path class="cls-14" d="M75.73,177.56a2,2,0,0,0-1.55,1.17"/><line class="cls-12" x1="77.22" y1="183.03" x2="85.72" y2="183.03"/><path class="cls-5" d="M61.44,120.84l1.79,50.81H73.1l.18-51a5.91,5.91,0,0,0-5.92-5.82h0A5.92,5.92,0,0,0,61.44,120.84Z"/><path class="cls-5" d="M67,64.82H51.73s-3.9,2.8-6.08,11.52l11.52,6.57a4.2,4.2,0,0,0,4.35,0L72.26,76.3C69.92,67.83,67,64.82,67,64.82Z"/><line class="cls-15" x1="63.93" y1="83.52" x2="58.62" y2="83.52"/><path class="cls-15" d="M53.81,67.7s-.3,5.17-4.77,6.47"/><path class="cls-15" d="M66.78,67.81A10.15,10.15,0,0,0,71,74.28"/><path class="cls-6" d="M70.65,65l6.73,24,2.74-.28s-1.9-15.41-3.53-24.92a3.26,3.26,0,0,0-3.74-2.28h0A3.13,3.13,0,0,0,70.65,65Z"/><path class="cls-6" d="M77.17,87.49a7.38,7.38,0,0,0-.38,5.79l-.6,3.18a1.06,1.06,0,0,0,.6,1.18h0a.92.92,0,0,0,1.2-.56l.66-1.81.1.68a5.11,5.11,0,0,1-.48,3.11l-1.38,2.68a1,1,0,0,0,0,1h0a.86.86,0,0,0,1.48.09l2.22-3.25a5.77,5.77,0,0,0,.85-4.43l-1.75-8.35Z"/><path class="cls-6" d="M76.63,64.08,73.26,46.37l-6.86,2,4.35,17a3,3,0,0,0,3.64,2.18h0A3,3,0,0,0,76.63,64.08Z"/><path class="cls-7" d="M65.25,55.64l11.43-2.35L74.06,40.52A5.84,5.84,0,0,0,67.17,36h0a5.84,5.84,0,0,0-4.55,6.89Z"/><path class="cls-7" d="M58.93,31.94,46,37.16a1.87,1.87,0,0,0-1.08,2.24l6.9,23.09H67.07s3.37-18,4.78-24a1.87,1.87,0,0,0-1.16-2.24Z"/><path class="cls-6" d="M50,35.56l8.93-3.62,7.81,2.85s2.25,4.4-4.67,5C53.39,40.47,50,35.56,50,35.56Z"/><rect x="51.73" y="62.49" width="15.26" height="2.33"/><line class="cls-16" x1="68.51" y1="54.94" x2="70.27" y2="45.97"/><path class="cls-6" d="M46.27,65.84l-6.74,24-2.74-.29s1.91-15.41,3.53-24.91a3.28,3.28,0,0,1,3.75-2.29h0A3.15,3.15,0,0,1,46.27,65.84Z"/><path class="cls-6" d="M39.75,88.35a7.37,7.37,0,0,1,.38,5.78l.6,3.19a1,1,0,0,1-.61,1.17h0a.9.9,0,0,1-1.19-.55l-.66-1.82-.11.68a5.13,5.13,0,0,0,.49,3.12L40,102.6a1,1,0,0,1,0,1h0a.86.86,0,0,1-1.48.09l-2.23-3.26A5.74,5.74,0,0,1,35.45,96l1.75-8.35Z"/><path class="cls-6" d="M40.28,64.94l3.37-17.72,6.87,2.05-4.36,17a3,3,0,0,1-3.63,2.18h0A3,3,0,0,1,40.28,64.94Z"/><path class="cls-7" d="M51.67,56.49,40.24,54.14l2.62-12.77a5.83,5.83,0,0,1,6.89-4.54h0a5.83,5.83,0,0,1,4.54,6.89Z"/><polyline class="cls-16" points="53.25 48.17 51.48 56.5 49.94 56.13"/><path d="M61.25,8.23a5.15,5.15,0,0,1,5.4,1c2.47,2.32.73,3.87,2.9,5s.59,4.33,3.13,5.78.86,5-1.75,5.53c0,0-1.25,3.31-4,3,0,0-2.54,2.83-7.51,1l-1.82-.75Z"/><path d="M51.2,9.2s-3.3.43-3.94,3.36S46.85,14.8,45,16.29s.48,3.18-1,4.68a3.43,3.43,0,0,0-1.15,2.1,2.63,2.63,0,0,0,2,2.74,3.54,3.54,0,0,1,2,2.1c1,2.14,4.51,1.21,4.51,1.21s3.33,1.94,5.37.5-1-21.27-1-21.27Z"/><path d="M64.13,8.39S62.79,5.31,58,5.31,51.68,10,51.68,10l7,3.82Z"/><path class="cls-17" d="M64.68,19.32c-.45,1-.41,2.63.54,3s2.1-.93,2.55-1.94A1.51,1.51,0,0,0,67,18.12,1.83,1.83,0,0,0,64.68,19.32Z"/><path class="cls-18" d="M64.66,25a2.17,2.17,0,0,0,1.42.76,2.14,2.14,0,0,0,.46-4.26"/><path class="cls-6" d="M53.57,19.32c.45,1,.84,2.49-.54,3-1,.35-2.09-.93-2.54-1.94a1.51,1.51,0,0,1,.77-2.24A1.83,1.83,0,0,1,53.57,19.32Z"/><path class="cls-19" d="M51.24,19.33s1.16-.31,1.6,1.28"/><path class="cls-18" d="M55.07,24.33a2.14,2.14,0,1,1-2.24-2.87"/><path d="M67.91,15.44A7.84,7.84,0,0,1,60,23.16c-4.39,0-8.41-3.63-8.41-7.89s4-7.55,8.41-7.55A7.84,7.84,0,0,1,67.91,15.44Z"/><polygon class="cls-6" points="56.98 24.84 55.97 34.47 61.96 34.47 60.92 24.74 56.98 24.84"/><polygon class="cls-17" points="56.84 26.03 61.5 30.15 60.99 25.3 56.84 26.03"/><path class="cls-6" d="M60.06,8.62h0c-3.72,0-7,2.88-7,6.43l.21,4.26s.08,6,5.81,7.87a3.28,3.28,0,0,0,2,0c5.73-1.84,5.81-7.87,5.81-7.87l.21-4.26C67.06,11.5,63.78,8.62,60.06,8.62Z"/><path d="M64.33,8.39a4.59,4.59,0,0,1-4.12,3.9c-3.87.54-3,2.8-7.73,2.26a3.9,3.9,0,0,1,.82-5,10.34,10.34,0,0,1,7.25-2.84C61.34,6.78,63.2,8.16,64.33,8.39Z"/><path d="M63.84,8.62s-2.41,2.43,4.26,6.82a4.62,4.62,0,0,0-.43-2.79C67,11.23,63.84,8.62,63.84,8.62Z"/><g class="cls-20"><path class="cls-21" d="M58.52,20.72c0,.33-.68.6-1.53.6s-1.54-.27-1.54-.6.69-.61,1.54-.61S58.52,20.38,58.52,20.72Z"/></g><g class="cls-20"><path class="cls-21" d="M65.75,20.72c0,.33-.59.6-1.32.6s-1.31-.27-1.31-.6.59-.61,1.31-.61S65.75,20.38,65.75,20.72Z"/></g><path class="cls-5" d="M58.57,18.88c0,.46-.2.83-.46.83s-.47-.37-.47-.83.21-.83.47-.83S58.57,18.42,58.57,18.88Z"/><path class="cls-5" d="M63.12,18.88c0,.46-.21.83-.47.83s-.46-.37-.46-.83.21-.83.46-.83S63.12,18.42,63.12,18.88Z"/><path class="cls-5" d="M56.17,16.77a1.93,1.93,0,0,1,2.06-1.47.42.42,0,0,1,.41.3h0a.4.4,0,0,1-.31.51,1.82,1.82,0,0,0-1.35,1,.41.41,0,0,1-.58.15l0,0A.41.41,0,0,1,56.17,16.77Z"/><path class="cls-5" d="M64.12,16.77c-.1-.49-.51-1.4-2.06-1.47a.42.42,0,0,0-.41.3h0a.41.41,0,0,0,.32.51,1.82,1.82,0,0,1,1.35,1,.39.39,0,0,0,.57.15l0,0A.39.39,0,0,0,64.12,16.77Z"/><path class="cls-5" d="M58.37,22.11a4.9,4.9,0,0,0,3.07,1.46A2.87,2.87,0,0,0,63.16,23a.18.18,0,0,0,.05-.26.2.2,0,0,0-.27,0c-2.08,1.48-4.27-.82-4.29-.84a.19.19,0,1,0-.28.26"/><path class="cls-5" d="M60.68,21.19a1.62,1.62,0,0,0,1.52-.82.18.18,0,0,0,0-.16C61.43,18.63,60.65,17,60.64,17a.19.19,0,0,0-.34.16l1.51,3.14a1.32,1.32,0,0,1-1.13.52.19.19,0,1,0,0,.38Z"/><path class="cls-22" d="M129.58,44.83c-.73-.46-1.5-.9-2.29-1.33-1.49,2.73-3.15,5.36-4.78,8l.2.15c4.58,3.38,12.07,7.77,15.17,5.45S136.71,49.26,129.58,44.83Z"/><path class="cls-23" d="M119,37.11s7.3,5.83,9.21,6.92c-1.16,3.3-3.14,7.61-4.32,8.49,0,0-5.93-4.18-8.28-7.79S119,37.11,119,37.11Z"/><path class="cls-22" d="M136,57.55s3.31.64,5.9-6.78,7.35-14.1,4.94-17.69-3.69.63-7.55,6.59C135.55,45.37,126.88,55.5,136,57.55Z"/><path class="cls-22" d="M142.27,32.71a7.76,7.76,0,0,1-.37-3.48,27.63,27.63,0,0,1,1-3.74c.26-.51,1.58.13,1.09,2.54A19,19,0,0,1,142.27,32.71Z"/><path class="cls-22" d="M150.75,31.88s1.43-2.42,1.73-3.07c1.17-2.54-.28-2.24-.93-1.26-.19.28-2,3.47-2,3.47Z"/><path class="cls-22" d="M149.51,30.49s1.56-2.64,1.89-3.36c1.28-2.78-.31-2.45-1-1.37-.21.31-2.22,3.8-2.22,3.8Z"/><path class="cls-22" d="M148.22,29s1.61-3.09,1.94-3.92c1.29-3.24-.36-2.65-1.11-1.38-.21.36-2.48,4.58-2.48,4.58Z"/><path class="cls-22" d="M145.85,29s1.62-3.09,2-3.93c1.28-3.23-.37-2.65-1.12-1.38-.21.36-2.48,4.58-2.48,4.58Z"/><path class="cls-24" d="M143.93,27.68l.09-.1a3.93,3.93,0,0,1,.46-.5l.12-.1a.52.52,0,0,1,.23-.11,7.88,7.88,0,0,1,1.94.56l.13.05a18.71,18.71,0,0,1,1.73.79l.11.05a10.11,10.11,0,0,1,1.62,1.07.39.39,0,0,1,.1.08,2.78,2.78,0,0,1,.83,1.09,1.82,1.82,0,0,1,.05.82.41.41,0,0,1,0,.11h0A14.53,14.53,0,0,1,149,36.22a1.77,1.77,0,0,1-2,.67c-1.8-.63-4.87-1.93-5.16-3.51a3.49,3.49,0,0,1,0-1.07l0-.1A11.68,11.68,0,0,1,143.93,27.68Z"/><path class="cls-22" d="M143.93,27.68l.09-.1a4.63,4.63,0,0,1-.23,3.26,2.22,2.22,0,0,1-2,1.47l0-.1a2.11,2.11,0,0,0,1.9-1.41A4.51,4.51,0,0,0,143.93,27.68Z"/><path class="cls-22" d="M144.48,27.08l.12-.1a1.11,1.11,0,0,0,.42,1.21.81.81,0,0,0,.67.12,2.21,2.21,0,0,0,1.08-.88l.13.05c-.14.39-.42,1.37.13,1.68s1.25-.48,1.6-.89l.11.05a2.07,2.07,0,0,0-.46,1.31.63.63,0,0,0,.31.42c.77.43,1.57-.42,1.77-.66a.39.39,0,0,1,.1.08c-.15.3-.62,1.33-.18,1.78a1,1,0,0,0,1.06.13.41.41,0,0,1,0,.11h0a1,1,0,0,1-1.13-.18c-.4-.41-.15-1.2,0-1.65a1.46,1.46,0,0,1-1.7.47.69.69,0,0,1-.36-.49,1.59,1.59,0,0,1,.21-1c-.4.41-1,.82-1.41.57s-.4-1.11-.25-1.6a2,2,0,0,1-1,.75.93.93,0,0,1-.76-.13A1.17,1.17,0,0,1,144.48,27.08Z"/><path class="cls-24" d="M131.61,50.77a4.62,4.62,0,1,1,1.75,6.3A4.63,4.63,0,0,1,131.61,50.77Z"/><path class="cls-22" d="M133.39,51.78a2.58,2.58,0,1,1,1,3.51A2.58,2.58,0,0,1,133.39,51.78Z"/><path class="cls-24" d="M134.51,52.41a1.29,1.29,0,1,1,.49,1.76A1.29,1.29,0,0,1,134.51,52.41Z"/><polygon class="cls-23" points="105.79 168.07 105.5 174.84 98.61 174.97 99.11 168.61 105.79 168.07"/><path class="cls-25" d="M97.05,182.61v.16c0,.24,0,.45,0,.64,0,.4,0,.65,0,.65H110.5a7.19,7.19,0,0,0,0-1.29,6.68,6.68,0,0,0-2.39-5c-2.53-1.95-1.55-1.55-2.07-2.44-.06-.1-.51-1.61-.56-1.71-.44-.93-.84-1.37-3.23-1.37-3.18,0-3.46,1.55-3.8,2.36a15.19,15.19,0,0,0-.53,1.88c-.08.34-.16.7-.24,1.07-.19.92-.38,1.88-.5,2.65A14.12,14.12,0,0,0,97.05,182.61Z"/><path class="cls-26" d="M97.05,182.61v.16c0,.24,0,.45,0,.64a3.83,3.83,0,0,0,1.39-1.81c.82-2.25-.45-4.95-.5-5.07h0c-.08.34-.16.7-.24,1.07a6.11,6.11,0,0,1,.17,3.78A3.17,3.17,0,0,1,97.05,182.61Z"/><path class="cls-26" d="M97.05,182.77c0,.76.08,1.29.08,1.29H110.5a7.19,7.19,0,0,0,0-1.29Z"/><path class="cls-27" d="M101.83,176.47h.09a6.49,6.49,0,0,1,3.1-.06.4.4,0,0,0,.47-.27.38.38,0,0,0-.27-.47,7.27,7.27,0,0,0-3.49.06.38.38,0,0,0,.1.75Z"/><path class="cls-27" d="M101.61,174.93h.09a6.49,6.49,0,0,1,3.1-.06.39.39,0,0,0,.47-.27.38.38,0,0,0-.26-.47,7.33,7.33,0,0,0-3.5.06.38.38,0,0,0,.1.75Z"/><path class="cls-27" d="M102.4,177.68h.09a6.75,6.75,0,0,1,3.1-.07.38.38,0,0,0,.21-.73,7.33,7.33,0,0,0-3.5.06.38.38,0,0,0-.27.46A.37.37,0,0,0,102.4,177.68Z"/><path class="cls-27" d="M103.07,179.05h.1a6.53,6.53,0,0,1,3.1-.06.38.38,0,0,0,.2-.74,7.33,7.33,0,0,0-3.5.06.39.39,0,0,0-.27.47A.38.38,0,0,0,103.07,179.05Z"/><path class="cls-28" d="M112.52,124.62c-.43,8.27-6.31,45-6.31,45l-7.91-.56s-.58-13.66-1-25.12,1.09-18,1.09-18,.86-2.58.2-9.29c-.54-5.55-2.44-23.24-3.22-29.14-.16-1.19-.25-1.88-.25-1.88s12.41-3.5,15.54.42a3.09,3.09,0,0,1,.55,1,34.19,34.19,0,0,1,.87,4.56C113.34,100.75,112.88,117.83,112.52,124.62Z"/><path class="cls-29" d="M107.87,123.59a6.27,6.27,0,0,0,4.52-.17.35.35,0,0,0,.16-.48.34.34,0,0,0-.47-.16,5.67,5.67,0,0,1-4.13.09.35.35,0,0,0-.25.66A.58.58,0,0,0,107.87,123.59Z"/><path class="cls-29" d="M98.19,166.61c0,.16,0,.32,0,.47H99.4l7.29-.06.09-.46-7.34.06H98.19Z"/><path class="cls-29" d="M98.93,166.6v.32a.24.24,0,0,0,0,.15h.43a.25.25,0,0,0,0-.13v-.33c0-2.7.22-21.22.12-27.09a153.59,153.59,0,0,1,1.28-16.08v-.05c-.91-10.11-3.46-36-3.48-36.27a.26.26,0,1,0-.51,0c0,.26,2.56,26.11,3.47,36.23-.07.61-1.35,10.81-1.27,16.12C99.15,145.39,99,163.94,98.93,166.6Z"/><path class="cls-25" d="M107.24,10.69s.58-5.44-4.93-4.6-6.4,8.16-.71,9.56S107.24,10.69,107.24,10.69Z"/><path class="cls-25" d="M107.7,9.94s-5.21-1.63-7.75,2.22c-2.16,3.26-1.11,5.53-2.09,7.33s-3.08,1.8-2.73,4.79-2.81,2.07-3,5.11S93.5,33,91.27,34.1,86.6,39.66,88.62,42c2.89,3.38,12.56-2.46,18,1.11s12,2.36,11.84-.52-3.77-4.6-2.24-6.68S119,31,117.56,28.3s-.69-2.35-.2-5.19A25.35,25.35,0,0,0,117.1,17c-.24-2.43-.3-3.42-2.51-5.29A7.23,7.23,0,0,0,107.7,9.94Z"/><path class="cls-27" d="M98.92,14.4l-.08,0a.23.23,0,0,1-.12-.31c0-.06,2.59-5.83,8.62-4.46a.23.23,0,0,1,.18.28.24.24,0,0,1-.28.17c-5.65-1.27-8,4-8.09,4.2A.24.24,0,0,1,98.92,14.4Z"/><path class="cls-24" d="M94.67,68.37s0,1.64,2.21,1.77l22.49-2.58a2.56,2.56,0,0,0,.85-2.82S110,60.84,94.67,68.37Z"/><path class="cls-23" d="M120.73,75.62A52.71,52.71,0,0,1,96.25,77a36.12,36.12,0,0,0,.62-5.55c.09-2.08,0-3.89,0-4.85,4.9-1,16.93-3.32,21.84-2.9l.32,1.9Z"/><path class="cls-30" d="M110.4,69.22c0,.61-.2,1.1-.45,1.11s-.46-.5-.47-1.11.2-1.11.46-1.11S110.4,68.6,110.4,69.22Z"/><path class="cls-30" d="M119,65.57c-5,.43-14.74,1.78-22.16,5.85.09-2.08,0-3.89,0-4.85,4.9-1,16.93-3.32,21.84-2.9Z"/><path class="cls-22" d="M123.08,56a11.72,11.72,0,0,1-2.41,3.82l-.29.3-.38.39-.23.21v0c0,.09,0,.18,0,.28,0,.37.07.81.12,1.31s.1.84.16,1.31.09.72.14,1.1a13.54,13.54,0,0,0-2-.4l-.38,0a26.74,26.74,0,0,0-4.57,0l-.37,0c-6.68.55-14.42,2.84-18.17,4.06,0-.28,0-.56,0-.83l0-.59a45.2,45.2,0,0,0-.15-5.73c0-.14,0-.29,0-.44a62.61,62.61,0,0,0-2.07-9.57c-.08-.25-.15-.49-.22-.74L92.1,50c-.37-1.19-.76-2.37-1.19-3.51-.14-.39-.27-.79-.39-1.18s-.26-.88-.36-1.32a14.22,14.22,0,0,1-.38-3.24,6.56,6.56,0,0,1,1.68-4.69,6,6,0,0,1,2.69-1.5l1.1-.29c1.12-.29,2.15-.53,3-.72l.76-.16,1.24-.25.16,0,10.53,1.44,1,.13c.43.07.83.14,1.21.22q1.39.26,2.43.54a11.91,11.91,0,0,1,2.11.77c2.45,1.25,2.37,3.08,2.84,6.59a1.1,1.1,0,0,1,0,.18.15.15,0,0,1,0,.06l.12.8c.06.33.12.65.19,1,.14.66.3,1.31.46,1.94.67,2.56,1.5,4.9,1.81,6.76,0,.22.06.44.08.64A4.51,4.51,0,0,1,123.08,56Z"/><path class="cls-23" d="M120.67,43.83c-5.44-1.38-7.1-6.9-7.53-8.95.93.18,1.74.36,2.43.55a11.91,11.91,0,0,1,2.11.77c2.45,1.25,2.37,3.07,2.84,6.59,0,.06,0,.12,0,.18s0,0,0,.06Z"/><path class="cls-24" d="M110.93,34.54c-.44,1-1.46,2.12-3.85,2.3-3.29.25-5.9-2.54-6.84-3.71l.15,0Z"/><path class="cls-24" d="M104.36,61.37a.23.23,0,0,0,.2.13.23.23,0,0,0,.12,0,14.13,14.13,0,0,1,8.93-.85,15.25,15.25,0,0,0,6.18.39c0-.1,0-.19,0-.28v0l.23-.21a14.63,14.63,0,0,1-6.27-.35,14.38,14.38,0,0,0-9.27.89A.24.24,0,0,0,104.36,61.37Z"/><path class="cls-22" d="M109.05,62.06l-1.26.62-1.24.58c-.78.36-1.56.7-2.35,1l-.17.07-.18.08c-.79.33-1.58.65-2.38,1L99.8,66l-.41.14-.57.2c-.9.31-1.82.59-2.79.85-.42.11-.86.22-1.32.32l-.17,0c-.5.11-1,.2-1.58.28h-.07l-.38,0a12.25,12.25,0,0,1-1.67.06l-.32,0-.34,0-.37,0-.42-.09-.21,0-.25-.07-.24-.08-.06,0-.07,0-.08,0h0l-.06,0-.3-.13a6.13,6.13,0,0,1-.93-.53c-.11-.09-.23-.17-.34-.27l-.16-.13a1.37,1.37,0,0,1-.17-.17,3.89,3.89,0,0,1-.34-.36L86,65.71l-.15-.21a5,5,0,0,1-.5-.9,4.59,4.59,0,0,1-.32-.92,4.94,4.94,0,0,1-.14-.86c0-.13,0-.26,0-.39v-.27l0-.46,0-.46c0-.14,0-.31,0-.43l0-.27,0-.48h0c.06-.51.13-1,.19-1.44l.11-.7.11-.68c0-.28.08-.56.13-.83l.06-.37.27-1.51q.5-2.67,1-5.3l.24-1.13c0-.12,0-.25.08-.37l.48-2.13c.12-.54.24-1.08.37-1.62.41-1.74.82-3.47,1.28-5.21a4.53,4.53,0,0,1,8.39-.95h0a4.56,4.56,0,0,1,.44,3v0c-.69,3.44-1.44,6.9-2.17,10.32l-.54,2.58c-.19.85-.36,1.7-.53,2.55l-.47,2.36c.6-.13,1.21-.28,1.82-.44q1.2-.3,2.43-.66c.81-.24,1.63-.48,2.45-.74s1.64-.51,2.46-.78l2.43-.79.11,0a3.72,3.72,0,0,1,2.8,6.87Z"/><path class="cls-24" d="M101.45,65.64a.23.23,0,0,1-.06-.44A35.2,35.2,0,0,0,109,61.55a.22.22,0,0,1,.31.07.22.22,0,0,1-.06.31,36.12,36.12,0,0,1-7.74,3.7Z"/><path class="cls-24" d="M95.6,58.49a.23.23,0,0,1-.16-.08.23.23,0,0,1,0-.2c.76-2.89,1.55-7.36,2.13-10.62.23-1.26.42-2.35.58-3.19a.23.23,0,0,1,.27-.18.24.24,0,0,1,.18.27c-.17.83-.36,1.92-.58,3.18C97.39,51,96.66,55.11,95.92,58c1.39-.17,6.79-.87,9-1.77a.23.23,0,0,1,.18.42c-2.55,1.06-9.13,1.81-9.41,1.84Z"/><path class="cls-24" d="M92.77,60.07A.21.21,0,0,1,92.6,60a.24.24,0,0,1,.05-.32,18.73,18.73,0,0,1,2.27-1.31,11.11,11.11,0,0,0-1.85,0,.24.24,0,0,1-.25-.2.23.23,0,0,1,.21-.25,7.93,7.93,0,0,1,2.67.15.2.2,0,0,1,.14.2.23.23,0,0,1-.13.21A21.49,21.49,0,0,0,92.92,60,.21.21,0,0,1,92.77,60.07Z"/><path class="cls-24" d="M97.92,46.89a.26.26,0,0,1-.17-.09.23.23,0,0,1,0-.32l1.67-1.32a.22.22,0,1,1,.28.35l-1.67,1.33A.3.3,0,0,1,97.92,46.89Z"/><path class="cls-23" d="M97.83,37.81h0c-.72,3-2.59,6.47-7.31,7.49a14.11,14.11,0,0,1-2.73.29c.12-.54.24-1.08.37-1.62.41-1.74.82-3.47,1.28-5.21a4.54,4.54,0,0,1,2-2.71,5.9,5.9,0,0,1,2.68-1.5l1.1-.29c1.12-.29,2.15-.53,3-.71A16.6,16.6,0,0,1,97.83,37.81Z"/><path class="cls-30" d="M112.07,56.12a14.27,14.27,0,0,0,2.19-3.77c.61-1.87.65-3.86.07-4s-.88,1.4-2.09,3.48A4.85,4.85,0,0,0,112.07,56.12Z"/><path class="cls-30" d="M111.55,50.15A8.21,8.21,0,0,1,114,48c1.92-.92.86-2-.66-1S111,48.5,111,48.5Z"/><path class="cls-23" d="M105.71,56.51s2.43-1.27,2.71-2.58a23,23,0,0,1,2.92-6.72c1.92-2.8,3.22-1.42,2.65-.83a3.86,3.86,0,0,0-1.6,2.81c-.39,2.11.84,7.59,0,9.27A7.93,7.93,0,0,1,109,61.22S105.87,58.52,105.71,56.51Z"/><path class="cls-23" d="M109.34,51.05s.77-4.11,1.88-5.22,1.93-2.58,2.69-2.41-.76,2.61-.76,2.61Z"/><path class="cls-23" d="M110.3,34.72c-3.21,3.55-8.86,0-9-1.43a24.6,24.6,0,0,0,1.22-7.65L110.69,29l-.09.73a31.66,31.66,0,0,0-.32,3.48A11.1,11.1,0,0,0,110.3,34.72Z"/><path class="cls-22" d="M110.28,33.2c-4.31-1.17-6.92-5.78-6.92-5.78l7.24,2.3A31.66,31.66,0,0,0,110.28,33.2Z"/><path class="cls-30" d="M112.79,22.93s.73-2,2.37-1.48,1.47,6.05-1.67,5.75Z"/><path class="cls-23" d="M102.41,26.3c.79,2.23,6.44,5,8.82,3.95,1.45-.62,2.76-1.91,3.54-4.83l0-.05c0-.17.09-.34.13-.51s.13-.6.19-.88l0-.2c0-.18.06-.35.08-.52s0-.39,0-.57c.17-3,.43-6.26-2.21-8.18s-6.83-2.53-9.31.05a10.91,10.91,0,0,0-1.89,6.51C101.82,25.34,101.84,24.69,102.41,26.3Z"/><path class="cls-22" d="M109.71,22.2a.22.22,0,0,1-.14-.17s-.11-.66-.54-.77a1.17,1.17,0,0,0-.87.18.22.22,0,0,1-.31-.05.21.21,0,0,1,.05-.3,1.57,1.57,0,0,1,1.23-.25c.72.17.87,1.09.87,1.13a.2.2,0,0,1-.18.24A.14.14,0,0,1,109.71,22.2Z"/><path class="cls-22" d="M112.15,22.64h0a.22.22,0,0,1-.12-.28s.34-.78,1-.77a1.36,1.36,0,0,1,1,.48.2.2,0,0,1,0,.3.21.21,0,0,1-.3,0A1,1,0,0,0,113,22c-.35,0-.58.49-.58.5A.22.22,0,0,1,112.15,22.64Z"/><path class="cls-22" d="M111.92,26h0a2.69,2.69,0,0,1-3.58-1.24.16.16,0,0,1,.08-.22.16.16,0,0,1,.22.08,2.33,2.33,0,0,0,3.15,1.08.16.16,0,1,1,.13.3Z"/><path class="cls-22" d="M110.87,24.16a1.82,1.82,0,0,1-.33,0,.22.22,0,0,1-.18-.23.2.2,0,0,1,.23-.18,1.22,1.22,0,0,0,.93-.3,9.94,9.94,0,0,1-1-3.17.21.21,0,0,1,.18-.23.2.2,0,0,1,.23.17,8.1,8.1,0,0,0,1,3.11.2.2,0,0,1,0,.27A1.69,1.69,0,0,1,110.87,24.16Z"/><path class="cls-30" d="M110.3,27.61l.13,0a.17.17,0,0,0,.13-.2.16.16,0,0,0-.19-.13,1.1,1.1,0,0,1-1-.38.16.16,0,0,0-.24,0,.18.18,0,0,0,0,.24A1.44,1.44,0,0,0,110.3,27.61Z"/><path class="cls-30" d="M114.79,25.37c0-.17.09-.34.13-.51s.13-.6.19-.88l0-.2H115c-1.1-.08-2,.23-2.06.67S113.73,25.28,114.79,25.37Z"/><path class="cls-30" d="M104.39,23.26c0,.45.84.87,2,.94s2-.22,2.06-.67-.85-.87-2-.94S104.42,22.82,104.39,23.26Z"/><path class="cls-25" d="M106,14.09s-1.48,4.58-2.84,5.47-2.44-1.37-2.44-1.37S103.59,11.19,106,14.09Z"/><path class="cls-25" d="M111.76,14.35s-2.67,3.75-6,2.81-1-3.66-1-3.66S111,11.08,111.76,14.35Z"/><path class="cls-25" d="M110.88,14s1.56,4.95,4.81,4.16-1.23-5.73-3.4-5.56S110.88,14,110.88,14Z"/><path class="cls-25" d="M109.31,18.06a2.25,2.25,0,0,0-2.08.4c-.52.44-.14,1,.55.64a2.55,2.55,0,0,1,1.34-.34A.36.36,0,0,0,109.31,18.06Z"/><path class="cls-25" d="M112.81,18.53a2.28,2.28,0,0,1,2.06.52c.5.47.09,1-.58.61a2.51,2.51,0,0,0-1.32-.41A.37.37,0,0,1,112.81,18.53Z"/><path class="cls-23" d="M103,20.58a2.18,2.18,0,0,0-2.68-1.07c-1.77.67-1.28,6.74,2.17,6.23Z"/><path class="cls-25" d="M104,17.94s-.61.81-.59,3.76a11.82,11.82,0,0,0,.35,3.67,9.31,9.31,0,0,1-1.32-6.48C103.23,12.89,104,17.94,104,17.94Z"/><path class="cls-22" d="M102.09,23.37a.15.15,0,0,1-.12.19h0a.17.17,0,0,1-.16-.13,3.19,3.19,0,0,0-.51-1.12c-.35.28-.63.55-.63.55a.17.17,0,0,1-.23,0,.17.17,0,0,1,0-.23s.3-.27.66-.57a2,2,0,0,0-1-.59.16.16,0,1,1,.08-.32A2.94,2.94,0,0,1,102.09,23.37Z"/><polygon class="cls-23" points="121.84 167.42 122.29 175.34 128.26 175.38 128.77 167.35 121.84 167.42"/><path class="cls-25" d="M142.34,184.06H121a2.89,2.89,0,0,1-.28-1.19,35.14,35.14,0,0,1,.72-6.49c0-.21.06-.41.09-.59a5.86,5.86,0,0,0,.06-.74,1.08,1.08,0,0,1,1.31-1.22c2.16,2.11,4.6-1.06,6,0,0,0,.61.44,2.31,2s4.56,2.53,7,3.55c3.16,1.32,4.06,2.64,4.23,3.55A1.69,1.69,0,0,1,142.34,184.06Z"/><path class="cls-26" d="M142.34,184.06H121a2.89,2.89,0,0,1-.28-1.19h21.75A1.69,1.69,0,0,1,142.34,184.06Z"/><path class="cls-26" d="M123.21,184.06h-.63a4.69,4.69,0,0,0,1.14-3.41,6,6,0,0,0-2.24-4.27c0-.21.06-.41.09-.59a6.56,6.56,0,0,1,2.66,4.83A5.19,5.19,0,0,1,123.21,184.06Z"/><path class="cls-27" d="M130.91,177a.36.36,0,0,1-.35-.27.35.35,0,0,1,.26-.42l1.33-.33a.36.36,0,0,1,.43.25.36.36,0,0,1-.26.43L131,177Z"/><path class="cls-27" d="M129.68,175.88a.35.35,0,0,1-.08-.69l1.33-.33a.35.35,0,0,1,.42.25.36.36,0,0,1-.25.43l-1.34.33Z"/><path class="cls-27" d="M132.24,177.8a.34.34,0,0,1-.34-.26.35.35,0,0,1,.25-.43l1.33-.33a.35.35,0,1,1,.17.68l-1.33.33Z"/><path class="cls-27" d="M133.57,178.55a.36.36,0,0,1-.09-.7l1.33-.33a.36.36,0,0,1,.17.69l-1.33.33Z"/><path class="cls-27" d="M135,179.23a.34.34,0,0,1-.34-.26.35.35,0,0,1,.25-.43l1.33-.33a.36.36,0,0,1,.43.26.34.34,0,0,1-.26.42l-1.33.33Z"/><path class="cls-27" d="M136.59,179.82a.35.35,0,0,1-.08-.69l1.33-.33a.34.34,0,0,1,.42.25.36.36,0,0,1-.25.43l-1.33.33Z"/><path class="cls-28" d="M113.09,91.85l-1.09.26c-4.64,1.07-9.52,1.5-12.94.69-1.68-.4-2.76-2.46-3.45-4.77a9.06,9.06,0,0,1-.48-1.91,36.57,36.57,0,0,1,1.58-12.38c7.27.55,14.76.53,23.29-2.1,0,0,2.25,4.08,3.18,6.08a43.11,43.11,0,0,1,1.88,4.68h0a11.86,11.86,0,0,1,.56,2.49C125.82,87.18,119.85,90.15,113.09,91.85Z"/><path class="cls-29" d="M105.28,76.73h-.2a66.89,66.89,0,0,1-8.8-.61.22.22,0,0,1,.07-.43,67,67,0,0,0,8.74.6c4.44,0,10.64-.46,14.9-2.79a.21.21,0,0,1,.29.09.21.21,0,0,1-.08.29C115.92,76.23,109.76,76.73,105.28,76.73Z"/><path class="cls-29" d="M95.92,88.34a.25.25,0,0,1-.24-.2.24.24,0,0,1,.19-.29,8,8,0,0,0,2.88-1.54,9.07,9.07,0,0,0,3.18-6.78.25.25,0,0,1,.5,0,9.61,9.61,0,0,1-3.38,7.15A8.17,8.17,0,0,1,96,88.33Z"/><path class="cls-28" d="M116.51,113c2.07,6.34,1.88,9.51,1.88,9.51s-1.62,6.5.11,17.77c1.29,8.47,2.08,20.26,2.4,25.61l0,.46c.08,1.5.13,2.38.13,2.38l8.25.89s.06-1,.17-2.63l0-.46c.6-9.06,2.28-35.53,2-45.17,0-.89-.06-1.63-.11-2.2,0-.41-.1-.93-.17-1.53-.9-7.39-4.16-28.56-6.42-35.66-1.75-5.47-14,.13-14,.13S114.44,106.68,116.51,113Z"/><path class="cls-29" d="M126.72,120.67a6.28,6.28,0,0,0,4.53-.18.36.36,0,0,0,.16-.48.37.37,0,0,0-.48-.16,5.58,5.58,0,0,1-4.12.09.36.36,0,0,0-.46.21.35.35,0,0,0,.21.46Z"/><path class="cls-29" d="M120.9,165.91l0,.46,8.55.64,0-.46Z"/><path class="cls-29" d="M112.05,90.58a.28.28,0,0,1-.23-.13.26.26,0,0,1,.11-.35,6.9,6.9,0,0,0,3.26-4.65.27.27,0,0,1,.3-.21.24.24,0,0,1,.2.29,7.29,7.29,0,0,1-3.52,5A.27.27,0,0,1,112.05,90.58Z"/><path class="cls-29" d="M122.51,166.37a.26.26,0,0,1-.23-.24c0-.26-1.71-26.35-2.28-32.29a93.05,93.05,0,0,1,.35-14.72c-1.91-5.85-7.2-29.16-7.25-29.39a.26.26,0,0,1,.19-.31.25.25,0,0,1,.3.19c.06.24,5.37,23.66,7.26,29.41a.17.17,0,0,1,0,.1,93.72,93.72,0,0,0-.35,14.67c.57,6,2.26,32,2.28,32.31a.26.26,0,0,1-.24.27Z"/><path class="cls-31" d="M178.91,36.86c.2,1.42.4,2.85.65,4.29s.51,2.86.83,4.31.67,2.89,1.11,4.35a33.42,33.42,0,0,0,1.65,4.47,19.88,19.88,0,0,0,1.26,2.33,12.23,12.23,0,0,0,2,2.41l.34.3.08.07.1.08.19.14.2.15.2.14.44.27.48.26c.17.08.33.16.51.23l.55.2.58.16a7.65,7.65,0,0,0,2.43.17,8.89,8.89,0,0,0,2.19-.54l.47-.2.44-.22c.28-.15.55-.3.8-.46s.47-.33.7-.5.44-.33.63-.5l.57-.52c.18-.17.36-.34.52-.52.33-.35.64-.69.93-1a24.13,24.13,0,0,0,1.54-2.12c.24-.36.46-.72.68-1.09l.32-.56.15-.3.09-.15,0-.09.06-.12a4.67,4.67,0,0,0-8.51-3.85h0v0l0,.08-.07.18c-.06.12-.11.24-.17.37s-.25.5-.38.74a14.59,14.59,0,0,1-.82,1.37c-.14.21-.28.41-.42.58L192,52l-.2.21,0,0-.11.12,0,0-.11.11,0,0-.12-.12c-.1-.11-.2-.22-.3-.35a13.75,13.75,0,0,1-.87-1.32,27.1,27.1,0,0,1-1.55-3.33c-.47-1.2-.9-2.46-1.29-3.73s-.76-2.59-1.1-3.91-.65-2.66-1-4v0a3.26,3.26,0,0,0-6.4,1.17Z"/><path class="cls-32" d="M191.86,55.66a.2.2,0,0,0,.18.22h0a.21.21,0,0,0,.21-.18,7.26,7.26,0,0,0-.19-2.39c-.07-.3-.15-.58-.23-.83,0-.07,0-.14-.07-.2l-.11.12a.21.21,0,0,0-.16.08h0l-.12-.12A7.91,7.91,0,0,1,191.86,55.66Z"/><path class="cls-32" d="M191.55,52.77a2.72,2.72,0,0,1,.53.54,7.36,7.36,0,0,1,.79,1.42.21.21,0,0,0,.19.13h.07a.2.2,0,0,0,.12-.26,5.75,5.75,0,0,0-1.4-2.11l-.06,0a.19.19,0,0,0-.12,0,.21.21,0,0,0-.16.08h0A.21.21,0,0,0,191.55,52.77Z"/><path class="cls-33" d="M200.27,34.93s-1.69.47-4,5.84c-1.56,3.69-3.48,8-3.48,8l8.87,6.92s5.1-9.88,5.77-12.94A6.42,6.42,0,0,0,200.27,34.93Z"/><path class="cls-31" d="M185.59,37.64c.28-.55-.15-1.53-.2-2.35a9.51,9.51,0,0,0-1-3.5c-.71-1.25-3-4.83-4.17-5.1s.57,3,.92,3.65a2.93,2.93,0,0,1,.33,1.25s-4.58-7.12-5.53-7.23,1.25,4.21,1.8,5.27c0,0-3.74-5.18-4.37-5.06-1.25.25,2.74,6.12,2.74,6.12s-3.37-4.2-4-3.62,2.9,5.09,2.9,5.09-2.59-2.42-3.4-2.19,4.26,5.72,5.14,6.47a42.91,42.91,0,0,0,4.38,3.74C182,40.71,184.7,39.38,185.59,37.64Z"/><path class="cls-32" d="M175.76,34.09a.22.22,0,0,1-.08-.3,6.78,6.78,0,0,1,4-3.34.25.25,0,0,1,.3.17.24.24,0,0,1-.17.29h0A6.4,6.4,0,0,0,176.1,34a.22.22,0,0,1-.31.11Z"/><path class="cls-32" d="M180.83,37.28a.23.23,0,0,1-.11-.24A4,4,0,0,0,179.41,33a.24.24,0,0,1,.26-.4h0a4.37,4.37,0,0,1,1.52,4.55.25.25,0,0,1-.28.19A.2.2,0,0,1,180.83,37.28Z"/><path class="cls-5" d="M194.41,91.77c2.52,1.68,8.25,3,14.05,3.7,7.48.84,15.08.48,16.07-1.93.11-.27.21-.55.3-.85v0c.06-.22.13-.44.18-.67.1-.41.19-.84.26-1.27.05-.26.09-.51.12-.77a40.73,40.73,0,0,0,.06-8.37l-28.38-6s-2.8,8.1-3.24,12.87c0,.26,0,.51-.05.75C193.74,90.51,193.91,91.44,194.41,91.77Z"/><polygon class="cls-31" points="194.82 167.22 193.44 173.64 187.38 172.58 188.54 166.5 194.82 167.22"/><path class="cls-34" d="M171.27,178l21.31,5.29a3,3,0,0,0,.57-1.11,35.93,35.93,0,0,0,.89-6.68c0-.22,0-.42.06-.61s.08-.57.12-.75a1.12,1.12,0,0,0-1-1.55c-2.68,1.58-4.34-2.2-6-1.51a30.16,30.16,0,0,0-2.8,1.39c-2.06,1.1-5.19,1.39-7.89,1.81-3.49.53-4.72,1.63-5.12,2.5A1.75,1.75,0,0,0,171.27,178Z"/><path class="cls-35" d="M171.27,178l21.31,5.29a3,3,0,0,0,.57-1.11l-21.76-5.4A1.75,1.75,0,0,0,171.27,178Z"/><path class="cls-7" d="M186.65,171.92s-.15-1-1.06-.94-1.18,1.51-1.18,1.51S184.6,173.88,186.65,171.92Z"/><path class="cls-7" d="M185.88,176.18a.36.36,0,0,0,.43-.27,4.63,4.63,0,0,0-.55-3.65.37.37,0,0,0-.51-.08.35.35,0,0,0-.08.5,3.91,3.91,0,0,1,.44,3.06A.36.36,0,0,0,185.88,176.18Z"/><path class="cls-7" d="M182.13,172.32a.39.39,0,0,0,.26,0,4.49,4.49,0,0,1,2.58.19.36.36,0,0,0,.45-.24.35.35,0,0,0-.23-.45c-.22-.07-2.15-.66-3.14-.14a.35.35,0,0,0-.15.48A.39.39,0,0,0,182.13,172.32Z"/><path class="cls-7" d="M185.51,171.91l.14.22h0v0l-.33.69.08,0a6.78,6.78,0,0,0,.66.2l.15,0a12.17,12.17,0,0,0,1.59.26,3.52,3.52,0,0,0,1.83-.23,1.58,1.58,0,0,0,.69-.57l0-.06a1.13,1.13,0,0,0,0-1.14,1.6,1.6,0,0,0-1-.74h0a3.25,3.25,0,0,0-1.35,0,8.07,8.07,0,0,0-1.66.57l-.13.06-.54.28a1.25,1.25,0,0,0-.24.14Zm.71.4-.25-.07c.18-.1.42-.22.68-.34h0a7.62,7.62,0,0,1,1-.39,3.84,3.84,0,0,1,.9-.17,1.76,1.76,0,0,1,.52,0h0a.76.76,0,0,1,.51.37.37.37,0,0,1,0,.32l0,.06a1.94,1.94,0,0,1-1.79.45l-.45-.05A11.17,11.17,0,0,1,186.22,172.31Z"/><path class="cls-7" d="M184.79,172.35l.5-.6a2.44,2.44,0,0,1-.9-2.06c0-.13.14-.28.49-.29a.45.45,0,0,1,.41.15,2.8,2.8,0,0,1,0,1.9l.76.21c.05-.18.47-1.79-.17-2.59a1.36,1.36,0,0,0-2.25.36A3.12,3.12,0,0,0,184.79,172.35Z"/><path class="cls-35" d="M190.41,182.77l.63.16a4.84,4.84,0,0,1-.3-3.7,6.24,6.24,0,0,1,3.3-3.71c0-.22,0-.42.06-.61a6.75,6.75,0,0,0-3.86,4.17A5.32,5.32,0,0,0,190.41,182.77Z"/><path class="cls-7" d="M184.45,173.83a.36.36,0,0,0,.26-.67l-1.25-.66a.36.36,0,0,0-.34.64l1.25.66Z"/><path class="cls-7" d="M182.93,174.28a.37.37,0,0,0,.41-.19.36.36,0,0,0-.15-.48l-1.25-.67a.36.36,0,0,0-.49.16.35.35,0,0,0,.15.48l1.25.66Z"/><path class="cls-7" d="M181.42,174.69a.36.36,0,0,0,.25-.67l-1.25-.66a.36.36,0,0,0-.49.15.37.37,0,0,0,.15.49l1.25.66Z"/><path class="cls-7" d="M179.79,175a.36.36,0,0,0,.26-.67l-1.25-.66a.36.36,0,0,0-.49.15.38.38,0,0,0,.15.49l1.25.66Z"/><path class="cls-7" d="M178.07,175.21a.36.36,0,0,0,.26-.67l-1.25-.66a.38.38,0,0,0-.49.15.37.37,0,0,0,.15.49l1.25.66Z"/><path class="cls-5" d="M187.32,168.24l8.31.91s5.26-28.38,4.72-35.2l7.8-39.65,1.12-5.7L198,87.6l-.65-.36L197,87l-.63-.36-1.62-.9-.12.65c-.1.51-.19,1-.29,1.53,0,.27-.1.53-.14.8a.36.36,0,0,0,0,.1c-.05.25-.09.49-.14.73-2.9,15.81-5.17,30.34-6.06,40.91v.13l0,.74Z"/><path class="cls-36" d="M188,131.36a14.31,14.31,0,0,0,3.77.52h0a.36.36,0,1,0,0-.72h0a13.5,13.5,0,0,1-3.76-.54Z"/><path class="cls-36" d="M194.14,166.2c4.87-23.84,3.73-33.89,3.72-34a.49.49,0,0,1,0-.12L205.33,97a.33.33,0,0,1,.38-.27h0a.35.35,0,0,1,.29.41l-7.45,35.09c.09.88,1,11.14-3.73,34.16a.36.36,0,0,1-.37.28h0A.35.35,0,0,1,194.14,166.2Z"/><path class="cls-36" d="M193.79,89.26l.07,0a6.6,6.6,0,0,0,1.49-.72l.36-.25a7.71,7.71,0,0,0,1.23-1.11,14.16,14.16,0,0,0,3-6.26.35.35,0,0,0-.28-.41.34.34,0,0,0-.4.28,13.67,13.67,0,0,1-3,6.08,7.51,7.51,0,0,1-1.12,1l-.18.12a6.3,6.3,0,0,1-1.13.57C193.81,88.77,193.8,89,193.79,89.26Z"/><path class="cls-36" d="M205.64,94a.29.29,0,0,0,.27.29h0a.28.28,0,0,0,.3-.26c.05-1,.11-2.13.18-3.2,0-.19,0-.38,0-.57.23-3.51.51-7,.73-9.38l.06-.57c0-.54.09-1,.13-1.41l-.58-.09c0,.4-.08.88-.13,1.41,0,.19,0,.38-.05.58-.22,2.41-.51,5.82-.73,9.31,0,.19,0,.38,0,.57C205.76,91.76,205.69,92.87,205.64,94Z"/><path class="cls-36" d="M204.81,90.26a7.63,7.63,0,0,0,1,.38,4.74,4.74,0,0,0,.57.15,5.17,5.17,0,0,0,.55.07,2,2,0,0,0,1-.15,1.18,1.18,0,0,0,.66-.89c.21-1.08.66-5.55,1-8.71,0-.19,0-.38.05-.57,0-.5.09-1,.13-1.35l-.58-.08c0,.4-.08.86-.13,1.37,0,.19,0,.38,0,.57-.3,3.16-.74,7.62-1,8.67a.61.61,0,0,1-.35.49,2.08,2.08,0,0,1-1.22,0,4.74,4.74,0,0,1-.57-.15,5.45,5.45,0,0,1-.8-.32.31.31,0,0,0-.39.13A.28.28,0,0,0,204.81,90.26Z"/><polygon class="cls-31" points="253.2 164.38 256.23 169.26 250.76 173.97 247.09 168.69 253.2 164.38"/><path class="cls-7" d="M249.73,179.57a.33.33,0,0,0,.08-.22,4.16,4.16,0,0,1,1.18-2.06.33.33,0,1,0-.48-.46c-.15.15-1.41,1.52-1.37,2.54a.33.33,0,0,0,.34.32A.3.3,0,0,0,249.73,179.57Z"/><path class="cls-34" d="M242,183.94h15.39a71,71,0,0,0,3.84-6.79c.07-.14.13-.28.19-.42a5.07,5.07,0,0,0,.65-2.46,2.05,2.05,0,0,0-.27-.59,12.85,12.85,0,0,0-3.43-3h0l-.44-.28c-.36-.22-1.8-1.6-1.8-1.6-1.79-.3-3.92,4.31-3.92,4.31s-2.68-.26-2.65,1.73c0,.7,1.69,2.79,1.69,2.79a33,33,0,0,0-5.89,1.83,6.54,6.54,0,0,0-3.2,3.31A2.52,2.52,0,0,0,242,183.94Z"/><path class="cls-35" d="M258.64,175a4.82,4.82,0,0,0,2.63,2.13c.07-.14.13-.28.19-.42a4.45,4.45,0,0,1-2.41-2,5.56,5.56,0,0,1-.64-4.07h0l-.44-.28A6,6,0,0,0,258.64,175Z"/><path class="cls-7" d="M251.2,175.67s-.91-.29-1.2.51.77,1.58.77,1.58S252,178.15,251.2,175.67Z"/><path class="cls-7" d="M254.42,178a.32.32,0,0,0,0-.47,4.19,4.19,0,0,0-3.25-1,.33.33,0,0,0-.27.38.34.34,0,0,0,.39.27,3.6,3.6,0,0,1,2.71.85A.33.33,0,0,0,254.42,178Z"/><path class="cls-7" d="M251.41,177.16l-.45-.56h0l-.48,0c0-.27-.21-2.61.68-3.68l0,0a1.38,1.38,0,0,1,1-.52,1,1,0,0,1,1,.5,2.43,2.43,0,0,1-.34,2.41,15.16,15.16,0,0,1-.93,1.32A4,4,0,0,1,251.41,177.16Zm-.22-.8a9.06,9.06,0,0,0,1-1.42c.47-.76.51-1.38.34-1.66a.3.3,0,0,0-.31-.15.66.66,0,0,0-.51.26v0A5.2,5.2,0,0,0,251.19,176.36Z"/><path class="cls-7" d="M250.82,177.38l-.31-.65a2.24,2.24,0,0,1-2.07-.08c-.08-.08-.17-.22,0-.52a.41.41,0,0,1,.28-.27c.43-.1,1.2.4,1.59.73l.47-.54c-.13-.11-1.29-1.1-2.22-.9a1.14,1.14,0,0,0-.79.7,1.11,1.11,0,0,0,.2,1.32A2.88,2.88,0,0,0,250.82,177.38Z"/><path class="cls-7" d="M251.24,178.18a.33.33,0,0,0,0-.66l-1.29-.14a.33.33,0,0,0-.37.3.33.33,0,0,0,.3.36l1.29.14Z"/><path class="cls-7" d="M249.73,178.69a.33.33,0,0,0,0-.66l-1.3-.14a.33.33,0,0,0-.07.66l1.3.14Z"/><path class="cls-7" d="M248.19,179.17a.34.34,0,0,0,.28-.29.33.33,0,0,0-.3-.37l-1.29-.13a.34.34,0,0,0-.37.29.34.34,0,0,0,.3.37l1.29.13A.14.14,0,0,0,248.19,179.17Z"/><path class="cls-35" d="M242,183.94h15.39s5.1-7.93,4.68-9.67a2.05,2.05,0,0,0-.27-.59c-1.36,2.58-4.35,8.14-5.35,9.16l-14.29-.05A2.52,2.52,0,0,0,242,183.94Z"/><path class="cls-5" d="M209.38,94.11l11.45,35.72,0,.08.38.58,26.38,41.12,8-5.09s-8.43-18.44-11.95-25.64a57.16,57.16,0,0,0-8.89-12.78c-3.53-9.82-9.8-39.9-9.8-39.9Z"/><path class="cls-36" d="M220.83,129.83l0,.08.38.58a14.91,14.91,0,0,0,4.26-1.57.35.35,0,0,0,.13-.48.34.34,0,0,0-.48-.14A14.69,14.69,0,0,1,220.83,129.83Z"/><path class="cls-36" d="M253.37,167.29a.35.35,0,0,0,.17,0,.36.36,0,0,0,.15-.48c-.07-.15-7.41-14.68-11.33-24.09s-8.86-13.07-9.6-13.59c-3-6.66-8.62-34.76-8.68-35a.36.36,0,1,0-.7.14c.23,1.17,5.72,28.73,8.77,35.3a.37.37,0,0,0,.13.15c.05,0,5.39,3.65,9.42,13.32,3.93,9.44,11.28,24,11.36,24.14A.34.34,0,0,0,253.37,167.29Z"/><path class="cls-37" d="M223.71,98.69a4.38,4.38,0,0,1-2.12-.06c-5.41-1.38-7.11-13.85-7.18-14.38a.41.41,0,0,1,.34-.46.41.41,0,0,1,.45.35c0,.13,1.71,12.47,6.59,13.71a3.09,3.09,0,0,0,3.18-.8,4.81,4.81,0,0,0,.73-4.75.4.4,0,0,1,.26-.5.4.4,0,0,1,.51.25,5.68,5.68,0,0,1-.91,5.56A3.73,3.73,0,0,1,223.71,98.69Z"/><path class="cls-36" d="M224,89.7a5.18,5.18,0,0,0,1.27,1c.05-.26.09-.51.12-.77a4.62,4.62,0,0,1-.86-.74c-2.27-2.52-1.71-7.43-1.7-7.48a.36.36,0,0,0-.32-.4.37.37,0,0,0-.4.31C222.1,81.87,221.53,86.94,224,89.7Z"/><path class="cls-38" d="M195.71,81.22a15.09,15.09,0,0,0,2,1.59l.07,0a19.14,19.14,0,0,0,1.66,1c.21.12.42.23.64.33a28,28,0,0,0,5.71,2.07l.57.14c.55.13,1.11.25,1.68.35l.57.1a34.18,34.18,0,0,0,6.82.4l.82,0c.73,0,1.46-.12,2.19-.22h0l.66-.1a28.65,28.65,0,0,0,3.51-.79,25.69,25.69,0,0,0,3-1.06l.49-.21.61-.29.05,0c1.2-3.27,2.52-15,2.87-18.46.07-.69.13-1.39.18-2.08.12-1.9.16-3.8.14-5.74,0-1.3-.05-2.61-.11-3.94,0-.2,0-.39,0-.59v0l0-.53c-.05-.93-.1-1.88-.15-2.83-.13-2-.27-4.12-.41-6.29-.22-3.5-1-6.26-2.2-8.12a7.46,7.46,0,0,0-1-1.24,5.47,5.47,0,0,0-2.95-1.46,17.07,17.07,0,0,1-1.91-.42l-.31-.1c-.33-.1-.64-.2-.92-.31s-.64-.26-.92-.39l-.13-.07-.21-.11a11.42,11.42,0,0,1-1.86-1.14h-8.19l-.2.27v0a6.16,6.16,0,0,1-1.93,1.63l-.41.21-.32.14-.34.14c-.27.11-.54.2-.81.29h0c-2,.63-4,.91-5.11,2.37a4.32,4.32,0,0,0-.44.76,4.72,4.72,0,0,0-.29,1,4,4,0,0,0-.07.65c-.08,2.4,1.3,6.9,1.14,15.26,0,.52,0,1-.05,1.6,0,.17,0,.33,0,.5,0,.34,0,.68-.06,1h0c0,.35,0,.71-.07,1.07,0,.68-.11,1.37-.18,2.09s-.13,1.27-.21,1.93-.18,1.36-.28,2.07c-.4,2.83-1.31,8.44-2.26,13.15-.15.75-.3,1.46-.45,2.15,0,.07,0,.14,0,.21C196,79.87,195.87,80.58,195.71,81.22Z"/><path class="cls-33" d="M208.32,45.81l-6.71-.52s-2,8.79,2.23,9.23C208.7,55,208.32,45.81,208.32,45.81Z"/><path class="cls-7" d="M211.18,38.55c4.44,0,7.49-6.78,7.63-7.09a.3.3,0,0,0-.16-.4.3.3,0,0,0-.4.15c0,.08-3.39,7.52-7.81,6.66a3.2,3.2,0,0,1-2.32-1.54c-1-1.86,0-4.69,0-4.72a.29.29,0,0,0-.17-.39.31.31,0,0,0-.4.17c0,.13-1.18,3.13,0,5.24a3.8,3.8,0,0,0,2.75,1.84A5,5,0,0,0,211.18,38.55Z"/><path class="cls-33" d="M211.15,43.38a10.22,10.22,0,0,0,4.43-1.12A18.58,18.58,0,0,0,220.21,39a.21.21,0,0,0,0-.27.17.17,0,0,0-.25,0,18.57,18.57,0,0,1-4.55,3.18c-3.46,1.66-6.45,1.43-8.86-.7a.18.18,0,0,0-.25,0,.21.21,0,0,0,0,.27,7.12,7.12,0,0,0,4.76,1.87Z"/><path class="cls-33" d="M211.25,40a8.77,8.77,0,0,0,4.3-1.76.21.21,0,0,0,0-.27.18.18,0,0,0-.25,0s-3.79,2.8-5.54,1.16a.17.17,0,0,0-.25,0,.23.23,0,0,0,0,.28A2.37,2.37,0,0,0,211.25,40Z"/><path class="cls-33" d="M206.14,74.17a13.14,13.14,0,0,0,2.22-.19,18.35,18.35,0,0,0,5.76-2.14,27.79,27.79,0,0,0,5.67-4.22.21.21,0,0,0,0-.27.16.16,0,0,0-.25,0A27.59,27.59,0,0,1,214,71.5c-3,1.69-7.58,3.31-12,1.46a.17.17,0,0,0-.23.11.2.2,0,0,0,.11.25A11.09,11.09,0,0,0,206.14,74.17Z"/><path class="cls-5" d="M219.06,24.21s-.34,2.65.43,3.7c0,0-2,1.49-3.45.69C216,28.6,217.7,24.64,219.06,24.21Z"/><path class="cls-5" d="M205.63,14.7a5,5,0,0,0,0,.77h0a8.56,8.56,0,0,0,.59,2.5l.21,0,.21,0,.74.1s3.25-5.85,6.32-4.84,3.29,8,3.29,8l3.92.12s2.75-4.27,1.28-8a4.73,4.73,0,0,0-4.59-2.89s-2.89-2.69-6.41-1.77C208.91,9.32,205.81,11.22,205.63,14.7Z"/><path class="cls-31" d="M209,28.56l-.39,2.06c.21.24.42.45.63.65,3.16,2.82,7.52.9,7.52.9l1.35-7.12-8,3.09Z"/><path class="cls-5" d="M209,28.56l-.33,1.75c4.54.06,6.66-2.43,6.66-2.43l-5.24.26Z"/><path class="cls-32" d="M208.19,19.07s-.9-1.6-1.82-.35-1,4.14.91,4Z"/><path class="cls-31" d="M206,23.67a4.27,4.27,0,0,0,3.6,5.08c4.39.82,8-2.05,8.23-2.18h0l.22-.88,1.13-4.59.61-2.45s1.41-4.35-2.67-6c-3-1.19-6-1.22-7.76.11l-.17.14A3.9,3.9,0,0,0,208,14.83l-1,4.43-.24,1.08Z"/><path class="cls-7" d="M212.66,22a10.22,10.22,0,0,1-4.6-.21s0,2.55,2.38,2.4C212,24.06,212.66,22,212.66,22Z"/><path class="cls-5" d="M206.71,18l1.39.13s.33-3.33,2.44-4.67c1.36-.86,3.72-.09,5.23.57l.24.1c.38.17.69.33.89.44l.21.11.08,0a2.92,2.92,0,0,0-.11,3.22c.92,1.35-1.1,3.87-1.1,3.87l2,.39c1.11-.32,1.89-2.38,1.89-2.38a7.15,7.15,0,0,0,.73-5.26c-.47-1.4-2.54-2.65-4.82-3.37l-.41-.12a10,10,0,0,0-5-.29,4.1,4.1,0,0,0-2.34,2.29,9.34,9.34,0,0,0-.41.91A17.42,17.42,0,0,0,206.71,18Z"/><path class="cls-5" d="M215.78,17.46h0a1,1,0,0,1-1.4.26,5.92,5.92,0,0,0-.94-.52.93.93,0,0,1-.47-1.27h0S215.06,16.14,215.78,17.46Z"/><path class="cls-5" d="M207.79,15.94h0a1,1,0,0,0,1.21.76,5.77,5.77,0,0,1,1.07-.14.94.94,0,0,0,.91-1h0S209,15,207.79,15.94Z"/><path class="cls-32" d="M212.67,20.9c-.06.31.53.68,1.31.83s1.47,0,1.53-.29-.53-.68-1.31-.83S212.73,20.59,212.67,20.9Z"/><path class="cls-32" d="M206.77,20.34l.34.08c.78.15,1.47,0,1.53-.29s-.53-.68-1.32-.83l-.31,0Z"/><path class="cls-5" d="M213,19.2c-.08.42,0,.8.28.85s.5-.26.58-.69,0-.8-.28-.85S213.07,18.77,213,19.2Z"/><path class="cls-5" d="M208.72,18.39c-.08.42.05.8.29.85s.49-.27.57-.69,0-.81-.28-.85S208.8,18,208.72,18.39Z"/><path class="cls-5" d="M216.8,24.58a4.08,4.08,0,0,0,1.06,2h0l.22-.88A3.13,3.13,0,0,1,216.8,24.58Z"/><path class="cls-31" d="M218.14,21.78s2.14-2,3,.07c.74,1.67-1.93,5.15-3.71,3.45Z"/><path class="cls-5" d="M217.84,24.65a.17.17,0,0,0,.2-.12,3,3,0,0,1,2.14-2,.18.18,0,1,0-.06-.35,3.34,3.34,0,0,0-2.42,2.28.17.17,0,0,0,.12.22Z"/><path class="cls-5" d="M219.67,23.91a.21.21,0,0,0,.15,0,.19.19,0,0,0,0-.25c-.06-.07-.59-.69-1.14-.65a.17.17,0,0,0-.17.19.18.18,0,0,0,.19.16c.32,0,.72.37.85.53A.17.17,0,0,0,219.67,23.91Z"/><path class="cls-5" d="M210.59,21a.18.18,0,0,0,.07-.35,1.23,1.23,0,0,1-1-.69c1-1.3,1.94-2.62,2-2.63a.18.18,0,1,0-.28-.21l-2,2.71a.19.19,0,0,0,0,.15A1.53,1.53,0,0,0,210.59,21Z"/><path class="cls-31" d="M216.82,79.36A3.34,3.34,0,0,0,221,81.13l.85-.3.81-.31,1.63-.62c1.08-.42,2.15-.85,3.22-1.31,2.14-.91,4.26-1.89,6.37-3,1.06-.55,2.11-1.13,3.16-1.76a33,33,0,0,0,3.16-2.13c.53-.41,1.06-.85,1.6-1.35a13.34,13.34,0,0,0,1.6-1.76,9.18,9.18,0,0,0,.78-1.22,6.36,6.36,0,0,0,.36-.74c.05-.12.12-.31.18-.48s.11-.34.14-.5a7.55,7.55,0,0,0,.24-1.78,9.45,9.45,0,0,0-.07-1.45,15.51,15.51,0,0,0-.49-2.36c-.21-.7-.44-1.36-.68-2a36.34,36.34,0,0,0-1.6-3.49,71.92,71.92,0,0,0-3.66-6.21c-1.28-2-2.62-3.89-4-5.76-.68-.94-1.38-1.87-2.09-2.79l-1.07-1.38-.54-.69-.28-.35-.29-.36a5,5,0,0,0-7.71,6.25l.13.16,0,.05.52.58.53.61L224.91,46c.7.84,1.4,1.68,2.08,2.53,1.38,1.69,2.71,3.41,4,5.14.63.87,1.24,1.75,1.83,2.62S234,58,234.47,58.88s1,1.75,1.37,2.58c.19.41.36.82.49,1.19s.17.49.22.69,0,.17,0,.24,0,.13,0,.17v0a5.12,5.12,0,0,1-.6.76c-.27.29-.59.59-.93.89a26.63,26.63,0,0,1-2.34,1.8c-.84.59-1.72,1.16-2.63,1.71-1.82,1.11-3.73,2.15-5.67,3.14-1,.5-2,1-2.94,1.46l-1.49.7-.74.34-.73.33-.07,0A3.34,3.34,0,0,0,216.82,79.36Z"/><path class="cls-32" d="M236.55,63.34c0,.09,0,.17,0,.24s0,.13,0,.17a8.34,8.34,0,0,1,3.54.57.15.15,0,0,0,.09,0,.19.19,0,0,0,.18-.12.2.2,0,0,0-.1-.27,7.48,7.48,0,0,0-2.77-.6c-.26,0-.5,0-.7,0Z"/><path class="cls-32" d="M237,63.74a.19.19,0,0,0,.12,0A11.09,11.09,0,0,1,239,62.61a.2.2,0,0,0,.11-.27.2.2,0,0,0-.27-.1,10.8,10.8,0,0,0-2,1.14.2.2,0,0,0,0,.28A.18.18,0,0,0,237,63.74Z"/><path class="cls-31" d="M220.57,76.45a4.37,4.37,0,0,0-1.89-.78,8.75,8.75,0,0,0-3.27,0c-1.25.33-4.9,1.51-5.4,2.46s2.73.19,3.39,0a2.71,2.71,0,0,1,1.17,0s-7.26,2.35-7.57,3.15,3.95-.12,5-.35c0,0-5.37,2.07-5.4,2.64-.08,1.15,6-1,6-1s-4.43,2-4.08,2.69,5.1-1.36,5.1-1.36-2.7,1.7-2.69,2.46,6-2.39,6.82-3A39.28,39.28,0,0,0,222,80.51C222.62,79.86,221.89,77.63,220.57,76.45Z"/><path class="cls-5" d="M218,75.33a14.85,14.85,0,0,0,3,6,2.2,2.2,0,0,0,1.51-.66,14.32,14.32,0,0,1-3-6.12A2.09,2.09,0,0,0,218,75.33Z"/><path class="cls-5" d="M221.66,77.1a2.1,2.1,0,1,1-2.8-.94A2.09,2.09,0,0,1,221.66,77.1Z"/><path class="cls-7" d="M220.46,79.38a1.5,1.5,0,1,1,.68-2A1.5,1.5,0,0,1,220.46,79.38Z"/><path class="cls-38" d="M223.32,34s4-1.35,7,1.24,7.63,9.4,7.63,9.4-6.82,6.45-11.29,7.19c0,0-5-7.27-6.16-10.35C218.53,36.4,223.32,34,223.32,34Z"/><path class="cls-33" d="M223.87,44.49c.06.11.51.95,1.17,2.12.09.17.2.35.3.53a62.37,62.37,0,0,0,4.54,7.11c0-.2,0-.39,0-.59v0a70.85,70.85,0,0,1-4.22-6.69v0c-.84-1.47-1.42-2.55-1.43-2.58a.19.19,0,0,0-.33.17Z"/><path class="cls-33" d="M225.48,47.18h-.08l-2.28-1a.18.18,0,0,1-.09-.24.18.18,0,0,1,.24-.1l2.28,1a.18.18,0,0,1,.09.24A.17.17,0,0,1,225.48,47.18Z"/></g></g></g></svg>