<svg xmlns="http://www.w3.org/2000/svg" viewBox="0 0 217.55 167.76"><defs><style>.cls-1{isolation:isolate;}.cls-2{fill:#46c7ce;opacity:0.25;}.cls-3{fill:#eaeaea;mix-blend-mode:multiply;}.cls-4{fill:gray;}.cls-5{fill:#4aa79e;}.cls-6{fill:#fff;}.cls-7{fill:#a5ddeb;}.cls-8{fill:#75c189;}.cls-9{fill:#509660;}.cls-10{fill:#fa5;}.cls-11{fill:#fcb1a9;}.cls-12{fill:#e88f79;}.cls-13{fill:#363638;}.cls-14{fill:#010760;}.cls-15{fill:#e3f8ff;}.cls-16{fill:#4b4d91;}.cls-17{fill:#c1f1fd;}.cls-18{fill:#4d4d4d;}.cls-19{fill:#2e3078;}.cls-20{fill:#e03756;}</style></defs><g class="cls-1"><g id="Layer_2" data-name="Layer 2"><g id="Option_1" data-name="Option 1"><path class="cls-2" d="M125.18,155.51c-59.21,10.64-88.47-3.78-88.47-3.78s-42.29-13-29.21-69.35C17.9,37.57,75.83-8,109.91,1.18s34.62,28.35,74,49.21,35.26,43.79,31,55.78C214.94,106.17,201.47,141.8,125.18,155.51Z"/><ellipse id="_Path_" data-name="&lt;Path&gt;" class="cls-3" cx="102.76" cy="163.79" rx="102.76" ry="3.98"/><rect class="cls-4" x="66.85" y="13.36" width="118.38" height="64.29"/><rect class="cls-5" x="69.09" y="15.2" width="113.7" height="60.62"/><path class="cls-6" d="M106.22,32.08c.07-.2.11-.4.18-.6.09-.37.17-.74.26-1.11.18-.87.36-1.76.53-2.63.38-1.8.8-3.61,1.27-5.4.06-.2.11-.42.17-.62a2,2,0,0,1,.2-.57c.09-.12.33-.24.44,0a3.16,3.16,0,0,1,.09.62c.13.85.33,1.72.51,2.58s.35,1.78.58,2.65.44,1.73.59,2.61c.07.44.14.88.23,1.3s.15.8.22,1.2c0,.14,0,.32-.22.32s-.25-.2-.27-.32c-.07-.43-.13-.85-.2-1.27s-.15-.84-.2-1.28c0-.1-.31-.05-.4,0l-.84.05c-.6,0-1.17.09-1.77.07-.11,0-.4-.07-.42.07s0,.16,0,.23c-.09.49-.18,1-.27,1.48,0,.23-.11.47-.15.7s-.07.39-.31.39S106.18,32.2,106.22,32.08Zm1-2.85c1.08.07,2.17-.12,3.25-.12-.26-1.42-.64-2.81-1-4.22-.13-.56-.24-1.11-.35-1.65,0-.21-.09-.45-.14-.67,0-.06-.08-.53-.11-.63C108.39,24.27,107.68,26.9,107.26,29.23Z"/><path class="cls-6" d="M117,32c-.26,0-.29-.15-.24-.3a5.05,5.05,0,0,0,.09-1.28c0-.9,0-1.82-.07-2.73,0-1.73-.09-3.45-.07-5.18,0-.44,0-.86,0-1.29a1,1,0,0,1,.11-.49c.08-.12.28-.15.48-.17a3.3,3.3,0,0,1,2.33.93,2.86,2.86,0,0,1,.9,1.92,5.08,5.08,0,0,1-.39,2.3,3.67,3.67,0,0,1-.82,1.16,5.25,5.25,0,0,1-1.13.74,4.26,4.26,0,0,1,1.9.78,2.13,2.13,0,0,1,.62.73,2.06,2.06,0,0,1,.09,1,2,2,0,0,1-.78,1.44,3.93,3.93,0,0,1-2.32.51C117.44,32.05,117.19,32.05,117,32Zm.22-10.88c0,.15,0,.28,0,.43s0,.56,0,.84v1.86l.06,3.31A3.44,3.44,0,0,0,120,24.28a3,3,0,0,0-.5-2.26A2.78,2.78,0,0,0,117.42,21C117.26,21,117.17,21,117.17,21.15Zm0,10.53a5.91,5.91,0,0,0,2.15-.2,1.71,1.71,0,0,0,1-1.53,1.56,1.56,0,0,0-.82-1.46,4.48,4.48,0,0,0-1.15-.47,7.62,7.62,0,0,0-1.18-.1v.14A23,23,0,0,1,117.19,31.68Z"/><path class="cls-6" d="M127.11,31a7,7,0,0,1-.8-2.35,7.31,7.31,0,0,1,.51-4.88,5.4,5.4,0,0,1,1.48-1.91,1.71,1.71,0,0,1,1.31-.35c.24.05,1.13.48.75.7s-.4-.12-.53-.2a.9.9,0,0,0-.69-.13,2,2,0,0,0-1.06.75,6.58,6.58,0,0,0-1.24,2.21,8.08,8.08,0,0,0-.2,1.18,7.3,7.3,0,0,0,0,1.32,9.35,9.35,0,0,0,.44,2.47,4,4,0,0,0,1.35,2,1,1,0,0,0,1,.11,1.22,1.22,0,0,0,.64-.58,2.55,2.55,0,0,0,.31-1c0-.16,0-.48.31-.45s.2.32.18.45a2.66,2.66,0,0,1-.53,1.31,1.52,1.52,0,0,1-1.24.71A2.57,2.57,0,0,1,127.11,31Z"/><path class="cls-6" d="M136.44,31.8c0-.22,0-.42,0-.64,0-.37,0-.72.05-1.09V27.69c0-.93,0-1.85-.09-2.77s-.15-1.81-.22-2.72c0-.21,0-.43,0-.63a1.67,1.67,0,0,1,0-.59c0-.07.11-.1.15-.15a.3.3,0,0,1,.29,0l.64.2a5.91,5.91,0,0,1,2.57,1.34,5.13,5.13,0,0,1,1.08,2.21,7.38,7.38,0,0,1,.22,2.6,5.86,5.86,0,0,1-1.17,3.21,4.63,4.63,0,0,1-1.42,1.2,3.74,3.74,0,0,1-1.79.56C136.47,32.1,136.44,31.93,136.44,31.8Zm.49-5.1c0,1.67,0,3.35,0,5a4.36,4.36,0,0,0,2.26-1.18,5.19,5.19,0,0,0,1.21-2.18,6.53,6.53,0,0,0,.27-2.44,8.77,8.77,0,0,0-.62-2.32,3.25,3.25,0,0,0-.49-.94,2.65,2.65,0,0,0-.93-.73,11.32,11.32,0,0,0-2-.78,1.6,1.6,0,0,0,0,.31c0,.58.15,1.74.22,2.6S136.91,25.83,136.93,26.7Z"/><path class="cls-6" d="M146.62,32.23c0-.22,0-.42,0-.64,0-.43.07-.85.07-1.29,0-.87,0-1.72,0-2.6s0-1.72,0-2.59,0-1.83,0-2.74c0-.15,0-.35.09-.5s.35-.12.53-.12c.51,0,1,0,1.57,0,.27,0,1.33,0,1.22.37s-.36.08-.51.05a3.8,3.8,0,0,0-.82-.08h-1.06c-.13,0-.27,0-.38,0s-.15.19-.17.29a3.7,3.7,0,0,0,0,.59c0,.85,0,1.71,0,2.56,0,.57,0,1.12.05,1.68v1a1.65,1.65,0,0,0,0,.3c0,.1.27.1.4.1.37,0,.77,0,1.15,0a.63.63,0,0,1,.38.08.14.14,0,0,1,0,.2.69.69,0,0,1-.4.08l-.64,0c-.31,0-.62,0-.93,0,0,1.09-.11,2.18-.11,3.27.62,0,1.26,0,1.9,0a4.91,4.91,0,0,0,1-.12,1,1,0,0,1,.29,0,.17.17,0,0,1,.13.23c-.11.14-.38.17-.55.19s-.62.08-.93.1c-.69,0-1.38,0-2.06,0C146.64,32.57,146.62,32.38,146.62,32.23Z"/><path class="cls-7" d="M145.42,75.82H134.93a.76.76,0,0,1,0-1.51h10.49a.76.76,0,0,1,0,1.51Z"/><path class="cls-8" d="M177.73,134s-8.87-20.69-2.78-42.22C175,91.73,184.8,109.93,177.73,134Z"/><path class="cls-9" d="M175.48,96.71q0,4.31.23,8.6c.12,2.86.29,5.72.47,8.57s.41,5.71.67,8.57.56,5.7.92,8.54c0-2.87-.09-5.73-.23-8.59s-.29-5.72-.47-8.58-.41-5.71-.67-8.56S175.84,99.56,175.48,96.71Z"/><path class="cls-8" d="M179.67,146.94s5.79-20.68-18.17-37.76C161.5,109.18,153,132.61,179.67,146.94Z"/><path class="cls-9" d="M178.81,144.69c-1.72-2.39-3.26-4.89-4.74-7.41-.74-1.26-1.46-2.54-2.15-3.83l-1-1.94-1-2c-1.28-2.63-2.48-5.3-3.56-8s-2.06-5.48-3-8.27c.16.72.32,1.44.5,2.16s.33,1.43.54,2.14c.42,1.41.82,2.83,1.33,4.21a73,73,0,0,0,3.41,8.17,73.81,73.81,0,0,0,4.35,7.7A52.17,52.17,0,0,0,178.81,144.69Z"/><path class="cls-9" d="M161.5,109.18c24,17.08,18.17,37.76,18.17,37.76S179.23,128.75,161.5,109.18Z"/><path class="cls-8" d="M195.12,91.26s13.14,31.34-14.23,55.33C180.89,146.59,169.11,117.59,195.12,91.26Z"/><path class="cls-9" d="M192.9,97.23a96.71,96.71,0,0,0-4.66,11.07c-.68,1.88-1.29,3.79-1.88,5.7-.31,1-.58,1.92-.84,2.89s-.54,1.93-.78,2.9l-.7,2.93c-.22,1-.42,2-.62,2.94l-.29,1.48-.25,1.48c-.16,1-.34,2-.46,3a72,72,0,0,0-.67,12c.61-4,1.25-7.87,2-11.76.08-.49.21-1,.31-1.46l.31-1.45.31-1.46.35-1.45c.23-1,.43-1.93.66-2.9l.73-2.88c.23-1,.49-1.92.74-2.89l.37-1.44.4-1.43c.49-1.93,1.07-3.83,1.59-5.75Z"/><path class="cls-9" d="M180.89,146.59c19.85-26.21,14.23-55.33,14.23-55.33S208.26,122.6,180.89,146.59Z"/><path class="cls-8" d="M174.11,148.24s-19.59-2.55-25.22-33C148.89,115.22,174.67,122.1,174.11,148.24Z"/><path class="cls-9" d="M151.44,118.06l4.79,7.29c.8,1.21,1.6,2.42,2.42,3.61l1.22,1.79,1.26,1.77c.4.6.84,1.17,1.26,1.76l.63.88.66.86c.43.58.85,1.17,1.3,1.73s.9,1.13,1.34,1.7c1.83,2.24,3.72,4.42,5.78,6.49a39.4,39.4,0,0,1-6.57-5.81,70.84,70.84,0,0,1-5.49-6.84q-2.53-3.58-4.7-7.4A70.48,70.48,0,0,1,151.44,118.06Z"/><path class="cls-9" d="M174.11,148.24c.56-26.14-25.22-33-25.22-33S168.36,125.45,174.11,148.24Z"/><path class="cls-8" d="M182.25,145.11s.78-20.51,27.35-26.85C209.6,118.26,207.31,143,182.25,145.11Z"/><path class="cls-9" d="M207.55,120.2a82.3,82.3,0,0,0-6.76,4.84c-2.18,1.72-4.3,3.52-6.33,5.42a76.13,76.13,0,0,0-5.78,6,41.83,41.83,0,0,0-4.8,6.81,68.9,68.9,0,0,1,5.32-6.34l1.42-1.5,1.47-1.46c.48-.49,1-1,1.48-1.44s1-1,1.5-1.42l1.51-1.41,1.54-1.38c1-.93,2.07-1.84,3.11-2.74C203.32,123.78,205.42,122,207.55,120.2Z"/><path class="cls-9" d="M182.25,145.11c19.86-6.4,27.35-26.85,27.35-26.85S207.31,143,182.25,145.11Z"/><rect class="cls-10" x="162.43" y="142.9" width="29.97" height="19.74" transform="translate(354.84 305.53) rotate(180)"/><rect class="cls-6" x="166.65" y="145.61" width="25.76" height="1.08" transform="translate(359.06 292.29) rotate(180)"/><rect class="cls-6" x="166.65" y="150.07" width="25.76" height="1.02" transform="translate(359.06 301.16) rotate(180)"/><rect class="cls-6" x="166.65" y="154.47" width="25.76" height="1.08" transform="translate(359.06 310.03) rotate(180)"/><path class="cls-7" d="M46.06,82.5A5.63,5.63,0,0,0,48.89,86,4.22,4.22,0,0,0,46.06,82.5Z"/><path class="cls-11" d="M49.35,85l-2.41,2.26s3.83,1.46,1.21,1.46S45,87.44,43.46,87.21s-3.33,1.47-7.81,1.46,1.64-.33,3.33-1.78c0,0,1.26-2.74,2.18-2.89a21.18,21.18,0,0,1,3.26,0l2.94-1.73Z"/><path class="cls-11" d="M136.55,37.7s7.22-4.33,7.56-4-4.44,4.13-4.44,4.13Z"/><path class="cls-12" d="M139.67,37.88s4.77-3.75,4.44-4.13c0,0-.09,0-.18,0-.55.72-2.08,2-6.41,3.79l-.12.22Z"/><path class="cls-11" d="M139.53,37.45s2.43-.87,2.08.46-2.3,4.57-5.31,3.25S139.53,37.45,139.53,37.45Z"/><path class="cls-12" d="M140.52,37.21s-.06,3.07-2.79,3.81-.56-2.86-.56-2.86l2.7-1.17Z"/><path class="cls-11" d="M132.37,41.17l4.18-3.47s3.32-.71,3.17,0-1.18,3.06-1.84,3.06-.3-1.78-.3-1.78l-2.66,4.54Z"/><path class="cls-13" d="M77.37,152.38A57.88,57.88,0,0,0,76,161.5a1.15,1.15,0,0,1-1.15,1.14H61.06c-1.3,0,2.6-2.61,6.2-2.76,3.17-.12,3.83-5.69,3.83-5.69Z"/><path class="cls-14" d="M77.37,152.38l-6.28,1.81s-.49,4.13-2.65,5.35a6.32,6.32,0,0,1,2.8,1.26c1.07,1.07,2.91-.93,4.85-1.26A69.47,69.47,0,0,1,77.37,152.38Z"/><path class="cls-13" d="M114.54,152.38A57.08,57.08,0,0,1,116,161.5a1.16,1.16,0,0,0,1.16,1.14h13.73c1.3,0-2.6-2.61-6.2-2.76-3.16-.12-3.83-5.69-3.83-5.69Z"/><path class="cls-14" d="M120.28,160.88a8.05,8.05,0,0,1,3.17-1.35c-2.15-1.24-2.64-5.34-2.64-5.34l-6.27-1.81a71.13,71.13,0,0,1,1.26,7C118.35,160,118.71,162.12,120.28,160.88Z"/><path class="cls-13" d="M123.54,158.38a18.3,18.3,0,0,1-8.75-.2C111,157,98,124.91,91.8,105.31a102.75,102.75,0,0,1-3.11-11.48,12.52,12.52,0,0,1,1.71-9.55A12.94,12.94,0,0,1,96,79.81c3.6-1.57,7.5-1.58,9.26-.37,0,0,.11.64.33,1.8C107.5,91.55,117.39,143,124,157.44A.67.67,0,0,1,123.54,158.38Z"/><path d="M89.45,86a13.2,13.2,0,0,0-.76,7.86A148.23,148.23,0,0,0,94,112a76.79,76.79,0,0,1,5.82-26.35Z"/><path class="cls-13" d="M103.85,79.44l-2,3-7,10.84s-1.21,4.88-3,12c-4.15,16.37-11.43,44.55-14.32,52.15a1.12,1.12,0,0,1-1,.71,17.31,17.31,0,0,1-6.52-.95,1.08,1.08,0,0,1-.67-1.08c.4-6.57,3.46-54.11,9.17-74.11.14-.49.28-1,.43-1.42L96,79.81Z"/><path d="M105.56,81.24c-1,.41-2.28.83-3.7,1.24s-3.06.85-4.9,1.25a27.15,27.15,0,0,1-6.56.55A42.57,42.57,0,0,1,78.47,82c.14-.49.28-1,.43-1.42L96,79.81c3.6-1.57,7.5-1.58,9.26-.37C105.23,79.44,105.34,80.08,105.56,81.24Z"/><path class="cls-15" d="M88.18,40.41a113.43,113.43,0,0,1,17.52,39,.79.79,0,0,1-.43.9,33,33,0,0,1-26.37.31s1-10.3,0-13.06-4.83-12.09-3.78-17.86Z"/><path class="cls-15" d="M136.1,42.91c-1.61,2.22-12.53,17-19.39,16.78-7.43-.22-20.29-5.58-20.29-5.58L76.91,58.55s-6.13,10.1-8.27,12.63S48.89,86,48.89,86c-.38-1.45-2.83-3.52-2.83-3.52l1.16-1.2.11-.11C50.39,78,58.12,70,60.07,67.88c2.45-2.6,12.32-21,13.32-22.12a4.08,4.08,0,0,1,.69-.56l.14-.09c2.39-1.61,8.58-4.7,8.58-4.7h8.14c1.53,0,24.54,11.48,24.54,11.48L131.6,41.28l.15-.1,1-.66a.42.42,0,0,1,.36-.05,9.57,9.57,0,0,1,2.93,1.91A.4.4,0,0,1,136.1,42.91Z"/><path class="cls-14" d="M82.72,38.28s3.4-5.73.15-9.42-17.12.19-11.13,4.76S82.72,38.28,82.72,38.28Z"/><path class="cls-11" d="M77.63,39.27a7.87,7.87,0,0,1,3,3.47,2.41,2.41,0,0,0,4.58-1,.88.88,0,0,0-.18-.57l-4-5.29Z"/><path class="cls-12" d="M79.88,41.43a7.24,7.24,0,0,0-2.25-2.16L79,37.94l1.82-1.31S81.17,40.12,79.88,41.43Z"/><path class="cls-11" d="M81.08,35.9s-1.54,5-4.75,6-6-9-3.79-10.89,6.53-.28,7.83,3.44c0,0,.69-1.4,1.11-.83S82.39,36.78,81.08,35.9Z"/><path class="cls-12" d="M78.35,31.51l1.3,3.56s-1.19.23-2.45-1.34-5.16,0-5.45.08A3.74,3.74,0,0,1,72.54,31C74,29.69,76.51,30,78.35,31.51Z"/><path class="cls-14" d="M80.37,34.4s-.39,1-1,.56c-1.2-.83-2.09-4.41-7.6-1.34l-1-2.89,8.58-2.07S80.09,32.89,80.37,34.4Z"/><path class="cls-12" d="M74.85,38s-.62,1.15-1.42.32A1.27,1.27,0,0,0,74.85,38Z"/><path class="cls-6" d="M76.87,38.85l-2.8,1S75.66,42.4,76.87,38.85Z"/><path class="cls-14" d="M76.2,35.29a1.15,1.15,0,0,0-1.86.35Z"/><path class="cls-16" d="M70.69,32a6.17,6.17,0,0,0,2.42.18A8.28,8.28,0,0,0,74.32,32c.39-.09.78-.24,1.16-.33a4,4,0,0,1,.59-.07,2.88,2.88,0,0,1,.59,0,3.75,3.75,0,0,1,1.12.4,4.79,4.79,0,0,1,1,.7,5.86,5.86,0,0,1,.81.91,5,5,0,0,0-1.72-1.71,3.28,3.28,0,0,0-2.39-.4c-.41.09-.77.25-1.17.34l-.59.13-.59.1a8.11,8.11,0,0,1-1.21.07A5.46,5.46,0,0,1,70.69,32Z"/><path class="cls-16" d="M82.07,29.24a5.53,5.53,0,0,1,.46.82c.07.14.13.28.19.42s.11.29.16.44l.14.44.11.45c0,.15.05.3.07.45a3.73,3.73,0,0,1,0,.46l0,.23v.23a3.69,3.69,0,0,1,0,.47l0,.46a1.7,1.7,0,0,1,0,.22l0,.23a7,7,0,0,1-.24.9c0,.15-.11.29-.16.43l-.18.44.21-.42a3.36,3.36,0,0,0,.2-.43,6.58,6.58,0,0,0,.28-.89,6.25,6.25,0,0,0,.16-1.88A6.32,6.32,0,0,0,83,30.88,5.76,5.76,0,0,0,82.07,29.24Z"/><path class="cls-12" d="M81.07,34.75c.08.36.22.64.33.62s.14-.34.07-.7-.22-.64-.33-.62S81,34.39,81.07,34.75Z"/><path class="cls-17" d="M99.41,80.08a.08.08,0,0,1-.08-.07,72.49,72.49,0,0,0-7.86-25.72,54.72,54.72,0,0,0-6.1-9.44.08.08,0,0,1,0-.11.07.07,0,0,1,.11,0,55.68,55.68,0,0,1,6.12,9.46A72.78,72.78,0,0,1,99.48,80a.07.07,0,0,1-.06.09Z"/><path class="cls-17" d="M77.54,63.88a36.81,36.81,0,0,0,.74-7.76l-2.07,3.56C76.63,61.19,77.1,62.62,77.54,63.88Z"/><path class="cls-17" d="M93.55,48.75c1.42,2.37,2.87,5.36,2.87,5.36s.86.36,2.26.89C96.63,52.78,93.55,48.75,93.55,48.75Z"/><path class="cls-17" d="M82.89,50.26,79.36,43a.07.07,0,0,1,0-.1.07.07,0,0,1,.1,0l3.36,6.9,1.93-6a.09.09,0,0,1,.1,0,.07.07,0,0,1,0,.09Z"/><path class="cls-17" d="M91.46,47.29,85.2,44.18a.07.07,0,1,1,.07-.13l5.64,2.79L86.3,41.07a.08.08,0,0,1,0-.11.08.08,0,0,1,.11,0Z"/><path class="cls-17" d="M78.36,51.15a.08.08,0,0,1-.06.09.09.09,0,0,1-.09-.07,9.53,9.53,0,0,0-4.13-6l.14-.09A9.68,9.68,0,0,1,78.36,51.15Z"/><path class="cls-17" d="M87.78,46.41c.21.34.26.68.12.77s-.43-.11-.64-.44-.26-.67-.12-.76S87.57,46.08,87.78,46.41Z"/><path class="cls-17" d="M95.64,60.94c.12.37.08.72-.08.77s-.39-.22-.51-.59-.08-.72.08-.77S95.52,60.56,95.64,60.94Z"/><path class="cls-17" d="M98.25,69c.08.38,0,.72-.14.76s-.37-.24-.46-.62,0-.72.14-.76S98.16,68.62,98.25,69Z"/><path class="cls-17" d="M100.12,77.83c.07.38,0,.72-.17.75s-.36-.26-.43-.65,0-.72.18-.75S100.06,77.44,100.12,77.83Z"/><path class="cls-17" d="M92,53.19c.18.36.19.7,0,.78s-.41-.15-.59-.51-.19-.69,0-.77S91.87,52.84,92,53.19Z"/><polygon class="cls-17" points="126.54 44.61 115.48 51.89 111.65 55.26 126.54 44.61"/><path class="cls-17" d="M51.2,77.16,64.86,63.88l-4.79,4c-1.35,1.44-5.45,5.72-8.87,9.28Z"/><path d="M77.25,94.28a.53.53,0,0,1-.29-.1.47.47,0,0,1-.07-.65l6.93-8.79a.46.46,0,0,1,.72.57L77.61,94.1A.45.45,0,0,1,77.25,94.28Z"/><path d="M70.78,156.52a.08.08,0,0,1-.07-.08c.6-25.89,9.84-65.22,9.93-65.61a.08.08,0,0,1,.09-.06.08.08,0,0,1,.06.1c-.1.39-9.33,39.7-9.93,65.57A.09.09,0,0,1,70.78,156.52Z"/><path d="M117.47,157.59a.1.1,0,0,1-.07,0c-14.08-27-19.48-64.1-19.53-64.47,0,0,0-.08.07-.09a.06.06,0,0,1,.08.06c.06.38,5.45,37.5,19.52,64.42a.09.09,0,0,1,0,.11Z"/><path class="cls-17" d="M50.08,84.37c-.06,0-.09,0-.1,0a11.23,11.23,0,0,0-2.76-3l.11-.11a11.61,11.61,0,0,1,2.78,3.08A.07.07,0,0,1,50.08,84.37Z"/><path class="cls-17" d="M131.75,41.18a10.07,10.07,0,0,1,3,2.29.08.08,0,0,1,0,.11l-.05,0a.09.09,0,0,1-.06,0,10.12,10.12,0,0,0-3.06-2.29Z"/><path class="cls-17" d="M135.57,43.31a.33.33,0,1,1-.33-.32A.32.32,0,0,1,135.57,43.31Z"/><path class="cls-17" d="M49.67,84.94a.32.32,0,1,1-.32-.32A.32.32,0,0,1,49.67,84.94Z"/><path class="cls-18" d="M19.43,160.65a2,2,0,1,1-2-2A2,2,0,0,1,19.43,160.65Z"/><path class="cls-18" d="M48.66,160.65a2,2,0,1,1-2-2A2,2,0,0,1,48.66,160.65Z"/><path class="cls-19" d="M47.52,160.65a.85.85,0,0,1-1.69,0,.85.85,0,0,1,1.69,0Z"/><path class="cls-19" d="M18.28,160.65a.85.85,0,1,1-.84-.84A.85.85,0,0,1,18.28,160.65Z"/><path class="cls-10" d="M52.91,89.62V90H10.83V88.67H52a1,1,0,0,1,.95.87Z"/><path class="cls-20" d="M52.91,89.62V90H10.83v-.42H52.91Z"/><path class="cls-10" d="M4,72.18a.4.4,0,0,0-.36.56l7,15.51.19.42H34.37l-7.16-16a.89.89,0,0,0-.82-.53Z"/><path class="cls-6" d="M33.3,88.13c.05,0,.06,0,.05-.07L26.54,72.75s0,0,0,0H6.78a.05.05,0,1,0,0,.1H26.46L33.25,88.1A.05.05,0,0,0,33.3,88.13Z"/><polygon class="cls-6" points="18.73 80.04 16.47 80.04 18.23 81.96 18.73 80.04"/><rect class="cls-4" x="30.68" y="90.85" width="2.68" height="68.65"/><path class="cls-4" d="M58.11,91.74H6A.89.89,0,1,1,6,90H58.11a.89.89,0,1,1,0,1.78Z"/><path class="cls-4" d="M48.45,159.5H15.58a.66.66,0,0,1,0-1.32H48.45a.66.66,0,0,1,0,1.32Z"/><path class="cls-4" d="M37.54,92.58H26.47a.84.84,0,0,1-.84-.84H38.38A.84.84,0,0,1,37.54,92.58Z"/></g></g></g></svg>