<svg xmlns="http://www.w3.org/2000/svg" viewBox="0 0 336.98 259.06"><defs><style>.cls-1{isolation:isolate;}.cls-2{fill:#75c189;opacity:0.3;}.cls-3{fill:#eaeaea;mix-blend-mode:multiply;}.cls-18,.cls-4{fill:#fff;}.cls-10,.cls-11,.cls-12,.cls-13,.cls-14,.cls-15,.cls-17,.cls-19,.cls-20,.cls-21,.cls-22,.cls-23,.cls-24,.cls-26,.cls-27,.cls-28,.cls-29,.cls-30,.cls-31,.cls-32,.cls-33,.cls-34,.cls-35,.cls-38,.cls-39,.cls-4,.cls-42,.cls-43,.cls-44,.cls-45,.cls-46,.cls-47,.cls-48,.cls-49,.cls-50,.cls-51,.cls-52,.cls-53,.cls-56,.cls-57,.cls-58,.cls-6,.cls-62,.cls-63,.cls-64,.cls-66,.cls-7,.cls-8,.cls-9{fill-rule:evenodd;}.cls-5,.cls-64{fill:#ceccca;}.cls-6{fill:#c9d1d8;}.cls-7{fill:#314865;}.cls-8{fill:#dadada;}.cls-9{fill:#bcbcbc;}.cls-10{fill:#c6c7fc;}.cls-11{fill:#e9eef2;}.cls-12{fill:#354a63;}.cls-13,.cls-61{fill:#3c150b;}.cls-14,.cls-41{fill:#db8f7b;}.cls-15{fill:#fcae98;}.cls-16,.cls-35{fill:#a46451;}.cls-17{fill:#377872;}.cls-19{fill:#d6dbf5;}.cls-20{fill:#1e62b9;}.cls-21{fill:#3677e4;}.cls-22{fill:#e6a498;}.cls-23{fill:#f7beb3;}.cls-24{fill:#4c3530;}.cls-25{fill:#b16d61;}.cls-26{fill:#8a94c9;}.cls-27{fill:#b0b2f7;}.cls-28{fill:#d8d9fd;}.cls-29{fill:#e4e4fd;}.cls-30{fill:#cecffc;}.cls-31,.cls-36{fill:#26364c;}.cls-32,.cls-59{fill:#fad27f;}.cls-33{fill:#fc7270;}.cls-34{fill:#c27d6a;}.cls-37,.cls-58{fill:#834837;}.cls-38,.cls-65{fill:#e94846;}.cls-39,.cls-40{fill:#29307d;}.cls-42,.cls-55{fill:#e85451;}.cls-43,.cls-54{fill:#cd8876;}.cls-44{fill:#9da7d8;}.cls-45{fill:#f3bc5b;}.cls-46{fill:#b77b24;}.cls-47{fill:#ce9334;}.cls-48{fill:#cf8a7f;}.cls-49{fill:#301e49;}.cls-50{fill:#cbcbcb;}.cls-51{fill:#e5e5e5;}.cls-52{fill:#fcb9a4;}.cls-53{fill:#eaa18c;}.cls-56{fill:#718da9;}.cls-57{fill:#3c5677;}.cls-60,.cls-62{fill:#cf9d38;}.cls-63{fill:#eef0f1;}.cls-66{fill:#f4f4ff;}</style></defs><g class="cls-1"><g id="Layer_2" data-name="Layer 2"><g id="Option_1" data-name="Option 1"><path class="cls-2" d="M185.09,248.05C90.57,259.32,45.72,233.81,45.72,233.81S-19.86,209.25,6.06,121.54C26.69,51.74,122.43-14.76,175.41,2.87s52,48,112.27,84.64,51.59,72.45,43.79,91C331.47,178.51,306.87,233.53,185.09,248.05Z"/><ellipse id="_Path_" data-name="&lt;Path&gt;" class="cls-3" cx="151.14" cy="247.74" rx="70.78" ry="11.32"/><path class="cls-4" d="M163.67,212s.3,15,.38,16.57-.66,6.07,6,8.16,36.74,8.2,36.74,8.2l-63.31,7.46S115,247.25,111,243.5s-3.75-4.94-3.83-9,0-18.84,0-18.84L163.67,212Z"/><path class="cls-5" d="M107.76,213.59c.25,6.1.8,19.21,1,24.54a5.64,5.64,0,0,0,3.63,5.46c4.54,2.12,28.32,8.13,31.09,8.83L206.79,245l.34,3-63.86,7.52-.26-.07c-.08,0-26.72-6.67-31.89-9.09a8.77,8.77,0,0,1-5.37-8.39l-1-24.22,3-.12Z"/><path class="cls-6" d="M41.61,8.5q54.49,2.13,109,4.18t109,3.94c4.06.14,7.74,3.41,8.13,7.23,2.94,28.6,5.75,57.22,8.11,85.82s4.44,57.19,6.59,85.79a7.29,7.29,0,0,1-6.81,7.55c-36.24,3.43-72.37,7.26-108.57,10.4s-72.49,5.47-108.8,7.53c-4,.22-7.61-3.16-8-7.55-2.61-32.85-5.43-65.73-8-98.59s-5-65.74-7.37-98.61c-.31-4.39,2.72-7.85,6.77-7.69Z"/><path class="cls-4" d="M43.33,6.68q54.49,2.13,109,4.18t109,4c4.06.14,7.74,3.41,8.14,7.22,2.94,28.61,5.74,57.23,8.1,85.82s4.44,57.2,6.59,85.8a7.29,7.29,0,0,1-6.81,7.55c-36.24,3.43-72.37,7.26-108.57,10.4s-72.49,5.47-108.8,7.52c-4,.23-7.61-3.15-8-7.54-2.61-32.85-5.43-65.74-8-98.59s-5-65.74-7.36-98.61c-.32-4.39,2.71-7.85,6.76-7.7Z"/><path class="cls-7" d="M48.1,18.12c2.25,31.33,4.53,62.66,7,94C57,136,59,159.79,61,183.64l210.12-13.43c-1.53-20.48-3.08-41-4.77-61.43-2.29-27.64-5-55.24-7.81-82.83q-53.32-1.87-106.65-3.86-51.9-1.93-103.78-4Z"/><path class="cls-8" d="M162.91,12.84c1.4.1,2.63,1.65,2.75,3.48s-.93,3.23-2.33,3.14-2.63-1.65-2.75-3.48.93-3.23,2.33-3.14Z"/><path class="cls-9" d="M163,13.73a2.55,2.55,0,0,1,2,2.55c.09,1.34-.68,2.37-1.71,2.3a2.56,2.56,0,0,1-2-2.55c-.09-1.34.68-2.37,1.71-2.3Z"/><path class="cls-10" d="M156.9,73.47q-24.74-.12-49.44-.32Q106.31,60.6,105.18,48T103,22.77l49.44,1.87q1.09,12.27,2.22,24.46c.75,8.13,1.51,16.27,2.27,24.37Z"/><path class="cls-11" d="M126.93,60.32s-1.1-.72-6.05.75-7.41,3.88-8.14,6.26a18.59,18.59,0,0,0-.73,5.86q20.17.16,40.34.27C152,70.83,152,69,150.05,66s-14.39-5.7-14.39-5.7-3.63,2.47-8.73,0Z"/><path class="cls-12" d="M141.38,60.38c1.33.51,2.67,1,4,1.55q.5,5.75,1.05,11.5c-1.32,0-2.63,0-3.92,0q-.6-6.51-1.16-13Z"/><path class="cls-13" d="M133.78,27.33s-1.95-2.75-6.92-2.48-7.23,3.33-8.19,7.26,1.24,10.51,2.28,12.1,17.49,1.28,17.49,1.28,1.79-1.82,2.11-9-5.76-9.89-6.77-9.2Z"/><path class="cls-14" d="M121.63,41.81s-.93-1.69-2.1-1.13-1,3.37.43,5,2.18,1.92,2.1,1.1-.3-3.26-.43-4.93Z"/><path class="cls-14" d="M137.44,42.25s.63-1.61,1.9-1,1.6,3.38.44,4.89-1.83,1.79-1.91,1-.3-3.23-.43-4.86Z"/><path class="cls-15" d="M131.59,50.25l1.88.27s-.35,6.43.75,7.88a15.27,15.27,0,0,0,3.94,3A12.67,12.67,0,0,1,131,62.73a10.71,10.71,0,0,1-6.34-2.38s2.6-.92,2.89-1.89-.81-7.44-.81-7.44c1.62-.28,3.26-.52,4.9-.77Z"/><path class="cls-14" d="M131.59,50.25l1.88.27a38.68,38.68,0,0,0,.18,6.16,8,8,0,0,1-6.18-.11c-.22-2.24-.78-5.55-.78-5.55,1.62-.28,3.26-.52,4.9-.77Z"/><path class="cls-12" d="M118.34,61.05l3.83-1c.38,4.42.77,8.79,1.16,13.18-1.31,0-2.62,0-3.91,0-.38-4.07-.75-8.12-1.08-12.2Z"/><path class="cls-15" d="M120.4,37.83s.49,9.62,3.18,13.11A8.41,8.41,0,0,0,135,53.1c3.91-2.56,3.56-9.37,3.57-11s-1.49-6.4-1.49-6.4a17.68,17.68,0,0,1-2.78-3.62,11.15,11.15,0,0,1-.44-1.39s-1.51.93-2.71,1.82a3.76,3.76,0,0,0-1.45,1.83,2,2,0,0,1-.35-1.93c.42-1.09.46-1.24.46-1.24A9,9,0,0,0,126.23,33a8.66,8.66,0,0,0-1.52,2s-.7-.2-.48-1.28.44-1.9.44-1.9a46.89,46.89,0,0,0-3.06,4.22,6.79,6.79,0,0,1-1.21,1.72Z"/><path class="cls-16" d="M126.73,47.4a5.32,5.32,0,0,0,6.06.11l.4.58a6,6,0,0,1-6.81-.19,4.46,4.46,0,0,1,.35-.5Z"/><path class="cls-16" d="M129.55,41.89a6.52,6.52,0,0,1-.32,2.4.75.75,0,0,0-.18.24c-.22.28-.39.52-.26.69s1.18.31,1.18.31c0,.24,0,.46.07.67,0,0-1.23,0-1.71-.59s-.18-1,.17-1.51a3,3,0,0,0,.18-.24,6.25,6.25,0,0,0,.22-2c.22,0,.44,0,.65,0Z"/><path class="cls-13" d="M125.11,39.32c.51,0,1,.58,1,1.31s-.31,1.31-.81,1.29-1-.6-1-1.32.29-1.3.81-1.28Z"/><path class="cls-13" d="M132.58,39.52c.51,0,1,.62,1,1.33s-.3,1.28-.81,1.27a1.33,1.33,0,0,1-1-1.32c-.07-.72.29-1.29.81-1.28Z"/><path d="M122.88,37.67a2.78,2.78,0,0,1,3.89.29l-.44.43a2.19,2.19,0,0,0-3-.19,4.52,4.52,0,0,1-.43-.53Zm11.75.35s-2.4-1.81-3.85,0a5.62,5.62,0,0,0,.53.46c1.09-1.44,3,0,3,0,.11-.17.22-.33.33-.51Z"/><path class="cls-4" d="M124.82,39.88a.3.3,0,0,1,.29.28.25.25,0,0,1-.24.28.32.32,0,0,1-.29-.29.25.25,0,0,1,.24-.27Z"/><path class="cls-4" d="M132.25,40.08a.33.33,0,0,1,.3.29.24.24,0,0,1-.24.27.3.3,0,0,1-.28-.28.23.23,0,0,1,.22-.28Z"/><path class="cls-17" d="M217.45,170.94c-16.82,1.26-33.63,2.53-50.43,3.68s-33.61,2.13-50.43,3.1q-2.2-25.51-4.42-51.15t-4.54-51.43c16.89.11,33.77.23,50.65.27s33.77,0,50.67,0c1.49,16,3,32,4.42,48s2.76,31.77,4.08,47.62Z"/><path class="cls-18" d="M140.85,153.9c-.48-.08-.94-.15-1.4-.27a8,8,0,0,1-6-6,6.17,6.17,0,0,1,1.14-5.42,7.48,7.48,0,0,1,5.25-3,13.13,13.13,0,0,1,1.78-.06,3.05,3.05,0,0,0,1-.07,1.25,1.25,0,0,1,.53.07c.48.13.94.26,1.4.43s.88.4,1.36.61a1.41,1.41,0,0,1,.24-.27,8.6,8.6,0,0,1,5.39-3.17,9.22,9.22,0,0,1,2.82-.11,1.69,1.69,0,0,0,.39,0,1.39,1.39,0,0,1,.9,0,9.64,9.64,0,0,1,4,1.85,6.71,6.71,0,0,1,2.52,4.26,6.78,6.78,0,0,1-1.84,5.87,7.69,7.69,0,0,1-2.15,1.65c-.22.12-.26.24-.24.5a8.45,8.45,0,0,1-1.82,6.64,8.58,8.58,0,0,1-4.92,3.09,8.42,8.42,0,0,1-8.89-3.25,8.52,8.52,0,0,1-1.45-3.38ZM202.56,79c-.4.52-1,.56-1.29.1.21-.14.39-.16,1.29-.1Zm4.73,12.3a1.3,1.3,0,0,1,1.18,0,1.65,1.65,0,0,1-.15.25.93.93,0,0,1-.75.12c-.17,0-.26-.16-.28-.4Zm-2.5,5.15a2.12,2.12,0,0,1,1.29-.18,1.08,1.08,0,0,1-1,.58.35.35,0,0,1-.31-.4Zm-8.39-2.86a1.6,1.6,0,0,1-1.13.19.4.4,0,0,1-.35-.34,1.24,1.24,0,0,1,1.48.15Zm-1.33.64a2.68,2.68,0,0,1,1.75-.1,3.53,3.53,0,0,1-1.27.48c-.26,0-.33,0-.48-.38Zm10-2.31a1.11,1.11,0,0,1-1.24.59.36.36,0,0,1-.33-.4,4.67,4.67,0,0,1,1.57-.19ZM189.84,79.8a8.24,8.24,0,0,1,2.08.12c-.07.07-.09.15-.16.18a2.86,2.86,0,0,1-1.51.18c-.26,0-.33-.1-.41-.48ZM187.93,94c-.07.08-.07.13-.11.15a2.54,2.54,0,0,1-1.12.35c-.39,0-.41,0-.61-.43a2.68,2.68,0,0,1,1.84-.07Zm21.81,2c.07.21-.07.3-.2.4a1.32,1.32,0,0,1-.81.27c-.37,0-.44,0-.61-.4a2.61,2.61,0,0,1,1.62-.27ZM190,80.72a5.44,5.44,0,0,1,2.19.07,1.82,1.82,0,0,1-.28.16,3.68,3.68,0,0,1-1.32.24.58.58,0,0,1-.59-.47Zm7.93,23.07a2.87,2.87,0,0,1-1.56.43c-.26,0-.46-.11-.5-.41a6.43,6.43,0,0,1,1.53-.23.51.51,0,0,1,.53.21Zm6.15-19.48a.89.89,0,0,1-.77.51c-.19,0-.39,0-.59.07s-.33,0-.5-.28a2.07,2.07,0,0,1,1.86-.3Zm-5.78,20.38a4.28,4.28,0,0,1-1.84.43c-.22,0-.26-.18-.35-.31.09-.17.26-.17.42-.19a4.1,4.1,0,0,1,1.77.07Zm9.59-7c-.07.2-.17.15-.31.07a1.59,1.59,0,0,1-.74-1,1.68,1.68,0,0,1,.31-1.47s.13,0,.28-.13c-.09.49-.35.88-.18,1.31a3.24,3.24,0,0,0,.64,1.18ZM207.07,90a1.27,1.27,0,0,0-.13.35A1.85,1.85,0,0,0,207,91.8c.16.3.29.61.44.9a.22.22,0,0,1,0,.16c-.07,0-.2,0-.22,0a4.14,4.14,0,0,1-.57-.77,2.3,2.3,0,0,1,0-1.92.31.31,0,0,1,.4-.19Zm-17.41,16c-.28-.11-.28-.3-.35-.46s-.07-.24-.22-.29a1.16,1.16,0,0,1-.35-.35c.18-.1.29-.14.44-.22a5.15,5.15,0,0,0,0-.55c0-.16,0-.27.3-.22.07.24.13.48.22.78.27,0,.51-.08.79-.09-.07.41-.46.51-.77.7,0,.22,0,.45,0,.7Zm15.61-26.66c-.28-.27-.3-.31,0-.48a4,4,0,0,1,.46-.26,4.27,4.27,0,0,1,.48-.13,2.85,2.85,0,0,1,.18,2.1c-.53-.38-.46-.9-.57-1.42a3.52,3.52,0,0,1-.51.19ZM202.16,93.5c-.37-.31-.39-.37-.54-1.43l-.44-.3a3.85,3.85,0,0,1,.46-.51.44.44,0,0,1,.37-.07c.07,0,.15.18.17.27.09.39.14.79.2,1.21a.88.88,0,0,1-.22.83ZM208,86a1.13,1.13,0,0,1-.46-.84,9.29,9.29,0,0,1-.09-.95c-.15,0-.32.15-.43-.09s0-.29.32-.47.42-.13.53,0a.48.48,0,0,1,.11.21c.07.5.15,1,.22,1.46a1.05,1.05,0,0,1-.2.68Zm-9.39-1.69c.24-.13.33-.45.74-.31-.13.18-.24.37-.35.55.22.29.66.45.68.94-.35-.17-.63-.33-.94-.51-.35.19-.29.67-.66.9a.31.31,0,0,1-.17-.45c.13-.27.26-.51.39-.8l-.52-.53c.19-.14.19-.14.83.21Zm6.94-.45c-.22-.24-.64-.29-.61-.67.37-.15.61.19,1,.25.31-.17.48-.59,1.07-.51-.26.27-.48.51-.68.74.16.22.29.4.42.61-.28.16-.46-.1-.7-.12l-.64.72c-.28-.48.07-.7.18-1ZM197.74,79c.22-.4.22-.81.61-1.18a6.77,6.77,0,0,1-.17,1c-.07.34-.11.68-.2,1a9.62,9.62,0,0,1-.24,1c-.18,0-.22-.11-.22-.21a5,5,0,0,1,0-.78.62.62,0,0,0-.11-.53c-.17-.33-.35-.7-.5-1,0,0,0-.08,0-.1l.06-.19c.09,0,.2,0,.24.08.18.29.35.59.55.94Zm-11.3,3.68c-.57-.44-.52-1-.55-1.56a1.6,1.6,0,0,0-.3.08.27.27,0,0,1-.29-.18c-.06-.11,0-.19.09-.26a5.55,5.55,0,0,1,.46-.35c.31-.21.55-.08.59.27s.11.77.18,1.14a1,1,0,0,1-.18.86Zm12.48-2.92c-.19,0-.37,0-.39-.2a.5.5,0,0,1,.17-.28.79.79,0,0,1,.38-.18.53.53,0,0,1,.41.06c.18.07.13.24.11.37s-.15.42-.24.64c.29,0,.55.05.88.1a1.55,1.55,0,0,1-.86.64.47.47,0,0,1-.48-.11c-.15-.16-.31-.32-.22-.55s.15-.29.24-.49Zm5.13,1c-.29-.7,0-1.28.17-1.92a2.92,2.92,0,0,1-.92-.93.26.26,0,0,1,.42,0,1.17,1.17,0,0,1,.3.34,2.51,2.51,0,0,1,.29.38c.26-.41.24-1,.79-1.2a13.26,13.26,0,0,0-.59,2.16c-.09.36-.22.68-.33,1,0,.08-.09.13-.13.21Zm-.9,26.14c-.09,0-.2.05-.29,0a2,2,0,0,1-.32-.17,3.16,3.16,0,0,1-1.25-2.08,3.3,3.3,0,0,1,.13-1.62s0-.11,0-.14a.23.23,0,0,1,.16-.07.24.24,0,0,1,.11.15,4.2,4.2,0,0,1,0,.51,4,4,0,0,0,1.07,3,3.64,3.64,0,0,0,.4.37ZM203,96.11c.67.09.89.33.61,1a1.9,1.9,0,0,1-.83,1c-.42-.23-.44-.36-.18-.65s.33-.36.48-.52a1.31,1.31,0,0,0,.09-.26c-.35,0-.72,0-.81-.4-.07,0-.11,0-.15,0s-.27.06-.31-.1a.39.39,0,0,1,.15-.22,1.14,1.14,0,0,1,.31-.16c.37-.15.53-.07.64.32Zm1.44,9.09s.09-.1.15-.11c.68-.18,1.36-.36,2-.52a5.49,5.49,0,0,1,.81,0c.11,0,.29.09.31.17a.33.33,0,0,1-.11.31.66.66,0,0,1-.44.17c-.64.15-1.27.24-1.93.37a.83.83,0,0,1-.24,0c-.35,0-.44,0-.59-.38Zm4.58.65a.67.67,0,0,1-.13-.27,6.41,6.41,0,0,1,0-.88,2.6,2.6,0,0,1,.11-.62,2.17,2.17,0,0,0-.35-1.7c-.09-.13-.26-.26-.05-.38s.31.06.4.17a2.21,2.21,0,0,1,.59,1.65,4.2,4.2,0,0,1-.33,1.73,2.48,2.48,0,0,0-.17.32.2.2,0,0,1-.11,0Zm.11-15.07c-.27,0-.49,0-.57-.21s.06-.27.37-.42l.22-.08c.44-.09.66.08.63.48a2.61,2.61,0,0,1-.11.5c0,.14-.08.25-.13.43l.42,0a2.58,2.58,0,0,1,.39,0,.63.63,0,0,1-.41.68.69.69,0,0,1-.73-.11c-.24-.19-.41-.43-.28-.73s.11-.34.2-.56Zm-8.78-5.4-.29.16c-.26-.24-.28-.29-.11-.46a1.47,1.47,0,0,1,.57-.32c.37-.1.61.11.53.45s-.2.56-.29.83a2.35,2.35,0,0,0-.11.35c.29,0,.55.06.81.1a.76.76,0,0,1-.94.67.7.7,0,0,1-.48-.72,5.05,5.05,0,0,1,.22-.69c0-.1.11-.22.15-.32l-.06-.05ZM189.59,93.9a3.7,3.7,0,0,1,.66-1.19v.21a10.06,10.06,0,0,0-.48,2.63,14.32,14.32,0,0,1-.22,1.44c0,.06,0,.11-.13.24,0-.16-.09-.26-.11-.34a5.31,5.31,0,0,1,.11-2,.81.81,0,0,0-.11-.58c-.2-.33-.37-.72-.55-1.09,0-.11-.06-.22.07-.24a.41.41,0,0,1,.28.1c.18.27.31.54.48.85ZM184,82.58a.38.38,0,0,1-.19-.5,6.7,6.7,0,0,1,.28-.94c.09-.24.2-.48.29-.74A3.3,3.3,0,0,1,183.2,79c.15-.17.28-.12.42,0s.35.43.52.67l.33.42c.31-.54.35-1.15.85-1.55a20,20,0,0,1-1.29,4Zm26.45,12.49a.83.83,0,0,0-.06.78c.22.06.22-.1.24-.21a5.51,5.51,0,0,1,.06-.57,1,1,0,0,0,.07-.15c.07.8.13,1.59.22,2.37-.18-.19-.18-.45-.29-.69a.67.67,0,0,1-.76-.45,1.1,1.1,0,0,1,.06-1c.07-.15.22-.21.46-.11ZM191.24,94a2.77,2.77,0,0,0-.29.21c-.3-.24-.3-.26-.17-.51a.82.82,0,0,1,.61-.55c.35-.08.63.11.59.45a8.71,8.71,0,0,1-.2.85c0,.19-.11.4-.17.61l.85,0a.65.65,0,0,1-.41.75.77.77,0,0,1-.79,0,.79.79,0,0,1-.35-.82c.09-.32.2-.64.33-1Zm15.48,15.3c-.33-.4-.16-.8-.31-1.17-.31.08-.44-.08-.57-.35a5.92,5.92,0,0,1,.62-.3c0-.21,0-.42,0-.66l-.65.1c-.33,0-.38,0-.46-.36a5.51,5.51,0,0,1,1.35-.38c.31,0,.44.1.44.4s0,.46,0,.7c.31.12.61-.14.92.15a3.58,3.58,0,0,1-.59.25.39.39,0,0,0-.29.42,1.72,1.72,0,0,1-.41,1.2Zm-.72-7.14a2.11,2.11,0,0,0,.3.1c.46.16.59.32.53.73a1.29,1.29,0,0,1-.44.84.75.75,0,0,1-1.14,0,3,3,0,0,1-.35-.45l.59,0a.49.49,0,0,0,.57-.35,1.25,1.25,0,0,1-.7-.36.58.58,0,0,1,0-.7,3,3,0,0,1-.44-.21c-.06,0-.06-.17-.11-.25a.93.93,0,0,1,1,0c.35.18.2.48.18.77ZM187.38,105c.16-.46.27-.85.4-1.25a1.37,1.37,0,0,1,.15-.35c0-.08.11-.19.24-.1a.24.24,0,0,1,0,.23c-.1.51-.21,1-.32,1.49-.16.78-.31,1.53-.46,2.3,0,.08,0,.18,0,.27a1,1,0,0,1,0,.24c0,.12-.07.27-.24.24s-.22-.17-.24-.27a1.6,1.6,0,0,1-.05-.72,7.83,7.83,0,0,1,.24-1.17.67.67,0,0,0-.13-.67c-.33-.43-.63-.88-.92-1.31a1.16,1.16,0,0,1-.15-.43c0-.07.07-.16.13-.16a.29.29,0,0,1,.2.07c.2.6.79,1,1.09,1.59Zm22.38,7.19.83-.47s0,0,0,.05l-.13.21c.67.24.74.33.65,1a.19.19,0,0,0,.07.06c.5.23.59.42.46.92a1.49,1.49,0,0,1-.86.88,1.18,1.18,0,0,1-1.48-.77,1.15,1.15,0,0,1,.26,0,2.17,2.17,0,0,0,.52.08.8.8,0,0,0,.88-.49c-.2,0-.42,0-.57-.16s-.15-.28,0-.44a.86.86,0,0,0,.24-.52c-.26-.23-.77.11-.9-.4Zm-18-8c-.31-.24-.35-.38-.22-.65a1.24,1.24,0,0,1,1-.6c.46,0,.73.18.7.6a1.13,1.13,0,0,1-.11.48c-.13.36-.28.73-.46,1.13a3.33,3.33,0,0,1,1.52.32,2.71,2.71,0,0,1-1.54.56.78.78,0,0,1-.76-1c.13-.32.3-.6.46-.91l.21-.48c-.24,0-.41.08-.41.19,0,.31-.2.29-.35.37Zm9.13-5.49c-.15-.21-.31-.32-.35-.46a12,12,0,0,1-.48-1.2c-.29-1-.59-2-.83-3a6.12,6.12,0,0,1-.16-2.58,2.25,2.25,0,0,1,.2-.64.68.68,0,0,1,.22-.26.23.23,0,0,1,.2,0c.06,0,.08.13.06.19a.42.42,0,0,1-.09.27c-.37.34-.26.8-.24,1.23a11.37,11.37,0,0,0,.7,3.11c.29.86.59,1.7.88,2.56a.78.78,0,0,1-.11.8Zm-5.43-21a3,3,0,0,1-.13-.29,1,1,0,0,0-.35.55,3.93,3.93,0,0,0-.13,1.65c.11,1.13.24,2.27.39,3.41.09.64.2,1.28.31,1.92a5.11,5.11,0,0,1,.13.59.57.57,0,0,1-.18.56.71.71,0,0,1-.37-.45,4.36,4.36,0,0,1-.17-.78c-.18-1.39-.35-2.79-.46-4.16a8,8,0,0,1,0-2.45,3,3,0,0,1,.2-.6.85.85,0,0,1,.19-.3c.16-.21.38-.29.51-.22s.13.19,0,.57Zm.9,5a2.59,2.59,0,0,1,1.05-.24c1.14-.15,2.3-.24,3.44-.4,1.33-.2,2.65-.47,4-.69a20.37,20.37,0,0,1,3.5-.37,2.39,2.39,0,0,1,.53.06.31.31,0,0,1,.19.18.28.28,0,0,1-.13.21,2.93,2.93,0,0,1-.68.14,45.92,45.92,0,0,0-5.21.71,34.63,34.63,0,0,1-4,.52c-.75.05-1.49.1-2.21.17-.31,0-.33,0-.46-.29Zm14.34,10.88-3.37.48c-.57.07-1.12.13-1.69.16a29,29,0,0,0-3.09.37c-.37.06-.76,0-1.13.08a.2.2,0,0,1-.2,0,.22.22,0,0,1-.13-.17c0-.05.06-.12.13-.16s.11,0,.15,0l2.39-.47c.7-.11,1.42-.14,2.12-.24,1-.12,1.95-.25,2.91-.4.62-.08,1.23-.17,1.84-.27,0,.24,0,.5.07.72Zm-62.8,1.46a1.6,1.6,0,0,0,.24.22c2.06,1.54,4.25,2.88,6.44,4.24,2.87,1.8,5.76,3.59,8.63,5.37a.66.66,0,0,0,.15.09c.3.18.48.4.35.74,0,0,0,0,0,.06s.31.07.46.13.29.22.2.4a.55.55,0,0,1-.53.38c-.76,0-1.51.1-2.28.13l-2.73.08-3,.15c-.9,0-1.8.08-2.67.12l-2.83.1c-1,0-2.1-.06-3.13,0s-2.19.16-3.28.22c-.83.07-1.64.18-2.45.21a9.68,9.68,0,0,1-1.67-.18.43.43,0,0,1-.39-.24c0-.06-.07-.16,0-.17.22-.16.11-.32.09-.5a7.37,7.37,0,0,1-.09-1.13,8.15,8.15,0,0,0-.11-1.85c-.13-1.23-.28-2.46-.41-3.69-.09-.67-.18-1.35-.26-2-.33-2.24-.6-4.5-.77-6.77-.11-1.25-.22-2.5-.31-3.75,0-.22,0-.44,0-.67.2-.14.35,0,.49.15s.48.6.74.86c.72.64,1.45,1.25,2.17,1.87s1.68,1.38,2.54,2c1.31,1.06,2.63,2.13,4,3.16a3.28,3.28,0,0,0,.37.22c-.26-.29-.54-.56-.81-.86a3.46,3.46,0,0,1-.35-.53,1.71,1.71,0,0,1,.07-1.88,4,4,0,0,1,1.07-1,17.77,17.77,0,0,1,3.75-2c.81-.31,1.62-.6,2.47-.9,0,0,0,0,0,0a34.34,34.34,0,0,1,1.6-4.71,9.74,9.74,0,0,0,.68-2.37c0-.26.15-.34.42-.29a.32.32,0,0,1,.3.4,6.38,6.38,0,0,1-.15.66c-.46,1.2-.94,2.38-1.4,3.58-.31.77-.59,1.56-.9,2.31a2.42,2.42,0,0,1-.07.32,2.11,2.11,0,0,1,.4-.1,28.93,28.93,0,0,1,4.86-.89,43.05,43.05,0,0,1,4.71-.24,10.66,10.66,0,0,1,2.38.22,1.91,1.91,0,0,1,.44.16c.13.08.2.19.09.34a.88.88,0,0,0-.59-.26,11.76,11.76,0,0,0-1.67-.14,36.68,36.68,0,0,0-10.44,1.37,23.08,23.08,0,0,0-6,2.66,6.12,6.12,0,0,0-1.42,1.26,1.1,1.1,0,0,0-.07,1.3,3.56,3.56,0,0,0,1.21,1.23,6.49,6.49,0,0,0,2.78,1c1.07.18,2.16.3,3.24.4,1.38.08,2.78.11,4.18.18a20.54,20.54,0,0,0,6.17-.63,7.15,7.15,0,0,0,3.18-1.63,4.14,4.14,0,0,0,1.44-2.85,4.75,4.75,0,0,0-.54-2,1,1,0,0,0-.57-.51,5.2,5.2,0,0,0-1.78-.3,11.38,11.38,0,0,1-2.51-.33,11.66,11.66,0,0,1-1.52-.56c.11-.17.29-.14.42-.14.81,0,1.6,0,2.41.1.46,0,.94.06,1.4.11a5.19,5.19,0,0,1,1.6.29,2.17,2.17,0,0,1,1.2,1,4.51,4.51,0,0,1-.57,5.31,6.93,6.93,0,0,1-3.78,2.19,15.67,15.67,0,0,1-3.73.64c-1,0-2.12.12-3.19.08a56.91,56.91,0,0,1-6.64-.51A8.62,8.62,0,0,1,148,95.11ZM124,81.7a.76.76,0,0,1-.37-.06.42.42,0,0,0-.57.12,2.7,2.7,0,0,0-.26.4c.18.4.66.65.5,1.09-.19.07-.28,0-.39-.17a2.76,2.76,0,0,1-.68-1.54.94.94,0,0,0,.28.1c.2-.34.44-.71,1-.66s.41.4.59.64c0,0,0,.06,0,.08Zm33.31,28.19a2.11,2.11,0,0,1,1-.32c.24,0,.35.14.27.35s-.42.35-.73.4-.35-.21-.5-.43ZM129.49,98.83a.77.77,0,0,1-.59.46l-.86.07a.26.26,0,0,1-.28-.24,3,3,0,0,1,1.73-.29Zm23.6-6a1.67,1.67,0,0,1,1.49-.12c-.06.3-.31.38-.55.44a1.86,1.86,0,0,1-.52.07c-.26,0-.31-.18-.42-.39Zm-.89,17.72a1.66,1.66,0,0,1-1.17.63.45.45,0,0,1-.37-.21c-.13-.16-.09-.27.09-.32a3.57,3.57,0,0,1,1.45-.1ZM153,91.82a2.11,2.11,0,0,1,1.58.08c-.09.38-.4.38-.7.36s-.7.08-.88-.44Zm8.34.12.44.2c-.41.16-.37.49-.52.78-.2-.19-.29-.42-.57-.45-.13,0-.16-.21-.05-.3a2.77,2.77,0,0,1,.24-.15,2.16,2.16,0,0,1,0-.36c0-.07.11-.16.18-.16s.15.08.2.14a1.92,1.92,0,0,1,.08.3ZM181.08,80a3.22,3.22,0,0,1,2.08,0c-.11.09-.18.16-.24.17a3.3,3.3,0,0,1-1.54.13.32.32,0,0,1-.3-.3ZM127.65,97.9a3,3,0,0,1,1.44-.19.47.47,0,0,1,.27.16c0,.14-.09.21-.2.25a2.35,2.35,0,0,1-1.12.2c-.24,0-.28,0-.39-.42Zm22.68,11.91a.72.72,0,0,1,.24-.11,7.93,7.93,0,0,1,1.08-.12c.19,0,.41,0,.52.18s-.13.3-.41.35-.7,0-1.08,0c-.17,0-.17,0-.35-.33Zm28.27-5.65a1.08,1.08,0,0,1-.15.27c-.31.21-.61.42-.92.59a.64.64,0,0,1-.31.07.4.4,0,0,1-.37-.28c0-.16.07-.19.18-.25a3.86,3.86,0,0,1,1.57-.4ZM137.22,83.09a.86.86,0,0,1-.22-.19c-.2-.29-.37-.58-.55-.88a.46.46,0,0,1-.06-.22.16.16,0,0,1,.28-.13c.09,0,.13.16.2.22l.85-.45c0,.13.05.21,0,.26s-.17.22-.26.34-.31.28-.13.57,0,.34-.13.48Zm25.95,8.45c-.33.12-.49.29-.44.61a.53.53,0,0,1-.07.4,1.87,1.87,0,0,1-.33-1.52c.35,0,.2.26.35.37.11-.08.2-.18.33-.26a.46.46,0,0,1,.66.2c.2.32.35.67,0,1-.37-.16-.42-.48-.52-.8Zm-1.69,17.18.39,0c.27,0,.33.16.22.37a.59.59,0,0,1-.72.34.72.72,0,0,1-.48-.67,1.76,1.76,0,0,1,0-.31c-.22.06-.22.06-.39.29-.29-.23-.31-.35-.09-.56a.7.7,0,0,1,.37-.22c.37-.15.57,0,.61.36a3.65,3.65,0,0,0,0,.42Zm-1.6,1.84a1.61,1.61,0,0,1-.28-.42,5.15,5.15,0,0,1-.31-1c0-.05.07-.14.09-.22s.19.06.24.13a1,1,0,0,1,.17.3s.07,0,.07,0c.44-.32.7-.25,1,.2a.71.71,0,0,1,0,.86c-.46-.1-.42-.53-.64-.82a.38.38,0,0,0-.2.5c.07.16,0,.29-.15.48ZM131.57,76.88a2.6,2.6,0,0,0,.41-.22c.49-.45.64-.47,1.27-.08,0,.46-.15.54-.65.3-.2.16-.4.34-.59.51a4,4,0,0,1,.52,1.49,2.81,2.81,0,0,1-1-2Zm26,31.92a1,1,0,0,1-1.16.58.51.51,0,0,1-.37-.71,2.1,2.1,0,0,1,.15-.22.36.36,0,0,0-.07-.1.32.32,0,0,1-.15-.41.45.45,0,0,1,.5-.18.35.35,0,0,1,.33.35,3.75,3.75,0,0,1,0,.45c.55,0,.55,0,.81.24Zm-5.72-15.94a1.15,1.15,0,0,1-.65.65.44.44,0,0,1-.53-.11A1.79,1.79,0,0,1,150,92a.9.9,0,0,1,1.07-.68c.22,0,.24.12.11.43a.54.54,0,0,0-.18,0c-.46,0-.61.29-.44.67a1,1,0,0,0,.16.26.37.37,0,0,0,.44.19l.48-.07.19,0Zm-35.77,15.6c-.2.36-.22.76-.51,1-.15-.06-.24-.11-.2-.27.16-.45.31-.91.46-1.38.05-.13.09-.22.27-.24a.28.28,0,0,1,.28.24c.26.56.51,1.09.75,1.65a.75.75,0,0,1-.05.8c-.61-.46-.61-1.18-1-1.81Zm19.37-11.68c.27-.07.27-.07.55.37a1.77,1.77,0,0,0,.15-.18.68.68,0,0,1,1.12.26,1.69,1.69,0,0,1,.18,1.41c-.55-.34-.57-.89-.77-1.35-.37,0-.55.19-.55.51s0,.4,0,.59,0,.26,0,.41a4,4,0,0,1-.66-2Zm28.47-6.68-.35.23c-.29-.26-.31-.42-.07-.59a1,1,0,0,1,.35-.2c.42-.12.7.07.7.5a1.09,1.09,0,0,1,0,.4c.29,0,.55-.11.83.11a.79.79,0,0,1-.48.71.73.73,0,0,0-.26.09.58.58,0,0,1-.81-.62,1.82,1.82,0,0,1,.11-.43v-.2Zm-8.3,20.44c-.44-.22-.46-.57-.59-.91-.39.19-.11.67-.44.88-.33-.05-.33-.37-.5-.61-.07.26-.11.48-.16.72-.41-.12-.5-.49-.35-1.26.27,0,.53,0,.77,0,.09,0,.15-.09.22-.16a.58.58,0,0,1,1,.31,3.2,3.2,0,0,1,.15.61,1.37,1.37,0,0,1-.09.44Zm-32.43-4.46c.51,0,.44.45.7.65.11,0,.11-.19.18-.3a.51.51,0,0,1,.41-.35.46.46,0,0,1,.51.09.44.44,0,0,1-.09.53c-.46.26-.42.69-.42,1.12a1.61,1.61,0,0,1-.08.52c0,.15-.18.17-.31,0a2,2,0,0,1-.2-.31c-.24-.59-.48-1.2-.7-1.82,0,0,0-.07,0-.16Zm36.28-15.51a3,3,0,0,1,.51-.11,1.28,1.28,0,0,1,.39,0,.3.3,0,0,1,.2.18.5.5,0,0,1-.33.54c-.26.08-.55.13-.83.19a.43.43,0,0,1-.48-.16c-.11-.16-.22-.3-.13-.49s.21-.55.32-.84c-.28,0-.37.16-.48.31-.33-.16-.39-.35-.17-.53a1.73,1.73,0,0,1,.63-.29.42.42,0,0,1,.48.4,1.19,1.19,0,0,1,0,.42c0,.11-.06.24-.09.4ZM179,80.92a10,10,0,0,1,.94-2.16.31.31,0,0,1,.05.12c-.33,1.28-.68,2.56-1,3.83,0,.05-.07.1-.13.17a1.48,1.48,0,0,1-.11-.22c0-.18-.07-.37,0-.53a2.31,2.31,0,0,0-.22-1.45,12.32,12.32,0,0,1-.4-1.44c0-.13,0-.24.16-.26s.22.11.24.22c.15.55.31,1.11.48,1.72Zm-54,15.6a6,6,0,0,1,.37,1.41,2.49,2.49,0,0,0,.33-.16.65.65,0,0,1,.9.56,1.46,1.46,0,0,1-.4,1.25c-.11.14-.26.29-.48.21a.84.84,0,0,1-.61-.51,1.65,1.65,0,0,1,0-.31,7.31,7.31,0,0,0-.18-2,2.82,2.82,0,0,1,0-.41.3.3,0,0,0,.13,0Zm1.07,1.73h0c-.46.1-.63.5-.46,1a.75.75,0,0,0,.46-1Zm59.06-4.93a.27.27,0,0,1,0,.18c-.11,1.15-.24,2.29-.37,3.44,0,.06-.07.09-.09.17a.45.45,0,0,1-.28-.44,4.33,4.33,0,0,1,0-.72.87.87,0,0,0-.13-.45c-.38-.63-.71-1.25-1-1.86a.21.21,0,0,1,0-.32.24.24,0,0,1,.3.15,3.49,3.49,0,0,1,.25.4c.21.38.43.76.7,1.2a8.25,8.25,0,0,1,.22-.92,1.73,1.73,0,0,1,.26-.84ZM135.4,98.84c-.46-.24-.48-.72-.72-1.17a2.06,2.06,0,0,1-.09.47c0,.1-.09.24-.18.25s-.24-.09-.3-.24-.13-.27-.26-.43a.71.71,0,0,0-.09.27c0,.16.09.33.11.49a1,1,0,0,1-.05.36,2.24,2.24,0,0,1-.57-1.76c.27-.08.18.24.33.27a1.28,1.28,0,0,1,.35-.06.35.35,0,0,0,.27-.16.55.55,0,0,1,1,.1,3.67,3.67,0,0,1,.35.81.76.76,0,0,1-.13.8Zm-3.63,0c.46,0,.83-.29,1.27,0a1.46,1.46,0,0,0,0,.2,1.18,1.18,0,0,1-1.14.53.8.8,0,0,1-.63-.91,4.47,4.47,0,0,1,.24-.66c-.15,0-.33.18-.46,0a.42.42,0,0,1,0-.5,1,1,0,0,1,.77-.39.31.31,0,0,1,.37.31,1.85,1.85,0,0,1-.07.62,6.24,6.24,0,0,1-.32.84Zm2.36-23.49v.39c.39-.07.72-.31,1.18-.13a1.19,1.19,0,0,1-.59.88l-.42.21a.54.54,0,0,1-.61,0,.7.7,0,0,1-.3-.67c0-.21.08-.38.11-.59,0,0,0-.06,0-.1Zm-15.28,34.15a1.46,1.46,0,0,1-.49.83,25,25,0,0,1-2.82,2.48l-.07,0c-.08.06-.19.16-.32,0s-.09-.27,0-.39l1.25-1.13c.41-.43.83-.87,1.29-1.3.19-.19.44-.37.65-.54a1.61,1.61,0,0,1,.42-.11.3.3,0,0,1,.07.08Zm16.73-25.52a3.68,3.68,0,0,1-.92-1.55c-.16.08-.29.17-.42.25-.26-.25-.26-.25-.09-.49a5.48,5.48,0,0,1,1.71-1.49c.18-.1.18-.1.46,0-.2.22-.37.45-.57.64a.38.38,0,0,0,0,.51c.22.48.43.94.61,1.43a1.25,1.25,0,0,1,.07.57,5.27,5.27,0,0,1-1.06-2c-.13.11-.24.21-.39.32.24.43.46.88.68,1.31.11.18.2.35,0,.56Zm20.84,9a.41.41,0,0,1-.33-.46c0-.34,0-.69,0-1.06a.6.6,0,0,0,.46-.1.6.6,0,0,1,.7,0,3.62,3.62,0,0,1,.53-.17.52.52,0,0,1,.63.25,10.84,10.84,0,0,1,.29,1.35c0,.14-.09.29-.16.48-.63-.32-.59-.84-.68-1.33-.35.14-.19.57-.48.75-.44-.14-.44-.53-.54-.93a.81.81,0,0,0-.25.64.5.5,0,0,1-.15.53Zm-8.23,17.78a2.23,2.23,0,0,1-.2.36c-.26.38-.68.36-1,0a1.1,1.1,0,0,1,.79-1.71.51.51,0,0,1,.51.21,2.91,2.91,0,0,0,.24.41,3.16,3.16,0,0,0,.37.53.49.49,0,0,0,.46.22.18.18,0,0,1,.24.2.48.48,0,0,1-.24.43.43.43,0,0,1-.51,0,7.33,7.33,0,0,1-.65-.6Zm-.48-.83h0c-.49.35-.53.51-.24.8a1.31,1.31,0,0,0,.24-.8Zm-30.55,4.84c.44.24.53.22.83-.12a.92.92,0,0,0,.31-.84h-.48a.4.4,0,0,1-.42-.56,1.59,1.59,0,0,1,.18-.37l-.09,0-.53.74a.3.3,0,0,1-.15-.44,2.87,2.87,0,0,1,.88-1.09.4.4,0,0,1,.21-.06c.2,0,.33,0,.33.22a2.44,2.44,0,0,1-.11.61,1.23,1.23,0,0,1-.11.34s0,0,.07,0c.7.08.9.28.81,1a1.71,1.71,0,0,1-.57,1.18.78.78,0,0,1-1.2-.38,1.08,1.08,0,0,1,0-.19Zm14.32-38.5c-.22.29-.39.53-.57.74a.44.44,0,0,0-.11.49c.09.24.15.48.26.71a3.17,3.17,0,0,1,.22,1.42c-.22-.16-.33-.3-.57-1-.13-.35-.21-.67-.35-1.12-.21.16-.39.27-.61.43.18.33.33.65.5.95s.25.42.33.62a.5.5,0,0,1,0,.55c-.33-.16-.33-.16-1.09-1.89l-.42.24c-.09,0-.15.14-.26.16a.37.37,0,0,1-.29-.06c-.1-.08-.08-.18,0-.28s.38-.3.57-.46c.59-.48,1.21-1,1.82-1.43.18-.12.18-.11.57-.06Zm1.14,7.48a3.15,3.15,0,0,0-.22.33c-.28-.16-.39-.33-.28-.59a3.27,3.27,0,0,1,.46-.79c.13-.2.37-.19.59-.12s.26.27.24.51c0,.42-.09.8-.13,1.2a1.55,1.55,0,0,0-.05.29,4.8,4.8,0,0,1,1.56-.53c0,.11,0,.19-.07.21a7.1,7.1,0,0,1-1.31,1.26c-.18.1-.35.24-.55.08a.7.7,0,0,1-.37-.67c.06-.38.13-.77.19-1.15l-.06,0Zm47.19,20.68c1-.2,1.75-.53,2.6-.63a.1.1,0,0,1,0,.07.79.79,0,0,1-.21.24c-.46.28-.88.57-1.34.83a2.51,2.51,0,0,1-.79.25.68.68,0,0,1-.72-.22c-.18-.21-.33-.43-.2-.72s.29-.53.4-.8a4,4,0,0,0,.15-.45.58.58,0,0,0-.68.15,4,4,0,0,0,.18.36.4.4,0,0,1-.4-.25.37.37,0,0,1,.05-.5,1,1,0,0,1,.89-.26.63.63,0,0,1,.51.71,5.78,5.78,0,0,1-.24.77,3.55,3.55,0,0,1-.22.45ZM174,105.68c.05.38.22.72-.06,1a.48.48,0,0,1-.33-.4c-.16-.45-.31-.9-.44-1.39,0-.08,0-.26,0-.29a.57.57,0,0,1,.42-.08,3,3,0,0,1,.48.3c.09.08.18.18.31.28.15-.32.3-.6.46-.88a.52.52,0,0,1,.43-.29.42.42,0,0,1,.55.24,6,6,0,0,1,.57,1.33.47.47,0,0,1-.13.48c-.57-.2-.66-.71-1-1.17-.14.33-.24.61-.33.89-.2.58-.29.6-.79.15a1,1,0,0,0-.2-.16ZM173,107a1.62,1.62,0,0,1-.88.75,15.42,15.42,0,0,1-1.58.53.63.63,0,0,1-.83-.31.5.5,0,0,1,0-.53c.26-.43.53-.83.79-1.26.09-.1.18-.21.31-.38-.18,0-.29,0-.4.06l-1.44.4c-.26.08-.26.08-.44-.18a6.13,6.13,0,0,1,3.2-.84c.13.25,0,.44-.13.62s-.35.43-.53.66a5.27,5.27,0,0,0-.59.91A4.72,4.72,0,0,1,173,107Zm-48.15-3c-.38,0-.35.4-.51.61-.28-.15-.35-.26-.35-.47a.92.92,0,0,1,.79-.77.48.48,0,0,1,.59.45,6.13,6.13,0,0,1,.07.76c0,.12,0,.24,0,.38.35-.08.68-.19,1.07-.29-.06-.14-.11-.32-.17-.48s-.11-.27-.15-.41a.2.2,0,0,1,.08-.15s.16,0,.18,0a1.73,1.73,0,0,1,.13.21c.2.42.39.82.61,1.25.09-.13.16-.24.24-.34a.57.57,0,0,1,.92,0,2,2,0,0,1,.38.58c.13.27.24.57.35.86,0,0,0,.1-.05.22-.63-.24-.81-.83-1.14-1.28a.65.65,0,0,0-.19.74,1.55,1.55,0,0,0,.13.38.51.51,0,0,1-.11.55c-.24,0-.33-.21-.4-.37-.19-.37-.37-.77-.54-1.14-.07-.12-.09-.25-.18-.44a1.32,1.32,0,0,1-.28.25,5.17,5.17,0,0,1-.66.59c-.22.18-.42.12-.61-.12a1,1,0,0,1-.22-.71c0-.3,0-.59,0-.91Zm-4.71,3.55-.53.37c-.13.08-.24.14-.37,0a.22.22,0,0,1,0-.36c.22-.2.42-.43.66-.64.59-.49,1.18-1,1.82-1.48a1.29,1.29,0,0,1,.57-.26.84.84,0,0,1,.37.06c-.09.55-.51.77-.86,1.06a4.92,4.92,0,0,1,.86,3c0,.16-.11.28-.18.44-.37-.22-.37-.24-.3-.62a2.15,2.15,0,0,0-.07-.5,5.91,5.91,0,0,0-.66-2.13l-.94.69c.18.61.37,1.17.53,1.73a6.15,6.15,0,0,1,.19,1,1.51,1.51,0,0,1-.06.41c-.09.19-.26.21-.37,0a.7.7,0,0,1-.13-.42c-.16-.69-.29-1.37-.44-2.06,0-.1-.07-.18-.11-.31Zm39-29.77c.37-.16.68-.34,1-.45.7-.25,1.4-.51,2.1-.75a3.74,3.74,0,0,1,.42,0,.45.45,0,0,0,0,.08,1,1,0,0,1-.15.13c-.62.34-1.23.64-1.84,1a3.5,3.5,0,0,0-.62.41c.18.08.33.18.49.26-.05.27-.29.1-.38.18a5.86,5.86,0,0,1,.68.64.6.6,0,0,1,.13.43s-.11.13-.19.14-.11-.08-.16-.13,0-.09-.08-.11l-1.25-.75c-.07.42.15.8,0,1.17-.38-.19-.2-.71-.64-.87-.44.36-1,.6-1.23,1.16-.26-.12-.32-.21-.21-.42s.28-.37.43-.58a1.08,1.08,0,0,0,.24-.28c-.41.2-.94.2-1.16.7-.37-.16-.41-.3-.11-.53a4.52,4.52,0,0,1,.71-.41c.24-.15.5-.26.83-.45a7.08,7.08,0,0,0-2.19-.34c0,.08,0,.15-.07.23a3.09,3.09,0,0,1-.37-.2c-.2-.16-.2-.35,0-.4a10.18,10.18,0,0,1,1.23-.09c.17,0,.35,0,.57,0-.11-.31-.5-.47-.5-.79a.32.32,0,0,1,.43.08c.18.14.35.27.53.43a.53.53,0,0,0,.61.13c.07.13,0,.39.26.37,0-.47.07-.9.11-1.33a1.9,1.9,0,0,1,.14-.48c0-.11.08-.19.26-.13.13.35-.13.63-.09,1s0,.66,0,1Zm26,35.31c-.13.29-.17.35-.46.26a1.59,1.59,0,0,1-.43-.16,17.27,17.27,0,0,0-4.47-1.59c-1.34-.35-2.69-.64-4-1-.74-.17-.55-.06-1-.61a1.59,1.59,0,0,0-.3.18c.52.58,1,1.14,1.53,1.71.11.18.24.35.37.55a.32.32,0,0,1,0,.43c-.11.14-.29,0-.42,0a2.59,2.59,0,0,1-.48-.38c-.28-.29-.5-.61-.77-1s-.5-.59-.76-.89a1.45,1.45,0,0,1-.16-.18c-.28-.4-.26-.51.18-.72a10,10,0,0,0,1.95-1.1c.15-.11.15-.11.44-.1,0,.59-.62.69-.9,1.11.15,0,.28.09.44.12,1.29.34,2.62.68,3.94,1.06a21.83,21.83,0,0,1,3.5,1.18l.26.15,1.62.91ZM122.77,78a7.87,7.87,0,0,1,5,1.65,7.08,7.08,0,0,1,2.69,4.1,8.14,8.14,0,0,1-1.69,7.33,7.83,7.83,0,0,1-5.25,2.85,7.66,7.66,0,0,1-7.36-3.19,7.56,7.56,0,0,1-1.64-4.93,7.23,7.23,0,0,1,2-4.86,7.4,7.4,0,0,1,2.36-1.81,1.6,1.6,0,0,0,.22-.24,1,1,0,0,1,.31-.22,8.42,8.42,0,0,1,3.44-.68ZM129,82.34h0a3.39,3.39,0,0,1-.29.21c-.76.5-1.49,1-2.27,1.47-1.38.82-2.78,1.55-4.21,2.35a.67.67,0,0,1-.44-.44c-.11-.24,0-.44.22-.48a1.9,1.9,0,0,0,.55-.28c.24-.17.48-.33.74-.48a52.7,52.7,0,0,0,4.82-2.86,2.51,2.51,0,0,1,.37-.27,7.52,7.52,0,0,0-8.82-2.08c-.07,0-.17.06-.22,0-.24-.16-.37,0-.52.08a8.23,8.23,0,0,0-2.39,2.16,6.78,6.78,0,0,0-1,6.5,7.19,7.19,0,0,0,8.18,4.7,7.3,7.3,0,0,0,3.77-2,7.19,7.19,0,0,0,2.23-6.2,6.06,6.06,0,0,0-.76-2.4Zm34,23.53h0c-.17-.13-.26-.19-.37-.26-3-1.9-6.09-3.84-9.15-5.73A77,77,0,0,1,143,92.18c-.33-.28-.66-.54-1-.81-.81-.72-1.64-1.39-2.45-2.11-.53-.47-1-1-1.47-1.51l-.24-.24c.05.16.07.26.09.35.11,1,.24,2,.35,3.06.09.69.18,1.39.26,2.08.16,1.19.33,2.35.48,3.52s.33,2.21.49,3.32c.11,1,.26,1.93.39,2.89.09.56.18,1.14.26,1.75l.33,0a17.92,17.92,0,0,1,2.54-.26l.33.08a8.44,8.44,0,0,0,.37,2.5c1.25-.08,2.46-.18,3.68-.24.9,0,1.82,0,2.74,0,1.36-.05,2.71-.13,4.07-.19.72,0,1.45-.08,2.17-.11l4.27-.2c.7,0,1.4-.08,2.1-.09a1.13,1.13,0,0,0,.24,0Zm-20.08,1.06h0c-.06-.72-.13-1.41-.19-2.08a9,9,0,0,0-2.48.24v2a12,12,0,0,0,2.67-.12Zm-19.22,18.34a.33.33,0,0,1,.46.22c.22.44.41.88.63,1.32l.24.41c.07-.4.11-.7.18-1,.24-1,.44-1.95.65-2.94a11,11,0,0,0,.31-2.56c0-.11,0-.24,0-.34,0-.33.16-.46.49-.35a6.38,6.38,0,0,0,1.9.11c1,0,2,0,3,0,1.18,0,2.34,0,3.52,0l3.79-.06c1.45,0,2.87,0,4.32,0l4.27,0,5.95-.09c2-.07,4-.15,6-.24,1.33-.1,2.67-.23,4-.34.79-.06,1.56-.14,2.33-.21.59-.08,1.16-.14,1.73-.2a.52.52,0,0,1,.65.35c.4-.07.79-.13,1.18-.21a12.27,12.27,0,0,1,2.24-.29c.59,0,1.18-.1,1.77-.11.35,0,.46.11.35.43a.42.42,0,0,1-.52.35,19.33,19.33,0,0,0-4.25.39,4.09,4.09,0,0,1-1.78.09,5.54,5.54,0,0,0-2,0c-.63.08-1.29.11-1.92.17-2.13.23-4.25.27-6.42.35-2.58.08-5.17.2-7.77.28-2.39,0-4.78.06-7.16.08h-3.68c-1.86,0-3.75.07-5.63.08h-4.27c-.44,0-.88,0-1.36-.08,0,0,0,.08,0,.14a14.47,14.47,0,0,1-.57,3.6c-.2,1-.4,2-.59,3,0,.11,0,.24,0,.35s0,.2,0,.28-.18.2-.27.32c-.08-.1-.22-.16-.3-.26a10.43,10.43,0,0,1-1.38-2.8c0-.05,0-.1,0-.16Zm38.05,1,0,0-.27,0c0-.08-.09-.16-.06-.23a1.38,1.38,0,0,1,.61-.91s.07-.06.11-.06a1.37,1.37,0,0,1,.5,0c.18.1.11.29.07.43-.11.31-.24.6-.35.92l.92-.12c.09,0,.17,0,.3,0,0,.11,0,.22,0,.28a1.52,1.52,0,0,1-1.29.68.45.45,0,0,1-.42-.21,1.15,1.15,0,0,1-.11-.87Zm14.3-11.14a.65.65,0,0,1,.35.8.94.94,0,0,1-.35-.8Zm-8.84,9.56a.57.57,0,0,1-.38.4,1.82,1.82,0,0,1-1.16.14c-.19,0-.26-.16-.28-.38.57-.26,1.2-.06,1.82-.16Zm38.18-10.34v0a2.7,2.7,0,0,1-1.75.66c-.26,0-.28,0-.5-.39.15-.24.46-.12.7-.17a4.15,4.15,0,0,1,.81-.16,1.41,1.41,0,0,1,.74,0Zm-2.56-.5.7-.17a2.25,2.25,0,0,1,1.1,0c.19,0,.39.11.35.42-.51.08-1.05.16-1.58.2-.37,0-.37,0-.57-.4Zm-14.45,13.86a2.67,2.67,0,0,1,2.3-.09,1.84,1.84,0,0,1-.9.37,6,6,0,0,1-1,.08c-.26,0-.28,0-.37-.36Zm-41-9.6a.56.56,0,0,1-.2.14,5.43,5.43,0,0,1-2,.47c-.37,0-.37,0-.5-.39a4.73,4.73,0,0,1,2.74-.22ZM144.79,117a4.11,4.11,0,0,1,2.54-.16c-.11.09-.15.17-.21.21a2.88,2.88,0,0,1-1.21.33,5.44,5.44,0,0,1-.57,0c-.39.07-.39.07-.55-.41Zm45.51,9.59a.91.91,0,0,1-.79.46c-.46,0-.94,0-1.4,0a.3.3,0,0,1-.29-.24c0-.08,0-.2.11-.21a3.55,3.55,0,0,1,2.26-.08.19.19,0,0,1,.11,0Zm2.32-13.42a.66.66,0,0,1,0,.24c0,.15-.11.29-.15.42a1.09,1.09,0,0,0,.4,1.22.8.8,0,0,1,.37.78.54.54,0,0,1-.48-.14,1.93,1.93,0,0,1-.77-1.12,1.78,1.78,0,0,1,.31-1.29c0-.09.17-.12.26-.17s.06,0,.09.06Zm-45.86,10.92a.51.51,0,0,1,.57.13,1.52,1.52,0,0,1,.51,1.09,2.26,2.26,0,0,1-.29,1.31.52.52,0,0,1-.08.11.19.19,0,0,1-.09,0c-.29-.19-.33-.29-.26-.61s.1-.43.15-.64a1.23,1.23,0,0,0-.29-1c-.08-.11-.13-.24-.22-.38Zm11.92,2.54c-.13.29-.24.34-.51.24a1.34,1.34,0,0,1-.72-.64,2.36,2.36,0,0,1-.26-1.95,2.47,2.47,0,0,1,.19-.54.65.65,0,0,1,.18-.21.34.34,0,0,1,0,.4,3.48,3.48,0,0,0-.08,1.25,2.7,2.7,0,0,0,.83,1.34c.06.08.2.07.33.11ZM196.75,116c-.06-.14-.13-.3-.19-.48a.54.54,0,0,1-.55-.41c.07-.23.31-.13.48-.23,0-.29.07-.59.13-.88a1.17,1.17,0,0,1,.29-.43s.13,0,.26-.06a2.13,2.13,0,0,0-.15,1.39l.72,0c0,.24-.18.33-.35.4s-.48.22-.48.54c0,0,0,.08-.07.11ZM137,125.8a7,7,0,0,1,.9,0,4.32,4.32,0,0,0,1.13-.1,3.18,3.18,0,0,1,1,0,1.56,1.56,0,0,1-1.05.7,3.34,3.34,0,0,1-1.66-.08c-.22,0-.27-.21-.31-.46Zm-6.77,2.4c-.06.19-.26.21-.44.09a1.46,1.46,0,0,1-.56-.48,4.67,4.67,0,0,1-.6-1.15,1.92,1.92,0,0,1,.46-1.76.28.28,0,0,1,.38,0s0,.1,0,.13-.08.17-.13.25a1.66,1.66,0,0,0,.27,2.16l.65.79ZM170.61,125a.72.72,0,0,1-.26.1c-.09,0-.22,0-.24-.07s-.09-.25,0-.32a2.73,2.73,0,0,1,.53-.49.56.56,0,0,1,.46,0c.18,0,.2.21.22.37,0,.33.09.67.13,1a1.52,1.52,0,0,1-.13.83c-.13.21-.29.21-.4,0a2.39,2.39,0,0,1-.21-.6,5.47,5.47,0,0,1-.07-.74Zm-28.22,1.81c-.25-.35-.25-.43-.09-.66s.33-.41.54-.64c-.08-.16-.43-.25-.43-.57.35-.12.52.27.85.28.18-.19.4-.38.61-.59a.46.46,0,0,1,.6-.13c-.27.32-.51.64-.77,1a3,3,0,0,1,.37.24.63.63,0,0,1,.15.18c-.06,0-.15.13-.21.13a2.78,2.78,0,0,1-.49-.08l-.17-.07c-.31.32-.64.61-1,1Zm11.45-.43c-.66.11-.66.11-.86-.24.11,0,.22-.18.35-.21a.56.56,0,0,0,.49-.74c0-.08,0-.14,0-.22s.13-.23.35-.15c0,.21.08.45.15.71a4.41,4.41,0,0,1,1.31-.11c0,.16-.15.2-.24.25a10.3,10.3,0,0,1-.94.47c-.13.08-.2.14-.22.28s-.09.4-.13.66c-.24-.26-.15-.5-.26-.7Zm-8.35,3.45a1.4,1.4,0,0,1-.52-1c-.07-.37-.13-.75-.2-1.14a.66.66,0,0,1-.28-.11.28.28,0,0,1,0-.48.57.57,0,0,1,.57-.11c.2.06.24.24.28.41.11.52.24,1,.38,1.54a1,1,0,0,1-.25.91Zm54.37-2.46a1.44,1.44,0,0,1-.5-.71,10.16,10.16,0,0,1-.22-1.07c0-.11-.09-.29.11-.3s.2.13.33.22.17-.11.31-.14a3,3,0,0,1,.76-.16c.57,0,.81.27.62.86-.53-.19-1.08-.41-1.56,0a2.54,2.54,0,0,1,.15,1.25Zm-67.42-.77c-.26.46-.52.9-.76,1.36-.24-.11-.22-.22-.16-.35.11-.31.25-.63.38-.93.06-.13.13-.21.22-.38a4.43,4.43,0,0,1-.38-.36,1.94,1.94,0,0,1-.41-.4c-.07,0-.05-.19-.07-.28s.22,0,.31,0l.52.35.29.19c.28-.22.3-.61.79-.75-.18.37-.33.67-.49,1a3.38,3.38,0,0,1,.38.37,2.06,2.06,0,0,1,.33.48c.06.19-.09.29-.27.18s-.44-.29-.68-.45Zm53.1,3.62a.57.57,0,0,1-.37-.43c-.09-.37-.11-.76-.17-1.14,0-.11-.05-.26.17-.31.07.17.13.34.22.53l.13-.13a.73.73,0,0,1,.81-.28.76.76,0,0,1,.55.57,1.8,1.8,0,0,1,.09.69c0,.08-.09.13-.13.23-.4-.18-.51-.53-.71-.82a.69.69,0,0,0-.39.61c0,.29,0,.29-.2.48ZM172.1,122.5a1.08,1.08,0,0,1,.42.1,1.5,1.5,0,0,1,1,1.63,4.54,4.54,0,0,1-1,2,.48.48,0,0,1-.11-.5c.09-.32.18-.65.29-1a1.08,1.08,0,0,1,.11-.3,1,1,0,0,0-.35-1.3.59.59,0,0,1-.33-.61Zm28.64-7.07a1.42,1.42,0,0,1,0-.28c.16-.44.33-.91.46-1.37a2.75,2.75,0,0,0,.16-.56c.06-.37,0-.5-.36-.69-.1-.08-.24-.11-.32-.21a.3.3,0,0,1-.09-.26c0-.06.17-.09.26-.11a1.31,1.31,0,0,1,1.1.85,1.75,1.75,0,0,1,0,.72,3.53,3.53,0,0,1-1,1.81,1.26,1.26,0,0,1-.17.13s-.07,0-.09,0Zm-65.8,12.4c-.35-.08-.42.21-.61.32-.22-.24-.27-.32-.09-.46a3.4,3.4,0,0,1,.63-.32.37.37,0,0,1,.49.38,2.11,2.11,0,0,1-.16.61c-.15.37-.35.7-.54,1.09l1.51-.07a.78.78,0,0,1-.13.26,1.82,1.82,0,0,1-1.63.54.51.51,0,0,1-.39-.8c.26-.4.53-.78.77-1.18a2.87,2.87,0,0,0,.15-.37ZM161.48,124a.64.64,0,0,1,0,.09c-.31,1.19-.57,2.36-.85,3.54-.09.38-.24.77-.35,1.17-.05.11-.11.19-.16.32-.24-.08-.24-.22-.22-.39.05-.41.14-.83.22-1.24s.24-.92.35-1.3c-.35-.58-.7-1.07-1-1.6,0,0,0-.11,0-.16a.29.29,0,0,1,.42.1c.26.32.55.65.81,1,.06-.17.13-.36.22-.56a5.44,5.44,0,0,1,.19-.52,4.19,4.19,0,0,1,.31-.5.19.19,0,0,1,.09,0Zm33.22-8.76c.22-.51.46-1,.68-1.53l.11,0c.1.15,0,.29,0,.44-.24.8-.46,1.58-.7,2.4-.05.12-.09.28-.16.46a1.24,1.24,0,0,1,.29-.06,1.27,1.27,0,0,1-.53.72.51.51,0,0,1-.33-.58,4.87,4.87,0,0,1,.29-1,.57.57,0,0,0-.09-.66,13.67,13.67,0,0,1-.83-1.21.28.28,0,0,1,0-.28.56.56,0,0,1,.33-.07.3.3,0,0,1,.17.14c.09.14.18.27.26.42s.31.54.49.81Zm-26.35,12.42a.46.46,0,0,1-.24-.48,6.93,6.93,0,0,1,.38-1.49c.11-.25.19-.51.3-.76a1.61,1.61,0,0,1-1.29-1.11.33.33,0,0,1,.48,0,4.8,4.8,0,0,1,.59.51c.09.08.16.18.29.31.09-.16.15-.23.17-.29.16-.39.29-.75.44-1.12a2.24,2.24,0,0,0,.13-.27.21.21,0,0,1,.16,0,.25.25,0,0,1,.11.13.74.74,0,0,1-.07.21c-.33,1.18-.68,2.35-1,3.52a2.3,2.3,0,0,1-.42.86Zm-18.21-3.7c.5-.09.94-.33,1.44-.06a1.09,1.09,0,0,1-.72.79,5.4,5.4,0,0,1-.72.17c-.22.05-.46.11-.62-.11a.71.71,0,0,1-.15-.77,6.42,6.42,0,0,0,.31-.7,3.38,3.38,0,0,0,.11-.34l-.09-.05c-.13.1-.26.19-.4.31-.3-.23-.35-.47-.13-.69a.81.81,0,0,1,.81-.21c.31.08.48.24.46.53a3.83,3.83,0,0,1-.15.75,3.61,3.61,0,0,1-.15.38Zm23.86-2.3a2.14,2.14,0,0,1-.19-.26s0-.08.06-.11a1.3,1.3,0,0,1,.79-.25c.4,0,.61.22.5.56a3.79,3.79,0,0,1-.21.65c-.07.19-.16.39-.25.59.73,0,1.34-.44,2.13-.22-.07.11-.09.26-.15.34a1.81,1.81,0,0,1-.9.49l-.79.18a.83.83,0,0,1-.88-.42.44.44,0,0,1,0-.43c.13-.26.24-.51.35-.77l.24-.51-.66.16ZM197,128c.06-.08.11-.18.15-.24a.63.63,0,0,1,1,.06,4.45,4.45,0,0,1,.44,1.08c.05.11,0,.3-.09.44a.18.18,0,0,1-.32.05,1.38,1.38,0,0,1-.35-.49,2.15,2.15,0,0,1-.16-.52,4.94,4.94,0,0,1-.24.47c-.06.09-.17.25-.24.25a.72.72,0,0,1-.35-.22,3.42,3.42,0,0,1-.26-.4c-.35.35,0,.86-.4,1.2-.08-.1-.22-.16-.26-.24a9.44,9.44,0,0,1-.35-1c0-.1,0-.25.15-.2s.24,0,.33-.14a.69.69,0,0,1,.68-.18l.31.1Zm-6.59-13.49q-.5.24-1,.51a2.1,2.1,0,0,1-.3,1.47c-.44-.34-.31-.82-.51-1.23-.31.06-.63.13-.79-.29.11-.19.37-.18.57-.24s.26-.14.26-.35a8.13,8.13,0,0,1,0-1,2.74,2.74,0,0,1-.57,0c-.26,0-.32-.06-.41-.4a4.7,4.7,0,0,1,1.2-.14c.31,0,.44.19.44.49s0,.71,0,1.08c.37,0,.72,0,1.07,0,0,0,0,.08,0,.12ZM196.75,127c-.7-.09-.92-.6-1.33-1-.07.18-.11.32-.18.47a.88.88,0,0,1-.74.61.91.91,0,0,1-.83-.55,1.21,1.21,0,0,1,1-1.87.5.5,0,0,1,.37.13,3.79,3.79,0,0,1,.66.61,5.24,5.24,0,0,1,.59.65,6.89,6.89,0,0,1,.43.8c0,.05,0,.1,0,.19Zm-2.27-.51h0c0-.11.13-.19.17-.3L195,125a.24.24,0,0,0-.35-.06,2.83,2.83,0,0,0-.57.45c-.31.4-.17.81.42,1.13Zm3.85-11.92c-.48-.24-.57-.5-.28-.9a1.27,1.27,0,0,1,1-.54c.46,0,.72.17.61.56a3.7,3.7,0,0,1-.28.72c-.09.17-.18.32-.29.51.4,0,.75-.14,1.1.06a2,2,0,0,1-1.1.93.61.61,0,0,1-.57-.16.76.76,0,0,1-.24-1,1.07,1.07,0,0,0,.07-.19s0,0,0,0ZM184.19,129a.7.7,0,0,1-.55-.37c-.18-.24-.33-.49-.51-.77a3.74,3.74,0,0,0-.26-.4c-.09.24-.13.44-.19.64s-.18.48-.53.5-.48-.21-.64-.43a1.39,1.39,0,0,1,.68-2,.57.57,0,0,1,.73.19c.35.53.72,1,1.05,1.55a2.58,2.58,0,0,1,.28.67c.05.11,0,.23-.06.37Zm-2.19-1h0a1.82,1.82,0,0,0,.24-1.45.9.9,0,0,0-.24,1.45Zm-40.07-11.71c.06-.6-.25-1.19,0-1.75h.11a1.44,1.44,0,0,1,.08.25c.09.63.18,1.23.27,1.84a4.26,4.26,0,0,0,.11.42,4.73,4.73,0,0,1,.15.73c0,.23,0,.47-.31.55-.11,0-.19.18-.28.27-.61.58-1.21.47-1.58-.34a1.33,1.33,0,0,1,.83-1.93,2.87,2.87,0,0,1,.6,0Zm.24,1.61h0a5.57,5.57,0,0,0-.22-.8.37.37,0,0,0-.46-.24.78.78,0,0,0-.42,1.22.33.33,0,0,0,.42.14c.19-.09.41-.17.68-.32Zm63.89,5a.55.55,0,0,1-.5.44,4.57,4.57,0,0,1-.64,0,.4.4,0,0,1-.35-.27c0-.18.13-.21.26-.24s.46-.1.68-.13a.55.55,0,0,1,.55.17Zm7,7.58a6.2,6.2,0,0,1,1-.16,5.09,5.09,0,0,0,0,.56l-.19,0c-.49.08-.66,0-.81-.43Zm-10-7.32c-.28.11-.32.32-.37.58a.77.77,0,0,1-.19.53,1.39,1.39,0,0,1-.51-1.49l.33.11a.83.83,0,0,1,.85-.37,1.17,1.17,0,0,1,.49.19,1.24,1.24,0,0,1,.15,1.19c-.09.17-.24.21-.37,0a4.76,4.76,0,0,1-.38-.75Zm6,.19c-.32-.14-.43-.45-.56-.75-.4.16-.29.59-.57.8-.4-.16-.46-.48-.53-.82-.46,0-.53.12-.5.53,0,.19,0,.4,0,.63h-.09c-.06-.06-.15-.12-.17-.21-.13-.41-.29-.81-.42-1.23,0-.11,0-.22.09-.27s.22,0,.28.16.05.08.09.14.18-.12.26-.16a1.88,1.88,0,0,1,.55-.12.89.89,0,0,0,.46-.1,1.45,1.45,0,0,1,.46-.14.7.7,0,0,1,.81.49.94.94,0,0,1-.2,1Zm1.73,38.75a3.18,3.18,0,0,1-.67-2,3.35,3.35,0,0,0-.38.16c-1.66.87-3.35,1.75-5,2.59a.34.34,0,0,1-.2.08s-.11,0-.13,0a.19.19,0,0,1,0-.15.88.88,0,0,1,.24-.19c.72-.43,1.47-.85,2.21-1.26l3-1.64c.22-.12.22-.12.2-.4l-.66-.09a6.32,6.32,0,0,1-4.38-2.5,4.3,4.3,0,0,1,0-5.38,6.92,6.92,0,0,1,4-2.51l.29-.08s.06,0,.13-.05c0-.7-.11-1.41-.11-2.11s0-1.39,0-2.13a4.61,4.61,0,0,0-.94.8c-.33-.18-.4-.27-.2-.51s.52-.53.77-.8a3.87,3.87,0,0,0,.43-.47c.2-.22.27-.25.66-.22.13.25-.07.43-.11.7a8.26,8.26,0,0,0,.85.4c.18.13.38.24.53.37a.25.25,0,0,1,.07.4c-.6,0-1-.48-1.58-.7,0,1.41.2,2.77.31,4.14l.83,0s.13,0,.15,0c.29-.27.66-.19,1-.16a7.41,7.41,0,0,1,3.5,1.25.76.76,0,0,0,.16.11l.06,1a4,4,0,0,0-.61-.51,7,7,0,0,0-3.29-1.1c-.24,0-.48,0-.63-.23a.2.2,0,0,0-.13-.06c-.35,0-.66,0-1,.08,0,.33.07.61.07.9.08.86.15,1.77.19,2.65a.59.59,0,0,0,.2.39c1.07.75,2.26,1.39,3.29,2.27.35-.3.7-.56,1-.88s.5-.35.83,0l.37.3c0,.32,0,.63.07.93-.31-.27-.64-.53-.95-.83a10.2,10.2,0,0,1-1.05.77l1.43.91a1.1,1.1,0,0,0,.59-.59c0,.4.06.76.11,1.13a7.28,7.28,0,0,1-4,2.26,4.34,4.34,0,0,0-1.25.54c-.15.08-.13.2-.11.32,0,.4.07.82.09,1.24a1.35,1.35,0,0,1-.2.92Zm2.35-10.59a.73.73,0,0,1-.18.75.5.5,0,0,1-.24-.58c.07-.14.11-.16.42-.17Zm-.66-.34a.74.74,0,0,1-.59.74.75.75,0,0,1-.83-.4.37.37,0,0,1,0-.31,1,1,0,0,1,1.12-.41c.22.08.33.19.33.38Zm-.59.18h0l-.46-.27a1.66,1.66,0,0,0-.11.24c.18.12.33.28.57,0Zm2.19-.21c0,.1-.09.18-.15.35a2.1,2.1,0,0,1-.49-1.25c0-.11.05-.19.22-.19.09.16.18.34.29.5.35,0,.52-.43,1-.35-.08.14-.15.27-.24.41.16.19.37.39.31.71-.33.11-.61-.07-.92-.18Zm.39-4.21a1.51,1.51,0,0,1,.94-.13v.16a.83.83,0,0,1-.63.24,1.18,1.18,0,0,1-.31-.27ZM216.37,161a1,1,0,0,1-.37.91.49.49,0,0,1-.06-.63c.08-.14.08-.36.43-.28Zm-1-14.6-.33.09c-.3.07-.35,0-.55-.3.11-.18.31-.14.49-.13a1.48,1.48,0,0,1,.37,0,1.72,1.72,0,0,0,0,.32Zm-1.73,13.51a1.5,1.5,0,0,1-.09.35,1.57,1.57,0,0,0,0,1.07.14.14,0,0,1,0,.15c-.05,0-.13,0-.18,0a.62.62,0,0,1-.33-.61,2.88,2.88,0,0,1,.31-.86c0-.05.15-.1.24-.15l.11.07ZM209.52,140a2.29,2.29,0,0,1-.09.31c-.46.78-.89,1.55-1.33,2.33-.09.15-.18.29-.37.32-.22-.2-.25-.3-.09-.54s.3-.45.46-.67.15-.23.22-.34a2,2,0,0,1-.84-.94.32.32,0,0,1,.46,0c.2.18.38.35.57.54.4-.32.53-.78.9-1.08.05,0,.07,0,.11,0ZM215,160.79a2.37,2.37,0,0,0,.31.08c.26.09.33.21.15.43a.81.81,0,0,1-.83.3c-.22-.06-.55-.33-.57-.56a.89.89,0,0,1,.09-.24,2.62,2.62,0,0,1,.22-.25s0-.07,0-.08c-.19-.05-.37-.18-.35-.36s.24-.2.42-.23l.26,0c.39,0,.57.22.46.59a3.3,3.3,0,0,1-.11.34Zm-3.83-14.23c.37,0,.68-.37,1.14-.1a1.7,1.7,0,0,1,.3-.3.63.63,0,0,1,1.06.29.59.59,0,0,1-.14.62c-.3,0-.32-.27-.54-.4a4.2,4.2,0,0,0-.29.32c-.09.11-.17.24-.24.32-.33,0-.35-.27-.59-.43-.11.22-.2.41-.31.62-.37-.19-.48-.41-.39-.94ZM209.46,149h0l-.16,0-.2.07a6.58,6.58,0,0,0-3.81,2.62,3.69,3.69,0,0,0,.05,4.45,5.77,5.77,0,0,0,4.29,2.34h.42c-.2-3.16-.42-6.32-.59-9.47Zm1.35,9.49h0a3,3,0,0,0,1.58-.34l2.43-1.44a1.21,1.21,0,0,0,.2-.14c-1.54-1.09-2.89-2.37-4.56-3.36.13,1.76.22,3.5.35,5.28Zm-23.95-3.46a1.46,1.46,0,0,1-.31-.14s-.09,0-.11.06a1.72,1.72,0,0,1-.52.52c-.44.3-.88.6-1.27.92a10.24,10.24,0,0,1-4.87,2,13.26,13.26,0,0,1-4.86-.19c-1.11-.27-2.23-.53-3.37-.83a6.18,6.18,0,0,1-1.18-.51,1.45,1.45,0,0,1-.81-1.19c0-.52-.15-1-.2-1.55s-.09-1.34-.11-2-.06-1.22-.09-1.86c-.17-2.14-.35-4.3-.56-6.45-.11-1-.27-2-.4-3.06-.09-.72-.2-1.42-.26-2.14a1.54,1.54,0,0,0-.24-.71.64.64,0,0,1,.15-1,5.58,5.58,0,0,1,1.42-.72,21.06,21.06,0,0,1,3.62-.9,41.54,41.54,0,0,1,4.2-.53c.75,0,1.49-.12,2.26-.11,1,0,2,0,2.91.07.22,0,.46-.05.68-.05s.19-.07.28,0a8.07,8.07,0,0,1,2,.43,1.25,1.25,0,0,1,.26.13.69.69,0,0,1,.42.88,1.32,1.32,0,0,1-.55.78.33.33,0,0,0-.13.35c.11.67.24,1.33.35,2,.2,1.44.37,2.9.55,4.34.11.81.19,1.61.28,2.43.15,1.38.31,2.78.42,4.19s.17,2.79.26,4.16a1,1,0,0,1-.26.69Zm6.52-9.71-1,.3c-.06.15-.1.29-.17.43-.37-.2-.48-.4-.42-.75.09-.59.22-1.21.31-1.84,0-.29,0-.59.09-.91a.66.66,0,0,1,.17-.21c.09.06.22.1.27.18.15.25.26.49.39.73.35.63.66,1.25,1,1.88a1.23,1.23,0,0,1,.2.92c-.11.24-.24.31-.44.12s-.29-.24-.26-.47-.11-.24-.16-.38Zm-1-.37h0l.79-.05c-.22-.46-.39-.91-.59-1.36l-.09,0c0,.46-.06.91-.11,1.39Zm-14.43,19.4c-.06-.31,0-.61-.3-.85s-.22-.35,0-.51a.79.79,0,0,1-.2-.21.34.34,0,0,1,.07-.51,2,2,0,0,1,1.66-.31.34.34,0,0,1,.22.5,2.83,2.83,0,0,1-.17.4,2.93,2.93,0,0,0,.43.13c.35.17.46.37.31.7a1.52,1.52,0,0,1-.42.64,9.29,9.29,0,0,1-1,.72,1.14,1.14,0,0,1-.85.08c-.31-.11-.37-.29-.13-.49a3,3,0,0,1,.41-.29Zm.07-1.89h0a2.63,2.63,0,0,1,.15.35c.22-.13.37-.24.55-.35,0,0,0-.05,0-.1l-.66.1Zm1,1.28h0a.18.18,0,0,1,0-.1l-.59,0a3.39,3.39,0,0,0,.15.41l.48-.35Zm12-9.35a1.27,1.27,0,0,1-.38-1c0-1.1-.08-2.21-.15-3.33,0-.56-.13-1.12-.22-1.7s-.22-1-.3-1.58c-.18-1.1-.33-2.22-.51-3.35,0-.25,0-.49-.09-.73-.11-.61-.19-1.25-.3-1.87s-.18-1.35-.29-2-.24-1.57-.35-2.37a1.85,1.85,0,0,1-.06-.25l-.81.24c-.09,0-.18.06-.27,0a.5.5,0,0,1-.19-.13.37.37,0,0,1,.06-.21,4.76,4.76,0,0,1,2-.58.42.42,0,0,1,.31.15.59.59,0,0,1-.09.37c-.05.08-.16.09-.26.16a.66.66,0,0,1-.11-.2c-.22,0-.25.12-.2.28.09.46.22.91.33,1.37.17.95.35,1.87.61,2.8s.31,2.07.53,3.11a2.32,2.32,0,0,1,0,.53.49.49,0,0,1-.29.48c.11.61.25,1.21.35,1.84a32.06,32.06,0,0,1,.75,4.14c.06.95.17,1.89.24,2.84,0,.27,0,.57,0,.88a3.77,3.77,0,0,0,1-.29c.09-.05.11-.24.18-.35.28.16.39.3.3.57a.89.89,0,0,1-.68.64l-1.05.2c-.41.09-.83.17-1.24.28-.18.05-.31.08-.42-.09s0-.29.15-.35a8.88,8.88,0,0,1,1-.4,2.38,2.38,0,0,1,.33-.12Zm-21.31,7.06c0,.19,0,.37-.24.5a4.68,4.68,0,0,0-.29-.37.32.32,0,0,1-.45-.18c-.11-.28.15-.38.3-.52s0-.42,0-.63a.5.5,0,0,1,.05-.27c0-.08.1-.13.17-.18s.11.12.11.2c0,.24,0,.46,0,.7a122.32,122.32,0,0,1,19.47-2.21c0-.11,0-.21,0-.3a.82.82,0,0,1-.05-.28c0-.14,0-.3.18-.32s.22.16.26.28.07.22.11.33a.4.4,0,0,0,.24.27c.29.07.35.2.22.42a1.08,1.08,0,0,0-.09.82,1.52,1.52,0,0,1,0,.67c0,.11-.13.19-.22.3,0-.25,0-.46-.08-.67s-.16-.4-.24-.61c-.57,0-1.12,0-1.67,0-1.23,0-2.41.1-3.63.19s-2.13.19-3.2.29l-3,.3c-.83.1-1.66.2-2.5.32-.63.08-1.29.16-1.92.26-1.12.19-2.28.38-3.42.59l-.13.08Zm-1.36-23h0a.36.36,0,0,1,0,.14c.18,1,.4,2,.57,3.09s.33,2.15.46,3.24c.18,1.55.33,3.1.49,4.64.06.69.06,1.39.13,2.06.08,1.07.15,2.13.26,3.2s.28,1.3,1.4,1.62c.75.22,1.49.43,2.23.59a18.54,18.54,0,0,0,4.06.55,9.89,9.89,0,0,0,5.82-1.78c.72-.53,1.51-1,2.23-1.55l.07-.05a.42.42,0,0,0,.2-.42c-.05-.37-.07-.72-.09-1.07,0-.7,0-1.42-.07-2.14-.15-2-.3-3.94-.48-5.91-.2-2.27-.37-4.56-.59-6.85,0-.21,0-.43-.07-.71a1.26,1.26,0,0,0-.3.13c-.33.13-.64.26-.94.35a35,35,0,0,1-6.44,1.22c-.35,0-.72.07-1.07.07-.95.06-1.91.11-2.85.14-.35,0-.7,0-.9.3,0,0-.09.07-.17.1a2.62,2.62,0,0,1-.13-.35c-.4-.12-.51-.1-.71,0-.24,0-.41-.11-.59-.14a9.32,9.32,0,0,1-1-.06c-.53-.12-1-.28-1.58-.42Zm14.21-3.33h0a30.62,30.62,0,0,0-4.31.1c-1,1-2.06,1.88-3.07,3,.42,0,.75,0,1.06-.05a.8.8,0,0,0,.52-.29c.42-.5.9-1,1.34-1.44a9.91,9.91,0,0,1,1.77-1.31c0,.19,0,.29-.07.35a2.78,2.78,0,0,1-.39.53c-.44.41-.88.83-1.34,1.28-.21.21-.45.45-.7.67a1.66,1.66,0,0,0,.49,0,.69.69,0,0,0,.61-.32,9.47,9.47,0,0,1,2.17-2l.37-.18s0,0,.06.07a7.28,7.28,0,0,1-1,1.13c-.35.37-.7.72-1.07,1.09a3.55,3.55,0,0,0,.74,0,.72.72,0,0,0,.53-.29,9.76,9.76,0,0,1,2.19-2.16s0,0,.06-.11Zm-7.68.42h0c-.9.91-1.75,1.79-2.65,2.72.15,0,.22,0,.28,0a.65.65,0,0,0,.64-.26,7,7,0,0,1,1-1.08c.46-.42,1-.77,1.44-1.16a.44.44,0,0,1,.46-.08c-.41.45-.83.85-1.22,1.27a9.15,9.15,0,0,0-1.25,1.31c.5,0,.9,0,1.2-.4a12,12,0,0,1,2.67-2.46s0-.05.11-.15c-1,.13-1.88.23-2.71.31Zm-.4.06h0c-.43.08-.81.16-1.18.21a.82.82,0,0,0-.61.32c-.4.45-.81.86-1.23,1.29a8.7,8.7,0,0,1-.68.74c.27,0,.46,0,.66.06a.47.47,0,0,0,.46-.2,8.86,8.86,0,0,1,.88-1c.54-.48,1.09-.93,1.7-1.46Zm9.86-.08h0L183,137a3.29,3.29,0,0,0,2.14-1.16l-.85-.26Zm-1.29-.16h0c-.71.69-1.38,1.34-2.06,2a.83.83,0,0,0,.65-.16,9.29,9.29,0,0,1,1.73-1.41c.16-.11.31-.19.53-.35-.35-.05-.59-.08-.85-.1Zm-13.47,2.64h0c.72.13.59.19,1-.26s1-1,1.47-1.48a2.23,2.23,0,0,1,.22-.21,1.47,1.47,0,0,0-1.12.51,3.76,3.76,0,0,1-.35.34l-1.2,1.1Zm-1.29-.51h0a.93.93,0,0,0,.63.37.37.37,0,0,0,.26,0l1.3-1.33a5.74,5.74,0,0,0-2.19,1Zm-18.05,17.88a1.25,1.25,0,0,1-.17,2.24,5,5,0,0,1-.59.19.89.89,0,0,1-.29,0,.6.6,0,0,1-.52-.25.28.28,0,0,1,.09-.39c-.11-.46-.2-.86-.29-1.26,0-.18-.06-.37-.11-.53s0-.3-.24-.38a.33.33,0,0,1-.11-.47,1.46,1.46,0,0,1,2-.41.74.74,0,0,1,.35.89,1.5,1.5,0,0,1-.11.34Zm-1,1.61h0a.38.38,0,0,0,.22,0,2.26,2.26,0,0,0,.33-.13c.35-.16.37-.24.22-.64a1.7,1.7,0,0,0-.83.24l.06.57Zm.51-2.19h0a.83.83,0,0,0-.86-.13c-.06,0-.15.11-.13.18a4.19,4.19,0,0,0,.2.69c.28-.27.53-.48.79-.74Zm-11.74-8a.34.34,0,0,1-.24-.38c0-.53,0-1,.07-1.57a14.05,14.05,0,0,1,.28-1.41.72.72,0,0,1,.42-.54s.06.11.09.17a10,10,0,0,0,1.16,2.07c.13.21.11.75,0,.82a.32.32,0,0,1-.24.06c-.08,0-.15-.1-.19-.11-.38.11-.73.22-1.12.37,0,.11-.11.3-.2.52Zm1.21-1.55h0c-.29-.57-.53-1.12-.77-1.68a6.08,6.08,0,0,0-.22,2.08c.35-.14.66-.25,1-.4Zm16.88-3.76a3.39,3.39,0,0,1-.13.45,4.18,4.18,0,0,1-.62.83,1.26,1.26,0,0,1-1.88-.08,1.7,1.7,0,0,1-.46-1.22,4.06,4.06,0,0,1,.29-1.39,1.06,1.06,0,0,1,1.48-.46c.46.21.51.41.22.86l-.32-.21a.47.47,0,0,0-.73.23,2.14,2.14,0,0,0-.11,1.33.64.64,0,0,0,.84.38,9.8,9.8,0,0,0,1-.48c.13,0,.22-.13.44-.24Zm1.66,8.12h0a1.29,1.29,0,0,1,.31-.13,8.73,8.73,0,0,0,2.12-1.84,6,6,0,0,0,1.32-5.17,5.89,5.89,0,0,0-2.19-3.49,9.09,9.09,0,0,0-3.77-1.7,1.08,1.08,0,0,1-.68-.27c-.06-.08-.24-.08-.35-.1a14.67,14.67,0,0,0-1.75,0,9.24,9.24,0,0,0-4.82,1.91,6.58,6.58,0,0,0-1.53,1.62,7.43,7.43,0,0,1,2.85,3.63.68.68,0,0,1,.22,0,8.36,8.36,0,0,1,4.09.91c.09,0,.18.06.26.11a2.73,2.73,0,0,1,.51.14,7.72,7.72,0,0,1,2.25,2.08,7.51,7.51,0,0,1,1.16,2.25Zm-12.24-8.76h0a3,3,0,0,0-.33-.19A8.77,8.77,0,0,0,143,140a.9.9,0,0,1-.61-.25.53.53,0,0,0-.29-.12,7.07,7.07,0,0,0-1.95.12,7.73,7.73,0,0,0-4.71,2.51,5.58,5.58,0,0,0-1.11,6A7.28,7.28,0,0,0,140.5,153a1,1,0,0,0,.24,0,8.45,8.45,0,0,1,4.21-7.55,6,6,0,0,1-.13-2.26,6.75,6.75,0,0,1,.65-2.24Zm11.76,9.84h0a9.9,9.9,0,0,1-8.65-.65,8.11,8.11,0,0,1-7.07,3.79,7.51,7.51,0,0,0,3.06,4.71,7.73,7.73,0,0,0,7.47.83,8.17,8.17,0,0,0,4.8-4.79,7.06,7.06,0,0,0,.39-3.89Zm-7.82-5.93h0a7.14,7.14,0,0,1-.52,4.69A9,9,0,0,0,157,150a5.52,5.52,0,0,0-1.09-2.26,12.68,12.68,0,0,0-2.48-2.13s-.06,0-.11-.06a8.6,8.6,0,0,0-2.8-.74,2.5,2.5,0,0,0-1.12,0Zm-4.24,1.26h0a7.73,7.73,0,0,0-3.75,6.91,7.15,7.15,0,0,0,6.46-3.41c-.41-.15-.59-.62-1-.72,0,0-.07-.11-.09-.16s0-.16-.06-.14c-.22-.05-.18-.27-.29-.32s-.26-.18-.28-.35-.05-.07-.09-.1-.13-.08-.13-.13c-.13-.56-.55-1-.72-1.58Zm.78-4.88h0a5.9,5.9,0,0,0-.46,3.94,11,11,0,0,1,2.92-.9,6.07,6.07,0,0,0-2.46-3Zm2.87,4.7h0a.35.35,0,0,0-.11,0c-.43.82-.89,1.65-1.33,2.48a3.63,3.63,0,0,0,.28.27c.33-.44.68-.89,1.05-1.32a.34.34,0,0,0,0-.23c0-.38,0-.78.06-1.17Zm-.37-.6h0l-.88,1.47c-.19.33-.37.65-.59,1a.67.67,0,0,0,0,.2l.14.07a.37.37,0,0,1,0-.15c.5-.78,1-1.55,1.49-2.32a.58.58,0,0,0,0-.32,1,1,0,0,0-.09-.38c-.48,0-.59.1-.7.69.18-.07.22-.34.55-.27Zm-1.16-.16h0l-.81,1.48c0,.13-.11.23-.15.36s0,.11.06.19c.42-.74.81-1.43,1.23-2.13-.15,0-.29.1-.33.1Zm-.53.22h0l0,0c-.24.33-.48.65-.7,1,0,0,0,.16,0,.25l.09,0c.22-.42.44-.82.65-1.25Zm1.43,3.7h0a2,2,0,0,0,.3-.92c-.39.56-.48.72-.3.92Zm-2.37-3h0c.09-.18.13-.27.22-.43-.24.08-.41.13-.22.43Z"/><path class="cls-19" d="M182.87,82.53l-8,4.55c.24.38.51.77.77,1.14,2.63-1.53,5.28-3,7.93-4.53-.27-.39-.51-.76-.75-1.16Z"/><path class="cls-20" d="M124.41,124.44s-1.46-.07-1.69.38,1.37,2.92,1.64,3.12,0-3.5,0-3.5Z"/><path class="cls-21" d="M121.82,129.94s-4.88,8.77-6.08,15.15,4.14,23.81,4.77,26.58a49.64,49.64,0,0,1,1,5.78q16.82-1,33.61-2c-.5-5.72-1-11.45-1.44-17.18s-13-28.84-13-28.84-17.21,2.69-18.81.54Z"/><path class="cls-20" d="M155.08,175.42c-.5-5.72-1-11.45-1.44-17.18,0-.06,0-.13,0-.17a5.5,5.5,0,0,1-4.16,1.26c-2-.26-6-.82-8.54.53s-6.12-.38-6.33-2.72a68.29,68.29,0,0,0-1.75-9.41c-.57-1.84-2.43-6.39-7.07-8.09s-5,0-4.76.16,1,.5,1.54.72q4,18.27,7.92,36.4l24.61-1.5Z"/><path class="cls-20" d="M116.92,140.84c-.5,1.46-.45.39-1.18,4.25s4.14,23.81,4.77,26.58a49.64,49.64,0,0,1,1,5.78l3.9-.22c-2.43-14-4.05-29.7-.94-36.77a6,6,0,0,0-7.51.38Z"/><path class="cls-22" d="M134.46,127.35s2.25,8.81,2.34,9.72-12.36-.91-12.37-2.93,0-8.09,0-12.14c0,0,5.78,6.79,10.07,5.35Z"/><path class="cls-23" d="M136.45,128.61s1.14.46,6.2-4.32,20.53-23,22.95-26.49,4.11-6.62,4-7.81.11-2.85,1.08-3.62a5,5,0,0,1,2.47-.8c.57-.17,1.77-.68,2.32-.8s4.76-2,5.48-1.82.08,1.38-1.8,2.45-3.46,1.4-3.55,2.21-.7,3.48,0,2.54.86-2.2,1.58-3.06,1.6-1.54,1.86-.81-1.28,4.15-1.9,5.34a14.77,14.77,0,0,1-3.64,4.68c-1.87,1.5-6,9.83-6,9.83s-6.74,15-11.43,20.64-9.73,12.52-11.15,11-5.69-6.08-8.54-9.16Z"/><path class="cls-22" d="M162.81,101.36c1.32-1.6,2.25-2.78,2.79-3.56s1.16-1.71,1.64-2.51a19.8,19.8,0,0,1,4.9,2.67,77.13,77.13,0,0,0-4,7.11l-5.28-3.71Z"/><path class="cls-21" d="M165.9,96s4.79,1.7,6.13,3.77l1.34,2.07s-5.56,8.29-6.59,10.4-3.37,5.56-6.13,10.65a34.94,34.94,0,0,1-7.4,9.42c-.74.48-5.53,9.3-7.34,7.7s-7.23-6.43-10.79-9.66l-.4-1.51s5.92-2.34,7.23-3.9,2-3.41,2.93-3.83,2.28-2.84,3.13-3.41.43-1.08,2.35-2.61,2.23-2.15,4.13-4.58,7.6-9.7,11.41-14.51Z"/><path class="cls-23" d="M140.06,115.81c.18,2,.56,1.78-.21,6.48s-7.11,7.78-11,5.59-4.92-3.63-6-8.12c0,0-.13-5.6.77-7.55a25.15,25.15,0,0,1,2-3.63s.14,0,1.36,1.24,2.48,1.78,2.3,1.41L128.15,109a17.9,17.9,0,0,0,3.59,3,6,6,0,0,0,4.47.41l-1.16-.75c-1.14-.75-1.53-2.9-1.53-2.9a25,25,0,0,0,4.49,3.7c1.91,1,1.88,2.27,2.05,3.41Zm-17.25,4c-.13-.59-.22-1-.42-1.93s-.46-2.36-.61-3.49c.35,1.81.7,3.61,1,5.42Z"/><path class="cls-24" d="M129.55,114.51c-.49,0-.83.6-.78,1.3s.51,1.26,1,1.25.85-.58.79-1.28-.51-1.27-1-1.27Zm7.71-.16c-.5,0-.84.6-.79,1.3s.54,1.26,1,1.25.83-.59.77-1.28-.5-1.28-1-1.27Z"/><path class="cls-25" d="M134.46,115.12s1.53,4.31,2.3,5c.44.44-2.06.66-2.08.66s0,.26.06.37,3.29-.29,2.26-1.28c-.7-.67-2.19-4.88-2.19-4.9l-.35.11Z"/><path class="cls-4" d="M137.13,122.88a13.71,13.71,0,0,1-3.15.28c-1.67-.07-3.48-.28-3.48-.28a5.33,5.33,0,0,0,3.74,1.65,3.43,3.43,0,0,0,2.89-1.65Z"/><path class="cls-24" d="M123.12,101c-7.38,0-6.1,13.57-2.3,17.36l3.33,3.32a57.83,57.83,0,0,1-1.06-7.48,13.42,13.42,0,0,1,2.52-5.58c.26,0,2.13,2.46,3.66,2.65-.37-.73-.75-1.49-1.12-2.24,2.06,2.48,4.93,4.58,8.06,3.36l-1.16-.75c-1.14-.75-1.53-2.9-1.53-2.9a18.71,18.71,0,0,0,4.49,3.7c2.44,1.33,2.14,5,2.14,5,4.38-6.4,1.47-14-6.11-17.2-7.31-3.09-10.92.77-10.92.77Z"/><path class="cls-25" d="M138.07,121.46s.44.34-.15,2a1.35,1.35,0,0,0,.35.14c.66-1.92,0-2.45,0-2.45a2.77,2.77,0,0,0-.22.29Z"/><path class="cls-25" d="M128.15,121.08a2.86,2.86,0,0,0,.11,2.8,1.74,1.74,0,0,0,.31-.18,2.51,2.51,0,0,1-.09-2.43l-.33-.19Z"/><path class="cls-19" d="M122.72,124.82s-2,3.8-1.88,5.4,11.42,13,12,12.06,2.5-3.89,3.75-5.85c0,0-13.38-7.27-13.91-11.61Z"/><path class="cls-26" d="M136.63,136.43c.28,1.2.59,2.38.87,3.57l-2.69-.72c.59-.93,1.2-1.89,1.82-2.85Z"/><path class="cls-21" d="M120.71,139.08A10.15,10.15,0,0,1,129.4,144c3.38,5.27,4.6,19.58,5.34,28.27.11,1.26.24,2.73.4,4.35l-10.73.62c-.26-1.42.37,1-.79-3.89s-6.72-19.64-6.72-26.07,3.81-8.23,3.81-8.23Z"/><path class="cls-23" d="M122.44,115.55a1.56,1.56,0,0,0-1.62,0c-1.07.9.11,5.46,2.25,5.15a17.09,17.09,0,0,1-.63-5.17Z"/><path class="cls-24" d="M138.86,113.41s-2.19-1.83-3.5.27c.17.13.35.26.52.37,1-1.52,2.61-.18,2.61-.16.11-.16.24-.32.37-.48Zm-7.77.14s-2.22-1.82-3.51.29l.53.35c.94-1.52,2.6-.16,2.6-.14.11-.16.24-.32.38-.5Z"/><path class="cls-19" d="M138.75,133.05c.33,1.44.66,2.88,1,4.29-.53-.34-1-.69-1.54-1,.18-1.07.38-2.15.55-3.25Z"/><path class="cls-20" d="M146.41,121.72s4.45-.36,6.4,2.41a4.56,4.56,0,0,0,.39-.27c-2.12-3-6.83-2.64-6.85-2.64,0,.18,0,.34.06.5Zm-2.78,2.73s5.76,5,3.62,11a3,3,0,0,0,.48.19c2.23-6.38-3.77-11.57-3.79-11.58s-.22.24-.31.36Zm11-12s1.73,2.33,6,2.21a3.32,3.32,0,0,1,0-.48c-4.06.12-5.61-2-5.61-2l-.39.28Zm-3.53,3.09s5.17,1.49,4.12,7.53l.5.13c1.1-6.5-4.49-8.12-4.51-8.14,0,.18-.09.34-.11.48Zm-5.17,23.52s-3.33-5.94-8-8.17c-.06.15-.13.31-.19.44,4.46,2.17,7.7,7.92,7.7,7.94l.44-.21Zm-10.88,5.74s4.09,7.78,11.28,9.37c0-.16,0-.32.08-.5-6.94-1.52-10.92-9.07-10.92-9.09-.16.1-.31.14-.44.22Zm-15.5,3c0,.07.15,16.92,8.27,25.12.11-.12.24-.26.35-.36-8-8-8.12-24.68-8.12-24.73-.17,0-.35,0-.5,0Zm5.3,4.39s.94,13.09,4.94,17.88c.11-.1.25-.21.38-.31-3.9-4.65-4.82-17.56-4.82-17.59a2.9,2.9,0,0,1-.5,0Z"/><path class="cls-22" d="M121,117.23s0-.85.46-1,.81.69.9,1.42,0,2-.09,1.8-.63-1.08-.76-.77-.85-.27-.44-.66.86.64.94,0-.35-.72-.74-.64-.27-.16-.27-.16Z"/><path class="cls-10" d="M109.69,125.64q-24.72.52-49.4.93c-.76-8.57-1.52-17.18-2.25-25.74S56.57,83.62,55.81,75q24.69.28,49.44.48,1.11,12.54,2.21,25.1t2.23,25Z"/><path class="cls-27" d="M109.69,125.64q-24.72.52-49.4.93c-.61-6.92-1.24-13.85-1.83-20.78S57.27,91.91,56.68,85q13.25,10.34,26.5,20.48c8.78,6.7,17.65,13.29,26.49,19.8a2.55,2.55,0,0,0,0,.39Z"/><path class="cls-28" d="M114.18,177.85q-24.6,1.29-49.2,2.43c-.77-8.51-1.52-17.07-2.26-25.61s-1.46-17.12-2.21-25.7q24.67-.43,49.38-1c.72,8.34,1.47,16.68,2.17,25s1.4,16.6,2.12,24.89Z"/><path class="cls-29" d="M265.12,120.34l-49.4,2c-.73-7.73-1.43-15.51-2.15-23.27s-1.44-15.56-2.17-23.32q24.71-.15,49.45-.31c.7,7.49,1.42,15,2.14,22.49s1.4,15,2.13,22.46Z"/><path class="cls-28" d="M269.1,167.08q-24.63,1.81-49.24,3.68c-.68-7.7-1.28-15.4-1.93-23.11s-1.34-15.45-2-23.18q24.71-1,49.4-2c.66,7.48,1.34,15,1.95,22.39s1.21,14.86,1.84,22.27Z"/><path class="cls-29" d="M105,73.14q-24.73-.24-49.44-.55c-.77-8.59-1.5-17.23-2.26-25.85S51.84,29.46,51.14,20.8l49.42,1.87c.73,8.43,1.46,16.89,2.21,25.29s1.49,16.79,2.26,25.18Z"/><path class="cls-29" d="M208.75,73.51q-24.72,0-49.44,0-1.14-12.15-2.25-24.33c-.76-8.11-1.49-16.28-2.22-24.43q24.67.9,49.43,1.73Q205.38,38.28,206.5,50c.75,7.83,1.49,15.67,2.25,23.47Z"/><path class="cls-30" d="M260.63,73.28q-24.74.15-49.45.23c-.76-7.8-1.52-15.63-2.27-23.42s-1.49-15.69-2.24-23.55q24.71.78,49.45,1.46c.74,7.57,1.47,15.16,2.23,22.7s1.51,15.06,2.28,22.58Z"/><path class="cls-31" d="M74.75,26.27a4.05,4.05,0,0,0-6.14,3.6,5.38,5.38,0,0,0-4.94,1c-2.39,1.91-1,4.91-1,4.91a4.93,4.93,0,0,0-2.91,4.55C59.67,43.77,61,45.25,61,45.25s-1.17,3.29.4,5.65,1.88,2,1.88,2a4.72,4.72,0,0,0,1.73,4,9.38,9.38,0,0,0,5,1.68,2.73,2.73,0,0,0,2.45,1.74,4.25,4.25,0,0,0,3.17-.56,7.2,7.2,0,0,0,4.08,1.54,3.06,3.06,0,0,0,3-1.55s3.42,1.45,5.28.09a3.37,3.37,0,0,0,1.27-3.49s2.21,1.43,4.36-1,.68-4.37.68-4.37,2.32-.39,2.67-3.6-2.72-5-2.72-5,1.48-1.82.4-5.52-4.25-3-4.25-3,.78-1.61-1-4-5.41-1.89-5.41-1.89a5.32,5.32,0,0,0-2.67-2.39,2.16,2.16,0,0,0-2.47.8s-2.35-2.13-4,.05Z"/><path class="cls-32" d="M78.14,62a24.94,24.94,0,0,0-6.55,1.77c-2.37,1.22-5.25,5-5.47,6.43a8,8,0,0,0,0,2.58l30.94.32C94,64.77,88.69,61.4,78.14,62Z"/><path class="cls-33" d="M72.71,63.23c-.39.14.24-.21-1.12.5s-5.25,5-5.47,6.43a8,8,0,0,0,0,2.58c2.47,0,5,.05,7.42.08-.28-3.17-.57-6.39-.85-9.59Zm24.37,9.83c-1.88-5.06-4.6-8.31-8.85-9.91.29,3.3.57,6.58.88,9.83l8,.08Z"/><path class="cls-34" d="M83.05,56.22s-.27,4.58.48,5.57a4.33,4.33,0,0,0,2.21,1.33,8.22,8.22,0,0,1-6.29,1.36c-3.86-.64-3.56-1.62-3.56-1.62s1.72,0,1.68-1.26-.44-4.68-.44-4.68,3.29,1.4,5.92-.7Z"/><path class="cls-35" d="M86.29,46.65s0-1,2-.32.86,5.08-.52,5.34-1.75.8-1.73,0,.13-3.33.22-5Z"/><path class="cls-35" d="M70.54,46.25s-.22-1-2.1-.42S68.52,51,70,51.29s1.91.87,1.71,0-.77-3.38-1.14-5.07Z"/><path class="cls-35" d="M83.05,56.22a25.19,25.19,0,0,0,.1,4.27,7.07,7.07,0,0,1-5.62.34c-.11-1.52-.4-3.91-.4-3.91s3.29,1.4,5.92-.7Z"/><path class="cls-34" d="M84,37.88c1.78,2.09,3.16,5.6,2.58,13.36-.75,10.1-13,9.94-15.56-.27-2-7.91-1.25-11.32.21-13.38s11-1.81,12.77.29Z"/><path class="cls-31" d="M75,44.65c.38,0,.71.44.75,1s-.23,1-.59.94-.7-.44-.75-1,.22-1,.59-1Z"/><path class="cls-31" d="M82,44.82c.37,0,.72.47.76,1s-.22,1-.59.95-.69-.45-.74-1,.19-1,.57-1Z"/><path class="cls-36" d="M72.29,43.14a2.72,2.72,0,0,1,4,0,6.39,6.39,0,0,0-.44.48,2.12,2.12,0,0,0-3.07,0,7,7,0,0,1-.46-.55Zm11.7.32s-2.37-2.11-4-.19c.16.18.33.34.51.51,1.22-1.47,3.08.19,3.08.19.11-.16.25-.33.38-.51Z"/><path class="cls-37" d="M77.42,49.27s1.4,1.19,2.47.16l.48.56c-1.46,1.36-3.3-.17-3.3-.17.11-.18.22-.37.35-.55Z"/><path class="cls-37" d="M76.52,52.39a4.78,4.78,0,0,0,5.06.32,4.83,4.83,0,0,0,.35.64A5.5,5.5,0,0,1,76.19,53c.11-.19.22-.37.33-.58Z"/><path class="cls-32" d="M86.86,39.84a7.34,7.34,0,0,0-4-3.45c-4-1.52-6.88-1.61-10.64-.32a5.26,5.26,0,0,0-3.44,3.26c-2.87-9.43,19.31-8.69,18.09.51Z"/><path class="cls-4" d="M102.23,73.1q-21.72-.21-43.42-.46a1.86,1.86,0,0,1-.07-.34c-.1-1-.16-2-.24-3a2.36,2.36,0,0,1,2.3-2.7c12.79.17,25.57.37,38.36.52a3,3,0,0,1,2.78,2.73c.09,1,.17,2,.26,2.91a1.84,1.84,0,0,1,0,.33Z"/><path class="cls-14" d="M228.51,94.28a2.77,2.77,0,0,0,2.4,2.64,1.22,1.22,0,0,0,1.05-.59c-.26-1.07-.52-2.18-.76-3.26-1.27-.79-2.74-.49-2.69,1.21Z"/><path class="cls-14" d="M248.89,93.88A2.32,2.32,0,0,1,247,96.59a1.49,1.49,0,0,1-1.16-.55c0-1.09.06-2.17.11-3.25a1.74,1.74,0,0,1,2.93,1.09Z"/><path class="cls-33" d="M238.1,107.09s-2.57,2.06-5.15,1.89-6.22,0-7.88,3.47-9.17,9.84-3,9.6l36.79-1.47c6.13-.25-.08-4.65-3.07-8.42a11.74,11.74,0,0,0-7.94-4s-8.48,1.41-9.7-1.07Z"/><path class="cls-38" d="M228.22,121.8l.79,0c.52-3.43,1.68-7.73,1.68-7.75-.26-.06-.5-.13-.74-.2,0,0-1.2,4.46-1.73,8Zm24.13-1,.79,0c-1.18-3.38-3.2-7.67-3.2-7.68l-.7.25s1.95,4.15,3.11,7.46Z"/><path class="cls-15" d="M243,101.23s.33,5.21,1.4,6.08a6.59,6.59,0,0,0,3.38.85s-4.45,2.14-7.84,2.16a8.78,8.78,0,0,1-5.28-1.49s2.28-.79,2.34-2.1a35.43,35.43,0,0,0-.44-4.61s5.92,0,6.44-.89Z"/><path class="cls-14" d="M243,101.23s.11,1.61.4,3.2a10.47,10.47,0,0,1-5.24.66c-1.34-.22-.87-.18-1.27-.34-.15-1.33-.33-2.63-.33-2.63s5.92,0,6.44-.89Z"/><path class="cls-15" d="M238.93,85.11a57.22,57.22,0,0,0-6.05,1.1c-2.39.64-2.53,3.53-2.49,4.89a20.25,20.25,0,0,0,.24,2.59s.79,8.13,7.36,9.2,8.56-3.73,8.6-6.38a59.74,59.74,0,0,0-.7-7.29c-.1-1.16-2.34-4.19-7-4.11Z"/><path class="cls-39" d="M246.55,95c.92-1.9,3.13-7.36,1.31-11.88-.7-1.72-3.78-3.38-3.68-2.64s2,1.45-1.53-.24a20.55,20.55,0,0,0-10.31-1.5c-2,.32-2.19.9-1.23,1.28a7.2,7.2,0,0,1,1.29.61c-3.11-.55-5.9,1.6-6.54,2.05s.63,1,.63,1-1.16.07-1.38,2.66,0,4.31.42,4.39,1.27-1.64,1.27-1.64A29.63,29.63,0,0,0,229,93.53,22,22,0,0,0,231.13,96s-1-3.82-.41-6.24,4.2-3.39,6.06-3.71,4.58-.63,4.58-.63,2.45,1.6,3.39,2.42,1.8,7.2,1.8,7.2Z"/><path class="cls-13" d="M235.56,91.35c.43,0,.83.47.89,1s-.26,1.06-.7,1.08-.83-.47-.89-1,.26-1.06.7-1.07Z"/><path class="cls-13" d="M240.85,91.27a1.05,1.05,0,0,1,.9,1c.07.59-.24,1-.7,1.07a1,1,0,0,1-.87-1c-.07-.59.24-1.06.67-1.06Z"/><path class="cls-40" d="M232.93,90.54a2.93,2.93,0,0,1,4.31-.2c-.15.16-.3.34-.46.5a2.2,2.2,0,0,0-3.22.14c-.22-.14-.43-.3-.63-.44Zm6.09-.12a3,3,0,0,1,4.31-.19c-.15.18-.31.35-.46.5a2.21,2.21,0,0,0-3.22.14,4.78,4.78,0,0,1-.63-.45Z"/><path class="cls-41" d="M237.48,95.4s1.54.77,2.52-.13c.15.13.31.28.46.4-1.31,1.2-3.22.24-3.24.24.09-.17.18-.32.26-.51Z"/><path class="cls-4" d="M236.58,98.44c.11,0,5.72-.45,6-.22s-4.05,2.29-6,.22Z"/><path class="cls-4" d="M235.42,91.85a.29.29,0,0,1,.29.24.24.24,0,0,1-.24.24.32.32,0,0,1-.29-.24.25.25,0,0,1,.24-.24Z"/><path class="cls-4" d="M241.23,91.75a.26.26,0,0,1,.28.23.23.23,0,0,1-.22.25A.27.27,0,0,1,241,92a.21.21,0,0,1,.22-.24Z"/><path class="cls-4" d="M149.48,73.44q-20.16-.09-40.31-.27c0-.18,0-.35-.07-.53-.16-1.6-.27-3.2-.41-4.82-.21-2.43.65-4.38,2-4.37l35.6.47c1.29,0,2.55,2,2.76,4.3.14,1.59.3,3.16.44,4.71,0,.16,0,.34,0,.51Z"/><path class="cls-31" d="M227.34,37.51s-2.4-1.52-2.51-2.64-1.72-3.92-3-4.26a5.24,5.24,0,0,0-3.07.59s-2-.15-2.39.72a2.46,2.46,0,0,0-.13,1.65,1.22,1.22,0,0,0-1.07,1.52,4.56,4.56,0,0,0,.44,1.84s-1.63,1.29-.77,2.56,1,1.49,1,1.49a1,1,0,0,0-.59,1.55c.71,1.2,1.18,1.4,1.18,1.4s-.16,2.69.84,3.12a4.81,4.81,0,0,0,1.55.45,4.35,4.35,0,0,0,1.77.75,2.32,2.32,0,0,0,1.27-.39s1.83.46,2.37.07-.42-7,3.06-10.42Z"/><path class="cls-31" d="M237.46,37.73s2.15-1.4,2-2.5.94-3.81,2.16-4.08,3.2.76,3.2.76,2-.06,2.54.81a2.68,2.68,0,0,1,.46,1.65,1.61,1.61,0,0,1,1.38,1.54,3.5,3.5,0,0,1-.11,1.76S251,39,250.4,40.2s-.76,1.42-.76,1.42,1.34.4.87,1.54-.9,1.33-.9,1.33.7,2.65-.22,3a4.44,4.44,0,0,1-1.48.4,3.48,3.48,0,0,1-1.63.67,3.21,3.21,0,0,1-1.35-.38,2,2,0,0,1-3-.15c-1.36-1.58-.35-6.83-4.51-10.34Z"/><path class="cls-35" d="M226.34,50.52s.6,2.48-.9,1.73-2.2-3.38-1.95-4.47.72-1.25.72-1.25,1.71-.19,2.13,4Z"/><path class="cls-35" d="M240.31,50.71s.52,2.31,1.88,1.59.88-3.14.42-4.23-1-1.25-1-1.25-1.77-.27-1.35,3.89Z"/><path class="cls-34" d="M230.91,56.91s1.08,3.61-.08,3.87-8,2.44-9.64,3.49-2.31,3.77-2.52,5.84a25.68,25.68,0,0,0-.17,3.38q17.59-.08,35.21-.18c-.26-1.93-.4-4.53-2-6.48s-7.42-4.79-8.91-5.49-3-.43-3.15-1.65-.33-3.47-.33-3.47-5.19,2.14-8.39.69Z"/><path class="cls-35" d="M230.91,56.91s1.05,3.5,0,3.85a10,10,0,0,0,6,.76,6.06,6.06,0,0,0,2.76-1.64s0,.45,0-.19-.33-3.47-.33-3.47-5.19,2.14-8.39.69Z"/><path class="cls-31" d="M233,35.83s-5,0-7.33,2.14-2.35,5.7-2.37,7.32,1.66,3.33,2,4.35-.1-4.59,0-6.08,2.2-2,3-1.73,4.69,1,6.75.3,3.13.08,3.57.82a6.08,6.08,0,0,0,1.55,1.95c.64.44,1.16,3.59,1.16,3.59a11.76,11.76,0,0,1,1-2.52c.3-.17.07-9.92-9.33-10.14Z"/><path class="cls-34" d="M241.27,46.1s.38,7.12.2,8.36a7.18,7.18,0,0,1-4.75,5c-3,.88-8.25-.92-9.35-3.88a43.87,43.87,0,0,1-2.57-8c-.07-.38-.14-.75-.19-1.1-.45-3,1.25-5.35,3-5.89,2-.61,7.77-1.06,10.14.08s3.48,5.47,3.48,5.47Z"/><path class="cls-31" d="M230.1,49a1.17,1.17,0,0,1,1,1.09.88.88,0,0,1-.77,1.07,1.14,1.14,0,0,1-1-1.09c-.06-.59.28-1.08.76-1.07Z"/><path class="cls-31" d="M237.7,49.13a1.14,1.14,0,0,1,1,1.07c.05.59-.29,1-.77,1a1.14,1.14,0,0,1-1-1.07.84.84,0,0,1,.76-1Z"/><path class="cls-36" d="M227.37,47.59a3.64,3.64,0,0,1,4.31.13c-.2.22-.37.45-.55.66a2.71,2.71,0,0,0-3.17,0c-.2-.24-.4-.48-.59-.75Z"/><path class="cls-36" d="M235.42,47.72a3.64,3.64,0,0,1,4.32.11c-.2.23-.37.47-.55.66a2.73,2.73,0,0,0-3.17,0c-.2-.24-.4-.48-.6-.74Z"/><path class="cls-37" d="M232.47,52.84s2,1.46,3.22-.06a8.09,8.09,0,0,0,.74.57c-1.71,2.16-4.47.2-4.47.18.16-.24.33-.46.51-.69Z"/><path class="cls-37" d="M231.79,55.55s3.74,1.76,5.43-.12c.18.15.35.31.55.47-2,2.22-6.22.24-6.22.24a3.16,3.16,0,0,1,.24-.59Z"/><path class="cls-42" d="M224.83,34.31a1.64,1.64,0,0,1,1.57,1.4,1.23,1.23,0,0,1-1.29,1.37,1.62,1.62,0,0,1-1.55-1.43,1.19,1.19,0,0,1,1.27-1.34Z"/><path class="cls-33" d="M223.51,36a1.63,1.63,0,0,1,1.56,1.43,1.2,1.2,0,0,1-1.29,1.32,1.59,1.59,0,0,1-1.56-1.39A1.22,1.22,0,0,1,223.51,36Z"/><path class="cls-42" d="M239.37,34.67a1.23,1.23,0,0,0-1.3,1.33,1.62,1.62,0,0,0,1.56,1.4,1.2,1.2,0,0,0,1.29-1.32,1.64,1.64,0,0,0-1.55-1.41Z"/><path class="cls-33" d="M241,36.39a1.2,1.2,0,0,0-1.29,1.32,1.59,1.59,0,0,0,1.55,1.4,1.21,1.21,0,0,0,1.29-1.33A1.59,1.59,0,0,0,241,36.39Z"/><path class="cls-33" d="M221.43,63c1.32-.48,3.25-1.25,3.9-1.51s2.92,6.17,7.47,7.61,10.07-.57,10.49-2.47.89-5.54.89-5.54L248,63.23c.63.35.61,6.25.74,7.55a15.19,15.19,0,0,0,.48,2.57l-26.82.12c0-3.28-.13-8-1-10.48Z"/><path class="cls-4" d="M230.21,50.09a.24.24,0,0,1,.24.22.2.2,0,0,1-.19.23.32.32,0,0,1-.27-.24.19.19,0,0,1,.22-.21Z"/><path class="cls-4" d="M237.9,50.18a.23.23,0,0,1,.24.23.19.19,0,0,1-.2.22.26.26,0,0,1-.26-.22.21.21,0,0,1,.22-.23Z"/><path class="cls-42" d="M222.59,63.36a.63.63,0,0,1,.62.54.5.5,0,0,1-.53.55.61.61,0,0,1-.61-.55.5.5,0,0,1,.52-.54Z"/><path class="cls-42" d="M225.72,63.37a.62.62,0,0,1,.62.55.49.49,0,0,1-.51.53.62.62,0,0,1-.63-.55.51.51,0,0,1,.52-.53Z"/><path class="cls-42" d="M224.19,66a.63.63,0,0,1,.61.56.48.48,0,0,1-.5.55.63.63,0,0,1-.63-.55.51.51,0,0,1,.52-.56Z"/><path class="cls-42" d="M227.76,66.85a.66.66,0,0,1,.64.56.5.5,0,0,1-.53.54.61.61,0,0,1-.61-.54.49.49,0,0,1,.5-.56Z"/><path class="cls-42" d="M223.34,68.86a.6.6,0,0,1,.61.55.52.52,0,0,1-.5.56.68.68,0,0,1-.64-.56.51.51,0,0,1,.53-.55Z"/><path class="cls-42" d="M226.69,70a.62.62,0,0,1,.61.55.48.48,0,0,1-.5.54.61.61,0,0,1-.62-.54.49.49,0,0,1,.51-.55Z"/><path class="cls-42" d="M224,72a.6.6,0,0,1,.62.54.51.51,0,0,1-.51.55.64.64,0,0,1-.63-.55A.51.51,0,0,1,224,72Z"/><path class="cls-42" d="M230.48,70a.62.62,0,0,1,.61.55.51.51,0,0,1-.51.54.64.64,0,0,1-.63-.54.51.51,0,0,1,.53-.55Z"/><path class="cls-42" d="M229.05,72a.65.65,0,0,1,.64.55.51.51,0,0,1-.53.54.62.62,0,0,1-.61-.54.49.49,0,0,1,.5-.55Z"/><path class="cls-42" d="M233.41,70a.61.61,0,0,1,.61.55.48.48,0,0,1-.5.52.63.63,0,0,1-.64-.52.51.51,0,0,1,.53-.55Z"/><path class="cls-42" d="M236.65,70a.66.66,0,0,1,.64.53.51.51,0,0,1-.53.54.61.61,0,0,1-.61-.54.47.47,0,0,1,.5-.53Z"/><path class="cls-42" d="M234,72a.62.62,0,0,1,.61.54.51.51,0,0,1-.5.55.67.67,0,0,1-.64-.55A.52.52,0,0,1,234,72Z"/><path class="cls-42" d="M240.44,69.94a.61.61,0,0,1,.61.54.47.47,0,0,1-.5.53.62.62,0,0,1-.62-.53.49.49,0,0,1,.51-.54Z"/><path class="cls-42" d="M239,72a.6.6,0,0,1,.61.55.5.5,0,0,1-.53.53.63.63,0,0,1-.61-.53A.51.51,0,0,1,239,72Z"/><path class="cls-42" d="M242.58,68.85a.63.63,0,0,1,.62.54.51.51,0,0,1-.53.55.63.63,0,0,1-.61-.55.5.5,0,0,1,.52-.54Z"/><path class="cls-42" d="M245.93,69.92a.62.62,0,0,1,.62.53A.52.52,0,0,1,246,71a.65.65,0,0,1-.63-.55.51.51,0,0,1,.52-.54Z"/><path class="cls-42" d="M243.22,71.94a.64.64,0,0,1,.63.54.48.48,0,0,1-.52.53.58.58,0,0,1-.61-.53.48.48,0,0,1,.5-.54Z"/><path class="cls-42" d="M248.3,71.9a.61.61,0,0,1,.61.55.47.47,0,0,1-.5.53.59.59,0,0,1-.61-.53.49.49,0,0,1,.5-.55Z"/><path class="cls-42" d="M247.55,68.46a.62.62,0,0,1,.62.53.49.49,0,0,1-.51.56.62.62,0,0,1-.61-.54.49.49,0,0,1,.5-.55Z"/><path class="cls-42" d="M245,66.33a.61.61,0,0,1,.61.53.49.49,0,0,1-.51.55.64.64,0,0,1-.63-.55.5.5,0,0,1,.53-.53Z"/><path class="cls-42" d="M247.16,64.51a.59.59,0,0,1,.61.53.49.49,0,0,1-.5.56.61.61,0,0,1-.61-.55.47.47,0,0,1,.5-.54Z"/><path class="cls-42" d="M245.21,62.37a.61.61,0,0,1,.62.52.5.5,0,0,1-.53.53.58.58,0,0,1-.61-.53.48.48,0,0,1,.52-.52Z"/><path class="cls-43" d="M246.75,71.7a25.88,25.88,0,0,0-1.93-5.7,9.67,9.67,0,0,1-1.6-4.42c-.12-1.4-1.12-2.79-.29-2.9a1.27,1.27,0,0,1,1.45,1c.2.56.31,1.44.53,1.95s.17.78.32.48a14.38,14.38,0,0,0,.6-3.38,28.39,28.39,0,0,1,.1-3.77.64.64,0,0,1,1.14.14c.23.59.28,4.72.46,4.82s.35-3,.42-3.56-.07-1.66.74-1.66.66,1.82.64,2.27a28.45,28.45,0,0,0-.2,3.4c.13.21.34.23.4,0s.94-3,1-3.59.29-1.12.81-1,.63.49.5,1.36-1,4.33-1.05,4.59a.36.36,0,0,0,.37.42A8.24,8.24,0,0,0,252.9,61,6.21,6.21,0,0,1,254,59.76c.3-.14.86-.1.88.35a8,8,0,0,1-1.62,2.48A17,17,0,0,1,252,63.84s-1.41,3.13-1.75,3.26,2.79,6.22,1.92,6.23l-5.14,0c-.09-.54-.18-1.12-.26-1.66Z"/><path class="cls-44" d="M189.84,66.7c6.08,0,12.17.07,18.28.08.2,2.26.42,4.5.63,6.73H188.41c-.15-1.58-.3-3.17-.46-4.77a1.86,1.86,0,0,1,1.89-2Z"/><path class="cls-45" d="M181,60c2.12,2.84,8.69,1.68,9.31-.59,6.37,2.39,7.86,3.35,8.89,10a18,18,0,0,1,0,4.08c-8.56,0-17.1,0-25.64,0-.19-1.63-.39-3.28-.59-4.91-.15-1.46.94-6.68,8.06-8.57Zm-8.85,8.63s-.5,2.29-1.14,4.84h1.52c-.14-1.62-.27-3.22-.38-4.85Z"/><path class="cls-46" d="M191.39,63.81s-4,4.64-4.62,7.76-.28,1.38-.46,2c1.31,0,2.63,0,4,0q.57-4.84,1.12-9.71Z"/><path class="cls-47" d="M181,60s6.06-1.37,9.31-.59c1.59,1.46-7.52,5.24-9.31.59Z"/><path class="cls-23" d="M187.36,52.43a13.66,13.66,0,0,0,1.16,4.32,9.49,9.49,0,0,0,2.13,3.58,7.31,7.31,0,0,1-4.34,2.39c-2.55.25-4.57-.32-4.58-1.28s0-3.88,0-5.83a5.27,5.27,0,0,0,5.67-3.18Z"/><path class="cls-4" d="M181,60c2.12,2.84,8.69,1.68,9.31-.59,0,0,.5.19,1.24.5a7.93,7.93,0,0,1-5.91,2.78,8.2,8.2,0,0,1-5.85-2.33c.33-.15,1-.28,1.21-.36Z"/><path class="cls-46" d="M178,65.76A20.72,20.72,0,0,0,176,73.52h-2a12,12,0,0,1,4-7.76Z"/><path class="cls-48" d="M187.36,52.43a33.37,33.37,0,0,0,1.16,4.32c.59,1.48.11.25.15.38a6.64,6.64,0,0,1-5.14,2,7.2,7.2,0,0,1-1.82-.29c0-1.09,0-2.18,0-3.28a5.27,5.27,0,0,0,5.67-3.18Z"/><path class="cls-49" d="M178.67,32.15a8.1,8.1,0,0,0-6.72.94c1.24-1.33,3.35-2.27,6.72-.94Zm-8.1,2.28c-1.58,2.15-1.82,8.12,2.6,7.93,2.67-.13,10.12-.82,11.17.43s-.22,7.44,1.66,8S187.82,53,189.46,53s4.14-2.35,4.4-7.11-2.16-16-13.66-13.38c-5.87-3.09-8.54-.21-9.63,2Z"/><path class="cls-23" d="M173.61,42.34a19.4,19.4,0,0,1,.94,7.27c-.13,4.66,4.86,7,7.64,7A6.27,6.27,0,0,0,189,50.26a3.42,3.42,0,0,0,1.64-2.46,1.85,1.85,0,0,0-2.54-1.62,2.6,2.6,0,0,0-1,2.39c.09,1-.08,1.66-.52,1.65-1.1,0-1.12-5.08-.88-5.72a2,2,0,0,0-1.18-2.77c-.81-.35-8.47.21-10.86.61Z"/><path class="cls-22" d="M173.61,42.34s.13.35.31,1a39.4,39.4,0,0,1,6.89-.82c3.81-.08,4.22,1,4.54,1.87s.15.29.24.42a2.78,2.78,0,0,1,.06-.34,2,2,0,0,0-1.18-2.77c-.81-.35-8.47.21-10.86.61Z"/><path class="cls-49" d="M177.11,45.41a1.09,1.09,0,0,1,.9,1c.06.57-.26,1-.7,1a1.09,1.09,0,0,1-.9-1.06c0-.57.27-1,.7-1Z"/><path class="cls-49" d="M182.26,45.53a1,1,0,0,1,.87,1c.06.57-.26,1-.7,1a1.08,1.08,0,0,1-.87-1.06c-.06-.58.26-1,.7-1Z"/><path class="cls-25" d="M179.63,47.56s-.37,2.11-1.18,2.61a.24.24,0,0,0-.18.22.37.37,0,0,0,.09.19.56.56,0,0,0,.22.21,1.22,1.22,0,0,0,1.14.15,1.42,1.42,0,0,0,.15.35,1.8,1.8,0,0,1-1.47-.19,1.21,1.21,0,0,1-.32-.32.58.58,0,0,1-.16-.4.62.62,0,0,1,.31-.55c.7-.38,1.05-2.35,1.05-2.35l.35.08Z"/><path class="cls-25" d="M179.13,52.7a2.59,2.59,0,0,0,3.44-.52c.13.12.28.23.43.37a3.08,3.08,0,0,1-4.13.6c.08-.15.17-.31.26-.45Z"/><path class="cls-49" d="M175.49,44.28a2,2,0,0,1,2.94,0,4.32,4.32,0,0,0-.44.52,1.32,1.32,0,0,0-1.93,0c-.19-.18-.39-.34-.57-.53Zm5.06.11a2,2,0,0,1,2.93,0c-.15.18-.3.35-.43.53a1.32,1.32,0,0,0-1.93,0c-.2-.18-.39-.34-.57-.53Z"/><path class="cls-46" d="M196.25,63.84c.83,2.3.33,6-.63,9.68h2.82c.09-3.76-.42-7.44-2.19-9.68Z"/><path class="cls-45" d="M196.49,73.52c1-4.78,1-9.46-1-10.24-5.13-2-7.38,4.74-8.59,10.24,3.18,0,6.37,0,9.57,0Z"/><path class="cls-4" d="M177.6,45.88a.3.3,0,0,1,.28.29.23.23,0,0,1-.24.27.33.33,0,0,1-.31-.29.25.25,0,0,1,.27-.27Z"/><path class="cls-4" d="M182.68,46a.33.33,0,0,1,.3.29.23.23,0,0,1-.26.25.29.29,0,0,1-.29-.27.24.24,0,0,1,.25-.27Z"/><path class="cls-22" d="M189.73,47.35a1.25,1.25,0,0,0-1.14-.7c-.85,0-1.14,1.58-.86,2.27s1.13-.15,1.34.3.81-.09.55-.68-1.27-.08-1.34-.53.26-.84.5-.63.62.54.86.35a.26.26,0,0,0,.09-.38Z"/><path class="cls-50" d="M157,48.31l10.71-.67a1.22,1.22,0,0,1,1.14,1c2.25,8.34,4.46,16.65,6.7,24.92-5.41,0-10.82,0-16.23,0-.79-8.39-1.53-16.78-2.32-25.18Z"/><path class="cls-51" d="M157,48.73l10.12-.66a1.23,1.23,0,0,1,1.16,1c2.26,8.18,4.49,16.34,6.75,24.47-5.26,0-10.52,0-15.75,0Q158.17,61.13,157,48.73Z"/><path class="cls-46" d="M193.71,65.05a38.3,38.3,0,0,1,0,8.49l-.35,0a37.56,37.56,0,0,0,0-8.47,2.28,2.28,0,0,0,.37,0Z"/><path class="cls-46" d="M180.16,64.54a16.47,16.47,0,0,0,5.38,7.3,2.43,2.43,0,0,1-.19.29,17.25,17.25,0,0,1-5.54-7.49l.35-.1Zm-1.34,3a11.25,11.25,0,0,0,1.53,6,2.54,2.54,0,0,1-.39,0,11.76,11.76,0,0,1-1.49-6.08l.35.06Z"/><path class="cls-32" d="M80.86,79.64s1.34-1.6,5.29,0,4.88,5.8,5.92,7.94,4,2.13,3.46,6-.75,2.36.52,4.28,2,3.83.9,5.12-1.28,2.48,0,4.11,3.76,2.23,1.66,6.42-25.73,4.92-28.09.35,0-4.42-.7-8-2.14-5.38-.62-7.35-1-2.68-.63-5.83,2.71-1.82,2.84-4.35,1.95-10.59,9.49-8.75Z"/><path class="cls-52" d="M79.24,103.36s.77,5.44-.92,6.75-9.73,1.64-11.3,3-1.4,10.61-1.36,13.35q17.81-.31,35.67-.68c-.11-3-.26-10.75-3.37-12.39s-8.83-1.6-10.49-4.33-1.27-4.15-1.27-4.15-6.13.18-7-1.58Z"/><path class="cls-53" d="M79.24,103.36a20.74,20.74,0,0,1,.15,3.63A11.47,11.47,0,0,0,82,108.3a7,7,0,0,0,5-.11c-1.09-2.13-.76-3.25-.76-3.25s-6.13.18-7-1.58Z"/><path class="cls-52" d="M89.33,89.1a21.64,21.64,0,0,0,.81,4.59,16.39,16.39,0,0,1-.24,8.88,6.27,6.27,0,0,1-8.15,3.33c-3.63-1.46-5.25-3.39-5.78-5.76a30.06,30.06,0,0,0-1-3.73A6.55,6.55,0,0,0,75.25,93c-.41-1.49-.45-1.78.31-2.86s.09-1.51.7-2.63,1.07-2.77,2.84-1.37,2.83-.08,3.9-.52,2-1.6,2.94.71,2.9,1.66,3.19,2a.82.82,0,0,1,.2.71Z"/><path class="cls-7" d="M86.53,93.1c-.45,0-.76.47-.7,1a1,1,0,0,0,.87,1,.83.83,0,0,0,.72-1,1,1,0,0,0-.89-1Z"/><path class="cls-7" d="M79.54,93.11a.83.83,0,0,0-.72,1,1,1,0,0,0,.9,1,.86.86,0,0,0,.72-1,1.06,1.06,0,0,0-.9-1Z"/><path class="cls-54" d="M88.52,92.52a2.74,2.74,0,0,0-4-.13,1.42,1.42,0,0,0,.22.28,2.46,2.46,0,0,1,3.59.07l.24-.22Z"/><path class="cls-54" d="M81.51,92.52a2.73,2.73,0,0,0-4.05-.13,1.93,1.93,0,0,0,.22.28,2.48,2.48,0,0,1,3.61.09,2.4,2.4,0,0,1,.22-.24Z"/><path class="cls-16" d="M83,94.92s.46,1.89,1.14,2.29a.9.9,0,0,1,.37.32.47.47,0,0,1,.09.29.4.4,0,0,1-.11.3,1.15,1.15,0,0,1-.61.32,2.6,2.6,0,0,0,.15.42,1.83,1.83,0,0,0,.77-.43.89.89,0,0,0,.22-.56.94.94,0,0,0-.2-.55,1.28,1.28,0,0,0-.5-.48c-.51-.3-.92-2-.92-2s-.27.07-.4.08Z"/><path class="cls-4" d="M86.13,100.57s-5.67-.13-5.73,0a5.08,5.08,0,0,0,3.37,1.72c1.43-.1,3.06-1.64,2.36-1.75Z"/><path class="cls-53" d="M87.42,97c-.58,0-1,.26-1,.55s.51.53,1.09.53,1-.26,1-.55S88,97,87.42,97Z"/><path class="cls-53" d="M79.37,97c-.57,0-1,.25-1,.55s.49.5,1.07.5,1-.21,1-.5S79.94,97,79.37,97Z"/><path class="cls-53" d="M90.62,93.64a1.3,1.3,0,0,1,1.25.37,2.93,2.93,0,0,1,.09,3.2,2.69,2.69,0,0,1-1.34,1.28s.33-3.87,0-4.85Z"/><path class="cls-53" d="M73.56,93.1s-.87-.63-1.24.65.81,3.2,1.29,3.6a4.87,4.87,0,0,0,1.81.6,18,18,0,0,1-1.86-4.85Z"/><path class="cls-55" d="M93.29,111.42c.09,2.42.2,4.84.31,7.25l1,0c-.11-2.4-.2-4.82-.29-7.22a9.23,9.23,0,0,1-1,0Z"/><path class="cls-55" d="M70.74,111.39c.5,2.45,1,4.85,1.51,7.28l1-.16c-.5-2.43-1-4.83-1.51-7.26l-1,.14Z"/><path class="cls-42" d="M94.19,117.51s-1.57,3.83-8.63,3.73-13.2-4.84-13.31-3.41-.42,5.71-.64,8.56q12.19-.21,24.38-.46a31.56,31.56,0,0,0-1.8-8.42Z"/><path class="cls-54" d="M85.5,114,89,113c0-.11-.08-.24-.11-.35-1.18.32-2.36.64-3.54,1a1.3,1.3,0,0,0,.11.35Zm-3.26-.32c-1.25-.29-2.48-.59-3.71-.9,0,.13,0,.26-.06.37l3.7.88a1.67,1.67,0,0,1,.07-.35Z"/><path class="cls-4" d="M86.9,93.59a.25.25,0,0,0-.22.28.28.28,0,0,0,.26.24.22.22,0,0,0,.22-.24.3.3,0,0,0-.26-.28Z"/><path class="cls-4" d="M79.87,93.61a.23.23,0,0,0-.22.26.27.27,0,0,0,.26.24.23.23,0,0,0,.22-.26.26.26,0,0,0-.26-.24Z"/><path class="cls-56" d="M237.53,112.11l26.73-.89c.29,3,.57,6.08.86,9.12l-32.21,1.28c-.2-2-.37-3.89-.55-5.84s2.15-3.57,5.17-3.67Z"/><path class="cls-57" d="M264.37,112.11c.24,2.76.48,5.49.75,8.23l-32.21,1.28c-.18-1.63-.31-3.28-.46-4.93-.18-1.92,2.14-3.56,5.16-3.67,8.89-.29,17.83-.6,26.76-.91Z"/><path class="cls-31" d="M252.22,114.82c.22,0,.46,0,.7,0,.07,1,.18,2.1.28,3.14h-.7c-.11-1-.22-2.08-.28-3.13Zm6.81-.24.72,0c.07,1,.18,2.08.29,3.11l-.7,0c-.11-1-.22-2.07-.31-3.12Zm-1.36,0c.22,0,.46,0,.7,0,.09,1,.2,2.08.31,3.12-.24,0-.48,0-.72,0-.11-1-.22-2.08-.29-3.13Zm-1.36.06c.22,0,.46,0,.7,0,.07,1,.18,2.08.29,3.12h-.7c-.11-1-.22-2.06-.29-3.1Zm-1.38,0,.73,0c.06,1,.17,2.09.28,3.12h-.7c-.11-1-.22-2.06-.31-3.1Zm-1.35,0,.7,0c.06,1.06.17,2.1.28,3.14l-.7,0c-.11-1-.22-2.08-.28-3.14Z"/><path class="cls-58" d="M240.55,130c-4.09,1.83-4.92,4.21-4.82,5.42s0,2.23,1.84,6.56c-.79,5.73-.11,17.88-.11,17.88l23.39-2.4c3.89-.4-3.53-8.75-4.49-12.45-.66-2.5-.44-7.25-2.5-11-2.49-4.55-9.23-5.84-13.31-4Z"/><path class="cls-32" d="M236.65,139.13s-1.67.64-1.64,2.08.28,3.63,1.27,4.4,1.8,1.4,1.6.28-.81-4.5-1.23-6.76Z"/><path class="cls-52" d="M250.8,147.45a28.23,28.23,0,0,0,1.4,6c.83,1.69.83,1.73.83,1.73a11.79,11.79,0,0,1-4.62,2c-2.2.24-3.69-.11-3.77-1s-.37-4.61-.44-5.53,4.84-.87,6.6-3.13Z"/><path class="cls-14" d="M250.8,147.45s.28,2,.7,3.81a11.16,11.16,0,0,1-5.57,2.87c-1.44.16-1,.05-1.44,0-.11-1.18-.24-3-.29-3.58s4.84-.87,6.6-3.13Z"/><path class="cls-52" d="M236.43,136.52a41.16,41.16,0,0,0,1.49,9.49c1.28,3.77,4.13,5.7,7.77,5.33s6.34-3,6.77-5a48.35,48.35,0,0,0,.26-7.36s-1.14.43-3.48-.66S239,134.11,239,134.11a9.79,9.79,0,0,0-2.52,2.41Z"/><path class="cls-59" d="M252.2,139.92s-2.87-11-12.44-9.64c6-4.59,13.25,2.32,14.32,9.19l-1.88.45Z"/><path class="cls-60" d="M252.2,139.92a19.1,19.1,0,0,0-1-2.5,3.41,3.41,0,0,1,1.8-.85c.39,0,.17,0,.24,0a15,15,0,0,1,.81,2.88l-1.88.45Z"/><path class="cls-32" d="M244.82,155.62a25.9,25.9,0,0,0-3,1.95c-2.81,2-5.21.88-5.67,3.12a39.89,39.89,0,0,0-.57,5.4c-.17,1.18-.33,2.36-.44,3.52q16.75-1.28,33.57-2.5a22.73,22.73,0,0,0-1.58-6c-1-2.21-1.06-4-2.95-5S252.5,154,252.5,154c.81,2-5.49,4-7.68,1.64Z"/><path class="cls-51" d="M218.48,154c6.39-.4,12.76-.78,19.16-1.2a3.67,3.67,0,0,1,3.74,2.76c.88,4.17,1.75,8.35,2.67,12.53a2.47,2.47,0,0,1,0,.89l-24.24,1.83c-.49-5.6-.92-11.19-1.38-16.81Z"/><path class="cls-60" d="M243.85,156.88s5.46,3.84,10.56-1.81a2.63,2.63,0,0,0,.37.29c-5.39,6-11.19,1.91-11.21,1.89l.28-.37Z"/><path class="cls-60" d="M259.9,159.83a25.56,25.56,0,0,0-.89,7.74l-.49,0a26.57,26.57,0,0,1,.9-7.88,3.71,3.71,0,0,0,.48.1Z"/><path class="cls-13" d="M245.72,139.63c.37,0,.72.37.76.89s-.24,1-.61,1-.69-.39-.75-.91.22-1,.6-1Z"/><path class="cls-13" d="M239.45,140c.38,0,.73.38.77.91s-.22.95-.59,1-.71-.4-.77-.92.22-1,.59-1Z"/><path class="cls-61" d="M237.81,139.24a2.26,2.26,0,0,1,3.15-.17,1.28,1.28,0,0,0-.24.29,1.82,1.82,0,0,0-2.6.12c-.11-.08-.22-.16-.31-.24Z"/><path class="cls-61" d="M244.07,138.91a2.27,2.27,0,0,1,3.16-.18,1.84,1.84,0,0,0-.24.3,1.84,1.84,0,0,0-2.61.12,2.55,2.55,0,0,1-.31-.24Z"/><path class="cls-16" d="M242.1,141.71s.09,2.32-.52,2.88c-.33.3,1.2.77,1.2.77a3.42,3.42,0,0,0-.11.35s-2.17-.66-1.38-1.39c.48-.45.42-2.6.42-2.6Z"/><path class="cls-4" d="M241.56,147.15l4.62-1.18c.78-.2-1.1,2.12-2.39,2.43s-2.23-1.25-2.23-1.25Z"/><path class="cls-32" d="M253.1,137.27c1.74-.09,3.3,1.54,3.48,3.64s-1.11,3.9-2.85,4-3.3-1.56-3.48-3.67,1.1-3.87,2.85-4Z"/><path class="cls-62" d="M254,137.51a2.71,2.71,0,0,1,2.58,2.69,2.58,2.58,0,0,1-2.14,3,2.71,2.71,0,0,1-2.57-2.7,2.56,2.56,0,0,1,2.13-3Z"/><path class="cls-32" d="M254.58,138.2a2,2,0,0,1,1.95,2,1.92,1.92,0,0,1-1.6,2.24,2,2,0,0,1-1.92-2,1.88,1.88,0,0,1,1.57-2.21Z"/><path class="cls-4" d="M225.48,160.16a2.18,2.18,0,1,1-2.08,2.32,2.19,2.19,0,0,1,2.08-2.32Z"/><path class="cls-4" d="M245.72,140c.12,0,.23,0,.24.16a.21.21,0,0,1-.2.22.2.2,0,0,1-.22-.19.16.16,0,0,1,.18-.19Z"/><path class="cls-4" d="M239.5,140.32a.2.2,0,0,1,.22.17.22.22,0,0,1-.2.23.21.21,0,0,1-.22-.2.19.19,0,0,1,.2-.2Z"/><path class="cls-33" d="M81.53,163.48S73,168,72.16,169.86s-1,6.52-1.18,10.15q18.69-.88,37.38-1.84c-.66-3.5-1.63-8.37-2.37-9.78-1.19-2.28-11.13-6.55-12.19-5.39s-4.23,4.65-6.33,7c-2-2.16-4-4.34-5.94-6.51Z"/><path class="cls-35" d="M77.13,144.78c-.74,1.41-1,1.63-.59,3.49s1.66,3,2.19,2.72-1.6-6.21-1.6-6.21Z"/><path class="cls-35" d="M96.18,144.22c1,1.36,1.23,1.56,1.19,3.41s-1.11,3.08-1.69,2.82.5-6.23.5-6.23Z"/><path class="cls-12" d="M75.56,138a20.59,20.59,0,0,0,.26,4.71c.43,1.74-.74,5.62,2.23,5.5s14.91-.61,17.89-.75,1.9-4.9,1.21-10A7.27,7.27,0,0,0,92,131.29s-4.74-3.14-10.12-1.41S75.56,138,75.56,138Z"/><path class="cls-53" d="M91.56,155.19c.22,1.55.46,3.08.7,4.64s.44,3.07.68,4.61l-4.27,4.73c-1.55-1.61-3.13-3.2-4.68-4.8,0-3,.06-5.94.13-8.91,0,0,5.38,1.28,7.44-.27Z"/><path class="cls-43" d="M91.56,155.19c.16,1.15.33,2.32.53,3.45a10,10,0,0,1-8,.29c0-1.15,0-2.3.07-3.47,0,0,5.38,1.28,7.44-.27Z"/><path class="cls-53" d="M92.24,135.69a22.92,22.92,0,0,1,3.53,5.59c.85,2.45,0,11.76-1.86,13.87s-7.62,3.95-12.22.44-4-12.84-4-13.8,3.77-6.16,3.75-5.49a4.47,4.47,0,0,1-.94,1.77,10.8,10.8,0,0,0,2.14-1.45c1.23-1,1.56-1.35,1.4-1s-1.85,2.26-1.57,2.33a8,8,0,0,0,2.69-1.44c1-.72,2.87-2.33,2.87-2.33s1.19,3.51,1.77,2.94-.2-2.51-.2-2.51A18.42,18.42,0,0,0,92.2,137c.7.34,0-1.3,0-1.3Z"/><path class="cls-36" d="M89,140.83a2.72,2.72,0,0,1,3.83-.11c-.09.12-.17.28-.26.43a2.26,2.26,0,0,0-3.2.06,2.67,2.67,0,0,1-.37-.38Z"/><path class="cls-36" d="M80.05,141.08a2.71,2.71,0,0,1,3.83-.12l-.27.43a2.23,2.23,0,0,0-3.19.08,4.43,4.43,0,0,1-.37-.39Z"/><path class="cls-31" d="M82.39,142.24c.38,0,.72.51.79,1.16s-.21,1.21-.59,1.22-.74-.51-.79-1.17.2-1.21.59-1.21Z"/><path class="cls-31" d="M90.42,142c.39,0,.73.51.79,1.17s-.21,1.21-.59,1.22-.73-.52-.79-1.19.21-1.18.59-1.2Z"/><path class="cls-16" d="M85,146.59a2.64,2.64,0,0,0,3.51-.14,3,3,0,0,0,.35.43,3.12,3.12,0,0,1-4.16.09,4.5,4.5,0,0,1,.3-.38Z"/><path class="cls-16" d="M83.9,150.53s4.07,2,7.71-.21c.08.14.17.3.28.46-3.87,2.32-8.17.26-8.17.26,0-.16.11-.34.18-.51Z"/><path class="cls-63" d="M91.37,166.71c-.84,1.07-1.67,2.14-2.48,3.22q.39,3.52.81,7l-2.41.13c-.19-2.37-.41-4.71-.61-7.08.79-1.41,1.58-2.8,2.39-4.21.76.31,1.53.61,2.3.9Z"/><path class="cls-64" d="M85.72,165.08c.72,1,1.44,1.89,2.16,2.83-.41.7-.81,1.42-1.2,2.11-.83-1.18-1.69-2.35-2.52-3.55.51-.46,1-.93,1.56-1.39Z"/><path class="cls-65" d="M75.34,174.68c-.13,1.73-.27,3.44-.38,5.14l-.5,0c.11-1.73.24-3.49.37-5.23l.51.06Z"/><path class="cls-65" d="M102.25,173.43c.39,1.68.83,3.35,1.27,5l.5,0q-.66-2.52-1.29-5.09a3.38,3.38,0,0,0-.48.11Z"/><path class="cls-32" d="M75.14,177.4q13.77-1.08,27.52-2.22c.29,1.09.57,2.17.86,3.25q-14.3.72-28.56,1.39c.05-.8.11-1.6.18-2.42Z"/><path class="cls-66" d="M92.26,159.83c.57,3.89-3.42,5.82-3.19,6,1.76,1.31,3.54,2.58,5.34,3.88.66-5.91,2.3-6.68-2.15-9.86Z"/><path class="cls-66" d="M84,160.48s-.39.45-.22,1.94,2.65,1.93,1.91,2.66-3.71,3.66-4.45,4.4-.35-4.11-.5-5.94S84,159.91,84,160.48Z"/><path class="cls-4" d="M82.32,142.76a.22.22,0,0,1,.22.2.2.2,0,0,1-.2.22.22.22,0,0,1-.21-.21.19.19,0,0,1,.19-.21Z"/><path class="cls-4" d="M90.49,142.52a.23.23,0,0,1,.22.21.22.22,0,0,1-.2.23.24.24,0,0,1-.22-.21.23.23,0,0,1,.2-.23Z"/><path class="cls-53" d="M77.22,162.18a15.43,15.43,0,0,0,1.23-6.35c-.17-1.93.71-3.83-.33-4s-1.45.55-1.56,1.31-.06,2-.19,2.71,0,1.08-.29.69A26.44,26.44,0,0,1,74.55,152a46.23,46.23,0,0,0-1-5.19.73.73,0,0,0-1.36.26c-.16.81.8,6.47.59,6.61s-1.15-4.13-1.36-4.87-.34-2.3-1.33-2.27-.36,2.51-.22,3.14a44.13,44.13,0,0,1,1.05,4.69c-.11.29-.36.34-.48.06s-1.87-4.17-2.13-4.93-.64-1.56-1.24-1.39-.65.71-.27,1.89,2.28,6,2.39,6.32a.45.45,0,0,1-.37.61,13.25,13.25,0,0,1-2.37-1.54,11.14,11.14,0,0,0-1.64-1.66c-.39-.19-1.08-.1-1,.53s1.89,2.62,2.61,3.39a22.41,22.41,0,0,0,1.84,1.68s2.54,4.29,3,4.43-1.63,16.35-1.63,16.35c2-.08,4.08-.2,6.11-.29.51-3.22.77-15.48,1.58-17.61Z"/></g></g></g></svg>