<svg xmlns="http://www.w3.org/2000/svg" viewBox="0 0 26.73 36"><defs><style>.cls-1{fill:#fa5;}</style></defs><g id="Layer_2" data-name="Layer 2"><g id="Option_1" data-name="Option 1"><path class="cls-1" d="M23.79,13.9H22.1V8.73a8.74,8.74,0,0,0-17.47,0V13.9H2.94A2.94,2.94,0,0,0,0,16.84V33.06A2.94,2.94,0,0,0,2.94,36H23.79a2.94,2.94,0,0,0,2.94-2.94V16.84A2.94,2.94,0,0,0,23.79,13.9ZM5.88,8.73a7.49,7.49,0,1,1,15,0V13.9h-15ZM25.49,33.06a1.7,1.7,0,0,1-1.7,1.7H2.94a1.7,1.7,0,0,1-1.7-1.7V16.84a1.7,1.7,0,0,1,1.7-1.69H23.79a1.7,1.7,0,0,1,1.7,1.69Z"/><path class="cls-1" d="M13.37,20.08a2.55,2.55,0,0,0-1,4.92l.33.14V29.2a.63.63,0,0,0,1.25,0V25.14l.33-.14a2.55,2.55,0,0,0-1-4.92Zm0,3.86a1.31,1.31,0,1,1,1.31-1.31A1.3,1.3,0,0,1,13.37,23.94Z"/></g></g></svg>