<svg xmlns="http://www.w3.org/2000/svg" viewBox="0 0 24.19 30.51"><defs><style>.cls-1{fill:#fa5;}</style></defs><g id="Layer_2" data-name="Layer 2"><g id="Option_1" data-name="Option 1"><path class="cls-1" d="M24.19,8.85a2.47,2.47,0,0,0-2.52-2.46,2.55,2.55,0,0,0-1.23.33l-.15.09V3.73a2.46,2.46,0,0,0-3.82-2l-.11.08,0-.13a2.46,2.46,0,0,0-4.64,0l0,.13-.11-.08a2.42,2.42,0,0,0-1.36-.41A2.46,2.46,0,0,0,7.71,3.73v12l-.18-.21a5,5,0,0,0-3.75-2.05c-1.74,0-2.9.39-3.45,1.15a1.69,1.69,0,0,0-.26,1.48.57.57,0,0,0,.13.21,21.36,21.36,0,0,1,4.07,6.27,19.38,19.38,0,0,0,1.88,3.33L7.43,27.7a2,2,0,0,1,.37,1.16V30a.54.54,0,0,0,.54.54A.55.55,0,0,0,8.88,30V28.85a3.12,3.12,0,0,0-.56-1.77L7,25.24a17.91,17.91,0,0,1-1.77-3.15,22.37,22.37,0,0,0-4.15-6.45l0,0v0a.62.62,0,0,1,.14-.39c.47-.62,1.94-.68,2.56-.68a3.88,3.88,0,0,1,2.84,1.56,9.62,9.62,0,0,1,1.15,1.65.53.53,0,0,0,.6.29.55.55,0,0,0,.42-.52V3.73a1.38,1.38,0,0,1,2.76,0V16.52a.54.54,0,1,0,1.07,0V2.46a1.38,1.38,0,0,1,2.76,0V16.52a.54.54,0,0,0,1.08,0V3.73a1.38,1.38,0,0,1,2.76,0V16.52a.54.54,0,1,0,1.07,0V8.85a1.41,1.41,0,0,1,2.82,0v8.92L23,20.22A11.32,11.32,0,0,1,20.34,27a3,3,0,0,0-.71,2v1a.54.54,0,1,0,1.07,0v-1a2,2,0,0,1,.46-1.26,12.39,12.39,0,0,0,2.91-7.41l.12-2.48Z"/></g></g></svg>