<svg xmlns="http://www.w3.org/2000/svg" viewBox="0 0 332.25 232.97"><defs><style>.cls-1{isolation:isolate;}.cls-2,.cls-5{fill:#ffd371;}.cls-2{opacity:0.3;}.cls-3{fill:#e4f2f1;}.cls-4{fill:#fa5;}.cls-6{fill:#fff;}.cls-7{fill:#fb6265;}.cls-8{fill:#64516d;}.cls-9{fill:#332938;}.cls-10{fill:#7f454b;}.cls-11{fill:#f49971;}.cls-12,.cls-15{fill:#b96438;}.cls-12{opacity:0.5;}.cls-13{fill:#fc7465;}.cls-14{opacity:0.15;mix-blend-mode:multiply;}.cls-16{fill:#c6e9fb;}.cls-17{fill:#46c7ce;}.cls-18{fill:#f0d39f;}.cls-19{fill:#f9c382;}.cls-20{fill:#a15b60;}.cls-21{fill:#c45553;}</style></defs><g class="cls-1"><g id="Layer_2" data-name="Layer 2"><g id="Option_1" data-name="Option 1"><path class="cls-2" d="M43.6,168S-40.89,71.88,25.36,26.62c39.21-26.79,81.32,16,127.68-10C212.86-16.95,258.2,5.52,290.61,47.3c24.32,31.35,23.63,34,35.29,58.6,30.23,63.86-58.76,104.69-58.76,104.69S138.8,282.69,43.6,168Z"/><path class="cls-3" d="M46.68,26.93a5.56,5.56,0,0,0-5.55,5.55V190.89a5.56,5.56,0,0,0,5.55,5.55H263.11a5.56,5.56,0,0,0,5.55-5.55V32.48a5.56,5.56,0,0,0-5.55-5.55Z"/><path class="cls-4" d="M39.67,47.23H270.12V39.76c0-3.93.28-9.8-2.3-12.38s-8-1.91-12-1.91H54c-3.89,0-9.77.22-12.35,2.75s-1.94,7.54-1.94,11.54Z"/><path class="cls-4" d="M38.21,190.89V32.48A8.48,8.48,0,0,1,46.68,24H263.11a8.48,8.48,0,0,1,8.47,8.47V190.89a8.48,8.48,0,0,1-8.47,8.47H46.68A8.48,8.48,0,0,1,38.21,190.89Zm8.47-164a5.56,5.56,0,0,0-5.55,5.55V190.89a5.56,5.56,0,0,0,5.55,5.55H263.11a5.56,5.56,0,0,0,5.55-5.55V32.48a5.56,5.56,0,0,0-5.55-5.55Z"/><circle class="cls-5" cx="244.18" cy="36.56" r="3.32"/><circle class="cls-6" cx="257.67" cy="36.56" r="3.32"/><circle class="cls-7" cx="231.27" cy="36.56" r="3.32"/><path class="cls-8" d="M246.88,145.07l-9,51.37H174l.7-3.95.07-.38,3.42-19.27.27-1.55.44-2.48.85-4.8.37-2,1.61-9.11.47-2.62,2.29-12.91h56A6.48,6.48,0,0,1,246.88,145.07Z"/><path class="cls-9" d="M231.29,137.32l-10.48,59.12H132.5l2.79-15.87,1.85-10.46,4.34-24.72a10,10,0,0,1,9.83-8.07Z"/><path class="cls-10" d="M134.11,84.93s7.95,4.95-1.52,13.26-16,21.58-10.32,31a24.66,24.66,0,0,0,14.39,11.34l29.89-32.75S177.26,69.4,134.11,84.93Z"/><ellipse class="cls-10" cx="153.02" cy="80.86" rx="20.46" ry="19.52" transform="translate(-12.12 29.06) rotate(-10.44)"/><rect class="cls-11" x="148.18" y="90.32" width="16.75" height="19.49" transform="translate(-15.54 30.02) rotate(-10.44)"/><polygon class="cls-9" points="148.72 103.75 158.63 100.62 149.63 108.68 148.72 103.75"/><path class="cls-11" d="M148.5,104.22l15.83-4.8L160.74,80a11.89,11.89,0,0,0-14.05-9.21h0a11.89,11.89,0,0,0-9.85,13.61l2.37,12.83C140.07,101.91,144.25,105.87,148.5,104.22Z"/><path class="cls-12" d="M137.81,89.66,139,95.89a2.24,2.24,0,0,0,.73,0,3.3,3.3,0,0,0-1.19-6.44A2.34,2.34,0,0,0,137.81,89.66Z"/><path class="cls-10" d="M158.24,83.31l3.62-.67-3.11-16.87-20.49,3.78h0A17.16,17.16,0,0,0,158.24,83.31Z"/><circle class="cls-13" cx="162.55" cy="86.42" r="5.54"/><path class="cls-12" d="M149.87,90.76a3.47,3.47,0,1,0,2.79-4A3.48,3.48,0,0,0,149.87,90.76Z"/><path class="cls-9" d="M149.63,98.16a3.4,3.4,0,0,1-.85-.1l.26-.84-.13.42.12-.42c.09,0,2.09.58,3.61-1.8l.74.47A4.37,4.37,0,0,1,149.63,98.16Z"/><path class="cls-9" d="M149.32,87.76a1.1,1.1,0,1,0,.88-1.28A1.09,1.09,0,0,0,149.32,87.76Z"/><path class="cls-9" d="M139.88,89.5a1.1,1.1,0,1,0,.88-1.28A1.1,1.1,0,0,0,139.88,89.5Z"/><path class="cls-9" d="M145.15,93.73a1,1,0,0,1-.54-.16,1,1,0,0,1-.44-.76l-.3-4.82.87,0,.31,4.82.28.5L144.7,93l2.8-1,.3.83-2.32.82A1,1,0,0,1,145.15,93.73Z"/><path class="cls-11" d="M129.37,196.44H107.92l-22.8-42.56s32.65,4.89,42.78,35.62A29.44,29.44,0,0,1,129.37,196.44Z"/><path class="cls-11" d="M77.6,155.68s-6-13-3.82-13.46,7.23,11,7.23,11Z"/><path class="cls-11" d="M75.54,150.7l9.83-.45a6.65,6.65,0,0,1,6.88,5.61l.43,2.77s-12.22,7.76-22.56,2Z"/><path class="cls-11" d="M76,161.09s-12-16.75-9.26-17.59,13.31,14,13.31,14Z"/><path class="cls-11" d="M70.12,160.67c-3.83-2.31-11.44-14.94-9-15.69s13.36,13.41,13.36,13.41Z"/><polygon class="cls-4" points="188.35 196.44 107.13 196.44 113.66 167.48 114.59 163.49 114.82 162.49 114.82 162.49 115.97 157.49 116.07 157.06 117.37 151.47 121.49 133.72 124.01 131.73 150.08 111.16 166.15 108.2 166.15 108.2 166.55 108.13 166.55 108.13 166.56 108.14 174 117.36 175 118.36 178 121.36 178 121.36 177.8 125.48 179.52 137.32 181.77 152.85 183.15 162.33 184.07 168.65 184.07 168.65 185.53 178.7 187.05 189.21 187.59 192.93 188.35 196.44"/><path class="cls-4" d="M178.49,121.88s39.19,38.85,30.58,54.72c-12.84,23.7-44.74-19-44.74-19Z"/><polygon class="cls-14" points="188.62 196.44 134.81 196.44 139.49 183.41 139.76 182.68 144.36 169.88 156.06 137.32 157.91 132.18 158.45 130.69 166.56 108.14 166.56 108.13 175.36 118.27 175.94 118.94 178.49 121.88 180.53 137.32 182.24 150.23 183.85 162.41 184.67 168.63 186.05 179.05 186.05 179.05 187.37 189.07 187.88 192.93 188.62 196.44"/><polygon class="cls-9" points="157.91 132.17 165.8 126.38 166.94 125.55 175.94 118.94 175.36 118.27 158.45 130.69 157.91 132.17"/><polygon class="cls-9" points="166.98 125.41 166.94 125.55 163.72 137.32 154.9 169.55 154.9 169.56 150.92 184.11 149.85 188 149.69 188.57 149.69 188.58 147.54 196.44 146.63 196.44 148.88 188.25 149.46 186.1 150.26 183.17 153.98 169.58 162.81 137.32 165.8 126.38 166.13 125.17 166.98 125.41"/><path class="cls-15" d="M135.17,148.2s1.43-15.34-.92-15-3.42,13.71-3.42,13.71Z"/><path class="cls-11" d="M199.37,171.15l-69.6-15.48s14.53,32.4,49.3,34C202.53,190.72,199.37,171.15,199.37,171.15Z"/><path class="cls-11" d="M129.45,147.35s-15.21-2.42-15,0,13.46,4.3,13.46,4.3Z"/><path class="cls-11" d="M123.7,146.67,126.08,157a7.16,7.16,0,0,0,7.81,5.49l3-.35s4.5-14.91-4.42-24Z"/><path class="cls-11" d="M134.61,144.17s-20.83-7.54-20.9-4.49,18.35,9.73,18.35,9.73Z"/><path class="cls-11" d="M132.46,138.16c-3.5-3.29-18.8-7.52-18.87-4.8s17.76,9.95,17.76,9.95Z"/><path class="cls-4" d="M171.8,192.39l0-31.45,20.46,2.5a14.85,14.85,0,0,1,12.9,12.63h0A14.84,14.84,0,0,1,189.94,193Z"/><polygon class="cls-14" points="179.81 161.88 179.52 192.65 178.31 192.61 178.59 161.87 179.81 161.88"/><path class="cls-6" d="M160.81,80.84l4.29-.64-1.25-8.32a15.82,15.82,0,0,0-18-13.27l-2,.31.64,4.29,2-.3a11.46,11.46,0,0,1,13,9.61Z"/><circle class="cls-9" cx="162.72" cy="84.55" r="7.61" transform="translate(31.68 212.82) rotate(-71.84)"/><path class="cls-6" d="M159.31,105.23a14.87,14.87,0,0,0,6.16-6c2.07-4,.84-10.36.79-10.63l-1.3.26c0,.06,1.19,6.13-.67,9.76a13.77,13.77,0,0,1-5.56,5.47Z"/><path class="cls-6" d="M157,104.94a2.08,2.08,0,1,0,1.75-2.36A2.08,2.08,0,0,0,157,104.94Z"/><path class="cls-6" d="M157.52,85.33a7,7,0,1,0,5.89-8A7,7,0,0,0,157.52,85.33Z"/><path class="cls-9" d="M161.37,84.75A4.34,4.34,0,1,0,165,79.81,4.35,4.35,0,0,0,161.37,84.75Z"/><rect class="cls-6" x="236.22" y="101.21" width="96.04" height="35.41" rx="11.06"/><path class="cls-5" d="M268.68,119.6a11.38,11.38,0,1,1-11.38-11.37A11.33,11.33,0,0,1,268.68,119.6Z"/><circle class="cls-4" cx="257.3" cy="116.93" r="4.12"/><path class="cls-4" d="M265.85,127.1a11.37,11.37,0,0,1-17.09,0,9.64,9.64,0,0,1,17.09,0Z"/><path class="cls-16" d="M314.3,113.9H276a1.89,1.89,0,0,1-1.89-1.88h0a1.89,1.89,0,0,1,1.89-1.89H314.3a1.89,1.89,0,0,1,1.89,1.89h0A1.89,1.89,0,0,1,314.3,113.9Z"/><path class="cls-16" d="M314.3,120.8H276a1.89,1.89,0,0,1-1.89-1.89h0A1.89,1.89,0,0,1,276,117H314.3a1.89,1.89,0,0,1,1.89,1.89h0A1.89,1.89,0,0,1,314.3,120.8Z"/><path class="cls-16" d="M302,127.69H276a1.89,1.89,0,0,1-1.89-1.89h0a1.89,1.89,0,0,1,1.89-1.88h26a1.88,1.88,0,0,1,1.88,1.88h0A1.88,1.88,0,0,1,302,127.69Z"/><rect class="cls-6" x="236.22" y="60.29" width="96.04" height="35.41" rx="11.06"/><path class="cls-5" d="M268.68,78.67A11.38,11.38,0,1,1,257.3,67.31,11.33,11.33,0,0,1,268.68,78.67Z"/><circle class="cls-4" cx="257.3" cy="76.01" r="4.12" transform="translate(123.98 308.83) rotate(-76.66)"/><path class="cls-4" d="M265.85,86.18a11.37,11.37,0,0,1-17.09,0,9.64,9.64,0,0,1,17.09,0Z"/><path class="cls-16" d="M314.3,73H276a1.89,1.89,0,0,1-1.89-1.88h0A1.89,1.89,0,0,1,276,69.21H314.3a1.89,1.89,0,0,1,1.89,1.89h0A1.89,1.89,0,0,1,314.3,73Z"/><path class="cls-16" d="M314.3,79.88H276A1.89,1.89,0,0,1,274.07,78h0A1.89,1.89,0,0,1,276,76.1H314.3A1.89,1.89,0,0,1,316.19,78h0A1.89,1.89,0,0,1,314.3,79.88Z"/><path class="cls-16" d="M302,86.77H276a1.89,1.89,0,0,1-1.89-1.89h0A1.89,1.89,0,0,1,276,83h26a1.88,1.88,0,0,1,1.88,1.88h0A1.88,1.88,0,0,1,302,86.77Z"/><path class="cls-17" d="M108.67,47A45,45,0,0,1,95.44,78.89a43.75,43.75,0,0,1-4.27,3.77,44.93,44.93,0,0,1-27.65,9.46c-.61,0-1.21,0-1.81,0l-1,0-.67,0a44.94,44.94,0,0,1-7.57-1.23c-.42-.1-.84-.21-1.25-.33l-.68-.19L49.82,90,49,89.73l-.32-.11c-.58-.2-1.15-.42-1.72-.64a45.08,45.08,0,0,1-13.87-8.67c-.5-.46-1-.93-1.48-1.42A45.14,45.14,0,1,1,108.67,47Z"/><path class="cls-18" d="M91.17,82.66a44.93,44.93,0,0,1-27.65,9.46c-.61,0-1.21,0-1.81,0l-1,0-.67,0a44.94,44.94,0,0,1-7.57-1.23c-.42-.1-.84-.21-1.25-.33l-.68-.19L49.82,90,49,89.73l-.32-.11c-.58-.2-1.15-.42-1.72-.64a45.08,45.08,0,0,1-13.87-8.67,17.87,17.87,0,0,1,4.17-3.61L57.12,64.33H68.37L71,66.44Z"/><path class="cls-19" d="M57.12,64.33H68.37L71,66.44s-1.28,5.19-5.7,5.13-10.51-5.79-10.51-5.79Z"/><ellipse class="cls-9" cx="61.44" cy="39.68" rx="20.56" ry="19.62"/><rect class="cls-20" x="57.12" y="51.24" width="11.25" height="13.09"/><polygon class="cls-9" points="68.37 59.26 61.44 58.41 68.37 62.63 68.37 59.26"/><path class="cls-20" d="M68.57,60.22l-11-1.91V46.54a8,8,0,0,1,8.16-7.79h0a8,8,0,0,1,8.16,7.79v9.27C73.85,59,71.58,60.8,68.57,60.22Z"/><rect class="cls-9" x="56.76" y="35.84" width="4.6" height="13.14"/><path class="cls-21" d="M73.86,48.64v4.25a1.61,1.61,0,0,1-.49.07,2.22,2.22,0,0,1,0-4.4A1.62,1.62,0,0,1,73.86,48.64Z"/><path class="cls-20" d="M59.77,49.75A3.73,3.73,0,1,1,56.05,46,3.72,3.72,0,0,1,59.77,49.75Z"/><circle class="cls-21" cx="63.69" cy="50.83" r="2.33"/><path class="cls-6" d="M64.06,51.35l3.44,3.9S63,55.81,64.06,51.35Z"/><path class="cls-9" d="M66,48.78a.74.74,0,1,1-.73-.74A.73.73,0,0,1,66,48.78Z"/><path class="cls-9" d="M72.47,48.78a.74.74,0,1,1-.74-.74A.74.74,0,0,1,72.47,48.78Z"/><path class="cls-9" d="M69.39,52.23H67.94v-.59l1.49,0v0l0-.08v-.76H70v.76a.63.63,0,0,1-.2.52A.65.65,0,0,1,69.39,52.23Z"/><path class="cls-20" d="M51.26,90.43l-.68-.19L49.82,90,49,89.73l-.32-.11.69-.28.45-.18.79-.32h0Z"/><path class="cls-20" d="M57.12,64.33H68.37s-.62,3.93-3.82,3.93S57.12,64.33,57.12,64.33Z"/><path class="cls-6" d="M63.52,93.94c-.63,0-1.26,0-1.88,0l-1-.05-.69,0a45.73,45.73,0,0,1-7.88-1.27l-1.3-.34-.68-.2L50,92l-.74-.23-.86-.29-.32-.11c-.57-.2-1.16-.41-1.8-.66a47,47,0,0,1-14.43-9c-.53-.48-1.05-1-1.54-1.48A47,47,0,1,1,96.73,13.76a47,47,0,0,1,0,66.42,45.91,45.91,0,0,1-4.44,3.92A46.52,46.52,0,0,1,63.52,93.94Zm0-90.29A43.32,43.32,0,0,0,32.89,77.6c.45.46.93.92,1.42,1.37a43.21,43.21,0,0,0,13.31,8.31l1.65.62.31.1.79.26.7.22h0c.2.06.41.13.63.18.41.12.81.23,1.2.32a43.39,43.39,0,0,0,7.27,1.18l.63,0,.93.05c.57,0,1.16,0,1.74,0a42.86,42.86,0,0,0,26.53-9.07,41.45,41.45,0,0,0,4.1-3.62A43.32,43.32,0,0,0,63.52,3.65Z"/><circle class="cls-4" cx="101.93" cy="30.75" r="18.76" transform="translate(8.11 81.08) rotate(-45)"/><path class="cls-6" d="M101.93,50.68a19.93,19.93,0,1,1,19.94-19.93A20,20,0,0,1,101.93,50.68Zm0-37.52a17.59,17.59,0,1,0,17.59,17.59A17.61,17.61,0,0,0,101.93,13.16Z"/><path class="cls-6" d="M96.08,30.75a1.9,1.9,0,1,1-1.9-1.89A1.89,1.89,0,0,1,96.08,30.75Z"/><path class="cls-6" d="M103.83,30.75a1.9,1.9,0,1,1-1.9-1.89A1.89,1.89,0,0,1,103.83,30.75Z"/><path class="cls-6" d="M111.57,30.75a1.89,1.89,0,1,1-1.89-1.89A1.89,1.89,0,0,1,111.57,30.75Z"/></g></g></g></svg>