<svg xmlns="http://www.w3.org/2000/svg" viewBox="0 0 330.57 271.23"><defs><style>.cls-1{isolation:isolate;}.cls-2{opacity:0.25;}.cls-3{fill:#4ec0c4;}.cls-4{fill:#f5f5f5;}.cls-5{fill:#eaeaea;mix-blend-mode:multiply;}.cls-6{fill:#0080ff;}.cls-16,.cls-19,.cls-7{fill:#fa5;}.cls-15,.cls-23,.cls-7{opacity:0.9;}.cls-8{fill:#d68236;}.cls-9{fill:#ffc4bf;}.cls-10{fill:#1b2e35;}.cls-11{opacity:0.2;}.cls-12{fill:#46c7ce;}.cls-13{opacity:0.3;}.cls-14{fill:#363638;}.cls-15{fill:#d68741;}.cls-17{fill:#ff8581;}.cls-18{opacity:0.8;}.cls-19{opacity:0.6;}.cls-20{fill:#a9a9a9;}.cls-21{opacity:0.1;}.cls-22{fill:#dcdcdc;}.cls-23{fill:#fff;}</style></defs><g class="cls-1"><g id="Layer_2" data-name="Layer 2"><g id="Option_1" data-name="Option 1"><g class="cls-2"><path class="cls-3" d="M22.88,76.45c-52.36,56,1.53,80.28,1.53,80.28a62.7,62.7,0,0,1,25.36,24.81c12,21.36-1.6,51.1,12.24,71.28,10.2,14.86,31.35,17.8,48.95,13.94s33.67-12.95,51.18-17.2c21-5.09,42.9-3,64.47-2.43s44.15-.53,62.95-11.13,32.39-33.22,26.18-53.89c-2.8-9.32-9.32-17.88-8.72-27.59.94-15,18-24,22.47-38.38,4.39-14-5.45-27.85-14.74-39.24C277,30.66,218.46,17.9,172,16.57,172,16.57,81.44,13.77,22.88,76.45Z"/></g><rect class="cls-4" x="180.81" y="148.81" width="16.38" height="4.33" rx="1.58"/><rect class="cls-4" x="180.81" y="190.14" width="16.38" height="4.33" rx="1.58"/><rect class="cls-4" x="180.81" y="107.48" width="16.38" height="4.33" rx="1.58"/><rect class="cls-4" x="113.87" y="148.81" width="16.38" height="4.33" rx="1.58"/><rect class="cls-4" x="113.87" y="66.47" width="16.38" height="4.33" rx="1.58"/><rect class="cls-4" x="113.87" y="107.48" width="16.38" height="4.33" rx="1.58"/><ellipse id="_Path_" data-name="&lt;Path&gt;" class="cls-5" cx="181.31" cy="259.9" rx="120.34" ry="11.32"/><path class="cls-6" d="M88.54,159.13a3.19,3.19,0,0,0-3.2,3.35l.12,2.77a5.34,5.34,0,0,0,5.09,4.42h.93l.92,3.07A4.85,4.85,0,0,0,97,176.19h77.38a10,10,0,0,0-3.39-7.5c0-.07,0-.15,0-.22l.43-5a4,4,0,0,0-4-4.37Z"/><path class="cls-7" d="M88.54,159.13a3.19,3.19,0,0,0-3.2,3.35l.12,2.77a5.34,5.34,0,0,0,5.09,4.42h.93l.92,3.07A4.85,4.85,0,0,0,97,176.19h77.38a10,10,0,0,0-3.39-7.5c0-.07,0-.15,0-.22l.43-5a4,4,0,0,0-4-4.37Z"/><polygon class="cls-8" points="120.24 254.9 116.84 254.9 121.49 176.18 124.89 176.18 120.24 254.9"/><polygon class="cls-8" points="170.81 254.9 174.21 254.9 169.56 176.18 166.16 176.18 170.81 254.9"/><polygon class="cls-8" points="98.96 254.9 95.56 254.9 100.21 176.18 103.61 176.18 98.96 254.9"/><polygon class="cls-8" points="149.53 254.9 152.93 254.9 148.28 176.18 144.88 176.18 149.53 254.9"/><polygon class="cls-9" points="186.86 247.71 195.01 247.76 196.32 228.96 188.17 228.9 186.86 247.71"/><path class="cls-10" d="M195.78,245.54l-9.14-.06a.59.59,0,0,0-.61.55l-.49,7.23a1.45,1.45,0,0,0,1.42,1.46c3.18,0,4.7-.21,8.72-.18,2.48,0,11,.14,14.38-.27s2.9-3.74,1.43-3.87c-6.61-.6-12-2.53-14.31-4.35A2.32,2.32,0,0,0,195.78,245.54Z"/><polygon class="cls-11" points="188.17 228.91 196.32 228.96 195.65 238.66 187.49 238.6 188.17 228.91"/><path d="M147.09,127.48s60.13,3.1,60.22,26.44c.13,33.54-7.69,79.41-7.69,79.41l-14.89-.69s-4-46.32-3.74-72.5c-16.44-4.72-55.06,3-60.1-10.62a44.86,44.86,0,0,1-1.89-22Z"/><polygon points="182.94 236.86 200.18 236.62 201.2 230.08 183.52 229.8 182.94 236.86"/><path class="cls-9" d="M154.82,64.43c1.38,3.55,2.83,7.27,4.36,10.86s3.08,7.19,4.71,10.71,3.36,7,5.22,10.2c.92,1.61,1.9,3.17,2.9,4.6a22.39,22.39,0,0,0,3,3.56l-1.43-.85a3.55,3.55,0,0,0-1.68-.21,2.72,2.72,0,0,0-1.07.33c-.36.23-.21.22,0,.07a9.53,9.53,0,0,0,1.59-1.88,54.2,54.2,0,0,0,3.33-5.77c1.06-2.07,2.08-4.23,3.09-6.41s2-4.41,3-6.57l5.89,1.62c-.35,2.56-.85,5-1.38,7.48s-1.21,4.92-2,7.39a50,50,0,0,1-3,7.49,20.16,20.16,0,0,1-2.69,4.07,9.8,9.8,0,0,1-2.91,2.33,7.71,7.71,0,0,1-2.81.85,7.52,7.52,0,0,1-3.49-.47l-.73-.29-.7-.56a32.24,32.24,0,0,1-5.11-5.29,61.29,61.29,0,0,1-3.78-5.39,122.07,122.07,0,0,1-6.15-11c-1.86-3.69-3.56-7.43-5.17-11.2s-3.11-7.52-4.5-11.49Z"/><path class="cls-12" d="M152.3,59.57c9,4.6,12.44,20.35,12.44,20.35L147,91.77c-5.72-5.42-10.79-17.19-11.72-22.55C133.83,61,141.66,54.11,152.3,59.57Z"/><path class="cls-13" d="M149,73c3,3.53,4.16,8.81,4.15,14.62L147,91.76c-5.55-5.25-10.5-16.49-11.64-22C140.61,68.89,146.74,70.32,149,73Z"/><polygon class="cls-9" points="203.93 252.32 211 248.28 201.02 232.28 193.95 236.31 203.93 252.32"/><path class="cls-10" d="M210.19,246.47,202.25,251a.58.58,0,0,0-.25.78l3.21,6.5a1.43,1.43,0,0,0,1.95.55c2.74-1.62,4-2.54,7.46-4.53,2.14-1.23,9.56-5.17,12.52-6.86s1.21-4.58-.2-4.13c-6.32,2-12.39,3.32-15.28,2.89A2.29,2.29,0,0,0,210.19,246.47Z"/><polygon class="cls-11" points="193.96 236.32 201.02 232.28 206.43 240.96 199.36 244.99 193.96 236.32"/><path class="cls-14" d="M131.15,127.48s48.22,2.1,51.56,25.19c3.67,25.29,26,83.72,26,83.72l-12.94,7.39S159.22,189.06,157.25,163c-14.82,3-51.74,2.15-56.77-11.49-4.12-11.16.89-23.56.89-23.56Z"/><polygon points="194.14 245.5 210.62 236.12 207.65 228.9 189.94 239.85 194.14 245.5"/><path class="cls-9" d="M181.21,85.79l.5-9L191,80.15s-2.84,8.52-5.63,8.42Z"/><polygon class="cls-9" points="187.99 70.87 193.76 75.38 190.97 80.15 181.71 76.78 187.99 70.87"/><path class="cls-12" d="M104.71,55.94c.81-2.15,4.55-4.28,6.85-4.26l1.52,0c2.65,0,6,.21,9.18.59a163.48,163.48,0,0,1,18.24,3.05c2.76.73,5.42,1.66,7.54,2.44,2.69,1,4.26,1.79,4.26,1.79s-4.5,47.55-5.26,68.33H101.37c-1.57-8.92-.55-25.26-.68-41.38C100.61,76.81,101.4,64.76,104.71,55.94Z"/><path class="cls-13" d="M101.2,73.21c-.42,4.58-.54,9.16-.5,13.31,0,2,0,3.9,0,5.84,2.68-3.69,4.37-7.56,4.39-11.33C105.12,78.72,103.54,75.75,101.2,73.21Z"/><path class="cls-9" d="M113.63,68.39c-.92,1.11-2,2.43-2.93,3.67s-1.94,2.55-2.88,3.85Q105,79.8,102.49,83.8a74.72,74.72,0,0,0-4.4,8.1,30.28,30.28,0,0,0-2.51,7.91l0,.23v.11s0,.13,0,0a3.07,3.07,0,0,0-.08-.7,2.72,2.72,0,0,0-.6-1.22c-.22-.24-.31-.28-.32-.27a.81.81,0,0,0,.25.19,12.86,12.86,0,0,0,3.42,1.06,67.68,67.68,0,0,0,9.26,1c3.23.18,6.52.24,9.82.27s6.64,0,9.92-.05l.78,6.06a138,138,0,0,1-20.44,3,65.46,65.46,0,0,1-10.83-.07,23.18,23.18,0,0,1-6.31-1.43,11.79,11.79,0,0,1-2-1,9.61,9.61,0,0,1-2.2-1.93,8.09,8.09,0,0,1-1.84-5.43v-.48l0-.4a38.37,38.37,0,0,1,2.76-11.45q1-2.61,2.23-5c.81-1.63,1.66-3.21,2.54-4.76a106,106,0,0,1,5.76-8.91q1.55-2.15,3.17-4.21c1.09-1.41,2.16-2.71,3.43-4.14Z"/><path class="cls-12" d="M110.77,51.68c6.93.26,12.56,5.49,8.15,15.79-2.89,6.75-13.45,18-13.45,18l-14.32-14C96.38,61.22,103.56,51.42,110.77,51.68Z"/><path class="cls-9" d="M124.94,30.9l4.55,5.26,6.18,7.17a23.9,23.9,0,0,0-.94,2.82c-1,3.83-.63,7.54,4.88,9.86,0,0,4.75,6.21-6.55,4.48s-13-7.63-13-7.63C125.06,49.34,125.34,37.5,124.94,30.9Z"/><path class="cls-11" d="M135.67,43.33a23.9,23.9,0,0,0-.94,2.82c-2.59-1-5.69-4.44-5.61-7.24a12.45,12.45,0,0,1,.37-2.75Z"/><path class="cls-6" d="M150.37,26c1,4.28-1.18,8.45-4.85,9.3s-7.46-1.93-8.45-6.21,1.18-8.45,4.85-9.3S149.38,21.74,150.37,26Z"/><path class="cls-15" d="M150.37,26c1,4.28-1.18,8.45-4.85,9.3s-7.46-1.93-8.45-6.21,1.18-8.45,4.85-9.3S149.38,21.74,150.37,26Z"/><path class="cls-9" d="M124.3,21.4c.42,8.74.22,13.86,4.56,18.54a11.37,11.37,0,0,0,19.5-5c2-7.74.95-20.73-7.52-24.6A11.5,11.5,0,0,0,124.3,21.4Z"/><path class="cls-10" d="M124.28,27.49c-1.62-4.18,10.82-.48,5.62-11.89,5.2,2.61,11.65,2.2,13.5-.18,3.68-4.73,2.61,8,7.55,2.32,1.9-2.2-1.85-3.75-1.35-10.29C150,2.18,142.22-3,136.75,2.1S128.24,5.61,124.61,5s-6.15,4-3.65,6.92c-7.85.3-10.92,2.06-6.22,5.45s1.07,4.76,2,8.61C118,31.66,128.3,37.83,124.28,27.49Z"/><path class="cls-9" d="M121,29.05a9.2,9.2,0,0,0,4.9,4.31c2.73,1,4-1.48,3.2-4.21-.74-2.45-3.06-5.9-5.77-5.69S119.71,26.58,121,29.05Z"/><path class="cls-16" d="M128.9,26c1,4.28-1.18,8.45-4.85,9.3s-7.46-1.93-8.46-6.21,1.18-8.45,4.86-9.3S127.9,21.74,128.9,26Z"/><path class="cls-7" d="M121.34,21.2a1.07,1.07,0,0,1-1-.72c-.1-.27-2.33-6.86.8-11.55,1.77-2.64,4.85-4.11,9.14-4.35a1.08,1.08,0,0,1,1.12,1,1.06,1.06,0,0,1-1,1.13c-3.58.2-6.09,1.35-7.47,3.4-2.55,3.82-.58,9.6-.56,9.66a1.06,1.06,0,0,1-.66,1.36A1,1,0,0,1,121.34,21.2Z"/><path class="cls-15" d="M124.63,27.13c.58,2.5-.69,4.94-2.84,5.44s-4.36-1.13-5-3.64.69-4.94,2.84-5.44S124.05,24.62,124.63,27.13Z"/><path class="cls-10" d="M138.61,24.59c0,.71.36,1.31.82,1.33s.85-.54.85-1.25-.35-1.3-.82-1.32S138.62,23.88,138.61,24.59Z"/><path class="cls-10" d="M146.61,25c0,.71.36,1.31.83,1.33s.84-.54.85-1.25-.36-1.3-.82-1.32S146.62,24.26,146.61,25Z"/><path class="cls-17" d="M144.18,24.85a22.43,22.43,0,0,0,2.45,5.48,3.44,3.44,0,0,1-2.91.21Z"/><path class="cls-10" d="M143.14,34a6,6,0,0,1-4.37-2,.2.2,0,0,1,0-.29.22.22,0,0,1,.3,0,5.83,5.83,0,0,0,4.84,1.77.21.21,0,0,1,.22.19.21.21,0,0,1-.19.23A7.6,7.6,0,0,1,143.14,34Z"/><path class="cls-10" d="M135.71,22.07a.36.36,0,0,1-.18-.1.42.42,0,0,1,0-.59,4,4,0,0,1,3.57-1.19.42.42,0,0,1-.19.81,3.21,3.21,0,0,0-2.79,1A.42.42,0,0,1,135.71,22.07Z"/><path class="cls-10" d="M149.17,22.34a.42.42,0,0,1-.34-.19,3.51,3.51,0,0,0-2.59-1.66.41.41,0,0,1-.41-.42.43.43,0,0,1,.43-.41h0a4.28,4.28,0,0,1,3.27,2,.42.42,0,0,1-.12.57A.44.44,0,0,1,149.17,22.34Z"/><path class="cls-9" d="M125.55,100.57l7.2-2.14-1.2,8.71s-7.12,2-7.85-1.75Z"/><polygon class="cls-9" points="141.09 101.33 138.88 107.41 131.54 107.14 132.75 98.43 141.09 101.33"/><path class="cls-10" d="M249.73,256.29H255a4.29,4.29,0,0,1,2.69,1l3.1,2.46c.27.22.18.86-.12.86H244.07c-.3,0-.4-.64-.13-.86l3.1-2.46A4.29,4.29,0,0,1,249.73,256.29Z"/><rect class="cls-10" x="181.34" y="184.46" width="142.03" height="4.59" transform="translate(439.11 -65.6) rotate(90)"/><rect class="cls-13" x="250.68" y="115.12" width="3.34" height="4.59" transform="translate(369.76 -134.94) rotate(90)"/><rect class="cls-10" x="126.39" y="112.72" width="171.93" height="4.12" transform="translate(424.71 229.56) rotate(180)"/><rect class="cls-18" x="279.76" y="112.72" width="18.56" height="4.12" transform="translate(578.08 229.56) rotate(180)"/><path class="cls-7" d="M193,92.76h0a5.44,5.44,0,0,1-7.69,0l-11-11a5.44,5.44,0,0,1,0-7.69h0a5.44,5.44,0,0,1,7.69,0l11,11A5.44,5.44,0,0,1,193,92.76Z"/><path class="cls-6" d="M191.92,101.16v-1.07a3.46,3.46,0,0,0,3.45-3.46V91.35h1.07v5.28A4.53,4.53,0,0,1,191.92,101.16Z"/><path class="cls-10" d="M179.87,88.93l6.67,6.67a6.6,6.6,0,0,0,9.34-9.34l-6.67-6.67Z"/><path class="cls-19" d="M189.34,91.35a2.32,2.32,0,1,1-2.28-2.77A2.56,2.56,0,0,1,189.34,91.35Z"/><path class="cls-7" d="M188.78,91.35a2.33,2.33,0,1,1-2.29-2.77A2.56,2.56,0,0,1,188.78,91.35Z"/><path class="cls-7" d="M192.45,111.41h-1.07V101.16h-.89A4.53,4.53,0,0,1,186,96.63V91.35H187v5.28a3.46,3.46,0,0,0,3.46,3.46h2Z"/><polygon class="cls-6" points="196.75 112.72 187.09 112.72 188.6 110.9 195.23 110.9 196.75 112.72"/><path class="cls-20" d="M262,110.49H164.81a2.24,2.24,0,0,0-2.23,2.23H264.23A2.23,2.23,0,0,0,262,110.49Z"/><path class="cls-21" d="M193.17,110.49H164.81a2.24,2.24,0,0,0-2.23,2.23H195.4A2.23,2.23,0,0,0,193.17,110.49Z"/><path class="cls-22" d="M271.08,60.79h-68a4.91,4.91,0,0,0-4.64,4l-7.27,41.78a3.24,3.24,0,0,0,3.26,4h68a4.93,4.93,0,0,0,4.64-4l7.26-41.78A3.24,3.24,0,0,0,271.08,60.79Z"/><path class="cls-21" d="M193.16,108.61,201,63.43a.94.94,0,0,0-1.61-.81,4.66,4.66,0,0,0-1,2.13l-7.26,41.79a3.53,3.53,0,0,0,.34,2.3A.9.9,0,0,0,193.16,108.61Z"/><path class="cls-23" d="M241.67,85.64c-.55,5.2-4.15,9.42-8.06,9.42s-6.62-4.22-6.07-9.42,4.15-9.42,8.05-9.42S242.21,80.44,241.67,85.64Z"/></g></g></g></svg>