<?xml version="1.0" encoding="utf-8"?>
<!-- Generator: Adobe Illustrator 25.0.1, SVG Export Plug-In . SVG Version: 6.00 Build 0)  -->
<svg version="1.1" id="Layer_1" xmlns="http://www.w3.org/2000/svg" xmlns:xlink="http://www.w3.org/1999/xlink" x="0px" y="0px"
	 viewBox="0 0 197.6 169.9" style="enable-background:new 0 0 197.6 169.9;" xml:space="preserve">
<style type="text/css">
	.st0{opacity:0.25;}
	.st1{fill:#46C7CE;}
	.st2{fill:#EAEAEA;}
	.st3{fill:#C2C2C2;}
	.st4{fill:#FFFFFF;}
	.st5{fill:#FFAA55;}
	.st6{opacity:0.5;fill:#FFD371;enable-background:new    ;}
	.st7{opacity:0.5;fill:#FFAA55;enable-background:new    ;}
	.st8{opacity:0.24;}
	.st9{fill:none;stroke:#FFFFFF;stroke-miterlimit:10;}
	.st10{fill:#FFD371;}
	.st11{clip-path:url(#SVGID_2_);}
	.st12{fill:#FCC8CE;}
	.st13{fill:#222C69;}
	.st14{fill:#F7BEB3;}
	.st15{fill:#25585D;}
	.st16{fill:#E6E9FB;}
	.st17{fill:#EB84A9;}
	.st18{fill:#551E17;}
	.st19{fill:#0E1334;}
	.st20{fill:none;stroke:#551E17;stroke-width:1.03;stroke-linecap:round;stroke-linejoin:round;}
	.st21{fill:none;stroke:#EB84A9;stroke-width:0.77;stroke-linecap:round;stroke-linejoin:round;}
	.st22{fill:#182355;}
	.st23{fill:#1C4A4C;}
	.st24{fill:#6EA6B3;}
	.st25{fill:#A3D0DC;}
	.st26{fill:#CC5B54;}
	.st27{fill:#285C62;}
	.st28{fill:#2C686C;}
	.st29{fill:#377872;}
	.st30{fill:#6EAABA;}
	.st31{fill:none;stroke:#6EAABA;stroke-miterlimit:10;}
	.st32{fill:#1BA5A5;}
	.st33{fill:#0D827F;}
	.st34{fill:#260A05;}
	.st35{fill:none;stroke:#551E17;stroke-linecap:round;stroke-linejoin:round;}
</style>
<g>
	<g id="Layer_2_1_">
		<g id="Option_1">
			<g class="st0">
				<path class="st1" d="M187.4,56c4.9,8.7,7.8,20.3,1.9,28.4c-3.5,4.8-9.4,7.4-12.4,12.6c-3.9,6.6-1.7,15,1.3,22s6.8,14.3,5.7,21.9
					c-1.4,9.9-11.2,17.1-21.1,17.9s-19.5-3.4-27.8-8.9s-16.1-12.5-25.8-13.9c-8.3-1.2-16.6,2-24.1,5.8s-14.7,8.5-22.8,10.7
					c-15.5,4.2-33.3-2.1-43-15.1s-10.5-32.1-2.1-46.1c2.9-4.8,6.9-10.8,3.8-15.5c-2.7-4.2-9.3-3.9-12.8-7.6C4.2,63.9,6.4,57,9.3,52
					c5.9-9.8,14.3-17.7,24.5-22.9c0,0,83.5-47.9,128.2-6.4C180.8,40.3,187.4,56,187.4,56z"/>
			</g>
			<ellipse class="st2" cx="170.8" cy="164" rx="24" ry="5.5"/>
			<path class="st3" d="M11.7,6.8h161.7c6.5,0,11.7,5.2,11.7,11.7v94.3c0,6.5-5.2,11.7-11.7,11.7H11.7c-6.5,0-11.7-5.2-11.7-11.7
				V18.5C0,12,5.2,6.8,11.7,6.8z"/>
			<path class="st4" d="M10.9,7.9h163.3c5.3,0,9.6,4.3,9.6,9.6v93.3c0,5.3-4.3,9.6-9.6,9.6H10.9c-5.3,0-9.6-4.3-9.6-9.6V17.5
				C1.3,12.2,5.6,7.9,10.9,7.9z"/>
			<path class="st5" d="M122.1,17.6V90c0,2.2-1.8,4-4,4H9.1c-2.2,0-4-1.8-4-3.9c0,0,0,0,0-0.1V17.6c0-2.2,1.8-4,4-4h109.1
				C120.4,13.6,122.2,15.3,122.1,17.6C122.2,17.5,122.2,17.6,122.1,17.6L122.1,17.6z"/>
			<path class="st6" d="M134.7,13.6h37.5c4.3,0,7.8,3.5,7.8,7.8v15.4c0,4.3-3.5,7.8-7.8,7.8h-37.5c-4.3,0-7.8-3.5-7.8-7.8V21.4
				C126.9,17.1,130.4,13.6,134.7,13.6z"/>
			<path class="st6" d="M134.7,52.6h37.5c4.3,0,7.8,3.5,7.8,7.8v15.4c0,4.3-3.5,7.8-7.8,7.8h-37.5c-4.3,0-7.8-3.5-7.8-7.8V60.4
				C126.9,56.1,130.4,52.6,134.7,52.6z"/>
			<path class="st6" d="M134.7,91.6h37.5c4.3,0,7.8,3.5,7.8,7.8v13.2c0,4.3-3.5,7.8-7.8,7.8h-37.5c-4.3,0-7.8-3.5-7.8-7.8V99.4
				C126.9,95.1,130.4,91.6,134.7,91.6z"/>
			<path class="st7" d="M6.6,98.9h58.2c0.8,0,1.4,0.6,1.4,1.4v0c0,0.8-0.6,1.4-1.4,1.4H6.6c-0.8,0-1.4-0.6-1.4-1.4v0
				C5.1,99.5,5.8,98.9,6.6,98.9z"/>
			<path class="st7" d="M7.9,106.7h55.5c1.6,0,2.8,1.3,2.8,2.8v3c0,1.6-1.3,2.8-2.8,2.8H7.9c-1.6,0-2.8-1.3-2.8-2.8v-3
				C5.1,107.9,6.4,106.7,7.9,106.7z"/>
			<path class="st7" d="M107.9,98.9h12.8c0.8,0,1.4,0.6,1.4,1.4v0c0,0.8-0.6,1.4-1.4,1.4h-12.8c-0.8,0-1.4-0.6-1.4-1.4v0
				C106.4,99.5,107.1,98.9,107.9,98.9z"/>
			<path class="st7" d="M86.2,98.9H99c0.8,0,1.4,0.6,1.4,1.4v0c0,0.8-0.6,1.4-1.4,1.4H86.2c-0.8,0-1.4-0.6-1.4-1.4v0
				C84.7,99.5,85.4,98.9,86.2,98.9z"/>
			<path class="st7" d="M96.7,106.7h22.6c1.6,0,2.8,1.3,2.8,2.8v3c0,1.6-1.3,2.8-2.8,2.8H96.7c-1.6,0-2.8-1.3-2.8-2.8v-3
				C93.9,107.9,95.1,106.7,96.7,106.7z"/>
			<g class="st8">
				<circle class="st9" cx="153.5" cy="29.1" r="8"/>
				<path class="st4" d="M155.3,27.8l-2.3-1.4c-0.7-0.4-1.6-0.2-2,0.5c-0.1,0.2-0.2,0.5-0.2,0.7v2.8c0,0.8,0.7,1.5,1.5,1.5
					c0.3,0,0.5-0.1,0.7-0.2l2.4-1.4c0.7-0.4,0.9-1.3,0.5-2C155.8,28.1,155.6,27.9,155.3,27.8z"/>
			</g>
			<g class="st8">
				<circle class="st9" cx="153.5" cy="68.1" r="8"/>
				<path class="st4" d="M155.3,66.8l-2.3-1.4c-0.7-0.4-1.6-0.2-2,0.5c-0.1,0.2-0.2,0.5-0.2,0.7v2.8c0,0.8,0.7,1.5,1.5,1.5
					c0.3,0,0.5-0.1,0.7-0.2l2.4-1.4c0.7-0.4,0.9-1.3,0.5-2C155.8,67.1,155.6,66.9,155.3,66.8z"/>
			</g>
			<g class="st8">
				<circle class="st9" cx="153.5" cy="106" r="8"/>
				<path class="st4" d="M155.3,104.7l-2.3-1.4c-0.7-0.4-1.6-0.2-2,0.5c-0.1,0.2-0.2,0.5-0.2,0.7v2.8c0,0.8,0.7,1.5,1.5,1.5
					c0.3,0,0.5-0.1,0.7-0.2l2.4-1.4c0.7-0.4,0.9-1.3,0.5-2C155.8,105,155.6,104.8,155.3,104.7z"/>
			</g>
			<path class="st10" d="M120.7,14.6L6.5,93c-0.9-0.8-1.4-1.8-1.4-3V17.6c0-2.2,1.8-4,4-4h109.1C119.1,13.6,120,14,120.7,14.6z"/>
			<g>
				<defs>
					<rect id="SVGID_1_" x="5.1" y="-5.4" width="131.7" height="99.4"/>
				</defs>
				<clipPath id="SVGID_2_">
					<use xlink:href="#SVGID_1_"  style="overflow:visible;"/>
				</clipPath>
				<g class="st11">
					<polygon class="st12" points="83,216.2 84.7,237.3 75.7,237.3 71,216.2 					"/>
					<path class="st13" d="M74.7,232.9c0,0-3.9,6.3-1,7.4s22.3,1.2,27.1,0.5s-10.6-7.3-14.2-8.3S81.9,236.9,74.7,232.9z"/>
					<polygon class="st12" points="25.2,216.2 23.5,237.3 32.5,237.3 37.2,216.2 					"/>
					<path class="st14" d="M113.1,64.6c0,0,6.5-5.2,6.7-6.6c0.3-2.8,1.3-5,7.3-6.8c0.3,0.6,0.1,1.4-0.4,1.8c-0.5,0.6-1,1-1.6,1.4
						c0,0,1.6,0.6,3.9-1.2c2.4-1.8,3.3-3.4,4.3-3c0,0,1.2-1.1,1.7-0.9c0.2,0.1,0.4,0.3,0.3,0.6c0.9-0.1,0.7,2.5-0.9,4.7
						c-2.4,3.1-5.3,5.8-7.7,6.6c-1.8,0.7-9.3,8.3-9.3,8.3L113.1,64.6z"/>
					<path class="st15" d="M92.9,90.8c-2.8,1-18.6-23.3-18.6-23.3c-6.1-7-0.6-30.2,4.9-22c0,0,14.4,26,15.9,28.1
						C97,76.1,103.4,87.3,92.9,90.8z"/>
					<polygon class="st13" points="33.5,114.9 19.3,222.4 37.6,225.7 52.8,156.3 71.6,226.8 86.3,223.5 75.1,114.9 					"/>
					<path class="st15" d="M75.1,114.9H33.5c0,0-3.2-1.4-0.4-7.6c1-2.3,0.6-8.2,0.4-16.3c-0.3-16-5.1-42.6,0.8-45.7
						c3.5-1.8,11-4.2,16.4-5.9l1-0.3c3.2-1,5.4-1.6,5.4-1.6c2.7,0.5,5.3,1.1,7.9,2l0.9,0.3c1.4,0.4,2.9,0.9,4.7,1.5
						c9.3,3.2,8.3,2,9.5,13.7C81,64.3,75.1,114.9,75.1,114.9z"/>
					<path class="st16" d="M65.9,39.8c-0.1,1.9-1,3.7-2.3,5c-1.4,1.4-3.3,2.1-5.2,2.1c-4.2,0-7.5-3.3-7.6-7.5l1-0.3
						c3.2-1,5.4-1.6,5.4-1.6c2.7,0.5,5.3,1.1,7.9,1.9L65.9,39.8z"/>
					<path class="st14" d="M65,23.2l-0.7,12.7l-0.2,3.6C64,42.7,61.2,45.1,58,45c-3.1-0.2-5.5-2.8-5.5-5.9l0.2-6.5L53,21.9L65,23.2z
						"/>
					<path class="st17" d="M65,25.7l-0.7,11.9c-5.6,0.2-9.7-2-11.6-5.1l0.2-8.2L65,25.7z"/>
					<path class="st18" d="M49.3,10.8c0,0-5.4-0.7-4.8,6.1c0.5,5.2,7.6,12.2,7.6,12.2S56.6,13.3,49.3,10.8z"/>
					<path class="st19" d="M71.3,15.6c-0.4,0.8-0.9,1.6-1.4,2.4c-0.5,0.8-0.8,1.7-0.7,2.6c-0.1-1.5-1.1-2.7-1.9-3.9S65.7,14,66,12.6
						s2.8-3.5,4.3-2.6C72,10.9,71.9,14.2,71.3,15.6z"/>
					<path class="st14" d="M69.4,15.9c0.2,2.9,0.2,5.8-0.2,8.7c-0.7,5.3-0.4,11.5-8.2,11.9C52.7,37,50,27.7,50,27.7
						s-4.4-0.8-4.7-3.8s2.8-3.1,3.8-2.3c0,0,1.1-11.1,11.4-11.1C69.6,10.4,69.4,15.9,69.4,15.9z"/>
					<path class="st18" d="M59.7,24.4c0,0.8-0.4,1.4-0.8,1.4S58,25.2,58,24.4s0.4-1.4,0.8-1.4S59.7,23.6,59.7,24.4z"/>
					<path class="st18" d="M67.1,24.4c0,0.8-0.4,1.4-0.8,1.4s-0.8-0.6-0.8-1.4s0.4-1.4,0.8-1.4S67.1,23.6,67.1,24.4z"/>
					<path class="st20" d="M55.9,21.6c0.8-1.2,2.4-1.8,3.8-1.3"/>
					<path class="st20" d="M64.2,20.2c1.1-1,2.7-0.9,3.7,0.2c0,0,0,0,0,0"/>
					<path class="st21" d="M62.5,22.3c0,0,0.9,2.3,1.7,3.7s-1.5,2-1.5,2"/>
					<path class="st21" d="M59.5,30.6c1.1,1,2.8,1.3,4.2,0.7"/>
					<path class="st21" d="M48.9,24.8c0,0,0-2.6-1.9-1.9"/>
					<path class="st18" d="M51.5,12.9c0,0,4.7,4.8,2.1,6.6c-1.7,1.2-2.8,2.9-3.3,4.9c-0.1-1-0.5-2-1.2-2.8
						C47.8,19.7,45,13.1,51.5,12.9z"/>
					<path class="st15" d="M92.9,90.8c3.4,2.2,29.2-25.4,29.2-25.4l-4.6-6c0,0-19.6,12.3-22.4,14.1C91,76.1,81.5,83.4,92.9,90.8z"/>
					<path class="st13" d="M33.5,232.9c0,0,3.9,6.3,1,7.4s-22.3,1.2-27,0.5s10.6-7.3,14.1-8.3S26.3,236.9,33.5,232.9z"/>
					<polygon class="st22" points="52.8,156.3 57.9,133.5 55.8,167.2 					"/>
					<path class="st23" d="M79.2,74.8c0,0,1.2-12.6,1-16.6c1,6.8,1.5,13.6,1.6,20.4L79.2,74.8z"/>
					<path class="st15" d="M35.6,70.5c0,0,6-25.9-0.4-25.6c0,0-2.1,0.2-6.2,6.7c-2.9,4.5-6.1,12.2-11.8,24.9c-2.7,6-6.1,14,0.2,14.5
						c3.4,0.2,7-1.6,9.1-5.6C30.3,78.2,35.6,70.5,35.6,70.5z"/>
					<path class="st23" d="M41,102.7L73.9,95C73.9,95,63.5,102.7,41,102.7z"/>
					<path class="st23" d="M32.2,75.7c0,0,5.3-9.4,8.1-14l-6.6,36C33.7,97.7,33,83,32.2,75.7z"/>
					<polygon class="st23" points="53.3,87.9 33.7,97.1 34.7,87.7 					"/>
					<path class="st24" d="M65.4,89h-6.9c-1.2,0-2.3-1-2.3-2.3c0-0.1,0-0.3,0-0.4l3.3-17.8c0.2-1.1,1.1-1.8,2.2-1.8h6.9
						c1.2,0,2.2,1,2.2,2.2c0,0.1,0,0.3,0,0.4l-3.2,17.7C67.4,88.2,66.5,89,65.4,89z"/>
					<path class="st25" d="M66.2,89.7h-6.9c-1.2,0-2.3-1-2.2-2.3c0-0.1,0-0.3,0-0.4l3.2-17.7c0.2-1.1,1.1-1.8,2.2-1.8h6.9
						c1.2,0,2.2,1,2.2,2.3c0,0.1,0,0.3,0,0.4l-3.2,17.7C68.3,88.9,67.3,89.7,66.2,89.7z"/>
					<path class="st24" d="M62.5,74.2h-1.2c-0.2,0-0.4-0.2-0.4-0.4c0,0,0-0.1,0-0.1l0.8-4.3c0-0.2,0.2-0.3,0.4-0.3h1.2
						c0.2,0,0.4,0.2,0.4,0.4c0,0,0,0.1,0,0.1l-0.8,4.3C62.9,74.1,62.7,74.2,62.5,74.2z"/>
					<path class="st14" d="M46.8,80.1c2-0.1,4-0.4,5.9-0.9c1.1-0.3,3.3-0.7,4-1.8s0.7-3.4,1.4-3.5c0.6-0.1,1.7,1.7,1.4,2.9
						c-0.1,0.8-0.4,1.7-0.8,2.4c-0.1,0.2,4.6,0.5,7.6-0.2c2.1-0.4,1.4,1.6,0.1,2.2c0.2,0.6-0.1,1.3-0.7,1.6c-0.1,0-0.2,0.1-0.3,0.1
						c0,0,0,1.7-1.4,1.7c-0.2,0.8-0.9,1.3-1.6,1.5c-2.3,0.5-4.7,0.6-7.1,0.3c-2.6,0.2-5.1,0.5-7.6,1L46.8,80.1z"/>
					<path class="st15" d="M17.1,91c4.8,0.8,33.4-2.4,33.4-2.4l-0.7-10c0,0-23.3,1.1-26.4,0.8C13.1,78.5,11.1,90,17.1,91z"/>
					<path class="st18" d="M52.6,5.4c0.4-0.5,1-0.9,1.7-1.1c0.7-0.1,1.5,0.6,1.2,1.2c2.4-1,4.8-1.8,7.3-2.3c0.6-0.2,1.3-0.2,1.9,0.1
						c0.6,0.2,0.8,0.9,0.6,1.4c0,0,0,0.1-0.1,0.1c1.3,0.3,2.6,0.3,3.9,0c1.3-0.1,2.8-0.1,3.7,0.9c0.7,1,1,2.2,0.8,3.4
						c0,1.7-0.1,3.3-0.5,4.9c-0.6,2.4-1.9,4.6-3.7,6.2c0.4-2-0.4-4-2-5.1c-1.6-1.1-3.5-1.8-5.4-1.9c-2.3-0.3-4.7-0.2-7,0.2
						c-1.7,0.3-4.2,1.5-5.9,0.7C45.4,12.6,51.1,6.9,52.6,5.4z"/>
				</g>
			</g>
			<path class="st1" d="M88.9,0h17.5c3.6,0,6.5,2.9,6.5,6.5v3.6c0,3.6-2.9,6.5-6.5,6.5H88.9c-3.6,0-6.5-2.9-6.5-6.5V6.5
				C82.4,2.9,85.3,0,88.9,0z"/>
			<polygon class="st1" points="86.9,16 86.9,21.4 92.1,16 			"/>
			<circle class="st4" cx="89.4" cy="8.3" r="1.9"/>
			<circle class="st4" cx="97.7" cy="8.3" r="1.9"/>
			<circle class="st4" cx="105.9" cy="8.3" r="1.9"/>
			<polygon class="st26" points="159.6,149.4 162.8,162.5 168.4,162.5 167.1,149.4 			"/>
			<path class="st27" d="M169,159.8c0,0,2.4,3.9,0.6,4.6s-13.9,0.8-16.9,0.3s6.6-4.5,8.8-5.2S164.5,162.3,169,159.8z"/>
			<polygon class="st26" points="177.3,149.4 179.2,162.5 184.8,162.5 184.7,149.4 			"/>
			<path class="st28" d="M185.4,159.8c0,0,2.4,3.9,0.6,4.6s-13.9,0.8-16.9,0.3s6.6-4.5,8.8-5.2S180.9,162.3,185.4,159.8z"/>
			<path class="st29" d="M186.7,85.7l-0.4,70.3h-8.9l-6.3-51.6l-7.2,21l5.4,30.7h-9.7c0,0-8.5-26.5-8.2-31.7
				c0.3-5.2,10.2-40.7,10.2-40.7L186.7,85.7z"/>
			<polygon class="st30" points="171.1,104.3 170.2,94.7 169.1,110.2 			"/>
			<line class="st31" x1="181.7" y1="84.8" x2="182.2" y2="155.9"/>
			<path class="st26" d="M154.4,53.5c0,0-5.8,10.9-5.9,14.2s3.6,2.6,5.5-0.4s5-11.6,5-11.6L154.4,53.5z"/>
			<path class="st32" d="M153.3,54.4c1.4,2.1,3.3,3.7,5.6,4.7c0.8,0.4,1.5-0.6,2-1.8c0.4-1,0.7-2,0.9-3c0,0,4.5-14,0.5-13.5
				c0,0-3.4,0.2-5.9,5.2c-1,2.1-1.8,4.2-2.5,6.4C153.8,53.1,153.5,53.8,153.3,54.4z"/>
			<path class="st33" d="M153.3,54.4c1.4,2.1,3.3,3.7,5.6,4.7c0.8,0.4,1.5-0.6,2-1.8c-2.6-1.2-5-2.9-7-5
				C153.8,53.1,153.5,53.8,153.3,54.4z"/>
			<path class="st1" d="M161.4,84.3c2.5,2.8,19.1,2.4,25.3,1.4c1.1-0.2,2.2-0.6,0.4-4.4c-0.6-1.4-0.4-5.1-0.2-10.2
				c0.2-10,3.2-26.6-0.5-28.5c-3.3-1.5-6.7-2.7-10.2-3.7l-0.6-0.2c-2-0.6-3.4-1-3.4-1c-1.7,0.3-3.4,0.7-5,1.2l-0.6,0.2
				c-0.9,0.3-1.8,0.6-2.9,0.9c-2.1,0.7-3.6,1.1-4,1.8c-1,1.8-0.6,5-0.7,9.7C159.1,57.4,159.2,81.8,161.4,84.3z"/>
			<polygon class="st33" points="187.7,59.8 184.1,51 186.7,73.5 			"/>
			<path class="st33" d="M166.7,39.2c0.2,2.5,2.2,4.4,4.7,4.4c2.6,0,4.7-2.1,4.8-4.6l-0.6-0.2c-2-0.6-3.4-1-3.4-1
				c-1.7,0.3-3.4,0.7-5,1.2L166.7,39.2z"/>
			<path class="st34" d="M177.1,21.1c0,0,2.1,0.2,3,3.8s-3.6,9.7-5.3,9.3C174.8,34.2,172.5,22.7,177.1,21.1z"/>
			<path class="st18" d="M163.4,24.1c0.3,0.5,0.6,1,0.9,1.5c0.3,0.5,0.5,1,0.4,1.6c0.2-0.9,0.6-1.7,1.2-2.4c0.6-0.7,0.9-1.6,0.8-2.5
				c-0.2-0.8-1.8-2.2-2.7-1.6S163,23.2,163.4,24.1z"/>
			<path class="st26" d="M167.3,28.8l0.4,7.9l0.1,2.2c0.1,1.9,1.7,3.4,3.6,3.4c2,0,3.6-1.6,3.6-3.6c0,0,0-0.1,0-0.1l-0.1-4l-0.2-6.7
				L167.3,28.8z"/>
			<path class="st18" d="M167.3,30.4l0.4,7.4c3.5,0.1,6.1-1.3,7.2-3.2l-0.2-5.1L167.3,30.4z"/>
			<path class="st26" d="M164.5,24.3c-0.1,1.8-0.1,3.6,0.1,5.4c0.4,3.3,0.3,7.2,5.1,7.4c5.2,0.3,6.9-5.5,6.9-5.5s2.7-0.5,2.9-2.4
				c0.1-0.8-0.4-1.6-1.2-1.7c-0.4-0.1-0.8,0-1.1,0.3c0,0-0.7-6.9-7.1-6.9C164.5,20.9,164.5,24.3,164.5,24.3z"/>
			<path class="st18" d="M170.5,29.6c0,0.4,0.2,0.8,0.5,0.8s0.5-0.3,0.5-0.8s-0.2-0.8-0.5-0.8S170.5,29.1,170.5,29.6z"/>
			<path class="st18" d="M165.5,29.2c0,0.4,0.2,0.8,0.5,0.8s0.5-0.3,0.5-0.8s-0.2-0.8-0.5-0.8S165.5,28.7,165.5,29.2z"/>
			<path class="st35" d="M173,27.8c-0.5-0.8-1.5-1.1-2.4-0.8"/>
			<path class="st35" d="M167.8,27c-0.7-0.6-1.7-0.6-2.3,0.1c0,0,0,0,0,0"/>
			<path class="st35" d="M168.9,28.2c0,0-0.6,1.4-1,2.3s0.9,1.3,0.9,1.3"/>
			<path class="st35" d="M170.7,33.4c-0.7,0.6-1.7,0.8-2.6,0.4"/>
			<path class="st35" d="M177.3,29.8c0,0,0-1.6,1.2-1.2"/>
			<path class="st34" d="M175.7,22.4c0,0-2.9,3-1.3,4.1c1,0.7,1.8,1.8,2.1,3.1c0.1-0.7,0.3-1.3,0.8-1.8
				C178,26.6,179.7,22.6,175.7,22.4z"/>
			<path class="st34" d="M176.6,22.6c1-1.5,0.3-4.4-2.8-4.8s-5.1,0.2-6.3-1.9s-4.6-3.3-5.6-0.3s1.3,7.6,4.3,7.4s2.8-0.5,4.7,0.6
				S175.1,25.1,176.6,22.6z"/>
			<path class="st26" d="M191.7,54.1c0,0,5.8,10.9,5.9,14.2s-3.6,2.6-5.5-0.4s-5-11.6-5-11.6L191.7,54.1z"/>
			<path class="st26" d="M150.6,64l9.1-6.7c0.8-0.6,2-1.5,2.5-1.8c1.7-0.6,3.5-1,5.3-1.1c0.9,0.1,1.7,0.3,2.6,0.5
				c0.4,0.2-0.1,0.8-0.6,1c-1.3,0.7-2.7,1.3-4.1,1.6c-0.9,0.2-1.7,0.6-2.4,1.1c-0.5,0.4-9.6,9.6-9.9,9.8L150.6,64z"/>
			<path class="st26" d="M161.2,56.2c0,0,3.2-3,3.7-3s0.1,0.7-1.1,1.8c-0.4,0.4-0.8,0.8-1.3,1.1C162.1,56.3,161.7,56.4,161.2,56.2z"
				/>
			<path class="st24" d="M163.8,67.4l11.8,1.4c0.5,0.1,1-0.3,1.1-0.9c0-0.1,0-0.2,0-0.4l-2.8-10.8c-0.1-0.4-0.4-0.7-0.8-0.7
				l-11.8-1.4c-0.5-0.1-1,0.3-1.1,0.9c0,0.1,0,0.2,0,0.3l2.9,10.8C163.1,67.1,163.4,67.3,163.8,67.4z"/>
			<path class="st4" d="M163.3,67.8l11.8,1.4c0.6,0,1-0.4,1.1-0.9c0-0.1,0-0.2,0-0.3l-2.8-10.8c-0.1-0.4-0.4-0.7-0.8-0.7L160.7,55
				c-0.6,0-1,0.4-1.1,0.9c0,0.1,0,0.2,0,0.3l2.8,10.8C162.5,67.4,162.9,67.7,163.3,67.8z"/>
			<path class="st24" d="M172.1,59.4l-0.6-2.1c0-0.2,0.1-0.3,0.2-0.4c0,0,0.1,0,0.1,0l0.6,0.1c0.1,0,0.2,0.1,0.3,0.2l0.6,2.1
				c0,0.2-0.1,0.3-0.2,0.4c0,0-0.1,0-0.1,0l-0.6-0.1C172.2,59.6,172.1,59.5,172.1,59.4z"/>
			<path class="st26" d="M195.3,65.1c-3.6,0.1-14.8-0.1-16.3-0.6c-0.6-0.2-2.2-0.6-2.6-1.2s-0.8-1.6-1.2-1.7s-0.2,1-0.1,1.4
				c0.1,0.5,0.3,0.9,0.6,1.4c-1.5,0.3-3,0.4-4.4,0.1c-1.2-0.3-1,0.7-0.2,1c-0.2,0.4,0,0.9,0.4,1.1c0,0,0.1,0,0.1,0
				c0,0-0.1,0.9,0.7,1c0.2,0.4,0.6,0.7,1,0.8c1.4,0.2,2.7,0.3,4.1,0.3c0.8,0,16.1,2.4,18.8,1.8C197.3,70.2,196.5,65,195.3,65.1z"/>
			<path class="st32" d="M185,55.6c0,0,0.3,1,0.6,2s1,2.3,1.6,2.2c0,0,8-2.5,7.7-3.3c-0.3-0.8-0.6-1.5-1-2.3
				c-1.3-2.7-3.4-6.3-4.2-7.7c-2.9-4.7-4-4.1-4-4.1C181.7,42.2,185,55.6,185,55.6z"/>
			<path class="st33" d="M185.7,57.6c0.4,1.1,1,2.3,1.6,2.2c0,0,8-2.5,7.7-3.3c-0.3-0.8-0.6-1.5-1-2.3
				C191.3,55.5,188.5,56.6,185.7,57.6z"/>
			<path class="st32" d="M183.1,79.8c0,0-13.2-2.1-20.3-6.3C168.4,78.4,175.8,80.7,183.1,79.8z"/>
		</g>
	</g>
</g>
</svg>
