<svg xmlns="http://www.w3.org/2000/svg" viewBox="0 0 43.45 34"><defs><style>.cls-1{fill:#75c189;}</style></defs><g id="Layer_2" data-name="Layer 2"><g id="Option_1" data-name="Option 1"><path class="cls-1" d="M14.67,19.49a5.84,5.84,0,1,0-5.84-5.84A5.85,5.85,0,0,0,14.67,19.49Zm0-10a4.21,4.21,0,1,1-4.21,4.2A4.21,4.21,0,0,1,14.67,9.45Z"/><path class="cls-1" d="M42.74,24.07H40.88V1.41h1.86A.71.71,0,0,0,43.45.7a.71.71,0,0,0-.71-.7H.7A.71.71,0,0,0,0,.7a.71.71,0,0,0,.7.71H2.57V24.07H.7a.71.71,0,0,0,0,1.41H7.12a8.24,8.24,0,0,0-.73,3.41v4.36a.76.76,0,0,0,.75.75H22.19a.76.76,0,0,0,.76-.75V28.89a8.25,8.25,0,0,0-.74-3.41H42.74a.71.71,0,1,0,0-1.41Zm-21.3,8.42H7.89v-3.6a6.78,6.78,0,0,1,11.23-5.1.91.91,0,0,0,.18.21l.15.1a6.75,6.75,0,0,1,2,4.79Zm18-8.42H21.39a8.11,8.11,0,0,0-.51-.65l7.47-9a.85.85,0,0,0-.11-1.19.84.84,0,0,0-1.19.11l-7.41,8.88a8.27,8.27,0,0,0-11.7,1.8H4V1.41H39.47Z"/><path class="cls-1" d="M22.84,6.5H35.27a.8.8,0,0,0,0-1.6H22.84a.8.8,0,0,0,0,1.6Z"/><path class="cls-1" d="M35.27,9.16H29.55a.8.8,0,1,0,0,1.59h5.72a.8.8,0,1,0,0-1.59Z"/></g></g></svg>