<svg xmlns="http://www.w3.org/2000/svg" viewBox="0 0 336.98 250.92"><defs><style>.cls-1{isolation:isolate;}.cls-2,.cls-20{fill:#75c189;}.cls-2{opacity:0.25;}.cls-3,.cls-4,.cls-6{mix-blend-mode:multiply;}.cls-4{fill:#eaeaea;}.cls-5{fill:#cc1525;}.cls-25,.cls-6{opacity:0.5;}.cls-7{fill:#ff5146;}.cls-8{fill:#281728;}.cls-9{fill:#00433b;}.cls-10{fill:#fff;}.cls-11{fill:#f0d5ba;}.cls-12{fill:#006c60;}.cls-13{fill:#ff7e6a;}.cls-14{fill:#ff9e86;}.cls-15{opacity:0.8;}.cls-16{fill:#ffad4d;}.cls-17{fill:#fa5;}.cls-18{fill:#ec7738;}.cls-19{fill:#55a062;}.cls-21{fill:#594b53;}.cls-22{fill:#363638;}.cls-23{fill:#3c2027;}.cls-24{fill:#6c4845;}.cls-26{fill:#895c55;}.cls-27{fill:#dedac7;}.cls-28{fill:#e4bfa0;}.cls-29{fill:#260a05;}</style></defs><g class="cls-1"><g id="Layer_2" data-name="Layer 2"><g id="Option_1" data-name="Option 1"><path class="cls-2" d="M185.09,248.05C90.57,259.32,45.72,233.81,45.72,233.81S-19.86,209.25,6.06,121.54C26.69,51.74,122.43-14.76,175.41,2.87s52,48,112.27,84.64,51.59,72.45,43.79,91C331.47,178.51,306.87,233.53,185.09,248.05Z"/><g class="cls-3"><ellipse class="cls-4" cx="103.09" cy="239.9" rx="78.95" ry="4.12"/></g><polygon class="cls-5" points="130.76 215.76 130.76 239.9 140.77 239.9 146.5 219.38 148.62 211.78 130.76 215.76"/><g class="cls-6"><path class="cls-5" d="M130.76,215.76v6.16c4.54-.5,11-1.65,15.74-2.54l2.12-7.6Z"/></g><polygon class="cls-5" points="74.33 215.76 74.33 239.9 64.32 239.9 58.59 219.38 56.47 211.78 74.33 215.76"/><g class="cls-6"><path class="cls-5" d="M74.33,215.76v6.16c-4.54-.5-11-1.65-15.74-2.54l-2.12-7.6Z"/></g><path class="cls-7" d="M27.94,73.37c1,10.19,9.52,47.28,13.83,65.56.43,1.83.81,3.46,1.15,4.87.81,3.42,1.3,5.46,1.3,5.46l92.17-1.93s.26-1.18.7-3.27c3.3-15.43,16.9-80.5,13.31-86.84a5.65,5.65,0,0,0-1.11-1.31A10.89,10.89,0,0,0,148.1,55a17,17,0,0,0-1.5-.88c-6.67-3.53-20.58-6.46-36.38-8.19-18.62-2-39.87-2.42-54.95-.11L54,46c-1.1.18-2.15.37-3.16.56-19.77,3.74-23.6,9.13-23.72,16.75h0A96.4,96.4,0,0,0,27.94,73.37Z"/><path class="cls-5" d="M135.81,127.59a.39.39,0,0,0,.39-.33c0-.16,3-16.21,5.31-32.54,1.39-9.59,2.31-17.4,2.74-23.2.75-10-.1-11.95-.8-12.58-4-3.63-25-6.42-37.12-7.75a115.9,115.9,0,0,0-17.58-.6c-14,.57-38.15,2.11-42.24,5.88-.69.64-1.5,2.64-.62,12.59.51,5.8,1.55,13.59,3.06,23.16,2.59,16.29,5.73,32.31,5.77,32.47a.4.4,0,0,0,.78-.16c0-.16-3.17-16.16-5.76-32.43-4.51-28.48-3.62-34.18-2.68-35,2.85-2.63,18-4.7,41.72-5.67a115.57,115.57,0,0,1,17.46.59c12,1.33,32.79,4.07,36.68,7.55.94.85,1.92,6.54-2.2,35.08-2.36,16.31-5.28,32.35-5.31,32.51a.41.41,0,0,0,.33.47Z"/><path class="cls-5" d="M27.11,63.33h0c0,2.79.5,5.87.83,9.28,1,10.18,9.52,47.27,13.83,65.55H56.83S40.22,77.59,39.24,62.69C38.6,53,45.77,48.5,50.83,46.58,31.06,50.33,27.23,55.71,27.11,63.33Z"/><path class="cls-5" d="M136.33,145.58s14.17-1.38,15.33,3.75c.91,4-.31,39.83-.88,55.4a7.49,7.49,0,0,0,7.07,7.76l2.83.13c4.69.17,10,.1,13.67-.72,8-1.8,8.2-13.08,11-31.8s5.39-52-12.05-58.46q-.9-.33-1.8-.6c-16.8-5.08-32.81,5-32.81,5A42.49,42.49,0,0,0,136.33,145.58Z"/><path class="cls-7" d="M160.68,212.62c4.69.17,10,.1,13.67-.72,8-1.8,8.2-13.08,11-31.8s5.39-52-12.05-58.46q-.9-.33-1.8-.6c-3,.71-5.7,2.68-7.17,7C160.35,139.8,166.7,180.62,160.68,212.62Z"/><path class="cls-5" d="M170,209.81a9,9,0,0,0,8.16-4.34c2.7-4.44,6.58-42.61,6.74-44.24a.36.36,0,0,0-.32-.39.36.36,0,0,0-.4.32c0,.4-4,39.63-6.64,43.94-3.95,6.54-12.68,3.05-12.77,3a.37.37,0,0,0-.47.2.35.35,0,0,0,.19.47,16,16,0,0,0,5.18,1Z"/><path class="cls-5" d="M168.67,134.66s.28-6.41,5.11-5.9,5.07,11.08.75,12.44C168.21,143.2,168.67,134.66,168.67,134.66Z"/><path class="cls-5" d="M179.8,132.74h.08a.38.38,0,0,0,.27-.44c-.05-.23-1.35-5.85-6-7a5.62,5.62,0,0,0-5,1,8.8,8.8,0,0,0-3,6,.36.36,0,1,0,.72,0,8.13,8.13,0,0,1,2.75-5.47A4.91,4.91,0,0,1,174,126c4.24,1,5.47,6.37,5.48,6.42A.36.36,0,0,0,179.8,132.74Z"/><path class="cls-5" d="M37.76,143.18l1.45,6.08,102.47-2.15.78-3.63C124.3,140.39,62,141.43,37.76,143.18Z"/><path class="cls-7" d="M38.58,162.54c0,1.93.07,4,.13,6.1.57,19.1,2.91,44.27,11.19,46.48,13.48,3.59,97.16,5.42,101.53-2.57,1.31-2.39,2.12-6.4,2.65-11.32.1-1,.19-2,.28-3,.72-8.89.72-20,1-29.6.08-2.59.18-5.08.32-7.4,1-17-12.79-17.23-12.79-17.23-19.55-.46-48.28.46-70.63,1.4-11.65.49-21.56,1-27.54,1.31l-6.05.33S38.46,153.55,38.58,162.54Z"/><path class="cls-5" d="M76.89,176.71s-3.25,4.59,0,6.16,7.07-8,13.89-10.81,11.15-7.3,14-5.91,7.39,1.29,9.51-.52,36.57-15.17,39-19.26-4.45-3.91-4.45-3.91S85.4,166.53,76.89,176.71Z"/><path class="cls-5" d="M104.11,201.48c1.69,0,3.42,0,5.22,0,27-.55,42.55-6.63,42.7-6.69a.45.45,0,1,0-.33-.83c-.15.06-15.56,6.08-42.39,6.63s-41.61-3.28-41.76-3.32a.46.46,0,0,0-.55.32.44.44,0,0,0,.32.54C67.46,198.12,80.43,201.48,104.11,201.48Z"/><path class="cls-5" d="M155.76,178.59S139.94,169,133,167.4c-9.55-2.25-8.08,1.6-14.68-.53-13.59-4.4-37.64-8.81-50.39-17.61l16.67-2.89,43,8.11,7.6-1.43s13.42,14.3,17.75,18.15S155.76,178.59,155.76,178.59Z"/><path class="cls-5" d="M38.58,162.54c0,1.93.07,4,.13,6.1.57,19.1,2.91,44.27,11.19,46.48,13.48,3.59,97.16,5.42,101.53-2.57,1.31-2.39,2.12-6.4,2.65-11.32.1-1,.19-2,.28-3-4,2.65-15.88,6.12-24.07,7-34.13,3.5-60.68-1.27-60.68-1.27,4.48-18.47,3.29-48,2.67-58.52-11.65.49-21.56,1-27.54,1.31Z"/><path class="cls-8" d="M96.76,16S86.35,18.82,85.34,30.16,77.08,39,75.2,47.62c-2,8.88,5.1,10.28-2.45,16.75S69.57,85,87.61,76.76s17.73-4.88,31.13-2,1.52-17.59.74-28.65C118.58,33.26,123.11,19.49,96.76,16Z"/><path class="cls-9" d="M123.8,60s19.13,26,23.49,38.89S141.07,121,141.07,121l-9.84,3.69S121.12,79.07,123.8,60Z"/><path class="cls-10" d="M122.11,132.74c-8.36,2.78-28.79,10-37.67,7.1a7.58,7.58,0,0,1-1.06-.43,5.64,5.64,0,0,1-2.29-1.93c-3.48-5.3-6.93-27.52-5.38-40.59A50.39,50.39,0,0,0,76,91.63c0-2.74,0-5.67-.16-8.62-.44-11.1-2.18-18.76,2.56-21.45a55.79,55.79,0,0,1,13.09-5.14c2.13-.51,5.61-1.57,8.06-1.52l10.58,1.92s9.13,1.52,11.24,3.08,3.18,8.4,7,14.67,4.63,12.56,1,19.45c-3.16,6-2.6,3.71-3,13.54C125.86,119.6,138.44,127.33,122.11,132.74Z"/><path class="cls-11" d="M94,76.33a66.21,66.21,0,0,1,26.1-.23l.35,10.12s-16.09-1.79-26.22.79Z"/><path class="cls-11" d="M107.2,67.79h-.48c-6.26-.32-12-5.85-12.24-6.09a.42.42,0,1,1,.59-.61c.06.05,5.76,5.54,11.7,5.84,5.69.3,6.38-5.34,6.4-5.58a.43.43,0,0,1,.47-.38.42.42,0,0,1,.38.47C114,61.5,113.27,67.79,107.2,67.79Z"/><path class="cls-11" d="M89.44,118.42a.49.49,0,0,1-.12-.13.45.45,0,0,1,.15-.61,52.7,52.7,0,0,1,21.09-7.26,37.6,37.6,0,0,1,9.29-.1.43.43,0,0,1,.38.5.44.44,0,0,1-.51.38,37.85,37.85,0,0,0-9.09.11,51.64,51.64,0,0,0-20.69,7.13A.45.45,0,0,1,89.44,118.42Z"/><path class="cls-12" d="M100.09,136.77c-7.53-2.39-14.34-7.19-19-11.47l-1.06-1c-2.41-2.34-4.11-1.14-4.84-2.49C72.38,116.66,74,96.46,75.2,89s-3.91-21-1.15-25.87,12.24-6.56,12.24-6.56S85,55,87.5,53.25s9.33-1,9.33-1C97.15,84.31,101.7,114.14,100.09,136.77Z"/><path class="cls-10" d="M92.69,127.56a.41.41,0,0,1-.42-.35c-3.42-22.28,0-64.17,0-64.59a.42.42,0,0,1,.45-.38.42.42,0,0,1,.39.45c0,.42-3.42,42.21,0,64.39a.42.42,0,0,1-.35.48Z"/><path class="cls-9" d="M99.58,130.91a.44.44,0,0,1-.42-.35C94.68,105,94.33,60.84,94.32,60.39a.42.42,0,0,1,.42-.42h0a.42.42,0,0,1,.42.42c0,.44.36,44.51,4.83,70a.42.42,0,0,1-.34.49Z"/><path class="cls-9" d="M92.14,60.14l-.11,0A14.25,14.25,0,0,1,86.22,57a.42.42,0,0,1,.59-.61h0a13.38,13.38,0,0,0,5.44,2.92.42.42,0,0,1-.11.83Z"/><path class="cls-12" d="M132.7,122.75A23.12,23.12,0,0,1,120,136.09c-1.24-24.49-4-52.46-7.68-82.22,0,0,3.82-.67,5.41,1.51a6,6,0,0,1,.83,2.53,19.73,19.73,0,0,1,4.09,1.38c2.14,1,1.89,2.36,2.4,5.83S131,74,132.7,81.24s-2.88,11.91-4.33,18S132.7,122.75,132.7,122.75Z"/><path class="cls-10" d="M124.12,126.54a.41.41,0,0,1-.41-.41,415.32,415.32,0,0,0-7.12-63.39.43.43,0,0,1,.33-.5.41.41,0,0,1,.49.33,413.53,413.53,0,0,1,7.13,63.54.41.41,0,0,1-.4.43Z"/><path class="cls-9" d="M114.93,61.06a.42.42,0,0,1-.07-.83s2.72-.49,3.33-2.44a.42.42,0,1,1,.8.25c-.77,2.44-3.86,3-4,3Z"/><path class="cls-9" d="M123.15,126.54a.43.43,0,0,1-.42-.37c-3-24.56-7.62-63.83-7.67-64.22a.42.42,0,1,1,.84-.1c0,.39,4.71,39.66,7.66,64.22a.42.42,0,0,1-.36.47Z"/><path class="cls-8" d="M97.71,47.86S87.39,44.51,87.07,33.33s5.51-19.1,17.05-18.13C104.12,15.2,109.26,46.68,97.71,47.86Z"/><path class="cls-8" d="M119.59,22.85s2.79,9.09,1.36,10.77S117.14,32,117.14,32,117.82,23.3,119.59,22.85Z"/><path class="cls-13" d="M117.59,35.17s2.29-3,3.8-.19.73,8.65-3,7.88Z"/><path class="cls-7" d="M121.94,43.1a6.53,6.53,0,0,1-1.15,1.14c-1.64,1.25-4,1.74-7,.7,0,0-4.35-4.11-.34-13.24,0,0,4.69-2.06,8,.45a6.07,6.07,0,0,1,1,1,7,7,0,0,1,.55.8C124.33,36.32,124.05,40.48,121.94,43.1Z"/><path class="cls-10" d="M121.94,43.1a6.53,6.53,0,0,1-1.15,1.14,24.94,24.94,0,0,0,.58-12.09,6.07,6.07,0,0,1,1,1A25.46,25.46,0,0,1,121.94,43.1Z"/><path class="cls-14" d="M112.17,50.17l.66,7.66s-4.41,7-15.9-2.17c-.31-3.46.22-6.41-.09-9a17.48,17.48,0,0,0,2.48,1.17c.31.13.65.25,1,.39C103.5,49.32,108.25,50.66,112.17,50.17Z"/><path class="cls-8" d="M112.17,50.17l.32,3.67c-3.42-.59-9.57-2.12-13.17-6.06.31.13.65.25,1,.39C103.5,49.32,108.25,50.66,112.17,50.17Z"/><path class="cls-14" d="M120,35c0,.82.07,1.59.1,2.32.17,5.47-.06,8.48-1.31,9.9-6.31,7.19-21.44-.3-21.92-.54h0c-.16-.61-.31-1.21-.45-1.81a48.07,48.07,0,0,1-1.17-14.34,10.89,10.89,0,0,1,6.53-11.15c4.55-1.91,8.81-.07,11.34.57,3.83,1,6.43,5.74,6.79,12.68C119.94,33.5,120,34.29,120,35Z"/><path class="cls-8" d="M109,26.86s1.38.07,1,1.36-3.25,0-5.12,2.45C104.81,30.67,103.82,27.68,109,26.86Z"/><path class="cls-8" d="M115.21,26.56s-1.37.2-.82,1.44,3.24-.28,5.33,1.95C119.72,30,120.41,26.88,115.21,26.56Z"/><path class="cls-13" d="M109,36.73c0,.65-1.27,1.23-2.9,1.31s-3-.38-3-1,1.26-1.23,2.9-1.31S109,36.09,109,36.73Z"/><path class="cls-8" d="M114.25,41.38A7.69,7.69,0,0,1,109.93,40a.36.36,0,1,1,.44-.58h0c.15.12,3.83,2.8,6.36.07a.36.36,0,1,1,.53.5A4.28,4.28,0,0,1,114.25,41.38Z"/><path class="cls-8" d="M114.33,36.3a3.47,3.47,0,0,1-1.7-.33.35.35,0,0,1-.17-.48.37.37,0,0,1,.49-.17,3,3,0,0,0,1.5.25l-1.36-3.37a.36.36,0,0,1,.2-.48.37.37,0,0,1,.47.2l1.53,3.79a.33.33,0,0,1,0,.29.35.35,0,0,1-.22.19A3.07,3.07,0,0,1,114.33,36.3Z"/><g class="cls-15"><path class="cls-13" d="M120,35c0,.82.07,1.59.1,2.32-1.51,0-2.7-.43-2.73-1S118.51,35.17,120,35Z"/></g><path class="cls-8" d="M109.43,34.87c0,.88-.32,1.62-.81,1.64s-.93-.67-1-1.56.32-1.61.81-1.64S109.39,34,109.43,34.87Z"/><path class="cls-8" d="M118.17,34.45c0,.88-.32,1.62-.82,1.64s-.93-.67-1-1.56.32-1.61.82-1.64S118.13,33.56,118.17,34.45Z"/><path class="cls-8" d="M99.58,43c0,.1-1.07,2.85-2.7,3.72h0c-.17-.61-.32-1.21-.46-1.81A6.8,6.8,0,0,0,99.58,43Z"/><path class="cls-14" d="M97.66,36.94s-3.75-4.57-6.16-.72c-2,3.18,2.42,11.16,6.59,8Z"/><path class="cls-8" d="M97.47,42.85a.36.36,0,0,1-.38-.3,6.07,6.07,0,0,0-3.76-4.72.38.38,0,0,1-.23-.47.36.36,0,0,1,.46-.22,6.8,6.8,0,0,1,4.25,5.29.37.37,0,0,1-.3.42Z"/><path class="cls-8" d="M94,40.82a.4.4,0,0,1-.29-.12.38.38,0,0,1,0-.52,3.55,3.55,0,0,1,2.5-1,.38.38,0,0,1,.28.43.36.36,0,0,1-.43.29c-.63-.13-1.58.56-1.87.81A.37.37,0,0,1,94,40.82Z"/><path class="cls-8" d="M111.86,15.37a12.71,12.71,0,0,1,8.22,6c1.11,1.92,2.23,4.52-.74,4.75-8.09.61-14-6.76-14-6.76s0,7.87-6.43,8.18-7.13-4.42-4.13-7.77C97.28,17.06,104.21,13.59,111.86,15.37Z"/><path class="cls-8" d="M99,26.63s-2.78,4.49-.71,8.33,2.82,7.08,1.93,9.54a25.33,25.33,0,0,0-3.41-7.18C95,34.9,93.4,33.1,93.72,29.83,93.94,27.59,95.09,25.24,99,26.63Z"/><path class="cls-7" d="M97.9,46a7.73,7.73,0,0,1-6.09.09c-.25-.12-.5-.26-.73-.4-3.39-2.2-4.28-7.51-2.72-10.36a6,6,0,0,1,2-2.22,5.49,5.49,0,0,1,.71-.39c3-1.44,6.73,0,6.73,0C102.11,41.74,97.9,46,97.9,46Z"/><path class="cls-10" d="M119.36,20.27a12.38,12.38,0,0,0-3.58-3.3,10.64,10.64,0,0,0-7-2.58,13.34,13.34,0,0,0-5.9,1.08,11,11,0,0,0-3.25,2.24,13.57,13.57,0,0,0-1.91,2.38,18.78,18.78,0,0,0-1.8,3.76,25.48,25.48,0,0,0-.85,3,27.72,27.72,0,0,0-.68,5.87l-1,0a29.62,29.62,0,0,1,.8-6.55A18.92,18.92,0,0,1,98.89,17c0-.06.11-.11.16-.16a13,13,0,0,1,9.73-3.45,11.27,11.27,0,0,1,8.83,4A12.84,12.84,0,0,1,119.36,20.27Z"/><path class="cls-10" d="M91.81,46.09c-.25-.12-.5-.26-.73-.4a18,18,0,0,0-.73-12.58,5.49,5.49,0,0,1,.71-.39A18.86,18.86,0,0,1,91.81,46.09Z"/><path class="cls-16" d="M98.34,144.18a23.23,23.23,0,0,0,6.3,2.83c17.14,5.45,32.85-3.35,32.85-3.35.95-4.7.36-10-1.22-12a1.71,1.71,0,0,0,.17-1.52l15.77-16.37c-9,7.43-20.06,9.86-28.7,15.08h0c-2.49,1.5-4.73,2.83-6.37,3.75-2.5,1.4-5.69,1.54-8.82,1.11a42.88,42.88,0,0,1-11.95-3.85s-19.64-8.9-23.32-8.6C70.19,121.51,85.59,137.59,98.34,144.18Z"/><path class="cls-10" d="M155.06,177.11c-.91.52-1.77-2.23-6.28-5.63-.28-.21-.58-.43-.9-.65-5.29-3.69-24.3-8.09-24.3-8.09l2.37-6.53a14.81,14.81,0,0,0,5.28-1.6l.1-.05c2.33-1.38,4.21-1.64,6.24-.9,2.52.92,3.27,3.34,4.41,5a4.72,4.72,0,0,0,.65.8c1.82,1.84,5.63,4.38,7.92,6.78.22.23.42.46.61.69,1.82,2.14,2.54,4.14,3.71,5.47C156.34,174.1,156,176.55,155.06,177.11Z"/><path class="cls-12" d="M142,158.68c-5.88,1.73-9.36-2-10.75-4.07l.1-.05c2.33-1.38,4.21-1.64,6.24-.9C140.09,154.58,140.84,157,142,158.68Z"/><path class="cls-12" d="M155.06,177.11c-.91.52-1.77-2.23-6.28-5.63a13.06,13.06,0,0,1,2.38-4.53c1.82,2.14,2.54,4.14,3.71,5.47C156.34,174.1,156,176.55,155.06,177.11Z"/><path class="cls-17" d="M73.05,121.28s-12.43-6.71-19.63-1.53c-13.17,9.49,9.17,27.73,34.73,36.63S122,164.07,122,164.07s5.55-1.52,3.58-10.52c0,0-14.73-5.6-22.39-11.47S90.3,129,73.05,121.28Z"/><path class="cls-18" d="M124.59,156.17c-5.36-1.29-16.28-6.3-29.22-13.4-9.67-5.32-20.83-12.11-22.46-14.46C72,127,71.8,126,72.24,125.22c.67-1.17,2.58-1.29,3.46-1.28a.38.38,0,0,1,.38.41h0a.37.37,0,0,1-.38.36c-.86,0-2.36.15-2.78.89s.14,1.57.62,2.27c1.32,1.89,10.66,7.87,22.21,14.21,9.94,5.46,22.78,11.83,29,13.33Z"/><path class="cls-18" d="M123.58,152.35c-.6,4.73-1.83,9-4.5,12.33,0,0,2.29,1.65,4.38.47,1.59-.91,4.67-8.29,3.5-12.24C125.62,152.18,124.47,151.93,123.58,152.35Z"/><path class="cls-10" d="M76.7,181.15c1,.4,1.46-2.45,5.47-6.41L83,174c4.76-4.36,23-11.26,23-11.26l-3.22-6.15a15,15,0,0,1-5.45-.88l-.1-.05c-2.49-1-4.39-1-6.31,0-2.38,1.25-2.79,3.75-3.7,5.57a5.76,5.76,0,0,1-.53.87c-1.57,2.06-5,5.1-7,7.78-.19.25-.36.51-.52.76-1.51,2.37-2,4.44-2.94,5.92C75,178.34,75.66,180.72,76.7,181.15Z"/><path class="cls-12" d="M87.2,161.15c6.06.92,9-3.27,10.11-5.47l-.1-.05c-2.49-1-4.39-1-6.31,0C88.52,156.83,88.11,159.33,87.2,161.15Z"/><path class="cls-12" d="M76.7,181.15c1,.4,1.46-2.45,5.47-6.41a12.84,12.84,0,0,0-3-4.18c-1.51,2.37-2,4.44-2.94,5.92C75,178.34,75.66,180.72,76.7,181.15Z"/><path class="cls-17" d="M150.53,114.88s11.43-8.3,19.25-4.13c14.31,7.65-5.39,28.7-29.53,40.94s-32.53,12.13-32.53,12.13-5.7-.77-5-9.95c0,0,13.85-7.52,20.67-14.35S134.47,124.86,150.53,114.88Z"/><path class="cls-18" d="M104.1,156.33c5.14-2,15.3-8.41,27.17-17.18,8.88-6.55,19-14.77,20.34-17.32.71-1.38.79-2.44.24-3.15-.81-1.07-2.73-.93-3.59-.81a.4.4,0,0,0-.33.47h0a.39.39,0,0,0,.44.3c.85-.12,2.35-.17,2.87.51s.06,1.58-.32,2.33c-1.06,2-9.51,9.23-20.11,17-9.13,6.73-21,14.76-27,17.08Z"/><path class="cls-18" d="M104.59,152.42c1.23,4.61,3,8.7,6.11,11.61,0,0-2,1.94-4.28,1.05-1.7-.68-5.73-7.59-5.1-11.66C102.55,152.52,103.66,152.11,104.59,152.42Z"/><path class="cls-12" d="M98.09,114.1l-.94,13.49s-16.05-2.29-23.93-4.3A32,32,0,0,1,66,120.7c-4.34-2.31-7.95-6.33-7.69-14.18a36.61,36.61,0,0,1,1.56-8.81,182.21,182.21,0,0,1,15.34-36C87.56,67,86.52,75.75,86.52,75.75,83,85.15,75.2,105.18,75.2,105.18,79.72,110.71,98.09,114.1,98.09,114.1Z"/><path class="cls-9" d="M75.2,105.6a.4.4,0,0,1-.22-.06,25.23,25.23,0,0,0-5.13-1.73.43.43,0,0,1-.31-.51.43.43,0,0,1,.51-.31,32.67,32.67,0,0,1,4.46,1.38,7.51,7.51,0,0,0-1.24-1.81.44.44,0,0,1,0-.6.42.42,0,0,1,.59,0,6.5,6.5,0,0,1,1.71,3.11.41.41,0,0,1-.18.42A.39.39,0,0,1,75.2,105.6Z"/><path class="cls-9" d="M66,120.7c-4.34-2.31-7.95-6.33-7.69-14.18C61.75,108.32,67.75,112.69,66,120.7Z"/><path class="cls-9" d="M88,112l-.1,0a33,33,0,0,1-13-6.52.42.42,0,0,1-.1-.5c5.67-11.15,9.26-20,11.29-27.86a.42.42,0,0,1,.51-.3.41.41,0,0,1,.3.51c-2,7.85-5.59,16.67-11.2,27.73A33.28,33.28,0,0,0,88.1,111.2a.42.42,0,0,1-.1.83Z"/><path class="cls-9" d="M84.82,83.38a.42.42,0,0,1-.33-.68L87.43,79a.43.43,0,0,1,.59-.07.41.41,0,0,1,.07.59l-2.94,3.71A.44.44,0,0,1,84.82,83.38Z"/><path class="cls-5" d="M18.34,149.27a35.77,35.77,0,0,1-.15-7.87,18.47,18.47,0,0,1,13.15-16.25c6.05-1.79,14-2.89,22.2-.42.59.18,1.2.38,1.8.6,17.43,6.41,14.87,39.74,12,58.46s-3.08,30-11,31.8c-3.65.82-9,.89-13.67.72l-2.83-.13S30,217,24.91,212.69,18.34,149.27,18.34,149.27Z"/><path class="cls-7" d="M42.69,216.31c4.69.17,10,.1,13.67-.72,8-1.8,8.21-13.08,11-31.8s5.38-52-12-58.46c-.6-.22-1.21-.42-1.8-.6-3,.71-5.71,2.68-7.18,7C42.37,143.49,48.71,184.31,42.69,216.31Z"/><path class="cls-5" d="M52.53,213.2a9,9,0,0,0,8.16-4.34c2.69-4.44,6.58-42.61,6.74-44.24a.36.36,0,0,0-.32-.39.36.36,0,0,0-.4.32c0,.4-4,39.63-6.64,43.94-1.65,2.73-4.29,4.07-7.83,4a15.65,15.65,0,0,1-4.94-1,.38.38,0,0,0-.48.2.37.37,0,0,0,.2.47,16,16,0,0,0,5.18,1Z"/><path class="cls-5" d="M49,135.87a.36.36,0,0,0,.36-.36A8.11,8.11,0,0,1,52.14,130a4.9,4.9,0,0,1,4.38-.88c4.24,1,5.48,6.37,5.49,6.42a.37.37,0,0,0,.43.28.36.36,0,0,0,.28-.43c0-.24-1.35-5.86-6-7a5.56,5.56,0,0,0-5,1,8.77,8.77,0,0,0-3,6A.36.36,0,0,0,49,135.87Z"/><path class="cls-5" d="M50.93,138.11s.28-6.41,5.12-5.9,5.06,11.08.74,12.44C50.47,146.65,50.93,138.11,50.93,138.11Z"/><path class="cls-19" d="M86.71,139.5l-3.53-6.73a2.49,2.49,0,0,1,2.24-3.66l55.6.6-1.64,8.61Z"/><path class="cls-20" d="M138.42,137.61H88.66a1.91,1.91,0,0,1-1.93-2.18l3.39-30.74a2.48,2.48,0,0,1,2.41-2.17h49.76a1.91,1.91,0,0,1,1.94,2.17l-3.4,30.74A2.49,2.49,0,0,1,138.42,137.61Z"/><path class="cls-7" d="M104.42,115.15c-.41,2.11-4.44,4.75-4.44,4.75s-3.7-2.64-3.84-4.75c-.16-2.29,2.57-3,4.21-1.27C102.21,112.16,104.86,112.86,104.42,115.15Z"/><path class="cls-16" d="M103.6,129.15c-.19,1.74-1.26,2.64-2.43,2.64a1.3,1.3,0,0,1-1.35-.79,1.61,1.61,0,0,1-1.47.79,1.83,1.83,0,0,1-1.68-2.27,2.34,2.34,0,0,1,2.17-2.26,1.32,1.32,0,0,1,1.08.45l0-.36h1.74l-.28,2.6c0,.38.1.5.3.5s.49-.25.6-1.27c.18-1.65-.92-2.82-2.79-2.82a3.39,3.39,0,0,0-3.46,3,2.59,2.59,0,0,0,2.75,3.06,4.76,4.76,0,0,0,1.89-.4l.26,1.12a5.81,5.81,0,0,1-2.27.44c-2.74,0-4.3-1.83-4-4.22a4.78,4.78,0,0,1,5-4.19C102.27,125.21,103.84,127,103.6,129.15Zm-3.85.37c.06-.54-.19-.83-.56-.83s-.68.29-.74.83.18.84.56.84S99.69,130.08,99.75,129.52Z"/><path class="cls-21" d="M87.92,138.93h0a.43.43,0,0,1-.37-.47l4.13-32.93a.42.42,0,0,1,.47-.36.43.43,0,0,1,.37.47l-4.13,32.93A.42.42,0,0,1,87.92,138.93Z"/><path class="cls-10" d="M112.13,120.61a4.38,4.38,0,0,0,4.06,4.75,4.52,4.52,0,0,0,4.75-4.19,4.38,4.38,0,0,0-4.06-4.75A4.51,4.51,0,0,0,112.13,120.61Z"/><path class="cls-19" d="M138.66,140.29H88.21a1.83,1.83,0,0,1-1.81-2.08l.48-3.52H141l-.55,4A1.83,1.83,0,0,1,138.66,140.29Z"/><path class="cls-10" d="M178.28,55.64V67.88a2.93,2.93,0,0,1-2.93,2.93H153.14l-6.7,2.4a.86.86,0,0,1-1.09-1.11l2.54-6.55V55.64a2.93,2.93,0,0,1,2.93-2.93h24.53A2.93,2.93,0,0,1,178.28,55.64Z"/><path class="cls-22" d="M159,62.11A2.12,2.12,0,1,1,156.87,60,2.12,2.12,0,0,1,159,62.11Z"/><path class="cls-22" d="M165.69,62.11A2.12,2.12,0,1,1,163.58,60,2.11,2.11,0,0,1,165.69,62.11Z"/><path class="cls-22" d="M172.4,62.11A2.12,2.12,0,1,1,170.28,60,2.12,2.12,0,0,1,172.4,62.11Z"/><path class="cls-4" d="M304,242.63C304,245,268.6,247,224.9,247s-79.12-1.95-79.12-4.34,35.42-4.35,79.12-4.35S304,240.23,304,242.63Z"/><rect class="cls-23" x="171.82" y="232.36" width="101.9" height="2.32"/><path class="cls-24" d="M305.89,196.87a46.88,46.88,0,0,1-2.82,7.45c-.22.45-.44.89-.68,1.33a33.1,33.1,0,0,1-5.57,7.7,13.51,13.51,0,0,1-9.67,4.08H159.31a13.53,13.53,0,0,1-9.67-4.07,33.12,33.12,0,0,1-5.58-7.71c-.24-.44-.46-.88-.68-1.33a47.87,47.87,0,0,1-2.82-7.45Z"/><path class="cls-23" d="M303.07,204.32c-.22.45-.44.89-.68,1.33H144.06l-.68-1.33Z"/><polygon class="cls-23" points="288.98 217.3 285.97 224.21 160.42 224.21 157.42 217.3 223.2 217.37 288.98 217.3"/><path class="cls-23" d="M186.92,224.21s-1.49,4.78-5.46,4.78H165.88c-4,0-5.46-4.78-5.46-4.78Z"/><polygon class="cls-24" points="171.67 242.85 178.68 229 167.19 229 163.16 242.85 171.67 242.85"/><path class="cls-23" d="M259.47,224.21S261,229,264.93,229h15.58c4,0,5.46-4.78,5.46-4.78Z"/><polygon class="cls-24" points="274.73 242.85 267.72 229 279.21 229 283.24 242.85 274.73 242.85"/><path class="cls-12" d="M275.71,175h-4.47l-.6-1.26-.65-1.39c-.64-1.36-1.48-3.17-2.44-5.3a.14.14,0,0,1,0-.06c-6-13.39-16.84-39.4-12.42-44.57,5-5.87,11,2.93,15.37,19.58q.45,1.72.87,3.54a188.82,188.82,0,0,1,3.76,23c.14,1.27.26,2.55.38,3.85C275.57,173.21,275.64,174.1,275.71,175Z"/><path class="cls-9" d="M275.49,172.34,274.14,175h-2.9l-.6-1.26L270.48,142A189.09,189.09,0,0,1,275.49,172.34Z"/><path class="cls-9" d="M274.3,175h-.73L259.5,128.88a.35.35,0,1,1,.67-.2Z"/><path class="cls-12" d="M287.13,165.63l-.95,2.13c-.83,1.82-1.55,3.38-2.11,4.58-.79,1.68-1.26,2.65-1.26,2.65h-4.47c.07-.89.15-1.78.23-2.65.11-1.24.22-2.46.35-3.67a195.37,195.37,0,0,1,3.63-22.5c.24-1,.48-2,.72-3,4.38-17.42,10.53-26.78,15.67-20.77C303.21,127.41,293.25,151.91,287.13,165.63Z"/><path class="cls-9" d="M278.57,172.34l1.34,2.65h2.9s.22-.45.6-1.26l.16-31.74A189.17,189.17,0,0,0,278.57,172.34Z"/><path class="cls-9" d="M279.75,175h.73l14.07-46.11a.35.35,0,0,0-.23-.44.36.36,0,0,0-.44.24Z"/><path class="cls-12" d="M282.55,146.17c-.62,8.82-1.49,17.07-2.11,22.46-.45,3.94-.78,6.36-.78,6.36h-4q-.69-3.33-1.28-6.58c-1.47-8-2.47-15.76-3.08-22.88-2.31-27.29,1.32-45.85,8-40.91C284.09,108.17,283.82,128.34,282.55,146.17Z"/><path class="cls-9" d="M286.18,167.76c-.83,1.82-1.55,3.38-2.11,4.58-.79,1.68-1.26,2.65-1.26,2.65H271.24l-.6-1.26-.65-1.39c-.64-1.36-1.48-3.17-2.44-5.3a42.62,42.62,0,0,0,6.88,1.37l.68.08a35.92,35.92,0,0,0,3.81.18c.5,0,1,0,1.52,0A27.52,27.52,0,0,0,286.18,167.76Z"/><path class="cls-9" d="M277.35,113.14,276.87,175h-.69l.47-61.85a.36.36,0,0,1,.35-.35A.35.35,0,0,1,277.35,113.14Z"/><path class="cls-17" d="M297.22,174.51l-.58,1.53-.37,1-1,2.78-.36,1-1.08,2.86-.37,1-4.62,12.27H263.55l-4.62-12.27-.37-1-1.08-2.86-.36-1L256.07,177l-.37-1-.57-1.53a1.6,1.6,0,0,1,1.5-2.17h39.08A1.61,1.61,0,0,1,297.22,174.51Z"/><polygon class="cls-18" points="296.64 176.04 296.27 177.02 256.07 177.02 255.7 176.04 296.64 176.04"/><polygon class="cls-18" points="295.22 179.8 294.86 180.77 257.49 180.77 257.12 179.8 295.22 179.8"/><polygon class="cls-18" points="293.78 183.63 293.41 184.6 258.93 184.6 258.56 183.63 293.78 183.63"/><path class="cls-5" d="M229.63,189.4v-6.06a4,4,0,0,1,4-4h5.14a4,4,0,0,1,4,4v6.06a4,4,0,0,1-4,4h-5.14A4,4,0,0,1,229.63,189.4Zm4-8a2,2,0,0,0-2,2v6.06a2,2,0,0,0,2,2h5.14a2,2,0,0,0,2-2v-6.06a2,2,0,0,0-2-2Z"/><path class="cls-7" d="M234.26,196.87a130.63,130.63,0,0,0,15.07,0V176.25a108.28,108.28,0,0,0-15.07,0Z"/><g class="cls-25"><path class="cls-10" d="M241.3,174.12s4-1.62,1.6-6-5.21-7.77-2.59-11.19c0,0-3.14.94-3.39,5.82S242.73,171,241.3,174.12Z"/></g><polygon class="cls-26" points="222.53 196.87 195.14 196.87 191.13 169.48 218.52 169.48 222.53 196.87"/><polygon class="cls-23" points="191.13 169.48 187.33 196.87 195.14 196.87 191.13 169.48"/><polygon class="cls-27" points="196.8 194.92 193.36 171.43 216.85 171.43 220.29 194.92 196.8 194.92"/><polygon class="cls-10" points="197.14 194.53 193.81 171.82 216.52 171.82 219.84 194.53 197.14 194.53"/><polygon class="cls-16" points="214.48 174.6 216.99 191.75 199.16 191.75 196.65 174.6 214.48 174.6"/><circle class="cls-10" cx="206.1" cy="182.41" r="5.76" transform="translate(-54.12 92.75) rotate(-22.5)"/><path class="cls-9" d="M205.55,182.86a12.58,12.58,0,0,1,9.56-4L217,191.75Z"/><path class="cls-12" d="M197.48,180.24a13.94,13.94,0,0,1,10.4,2.94,59.12,59.12,0,0,1,9.11,8.57H199.16Z"/><circle class="cls-28" cx="232.17" cy="61.95" r="18.28" transform="translate(24.19 182.31) rotate(-45)"/><circle class="cls-17" cx="232.17" cy="59.57" r="18.28" transform="translate(-6.54 37.96) rotate(-9.22)"/><circle class="cls-10" cx="232.17" cy="59.57" r="14.86" transform="translate(-6.54 37.96) rotate(-9.22)"/><path class="cls-11" d="M247,59.57c0,.4,0,.79,0,1.18a14.87,14.87,0,0,0-29.64,0c0-.39,0-.78,0-1.18a14.87,14.87,0,0,1,29.73,0Z"/><path class="cls-29" d="M232.17,61.12a.38.38,0,0,1-.3-.15l-7.29-9.82a.38.38,0,0,1,.07-.52.37.37,0,0,1,.52.08l7.12,9.58,8.09-3.55a.37.37,0,0,1,.49.19.38.38,0,0,1-.19.49l-8.36,3.67A.4.4,0,0,1,232.17,61.12Z"/></g></g></g></svg>