<svg xmlns="http://www.w3.org/2000/svg" viewBox="0 0 365.01 273.36"><defs><style>.cls-1{isolation:isolate;}.cls-2{fill:#46c7ce;opacity:0.25;}.cls-3{fill:#e1e1e1;}.cls-4{fill:#f5f5f5;}.cls-5{fill:#eaeaea;mix-blend-mode:multiply;}.cls-6{fill:#fa5;}.cls-7{fill:#c97a32;}.cls-8{fill:#1b2e35;}.cls-9{fill:#9b5c29;}.cls-10{fill:#f9f9f9;}.cls-11{fill:#ccd3e6;}.cls-12,.cls-22{opacity:0.2;}.cls-13{fill:#b82425;}.cls-14{fill:#ff9e8d;}.cls-15{fill:#35a8a5;}.cls-16{fill:#cb5b54;}.cls-17{fill:#4d6e77;}.cls-18{fill:#0080ff;}.cls-19{fill:#6cbcba;}.cls-20{fill:#ffd371;}.cls-21,.cls-22{fill:#fff;}.cls-23{opacity:0.3;}.cls-24{fill:#913434;}</style></defs><g class="cls-1"><g id="Layer_2" data-name="Layer 2"><g id="Option_1" data-name="Option 1"><path class="cls-2" d="M176.06,270.27c103.26.11,148.34-31.46,148.34-31.46s67.52-33.1,28.42-119.82C321.71,50,210.09-6.57,155.26,17.9S105.33,73.38,45.08,118.21-1.27,198.68,9.49,216.74C9.49,216.74,43,270.13,176.06,270.27Z"/><rect class="cls-3" x="180.82" y="131.61" width="8.25" height="5.99" transform="translate(369.71 269.47) rotate(-179.92)"/><rect class="cls-4" x="65.26" y="143.85" width="70.76" height="4.5" rx="1.77" transform="translate(201.06 292.35) rotate(-179.92)"/><ellipse id="_Path_" data-name="&lt;Path&gt;" class="cls-5" cx="166.05" cy="264.75" rx="8.61" ry="147.37" transform="translate(-98.94 430.42) rotate(-89.92)"/><path class="cls-6" d="M271,149.36l-210.75-.31a2.54,2.54,0,0,1-2.53-2.53h0A2.54,2.54,0,0,1,60.23,144L271,144.3a2.54,2.54,0,0,1,2.53,2.53h0A2.54,2.54,0,0,1,271,149.36Z"/><path class="cls-7" d="M271,149.36l-49.33-.07a2.54,2.54,0,0,1-2.53-2.54h0a2.52,2.52,0,0,1,2.53-2.52l49.34.07a2.54,2.54,0,0,1,2.53,2.53h0A2.54,2.54,0,0,1,271,149.36Z"/><rect class="cls-8" x="103.52" y="155.58" width="162.09" height="17.64" transform="translate(0.24 -0.27) rotate(0.08)"/><rect class="cls-9" x="103.52" y="155.58" width="162.09" height="17.64" transform="translate(0.24 -0.27) rotate(0.08)"/><polygon class="cls-7" points="263.1 261.38 267.96 261.39 267.92 149.35 261.2 149.34 263.1 261.38"/><polygon class="cls-7" points="218.41 261.32 213.56 261.31 224.69 149.29 231.41 149.3 218.41 261.32"/><polygon class="cls-7" points="56.99 261.09 52.14 261.08 63.28 149.06 69.99 149.07 56.99 261.09"/><polygon class="cls-8" points="193.68 144.19 182.49 144.17 178.04 122.28 189.23 122.3 193.68 144.19"/><path class="cls-8" d="M208.53,139.7,160,139.63a2.72,2.72,0,0,1-2.74-2.93l1.9-30.73a3.15,3.15,0,0,1,3.1-2.92l48.55.07a2.72,2.72,0,0,1,2.74,2.93l-1.89,30.73A3.16,3.16,0,0,1,208.53,139.7Z"/><path class="cls-10" d="M207.77,139.7l-48.55-.07a2.73,2.73,0,0,1-2.74-2.93l1.9-30.73a3.14,3.14,0,0,1,3.1-2.92l48.55.07a2.72,2.72,0,0,1,2.74,2.93l-1.89,30.73A3.17,3.17,0,0,1,207.77,139.7Z"/><path class="cls-11" d="M159.22,138.11a1.24,1.24,0,0,1-.9-.38,1.27,1.27,0,0,1-.33-.94l1.9-30.73a1.63,1.63,0,0,1,1.59-1.49l48.55.07a1.2,1.2,0,0,1,.9.38,1.24,1.24,0,0,1,.33.93l-1.9,30.73a1.64,1.64,0,0,1-1.59,1.5Z"/><polygon class="cls-12" points="180.59 103.07 183.73 113.88 193.11 103.09 180.59 103.07"/><path class="cls-8" d="M105.18,76.76c.07.58.44,1,.82,1s.63-.53.56-1.11-.44-1-.82-1S105.11,76.17,105.18,76.76Z"/><path class="cls-13" d="M105.82,77.62a18.68,18.68,0,0,0,2.62,4.22,2.85,2.85,0,0,1-2.36.5Z"/><path class="cls-8" d="M103.27,74.51a.35.35,0,0,1-.17,0,.35.35,0,0,1-.19-.45A3.35,3.35,0,0,1,105.26,72a.35.35,0,0,1,.4.29.34.34,0,0,1-.28.39,2.67,2.67,0,0,0-1.83,1.63A.36.36,0,0,1,103.27,74.51Z"/><path class="cls-14" d="M87.94,85.89l4.56,3.5,6.22,4.78a6.41,6.41,0,0,0-.61,2.27c-.22,1.75-.44,3.08,3.43,4.12a2.2,2.2,0,0,1,1.66,1.73c.15,1-.48,2.31-4.07,2.89A16.51,16.51,0,0,1,89,103.44c-1.52-.74-1.55-1.68-.88-3.22C90,95.84,89.12,90.25,87.94,85.89Z"/><path class="cls-15" d="M82.69,101.6a31.53,31.53,0,0,0,2.16-5.25s11.56-.62,15.38.53S106.4,103,106.4,103Z"/><path class="cls-14" d="M87.5,110.2c-.28.85-.6,1.9-.89,2.86l-.86,3c-.54,2-1.06,4-1.47,5.94a56.85,56.85,0,0,0-1,5.86,27.33,27.33,0,0,0-.18,5.44,11.81,11.81,0,0,0,.35,2.25c0,.15.08.32.13.46l.15.41v0s0,0,0,0a3.63,3.63,0,0,0-.37-.53,2.18,2.18,0,0,0-.34-.32c-.15-.1-.17-.08-.14-.05a3.41,3.41,0,0,0,.71.4c.35.16.75.31,1.18.46.86.28,1.81.55,2.79.81,3.92,1,8.2,1.77,12.37,2.67l-.15,5.26a63.4,63.4,0,0,1-6.72.55,62.7,62.7,0,0,1-6.83-.13,31.51,31.51,0,0,1-3.6-.44,19.87,19.87,0,0,1-2-.44,12.1,12.1,0,0,1-2.29-.84,8.59,8.59,0,0,1-1.5-1,6.79,6.79,0,0,1-.91-.89,6.11,6.11,0,0,1-.49-.65c-.08-.13-.16-.26-.23-.39l-.1-.18-.52-1.07c-.16-.36-.28-.71-.42-1.06a21.5,21.5,0,0,1-1-4.11,46.28,46.28,0,0,1,.65-14.57c.43-2.29.93-4.53,1.54-6.73.3-1.11.62-2.2,1-3.29s.71-2.14,1.15-3.33Z"/><path class="cls-15" d="M80.48,100.66c7.19-1.89,11.44,4,9,13.72s-3.26,10.05-3.26,10.05l-14.81-2.49C73.25,112.38,73.12,102.59,80.48,100.66Z"/><path class="cls-16" d="M103.64,137.74l-1.12-.1c-3.18,0-3.72.87-5.68,2.68l-.73,4c5.12,2.64,7.88-.24,7.88-.24h4.75l-1.67-3.85A4.18,4.18,0,0,0,103.64,137.74Z"/><path class="cls-14" d="M86,78.32c1.28,6.93,1.68,11.06,5.64,14.15,6,4.65,14.17.25,15-7C107.34,79,105.12,68.79,98,67A9.78,9.78,0,0,0,86,78.32Z"/><path class="cls-8" d="M99.71,80.76c4.94-.39,3.5-5.59,2-6.69a4.57,4.57,0,0,0,1.7-7.08c1.31-3.41-2.42-7.52-9-6.92-4.79.44-5.34,3-5.34,3s-5.74-.61-8.13,4.12c-2,4.06.42,6.23.42,6.23s-4.29,1.24-3.11,6.86c1.26,6,5.89,4.64,5.89,4.64s-1,5.53,5.22,5.62c5.42.07,5.49-4,5.49-4S101.89,85.84,99.71,80.76Z"/><path class="cls-14" d="M96,81.16a6.43,6.43,0,0,0,3,3.45c1.81.93,3.19-1,2.88-3-.29-1.77-1.83-4.05-3.73-4.16S95.35,79.32,96,81.16Z"/><polygon class="cls-14" points="169.47 252.54 176.23 249.81 171.48 233.57 164.72 236.3 169.47 252.54"/><polygon class="cls-12" points="167.02 244.18 173.85 241.68 171.48 233.57 164.72 236.3 167.02 244.18"/><path class="cls-8" d="M175.65,247.06l-7.73,2.68a.53.53,0,0,0-.35.65l1.74,6.24a1.3,1.3,0,0,0,1.63.81c2.68-1,3.75-1.52,7.06-2.94a105,105,0,0,0,9.52-4.53c2.58-1.51,1-4.11-.23-3.69-3,1-7.84,1.65-10.31.79A2.09,2.09,0,0,0,175.65,247.06Z"/><path class="cls-8" d="M115.33,158.81s51.07,4.67,52.35,19.37c2.62,29.89,6.66,58.72,6.66,58.72l-10.4,3.79s-12.67-32.86-12.47-56.29c-14.72-4.18-53.46,1.87-59.77-9.5-5.58-10-.67-17.23-.67-17.23Z"/><polygon class="cls-17" points="163.18 243.05 176.12 238.7 175.57 232.8 160.98 237.48 163.18 243.05"/><path class="cls-17" d="M178.5,247.42a8.56,8.56,0,0,1-1.92.38.15.15,0,0,1-.16-.08.15.15,0,0,1,0-.18c.16-.23,1.65-2.24,2.6-2.2a.64.64,0,0,1,.54.33.94.94,0,0,1,.1.93A2,2,0,0,1,178.5,247.42Zm-1.56,0c1.32-.18,2.21-.53,2.42-1a.63.63,0,0,0-.08-.62.31.31,0,0,0-.26-.16C178.51,245.66,177.56,246.64,176.94,247.42Z"/><path class="cls-17" d="M176.62,247.8h-.08a.14.14,0,0,1-.13-.1c0-.08-.88-2-.41-2.91a.81.81,0,0,1,.6-.46.66.66,0,0,1,.75.28c.42.7-.11,2.49-.66,3.14A.18.18,0,0,1,176.62,247.8Zm0-3.12a.5.5,0,0,0-.29.26,3.77,3.77,0,0,0,.3,2.34,3.41,3.41,0,0,0,.46-2.49c-.06-.09-.15-.18-.39-.13Z"/><polygon class="cls-14" points="133.3 257.32 140.52 256.99 141.73 239.94 134.51 240.27 133.3 257.32"/><path class="cls-8" d="M140.69,255.75l-8.17-.27a.53.53,0,0,0-.56.48l-.61,6.46a1.29,1.29,0,0,0,1.23,1.33c2.85.05,4.21-.07,7.81,0a67.42,67.42,0,0,0,9.59,0c3-.37,2.58-3.37,1.26-3.48-3.12-.26-7.31-2.43-9.31-4.11A2.1,2.1,0,0,0,140.69,255.75Z"/><path class="cls-17" d="M143.23,257.11a9.56,9.56,0,0,1-1.93-.33.19.19,0,0,1-.13-.14.15.15,0,0,1,.08-.16c.24-.16,2.34-1.5,3.22-1.12a.64.64,0,0,1,.38.49,1,1,0,0,1-.24.92A2.06,2.06,0,0,1,143.23,257.11Zm-1.46-.56c1.3.3,2.26.29,2.61,0a.62.62,0,0,0,.14-.6.31.31,0,0,0-.18-.25C143.87,255.47,142.63,256,141.77,256.55Z"/><path class="cls-17" d="M141.34,256.79l-.08,0a.22.22,0,0,1-.09-.14c0-.09-.1-2.19.66-2.87a.85.85,0,0,1,.73-.22.65.65,0,0,1,.6.54c.14.8-1,2.28-1.74,2.69Zm1.09-2.92a.52.52,0,0,0-.37.14,3.74,3.74,0,0,0-.55,2.29c.65-.51,1.41-1.64,1.31-2.16,0-.1-.07-.22-.31-.26Z"/><polygon class="cls-12" points="134.51 240.27 141.73 239.94 141.04 249.69 133.84 249.67 134.51 240.27"/><path class="cls-8" d="M98.37,158s55,8.49,54.13,21.16c-1.61,22.81-9.32,67.35-9.32,67.35l-10.84.14s-2.49-45.71,1.59-62.37c-13.53,0-51.72-.54-56.92-7.51-5.74-7.69.2-19.76.2-19.76Z"/><polygon class="cls-17" points="131.06 247.51 144.18 247.32 144.84 240.39 130.44 240.93 131.06 247.51"/><path class="cls-18" d="M108.15,99.93c-4.43-.87-24.42-.65-24.42-.65a8,8,0,0,0-8.15,7c-.71,6.16,3.18,19.94,3.31,27,.15,8.63-1.5,12.12-1.68,23.73l38.12,1.79c0-23.36-1-42.7-1.86-52C113.15,103.62,112.57,100.8,108.15,99.93Z"/><path class="cls-19" d="M108.15,99.93c-4.43-.87-24.42-.65-24.42-.65a8,8,0,0,0-8.15,7c-.71,6.16,3.18,19.94,3.31,27,.15,8.63-1.5,12.12-1.68,23.73l38.12,1.79c0-23.36-1-42.7-1.86-52C113.15,103.62,112.57,100.8,108.15,99.93Z"/><path class="cls-14" d="M113.36,107.3c1.19,4.1,2.38,8.32,3.61,12.44s2.5,8.27,3.92,12.19c.35,1,.73,1.92,1.09,2.88l.59,1.34.07.17,0,.09,0,0v0l0-.06a2.81,2.81,0,0,0-.48-.64c-.26-.25-.36-.27-.38-.27a2,2,0,0,0,.57.36c.32.15.72.31,1.15.46.86.3,1.82.57,2.8.83,4,1,8.31,1.8,12.54,2.71l-.14,5.27a65.5,65.5,0,0,1-6.82.55,60,60,0,0,1-6.94-.15,33.23,33.23,0,0,1-3.67-.47c-.64-.13-1.29-.27-2-.48a11.28,11.28,0,0,1-2.43-1,7.85,7.85,0,0,1-1.67-1.29,6.36,6.36,0,0,1-1-1.3l-.26-.48-.85-1.63c-.51-1.07-1-2.14-1.49-3.2-.94-2.13-1.76-4.25-2.57-6.37s-1.53-4.24-2.22-6.38c-1.4-4.27-2.66-8.51-3.76-12.91Z"/><path class="cls-15" d="M102.53,103c5.23-5.29,11.88-2.39,14.74,7.22s2.33,10.31,2.33,10.31l-14,5.41C102.29,116.82,97.19,108.46,102.53,103Z"/><path class="cls-14" d="M142.57,137.8l-1.12-.1c-3.17,0-3.72.86-5.68,2.67l-.73,4c5.13,2.64,7.88-.24,7.88-.24h4.76L146,140.29A4.18,4.18,0,0,0,142.57,137.8Z"/><rect class="cls-6" x="76.9" y="180.02" width="52.58" height="7.01" rx="2.55" transform="translate(206.12 367.19) rotate(-179.92)"/><polygon class="cls-7" points="78.94 265.02 76.78 265.02 79.38 186.99 82.36 186.99 78.94 265.02"/><polygon class="cls-7" points="98.8 265.05 100.95 265.05 98.58 187.01 95.6 187.01 98.8 265.05"/><polygon class="cls-7" points="107.35 265.06 105.2 265.06 107.79 187.03 110.78 187.03 107.35 265.06"/><polygon class="cls-7" points="127.21 265.09 129.37 265.09 127 187.06 124.01 187.05 127.21 265.09"/><path class="cls-6" d="M271.92,91.89l-121.71-.18a6.84,6.84,0,0,1-6.88-7.34l4.75-77A7.92,7.92,0,0,1,155.87,0L277.59.18a6.84,6.84,0,0,1,6.88,7.34l-4.76,77A7.92,7.92,0,0,1,271.92,91.89Z"/><polygon class="cls-6" points="166.52 75.44 177.7 113.87 211.06 75.51 166.52 75.44"/><path class="cls-4" d="M266.06,60.88l-68.22-.1A3.85,3.85,0,0,1,194,56.66l2.67-43.19A4.43,4.43,0,0,1,201,9.37l68.23.1a3.83,3.83,0,0,1,3.86,4.11l-2.67,43.19A4.45,4.45,0,0,1,266.06,60.88Z"/><path class="cls-20" d="M229.53,79.45l-68.22-.1a3.83,3.83,0,0,1-3.86-4.11l2.67-43.19a4.44,4.44,0,0,1,4.36-4.11l68.23.1a3.85,3.85,0,0,1,3.86,4.12L233.9,75.35A4.43,4.43,0,0,1,229.53,79.45Z"/><path class="cls-8" d="M160.51,6.71A2.35,2.35,0,0,1,158.32,9a2,2,0,0,1-1.85-2.27,2.35,2.35,0,0,1,2.18-2.25A2,2,0,0,1,160.51,6.71Z"/><path class="cls-21" d="M168,6.72A2.36,2.36,0,0,1,165.79,9a2,2,0,0,1-1.85-2.26,2.35,2.35,0,0,1,2.18-2.26A2,2,0,0,1,168,6.72Z"/><path class="cls-20" d="M175.44,6.73A2.35,2.35,0,0,1,173.26,9a2,2,0,0,1-1.86-2.26,2.35,2.35,0,0,1,2.19-2.26A2,2,0,0,1,175.44,6.73Z"/><path class="cls-8" d="M205.17,46c-.51,1.1-1,2-1.52,3S202.59,51,202,51.92c-1.12,1.89-2.27,3.76-3.54,5.58-.62.91-1.28,1.81-1.93,2.71s-1.35,1.77-2.08,2.63a53.6,53.6,0,0,1-4.66,5c-.42.41-.88.8-1.31,1.19a17.69,17.69,0,0,1-1.39,1.15l-1.46,1.1s-.26.19-.45.31-.4.23-.61.34a7,7,0,0,1-1.31.46,6.35,6.35,0,0,1-2.71,0,6.19,6.19,0,0,1-3.45-2.11l-.2-.27-.1-.14,0-.06-.14-.24-.54-1c-.16-.32-.28-.62-.42-.93a26.11,26.11,0,0,1-1.17-3.54,49.31,49.31,0,0,1-1.1-6.69,57.72,57.72,0,0,1-.27-6.59,2.62,2.62,0,0,1,5.14-.67l0,.09A96.19,96.19,0,0,0,182,61.69,18.38,18.38,0,0,0,183.21,64c.1.15.2.33.3.47s.19.23.29.35l.06.09,0,0,0-.06a.44.44,0,0,0-.08-.11,2.33,2.33,0,0,0-.41-.42,2.68,2.68,0,0,0-1-.52,2.58,2.58,0,0,0-1.14,0,3,3,0,0,0-.58.19l-.27.14c-.08,0-.22.16-.13.08l.95-.93a12.48,12.48,0,0,0,1-1c.31-.34.63-.66.94-1a80.47,80.47,0,0,0,6.78-9.5c1.05-1.7,2.08-3.42,3.07-5.17L194.35,44l1.4-2.58.07-.13A5.24,5.24,0,0,1,205.17,46Z"/><path class="cls-16" d="M173.87,50.56l-3.71-2.12,4-4.06a22.74,22.74,0,0,1,3.23,2.91,2.16,2.16,0,0,1-.61,3.42h0A3.11,3.11,0,0,1,173.87,50.56Z"/><path class="cls-16" d="M169.33,44.08l2-1.43a1.24,1.24,0,0,1,1.71.26l1.1,1.47-4,4.06-1.24-2.86A1.23,1.23,0,0,1,169.33,44.08Z"/><path class="cls-21" d="M197.21,42.62a5.63,5.63,0,0,1,4.39-3.91,34.5,34.5,0,0,1,4.48-.68,118.58,118.58,0,0,1,13.6.27c2.37.16,4.79.5,6.72.82h.07a3.91,3.91,0,0,1,3.22,4.49c-1,5.49-3.77,15-4.08,24-.42,11.82-.25,18.63-.46,21.48l-30.44-.63C192.63,59.6,195.29,49.16,197.21,42.62Z"/><path class="cls-8" d="M227.28,38.67h-.07c-2-.34-4.59-.69-7.09-.86-.43,0-.89-.06-1.35-.09-1.34,5.51-9.28,14.75-11.71,28.78-.91-11.73-1.61-24-.24-28.77a59.57,59.57,0,0,0-6.43.53,6.53,6.53,0,0,0-4.82,4.48c-1.88,5.5-5.47,17.82-3.31,48.14l33.82,0c.23-3-.55-9.42.68-19.24,1.2-9.52,2.91-22.47,3.92-28.25A4.14,4.14,0,0,0,227.28,38.67Z"/><path class="cls-22" d="M206.29,89.32a.21.21,0,0,1-.21-.19c-.7-8.55.65-20.83.67-20.95A.2.2,0,0,1,207,68a.21.21,0,0,1,.18.23c0,.12-1.36,12.36-.66,20.87a.2.2,0,0,1-.19.22Z"/><path class="cls-23" d="M226.08,50.7c-1.27,5.68-.61,13.56.71,20.75,1-8.06,2.39-18.53,3.39-25C228.8,45.52,227.08,46.17,226.08,50.7Z"/><path class="cls-16" d="M206.72,38c3.95-.85,4.64-3.28,4.36-6a17.85,17.85,0,0,0-.32-2l4.93-4,3.63-2.94c-1,4.36-2.09,12.31.88,15.29,0,0-2.43,4-9.2,3.49C205.28,41.41,206.72,38,206.72,38Z"/><polygon class="cls-3" points="212.72 40.83 211.62 41.87 215.11 43.18 214.66 41.85 212.72 40.83"/><path class="cls-4" d="M215.39,45s-1.37-3.48-2.67-4.21a14.39,14.39,0,0,0,6.77-3.74l2.08.83S222.22,41.91,215.39,45Z"/><polygon class="cls-3" points="210.8 40.56 211.62 41.87 207.94 42.18 208.69 41.02 210.8 40.56"/><path class="cls-4" d="M206.09,44.05a16.69,16.69,0,0,1,4.71-3.49c-2-.6-2.11-3.35-2.11-3.35l-1.94.36S203.19,41,206.09,44.05Z"/><path class="cls-12" d="M210.76,30a17.85,17.85,0,0,1,.32,2c1.84-.34,4.31-2.26,4.55-4.14a8.29,8.29,0,0,0,.06-1.89Z"/><path class="cls-8" d="M204.8,10.1c-1.76,2.17-1.6,10,2.13,10.1S208,6.16,204.8,10.1Z"/><path class="cls-16" d="M220.87,15.83c-.38,5.93-.3,9.42-3.3,12.49-4.51,4.61-11.81,1.95-13.2-4C203.12,19,204,10.23,209.75,7.82A8,8,0,0,1,220.87,15.83Z"/><path class="cls-8" d="M218,10.88c-3.73,3.7,1.11,6.42-.79,8.41,3.52,1.85,2.23,3.2,2.23,3.2a4.58,4.58,0,0,0,0,3.13c4-1,11.35-14.18,3.32-16.22C217.9,11.55,218,10.88,218,10.88Z"/><path class="cls-8" d="M219.48,13.54c-3.53.55-8-1.15-10.73-2.58s-3.16,1.26-2.15,2.09c-1.77.06-4-1.35-3.45-4.47.51-2.85,4.25-5.54,9.56-3.12,3.76,1.71,8.4-.53,10.2,1.44S221.85,13.18,219.48,13.54Z"/><path class="cls-8" d="M221.9,9.68c2.37-.31,2.47-1.8,1.81-4.43,2.56,3.65,1.54,4.76,0,5.64C222,10.32,221.9,9.68,221.9,9.68Z"/><path class="cls-16" d="M222.46,20.38A5.38,5.38,0,0,1,219.87,23c-1.47.66-2.21-.69-1.81-2.28s1.55-3.5,3-3.49S223.12,18.92,222.46,20.38Z"/><path class="cls-8" d="M211.61,17.61c0,.48-.26.87-.58.88s-.57-.39-.56-.87.25-.88.57-.88S211.61,17.13,211.61,17.61Z"/><path class="cls-8" d="M206.16,17.65c0,.48-.26.87-.57.88s-.57-.39-.57-.87.26-.88.57-.88S206.16,17.16,206.16,17.65Z"/><path class="cls-24" d="M208.18,17.82A17.77,17.77,0,0,1,205.86,22a2.75,2.75,0,0,0,2.3.41Z"/><path class="cls-8" d="M210.13,23.67a4.06,4.06,0,0,0,2.79-1.61.15.15,0,0,0,0-.2.14.14,0,0,0-.19,0,3.82,3.82,0,0,1-3.12,1.52.14.14,0,0,0-.14.14.15.15,0,0,0,.15.15Z"/><path class="cls-8" d="M214.25,15.69a.24.24,0,0,0,.13,0,.29.29,0,0,0,.05-.4,2.8,2.8,0,0,0-2.31-1.16.27.27,0,0,0-.25.31.28.28,0,0,0,.31.26,2.23,2.23,0,0,1,1.8.93A.27.27,0,0,0,214.25,15.69Z"/><path class="cls-8" d="M204,15.91a.31.31,0,0,0,.22-.15,2.27,2.27,0,0,1,1.6-1.3.28.28,0,0,0,.24-.32.3.3,0,0,0-.32-.25h0a2.85,2.85,0,0,0-2,1.61.28.28,0,0,0,.13.38A.23.23,0,0,0,204,15.91Z"/><path class="cls-8" d="M231.56,42.11c.92,2,1.7,3.79,2.45,5.71s1.44,3.84,2.11,5.78a97.58,97.58,0,0,1,3.2,12.07c.17,1.06.37,2.09.49,3.18l.1.81.06.4,0,.2,0,.29a12.45,12.45,0,0,1,0,2.36,10.57,10.57,0,0,1-1.73,4.8,10.73,10.73,0,0,1-3.46,3.23,14.34,14.34,0,0,1-3.66,1.54,20.46,20.46,0,0,1-3.5.62,23.67,23.67,0,0,1-3.36.08,24.69,24.69,0,0,1-3.33-.36,2.61,2.61,0,0,1-.12-5.13l.27-.06c.79-.17,1.76-.38,2.61-.61s1.72-.49,2.52-.78a11.14,11.14,0,0,0,3.84-2.12,2.47,2.47,0,0,0,.67-1,2.17,2.17,0,0,0,0-.81,5,5,0,0,0-.12-.61l-.27-1.23c-.17-.88-.42-1.77-.65-2.65-.47-1.79-1-3.58-1.61-5.37s-1.22-3.58-1.88-5.37-1.35-3.57-2.06-5.35-1.45-3.6-2.15-5.26l0-.07a5.24,5.24,0,0,1,9.57-4.28Z"/><path class="cls-16" d="M218.52,79.85l-3.35,1.59L221,83.5s3.86-1.22,2-3.36l-1-.33C220.24,79.28,219.42,79.34,218.52,79.85Z"/><path class="cls-16" d="M215.61,85.55l2.55.49a1.77,1.77,0,0,0,1.87-.87L221,83.5l-5.79-2.06-.8,1.58A1.76,1.76,0,0,0,215.61,85.55Z"/></g></g></g></svg>