<?xml version="1.0" encoding="utf-8"?>
<!-- Generator: Adobe Illustrator 25.0.1, SVG Export Plug-In . SVG Version: 6.00 Build 0)  -->
<svg version="1.1" id="Layer_1" xmlns="http://www.w3.org/2000/svg" xmlns:xlink="http://www.w3.org/1999/xlink" x="0px" y="0px"
	 viewBox="0 0 24.4 32.8" style="enable-background:new 0 0 24.4 32.8;" xml:space="preserve">
<style type="text/css">
	.st0{fill:#46C7CE;}
</style>
<g id="Layer_2_1_">
	<g id="Option_1">
		<path class="st0" d="M21.3,12.9h-1.5V8.4c-0.4-4.2-4.1-7.3-8.3-6.9C7.8,1.9,4.9,4.7,4.6,8.4v4.5H3.1c-1.4,0-2.5,1.1-2.6,2.5v14.1
			c0,1.4,1.1,2.6,2.6,2.6l0,0h18.1c1.4,0,2.6-1.1,2.6-2.6l0,0V15.4C23.8,14,22.7,12.9,21.3,12.9z M5.7,8.4C5.9,4.8,8.9,2,12.5,2.2
			c3.3,0.2,6,2.8,6.2,6.2v4.5h-13V8.4z M22.7,29.6c0,0.8-0.7,1.5-1.5,1.5H3.1c-0.8,0-1.5-0.7-1.5-1.5V15.4c0-0.8,0.7-1.5,1.5-1.5
			h18.1c0.8,0,1.5,0.6,1.5,1.5c0,0,0,0,0,0V29.6z"/>
		<path class="st0" d="M12.2,18.3c-1.2,0-2.2,1-2.2,2.2c0,0.9,0.6,1.7,1.4,2.1l0.3,0.1v3.5c0,0.3,0.2,0.5,0.5,0.5
			c0.3,0,0.5-0.2,0.5-0.5v-3.5l0.3-0.1c1.1-0.5,1.7-1.8,1.2-2.9C13.9,18.8,13.1,18.3,12.2,18.3z M12.2,21.6c-0.6-0.1-1.1-0.6-1-1.2
			c0.1-0.6,0.5-1,1-1c0.6-0.1,1.2,0.4,1.2,1c0.1,0.6-0.4,1.2-1,1.2C12.3,21.6,12.3,21.6,12.2,21.6z"/>
	</g>
</g>
</svg>
