<svg xmlns="http://www.w3.org/2000/svg" viewBox="0 0 45.9 32"><defs><style>.cls-1{fill:#fa5;}</style></defs><g id="Layer_2" data-name="Layer 2"><g id="Option_1" data-name="Option 1"><path class="cls-1" d="M10.86,13.23h0a6,6,0,1,0,6,6A6,6,0,0,0,10.86,13.23Zm0,10.3a4.29,4.29,0,1,1,4.29-4.28A4.29,4.29,0,0,1,10.86,23.53Z"/><path class="cls-1" d="M45.78,17.45c-.24-1.07-1.44-1.94-3.58-2.59a25.76,25.76,0,0,0-6.63-.93h-.24v-.24L35.08,3.33c-.33-1-1.52-1.76-3.53-2.37A27.1,27.1,0,0,0,24,0,26.37,26.37,0,0,0,16.5,1c-1.62.5-3.55,1.42-3.55,3a2.45,2.45,0,0,0,0,.27v0l.1,4.38-.3,0a10.31,10.31,0,0,0-1.92-.17,10.86,10.86,0,1,0,6.8,19.32l.1-.08.12,0a27.68,27.68,0,0,0,5.75.62h.19l.05.19c.25,1.08,1.52,2,3.7,2.62a26.86,26.86,0,0,0,7.28.9,26.41,26.41,0,0,0,7.5-1c1.62-.49,3.55-1.41,3.55-3ZM14.69,3.54a5.7,5.7,0,0,1,2.24-1.1h0a25,25,0,0,1,7-.9,26,26,0,0,1,7.13.9,6.62,6.62,0,0,1,2.12,1,.78.78,0,0,1,.31.66.69.69,0,0,1-.19.33A6.19,6.19,0,0,1,31.1,5.45a26.19,26.19,0,0,1-7.12.9,25.32,25.32,0,0,1-6.82-.84,5.71,5.71,0,0,1-2.47-1.18A.6.6,0,0,1,14.69,3.54ZM33.79,6V9l-.45.48h0a6,6,0,0,1-2.21,1,25.87,25.87,0,0,1-7.12.9,26.25,26.25,0,0,1-6.29-.69h-.09l-.06,0A10.43,10.43,0,0,0,14.8,9.11l-.16-.06-.07-2.94.37.19a10.32,10.32,0,0,0,1.8.67A27.24,27.24,0,0,0,24,7.86a27,27,0,0,0,7.55-1,8.36,8.36,0,0,0,1.87-.74ZM17.12,26.13h0a9.26,9.26,0,0,1-6.26,2.43h-.45a9.32,9.32,0,0,1,.44-18.62,9.66,9.66,0,0,1,2.76.41,9.15,9.15,0,0,1,3.31,1.84A9.39,9.39,0,0,1,20,17.37a10.07,10.07,0,0,1,.19,1.88A9.21,9.21,0,0,1,17.12,26.13Zm6.4.62a27.8,27.8,0,0,1-4-.35l-.43-.07.27-.33A11.38,11.38,0,0,0,21,23.22L21,23l.19,0c.81.06,1.55.1,2.27.11h.27l0,.27a1,1,0,0,0,0,.17v0l0,3.12Zm-1.85-8.47v-.06l0-.23.29,0c.44,0,.91,0,1.47.06h.2l.05.19a.29.29,0,0,0,0,.09h0v.06l0,3.2h-.26c-.59,0-1.17,0-1.72-.07l-.28,0,.05-.28a10.68,10.68,0,0,0,.19-2C21.71,19,21.7,18.64,21.67,18.28Zm2.53-1.83-.08.09H24c-.83,0-1.66,0-2.47-.1h-.17l-.05-.17a10.73,10.73,0,0,0-1.47-3.12l-.31-.46.55.06A32.72,32.72,0,0,0,24,13a26.92,26.92,0,0,0,7.55-1,9.7,9.7,0,0,0,1.88-.75l.37-.2v2.85h-.25a26.13,26.13,0,0,0-6,.83A7.25,7.25,0,0,0,24.2,16.45Zm1,1.53a.78.78,0,0,0,0-.14l0-.11.07-.1c.16-.23.74-.82,2.7-1.36a25.47,25.47,0,0,1,6.65-.79h.07a26,26,0,0,1,7.12.88c2,.61,2.42,1.21,2.5,1.38l0,.1,0,.11c-.05.13-.44.79-2.58,1.42a25.83,25.83,0,0,1-7,.87A26.11,26.11,0,0,1,28,19.47c-2-.53-2.58-1.12-2.76-1.35l0-.06ZM44.36,28.09v0c0,.13-.34.79-2.45,1.44a24.81,24.81,0,0,1-7.06.91,25.12,25.12,0,0,1-7-.88c-1.8-.56-2.45-1.2-2.45-1.5l0-2.89.36.17a11.37,11.37,0,0,0,2.12.75,28,28,0,0,0,6.84.78,26.92,26.92,0,0,0,7.53-1A8.82,8.82,0,0,0,44,25.2l.38-.22Zm0-5.39a.8.8,0,0,0-.07.24V23c0,.13-.36.78-2.49,1.44a25.74,25.74,0,0,1-7.1.89,26.44,26.44,0,0,1-6.21-.67,7.15,7.15,0,0,1-3.06-1.35l-.07-.07v-.1l0-3.1.37.18a22.34,22.34,0,0,0,9,1.55,27.38,27.38,0,0,0,7.46-.93A10.06,10.06,0,0,0,44,20.1l.37-.19v2.54A.61.61,0,0,1,44.31,22.7Z"/></g></g></svg>