<svg xmlns="http://www.w3.org/2000/svg" viewBox="0 0 324.89 249.55"><defs><style>.cls-1{isolation:isolate;}.cls-2,.cls-5{fill:#75c189;}.cls-2{opacity:0.3;}.cls-3{fill:#eaeaea;mix-blend-mode:multiply;}.cls-4{fill:#55a062;}.cls-6{fill:#f0f8ff;}.cls-7{fill:#ffd371;}.cls-8{fill:#fa5;}.cls-9{fill:#fff;}.cls-10{fill:#ffb280;}.cls-11{fill:#603813;}.cls-12{fill:#ea8d5f;}.cls-13{fill:#5ebdcc;}.cls-14{fill:#e3f1fc;}.cls-15{fill:#359aa8;}.cls-16{fill:#dd5448;}.cls-17{fill:#fc7b73;}.cls-18{fill:#1e1e1e;}.cls-19{fill:#00302d;}.cls-20{fill:#eaa37d;}</style></defs><g class="cls-1"><g id="Layer_2" data-name="Layer 2"><g id="Option_1" data-name="Option 1"><path class="cls-2" d="M168.1,230.26c-91.92,0-132-27.31-132-27.31S-24,174.28,10.89,99.38C38.65,39.77,138.05-9,186.84,12.2s44.4,48,98,86.78,41.19,69.58,31.59,85.17C316.41,184.15,286.53,230.26,168.1,230.26Z"/><ellipse id="_Path_" data-name="&lt;Path&gt;" class="cls-3" cx="96.41" cy="242.99" rx="67.55" ry="6.56"/><rect class="cls-4" x="101.62" width="151.38" height="85.22"/><rect class="cls-5" x="106.54" width="151.38" height="85.22"/><circle class="cls-6" cx="147.94" cy="40.69" r="27.37"/><path class="cls-6" d="M240.91,25.4H195.56a3,3,0,0,0-3,3h0a3,3,0,0,0,3,3h45.35a3,3,0,0,0,3-3h0A3,3,0,0,0,240.91,25.4Z"/><path class="cls-6" d="M240.91,37.7H195.56a3,3,0,0,0-3,3h0a3,3,0,0,0,3,3h45.35a3,3,0,0,0,3-3h0A3,3,0,0,0,240.91,37.7Z"/><path class="cls-6" d="M240.91,50H195.56a3,3,0,0,0,0,6h45.35a3,3,0,0,0,0-6Z"/><path class="cls-7" d="M122.88,40.29h25.06V15.23A25.06,25.06,0,0,0,122.88,40.29Z"/><path class="cls-8" d="M173,41.1H122.88a25.06,25.06,0,0,0,25.06,25.06h0A25.06,25.06,0,0,0,173,41.1Z"/><path class="cls-6" d="M143.61,27.4H130a1.41,1.41,0,0,0,0,2.82h13.6a1.41,1.41,0,0,0,0-2.82Z"/><path class="cls-6" d="M133.11,32.52H130a1.41,1.41,0,0,0,0,2.82h3.1a1.41,1.41,0,0,0,0-2.82Z"/><path class="cls-6" d="M163.81,47.22h-13.6a1.41,1.41,0,1,0,0,2.82h13.6a1.41,1.41,0,0,0,0-2.82Z"/><path class="cls-6" d="M153.3,52.34h-3.09a1.41,1.41,0,0,0-1.41,1.41h0a1.41,1.41,0,0,0,1.41,1.41h3.09a1.41,1.41,0,0,0,1.41-1.41h0A1.41,1.41,0,0,0,153.3,52.34Z"/><path class="cls-2" d="M91,100.49v87.15H242.34V100.49Z"/><path class="cls-9" d="M95.88,100.49v87.15H247.26V100.49Z"/><circle class="cls-5" cx="137.28" cy="141.37" r="27.37"/><path class="cls-2" d="M184.9,132.06h45.34a3,3,0,0,0,0-6H184.9a3,3,0,1,0,0,6Z"/><path class="cls-2" d="M230.24,138.39H184.9a3,3,0,1,0,0,6h45.34a3,3,0,1,0,0-6Z"/><path class="cls-2" d="M230.24,150.69H184.9a3,3,0,0,0-3,3h0a3,3,0,0,0,3,3h45.34a3,3,0,0,0,3-3h0A3,3,0,0,0,230.24,150.69Z"/><path class="cls-9" d="M137.28,141.82l-25.06-.32v.32A25.06,25.06,0,0,0,150.72,163Z"/><rect class="cls-2" x="123.19" y="149.71" width="16.42" height="2.81" rx="1.41"/><path class="cls-2" d="M127.7,154.83h-3.1a1.41,1.41,0,1,0,0,2.81h3.1a1.41,1.41,0,1,0,0-2.81Z"/><polygon class="cls-10" points="55.88 216.19 59.42 231.11 64.73 231.08 64.92 216.19 55.88 216.19"/><polygon class="cls-10" points="100.52 216.83 110.59 231.11 114.52 226.07 108.46 214.86 100.52 216.83"/><path class="cls-11" d="M72.19,19.39C63.43,18,54.43,25,51.79,38.23c-.89,4.45-4.45,6-11.34,9.58,0,0-9.07,5.18-10.85,12.64a46.93,46.93,0,0,0-1.82,4.44C31.66,67.84,38.91,74.38,44,79a7.51,7.51,0,0,1,.34-2.87l.63,3.77c2.7,2.48,4.57,4.23,4.57,4.23-.33-3.66,16.56-23,25.37-28.77C91,22.46,72.19,19.39,72.19,19.39Z"/><path class="cls-10" d="M74.36,55.66S70.11,57.91,66.87,57c-3-.83-5-4.78-5-4.78,1.29-.26,1.66-2,1.64-9.64l.58.12,9.79,1.94s-.22,3.08-.23,6C73.66,53.09,73.8,55.4,74.36,55.66Z"/><path class="cls-12" d="M73.89,44.67s-.22,3.08-.23,6c-5.48-.15-8.37-5.15-9.56-7.92Z"/><path class="cls-11" d="M63.09,41.66s-2.87-4.54-3.56-8.42c-.5-2.77.92-13,11.23-11.56a14.11,14.11,0,0,1,5.82,2.2c2.24,1.51,5.47,4.78,1.86,13.74l-.94,3Z"/><path class="cls-13" d="M112.92,222.15l-5.19.16-5.62.17a111,111,0,0,1-20.25-37.61c-.17-.54-.35-1.09-.54-1.64-4-11.61-12.25-26.2-16.6-39.4q-1-3.15-1.87-6c-.18-.6-.36-1.19-.52-1.77a139.32,139.32,0,0,1-5-26.28l31.43.25A585.76,585.76,0,0,0,112.92,222.15Z"/><path class="cls-14" d="M84.37,92c-.08,15,2.19,21.37,2.19,21.37a42.24,42.24,0,0,1-29.45,1.81c-.19-.06-12.11-2.78-12.11-2.78.27-.61,3.35-11,3.61-11.59,3.38-7.25,4.11-10.34,4.51-12.57a47.57,47.57,0,0,0,.39-12.53,100.72,100.72,0,0,0-3.88-19.68,103.1,103.1,0,0,0,13.08-4.39c1,1.3,4.12,2.61,6.89,2.55,3.19-.07,4.18-1.42,4.07-2.94C77.06,53.16,79.76,55,79.76,55c2.89,5,8.74,9.88,9.16,17.57C89,74.42,84.37,91.6,84.37,92Z"/><path class="cls-15" d="M57.34,93.69c-1.38,1.94-4,13.76-10.57,15.25,3.38-8.43,5.95-12.12,6.35-14.71a64.12,64.12,0,0,0,.39-14.56c2.19-3.84,3.83-6.48,3.83-6.48.17-.62,3.48-10.87,4.54-1.71S58.87,91.51,57.34,93.69Z"/><path class="cls-10" d="M75.72,47.42s-13,.21-13-7.87-1.69-13.49,6.59-14,9.89,2.6,10.55,5.29S79.09,47.15,75.72,47.42Z"/><path class="cls-11" d="M79.5,26.39C77.5,24,76,24.5,75.14,25.22,72.33,21,63.48,27.09,63.48,27.09a15.44,15.44,0,0,1-5,9.12s2.37,1.46,7.81,0c4.29-1.1,7.4-7.2,8.53-9.75a10.27,10.27,0,0,1,2.89,3.82c.65,2.06.94,6.29,2.17,6.15C79.83,36.48,82.51,30,79.5,26.39Z"/><path class="cls-10" d="M59.24,230.28a14.34,14.34,0,0,1-.67,6.11s-.87,4,3,4,4.85-.3,4.41-2.73-1.28-6.62-1.28-6.62Z"/><path class="cls-16" d="M66.38,242.37H58.29c-.44-2.07.28-6,.28-6,4.41,4.22,7.17-.11,7.17-.11C66.46,238.1,66.38,242.37,66.38,242.37Z"/><path class="cls-10" d="M123.92,238.28s-7.19-8.16-9.4-12.21l-5.34,2.73L121.12,240l2.8-.37Z"/><path class="cls-16" d="M128.32,242.35h-10a16.49,16.49,0,0,1-2.74-4.47,4.81,4.81,0,0,0-3.25-2.22v6.69H110.3l-1.91-7.12c-1.28-2.38-.32-4.57.57-6.45,1,0,4.06.75,9.37,6.85a6.91,6.91,0,0,0,5.59,2.65l.07.05C127,239.71,128,241.42,128.32,242.35Z"/><path class="cls-17" d="M127.84,60.82s-8.51,4.76-11.55,6.13l-5,2.33-3.49,1.64a4.39,4.39,0,0,1-5.2-1.12C98,64.42,86,52.75,73.71,51.29l0,0v0h0l.06.13c.7,1.72,7.45,18.59,7.66,22.15.22,3.75.88,61.33.88,61.33s-.44,2.65,4.63,1.54,6.4-2.2,6.4-2.2-4.85-35.52-3.53-47.88a27.21,27.21,0,0,0-.52-8A63.1,63.1,0,0,0,105.59,85,73.81,73.81,0,0,0,114,80.35a52.22,52.22,0,0,0,7.11-5.71,103.32,103.32,0,0,0,8.07-9.3Z"/><path class="cls-15" d="M107.73,222.31l-5.62.17a111,111,0,0,1-20.25-37.61c-.17-.54-.35-1.09-.54-1.64-4-11.61-12.25-26.2-16.6-39.4q-1-3.15-1.87-6c-.18-.6-.36-1.19-.52-1.77L67,132.6s13.89,22.5,18.2,43.68C88.89,194.67,103.86,216.81,107.73,222.31Z"/><path class="cls-13" d="M67.44,178.25c.08,10.3-.44,34-1.78,43.77h-5c-2.75,0-4.12,0-4.12,0-3.37-17.05-5.76-31.15-7.5-43.3-1.43-10-2.7-18.52-3.68-25.88S43.71,139.2,43.47,134c0-.82-.07-1.63-.09-2.4s0-1.55,0-2.29l27.16-2.64C70.19,144.67,67.4,172.26,67.44,178.25Z"/><path class="cls-15" d="M60.68,222c-2.75,0-4.12,0-4.12,0-3.37-17.05-5.76-31.15-7.5-43.3-1.43-10-2.7-18.52-3.68-25.88S43.71,139.2,43.47,134l10,5.86s-6.36,2.25-3.93,19.24S57.3,219.62,60.68,222Z"/><path class="cls-17" d="M62,133.8s-1.91,6.91-8.53,6-16-4.86-16-4.86,2.83-8.94,6.35-20.68c4.26-14.21,9.53-32.53,12-44.09a72,72,0,0,0,1.35-7.88l5.6-10.66s8.08,18.38,8.52,23S62,133.8,62,133.8Z"/><path class="cls-10" d="M85.6,79.84c-3.19.42-4.41,2.11-4.8,4.4a9.66,9.66,0,0,1-1.39,3.31c-3.17.17-10.73.58-17.07,1l-.53,8.33a94.63,94.63,0,0,0,19-4.5A5,5,0,0,0,83,91.19c4.57-3.75,7.17-10,7.18-10.91S88.79,79.42,85.6,79.84Z"/><path class="cls-16" d="M61.67,84.38c-.3,7.5-2.06,22.06-17.8,29.85l-.12.06c4.26-14.21,9.53-32.53,12-44.09C58.65,74.52,61.83,80.25,61.67,84.38Z"/><path class="cls-17" d="M62.71,51.66s-13.46,1-16.69,8.16S41.75,91,45.87,98.06c0,0,5.67,1.61,15.7-.26l.37-.07s3.2-7.83.33-9.38c0,0-8.46.44-7.57-2.35S62.71,51.66,62.71,51.66Z"/><path class="cls-10" d="M137,55.16a8.09,8.09,0,0,0-9.07,5.66l1.35,4.52c2.23.31,4.18-.27,6-2.85s2.3-1.58,3.44-3.5C140.22,56.39,137.8,55.42,137,55.16Z"/><path class="cls-10" d="M116.29,67l-5,2.33c1.07,1.91,2.41,5.36,2.76,11.07a45.83,45.83,0,0,0,7.32-5.89,96.59,96.59,0,0,0,7.86-9.12l-1.35-4.52S119.33,65.58,116.29,67Z"/><path class="cls-18" d="M74.43,43.3a5.16,5.16,0,0,0,.54-.08.24.24,0,0,0,.17-.3.24.24,0,0,0-.3-.18,3.08,3.08,0,0,1-3.78-2.16.25.25,0,0,0-.31-.17.25.25,0,0,0-.16.31A3.48,3.48,0,0,0,74.43,43.3Z"/><path class="cls-19" d="M74.13,40.55a1.83,1.83,0,0,1-.47,0,.31.31,0,0,1-.29-.31.3.3,0,0,1,.31-.28A1.74,1.74,0,0,0,75,39.47c-1-1.19-1.7-4.29-1.73-4.43a.3.3,0,0,1,.22-.35.29.29,0,0,1,.36.22c.21,1,.94,3.62,1.74,4.33a.31.31,0,0,1,0,.39A2.42,2.42,0,0,1,74.13,40.55Z"/><path class="cls-20" d="M64.43,40.36c0,.67,1.4,1.14,3,1.07s3-.68,2.93-1.35-1.4-1.14-3-1.06S64.4,39.7,64.43,40.36Z"/><path class="cls-19" d="M70.06,36.82c0,.6.32,1.07.66,1.06s.6-.51.57-1.1-.31-1.07-.65-1.05S70,36.23,70.06,36.82Z"/><path class="cls-19" d="M76.73,36.72c0,.6.31,1.07.65,1.06s.6-.51.58-1.1-.32-1.07-.66-1S76.71,36.13,76.73,36.72Z"/><path class="cls-18" d="M76.55,33.34l-.18.06a.25.25,0,0,0-.11.33.24.24,0,0,0,.32.12,1.56,1.56,0,0,1,1.56.18.24.24,0,0,0,.35,0,.26.26,0,0,0,0-.35A2,2,0,0,0,76.55,33.34Z"/><path class="cls-18" d="M69.5,33.58l-.16.12a.24.24,0,0,0,0,.34.24.24,0,0,0,.35,0,1.58,1.58,0,0,1,1.55-.27.24.24,0,1,0,.18-.45A2,2,0,0,0,69.5,33.58Z"/></g></g></g></svg>