<svg xmlns="http://www.w3.org/2000/svg" xmlns:xlink="http://www.w3.org/1999/xlink" viewBox="0 0 366.83 289.19"><defs><style>.cls-1{fill:none;}.cls-2{isolation:isolate;}.cls-3{opacity:0.3;}.cls-4{fill:#75c189;}.cls-5{fill:#005a5b;}.cls-6{fill:#33918e;}.cls-7{fill:#eaeaea;mix-blend-mode:multiply;}.cls-8{fill:#00302d;}.cls-9{fill:#ccd3e6;}.cls-10{fill:#384e4f;}.cls-11{fill:#f16854;}.cls-12{fill:#ffbf6b;}.cls-13{fill:#5a7b7b;}.cls-14{fill:#fff;}.cls-15{fill:#008280;}.cls-16{fill:#58b2dd;}.cls-17{fill:#fa5;}.cls-18{fill:#f1cec3;}.cls-19{fill:#f3e3df;}.cls-20{fill:#ff9e8d;}.cls-21{fill:#ff9036;}.cls-22{fill:#55a062;}.cls-23{fill:#eb7466;}.cls-24{fill:#1e1e1e;}.cls-25{fill:#fb6260;}.cls-26{fill:#d44033;}.cls-27{fill:#dc7024;}.cls-28{clip-path:url(#clip-path);}</style><clipPath id="clip-path" transform="translate(0 -12.19)"><rect class="cls-1" x="120.77" width="155.31" height="192" transform="translate(396.85 192) rotate(-180)"/></clipPath></defs><g class="cls-2"><g id="Layer_2" data-name="Layer 2"><g id="Option_1" data-name="Option 1"><g class="cls-3"><path class="cls-4" d="M366.83,126.2c0-46.42-30.61-97.28-68.71-100.35-.67-.06-1.34-.1-2-.14-54.61-3.22-58.77,80.89-108.18,90.37s-87.14-38.4-146.27-7.16C-11.46,137-25.84,294.65,130.18,301,255,306,366.85,264.68,366.83,126.2Z" transform="translate(0 -12.19)"/></g><path class="cls-5" d="M36.42,169.23a.53.53,0,0,0,0-.28c-.76-5.26,3.26-8.83,3.3-8.87a.52.52,0,0,0-.69-.79,11.57,11.57,0,0,0-3.66,9.81.53.53,0,0,0,1,.13Z" transform="translate(0 -12.19)"/><path class="cls-6" d="M38.21,161.86a2.56,2.56,0,1,0-1.36-3.35A2.57,2.57,0,0,0,38.21,161.86Z" transform="translate(0 -12.19)"/><ellipse class="cls-7" cx="182.06" cy="252.35" rx="174.72" ry="11.74"/><rect class="cls-8" x="41.95" y="61.1" width="281.1" height="174.3" rx="10.65"/><path class="cls-9" d="M310.56,91.87V219.48a7,7,0,0,1-7.26,6.8H61.69a7.49,7.49,0,0,1-5.4-2.25,6.58,6.58,0,0,1-1.86-4.55V91.87a7,7,0,0,1,7.26-6.8H303.3A7.64,7.64,0,0,1,307,86,6.74,6.74,0,0,1,310.56,91.87Z" transform="translate(0 -12.19)"/><path class="cls-10" d="M349.31,241.53v1a22.06,22.06,0,0,1-22.06,22.06H37.75A22,22,0,0,1,15.69,242.5v-1Z" transform="translate(0 -12.19)"/><path class="cls-8" d="M185,253.05a3.19,3.19,0,1,1-3.19-3.19A3.19,3.19,0,0,1,185,253.05Z" transform="translate(0 -12.19)"/><path class="cls-8" d="M173.7,253.05a3.19,3.19,0,1,1-3.19-3.19A3.19,3.19,0,0,1,173.7,253.05Z" transform="translate(0 -12.19)"/><path class="cls-8" d="M196.23,253.05a3.19,3.19,0,1,1-3.19-3.19A3.19,3.19,0,0,1,196.23,253.05Z" transform="translate(0 -12.19)"/><path class="cls-11" d="M308.06,253.05a3.19,3.19,0,1,1-3.19-3.19A3.19,3.19,0,0,1,308.06,253.05Z" transform="translate(0 -12.19)"/><path class="cls-12" d="M319.33,253.05a3.19,3.19,0,1,1-3.19-3.19A3.19,3.19,0,0,1,319.33,253.05Z" transform="translate(0 -12.19)"/><path class="cls-13" d="M145.11,241.53v.23a2.93,2.93,0,0,0,2.61,3.16h68.11a2.93,2.93,0,0,0,2.61-3.16v-.23Z" transform="translate(0 -12.19)"/><path class="cls-14" d="M310.56,92.33v8H54.43v-8a7.26,7.26,0,0,1,7.26-7.26H303.3a7.26,7.26,0,0,1,7.26,7.26Z" transform="translate(0 -12.19)"/><path class="cls-15" d="M290,93.11A1.93,1.93,0,1,1,288,91.19,1.92,1.92,0,0,1,290,93.11Z" transform="translate(0 -12.19)"/><path class="cls-16" d="M296.17,93.11a1.92,1.92,0,1,1-1.92-1.92A1.92,1.92,0,0,1,296.17,93.11Z" transform="translate(0 -12.19)"/><path class="cls-17" d="M302.09,93.11a1.92,1.92,0,1,1-1.92-1.92A1.92,1.92,0,0,1,302.09,93.11Z" transform="translate(0 -12.19)"/><rect class="cls-18" x="79.38" y="78.88" width="198.98" height="4.06" rx="1.94"/><path class="cls-8" d="M66.57,93.11V95a.34.34,0,0,1-.51.3l-1.63-.94-1.63-.94a.35.35,0,0,1,0-.6l1.63-.94,1.63-.94a.34.34,0,0,1,.51.3Z" transform="translate(0 -12.19)"/><path class="cls-8" d="M69.44,93.11V95a.34.34,0,0,0,.51.3l1.63-.94,1.63-.94a.35.35,0,0,0,0-.6l-1.63-.94L70,90.93a.34.34,0,0,0-.51.3Z" transform="translate(0 -12.19)"/><rect class="cls-14" x="94.36" y="94.55" width="186.03" height="104.42" rx="4.36"/><path class="cls-18" d="M244.27,180a3.56,3.56,0,0,0,.49,1.91c.16.27.33.53.48.81l2.61,4.7,1.7-3.08c.46-.82.95-1.61,1.43-2.42a3.61,3.61,0,0,0-3.35-5.43A3.62,3.62,0,0,0,244.27,180Zm2.08-.35a1.53,1.53,0,1,1,1.53,1.53A1.52,1.52,0,0,1,246.35,179.65Z" transform="translate(0 -12.19)"/><path class="cls-18" d="M229.79,182.05a5.41,5.41,0,1,0,5.41-5.41A5.41,5.41,0,0,0,229.79,182.05Zm3,2a7.26,7.26,0,0,1-.28-1.9H235v1.9Zm1.28,2.86a5,5,0,0,1-3.24-2.42h1.65a6,6,0,0,0,.94,1.72A6.19,6.19,0,0,0,234.1,186.91Zm.88-2.42V187a4.47,4.47,0,0,1-1.2-1.09,6,6,0,0,1-.81-1.44Zm-1.89-5.1a6.83,6.83,0,0,1,1.7-2.3H235v2.31Zm-2.09,0a5,5,0,0,1,3-2.18,8.17,8.17,0,0,0-.68.85,6.61,6.61,0,0,0-.73,1.33Zm1.54,2.33a6.16,6.16,0,0,1,.37-1.9H235v1.9Zm-2.31,0a5,5,0,0,1,.52-1.9h1.7a6.85,6.85,0,0,0-.35,1.9Zm1.87.43a7.71,7.71,0,0,0,.27,1.9h-1.73a5,5,0,0,1-.41-1.9Zm6.15,0h1.92a5,5,0,0,1-.41,1.9H238A8.22,8.22,0,0,0,238.25,182.15Zm-2.83-2.76v-2.31h.14a6.53,6.53,0,0,1,1.09,1.23,5.92,5.92,0,0,1,.61,1.07Zm2,.43a6.53,6.53,0,0,1,.37,1.9h-2.39v-1.9Zm.29-.43a7.26,7.26,0,0,0-1.43-2.19,5,5,0,0,1,3.1,2.19Zm.08,2.76a6.81,6.81,0,0,1-.29,1.9h-2.1v-1.9Zm.44-.43a7.24,7.24,0,0,0-.35-1.9h1.75a4.89,4.89,0,0,1,.51,1.9Zm1.29,2.77a5,5,0,0,1-3.31,2.43,5.67,5.67,0,0,0,.67-.71,6,6,0,0,0,.94-1.72Zm-2.16,0a5.16,5.16,0,0,1-2,2.5v-2.5Z" transform="translate(0 -12.19)"/><path class="cls-18" d="M260.45,180.16c0-.47-.46-.71-1-.71a1.77,1.77,0,0,0-1.57,1l-2.69-1.35c.77-1.45,2.3-2.45,4.72-2.45s4.14,1,4.14,2.89c0,2.31-2.42,2.72-2.42,3.89H258.5C258.5,181.63,260.45,181.08,260.45,180.16Zm-2.39,5.68a2,2,0,0,1,4,0,2,2,0,0,1-4,0Z" transform="translate(0 -12.19)"/><rect class="cls-14" x="279.89" y="114.86" width="12.32" height="38.3" rx="2.32"/><rect class="cls-8" x="281.97" y="130.49" width="6.77" height="5.22" rx="1.66"/><polygon class="cls-8" points="290.69 130.5 290.69 135.72 288.58 133.94 288.58 132.27 290.69 130.5"/><circle class="cls-17" cx="286.33" cy="144.98" r="4.35"/><path class="cls-14" d="M284.28,159.68a.45.45,0,0,0,.32-.14l4.1-4.1a.45.45,0,0,0-.64-.64l-4.1,4.1a.46.46,0,0,0,.32.78Z" transform="translate(0 -12.19)"/><path class="cls-14" d="M288.38,159.68a.46.46,0,0,0,.32-.78l-4.1-4.1a.45.45,0,1,0-.64.64l4.1,4.1A.45.45,0,0,0,288.38,159.68Z" transform="translate(0 -12.19)"/><rect class="cls-8" x="285.13" y="129.69" width="2.39" height="6.24" rx="1.2" transform="translate(572.66 253.42) rotate(180)"/><rect class="cls-8" x="286.09" y="134.48" width="0.49" height="2.92" rx="0.24" transform="translate(572.66 259.69) rotate(-180)"/><rect class="cls-8" x="283.93" y="136.6" width="4.8" height="1.03" rx="0.51" transform="translate(572.66 262.03) rotate(180)"/><rect class="cls-19" x="100.57" y="144.97" width="47.16" height="26.47" rx="2.05"/><rect class="cls-19" x="221.69" y="103.41" width="47.16" height="26.47" rx="2.05"/><rect class="cls-19" x="221.62" y="145.66" width="47.23" height="2.27" rx="1.08"/><rect class="cls-19" x="221.62" y="136.08" width="47.23" height="2.27" rx="1.08"/><rect class="cls-19" x="221.62" y="155.25" width="47.23" height="2.27" rx="1.08"/><rect class="cls-19" x="100.5" y="123.25" width="47.23" height="2.27" rx="1.08"/><rect class="cls-19" x="100.5" y="113.66" width="47.23" height="2.27" rx="1.08"/><rect class="cls-19" x="100.5" y="132.84" width="47.23" height="2.27" rx="1.08"/><path class="cls-8" d="M94.36,195h186V210.2a1,1,0,0,1-1,1H95.33a1,1,0,0,1-1-1Z" transform="translate(0 -12.19)"/><path class="cls-14" d="M267.06,201v-1.38h1.72v-1.22h-2.33a.61.61,0,0,0-.61.61v2Z" transform="translate(0 -12.19)"/><path class="cls-14" d="M267.06,203.4h-1.22v2.1a.61.61,0,0,0,.61.61h2.33v-1.23h-1.72Z" transform="translate(0 -12.19)"/><path class="cls-14" d="M272.36,201h1.22v-2a.61.61,0,0,0-.61-.61h-2.24v1.22h1.63Z" transform="translate(0 -12.19)"/><path class="cls-14" d="M272.36,203.4v1.48h-1.63v1.23H273a.61.61,0,0,0,.61-.61v-2.1Z" transform="translate(0 -12.19)"/><rect class="cls-19" x="94.36" y="179.71" width="186.03" height="3.05"/><path class="cls-8" d="M107.88,112.45H110V117h2.81v1.63h-4.91Z" transform="translate(0 -12.19)"/><path class="cls-8" d="M113.37,112.45h2.09v6.22h-2.09Z" transform="translate(0 -12.19)"/><path class="cls-8" d="M123.13,112.45l-2.63,6.22h-2.07l-2.63-6.22h2.26l1.49,3.63,1.52-3.63Z" transform="translate(0 -12.19)"/><path class="cls-8" d="M128.51,117.09v1.58h-5.18v-6.22h5.06V114h-3v.73H128v1.51H125.4v.82Z" transform="translate(0 -12.19)"/><path class="cls-17" d="M104.42,115.51a2.56,2.56,0,1,1-2.56-2.56A2.56,2.56,0,0,1,104.42,115.51Z" transform="translate(0 -12.19)"/><path class="cls-8" d="M32.29,202.87c11.76-.56,22.29-4.31,29.1-3s6.7-16.31-.13-21.55c-5.08-3.89,2.41-11.67,2.35-17.94a12.13,12.13,0,0,0-3.15-11.89c-5.19-5.08-10.52-5.29-15.88-2.65-3.52,1.26-6.94,4.67-8,13.31C34.79,174,28.79,171.74,19.71,184,14.4,191.2,20.53,203.44,32.29,202.87Z" transform="translate(0 -12.19)"/><path class="cls-20" d="M64,182.74l1.68,2.35,1.65,2.35c1.1,1.57,2.18,3.14,3.26,4.72,2.16,3.17,4.29,6.36,6.37,9.65,1,1.65,2,3.32,3,5.07.49.87,1,1.76,1.47,2.72.24.48.48,1,.72,1.51a16.74,16.74,0,0,1,.71,1.81l0,.07,0,.07,0,.15.09.29.09.35a2.71,2.71,0,0,1,.07.32c0,.17.07.36.11.57s.06.43.09.71a6.44,6.44,0,0,1,0,1v.38l0,.21,0,.25a6,6,0,0,1-.42,1.41c-.08.17-.14.31-.25.5l-.17.27-.09.15-.11.15-.23.29c-.09.11-.19.21-.29.31l-.15.15-.17.15-.36.29a7,7,0,0,1-.83.49l-.44.19a3.73,3.73,0,0,1-.44.14l-.21.06-.21.05-.41.06-.19,0h-1l-.14,0L77,222l-.24,0-.21,0-.19-.05-.34-.11a6.69,6.69,0,0,1-.92-.4l-.31-.18-.13-.08-.12-.08-.11-.08-.1-.07-.19-.13a6.73,6.73,0,0,1-.58-.48c-.33-.29-.58-.54-.81-.78-.46-.48-.84-.91-1.2-1.34-.7-.85-1.33-1.67-1.93-2.49l-.89-1.23-.43-.62-.45-.65a5.17,5.17,0,0,1,8.51-5.88l.06.09.36.52.38.54.78,1.06c.53.7,1.06,1.39,1.57,2,.25.3.5.57.7.78a1.59,1.59,0,0,0,.21.2l0,0-.05,0-.07-.05,0,0-.06,0-.16-.09a4.17,4.17,0,0,0-.59-.26l-.25-.08-.15,0-.17,0-.19,0-.21,0h-1l-.18,0-.36.05-.18,0-.2.06a2.23,2.23,0,0,0-.39.13,2.83,2.83,0,0,0-.4.17,4.33,4.33,0,0,0-.75.44,2.91,2.91,0,0,0-.33.26l-.16.14-.13.13a3.45,3.45,0,0,0-.26.28c-.07.09-.14.17-.2.26l-.1.13-.08.13a1.76,1.76,0,0,0-.14.23,3.27,3.27,0,0,0-.21.42,4.84,4.84,0,0,0-.33,1.07s0,.11,0,.16v.33c0,.22,0,.29,0,.33h0a.86.86,0,0,1,0-.13s0,0,0,0h0s0,0,0,0v0h0v0a8.18,8.18,0,0,0-.33-.83q-.23-.5-.51-1.05c-.37-.73-.8-1.5-1.23-2.27-.89-1.54-1.84-3.1-2.83-4.66-2-3.11-4-6.22-6.16-9.31q-1.59-2.31-3.21-4.61l-1.62-2.3-1.63-2.26,0-.05A5.25,5.25,0,0,1,64,182.73Z" transform="translate(0 -12.19)"/><path class="cls-6" d="M64.55,231.24a4.32,4.32,0,0,1-.19,2.89c-.56.84-5.08,1.72-10.79,2.27l-1.08.1c-1.21.1-2.45.2-3.72.27l-.89,0c-9.63.49-20-.08-20.64-3-1.19-5.73,2.22-14.4,1.43-23.34-.31-3.6-3.33-10.7-3.6-15.17-.42-6.8-.54-13.18.42-14.79.67-1.12,3.58-2.12,6.71-2.88,1-.24,2-.46,2.91-.65,3.26-.66,6.07-1,6.07-1a88.8,88.8,0,0,1,14,1.88,21.87,21.87,0,0,1,2.79.9l.34.16,1.09.52c5.42,2.61,4.68,3.11,4.26,6.32-.61,4.73-1.11,4.44.15,8.56l.33,1.09c.31,1,.7,2.15,1.17,3.62a13.37,13.37,0,0,1,.67,3.14c0,.17,0,.34,0,.49,0,4.91-4.95,4.51-4.95,10.7a44.93,44.93,0,0,0,1.74,11c0,.16.08.32.13.48.51,1.93,1,3.7,1.33,5.18C64.4,230.43,64.49,230.85,64.55,231.24Z" transform="translate(0 -12.19)"/><path class="cls-5" d="M51.9,229.06a18.36,18.36,0,0,1-5.59-.95,23.93,23.93,0,0,1-5.09-2.34.23.23,0,0,1-.07-.34.25.25,0,0,1,.34-.07c.08,0,8.26,5.29,15.12,2.27a.24.24,0,0,1,.32.13.24.24,0,0,1-.12.32A12.16,12.16,0,0,1,51.9,229.06Z" transform="translate(0 -12.19)"/><path class="cls-20" d="M25.07,195.26c-.42-6.8-.54-13.18.42-14.79.67-1.12,3.58-2.12,6.71-2.88C39,187,32,199.93,25.07,195.26Z" transform="translate(0 -12.19)"/><path class="cls-20" d="M63.86,194.24c-3.69-4.14-4.34-11.19-4.41-14.88,5.42,2.61,4.68,3.11,4.26,6.32C63.1,190.41,62.6,190.12,63.86,194.24Z" transform="translate(0 -12.19)"/><path class="cls-20" d="M55.23,177.78c-.62,3.36-1.17,9.67-6.46,9.67s-11.91-8.36-13.66-10.51a43.35,43.35,0,0,0,6.36-1.88S49.55,176.33,55.23,177.78Z" transform="translate(0 -12.19)"/><path class="cls-5" d="M52.46,221.86h-.22a4.08,4.08,0,0,1-3-1.37c-2-2.22-1.72-6.32-1.71-6.49a.23.23,0,0,1,.17-.21c2.35-.83,9.67,2.07,10,2.19a.26.26,0,0,1,.16.24C57.79,216.28,57.49,221.86,52.46,221.86ZM48,214.21c0,.78,0,4.13,1.59,5.95a3.63,3.63,0,0,0,2.69,1.21,4.35,4.35,0,0,0,4.33-2.51,7.41,7.41,0,0,0,.71-2.48C56.2,216,50.13,213.67,48,214.21Z" transform="translate(0 -12.19)"/><path class="cls-5" d="M64.3,230a5.21,5.21,0,0,1-.88,2.52,1.61,1.61,0,0,1-1.5.82c-.76-.12-1.46-1-2-2.54-.63-2-.57-3.49.19-4.53A4.06,4.06,0,0,1,63,224.8c0-.16-.09-.32-.13-.48A4.5,4.5,0,0,0,59.76,226c-.86,1.18-.94,2.85-.25,5,.54,1.7,1.38,2.72,2.34,2.87a1,1,0,0,0,.25,0,2.19,2.19,0,0,0,1.72-1,5,5,0,0,0,.73-1.55C64.49,230.85,64.4,230.43,64.3,230Z" transform="translate(0 -12.19)"/><path class="cls-5" d="M55.25,232.77c-.39-1-1.54-1.56-3.39-1.83-5.34-.76-6.23,3-6.23,3.08a.2.2,0,0,0,0,.17,8,8,0,0,0,2.23,2.63l.89,0A6.48,6.48,0,0,1,46.13,234c.16-.52,1.21-3.23,5.66-2.6,1.67.24,2.68.75,3,1.53a2.33,2.33,0,0,1-.38,2,8,8,0,0,1-1.93,1.52l1.08-.1a8.88,8.88,0,0,0,1.23-1.1v0A2.81,2.81,0,0,0,55.25,232.77Z" transform="translate(0 -12.19)"/><path class="cls-4" d="M67.71,239.4a160.92,160.92,0,0,1,1.92-16.5,88,88,0,0,0-10.55,5h0c-2,1.2-3.78,2.26-5.09,3a11.37,11.37,0,0,1-7,.89,34.48,34.48,0,0,1-9.54-3.08s-15.68-7.1-18.62-6.87c-2.29.19,10,13,20.19,18.29a18.39,18.39,0,0,0,5,2.26c10,3.17,19.31.31,23.67-1.48C67.68,240.4,67.69,239.9,67.71,239.4Z" transform="translate(0 -12.19)"/><polygon class="cls-20" points="96.25 251.32 97.58 259.73 105.45 260.28 104.63 249.94 96.25 251.32"/><path class="cls-12" d="M123.81,284.24l-28.15,0a4,4,0,0,1-.37-1.57c-.17-2.38.59-6.18,1-8.57,0-.28.09-.55.12-.78a8.62,8.62,0,0,0,.08-1,1.43,1.43,0,0,1,1.73-1.62c2.85,2.8,6.08-1.39,8,0,0,0,.81.58,3,2.59s6,3.34,9.26,4.7c4.18,1.75,5.36,3.5,5.59,4.7A2.21,2.21,0,0,1,123.81,284.24Z" transform="translate(0 -12.19)"/><path class="cls-21" d="M123.81,284.24l-28.15,0a4,4,0,0,1-.37-1.57l28.75,0A2.21,2.21,0,0,1,123.81,284.24Z" transform="translate(0 -12.19)"/><path class="cls-14" d="M106.56,271.88s.51-1.23,1.62-.83,1,2.23,1,2.23S108.51,275,106.56,271.88Z" transform="translate(0 -12.19)"/><path class="cls-14" d="M106.21,277.42a.47.47,0,0,1-.46-.47,5.89,5.89,0,0,1,1.83-4.37.46.46,0,0,1,.65.06.47.47,0,0,1,0,.65,4.92,4.92,0,0,0-1.5,3.66A.47.47,0,0,1,106.21,277.42Z" transform="translate(0 -12.19)"/><path class="cls-14" d="M112.06,273.78a.46.46,0,0,1-.3-.12c-.59-.52-2.32-.62-3.27-.56a.47.47,0,0,1-.06-.93c.29,0,2.88-.15,3.94.8a.45.45,0,0,1,0,.65A.48.48,0,0,1,112.06,273.78Z" transform="translate(0 -12.19)"/><path class="cls-14" d="M108.23,272l-.26-.25c-.15-.13-.35-.31-.59-.5l-.14-.12a10.25,10.25,0,0,0-1.89-1.22,4,4,0,0,0-1.68-.45h0a2,2,0,0,0-1.45.62,1.45,1.45,0,0,0-.37,1.42l0,.09a2.14,2.14,0,0,0,.68.91,4.64,4.64,0,0,0,2.21.86,17.66,17.66,0,0,0,2.06.17H107c.45,0,.74,0,.89,0l.1,0-.19-1v0h0l.24-.24Zm-2.78.43-.58-.07c-1.23-.17-1.93-.68-2.08-1.11l0-.09a.44.44,0,0,1,.15-.38.94.94,0,0,1,.74-.31h0a2.16,2.16,0,0,1,.65.11,5.09,5.09,0,0,1,1.07.49,10.66,10.66,0,0,1,1.18.82h0c.29.23.55.45.75.63H107A15.08,15.08,0,0,1,105.45,272.4Z" transform="translate(0 -12.19)"/><path class="cls-14" d="M108.74,273l-.42-.9a3.11,3.11,0,0,0,1.75-2.29c0-.17-.08-.38-.52-.5a.54.54,0,0,0-.55.06c-.49.37-.64,1.64-.62,2.35l-1,0c0-.24,0-2.37,1-3.18a1.58,1.58,0,0,1,1.45-.23,1.53,1.53,0,0,1,1.24,1.39C111.17,271,109.93,272.44,108.74,273Z" transform="translate(0 -12.19)"/><path class="cls-21" d="M98.53,284.22H97.7a6.23,6.23,0,0,0,1.51-4.51,7.89,7.89,0,0,0-3-5.63c0-.28.09-.55.12-.78a8.6,8.6,0,0,1,3.51,6.38A6.82,6.82,0,0,1,98.53,284.22Z" transform="translate(0 -12.19)"/><path class="cls-14" d="M108.71,274.94a.46.46,0,0,1-.11-.91l1.76-.44a.47.47,0,0,1,.56.34.46.46,0,0,1-.34.56l-1.76.44Z" transform="translate(0 -12.19)"/><path class="cls-14" d="M110.46,276a.5.5,0,0,1-.45-.36.47.47,0,0,1,.34-.56l1.76-.43a.46.46,0,0,1,.56.33.47.47,0,0,1-.33.57l-1.76.43Z" transform="translate(0 -12.19)"/><path class="cls-14" d="M112.22,277a.46.46,0,0,1-.45-.35.48.48,0,0,1,.34-.57l1.76-.43a.46.46,0,0,1,.22.9l-1.76.44Z" transform="translate(0 -12.19)"/><path class="cls-14" d="M114.14,277.86A.46.46,0,0,1,114,277l1.76-.44a.46.46,0,1,1,.22.9l-1.76.44Z" transform="translate(0 -12.19)"/><path class="cls-14" d="M116.22,278.64a.47.47,0,0,1-.11-.92l1.76-.43a.46.46,0,0,1,.22.9l-1.76.43Z" transform="translate(0 -12.19)"/><path class="cls-4" d="M56.21,229.62c9.52-5,26.23-15.08,33.27-16.5,12.27-2.49,16.27,52.3,16.27,52.3l-9.85,1s-9.21-23.61-10-32.72c0,0-12.81,12.32-38.77,12.83Z" transform="translate(0 -12.19)"/><path class="cls-22" d="M94.65,263.9a5.11,5.11,0,0,0,1.43,3l10.21-1a7.93,7.93,0,0,0-.29-3.27Z" transform="translate(0 -12.19)"/><path class="cls-22" d="M96.87,264.19a.29.29,0,0,1-.28-.21c0-.08-2.49-8.16-4.8-15.28-2-6.28-4.2-17.89-4.7-20.68a36.41,36.41,0,0,1-9.58,7.83,60.73,60.73,0,0,1-11.3,5.06,76.8,76.8,0,0,1-13.12,3.19.29.29,0,0,1-.32-.25.28.28,0,0,1,.25-.32,76.8,76.8,0,0,0,13-3.17c6.53-2.21,15.47-6.29,21-13.19a.28.28,0,0,1,.5.13c0,.14,2.49,14.13,4.8,21.23s4.78,15.2,4.8,15.29a.27.27,0,0,1-.19.35Z" transform="translate(0 -12.19)"/><path class="cls-20" d="M51.55,179.08c-5.43,7.3-12-1.43-11.87-3.38a33.7,33.7,0,0,0,2.88-10.12L53,171.41l-.24,1a44.79,44.79,0,0,0-1,4.65A16.69,16.69,0,0,0,51.55,179.08Z" transform="translate(0 -12.19)"/><path class="cls-8" d="M51.76,177c-5.61-2.28-8.39-8.92-8.39-8.92l9.39,4.27A44.79,44.79,0,0,0,51.76,177Z" transform="translate(0 -12.19)"/><path class="cls-23" d="M56.82,163.58s1.3-2.6,3.43-1.61,1,8.39-3.19,7.48Z" transform="translate(0 -12.19)"/><path class="cls-14" d="M53.48,171a3.74,3.74,0,1,1,3.62,3.87A3.74,3.74,0,0,1,53.48,171Zm.55,0a3.19,3.19,0,1,0,3.29-3.08A3.2,3.2,0,0,0,54,171Z" transform="translate(0 -12.19)"/><path class="cls-20" d="M42.27,166.44c.7,3.14,7.88,7.75,11.26,6.76,2-.6,4-2.13,5.56-5.94a.14.14,0,0,1,0-.06c.09-.23.18-.45.26-.67.15-.4.28-.79.4-1.17a2.58,2.58,0,0,1,.08-.26c.07-.23.13-.46.18-.68s.13-.53.17-.77c.71-4,1.59-8.37-1.66-11.38s-8.8-4.52-12.57-1.45c0,0-2.86,2.74-3.6,8.48S41.76,164.17,42.27,166.44Z" transform="translate(0 -12.19)"/><path class="cls-8" d="M49.12,150.56s-2.74,5.94-4.72,6.92-3.08-2.25-3.08-2.25S46.3,146.25,49.12,150.56Z" transform="translate(0 -12.19)"/><path class="cls-8" d="M56.81,151.84s-4.21,4.62-8.5,2.82-.79-5.1-.79-5.1S56.26,147.29,56.81,151.84Z" transform="translate(0 -12.19)"/><path class="cls-8" d="M55.68,151.25s1.3,6.93,5.82,6.38-.74-7.91-3.69-8S55.68,151.25,55.68,151.25Z" transform="translate(0 -12.19)"/><path class="cls-23" d="M51.62,169l.17,0a.23.23,0,1,0,0-.45,1.44,1.44,0,0,1-1.2-.78.23.23,0,0,0-.3-.11.23.23,0,0,0-.11.3A1.86,1.86,0,0,0,51.62,169Z" transform="translate(0 -12.19)"/><path class="cls-24" d="M53.52,168a3.85,3.85,0,0,0,.49,0,.23.23,0,1,0,0-.45,2.81,2.81,0,0,1-2.9-2.72.23.23,0,0,0-.24-.21.22.22,0,0,0-.21.24A3.18,3.18,0,0,0,53.52,168Z" transform="translate(0 -12.19)"/><path class="cls-8" d="M53.83,165.44a1.68,1.68,0,0,1-.43-.07.27.27,0,0,1,.15-.52,1.63,1.63,0,0,0,1.27-.18,12.73,12.73,0,0,1-.6-4.3.28.28,0,0,1,.27-.27.26.26,0,0,1,.27.27c0,.9.07,3.42.63,4.22a.26.26,0,0,1,0,.35A2.14,2.14,0,0,1,53.83,165.44Z" transform="translate(0 -12.19)"/><path class="cls-23" d="M59.11,167.2c.09-.23.18-.45.26-.67.15-.4.28-.79.4-1.17a2.58,2.58,0,0,1,.08-.26l-.2,0c-1.48-.28-2.78,0-2.89.58S57.69,166.9,59.11,167.2Z" transform="translate(0 -12.19)"/><path class="cls-23" d="M45.26,163.23c-.12.6,1,1.31,2.48,1.59s2.77,0,2.88-.58-1-1.3-2.48-1.58S45.37,162.64,45.26,163.23Z" transform="translate(0 -12.19)"/><path class="cls-14" d="M50.24,165.08a3.65,3.65,0,1,1,3.9-3.39A3.66,3.66,0,0,1,50.24,165.08Zm.47-6.74a3.11,3.11,0,1,0,2.89,3.31A3.12,3.12,0,0,0,50.71,158.34Z" transform="translate(0 -12.19)"/><path class="cls-14" d="M58.5,166.73a3.65,3.65,0,1,1,3.89-3.39A3.65,3.65,0,0,1,58.5,166.73ZM59,160a3.11,3.11,0,1,0,2.89,3.32A3.11,3.11,0,0,0,59,160Z" transform="translate(0 -12.19)"/><path class="cls-14" d="M55.18,162.75a.9.9,0,0,0-1.22-.29L53.7,162a1.42,1.42,0,0,1,1.93.48Z" transform="translate(0 -12.19)"/><path class="cls-14" d="M47.28,160.09a.36.36,0,0,1-.28-.15s-.56-.61-3.09-1.2a.36.36,0,1,1,.17-.7c2.9.68,3.45,1.37,3.53,1.51a.36.36,0,0,1-.12.49A.33.33,0,0,1,47.28,160.09Z" transform="translate(0 -12.19)"/><path class="cls-14" d="M62.11,163.59a.44.44,0,0,1-.16-.06,3.23,3.23,0,0,0-1.39-.5.27.27,0,0,1,.07-.54,4,4,0,0,1,1.67.62.27.27,0,0,1-.19.48Z" transform="translate(0 -12.19)"/><path class="cls-8" d="M53.36,156.72a3.09,3.09,0,0,0-2.61-1.23c-.93.07-1,1,.09,1.15a3.41,3.41,0,0,1,1.74.69A.5.5,0,0,0,53.36,156.72Z" transform="translate(0 -12.19)"/><path class="cls-8" d="M57.44,157.65a3.1,3.1,0,0,1,2.88-.12c.83.43.5,1.28-.53,1a3.42,3.42,0,0,0-1.88,0A.5.5,0,0,1,57.44,157.65Z" transform="translate(0 -12.19)"/><path class="cls-20" d="M43.92,158.82a3,3,0,0,0-3.44-1.89c-2.5.63-2.82,8.89,1.92,8.76Z" transform="translate(0 -12.19)"/><path class="cls-14" d="M39.26,163.67c.11.17.16.34.27.52a3.19,3.19,0,1,0,2,.44c-.65-.31-.71-.61-.68-.89a3.74,3.74,0,1,1-4.71,3.49A3.82,3.82,0,0,1,39.26,163.67Z" transform="translate(0 -12.19)"/><path class="cls-8" d="M42.32,162.43a.22.22,0,0,1-.21.24,0,0,0,0,1,0,0,.21.21,0,0,1-.19-.2,4.41,4.41,0,0,0-.51-1.6c-.51.33-.93.64-.94.64a.25.25,0,0,1-.16.05.24.24,0,0,1-.15-.09.22.22,0,0,1,0-.31,10.79,10.79,0,0,1,1-.66,2.8,2.8,0,0,0-1.25-1,.22.22,0,0,1,.16-.42C42.08,159.88,42.31,162.33,42.32,162.43Z" transform="translate(0 -12.19)"/><path class="cls-8" d="M51,161.28c-.1.53.06,1,.36,1.07s.64-.32.75-.85-.06-1-.36-1.08S51.11,160.74,51,161.28Z" transform="translate(0 -12.19)"/><path class="cls-8" d="M56.94,162.59c-.1.54.06,1,.36,1.08s.64-.32.75-.86-.06-1-.36-1.07S57.05,162.06,56.94,162.59Z" transform="translate(0 -12.19)"/><path class="cls-10" d="M72.64,230.62l-43.56,4.69a.18.18,0,0,1-.2-.16h0a2.47,2.47,0,0,1,2.19-2.71L72.35,228a.18.18,0,0,1,.2.15l.24,2.28A.18.18,0,0,1,72.64,230.62Z" transform="translate(0 -12.19)"/><path class="cls-8" d="M84.59,205l-3,23.58a1.37,1.37,0,0,1-1.21,1.19l-33.49,3.6a1.36,1.36,0,0,1-1.5-1.53l3-23.58a1.35,1.35,0,0,1,1.21-1.18l33.49-3.61A1.37,1.37,0,0,1,84.59,205Z" transform="translate(0 -12.19)"/><path class="cls-10" d="M62.83,218.84c.26,2.06,4,4.27,4,4.27s3.78-3,4-5.14c.3-2.29-2.33-2.7-4-.81C65.17,215.63,62.54,216.61,62.83,218.84Z" transform="translate(0 -12.19)"/><path class="cls-10" d="M50.92,206.92l-3,26.34-1,.1a1.36,1.36,0,0,1-1.5-1.53l3-23.58a1.35,1.35,0,0,1,1.21-1.18Z" transform="translate(0 -12.19)"/><path class="cls-20" d="M64.87,250s-3.58-.57-4.69-1.74l-2.33,7.44,8.55,1.76S66.3,251.14,64.87,250Z" transform="translate(0 -12.19)"/><path class="cls-12" d="M85.74,268.14,74.68,243.6a3.51,3.51,0,0,0-1.51.29c-2.15.78-5.16,2.93-7.11,4.2-.22.15-.44.29-.63.4a6.31,6.31,0,0,1-.82.46c-1.71.77-.83,1.32-.83,1.32,3.56,1.39,1.27,6.67,3.2,7.78,0,0,.83.47,3.46,1.63s5.28,4,7.74,6.25c3.16,2.95,5.15,3.3,6.28,3A2.08,2.08,0,0,0,85.74,268.14Z" transform="translate(0 -12.19)"/><path class="cls-14" d="M66.38,256.66a1.21,1.21,0,0,0-.43,1.58c.56.9,2.15.46,2.15.46S69.44,257.79,66.38,256.66Z" transform="translate(0 -12.19)"/><path class="cls-14" d="M71.16,255.31a.41.41,0,0,0-.49-.31,5.31,5.31,0,0,0-3.49,2.42.42.42,0,0,0,.74.39,4.45,4.45,0,0,1,2.92-2A.42.42,0,0,0,71.16,255.31Z" transform="translate(0 -12.19)"/><path class="cls-14" d="M69.08,261.13a.42.42,0,0,0-.16-.25,5.2,5.2,0,0,1-1.11-2.76.42.42,0,0,0-.47-.35.41.41,0,0,0-.35.47c0,.26.4,2.55,1.43,3.31a.42.42,0,0,0,.66-.42Z" transform="translate(0 -12.19)"/><path class="cls-14" d="M66.94,257.85l.17-.25v0H68a.58.58,0,0,0,0-.1,5.15,5.15,0,0,0-.12-.79.94.94,0,0,0,0-.16,14.94,14.94,0,0,0-.54-1.77A4,4,0,0,0,66.13,253a1.79,1.79,0,0,0-.92-.42h-.09a1.29,1.29,0,0,0-1.17.59,1.78,1.78,0,0,0-.27,1.39,0,0,0,0,1,0,0,3.65,3.65,0,0,0,.7,1.39,9.11,9.11,0,0,0,1.43,1.42l.13.11.56.41.26.19Zm.06-.94c0,.12,0,.21.06.3-.2-.14-.44-.32-.7-.53h0a9.54,9.54,0,0,1-.93-.88,4.85,4.85,0,0,1-.64-.85,2.11,2.11,0,0,1-.22-.55v0a.84.84,0,0,1,.13-.71.37.37,0,0,1,.31-.19h.08c.41.05,1,.57,1.37,1.62l.17.49C66.81,256.15,66.93,256.59,67,256.91Z" transform="translate(0 -12.19)"/><path class="cls-14" d="M67.77,258.37l-.88-.21c-.21.89-1,1.89-1.67,2-.15,0-.35,0-.54-.36a.49.49,0,0,1-.05-.5c.24-.49,1.32-.87,2-1l-.17-.89c-.21,0-2.08.42-2.59,1.48A1.55,1.55,0,0,0,65.33,261,3.58,3.58,0,0,0,67.77,258.37Z" transform="translate(0 -12.19)"/><path class="cls-21" d="M85.74,268.14,74.68,243.6a3.51,3.51,0,0,0-1.51.29L84.46,269A2.08,2.08,0,0,0,85.74,268.14Z" transform="translate(0 -12.19)"/><path class="cls-21" d="M75.81,246.1l-.33-.73a6,6,0,0,1-3.34,3.09,7.57,7.57,0,0,1-6.08-.37c-.22.15-.44.29-.63.4a8.24,8.24,0,0,0,6.94.57A6.57,6.57,0,0,0,75.81,246.1Z" transform="translate(0 -12.19)"/><path class="cls-14" d="M71.7,258.62a.43.43,0,0,0-.48-.26.46.46,0,0,0-.36.52l.31,1.7a.46.46,0,0,0,.52.36.44.44,0,0,0,.35-.52l-.31-1.7A.17.17,0,0,0,71.7,258.62Z" transform="translate(0 -12.19)"/><path class="cls-14" d="M69.74,257.67a.46.46,0,0,0-.48-.26.44.44,0,0,0-.36.52l.31,1.7a.44.44,0,0,0,.51.36.43.43,0,0,0,.36-.52l-.31-1.7Z" transform="translate(0 -12.19)"/><path class="cls-14" d="M73.28,259.75a.45.45,0,0,0-.48-.26.46.46,0,0,0-.36.52l.31,1.7a.45.45,0,0,0,.88-.15l-.31-1.71A.3.3,0,0,0,73.28,259.75Z" transform="translate(0 -12.19)"/><path class="cls-14" d="M74.83,260.89a.44.44,0,0,0-.48-.25.45.45,0,0,0-.36.52l.31,1.7a.46.46,0,0,0,.52.36.44.44,0,0,0,.35-.52l-.31-1.7A.23.23,0,0,0,74.83,260.89Z" transform="translate(0 -12.19)"/><path class="cls-14" d="M76.38,262.21a.44.44,0,0,0-.49-.25.43.43,0,0,0-.35.51l.31,1.71a.43.43,0,0,0,.51.35.44.44,0,0,0,.36-.51l-.31-1.71Z" transform="translate(0 -12.19)"/><path class="cls-14" d="M77.87,263.72A.44.44,0,0,0,77,264l.31,1.71a.44.44,0,0,0,.52.35.43.43,0,0,0,.35-.51l-.31-1.71A.19.19,0,0,0,77.87,263.72Z" transform="translate(0 -12.19)"/><path class="cls-4" d="M18.79,221.84s-9.93-5.35-15.68-1.21c-10.51,7.57,7.33,22.13,27.73,29.24s27,6.15,27,6.15,4.43-1.22,2.86-8.41c0,0-11.76-4.47-17.88-9.15S32.56,228,18.79,221.84Z" transform="translate(0 -12.19)"/><path class="cls-22" d="M55.43,245.82a.28.28,0,0,1-.15,0c-.1-.06-10.23-5.76-14.41-9.19-3.36-2.76-10.73-7.93-10.8-8a.29.29,0,1,1,.33-.47c.07.05,7.46,5.24,10.84,8,4.14,3.4,14.22,9.07,14.33,9.13a.3.3,0,0,1,.11.39A.31.31,0,0,1,55.43,245.82Z" transform="translate(0 -12.19)"/><path class="cls-22" d="M59.94,249.7c-4.28-1-13-5-23.33-10.7-7.72-4.24-16.63-9.66-17.94-11.54-.7-1-.88-1.85-.53-2.47.53-.93,2.06-1,2.76-1a.31.31,0,0,1,.31.33h0a.31.31,0,0,1-.31.29c-.69,0-1.88.11-2.22.71s.12,1.25.5,1.81c1.05,1.51,8.51,6.29,17.73,11.35,7.94,4.36,18.19,9.44,23.17,10.64Z" transform="translate(0 -12.19)"/><path class="cls-22" d="M59.13,246.66c-.48,3.77-1.46,7.21-3.59,9.84a3.54,3.54,0,0,0,3.49.37c1.28-.72,3.73-6.62,2.8-9.77A3,3,0,0,0,59.13,246.66Z" transform="translate(0 -12.19)"/><path class="cls-20" d="M13.31,217.39v.2l0,.22,0,.43.06.46,0,.23c0,.08,0,.17,0,.25l.1.51,0,.1,0,.16a2.12,2.12,0,0,0,.09.31,2.64,2.64,0,0,0,.1.3c0,.09.06.18.1.27l.12.27.06.13.06.12c.07.15.16.3.24.44l.13.2.12.18c.08.12.18.25.25.34l.24.29.06.07.05.06.11.11.22.23.2.19.39.32a8.37,8.37,0,0,0,1.22.82,9.11,9.11,0,0,0,.94.47c.57.26,1.06.43,1.52.59.91.3,1.73.5,2.52.68s1.54.32,2.29.46c1.49.25,2.94.45,4.38.62s2.85.3,4.27.41c2.83.23,5.64.38,8.45.46,1.39,0,2.77.06,4.16.07.26-3.14.78-6.26,1.16-9.39l-.3-.05-4-.69c-2.68-.47-5.35-.93-8-1.43-1.31-.25-2.62-.5-3.91-.78s-2.55-.55-3.75-.86l-1.25-.33c0-.27.09-.54.14-.82.1-.56.23-1.14.37-1.73s.28-1.19.44-1.8c.65-2.43,1.43-4.93,2.27-7.44s1.72-5,2.63-7.55c.45-1.26.93-2.52,1.39-3.78L34.54,188l0-.07a6.18,6.18,0,0,0-11.39-4.78l-.24.51-.23.49-.44,1c-.29.65-.57,1.3-.85,1.95-.56,1.3-1.08,2.61-1.61,3.93q-1.56,3.94-2.91,8c-.44,1.37-.88,2.74-1.28,4.14s-.78,2.82-1.12,4.28-.65,3-.88,4.57c-.12.8-.22,1.62-.28,2.51A21.2,21.2,0,0,0,13.31,217.39Z" transform="translate(0 -12.19)"/><path class="cls-23" d="M19.21,217.34a.32.32,0,0,0,.21-.08c2.29-2.15,6.08-2.18,6.12-2.18a.3.3,0,0,0,0-.6c-.16,0-4.06,0-6.53,2.34a.29.29,0,0,0,0,.42A.28.28,0,0,0,19.21,217.34Z" transform="translate(0 -12.19)"/><path class="cls-23" d="M24.41,215.16a.27.27,0,0,0,.25-.15.28.28,0,0,0-.11-.4c-1.5-.86-4.36-.44-4.48-.43a.31.31,0,0,0-.25.34.3.3,0,0,0,.34.25s2.77-.4,4.1.35A.28.28,0,0,0,24.41,215.16Z" transform="translate(0 -12.19)"/><path class="cls-12" d="M158.79,234.53h.91v-1.36l-34.41.05a4.13,4.13,0,0,0,0,8.26l34.41,0v-1.17h-.91Z" transform="translate(0 -12.19)"/><path class="cls-14" d="M159,234.53v5.73l-31.57,0a2.83,2.83,0,0,1-2.79-2.86,2.93,2.93,0,0,1,.81-2,2.75,2.75,0,0,1,2-.84Z" transform="translate(0 -12.19)"/><path class="cls-18" d="M159,236v.88l-30.76,0a.44.44,0,0,1-.43-.44h0a.44.44,0,0,1,.43-.44Z" transform="translate(0 -12.19)"/><path class="cls-18" d="M159,238.14V239l-30.75,0a.44.44,0,0,1-.44-.43h0a.44.44,0,0,1,.44-.43Z" transform="translate(0 -12.19)"/><path class="cls-6" d="M155.72,226.27h.9v-1.36l-34.4.05a4.13,4.13,0,0,0-4.13,4.13,4.14,4.14,0,0,0,4.14,4.13l34.4,0V232h-.91Z" transform="translate(0 -12.19)"/><path class="cls-14" d="M156,226.27V232l-31.57,0a2.83,2.83,0,0,1-2.79-2.86,2.9,2.9,0,0,1,.81-2,2.77,2.77,0,0,1,2-.84Z" transform="translate(0 -12.19)"/><path class="cls-18" d="M156,227.72v.88l-30.75,0a.44.44,0,0,1-.44-.44h0a.44.44,0,0,1,.44-.44Z" transform="translate(0 -12.19)"/><path class="cls-18" d="M156,229.88v.87l-30.76,0a.43.43,0,0,1-.43-.43h0a.44.44,0,0,1,.43-.44Z" transform="translate(0 -12.19)"/><path class="cls-11" d="M161.71,218h.91v-1.36l-34.4.05a4.13,4.13,0,1,0,0,8.26l34.4,0v-1.18h-.91Z" transform="translate(0 -12.19)"/><path class="cls-14" d="M162,218v5.73l-31.57,0a2.83,2.83,0,0,1-2.8-2.86,2.91,2.91,0,0,1,.82-2,2.81,2.81,0,0,1,2-.84Z" transform="translate(0 -12.19)"/><path class="cls-18" d="M162,219.45v.88l-30.75,0a.44.44,0,0,1-.44-.44h0a.44.44,0,0,1,.44-.44Z" transform="translate(0 -12.19)"/><path class="cls-18" d="M162,221.61v.87l-30.75,0a.44.44,0,0,1-.44-.43h0a.44.44,0,0,1,.44-.44Z" transform="translate(0 -12.19)"/><rect class="cls-11" x="128.2" y="195.35" width="2.48" height="18.68" transform="translate(-29.5 9.77) rotate(-8.71)"/><polygon class="cls-20" points="129.25 183.07 126.81 183.45 127.34 181.58 127.62 180.61 128.18 181.45 129.25 183.07"/><rect class="cls-8" x="129.52" y="212.57" width="2.48" height="1.36" transform="translate(-30.79 10.07) rotate(-8.71)"/><path class="cls-25" d="M132.08,214.82l-2.12.33a.18.18,0,0,1-.19-.14l-.14-.91,2.45-.37.14.9A.17.17,0,0,1,132.08,214.82Z" transform="translate(0 -12.19)"/><polygon class="cls-8" points="128.18 181.45 127.34 181.58 127.62 180.61 128.18 181.45"/><rect class="cls-26" x="129.34" y="211.61" width="2.48" height="0.97" transform="translate(-30.6 10.02) rotate(-8.71)"/><path class="cls-26" d="M127.55,196.46l2.1,13.67a.19.19,0,0,0,.21.16h0a.19.19,0,0,0,.16-.22l-2.09-13.67a.21.21,0,0,0-.22-.16h0A.2.2,0,0,0,127.55,196.46Z" transform="translate(0 -12.19)"/><path class="cls-26" d="M128.51,196.31l2.1,13.67a.18.18,0,0,0,.21.16h0a.19.19,0,0,0,.16-.22l-2.09-13.67a.21.21,0,0,0-.22-.16h0A.21.21,0,0,0,128.51,196.31Z" transform="translate(0 -12.19)"/><rect class="cls-6" x="131.23" y="195.36" width="2.48" height="18.68" transform="translate(-0.67 -11.75) rotate(-0.19)"/><polygon class="cls-20" points="133.68 183.16 131.2 183.17 132.01 181.4 132.43 180.48 132.86 181.4 133.68 183.16"/><rect class="cls-8" x="131.26" y="212.67" width="2.48" height="1.36" transform="translate(-0.7 -11.75) rotate(-0.19)"/><path class="cls-25" d="M133.58,215.11h-2.15a.17.17,0,0,1-.16-.17V214h2.47v.91A.17.17,0,0,1,133.58,215.11Z" transform="translate(0 -12.19)"/><polygon class="cls-8" points="132.86 181.4 132.01 181.4 132.43 180.48 132.86 181.4"/><rect class="cls-5" x="131.26" y="211.7" width="2.48" height="0.97" transform="translate(-0.7 -11.75) rotate(-0.19)"/><path class="cls-5" d="M131.82,196.28l.05,13.83a.19.19,0,0,0,.19.19h0a.2.2,0,0,0,.19-.19l-.05-13.83a.18.18,0,0,0-.19-.19h0A.19.19,0,0,0,131.82,196.28Z" transform="translate(0 -12.19)"/><path class="cls-5" d="M132.79,196.27l.05,13.83a.18.18,0,0,0,.19.19h0a.19.19,0,0,0,.19-.19l-.05-13.83a.2.2,0,0,0-.19-.19h0A.2.2,0,0,0,132.79,196.27Z" transform="translate(0 -12.19)"/><rect class="cls-21" x="126.08" y="203.45" width="18.68" height="2.48" transform="translate(-86.28 297.77) rotate(-81.91)"/><polygon class="cls-20" points="137.96 183.42 135.5 183.07 136.56 181.44 137.11 180.59 137.4 181.56 137.96 183.42"/><rect class="cls-8" x="132.96" y="212.58" width="2.48" height="1.36" transform="translate(31.33 -28.95) rotate(8.09)"/><path class="cls-25" d="M135,215.15l-2.12-.3a.16.16,0,0,1-.14-.19l.13-.9,2.45.35-.13.9A.16.16,0,0,1,135,215.15Z" transform="translate(0 -12.19)"/><polygon class="cls-8" points="137.4 181.56 136.56 181.44 137.11 180.59 137.4 181.56"/><rect class="cls-27" x="133.88" y="210.87" width="0.97" height="2.48" transform="matrix(0.14, -0.99, 0.99, 0.14, -94.54, 303.1)"/><path class="cls-27" d="M136,196.26,134,210a.18.18,0,0,0,.16.21h0a.18.18,0,0,0,.21-.16l2-13.69a.2.2,0,0,0-.16-.22h0A.2.2,0,0,0,136,196.26Z" transform="translate(0 -12.19)"/><path class="cls-27" d="M136.94,196.4,135,210.09a.19.19,0,0,0,.16.22h0a.19.19,0,0,0,.21-.16l1.95-13.7a.19.19,0,0,0-.16-.21h0A.19.19,0,0,0,136.94,196.4Z" transform="translate(0 -12.19)"/><polygon class="cls-12" points="139.16 190.75 138.96 192.55 138.88 193.27 137.63 204.48 127.12 204.48 126.01 194.52 125.79 192.55 125.59 190.75 139.16 190.75"/><polygon class="cls-21" points="138.96 192.55 138.88 193.27 126.01 194.52 125.79 192.55 138.96 192.55"/><polygon class="cls-12" points="139.6 192.55 125.17 192.55 124.9 189.91 139.88 189.91 139.6 192.55"/><g class="cls-28"><path class="cls-20" d="M149.78,69.4s-2.71,6.14-7.72,6.07c-4.05-.06-6.7-4.65-7.56-6.41-.21-.42-.32-.68-.32-.68s-.29,0-.71-.16c-1-.27-2.7-.93-3.08-2.33-.54-2,3.36-2.26,3.36-2.26s-1.42-2.11-.65-3.19,3.29-.66,3.29-.66-2.21-2.41-.94-3.69c1.92-1.91,4,1.28,4.21,1.48-.12-.25-2.64-4.7-.59-4.85,1.78-.13,4,2.41,5.31,4.7l.33.58a2.6,2.6,0,0,1,.34-.13c1-.37,4.19-1.26,5.55.64C152.25,60.81,149.78,69.4,149.78,69.4Z" transform="translate(0 -12.19)"/><path class="cls-23" d="M143.84,72.06a.38.38,0,0,1-.37-.12.4.4,0,0,1,0-.55,3.44,3.44,0,0,0,1.3-2.65c0-2.56-2.78-5-2.81-5.07a.39.39,0,0,1,0-.55.38.38,0,0,1,.55,0c.13.11,3.07,2.74,3.07,5.65A4.22,4.22,0,0,1,144,72,.34.34,0,0,1,143.84,72.06Z" transform="translate(0 -12.19)"/><path class="cls-23" d="M143,62a1.21,1.21,0,0,1-.79.89,2.3,2.3,0,0,1-.28.06,3.46,3.46,0,0,1-.71,0,2.93,2.93,0,0,1,.38.51,1.45,1.45,0,0,1,.17.52,1,1,0,0,1-.41.9c-.81.64-2.28.61-3.44.45a4.06,4.06,0,0,1,1.29,2.22,1.22,1.22,0,0,1-.44,1.11,2.34,2.34,0,0,1-1,.38,12.7,12.7,0,0,1-3.25.06c-.21-.42-.32-.68-.32-.68s-.29,0-.71-.16a.37.37,0,0,1,.21,0c1.43.2,3.93.32,4.56-.18a.44.44,0,0,0,.15-.43,4.65,4.65,0,0,0-2.27-2.66.38.38,0,0,1-.17-.48.37.37,0,0,1,.46-.23c.92.25,3.51.75,4.42,0A.24.24,0,0,0,141,64a1.31,1.31,0,0,0-.43-.67,9.39,9.39,0,0,0-2-1.4.37.37,0,0,1-.16-.17.38.38,0,0,1,0-.36.4.4,0,0,1,.53-.16c.12.07.37.2.68.39a8.23,8.23,0,0,0,1.67.5,1.38,1.38,0,0,0,.68,0c.1,0,.22-.1.29-.35a2.44,2.44,0,0,0-.11-1.24.39.39,0,0,1,.14-.41h0a.38.38,0,0,1,.59.2A3.23,3.23,0,0,1,143,62Z" transform="translate(0 -12.19)"/><path class="cls-10" d="M142,54.27A9.82,9.82,0,0,1,143.43,56c.41.64.68,1,.95,1.41,0,0,0,0,0,0L145.07,25a.38.38,0,0,0-.76,0L142,54.27Z" transform="translate(0 -12.19)"/><path class="cls-10" d="M143.89,72.84c-2.91,1-3.3-.41-3.3-.41l.59-7.5.13-.09a1,1,0,0,0,.41-.9,1.45,1.45,0,0,0-.17-.52,3.29,3.29,0,0,0-.23-.33v-.16a3.36,3.36,0,0,0,.55,0,2.3,2.3,0,0,0,.28-.06,1.2,1.2,0,0,0,.62-.49,1.87,1.87,0,0,0,1,.79,1.89,1.89,0,0,0,.36.11Z" transform="translate(0 -12.19)"/><path class="cls-23" d="M149,62.2a12.7,12.7,0,0,1-2.88,1,4.45,4.45,0,0,1-2.3,0,1.94,1.94,0,0,1-1.16-1.12c-.78-1.9.78-3.72,1.77-4.64l.33.58a2.6,2.6,0,0,1,.34-.13c-.84.74-2.35,2.36-1.72,3.9a1.14,1.14,0,0,0,.71.68c1.28.48,3.73-.51,4.56-.94a.39.39,0,0,1,.35.69Z" transform="translate(0 -12.19)"/><path class="cls-17" d="M189.4,64.74h0l0,0,0,.09-.1.21-.23.46q-.12.23-.24.48c-.08.16-.16.32-.25.48-.34.66-.7,1.33-1.07,2-.75,1.31-1.53,2.63-2.38,3.91s-1.7,2.54-2.62,3.76c-.46.6-.92,1.21-1.41,1.8s-1,1.17-1.44,1.75c-1,1.13-2,2.24-3.07,3.29-.26.27-.54.52-.8.78s-.53.52-.81.77c-.55.49-1.1,1-1.66,1.46-1.12,1-2.29,1.84-3.47,2.71s-2.4,1.64-3.66,2.35c-.31.18-.62.37-.94.54l-.95.5-.48.26-.12.06.06,0,.08,0,.34-.13a4.74,4.74,0,0,1,1.57-.29h.52l.15,0,.28.05.22,0,.1,0,.08,0,.14,0,.09,0,0,0h0c.1.06-.11,0-.4-.26a11.35,11.35,0,0,1-1.08-1c-.4-.41-.83-.89-1.27-1.4-.87-1-1.76-2.22-2.63-3.47s-1.73-2.58-2.57-3.94-1.68-2.76-2.49-4.18-1.62-2.87-2.4-4.32q-.6-1.09-1.17-2.19l-1.12-2.11-14.43,5.94L138,76l.24.67.47,1.3c.33.86.66,1.72,1,2.57.7,1.7,1.42,3.4,2.19,5.08s1.59,3.35,2.46,5c.44.83.89,1.66,1.36,2.5s1,1.67,1.48,2.5a60.23,60.23,0,0,0,3.44,5c.66.84,1.36,1.69,2.15,2.55a27.32,27.32,0,0,0,2.71,2.62,19.92,19.92,0,0,0,4,2.6l.31.16.34.14.69.29.76.26.39.12.42.11c.28.08.57.14.86.2s.61.1.93.14l.47.06.5,0c.33,0,.66,0,1,0a13.23,13.23,0,0,0,4.12-.77l.95-.38.23-.11.21-.09.17-.09.68-.35,1.36-.71c.45-.24.89-.5,1.33-.75a60.64,60.64,0,0,0,5.14-3.29c1.64-1.2,3.24-2.44,4.74-3.77s3-2.71,4.35-4.14l1-1.09c.34-.37.66-.75,1-1.12s.65-.74,1-1.13l1-1.14A73.84,73.84,0,0,0,200,81.36c.95-1.7,1.87-3.43,2.68-5.23.41-.89.82-1.8,1.19-2.73.1-.23.19-.47.28-.71s.18-.47.27-.72.19-.49.28-.75l.31-.9Z" transform="translate(0 -12.19)"/><path class="cls-21" d="M146.15,75.53a1.08,1.08,0,1,0,1.24-.88A1.07,1.07,0,0,0,146.15,75.53Z" transform="translate(0 -12.19)"/><path class="cls-21" d="M163.19,99a.46.46,0,0,0,.52-.22,34.93,34.93,0,0,0,2.71-7.53.46.46,0,0,0-.89-.21,34.23,34.23,0,0,1-2.63,7.3.46.46,0,0,0,.18.62Z" transform="translate(0 -12.19)"/><path class="cls-21" d="M166.87,96.53a.49.49,0,0,0,.21,0,.46.46,0,0,0,.35-.55,37.62,37.62,0,0,0-1.18-4.42.47.47,0,0,0-.61-.23.46.46,0,0,0-.23.61,35.4,35.4,0,0,1,1.12,4.24A.45.45,0,0,0,166.87,96.53Z" transform="translate(0 -12.19)"/><path class="cls-21" d="M140.71,83.35a.5.5,0,0,0,.36,0c4.72-2.89,14.7-6.79,14.8-6.83a.46.46,0,1,0-.34-.85c-.1,0-10.15,4-14.94,6.89a.45.45,0,0,0-.15.63A.43.43,0,0,0,140.71,83.35Z" transform="translate(0 -12.19)"/><path class="cls-21" d="M145.16,81a.42.42,0,0,0,.31,0,.46.46,0,0,0,.22-.61l-3.1-6.56a.46.46,0,1,0-.83.39l3.1,6.56A.46.46,0,0,0,145.16,81Z" transform="translate(0 -12.19)"/><path class="cls-8" d="M238.35,170.75q-.15.6-.33,1.17V172c-.16.52-.34,1-.53,1.49-1.73,4.21-15,4.8-28.1,3.31-10.15-1.16-20.17-3.56-24.56-6.51-4.13-2.77,4.72-28.21,4.72-28.21l49.62,10.51S240.25,163.15,238.35,170.75Z" transform="translate(0 -12.19)"/><path class="cls-8" d="M203.89,215.29H179.26c.9-13.62,2.27-28.92,4-45,0-.43.09-.86.13-1.29.15-1.43.3-2.86.46-4.3,0-.39.08-.77.13-1.15l4.77,2.2,1.17.55L208.63,175l-.19,1.65Z" transform="translate(0 -12.19)"/><path class="cls-10" d="M201,215.29h-1.23l5-37.89a.61.61,0,1,1,1.2.16Z" transform="translate(0 -12.19)"/><path class="cls-10" d="M195.18,155.39c-.06.32-1.27,6.54-5.3,10.94a14,14,0,0,1-2.8,2.38,11.88,11.88,0,0,1-2.59,1.25c-.42.14-.84.26-1.27.36,0-.43.09-.86.13-1.29a6.13,6.13,0,0,0,.61-.18,10.73,10.73,0,0,0,2.47-1.17,12.64,12.64,0,0,0,2.28-1.9c4-4.18,5.26-10.54,5.27-10.61a.61.61,0,1,1,1.2.22Z" transform="translate(0 -12.19)"/><path class="cls-10" d="M205.18,174.12a.48.48,0,0,0,.47.51h0a.49.49,0,0,0,.53-.46c.09-1.83.2-3.71.33-5.59l.06-1c.41-6.14.93-12.16,1.32-16.41,0-.34.06-.68.09-1,.09-.93.17-1.76.24-2.46l-1-.16c-.06.7-.14,1.53-.23,2.48l-.09,1c-.39,4.22-.91,10.19-1.32,16.28,0,.34,0,.68-.07,1C205.39,170.27,205.27,172.22,205.18,174.12Z" transform="translate(0 -12.19)"/><path class="cls-10" d="M203.74,167.64a12.41,12.41,0,0,0,1.77.68,9.93,9.93,0,0,0,1,.26,7.64,7.64,0,0,0,1,.13,3.53,3.53,0,0,0,1.7-.27,2.07,2.07,0,0,0,1.16-1.54c.37-1.9,1.16-9.71,1.69-15.24,0-.34.07-.67.1-1,.08-.88.16-1.69.22-2.37l-1-.13c-.06.69-.14,1.5-.22,2.4,0,.32-.07.65-.1,1-.53,5.51-1.32,13.32-1.68,15.15a1.09,1.09,0,0,1-.61.85,3.61,3.61,0,0,1-2.15,0c-.34-.08-.68-.17-1-.28a12,12,0,0,1-1.39-.54.51.51,0,0,0-.68.22A.48.48,0,0,0,203.74,167.64Z" transform="translate(0 -12.19)"/><path class="cls-8" d="M238,171.91V172c0,.39-.08.8-.12,1.21-1.1,11.61-2.8,29.07-4.26,42.11H209.3l.09-46.59A147.24,147.24,0,0,1,223.45,163l1.19-.39c.75-.24,1.5-.48,2.25-.7l1.2-.33c4.48-1.22,8.64-1.82,11-.85,0,0-.36,3.95-.93,10C238.1,171.13,238.06,171.51,238,171.91Z" transform="translate(0 -12.19)"/><path class="cls-10" d="M230.15,215.29c1.4-15.9,3.12-40,3.14-40.28a.61.61,0,0,1,.66-.56.61.61,0,0,1,.56.65c0,.31-1.74,24.27-3.14,40.19Z" transform="translate(0 -12.19)"/><path class="cls-10" d="M238,171.91V172c0,.39-.08.8-.12,1.21a9.87,9.87,0,0,1-5.05-.47c-3.12-1.13-5.56-3.69-7.33-6.23a30.85,30.85,0,0,1-2.07-3.46,28.14,28.14,0,0,1-1.44-3.26.61.61,0,0,1,.37-.77.6.6,0,0,1,.78.37,28.25,28.25,0,0,0,1.48,3.27,27.33,27.33,0,0,0,1.93,3.18c1.65,2.38,3.9,4.74,6.7,5.76A8.64,8.64,0,0,0,238,171.91Z" transform="translate(0 -12.19)"/><path class="cls-14" d="M246.58,116.24c-.08,1.29-.19,2.59-.33,3.88-.67,6.5-3.16,28.23-5.4,34.32a55.17,55.17,0,0,1-26.35,5.07c-1.68-.07-3.35-.21-5-.41-1.45-.18-2.88-.41-4.29-.68C196.05,156.64,188,153,183,148.28c2.35-9.12,5.1-25.65,6.13-32.75.19-1.32.36-2.61.52-3.86s.28-2.42.4-3.59c.13-1.33.25-2.62.35-3.88s.18-2.65.24-3.91.11-2.65.14-3.9c.36-17.08-2.76-25.5-1.93-29.6,1.24-6.16,6.93-6.07,12.12-8,.3-.11.61-.23.91-.36l.59-.27a11.62,11.62,0,0,0,4.75-4l15.24,0a20.6,20.6,0,0,0,3.44,2.14c.21.11.42.22.65.32.54.26,1.14.52,1.8.77A28.44,28.44,0,0,0,234.12,59c6.83,1.1,10.75,8.37,11.47,20.15.36,5.94.75,11.55,1,17,0,.36,0,.72,0,1.08A168.4,168.4,0,0,1,246.58,116.24Z" transform="translate(0 -12.19)"/><polygon class="cls-11" points="204.48 112.69 207.09 119.02 207.09 119.02 208.26 121.87 211.57 129.9 213.18 126.8 213.75 125.71 215.04 123.22 215.61 122.13 216.9 119.64 217.47 118.55 218.76 116.07 218.76 116.06 219.34 114.97 220.55 112.64 220.52 112.38 220.34 110.53 219.92 106.33 219.73 104.47 219.31 100.27 219.13 98.41 218.71 94.21 218.53 92.36 218.1 88.15 217.92 86.3 217.5 82.1 217.31 80.24 216.9 76.04 216.71 74.18 216.29 69.98 216.11 68.13 215.69 63.93 215.5 62.07 215.3 60.05 215.07 57.73 211.86 57.59 211.76 58.32 211.56 59.79 211.5 60.24 211.12 63.12 210.92 64.59 210.47 67.92 210.28 69.4 209.83 72.73 209.63 74.2 209.19 77.53 208.99 79 208.54 82.34 208.35 83.81 207.9 87.14 207.7 88.61 207.26 91.94 207.06 93.42 206.62 96.75 206.42 98.22 205.97 101.55 205.77 103.03 205.33 106.36 205.13 107.83 204.69 111.16 204.49 112.63 204.48 112.69"/><polygon class="cls-26" points="211.5 60.24 213.41 63.62 215.3 60.05 215.07 57.73 211.86 57.59 211.76 58.32 211.56 59.79 211.5 60.24"/><path class="cls-17" d="M246.58,116.24c-.08,1.29-.19,2.59-.33,3.88-.67,6.5-3.16,28.23-5.4,34.32a55.17,55.17,0,0,1-26.35,5.07l-4.64-7.33-4.64,6.24C196.05,156.64,188,153,183,148.28c.85-3.3,1.75-7.58,2.61-12,.2-1.07.41-2.15.61-3.22,1.25-6.82,2.34-13.59,2.91-17.5.19-1.32.36-2.61.52-3.86s.28-2.42.4-3.59c.13-1.33.25-2.62.35-3.88s.18-2.65.24-3.91.11-2.65.14-3.9c.36-17.08-2.76-25.5-1.93-29.6,1.24-6.16,6.93-6.07,12.12-8l.26.13L212.59,109l15.52-51.47.28-.07A28.44,28.44,0,0,0,234.12,59c6.83,1.1,10.75,8.37,11.47,20.15.36,5.94.75,11.55,1,17,0,.36,0,.72,0,1.08A168.4,168.4,0,0,1,246.58,116.24Z" transform="translate(0 -12.19)"/><path class="cls-21" d="M237,156.84a.54.54,0,0,0,.51-.35c7.45-19.83,7.33-57.59,7.33-58a.55.55,0,0,0-.54-.55h0a.55.55,0,0,0-.54.55c0,.38.12,37.94-7.26,57.59a.54.54,0,0,0,.32.7A.63.63,0,0,0,237,156.84Z" transform="translate(0 -12.19)"/><path class="cls-21" d="M199.12,132.21a98.09,98.09,0,0,1-13.47,4c.2-1.07.41-2.15.61-3.22,5.63-1.39,12.16-3.45,12.16-3.45Z" transform="translate(0 -12.19)"/><path class="cls-21" d="M222.08,131.7s11.08,6.66,16.16,8.56l-1.55,2.7s-9.64-4.38-15.91-8.86Z" transform="translate(0 -12.19)"/><path class="cls-21" d="M201.27,58.92a5.39,5.39,0,0,0-6.85,1.9L197,77.24l5.74,3.41L198.8,83l4.35,19.08,9.44,7Z" transform="translate(0 -12.19)"/><path class="cls-21" d="M225.88,57.46s4.18-2.66,7.08,1.31L229.38,77.3l-5.75,3.39L227.51,83l-4.42,19.06L212.59,109Z" transform="translate(0 -12.19)"/><path class="cls-21" d="M209.38,147.1a1.15,1.15,0,1,0,2.29-.19,1.16,1.16,0,0,0-1.24-1A1.14,1.14,0,0,0,209.38,147.1Z" transform="translate(0 -12.19)"/><path class="cls-21" d="M209.86,138.59a1.16,1.16,0,0,0,1.24,1,1.15,1.15,0,1,0-1.24-1Z" transform="translate(0 -12.19)"/><path class="cls-21" d="M210.35,130.07a1.15,1.15,0,1,0,2.29-.19,1.15,1.15,0,0,0-2.29.19Z" transform="translate(0 -12.19)"/><path class="cls-21" d="M210.84,121.56a1.15,1.15,0,1,0,1-1.24A1.14,1.14,0,0,0,210.84,121.56Z" transform="translate(0 -12.19)"/><path class="cls-21" d="M211.32,113.05a1.16,1.16,0,0,0,1.25,1,1.15,1.15,0,1,0-1.25-1Z" transform="translate(0 -12.19)"/><path class="cls-21" d="M191.24,97a.48.48,0,0,1-.8-.36c0-3.75-.14-7.78-.42-12,0-.19,0-.35,0-.46a.49.49,0,1,1,1-.06q0,.16,0,.45c.28,4.26.41,8.31.42,12.08a.46.46,0,0,1-.17.36Z" transform="translate(0 -12.19)"/><path class="cls-8" d="M224.1,36.57a11.86,11.86,0,0,0,4.3-6.41c.73-3.45-2.17-3.45-2.17-3.45s2.37-3.74,1-6.54a5.08,5.08,0,0,0-5.34-2.83s.95-5.58-7.91-5.12-14.14.79-15.58,4.62a3.56,3.56,0,0,0,2.18,4.95S197,24,198.7,26.23a3.76,3.76,0,0,0,3.94,1.6Z" transform="translate(0 -12.19)"/><path class="cls-23" d="M206.19,35s-1.09-4.14-4.46-3.37-4,11.81,2.33,11.77Z" transform="translate(0 -12.19)"/><path class="cls-20" d="M222.12,55.41s.78,1.39-5.39,3.1a13.25,13.25,0,0,1-9.15-1.11,12.58,12.58,0,0,1-1.26-.83,16.76,16.76,0,0,0,0-8.45.7.7,0,0,0-.06-.16l16.08-8Z" transform="translate(0 -12.19)"/><path class="cls-8" d="M220,46.27s-3.87,10.62-12.44,11.13a12.58,12.58,0,0,1-1.26-.83,16.76,16.76,0,0,0,0-8.45Z" transform="translate(0 -12.19)"/><path class="cls-20" d="M213.78,51.81c-6.63,1.23-11.87-1.67-12.45-7.35-.14-1.37-.19-3.35-.19-5.41V39c0-.44,0-.89,0-1.33s0-.64,0-1c0-3.68.18-7,.18-7,1-9.13,10.12-12.44,17.34-8.9S223,35.43,222.9,40.86A10.84,10.84,0,0,1,213.78,51.81Z" transform="translate(0 -12.19)"/><path class="cls-14" d="M212.47,41s-.93,3-3.41,3.52c-2.82.56-3.46-3-3.46-3Z" transform="translate(0 -12.19)"/><path class="cls-8" d="M214.26,32c1.87.4,2.4-1.61.71-2.65a5,5,0,0,0-2.49-.9c-2.47,0-2.54,1.73-1.31,2.44A13.94,13.94,0,0,0,214.26,32Z" transform="translate(0 -12.19)"/><path class="cls-8" d="M203.61,31c-1.91.17-2.19-1.89-.39-2.72a5,5,0,0,1,2.58-.58c2.45.28,2.32,2,1,2.57A13.49,13.49,0,0,1,203.61,31Z" transform="translate(0 -12.19)"/><path class="cls-23" d="M201.89,39.14a5.7,5.7,0,0,1-.75-.09V39c0-.44,0-.89,0-1.33s0-.64,0-1a7.18,7.18,0,0,1,.92,0c1.66.12,3,.77,2.92,1.44S203.55,39.27,201.89,39.14Z" transform="translate(0 -12.19)"/><path class="cls-14" d="M199.26,33.8a4.12,4.12,0,1,1,3.25,4.83A4.12,4.12,0,0,1,199.26,33.8Zm.59.11A3.52,3.52,0,1,0,204,31.14,3.52,3.52,0,0,0,199.85,33.91Z" transform="translate(0 -12.19)"/><path class="cls-8" d="M207.47,39.71a.3.3,0,0,1-.15-.05c-1.49-1-1.78-1.57-1.82-1.67a.28.28,0,0,1,0-.28l2.16-3.25,0,0a5.66,5.66,0,0,0,.61-3,.3.3,0,0,1,.31-.28.29.29,0,0,1,.28.31,5.87,5.87,0,0,1-.74,3.33l-2,3.08a7,7,0,0,0,1.53,1.29.3.3,0,0,1,.07.42A.27.27,0,0,1,207.47,39.71Z" transform="translate(0 -12.19)"/><path class="cls-23" d="M219.26,37.91c0,.67-1.44,1.11-3.1,1s-3-.77-2.92-1.44,1.44-1.11,3.1-1S219.31,37.24,219.26,37.91Z" transform="translate(0 -12.19)"/><path class="cls-14" d="M209.07,34.07a4.12,4.12,0,1,1,3.25,4.83A4.11,4.11,0,0,1,209.07,34.07Zm.59.11a3.52,3.52,0,1,0,4.13-2.77A3.52,3.52,0,0,0,209.66,34.18Z" transform="translate(0 -12.19)"/><path class="cls-14" d="M207.08,34.9h0a.3.3,0,0,0,.35-.24s.15-.78.72-.75a1.09,1.09,0,0,1,.87.73.3.3,0,0,0,.38.2.3.3,0,0,0,.19-.38,1.67,1.67,0,0,0-1.41-1.16,1.4,1.4,0,0,0-1.34,1.25A.3.3,0,0,0,207.08,34.9Z" transform="translate(0 -12.19)"/><path class="cls-14" d="M216.79,34.36a.29.29,0,0,0,.32-.15c1.63-2.93,4.67-1.49,4.8-1.43a.29.29,0,0,0,.4-.13.31.31,0,0,0-.13-.41s-3.69-1.76-5.6,1.68a.3.3,0,0,0,.12.41A.14.14,0,0,0,216.79,34.36Z" transform="translate(0 -12.19)"/><path class="cls-8" d="M201.32,30.31h0A11,11,0,0,1,204,21.37c4.58-5.26,13.91-5,17.63.39s1.89,10,1.89,10-1.5.54-2.23,3.48l-2-.09a14.42,14.42,0,0,1,0-6.45c.78-4-6.28-8-11.08-7.1A8.64,8.64,0,0,0,202,26.86,15.19,15.19,0,0,0,201.32,30.31Z" transform="translate(0 -12.19)"/><path class="cls-8" d="M216.8,23.91s-3.34-1.31-5-.68-4,1.47-5.71.2-3.78,2.49-3.78,2.49,2.24-6.69,7.76-5.3S215.62,21.49,216.8,23.91Z" transform="translate(0 -12.19)"/><path class="cls-23" d="M208.22,45.76l-.22-.07a.3.3,0,0,1,.23-.55,1.88,1.88,0,0,0,1.86-.3.3.3,0,1,1,.39.45A2.48,2.48,0,0,1,208.22,45.76Z" transform="translate(0 -12.19)"/><path class="cls-20" d="M221.64,33.39s1.92-3,5-1.53,1.24,12.41-4.92,10.94Z" transform="translate(0 -12.19)"/><path class="cls-8" d="M223,38.94h-.07a.31.31,0,0,1-.2-.37c0-.13,1-3.28,3.9-3.72a.31.31,0,0,1,.34.25.3.3,0,0,1-.25.34c-2.51.38-3.41,3.27-3.42,3.3A.29.29,0,0,1,223,38.94Z" transform="translate(0 -12.19)"/><path class="cls-8" d="M225.68,38a.3.3,0,0,1-.2-.1s-.57-.64-1.23-1.26a.29.29,0,0,1,0-.42.3.3,0,0,1,.42,0c.68.65,1.24,1.28,1.26,1.31a.29.29,0,0,1,0,.41A.33.33,0,0,1,225.68,38Z" transform="translate(0 -12.19)"/><path class="cls-8" d="M213.48,34.8c0,.65-.32,1.19-.69,1.18s-.68-.54-.67-1.2.32-1.19.69-1.19S213.49,34.14,213.48,34.8Z" transform="translate(0 -12.19)"/><path class="cls-8" d="M205.8,34.82c0,.66-.32,1.19-.7,1.18s-.67-.54-.67-1.2.32-1.19.7-1.18S205.8,34.16,205.8,34.82Z" transform="translate(0 -12.19)"/><path class="cls-14" d="M222.35,51.58s2.3.7,3.53,5.88c-1.6,4.71-6.09,8.66-12.4,9.82V58A16.32,16.32,0,0,0,222.35,51.58Z" transform="translate(0 -12.19)"/><path class="cls-14" d="M206.65,52.89s-3.8.86-5.38,6c4.07,5,6.24,6.83,12.21,8.36V58S209.92,58,206.65,52.89Z" transform="translate(0 -12.19)"/><polygon class="cls-11" points="217.76 53.74 213.47 60.1 209.37 53.73 213.49 48.42 217.76 53.74"/><path class="cls-18" d="M204.83,72.43a.46.46,0,0,1-.29-.1.49.49,0,0,1-.1-.69l8.66-11.33a.45.45,0,0,1,.37-.19.46.46,0,0,1,.39.17l8.55,9.82a.49.49,0,0,1,0,.69.48.48,0,0,1-.69,0l-8.16-9.37-8.28,10.86A.53.53,0,0,1,204.83,72.43Z" transform="translate(0 -12.19)"/><path class="cls-18" d="M213.49,61.1h0a.48.48,0,0,1-.48-.5l0-2.16a.48.48,0,0,1,.49-.48h0a.49.49,0,0,1,.49.49l0,2.16A.49.49,0,0,1,213.49,61.1Z" transform="translate(0 -12.19)"/><path class="cls-20" d="M238.61,152c-1.07-.29-2.65.83-4.07,1.21a17.44,17.44,0,0,0-5.85,3c-.79.69-4.74,5.2-6.52,7.16a1.11,1.11,0,0,0,.05,1.57c.58.53,1.81.52,4.17-1.66l.91-.78a5.23,5.23,0,0,1,2.1-1s-1.32,1.19-3.57,3.33c2.46,4.27,6.46,8.34,11.78,7.28a36,36,0,0,0,2.1-4c1-1.83,4.12-6.53,5-9.11C245.34,157.18,242,152.9,238.61,152Z" transform="translate(0 -12.19)"/><path class="cls-17" d="M240.8,62.87l.49.39.38.31.72.61,1.36,1.21c.88.8,1.73,1.61,2.57,2.43,1.66,1.65,3.25,3.33,4.79,5.07A100.16,100.16,0,0,1,259.56,84a89.93,89.93,0,0,1,6.8,12.34c1,2.16,1.86,4.37,2.64,6.62.4,1.13.76,2.27,1.1,3.42.17.58.34,1.15.49,1.73l.12.44.06.21.11.45a14.47,14.47,0,0,1,.36,2.12c.06.64.08,1.24.08,1.78s0,1.05-.08,1.53a22.1,22.1,0,0,1-.38,2.58,33.79,33.79,0,0,1-1.13,4.15c-.43,1.26-.88,2.43-1.35,3.55s-1,2.21-1.47,3.26c-1,2.1-2.06,4.1-3.15,6.05s-2.2,3.85-3.34,5.72c-2.27,3.74-4.65,7.34-7.09,10.89q-1.83,2.65-3.72,5.26c-.63.88-1.26,1.74-1.9,2.61l-1,1.3-1,1.32L232.62,152l.78-1.25.8-1.3,1.6-2.61c1.06-1.74,2.11-3.5,3.13-5.26,2.06-3.51,4-7.05,5.93-10.59.94-1.77,1.83-3.54,2.69-5.3s1.66-3.51,2.37-5.23a48.12,48.12,0,0,0,1.75-4.88,15.29,15.29,0,0,0,.43-1.93,4.83,4.83,0,0,0,0-.53s0-.07,0,0a1.28,1.28,0,0,0,0,.21,2.82,2.82,0,0,0,.08.58l0,.1v0s0,0,0,0v0l-.05-.16-.11-.32c-.13-.43-.28-.85-.42-1.27-.3-.85-.61-1.69-.95-2.53-.66-1.67-1.42-3.31-2.23-4.94a74.77,74.77,0,0,0-5.68-9.44c-1.06-1.52-2.19-3-3.36-4.45S237,88,235.77,86.62s-2.56-2.73-3.89-4c-.66-.64-1.34-1.27-2-1.86-.33-.31-.67-.6-1-.88l-.48-.41-.35-.28Z" transform="translate(0 -12.19)"/><path class="cls-21" d="M252.57,114a.49.49,0,0,1-.11-1,50.48,50.48,0,0,1,7.63-1.09.51.51,0,0,1,.52.47.49.49,0,0,1-.48.51,50.58,50.58,0,0,0-7.45,1.07Z" transform="translate(0 -12.19)"/><path class="cls-21" d="M252.86,113.94a.49.49,0,0,1-.3-.88c1.65-1.26,4-2.66,4.06-2.72a.49.49,0,1,1,.51.84s-2.37,1.44-4,2.66A.49.49,0,0,1,252.86,113.94Z" transform="translate(0 -12.19)"/><path class="cls-21" d="M246.58,102.62a.49.49,0,0,1-.41-.22c-.09-.14-8.83-13.7-14.48-18.58a.48.48,0,0,1-.05-.69.49.49,0,0,1,.69,0c5.76,5,14.31,18.23,14.67,18.79a.5.5,0,0,1-.15.68A.52.52,0,0,1,246.58,102.62Z" transform="translate(0 -12.19)"/><path class="cls-21" d="M235,86.94h-.07l-4.21-.64a.49.49,0,1,1,.15-1l4.2.64a.51.51,0,0,1,.42.56A.49.49,0,0,1,235,86.94Z" transform="translate(0 -12.19)"/><path class="cls-21" d="M250.12,155.09a.6.6,0,0,1-.28-.08l-13-9a.49.49,0,1,1,.55-.81l13,9a.49.49,0,0,1-.28.89Z" transform="translate(0 -12.19)"/><path class="cls-21" d="M242.29,158.78a.43.43,0,0,1-.27-.08.49.49,0,0,1-.14-.68l4-6a.49.49,0,0,1,.82.54l-4,6A.48.48,0,0,1,242.29,158.78Z" transform="translate(0 -12.19)"/><path class="cls-21" d="M240.13,153.74a1.15,1.15,0,1,0,2-1.05,1.15,1.15,0,0,0-2,1.05Z" transform="translate(0 -12.19)"/></g></g></g></g></svg>