<svg xmlns="http://www.w3.org/2000/svg" xmlns:xlink="http://www.w3.org/1999/xlink" viewBox="0 0 368 220.34"><defs><style>.cls-1{isolation:isolate;}.cls-2{fill:#ffd371;opacity:0.3;}.cls-3{fill:#fa5;}.cls-21,.cls-22,.cls-23,.cls-24,.cls-25,.cls-4{fill:none;stroke-linecap:round;stroke-linejoin:round;}.cls-4{stroke:#fff;stroke-width:0.89px;}.cls-5{fill:#eaeaea;mix-blend-mode:multiply;}.cls-6{fill:#db8038;}.cls-7{fill:#dfa47f;}.cls-8{fill:#cc8457;}.cls-9{fill:#0d164e;}.cls-10{fill:#232f6d;}.cls-11{fill:#f6383c;}.cls-12{fill:#dd2630;}.cls-13{fill:#fff;}.cls-14{fill:#222221;}.cls-15{fill:#a9a9a9;}.cls-16{fill:#666;}.cls-17{fill:#8c8484;}.cls-18{fill:url(#linear-gradient);}.cls-19{fill:#33261e;}.cls-20{fill:#211913;}.cls-21,.cls-22,.cls-23,.cls-24{stroke:#211913;}.cls-21,.cls-22,.cls-23,.cls-24,.cls-25{stroke-width:0.5px;}.cls-22{stroke-dasharray:1.99 1.99;}.cls-23{stroke-dasharray:2 2;}.cls-24,.cls-25{stroke-dasharray:2;}.cls-25{stroke:#ba1c21;}.cls-26{fill:#75c189;}.cls-27{fill:#c5503d;}.cls-28{fill:#b3b4f2;}.cls-29{fill:#9b392c;}.cls-30{fill:#60874f;}.cls-31{fill:#ad4735;}</style><linearGradient id="linear-gradient" x1="188.13" y1="77.25" x2="255.89" y2="77.25" gradientTransform="matrix(-1, 0, 0, 1, 438, 0)" gradientUnits="userSpaceOnUse"><stop offset="0" stop-color="#fff"/><stop offset="1" stop-color="#eaeaea"/></linearGradient></defs><g class="cls-1"><g id="Layer_2" data-name="Layer 2"><g id="Option_1" data-name="Option 1"><path class="cls-2" d="M48.31,161S-45.3,73,28.1,31.63c43.43-24.49,90.09,14.64,141.46-9.15C235.82-8.22,286.05,12.33,322,50.54c26.94,28.67,26.19,31.08,39.1,53.59,33.49,58.41-65.1,95.75-65.1,95.75S153.77,265.81,48.31,161Z"/><rect class="cls-3" x="191.45" y="4.88" width="47.78" height="18.7" rx="1.96" transform="translate(430.69 28.45) rotate(180)"/><line class="cls-4" x1="230.89" y1="12.04" x2="199.01" y2="12.04"/><line class="cls-4" x1="216.72" y1="17.01" x2="199.01" y2="17.01"/><polygon class="cls-3" points="197.2 21.09 197.2 29.54 207.98 21.09 197.2 21.09"/><path class="cls-5" d="M277.37,206.2s-13.45,6.47-21.4,6a40.79,40.79,0,0,1-29.23,6s-15.39-13.9-34.37-17.64S135,185.45,135,185.45s-88.45-.94-93.5-9.39,162.14-9.95,166.94-4.83-16,10.76-16,10.76S288.41,192.62,277.37,206.2Z"/><path class="cls-3" d="M164.32,55.11C157.56,45.43,149.46,36,138.45,31.7c-11.75-4.54-25.09-2.41-36.94,1.87C84.58,39.69,68.6,50.83,61,67.16c-5.45,11.7-6.17,24.94-8.24,37.68-1.69,10.38-4.33,20.66-4.68,31.18s1.88,21.6,8.79,29.53C67.64,177.91,86,179.29,102.4,179.76l37.91,1.1c9.34.27,18.75.53,27.94-1.13s18.26-5.44,24.73-12.18c8.18-8.5,11.35-21.09,9.75-32.78-1.85-13.45-10.57-24-15.3-36.42A200.42,200.42,0,0,0,164.32,55.11Z"/><path class="cls-6" d="M47.27,136c.35-10.52,3-20.8,4.68-31.18,2.07-12.74,2.8-26,8.24-37.68,7.6-16.33,23.57-27.47,40.5-33.59a70,70,0,0,1,20-4.33C115,29.71,109.88,32,104.08,34,41.45,55.57,53.39,153.08,49.89,154.75A51.38,51.38,0,0,1,47.27,136Z"/><path class="cls-6" d="M64.16,158c13.66,26.26,48.33,8.4,73.54,12.6a170.25,170.25,0,0,0,23.11,2.11c19.55-.7,35.83-14.86,41.49-32.6.13,10.06-3.19,20.23-10.14,27.45-6.47,6.74-15.53,10.51-24.72,12.18s-18.61,1.4-27.95,1.13l-37.91-1.1c-16.38-.47-34.76-1.85-45.52-14.21a33.29,33.29,0,0,1-6.17-10.8C53.39,153.08,62.69,155.25,64.16,158Z"/><path class="cls-6" d="M169.88,146.46c-12,5.15-25.68,5.32-38.41,2.49-5.86-1.31-11.75-3.32-16.32-7.24a41.11,41.11,0,0,1-6.32-7.28q-3.43-4.76-6.53-9.72a138.6,138.6,0,0,1-17-38.79C84,80.85,83.08,75.55,83.92,70.38s3.77-10.24,8.51-12.49c3.77-1.8,8.74-2,11-5.49,3.53-5.52-3.12-13.82.89-19,2.76-3.54,8.26-2.63,12.53-1.28,5.65,1.8,11.32,3.81,16.12,7.27s8.68,8.62,9.36,14.5c8.16-4.18,19.46-.18,23.17,8.21,2.68,6,1.65,13.18,4,19.35s7.86,10.75,9.85,17c1.24,3.91,1.42,8.85,5,10.85,2.35,1.32,5.39.77,7.78,2,7,3.59-.67,15.9-3.65,20.15A44,44,0,0,1,169.88,146.46Z"/><path class="cls-7" d="M143.77,44.23c0,2.75-.07,5.75-1.84,7.86-2,2.34-5.32,2.8-8.35,3.1a36.44,36.44,0,0,1-9.56.09,12.17,12.17,0,0,1-8.1-4.65c-2-2.82-2.15-6.45-2.27-9.88q-.36-9.53-.7-19a11.08,11.08,0,0,1,.78-5.67c1.46-2.75,4.84-3.75,7.9-4.29a75.57,75.57,0,0,1,13.92-1.2c7.28,0,8.82,2.78,8.24,9.07C143,27.67,143.76,36.13,143.77,44.23Z"/><path class="cls-7" d="M114.59,22.47c6.3,1.05,8.4-7.35,11.55-5.25,6.31,4.2,10.51,5.25,15.76,4.2a7.84,7.84,0,0,0,1.86-1.35c-.68,7.93,0,16.21,0,24.16,0,2.75-.07,5.75-1.84,7.86-2,2.34-5.32,2.8-8.35,3.1a36.44,36.44,0,0,1-9.56.09,12.17,12.17,0,0,1-8.1-4.65,11.74,11.74,0,0,1-1.82-4.7C117.36,39.71,113.84,29.22,114.59,22.47Z"/><path class="cls-8" d="M113,21.7a11.08,11.08,0,0,1,.78-5.67c1.46-2.75,4.84-3.75,7.9-4.29a75.57,75.57,0,0,1,13.92-1.2c7.28,0,8.82,2.78,8.24,9.07,0,.15,0,.31,0,.46a7.84,7.84,0,0,1-1.86,1.35c-5.25,1-9.45,0-15.76-4.2-3.15-2.1-5.25,6.3-11.55,5.25-.75,6.75,2.77,17.24-.49,23.46a35.86,35.86,0,0,1-.45-5.18Q113.29,31.23,113,21.7Z"/><path class="cls-9" d="M131.7,17.59a11.42,11.42,0,0,0,14.91-2.71c1.58-2.15,2-5.73-.26-7.08-1.18-.7-2.65-.53-4-.7-4.78-.59-8-5.35-12.65-6.7s-9.57,1-13.87,3.34a14.9,14.9,0,0,0-5.25,3.94c-1.29,1.78-1.65,4.45-.21,6.12-1.84-1.63-5-.54-6.22,1.6s-.85,4.83,0,7.15,2.07,4.47,2.68,6.85c.7,2.73.51,5.65,1.33,8.34s3.21,5.32,6,4.92c1.6-3.24,1.07-6.69-.07-10.12a22.89,22.89,0,0,1-.42-10.73c.45-2,3.34-2.28,5-3.47,2.46-1.77,1.83-5.16,5-5.67S129.53,16.18,131.7,17.59Z"/><path class="cls-10" d="M108.28,17.22c5.26-3.15,8.41-10.5,15.76-10.5,5.75,0,9.57,6.41,15,6.71a5.6,5.6,0,0,0,5.72-4.82,7.24,7.24,0,0,1,.31-1.26,3.72,3.72,0,0,1,1.3.45A3,3,0,0,1,147.48,9a7.42,7.42,0,0,1-5.58,6.14c-7.35,3.15-13.66-9.45-20-5.25-4.17,2.5-5.69,5-9.31,7.51a6.27,6.27,0,0,0-2.2,7.33,7.14,7.14,0,0,1,.44,1.72,3.92,3.92,0,0,0-2.59,1.3c-.15.15-.27.32-.41.47C106.81,24,105.4,18.71,108.28,17.22Z"/><path class="cls-10" d="M113.21,27.15a19.67,19.67,0,0,0,.85,5.39,18.53,18.53,0,0,1,1.06,5.4c-1.32,1.94-3.32,3.19-5.36,2.78a8.31,8.31,0,0,1-1.64-3c-.79-2.61-.65-5.41-1.27-8.07a8.1,8.1,0,0,1,1.43-1.94A3.59,3.59,0,0,1,113.21,27.15Z"/><path class="cls-7" d="M135,46.72c0,.26-1.28,18.56-1.28,18.56l-19-1.72,2.48-22.26Z"/><path class="cls-8" d="M135,46.72c0,.15-.74,10.76-.74,10.76-7.1,1.56-12.3.71-18.48-3.62l1.4-12.56Z"/><path class="cls-11" d="M166.16,88.69c3.72,2.86,15,11.27,15.92,11.13,2-.32,10.27-4.87,13-8.67-6.2-3.23-12.57-9.6-18.08-13.9C169.94,71.7,160,51,149.54,57.48c-6.48,4,3.66,17.85,6.39,21.76C158.3,82.63,162.85,86.13,166.16,88.69Z"/><path class="cls-12" d="M149.54,57.48a8.05,8.05,0,0,1,2.91-1.13c8.17,4.26,7.55,17.11,7.76,27.48a28.26,28.26,0,0,1-4.28-4.59C153.2,75.33,143.06,61.48,149.54,57.48Z"/><path class="cls-11" d="M92.88,64.58c7.73,22.27,16.76,47.35,26.06,69a153.05,153.05,0,0,0,34.45-15.49,12.65,12.65,0,0,0,4.11-3.42c1.54-2.23,1.56-5.14,1.51-7.85-.26-14,0-24.11-2.76-37.61-1.18-5.78-1.67-12.53-7.52-11.75a63.82,63.82,0,0,0-11.07,3.12A61.65,61.65,0,0,1,122.94,64c-4.37.8-6.76-.51-11.24-.26C106.2,64,95.94,60.55,92.88,64.58Z"/><path class="cls-12" d="M132,70.31c-13.62,2-18.31,1-24.25-6.81a24.65,24.65,0,0,0,4,.21c4.48-.25,6.87,1.06,11.24.26a61.65,61.65,0,0,0,14.72-3.37c.77-.29,1.62-.58,2.48-.87a14.36,14.36,0,0,1,0,2.18A9.49,9.49,0,0,1,132,70.31Z"/><path class="cls-12" d="M100,62.65c10,6.54,18.3,27.44,21.23,40.32a3.39,3.39,0,0,0,4.17,2.55c4.83-1.24,13.29-3.74,16.09-6.55,6.42-6.46,24.83-7.75,13.25,10.17-6.44,10-39.81,22-38.29,18.6-9-21.21-16.1-41.54-23.6-63.16C94.22,62.82,96.93,62.49,100,62.65Z"/><path class="cls-9" d="M131.2,40.55c-6.38-2.37-10.83,1.78-14.22-1.37-.86-.79,0-11.71-4.56-12.45-1.15-.18,1.49,5,.88,6a3.83,3.83,0,0,0-.25,2.51c.42,3.17.38,6.14.84,9.3.35,2.33.67,5.22,2.1,7.09,2.47,3.23,7.78,4.32,11.85,4.43,3.49.09,8.66.27,11.7-1.46,3.24-1.84,3.76-4.16,4.33-7.06.43-2.24,1.59-8.79-1.15-9.13-1.92-.24-5.61,1.92-6.42,2.08A9.61,9.61,0,0,1,131.2,40.55Z"/><path class="cls-10" d="M117.12,41c-3.25-.81-1.49-6.92-4.16-10.76-.52-1.73-1.24-3.64-.54-3.53,4.56.74,3.7,11.66,4.56,12.45,3.39,3.15,7.84-1,14.22,1.37a9.61,9.61,0,0,0,5.1-.06c.81-.16,4.5-2.32,6.42-2.08.82.1,1.29.77,1.53,1.71-.92-1-7.66,2.07-11,1.55C127,40.72,120.61,42.19,117.12,41Z"/><path class="cls-3" d="M210.62,201.7c6,2.33,9.95,6.69,14.44,9.83,4.79,3.34,11.63,3.2,17,.95,1.41-.59,2.86-1.54,3.24-3a4.08,4.08,0,0,0-1.43-3.85,14.43,14.43,0,0,0-3.7-2.18,45.08,45.08,0,0,1-12.74-9.2c-3.59-3.7-7.59-9.32-15.25-6.64C206.45,189.58,205.35,199.66,210.62,201.7Z"/><path class="cls-6" d="M244.12,205.82a4,4,0,0,1,1.2,3.63c-.38,1.49-1.83,2.44-3.24,3-4.86,2-10.88,2.33-15.53-.07A23.58,23.58,0,0,1,244.12,205.82Z"/><path class="cls-6" d="M217.47,194.76c-3.64.48-6.55-.74-9.08-3.74a8.84,8.84,0,0,1,3.81-3.44c4.84-1.69,8.22-.07,11,2.29a4.78,4.78,0,0,1-1.32,2.78A7.2,7.2,0,0,1,217.47,194.76Z"/><path class="cls-6" d="M212.73,202.63c-.68-.34-1.38-.65-2.11-.93-3.72-1.44-4.67-6-2.65-9.75C211.59,194.32,213.2,198,212.73,202.63Z"/><path class="cls-13" d="M136.41,43.67l-9,.28a5.31,5.31,0,0,0,9.76-.12"/><path class="cls-11" d="M134.48,67.21c-6.51,2.18-16.09,3.43-21.57-.7-1.27-1-2.4-1.17-3-2.77a6.08,6.08,0,0,1,.73-5c.63-.91,3.72-1.54,4.7-1-.13,1.33-.25,2,1,2.77,8.08,4.56,18.53-.18,17.77-1.44C140.89,59,138.71,65.79,134.48,67.21Z"/><path class="cls-12" d="M133.19,61.56c-6.57,5.23-16.08,3.82-21.56-2.54-.22-.26-.43-.37-.64-.63.55-.63,3.53-1.08,4.31-.69-1.06,1.27-.25,2,1,2.77,8.08,4.56,18.53-.18,17.77-1.44.25,0,1.22.06,1.44.08A12.4,12.4,0,0,1,133.19,61.56Z"/><path class="cls-7" d="M220.6,189.07c.61,5.25-8.93,6-10.33,2.71-.23-.54-3.28-9.64-2.9-13.25,2.93-.88,9.73-1.37,9.73-1.37C218.53,178.9,220.46,187.85,220.6,189.07Z"/><path class="cls-3" d="M240,195.77c6,2.33,9.94,6.7,14.43,9.83,4.8,3.34,11.63,3.21,17,1,1.42-.59,2.87-1.54,3.25-3a4.1,4.1,0,0,0-1.43-3.85,15.08,15.08,0,0,0-3.7-2.18,45.12,45.12,0,0,1-12.75-9.2c-3.59-3.7-7.59-9.32-15.25-6.64C235.87,183.65,234.76,193.74,240,195.77Z"/><path class="cls-6" d="M273.53,199.9a4,4,0,0,1,1.21,3.62c-.38,1.49-1.83,2.44-3.25,3-4.85,2-10.87,2.33-15.52-.07A23.51,23.51,0,0,1,273.53,199.9Z"/><path class="cls-6" d="M246.88,188.83c-3.64.48-6.55-.73-9.08-3.74a8.84,8.84,0,0,1,3.81-3.44c4.85-1.69,8.23-.07,11,2.29a4.69,4.69,0,0,1-1.32,2.78A7.1,7.1,0,0,1,246.88,188.83Z"/><path class="cls-6" d="M242.14,196.7c-.67-.33-1.37-.65-2.1-.93-3.72-1.44-4.68-6-2.66-9.75C241,188.39,242.62,192.1,242.14,196.7Z"/><path class="cls-7" d="M250,183.14c.62,5.25-8.92,6-10.33,2.71-.23-.54-3.28-9.64-2.9-13.25,2.93-.88,9.73-1.37,9.73-1.37C247.94,173,249.87,181.92,250,183.14Z"/><path class="cls-11" d="M109.86,77.11c-1.49-4.61-3.11-9.44-7-12.47a9.69,9.69,0,0,0-6.06-2.09c-5.64.12-7.8,5-7.48,9.43a27.23,27.23,0,0,0,2.55,8.48q9,21.3,18.1,42.61c.83,2,1.79,4.06,3.67,5.07,2.66,1.43,5.9.09,8.59-1.27q11.1-5.58,22.06-11.41c2.8-1.49,10-5.89,10.53-6.32,4-3.55-1.13-7.77-3.74-12.08-.57-.94-4.29-.67-5.08.1a41.23,41.23,0,0,1-25,11.49c-3.52-12.94-3.9-15.15-9.2-28Z"/><path class="cls-12" d="M146.63,100.47c-.07-4.7,5.61-5.21,8.88-2.87a4.58,4.58,0,0,1,.42.35,7.65,7.65,0,0,1,2,6.46C152.09,113.87,146.7,105,146.63,100.47Z"/><path class="cls-14" d="M137.61,31.08c0,1.18.58,2.13,1.29,2.13s1.28-1,1.28-2.13S139.61,29,138.9,29,137.61,29.91,137.61,31.08Z"/><path class="cls-14" d="M126.55,31.08c0,1.18.58,2.13,1.29,2.13s1.28-1,1.28-2.13S128.55,29,127.84,29,126.55,29.91,126.55,31.08Z"/><path class="cls-14" d="M137,23.15a4.21,4.21,0,0,1,2.41-.47c.83.1,1.31.63,1.44.54s0-.25-.18-.52a2.31,2.31,0,0,0-1.1-.71,3.41,3.41,0,0,0-1.62-.1,5.46,5.46,0,0,0-1.35.45C135.17,23.07,135.69,23.79,137,23.15Z"/><path class="cls-14" d="M128.49,22.19a4.28,4.28,0,0,0-1.67-.26,4.94,4.94,0,0,0-1.78.41c-1.05.47-1.68,1.13-1.59,1.25s.85-.31,1.84-.58a4.63,4.63,0,0,1,2.91,0c.7.27,1.1.42,1.26.24S129.42,22.56,128.49,22.19Z"/><path class="cls-14" d="M133.22,31.26A8.37,8.37,0,0,0,133.6,34a8.25,8.25,0,0,0,.59,1.41,13.38,13.38,0,0,1,.64,1.22,1.91,1.91,0,0,1-.29,1.92c-.33.43-.67.58-.64.66s.45.06,1-.38a2.31,2.31,0,0,0,.64-1,2.38,2.38,0,0,0,0-1.47A9.94,9.94,0,0,0,134.9,35a7.93,7.93,0,0,1-.48-1.31,8.29,8.29,0,0,1-.29-2.46c0-1.38.14-2.1-.1-2.17S133.29,29.68,133.22,31.26Z"/><ellipse class="cls-8" cx="141.33" cy="35.82" rx="1.88" ry="1.18"/><ellipse class="cls-8" cx="124.82" cy="35.82" rx="1.88" ry="1.18"/><polygon class="cls-15" points="249.86 54.94 246.19 52.84 190.51 52.84 180.44 95.03 182.11 98.97 234.89 97.45 249.86 54.94"/><polygon class="cls-16" points="180.44 95.03 150.37 114.61 149.54 117.7 183.55 97.63 180.44 95.03"/><polygon class="cls-17" points="184.21 95.64 149.54 117.7 151.4 120.14 192.37 96.54 184.21 95.64"/><polygon class="cls-18" points="249.86 54.94 192.61 54.94 182.11 98.97 237 99.56 249.86 54.94"/><path class="cls-15" d="M215.55,75.23a3,3,0,0,0,3-3,4.4,4.4,0,0,0,0-.51,3,3,0,1,1-4.63,3A3,3,0,0,0,215.55,75.23Z"/><path class="cls-19" d="M226.68,84.79c.26-.19.54-.38.83-.57,1-.68,11.32-2.69,13.44,6.15,7.73,32.14,7.87,54,10.17,83.77-2.06-.84-8.85,0-11,2.71-7.31-15.12-14.16-45-17.35-60.14a118.31,118.31,0,0,1-11.46,10.4l-.22.16-.61.41c-2-10.85-3.94-21.63-5.35-32.56A161.7,161.7,0,0,1,226.68,84.79Z"/><path class="cls-20" d="M202.6,99.54c-.16-1.14-.33-2.28-.48-3.42a160.36,160.36,0,0,1,21.57-10.34l.83-.56c1-.68,11.32-2.7,13.45,6.14l0,.13C231.72,80.51,212,93.36,202.6,99.54Z"/><path class="cls-20" d="M208.77,92.51c4.49,9,6.14,18.93,7,29.11-2.48,2.33-5,4.52-7.46,6.49l-.22.16-.62.4c-2-10.84-3.93-21.63-5.34-32.55C204.13,95,206.4,93.72,208.77,92.51Z"/><path class="cls-20" d="M224.68,113.78c2,21.22,6.94,43.07,15,62.28a6.58,6.58,0,0,0-2.59,1.78c-7.31-15.11-14.17-45-17.36-60.14a118.35,118.35,0,0,1-9.08,8.46c-.27-1.42-.53-2.85-.79-4.28C213.58,119.55,220.42,114.84,224.68,113.78Z"/><path class="cls-21" d="M207.79,114.3l.61-.8"/><path class="cls-22" d="M209.69,112a28.86,28.86,0,0,1,11-7.57,2.26,2.26,0,0,1,2.1,2.1c2,23.5,7.07,46,16.13,67.72"/><path class="cls-21" d="M239.3,175.14c.13.31.26.61.4.92"/><path class="cls-19" d="M120,130.28c2.78-1.39,4.6.53,15.5-4.4,4.07-1.84,7.52-4.84,11.28-7.26l22.56-14.51a152.8,152.8,0,0,1,25-12.4c.26-.19.54-.37.83-.56,1-.69,11.32-2.7,13.44,6.14,7.73,32.14,7.87,54,10.17,83.77-2.06-.84-8.85,0-11,2.71-7.31-15.12-14.16-45-17.35-60.14A119.76,119.76,0,0,1,178.88,134l-.22.16c-6.56,4.37-12.81,8.14-20.62,10a45.24,45.24,0,0,1-20.7.19C132.81,143.3,112.72,133.92,120,130.28Z"/><path class="cls-20" d="M219.68,107.91c2-.58,3,10.88,1.59,10.92C219.46,118.88,217.51,108.55,219.68,107.91Z"/><path class="cls-20" d="M134.4,126.35l1.07-.47c4.07-1.84,7.52-4.84,11.28-7.26l22.56-14.51a152.8,152.8,0,0,1,25-12.4c.26-.19.54-.37.83-.56a11.3,11.3,0,0,1,5.34-.63c-22,5.29-39.09,26.36-59.6,34.9A19.05,19.05,0,0,1,134.4,126.35Z"/><path class="cls-20" d="M120,130.28l.11-.05c1.39,2.07,2.57,4.41,5,3.6,11.56-5.26,25.21,2.1,34.67,3.15,10.5,1.05,20-11.56,32.56-14.71,2,21.23,9.88,40.51,18,59.72a6.73,6.73,0,0,0-2.59,1.78c-7.31-15.12-14.16-45-17.35-60.14A119.76,119.76,0,0,1,178.88,134l-.22.16c-6.56,4.37-12.81,8.14-20.62,10a45.24,45.24,0,0,1-20.7.19C132.81,143.3,112.72,133.92,120,130.28Z"/><path class="cls-21" d="M149.91,135.93a6.24,6.24,0,0,0,1-.12"/><path class="cls-23" d="M152.84,135.36c5-1.45,16.77-6.54,36.51-24.5,0,0,4-1,3.85,2.66,0,0,3.43,38.2,16.24,66.64"/><path class="cls-21" d="M209.86,181.08l.42.91"/><path class="cls-24" d="M125,129.87s-.45,3.28,5.39,4.65"/><path class="cls-20" d="M186.12,112.15c-.93-.8-2.13-1.54-3.31-1.21a2,2,0,0,0,.15,1.87,6.16,6.16,0,0,0,1.28,1.47l5.94,5.48a19.06,19.06,0,0,0-7.23-3.05,1.55,1.55,0,0,0-1.43.22,1.09,1.09,0,0,0,0,1.33,3.16,3.16,0,0,0,1.12.89l6.35,3.63c1.89,1.09,3.86,2.31,3.29-.84C191.6,118.24,188.94,114.52,186.12,112.15Z"/><path class="cls-7" d="M154.73,105.51l9.37-3.37a6,6,0,0,1,3.46-.19l1.92.47-.33,2.5c-.2,1.4,1.31,1.2,1.31,1.2.85-.23,1.14-1.24,1.25-1.91l.47-3.42a1,1,0,0,0-1-1.17l-5.41-.33,6.52-.26v2.51a1.22,1.22,0,0,0,1.74,1.11.88.88,0,0,0,.5-.77l.08-4.68a1,1,0,0,0-1-1.06h.11l-.26-2.44a1.69,1.69,0,0,0-1.84-1.49l-.73.08-.29,0-1.18-2.89a1.55,1.55,0,0,0-2-.86L161,91.65h0l-9.34,4.76C149.54,97.29,148.29,106.6,154.73,105.51Zm12.71-14.26.46,1.52-3.8.61Zm-2.17,5,6.24-1.31.07,1.31Z"/><polygon class="cls-8" points="170.44 91.76 168.21 92.07 167.42 90.14 164.1 93.38 167.44 91.25 167.9 92.77 170.64 92.32 170.44 91.76"/><polygon class="cls-8" points="171.58 96.24 172.32 96.24 171.95 94.27 165.27 96.24 171.51 94.93 171.58 96.24"/><path class="cls-8" d="M173.19,102.67s-1.2.46-.87-3.64l-6.13.23,6.47-.72S172.31,102.7,173.19,102.67Z"/><path class="cls-8" d="M169.69,106s-1.08,0-.21-3.61c0,0-3-.83-3.94-.63a32.19,32.19,0,0,0-4.07,1.34l-6.74,2.38s-4.16.89-4.64-3.09c0,0,2.09,4.29,6.35,1.83,0,0,8.21-3.12,9.13-3.15,0,0,4.27.39,4.37.85C169.94,102,169.21,106,169.69,106Z"/><path class="cls-6" d="M119.73,139.26c6.35-2.56,12.64-6.16,19.48-6,12,.32,21.69,12.08,33.65,11.37a12.08,12.08,0,0,1,4.53.1c1.44.48,2.64,2.14,2,3.51a3.82,3.82,0,0,1-1.78,1.53c-11.62,6.29-24.81,9.89-38,9.41S113.21,154,103.3,145.29c-1.75-1.54-4-3.8-3.9-6.28,2.27-.21,5.13,2.42,7.75,2.66C111.42,142.05,115.81,140.84,119.73,139.26Z"/><path class="cls-6" d="M99.11,140.59c-1.38-.42-2.94-1.21-3.14-2.64a121.56,121.56,0,0,0,16.14,1.84,28.86,28.86,0,0,1-9.81-2.25c-.63-.26-1.37-1-.9-1.49.25-.27.69-.22,1.06-.15l8.57,1.74a12.27,12.27,0,0,1-7.64-5.49c-.53-.87-.83-2.23.07-2.72s1.64.23,2.27.84l7,6.83c.74.72,2.78,2.41,2,3.48-.6.88-4.2,1-5.19,1.07A26.85,26.85,0,0,1,99.11,140.59Z"/><path class="cls-6" d="M181.29,148.55c.63.48,1.3,1.23,1,2a1.26,1.26,0,0,1-1.3.66,3.77,3.77,0,0,1-1.46-.55l-13.63-7.52c.28.16,1.64-.16,2.09-.08a12.58,12.58,0,0,1,1.8.58c1.19.38,2.41.59,3.61,1A24.55,24.55,0,0,1,181.29,148.55Z"/><path class="cls-6" d="M82.4,71.3a36.92,36.92,0,0,1-.09-10.07,17,17,0,0,1,4.15-9c.65-.69,1.81-1.3,2.45-.6s-.12,1.82-.79,2.54a13.4,13.4,0,0,0-3.44,10.11,10.91,10.91,0,0,1,7.4-9.43,1,1,0,0,1,1.06,1.66,25.36,25.36,0,0,1-2.78,2.23,12.79,12.79,0,0,0-4.11,6.39,27.6,27.6,0,0,0-1,7.63c-.09,5.8.92,11.24,1.9,16.92-1.6-.29-2.59-6.77-3-8.29A88.4,88.4,0,0,1,82.4,71.3Z"/><path class="cls-6" d="M69.35,101.46c.08-1.08.37-2.37,1.4-2.74a2.08,2.08,0,0,1,2.4,1.38,6.81,6.81,0,0,1,.18,3,34.41,34.41,0,0,0,9.18,25.78,31.87,31.87,0,0,1-3.71-8.07,13.11,13.11,0,0,1-.41-3.31,1.51,1.51,0,0,1,2.94-.47,114.1,114.1,0,0,0,5,12.73c1.23,2.63,2.67,5.12-1.09,3.06a26.77,26.77,0,0,1-5.84-4.71A34.76,34.76,0,0,1,69.35,101.46Z"/><path class="cls-7" d="M108.27,33.35c0,2.67,1.43,4.83,3.19,4.83s3.19-2.16,3.19-4.83-1.43-4.84-3.19-4.84S108.27,30.68,108.27,33.35Z"/><path class="cls-8" d="M112.92,31.45a1.21,1.21,0,0,1,.1.57,9.23,9.23,0,0,1-.12,1.29,3.61,3.61,0,0,1-.35,1.17,1.82,1.82,0,0,1-.86.85.85.85,0,0,1-.79,0,1,1,0,0,1-.36-.88,4.48,4.48,0,0,1,.89-2.8,1.54,1.54,0,0,1,.45-.43A.84.84,0,0,1,112.92,31.45Z"/><path class="cls-8" d="M114.65,33.35c0,2.63-1.4,4.77-3.13,4.82,3-2.1,1.88-8.32,1.88-8.65A5.08,5.08,0,0,1,114.65,33.35Z"/><path class="cls-14" d="M111.54,31.3a3.33,3.33,0,0,0-1.33,2.32c-.11.88.09,1.54.24,1.53s.22-.67.45-1.39A3.32,3.32,0,0,1,112.08,32c.42-.3.66-.53.62-.76S112.2,30.86,111.54,31.3Z"/><path class="cls-14" d="M111,33.34c.23.29.56.75.82,1.16s.48.76.64.71.17-.48,0-1a4.52,4.52,0,0,0-.77-1.43C111.06,32.1,110.49,32.77,111,33.34Z"/><path class="cls-12" d="M125.15,98.07a28,28,0,0,0,15.16-9A41.26,41.26,0,0,1,131,104.21c4.83-3,8.35-7.78,10.76-12.93a63,63,0,0,0,3.51-9.81c.27-.94,1.66-4,1.3-4.92-.62-1.49-1.58,1-2,1.63A62.48,62.48,0,0,1,133.09,92C131.19,93.71,127.72,97.52,125.15,98.07Z"/><path class="cls-25" d="M93.93,63.79s-7.18,5.08,6.83,28.72c0,0,11.55,37.05,15.93,33.84,0,0,24.68-11.3,35.09-17.76"/><line class="cls-25" x1="179.93" y1="94.11" x2="158" y2="77.71"/><ellipse class="cls-5" cx="311.92" cy="168.84" rx="27.58" ry="7.18"/><path class="cls-26" d="M305,119.46l1.86,0c-4.8-18.37-9-37.16-8.95-55.82,0-5.1,7.37-5.93,8.56-1a141.47,141.47,0,0,1,1.89,56.82h.52C307.55,120.69,306.26,120.38,305,119.46Z"/><path class="cls-27" d="M330.87,125.66l-4,42.88c-.06,4.81-28.92,4.47-28.87-.34l-3-43Z"/><path class="cls-28" d="M310.72,119.52c.29,1.13.59,2.24.89,3.36.22-1.11.42-2.22.6-3.34Z"/><path class="cls-29" d="M295.41,130.46l-.77-11.12,1.45,0,32.81.38,2.51,0-1,11.1C330.36,132.69,295.39,132.28,295.41,130.46Z"/><path class="cls-26" d="M327.4,119.72l-.21,2.37a84.15,84.15,0,0,0,14.66-13.75c3.75-4.47-2.51-10.4-6.81-6.46a124.54,124.54,0,0,0-12,12.45,59.74,59.74,0,0,0-3.89,5.29Z"/><path class="cls-30" d="M309.35,119.51l6,.07C324.85,105.07,333.92,90,339.57,74c2.33-6.57-6.93-10.71-10.43-4.68A180.93,180.93,0,0,0,309.35,119.51Z"/><path class="cls-30" d="M274.81,74.92a151.89,151.89,0,0,0,21.92,44.44l6.93.08c-.71-4.83-1.3-9.54-2.34-12.68a124.65,124.65,0,0,0-16.4-32.61c-2.32-3.28-7.39-6.56-9.66-3.06A4.59,4.59,0,0,0,274.81,74.92Z"/><path class="cls-31" d="M292.17,128c0,2.53,41.48,3,41.51.49l1.7-9.64-44.68-.53Z"/></g></g></g></svg>