<svg xmlns="http://www.w3.org/2000/svg" viewBox="0 0 23.14 23.14"><defs><style>.cls-1{fill:#fa5;}</style></defs><g id="Layer_2" data-name="Layer 2"><g id="Option_1" data-name="Option 1"><path class="cls-1" d="M15.83,6.84a.48.48,0,0,0-.34.14L6,16.47a.46.46,0,0,0,0,.67.47.47,0,0,0,.33.14.48.48,0,0,0,.34-.14l9.49-9.5a.45.45,0,0,0,0-.66h0A.47.47,0,0,0,15.83,6.84Z"/><path class="cls-1" d="M23.11,22.52l-1.95-5.86a.42.42,0,0,0-.11-.18v0l-4.9-4.89L23,4.71a.47.47,0,0,0,0-.66L19.09.14A.45.45,0,0,0,18.76,0h0a.48.48,0,0,0-.34.14L11.57,7,4.71.14A.45.45,0,0,0,4.38,0a.44.44,0,0,0-.33.14L.14,4.05a.45.45,0,0,0,0,.66L7,11.57,2.08,16.48a.52.52,0,0,0-.1.18L0,22.52A.48.48,0,0,0,.14,23a.45.45,0,0,0,.48.11l5.86-1.95a.59.59,0,0,0,.19-.11l4.9-4.91,4.9,4.91a.59.59,0,0,0,.19.11l5.86,1.95a.46.46,0,0,0,.59-.59ZM18.76,1.14,22,4.38,19.74,6.64,16.5,3.4ZM1.14,4.38,4.38,1.14,6.64,3.4,3.4,6.64ZM4.07,7.31,7.31,4.07,10.9,7.66,9.62,9l-2-2a.45.45,0,0,0-.33-.14A.44.44,0,0,0,7,7a.45.45,0,0,0,0,.66l2,2L7.66,10.9ZM1.22,21.92l1.41-4.24,2.83,2.83ZM6.33,20,3.1,16.8l.15-.15L15.83,4.07l3.24,3.24-.16.15Zm5.91-4.56,3.24-3.24L20,16.8,16.81,20Zm5.44,5,2.83-2.83,1.41,4.24Z"/></g></g></svg>