<svg xmlns="http://www.w3.org/2000/svg" viewBox="0 0 221.47 161.8"><defs><style>.cls-1{opacity:0.3;}.cls-2{fill:#ffd371;}.cls-3{fill:#fa8119;}.cls-4{fill:#fa5;}.cls-5{fill:#c2c2c2;}.cls-6{fill:#363638;}.cls-7{fill:#f4b54b;}.cls-8{fill:#48a96e;}.cls-9{fill:#e14835;}.cls-10,.cls-11{fill:#fff;}.cls-11{opacity:0.17;}.cls-12{fill:#eceeef;}.cls-13{fill:#ffe0a1;}</style></defs><g id="Layer_2" data-name="Layer 2"><g id="Option_1" data-name="Option 1"><g class="cls-1"><path class="cls-2" d="M201.09,136.35c40.84-31,7.66-52,7.66-52a40.62,40.62,0,0,1-14.16-18.55c-5.64-15,6.59-32.87-.43-47.29-5.17-10.61-18.9-14.62-31-13.87s-23.76,5-35.85,6c-14.48,1.2-28.83-2.31-43.1-4.84s-29.38-4-43,.93S16.08,25,18,38.94c.85,6.29,4.26,12.47,2.81,18.69C18.53,67.24,6.24,71.37,1.7,80.2c-4.42,8.63.62,18.53,5.56,26.82,20.07,33.63,57.58,47.7,88.3,53.18C95.56,160.2,155.41,171,201.09,136.35Z"/></g><path class="cls-3" d="M174.12,35.35l5.37-.88A1.82,1.82,0,0,0,181,32.38l-1.28-7.85A1.83,1.83,0,0,0,177.63,23l-5.65.92a26.15,26.15,0,0,0-4.44-6.89l3.27-4.33a1.84,1.84,0,0,0-.36-2.56L164.1,5.37a1.84,1.84,0,0,0-2.56.36l-3.45,4.58a26.07,26.07,0,0,0-8-1.93L149.49,3a1.83,1.83,0,0,0-2-1.6l-7.9.94a1.81,1.81,0,0,0-1.59,2l.67,5.72a25.72,25.72,0,0,0-8.43,5.31L125.59,12a1.82,1.82,0,0,0-2.55.39l-4.69,6.42a1.82,1.82,0,0,0,.39,2.55l5,3.63A26,26,0,0,0,122,35.71l-5.27,1.34a1.82,1.82,0,0,0-1.33,2.21l2,7.71a1.82,1.82,0,0,0,2.22,1.32l5.56-1.4a26,26,0,0,0,5,6.49l-3.85,6.14,9.83,6.16,4-6.42a26,26,0,0,0,8.1,1.24l1.47,7.09,8.92-1.84a2.49,2.49,0,0,0,1.93-3l-1-5a25.9,25.9,0,0,0,6.69-4.71l4.42,3a1.9,1.9,0,0,0,2.64-.48l4.43-6.44a1.89,1.89,0,0,0-.49-2.63l-4.68-3.22A25.74,25.74,0,0,0,174.12,35.35ZM150.3,43.78a10.75,10.75,0,1,1,8.11-10.29A10.75,10.75,0,0,1,150.3,43.78Z"/><path class="cls-4" d="M171.78,34l5.35-.87a1.84,1.84,0,0,0,1.52-2.1l-1.28-7.84a1.83,1.83,0,0,0-2.1-1.52l-5.64.92h0a25.87,25.87,0,0,0-4.43-6.89h0l3.26-4.33a1.82,1.82,0,0,0-.36-2.56L161.75,4a1.82,1.82,0,0,0-2.56.36l-3.45,4.57h0A25.94,25.94,0,0,0,147.78,7h0l-.63-5.36a1.83,1.83,0,0,0-2-1.61L137.22,1a1.82,1.82,0,0,0-1.6,2l.67,5.7h0A25.88,25.88,0,0,0,127.86,14h0l-4.6-3.37a1.83,1.83,0,0,0-2.56.4L116,17.44a1.82,1.82,0,0,0,.4,2.55l5,3.63h0a25.93,25.93,0,0,0-1.69,10.68h0l-5.26,1.32a1.83,1.83,0,0,0-1.32,2.23l1.94,7.7a1.82,1.82,0,0,0,2.22,1.32l5.56-1.4h0a26.24,26.24,0,0,0,5,6.49h0L124,58.11h0l9.82,6.16h0l4-6.4h0a26.17,26.17,0,0,0,8.09,1.23h0l1.47,7.08h0l11.35-2.35h0l-1.53-7.4h0a25.85,25.85,0,0,0,6.68-4.71h0l4.56,3.14a1.72,1.72,0,0,0,2.39-.44l4.63-6.72A1.71,1.71,0,0,0,175,45.3L170.21,42h0a25.9,25.9,0,0,0,1.56-8ZM147.44,42.5A10.81,10.81,0,0,1,134.9,29.09a10.06,10.06,0,0,1,5.2-6.58,10.77,10.77,0,1,1,7.34,20Z"/><rect class="cls-5" x="56.78" y="65.26" width="109.48" height="90.01"/><path class="cls-6" d="M65.09,48.84H158a8.31,8.31,0,0,1,8.31,8.31v8.1a0,0,0,0,1,0,0H56.78a0,0,0,0,1,0,0v-8.1A8.31,8.31,0,0,1,65.09,48.84Z"/><rect class="cls-7" x="131.11" y="54.3" width="6.55" height="6.55" rx="3.11"/><rect class="cls-8" x="141.31" y="54.3" width="6.55" height="6.55" rx="3.11"/><rect class="cls-9" x="151.51" y="54.3" width="6.55" height="6.55" rx="3.11"/><rect class="cls-10" x="74.87" y="54.3" width="51.44" height="6.55" rx="3.11"/><rect class="cls-11" x="60.28" y="53.1" width="9.36" height="8.94" rx="3.83"/><rect class="cls-12" x="49.02" y="55.67" width="109.48" height="90.01"/><path d="M57.33,39.25h92.86a8.31,8.31,0,0,1,8.31,8.31v8.1a0,0,0,0,1,0,0H49a0,0,0,0,1,0,0v-8.1A8.31,8.31,0,0,1,57.33,39.25Z"/><rect class="cls-7" x="123.35" y="44.71" width="6.55" height="6.55" rx="3.11"/><rect class="cls-8" x="133.55" y="44.71" width="6.55" height="6.55" rx="3.11"/><rect class="cls-9" x="143.74" y="44.71" width="6.55" height="6.55" rx="3.11"/><rect class="cls-10" x="67.11" y="44.71" width="51.44" height="6.55" rx="3.11"/><rect class="cls-11" x="52.52" y="43.52" width="9.36" height="8.94" rx="3.83"/><rect class="cls-10" x="40.86" y="47.03" width="109.48" height="90.01"/><path class="cls-2" d="M86.39,113l-12.16,5.16a15.36,15.36,0,1,1-12-28.28L74.39,84.7a15.36,15.36,0,0,1,12,28.28ZM65.58,97.75a6.79,6.79,0,1,0,5.3,12.5L83,105.08a6.78,6.78,0,1,0-5.3-12.49Z"/><path class="cls-4" d="M128.71,95l-12.16,5.16a15.36,15.36,0,1,1-12-28.28l12.16-5.16a15.36,15.36,0,0,1,12,28.28ZM107.9,79.79a6.79,6.79,0,1,0,5.3,12.5l12.16-5.17a6.78,6.78,0,1,0-5.3-12.49Z"/><path class="cls-2" d="M111.57,90.26l-27,11.45a4.28,4.28,0,1,1-3.34-7.89l27-11.45a4.29,4.29,0,1,1,3.35,7.89Z"/><path class="cls-13" d="M109.53,89.51,100,93.61a3.4,3.4,0,0,1-4.45-1.77l-.13-.31a3.39,3.39,0,0,1,1.78-4.44l9.54-4.1a3.39,3.39,0,0,1,4.45,1.77l.13.3A3.39,3.39,0,0,1,109.53,89.51Z"/><rect class="cls-13" x="82.56" y="90.98" width="12.1" height="7.1" rx="3.39" transform="translate(-30.11 42.63) rotate(-23.24)"/><rect class="cls-13" x="58.67" y="88.91" width="13.93" height="7.1" rx="3.37" transform="translate(-31.15 33.39) rotate(-23.23)"/><rect class="cls-11" x="119.25" y="88.49" width="13.93" height="7.1" rx="3.37" transform="translate(-26.07 57.26) rotate(-23.24)"/><rect class="cls-11" x="125.81" y="68.18" width="7.1" height="7.1" rx="3.37" transform="translate(-17.8 56.83) rotate(-23.23)"/><rect class="cls-13" x="66.29" y="109.51" width="21.06" height="7.1" rx="3.39" transform="translate(-38.37 39.48) rotate(-23.24)"/><path class="cls-6" d="M49.17,30.61H142a8.31,8.31,0,0,1,8.31,8.31V47a0,0,0,0,1,0,0H40.86a0,0,0,0,1,0,0v-8.1A8.31,8.31,0,0,1,49.17,30.61Z"/><rect class="cls-7" x="115.19" y="36.07" width="6.55" height="6.55" rx="3.11"/><rect class="cls-8" x="125.39" y="36.07" width="6.55" height="6.55" rx="3.11"/><rect class="cls-9" x="135.59" y="36.07" width="6.55" height="6.55" rx="3.11"/><rect class="cls-10" x="58.95" y="36.07" width="51.44" height="6.55" rx="3.11"/><rect class="cls-11" x="44.36" y="34.88" width="9.36" height="8.94" rx="3.83"/></g></g></svg>