<svg xmlns="http://www.w3.org/2000/svg" viewBox="0 0 27.01 23.32"><defs><style>.cls-1{fill:#fa5;}</style></defs><g id="Layer_2" data-name="Layer 2"><g id="Option_1" data-name="Option 1"><path class="cls-1" d="M27,10.9h0L23,1h1.92a.48.48,0,0,0,.48-.48A.47.47,0,0,0,24.91,0H2a.49.49,0,0,0-.48.48A.49.49,0,0,0,2,1H4L0,10.8A.39.39,0,0,0,0,11a4.71,4.71,0,0,0,9.42,0,.39.39,0,0,0,0-.18L5.43,1H13V19h-.09a6.36,6.36,0,0,0-3.44,1.26,3.3,3.3,0,0,0-1.38,2.56.47.47,0,0,0,.48.48h9.83a.48.48,0,0,0,.48-.48,3.28,3.28,0,0,0-1.39-2.56A6.3,6.3,0,0,0,14,19h-.09V1h7.62L17.62,10.8a1.16,1.16,0,0,0,0,.18A4.72,4.72,0,0,0,27,11S27,10.93,27,10.9Zm-18.62.69a3.74,3.74,0,0,1-3.67,3.15h0A3.75,3.75,0,0,1,1,11.59l0-.12H8.4Zm-.16-1.08h-7L4.72,1.77Zm9.56,11.72,0,.13H9.08l.05-.13C9.58,20.92,11.4,20,13.45,20S17.32,20.92,17.78,22.23ZM22.27,1.78l3.5,8.73h-7ZM26,11.59a3.72,3.72,0,0,1-3.6,3.14h-.1a3.73,3.73,0,0,1-3.67-3.15l0-.12H26Z"/></g></g></svg>