<svg xmlns="http://www.w3.org/2000/svg" viewBox="0 0 220.07 172.84"><defs><style>.cls-1{isolation:isolate;}.cls-2,.cls-7{fill:#75c189;}.cls-2{opacity:0.25;}.cls-3{fill:#c2c2c2;}.cls-4{fill:#fff;}.cls-5{fill:#006be1;}.cls-6{fill:#fa5;}.cls-12,.cls-18,.cls-21,.cls-8{fill:none;}.cls-8{stroke:#dcdcdc;}.cls-18,.cls-8{stroke-miterlimit:10;}.cls-9{fill:#171223;}.cls-10{fill:#f97341;}.cls-11{fill:#a4614e;}.cls-12{stroke:#8a453a;stroke-width:0.42px;}.cls-12,.cls-21{stroke-linecap:round;stroke-linejoin:round;}.cls-13{fill:#1a1a1a;}.cls-14{fill:#231b22;}.cls-15{fill:#100f11;}.cls-16{fill:#925041;}.cls-17{fill:#e7ae22;}.cls-18{stroke:#fff;}.cls-19{fill:#ffd371;}.cls-20{fill:#f3a3a6;}.cls-21{stroke:#bf717a;stroke-width:0.42px;}.cls-22{fill:#f16854;}.cls-23{fill:#ee6432;}.cls-24{fill:#8f8f8f;}.cls-25{fill:#eaeaea;mix-blend-mode:multiply;}</style></defs><g class="cls-1"><g id="Layer_2" data-name="Layer 2"><g id="Option_1" data-name="Option 1"><path class="cls-2" d="M112.43,10.17C174,15.25,199.27,37.3,199.27,37.3S237.82,61.43,210,113.89c-22.17,41.75-91.72,71.65-123.15,53.56S59.91,130.16,26.32,99,2.89,46.23,10.25,35.44C10.25,35.44,33,3.61,112.43,10.17Z"/><rect class="cls-3" x="45.7" y="30.02" width="153.99" height="103" rx="4"/><rect class="cls-4" x="42.71" y="26.66" width="153.99" height="103" rx="4"/><path class="cls-5" d="M58.6,33.35a2.19,2.19,0,1,1-2.19-2.19A2.19,2.19,0,0,1,58.6,33.35Z"/><path class="cls-6" d="M65.88,33.35a2.19,2.19,0,1,1-2.19-2.19A2.19,2.19,0,0,1,65.88,33.35Z"/><path class="cls-7" d="M73.16,33.35A2.19,2.19,0,1,1,71,31.16,2.19,2.19,0,0,1,73.16,33.35Z"/><rect class="cls-8" x="54.22" y="48.44" width="60.1" height="70.21" rx="1.76"/><rect class="cls-8" x="129.75" y="48.44" width="51.23" height="21.5" rx="1.76"/><rect class="cls-8" x="63.63" y="58.39" width="41.1" height="39.34" rx="3.64"/><line class="cls-8" x1="64.92" y1="104.92" x2="103.49" y2="104.92"/><line class="cls-8" x1="64.92" y1="110.98" x2="86.64" y2="110.98"/><path class="cls-9" d="M12.31,50.76c2.46,1.3,5.28.77,6.3-1.18S18.49,45,16,43.71,10.76,43,9.74,44.9,9.86,49.47,12.31,50.76Z"/><path class="cls-10" d="M15.71,50.5a3.06,3.06,0,1,0,2-3.83A3.06,3.06,0,0,0,15.71,50.5Z"/><path class="cls-9" d="M30.85,52.89a7.8,7.8,0,0,1-7.64,8,7.8,7.8,0,0,1-7.63-8,7.32,7.32,0,0,1,7.63-7.39A7.32,7.32,0,0,1,30.85,52.89Z"/><path class="cls-11" d="M23,71.34h0c-1.65-.09-3.33-1.13-3.24-2.78l1-11,6,.33-.57,10.62A3,3,0,0,1,23,71.34Z"/><path class="cls-9" d="M22.19,59.85a5.32,5.32,0,0,0,4.08,5.37l.09-2.5L21.7,59.85"/><path class="cls-11" d="M27,63.31h0c-3.1,0-5.61-2.25-5.61-5V49.24l5.18-.48c1.93,0,4.51,3,4.51,4.68l-.09,5C31,60.43,29.65,63.31,27,63.31Z"/><path class="cls-11" d="M30.43,54.19l1.46,2.9a.43.43,0,0,1-.39.69h-2Z"/><path class="cls-12" d="M29,58.73a3.17,3.17,0,0,0,1.9.3"/><path class="cls-13" d="M30.39,55.28a.46.46,0,0,1-.46.46.46.46,0,0,1,0-.92A.46.46,0,0,1,30.39,55.28Z"/><path class="cls-13" d="M28,54.19h2.18a.43.43,0,0,0,0-.85h-2.1a.42.42,0,0,0-.08.84Z"/><path class="cls-9" d="M31,52.71a5,5,0,0,1-1.57-2.17L28.62,50l-2.33-.73L24,50l-.82.51s1.56,1.7.66,2.17L22.36,56s-7.2-4.44-1.14-8a5.53,5.53,0,0,1,2.62-.89,5.34,5.34,0,0,1,2.52.81s4.73.29,4.65,4.75"/><path class="cls-9" d="M21.22,52.71h11a5.51,5.51,0,0,0-5.2-5.8C21.69,46.33,21.22,52.71,21.22,52.71Z"/><path class="cls-13" d="M20.49,60.32s1.21,0,1.47-2.3l-2.67-1Z"/><path class="cls-11" d="M18.79,56.47a2.1,2.1,0,1,0,4.19.16,2.1,2.1,0,0,0-4.19-.16Z"/><polygon class="cls-11" points="9.19 146.88 6.13 143.42 19.09 133.77 22.84 138.01 9.19 146.88"/><path class="cls-14" d="M6.7,142.52l5,5.7,1.63,5.7a3.61,3.61,0,0,1-1.11,3.61h0L2.31,146Z"/><path class="cls-14" d="M11.93,148.85l.58-2.71a1.94,1.94,0,0,0-3.3-.22Z"/><path class="cls-15" d="M28.82,88.69s6.28,23.44,7.2,28.06,2.78,13.87-1.11,17.19-13.06,8.7-13.06,8.7L15,136.33l4.5-6.27Z"/><polygon class="cls-11" points="20.24 164.3 15.62 164.3 16.97 148.2 22.64 148.2 20.24 164.3"/><path class="cls-14" d="M15.33,163.28h7.61l5.34,2.55a3.61,3.61,0,0,1,2,3.22h0L15,168.87Z"/><path class="cls-14" d="M23.53,163.55l-1.64-2.23a2,2,0,0,0-2.36,2.33Z"/><path class="cls-14" d="M28.82,88.69l.62,35.36a19.88,19.88,0,0,1-.3,3.78L24.9,151.57h-11s2.34-16.64-.66-46.11c0,0-2.15-12.79,3.76-16.7Z"/><path class="cls-16" d="M30.13,72.07,38.24,78l8.13-11.92,2.74,1.51s-3.29,11.2-7.68,16.86a2.8,2.8,0,0,1-3.26.87,44.79,44.79,0,0,1-12.3-7.77Z"/><path class="cls-17" d="M32.41,73.56,26.77,83l-5.46-4.2a5.37,5.37,0,0,1-1.21-7.21h0A5.37,5.37,0,0,1,28,70.32Z"/><path class="cls-11" d="M46.37,66.06l2.74,1.51,3.37-4.64s-5.14-2.26-5.1-2.18S46.37,66.06,46.37,66.06Z"/><path class="cls-11" d="M46.37,66.06c.08-.25-.8-3.44-1-4.56a.47.47,0,0,1,.45-.54h0a.46.46,0,0,1,.43.25l1.07,2.35Z"/><path class="cls-11" d="M47.38,60.75,48,59.66a.53.53,0,0,1,.66-.33h0a.46.46,0,0,1,.31.55L48.21,62Z"/><path class="cls-11" d="M48.66,61.27l1.4-1.68a.53.53,0,0,1,.69-.23h0a.45.45,0,0,1,.23.57l-1.33,2.4Z"/><path class="cls-11" d="M49.94,62.07l1.52-2.27a.57.57,0,0,1,.77-.18h0a.49.49,0,0,1,.17.69l-1.53,2.61Z"/><path class="cls-11" d="M52.48,62.93l.87-1.38a.4.4,0,0,0-.12-.57h0a.47.47,0,0,0-.59.08l-1.77,1.86Z"/><rect class="cls-7" x="40.11" y="51.73" width="42.3" height="41.75" rx="3.97"/><polyline class="cls-18" points="49.57 84.17 58.56 72.67 63.67 76.2 72.8 65.13"/><polyline class="cls-18" points="70.53 64.94 73.08 64.93 73.29 67.37"/><path class="cls-19" d="M19.21,67.11s-6,5.55-2.2,21.65l11.81-.07s3.37-11.4-.91-18.59Z"/><path class="cls-11" d="M19.21,67.11a12.78,12.78,0,0,0,8.7,3l-3.78-4.46H20Z"/><path class="cls-19" d="M27.91,70.1s8.13,3.67,2.15,10-6.5-5-6.5-5Z"/><path class="cls-11" d="M28.17,75.24,34.56,83l10.83-9.53,2.28,2.15s-6,10-11.62,14.42a2.82,2.82,0,0,1-3.38,0,45,45,0,0,1-10-10.59Z"/><path class="cls-19" d="M30,77.25,22.21,85,18,79.53a5.38,5.38,0,0,1,.62-7.29h0a5.37,5.37,0,0,1,7.93.77Z"/><path class="cls-11" d="M45.39,73.45l2.28,2.15,4.42-3.66s-4.41-3.46-4.4-3.38S45.39,73.45,45.39,73.45Z"/><path class="cls-11" d="M45.39,73.45c.15-.22.08-3.53.16-4.66a.48.48,0,0,1,.58-.41h0a.44.44,0,0,1,.35.35l.46,2.54Z"/><path class="cls-11" d="M47.69,68.56l1.14-1.8a.53.53,0,0,1,.73-.15h0a.45.45,0,0,1,.16.61L48.18,70Z"/><path class="cls-11" d="M48.8,69.38l2-2.19a.53.53,0,0,1,.73,0h0a.46.46,0,0,1,.07.62l-2.11,2.9Z"/><path class="cls-11" d="M49.84,70.48l2-1.83a.57.57,0,0,1,.79,0h0a.49.49,0,0,1,0,.71l-2.13,2.15Z"/><path class="cls-11" d="M52.09,71.94l1.19-1.13a.4.4,0,0,0,0-.58h0a.47.47,0,0,0-.59-.06l-2.18,1.36Z"/><path class="cls-7" d="M185.69,42h18.16a1.51,1.51,0,0,1,1.51,1.51v8.43a1.51,1.51,0,0,1-1.51,1.51H184.17a0,0,0,0,1,0,0V43.51A1.51,1.51,0,0,1,185.69,42Z"/><polygon class="cls-7" points="184.18 51.09 184.16 56.15 188.48 51.1 184.18 51.09"/><path class="cls-4" d="M198.34,47.6a1,1,0,1,0,1-1A.95.95,0,0,0,198.34,47.6Z"/><path class="cls-4" d="M194.25,47.58a1,1,0,1,0,1-.95A1,1,0,0,0,194.25,47.58Z"/><path class="cls-4" d="M190.16,47.57a1,1,0,1,0,1-1A1,1,0,0,0,190.16,47.57Z"/><rect class="cls-6" x="80.43" width="50.37" height="13.82" rx="1.38"/><line class="cls-18" x1="85.67" y1="5.25" x2="119.76" y2="5.25"/><line class="cls-18" x1="85.67" y1="8.57" x2="96.45" y2="8.57"/><polygon class="cls-6" points="85.67 12.25 85.67 18.62 92.44 12.25 85.67 12.25"/><path class="cls-14" d="M148.5,38.65a3.87,3.87,0,0,1,4,3.25,2.92,2.92,0,0,1,1.63-.58,3,3,0,0,1,3.41,2.28c9.5-1,.59,12.94.59,12.94l-.72-5.38-.26-6a3,3,0,0,1-5.73.09,3.83,3.83,0,0,1-2.55,1.14,3.86,3.86,0,1,1-.37-7.71Z"/><path class="cls-20" d="M158.59,52.14l-.2,10.6A3.6,3.6,0,0,1,155,66.25h0a3.58,3.58,0,0,1-3.74-3.52l-.16-8.9Z"/><path class="cls-14" d="M157.86,54.59s0,7-6.65,6.11l-.06-3.2Z"/><path class="cls-20" d="M152.66,59.05h.22a5.86,5.86,0,0,0,5.87-5.86V46.57a1.52,1.52,0,0,0-1.51-1.51h-7.72a2.71,2.71,0,0,0-2.71,2.71v5.42A5.86,5.86,0,0,0,152.66,59.05Z"/><path class="cls-14" d="M152.62,51.31a.48.48,0,1,0,.44-.52A.48.48,0,0,0,152.62,51.31Z"/><path class="cls-14" d="M147.87,51.31a.48.48,0,0,0,.95-.07.48.48,0,1,0-.95.07Z"/><path class="cls-21" d="M149.76,51.75l-.15,1.15s.08.72,1.11.44"/><path class="cls-14" d="M154.36,49.45h-.09l-2.16-.08a.44.44,0,1,1,0-.87l2.16.08a.44.44,0,0,1,.06.87Z"/><path class="cls-14" d="M148.77,49.38h-.09l-1.32-.05a.44.44,0,0,1-.42-.45.43.43,0,0,1,.45-.42l1.32,0a.44.44,0,0,1,.06.87Z"/><path class="cls-4" d="M149.13,54.59h3.65s-.13,1.12-2,1.07C149.22,55.62,149.13,54.59,149.13,54.59Z"/><path class="cls-14" d="M158.59,52.14s-3.36-.77-2.72-5.87l-8.51-.14.2-2.08,9.45.13a2.3,2.3,0,0,1,2.25,2.52Z"/><path class="cls-20" d="M157.41,52a1.89,1.89,0,1,0,1.89-1.88A1.89,1.89,0,0,0,157.41,52Z"/><polygon class="cls-20" points="162.11 163.65 168.59 163.65 167.68 154.61 161.19 154.61 162.11 163.65"/><path class="cls-14" d="M168.59,162.61h-8.22l-6.85,2.86a4.08,4.08,0,0,0-2.21,3.63h18.32Z"/><path class="cls-14" d="M159.7,162.91l1.85-2.51a2.18,2.18,0,0,1,2.64,2.63Z"/><path class="cls-22" d="M165.86,93.94s1.85,5.35,1.29,13.94l3.42,49.21H158.36l-4-36.13-1.76-27.09Z"/><rect class="cls-20" x="143.61" y="152.1" width="6.49" height="8.77" transform="translate(323.9 277.74) rotate(167.59)"/><path class="cls-14" d="M150.73,159l-8,1.77-6.07,4.27a4.08,4.08,0,0,0-1.38,4h0l17.39-3.83Z"/><path class="cls-14" d="M142.11,161.25l1.27-2.84a2.18,2.18,0,0,1,3.15,2Z"/><path class="cls-22" d="M144,94.47l-11.59,29a6.78,6.78,0,0,0-.38,4.1l8.47,28.38,12.13-2.57-7.21-26.45,15.81-32.48Z"/><path class="cls-23" d="M153.68,109.86l-.12-6.44s-5.43,10.23-6.77,20.58Z"/><path class="cls-24" d="M144.62,63.78s-4.88,2.47-4.47,19.49l6.61.41-.84-18.27Z"/><path class="cls-3" d="M154.91,62.26l-9.53,1.22c-1.71.23-2.53,3-2.43,4l1,27,22-.06,2.07-26.3c.27-2.14-1-4.67-3-4.72Z"/><path class="cls-20" d="M150.44,62.83l4.47-.82,4.9.79s-.42,4.08-6.59,3.36a4.45,4.45,0,0,1-2.45-1A1.7,1.7,0,0,1,150.44,62.83Z"/><polygon class="cls-24" points="167.03 80.53 162.19 72.85 162.19 89.73 167.03 80.53"/><rect class="cls-6" x="129.22" y="77.63" width="71.86" height="31.43" rx="3.91"/><line class="cls-18" x1="138.04" y1="86.52" x2="192.19" y2="86.52"/><line class="cls-18" x1="138.04" y1="92.6" x2="169.24" y2="92.6"/><line class="cls-18" x1="150.05" y1="99.45" x2="158.47" y2="99.45"/><line class="cls-18" x1="138.04" y1="99.45" x2="145.33" y2="99.45"/><path class="cls-3" d="M159.27,68.46s6,8.85,11.3,18a4.35,4.35,0,0,0,3.34,1.69h0c2.67.11,4-2.65,3.24-5.06,0,0-9.26-18.49-10.41-18.91C166.57,64.06,159.27,68.46,159.27,68.46Z"/><polygon class="cls-20" points="171.69 105.91 171.85 101.62 176.7 101.9 176.54 105.91 171.69 105.91"/><path class="cls-20" d="M172.66,104.38a4.14,4.14,0,1,1-3.18,4.92A4.14,4.14,0,0,1,172.66,104.38Z"/><path class="cls-3" d="M170.07,85.72l.39,16.66,7.8-.43-.61-17.31a3.83,3.83,0,0,0-5.24-3h0A3.83,3.83,0,0,0,170.07,85.72Z"/><ellipse id="_Path_" data-name="&lt;Path&gt;" class="cls-25" cx="43.92" cy="167.86" rx="43.92" ry="4.27"/><ellipse id="_Path_2" data-name="&lt;Path&gt;" class="cls-25" cx="167.96" cy="169.2" rx="41.91" ry="3.6"/></g></g></g></svg>