<svg xmlns="http://www.w3.org/2000/svg" xmlns:xlink="http://www.w3.org/1999/xlink" viewBox="0 0 701.57 195.91"><defs><style>.cls-1,.cls-11,.cls-14{fill:none;}.cls-17,.cls-2,.cls-27,.cls-6{isolation:isolate;}.cls-3{fill:#e8e8e8;mix-blend-mode:multiply;}.cls-4{fill:#cb7a63;}.cls-5{fill:#ffab4b;}.cls-6{opacity:0.2;}.cls-7{fill:#273237;}.cls-8{fill:#007cff;}.cls-9{fill:#db802d;}.cls-10{fill:#b64c3c;}.cls-11,.cls-14{stroke:#273237;stroke-linecap:round;stroke-linejoin:round;}.cls-11{stroke-width:0.92px;}.cls-12,.cls-17{fill:#fff;}.cls-13{fill:#fc5652;}.cls-14{stroke-width:0.63px;}.cls-15{fill:#dfdfdf;}.cls-16{fill:#ffd469;}.cls-17{opacity:0.3;}.cls-18{fill:#77bf8a;}.cls-19{fill:#589e64;}.cls-20,.cls-27{fill:#fbbaa6;}.cls-21{fill:#ea883b;}.cls-22{fill:#b1b1b1;}.cls-23{fill:#f99c4f;}.cls-24{fill:#cacaca;}.cls-25{fill:#0b223e;}.cls-26{fill:#d37e89;}.cls-27{opacity:0.65;}.cls-28{fill:#fbd845;}.cls-29{fill:#d88040;}.cls-30{fill:#fca85d;}.cls-31{fill:url(#linear-gradient);}.cls-32{clip-path:url(#clip-path);}.cls-33{fill:url(#linear-gradient-2);}.cls-34{clip-path:url(#clip-path-2);}.cls-35{fill:url(#linear-gradient-3);}.cls-36{fill:url(#linear-gradient-4);}.cls-37{clip-path:url(#clip-path-3);}.cls-38{fill:#30388c;}.cls-39{clip-path:url(#clip-path-4);}.cls-40{clip-path:url(#clip-path-5);}.cls-41{clip-path:url(#clip-path-6);}.cls-42{clip-path:url(#clip-path-7);}.cls-43{clip-path:url(#clip-path-8);}.cls-44{clip-path:url(#clip-path-9);}.cls-45{clip-path:url(#clip-path-10);}.cls-46{clip-path:url(#clip-path-11);}.cls-47{clip-path:url(#clip-path-12);}.cls-48{clip-path:url(#clip-path-13);}.cls-49{fill:#231f20;}</style><linearGradient id="linear-gradient" x1="554.89" y1="-488.92" x2="569.89" y2="-465.31" gradientTransform="matrix(1, 0.04, 0.04, -1, 145.6, -360.96)" gradientUnits="userSpaceOnUse"><stop offset="0" stop-color="#f89940"/><stop offset="1" stop-color="#fbc56a"/></linearGradient><clipPath id="clip-path"><path class="cls-1" d="M679.23,149.57c1,4.33,7.85,5.25,10.44,1.54,2.77-4-1.75-9.93,2.48-13.23,1.71-1.32,2.41-1.26,4-2.72s0-4.13,2.18-7.38-1.9-5.66-5.3-3.43c-2.27,1.49-3.75,4.08-5.63,6-1.3,1.28-3.63.35-3.92,3.5a35.16,35.16,0,0,1-1,6.2c-.38,1.41-2,2.12-2.65,3.35A9.74,9.74,0,0,0,679.23,149.57Z"/></clipPath><linearGradient id="linear-gradient-2" x1="533.85" y1="-453.36" x2="543.95" y2="-474.44" gradientTransform="matrix(1, 0.04, 0.04, -1, 145.6, -360.96)" gradientUnits="userSpaceOnUse"><stop offset="0" stop-color="#fbc56a"/><stop offset="1" stop-color="#f89940"/></linearGradient><clipPath id="clip-path-2"><path class="cls-1" d="M670.73,149.85c-2,.39-4.11-2.26-5-3.78-1.43-2.44-2.24-5.58-1.5-8.17.59-2.07,1.65-4.54.79-6.67s-2.64-2.35-3.78-4.44c-2-3.6-.08-5.51,0-7.6.09-3-1.45-3.42-1.32-6.41.09-2.47,3.5-3.86,5.36-2.48,4.85,3.58,3.17,5.65,5.34,8.66s4.9.11,5.16,10.3c.06,2.27-.81,4.44-.38,6.73.23,1.16.89,2.11,1.22,3.24C677.57,142.74,674.49,149.11,670.73,149.85Z"/></clipPath><linearGradient id="linear-gradient-3" x1="555.33" y1="-484.02" x2="547.75" y2="-438.88" gradientTransform="matrix(1, 0.04, 0.04, -1, 145.6, -360.96)" gradientUnits="userSpaceOnUse"><stop offset="0" stop-color="#26a37e"/><stop offset="1" stop-color="#38c590"/></linearGradient><linearGradient id="linear-gradient-4" x1="545.23" y1="-490.06" x2="529.48" y2="-470.75" xlink:href="#linear-gradient-3"/><clipPath id="clip-path-3"><path class="cls-1" d="M674,152.59c-1.3,4.73-8.08,4.58-9.5.54-1.28-3.68,1.41-7.34-2.71-9.76-1.5-.88-2.65-.88-4.17-2.5s-.72-3.41-1.14-5.14c-.15-.6-2-2.55-2.21-3.15-.94-3.09,2.92-5.91,5.43-3.13,2.1,2.32,4.67,2.52,6.69,4.28a14.4,14.4,0,0,1,3.39,4.06c1,2,.75,4.22,1.41,6.33.41,1.32,1.84,1.85,2.51,3C674.79,148.88,674.54,150.74,674,152.59Z"/></clipPath><clipPath id="clip-path-4"><path class="cls-1" d="M677.21,187.43a12.56,12.56,0,0,1-12.54-12.55V162a1.05,1.05,0,0,1,1.06-1.06h23a1.05,1.05,0,0,1,1.06,1.06h0v12.89a12.55,12.55,0,0,1-12.55,12.55Z"/></clipPath><clipPath id="clip-path-5"><rect class="cls-1" x="685.79" y="152.3" width="11.99" height="11.99"/></clipPath><clipPath id="clip-path-6"><rect class="cls-1" x="685.79" y="164.3" width="11.99" height="11.99"/></clipPath><clipPath id="clip-path-7"><rect class="cls-1" x="685.79" y="176.29" width="11.99" height="11.99"/></clipPath><clipPath id="clip-path-8"><rect class="cls-1" x="673.8" y="152.3" width="11.99" height="11.99"/></clipPath><clipPath id="clip-path-9"><rect class="cls-1" x="673.8" y="164.3" width="11.99" height="11.99"/></clipPath><clipPath id="clip-path-10"><rect class="cls-1" x="673.8" y="176.29" width="11.99" height="11.99"/></clipPath><clipPath id="clip-path-11"><rect class="cls-1" x="661.81" y="152.3" width="11.99" height="11.99"/></clipPath><clipPath id="clip-path-12"><rect class="cls-1" x="661.81" y="164.3" width="11.99" height="11.99"/></clipPath><clipPath id="clip-path-13"><rect class="cls-1" x="661.81" y="176.29" width="11.99" height="11.99"/></clipPath></defs><g class="cls-2"><g id="Layer_2" data-name="Layer 2"><g id="Layer_2-2" data-name="Layer 2"><ellipse id="_Path_" data-name="&lt;Path&gt;" class="cls-3" cx="57.28" cy="187.91" rx="46.25" ry="8"/><path class="cls-4" d="M84.28,39.07l10.23-5.94a20.48,20.48,0,0,0,4.88-.23c2.63-.45,3.22-.48,2.9-2.57s.13-4.87-.66-5.16-6.36,2.06-7.33,3.66L84,32.52Z"/><path class="cls-5" d="M54,29V40.9s2.55.84,5.71,1.72c3.62,1,8,2.07,10.36,2,4.3-.21,18.88-7.78,18.88-7.78l-2.65-5s-15.9,5.42-17.89,5S54,29,54,29Z"/><path class="cls-6" d="M54,34.78V40.9s2.55.84,5.71,1.72C58.52,39.07,55.61,36.18,54,34.78Z"/><path class="cls-4" d="M51.31,71.41s7.18,38.26,9.09,54c2.51,20.5,12.74,50.48,12.74,50.48l-4.09,1.06s-14.43-25.48-17.24-48.41C40.35,105.09,39.42,76.24,39.42,76.24Z"/><path class="cls-7" d="M80.76,185.13a6.13,6.13,0,0,0-2.1-.53h0s-2.52-1.48-5-7.23l-2.81,0a2.31,2.31,0,0,0-2.15,1.54,1.36,1.36,0,0,0-.08.39,15.22,15.22,0,0,0,.22,2,56,56,0,0,0,1.63,6.6l.48-.12-.86-4.19c-.29-1.42,1.2,0,1.9,1.39s1.75,2.87,4.85,2.17C80.44,186.3,81.89,185.78,80.76,185.13Z"/><path class="cls-4" d="M43.85,70.8s-.89,38.92-2.26,54.69c-1.79,20.57,2,52,2,52l-4.22.18s-8.85-27.91-6.86-50.92c-6.37-25.29-1.3-53.71-1.3-53.71Z"/><path class="cls-7" d="M50.18,186.41a5.93,5.93,0,0,0-2-.75h0s-2.34-1.75-4.2-7.74l-2.79-.32a2.31,2.31,0,0,0-2.3,1.31,1.47,1.47,0,0,0-.13.37,17.35,17.35,0,0,0,0,2,54.79,54.79,0,0,0,.92,6.73l.48-.07-.4-4.25c-.14-1.45,1.2.08,1.73,1.58s1.44,3.05,4.59,2.68C49.73,187.54,51.23,187.18,50.18,186.41Z"/><path class="cls-7" d="M29.59,4.6s-2.1.12-3.87,3.57.44,7.28.89,9.12,2.65,3.45-1,6.23-5.82,5.72-2.87,8.73-.29,5.31,4,7.52,20-1.11,22-5.41-.41-7.58-.54-8.87,2.52-2.6,3.19-6.8-2.73-5.11-3.19-7,1.67-4.35,0-8.43S29.82-1.75,29.59,4.6Z"/><path class="cls-5" d="M19,61.91c2.51.32,5.42-4.58,7.52-9.15,1.78-3.88,3-7.52,3-7.52l-1.32-3.73-3.46-9.76S22.37,35.13,18.73,48c-.58,2.07-1.28,4.38-1.93,7a3.08,3.08,0,0,1-.57,1.82h0C16.23,58.69,16,61.52,19,61.91Z"/><path class="cls-6" d="M26.57,52.76c1.79-3.88,3-7.52,3-7.52l-1.33-3.73C27.34,44.09,26,48.77,26.57,52.76Z"/><path class="cls-6" d="M16.23,56.75h0c1.32.88,2.71.86,3.48-.73,1.57-3.23.06-6.42-1-8.06-.58,2.07-1.26,4.38-1.91,7A3,3,0,0,1,16.23,56.75Z"/><path class="cls-8" d="M55.75,60.63S42.53,65.38,29.88,64.5c0,0,1.14-15.64,7.77-18.42S55.75,47.27,55.75,60.63Z"/><path class="cls-9" d="M55.75,60.63S42.53,65.38,29.88,64.5c0,0,1.14-15.64,7.77-18.42S55.75,47.27,55.75,60.63Z"/><path class="cls-8" d="M53.87,61.75,32,63.64a77.84,77.84,0,0,0-2.33-16.06c-.52-2.09-1.18-4.43-2-7.13-.45-1.45-.95-3-1.5-4.67-.42-1.26-.87-2.61-1.37-4a66,66,0,0,1,9.08-2.19,70.18,70.18,0,0,1,9.81-1c4.26,0,9.15.44,9.15.44s.69.17,1.13,4.68C54.36,37.88,54.75,46.35,53.87,61.75Z"/><path class="cls-7" d="M53.77,65l-21.85,1.8c-.34-5.43-.6-12.77-2.24-19.25-.52-2.09-1.18-4.43-2-7.13-.45-1.45-.95-3-1.5-4.67-.42-1.26-.87-2.61-1.37-4a66,66,0,0,1,9.08-2.19,70.18,70.18,0,0,1,9.81-1c4.26,0,9.15.44,9.15.44s.69.17,1.13,4.68C54.36,37.88,54.64,49.63,53.77,65Z"/><path class="cls-4" d="M41.88,33.36c-5.39-.69-7-3-7-3,3.42-3.23.58-8.82.58-8.82l6.49,1.21a19.17,19.17,0,0,0-.26,2.73c0,3.94,1.73,4,1.73,4C44.55,31.6,41.88,33.36,41.88,33.36Z"/><path class="cls-6" d="M41.94,22.76a19.17,19.17,0,0,0-.26,2.73,7.21,7.21,0,0,1-6.23-3.94Z"/><path class="cls-4" d="M38.35,4.63C44,4.32,46,7.24,46.7,13c.91,7.24-.41,12.48-7.55,11.32C29.46,22.76,29,5.14,38.35,4.63Z"/><path class="cls-10" d="M43,12.91a11.86,11.86,0,0,0,1.77,2.25,1.56,1.56,0,0,1-1.45.72Z"/><path class="cls-7" d="M39.56,12.64c0,.46-.18.85-.49.88s-.59-.33-.62-.8.18-.85.49-.88S39.53,12.17,39.56,12.64Z"/><path class="cls-7" d="M38.81,11.88l1-.48S39.35,12.29,38.81,11.88Z"/><path class="cls-7" d="M45.31,12.09c0,.46-.19.86-.5.88s-.58-.33-.62-.79.18-.86.49-.88S45.27,11.63,45.31,12.09Z"/><path class="cls-7" d="M44.55,11.33l1-.47S45.1,11.74,44.55,11.33Z"/><path class="cls-11" d="M39.29,8.75a3,3,0,0,0-2.4,1"/><path class="cls-11" d="M43.38,8.28a2.64,2.64,0,0,1,2.27.34"/><path class="cls-7" d="M42.66,18.14a14.15,14.15,0,0,0-.55,2h-.37c-1.65-.08-2.39-.66-2.71-1.28a2.19,2.19,0,0,1-.22-1,1.9,1.9,0,0,1,.08-.57,7.69,7.69,0,0,0,3.2.81A5.56,5.56,0,0,0,42.66,18.14Z"/><path class="cls-12" d="M42.09,18.1l-.17.59c-1.56-.08-2.64-.34-3.11-.83a1.9,1.9,0,0,1,.08-.57A7.69,7.69,0,0,0,42.09,18.1Z"/><path class="cls-13" d="M41.74,20.12c-1.65-.08-2.39-.66-2.71-1.28a5.46,5.46,0,0,1,1.82.45A2,2,0,0,1,41.74,20.12Z"/><path class="cls-7" d="M32.71,14.47s2.38-4.78,1.79-8.33c0,0,10.92-5.18,12.09,6.13,0,0,.54-10.13-9.16-9.82s-8.89,14.48-3.65,18.43C33.78,20.88,31.24,17.45,32.71,14.47Z"/><path class="cls-4" d="M33.7,15.61a2.49,2.49,0,0,0-2.79-2.12c-1.74.29-2.37,3.92,2,4.54C33.56,18.12,33.88,17.5,33.7,15.61Z"/><path class="cls-4" d="M29.88,31s6.32,5.14,12.21,5,8-6.7,8-6.7A33.52,33.52,0,0,0,29.88,31Z"/><path class="cls-5" d="M30.41,30s10.4,18.59-.53,34.5c0,0-1.49-19.62-5.09-32.75Z"/><path class="cls-5" d="M49.47,28.53s.1,13.16,2,18,4.3,14.05,4.3,14.05S57.57,38.71,54,29Z"/><path class="cls-14" d="M34.5,6.14s4.19-1.46,7.89,0,2.69,5.28,4.57,6"/><path class="cls-15" d="M1.16,26.15l1.74-1,6.37,1.75,8.64-2.24,2,6.54s.42,7.29,0,7.37-9.85.58-9.85.58L5.22,36.1Z"/><polygon class="cls-16" points="20.2 25.16 24.01 40.24 12.25 41.56 4.14 39.33 0 25.16 9.27 27.57 20.2 25.16"/><polygon class="cls-17" points="9.27 27.57 12.25 41.56 24.01 40.25 20.2 25.16 9.27 27.57"/><path class="cls-4" d="M19.6,55.22,14.13,44.73a20.25,20.25,0,0,0,0-4.89c-.33-2.65-.33-3.24-2.43-3s-4.86-.35-5.19.43,1.77,6.45,3.32,7.49L13,55.22Z"/><path class="cls-9" d="M21.36,61c-3.48,3-7.45.42-9.66-8.08L18.55,52Z"/><polygon class="cls-7" points="18.2 50.15 19.6 52.62 10.93 53.79 10.93 51.25 18.2 50.15"/><polygon class="cls-7" points="89.28 37.44 86.88 38.95 85.31 30.35 87.85 30.23 89.28 37.44"/><path class="cls-16" d="M53.77,65l13.78,81s-33.35,4-44.65,1.65c0,0-2.78-57.95,9-80.81Z"/><path class="cls-7" d="M97.14,28.08c2-1.77,3.86-3.58,5.79-5.37l5.71-5.46c1.91-1.8,3.76-3.68,5.65-5.51L117.1,9l1.41-1.38.7-.69.36-.35c.13-.1.21-.25,0-.74L121.3,7.6c-.49-.27-.65-.18-.75,0l-.34.35-.7.7L118.12,10l-2.78,2.8c-1.84,1.88-3.72,3.72-5.54,5.62l-5.48,5.68c-1.8,1.93-3.62,3.82-5.39,5.77Z"/><path class="cls-4" d="M73.14,175.86s3.5,7.33,5.52,8.74c0,0-2.71,1.61-5.52-2-3.64-4.63-4.53-3.34-4.53-3.34a12.52,12.52,0,0,1,.44-2.36C69.6,175.42,73.14,175.86,73.14,175.86Z"/><path class="cls-4" d="M43.18,175.8s1,2.71,2.32,5.69a12.93,12.93,0,0,0,2.65,4.17s-2.3.74-3.55-.7-3.36-6.65-5.74-6.05a5.3,5.3,0,0,1,.53-1.22C39.74,177.1,43.18,175.8,43.18,175.8Z"/><ellipse class="cls-3" cx="601.41" cy="189.6" rx="100.16" ry="6"/><g id="Layer_2-3" data-name="Layer 2"><g id="Layer_8" data-name="Layer 8"><path class="cls-18" d="M655.22,160.94c-2.31,6.4-8.29,22.21-12.47,26.84l-56.23.21s-9.45-9.7-12-14c-13.7-22.29-9.37-33.9.37-39.74.35-.21.7-.41,1.07-.6,11.53-6.18,29.51-5.11,35.23-4l.21,0c18.92,3.82,26.83-55.27,42.19-46.34,1.37.81,2.59,2.58,3.63,5.09C662.87,102.38,663.11,139,655.22,160.94Z"/><path class="cls-19" d="M657.17,88.47A57.32,57.32,0,0,1,656,98.84c-5.62,28.28-5.85,38.33-14.48,46.46-4.81,4.53-38.66,13.53-55.17,3.17-9.49-6-10.32-10.54-10.4-14.77,11.53-6.17,29.51-5.11,35.23-4l.21,0c18.91,3.81,26.82-55.28,42.18-46.35C654.91,84.19,656.13,86,657.17,88.47Z"/><path class="cls-18" d="M510.86,166.51c1.08,3.93-1.95,18.53,6.25,20.35,9.64,2.14,33.73,1.43,38-.72s8.2-13.56,6.06-24.62c-1.27-6.58-2-12.18-6.38-15.08l-.22-.14a1.27,1.27,0,0,0-.22-.13c-3-1.77-7.74-2.39-15.27-1.37-6.06.83-17.44-1.84-22.52,1.1a8.51,8.51,0,0,0-1.86,1.46l-.22.23-.17.19C509.86,152.9,509.93,163.08,510.86,166.51Z"/><path class="cls-19" d="M514.5,147.59a9.88,9.88,0,0,0,2.79.56,10,10,0,0,1,3.53.83,18.93,18.93,0,0,1,3.39,2.2,4.43,4.43,0,0,0,1.9,1,12.8,12.8,0,0,0,1.55.57,19.21,19.21,0,0,0,4.79-.09c5.77-.8,13.82-1.28,17.7-2.53a8.2,8.2,0,0,0,4.46-3.79l-.23-.14c-3-1.76-7.73-2.38-15.26-1.36-6.06.82-17.44-1.84-22.53,1.1a9,9,0,0,0-1.85,1.45Z"/><path class="cls-20" d="M540.73,144.15s0-.34-1.94.25c-1.45.44-1.17-.14-4-3s-3.16-3.28-1.91-3.91.94-.71,2.31.88c2.64,3.09,5.1,2.14,5.1,2.14Z"/><path class="cls-21" d="M534.32,137.31s-1.17.21-.6,1.57,2.72,3.56,3.16,4.31a2.73,2.73,0,0,0,1.93,1.21c.3-.11-1.53,1.48-2.78.88s-1.35-3.06-2.44-4.17c-1.87-1.89-2.76-4.15-2.21-5.35C532.11,134.24,534.32,137.31,534.32,137.31Z"/><path class="cls-22" d="M637.63,131s3.5,6.76-4.66,10.26-23.31,2.09-29.14.93-18.88-4-18.88-4-5.83,3.5-10.49,4.19c-10.23,1.54-34,2-34,2L539,140.1s43.82-10.92,47.79-10.92,36.82.7,36.82.7Z"/><path class="cls-20" d="M548.41,148.25s-.09-.37-2.12.53c-1.56.69-1.33,0-4.89-2.86s-3.93-3.23-2.64-4.09,1-.92,2.68.68c3.33,3.09,5.95,1.71,5.95,1.71Z"/><path class="cls-23" d="M540.38,141.49s-1.28.39-.44,1.82,3.47,3.6,4.07,4.38a3,3,0,0,0,2.29,1.09c.33-.15-1.51,1.85-3,1.32s-1.9-3.22-3.26-4.31c-2.32-1.87-3.61-4.26-3.13-5.68C537.51,138.36,540.38,141.49,540.38,141.49Z"/><path class="cls-24" d="M639,134.75s3.41,6.56-4.66,10.26c-7.45,3.41-20.94,4.16-29.14.93-5.53-2.18-17.48-5.83-17.48-5.83a23.91,23.91,0,0,1-9.09,4c-10.24,1.54-31.24,5-31.24,5l-2.8-4.81s39.17-13.76,43.13-13.76,37.29,3,37.29,3Z"/><path class="cls-25" d="M628.15,72.35s-1.32,6.31-2.26,9.16-3.17,3.82-1.42,8.64c1.87,5.17,8.58,4.21,10.31,2.46s3.32-1.77,5.05-.85,5.25,6.1,7.2,1.94C657.64,71.4,628.15,72.35,628.15,72.35Z"/><path class="cls-20" d="M607.38,119s-6.89.88-7.56,1,.1,5.17.1,5.17,7.46-.23,8.93-1S607.38,119,607.38,119Z"/><path class="cls-26" d="M607.85,125.05l15.55-2.56c3.25-1.06,3-2.37,3-2.56l6.64-24.65c.48-2,.55-4-1.62-4.3a6.17,6.17,0,0,0-6.7,4.29s-2.86,17.1-4.19,18.66-13.32,4.34-13.32,4.34C608,121.38,608.34,122,607.85,125.05Z"/><path class="cls-20" d="M593.39,121.05a4.92,4.92,0,0,1,5.56-3.43,4.42,4.42,0,0,1,3.5,5.17l-.09.35a4.92,4.92,0,0,1-5.56,3.42,4.41,4.41,0,0,1-3.49-5.17A3.38,3.38,0,0,1,593.39,121.05Z"/><path class="cls-12" d="M608.07,125.08a14.77,14.77,0,0,0,0-4c0-.13,0-.24,0-.35a6.68,6.68,0,0,0-.62-2.53l-.37.22.18-.11-.18.11a6.57,6.57,0,0,1,.56,2.34c0,.12,0,.23,0,.36a14.06,14.06,0,0,1,0,3.94Z"/><path class="cls-26" d="M646.44,94.47s-3.16-3-12.06-3.45l-.5,0a19.77,19.77,0,0,0-3.92.24c-2.11.31-3.74,3.94-3.75,6.07a9.32,9.32,0,0,1-1.76,6.06c-2.39,3.63-3.09,6.85-1,9.57,1.89,2.39,2.44,9.08-1.12,20.88,0,0,4,3.45,17.58,1.72,0,0-2.11-13.45,2.59-21C646.38,108.33,646.44,94.47,646.44,94.47Z"/><path class="cls-20" d="M631.46,91s-4,6.47-1.82,11.24l.7,1.68s8.42-3.78,10.32-11.53-7.89-1.24-7.89-1.24Z"/><path d="M630.22,104.19l.2-.09c.1,0,9.64-4.22,10.9-14.83l-.44,0c-1.12,9.53-9.06,13.73-10.43,14.38a13.7,13.7,0,0,1,1.18-12.51l-.34-.26A14.13,14.13,0,0,0,630.14,104Z"/><path class="cls-20" d="M639.82,85s-1.69,4.3,0,6.8c0,0-5.51,3.23-8.17-.14,0,0,1.6-5.05.93-7.83C632.08,81.65,639.82,85,639.82,85Z"/><path class="cls-27" d="M632.68,84.24s5.33,1,6.93,0c0,0,.88,7.43.6,8.31a12.94,12.94,0,0,1-7.49-6.28S632.7,84.7,632.68,84.24Z"/><path class="cls-20" d="M630,71.4a6.26,6.26,0,0,0-.52,2.86,24,24,0,0,1-.53,4.49,7.32,7.32,0,0,0,9.13,7.4c5.71-1.14,7.34-7.52,7.4-12.35,0,0-6.07-7.29-10.81-5.82C634.7,68,632.58,67.35,630,71.4Z"/><path class="cls-12" d="M636.27,80.91a5.63,5.63,0,0,1-5.09-.56.21.21,0,0,0-.29.08.18.18,0,0,0,0,.16,3.25,3.25,0,0,0,2.82,2.48,2.8,2.8,0,0,0,2.85-1.79C636.62,81.1,636.44,80.83,636.27,80.91Z"/><path class="cls-25" d="M637.24,69s-7,.1-7.72,5.09c-.24,1.64-2.78,8.51.57,11.31,0,0-4.18-6.24-3.09-10.52,1.33-5.13,2.29-3.91,1.65-5.63s2.94-8.43,8.31-6.2S637.24,69,637.24,69Z"/><path class="cls-20" d="M622.15,126s-1.23,1.81,10.33-2.64c1.65-.64,2.4,5.29,2.4,5.29s.51,1-10.58,2.86C620,132.15,622.15,126,622.15,126Z"/><path class="cls-26" d="M631.46,130.45c1.94-1,9.87-3.14,13.2-4.12a10,10,0,0,0,2.16-.91c1-.61,1.92-1.4,2.18-4,.55-4.11,0-22.8,0-22.8,0-2.33-2-5.84-5.7-5.88-2.33,0-3.15,3.18-3.09,5.51l.21,21.44-10.68,4.21.55,1a21.38,21.38,0,0,1,1,4.46Z"/><path class="cls-20" d="M616.67,128.1a4.91,4.91,0,0,1,5.91-2.77,4.4,4.4,0,0,1,2.89,5.52l-.12.34a4.94,4.94,0,0,1-5.92,2.78,4.41,4.41,0,0,1-2.88-5.53A2,2,0,0,1,616.67,128.1Z"/><path d="M629.93,124.33a.21.21,0,0,0,.11,0l10.51-4.44a.23.23,0,0,0,.13-.21l-.13-12.58a.22.22,0,0,0-.22-.22.22.22,0,0,0-.22.22l.13,12.44-10.38,4.39a.2.2,0,0,0-.1.28.21.21,0,0,0,.16.13Z"/><path class="cls-25" d="M633.8,66.65l-.14-2.12c2.18-6.1,9.21-3.9,11.16-3.14,4.18,1.63,6.36,5.5,10.59,7.33,3.53,1.52,5.61,5.69,4.41,8.38-.44,1,1.07,1.93.88,4.92-.23,3.62-1.22,4.65-3,5.4s-.79,3.38-1.78,5.4c-1.81,3.7-7.94,6.06-11.75,3.53-3.31-2.17-3.65-2.52-4.73-5.32-.75-2-.77-6.27,1-7.93s3.35-2.32,2.7-5.22-3-3.92-6.4-5.45C632.94,70.76,633.8,66.65,633.8,66.65Z"/><path class="cls-20" d="M640.3,79.28a2.11,2.11,0,1,0,4.07.65c.23-1.38-.56-2.79-1.7-2.76A2.3,2.3,0,0,0,640.3,79.28Z"/><path class="cls-28" d="M641.92,81.49a.85.85,0,0,0,.72,1,.86.86,0,0,0,1-.71.87.87,0,0,0-.72-1h0A.88.88,0,0,0,641.92,81.49Z"/><path class="cls-29" d="M618,134.54l-24.6-4.37-4.22-16.81a1.32,1.32,0,0,1,.92-1.62,1.3,1.3,0,0,1,.62,0l21.7,3.86a1.32,1.32,0,0,1,1.06,1Z"/><path class="cls-30" d="M616.51,134.27,591.9,129.9l-4.22-16.81a1.3,1.3,0,0,1,.92-1.62,1.26,1.26,0,0,1,.61,0l21.7,3.86a1.32,1.32,0,0,1,1.07,1Z"/><path class="cls-12" d="M616.75,134.5l-25-4.44-4.25-16.92a1.52,1.52,0,0,1,.36-1.41,1.55,1.55,0,0,1,1.39-.47l21.7,3.86a1.54,1.54,0,0,1,1.21,1.13Zm-24.7-4.75L616.26,134l-4.44-17.71a1.16,1.16,0,0,0-.93-.86l-21.7-3.86a1.17,1.17,0,0,0-1.34,1,1.06,1.06,0,0,0,0,.47Z"/><path class="cls-12" d="M603,123.31a2.76,2.76,0,0,0-2.2-2.38,1.55,1.55,0,0,0-2,1.64,2.77,2.77,0,0,0,2.21,2.37A1.54,1.54,0,0,0,603,123.31Z"/><path class="cls-25" d="M657.67,86.15a3.29,3.29,0,0,1,.88,3.89c-.88,2.67-5.55,5.33-5.55,5.33l1.32-9.56Z"/><path class="cls-31" d="M679.23,149.57c1,4.33,7.85,5.25,10.44,1.54,2.77-4-1.75-9.93,2.48-13.23,1.71-1.32,2.41-1.26,4-2.72s0-4.13,2.18-7.38-1.9-5.66-5.3-3.43c-2.27,1.49-3.75,4.08-5.63,6-1.3,1.28-3.63.35-3.92,3.5a35.16,35.16,0,0,1-1,6.2c-.38,1.41-2,2.12-2.65,3.35A9.74,9.74,0,0,0,679.23,149.57Z"/><g class="cls-32"><path class="cls-12" d="M691.61,132c-3.17,0-.06-6.25.31-6C692,126,689.55,132,691.61,132Z"/><path class="cls-12" d="M691.16,135c-.63.13-1,0-1-.52-.35.65,6.07-2.58,5.35-3.06C696.33,132,691.73,135,691.16,135Z"/><path class="cls-12" d="M686.49,144.18c-.63.19-1,.06-1.21-.41-.31,1.12,5.32-2,4.69-2.29C691.05,142,686.77,144.18,686.49,144.18Z"/><path class="cls-12" d="M683.84,151.2c-.44.17-.77.08-.94-.28-.15,1.08,8-2.75,6.55-3.36C691,148.19,684.88,151.2,683.84,151.2Z"/></g><path class="cls-12" d="M680.45,165a.21.21,0,0,1-.21-.22,83,83,0,0,1,2.11-12c2.45-10.65,11.66-24.86,11.75-25a.21.21,0,0,1,.28-.09.21.21,0,0,1,.1.28l0,0c-.09.14-9.26,14.3-11.7,24.88a81.09,81.09,0,0,0-2.09,12A.21.21,0,0,1,680.45,165Z"/><path class="cls-33" d="M670.73,149.85c-2,.39-4.11-2.26-5-3.78-1.43-2.44-2.24-5.58-1.5-8.17.59-2.07,1.65-4.54.79-6.67s-2.64-2.35-3.78-4.44c-2-3.6-.08-5.51,0-7.6.09-3-1.45-3.42-1.32-6.41.09-2.47,3.5-3.86,5.36-2.48,4.85,3.58,3.17,5.65,5.34,8.66s4.9.11,5.16,10.3c.06,2.27-.81,4.44-.38,6.73.23,1.16.89,2.11,1.22,3.24C677.57,142.74,674.49,149.11,670.73,149.85Z"/><g class="cls-34"><path class="cls-12" d="M665.68,119.81c1.28,0,1.44-5,1.67-5.07C667.79,114.66,667.92,119.81,665.68,119.81Z"/><path class="cls-12" d="M666.1,124.19c-.44,0-5.43-2.52-4.47-3.17-.79.54,6,3.57,5.73,2.71C667.2,124.24,666.78,124.39,666.1,124.19Z"/><path class="cls-12" d="M668.2,127.2c2.2,0,1.92-7.58,2.23-7.63S671.48,127.2,668.2,127.2Z"/><path class="cls-12" d="M669.16,132.85c-.94,0-5.52-3.44-4.5-4-.88.44,5.73,4.59,5.45,3.6C670,132.88,669.66,133,669.16,132.85Z"/><path class="cls-12" d="M670.93,136.51c2.2,0,3.63-8.3,4.13-8.32C674.82,128.21,674.37,136.51,670.93,136.51Z"/></g><path class="cls-12" d="M674,163.73a.18.18,0,0,1-.18-.18h0c0-.06-.08-5.58-.27-14-.22-9.92-9.73-34.4-9.82-34.66a.19.19,0,0,1,.1-.25h0a.2.2,0,0,1,.24.11c.1.25,9.64,24.81,9.86,34.79.18,8.43.26,14,.26,14a.18.18,0,0,1-.18.19h0Z"/><path class="cls-35" d="M683.42,146.89c-2.8,1.23-7.75.81-10.1-1.66a13,13,0,0,1-3.49-9.88c.24-3.32,2.24-4,3.5-7,1.49-3.47.2-6.18-2.28-9.21-1.76-2.18-2.68-2.67-3.15-5.48-.88-5.4,2.2-6,2.41-8.74.09-1.16-.24-5.11.09-6.23,1.09-3.69,5.89-3.62,8.38-.63,3,3.62,2.36,4.2,3.37,7.46,1.3,4.19,6.71-.53,6.41,13.68-.09,4-1.24,4.71-1.43,7.45-.14,2.1,1.45,5.08,2,7.16a21.39,21.39,0,0,1,.54,5.86C689.49,143.33,685.13,146.14,683.42,146.89Z"/><path class="cls-12" d="M674.45,165.79a.21.21,0,0,1-.15-.07.19.19,0,0,1,0-.28h0c6-5.33,6.54-21.56,6.34-30.76-.32-14.2-5.77-33.39-5.82-33.58a.21.21,0,1,1,.4-.11c0,.19,5.51,19.43,5.83,33.68.21,9.26-.35,25.64-6.48,31.07A.23.23,0,0,1,674.45,165.79Z"/><path class="cls-12" d="M677.31,110.31a.21.21,0,0,1-.21-.19.2.2,0,0,1,.18-.22h0c2.91-.32,3.08-7.1,3.08-7.17a.23.23,0,0,1,.22-.2.2.2,0,0,1,.2.21h0c0,.29-.21,7.22-3.48,7.57Z"/><path class="cls-12" d="M676.77,116.79c-4.56,0-7.75-6.17-7.79-6.25a.21.21,0,1,1,.37-.19c0,.08,4,7.68,9.17,5.7a.2.2,0,0,1,.27.1h0a.21.21,0,0,1-.12.27A5.13,5.13,0,0,1,676.77,116.79Z"/><path class="cls-12" d="M679.3,120.31a.22.22,0,0,1-.21-.2.21.21,0,0,1,.19-.22h0c5.69-.29,6.38-10.82,6.39-10.92a.21.21,0,1,1,.41,0c0,.44-.72,11-6.78,11.32Z"/><path class="cls-12" d="M680.55,129.83a.21.21,0,0,1-.21-.19.2.2,0,0,1,.18-.22h0c4.63-.44,6.61-7.29,6.64-7.36a.2.2,0,0,1,.25-.14h0a.2.2,0,0,1,.14.25h0c-.08.29-2.09,7.17-7,7.65Z"/><path class="cls-12" d="M680.83,133.74a7.48,7.48,0,0,1-6.57-5.41.2.2,0,0,1,.15-.25.21.21,0,0,1,.26.15h0a6.93,6.93,0,0,0,6.17,5.1.21.21,0,1,1,0,.41Z"/><path class="cls-12" d="M680.84,142.41h0a.2.2,0,0,1-.2-.21h0a.22.22,0,0,1,.2-.21c4.53,0,7.35-7.57,7.38-7.65a.21.21,0,1,1,.39.15C688.49,134.79,685.63,142.41,680.84,142.41Z"/><path class="cls-12" d="M680.67,145.52c-6.15-.22-8.67-7.59-8.7-7.66a.21.21,0,1,1,.4-.14c0,.07,2.46,7.17,8.3,7.38a.22.22,0,1,1,0,.44Z"/><path class="cls-36" d="M674,152.59c-1.3,4.73-8.08,4.58-9.5.54-1.28-3.68,1.41-7.34-2.71-9.76-1.5-.88-2.65-.88-4.17-2.5s-.72-3.41-1.14-5.14c-.15-.6-2-2.55-2.21-3.15-.94-3.09,2.92-5.91,5.43-3.13,2.1,2.32,4.67,2.52,6.69,4.28a14.4,14.4,0,0,1,3.39,4.06c1,2,.75,4.22,1.41,6.33.41,1.32,1.84,1.85,2.51,3C674.79,148.88,674.54,150.74,674,152.59Z"/><g class="cls-37"><path class="cls-12" d="M660.47,135.28c1.09,0,.86-2.2.44-4.31C660.85,130.63,662.76,135.28,660.47,135.28Z"/><path class="cls-12" d="M660.58,139.32c-.32,0-3.76-.76-3.29-1.37-.3.38,6.64,1.56,5.91.35C664.14,139.65,660.61,139.32,660.58,139.32Z"/><path class="cls-12" d="M665.33,141.64c1.51-1,1.57-3.12,1.1-4.39-.08-.22-1.37-4.06-1.17-4.15C665.69,132.87,669.05,141.64,665.33,141.64Z"/><path class="cls-12" d="M667.85,147a7.19,7.19,0,0,0,2.58-4.75C671.18,142.24,669.78,146.57,667.85,147Z"/><path class="cls-12" d="M670.07,153.36c2.74-1.73,2.7-6.61,2.89-6.61C673.49,146.76,672.51,153.36,670.07,153.36Z"/><path class="cls-12" d="M664.82,144.09c-.65,0-4-1.73-3.77-3,.79,1.58,4.64,3.44,5.29,2.26C666.25,144.06,665.74,144.29,664.82,144.09Z"/></g><path class="cls-12" d="M672,163.68a.21.21,0,0,1-.2-.19c0-.1-.8-10.19-5.08-18.65a54.73,54.73,0,0,0-9.49-13.06.21.21,0,0,1,.29-.3h0a54.88,54.88,0,0,1,9.58,13.16c4.32,8.55,5.11,18.71,5.12,18.81a.2.2,0,0,1-.19.22h0Z"/><path class="cls-38" d="M677.21,187.43a12.56,12.56,0,0,1-12.54-12.55v-13a1,1,0,0,1,1-1h23.11a1,1,0,0,1,1,1h0v13a12.55,12.55,0,0,1-12.55,12.55Z"/><g class="cls-39"><g class="cls-40"><path class="cls-12" d="M697.79,164.91a.6.6,0,0,0,.6-.6.6.6,0,0,0-.6-.6.59.59,0,0,0-.6.6h0A.6.6,0,0,0,697.79,164.91Z"/><path class="cls-12" d="M691.79,164.91a.6.6,0,0,0,.6-.6.6.6,0,0,0-1.2,0h0A.6.6,0,0,0,691.79,164.91Z"/><path class="cls-12" d="M697.79,158.9a.6.6,0,1,0,0-1.2.6.6,0,0,0-.6.6h0A.6.6,0,0,0,697.79,158.9Z"/><path class="cls-12" d="M691.79,158.9a.6.6,0,1,0-.6-.6h0A.6.6,0,0,0,691.79,158.9Z"/><path class="cls-12" d="M688.79,161.9a.6.6,0,1,0-.6-.6h0A.6.6,0,0,0,688.79,161.9Z"/><path class="cls-12" d="M694.79,161.9a.6.6,0,1,0-.6-.6h0A.6.6,0,0,0,694.79,161.9Z"/><path class="cls-12" d="M688.79,155.9a.6.6,0,0,0,.6-.6.6.6,0,1,0-1.2,0h0A.6.6,0,0,0,688.79,155.9Z"/><path class="cls-12" d="M694.79,155.9a.6.6,0,0,0,.6-.6.6.6,0,1,0-1.2,0h0A.6.6,0,0,0,694.79,155.9Z"/><path class="cls-12" d="M685.79,164.91a.6.6,0,0,0,.6-.6.6.6,0,0,0-1.2,0h0A.6.6,0,0,0,685.79,164.91Z"/><path class="cls-12" d="M685.79,158.9a.6.6,0,1,0-.6-.6h0A.6.6,0,0,0,685.79,158.9Z"/><path class="cls-12" d="M697.79,152.9a.6.6,0,0,0,.6-.6.6.6,0,0,0-.6-.6.6.6,0,0,0-.6.6h0A.59.59,0,0,0,697.79,152.9Z"/><path class="cls-12" d="M691.79,152.9a.6.6,0,0,0,.6-.6.6.6,0,1,0-1.2,0h0A.6.6,0,0,0,691.79,152.9Z"/><path class="cls-12" d="M685.79,152.9a.6.6,0,0,0,.6-.6.6.6,0,1,0-1.2,0h0A.6.6,0,0,0,685.79,152.9Z"/></g><g class="cls-41"><path class="cls-12" d="M697.79,176.89a.6.6,0,1,0,0-1.2.6.6,0,0,0-.6.6h0A.6.6,0,0,0,697.79,176.89Z"/><path class="cls-12" d="M691.79,176.89a.6.6,0,1,0-.6-.6h0A.6.6,0,0,0,691.79,176.89Z"/><path class="cls-12" d="M697.79,170.9a.6.6,0,0,0,.6-.6.6.6,0,0,0-.6-.6.59.59,0,0,0-.6.6h0A.6.6,0,0,0,697.79,170.9Z"/><path class="cls-12" d="M691.79,170.9a.6.6,0,0,0,.6-.6.6.6,0,1,0-1.2,0h0A.6.6,0,0,0,691.79,170.9Z"/><path class="cls-12" d="M688.79,173.89a.6.6,0,0,0,.6-.6.6.6,0,0,0-1.2,0h0A.6.6,0,0,0,688.79,173.89Z"/><path class="cls-12" d="M694.79,173.89a.6.6,0,0,0,.6-.6.6.6,0,0,0-1.2,0h0A.6.6,0,0,0,694.79,173.89Z"/><path class="cls-12" d="M688.79,167.9a.6.6,0,0,0,.6-.6.6.6,0,1,0-1.2,0h0A.6.6,0,0,0,688.79,167.9Z"/><path class="cls-12" d="M694.79,167.9a.6.6,0,0,0,.6-.6.6.6,0,1,0-1.2,0h0A.6.6,0,0,0,694.79,167.9Z"/><path class="cls-12" d="M685.79,176.89a.6.6,0,1,0-.6-.6h0A.6.6,0,0,0,685.79,176.89Z"/><path class="cls-12" d="M685.79,170.9a.6.6,0,0,0,.6-.6.6.6,0,1,0-1.2,0h0A.6.6,0,0,0,685.79,170.9Z"/><path class="cls-12" d="M697.79,164.91a.6.6,0,0,0,.6-.6.6.6,0,0,0-.6-.6.59.59,0,0,0-.6.6h0A.6.6,0,0,0,697.79,164.91Z"/><path class="cls-12" d="M691.79,164.91a.6.6,0,0,0,.6-.6.6.6,0,0,0-1.2,0h0A.6.6,0,0,0,691.79,164.91Z"/><path class="cls-12" d="M685.79,164.91a.6.6,0,0,0,.6-.6.6.6,0,0,0-1.2,0h0A.6.6,0,0,0,685.79,164.91Z"/></g><g class="cls-42"><path class="cls-12" d="M697.79,188.89a.6.6,0,0,0,.6-.6.6.6,0,0,0-.6-.6.59.59,0,0,0-.6.6h0A.6.6,0,0,0,697.79,188.89Z"/><path class="cls-12" d="M691.79,188.89a.6.6,0,0,0,.6-.6.6.6,0,0,0-1.2,0h0A.6.6,0,0,0,691.79,188.89Z"/><path class="cls-12" d="M697.79,182.89a.6.6,0,1,0,0-1.2.6.6,0,0,0-.6.6h0A.6.6,0,0,0,697.79,182.89Z"/><path class="cls-12" d="M691.79,182.89a.6.6,0,1,0-.6-.6h0A.6.6,0,0,0,691.79,182.89Z"/><path class="cls-12" d="M688.79,185.89a.6.6,0,1,0-.6-.6h0A.6.6,0,0,0,688.79,185.89Z"/><path class="cls-12" d="M694.79,185.89a.6.6,0,1,0-.6-.6h0A.6.6,0,0,0,694.79,185.89Z"/><path class="cls-12" d="M688.79,179.9a.6.6,0,1,0-.6-.6h0A.6.6,0,0,0,688.79,179.9Z"/><path class="cls-12" d="M694.79,179.9a.6.6,0,1,0-.6-.6h0A.6.6,0,0,0,694.79,179.9Z"/><path class="cls-12" d="M685.79,188.89a.6.6,0,0,0,.6-.6.6.6,0,0,0-1.2,0h0A.6.6,0,0,0,685.79,188.89Z"/><path class="cls-12" d="M685.79,182.89a.6.6,0,1,0-.6-.6h0A.6.6,0,0,0,685.79,182.89Z"/><path class="cls-12" d="M697.79,176.89a.6.6,0,1,0,0-1.2.6.6,0,0,0-.6.6h0A.6.6,0,0,0,697.79,176.89Z"/><path class="cls-12" d="M691.79,176.89a.6.6,0,1,0-.6-.6h0A.6.6,0,0,0,691.79,176.89Z"/><path class="cls-12" d="M685.79,176.89a.6.6,0,1,0-.6-.6h0A.6.6,0,0,0,685.79,176.89Z"/></g><g class="cls-43"><path class="cls-12" d="M685.79,164.91a.6.6,0,0,0,.6-.6.6.6,0,0,0-1.2,0h0A.6.6,0,0,0,685.79,164.91Z"/><path class="cls-12" d="M679.79,164.91a.6.6,0,1,0,0-1.2.59.59,0,0,0-.6.59h0A.61.61,0,0,0,679.79,164.91Z"/><path class="cls-12" d="M685.79,158.9a.6.6,0,1,0-.6-.6h0A.6.6,0,0,0,685.79,158.9Z"/><path class="cls-12" d="M679.79,158.9a.6.6,0,1,0-.59-.6A.6.6,0,0,0,679.79,158.9Z"/><path class="cls-12" d="M676.8,161.9a.6.6,0,1,0-.6-.6h0A.6.6,0,0,0,676.8,161.9Z"/><path class="cls-12" d="M682.79,161.9a.6.6,0,1,0,0-1.2.6.6,0,0,0-.6.6h0A.6.6,0,0,0,682.79,161.9Z"/><path class="cls-12" d="M676.8,155.9a.6.6,0,0,0,.6-.6.6.6,0,1,0-1.2,0h0A.6.6,0,0,0,676.8,155.9Z"/><path class="cls-12" d="M682.79,155.9a.59.59,0,0,0,.6-.6.6.6,0,0,0-.6-.6.6.6,0,0,0-.6.6h0A.6.6,0,0,0,682.79,155.9Z"/><path class="cls-12" d="M673.8,164.91a.6.6,0,0,0,.6-.6.6.6,0,0,0-1.2,0h0A.6.6,0,0,0,673.8,164.91Z"/><path class="cls-12" d="M673.8,158.9a.6.6,0,1,0-.6-.6h0A.6.6,0,0,0,673.8,158.9Z"/><path class="cls-12" d="M685.79,152.9a.6.6,0,0,0,.6-.6.6.6,0,1,0-1.2,0h0A.6.6,0,0,0,685.79,152.9Z"/><path class="cls-12" d="M679.79,152.9a.59.59,0,0,0,.61-.59.62.62,0,0,0-.6-.61.6.6,0,0,0-.6.6h0A.6.6,0,0,0,679.79,152.9Z"/><path class="cls-12" d="M673.8,152.9a.6.6,0,0,0,.6-.6.6.6,0,1,0-1.2,0h0A.6.6,0,0,0,673.8,152.9Z"/></g><g class="cls-44"><path class="cls-12" d="M685.79,176.89a.6.6,0,1,0-.6-.6h0A.6.6,0,0,0,685.79,176.89Z"/><path class="cls-12" d="M679.79,176.89a.6.6,0,0,0,.11-1.2h-.11a.6.6,0,0,0,0,1.2Z"/><path class="cls-12" d="M685.79,170.9a.6.6,0,0,0,.6-.6.6.6,0,1,0-1.2,0h0A.6.6,0,0,0,685.79,170.9Z"/><path class="cls-12" d="M679.79,170.9a.6.6,0,1,0,0-1.2.59.59,0,0,0-.6.59h0A.61.61,0,0,0,679.79,170.9Z"/><path class="cls-12" d="M676.8,173.89a.6.6,0,0,0,.6-.6.6.6,0,0,0-1.2,0h0A.6.6,0,0,0,676.8,173.89Z"/><path class="cls-12" d="M682.79,173.89a.59.59,0,0,0,.6-.6.6.6,0,0,0-.6-.6.6.6,0,0,0-.6.6h0A.6.6,0,0,0,682.79,173.89Z"/><path class="cls-12" d="M676.8,167.9a.6.6,0,0,0,.6-.6.6.6,0,0,0-1.2,0h0A.6.6,0,0,0,676.8,167.9Z"/><path class="cls-12" d="M682.79,167.9a.6.6,0,0,0,.6-.6.59.59,0,0,0-.6-.6.6.6,0,0,0-.6.6h0A.6.6,0,0,0,682.79,167.9Z"/><path class="cls-12" d="M673.8,176.89a.6.6,0,1,0-.6-.6h0A.6.6,0,0,0,673.8,176.89Z"/><path class="cls-12" d="M673.8,170.9a.6.6,0,0,0,.6-.6.6.6,0,0,0-1.2,0h0A.6.6,0,0,0,673.8,170.9Z"/><path class="cls-12" d="M685.79,164.91a.6.6,0,0,0,.6-.6.6.6,0,0,0-1.2,0h0A.6.6,0,0,0,685.79,164.91Z"/><path class="cls-12" d="M679.79,164.91a.6.6,0,1,0,0-1.2.59.59,0,0,0-.6.59h0A.61.61,0,0,0,679.79,164.91Z"/><path class="cls-12" d="M673.8,164.91a.6.6,0,0,0,.6-.6.6.6,0,0,0-1.2,0h0A.6.6,0,0,0,673.8,164.91Z"/></g><g class="cls-45"><path class="cls-12" d="M685.79,188.89a.6.6,0,0,0,.6-.6.6.6,0,0,0-1.2,0h0A.6.6,0,0,0,685.79,188.89Z"/><path class="cls-12" d="M679.79,188.89a.6.6,0,1,0,0-1.2.59.59,0,0,0-.6.59h0A.61.61,0,0,0,679.79,188.89Z"/><path class="cls-12" d="M685.79,182.89a.6.6,0,1,0-.6-.6h0A.6.6,0,0,0,685.79,182.89Z"/><path class="cls-12" d="M679.79,182.89a.6.6,0,1,0,0-1.2.59.59,0,0,0-.6.59h0A.6.6,0,0,0,679.79,182.89Z"/><path class="cls-12" d="M676.8,185.89a.6.6,0,1,0-.6-.6h0A.6.6,0,0,0,676.8,185.89Z"/><path class="cls-12" d="M682.79,185.89a.6.6,0,1,0,0-1.2.6.6,0,0,0-.6.6h0A.6.6,0,0,0,682.79,185.89Z"/><path class="cls-12" d="M676.8,179.9a.6.6,0,1,0-.6-.6h0A.6.6,0,0,0,676.8,179.9Z"/><path class="cls-12" d="M682.79,179.9a.6.6,0,0,0,0-1.2.6.6,0,0,0-.6.6h0A.6.6,0,0,0,682.79,179.9Z"/><path class="cls-12" d="M673.8,188.89a.6.6,0,0,0,.6-.6.6.6,0,0,0-1.2,0h0A.6.6,0,0,0,673.8,188.89Z"/><path class="cls-12" d="M673.8,182.89a.6.6,0,1,0-.6-.6h0A.6.6,0,0,0,673.8,182.89Z"/><path class="cls-12" d="M685.79,176.89a.6.6,0,1,0-.6-.6h0A.6.6,0,0,0,685.79,176.89Z"/><path class="cls-12" d="M679.79,176.89a.6.6,0,0,0,.11-1.2h-.11a.6.6,0,0,0,0,1.2Z"/><path class="cls-12" d="M673.8,176.89a.6.6,0,1,0-.6-.6h0A.6.6,0,0,0,673.8,176.89Z"/></g><g class="cls-46"><path class="cls-12" d="M673.8,164.91a.6.6,0,0,0,.6-.6.6.6,0,0,0-1.2,0h0A.6.6,0,0,0,673.8,164.91Z"/><path class="cls-12" d="M667.8,164.91a.6.6,0,0,0,.6-.6.6.6,0,0,0-1.2,0h0A.6.6,0,0,0,667.8,164.91Z"/><path class="cls-12" d="M673.8,158.9a.6.6,0,1,0-.6-.6h0A.6.6,0,0,0,673.8,158.9Z"/><path class="cls-12" d="M667.8,158.9a.6.6,0,1,0-.6-.6h0A.6.6,0,0,0,667.8,158.9Z"/><path class="cls-12" d="M664.81,161.9a.6.6,0,1,0-.6-.6h0A.6.6,0,0,0,664.81,161.9Z"/><path class="cls-12" d="M670.8,161.9a.6.6,0,1,0-.6-.6h0A.6.6,0,0,0,670.8,161.9Z"/><path class="cls-12" d="M664.81,155.9a.6.6,0,0,0,.6-.6.6.6,0,0,0-1.2,0h0A.6.6,0,0,0,664.81,155.9Z"/><path class="cls-12" d="M670.8,155.9a.6.6,0,0,0,.6-.6.6.6,0,1,0-1.2,0h0A.6.6,0,0,0,670.8,155.9Z"/><path class="cls-12" d="M661.81,164.91a.6.6,0,0,0,.6-.6.6.6,0,0,0-1.2,0h0A.6.6,0,0,0,661.81,164.91Z"/><path class="cls-12" d="M661.81,158.9a.6.6,0,1,0-.6-.6h0A.6.6,0,0,0,661.81,158.9Z"/><path class="cls-12" d="M673.8,152.9a.6.6,0,0,0,.6-.6.6.6,0,1,0-1.2,0h0A.6.6,0,0,0,673.8,152.9Z"/><path class="cls-12" d="M667.8,152.9a.6.6,0,0,0,.6-.6.6.6,0,1,0-1.2,0h0A.6.6,0,0,0,667.8,152.9Z"/><path class="cls-12" d="M661.81,152.9a.6.6,0,0,0,.6-.6.6.6,0,0,0-1.2,0h0A.6.6,0,0,0,661.81,152.9Z"/></g><g class="cls-47"><path class="cls-12" d="M673.8,176.89a.6.6,0,1,0-.6-.6h0A.6.6,0,0,0,673.8,176.89Z"/><path class="cls-12" d="M667.8,176.89a.6.6,0,1,0-.6-.6h0A.6.6,0,0,0,667.8,176.89Z"/><path class="cls-12" d="M673.8,170.9a.6.6,0,0,0,.6-.6.6.6,0,0,0-1.2,0h0A.6.6,0,0,0,673.8,170.9Z"/><path class="cls-12" d="M667.8,170.9a.6.6,0,0,0,.6-.6.6.6,0,0,0-1.2,0h0A.6.6,0,0,0,667.8,170.9Z"/><path class="cls-12" d="M664.81,173.89a.59.59,0,0,0,.62-.57.6.6,0,0,0-.58-.62.59.59,0,0,0-.62.57v0A.59.59,0,0,0,664.81,173.89Z"/><path class="cls-12" d="M670.8,173.89a.6.6,0,0,0,.6-.6.6.6,0,0,0-1.2,0h0A.6.6,0,0,0,670.8,173.89Z"/><path class="cls-12" d="M664.81,167.9a.6.6,0,0,0,.6-.6.6.6,0,0,0-1.2,0h0A.6.6,0,0,0,664.81,167.9Z"/><path class="cls-12" d="M670.8,167.9a.6.6,0,0,0,.6-.6.6.6,0,0,0-1.2,0h0A.6.6,0,0,0,670.8,167.9Z"/><path class="cls-12" d="M661.81,176.89a.6.6,0,1,0-.6-.6h0A.6.6,0,0,0,661.81,176.89Z"/><path class="cls-12" d="M661.81,170.9a.6.6,0,0,0,.6-.6.6.6,0,0,0-1.2,0h0A.6.6,0,0,0,661.81,170.9Z"/><path class="cls-12" d="M673.8,164.91a.6.6,0,0,0,.6-.6.6.6,0,0,0-1.2,0h0A.6.6,0,0,0,673.8,164.91Z"/><path class="cls-12" d="M667.8,164.91a.6.6,0,0,0,.6-.6.6.6,0,0,0-1.2,0h0A.6.6,0,0,0,667.8,164.91Z"/><path class="cls-12" d="M661.81,164.91a.6.6,0,0,0,.6-.6.6.6,0,0,0-1.2,0h0A.6.6,0,0,0,661.81,164.91Z"/></g><g class="cls-48"><path class="cls-12" d="M673.8,188.89a.6.6,0,0,0,.6-.6.6.6,0,0,0-1.2,0h0A.6.6,0,0,0,673.8,188.89Z"/><path class="cls-12" d="M667.8,188.89a.6.6,0,0,0,.6-.6.6.6,0,0,0-1.2,0h0A.6.6,0,0,0,667.8,188.89Z"/><path class="cls-12" d="M673.8,182.89a.6.6,0,1,0-.6-.6h0A.6.6,0,0,0,673.8,182.89Z"/><path class="cls-12" d="M667.8,182.89a.6.6,0,1,0-.6-.6h0A.6.6,0,0,0,667.8,182.89Z"/><path class="cls-12" d="M664.81,185.89a.6.6,0,1,0-.6-.6h0A.6.6,0,0,0,664.81,185.89Z"/><path class="cls-12" d="M670.8,185.89a.6.6,0,1,0-.6-.6h0A.6.6,0,0,0,670.8,185.89Z"/><path class="cls-12" d="M664.81,179.9a.6.6,0,1,0-.6-.6h0A.6.6,0,0,0,664.81,179.9Z"/><path class="cls-12" d="M670.8,179.9a.6.6,0,1,0-.6-.6h0A.6.6,0,0,0,670.8,179.9Z"/><path class="cls-12" d="M661.81,188.89a.6.6,0,0,0,.6-.6.6.6,0,0,0-1.2,0h0A.6.6,0,0,0,661.81,188.89Z"/><path class="cls-12" d="M661.81,182.89a.6.6,0,1,0-.6-.6h0A.6.6,0,0,0,661.81,182.89Z"/><path class="cls-12" d="M673.8,176.89a.6.6,0,1,0-.6-.6h0A.6.6,0,0,0,673.8,176.89Z"/><path class="cls-12" d="M667.8,176.89a.6.6,0,1,0-.6-.6h0A.6.6,0,0,0,667.8,176.89Z"/><path class="cls-12" d="M661.81,176.89a.6.6,0,1,0-.6-.6h0A.6.6,0,0,0,661.81,176.89Z"/></g></g><path class="cls-49" d="M629.75,75a1.56,1.56,0,0,0,1.2,1.55,1.12,1.12,0,0,0,1.25-1v-.14c0-.28-.46-.29-.44,0a.66.66,0,0,1-.67.66l-.18,0a1.14,1.14,0,0,1-.7-1.09c0-.29-.47-.29-.44,0Z"/><path class="cls-49" d="M635.79,76.06a1.21,1.21,0,0,0,2.38.33.22.22,0,0,0-.16-.28.23.23,0,0,0-.28.16.76.76,0,0,1-.92.56.75.75,0,0,1-.58-.77.23.23,0,0,0-.27-.17.19.19,0,0,0-.17.17Z"/><path class="cls-49" d="M633.17,76.44l-.2,3.64a.22.22,0,0,0,.22.22h.44a.23.23,0,0,0,.18-.26.24.24,0,0,0-.18-.18h-.44l.22.23.2-3.65a.22.22,0,0,0-.44,0Z"/></g></g></g></g></g></svg>