<svg xmlns="http://www.w3.org/2000/svg" xmlns:xlink="http://www.w3.org/1999/xlink" viewBox="0 0 742 198.54"><defs><style>.cls-1{isolation:isolate;}.cls-2{fill:#e9e9e9;}.cls-17,.cls-2{mix-blend-mode:multiply;}.cls-3{fill:#c4503d;}.cls-4{fill:#456d26;}.cls-5{fill:#2a4117;}.cls-6{fill:#ac4735;}.cls-7{fill:#ffab4b;}.cls-8{fill:#da8038;}.cls-17,.cls-9{fill:#f4a688;}.cls-10{fill:#186f7f;}.cls-11{fill:#1a7887;}.cls-12,.cls-30{fill:#fff;}.cls-13{fill:#8f532e;}.cls-14{fill:#09161c;}.cls-15{fill:#211913;}.cls-16{fill:#33261e;}.cls-17{opacity:0.35;}.cls-18{fill:#0d164e;}.cls-19{fill:#1d8599;}.cls-20{fill:url(#linear-gradient);}.cls-21{fill:url(#linear-gradient-2);}.cls-22{fill:#5260cf;}.cls-23{fill:url(#linear-gradient-3);}.cls-24{fill:#313744;}.cls-25{fill:url(#linear-gradient-4);}.cls-26{fill:url(#linear-gradient-5);}.cls-27{fill:url(#linear-gradient-6);}.cls-28{fill:url(#linear-gradient-7);}.cls-29{fill:url(#linear-gradient-8);}.cls-30{opacity:0.8;}.cls-31{fill:#231f20;}.cls-32{fill:#cb5b54;}.cls-33{fill:#363638;}.cls-34,.cls-38{fill:none;stroke-width:0.84px;}.cls-34{stroke:#000;stroke-miterlimit:10;}.cls-35{fill:#f25a5d;}.cls-36{fill:#260a05;}.cls-37{fill:#551e17;}.cls-38{stroke:#551e17;stroke-linecap:round;stroke-linejoin:round;}.cls-39{fill:#6ea5b2;}</style><linearGradient id="linear-gradient" x1="4079.58" y1="128.45" x2="4092.09" y2="115.95" gradientTransform="matrix(-1, 0, 0, 1, 4217.82, 0)" gradientUnits="userSpaceOnUse"><stop offset="0" stop-color="#7483f6"/><stop offset="1" stop-color="#5260cf"/></linearGradient><linearGradient id="linear-gradient-2" x1="4128.52" y1="140.4" x2="4128.52" y2="130.97" gradientTransform="matrix(1, 0, 0, -1, -4039.21, 241.94)" xlink:href="#linear-gradient"/><linearGradient id="linear-gradient-3" x1="4080.54" y1="93.51" x2="4103.03" y2="119.12" xlink:href="#linear-gradient"/><linearGradient id="linear-gradient-4" x1="45.65" y1="142.22" x2="45.65" y2="208.28" gradientUnits="userSpaceOnUse"><stop offset="0" stop-color="#858585"/><stop offset="1" stop-color="#424242"/></linearGradient><linearGradient id="linear-gradient-5" x1="8.08" y1="134.33" x2="83.22" y2="134.33" gradientUnits="userSpaceOnUse"><stop offset="0" stop-color="#fff"/><stop offset="0.14" stop-color="#fafafa"/><stop offset="1" stop-color="#e9e9e9"/></linearGradient><linearGradient id="linear-gradient-6" x1="58.82" y1="125.44" x2="65.82" y2="125.06" gradientUnits="userSpaceOnUse"><stop offset="0" stop-color="#fff"/><stop offset="1" stop-color="#e9e9e9"/></linearGradient><linearGradient id="linear-gradient-7" x1="73.73" y1="126.71" x2="68.68" y2="125.05" xlink:href="#linear-gradient-6"/><linearGradient id="linear-gradient-8" x1="80.12" y1="134.39" x2="58.11" y2="127.15" xlink:href="#linear-gradient-6"/></defs><g class="cls-1"><g id="Layer_2" data-name="Layer 2"><g id="Layer_5" data-name="Layer 5"><ellipse class="cls-2" cx="707.72" cy="190.49" rx="34.28" ry="7.83"/><ellipse id="_Path_" data-name="&lt;Path&gt;" class="cls-2" cx="87.81" cy="190.58" rx="87.81" ry="7.96"/><polygon class="cls-3" points="25.52 130.99 13.98 130.99 12.84 120.83 26.67 120.83 25.52 130.99"/><path class="cls-4" d="M21,121.29s-1.59-12.06,9.6-15.79c-1.2.66-6.4,10.66-6.46,15.39A3.53,3.53,0,0,1,21,121.29Z"/><path class="cls-4" d="M21.25,117s.47-12.16-11-14.83c1.26.55,7.36,10,7.86,14.72A3.51,3.51,0,0,0,21.25,117Z"/><path class="cls-5" d="M20.15,120.66s-.66-12.15-12.35-13.74c1.3.43,8.26,9.29,9.2,13.93A3.48,3.48,0,0,0,20.15,120.66Z"/><path class="cls-5" d="M21.43,121s6.11-10.51-2.79-18.26c.86,1.08,1.81,12.3.05,16.69A3.49,3.49,0,0,0,21.43,121Z"/><path class="cls-6" d="M26,122.55H13.51a1.35,1.35,0,0,1,0-2.69H26a1.35,1.35,0,1,1,0,2.69Z"/><path class="cls-7" d="M56,157.67c2.54,7.06,9.13,24.46,13.73,29.55l61.88.23s10.4-10.7,13.26-15.35c15.09-24.54,10.32-37.31-.4-43.74q-.57-.35-1.17-.66c-12.7-6.82-32.49-5.63-38.78-4.43l-.23,0c-20.8,4.19-29.53-60.84-46.43-51-1.52.88-2.85,2.83-4,5.61C47.6,93.22,47.33,133.56,56,157.67Z"/><path class="cls-8" d="M53.88,77.92A62.85,62.85,0,0,0,55.2,89.33c6.18,31.12,6.44,42.18,15.93,51.13,5.3,5,42.56,14.89,60.73,3.49,10.44-6.56,11.35-11.6,11.45-16.25-12.7-6.82-32.49-5.63-38.78-4.43l-.23,0c-20.8,4.19-29.53-60.84-46.43-51C56.35,73.19,55,75.14,53.88,77.92Z"/><path class="cls-9" d="M125,106.4a5.57,5.57,0,1,1,7.71-1.58A5.58,5.58,0,0,1,125,106.4Z"/><path class="cls-10" d="M89,70.13a5.34,5.34,0,0,0-2.63,7.14l8.9,19,.43.92a8.63,8.63,0,0,0,1.12,1.68,8.24,8.24,0,0,0,3.24,2.29,6.32,6.32,0,0,0,1,.31l.48.11.25,0,.82.14,1.63.28,6.53,1.1,13.05,2.2,1.62-8.47-12.95-2.77L106,92.7l-1.62-.34-.81-.18-.1,0h0l.17,0a1.62,1.62,0,0,1,.59.38,1.94,1.94,0,0,1,.21.29l-.08-.2-.16-.38L96.11,72.94A5.34,5.34,0,0,0,89,70.13Z"/><path class="cls-11" d="M70.32,123.24c24.78-4.65,23.33,3.83,34.05.06C98.49,109,96,99.24,96.84,77.86c.24-5.94-3.69-11-9.44-11.37l-12-.5c-5.74-.33-11.23,5.51-11.64,13C62.7,97.55,64.74,91.66,70.32,123.24Z"/><path class="cls-12" d="M75.06,67c-.24,1.93,5.79,5.74,10,6s4.87-3,5.11-4.9S87.19,64.41,83,64.09,75.31,65.08,75.06,67Z"/><path class="cls-12" d="M115.41,179.39l-2.72,6.37a2.15,2.15,0,0,1-2,.92,2.51,2.51,0,0,1-2.25-1c-.2-.3,1-5.32,1-5.32Z"/><path class="cls-13" d="M122.55,190.48H114a7.14,7.14,0,0,0-.89-.29c-.39-.09-1.82-.16-1.82-.16l0,.45h-3.63a41.55,41.55,0,0,1,0-4.74.34.34,0,0,1,.47-.29,5.13,5.13,0,0,0,2.43,1c1.08,0,1.9-1.06,2.2-1.1a3.6,3.6,0,0,1,1.14.47s7,3.41,7.91,3.7S122.54,190.19,122.55,190.48Z"/><path class="cls-14" d="M107.73,190.48a9.22,9.22,0,0,1-.06-1.19c1.11,0,2.78,0,3.49,0,.86,0,2.23.65,3,.65h8.33a1.08,1.08,0,0,1,.07.55H114a7.14,7.14,0,0,0-.89-.29c-.39-.09-1.82-.16-1.82-.16l0,.45Z"/><path class="cls-12" d="M137.57,178.74l4.16,6.37a4.29,4.29,0,0,1-2.55.93,2.52,2.52,0,0,1-2.26-1c-.2-.3-5.28-5.32-5.28-5.32Z"/><path class="cls-13" d="M151,189.83h-8.52a8.46,8.46,0,0,0-.89-.29c-.38-.09-1.81-.16-1.81-.16l0,.45h-3.62a39.74,39.74,0,0,1,0-4.74.34.34,0,0,1,.47-.29,5.19,5.19,0,0,0,2.43,1c1.08,0,1.91-1.06,2.2-1.09a3.48,3.48,0,0,1,1.15.46s7,3.41,7.9,3.71S151,189.54,151,189.83Z"/><path class="cls-14" d="M136.19,189.83a7.44,7.44,0,0,1-.07-1.18c1.11,0,2.78,0,3.49,0s2.24.64,3,.64h8.32a1.09,1.09,0,0,1,.08.55h-8.52a8.46,8.46,0,0,0-.89-.29c-.38-.09-1.81-.16-1.81-.16l0,.45Z"/><path class="cls-15" d="M108,181c1.09-14.33,7.39-37.14,9.78-39.38C107,139.74,101.54,137,87.65,137s-15.12-15.61-15.12-15.61,60.69-7.75,63.8,7.52c1.7,8.31-12.68,39.63-19.22,52.09Z"/><path class="cls-16" d="M69.75,121.13s49.68-2.46,52.1,12.81c1.32,8.31,11.1,34.36,18,46.81h-8.13c-28.59-26.07-24.57-33.59-24.11-39.49-8.36-1.85-18.1-.13-27.84-4.76A17.32,17.32,0,0,1,69.75,121.13Z"/><path class="cls-9" d="M76.28,51.49s1.34,13,.72,15.42c2,2.66,9.22,2.77,11.6,2.23.49-2.52.33-11.82-.07-12.24s-6.6-4.16-6.6-4.16Z"/><path class="cls-17" d="M77.65,61.92c-.79-1.06-.8-4.28-1-6.35l5.29,1.17s6.53,3.29,6.93,3.7-.08,4.47-.12,7.89C84.8,67.51,79.24,64.06,77.65,61.92Z"/><path class="cls-9" d="M76.56,48.44s-.19,8,1.77,10.13,9.38,7,13.3,5.57,2.53-18.32,1.93-20.2-3.75-4.76-7.42-5S79.88,37.79,78.9,40A69.74,69.74,0,0,0,76.56,48.44Z"/><path class="cls-18" d="M78.64,50.49A23.71,23.71,0,0,0,81.93,55c.41.28,10,.83,11.25.87s1.16-2.19,1.16-2.19,3.84,11.49-3.57,11.86-13.88-5.67-13.88-7.09S78.64,50.49,78.64,50.49Z"/><path class="cls-18" d="M78.65,55.09l1.09-1.7s-.48-7.28.47-10.4c.89.27,8.64,3.06,13.46.68s2.79-7.48,1-8.77-11.89-1.43-12.78-1-2.44,1.83-2.65,1.77a20.33,20.33,0,0,0-4.82,3.19c-1.63,1.5.34,14.34.34,14.34Z"/><path class="cls-9" d="M77.8,52.63c1.07,1.33,1.14,3.06.16,3.85s-2.66.34-3.73-1-1.14-3.06-.15-3.85S76.73,51.29,77.8,52.63Z"/><path class="cls-12" d="M88.12,57.14c.17.45.94,2.23,2.7,2.25a2.6,2.6,0,0,0,2.49-2.19Z"/><circle class="cls-9" cx="104.56" cy="104.93" r="5.57"/><path class="cls-19" d="M68.71,69.7a5.34,5.34,0,0,0-3.31,6.85l7,19.76.35,1A8.25,8.25,0,0,0,77.65,102a4.42,4.42,0,0,0,.48.15l.24.07.8.22,1.59.43,6.39,1.72,12.79,3.45,2.42-8.27-12.62-4-6.3-2-1.58-.5-.79-.25L81,93l0,0L81,93l.16.07a1.29,1.29,0,0,1,.55.43,1.39,1.39,0,0,1,.18.31c.06.14,0-.1-.06-.21l-.12-.4-6.17-20a5.34,5.34,0,0,0-6.83-3.48Z"/><path d="M102,99.64l.16-.52L81.93,93c-.49-1.51-4.88-15.06-5-15.43A2.15,2.15,0,0,0,75,76.21l0,.55s1.17.06,1.43,1c.12.4,4.84,15,5,15.59l0,.14Z"/><path class="cls-20" d="M97.43,122.56h34.31l9.75-23.88a2,2,0,0,0-1.68-2.86H109.53a1.85,1.85,0,0,0-1.68,1.2Z"/><path class="cls-21" d="M78.79,119.4h21a0,0,0,0,1,0,0v1a2.16,2.16,0,0,1-2.16,2.16H78.79a0,0,0,0,1,0,0V119.4A0,0,0,0,1,78.79,119.4Z" transform="translate(178.61 241.94) rotate(180)"/><path class="cls-12" d="M99.54,122.56h34.31l9.75-23.88a2,2,0,0,0-1.68-2.86H111.64A1.85,1.85,0,0,0,110,97Z"/><path class="cls-22" d="M109.73,96.91a2.1,2.1,0,0,1,1.91-1.36h30.28a2,2,0,0,1,1.75,1,2.48,2.48,0,0,1,.16,2.19l-9.82,24H99.15Zm33.64,1.66a1.92,1.92,0,0,0-.11-1.67,1.56,1.56,0,0,0-1.34-.81H111.64a1.59,1.59,0,0,0-1.45,1L99.92,122.28h33.77Z"/><path class="cls-23" d="M119.88,109.69a4.16,4.16,0,0,1,3.92-2.94,2.32,2.32,0,0,1,2.47,2.94,4.18,4.18,0,0,1-3.92,3A2.33,2.33,0,0,1,119.88,109.69Z"/><rect class="cls-24" x="42" y="139.07" width="7.29" height="50.04"/><path class="cls-24" d="M69.64,189.1h-48l.25-.09a71.33,71.33,0,0,1,23.74-4.07h0A71.33,71.33,0,0,1,69.39,189Z"/><polygon class="cls-25" points="74.64 143.15 16.66 143.15 11.28 133.94 80.02 133.94 74.64 143.15"/><rect class="cls-26" x="8.08" y="131.04" width="75.14" height="6.6" rx="2.41"/><path class="cls-27" d="M55.59,120.39s1.74,9.83,6.61,9.83h4.88s2.43-6.35,4-9.83Z"/><path class="cls-28" d="M67.3,129.05a.7.7,0,0,1,0-1.39c2.12,0,3.45-.75,4-2.24a2.59,2.59,0,0,0-.12-2.31,1.55,1.55,0,0,0-1.32-.61.7.7,0,1,1,0-1.39,2.88,2.88,0,0,1,2.44,1.19,3.91,3.91,0,0,1,.31,3.57C71.87,127.92,70,129.05,67.3,129.05Z"/><path class="cls-29" d="M53.13,128.73c.13,0,1.33.82,2.36,1.52A6.28,6.28,0,0,0,59,131.3h12.8a2.86,2.86,0,0,0,1.9-.73l2.06-1.84Z"/><path class="cls-12" d="M72,131.59l-.25,0a.28.28,0,0,1-.23-.32.27.27,0,0,1,.32-.22c1,.15,2.47-1.15,3.3-2h-22a.28.28,0,0,1,0-.55H75.71a.26.26,0,0,1,.25.16.27.27,0,0,1,0,.29C75.83,129,73.66,131.59,72,131.59Z"/><circle class="cls-7" cx="28.81" cy="63.26" r="13.42"/><circle class="cls-30" cx="28.81" cy="63.26" r="10.12"/><path class="cls-22" d="M33.57,66.82a.3.3,0,0,1-.15,0l-4.76-3.3a.26.26,0,0,1-.11-.21V56.31a.27.27,0,0,1,.53,0v6.81l4.64,3.22a.27.27,0,0,1-.15.48Z"/><path class="cls-22" d="M29.38,63.26a.56.56,0,0,1-.57.56.57.57,0,1,1,.57-.56Z"/><path class="cls-31" d="M94.92,48.38a1.76,1.76,0,0,1-1.34,1.74,1.25,1.25,0,0,1-1.42-1.23c0-.32.52-.32.5,0a.76.76,0,0,0,1,.72,1.29,1.29,0,0,0,.79-1.23c0-.32.53-.32.51,0Z"/><path class="cls-31" d="M88.12,49.55a1.35,1.35,0,0,1-2.67.36.25.25,0,0,1,.48-.13.86.86,0,0,0,1.69-.23.25.25,0,0,1,.5,0Z"/><path class="cls-31" d="M91.08,50c.07,1.36.15,2.73.22,4.09a.25.25,0,0,1-.25.25h-.49a.25.25,0,0,1,0-.5h.49l-.25.25c-.07-1.36-.15-2.73-.22-4.09,0-.33.48-.33.5,0Z"/><polygon class="cls-32" points="693.59 171.09 697.6 187.72 704.69 187.72 702.99 171.09 693.59 171.09"/><path class="cls-12" d="M705.46,184.24s3.08,5,.77,5.85-17.51,1-21.26.4,8.37-5.7,11.14-6.51S699.78,187.4,705.46,184.24Z"/><polygon class="cls-32" points="715.9 171.09 718.33 187.72 725.42 187.72 725.3 171.09 715.9 171.09"/><path class="cls-12" d="M726.19,184.24s3.08,5,.77,5.85-17.51,1-21.26.4,8.37-5.7,11.14-6.51S720.51,187.4,726.19,184.24Z"/><path class="cls-33" d="M727.82,90.72l-.53,88.68H716.05l-7.95-65.15L699,140.69l6.78,38.71H693.59s-10.76-33.46-10.32-40S696.12,88,696.12,88Z"/><polygon points="708.1 114.25 706.91 102.14 705.53 121.73 708.1 114.25"/><line class="cls-34" x1="721.46" y1="89.65" x2="722.12" y2="179.4"/><path class="cls-32" d="M687,50.11s-7.26,13.74-7.43,18,4.49,3.28,6.9-.53,6.25-14.61,6.25-14.61Z"/><path class="cls-7" d="M685.65,51.25a16.09,16.09,0,0,0,7.09,6c1,.47,1.9-.77,2.55-2.23a22.68,22.68,0,0,0,1.18-3.74s5.73-17.72.68-17.08c0,0-4.29.3-7.45,6.52a74,74,0,0,0-3.19,8C686.2,49.57,685.91,50.44,685.65,51.25Z"/><path class="cls-35" d="M685.65,51.25a16.09,16.09,0,0,0,7.09,6c1,.47,1.9-.77,2.55-2.23a27.22,27.22,0,0,1-8.78-6.3C686.2,49.57,685.91,50.44,685.65,51.25Z"/><path class="cls-7" d="M695.85,89c3.17,3.6,24.08,3.07,32,1.73,1.38-.24,2.75-.77.56-5.59-.82-1.8-.46-6.45-.32-12.82.27-12.6,4-33.51-.6-35.91-2.77-1.44-8.64-3.34-12.9-4.64l-.75-.22c-2.49-.74-4.27-1.23-4.27-1.23a50.54,50.54,0,0,0-6.24,1.54l-.71.21c-1.09.33-2.31.72-3.66,1.18-2.62.89-4.54,1.44-5,2.3-1.25,2.29-.77,6.35-.85,12.2C693,55.09,693,85.81,695.85,89Z"/><polygon class="cls-35" points="729.04 58.04 724.53 47.04 727.82 75.33 729.04 58.04"/><path class="cls-35" d="M702.59,32.06A5.84,5.84,0,0,0,704.44,36a6,6,0,0,0,10.12-4.22l-.75-.22c-2.49-.74-4.27-1.23-4.27-1.23a50.54,50.54,0,0,0-6.24,1.54Z"/><path class="cls-36" d="M715.63,9.22s2.68.25,3.75,4.77-4.55,12.23-6.68,11.79C712.7,25.78,709.9,11.21,715.63,9.22Z"/><path class="cls-37" d="M698.37,13a20.2,20.2,0,0,0,1.09,1.84,3.32,3.32,0,0,1,.57,2,6.41,6.41,0,0,1,1.5-3.07,4.06,4.06,0,0,0,.94-3.22c-.3-1.07-2.23-2.74-3.4-2S697.86,11.88,698.37,13Z"/><path class="cls-32" d="M703.31,19l.51,10,.15,2.84a4.54,4.54,0,0,0,9.08-.35l-.13-5.07-.21-8.42Z"/><path class="cls-37" d="M703.31,21l.51,9.38c4.41.17,7.63-1.62,9.1-4l-.21-6.41Z"/><path class="cls-32" d="M699.81,13.25a33.64,33.64,0,0,0,.13,6.83c.53,4.15.34,9,6.46,9.36,6.52.34,8.69-7,8.69-7s3.46-.65,3.7-3a1.88,1.88,0,0,0-3-1.82s-.89-8.74-9-8.74C699.71,8.93,699.81,13.25,699.81,13.25Z"/><path class="cls-37" d="M707.28,19.92c0,.54.29,1,.65,1s.64-.44.64-1-.29-1-.64-1S707.28,19.37,707.28,19.92Z"/><path class="cls-37" d="M701,19.42c0,.54.29,1,.65,1s.65-.44.65-1-.29-1-.65-1S701,18.87,701,19.42Z"/><path class="cls-38" d="M710.48,17.67a2.63,2.63,0,0,0-3-1"/><path class="cls-38" d="M704,16.63a2.08,2.08,0,0,0-2.93.13"/><path class="cls-38" d="M705.25,18.24s-.7,1.78-1.29,2.9,1.16,1.6,1.16,1.6"/><path class="cls-38" d="M707.59,24.74a3,3,0,0,1-3.29.54"/><path class="cls-38" d="M715.92,20.24s0-2,1.52-1.46"/><path class="cls-36" d="M713.94,10.9s-3.67,3.74-1.66,5.17a6.4,6.4,0,0,1,2.59,3.85,4.17,4.17,0,0,1,.94-2.25C716.81,16.21,719,11,713.94,10.9Z"/><path class="cls-36" d="M715.08,11.15c1.23-1.91.32-5.51-3.52-6.11s-6.49.23-7.93-2.35-5.77-4.26-7-.45,1.67,9.57,5.38,9.39,3.53-.64,5.88.75S713.07,14.26,715.08,11.15Z"/><path class="cls-32" d="M734,50.84s7.27,13.75,7.43,18-4.49,3.28-6.9-.53-6.25-14.61-6.25-14.61Z"/><path class="cls-32" d="M682.21,63.42,693.65,55c1.05-.78,2.58-1.92,3.13-2.3.87-.62,6-1.5,6.68-1.38a26.86,26.86,0,0,1,3.24.66c.57.21-.15.94-.72,1.29a19.17,19.17,0,0,1-5.19,2,7.47,7.47,0,0,0-3,1.41c-.66.47-12.09,12.13-12.52,12.41Z"/><path class="cls-32" d="M695.62,53.58s4.09-3.81,4.69-3.76.18.92-1.43,2.22a11.55,11.55,0,0,1-1.61,1.37A2.19,2.19,0,0,1,695.62,53.58Z"/><path class="cls-39" d="M698.87,67.68l14.87,1.78a1.23,1.23,0,0,0,1.34-1.54l-3.55-13.66a1.24,1.24,0,0,0-1-.92L695.6,51.56a1.24,1.24,0,0,0-1.34,1.54l3.55,13.66A1.24,1.24,0,0,0,698.87,67.68Z"/><path class="cls-12" d="M698.2,68.13l14.88,1.78a1.24,1.24,0,0,0,1.34-1.54l-3.55-13.66a1.25,1.25,0,0,0-1-.92L694.94,52a1.24,1.24,0,0,0-1.34,1.54l3.55,13.67A1.24,1.24,0,0,0,698.2,68.13Z"/><path class="cls-39" d="M709.31,57.54l-.7-2.68a.39.39,0,0,1,.43-.49l.72.09a.38.38,0,0,1,.33.29l.7,2.68a.39.39,0,0,1-.43.49l-.72-.08A.39.39,0,0,1,709.31,57.54Z"/><path class="cls-32" d="M738.68,64.74c-4.55.18-18.74-.11-20.62-.75-.8-.28-2.79-.69-3.3-1.48s-.94-2-1.48-2.11-.32,1.25-.19,1.73a4.53,4.53,0,0,0,.69,1.71,13.41,13.41,0,0,1-5.59.08c-1.51-.38-1.23.82-.21,1.33a1,1,0,0,0,.66,1.39s-.19,1.17.83,1.26a1.84,1.84,0,0,0,1.32,1,28.09,28.09,0,0,0,5.2.43c1,0,20.34,3.05,23.76,2.2C741.18,71.22,740.16,64.68,738.68,64.74Z"/><path class="cls-7" d="M725.65,52.69s.33,1.26.82,2.57,1.31,2.91,2,2.77c0,0,10-3.17,9.7-4.19A24.64,24.64,0,0,0,737,51c-1.66-3.45-4.3-8-5.36-9.7-3.63-6-5.12-5.2-5.12-5.2C721.43,35.83,725.65,52.69,725.65,52.69Z"/><path class="cls-35" d="M726.47,55.26c.56,1.43,1.31,2.91,2,2.77,0,0,10-3.17,9.7-4.19A24.64,24.64,0,0,0,737,51,91.39,91.39,0,0,1,726.47,55.26Z"/><path class="cls-35" d="M723.29,83.34s-16.68-2.67-25.66-8A32.42,32.42,0,0,0,723.29,83.34Z"/></g></g></g></svg>