<svg xmlns="http://www.w3.org/2000/svg" viewBox="0 0 27.51 27.52"><defs><style>.cls-1{fill:#4ec0c4;}</style></defs><g id="Layer_2" data-name="Layer 2"><g id="Option_1" data-name="Option 1"><path class="cls-1" d="M19.39,13.74a5.63,5.63,0,1,0-5.62,5.65A5.67,5.67,0,0,0,19.39,13.74Zm-5.67,4.39a4.38,4.38,0,1,1,4.41-4.35A4.43,4.43,0,0,1,13.72,18.13Z"/><path class="cls-1" d="M27.51,18.42a2.42,2.42,0,0,0,0-.38.64.64,0,0,0-.58-.53.61.61,0,0,0-.62.47,1.91,1.91,0,0,0,0,.47c0,2.46,0,4.91,0,7.36v.44h-7.8a2.42,2.42,0,0,0-.47,0,.56.56,0,0,0-.45.47.5.5,0,0,0,.23.6,1.39,1.39,0,0,0,.63.15h8.2c.72,0,.92-.2.92-.91Z"/><path class="cls-1" d="M18,1.22a3.17,3.17,0,0,0,.44,0c2.44,0,4.87,0,7.31,0h.47V1.7c0,2.46,0,4.92,0,7.38a1.87,1.87,0,0,0,0,.47.62.62,0,0,0,1.16.07,1.32,1.32,0,0,0,.06-.49V.86c0-.66-.2-.86-.87-.86H18.06a.62.62,0,0,0-.55.59A.6.6,0,0,0,18,1.22Z"/><path class="cls-1" d="M9.5,26.29a2.09,2.09,0,0,0-.43,0H1.24v-.44c0-2.45,0-4.9,0-7.35a1,1,0,0,0,0-.47c-.1-.17-.25-.39-.43-.43a.66.66,0,0,0-.58.17,1,1,0,0,0-.18.63c0,2.75,0,5.51,0,8.26,0,.7.19.89.91.89h8.2a1.94,1.94,0,0,0,.34,0A.61.61,0,0,0,10,26.9.6.6,0,0,0,9.5,26.29Z"/><path class="cls-1" d="M0,9.42a.62.62,0,0,0,.6.58.59.59,0,0,0,.61-.55,2.82,2.82,0,0,0,0-.41c0-2.45,0-4.9,0-7.36V1.24h.41c2.48,0,4.95,0,7.42,0a2.12,2.12,0,0,0,.44,0,.6.6,0,0,0,.34-1A.77.77,0,0,0,9.16,0H.86C.19,0,0,.19,0,.86V9.13A2.81,2.81,0,0,0,0,9.42Z"/></g></g></svg>