<svg xmlns="http://www.w3.org/2000/svg" viewBox="0 0 49.73 33.69"><defs><style>.cls-1{fill:#fa5;}</style></defs><g id="Layer_2" data-name="Layer 2"><g id="Option_1" data-name="Option 1"><path class="cls-1" d="M48.91,8.85H47.15v-8A.83.83,0,0,0,46.32,0H.82A.82.82,0,0,0,0,.82V9.64a.83.83,0,0,0,.82.83h3v9.72h-3A.83.83,0,0,0,0,21V32.86a.83.83,0,0,0,.82.83H45.71a.82.82,0,0,0,.82-.83v-11h2.38a.82.82,0,0,0,.82-.82V9.67A.82.82,0,0,0,48.91,8.85Zm-40.45,13V32H6.63V21.84Zm1.64,0H36.31V32H10.1Zm27.86,0h1.83V32H38Zm2.55-1.65H12.6V10.6a.41.41,0,0,0,0-.11H40.51v9.7ZM38.05,8.82H36.22V1.65h1.84a.34.34,0,0,0,0,.1ZM34.58,1.75V8.82H11.84V1.75a.34.34,0,0,0,0-.1H34.59A.34.34,0,0,0,34.58,1.75Zm-24.39,0V8.82H8.37V1.75a.34.34,0,0,0,0-.1H10.2S10.19,1.72,10.19,1.75ZM45.5,8.82H39.7V1.75s0-.07,0-.1H45.5ZM1.65,1.65H6.73s0,.07,0,.1V8.82H1.65Zm3.81,8.84H11v9.7H5.46ZM1.65,21.84H5V32H1.65ZM44.89,32H41.43V21.84h3.46Zm3.2-11.85H42.15V10.6a.41.41,0,0,0,0-.11h6Z"/><path class="cls-1" d="M36.59,12.15H16.3a.82.82,0,0,0-.82.82v4.82a.83.83,0,0,0,.82.83H36.59a.83.83,0,0,0,.82-.83V13A.82.82,0,0,0,36.59,12.15ZM35.76,17H17.12V13.79H35.76Z"/><path class="cls-1" d="M28.84,24.31a18.24,18.24,0,0,0-5.72-.82,18.22,18.22,0,0,0-5.71.82c-2.32.79-2.81,1.87-2.81,2.63s.49,1.84,2.81,2.63a18.22,18.22,0,0,0,5.71.82,18.24,18.24,0,0,0,5.72-.82c2.32-.79,2.81-1.87,2.81-2.63S31.16,25.1,28.84,24.31ZM28.31,28a17,17,0,0,1-5.19.72A16.94,16.94,0,0,1,17.94,28c-1.28-.44-1.7-.92-1.7-1.08s.42-.64,1.7-1.08a16.94,16.94,0,0,1,5.18-.72,17,17,0,0,1,5.19.72c1.28.44,1.7.92,1.7,1.08S29.59,27.58,28.31,28Z"/></g></g></svg>