<svg xmlns="http://www.w3.org/2000/svg" viewBox="0 0 687.46 175.52"><defs><style>.cls-1{isolation:isolate;}.cls-2{fill:#eaeaea;mix-blend-mode:multiply;}.cls-3{fill:#4ec0c4;}.cls-4{fill:#231f20;}.cls-5{fill:#2d74b5;}.cls-6{fill:#282733;}.cls-7{fill:#ec9992;}.cls-8{fill:#ffab4b;}.cls-9{fill:#323340;}.cls-10{fill:#db8038;}.cls-11{fill:#fff;}.cls-12{fill:#ee81ab;}.cls-13{fill:#dd769e;}.cls-14{fill:#fc8c6f;}.cls-15,.cls-23{fill:none;stroke:#0d0000;stroke-miterlimit:10;}.cls-15{stroke-width:0.58px;}.cls-16{fill:#72462c;}.cls-17{fill:#283d50;}.cls-18{fill:#835033;}.cls-19{fill:#9a5e3c;}.cls-20{fill:#431b16;}.cls-21{fill:#ef8f79;}.cls-22{fill:#0d0000;}.cls-23{stroke-width:0.37px;}.cls-24{fill:#e5715e;}.cls-25{fill:#314b62;}</style></defs><g class="cls-1"><g id="Layer_2" data-name="Layer 2"><g id="Layer_11" data-name="Layer 11"><ellipse class="cls-2" cx="81.33" cy="169.26" rx="80.48" ry="6.26"/><path class="cls-3" d="M132.7,91.19c-1.3-14-9.25-29.42-19.65-38.44-7.57-6.56-18.67-9.66-28.53-10.07A64.47,64.47,0,0,0,58.78,47.9C50.08,52,43.46,63.65,40,72.8,30.7,97,33.36,118.16,36.82,143.93a29.15,29.15,0,0,0,3.46,10,17.56,17.56,0,0,0,12.53,9.36c12,2.5,21.86-1.31,34.05-.59,8.27.48,16.57,1,24.83.28,7.12-.6,14.82-2.47,19.15-8.35,3.34-4.53,4-10.55,4.3-16.24C136,122.47,132.7,91.19,132.7,91.19Z"/><path class="cls-4" d="M129.55,104.9c-9.71-.25-19.42-.53-29.13-.74-4.7-.1-9.4-.11-14.1,0-4.39.13-8.77.31-13.16.17a46.31,46.31,0,0,1-13.44-2.06c-.21-.08-.12-.41.09-.34,8,2.71,16.75,2.18,25,1.92,9.47-.29,18.91,0,28.37.25l16.33.42a.18.18,0,0,1,0,.35Z"/><path class="cls-5" d="M90.49,26.19c.39-.57-3.86-6.31-5.64-6.88a9,9,0,0,0-11.39,6,12,12,0,0,1-.72,2.14A2.15,2.15,0,0,1,71,28.64c-1,0-1.74-1-2.69-1.39a3,3,0,0,0-2.79.44A6.33,6.33,0,0,0,63.65,30c-.56,1-1.07,2.2-2.12,2.69s-2.37.09-3.54-.21-2.6-.42-3.41.47c-.66.73-.63,1.85-1.08,2.72-.72,1.43-2.54,2-4.14,1.85a5,5,0,0,0-2,.06,3.09,3.09,0,0,0-1.7,2.6c-.53,3.5,1.58,7,4.51,9s6.54,2.71,10.06,3a25.51,25.51,0,0,0,8.32-.35,12.51,12.51,0,0,0,7-4.21c1.7-2.15,2.59-5.08,5-6.45,1.5-.86,3.32-.92,4.9-1.62a11.36,11.36,0,0,0,2.56-1.69A7.35,7.35,0,0,0,90.54,35c1.13-3-.62-5.66-.05-8.76"/><path class="cls-4" d="M89,28.76a1.4,1.4,0,0,1,1.62.62,3.63,3.63,0,0,1,.55,2,4,4,0,0,1-.47,2.13,1.75,1.75,0,0,1-1.6,1,1.91,1.91,0,0,1-1.38-1.1,5.11,5.11,0,0,1-.5-1.95,3.76,3.76,0,0,1,.28-2.17,1.09,1.09,0,0,1,1.62-.51"/><path class="cls-6" d="M69,96.69c4.13,10.21,11.67,7.49,15.33,7.86,5.75.58,11.51,1.17,17.19,2.17,1.8,3.27,2.11,7.12,2.39,10.84q1.2,16.44,2.41,32.87c2,1,6.71,0,9-.21.92-8.76,3.6-42.49,2.89-44.76a17.27,17.27,0,0,0-2.07-4q-2.37-3.78-4.76-7.53a13.05,13.05,0,0,0-3.68-4.29A13.48,13.48,0,0,0,103,88.09c-2.58-.52-11.22-2-13.8-2.49"/><path class="cls-7" d="M87.73,25.5c.73,3,1.45,6.3.38,9.24a4,4,0,0,1-1.47,2,3.47,3.47,0,0,1-2.43.4,6.74,6.74,0,0,1-4.53-3.37,13.11,13.11,0,0,1-1.54-5.57c-.16-1.95,0-4.2,1.57-5.41a5.57,5.57,0,0,1,3-1,4.8,4.8,0,0,1,3,.51A4.56,4.56,0,0,1,87.5,26"/><path class="cls-7" d="M85.84,36.73a24,24,0,0,1,.67,5,13.53,13.53,0,0,1,3.21.47l4.5,1a12.73,12.73,0,0,1,3,.93,4.17,4.17,0,0,1,2.09,2.19c-.52,1.56-2.44,2-4.07,2.24a133.66,133.66,0,0,1-15.5.66A32.78,32.78,0,0,1,73,48.81a16.44,16.44,0,0,1-5.44-2.16,2.86,2.86,0,0,1,1.3-2,7.53,7.53,0,0,1,2.24-1,47.75,47.75,0,0,1,11-1.84,21.49,21.49,0,0,0-.16-6.6A10.34,10.34,0,0,0,86,36.5"/><path class="cls-5" d="M86.65,21.83a4.16,4.16,0,0,1,1.47,2.67,2.65,2.65,0,0,1-.05,1,2.6,2.6,0,0,1-1.7,1.64,9.7,9.7,0,0,1-2.41.38,9.65,9.65,0,0,0-4,1,4.17,4.17,0,0,0-2.22,3.32C76.32,30,76.53,27.3,77.21,25a6.43,6.43,0,0,1,1.94-3.34,5.66,5.66,0,0,1,2.21-1c1.85-.45,4.08-.29,5.3,1.18"/><path class="cls-4" d="M76.53,31.11a2,2,0,0,1,2.61-.69,2.83,2.83,0,0,1,.91.91,5.4,5.4,0,0,1,.9,3.29,2.16,2.16,0,0,1-.39,1.26,1.77,1.77,0,0,1-.46.4,2.64,2.64,0,0,1-2.72-.11,3.79,3.79,0,0,1-1.55-2.34,2.9,2.9,0,0,1,.64-2.8"/><path class="cls-4" d="M89.2,30.56a17.2,17.2,0,0,0-.46-6.21,6.93,6.93,0,0,0-3.29-4,5.65,5.65,0,0,0-5.42.46,9.26,9.26,0,0,0-3.56,4.7,8.76,8.76,0,0,0-.11,6.37,2.52,2.52,0,0,1,1.24-.2,15.13,15.13,0,0,1,0-4.25,8.13,8.13,0,0,1,2.24-5.13,4.79,4.79,0,0,1,6.05,0c1.76,1.39,2.63,5.81,2.63,8.21,0,0,.47,0,.67,0"/><path class="cls-8" d="M98.79,44.6c6.59,4.78,13.55,10,16.28,17.68a9.6,9.6,0,0,1,.65,4.32c-.35,2.69-2.4,4.81-4.41,6.63A106.23,106.23,0,0,1,93.37,86.35c-3.86,2.24-7.86,4.25-11.5,6.82A26.09,26.09,0,0,0,73,103c-.7-1.07-3-2.72-4-5-1.65-3.45-1.1-8.83-.51-12.62a20.72,20.72,0,0,1-6.29,0,8.85,8.85,0,0,1-5.38-3.06,9.66,9.66,0,0,1-1.38-7.6,49.79,49.79,0,0,1,2.49-7.55c1.4-3.92,2.26-8,3.6-12s3.24-7.81,6.32-10.61c2.93,2.52,7.07,2.92,10.93,3.06,3.24.11,18,.64,20-3"/><path class="cls-4" d="M94,80.76c-2.16,0-6.75-.32-9-.18a4.52,4.52,0,0,1,.34-2.09.38.38,0,0,1,.12-.18.42.42,0,0,1,.27,0c2.73.37,5.07-.1,8.25.27-.39.76.23,1.39,0,2.21"/><path class="cls-9" d="M118.33,81.35Q127.84,100,137,118.76a5.33,5.33,0,0,1,.79,3.28,4.69,4.69,0,0,1-1.85,2.53,17.94,17.94,0,0,1-3.51,2.19,1,1,0,0,1-.71.14,1,1,0,0,1-.48-.43L118,108.34c-3.6-4.93-7.22-9.91-9.61-15.53a4.06,4.06,0,0,0-1.06-1.7,3.94,3.94,0,0,0-1.29-.57L92.69,86.48a26.07,26.07,0,0,1,6-10.42,5.41,5.41,0,0,1,1.69-1.32,5.72,5.72,0,0,1,3.67.14,61.68,61.68,0,0,1,14.42,6"/><path class="cls-4" d="M73.27,63.5A49.91,49.91,0,0,0,71.38,71c0,.22-.37.13-.34-.09a50.54,50.54,0,0,1,1.9-7.5c.07-.22.4-.12.33.09Z"/><path class="cls-7" d="M89.19,70.55a5.89,5.89,0,0,1,2.54-.17,7.1,7.1,0,0,1,1.9.59A6.07,6.07,0,0,1,96,72.66a3.42,3.42,0,0,1,.76,2.72,2.37,2.37,0,0,1-1.94,1.91,4.62,4.62,0,0,1-1.33-.12,12.17,12.17,0,0,0-4.17,0c.22-2.28-.79-4.52-.72-6.8"/><path class="cls-8" d="M139.17,120.49c.72,1.7,1.65,3.8,2.37,5.5a.62.62,0,0,0,.24.33.66.66,0,0,0,.37,0,21.59,21.59,0,0,1,5.12-.5,6.62,6.62,0,0,1,4.6,2q-3.47,2.43-7,4.78c-.91.61-1.82,1.22-2.78,1.74-1.23.67-2.53,1.2-3.7,2a13.12,13.12,0,0,1-3.14,1.84.73.73,0,0,1-.41,0c-.2-.06-.31-.27-.41-.45q-2.61-5.29-5.06-10.66a55.88,55.88,0,0,1,9.78-6.63"/><path class="cls-10" d="M152.46,128.16c.46,3-14.14,10.39-16.24,10.69s-1.42-.68-1.53-.85c-.21-.33.19-.66.43-1a19.15,19.15,0,0,1,3.61-3.34c.64-.52,8.46-6,12.55-6.1a1.89,1.89,0,0,1,.75,0,.55.55,0,0,1,.4.54"/><path class="cls-5" d="M56,164.05A56.22,56.22,0,0,0,55.51,154l32.27-.4a15.8,15.8,0,0,1,4.06.31,6.61,6.61,0,0,1,4.58,3.83c.81,2,.31,4.7-1.37,5.87a4.74,4.74,0,0,1-2.45.88c-10.54.6-22.76.37-36.59,0"/><path class="cls-11" d="M56.33,162.51a32,32,0,0,0-.37-6.84l26.77-.27a16.46,16.46,0,0,1,3.37.2,5.32,5.32,0,0,1,3.8,2.62,3.07,3.07,0,0,1-1.14,4,4.45,4.45,0,0,1-2,.6c-8.74.41-18.88.26-30.35,0"/><path class="cls-6" d="M59.49,153.93a63.52,63.52,0,0,0-.31-8.94l23.21-.35a9.26,9.26,0,0,1,2.92.27,5.17,5.17,0,0,1,3.31,3.41c.57,1.79.22,4.18-1,5.22a3.09,3.09,0,0,1-1.77.79c-7.58.52-16.38.32-26.33,0"/><path class="cls-11" d="M59.83,152.92a41.37,41.37,0,0,0-.27-6.77l20.11-.27a9.34,9.34,0,0,1,2.53.2,4.23,4.23,0,0,1,2.86,2.59,3.65,3.65,0,0,1-.86,4,2.85,2.85,0,0,1-1.53.59c-6.57.4-14.18.25-22.8,0"/><path class="cls-5" d="M33.93,122.86a27.65,27.65,0,0,1,6.46-12.26c1.82-2,4.12-4.25,3.57-6.89a1.19,1.19,0,0,0-.41-.77,1.45,1.45,0,0,0-1.38.09l-4.07,1.72C36,99.23,43.31,90,41.6,87.91s-3.29,1.71-3.29,1.71q.52-6.36,1-12.72a5.5,5.5,0,0,0-.52-3.61c-1.27-1.87-4.39-1.38-5.84.36s-1.69,4.16-1.89,6.41q-.41,4.8-.92,9.59a1.14,1.14,0,0,1-.88,1c-.94.19-1.31-1.06-1.9-1.78a2.58,2.58,0,0,0-3.8.29,4.47,4.47,0,0,0-.48,4.15,19.9,19.9,0,0,0,2.05,3.83,26.66,26.66,0,0,1,3.39,9.13c-1.56.66-3.36-1.24-4.92-.24a2.17,2.17,0,0,0-.93,1.81,5.66,5.66,0,0,0,1.75,3.55c3.3,3.94,6.17,7.52,9.47,11.46"/><path class="cls-12" d="M41.53,165.42l2.13-30.5H19.46S20.3,166,20.66,166C22.65,166,41.53,165.42,41.53,165.42Z"/><path class="cls-4" d="M32.92,134.08c1.36-7.39-.17-14.89-.39-22.32a96.53,96.53,0,0,1,.53-11.53q.52-5.72,1.06-11.44.62-6.48,1.21-13c.05-.56.94-.57.89,0Q35.14,87.41,34.07,99a111.84,111.84,0,0,0-.67,11.56c0,3.77.45,7.52.72,11.28a48.36,48.36,0,0,1-.35,12.49c-.1.56-1,.33-.85-.24Z"/><path class="cls-5" d="M39.56,131.36a8.14,8.14,0,0,1,4.56-2.83,30.32,30.32,0,0,1,5.05-.31,6.82,6.82,0,0,0,4.64-1.71c.51-.52.81-1.52.17-1.9s-1.49.2-1.95-.31.19-1.24.77-1.59A61.15,61.15,0,0,0,59,118.85,10.64,10.64,0,0,0,63,113a3.42,3.42,0,0,0-.39-2.82c-1.06-1.37-3.22-1-4.77-.26a15.91,15.91,0,0,0-5.78,4.73,5.37,5.37,0,0,1-1.64,1.68,1.49,1.49,0,0,1-2-.51c-.39-.92.53-2.23-.24-2.86a1.28,1.28,0,0,0-.92-.2c-1.52.15-2.68,1.4-3.58,2.64a27.77,27.77,0,0,0-5.24,16.07"/><path class="cls-5" d="M28.19,126.94a19.67,19.67,0,0,0-5.07-10.56,1.45,1.45,0,0,0-.52-.4c-.51-.19-1.08.29-1.2.82a2.82,2.82,0,0,0,.25,1.61c-1.2.22-2-1.18-2.36-2.33q-1.44-4.23-2.86-8.46c-.35-1-1.38-2.3-2.23-1.62-.45.36-.42,1-.48,1.61s-.47,1.27-1,1.13a1.13,1.13,0,0,1-.64-.66c-1.56-3.06-1.63-6.85-3.8-9.51a4.12,4.12,0,0,0-2.18-1.52c-1.84-.41-3.67,1.19-4.08,3a8.08,8.08,0,0,0,1.1,5.41,33.82,33.82,0,0,1,2.53,5c-.87.64-1.86-.64-2.88-1a2.2,2.2,0,0,0-2.69,1.74,3.57,3.57,0,0,0,1.3,3.23,10.57,10.57,0,0,0,3.18,1.74l6.35,2.58c1,.42,2.26,1.15,2.12,2.25l-3.17.52c-.58.71.41,1.63,1.25,2a39.92,39.92,0,0,0,16.57,3"/><path class="cls-4" d="M37.15,134.2a32.77,32.77,0,0,1,11.5-13.41,31.19,31.19,0,0,1,4.41-2.46c.52-.24,1,.53.45.77a31.57,31.57,0,0,0-15.59,15.55c-.24.52-1,.06-.77-.45Z"/><path class="cls-4" d="M29.5,134.23a12.91,12.91,0,0,0-1.63-6.13,13.5,13.5,0,0,0-4.52-4.74c-2-1.25-4-2.25-5.91-3.62a27.69,27.69,0,0,1-4.81-4.43,28.23,28.23,0,0,1-4-6.16c-.25-.51.51-1,.76-.45a27.52,27.52,0,0,0,8.36,10.14c1.89,1.41,4,2.43,6,3.69a14.36,14.36,0,0,1,4.7,4.7,13.92,13.92,0,0,1,2,7,.45.45,0,0,1-.89,0Z"/><polygon class="cls-13" points="16.78 132.2 16.96 136.86 46.34 136.86 46.34 132.33 16.78 132.2"/><path class="cls-10" d="M123.62,165.41c.37.15.32.76,0,1a1.73,1.73,0,0,1-1.17.16,62.13,62.13,0,0,1-17.63-4.64,1.25,1.25,0,0,1-.49-.31.88.88,0,0,1,.4-1.26,2.52,2.52,0,0,1,1.49-.07,83.86,83.86,0,0,1,12.54,3.49l4.73,1.58"/><path class="cls-8" d="M116.46,149.76c-.33,1.87-1.19,4.54-1.4,6.14a9.44,9.44,0,0,1,5.21,1.25,5.9,5.9,0,0,1,2.75,2.63,7.9,7.9,0,0,1,.69,2,11.09,11.09,0,0,1,.1,4.18,45.81,45.81,0,0,1-6-.93c-4.43-1.13-7.71-1.72-12.21-3.47-.38-.15-.83-.26-1-.63a1.53,1.53,0,0,1,0-1c.6-3.37.1-7,1-10.34,1.63-.17,10.43.26,11,.14"/><path class="cls-8" d="M55.24,75.89c.66-1.58,3.13-3.13,6.63-3.82,4.54-.89,24.77-2.74,27.11-2.78.48,2.61,1,7.62.93,7.84S71.21,87.8,59.36,85.05c-3-.68-5.33-5-4.12-9.16"/><path class="cls-4" d="M55.09,75.8a5.93,5.93,0,0,1,2.81-2.58,15,15,0,0,1,4.39-1.4c1.93-.33,3.88-.55,5.82-.77,5.27-.61,10.56-1.12,15.85-1.57,1.67-.15,3.34-.33,5-.37a.17.17,0,0,1,.16.13c.36,2,.6,4,.8,6a7.46,7.46,0,0,1,.15,1.82.44.44,0,0,1-.21.32,11.85,11.85,0,0,1-1.84,1c-1.22.65-2.47,1.25-3.73,1.83A73.12,73.12,0,0,1,73.6,84.18a33.63,33.63,0,0,1-12,1.41A10.57,10.57,0,0,1,58.7,85a5.71,5.71,0,0,1-2.34-1.9,8.44,8.44,0,0,1-1.28-7.28.17.17,0,0,1,.33.09,8.14,8.14,0,0,0,.75,6.24A6.26,6.26,0,0,0,58,84.26a5.56,5.56,0,0,0,2.31.81,27.22,27.22,0,0,0,10-.46,67.72,67.72,0,0,0,17-6.23c.66-.34,1.32-.69,2-1.07a1.63,1.63,0,0,0,.43-.27c0-.06,0,.09,0,0a2.67,2.67,0,0,0,0-.56c-.12-1.52-.3-3-.5-4.55-.06-.46-.13-.92-.2-1.37,0-.19-.05-.38-.09-.57s-.14-.67,0-.55c-.1-.07-.57,0-.69,0-5,.3-10.11.84-15.14,1.36-2.73.28-5.46.58-8.18.93s-5.81.77-8.13,2.54A4.32,4.32,0,0,0,55.4,76c-.1.21-.4,0-.31-.18Z"/><path class="cls-4" d="M127.26,61.87c-2.64,6.47-4.71,12.84-7.6,19-3.89-.1-25.52-.2-27.81-.11Q95,70.81,98.2,60.84c2.58.52,29.06,1,29.06,1"/><path class="cls-4" d="M88.26,29.61a1.22,1.22,0,0,1-.94,1.21.87.87,0,0,1-1-.86c0-.22.36-.22.35,0a.52.52,0,0,0,.66.5.89.89,0,0,0,.56-.85c0-.22.36-.23.35,0Z"/><path class="cls-4" d="M83.54,30.42a.94.94,0,0,1-1.86.25.18.18,0,0,1,.34-.09.59.59,0,0,0,1.17-.16.18.18,0,0,1,.35,0Z"/><path class="cls-4" d="M85.59,30.71c0,.95.1,1.9.16,2.84a.19.19,0,0,1-.18.18h-.34c-.22,0-.22-.34,0-.34h.34l-.17.17c-.05-.94-.11-1.89-.16-2.84,0-.22.34-.22.35,0Z"/><path class="cls-4" d="M85.24,35.83a1.77,1.77,0,0,1-1.73-1c-.1-.2.2-.38.3-.17a1.44,1.44,0,0,0,1.43.82c.22,0,.22.33,0,.35Z"/><path class="cls-4" d="M100.18,45.8c-1.48,2.09-4.34,2.72-6.72,3.14a52.17,52.17,0,0,1-8.74.74,63.13,63.13,0,0,1-9.32-.57,24.65,24.65,0,0,1-6.12-1.42A9.75,9.75,0,0,1,66.69,46c-.18-.14.07-.39.24-.24A9.62,9.62,0,0,0,69,47.19a18.88,18.88,0,0,0,5.06,1.37,60.35,60.35,0,0,0,17.8.29,28.71,28.71,0,0,0,3.8-.76,7.38,7.38,0,0,0,4.22-2.46c.13-.19.43,0,.3.17Z"/><ellipse class="cls-2" cx="650.8" cy="168.9" rx="36.66" ry="6.29"/><path class="cls-8" d="M643.77,163a14.4,14.4,0,0,1,.63,3.39,16.43,16.43,0,0,1-.18,2.47H626.59s1-3.57,2.38-4.15,9.06.71,9.06.71l.32-2.42Z"/><path class="cls-11" d="M644.22,168.82h-10.4a4.45,4.45,0,0,0-1.26-4.21,10,10,0,0,0-3.58-.07c-1.22.38-2.48,3.46-2.68,5.32h17.76Z"/><path class="cls-14" d="M638.35,163l.38-10.89h5.64l-.6,10.89s-2.2.15-2.63,1.84C641.14,164.8,638.64,164.43,638.35,163Z"/><line class="cls-15" x1="638.03" y1="165.38" x2="639.5" y2="165.89"/><path class="cls-8" d="M660.92,163a16.55,16.55,0,0,0-1.17,3.39,17.6,17.6,0,0,0-.21,2.47h17.64s-.48-3.57-1.74-4.15-9.17.71-9.17.71l.06-2.42Z"/><path class="cls-11" d="M659.54,168.82H670a5,5,0,0,1,1.92-4.21,10.14,10.14,0,0,1,3.59-.07c1.16.37,1.94,3.46,1.84,5.32H659.54Z"/><path class="cls-14" d="M666.33,163l1.34-10.89H662L660.92,163s2.17.15,2.34,1.84C663.26,164.8,665.82,164.43,666.33,163Z"/><line class="cls-15" x1="666.27" y1="165.38" x2="664.73" y2="165.89"/><polygon class="cls-16" points="639.87 30.12 622.12 84.73 625.53 85.77 642.23 31.02 639.87 30.12"/><polygon class="cls-17" points="636.47 80.21 635.5 156.83 645.06 156.83 651.66 93.25 654.64 93.25 662.4 120.25 660.63 156.83 669.41 156.83 674.54 119.46 669.41 80.21 636.47 80.21"/><line class="cls-15" x1="649.24" y1="93.18" x2="657.51" y2="93.18"/><line class="cls-15" x1="651.66" y1="93.25" x2="649.53" y2="95.28"/><line class="cls-15" x1="654.64" y1="93.25" x2="657.11" y2="95.28"/><path class="cls-15" d="M655.63,82.29a24.56,24.56,0,0,1-1.3,5.87,21.57,21.57,0,0,0-1,5.09"/><path class="cls-16" d="M617.16,82.29s-6.38,16.16-6.5,17.21,7.75,4.45,25.76,5.65l5.23-19.65Z"/><path class="cls-15" d="M621.35,89l-1,3.16a10.8,10.8,0,0,0,2.06,2.15c.9.58,4-.54,4-.54l1.18-3.21"/><path class="cls-18" d="M644,83s-22-4.79-23.42-5-3.19.23-3.65.92a63.31,63.31,0,0,0-2.39,6.61c-.34,1.14,8.67,6,10.09,6s13-1.54,15.55-2.59S644,83,644,83Z"/><path class="cls-19" d="M633.86,103.81c0-.1,4.78-19.14,5.44-20.09S643.72,83,644,83s-.51,19.52-.85,20.82S634.5,106,633.86,103.81Z"/><path class="cls-14" d="M675.06,50.85s3.08,10.2,3.7,11.83-6.84,23.93-6.84,23.93l-2.26-4.32,2.26-15.71-4.38-12Z"/><line class="cls-15" x1="671.92" y1="66.58" x2="673.74" y2="65.95"/><path class="cls-14" d="M619.52,57.16s1-4.36,7.17-11.9l6.64,6.56-6.92,6.89Z"/><path class="cls-20" d="M646.76,18.67a4.59,4.59,0,0,1-2.16-3.29C644.23,13,643.49,4.65,644,4.05s2.46-.91,2.46-.91-2.59-.52-2.42-1,2.25-.65,2.25-.65S645,.61,645.33.29s9.44-.56,11.54.32,4.87,2.53,3.29,5.47c0,0,1.19,0,1.28.79s-.35,10.28-3.14,11.42S649.09,19.73,646.76,18.67Z"/><path class="cls-8" d="M665.62,29.23c2,1,4.62,3,6.58,9,1.41,4.33,4.63,14.81,4.63,14.81l-8.43,3.55S653.31,23.41,665.62,29.23Z"/><polygon class="cls-11" points="667.3 57.04 665.01 53.39 676.14 48.56 678.03 52.53 667.3 57.04"/><path class="cls-8" d="M640.72,28.55c-2.18.49-7.38,3.75-10.59,9.18-2.31,3.92-7.72,13.45-7.72,13.45l7.46,5.29S654,25.52,640.72,28.55Z"/><polygon class="cls-11" points="630.84 57.16 633.86 54.09 624.05 46.97 621.35 50.43 630.84 57.16"/><path class="cls-8" d="M669.41,80.21H636.47s-.1-23.93-.06-39.29c0-5.43.05-8.05.11-8.73.23-2.6,11-6.8,11-6.8h10s9.39,3.54,10.25,6c.18.52.39,3.56.59,9.57C668.9,56.62,669.41,80.21,669.41,80.21Z"/><line class="cls-15" x1="636.03" y1="77.47" x2="669.41" y2="77.47"/><path class="cls-8" d="M668.49,45H636.41c0-5.43.05-12.13.11-12.81.23-2.6,11-6.8,11-6.8h10s9.39,3.54,10.25,6A118.17,118.17,0,0,1,668.49,45Z"/><rect class="cls-10" x="642.23" y="43.3" width="21.6" height="5.27"/><path class="cls-15" d="M645.33,26.31s2.2,7.24,7,7.24,7.6-7.16,7.6-7.16"/><path class="cls-21" d="M657.82,16.07l-.31,9.27a5,5,0,0,1-5,4.83h0a5,5,0,0,1-5-5v-9.1Z"/><path class="cls-14" d="M658.3,12.81s2.92-1.05,3.26.48-.87,3.07-3.26,2.74Z"/><path class="cls-14" d="M646.76,12.81s-2.93-1.05-3.26.48.86,3.07,3.26,2.74Z"/><path class="cls-14" d="M658.74,7.4c-.76-3.52-6.2-3-6.2-3s-5.43-.51-6.2,3-.06,9.39,0,10.66,1.53,6.31,6.2,6.31,6.15-4.56,6.21-5.84S659.51,10.92,658.74,7.4Z"/><line class="cls-15" x1="652.63" y1="15.66" x2="652.35" y2="19.11"/><path class="cls-22" d="M655,15.66c0,.53.23,1,.51,1s.53-.43.53-1-.23-1-.52-1S655,15.14,655,15.66Z"/><path class="cls-20" d="M657.8,13.54c.14-.38-.63-1.07-.87-1.12a8,8,0,0,0-2.26.14,1.37,1.37,0,0,0-.51.65A10.06,10.06,0,0,0,657.8,13.54Z"/><path class="cls-22" d="M650.28,15.66c0,.53-.23,1-.52,1s-.52-.43-.52-1,.23-1,.52-1S650.28,15.14,650.28,15.66Z"/><path class="cls-20" d="M647.45,13.54c-.15-.38.62-1.07.87-1.12a8,8,0,0,1,2.26.14,1.44,1.44,0,0,1,.51.65A10.06,10.06,0,0,1,647.45,13.54Z"/><path class="cls-20" d="M645.06,6.64s1.7,3.24,10.19,4.43c3,.42-.31-2.74-.31-2.74s4.27.89,4.4-.36C660,2.06,645.86,2.23,645.06,6.64Z"/><path class="cls-23" d="M650.5,20.79a3.5,3.5,0,0,0,3.85,0"/><path class="cls-24" d="M651.86,22.38c-.06-.3,1.71-.35,1.62-.07S651.93,22.74,651.86,22.38Z"/><path class="cls-15" d="M659.1,15.07s.78-2.38,1.69-1.14"/><path class="cls-15" d="M645.91,15.07s-.78-2.38-1.69-1.14"/><polygon class="cls-18" points="659.89 25.39 640.41 84.73 643.83 85.77 662.25 26.29 659.89 25.39"/><path class="cls-14" d="M623.43,54.09c3.54-.08,22.73-2.86,22.73-2.86l.49,3.88s-18.8,7.61-22.34,7.57-4.64-3.18-4.87-4.49A4,4,0,0,1,623.43,54.09Z"/><path class="cls-14" d="M646.16,51.23s1.09-2.6,1.33-2.94,3-2.61,3.2-2.42c.82.82-.93,2.42-.93,2.42s2.59,0,2.69.28a4,4,0,0,1-.2,1.26s1.13.93.9,1.22-.55.87-.55.87.91.84.75,1.16-2.1,1.55-6.7,2Z"/><line class="cls-15" x1="626.19" y1="53.87" x2="623.06" y2="54.12"/><path class="cls-14" d="M669.67,89a3.64,3.64,0,0,0,2.25-2.34l-2.26-4.32s-2.42.37-2.75.44a7.12,7.12,0,0,0-1.89,2Z"/><line class="cls-15" x1="669.66" y1="82.29" x2="670.35" y2="82.29"/><line class="cls-15" x1="636.4" y1="47.43" x2="636.44" y2="37.85"/><path class="cls-15" d="M668.7,52c0-.2-.46-15.16-.46-15.16"/><line class="cls-15" x1="664.35" y1="84.38" x2="670.35" y2="89.77"/><path class="cls-15" d="M658.05,82.29s-.94,5.14-1.43,5.94c-.36.61-3.36.72-3.36.72"/><line class="cls-15" x1="662.4" y1="120.25" x2="664.35" y2="123.11"/><polygon class="cls-25" points="663.84 99.63 668.93 98.58 669.18 99.33 663.86 100.41 663.84 99.63"/><polygon class="cls-25" points="662.76 102.02 670.61 100.44 671.26 102.1 662.95 103.81 662.76 102.02"/><polygon class="cls-25" points="635.5 153.61 635.5 156.83 645.06 156.83 645.42 153.61 635.5 153.61"/><polygon class="cls-25" points="660.63 156.83 660.8 153.61 669.9 153.61 669.41 156.83 660.63 156.83"/><line class="cls-15" x1="648.86" y1="120.25" x2="646.57" y2="122.71"/><polygon class="cls-25" points="639.48 114.36 644.87 114.83 644.87 115.98 645.88 116.35 645.52 117.44 638.36 116.78 638.36 115.62 639.44 115.62 639.48 114.36"/><polygon class="cls-25" points="639.3 117.98 644 118.23 643.78 118.83 639.3 118.81 639.3 117.98"/><path class="cls-15" d="M634.37,104.46s3.93-3.77,4.93-4,3.85,3.37,3.85,3.37"/></g></g></g></svg>