<svg xmlns="http://www.w3.org/2000/svg" viewBox="0 0 40 20.42"><defs><style>.cls-1{fill:#46c7ce;}</style></defs><g id="Layer_2" data-name="Layer 2"><g id="Option_1" data-name="Option 1"><path class="cls-1" d="M35.42,8.42a2.53,2.53,0,1,0,0,3.58A2.55,2.55,0,0,0,35.42,8.42ZM32.7,11.14a1.32,1.32,0,0,1,0-1.86,1.3,1.3,0,0,1,1.86,0,1.32,1.32,0,1,1-1.86,1.86Z"/><path class="cls-1" d="M40,10.21A10.22,10.22,0,0,0,22.56,3a10.49,10.49,0,0,0-1.88,2.57l-.1.2L4.45,5.68A.6.6,0,0,0,4,5.86L.17,9.71h0a.6.6,0,0,0,0,.79h0L5,16.36a.6.6,0,0,0,.8.12l2.54-1.7,2.55,1.7a.62.62,0,0,0,.67,0l2.55-1.7,2.55,1.7a.61.61,0,0,0,.6,0l3.41-1.65.16.29A10.21,10.21,0,0,0,40,10.21ZM4.7,6.89h.15L20.08,7,20,7.42a10.53,10.53,0,0,0-.35,1.86l0,.32L2.06,9.53ZM29.79,19.21a8.93,8.93,0,0,1-6.36-2.63,9.09,9.09,0,0,1-1.89-2.77.57.57,0,0,0-.34-.32.61.61,0,0,0-.48,0l-3.65,1.77-2.59-1.73a.6.6,0,0,0-.68,0l-2.54,1.7-2.55-1.7a.59.59,0,0,0-.67,0L5.61,15.17,1.9,10.74l18.27.07a.6.6,0,0,0,.61-.6A8.88,8.88,0,0,1,26.36,1.9a8.85,8.85,0,0,1,9.79,1.94,9,9,0,0,1-6.36,15.37Z"/></g></g></svg>