<svg xmlns="http://www.w3.org/2000/svg" xmlns:xlink="http://www.w3.org/1999/xlink" viewBox="0 0 338.18 258.92"><defs><style>.cls-1{fill:none;}.cls-2{isolation:isolate;}.cls-3{opacity:0.25;}.cls-4{fill:#46c7ce;}.cls-5{opacity:0.8;}.cls-6{opacity:0.5;}.cls-7{fill:#ccd3e6;}.cls-8{fill:#eaeaea;mix-blend-mode:multiply;}.cls-9{fill:#fff;}.cls-10{fill:#575759;}.cls-11{fill:#363638;}.cls-12{fill:#fa5;}.cls-13{fill:#1b95f2;}.cls-14{fill:#cfdceb;}.cls-15{clip-path:url(#clip-path);}.cls-16{fill:#ff9c7d;}.cls-17{fill:#f36d66;}.cls-18{fill:#2a9e9e;}.cls-19{fill:#55a062;}.cls-20{fill:#db7f2f;}.cls-21{fill:#00433b;}.cls-22{fill:#006c60;}.cls-23{fill:#260a05;}.cls-24{fill:#ffad4d;}.cls-25{fill:#ec7738;}.cls-26{fill:#cc5b54;}.cls-27{fill:#cc1525;}.cls-28{fill:#9c0520;}.cls-29{fill:#ff5146;}.cls-30{fill:#594b53;}.cls-31{fill:#ff9e86;}.cls-32{fill:#ff7e6a;}.cls-33{fill:#f5f5f5;}.cls-34{fill:#ffd371;}</style><clipPath id="clip-path"><path class="cls-1" d="M155.3,117.53c.47,1.46.47,1.71.47,1.46V77.44c0-.26,0-.22,0-30.3H62.34l0,70.39Z"/></clipPath></defs><g class="cls-2"><g id="Layer_2" data-name="Layer 2"><g id="Option_1" data-name="Option 1"><g class="cls-3"><path class="cls-4" d="M279.39,77.26c7.47,13.47,12,31.23,3,43.72-5.33,7.4-14.5,11.45-19.13,19.32-5.95,10.13-2.56,23.13,2,34s10.41,22,8.8,33.72c-2.11,15.33-17.26,26.36-32.48,27.63s-30.09-5.29-42.85-13.8-24.8-19.3-39.83-21.46c-12.81-1.85-25.62,3-37.15,9s-22.63,13.14-35.13,16.52c-24,6.5-51.38-3.15-66.24-23.29s-16.22-49.53-3.3-71c4.47-7.42,10.61-16.56,5.9-23.83-4.24-6.53-14.34-6-19.66-11.65-6.09-6.47-2.9-17.2,1.69-24.84a94.41,94.41,0,0,1,37.7-35.29s128.71-73.85,197.54-9.8C269.3,53.13,279.39,77.26,279.39,77.26Z"/></g><g class="cls-5"><g class="cls-6"><ellipse class="cls-7" cx="205.04" cy="92.21" rx="3.93" ry="4.23"/></g></g><ellipse class="cls-8" cx="110.96" cy="200.04" rx="92.07" ry="4.75"/><path class="cls-7" d="M173.32,186.75H160.56V200h14.92V188.91A2.16,2.16,0,0,0,173.32,186.75Z"/><rect class="cls-7" x="92.31" y="158.31" width="44.29" height="28.43"/><path class="cls-9" d="M61.55,186.75h95.64A13.27,13.27,0,0,1,170.46,200v0a0,0,0,0,1,0,0H48.28a0,0,0,0,1,0,0v0A13.27,13.27,0,0,1,61.55,186.75Z"/><rect class="cls-9" x="86.88" y="158.31" width="44.29" height="28.43"/><polygon class="cls-7" points="86.88 167.04 131.17 163.5 131.18 158.31 86.94 158.31 86.88 167.04"/><rect class="cls-7" x="8.84" y="34.98" width="200.94" height="123.34" rx="5.92"/><path class="cls-10" d="M209.78,40.9V144.16H191.49V35h12.37A5.92,5.92,0,0,1,209.78,40.9Z"/><path class="cls-9" d="M202.26,40.9V152.4a5.92,5.92,0,0,1-5.92,5.92H14.76a5.92,5.92,0,0,1-5.92-5.92V40.9A5.92,5.92,0,0,1,14.76,35h182l.14,0,.23,0,.14,0h.08l.14,0A5.91,5.91,0,0,1,202.26,40.9Z"/><path class="cls-11" d="M197.53,35.11l-.14,0h-.08l-.14,0-.23,0-.14,0h-182A5.92,5.92,0,0,0,8.84,40.9V144.16H202.26V40.9A5.91,5.91,0,0,0,197.53,35.11Zm-2.95,98.73a1.61,1.61,0,0,1-1.61,1.61H18.12a1.61,1.61,0,0,1-1.61-1.61V44.27a1.61,1.61,0,0,1,1.61-1.61H193a1.61,1.61,0,0,1,1.61,1.61Z"/><rect class="cls-7" x="16.51" y="42.66" width="178.07" height="92.8" rx="1.61"/><path class="cls-9" d="M194.58,44.27v8.45H16.51V44.27a1.61,1.61,0,0,1,1.61-1.61H193A1.61,1.61,0,0,1,194.58,44.27Z"/><path class="cls-12" d="M180.79,47.55a1.37,1.37,0,1,1-1.37-1.36A1.37,1.37,0,0,1,180.79,47.55Z"/><circle class="cls-13" cx="183.86" cy="47.55" r="1.37"/><rect class="cls-14" x="32.06" y="46.11" width="141.66" height="2.89" rx="1.28"/><path d="M22.94,47.55v1.34a.24.24,0,0,1-.37.21l-1.16-.66-1.16-.67a.25.25,0,0,1,0-.43l1.16-.67L22.57,46a.25.25,0,0,1,.37.21Z"/><path d="M25,47.55v1.34a.24.24,0,0,0,.37.21l1.16-.66,1.16-.67a.25.25,0,0,0,0-.43l-1.16-.67L25.35,46a.25.25,0,0,0-.37.21Z"/><rect class="cls-11" x="196.95" y="85.87" width="3.28" height="0.77" rx="0.34" transform="translate(-2.83 165.69) rotate(-45)"/><rect class="cls-11" x="198.21" y="84.61" width="0.77" height="3.28" rx="0.34" transform="translate(-2.83 165.69) rotate(-45)"/><rect class="cls-9" x="36.64" y="54.76" width="137.34" height="77.09" rx="3.37"/><path class="cls-7" d="M76.39,94.2H46.28a.84.84,0,0,1-.84-.83h0a.85.85,0,0,1,.84-.84H76.39a.85.85,0,0,1,.84.84h0A.84.84,0,0,1,76.39,94.2Z"/><path class="cls-7" d="M76.39,87.13H46.28a.85.85,0,0,1-.84-.84h0a.85.85,0,0,1,.84-.84H76.39a.85.85,0,0,1,.84.84h0A.85.85,0,0,1,76.39,87.13Z"/><path class="cls-7" d="M76.39,101.28H46.28a.84.84,0,0,1-.84-.83h0a.84.84,0,0,1,.84-.84H76.39a.84.84,0,0,1,.84.84h0A.84.84,0,0,1,76.39,101.28Z"/><path class="cls-7" d="M168.91,94.2H138.8a.83.83,0,0,1-.83-.83h0a.84.84,0,0,1,.83-.84h30.11a.84.84,0,0,1,.84.84h0A.83.83,0,0,1,168.91,94.2Z"/><path class="cls-7" d="M168.91,87.13H138.8a.84.84,0,0,1-.83-.84h0a.84.84,0,0,1,.83-.84h30.11a.84.84,0,0,1,.84.84h0A.84.84,0,0,1,168.91,87.13Z"/><path class="cls-7" d="M168.91,101.28H138.8a.83.83,0,0,1-.83-.83h0a.83.83,0,0,1,.83-.84h30.11a.83.83,0,0,1,.84.84h0A.83.83,0,0,1,168.91,101.28Z"/><path class="cls-11" d="M36.64,119.88H174v11.26a.71.71,0,0,1-.72.71H37.35a.71.71,0,0,1-.71-.71Z"/><path class="cls-9" d="M160.49,124.32v-1h1.27v-.9H160a.45.45,0,0,0-.45.45v1.47Z"/><path class="cls-9" d="M160.49,126.12h-.9v1.55a.45.45,0,0,0,.45.45h1.72v-.91h-1.27Z"/><path class="cls-9" d="M164.4,124.32h.9v-1.47a.45.45,0,0,0-.45-.45H163.2v.9h1.2Z"/><path class="cls-9" d="M164.4,126.12v1.09h-1.2v.91h1.65a.45.45,0,0,0,.45-.45v-1.55Z"/><polygon class="cls-9" points="44.64 125.45 44.64 122.6 47.11 124.03 49.58 125.45 47.11 126.88 44.64 128.31 44.64 125.45"/><rect class="cls-9" x="57.25" y="122.89" width="1.53" height="5.19" rx="0.77"/><rect class="cls-9" x="60.44" y="122.89" width="1.53" height="5.19" rx="0.77"/><rect class="cls-7" x="36.64" y="117.63" width="137.34" height="2.25"/><rect class="cls-12" x="36.64" y="117.63" width="70.47" height="2.25"/><path class="cls-11" d="M152,108.87h1.55v3.39h2.07v1.2H152Z"/><path class="cls-11" d="M156.07,108.87h1.55v4.59h-1.55Z"/><path class="cls-11" d="M163.28,108.87l-1.95,4.59h-1.52l-1.94-4.59h1.66l1.1,2.68,1.12-2.68Z"/><path class="cls-11" d="M167.25,112.3v1.16h-3.82v-4.59h3.73V110H165v.54h1.94v1.11H165v.61Z"/><path class="cls-12" d="M149.47,111.13a1.89,1.89,0,1,1-1.89-1.89A1.89,1.89,0,0,1,149.47,111.13Z"/><path class="cls-11" d="M53.42,112.41c0,1-1,1.73-2.43,1.73s-2.42-.68-2.42-1.73a1.39,1.39,0,0,1,.73-1.24,1.34,1.34,0,0,1-.54-1.07c0-1,.92-1.61,2.23-1.61s2.23.63,2.23,1.61a1.34,1.34,0,0,1-.53,1.07A1.39,1.39,0,0,1,53.42,112.41Zm-1.83-.06a.6.6,0,1,0-.6.56A.55.55,0,0,0,51.59,112.35Zm-1-2.17a.44.44,0,1,0,.43-.46A.42.42,0,0,0,50.56,110.18Z"/><path class="cls-11" d="M53.75,111.31c0-1.79,1-2.82,2.45-2.82s2.44,1,2.44,2.82-1,2.83-2.44,2.83S53.75,113.1,53.75,111.31Zm3.07,0c0-1-.27-1.36-.62-1.36s-.62.32-.62,1.36.26,1.37.62,1.37S56.82,112.35,56.82,111.31Z"/><path class="cls-12" d="M45.41,109.8a1.66,1.66,0,1,1-1.66-1.66A1.67,1.67,0,0,1,45.41,109.8Z"/><path class="cls-12" d="M46.85,114H40.64a3.22,3.22,0,0,1,3.06-2h.09A3.22,3.22,0,0,1,46.85,114Z"/><g class="cls-15"><path class="cls-16" d="M140.89,86.22s.57,3.49,3.14,4.11c2.08.51,4-1.49,4.71-2.27l.25-.31a3.18,3.18,0,0,0,.38,0,2.19,2.19,0,0,0,1.88-.79c.54-.94-1.42-1.59-1.42-1.59s1-.9.75-1.54-1.59-.78-1.59-.78,1.45-.94,1-1.75c-.73-1.24-2.23.12-2.35.19.1-.11,2-2,.95-2.39s-2.37.7-3.34,1.7l-.24.25-.16-.11c-.48-.33-2-1.19-2.91-.4C140.76,81.51,140.89,86.22,140.89,86.22Z"/><path class="cls-17" d="M143.57,88.36a.22.22,0,0,0,.21,0,.22.22,0,0,0,.05-.29,1.82,1.82,0,0,1-.31-1.52c.34-1.31,2.09-2.21,2.1-2.22a.2.2,0,0,0,.09-.27.19.19,0,0,0-.27-.09,4.76,4.76,0,0,0-2.31,2.48,2.21,2.21,0,0,0,.36,1.85A.18.18,0,0,0,143.57,88.36Z"/><path class="cls-17" d="M145.35,83.33a.67.67,0,0,0,.29.56l.13.07a1.85,1.85,0,0,0,.37.08,2,2,0,0,0-.26.21.84.84,0,0,0-.16.24.56.56,0,0,0,.09.52,2.63,2.63,0,0,0,1.7.68,2.15,2.15,0,0,0-.95,1,.65.65,0,0,0,.08.62,1.19,1.19,0,0,0,.44.32,6.55,6.55,0,0,0,1.66.46l.25-.31a3.18,3.18,0,0,0,.38,0,.19.19,0,0,0-.1,0A4.85,4.85,0,0,1,147,87s-.07-.11,0-.24a2.42,2.42,0,0,1,1.5-1.06.19.19,0,0,0,.15-.22.2.2,0,0,0-.2-.18c-.5,0-1.89-.08-2.26-.57,0-.07,0-.11,0-.13a.66.66,0,0,1,.31-.28,4.56,4.56,0,0,1,1.2-.45.3.3,0,0,0,.11-.07.23.23,0,0,0,.05-.18.21.21,0,0,0-.25-.15c-.07,0-.22,0-.4.11a4.2,4.2,0,0,1-.92,0,.77.77,0,0,1-.35-.09.25.25,0,0,1-.1-.22,1.41,1.41,0,0,1,.22-.62.2.2,0,0,0,0-.23h0a.2.2,0,0,0-.33,0A1.74,1.74,0,0,0,145.35,83.33Z"/><path class="cls-11" d="M146.85,79.52a6.05,6.05,0,0,0-1,.7c-.29.28-.47.42-.67.6,0,0,0,0,0,0l3.92-16.63a.2.2,0,0,1,.4.08l-2.69,15.25Z"/><path class="cls-11" d="M143.44,88.75c1.36.88,1.74.23,1.74.23l.69-3.91-.06-.06a.56.56,0,0,1-.09-.52.84.84,0,0,1,.16-.24l.16-.14V84l-.28-.07-.13-.07a.59.59,0,0,1-.25-.33,1,1,0,0,1-.61.27h-.2Z"/><path class="cls-17" d="M142.26,82.65a6.52,6.52,0,0,0,1.34.9,2.27,2.27,0,0,0,1.18.28,1,1,0,0,0,.74-.41c.64-.87.09-2-.3-2.6l-.24.25-.16-.11c.34.49.89,1.51.37,2.21a.59.59,0,0,1-.45.26,4,4,0,0,1-2.21-1.08.2.2,0,0,0-.29,0A.2.2,0,0,0,142.26,82.65Z"/><path class="cls-4" d="M121.29,78.62h0v.07l0,.12,0,.27.06.28.06.28c.09.38.19.76.29,1.15.21.77.43,1.55.7,2.31s.53,1.52.84,2.27c.16.36.31.74.48,1.1s.34.72.51,1.08c.35.71.73,1.41,1.13,2.09l.31.5c.1.17.2.34.31.5.22.32.43.65.65,1,.44.65.93,1.25,1.41,1.84s1,1.15,1.56,1.68l.41.41.42.38.21.19.06,0,0,0,0,0-.15-.11a2.61,2.61,0,0,0-.76-.35l-.18-.05h-.7c-.06,0,.06,0,.23-.08a5.59,5.59,0,0,0,.68-.35c.26-.16.55-.35.84-.55a21.52,21.52,0,0,0,1.79-1.43c.61-.52,1.23-1.08,1.84-1.67s1.22-1.19,1.82-1.81,1.2-1.24,1.79-1.88l.89-1,.85-.94,6.58,4.94-.22.33-.21.31-.42.6c-.28.4-.56.79-.85,1.18-.57.78-1.16,1.55-1.78,2.3s-1.25,1.51-1.92,2.24c-.33.37-.67.74-1,1.1s-.71.73-1.08,1.09c-.75.71-1.54,1.42-2.43,2.11a16.4,16.4,0,0,1-1.43,1,13.17,13.17,0,0,1-1.73,1,10.38,10.38,0,0,1-2.37.81l-.17,0-.2,0L130,105l-.42,0h-.44l-.47,0-.49,0-.25,0-.26,0-.51-.12a7.17,7.17,0,0,1-2-.94l-.44-.32-.1-.08-.09-.08-.08-.07-.3-.27-.6-.53L123,102c-.78-.75-1.5-1.55-2.19-2.36s-1.33-1.67-1.93-2.55-1.15-1.77-1.67-2.69l-.37-.69c-.13-.23-.24-.46-.36-.7s-.24-.46-.35-.7l-.33-.71a38.35,38.35,0,0,1-2.09-5.84c-.26-1-.5-2-.68-3-.09-.51-.18-1-.25-1.55,0-.13,0-.26,0-.4s0-.27,0-.4,0-.28,0-.42l0-.5Z"/><path class="cls-18" d="M141.94,89.83a.56.56,0,0,1-.62.51.56.56,0,0,1-.51-.61.57.57,0,0,1,.61-.52A.58.58,0,0,1,141.94,89.83Z"/><path class="cls-18" d="M130.15,99.57a.25.25,0,0,1-.24-.18,18,18,0,0,1-.39-4.2.24.24,0,0,1,.25-.24.25.25,0,0,1,.23.25,18,18,0,0,0,.38,4.07.24.24,0,0,1-.18.29Z"/><path class="cls-18" d="M128.6,97.82a.2.2,0,0,1-.11,0,.24.24,0,0,1-.11-.32,18.31,18.31,0,0,1,1.19-2.1.23.23,0,0,1,.34,0,.25.25,0,0,1,0,.34,21.65,21.65,0,0,0-1.14,2A.24.24,0,0,1,128.6,97.82Z"/><path class="cls-18" d="M143.68,94.53a.22.22,0,0,1-.17-.07A67,67,0,0,0,136.85,89a.24.24,0,0,1,0-.34.25.25,0,0,1,.34-.06,69.82,69.82,0,0,1,6.71,5.49.23.23,0,0,1,0,.34A.23.23,0,0,1,143.68,94.53Z"/><path class="cls-18" d="M141.72,92.74a.21.21,0,0,1-.15,0,.24.24,0,0,1,0-.34L144,89.41a.25.25,0,0,1,.38.31l-2.45,2.94A.27.27,0,0,1,141.72,92.74Z"/><path class="cls-11" d="M115.3,149.92,112,130.55l-.26-1.59,9.45-3.33.54-.19,2.25-.8s.18.83.46,2.26c0,.17.07.35.1.54a178.21,178.21,0,0,1,3,22.48Z"/><path class="cls-10" d="M117,149.92c-1.42-7.72-3.24-19-3.35-19.67a.25.25,0,0,1,.21-.29.26.26,0,0,1,.3.21c0,.16,1.92,11.88,3.36,19.75Z"/><path class="cls-11" d="M96.18,118.46s-.72,6.75.82,10.5,21.41,1.83,26.47-1.55c2.08-1.39-2.34-14.19-2.34-14.19Z"/><path class="cls-10" d="M124.55,127.44a5.43,5.43,0,0,1-.88-.23,5.84,5.84,0,0,1-1.31-.63,7.17,7.17,0,0,1-1.16-1,12.24,12.24,0,0,1-2.87-5.72.25.25,0,0,1,.2-.29.25.25,0,0,1,.3.2,11.83,11.83,0,0,0,2.91,5.62,6.25,6.25,0,0,0,.9.71,5.52,5.52,0,0,0,1.25.6,5.12,5.12,0,0,0,.56.15C124.48,127.07,124.52,127.25,124.55,127.44Z"/><path class="cls-10" d="M112.29,129.33a.25.25,0,0,1-.24.26h0a.26.26,0,0,1-.27-.24c0-.92-.1-1.87-.16-2.81l0-.5c-.2-3.08-.46-6.11-.65-8.25,0-.17,0-.34,0-.5-.05-.47-.09-.88-.12-1.24l.51-.08c0,.35.07.77.11,1.25,0,.16,0,.33,0,.5.19,2.12.44,5.12.64,8.19l0,.5C112.19,127.39,112.24,128.37,112.29,129.33Z"/><path class="cls-10" d="M113,126.07a5.61,5.61,0,0,1-.9.34,3.31,3.31,0,0,1-.5.13,3.93,3.93,0,0,1-.48.06,1.74,1.74,0,0,1-.86-.13,1,1,0,0,1-.58-.78c-.18-1-.57-4.88-.84-7.66,0-.17,0-.34,0-.5,0-.44-.08-.85-.11-1.19l.5-.06c0,.34.07.75.12,1.2,0,.16,0,.33,0,.5.27,2.77.65,6.7.83,7.62a.55.55,0,0,0,.31.43,1.79,1.79,0,0,0,1.08,0l.5-.13c.29-.1.55-.21.7-.28a.26.26,0,0,1,.34.11A.25.25,0,0,1,113,126.07Z"/><path class="cls-11" d="M98.65,149.92c-.79-7.19-1.7-16.81-2.21-22.39,0-.17,0-.34,0-.51-.23-2.46-.37-4-.37-4,1.22-.5,3.43-.15,5.79.51l.51.15a69.49,69.49,0,0,1,8.61,3.37v22.88Z"/><path class="cls-10" d="M99.85,149.92c-.68-8-1.49-19.54-1.5-19.69a.26.26,0,0,1,.24-.28.26.26,0,0,1,.27.24c0,.15.82,11.75,1.5,19.73Z"/><path class="cls-10" d="M103.73,119.91a13.21,13.21,0,0,1-1.41,3.76,8.23,8.23,0,0,1-2.62,2.91,5.92,5.92,0,0,1-3.26,1c0-.17,0-.34,0-.51a5.52,5.52,0,0,0,3-.87,7.58,7.58,0,0,0,2.39-2.63,13.59,13.59,0,0,0,1.42-3.7.24.24,0,0,1,.29-.2A.25.25,0,0,1,103.73,119.91Z"/><path class="cls-4" d="M124.17,118c-5.5,5.14-18.51,7.87-28.54,3-1.1-3-2.31-13.74-2.63-17-.07-.64-.12-1.27-.16-1.91a82.18,82.18,0,0,1,0-9.42l0-.53c.13-2.67.33-5.43.51-8.37.37-5.81,2.31-9.39,5.68-9.93a13.77,13.77,0,0,0,3.72-1.12l.32-.16a10.08,10.08,0,0,0,1.7-1h7.52a5.82,5.82,0,0,0,2.34,2l.3.14c2.67,1.15,5.78.92,6.42,4.14.4,2-1.14,6.17-1,14.6,0,.62,0,1.26.06,1.93s.07,1.26.12,1.93.1,1.26.17,1.91.12,1.17.19,1.77.16,1.26.25,1.91C121.68,105.36,123,113.53,124.17,118Z"/><path class="cls-18" d="M98.4,119.79h.06a.23.23,0,0,0,.16-.28,110.49,110.49,0,0,1-3.32-31,.22.22,0,0,0-.21-.23.21.21,0,0,0-.24.21,110.64,110.64,0,0,0,3.34,31.17A.21.21,0,0,0,98.4,119.79Z"/><path class="cls-18" d="M121.06,99.9a.24.24,0,0,1-.24-.21c-.5-4.43-.5-13.24-.5-13.33a.24.24,0,0,1,.24-.24.24.24,0,0,1,.24.24c0,.09,0,8.87.5,13.27a.23.23,0,0,1-.21.27Z"/><path class="cls-19" d="M110.76,116.58a.57.57,0,0,1-.61.52.58.58,0,0,1-.52-.62.56.56,0,0,1,.62-.51A.56.56,0,0,1,110.76,116.58Z"/><path class="cls-20" d="M110.85,119.32a.56.56,0,0,1-.61.52.58.58,0,0,1-.52-.61.57.57,0,1,1,1.13.09Z"/><path class="cls-18" d="M115.63,90a2.35,2.35,0,0,1-1.85-.82c-1.47-1.72-.92-5.53-.9-5.69a.25.25,0,0,1,.24-.21h5a.25.25,0,0,1,.24.21c0,.16.58,4-.9,5.69A2.34,2.34,0,0,1,115.63,90Zm-2.29-6.24c-.1.81-.34,3.77.81,5.1a1.84,1.84,0,0,0,1.48.65,1.82,1.82,0,0,0,1.47-.65c1.15-1.34.91-4.29.82-5.1Z"/><path class="cls-11" d="M104.11,53c1.4-.91,5.81-1.36,5.81-1.36a6.81,6.81,0,0,1,1.54-2.46c1.86-1.23,2.09,1.28,2.09,1.28S115.37,48,117,48.68s-.45,3.09-.45,3.09,2.45-.46,2.18,1.63-2.63,3-2.63,3a4.62,4.62,0,0,1,.36,3.09c-.36,1.91-1.18,2-1.18,2l-10.18.91s-2.08,0-2.63-2.64A3.41,3.41,0,0,1,103.74,56S102.56,54,104.11,53Z"/><path class="cls-16" d="M112.42,70.3v1.91a5.54,5.54,0,0,1-.68.47c-3.32,2-6.9-.47-6.9-.47V65.58l6.67,4.16Z"/><path class="cls-11" d="M112.42,70.24v2a5.54,5.54,0,0,1-.68.47,12.7,12.7,0,0,1-4.88-4.08l4.65,1.14Z"/><path class="cls-4" d="M104.86,70.27A3.78,3.78,0,0,0,102,73.2c2.18,2.27,4.1,4.25,7.21,4.82V73.45A8.08,8.08,0,0,1,104.86,70.27Z"/><path class="cls-4" d="M112.49,70.93a4.13,4.13,0,0,1,2.77,3c-2,2.44-3.09,3.37-6,4.11V73.45S110.87,73.43,112.49,70.93Z"/><polygon class="cls-11" points="113.61 106.46 112.32 109.58 112.32 109.58 111.74 110.99 110.1 114.95 109.3 113.42 109.02 112.88 108.39 111.65 108.11 111.11 107.47 109.88 107.19 109.34 106.56 108.11 106.56 108.11 106.28 107.57 105.68 106.42 105.69 106.29 105.78 105.38 106 103.31 106.09 102.39 106.3 100.32 106.39 99.4 106.6 97.33 106.7 96.41 106.91 94.34 107 93.42 107.21 91.35 107.31 90.44 107.52 88.36 107.61 87.45 107.82 85.37 107.91 84.46 108.13 82.38 108.22 81.47 108.44 79.33 110.02 79.26 110.07 79.62 110.16 80.34 110.38 81.99 110.48 82.72 110.69 84.36 110.79 85.09 111.01 86.73 111.1 87.46 111.32 89.11 111.42 89.83 111.63 91.48 111.73 92.2 111.94 93.85 112.04 94.58 112.26 96.22 112.35 96.95 112.57 98.59 112.67 99.32 112.88 100.96 112.98 101.69 113.2 103.34 113.29 104.06 113.51 105.71 113.61 106.43 113.61 106.46"/><polygon class="cls-10" points="110.16 80.34 108.13 82.38 108.22 81.47 110.07 79.62 110.16 80.34"/><polygon class="cls-10" points="110.48 82.72 107.82 85.37 107.91 84.46 110.38 81.99 110.48 82.72"/><polygon class="cls-10" points="110.79 85.09 107.52 88.36 107.61 87.45 110.69 84.36 110.79 85.09"/><polygon class="cls-10" points="111.1 87.46 107.21 91.35 107.31 90.44 111.01 86.73 111.1 87.46"/><polygon class="cls-10" points="111.42 89.83 106.91 94.34 107 93.42 111.32 89.11 111.42 89.83"/><polygon class="cls-10" points="111.73 92.2 106.6 97.33 106.7 96.41 111.63 91.48 111.73 92.2"/><polygon class="cls-10" points="112.04 94.58 106.3 100.32 106.39 99.4 111.94 93.85 112.04 94.58"/><polygon class="cls-10" points="112.35 96.95 106 103.31 106.09 102.39 112.26 96.22 112.35 96.95"/><polygon class="cls-10" points="112.67 99.32 105.69 106.29 105.78 105.38 112.57 98.59 112.67 99.32"/><polygon class="cls-10" points="112.98 101.69 106.56 108.11 106.28 107.57 112.88 100.96 112.98 101.69"/><polygon class="cls-10" points="113.29 104.06 107.47 109.88 107.19 109.34 113.2 103.34 113.29 104.06"/><polygon class="cls-10" points="113.61 106.43 108.39 111.65 108.11 111.11 113.51 105.71 113.61 106.43"/><polygon class="cls-10" points="112.32 109.58 111.74 110.99 109.3 113.42 109.02 112.88 112.32 109.58"/><polygon class="cls-10" points="108.44 79.33 109.22 80.5 110.02 79.26 110.16 80.32 109.24 81.26 108.35 80.14 108.44 79.33"/><polygon class="cls-11" points="107.11 77.36 109.22 80.5 111.25 77.36 109.22 74.73 107.11 77.36"/><path class="cls-18" d="M105.88,79.51a.22.22,0,0,1-.15-.06c-2.09-1.67-3.87-6-4-6.16a.25.25,0,0,1,.13-.32.24.24,0,0,1,.32.14s1.7,4.1,3.61,5.8L109,74.59a.25.25,0,0,1,.4,0l3,4.22c.45-.82,1.64-3,2.64-5a.25.25,0,0,1,.44.22c-1.27,2.54-2.83,5.33-2.85,5.36a.25.25,0,0,1-.41,0l-3-4.25-3.13,4.26a.26.26,0,0,1-.17.09Z"/><path class="cls-20" d="M109.22,75a.23.23,0,0,1-.24-.24V73.65a.24.24,0,0,1,.24-.24.24.24,0,0,1,.24.24v1.08A.24.24,0,0,1,109.22,75Z"/><path class="cls-17" d="M114.8,61.83s1.09-1.28,1.7,0,.14,3.88-1.51,3.45Z"/><path class="cls-16" d="M116,66.33a3.9,3.9,0,0,1-4.1,3.94c-4.09,0-6.87-3.22-7-3.37h0l0-.83-.24-4.31-.12-2.3s-.52-4.15,3.42-4.91c2.88-.55,5.58-.07,6.94,1.43l.13.15a3.59,3.59,0,0,1,.78,1.93l.12,4.14,0,1Z"/><path class="cls-11" d="M111.24,59.23s-1.72,1.29-2.75.47,1.37-1.71,2.15-1.65S111.76,58.94,111.24,59.23Z"/><path class="cls-11" d="M113.12,59.23s1.72,1.29,2.75.47-1.36-1.71-2.15-1.65S112.61,58.94,113.12,59.23Z"/><path class="cls-17" d="M111.76,66.84a1.63,1.63,0,0,1-1.17-.38.18.18,0,1,1,.23-.27,1.29,1.29,0,0,0,1.27.2.18.18,0,0,1,.24.09.19.19,0,0,1-.1.24A1.42,1.42,0,0,1,111.76,66.84Z"/><path class="cls-9" d="M110,64a18.12,18.12,0,0,0,3.77.39A1.91,1.91,0,0,1,110,64Z"/><path class="cls-11" d="M114.93,56.13c-.64-.23-1.11,0-2.11.42-1.46.64-3.08.07-4.52-.67s-2.29.29-1.8,1,.43,1.21-.11,2.07,1,1.25.16,1.92a.88.88,0,0,0-.19,1.09.6.6,0,0,1-.67.79h0c-.47-.12-1.13-1-1.13-1l-.12-2.3s-.52-4.15,3.42-4.91c2.88-.55,5.58-.07,6.94,1.43Z"/><path class="cls-17" d="M110.47,62.71c0,.28-.59.52-1.32.52s-1.32-.24-1.32-.52.59-.52,1.32-.52S110.47,62.42,110.47,62.71Z"/><path class="cls-17" d="M115.87,63.21l-.32,0c-.73,0-1.33-.24-1.33-.52s.6-.52,1.33-.52h.28Z"/><path class="cls-11" d="M111.05,61.12c0,.4-.18.72-.4.72s-.4-.32-.4-.72.18-.71.4-.71S111.05,60.73,111.05,61.12Z"/><path class="cls-11" d="M115,61.12c0,.4-.18.72-.4.72s-.4-.32-.4-.72.18-.71.4-.71S115,60.73,115,61.12Z"/><path class="cls-11" d="M106.13,65.3a3.6,3.6,0,0,1-1.29,1.6h0l0-.83A2.79,2.79,0,0,0,106.13,65.3Z"/><path class="cls-16" d="M105.41,62.56s-1.58-2.13-2.74-.46c-1,1.38.85,5,2.74,3.73Z"/><path class="cls-11" d="M105.19,65.19a.16.16,0,0,1-.16-.14,2.71,2.71,0,0,0-1.58-2.19.17.17,0,0,1-.09-.21.15.15,0,0,1,.21-.09A3,3,0,0,1,105.35,65a.16.16,0,0,1-.14.18Z"/><path class="cls-11" d="M103.67,64.21a.16.16,0,0,1-.12-.06.16.16,0,0,1,0-.23,1.57,1.57,0,0,1,1.14-.39.16.16,0,0,1,.12.2.17.17,0,0,1-.2.12c-.28-.08-.71.21-.85.32A.21.21,0,0,1,103.67,64.21Z"/><path class="cls-11" d="M112.33,63.11a.16.16,0,1,1,0-.32,1.1,1.1,0,0,0,1-.46c-.65-1.33-1.29-2.68-1.3-2.69a.17.17,0,0,1,.08-.22.15.15,0,0,1,.21.08s.68,1.41,1.34,2.77a.17.17,0,0,1,0,.14A1.38,1.38,0,0,1,112.33,63.11Z"/><path class="cls-16" d="M73,77.76S70.82,80,68.66,79.11c-1.75-.7-2.13-3.12-2.22-4,0-.22,0-.35,0-.35a2,2,0,0,1-.28-.18c-.39-.28-1-.85-1-1.52.1-1,1.83-.42,1.83-.42s-.27-1.16.24-1.49,1.54.25,1.54.25S68.24,70,69,69.62c1.14-.51,1.53,1.22,1.57,1.34,0-.13-.56-5.44.36-5.17s1.53,4.68,1.71,5.89l0,.3h.17c.51,0,2,.15,2.3,1.2C75.5,74.45,73,77.76,73,77.76Z"/><path class="cls-17" d="M68.53,74a1.89,1.89,0,0,1,.19,1.17.56.56,0,0,1-.38.41,1.08,1.08,0,0,1-.48,0,5.85,5.85,0,0,1-1.42-.52c0-.22,0-.35,0-.35a2.5,2.5,0,0,1-.29-.18.12.12,0,0,1,.1,0,4.5,4.5,0,0,0,2,.68.21.21,0,0,0,.14-.16,2.12,2.12,0,0,0-.54-1.53.18.18,0,0,1,.24-.27c.36.27,1.4.91,1.91.75.08,0,.09-.06.09-.08A.59.59,0,0,0,70,73.6a4.59,4.59,0,0,0-.64-.94.18.18,0,0,1,0-.1.16.16,0,0,1,.06-.15.18.18,0,0,1,.25,0,5.22,5.22,0,0,1,.65.94,1.59,1.59,0,0,1,.15.45.69.69,0,0,1,0,.25.46.46,0,0,1-.33.32A2.25,2.25,0,0,1,68.53,74Z"/><path class="cls-17" d="M71.27,72.5a.18.18,0,0,0-.13.15,1.17,1.17,0,0,1-.15.56.22.22,0,0,1-.19.1.59.59,0,0,1-.29-.11,4.72,4.72,0,0,1-1-.8.13.13,0,0,0,0,.1,4.42,4.42,0,0,1,.63.94l.11.07a2.16,2.16,0,0,0,.33.14l.13,0a.57.57,0,0,0,.49-.25,1.5,1.5,0,0,0,.22-.74.18.18,0,0,0-.22-.19Z"/><path class="cls-17" d="M73.84,74.51a6.5,6.5,0,0,1-1.42,0,2.1,2.1,0,0,1-1-.4.89.89,0,0,1-.31-.68c0-1,.95-1.48,1.53-1.71l0,.3h.17c-.49.18-1.41.63-1.39,1.4a.52.52,0,0,0,.19.42,3.56,3.56,0,0,0,2.13.35.18.18,0,0,1,.2.16A.19.19,0,0,1,73.84,74.51Z"/><path class="cls-17" d="M70,77.93a.19.19,0,0,1-.14-.11.17.17,0,0,1,.11-.23,1.64,1.64,0,0,0,1-.94A3.93,3.93,0,0,0,70.58,74a.19.19,0,0,1,.08-.25.19.19,0,0,1,.24.08,4.29,4.29,0,0,1,.39,3,1.93,1.93,0,0,1-1.21,1.14A.14.14,0,0,1,70,77.93Z"/><path class="cls-4" d="M96.62,75.18l-3.74,3.25-1.8,1.66q-.9.84-1.8,1.65c-.61.54-1.2,1.08-1.8,1.6s-1.21,1-1.8,1.54-1.19,1-1.74,1.39c-.28.21-.55.4-.77.54L83,86.9l-.06,0,0,0,0,0s0,0,0,.07a.31.31,0,0,1-.18,0,3,3,0,0,1-1.05-.41,8.89,8.89,0,0,1-1.44-1.07c-.49-.45-1-1-1.48-1.49a37.09,37.09,0,0,1-2.79-3.59c-.88-1.28-1.51-2.27-2.31-3.63A6,6,0,0,1,68.16,79a48.45,48.45,0,0,0,2.1,4.86A38.81,38.81,0,0,0,73,88.57a23.11,23.11,0,0,0,1.8,2.29,16.53,16.53,0,0,0,2.34,2.19,13,13,0,0,0,1.53,1,10.22,10.22,0,0,0,1.89.79,8.78,8.78,0,0,0,2.29.36,8.25,8.25,0,0,0,2.42-.31,7.8,7.8,0,0,0,1.12-.4l.26-.11.22-.11.21-.11.19-.1c.51-.27.94-.54,1.36-.8.82-.52,1.56-1,2.29-1.57s1.41-1.06,2.1-1.6,1.35-1.07,2-1.62,1.32-1.09,2-1.65L99,85.14l1.89-1.71.93-.87.47-.44.47-.45Z"/><path class="cls-18" d="M93.05,90.53a.33.33,0,0,0,.13,0c2.47-1.73,6.86-5.37,6.9-5.41a.22.22,0,0,0-.28-.35s-4.43,3.67-6.88,5.39a.22.22,0,0,0-.06.31A.26.26,0,0,0,93.05,90.53Z"/><path class="cls-18" d="M98.16,86.59h0l1.74-.25a.22.22,0,0,0,.19-.25.22.22,0,0,0-.25-.19l-1.74.25a.23.23,0,0,0-.2.25A.23.23,0,0,0,98.16,86.59Z"/><path class="cls-18" d="M69.37,81.8a.24.24,0,0,1-.12-.26.23.23,0,0,1,.28-.17c3.27.71,4.9-2.41,4.92-2.44a.22.22,0,0,1,.31-.1h0a.22.22,0,0,1,.1.3s-1.81,3.48-5.43,2.69Z"/><path class="cls-18" d="M71.05,81.86a.29.29,0,0,1-.1-.12l-1.08-2.51a.24.24,0,0,1,.12-.31.23.23,0,0,1,.3.12l1.08,2.52a.22.22,0,0,1-.12.3A.23.23,0,0,1,71.05,81.86Z"/><path class="cls-18" d="M73,79.44a.41.41,0,0,1-.54.17.4.4,0,0,1-.17-.54.4.4,0,0,1,.54-.17A.41.41,0,0,1,73,79.44Z"/><path class="cls-18" d="M83.38,89.9a.22.22,0,0,1-.12-.17,9.57,9.57,0,0,0-.67-2.28.23.23,0,0,1,.1-.31.22.22,0,0,1,.31.1,10.06,10.06,0,0,1,.71,2.42.22.22,0,0,1-.18.26A.24.24,0,0,1,83.38,89.9Z"/><path class="cls-18" d="M81.89,89.38s0,0,0,0a.22.22,0,0,1,0-.32,4.15,4.15,0,0,0,.8-1.53.23.23,0,0,1,.27-.18.24.24,0,0,1,.18.27,4.72,4.72,0,0,1-.9,1.74A.23.23,0,0,1,81.89,89.38Z"/></g><ellipse class="cls-8" cx="189.76" cy="250.83" rx="107.8" ry="8.09"/><path class="cls-21" d="M272.79,252.87a1.21,1.21,0,0,0,1.11-1.64L250,190.41a1.19,1.19,0,1,0-2.22.88l23.93,60.82A1.21,1.21,0,0,0,272.79,252.87Z"/><path class="cls-21" d="M209.36,252.87a1.19,1.19,0,0,0,1.11-.76l23.94-60.82a1.19,1.19,0,1,0-2.22-.88l-23.94,60.82a1.19,1.19,0,0,0,.67,1.55A1.15,1.15,0,0,0,209.36,252.87Z"/><path class="cls-21" d="M220.44,224.72a1.32,1.32,0,0,0,.39-.06l36.28-12.72a1.19,1.19,0,0,0,.73-1.52,1.21,1.21,0,0,0-1.53-.74L220,222.4a1.19,1.19,0,0,0-.73,1.52A1.18,1.18,0,0,0,220.44,224.72Z"/><path class="cls-21" d="M261.71,224.72a1.18,1.18,0,0,0,1.13-.8,1.19,1.19,0,0,0-.73-1.52l-36.27-12.72a1.21,1.21,0,0,0-1.53.74,1.19,1.19,0,0,0,.74,1.52l36.27,12.72A1.32,1.32,0,0,0,261.71,224.72Z"/><path class="cls-21" d="M228.05,252.87a1.15,1.15,0,0,0,.44-.09,1.19,1.19,0,0,0,.67-1.55l-23.94-60.82a1.19,1.19,0,0,0-1.55-.68,1.21,1.21,0,0,0-.67,1.56l23.94,60.82A1.19,1.19,0,0,0,228.05,252.87Z"/><path class="cls-21" d="M164.62,252.87a1.21,1.21,0,0,0,1.12-.76l23.93-60.82a1.19,1.19,0,1,0-2.22-.88l-23.94,60.82a1.21,1.21,0,0,0,1.11,1.64Z"/><path class="cls-21" d="M175.7,224.72a1.32,1.32,0,0,0,.39-.06l36.28-12.72a1.19,1.19,0,0,0,.73-1.52,1.21,1.21,0,0,0-1.53-.74L175.3,222.4a1.19,1.19,0,0,0-.73,1.52A1.18,1.18,0,0,0,175.7,224.72Z"/><path class="cls-21" d="M217,224.72a1.19,1.19,0,0,0,.39-2.32L181.1,209.68a1.21,1.21,0,0,0-1.53.74,1.19,1.19,0,0,0,.74,1.52l36.27,12.72A1.34,1.34,0,0,0,217,224.72Z"/><path class="cls-22" d="M168.16,192.33s50.47,28.88,82.51,5.52a43.67,43.67,0,0,0,3.73-3c.42-.37.83-.76,1.24-1.16,27.31-26.69-7.52-69.5-7.52-69.5q-1.37.57-2.7,1.17l-.95.42C194.6,148.22,168.16,192.33,168.16,192.33Z"/><path class="cls-21" d="M254.19,141.34c4.16,8.34,8.74,20.83,6.87,32.92-1.62,10.53-5.42,18.14-10.39,23.59a43.67,43.67,0,0,0,3.73-3,47.65,47.65,0,0,0,7.7-20.38A45.84,45.84,0,0,0,261,156.61a74.91,74.91,0,0,0-5.92-15.76,95.85,95.85,0,0,0-9.69-15.54l-.95.42a.5.5,0,0,0,.1.19A94,94,0,0,1,254.19,141.34Z"/><path class="cls-21" d="M238.41,149.91s9.74,26.52.47,38.49-30.72,17.65-61.77-.47Z"/><path class="cls-23" d="M221.12,64.16c.37,5.82,2.39,14.13,5.37,22,4,10.57,9.68,20.41,15.46,22.62,10.09,3.88,15.26-3.3,15.26-3.3-14.92,3-15.61-13.19-14.57-25.3s-2.3-21.63-11.16-22.43c-6.11-.55-8.72,2.69-9.75,4.76A7.14,7.14,0,0,0,221.12,64.16Z"/><path class="cls-24" d="M221.12,64.16c.37,5.82,2.39,14.13,5.37,22l9.39,1.4s4.22-9.82-.19-17.6c-3.3-5.82-10.38-7.38-14-7.45A7.14,7.14,0,0,0,221.12,64.16Z"/><path class="cls-24" d="M206.35,107.76l-.06.44-.08.56c-.07.39-.13.79-.21,1.19-.14.81-.3,1.63-.47,2.44-.35,1.64-.75,3.29-1.2,4.92a94.75,94.75,0,0,1-3.18,9.7c-.63,1.59-1.28,3.16-2,4.71s-1.44,3.08-2.22,4.59c-.19.38-.39.75-.59,1.13s-.4.75-.61,1.11c-.42.74-.83,1.49-1.27,2.21l-.65,1.09-.68,1.07-.16.27-.09.13,0,0h0l0-.05.13-.16.08-.08c.09-.08.05,0,0,.06a7.55,7.55,0,0,1-1.24.77c-.56.29-1.22.58-1.92.87-1.41.56-3,1.09-4.59,1.57s-3.29.92-5,1.33-3.42.8-5.17,1.16c-3.48.72-7,1.36-10.58,1.95q-2.67.45-5.35.84l-2.68.39-1.33.18-1.3.18L155,164.51l1.45-.08,1.41-.09,2.82-.22c1.88-.15,3.75-.32,5.63-.5,3.75-.39,7.51-.85,11.29-1.43s7.56-1.28,11.44-2.24a61,61,0,0,0,6-1.77c1-.37,2.07-.78,3.16-1.29a22.89,22.89,0,0,0,3.53-2,15,15,0,0,0,2-1.75l.54-.6c.19-.23.37-.45.55-.71l.21-.29.1-.15.22-.31.84-1.23c.28-.42.55-.84.83-1.25.55-.83,1.07-1.69,1.59-2.53.27-.43.51-.86.77-1.29s.51-.85.75-1.29l.72-1.3.71-1.32c.47-.87.9-1.77,1.35-2.65.87-1.79,1.7-3.6,2.47-5.43a109.83,109.83,0,0,0,4-11.22c.55-1.91,1-3.85,1.49-5.81.21-1,.42-2,.61-3,.09-.51.18-1,.26-1.54l.12-.8.06-.42.06-.51Z"/><path class="cls-25" d="M197.32,147.55a.44.44,0,0,0,.39-.11.45.45,0,0,0,0-.64,37.47,37.47,0,0,0-4.18-3.91.45.45,0,0,0-.56.71,37.65,37.65,0,0,1,4.07,3.81A.45.45,0,0,0,197.32,147.55Z"/><path class="cls-25" d="M196.59,144.32a.45.45,0,0,0,.21-.87s-1.73-.48-3.2-.76a.44.44,0,0,0-.52.36.45.45,0,0,0,.35.53c1.43.27,3.11.73,3.13.74Z"/><path class="cls-25" d="M162.21,165.28h.13a.45.45,0,0,0,.41-.49l-1.39-14.26a.44.44,0,0,0-.49-.4.45.45,0,0,0-.41.49l1.39,14.26A.46.46,0,0,0,162.21,165.28Z"/><path class="cls-25" d="M155.07,162h.13l6.54-.74a.46.46,0,0,0,.4-.5.45.45,0,0,0-.5-.4l-6.54.75a.46.46,0,0,0-.4.5A.47.47,0,0,0,155.07,162Z"/><path class="cls-25" d="M157.05,157.39a1,1,0,1,0,1.92.81,1.06,1.06,0,0,0-.56-1.37A1,1,0,0,0,157.05,157.39Z"/><path class="cls-26" d="M148.42,225.9l-2.22,11.31-10.31,3.55c-4.33,1.5-14.63,1.42-15.77,4.32-.72,1.84,8,4,11.85,4.2s13.17,2.59,18.58,2.48,4.3-8.7,5.19-11.26S158.68,227,158.68,227Z"/><path class="cls-22" d="M142.06,236.75s-1.36,7.83,2.33,14.49c0,0-21.27-.76-25.26-5.4-1.47-1.71-.52-3.26,1.93-4.59.31-.17.64-.33,1-.5a30.66,30.66,0,0,1,3-1.1l.9-.27c.92-.26,1.89-.51,2.91-.74l.91-.2c.91-.19,1.85-.37,2.81-.53l.92-.16c.9-.14,1.82-.28,2.75-.4l.9-.11c.91-.12,1.83-.22,2.75-.3l.88-.09Z"/><path class="cls-21" d="M122.06,240.75a8.45,8.45,0,0,0,0,5.07.39.39,0,0,1,0,.28.4.4,0,0,1-.24.25.42.42,0,0,1-.54-.24,9.08,9.08,0,0,1-.2-4.86C121.37,241.08,121.7,240.92,122.06,240.75Z"/><path class="cls-21" d="M125.92,239.38a.36.36,0,0,1,0,.23v0a10.59,10.59,0,0,0,0,6.65.42.42,0,0,1,0,.29.45.45,0,0,1-.24.25.42.42,0,0,1-.54-.23,11.27,11.27,0,0,1-.17-6.94Z"/><path class="cls-21" d="M129.74,238.44a.26.26,0,0,1,0,.15v0a12.85,12.85,0,0,0,.17,8.13.41.41,0,0,1,0,.29.42.42,0,0,1-.24.25.41.41,0,0,1-.54-.23,13.42,13.42,0,0,1-.28-8.42Z"/><path class="cls-21" d="M133.47,237.75a15.16,15.16,0,0,0,.33,9.47.41.41,0,0,1,0,.29.43.43,0,0,1-.23.25.42.42,0,0,1-.55-.23,15.84,15.84,0,0,1-.48-9.62Z"/><path class="cls-21" d="M137.12,237.24a17.73,17.73,0,0,0,.6,10.45.41.41,0,0,1,0,.29.43.43,0,0,1-.23.25A.42.42,0,0,1,137,248a18.35,18.35,0,0,1-.73-10.66Z"/><path class="cls-21" d="M140.75,236.85a20.23,20.23,0,0,0,.89,11.31.33.33,0,0,1,0,.29.41.41,0,0,1-.23.25.41.41,0,0,1-.54-.22,20.72,20.72,0,0,1-1-11.54Z"/><path class="cls-22" d="M143,248.07s7.21,1.28,12-.26a4.62,4.62,0,0,1-1.3,4.45s-16.9,0-23.59-1.38-11.33-2.78-11.25-5.39Z"/><path class="cls-21" d="M142.87,248.58a.4.4,0,0,1-.39.28,111,111,0,0,1-23-2.89.42.42,0,0,1,.2-.81,110.68,110.68,0,0,0,22.8,2.87.42.42,0,0,1,.42.42A.28.28,0,0,1,142.87,248.58Z"/><path class="cls-26" d="M115,220.75l-4.67,6.44s-6.52,1.39-11.65.1c-4.45-1.12-13-6.81-15.57-5-1.61,1.14,4.5,7.75,7.63,10s9.61,9.37,14.2,12.23,8.76-4.51,10.5-6.59c3-3.62,7.2-9.36,7.2-9.36Z"/><path class="cls-22" d="M106,227.3s-5.42,5.82-6,13.41c0,0-17.4-12.26-18.2-18.33-.3-2.24,1.35-3,4.12-2.79.35,0,.72.07,1.11.13a25.92,25.92,0,0,1,3.08.7l.9.27c.91.27,1.86.6,2.84,1l.88.33c.86.34,1.74.7,2.64,1.09l.85.37c.84.37,1.68.77,2.53,1.17l.81.4c.83.4,1.65.82,2.47,1.25l.78.41Z"/><path class="cls-21" d="M87.06,219.72A8.31,8.31,0,0,0,84.28,224a.45.45,0,0,1-.16.24.4.4,0,0,1-.34.07.42.42,0,0,1-.32-.49A9.17,9.17,0,0,1,86,219.59C86.3,219.62,86.67,219.66,87.06,219.72Z"/><path class="cls-21" d="M91,220.69a.38.38,0,0,1-.13.18h0a10.64,10.64,0,0,0-3.6,5.6.41.41,0,0,1-.15.25.4.4,0,0,1-.34.07.41.41,0,0,1-.32-.49,11.35,11.35,0,0,1,3.65-5.89Z"/><path class="cls-21" d="M94.76,222a.36.36,0,0,1-.1.11l0,0a12.82,12.82,0,0,0-4.3,6.9.43.43,0,0,1-.15.24.42.42,0,0,1-.67-.41,13.59,13.59,0,0,1,4.37-7.2Z"/><path class="cls-21" d="M98.25,223.44a15.17,15.17,0,0,0-4.89,8.11.42.42,0,0,1-.82-.15,15.79,15.79,0,0,1,4.86-8.33Z"/><path class="cls-21" d="M101.59,225a17.62,17.62,0,0,0-5.21,9.08.41.41,0,0,1-.15.25.42.42,0,0,1-.33.08.4.4,0,0,1-.33-.48,18.21,18.21,0,0,1,5.21-9.33Z"/><path class="cls-21" d="M104.84,226.67a20.21,20.21,0,0,0-5.43,10,.45.45,0,0,1-.15.26.42.42,0,0,1-.33.08.42.42,0,0,1-.34-.48,20.74,20.74,0,0,1,5.47-10.22Z"/><path class="cls-22" d="M100.6,237.3s5.34,5,10.19,6.33a4.62,4.62,0,0,1-3.53,3s-14.14-9.25-19-14.05-8-8.52-6.48-10.66Z"/><path class="cls-21" d="M100.21,237.66a.44.44,0,0,1-.49,0,112.26,112.26,0,0,1-17.67-15,.42.42,0,1,1,.61-.57A110.11,110.11,0,0,0,100.18,237a.42.42,0,0,1,.12.58Z"/><path class="cls-27" d="M151.57,162.22c3.66-2.43,55-5.27,70.18,2.35,1.15,3.91-24,14.16-31.4,21.35-21.82-.66-35,4.15-35,4.15s-10.87,15.87-16.56,21.36-17.62,21.49-17.62,21.49l-10.6-7.83S141.61,168.82,151.57,162.22Z"/><path class="cls-28" d="M125.59,226.79a.46.46,0,0,0,.46-.19.45.45,0,0,0-.12-.63l-11-7.52a.45.45,0,1,0-.51.75l11,7.52A.61.61,0,0,0,125.59,226.79Z"/><path class="cls-28" d="M122.75,224.81a.44.44,0,0,0,.45-.18c0-.08,1.39-1.94,10.46-11.87,9.89-10.81,20.85-27,21-27.2a.45.45,0,0,0-.75-.5c-.11.16-11,16.33-20.87,27.1-9.17,10-10.49,11.88-10.54,12a.46.46,0,0,0,.11.63A.45.45,0,0,0,122.75,224.81Z"/><path class="cls-29" d="M239.66,163.93s9.53,39.86-36.75,33.63c-20.88-2.81-30.12-7.94-30.12-7.94s-4.06,18.17-6.52,25.69-8,20.7-8,20.7L145.9,233.6s6-57.27,17.18-61.48,29.39-5.47,54.5-3C217.58,169.08,235.68,165,239.66,163.93Z"/><path class="cls-27" d="M158,229.09a.45.45,0,0,0,.5-.27c3.51-8.49,6.25-19.38,8.45-28.12,1.83-7.25,3.55-14.1,4.65-14.75.9-.53,4,.61,7.84,2.06,7.72,2.88,19.38,7.22,33.27,6.72,7.57-.28,13.57-2.76,17.85-7.38,7.38-8,7-19.68,7-19.8a.45.45,0,1,0-.9,0c0,.11.36,11.47-6.77,19.16-4.11,4.43-9.9,6.81-17.21,7.07-13.72.5-25.27-3.81-32.92-6.66-4.59-1.7-7.35-2.73-8.61-2s-2.68,5.8-5.08,15.31c-2.19,8.71-4.92,19.56-8.4,28a.44.44,0,0,0,.24.59Z"/><path class="cls-27" d="M147,226.93h0l13.82,2.39a.45.45,0,0,0,.52-.37.44.44,0,0,0-.37-.52L147.11,226a.45.45,0,0,0-.16.89Z"/><rect class="cls-23" x="157.25" y="163.53" width="50.12" height="6.53" rx="1.15" transform="translate(7.02 -7.36) rotate(2.36)"/><path class="cls-23" d="M151.91,168.81a4.15,4.15,0,0,1-3.89-3.25L140.1,130.1a3.37,3.37,0,0,1,3.43-4.11l22.43.92a3.38,3.38,0,0,1,3.15,2.6l9.57,40.41Z"/><path class="cls-24" d="M154.23,147.89a5.93,5.93,0,0,0,4.72,4.54c2.08.18,3.35-1.56,2.83-3.88a5.91,5.91,0,0,0-4.71-4.54C155,143.83,153.72,145.56,154.23,147.89Z"/><path class="cls-23" d="M158.45,147.47c.11.46.34.85.52.87s.24-.35.14-.82-.34-.85-.52-.87S158.35,147,158.45,147.47Z"/><path class="cls-23" d="M156.48,147.29c.11.47.34.86.52.87s.24-.34.14-.81-.34-.85-.52-.87S156.38,146.83,156.48,147.29Z"/><path class="cls-23" d="M158.43,150.26c1.63.15,1.59-1.63,1.59-1.65a.26.26,0,0,0-.17-.23.12.12,0,0,0-.17.12c0,.07,0,1.52-1.33,1.4a2.79,2.79,0,0,1-2-1.69.22.22,0,0,0-.23-.15c-.08,0-.11.1-.07.2A3.31,3.31,0,0,0,158.43,150.26Z"/><path class="cls-23" d="M169.11,129.51l9.49,40.07,2.57.11-9.5-40.08a3.4,3.4,0,0,0-3.15-2.6l-2.56-.1A3.38,3.38,0,0,1,169.11,129.51Z"/><path class="cls-30" d="M177.92,167.09a.36.36,0,0,1-.35-.28l-8.82-37.22a.38.38,0,0,1,.27-.44.36.36,0,0,1,.44.27l8.82,37.22a.36.36,0,0,1-.27.44Z"/><path class="cls-24" d="M198,135.62l0,.13a11.37,11.37,0,0,0,.5,1.38A21.81,21.81,0,0,0,202.4,143c.22.24.35.36.35.36s0,0,0,.05,0,.28,0,.43a20.24,20.24,0,0,1-.31,2c-1.92,8.82-2.39,10.29-3.17,14,11.57,16.67,39,6.11,40.44,4,1.25-8.94,1.25-8.94,2.58-17.59a96.77,96.77,0,0,1,4.61-16.68c.09-.24.18-.49.28-.73.68-1.84,1.4-3.66,2.16-5.42,3.33-7.67,2.55-14.58-1.94-17.72-1.52-1.07-6.2-2.46-8.27-2.9l-1.63-.33c-2.92-.56-5.21-.88-5.21-.88l-14,.12c-1.38.16-2.62.33-3.74.53a25.44,25.44,0,0,0-2.67.6c-7.14,2-7.42,5.72-8.72,12.49a52.65,52.65,0,0,1-1.49,5.65l-.57,1.7C199.21,128.15,197.2,132.77,198,135.62Z"/><path class="cls-9" d="M233,101.8s7.3,1.17,7.26,5.35S225.34,111,225.34,111,232.25,106.42,233,101.8Z"/><path class="cls-9" d="M218.55,101.8s-7.3,1.17-7.26,5.35,10.3,4.24,10.3,4.24A44.4,44.4,0,0,1,218.55,101.8Z"/><path class="cls-31" d="M218.61,101.23l-.51,5a4.91,4.91,0,0,0,7.46,4.68c4-2.47,7.67-5.84,7.72-9Z"/><path class="cls-25" d="M202.75,143.32s0,0,0,.05,0,.28,0,.43a23.9,23.9,0,0,0,9.73-.07,22.11,22.11,0,0,1,13.93,2.12.35.35,0,0,0,.2.05.39.39,0,0,0,.33-.19.4.4,0,0,0-.14-.53,22.57,22.57,0,0,0-14.47-2.2,22.84,22.84,0,0,1-9.88,0C202.62,143.2,202.75,143.32,202.75,143.32Z"/><path class="cls-25" d="M215.4,124.29c4.67,0,14.24-6.65,14.65-6.93a.4.4,0,0,0,.09-.54.38.38,0,0,0-.54-.09c-.09.06-9.77,6.81-14.2,6.79-4.24,0-5.17-4.65-5.18-4.7a.38.38,0,1,0-.75.14C209.48,119,210.53,124.27,215.4,124.29Z"/><path class="cls-25" d="M200.24,153.5a.46.46,0,0,0,.52-.31c1.1-3.48,2.41-9.66,2.43-9.72A.47.47,0,0,0,203,143a13.05,13.05,0,0,1-4.59-7.46.45.45,0,1,0-.89.15,13.76,13.76,0,0,0,4.71,7.85c-.26,1.24-1.39,6.35-2.34,9.37a.45.45,0,0,0,.29.57Z"/><path class="cls-23" d="M206.81,74.79s-2.31,6.8,1.34,9.44l.32-9.34Z"/><path class="cls-23" d="M210.76,67.53S219.41,59,229.69,66c10.46,7.16,9.29,25.46-.09,27.68C229.6,93.72,214,80.11,210.76,67.53Z"/><path class="cls-32" d="M210.82,85.46s-2.53-2.1-3.27.58,1.06,7.52,4.09,6.14Z"/><path class="cls-26" d="M217.92,97.28l.92,6.77s5,6.82,14.44-2.22c-1.83-2.7-3.33-7.74-3-10.5a13.14,13.14,0,0,0-1.88,1.41,8.32,8.32,0,0,1-.79.52C225.15,94.86,221.36,96.94,217.92,97.28Z"/><path class="cls-23" d="M217.92,97.28l.44,3.21c2.79-1.17,7.75-3.69,10.06-7.75l-.79.52C225.15,94.86,221.36,96.94,217.92,97.28Z"/><path class="cls-26" d="M211.64,95.77c6,5.79,18.28-4.11,18.65-4.42h0c0-.56,0-1.1,0-1.64a42.32,42.32,0,0,0-1.8-12.46A9.5,9.5,0,0,0,220.8,69c-4.25-.75-7.52,1.65-9.56,2.69-3.07,1.59-4.37,6.15-3.32,12.14C209.2,91.2,210,94.17,211.64,95.77Z"/><path class="cls-23" d="M216.11,76.77a.87.87,0,0,0-.55,1.35c.61,1,2.78-.61,4.84,1.09C220.4,79.21,220.66,76.47,216.11,76.77Z"/><path class="cls-23" d="M210.73,77.73s1.21-.09,1,1.07-2.82.39-4.16,2.7C207.55,81.5,206.36,79,210.73,77.73Z"/><path class="cls-32" d="M218,85.2c.1.55,1.32.8,2.73.55s2.47-.91,2.37-1.46-1.32-.8-2.73-.55S217.91,84.64,218,85.2Z"/><g class="cls-5"><path class="cls-32" d="M207.79,88a4.58,4.58,0,0,0,.62-.08c1.41-.25,2.47-.9,2.37-1.45s-1.32-.8-2.73-.55a4.88,4.88,0,0,0-.55.12Z"/></g><path class="cls-23" d="M227.26,88.71c.06.08,1.47,2.22,3,2.64h0c0-.56,0-1.1,0-1.64A5.92,5.92,0,0,1,227.26,88.71Z"/><path class="cls-31" d="M227.72,83.17s2.31-4.63,5.12-1.81c2.3,2.32.06,9.84-4,8.12Z"/><path class="cls-9" d="M231,87.61s-1.83,5.09-.27,5.47C233.61,93.78,231,87.61,231,87.61Z"/><path class="cls-23" d="M229,88.17a.31.31,0,0,0,.26-.33,5.31,5.31,0,0,1,2.29-4.76.32.32,0,0,0-.34-.54,6,6,0,0,0-2.59,5.34.33.33,0,0,0,.34.3Z"/><path class="cls-23" d="M231.62,85.75a.33.33,0,0,0,.23-.15.34.34,0,0,0-.13-.44,3,3,0,0,0-2.32-.35.32.32,0,1,0,.26.58,2.47,2.47,0,0,1,1.75.33A.26.26,0,0,0,231.62,85.75Z"/><path class="cls-23" d="M217,82.39c.14.77.59,1.32,1,1.25s.66-.76.52-1.52-.59-1.32-1-1.24S216.86,81.63,217,82.39Z"/><path class="cls-23" d="M209.47,83.57c.13.76.59,1.32,1,1.24s.67-.75.53-1.51-.59-1.32-1-1.24S209.33,82.81,209.47,83.57Z"/><path class="cls-23" d="M214.43,90.18a6.7,6.7,0,0,0,3.41-2,.32.32,0,0,0-.48-.42c-.11.13-2.73,3.13-5.41,1.3a.32.32,0,0,0-.45.09.31.31,0,0,0,.09.44A3.71,3.71,0,0,0,214.43,90.18Z"/><path class="cls-23" d="M224.78,74.74s-.53,9,2.14,9.54c3.18.63,3.42-6.49,1.29-12.14Z"/><path class="cls-23" d="M226.11,76.56s-12.74,1.81-15.28-3.13c0,0-1.15,4.39-3.94,4.68,0,0-1.8-4.83,3.87-10.58,0,0,13.57-3.7,16.88,2S226.11,76.56,226.11,76.56Z"/><path class="cls-9" d="M217,85.86a2.43,2.43,0,0,1-2.39-2.08l-.25-1.68a1.22,1.22,0,0,1,1-1.37l6.82-1a1.21,1.21,0,0,1,1.37,1l.24,1.68a2.42,2.42,0,0,1-2.05,2.74l-4.42.64A2.07,2.07,0,0,1,217,85.86Zm5.38-5.54h-.09l-6.82,1A.63.63,0,0,0,215,82l.25,1.67a1.83,1.83,0,0,0,2.08,1.56l4.41-.64a1.84,1.84,0,0,0,1.56-2.08L223,80.85A.62.62,0,0,0,222.4,80.32Z"/><path class="cls-9" d="M208.15,87.14a2.43,2.43,0,0,1-2.39-2.08l-.25-1.68a1.22,1.22,0,0,1,1-1.37l4.6-.66a1.21,1.21,0,0,1,1.37,1l.24,1.68a2.44,2.44,0,0,1-2.05,2.75l-2.2.31A2,2,0,0,1,208.15,87.14Zm3.16-5.22h-.09l-4.6.66a.64.64,0,0,0-.53.71l.25,1.68a1.83,1.83,0,0,0,2.08,1.55l2.19-.31a1.85,1.85,0,0,0,1.56-2.09l-.24-1.68A.64.64,0,0,0,211.31,81.92Z"/><path class="cls-23" d="M213.38,85.87a3.08,3.08,0,0,0,1.38-.61.32.32,0,0,0,.05-.45.31.31,0,0,0-.44,0,2.56,2.56,0,0,1-1.24.5l.51-3.14a.32.32,0,0,0-.26-.36A.32.32,0,0,0,213,82l-.57,3.53a.32.32,0,0,0,.07.25.3.3,0,0,0,.22.12A2.74,2.74,0,0,0,213.38,85.87Z"/><path class="cls-9" d="M212.23,82.3l-.31-.5a3,3,0,0,1,2.82-.28l-.21.54A2.44,2.44,0,0,0,212.23,82.3Z"/><path class="cls-9" d="M223.31,81.1a.29.29,0,0,1-.28-.2.29.29,0,0,1,.18-.37c.15,0,3.66-1.21,6.44-.16a.3.3,0,0,1,.17.38.29.29,0,0,1-.38.17c-2.58-1-6,.16-6,.17Z"/><path class="cls-26" d="M191.4,160.77s-8.79-4-12.81-1.93l1.6,6.71,5.06,2.38c1.55.72,1.7,3.66,7.58,3.69Z"/><path class="cls-24" d="M251.92,122.81c0-2.11-.16-4.21-.39-6.31-.11-1.06-.24-2.11-.41-3.18-.08-.53-.17-1.07-.28-1.62-.05-.27-.1-.55-.16-.83l-.1-.44-.05-.24-.07-.31-15.25,3.79.09.39.11.55c.07.38.13.77.2,1.17.13.8.24,1.61.34,2.43q.28,2.48.36,5a56.65,56.65,0,0,1-.49,9.93q-.16,1.23-.39,2.43c-.15.81-.31,1.61-.5,2.4s-.39,1.58-.62,2.35-.47,1.55-.74,2.31-.55,1.52-.84,2.26-.63,1.48-1,2.2-.71,1.44-1.09,2.14c-.19.35-.4.7-.6,1l0,0a5.74,5.74,0,0,1-.56.39,16.47,16.47,0,0,1-1.77,1c-1.35.64-2.91,1.24-4.52,1.81-3.24,1.12-6.73,2.07-10.25,3s-7.12,1.66-10.74,2.38c-1.81.37-3.62.73-5.43,1.06l-2.73.49-1.36.24-1.33.22,1.48,12.09,1.48-.13,1.44-.15,2.88-.32q2.87-.33,5.73-.72c3.83-.53,7.65-1.14,11.49-1.89s7.69-1.61,11.64-2.77a57.1,57.1,0,0,0,6.08-2.15l.67-.29a29,29,0,0,0,2.6-1.32c.57-.33,1.17-.7,1.79-1.14a14.93,14.93,0,0,0,2-1.64,12.71,12.71,0,0,0,1.07-1.18c.18-.24.36-.47.54-.74l.13-.2.06-.1.11-.17c.29-.46.59-.92.86-1.39.51-.83,1-1.67,1.44-2.53a3,3,0,0,0,.16-.31c.51-1,1-1.93,1.44-2.92s.87-2,1.26-3A62.27,62.27,0,0,0,251,135.44,71.52,71.52,0,0,0,251.92,122.81ZM230.1,150.24l0,0a.52.52,0,0,1,.13-.12Z"/><path class="cls-25" d="M244.8,154.05c-.46.86-.93,1.7-1.44,2.53-.27.47-.57.93-.86,1.39l-.11.17-.06.1-.13.2c-.18.27-.36.5-.54.74a12.71,12.71,0,0,1-1.07,1.18,14.93,14.93,0,0,1-2,1.64c-.62.44-1.22.81-1.79,1.14a29,29,0,0,1-2.6,1.32C234.66,154.37,241.28,153.69,244.8,154.05Z"/><path class="cls-25" d="M234.53,154.45a.43.43,0,0,0,.4-.12.46.46,0,0,0,0-.64,46.16,46.16,0,0,0-5.38-4.47.45.45,0,0,0-.63.1.44.44,0,0,0,.11.63,46.91,46.91,0,0,1,5.25,4.37A.47.47,0,0,0,234.53,154.45Z"/><path class="cls-25" d="M233.68,151.25a.45.45,0,0,0,.52-.31.46.46,0,0,0-.3-.57c-.1,0-2.45-.73-4.31-1.07a.44.44,0,0,0-.52.36.45.45,0,0,0,.36.52c1.8.34,4.19,1,4.21,1.06Z"/><path class="cls-25" d="M200.5,159.33a.34.34,0,0,0,.2,0c16.74-4.16,28-9,28.55-9.49a.39.39,0,0,0,.11-.15c.38-.95,9.39-23.3,8.1-32.31a.45.45,0,0,0-.9.13c1.22,8.43-7.25,29.86-8,31.71-1.17.68-12.11,5.26-28.09,9.23a.46.46,0,0,0-.33.55A.43.43,0,0,0,200.5,159.33Z"/><path class="cls-25" d="M236.73,121.73a.46.46,0,0,0,.47-.69l-1.54-2.33a.45.45,0,0,0-.62-.12.44.44,0,0,0-.13.62l1.53,2.33A.47.47,0,0,0,236.73,121.73Z"/><path class="cls-25" d="M199.91,172.28h.15a.46.46,0,0,0,.39-.5L198.88,160a.45.45,0,0,0-.51-.39.46.46,0,0,0-.39.5l1.57,11.81A.47.47,0,0,0,199.91,172.28Z"/><path class="cls-25" d="M192.8,170.37H193l6.51-1a.45.45,0,1,0-.14-.89l-6.51,1a.45.45,0,0,0-.38.51A.46.46,0,0,0,192.8,170.37Z"/><path class="cls-25" d="M194.64,165.7a1,1,0,0,0,2,.73,1,1,0,1,0-2-.73Z"/><path class="cls-33" d="M338.18,44.88V87a2,2,0,0,1-2,2H264.91a2,2,0,0,1-2-2V44.88a2,2,0,0,1,2-2h71.27A2,2,0,0,1,338.18,44.88Z"/><path class="cls-12" d="M294.36,68.73a13.27,13.27,0,1,1-25.5-5.12l12.23,5.12-.62-13.24c.2,0,.41,0,.62,0A13.27,13.27,0,0,1,294.36,68.73Z"/><path class="cls-34" d="M279.15,53.3a13.2,13.2,0,0,0-9.78,5,13.39,13.39,0,0,0-1.83,3.1l12.23,5.13Z"/><rect class="cls-25" x="324.47" y="59.6" width="1.82" height="1.82"/><rect class="cls-12" x="327.5" y="60.28" width="6.57" height="0.46" rx="0.02"/><rect class="cls-25" x="324.47" y="56.35" width="1.82" height="1.82"/><rect class="cls-12" x="327.5" y="57.04" width="6.57" height="0.46" rx="0.02"/><rect class="cls-25" x="324.47" y="62.85" width="1.82" height="1.82"/><rect class="cls-12" x="327.5" y="63.53" width="6.57" height="0.46" rx="0.02"/><path class="cls-12" d="M333.83,70.37h-9.14a.22.22,0,0,1-.22-.22h0a.22.22,0,0,1,.22-.23h9.14a.23.23,0,0,1,.23.23h0A.22.22,0,0,1,333.83,70.37Z"/><path class="cls-12" d="M333.83,72.25h-9.14a.22.22,0,0,1-.22-.23h0a.22.22,0,0,1,.22-.23h9.14a.23.23,0,0,1,.23.23h0A.23.23,0,0,1,333.83,72.25Z"/><path class="cls-12" d="M333.83,74.12h-9.14a.22.22,0,0,1-.22-.23h0a.23.23,0,0,1,.22-.23h9.14a.23.23,0,0,1,.23.23h0A.23.23,0,0,1,333.83,74.12Z"/><path class="cls-12" d="M333.83,76h-9.14a.22.22,0,0,1-.22-.22h0a.22.22,0,0,1,.22-.23h9.14a.23.23,0,0,1,.23.23h0A.22.22,0,0,1,333.83,76Z"/><path class="cls-12" d="M333.83,77.87h-9.14a.23.23,0,0,1-.22-.23h0a.22.22,0,0,1,.22-.23h9.14a.23.23,0,0,1,.23.23h0A.23.23,0,0,1,333.83,77.87Z"/><path class="cls-12" d="M333.83,79.74h-9.14a.22.22,0,0,1-.22-.23h0a.22.22,0,0,1,.22-.23h9.14a.23.23,0,0,1,.23.23h0A.23.23,0,0,1,333.83,79.74Z"/><path class="cls-12" d="M333.83,81.61h-9.14a.22.22,0,0,1-.22-.23h0a.22.22,0,0,1,.22-.22h9.14a.22.22,0,0,1,.23.22h0A.23.23,0,0,1,333.83,81.61Z"/><path class="cls-12" d="M338.18,44.88v3.51H262.91V44.88a2,2,0,0,1,2-2h71.27A2,2,0,0,1,338.18,44.88Z"/><path class="cls-34" d="M330.25,45.64a.93.93,0,1,1-.93-.93A.92.92,0,0,1,330.25,45.64Z"/><path class="cls-9" d="M333.26,45.64a.93.93,0,1,1-.93-.93A.93.93,0,0,1,333.26,45.64Z"/><path class="cls-25" d="M336.13,45.64a.93.93,0,0,1-1.85,0,.93.93,0,1,1,1.85,0Z"/><path class="cls-25" d="M294.36,68.73a13.24,13.24,0,0,1-3.42,8.89l-9.85-8.89-.62-13.24c.2,0,.41,0,.62,0A13.27,13.27,0,0,1,294.36,68.73Z"/><rect class="cls-12" x="307.27" y="65.38" width="4.22" height="18.09"/><path class="cls-25" d="M307.27,78.7a16.27,16.27,0,0,0,4.22-2.18v7h-4.22Z"/><rect class="cls-12" x="300.37" y="70.41" width="4.22" height="13.07"/><path class="cls-25" d="M303.81,79a6.85,6.85,0,0,0,.78.07v4.4h-4.22V79.12A7.78,7.78,0,0,1,303.81,79Z"/><rect class="cls-12" x="314.17" y="59.98" width="4.22" height="23.5"/><path class="cls-25" d="M318.4,72.86V83.48h-4.23V74.66A8.1,8.1,0,0,1,318.4,72.86Z"/><path class="cls-34" d="M318.22,53.13l-3.81.81,1,1L309.6,60.9l-2-2-7.24,7.38a.71.71,0,0,0,0,1h0a.72.72,0,0,0,1,0l6.23-6.36,2.05,2,6.84-7,1,1Z"/><path class="cls-12" d="M299,111.76v11.13a2.66,2.66,0,0,1-2.67,2.66H276.09l-6.1,2.19a.77.77,0,0,1-1-1l2.3-6v-9a2.68,2.68,0,0,1,2.67-2.67H296.3A2.67,2.67,0,0,1,299,111.76Z"/><path class="cls-9" d="M281.41,117.64a1.93,1.93,0,1,1-1.93-1.93A1.93,1.93,0,0,1,281.41,117.64Z"/><path class="cls-9" d="M287.51,117.64a1.93,1.93,0,1,1-1.92-1.93A1.93,1.93,0,0,1,287.51,117.64Z"/><path class="cls-9" d="M293.62,117.64a1.93,1.93,0,1,1-1.93-1.93A1.94,1.94,0,0,1,293.62,117.64Z"/></g></g></g></svg>