<svg xmlns="http://www.w3.org/2000/svg" viewBox="0 0 224.37 185.65"><defs><style>.cls-1{isolation:isolate;}.cls-2{fill:#ffd371;opacity:0.3;}.cls-3{fill:#eaeaea;mix-blend-mode:multiply;}.cls-4{fill:#fda8a8;}.cls-5{fill:#f09091;}.cls-6{fill:#f29d9e;}.cls-7{fill:#febbbb;}.cls-8{fill:#d26b6c;}.cls-9{fill:#e17c7d;}.cls-10{fill:#38474f;}.cls-11{fill:#fa8119;}.cls-12{fill:#ffb940;}.cls-13{fill:#ffa41c;}</style></defs><g class="cls-1"><g id="Layer_2" data-name="Layer 2"><g id="Option_1" data-name="Option 1"><path class="cls-2" d="M117.3,180c-63.41,1.29-91.49-18.56-91.49-18.56s-41.88-20.58-18.95-77C25.11,39.43,93,1.6,126.92,16.76S158.28,52,195.84,80.23s29.47,51.43,23.08,63.22C218.92,143.45,199,178.32,117.3,180Z"/><path id="Shadow" class="cls-3" d="M133.05,179.4l5.52-3.18c14.43-8.34,14.43-21.85,0-30.18l-24.78-14.31c-14.44-8.33-37.84-8.33-52.27,0L56,134.92c-14.43,8.33-14.43,21.84,0,30.18l24.78,14.3C95.22,187.74,118.62,187.74,133.05,179.4Z"/><g id="Piggy_Bank" data-name="Piggy Bank"><path class="cls-4" d="M77.57,76.7a1.48,1.48,0,0,0-1.91-1,11,11,0,0,1-4.44,1.07,9.47,9.47,0,0,1-4.39-1,9.27,9.27,0,0,1-4.77-7.42,13.52,13.52,0,0,1,.52-4.76,11.28,11.28,0,0,0,13.31-2.48c2.34-2.72,1.78-6.08-1.68-7.46a13.94,13.94,0,0,0-11.58,1.19,10.91,10.91,0,0,0-.94.7c.36-3.33,1.66-6.65,6-8.68.5-.24,1-.83.33-.9-3.81-.47-6.93,2-8.56,5.23-1.27,2.55-1.88,5.52-.83,8.16a18,18,0,0,0-1.83,5.23,16.75,16.75,0,0,0,1.44,10.18c2,3.45,5,6.23,10.78,7.09C72.15,82.31,79.23,81.37,77.57,76.7ZM70.71,57.11c1.59,0,3,.63,2,2a5.49,5.49,0,0,1-2.6,1.69,7.84,7.84,0,0,1-6-.58A7.9,7.9,0,0,1,70.71,57.11Z"/><path class="cls-5" d="M58.64,59.36a17.52,17.52,0,0,0-1.53,4,8.42,8.42,0,0,0,5,3,13.42,13.42,0,0,1,.5-2.66A8.1,8.1,0,0,1,58.64,59.36Z"/><path class="cls-5" d="M64.2,60.2a6.39,6.39,0,0,1,.62-.74,6.75,6.75,0,0,1-1.91-1.59,4.55,4.55,0,0,1-1.22-2.32A5.63,5.63,0,0,0,64.2,60.2Z"/><path class="cls-5" d="M114.19,152s0-.07,0-.1v-.1h0c.31-2.31-1.07-4.68-4.12-6.44-5.56-3.21-14.57-3.21-20.13,0-3.06,1.76-4.43,4.13-4.12,6.44h0l0,.1S80,151.1,80,151.1l1.36,1.43a26.25,26.25,0,0,1,6.9,13.93l.8,5h0v0h0a6,6,0,0,0,3.18,3.85,17.29,17.29,0,0,0,15.66,0,5.92,5.92,0,0,0,3.18-3.85h0v-.08Z"/><path class="cls-5" d="M84.42,134.77s0-.06,0-.1l0-.1h0c.31-2.31-1.11-4.61-4.12-6.44-2.13-1.3-13.23-1.3-19.64-1.3-3.82,0-5.92-.38-5.61,1.92h0v.11s-4.24-5.22-4.24-5.22h0a72.17,72.17,0,0,1,6.8,20.89l1.59,9.73h0v0h0a5.9,5.9,0,0,0,3.18,3.85,17.27,17.27,0,0,0,15.65,0,5.9,5.9,0,0,0,3.18-3.85h0v-.07Z"/><path class="cls-5" d="M117.5,140.84s0-.07,0-.1l0-.1h0c-.31-2.31,1.11-4.61,4.12-6.44,2.13-1.3,13.23-1.3,19.64-1.3,3.82,0,5.92-.39,5.61,1.92h0v.11s0,.06,0,.09l-4.13,25.31h0v.06h0a5.92,5.92,0,0,1-3.18,3.85,17.33,17.33,0,0,1-15.65,0,5.92,5.92,0,0,1-3.18-3.85h0v-.08Z"/><path class="cls-4" d="M114.62,68.88a53,53,0,0,0-20.83-4.59,45.36,45.36,0,0,0-45.36,45.36c0,16.66,9.78,30,22.39,39.12a170.83,170.83,0,0,0,19.62,11.45c7.47,3.74,14.58,6.23,23,6.23a45.36,45.36,0,0,0,45.36-45.36c0-16.25-8.74-29.88-21-38.74A137.17,137.17,0,0,0,114.62,68.88Z"/><path class="cls-6" d="M76.45,142c-17.51-14.16-28-45.49-14-65.13a45.23,45.23,0,0,0-14,32.78c0,16.66,9.78,30,22.39,39.12a170.83,170.83,0,0,0,19.62,11.45c7.47,3.74,14.58,6.23,23,6.23a45.26,45.26,0,0,0,33.91-15.23C121.85,169.54,94,156.15,76.45,142Z"/><path class="cls-7" d="M123.72,84.37l7,4c7-2,15.38-.8,20.73,8.24,0,0,1.83-21.18-.87-27l-2-1.18a6.21,6.21,0,0,0-4-.37C135.88,69.59,128.08,76.78,123.72,84.37Z"/><path class="cls-5" d="M130.73,88.42c9.07-2.33,16,.51,20.73,8.24,0,0,8-30.44-5-27.45C137.73,71.23,130.73,88.42,130.73,88.42Z"/><path class="cls-8" d="M143.86,85.38c-8.43-3.09-13.13,3-13.13,3,9.07-2.33,16,.51,20.73,8.24A11.16,11.16,0,0,0,143.86,85.38Z"/><path class="cls-7" d="M116.72,96.5A72.84,72.84,0,0,0,97.1,125.62l-6.7-3.85c-2.52-2.55-9.06-24.26,3.56-32.34C102.38,84,116.72,96.5,116.72,96.5Z"/><path class="cls-5" d="M116.72,96.5A73,73,0,0,0,97.1,125.62S83,101.23,95.71,90.44C103.12,84.14,116.72,96.5,116.72,96.5Z"/><path class="cls-8" d="M116.72,96.5s-7.71,0-14.35,9.1c-6.22,8.51-5.27,20-5.27,20A73,73,0,0,1,116.72,96.5Z"/><path class="cls-5" d="M150.32,119.29c-2.72-1.57-6.57-1.3-10.84,1.17-8.22,4.74-14.88,15.83-14.88,24.77,0,4.26,1.52,7.26,4,8.72l7.1,4.1c2.71,1.53,6.54,1.25,10.79-1.2,8.22-4.74,14.88-15.83,14.88-24.77,0-4.26-1.51-7.25-4-8.71C156.18,122.66,151.51,120,150.32,119.29Z"/><path class="cls-4" d="M146.49,124.5c8.22-4.74,14.88-1.35,14.88,7.58s-6.66,20-14.88,24.77-14.89,1.35-14.89-7.58S138.27,129.25,146.49,124.5Z"/><path class="cls-7" d="M134.59,155.68c-3.76-5.18-1.34-16,2.83-22.59-3.54,5-5.82,11-5.82,16.18,0,8.93,6.67,12.33,14.89,7.58a28.26,28.26,0,0,0,7.39-6.4C148.7,156.66,138.61,161.21,134.59,155.68Z"/><path class="cls-5" d="M141.23,141c1.45-.84,2.63-.16,2.63,1.51a5.81,5.81,0,0,1-2.63,4.55c-1.45.84-2.62.16-2.62-1.51A5.78,5.78,0,0,1,141.23,141Z"/><path class="cls-9" d="M142.11,141.49a2.83,2.83,0,0,0-.11-.81,2.54,2.54,0,0,0-.77.31,5.78,5.78,0,0,0-2.62,4.55,2.88,2.88,0,0,0,.11.81,2.65,2.65,0,0,0,.76-.31A5.81,5.81,0,0,0,142.11,141.49Z"/><path class="cls-5" d="M151.74,134.92c1.45-.84,2.63-.16,2.63,1.52a5.82,5.82,0,0,1-2.63,4.55c-1.45.83-2.63.15-2.63-1.52A5.81,5.81,0,0,1,151.74,134.92Z"/><path class="cls-9" d="M152.62,135.43a2.57,2.57,0,0,0-.12-.82,3.12,3.12,0,0,0-.76.31,5.81,5.81,0,0,0-2.63,4.55,2.47,2.47,0,0,0,.12.81,2.72,2.72,0,0,0,.76-.3A5.82,5.82,0,0,0,152.62,135.43Z"/><circle class="cls-10" cx="120.22" cy="122.79" r="3.5"/><circle class="cls-10" cx="146.49" cy="110.66" r="3.5" transform="translate(-35.34 135.99) rotate(-45)"/><polygon class="cls-5" points="107.96 85.38 92.2 76.28 95.71 74.26 111.47 83.36 107.96 85.38"/><polygon class="cls-9" points="95.71 74.26 95.71 76.28 109.72 84.37 111.47 83.36 95.71 74.26"/><polygon class="cls-8" points="95.71 74.26 95.71 76.28 93.95 77.3 92.2 76.28 95.71 74.26"/></g><circle class="cls-11" cx="108.94" cy="17.13" r="16.78" transform="translate(36.49 100.27) rotate(-57.86)"/><circle class="cls-12" cx="107.52" cy="16.79" r="16.78" transform="translate(22.85 85.15) rotate(-47.79)"/><path class="cls-13" d="M107.5,32.27a15.46,15.46,0,0,1-3.63-.43A15.3,15.3,0,0,1,92.62,13.37,15.28,15.28,0,0,1,111.08,2.12a15.29,15.29,0,0,1-3.58,30.15Zm0-29.68A14.38,14.38,0,0,0,95.2,24.46,14.38,14.38,0,1,0,110.87,3,14.29,14.29,0,0,0,107.45,2.59Z"/><path class="cls-13" d="M112,8.05c3.48,1.64,4,4.6,2.85,7.33L112,14a2.27,2.27,0,0,0-1.15-3.36c-1.34-.63-2.64-.31-3.48,1.48a9.37,9.37,0,0,0-.69,2.73l4.2,2-1,2.15-3.64-1.72a5.37,5.37,0,0,1-.21.56,5.68,5.68,0,0,1-3.2,2.92l7.91,3.73L109.56,27,98.72,21.88,99,20a6.29,6.29,0,0,0,4.09-3.62,4.93,4.93,0,0,0,.19-.54l-2.48-1.17,1-2.14,1.86.87a10.09,10.09,0,0,1,.85-3C106,7.4,109,6.61,112,8.05Z"/><path class="cls-11" d="M91.16,36.93a10.85,10.85,0,1,0-9.87,11.74A10.86,10.86,0,0,0,91.16,36.93Z"/><path class="cls-12" d="M90.22,37a10.85,10.85,0,1,0-9.87,11.74A10.86,10.86,0,0,0,90.22,37Z"/><path class="cls-13" d="M79.42,48a9.89,9.89,0,0,1-9.84-9h0a9.88,9.88,0,1,1,10.7,9A8.38,8.38,0,0,1,79.42,48Zm-9.25-9.08a9.29,9.29,0,1,0,8.45-10.06,9.29,9.29,0,0,0-8.45,10.06Z"/><path class="cls-13" d="M79.83,31.77a3.31,3.31,0,0,1,3.63,3.4h-2a1.44,1.44,0,0,0-1.57-1.6c-.94,0-1.6.54-1.59,1.79a6.06,6.06,0,0,0,.36,1.75l2.93,0v1.5l-2.55,0a2.33,2.33,0,0,1,0,.37,3.61,3.61,0,0,1-1,2.54l5.53,0v1.75l-7.57,0-.35-1.12A4,4,0,0,0,77,39c0-.13,0-.24,0-.36H75.23v-1.5h1.3a6.34,6.34,0,0,1-.32-1.92A3.32,3.32,0,0,1,79.83,31.77Z"/><path class="cls-11" d="M111.81,51.44a11.25,11.25,0,1,0-4.42,15.29A11.25,11.25,0,0,0,111.81,51.44Z"/><path class="cls-12" d="M111,51.92a11.25,11.25,0,1,0-4.42,15.28A11.25,11.25,0,0,0,111,51.92Z"/><path class="cls-13" d="M101.18,67.72a10.35,10.35,0,0,1-2.86-.41,10.15,10.15,0,1,1,2.86.41Zm0-19.9a9.65,9.65,0,0,0-8.43,14.3,9.62,9.62,0,1,0,8.43-14.3Z"/><path class="cls-13" d="M98.51,51.39a3.5,3.5,0,0,1,5.08,1.43l-1.89,1a1.53,1.53,0,0,0-2.26-.74,1.62,1.62,0,0,0-.62,2.46A6.34,6.34,0,0,0,100,57l2.76-1.45.74,1.41-2.39,1.25a3.68,3.68,0,0,1,.48,3.23l5.19-2.73.87,1.65-7.12,3.74-.88-.89a4.21,4.21,0,0,0-.29-3.65,2.2,2.2,0,0,0-.21-.32l-1.63.86-.74-1.41L98,58.06a7.22,7.22,0,0,1-1.24-1.65A3.52,3.52,0,0,1,98.51,51.39Z"/></g></g></g></svg>