<?xml version="1.0" encoding="utf-8"?>
<!-- Generator: Adobe Illustrator 25.0.1, SVG Export Plug-In . SVG Version: 6.00 Build 0)  -->
<svg version="1.1" id="Layer_1" xmlns="http://www.w3.org/2000/svg" xmlns:xlink="http://www.w3.org/1999/xlink" x="0px" y="0px"
	 viewBox="0 0 219.1 176" style="enable-background:new 0 0 219.1 176;" xml:space="preserve">
<style type="text/css">
	.st0{opacity:0.3;fill:#FFD371;enable-background:new    ;}
	.st1{fill:#EAEAEA;}
	.st2{fill:#FFAA55;}
	.st3{fill:#FFFFFF;}
	.st4{fill:#FFD9B6;}
	.st5{opacity:0.24;}
	.st6{fill:none;stroke:#FFAA55;stroke-miterlimit:10;}
	.st7{fill:#FFD371;}
	.st8{clip-path:url(#SVGID_2_);}
	.st9{fill:#FCC8CE;}
	.st10{fill:#222C69;}
	.st11{fill:#F7BEB3;}
	.st12{fill:#25585D;}
	.st13{fill:#E6E9FB;}
	.st14{fill:#EB84A9;}
	.st15{fill:#551E17;}
	.st16{fill:#0E1334;}
	.st17{fill:none;stroke:#551E17;stroke-width:1.03;stroke-linecap:round;stroke-linejoin:round;}
	.st18{fill:none;stroke:#EB84A9;stroke-width:0.77;stroke-linecap:round;stroke-linejoin:round;}
	.st19{fill:#182355;}
	.st20{fill:#1C4A4C;}
	.st21{fill:#6EA6B3;}
	.st22{fill:#A3D0DC;}
	.st23{fill:#CC5B54;}
	.st24{fill:#285C62;}
	.st25{fill:#2C686C;}
	.st26{fill:#377872;}
	.st27{fill:#6EAABA;}
	.st28{fill:none;stroke:#6EAABA;stroke-miterlimit:10;}
	.st29{fill:#61D1D1;}
	.st30{fill:#F35A5D;}
	.st31{fill:#260A05;}
	.st32{fill:none;stroke:#551E17;stroke-linecap:round;stroke-linejoin:round;}
</style>
<g>
	<g id="Layer_2_1_">
		<g id="Option_1">
			<path class="st0" d="M98.8,8.4c61.5-7.3,90.6,9.2,90.6,9.2s42.6,16,25.8,73c-13.4,45.4-75.7,88.6-110.1,77.2s-33.8-31.2-73-55
				S-1.5,65.6,3.6,53.6C3.6,53.6,19.6,17.8,98.8,8.4z"/>
			<ellipse class="st1" cx="186.6" cy="164" rx="24" ry="5.5"/>
			<path class="st2" d="M27.5,6.8h161.7c6.5,0,11.7,5.2,11.7,11.7v94.3c0,6.5-5.2,11.7-11.7,11.7H27.5c-6.5,0-11.7-5.2-11.7-11.7
				V18.5C15.8,12,21.1,6.8,27.5,6.8z"/>
			<path class="st3" d="M26.7,7.9h163.3c5.3,0,9.6,4.3,9.6,9.6v93.3c0,5.3-4.3,9.6-9.6,9.6H26.7c-5.3,0-9.6-4.3-9.6-9.6V17.5
				C17.2,12.2,21.4,7.9,26.7,7.9z"/>
			<path class="st2" d="M138,17.6V90c0,2.2-1.8,4-4,4H24.9c-2.2,0-4-1.8-4-4V17.6c0-2.2,1.8-4,4-4H134c0.9,0,1.9,0.3,2.6,1
				C137.5,15.3,138,16.4,138,17.6z"/>
			<path class="st4" d="M150.5,13.6H188c4.3,0,7.8,3.5,7.8,7.8v15.4c0,4.3-3.5,7.8-7.8,7.8h-37.5c-4.3,0-7.8-3.5-7.8-7.8V21.4
				C142.8,17.1,146.2,13.6,150.5,13.6z"/>
			<path class="st4" d="M150.5,52.6H188c4.3,0,7.8,3.5,7.8,7.8v15.4c0,4.3-3.5,7.8-7.8,7.8h-37.5c-4.3,0-7.8-3.5-7.8-7.8V60.4
				C142.8,56.1,146.2,52.6,150.5,52.6z"/>
			<path class="st4" d="M150.5,91.6H188c4.3,0,7.8,3.5,7.8,7.8v13.2c0,4.3-3.5,7.8-7.8,7.8h-37.5c-4.3,0-7.8-3.5-7.8-7.8V99.4
				C142.8,95.1,146.2,91.6,150.5,91.6z"/>
			<path class="st4" d="M22.4,98.9h58.2c0.8,0,1.4,0.6,1.4,1.4v0c0,0.8-0.6,1.4-1.4,1.4H22.4c-0.8,0-1.4-0.6-1.4-1.4v0
				C21,99.5,21.6,98.9,22.4,98.9z"/>
			<path class="st4" d="M23.8,106.7h55.5c1.6,0,2.8,1.3,2.8,2.8v3c0,1.6-1.3,2.8-2.8,2.8H23.8c-1.6,0-2.8-1.3-2.8-2.8v-3
				C21,107.9,22.2,106.7,23.8,106.7z"/>
			<path class="st4" d="M123.7,98.9h12.8c0.8,0,1.4,0.6,1.4,1.4v0c0,0.8-0.6,1.4-1.4,1.4h-12.8c-0.8,0-1.4-0.6-1.4-1.4v0
				C122.3,99.5,122.9,98.9,123.7,98.9z"/>
			<path class="st4" d="M102,98.9h12.8c0.8,0,1.4,0.6,1.4,1.4v0c0,0.8-0.6,1.4-1.4,1.4H102c-0.8,0-1.4-0.6-1.4-1.4v0
				C100.6,99.5,101.2,98.9,102,98.9z"/>
			<path class="st4" d="M112.5,106.7h22.6c1.6,0,2.8,1.3,2.8,2.8v3c0,1.6-1.3,2.8-2.8,2.8h-22.6c-1.6,0-2.8-1.3-2.8-2.8v-3
				C109.7,107.9,110.9,106.7,112.5,106.7z"/>
			<g class="st5">
				<circle class="st6" cx="169.3" cy="29.1" r="8"/>
				<path class="st2" d="M171.2,27.8l-2.4-1.4c-0.7-0.4-1.6-0.2-2,0.6c-0.1,0.2-0.2,0.5-0.2,0.7v2.8c0,0.8,0.6,1.5,1.5,1.5
					c0.3,0,0.5-0.1,0.7-0.2l2.4-1.4c0.7-0.4,1-1.3,0.6-2C171.6,28.1,171.4,27.9,171.2,27.8z"/>
			</g>
			<g class="st5">
				<circle class="st6" cx="169.3" cy="68.1" r="8"/>
				<path class="st2" d="M171.2,66.8l-2.4-1.4c-0.7-0.4-1.6-0.2-2,0.5c-0.1,0.2-0.2,0.5-0.2,0.7v2.8c0,0.8,0.6,1.5,1.5,1.5
					c0.3,0,0.5-0.1,0.7-0.2l2.4-1.4c0.7-0.4,1-1.3,0.6-2C171.6,67.1,171.4,66.9,171.2,66.8z"/>
			</g>
			<g class="st5">
				<circle class="st6" cx="169.3" cy="106" r="8"/>
				<path class="st2" d="M171.2,104.7l-2.4-1.4c-0.7-0.4-1.6-0.2-2,0.5c-0.1,0.2-0.2,0.5-0.2,0.7v2.8c0,0.8,0.7,1.5,1.5,1.5
					c0.3,0,0.5-0.1,0.7-0.2l2.4-1.4c0.7-0.4,1-1.3,0.6-2C171.6,105,171.4,104.8,171.2,104.7z"/>
			</g>
			<path class="st7" d="M136.6,14.6L22.3,93c-0.9-0.8-1.4-1.8-1.4-3V17.6c0-2.2,1.8-4,4-4H134C134.9,13.6,135.8,14,136.6,14.6z"/>
			<g>
				<defs>
					<rect id="SVGID_1_" x="21" y="-5.4" width="131.7" height="99.4"/>
				</defs>
				<clipPath id="SVGID_2_">
					<use xlink:href="#SVGID_1_"  style="overflow:visible;"/>
				</clipPath>
				<g class="st8">
					<polygon class="st9" points="98.8,216.2 100.5,237.3 91.5,237.3 86.8,216.2 					"/>
					<path class="st10" d="M90.5,232.9c0,0-3.9,6.3-1,7.4s22.3,1.2,27.1,0.5s-10.6-7.3-14.2-8.3S97.8,236.9,90.5,232.9z"/>
					<polygon class="st9" points="41.1,216.2 39.3,237.3 48.3,237.3 53,216.2 					"/>
					<path class="st11" d="M128.9,64.6c0,0,6.5-5.2,6.7-6.6c0.3-2.8,1.3-5,7.3-6.8c0.3,0.6,0.1,1.4-0.4,1.8c-0.5,0.6-1,1-1.6,1.4
						c0,0,1.6,0.6,3.9-1.2s3.3-3.4,4.3-3c0,0,1.2-1.1,1.7-0.9c0.2,0.1,0.4,0.3,0.3,0.6c0.9-0.1,0.7,2.5-0.9,4.7
						c-2.4,3.1-5.3,5.8-7.7,6.6c-1.8,0.7-9.3,8.3-9.3,8.3L128.9,64.6z"/>
					<path class="st12" d="M108.8,90.8c-2.8,1-18.6-23.3-18.6-23.3c-6.1-7-0.6-30.2,4.9-22c0,0,14.4,26,15.9,28.1
						C112.9,76.1,119.3,87.3,108.8,90.8z"/>
					<polygon class="st10" points="49.3,114.9 35.2,222.4 53.5,225.7 68.7,156.3 87.4,226.8 102.2,223.5 90.9,114.9 					"/>
					<path class="st12" d="M91,114.9H49.3c0,0-3.2-1.4-0.4-7.6c1-2.3,0.6-8.2,0.4-16.3c-0.3-16-5.1-42.6,0.8-45.7
						c3.5-1.8,11-4.2,16.4-5.9l1-0.3c3.2-1,5.4-1.6,5.4-1.6c2.7,0.5,5.3,1.2,7.9,2l0.9,0.3c1.4,0.4,2.9,0.9,4.7,1.5
						c9.3,3.2,8.3,2,9.5,13.7C96.9,64.3,91,114.9,91,114.9z"/>
					<path class="st13" d="M81.7,39.8c-0.1,1.9-1,3.7-2.4,5c-1.4,1.4-3.3,2.1-5.2,2.1c-4.1,0-7.5-3.3-7.6-7.5l1-0.3
						c3.2-1,5.4-1.6,5.4-1.6c2.7,0.5,5.3,1.2,7.9,2L81.7,39.8z"/>
					<path class="st11" d="M80.8,23.2l-0.7,12.7L80,39.5c-0.3,3.2-3.1,5.6-6.3,5.3c-3-0.2-5.3-2.7-5.3-5.7l0.1-6.5l0.3-10.7
						L80.8,23.2z"/>
					<path class="st14" d="M80.8,25.7l-0.7,11.9c-5.6,0.2-9.7-2.1-11.6-5.1l0.3-8.2L80.8,25.7z"/>
					<path class="st15" d="M65.1,10.8c0,0-5.4-0.7-4.8,6.1c0.5,5.2,7.6,12.2,7.6,12.2S72.4,13.3,65.1,10.8z"/>
					<path class="st16" d="M87.1,15.6c-0.4,0.8-0.9,1.6-1.4,2.4c-0.5,0.8-0.7,1.7-0.7,2.6c-0.1-1.5-1.1-2.7-1.9-3.9
						s-1.6-2.7-1.2-4.1s2.8-3.5,4.3-2.6C87.9,10.9,87.7,14.2,87.1,15.6z"/>
					<path class="st11" d="M85.2,15.9c0.2,2.9,0.2,5.8-0.2,8.7c-0.7,5.3-0.4,11.5-8.2,11.9c-8.3,0.4-11.1-8.9-11.1-8.9
						s-4.4-0.8-4.7-3.8s2.8-3.1,3.8-2.3c0,0,1.1-11.1,11.4-11.1C85.4,10.4,85.2,15.9,85.2,15.9z"/>
					<path class="st15" d="M75.5,24.4c0,0.8-0.4,1.4-0.8,1.4s-0.8-0.6-0.8-1.4s0.4-1.4,0.8-1.4S75.5,23.6,75.5,24.4z"/>
					<path class="st15" d="M82.9,24.4c0,0.8-0.4,1.4-0.8,1.4s-0.8-0.6-0.8-1.4s0.4-1.4,0.8-1.4S82.9,23.6,82.9,24.4z"/>
					<path class="st17" d="M71.7,21.6c0.8-1.2,2.4-1.8,3.8-1.3"/>
					<path class="st17" d="M80,20.2c1.1-1,2.7-0.9,3.7,0.2c0,0,0,0,0,0"/>
					<path class="st18" d="M78.3,22.3c0,0,0.9,2.3,1.7,3.7s-1.5,2-1.5,2"/>
					<path class="st18" d="M75.3,30.6c1.1,1,2.8,1.3,4.2,0.7"/>
					<path class="st18" d="M64.8,24.8c0,0,0-2.6-1.9-1.9"/>
					<path class="st15" d="M67.3,12.9c0,0,4.7,4.8,2.1,6.6c-1.7,1.2-2.8,2.9-3.3,4.9c-0.1-1-0.5-2-1.2-2.8
						C63.6,19.7,60.9,13.1,67.3,12.9z"/>
					<path class="st12" d="M108.8,90.8c3.4,2.2,29.2-25.4,29.2-25.4l-4.6-6c0,0-19.6,12.3-22.4,14.1
						C106.9,76.1,97.3,83.4,108.8,90.8z"/>
					<path class="st10" d="M49.3,232.9c0,0,3.9,6.3,1,7.4s-22.3,1.2-27,0.5s10.6-7.3,14.1-8.3S42.1,236.9,49.3,232.9z"/>
					<polygon class="st19" points="68.7,156.3 73.7,133.5 71.6,167.2 					"/>
					<path class="st20" d="M95,74.8c0,0,1.2-12.6,1-16.6c1,6.8,1.6,13.6,1.7,20.4L95,74.8z"/>
					<path class="st12" d="M51.4,70.5c0,0,6-25.9-0.4-25.6c0,0-2.1,0.2-6.2,6.7c-2.9,4.5-6.1,12.2-11.8,24.9c-2.7,6-6.1,14,0.2,14.5
						c3.4,0.2,7-1.6,9.1-5.6C46.1,78.2,51.4,70.5,51.4,70.5z"/>
					<path class="st20" d="M56.8,102.7L89.7,95C89.7,95,79.4,102.7,56.8,102.7z"/>
					<path class="st20" d="M48,75.7c0,0,5.3-9.4,8.1-14l-6.6,36C49.5,97.7,48.8,83,48,75.7z"/>
					<polygon class="st20" points="69.1,87.9 49.5,97.1 50.5,87.7 					"/>
					<path class="st21" d="M81.2,89h-6.9c-1.2,0-2.3-1-2.2-2.3c0-0.1,0-0.3,0-0.4l3.2-17.8c0.2-1.1,1.1-1.8,2.2-1.8h6.9
						c1.2,0,2.2,1,2.2,2.3c0,0.1,0,0.3,0,0.4l-3.2,17.7C83.2,88.2,82.3,89,81.2,89z"/>
					<path class="st22" d="M82.1,89.7h-6.9c-1.2,0-2.2-1.1-2.2-2.3c0-0.1,0-0.2,0-0.4l3.2-17.7c0.2-1.1,1.1-1.8,2.2-1.8h6.9
						c1.2,0,2.2,1,2.2,2.3c0,0.1,0,0.3,0,0.4l-3.3,17.7C84.1,88.9,83.1,89.7,82.1,89.7z"/>
					<path class="st21" d="M78.3,74.2h-1.2c-0.2,0-0.4-0.2-0.4-0.4c0,0,0,0,0-0.1l0.8-4.3c0-0.2,0.2-0.3,0.4-0.3h1.2
						c0.2,0,0.4,0.2,0.4,0.4c0,0,0,0.1,0,0.1l-0.8,4.3C78.7,74.1,78.5,74.2,78.3,74.2z"/>
					<path class="st11" d="M62.7,80.1c2-0.1,4-0.4,5.9-0.9c1.1-0.3,3.3-0.7,4-1.8s0.7-3.4,1.4-3.5c0.6-0.1,1.7,1.7,1.4,2.9
						c-0.1,0.8-0.4,1.7-0.9,2.4c-0.1,0.2,4.6,0.5,7.6-0.2c2.1-0.4,1.4,1.6,0,2.2c0.2,0.6-0.1,1.3-0.7,1.6c-0.1,0-0.2,0.1-0.3,0.1
						c0,0,0,1.7-1.4,1.7c-0.2,0.8-0.9,1.3-1.6,1.5c-2.3,0.5-4.7,0.6-7.1,0.3c-2.6,0.2-5.1,0.5-7.6,1L62.7,80.1z"/>
					<path class="st12" d="M32.9,91c4.8,0.8,33.4-2.4,33.4-2.4l-0.7-10c0,0-23.3,1.1-26.5,0.8C28.9,78.5,27,90,32.9,91z"/>
					<path class="st15" d="M68.4,5.4c0.4-0.5,1.1-0.9,1.7-1.1c0.7-0.1,1.5,0.6,1.2,1.2c2.4-1,4.8-1.8,7.3-2.3
						c0.6-0.2,1.3-0.2,1.9,0.1c0.6,0.2,0.8,0.9,0.6,1.4c0,0,0,0.1-0.1,0.1c1.3,0.3,2.6,0.3,3.9,0c1.3-0.1,2.8-0.1,3.7,0.9
						c0.7,1,1,2.2,0.8,3.4c0,1.7-0.2,3.3-0.5,4.9c-0.6,2.4-1.9,4.6-3.7,6.2c0.4-2-0.4-4-2-5.1c-1.6-1.1-3.4-1.7-5.3-1.9
						c-2.3-0.3-4.7-0.2-7,0.2c-1.7,0.3-4.2,1.5-5.9,0.7C61.3,12.6,66.9,6.9,68.4,5.4z"/>
				</g>
			</g>
			<path class="st2" d="M104.8,0h17.5c3.6,0,6.5,2.9,6.5,6.5v3.6c0,3.6-2.9,6.5-6.5,6.5h-17.5c-3.6,0-6.5-2.9-6.5-6.5V6.5
				C98.2,2.9,101.2,0,104.8,0z"/>
			<polygon class="st2" points="102.7,16 102.7,21.4 107.9,16 			"/>
			<circle class="st3" cx="105.3" cy="8.3" r="1.9"/>
			<circle class="st3" cx="113.5" cy="8.3" r="1.9"/>
			<circle class="st3" cx="121.8" cy="8.3" r="1.9"/>
			<polygon class="st23" points="175.4,149.4 178.6,162.5 184.2,162.5 182.9,149.4 			"/>
			<path class="st24" d="M184.8,159.8c0,0,2.4,3.9,0.6,4.6s-13.9,0.8-16.9,0.3s6.6-4.5,8.8-5.2S180.3,162.3,184.8,159.8z"/>
			<polygon class="st23" points="193.1,149.4 195.1,162.5 200.7,162.5 200.6,149.4 			"/>
			<path class="st25" d="M201.3,159.8c0,0,2.4,3.9,0.6,4.6s-13.9,0.8-16.9,0.3s6.6-4.5,8.8-5.2S196.8,162.3,201.3,159.8z"/>
			<path class="st26" d="M202.6,85.7l-0.4,70.3h-8.9l-6.3-51.6l-7.2,21l5.4,30.7h-9.7c0,0-8.5-26.5-8.2-31.7
				c0.3-5.2,10.2-40.7,10.2-40.7L202.6,85.7z"/>
			<polygon class="st27" points="186.9,104.3 186,94.7 184.9,110.2 			"/>
			<line class="st28" x1="197.5" y1="84.8" x2="198" y2="155.9"/>
			<path class="st23" d="M170.2,53.5c0,0-5.8,10.9-5.9,14.2s3.6,2.6,5.5-0.4s5-11.6,5-11.6L170.2,53.5z"/>
			<path class="st21" d="M169.1,54.4c1.4,2.1,3.3,3.7,5.6,4.7c0.8,0.4,1.5-0.6,2-1.8c0.4-1,0.7-2,0.9-3c0,0,4.5-14,0.5-13.5
				c0,0-3.4,0.2-5.9,5.2c-1,2.1-1.8,4.2-2.5,6.3C169.6,53.1,169.4,53.8,169.1,54.4z"/>
			<path class="st12" d="M169.1,54.4c1.4,2.1,3.3,3.7,5.6,4.7c0.8,0.4,1.5-0.6,2-1.8c-2.6-1.2-5-2.9-7-5
				C169.6,53.1,169.4,53.8,169.1,54.4z"/>
			<path class="st29" d="M177.2,84.3c2.5,2.8,19.1,2.4,25.3,1.4c1.1-0.2,2.2-0.6,0.4-4.4c-0.6-1.4-0.4-5.1-0.3-10.2
				c0.2-10,3.2-26.6-0.5-28.5c-3.3-1.5-6.7-2.7-10.2-3.7l-0.6-0.2c-2-0.6-3.4-1-3.4-1c-1.7,0.3-3.4,0.7-5,1.2l-0.6,0.2
				c-0.9,0.3-1.8,0.6-2.9,0.9c-2.1,0.7-3.6,1.1-4,1.8c-1,1.8-0.6,5-0.7,9.7C174.9,57.4,175,81.8,177.2,84.3z"/>
			<polygon class="st30" points="203.5,59.8 200,51 202.6,73.5 			"/>
			<path class="st12" d="M182.6,39.2c0.1,1.2,0.6,2.3,1.4,3.1c1.9,1.8,4.9,1.7,6.7-0.2c0.8-0.8,1.3-2,1.3-3.1l-0.6-0.2
				c-2-0.6-3.4-1-3.4-1c-1.7,0.3-3.4,0.7-5,1.2L182.6,39.2z"/>
			<path class="st31" d="M192.9,21.1c0,0,2.1,0.2,3,3.8s-3.6,9.7-5.3,9.3C190.6,34.2,188.4,22.7,192.9,21.1z"/>
			<path class="st15" d="M179.2,24.1c0.3,0.5,0.5,1,0.9,1.5c0.3,0.5,0.5,1,0.4,1.6c0.2-0.9,0.6-1.7,1.2-2.4c0.6-0.7,0.9-1.6,0.8-2.5
				c-0.2-0.8-1.8-2.2-2.7-1.6S178.8,23.2,179.2,24.1z"/>
			<path class="st23" d="M183.1,28.8l0.4,7.9l0.1,2.2c0.1,1.9,1.7,3.4,3.6,3.4c2,0,3.6-1.6,3.6-3.6c0,0,0,0,0-0.1l-0.1-4l-0.2-6.7
				L183.1,28.8z"/>
			<path class="st15" d="M183.1,30.4l0.4,7.4c3.5,0.1,6-1.3,7.2-3.2l-0.2-5.1L183.1,30.4z"/>
			<path class="st23" d="M180.4,24.3c-0.1,1.8-0.1,3.6,0.1,5.4c0.4,3.3,0.3,7.2,5.1,7.4c5.2,0.3,6.9-5.5,6.9-5.5s2.8-0.5,2.9-2.4
				c0.1-0.8-0.4-1.6-1.2-1.7c-0.4-0.1-0.8,0-1.1,0.3c0,0-0.7-6.9-7.1-6.9C180.3,20.9,180.4,24.3,180.4,24.3z"/>
			<path class="st15" d="M186.3,29.6c0,0.4,0.2,0.8,0.5,0.8s0.5-0.3,0.5-0.8s-0.2-0.8-0.5-0.8S186.3,29.1,186.3,29.6z"/>
			<path class="st15" d="M181.3,29.2c0,0.4,0.2,0.8,0.5,0.8s0.5-0.3,0.5-0.8s-0.2-0.8-0.5-0.8S181.3,28.7,181.3,29.2z"/>
			<path class="st32" d="M188.8,27.8c-0.5-0.8-1.5-1.1-2.4-0.8"/>
			<path class="st32" d="M183.6,27c-0.7-0.6-1.7-0.6-2.3,0.1c0,0,0,0,0,0"/>
			<path class="st32" d="M184.7,28.2c0,0-0.6,1.4-1,2.3s0.9,1.3,0.9,1.3"/>
			<path class="st32" d="M186.5,33.4c-0.7,0.6-1.7,0.8-2.6,0.4"/>
			<path class="st32" d="M193.1,29.8c0,0,0-1.6,1.2-1.2"/>
			<path class="st31" d="M191.6,22.4c0,0-2.9,3-1.3,4.1c1,0.7,1.8,1.8,2.1,3.1c0.1-0.7,0.3-1.3,0.8-1.8
				C193.8,26.6,195.6,22.6,191.6,22.4z"/>
			<path class="st31" d="M192.5,22.6c1-1.5,0.3-4.4-2.8-4.8s-5.1,0.2-6.3-1.9s-4.6-3.3-5.6-0.3s1.3,7.6,4.3,7.4s2.8-0.5,4.7,0.6
				S190.9,25.1,192.5,22.6z"/>
			<path class="st23" d="M207.5,54.1c0,0,5.8,10.9,5.9,14.2s-3.6,2.6-5.5-0.4s-5-11.6-5-11.6L207.5,54.1z"/>
			<path class="st23" d="M166.4,64l9.1-6.7c0.8-0.6,2-1.5,2.5-1.8c1.7-0.6,3.5-1,5.3-1.1c0.9,0.1,1.7,0.3,2.6,0.5
				c0.5,0.2-0.1,0.8-0.6,1c-1.3,0.7-2.7,1.3-4.1,1.6c-0.9,0.2-1.7,0.6-2.4,1.1c-0.5,0.4-9.6,9.6-9.9,9.8L166.4,64z"/>
			<path class="st23" d="M177.1,56.2c0,0,3.2-3,3.7-3s0.1,0.7-1.1,1.8c-0.4,0.4-0.8,0.8-1.3,1.1C178,56.3,177.5,56.4,177.1,56.2z"/>
			<path class="st21" d="M179.6,67.4l11.8,1.4c0.5,0.1,1-0.3,1.1-0.9c0-0.1,0-0.2,0-0.4l-2.8-10.8c-0.1-0.4-0.4-0.7-0.8-0.7
				L177,54.6c-0.6,0-1,0.4-1,1c0,0.1,0,0.2,0,0.3l2.8,10.8C178.9,67.1,179.2,67.3,179.6,67.4z"/>
			<path class="st3" d="M179.1,67.8l11.8,1.4c0.5,0.1,1.1-0.3,1.1-0.8c0-0.1,0-0.3,0-0.4l-2.8-10.8c-0.1-0.4-0.4-0.7-0.8-0.7
				L176.6,55c-0.5-0.1-1,0.4-1.1,0.9c0,0.1,0,0.2,0,0.3l2.8,10.8C178.4,67.4,178.7,67.7,179.1,67.8z"/>
			<path class="st21" d="M187.9,59.4l-0.6-2.1c0-0.2,0.1-0.3,0.2-0.4c0,0,0.1,0,0.1,0l0.6,0.1c0.1,0,0.2,0.1,0.3,0.2l0.6,2.1
				c0,0.2-0.1,0.3-0.2,0.4c0,0-0.1,0-0.1,0l-0.6-0.1C188,59.6,187.9,59.5,187.9,59.4z"/>
			<path class="st23" d="M211.2,65.1c-3.6,0.1-14.9-0.1-16.3-0.6c-0.6-0.2-2.2-0.6-2.6-1.2s-0.8-1.6-1.2-1.7s-0.2,1-0.1,1.4
				c0.1,0.5,0.3,0.9,0.5,1.4c-1.5,0.3-3,0.4-4.4,0.1c-1.2-0.3-1,0.7-0.2,1c-0.2,0.4,0,0.9,0.4,1.1c0,0,0.1,0,0.1,0
				c0,0-0.1,0.9,0.7,1c0.2,0.4,0.6,0.7,1,0.8c1.4,0.2,2.7,0.3,4.1,0.3c0.8,0,16.1,2.4,18.8,1.8C213.1,70.2,212.3,65,211.2,65.1z"/>
			<path class="st21" d="M200.8,55.6c0.2,0.7,0.4,1.3,0.7,2c0.4,1.1,1,2.3,1.6,2.2c0,0,7.9-2.5,7.7-3.3c-0.3-0.8-0.6-1.5-1-2.3
				c-1.3-2.7-3.4-6.3-4.2-7.7c-2.9-4.7-4.1-4.1-4.1-4.1C197.5,42.2,200.8,55.6,200.8,55.6z"/>
			<path class="st12" d="M201.5,57.6c0.4,1.1,1,2.3,1.6,2.2c0,0,7.9-2.5,7.7-3.3c-0.3-0.8-0.6-1.5-1-2.3
				C207.1,55.5,204.3,56.6,201.5,57.6z"/>
			<path class="st21" d="M199,79.8c0,0-13.2-2.1-20.3-6.3C184.2,78.4,191.6,80.7,199,79.8z"/>
		</g>
	</g>
</g>
</svg>
