<svg xmlns="http://www.w3.org/2000/svg" viewBox="0 0 172.57 177"><defs><style>.cls-1,.cls-12,.cls-19,.cls-23,.cls-25,.cls-26,.cls-4,.cls-9{isolation:isolate;}.cls-2{fill:#eaeaea;mix-blend-mode:multiply;}.cls-3{fill:#8fe5e1;}.cls-4{fill:#75c189;}.cls-18,.cls-5{fill:#fb7b00;}.cls-11,.cls-14,.cls-15,.cls-16,.cls-19,.cls-23,.cls-25,.cls-26,.cls-6,.cls-7{fill:#fff;}.cls-6{opacity:0.8;}.cls-7{opacity:0.7;}.cls-8{fill:#e18c7c;}.cls-14,.cls-22,.cls-25,.cls-9{opacity:0.3;}.cls-10{fill:#382317;}.cls-12,.cls-16,.cls-19{opacity:0.2;}.cls-13{fill:#e67779;}.cls-15{opacity:0.5;}.cls-17{fill:#ff9e8d;}.cls-18{opacity:0.4;}.cls-20{fill:#ecbaa4;}.cls-21{fill:#bc8e88;}.cls-23{opacity:0.05;}.cls-24{fill:#fa5;}.cls-26{opacity:0.6;}</style></defs><g class="cls-1"><g id="Layer_2" data-name="Layer 2"><g id="Option_1" data-name="Option 1"><ellipse id="_Path_" data-name="&lt;Path&gt;" class="cls-2" cx="96" cy="171.58" rx="58.91" ry="5.42"/><path class="cls-3" d="M83.5,115.52a37.7,37.7,0,0,0,3.82.13,38.9,38.9,0,0,0,38.16-35.71l.06-.7a38.92,38.92,0,0,0-1.66-14h0a39,39,0,0,0-30-26.72,39.92,39.92,0,0,0-13.42-.16,38.92,38.92,0,0,0,3.06,77.2Z"/><path class="cls-4" d="M57.56,86.23c-.13.72-1.05,1-1.79,1.08l-3.34.41c-.52-1.38-2.16-1.39-3.31-.86A38.93,38.93,0,0,0,83.5,115.52a37.7,37.7,0,0,0,3.82.13.36.36,0,0,0,.07-.1c.58-1-.27-1.92-.72-2.75-.1-.19-1-2.6-.73-2.61a10.4,10.4,0,0,1-3-.39.3.3,0,0,1-.19-.12c-.09-.16.13-.31.31-.35.46-.11.93-.14,1.38-.27a1.6,1.6,0,0,0,1.07-.85,8.11,8.11,0,0,0,.15-1.4,1.92,1.92,0,0,1,1.1-1.26,6.39,6.39,0,0,1,1.61-.43c-1.18-.64-.32-2-1.24-2.86-.3-.29-.73-.64-.55-1s.8-.35.87-.73-.23-.49-.49-.55a3,3,0,0,1-.8-.17.72.72,0,0,1-.23-1,2.23,2.23,0,0,1,.88-.53c.3-.16.58-.54.4-.83a.58.58,0,0,0-.18-.17,1.59,1.59,0,0,0-1.64.27,3,3,0,0,1-1.56.74.49.49,0,0,1,.19-.67.77.77,0,0,0,.24-.12c.13-.14,0-.37-.06-.54a3.5,3.5,0,0,1-.27-2.67l3.56.07c0-.27.06-.43.34-.51C87,92.89,86.13,92,85.42,91a.64.64,0,0,0-.32-.31,3.44,3.44,0,0,0-.46,0c-.52-.07-.6-.77-.55-1.28-.07-.16-.32-.09-.42.05a2.47,2.47,0,0,1-.23.46.66.66,0,0,1-.72.08,1.71,1.71,0,0,1-.91-2.22.62.62,0,0,1,.2-.25c.2-.11.45,0,.68.07.91.16.77-.84.55-1.32A2.83,2.83,0,0,0,81.42,85c-.75-.19-5.77-1.15-4.94-2.78a.75.75,0,0,1,.39-.33,10.88,10.88,0,0,1,1.53-.29c.5-.14,1-.66.77-1.14-.09-.19-.27-.32-.37-.5-.29-.51.15-1.17,0-1.72a4.73,4.73,0,0,0-.44-.66c-.14-.24-.16-.59.07-.72s.61.07.88,0a.47.47,0,0,0,0-.78.81.81,0,0,0-.89.07,1.06,1.06,0,0,1-.43.23c-.29,0-.51-.25-.66-.5l-.71-1.22a.68.68,0,0,0-.56.51c-.1.25-.11.52-.22.77-.5,1.2-2.33,1.06-2.09,2.7a.78.78,0,0,1,.79,1c-.19.58-1.06.9-.94,1.5,0,.21.21.38.24.59.09.58-.8.79-1.19.92-1.28.44-1.36-.4-2.47-.45-.51,0-1,.32-1.47.38s-.92-.15-1.39-.12c-1.28.07-.63,1.81-.54,2.56-.69-.46-1.61.08-2.16.7-.84.94-.76.78-1.87.82a.8.8,0,0,0-.72.42c-.21.47.23,1,.24,1.49,0,.25-.09.49-.07.73.06.64.82.92,1.28,1.37a1.76,1.76,0,0,1,.5,1.55A3.31,3.31,0,0,1,63,92l-.57-1.11a2.42,2.42,0,0,0-.65-.89,2,2,0,0,1-.5-.37c-.24-.34,0-.79,0-1.2a11.81,11.81,0,0,0-.6-3.64c-.25-1-1-1.46-1.2-2.43a.31.31,0,0,0-.44-.14.68.68,0,0,0-.27.44,1.78,1.78,0,0,0,.1,1.2c-.22-.49-1.45.79-1.53,1s.14,1,.13,1.38c0,1-.27,1.61-1.33.85-.41-.29-.93-.63-1.36-.38a.65.65,0,0,1-.36.73,1.36,1.36,0,0,1-.87.06.83.83,0,0,1-.52-.25c-.07-.08-.11-.19-.19-.25-.28-.22-.62.15-.77.46"/><path class="cls-4" d="M104.57,55.63c.22.34,0,.78-.25,1.09s-.54.69-.43,1.07l1.39.13a.24.24,0,0,1,.27.34c0,.3-.07.6-.11.89-.29.23-.57-.49-.93-.41-.16,0-.24.2-.33.34-.75,1.17-2.06.29-2.76-.32A4.68,4.68,0,0,0,98.35,58a1.46,1.46,0,0,0-1.09.29c-.27.27-.28.69-.42,1-.23.62-.83,1-1.16,1.6-1.18,2,.94,3.53,2.74,3,.93-.28.77-.45,1.72-.17.4.11.89,0,1.13.45a.74.74,0,0,1-.65,1.08,3.16,3.16,0,0,1-1.53-.17,6,6,0,0,1-.07,2,.88.88,0,0,0-.94,1.18c.3,0,.71.11.69.42a.53.53,0,0,1-.11.24,9.76,9.76,0,0,0-.66.89c-.28.5-.28,2-1,2.16-.13,0-.26,0-.39.06a.59.59,0,0,0-.35.67.79.79,0,0,0,.57.55,4.68,4.68,0,0,1,.54.1c.92.32.11,1.23.33,1.68a8.17,8.17,0,0,0,1.84,1.22,2.17,2.17,0,0,0-1,1.64c0,.74.55,1.11,1.26,1.33s1.66.31,2.2.52c.3.11.65.22.9,0s.24-.82.59-1a1.09,1.09,0,0,1,.36-.06A1.38,1.38,0,0,0,105,77.23c.16-.21.49-.19.76-.19s.63-.08.67-.35-.36-.49-.67-.51a3.4,3.4,0,0,0-1,.08,1.16,1.16,0,0,1-.71,0,.87.87,0,0,1-.37-.39,2,2,0,0,1-.39-1.23.89.89,0,0,1,.82-.86,1.4,1.4,0,0,0,.35,0c.3,0,.43-.41.41-.71a2.74,2.74,0,0,1,0-.9c.08-.29.48-.51.68-.29.17-.38.28-.94-.09-1.13a1.12,1.12,0,0,0-.4-.07c-.83-.08-2-1.2-1-1.85.6-.42,1.59.46,2.12-.34.26-.38.1-.93.36-1.31.16-.11.34.11.37.3a1.78,1.78,0,0,1-.58,1.64c.47.27,1.21,0,1.53.4s-.15,1.18.26,1.52a.83.83,0,0,0,.43.15c.75.11,2.15,0,2.19,1.05a1.67,1.67,0,0,0,0,.39c.11.38.62.41,1,.38.2-.39-.06-.84-.24-1.24s-.16-1,.26-1.11.66.19.92,0,.17-.24.3-.31c.31-.16.57.31.9.42s.81-.46.81-.94-.12-1,.2-1.4c.1-.11.23-.19.34-.3a2.06,2.06,0,0,0,.45-1.31c.08-.74,3,1.19,3.21,1.22,1.42.24,2.29-1.17,3.27-1.94a8.78,8.78,0,0,1,1.69-1A39.26,39.26,0,0,0,95.71,38.87a12.84,12.84,0,0,0-1.81-.35c.18.91.74,2.34.13,3.19-.77,1.09-2.4.14-3,1.42,0,.32.53.27.78.48a1.15,1.15,0,0,1,.24.48c.07.17.23.34.41.28.2.31-.12.68-.38.92a2.36,2.36,0,0,0-.73,1c-.25.85.31,1.7.67,2.52A10.92,10.92,0,0,1,92.65,51c0-.34.49-.48.79-.32s.49.46.74.7c.42.4,1,.15,1.41.5s.92,1.19,1.61,1.3c.84.14,1.45-.75,1.83-1.52.92.49,1.49,1.67,2.53,1.75a2.67,2.67,0,0,0,1.17-.27l2.29-.9a1.45,1.45,0,0,1,1-.14c.38.13.57.55.72.91l.49,1.21a.77.77,0,0,1,.09.51.71.71,0,0,1-.36.42,4.15,4.15,0,0,1-3,.61,16.6,16.6,0,0,0,.81,4.07c-.78-.2-1.68.06-2.4-.24"/><path class="cls-4" d="M95.67,87.22a1.53,1.53,0,0,1-1.17.61,8.09,8.09,0,0,1-.83-.16.76.76,0,0,0-.75.25c-.2.3,0,.69.17,1a1.19,1.19,0,0,0,.61.6,4.36,4.36,0,0,0,.63,0c.42.07.69.47,1,.78s.73.61,1.1.4.34-.44.58-.59c.57-.36,1.27.43,1.79.13s.39-1.35.14-1.91a5.29,5.29,0,0,0-1.23-1.44C96.43,85.71,96.6,86.12,95.67,87.22Z"/><path class="cls-4" d="M115.08,103.35c6.12-6.06,9.7-14.9,10.4-23.41l.06-.7c-1.18-1.22-3.54-2-4.15.19-.24,0-.29-.16-.48-.3s-.7.08-.86.4c-.53,1.06-.61,2.39-2.07,2.1-1.75-.34-.56-1.09-1.13-2a1.88,1.88,0,0,0-.35-.34,2,2,0,0,1-.27-1.7.67.67,0,0,0,.91-.38,1.26,1.26,0,0,1,.14-.4c.2-.24.61,0,.7.27s0,.62.09.92.39.59.65.43a.5.5,0,0,0,.2-.31,1.66,1.66,0,0,0-.3-1.52.69.69,0,0,0,.5-.66.67.67,0,0,0-.52-.64c-.43-.1-1,.15-1.21-.25a1,1,0,0,1-.38.94c-1.12.82-3.66.09-3.41,2.49,0,.39.17.77.17,1.15a.91.91,0,0,1-.61.9c.69.55.44,1.82,1.17,2.3a1,1,0,0,0,1.15-.12.34.34,0,0,1,.16-.13c.13,0,.25.09.39.12s.45-.2.69-.21.53.38.59.72.15.74.47.84c.12,0,.24,0,.35,0a.59.59,0,0,1,.37.54,1.77,1.77,0,0,1-.15.68c-.15.15-.4.06-.53-.09a4.33,4.33,0,0,0-.38-.47c-.09-.07-2.12.09-2.06-.06-.3.7-.45,2.23-1.5,1.84-.38-.13-.75-.38-1.13-.27.18-.5.35-1,.52-1.49-.15-.14-.39,0-.46.24s-.07.43-.24.56a.71.71,0,0,1-.41.08l-1.41,0a1.69,1.69,0,0,0-1.41.42,1.27,1.27,0,0,0,.23,1.58c.09.1.2.22.19.35a.53.53,0,0,1-.2.31,2.08,2.08,0,0,0-.69,1.78,1.37,1.37,0,0,0,1.37,1.18c.25,0,.56-.11.71.1s.09.32.23.38.31-.14.44-.28a.73.73,0,0,1,.92-.15A3.79,3.79,0,0,1,113,93c-.28.48-1.61.29-2.13.32a.7.7,0,0,0-.56.18c-.21.23,0,.61.19.83s.53.38.65.67a1.4,1.4,0,0,1,0,.54,1.42,1.42,0,0,1-.34,1c-.13.11-.3.17-.43.28a1.09,1.09,0,0,0-.22,1.1c.1.38.31.73.38,1.12.16.83-.3,1.73,0,2.5.16.38.66.68,1,.41s.26-.76.61-.8.75.8,1,1,.66-.09,1.06.21S114.73,103.1,115.08,103.35Z"/><path class="cls-4" d="M63.12,51.51c.34-.44.56-.95,1.2-1.06.88-.15,1.22.34.83,1.18a.37.37,0,0,0-.05.23c.06.26.44.11.66,0a1.75,1.75,0,0,1,1.69-.08,8.66,8.66,0,0,0,.24-2.64c-.44-1-2.48-.51-2.06-1.57.76,0,1.54.09,2.31.14l.12-1.1c0,.27,1.39.22,1.55.13.63-.31.46-1.45,1.58-1.27,1.43.24,1.51,3-.11,2.58a7.34,7.34,0,0,0-.58,2.7h-.88a.81.81,0,0,0-.1.71,2.18,2.18,0,0,0,2.42,0c.47.35,1.12,0,1.59-.32a1.73,1.73,0,1,0,1.11-2.61,2.9,2.9,0,0,0-.6-1.63,3.67,3.67,0,0,0,3.51-2.43c.25-.73.31-1.61.92-2.08.27-.2.62-.29.9-.48a2.76,2.76,0,0,0,.93-2c.06-.51.11-1,.14-1.54A38.93,38.93,0,0,0,57.38,51.15a1.5,1.5,0,0,0,.06.79,1.69,1.69,0,0,0,1.22.76c1.86.49,3.06.38,4.35-1.07Z"/><rect class="cls-5" x="111.88" y="50.1" width="46.54" height="0.48" transform="translate(-8.87 57.91) rotate(-23.44)"/><rect class="cls-5" x="63.68" y="13.9" width="0.48" height="34.69" transform="translate(-6.87 38.32) rotate(-31.76)"/><rect class="cls-5" x="12.87" y="99.85" width="48.39" height="0.48" transform="matrix(0.98, -0.21, 0.21, 0.98, -19.74, 9.73)"/><rect class="cls-6" x="111.88" y="50.1" width="46.54" height="0.48" transform="translate(-8.87 57.91) rotate(-23.44)"/><rect class="cls-5" x="132.66" y="83.52" width="0.48" height="51.33" transform="matrix(0.85, -0.53, 0.53, 0.85, -37.69, 87.22)"/><rect class="cls-6" x="132.66" y="83.52" width="0.48" height="51.33" transform="matrix(0.85, -0.53, 0.53, 0.85, -37.69, 87.22)"/><rect class="cls-6" x="63.68" y="13.9" width="0.48" height="34.69" transform="translate(-6.87 38.32) rotate(-31.76)"/><rect class="cls-6" x="12.87" y="99.85" width="48.39" height="0.48" transform="matrix(0.98, -0.21, 0.21, 0.98, -19.74, 9.73)"/><path class="cls-5" d="M59.5,148.72,13.13,105.13l6.56-49.59,0,0L54.68,16.27h.08L118.08,7.5,156.75,41v.13l-10,90-.17,0ZM13.64,105l46,43.26,86.65-17.48,9.95-89.55L117.93,8l-63,8.71-34.78,39Z"/><path class="cls-6" d="M59.5,148.72,13.13,105.13l6.56-49.59,0,0L54.68,16.27h.08L118.08,7.5,156.75,41v.13l-10,90-.17,0ZM13.64,105l46,43.26,86.65-17.48,9.95-89.55L117.93,8l-63,8.71-34.78,39Z"/><path class="cls-5" d="M172.57,42.08a15.9,15.9,0,0,1-3.18,9.57A15.58,15.58,0,0,1,167,54.22a15.15,15.15,0,0,1-2.64,1.83,15.92,15.92,0,0,1-14.3.56,5.77,5.77,0,0,1-.56-.27h0a15.22,15.22,0,0,1-3.13-2,16,16,0,1,1,26.24-12.2Z"/><circle class="cls-7" cx="156.61" cy="42.08" r="15.5" transform="translate(16.12 123.07) rotate(-45)"/><path class="cls-8" d="M146.33,49.32l1.49-6.21s1-.76,1-1.31-.58-3.8-1-4-2.85.66-3,1.35a11.45,11.45,0,0,0,1,3.65L143.45,50Z"/><path class="cls-5" d="M147.53,45.76l-.9,8.16a15.24,15.24,0,0,1-3.47-4.15c.56-2,1.12-3.72,1.38-4.51l.14-.43.52.06,2.13.27.26,0Z"/><path class="cls-5" d="M151.6,51l-1.39,5.16a4.43,4.43,0,0,1-.54-.26h0a15,15,0,0,1-3-2c.11-.25,3-6.67,4-6.59Z"/><path class="cls-9" d="M147.53,45.76l-.9,8.16a15.24,15.24,0,0,1-3.47-4.15c.56-2,1.12-3.72,1.38-4.51l.14-.43.52.06,2.13.27.26,0Z"/><path class="cls-9" d="M151.6,51l-1.39,5.16a4.43,4.43,0,0,1-.54-.26h0a15,15,0,0,1-3-2c.11-.25,3-6.67,4-6.59Z"/><polygon class="cls-5" points="148.19 44.69 147.7 45.79 144.31 45.22 144.38 44.6 148.19 44.69"/><path class="cls-10" d="M166,36.75c-.39,1.52,1.77,5.71.9,13.33s-9.24,7.15-13,4.61-3.1-16.32-1.81-19S166,36.75,166,36.75Z"/><path class="cls-5" d="M168.25,49.07c-.08.22-.15.44-.22.66s-.16.43-.23.65c-.14.42-.27.82-.41,1.22l-.73,2.27a14.22,14.22,0,0,1-2.56,1.77,15.47,15.47,0,0,1-13.89.54,4.43,4.43,0,0,1-.54-.26c0-.15,0-.3,0-.45V55c0-.44,0-.85,0-1.24s0-.51,0-.74,0-.23,0-.35c0-.43,0-.81.07-1.17l0-.35c0-.34,0-.64.07-.92a8.36,8.36,0,0,1,.56-2.75.48.48,0,0,1,.09-.13c0-.05.07-.05.07-.05l.62-.06c1-.08,3.18-.24,5.12-.22h.11l.77,0c1,0,2,.14,3,.26l1.1.15,1.19.19a.86.86,0,0,0,.17,0,38.39,38.39,0,0,1,4.34,1c.4.11.8.22,1.19.35Z"/><path class="cls-9" d="M168.25,49.07h0c-.07.22-.15.44-.21.65s-.16.43-.23.65c-.14.42-.27.82-.41,1.22l-.73,2.27a14.22,14.22,0,0,1-2.56,1.77,15.47,15.47,0,0,1-13.89.54,4.43,4.43,0,0,1-.54-.26h0c0-.15,0-.3,0-.45V55c0-.44,0-.85,0-1.24s0-.51,0-.74,0-.23,0-.35c0-.43,0-.81.07-1.17l0-.35c0-.34,0-.64.07-.92a8.36,8.36,0,0,1,.56-2.75.48.48,0,0,1,.09-.13c0-.05.07-.05.07-.05l.62-.06c1-.08,3.18-.24,5.12-.22h.11l.77,0c1,0,2,.14,3,.26l1.1.15,1.19.19a.86.86,0,0,0,.17,0,38.39,38.39,0,0,1,4.34,1C167.46,48.83,167.86,48.94,168.25,49.07Z"/><path class="cls-11" d="M159.29,46.63c3.41.27,3.83,1.3,3.47,1.85s-5,5.06-6.39,8.1C156.37,56.58,151.35,46,159.29,46.63Z"/><path class="cls-8" d="M157.52,50.08c3.38-.44,4.4-1.88,4.4-1.88-2.15-2-.36-5.54-.36-5.54l-4.08.76a10.86,10.86,0,0,1,.16,1.72c0,2.47-1.08,2.49-1.08,2.49C155.84,49,157.52,50.08,157.52,50.08Z"/><path class="cls-12" d="M157.48,43.42a10.86,10.86,0,0,1,.16,1.72,4.53,4.53,0,0,0,3.92-2.48Z"/><path class="cls-8" d="M159.74,32c-3.54-.19-4.79,1.64-5.25,5.28-.57,4.54.26,7.84,4.74,7.1C165.32,43.42,165.62,32.36,159.74,32Z"/><path class="cls-12" d="M156.79,37.24a7.67,7.67,0,0,1-1.11,1.41,1,1,0,0,0,.91.45Z"/><path class="cls-10" d="M159,37.07c0,.29.11.53.31.55s.36-.21.39-.5-.12-.54-.31-.55S159,36.77,159,37.07Z"/><path class="cls-10" d="M159.45,36.59l-.62-.3S159.11,36.85,159.45,36.59Z"/><path class="cls-10" d="M155.37,36.72c0,.29.12.54.31.56s.37-.21.39-.5-.12-.54-.31-.56S155.39,36.43,155.37,36.72Z"/><path class="cls-10" d="M155.84,36.24l-.61-.29S155.5,36.5,155.84,36.24Z"/><path class="cls-10" d="M160.65,35.41a.17.17,0,0,1-.13-.07,1.65,1.65,0,0,0-1.36-.55.18.18,0,0,1-.18-.16.16.16,0,0,1,.15-.17,2,2,0,0,1,1.65.68.16.16,0,0,1,0,.23A.13.13,0,0,1,160.65,35.41Z"/><path class="cls-10" d="M155.15,34.71a.17.17,0,0,1-.14-.08.18.18,0,0,1,.06-.23,1.85,1.85,0,0,1,1.58-.22.16.16,0,0,1,.08.22.16.16,0,0,1-.21.08,1.5,1.5,0,0,0-1.28.21Z"/><path class="cls-10" d="M157,40.52a9.52,9.52,0,0,1,.35,1.25h.23c1,0,1.5-.41,1.7-.8a1.32,1.32,0,0,0,.14-.62,1.25,1.25,0,0,0,0-.36,4.77,4.77,0,0,1-2,.52Z"/><path class="cls-11" d="M157.39,40.5l.11.37a3.13,3.13,0,0,0,1.95-.53,1.25,1.25,0,0,0,0-.36A4.77,4.77,0,0,1,157.39,40.5Z"/><path class="cls-13" d="M157.61,41.76c1,0,1.5-.41,1.7-.8a3.52,3.52,0,0,0-1.14.28A1.3,1.3,0,0,0,157.61,41.76Z"/><path class="cls-10" d="M163.28,38.21s-1.5-3-1.12-5.23c0,0-6.86-3.25-7.6,3.85,0,0-.34-6.36,5.76-6.16s5.58,9.09,2.29,11.57C162.61,42.24,164.2,40.09,163.28,38.21Z"/><path class="cls-8" d="M162.66,38.93a1.56,1.56,0,0,1,1.75-1.33c1.09.18,1.49,2.46-1.27,2.86C162.75,40.51,162.55,40.12,162.66,38.93Z"/><path class="cls-10" d="M161.21,32.63A13.43,13.43,0,0,0,163.28,41a4.76,4.76,0,0,1-.3,5.65s3.54-2.25,3.66-5.65c0,0,2.92-8.11-3.14-10.3,0,0,0-1.83-4-1.48s-7.14,3.74-7.74,8.06,1.65,9.13,1.65,9.13S151,31.07,161.21,32.63Z"/><path class="cls-10" d="M161.44,32.7a10.23,10.23,0,0,0-.29,3.14,15.52,15.52,0,0,0,.51,3.17,13.49,13.49,0,0,0,1.18,3,8.87,8.87,0,0,0,2,2.52,8.86,8.86,0,0,1-2.1-2.46,13.06,13.06,0,0,1-1.31-3,15.74,15.74,0,0,1-.64-3.21,10.24,10.24,0,0,1,.2-3.3Z"/><path class="cls-5" d="M169,51.37a15.53,15.53,0,0,1-2.36,2.5,14.22,14.22,0,0,1-2.56,1.77c.05-.2.12-.4.19-.61a15.55,15.55,0,0,1,2.56-4.37,18.46,18.46,0,0,1,1.39-1.58h0A4.06,4.06,0,0,1,169,51.37Z"/><path class="cls-9" d="M169,51.37a15.53,15.53,0,0,1-2.36,2.5,14.22,14.22,0,0,1-2.56,1.77c.05-.2.12-.4.19-.61a15.55,15.55,0,0,1,2.56-4.37,18.46,18.46,0,0,1,1.39-1.58h0A4.06,4.06,0,0,1,169,51.37Z"/><circle class="cls-5" cx="117.53" cy="8.71" r="8.71"/><path class="cls-14" d="M125.74,8.71A8.21,8.21,0,1,1,117.53.5,8.2,8.2,0,0,1,125.74,8.71Z"/><path class="cls-5" d="M123.55,14.3a8.22,8.22,0,0,1-12.35-.36l.13,0a1.89,1.89,0,0,1,.39-.41.2.2,0,0,1,0-.07l.14,0a1.74,1.74,0,0,1,.9-.24,1.23,1.23,0,0,1,.27,0l.51-.1s0,.05,0,.14l2.77.19a1.52,1.52,0,0,0,.51-.72,2.64,2.64,0,0,0,.09-.94,2.85,2.85,0,0,1-1.14-.31,2.9,2.9,0,0,1-1.42-1.61,1.71,1.71,0,0,1-.09-.3,7.31,7.31,0,0,1-.05-3.1h-.08a.08.08,0,0,1-.08-.09,0,0,0,0,0,0,0,.1.1,0,0,1,.11-.08h0a6.54,6.54,0,0,1,.14-1.86,2.19,2.19,0,0,1,0-1.87c.31-.44.07-.21.88-.27s.32-.79.83-.79.41.31,1,.55.4-.48,1.12-.55.81.48,1.33.62a2.51,2.51,0,0,0,1,0c.37,0,.4,1.09.56,1.29s.43-.1.76.46a.45.45,0,0,1,.07.27A5.8,5.8,0,0,1,121,6.17q-.06.48-.18,1A.94.94,0,0,1,121,8.28a2,2,0,0,1-.79.84,6.36,6.36,0,0,1-.52.91,6.83,6.83,0,0,0,.09,3.67A27.27,27.27,0,0,1,123.55,14.3Z"/><circle class="cls-15" cx="117.53" cy="8.71" r="8.71"/><circle class="cls-5" cx="59.58" cy="147.7" r="8.71" transform="translate(-86.99 85.39) rotate(-45)"/><path class="cls-16" d="M67.79,147.7a8.22,8.22,0,1,1-8.21-8.21A8.18,8.18,0,0,1,67.79,147.7Z"/><path class="cls-5" d="M65.22,153.67a8.21,8.21,0,0,1-10.29.81c.59-.09,1.22-.16,1.86-.23A7.87,7.87,0,0,0,56.9,150a7.22,7.22,0,0,1-.6-1.05,2.33,2.33,0,0,1-.91-1,1.07,1.07,0,0,1,.18-1.25,9.79,9.79,0,0,1-.27-2l0,0a2.92,2.92,0,0,1,1.81-3.48,6,6,0,0,1,5,.73s.54-1,1.18-.73.25.93.15,1.14a1.27,1.27,0,0,1,.56-.48c.43-.2,1,.35-.32,1.71a1.88,1.88,0,0,1-.48.34,6.65,6.65,0,0,1,0,1.85,8.57,8.57,0,0,1-.06,3.58,1.69,1.69,0,0,1-.1.34,3.34,3.34,0,0,1-1.64,1.87A3.25,3.25,0,0,1,60,152a3,3,0,0,0,.12,1.09,1.66,1.66,0,0,0,.59.83c1.3-.09,2.44-.15,3.19-.21,0-.11,0-.17,0-.17l.59.11A2.3,2.3,0,0,1,65.22,153.67Z"/><circle class="cls-15" cx="59.58" cy="147.7" r="8.71" transform="translate(-86.99 85.39) rotate(-45)"/><circle class="cls-5" cx="19.91" cy="55.64" r="8.71" transform="translate(-38.82 62.24) rotate(-76.72)"/><path class="cls-16" d="M28.13,55.64a8.22,8.22,0,1,1-8.22-8.21A8.2,8.2,0,0,1,28.13,55.64Z"/><path class="cls-5" d="M26,61.12a8.22,8.22,0,0,1-11,1.17l3.26-1,.18.23.41-.08.79-.13a2.3,2.3,0,0,0,.32-1H19.6c.09-.32-.4-1-.4-1l-.16.9a1.82,1.82,0,0,1-.55-.2c-.22-.13-.5-1.11-.5-1.11l-.69,1.17c-.12.22-.45,0-.45,0a3.24,3.24,0,0,1,.06-1.67.57.57,0,0,0-.58-.82,2.87,2.87,0,0,1-.22.93,2.9,2.9,0,0,0-.22,1.22c0,.34,0,.58-.21.58s-.28-.21-.25-.58-.36-.73-.14-1,.06-1.12.06-1.12c-.14.57-.77.55-.88,1s.3,1,.11,1.19-.52,0-.52,0,.28-.45.09-.72-.5-.39-.36-.92.38-.54.3-1.13-.36-.55,0-.77a2.91,2.91,0,0,0,.82-1.71c0-.45-.19-1.49.58-1.86s1-.64.82-1.61.6-.89,1.53-.7c0,0,.46-.74.9-.6s.76,0,.86-.19,1.3-.22,1.48,0a1.31,1.31,0,0,0,1.22.22c.39-.17,1.44.49,1.41.92s0,.69.54.94.67.38.91,1.36-.16,1.37.33,1.75.44,1.89.47,2.35,0,1,0,1l-.14,0c-.14,0-.25-.51-.22-.91s-.83-.94-.91-1,.18.37.28.63a4.73,4.73,0,0,1,.11,1.47c0,.47.52.72.52.72l-.6.3a2.92,2.92,0,0,1-.31-1.51,1.11,1.11,0,0,0-.29-1v1s-.17.35-.41.82.19.6.26.85-.54.26-.54.26l-.11-.59-.21.59a3.3,3.3,0,0,1-1.18.36,2,2,0,0,0,.24.93L23,61c.39,0,.79,0,1.17,0h0C24.9,61,25.56,61.08,26,61.12Z"/><circle class="cls-15" cx="19.91" cy="55.64" r="8.71" transform="translate(-38.82 62.24) rotate(-76.72)"/><circle class="cls-5" cx="54.2" cy="15.78" r="14.61"/><path class="cls-7" d="M68.33,15.78a14,14,0,0,1-2.94,8.61,13.21,13.21,0,0,1-1.68,1.83,12.31,12.31,0,0,1-1.81,1.4l-.08.05a13.41,13.41,0,0,1-1.57.88,14.12,14.12,0,0,1-16.8-3.61h0a14.13,14.13,0,1,1,24.89-9.15Z"/><g id="_Group_" data-name="&lt;Group&gt;"><path class="cls-17" d="M57.49,15.78c.31-.69.53-.39,1.43.3a2.29,2.29,0,0,1,1,2.06c0,.73-.14,2.2-.14,2.2L62.15,23l-1,1.6-2.72-3.07a4.48,4.48,0,0,1-1.56-2.14A9.89,9.89,0,0,1,57.49,15.78Z"/><path class="cls-10" d="M57.18,15l1.91,3.44a.41.41,0,0,1-.05.48l-1.48,1.71a.42.42,0,0,1-.68-.06l-1.72-2.82Z"/><polygon class="cls-18" points="57.07 15.36 58.76 18.54 57.15 20.44 55.42 17.63 57.07 15.36"/><path class="cls-5" d="M61.9,27.62l0,.2-.11-.15a13.41,13.41,0,0,1-1.57.88c.12-1,.26-1.85.39-2.58s.21-1.22.28-1.61.12-.61.13-.65h0a1.54,1.54,0,0,1,.5.16,6.1,6.1,0,0,1,2.16,2.35A12.31,12.31,0,0,1,61.9,27.62Z"/><path class="cls-5" d="M61.93,27.82l-.11-.15a13.41,13.41,0,0,1-1.57.88,14.12,14.12,0,0,1-16.8-3.61l.74-.16.07,0,.15,0c.65-.13,1.31-.24,2-.34h0l.87-.12,1.14-.14h.1c.87-.1,1.75-.18,2.6-.24l.83-.05h0L53,23.77l1-.05h.42l1.2,0c1.26,0,2.37,0,3.25,0h.58l.84,0,.73,0c.06.21.12.43.17.66h0c.24,1,.47,2.07.68,3.25Z"/><path class="cls-12" d="M61.93,27.82l-.11-.15a13.41,13.41,0,0,1-1.57.88,14.12,14.12,0,0,1-16.8-3.61L43.1,25l.34-.08.75-.15.07,0,.15,0c.65-.13,1.31-.24,2-.34h0l.87-.12,1.14-.14h.1c.87-.1,1.75-.18,2.6-.24l.83-.06L53,23.77l1-.05h.42l1.2,0c1.26,0,2.37,0,3.25,0h.58l.83,0,.74,0h0c.06.21.12.43.17.66h0c.24,1,.47,2.07.68,3.25Z"/><path class="cls-17" d="M48.38,24.12c1.56,1.42,5.36.89,5.36.89s2.38-.65,1.88-1.39a2.64,2.64,0,0,1-2.36-1.72,4.22,4.22,0,0,1-.14-1.6,8.66,8.66,0,0,1,.12-.89l-4.71-3.49C49.15,18.22,49.9,22.46,48.38,24.12Z"/><path class="cls-12" d="M49.62,18.14a4,4,0,0,0,3.64,3.76,4.22,4.22,0,0,1-.14-1.6Z"/><path class="cls-10" d="M57.74,9.21s.67,4.4-1.66,6.09-2.34-6.49-2.34-6.49Z"/><path class="cls-17" d="M49.3,18.79a4,4,0,0,0,4.59,1.55,4.46,4.46,0,0,0,2.53-2.07,2.74,2.74,0,0,0,.21-.42c1.15-2.69,1.52-7.39-1.32-9.15a4.32,4.32,0,0,0-6,1.36A4.15,4.15,0,0,0,48.7,12C48.35,15.1,48,16.93,49.3,18.79Z"/><path class="cls-10" d="M53.28,13.64c-.06.25,0,.48.22.51s.33-.16.38-.41-.06-.48-.22-.51S53.32,13.38,53.28,13.64Z"/><path class="cls-10" d="M56.14,14.13a.4.4,0,0,0,.23.51c.16,0,.33-.16.38-.41s-.06-.48-.23-.51S56.19,13.89,56.14,14.13Z"/><path class="cls-12" d="M55.21,14.1a9.11,9.11,0,0,0,.84,2.38,1.48,1.48,0,0,1-1.25,0Z"/><path class="cls-10" d="M52.55,12.56a.16.16,0,0,0,.15,0,1.21,1.21,0,0,1,1-.34.15.15,0,1,0,.07-.29h0a1.45,1.45,0,0,0-1.31.41.15.15,0,0,0,0,.21h0A.09.09,0,0,0,52.55,12.56Z"/><path class="cls-10" d="M57.55,13.35a.11.11,0,0,0,.08,0,.15.15,0,0,0,.11-.18h0a1.49,1.49,0,0,0-.93-1,.15.15,0,0,0-.19.1h0a.14.14,0,0,0,.1.18h0a1.21,1.21,0,0,1,.72.82A.15.15,0,0,0,57.55,13.35Z"/><path class="cls-10" d="M51.65,8.47v1.4A1,1,0,0,0,51,11.1a3.8,3.8,0,0,1-1.55,3.56s0-.51-.41-.44-.64,2.7,0,4a8.22,8.22,0,0,1-1.48-4.12c-.35-2.63-.17-4.76.47-5.68Z"/><path class="cls-17" d="M46.9,14.28a3,3,0,0,0,1.45,1.79c.92.5,1.62-.28,1.56-1.27s-.62-2.24-1.65-2.32A1.34,1.34,0,0,0,46.9,14.28Z"/><path class="cls-10" d="M51.65,9.87s.91.9,1.79.24c0,0,1,.84,1.82.24a1.86,1.86,0,0,0,1.18.85.64.64,0,0,0,.74-.66s1.16.66,1.58.35-.23-1.56-.23-1.56.55-.29.2-1.29-2-.77-2-.77a2.54,2.54,0,0,0-1.07-1.9,1.09,1.09,0,0,0-1.8.23S52.8,4.12,51.44,4.31s-1.2,1.13-1.2,1.13-1.55-1-2.25,0,0,1.44,0,1.44-1.56.53-1.48,1.59.87.9.87.9-.44.51.57.94,2-.63,2-.63a.7.7,0,0,0,.33,1C51,11.1,51.65,9.87,51.65,9.87Z"/><path class="cls-10" d="M54.73,17.44a8.62,8.62,0,0,0-.88.95l-.2-.11c-.9-.52-1.14-1.06-1.14-1.5a1.37,1.37,0,0,1,.16-.61,1.35,1.35,0,0,1,.21-.3,4.94,4.94,0,0,0,1.55,1.39Z"/><path class="cls-11" d="M54.43,17.26l-.27.27c-.84-.49-1.37-1-1.49-1.36a1.35,1.35,0,0,1,.21-.3A4.94,4.94,0,0,0,54.43,17.26Z"/><path class="cls-13" d="M53.65,18.28c-.9-.52-1.14-1.06-1.14-1.5a3.34,3.34,0,0,1,.88.77A1.25,1.25,0,0,1,53.65,18.28Z"/><path class="cls-5" d="M53.74,25s-5.49-3.73-7.23-3.94-1.44,2-1.44,2-1.35,0-.83,1.66,8,2.58,10.73,1.76,4.39-2.37,3.94-3.83-1.73-.21-1.73-.21-.74-1.37-1.81-1.05S53.74,25,53.74,25Z"/><path class="cls-5" d="M65.39,24.39a13.21,13.21,0,0,1-1.68,1.83,12.31,12.31,0,0,1-1.81,1.4l0,.2-.11-.15c-.37-.49-.79-1.08-1.18-1.7a10,10,0,0,1-1.16-2.31h0a2.84,2.84,0,0,1-.11-.6l-.46-.63.15-.17,1.21-1.42.26-.3.52.67s.66-.24,2.79,1.6A15.37,15.37,0,0,1,65.39,24.39Z"/></g><circle class="cls-5" cx="13.81" cy="105.72" r="13.81"/><path class="cls-7" d="M27.15,105.72a13.2,13.2,0,0,1-3,8.41,12.57,12.57,0,0,1-1.89,1.9c-.22.18-.45.36-.69.53a12.94,12.94,0,0,1-2.07,1.22,13.26,13.26,0,0,1-12.39-.54,11.16,11.16,0,0,1-1.45-1h0a.46.46,0,0,1-.07-.07,11.61,11.61,0,0,1-1.51-1.38,13.33,13.33,0,1,1,23.08-9.09Z"/><path class="cls-10" d="M22.26,116c-.22.18-.45.36-.69.53a12.94,12.94,0,0,1-2.07,1.22,13.26,13.26,0,0,1-12.39-.54,11.16,11.16,0,0,1-1.45-1h0a.46.46,0,0,1-.07-.07s0,0,0-.09h0q.18-.64.33-1.35c.14-.63.27-1.29.39-2a29.51,29.51,0,0,0,.4-5.64c-.24-7.06,1-9.65,3.93-11,.13-.06.27-.13.41-.18a3.9,3.9,0,0,1,2-.26h0a9.23,9.23,0,0,1,4.61,2.64,16.51,16.51,0,0,1,1.13,1.91,31.79,31.79,0,0,1,3.32,12.18h0A36,36,0,0,1,22.26,116Z"/><path class="cls-5" d="M22.16,112.39h0a4,4,0,0,0-1.39-.73s-2.82-.27-5.26-.25l-.81,0a36.08,36.08,0,0,0-3.75.38c-.36,0-.73.11-1.09.18a32.82,32.82,0,0,0-3.54.77c-.56.15-1.12.31-1.67.49a4.27,4.27,0,0,0-.58,1.54,11.61,11.61,0,0,0,1.51,1.38.46.46,0,0,0,.07.07h0a11.16,11.16,0,0,0,1.45,1,13.26,13.26,0,0,0,12.39.54,12.94,12.94,0,0,0,2.07-1.22c.24-.17.47-.35.69-.53a12.57,12.57,0,0,0,1.89-1.9A19.19,19.19,0,0,0,22.16,112.39Z"/><path class="cls-19" d="M22.16,112.39h0a4,4,0,0,0-1.39-.73s-2.82-.27-5.26-.25l-.81,0a36.08,36.08,0,0,0-3.75.38c-.36,0-.73.11-1.09.18a32.82,32.82,0,0,0-3.54.77c-.56.15-1.12.31-1.67.49a4.27,4.27,0,0,0-.58,1.54,11.61,11.61,0,0,0,1.51,1.38.46.46,0,0,0,.07.07h0a11.16,11.16,0,0,0,1.45,1,13.26,13.26,0,0,0,12.39.54,12.94,12.94,0,0,0,2.07-1.22c.24-.17.47-.35.69-.53a12.57,12.57,0,0,0,1.89-1.9A19.19,19.19,0,0,0,22.16,112.39Z"/><path class="cls-20" d="M14.47,114.19c-3.1-.4-4-1.73-4-1.73a3.89,3.89,0,0,0,.71-4,6,6,0,0,0-.38-1l3.73.7a11.29,11.29,0,0,0-.14,1.57,4.71,4.71,0,0,0,.1,1.16c.26,1.11.89,1.13.89,1.13C16,113.17,14.47,114.19,14.47,114.19Z"/><path class="cls-12" d="M14.36,109.66a4.71,4.71,0,0,0,.1,1.16,5.18,5.18,0,0,1-3.31-2.41,6,6,0,0,0-.38-1l3.73.7A11.29,11.29,0,0,0,14.36,109.66Z"/><path class="cls-20" d="M13.74,97.76c3.25.12,4.23,1.9,4.34,5.25.14,4.19-.89,7.12-4.92,6.08C7.7,107.67,8.35,97.56,13.74,97.76Z"/><path class="cls-12" d="M16,102.75a7.18,7.18,0,0,0,.89,1.38.89.89,0,0,1-.86.34Z"/><path class="cls-10" d="M12.64,100.78a.21.21,0,0,1-.11,0,.17.17,0,0,1,0-.24,1.86,1.86,0,0,1,1.58-.5.17.17,0,0,1,.14.2.17.17,0,0,1-.19.14,1.53,1.53,0,0,0-1.27.38A.18.18,0,0,1,12.64,100.78Z"/><path class="cls-10" d="M17.71,100.6a.19.19,0,0,1-.1,0,1.39,1.39,0,0,0-1.13-.29.17.17,0,1,1-.1-.32,1.67,1.67,0,0,1,1.43.34.17.17,0,0,1-.1.3Z"/><path class="cls-10" d="M15.5,105.73a7.49,7.49,0,0,0-.43,1.11l-.2,0c-.94-.13-1.34-.5-1.49-.87a1.22,1.22,0,0,1-.07-.58,1.38,1.38,0,0,1,.07-.32,4.6,4.6,0,0,0,1.8.64Z"/><path class="cls-11" d="M15.18,105.68,15,106a2.78,2.78,0,0,1-1.73-.64,1.38,1.38,0,0,1,.07-.32A4.6,4.6,0,0,0,15.18,105.68Z"/><path class="cls-13" d="M14.87,106.81c-.94-.13-1.34-.5-1.49-.87a3,3,0,0,1,1,.35A1.21,1.21,0,0,1,14.87,106.81Z"/><path class="cls-10" d="M10,103.1s1.62-2.61,1.47-4.68c0,0,6.52-2.39,6.6,4.15,0,0,.84-5.77-4.73-6.11s-5.85,7.83-3.06,10.37C10.27,106.83,9,104.73,10,103.1Z"/><path class="cls-20" d="M10.5,103.8A1.42,1.42,0,0,0,9,102.45c-1,.07-1.56,2.11.92,2.7C10.29,105.24,10.5,104.89,10.5,103.8Z"/><path class="cls-10" d="M11.92,95.62c1.76-.49,6.43-.56,7.54,4.29l-.65.32a10.5,10.5,0,0,0-3.51-1,8.29,8.29,0,0,0-.91-1.3,7.89,7.89,0,0,1,0,1.24s-3.05.44-4.42,1.68C7.83,102.76,7.7,104,7.7,104S6.21,97.2,11.92,95.62Z"/><path class="cls-10" d="M19.91,99.86a.13.13,0,0,1-.11-.08A5.63,5.63,0,0,0,17,96.29a7.76,7.76,0,0,0-5.28-.21.11.11,0,0,1-.15-.07.12.12,0,0,1,.07-.15,8,8,0,0,1,5.46.22,5.91,5.91,0,0,1,3,3.63.11.11,0,0,1-.08.14Z"/><path class="cls-10" d="M13.12,102.41s.76-.64,1.12.23A2.27,2.27,0,0,0,13.12,102.41Z"/><path class="cls-10" d="M16.73,102.9s.42-.89,1-.26A2.07,2.07,0,0,0,16.73,102.9Z"/><circle class="cls-5" cx="147.1" cy="129.45" r="17.12" transform="translate(-48.45 141.93) rotate(-45)"/><path class="cls-7" d="M163.74,129.45a16.46,16.46,0,0,1-1.78,7.47c-.22.45-.47.89-.73,1.32s-.43.65-.66,1a16.88,16.88,0,0,1-3.47,3.54c-.3.23-.61.44-.93.65a16.6,16.6,0,0,1-15.95,1.21l-.8-.39h0a16.8,16.8,0,0,1-4-2.95,16.53,16.53,0,0,1-2.93-3.91c-.23-.41-.43-.83-.62-1.26h0a16.64,16.64,0,1,1,31.9-6.65Z"/><g id="_Group_2" data-name="&lt;Group&gt;"><path class="cls-21" d="M138.79,128.8a8.27,8.27,0,0,1-1,1.24l-1.43,6.79-.94,4.44a16.53,16.53,0,0,1-2.93-3.91l.35-1.11c1-3.15,2.19-6.79,2.27-7.15.16-.64-.4-3.79-.27-4.37s3-1.25,3.62-1.24S139,128.39,138.79,128.8Z"/><path class="cls-5" d="M141,136.28v0l-.6,6.19-.21,2.12-.8-.39h0a16.8,16.8,0,0,1-4-2.95,16.53,16.53,0,0,1-2.93-3.91c-.23-.41-.43-.83-.62-1.26l1,.15,3.52.58.75.13-.88,4.29S139.42,136.77,141,136.28Z"/><path class="cls-22" d="M141,136.28v0l-.6,6.19-.21,2.12-.8-.39h0a16.8,16.8,0,0,1-4-2.95,16.53,16.53,0,0,1-2.93-3.91c-.23-.41-.43-.83-.62-1.26l1,.15,3.52.58.75.13-.88,4.29S139.42,136.77,141,136.28Z"/><path class="cls-5" d="M162,136.92c-.22.45-.47.89-.73,1.32s-.43.65-.66,1a16.88,16.88,0,0,1-3.47,3.54c-.3.23-.61.44-.93.65a16.6,16.6,0,0,1-15.95,1.21l-.8-.39h0A56,56,0,0,1,141,136.3v0a34.78,34.78,0,0,1,5.26-1.07h.09a65.93,65.93,0,0,1,7.7-.16h0a36.46,36.46,0,0,1,5.31.53A14.27,14.27,0,0,1,162,136.92Z"/><path class="cls-22" d="M162,136.92c-.22.45-.47.89-.73,1.32s-.43.65-.66,1a16.88,16.88,0,0,1-3.47,3.54c-.3.23-.61.44-.93.65a16.6,16.6,0,0,1-15.95,1.21l-.8-.39h0A56,56,0,0,1,141,136.3v0a34.78,34.78,0,0,1,5.26-1.07h.09a65.93,65.93,0,0,1,7.7-.16h0a36.46,36.46,0,0,1,5.31.53A14.27,14.27,0,0,1,162,136.92Z"/><path class="cls-6" d="M157.1,142.75c-.3.23-.61.44-.93.65a16.6,16.6,0,0,1-15.95,1.21l-.8-.39h0l.06-.42c.28-.43.6-.87,1-1.31a44.41,44.41,0,0,1,5.35-5.46,3.07,3.07,0,0,0,1.86,1,7.46,7.46,0,0,0,4.85-1.31,36.16,36.16,0,0,1,2.61,2.87,15.28,15.28,0,0,1,1.77,2.65C157,142.4,157,142.57,157.1,142.75Z"/><path class="cls-21" d="M154.12,135.06a8,8,0,0,1-5.67,2.57c-3.23.14-2.15-2.4-2.15-2.4a3.1,3.1,0,0,0,2.17-1.54,4.43,4.43,0,0,0,0-3l-.06-.23,4.71-4.19C152.72,128.8,152.32,133.42,154.12,135.06Z"/><path class="cls-12" d="M152.38,130c-.25,1.62-2.22,3.21-3.91,3.71a4.43,4.43,0,0,0,0-3l3.9-3A6.19,6.19,0,0,1,152.38,130Z"/><path class="cls-10" d="M149.33,120.84c1.11,1.26.1,2.65-3.58,4.31-.83-1.93-.23-5.11.95-5.64S148.35,119.74,149.33,120.84Z"/><path class="cls-21" d="M154.5,124.84c-1,3.26-1.41,5.22-3.48,6.53a4.53,4.53,0,0,1-6.86-4c0-3.14,1.61-8,5.17-8.5a4.67,4.67,0,0,1,5.17,6Z"/><path class="cls-10" d="M149.33,124.57c-.06.27-.26.46-.43.41s-.27-.29-.2-.56.25-.45.43-.41S149.38,124.3,149.33,124.57Z"/><path class="cls-10" d="M146.27,123.85c-.07.27-.26.45-.44.41s-.27-.29-.21-.56.26-.46.44-.42S146.33,123.58,146.27,123.85Z"/><path class="cls-12" d="M147.24,124.21a9.73,9.73,0,0,1-1.84,2,1.57,1.57,0,0,0,1.23.55Z"/><path class="cls-10" d="M150.4,123.8a.14.14,0,0,0,.11,0,.17.17,0,0,0,.08-.22,1.63,1.63,0,0,0-1.13-1,.16.16,0,0,0-.19.12v0a.17.17,0,0,0,.13.18h0a1.28,1.28,0,0,1,.89.77A.15.15,0,0,0,150.4,123.8Z"/><path class="cls-10" d="M145.11,122.48a.15.15,0,0,0,.17,0,1.3,1.3,0,0,1,1.06-.51.16.16,0,0,0,0-.32,1.64,1.64,0,0,0-1.35.62.16.16,0,0,0,0,.23h0A.09.09,0,0,0,145.11,122.48Z"/><path class="cls-10" d="M153.87,121.59c-1.67.16-1.88,1.88-.3,5.58,1.92-.85,3.65-3.58,3.13-4.78S155.34,121.45,153.87,121.59Z"/><path class="cls-21" d="M155.45,127.86a3.24,3.24,0,0,1-1.95,1.53c-1.1.3-1.64-.68-1.33-1.71s1.2-2.21,2.29-2.05A1.45,1.45,0,0,1,155.45,127.86Z"/><path class="cls-10" d="M150.65,120.21s-.35,3.43,2.78,4.45,4.32-.77,4.32-.77a6.53,6.53,0,0,1-.8-.13,3.43,3.43,0,0,0,.81-3.16c-.54-1.79-3.3-4.22-5.87-4a5.79,5.79,0,0,0-4.57-.7c-2.53.72-2.85,3.61-2.85,3.61s.33-1.72,1.48-1.93c0,0-2.16,3.16-.49,4.58C145.46,122.17,146.53,118.78,150.65,120.21Z"/><path class="cls-10" d="M146,128a8.78,8.78,0,0,1,.64,1.17l.23-.06c1-.29,1.4-.76,1.51-1.2a1.37,1.37,0,0,0,0-.64,1.45,1.45,0,0,0-.13-.35,4.9,4.9,0,0,1-1.89,1C146.18,128,146,128,146,128Z"/><path class="cls-11" d="M146.39,127.9l.2.34a3.24,3.24,0,0,0,1.82-1,1.45,1.45,0,0,0-.13-.35A4.9,4.9,0,0,1,146.39,127.9Z"/><path class="cls-13" d="M146.91,129.11c1-.29,1.4-.76,1.51-1.2a3.51,3.51,0,0,0-1.07.55A1.24,1.24,0,0,0,146.91,129.11Z"/></g><path class="cls-17" d="M101.93,79.23s3.8-3.8,5-6.51a3.78,3.78,0,0,1,0-2.3c.43-.78,3-3,3.64-2.55s1.65,2.36,1.25,3.15-2.89,2.41-2.89,2.41-3.08,6.17-5,7.57S101.93,79.23,101.93,79.23Z"/><path class="cls-10" d="M92.32,67.8c2.21.29,4.74,11,6.51,12s6.35-4.92,6.35-4.92l2.1,2.4s-6.06,8.45-8.45,7.69-6.91-9.08-6.91-9.08Z"/><path class="cls-23" d="M92.32,67.8c2.21.29,4.74,11,6.51,12s6.35-4.92,6.35-4.92l2.1,2.4s-6.06,8.45-8.45,7.69-6.91-9.08-6.91-9.08Z"/><polygon class="cls-17" points="105.75 166.79 102.84 167.31 101.65 163.34 100.56 159.71 103.92 158.53 104.89 162.91 105.75 166.79"/><path class="cls-10" d="M102.19,167.23c0-.32,3.93-.76,3.93-.76s2.86,2,5.31,2.17,1.39,1.78-1.24,2.25L103.68,172C101.81,172.37,102.7,170.57,102.19,167.23Z"/><polygon class="cls-12" points="104.91 163 101.67 163.42 100.57 159.75 103.92 158.55 104.91 163"/><polygon class="cls-17" points="86.34 168.04 83.39 168.04 82.9 163.93 82.47 160.16 85.97 159.59 86.17 164.06 86.34 168.04"/><path class="cls-10" d="M82.76,167.85c0-.32,4-.07,4-.07s2.46,2.5,4.85,3.07,1.06,2-1.61,2H83.39C81.49,172.84,82.68,171.23,82.76,167.85Z"/><polygon class="cls-12" points="86.17 164.15 82.9 164.01 82.47 160.2 85.97 159.61 86.17 164.15"/><path class="cls-24" d="M105.18,160.69l-4.78.84c-4.82-12-8.25-22.05-10.68-30.37-1.3-4.49-2.32-8.49-3.1-12l.22,13.08v29.72H82c-11.8-56.31-3.44-69.18-3.44-69.18l14.13-2.41a62.94,62.94,0,0,1,1.18,7.9l.64,4.67L100,131.43Z"/><polygon class="cls-5" points="99.65 160.94 105.58 158.98 105.5 161.5 100.6 163.06 99.65 160.94"/><polygon class="cls-5" points="81.35 161.22 87.53 160.31 87.01 162.78 81.91 163.47 81.35 161.22"/><path class="cls-10" d="M91.4,61.93a.08.08,0,0,1-.07,0c-1.8-1.08-3.4-5.08-3.47-5.25a.12.12,0,0,1,.06-.16.13.13,0,0,1,.16.07s1.64,4.09,3.38,5.14a.13.13,0,0,1,0,.16A.11.11,0,0,1,91.4,61.93Z"/><path class="cls-10" d="M76.91,51.43s.7-2.39,5.39-2.8,7,4.22,5.92,7.65c0,0,1,4.68,2.88,6,0,0-9,4.08-13.59,4.1-1,0-3.18-5-3.46-8.66S74.84,51.54,76.91,51.43Z"/><polygon class="cls-10" points="78.54 90.64 78.54 92.75 92.95 91.64 92.95 89.15 78.54 90.64"/><polygon class="cls-25" points="78.54 90.64 78.54 92.75 92.95 91.64 92.95 89.15 78.54 90.64"/><rect class="cls-11" x="86.57" y="89.8" width="3.16" height="2.4" transform="translate(-7.77 8.23) rotate(-5.12)"/><rect class="cls-5" x="82.76" y="89.77" width="0.72" height="3.64" transform="translate(-4.57 4.36) rotate(-2.93)"/><rect class="cls-5" x="91.56" y="88.8" width="0.72" height="3.64" transform="translate(-4.5 4.8) rotate(-2.92)"/><path class="cls-10" d="M93,89.4,78.6,90.65c-.14-2.18-.28-4.05-.61-6.14-.21-1.34-.5-2.78-.92-4.45-.33-1.3-.73-2.76-1.25-4.43,0-.09,0-.18-.08-.27-.3-1-2.41-.22-2.6-1.37-.84-5.09,4.66-5.46,6.68-5.8a45.5,45.5,0,0,1,6.48-.68c2.8,0,6,.29,6,.29s.46.11.75,3.09A127.64,127.64,0,0,1,93,89.4Z"/><path class="cls-17" d="M85.11,70.69c-3.55-.45-4.62-2-4.62-2,2.25-2.13.38-5.81.38-5.81l4.27.8a11.88,11.88,0,0,0-.16,1.8c0,2.59,1.14,2.62,1.14,2.62C86.87,69.53,85.11,70.69,85.11,70.69Z"/><path class="cls-12" d="M85.14,63.71a11.88,11.88,0,0,0-.16,1.8,4.76,4.76,0,0,1-4.11-2.6Z"/><path class="cls-17" d="M81.87,51.75c3.63-.83,5.23.85,6.35,4.53,1.39,4.6,1.1,8.16-3.66,8.19C78.09,64.51,75.84,53.11,81.87,51.75Z"/><path class="cls-12" d="M85.83,56.61a8,8,0,0,0,1.39,1.27,1,1,0,0,1-.86.62Z"/><path class="cls-10" d="M83.54,56.82c.07.29,0,.57-.23.62s-.41-.15-.49-.44,0-.58.22-.63S83.46,56.52,83.54,56.82Z"/><path class="cls-10" d="M83,56.41l.58-.42S83.36,56.61,83,56.41Z"/><path class="cls-10" d="M87.21,55.83c.07.3,0,.58-.23.63s-.41-.15-.49-.45,0-.58.22-.63S87.13,55.53,87.21,55.83Z"/><path class="cls-10" d="M86.64,55.42l.58-.42S87,55.63,86.64,55.42Z"/><path class="cls-10" d="M81.48,55.4l-.07,0a.17.17,0,0,1-.08-.23,2.06,2.06,0,0,1,1.59-1,.18.18,0,0,1,.19.15.19.19,0,0,1-.16.19,1.76,1.76,0,0,0-1.31.81A.18.18,0,0,1,81.48,55.4Z"/><path class="cls-10" d="M85.54,53.74a.17.17,0,0,1-.1-.32,1.94,1.94,0,0,1,1.67,0,.17.17,0,1,1-.12.32,1.61,1.61,0,0,0-1.36,0Z"/><path class="cls-10" d="M86.15,60.05A9.74,9.74,0,0,0,86,61.41l-.23,0c-1.08.13-1.63-.16-1.91-.53a1.53,1.53,0,0,1-.25-.62,1.63,1.63,0,0,1,0-.38,5.1,5.1,0,0,0,2.17.18Z"/><path class="cls-11" d="M85.78,60.09l0,.4a3.26,3.26,0,0,1-2.11-.2,1.63,1.63,0,0,1,0-.38A5.1,5.1,0,0,0,85.78,60.09Z"/><path class="cls-13" d="M85.78,61.44c-1.08.13-1.63-.16-1.91-.53A3.48,3.48,0,0,1,85.1,61,1.32,1.32,0,0,1,85.78,61.44Z"/><path class="cls-10" d="M79.29,58.76s1-3.37.24-5.61c0,0,6.53-4.57,8.53,2.65,0,0-.76-6.64-7-5.37s-4.18,10.39-.34,12.38C80.69,62.81,78.66,60.86,79.29,58.76Z"/><path class="cls-17" d="M80.05,59.39a1.62,1.62,0,0,0-2-1.06c-1.1.37-1.11,2.8,1.81,2.73C80.24,61,80.38,60.6,80.05,59.39Z"/><path class="cls-10" d="M79.53,53.15s3.76-1.38,5.88-.34c0,0-2.28-2.05-6.15-.12Z"/><path class="cls-17" d="M77.2,69.11s4.17,3.39,8,3.33S90.49,68,90.49,68A22.13,22.13,0,0,0,77.2,69.11Z"/><path class="cls-12" d="M89.72,131.16c-1.3-4.49-2.32-8.49-3.1-12a111.63,111.63,0,0,1,.91-12.55S89.6,122.76,89.72,131.16Z"/><path class="cls-17" d="M65.53,76.61s-2.86-4.56-3.45-7.47a3.78,3.78,0,0,0,.54-2.23c-.24-.86-2.21-3.62-3-3.3s-2.14,1.93-1.93,2.79,2.28,3,2.28,3,1.62,6.7,3.17,8.48S65.53,76.61,65.53,76.61Z"/><path class="cls-10" d="M73.31,71.5c1.45-.21,4.38,2.63,3.94,5.08s-4.55,9.34-7.72,8.81c-4.48-.76-9.4-12.56-9.4-12.56l2.46-2.14s5.8,10,6.94,9.84S73.31,71.5,73.31,71.5Z"/><path class="cls-23" d="M73.31,71.5c1.45-.21,4.38,2.63,3.94,5.08s-4.55,9.34-7.72,8.81c-4.48-.76-9.4-12.56-9.4-12.56l2.46-2.14s5.8,10,6.94,9.84S73.31,71.5,73.31,71.5Z"/><polygon class="cls-10" points="59.13 72.11 62.72 69.96 63.29 70.89 59.9 73.88 59.13 72.11"/><polygon class="cls-10" points="104.38 74.85 107.28 78.44 107.79 77.31 105.18 74.28 104.38 74.85"/><path class="cls-5" d="M105.83,70l4.59-5.58a.42.42,0,0,1,.63,0l2,1.93a.43.43,0,0,1,0,.58l-4.66,5.72a.43.43,0,0,1-.65,0l-2-2.06A.44.44,0,0,1,105.83,70Z"/><path class="cls-9" d="M105.83,70l4.59-5.58a.42.42,0,0,1,.63,0l2,1.93a.43.43,0,0,1,0,.58l-4.66,5.72a.43.43,0,0,1-.65,0l-2-2.06A.44.44,0,0,1,105.83,70Z"/><path class="cls-5" d="M105.65,69.76l4.59-5.59a.43.43,0,0,1,.63,0l2,1.93a.43.43,0,0,1,0,.59l-4.66,5.72a.43.43,0,0,1-.65,0l-2-2.06A.43.43,0,0,1,105.65,69.76Z"/><polygon class="cls-26" points="110.42 64.39 112.69 66.59 108.25 72.05 106.04 69.73 110.42 64.39"/></g></g></g></svg>