<svg xmlns="http://www.w3.org/2000/svg" viewBox="0 0 255.3 177.02"><defs><style>.cls-1{isolation:isolate;}.cls-2,.cls-7{fill:#75c189;}.cls-2{opacity:0.25;}.cls-3{fill:#fff;}.cls-4{fill:#eaeaea;mix-blend-mode:multiply;}.cls-5{fill:#e8e8e8;}.cls-6{fill:#fa5;}.cls-8{fill:#666;}.cls-13,.cls-8{opacity:0.3;}.cls-9{fill:#e7e8fb;}.cls-10{fill:#c2c2c2;}.cls-11,.cls-13{fill:#0f1837;}.cls-12{fill:#ffd371;}.cls-14{fill:#fdc2bd;}.cls-15{fill:#fc8481;}.cls-16{fill:#e67779;}.cls-17{fill:#4c8e5b;}</style></defs><g class="cls-1"><g id="Layer_2" data-name="Layer 2"><g id="Option_1" data-name="Option 1"><path class="cls-2" d="M147.86,160.35c-61,1.24-88-17.87-88-17.87s-40.31-19.8-18.24-74.14C59.14,25.09,124.42-11.31,157.12,3.27s30.18,33.91,66.32,61.09,28.36,49.48,22.22,60.83C245.66,125.19,226.49,158.75,147.86,160.35Z"/><path class="cls-3" d="M171.82,61.1a.48.48,0,0,1-.32-.13l-3.12-3.13a.44.44,0,0,1,0-.63.45.45,0,0,1,.63,0l3.12,3.12a.45.45,0,0,1,0,.64A.48.48,0,0,1,171.82,61.1Z"/><ellipse id="_Path_" data-name="&lt;Path&gt;" class="cls-4" cx="123.31" cy="171.01" rx="39.51" ry="6.01"/><rect class="cls-5" y="46.24" width="62.32" height="42.98"/><rect class="cls-6" y="41.94" width="62.32" height="4.3"/><rect class="cls-3" x="55.45" y="43.23" width="1.72" height="1.72"/><rect class="cls-3" x="52.01" y="43.23" width="1.72" height="1.72"/><rect class="cls-3" x="48.57" y="43.23" width="1.72" height="1.72"/><rect class="cls-7" x="4.3" y="50.54" width="21.49" height="21.49"/><path class="cls-3" d="M25.79,72H4.3V66.44S6.88,62.5,9.67,62.5A10,10,0,0,1,15,64.58s2.8-4.16,5.38-4.16,5.37,2.15,5.37,2.15Z"/><circle class="cls-3" cx="15.04" cy="56.84" r="1.72"/><rect class="cls-3" x="33.31" y="55.95" width="21.49" height="0.86"/><rect class="cls-3" x="33.31" y="60.85" width="21.49" height="0.86"/><rect class="cls-3" x="33.31" y="65.76" width="21.49" height="0.86"/><rect class="cls-3" x="33.31" y="70.67" width="21.49" height="0.86"/><rect class="cls-3" x="4.3" y="75.57" width="50.5" height="0.86"/><rect class="cls-3" x="4.3" y="80.48" width="50.5" height="0.86"/><rect class="cls-3" x="4.3" y="85.39" width="50.5" height="0.86"/><rect class="cls-8" x="51.36" y="41.94" width="10.96" height="47.28"/><rect class="cls-5" x="192.97" y="100.59" width="62.32" height="42.98"/><circle class="cls-3" cx="224.14" cy="118.01" r="8.06"/><path class="cls-7" d="M220.8,114.34v7.35a1.51,1.51,0,0,0,2.36,1.24l5.37-3.67a1.5,1.5,0,0,0,0-2.49l-5.37-3.68A1.51,1.51,0,0,0,220.8,114.34Z"/><rect class="cls-3" x="198.35" y="136.12" width="51.58" height="4.3"/><rect class="cls-9" x="202.65" y="137.84" width="42.98" height="0.86"/><rect class="cls-7" x="202.65" y="137.84" width="9.46" height="0.86"/><path class="cls-7" d="M211.35,137.22v2.1a.42.42,0,0,0,.67.35l1.53-1a.43.43,0,0,0,0-.71l-1.53-1A.43.43,0,0,0,211.35,137.22Z"/><rect class="cls-6" x="192.97" y="96.29" width="62.32" height="4.3"/><rect class="cls-3" x="248.42" y="97.58" width="1.72" height="1.72"/><rect class="cls-3" x="244.98" y="97.58" width="1.72" height="1.72"/><rect class="cls-3" x="241.54" y="97.58" width="1.72" height="1.72"/><rect class="cls-8" x="193.2" y="96.29" width="6.77" height="37.75"/><rect class="cls-10" x="57.76" y="17.09" width="141.84" height="116.57"/><rect class="cls-3" x="54.69" y="14.03" width="141.84" height="116.57"/><rect class="cls-5" x="70.87" y="54.8" width="110.03" height="14.61" rx="7.31"/><path class="cls-7" d="M157.26,54.8H173.6a7.31,7.31,0,0,1,7.31,7.31v0a7.31,7.31,0,0,1-7.31,7.31H157.26a0,0,0,0,1,0,0V54.8A0,0,0,0,1,157.26,54.8Z"/><path class="cls-3" d="M167.76,64.07a3.29,3.29,0,1,1,2.33-5.62,3.28,3.28,0,0,1,0,4.66A3.28,3.28,0,0,1,167.76,64.07Zm0-5.73a2.41,2.41,0,0,0-1.72.72,2.43,2.43,0,0,0,3.44,3.44h0a2.41,2.41,0,0,0,0-3.44A2.39,2.39,0,0,0,167.76,58.34Z"/><path class="cls-3" d="M153.77,62.75H76.4a.64.64,0,0,1-.64-.65h0a.64.64,0,0,1,.64-.64h77.37a.64.64,0,0,1,.64.64h0A.65.65,0,0,1,153.77,62.75Z"/><rect class="cls-6" x="54.7" y="13.69" width="141.84" height="12.03"/><rect class="cls-3" x="172.47" y="17.99" width="3.44" height="3.44"/><rect class="cls-3" x="179.34" y="17.99" width="3.44" height="3.44"/><rect class="cls-3" x="186.22" y="17.99" width="3.44" height="3.44"/><path class="cls-11" d="M75.76,23.49a3.78,3.78,0,1,1,3.78-3.78A3.78,3.78,0,0,1,75.76,23.49Zm0-7.13a3.35,3.35,0,1,0,3.35,3.35A3.35,3.35,0,0,0,75.76,16.36Z"/><path class="cls-11" d="M75.76,22.67a.21.21,0,0,1-.22-.21V17a.21.21,0,0,1,.22-.21A.21.21,0,0,1,76,17v5.5A.21.21,0,0,1,75.76,22.67Z"/><path class="cls-11" d="M78.5,19.92H73a.21.21,0,0,1-.22-.21.22.22,0,0,1,.22-.22H78.5a.22.22,0,0,1,.22.22A.21.21,0,0,1,78.5,19.92Z"/><rect class="cls-12" x="54.7" y="13.69" width="13.21" height="12.03"/><path class="cls-11" d="M59.39,21.87a.21.21,0,0,1-.16-.07.22.22,0,0,1,0-.3l3.89-3.89a.22.22,0,0,1,.3,0,.21.21,0,0,1,0,.31L59.54,21.8A.19.19,0,0,1,59.39,21.87Z"/><path class="cls-11" d="M63.27,21.87a.19.19,0,0,1-.15-.07l-3.89-3.88a.22.22,0,0,1,.31-.31l3.88,3.89a.2.2,0,0,1,0,.3A.18.18,0,0,1,63.27,21.87Z"/><path class="cls-13" d="M122.06,102.91c-.34-.38-.64-.73-.86-1L122,101l-5.35-7.55L121.51,88q.09.76.21,1.53c.22,2.78.46,5.73.62,8.65A24.41,24.41,0,0,1,122.06,102.91Z"/><path class="cls-14" d="M134.21,58l-.54-5.17A5.64,5.64,0,0,0,122.45,54l.81,7.68v5.14h8.2V62.37A4.14,4.14,0,0,0,134.21,58Z"/><path class="cls-11" d="M133.78,45.24c-1.2-1.73-5.8-1.94-6.42-.43-3-.47-6,1.55-6.12,3.84a3.93,3.93,0,0,0-.5,5.24,41.47,41.47,0,0,0,2.54,7.72h3.37c2.09-.67,2.85-3.14,2.85-4.43L129,53.9c1.61,0,1.18,2.31,1.75,2.25l.57-.06.58-4.48v0C133.31,50.86,136.27,48.82,133.78,45.24Z"/><path class="cls-14" d="M129.87,55.65c0-2-.79-2.07-1.41-1.37-1.33,1.52-.41,3.89.67,3.46C130,57.38,129.87,56.16,129.87,55.65Z"/><path class="cls-14" d="M110.75,97.49l2.94,5.25-.48,7.77a1.53,1.53,0,0,0,.89,1.49l1.33.63s3.95-13,3.95-13.22-4.91-5.75-4.91-5.75Z"/><path class="cls-7" d="M116.07,67.87c-4.42,3.44-14.1,14-14.1,18.27,0,2.58,8.55,13.22,8.55,13.22l5.18-6.1-5.34-7.55,7.7-8.6Z"/><polygon class="cls-14" points="136.97 167.35 136.97 160.68 131.06 160.93 131.19 169.59 136.97 167.35"/><polygon class="cls-15" points="136.97 164.29 136.97 160.68 131.06 160.93 131.12 164.51 136.97 164.29"/><path class="cls-11" d="M131.08,171h13a1.06,1.06,0,0,0,1.07-1.06h0a1.08,1.08,0,0,0-.7-1l-6.83-2.51a19.34,19.34,0,0,1-3.48,1,15.67,15.67,0,0,1-3.24-.6.41.41,0,0,0-.52.44l.29,3.32A.42.42,0,0,0,131.08,171Z"/><path class="cls-11" d="M136.85,167.23c-.06-.47-.17-2.29.12-2.23s1.31.48,1.47,1a3.38,3.38,0,0,1-.1,1.45Z"/><path class="cls-3" d="M138.72,168.24a.18.18,0,0,1-.15-.1.17.17,0,0,1,.09-.21c.67-.28.72-.75.72-.77a.16.16,0,0,1,.17-.15.16.16,0,0,1,.15.17,1.32,1.32,0,0,1-.92,1Z"/><path class="cls-3" d="M143.86,170.33H131a.11.11,0,0,1-.11-.11.11.11,0,0,1,.11-.1h12.89a.11.11,0,0,1,.11.1A.11.11,0,0,1,143.86,170.33Z"/><path class="cls-3" d="M139.88,168.63a.16.16,0,0,1-.14-.1.16.16,0,0,1,.08-.21,1.15,1.15,0,0,0,.6-.79.16.16,0,0,1,.18-.14.15.15,0,0,1,.13.18,1.42,1.42,0,0,1-.78,1Z"/><polygon class="cls-16" points="123.4 104.45 136.86 103.57 138.3 161.47 129.81 162.61 123.4 104.45"/><polygon class="cls-14" points="113.11 167.34 114.64 160.69 108.08 160.69 107.33 169.59 113.11 167.34"/><polygon class="cls-15" points="113.51 165.6 114.64 160.69 108.08 160.69 107.75 164.55 113.51 165.6"/><path class="cls-11" d="M109.68,166.45c.83,0,2.58.83,3.49.62.65-.16,1.83,1,2.45,1.69a1.56,1.56,0,0,1,.4,1.05h0A1.22,1.22,0,0,1,114.8,171h-7.47a.69.69,0,0,1-.67-.79l.46-2.92A3.84,3.84,0,0,1,109.68,166.45Z"/><path class="cls-3" d="M115.24,170.33H107a.11.11,0,1,1,0-.22h8.28a.11.11,0,0,1,0,.22Z"/><polygon class="cls-16" points="115.43 103.57 107.2 162.04 115.47 163.18 128.91 103.87 115.43 103.57"/><path class="cls-13" d="M115.43,103.57s3,7.21,21.48,2.16l0-2.16Z"/><path class="cls-13" d="M125.16,120.41c2.44.79,6.56-.68,6.56-.68s-5.27.91-6.56-.38c-1.06.52-4.08.39-6.69-.48A11.23,11.23,0,0,0,125.16,120.41Z"/><path class="cls-7" d="M123.26,65.81h8.2l3.68.27c4.3,8.17,2.06,26.81,2.45,37.77-3,2.24-18.75,2.4-22.86-.28-.13-4,1.6-8.32,1.34-13.13-.52-10-2.14-20.38,0-22.57C117,67,121.1,65.81,123.26,65.81Z"/><path class="cls-17" d="M116.91,84.53c.38-.11.76-.23,1.14-.33s.77-.17,1.16-.25.79-.12,1.18-.17.79-.08,1.19-.11a30.1,30.1,0,0,1,4.75.14c1.58.17,3.14.39,4.7.58.79.09,1.57.16,2.35.18a11.66,11.66,0,0,0,1.18,0c.4,0,.79,0,1.18-.06a14.2,14.2,0,0,1-2.36.25,23.65,23.65,0,0,1-2.38-.07c-1.58-.1-3.14-.32-4.71-.47a41,41,0,0,0-4.7-.24A24.68,24.68,0,0,0,116.91,84.53Z"/><path class="cls-17" d="M116.91,88.58q.57-.18,1.14-.33c.38-.11.77-.17,1.16-.26s.79-.11,1.18-.17.79-.07,1.19-.1a30.1,30.1,0,0,1,4.75.14c1.58.16,3.14.39,4.7.57.79.1,1.57.16,2.35.19.4,0,.79,0,1.18,0s.79,0,1.18-.06a14.2,14.2,0,0,1-2.36.25,23.65,23.65,0,0,1-2.38-.07c-1.58-.11-3.14-.32-4.71-.47a41,41,0,0,0-4.7-.24A23.89,23.89,0,0,0,116.91,88.58Z"/><path class="cls-17" d="M115.45,81.8c-.15-1-.26-1.9-.36-2.85s-.16-1.9-.21-2.86-.06-1.91,0-2.87a10.16,10.16,0,0,1,.46-2.84,8.42,8.42,0,0,0-.12,1.42c0,.47,0,1,0,1.42,0,1,.06,1.9.1,2.85s.09,1.91.11,2.86S115.48,80.84,115.45,81.8Z"/><path class="cls-14" d="M155.43,70.89l2.69-3.58L159,64a.86.86,0,0,1,.88-.65l1.22.06,2.48-3.23a.59.59,0,0,1,.54-.22h0a.58.58,0,0,1,.44.77l-1.42,3.76,2.72,1A1.73,1.73,0,0,1,167,67.05v.69a1,1,0,0,1-.79,1h0a1,1,0,0,1-.7-.1l-.82-.46L164,69.86a1.38,1.38,0,0,1-1.83.8h0l-2.33,3.88Z"/><path class="cls-7" d="M135.14,66.08c4.27,0,11.89,9.54,14,11.54l6.59-8.82,6,4.37-9,12a4.71,4.71,0,0,1-6.88.73L133.42,75Z"/><path class="cls-17" d="M137.7,78.76a11.59,11.59,0,0,1-3-3.31,6.26,6.26,0,0,1-.82-2.14,3,3,0,0,1,.4-2.21,3.56,3.56,0,0,0-.07,2.14,7.79,7.79,0,0,0,.86,2A17.13,17.13,0,0,0,136.28,77C136.74,77.62,137.21,78.2,137.7,78.76Z"/></g></g></g></svg>