<svg xmlns="http://www.w3.org/2000/svg" xmlns:xlink="http://www.w3.org/1999/xlink" viewBox="0 0 371.91 285.14"><defs><style>.cls-1{fill:none;}.cls-2{isolation:isolate;}.cls-21,.cls-3{fill:#ffd371;}.cls-3{opacity:0.3;}.cls-4{opacity:0.8;}.cls-5{opacity:0.5;}.cls-6{fill:#ccd3e6;}.cls-7{fill:#363638;}.cls-8{fill:#eaeaea;mix-blend-mode:multiply;}.cls-9{fill:#fff;}.cls-10{fill:#575759;}.cls-11{fill:#fa5;}.cls-12{fill:#1b95f2;}.cls-13{fill:#cfdceb;}.cls-14{clip-path:url(#clip-path);}.cls-15{fill:#ff9c7d;}.cls-16{fill:#f36d66;}.cls-17{fill:#db8435;}.cls-18{fill:#db7f2f;}.cls-19{fill:#75c189;}.cls-20{fill:#c2c2c2;}.cls-22{fill:#d19b2f;}.cls-23{fill:#bf6179;}.cls-24{fill:#bc926d;}.cls-25{fill:#826239;}.cls-26{fill:#ffaf3c;}.cls-27{fill:#fb6260;}.cls-28{fill:#00b471;}.cls-29{fill:#007c56;}.cls-30{fill:#007af6;}.cls-31{fill:#0052c7;}.cls-32{fill:#cc1525;}.cls-33{fill:#e8e8e8;}.cls-34{fill:#a9a9a9;}</style><clipPath id="clip-path"><path class="cls-1" d="M191.72,109.15c.57,1.72.57,2,.57,1.72l0-49.15c0-.3,0-.25,0-35.85H81.75v83.28Z"/></clipPath></defs><g class="cls-2"><g id="Layer_2" data-name="Layer 2"><g id="Option_1" data-name="Option 1"><path class="cls-3" d="M48.82,205.55S-45.78,87.67,28.4,32.18c43.89-32.83,91.05,19.63,143-12.26,67-41.15,117.74-13.6,154,37.61C352.61,96,351.85,99.2,364.9,129.37c33.85,78.29-65.79,128.35-65.79,128.35S155.4,346.1,48.82,205.55Z"/><g class="cls-4"><g class="cls-5"><ellipse class="cls-6" cx="259.08" cy="70.7" rx="4.65" ry="5"/></g></g><rect class="cls-7" x="249.5" y="63.2" width="3.88" height="0.91" rx="0.41" transform="translate(28.64 196.44) rotate(-45)"/><rect class="cls-7" x="250.99" y="61.71" width="0.91" height="3.88" rx="0.41" transform="translate(28.64 196.44) rotate(-45)"/><ellipse class="cls-8" cx="139.27" cy="206.76" rx="108.92" ry="5.62"/><path class="cls-6" d="M213.05,191H198v15.7h17.65V193.59A2.56,2.56,0,0,0,213.05,191Z"/><rect class="cls-6" x="117.21" y="157.4" width="52.39" height="33.64"/><path class="cls-9" d="M78.53,191H196.26a13.41,13.41,0,0,1,13.41,13.41v2.29a0,0,0,0,1,0,0H65.13a0,0,0,0,1,0,0v-2.29A13.41,13.41,0,0,1,78.53,191Z"/><rect class="cls-9" x="110.79" y="157.4" width="52.39" height="33.64"/><polygon class="cls-6" points="110.79 167.73 163.19 163.53 163.19 157.4 110.86 157.4 110.79 167.73"/><rect class="cls-6" x="18.47" y="11.5" width="237.71" height="145.91" rx="7"/><path class="cls-10" d="M256.18,18.5V140.65H234.54V11.5h14.64A7,7,0,0,1,256.18,18.5Z"/><path class="cls-9" d="M247.28,18.5V150.41a7,7,0,0,1-7,7H25.47a7,7,0,0,1-7-7V18.5a7,7,0,0,1,7-7H240.82l.16,0a2.66,2.66,0,0,1,.28,0l.17,0h.09l.17,0A7,7,0,0,1,247.28,18.5Z"/><path class="cls-7" d="M241.69,11.64l-.17,0h-.09l-.17,0a2.66,2.66,0,0,0-.28,0l-.16,0H25.47a7,7,0,0,0-7,7V140.65H247.28V18.5A7,7,0,0,0,241.69,11.64ZM238.2,128.45a1.9,1.9,0,0,1-1.9,1.9H29.45a1.91,1.91,0,0,1-1.91-1.9v-106a1.91,1.91,0,0,1,1.91-1.9H236.3a1.9,1.9,0,0,1,1.9,1.9Z"/><rect class="cls-6" x="27.54" y="20.58" width="210.66" height="109.78" rx="1.9"/><path class="cls-9" d="M238.2,22.48v10H27.54v-10a1.91,1.91,0,0,1,1.91-1.9H236.3A1.9,1.9,0,0,1,238.2,22.48Z"/><path class="cls-11" d="M221.88,26.37a1.62,1.62,0,1,1-1.61-1.62A1.62,1.62,0,0,1,221.88,26.37Z"/><circle class="cls-12" cx="225.51" cy="26.37" r="1.62"/><rect class="cls-13" x="45.94" y="24.66" width="167.59" height="3.42" rx="1.51"/><path d="M35.15,26.37V28a.29.29,0,0,1-.44.25l-1.37-.79L32,26.62a.29.29,0,0,1,0-.5l1.37-.8,1.37-.79a.29.29,0,0,1,.44.25Z"/><path d="M37.56,26.37V28a.29.29,0,0,0,.44.25l1.37-.79,1.37-.79a.29.29,0,0,0,0-.5l-1.37-.8L38,24.53a.29.29,0,0,0-.44.25Z"/><rect class="cls-9" x="51.36" y="34.89" width="162.47" height="91.2" rx="3.98"/><path class="cls-6" d="M98.38,81.56H62.76a1,1,0,0,1-1-1h0a1,1,0,0,1,1-1H98.38a1,1,0,0,1,1,1h0A1,1,0,0,1,98.38,81.56Z"/><path class="cls-6" d="M98.38,73.18H62.76a1,1,0,0,1-1-1h0a1,1,0,0,1,1-1H98.38a1,1,0,0,1,1,1h0A1,1,0,0,1,98.38,73.18Z"/><path class="cls-6" d="M98.38,89.93H62.76a1,1,0,0,1-1-1h0a1,1,0,0,1,1-1H98.38a1,1,0,0,1,1,1h0A1,1,0,0,1,98.38,89.93Z"/><path class="cls-6" d="M207.83,81.56H172.21a1,1,0,0,1-1-1h0a1,1,0,0,1,1-1h35.62a1,1,0,0,1,1,1h0A1,1,0,0,1,207.83,81.56Z"/><path class="cls-6" d="M207.83,73.18H172.21a1,1,0,0,1-1-1h0a1,1,0,0,1,1-1h35.62a1,1,0,0,1,1,1h0A1,1,0,0,1,207.83,73.18Z"/><path class="cls-6" d="M207.83,89.93H172.21a1,1,0,0,1-1-1h0a1,1,0,0,1,1-1h35.62a1,1,0,0,1,1,1h0A1,1,0,0,1,207.83,89.93Z"/><path class="cls-7" d="M51.36,111.93H213.82v13.32a.84.84,0,0,1-.84.84H52.2a.84.84,0,0,1-.84-.84Z"/><path class="cls-9" d="M197.87,117.18V116h1.5v-1.07h-2a.53.53,0,0,0-.53.53v1.74Z"/><path class="cls-9" d="M197.87,119.31H196.8v1.83a.53.53,0,0,0,.53.53h2v-1.06h-1.5Z"/><path class="cls-9" d="M202.5,117.18h1.06v-1.74a.53.53,0,0,0-.53-.53h-2V116h1.43Z"/><path class="cls-9" d="M202.5,119.31v1.3h-1.43v1.06h2a.53.53,0,0,0,.53-.53v-1.83Z"/><polygon class="cls-9" points="60.82 118.52 60.82 115.15 63.74 116.83 66.67 118.52 63.74 120.21 60.82 121.9 60.82 118.52"/><rect class="cls-9" x="75.73" y="115.49" width="1.81" height="6.14" rx="0.77"/><rect class="cls-9" x="79.52" y="115.49" width="1.81" height="6.14" rx="0.77"/><rect class="cls-6" x="51.36" y="109.27" width="162.47" height="2.66"/><rect class="cls-11" x="51.36" y="109.27" width="83.36" height="2.66"/><path class="cls-7" d="M65.85,98.9h1.83v4h2.45v1.42H65.85Z"/><path class="cls-7" d="M70.64,98.9h1.83v5.44H70.64Z"/><path class="cls-7" d="M79.16,98.9l-2.29,5.44H75.06l-2.3-5.44h2L76,102.08l1.33-3.18Z"/><path class="cls-7" d="M83.86,103v1.38H79.34V98.9h4.42v1.39H81.14v.63h2.3v1.32h-2.3V103Z"/><path class="cls-11" d="M62.83,101.58a2.24,2.24,0,1,1-2.24-2.24A2.23,2.23,0,0,1,62.83,101.58Z"/><path class="cls-7" d="M200.2,102.62c0,1.24-1.18,2-2.86,2s-2.87-.8-2.87-2a1.67,1.67,0,0,1,.86-1.47,1.56,1.56,0,0,1-.63-1.26c0-1.16,1.09-1.91,2.64-1.91s2.63.75,2.63,1.91a1.54,1.54,0,0,1-.63,1.26A1.67,1.67,0,0,1,200.2,102.62Zm-2.16-.07a.65.65,0,0,0-.7-.67.66.66,0,0,0-.71.67.65.65,0,0,0,.71.66A.64.64,0,0,0,198,102.55ZM196.83,100a.49.49,0,0,0,.51.55.55.55,0,0,0,0-1.09A.49.49,0,0,0,196.83,100Z"/><path class="cls-7" d="M200.6,101.32c0-2.11,1.21-3.34,2.89-3.34s2.9,1.23,2.9,3.34-1.21,3.34-2.9,3.34S200.6,103.44,200.6,101.32Zm3.62,0c0-1.23-.31-1.61-.73-1.61s-.73.38-.73,1.61.31,1.62.73,1.62S204.22,102.56,204.22,101.32Z"/><path class="cls-11" d="M190.73,99.53a2,2,0,1,1-2-2A2,2,0,0,1,190.73,99.53Z"/><path class="cls-11" d="M192.43,104.5h-7.34a3.81,3.81,0,0,1,3.62-2.33h.11A3.79,3.79,0,0,1,192.43,104.5Z"/><g class="cls-14"><path class="cls-15" d="M174.68,72.11s.68,4.13,3.72,4.87c2.45.59,4.76-1.77,5.56-2.69.2-.23.3-.37.3-.37s.18,0,.45,0a2.6,2.6,0,0,0,2.23-.93c.63-1.12-1.68-1.88-1.68-1.88s1.19-1.06.89-1.83-1.88-.91-1.88-.91,1.71-1.11,1.14-2.08c-.86-1.46-2.63.14-2.77.23.11-.13,2.32-2.42,1.11-2.83-1.06-.36-2.8.83-3.94,2l-.29.3-.19-.14c-.57-.38-2.33-1.41-3.44-.47C174.53,66.54,174.68,72.11,174.68,72.11Z"/><path class="cls-16" d="M177.86,74.64a.23.23,0,0,0,.24,0,.24.24,0,0,0,.06-.34,2.18,2.18,0,0,1-.37-1.8c.4-1.55,2.47-2.62,2.49-2.63a.24.24,0,0,0,.11-.32.25.25,0,0,0-.33-.11c-.09,0-2.28,1.18-2.73,2.94a2.59,2.59,0,0,0,.43,2.19A.19.19,0,0,0,177.86,74.64Z"/><path class="cls-16" d="M180,68.7a.76.76,0,0,0,.34.65.48.48,0,0,0,.16.08,1.68,1.68,0,0,0,.44.1,1.61,1.61,0,0,0-.31.25.85.85,0,0,0-.19.29.64.64,0,0,0,.11.61,3,3,0,0,0,2,.8,2.56,2.56,0,0,0-1.12,1.15.78.78,0,0,0,.09.73,1.39,1.39,0,0,0,.53.38,8.18,8.18,0,0,0,2,.55c.2-.23.3-.37.3-.37s.18,0,.46,0a.21.21,0,0,0-.13,0c-.89-.11-2.42-.42-2.72-.82a.25.25,0,0,1,0-.28,2.9,2.9,0,0,1,1.78-1.26.24.24,0,0,0,.18-.26.24.24,0,0,0-.24-.21c-.6,0-2.24-.09-2.68-.68-.06-.08,0-.13,0-.15s.17-.22.36-.33a5.62,5.62,0,0,1,1.43-.54.2.2,0,0,0,.12-.08.22.22,0,0,0,.06-.21.24.24,0,0,0-.29-.18,4.7,4.7,0,0,0-.47.13,5.3,5.3,0,0,1-1.1,0,1,1,0,0,1-.4-.11.27.27,0,0,1-.12-.26,1.38,1.38,0,0,1,.26-.73.24.24,0,0,0,0-.27h0a.23.23,0,0,0-.39,0A2.07,2.07,0,0,0,180,68.7Z"/><path class="cls-7" d="M181.73,64.18a7.14,7.14,0,0,0-1.13.83c-.34.33-.56.49-.79.71,0,0,0,0,0,0l4.63-19.67a.24.24,0,0,1,.47.1l-3.18,18Z"/><path class="cls-7" d="M177.7,75.1c1.61,1,2.06.27,2.06.27l.81-4.62-.06-.07a.64.64,0,0,1-.11-.61.85.85,0,0,1,.19-.29,1.45,1.45,0,0,1,.18-.16l0-.1a1.59,1.59,0,0,1-.33-.09.48.48,0,0,1-.16-.08A.68.68,0,0,1,180,69a1.2,1.2,0,0,1-.73.33h-.23Z"/><path class="cls-16" d="M176.31,67.89A7.9,7.9,0,0,0,177.89,69a2.68,2.68,0,0,0,1.39.33,1.22,1.22,0,0,0,.88-.49c.76-1,.11-2.37-.35-3.08l-.29.3-.19-.14c.4.59,1.06,1.8.44,2.63a.71.71,0,0,1-.54.3c-.85.09-2.17-.89-2.61-1.28a.24.24,0,0,0-.34,0A.25.25,0,0,0,176.31,67.89Z"/><path class="cls-11" d="M151.49,63.12h0v.09l0,.14.06.31c0,.11.05.22.07.33s.05.22.08.33c.1.45.21.91.34,1.36.25.92.51,1.84.82,2.74s.63,1.8,1,2.68c.18.43.37.87.57,1.3s.39.86.6,1.28c.42.84.86,1.67,1.34,2.47.11.2.24.4.36.6s.24.39.37.58c.26.39.5.78.77,1.15.52.76,1.1,1.47,1.67,2.17s1.2,1.37,1.85,2l.48.48.5.45.25.23.06,0,0,0,0,0-.19-.13a3,3,0,0,0-.9-.42l-.21,0-.11,0-.09,0h-.63c-.07,0,.07,0,.28-.09a7.12,7.12,0,0,0,.8-.42c.31-.19.65-.41,1-.65.69-.49,1.41-1.07,2.13-1.69s1.44-1.28,2.16-2,1.45-1.4,2.16-2.13,1.42-1.48,2.12-2.24l1.05-1.13,1-1.1L181,77.56l-.26.39-.25.37L180,79l-1,1.4c-.69.92-1.39,1.83-2.12,2.72s-1.48,1.78-2.26,2.65c-.4.44-.8.87-1.22,1.3s-.84.86-1.28,1.28a35.85,35.85,0,0,1-2.86,2.51c-.53.4-1.08.81-1.69,1.21a19.22,19.22,0,0,1-2.05,1.15,12.84,12.84,0,0,1-2.8,1l-.21,0-.23,0-.47.06-.5,0h-1.07a5.7,5.7,0,0,1-.58-.06l-.29,0-.31-.06c-.2,0-.4-.08-.61-.14A8.41,8.41,0,0,1,156.09,93l-.51-.38-.12-.1-.11-.09-.09-.08L154.9,92l-.71-.63-.69-.67c-.92-.88-1.76-1.82-2.59-2.78s-1.57-2-2.27-3-1.37-2.1-2-3.18l-.45-.81-.42-.83c-.14-.28-.28-.55-.41-.83l-.39-.84a45.53,45.53,0,0,1-2.47-6.91c-.31-1.18-.59-2.36-.81-3.57-.11-.61-.21-1.22-.29-1.84l-.06-.47c0-.16,0-.32-.05-.48s0-.33-.05-.49l0-.6Z"/><path class="cls-17" d="M175.92,76.38a.67.67,0,0,1-.72.61.67.67,0,1,1,.11-1.34A.67.67,0,0,1,175.92,76.38Z"/><path class="cls-17" d="M162,87.91a.3.3,0,0,1-.28-.22,21.54,21.54,0,0,1-.46-5,.28.28,0,0,1,.29-.28.3.3,0,0,1,.28.3,21.41,21.41,0,0,0,.45,4.81.29.29,0,0,1-.21.35Z"/><path class="cls-17" d="M160.14,85.83a.28.28,0,0,1-.13,0,.29.29,0,0,1-.13-.39,23.93,23.93,0,0,1,1.41-2.48.28.28,0,0,1,.44.36,23.18,23.18,0,0,0-1.34,2.38A.28.28,0,0,1,160.14,85.83Z"/><path class="cls-17" d="M178,81.94a.26.26,0,0,1-.2-.08,80.31,80.31,0,0,0-7.87-6.43.29.29,0,0,1-.07-.4.28.28,0,0,1,.4-.06,80.74,80.74,0,0,1,7.95,6.49.28.28,0,0,1,0,.4A.26.26,0,0,1,178,81.94Z"/><path class="cls-17" d="M175.66,79.83a.26.26,0,0,1-.18-.07.29.29,0,0,1,0-.4l2.9-3.48a.29.29,0,0,1,.4,0,.29.29,0,0,1,0,.41l-2.9,3.47A.27.27,0,0,1,175.66,79.83Z"/><path class="cls-7" d="M144.41,147.47l-3.89-22.92-.32-1.87,11.19-4,.63-.23,2.67-.93s.21,1,.54,2.66c0,.2.08.42.12.64a212.28,212.28,0,0,1,3.56,26.6Z"/><path class="cls-10" d="M146.39,147.47c-1.68-9.14-3.84-22.49-4-23.27a.31.31,0,0,1,.25-.35.31.31,0,0,1,.35.25c0,.19,2.27,14.06,4,23.37Z"/><path class="cls-7" d="M121.79,110.25s-.85,8,1,12.42,25.33,2.16,31.32-1.84c2.46-1.64-2.78-16.78-2.78-16.78Z"/><path class="cls-10" d="M155.35,120.87a6.36,6.36,0,0,1-1-.27,7,7,0,0,1-1.54-.74,8,8,0,0,1-1.38-1.13A14.47,14.47,0,0,1,148,112a.31.31,0,0,1,.6-.11A13.89,13.89,0,0,0,152,118.5a6.85,6.85,0,0,0,1.08.85,6,6,0,0,0,1.47.7q.33.11.66.18C155.27,120.43,155.31,120.65,155.35,120.87Z"/><path class="cls-10" d="M140.85,123.11a.3.3,0,0,1-.29.3h0a.3.3,0,0,1-.32-.28c-.05-1.09-.11-2.2-.18-3.32,0-.2,0-.39,0-.59-.24-3.65-.54-7.23-.77-9.76,0-.2,0-.4-.05-.59,0-.56-.1-1.05-.14-1.47l.6-.09c0,.41.09.91.14,1.47,0,.19,0,.39,0,.59.23,2.51.53,6.06.76,9.69,0,.2,0,.4,0,.6C140.73,120.82,140.79,122,140.85,123.11Z"/><path class="cls-10" d="M141.71,119.25a7,7,0,0,1-1.06.41,5.08,5.08,0,0,1-.59.15,3.7,3.7,0,0,1-.57.07,2,2,0,0,1-1-.16,1.22,1.22,0,0,1-.68-.92c-.22-1.12-.68-5.77-1-9.06l-.06-.59c-.05-.52-.09-1-.13-1.41l.6-.07c0,.41.08.89.13,1.42l.06.59c.31,3.28.77,7.92,1,9a.63.63,0,0,0,.36.51,2.11,2.11,0,0,0,1.28,0,5.69,5.69,0,0,0,.59-.16,5.91,5.91,0,0,0,.83-.33.3.3,0,0,1,.4.13A.28.28,0,0,1,141.71,119.25Z"/><path class="cls-7" d="M124.71,147.47c-.93-8.51-2-19.89-2.62-26.49,0-.2,0-.4,0-.6-.27-2.91-.43-4.74-.43-4.74,1.44-.6,4.06-.19,6.84.6l.6.17a83.82,83.82,0,0,1,10.19,4v27.07Z"/><path class="cls-10" d="M126.13,147.47c-.8-9.46-1.76-23.12-1.77-23.3a.3.3,0,0,1,.6,0c0,.18,1,13.89,1.77,23.34Z"/><path class="cls-10" d="M130.72,112a15.87,15.87,0,0,1-1.67,4.44,9.77,9.77,0,0,1-3.1,3.45,7,7,0,0,1-3.86,1.12c0-.2,0-.4,0-.6a6.48,6.48,0,0,0,3.58-1,9.11,9.11,0,0,0,2.83-3.11,15.74,15.74,0,0,0,1.68-4.38.3.3,0,0,1,.59.11Z"/><path class="cls-11" d="M154.9,109.74c-6.51,6.08-21.9,9.31-33.76,3.53-1.3-3.55-2.73-16.25-3.11-20-.08-.76-.14-1.51-.19-2.27a100.87,100.87,0,0,1,0-11.14l0-.62c.16-3.16.39-6.43.61-9.9.43-6.88,2.73-11.12,6.72-11.75a16.5,16.5,0,0,0,4.4-1.33L130,56a12.45,12.45,0,0,0,2-1.24h8.89a6.79,6.79,0,0,0,2.77,2.31l.35.16c3.16,1.36,6.84,1.09,7.6,4.9.47,2.39-1.36,7.31-1.16,17.28,0,.73,0,1.49.07,2.27s.08,1.5.14,2.29.12,1.49.2,2.26.14,1.38.23,2.1.19,1.48.3,2.26C152,94.76,153.54,104.42,154.9,109.74Z"/><path class="cls-17" d="M124.42,111.82h.07a.27.27,0,0,0,.19-.33c-4.94-18.11-3.94-36.52-3.93-36.7a.26.26,0,0,0-.25-.28.27.27,0,0,0-.29.25c0,.18-1,18.68,4,36.87A.28.28,0,0,0,124.42,111.82Z"/><path class="cls-17" d="M151.22,88.3a.29.29,0,0,1-.28-.26c-.59-5.24-.6-15.66-.6-15.76a.29.29,0,0,1,.58,0c0,.1,0,10.49.59,15.7a.29.29,0,0,1-.25.32Z"/><path class="cls-17" d="M139,108a.67.67,0,1,1-.61-.73A.68.68,0,0,1,139,108Z"/><path class="cls-18" d="M139.15,111.27a.67.67,0,0,1-1.34-.11.67.67,0,1,1,1.34.11Z"/><path class="cls-17" d="M144.8,76.56a2.78,2.78,0,0,1-2.19-1c-1.74-2-1.09-6.55-1.06-6.74a.28.28,0,0,1,.28-.24h5.93a.28.28,0,0,1,.28.24c0,.19.68,4.71-1.06,6.74A2.77,2.77,0,0,1,144.8,76.56Zm-2.71-7.38c-.11,1-.4,4.45,1,6a2.18,2.18,0,0,0,1.75.77,2.15,2.15,0,0,0,1.74-.77c1.36-1.58,1.07-5.08,1-6Z"/><path class="cls-7" d="M131.17,32.86c1.66-1.07,6.87-1.61,6.87-1.61s.86-2.26,1.83-2.9c2.2-1.47,2.47,1.5,2.47,1.5s2.15-3,4.08-2.15-.53,3.65-.53,3.65,2.9-.53,2.58,1.94-3.12,3.54-3.12,3.54a5.44,5.44,0,0,1,.43,3.66c-.43,2.25-1.4,2.36-1.4,2.36l-12,1.08s-2.47,0-3.12-3.12a4,4,0,0,1,1.51-4.4S129.34,34,131.17,32.86Z"/><path class="cls-15" d="M141,53.27v2.27a7.76,7.76,0,0,1-.8.56c-3.93,2.35-8.16-.56-8.16-.56V47.7l7.89,4.91Z"/><path class="cls-7" d="M141,53.21v2.33a7.76,7.76,0,0,1-.8.56,15.09,15.09,0,0,1-5.78-4.83l5.51,1.34Z"/><path class="cls-11" d="M132.06,53.24a4.48,4.48,0,0,0-3.37,3.47c2.57,2.69,4.85,5,8.53,5.7V57A9.55,9.55,0,0,1,132.06,53.24Z"/><path class="cls-11" d="M141.08,54a4.88,4.88,0,0,1,3.28,3.53c-2.38,2.89-3.65,4-7.14,4.86V57S139.16,57,141.08,54Z"/><polygon class="cls-7" points="142.41 96.06 140.88 99.75 140.88 99.75 140.19 101.41 138.25 106.1 137.32 104.29 136.98 103.65 136.23 102.19 135.9 101.56 135.15 100.1 134.82 99.46 134.06 98.01 134.06 98.01 133.73 97.37 133.03 96.01 133.04 95.86 133.15 94.78 133.4 92.32 133.51 91.24 133.76 88.79 133.87 87.7 134.12 85.25 134.23 84.17 134.48 81.71 134.59 80.63 134.84 78.18 134.95 77.1 135.2 74.64 135.31 73.56 135.56 71.11 135.67 70.03 135.92 67.57 136.03 66.49 136.29 63.95 138.16 63.88 138.22 64.3 138.33 65.16 138.59 67.11 138.7 67.97 138.96 69.91 139.07 70.77 139.33 72.72 139.44 73.58 139.7 75.52 139.81 76.38 140.07 78.33 140.18 79.19 140.44 81.14 140.55 81.99 140.81 83.94 140.92 84.8 141.18 86.75 141.29 87.61 141.55 89.55 141.66 90.41 141.92 92.36 142.03 93.22 142.29 95.16 142.41 96.02 142.41 96.06"/><polygon class="cls-10" points="138.33 65.16 135.92 67.57 136.03 66.49 138.22 64.3 138.33 65.16"/><polygon class="cls-10" points="138.7 67.97 135.56 71.11 135.67 70.03 138.59 67.11 138.7 67.97"/><polygon class="cls-10" points="139.07 70.77 135.2 74.64 135.31 73.56 138.96 69.91 139.07 70.77"/><polygon class="cls-10" points="139.44 73.58 134.84 78.18 134.95 77.1 139.33 72.72 139.44 73.58"/><polygon class="cls-10" points="139.81 76.38 134.48 81.71 134.59 80.63 139.7 75.52 139.81 76.38"/><polygon class="cls-10" points="140.18 79.19 134.12 85.25 134.23 84.17 140.07 78.33 140.18 79.19"/><polygon class="cls-10" points="140.55 81.99 133.76 88.79 133.87 87.7 140.44 81.14 140.55 81.99"/><polygon class="cls-10" points="140.92 84.8 133.4 92.32 133.51 91.24 140.81 83.94 140.92 84.8"/><polygon class="cls-10" points="141.29 87.61 133.04 95.86 133.15 94.78 141.18 86.75 141.29 87.61"/><polygon class="cls-10" points="141.66 90.41 134.06 98.01 133.73 97.37 141.55 89.55 141.66 90.41"/><polygon class="cls-10" points="142.03 93.22 135.15 100.1 134.82 99.46 141.92 92.36 142.03 93.22"/><polygon class="cls-10" points="142.41 96.02 136.23 102.19 135.9 101.56 142.29 95.16 142.41 96.02"/><polygon class="cls-10" points="140.88 99.75 140.19 101.41 137.32 104.29 136.98 103.65 140.88 99.75"/><polygon class="cls-10" points="136.29 63.95 137.22 65.34 138.16 63.88 138.33 65.13 137.24 66.24 136.19 64.92 136.29 63.95"/><polygon class="cls-7" points="134.72 61.62 137.22 65.34 139.62 61.62 137.22 58.52 134.72 61.62"/><path class="cls-17" d="M133.27,64.17a.24.24,0,0,1-.18-.07c-2.48-2-4.58-7.07-4.67-7.29a.29.29,0,0,1,.15-.37.29.29,0,0,1,.38.16s2,4.85,4.27,6.86L137,58.35a.33.33,0,0,1,.24-.12.28.28,0,0,1,.23.13l3.51,5c.54-1,1.95-3.54,3.13-5.92a.3.3,0,0,1,.39-.13.28.28,0,0,1,.13.38c-1.5,3-3.35,6.32-3.37,6.35a.3.3,0,0,1-.23.15.29.29,0,0,1-.25-.12l-3.55-5-3.71,5a.31.31,0,0,1-.19.11Z"/><path class="cls-18" d="M137.22,58.81a.29.29,0,0,1-.29-.29V57.24a.29.29,0,1,1,.57,0v1.28A.29.29,0,0,1,137.22,58.81Z"/><path class="cls-16" d="M143.82,43.26s1.29-1.52,2,0,.17,4.58-1.78,4.08Z"/><path class="cls-15" d="M145.19,48.58a4.61,4.61,0,0,1-4.85,4.66c-4.83,0-8.13-3.8-8.3-4h0l-.06-1-.27-5.1-.15-2.72s-.62-4.91,4.05-5.8c3.41-.66,6.6-.09,8.21,1.69a1.22,1.22,0,0,1,.15.17,4.23,4.23,0,0,1,.92,2.29l.15,4.89,0,1.2Z"/><path class="cls-7" d="M139.61,40.18s-2,1.52-3.25.55,1.61-2,2.54-1.94S140.22,39.84,139.61,40.18Z"/><path class="cls-7" d="M141.83,40.18s2,1.52,3.25.55-1.61-2-2.54-1.94S141.22,39.84,141.83,40.18Z"/><path class="cls-16" d="M140.22,49.19a2,2,0,0,1-1.39-.45.21.21,0,0,1,0-.3.22.22,0,0,1,.3,0,1.49,1.49,0,0,0,1.5.24.21.21,0,0,1,.28.11.21.21,0,0,1-.11.28A1.73,1.73,0,0,1,140.22,49.19Z"/><path class="cls-9" d="M138.12,45.85a21.52,21.52,0,0,0,4.46.46A2.23,2.23,0,0,1,139.82,48,2.2,2.2,0,0,1,138.12,45.85Z"/><path class="cls-7" d="M144,36.51c-.76-.27-1.31,0-2.5.51-1.72.75-3.64.07-5.34-.8s-2.71.34-2.13,1.14.51,1.43-.13,2.44,1.21,1.48.19,2.27a1,1,0,0,0-.23,1.3.7.7,0,0,1-.79.92h0c-.55-.14-1.33-1.12-1.33-1.12l-.15-2.72s-.62-4.91,4.05-5.8c3.41-.66,6.6-.09,8.21,1.69A1.22,1.22,0,0,1,144,36.51Z"/><path class="cls-16" d="M138.7,44.29c0,.35-.7.62-1.57.62s-1.56-.27-1.56-.62.7-.61,1.56-.61S138.7,44,138.7,44.29Z"/><path class="cls-16" d="M145.08,44.89a2.36,2.36,0,0,1-.38,0c-.86,0-1.56-.27-1.56-.62s.7-.61,1.56-.61H145Z"/><path class="cls-7" d="M139.38,42.42c0,.47-.21.85-.48.85s-.47-.38-.47-.85.21-.84.47-.84S139.38,42,139.38,42.42Z"/><path class="cls-7" d="M144.07,42.42c0,.47-.21.85-.47.85s-.47-.38-.47-.85.21-.84.47-.84S144.07,42,144.07,42.42Z"/><path class="cls-7" d="M133.56,47.36a4.16,4.16,0,0,1-1.52,1.9h0l-.06-1A3.33,3.33,0,0,0,133.56,47.36Z"/><path class="cls-15" d="M132.71,44.12s-1.87-2.51-3.24-.54c-1.13,1.63,1,5.86,3.24,4.41Z"/><path class="cls-7" d="M132.45,47.23a.19.19,0,0,1-.19-.17,3.22,3.22,0,0,0-1.87-2.59.2.2,0,0,1-.1-.25.19.19,0,0,1,.25-.1,3.6,3.6,0,0,1,2.1,2.9.19.19,0,0,1-.17.21Z"/><path class="cls-7" d="M130.66,46.07a.21.21,0,0,1-.15-.07.18.18,0,0,1,0-.27,1.78,1.78,0,0,1,1.34-.46.2.2,0,0,1,.14.23.19.19,0,0,1-.24.14c-.33-.08-.83.25-1,.39A.28.28,0,0,1,130.66,46.07Z"/><path class="cls-7" d="M140.9,44.77a.19.19,0,0,1-.2-.19.2.2,0,0,1,.2-.19,1.3,1.3,0,0,0,1.14-.54c-.76-1.58-1.53-3.17-1.53-3.19a.19.19,0,0,1,.34-.16s.8,1.67,1.58,3.28a.18.18,0,0,1,0,.16A1.64,1.64,0,0,1,140.9,44.77Z"/><path class="cls-15" d="M94.38,62.1s-2.59,2.62-5.15,1.6c-2.06-.82-2.52-3.69-2.62-4.77,0-.25,0-.41,0-.41a3.79,3.79,0,0,1-.33-.22c-.46-.33-1.21-1-1.12-1.8.11-1.12,2.16-.5,2.16-.5s-.31-1.36.29-1.76,1.82.31,1.82.31-.66-1.67.24-2.08c1.36-.6,1.82,1.45,1.87,1.59,0-.15-.66-6.44.42-6.12s1.81,5.54,2,7c0,.22.05.35.05.35h.21c.6,0,2.39.17,2.71,1.42C97.33,58.19,94.38,62.1,94.38,62.1Z"/><path class="cls-16" d="M89.08,57.66a2.19,2.19,0,0,1,.22,1.39.65.65,0,0,1-.44.48,1.2,1.2,0,0,1-.57,0,6.84,6.84,0,0,1-1.68-.61c0-.25,0-.41,0-.41a3.79,3.79,0,0,1-.33-.22.2.2,0,0,1,.11,0,5.29,5.29,0,0,0,2.37.8.23.23,0,0,0,.16-.19,2.52,2.52,0,0,0-.63-1.81.2.2,0,0,1,0-.28.21.21,0,0,1,.28,0c.42.31,1.65,1.07,2.26.88.09,0,.1-.07.11-.09a.7.7,0,0,0-.09-.43,5.85,5.85,0,0,0-.75-1.11.19.19,0,0,1,0-.3.21.21,0,0,1,.3,0,5.68,5.68,0,0,1,.76,1.11,1.66,1.66,0,0,1,.18.53.93.93,0,0,1,0,.29.59.59,0,0,1-.39.39A2.7,2.7,0,0,1,89.08,57.66Z"/><path class="cls-16" d="M92.32,55.87a.23.23,0,0,0-.15.19,1.44,1.44,0,0,1-.18.66.26.26,0,0,1-.22.12.84.84,0,0,1-.35-.13,6.07,6.07,0,0,1-1.14-.94.22.22,0,0,0,0,.11A5.27,5.27,0,0,1,91.09,57l.12.07a1.59,1.59,0,0,0,.39.17l.15,0a.66.66,0,0,0,.58-.3,1.83,1.83,0,0,0,.27-.87.21.21,0,0,0-.27-.22Z"/><path class="cls-16" d="M95.36,58.25a6.78,6.78,0,0,1-1.67,0,2.47,2.47,0,0,1-1.17-.47,1.07,1.07,0,0,1-.38-.8c0-1.13,1.13-1.76,1.82-2,0,.22.05.35.05.35h.21c-.58.21-1.67.74-1.65,1.66a.62.62,0,0,0,.23.49,4.23,4.23,0,0,0,2.52.41.21.21,0,0,1,.23.19A.2.2,0,0,1,95.36,58.25Z"/><path class="cls-16" d="M90.81,62.3a.2.2,0,0,1-.16-.13.2.2,0,0,1,.12-.27A1.92,1.92,0,0,0,92,60.79a4.68,4.68,0,0,0-.44-3.15.21.21,0,0,1,.09-.29.21.21,0,0,1,.28.09,5,5,0,0,1,.47,3.5,2.29,2.29,0,0,1-1.43,1.35A.14.14,0,0,1,90.81,62.3Z"/><path class="cls-11" d="M122.31,59.05l-4.42,3.85-2.13,2q-1.07,1-2.13,2c-.72.64-1.43,1.28-2.14,1.9s-1.42,1.23-2.12,1.82-1.41,1.16-2.06,1.64c-.33.25-.65.47-.9.64l-.18.1-.06,0,0,0-.06.06s0,0,0,.08a.37.37,0,0,1-.22,0,3.37,3.37,0,0,1-1.24-.48,10.84,10.84,0,0,1-1.7-1.27,22.39,22.39,0,0,1-1.75-1.76,41.26,41.26,0,0,1-3.3-4.25c-1-1.51-1.79-2.68-2.74-4.3a7.1,7.1,0,0,1-6.45,2.47,57,57,0,0,0,2.49,5.75,44.4,44.4,0,0,0,3.28,5.58,32.36,32.36,0,0,0,2.13,2.71,20.56,20.56,0,0,0,2.78,2.59,13.63,13.63,0,0,0,1.8,1.17,11.41,11.41,0,0,0,2.24.93,10,10,0,0,0,5.57.07,11,11,0,0,0,1.33-.47l.31-.14.26-.13.24-.12.23-.13c.6-.32,1.11-.63,1.6-.94,1-.62,1.85-1.24,2.71-1.86s1.67-1.26,2.49-1.89,1.6-1.27,2.38-1.92,1.56-1.29,2.32-2l2.28-2,2.23-2,1.11-1,.55-.52.55-.53Z"/><path class="cls-17" d="M118.09,77.21a.3.3,0,0,0,.15,0c2.92-2,8.12-6.36,8.17-6.4a.27.27,0,0,0-.34-.41s-5.23,4.34-8.14,6.37a.26.26,0,0,0-.06.37A.25.25,0,0,0,118.09,77.21Z"/><path class="cls-17" d="M124.13,72.55h0l2.06-.3a.26.26,0,0,0,.22-.3.25.25,0,0,0-.3-.22l-2.06.29a.28.28,0,0,0-.22.31A.27.27,0,0,0,124.13,72.55Z"/><path class="cls-17" d="M90.08,66.88a.27.27,0,0,1,.18-.51c3.87.85,5.8-2.85,5.82-2.89a.28.28,0,0,1,.37-.12h0a.28.28,0,0,1,.12.37s-2.15,4.11-6.43,3.17Z"/><path class="cls-17" d="M92.07,67a.27.27,0,0,1-.13-.13l-1.27-3a.27.27,0,1,1,.5-.22l1.27,3a.27.27,0,0,1-.14.36A.26.26,0,0,1,92.07,67Z"/><path class="cls-17" d="M94.35,64.09a.47.47,0,0,1-.63.2.48.48,0,0,1-.2-.64.47.47,0,0,1,.63-.2A.47.47,0,0,1,94.35,64.09Z"/><path class="cls-17" d="M106.65,76.46a.27.27,0,0,1-.14-.19,11.44,11.44,0,0,0-.8-2.71.29.29,0,0,1,.12-.37.29.29,0,0,1,.37.12,12,12,0,0,1,.84,2.87.26.26,0,0,1-.22.31A.25.25,0,0,1,106.65,76.46Z"/><path class="cls-17" d="M104.89,75.85l0,0a.27.27,0,0,1,0-.38,5,5,0,0,0,1-1.81.27.27,0,1,1,.53.1,5.5,5.5,0,0,1-1.06,2A.26.26,0,0,1,104.89,75.85Z"/></g><ellipse class="cls-8" cx="252.17" cy="272.91" rx="99.15" ry="6.03"/><path class="cls-15" d="M258.35,105l-10,36.62,3.57-4.11a18.47,18.47,0,0,1-4.55,1.62,32.92,32.92,0,0,1-5.47.7c-1.93.1-3.95.08-6,0s-4.16-.24-6.3-.42h0a5.73,5.73,0,0,0-1.39,11.36c2.2.35,4.44.68,6.74,1s4.65.46,7.09.52a45.81,45.81,0,0,0,7.58-.42,31.54,31.54,0,0,0,8-2.2,6.19,6.19,0,0,0,3.44-3.73l.13-.38,12-36a7.72,7.72,0,1,0-14.65-4.89C258.43,104.69,258.39,104.84,258.35,105Z"/><path class="cls-19" d="M254.5,237.73a1.36,1.36,0,0,0,.44-.08l52.47-18.92a1.32,1.32,0,1,0-.9-2.49l-52.46,18.92a1.32,1.32,0,0,0,.45,2.57Z"/><path class="cls-19" d="M309.14,237.73a1.33,1.33,0,0,0,.45-2.57L256.5,215.93a1.32,1.32,0,0,0-.9,2.49l53.09,19.23A1.42,1.42,0,0,0,309.14,237.73Z"/><path class="cls-19" d="M249.83,271.53a2.26,2.26,0,0,0,2.24-2l9.48-70.76H301.2l9.33,70.75A2.26,2.26,0,0,0,315,269l-9.59-72.72a2.26,2.26,0,0,0-2.24-2H259.57a2.27,2.27,0,0,0-2.25,2L247.58,269a2.26,2.26,0,0,0,1.95,2.54Z"/><path class="cls-19" d="M272.2,196.55h28.33c9,0,18.59-4.92,20-13.79a168,168,0,0,0,1.78-33.88,41.25,41.25,0,0,0-15.64-30.4h0s-5.66,24.66,1.45,58.7C305.38,190.12,272.2,196.55,272.2,196.55Z"/><path class="cls-7" d="M278.1,51.9s3.37-8.12,12.29-6.59c6.23,1.07,8.88,8.83,8.52,20.82-.54,17.45,5.37,28,5.37,28l-7.84,1.78S276.5,66,278.1,51.9Z"/><path class="cls-7" d="M206.66,241.21h12.65s2.93-14,3.91-21.92,1.49-26.55,1.49-26.55,10.09,3.28,31.2,2c46.77-2.73,29-37.09,29-37.09-1.58,2.18-11.26.67-17.88,1.71-20.31,1.95-37.92,9.92-48.49,14.48a53.54,53.54,0,0,0-6.79,3.48c-2.55,1.57-4.14,6.33-5.1,12.6C203.8,208.8,206.66,241.21,206.66,241.21Z"/><path class="cls-10" d="M217.74,234.44a.44.44,0,0,0,.44-.36c1.83-9,2.44-20.28,2.93-29.32.41-7.49.8-14.57,1.76-15.42.78-.69,4-.15,8.12.53,8.15,1.35,20.47,3.4,34.05.24,7.4-1.72,12.84-5.32,16.17-10.69,5.74-9.25,3.13-20.73,3.1-20.84a.45.45,0,1,0-.88.2c0,.12,2.55,11.24-3,20.17-3.2,5.15-8.45,8.61-15.6,10.28-13.41,3.12-25.62,1.09-33.71-.25-4.84-.81-7.76-1.29-8.86-.32s-1.53,6.23-2.06,16.05c-.49,9-1.1,20.22-2.91,29.19a.44.44,0,0,0,.35.53Z"/><path class="cls-10" d="M206.41,234.68h0l14.08-.3a.46.46,0,0,0,0-.91l-14.08.31a.45.45,0,0,0,0,.9Z"/><polygon class="cls-15" points="207 257.43 215.94 257.43 217.66 246.95 218.6 241.21 207.5 241.21 207.32 246.95 207 257.43"/><polygon class="cls-9" points="207 257.43 215.94 257.43 217.22 249.62 217.66 246.95 207.32 246.95 207.24 249.72 207 257.43"/><polygon class="cls-20" points="207.24 249.72 217.22 249.62 217.66 246.95 207.32 246.95 207.24 249.72"/><path class="cls-21" d="M185,271.53h33.79a4.76,4.76,0,0,0,.44-1.87c.21-2.86-.7-7.42-1.15-10.3,0-.33-.1-.65-.13-.93a8.46,8.46,0,0,1-.1-1.18,1.72,1.72,0,0,0-2.08-1.94c-3.42,3.35-7.29-1.67-9.55,0l-.3.23c-.19.15-.48.38-.88.72-.57.48-1.38,1.18-2.48,2.16-2.68,2.42-7.24,4-11.12,5.63-.5.21-1,.42-1.38.62l-.92.47c-3.18,1.72-4.19,3.35-4.41,4.55A2.64,2.64,0,0,0,185,271.53Z"/><path class="cls-22" d="M189.1,265.11c.87.7,2.8,2.08,4.36,2.08h.2c1.1-.09,5.12-2.07,8.4-3.87,1.88-1,3.59-2,4.82-2.86,2-1.33,2.38-1.84,2.45-2.19.3-1.34-1.9-2.27-3.45-2.75-.19.15-.48.38-.88.72,1.92.52,3.5,1.34,3.43,1.81s-2.19,1.92-7,4.54c-3.65,2-7.11,3.61-7.88,3.67-1,.09-2.57-.86-3.56-1.61Z"/><path class="cls-22" d="M185,271.53h33.79a4.81,4.81,0,0,0,.44-1.87h-34.5A2.64,2.64,0,0,0,185,271.53Z"/><path class="cls-22" d="M215.3,271.53h1a7.38,7.38,0,0,1-1.81-5.41,9.51,9.51,0,0,1,3.55-6.76c0-.33-.1-.65-.13-.93a10.34,10.34,0,0,0-4.23,7.65A8.21,8.21,0,0,0,215.3,271.53Z"/><path class="cls-9" d="M203.1,260.39a.56.56,0,0,0,.13-1.1l-2.11-.52a.54.54,0,0,0-.67.4.55.55,0,0,0,.4.68l2.11.52Z"/><path class="cls-9" d="M205.19,258.63a.56.56,0,0,0,.14-1.1l-2.11-.52a.57.57,0,0,0-.68.41.56.56,0,0,0,.41.67l2.11.52A.3.3,0,0,0,205.19,258.63Z"/><path class="cls-9" d="M201,261.61a.56.56,0,0,0,.54-.42.55.55,0,0,0-.41-.67L199,260a.55.55,0,0,0-.67.41.54.54,0,0,0,.4.67l2.11.53Z"/><path class="cls-9" d="M198.88,262.79a.56.56,0,0,0,.54-.42.55.55,0,0,0-.41-.67l-2.11-.53a.57.57,0,0,0-.68.41.55.55,0,0,0,.41.67l2.11.53Z"/><path class="cls-9" d="M196.58,263.88a.55.55,0,0,0,.53-.42.54.54,0,0,0-.4-.67l-2.11-.53a.57.57,0,0,0-.68.41.55.55,0,0,0,.41.67l2.11.53Z"/><path class="cls-9" d="M194.08,264.81a.55.55,0,0,0,.13-1.09l-2.11-.53a.55.55,0,0,0-.67.41.55.55,0,0,0,.4.67l2.12.53Z"/><path class="cls-23" d="M308.37,146.79s.4,2.73-3.26,3.5L267,151.56a4.3,4.3,0,0,1-2.11-4.49S281,138,308.37,146.79Z"/><path class="cls-15" d="M266.48,159.4c19.78,10.88,41.38,2.12,41.38,2.12a60.33,60.33,0,0,1-2.4-9.09c-.66-3.44-1-6.48-1.2-8.08-8.42-.46-29-1.34-37.13.58l-.06,3.24Z"/><path class="cls-16" d="M281.09,154.18c.15,1,.61,1.8,1,1.74s.65-.94.5-2-.61-1.8-1-1.74S281,153.16,281.09,154.18Z"/><path class="cls-16" d="M267.07,148.17c8.42-.52,25-.69,38.39,4.26-.66-3.44-1-6.48-1.2-8.08-8.42-.46-29-1.34-37.13.58Z"/><path class="cls-21" d="M257.67,132.51a4.32,4.32,0,0,0,.28.69l.13.24a18.67,18.67,0,0,0,4.07,4.88l.82.69c.5.41.93.73,1.23.94s.43.3.43.3v.06c0,.14,0,.3,0,.46.05.62.09,1.37.12,2.21,0,.68,0,1.43.06,2.23,0,.59,0,1.22,0,1.86,11.18-5,34.2-1.84,43.48-.28-.17-.8-.33-1.58-.47-2.35a74.93,74.93,0,0,1-1.17-9.57,100.78,100.78,0,0,1,1-17.22l.18-1.28c0-.28.09-.56.13-.84.32-2.07.69-4.14,1.11-6.15,1.82-8.77.54-18-8.35-19.07l-1.9-.22c-4.2-.45-7.65-.6-8.6-.64h-.27l-17.19,5-1.64.47c-.94.31-1.81.6-2.61.88l-1,.37c-.83.31-1.59.62-2.27.92A18.5,18.5,0,0,0,262,98.9c-3.77,2.67-3.19,5.7-3.09,11.67v1.15c0,.77,0,1.54-.08,2.31-.06,1.13-.16,2.25-.28,3.35,0,.44-.1.88-.16,1.31l-.15,1.22C257.59,125.14,256.74,129.72,257.67,132.51Z"/><path class="cls-22" d="M272.89,94.44c1,1.49,2.95,3.19,7,2.89,5.56-.4,9.21-5.7,10.49-7.87h-.27Z"/><path class="cls-15" d="M262,98.9A30,30,0,0,1,258.87,114c.06-1,.09-2,.08-3v-.41C258.85,104.6,258.27,101.57,262,98.9Z"/><path class="cls-15" d="M293.67,105.84c2,7.61,9.18,13.72,14.11,11.81l.18-1.28c0-.28.09-.56.13-.84.32-2.07.69-4.14,1.11-6.15,1.82-8.77.54-18-8.35-19.07l-1.9-.22C294.49,92,291.39,97.07,293.67,105.84Z"/><path class="cls-15" d="M292.65,100l-11.56,42.26,4.12-4.75a21.08,21.08,0,0,1-5.25,1.88,38.25,38.25,0,0,1-6.31.81c-2.23.11-4.55.09-6.93,0s-4.8-.27-7.26-.48h0a6.61,6.61,0,0,0-1.6,13.11c2.54.4,5.13.79,7.78,1.1s5.37.53,8.18.59a51.45,51.45,0,0,0,8.75-.48,36.26,36.26,0,0,0,9.17-2.53,7.18,7.18,0,0,0,4-4.31l.14-.44,13.87-41.56a8.92,8.92,0,0,0-16.92-5.65C292.74,99.71,292.69,99.88,292.65,100Z"/><path class="cls-16" d="M287.48,140.94a.32.32,0,0,0,.29-.17.34.34,0,0,0-.12-.47,14.44,14.44,0,0,0-5.28-1.69.34.34,0,0,0-.37.31.35.35,0,0,0,.32.37,13.85,13.85,0,0,1,5,1.61A.33.33,0,0,0,287.48,140.94Z"/><path class="cls-16" d="M283.28,139.42a.34.34,0,0,0,.17,0,9,9,0,0,1,3.55-1.12.33.33,0,0,0,.31-.37.34.34,0,0,0-.36-.31,9.47,9.47,0,0,0-3.85,1.21.34.34,0,0,0,.18.64Z"/><path class="cls-7" d="M281,83.85s8.21-1.54,10.52-9.82c2.21-7.89.51-12-1.78-16.24-1.73-3.21-7.2-7.55-14.88-6s-13.54,5.55-14.4,11.92C258.87,75.65,268.49,90.19,281,83.85Z"/><path class="cls-21" d="M291.14,75.3a.45.45,0,0,0,.38-.21,18.64,18.64,0,0,0,.73-14.65,13.38,13.38,0,0,0-8-8.4,14.4,14.4,0,0,0-5.37-1,.44.44,0,0,0-.41.45.43.43,0,0,0,.45.41h0a13.73,13.73,0,0,1,5.05,1,12.4,12.4,0,0,1,7.43,7.88,18,18,0,0,1-.67,13.93.45.45,0,0,0,.16.59A.54.54,0,0,0,291.14,75.3Z"/><path class="cls-16" d="M265.09,75.44s-2.67-2.11-3.37.68,1.28,7.76,4.39,6.25Z"/><path class="cls-15" d="M273.18,87.4l1.12,7s5.24,5.34,14.8-4.25c-2.57-1.91-3.55-6.34-3.25-9.2a13.84,13.84,0,0,0-1.91,1.5,7.06,7.06,0,0,1-.8.56C280.61,84.73,276.74,87,273.18,87.4Z"/><path class="cls-7" d="M273.18,87.4l.53,3.32c2.87-1.28,7.94-4,10.23-8.27l-.8.56C280.61,84.73,276.74,87,273.18,87.4Z"/><path class="cls-15" d="M262.51,73.75c.14.74.29,1.45.42,2.11s.3,1.42.44,2.06c1.06,4.84,1.93,7.43,3.34,8.4,7.14,4.91,18.76-5,19.13-5.35h0c0-.57,0-1.13,0-1.69a43.58,43.58,0,0,0-2.16-12.85,9.87,9.87,0,0,0-8.21-8.34c-4.43-.66-7.75,1.9-9.83,3C262.51,62.82,261.28,67.58,262.51,73.75Z"/><path class="cls-7" d="M283.45,62s-5-9.61-15-6.92S258,62.42,257.81,64.73,263,62.94,263,62.94s.19,4.63,2,3.21a28.78,28.78,0,0,0,4.63-5.53s5.93,5.84,11.58,4.26C284.34,64,283.45,62,283.45,62Z"/><path class="cls-16" d="M271.2,83.18a3.31,3.31,0,0,0,2.23-1,.35.35,0,0,0-.51-.49,2.45,2.45,0,0,1-2.43.6.36.36,0,0,0-.23.68A3,3,0,0,0,271.2,83.18Z"/><path class="cls-9" d="M274.19,77.36a36.52,36.52,0,0,1-7.3,1.42s1.24,3.56,4.8,2.32A3.66,3.66,0,0,0,274.19,77.36Z"/><path class="cls-7" d="M265.26,67.35s1.25-.12,1.05,1.08-2.91.48-4.25,2.9C262.06,71.33,260.77,68.79,265.26,67.35Z"/><path class="cls-7" d="M270.81,66.23s-1.2.37-.54,1.4,2.86-.7,5,1C275.31,68.64,275.51,65.8,270.81,66.23Z"/><path class="cls-16" d="M273,74.9c.12.57,1.39.8,2.84.5s2.53-1,2.42-1.56-1.39-.8-2.84-.5S272.87,74.33,273,74.9Z"/><path class="cls-9" d="M258.8,75.28l3.88-.66c0,.16.06.32.09.48l0,.08-3.91.67a.28.28,0,0,1-.33-.24A.28.28,0,0,1,258.8,75.28Z"/><path class="cls-9" d="M269.26,72.93h0a4.9,4.9,0,0,0,8.18,2.54,5.5,5.5,0,0,0,.77-1,4.9,4.9,0,0,0,.63-3.56,4.1,4.1,0,0,0-.14-.5,4.33,4.33,0,0,0-.21-.54,4.88,4.88,0,0,0-5.43-2.75H273a4.79,4.79,0,0,0-2.51,1.41,5,5,0,0,0-1.31,2.78,5.83,5.83,0,0,0,0,.59A4.57,4.57,0,0,0,269.26,72.93Zm.57-.1a4.31,4.31,0,0,1,8.24-2.43s0,0,0,0a4.71,4.71,0,0,1,.19.64,4.32,4.32,0,0,1-.48,3,4.27,4.27,0,0,1-2.8,2.07l-.07,0A4.31,4.31,0,0,1,269.83,72.83Z"/><path class="cls-9" d="M258,75.28a4.86,4.86,0,0,0,2.51,3.34,5.58,5.58,0,0,0,1.05.41,4.21,4.21,0,0,0,.6.11l.22,0a4.45,4.45,0,0,0,1.4-.08l.13,0,.28-.07a5,5,0,0,0,1.59-.82,4.9,4.9,0,0,0,1.8-4.86,4.47,4.47,0,0,0-.25-.81s0,0,0,0a3.77,3.77,0,0,0-.28-.57,4.78,4.78,0,0,0-1.66-1.74,4.92,4.92,0,0,0-2.08-.72,4.47,4.47,0,0,0-.82,0l-.68.09-.37.1a3.81,3.81,0,0,0-.51.17l-.41.19A4.9,4.9,0,0,0,258,75.28Zm2.61-4.71.39-.2a4.65,4.65,0,0,1,.52-.2l.39-.1c.19,0,.38-.06.56-.08h.31a4.34,4.34,0,0,1,3.93,2.52,4.72,4.72,0,0,1,.3.92,4.3,4.3,0,0,1-1.12,3.86,2.18,2.18,0,0,1-.22.21,4.22,4.22,0,0,1-1.8,1l-.08,0-.13,0a4.14,4.14,0,0,1-1.4.06,1.13,1.13,0,0,1-.18,0,3.22,3.22,0,0,1-.63-.15,4.37,4.37,0,0,1-.93-.43,4.28,4.28,0,0,1-1.76-2.14c0-.13-.09-.25-.13-.38s-.05-.18-.07-.28A4.33,4.33,0,0,1,260.56,70.57Z"/><path class="cls-9" d="M284.68,70.8l.09,0a.28.28,0,0,0,.09-.4c-1.94-3-6.61-.31-6.66-.28a.28.28,0,0,0-.1.39.29.29,0,0,0,.4.1s4.23-2.47,5.87.1A.31.31,0,0,0,284.68,70.8Z"/><path class="cls-9" d="M267.06,72.63a.29.29,0,0,0,.18-.13c.62-1,1.95-.53,2-.53a.29.29,0,0,0,.37-.18.28.28,0,0,0-.18-.36,2.29,2.29,0,0,0-2.64.75.3.3,0,0,0,.09.4A.29.29,0,0,0,267.06,72.63Z"/><g class="cls-4"><path class="cls-16" d="M262.93,75.86c.15.73.3,1.42.44,2.06,1.32-.32,2.27-1,2.16-1.51S264.28,75.64,262.93,75.86Z"/></g><path class="cls-7" d="M272,72c.16.79.64,1.35,1.08,1.26s.67-.79.51-1.58-.64-1.35-1.08-1.26S271.8,71.25,272,72Z"/><path class="cls-7" d="M264.2,73.61c.16.78.64,1.34,1.08,1.26s.67-.8.51-1.59-.65-1.34-1.09-1.26S264,72.82,264.2,73.61Z"/><path class="cls-7" d="M268.21,75.71a3,3,0,0,1-.67.07.37.37,0,0,1-.24-.12.35.35,0,0,1-.07-.26l.5-3.66a.33.33,0,0,1,.37-.28.32.32,0,0,1,.28.37l-.44,3.26a2.63,2.63,0,0,0,1.26-.55.33.33,0,1,1,.42.5A3.1,3.1,0,0,1,268.21,75.71Z"/><path class="cls-7" d="M282.65,78.31c.05.08,1.57,2.26,3.19,2.66h0c0-.57,0-1.13,0-1.69A6.11,6.11,0,0,1,282.65,78.31Z"/><path class="cls-15" d="M283,72.57s2.28-4.85,5.25-2c2.45,2.35.31,10.18-3.93,8.51Z"/><path class="cls-7" d="M284.47,77.71h0a.33.33,0,0,1-.35-.3,6.14,6.14,0,0,1,2.54-5.59.33.33,0,0,1,.46.09.33.33,0,0,1-.1.46h0a5.5,5.5,0,0,0-2.25,5A.32.32,0,0,1,284.47,77.71Z"/><path class="cls-7" d="M287.09,75.14a.28.28,0,0,1-.22,0,2.61,2.61,0,0,0-1.82-.3.33.33,0,0,1-.29-.59,3.14,3.14,0,0,1,2.41.31.32.32,0,0,1,.14.44A.31.31,0,0,1,287.09,75.14Z"/><path class="cls-7" d="M280,64.34s3.08,8.35,3.24,10c.23,2.29,3.26-5.56.21-12.27Z"/><path class="cls-7" d="M228.69,241.26h12.65s2.93-14,3.91-21.93,1.49-26.54,1.49-26.54,10.09,3.27,31.2,2c46.77-2.74,29-37.1,29-37.1-1.58,2.18-13.44,5.19-20.05,6.23-20.31,1.95-35.75,5.4-46.32,10a53.54,53.54,0,0,0-6.79,3.48c-2.55,1.57-4.14,6.34-5.1,12.61C225.83,208.85,228.69,241.26,228.69,241.26Z"/><path class="cls-10" d="M239.77,234.49a.45.45,0,0,0,.44-.37c1.83-9,2.44-20.28,2.93-29.31.41-7.5.8-14.57,1.76-15.42.78-.69,4-.16,8.12.52,8.15,1.36,20.47,3.4,34,.24,7.4-1.72,12.84-5.31,16.17-10.68,5.74-9.26,3.13-20.74,3.1-20.85a.46.46,0,0,0-.55-.34.45.45,0,0,0-.33.55c0,.11,2.55,11.23-3,20.17-3.2,5.15-8.45,8.6-15.6,10.27-13.41,3.12-25.62,1.09-33.71-.25-4.84-.8-7.76-1.29-8.86-.31s-1.52,6.22-2.06,16c-.49,9-1.1,20.21-2.91,29.18a.46.46,0,0,0,.35.54Z"/><path class="cls-10" d="M228.44,234.73h0l14.08-.31a.45.45,0,1,0,0-.9l-14.08.3a.45.45,0,0,0-.44.46A.46.46,0,0,0,228.44,234.73Z"/><polygon class="cls-15" points="229.03 257.47 237.97 257.47 239.69 246.99 240.63 241.26 229.53 241.26 229.35 246.99 229.03 257.47"/><polygon class="cls-9" points="229.03 257.47 237.97 257.47 239.25 249.67 239.69 246.99 229.35 246.99 229.27 249.76 229.03 257.47"/><polygon class="cls-20" points="229.27 249.76 239.25 249.67 239.69 246.99 229.35 246.99 229.27 249.76"/><path class="cls-21" d="M207,271.58h33.79a4.86,4.86,0,0,0,.44-1.88c.21-2.86-.7-7.42-1.15-10.29,0-.34-.1-.65-.13-.94a8.46,8.46,0,0,1-.1-1.17,1.73,1.73,0,0,0-2.08-2c-3.42,3.36-7.29-1.67-9.55,0l-.3.23-.88.71c-.57.49-1.38,1.18-2.48,2.17-2.68,2.41-7.24,4-11.12,5.63-.5.21-1,.41-1.38.62s-.63.31-.92.47c-3.17,1.71-4.19,3.35-4.41,4.54A2.67,2.67,0,0,0,207,271.58Z"/><path class="cls-22" d="M211.13,265.16c.87.69,2.8,2.07,4.36,2.07h.2c1.1-.1,5.12-2.07,8.4-3.87,1.88-1,3.59-2.05,4.82-2.86,2-1.34,2.38-1.85,2.46-2.2.29-1.33-1.91-2.26-3.46-2.74l-.88.71c1.92.53,3.5,1.35,3.43,1.82s-2.19,1.91-7,4.53c-3.65,2-7.11,3.61-7.88,3.68-1,.08-2.57-.87-3.56-1.61C211.72,264.84,211.42,265,211.13,265.16Z"/><path class="cls-22" d="M207,271.58h33.79a4.86,4.86,0,0,0,.44-1.88h-34.5A2.67,2.67,0,0,0,207,271.58Z"/><path class="cls-22" d="M237.33,271.58h1a7.4,7.4,0,0,1-1.81-5.41,9.51,9.51,0,0,1,3.55-6.76c0-.34-.1-.65-.13-.94a10.38,10.38,0,0,0-4.23,7.66A8.24,8.24,0,0,0,237.33,271.58Z"/><path class="cls-9" d="M225.13,260.43a.56.56,0,0,0,.13-1.1l-2.11-.52a.55.55,0,0,0-.67.41.54.54,0,0,0,.4.67l2.11.52A.34.34,0,0,0,225.13,260.43Z"/><path class="cls-9" d="M227.22,258.67a.56.56,0,0,0,.54-.42.54.54,0,0,0-.4-.67l-2.11-.53a.57.57,0,0,0-.68.41.55.55,0,0,0,.41.67l2.11.53Z"/><path class="cls-9" d="M223,261.66a.56.56,0,0,0,.13-1.1L221,260a.54.54,0,0,0-.67.4.55.55,0,0,0,.4.68l2.11.52Z"/><path class="cls-9" d="M220.91,262.84a.56.56,0,0,0,.13-1.1l-2.11-.52a.54.54,0,0,0-.67.4.55.55,0,0,0,.4.68l2.11.52Z"/><path class="cls-9" d="M218.61,263.93a.56.56,0,0,0,.13-1.1l-2.11-.52a.55.55,0,0,0-.68.4.57.57,0,0,0,.41.68l2.11.52Z"/><path class="cls-9" d="M216.11,264.86a.56.56,0,0,0,.13-1.1l-2.11-.52a.54.54,0,0,0-.67.4.56.56,0,0,0,.41.68l2.11.52Z"/><path class="cls-24" d="M182.07,157.23V160c0,1.62,1,2.92,2.18,2.92h151.6c1.2,0,2.18-1.3,2.18-2.92v-2.8c0-1.62-1-2.92-2.18-2.92H184.25C183.05,154.31,182.07,155.61,182.07,157.23Z"/><rect class="cls-25" x="182.07" y="158.11" width="155.95" height="1.28"/><path class="cls-25" d="M186.63,170.16h142.5a1.15,1.15,0,0,0,1.15-1.15v-6.09H185.47V169A1.15,1.15,0,0,0,186.63,170.16Z"/><rect class="cls-25" x="193.03" y="205.93" width="127.44" height="4.97"/><polygon class="cls-24" points="329.65 272.46 304.98 170.16 313.64 170.16 338.31 272.46 329.65 272.46"/><polygon class="cls-24" points="184.01 272.46 208.68 170.16 200.01 170.16 175.34 272.46 184.01 272.46"/><rect class="cls-26" x="322.62" y="130.87" width="2.71" height="20.4" transform="translate(622.84 329.59) rotate(-171.29)"/><polygon class="cls-15" points="324.18 130.79 326.85 131.2 326.26 129.15 325.96 128.09 325.35 129.01 324.18 130.79"/><rect class="cls-7" x="321.19" y="149.69" width="2.71" height="1.48" transform="translate(618.58 347.97) rotate(-171.29)"/><path class="cls-27" d="M321.09,152.15l2.32.36a.18.18,0,0,0,.2-.16l.15-1-2.67-.41-.15,1A.17.17,0,0,0,321.09,152.15Z"/><polygon class="cls-7" points="325.35 129.01 326.26 129.15 325.96 128.09 325.35 129.01"/><rect class="cls-18" x="322.2" y="147.82" width="1.06" height="2.71" transform="matrix(0.15, -0.99, 0.99, 0.15, 126.42, 445.6)"/><path class="cls-18" d="M326,132.09,323.75,147a.21.21,0,0,1-.24.18h0a.21.21,0,0,1-.17-.24L325.63,132a.2.2,0,0,1,.23-.17h0A.21.21,0,0,1,326,132.09Z"/><path class="cls-18" d="M325,131.93l-2.29,14.93a.21.21,0,0,1-.23.18h0a.22.22,0,0,1-.18-.24l2.29-14.94a.21.21,0,0,1,.24-.17h0A.21.21,0,0,1,325,131.93Z"/><rect class="cls-28" x="310.46" y="139.73" width="20.4" height="2.71" transform="translate(178.52 461.28) rotate(-89.81)"/><polygon class="cls-15" points="319.34 130.88 322.05 130.89 321.16 128.96 320.7 127.95 320.24 128.95 319.34 130.88"/><rect class="cls-7" x="319.28" y="149.81" width="2.71" height="1.48" transform="translate(640.76 302.15) rotate(-179.81)"/><path class="cls-27" d="M319.45,152.47h2.35a.18.18,0,0,0,.18-.18v-1h-2.71v1A.19.19,0,0,0,319.45,152.47Z"/><polygon class="cls-7" points="320.24 128.95 321.16 128.96 320.7 127.95 320.24 128.95"/><rect class="cls-29" x="320.1" y="147.92" width="1.06" height="2.71" transform="translate(170.31 469.42) rotate(-89.81)"/><path class="cls-29" d="M321.37,131.89,321.32,147a.2.2,0,0,1-.2.21h0a.21.21,0,0,1-.21-.21l0-15.11a.21.21,0,0,1,.21-.21h0A.21.21,0,0,1,321.37,131.89Z"/><path class="cls-29" d="M320.31,131.89,320.26,147a.2.2,0,0,1-.2.2h0a.2.2,0,0,1-.21-.2l0-15.11a.21.21,0,0,1,.21-.21h0A.2.2,0,0,1,320.31,131.89Z"/><rect class="cls-30" x="316.09" y="130.87" width="2.71" height="20.4" transform="translate(-16.69 46.05) rotate(-8.09)"/><polygon class="cls-15" points="314.67 131.17 317.35 130.79 316.2 129 315.6 128.08 315.28 129.13 314.67 131.17"/><rect class="cls-7" x="317.42" y="149.7" width="2.71" height="1.48" transform="translate(655.55 254.56) rotate(171.91)"/><path class="cls-27" d="M317.89,152.51l2.32-.33a.17.17,0,0,0,.15-.2l-.14-1-2.68.38.14,1A.18.18,0,0,0,317.89,152.51Z"/><polygon class="cls-7" points="315.28 129.13 316.2 129 315.6 128.08 315.28 129.13"/><rect class="cls-31" x="317.25" y="148.65" width="2.71" height="1.06" transform="matrix(0.99, -0.14, 0.14, 0.99, -17.82, 46.31)"/><path class="cls-31" d="M316.83,131.88l2.12,15a.2.2,0,0,1-.17.23h0a.21.21,0,0,1-.24-.18l-2.12-15a.2.2,0,0,1,.17-.23h0A.21.21,0,0,1,316.83,131.88Z"/><path class="cls-31" d="M315.78,132l2.12,15a.21.21,0,0,1-.17.24h0a.23.23,0,0,1-.24-.18l-2.12-15a.2.2,0,0,1,.17-.23h0A.21.21,0,0,1,315.78,132Z"/><polygon class="cls-27" points="313.79 138.95 313.93 140.04 314.06 141.04 314.26 142.55 314.38 143.53 314.58 145.05 314.71 146.02 314.9 147.56 315.03 148.51 315.23 150.06 315.35 151.01 315.55 152.56 315.67 153.5 315.77 154.31 326.41 154.31 326.51 153.5 326.64 152.56 326.84 151.01 326.96 150.06 327.16 148.51 327.28 147.56 327.48 146.02 327.61 145.05 327.8 143.53 327.93 142.55 328.12 141.04 328.25 140.04 328.39 138.95 313.79 138.95"/><polygon class="cls-32" points="313.93 140.04 314.06 141.04 328.12 141.04 328.25 140.04 313.93 140.04"/><polygon class="cls-32" points="314.26 142.55 314.38 143.53 327.8 143.53 327.93 142.55 314.26 142.55"/><polygon class="cls-32" points="314.58 145.05 314.71 146.02 327.48 146.02 327.61 145.05 314.58 145.05"/><polygon class="cls-32" points="314.9 147.56 315.03 148.51 327.16 148.51 327.28 147.56 314.9 147.56"/><polygon class="cls-32" points="315.23 150.06 315.35 151.01 326.84 151.01 326.96 150.06 315.23 150.06"/><polygon class="cls-32" points="315.55 152.56 315.67 153.5 326.51 153.5 326.64 152.56 315.55 152.56"/><path class="cls-33" d="M183,100.06,192,138.41l.24,1,.61,2.59a2.47,2.47,0,0,0,2.41,1.9h61.11a2.48,2.48,0,0,0,2.41-3l-9.92-41.95A2.48,2.48,0,0,0,246.47,97h-61.1A2.49,2.49,0,0,0,183,100.06Z"/><polygon class="cls-34" points="192.02 138.41 192.26 139.42 255.71 139.42 255.71 138.41 192.02 138.41"/><path class="cls-26" d="M231.76,106.5a6.2,6.2,0,0,0,5.84,4.92,4,4,0,0,0,4-4.92,6.21,6.21,0,0,0-5.84-4.92A4,4,0,0,0,231.76,106.5Z"/><path class="cls-7" d="M237.32,105.56c.1.54.38,1,.61,1s.35-.44.25-1-.38-1-.61-1S237.22,105,237.32,105.56Z"/><path class="cls-7" d="M234.75,105.56c.1.54.38,1,.62,1s.34-.44.24-1-.38-1-.61-1S234.65,105,234.75,105.56Z"/><path class="cls-7" d="M237.09,108.9a2.19,2.19,0,0,0,2.21-2.14.26.26,0,0,0-.21-.25.17.17,0,0,0-.23.16,1.81,1.81,0,0,1-1.85,1.8,2.93,2.93,0,0,1-2.53-1.8.24.24,0,0,0-.28-.16.18.18,0,0,0-.12.25A3.52,3.52,0,0,0,237.09,108.9Z"/><path class="cls-27" d="M203.52,129.48c-.06,2.55-4.37,5.74-4.37,5.74s-5-3.19-5.62-5.74c-.66-2.76,2.49-3.6,4.83-1.52C200.24,125.88,203.57,126.72,203.52,129.48Z"/><path class="cls-34" d="M213.64,120.1a5.48,5.48,0,0,0,5.31,4.78,4.2,4.2,0,0,0,4.26-4.78,5.48,5.48,0,0,0-5.31-4.78A4.2,4.2,0,0,0,213.64,120.1Z"/><path class="cls-34" d="M244.05,97l10.56,46.9h1.78a2.48,2.48,0,0,0,2.41-3l-9.92-41.95A2.48,2.48,0,0,0,246.47,97Z"/><polygon class="cls-33" points="226.35 143.91 228.2 154.34 222.08 154.34 220.23 143.91 226.35 143.91"/><path class="cls-34" d="M237.36,152.54l-1.25-1.76a2.38,2.38,0,0,0-1.94-1H217.38a2.37,2.37,0,0,0-2.11,1.28l-.85,1.62a1.14,1.14,0,0,0,1,1.66h21A1.14,1.14,0,0,0,237.36,152.54Z"/><path class="cls-33" d="M272.34,154.33H221.91l-.54-1.9a1.87,1.87,0,0,1,1.8-2.39h46.52a1.87,1.87,0,0,1,1.8,1.35Z"/></g></g></g></svg>