<svg xmlns="http://www.w3.org/2000/svg" viewBox="0 0 338.22 222.37"><defs><style>.cls-1{isolation:isolate;}.cls-2{fill:#46c7ce;opacity:0.25;}.cls-3{fill:#eaeaea;}.cls-3,.cls-8{mix-blend-mode:multiply;}.cls-4{fill:#232b57;}.cls-5,.cls-8{fill:#f4994e;}.cls-6{fill:#f5ab4e;}.cls-13,.cls-7{fill:#f6d057;}.cls-8{opacity:0.5;}.cls-9{fill:#fb5f97;}.cls-10{fill:#35a8a5;}.cls-11,.cls-15{fill:#fff;}.cls-12{fill:#6cbcba;}.cls-13{opacity:0.55;}.cls-14{font-size:53.69px;fill:#fde634;letter-spacing:0.01em;}.cls-14,.cls-15{font-family:Poppins-Medium, Poppins;font-weight:500;}.cls-15{font-size:9.51px;letter-spacing:0.01em;}.cls-16{fill:#bb5437;}.cls-17{fill:#d87c39;}.cls-18{fill:#b14f22;}.cls-19{fill:#f6eee0;}.cls-20{fill:#152216;}.cls-21{fill:#534730;}.cls-22{fill:#ffd371;}.cls-23{fill:#142549;}.cls-24{fill:#973721;}.cls-25{fill:#f4bd37;}</style></defs><g class="cls-1"><g id="Layer_2" data-name="Layer 2"><g id="Option_1" data-name="Option 1"><path class="cls-2" d="M53.76,46.71s-94.18,80-33.23,129.74c36.08,29.43,82.47-5.67,125.73,23.86,55.81,38.1,103.24,22.31,139.89-12.94,27.5-26.46,27.1-29,41.31-50.61C364.31,80.68,280.3,32.49,280.3,32.49S160.54-49.33,53.76,46.71Z"/><ellipse id="_Path_" data-name="&lt;Path&gt;" class="cls-3" cx="166.17" cy="186.76" rx="155.4" ry="9.08"/><path class="cls-4" d="M149.41,51.07,147.28,50l-1.68,5.36c2.93,2,17.91,5.87,16.79.58S149.41,51.07,149.41,51.07Z"/><path class="cls-4" d="M107.57,55.9c-1.12,5.29,13.85,1.38,16.78-.58L122.68,50l-2.13,1.11S108.69,50.61,107.57,55.9Z"/><rect class="cls-5" x="82.96" y="155.32" width="119.67" height="21.3"/><rect class="cls-6" x="124.62" y="155.32" width="69.84" height="21.3"/><rect class="cls-7" x="171.02" y="155.32" width="11.19" height="21.3"/><rect class="cls-8" x="82.96" y="173.44" width="119.67" height="3.18"/><rect class="cls-5" x="74.28" y="134.02" width="119.67" height="21.3"/><rect class="cls-6" x="115.94" y="134.02" width="69.84" height="21.3"/><rect class="cls-7" x="162.34" y="134.02" width="11.19" height="21.3"/><rect class="cls-8" x="74.28" y="152.14" width="119.67" height="3.18"/><rect class="cls-5" x="82.96" y="112.72" width="119.67" height="21.3"/><rect class="cls-6" x="124.62" y="112.72" width="69.84" height="21.3"/><rect class="cls-7" x="171.02" y="112.72" width="11.19" height="21.3"/><rect class="cls-8" x="82.96" y="130.84" width="119.67" height="3.18"/><rect class="cls-5" x="65.6" y="91.43" width="119.67" height="21.3"/><rect class="cls-6" x="107.25" y="91.43" width="69.84" height="21.3"/><rect class="cls-7" x="153.66" y="91.43" width="11.19" height="21.3"/><rect class="cls-8" x="65.6" y="109.55" width="119.67" height="3.18"/><rect class="cls-5" x="74.28" y="70.13" width="119.67" height="21.3"/><rect class="cls-6" x="115.94" y="70.13" width="69.84" height="21.3"/><rect class="cls-7" x="162.34" y="70.13" width="11.19" height="21.3"/><rect class="cls-8" x="74.28" y="88.25" width="119.67" height="3.18"/><rect class="cls-5" x="82.96" y="48.83" width="119.67" height="21.3"/><rect class="cls-6" x="124.62" y="48.83" width="69.84" height="21.3"/><rect class="cls-7" x="171.02" y="48.83" width="11.19" height="21.3"/><rect class="cls-8" x="82.96" y="66.95" width="119.67" height="3.18"/><path class="cls-9" d="M216.25,165.56c-.15,3.94-2.78,7.16-6.34,7.19s-6.37-3.29-6.35-7.19c.07-9.31,12.34-9.25,12.69,0a1.5,1.5,0,1,0,3,0c-.22-5.77-4.1-10.56-9.33-10.58-5.06,0-9.36,4.84-9.34,10.58s4.25,10.58,9.34,10.58c5.24,0,9.12-4.83,9.33-10.58A1.5,1.5,0,1,0,216.25,165.56Z"/><rect class="cls-10" x="136.76" y="75.56" width="189.43" height="105.4" rx="17.5"/><path class="cls-11" d="M159.2,141v1H154v-1h2.09v-7.57c0-.23,0-.46,0-.69l-1.74,1.7a.41.41,0,0,1-.18.1.29.29,0,0,1-.16,0,.35.35,0,0,1-.14-.06.32.32,0,0,1-.1-.1l-.38-.59,2.91-2.86h1V141Z"/><path class="cls-11" d="M166.91,140.73a.37.37,0,0,1,.31.13.49.49,0,0,1,.12.34V142h-6.53v-.47a.89.89,0,0,1,.06-.31A.75.75,0,0,1,161,141l3.13-3.57c.26-.3.5-.59.71-.87a5.18,5.18,0,0,0,.55-.83,4.76,4.76,0,0,0,.35-.85,3.34,3.34,0,0,0,.12-.91,2.5,2.5,0,0,0-.14-.86,1.61,1.61,0,0,0-.37-.61,1.5,1.5,0,0,0-.56-.36,1.92,1.92,0,0,0-.69-.12,1.85,1.85,0,0,0-1.24.47,2.09,2.09,0,0,0-.41.52,2.41,2.41,0,0,0-.23.67.62.62,0,0,1-.22.36.55.55,0,0,1-.39,0L161,134a4.45,4.45,0,0,1,.37-1.35,3.41,3.41,0,0,1,.7-1,3,3,0,0,1,1-.6,3.42,3.42,0,0,1,1.17-.2,3.19,3.19,0,0,1,1.16.21,2.66,2.66,0,0,1,.93.6,2.74,2.74,0,0,1,.62,1,3.51,3.51,0,0,1,.23,1.3,4.26,4.26,0,0,1-.16,1.15,4.79,4.79,0,0,1-.45,1,8.1,8.1,0,0,1-.64.93q-.37.47-.78.93l-2.58,3a3.7,3.7,0,0,1,.55-.14,3.5,3.5,0,0,1,.54-.05Z"/><path class="cls-11" d="M169,134a4.45,4.45,0,0,1,.37-1.35,3.2,3.2,0,0,1,.69-1,3,3,0,0,1,1-.6,3.52,3.52,0,0,1,1.18-.2,3,3,0,0,1,1.14.2,2.51,2.51,0,0,1,.91.57,2.66,2.66,0,0,1,.59.9,3.13,3.13,0,0,1,.21,1.17,3.4,3.4,0,0,1-.12.94,2.18,2.18,0,0,1-.34.72,2.09,2.09,0,0,1-.54.53,3.08,3.08,0,0,1-.7.36,2.54,2.54,0,0,1,1.44.95,2.89,2.89,0,0,1,.48,1.7,3.49,3.49,0,0,1-.26,1.37,3,3,0,0,1-1.73,1.7,3.37,3.37,0,0,1-1.27.23,3.53,3.53,0,0,1-1.33-.22,2.78,2.78,0,0,1-.94-.61,3.12,3.12,0,0,1-.62-.91,6.81,6.81,0,0,1-.42-1.15l.53-.25a.54.54,0,0,1,.39-.06.44.44,0,0,1,.29.26c.06.14.13.32.22.52a2.46,2.46,0,0,0,.37.58,1.86,1.86,0,0,0,1.5.67,2.13,2.13,0,0,0,.9-.19,2,2,0,0,0,.64-.5,1.94,1.94,0,0,0,.38-.67,2.14,2.14,0,0,0,.13-.74,3.07,3.07,0,0,0-.1-.82,1.4,1.4,0,0,0-.38-.64,2,2,0,0,0-.77-.43,4.36,4.36,0,0,0-1.25-.15v-1a3.68,3.68,0,0,0,1.07-.15,2,2,0,0,0,.71-.41,1.5,1.5,0,0,0,.41-.61,2.47,2.47,0,0,0,.12-.79,2.3,2.3,0,0,0-.13-.83,1.53,1.53,0,0,0-.37-.59,1.37,1.37,0,0,0-.55-.35,1.91,1.91,0,0,0-.68-.12,1.73,1.73,0,0,0-.69.13,1.68,1.68,0,0,0-.56.34,1.85,1.85,0,0,0-.4.52,2.43,2.43,0,0,0-.24.67.67.67,0,0,1-.22.36.53.53,0,0,1-.39,0Z"/><path class="cls-11" d="M183.55,138v.78a.33.33,0,0,1-.07.21.23.23,0,0,1-.2.09h-1.22V142H181v-2.92h-4.34a.34.34,0,0,1-.24-.09.38.38,0,0,1-.13-.22l-.12-.71,4.76-7.16h1.13V138ZM181,138v-4.58c0-.14,0-.28,0-.44s0-.33,0-.49L177.49,138Z"/><path class="cls-11" d="M196,135.13a6.24,6.24,0,0,1,1.41-.19,3.35,3.35,0,0,1,1.35.26,2.82,2.82,0,0,1,1,.7,3.19,3.19,0,0,1,.6,1.07,4.31,4.31,0,0,1,.2,1.33,4.42,4.42,0,0,1-.27,1.59,3.49,3.49,0,0,1-.75,1.22,3.2,3.2,0,0,1-1.11.78,3.55,3.55,0,0,1-1.39.27,3.77,3.77,0,0,1-.83-.09,4.31,4.31,0,0,1-.74-.26,4.5,4.5,0,0,1-.64-.38,3.1,3.1,0,0,1-.51-.44l.37-.59a.37.37,0,0,1,.32-.2.55.55,0,0,1,.31.12l.42.27a3,3,0,0,0,.57.27,2.34,2.34,0,0,0,.79.12,2.1,2.1,0,0,0,.92-.19,2,2,0,0,0,.71-.53,2.59,2.59,0,0,0,.45-.82,3.6,3.6,0,0,0,.16-1.08,3,3,0,0,0-.14-.94,1.9,1.9,0,0,0-.4-.71,1.78,1.78,0,0,0-.67-.46,2.74,2.74,0,0,0-.95-.16,4.06,4.06,0,0,0-.76.07,4.4,4.4,0,0,0-.82.23l-.77-.26.79-5.19h4.64v.61a.77.77,0,0,1-.16.48.68.68,0,0,1-.55.19h-3.08Z"/><path class="cls-11" d="M204.72,135.1l-.25.36-.23.34a2.48,2.48,0,0,1,.77-.41,2.63,2.63,0,0,1,.91-.15,2.87,2.87,0,0,1,1.12.22,2.64,2.64,0,0,1,.91.64,3.25,3.25,0,0,1,.63,1,4.09,4.09,0,0,1,.23,1.41,3.89,3.89,0,0,1-.25,1.42,3.57,3.57,0,0,1-.68,1.15,3.24,3.24,0,0,1-2.42,1,3.41,3.41,0,0,1-1.34-.26,3,3,0,0,1-1-.76,3.46,3.46,0,0,1-.65-1.2,5.06,5.06,0,0,1-.23-1.56,4.77,4.77,0,0,1,.28-1.56,7.81,7.81,0,0,1,.91-1.76l2.48-3.79a.87.87,0,0,1,.27-.23.7.7,0,0,1,.38-.1h1.08Zm.71,5.92a2.14,2.14,0,0,0,.89-.18,2,2,0,0,0,.68-.5,2.16,2.16,0,0,0,.44-.75,2.85,2.85,0,0,0,.16-.94,2.76,2.76,0,0,0-.16-1,2.28,2.28,0,0,0-.42-.75,1.88,1.88,0,0,0-.66-.46,2.06,2.06,0,0,0-2.4.53,2.33,2.33,0,0,0-.43.75,2.84,2.84,0,0,0-.14.88,3.3,3.3,0,0,0,.13,1,2.38,2.38,0,0,0,.4.76,1.75,1.75,0,0,0,.65.49A2,2,0,0,0,205.43,141Z"/><path class="cls-11" d="M216.79,130.94v.62a1.63,1.63,0,0,1,0,.43l-.1.29-4.06,9.27a1.07,1.07,0,0,1-.25.35.6.6,0,0,1-.41.14H211l4.11-9.16.19-.35a3.28,3.28,0,0,1,.2-.31h-5.1a.28.28,0,0,1-.21-.11.33.33,0,0,1-.09-.23v-.94Z"/><path class="cls-11" d="M222.69,136.25a2.65,2.65,0,0,1,1.4,1,3,3,0,0,1,.5,1.76,3.27,3.27,0,0,1-.25,1.32,2.76,2.76,0,0,1-.67,1,3.12,3.12,0,0,1-1,.63,3.88,3.88,0,0,1-1.34.22,3.81,3.81,0,0,1-1.34-.22,3.16,3.16,0,0,1-1-.63,2.76,2.76,0,0,1-.67-1A3.45,3.45,0,0,1,218,139a3,3,0,0,1,.49-1.76,2.71,2.71,0,0,1,1.41-1,2.36,2.36,0,0,1-1.17-1,2.91,2.91,0,0,1-.39-1.54,3.13,3.13,0,0,1,.21-1.15,2.66,2.66,0,0,1,.6-.93,2.86,2.86,0,0,1,.93-.62,3.47,3.47,0,0,1,2.43,0,2.86,2.86,0,0,1,.93.62,2.66,2.66,0,0,1,.6.93,3.13,3.13,0,0,1,.21,1.15,2.91,2.91,0,0,1-.39,1.54A2.38,2.38,0,0,1,222.69,136.25Zm-1.4,4.81a2.26,2.26,0,0,0,.85-.15,1.82,1.82,0,0,0,.65-.42,2,2,0,0,0,.4-.66,2.57,2.57,0,0,0,.14-.85,2.61,2.61,0,0,0-.17-1,1.76,1.76,0,0,0-.45-.66,1.86,1.86,0,0,0-.65-.38,2.48,2.48,0,0,0-.77-.12,2.43,2.43,0,0,0-.77.12,1.81,1.81,0,0,0-.66.38,1.76,1.76,0,0,0-.45.66,2.61,2.61,0,0,0-.16,1,2.33,2.33,0,0,0,.14.85,1.86,1.86,0,0,0,.4.66,1.78,1.78,0,0,0,.64.42A2.31,2.31,0,0,0,221.29,141.06Zm0-9.17a2,2,0,0,0-.77.14,1.53,1.53,0,0,0-.55.41,1.82,1.82,0,0,0-.34.59,2.48,2.48,0,0,0-.11.73,3.06,3.06,0,0,0,.09.74,2.06,2.06,0,0,0,.31.63,1.6,1.6,0,0,0,.55.44,1.88,1.88,0,0,0,.82.16,1.8,1.8,0,0,0,.81-.16,1.51,1.51,0,0,0,.55-.44,1.85,1.85,0,0,0,.31-.63,3.07,3.07,0,0,0,.1-.74,2.19,2.19,0,0,0-.12-.73,1.63,1.63,0,0,0-.88-1A2,2,0,0,0,221.29,131.89Z"/><path class="cls-11" d="M242.39,136.49a10.31,10.31,0,0,1-.28,2.52,5.79,5.79,0,0,1-.76,1.77,3,3,0,0,1-1.13,1,3,3,0,0,1-2.79,0,3.12,3.12,0,0,1-1.12-1,5.55,5.55,0,0,1-.75-1.77,11.48,11.48,0,0,1,0-5,5.55,5.55,0,0,1,.75-1.77,3.15,3.15,0,0,1,1.12-1,3,3,0,0,1,2.79,0,3,3,0,0,1,1.13,1,5.79,5.79,0,0,1,.76,1.77A10.31,10.31,0,0,1,242.39,136.49Zm-1.27,0a9.94,9.94,0,0,0-.19-2.13,4.47,4.47,0,0,0-.5-1.39,2,2,0,0,0-.74-.75,1.66,1.66,0,0,0-.86-.23,1.72,1.72,0,0,0-.87.23,2,2,0,0,0-.73.75,4.47,4.47,0,0,0-.5,1.39,9.94,9.94,0,0,0-.19,2.13,9.82,9.82,0,0,0,.19,2.13,4.47,4.47,0,0,0,.5,1.39,2,2,0,0,0,.73.75,1.72,1.72,0,0,0,.87.23,1.66,1.66,0,0,0,.86-.23,2,2,0,0,0,.74-.75,4.47,4.47,0,0,0,.5-1.39A9.82,9.82,0,0,0,241.12,136.49Z"/><path class="cls-11" d="M250.31,136.49A9.84,9.84,0,0,1,250,139a5.79,5.79,0,0,1-.75,1.77,3.14,3.14,0,0,1-1.13,1,3.05,3.05,0,0,1-2.8,0,3.12,3.12,0,0,1-1.12-1,5.55,5.55,0,0,1-.75-1.77,11.89,11.89,0,0,1,0-5,5.55,5.55,0,0,1,.75-1.77,3.15,3.15,0,0,1,1.12-1,3.05,3.05,0,0,1,2.8,0,3.17,3.17,0,0,1,1.13,1A5.79,5.79,0,0,1,250,134,9.84,9.84,0,0,1,250.31,136.49Zm-1.27,0a10.71,10.71,0,0,0-.18-2.13,4.72,4.72,0,0,0-.51-1.39,2,2,0,0,0-.73-.75,1.76,1.76,0,0,0-1.74,0,2,2,0,0,0-.73.75,4.47,4.47,0,0,0-.5,1.39,9.94,9.94,0,0,0-.19,2.13,9.82,9.82,0,0,0,.19,2.13,4.47,4.47,0,0,0,.5,1.39,2,2,0,0,0,.73.75,1.76,1.76,0,0,0,1.74,0,2,2,0,0,0,.73-.75,4.72,4.72,0,0,0,.51-1.39A10.57,10.57,0,0,0,249,136.49Z"/><path class="cls-11" d="M257.67,141v1h-5.25v-1h2.1v-7.57c0-.23,0-.46,0-.69l-1.74,1.7a.41.41,0,0,1-.18.1.29.29,0,0,1-.16,0,.35.35,0,0,1-.14-.06.32.32,0,0,1-.1-.1l-.38-.59,2.91-2.86h1V141Z"/><path class="cls-11" d="M265.38,140.73a.37.37,0,0,1,.31.13.49.49,0,0,1,.12.34V142h-6.53v-.47a.89.89,0,0,1,.06-.31.75.75,0,0,1,.17-.28l3.13-3.57c.26-.3.5-.59.71-.87a5.18,5.18,0,0,0,.55-.83,4.76,4.76,0,0,0,.35-.85,3.34,3.34,0,0,0,.12-.91,2.5,2.5,0,0,0-.14-.86,1.61,1.61,0,0,0-.37-.61,1.5,1.5,0,0,0-.56-.36,1.92,1.92,0,0,0-.69-.12,1.73,1.73,0,0,0-.69.13,1.64,1.64,0,0,0-.55.34,2.09,2.09,0,0,0-.41.52,2.13,2.13,0,0,0-.23.67.67.67,0,0,1-.22.36.57.57,0,0,1-.4,0l-.63-.12a4.45,4.45,0,0,1,.37-1.35,3.41,3.41,0,0,1,.7-1,3,3,0,0,1,1-.6,3.42,3.42,0,0,1,1.17-.2,3.19,3.19,0,0,1,1.16.21,2.66,2.66,0,0,1,.93.6,2.74,2.74,0,0,1,.62,1,3.51,3.51,0,0,1,.23,1.3,4.26,4.26,0,0,1-.16,1.15,4.79,4.79,0,0,1-.45,1,8.1,8.1,0,0,1-.64.93q-.37.47-.78.93l-2.58,3a3.41,3.41,0,0,1,.55-.14,3.5,3.5,0,0,1,.54-.05Z"/><path class="cls-11" d="M277.07,134a4.76,4.76,0,0,1,.37-1.35,3.06,3.06,0,0,1,.7-1,2.89,2.89,0,0,1,1-.6,3.42,3.42,0,0,1,1.17-.2,3.09,3.09,0,0,1,1.15.2,2.47,2.47,0,0,1,.9.57,2.66,2.66,0,0,1,.59.9,3.13,3.13,0,0,1,.21,1.17,3.4,3.4,0,0,1-.12.94,2,2,0,0,1-.34.72,1.91,1.91,0,0,1-.53.53,3.15,3.15,0,0,1-.71.36,2.54,2.54,0,0,1,1.44.95,2.89,2.89,0,0,1,.48,1.7,3.49,3.49,0,0,1-.25,1.37,3.22,3.22,0,0,1-.7,1.05,3.1,3.1,0,0,1-1,.65,3.3,3.3,0,0,1-1.27.23,3.56,3.56,0,0,1-1.33-.22,2.64,2.64,0,0,1-.93-.61,3,3,0,0,1-.63-.91,9.14,9.14,0,0,1-.42-1.15l.53-.25a.58.58,0,0,1,.4-.06.42.42,0,0,1,.28.26c.06.14.13.32.22.52a2.46,2.46,0,0,0,.37.58,1.86,1.86,0,0,0,.59.47,1.89,1.89,0,0,0,.91.2,2.13,2.13,0,0,0,.9-.19,1.88,1.88,0,0,0,.64-.5,2.14,2.14,0,0,0,.39-.67,2.4,2.4,0,0,0,.13-.74,3.07,3.07,0,0,0-.11-.82,1.32,1.32,0,0,0-.38-.64,1.94,1.94,0,0,0-.77-.43,4.31,4.31,0,0,0-1.25-.15v-1a3.63,3.63,0,0,0,1.07-.15,2.09,2.09,0,0,0,.72-.41,1.48,1.48,0,0,0,.4-.61,2.47,2.47,0,0,0,.13-.79,2.29,2.29,0,0,0-.14-.83,1.64,1.64,0,0,0-.36-.59,1.52,1.52,0,0,0-.55-.35,1.92,1.92,0,0,0-.69-.12,1.9,1.9,0,0,0-1.25.47,2.06,2.06,0,0,0-.4.52,2.13,2.13,0,0,0-.23.67.68.68,0,0,1-.23.36.49.49,0,0,1-.38,0Z"/><path class="cls-11" d="M291.64,138v.78a.33.33,0,0,1-.06.21.26.26,0,0,1-.21.09h-1.21V142h-1.07v-2.92h-4.34a.36.36,0,0,1-.24-.09.43.43,0,0,1-.12-.22l-.13-.71,4.76-7.16h1.14V138Zm-2.55,0v-4.58c0-.14,0-.28,0-.44s0-.33,0-.49L285.58,138Z"/><path class="cls-11" d="M299.54,136.49a9.84,9.84,0,0,1-.28,2.52,5.55,5.55,0,0,1-.75,1.77,3.14,3.14,0,0,1-1.13,1,2.93,2.93,0,0,1-1.4.34,2.89,2.89,0,0,1-1.39-.34,3.14,3.14,0,0,1-1.13-1,5.55,5.55,0,0,1-.75-1.77,11.89,11.89,0,0,1,0-5,5.55,5.55,0,0,1,.75-1.77,3.17,3.17,0,0,1,1.13-1,2.89,2.89,0,0,1,1.39-.34,2.93,2.93,0,0,1,1.4.34,3.17,3.17,0,0,1,1.13,1,5.55,5.55,0,0,1,.75,1.77A9.84,9.84,0,0,1,299.54,136.49Zm-1.26,0a9.94,9.94,0,0,0-.19-2.13,4.46,4.46,0,0,0-.51-1.39,2,2,0,0,0-.73-.75A1.72,1.72,0,0,0,296,132a1.66,1.66,0,0,0-.86.23,2,2,0,0,0-.74.75,5,5,0,0,0-.5,1.39,10.71,10.71,0,0,0-.18,2.13,10.57,10.57,0,0,0,.18,2.13,5,5,0,0,0,.5,1.39,2,2,0,0,0,.74.75,1.66,1.66,0,0,0,.86.23,1.72,1.72,0,0,0,.87-.23,2,2,0,0,0,.73-.75,4.46,4.46,0,0,0,.51-1.39A9.82,9.82,0,0,0,298.28,136.49Z"/><path class="cls-11" d="M307.46,136.49a10.35,10.35,0,0,1-.27,2.52,5.79,5.79,0,0,1-.76,1.77,3.06,3.06,0,0,1-1.13,1,3,3,0,0,1-2.79,0,3,3,0,0,1-1.12-1,5.79,5.79,0,0,1-.76-1.77,11.89,11.89,0,0,1,0-5,5.79,5.79,0,0,1,.76-1.77,3.07,3.07,0,0,1,1.12-1,3,3,0,0,1,2.79,0,3.09,3.09,0,0,1,1.13,1,5.79,5.79,0,0,1,.76,1.77A10.35,10.35,0,0,1,307.46,136.49Zm-1.26,0a9.94,9.94,0,0,0-.19-2.13,4.47,4.47,0,0,0-.5-1.39,2,2,0,0,0-.74-.75,1.74,1.74,0,0,0-1.73,0,2,2,0,0,0-.73.75,4.47,4.47,0,0,0-.5,1.39,9.94,9.94,0,0,0-.19,2.13,9.82,9.82,0,0,0,.19,2.13,4.47,4.47,0,0,0,.5,1.39,2,2,0,0,0,.73.75,1.74,1.74,0,0,0,1.73,0,2,2,0,0,0,.74-.75,4.47,4.47,0,0,0,.5-1.39A9.82,9.82,0,0,0,306.2,136.49Z"/><path class="cls-11" d="M284.57,157.17a7.39,7.39,0,0,1-.2,1.87,4.35,4.35,0,0,1-.56,1.3,2.35,2.35,0,0,1-.84.77,2.19,2.19,0,0,1-1,.25,2.15,2.15,0,0,1-1-.25,2.25,2.25,0,0,1-.83-.77,3.89,3.89,0,0,1-.56-1.3,7.39,7.39,0,0,1-.2-1.87,7.47,7.47,0,0,1,.2-1.88,4,4,0,0,1,.56-1.31,2.25,2.25,0,0,1,.83-.77,2.15,2.15,0,0,1,1-.25,2.19,2.19,0,0,1,1,.25,2.35,2.35,0,0,1,.84.77,4.53,4.53,0,0,1,.56,1.31A7.47,7.47,0,0,1,284.57,157.17Zm-.93,0a7.88,7.88,0,0,0-.14-1.59,3.59,3.59,0,0,0-.38-1,1.53,1.53,0,0,0-.54-.56,1.31,1.31,0,0,0-1.29,0,1.53,1.53,0,0,0-.54.56,3.33,3.33,0,0,0-.37,1,9,9,0,0,0,0,3.17,3.26,3.26,0,0,0,.37,1,1.46,1.46,0,0,0,.54.56,1.31,1.31,0,0,0,1.29,0,1.46,1.46,0,0,0,.54-.56,3.52,3.52,0,0,0,.38-1A7.84,7.84,0,0,0,283.64,157.17Z"/><path class="cls-11" d="M290,160.5v.78h-3.89v-.78h1.56v-5.61c0-.17,0-.34,0-.52l-1.29,1.26a.31.31,0,0,1-.13.08h-.12l-.1,0a.3.3,0,0,1-.08-.08l-.28-.44,2.16-2.12h.73v7.47Z"/><path class="cls-11" d="M292,161.4a.59.59,0,0,1-.2.3.55.55,0,0,1-.29.09h-.38l3.05-8.59a.53.53,0,0,1,.18-.28.43.43,0,0,1,.29-.1H295Z"/><path class="cls-11" d="M300.9,157.17a7.88,7.88,0,0,1-.2,1.87,4.35,4.35,0,0,1-.56,1.3,2.35,2.35,0,0,1-.84.77,2.19,2.19,0,0,1-1,.25,2.15,2.15,0,0,1-1-.25,2.35,2.35,0,0,1-.84-.77,4.11,4.11,0,0,1-.55-1.3,7.36,7.36,0,0,1-.21-1.87,7.44,7.44,0,0,1,.21-1.88,4.27,4.27,0,0,1,.55-1.31,2.35,2.35,0,0,1,.84-.77,2.15,2.15,0,0,1,1-.25,2.19,2.19,0,0,1,1,.25,2.35,2.35,0,0,1,.84.77,4.53,4.53,0,0,1,.56,1.31A8,8,0,0,1,300.9,157.17Zm-.94,0a8,8,0,0,0-.13-1.59,3.59,3.59,0,0,0-.38-1,1.62,1.62,0,0,0-.54-.56,1.31,1.31,0,0,0-1.29,0,1.46,1.46,0,0,0-.54.56,3.33,3.33,0,0,0-.37,1,9,9,0,0,0,0,3.17,3.26,3.26,0,0,0,.37,1,1.39,1.39,0,0,0,.54.56,1.31,1.31,0,0,0,1.29,0,1.53,1.53,0,0,0,.54-.56,3.52,3.52,0,0,0,.38-1A7.92,7.92,0,0,0,300,157.17Z"/><path class="cls-11" d="M306.2,160.31a.3.3,0,0,1,.24.1.33.33,0,0,1,.08.25v.62h-4.84v-.35a.93.93,0,0,1,0-.23.8.8,0,0,1,.13-.21l2.32-2.65c.2-.22.37-.43.53-.64a5.43,5.43,0,0,0,.41-.61,3.3,3.3,0,0,0,.25-.63,2.54,2.54,0,0,0,.1-.68,1.79,1.79,0,0,0-.11-.64,1.26,1.26,0,0,0-.27-.45,1.17,1.17,0,0,0-.42-.27,1.36,1.36,0,0,0-.51-.09,1.45,1.45,0,0,0-.51.1,1.33,1.33,0,0,0-.41.25,1.45,1.45,0,0,0-.3.39,1.58,1.58,0,0,0-.17.49.48.48,0,0,1-.17.27.44.44,0,0,1-.29,0l-.47-.09a3.56,3.56,0,0,1,.27-1,2.47,2.47,0,0,1,.52-.73,2.28,2.28,0,0,1,.71-.44,2.49,2.49,0,0,1,.87-.15,2.43,2.43,0,0,1,.86.15,1.8,1.8,0,0,1,.69.45,2.07,2.07,0,0,1,.46.72,2.5,2.5,0,0,1,.17,1,2.91,2.91,0,0,1-.12.85,3.57,3.57,0,0,1-.33.75,5.33,5.33,0,0,1-.48.69q-.27.35-.57.69L303,160.44l.41-.1.4,0Z"/><path class="cls-12" d="M164.22,103.51h-7.75c-4.27,0-7.74-3.93-7.74-8.78h0c0-4.85,3.47-8.79,7.74-8.79h7.75c4.28,0,7.75,3.94,7.75,8.79h0C172,99.58,168.5,103.51,164.22,103.51Z"/><path class="cls-11" d="M172.67,103.51h-7.75c-4.27,0-7.74-3.93-7.74-8.78h0c0-4.85,3.47-8.79,7.74-8.79h7.75c4.28,0,7.75,3.94,7.75,8.79h0C180.42,99.58,177,103.51,172.67,103.51Z"/><circle class="cls-5" cx="300.84" cy="143.59" r="37.37"/><circle class="cls-6" cx="300.84" cy="143.59" r="30.75"/><path class="cls-13" d="M311.2,114.63l-32.35,50.45a30.71,30.71,0,0,0,4.21,3.59L316.21,117A30.47,30.47,0,0,0,311.2,114.63Zm8.38,4.58L286.5,170.8a30.68,30.68,0,0,0,13.56,3.53L328.45,130A30.79,30.79,0,0,0,319.58,119.21Zm-17.95-6.35-28.39,44.29a30.58,30.58,0,0,0,3.2,5.15l31.22-48.69A30.61,30.61,0,0,0,301.63,112.86Z"/><text class="cls-14" transform="translate(284.07 161.2)">£</text><text class="cls-15" transform="translate(263.14 95.75)">2UTORING</text><polygon class="cls-16" points="52.18 172.84 52.75 177.34 58.48 177.34 58.82 172.61 52.18 172.84"/><polygon class="cls-16" points="67.52 172.12 68.21 177.34 73.95 177.34 73.73 171.96 67.52 172.12"/><path class="cls-17" d="M88.1,186.4H66.41a3.1,3.1,0,0,1-.29-1.2,35.41,35.41,0,0,1,.74-6.61q0-.33.09-.6a6.28,6.28,0,0,0,.06-.76A1.11,1.11,0,0,1,68.34,176c2.2,2.16,4.69-1.07,6.14,0,0,0,.62.45,2.34,2s4.66,2.57,7.15,3.61c3.22,1.35,4.13,2.69,4.31,3.62A1.68,1.68,0,0,1,88.1,186.4Z"/><path class="cls-18" d="M88.1,186.4H66.41a3.1,3.1,0,0,1-.29-1.2H88.28A1.68,1.68,0,0,1,88.1,186.4Z"/><path class="cls-18" d="M68.62,186.4H68a4.75,4.75,0,0,0,1.16-3.47,6.09,6.09,0,0,0-2.28-4.34q0-.33.09-.6a6.64,6.64,0,0,1,2.71,4.91A5.28,5.28,0,0,1,68.62,186.4Z"/><path class="cls-19" d="M76.46,179.25a.36.36,0,0,1-.35-.28.36.36,0,0,1,.26-.43l1.36-.34a.36.36,0,0,1,.17.7l-1.36.33Z"/><path class="cls-19" d="M75.11,178.12a.36.36,0,0,1-.35-.27.37.37,0,0,1,.26-.44l1.36-.33a.34.34,0,0,1,.43.26.36.36,0,0,1-.26.43l-1.35.34Z"/><path class="cls-19" d="M77.81,180a.35.35,0,0,1-.34-.27.35.35,0,0,1,.26-.43l1.35-.34a.35.35,0,0,1,.43.26.36.36,0,0,1-.26.44L77.9,180Z"/><path class="cls-19" d="M79.17,180.79a.36.36,0,0,1-.35-.27.35.35,0,0,1,.26-.43l1.36-.34a.36.36,0,0,1,.43.26.35.35,0,0,1-.26.43l-1.36.34Z"/><path class="cls-19" d="M80.65,181.49a.35.35,0,0,1-.35-.27.35.35,0,0,1,.26-.43l1.35-.34a.36.36,0,0,1,.44.26.35.35,0,0,1-.26.43l-1.36.34Z"/><path class="cls-19" d="M82.25,182.09a.36.36,0,0,1-.09-.71l1.36-.33a.36.36,0,0,1,.17.69l-1.36.34Z"/><path class="cls-20" d="M43.27,95.54c0,.23.11.45.18.67v0q.13.43.3.84c1,2.38,8.48,2.73,15.87,1.9,5.74-.64,11.4-2,13.89-3.65,2.33-1.56-2.64-15.94-2.64-15.94l-28,5.88S42.2,91.25,43.27,95.54Z"/><path class="cls-20" d="M60.17,98.91l4.59,39.67c-1.06,6.67,1.79,34,1.79,34l8.26-.25,2.4-36.2c-.06-10.48-1.16-25-2.79-40.77,0-.25,0-.49-.07-.73-.08-.81-.17-1.62-.26-2.43,0-.22,0-.44-.07-.65l-2.7,1.24-.66.3L60.06,98Z"/><path class="cls-21" d="M67.87,171.44h0a.34.34,0,0,0,.3-.38c-2.94-23.87-1-33.69-1-33.78v-.12l-5-37.83a.33.33,0,0,0-.38-.29.35.35,0,0,0-.3.38l5,37.78c-.16.85-1.82,10.9,1,33.94A.34.34,0,0,0,67.87,171.44Z"/><path class="cls-21" d="M67.68,86.91a14,14,0,0,0,3,6.18,7.62,7.62,0,0,0,1.58,1.35,7,7,0,0,0,2.18.92c0-.25,0-.49-.07-.73l-.35-.1a5.93,5.93,0,0,1-1.39-.67,7.34,7.34,0,0,1-1.29-1.07,13.51,13.51,0,0,1-3-6,.35.35,0,0,0-.4-.27A.34.34,0,0,0,67.68,86.91Z"/><path class="cls-21" d="M62,97.48a.28.28,0,0,1-.27.29h0a.28.28,0,0,1-.3-.26c0-1-.11-2.1-.18-3.16,0-.19,0-.37,0-.56-.22-3.47-.51-6.87-.72-9.27q0-.3-.06-.57c0-.52-.09-1-.13-1.39l.57-.09c0,.4.08.87.13,1.4,0,.18,0,.37.05.56.22,2.39.5,5.76.73,9.21,0,.19,0,.38,0,.57C61.89,95.31,62,96.41,62,97.48Z"/><path class="cls-21" d="M62.83,93.82a7,7,0,0,1-1,.39l-.57.14a5,5,0,0,1-.54.07,2,2,0,0,1-1-.15,1.2,1.2,0,0,1-.65-.88c-.21-1.07-.64-5.48-.94-8.61,0-.19,0-.38,0-.56,0-.5-.09-1-.13-1.34l.57-.07c0,.39.08.85.13,1.36,0,.18,0,.36,0,.56.3,3.11.73,7.52.94,8.56a.59.59,0,0,0,.34.48,2,2,0,0,0,1.21,0c.2,0,.39-.1.57-.15a7.38,7.38,0,0,0,.78-.31.3.3,0,0,1,.39.12A.27.27,0,0,1,62.83,93.82Z"/><path class="cls-20" d="M42.87,89.89s.2,2.23.52,5.65l.06.66h0v0c0,.22,0,.45.07.68.8,8.62,2.17,22.93,3.07,29.81,0,0-.13,12.95.35,22.94.44,9.28,3.64,20.42,4.1,23.17h8.51l.08-1.22V94.42a82,82,0,0,0-7.94-3.23L51,91l-1.27-.4-.67-.19C46.55,89.69,44.19,89.34,42.87,89.89Z"/><path class="cls-21" d="M52,172.46H52a.33.33,0,0,0,.27-.4c0-.12-2.35-12.2-3.36-19s-.51-26-.5-26.21a.11.11,0,0,0,0,0c-.75-6.41-2.29-28.57-2.31-28.79a.35.35,0,0,0-.69,0c0,.23,1.56,22.34,2.32,28.81,0,.8-.49,19.53.51,26.3s3.34,18.95,3.37,19.07A.33.33,0,0,0,52,172.46Z"/><path class="cls-17" d="M60.88,185a.76.76,0,0,1,0,.15c0,.23,0,.44,0,.61,0,.39-.05.63-.05.63H47.88a6.64,6.64,0,0,1,0-1.24,6.45,6.45,0,0,1,2.31-4.78c2.44-1.89,1.5-1.5,2-2.36.06-.09.5-1.56.54-1.66.42-.89.81-1.31,3.13-1.31,3.07,0,3.34,1.49,3.66,2.27a15.54,15.54,0,0,1,.52,1.82c.07.33.15.68.23,1,.19.9.36,1.82.48,2.57A13.15,13.15,0,0,1,60.88,185Z"/><path class="cls-18" d="M60.88,185a.76.76,0,0,1,0,.15c0,.23,0,.44,0,.61A3.55,3.55,0,0,1,59.51,184c-.8-2.17.43-4.79.48-4.9h0c.07.33.15.68.23,1a5.85,5.85,0,0,0-.17,3.65A3,3,0,0,0,60.88,185Z"/><path class="cls-18" d="M60.87,185.16c0,.74-.07,1.24-.07,1.24H47.88a6.64,6.64,0,0,1,0-1.24Z"/><path class="cls-19" d="M56.26,179.07h-.09a6.56,6.56,0,0,0-3-.06.37.37,0,0,1-.19-.71,6.94,6.94,0,0,1,3.37.06.36.36,0,0,1-.09.72Z"/><path class="cls-19" d="M56.46,177.68h-.09a6.25,6.25,0,0,0-3-.06.37.37,0,0,1-.45-.26.36.36,0,0,1,.26-.45,7,7,0,0,1,3.38.06.37.37,0,0,1-.1.72Z"/><path class="cls-19" d="M55.71,180.24h-.09a6.39,6.39,0,0,0-3-.06.36.36,0,0,1-.45-.26.36.36,0,0,1,.25-.45,7,7,0,0,1,3.38.06.36.36,0,0,1,.27.44A.38.38,0,0,1,55.71,180.24Z"/><path class="cls-19" d="M55.06,181.57H55a6.48,6.48,0,0,0-3-.07.36.36,0,0,1-.45-.25.37.37,0,0,1,.25-.46,7.3,7.3,0,0,1,3.38.06.37.37,0,0,1,.27.45A.38.38,0,0,1,55.06,181.57Z"/><path class="cls-21" d="M43.45,96.2h0v0c0,.22,0,.45.07.68a5.52,5.52,0,0,0,2.85-.25,9.11,9.11,0,0,0,4.15-3.52,15.92,15.92,0,0,0,1.17-2,15,15,0,0,0,.82-1.84.34.34,0,0,0-.21-.44.33.33,0,0,0-.43.21A18.62,18.62,0,0,1,51,91a17,17,0,0,1-1.09,1.8A8.47,8.47,0,0,1,46.14,96,4.92,4.92,0,0,1,43.45,96.2Z"/><path class="cls-22" d="M74.55,82.91c-.32.29-.66.58-1,.86l-.26.2a20.44,20.44,0,0,1-1.88,1.25l-.29.16A30,30,0,0,1,62,88.61c-.79.15-1.6.28-2.42.38s-1.87.19-2.82.23c-.7,0-1.41,0-2.12,0h-.43A30.45,30.45,0,0,1,42,86.39l-.15-.07c0-.08,0-.16-.08-.24-.78-2.35-1.6-7.91-2.18-12.6a3.11,3.11,0,0,1,0-.32c-.26-2.07-.47-4-.61-5.28,0-.13,0-.25,0-.36s-.05-.42-.06-.6q-.12-1.1-.18-2.19a94.46,94.46,0,0,1,0-10.78l0-.61c0-.06,0-.12,0-.18s0-.22,0-.33c.05-1,.11-2.09.18-3.16,0-.11,0-.22,0-.33h0c.11-1.81.24-3.66.36-5.58.33-5.21,1.76-8.85,4.21-10.48l.33-.21h0a5.59,5.59,0,0,1,2-.68A16,16,0,0,0,49,31.53c.37-.14.71-.28,1-.43l.36-.18a11.7,11.7,0,0,0,2-1.2H61A6.67,6.67,0,0,0,63.64,32l.34.15.51.2c.4.15.81.28,1.22.4l.35.1c2.42.7,4.7,1.17,5.27,4,.28,1.38-.24,3.63-.67,7.26,0,.14,0,.29,0,.43-.07.66-.14,1.36-.2,2.11l0,.38c-.14,1.89-.22,4-.17,6.54,0,.71,0,1.44.07,2.21s.08,1.44.14,2.21.11,1.44.19,2.19.14,1.33.22,2c0,.43.11.87.17,1.33h0c0,.12,0,.24,0,.37s0,.32.07.48c.09.64.21,1.42.34,2.29a3.06,3.06,0,0,1,.05.32c.17,1,.35,2.19.56,3.4,0,.11,0,.22.05.33.4,2.33.85,4.86,1.32,7.2q0,.22.09.42C73.87,80,74.22,81.6,74.55,82.91Z"/><path class="cls-23" d="M44.85,66.43a4.25,4.25,0,0,1-3.66,1.87A6.52,6.52,0,0,1,39,67.88c0-.13,0-.25,0-.36,2.67,1,4.72.18,5.66-1.26a2.87,2.87,0,0,0-.64-4c-1.72-1.29-1.27-2.35-.78-3.47a3.49,3.49,0,0,0-.22-4,3.89,3.89,0,0,0-2.53-1.77,4.23,4.23,0,0,0-1.71.07c0-.11,0-.22,0-.33a4.43,4.43,0,0,1,1.75-.06,4.26,4.26,0,0,1,2.74,1.91,3.83,3.83,0,0,1,.24,4.26C43,60,42.61,60.88,44.13,62A3.22,3.22,0,0,1,44.85,66.43Z"/><path class="cls-20" d="M53.9,16.57l-1.3-5.4A2.15,2.15,0,0,1,53.18,8a4.22,4.22,0,0,1,4.2-.25S57.87,5.41,59.62,5s2.63,1.84,2.63,1.84,1-2.13,2.94-1.79,1.44,2.4,1.44,2.4S68.86,6,70.29,7.24,69.58,11,69.58,11s2,.55,1.74,2-2.5,1.77-2.5,1.77l-1.4,5.27Z"/><path class="cls-24" d="M64.3,20.69s1.19-2.18,3-1.29.65,7.21-2.91,6.31Z"/><path class="cls-16" d="M52.54,30s-.64.68,2.61,2.49a7.64,7.64,0,0,0,5.31.62,7,7,0,0,0,.82-.29,9.67,9.67,0,0,1,1.18-4.75l0-.09-8-6.7Z"/><path class="cls-20" d="M55,25.13s.73,6.52,5.49,8a7,7,0,0,0,.82-.29,9.67,9.67,0,0,1,1.18-4.75Z"/><path class="cls-16" d="M57.73,29.11c3.56,1.6,6.92.68,8-2.44.26-.75.56-1.86.85-3v0l.18-.75.12-.54c.49-2.08.86-4,.86-4,.66-5.29-4-8.4-8.55-7.39s-4.43,7.66-5.13,10.73A6.29,6.29,0,0,0,57.73,29.11Z"/><path class="cls-19" d="M63.87,23.78a21.42,21.42,0,0,1-3.78-1.3s-.77,2.48,1.4,2.88C63.24,25.67,63.87,23.78,63.87,23.78Z"/><path class="cls-20" d="M61.21,19.18c-.1.36-.34.6-.55.54s-.3-.39-.2-.74.34-.6.55-.54S61.31,18.83,61.21,19.18Z"/><path class="cls-20" d="M65.3,20.2c-.1.36-.34.6-.55.55s-.3-.39-.21-.75.35-.6.55-.54S65.39,19.85,65.3,20.2Z"/><path class="cls-24" d="M61.66,26a.22.22,0,0,1,.05.08.17.17,0,0,1-.11.23,1.46,1.46,0,0,1-1.52-.45.18.18,0,0,1,.26-.26,1.14,1.14,0,0,0,1.14.37A.17.17,0,0,1,61.66,26Z"/><path class="cls-20" d="M60.15,17.84c-1.11-.06-1.1-1.26,0-1.59a2.84,2.84,0,0,1,1.52-.12c1.39.37,1.16,1.35.37,1.56A7.57,7.57,0,0,1,60.15,17.84Z"/><path class="cls-20" d="M66.36,19c1.06.31,1.46-.82.52-1.5a2.81,2.81,0,0,0-1.4-.62c-1.42-.12-1.54.89-.86,1.35A7.36,7.36,0,0,0,66.36,19Z"/><path class="cls-24" d="M66.16,23.6l.44,0v0l.18-.75.12-.54a3.65,3.65,0,0,0-.52-.11c-1-.16-1.78,0-1.84.41S65.21,23.44,66.16,23.6Z"/><path class="cls-20" d="M62.94,23.15a.14.14,0,0,0,.09,0,3.1,3.1,0,0,0,1.26-.7.18.18,0,0,0,0-.16l-.77-2.13v0a3.24,3.24,0,0,1,.06-1.76.17.17,0,1,0-.33-.07,3.43,3.43,0,0,0,0,2l.73,2a4.06,4.06,0,0,1-1,.52.18.18,0,0,0-.1.23A.14.14,0,0,0,62.94,23.15Z"/><path class="cls-24" d="M56.54,20.52c-.06.39.66.83,1.62,1s1.78,0,1.84-.41-.66-.82-1.61-1S56.61,20.14,56.54,20.52Z"/><path class="cls-20" d="M55,16.27a1.57,1.57,0,0,0,0,.2s.78.51.79,2.27l1.13.22a8.51,8.51,0,0,0,.86-3.64,1.92,1.92,0,0,1,.11-.54c.71-2,4.73-3,7.11-1.95a5,5,0,0,1,2.83,3.84,8.82,8.82,0,0,1-.11,2,6.43,6.43,0,0,0-.29-5.41c-1.86-3.59-7.16-4.7-10-2.19A6.63,6.63,0,0,0,55,16.27Z"/><path class="cls-24" d="M55,16.27a1.57,1.57,0,0,0,0,.2s.78.51.79,2.27l1.13.22a8.51,8.51,0,0,0,.86-3.64,1.92,1.92,0,0,1,.11-.54Z"/><path class="cls-20" d="M59.85,13s2.06-.28,2.88.3,2,1.37,3.19.89,1.79,1.92,1.79,1.92-.34-4.07-3.65-4S60.84,11.77,59.85,13Z"/><path class="cls-16" d="M55.82,17.65A2.3,2.3,0,0,0,53.2,16.1c-2,.43-2.4,6.83,1.27,6.84Z"/><path class="cls-19" d="M53.29,21.71a.45.45,0,1,0,.44-.44A.44.44,0,0,0,53.29,21.71Z"/><path class="cls-20" d="M54.29,20.59h0a.18.18,0,0,0,.16-.19,3.1,3.1,0,0,0-1.69-2.62.16.16,0,0,0-.22.09.16.16,0,0,0,.09.22,2.83,2.83,0,0,1,1.48,2.33A.15.15,0,0,0,54.29,20.59Z"/><path class="cls-20" d="M52.92,19.68a.16.16,0,0,0,.12,0s.41-.28.87-.55a.16.16,0,0,0,.06-.23.18.18,0,0,0-.23-.07,10.41,10.41,0,0,0-.89.56.18.18,0,0,0-.05.24A.15.15,0,0,0,52.92,19.68Z"/><path class="cls-16" d="M73.15,54.09a3.51,3.51,0,0,0-4.28-2.53c-1.3.33-2.51.7-3.71,1.09s-2.36.78-3.52,1.18l-2.76,1-.93.32c-1.06.37-2.12.74-3.17,1.09-2.27.77-4.52,1.5-6.74,2.11-1.11.31-2.2.58-3.27.8a21.07,21.07,0,0,1-3,.43c-.22,0-.43,0-.63,0v0l0-.38c.06-.5.13-1,.23-1.52.19-1,.43-2.08.72-3.14s.63-2.12,1-3.19.77-2.13,1.19-3.19c.21-.53.43-1.05.66-1.58s.45-1.05.69-1.58.47-1,.71-1.56l.37-.76.18-.38.17-.33.07-.14a4.36,4.36,0,0,0-7.71-4.05l-.26.47-.24.44c-.15.29-.31.57-.45.86-.3.58-.59,1.15-.86,1.73s-.55,1.17-.81,1.76-.51,1.18-.76,1.78c-.49,1.19-1,2.4-1.37,3.64s-.81,2.5-1.14,3.79a38.4,38.4,0,0,0-.84,4c-.11.69-.2,1.38-.26,2.09l-.05.54,0,.54,0,.54v.6a8.59,8.59,0,0,0,.19,1.87,7.35,7.35,0,0,0,.85,2.13A6.88,6.88,0,0,0,35,66.33a8.47,8.47,0,0,0,.93.63,9.33,9.33,0,0,0,.92.43,9.17,9.17,0,0,0,1.66.49,11.36,11.36,0,0,0,1.45.17,15.19,15.19,0,0,0,2.46,0c.76-.07,1.48-.18,2.17-.31s1.36-.28,2-.43c1.31-.33,2.56-.69,3.78-1.08,2-.66,4-1.38,6-2.13l.74-.28.4-.16c2.3-.91,4.56-1.84,6.8-2.76,1.11-.46,2.22-.91,3.32-1.34s2.19-.85,3.22-1.2h0A3.51,3.51,0,0,0,73.15,54.09Z"/><path class="cls-16" d="M79.63,57.28c-.35-2.34-.93-5-1.55-7.52-1.23-5-2.6-9.43-2.69-9.71a4.36,4.36,0,0,0-5.45-2.86,4.22,4.22,0,0,0-1.09.52c0,.71.1,1.56.24,2.57a58.23,58.23,0,0,1,.09,9.83c.11.42.22.86.33,1.3.41,1.66.81,3.38,1.12,5-.58,0-1.37,0-2.4-.07-2.35-.16-5.15-.53-8.12-.93C54,54.58,47.68,53.73,43,54.47a4.36,4.36,0,0,0,.68,8.66,3.82,3.82,0,0,0,.68-.05c3.42-.54,9.35.26,14.59,1a90.62,90.62,0,0,0,11.16,1.09c3.42,0,6.06-.61,7.83-2.41A6.27,6.27,0,0,0,79.63,57.28Z"/><path class="cls-25" d="M43.37,51.91a55.66,55.66,0,0,1,2.09-6.32c.74-1.85,1.78-3.54,2.65-5.32a.22.22,0,0,1,.09-.08,25.17,25.17,0,0,0,1.16-3.36,6.78,6.78,0,0,0-3.84-2.9s-4.38-.53-6.87,2.75c-.25.33-.51.71-.77,1.12l-.2.31A79.58,79.58,0,0,0,33.28,47c-.05.12-.1.24-.15.34l-.24.57s6,3.69,10.7,4.68Z"/><path class="cls-23" d="M43.78,50.33a.19.19,0,0,0,.17-.12l3.56-9a.18.18,0,0,0-.1-.24.18.18,0,0,0-.23.11l-3.57,9a.18.18,0,0,0,.11.23Z"/><path class="cls-23" d="M46.37,43.78a.17.17,0,0,0,.1,0l1.82-1.23a.17.17,0,0,0,.05-.25.19.19,0,0,0-.25-.05l-1.82,1.24a.18.18,0,0,0-.05.24A.21.21,0,0,0,46.37,43.78Z"/><path class="cls-16" d="M43.78,50.15l-.54,2.32-3-.93c-.57,1.16-1.29,2.27-1.84,3.35s-1.21,2.4-1.8,3.61A36.85,36.85,0,0,0,43.22,61c2.19.36,3.19-5.71,3.19-5.71S45.43,50.9,43.78,50.15Z"/><path class="cls-24" d="M43.18,52.44l-.34-.1c-.65,2.84-1.4,6.09-2,8.77a.21.21,0,0,0,.15.26.21.21,0,0,0,.25-.14v0c.65-2.68,1.39-5.9,2-8.75Z"/><path class="cls-25" d="M68.84,37.71c0,.71.11,1.56.25,2.57a37.41,37.41,0,0,1,.26,4.51v.38c0,1.94-.1,3.77-.17,4.94-.05.78-.09,1.26-.09,1.26l.42,0h.82a15,15,0,0,0,1.75-.13l.35,0L73.6,51,74,51q.87-.2,1.68-.42l.35-.1c.75-.22,1.45-.45,2.06-.67h0l.33-.13c1.25-.46,2.06-.83,2.06-.83S79,44.44,77.34,40.72l-.15-.35a14.06,14.06,0,0,0-1.61-2.57c-1.52-2.27-3.9-3.69-5.18-3.81L70,34a5.09,5.09,0,0,0-.66,0S68.7,34.4,68.84,37.71Z"/><path class="cls-23" d="M70.49,51.41a.21.21,0,0,0,.1-.18l-.79-9.65a.19.19,0,0,0-.19-.17.19.19,0,0,0-.17.2l.79,9.65a.17.17,0,0,0,.19.16Z"/><path class="cls-24" d="M57.09,63.77l-.74.28C49.73,62.71,41.07,61.5,41,61.48a.22.22,0,0,1-.18-.24.23.23,0,0,1,.24-.18C41.14,61.08,50.39,62.37,57.09,63.77Z"/><path class="cls-24" d="M40.89,61.42a.18.18,0,0,0,.1,0,.2.2,0,0,0,.19-.23,6.6,6.6,0,0,0-.59-1.82.22.22,0,0,0-.29-.1.21.21,0,0,0-.09.28,6.89,6.89,0,0,1,.55,1.69A.21.21,0,0,0,40.89,61.42Z"/><path class="cls-24" d="M72.37,56.43a.21.21,0,0,1-.21.19h0C67.4,56.17,60.9,55.45,58,55.11l.93-.32c3.23.36,9,1,13.3,1.41A.21.21,0,0,1,72.37,56.43Z"/><path class="cls-24" d="M70.37,56.18a.15.15,0,0,1-.09,0,.21.21,0,0,1-.09-.29,6.44,6.44,0,0,1,1.22-1.47.21.21,0,1,1,.28.31,6.73,6.73,0,0,0-1.13,1.36A.21.21,0,0,1,70.37,56.18Z"/></g></g></g></svg>