<svg xmlns="http://www.w3.org/2000/svg" xmlns:xlink="http://www.w3.org/1999/xlink" viewBox="0 0 310.48 253.73"><defs><style>.cls-1{fill:none;}.cls-2{isolation:isolate;}.cls-3{opacity:0.3;}.cls-4{fill:#ffd371;}.cls-11,.cls-12,.cls-5{fill:#fff;}.cls-6{fill:#e7e7e7;}.cls-7{fill:#f0f0f0;}.cls-8{fill:#eaeaea;mix-blend-mode:multiply;}.cls-13,.cls-9{fill:#1b2e35;}.cls-11,.cls-19,.cls-9{opacity:0.2;}.cls-10{fill:#fa5;}.cls-12,.cls-14{opacity:0.1;}.cls-15{fill:#c2c2c2;}.cls-16{fill:#cc5b54;}.cls-17{fill:#cb5b54;}.cls-18{fill:#b82425;}.cls-20{clip-path:url(#clip-path);}</style><clipPath id="clip-path"><path class="cls-1" d="M209.77,128.64s-6.28,33.22-1.53,47.82c21.29-3.48,43.59,10.31,59.79-2.15-.6-17.67-3.88-39.51-6.88-44.94C261.15,129.37,233.46,126.7,209.77,128.64Z"/></clipPath></defs><g class="cls-2"><g id="Layer_2" data-name="Layer 2"><g id="Option_1" data-name="Option 1"><g class="cls-3"><path class="cls-4" d="M284.79,185.32c54.1-46.7,5.95-72.57,5.95-72.57A56,56,0,0,1,269.31,88.5c-9.21-20.16,6.2-46-4.89-65.23C256.26,9.11,236.75,4.9,219.94,7.09s-32.67,9.19-49.43,11.74c-20.07,3.05-40.39-.42-60.5-2.56s-41.33-2.78-59.88,5.4S16.79,49.27,20.7,68.37c1.76,8.62,7.07,16.82,5.61,25.54-2.26,13.48-19,20.36-24.54,33-5.39,12.34,2.54,25.53,10.18,36.5,31,44.51,84.59,60.34,127.9,65C139.85,228.35,224.27,237.56,284.79,185.32Z"/></g><path class="cls-5" d="M103.59,88.52a2.77,2.77,0,0,1,2.79-3,3.31,3.31,0,0,1,3.23,3l-.31,0,.31,0a2.75,2.75,0,0,1-2.78,3A3.32,3.32,0,0,1,103.59,88.52Zm1.18-1.72a2.15,2.15,0,0,0-.55,1.66,2.67,2.67,0,0,0,2.61,2.41A2.12,2.12,0,0,0,109,88.52a2.67,2.67,0,0,0-2.6-2.41A2.14,2.14,0,0,0,104.77,86.8Z"/><path class="cls-5" d="M113.14,88.52a2.77,2.77,0,0,1,2.78-3,3.32,3.32,0,0,1,3.24,3l-.31,0,.31,0a2.79,2.79,0,0,1-.71,2.15,2.75,2.75,0,0,1-2.07.89A3.32,3.32,0,0,1,113.14,88.52Zm1.18-1.72a2.15,2.15,0,0,0-.55,1.66,2.67,2.67,0,0,0,2.61,2.41,2.13,2.13,0,0,0,1.6-.68,2.18,2.18,0,0,0,.55-1.67,2.67,2.67,0,0,0-2.61-2.41A2.13,2.13,0,0,0,114.32,86.8Z"/><path class="cls-5" d="M122.69,88.52a2.77,2.77,0,0,1,2.78-3,3.32,3.32,0,0,1,3.24,3l-.32,0,.32,0a2.79,2.79,0,0,1-.71,2.15,2.77,2.77,0,0,1-2.07.89A3.32,3.32,0,0,1,122.69,88.52Zm1.18-1.72a2.15,2.15,0,0,0-.55,1.66,2.67,2.67,0,0,0,2.61,2.41,2.14,2.14,0,0,0,1.6-.68,2.18,2.18,0,0,0,.55-1.67,2.67,2.67,0,0,0-2.61-2.41A2.12,2.12,0,0,0,123.87,86.8Z"/><path class="cls-6" d="M112.55,100.45a2.75,2.75,0,0,1,2.78-3,3.32,3.32,0,0,1,3.24,3l-.32,0,.32,0a2.76,2.76,0,0,1-.72,2.15,2.74,2.74,0,0,1-2.07.89A3.31,3.31,0,0,1,112.55,100.45Zm1.18-1.72a2.11,2.11,0,0,0-.55,1.66,2.67,2.67,0,0,0,2.6,2.41,2.12,2.12,0,0,0,2.16-2.35A2.67,2.67,0,0,0,115.33,98,2.1,2.1,0,0,0,113.73,98.73Z"/><path class="cls-6" d="M122.1,100.45a2.75,2.75,0,0,1,2.78-3,3.32,3.32,0,0,1,3.24,3l-.32,0,.32,0a2.8,2.8,0,0,1-.72,2.15,2.74,2.74,0,0,1-2.07.89A3.31,3.31,0,0,1,122.1,100.45Zm1.18-1.72a2.11,2.11,0,0,0-.55,1.66,2.67,2.67,0,0,0,2.6,2.41,2.12,2.12,0,0,0,2.16-2.35A2.67,2.67,0,0,0,124.88,98,2.1,2.1,0,0,0,123.28,98.73Z"/><path class="cls-6" d="M131.65,100.45a2.75,2.75,0,0,1,2.78-3,3.32,3.32,0,0,1,3.24,3l-.32,0,.32,0a2.8,2.8,0,0,1-.72,2.15,2.75,2.75,0,0,1-2.07.89A3.31,3.31,0,0,1,131.65,100.45Zm1.18-1.72a2.11,2.11,0,0,0-.55,1.66,2.67,2.67,0,0,0,2.6,2.41,2.17,2.17,0,0,0,1.61-.68,2.22,2.22,0,0,0,.55-1.67A2.68,2.68,0,0,0,134.43,98,2.1,2.1,0,0,0,132.83,98.73Z"/><path class="cls-7" d="M121.5,112.38a2.77,2.77,0,0,1,2.79-3,3.31,3.31,0,0,1,3.23,3l-.31,0,.31,0a2.75,2.75,0,0,1-2.78,3A3.32,3.32,0,0,1,121.5,112.38Zm1.18-1.73a2.22,2.22,0,0,0-.55,1.67,2.67,2.67,0,0,0,2.61,2.41,2.12,2.12,0,0,0,2.15-2.35,2.67,2.67,0,0,0-2.6-2.41A2.17,2.17,0,0,0,122.68,110.65Z"/><path class="cls-7" d="M131.05,112.38a2.81,2.81,0,0,1,.72-2.15,2.77,2.77,0,0,1,2.07-.89,3.31,3.31,0,0,1,3.23,3l-.31,0,.31,0a2.75,2.75,0,0,1-2.78,3A3.32,3.32,0,0,1,131.05,112.38Zm1.18-1.73a2.18,2.18,0,0,0-.55,1.67,2.67,2.67,0,0,0,2.61,2.41,2.12,2.12,0,0,0,2.15-2.35,2.67,2.67,0,0,0-2.6-2.41A2.17,2.17,0,0,0,132.23,110.65Z"/><path class="cls-7" d="M140.6,112.38a2.77,2.77,0,0,1,2.79-3,3.31,3.31,0,0,1,3.23,3l-.31,0,.31,0a2.75,2.75,0,0,1-2.78,3A3.32,3.32,0,0,1,140.6,112.38Zm1.18-1.73a2.18,2.18,0,0,0-.55,1.67,2.67,2.67,0,0,0,2.61,2.41,2.12,2.12,0,0,0,2.15-2.35,2.67,2.67,0,0,0-2.6-2.41A2.17,2.17,0,0,0,141.78,110.65Z"/><ellipse id="_Path_" data-name="&lt;Path&gt;" class="cls-8" cx="236.55" cy="245.42" rx="54.6" ry="8.31"/><path class="cls-7" d="M44.45,174.76H295.07a2,2,0,0,0,2-2.16L287.52,5.9a2.32,2.32,0,0,0-2.29-2.17H34.62a2,2,0,0,0-2,2.17l9.59,166.7A2.3,2.3,0,0,0,44.45,174.76Z"/><path class="cls-9" d="M41.76,172.62,32.18,5.92a2.42,2.42,0,0,1,2.44-2.59H285.23a2.72,2.72,0,0,1,2.69,2.54l9.59,166.71a2.43,2.43,0,0,1-2.44,2.59H44.45A2.74,2.74,0,0,1,41.76,172.62Z"/><path class="cls-5" d="M47.46,171.44H298.08a2,2,0,0,0,2-2.17L290.53,2.57A2.32,2.32,0,0,0,288.24.4H37.63a2,2,0,0,0-2,2.17l9.59,166.7A2.31,2.31,0,0,0,47.46,171.44Z"/><path class="cls-5" d="M44.77,169.29,35.19,2.59A2.44,2.44,0,0,1,35.84.76,2.45,2.45,0,0,1,37.63,0H288.24a2.72,2.72,0,0,1,2.69,2.54l9.59,166.71a2.43,2.43,0,0,1-2.44,2.59H47.46A2.73,2.73,0,0,1,44.77,169.29Z"/><path class="cls-10" d="M37.63.4H288.24a2.32,2.32,0,0,1,2.29,2.17l.9,15.68H36.49l-.9-15.68A2,2,0,0,1,37.63.4Z"/><polygon class="cls-5" points="42.66 10.03 53.46 10.03 53.38 8.63 42.58 8.63 42.66 10.03"/><polygon class="cls-5" points="42.87 13.59 53.67 13.59 53.59 12.18 42.79 12.18 42.87 13.59"/><polygon class="cls-5" points="42.46 6.47 53.26 6.47 53.18 5.07 42.38 5.07 42.46 6.47"/><path class="cls-11" d="M64,14.24h97.65a2.09,2.09,0,0,0,2.1-2.24l-.3-5.35a2.41,2.41,0,0,0-2.37-2.23H63.4a2.08,2.08,0,0,0-2.1,2.23L61.6,12A2.41,2.41,0,0,0,64,14.24Z"/><path class="cls-12" d="M222.58,171.44h75.35a2.16,2.16,0,0,0,2.18-2.31L299.36,156H221.69Z"/><path class="cls-13" d="M228.76,87.11h41.55a.81.81,0,0,0,.81-.87L271,84.15a.92.92,0,0,0-.91-.86H228.54a.8.8,0,0,0-.81.86l.12,2.09A.92.92,0,0,0,228.76,87.11Z"/><path class="cls-13" d="M230,101.45h30.16a.8.8,0,0,0,.81-.86l-.12-2.1a.91.91,0,0,0-.91-.86H229.75a.8.8,0,0,0-.82.86l.12,2.1A.93.93,0,0,0,230,101.45Z"/><path class="cls-13" d="M230.5,115.79H255a.81.81,0,0,0,.82-.86l-.12-2.1a.93.93,0,0,0-.92-.86H230.28a.8.8,0,0,0-.81.86l.12,2.1A.93.93,0,0,0,230.5,115.79Z"/><path class="cls-13" d="M231.72,130.13h36.06a.8.8,0,0,0,.81-.86l-.12-2.1a.91.91,0,0,0-.91-.86H231.5a.8.8,0,0,0-.81.86l.12,2.1A.93.93,0,0,0,231.72,130.13Z"/><path class="cls-13" d="M234.43,150.41H253.9a.85.85,0,0,0,.86-.91l-.14-2.46a1,1,0,0,0-1-.91H234.19a.86.86,0,0,0-.87.91l.15,2.46A1,1,0,0,0,234.43,150.41Z"/><g class="cls-14"><polygon class="cls-5" points="214.82 36.47 292.48 36.47 291.43 18.25 213.77 18.25 214.82 36.47"/><path class="cls-13" d="M214.62,36.48l-1.05-18.21a.2.2,0,0,1,.06-.15.19.19,0,0,1,.14-.07h77.66a.2.2,0,0,1,.2.19l1.05,18.21a.17.17,0,0,1-.05.15.21.21,0,0,1-.15.07H214.82A.21.21,0,0,1,214.62,36.48Zm76.62-18H214l1,17.8h77.26Z"/><path class="cls-13" d="M215.67,54.69l-1-18.21a.25.25,0,0,1,0-.15.21.21,0,0,1,.15-.07h77.66a.2.2,0,0,1,.2.19l1.05,18.21a.2.2,0,0,1-.06.15.19.19,0,0,1-.14.07H215.87A.2.2,0,0,1,215.67,54.69Zm76.62-18H215l1,17.8h77.26Z"/><path class="cls-13" d="M216.71,72.9l-1-18.21a.17.17,0,0,1,.05-.15.21.21,0,0,1,.15-.07h77.66a.21.21,0,0,1,.2.19l1,18.21a.2.2,0,0,1-.06.15.21.21,0,0,1-.14.07H216.91A.21.21,0,0,1,216.71,72.9Zm76.63-18H216.08l1,17.8h77.26Z"/><polygon class="cls-5" points="221.69 155.99 299.36 155.99 298.47 140.55 220.81 140.55 221.69 155.99"/><path class="cls-13" d="M221.49,156l-.88-15.44a.17.17,0,0,1,0-.15.2.2,0,0,1,.15-.06h77.66a.21.21,0,0,1,.2.19l.89,15.44a.2.2,0,0,1-.06.15.2.2,0,0,1-.14.06H221.69A.21.21,0,0,1,221.49,156Zm76.79-15.25H221l.86,15h77.26Z"/><path class="cls-13" d="M220.61,140.56l-3.9-67.66a.2.2,0,0,1,.06-.15.21.21,0,0,1,.14-.07h77.67a.21.21,0,0,1,.2.19l3.89,67.67a.22.22,0,0,1-.06.15.18.18,0,0,1-.14.06H220.81A.19.19,0,0,1,220.61,140.56Zm73.78-67.47H217.13L221,140.35h77.25Z"/><line class="cls-5" x1="214.3" y1="27.36" x2="37.01" y2="27.36"/><path class="cls-13" d="M37,27.56H214.3a.2.2,0,1,0,0-.4H37a.2.2,0,1,0,0,.4Z"/></g><path class="cls-15" d="M81.43,121.44a17.25,17.25,0,0,0,2.64-1l1.23-.62a2.76,2.76,0,0,0,.89-.58l.56-.54a31.42,31.42,0,0,0,3.53-4.44A88.11,88.11,0,0,0,96,104.1c1.75-3.58,3.43-7.32,5.15-11.1.86-1.89,1.74-3.79,2.66-5.67a44.67,44.67,0,0,1,3-5.37,11.31,11.31,0,0,1,.85-1.08,3.4,3.4,0,0,1,.55-.51s.06,0,.08,0,0,0,.08.1a.78.78,0,0,1,.12.19,2,2,0,0,1,.14.26,13.87,13.87,0,0,1,.9,2.73l.75,3.18,1.52,6.39.76,3.2c.26,1,.48,2.15.89,3.33a7.26,7.26,0,0,0,2.25,3.45,4.67,4.67,0,0,0,2.23.94,5.51,5.51,0,0,0,2.25-.18,12.94,12.94,0,0,0,3.29-1.63l2.72-1.76c3.6-2.37,7.06-4.82,10.37-7.31s6.44-5,9.4-7.55L150.2,82a12.72,12.72,0,0,1,4.19-2.63,15.85,15.85,0,0,1,4.77-.57c1.67,0,3.33,0,4.9-.08,3.17-.12,6.11-.32,8.78-.56,5.35-.5,9.63-1.15,12.57-1.67s4.54-.93,4.52-1.09c-.05-.37-6.62.53-17.31,1.08-2.67.12-5.6.21-8.74.21-1.58,0-3.19,0-4.89-.07a16.9,16.9,0,0,0-5.52.6,15.5,15.5,0,0,0-5,3L144,83.89c-3,2.44-6.16,4.89-9.49,7.29s-6.8,4.78-10.4,7.06l-2.72,1.7A7.47,7.47,0,0,1,119,101a1.61,1.61,0,0,1-1.59-.49,5.59,5.59,0,0,1-1.1-2.23c-.27-.93-.49-2-.74-3.1L114.84,92c-.49-2.15-1-4.3-1.46-6.44l-.75-3.26a13.12,13.12,0,0,0-1.36-3.55,5.23,5.23,0,0,0-.93-1.1,3.25,3.25,0,0,0-1.37-.7,2.94,2.94,0,0,0-1.53,0,3.27,3.27,0,0,0-.73.29,4.55,4.55,0,0,0-.62.38,8.64,8.64,0,0,0-1.49,1.46c-.39.49-.74,1-1.06,1.46a57.65,57.65,0,0,0-3.23,5.84c-1,2-1.85,3.88-2.73,5.79-1.76,3.81-3.45,7.53-5.2,11A79.1,79.1,0,0,1,86.81,113c-.51.71-1,1.41-1.56,2-.27.32-.54.63-.81.92s-.28.3-.42.43l-.23.22-.93.47a8.18,8.18,0,0,1-1.06.47,5.83,5.83,0,0,1-1,.37,4.68,4.68,0,0,1-1,.23,2.47,2.47,0,0,1-.84.05,1.3,1.3,0,0,1-.35,0,.9.9,0,0,0-.28-.08,1.51,1.51,0,0,1-.79-.76,7.64,7.64,0,0,1-.66-3.48,41.65,41.65,0,0,1,.88-7.61c.94-4.74,2-8.69,2.82-11.85,1.65-6.32,2.19-9.56,1.71-9.59s-1.87,3.07-4.22,9.39a100.6,100.6,0,0,0-3.67,12.13,34.69,34.69,0,0,0-1,8.47,13.3,13.3,0,0,0,.35,2.56,10,10,0,0,0,.49,1.39,5.73,5.73,0,0,0,.93,1.39,5.54,5.54,0,0,0,.65.63c.26.17.52.34.79.49a3.91,3.91,0,0,0,.86.33,3.39,3.39,0,0,0,.86.18,6.35,6.35,0,0,0,1.63,0A6.81,6.81,0,0,0,81.43,121.44Z"/><path class="cls-16" d="M253.68,88.19l.9,1.16,1,1.29c.65.88,1.3,1.76,1.91,2.66,1.24,1.78,2.39,3.61,3.41,5.42.51.91,1,1.82,1.39,2.72a25.4,25.4,0,0,1,1.12,2.64,17.16,17.16,0,0,1,1.05,4.71l.53-2.22c-.44,1.32-.89,2.69-1.46,4.09s-1.14,2.82-1.82,4.23-1.32,2.88-2,4.34-1.44,3-2.06,4.37l-.13.3a3.9,3.9,0,0,0,5.84,4.74,43.39,43.39,0,0,0,4.23-3.49,51.69,51.69,0,0,0,7.21-8.24,42.2,42.2,0,0,0,3-5,4.14,4.14,0,0,0,.46-1.54l.07-.67a27.53,27.53,0,0,0-.82-9.79,41.74,41.74,0,0,0-3-8.2,57.64,57.64,0,0,0-4.12-7.17c-.77-1.13-1.54-2.24-2.38-3.31-.41-.54-.83-1.08-1.27-1.6l-.68-.8-.77-.87a7.68,7.68,0,0,0-11.82,9.78Z"/><path class="cls-4" d="M256.77,70.14c6.82,2.09,13.69,13.13,13.69,13.13-.12,4.15-6.21,13.82-10.78,16.07a23.05,23.05,0,0,1-7.45-10.16C249.76,82.14,253.37,71.34,256.77,70.14Z"/><path class="cls-17" d="M259.12,123.05l4.05,1.81c3.31,3.29-1.65,6.81-1.65,6.81l-1.7,2.65a2.36,2.36,0,0,1-3,.71L254,133.78a2.45,2.45,0,0,1-1.48-3.08l1.09-2.53a4.79,4.79,0,0,1,1.43-1.88Z"/><path class="cls-17" d="M232.37,70.46a6.16,6.16,0,0,1,2.95-2.8,5.71,5.71,0,0,0,.1-3.85l14.42-4.59c-1.17,4.77-2.08,8.54-.31,10.85-2.83,1.73-8,4.84-13.69,4.68S231.44,72.46,232.37,70.46Z"/><path class="cls-13" d="M233.76,50.18c-.11.55-.48,1-.85.87s-.57-.57-.46-1.12.48-1,.84-.88S233.86,49.63,233.76,50.18Z"/><path class="cls-18" d="M233.36,51l-.83,4.65a5.11,5.11,0,0,1-1.64-.23.62.62,0,0,1-.15-1.09A10.85,10.85,0,0,0,233.36,51Z"/><path class="cls-13" d="M232.79,46.82A.31.31,0,0,0,233,47a2.58,2.58,0,0,1,2,1.35.32.32,0,0,0,.44.16.33.33,0,0,0,.17-.43,3.25,3.25,0,0,0-2.46-1.73.33.33,0,0,0-.38.27A.31.31,0,0,0,232.79,46.82Z"/><path class="cls-17" d="M252.65,51.92c-1.72,6.21-3,10.39-7.51,12.39-8.91,4-12.89-.24-13.2-6.8-.28-5.89,2.58-15,9.73-16.38S254.37,45.72,252.65,51.92Z"/><polygon class="cls-17" points="253.24 229.23 263.25 229.33 263.69 241.75 255.32 241.68 253.24 229.23"/><path class="cls-13" d="M264.49,181.73c.85-15.94.51-45-4.83-52.36l-31.31-.73s10,40,12.52,54.85c2.66,15.47,13.65,53.36,13.65,53.36l9-.28S268.77,199.93,264.49,181.73Z"/><polygon class="cls-17" points="213.56 229.23 223.55 229.33 221.28 241.75 212.93 241.68 213.56 229.23"/><path class="cls-13" d="M221.56,245.6h-2.13l-.37-.93-1.32.94H205.5a7.87,7.87,0,0,1,1.24-3.17A9.54,9.54,0,0,0,212,240a.58.58,0,0,1,.52-.21c1.22.29,6.07,1.32,9.1.24a.37.37,0,0,1,.52.45A36.24,36.24,0,0,0,221.56,245.6Z"/><path class="cls-13" d="M235.62,181.73c4.42-15.94,10.9-45,7.2-52.36L211,128.64s1.4,40,.63,54.85c-.81,15.47,1.55,53.36,1.55,53.36l8.94.37S235.84,199.93,235.62,181.73Z"/><path class="cls-19" d="M243.68,132.54c7.74,1,14.34,2,18.4,2.7,3,11.51,3.1,33.42,2.41,46.49.13.57.25,1.15.37,1.74-7.5,2.92-15.58,1.76-24-.27-.55-3.17-1.42-7.4-2.45-12.13C241.67,157.36,244.8,140.65,243.68,132.54Z"/><path class="cls-19" d="M211.5,146.2c1.82-8.89,3.81-15.77,3.81-15.77,4.49,0,9.1.29,13.64.63,1.64,6.64,6.28,25.58,9.42,40-.93,3.89-1.88,7.53-2.75,10.66v.16c-7.73-2-15.72-4.15-23.82-4.09C212,168.94,211.74,156.4,211.5,146.2Z"/><path class="cls-4" d="M230.85,68.5a137.45,137.45,0,0,1,21.16.17A14,14,0,0,1,264.52,85c-3.53,20.91-1.24,36.37-3.37,44.42,0,0-32.46.57-51.38-.73-1.36-22.1,3.51-26.71,9.14-50A14.15,14.15,0,0,1,230.85,68.5Z"/><path class="cls-13" d="M209.77,128.64s-6.28,33.22-1.53,47.82c21.29-3.48,43.59,10.31,59.79-2.15-.6-17.67-3.88-39.51-6.88-44.94C261.15,129.37,233.46,126.7,209.77,128.64Z"/><g class="cls-20"><path class="cls-11" d="M261,197l3.76.35c-10-26.41.69-48.34-8.39-69.7l-3.2-.26C262.08,148.72,251.19,170.61,261,197Z"/><path class="cls-11" d="M248.93,195.85l3.75.35c-9.32-26.28,1.93-48.11-6.57-69.39l-3.19-.25C251.25,147.8,239.83,169.6,248.93,195.85Z"/><path class="cls-11" d="M236.93,194.72l3.73.35c-8.63-26.16,3.17-47.9-4.78-69.08l-3.17-.25C240.48,146.89,228.52,168.59,236.93,194.72Z"/><path class="cls-11" d="M225,193.59l3.71.35c-7.94-26,4.38-47.67-3-68.77l-3.16-.25C229.75,146,217.27,167.59,225,193.59Z"/><path class="cls-11" d="M213.1,192.47l3.69.35c-7.25-25.92,5.6-47.46-1.23-68.46l-3.15-.25C219.07,145.08,206.06,166.59,213.1,192.47Z"/><path class="cls-11" d="M266.65,139c-.21-1.15-.46-2.29-.75-3.44L207,130.77c.12,1.11.2,2.23.25,3.35Z"/><path class="cls-11" d="M267.75,150.35c0-1.19-.09-2.39-.17-3.57l-60.53-5.09c-.09,1.16-.2,2.32-.34,3.49Z"/><path class="cls-11" d="M267.78,162.23l0-3.76-62.2-5.37c-.19,1.21-.38,2.44-.57,3.67Z"/><path class="cls-11" d="M268,174.82c-.08-1.34-.14-2.68-.18-4l-64-5.69c-.15,1.29-.29,2.59-.39,3.9Z"/><path class="cls-11" d="M269.94,188.32c-.34-1.45-.62-2.89-.87-4.31l-65.87-6c0,1.38.11,2.78.24,4.19Z"/></g><path class="cls-16" d="M217.83,76.71l0,0h0l-.05,0-.14.13-.32.29-.71.64c-.51.42-1,.85-1.57,1.25a31.4,31.4,0,0,1-3.38,2.24,28.15,28.15,0,0,1-3.6,1.71,26.25,26.25,0,0,1-3.83,1.1l3.14.47c-1.26-.36-2.61-.82-4-1.31s-2.82-1-4.25-1.58L194.76,80c-1.48-.54-3-1.12-4.49-1.59l-.17-.06a3.94,3.94,0,0,0-4.16,6.32,49.6,49.6,0,0,0,3.56,3.67c1.23,1.16,2.52,2.26,3.84,3.33s2.72,2.08,4.18,3a42.78,42.78,0,0,0,4.73,2.73,4.66,4.66,0,0,0,2.19.49l.95,0a31.29,31.29,0,0,0,6.73-.83c1.1-.26,2.18-.57,3.25-.92s2.11-.8,3.13-1.27a34.26,34.26,0,0,0,5.77-3.37,30.48,30.48,0,0,0,2.61-2.11c.42-.38.85-.77,1.26-1.19l.63-.66.32-.36.43-.5a7.68,7.68,0,0,0-11.69-10Z"/><path class="cls-17" d="M191,80.57l-2.69,3.53c-4,2.46-6.25-3.17-6.25-3.17l-3.23-3.23a2.34,2.34,0,0,1,0-3l1.86-2.48a2.45,2.45,0,0,1,3.34-.74l3.25,2.6a4.93,4.93,0,0,1,1.5,1.83Z"/><path class="cls-4" d="M230.54,68.82c-7.11.55-16.33,10.07-16.33,10.07-.61,2.83-.16,13.46,4.75,17.25,0,0,8.45-.41,12.06-6.23C235,83.58,238.07,68.23,230.54,68.82Z"/><path class="cls-13" d="M234.19,42.67c-2.07-4.15,3.51-9.75,7.8-5.87s7.4,3.11,11,3.41c4.76.41,2.55,5,2.55,5s7.77-1.47,4.6,6.56c-3.78,9.58,4.78,15.31.82,24.35S245.78,87,238.5,85.94c0,0,2.2-5.56-2.14-9.77-8.76-8.52,2.9-15.7,2-23.37C234.75,53.46,236.75,47.81,234.19,42.67Z"/><path class="cls-13" d="M238.33,52.8l2.11,1.14c.23,3.24-3.91,7.6-6.18,10.45s-2.9,5.75-2.29,11C227.57,62.84,237.79,60.5,238.33,52.8Z"/><path class="cls-17" d="M240.5,53.8a5.89,5.89,0,0,1-3.38,3c-2,.68-3.1-1.06-2.67-3,.39-1.74,1.9-4.19,3.94-4A2.7,2.7,0,0,1,240.5,53.8Z"/><path class="cls-13" d="M264.81,245.6h-2.13l-.57-.93-1.12.94H248.16a6.59,6.59,0,0,1,.55-3.17s3.84-.37,5.31-2.43a.47.47,0,0,1,.48-.21c1.27.29,6.35,1.32,9.14.24a.47.47,0,0,1,.63.45A35.23,35.23,0,0,0,264.81,245.6Z"/></g></g></g></svg>