<svg xmlns="http://www.w3.org/2000/svg" viewBox="0 0 293.31 235.49"><defs><style>.cls-1{opacity:0.25;}.cls-2{fill:#4ec0c4;}.cls-3{fill:#a9a9a9;}.cls-4,.cls-7{fill:#fff;}.cls-5{fill:#c3c3c3;}.cls-6{fill:#46c7ce;}.cls-7{stroke:#fff;stroke-miterlimit:10;}</style></defs><g id="Layer_2" data-name="Layer 2"><g id="Option_1" data-name="Option 1"><g class="cls-1"><path class="cls-2" d="M279.06,158.32c7.46-13.45,12-31.19,3-43.66-5.32-7.4-14.48-11.44-19.1-19.31-5.94-10.12-2.56-23.1,2-33.91s10.39-22,8.79-33.68C271.67,12.44,256.54,1.42,241.34.16s-30.06,5.28-42.8,13.78-24.77,19.28-39.79,21.44c-12.79,1.84-25.59-3-37.11-9S99,13.29,86.56,9.91C62.62,3.43,35.24,13.06,20.4,33.18S4.2,82.65,17.1,104.1c4.46,7.42,10.59,16.55,5.89,23.81-4.23,6.52-14.32,6-19.63,11.63C-2.73,146,.46,156.72,5,164.36A94.45,94.45,0,0,0,42.7,199.6s128.56,73.76,197.3,9.79C269,182.42,279.06,158.32,279.06,158.32Z"/></g><path class="cls-3" d="M283.4,177.9H215.76l-46.1,34.85,6.19-34.85H68.29A9.91,9.91,0,0,1,58.38,168V61.86a9.92,9.92,0,0,1,9.91-9.92H283.4a9.91,9.91,0,0,1,9.91,9.92V168A9.91,9.91,0,0,1,283.4,177.9Z"/><path class="cls-4" d="M276.83,172H209.19l-46.1,34.85L169.28,172H61.72A9.92,9.92,0,0,1,51.81,162V55.91A9.91,9.91,0,0,1,61.72,46H276.83a9.92,9.92,0,0,1,9.92,9.91V162A9.92,9.92,0,0,1,276.83,172Z"/><path class="cls-5" d="M263.66,101.61H170.73a2.34,2.34,0,0,1-2.4-2.28h0a2.34,2.34,0,0,1,2.4-2.27h92.93a2.33,2.33,0,0,1,2.39,2.27h0A2.34,2.34,0,0,1,263.66,101.61Z"/><path class="cls-5" d="M263.66,114.34H170.73a2.34,2.34,0,0,1-2.4-2.28h0a2.34,2.34,0,0,1,2.4-2.27h92.93a2.33,2.33,0,0,1,2.39,2.27h0A2.34,2.34,0,0,1,263.66,114.34Z"/><path class="cls-5" d="M263.66,89H170.73a2.33,2.33,0,0,1-2.4-2.27h0a2.33,2.33,0,0,1,2.4-2.27h92.93a2.33,2.33,0,0,1,2.39,2.27h0A2.33,2.33,0,0,1,263.66,89Z"/><path class="cls-5" d="M239.37,127.07H170.73a2.34,2.34,0,0,1-2.4-2.28h0a2.34,2.34,0,0,1,2.4-2.27h68.64a2.34,2.34,0,0,1,2.4,2.27h0A2.34,2.34,0,0,1,239.37,127.07Z"/><circle class="cls-6" cx="111.45" cy="108.08" r="36.29"/><path class="cls-7" d="M130.6,94.79a2.31,2.31,0,0,1,0,3.28L107.37,121.3a2.34,2.34,0,0,1-1.63.67,2.31,2.31,0,0,1-1.64-.68L92.48,109.68a2.33,2.33,0,1,1,3.29-3.29l10,10,21.58-21.59A2.3,2.3,0,0,1,130.6,94.79Z"/></g></g></svg>