<?xml version="1.0" encoding="utf-8"?>
<!-- Generator: Adobe Illustrator 25.0.1, SVG Export Plug-In . SVG Version: 6.00 Build 0)  -->
<svg version="1.1" id="Layer_1" xmlns="http://www.w3.org/2000/svg" xmlns:xlink="http://www.w3.org/1999/xlink" x="0px" y="0px"
	 viewBox="0 0 23.5 32.1" style="enable-background:new 0 0 23.5 32.1;" xml:space="preserve">
<style type="text/css">
	.st0{fill:#FFAB4B;}
</style>
<g>
	<path class="st0" d="M20.6,12.6h-1.5V8.2c0-4.2-3.4-7.5-7.5-7.5S4.1,4,4.1,8.2v4.5H2.6c-1.4,0-2.5,1.1-2.5,2.5v14
		c0,1.4,1.1,2.5,2.5,2.5h18c1.4,0,2.5-1.1,2.5-2.5v-14C23.1,13.8,22,12.6,20.6,12.6z M5.2,8.2c0-3.6,2.9-6.5,6.5-6.5
		s6.5,2.9,6.5,6.5v4.5H5.2V8.2z M22.1,29.1c0,0.8-0.7,1.5-1.5,1.5h-18c-0.8,0-1.5-0.7-1.5-1.5v-14c0-0.8,0.7-1.5,1.5-1.5h18
		c0.8,0,1.5,0.7,1.5,1.5V29.1z"/>
	<path class="st0" d="M11.6,17.9c-1.2,0-2.2,1-2.2,2.2c0,0.9,0.5,1.7,1.4,2l0.3,0.1v3.5c0,0.3,0.2,0.5,0.5,0.5s0.5-0.2,0.5-0.5v-3.5
		l0.3-0.1c0.8-0.3,1.4-1.1,1.4-2C13.8,18.9,12.8,17.9,11.6,17.9z M11.6,21.3c-0.6,0-1.1-0.5-1.1-1.1S11,19,11.6,19s1.1,0.5,1.1,1.1
		S12.2,21.3,11.6,21.3z"/>
</g>
</svg>
