<svg xmlns="http://www.w3.org/2000/svg" viewBox="0 0 26.91 29.52"><defs><style>.cls-1{fill:#fa5;}</style></defs><g id="Layer_2" data-name="Layer 2"><g id="Option_1" data-name="Option 1"><path class="cls-1" d="M22.87,21.45a4,4,0,0,0-3,1.31l-7.17-4.59a6.86,6.86,0,0,0,1-3.62,6.74,6.74,0,0,0-.86-3.31l7-4.48a4,4,0,0,0,3,1.31,4,4,0,1,0-3.59-2.2l-7,4.47a6.87,6.87,0,1,0-.22,8.7l7.19,4.61a4,4,0,1,0,3.59-2.2Zm0-20.37a3,3,0,1,1-2.95,3A3,3,0,0,1,22.87,1.08Zm-16,19.27a5.8,5.8,0,1,1,5.8-5.8A5.8,5.8,0,0,1,6.88,20.35Zm16,8.09a3,3,0,1,1,3-3A2.95,2.95,0,0,1,22.87,28.44Z"/></g></g></svg>