<svg xmlns="http://www.w3.org/2000/svg" viewBox="0 0 28.09 21.89"><defs><style>.cls-1{fill:#46c7ce;}</style></defs><g id="Layer_2" data-name="Layer 2"><g id="Option_1" data-name="Option 1"><path class="cls-1" d="M28.09,14.58a2.19,2.19,0,0,0-1.46-2.07l-.22-.08V6.61l1.35-.51a.5.5,0,0,0,.33-.48.52.52,0,0,0-.33-.48L14.23,0a.55.55,0,0,0-.36,0L.33,5.14A.52.52,0,0,0,0,5.62a.5.5,0,0,0,.33.48L5.11,7.89v6.37a.5.5,0,0,0,.32.47,22.91,22.91,0,0,0,8.62,1.66,22.9,22.9,0,0,0,8.61-1.66.49.49,0,0,0,.32-.47V7.89l2.4-.9v5.44l-.22.08a2.2,2.2,0,0,0-1.46,2.07,2.23,2.23,0,0,0,.56,1.47l.2.22-.2.22A2.18,2.18,0,0,0,23.7,18v3.43a.51.51,0,0,0,.51.51h3.37a.51.51,0,0,0,.51-.51V18a2.13,2.13,0,0,0-.56-1.46l-.19-.22.19-.22A2.18,2.18,0,0,0,28.09,14.58ZM22,13.91l-.22.08a22,22,0,0,1-7.69,1.38A22.06,22.06,0,0,1,6.35,14l-.21-.08V8.27l7.73,2.89a.55.55,0,0,0,.36,0L22,8.27Zm3.34-8L14.16,10.09l-.11,0-.12,0L2.79,5.93,2,5.62,14.05,1.06,26.12,5.62Zm1.77,14.93H24.73V18a1.17,1.17,0,0,1,2.34,0ZM25.9,15.75a1.17,1.17,0,1,1,0-2.34,1.17,1.17,0,1,1,0,2.34Z"/></g></g></svg>