<svg xmlns="http://www.w3.org/2000/svg" viewBox="0 0 215.95 148.79"><defs><style>.cls-1{opacity:0.25;}.cls-2{fill:#75c189;}.cls-3{fill:#cbcbcb;}.cls-11,.cls-12,.cls-13,.cls-14,.cls-15,.cls-16,.cls-18,.cls-19,.cls-21,.cls-22,.cls-23,.cls-24,.cls-25,.cls-26,.cls-28,.cls-29,.cls-3,.cls-30,.cls-31,.cls-32,.cls-33,.cls-34,.cls-35,.cls-36,.cls-37,.cls-38,.cls-4,.cls-41,.cls-42,.cls-45,.cls-46,.cls-47,.cls-48,.cls-49,.cls-5,.cls-50,.cls-51,.cls-52,.cls-53,.cls-54,.cls-55,.cls-58,.cls-59,.cls-6,.cls-60,.cls-64,.cls-65,.cls-66,.cls-68,.cls-69,.cls-7,.cls-70,.cls-8,.cls-9{fill-rule:evenodd;}.cls-4{fill:#301e49;}.cls-5{fill:#3b3678;}.cls-6{fill:#ae4432;}.cls-7{fill:#5e281e;}.cls-8{fill:#bcbcbc;}.cls-9{fill:#fa5;}.cls-10{fill:#fc9727;}.cls-11{fill:#c6c7fc;}.cls-12{fill:#e9eef2;}.cls-13{fill:#354a63;}.cls-14,.cls-63{fill:#3c150b;}.cls-15,.cls-44{fill:#db8f7b;}.cls-16{fill:#fcae98;}.cls-17,.cls-38{fill:#a46451;}.cls-18,.cls-20{fill:#fff;}.cls-19{fill:#377872;}.cls-21{fill:#d6dbf5;}.cls-22{fill:#1e62b9;}.cls-23{fill:#3677e4;}.cls-24{fill:#e6a498;}.cls-25{fill:#f7beb3;}.cls-26{fill:#4c3530;}.cls-27{fill:#b16d61;}.cls-28{fill:#b5beea;}.cls-29{fill:#8a94c9;}.cls-30{fill:#b0b2f7;}.cls-31{fill:#cecffc;}.cls-32{fill:#d8d9fd;}.cls-33{fill:#e4e4fd;}.cls-34,.cls-39{fill:#26364c;}.cls-35,.cls-61{fill:#fad27f;}.cls-36{fill:#fc7270;}.cls-37{fill:#c27d6a;}.cls-40,.cls-60{fill:#834837;}.cls-41,.cls-67{fill:#e94846;}.cls-42,.cls-43{fill:#29307d;}.cls-45,.cls-57{fill:#e85451;}.cls-46,.cls-56{fill:#cd8876;}.cls-47{fill:#9da7d8;}.cls-48{fill:#f3bc5b;}.cls-49{fill:#b77b24;}.cls-50{fill:#ce9334;}.cls-51{fill:#cf8a7f;}.cls-52{fill:#e5e5e5;}.cls-53{fill:#fcb9a4;}.cls-54{fill:#eaa18c;}.cls-55{fill:#314865;}.cls-58{fill:#718da9;}.cls-59{fill:#3c5677;}.cls-62,.cls-64{fill:#cf9d38;}.cls-65{fill:#eef0f1;}.cls-66{fill:#ceccca;}.cls-68{fill:#f4f4ff;}.cls-69{fill:#3980ec;}.cls-70{fill:#cc665a;}</style></defs><g id="Layer_2" data-name="Layer 2"><g id="Option_1" data-name="Option 1"><g class="cls-1"><path class="cls-2" d="M27,23.91c-38.37,29.12-7.2,48.88-7.2,48.88A38.15,38.15,0,0,1,33.14,90.22c5.29,14.09-6.19,30.87.4,44.42,4.85,10,17.76,13.74,29.13,13S85,143,96.36,142c13.6-1.13,27.08,2.17,40.48,4.55s27.61,3.81,40.42-.87,23.59-17.14,21.81-30.27c-.8-5.92-4-11.73-2.64-17.56,2.11-9,13.66-12.91,17.92-21.21,4.16-8.1-.57-17.41-5.22-25.19-18.85-31.6-54.1-44.82-82.95-50C126.18,1.5,69.94-8.66,27,23.91Z"/></g><path class="cls-3" d="M167.06,21.69H51.45A4.34,4.34,0,0,0,47.09,26v85.4a4.34,4.34,0,0,0,4.36,4.29H167.06a4.34,4.34,0,0,0,4.36-4.29V26a4.34,4.34,0,0,0-4.36-4.29Z"/><path class="cls-4" d="M167.06,22.92H51.45A3.11,3.11,0,0,0,48.33,26v85.4a3.11,3.11,0,0,0,3.12,3.07H167.06a3.11,3.11,0,0,0,3.12-3.07V26a3.11,3.11,0,0,0-3.12-3.06Z"/><polygon class="cls-5" points="59.43 31.89 155.84 31.89 155.84 105.47 59.43 105.47 59.43 31.89 59.43 31.89"/><path class="cls-6" d="M47.3,48c3.23-6.11,11.39-9,10.39-1.56s-6.18,13-6.73,18.84S52.15,76.94,48.56,84,39,92.57,37.24,95.6A23.51,23.51,0,0,0,35,103H12.34s6.54-12.58,7.09-19.28,2.54-23.31,4.36-27,3.82-3.58,3.82-3.58a21.9,21.9,0,0,1,7.45-5,118.46,118.46,0,0,0,12.27-6.33l0,6.11Z"/><path class="cls-7" d="M47.42,47.74a10.3,10.3,0,0,1,.55-.9s-.24.36-.55.9Zm-.1-3.05,0,3.25a36.76,36.76,0,0,0-3.45,8.18,29.19,29.19,0,0,1-4.7,9.29s-2.06-7.64-.27-11.21,6.24-7.77,8.44-9.51Z"/><path class="cls-8" d="M160.94,66a2.68,2.68,0,1,0,2.72,2.68A2.7,2.7,0,0,0,160.94,66Z"/><path class="cls-3" d="M159.94,66.18a2.67,2.67,0,0,0,0,5,2.67,2.67,0,0,0,0-5Z"/><path class="cls-6" d="M171.4,48c-3.22-6.11-11.38-9-10.38-1.56s6.18,13,6.72,18.85-1.18,11.7,2.41,18.76,9.59,8.57,11.32,11.61a23.41,23.41,0,0,1,2.27,7.39h22.63s-6.54-12.57-7.09-19.27-2.54-23.32-4.36-27-3.82-3.57-3.82-3.57a21.74,21.74,0,0,0-7.45-5,119.91,119.91,0,0,1-12.27-6.34l0,6.11Z"/><path class="cls-7" d="M171.29,47.84a10.47,10.47,0,0,0-.55-.91s.23.36.55.91Zm.1-3.06V48a36.13,36.13,0,0,1,3.46,8.19,29.33,29.33,0,0,0,4.7,9.29s1.49-7.2-.3-10.77a37.53,37.53,0,0,0-7.87-10Z"/><path class="cls-9" d="M9.52,103c7.4-3.38,18.7-2.63,27.86,0v36.62H0Q4.76,121.31,9.52,103Z"/><path class="cls-9" d="M209,103c-6.07-5.14-18.07-3.78-27.86,0l-1.94,36.62h36.15L209,103Z"/><path class="cls-10" d="M8,116.14c.05,0,18.32-2.75,26.7.54l-.53,1.3c-8-3.15-25.91-.46-26-.45L8,116.14Z"/><path class="cls-10" d="M182.65,116.14s18.32-2.75,26.69.54l-.53,1.3c-8-3.15-25.9-.46-25.95-.45l-.21-1.39Z"/><polygon class="cls-11" points="107.08 53.33 84.47 53.33 84.47 33 107.08 33 107.08 53.33 107.08 53.33"/><path class="cls-12" d="M93.9,48s-.48-.28-2.8.35-3.38,1.25-4,2.59a9.88,9.88,0,0,0-.58,2.38H105a6.82,6.82,0,0,0-.74-3.1C103.2,48.54,97.9,48,97.9,48a4.61,4.61,0,0,1-4,.06Z"/><polygon class="cls-13" points="100.52 47.95 102.3 48.56 102.3 53.33 100.52 53.33 100.52 47.95 100.52 47.95"/><path class="cls-14" d="M98.43,34.38s-.78-1.09-3.08-.91a4.4,4.4,0,0,0-4,3.09,7.4,7.4,0,0,0,.55,4.91c.4.64,8,.35,8,.35s.89-.77,1.34-3.72-2.23-4-2.72-3.72Z"/><path class="cls-15" d="M92.25,40.49s-.36-.68-.92-.44-.59,1.38,0,2,.92.42.92.42v-2Z"/><path class="cls-15" d="M99.48,40.49s.36-.68.92-.44.59,1.38,0,2-.92.42-.92.42v-2Z"/><path class="cls-16" d="M96.47,43.84l.85.09s-.44,2.65,0,3.24A6,6,0,0,0,99,48.37a6.65,6.65,0,0,1-3.34.6A4.76,4.76,0,0,1,92.84,48s1.23-.39,1.4-.79a16.39,16.39,0,0,0-.06-3l2.29-.36Z"/><path class="cls-15" d="M96.47,43.84l.85.09a13.26,13.26,0,0,0-.18,2.54,4,4,0,0,1-2.83,0c0-.92-.13-2.27-.13-2.27l2.29-.36Z"/><polygon class="cls-13" points="89.94 48.36 91.73 47.95 91.73 53.33 89.94 53.33 89.94 48.36 89.94 48.36"/><path class="cls-16" d="M91.86,38.87s-.17,3.92.91,5.33a3.93,3.93,0,0,0,5.12.78c1.9-1.08,2-3.89,2.1-4.54a13.11,13.11,0,0,0-.42-2.62,6.26,6.26,0,0,1-1.12-1.46,3,3,0,0,1-.15-.57s-.72.4-1.32.79a1.79,1.79,0,0,0-.73.76.66.66,0,0,1-.09-.78c.24-.45.27-.52.27-.52a5.2,5.2,0,0,0-1.71.8,3.85,3.85,0,0,0-.77.85s-.31-.07-.17-.51.28-.79.28-.79-1.22,1.26-1.58,1.77a3.5,3.5,0,0,1-.62.71Z"/><path class="cls-17" d="M94.36,42.71a2.59,2.59,0,0,0,2.78,0l.15.24a2.88,2.88,0,0,1-3.11,0l.18-.21Z"/><path class="cls-17" d="M95.88,40.43a2.42,2.42,0,0,1-.25,1l-.09.11c-.11.12-.2.22-.14.28s.52.12.52.12v.27s-.56,0-.75-.22,0-.42.14-.63l.09-.09a2.44,2.44,0,0,0,.19-.84l.29,0Z"/><path class="cls-14" d="M94,39.42a.55.55,0,1,1-.42.53.49.49,0,0,1,.42-.53Z"/><path class="cls-14" d="M97.37,39.42A.55.55,0,1,1,97,40a.49.49,0,0,1,.42-.53Z"/><path d="M93,38.78a1.41,1.41,0,0,1,1.78.07l-.22.18c-.57-.6-1.38,0-1.38,0L93,38.78Zm5.39,0a1.4,1.4,0,0,0-1.78.07l.22.18c.57-.6,1.38,0,1.38,0l.18-.21Z"/><path class="cls-18" d="M93.8,39.66a.11.11,0,1,1-.12.11.11.11,0,0,1,.12-.11Z"/><path class="cls-18" d="M97.2,39.66a.11.11,0,1,1,0,.22.11.11,0,1,1,0-.22Z"/><polygon class="cls-19" points="130.8 95.89 84.47 95.89 84.47 54.14 130.8 54.14 130.8 95.89 130.8 95.89"/><path class="cls-20" d="M96.48,86.63c-.22,0-.43-.08-.63-.14a3.28,3.28,0,0,1-2.52-2.57,2.48,2.48,0,0,1,.73-2.22,3.9,3.9,0,0,1,2.52-1.15,7.3,7.3,0,0,1,.81,0,1.85,1.85,0,0,0,.47,0,.53.53,0,0,1,.24,0,6.36,6.36,0,0,1,.62.19c.2.08.39.18.59.28l.12-.11A4.33,4.33,0,0,1,102,79.71a5.14,5.14,0,0,1,1.3,0,.61.61,0,0,0,.19,0,.61.61,0,0,1,.4,0,4,4,0,0,1,1.75.84,2.63,2.63,0,0,1,1,1.83,2.93,2.93,0,0,1-1.08,2.43,3.78,3.78,0,0,1-1,.64.19.19,0,0,0-.13.2,3.44,3.44,0,0,1-1.09,2.74A4.25,4.25,0,0,1,101,89.59a3.92,3.92,0,0,1-4-1.54,3.27,3.27,0,0,1-.52-1.42Zm31.25-30.95c-.2.23-.48.24-.59,0,.1-.07.19-.07.59,0ZM129.36,61a.66.66,0,0,1,.55,0,.48.48,0,0,1-.09.11.45.45,0,0,1-.34.05c-.08,0-.12-.08-.12-.17ZM128,63.24a1,1,0,0,1,.6-.07.58.58,0,0,1-.48.25.15.15,0,0,1-.12-.18Zm-3.7-1.3a.76.76,0,0,1-.53.08.17.17,0,0,1-.15-.15.6.6,0,0,1,.68.07Zm-.64.27a1.28,1.28,0,0,1,.8,0,2.35,2.35,0,0,1-.6.2c-.13,0-.15,0-.2-.17Zm4.66-.93a.58.58,0,0,1-.6.25.15.15,0,0,1-.13-.18,2.19,2.19,0,0,1,.73-.07ZM121.87,56a3.71,3.71,0,0,1,.94,0s0,.06-.07.07a1.52,1.52,0,0,1-.7.08c-.12,0-.15,0-.17-.2Zm-1.46,6s0,.06-.06.07a1.33,1.33,0,0,1-.52.13c-.19,0-.2,0-.27-.18a1.24,1.24,0,0,1,.85,0Zm9.86,1c0,.1,0,.14-.1.17a.72.72,0,0,1-.39.12c-.17,0-.19,0-.25-.18a1.2,1.2,0,0,1,.74-.11Zm-8.36-6.69a2.82,2.82,0,0,1,1,0,.75.75,0,0,1-.14.08,1.93,1.93,0,0,1-.6.1.26.26,0,0,1-.26-.21Zm2.65,10a1.43,1.43,0,0,1-.73.17c-.11,0-.2,0-.22-.19a3.49,3.49,0,0,1,.71-.07c.07,0,.19,0,.24.09ZM128.2,58a.5.5,0,0,1-.37.22l-.28,0c-.14,0-.14,0-.22-.12a1.11,1.11,0,0,1,.87-.12Zm-3.5,8.75a2,2,0,0,1-.87.16c-.1,0-.11-.07-.14-.13s.12-.07.19-.08a2.06,2.06,0,0,1,.82,0Zm4.66-2.94c0,.08-.09.06-.14,0a.66.66,0,0,1-.29-.43.72.72,0,0,1,.2-.63.34.34,0,0,1,.13-.05c-.06.2-.19.37-.14.56a1.45,1.45,0,0,0,.24.52Zm-.05-3.35a1.56,1.56,0,0,0-.06.15.79.79,0,0,0,0,.64c0,.14.11.27.16.4s0,.07,0,.07-.08,0-.1,0a1.36,1.36,0,0,1-.22-.33,1,1,0,0,1,.09-.84.15.15,0,0,1,.18-.08Zm-8.62,6.74c-.13,0-.12-.14-.14-.21s0-.1-.09-.13-.08-.08-.14-.15l.21-.09c0-.07,0-.15,0-.23s0-.12.15-.1l.06.34.37,0c-.05.18-.24.22-.38.3s0,.19,0,.3ZM129,55.83c-.12-.12-.12-.14,0-.21a1.55,1.55,0,0,1,.22-.12l.22,0a1.12,1.12,0,0,1,0,.9c-.23-.17-.18-.39-.2-.61l-.24.08Zm-2,6.13c-.15-.13-.16-.16-.18-.62l-.19-.14c.09-.08.15-.15.23-.21a.25.25,0,0,1,.17,0s.07.08.07.12a4.38,4.38,0,0,1,0,.51.41.41,0,0,1-.14.37Zm3-3.22a.46.46,0,0,1-.18-.37c0-.13,0-.27,0-.41s-.15.06-.19,0,0-.13.17-.2.2,0,.24,0a.36.36,0,0,1,0,.09c0,.21,0,.42,0,.63a.42.42,0,0,1-.11.3ZM125.71,58c.11-.05.16-.19.35-.12l-.18.23c.09.12.28.2.27.41l-.41-.22c-.17.08-.16.29-.34.38a.13.13,0,0,1-.06-.2l.22-.33-.23-.24c.11-.06.11-.06.38.09Zm3.19-.16c-.09-.1-.28-.13-.25-.29.18-.07.28.08.43.11s.25-.25.51-.22l-.34.32.17.27c-.15.07-.22-.05-.33-.06s-.2.19-.32.31c-.11-.2.07-.31.13-.44Zm-3.37-2.12a1.93,1.93,0,0,1,.32-.52,1.84,1.84,0,0,1-.12.45l-.12.43c0,.14-.11.28-.16.41s-.1,0-.09-.08a1.27,1.27,0,0,1,0-.34.3.3,0,0,0,0-.23c-.07-.15-.13-.3-.19-.44s0,0,0,0l0-.08s.1,0,.11,0,.14.26.22.41Zm-5.32,1.54c-.25-.19-.2-.42-.2-.66l-.13,0a.11.11,0,0,1-.13-.07c0-.05,0-.08,0-.11a1.7,1.7,0,0,1,.22-.15c.15-.08.26,0,.26.12s0,.32,0,.48a.41.41,0,0,1-.11.36ZM126,56c-.1,0-.17,0-.17-.08a.18.18,0,0,1,.08-.13.41.41,0,0,1,.19-.08.4.4,0,0,1,.19,0c.07,0,0,.11,0,.17l-.13.27.39,0a.8.8,0,0,1-.41.27.19.19,0,0,1-.22,0c-.06-.07-.13-.14-.07-.24s.07-.12.13-.2Zm2.29.45c-.1-.31.08-.56.17-.82a1.41,1.41,0,0,1-.39-.42c.06-.07.13-.08.19,0a.66.66,0,0,1,.14.15,1.26,1.26,0,0,1,.11.17c.14-.18.15-.43.41-.52a5.58,5.58,0,0,0-.36.93,3.49,3.49,0,0,1-.2.44.28.28,0,0,1-.07.09Zm-1.52,11.29a.57.57,0,0,1-.13,0l-.14-.08a1.29,1.29,0,0,1-.48-.91,1.52,1.52,0,0,1,.12-.7s0,0,0-.06.06,0,.08,0,0,0,0,.06a2.25,2.25,0,0,1,0,.22,1.57,1.57,0,0,0,.37,1.32,1.25,1.25,0,0,0,.16.17Zm.38-4.66c.31,0,.4.15.24.44a.9.9,0,0,1-.43.41c-.17-.11-.18-.16,0-.28a2.73,2.73,0,0,0,.25-.23.3.3,0,0,0,0-.1c-.16,0-.33,0-.35-.18h-.07c-.06,0-.12,0-.14,0a.16.16,0,0,1,.08-.09l.14-.07c.18-.06.25,0,.28.14Zm.28,3.94s0,0,.08,0l1-.2a1.6,1.6,0,0,1,.38,0,.19.19,0,0,1,.13.07.21.21,0,0,1-.07.14.48.48,0,0,1-.21.07l-.89.13-.11,0c-.17,0-.2,0-.26-.18Zm2.06.34s-.05-.08,0-.12a1.95,1.95,0,0,1,.13-.65,1,1,0,0,0-.09-.74c0-.06-.11-.12,0-.17s.14,0,.18.08a1,1,0,0,1,.21.73,1.79,1.79,0,0,1-.24.74,1.1,1.1,0,0,1-.09.14Zm.69-6.54c-.12,0-.21,0-.24-.1s0-.12.18-.17l.11,0c.19,0,.29,0,.26.21a.81.81,0,0,1-.07.22c0,.06-.05.11-.08.18h.2l.18,0a.33.33,0,0,1-.22.3.36.36,0,0,1-.34-.05c-.09-.1-.16-.2-.09-.33s.07-.15.11-.24Zm-3.78-2.38-.14.06c-.11-.1-.12-.12,0-.19a.7.7,0,0,1,.27-.14c.17,0,.27,0,.22.2s-.12.24-.17.36a1,1,0,0,1-.07.15l.37,0a.38.38,0,0,1-.46.28.26.26,0,0,1-.18-.31,1.85,1.85,0,0,1,.13-.29,1,1,0,0,1,.08-.14l0,0Zm-5.27,3.6c.12-.17.16-.36.35-.5,0,.05,0,.07,0,.09a4.55,4.55,0,0,0-.33,1.11c0,.21-.11.41-.16.62l-.07.1a.68.68,0,0,1,0-.15,2.13,2.13,0,0,1,.14-.86.28.28,0,0,0,0-.25c-.07-.15-.13-.31-.2-.47s0-.09,0-.1a.15.15,0,0,1,.12,0c.07.12.13.24.19.37Zm-2.06-4.86A.15.15,0,0,1,119,57c0-.13.11-.26.17-.4l.16-.31a1.31,1.31,0,0,1-.5-.58c.08-.07.14-.06.19,0l.21.29.13.18c.17-.23.22-.49.46-.67a9.37,9.37,0,0,1-.75,1.69Zm11.55,5.51a.36.36,0,0,0-.07.34c.1,0,.11,0,.12-.08a2,2,0,0,1,.06-.26l0-.06v1a.76.76,0,0,1-.1-.3.29.29,0,0,1-.33-.2.48.48,0,0,1,.07-.42c0-.07.11-.09.22,0Zm-8.74-.6-.14.09c-.13-.1-.13-.11-.07-.22a.45.45,0,0,1,.31-.22c.17,0,.29,0,.25.19s-.08.24-.12.36l-.11.26.38,0a.29.29,0,0,1-.21.32.36.36,0,0,1-.36,0,.3.3,0,0,1-.13-.35c0-.13.12-.27.2-.44Zm6.42,6.74c-.14-.18-.05-.35-.1-.51-.14,0-.2,0-.24-.16l.29-.13c0-.08,0-.17,0-.28l-.3,0c-.15,0-.17,0-.19-.16a3.21,3.21,0,0,1,.63-.14c.15,0,.2.05.18.17s0,.21,0,.31c.13.06.29,0,.41.08l-.28.1a.16.16,0,0,0-.14.18.83.83,0,0,1-.24.51Zm0-3.1.13,0c.2.07.26.15.21.33a.66.66,0,0,1-.22.35.37.37,0,0,1-.53,0,2.19,2.19,0,0,1-.14-.2,1.28,1.28,0,0,1,.27,0,.24.24,0,0,0,.27-.15.55.55,0,0,1-.3-.16.24.24,0,0,1,0-.3,1.65,1.65,0,0,1-.19-.1s0-.07,0-.11a.45.45,0,0,1,.46,0c.15.09.07.21.05.34Zm-8.62,1,.24-.53a.55.55,0,0,1,.08-.15s.06-.08.11,0,0,.07,0,.1c-.06.21-.14.42-.21.64s-.2.64-.31,1a.48.48,0,0,0,0,.12.34.34,0,0,1,0,.1s0,.12-.12.1a.15.15,0,0,1-.1-.12.65.65,0,0,1,0-.31,3.22,3.22,0,0,1,.16-.5.26.26,0,0,0,0-.28q-.19-.28-.36-.57a.34.34,0,0,1,0-.19.09.09,0,0,1,.06-.06.1.1,0,0,1,.09,0c.07.25.32.41.43.68Zm9.92,3.35.39-.19,0,0-.07.1c.31.11.33.15.26.46l0,0c.21.1.25.19.16.4a.65.65,0,0,1-.42.37.52.52,0,0,1-.65-.35h.12a2,2,0,0,0,.24,0,.4.4,0,0,0,.42-.2c-.1,0-.2,0-.25-.08a.13.13,0,0,1,0-.19.3.3,0,0,0,.13-.22c-.1-.11-.34,0-.38-.19Zm-7.91-3.64c-.13-.11-.14-.17-.07-.27a.58.58,0,0,1,.46-.25c.22,0,.33.08.3.26a.68.68,0,0,1-.07.2c-.08.16-.17.31-.26.48a1.45,1.45,0,0,1,.67.15,1.36,1.36,0,0,1-.72.23c-.24,0-.41-.25-.3-.44s.16-.26.24-.39a1.76,1.76,0,0,0,.12-.2c-.1,0-.19,0-.19.08s-.1.12-.18.15Zm4.4-2.28A1,1,0,0,1,126,64a5.52,5.52,0,0,1-.16-.54c-.09-.43-.18-.86-.25-1.29a2.6,2.6,0,0,1,0-1.11,1.11,1.11,0,0,1,.12-.27.29.29,0,0,1,.11-.11.09.09,0,0,1,.1,0,.07.07,0,0,1,0,.08.27.27,0,0,1-.06.12c-.18.14-.15.34-.16.52a4.12,4.12,0,0,0,.19,1.35c.09.37.19.74.28,1.11a.33.33,0,0,1-.08.34Zm-1.59-9.05-.05-.12a.5.5,0,0,0-.18.23,1.75,1.75,0,0,0-.13.71c0,.49,0,1,0,1.47,0,.27,0,.55.06.82a2.3,2.3,0,0,1,0,.26.27.27,0,0,1-.1.24.25.25,0,0,1-.15-.2,1.27,1.27,0,0,1,0-.34c0-.59,0-1.19,0-1.78a3.68,3.68,0,0,1,.12-1,2.06,2.06,0,0,1,.12-.26.64.64,0,0,1,.1-.13c.09-.09.19-.13.25-.09s0,.08,0,.24Zm.21,2.15a1.58,1.58,0,0,1,.49-.1c.53-.05,1.06-.09,1.59-.16s1.22-.19,1.84-.28a10.83,10.83,0,0,1,1.61-.15,1,1,0,0,1,.24,0s.08,0,.08.08a.13.13,0,0,1-.07.08,1.73,1.73,0,0,1-.31.07c-.81,0-1.61.16-2.41.28-.62.09-1.23.19-1.85.22l-1,.06c-.14,0-.15,0-.19-.13Zm6.08,4.78-1.56.18q-.39,0-.78.06a13.38,13.38,0,0,0-1.42.14,3.09,3.09,0,0,1-.53,0,.13.13,0,0,1-.09,0,.16.16,0,0,1,0-.09.14.14,0,0,1,.07-.06l.07,0,1.11-.18c.33,0,.66-.06,1-.09l1.35-.15.85-.11v.31Zm-28.75.26.09.09c.88.65,1.83,1.22,2.77,1.79l3.73,2.31.06,0c.14.07.21.17.13.31s0,0,0,0l.21,0c.09,0,.12.1.07.18a.3.3,0,0,1-.26.16l-1,0h-1.27l-1.36,0c-.41,0-.82,0-1.23,0s-.85,0-1.28,0-1,0-1.44,0-1,0-1.51.06-.75.07-1.13.07a6.43,6.43,0,0,1-.74-.08c-.08,0-.15,0-.18-.11s0-.07,0-.07,0-.14,0-.21a3.73,3.73,0,0,1,0-.47,3.84,3.84,0,0,0,0-.76c0-.51,0-1,0-1.53,0-.27,0-.55,0-.82-.05-.94-.08-1.87-.07-2.8,0-.52,0-1,0-1.55a1.51,1.51,0,0,1,0-.28c.09-.05.15,0,.21.06s.19.25.3.36l.92.78c.35.29.72.57,1.08.86l1.67,1.32.17.09c-.11-.12-.23-.24-.34-.37a.92.92,0,0,1-.13-.21.67.67,0,0,1,.11-.79,2.22,2.22,0,0,1,.53-.43A9.1,9.1,0,0,1,104,59.7l1.16-.37s0,0,0,0a16.68,16.68,0,0,1,.93-2,4.53,4.53,0,0,0,.42-1c0-.1.08-.13.2-.12s.14.06.12.17a1,1,0,0,1-.1.28l-.79,1.49c-.17.32-.34.64-.5,1a.48.48,0,0,0-.05.12l.18,0a17.15,17.15,0,0,1,2.26-.36c.73-.05,1.45-.1,2.17-.09a5,5,0,0,1,1.09.11.6.6,0,0,1,.19.06c.06,0,.08.08,0,.14A.38.38,0,0,0,111,59c-.25,0-.5-.06-.75-.06a18.76,18.76,0,0,0-4.85.55,11.45,11.45,0,0,0-2.84,1.09,2.84,2.84,0,0,0-.7.52.44.44,0,0,0-.09.55,1.46,1.46,0,0,0,.49.5,3.16,3.16,0,0,0,1.24.43c.48.07,1,.13,1.46.17s1.26.06,1.9.1a10.54,10.54,0,0,0,2.86-.23,3.74,3.74,0,0,0,1.52-.67,1.85,1.85,0,0,0,.77-1.2,1.72,1.72,0,0,0-.16-.86.46.46,0,0,0-.25-.22,2.62,2.62,0,0,0-.79-.14,4.79,4.79,0,0,1-1.13-.14,3.36,3.36,0,0,1-.67-.24.21.21,0,0,1,.19-.06l1.1.05.64,0a3,3,0,0,1,.72.13.87.87,0,0,1,.5.44,1.85,1.85,0,0,1-.48,2.24,3.62,3.62,0,0,1-1.82.91,9,9,0,0,1-1.73.24c-.49,0-1,0-1.47,0a27.54,27.54,0,0,1-3-.24,3.87,3.87,0,0,1-1.61-.56ZM91.69,56.79s-.12,0-.16,0a.21.21,0,0,0-.27.05l-.14.16c.06.16.28.26.19.45a.16.16,0,0,1-.17-.07,1,1,0,0,1-.26-.63l.14,0a.48.48,0,0,1,.45-.27c.18,0,.17.16.24.25l0,0Zm14.07,11.77a1.1,1.1,0,0,1,.45-.13c.12,0,.16.06.11.15s-.2.15-.35.16-.15-.09-.21-.18ZM93.49,63.81a.38.38,0,0,1-.28.18c-.13,0-.27,0-.4,0a.11.11,0,0,1-.12-.1,1.55,1.55,0,0,1,.8-.11Zm11.05-2.42a.85.85,0,0,1,.68,0,.3.3,0,0,1-.27.18,1,1,0,0,1-.24,0c-.12,0-.14-.08-.17-.17Zm-1.15,7.39a.75.75,0,0,1-.54.24.19.19,0,0,1-.17-.08c-.05-.07,0-.12,0-.14a1.6,1.6,0,0,1,.66,0ZM104.52,61a1,1,0,0,1,.71,0c0,.16-.19.16-.33.15s-.32,0-.38-.19Zm3.8.09.19.07c-.18.07-.18.21-.26.33-.08-.08-.11-.17-.24-.19s-.07-.08,0-.13l.11-.06a.76.76,0,0,1,0-.15.13.13,0,0,1,.09-.07.11.11,0,0,1,.08.07.42.42,0,0,1,0,.13Zm9.54-5a1.7,1.7,0,0,1,1,0c-.06,0-.08.07-.12.08a1.51,1.51,0,0,1-.7,0c-.08,0-.12,0-.13-.12ZM92.69,63.42a1.69,1.69,0,0,1,.67-.08s.1,0,.11.08,0,.07-.09.1a1.52,1.52,0,0,1-.52.07c-.11,0-.13,0-.17-.17Zm9.89,5s.07,0,.11,0l.5,0c.09,0,.18,0,.22.08s-.07.13-.2.14h-.48c-.09,0-.09,0-.15-.15Zm13.13-2.13s0,.1-.08.11-.29.17-.44.25a.32.32,0,0,1-.14,0,.17.17,0,0,1-.16-.12c0-.06,0-.09.09-.11a2,2,0,0,1,.73-.16Zm-18-9a.31.31,0,0,1-.09-.07c-.08-.12-.15-.24-.22-.36a.17.17,0,0,1,0-.1.08.08,0,0,1,.13-.05.81.81,0,0,1,.09.1l.4-.2c0,.06,0,.1,0,.11l-.13.14c-.08.07-.15.13-.08.24s0,.14-.09.19Zm11.52,3.57c-.16.05-.23.12-.21.25a.37.37,0,0,1,0,.17.63.63,0,0,1-.1-.63c.16,0,.08.1.14.15a1,1,0,0,1,.17-.1.2.2,0,0,1,.29.08c.08.14.13.28,0,.42-.16-.07-.18-.2-.22-.34Zm-1.48,7.2a1.08,1.08,0,0,1,.18,0c.12,0,.14.06.08.15a.31.31,0,0,1-.34.14.29.29,0,0,1-.19-.29l0-.13a.36.36,0,0,0-.2.12c-.11-.1-.12-.15,0-.24a.69.69,0,0,1,.19-.1c.17-.05.27,0,.27.17v.18Zm-.81.75a1.25,1.25,0,0,1-.11-.18,2.75,2.75,0,0,1-.11-.41s0-.06,0-.09a.28.28,0,0,1,.11,0,.59.59,0,0,1,.06.14h0c.2-.12.33-.1.45.1a.28.28,0,0,1,0,.35c-.21,0-.17-.23-.25-.34-.1,0-.15.11-.12.2s0,.12-.09.2ZM95.35,54.79a1.23,1.23,0,0,0,.2-.1c.24-.18.31-.19.59,0,0,.19-.1.22-.32.13l-.29.21a1.38,1.38,0,0,1,.18.61c-.18-.06-.39-.56-.36-.82Zm10.56,13.32a.54.54,0,0,1-.55.23.2.2,0,0,1-.14-.31l.07-.09s0,0,0,0a.11.11,0,0,1,0-.17.22.22,0,0,1,.23-.07c.09,0,.14.07.13.15a1.48,1.48,0,0,1,0,.19c.25,0,.25,0,.36.11Zm-2-6.69a.53.53,0,0,1-.32.27.23.23,0,0,1-.24,0,.61.61,0,0,1-.24-.57c0-.19.3-.33.51-.28s.11.05,0,.18h-.09c-.2,0-.28.12-.22.29l0,.1a.17.17,0,0,0,.2.08l.23,0ZM87,67.69c-.11.13-.14.3-.28.39s-.1,0-.07-.1l.26-.56a.12.12,0,0,1,.13-.09c.08,0,.1,0,.13.09.08.23.18.45.27.68a.3.3,0,0,1,0,.32c-.27-.19-.24-.49-.39-.73ZM96.3,63c.13,0,.13,0,.24.16l.08-.07a.31.31,0,0,1,.5.1.62.62,0,0,1,0,.59c-.23-.14-.22-.37-.29-.55-.16,0-.26.07-.27.2s0,.17,0,.25a.53.53,0,0,1,0,.16A1.52,1.52,0,0,1,96.3,63Zm13.29-2.67-.17.09c-.12-.1-.12-.18,0-.25a.4.4,0,0,1,.16-.08c.2,0,.32,0,.31.22l0,.16c.12,0,.26,0,.37,0a.36.36,0,0,1-.25.3l-.12,0c-.22.06-.39-.07-.35-.26a1.07,1.07,0,0,1,.07-.19s0,0,0-.08ZM105,68.82c-.19-.1-.19-.25-.24-.38-.18.07-.07.27-.23.35s-.14-.15-.21-.25l-.1.29c-.18,0-.21-.21-.12-.52h.35a.17.17,0,0,0,.11-.06c.21-.12.38-.07.45.14a1,1,0,0,1,0,.25,1.08,1.08,0,0,1-.05.19ZM90.31,66.75c.23,0,.19.19.29.27s.07-.08.1-.12a.29.29,0,0,1,.21-.14.23.23,0,0,1,.23,0,.18.18,0,0,1-.06.21c-.22.11-.22.29-.24.46a.42.42,0,0,1-.06.21c0,.06-.09.07-.14,0a.47.47,0,0,1-.09-.12l-.24-.75s0,0,0-.07Zm17.22-6.26.23-.05H108s.08,0,.08.07-.08.21-.16.23l-.39.07a.2.2,0,0,1-.22-.06c0-.07-.09-.13,0-.21a2.86,2.86,0,0,0,.18-.35c-.13,0-.18.07-.24.13s-.16-.15,0-.22a.73.73,0,0,1,.3-.12.17.17,0,0,1,.2.17.55.55,0,0,1,0,.17s0,.1,0,.17Zm9.35-4a5.51,5.51,0,0,1,.53-.92l0,0c-.21.54-.41,1.09-.62,1.63,0,0,0,0-.07.06a.16.16,0,0,1,0-.08.59.59,0,0,1,0-.23.79.79,0,0,0,0-.62,4.38,4.38,0,0,1-.12-.61s0-.1.08-.11.1.05.11.09c0,.24.08.47.13.74ZM91.54,62.85a2.21,2.21,0,0,1,.11.58l.15-.06c.22-.07.39,0,.4.22a.68.68,0,0,1-.23.52c-.07,0-.14.11-.23.08s-.24-.09-.26-.21a.3.3,0,0,1,0-.13,2.57,2.57,0,0,0,0-.83c0-.05,0-.11,0-.16Zm.42.7h0a.29.29,0,0,0-.25.41.34.34,0,0,0,.25-.41Zm27.2-1.78s0,0,0,.08l-.33,1.46s0,0,0,.08a.2.2,0,0,1-.11-.2,1.53,1.53,0,0,1,0-.3.34.34,0,0,0,0-.2c-.14-.26-.26-.53-.39-.79,0,0,0-.1,0-.13a.11.11,0,0,1,.14,0,.91.91,0,0,1,.09.17c.09.17.17.34.27.52l.14-.39a1,1,0,0,1,.16-.36Zm-23,2.07c-.2-.11-.19-.3-.28-.49a1.45,1.45,0,0,1-.06.19s0,.1-.1.11-.1,0-.13-.1a.66.66,0,0,0-.1-.18.34.34,0,0,0,0,.11c0,.07,0,.13,0,.2a1.31,1.31,0,0,1,0,.15.79.79,0,0,1-.19-.73c.12,0,.07.1.14.12a.76.76,0,0,1,.16,0c.07,0,.09,0,.13-.07a.27.27,0,0,1,.45.05,2,2,0,0,1,.12.34.31.31,0,0,1-.09.33Zm-1.66,0c.21,0,.39-.11.58,0a.25.25,0,0,1,0,.09.58.58,0,0,1-.53.21.31.31,0,0,1-.26-.38l.14-.26c-.07,0-.15.07-.2,0a.16.16,0,0,1,0-.21.57.57,0,0,1,.36-.16c.1,0,.17,0,.16.14a.76.76,0,0,1-.06.25,3.79,3.79,0,0,1-.18.34Zm2-9.66a1,1,0,0,1,0,.16c.18,0,.35-.13.55,0a.59.59,0,0,1-.31.35l-.2.09c-.1,0-.2.08-.28,0a.23.23,0,0,1-.11-.27c0-.08,0-.16.07-.24l0,0Zm-8.39,14a.71.71,0,0,1-.25.34,11.62,11.62,0,0,1-1.39,1l0,0s-.1.06-.15,0,0-.11,0-.15l.61-.47c.22-.16.42-.34.64-.51a2.66,2.66,0,0,1,.33-.21.53.53,0,0,1,.18-.05l0,0Zm8.69-10.4a1.45,1.45,0,0,1-.36-.65l-.2.11c-.11-.1-.11-.11,0-.2a2.91,2.91,0,0,1,.84-.62c.09,0,.09,0,.21,0l-.28.27a.16.16,0,0,0,0,.21,4.24,4.24,0,0,1,.23.59.36.36,0,0,1,0,.23,1.93,1.93,0,0,1-.39-.83l-.19.12c.08.19.17.37.25.55s.08.15,0,.23Zm9.16,3.77a.17.17,0,0,1-.13-.2q0-.21,0-.45a.33.33,0,0,0,.22,0,.27.27,0,0,1,.31,0l.25-.08c.12,0,.26,0,.28.12a3.43,3.43,0,0,1,.08.56c0,.06-.06.12-.1.2-.27-.14-.23-.35-.25-.56-.17.06-.11.24-.25.32s-.18-.23-.22-.39a.36.36,0,0,0-.13.26.27.27,0,0,1-.09.23Zm-4.49,7.35a1.3,1.3,0,0,1-.1.15.28.28,0,0,1-.46,0c-.24-.31.11-.67.41-.7a.22.22,0,0,1,.23.09s.06.11.1.17a1.82,1.82,0,0,0,.15.23.22.22,0,0,0,.2.09c.07,0,.12,0,.1.08a.22.22,0,0,1-.13.18.19.19,0,0,1-.23,0,3.08,3.08,0,0,1-.27-.25Zm-.19-.35h0c-.23.15-.25.21-.14.33a.46.46,0,0,0,.14-.33ZM87.21,70.23c.2.1.24.1.39,0a.42.42,0,0,0,.18-.35h-.22c-.15,0-.24-.12-.17-.24l.09-.15,0,0-.28.3c-.08,0-.1-.1,0-.17a1.35,1.35,0,0,1,.45-.44.17.17,0,0,1,.1,0c.1,0,.15,0,.14.1a2.33,2.33,0,0,1-.07.25l-.06.13h0c.32,0,.4.13.33.41a.77.77,0,0,1-.31.47.35.35,0,0,1-.53-.16.45.45,0,0,1,0-.08Zm8.13-15.72c-.12.12-.2.22-.3.31A.16.16,0,0,0,95,55c0,.1,0,.19.08.28a1.15,1.15,0,0,1,0,.6c-.1-.06-.14-.13-.22-.41a4,4,0,0,1-.12-.47l-.29.18q.09.21.18.39a1.58,1.58,0,0,1,.13.26.2.2,0,0,1,0,.23c-.14-.07-.14-.07-.43-.79l-.19.11s-.08.06-.13.06a.19.19,0,0,1-.13,0s0-.08,0-.11l.27-.2.9-.59c.08,0,.08,0,.26,0Zm.21,3.08-.12.14c-.12-.07-.16-.14-.1-.25a1.78,1.78,0,0,1,.24-.32.26.26,0,0,1,.28,0,.17.17,0,0,1,.09.21l-.12.49a.69.69,0,0,1,0,.13,2.21,2.21,0,0,1,.73-.22s0,.07,0,.08a3.36,3.36,0,0,1-.66.52c-.08,0-.16.1-.25,0s-.18-.16-.14-.28.09-.31.13-.47Zm20.72,8.84c.43-.07.8-.21,1.2-.24v0l-.11.1-.64.34a2.38,2.38,0,0,1-.38.11.3.3,0,0,1-.31-.11.25.25,0,0,1-.07-.3c.07-.12.15-.23.22-.34s0-.13.08-.2a.33.33,0,0,0-.32.06L116,66a.18.18,0,0,1-.17-.12.16.16,0,0,1,.05-.21.48.48,0,0,1,.42-.09.24.24,0,0,1,.19.31,2.12,2.12,0,0,1-.14.31l-.1.19Zm-2.72.51c0,.16.06.3-.08.41a.19.19,0,0,1-.13-.16c0-.2-.1-.4-.14-.59,0,0,0-.12,0-.13a.26.26,0,0,1,.19,0,.74.74,0,0,1,.21.13l.13.12c.08-.13.17-.25.24-.37a.28.28,0,0,1,.21-.12c.12,0,.2,0,.24.11a2,2,0,0,1,.21.57.2.2,0,0,1-.08.2c-.24-.09-.26-.31-.39-.5L114,67c-.11.24-.15.25-.36.06l-.08-.07Zm-.51.55a.81.81,0,0,1-.44.31c-.24.08-.48.15-.73.21a.28.28,0,0,1-.37-.15.18.18,0,0,1,0-.21l.42-.52.15-.16a.82.82,0,0,0-.18,0l-.68.15c-.12,0-.12,0-.19-.08a3.16,3.16,0,0,1,1.5-.33c0,.11,0,.19-.09.27s-.18.18-.27.27-.21.24-.31.37a2.54,2.54,0,0,1,1.17-.15ZM91.16,65.92c-.18,0-.18.16-.26.24s-.15-.1-.13-.19a.43.43,0,0,1,.38-.31c.16,0,.25,0,.26.18s0,.21,0,.31v.17l.5-.12s0-.12-.06-.19a1.21,1.21,0,0,1,0-.18.07.07,0,0,1,0-.06.12.12,0,0,1,.08,0,.25.25,0,0,1,0,.09c.08.16.15.33.24.51a1.71,1.71,0,0,1,.11-.14.29.29,0,0,1,.43,0,1.2,1.2,0,0,1,.15.24,2.53,2.53,0,0,1,.12.36s0,0,0,.09c-.28-.1-.33-.34-.46-.53a.27.27,0,0,0-.12.3.42.42,0,0,0,0,.16.21.21,0,0,1-.07.23c-.11,0-.14-.09-.17-.16s-.13-.31-.2-.47A1.25,1.25,0,0,1,92,66.3l-.14.1a2.67,2.67,0,0,1-.32.24.18.18,0,0,1-.27,0,.37.37,0,0,1-.09-.3l0-.37Zm-2.3,1.43-.26.15a.12.12,0,0,1-.16,0,.09.09,0,0,1,0-.15l.32-.25c.3-.2.59-.41.89-.6a.85.85,0,0,1,.28-.1.36.36,0,0,1,.17,0c-.06.22-.26.3-.44.42A1.79,1.79,0,0,1,90,68.09c0,.07-.07.12-.11.19-.16-.1-.15-.11-.11-.26a.74.74,0,0,0,0-.21,2.14,2.14,0,0,0-.21-.87l-.46.28c0,.24.11.47.16.71a2.32,2.32,0,0,1,.06.38.34.34,0,0,1,0,.17.09.09,0,0,1-.17,0,.48.48,0,0,1,0-.17c0-.28-.07-.57-.11-.85l0-.12Zm19-12.2.48-.2,1-.31a1.23,1.23,0,0,1,.19,0l0,0s0,.05-.08.06l-.88.4a3.58,3.58,0,0,0-.32.18l.22.11c0,.11-.13,0-.18.07a2.57,2.57,0,0,1,.29.28.22.22,0,0,1,0,.18s0,0-.09.06,0,0-.07-.06,0,0,0,0l-.55-.31c0,.17,0,.33-.05.49-.16-.08-.06-.29-.26-.35-.21.14-.47.23-.61.47-.11,0-.14-.09-.07-.17a1.26,1.26,0,0,1,.22-.24.68.68,0,0,0,.12-.12c-.2.08-.44.09-.56.29-.16-.06-.18-.13,0-.22a2.71,2.71,0,0,1,.34-.18l.4-.18a3.45,3.45,0,0,0-1-.15l0,.1-.15-.09c-.09-.06-.07-.15,0-.16a5.54,5.54,0,0,1,.56-.05l.26,0c0-.13-.21-.19-.2-.33a.15.15,0,0,1,.2,0l.22.18a.24.24,0,0,0,.27,0c0,.06,0,.16.11.15,0-.18.07-.37.11-.55a1.19,1.19,0,0,1,.08-.2.08.08,0,0,1,.12,0c0,.14-.08.26-.08.4s0,.27,0,.43Zm10.4,15.06c-.07.13-.1.14-.22.11a.54.54,0,0,1-.19-.08,8.31,8.31,0,0,0-2-.73l-1.8-.44c-.33-.08-.25,0-.45-.28l-.14.08c.21.25.42.49.62.74l.16.24a.13.13,0,0,1,0,.18.15.15,0,0,1-.19,0,.83.83,0,0,1-.21-.16l-.32-.4-.31-.39-.06-.08c-.11-.18-.1-.22.11-.3a6.25,6.25,0,0,0,.94-.45c.07,0,.07,0,.2,0,0,.25-.31.29-.45.45l.18.07c.59.16,1.18.31,1.77.48a10.17,10.17,0,0,1,1.55.55l.11.06.7.41Zm-27-14.94a3.48,3.48,0,0,1,2.22.67,2.57,2.57,0,0,1,1.07,1.67,3.32,3.32,0,0,1-1.09,3A4,4,0,0,1,91,61.78a3.42,3.42,0,0,1-3.25-1.31,2.63,2.63,0,0,1-.54-2,3.22,3.22,0,0,1,1.08-2,4.18,4.18,0,0,1,1.16-.74s.07-.07.11-.1a.75.75,0,0,1,.15-.09,4.51,4.51,0,0,1,1.59-.28ZM94,57.05h0l-.14.07c-.37.21-.72.42-1.1.61-.66.33-1.34.64-2,1a.29.29,0,0,1-.19-.18c0-.1,0-.18.13-.2a.6.6,0,0,0,.26-.11l.35-.19a25.41,25.41,0,0,0,2.33-1.18l.18-.11a3.11,3.11,0,0,0-2.38-1.1,3.68,3.68,0,0,0-1.58.26s-.08,0-.1,0-.17,0-.24,0a4.17,4.17,0,0,0-1.17.89,2.64,2.64,0,0,0-.71,2.64,3,3,0,0,0,3.55,1.93,3.86,3.86,0,0,0,1.8-.81A3.12,3.12,0,0,0,94.21,58a2.15,2.15,0,0,0-.25-1Zm14.57,9.87h0l-.16-.11c-1.31-.82-2.62-1.65-4-2.46a31.66,31.66,0,0,1-4.49-3.24l-.4-.34c-.35-.29-.71-.58-1-.88s-.41-.41-.61-.62l-.1-.1c0,.07,0,.11,0,.14,0,.42,0,.85,0,1.27s0,.57,0,.86c0,.49.05,1,.08,1.46s.05.91.08,1.36,0,.8.07,1.2c0,.24,0,.48,0,.72h.16a7.46,7.46,0,0,1,1.16-.09.8.8,0,0,1,.15,0,3.14,3.14,0,0,0,.07,1c.57,0,1.12-.06,1.68-.07s.84,0,1.25,0l1.87,0,1,0,2-.05,1,0,.11,0Zm-9.22.29h0v-.86a4.88,4.88,0,0,0-1.14.09l-.09.81a5.63,5.63,0,0,0,1.23,0ZM89.77,74.6a.15.15,0,0,1,.21.1c.08.18.16.36.25.54a1.47,1.47,0,0,0,.09.17c.05-.16.08-.28.12-.41.13-.4.27-.8.41-1.2a4.26,4.26,0,0,0,.25-1l0-.15c0-.13.08-.18.23-.13a3.1,3.1,0,0,0,.86.07l1.36,0,1.61,0h1.74l2,0,1.95,0,2.72,0,2.73,0c.62,0,1.23,0,1.85-.08l1.07-.07.79-.06c.16,0,.24,0,.29.16a5.21,5.21,0,0,0,.55-.08,5.89,5.89,0,0,1,1-.09l.81,0c.16,0,.2,0,.14.18s-.1.15-.25.15a9.18,9.18,0,0,0-2,.1,2,2,0,0,1-.81,0,2.78,2.78,0,0,0-.91,0l-.88,0c-1,.07-2,.06-3,.07-1.19,0-2.38,0-3.56,0L98.23,73l-1.68,0-2.57,0-2,0c-.2,0-.4,0-.61,0,0,0,0,0,0,.06a5.94,5.94,0,0,1-.4,1.47l-.39,1.2s0,.1,0,.15,0,.08,0,.11-.09.08-.13.13a1.5,1.5,0,0,1-.13-.11,4,4,0,0,1-.53-1.16V74.6Zm17.36.88H107s0-.07,0-.1a.68.68,0,0,1,.32-.37s0,0,0,0a.82.82,0,0,1,.23,0c.08,0,0,.12,0,.18l-.2.37.43,0,.14,0s0,.09,0,.12a.78.78,0,0,1-.61.27.2.2,0,0,1-.18-.1.38.38,0,0,1,0-.36Zm7-4.51a.23.23,0,0,1,.13.33.37.37,0,0,1-.13-.33Zm-4.43,3.92a.24.24,0,0,1-.18.16.87.87,0,0,1-.53,0,.14.14,0,0,1-.12-.16,3.24,3.24,0,0,1,.83,0ZM127.53,71v0a1.4,1.4,0,0,1-.83.25c-.12,0-.13,0-.21-.17.09-.1.22,0,.33-.07l.37-.05a.66.66,0,0,1,.34,0Zm-1.15-.25c.11,0,.21-.05.32-.06a1.06,1.06,0,0,1,.5,0c.09,0,.18.06.15.19-.24,0-.49.05-.74.06s-.17,0-.23-.18Zm-7.16,5.74a1.31,1.31,0,0,1,1,0,.81.81,0,0,1-.43.14,3.62,3.62,0,0,1-.47,0c-.12,0-.13,0-.15-.16Zm-18.35-4.6s-.06,0-.1.06a3,3,0,0,1-1,.17c-.17,0-.17,0-.21-.16a2.46,2.46,0,0,1,1.26-.07Zm-1.13-.5a2.11,2.11,0,0,1,1.17-.05l-.11.09a1.34,1.34,0,0,1-.56.12l-.26,0c-.19,0-.19,0-.24-.18ZM120.12,76a.44.44,0,0,1-.38.19c-.21,0-.42,0-.64,0a.11.11,0,0,1-.11-.11s0-.08.05-.09a1.81,1.81,0,0,1,1,0l.05,0Zm1.63-5.71,0,.1a1.42,1.42,0,0,1-.08.18.41.41,0,0,0,.12.52.32.32,0,0,1,.14.34.24.24,0,0,1-.22-.06.83.83,0,0,1-.3-.49.77.77,0,0,1,.2-.55s.08,0,.12-.07l0,0Zm-21.39,4a.23.23,0,0,1,.25.06.6.6,0,0,1,.19.46.9.9,0,0,1-.18.54l-.05,0h0c-.12-.08-.14-.13-.1-.26s.07-.18.09-.27a.45.45,0,0,0-.09-.43.6.6,0,0,1-.08-.16Zm5.33,1.2c-.07.12-.12.14-.23.1a.57.57,0,0,1-.31-.28.88.88,0,0,1,0-.82,2.26,2.26,0,0,1,.11-.22.73.73,0,0,1,.09-.08c.06.06,0,.11,0,.16a1.33,1.33,0,0,0-.09.52,1,1,0,0,0,.32.58.47.47,0,0,0,.14,0Zm17.81-4a1.66,1.66,0,0,0-.06-.21.24.24,0,0,1-.24-.19c0-.09.16,0,.24-.08a2.79,2.79,0,0,1,.1-.39.47.47,0,0,1,.14-.18s.06,0,.13,0a.84.84,0,0,0-.12.6l.32,0a.2.2,0,0,1-.18.16c-.14,0-.23.09-.24.23s0,0,0,0ZM95.84,75a2.67,2.67,0,0,1,.4,0,2.24,2.24,0,0,0,.52,0,1,1,0,0,1,.46,0,.88.88,0,0,1-.51.27,1.77,1.77,0,0,1-.76,0c-.1,0-.11-.09-.11-.2Zm-3.19.91a.14.14,0,0,1-.21,0,.68.68,0,0,1-.24-.2,2.09,2.09,0,0,1-.22-.48.75.75,0,0,1,.27-.71.12.12,0,0,1,.17,0,.13.13,0,0,1,0,.06.86.86,0,0,1-.07.1.64.64,0,0,0,0,.89c.09.1.17.22.27.33ZM111.21,75a.34.34,0,0,1-.12,0s-.1,0-.11,0,0-.1,0-.13a1.33,1.33,0,0,1,.26-.21.3.3,0,0,1,.21,0c.09,0,.09.09.09.16s0,.28,0,.42a.52.52,0,0,1-.1.34c-.06.08-.13.09-.18,0a.83.83,0,0,1-.07-.27c0-.09,0-.19,0-.31Zm-13,.39c-.09-.14-.09-.18,0-.27l.26-.26c0-.07-.19-.11-.17-.24s.22.11.37.13l.31-.24a.22.22,0,0,1,.27-.05c-.13.13-.25.26-.39.39l.18.1,0,.07s-.07.06-.1.06a2.07,2.07,0,0,1-.22,0l-.07,0-.49.38Zm5.25,0c-.31.05-.31.05-.38-.11s.1-.07.16-.08.28-.13.25-.3a.29.29,0,0,1,0-.09c0-.08.07-.1.16-.06a2.43,2.43,0,0,1,0,.3,2.07,2.07,0,0,1,.61,0c0,.08-.08.09-.13.11l-.44.19c-.07,0-.1,0-.11.11s-.06.16-.1.27c-.09-.11,0-.21-.08-.3Zm-4,1.33a.59.59,0,0,1-.19-.43c0-.16,0-.31,0-.47a.52.52,0,0,1-.13-.06c-.07-.06-.05-.14,0-.19a.32.32,0,0,1,.27,0c.09,0,.1.1.11.17,0,.22.07.43.1.65a.36.36,0,0,1-.15.37Zm24.92-.2a.46.46,0,0,1-.19-.31,2.42,2.42,0,0,1-.06-.46s0-.13.06-.13.08.06.15.1l.14-.06a2.27,2.27,0,0,1,.35-.05c.27,0,.36.14.25.38a.63.63,0,0,0-.71,0,1,1,0,0,1,0,.53ZM93.72,75.22l-.4.54c-.11,0-.09-.09-.06-.14l.21-.38.12-.15-.16-.15a1,1,0,0,1-.18-.17s0-.07,0-.11.1,0,.14,0,.14.1.22.15l.13.08c.13-.09.16-.25.39-.3l-.27.4a1.14,1.14,0,0,1,.16.14,1,1,0,0,1,.13.22c0,.07-.06.11-.13.07l-.29-.2Zm24.09,2.27a.23.23,0,0,1-.14-.19,4.07,4.07,0,0,1,0-.49s0-.11.1-.13a2,2,0,0,0,.07.23l.07,0a.37.37,0,0,1,.39-.11.31.31,0,0,1,.23.26.94.94,0,0,1,0,.29s0,.06-.06.09c-.18-.08-.21-.23-.29-.36a.39.39,0,0,0-.21.26.23.23,0,0,1-.11.2ZM112,74a.59.59,0,0,1,.2,0,.6.6,0,0,1,.37.7,2.17,2.17,0,0,1-.54.82.17.17,0,0,1,0-.21c.05-.14.11-.28.17-.41a.91.91,0,0,1,.07-.14.39.39,0,0,0-.11-.54A.25.25,0,0,1,112,74Zm13.37-2.62s0-.08,0-.12l.27-.59a1.84,1.84,0,0,0,.09-.25c.05-.15,0-.21-.14-.3a.57.57,0,0,1-.13-.08.15.15,0,0,1,0-.12.25.25,0,0,1,.13,0,.56.56,0,0,1,.47.37.85.85,0,0,1,0,.32,1.68,1.68,0,0,1-.51.76l-.09.06ZM94.81,75.77c-.16,0-.2.09-.29.13s-.11-.14,0-.19a.91.91,0,0,1,.3-.13.15.15,0,0,1,.2.17,1,1,0,0,1-.09.24c-.09.15-.2.29-.3.44h.7s0,.08-.06.1a.94.94,0,0,1-.78.2.19.19,0,0,1-.14-.33l.39-.47a1.29,1.29,0,0,0,.09-.16Zm12.28-1.28v0L106.56,76c-.06.17-.14.33-.21.49l-.08.13c-.11,0-.1-.1-.09-.16s.08-.35.14-.52.16-.38.23-.55c-.15-.23-.28-.45-.41-.67,0,0,0,0,0-.08a.13.13,0,0,1,.18.06l.34.43c0-.08.07-.16.11-.23l.11-.22a1.73,1.73,0,0,1,.17-.21l0,0Zm15.52-3.26c.12-.22.24-.44.37-.66h0c0,.06,0,.12,0,.18l-.42,1-.09.2.13,0a.53.53,0,0,1-.27.3.19.19,0,0,1-.12-.25,1.42,1.42,0,0,1,.17-.4.24.24,0,0,0,0-.29,5.84,5.84,0,0,1-.33-.53s0-.1,0-.11a.26.26,0,0,1,.15,0s.06,0,.08.06a1.74,1.74,0,0,0,.1.19l.19.36Zm-12.54,4.9a.19.19,0,0,1-.09-.21,2.42,2.42,0,0,1,.24-.61l.16-.33c-.29-.08-.49-.22-.54-.48a.17.17,0,0,1,.22,0l.25.22a1,1,0,0,1,.1.14.54.54,0,0,0,.1-.13c.09-.15.17-.31.25-.46a.28.28,0,0,1,.08-.11l.06,0a.1.1,0,0,1,0,.07.32.32,0,0,1,0,.09c-.2.49-.4,1-.61,1.46a1.16,1.16,0,0,1-.23.36Zm-8.16-1.79c.24,0,.44-.13.66,0a.51.51,0,0,1-.36.32,2,2,0,0,1-.35.06c-.09,0-.21,0-.27,0a.26.26,0,0,1,0-.32,2.75,2.75,0,0,0,.17-.29.91.91,0,0,0,.07-.14l0,0-.19.13c-.13-.1-.15-.2,0-.29a.48.48,0,0,1,.39-.08c.13,0,.2.11.18.23s-.07.21-.1.31,0,.09-.08.16Zm11-.66-.08-.11,0,0a.6.6,0,0,1,.37-.09c.18,0,.27.09.22.24a1.34,1.34,0,0,1-.13.27l-.14.26c.33,0,.63-.18,1-.08a.38.38,0,0,1-.09.14.82.82,0,0,1-.42.2l-.37.06a.33.33,0,0,1-.38-.18.17.17,0,0,1,0-.19l.19-.31c0-.07.07-.13.13-.22l-.31.06Zm10.23,3.1a.45.45,0,0,1,.09-.1.29.29,0,0,1,.43,0,1.68,1.68,0,0,1,.16.46c0,.06,0,.14-.06.2a.09.09,0,0,1-.15,0,.83.83,0,0,1-.14-.22c0-.06,0-.13,0-.22a1,1,0,0,1-.13.19s-.09.11-.12.1a.36.36,0,0,1-.15-.1,1.42,1.42,0,0,1-.11-.18c-.16.15,0,.38-.22.52,0,0-.09-.07-.11-.12s-.08-.29-.12-.44,0-.1.07-.08a.13.13,0,0,0,.16,0,.35.35,0,0,1,.31-.07l.14,0Zm-2.44-5.89-.47.2a.93.93,0,0,1-.2.63c-.2-.15-.11-.35-.18-.53-.15,0-.3,0-.35-.14s.17-.07.26-.09.14-.06.14-.15,0-.26,0-.42h-.26c-.13,0-.15,0-.18-.18a2.75,2.75,0,0,1,.57,0c.14,0,.19.09.18.22s0,.3,0,.46h.49v0Zm2.37,5.44c-.31,0-.41-.27-.57-.46l-.1.19a.42.42,0,0,1-.36.25.41.41,0,0,1-.36-.25.55.55,0,0,1,.55-.79.44.44,0,0,1,.16.06,2.29,2.29,0,0,1,.27.27,2.25,2.25,0,0,1,.24.3,3.84,3.84,0,0,1,.18.35s0,0,0,.08Zm-1-.26h0a.94.94,0,0,0,.09-.12c.08-.17.14-.35.21-.52a.12.12,0,0,0-.16,0,1.34,1.34,0,0,0-.28.18c-.16.16-.11.34.14.49ZM124.29,71c-.21-.1-.24-.22-.09-.39a.67.67,0,0,1,.46-.22c.22,0,.32.08.26.26a3.27,3.27,0,0,1-.17.31l-.13.21c.17,0,.34,0,.49,0a1,1,0,0,1-.54.38.25.25,0,0,1-.25-.07.29.29,0,0,1-.07-.41l0-.09v0Zm-7.05,5.94a.32.32,0,0,1-.24-.16c-.07-.11-.12-.22-.19-.34l-.11-.18a2.49,2.49,0,0,1-.11.27c0,.1-.11.21-.26.21s-.21-.1-.27-.2a.61.61,0,0,1,.39-.82.27.27,0,0,1,.32.1c.14.23.29.45.42.68a1,1,0,0,1,.1.29s0,.1-.05.15Zm-1-.46h0a.76.76,0,0,0,.18-.61c-.28.15-.35.41-.18.61ZM98.46,71.06c.06-.24,0-.5.09-.72h0s0,.07,0,.11c0,.25,0,.51,0,.76a1.13,1.13,0,0,0,0,.18c0,.1,0,.2,0,.3a.21.21,0,0,1-.17.23s-.09.06-.14.1c-.3.24-.56.18-.7-.15a.59.59,0,0,1,.46-.8,2.25,2.25,0,0,1,.26,0Zm.05.68h0a1.82,1.82,0,0,0-.06-.35.16.16,0,0,0-.2-.1.34.34,0,0,0-.25.5.14.14,0,0,0,.19.06l.32-.11Zm29,3a.27.27,0,0,1-.25.17,1.41,1.41,0,0,1-.29,0,.14.14,0,0,1-.15-.12c0-.07.07-.08.13-.09l.32,0a.25.25,0,0,1,.24.09Zm2.89,3.41a3.29,3.29,0,0,1,.44-.05v.24l-.1,0c-.21,0-.3,0-.34-.21Zm-4.25-3.35a.26.26,0,0,0-.19.24.31.31,0,0,1-.11.23.57.57,0,0,1-.17-.66l.15.06a.43.43,0,0,1,.61,0,.49.49,0,0,1,0,.51c-.05.07-.12.08-.17,0a2.52,2.52,0,0,1-.15-.33Zm2.74.19a.51.51,0,0,1-.24-.34c-.19.06-.15.25-.28.33-.19-.07-.21-.21-.22-.36-.22,0-.25,0-.25.22v.27h0a.23.23,0,0,1-.07-.1c-.06-.17-.1-.35-.15-.53s0-.1.06-.12.1,0,.11.07l0,.07.13-.07a1.11,1.11,0,0,1,.25,0,.41.41,0,0,0,.22,0,.5.5,0,0,1,.21,0,.31.31,0,0,1,.36.22.48.48,0,0,1-.13.46Zm-.73,16.87a1.32,1.32,0,0,1-.25-.87l-.16.06-2.39,1-.09,0s0,0-.06,0a.06.06,0,0,1,0-.06l.12-.08c.35-.16.7-.33,1-.48l1.42-.63c.1,0,.1,0,.11-.17l-.31-.06a2.89,2.89,0,0,1-1.91-1.2,1.81,1.81,0,0,1,.2-2.33,3.3,3.3,0,0,1,1.92-1l.13,0a.11.11,0,0,1,.06,0l0-.93c0-.3,0-.6.08-.91a2.17,2.17,0,0,0-.47.32c-.14-.08-.16-.14-.06-.23s.25-.22.37-.33l.23-.19c.09-.09.12-.11.3-.08s-.05.19-.08.3l.38.2.23.17s.09.1,0,.17c-.27,0-.44-.23-.7-.34,0,.61,0,1.21,0,1.81l.38,0h.07a.59.59,0,0,1,.47,0,3.35,3.35,0,0,1,1.55.64l.06,0V87l-.26-.23a3.13,3.13,0,0,0-1.46-.58c-.11,0-.22,0-.28-.11a.07.07,0,0,0-.06,0,2.34,2.34,0,0,0-.46,0v1.54a.19.19,0,0,0,.07.18,17.6,17.6,0,0,1,1.41,1.08c.17-.12.34-.23.49-.36s.25-.13.4,0l.15.14v.4l-.4-.38-.51.3.62.44a.57.57,0,0,0,.29-.24v.5a3.44,3.44,0,0,1-1.9.86,2.28,2.28,0,0,0-.59.2c-.08,0-.07.09-.07.14s0,.36,0,.54a.6.6,0,0,1-.12.4Zm1.46-4.54a.29.29,0,0,1-.11.32c-.1-.08-.13-.17-.08-.26s.05-.07.19-.06Zm-.28-.17a.37.37,0,0,1-.3.31.36.36,0,0,1-.37-.21.17.17,0,0,1,0-.12.47.47,0,0,1,.53-.16.18.18,0,0,1,.13.18Zm-.29.06h0l-.19-.13-.06.1c.07.06.14.13.25,0Zm1,0-.09.15a.82.82,0,0,1-.16-.55s0-.09.1-.08a2.26,2.26,0,0,0,.11.22c.16,0,.26-.17.46-.12l-.13.17c.07.09.17.18.13.32a.61.61,0,0,1-.42-.11Zm.34-1.82a.65.65,0,0,1,.43,0v.07a.43.43,0,0,1-.31.08s-.07-.07-.12-.12Zm.32,6.19a.45.45,0,0,1-.21.4.19.19,0,0,1,0-.28c0-.06.05-.16.21-.12Zm.11-6.39-.15,0c-.16,0-.18,0-.25-.14s.15-.05.23-.05l.17,0v.14ZM129.49,91s0,.09,0,.14a.52.52,0,0,0,0,.47s0,.06,0,.07a.11.11,0,0,1-.08,0,.32.32,0,0,1-.14-.29,1.35,1.35,0,0,1,.18-.36.67.67,0,0,1,.12-.06l0,0Zm-1.13-8.75a.67.67,0,0,1-.06.12l-.7,1a.23.23,0,0,1-.17.13c-.09-.09-.1-.14,0-.24a3.11,3.11,0,0,1,.23-.28l.12-.14a.85.85,0,0,1-.35-.43.15.15,0,0,1,.21,0l.25.25c.18-.14.26-.34.44-.46l.05,0ZM130,91.39l.14,0c.12,0,.14.11,0,.2a.38.38,0,0,1-.39.1.37.37,0,0,1-.23-.26.21.21,0,0,1,0-.1.57.57,0,0,1,.11-.11s0,0,0,0-.16-.08-.14-.17.12-.08.2-.09h.11c.2,0,.26.12.2.27l-.07.15Zm-1.21-6.3c.17,0,.33-.15.52,0l.15-.12a.29.29,0,0,1,.47.15.25.25,0,0,1-.08.28c-.13,0-.14-.13-.23-.2l-.15.14-.11.14c-.16,0-.15-.14-.25-.21l-.17.26c-.17-.08-.21-.19-.15-.41Zm-.86,1h-.06l-.09,0a3.12,3.12,0,0,0-1.84,1,1.54,1.54,0,0,0-.15,1.93,2.64,2.64,0,0,0,1.87,1.13l.18,0,.09-4.13Zm.27,4.16h0a1.5,1.5,0,0,0,.74-.1l1.15-.56a.33.33,0,0,0,.1-.06c-.66-.52-1.23-1.11-1.95-1.58,0,.77,0,1.52,0,2.3Zm-10.8-2.13-.14-.08s0,0,0,0a.75.75,0,0,1-.26.2c-.21.12-.42.24-.62.37a5,5,0,0,1-2.3.73,6.51,6.51,0,0,1-2.2-.2c-.5-.15-1-.28-1.5-.44a2.35,2.35,0,0,1-.53-.25.57.57,0,0,1-.32-.52c0-.22,0-.43,0-.65s0-.57,0-.86,0-.52,0-.78c0-.91,0-1.82,0-2.74,0-.43,0-.86-.06-1.29s0-.61,0-.91a.53.53,0,0,0-.07-.3c-.11-.17-.07-.29.11-.41a2.56,2.56,0,0,1,.68-.28,11.72,11.72,0,0,1,1.67-.32,18.08,18.08,0,0,1,1.94-.14c.35,0,.69,0,1,0l1.33.08h.3a.3.3,0,0,1,.13,0,3.62,3.62,0,0,1,.93.23l.11.06a.28.28,0,0,1,.15.38.62.62,0,0,1-.28.32.14.14,0,0,0-.07.15c0,.29,0,.57.07.86,0,.62,0,1.25.08,1.87,0,.34,0,.69,0,1,0,.6,0,1.2,0,1.8s0,1.19,0,1.79a.43.43,0,0,1-.14.29Zm3.34-4-.46.11-.11.18c-.16-.09-.19-.17-.15-.32l.21-.79c0-.13,0-.26.08-.38s.05-.07.08-.1.1,0,.12.09.09.21.14.32c.13.27.26.55.4.82a.43.43,0,0,1,0,.41c0,.1-.12.12-.2,0s-.13-.1-.11-.2,0-.11,0-.17Zm-.44-.18h.35c-.07-.21-.15-.4-.22-.6h0c0,.19-.07.39-.1.59ZM113,91.87a.49.49,0,0,0-.1-.36c-.05-.06-.09-.15,0-.22l-.08-.09a.15.15,0,0,1,0-.22,1.05,1.05,0,0,1,.78-.08.15.15,0,0,1,.08.22,1,1,0,0,1-.1.16l.19.07c.16.08.2.16.12.3a.8.8,0,0,1-.22.26,3.05,3.05,0,0,1-.5.28.52.52,0,0,1-.39,0c-.15,0-.16-.13,0-.21l.19-.12Zm.11-.8h0a1.56,1.56,0,0,0,0,.16l.27-.13v0Zm.39.58h0v0h-.27l0,.18.23-.13ZM119.35,88a.53.53,0,0,1-.13-.44c0-.47,0-1,0-1.43,0-.24,0-.48,0-.73s-.06-.45-.07-.68c0-.48-.08-1-.11-1.45,0-.11,0-.21,0-.31,0-.27,0-.54-.07-.81s0-.58,0-.88,0-.68-.08-1a.65.65,0,0,0,0-.11l-.37.08a.25.25,0,0,1-.12,0,.1.1,0,0,1-.08-.06.08.08,0,0,1,0-.08,2.4,2.4,0,0,1,1-.21.17.17,0,0,1,.13.07.35.35,0,0,1-.06.16s-.08,0-.13.06l0-.08c-.1,0-.11,0-.1.11s.07.39.1.59c.06.4.09.81.17,1.21s.06.9.12,1.34a1.77,1.77,0,0,1,0,.23.22.22,0,0,1-.15.2c0,.26,0,.53.09.8a13.4,13.4,0,0,1,.18,1.79c0,.41,0,.81,0,1.22,0,.12,0,.24,0,.38a2.05,2.05,0,0,0,.48-.1s.06-.1.09-.15.17.14.12.25a.39.39,0,0,1-.33.26c-.16,0-.33,0-.49.06l-.57.09c-.08,0-.15,0-.19,0s0-.12.08-.15l.46-.14.16,0Zm-10,2.45a.19.19,0,0,1-.13.21l-.11-.16a.16.16,0,0,1-.2-.09c0-.12.08-.15.16-.21s0-.18,0-.27a.2.2,0,0,1,0-.11.31.31,0,0,1,.09-.07s0,.06,0,.09v.29a59.57,59.57,0,0,1,9-.43.53.53,0,0,0,0-.13.48.48,0,0,1,0-.12c0-.06,0-.13.09-.14s.09.08.11.13l0,.14a.14.14,0,0,0,.11.12c.12,0,.14.1.07.19a.49.49,0,0,0-.06.35,1,1,0,0,1,0,.29s-.07.07-.12.12a1.32,1.32,0,0,0,0-.29,1.62,1.62,0,0,0-.08-.27l-.76,0-1.66,0-1.47,0-1.38,0-1.15.07c-.29,0-.59,0-.88.06l-1.59.17-.07,0Zm.28-9.7h0v.06c.05.44.1.87.14,1.31s.06.92.08,1.38c0,.65,0,1.31,0,2,0,.3,0,.59,0,.88q0,.68,0,1.35c0,.46.08.56.57.72.33.11.67.22,1,.3a8.67,8.67,0,0,0,1.83.33,4.83,4.83,0,0,0,2.73-.61l1.07-.6,0,0a.17.17,0,0,0,.11-.18v-.45c0-.31.06-.62.06-.93,0-.84,0-1.68,0-2.52s0-1.95,0-2.93c0-.1,0-.19,0-.31l-.15,0-.45.13a15.69,15.69,0,0,1-3,.39l-.49,0h-1.3a.47.47,0,0,0-.43.11s0,0-.08,0l-.05-.16a.43.43,0,0,0-.32,0,1.71,1.71,0,0,0-.26-.07,3.26,3.26,0,0,1-.45,0c-.23-.05-.45-.13-.69-.2Zm6.62-1.15h0a16.52,16.52,0,0,0-2,0c-.48.42-1,.77-1.51,1.2.19,0,.34,0,.48,0a.38.38,0,0,0,.26-.11l.65-.59a4.09,4.09,0,0,1,.88-.52c0,.07,0,.12,0,.15s-.13.14-.21.21l-.65.52-.35.28a.77.77,0,0,0,.21,0,.33.33,0,0,0,.3-.13,4.37,4.37,0,0,1,1.08-.81l.17-.07,0,0a3.56,3.56,0,0,1-.49.46l-.53.45a1.82,1.82,0,0,0,.33,0,.4.4,0,0,0,.26-.12,4.69,4.69,0,0,1,1.09-.87l0,0Zm-3.52,0h0c-.46.37-.88.73-1.33,1.1h.13a.35.35,0,0,0,.31-.1,4.23,4.23,0,0,1,.51-.44c.22-.16.47-.31.71-.46a.21.21,0,0,1,.21,0l-.62.52a6,6,0,0,0-.61.52.61.61,0,0,0,.56-.13,5.83,5.83,0,0,1,1.31-1s0,0,.06-.06l-1.24.08Zm-.19,0h0l-.55.06a.49.49,0,0,0-.29.13l-.61.53-.35.3.31,0a.25.25,0,0,0,.21-.07,4.18,4.18,0,0,1,.44-.4c.26-.19.54-.37.84-.58Zm4.5.15h0l-.65.57a1.6,1.6,0,0,0,1-.45l-.38-.12Zm-.58-.1h0l-1,.82a.39.39,0,0,0,.32-.06,4.39,4.39,0,0,1,.84-.56l.25-.14-.38-.06Zm-6.26.87h0c.32.08.26.1.47-.09s.48-.4.73-.6l.1-.09A.73.73,0,0,0,111,80l-.17.13-.6.44Zm-.57-.24h0a.49.49,0,0,0,.28.17.16.16,0,0,0,.12,0l.65-.54a3.13,3.13,0,0,0-1.05.39Zm-8.94,7.15a.5.5,0,0,1-.16.92l-.27.07h-.14a.26.26,0,0,1-.22-.12.11.11,0,0,1,0-.16c0-.2-.06-.36-.08-.53a1.6,1.6,0,0,0,0-.23c0-.06,0-.12-.09-.16s-.08-.11,0-.19a.72.72,0,0,1,.93-.13.27.27,0,0,1,.12.37l-.07.15Zm-.53.64h.1l.16,0c.16-.06.18-.09.13-.26a.88.88,0,0,0-.39.08v.24Zm.32-.9h0a.37.37,0,0,0-.38-.07s-.08,0-.08.07,0,.18.06.29l.4-.29Zm-5-3.53a.12.12,0,0,1-.09-.16,4.62,4.62,0,0,1,.09-.65c0-.19.12-.38.18-.58a.36.36,0,0,1,.21-.21s0,0,0,.07a4.78,4.78,0,0,0,.45.87.35.35,0,0,1,0,.34.14.14,0,0,1-.11,0,.18.18,0,0,1-.08,0l-.53.13a2.22,2.22,0,0,0-.11.22Zm.61-.62h0c-.1-.24-.19-.47-.29-.7a2.48,2.48,0,0,0-.17.85l.46-.15Zm7.86-1.27a.84.84,0,0,1-.07.18,3.4,3.4,0,0,1-.32.34.62.62,0,0,1-.86-.07.59.59,0,0,1-.16-.52,1.9,1.9,0,0,1,.18-.57.56.56,0,0,1,.72-.17c.19.1.21.18.06.36l-.15-.09a.24.24,0,0,0-.35.08.88.88,0,0,0-.1.55.27.27,0,0,0,.36.18c.17,0,.32-.12.48-.18l.21-.09Zm.44,3.41h0l.14,0a4,4,0,0,0,1-.71,2.51,2.51,0,0,0,.82-2.15,2.31,2.31,0,0,0-.88-1.5,3.77,3.77,0,0,0-1.64-.77.54.54,0,0,1-.3-.13s-.1,0-.15,0a5.48,5.48,0,0,0-.81,0,4.82,4.82,0,0,0-2.28.71,2.94,2.94,0,0,0-.75.66,2.91,2.91,0,0,1,1.15,1.55h.09a4.07,4.07,0,0,1,1.83.46l.12,0a1.13,1.13,0,0,1,.22.08,3.1,3.1,0,0,1,1,.91,3,3,0,0,1,.44,1ZM99.1,81.34h0L99,81.25a3.52,3.52,0,0,0-1-.33.42.42,0,0,1-.26-.12.29.29,0,0,0-.14,0,4.31,4.31,0,0,0-.88,0,3.94,3.94,0,0,0-2.25,1,2.22,2.22,0,0,0-.76,2.44,3.11,3.11,0,0,0,2.64,2.08.4.4,0,0,0,.11,0,3.7,3.7,0,0,1,2.22-3,2.34,2.34,0,0,1,0-1,3.16,3.16,0,0,1,.4-.91Zm5,4.31h0a4.92,4.92,0,0,1-3.93-.44,4,4,0,0,1-3.37,1.44,2.88,2.88,0,0,0,1.22,2,3.75,3.75,0,0,0,3.37.51,3.85,3.85,0,0,0,2.38-1.89,2.86,2.86,0,0,0,.33-1.63ZM100.74,83h0a2.79,2.79,0,0,1-.43,1.94,4.43,4.43,0,0,0,3.71.35,2.39,2.39,0,0,0-.42-1,5.51,5.51,0,0,0-1-.93l0,0a4.16,4.16,0,0,0-1.25-.35,1.25,1.25,0,0,0-.51,0Zm-2,.45h0a3.38,3.38,0,0,0-2,2.79A3.53,3.53,0,0,0,99.85,85c-.18-.07-.24-.27-.45-.32,0,0,0,0,0-.06s0-.07,0-.07-.06-.11-.1-.13a.17.17,0,0,1-.11-.16s0,0-.05,0-.06,0-.06,0c0-.23-.2-.42-.25-.67Zm.55-2h0a2.22,2.22,0,0,0-.37,1.63,5.48,5.48,0,0,1,1.37-.33,2.4,2.4,0,0,0-1-1.3Zm1.12,2h-.05l-.72,1,.12.12.53-.54a.11.11,0,0,0,0-.09c0-.16.05-.33.08-.49Zm-.15-.26h0c-.16.21-.31.4-.45.6s-.21.27-.31.41a.25.25,0,0,0,0,.09l0,0,0-.06.77-.94a.22.22,0,0,0,0-.13.9.9,0,0,0,0-.16c-.22,0-.27,0-.35.27.09,0,.11-.13.26-.1Zm-.52-.08h0l-.43.6a1.1,1.1,0,0,0-.09.14s0,0,0,.08l.65-.86-.16,0Zm-.25.08h0c-.12.13-.25.26-.36.4s0,.07,0,.11h0l.35-.5Zm.51,1.56h0a1.16,1.16,0,0,0,.18-.37c-.22.22-.26.29-.18.37Zm-1-1.28h0l.12-.17c-.12,0-.19,0-.12.17Z"/><polygon class="cls-21" points="118.58 57.17 114.76 59.08 115.05 59.56 118.87 57.66 118.58 57.17 118.58 57.17"/><path class="cls-22" d="M90.13,74.27s-.66,0-.79.13.52,1.22.64,1.3.15-1.43.15-1.43Z"/><path class="cls-23" d="M88.73,76.49a27.44,27.44,0,0,0-3.38,6.09c-.81,2.58.86,9.14,1.15,10.94.08.49.15,1.34.21,2.37h15.44v-7.2c0-2.42-4.8-12.2-4.8-12.2s-8,.89-8.62,0Z"/><path class="cls-22" d="M102.15,95.89V88.62a3.3,3.3,0,0,1-2,.44,7.42,7.42,0,0,0-3.91,0c-1.21.5-2.8-.29-2.8-1.26a24.36,24.36,0,0,0-.43-3.9,4.85,4.85,0,0,0-2.91-3.43c-2.05-.77-2.18,0-2.18,0l.67.31,2.21,15.07Z"/><path class="cls-22" d="M86.06,80.87a12.47,12.47,0,0,0-.71,1.71c-.81,2.58.86,9.14,1.15,10.94.08.49.15,1.34.21,2.37h1.8c-.57-5.78-.7-12.22,1-15.07a3,3,0,0,0-3.45.05Z"/><path class="cls-24" d="M94.61,75.58s.68,3.65.68,4-5.53-1.38-5.53-1.38l.47-5s2.36,2.85,4.38,2.31Z"/><path class="cls-25" d="M95.46,76.12s.51.2,3-1.72S108.79,65,110,63.55s2.15-2.76,2.15-3.26a1.94,1.94,0,0,1,.65-1.53,2.64,2.64,0,0,1,1.17-.33c.27-.07.83-.28,1.09-.32a16.31,16.31,0,0,1,2.58-.77c.32.09,0,.59-.93,1s-1.64.58-1.71.93-.47,1.46-.1,1.08.49-.93.86-1.29.79-.65.88-.34a7.13,7.13,0,0,1-1.1,2.26,6.91,6.91,0,0,1-1.85,2c-.92.63-3.13,4.11-3.13,4.11s-3.7,6.23-6.07,8.53A46.66,46.66,0,0,1,99,80l-3.54-3.89Z"/><path class="cls-24" d="M108.62,65c.67-.67,1.17-1.19,1.42-1.48s.6-.71.86-1A8.09,8.09,0,0,1,113,63.66a32.76,32.76,0,0,0-2.14,3L108.62,65Z"/><path class="cls-23" d="M110.25,62.81s2.12.74,2.64,1.63l.53.88s-2.89,3.45-3.45,4.33-1.75,2.3-3.22,4.4A16.48,16.48,0,0,1,103,77.89c-.36.19-3.65,3.08-3.65,3.08l-4.56-4.15-.11-.62a15.09,15.09,0,0,0,3.46-1.52c.66-.63,1-1.39,1.49-1.56s1.15-1.15,1.57-1.38.24-.45,1.17-1.07a13.8,13.8,0,0,0,2.08-1.86l5.81-6Z"/><path class="cls-25" d="M97.64,70.87a10.46,10.46,0,0,1-.37,2.68A3.43,3.43,0,0,1,92,75.73a4,4,0,0,1-2.43-3.38,10.09,10.09,0,0,1,.65-3.1,13.35,13.35,0,0,1,1.08-1.47s.06,0,.57.53a1.82,1.82,0,0,0,1,.59L92.47,68A7,7,0,0,0,94,69.2a3,3,0,0,0,2,.21l-.49-.32a1.9,1.9,0,0,1-.59-1.2,7.45,7.45,0,0,0,1.9,1.55,1.67,1.67,0,0,1,.81,1.43Zm-8,1.48c0-.25-.08-.51-.12-.8-.06-.48-.11-1-.14-1.44l.26,2.24Z"/><path class="cls-26" d="M92.89,70.25a.53.53,0,1,0,.41.52.48.48,0,0,0-.41-.52Zm3.53,0a.53.53,0,1,0,.41.52.47.47,0,0,0-.41-.52Z"/><path class="cls-27" d="M95.11,70.53a9.06,9.06,0,0,0,.84,2.1c.18.18-1,.26-1,.26L95,73s1.51-.09,1.08-.51a9.58,9.58,0,0,1-.8-2l-.16,0Z"/><path class="cls-18" d="M96,73.76a6.51,6.51,0,0,1-1.45.08c-.75,0-1.58-.15-1.58-.15a2.33,2.33,0,0,0,1.64.71A1.74,1.74,0,0,0,96,73.76Z"/><path class="cls-26" d="M90.5,64.65c-3.38,0-3.34,5.51-1.77,7.09l1.4,1.38A19.47,19.47,0,0,1,90,70.06a5.81,5.81,0,0,1,1.38-2.28c.12,0,.87,1,1.56,1.12L92.47,68A3.27,3.27,0,0,0,96,69.41l-.49-.32a1.9,1.9,0,0,1-.59-1.2,7.45,7.45,0,0,0,1.9,1.55c1.06.57.79,2.08.79,2.08,2.25-2.61,1.24-5.78-2.1-7.13s-5,.26-5,.26Z"/><path class="cls-27" d="M96.49,73.18s.19.14-.15.83l.16.07c.39-.8.11-1,.11-1l-.12.11Z"/><path class="cls-27" d="M92,72.92a1.1,1.1,0,0,0-.06,1.16l.15-.07a1,1,0,0,1,.05-1L92,72.92Z"/><path class="cls-21" d="M89.34,74.4a6.8,6.8,0,0,0-1.06,2.19c0,.64,5,5.11,5,5.11l1.93-2.36s-5.82-3.15-5.89-4.94Z"/><polygon class="cls-28" points="96.34 77.98 95.51 80.87 94.67 76.2 96.34 77.98 96.34 77.98"/><polygon class="cls-29" points="95.23 79.34 95.5 80.82 94.29 80.49 95.23 79.34 95.23 79.34"/><path class="cls-23" d="M87.86,80.21a4.52,4.52,0,0,1,3.77,2.15C93,84.58,93,90.49,93,94.09c0,.52,0,1.14,0,1.8H88.06c0-.59-.12-1.14-.2-1.62-.6-3.6-2.32-8.15-2.07-10.76a3.75,3.75,0,0,1,2.07-3.3Z"/><path class="cls-25" d="M89.6,70.62a.8.8,0,0,0-.75,0c-.52.36-.17,2.23.82,2.12a5.8,5.8,0,0,1-.07-2.11Z"/><path class="cls-26" d="M97.19,69.87s-.94-.77-1.61.09l.23.14c.49-.62,1.19,0,1.19,0l.19-.19Zm-3.57,0A1.12,1.12,0,0,0,92,70l.23.14c.49-.62,1.19,0,1.19,0l.19-.19Z"/><polygon class="cls-21" points="96.34 77.98 96.62 79.76 95.96 79.31 96.34 77.98 96.34 77.98"/><path class="cls-22" d="M100.3,73.38s2-.1,2.82,1.08l.2-.11c-.86-1.28-3-1.18-3-1.18v.21Zm-1.39,1.1s2.43,2.13,1.22,4.62l.21.09c1.27-2.62-1.26-4.85-1.27-4.86l-.16.15Zm5.52-4.87a3.19,3.19,0,0,0,2.67,1v-.21a3,3,0,0,1-2.49-.89l-.18.11Zm-1.75,1.26a2.43,2.43,0,0,1,1.59,3.18l.21,0a2.63,2.63,0,0,0-1.73-3.43l-.07.2Zm-3.31,9.7a8.7,8.7,0,0,0-3.29-3.49l-.11.18a8.54,8.54,0,0,1,3.2,3.39l.2-.08Zm-5.18,2.2A8.06,8.06,0,0,0,99,86.84l.06-.19a7.89,7.89,0,0,1-4.63-4l-.2.08Zm-7.21,1s-.58,6.91,2.82,10.43l.16-.14C86.63,90.6,87.2,83.8,87.2,83.78l-.22,0Zm2.25,1.88s-.08,5.38,1.58,7.43L91,93c-1.61-2-1.53-7.29-1.53-7.31Z"/><path class="cls-24" d="M88.87,71.29s0-.35.26-.39.33.28.34.59-.06.8-.11.73-.24-.44-.32-.32-.36-.12-.17-.27.37.26.43,0-.13-.3-.31-.27-.12-.07-.12-.07Z"/><polygon class="cls-30" points="83.36 74.61 60.75 74.61 60.75 54.28 83.36 54.28 83.36 74.61 83.36 74.61"/><polygon class="cls-31" points="83.36 74.61 60.75 74.61 60.75 58.2 83.36 74.46 83.36 74.61 83.36 74.61"/><polygon class="cls-32" points="83.36 95.89 60.75 95.89 60.75 75.56 83.36 75.56 83.36 95.89 83.36 95.89"/><polygon class="cls-33" points="154.52 74.61 131.91 74.61 131.91 54.28 154.52 54.28 154.52 74.61 154.52 74.61"/><polygon class="cls-32" points="154.52 95.89 131.91 95.89 131.91 75.56 154.52 75.56 154.52 95.89 154.52 95.89"/><path class="cls-31" d="M154.52,95.89H131.91V92.44c1.53-1.44,3.87-2.29,3.08-4.51-1.24-3.51-2.66-3.82,1.68-7.67s9.53-4.5,16.79-.38l1.06.63V95.89Z"/><polygon class="cls-33" points="83.36 53.33 60.75 53.33 60.75 33 83.36 33 83.36 53.33 83.36 53.33"/><polygon class="cls-33" points="130.8 53.33 108.19 53.33 108.19 33 130.8 33 130.8 53.33 130.8 53.33"/><polygon class="cls-31" points="154.52 53.33 131.91 53.33 131.91 33 154.52 33 154.52 53.33 154.52 53.33"/><path class="cls-34" d="M71.39,34.81a2.08,2.08,0,0,0-3,1.52,2.94,2.94,0,0,0-2.32.45,1.59,1.59,0,0,0-.65,2A2.35,2.35,0,0,0,64,40.56a2.45,2.45,0,0,0,.36,1.95,2.5,2.5,0,0,0,0,2.23c.61.92.77.76.77.76a1.53,1.53,0,0,0,.63,1.55,4.36,4.36,0,0,0,2.24.64s.12.56,1.06.67a2.36,2.36,0,0,0,1.47-.25,3.27,3.27,0,0,0,1.82.59,1.59,1.59,0,0,0,1.41-.64,3.36,3.36,0,0,0,2.41,0,1.39,1.39,0,0,0,.73-1.41,1.72,1.72,0,0,0,2-.45c1.09-1,.5-1.77.5-1.77A1.83,1.83,0,0,0,80.72,43a1.93,1.93,0,0,0-1-2,2.38,2.38,0,0,0,.41-2.23,1.53,1.53,0,0,0-1.83-1.16s.43-.66-.31-1.6-2.4-.68-2.4-.68a2,2,0,0,0-1.14-.92,1.16,1.16,0,0,0-1.16.35,1.38,1.38,0,0,0-1.86.08Z"/><path class="cls-35" d="M71.51,49a13.24,13.24,0,0,0-3.07.74,5.33,5.33,0,0,0-2.77,2.58,6.46,6.46,0,0,0-.09,1H79.72C78.66,50,76.36,48.7,71.51,49Z"/><path class="cls-36" d="M69,49.53a3.65,3.65,0,0,0-.53.2,5.33,5.33,0,0,0-2.77,2.58,6.46,6.46,0,0,0-.09,1H69v-3.8Zm10.75,3.8a5.47,5.47,0,0,0-3.64-3.93v3.93Z"/><path class="cls-37" d="M74,46.66s-.31,1.83,0,2.22a1.75,1.75,0,0,0,1,.52A4.51,4.51,0,0,1,72,50c-1.74-.23-1.56-.62-1.56-.62s.79,0,.82-.52,0-1.85,0-1.85A3.29,3.29,0,0,0,74,46.66Z"/><path class="cls-38" d="M75.86,42.81s.06-.39.94-.15.18,2-.47,2.14-.78,0-.78,0l.31-2Z"/><path class="cls-38" d="M68.65,42.81s-.05-.39-.94-.15-.17,2,.47,2.14.79,0,.79,0l-.32-2Z"/><path class="cls-38" d="M74,46.66a9.81,9.81,0,0,0-.13,1.71,3.79,3.79,0,0,1-2.59.17c0-.6,0-1.55,0-1.55A3.29,3.29,0,0,0,74,46.66Z"/><path class="cls-37" d="M75.18,39.33c.73.81,1.23,2.19.64,5.31a3.61,3.61,0,0,1-7.12,0c-.59-3.12-.12-4.47.64-5.31s5.1-.84,5.84,0Z"/><path class="cls-34" d="M70.75,42.12c.17,0,.3.17.3.39a.34.34,0,0,1-.3.38.35.35,0,0,1-.31-.38.35.35,0,0,1,.31-.39Z"/><path class="cls-34" d="M74,42.12c.17,0,.3.17.3.39a.34.34,0,0,1-.3.38.35.35,0,0,1-.31-.38.35.35,0,0,1,.31-.39Z"/><path class="cls-39" d="M69.58,41.55a1.42,1.42,0,0,1,1.82,0l-.22.2c-.62-.6-1.4,0-1.4,0l-.2-.21Zm5.35,0a1.4,1.4,0,0,0-1.81,0l.22.2c.61-.6,1.4,0,1.4,0l.19-.21Z"/><path class="cls-40" d="M71.69,43.94a1,1,0,0,0,1.13,0l.19.21a1.25,1.25,0,0,1-1.5,0l.18-.21Z"/><path class="cls-40" d="M71.14,45.19a2.35,2.35,0,0,0,2.3.09l.13.25A2.75,2.75,0,0,1,71,45.42l.18-.23Z"/><path class="cls-35" d="M76.4,40.07a2.7,2.7,0,0,0-1.71-1.33,7.39,7.39,0,0,0-4.87,0,2.7,2.7,0,0,0-1.7,1.33c-.94-3.69,9.21-3.69,8.28,0Z"/><path class="cls-18" d="M82.08,53.33H62.22a.57.57,0,0,1,0-.13V52a1.13,1.13,0,0,1,1.17-1.08H80.92A1.12,1.12,0,0,1,82.08,52v1.31Z"/><path class="cls-15" d="M138.92,62.51a1.13,1.13,0,0,0,1,1.19.61.61,0,0,0,.51-.26l-.2-1.45c-.54-.35-1.23-.2-1.29.52Z"/><path class="cls-15" d="M148.25,62.51a1.13,1.13,0,0,1-1,1.19.64.64,0,0,1-.51-.26L147,62c.55-.35,1.24-.2,1.29.52Z"/><path class="cls-36" d="M142.75,68.26a4.35,4.35,0,0,1-2.43.77,3.62,3.62,0,0,0-3.74,1.43,27.37,27.37,0,0,0-1.79,4.15h16.84a6.58,6.58,0,0,0-1-3.83,5,5,0,0,0-3.45-1.91s-3.93.51-4.39-.61Z"/><path class="cls-41" d="M137.62,74.61H138c.39-1.49,1.1-3.37,1.11-3.38l-.33-.1s-.74,2-1.14,3.48Zm11.06,0H149c-.4-1.53-1.13-3.47-1.13-3.48l-.34.1s.72,1.89,1.11,3.38Z"/><path class="cls-16" d="M145.25,65.72s-.07,2.32.39,2.72a2.86,2.86,0,0,0,1.5.43,11.09,11.09,0,0,1-3.68.86,3.83,3.83,0,0,1-2.34-.74s1.07-.33,1.15-.9a14.75,14.75,0,0,0,0-2s2.7.09,3-.33Z"/><path class="cls-15" d="M145.25,65.72s0,.73,0,1.44a3.92,3.92,0,0,1-2.41.22,4.74,4.74,0,0,1-.57-.16c0-.6,0-1.17,0-1.17s2.7.09,3-.33Z"/><path class="cls-16" d="M144.09,58.53a27.86,27.86,0,0,0-2.81.45c-1.12.27-1.31,1.54-1.35,2.14a7.37,7.37,0,0,0,0,1.14s0,3.59,2.95,4.15a3.28,3.28,0,0,0,4.2-2.75,26.44,26.44,0,0,0,0-3.25c0-.52-.88-1.88-3-1.88Z"/><path class="cls-42" d="M147.13,63c.51-.85,1.75-3.27,1.12-5.29-.23-.77-1.58-1.53-1.56-1.2s.83.65-.69-.11a9.27,9.27,0,0,0-4.65-.71c-.92.13-1,.39-.62.56a2.66,2.66,0,0,1,.56.27,4.56,4.56,0,0,0-3.06.88c-.32.2.24.46.24.46s-.53,0-.75,1.16-.21,1.9,0,1.93.64-.7.64-.7a11.62,11.62,0,0,0,.81,1.94,9.32,9.32,0,0,0,.88,1.1,7.45,7.45,0,0,1,.09-2.76c.36-1.07,2.06-1.47,2.92-1.6s2.12-.26,2.12-.26,1,.73,1.45,1.1.5,3.23.5,3.23Z"/><path class="cls-14" d="M142.27,61.27a.42.42,0,0,1,.37.47.37.37,0,1,1-.73,0,.43.43,0,0,1,.36-.47Z"/><path class="cls-14" d="M144.7,61.27a.43.43,0,0,1,.36.47.37.37,0,1,1-.72,0,.43.43,0,0,1,.36-.47Z"/><path class="cls-43" d="M141.12,60.89a1.4,1.4,0,0,1,2-.06l-.25.23a1,1,0,0,0-1.47,0l-.26-.21Zm2.78,0a1.4,1.4,0,0,1,2-.06l-.24.23a1,1,0,0,0-1.48,0l-.26-.21Z"/><path class="cls-44" d="M143,63.08a1.09,1.09,0,0,0,1.15,0l.19.19a1.44,1.44,0,0,1-1.48.07l.14-.22Z"/><path class="cls-18" d="M142.43,64.42a22.53,22.53,0,0,1,2.74,0c.11.1-1.94,1-2.74,0Z"/><path class="cls-18" d="M142.19,61.49a.11.11,0,1,1,0,.21.11.11,0,0,1-.11-.1.11.11,0,0,1,.11-.11Z"/><path class="cls-18" d="M144.85,61.49a.11.11,0,1,1,0,.21.11.11,0,0,1-.11-.1.11.11,0,0,1,.11-.11Z"/><path class="cls-18" d="M103.69,53.33H85.26a1.48,1.48,0,0,1,0-.21V51.17c0-1,.49-1.78,1.08-1.78h16.28c.6,0,1.09.8,1.09,1.78v1.95c0,.07,0,.14,0,.21Z"/><path class="cls-34" d="M140.9,37.53s-1.05-.64-1.05-1.13-.6-1.7-1.17-1.84a2.77,2.77,0,0,0-1.44.3s-.91,0-1.13.34a1.12,1.12,0,0,0-.13.73.63.63,0,0,0-.56.67,1.82,1.82,0,0,0,.12.8s-.81.57-.46,1.12.41.63.41.63-.6.17-.33.68.48.61.48.61-.2,1.18.23,1.36a2.07,2.07,0,0,0,.7.18,1.81,1.81,0,0,0,.78.31,1.3,1.3,0,0,0,.6-.17s.81.19,1.07,0,.13-3.09,1.88-4.61Z"/><path class="cls-34" d="M145.52,37.53s1-.64,1-1.13.6-1.7,1.17-1.84a2.77,2.77,0,0,1,1.44.3s.91,0,1.13.34a1.12,1.12,0,0,1,.13.73.63.63,0,0,1,.56.67,1.82,1.82,0,0,1-.12.8s.81.57.46,1.12-.41.63-.41.63.6.17.33.68-.48.61-.48.61.2,1.18-.23,1.36a2.07,2.07,0,0,1-.7.18,1.81,1.81,0,0,1-.77.31,1.32,1.32,0,0,1-.61-.17s-.8.65-1.35,0,.15-3-1.6-4.55Z"/><path class="cls-38" d="M139.85,43.26s.17,1.08-.48.75a1.88,1.88,0,0,1-.69-1.94c.16-.48.38-.54.38-.54s.79-.11.79,1.73Z"/><path class="cls-38" d="M146.24,43.26s.14,1,.8.7.54-1.41.38-1.89-.38-.54-.38-.54-.8-.11-.8,1.73Z"/><path class="cls-37" d="M141.65,46.05s.34,1.59-.21,1.7a32,32,0,0,0-4.55,1.56,3.51,3.51,0,0,0-1.41,2.55c-.12.6-.19,1.11-.23,1.47h16.1a5.78,5.78,0,0,0-.62-2.91c-.79-1.06-3.19-2.13-3.84-2.44s-1.37-.19-1.37-.73V45.71s-2.46,1-3.87.34Z"/><path class="cls-38" d="M141.65,46.05s.33,1.54-.18,1.69a4.17,4.17,0,0,0,2.72.33,3.54,3.54,0,0,0,1.34-.73.28.28,0,0,1,0-.09V45.71s-2.46,1-3.87.34Z"/><path class="cls-34" d="M143.55,36.73a6.63,6.63,0,0,0-3.46,1A4.82,4.82,0,0,0,138.68,41c-.08.71.6,1.46.71,1.9a21.88,21.88,0,0,0,.27-2.67c.1-.65,1.09-.88,1.46-.79a7,7,0,0,0,3.07.08c1-.33,1.44,0,1.6.33a2.41,2.41,0,0,0,.62.86c.27.19.38,1.58.38,1.58a5.48,5.48,0,0,1,.58-1.12c.14-.07.47-4.42-3.82-4.42Z"/><path class="cls-37" d="M146.89,41.21s-.15,3.15-.29,3.71a3.77,3.77,0,0,1-2.41,2.22c-1.4.41-3.72-.38-4.1-1.67a17.56,17.56,0,0,1-.81-3.51c0-.16,0-.32,0-.48a2.6,2.6,0,0,1,1.65-2.61c.95-.29,3.61-.54,4.64-.06s1.35,2.4,1.35,2.4Z"/><path class="cls-34" d="M141.65,42.57a.48.48,0,1,1-.4.47.44.44,0,0,1,.4-.47Z"/><path class="cls-34" d="M145.12,42.57a.48.48,0,1,1-.4.47.44.44,0,0,1,.4-.47Z"/><path class="cls-39" d="M140.46,42a1.75,1.75,0,0,1,2,0l-.28.3a1.3,1.3,0,0,0-1.45,0l-.24-.32Z"/><path class="cls-39" d="M144.14,42a1.75,1.75,0,0,1,2,0l-.28.3a1.3,1.3,0,0,0-1.45,0l-.24-.32Z"/><path class="cls-40" d="M142.56,44.24a1.11,1.11,0,0,0,1.47,0l.32.26a1.55,1.55,0,0,1-2,.09l.26-.31Z"/><path class="cls-40" d="M142.12,45.44s1.63.76,2.49-.07l.23.2c-1,1-2.86.13-2.86.13l.14-.26Z"/><path class="cls-45" d="M139.89,36.16a.61.61,0,1,1-.65.6.63.63,0,0,1,.65-.6Z"/><path class="cls-36" d="M139.2,36.9a.6.6,0,1,1-.65.6.63.63,0,0,1,.65-.6Z"/><path class="cls-45" d="M146.53,36.16a.61.61,0,1,0,.65.6.63.63,0,0,0-.65-.6Z"/><path class="cls-36" d="M147.22,36.9a.6.6,0,1,0,.65.6.63.63,0,0,0-.65-.6Z"/><path class="cls-36" d="M137.05,48.75l1.85-.67S140,50.79,142,51.42s4.63-.25,4.91-1.1.65-2.45.65-2.45l1.68.94v3.38a9.43,9.43,0,0,0,.1,1.14H137.05a15.93,15.93,0,0,0,0-4.58Z"/><path class="cls-18" d="M141.65,43a.11.11,0,0,1,.1.1.1.1,0,0,1-.1.1.1.1,0,0,1-.11-.1.11.11,0,0,1,.11-.1Z"/><path class="cls-18" d="M145.16,43a.11.11,0,0,1,.11.1.11.11,0,0,1-.22,0,.11.11,0,0,1,.11-.1Z"/><path class="cls-45" d="M137.57,48.9a.25.25,0,0,1,.26.24.25.25,0,0,1-.26.24.24.24,0,0,1-.26-.24.25.25,0,0,1,.26-.24Z"/><path class="cls-45" d="M139,48.9a.25.25,0,0,1,.26.24.26.26,0,0,1-.52,0,.25.25,0,0,1,.26-.24Z"/><path class="cls-45" d="M138.18,50.07a.24.24,0,1,1,0,.48.24.24,0,1,1,0-.48Z"/><path class="cls-45" d="M139.78,50.44a.24.24,0,0,1,.26.24.25.25,0,0,1-.26.24.25.25,0,0,1-.26-.24.25.25,0,0,1,.26-.24Z"/><path class="cls-45" d="M137.67,51.31a.25.25,0,0,1,.25.24.24.24,0,0,1-.25.24.24.24,0,0,1-.26-.24.25.25,0,0,1,.26-.24Z"/><path class="cls-45" d="M139.15,51.79a.25.25,0,0,1,.26.24.26.26,0,0,1-.52,0,.25.25,0,0,1,.26-.24Z"/><path class="cls-45" d="M137.83,52.69a.24.24,0,1,1,0,.48.24.24,0,1,1,0-.48Z"/><path class="cls-45" d="M140.88,51.79a.25.25,0,0,1,.26.24.26.26,0,0,1-.52,0,.25.25,0,0,1,.26-.24Z"/><path class="cls-45" d="M140.15,52.69a.24.24,0,1,1,0,.48.24.24,0,1,1,0-.48Z"/><path class="cls-45" d="M142.22,51.79a.25.25,0,0,1,.26.24.24.24,0,0,1-.26.24A.25.25,0,0,1,142,52a.25.25,0,0,1,.26-.24Z"/><path class="cls-45" d="M143.71,51.79A.25.25,0,0,1,144,52a.26.26,0,0,1-.52,0,.25.25,0,0,1,.26-.24Z"/><path class="cls-45" d="M142.38,52.69a.24.24,0,1,1,0,.48.24.24,0,1,1,0-.48Z"/><path class="cls-45" d="M145.44,51.79a.25.25,0,0,1,.26.24.26.26,0,0,1-.52,0,.25.25,0,0,1,.26-.24Z"/><path class="cls-45" d="M144.7,52.69a.24.24,0,1,1,0,.48.24.24,0,1,1,0-.48Z"/><path class="cls-45" d="M146.46,51.31a.25.25,0,0,1,.26.24.24.24,0,0,1-.26.24.24.24,0,0,1-.25-.24.25.25,0,0,1,.25-.24Z"/><path class="cls-45" d="M148,51.79a.25.25,0,0,1,.26.24.26.26,0,0,1-.52,0,.25.25,0,0,1,.26-.24Z"/><path class="cls-45" d="M146.62,52.69a.24.24,0,1,1,0,.48.24.24,0,1,1,0-.48Z"/><path class="cls-45" d="M149,52.69a.24.24,0,1,1,0,.48.24.24,0,1,1,0-.48Z"/><path class="cls-45" d="M148.76,51.15a.24.24,0,1,1-.26.24.25.25,0,0,1,.26-.24Z"/><path class="cls-45" d="M147.69,50.2a.25.25,0,0,1,.26.24.26.26,0,0,1-.52,0,.25.25,0,0,1,.26-.24Z"/><path class="cls-45" d="M148.76,49.38a.25.25,0,0,1,.26.24.26.26,0,0,1-.52,0,.25.25,0,0,1,.26-.24Z"/><path class="cls-45" d="M148,48.42a.25.25,0,0,1,.26.24.26.26,0,0,1-.52,0,.25.25,0,0,1,.26-.24Z"/><path class="cls-46" d="M148.24,52.58a10.28,10.28,0,0,0-.62-2.53,4,4,0,0,1-.54-2c0-.63-.39-1.23,0-1.28a.5.5,0,0,1,.61.41c.07.24.09.64.16.87s0,.34.13.22a7.57,7.57,0,0,0,.42-1.51,12.88,12.88,0,0,1,.22-1.68.29.29,0,0,1,.51.06c.08.26-.08,2.1,0,2.14a10.75,10.75,0,0,0,.35-1.58c.05-.24,0-.75.42-.75s.21.81.18,1a12.73,12.73,0,0,0-.24,1.52c0,.09.14.11.18,0s.56-1.36.63-1.61.19-.5.42-.46.26.23.16.61-.66,1.93-.69,2a.16.16,0,0,0,.16.19,3.64,3.64,0,0,0,.83-.51,3.65,3.65,0,0,1,.56-.55c.14-.06.39,0,.39.16a4.3,4.3,0,0,1-.86,1.12c-.25.25-.63.55-.63.55a10.26,10.26,0,0,1-1,1.46,16.09,16.09,0,0,0,.6,2.79h-2.36l0-.75Z"/><path class="cls-47" d="M122.43,50.42h8.37v2.91h-9.31v-2a.91.91,0,0,1,.94-.87Z"/><path class="cls-28" d="M121.15,50.76h9.65v2.57H120.25V51.59a.88.88,0,0,1,.9-.83Z"/><path class="cls-48" d="M118.67,47.6c.86,1.2,3.9.69,4.29-.29,2.81,1,3.45,1.41,3.64,4.27a7.86,7.86,0,0,1-.19,1.75H114.68l-.05-2.07c0-.62.7-2.83,4-3.66Zm-4.41,3.68s-.33,1-.73,2h.7l0-2Z"/><path class="cls-49" d="M123.28,49.17a5.89,5.89,0,0,0-2.45,3.33c-.1.3-.19.58-.3.83h1.81l.94-4.16Z"/><path class="cls-50" d="M118.67,47.6a14,14,0,0,1,4.29-.29c.66.62-3.66,2.26-4.29.29Z"/><path class="cls-25" d="M121.93,44.33a4.63,4.63,0,0,0,.32,1.83,3.49,3.49,0,0,0,.82,1.53,3.8,3.8,0,0,1-2.07,1,3.23,3.23,0,0,1-2-.52l.23-2.48a2.78,2.78,0,0,0,2.75-1.38Z"/><path class="cls-18" d="M118.67,47.6c.86,1.2,3.9.69,4.29-.29l.54.21a4.11,4.11,0,0,1-2.82,1.21,3.49,3.49,0,0,1-2.58-1c.16-.06.45-.12.57-.15Z"/><path class="cls-49" d="M117,50a8.84,8.84,0,0,0-1.21,3.29h-.94A5.7,5.7,0,0,1,117,50Z"/><path class="cls-51" d="M121.93,44.33a4.63,4.63,0,0,0,.32,1.83l.06.17a3.51,3.51,0,0,1-2.44.9,4.28,4.28,0,0,1-.82-.12l.13-1.4a2.78,2.78,0,0,0,2.75-1.38Z"/><path class="cls-4" d="M118.82,35.78a4.19,4.19,0,0,0-3.13.49,2.89,2.89,0,0,1,3.13-.49ZM115,36.85c-.81.92-1.18,3.45.86,3.32,1.23-.08,4.67-.45,5.09.07s-.42,3.17.42,3.4.74.9,1.49.9,2-1,2.33-3.07-.3-6.84-5.69-5.57c-2.56-1.23-3.9,0-4.5,1Z"/><path class="cls-25" d="M116.05,40.15a7.18,7.18,0,0,1,.13,3.07c-.27,2,1.92,2.92,3.19,2.93a3.2,3.2,0,0,0,3.38-2.76s.78-.42.86-1.06-.75-.88-1.09-.68a1.21,1.21,0,0,0-.57,1c0,.42-.11.71-.31.71-.5,0-.29-2.16-.16-2.43a.78.78,0,0,0-.42-1.18,30.43,30.43,0,0,0-5,.37Z"/><path class="cls-24" d="M116.05,40.15a2.42,2.42,0,0,1,.11.43,20.79,20.79,0,0,1,3.19-.41c1.75-.07,1.81.06,2,.75a.51.51,0,0,0,.09.18.84.84,0,0,1,0-.14.78.78,0,0,0-.42-1.18,30.43,30.43,0,0,0-5,.37Z"/><path class="cls-4" d="M117.53,41.42a.44.44,0,0,1,0,.87.44.44,0,0,1,0-.87Z"/><path class="cls-4" d="M119.88,41.42a.44.44,0,1,1-.36.44.4.4,0,0,1,.36-.44Z"/><path class="cls-27" d="M118.59,42.31s-.26.9-.65,1.11c-.06,0-.09.07-.09.1a.11.11,0,0,0,0,.08.26.26,0,0,0,.09.09.65.65,0,0,0,.52.06l.05.14a.81.81,0,0,1-.66-.07.47.47,0,0,1-.14-.14.2.2,0,0,1,0-.16.26.26,0,0,1,.17-.23c.33-.18.57-1,.58-1l.15,0Z"/><path class="cls-27" d="M118.14,44.5a1.27,1.27,0,0,0,1.6-.25l.18.15a1.53,1.53,0,0,1-1.92.29l.14-.19Z"/><path class="cls-4" d="M116.84,41a1,1,0,0,1,1.34,0l-.22.23a.67.67,0,0,0-.89,0l-.23-.22Zm2.31,0a1,1,0,0,1,1.35,0l-.22.23a.67.67,0,0,0-.89,0l-.24-.22Z"/><path class="cls-49" d="M125.5,49.17a7.84,7.84,0,0,1-.71,4.16h1.29a6,6,0,0,0-.58-4.16Z"/><path class="cls-48" d="M125.19,53.33c.65-2,.89-4.07,0-4.4-2.27-.85-3.59,2-4.38,4.4Z"/><path class="cls-18" d="M117.73,41.61a.13.13,0,0,1,.13.12.13.13,0,0,1-.26,0,.13.13,0,0,1,.13-.12Z"/><path class="cls-18" d="M120.06,41.61a.12.12,0,0,1,.12.12.12.12,0,0,1-.12.12.12.12,0,0,1-.13-.12.13.13,0,0,1,.13-.12Z"/><path class="cls-24" d="M123.23,42.14a.5.5,0,0,0-.5-.29c-.38,0-.59.68-.49,1s.53-.07.61.12.37,0,.27-.3-.57,0-.58-.21.16-.36.26-.27.25.22.37.14.06-.16.06-.16Z"/><path class="cls-3" d="M108.19,42.81l4.93-.37a.48.48,0,0,1,.49.4l2,10.49h-7.42V42.81Z"/><path class="cls-52" d="M108.19,43l4.67-.36a.47.47,0,0,1,.48.4l2,10.3h-7.19V43Z"/><path class="cls-49" d="M124.28,49.7a15.05,15.05,0,0,1-.35,3.63h-.17a15.3,15.3,0,0,0,.36-3.63Z"/><path class="cls-49" d="M118.1,49.52a6.24,6.24,0,0,0,2.15,3.09l-.1.12a6.4,6.4,0,0,1-2.21-3.17l.16,0Zm-.73,1.25a4.18,4.18,0,0,0,.44,2.56h-.19a4.51,4.51,0,0,1-.42-2.58l.17,0Z"/><path class="cls-35" d="M72,56s.68-.65,2.42,0,2,2.31,2.38,3.17,1.73.86,1.35,2.43-.44.95.07,1.73.76,1.54.21,2.06A1.06,1.06,0,0,0,78.27,67c.5.66,1.63.92.5,2.6s-12,1.82-12.86,0,.2-1.76,0-3.16-.76-2.14,0-2.91-.35-1.06-.06-2.31,1.31-.72,1.47-1.73S68.66,55.31,72,56Z"/><path class="cls-53" d="M70.34,65.49s.13,2.17-.7,2.69-4.44.57-5.28,1.16-1.07,4.19-1.15,5.27H79.53c.08-1.23.16-4.41-1-5-1.51-.75-4-.7-4.63-1.8s-.41-1.66-.41-1.66-2.8,0-3.11-.65Z"/><path class="cls-54" d="M70.34,65.49a7.56,7.56,0,0,1-.08,1.45,6.18,6.18,0,0,0,1.12.53,3.16,3.16,0,0,0,2.29,0,1.7,1.7,0,0,1-.22-1.3s-2.8,0-3.11-.65Z"/><path class="cls-53" d="M75.52,59.8a7,7,0,0,0,.19,1.83,5.89,5.89,0,0,1-.47,3.57,3.28,3.28,0,0,1-3.86,1.31c-1.6-.59-2.26-1.36-2.4-2.31a11.4,11.4,0,0,0-.32-1.49,2.33,2.33,0,0,0,.27-1.33c-.13-.6-.14-.72.25-1.15s.1-.6.42-1,.6-1.11,1.36-.56,1.29,0,1.8-.21,1-.64,1.32.28,1.26.66,1.38.81a.3.3,0,0,1,.06.29Z"/><path class="cls-55" d="M74.09,61.4a.41.41,0,1,0,.36.4.38.38,0,0,0-.36-.4Z"/><path class="cls-55" d="M70.89,61.4a.41.41,0,1,0,.37.4.39.39,0,0,0-.37-.4Z"/><path class="cls-56" d="M75,61.17a1.35,1.35,0,0,0-1.86-.05l.1.11a1.2,1.2,0,0,1,1.64,0l.12-.09Z"/><path class="cls-56" d="M71.82,61.17A1.35,1.35,0,0,0,70,61.12l.1.11a1.2,1.2,0,0,1,1.64,0l.12-.09Z"/><path class="cls-17" d="M72.41,62.12s.13.76.43.92a.38.38,0,0,1,.15.13.18.18,0,0,1,0,.12.17.17,0,0,1-.06.12.79.79,0,0,1-.29.13l0,.16a.75.75,0,0,0,.36-.17.36.36,0,0,0,.13-.23.46.46,0,0,0-.06-.22.69.69,0,0,0-.22-.19c-.22-.12-.34-.8-.34-.8l-.18,0Z"/><path class="cls-18" d="M73.6,64.39s-2.58-.07-2.62,0a2.18,2.18,0,0,0,1.47.69c.66,0,1.47-.65,1.15-.69Z"/><path class="cls-54" d="M74.34,63c-.26,0-.48.09-.48.21s.22.21.48.21.48-.1.48-.21S74.6,63,74.34,63Z"/><path class="cls-54" d="M70.65,63c-.26,0-.47.09-.47.21s.21.21.47.21.48-.1.48-.21-.22-.21-.48-.21Z"/><path class="cls-54" d="M75.94,61.62a.6.6,0,0,1,.55.14,1.08,1.08,0,0,1-.09,1.3,1.39,1.39,0,0,1-.66.51,9,9,0,0,0,.2-2Z"/><path class="cls-54" d="M68.15,61.4s-.38-.25-.6.26A1.56,1.56,0,0,0,68,63.09a2.44,2.44,0,0,0,.81.24,5.9,5.9,0,0,1-.66-1.93Z"/><polygon class="cls-57" points="76.44 68.77 76.28 71.68 76.76 71.7 76.92 68.79 76.44 68.77 76.44 68.77"/><polygon class="cls-57" points="66.13 68.66 66.53 71.55 67 71.49 66.6 68.61 66.13 68.66 66.13 68.66"/><path class="cls-45" d="M76.6,71.22s-.86,1.52-4.08,1.44a16,16,0,0,1-6-1.44l-.64,3.39H77.09a10.69,10.69,0,0,0-.49-3.39Z"/><path class="cls-56" d="M72.78,69.75l1.66-.38,0-.14-1.66.38,0,.14Zm-1.49-.14-1.66-.38,0,.14,1.66.38,0-.14Z"/><path class="cls-18" d="M74.23,61.6a.11.11,0,0,0-.11.1.11.11,0,0,0,.22,0,.11.11,0,0,0-.11-.1Z"/><path class="cls-18" d="M71,61.6a.11.11,0,0,0-.11.1.11.11,0,0,0,.22,0,.11.11,0,0,0-.11-.1Z"/><path class="cls-58" d="M142.28,70.48h12.24v4.13H139.77V72c0-.85,1.13-1.55,2.51-1.55Z"/><path class="cls-59" d="M154.52,70.88v3.73H139.77V72.43c0-.85,1.13-1.55,2.51-1.55Z"/><path class="cls-34" d="M148.87,71.91h.32v1.41h-.32V71.91Zm3.12,0h.32v1.41H152V71.91Zm-.63,0h.33v1.41h-.33V71.91Zm-.62,0h.32v1.41h-.32V71.91Zm-.63,0h.33v1.41h-.33V71.91Zm-.62,0h.32v1.41h-.32V71.91Z"/><path class="cls-60" d="M146.41,78.26c2.24.85,2.77,2,2.77,2.67a8.12,8.12,0,0,1-.65,3.41c.67,2.91,1,11.16,1,11.16l-12.6-2.41s1.48-4.68,1.83-6.64c.24-1.31-.09-3.78.83-5.79,1.1-2.43,4.6-3.24,6.85-2.4Z"/><path class="cls-35" d="M148.89,82.87s.9.27,1,1a3.2,3.2,0,0,1-.49,2.3c-.48.43-.83.18-.83.18l.36-3.49Z"/><path class="cls-53" d="M141.79,87.57a14.73,14.73,0,0,1-.49,3.13c-.37.9-.37.93-.37.93a6.6,6.6,0,0,0,2.54.87,2.93,2.93,0,0,0,1.94-.65V89s-2.61-.28-3.62-1.4Z"/><path class="cls-15" d="M141.79,87.57s-.06,1-.22,2a4.71,4.71,0,0,0,3.08,1.3,4.78,4.78,0,0,0,.76,0V89s-2.61-.28-3.62-1.4Z"/><path class="cls-53" d="M148.86,81.52a19.45,19.45,0,0,1-.35,4.91,3.65,3.65,0,0,1-3.86,3,4.21,4.21,0,0,1-3.79-2.4,25.2,25.2,0,0,1-.48-3.82,2.58,2.58,0,0,0,1.81-.43c1.19-.62,5.24-2.43,5.24-2.43a5.42,5.42,0,0,1,1.43,1.18Z"/><path class="cls-61" d="M140.71,83.7s1-5.76,6.12-5.31c-3.41-2.23-6.89,1.53-7.14,5.12l1,.19Z"/><path class="cls-62" d="M140.71,83.7a7.75,7.75,0,0,1,.39-1.33,1.47,1.47,0,0,0-1-.39H140a7.28,7.28,0,0,0-.29,1.52l1,.19Z"/><path class="cls-35" d="M145.3,91.6a14,14,0,0,1,1.65.9c2.44,1.45,3,1.67,3.45,3.39H133.51a6,6,0,0,1,.2-.64c.53-1.42.39-2.13,1.35-2.75S141.17,91,141.17,91c-.35,1,3.06,1.86,4.13.59Z"/><path class="cls-62" d="M145.86,92.21a4.25,4.25,0,0,1-5.66-.58l-.18.17a4.51,4.51,0,0,0,6,.6l-.16-.19Z"/><path class="cls-62" d="M137.5,94.31a15.28,15.28,0,0,1,.47,1.58h.27a17,17,0,0,0-.49-1.66l-.25.08Z"/><path class="cls-14" d="M144.12,83.36c-.2,0-.36.22-.36.49s.16.49.36.49.35-.22.35-.49-.16-.49-.35-.49Z"/><path class="cls-14" d="M147.43,83.36c-.2,0-.36.22-.36.49s.16.49.36.49.36-.22.36-.49-.16-.49-.36-.49Z"/><path class="cls-63" d="M148.27,83a1.23,1.23,0,0,0-1.67,0l.13.15a1,1,0,0,1,1.39,0l.15-.13Z"/><path class="cls-63" d="M145,83a1.23,1.23,0,0,0-1.67,0l.13.15a1,1,0,0,1,1.39,0L145,83Z"/><path class="cls-17" d="M146.12,84.34s.06,1.19.41,1.47c.19.14-.61.43-.61.43l.08.18s1.12-.41.67-.76c-.29-.22-.34-1.32-.34-1.33Z"/><path class="cls-18" d="M146.65,87.13l-2.49-.48s.67,1.07,1.37,1.19,1.12-.71,1.12-.71Z"/><path class="cls-35" d="M140.11,82.35a2,2,0,1,0,1.68,2,1.85,1.85,0,0,0-1.68-2Z"/><path class="cls-64" d="M139.68,82.49A1.51,1.51,0,1,0,140.93,84a1.38,1.38,0,0,0-1.25-1.48Z"/><path class="cls-35" d="M139.37,82.87a1.12,1.12,0,1,0,.93,1.1,1,1,0,0,0-.93-1.1Z"/><path class="cls-18" d="M144.13,83.55c-.07,0-.12,0-.12.1a.11.11,0,0,0,.12.11.11.11,0,0,0,.11-.11.1.1,0,0,0-.11-.1Z"/><path class="cls-18" d="M147.43,83.55a.1.1,0,0,0-.11.1.11.11,0,0,0,.22,0,.1.1,0,0,0-.11-.1Z"/><path class="cls-36" d="M69,89.49S65,91,64.46,91.88a18,18,0,0,0-.94,4H80.68a20,20,0,0,0-.69-4c-.45-.94-5.37-2.39-5.37-2.39l-3.16,2.7L69,89.49Z"/><path class="cls-38" d="M67.72,82a1.44,1.44,0,0,0-.41,1.38c.1.75.63,1.23.89,1.11S67.72,82,67.72,82Z"/><path class="cls-38" d="M76.45,82a1.41,1.41,0,0,1,.4,1.38c-.09.75-.63,1.23-.88,1.11s.48-2.49.48-2.49Z"/><path class="cls-13" d="M67.27,79.27a6.66,6.66,0,0,0-.06,1.87A15.69,15.69,0,0,0,68,83.36l8.21-.08a8.47,8.47,0,0,0,1-4,2.83,2.83,0,0,0-2.11-2.54,6.27,6.27,0,0,0-4.56-.64,4.77,4.77,0,0,0-3.22,3.18Z"/><path class="cls-54" d="M73.9,86.33,74,88.19l.14,1.87L72,91.88l-2-2,.41-3.55s2.41.59,3.41,0Z"/><path class="cls-46" d="M73.9,86.33,74,87.72a5.23,5.23,0,0,1-3.68,0l.16-1.38s2.41.59,3.41,0Z"/><path class="cls-54" d="M75,78.5a8,8,0,0,1,1.39,2.29c.29,1-.45,4.73-1.39,5.55a4.92,4.92,0,0,1-5.61,0c-2-1.46-1.31-5.17-1.27-5.55A7.64,7.64,0,0,1,70,78.64c0,.27-.5.7-.5.7a5.46,5.46,0,0,0,1-.56c.6-.4.77-.53.69-.4s-.94.89-.82.92a4.3,4.3,0,0,0,1.28-.56c.48-.27,1.41-.9,1.41-.9s.4,1.43.69,1.2,0-1,0-1a6.73,6.73,0,0,0,1.09,1c.32.15.06-.52.06-.52Z"/><path class="cls-39" d="M73.3,80.53a1.38,1.38,0,0,1,1.75,0l-.14.16a1.15,1.15,0,0,0-1.45,0l-.16-.16Z"/><path class="cls-39" d="M69.2,80.53a1.39,1.39,0,0,1,1.76,0l-.15.16a1.15,1.15,0,0,0-1.45,0l-.16-.16Z"/><path class="cls-34" d="M70.22,81c.18,0,.32.22.32.48s-.14.48-.32.48-.32-.22-.32-.48S70,81,70.22,81Z"/><path class="cls-34" d="M73.9,81c.18,0,.32.22.32.48s-.14.48-.32.48-.31-.22-.31-.48.14-.48.31-.48Z"/><path class="cls-17" d="M71.25,82.79a1.32,1.32,0,0,0,1.6,0L73,83a1.55,1.55,0,0,1-1.9,0l.16-.15Z"/><path class="cls-17" d="M70.59,84.36a4.49,4.49,0,0,0,3.53,0l.11.19a4.75,4.75,0,0,1-3.74,0l.1-.19Z"/><polygon class="cls-65" points="73.36 90.95 72.11 92.19 72.2 95.03 71.09 95.03 71.09 92.19 72.36 90.55 73.36 90.95 73.36 90.95"/><polygon class="cls-66" points="70.85 90.19 71.73 91.37 71.09 92.19 70.08 90.73 70.85 90.19 70.85 90.19"/><polygon class="cls-67" points="65.72 93.84 65.35 95.89 65.11 95.89 65.5 93.81 65.72 93.84 65.72 93.84"/><polygon class="cls-67" points="78.08 93.84 78.46 95.89 78.69 95.89 78.3 93.81 78.08 93.84 78.08 93.84"/><polygon class="cls-35" points="65.52 94.93 78.21 94.56 78.46 95.89 65.35 95.89 65.52 94.93 65.52 94.93"/><path class="cls-68" d="M74,88.19c.11,1.57-1.79,2.28-1.68,2.36l2.28,1.64c.53-2.36,1.31-2.64-.6-4Z"/><path class="cls-68" d="M70.26,88.33s-.2.18-.18.78.77,1.08.77,1.08l-2.21,1.69V89.51c0-.74,1.64-1.4,1.62-1.18Z"/><path class="cls-18" d="M70.17,81.23a.09.09,0,0,1,.09.08.09.09,0,0,1-.18,0,.09.09,0,0,1,.09-.08Z"/><path class="cls-18" d="M73.91,81.23a.09.09,0,1,1,0,.17.09.09,0,0,1-.09-.09.09.09,0,0,1,.09-.08Z"/><path class="cls-54" d="M67.07,88.91a5.63,5.63,0,0,0,.81-2.51c0-.77.48-1.52,0-1.58a.61.61,0,0,0-.75.5c-.08.31-.11.8-.2,1.08s-.05.42-.15.26a7.83,7.83,0,0,1-.52-1.85A15.56,15.56,0,0,0,66,82.74a.35.35,0,0,0-.62.08c-.11.31.1,2.58,0,2.63a10.56,10.56,0,0,1-.43-2c-.07-.29-.06-.92-.52-.92s-.26,1-.22,1.25a15.44,15.44,0,0,1,.3,1.86c-.07.12-.19.14-.23,0s-.69-1.68-.78-2-.23-.62-.51-.56-.33.27-.2.74.81,2.38.85,2.53a.2.2,0,0,1-.2.24,5.52,5.52,0,0,1-1-.63,3.71,3.71,0,0,0-.69-.68c-.17-.08-.49-.06-.47.19a4.94,4.94,0,0,0,1,1.38,9.79,9.79,0,0,0,.78.69,12.07,12.07,0,0,0,1.17,1.79c.19.07-1.39,6.46-1.39,6.46h2.82c.35-1.27,1-6.14,1.4-7Z"/><path class="cls-69" d="M97.29,96.92a3.33,3.33,0,1,1-3.39,3.33,3.36,3.36,0,0,1,3.39-3.33Z"/><path class="cls-69" d="M107.59,96.92a3.33,3.33,0,1,1-3.39,3.33,3.36,3.36,0,0,1,3.39-3.33Z"/><path class="cls-18" d="M105.43,99.26H107V99h-1.54v-.31h1.83v.6h.79v2h-2.62v-2Zm4.32-.6-1.5.6v2l1.5.59V98.66Z"/><path class="cls-70" d="M118,96.92a3.33,3.33,0,1,1-3.39,3.33A3.35,3.35,0,0,1,118,96.92Z"/><path class="cls-18" d="M95.79,98.5h2.72a.58.58,0,0,1,.59.58v1.6a.57.57,0,0,1-.57.58l.27.94-1-.93h-2a.59.59,0,0,1-.59-.59v-1.6a.58.58,0,0,1,.59-.58Zm.2,1.29a.23.23,0,1,1,0,.46.23.23,0,1,1,0-.46Zm2.32,0a.23.23,0,1,1,0,.46.23.23,0,1,1,0-.46Zm-.77,0a.23.23,0,0,1,0,.46.23.23,0,1,1,0-.46Zm-.78,0a.23.23,0,1,1,0,.46.23.23,0,1,1,0-.46Z"/><path class="cls-18" d="M118.59,102.32a1.1,1.1,0,0,0,1.33-.67l-1-.87c-.49,1.28-2.65-1.32-1.28-1.54L117,98.13s-1.06.2-.93,1.14a6,6,0,0,0,2.53,3Z"/></g></g></svg>