<svg xmlns="http://www.w3.org/2000/svg" viewBox="0 0 519.82 230.72"><defs><style>.cls-1{isolation:isolate;}.cls-2{fill:#2b6362;}.cls-3{fill:#f2f4f9;}.cls-4{fill:#4f6a78;}.cls-5{fill:#c8d3d8;}.cls-6{opacity:0.36;}.cls-7{fill:#f1f9fc;}.cls-8{fill:#b8d78b;}.cls-9{fill:#f9e585;}.cls-10{fill:#d16c52;}.cls-11{fill:#fff;}.cls-12{fill:#ffd371;}.cls-13{fill:#fa5;}.cls-14{fill:#dcdcdc;}.cls-15{fill:#ffdf93;}.cls-16{fill:#ffd565;}.cls-17{fill:#8a999f;}.cls-18{fill:#1a4561;}.cls-19{fill:#5a5a5c;}.cls-20{fill:#a5cfdf;opacity:0.77;}.cls-21{opacity:0.22;}.cls-22{opacity:0.31;}.cls-23{fill:#b16653;}.cls-24{fill:#5e8478;}.cls-25{fill:#747474;}.cls-26{fill:#eaeaea;mix-blend-mode:multiply;}.cls-27{fill:#6c5d68;}.cls-28{fill:#38343b;}.cls-29{fill:#ce6259;}.cls-30{fill:#f2a299;}.cls-31{fill:#f5eaea;}.cls-32{fill:#c2c2c2;}.cls-33{fill:#d1967b;}.cls-34{fill:#422e2d;}.cls-35{fill:#e28679;}.cls-36{fill:#db7f2f;}.cls-37{fill:#7f94b9;}.cls-38{fill:#f19e86;}.cls-39{fill:#75c189;}.cls-40{fill:#38333d;}.cls-41{fill:#654541;}.cls-42{fill:#efdcbb;}.cls-43{fill:#498958;}.cls-44{fill:#e57957;}.cls-45{fill:#654242;}</style></defs><g class="cls-1"><g id="Layer_2" data-name="Layer 2"><g id="Option_1" data-name="Option 1"><polygon class="cls-2" points="370.36 157.64 370.36 160.79 376.67 163.94 379.82 160.79 376.67 157.64 370.36 157.64"/><polygon class="cls-2" points="358.86 163.65 352.55 166.8 349.4 163.65 352.55 160.5 358.86 160.5 358.86 163.65"/><rect class="cls-3" x="117.11" y="12.42" width="252.63" height="159.37"/><rect class="cls-4" x="117.11" width="252.63" height="9.56"/><rect class="cls-5" x="117.11" y="9.56" width="252.63" height="12.55"/><g class="cls-6"><rect class="cls-7" x="143.27" y="14.17" width="214.85" height="5.36"/></g><path class="cls-8" d="M127.69,4.38a1.6,1.6,0,1,1-1.6-1.57A1.59,1.59,0,0,1,127.69,4.38Z"/><path class="cls-9" d="M132.37,4.38a1.6,1.6,0,1,1-1.6-1.57A1.59,1.59,0,0,1,132.37,4.38Z"/><path class="cls-10" d="M137.05,4.38a1.6,1.6,0,1,1-1.6-1.57A1.59,1.59,0,0,1,137.05,4.38Z"/><g class="cls-6"><polygon class="cls-7" points="134.54 14.28 134.54 19.42 136.4 16.85 134.54 14.28"/><polygon class="cls-7" points="127 19.42 127 14.28 125.14 16.85 127 19.42"/></g><rect class="cls-11" x="327.95" y="11.27" width="109.92" height="40.53" rx="11.06"/><path class="cls-12" d="M365.11,32.32a13,13,0,1,1-13-13A13,13,0,0,1,365.11,32.32Z"/><circle class="cls-13" cx="352.09" cy="29.27" r="4.71" transform="translate(242.37 365.1) rotate(-76.66)"/><path class="cls-13" d="M361.87,40.91a13,13,0,0,1-19.55,0,11,11,0,0,1,19.55,0Z"/><path class="cls-14" d="M417.33,25.8H373.44a2.16,2.16,0,0,1-2.16-2.16h0a2.16,2.16,0,0,1,2.16-2.16h43.89a2.16,2.16,0,0,1,2.16,2.16h0A2.16,2.16,0,0,1,417.33,25.8Z"/><path class="cls-14" d="M417.33,33.69H373.44a2.16,2.16,0,0,1-2.16-2.15h0a2.16,2.16,0,0,1,2.16-2.16h43.89a2.16,2.16,0,0,1,2.16,2.16h0A2.16,2.16,0,0,1,417.33,33.69Z"/><path class="cls-14" d="M403.19,41.59H373.44a2.16,2.16,0,0,1-2.16-2.16h0a2.16,2.16,0,0,1,2.16-2.16h29.75a2.16,2.16,0,0,1,2.16,2.16h0A2.16,2.16,0,0,1,403.19,41.59Z"/><path class="cls-15" d="M345.83,76.17V73.84a7,7,0,0,0-7-6.85H265.5a7,7,0,0,0-7,6.85V197.36H433.19V83a6.94,6.94,0,0,0-7-6.85Z"/><rect class="cls-11" x="266.22" y="86.04" width="160.85" height="112.57"/><path class="cls-16" d="M343.34,100.12l-2.6,7H265.5a6.94,6.94,0,0,0-7,6.84v87.22a6.94,6.94,0,0,0,7,6.84H426.16a6.93,6.93,0,0,0,7-6.84V102.44a6.94,6.94,0,0,0-7-6.85H350A7,7,0,0,0,343.34,100.12Z"/><rect class="cls-17" x="113.72" y="156.35" width="47.71" height="13.8" transform="translate(-75.77 155.36) rotate(-47.76)"/><path class="cls-18" d="M107.53,196.48l-.12-.11c-3.22-2.92-4.07-7.24-1.89-9.64l24.71-27.65,12.35,10.74-25.27,27.61C115.13,199.83,110.75,199.41,107.53,196.48Z"/><path class="cls-19" d="M207.27,87.57a41.24,41.24,0,1,0,3,58.46A41.36,41.36,0,0,0,207.27,87.57ZM206,142.13a35.74,35.74,0,1,1-2.62-50.3A35.59,35.59,0,0,1,206,142.13Z"/><ellipse class="cls-20" cx="179.56" cy="118.1" rx="35.47" ry="35.74" transform="translate(-29.89 166.26) rotate(-46.28)"/><g class="cls-21"><path class="cls-11" d="M185.45,93.14a25.6,25.6,0,0,1,21.24,22.35,25.08,25.08,0,0,1-16.3,26c-3,1.09-1.5,5.84,1.51,4.75a30.15,30.15,0,0,0,19.87-29.36c-.45-12.88-9.49-24-21.7-27.79a29.51,29.51,0,0,0-3.61-.83c-3.15-.53-4.19,4.33-1,4.87Z"/></g><g class="cls-22"><ellipse class="cls-11" cx="181.87" cy="145.71" rx="3.26" ry="3.29" transform="translate(-49.14 176.43) rotate(-46.28)"/></g><path class="cls-23" d="M130.61,159.58l11.75,10.22a1,1,0,0,0,1.39,0l.13-.12a1,1,0,0,0,0-1.55L132,158a1,1,0,0,0-1.47.13l0,0A1,1,0,0,0,130.61,159.58Z"/><path class="cls-24" d="M173.25,152.21a35.57,35.57,0,0,1-29.07-36.33,34.91,34.91,0,0,1,32-33.43,35.43,35.43,0,0,1,33.9,52.67,35,35,0,0,1-36.84,17.09,1,1,0,0,0-.33,1.86,37.45,37.45,0,0,0,24.6-4,36.77,36.77,0,0,0,16.28-18.27,37.29,37.29,0,0,0-60.44-40.91,36.86,36.86,0,0,0-10.89,22.54,37.44,37.44,0,0,0,30.45,40.62A1,1,0,0,0,173.25,152.21Z"/><path class="cls-25" d="M111.62,192.26l-.09-.07h0l.09.07h0Zm34.84-28.89h0l.07-.09Z"/><rect class="cls-13" x="98.06" y="38.96" width="41.49" height="34.29" rx="2.16"/><path class="cls-11" d="M109.71,54.76v1.15a1,1,0,0,0,.87,1l1.36.24a7.62,7.62,0,0,0,.7,1.7L111.85,60a1,1,0,0,0,.12,1.34l.81.82a1.06,1.06,0,0,0,1.35.12l1.1-.78a7.17,7.17,0,0,0,1.7.7l.24,1.36a1.05,1.05,0,0,0,1,.87h1.17a1.05,1.05,0,0,0,1-.87l.23-1.36a6.84,6.84,0,0,0,1.7-.7l1.14.79a1,1,0,0,0,1.34-.11l.82-.82a1,1,0,0,0,.12-1.34l-.8-1.14a6.49,6.49,0,0,0,.7-1.7L127,57a1,1,0,0,0,.86-1V54.78a1,1,0,0,0-.86-1l-1.37-.24a6.49,6.49,0,0,0-.7-1.7l.8-1.14a1,1,0,0,0-.12-1.34l-.82-.82a1,1,0,0,0-1.34-.11l-1.13.76a7,7,0,0,0-1.7-.71l-.24-1.36a1.05,1.05,0,0,0-1-.87h-1.18a1.07,1.07,0,0,0-1,.87l-.23,1.4a7.43,7.43,0,0,0-1.7.7l-1.13-.79a1.06,1.06,0,0,0-1.35.09l-.81.82a1,1,0,0,0-.12,1.34l.79,1.14a7.25,7.25,0,0,0-.7,1.7l-1.36.24A1,1,0,0,0,109.71,54.76Zm6,.59v0a3.12,3.12,0,1,1,3.12,3.13A3.12,3.12,0,0,1,115.69,55.33Z"/><ellipse id="_Path_" data-name="&lt;Path&gt;" class="cls-26" cx="448.81" cy="225.19" rx="71.01" ry="5.53"/><rect class="cls-27" x="462.14" y="177.3" width="4.13" height="43.06"/><rect class="cls-27" x="453.17" y="219.43" width="22.06" height="1.86"/><path class="cls-27" d="M481.63,177H455.51l6.38-43.23a4.33,4.33,0,0,1,4.28-3.69h17.38a4.33,4.33,0,0,1,4.28,5Z"/><path class="cls-28" d="M479.23,177H453.11l6.38-43.23a4.33,4.33,0,0,1,4.28-3.69h17.38a4.33,4.33,0,0,1,4.28,5Z"/><path class="cls-27" d="M481.53,180H451a3.6,3.6,0,0,1-3.6-3.6h0a3.6,3.6,0,0,1,3.6-3.6h30.52a3.6,3.6,0,0,1,3.6,3.6h0A3.6,3.6,0,0,1,481.53,180Z"/><path class="cls-28" d="M479.46,180H448.94a3.6,3.6,0,0,1-3.6-3.6h0a3.6,3.6,0,0,1,3.6-3.6h30.52a3.6,3.6,0,0,1,3.6,3.6h0A3.6,3.6,0,0,1,479.46,180Z"/><path class="cls-29" d="M453.77,213.63s0,6.93.69,6.8,3.17-8.14,3.17-8.14l-.4-.74a6.06,6.06,0,0,1,2.2,1.55c.49.79,1.65,2.71,1.65,2.71l-.67.57L458.66,215s-.24,5.91-.67,6.54a42.45,42.45,0,0,1-3.62,3.68c-.27.18-1.16-.77-1-1.2C454.28,221.18,453.77,213.63,453.77,213.63Z"/><path class="cls-30" d="M452.1,211.16l1.67,2.47s-.25,6.86.69,6.8,3.17-8.14,3.17-8.14l-2.06-3.86Z"/><path class="cls-29" d="M462.74,211.83s.05,6.93.69,6.8,3.18-8.13,3.18-8.13l-.4-.75a6.2,6.2,0,0,1,2.2,1.55c.49.79,1.64,2.71,1.64,2.71l-.67.57-1.75-1.37s-.24,5.9-.66,6.53a43.93,43.93,0,0,1-3.63,3.68c-.26.18-1.16-.77-1-1.2C463.25,219.38,462.74,211.83,462.74,211.83Z"/><path class="cls-30" d="M461.08,209.36l1.66,2.47s-.24,6.86.69,6.8,3.18-8.13,3.18-8.13l-2.07-3.87Z"/><path class="cls-13" d="M449.5,138.12c1.83-4.58,0-10.13-2.57-9.41-3,.82-6.42,4-8.42,9.61-1.16,3.24-4.47,10.21-5,10-.26,0-7.05-8.47-7.05-8.47a12.3,12.3,0,0,1,.75,3.63S435.5,155,438.34,155C442.73,155,447.2,143.88,449.5,138.12Z"/><path class="cls-31" d="M468.9,162s2.39,6.14,1,10-11.48,4.69-12.32,6.52,8.95,29.66,8.95,29.66a13.67,13.67,0,0,1-5.48,2.49s-15.54-29.5-14.7-34.31,10.35-13.82,12.32-14.32S468.9,162,468.9,162Z"/><path class="cls-31" d="M458.66,162A109,109,0,0,0,454,172c-1.41,3.82-10.39,2.53-11.23,4.36s14.26,33.07,14.26,33.07a13.71,13.71,0,0,1-5.48,2.48s-22.8-30.76-21.29-39.17c.86-4.81,10.55-10.2,12.51-10.7S458.66,162,458.66,162Z"/><path class="cls-32" d="M448.84,175.67h0a.19.19,0,0,1-.17-.22,16.51,16.51,0,0,1,5.3-9.64.2.2,0,0,1,.29,0,.2.2,0,0,1,0,.28A16.19,16.19,0,0,0,449,175.5.19.19,0,0,1,448.84,175.67Z"/><path class="cls-32" d="M454.07,211.36a.19.19,0,0,1-.16-.09c-4.08-6.19-11.73-23.15-11.81-23.32a.21.21,0,0,1,.1-.27.21.21,0,0,1,.27.1c.08.17,7.71,17.11,11.77,23.27a.2.2,0,0,1-.06.28A.2.2,0,0,1,454.07,211.36Z"/><path class="cls-32" d="M462.94,210.36a.2.2,0,0,1-.18-.11c-4.24-8.93-9.85-28.88-9.91-29.08a.21.21,0,0,1,.14-.25.22.22,0,0,1,.25.14c.05.2,5.66,20.12,9.88,29a.19.19,0,0,1-.09.26Z"/><path class="cls-33" d="M454.47,119.29a18.8,18.8,0,0,1-.73-5.37,17.53,17.53,0,0,1,1-5,21.42,21.42,0,0,0,.73-5.17c-4-.88-10.39,2.6-9.91,7a9,9,0,0,1,.16,2,3,3,0,0,1-1.42,2.07,4.61,4.61,0,0,0-1.57,2.44,5.49,5.49,0,0,0,.3,3,2.23,2.23,0,0,1-.48,2.58c-.52.51-1.18.88-1.74,1.34-1.2,1-2.38,3-.84,4.29,2.09,1.73,4.77-.84,7,.27a6.12,6.12,0,0,0,2.59,1.09,6.85,6.85,0,0,0,3.1-.61c1.72-.88,2.48-3.85,2.6-5.61A13.4,13.4,0,0,0,454.47,119.29Z"/><path class="cls-33" d="M466.38,124.61c-.54-.66-1.51-.91-1.92-1.68-.52-1,0-2.15,0-3.17-.06-1.86-1.14-3.86-1.86-5.62,0-.15,0-.31.05-.47a.26.26,0,0,0-.47-.15c-.18,0-.36.11-.28.31s.1.24.14.36a8.27,8.27,0,0,1-1.44,2.45,9.29,9.29,0,0,0-1,2.5c-.55,1.85-1.72,3.59-2,5.5-.43,2.79,1.77,4.8,4.39,3.6,1.26-.58,2-.16,3.26-.36a1.93,1.93,0,0,0,1.32-.79A2,2,0,0,0,466.38,124.61Z"/><path class="cls-13" d="M445.57,155.87c0,.19,12.5,1.58,20.53-.35-.37-3,1.61-14.34,2.26-16.73.3-1.08,3.12-8.89-.95-10.87a22.4,22.4,0,0,0-12.47-1.69c-4.37.72-9.68,2.53-10.7,4.85C440.77,139,446.31,143.86,445.57,155.87Z"/><path class="cls-30" d="M448.05,111.89s0,6.39,1.46,8.48,3.8,3.79,5.49,3.71c2.29-.1,5.65-3.34,6.61-5.73s.52-6,.27-7.67c-.46-3.16-1.69-5.67-8-5.75C451,104.89,448.37,109.17,448.05,111.89Z"/><path class="cls-34" d="M449.5,113.15a.21.21,0,0,1-.15-.05.26.26,0,0,1-.06-.37,2.46,2.46,0,0,1,2.81-.71.27.27,0,0,1-.18.5,2,2,0,0,0-2.2.52A.27.27,0,0,1,449.5,113.15Z"/><path class="cls-34" d="M455.82,112.16a.28.28,0,0,1-.2-.1.27.27,0,0,1,0-.37,2.29,2.29,0,0,1,2.92-.08.27.27,0,0,1,.05.38.28.28,0,0,1-.38,0,1.78,1.78,0,0,0-2.24.06A.29.29,0,0,1,455.82,112.16Z"/><path class="cls-33" d="M455.45,103.72s.91,2.89-.66,4.42c0,0-6.84,2.32-7.44,5.23C447.35,113.37,445.59,103.86,455.45,103.72Z"/><path class="cls-33" d="M454.79,108.14a18.87,18.87,0,0,0,4.95,1.2c1.76,0,2.46,3.78,2.46,3.78s.84.91.8-.24c-.07-2.67-.94-9.29-7.55-9.16C455.45,103.72,455.55,107.85,454.79,108.14Z"/><path class="cls-30" d="M461.35,113.28s1-1.12,1.94-.58,0,4.29-1.47,3.66C460.71,115.87,461.35,113.28,461.35,113.28Z"/><path class="cls-27" d="M462.06,112.94a.19.19,0,0,1-.19-.17s-.46-3.19-2.13-3.23a14.52,14.52,0,0,1-5-1.32.2.2,0,0,1-.11-.13.17.17,0,0,1,0-.17,3.93,3.93,0,0,0,.49-.84,4,4,0,0,0,.19-1.39c0-.22,0-.58,0-.93v-1a.2.2,0,0,1,.2-.19h0a.2.2,0,0,1,.2.2v1c0,.36,0,.72,0,1a4.22,4.22,0,0,1-.2,1.52,4,4,0,0,1-.41.73,14.09,14.09,0,0,0,4.66,1.19c2,0,2.49,3.43,2.51,3.57a.2.2,0,0,1-.17.23Z"/><path class="cls-27" d="M445.08,119.49a.19.19,0,0,1-.19-.16,2.19,2.19,0,0,1,.93-2.29,3.47,3.47,0,0,0,1.32-3.1c-.2-3.57,5.3-5.11,5.54-5.17a.19.19,0,0,1,.24.14.2.2,0,0,1-.14.25s-5.42,1.51-5.24,4.76a3.85,3.85,0,0,1-1.44,3.41c-.6.57-1,1-.82,1.92a.21.21,0,0,1-.16.24Z"/><path class="cls-27" d="M441.66,127.35a.21.21,0,0,1-.18-.11,1.66,1.66,0,0,1,.79-2.17,11,11,0,0,0,2.35-2,.2.2,0,1,1,.3.25,10.54,10.54,0,0,1-2.45,2.14,1.23,1.23,0,0,0-.63,1.64.2.2,0,0,1-.09.27A.15.15,0,0,1,441.66,127.35Z"/><path class="cls-30" d="M452.87,122.3s.44,3.78-1.93,5c0,0,6.18,3.48,10.67-1.14-1.92-1.37-1.91-4.14-2-6.22C459.61,119.92,454.68,122.46,452.87,122.3Z"/><path class="cls-35" d="M454.81,124.3a3.77,3.77,0,0,1-2.06-.67.19.19,0,0,1-.05-.27.2.2,0,0,1,.28,0,3.22,3.22,0,0,0,2.43.52c1.29-.33,4.12-2.75,4.15-2.78a.2.2,0,0,1,.28,0,.22.22,0,0,1,0,.29c-.12.1-2.93,2.5-4.31,2.86A2.84,2.84,0,0,1,454.81,124.3Z"/><path class="cls-31" d="M442.8,162a52.5,52.5,0,0,0,2.61-6.09s12.7,1.16,20.66-.42A53.66,53.66,0,0,1,468.9,162c.78,2.53-14.19,1.21-14.19,1.21Z"/><polygon class="cls-28" points="396.41 222.13 394.37 222.13 406.9 158.35 408.94 158.35 396.41 222.13"/><polygon class="cls-28" points="497.44 222.13 499.49 222.13 486.96 158.35 484.91 158.35 497.44 222.13"/><path class="cls-27" d="M495.18,159.24h-96.5a4.27,4.27,0,0,1-4.27-4.26h105A4.26,4.26,0,0,1,495.18,159.24Z"/><path class="cls-13" d="M469.59,139.31c.31-6.2,1-9.28-1.25-10.79-2.59-1.75-5.62,1.73-7.3,5.82-1.3,3.19-.87,21.34,2,21.34C467.27,155.68,469.27,145.91,469.59,139.31Z"/><path class="cls-36" d="M445.59,148a.17.17,0,0,1-.18-.13,32.5,32.5,0,0,1-1.52-6.37c-.47-4.64,1.1-9.22,2.51-12.68a.2.2,0,0,1,.25-.11.2.2,0,0,1,.1.25c-1.4,3.42-2.94,7.94-2.48,12.5a32.12,32.12,0,0,0,1.5,6.3.19.19,0,0,1-.13.23Z"/><path class="cls-31" d="M425.26,131l1-1.38s4.85,3.14,6.61,6.15c0,0,7.16-3.52,11.89-3.65l1.43,2.51-9,3.57-7.07,2Z"/><polygon class="cls-29" points="424.79 130.06 425.34 142.26 432.61 150.2 435.51 150.2 447.93 148.6 446.75 133.91 434.57 136.53 431.67 136.69 424.79 130.06"/><path class="cls-28" d="M432.61,150.39a.19.19,0,0,1-.19-.17l-.94-13.52a.19.19,0,0,1,.17-.2h0a.19.19,0,0,1,.19.18l.95,13.51a.19.19,0,0,1-.18.2Z"/><path class="cls-28" d="M435.51,150.39a.18.18,0,0,1-.18-.17l-.95-13.67a.18.18,0,0,1,.18-.2h0a.19.19,0,0,1,.19.18l.94,13.67a.18.18,0,0,1-.17.2Z"/><path class="cls-36" d="M460.47,146.36a.19.19,0,0,1-.19-.15c-.94-5,.81-13.14,2.36-15.39a8.52,8.52,0,0,1,2.06-2.2,3.64,3.64,0,0,1,3-.6.2.2,0,0,1,.13.24.19.19,0,0,1-.23.13,3.26,3.26,0,0,0-2.66.55,7.92,7.92,0,0,0-2,2.1c-1.52,2.19-3.22,10.16-2.29,15.1a.19.19,0,0,1-.15.22Z"/><path class="cls-30" d="M452.39,140.23s-1.1-3.72-2.15-4.08c-1.44-.5-3.82,0-4,.38s3.53,2.36,4.05,2.7A20.09,20.09,0,0,0,452.39,140.23Z"/><path class="cls-30" d="M453.11,140.6s-2.4-3.56-3.41-4-6.86-.62-6.92.33,2,.55,2,.55-2.61.48-2.51,1.28a1,1,0,0,0,.91.82s-.5.92,1.06.87c0,0-.75.8-.09.91s2.95-.33,3.46,0,.74,1.33,1.71,1.8c1.77.88,2.74.37,2.74.37Z"/><path class="cls-35" d="M452,139.23a.2.2,0,0,1-.18-.12s-1-2.1-2.14-2.32-4.87-.6-6.34-.07c-.38.14-.43.23-.43.23a3.25,3.25,0,0,0,1.83.32.19.19,0,0,1,.22.18.2.2,0,0,1-.18.22c-.73.08-2.13-.11-2.25-.65s.48-.61.68-.68c1.56-.55,5.31-.19,6.55,0s2.38,2.46,2.42,2.55a.2.2,0,0,1-.1.27Z"/><path class="cls-35" d="M447.89,139.89h0a.22.22,0,0,1-.19-.22,5.58,5.58,0,0,1,1-2.49.18.18,0,0,1,.27,0,.2.2,0,0,1,.05.28,5.28,5.28,0,0,0-.91,2.28A.2.2,0,0,1,447.89,139.89Z"/><path class="cls-35" d="M443.05,139.59a1.14,1.14,0,0,1-.86-.36.63.63,0,0,1-.1-.53q.17-.6,1.38-1.11c1.49-.62,4.63-.15,4.76-.13a.2.2,0,0,1,.17.23.19.19,0,0,1-.23.16s-3.16-.47-4.55.11c-.93.39-1.11.72-1.14.84a.22.22,0,0,0,0,.18.84.84,0,0,0,1,.11,9.83,9.83,0,0,1,4.25-.69.2.2,0,1,1,0,.4,9.31,9.31,0,0,0-4.05.66A1.59,1.59,0,0,1,443.05,139.59Z"/><path class="cls-35" d="M444.12,141.55h0c-.4,0-.52-.2-.56-.33-.1-.32.2-.71.54-.95a11.88,11.88,0,0,1,3-.66.2.2,0,0,1,.05.4,10.92,10.92,0,0,0-2.86.59c-.29.21-.41.44-.39.51s.06,0,.19,0h0c.16,0,.47,0,.83-.08,1.35-.17,2.41-.27,2.76.11a.2.2,0,0,1,0,.29.2.2,0,0,1-.28,0c-.24-.27-1.71-.08-2.42,0A8.61,8.61,0,0,1,444.12,141.55Z"/><path class="cls-13" d="M452.85,140.61s11.07,7.15,12.25,9.58.32,6.29-3.22,5.35-10.92-12.1-11.16-12.26S452.85,140.61,452.85,140.61Z"/><path class="cls-36" d="M459.55,154.25a.23.23,0,0,1-.11,0c-2.88-1.95-8.64-10-8.89-10.36l-.07-.1,2.57-3.84.16.11a51.24,51.24,0,0,1,8.94,7.67.19.19,0,0,1,0,.27.2.2,0,0,1-.27,0,50.42,50.42,0,0,0-8.7-7.49l-2.22,3.3c.7,1,6.07,8.36,8.72,10.15a.21.21,0,0,1,0,.27A.21.21,0,0,1,459.55,154.25Z"/><path class="cls-32" d="M442.8,162.23a.2.2,0,0,1-.2-.18.2.2,0,0,1,.18-.22c.24,0,5.86-.65,8-.22a.19.19,0,0,1,.15.24.18.18,0,0,1-.23.15c-2-.41-7.79.22-7.85.23Z"/><path class="cls-30" d="M426.2,135c-.33-.55-.8-.53-1.25-.72,0,0-.17-.14-.2-.12a.24.24,0,0,0-.2,0,1.31,1.31,0,0,0-.21,1.06.79.79,0,0,0,.57.66,3.26,3.26,0,0,0,.8.3c.18,0,.43.17.56-.18A1.44,1.44,0,0,0,426.2,135Z"/><path class="cls-30" d="M426,136.17c-.37-.85-.88-.67-1.34-.85a.11.11,0,0,0-.11,0,.23.23,0,0,0-.19,0,1.27,1.27,0,0,0-.21,1.06.77.77,0,0,0,.56.66,3.33,3.33,0,0,0,.81.3c.18,0,.42.18.55-.18A1.45,1.45,0,0,0,426,136.17Z"/><path class="cls-30" d="M425.84,137.39c-.34-.76-.78-.64-1.18-.83a.12.12,0,0,0-.1,0,.23.23,0,0,0-.17,0,1.06,1.06,0,0,0-.17.9.79.79,0,0,0,.5.61,3.65,3.65,0,0,0,.71.31c.15,0,.37.18.48-.12A1.35,1.35,0,0,0,425.84,137.39Z"/><path class="cls-30" d="M425.63,138.48c-.24-.56-.57-.47-.86-.61h-.07a.15.15,0,0,0-.13,0,.75.75,0,0,0-.12.66.55.55,0,0,0,.37.45,2.25,2.25,0,0,0,.51.22c.12,0,.28.14.36-.09A.94.94,0,0,0,425.63,138.48Z"/><path class="cls-35" d="M425.6,137.51a2,2,0,0,1-.82-.23c-.49-.24-.87-.47-.9-1.11a1.77,1.77,0,0,1,.29-1,1.64,1.64,0,0,1,0-.38.64.64,0,0,1,.28-.65c.46-.27,1.26.2,1.41.3a.2.2,0,1,1-.21.34c-.29-.18-.81-.4-1-.29s-.09.18-.08.28c0,.42,0,1,1.47,1.22.12,0,.36.16.3.83a.7.7,0,0,1-.33.61A.75.75,0,0,1,425.6,137.51Zm-1.22-1.88a1.18,1.18,0,0,0-.1.52c0,.39.18.53.67.77s.73.2.82.15.12-.14.14-.3a1,1,0,0,0,0-.41A2.18,2.18,0,0,1,424.38,135.63Z"/><path class="cls-35" d="M425.65,138.65a2.12,2.12,0,0,1-1.27-.52,1.51,1.51,0,0,1-.33-1.51.18.18,0,0,1,.24-.13.19.19,0,0,1,.14.24s-.21.75.21,1.1a1.51,1.51,0,0,0,1.11.41,2.12,2.12,0,0,0-.09-.76.2.2,0,0,1,.09-.27.19.19,0,0,1,.26.09,1.87,1.87,0,0,1,.09,1.09.35.35,0,0,1-.18.21A.54.54,0,0,1,425.65,138.65Z"/><rect class="cls-37" x="409.13" y="150.03" width="18.31" height="4.83"/><polygon class="cls-37" points="409.13 150.03 409.13 154.86 397.28 154.86 397.28 153.83 405.96 153.83 405.96 151.06 397.28 151.06 397.28 150.03 409.13 150.03"/><rect class="cls-31" x="398.92" y="151.06" width="10.21" height="2.78"/><path class="cls-28" d="M410.5,154.88a.19.19,0,0,1-.19-.19v-4.48a.19.19,0,0,1,.19-.19.2.2,0,0,1,.19.19v4.48A.2.2,0,0,1,410.5,154.88Z"/><rect class="cls-33" x="404.38" y="145.09" width="18.31" height="4.83"/><polygon class="cls-33" points="404.38 145.09 404.38 149.92 392.54 149.92 392.54 148.89 401.21 148.89 401.21 146.12 392.54 146.12 392.54 145.09 404.38 145.09"/><rect class="cls-31" x="394.17" y="146.12" width="10.21" height="2.78"/><path class="cls-28" d="M405.75,149.93a.19.19,0,0,1-.19-.19v-4.47a.19.19,0,0,1,.38,0v4.47A.19.19,0,0,1,405.75,149.93Z"/><path class="cls-11" d="M453,119.86a31.36,31.36,0,0,0,4.67-.89,4.57,4.57,0,0,1-3.22,2.24C453.92,121.26,453,119.86,453,119.86Z"/><ellipse class="cls-34" cx="456.9" cy="115.14" rx="0.58" ry="1.05" transform="translate(-13.5 87.92) rotate(-10.83)"/><ellipse class="cls-34" cx="451.7" cy="115.48" rx="0.58" ry="1.05" transform="translate(-13.65 86.95) rotate(-10.83)"/><path class="cls-34" d="M453.9,115a3.14,3.14,0,0,1-.11,1.14c-.09.42-.36.77-.5,1.24a1,1,0,0,0,.46,1.06c.26.15.46.13.46.1s-.16-.08-.37-.24a.77.77,0,0,1-.27-.85,12.46,12.46,0,0,0,.56-1.24,3.2,3.2,0,0,0,.12-1.27c-.09-.73-.38-1-.44-1S453.83,114.36,453.9,115Z"/><ellipse id="_Path_2" data-name="&lt;Path&gt;" class="cls-26" cx="46.61" cy="220.46" rx="46.61" ry="5.53"/><path class="cls-38" d="M107.24,122.52a.56.56,0,0,0-.18-.72l-.21-.14c.31.07.62.12.94.17a1.79,1.79,0,0,0,1.66-.43.18.18,0,0,0,0-.21l-.06-.06a1.3,1.3,0,0,0,1-.63.71.71,0,0,0-.23-1,5.27,5.27,0,0,0-1.87-.52l-2.65-.61,2.13-.2c.44,0,1.23.06,1.61-.22.6-.43-.31-.85-.66-1-2.16-.66-9.22-2.47-10.61.06,0,0,.15,3.13.82,4,1,1.28,2.7,1.19,4.19,1.39.92.12,1.83.25,2.75.36C106.29,122.87,107,123,107.24,122.52Z"/><path class="cls-39" d="M60.18,86.21c4.16-1.86,11.05,7.62,13.22,11.41,1.95,3.39,6.73,14.1,6.73,14.1l18.69,4L99.9,122s-22.39,2.25-26.31.43C69.32,120.39,50.81,90.41,60.18,86.21Z"/><path class="cls-40" d="M44.53,73.9s.42,4,2.2,4.69l.11-2.88Z"/><path class="cls-40" d="M59.86,67.07s1,6.59-1.47,7.92c-2.16,1.15-1.78-7.44-1.78-7.44Z"/><path class="cls-38" d="M58.5,68.55s.71,6,0,8.42a7.66,7.66,0,0,1-5.39,4.54c-2.28.18-6.24-1.18-7.26-4.86a32.71,32.71,0,0,1-1.22-7.58c.06-3.2,1-5.84,7.19-6.7C54.67,62,57.85,65.89,58.5,68.55Z"/><path class="cls-41" d="M57.18,70A.25.25,0,0,1,57,69.9a2,2,0,0,0-2.25-.24.28.28,0,0,1-.36-.12.27.27,0,0,1,.11-.36,2.47,2.47,0,0,1,2.89.36.27.27,0,0,1,0,.38A.29.29,0,0,1,57.18,70Z"/><path class="cls-41" d="M48.22,70A.27.27,0,0,1,48,70a.27.27,0,0,1,0-.38,2.31,2.31,0,0,1,2.91-.29.27.27,0,1,1-.29.45A1.79,1.79,0,0,0,48.4,70,.27.27,0,0,1,48.22,70Z"/><path class="cls-38" d="M45.47,71.58s-1.13-1-2-.33.55,4.25,1.91,3.44C46.44,74.07,45.47,71.58,45.47,71.58Z"/><path class="cls-40" d="M43.52,68.76a8.72,8.72,0,0,0,1.9,3.39c-.22-1.06,1.71-4.73,1.71-4.73l.26-.1a4.67,4.67,0,0,0,2.61-.9l.4-.1a1.19,1.19,0,0,0,1.2.73c.26,0,.37-.28.56-.35.74-.27,1.09.23,1.71.57a2.5,2.5,0,0,0,1.2.29c.13,0,.3-.06.43,0a.77.77,0,0,1,.46-.08l.33.16a1.25,1.25,0,0,1,.17.16.65.65,0,0,1,.21,0l.26.14a.7.7,0,0,1,.19.3c.23.26.3.53.62.74a6.51,6.51,0,0,0,1,.39,2.12,2.12,0,0,1,.59,1.86s.13-.39.27-1a.23.23,0,0,0,.32-.06,4.21,4.21,0,0,0,.6-3.29,7.09,7.09,0,0,0-.64-1.43c-.27-.58,0-.59.13-1.18a2.1,2.1,0,0,0-.25-1.18,7.63,7.63,0,0,0-.64-1,7.39,7.39,0,0,1-.55-1.45c-.4-.91-1.23-.77-2-.77-1.47,0-2.69-1.67-4.19-1.23a2.82,2.82,0,0,0-.46.23,3.68,3.68,0,0,1-1.89.46,2.12,2.12,0,0,0-1.17.1,2.86,2.86,0,0,0-1,1.08,4,4,0,0,1-.45.65,7.6,7.6,0,0,0-1,.72c0-.12.14-.47-.41-.1a1.42,1.42,0,0,0-.61,1.36C43.31,63.9,43,66.85,43.52,68.76Z"/><path class="cls-27" d="M45.47,71.77h0a.19.19,0,0,1-.18-.2,9.63,9.63,0,0,1,1.56-4,3.28,3.28,0,0,1-1.63-1.45,2.82,2.82,0,0,1-.05-2.25.19.19,0,0,1,.36.13,2.4,2.4,0,0,0,0,1.94,3.08,3.08,0,0,0,1.63,1.36.2.2,0,0,1,.13.12.17.17,0,0,1,0,.17,9.73,9.73,0,0,0-1.62,4.06A.19.19,0,0,1,45.47,71.77Z"/><path class="cls-27" d="M57.05,65.8h0a3.16,3.16,0,0,1-1.79-.8,3.83,3.83,0,0,1-.29-.28,1.7,1.7,0,0,0-1-.63,1.56,1.56,0,0,0-.82.25,1.68,1.68,0,0,1-1.13.27,1.72,1.72,0,0,1-.89-.63,1.77,1.77,0,0,0-.58-.49,1,1,0,0,0-.93.13,1.53,1.53,0,0,0-.54.88.19.19,0,0,1-.23.14.19.19,0,0,1-.14-.23,1.88,1.88,0,0,1,.69-1.09,1.33,1.33,0,0,1,1.31-.18,2.2,2.2,0,0,1,.7.58,1.46,1.46,0,0,0,.69.52A1.43,1.43,0,0,0,53,64a2,2,0,0,1,1-.29,2,2,0,0,1,1.22.74l.28.27a2.84,2.84,0,0,0,1.58.7.2.2,0,0,1,.17.21A.19.19,0,0,1,57.05,65.8Z"/><path class="cls-27" d="M57.89,63a.19.19,0,0,1-.19-.18,1,1,0,0,0-.38-.66,2.6,2.6,0,0,0-1.74-.39c-.51.08-1.09-.34-1.61-.71a3,3,0,0,0-.81-.48A2.14,2.14,0,0,0,51.6,61a1.26,1.26,0,0,1-1.3.21c-.75-.37-1.57.58-1.57.59a.19.19,0,0,1-.29-.25s1-1.18,2-.68c.31.16.54,0,.94-.2a2.47,2.47,0,0,1,1.81-.42,2.73,2.73,0,0,1,1,.54c.45.31,1,.71,1.35.65a2.91,2.91,0,0,1,2,.47,1.27,1.27,0,0,1,.52.92.19.19,0,0,1-.17.21Z"/><polygon class="cls-38" points="19.17 202.88 22.59 197.68 27.65 201.18 23.5 206.3 18.76 204.2 19.17 202.88"/><path class="cls-27" d="M18.79,202.62s3.08,2.9,6.05,2.27c0,0,1.08,3.66,2.14,4.78s4.17,3.19,3.17,5.41l-13.52-9.35A6.86,6.86,0,0,1,18.79,202.62Z"/><rect class="cls-40" x="22.2" y="202.82" width="1.52" height="16.43" transform="translate(-163.65 109.85) rotate(-55.33)"/><path class="cls-28" d="M24.17,205.12a9.19,9.19,0,0,1-5.51-2.36.19.19,0,0,1,.26-.28s2.82,2.59,5.9,2.22a.19.19,0,0,1,.21.17.2.2,0,0,1-.17.21A5.32,5.32,0,0,1,24.17,205.12Z"/><path class="cls-28" d="M24.08,206.74a.19.19,0,0,1-.19-.15.2.2,0,0,1,.15-.23l1.23-.24a.18.18,0,0,1,.22.15.18.18,0,0,1-.14.22l-1.24.25Z"/><path class="cls-28" d="M24.62,208.21a.17.17,0,0,1-.18-.15.18.18,0,0,1,.14-.22l1.23-.25a.2.2,0,0,1,.23.15.19.19,0,0,1-.15.22l-1.23.25Z"/><polygon class="cls-38" points="57.97 215.6 57.82 209.37 63.98 209.37 63.48 215.94 58.39 216.91 57.97 215.6"/><path class="cls-27" d="M57.51,215.6s4.19.63,6.27-1.58c0,0,3,2.4,4.48,2.71s5.24.25,5.68,2.65H57.51A6.85,6.85,0,0,1,57.51,215.6Z"/><rect class="cls-40" x="57.51" y="219.38" width="16.43" height="1.51"/><path class="cls-28" d="M58.7,215.86a7.94,7.94,0,0,1-1.21-.08.19.19,0,1,1,0-.37s3.81.53,6.11-1.53a.19.19,0,0,1,.27,0,.2.2,0,0,1,0,.27A7.93,7.93,0,0,1,58.7,215.86Z"/><path class="cls-28" d="M64.1,216A.16.16,0,0,1,64,216a.18.18,0,0,1,0-.26l.87-.91a.2.2,0,0,1,.27,0,.19.19,0,0,1,0,.27l-.88.9A.16.16,0,0,1,64.1,216Z"/><path class="cls-28" d="M65.38,216.91a.18.18,0,0,1-.13-.06.17.17,0,0,1,0-.26l.87-.9a.19.19,0,0,1,.27,0,.2.2,0,0,1,0,.27l-.87.9A.2.2,0,0,1,65.38,216.91Z"/><path class="cls-31" d="M68.59,135.48s.87,36.14-.37,46.64c-1.08,9.09-2.31,30-2.31,30l-10,0s-1.11-25.86-1.28-29.16c-.24-4.71-2.25-30.18-2.76-31.19-.4-.81-5.41,19-7.38,27a17.56,17.56,0,0,1-2.73,5.94l-14,19.77-8.6-5.92,11.8-21s1.76-39.36,3.27-42.65C57.67,135.91,68.59,135.48,68.59,135.48Z"/><path class="cls-28" d="M51.87,152l-.07,0a.19.19,0,0,1-.1-.25c1.65-3.83,1.95-11.72,2-11.8a.19.19,0,0,1,.19-.18h0a.2.2,0,0,1,.19.2c0,.32-.32,8-2,11.93A.19.19,0,0,1,51.87,152Z"/><path class="cls-28" d="M52.86,149.31a.19.19,0,0,1-.16-.09.19.19,0,0,1,0-.26,33.17,33.17,0,0,0,3.6-2.61,82,82,0,0,0,1.1-8.86.17.17,0,0,1,.2-.18.19.19,0,0,1,.17.21c-.12,1.42-.78,8.54-1.17,9.06a34.07,34.07,0,0,1-3.69,2.7A.19.19,0,0,1,52.86,149.31Z"/><path class="cls-38" d="M55.65,79.83s-.21,3.39-.21,5.89c0,0-3.18,3.61-8.26-.35,0-2.06.43-4.73.5-6.88C47.68,78.49,53.88,80.24,55.65,79.83Z"/><path class="cls-42" d="M46.64,84s5.8,1.89,9.71,0c0,0,9.22,3.31,10.06,4.38s3.22,45.11,2.83,47.36a116.31,116.31,0,0,1-36-.84c0-12,2.51-46.4,3.93-47.47S46.64,84,46.64,84Z"/><path class="cls-39" d="M46.64,84S38.11,86.7,36,87.23s-4.34,48.12-4.34,48.12,12.29,2,16.61,2.15C48.22,137.5,51.14,99.41,46.64,84Z"/><path class="cls-28" d="M21.72,117.53a.19.19,0,0,1-.18-.13.2.2,0,0,1,.13-.24,5.81,5.81,0,0,1,1.95-.09,12.25,12.25,0,0,0-2.79-1.76.19.19,0,0,1-.15-.22.2.2,0,0,1,.23-.15c.87.18,3.22,2,3.49,2.26a.18.18,0,0,1,.05.22.17.17,0,0,1-.2.11,7.38,7.38,0,0,0-2.47,0Z"/><path class="cls-28" d="M32.16,179.32a.18.18,0,0,1-.15-.08l-1.47-2.05,5.08.89a.19.19,0,0,1-.07.38l-4.16-.74.93,1.3a.18.18,0,0,1,0,.26A.21.21,0,0,1,32.16,179.32Z"/><path class="cls-39" d="M56.35,84s6.83,26.31,5.29,53.91c0,0,6.71.16,9.37-1,0,0-3.09-46.77-4.6-48.58S56.35,84,56.35,84Z"/><path class="cls-43" d="M70.19,124.64a.19.19,0,0,1-.19-.18c0-.12-1-12.6-1.3-16.22,0-.18-2.22-18.48-2.48-19.8a.2.2,0,0,1,.15-.23.19.19,0,0,1,.22.15c.27,1.34,2.39,19.09,2.48,19.84.31,3.63,1.3,16.11,1.31,16.23a.2.2,0,0,1-.18.21Z"/><path class="cls-44" d="M52.37,81.77a2.14,2.14,0,0,1-.45,0,13,13,0,0,1-2.48-1c-.91-.41-1.62-.81-1.68-.84a.21.21,0,0,1-.07-.27.2.2,0,0,1,.27-.08s.72.39,1.59.8a8.74,8.74,0,0,0,3.1.94h0l.4,0a8.4,8.4,0,0,0,1.67-.61l.3-.19a.2.2,0,0,1,.17,0l.3-.17a.22.22,0,0,1,.28.07.2.2,0,0,1-.07.27s-.35.21-.79.42a4.66,4.66,0,0,1-1.82.64A3.18,3.18,0,0,1,52.37,81.77Z"/><path class="cls-38" d="M30.12,137.61s3.36,1.46,4,2.39,1.55,2.24,1.15,2.7c-1,1.13-2.44-2.5-3.74-2.33C31,140.44,30.12,137.61,30.12,137.61Z"/><path class="cls-28" d="M8.81,179.34c3,1.52,6.36-.69,8.33-3.18.41-.52-.11-1.19-.62-.93-.28.15-.56.27-.84.39a.46.46,0,0,0-.26,0c-1.25.34-3,.91-4.32.52-2.6-.77-2.41-2.89-2.26-5.14A26,26,0,0,1,11,162.53c1.58-3.66,3.76-7.38,6.69-9.83a13,13,0,0,0,3.44-2.13.58.58,0,0,0,0-.77,2.18,2.18,0,0,1,.23-.09c.63-.21.36-1.35-.28-1.14a18.09,18.09,0,0,0-7.62,5,14.87,14.87,0,0,0-3.62,3.67,23.3,23.3,0,0,0-4.66,12C5,172.62,5.73,177.76,8.81,179.34Z"/><path class="cls-45" d="M22.44,148c.24,1,1.35,1,2.2.57a1.38,1.38,0,0,0,.78-1.11c.18-1.12-.23-3.43,1.17-3.88a38.29,38.29,0,0,1,6.16-.55c2,.08,2.61,3,3.33,4.55.4.89,1.1,1.95,2.13,1.11a.57.57,0,0,0,.11-.48c-1.08-1.71-.82-4.07-2.28-5.57a7.84,7.84,0,0,0-5.7-2.31c-1.46.14-2.92.29-4.38.4-2.11.17-3.42,3.1-3.47,3.61A12.48,12.48,0,0,0,22.44,148Z"/><path class="cls-45" d="M16.55,179.64c2.7,1.44,5.87,1.33,8.77,1.49l12.14.69c.28,0,.35-.34.23-.55,2.08-3.33,4.15-6.89,4.22-11.13C42,165.69,40.51,161,39,157c-1.23-3.21-2.71-6.87-5.21-9S28,146.18,25,146.81s-6,1.4-8,4.1-3.19,6.59-4,10C11.73,166.81,10.67,176.5,16.55,179.64Z"/><path class="cls-13" d="M14.17,171.31c1.52,8.83,9.11,10.52,15.82,10.76,4.61.16,9.38.65,14,.31a7.79,7.79,0,0,0,7.12-5.8c3-9.27-3.41-20.5-7.69-24.91a20,20,0,0,0-11.15-5.34c-4.15-.31-8.94-.07-12.4,2.9-2.69,2.31-4.18,5.94-5,9.59A32.86,32.86,0,0,0,14.17,171.31Z"/><path class="cls-36" d="M36.35,178.77c-5.91,0-12.25-.44-13.28-1.09-2.34-1.49-3.23-10.05-2.16-12.32.11-.24.51-.59,2.61-.92,6.2-1,21.91-.93,24.11,1.42h0c1.63,1.72,1.21,10-.6,11.79C46.24,178.45,41.45,178.77,36.35,178.77Zm-2.74-14.55a71.2,71.2,0,0,0-10,.6c-2,.32-2.29.64-2.32.7-1,2.13-.15,10.46,2,11.84,1.65,1,21.85,1.67,23.5,0s2.09-9.67.59-11.26h0C46.09,164.77,39.75,164.22,33.61,164.22Z"/><path class="cls-36" d="M31.48,158.94c-4.91,0-9.47-.27-10.54-1a2.84,2.84,0,0,1-1.1-2.72c.16-2.06,1.58-4.43,2.39-4.82a28.07,28.07,0,0,1,17.89,0l0,0c.19.12,4.8,3.07,5.51,7.34a.27.27,0,0,1-.15.29C44.8,158.49,37.85,158.94,31.48,158.94Zm0-9.63a27.14,27.14,0,0,0-9.08,1.42c-.65.31-2,2.54-2.18,4.5a2.47,2.47,0,0,0,.93,2.39c1,.68,5.84,1,12.64.95,6.16-.09,10.9-.51,11.5-.84-.71-3.94-5-6.81-5.32-7A24.64,24.64,0,0,0,31.48,149.31Z"/><path class="cls-36" d="M31.61,152.7a1.25,1.25,0,1,0,1.24-1.25A1.24,1.24,0,0,0,31.61,152.7Z"/><path class="cls-36" d="M42.24,168.66a1.25,1.25,0,1,0,1.25-1.25A1.25,1.25,0,0,0,42.24,168.66Z"/><path class="cls-36" d="M24.14,168.66a1.25,1.25,0,1,0,1.24-1.25A1.25,1.25,0,0,0,24.14,168.66Z"/><path class="cls-38" d="M23.3,138.54c.45,1.13,1,2.2,1.44,3.34s.07,1.83.71,2.9c.48.8,1.37.62,1.91,0,.27.64.63.77,1.3.7a1.59,1.59,0,0,0,.95-.69c.32.52,1.76.06,1.82-.8.51.4,1,0,1.32-.24,1-.77,0-1.73-.23-2.21-1.32-3-2.77-3.73-4.5-6.5.07-.09-3.44.49-4.5,1.66C22.89,137.39,23,137.67,23.3,138.54Z"/><path class="cls-44" d="M31.86,144.21a2.1,2.1,0,0,1-.47,0,.18.18,0,0,1-.15-.21.2.2,0,0,1,.22-.16,1.85,1.85,0,0,0,1.29-.22A.69.69,0,0,0,33,143c-.06-1.49-2.33-3.85-2.35-3.88a.18.18,0,0,1,0-.26.17.17,0,0,1,.26,0c.1.1,2.39,2.49,2.46,4.13a1.06,1.06,0,0,1-.35.9A1.75,1.75,0,0,1,31.86,144.21Z"/><path class="cls-44" d="M27.29,143.69a.19.19,0,0,1,0-.38,13,13,0,0,0,2.92-.45.18.18,0,0,1,.25.09.18.18,0,0,1-.09.25,14.19,14.19,0,0,1-3.05.49Z"/><path class="cls-39" d="M38.41,88.21c3.51,2.92-2,13.28-4.43,16.89-2.18,3.24-9.7,12.25-9.7,12.25l4.59,18.55-5.09,3.7s-11.86-19.12-12-23.44C11.74,111.45,30.53,81.64,38.41,88.21Z"/><path class="cls-43" d="M34,105.29a.15.15,0,0,1-.11,0,.18.18,0,0,1,0-.26c0-.06,4.26-5.53,5.27-11.53.39-2.3.12-4-.79-5a3.2,3.2,0,0,0-2.35-1,.18.18,0,0,1-.2-.18.18.18,0,0,1,.18-.2,3.52,3.52,0,0,1,2.65,1.16c1,1.12,1.29,2.91.88,5.32-1,6.1-5.3,11.64-5.34,11.7A.18.18,0,0,1,34,105.29Z"/><path class="cls-43" d="M35.38,132.3a.18.18,0,0,1-.15-.07L34,130.6a.19.19,0,0,1,0-.25c.07-.06,6.64-6.25,7.77-8.75a.16.16,0,0,1,.11-.1.17.17,0,0,1,.14,0l2.11,1a.17.17,0,0,1,.1.12.16.16,0,0,1,0,.15c-.18.3-4.51,7.43-8.72,9.48A.11.11,0,0,1,35.38,132.3Zm-1-1.79,1.08,1.36c3.71-1.91,7.62-8,8.32-9.09L42,121.93C40.74,124.41,35.29,129.63,34.35,130.51Z"/><path class="cls-43" d="M70.6,131.26h0c-3.08-.27-4.7-4.13-4.76-4.3a.11.11,0,0,1,0-.1l.41-2.44a.19.19,0,0,1,.14-.16.21.21,0,0,1,.2.08,16.92,16.92,0,0,0,3.73,3.51.19.19,0,1,1-.21.31,17.14,17.14,0,0,1-3.56-3.24l-.33,2c.19.44,1.75,3.78,4.43,4a.18.18,0,0,1,.17.2A.19.19,0,0,1,70.6,131.26Z"/><polygon class="cls-29" points="98.75 128.13 115.59 131.16 124.08 111.52 106.14 107.7 98.75 128.13"/><polygon class="cls-29" points="125.36 114.51 124.08 111.52 119.33 114.45 120.02 117.31 125.36 114.51"/><polygon class="cls-11" points="124.22 114.62 123.32 112.33 106.92 108.78 100.22 127.2 101.55 130.42 107.62 127.85 124.22 114.62"/><polygon class="cls-29" points="100.03 131.12 116.87 134.15 125.36 114.51 107.42 110.69 100.03 131.12"/><path class="cls-38" d="M104.35,117c-.73-1-2.66-1.09-3.67-.8-.73.21-1.22,2.58-1,2.53a14.38,14.38,0,0,1,2.06-.64,2.43,2.43,0,0,1,2,1c.2.22.33.9.68.75C105.11,119.48,104.68,117.43,104.35,117Z"/><path class="cls-44" d="M104.35,120c-.33,0-.55-.3-.82-.64a2.11,2.11,0,0,0-1.7-1.09,2.33,2.33,0,0,1-1.18,1.25.2.2,0,0,1-.24-.13.18.18,0,0,1,.12-.23c.62-.19,1-1.14,1-1.15a.2.2,0,0,1,.16-.12h.14a2.46,2.46,0,0,1,2,1.24c.2.25.38.49.52.49s.11,0,.19-.14a2.8,2.8,0,0,0-.36-2.39c-.69-1.18-3.44-.72-3.47-.71a.2.2,0,0,1-.22-.16.19.19,0,0,1,.16-.22c.12,0,3-.51,3.86.9a3.13,3.13,0,0,1,.36,2.76A.61.61,0,0,1,104.35,120Z"/><path class="cls-11" d="M54.72,76.53A31.27,31.27,0,0,1,50,76.25a4.59,4.59,0,0,0,3.49,1.81C54,78,54.72,76.53,54.72,76.53Z"/><ellipse class="cls-34" cx="50.2" cy="72.37" rx="1.05" ry="0.58" transform="translate(-24.99 118.22) rotate(-86.63)"/><ellipse class="cls-34" cx="55.4" cy="72.03" rx="1.05" ry="0.58" transform="translate(-19.76 123.09) rotate(-86.63)"/><path class="cls-34" d="M52.8,71.85a3.26,3.26,0,0,0,.29,1.25,12,12,0,0,0,.72,1.14.77.77,0,0,1-.17.87c-.18.19-.34.25-.33.29s.2,0,.44-.17a.94.94,0,0,0,.32-1.11c-.21-.45-.52-.77-.67-1.18a3.32,3.32,0,0,1-.24-1.12c0-.65.05-1,0-1S52.79,71.11,52.8,71.85Z"/></g></g></g></svg>