<svg xmlns="http://www.w3.org/2000/svg" viewBox="0 0 337.43 231.72"><defs><style>.cls-1,.cls-10,.cls-8,.cls-9{isolation:isolate;}.cls-2,.cls-4{fill:#75c189;}.cls-2{opacity:0.3;}.cls-3{fill:#eaeaea;mix-blend-mode:multiply;}.cls-10,.cls-13,.cls-5{opacity:0.2;}.cls-6{fill:#fb8a7e;}.cls-7{fill:#0080ff;}.cls-11,.cls-8,.cls-9{fill:#fff;}.cls-8{opacity:0.6;}.cls-9{opacity:0.4;}.cls-12{fill:#ffd371;}.cls-13,.cls-17{fill:#fa5;}.cls-14{fill:#1b2e35;}.cls-15{fill:none;stroke:#1b2e35;stroke-linecap:round;stroke-linejoin:round;stroke-width:0.5px;}.cls-16{fill:#00302d;}.cls-18{fill:#ec7738;}</style></defs><g class="cls-1"><g id="Layer_2" data-name="Layer 2"><g id="Option_1" data-name="Option 1"><path class="cls-2" d="M162.85,231.72c95.46,0,137.11-28.37,137.11-28.37s62.39-29.77,26.16-107.57C297.29,33.87,194.05-16.77,143.38,5.24S97.27,55.08,41.62,95.36-1.16,167.63,8.81,183.83C8.81,183.83,39.84,231.72,162.85,231.72Z"/><ellipse id="_Path_" data-name="&lt;Path&gt;" class="cls-3" cx="160.81" cy="208.89" rx="135.58" ry="14.45"/><path class="cls-4" d="M243,50.64c16.13,2.21,24.76,24,30.17,54.2s2.09,54.67,2.09,70.8-12.49,28.1-12.49,28.1c-59.82,15.27-147.92,10.12-167.34,2.1S66.62,178.2,66.62,178.2s13.48-35.1,27.81-43.11S163.2,118.5,163.2,118.5c4.59-18,27.8-41.18,58.45-56.09C221.65,62.41,226.86,48.44,243,50.64Z"/><path class="cls-5" d="M96.2,161.2l76.23-11.86h0c8.34-3,17-6.06,25.38-9.08l26.33-65.72c.4,3.25,6.7,3.34,9.27,2.55-4.15,13.81-14.32,29.57-14.7,41.58,1.34-3.21,7.09-7.88,10.49-8.24-8.06,6.11-13.55,28-19.67,46,1.68-1.3,4.32-1.71,7.88-1.28-5.71-.1-15.21,6.11-23.41,10.7-9.84.55-18.27-.42-22.57,2.48l-2.84-2.48A185.36,185.36,0,0,0,129,168.35a74.2,74.2,0,0,1,8-4.57c-12.63-.65-23.68-.05-32.77,2.09-23.66,15.51-26.19,19.22-30,23.66l-6-8.1Z"/><path class="cls-6" d="M103.66,112.52c4.33-1.91,23.58-.25,36,2.27,1.69.34,3.34.67,4.93,1l1.1.24c4.72,1,8.84,2,11.6,2.71l5.51,1.48,2.44-4.2,4.49-7.76,38.15,2.93s10.41,52.7-21.54,52.7c-.92,0-1.86,0-2.83-.11-7.11-.54-15.19-3-23.38-6.32-7-2.79-14-6.21-20.63-9.6l-1.26-.64c-1.25-.63-2.47-1.27-3.69-1.89-13.13-6.82-23.93-12.73-28-12-1.29,9.41-24.1,27.13-41.64,42.81l-8-3.28S99.32,114.44,103.66,112.52Z"/><path class="cls-7" d="M145,113.92l-7.41,36s25.49,20.36,47.4,12.42,15-44.61,15-44.61l-28.9-8.71-7.9,9.28Z"/><path class="cls-8" d="M137.58,150a8.25,8.25,0,0,1,1.22.78,104.75,104.75,0,0,0,15.52,8.68h0c8.52,3.41,19.18,6.35,29.21,3.28.49-.14,1-.23,1.44-.4,21.9-7.94,15-44.58,15-44.58L171.1,109l-5.83,6.86-2.07,2.43-17.15-4.15-1.07-.26-.36,1.76-3.24,15.78-3.11,15.12Z"/><polygon class="cls-7" points="146.25 113.22 138.54 152.23 133.91 148.65 140.08 112.47 146.25 113.22"/><polygon class="cls-9" points="133.91 148.65 138.54 152.24 138.8 150.89 139.53 147.2 142.66 131.34 145.72 115.92 146.05 114.18 146.25 113.22 140.08 112.47 139.69 114.69 136.8 131.67 134.58 144.72 133.91 148.65"/><path class="cls-10" d="M106.25,133.08c.12.2.24.28.38.26,4-.73,14.82,5.18,28,12l-.67,4,4.63,3.65.26-1.52a103.32,103.32,0,0,0,15.52,8.84h0l5.83-3,8.43-4.42-3.46-31.53-5,6.93s-11.68,2.83-17.45,3.39l-1.29.13c-1.58.12-3.13.21-4.58.22-1,0-2,0-2.89-.08C124,131.29,113.22,130.92,106.25,133.08Z"/><path class="cls-6" d="M104.89,140.85c7.36-6.43,64.91-8.87,64.91-8.87l17.49,30.64-72.92-7.46c-3,9-39.16,25.7-56.72,35.26l-6.19-3.18S99.51,145.54,104.89,140.85Z"/><path class="cls-7" d="M148.23,132.57l7.12,31.77,17.68-.67s43.9,20.87,35.83-48.46l-35-9.52-11.36,23.37Z"/><path class="cls-9" d="M148.23,132.57l7.12,31.77,17.68-.67s43.9,20.87,35.83-48.46l-35-9.52-11.36,23.37Z"/><polygon class="cls-7" points="150.25 130.97 158.4 165.01 152.43 164.66 145.44 132.4 150.25 130.97"/><polygon class="cls-8" points="150.25 130.97 158.4 165.01 152.43 164.66 145.44 132.4 150.25 130.97"/><path class="cls-11" d="M63,188.7c.29-.82-9.87-3.9-9.87-3.9s-8.42,3.93-14.87,3.1-4.47,4,2.15,6.45l16.39,6.14C61.48,202.25,60,197.14,63,188.7Z"/><path class="cls-5" d="M100.44,142.21l7.72-3.06c-.54,8.61-24.46,24.65-41.72,37.4l1.15,1.51s-6.65,11-8.76,11.44-5.3-4.37-5.3-4.37Z"/><path class="cls-6" d="M106.63,133.34l-13.17-9.22L57,172.87l6,4.44C81.81,162.67,107.82,145.29,106.63,133.34Z"/><path class="cls-11" d="M42.5,175l6.27,5.24,7.15,6c3.87,3.22,4.19-2.08,9.77-9.07.14-.17-.33-.71-1.09-1.42C63,174.25,60,172,58.51,170.88l-.83-.62a40.38,40.38,0,0,1-4.46.11c-3.17-.07-7.41-.53-10.6-2.14C36.8,165.31,37.09,170.5,42.5,175Z"/><path class="cls-6" d="M115.19,109.62c1.38-1.36,8.16-5,9.31-6.05.26-.24,32.38-10.36,36.8-10.37l3-18.28,9.55,1.8s-4,23.65-6.71,25.87-37.7,5.79-37.7,5.79-3.2,3.78-5,4.29S113.8,111,115.19,109.62Z"/><polygon class="cls-5" points="163.74 78.54 173.09 81.1 173.56 78.54 164.06 76.61 163.74 78.54"/><path class="cls-12" d="M162.88,77.13l11,2.84a124.63,124.63,0,0,0-2.06-25.71C166.86,55.61,164.74,65.94,162.88,77.13Z"/><path class="cls-13" d="M162.88,77.13l11,2.84a124.63,124.63,0,0,0-2.06-25.71"/><path class="cls-14" d="M188.59,9.69l-11.77,4.64L173.4,34c4.58,25.86,9.18,51,14.18,54.83,4,4.63,13,15.71,32.09,18.62-3.48-7.18,2.48-24.09,2.48-36.54s-13.87-17.7-12.62-27.77C214.52,3,188.59,9.69,188.59,9.69Z"/><path class="cls-14" d="M176.82,14.33a11.63,11.63,0,0,0-4.89,9.91c.25,6.64.5,13.05.69,17.14.94,19.44,26.73,8.66,30.9,5.21s-4.55-31.37-9.35-33S176.82,14.33,176.82,14.33Z"/><path class="cls-12" d="M170.22,104.27l-5.28,12h0c19.38.77,44.83,8.22,44.83,8.22s-.13-6.83-.47-11.18c-.94-12-2.18-32.4,3.21-48.61.35-1.07.72-2.17,1.11-3.31a2.91,2.91,0,0,0-2-3.73,99.37,99.37,0,0,0-10.91-2.45,107.66,107.66,0,0,0-15-1.59c-6.5,0-14,.69-14,.69l-1.73,7.13C166.46,77.5,167,80.77,170.22,104.27Z"/><path class="cls-6" d="M199.05,55.09s-2.47,3.52-10.69,4.57c0,0-4.08-2.68-2.35-5.93,0,0,1.78-.56,2.17-3.39a13.75,13.75,0,0,0-.76-5.89c-.09-.31-.2-.63-.32-1L197.5,37S193.84,50.17,199.05,55.09Z"/><path class="cls-10" d="M195.16,40.77s-.55,7.43-7,9.57a13.75,13.75,0,0,0-.76-5.89C191.21,42.45,195.16,40.77,195.16,40.77Z"/><path class="cls-6" d="M184.7,15.69c-8.5,1.45-10.46,6.47-9.58,15.33C176.2,42.09,180,49.45,190.18,45.3,204.06,39.66,198.8,13.28,184.7,15.69Z"/><path class="cls-14" d="M185.61,28c.1.7.56,1.22,1,1.15s.76-.7.66-1.4-.57-1.21-1-1.14S185.5,27.32,185.61,28Z"/><path class="cls-14" d="M186.46,26.63l-1.61-.37S185.8,27.43,186.46,26.63Z"/><path class="cls-14" d="M176.88,29.15c.1.7.56,1.22,1,1.15s.76-.69.66-1.39-.57-1.22-1-1.15S176.77,28.45,176.88,29.15Z"/><path class="cls-14" d="M177.73,27.77l-1.61-.38S177.07,28.56,177.73,27.77Z"/><path class="cls-14" d="M188.59,23.16a.38.38,0,0,0,.28-.12.37.37,0,0,0,0-.52,4.82,4.82,0,0,0-4.25-.73.37.37,0,0,0-.24.46.37.37,0,0,0,.46.24,4.15,4.15,0,0,1,3.55.58A.38.38,0,0,0,188.59,23.16Z"/><path class="cls-14" d="M175.19,24.48a.35.35,0,0,0,.25-.1,3.64,3.64,0,0,1,2.95-1.18.36.36,0,0,0,.42-.3.35.35,0,0,0-.29-.42,4.31,4.31,0,0,0-3.58,1.37.36.36,0,0,0,.25.63Z"/><path class="cls-14" d="M196.42,28.42s-5.16-6.3-5.48-11.79c0,0-18-4-15.92,13.23,0,0-4.23-14.89,10.31-17.72S199.62,32.37,196.42,28.42Z"/><path class="cls-6" d="M195.34,30.45a3.79,3.79,0,0,1,3.43-4.09c2.68-.16,4.86,5-1.47,7.45C196.4,34.16,195.71,33.33,195.34,30.45Z"/><path class="cls-15" d="M187.58,35.18s-.32,2.36-5,2.54"/><path class="cls-14" d="M192.73,14.72s-3.67,4-7.67,5.61a85.68,85.68,0,0,1-11.66,3.13c1.58,7.79,2.11,16.25-5.11,19,2.12-6.49-.35-13.25,1.14-19.33,3.25-13.22,14.41-16.32,19.75-13.59C190.57,10.28,192.73,14.72,192.73,14.72Z"/><path class="cls-14" d="M197,16.6v10a11.67,11.67,0,0,1-1,9.13c.28-1.95-.14-6.25-.87-11.61l-3.34-6.58Z"/><path class="cls-6" d="M141.89,110.14c1.38-1.36,7.72-4.86,9.32-6,.87-.65,48.75-5.78,50.21-4.07l2.67-18.92L214.52,83s-1.38,25.87-5.19,28.49-53.16-2.61-53.16-2.61-3.19,3.78-5,4.29S140.51,111.5,141.89,110.14Z"/><polygon class="cls-5" points="214.24 87.16 203.56 84.87 204.09 81.1 214.52 83.02 214.24 87.16"/><path class="cls-12" d="M217.73,86.15l-14.82-2.72c1.71-13.27,4.18-23.57,8.75-25.82,3.28,1.61,4.77,7.31,5.71,14.27A124.77,124.77,0,0,1,217.73,86.15Z"/><path class="cls-14" d="M100.25,112.28l-.12,3.06c0,.78.88,1.14,1.65,1.17L163,119c.78,0,1.74-.25,1.77-1l.13-3.06Z"/><path class="cls-9" d="M100.25,112.28l-.12,3.06c0,.78.88,1.14,1.65,1.17L163,119c.78,0,1.74-.25,1.77-1l.13-3.06Z"/><path class="cls-10" d="M100.25,112.28l-.12,3.06c0,.78.88,1.14,1.65,1.17l40.35,1.64c.79,0,1.73-.26,1.76-1l.13-3.06Z"/><path class="cls-14" d="M91.3,80.08l6,33.33a2.48,2.48,0,0,0,2.29,2L139.32,117a1.6,1.6,0,0,0,1.57-2L135,81.9a2.27,2.27,0,0,0-2.3-1.71L92.87,78.58C91.8,78.54,91.11,79,91.3,80.08Z"/><path class="cls-9" d="M91.3,80.08l6,33.33a2.48,2.48,0,0,0,2.29,2L138,116.93a1.6,1.6,0,0,0,1.59-2l-6-33.08a2.28,2.28,0,0,0-2.3-1.71L92.87,78.58C91.8,78.54,91.11,79,91.3,80.08Z"/><path class="cls-10" d="M110.23,97.66h0c-.11,2.83,2.83,5.25,5,5.34s3.64-2.15,3.12-5-2.65-5.14-4.82-5.32c.52,2.86-.93,5.09-3.14,5A1,1,0,0,1,110.23,97.66Z"/><path class="cls-16" d="M181.71,35a.22.22,0,0,1-.13,0c-1.42-.82-1.71-1.29-1.76-1.38a.25.25,0,0,1,0-.25l1.72-3.09,0,0a5.06,5.06,0,0,0,.34-2.74.26.26,0,0,1,.26-.27.27.27,0,0,1,.28.25,5.39,5.39,0,0,1-.44,3.06l-1.63,2.91a6.33,6.33,0,0,0,1.47,1.07.26.26,0,0,1,.1.36A.27.27,0,0,1,181.71,35Z"/><rect class="cls-17" x="70.46" y="31.08" width="42.54" height="23.21" rx="6.52" transform="translate(183.47 85.38) rotate(-180)"/><polygon class="cls-17" points="106.82 53.42 106.82 60.96 99.57 53.42 106.82 53.42"/><circle class="cls-11" cx="103.22" cy="42.69" r="2.66"/><circle class="cls-11" cx="91.74" cy="42.69" r="2.66"/><circle class="cls-11" cx="80.25" cy="42.69" r="2.66"/><rect class="cls-17" x="241.51" y="9.9" width="32.67" height="22.57" transform="translate(-0.03 0.37) rotate(-0.08)"/><polygon class="cls-18" points="241.5 9.92 241.5 11.37 257.86 25.82 274.17 11.32 274.17 9.88 257.86 24.43 241.5 9.92"/><polygon class="cls-18" points="261 21.57 273.25 32.44 274.2 32.44 274.2 31.87 261.7 20.78 261 21.57"/><polygon class="cls-18" points="241.53 31.99 241.53 32.49 242.56 32.49 254.79 21.58 254.08 20.79 241.53 31.99"/><polygon class="cls-17" points="274.17 9.88 257.85 24.43 241.5 9.92 274.17 9.88"/><circle class="cls-18" cx="272.63" cy="11.03" r="7.09"/><path class="cls-11" d="M271.18,14.4h0a.69.69,0,0,1-.49-.21L269,12.46a.69.69,0,0,1,1-1l1.26,1.26,4.87-4.88a.69.69,0,0,1,1,1l-5.36,5.36A.68.68,0,0,1,271.18,14.4Z"/></g></g></g></svg>