<svg xmlns="http://www.w3.org/2000/svg" viewBox="0 0 17.08 21.38"><defs><style>.cls-1{fill:#46c7ce;}</style></defs><g id="Layer_2" data-name="Layer 2"><g id="Option_1" data-name="Option 1"><path class="cls-1" d="M2.11,21.38H12.2a.42.42,0,0,0,.42-.43V15.74h0l3.26-3.08a3.79,3.79,0,0,0,.83-4.36L15.61,5.92a2.08,2.08,0,0,0-1.21-1.1l-.09,0V2.11A2.1,2.1,0,0,0,10.62.72l-.1.11-.1-.11a2.1,2.1,0,0,0-3.49.49l-.07.15-.13-.1a2.1,2.1,0,0,0-3.16.79L3.5,2.2l-.14-.1A2.1,2.1,0,0,0,0,3.79V7.15a18.46,18.46,0,0,0,.86,5.16,17.78,17.78,0,0,1,.82,4.94V21A.43.43,0,0,0,2.11,21.38ZM10.94,2.11a1.26,1.26,0,1,1,2.52,0v2.6l-.11,0a2,2,0,0,0-.54.17l-1.87.87ZM7.4,7.16a2.09,2.09,0,0,0,.18-.85V2.11a1.26,1.26,0,1,1,2.52,0V6.17L7.25,7.49ZM4.21,3A1.26,1.26,0,0,1,6.73,3V6.31a1.26,1.26,0,0,1-2.52,0ZM.84,7.15V3.79a1.27,1.27,0,0,1,2.53,0V7.15a1.27,1.27,0,0,1-2.53,0Zm.83,4.94A26.46,26.46,0,0,1,1,9.2l0-.26.24.11a2,2,0,0,0,.91.21A2.12,2.12,0,0,0,4,8.05l.07-.15.14.1a2.09,2.09,0,0,0,1.25.42,2.14,2.14,0,0,0,.86-.18l.12-.06.06.13A3.82,3.82,0,0,0,8.4,10.16l.16.08-.11.14a7.79,7.79,0,0,0-1.72,4.91.43.43,0,1,0,.85,0,7,7,0,0,1,1.87-4.77l0,0h.07a3.75,3.75,0,0,0,2-.33l1.53-.71a.47.47,0,0,0,.22-.24.44.44,0,0,0,0-.32A.4.4,0,0,0,13,8.65a.4.4,0,0,0-.32,0l-1.52.71a2.94,2.94,0,0,1-3.61-.91l-.11-.14h0l5.67-2.65a1.27,1.27,0,0,1,1.68.61L16,8.65A2.93,2.93,0,0,1,15.31,12l-3.4,3.22a.44.44,0,0,0-.13.31v5H2.53V17.25A18.46,18.46,0,0,0,1.67,12.09Z"/></g></g></svg>