<svg xmlns="http://www.w3.org/2000/svg" viewBox="0 0 55 55"><defs><style>.cls-1{fill:#46c7ce;}</style></defs><g id="Layer_2" data-name="Layer 2"><g id="Option_1" data-name="Option 1"><path class="cls-1" d="M47.43,39.86H41.79V34.22a1,1,0,1,0-1.93,0v6.6a1,1,0,0,0,1,1h6.61a1,1,0,0,0,0-1.93Z"/><path class="cls-1" d="M11.79,20H8.48a1,1,0,0,0,0,1.93h3.31a1,1,0,0,0,0-1.93Z"/><path class="cls-1" d="M11.79,26.65H8.48a1,1,0,0,0,0,1.92h3.31a1,1,0,0,0,0-1.92Z"/><path class="cls-1" d="M11.79,33.25H8.48a1,1,0,0,0,0,1.93h3.31a1,1,0,0,0,0-1.93Z"/><path class="cls-1" d="M25.11,20h-3.3a1,1,0,1,0,0,1.93h3.3a1,1,0,0,0,0-1.93Z"/><path class="cls-1" d="M25.11,26.65h-3.3a1,1,0,1,0,0,1.92h3.3a1,1,0,0,0,0-1.92Z"/><path class="cls-1" d="M25.11,33.25h-3.3a1,1,0,1,0,0,1.93h3.3a1,1,0,0,0,0-1.93Z"/><path class="cls-1" d="M25,39.86h-3.3a1,1,0,0,0,0,1.93H25a1,1,0,1,0,0-1.93Z"/><path class="cls-1" d="M11.79,39.86H8.48a1,1,0,0,0,0,1.93h3.31a1,1,0,0,0,0-1.93Z"/><path class="cls-1" d="M37.52,22h3.3a1,1,0,1,0,0-1.93h-3.3a1,1,0,0,0,0,1.93Z"/><path class="cls-1" d="M51.85,31.92l-.15-.19V4.38a1,1,0,0,0-1-1h-9V1a1,1,0,0,0-1.93,0V3.41h-8V1a1,1,0,0,0-1.93,0V3.41h-8V1a1,1,0,0,0-1.93,0V3.41H12V1A1,1,0,0,0,10,1V3.41H1a1,1,0,0,0-1,1V47.43a1,1,0,0,0,1,1H28.84l.2.31A14.17,14.17,0,1,0,51.85,31.92ZM1.93,5.34H10V7.68a1,1,0,0,0,1.93,0V5.34h8V7.68a1,1,0,0,0,1.93,0V5.34h8V7.68a1,1,0,0,0,1.93,0V5.34h8V7.68a1,1,0,0,0,1.93,0V5.34h8.09v8H1.93Zm0,41.13V15.25H49.77V29.76L48.7,29a14.17,14.17,0,0,0-19.77,4.08l-.34.51-.81,1.55-.32.92a14.27,14.27,0,0,0-.73,3.15l-.06.61v1.93l.06.61a14.27,14.27,0,0,0,.73,3.15l.32.92Zm38.89,6.6A12.25,12.25,0,1,1,53.07,40.82,12.26,12.26,0,0,1,40.82,53.07Z"/></g></g></svg>