<svg xmlns="http://www.w3.org/2000/svg" viewBox="0 0 234.29 168.04"><defs><style>.cls-1{isolation:isolate;}.cls-19,.cls-2{fill:#ffd371;}.cls-2{opacity:0.3;}.cls-3{mix-blend-mode:multiply;}.cls-4{fill:#eaeaea;}.cls-5{fill:#da7c5d;}.cls-6{fill:#134286;}.cls-21,.cls-25,.cls-27,.cls-7,.cls-9{fill:none;stroke-linecap:round;stroke-linejoin:round;}.cls-25,.cls-27,.cls-7,.cls-9{stroke:#000;}.cls-7{stroke-width:0.46px;}.cls-8{fill:#bf6179;}.cls-9{stroke-width:0.44px;}.cls-10,.cls-26{fill:#fff;}.cls-11{fill:#c97a32;}.cls-12{fill:#fa5;}.cls-13{fill:#b8563a;}.cls-14{fill:#d65642;}.cls-15{fill:#e89987;}.cls-16{fill:#dcdcdc;}.cls-17{fill:#142a35;}.cls-18{fill:#f9b08b;}.cls-20{fill:#363638;}.cls-21{stroke:#e0e0e0;stroke-width:0.75px;}.cls-22{fill:#42210b;}.cls-23{fill:#754c24;}.cls-24{fill:#ec8970;}.cls-25{stroke-width:0.45px;}.cls-26{opacity:0.22;}.cls-27{stroke-width:1.01px;}</style></defs><g class="cls-1"><g id="Layer_2" data-name="Layer 2"><g id="Option_1" data-name="Option 1"><path class="cls-2" d="M101.84,168C41.14,169.89-21.59,104.6,7.22,64.65c22.34-31,60.18-16.73,87.71-32C145.57,4.6,217.13-.85,231,39.13s-19.64,87.84-39,104.68C164.81,167.57,101.84,168,101.84,168Z"/><g class="cls-3"><ellipse class="cls-4" cx="107.29" cy="150.78" rx="74.73" ry="4.22"/></g><path d="M54.9,145.44l-3.66,2a1,1,0,0,0-.51,1.16c.1.37.41.65,1.23.67,1.81,0,11.75-1.3,11.75-1.3v1h3.74s.24-5.31-.89-6Z"/><path class="cls-5" d="M61.74,142.16l-6.84,3.28a5.93,5.93,0,0,0,5.36.61c2.8-1.21,6.3-3,6.3-3l-.51-1.38Z"/><polygon class="cls-5" points="66.05 141.64 66.56 126.4 61.31 126.72 61.31 143.74 66.05 141.64"/><path d="M100.41,145.44l3.66,2a1.06,1.06,0,0,1,.5,1.16c-.1.37-.41.65-1.22.67-1.81,0-11.76-1.3-11.76-1.3v1.07l-3.69,0s-.28-5.3.85-6Z"/><path class="cls-5" d="M93.56,142.16l6.85,3.28a6,6,0,0,1-5.37.61c-2.79-1.21-6.29-3-6.29-3l.51-1.38Z"/><polygon class="cls-5" points="89.26 141.64 85.42 126.4 90.67 126.72 94.42 144.09 89.26 141.64"/><path class="cls-6" d="M64.55,52.87s-7.22,11.78-7,22.17,2.73,62,2.73,62h8.65l1.75-65.2,1-.07,13.51,65.29,8.13-.78L84.76,75.64a48,48,0,0,0-3.05-10.92c-1.25-3-2.75-8-4.89-10.68Z"/><line class="cls-7" x1="70.68" y1="71.87" x2="75.52" y2="71.58"/><path class="cls-5" d="M52.42,41,46,50.54c-2.25,3.51,3.12,7.13,5.54,3.76L62.48,39.72Z"/><path class="cls-8" d="M61.76,29.78c-4-1.33-10.23,9.12-12.66,12.89l9.78,6.44C60.69,46.13,72.77,34.1,61.76,29.78Z"/><path class="cls-8" d="M77.87,29.66s7,.46,7.29,10.77l-4.81,1.11Z"/><path class="cls-8" d="M60.74,29.62c7.83-1.44,12.17-1.44,18.05.23,6.66,1.89,1,19.86-.54,26.68H62.65L57.4,36.25C58.12,34.63,58.29,29.77,60.74,29.62Z"/><line class="cls-9" x1="60.44" y1="47.99" x2="58.57" y2="40.1"/><line class="cls-9" x1="80.54" y1="45.29" x2="81.67" y2="37.41"/><path class="cls-10" d="M72.27,31.86l-4.87-3,.26-1.67h-.81a1.22,1.22,0,0,0-.88.37L64.51,29l3.35,5a1.07,1.07,0,0,0,1.57.22Z"/><path class="cls-10" d="M73.74,27.18h.6a1.27,1.27,0,0,1,1,.56l1,1.51L76,33.61A.57.57,0,0,1,75,34l-2.77-2.14,1.56-2.61Z"/><path class="cls-10" d="M72.76,33.94a.49.49,0,1,1-.49-.48A.48.48,0,0,1,72.76,33.94Z"/><path class="cls-10" d="M72.86,35.86a.47.47,0,0,1-.48.48.48.48,0,1,1,0-1A.47.47,0,0,1,72.86,35.86Z"/><path class="cls-5" d="M68,45.08s2.72-4.82,9.85-2L75.11,49l-6.24-.21Z"/><polygon class="cls-5" points="68.02 45.08 48.85 48.37 49.97 55.51 68.87 48.78 68.02 45.08"/><line class="cls-9" x1="55.76" y1="47.18" x2="51.07" y2="47.99"/><path class="cls-10" d="M69.38,60.4,68.08,59,76,40.43s14.16-2.38,20-.42Z"/><path class="cls-11" d="M95.93,40l-3.08.42-9.17,18a4.43,4.43,0,0,0,3.85-2.24Z"/><polygon class="cls-12" points="92.85 40.43 77.08 41.83 69.38 60.4 83.68 58.41 92.85 40.43"/><polygon class="cls-10" points="95.92 40.01 94.07 31.47 92.25 31.47 88.73 39.57 95.92 40.01"/><path class="cls-5" d="M89.27,52.82s2.1.51,3.88-2.2,0-4.15,0-4.15l-4.45-3.13a.48.48,0,0,0-.6,0h0a.49.49,0,0,0,0,.69l2.64,2.53L86.8,44a.64.64,0,0,0-.9.2h0a.63.63,0,0,0,.15.83l3.7,2.9-3.32-1.72a.52.52,0,0,0-.72.24h0a.52.52,0,0,0,.16.66l3.38,2.47-2.88-1.38a.59.59,0,0,0-.76.25h0a.58.58,0,0,0,.17.73L89.68,52Z"/><path class="cls-13" d="M75.67,17.57a6.16,6.16,0,0,1,.63-2.24c.49-1,1.25-1.91,2.41-1.38,2,.91.08,4.14-1.94,4.43-.59.08-1.14-.32-1.1-.81Z"/><circle class="cls-10" cx="78.37" cy="17.84" r="0.55" transform="translate(-2 18.6) rotate(-13.37)"/><circle cx="63.57" cy="19.13" r="5" transform="translate(5.09 50.56) rotate(-45)"/><path d="M64.8,6.17s-1.48-.79-3,1.42-1.31,6.87,1.84,7.72Z"/><path d="M64.8,6.17s.84-4.34,7.37-3.45S83,6.41,78.48,12.59Z"/><path d="M78.37,11.41a7.5,7.5,0,0,1-7.61,7.72c-4.54.06-8.26-3.3-8.32-7.5S66,4,70.54,3.89A7.52,7.52,0,0,1,78.37,11.41Z"/><polygon class="cls-5" points="69.13 17.62 67.4 28.85 72.27 31.86 73.83 29.25 73.35 18.86 69.13 17.62"/><polygon class="cls-13" points="73.65 25.33 69.42 21.32 73.37 19.64 73.65 25.33"/><path class="cls-5" d="M69.27,5.63a9.09,9.09,0,0,1,4.27-.23,5.41,5.41,0,0,1,4.74,5c.59,5.81,0,10.17-2.91,11.53-2.19,1-3.8.67-6.36-.77-1-.54-1.89-2.52-2.16-3.63l-1.13-3.1S62.66,7.54,69.27,5.63Z"/><path d="M75.49,10.89s-.19.48.56.57a6.63,6.63,0,0,1,1.26.21.48.48,0,0,0,.5-.13h0a.27.27,0,0,0,0-.35,1.87,1.87,0,0,0-1.25-.62C75.66,10.45,75.49,10.89,75.49,10.89Z"/><path d="M73.24,10.88s.25.48-.8.58a15.75,15.75,0,0,0-2.2.42.82.82,0,0,1-.69-.12h0a.2.2,0,0,1,0-.34,5,5,0,0,1,2.22-.85C73,10.44,73.24,10.88,73.24,10.88Z"/><path class="cls-14" d="M75.7,19.17a1.19,1.19,0,0,1-1.25.83,2.31,2.31,0,0,1-1.92-1.17Z"/><path class="cls-14" d="M72.66,18.83s2.81-.49,3,.3A5.75,5.75,0,0,1,72.66,18.83Z"/><path class="cls-9" d="M75.85,19.06a3.89,3.89,0,0,1-3.42-.35"/><path d="M66.78,16.15s3.12-6.72-1.16-8.88c0,0-1.37-1.36-2.07,2.29C62.44,15.4,66.78,16.15,66.78,16.15Z"/><path class="cls-5" d="M67.64,17.67a6.39,6.39,0,0,0-1-2.24c-.66-.95-1.58-1.81-2.72-1.09-1.93,1.23.52,4.32,2.66,4.33.63,0,1.15-.5,1-1Z"/><path class="cls-9" d="M64.51,15.9c1.51-.54,2.34,1.15,2.34,1.15"/><path class="cls-10" d="M66.85,18.45a.55.55,0,1,1-1.09,0,.55.55,0,0,1,1.09,0Z"/><path d="M66.11,7.56s3.78,1.57,7,0A4,4,0,0,1,78.23,9a6,6,0,0,0-6.49-4.33C66.41,5,66.11,7.56,66.11,7.56Z"/><path class="cls-15" d="M72.22,16.57c0,.36-.73.68-1.66.7s-1.69-.26-1.7-.62.74-.68,1.67-.7S72.22,16.2,72.22,16.57Z"/><path class="cls-15" d="M79.09,17a2.6,2.6,0,0,1-.4,0c-.93,0-1.69-.25-1.7-.62s.74-.68,1.66-.7H79Z"/><path d="M72.12,14.56c0,.5-.2.91-.49.92s-.51-.4-.53-.9.21-.91.49-.92S72.11,14.05,72.12,14.56Z"/><path d="M77.09,14.44c0,.5-.21.91-.49.92s-.52-.4-.53-.9.21-.91.49-.92S77.08,13.94,77.09,14.44Z"/><path d="M74.6,17a.21.21,0,1,1,0-.42A1.39,1.39,0,0,0,75.8,16l-1.73-3.39a.21.21,0,0,1,.37-.19s.9,1.78,1.78,3.49a.2.2,0,0,1,0,.17A1.77,1.77,0,0,1,74.6,17Z"/><rect class="cls-16" x="138.82" y="136.72" width="6.51" height="8.91"/><path d="M139.17,143.29l2.57,1.71,2.85-.9a1,1,0,0,1,.68,0h0a1,1,0,0,1,.62.92v3.66H126.68s0-3.21,4.79-2.44l6.72-3.06A1,1,0,0,1,139.17,143.29Z"/><rect x="141.15" y="148.71" width="4.74" height="1.22"/><polygon points="141.15 148.71 138.63 149.93 126.68 149.93 126.68 148.71 141.15 148.71"/><polygon class="cls-16" points="163.68 136.72 157.17 136.72 158.31 145.63 164.82 145.63 163.68 136.72"/><path d="M158.66,143.29l2.56,1.71,2.86-.9a1,1,0,0,1,.68,0h0a1,1,0,0,1,.62.92v3.66H146.17s0-3.21,4.78-2.44l6.73-3.06A1,1,0,0,1,158.66,143.29Z"/><rect x="160.64" y="148.71" width="4.74" height="1.22"/><polygon points="160.64 148.71 158.12 149.93 146.17 149.93 146.17 148.71 160.64 148.71"/><path class="cls-17" d="M138.59,54.11s-.64,1.26-1,13.18c-.08,2.45-.47,6.83-.5,10.78l.17,62.41h10.11l1.15-65.22,7.42,65.22,10.24-.27-6-83.79-9.58-1.17Z"/><line class="cls-7" x1="148.48" y1="75.26" x2="143.39" y2="73.07"/><path class="cls-18" d="M139.1,58l-9.73,21.16-3.1-.21C130,64.46,130,64.48,132.78,55.57c.44-1.41,3.29-1.75,4.66-1.2h0A3,3,0,0,1,139.1,58Z"/><path class="cls-18" d="M129.64,77.22a8.2,8.2,0,0,1-.55,5.49l.28,2.87a.87.87,0,0,1-.69.94h0a.91.91,0,0,1-1.07-.66l-.47-1.69-.16.58a4.22,4.22,0,0,0,.18,2.8l1.06,2.54c.12.29.45.24.26.48h0a.86.86,0,0,1-1.41-.15l-2.19-2.79a4.85,4.85,0,0,1-.4-4l2.81-7.41Z"/><path class="cls-10" d="M132,55.25l.84-13.47c1.19-10.32,7.64-13.08,7.64-13.08L141,46.27l-1.95-1.07L137.7,63.52l-5.91,13.74L126,74.85Z"/><path class="cls-19" d="M150.65,26.23a28.52,28.52,0,0,1,8,1.82,21,21,0,0,1,2.09.93c1.82,1,1.28,3,1,5.13l-1.08,28.51-22.29-.54a1.79,1.79,0,0,1-1.74-1.89l.88-22.86c.08-4,.78-7.92,3.47-8.87,3-1.06,6.68-2.25,8.29-2.34Z"/><path class="cls-10" d="M142.38,28a32.34,32.34,0,0,1,6.94-1.87,30.19,30.19,0,0,1,6.23.93L146.3,39.22Z"/><polygon class="cls-20" points="147.55 28.22 149.41 30.57 147.2 32.18 145.43 30.31 147.55 28.22"/><polygon class="cls-20" points="147.67 31.18 148.78 35.95 146.3 39.23 145.43 36.74 146.92 31.18 147.67 31.18"/><polyline class="cls-21" points="149.5 30.7 150.01 31.47 153.01 30.2"/><polyline class="cls-21" points="145.43 30.31 144.75 30.95 143.18 29.75"/><path class="cls-10" d="M159.91,28.55s6.88,1.11,21.55,21l-7.56,5.9-12.11-14A13.55,13.55,0,0,1,159.91,28.55Z"/><polygon class="cls-22" points="164.32 35.25 147.96 41.2 149.33 45.16 165.19 39.22 164.32 35.25"/><polygon class="cls-10" points="149.39 43.43 148.78 41.5 164.22 36.03 164.77 38 149.39 43.43"/><polygon class="cls-23" points="164.08 37.1 172.02 59.89 155.67 65.52 147.53 42.98 164.08 37.1"/><polygon class="cls-22" points="164.08 37.1 164.32 35.25 172.29 57.94 172.02 59.89 164.08 37.1"/><polygon class="cls-18" points="169.73 51.35 157.7 55.72 158.3 60.23 170.6 57.93 169.73 51.35"/><path class="cls-18" d="M157.7,55.72s-7.68-2.6-7.8.28.29,9.8,8.4,4.23Z"/><path class="cls-18" d="M157.91,56.08l-.9-1.3a4.52,4.52,0,0,0-2.1-1.66l-1.57-.62a.89.89,0,0,0-1,.32h0a.87.87,0,0,0,.13,1.15l2.12,1.9Z"/><path class="cls-10" d="M175.8,48.22l-15.6,5.05,1.45,7.94,17.4-4.35a4.62,4.62,0,0,0,2.86-6.39h0A4.63,4.63,0,0,0,175.8,48.22Z"/><line class="cls-21" x1="169.67" y1="50.21" x2="173.9" y2="48.84"/><path class="cls-16" d="M148.39,1.71s-5.28-2.36-8,.51c-2.14,2.26,1.51,6.19,3.46,6S148.39,1.71,148.39,1.71Z"/><path class="cls-24" d="M144,15.21a6.07,6.07,0,0,0-.63-2.26c-.49-1-1.25-1.92-2.43-1.38-2,.91-.07,4.16,2,4.45.59.08,1.15-.32,1.1-.81Z"/><path class="cls-16" d="M141.26,8.67a7.55,7.55,0,0,0,7.67,7.77c4.56.06,8.31-3.32,8.37-7.55s-3.59-7.73-8.16-7.79A7.56,7.56,0,0,0,141.26,8.67Z"/><polygon class="cls-18" points="151.24 14.92 152.17 26.4 147.55 28.22 145.81 26.89 146.32 16.17 151.24 14.92"/><polygon class="cls-24" points="146.01 22.69 150.27 18.65 146.29 16.96 146.01 22.69"/><path class="cls-18" d="M150.42,2.85a9.21,9.21,0,0,0-4.3-.23,5.44,5.44,0,0,0-4.77,5.06c-.59,5.85.05,10.58,2.93,12,2.2,1.05,3.82.68,6.4-.78,1-.54,1.9-2.88,2.18-4L154,11.74S157.08,4.77,150.42,2.85Z"/><path class="cls-18" d="M152.06,15.31a6.4,6.4,0,0,1,1-2.26c.66-1,1.59-1.82,2.73-1.09,1.95,1.24-.52,4.35-2.67,4.36-.64,0-1.16-.51-1-1Z"/><path class="cls-25" d="M155.22,13.53c-1.52-.54-2.36,1.16-2.36,1.16"/><path class="cls-16" d="M146.12,2.62a2.26,2.26,0,0,1,2.73,1.43,5.6,5.6,0,0,0,6.92,3.13,6.64,6.64,0,0,0-4.65-5.06C147.1,1,146.12,2.62,146.12,2.62Z"/><path class="cls-16" d="M146,1.71S146.9-.36,150.6.06c4.42.49,7,4.24,6.33,6.45-.54,1.7-4.07-.73-4.07-.73Z"/><path d="M147.63,10.94c0,.56.22,1,.53,1s.58-.44.59-1-.23-1-.54-1S147.64,10.38,147.63,10.94Z"/><path d="M142.12,10.81c0,.55.23,1,.54,1s.58-.44.59-1-.23-1-.54-1S142.14,10.25,142.12,10.81Z"/><path class="cls-10" d="M150.42,8.66c-.15-.42-.69-1.21-2.54-1.44a.42.42,0,0,0-.47.2h0c-.06.18.13.39.41.46a2.81,2.81,0,0,1,1.67.94.65.65,0,0,0,.69.19l0,0C150.4,8.93,150.48,8.8,150.42,8.66Z"/><path class="cls-10" d="M141,7.78c.09-.39.52-1.1,2.36-1a.58.58,0,0,1,.51.29h0c.09.2-.07.37-.35.38a2,2,0,0,0-1.55.65.55.55,0,0,1-.67.06l-.06,0C141,8.06,140.92,7.91,141,7.78Z"/><polyline class="cls-25" points="144.67 11.87 143.98 13.21 144.5 13.63"/><path class="cls-10" d="M144.39,14.25a.79.79,0,0,1,.54-.48,1.94,1.94,0,0,1,1.93.69c1.16,1.24,2.24,1.16,2.62.89a3.23,3.23,0,0,1-4.77.42A1.69,1.69,0,0,1,144.39,14.25Z"/><path class="cls-10" d="M144.71,14.88a1,1,0,0,0-1.12-1.15,2,2,0,0,0-1.18.67c-1.06,1.12-1.71,1-2.06.81a2.56,2.56,0,0,0,4,.38A1.92,1.92,0,0,0,144.71,14.88Z"/><path class="cls-26" d="M141.6,8.84l-2.09,2.28A1.75,1.75,0,0,0,141,12.91l3.22-3.61S144.06,8.46,141.6,8.84Z"/><path class="cls-26" d="M148.38,8.84l-2.46,2.58a1.54,1.54,0,0,0,1.88,1.49l3.58-3.81A8.56,8.56,0,0,0,148.38,8.84Z"/><path class="cls-27" d="M145.64,10a6.34,6.34,0,0,0,.51,2.31,1.17,1.17,0,0,0,1,.65h3a1.33,1.33,0,0,0,1.19-1.08,5.79,5.79,0,0,0,.07-1.8,1.24,1.24,0,0,0-1-1.06,35.16,35.16,0,0,0-4-.09A1,1,0,0,0,145.64,10Z"/><path d="M150,8.73l2,.11a.21.21,0,0,1,.2.21l0,.36a.2.2,0,0,1-.09.17l-.64.45A1.87,1.87,0,0,0,150,8.73Z"/><path class="cls-27" d="M144.24,9.92a6.23,6.23,0,0,1-.48,2.35,1.16,1.16,0,0,1-1,.65h-2a1.33,1.33,0,0,1-1.19-1.08,5.82,5.82,0,0,1-.06-1.8,1.23,1.23,0,0,1,1-1.06,21.57,21.57,0,0,1,3-.13A.9.9,0,0,1,144.24,9.92Z"/><path d="M140.94,8.73l-2,.11a.21.21,0,0,0-.2.21l0,.36a.2.2,0,0,0,.09.17l.65.45A1.85,1.85,0,0,1,140.94,8.73Z"/><path class="cls-27" d="M144.24,10.83s.49-.5,1.45.07"/><line class="cls-27" x1="153.9" y1="12" x2="151.38" y2="9.53"/><rect class="cls-12" x="181.51" y="6.82" width="28.02" height="19.64" rx="3"/><rect class="cls-10" x="203.07" y="17.05" width="2.99" height="6.67" transform="translate(409.13 40.77) rotate(-180)"/><rect class="cls-19" x="198.55" y="13.7" width="2.99" height="10.02" transform="translate(400.09 37.42) rotate(-180)"/><rect class="cls-10" x="194.03" y="10.93" width="2.99" height="12.79" transform="translate(391.05 34.65) rotate(-180)"/><rect class="cls-19" x="189.51" y="15.19" width="2.99" height="8.53" transform="translate(382.01 38.91) rotate(-180)"/><rect class="cls-10" x="184.99" y="18.71" width="2.99" height="5.01" transform="translate(372.97 42.43) rotate(-180)"/></g></g></g></svg>