<svg xmlns="http://www.w3.org/2000/svg" viewBox="0 0 34.11 35.03"><defs><style>.cls-1{fill:#75c189;}</style></defs><g id="Layer_2" data-name="Layer 2"><g id="Option_1" data-name="Option 1"><path class="cls-1" d="M17.06,16.41a4,4,0,1,0,4,4A4,4,0,0,0,17.06,16.41Zm0,6.68a2.7,2.7,0,1,1,2.7-2.7A2.71,2.71,0,0,1,17.06,23.09Z"/><path class="cls-1" d="M6.11,16.41a4,4,0,1,0,4,4A4,4,0,0,0,6.11,16.41Zm0,6.68a2.7,2.7,0,1,1,2.7-2.7A2.71,2.71,0,0,1,6.11,23.09Z"/><path class="cls-1" d="M28,16.41a4,4,0,1,0,4,4A4,4,0,0,0,28,16.41Zm0,6.68a2.7,2.7,0,1,1,2.7-2.7A2.71,2.71,0,0,1,28,23.09Z"/><path class="cls-1" d="M28,25.35a6.22,6.22,0,0,0-5.45,3.29l0,.05,0-.05a6.15,6.15,0,0,0-10.89,0l0,.05,0-.05a6.22,6.22,0,0,0-5.45-3.29,6.15,6.15,0,0,0-4.3,1.75A5.87,5.87,0,0,0,0,31.33V34.4A.64.64,0,0,0,.64,35H33.47a.64.64,0,0,0,.64-.63V31.33A5.87,5.87,0,0,0,32.3,27.1,6.15,6.15,0,0,0,28,25.35ZM11,33.76H1.27V31.33a4.84,4.84,0,0,1,9.68,0Zm10.94,0H12.22V31.33a4.84,4.84,0,0,1,9.67,0Zm11,0H23.17V31.33a4.84,4.84,0,0,1,9.67,0Z"/><path class="cls-1" d="M30.92,2.71A2.71,2.71,0,0,0,28.21,0H19.78a2.69,2.69,0,0,0-1.91.79,2.72,2.72,0,0,0-.8,1.92V8.89a2.71,2.71,0,0,0,2.71,2.7H24l0,0,3.37,3.19A.82.82,0,0,0,28,15a1,1,0,0,0,.41-.1.86.86,0,0,0,.43-.91l-.44-2.44h0a2.68,2.68,0,0,0,2.47-2.69ZM29.66,8.89a1.45,1.45,0,0,1-1.45,1.44H28a.92.92,0,0,0-.7.33h0a.93.93,0,0,0-.2.75L27.4,13l-2.47-2.35a1.3,1.3,0,0,0-.9-.36H19.78a1.45,1.45,0,0,1-1.45-1.44V2.71a1.45,1.45,0,0,1,1.45-1.45h8.43a1.45,1.45,0,0,1,1.45,1.45Z"/><rect class="cls-1" x="20.11" y="5.15" width="7.78" height="1.26" rx="0.54"/><path class="cls-1" d="M4.63,14.94A.91.91,0,0,0,5,15a.82.82,0,0,0,.59-.24L9,11.61l0,0h4.25A2.71,2.71,0,0,0,16,8.89V2.71A2.7,2.7,0,0,0,13.27,0H4.84a2.7,2.7,0,0,0-2.7,2.71V8.89A2.68,2.68,0,0,0,4.6,11.58h0L4.19,14A.87.87,0,0,0,4.63,14.94Zm-1.23-6V2.71A1.44,1.44,0,0,1,4.84,1.26h8.43a1.45,1.45,0,0,1,1.45,1.45V8.89a1.45,1.45,0,0,1-1.45,1.44H9a1.33,1.33,0,0,0-.9.36L5.65,13l.29-1.63A.92.92,0,0,0,5,10.33h-.2A1.44,1.44,0,0,1,3.4,8.89Z"/><rect class="cls-1" x="5.17" y="5.15" width="7.78" height="1.26" rx="0.54"/></g></g></svg>