<svg xmlns="http://www.w3.org/2000/svg" viewBox="0 0 342 250.92"><defs><style>.cls-1{isolation:isolate;}.cls-2{fill:#46c7ce;opacity:0.25;}.cls-3{fill:#eaeaea;}.cls-3,.cls-8{mix-blend-mode:multiply;}.cls-4{fill:#232b57;}.cls-5,.cls-8{fill:#f4994e;}.cls-6{fill:#f5ab4e;}.cls-13,.cls-7{fill:#f6d057;}.cls-8{opacity:0.5;}.cls-9{fill:#fb5f97;}.cls-10{fill:#35a8a5;}.cls-11,.cls-15{fill:#fff;}.cls-12{fill:#6cbcba;}.cls-13{opacity:0.55;}.cls-14{font-size:55.73px;fill:#fde634;letter-spacing:0.01em;}.cls-14,.cls-15{font-family:Poppins-Medium, Poppins;font-weight:500;}.cls-15{font-size:9.88px;letter-spacing:0.01em;}.cls-16{fill:#bb5437;}.cls-17{fill:#d87c39;}.cls-18{fill:#b14f22;}.cls-19{fill:#f6eee0;}.cls-20{fill:#152216;}.cls-21{fill:#534730;}.cls-22{fill:#ffd371;}.cls-23{fill:#142549;}.cls-24{fill:#973721;}.cls-25{fill:#f4bd37;}.cls-26{fill:#fa5;}</style></defs><g class="cls-1"><g id="Layer_2" data-name="Layer 2"><g id="Option_1" data-name="Option 1"><path class="cls-2" d="M156.91,2.87C251.43-8.39,296.28,17.11,296.28,17.11s65.58,24.56,39.66,112.28c-20.62,69.8-116.36,136.29-169.34,118.66s-52-48-112.27-84.64S2.74,91,10.53,72.41C10.53,72.41,35.13,17.39,156.91,2.87Z"/><ellipse id="_Path_" data-name="&lt;Path&gt;" class="cls-3" cx="161.33" cy="203.47" rx="161.33" ry="9.42"/><path class="cls-4" d="M143.93,62.61l-2.22-1.15L140,67c3,2,18.59,6.1,17.43.6S143.93,62.61,143.93,62.61Z"/><path class="cls-4" d="M100.49,67.62c-1.16,5.5,14.39,1.44,17.43-.6l-1.74-5.56L114,62.61S101.65,62.13,100.49,67.62Z"/><rect class="cls-5" x="74.94" y="170.83" width="124.23" height="22.11"/><rect class="cls-6" x="118.19" y="170.83" width="72.5" height="22.11"/><rect class="cls-7" x="166.37" y="170.83" width="11.61" height="22.11"/><rect class="cls-8" x="74.94" y="189.64" width="124.23" height="3.3"/><rect class="cls-5" x="65.93" y="148.72" width="124.23" height="22.11"/><rect class="cls-6" x="109.18" y="148.72" width="72.5" height="22.11"/><rect class="cls-7" x="157.36" y="148.72" width="11.61" height="22.11"/><rect class="cls-8" x="65.93" y="167.54" width="124.23" height="3.3"/><rect class="cls-5" x="74.94" y="126.61" width="124.23" height="22.11"/><rect class="cls-6" x="118.19" y="126.61" width="72.5" height="22.11"/><rect class="cls-7" x="166.37" y="126.61" width="11.61" height="22.11"/><rect class="cls-8" x="74.94" y="145.43" width="124.23" height="3.3"/><rect class="cls-5" x="56.92" y="104.51" width="124.23" height="22.11"/><rect class="cls-6" x="100.17" y="104.51" width="72.5" height="22.11"/><rect class="cls-7" x="148.34" y="104.51" width="11.61" height="22.11"/><rect class="cls-8" x="56.92" y="123.32" width="124.23" height="3.3"/><rect class="cls-5" x="65.93" y="82.4" width="124.23" height="22.11"/><rect class="cls-6" x="109.18" y="82.4" width="72.5" height="22.11"/><rect class="cls-7" x="157.36" y="82.4" width="11.61" height="22.11"/><rect class="cls-8" x="65.93" y="101.21" width="124.23" height="3.3"/><rect class="cls-5" x="74.94" y="60.29" width="124.23" height="22.11"/><rect class="cls-6" x="118.19" y="60.29" width="72.5" height="22.11"/><rect class="cls-7" x="166.37" y="60.29" width="11.61" height="22.11"/><rect class="cls-8" x="74.94" y="79.1" width="124.23" height="3.3"/><path class="cls-9" d="M213.32,181.47c-.15,4.09-2.88,7.43-6.59,7.46-3.56,0-6.61-3.42-6.58-7.46.07-9.67,12.81-9.6,13.17,0a1.56,1.56,0,1,0,3.1,0c-.22-6-4.25-11-9.69-11-5.25,0-9.71,5-9.68,11s4.4,11,9.68,11c5.44,0,9.47-5,9.69-11A1.56,1.56,0,1,0,213.32,181.47Z"/><rect class="cls-10" x="130.79" y="88.04" width="196.65" height="109.42" rx="17.5"/><path class="cls-11" d="M154.09,156v1.09h-5.44V156h2.18V148.1c0-.24,0-.47,0-.72L149,149.15a.32.32,0,0,1-.19.1.33.33,0,0,1-.17,0,.27.27,0,0,1-.14-.07.24.24,0,0,1-.1-.1l-.4-.62,3-3h1V156Z"/><path class="cls-11" d="M162.1,155.69a.4.4,0,0,1,.32.14.51.51,0,0,1,.12.35v.87h-6.77v-.49a1.25,1.25,0,0,1,0-.32A1,1,0,0,1,156,156l3.26-3.71c.26-.31.51-.61.73-.9a6.4,6.4,0,0,0,.57-.86,3.89,3.89,0,0,0,.36-.88,3.26,3.26,0,0,0,.13-.95,2.64,2.64,0,0,0-.14-.89,1.78,1.78,0,0,0-.39-.63,1.62,1.62,0,0,0-.58-.38,2.08,2.08,0,0,0-.71-.12,1.88,1.88,0,0,0-.72.13,1.66,1.66,0,0,0-.58.36,1.87,1.87,0,0,0-.42.54,2.56,2.56,0,0,0-.24.69.62.62,0,0,1-.23.37.58.58,0,0,1-.41.06l-.66-.13a4.78,4.78,0,0,1,.39-1.4,3.3,3.3,0,0,1,.72-1,2.92,2.92,0,0,1,1-.63,3.42,3.42,0,0,1,1.21-.21,3.25,3.25,0,0,1,1.21.22,2.71,2.71,0,0,1,1,.63,2.82,2.82,0,0,1,.64,1,3.54,3.54,0,0,1,.24,1.35,4.12,4.12,0,0,1-.17,1.19,5.48,5.48,0,0,1-.46,1,8.83,8.83,0,0,1-.67,1q-.39.48-.81,1l-2.68,3.1c.19-.06.38-.1.57-.14a3.87,3.87,0,0,1,.56-.05Z"/><path class="cls-11" d="M164.25,148.65a4.49,4.49,0,0,1,.38-1.4,3.3,3.3,0,0,1,.72-1,2.83,2.83,0,0,1,1-.63,3.42,3.42,0,0,1,1.21-.21,3.36,3.36,0,0,1,1.2.21,2.79,2.79,0,0,1,.93.59,2.66,2.66,0,0,1,.62.94,3.57,3.57,0,0,1,.09,2.19,2.59,2.59,0,0,1-.35.75,2.06,2.06,0,0,1-.56.54,2.8,2.8,0,0,1-.73.38,2.64,2.64,0,0,1,1.49,1,2.9,2.9,0,0,1,.5,1.75,3.66,3.66,0,0,1-.26,1.44,3.27,3.27,0,0,1-.73,1.08,3.31,3.31,0,0,1-1.07.68,3.6,3.6,0,0,1-1.32.24A3.76,3.76,0,0,1,166,157a2.72,2.72,0,0,1-1-.63,3.25,3.25,0,0,1-.65-1,7.55,7.55,0,0,1-.44-1.19l.55-.26a.57.57,0,0,1,.42,0,.42.42,0,0,1,.29.26l.23.54a2.42,2.42,0,0,0,.38.6,1.86,1.86,0,0,0,.61.49,1.94,1.94,0,0,0,1,.21,2.12,2.12,0,0,0,.93-.2,2,2,0,0,0,.67-.51,2.32,2.32,0,0,0,.4-.7,2.29,2.29,0,0,0,.13-.76,3.28,3.28,0,0,0-.1-.86,1.46,1.46,0,0,0-.4-.66,2,2,0,0,0-.8-.45,4.65,4.65,0,0,0-1.3-.16v-1a3.26,3.26,0,0,0,1.11-.16,2,2,0,0,0,.74-.41,1.43,1.43,0,0,0,.42-.64,2.39,2.39,0,0,0,.13-.82,2.57,2.57,0,0,0-.13-.87,1.86,1.86,0,0,0-.38-.61,1.54,1.54,0,0,0-.57-.36,2.09,2.09,0,0,0-.72-.12,1.87,1.87,0,0,0-.71.13,1.66,1.66,0,0,0-.58.36,1.87,1.87,0,0,0-.42.54,2,2,0,0,0-.24.69.73.73,0,0,1-.23.37.56.56,0,0,1-.4.06Z"/><path class="cls-11" d="M179.37,152.89v.82a.32.32,0,0,1-.07.22.23.23,0,0,1-.21.09h-1.26v3h-1.11v-3h-4.5a.37.37,0,0,1-.25-.09.45.45,0,0,1-.13-.23l-.13-.74,4.94-7.43h1.18v7.36Zm-2.65,0v-4.75c0-.14,0-.29,0-.46s0-.33,0-.5l-3.7,5.71Z"/><path class="cls-11" d="M192.33,149.88a6.21,6.21,0,0,1,1.46-.2,3.48,3.48,0,0,1,1.41.27,2.89,2.89,0,0,1,1,.73,3.05,3.05,0,0,1,.62,1.1,4.45,4.45,0,0,1,.21,1.39,4.53,4.53,0,0,1-.28,1.65,3.92,3.92,0,0,1-.77,1.27,3.47,3.47,0,0,1-1.16.81,3.85,3.85,0,0,1-1.44.28,4,4,0,0,1-.86-.1,4.66,4.66,0,0,1-.77-.27,3.59,3.59,0,0,1-.66-.39,3.53,3.53,0,0,1-.54-.46l.39-.61a.37.37,0,0,1,.33-.21.6.6,0,0,1,.32.13l.43.28a3.37,3.37,0,0,0,.6.27,2.51,2.51,0,0,0,1.78-.07,2,2,0,0,0,.73-.55,2.49,2.49,0,0,0,.47-.85,3.57,3.57,0,0,0,.16-1.12,3.24,3.24,0,0,0-.14-1,1.86,1.86,0,0,0-.42-.74,1.9,1.9,0,0,0-.69-.48,2.68,2.68,0,0,0-1-.17,4.52,4.52,0,0,0-.8.08,4.68,4.68,0,0,0-.85.23l-.79-.26.81-5.39h4.82v.63a.76.76,0,0,1-.17.5.71.71,0,0,1-.57.19H192.8Z"/><path class="cls-11" d="M201.35,149.85l-.26.37-.24.36a2.72,2.72,0,0,1,.8-.44,2.85,2.85,0,0,1,.94-.15,3,3,0,0,1,1.16.23,2.65,2.65,0,0,1,1,.67,3.44,3.44,0,0,1,.65,1.07,4.45,4.45,0,0,1,0,2.94,3.73,3.73,0,0,1-.71,1.19,3.25,3.25,0,0,1-1.1.8,3.45,3.45,0,0,1-1.41.29,3.26,3.26,0,0,1-1.39-.28,3,3,0,0,1-1.06-.79,3.61,3.61,0,0,1-.68-1.24,5.11,5.11,0,0,1-.24-1.62,4.94,4.94,0,0,1,.3-1.62,8,8,0,0,1,.94-1.83l2.58-3.93a1.05,1.05,0,0,1,.27-.24.77.77,0,0,1,.4-.1h1.12Zm.74,6.14a2.1,2.1,0,0,0,.92-.19,2,2,0,0,0,.71-.51,2.33,2.33,0,0,0,.46-.78,3.1,3.1,0,0,0,.15-1,3.22,3.22,0,0,0-.15-1,2.32,2.32,0,0,0-.44-.77,2.12,2.12,0,0,0-.69-.49,2.21,2.21,0,0,0-.87-.17,2.11,2.11,0,0,0-.92.2,2.06,2.06,0,0,0-.7.53,2.34,2.34,0,0,0-.44.77,2.85,2.85,0,0,0-.15.91,3.27,3.27,0,0,0,.14,1,2.28,2.28,0,0,0,.41.79,2,2,0,0,0,.67.51A2.13,2.13,0,0,0,202.09,156Z"/><path class="cls-11" d="M213.88,145.53v.64a1.44,1.44,0,0,1-.06.45,2.62,2.62,0,0,1-.1.3l-4.21,9.62a1,1,0,0,1-.26.36.59.59,0,0,1-.43.15h-.91l4.27-9.5c.06-.14.13-.26.19-.37a3.78,3.78,0,0,1,.22-.33h-5.31a.26.26,0,0,1-.21-.1.4.4,0,0,1-.09-.25v-1Z"/><path class="cls-11" d="M220,151a2.81,2.81,0,0,1,1.46,1,3.1,3.1,0,0,1,.51,1.84,3.47,3.47,0,0,1-.25,1.36,3,3,0,0,1-1.78,1.69,4.14,4.14,0,0,1-1.39.23,4.09,4.09,0,0,1-1.39-.23,3,3,0,0,1-1.08-.66,2.88,2.88,0,0,1-.71-1,3.66,3.66,0,0,1-.25-1.36,3.1,3.1,0,0,1,.52-1.84,2.81,2.81,0,0,1,1.46-1,2.43,2.43,0,0,1-1.21-1,3,3,0,0,1-.41-1.6,3.15,3.15,0,0,1,.22-1.19,2.84,2.84,0,0,1,.62-1,3,3,0,0,1,1-.65,3.4,3.4,0,0,1,1.26-.23,3.31,3.31,0,0,1,1.25.23,2.9,2.9,0,0,1,1,.65,3,3,0,0,1,.62,1,3.15,3.15,0,0,1,.22,1.19,3,3,0,0,1-.41,1.6A2.43,2.43,0,0,1,220,151Zm-1.45,5a2.48,2.48,0,0,0,.89-.16,2.05,2.05,0,0,0,.67-.44,1.84,1.84,0,0,0,.41-.69,2.46,2.46,0,0,0,.15-.88,2.77,2.77,0,0,0-.17-1,2,2,0,0,0-.47-.69,1.78,1.78,0,0,0-.68-.39,2.53,2.53,0,0,0-1.6,0,1.78,1.78,0,0,0-.68.39,2,2,0,0,0-.47.69,2.77,2.77,0,0,0-.17,1,2.46,2.46,0,0,0,.15.88,1.84,1.84,0,0,0,.41.69,2.05,2.05,0,0,0,.67.44A2.48,2.48,0,0,0,218.55,156Zm0-9.53a2,2,0,0,0-.8.15,1.51,1.51,0,0,0-.57.42,1.72,1.72,0,0,0-.35.62,2.36,2.36,0,0,0-.12.75,3.25,3.25,0,0,0,.1.77,1.88,1.88,0,0,0,.32.65,1.61,1.61,0,0,0,.57.46,2.21,2.21,0,0,0,1.7,0,1.61,1.61,0,0,0,.57-.46,2.08,2.08,0,0,0,.32-.65,3.25,3.25,0,0,0,.1-.77,2.36,2.36,0,0,0-.12-.75,1.72,1.72,0,0,0-.35-.62,1.51,1.51,0,0,0-.57-.42A2,2,0,0,0,218.55,146.51Z"/><path class="cls-11" d="M240.45,151.29a10.62,10.62,0,0,1-.28,2.62,6,6,0,0,1-.79,1.83,3.32,3.32,0,0,1-1.17,1.08,3.17,3.17,0,0,1-1.45.35,3.11,3.11,0,0,1-1.45-.35,3.32,3.32,0,0,1-1.17-1.08,5.73,5.73,0,0,1-.78-1.83,12.4,12.4,0,0,1,0-5.24,5.9,5.9,0,0,1,.78-1.84,3.32,3.32,0,0,1,1.17-1.08,3.11,3.11,0,0,1,1.45-.35,3.17,3.17,0,0,1,1.45.35,3.32,3.32,0,0,1,1.17,1.08,6.14,6.14,0,0,1,.79,1.84A10.62,10.62,0,0,1,240.45,151.29Zm-1.31,0a10.63,10.63,0,0,0-.19-2.21,4.85,4.85,0,0,0-.53-1.45,2.11,2.11,0,0,0-.76-.78,1.81,1.81,0,0,0-1.8,0,2.11,2.11,0,0,0-.76.78,4.86,4.86,0,0,0-.52,1.45,12.31,12.31,0,0,0,0,4.42,4.69,4.69,0,0,0,.52,1.44,2.07,2.07,0,0,0,.76.79,1.88,1.88,0,0,0,1.8,0,2.07,2.07,0,0,0,.76-.79,4.68,4.68,0,0,0,.53-1.44A10.56,10.56,0,0,0,239.14,151.29Z"/><path class="cls-11" d="M248.68,151.29a10.59,10.59,0,0,1-.29,2.62,5.73,5.73,0,0,1-.78,1.83,3.35,3.35,0,0,1-1.18,1.08,3.18,3.18,0,0,1-2.9,0,3.38,3.38,0,0,1-1.16-1.08,5.73,5.73,0,0,1-.78-1.83,12,12,0,0,1,0-5.24,5.9,5.9,0,0,1,.78-1.84,3.38,3.38,0,0,1,1.16-1.08,3.18,3.18,0,0,1,2.9,0,3.35,3.35,0,0,1,1.18,1.08,5.9,5.9,0,0,1,.78,1.84A10.59,10.59,0,0,1,248.68,151.29Zm-1.31,0a10.55,10.55,0,0,0-.2-2.21,4.59,4.59,0,0,0-.53-1.45,2,2,0,0,0-.76-.78,1.81,1.81,0,0,0-1.8,0,2.11,2.11,0,0,0-.76.78,5.16,5.16,0,0,0-.52,1.45,12.95,12.95,0,0,0,0,4.42,5,5,0,0,0,.52,1.44,2.07,2.07,0,0,0,.76.79,1.88,1.88,0,0,0,1.8,0,2,2,0,0,0,.76-.79,4.44,4.44,0,0,0,.53-1.44A10.49,10.49,0,0,0,247.37,151.29Z"/><path class="cls-11" d="M256.32,156v1.09h-5.45V156h2.18V148.1c0-.24,0-.47,0-.72l-1.81,1.77a.33.33,0,0,1-.18.1.33.33,0,0,1-.17,0,.34.34,0,0,1-.15-.07l-.1-.1-.4-.62,3-3h1V156Z"/><path class="cls-11" d="M264.32,155.69a.42.42,0,0,1,.33.14.51.51,0,0,1,.12.35v.87H258v-.49a1,1,0,0,1,.06-.32,1,1,0,0,1,.18-.29l3.25-3.71c.27-.31.52-.61.74-.9a5.48,5.48,0,0,0,.56-.86,4.45,4.45,0,0,0,.37-.88,3.64,3.64,0,0,0,.12-.95,2.41,2.41,0,0,0-.14-.89,1.63,1.63,0,0,0-.38-.63,1.72,1.72,0,0,0-.58-.38,2.09,2.09,0,0,0-.72-.12,1.8,1.8,0,0,0-.71.13,1.66,1.66,0,0,0-.58.36,1.87,1.87,0,0,0-.42.54,2,2,0,0,0-.24.69.63.63,0,0,1-.24.37.55.55,0,0,1-.4.06l-.66-.13a4.49,4.49,0,0,1,.38-1.4,3.5,3.5,0,0,1,.73-1,2.88,2.88,0,0,1,1-.63,3.47,3.47,0,0,1,1.22-.21,3.16,3.16,0,0,1,1.2.22,2.63,2.63,0,0,1,1,.63,2.84,2.84,0,0,1,.65,1,3.74,3.74,0,0,1,.23,1.35,4.12,4.12,0,0,1-.17,1.19,4.92,4.92,0,0,1-.46,1,7.64,7.64,0,0,1-.67,1c-.25.32-.52.64-.8,1l-2.68,3.1a5.27,5.27,0,0,1,.57-.14,3.64,3.64,0,0,1,.56-.05Z"/><path class="cls-11" d="M276.46,148.65a4.78,4.78,0,0,1,.39-1.4,3.14,3.14,0,0,1,.72-1,2.83,2.83,0,0,1,1-.63,3.42,3.42,0,0,1,1.21-.21,3.27,3.27,0,0,1,1.19.21,2.73,2.73,0,0,1,.94.59,2.64,2.64,0,0,1,.61.94,3.14,3.14,0,0,1,.22,1.21,3.7,3.7,0,0,1-.12,1,2.59,2.59,0,0,1-.35.75,2.21,2.21,0,0,1-.56.54,3,3,0,0,1-.73.38,2.64,2.64,0,0,1,1.49,1,3,3,0,0,1,.5,1.75,3.85,3.85,0,0,1-.26,1.44,3.27,3.27,0,0,1-.73,1.08,3.36,3.36,0,0,1-1.08.68,3.51,3.51,0,0,1-1.31.24,3.76,3.76,0,0,1-1.38-.23,2.63,2.63,0,0,1-1-.63,3.28,3.28,0,0,1-.66-1,7.54,7.54,0,0,1-.43-1.19l.55-.26a.55.55,0,0,1,.41,0,.43.43,0,0,1,.3.26c.06.15.13.33.23.54a2.42,2.42,0,0,0,.38.6,1.86,1.86,0,0,0,.61.49,1.91,1.91,0,0,0,.95.21,2.12,2.12,0,0,0,.93-.2,2,2,0,0,0,.66-.51,2.12,2.12,0,0,0,.4-.7,2.31,2.31,0,0,0,.14-.76,3.26,3.26,0,0,0-.11-.86,1.44,1.44,0,0,0-.39-.66,2,2,0,0,0-.8-.45,4.65,4.65,0,0,0-1.3-.16v-1a3.34,3.34,0,0,0,1.11-.16,2.1,2.1,0,0,0,.74-.41,1.62,1.62,0,0,0,.42-.64,2.39,2.39,0,0,0,.13-.82,2.34,2.34,0,0,0-.14-.87,1.71,1.71,0,0,0-.38-.61,1.54,1.54,0,0,0-.57-.36,2,2,0,0,0-.71-.12,1.87,1.87,0,0,0-.71.13,1.58,1.58,0,0,0-.58.36,2.09,2.09,0,0,0-.43.54,2.56,2.56,0,0,0-.24.69.67.67,0,0,1-.23.37.54.54,0,0,1-.4.06Z"/><path class="cls-11" d="M291.59,152.89v.82a.38.38,0,0,1-.07.22.26.26,0,0,1-.21.09h-1.26v3h-1.11v-3h-4.51a.36.36,0,0,1-.24-.09.39.39,0,0,1-.13-.23l-.13-.74,4.94-7.43h1.18v7.36Zm-2.65,0v-4.75c0-.14,0-.29,0-.46a4.38,4.38,0,0,1,0-.5l-3.7,5.71Z"/><path class="cls-11" d="M299.79,151.29a10.59,10.59,0,0,1-.29,2.62,5.73,5.73,0,0,1-.78,1.83,3.27,3.27,0,0,1-1.18,1.08,3.18,3.18,0,0,1-2.9,0,3.38,3.38,0,0,1-1.16-1.08,5.73,5.73,0,0,1-.78-1.83,12,12,0,0,1,0-5.24,5.9,5.9,0,0,1,.78-1.84,3.38,3.38,0,0,1,1.16-1.08,3.18,3.18,0,0,1,2.9,0,3.27,3.27,0,0,1,1.18,1.08,5.9,5.9,0,0,1,.78,1.84A10.59,10.59,0,0,1,299.79,151.29Zm-1.31,0a10.55,10.55,0,0,0-.2-2.21,4.86,4.86,0,0,0-.52-1.45,2.13,2.13,0,0,0-.77-.78,1.78,1.78,0,0,0-.9-.24,1.84,1.84,0,0,0-.9.24,2.19,2.19,0,0,0-.76.78,5.16,5.16,0,0,0-.52,1.45,12.95,12.95,0,0,0,0,4.42,5,5,0,0,0,.52,1.44,2.15,2.15,0,0,0,.76.79,1.94,1.94,0,0,0,.9.23,1.88,1.88,0,0,0,.9-.23,2.09,2.09,0,0,0,.77-.79,4.69,4.69,0,0,0,.52-1.44A10.49,10.49,0,0,0,298.48,151.29Z"/><path class="cls-11" d="M308,151.29a10.62,10.62,0,0,1-.28,2.62,6,6,0,0,1-.79,1.83,3.32,3.32,0,0,1-1.17,1.08,3.17,3.17,0,0,1-1.45.35,3.11,3.11,0,0,1-1.45-.35,3.32,3.32,0,0,1-1.17-1.08,5.73,5.73,0,0,1-.78-1.83,12.4,12.4,0,0,1,0-5.24,5.9,5.9,0,0,1,.78-1.84,3.32,3.32,0,0,1,1.17-1.08,3.11,3.11,0,0,1,1.45-.35,3.17,3.17,0,0,1,1.45.35,3.32,3.32,0,0,1,1.17,1.08,6.14,6.14,0,0,1,.79,1.84A10.62,10.62,0,0,1,308,151.29Zm-1.31,0a10.63,10.63,0,0,0-.19-2.21,4.85,4.85,0,0,0-.53-1.45,2.11,2.11,0,0,0-.76-.78,1.81,1.81,0,0,0-1.8,0,2.11,2.11,0,0,0-.76.78,4.86,4.86,0,0,0-.52,1.45,12.31,12.31,0,0,0,0,4.42,4.69,4.69,0,0,0,.52,1.44,2.07,2.07,0,0,0,.76.79,1.88,1.88,0,0,0,1.8,0,2.07,2.07,0,0,0,.76-.79,4.68,4.68,0,0,0,.53-1.44A10.56,10.56,0,0,0,306.7,151.29Z"/><path class="cls-11" d="M284.25,172.75a7.83,7.83,0,0,1-.21,1.94,4.64,4.64,0,0,1-.58,1.36,2.47,2.47,0,0,1-.88.8,2.32,2.32,0,0,1-1.07.26,2.36,2.36,0,0,1-1.08-.26,2.41,2.41,0,0,1-.86-.8,4.16,4.16,0,0,1-.58-1.36,7.83,7.83,0,0,1-.21-1.94,8,8,0,0,1,.21-1.94,4.16,4.16,0,0,1,.58-1.36,2.33,2.33,0,0,1,.86-.8,2.25,2.25,0,0,1,1.08-.27,2.21,2.21,0,0,1,1.07.27,2.38,2.38,0,0,1,.88.8,4.64,4.64,0,0,1,.58,1.36A8,8,0,0,1,284.25,172.75Zm-1,0a7.57,7.57,0,0,0-.15-1.64,3.24,3.24,0,0,0-.39-1.07,1.57,1.57,0,0,0-.56-.58,1.34,1.34,0,0,0-1.34,0,1.57,1.57,0,0,0-.56.58,3.76,3.76,0,0,0-.39,1.07,9.68,9.68,0,0,0,0,3.28,3.76,3.76,0,0,0,.39,1.07,1.57,1.57,0,0,0,.56.58,1.34,1.34,0,0,0,1.34,0,1.57,1.57,0,0,0,.56-.58,3.24,3.24,0,0,0,.39-1.07A7.57,7.57,0,0,0,283.28,172.75Z"/><path class="cls-11" d="M289.92,176.21V177h-4v-.81h1.61v-5.82c0-.18,0-.36,0-.53l-1.34,1.3a.34.34,0,0,1-.14.08h-.12a.21.21,0,0,1-.11,0,.3.3,0,0,1-.08-.08l-.29-.46,2.24-2.2h.76v7.75Z"/><path class="cls-11" d="M291.92,177.15a.66.66,0,0,1-.21.31.6.6,0,0,1-.3.1H291l3.16-8.93a.59.59,0,0,1,.19-.29.44.44,0,0,1,.3-.1h.39Z"/><path class="cls-11" d="M301.2,172.75a7.83,7.83,0,0,1-.21,1.94,4.39,4.39,0,0,1-.58,1.36,2.53,2.53,0,0,1-.87.8,2.39,2.39,0,0,1-1.08.26,2.32,2.32,0,0,1-1.07-.26,2.44,2.44,0,0,1-.87-.8,4.39,4.39,0,0,1-.58-1.36,7.83,7.83,0,0,1-.21-1.94,8,8,0,0,1,.21-1.94,4.39,4.39,0,0,1,.58-1.36,2.35,2.35,0,0,1,.87-.8,2.21,2.21,0,0,1,1.07-.27,2.28,2.28,0,0,1,1.08.27,2.43,2.43,0,0,1,.87.8,4.39,4.39,0,0,1,.58,1.36A8,8,0,0,1,301.2,172.75Zm-1,0a7.57,7.57,0,0,0-.15-1.64,3.24,3.24,0,0,0-.39-1.07,1.57,1.57,0,0,0-.56-.58,1.34,1.34,0,0,0-1.34,0,1.57,1.57,0,0,0-.56.58,3.76,3.76,0,0,0-.39,1.07,9.68,9.68,0,0,0,0,3.28,3.76,3.76,0,0,0,.39,1.07,1.57,1.57,0,0,0,.56.58,1.34,1.34,0,0,0,1.34,0,1.57,1.57,0,0,0,.56-.58,3.24,3.24,0,0,0,.39-1.07A7.57,7.57,0,0,0,300.23,172.75Z"/><path class="cls-11" d="M306.71,176a.3.3,0,0,1,.24.11.36.36,0,0,1,.09.26V177h-5v-.36a.62.62,0,0,1,0-.23.61.61,0,0,1,.13-.22l2.42-2.75c.2-.23.38-.46.54-.67a3.52,3.52,0,0,0,.42-.64,2.8,2.8,0,0,0,.27-.65,2.34,2.34,0,0,0,.1-.71,1.9,1.9,0,0,0-.11-.66,1.37,1.37,0,0,0-.28-.47,1.3,1.3,0,0,0-.43-.27,1.56,1.56,0,0,0-.53-.1,1.47,1.47,0,0,0-.53.1,1.12,1.12,0,0,0-.43.27,1.41,1.41,0,0,0-.32.4,1.61,1.61,0,0,0-.17.51.51.51,0,0,1-.18.28.46.46,0,0,1-.3,0l-.49-.1a3.45,3.45,0,0,1,.29-1A2.49,2.49,0,0,1,303,169a2.32,2.32,0,0,1,.73-.46,2.61,2.61,0,0,1,1.8,0,2.3,2.3,0,0,1,.72.47,2.41,2.41,0,0,1,.48.75,3.07,3.07,0,0,1,0,1.89,3.12,3.12,0,0,1-.34.77,5.57,5.57,0,0,1-.5.73c-.18.23-.38.47-.59.71l-2,2.3a2.8,2.8,0,0,1,.84-.15Z"/><path class="cls-12" d="M159.3,117.05h-8c-4.44,0-8-4.08-8-9.12h0c0-5,3.6-9.12,8-9.12h8c4.45,0,8,4.09,8,9.12h0C167.35,113,163.75,117.05,159.3,117.05Z"/><path class="cls-11" d="M168.08,117.05h-8c-4.45,0-8-4.08-8-9.12h0c0-5,3.6-9.12,8-9.12h8c4.44,0,8,4.09,8,9.12h0C176.12,113,172.52,117.05,168.08,117.05Z"/><circle class="cls-5" cx="301.14" cy="158.66" r="38.8"/><circle class="cls-6" cx="301.14" cy="158.66" r="31.93"/><path class="cls-13" d="M311.89,128.59,278.31,181a31.77,31.77,0,0,0,4.37,3.73L317.1,131A32.07,32.07,0,0,0,311.89,128.59Zm8.7,4.76-34.34,53.56a31.91,31.91,0,0,0,14.07,3.66l29.48-46A32,32,0,0,0,320.59,133.35ZM302,126.76l-29.48,46a32.1,32.1,0,0,0,3.33,5.35l32.41-50.56A31.44,31.44,0,0,0,302,126.76Z"/><text class="cls-14" transform="translate(283.72 176.94)">£</text><text class="cls-15" transform="translate(261.99 109)">2UTORING</text><polygon class="cls-16" points="42.99 189.03 43.58 193.7 49.53 193.7 49.88 188.78 42.99 189.03"/><polygon class="cls-16" points="58.91 188.27 59.63 193.7 65.59 193.7 65.36 188.11 58.91 188.27"/><path class="cls-17" d="M80.28,203.1H57.76a3,3,0,0,1-.29-1.25,35.76,35.76,0,0,1,.76-6.86c0-.22.07-.43.09-.62a7.13,7.13,0,0,0,.07-.78c0-1.57,1.38-1.3,1.38-1.3,2.28,2.23,4.86-1.12,6.37,0,0,0,.65.47,2.44,2.08S73.41,197,76,198.1c3.35,1.4,4.29,2.79,4.48,3.75A1.78,1.78,0,0,1,80.28,203.1Z"/><path class="cls-18" d="M80.28,203.1H57.76a3,3,0,0,1-.29-1.25h23A1.78,1.78,0,0,1,80.28,203.1Z"/><path class="cls-18" d="M60.06,203.1h-.67a4.92,4.92,0,0,0,1.21-3.6A6.34,6.34,0,0,0,58.23,195c0-.22.07-.43.09-.62a6.89,6.89,0,0,1,2.82,5.1A5.44,5.44,0,0,1,60.06,203.1Z"/><path class="cls-19" d="M68.19,195.67a.37.37,0,0,1-.08-.73l1.4-.35a.38.38,0,0,1,.45.27.37.37,0,0,1-.27.45l-1.41.35Z"/><path class="cls-19" d="M66.8,194.5a.36.36,0,0,1-.36-.28.37.37,0,0,1,.27-.45l1.4-.35a.37.37,0,1,1,.18.72l-1.4.35Z"/><path class="cls-19" d="M69.6,196.49a.36.36,0,0,1-.36-.28.37.37,0,0,1,.27-.45l1.41-.35a.37.37,0,0,1,.18.72l-1.41.35Z"/><path class="cls-19" d="M71,197.28a.36.36,0,0,1-.36-.28.37.37,0,0,1,.27-.45l1.41-.35a.37.37,0,0,1,.45.27.38.38,0,0,1-.28.45l-1.4.35Z"/><path class="cls-19" d="M72.54,198a.38.38,0,0,1-.36-.29.37.37,0,0,1,.27-.45l1.41-.35a.38.38,0,0,1,.45.28.36.36,0,0,1-.27.44l-1.41.35Z"/><path class="cls-19" d="M74.21,198.63a.38.38,0,0,1-.09-.74l1.4-.35a.38.38,0,0,1,.18.73l-1.4.34Z"/><path class="cls-20" d="M33.74,108.78c.06.23.12.46.19.69v0a7.59,7.59,0,0,0,.31.88c1,2.47,8.8,2.83,16.48,2,6-.66,11.83-2.07,14.41-3.79C67.57,106.93,62.41,92,62.41,92L33.29,98.11S32.63,104.32,33.74,108.78Z"/><path class="cls-20" d="M51.28,112.28l4.77,41.18c-1.1,6.92,1.86,35.3,1.86,35.3l8.58-.26L69,150.92c-.06-10.88-1.21-25.93-2.9-42.33,0-.26,0-.51-.07-.76l-.27-2.52c0-.23,0-.45-.07-.68l-2.8,1.29-.69.32-11,5.07Z"/><path class="cls-21" d="M59.28,187.58h0a.34.34,0,0,0,.31-.39c-3.05-24.79-1.07-35-1.05-35.07a.24.24,0,0,0,0-.12l-5.14-39.27a.36.36,0,0,0-.4-.31.35.35,0,0,0-.31.4L57.87,152c-.16.89-1.89,11.32,1.05,35.24A.37.37,0,0,0,59.28,187.58Z"/><path class="cls-21" d="M59.08,99.82a14.69,14.69,0,0,0,3.1,6.42,8.54,8.54,0,0,0,1.64,1.4,6.85,6.85,0,0,0,1.52.73,6.29,6.29,0,0,0,.74.22c0-.26,0-.51-.07-.76l-.36-.1A6.64,6.64,0,0,1,64.2,107a7.18,7.18,0,0,1-1.33-1.12,13.82,13.82,0,0,1-3.08-6.23.36.36,0,0,0-.71.13Z"/><path class="cls-21" d="M53.2,110.79a.3.3,0,0,1-.28.3h0a.29.29,0,0,1-.31-.27c-.05-1.08-.11-2.18-.18-3.28,0-.19,0-.39,0-.58-.23-3.6-.53-7.13-.76-9.63,0-.2,0-.4,0-.58,0-.55-.09-1-.13-1.45l.59-.09c0,.41.08.9.13,1.45,0,.19,0,.39.05.59.23,2.47.52,6,.76,9.55,0,.2,0,.4,0,.59C53.08,108.53,53.14,109.68,53.2,110.79Z"/><path class="cls-21" d="M54.05,107a7.31,7.31,0,0,1-1,.4,5.66,5.66,0,0,1-.59.15,3.7,3.7,0,0,1-.57.07,2.07,2.07,0,0,1-1-.15,1.23,1.23,0,0,1-.67-.91c-.22-1.11-.67-5.7-1-8.94L49.14,97c0-.52-.09-1-.12-1.39l.59-.08c0,.41.08.88.13,1.41,0,.19,0,.38,0,.58.31,3.24.76,7.81,1,8.89a.63.63,0,0,0,.36.5,2.13,2.13,0,0,0,1.26,0,5.69,5.69,0,0,0,.59-.16,8,8,0,0,0,.81-.32.3.3,0,0,1,.4.13A.28.28,0,0,1,54.05,107Z"/><path class="cls-20" d="M33.33,102.91s.21,2.32.54,5.87l.06.68h0v0c0,.24,0,.47.07.71.83,9,2.26,23.8,3.19,30.94,0,0-.14,13.44.36,23.82.46,9.64,3.78,21.2,4.25,24.06h8.84l.09-1.27V107.61a86.56,86.56,0,0,0-8.24-3.35l-.7-.23-1.32-.41-.7-.2C37.14,102.7,34.7,102.34,33.33,102.91Z"/><path class="cls-21" d="M42.77,188.63h.07a.35.35,0,0,0,.28-.41c0-.13-2.44-12.67-3.49-19.78s-.53-27-.52-27.2a.43.43,0,0,1,0,0c-.78-6.66-2.38-29.66-2.4-29.9a.36.36,0,0,0-.71,0c0,.24,1.61,23.2,2.4,29.91,0,.83-.5,20.27.53,27.3s3.47,19.67,3.5,19.8A.35.35,0,0,0,42.77,188.63Z"/><path class="cls-17" d="M52,201.66v.16c0,.23,0,.45,0,.63,0,.41-.05.66-.05.66H38.52a7.94,7.94,0,0,1,0-1.29,6.72,6.72,0,0,1,2.39-5c2.54-2,1.56-1.55,2.08-2.45.06-.1.52-1.61.56-1.72.44-.93.84-1.37,3.25-1.37,3.18,0,3.46,1.55,3.8,2.37a13.09,13.09,0,0,1,.54,1.89c.08.34.16.7.24,1.07.19.92.37,1.89.5,2.66A14.18,14.18,0,0,1,52,201.66Z"/><path class="cls-18" d="M52,201.66v.16c0,.23,0,.45,0,.63a3.74,3.74,0,0,1-1.39-1.8c-.83-2.27.44-5,.5-5.09h0c.08.34.16.7.24,1.07a6,6,0,0,0-.17,3.79A3,3,0,0,0,52,201.66Z"/><path class="cls-18" d="M52,201.82c0,.76-.08,1.29-.08,1.29H38.52a7.94,7.94,0,0,1,0-1.29Z"/><path class="cls-19" d="M47.23,195.5l-.1,0a6.71,6.71,0,0,0-3.11-.06.38.38,0,0,1-.47-.27.39.39,0,0,1,.27-.47,7.32,7.32,0,0,1,3.5.06.39.39,0,0,1-.09.76Z"/><path class="cls-19" d="M47.44,194.05h-.1a6.8,6.8,0,0,0-3.11-.07.38.38,0,0,1-.47-.26.37.37,0,0,1,.27-.47,7.32,7.32,0,0,1,3.5.06.38.38,0,0,1-.09.75Z"/><path class="cls-19" d="M46.65,196.71h-.09a6.78,6.78,0,0,0-3.11-.07.37.37,0,0,1-.47-.27.38.38,0,0,1,.26-.47,7.46,7.46,0,0,1,3.51.07.38.38,0,0,1,.28.46A.4.4,0,0,1,46.65,196.71Z"/><path class="cls-19" d="M46,198.09l-.1,0a6.89,6.89,0,0,0-3.11-.06.38.38,0,0,1-.47-.27.4.4,0,0,1,.27-.47,7.37,7.37,0,0,1,3.51.06.4.4,0,0,1,.27.47A.38.38,0,0,1,46,198.09Z"/><path class="cls-21" d="M33.93,109.46h0v0c0,.24,0,.47.07.71a5.73,5.73,0,0,0,3-.26,9.57,9.57,0,0,0,4.31-3.65,18.16,18.16,0,0,0,1.22-2,17.62,17.62,0,0,0,.85-1.91.35.35,0,0,0-.22-.45.36.36,0,0,0-.46.21,14.84,14.84,0,0,1-.87,1.92,18.26,18.26,0,0,1-1.13,1.87,8.9,8.9,0,0,1-3.94,3.37A5.08,5.08,0,0,1,33.93,109.46Z"/><path class="cls-22" d="M66.21,95.66a13.36,13.36,0,0,1-1,.9l-.27.2a18.87,18.87,0,0,1-2,1.3l-.3.17a31.09,31.09,0,0,1-9.45,3.35c-.83.16-1.67.29-2.52.4s-1.94.19-2.93.23c-.72,0-1.46,0-2.19,0h-.46a31.72,31.72,0,0,1-12.65-3l-.15-.07L32.2,99c-.8-2.44-1.65-8.2-2.26-13.07,0-.11,0-.22,0-.33-.27-2.16-.49-4.11-.64-5.49,0-.13,0-.25,0-.37s0-.44-.06-.62c-.08-.76-.14-1.52-.19-2.28A99.4,99.4,0,0,1,29,65.6L29,65a1.28,1.28,0,0,1,0-.19c0-.11,0-.23,0-.34.06-1.08.12-2.17.19-3.28l0-.34h0c.11-1.88.24-3.81.37-5.8.34-5.4,1.82-9.18,4.37-10.88.11-.08.23-.15.35-.22h0a6.08,6.08,0,0,1,2-.71,16.55,16.55,0,0,0,3.37-.88c.38-.15.74-.3,1.06-.45l.38-.19a12.71,12.71,0,0,0,2-1.25h8.94a6.87,6.87,0,0,0,2.78,2.33l.35.16.53.21c.42.16.85.29,1.27.42l.36.1c2.51.72,4.88,1.21,5.47,4.19.29,1.43-.25,3.76-.69,7.54,0,.14,0,.29,0,.44-.08.69-.15,1.41-.21,2.19l0,.4c-.15,1.95-.23,4.2-.18,6.79,0,.73,0,1.5.07,2.29s.08,1.5.14,2.29.12,1.5.2,2.28.15,1.38.23,2.1l.18,1.38h0c0,.13,0,.26,0,.39s.05.33.07.5c.1.66.22,1.47.36,2.37,0,.11,0,.23.05.34.17,1.07.36,2.27.58,3.53,0,.11,0,.23,0,.34.41,2.42.89,5,1.38,7.48,0,.15.05.29.08.44C65.51,92.68,65.87,94.31,66.21,95.66Z"/><path class="cls-23" d="M35.38,78.56a4.4,4.4,0,0,1-3.8,1.93,6.83,6.83,0,0,1-2.32-.43c0-.13,0-.25,0-.37,2.78,1.06,4.91.19,5.88-1.31a3,3,0,0,0-.66-4.13c-1.79-1.35-1.32-2.44-.82-3.61a3.57,3.57,0,0,0-.22-4.09,4,4,0,0,0-2.62-1.84,4.39,4.39,0,0,0-1.78.07c0-.11,0-.23,0-.34a4.42,4.42,0,0,1,1.82-.06,4.37,4.37,0,0,1,2.85,2,4,4,0,0,1,.25,4.42c-.49,1.12-.87,2,.71,3.2A3.35,3.35,0,0,1,35.38,78.56Z"/><path class="cls-20" d="M44.78,26.79l-1.35-5.6a2.24,2.24,0,0,1,.6-3.35,4.37,4.37,0,0,1,4.35-.25s.52-2.39,2.34-2.8,2.73,1.91,2.73,1.91,1.07-2.21,3-1.86S58,17.34,58,17.34s2.3-1.55,3.8-.23S61.06,21,61.06,21s2.11.57,1.8,2.11-2.59,1.83-2.59,1.83l-1.46,5.48Z"/><path class="cls-24" d="M55.57,31.07s1.23-2.26,3.09-1.33.67,7.47-3,6.55Z"/><path class="cls-16" d="M43.36,40.73s-.66.7,2.71,2.58a8,8,0,0,0,5.52.65,6.9,6.9,0,0,0,.85-.31,10.18,10.18,0,0,1,1.22-4.93l.06-.09-8.27-7Z"/><path class="cls-20" d="M45.89,35.68s.75,6.76,5.7,8.28a6.9,6.9,0,0,0,.85-.31,10.18,10.18,0,0,1,1.22-4.93Z"/><path class="cls-16" d="M48.75,39.81c3.7,1.66,7.18.71,8.33-2.53.27-.78.59-1.93.88-3.14v0c.06-.25.13-.51.19-.77s.09-.38.13-.56c.5-2.16.89-4.13.89-4.13C59.87,23.15,55,19.92,50.3,21s-4.6,8-5.33,11.14A6.53,6.53,0,0,0,48.75,39.81Z"/><path class="cls-19" d="M55.13,34.28a22,22,0,0,1-3.92-1.35s-.81,2.58,1.45,3C54.47,36.24,55.13,34.28,55.13,34.28Z"/><path class="cls-20" d="M52.37,29.5c-.1.37-.36.63-.58.57s-.31-.41-.21-.78.36-.62.57-.56S52.47,29.14,52.37,29.5Z"/><path class="cls-20" d="M56.61,30.57c-.1.37-.35.62-.57.56s-.31-.4-.21-.77.35-.62.57-.57S56.71,30.2,56.61,30.57Z"/><path class="cls-24" d="M52.83,36.63a.12.12,0,0,1,.06.08.2.2,0,0,1-.12.24,1.55,1.55,0,0,1-1.58-.47.2.2,0,0,1,0-.27.19.19,0,0,1,.27,0,1.19,1.19,0,0,0,1.19.38A.17.17,0,0,1,52.83,36.63Z"/><path class="cls-20" d="M51.27,28.11c-1.15-.06-1.15-1.31,0-1.65a3,3,0,0,1,1.59-.12c1.44.38,1.2,1.4.37,1.62A8,8,0,0,1,51.27,28.11Z"/><path class="cls-20" d="M57.71,29.33c1.11.32,1.52-.86.55-1.56a3,3,0,0,0-1.46-.64c-1.48-.12-1.6.92-.89,1.4A7.68,7.68,0,0,0,57.71,29.33Z"/><path class="cls-24" d="M57.51,34.09a3.64,3.64,0,0,0,.45,0v0c.06-.25.13-.51.19-.77s.09-.38.13-.56l-.54-.13c-1-.16-1.85,0-1.92.43S56.52,33.93,57.51,34.09Z"/><path class="cls-20" d="M54.16,33.63a.17.17,0,0,0,.1,0,3.1,3.1,0,0,0,1.3-.72.18.18,0,0,0,0-.16l-.8-2.22v0a3.41,3.41,0,0,1,.07-1.83.18.18,0,1,0-.35-.07,3.58,3.58,0,0,0,0,2l.76,2.1a4.8,4.8,0,0,1-1.08.54.17.17,0,0,0-.1.23A.16.16,0,0,0,54.16,33.63Z"/><path class="cls-24" d="M47.52,30.9c-.07.4.69.85,1.68,1s1.84,0,1.91-.42-.69-.86-1.68-1S47.59,30.5,47.52,30.9Z"/><path class="cls-20" d="M45.88,26.49a1.57,1.57,0,0,0,0,.2s.81.53.82,2.36l1.17.23a8.88,8.88,0,0,0,.9-3.78,2.13,2.13,0,0,1,.1-.57c.74-2.09,4.92-3.13,7.38-2a5.2,5.2,0,0,1,3,4A9.29,9.29,0,0,1,59.09,29a6.65,6.65,0,0,0-.3-5.62c-1.93-3.73-7.43-4.88-10.37-2.28A6.86,6.86,0,0,0,45.88,26.49Z"/><path class="cls-24" d="M45.88,26.49a1.57,1.57,0,0,0,0,.2s.81.53.82,2.36l1.17.23a8.88,8.88,0,0,0,.9-3.78,2.13,2.13,0,0,1,.1-.57Z"/><path class="cls-20" d="M51,23.06s2.14-.29,3,.31,2.11,1.42,3.32.92,1.86,2,1.86,2-.36-4.23-3.79-4.2S52,21.81,51,23.06Z"/><path class="cls-16" d="M46.77,27.92a2.38,2.38,0,0,0-2.72-1.61c-2,.44-2.49,7.08,1.32,7.1Z"/><path class="cls-19" d="M44.15,32.13a.46.46,0,1,0,.91,0,.46.46,0,1,0-.91,0Z"/><path class="cls-20" d="M45.18,31h0a.17.17,0,0,0,.17-.18,3.23,3.23,0,0,0-1.75-2.73.17.17,0,0,0-.23.09.18.18,0,0,0,.09.24A2.92,2.92,0,0,1,45,30.8.18.18,0,0,0,45.18,31Z"/><path class="cls-20" d="M43.76,30a.21.21,0,0,0,.13,0s.42-.29.9-.57a.18.18,0,0,0,.06-.24.17.17,0,0,0-.24-.07c-.49.28-.91.57-.93.58a.18.18,0,0,0,0,.25A.2.2,0,0,0,43.76,30Z"/><path class="cls-16" d="M64.77,65.75a3.65,3.65,0,0,0-4.45-2.63c-1.35.35-2.61.73-3.85,1.13s-2.45.81-3.66,1.23l-2.86,1-1,.34-3.29,1.13c-2.35.8-4.69,1.55-7,2.19-1.15.32-2.29.6-3.4.83a23.11,23.11,0,0,1-3.13.45l-.66,0v-.05l0-.39c.06-.52.14-1,.24-1.58.19-1.07.45-2.16.75-3.26s.65-2.21,1-3.31.8-2.21,1.24-3.31c.22-.55.45-1.1.68-1.65s.47-1.09.72-1.63.49-1.08.74-1.62l.38-.79.19-.39.18-.35.07-.14a4.53,4.53,0,0,0-8-4.21l-.27.49-.24.45c-.16.3-.32.6-.47.9-.31.6-.61,1.2-.89,1.8s-.57,1.21-.84,1.82-.53,1.23-.79,1.85c-.51,1.23-1,2.5-1.42,3.78s-.84,2.59-1.19,3.93a38.9,38.9,0,0,0-.87,4.14c-.12.71-.21,1.43-.27,2.17l-.05.55,0,.56,0,.57v.62a9.33,9.33,0,0,0,.2,1.94,7.66,7.66,0,0,0,.88,2.22,7.35,7.35,0,0,0,1.68,1.91,6.4,6.4,0,0,0,1,.65,9.14,9.14,0,0,0,.95.46,9.78,9.78,0,0,0,1.72.5,12.43,12.43,0,0,0,1.5.18,16.44,16.44,0,0,0,2.56,0c.79-.08,1.54-.19,2.25-.32s1.41-.29,2.09-.46c1.36-.33,2.65-.71,3.93-1.12,2.12-.68,4.17-1.43,6.18-2.2l.77-.3.41-.16c2.39-.94,4.74-1.91,7.06-2.86,1.16-.48,2.31-1,3.45-1.4s2.27-.88,3.34-1.24l0,0A3.66,3.66,0,0,0,64.77,65.75Z"/><path class="cls-16" d="M71.49,69.05c-.37-2.42-1-5.18-1.61-7.8-1.27-5.18-2.7-9.79-2.79-10.07a4.53,4.53,0,0,0-5.66-3,4.28,4.28,0,0,0-1.14.54c0,.74.11,1.62.25,2.67a59.56,59.56,0,0,1,.1,10.2c.11.44.23.89.34,1.35.43,1.72.84,3.51,1.17,5.19-.61,0-1.43,0-2.5-.07-2.44-.16-5.35-.55-8.43-1-6.34-.85-12.9-1.73-17.75-1a4.52,4.52,0,0,0,.7,9,4.31,4.31,0,0,0,.71,0c3.54-.56,9.7.27,15.14,1A94.35,94.35,0,0,0,61.61,77.2c3.55,0,6.29-.63,8.12-2.49A6.51,6.51,0,0,0,71.49,69.05Z"/><path class="cls-25" d="M33.84,63.48A60,60,0,0,1,36,56.92c.77-1.91,1.85-3.68,2.76-5.52a.14.14,0,0,1,.09-.08,27.26,27.26,0,0,0,1.2-3.5,7.07,7.07,0,0,0-4-3s-4.55-.54-7.13,2.86c-.26.34-.53.73-.8,1.16l-.21.33a81.31,81.31,0,0,0-4.57,9.18c-.06.13-.11.25-.15.35l-.25.6s6.23,3.83,11.1,4.85Z"/><path class="cls-23" d="M34.27,61.84a.17.17,0,0,0,.17-.12l3.71-9.35a.19.19,0,0,0-.11-.24.19.19,0,0,0-.24.1l-3.7,9.35a.18.18,0,0,0,.1.24Z"/><path class="cls-23" d="M37,55a.23.23,0,0,0,.11,0L39,53.73a.2.2,0,0,0,0-.26.2.2,0,0,0-.26,0L36.86,54.7a.18.18,0,0,0,0,.26A.18.18,0,0,0,37,55Z"/><path class="cls-16" d="M34.27,61.65l-.56,2.41-3.14-1c-.58,1.2-1.33,2.35-1.91,3.47s-1.25,2.5-1.86,3.75A38.6,38.6,0,0,0,33.69,73C36,73.34,37,67,37,67S36,62.44,34.27,61.65Z"/><path class="cls-24" d="M33.65,64l-.36-.1c-.67,2.95-1.45,6.33-2.12,9.11a.23.23,0,0,0,.17.26.22.22,0,0,0,.26-.14v0c.67-2.79,1.44-6.13,2.12-9.09Z"/><path class="cls-25" d="M60.29,48.74c0,.74.11,1.62.25,2.67a36.2,36.2,0,0,1,.27,4.68v.39c0,2-.1,3.92-.17,5.13,0,.82-.1,1.32-.1,1.32L61,63l.48,0h.37a16.1,16.1,0,0,0,1.82-.14l.37-.05c.4-.06.81-.13,1.21-.22l.36-.07c.6-.14,1.19-.28,1.75-.44l.36-.1c.78-.23,1.5-.47,2.14-.7h0l.34-.13c1.3-.48,2.14-.86,2.14-.86s-1.51-4.53-3.25-8.4c0-.12-.1-.24-.16-.36a14.29,14.29,0,0,0-1.67-2.67c-1.58-2.36-4.05-3.83-5.37-3.95l-.41,0a5.68,5.68,0,0,0-.69,0S60.14,45.3,60.29,48.74Z"/><path class="cls-23" d="M62,63a.18.18,0,0,0,.1-.18l-.82-10a.18.18,0,0,0-.2-.16.17.17,0,0,0-.17.19l.82,10a.19.19,0,0,0,.2.17Z"/><path class="cls-24" d="M48.09,75.79l-.77.3c-6.87-1.4-15.86-2.65-16-2.67a.22.22,0,0,1-.19-.25.23.23,0,0,1,.25-.19C31.53,73,41.13,74.34,48.09,75.79Z"/><path class="cls-24" d="M31.27,73.35a.22.22,0,0,0,.11,0,.22.22,0,0,0,.2-.24,7.29,7.29,0,0,0-.62-1.9.24.24,0,0,0-.3-.1.23.23,0,0,0-.1.3,6.41,6.41,0,0,1,.58,1.74A.2.2,0,0,0,31.27,73.35Z"/><path class="cls-24" d="M64,68.18a.22.22,0,0,1-.21.2h0C58.8,67.9,52,67.15,49,66.81l1-.34c3.35.38,9.34,1,13.81,1.47A.21.21,0,0,1,64,68.18Z"/><path class="cls-24" d="M61.88,67.92a.19.19,0,0,1-.1,0,.22.22,0,0,1-.1-.29A7.26,7.26,0,0,1,63,66.06a.22.22,0,0,1,.31,0,.21.21,0,0,1,0,.31,6.67,6.67,0,0,0-1.17,1.41A.22.22,0,0,1,61.88,67.92Z"/><circle class="cls-11" cx="245.36" cy="52.08" r="19.58" transform="translate(-4.46 29.69) rotate(-6.86)"/><path class="cls-26" d="M234.05,52.08a11.31,11.31,0,1,0,11.31-11.31A11.32,11.32,0,0,0,234.05,52.08Zm6.35,4.18a14.92,14.92,0,0,1-.61-4h5.12v4Zm2.66,6a10.36,10.36,0,0,1-6.77-5.06h3.44a12.8,12.8,0,0,0,2,3.6A12.63,12.63,0,0,0,243.06,62.23Zm1.85-5.06v5.3a9.66,9.66,0,0,1-2.51-2.29,11.94,11.94,0,0,1-1.69-3Zm-4-10.66a14.16,14.16,0,0,1,3.55-4.8l.41,0v4.82Zm-4.37,0A10.43,10.43,0,0,1,242.92,42a14.52,14.52,0,0,0-1.44,1.76A14.7,14.7,0,0,0,240,46.51Zm3.22,4.87a12.84,12.84,0,0,1,.78-4h4.33v4Zm-4.82,0a10.3,10.3,0,0,1,1.08-4h3.56a13.78,13.78,0,0,0-.73,4Zm3.9.91a15.92,15.92,0,0,0,.57,4h-3.62a10.42,10.42,0,0,1-.87-4Zm12.85,0h4a10.42,10.42,0,0,1-.87,4h-3.72A16.4,16.4,0,0,0,251.73,52.29Zm-5.91-5.78V41.69h.28a13.17,13.17,0,0,1,2.3,2.57,14.11,14.11,0,0,1,1.26,2.24Zm4.21.91a13.15,13.15,0,0,1,.79,4h-5v-4Zm.63-.91a14.75,14.75,0,0,0-1.53-2.78,16.14,16.14,0,0,0-1.46-1.8,10.47,10.47,0,0,1,6.47,4.58Zm.16,5.78a14.86,14.86,0,0,1-.6,4h-4.4v-4Zm.91-.91a14.13,14.13,0,0,0-.73-4h3.66a10.3,10.3,0,0,1,1.08,4Zm2.7,5.79a10.47,10.47,0,0,1-6.91,5.08,10.9,10.9,0,0,0,1.39-1.48,12.55,12.55,0,0,0,2-3.6Zm-4.52,0a10.78,10.78,0,0,1-4.09,5.24V57.17Z"/><polygon class="cls-11" points="235.35 68.09 224.83 70.32 229.38 61.25 235.35 68.09"/></g></g></g></svg>