<svg xmlns="http://www.w3.org/2000/svg" viewBox="0 0 19.5 14.06"><defs><style>.cls-1{fill:#fa5;}</style></defs><g id="Layer_2" data-name="Layer 2"><g id="Option_1" data-name="Option 1"><path class="cls-1" d="M17.44,0H2.06A2.07,2.07,0,0,0,0,2.06V12a2.06,2.06,0,0,0,2.06,2.06H17.44A2.06,2.06,0,0,0,19.5,12V2.06A2.07,2.07,0,0,0,17.44,0ZM2.06.61H17.44a1.45,1.45,0,0,1,1.39,1.06L15.36,4.52,10.59,8.38l0,0a1.14,1.14,0,0,1-.72.26,1.12,1.12,0,0,1-.72-.26L4.29,4.52.69,1.58A1.46,1.46,0,0,1,2.06.61ZM17.44,13.45H2.06A1.45,1.45,0,0,1,.61,12V2.42L3.87,5.06l3,2.42L2.39,11.71a.47.47,0,0,0-.11.25.31.31,0,0,0,.09.23.36.36,0,0,0,.25.11.28.28,0,0,0,.23-.08h0L7.37,7.9,8.68,9a1.61,1.61,0,0,0,1.12.4h0A1.73,1.73,0,0,0,11,9l0,0,1.28-1,4.55,4.34a.29.29,0,0,0,.23.08.36.36,0,0,0,.25-.11A.31.31,0,0,0,17.4,12a.36.36,0,0,0-.11-.25L12.82,7.45l3-2.39,3.1-2.52V12A1.45,1.45,0,0,1,17.44,13.45Z"/></g></g></svg>