<svg xmlns="http://www.w3.org/2000/svg" viewBox="0 0 27.98 27.98"><defs><style>.cls-1{fill:#46c7ce;}</style></defs><g id="Layer_2" data-name="Layer 2"><g id="Option_1" data-name="Option 1"><path class="cls-1" d="M19.71,14A5.72,5.72,0,1,0,14,19.72,5.74,5.74,0,0,0,19.71,14ZM14,18.44A4.46,4.46,0,1,1,18.44,14,4.5,4.5,0,0,1,14,18.44Z"/><path class="cls-1" d="M28,18.35a.62.62,0,0,0-1.22-.06,2.52,2.52,0,0,0,0,.48v7.92H18.76a2.42,2.42,0,0,0-.47,0,.59.59,0,0,0-.47.47.51.51,0,0,0,.25.61,1.51,1.51,0,0,0,.63.16H27c.73,0,.94-.2.94-.93V18.73A2.43,2.43,0,0,0,28,18.35Z"/><path class="cls-1" d="M18.33,1.24a3.39,3.39,0,0,0,.45,0h7.91v8a1.91,1.91,0,0,0,0,.48.58.58,0,0,0,.56.45.59.59,0,0,0,.61-.37A1.24,1.24,0,0,0,28,9.28V.88C28,.2,27.77,0,27.09,0H18.37a.65.65,0,0,0-.57.6A.62.62,0,0,0,18.33,1.24Z"/><path class="cls-1" d="M9.66,26.73a2.12,2.12,0,0,0-.44,0H1.27v-.45q0-3.73,0-7.47a1,1,0,0,0,0-.47.94.94,0,0,0-.43-.45A.7.7,0,0,0,.2,18a1,1,0,0,0-.19.64q0,4.2,0,8.4c0,.72.2.91.92.91H9.26a2,2,0,0,0,.35,0,.62.62,0,0,0,.55-.61A.61.61,0,0,0,9.66,26.73Z"/><path class="cls-1" d="M0,9.58a.62.62,0,0,0,.61.58.58.58,0,0,0,.62-.55,3,3,0,0,0,0-.42V1.27h8a2.22,2.22,0,0,0,.45,0,.61.61,0,0,0,.35-1A.8.8,0,0,0,9.32,0H.88C.19,0,0,.19,0,.88V9.29C0,9.38,0,9.48,0,9.58Z"/></g></g></svg>