<?xml version="1.0" encoding="utf-8"?>
<!-- Generator: Adobe Illustrator 25.0.0, SVG Export Plug-In . SVG Version: 6.00 Build 0)  -->
<svg version="1.1" id="Layer_1" xmlns="http://www.w3.org/2000/svg" xmlns:xlink="http://www.w3.org/1999/xlink" x="0px" y="0px"
	 viewBox="0 0 224.4 174.4" style="enable-background:new 0 0 224.4 174.4;" xml:space="preserve">
<style type="text/css">
	.st0{opacity:0.3;fill:#FFD371;enable-background:new    ;}
	.st1{fill:#EAEAEA;}
	.st2{fill:#C2C2C2;}
	.st3{fill:#FFFFFF;}
	.st4{fill:#FFAA55;}
	.st5{opacity:0.5;fill:#FFD371;enable-background:new    ;}
	.st6{opacity:0.5;fill:#FFAA55;enable-background:new    ;}
	.st7{opacity:0.24;}
	.st8{fill:none;stroke:#FFFFFF;stroke-miterlimit:10;}
	.st9{fill:#FFD371;}
	.st10{clip-path:url(#SVGID_2_);}
	.st11{fill:#FCC8CE;}
	.st12{fill:#222C69;}
	.st13{fill:#F7BEB3;}
	.st14{fill:#25585D;}
	.st15{fill:#E6E9FB;}
	.st16{fill:#EB84A9;}
	.st17{fill:#551E17;}
	.st18{fill:#0E1334;}
	.st19{fill:none;stroke:#551E17;stroke-width:1.03;stroke-linecap:round;stroke-linejoin:round;}
	.st20{fill:none;stroke:#EB84A9;stroke-width:0.77;stroke-linecap:round;stroke-linejoin:round;}
	.st21{fill:#182355;}
	.st22{fill:#1C4A4C;}
	.st23{fill:#6EA6B3;}
	.st24{fill:#A3D0DC;}
	.st25{fill:#363638;}
	.st26{fill:#CC5B54;}
	.st27{fill:#285C62;}
	.st28{fill:#2C686C;}
	.st29{fill:none;stroke:#000000;stroke-miterlimit:10;}
	.st30{fill:#60874F;}
	.st31{fill:#75C189;}
	.st32{fill:#260A05;}
	.st33{fill:none;stroke:#551E17;stroke-linecap:round;stroke-linejoin:round;}
</style>
<path class="st0" d="M117.3,168.6C53.9,169.9,25.8,150,25.8,150s-41.9-20.6-19-77C25.1,28.1,93-9.8,126.9,5.4s31.4,35.2,68.9,63.5
	s29.5,51.4,23.1,63.2C218.9,132.1,199,167,117.3,168.6z"/>
<g>
	<ellipse class="st1" cx="176.1" cy="163.8" rx="30.4" ry="5.9"/>
</g>
<path class="st2" d="M17.5,6.8h161.7c6.5,0,11.7,5.2,11.7,11.7v94.3c0,6.5-5.2,11.7-11.7,11.7H17.5c-6.5,0-11.7-5.2-11.7-11.7V18.5
	C5.8,12,11.1,6.8,17.5,6.8z"/>
<path class="st3" d="M16.7,7.9h163.3c5.3,0,9.6,4.3,9.6,9.6v93.3c0,5.3-4.3,9.6-9.6,9.6H16.7c-5.3,0-9.5-4.3-9.5-9.6V17.5
	C7.2,12.2,11.5,7.9,16.7,7.9z"/>
<path class="st4" d="M128,17.6V90c0,2.2-1.8,4-4,4H14.9c-2.2,0-4-1.8-4-3.9c0,0,0,0,0-0.1V17.6c0-2.2,1.8-4,3.9-4H124
	c2.2,0,4,1.7,4,3.9C128,17.5,128,17.5,128,17.6z"/>
<path class="st5" d="M140.6,13.6h37.5c4.3,0,7.8,3.5,7.8,7.8v15.4c0,4.3-3.5,7.8-7.8,7.8h-37.5c-4.3,0-7.8-3.5-7.8-7.8V21.4
	C132.8,17.1,136.3,13.6,140.6,13.6z"/>
<path class="st5" d="M140.6,52.6h37.5c4.3,0,7.8,3.5,7.8,7.8v15.4c0,4.3-3.5,7.8-7.8,7.8h-37.5c-4.3,0-7.8-3.5-7.8-7.8V60.4
	C132.8,56.1,136.3,52.6,140.6,52.6z"/>
<path class="st5" d="M140.6,91.6h37.5c4.3,0,7.8,3.5,7.8,7.8v13.2c0,4.3-3.5,7.8-7.8,7.8h-37.5c-4.3,0-7.8-3.5-7.8-7.8V99.4
	C132.8,95.1,136.3,91.6,140.6,91.6z"/>
<path class="st6" d="M12.4,98.9h58.2c0.8,0,1.4,0.6,1.4,1.4v0c0,0.8-0.6,1.4-1.4,1.4H12.4c-0.8,0-1.4-0.6-1.4-1.4v0
	C11,99.5,11.6,98.9,12.4,98.9z"/>
<path class="st6" d="M13.8,106.7h55.5c1.6,0,2.8,1.3,2.8,2.8v3c0,1.6-1.3,2.8-2.8,2.8H13.8c-1.6,0-2.8-1.3-2.8-2.8v-3
	C11,107.9,12.2,106.7,13.8,106.7z"/>
<path class="st6" d="M113.7,98.9h12.8c0.8,0,1.4,0.6,1.4,1.4v0c0,0.8-0.6,1.4-1.4,1.4h-12.8c-0.8,0-1.4-0.6-1.4-1.4v0
	C112.3,99.5,112.9,98.9,113.7,98.9z"/>
<path class="st6" d="M92,98.9h12.8c0.8,0,1.4,0.6,1.4,1.4v0c0,0.8-0.6,1.4-1.4,1.4H92c-0.8,0-1.4-0.6-1.4-1.4v0
	C90.6,99.5,91.2,98.9,92,98.9z"/>
<path class="st6" d="M102.5,106.7h22.6c1.6,0,2.8,1.3,2.8,2.8v3c0,1.6-1.3,2.8-2.8,2.8h-22.6c-1.6,0-2.8-1.3-2.8-2.8v-3
	C99.7,107.9,101,106.7,102.5,106.7z"/>
<g class="st7">
	<circle class="st8" cx="159.3" cy="29.1" r="8"/>
	<path class="st3" d="M161.2,27.8l-2.4-1.4c-0.7-0.4-1.6-0.2-2,0.5c-0.1,0.2-0.2,0.5-0.2,0.7v2.8c0,0.8,0.7,1.5,1.5,1.5
		c0.3,0,0.5-0.1,0.7-0.2l2.4-1.4c0.7-0.4,1-1.3,0.6-2C161.6,28.1,161.4,27.9,161.2,27.8z"/>
</g>
<g class="st7">
	<circle class="st8" cx="159.3" cy="68.1" r="8"/>
	<path class="st3" d="M161.2,66.8l-2.4-1.4c-0.7-0.4-1.6-0.2-2,0.5c-0.1,0.2-0.2,0.5-0.2,0.7v2.8c0,0.8,0.7,1.5,1.5,1.5
		c0.3,0,0.5-0.1,0.7-0.2l2.4-1.4c0.7-0.4,1-1.3,0.6-2C161.6,67.1,161.4,66.9,161.2,66.8z"/>
</g>
<g class="st7">
	<circle class="st8" cx="159.3" cy="106" r="8"/>
	<path class="st3" d="M161.2,104.7l-2.4-1.4c-0.7-0.4-1.6-0.2-2,0.5c-0.1,0.2-0.2,0.5-0.2,0.7v2.8c0,0.8,0.7,1.5,1.5,1.5
		c0.3,0,0.5-0.1,0.7-0.2l2.4-1.4c0.7-0.4,1-1.3,0.6-2C161.6,105,161.4,104.8,161.2,104.7z"/>
</g>
<path class="st9" d="M126.6,14.6L12.3,93c-0.9-0.7-1.4-1.8-1.4-3V17.6c0-2.2,1.8-4,3.9-4H124C125,13.6,125.9,13.9,126.6,14.6z"/>
<g>
	<defs>
		<rect id="SVGID_1_" x="11" y="-5.4" width="131.7" height="99.4"/>
	</defs>
	<clipPath id="SVGID_2_">
		<use xlink:href="#SVGID_1_"  style="overflow:visible;"/>
	</clipPath>
	<g class="st10">
		<polygon class="st11" points="88.8,216.2 90.5,237.3 81.5,237.3 76.8,216.2 		"/>
		<path class="st12" d="M80.5,232.9c0,0-3.9,6.3-1,7.4s22.3,1.2,27,0.5s-10.6-7.3-14.2-8.3S87.8,236.9,80.5,232.9z"/>
		<polygon class="st11" points="31.1,216.2 29.3,237.3 38.3,237.3 43,216.2 		"/>
		<path class="st13" d="M118.9,64.6c0,0,6.5-5.2,6.7-6.6c0.3-2.8,1.3-5,7.3-6.8c0.3,0.6,0.1,1.4-0.4,1.8c-0.5,0.6-1,1-1.6,1.4
			c0,0,1.6,0.6,3.9-1.2s3.3-3.4,4.3-3c0,0,1.2-1.1,1.7-0.9c0.2,0.1,0.4,0.3,0.3,0.6c0.9-0.1,0.7,2.5-0.9,4.7
			c-2.4,3.1-5.3,5.8-7.7,6.6c-1.8,0.7-9.3,8.3-9.3,8.3L118.9,64.6z"/>
		<path class="st14" d="M98.8,90.8c-2.8,1-18.6-23.3-18.6-23.3c-6.1-7-0.6-30.2,4.9-22c0,0,14.4,26,15.9,28.1
			C102.9,76.1,109.3,87.3,98.8,90.8z"/>
		<polygon class="st12" points="39.3,114.9 25.2,222.4 43.5,225.7 58.7,156.3 77.4,226.8 92.2,223.5 81,114.9 		"/>
		<path class="st14" d="M81,114.9H39.3c0,0-3.2-1.4-0.4-7.6c1-2.3,0.6-8.2,0.4-16.3c-0.3-16-5.1-42.6,0.8-45.7
			c3.5-1.8,11-4.2,16.4-5.9l1-0.3c3.2-1,5.4-1.6,5.4-1.6c2.7,0.5,5.3,1.2,7.9,2l0.9,0.3c1.4,0.4,2.9,0.9,4.7,1.5
			c9.3,3.2,8.3,2,9.5,13.7C86.9,64.3,81,114.9,81,114.9z"/>
		<path class="st15" d="M71.7,39.8c-0.1,1.9-1,3.7-2.3,5c-3.1,2.9-7.9,2.8-10.8-0.3c-1.3-1.4-2.1-3.2-2.1-5.1l1-0.3
			c3.2-1,5.4-1.6,5.4-1.6c2.7,0.5,5.3,1.2,7.9,2L71.7,39.8z"/>
		<path class="st13" d="M70.8,23.2l-0.6,12.7L70,39.5c-0.2,3.2-2.9,5.6-6.1,5.5c-3.1-0.2-5.5-2.8-5.5-5.9l0.1-6.5l0.3-10.7
			L70.8,23.2z"/>
		<path class="st16" d="M70.8,25.7l-0.7,11.9c-5.6,0.2-9.7-2.1-11.6-5.1l0.3-8.2L70.8,25.7z"/>
		<path class="st17" d="M55.1,10.8c0,0-5.4-0.7-4.8,6.1c0.5,5.2,7.6,12.2,7.6,12.2S62.4,13.3,55.1,10.8z"/>
		<path class="st18" d="M77.1,15.6c-0.4,0.8-0.9,1.6-1.4,2.4c-0.5,0.8-0.7,1.7-0.7,2.6c-0.1-1.5-1.1-2.7-1.9-3.9s-1.6-2.7-1.2-4.1
			s2.8-3.5,4.3-2.6C77.9,10.9,77.7,14.2,77.1,15.6z"/>
		<path class="st13" d="M75.3,15.9c0.2,2.9,0.2,5.8-0.2,8.7c-0.7,5.3-0.4,11.5-8.2,11.9c-8.3,0.4-11-8.9-11-8.9s-4.4-0.8-4.7-3.8
			s2.7-3.1,3.7-2.3c0,0,1.1-11.1,11.4-11.1C75.4,10.4,75.3,15.9,75.3,15.9z"/>
		<path class="st17" d="M65.5,24.4c0,0.8-0.4,1.4-0.8,1.4s-0.8-0.6-0.8-1.4s0.4-1.4,0.8-1.4S65.5,23.6,65.5,24.4z"/>
		<path class="st17" d="M73,24.4c0,0.8-0.4,1.4-0.8,1.4s-0.8-0.6-0.8-1.4s0.4-1.4,0.8-1.4S73,23.6,73,24.4z"/>
		<path class="st19" d="M61.7,21.6c0.8-1.2,2.4-1.8,3.8-1.3"/>
		<path class="st19" d="M70,20.2c1.1-1,2.7-0.9,3.7,0.2c0,0,0,0,0,0"/>
		<path class="st20" d="M68.3,22.3c0,0,0.9,2.3,1.7,3.7s-1.5,2-1.5,2"/>
		<path class="st20" d="M65.4,30.6c1.1,1,2.8,1.3,4.2,0.7"/>
		<path class="st20" d="M54.8,24.8c0,0,0-2.6-1.9-1.9"/>
		<path class="st17" d="M57.3,12.9c0,0,4.7,4.8,2.1,6.6c-1.7,1.2-2.8,2.9-3.3,4.9c-0.1-1-0.5-2-1.2-2.8
			C53.6,19.7,50.9,13.1,57.3,12.9z"/>
		<path class="st14" d="M98.8,90.8C102.2,93,128,65.5,128,65.5l-4.6-6c0,0-19.6,12.3-22.4,14.1C96.9,76.1,87.3,83.4,98.8,90.8z"/>
		<path class="st12" d="M39.3,232.9c0,0,3.9,6.3,1,7.4s-22.3,1.2-27.1,0.5s10.6-7.3,14.2-8.3S32.1,236.9,39.3,232.9z"/>
		<polygon class="st21" points="58.7,156.3 63.7,133.5 61.6,167.2 		"/>
		<path class="st22" d="M85,74.8c0,0,1.2-12.6,0.9-16.6c1,6.7,1.6,13.6,1.7,20.4L85,74.8z"/>
		<path class="st14" d="M41.4,70.5c0,0,6-25.9-0.4-25.6c0,0-2.1,0.2-6.2,6.7c-2.9,4.5-6.1,12.2-11.8,24.9c-2.7,6-6.1,14,0.2,14.5
			c3.4,0.2,7-1.6,9.1-5.6C36.2,78.2,41.4,70.5,41.4,70.5z"/>
		<path class="st22" d="M46.8,102.7L79.7,95C79.7,95,69.4,102.7,46.8,102.7z"/>
		<path class="st22" d="M38,75.7c0,0,5.3-9.4,8.1-14l-6.6,36C39.5,97.7,38.9,83,38,75.7z"/>
		<polygon class="st22" points="59.2,87.9 39.5,97.1 40.5,87.7 		"/>
		<path class="st23" d="M71.2,89h-6.9c-1.2,0-2.3-1-2.2-2.3c0-0.1,0-0.3,0-0.4l3.2-17.8c0.2-1.1,1.1-1.8,2.2-1.8h6.9
			c1.2,0,2.2,1,2.2,2.3c0,0.1,0,0.3,0,0.4l-3.2,17.7C73.2,88.2,72.3,89,71.2,89z"/>
		<path class="st24" d="M72.1,89.7h-6.9c-1.2,0-2.2-1.1-2.2-2.3c0-0.1,0-0.2,0-0.3l3.2-17.7c0.2-1.1,1.1-1.8,2.2-1.8h6.9
			c1.2,0,2.2,1,2.2,2.3c0,0.1,0,0.3,0,0.4l-3.2,17.7C74.1,89,73.2,89.7,72.1,89.7z"/>
		<path class="st23" d="M68.3,74.2h-1.2c-0.2,0-0.4-0.2-0.4-0.4c0,0,0-0.1,0-0.1l0.8-4.3c0-0.2,0.2-0.3,0.4-0.3h1.2
			c0.2,0,0.4,0.2,0.4,0.4c0,0,0,0.1,0,0.1l-0.8,4.3C68.7,74.1,68.5,74.2,68.3,74.2z"/>
		<path class="st13" d="M52.7,80.1c2-0.1,4-0.4,5.9-0.9c1.1-0.3,3.3-0.7,4-1.8s0.7-3.4,1.4-3.5c0.6-0.1,1.7,1.7,1.4,2.9
			c-0.1,0.8-0.4,1.7-0.8,2.4c-0.2,0.2,4.6,0.5,7.6-0.2c2.1-0.4,1.4,1.6,0,2.2c0.2,0.6-0.1,1.3-0.7,1.6c-0.1,0-0.2,0.1-0.3,0.1
			c0,0,0,1.7-1.4,1.7c-0.2,0.8-0.9,1.3-1.6,1.5c-2.3,0.5-4.7,0.6-7.1,0.3c-2.6,0.2-5.1,0.5-7.6,1L52.7,80.1z"/>
		<path class="st14" d="M23,91c4.8,0.8,33.4-2.4,33.4-2.4l-0.7-10c0,0-23.3,1.1-26.5,0.8C18.9,78.5,17,90,23,91z"/>
		<path class="st17" d="M58.4,5.4c0.4-0.5,1.1-0.9,1.7-1.1c0.7-0.1,1.5,0.6,1.2,1.2c2.4-1,4.8-1.8,7.3-2.3c0.6-0.2,1.3-0.2,1.9,0.1
			c0.6,0.2,0.8,0.9,0.6,1.5c0,0,0,0.1-0.1,0.1c1.3,0.3,2.6,0.3,3.9,0c1.3-0.1,2.8-0.1,3.7,0.9c0.7,1,1,2.2,0.8,3.4
			c0,1.7-0.2,3.3-0.5,4.9c-0.6,2.4-1.9,4.6-3.7,6.2c0.4-1.9-0.3-3.9-1.9-5.1c-1.6-1.1-3.5-1.8-5.4-1.9c-2.3-0.3-4.7-0.2-7,0.2
			c-1.7,0.3-4.2,1.5-5.9,0.7C51.3,12.6,56.9,6.9,58.4,5.4z"/>
	</g>
</g>
<path class="st3" d="M94.8,0h17.5c3.6,0,6.5,2.9,6.5,6.5v3.6c0,3.6-2.9,6.5-6.5,6.5H94.8c-3.6,0-6.5-2.9-6.5-6.5V6.5
	C88.3,2.9,91.2,0,94.8,0z"/>
<polygon class="st3" points="92.7,16 92.7,21.4 97.9,16 "/>
<circle class="st25" cx="95.3" cy="8.3" r="1.9"/>
<circle class="st25" cx="103.5" cy="8.3" r="1.9"/>
<circle class="st25" cx="111.8" cy="8.3" r="1.9"/>
<polygon class="st26" points="165.4,149.4 168.6,162.5 174.2,162.5 172.9,149.4 "/>
<path class="st27" d="M174.9,159.8c0,0,2.4,3.9,0.6,4.6s-13.9,0.8-16.9,0.3s6.6-4.5,8.8-5.2S170.4,162.3,174.9,159.8z"/>
<polygon class="st26" points="183.1,149.4 185.1,162.5 190.7,162.5 190.6,149.4 "/>
<path class="st28" d="M191.3,159.8c0,0,2.4,3.9,0.6,4.6s-13.9,0.8-16.9,0.3s6.6-4.5,8.8-5.2S186.8,162.3,191.3,159.8z"/>
<path class="st25" d="M192.6,85.7l-0.4,70.3h-8.9l-6.3-51.6l-7.2,21l5.4,30.7h-9.7c0,0-8.5-26.5-8.2-31.7
	c0.4-5.2,10.2-40.7,10.2-40.7L192.6,85.7z"/>
<polygon points="176.9,104.3 176,94.7 174.9,110.2 "/>
<line class="st29" x1="187.5" y1="84.8" x2="188.1" y2="155.9"/>
<path class="st26" d="M160.2,53.5c0,0-5.8,10.9-5.9,14.2s3.6,2.6,5.5-0.4s5-11.6,5-11.6L160.2,53.5z"/>
<path class="st30" d="M159.2,54.4c1.4,2.1,3.3,3.7,5.6,4.7c0.8,0.4,1.5-0.6,2-1.8c0.4-1,0.7-2,0.9-3c0,0,4.5-14,0.5-13.5
	c0,0-3.4,0.2-5.9,5.2c-1,2.1-1.8,4.2-2.5,6.3C159.6,53.1,159.4,53.8,159.2,54.4z"/>
<path class="st30" d="M159.2,54.4c1.4,2.1,3.3,3.7,5.6,4.7c0.8,0.4,1.5-0.6,2-1.8c-2.6-1.2-5-2.9-7-5
	C159.6,53.1,159.4,53.8,159.2,54.4z"/>
<path class="st31" d="M167.2,84.3c2.5,2.8,19.1,2.4,25.3,1.4c1.1-0.2,2.2-0.6,0.4-4.4c-0.6-1.4-0.4-5.1-0.3-10.2
	c0.2-10,3.2-26.6-0.5-28.5c-3.3-1.5-6.7-2.7-10.2-3.7l-0.6-0.2c-2-0.6-3.4-1-3.4-1c-1.7,0.3-3.4,0.7-5,1.2l-0.6,0.2
	c-0.9,0.3-1.8,0.6-2.9,0.9c-2.1,0.7-3.6,1.1-4,1.8c-1,1.8-0.6,5-0.7,9.7C165,57.4,165,81.8,167.2,84.3z"/>
<polygon class="st30" points="193.5,59.8 190,51 192.6,73.5 "/>
<path class="st30" d="M172.6,39.2c0.1,1.2,0.6,2.3,1.4,3.1c1.9,1.8,4.9,1.7,6.7-0.2c0.8-0.8,1.3-2,1.3-3.1l-0.6-0.2
	c-2-0.6-3.4-1-3.4-1c-1.7,0.3-3.4,0.7-5,1.2L172.6,39.2z"/>
<path class="st32" d="M182.9,21.1c0,0,2.1,0.2,3,3.8s-3.6,9.7-5.3,9.3C180.6,34.2,178.4,22.7,182.9,21.1z"/>
<path class="st17" d="M169.2,24.1c0.3,0.5,0.5,1,0.9,1.5c0.3,0.5,0.5,1,0.4,1.6c0.2-0.9,0.6-1.7,1.2-2.4c0.6-0.7,0.9-1.6,0.7-2.5
	c-0.2-0.8-1.8-2.2-2.7-1.6S168.8,23.2,169.2,24.1z"/>
<path class="st26" d="M173.1,28.8l0.4,7.9l0.1,2.2c0,0.9,0.4,1.8,1.1,2.4c1.4,1.4,3.7,1.3,5.1-0.1c0.7-0.7,1-1.6,1-2.6l-0.1-4
	l-0.2-6.7L173.1,28.8z"/>
<path class="st17" d="M173.1,30.4l0.4,7.4c3.5,0.1,6-1.3,7.2-3.2l-0.2-5.1L173.1,30.4z"/>
<path class="st26" d="M170.4,24.3c-0.1,1.8-0.1,3.6,0.1,5.4c0.4,3.3,0.3,7.2,5.1,7.4c5.2,0.3,6.9-5.5,6.9-5.5s2.8-0.5,2.9-2.4
	c0.1-0.8-0.4-1.6-1.2-1.7c-0.4-0.1-0.8,0-1.1,0.3c0,0-0.7-6.9-7.1-6.9C170.3,20.9,170.4,24.3,170.4,24.3z"/>
<path class="st17" d="M176.3,29.6c0,0.4,0.2,0.8,0.5,0.8s0.5-0.3,0.5-0.8s-0.2-0.8-0.5-0.8S176.3,29.1,176.3,29.6z"/>
<path class="st17" d="M171.4,29.2c0,0.4,0.2,0.8,0.5,0.8s0.5-0.3,0.5-0.8s-0.2-0.8-0.5-0.8S171.4,28.7,171.4,29.2z"/>
<path class="st33" d="M178.8,27.8c-0.5-0.8-1.5-1.1-2.4-0.8"/>
<path class="st33" d="M173.7,27c-0.7-0.6-1.7-0.6-2.3,0.1c0,0,0,0,0,0"/>
<path class="st33" d="M174.7,28.2c0,0-0.6,1.4-1,2.3s0.9,1.3,0.9,1.3"/>
<path class="st33" d="M176.6,33.4c-0.7,0.6-1.7,0.8-2.6,0.4"/>
<path class="st33" d="M183.1,29.8c0,0,0-1.6,1.2-1.2"/>
<path class="st32" d="M181.6,22.4c0,0-2.9,3-1.3,4.1c1,0.7,1.8,1.8,2.1,3.1c0.1-0.7,0.3-1.3,0.8-1.8
	C183.8,26.6,185.6,22.6,181.6,22.4z"/>
<path class="st32" d="M182.5,22.6c1-1.5,0.3-4.4-2.8-4.8s-5.1,0.2-6.3-1.9s-4.6-3.3-5.6-0.3s1.3,7.6,4.3,7.4s2.8-0.5,4.7,0.6
	S180.9,25.1,182.5,22.6z"/>
<path class="st26" d="M197.5,54.1c0,0,5.8,10.9,5.9,14.2s-3.6,2.6-5.5-0.4s-5-11.6-5-11.6L197.5,54.1z"/>
<path class="st26" d="M156.4,64l9.1-6.7c0.8-0.6,2-1.5,2.5-1.8c1.7-0.6,3.5-1,5.3-1.1c0.9,0.1,1.7,0.3,2.6,0.5
	c0.5,0.2-0.1,0.8-0.6,1c-1.3,0.7-2.7,1.3-4.1,1.6c-0.9,0.2-1.7,0.6-2.4,1.1c-0.5,0.4-9.6,9.6-9.9,9.8L156.4,64z"/>
<path class="st26" d="M167.1,56.2c0,0,3.2-3,3.7-3s0.1,0.7-1.1,1.8c-0.4,0.4-0.8,0.8-1.3,1.1C168,56.3,167.5,56.4,167.1,56.2z"/>
<path class="st23" d="M169.6,67.4l11.8,1.4c0.5,0.1,1-0.4,1.1-0.9c0-0.1,0-0.2,0-0.3l-2.8-10.8c-0.1-0.4-0.4-0.7-0.8-0.7L167,54.6
	c-0.6,0-1,0.4-1,1c0,0.1,0,0.2,0,0.3l2.8,10.8C168.9,67.1,169.2,67.4,169.6,67.4z"/>
<path class="st3" d="M169.1,67.8l11.8,1.4c0.5,0.1,1.1-0.3,1.1-0.9c0-0.1,0-0.2,0-0.4l-2.8-10.8c-0.1-0.4-0.4-0.7-0.8-0.7L166.6,55
	c-0.5-0.1-1,0.4-1.1,0.9c0,0.1,0,0.2,0,0.3l2.8,10.8C168.4,67.4,168.7,67.7,169.1,67.8z"/>
<path class="st23" d="M177.9,59.4l-0.6-2.1c0-0.2,0.1-0.3,0.2-0.4c0,0,0.1,0,0.1,0l0.6,0.1c0.1,0,0.2,0.1,0.3,0.2l0.6,2.1
	c0,0.2-0.1,0.3-0.2,0.4c0,0-0.1,0-0.1,0l-0.6-0.1C178,59.6,177.9,59.5,177.9,59.4z"/>
<path class="st26" d="M201.2,65.1c-3.6,0.1-14.9-0.1-16.3-0.6c-0.6-0.2-2.2-0.6-2.6-1.2s-0.8-1.6-1.2-1.7s-0.2,1-0.1,1.4
	c0.1,0.5,0.3,0.9,0.5,1.4c-1.5,0.3-3,0.4-4.4,0.1c-1.2-0.3-1,0.7-0.2,1c-0.2,0.4,0,0.9,0.4,1.1c0,0,0.1,0,0.1,0c0,0-0.1,0.9,0.7,1
	c0.2,0.4,0.6,0.7,1,0.8c1.4,0.2,2.7,0.3,4.1,0.3c0.8,0,16.1,2.4,18.8,1.8C203.2,70.2,202.4,65,201.2,65.1z"/>
<path class="st30" d="M190.9,55.6c0,0,0.3,1,0.7,2s1,2.3,1.6,2.2c0,0,7.9-2.5,7.7-3.3c-0.3-0.8-0.6-1.5-1-2.3
	c-1.3-2.7-3.4-6.3-4.2-7.7c-2.9-4.7-4.1-4.1-4.1-4.1C187.5,42.2,190.9,55.6,190.9,55.6z"/>
<path class="st30" d="M191.5,57.6c0.4,1.1,1,2.3,1.6,2.2c0,0,7.9-2.5,7.7-3.3c-0.3-0.8-0.6-1.5-1-2.3
	C197.1,55.5,194.3,56.6,191.5,57.6z"/>
<path class="st30" d="M189,79.8c0,0-13.2-2.1-20.3-6.3C174.2,78.4,181.6,80.7,189,79.8z"/>
</svg>
