<svg xmlns="http://www.w3.org/2000/svg" xmlns:xlink="http://www.w3.org/1999/xlink" viewBox="0 0 217.22 163.56"><defs><style>.cls-1{fill:none;}.cls-2{isolation:isolate;}.cls-17,.cls-3{fill:#46c7ce;}.cls-3{opacity:0.25;}.cls-4{opacity:0.8;}.cls-5{opacity:0.5;}.cls-6{fill:#ccd3e6;}.cls-7{fill:#363638;}.cls-8{fill:#eaeaea;mix-blend-mode:multiply;}.cls-9{fill:#fff;}.cls-10{fill:#575759;}.cls-11{fill:#fa5;}.cls-12{fill:#1b95f2;}.cls-13{fill:#cfdceb;}.cls-14{clip-path:url(#clip-path);}.cls-15{fill:#ff9c7d;}.cls-16{fill:#f36d66;}.cls-18{fill:#1ba5a5;}.cls-19{fill:#db7f2f;}.cls-20{fill:#ffaf3c;}.cls-21{fill:#e67779;}.cls-22{fill:#bf6179;}.cls-23{fill:#fb6260;}.cls-24{fill:#00b471;}.cls-25{fill:#007c56;}.cls-26{fill:#007af6;}.cls-27{fill:#0052c7;}.cls-28{fill:#cc1525;}</style><clipPath id="clip-path"><path class="cls-1" d="M92.69,70.12c-.38,1.17-.38,1.38-.38,1.17V37.76c0-.21,0-.18,0-24.46h75.41V70.12Z"/></clipPath></defs><g class="cls-2"><g id="Layer_2" data-name="Layer 2"><g id="Option_1" data-name="Option 1"><path class="cls-3" d="M109.58.89C171.19,6,196.43,28,196.43,28s38.55,24.14,10.68,76.6C184.93,146.36,115.38,176.26,84,158.18s-26.88-37.3-60.47-68.43S0,37,7.41,26.16C7.41,26.16,30.2-5.66,109.58.89Z"/><g class="cls-4"><g class="cls-5"><ellipse class="cls-6" cx="155.23" cy="41.28" rx="4.15" ry="4.47"/></g></g><rect class="cls-7" x="146.66" y="34.57" width="3.47" height="0.82" rx="0.36" transform="translate(18.73 115.18) rotate(-45)"/><rect class="cls-7" x="147.99" y="33.24" width="0.82" height="3.47" rx="0.36" transform="translate(18.73 115.18) rotate(-45)"/><ellipse class="cls-8" cx="131.57" cy="136.71" rx="74.31" ry="3.83"/><path class="cls-6" d="M181.9,126H171.6v10.71h12v-9A1.74,1.74,0,0,0,181.9,126Z"/><rect class="cls-6" x="116.51" y="103.04" width="35.75" height="22.95"/><path class="cls-9" d="M90.3,126h80a9.33,9.33,0,0,1,9.33,9.33v1.38a0,0,0,0,1,0,0H81a0,0,0,0,1,0,0v-1.38A9.33,9.33,0,0,1,90.3,126Z"/><rect class="cls-9" x="112.13" y="103.04" width="35.75" height="22.95"/><polygon class="cls-6" points="112.13 110.08 147.88 107.22 147.88 103.03 112.18 103.03 112.13 110.08"/><rect class="cls-6" x="49.14" y="3.49" width="162.18" height="99.55" rx="4.78"/><path class="cls-10" d="M211.32,8.27V91.61H196.56V3.49h10A4.77,4.77,0,0,1,211.32,8.27Z"/><path class="cls-9" d="M205.25,8.27v90a4.78,4.78,0,0,1-4.77,4.77H53.92a4.78,4.78,0,0,1-4.78-4.77v-90a4.78,4.78,0,0,1,4.78-4.78H201l.18,0,.12,0h.06l.12,0A4.78,4.78,0,0,1,205.25,8.27Z"/><path class="cls-7" d="M201.44,3.59l-.12,0h-.06l-.12,0-.18,0h-147a4.78,4.78,0,0,0-4.78,4.78V91.61H205.25V8.27A4.78,4.78,0,0,0,201.44,3.59Zm-2.38,79.7a1.3,1.3,0,0,1-1.3,1.29H56.64a1.3,1.3,0,0,1-1.3-1.29V11a1.3,1.3,0,0,1,1.3-1.3H197.76a1.3,1.3,0,0,1,1.3,1.3Z"/><rect class="cls-6" x="55.34" y="9.69" width="143.72" height="74.9" rx="1.3"/><path class="cls-9" d="M199.06,11v6.82H55.34V11a1.3,1.3,0,0,1,1.3-1.3H197.76A1.3,1.3,0,0,1,199.06,11Z"/><path class="cls-11" d="M187.93,13.64a1.11,1.11,0,1,1-1.11-1.11A1.11,1.11,0,0,1,187.93,13.64Z"/><circle class="cls-12" cx="190.4" cy="13.64" r="1.1"/><rect class="cls-13" x="67.89" y="12.47" width="114.34" height="2.34" rx="1.03"/><path d="M60.53,13.64v1.08a.2.2,0,0,1-.3.17l-.94-.54-.93-.54a.19.19,0,0,1,0-.34l.93-.54.94-.54a.2.2,0,0,1,.3.17Z"/><path d="M62.17,13.64v1.08a.2.2,0,0,0,.3.17l.93-.54.94-.54a.2.2,0,0,0,0-.34l-.94-.54-.93-.54a.2.2,0,0,0-.3.17Z"/><rect class="cls-9" x="71.58" y="19.46" width="110.85" height="62.22" rx="2.72"/><path class="cls-6" d="M103.67,51.29H79.36a.67.67,0,0,1-.67-.67h0a.67.67,0,0,1,.67-.68h24.31a.67.67,0,0,1,.67.68h0A.67.67,0,0,1,103.67,51.29Z"/><path class="cls-6" d="M103.67,45.58H79.36a.67.67,0,0,1-.67-.68h0a.67.67,0,0,1,.67-.67h24.31a.67.67,0,0,1,.67.67h0A.67.67,0,0,1,103.67,45.58Z"/><path class="cls-6" d="M103.67,57H79.36a.67.67,0,0,1-.67-.67h0a.68.68,0,0,1,.67-.68h24.31a.68.68,0,0,1,.67.68h0A.67.67,0,0,1,103.67,57Z"/><path class="cls-6" d="M178.34,51.29H154a.68.68,0,0,1-.68-.67h0a.68.68,0,0,1,.68-.68h24.3a.68.68,0,0,1,.68.68h0A.68.68,0,0,1,178.34,51.29Z"/><path class="cls-6" d="M178.34,45.58H154a.68.68,0,0,1-.68-.68h0a.68.68,0,0,1,.68-.67h24.3a.68.68,0,0,1,.68.67h0A.68.68,0,0,1,178.34,45.58Z"/><path class="cls-6" d="M178.34,57H154a.68.68,0,0,1-.68-.67h0a.69.69,0,0,1,.68-.68h24.3a.69.69,0,0,1,.68.68h0A.68.68,0,0,1,178.34,57Z"/><path class="cls-7" d="M71.58,72H182.43V81.1a.58.58,0,0,1-.58.58H72.16a.58.58,0,0,1-.58-.58Z"/><path class="cls-9" d="M171.54,75.59v-.81h1v-.73h-1.39a.36.36,0,0,0-.37.36v1.18Z"/><path class="cls-9" d="M171.54,77.05h-.73V78.3a.36.36,0,0,0,.37.36h1.39v-.73h-1Z"/><path class="cls-9" d="M174.7,75.59h.73V74.41a.37.37,0,0,0-.37-.36h-1.33v.73h1Z"/><path class="cls-9" d="M174.7,77.05v.88h-1v.73h1.33a.37.37,0,0,0,.37-.36V77.05Z"/><polygon class="cls-9" points="78.04 76.51 78.04 74.21 80.03 75.36 82.03 76.51 80.03 77.66 78.04 78.81 78.04 76.51"/><rect class="cls-9" x="88.21" y="74.44" width="1.24" height="4.19" rx="0.54"/><rect class="cls-9" x="90.79" y="74.44" width="1.24" height="4.19" rx="0.54"/><rect class="cls-6" x="71.58" y="70.2" width="110.85" height="1.82"/><rect class="cls-11" x="71.58" y="70.2" width="56.88" height="1.82"/><path class="cls-7" d="M164.7,63.13H166v2.74h1.68v1H164.7Z"/><path class="cls-7" d="M168,63.13h1.25v3.71H168Z"/><path class="cls-7" d="M173.79,63.13l-1.57,3.71H171l-1.57-3.71h1.35l.89,2.16.9-2.16Z"/><path class="cls-7" d="M177,65.89v1h-3.09V63.13h3v.94h-1.79v.43h1.57v.91h-1.57v.48Z"/><path class="cls-11" d="M162.64,65a1.53,1.53,0,1,1-1.52-1.52A1.53,1.53,0,0,1,162.64,65Z"/><path class="cls-7" d="M85.12,66c0,.85-.8,1.4-2,1.4s-2-.55-2-1.4a1.15,1.15,0,0,1,.59-1,1.06,1.06,0,0,1-.43-.86c0-.79.74-1.3,1.8-1.3s1.8.51,1.8,1.3a1.08,1.08,0,0,1-.43.86A1.16,1.16,0,0,1,85.12,66Zm-1.47,0a.48.48,0,0,0-1,0,.48.48,0,0,0,1,0Zm-.83-1.75a.35.35,0,1,0,.35-.37A.34.34,0,0,0,82.82,64.18Z"/><path class="cls-7" d="M85.39,65.1a2,2,0,0,1,2-2.28c1.15,0,2,.83,2,2.28a2,2,0,1,1-4,0Zm2.48,0c0-.84-.22-1.1-.5-1.1s-.5.26-.5,1.1.21,1.1.5,1.1S87.87,65.94,87.87,65.1Z"/><path class="cls-11" d="M78.66,63.88a1.34,1.34,0,1,1-1.34-1.34A1.34,1.34,0,0,1,78.66,63.88Z"/><path class="cls-11" d="M79.82,67.27h-5a2.6,2.6,0,0,1,2.47-1.6h.08A2.59,2.59,0,0,1,79.82,67.27Z"/><g class="cls-14"><path class="cls-15" d="M104.32,44.85s-.46,2.81-2.53,3.32c-1.68.4-3.25-1.21-3.8-1.84-.13-.15-.2-.25-.2-.25a1.65,1.65,0,0,1-.31,0A1.75,1.75,0,0,1,96,45.46c-.43-.76,1.14-1.28,1.14-1.28s-.8-.73-.6-1.25,1.28-.62,1.28-.62-1.17-.76-.77-1.42c.58-1,1.79.1,1.89.16-.08-.09-1.59-1.65-.76-1.93s1.9.56,2.69,1.37l.19.2.13-.09c.39-.26,1.59-1,2.35-.32C104.42,41.05,104.32,44.85,104.32,44.85Z"/><path class="cls-16" d="M102.16,46.58a.17.17,0,0,1-.17,0,.16.16,0,0,1,0-.22,1.5,1.5,0,0,0,.25-1.24c-.27-1.05-1.68-1.78-1.7-1.79a.16.16,0,0,1,.15-.29,3.87,3.87,0,0,1,1.87,2,1.8,1.8,0,0,1-.3,1.5Z"/><path class="cls-16" d="M100.72,42.52a.52.52,0,0,1-.23.45l-.11.05a1.91,1.91,0,0,1-.3.07.92.92,0,0,1,.21.17.46.46,0,0,1,.13.19.43.43,0,0,1-.07.42,2.11,2.11,0,0,1-1.37.55,1.8,1.8,0,0,1,.77.78.52.52,0,0,1-.07.5.89.89,0,0,1-.35.26,5.27,5.27,0,0,1-1.34.37c-.13-.15-.2-.25-.2-.25a2.26,2.26,0,0,1-.31,0,.12.12,0,0,1,.08,0,4,4,0,0,0,1.86-.56.18.18,0,0,0,0-.19,2,2,0,0,0-1.22-.86.16.16,0,0,1-.12-.18.16.16,0,0,1,.16-.14c.41,0,1.53-.06,1.83-.46,0-.06,0-.09,0-.11a.56.56,0,0,0-.25-.22,3.67,3.67,0,0,0-1-.37.19.19,0,0,1-.09,0,.16.16,0,0,1,0-.15.15.15,0,0,1,.19-.12l.33.09a3.87,3.87,0,0,0,.74,0,.78.78,0,0,0,.28-.08s.08-.07.08-.18a1.06,1.06,0,0,0-.18-.49.17.17,0,0,1,0-.19h0a.17.17,0,0,1,.27,0A1.5,1.5,0,0,1,100.72,42.52Z"/><path class="cls-7" d="M99.51,39.44a4.34,4.34,0,0,1,.77.56c.24.23.39.34.55.49,0,0,0,0,0,0L97.66,27.07a.16.16,0,0,0-.32.06l2.17,12.31Z"/><path class="cls-7" d="M102.26,46.89c-1.09.71-1.4.18-1.4.18l-.56-3.15,0-.05a.43.43,0,0,0,.07-.42.46.46,0,0,0-.13-.19.63.63,0,0,0-.12-.11l0-.07a1.28,1.28,0,0,0,.23-.06l.11-.05a.48.48,0,0,0,.2-.27.79.79,0,0,0,.49.22h.16Z"/><path class="cls-16" d="M103.22,42a5.67,5.67,0,0,1-1.08.72,1.83,1.83,0,0,1-1,.23.83.83,0,0,1-.59-.33,1.89,1.89,0,0,1,.24-2.1l.19.2.13-.09c-.27.4-.72,1.22-.3,1.79a.48.48,0,0,0,.37.2c.58.07,1.48-.6,1.78-.87a.16.16,0,0,1,.23,0A.17.17,0,0,1,103.22,42Z"/><path class="cls-17" d="M120.15,38.71h0v0l0,.1,0,.22c0,.07,0,.14,0,.22s0,.15,0,.23c-.07.3-.15.61-.23.93-.17.62-.35,1.25-.56,1.86s-.43,1.23-.68,1.83l-.39.89c-.13.3-.27.58-.41.87-.29.58-.59,1.14-.92,1.69-.07.14-.16.27-.24.4l-.25.4-.53.79c-.36.51-.75,1-1.14,1.48s-.82.93-1.26,1.36l-.33.32-.34.31-.17.15,0,0,0,0,0,0a.38.38,0,0,1,.13-.09,2,2,0,0,1,.61-.29l.14,0h.08l.06,0H114s0,0-.19-.06a3.76,3.76,0,0,1-.55-.29,6.94,6.94,0,0,1-.67-.44c-.47-.33-1-.73-1.46-1.15s-1-.88-1.47-1.35-1-1-1.47-1.45-1-1-1.45-1.53l-.72-.77-.68-.76-5.31,4,.17.26.17.25.34.49c.22.32.45.64.68,1q.7.94,1.44,1.86c.5.61,1,1.21,1.55,1.81.27.3.55.59.83.89l.87.87a24,24,0,0,0,2,1.71c.36.28.74.55,1.15.82a12,12,0,0,0,1.4.79,8.17,8.17,0,0,0,1.91.65l.14,0,.16,0,.31,0,.35,0h.73l.39,0,.2,0,.21,0,.42-.1a6,6,0,0,0,1.62-.75l.34-.26.09-.07.07-.06.07-.06.24-.21.48-.44.47-.45c.63-.6,1.21-1.25,1.77-1.9s1.07-1.35,1.55-2.06.93-1.43,1.35-2.17l.31-.56c.1-.18.19-.37.28-.56s.19-.38.28-.57l.27-.57a32.28,32.28,0,0,0,1.69-4.71c.21-.81.4-1.62.55-2.44.07-.41.14-.83.2-1.25a3.11,3.11,0,0,1,0-.32l0-.33,0-.34,0-.4Z"/><path class="cls-18" d="M103.48,47.76a.44.44,0,0,0,.49.41.46.46,0,1,0-.49-.41Z"/><path class="cls-18" d="M113,55.62a.2.2,0,0,0,.19-.14,14.76,14.76,0,0,0,.32-3.39.19.19,0,0,0-.2-.19.19.19,0,0,0-.19.2,14.36,14.36,0,0,1-.31,3.28.2.2,0,0,0,.15.24Z"/><path class="cls-18" d="M114.25,54.21l.08,0a.2.2,0,0,0,.09-.27,17.1,17.1,0,0,0-1-1.69.19.19,0,0,0-.27,0,.18.18,0,0,0,0,.27,18.42,18.42,0,0,1,.91,1.63A.19.19,0,0,0,114.25,54.21Z"/><path class="cls-18" d="M102.07,51.56a.2.2,0,0,0,.14-.06,55.3,55.3,0,0,1,5.37-4.39.19.19,0,0,0,0-.27.2.2,0,0,0-.28,0,54.73,54.73,0,0,0-5.42,4.42.2.2,0,0,0,0,.28A.2.2,0,0,0,102.07,51.56Z"/><path class="cls-18" d="M103.65,50.11a.19.19,0,0,0,.15-.32l-2-2.37a.21.21,0,0,0-.28,0,.2.2,0,0,0,0,.28l2,2.37A.19.19,0,0,0,103.65,50.11Z"/><path class="cls-7" d="M125,96.26l2.65-15.64.22-1.27-7.63-2.7-.44-.15L118,75.86s-.15.67-.38,1.82c0,.14,0,.28-.08.44a142.73,142.73,0,0,0-2.42,18.14Z"/><path class="cls-10" d="M123.63,96.26c1.14-6.23,2.62-15.35,2.7-15.88a.2.2,0,0,0-.17-.23.21.21,0,0,0-.24.17c0,.13-1.55,9.59-2.71,15.94Z"/><path class="cls-7" d="M140.41,70.87s.58,5.44-.66,8.48-17.28,1.47-21.37-1.26c-1.68-1.12,1.89-11.45,1.89-11.45Z"/><path class="cls-10" d="M117.51,78.12a5.71,5.71,0,0,0,.71-.19,4.25,4.25,0,0,0,1-.51,5.08,5.08,0,0,0,1-.77A9.77,9.77,0,0,0,122.53,72a.21.21,0,0,0-.16-.24.2.2,0,0,0-.24.17,9.56,9.56,0,0,1-2.35,4.53,5.17,5.17,0,0,1-.73.58,4.91,4.91,0,0,1-1,.48,3,3,0,0,1-.45.12C117.57,77.82,117.54,78,117.51,78.12Z"/><path class="cls-10" d="M127.41,79.64a.2.2,0,0,0,.19.21h0a.21.21,0,0,0,.22-.19c0-.75.08-1.51.13-2.27,0-.13,0-.27,0-.4.16-2.49.37-4.94.52-6.66,0-.14,0-.28,0-.41,0-.37.07-.71.09-1l-.4-.07c0,.28-.06.62-.1,1l0,.4c-.16,1.71-.36,4.13-.52,6.61l0,.41C127.49,78.08,127.44,78.87,127.41,79.64Z"/><path class="cls-10" d="M126.82,77a4.77,4.77,0,0,0,.72.28l.41.1.39,0a1.42,1.42,0,0,0,.69-.11.84.84,0,0,0,.47-.63c.15-.76.46-3.93.67-6.18,0-.14,0-.27,0-.4,0-.36.06-.69.09-1l-.41,0c0,.27-.06.61-.09,1,0,.13,0,.26,0,.4-.21,2.24-.52,5.4-.67,6.15a.45.45,0,0,1-.25.35,1.49,1.49,0,0,1-.87,0l-.4-.11c-.24-.08-.44-.17-.57-.22a.2.2,0,0,0-.27.09A.19.19,0,0,0,126.82,77Z"/><path class="cls-7" d="M138.42,96.26c.63-5.8,1.37-13.57,1.78-18.07,0-.14,0-.28,0-.41.18-2,.29-3.24.29-3.24-1-.41-2.76-.12-4.66.41l-.42.12a58.47,58.47,0,0,0-6.95,2.72V96.26Z"/><path class="cls-10" d="M137.45,96.26c.55-6.45,1.2-15.77,1.21-15.9a.21.21,0,0,0-.42,0c0,.12-.66,9.48-1.2,15.92Z"/><path class="cls-10" d="M134.32,72a10.51,10.51,0,0,0,1.13,3,6.67,6.67,0,0,0,2.12,2.35,4.76,4.76,0,0,0,2.63.77c0-.14,0-.28,0-.41a4.52,4.52,0,0,1-2.45-.7A6.19,6.19,0,0,1,135.87,75a10.25,10.25,0,0,1-1.15-3,.2.2,0,0,0-.24-.17A.2.2,0,0,0,134.32,72Z"/><path class="cls-17" d="M117.82,70.52c4.44,4.15,14.94,6.35,23,2.41.89-2.43,1.87-11.09,2.13-13.67.05-.52.09-1,.13-1.55a68.8,68.8,0,0,0,0-7.6l0-.43c-.1-2.15-.26-4.38-.41-6.75-.29-4.7-1.86-7.59-4.58-8a11.21,11.21,0,0,1-3-.9l-.26-.13a8.87,8.87,0,0,1-1.38-.85H127.4a4.76,4.76,0,0,1-1.89,1.58l-.24.11c-2.15.92-4.67.74-5.18,3.34-.33,1.63.92,5,.79,11.79,0,.49,0,1,0,1.55s-.06,1-.1,1.56-.08,1-.13,1.54-.1.94-.16,1.43-.13,1-.21,1.54C119.83,60.3,118.75,66.89,117.82,70.52Z"/><path class="cls-18" d="M138.61,71.94h0a.17.17,0,0,1-.13-.22,88.92,88.92,0,0,0,2.68-25,.18.18,0,1,1,.36,0,89.55,89.55,0,0,1-2.69,25.16A.18.18,0,0,1,138.61,71.94Z"/><path class="cls-18" d="M120.33,55.89a.19.19,0,0,0,.19-.17c.4-3.58.41-10.69.41-10.76a.19.19,0,0,0-.2-.19.19.19,0,0,0-.19.19c0,.07,0,7.16-.41,10.71a.2.2,0,0,0,.17.22Z"/><path class="cls-18" d="M128.64,69.35a.46.46,0,1,0,.91-.08.44.44,0,0,0-.49-.41A.45.45,0,0,0,128.64,69.35Z"/><path class="cls-19" d="M128.57,71.56a.45.45,0,0,0,.49.42.46.46,0,1,0-.08-.91A.44.44,0,0,0,128.57,71.56Z"/><path class="cls-18" d="M123.22,47.22c-1.19-1.39-.74-4.47-.72-4.6a.19.19,0,0,1,.19-.16h4a.2.2,0,0,1,.2.16c0,.13.46,3.21-.73,4.6a2,2,0,0,1-3,0Zm-.36-4.37c-.07.65-.27,3,.66,4.11a1.61,1.61,0,0,0,2.39,0c.92-1.07.73-3.46.65-4.11Z"/><path class="cls-7" d="M134,18.07c-1.13-.74-4.69-1.1-4.69-1.1a5.42,5.42,0,0,0-1.25-2c-1.5-1-1.68,1-1.68,1s-1.47-2.05-2.79-1.46S124,17,124,17s-2-.37-1.76,1.32a3.46,3.46,0,0,0,2.12,2.42,3.72,3.72,0,0,0-.29,2.49c.29,1.54.95,1.62.95,1.62l8.22.73a2.33,2.33,0,0,0,2.12-2.13,2.74,2.74,0,0,0-1-3S135.26,18.87,134,18.07Z"/><path class="cls-15" d="M127.3,32v1.54a6,6,0,0,0,.55.38c2.68,1.61,5.57-.38,5.57-.38V28.19L128,31.54Z"/><path class="cls-7" d="M127.3,32v1.59a6,6,0,0,0,.55.38,10.26,10.26,0,0,0,3.94-3.29l-3.76.91Z"/><path class="cls-17" d="M133.4,32a3,3,0,0,1,2.3,2.37c-1.75,1.83-3.31,3.43-5.82,3.89V34.54A6.45,6.45,0,0,0,133.4,32Z"/><path class="cls-17" d="M127.25,32.5A3.34,3.34,0,0,0,125,34.91c1.63,2,2.49,2.72,4.87,3.32V34.54S128.55,34.52,127.25,32.5Z"/><polygon class="cls-7" points="126.34 61.19 127.38 63.7 127.38 63.7 127.85 64.84 129.18 68.03 129.82 66.8 130.04 66.36 130.56 65.37 130.78 64.94 131.29 63.95 131.52 63.51 132.03 62.52 132.03 62.52 132.26 62.08 132.74 61.15 132.73 61.05 132.66 60.31 132.49 58.64 132.41 57.9 132.24 56.22 132.17 55.49 132 53.81 131.92 53.07 131.75 51.4 131.68 50.66 131.5 48.99 131.43 48.25 131.26 46.58 131.18 45.84 131.01 44.16 130.94 43.42 130.77 41.75 130.69 41.01 130.52 39.28 129.24 39.23 129.2 39.52 129.12 40.11 128.95 41.43 128.87 42.02 128.69 43.35 128.62 43.93 128.44 45.26 128.37 45.85 128.19 47.18 128.11 47.76 127.94 49.09 127.86 49.68 127.69 51 127.61 51.59 127.43 52.92 127.36 53.51 127.18 54.83 127.1 55.42 126.93 56.75 126.85 57.33 126.67 58.66 126.6 59.25 126.42 60.58 126.34 61.16 126.34 61.19"/><polygon class="cls-10" points="129.12 40.11 130.77 41.75 130.69 41.01 129.2 39.52 129.12 40.11"/><polygon class="cls-10" points="128.87 42.02 131.01 44.16 130.94 43.42 128.95 41.43 128.87 42.02"/><polygon class="cls-10" points="128.62 43.93 131.26 46.58 131.18 45.84 128.69 43.35 128.62 43.93"/><polygon class="cls-10" points="128.37 45.85 131.5 48.99 131.43 48.25 128.44 45.26 128.37 45.85"/><polygon class="cls-10" points="128.11 47.76 131.75 51.4 131.68 50.66 128.19 47.18 128.11 47.76"/><polygon class="cls-10" points="127.86 49.68 132 53.81 131.92 53.07 127.94 49.09 127.86 49.68"/><polygon class="cls-10" points="127.61 51.59 132.24 56.22 132.17 55.49 127.69 51 127.61 51.59"/><polygon class="cls-10" points="127.36 53.51 132.49 58.64 132.41 57.9 127.43 52.92 127.36 53.51"/><polygon class="cls-10" points="127.1 55.42 132.73 61.05 132.66 60.31 127.18 54.83 127.1 55.42"/><polygon class="cls-10" points="126.85 57.33 132.03 62.52 132.26 62.08 126.93 56.75 126.85 57.33"/><polygon class="cls-10" points="126.6 59.25 131.29 63.95 131.52 63.51 126.67 58.66 126.6 59.25"/><polygon class="cls-10" points="126.34 61.16 130.56 65.37 130.78 64.94 126.42 60.58 126.34 61.16"/><polygon class="cls-10" points="127.38 63.7 127.85 64.84 129.82 66.8 130.04 66.36 127.38 63.7"/><polygon class="cls-10" points="130.52 39.28 129.88 40.23 129.24 39.23 129.13 40.08 129.87 40.84 130.58 39.94 130.52 39.28"/><polygon class="cls-7" points="131.59 37.69 129.88 40.23 128.25 37.69 129.88 35.58 131.59 37.69"/><path class="cls-18" d="M132.58,39.43a.21.21,0,0,0,.12,0c1.69-1.34,3.13-4.82,3.19-5a.2.2,0,0,0-.37-.15A15.81,15.81,0,0,1,132.61,39L130,35.46a.19.19,0,0,0-.16-.08.21.21,0,0,0-.16.08l-2.39,3.4c-.37-.66-1.33-2.41-2.14-4a.21.21,0,0,0-.26-.09.2.2,0,0,0-.09.27c1,2,2.29,4.31,2.3,4.33a.19.19,0,0,0,.33,0l2.42-3.43,2.53,3.44a.22.22,0,0,0,.13.08Z"/><path class="cls-19" d="M129.88,35.77a.2.2,0,0,0,.2-.2V34.7a.19.19,0,0,0-.2-.19.19.19,0,0,0-.19.19v.87A.2.2,0,0,0,129.88,35.77Z"/><path class="cls-16" d="M125.38,25.16s-.88-1-1.37,0-.12,3.13,1.21,2.79Z"/><path class="cls-15" d="M124.44,28.79A3.15,3.15,0,0,0,127.76,32a8.17,8.17,0,0,0,5.65-2.71h0l0-.67.19-3.48.1-1.85s.42-3.35-2.76-4c-2.32-.45-4.5-.06-5.6,1.15l-.11.12a2.93,2.93,0,0,0-.62,1.56l-.1,3.34,0,.82Z"/><path class="cls-7" d="M128.25,23.06s1.39,1,2.22.38-1.1-1.38-1.73-1.33S127.84,22.83,128.25,23.06Z"/><path class="cls-7" d="M126.74,23.06s-1.4,1-2.22.38,1.1-1.38,1.73-1.33S127.15,22.83,126.74,23.06Z"/><path class="cls-16" d="M127.83,29.21a1.41,1.41,0,0,0,1-.31.14.14,0,0,0,0-.2.15.15,0,0,0-.21,0,1,1,0,0,1-1,.16.15.15,0,0,0-.19.07.15.15,0,0,0,.07.2A1.13,1.13,0,0,0,127.83,29.21Z"/><path class="cls-9" d="M129.27,26.93a15,15,0,0,1-3.05.32,1.55,1.55,0,0,0,3.05-.32Z"/><path class="cls-7" d="M125.27,20.56c.52-.18.9,0,1.71.34a4.31,4.31,0,0,0,3.64-.54c1.16-.59,1.86.23,1.46.78s-.35,1,.09,1.66-.83,1-.13,1.55a.74.74,0,0,1,.16.89.47.47,0,0,0,.53.63h0c.38-.1.91-.77.91-.77l.1-1.85s.42-3.35-2.76-4c-2.32-.45-4.5-.06-5.6,1.15Z"/><path class="cls-16" d="M128.87,25.87c0,.23.48.42,1.07.42s1.07-.19,1.07-.42-.48-.42-1.07-.42S128.87,25.64,128.87,25.87Z"/><path class="cls-16" d="M124.52,26.28h.26c.59,0,1.07-.19,1.07-.42s-.48-.42-1.07-.42h-.23Z"/><path class="cls-7" d="M128.41,24.59c0,.32.14.58.32.58s.33-.26.33-.58-.15-.58-.33-.58S128.41,24.27,128.41,24.59Z"/><path class="cls-7" d="M125.2,24.59c0,.32.15.58.33.58s.32-.26.32-.58-.14-.58-.32-.58S125.2,24.27,125.2,24.59Z"/><path class="cls-7" d="M132.38,28a2.86,2.86,0,0,0,1,1.3h0l0-.67A2.28,2.28,0,0,1,132.38,28Z"/><path class="cls-15" d="M133,25.75s1.28-1.71,2.21-.37c.77,1.11-.69,4-2.21,3Z"/><path class="cls-7" d="M133.13,27.87a.13.13,0,0,0,.14-.11A2.18,2.18,0,0,1,134.54,26a.13.13,0,0,0-.1-.24,2.45,2.45,0,0,0-1.44,2,.13.13,0,0,0,.12.14Z"/><path class="cls-7" d="M134.36,27.08a.12.12,0,0,0,.1,0,.12.12,0,0,0,0-.18,1.22,1.22,0,0,0-.91-.32.13.13,0,0,0,.06.26c.23-.06.57.17.69.26A.11.11,0,0,0,134.36,27.08Z"/><path class="cls-7" d="M127.37,26.2a.13.13,0,0,0,.14-.13.14.14,0,0,0-.14-.14.91.91,0,0,1-.78-.36c.52-1.08,1-2.17,1-2.18a.13.13,0,0,0-.24-.11s-.54,1.14-1.08,2.24a.2.2,0,0,0,0,.11A1.14,1.14,0,0,0,127.37,26.2Z"/><path class="cls-15" d="M159.11,38s1.77,1.78,3.51,1.09c1.41-.56,1.72-2.52,1.79-3.25,0-.18,0-.28,0-.28l.23-.15c.31-.23.82-.69.76-1.23-.08-.77-1.47-.34-1.47-.34s.21-.93-.2-1.2-1.24.2-1.24.2.45-1.14-.17-1.41c-.93-.41-1.23,1-1.27,1.08,0-.1.45-4.39-.29-4.17s-1.23,3.77-1.38,4.75c0,.15,0,.24,0,.24h-.14c-.41,0-1.63.13-1.85,1C157.1,35.35,159.11,38,159.11,38Z"/><path class="cls-16" d="M162.73,35a1.54,1.54,0,0,0-.16.95.47.47,0,0,0,.31.33.81.81,0,0,0,.38,0,4.47,4.47,0,0,0,1.15-.41c0-.18,0-.28,0-.28l.23-.15a.11.11,0,0,0-.08,0A3.56,3.56,0,0,1,163,36a.18.18,0,0,1-.11-.13,1.75,1.75,0,0,1,.44-1.23.15.15,0,0,0,0-.2.17.17,0,0,0-.2,0c-.29.22-1.12.74-1.54.61-.06,0-.07-.05-.07-.07a.51.51,0,0,1,.06-.29,4.21,4.21,0,0,1,.51-.76.12.12,0,0,0,0-.08.15.15,0,0,0-.05-.12.14.14,0,0,0-.2,0,4,4,0,0,0-.53.76,1.27,1.27,0,0,0-.12.36.44.44,0,0,0,0,.2.35.35,0,0,0,.26.26A1.85,1.85,0,0,0,162.73,35Z"/><path class="cls-16" d="M160.51,33.77a.16.16,0,0,1,.11.12.86.86,0,0,0,.12.45.18.18,0,0,0,.15.09.72.72,0,0,0,.24-.09,4.2,4.2,0,0,0,.77-.64.16.16,0,0,1,0,.08,3.26,3.26,0,0,0-.51.76l-.09.05a1.12,1.12,0,0,1-.26.11l-.11,0a.47.47,0,0,1-.39-.21,1.06,1.06,0,0,1-.18-.59.14.14,0,0,1,.18-.15Z"/><path class="cls-16" d="M158.44,35.39a4.47,4.47,0,0,0,1.14,0,1.6,1.6,0,0,0,.8-.32.74.74,0,0,0,.26-.55c0-.76-.77-1.19-1.24-1.38,0,.15,0,.24,0,.24h-.14c.4.15,1.14.52,1.13,1.14a.44.44,0,0,1-.16.33,2.8,2.8,0,0,1-1.72.28.15.15,0,0,0-.16.13A.15.15,0,0,0,158.44,35.39Z"/><path class="cls-16" d="M161.55,38.16a.14.14,0,0,0,0-.28,1.29,1.29,0,0,1-.8-.76,3.14,3.14,0,0,1,.3-2.15.14.14,0,0,0-.06-.19.15.15,0,0,0-.2.06,3.45,3.45,0,0,0-.32,2.39,1.6,1.6,0,0,0,1,.92Z"/><path class="cls-17" d="M140.05,35.94l3,2.62,1.46,1.34L146,41.23l1.45,1.3c.49.42,1,.84,1.46,1.24s1,.79,1.4,1.12c.22.17.44.32.61.43l.12.08,0,0h0l0,0s0,0,0,.05.06,0,.15,0a2.52,2.52,0,0,0,.84-.33,7,7,0,0,0,1.16-.87q.6-.54,1.2-1.2a29.64,29.64,0,0,0,2.25-2.9c.71-1,1.22-1.83,1.87-2.93A4.86,4.86,0,0,0,163,39a41.23,41.23,0,0,1-1.7,3.93,30.94,30.94,0,0,1-2.24,3.8,18.76,18.76,0,0,1-1.46,1.85,13.49,13.49,0,0,1-1.89,1.77,9.67,9.67,0,0,1-1.23.8,7.89,7.89,0,0,1-1.53.63,6.68,6.68,0,0,1-3.8.05,7.94,7.94,0,0,1-.9-.32l-.21-.1-.18-.08-.17-.09-.16-.08c-.4-.22-.75-.44-1.09-.65-.66-.42-1.26-.84-1.85-1.27s-1.14-.85-1.69-1.28-1.1-.87-1.63-1.31l-1.58-1.33L138.17,44c-.52-.46-1-.91-1.53-1.38l-.75-.7-.38-.35-.38-.37Z"/><path class="cls-18" d="M142.93,48.32a.19.19,0,0,1-.1,0c-2-1.4-5.54-4.33-5.57-4.36a.19.19,0,0,1,0-.26.18.18,0,0,1,.26,0s3.57,3,5.55,4.34a.19.19,0,0,1,0,.26A.17.17,0,0,1,142.93,48.32Z"/><path class="cls-18" d="M138.81,45.14h0l-1.41-.2a.18.18,0,0,1-.15-.21.17.17,0,0,1,.2-.15l1.41.2A.18.18,0,0,1,139,45,.17.17,0,0,1,138.81,45.14Z"/><path class="cls-18" d="M162.05,41.28a.19.19,0,0,0,.09-.21.18.18,0,0,0-.22-.14,3.75,3.75,0,0,1-4-2,.19.19,0,0,0-.25-.08h0a.19.19,0,0,0-.08.25A4.13,4.13,0,0,0,162,41.29Z"/><path class="cls-18" d="M160.69,41.33a.21.21,0,0,0,.08-.1l.87-2a.18.18,0,0,0-.09-.24.19.19,0,0,0-.25.1l-.87,2a.18.18,0,0,0,.1.24A.22.22,0,0,0,160.69,41.33Z"/><path class="cls-18" d="M159.13,39.37a.32.32,0,1,0,.14-.43A.32.32,0,0,0,159.13,39.37Z"/><path class="cls-18" d="M150.74,47.82a.21.21,0,0,0,.1-.14,7.54,7.54,0,0,1,.54-1.84.19.19,0,0,0-.08-.25.18.18,0,0,0-.25.08,8.45,8.45,0,0,0-.58,1.95.18.18,0,0,0,.15.21A.25.25,0,0,0,150.74,47.82Z"/><path class="cls-18" d="M151.94,47.4l0,0a.2.2,0,0,0,0-.26,3.46,3.46,0,0,1-.65-1.24.17.17,0,0,0-.21-.14A.19.19,0,0,0,151,46a3.7,3.7,0,0,0,.72,1.39A.19.19,0,0,0,151.94,47.4Z"/></g><ellipse class="cls-8" cx="49.21" cy="151.88" rx="46.62" ry="2.84"/><path class="cls-15" d="M46.3,72.91,51,90.13l-1.68-1.94a8.44,8.44,0,0,0,2.14.76,14.78,14.78,0,0,0,2.57.33c.91,0,1.86,0,2.83,0s2-.11,3-.2h0a2.69,2.69,0,0,1,.66,5.34c-1,.17-2.09.32-3.17.45s-2.19.22-3.34.24a20.7,20.7,0,0,1-3.56-.19,14.65,14.65,0,0,1-3.74-1,2.91,2.91,0,0,1-1.62-1.75L45,92,39.35,75a3.64,3.64,0,0,1,6.9-2.3A1.46,1.46,0,0,1,46.3,72.91Z"/><path class="cls-6" d="M48.12,135.33l-.21,0-24.68-8.9a.62.62,0,1,1,.43-1.17l24.67,8.89a.62.62,0,0,1-.21,1.21Z"/><path class="cls-6" d="M22.42,135.33a.62.62,0,0,1-.21-1.2l25-9a.63.63,0,0,1,.8.38.61.61,0,0,1-.37.79l-25,9.05Z"/><path class="cls-6" d="M50.31,151.23a1.06,1.06,0,0,1-1.05-.92L44.8,117H26.15L21.77,150.3a1.07,1.07,0,0,1-2.12-.28l4.51-34.19a1.07,1.07,0,0,1,1.06-.93H45.73a1.07,1.07,0,0,1,1.06.93L51.37,150a1.06,1.06,0,0,1-.92,1.2Z"/><path class="cls-6" d="M39.79,116H26.47c-4.22,0-8.74-2.31-9.39-6.48a79.07,79.07,0,0,1-.84-15.94A19.37,19.37,0,0,1,23.6,79.26h0s2.66,11.59-.69,27.6C24.19,112.94,39.79,116,39.79,116Z"/><path class="cls-7" d="M37,48a5.3,5.3,0,0,0-5.77-3.1c-2.93.5-4.18,4.15-4,9.79.25,8.21-2.52,13.15-2.52,13.15l3.68.84S37.77,54.56,37,48Z"/><path class="cls-7" d="M70.61,137h-6s-1.37-6.6-1.84-10.31-.7-12.48-.7-12.48-4.74,1.54-14.67,1c-22-1.29-13.65-17.45-13.65-17.45.74,1,5.29.32,8.4.81,9.55.92,17.83,4.66,22.81,6.81A23.67,23.67,0,0,1,68.2,107c1.2.73,2,3,2.4,5.92C72,121.73,70.61,137,70.61,137Z"/><path class="cls-10" d="M65.4,133.79a.21.21,0,0,1-.21-.17,103.89,103.89,0,0,1-1.38-13.79c-.19-3.52-.37-6.85-.82-7.25s-1.89-.07-3.82.25c-3.83.64-9.62,1.6-16,.11a11.61,11.61,0,0,1-7.61-5c-2.7-4.36-1.47-9.75-1.45-9.81a.21.21,0,1,1,.41.1c0,.05-1.2,5.28,1.41,9.48a11.16,11.16,0,0,0,7.33,4.84c6.31,1.46,12,.51,15.85-.12,2.28-.38,3.65-.61,4.17-.15s.72,2.93,1,7.55a102.51,102.51,0,0,0,1.37,13.72.21.21,0,0,1-.17.25Z"/><path class="cls-10" d="M70.73,133.9h0l-6.61-.14a.21.21,0,0,1-.21-.22.21.21,0,0,1,.21-.21l6.62.15a.21.21,0,0,1,0,.42Z"/><polygon class="cls-15" points="70.45 144.6 66.25 144.6 65.44 139.67 65 136.97 70.22 136.97 70.3 139.67 70.45 144.6"/><polygon class="cls-20" points="70.45 144.6 66.25 144.6 65.65 140.93 65.44 139.67 70.3 139.67 70.34 140.97 70.45 144.6"/><polygon class="cls-19" points="70.34 140.97 65.65 140.93 65.44 139.67 70.3 139.67 70.34 140.97"/><path class="cls-21" d="M80.81,151.23H64.93a2.28,2.28,0,0,1-.21-.88,25.72,25.72,0,0,1,.54-4.84c0-.16,0-.31.06-.44a4.79,4.79,0,0,0,.05-.55.81.81,0,0,1,1-.92c1.6,1.58,3.42-.79,4.49,0l.14.11.41.33,1.17,1c1.26,1.14,3.4,1.89,5.23,2.65.23.1.45.19.65.29l.43.22c1.49.81,2,1.58,2.07,2.14A1.21,1.21,0,0,1,80.81,151.23Z"/><path class="cls-22" d="M78.87,148.21a4,4,0,0,1-2.05,1h-.1a20,20,0,0,1-4-1.82c-.88-.48-1.68-1-2.26-1.34-1-.63-1.12-.87-1.16-1-.14-.63.9-1.07,1.63-1.29l.41.33c-.9.25-1.64.64-1.61.86A13.72,13.72,0,0,0,73.06,147a20.16,20.16,0,0,0,3.7,1.73,3.18,3.18,0,0,0,1.68-.76Z"/><path class="cls-22" d="M80.81,151.23H64.93a2.28,2.28,0,0,1-.21-.88H80.94A1.21,1.21,0,0,1,80.81,151.23Z"/><path class="cls-22" d="M66.55,151.23h-.47a3.47,3.47,0,0,0,.85-2.54,4.51,4.51,0,0,0-1.67-3.18c0-.16,0-.31.06-.44a4.85,4.85,0,0,1,2,3.6A3.93,3.93,0,0,1,66.55,151.23Z"/><path class="cls-9" d="M72.29,146a.27.27,0,0,1-.26-.2.27.27,0,0,1,.19-.32l1-.24a.26.26,0,1,1,.12.5l-1,.25Z"/><path class="cls-9" d="M71.3,145.16a.26.26,0,0,1-.25-.2.25.25,0,0,1,.19-.31l1-.25a.26.26,0,1,1,.13.51l-1,.24Z"/><path class="cls-9" d="M73.28,146.57a.25.25,0,0,1-.25-.2.26.26,0,0,1,.19-.32l1-.25a.26.26,0,1,1,.12.51l-1,.25Z"/><path class="cls-9" d="M74.27,147.12a.26.26,0,0,1-.25-.2.26.26,0,0,1,.19-.32l1-.24a.26.26,0,0,1,.32.19.27.27,0,0,1-.19.32l-1,.24Z"/><path class="cls-9" d="M75.35,147.63a.26.26,0,0,1-.25-.2.25.25,0,0,1,.19-.31l1-.25a.27.27,0,0,1,.32.19.27.27,0,0,1-.19.32l-1,.25Z"/><path class="cls-9" d="M76.53,148.07a.27.27,0,0,1-.26-.2.27.27,0,0,1,.19-.32l1-.24a.25.25,0,0,1,.31.19.26.26,0,0,1-.19.32l-1,.24Z"/><path class="cls-22" d="M22.78,92.57s-.19,1.28,1.53,1.65l17.93.59a2,2,0,0,0,1-2.11S35.66,88.45,22.78,92.57Z"/><path class="cls-15" d="M42.48,98.5c-9.3,5.12-19.46,1-19.46,1a27.29,27.29,0,0,0,1.13-4.28c.31-1.62.49-3,.57-3.8,4-.22,13.65-.63,17.45.27l0,1.53Z"/><path class="cls-16" d="M35.61,96c-.07.48-.29.85-.48.82s-.31-.44-.24-.92.29-.84.48-.82S35.68,95.57,35.61,96Z"/><path class="cls-16" d="M42.2,93.22c-4-.24-11.75-.33-18.05,2,.31-1.62.49-3,.57-3.8,4-.22,13.65-.63,17.45.27Z"/><path class="cls-21" d="M46.62,85.86a1.79,1.79,0,0,1-.13.32l-.06.11a8.87,8.87,0,0,1-1.91,2.3l-.39.32-.58.44-.2.14v0a1.5,1.5,0,0,0,0,.22c0,.29,0,.64-.06,1s0,.67,0,1,0,.57,0,.87c-5.26-2.34-16.09-.86-20.45-.13.08-.38.16-.74.22-1.1A34.62,34.62,0,0,0,23.55,87a47,47,0,0,0-.49-8.09L23,78.26l-.06-.39c-.15-1-.32-2-.52-2.89-.86-4.13-.25-8.46,3.93-9l.89-.1c2-.21,3.6-.28,4.05-.3h.12L39.47,68l.77.23,1.23.41.46.17c.4.15.75.29,1.07.43a9.21,9.21,0,0,1,1.57.86c1.77,1.26,1.5,2.68,1.45,5.49v.54c0,.36,0,.72,0,1.08,0,.53.08,1.06.13,1.58,0,.21.05.41.07.62s.05.38.08.57C46.66,82.39,47.06,84.54,46.62,85.86Z"/><path class="cls-22" d="M39.47,68a3.27,3.27,0,0,1-3.28,1.36c-2.61-.19-4.33-2.68-4.93-3.7h.12Z"/><path class="cls-9" d="M36.69,72.57l.23,0A2,2,0,0,0,38.66,72c1.26-1.38.74-4.5.72-4.64a.2.2,0,0,0-.23-.15.18.18,0,0,0-.15.22s.5,3.07-.63,4.3a1.6,1.6,0,0,1-1.42.5c-2.53-.2-5.36-6.63-5.39-6.69a.19.19,0,0,0-.26-.1.2.2,0,0,0-.1.25C31.32,66,34,72,36.69,72.57Z"/><path class="cls-15" d="M44.57,70.05a14,14,0,0,0,1.49,7.11c0-.47,0-1,0-1.43v-.19C46.07,72.73,46.34,71.31,44.57,70.05Z"/><path class="cls-15" d="M29.7,73.31c-.93,3.58-4.32,6.45-6.64,5.56L23,78.26l-.06-.39c-.15-1-.32-2-.52-2.89-.86-4.13-.25-8.46,3.93-9l.89-.1C29.31,66.8,30.77,69.19,29.7,73.31Z"/><path class="cls-15" d="M30.17,70.58l5.44,19.88-1.94-2.24a9.71,9.71,0,0,0,2.47.88,17.08,17.08,0,0,0,3,.38,32.22,32.22,0,0,0,3.26,0c1.11,0,2.26-.13,3.41-.23h0a3.11,3.11,0,0,1,.75,6.17c-1.19.19-2.41.37-3.65.51s-2.53.25-3.85.28A25.09,25.09,0,0,1,34.93,96a17.14,17.14,0,0,1-4.32-1.2,3.38,3.38,0,0,1-1.87-2l-.07-.21L22.15,73a4.2,4.2,0,1,1,8-2.66A1.8,1.8,0,0,1,30.17,70.58Z"/><path class="cls-16" d="M32.61,89.82a.16.16,0,0,1-.14-.08.15.15,0,0,1,.06-.22,6.81,6.81,0,0,1,2.48-.8.16.16,0,0,1,.17.15A.15.15,0,0,1,35,89a6.37,6.37,0,0,0-2.34.76Z"/><path class="cls-16" d="M34.58,89.1l-.08,0a4.39,4.39,0,0,0-1.67-.53.16.16,0,0,1-.15-.17.17.17,0,0,1,.18-.15,4.76,4.76,0,0,1,1.81.57.16.16,0,0,1,0,.22A.16.16,0,0,1,34.58,89.1Z"/><path class="cls-7" d="M35.65,63a6.73,6.73,0,0,1-4.95-4.63,8.83,8.83,0,0,1,.84-7.63,6.49,6.49,0,0,1,7-2.82c3.65.74,6.37,2.61,6.78,5.61C46.06,59.11,41.54,66,35.65,63Z"/><path class="cls-20" d="M30.88,59a.19.19,0,0,1-.17-.1A8.7,8.7,0,0,1,30.36,52a6.3,6.3,0,0,1,3.75-4,6.42,6.42,0,0,1,2.52-.46.2.2,0,1,1,0,.4h0a6.42,6.42,0,0,0-2.37.44,5.85,5.85,0,0,0-3.5,3.71,8.48,8.48,0,0,0,.32,6.55.21.21,0,0,1-.08.28A.16.16,0,0,1,30.88,59Z"/><path class="cls-16" d="M43.13,59s1.26-1,1.59.32-.6,3.65-2.06,2.94Z"/><path class="cls-20" d="M41.91,61.43a2,2,0,0,0-1.32,1.45,1.89,1.89,0,1,0,2.92-1.19,1.78,1.78,0,0,0-.69-.29h0a.33.33,0,0,0,.05.31,1.54,1.54,0,0,1,.56.27,1.6,1.6,0,1,1-2.53,1,1.56,1.56,0,0,1,1.18-1.21Z"/><path class="cls-15" d="M39.33,64.64l-.53,3.29s-2.46,2.52-7-2c1.21-.9,1.67-3,1.53-4.33a6.07,6.07,0,0,1,.9.7,2.84,2.84,0,0,0,.38.27A11.73,11.73,0,0,0,39.33,64.64Z"/><path class="cls-7" d="M39.33,64.64l-.25,1.56c-1.35-.6-3.73-1.88-4.81-3.89l.38.27A11.73,11.73,0,0,0,39.33,64.64Z"/><path class="cls-15" d="M44.35,58.22c-.07.35-.14.68-.2,1s-.14.66-.21,1c-.49,2.28-.91,3.5-1.57,4-3.36,2.3-8.82-2.37-9-2.52h0v-.8a20.47,20.47,0,0,1,1-6,4.63,4.63,0,0,1,3.86-3.92c2.08-.32,3.64.89,4.62,1.42C44.35,53.09,44.93,55.32,44.35,58.22Z"/><path class="cls-7" d="M34.5,52.71s2.35-4.51,7-3.25,4.93,3.43,5,4.52-2.43-.84-2.43-.84-.09,2.18-.92,1.51A13.49,13.49,0,0,1,41,52.05s-2.79,2.74-5.44,2C34.08,53.63,34.5,52.71,34.5,52.71Z"/><path class="cls-16" d="M40.26,62.66a1.53,1.53,0,0,1-1-.45.16.16,0,0,1,0-.23.15.15,0,0,1,.23,0,1.17,1.17,0,0,0,1.15.28.17.17,0,0,1,.21.11.16.16,0,0,1-.11.21A1.41,1.41,0,0,1,40.26,62.66Z"/><path class="cls-9" d="M38.86,59.92a17.1,17.1,0,0,0,3.43.67,1.76,1.76,0,0,1-3.43-.67Z"/><path class="cls-7" d="M43.05,55.22s-.59-.06-.49.5,1.37.23,2,1.37C44.56,57.09,45.17,55.89,43.05,55.22Z"/><path class="cls-7" d="M40.44,54.69s.57.17.26.66-1.35-.33-2.37.47C38.33,55.82,38.23,54.49,40.44,54.69Z"/><path class="cls-16" d="M39.42,58.77c-.05.26-.65.37-1.33.23s-1.19-.47-1.14-.74.65-.37,1.34-.23S39.48,58.5,39.42,58.77Z"/><path class="cls-9" d="M46.09,58.94l-1.82-.31a1.89,1.89,0,0,1-.05.23.06.06,0,0,1,0,0l1.84.31a.15.15,0,0,0,.16-.11A.14.14,0,0,0,46.09,58.94Z"/><path class="cls-9" d="M41.22,57.38a2.44,2.44,0,0,0,0-.27,2.33,2.33,0,0,0-1.8-2h0a2.31,2.31,0,0,0-2.56,1.29,2,2,0,0,0-.1.26l-.06.23a2.32,2.32,0,0,0,.3,1.68,2.54,2.54,0,0,0,.36.45,2.28,2.28,0,0,0,1.13.59,2.28,2.28,0,0,0,2.71-1.79h0A2.38,2.38,0,0,0,41.22,57.38Zm-2.71,2h0a2,2,0,0,1-1.32-1A2,2,0,0,1,36.94,57c0-.1.05-.2.08-.3v0a2,2,0,0,1,1.77-1.29,2.36,2.36,0,0,1,.53,0,2,2,0,0,1,1.58,2.4A2,2,0,0,1,38.51,59.36Z"/><path class="cls-9" d="M45.31,56.44l-.19-.09-.24-.08-.17,0a1.88,1.88,0,0,0-.33,0H44a2.44,2.44,0,0,0-1,.34,2.27,2.27,0,0,0-.78.82,1.69,1.69,0,0,0-.13.27h0c0,.12-.08.25-.11.38a2.3,2.3,0,0,0,.85,2.29,2.17,2.17,0,0,0,.74.38l.13,0h.07a2.05,2.05,0,0,0,.65,0h.11a1.4,1.4,0,0,0,.28-.06,1.84,1.84,0,0,0,.49-.19,2.28,2.28,0,0,0,1.18-1.57A2.3,2.3,0,0,0,45.31,56.44Zm.92,2.45a.65.65,0,0,1,0,.13,1.21,1.21,0,0,1,0,.18,2,2,0,0,1-.83,1,2.53,2.53,0,0,1-.44.21l-.3.07h-.08a1.84,1.84,0,0,1-.66,0h-.1a2,2,0,0,1-.85-.46l-.1-.1a2,2,0,0,1-.52-1.81,2.25,2.25,0,0,1,.14-.44,2,2,0,0,1,1-1,2.11,2.11,0,0,1,.86-.19h.15a2.3,2.3,0,0,1,.26,0l.19,0,.24.09a1,1,0,0,1,.18.1A2,2,0,0,1,46.23,58.89Z"/><path class="cls-9" d="M33.92,56.84l0,0a.13.13,0,0,1,0-.19c.91-1.43,3.11-.15,3.13-.13a.13.13,0,0,1,.05.18.13.13,0,0,1-.19,0s-2-1.16-2.76.05A.17.17,0,0,1,33.92,56.84Z"/><path class="cls-9" d="M42.21,57.69a.12.12,0,0,1-.09,0c-.29-.46-.91-.25-.92-.25A.14.14,0,0,1,41,57.3a.13.13,0,0,1,.08-.17,1.09,1.09,0,0,1,1.24.36.14.14,0,0,1,0,.19A.12.12,0,0,1,42.21,57.69Z"/><g class="cls-4"><path class="cls-16" d="M44.15,59.22q-.1.51-.21,1c-.62-.15-1.07-.45-1-.71S43.51,59.11,44.15,59.22Z"/></g><path class="cls-7" d="M39.9,57.42c-.07.37-.3.63-.51.59s-.31-.38-.23-.75.3-.63.51-.59S40,57.05,39.9,57.42Z"/><path class="cls-7" d="M43.55,58.16c-.07.36-.3.63-.51.59s-.31-.38-.23-.75.3-.63.51-.59S43.63,57.79,43.55,58.16Z"/><path class="cls-7" d="M41.67,59.15a2,2,0,0,0,.31,0,.17.17,0,0,0,.11-.06.17.17,0,0,0,0-.12l-.24-1.72a.14.14,0,0,0-.17-.13.14.14,0,0,0-.13.17l.21,1.53a1.13,1.13,0,0,1-.6-.26.17.17,0,0,0-.22,0,.17.17,0,0,0,0,.22A1.56,1.56,0,0,0,41.67,59.15Z"/><path class="cls-7" d="M34.88,60.37a3.51,3.51,0,0,1-1.51,1.25h0v-.8A2.92,2.92,0,0,0,34.88,60.37Z"/><path class="cls-15" d="M34.72,57.67s-1.07-2.28-2.47-1c-1.15,1.11-.14,4.79,1.85,4Z"/><path class="cls-20" d="M32.08,59.63a2,2,0,0,0-1.32,1.45,1.89,1.89,0,0,0,3.71.75,1.88,1.88,0,0,0-.78-1.93,1.75,1.75,0,0,0-.7-.3h0a.3.3,0,0,0,.06.31,1.57,1.57,0,0,1,.55.27,1.6,1.6,0,1,1-2.53,1,1.56,1.56,0,0,1,1.18-1.22Z"/><path class="cls-7" d="M34,60.09h0a.16.16,0,0,0,.17-.14A2.92,2.92,0,0,0,33,57.32a.16.16,0,0,0-.22,0,.17.17,0,0,0,.05.22h0a2.58,2.58,0,0,1,1.06,2.34A.16.16,0,0,0,34,60.09Z"/><path class="cls-7" d="M32.79,58.88a.12.12,0,0,0,.1,0,1.23,1.23,0,0,1,.86-.14.15.15,0,0,0,.21-.07.17.17,0,0,0-.08-.21,1.46,1.46,0,0,0-1.13.15.16.16,0,0,0-.07.21A.21.21,0,0,0,32.79,58.88Z"/><path class="cls-7" d="M36.11,53.8a48,48,0,0,0-1.53,4.71c-.1,1.08-1.53-2.61-.1-5.77Z"/><path class="cls-7" d="M60.25,137h-6s-1.37-6.6-1.84-10.31-.7-12.48-.7-12.48-4.74,1.54-14.67,1c-22-1.29-13.65-17.45-13.65-17.45.74,1,6.32,2.45,9.43,2.94,9.55.91,16.81,2.53,21.78,4.68A23.67,23.67,0,0,1,57.84,107c1.2.73,1.95,3,2.4,5.92C61.6,121.75,60.25,137,60.25,137Z"/><path class="cls-10" d="M55,133.81a.21.21,0,0,1-.21-.17,103.89,103.89,0,0,1-1.38-13.79c-.19-3.52-.37-6.85-.82-7.25s-1.89-.07-3.82.25c-3.83.64-9.62,1.6-16,.11a11.61,11.61,0,0,1-7.61-5c-2.7-4.36-1.47-9.75-1.45-9.81a.21.21,0,1,1,.41.1s-1.2,5.28,1.41,9.49a11.19,11.19,0,0,0,7.33,4.83c6.31,1.46,12,.51,15.85-.12,2.28-.38,3.65-.61,4.17-.15s.72,2.93,1,7.55a102.51,102.51,0,0,0,1.37,13.72.22.22,0,0,1-.17.26Z"/><path class="cls-10" d="M60.37,133.92h0l-6.61-.14a.21.21,0,0,1-.21-.22.21.21,0,0,1,.21-.21l6.62.15a.21.21,0,0,1,0,.42Z"/><polygon class="cls-15" points="60.09 144.62 55.89 144.62 55.08 139.69 54.64 136.99 59.86 136.99 59.94 139.69 60.09 144.62"/><polygon class="cls-20" points="60.09 144.62 55.89 144.62 55.29 140.95 55.08 139.69 59.94 139.69 59.98 140.99 60.09 144.62"/><polygon class="cls-19" points="59.98 140.99 55.29 140.95 55.08 139.69 59.94 139.69 59.98 140.99"/><path class="cls-21" d="M70.45,151.25H54.57a2.23,2.23,0,0,1-.21-.88,25.72,25.72,0,0,1,.54-4.84c0-.16.05-.31.06-.44a4.79,4.79,0,0,0,0-.55.81.81,0,0,1,1-.92c1.6,1.58,3.42-.79,4.49,0l.14.11.41.33,1.17,1c1.26,1.14,3.4,1.89,5.23,2.65.23.1.45.19.65.29l.43.22c1.49.81,2,1.58,2.07,2.14A1.21,1.21,0,0,1,70.45,151.25Z"/><path class="cls-21" d="M68.51,148.23a4,4,0,0,1-2.05,1h-.1a19.75,19.75,0,0,1-3.94-1.82c-.89-.48-1.69-1-2.27-1.34-.95-.63-1.12-.87-1.16-1-.14-.63.9-1.07,1.63-1.29l.41.33c-.9.25-1.64.64-1.61.86A13.72,13.72,0,0,0,62.7,147a20.16,20.16,0,0,0,3.7,1.73,3.18,3.18,0,0,0,1.68-.76Z"/><path class="cls-22" d="M70.45,151.25H54.57a2.23,2.23,0,0,1-.21-.88H70.58A1.21,1.21,0,0,1,70.45,151.25Z"/><path class="cls-22" d="M56.19,151.25h-.47a3.47,3.47,0,0,0,.85-2.54,4.51,4.51,0,0,0-1.67-3.18c0-.16.05-.31.06-.44a4.85,4.85,0,0,1,2,3.6A3.93,3.93,0,0,1,56.19,151.25Z"/><path class="cls-9" d="M61.93,146a.27.27,0,0,1-.26-.2.27.27,0,0,1,.19-.32l1-.24a.25.25,0,0,1,.31.19.26.26,0,0,1-.19.32L62,146Z"/><path class="cls-9" d="M60.94,145.18a.26.26,0,0,1-.25-.2.25.25,0,0,1,.19-.31l1-.25a.26.26,0,1,1,.13.51l-1,.25Z"/><path class="cls-9" d="M62.92,146.59a.25.25,0,0,1-.25-.2.26.26,0,0,1,.19-.32l1-.25a.27.27,0,0,1,.32.19.26.26,0,0,1-.2.32l-1,.25Z"/><path class="cls-9" d="M63.91,147.14a.26.26,0,0,1-.25-.2.26.26,0,0,1,.19-.32l1-.24a.26.26,0,0,1,.32.19.27.27,0,0,1-.19.32l-1,.24Z"/><path class="cls-9" d="M65,147.65a.26.26,0,0,1-.25-.2.25.25,0,0,1,.19-.31l1-.25a.27.27,0,0,1,.32.19.26.26,0,0,1-.19.32l-1,.25Z"/><path class="cls-9" d="M66.17,148.09a.27.27,0,0,1-.26-.2.27.27,0,0,1,.19-.32l1-.24a.25.25,0,0,1,.31.19.26.26,0,0,1-.19.32l-1,.24Z"/><path class="cls-11" d="M82.17,97.48V98.8c0,.76-.45,1.37-1,1.37H9.86c-.56,0-1-.61-1-1.37V97.48c0-.76.46-1.38,1-1.38H81.15C81.72,96.1,82.17,96.72,82.17,97.48Z"/><rect class="cls-19" x="8.84" y="97.9" width="73.34" height="0.6"/><path class="cls-19" d="M80,103.56H13a.54.54,0,0,1-.54-.54v-2.86H80.57V103A.54.54,0,0,1,80,103.56Z"/><rect class="cls-19" x="17.1" y="120.38" width="59.93" height="2.34"/><polygon class="cls-11" points="12.78 151.67 24.38 103.56 20.3 103.56 8.7 151.67 12.78 151.67"/><polygon class="cls-11" points="81.26 151.67 69.66 103.56 73.74 103.56 85.34 151.67 81.26 151.67"/><rect class="cls-20" x="14.81" y="85.09" width="1.27" height="9.6" transform="translate(-13.43 3.38) rotate(-8.71)"/><polygon class="cls-15" points="15.35 85.05 14.09 85.24 14.37 84.28 14.51 83.78 14.8 84.21 15.35 85.05"/><rect class="cls-7" x="15.48" y="93.93" width="1.27" height="0.7" transform="translate(-14.09 3.53) rotate(-8.71)"/><path class="cls-23" d="M16.8,95.09l-1.09.17a.09.09,0,0,1-.1-.07l-.07-.47,1.26-.19.07.46A.08.08,0,0,1,16.8,95.09Z"/><polygon class="cls-7" points="14.8 84.21 14.37 84.28 14.51 83.78 14.8 84.21"/><rect class="cls-19" x="15.39" y="93.44" width="1.27" height="0.5" transform="translate(-14 3.51) rotate(-8.71)"/><path class="cls-19" d="M14.47,85.66l1.08,7a.1.1,0,0,0,.11.08h0a.1.1,0,0,0,.08-.11l-1.07-7a.09.09,0,0,0-.11-.08h0C14.5,85.55,14.47,85.6,14.47,85.66Z"/><path class="cls-19" d="M15,85.58l1.07,7a.11.11,0,0,0,.11.09h0a.1.1,0,0,0,.08-.12l-1.07-7a.1.1,0,0,0-.11-.08h0A.1.1,0,0,0,15,85.58Z"/><rect class="cls-24" x="16.37" y="85.09" width="1.27" height="9.6" transform="translate(-0.3 0.06) rotate(-0.19)"/><polygon class="cls-15" points="17.62 85.09 16.35 85.09 16.77 84.18 16.98 83.71 17.2 84.18 17.62 85.09"/><rect class="cls-7" x="16.38" y="93.99" width="1.27" height="0.7" transform="translate(-0.31 0.06) rotate(-0.19)"/><path class="cls-23" d="M17.57,95.24h-1.1a.09.09,0,0,1-.09-.08v-.47h1.27v.47A.09.09,0,0,1,17.57,95.24Z"/><polygon class="cls-7" points="17.2 84.18 16.77 84.18 16.98 83.71 17.2 84.18"/><rect class="cls-25" x="16.38" y="93.49" width="1.27" height="0.5" transform="translate(-0.31 0.06) rotate(-0.19)"/><path class="cls-25" d="M16.67,85.56l0,7.11a.11.11,0,0,0,.1.1h0a.11.11,0,0,0,.1-.1l0-7.11a.09.09,0,0,0-.09-.09h0A.09.09,0,0,0,16.67,85.56Z"/><path class="cls-25" d="M17.17,85.56l0,7.11a.09.09,0,0,0,.1.09h0a.09.09,0,0,0,.09-.09l0-7.11a.1.1,0,0,0-.1-.1h0A.1.1,0,0,0,17.17,85.56Z"/><rect class="cls-26" x="13.72" y="89.25" width="9.6" height="1.27" transform="translate(-73.08 95.57) rotate(-81.91)"/><polygon class="cls-15" points="19.82 85.22 18.56 85.04 19.1 84.2 19.38 83.77 19.53 84.27 19.82 85.22"/><rect class="cls-7" x="17.25" y="93.94" width="1.27" height="0.7" transform="translate(13.44 -1.58) rotate(8.09)"/><path class="cls-23" d="M18.31,95.26l-1.1-.15a.1.1,0,0,1-.07-.1l.07-.47,1.26.18-.07.47A.07.07,0,0,1,18.31,95.26Z"/><polygon class="cls-7" points="19.53 84.27 19.1 84.2 19.38 83.77 19.53 84.27"/><rect class="cls-27" x="17.72" y="93.06" width="0.5" height="1.27" transform="translate(-77.32 98.31) rotate(-81.91)"/><path class="cls-27" d="M18.81,85.56l-1,7a.1.1,0,0,0,.08.11h0a.1.1,0,0,0,.11-.08l1-7a.1.1,0,0,0-.08-.11h0C18.86,85.47,18.81,85.5,18.81,85.56Z"/><path class="cls-27" d="M19.3,85.63l-1,7a.1.1,0,0,0,.08.11h0a.1.1,0,0,0,.11-.08l1-7a.1.1,0,0,0-.08-.11h0A.11.11,0,0,0,19.3,85.63Z"/><polygon class="cls-23" points="20.23 88.88 20.17 89.4 20.11 89.86 20.01 90.58 19.95 91.04 19.86 91.75 19.8 92.21 19.71 92.93 19.65 93.38 19.56 94.11 19.5 94.55 19.41 95.29 19.35 95.72 19.3 96.1 14.3 96.1 14.25 95.72 14.19 95.29 14.1 94.55 14.04 94.11 13.95 93.38 13.89 92.93 13.8 92.21 13.74 91.75 13.64 91.04 13.59 90.58 13.49 89.86 13.43 89.4 13.37 88.88 20.23 88.88"/><polygon class="cls-28" points="20.17 89.4 20.11 89.86 13.49 89.86 13.43 89.4 20.17 89.4"/><polygon class="cls-28" points="20.01 90.58 19.95 91.04 13.64 91.04 13.59 90.58 20.01 90.58"/><polygon class="cls-28" points="19.86 91.75 19.8 92.21 13.8 92.21 13.74 91.75 19.86 91.75"/><polygon class="cls-28" points="19.71 92.93 19.65 93.38 13.95 93.38 13.89 92.93 19.71 92.93"/><polygon class="cls-28" points="19.56 94.11 19.5 94.55 14.1 94.55 14.04 94.11 19.56 94.11"/><polygon class="cls-28" points="19.41 95.29 19.35 95.72 14.25 95.72 14.19 95.29 19.41 95.29"/><path class="cls-7" d="M81.76,70.59l-4.27,18-.11.48-.29,1.21a1.16,1.16,0,0,1-1.13.9H47.23a1.17,1.17,0,0,1-1.14-1.44l4.67-19.72a1.16,1.16,0,0,1,1.13-.9H80.62A1.16,1.16,0,0,1,81.76,70.59Z"/><polygon class="cls-10" points="77.49 88.63 77.38 89.11 47.55 89.11 47.55 88.63 77.49 88.63"/><path class="cls-20" d="M58.81,73.62a2.93,2.93,0,0,1-2.75,2.32,1.87,1.87,0,0,1-1.88-2.32,2.93,2.93,0,0,1,2.74-2.31A1.87,1.87,0,0,1,58.81,73.62Z"/><path class="cls-7" d="M56.19,73.18c0,.26-.17.46-.29.46s-.16-.2-.11-.46.18-.46.29-.46S56.24,72.93,56.19,73.18Z"/><path class="cls-7" d="M57.4,73.18c0,.26-.18.46-.29.46s-.16-.2-.11-.46.17-.46.29-.46S57.45,72.93,57.4,73.18Z"/><path class="cls-7" d="M56.3,74.75a1,1,0,0,1-1-1,.13.13,0,0,1,.1-.12.08.08,0,0,1,.11.07.85.85,0,0,0,.87.85,1.38,1.38,0,0,0,1.19-.85.12.12,0,0,1,.13-.07.09.09,0,0,1,.06.12A1.67,1.67,0,0,1,56.3,74.75Z"/><path class="cls-23" d="M72.09,84.43c0,1.2,2,2.7,2,2.7s2.36-1.5,2.65-2.7-1.18-1.69-2.27-.72C73.63,82.74,72.06,83.13,72.09,84.43Z"/><path class="cls-10" d="M67.8,81a2.59,2.59,0,0,1-2.5,2.25,2,2,0,0,1-2-2.25,2.59,2.59,0,0,1,2.5-2.25A2,2,0,0,1,67.8,81Z"/><path class="cls-10" d="M53,69.16l-5,22.06h-.83a1.17,1.17,0,0,1-1.14-1.44l4.67-19.72a1.16,1.16,0,0,1,1.13-.9Z"/><polygon class="cls-9" points="61.35 91.22 60.48 96.12 63.36 96.12 64.23 91.22 61.35 91.22"/><path class="cls-9" d="M56.17,95.28l.59-.83a1.11,1.11,0,0,1,.92-.47h7.89a1.11,1.11,0,0,1,1,.6l.4.76a.53.53,0,0,1-.47.78H56.61A.53.53,0,0,1,56.17,95.28Z"/><path class="cls-9" d="M39.73,96.12H63.44l.26-.9a.88.88,0,0,0-.85-1.12H41a.89.89,0,0,0-.85.64Z"/></g></g></g></svg>