<svg xmlns="http://www.w3.org/2000/svg" viewBox="0 0 221.85 155.15"><defs><style>.cls-1{isolation:isolate;}.cls-16,.cls-2{fill:#75c189;}.cls-2{opacity:0.25;}.cls-3{fill:#e4f2f1;}.cls-4{fill:#fa5;}.cls-5{fill:#ffd371;}.cls-6{fill:#fff;}.cls-7{fill:#fb6265;}.cls-8{fill:#64516d;}.cls-9{fill:#332938;}.cls-10{fill:#7f454b;}.cls-11{fill:#f49971;}.cls-12,.cls-15{fill:#b96438;}.cls-12{opacity:0.5;}.cls-13{fill:#fc7465;}.cls-14{opacity:0.15;mix-blend-mode:multiply;}.cls-17{fill:#4d965e;}.cls-18{fill:#f0d39f;}.cls-19{fill:#f9c382;}.cls-20{fill:#a15b60;}.cls-21{fill:#c45553;}</style></defs><g class="cls-1"><g id="Layer_2" data-name="Layer 2"><g id="Option_1" data-name="Option 1"><path class="cls-2" d="M28.35,112.93S-26.59,50.4,16.49,21c25.5-17.42,52.88,10.41,83-6.51,38.89-21.82,68.38-7.21,89.45,20,15.82,20.38,15.37,22.09,22.95,38.1,19.66,41.53-38.21,68.08-38.21,68.08S90.25,187.49,28.35,112.93Z"/><path class="cls-3" d="M30.91,18a3.71,3.71,0,0,0-3.71,3.71V127.64a3.72,3.72,0,0,0,3.71,3.71H175.62a3.72,3.72,0,0,0,3.71-3.71V21.72A3.71,3.71,0,0,0,175.62,18Z"/><path class="cls-4" d="M26.22,31.58H180.31v-5c0-2.63.18-6.56-1.54-8.29s-5.37-1.27-8-1.27h-135c-2.61,0-6.54.15-8.26,1.84s-1.3,5-1.3,7.72Z"/><path class="cls-4" d="M25.24,127.64V21.72a5.67,5.67,0,0,1,5.67-5.66H175.62a5.67,5.67,0,0,1,5.66,5.66V127.64a5.67,5.67,0,0,1-5.66,5.66H30.91A5.67,5.67,0,0,1,25.24,127.64ZM30.91,18a3.71,3.71,0,0,0-3.71,3.71V127.64a3.72,3.72,0,0,0,3.71,3.71H175.62a3.72,3.72,0,0,0,3.71-3.71V21.72A3.71,3.71,0,0,0,175.62,18Z"/><circle class="cls-5" cx="162.96" cy="24.44" r="2.22"/><circle class="cls-6" cx="171.98" cy="24.44" r="2.22"/><circle class="cls-7" cx="154.33" cy="24.44" r="2.22"/><path class="cls-8" d="M164.77,97l-6,34.35H116.06l.48-2.65,0-.25,2.28-12.89.19-1,.29-1.66.57-3.21.24-1.37,1.08-6.09.31-1.75,1.54-8.63h37.43A4.34,4.34,0,0,1,164.77,97Z"/><path class="cls-9" d="M154.35,91.82l-7,39.53h-59l1.87-10.61,1.23-7,2.9-16.53a6.71,6.71,0,0,1,6.58-5.39Z"/><path class="cls-10" d="M89.36,56.79s5.32,3.31-1,8.87-10.66,14.42-6.9,20.71A16.51,16.51,0,0,0,91.07,94l20-21.9S118.21,46.4,89.36,56.79Z"/><ellipse class="cls-10" cx="102.01" cy="54.07" rx="13.68" ry="13.05" transform="translate(-8.11 19.37) rotate(-10.44)"/><rect class="cls-11" x="98.77" y="60.39" width="11.2" height="13.03" transform="translate(-10.39 20.01) rotate(-10.44)"/><polygon class="cls-9" points="99.13 69.37 105.76 67.28 99.74 72.67 99.13 69.37"/><path class="cls-11" d="M99,69.68l10.58-3.2-2.4-13a8,8,0,0,0-9.39-6.16h0a8,8,0,0,0-6.59,9.1L92.77,65C93.35,68.14,96.14,70.79,99,69.68Z"/><path class="cls-12" d="M91.84,60l.77,4.17a1.63,1.63,0,0,0,.49,0,2.21,2.21,0,0,0-.8-4.31A1.79,1.79,0,0,0,91.84,60Z"/><path class="cls-10" d="M105.5,55.7l2.42-.44L105.84,44,92.14,46.5h0A11.47,11.47,0,0,0,105.5,55.7Z"/><circle class="cls-13" cx="108.38" cy="57.78" r="3.71"/><path class="cls-12" d="M99.91,60.69A2.32,2.32,0,1,0,101.77,58,2.32,2.32,0,0,0,99.91,60.69Z"/><path class="cls-9" d="M99.74,65.63a1.81,1.81,0,0,1-.57-.07l.18-.56-.09.28.08-.28a2.19,2.19,0,0,0,2.41-1.2l.5.31A2.92,2.92,0,0,1,99.74,65.63Z"/><path class="cls-9" d="M99.54,58.68a.73.73,0,0,0,.85.59.74.74,0,1,0-.85-.59Z"/><path class="cls-9" d="M93.23,59.84a.73.73,0,0,0,1.44-.26.74.74,0,0,0-.86-.59A.72.72,0,0,0,93.23,59.84Z"/><path class="cls-9" d="M96.75,62.67a.59.59,0,0,1-.36-.11.65.65,0,0,1-.3-.5l-.2-3.23.58,0L96.68,62l.19.34-.42-.2,1.87-.63.2.55L97,62.63A.57.57,0,0,1,96.75,62.67Z"/><path class="cls-11" d="M86.2,131.35H71.85L56.61,102.89s21.83,3.27,28.6,23.81A19.17,19.17,0,0,1,86.2,131.35Z"/><path class="cls-11" d="M51.58,104.09s-4-8.7-2.55-9,4.83,7.34,4.83,7.34Z"/><path class="cls-11" d="M50.21,100.76l6.57-.3a4.43,4.43,0,0,1,4.59,3.75l.29,1.85s-8.17,5.2-15.08,1.37Z"/><path class="cls-11" d="M50.54,107.71s-8-11.2-6.19-11.76,8.9,9.36,8.9,9.36Z"/><path class="cls-11" d="M46.58,107.43c-2.56-1.54-7.65-10-6-10.49s8.94,9,8.94,9Z"/><polygon class="cls-4" points="125.63 131.35 71.33 131.35 75.69 111.98 76.31 109.31 76.47 108.64 76.47 108.64 77.24 105.3 77.31 105.02 78.17 101.28 80.92 89.41 82.61 88.08 100.05 74.33 110.79 72.35 110.79 72.35 111.06 72.3 111.06 72.3 111.06 72.3 116.04 78.47 116.71 79.14 118.71 81.15 118.71 81.15 118.58 83.9 119.73 91.82 121.23 102.2 122.15 108.54 122.77 112.76 122.77 112.76 123.74 119.48 124.76 126.51 125.12 129 125.63 131.35"/><path class="cls-4" d="M119,81.49s26.2,26,20.45,36.59c-8.59,15.85-29.92-12.71-29.92-12.71Z"/><polygon class="cls-14" points="125.81 131.35 89.83 131.35 92.96 122.64 93.14 122.14 96.22 113.59 104.04 91.82 105.28 88.38 105.64 87.39 111.06 72.3 111.06 72.3 116.95 79.08 117.33 79.52 119.04 81.49 120.4 91.82 121.54 100.45 122.62 108.59 123.17 112.75 124.09 119.72 124.09 119.72 124.98 126.42 125.32 129 125.81 131.35"/><polygon class="cls-9" points="105.28 88.38 110.56 84.5 111.32 83.94 117.33 79.52 116.95 79.08 105.64 87.39 105.28 88.38"/><polygon class="cls-9" points="111.34 83.85 111.32 83.94 109.16 91.82 103.27 113.37 103.27 113.37 100.6 123.1 99.89 125.7 99.78 126.08 99.78 126.09 98.34 131.35 97.74 131.35 99.24 125.87 99.63 124.43 100.17 122.47 102.65 113.39 108.55 91.82 110.56 84.5 110.78 83.69 111.34 83.85"/><path class="cls-15" d="M90.08,99.09s1-10.25-.62-10-2.29,9.16-2.29,9.16Z"/><path class="cls-11" d="M133,114.44,86.47,104.08s9.71,21.67,33,22.73C135.12,127.52,133,114.44,133,114.44Z"/><path class="cls-11" d="M86.25,98.52s-10.17-1.61-10.06,0,9,2.88,9,2.88Z"/><path class="cls-11" d="M82.41,98.07,84,105a4.77,4.77,0,0,0,5.22,3.67l2-.23s3-10-3-16Z"/><path class="cls-11" d="M89.7,96.4s-13.92-5.05-14-3S88,99.9,88,99.9Z"/><path class="cls-11" d="M88.26,92.38c-2.34-2.2-12.57-5-12.61-3.21s11.87,6.65,11.87,6.65Z"/><path class="cls-4" d="M114.57,128.64l0-21,13.68,1.67a9.93,9.93,0,0,1,8.63,8.44h0a9.93,9.93,0,0,1-10.16,11.33Z"/><polygon class="cls-14" points="119.92 108.24 119.73 128.81 118.92 128.78 119.11 108.23 119.92 108.24"/><path class="cls-6" d="M107.22,54.05l2.87-.43-.84-5.56a10.56,10.56,0,0,0-12-8.87l-1.35.2.43,2.87,1.35-.2a7.66,7.66,0,0,1,8.71,6.43Z"/><circle class="cls-9" cx="108.5" cy="56.53" r="5.09" transform="translate(20.97 142.01) rotate(-71.84)"/><path class="cls-6" d="M106.22,70.36a9.94,9.94,0,0,0,4.12-4c1.38-2.7.56-6.92.52-7.1l-.87.17s.8,4.1-.44,6.53a9.32,9.32,0,0,1-3.72,3.65Z"/><path class="cls-6" d="M104.65,70.17a1.39,1.39,0,0,0,1.58,1.17,1.39,1.39,0,1,0-.42-2.75A1.38,1.38,0,0,0,104.65,70.17Z"/><path class="cls-6" d="M105,57.05A4.69,4.69,0,1,0,109,51.72,4.69,4.69,0,0,0,105,57.05Z"/><path class="cls-9" d="M107.59,56.67A2.9,2.9,0,1,0,110,53.36,2.9,2.9,0,0,0,107.59,56.67Z"/><rect class="cls-6" x="157.64" y="67.67" width="64.21" height="23.67" rx="11.06"/><path class="cls-16" d="M179.34,80a7.61,7.61,0,1,1-7.6-7.6A7.55,7.55,0,0,1,179.34,80Z"/><circle class="cls-17" cx="171.74" cy="78.18" r="2.75"/><path class="cls-17" d="M177.45,85A7.59,7.59,0,0,1,166,85a6.44,6.44,0,0,1,11.42,0Z"/><path class="cls-2" d="M209.85,76.16H184.21A1.26,1.26,0,0,1,183,74.9h0a1.25,1.25,0,0,1,1.26-1.26h25.64a1.26,1.26,0,0,1,1.26,1.26h0A1.27,1.27,0,0,1,209.85,76.16Z"/><path class="cls-2" d="M209.85,80.77H184.21A1.26,1.26,0,0,1,183,79.51h0a1.25,1.25,0,0,1,1.26-1.26h25.64a1.26,1.26,0,0,1,1.26,1.26h0A1.27,1.27,0,0,1,209.85,80.77Z"/><path class="cls-2" d="M201.59,85.38H184.21A1.26,1.26,0,0,1,183,84.12h0a1.25,1.25,0,0,1,1.26-1.26h17.38a1.26,1.26,0,0,1,1.26,1.26h0A1.27,1.27,0,0,1,201.59,85.38Z"/><rect class="cls-6" x="157.64" y="40.31" width="64.21" height="23.67" rx="11.06"/><path class="cls-16" d="M179.34,52.6a7.61,7.61,0,1,1-7.6-7.6A7.55,7.55,0,0,1,179.34,52.6Z"/><circle class="cls-17" cx="171.74" cy="50.82" r="2.75" transform="translate(82.66 206.2) rotate(-76.66)"/><path class="cls-17" d="M177.45,57.62a7.59,7.59,0,0,1-11.42,0,6.44,6.44,0,0,1,11.42,0Z"/><path class="cls-2" d="M209.85,48.8H184.21A1.26,1.26,0,0,1,183,47.54h0a1.25,1.25,0,0,1,1.26-1.26h25.64a1.26,1.26,0,0,1,1.26,1.26h0A1.27,1.27,0,0,1,209.85,48.8Z"/><path class="cls-2" d="M209.85,53.41H184.21A1.26,1.26,0,0,1,183,52.15h0a1.26,1.26,0,0,1,1.26-1.27h25.64a1.27,1.27,0,0,1,1.26,1.27h0A1.27,1.27,0,0,1,209.85,53.41Z"/><path class="cls-2" d="M201.59,58H184.21A1.26,1.26,0,0,1,183,56.76h0a1.26,1.26,0,0,1,1.26-1.27h17.38a1.27,1.27,0,0,1,1.26,1.27h0A1.27,1.27,0,0,1,201.59,58Z"/><path class="cls-16" d="M72.35,31.41a30.05,30.05,0,0,1-8.84,21.34,30.93,30.93,0,0,1-2.85,2.52,30.09,30.09,0,0,1-18.49,6.32l-1.21,0-.65,0-.44,0a30.28,30.28,0,0,1-5.07-.81L34,60.47l-.45-.13L33,60.18,32.45,60l-.21-.08c-.39-.13-.77-.28-1.15-.43a30,30,0,0,1-9.27-5.79c-.34-.31-.67-.63-1-1A30.19,30.19,0,1,1,72.35,31.41Z"/><path class="cls-18" d="M60.66,55.27a30.09,30.09,0,0,1-18.49,6.32l-1.21,0-.65,0-.44,0a30.28,30.28,0,0,1-5.07-.81L34,60.47l-.45-.13L33,60.18,32.45,60l-.21-.08c-.39-.13-.77-.28-1.15-.43a30,30,0,0,1-9.27-5.79,11.5,11.5,0,0,1,2.78-2.41L37.89,43h7.52l1.75,1.41Z"/><path class="cls-19" d="M37.89,43h7.52l1.76,1.41s-.87,3.48-3.82,3.43-7-3.87-7-3.87Z"/><ellipse class="cls-9" cx="40.78" cy="26.53" rx="13.74" ry="13.12"/><rect class="cls-20" x="37.89" y="34.26" width="7.52" height="8.75"/><polygon class="cls-9" points="45.41 39.63 40.78 39.05 45.41 41.88 45.41 39.63"/><path class="cls-20" d="M45.54,40.27,38.16,39V31.12a5.34,5.34,0,0,1,5.46-5.21h0a5.34,5.34,0,0,1,5.46,5.21v6.2A2.79,2.79,0,0,1,45.54,40.27Z"/><rect class="cls-9" x="37.65" y="23.96" width="3.07" height="8.78"/><path class="cls-21" d="M49.08,32.52v2.84a1.2,1.2,0,0,1-.33,0,1.48,1.48,0,0,1,0-2.94A1.2,1.2,0,0,1,49.08,32.52Z"/><path class="cls-20" d="M39.66,33.27a2.49,2.49,0,1,1-2.49-2.49A2.49,2.49,0,0,1,39.66,33.27Z"/><circle class="cls-21" cx="42.28" cy="33.99" r="1.56"/><path class="cls-6" d="M42.53,34.33l2.3,2.61S41.79,37.32,42.53,34.33Z"/><path class="cls-9" d="M43.84,32.61a.49.49,0,1,1-.49-.49A.49.49,0,0,1,43.84,32.61Z"/><path class="cls-9" d="M48.15,32.61a.49.49,0,1,1-.49-.49A.49.49,0,0,1,48.15,32.61Z"/><path class="cls-9" d="M46.09,34.92h-1v-.39l1,0h0v-.56h.39v.51a.45.45,0,0,1-.14.35A.42.42,0,0,1,46.09,34.92Z"/><path class="cls-20" d="M34,60.47l-.45-.13L33,60.18,32.45,60l-.21-.08.46-.19.3-.12.53-.21h0Z"/><path class="cls-20" d="M37.89,43h7.52s-.42,2.63-2.55,2.63S37.89,43,37.89,43Z"/><path class="cls-6" d="M42.17,62.81l-1.26,0-.67,0-.47,0a31.17,31.17,0,0,1-5.26-.85l-.87-.23-.46-.13,0,0-.5-.15-.57-.19-.22-.08c-.38-.13-.77-.27-1.2-.44a31.48,31.48,0,0,1-9.65-6c-.35-.32-.7-.65-1-1A31.4,31.4,0,1,1,64.37,9.2a31.41,31.41,0,0,1,0,44.41,32.1,32.1,0,0,1-3,2.62A31,31,0,0,1,42.17,62.81Zm0-60.37A29,29,0,0,0,21.68,51.89c.31.3.63.61,1,.91a29,29,0,0,0,8.89,5.56l1.11.41.2.07.54.17.46.15h0l.42.12.81.21a28.47,28.47,0,0,0,4.86.79l.42,0,.63,0,1.16,0a28.74,28.74,0,0,0,17.74-6.06,30,30,0,0,0,2.74-2.42A29,29,0,0,0,42.17,2.44Z"/><circle class="cls-4" cx="67.85" cy="20.56" r="12.54" transform="translate(5.33 54) rotate(-45)"/><path class="cls-6" d="M67.85,33.89A13.33,13.33,0,1,1,81.18,20.56,13.35,13.35,0,0,1,67.85,33.89Zm0-25.09A11.76,11.76,0,1,0,79.61,20.56,11.77,11.77,0,0,0,67.85,8.8Z"/><path class="cls-6" d="M63.94,20.56a1.27,1.27,0,1,1-1.27-1.27A1.27,1.27,0,0,1,63.94,20.56Z"/><path class="cls-6" d="M69.12,20.56a1.27,1.27,0,1,1-1.27-1.27A1.27,1.27,0,0,1,69.12,20.56Z"/><path class="cls-6" d="M74.3,20.56A1.27,1.27,0,1,1,73,19.29,1.27,1.27,0,0,1,74.3,20.56Z"/></g></g></g></svg>