<svg xmlns="http://www.w3.org/2000/svg" viewBox="0 0 33.71 32.49"><defs><style>.cls-1{fill:#fa5;}</style></defs><g id="Layer_2" data-name="Layer 2"><g id="Option_1" data-name="Option 1"><path class="cls-1" d="M31.76,2H17.39V.54a.54.54,0,1,0-1.07,0V2H2A2,2,0,1,0,2,5.89h.4v17.5a.54.54,0,0,0,.54.53H16.32v1.89l-5.54,5.54a.54.54,0,0,0,.76.76l4.78-4.78V32a.54.54,0,1,0,1.07,0V27.38l4.74,4.73a.54.54,0,0,0,.38.15.57.57,0,0,0,.38-.15.54.54,0,0,0,0-.76l-5.5-5.5V23.92H30.72a.54.54,0,0,0,.54-.53V5.89h.5a2,2,0,0,0,0-3.91ZM30.19,22.85H3.44v-17H30.19Zm1.57-18H2A.88.88,0,0,1,2,3.05h29.8a.88.88,0,0,1,0,1.76Z"/><path class="cls-1" d="M11.16,19.62a5.55,5.55,0,1,0-5.55-5.55A5.56,5.56,0,0,0,11.16,19.62Zm.54-10a4.49,4.49,0,0,1,3.9,3.9H11.7Zm-1.08,0v4.43a.54.54,0,0,0,.54.54H15.6a4.47,4.47,0,1,1-5-5Z"/><path class="cls-1" d="M19.73,11.2h7.51a.54.54,0,0,0,0-1.08H19.73a.54.54,0,0,0,0,1.08Z"/><path class="cls-1" d="M19.73,14.61h7.51a.54.54,0,0,0,0-1.07H19.73a.54.54,0,0,0,0,1.07Z"/><path class="cls-1" d="M19.73,18h7.51a.54.54,0,0,0,0-1.08H19.73a.54.54,0,0,0,0,1.08Z"/></g></g></svg>