<svg xmlns="http://www.w3.org/2000/svg" viewBox="0 0 14.43 21.36"><defs><style>.cls-1{fill:#46c7ce;}</style></defs><g id="Layer_2" data-name="Layer 2"><g id="Option_1" data-name="Option 1"><path class="cls-1" d="M4,21.36h8.2a.38.38,0,0,0,.38-.38V19a11.18,11.18,0,0,0,1.81-6.12V9.31a1.74,1.74,0,0,0-1.74-1.74,1.79,1.79,0,0,0-1,.29l-.08.06,0-.1A1.74,1.74,0,0,0,9,7L8.9,7l0-.09A1.76,1.76,0,0,0,7.22,5.74,1.71,1.71,0,0,0,6.34,6L6.23,6V1.75a1.75,1.75,0,1,0-3.49,0v6.6L1.46,9.2A3.28,3.28,0,0,0,.09,12.67a12.84,12.84,0,0,0,1.32,3.41A12.8,12.8,0,0,0,3.61,19l0,0V21A.38.38,0,0,0,4,21.36Zm-2-5.65A12.14,12.14,0,0,1,.83,12.5a2.52,2.52,0,0,1,1-2.67l.86-.57V12.5a.38.38,0,1,0,.76,0V1.75a1,1,0,1,1,2,0v8.93a.38.38,0,0,0,.76,0V7.49a1,1,0,1,1,2,0v3.19a.39.39,0,0,0,.38.38A.38.38,0,0,0,9,10.68V8.4a1,1,0,0,1,2,0v2.28a.38.38,0,0,0,.76,0V9.31a1,1,0,0,1,2,0v3.55a10.42,10.42,0,0,1-1.76,5.81.39.39,0,0,0-.06.21V20.6H4.41V18.88a.4.4,0,0,0-.11-.27l-.08-.07A12.59,12.59,0,0,1,2.07,15.71Z"/></g></g></svg>