<svg xmlns="http://www.w3.org/2000/svg" viewBox="0 0 47.43 36.96"><defs><style>.cls-1{fill:#75c189;}</style></defs><g id="Layer_2" data-name="Layer 2"><g id="Option_1" data-name="Option 1"><path class="cls-1" d="M47.43,24.62A3.71,3.71,0,0,0,45,21.12L44.59,21V11.16l2.28-.85a.86.86,0,0,0,.56-.81.88.88,0,0,0-.56-.82L24,.06a.81.81,0,0,0-.61,0L.56,8.68a.87.87,0,0,0,0,1.63l8.07,3V24.07a.87.87,0,0,0,.54.81,39.18,39.18,0,0,0,14.55,2.8,39.17,39.17,0,0,0,14.54-2.8.87.87,0,0,0,.54-.81V13.32l4.05-1.51V21l-.37.13a3.7,3.7,0,0,0-1.52,6l.33.37-.33.37a3.71,3.71,0,0,0-1,2.48v5.78a.87.87,0,0,0,.87.87h5.69a.87.87,0,0,0,.86-.87V30.31a3.66,3.66,0,0,0-1-2.48l-.33-.37.33-.37A3.65,3.65,0,0,0,47.43,24.62ZM37.07,23.48l-.36.14a37.33,37.33,0,0,1-13,2.34,37.34,37.34,0,0,1-13-2.34l-.36-.14V14l13.05,4.87a.91.91,0,0,0,.61,0L37.07,14ZM42.71,10l-18.8,7-.19.07-.2-.07L4.72,10,3.33,9.49l20.39-7.7L44.1,9.49Zm3,25.21h-4V30.31a2,2,0,0,1,4,0Zm-2-8.63a2,2,0,1,1,2-2A2,2,0,0,1,43.72,26.59Z"/></g></g></svg>