<svg xmlns="http://www.w3.org/2000/svg" viewBox="0 0 50.72 39.52"><defs><style>.cls-1{fill:#fa5;}</style></defs><g id="Layer_2" data-name="Layer 2"><g id="Option_1" data-name="Option 1"><path class="cls-1" d="M50.72,26.32a4,4,0,0,0-2.65-3.74l-.39-.14V11.93L50.12,11a.92.92,0,0,0,0-1.73L25.69.06a.94.94,0,0,0-.66,0L.6,9.29A.92.92,0,0,0,.6,11l8.63,3.22v11.5a.91.91,0,0,0,.58.86,41.64,41.64,0,0,0,15.55,3,41.64,41.64,0,0,0,15.55-3,.91.91,0,0,0,.58-.86V14.24l4.34-1.62v9.82l-.4.14a4,4,0,0,0-2.65,3.74,3.94,3.94,0,0,0,1,2.65l.35.4-.35.39a3.94,3.94,0,0,0-1,2.65v6.18a.93.93,0,0,0,.93.93h6.08a.93.93,0,0,0,.93-.93V32.41a4,4,0,0,0-1-2.65l-.36-.39.36-.4A4,4,0,0,0,50.72,26.32ZM39.64,25.11l-.39.14a39.81,39.81,0,0,1-13.89,2.51,39.85,39.85,0,0,1-13.89-2.51l-.39-.14V14.93l14,5.22a1,1,0,0,0,.65,0l14-5.22Zm6-14.41L25.57,18.21l-.21.08-.21-.08L5,10.7l-1.48-.55,21.8-8.23,21.8,8.23Zm3.19,27H44.64V32.41a2.12,2.12,0,1,1,4.23,0Zm-2.12-9.22a2.12,2.12,0,1,1,2.12-2.12A2.12,2.12,0,0,1,46.75,28.44Z"/></g></g></svg>