<svg xmlns="http://www.w3.org/2000/svg" viewBox="0 0 28.92 38.94"><defs><style>.cls-1{fill:#fa5;}</style></defs><g id="Layer_2" data-name="Layer 2"><g id="Option_1" data-name="Option 1"><path class="cls-1" d="M25.74,15H23.9V9.45A9.45,9.45,0,1,0,5,9.45V15H3.18A3.19,3.19,0,0,0,0,18.22V35.77a3.18,3.18,0,0,0,3.18,3.17H25.74a3.18,3.18,0,0,0,3.18-3.17V18.22A3.19,3.19,0,0,0,25.74,15ZM6.36,9.45a8.1,8.1,0,1,1,16.2,0V15H6.36ZM27.57,35.77a1.83,1.83,0,0,1-1.83,1.83H3.18a1.84,1.84,0,0,1-1.84-1.83V18.22a1.85,1.85,0,0,1,1.84-1.84H25.74a1.84,1.84,0,0,1,1.83,1.84Z"/><path class="cls-1" d="M14.46,21.72a2.76,2.76,0,0,0-1,5.32l.37.15v4.4a.67.67,0,0,0,1.34,0v-4.4l.36-.15a2.76,2.76,0,0,0-1-5.32Zm0,4.18a1.42,1.42,0,1,1,1.42-1.41A1.42,1.42,0,0,1,14.46,25.9Z"/></g></g></svg>