<svg xmlns="http://www.w3.org/2000/svg" viewBox="0 0 28.91 28.91"><defs><style>.cls-1{fill:#fa5;}</style></defs><g id="Layer_2" data-name="Layer 2"><g id="Option_1" data-name="Option 1"><path class="cls-1" d="M28.35,27.79H27.12V11A1.14,1.14,0,0,0,26,9.86H23.68A1.14,1.14,0,0,0,22.55,11V27.79H20.2v-11a1.14,1.14,0,0,0-1.13-1.13H16.76a1.14,1.14,0,0,0-1.13,1.13v11H13.28V19.93a1.13,1.13,0,0,0-1.13-1.13H9.84a1.14,1.14,0,0,0-1.13,1.13v7.86H6.37V22a1.14,1.14,0,0,0-1.14-1.14H2.92A1.14,1.14,0,0,0,1.79,22v5.78H.56a.56.56,0,0,0,0,1.12H28.35a.56.56,0,1,0,0-1.12Zm-23.1,0H2.91V22H5.25Zm6.92,0H9.82V19.92h2.35Zm6.92,0H16.74v-11h2.35Zm6.92,0H23.66V11H26Z"/><path class="cls-1" d="M.56,18A29.91,29.91,0,0,0,17,12.51a31.39,31.39,0,0,0,9.46-9.73l.37-.63,1,3.84a.57.57,0,0,0,.54.41.39.39,0,0,0,.15,0,.55.55,0,0,0,.34-.26.56.56,0,0,0,.05-.42L27.47.41v0a.56.56,0,0,0-.09-.17h0l0,0v0l0,0h0l0,0h0L27.12,0h-.33L21.51,1.44a.55.55,0,0,0-.4.68.59.59,0,0,0,.26.34.56.56,0,0,0,.42,0l4.12-1.1-.37.64a30.17,30.17,0,0,1-9.22,9.54A28.81,28.81,0,0,1,.56,16.85a.57.57,0,0,0-.56.56A.56.56,0,0,0,.56,18Z"/></g></g></svg>