<svg xmlns="http://www.w3.org/2000/svg" viewBox="0 0 652.82 161.38"><defs><style>.cls-1{isolation:isolate;}.cls-2{fill:#eaeaea;mix-blend-mode:multiply;}.cls-3{fill:#171223;}.cls-4{fill:#f97341;}.cls-5{fill:#fdbba5;}.cls-14,.cls-28,.cls-32,.cls-36,.cls-38,.cls-39,.cls-42,.cls-6{fill:none;}.cls-6{stroke:#8a453a;stroke-width:0.49px;}.cls-28,.cls-32,.cls-36,.cls-6{stroke-linecap:round;stroke-linejoin:round;}.cls-7{fill:#1a1a1a;}.cls-8{fill:#231b22;}.cls-9{fill:#100f11;}.cls-10{fill:#e59d89;}.cls-11{fill:#e7ae22;}.cls-12{fill:#a4614e;}.cls-13{fill:#ffab4b;}.cls-14,.cls-32,.cls-38,.cls-39{stroke:#fff;}.cls-14,.cls-38,.cls-39,.cls-42{stroke-miterlimit:10;}.cls-14{stroke-width:1.18px;}.cls-15{fill:#ffd469;}.cls-16{fill:#72c287;}.cls-17{fill:#c5503d;}.cls-18{fill:#b3b4f2;}.cls-19{fill:#9b392c;}.cls-20{fill:#60874f;}.cls-21{fill:#ad4735;}.cls-22{fill:#b7c2ca;}.cls-23{fill:#070707;}.cls-24{fill:#9ba9b3;}.cls-25{fill:#2d4f8a;}.cls-26{fill:#ec9992;}.cls-27{fill:#cc5b54;}.cls-28,.cls-36{stroke:#1d0300;}.cls-28{stroke-width:0.55px;}.cls-29{fill:#ecedef;}.cls-30{fill:#318dee;}.cls-31,.cls-37{fill:#fff;}.cls-32{stroke-width:0.96px;}.cls-33{fill:#363638;}.cls-34{fill:#1d0300;}.cls-35{fill:#e48280;}.cls-36{stroke-width:0.49px;}.cls-37{opacity:0.23;}.cls-38{stroke-width:0.4px;}.cls-39{stroke-width:0.35px;}.cls-40{fill:#a9a9a9;}.cls-41{fill:#14284d;}.cls-42{stroke:#363638;stroke-width:2.35px;}</style></defs><g class="cls-1"><g id="Layer_2" data-name="Layer 2"><g id="Layer_2-2" data-name="Layer 2"><g id="Layer_3" data-name="Layer 3"><ellipse class="cls-2" cx="623.45" cy="155.03" rx="29.37" ry="4.47"/><path class="cls-3" d="M631.55,9.56c-3,1.59-6.5.94-7.76-1.46s.15-5.63,3.17-7.23,6.5-.94,7.76,1.46S634.57,8,631.55,9.56Z"/><path class="cls-4" d="M627.37,9.23a3.77,3.77,0,1,1-2.49-4.72A3.78,3.78,0,0,1,627.37,9.23Z"/><path class="cls-3" d="M608.71,12.17a9.42,9.42,0,1,0,18.82,0c0-5.41-4.21-9.09-9.41-9.09S608.71,6.76,608.71,12.17Z"/><path class="cls-5" d="M618.45,34.9h0c2-.11,4.1-1.39,4-3.42l-1.21-13.55-7.37.4.7,13.08A3.69,3.69,0,0,0,618.45,34.9Z"/><path class="cls-3" d="M619.39,20.75a6.59,6.59,0,0,1-5,6.62l-.11-3.08L620,20.75"/><path class="cls-5" d="M613.41,25h0c3.82,0,6.91-2.76,6.91-6.17V7.67l-6.38-.58c-2.37,0-5.56,3.65-5.56,5.76L608.5,19C608.5,21.47,610.2,25,613.41,25Z"/><path class="cls-5" d="M609.23,13.78l-1.8,3.57a.54.54,0,0,0,.48.85h2.52Z"/><path class="cls-6" d="M611.06,19.36a3.93,3.93,0,0,1-2.35.38"/><path class="cls-7" d="M609.28,15.12a.57.57,0,1,0,1.13,0,.57.57,0,0,0-1.13,0Z"/><path class="cls-7" d="M612.22,13.77h-2.69a.52.52,0,0,1-.52-.53.52.52,0,0,1,.52-.52h2.58a.52.52,0,0,1,.11,1Z"/><path class="cls-3" d="M608.52,12c1.11-.58,1.93-2.67,1.93-2.67l1-.63,2.87-.9,2.88.9,1,.63s-1.92,2.09-.81,2.67l1.77,4.1s8.87-5.47,1.41-9.85a6.74,6.74,0,0,0-3.23-1.09,6.39,6.39,0,0,0-3.1,1s-5.83.35-5.73,5.84"/><path class="cls-3" d="M620.58,12H607a6.78,6.78,0,0,1,6.41-7.14C620,4.1,620.58,12,620.58,12Z"/><path class="cls-7" d="M621.48,21.33s-1.5,0-1.81-2.84L623,17.33Z"/><path class="cls-5" d="M623.56,16.58a2.58,2.58,0,1,1-2.68-2.47A2.57,2.57,0,0,1,623.56,16.58Z"/><polygon class="cls-5" points="635.39 127.96 639.16 123.69 623.21 111.81 618.59 117.03 635.39 127.96"/><path class="cls-8" d="M638.46,122.58l-6.21,7-2,7a4.49,4.49,0,0,0,1.37,4.45h0l12.27-14.21Z"/><path class="cls-8" d="M632,130.38l-.71-3.34a2.38,2.38,0,0,1,4.06-.27Z"/><path class="cls-9" d="M611.22,56.28s-7.74,28.87-8.88,34.56-3.41,17.08,1.37,21.17,16.09,10.72,16.09,10.72l8.42-7.77-5.55-7.73Z"/><polygon class="cls-5" points="621.78 149.41 627.47 149.41 625.81 129.58 618.84 129.58 621.78 149.41"/><path class="cls-8" d="M627.84,148.15h-9.38l-6.58,3.14a4.46,4.46,0,0,0-2.43,4h0l18.77-.22Z"/><path class="cls-8" d="M617.73,148.48l2-2.74a2.38,2.38,0,0,1,2.89,2.87Z"/><path class="cls-8" d="M611.22,56.28l-.77,43.55a24.29,24.29,0,0,0,.37,4.66L616,133.73h13.54s-2.88-20.51.81-56.8c0,0,2.65-15.76-4.62-20.57Z"/><path class="cls-10" d="M609.6,35.81l-10,7.27-10-14.68-3.38,1.86s4.06,13.8,9.46,20.77a3.49,3.49,0,0,0,4,1.07,55,55,0,0,0,15.15-9.57Z"/><path class="cls-11" d="M606.79,37.63l7,11.59L620.47,44A6.63,6.63,0,0,0,622,35.16h0a6.62,6.62,0,0,0-9.69-1.51Z"/><path class="cls-12" d="M589.6,28.4l-3.38,1.86-4.15-5.72s6.33-2.78,6.28-2.68S589.6,28.4,589.6,28.4Z"/><path class="cls-12" d="M589.6,28.4c-.1-.32,1-4.24,1.24-5.61a.59.59,0,0,0-.56-.67h0a.55.55,0,0,0-.53.31l-1.33,2.89Z"/><path class="cls-12" d="M588.35,21.86l-.81-1.34a.64.64,0,0,0-.82-.41h0a.55.55,0,0,0-.37.68l1,2.62Z"/><path class="cls-12" d="M586.78,22.5l-1.73-2.07a.65.65,0,0,0-.85-.29h0a.58.58,0,0,0-.28.71l1.63,3Z"/><path class="cls-12" d="M585.21,23.49l-1.88-2.81a.72.72,0,0,0-1-.22h0a.62.62,0,0,0-.21.86l1.89,3.22Z"/><path class="cls-12" d="M582.07,24.54,581,22.84a.49.49,0,0,1,.15-.7h0a.57.57,0,0,1,.72.1l2.19,2.3Z"/><rect class="cls-13" x="545.21" y="10.75" width="52.1" height="51.43" rx="4.66" transform="translate(1142.52 72.92) rotate(-180)"/><polyline class="cls-14" points="585.65 50.71 574.58 36.55 568.29 40.89 557.05 27.25"/><polyline class="cls-14" points="559.84 27.02 556.7 27.01 556.43 30.01"/><path class="cls-15" d="M623.05,29.69s7.36,6.84,2.72,26.67l-14.55-.08s-4.16-14.05,1.12-22.9Z"/><path class="cls-5" d="M623.05,29.69a15.75,15.75,0,0,1-10.71,3.69l4.66-5.5h5.11Z"/><path class="cls-15" d="M612.34,33.38s-10,4.51-2.65,12.35,8-6.18,8-6.18Z"/><path class="cls-5" d="M612,39.71l-7.88,9.53L590.8,37.51,588,40.15s7.36,12.36,14.32,17.77a3.48,3.48,0,0,0,4.16,0,55.42,55.42,0,0,0,12.3-13Z"/><path class="cls-15" d="M609.75,42.18l9.61,9.49L624.59,45a6.63,6.63,0,0,0-.76-9h0a6.63,6.63,0,0,0-9.77,1Z"/><path class="cls-5" d="M590.8,37.51,588,40.15l-5.44-4.51S588,31.37,588,31.48,590.8,37.51,590.8,37.51Z"/><path class="cls-5" d="M590.8,37.51c-.18-.28-.1-4.36-.2-5.75a.58.58,0,0,0-.7-.5h0a.53.53,0,0,0-.44.42l-.57,3.13Z"/><path class="cls-5" d="M588,31.48l-1.4-2.22a.67.67,0,0,0-.9-.19h0a.56.56,0,0,0-.19.76l1.88,3.41Z"/><path class="cls-5" d="M586.6,32.49l-2.47-2.7a.66.66,0,0,0-.9-.06h0a.57.57,0,0,0-.09.76l2.6,3.57Z"/><path class="cls-5" d="M585.32,33.84l-2.51-2.25a.72.72,0,0,0-1,0h0a.62.62,0,0,0,0,.88l2.63,2.65Z"/><path class="cls-5" d="M582.55,35.64l-1.47-1.39a.5.5,0,0,1,0-.71h0a.57.57,0,0,1,.73-.08l2.69,1.68Z"/><path class="cls-16" d="M135.84,126.67h-1c2.6-9.94,4.89-20.11,4.85-30.21a2.35,2.35,0,0,0-4.64-.53,76.77,76.77,0,0,0-1,30.75h-.29A1.51,1.51,0,0,0,135.84,126.67Z"/><path class="cls-17" d="M121.83,130,124,153.23c0,2.6,15.65,2.42,15.62-.19l1.6-23.24Z"/><path class="cls-18" d="M132.74,126.7c-.16.61-.32,1.21-.49,1.82-.11-.6-.22-1.2-.32-1.81Z"/><path class="cls-19" d="M141,132.62l.42-6h-.79l-17.75.21-1.36,0,.56,6C122.11,133.83,141,133.61,141,132.62Z"/><path class="cls-16" d="M123.71,126.81l.11,1.28a45.8,45.8,0,0,1-7.93-7.44,2.54,2.54,0,0,1,3.68-3.49,68.73,68.73,0,0,1,6.49,6.73,33.38,33.38,0,0,1,2.1,2.87Z"/><path class="cls-20" d="M133.48,126.7l-3.24,0c-5.15-7.85-10.06-16-13.12-24.68-1.26-3.56,3.75-5.8,5.65-2.54A97.82,97.82,0,0,1,133.48,126.7Z"/><path class="cls-20" d="M152.17,102.57a82.5,82.5,0,0,1-11.86,24.05l-3.76,0a48.56,48.56,0,0,1,1.27-6.87,67.66,67.66,0,0,1,8.88-17.64c1.25-1.78,4-3.55,5.23-1.66A2.52,2.52,0,0,1,152.17,102.57Z"/><path class="cls-21" d="M142.77,131.27c0,1.37-22.44,1.63-22.46.26l-.92-5.21,24.18-.29Z"/><ellipse class="cls-2" cx="84.54" cy="156.55" rx="68.89" ry="4.58"/><rect class="cls-22" x="45.34" y="116.55" width="2.76" height="13.6"/><rect class="cls-23" x="44.01" y="127.49" width="5.52" height="17.07"/><rect class="cls-22" x="35.29" y="143.46" width="23.05" height="2.22"/><rect class="cls-22" x="35.29" y="143.46" width="1.81" height="6.65"/><path class="cls-23" d="M38.65,152.13a3.36,3.36,0,1,1-3.36-3.36A3.36,3.36,0,0,1,38.65,152.13Z"/><rect class="cls-22" x="56.53" y="143.46" width="1.81" height="6.65" transform="translate(114.87 293.58) rotate(180)"/><path class="cls-23" d="M55,152.13a3.36,3.36,0,1,0,3.36-3.36A3.36,3.36,0,0,0,55,152.13Z"/><rect class="cls-23" x="38.61" y="113.42" width="16.28" height="4.96"/><path class="cls-22" d="M.19,56.49l20.42,54.58h42.7L38.26,54.29a2.92,2.92,0,0,0-2.65-1.72H2.9A2.9,2.9,0,0,0,.19,56.49Z"/><path class="cls-24" d="M76.83,115.36H25.31a4.67,4.67,0,0,1-4.67-4.66h0A4.67,4.67,0,0,1,25.31,106H76.83Z"/><path class="cls-25" d="M57.12,53.71s6.8,2.12,9.36,27.2L61,84.82Z"/><polygon class="cls-26" points="82.79 82.32 76.79 81.2 76.98 86.89 82.17 86.89 82.79 82.32"/><path class="cls-27" d="M82.79,82.32s12.33-6.26,10.8,4.56H81.37Z"/><path class="cls-25" d="M58.2,75.59l23.4,2.22-.21,9.08-22.62-.15C55.74,87,53,84,52.51,81h0C51.93,77.54,54.64,75.73,58.2,75.59Z"/><line class="cls-28" x1="65.74" y1="76.3" x2="62.88" y2="76.03"/><path class="cls-29" d="M40.11,95.55s9.22,1.86,16.77-1.82l2.51-31.65L50.5,51.64H40.71L36.66,68.86Z"/><path class="cls-27" d="M40.71,51.64,40.86,56s6.94,2.8,11.08,0a23.15,23.15,0,0,0-1.44-4.37Z"/><path class="cls-25" d="M40.71,51.64s1.15,31,.81,46.67l-6.83-.81c-3.62-.43-5.66.6-5.55-3l1-25.19L28,59.11a7.66,7.66,0,0,1,3.45-5.71A41.91,41.91,0,0,1,40.71,51.64Z"/><path class="cls-25" d="M50.5,51.64s2.12,3.89,3,15,1.2,30.19,1.2,30.19h0c3.89-.79,6.71,3.11,6.59-.85-.25-8.25-.92-29.07-2.22-34.76l-1.21-6.18c-.06-.29-.35-1.17-.35-1.17s-1-.88-7-2.27Z"/><path class="cls-28" d="M61.22,89.41s.06-15.83-1.83-27.33"/><path class="cls-25" d="M38.17,63.17A114.21,114.21,0,0,1,26.4,84a5.59,5.59,0,0,1-4.49,1.8h0c-3.44-.15-4.9-3.86-3.6-6.88,0,0,6.11-17.56,11.53-24.08Z"/><path class="cls-30" d="M50.28,73.42l4.25,9.26L56,81.91l-4.14-9.19a.84.84,0,0,0-1.1-.43h0A.84.84,0,0,0,50.28,73.42Z"/><polygon class="cls-26" points="47.88 81.78 41.89 80.65 42.08 86.34 47.26 86.34 47.88 81.78"/><path class="cls-27" d="M47.88,81.78s12.33-6.27,10.81,4.55H46.46Z"/><path class="cls-25" d="M23.39,76.46,44.86,79l-.34,7.8-22.39-.47a5,5,0,0,1-3.94-6.73h0A5,5,0,0,1,23.39,76.46Z"/><polyline class="cls-28" points="37.09 64.35 31.09 77.36 41.42 78.56"/><line class="cls-28" x1="31.09" y1="77.36" x2="28.38" y2="78.18"/><polygon class="cls-23" points="87.98 144.85 97 144.85 111.92 152.83 86.27 152.52 87.98 144.85"/><polygon class="cls-31" points="86.18 155.34 86.27 152.52 111.92 152.83 111.83 155.64 86.18 155.34"/><line class="cls-32" x1="103.24" y1="147.79" x2="100.28" y2="148.6"/><line class="cls-32" x1="100.35" y1="146.3" x2="97.39" y2="147.11"/><polygon class="cls-27" points="93.7 132.13 84.51 132.13 87.98 144.85 97.18 144.85 93.7 132.13"/><path class="cls-23" d="M70.37,91.08l8.5.77a10.28,10.28,0,0,1,9.24,7.48l9,38.65-12.95.59L72.69,102.62Z"/><polygon class="cls-23" points="82.55 139.72 98.88 139.72 97.75 133.74 81.43 133.74 82.55 139.72"/><polygon class="cls-23" points="63.95 144.85 72.97 144.85 87.89 152.83 62.24 152.52 63.95 144.85"/><polygon class="cls-31" points="62.15 155.34 62.24 152.52 87.89 152.83 87.8 155.64 62.15 155.34"/><line class="cls-32" x1="79.21" y1="147.79" x2="76.25" y2="148.6"/><line class="cls-32" x1="76.32" y1="146.3" x2="73.36" y2="147.11"/><polygon class="cls-27" points="73.64 132.13 64.44 132.13 63.95 144.85 73.15 144.85 73.64 132.13"/><path class="cls-33" d="M29.14,91H69.49a7.71,7.71,0,0,1,7.72,7.59c.19,13-.81,41.22-1.42,41.1-.82-.17-13.32,0-13.32,0l.11-32.08-18.68-.42a30.93,30.93,0,0,1-5.25-.6C34,105.65,26.14,102.78,29.14,91Z"/><rect class="cls-33" x="61.08" y="133.74" width="16.88" height="5.98" transform="translate(139.04 273.45) rotate(180)"/><path class="cls-34" d="M58.61,24.72s.92,3.75-1.15,6L56,26.34Z"/><path class="cls-35" d="M54.67,36.51a2.72,2.72,0,1,0,2-3.26A2.73,2.73,0,0,0,54.67,36.51Z"/><polygon class="cls-27" points="50.17 43.31 49.92 54.03 41.87 53.34 43.85 35.91 50.17 43.31"/><polygon class="cls-34" points="50.04 49.02 44.28 41.95 50.13 43.89 50.04 49.02"/><path class="cls-27" d="M54,25c2.75.37,4.09,3.29,4.37,5.91.31,3,.59,7.69-.35,10-1.45,3.54-4.52,5.61-9.18,4.35,0,0-5.45-.67-6.23-8.88C41.62,26.64,48.09,24.22,54,25Z"/><path class="cls-34" d="M43.85,37.82l2.55-5.59c.27-1.4-.55-2.95-.85-4.65C51.44,25.33,52.68,25.41,57,27c0,0-2.19-4.65-11.24-3.82C33.26,24.36,34.8,38.3,43.17,42Z"/><path class="cls-27" d="M39.85,36.91a3,3,0,1,0,2.25-3.57A3,3,0,0,0,39.85,36.91Z"/><path class="cls-36" d="M41.48,35.29a2.18,2.18,0,0,1,2.63,2"/><path class="cls-34" d="M45.55,27.58s7,2.66,12.05.55c0,0,4.2-5.18-4.1-7-8.64-1.88-12,3.28-12,3.28Z"/><path class="cls-34" d="M56.71,35.74a.63.63,0,1,0,1.23-.23.63.63,0,0,0-1.23.23Z"/><path class="cls-34" d="M51.45,35.74a.62.62,0,1,0,1.22-.23.62.62,0,0,0-1.22.23Z"/><path class="cls-28" d="M55.56,36.44,56,37.75a.34.34,0,0,1-.27.42l-.66.13"/><path class="cls-34" d="M56.17,31.24s-.25.74.67.89a7,7,0,0,1,1.54.35.51.51,0,0,0,.61-.19h0a.47.47,0,0,0,0-.53,2.22,2.22,0,0,0-1.53-1C56.37,30.57,56.17,31.24,56.17,31.24Z"/><path class="cls-34" d="M52.94,31.27s.28.75-.91.88a12.82,12.82,0,0,0-2.49.6.75.75,0,0,1-.78-.2h0a.41.41,0,0,1,0-.54,4.86,4.86,0,0,1,2.51-1.25C52.7,30.59,52.94,31.27,52.94,31.27Z"/><path class="cls-28" d="M53.37,39.94a2.68,2.68,0,0,0,2.77-.09"/><path class="cls-37" d="M50.83,32.46,54.18,37s-1,1.93-2.62,1.72l-3.39-4.45S49.09,32.34,50.83,32.46Z"/><path class="cls-37" d="M58.46,32.57l2.63,4.48S60.3,39,59,38.74l-2.66-4.37S57.09,32.45,58.46,32.57Z"/><path class="cls-38" d="M54.45,35.63a3.28,3.28,0,1,1-3.28-3.28A3.28,3.28,0,0,1,54.45,35.63Z"/><path class="cls-39" d="M61.31,35.68c0,1.79-1.15,3.23-2.58,3.23s-2.58-1.44-2.58-3.23,1.16-3.22,2.58-3.22S61.31,33.9,61.31,35.68Z"/><path class="cls-38" d="M54.45,35.63a2.52,2.52,0,0,1,1.7,0"/><line class="cls-38" x1="47.89" y1="35.63" x2="45.24" y2="34.59"/><rect class="cls-24" x="72.66" y="32.52" width="58.47" height="39.27" rx="4.71"/><rect class="cls-22" x="76.79" y="32.52" width="58.47" height="39.27" rx="4.71"/><circle class="cls-24" cx="107.32" cy="47" r="3.43"/><path class="cls-40" d="M102.48,57l2.17,23.46a5.84,5.84,0,0,1-1.44,4.38H90.27a.73.73,0,0,0-.73.73h0a.73.73,0,0,0,.73.73h27.12l.24-.24a6,6,0,0,0,1.56-5.84L112.91,57Z"/><path class="cls-30" d="M59.59,84.82H81a.74.74,0,0,1,.74.74h0a.74.74,0,0,1-.74.73H59.59a.74.74,0,0,1-.74-.73h0A.74.74,0,0,1,59.59,84.82Z"/><rect class="cls-41" x="3.78" y="86.31" width="149.9" height="5.12" transform="translate(157.47 177.74) rotate(180)"/><line class="cls-42" x1="149.03" y1="92.96" x2="149.03" y2="161.38"/><line class="cls-42" x1="7.91" y1="92.96" x2="7.91" y2="161.38"/></g></g></g></g></svg>