<svg xmlns="http://www.w3.org/2000/svg" viewBox="0 0 203.8 151.4"><defs><style>.cls-1{isolation:isolate;}.cls-2{fill:#4ec0c4;opacity:0.25;}.cls-3{fill:#eaeaea;mix-blend-mode:multiply;}.cls-4{fill:#f7f7f7;}.cls-11,.cls-12,.cls-16,.cls-19,.cls-23,.cls-25,.cls-26,.cls-5,.cls-7,.cls-8{fill:none;}.cls-5,.cls-8{stroke:#fff;}.cls-12,.cls-16,.cls-19,.cls-26,.cls-5,.cls-7{stroke-miterlimit:10;}.cls-6{fill:#46c7ce;}.cls-7{stroke:#c2c2c2;}.cls-11,.cls-23,.cls-25,.cls-8{stroke-linecap:round;stroke-linejoin:round;}.cls-8{stroke-width:1.22px;}.cls-9{fill:#fa5;}.cls-10{fill:#fff;}.cls-11,.cls-23,.cls-25{stroke:#1b182b;}.cls-11{stroke-width:5.46px;}.cls-12{stroke:#363638;stroke-width:1.88px;}.cls-13{fill:#fdbc9c;}.cls-14{fill:#3aafaf;}.cls-15{fill:#2b827f;}.cls-16{stroke:#54382d;stroke-width:0.84px;}.cls-17{fill:#fdc8bd;}.cls-18{fill:#ffd371;}.cls-19{stroke:#d1a347;stroke-width:0.73px;}.cls-20{fill:#934c56;}.cls-21{fill:#fcb0a8;}.cls-22{fill:#1b182b;}.cls-23{stroke-width:0.56px;}.cls-24{fill:#783742;}.cls-25{stroke-width:0.71px;}.cls-26{stroke:#54382f;stroke-width:1.15px;}</style></defs><g class="cls-1"><g id="Layer_2" data-name="Layer 2"><g id="Option_1" data-name="Option 1"><path class="cls-2" d="M106.55,151.34c-57.6,1.17-83.1-16.86-83.1-16.86s-38-18.69-17.22-70C22.81,23.68,84.42-10.68,115.29,3.09s28.48,32,62.59,57.65,26.77,46.71,21,57.42C198.85,118.16,180.76,149.84,106.55,151.34Z"/><ellipse class="cls-3" cx="126.37" cy="141.03" rx="58.39" ry="4.46"/><rect class="cls-4" x="11.43" y="4.54" width="92.04" height="65.51" rx="2.36"/><line class="cls-5" x1="11.68" y1="26.44" x2="103.39" y2="26.44"/><line class="cls-5" x1="11.68" y1="46.93" x2="103.39" y2="46.93"/><circle class="cls-6" cx="26.76" cy="16.94" r="5.57"/><circle class="cls-6" cx="26.76" cy="36.63" r="5.57" transform="translate(-14.9 54.58) rotate(-77.16)"/><circle class="cls-6" cx="26.76" cy="57.06" r="5.57"/><line class="cls-7" x1="35.7" y1="14.53" x2="85.48" y2="14.53"/><line class="cls-7" x1="35.7" y1="18.43" x2="43.08" y2="18.43"/><line class="cls-7" x1="35.7" y1="34.43" x2="85.48" y2="34.43"/><line class="cls-7" x1="35.7" y1="38.32" x2="62.08" y2="38.32"/><line class="cls-7" x1="35.7" y1="55.06" x2="46.57" y2="55.06"/><line class="cls-7" x1="35.7" y1="58.96" x2="85.48" y2="58.96"/><polyline class="cls-8" points="24.52 17.53 26.1 18.61 28.99 15.28"/><polyline class="cls-8" points="24.52 37.17 26.1 38.24 28.99 34.92"/><polyline class="cls-8" points="24.52 57.65 26.1 58.72 28.99 55.4"/><path class="cls-9" d="M140.84,18.24h13.58A3.28,3.28,0,0,0,157.7,15h0a3.28,3.28,0,0,0-3.28-3.28H140.84A3.28,3.28,0,0,0,137.55,15h0A3.28,3.28,0,0,0,140.84,18.24Z"/><path class="cls-10" d="M150.51,15a.88.88,0,0,0,1.75,0,.87.87,0,0,0-.87-.88A.88.88,0,0,0,150.51,15Z"/><path class="cls-10" d="M146.75,15a.88.88,0,1,0,.88-.88A.88.88,0,0,0,146.75,15Z"/><path class="cls-10" d="M143,15a.88.88,0,1,0,.88-.88A.89.89,0,0,0,143,15Z"/><path class="cls-11" d="M134.18,102.81H151.3c9.63,0,16.36-6.21,18-15.7l4.25-25.23"/><path class="cls-12" d="M134.37,139.94l7.69-35.61a8.91,8.91,0,0,1,8.71-7h0a8.92,8.92,0,0,1,8.75,7.16l7,35.45"/><polygon class="cls-13" points="99.99 134.83 103.96 122.22 110.27 121.89 106.31 135.42 100.22 135.46 99.99 134.83"/><path d="M107.19,132.8S102,135,99.52,131.57L88.77,138.1l20-.13Z"/><rect class="cls-10" x="88.77" y="138.03" width="20.04" height="1.85" transform="translate(-0.89 0.64) rotate(-0.37)"/><path class="cls-10" d="M99.65,134.42a.33.33,0,0,1-.15-.11,7.54,7.54,0,0,0-1.65-1.61.33.33,0,0,1-.1-.47.37.37,0,0,1,.49-.09,7.71,7.71,0,0,1,1.84,1.78.33.33,0,0,1-.08.47A.37.37,0,0,1,99.65,134.42Z"/><path class="cls-10" d="M97.92,135.29a.39.39,0,0,1-.14-.12,7.8,7.8,0,0,0-1.65-1.61.31.31,0,0,1-.1-.46.36.36,0,0,1,.49-.1,8,8,0,0,1,1.83,1.78.32.32,0,0,1-.08.47A.39.39,0,0,1,97.92,135.29Z"/><path class="cls-10" d="M96.2,136.15a.33.33,0,0,1-.15-.11,7,7,0,0,0-1.65-1.61.33.33,0,0,1-.1-.47.35.35,0,0,1,.49-.09,7.54,7.54,0,0,1,1.84,1.77.33.33,0,0,1-.08.47A.4.4,0,0,1,96.2,136.15Z"/><path class="cls-14" d="M122.23,85.7l-5.49.35a9.1,9.1,0,0,0-8.19,6.64L100,125.82l11.92-1.11,9.6-29.1Z"/><polygon class="cls-15" points="112.79 127.36 98.4 127.36 99.4 122.06 113.79 122.06 112.79 127.36"/><polygon class="cls-13" points="123.01 134.83 123.19 122.39 129.5 122.06 129.33 135.42 123.24 135.46 123.01 134.83"/><path d="M130.21,132.8s-5.22,2.15-7.67-1.23l-10.75,6.53,20-.13Z"/><rect class="cls-10" x="111.79" y="138.03" width="20.04" height="1.85" transform="translate(-0.89 0.79) rotate(-0.37)"/><path class="cls-10" d="M122.67,134.42a.33.33,0,0,1-.15-.11,7.54,7.54,0,0,0-1.65-1.61.33.33,0,0,1-.1-.47.37.37,0,0,1,.49-.09,7.71,7.71,0,0,1,1.84,1.78.33.33,0,0,1-.08.47A.37.37,0,0,1,122.67,134.42Z"/><path class="cls-10" d="M120.94,135.29a.39.39,0,0,1-.14-.12,7.8,7.8,0,0,0-1.65-1.61.31.31,0,0,1-.1-.46.36.36,0,0,1,.49-.1,8,8,0,0,1,1.83,1.78.32.32,0,0,1-.08.47A.4.4,0,0,1,120.94,135.29Z"/><path class="cls-10" d="M119.22,136.15a.33.33,0,0,1-.15-.11,7,7,0,0,0-1.65-1.61.33.33,0,0,1-.1-.47.35.35,0,0,1,.49-.09,7.54,7.54,0,0,1,1.84,1.77.33.33,0,0,1-.08.47A.4.4,0,0,1,119.22,136.15Z"/><path class="cls-6" d="M156,85.11l-17.17.69L126,86.06c-3.74,0-6.79,2.25-6.85,6-.17,11.5.72,35.41,1.26,35.3.73-.14,11.24,0,11.24,0l1.07-26.12,8.23.89c2,0,8,.4,9.78-.51C154.47,99.72,159.26,95.27,156,85.11Z"/><rect class="cls-14" x="118.49" y="122.06" width="14.39" height="5.31"/><line class="cls-16" x1="132.72" y1="101.24" x2="132.52" y2="95.39"/><path class="cls-17" d="M106.18,64.7l-6.9-3.45a41.07,41.07,0,0,0-9.06.33.66.66,0,0,0-.5.79h0a.64.64,0,0,0,.7.49l3.16-.35-1.7,1.16A.72.72,0,0,0,92,64.92h0a.73.73,0,0,0,.66,0,7.09,7.09,0,0,1,6.81-.26l-2.7,1.21a.86.86,0,0,0-.28,1.36h0a.82.82,0,0,0,.74.27l2.51-.32a7.78,7.78,0,0,0,5.7-.11Z"/><path class="cls-18" d="M128.7,55.79c-2.19,5.35-5.31,16-5.31,16l-17.27-8.13-2.29,5.93,14.65,10,16-.67L135.7,66.4Z"/><path class="cls-18" d="M131.58,52.3a8.78,8.78,0,0,0-2.88,3.49l-1,29.91S146,89.57,156,85.11c0,0-.28-25-6-31.68,0,0-1.79-3.52-10.89-3.54A12.52,12.52,0,0,0,131.58,52.3Z"/><line class="cls-19" x1="129.97" y1="61.14" x2="131.29" y2="82.14"/><path class="cls-17" d="M112.21,78.49,112,73.33s-1.85-3.86-3.53-3.91a5.48,5.48,0,0,0-3.63,1.68.82.82,0,0,0,.22,1.29,7.51,7.51,0,0,1,2.65,2s-.82,4.16.56,5.87c.7.87,4.82,1.85,4.82,1.85Z"/><path class="cls-18" d="M140.25,54.85l-3.31,21L112.07,76.9v8.8l26.75-.65a2.89,2.89,0,0,0,2.35-.84l.27.13s7.25.12,9.29-24.62Z"/><polyline class="cls-19" points="114.38 76.8 136.95 75.78 139.64 58.77"/><line class="cls-19" x1="136.95" y1="75.78" x2="140.4" y2="76.8"/><path class="cls-19" d="M150.22,66.34l-2.51,11.2a13.34,13.34,0,0,1-4.35,7.23l-1.13.89"/><path class="cls-20" d="M127.1,30.73a11.34,11.34,0,0,1,0,4.76c-.63,1.8-2.6,2.65-1.71,7.36s-.06,4.82-.28,6.15c0,0,18.91,1.78,28.37-3.08l-3.37-5.79c-1.77-3.05-2.44-8.06-2.44-8.06l-7.25-2.78Z"/><path class="cls-20" d="M131.58,27.23c-.21-.06.63-1.31.84-1.38,3.37-1.07,10.56-2.49,14.21,3.42,2.69,4.34,0,12.51-5.65,15-5.38,2.35-4.47-15.47-4.47-15.47Z"/><path class="cls-21" d="M133,38.3A2.67,2.67,0,1,1,130,36,2.67,2.67,0,0,1,133,38.3Z"/><path class="cls-17" d="M133.88,45.42l.65,5.78a2.91,2.91,0,0,0,3.6,2.74h0c1.7-.21,3.2-1.28,3.21-3l-1.48-9Z"/><path class="cls-22" d="M134.28,49c4.06-.36,6.14-6.15,6.14-6.15l-6.62,2Z"/><path class="cls-17" d="M135.69,46.27h0c-3.43.18-6.39-2.37-6.63-5.16l-.54-6.59a6.5,6.5,0,0,1,5.71-7h0c3.57-.43,7.44,2,7.87,5.61l.37,5.3A7.12,7.12,0,0,1,135.69,46.27Z"/><path class="cls-20" d="M139.3,32.26c-1.63,2.42,1,5.87,1,5.87l5-6.06S140.26,30.82,139.3,32.26Z"/><path class="cls-17" d="M145.62,37.49a2.66,2.66,0,1,1-3-2.33A2.66,2.66,0,0,1,145.62,37.49Z"/><path class="cls-23" d="M142.14,38.71s-.23-1.92,1.65-1.84"/><polyline class="cls-23" points="132.31 40.11 132.26 40.9 133.03 40.9"/><path class="cls-24" d="M136.16,35.31s-1.48-.06-1.47.42c0,0,0,.32,1.31.35s1.62,0,1.73-.36S136.86,35.29,136.16,35.31Z"/><path class="cls-24" d="M130.24,35.5s1.22-.13,1.34.32c0,0,.07.3-1,.4s-1.42,0-1.53-.25S129.66,35.52,130.24,35.5Z"/><path class="cls-25" d="M134.79,38.42s.66-.94,1.88,0"/><path class="cls-25" d="M129.71,38.61a.83.83,0,0,1,1.41-.06"/><path class="cls-25" d="M133.54,42.29a1.9,1.9,0,0,0,1.83-.78"/><path class="cls-20" d="M132.42,25.85s-7.31,2.64-5.79,5.39c1.12,2,8.48,3.3,15.47,1.87,0,0,3.18-2.59-.76-5.28C141.34,27.83,139.22,24.84,132.42,25.85Z"/><path class="cls-17" d="M132.52,51.66a13.83,13.83,0,0,1,5.16-1.77,26.81,26.81,0,0,1,6.73.5s-.2,3.26-6.37,4a9.45,9.45,0,0,1-3.63-.22C133.23,53.82,133,53,132.52,51.66Z"/><path class="cls-9" d="M111.87,84.25h-21V81.88h21a1.18,1.18,0,0,1,1.18,1.18h0A1.18,1.18,0,0,1,111.87,84.25Z"/><path class="cls-9" d="M93.68,84.25H63.6a3.56,3.56,0,0,1-3.43-2.61L54.24,60.33a1.23,1.23,0,0,1,1.18-1.56H85.85a1.47,1.47,0,0,1,1.42,1.09Z"/><path class="cls-10" d="M75,72a2.63,2.63,0,1,1-2.63-2.63A2.63,2.63,0,0,1,75,72Z"/><line class="cls-26" x1="85.9" y1="87.05" x2="85.9" y2="139.94"/><rect class="cls-10" x="40.11" y="84.25" width="89.36" height="5.61"/></g></g></g></svg>