<svg xmlns="http://www.w3.org/2000/svg" viewBox="0 0 30.34 40.42"><defs><style>.cls-1{fill:#fa5;}</style></defs><g id="Layer_2" data-name="Layer 2"><g id="Option_1" data-name="Option 1"><path class="cls-1" d="M27.24,0H3.1A3.1,3.1,0,0,0,0,3.1V37.32a3.1,3.1,0,0,0,3.1,3.1H27.24a3.1,3.1,0,0,0,3.1-3.1V3.1A3.1,3.1,0,0,0,27.24,0ZM1.31,3.1A1.79,1.79,0,0,1,3.1,1.31H27.24A1.79,1.79,0,0,1,29,3.1V37.32a1.79,1.79,0,0,1-1.79,1.79H3.1a1.79,1.79,0,0,1-1.79-1.79Z"/><path class="cls-1" d="M4.78,14.39H25.56a.66.66,0,0,0,.65-.66V5a.65.65,0,0,0-.65-.65H4.78A.65.65,0,0,0,4.13,5v8.71A.66.66,0,0,0,4.78,14.39Zm.65-1.31V5.68H24.9v7.4Z"/><path class="cls-1" d="M5.39,21.65h3.1a1.26,1.26,0,0,0,1.26-1.27V18.62a1.25,1.25,0,0,0-1.26-1.26H5.39a1.25,1.25,0,0,0-1.26,1.26v1.76A1.26,1.26,0,0,0,5.39,21.65Zm0-1.31V18.67h3v1.68Z"/><path class="cls-1" d="M16.72,17.36h-3.1a1.26,1.26,0,0,0-1.27,1.26v1.76a1.27,1.27,0,0,0,1.27,1.27h3.1A1.27,1.27,0,0,0,18,20.38V18.62A1.26,1.26,0,0,0,16.72,17.36Zm0,1.3v1.68h-3V18.67Z"/><path class="cls-1" d="M24.94,17.36H21.85a1.26,1.26,0,0,0-1.27,1.26v1.76a1.27,1.27,0,0,0,1.27,1.27h3.09a1.27,1.27,0,0,0,1.27-1.27V18.62A1.26,1.26,0,0,0,24.94,17.36Zm0,1.3v1.68h-3V18.67Z"/><path class="cls-1" d="M5.39,28.91h3.1a1.26,1.26,0,0,0,1.26-1.27V25.88a1.26,1.26,0,0,0-1.26-1.26H5.39a1.26,1.26,0,0,0-1.26,1.26v1.76A1.26,1.26,0,0,0,5.39,28.91Zm0-1.31V25.93h3V27.6Z"/><path class="cls-1" d="M16.72,24.62h-3.1a1.27,1.27,0,0,0-1.27,1.26v1.76a1.27,1.27,0,0,0,1.27,1.27h3.1A1.27,1.27,0,0,0,18,27.64V25.88A1.27,1.27,0,0,0,16.72,24.62Zm0,1.31V27.6h-3V25.93Z"/><path class="cls-1" d="M5.39,36.17h3.1A1.26,1.26,0,0,0,9.75,34.9V33.14a1.26,1.26,0,0,0-1.26-1.26H5.39a1.26,1.26,0,0,0-1.26,1.26V34.9A1.26,1.26,0,0,0,5.39,36.17Zm0-1.31V33.19h3v1.67Z"/><path class="cls-1" d="M16.72,31.88h-3.1a1.27,1.27,0,0,0-1.27,1.26V34.9a1.27,1.27,0,0,0,1.27,1.27h3.1A1.27,1.27,0,0,0,18,34.9V33.14A1.27,1.27,0,0,0,16.72,31.88Zm0,1.31v1.67h-3V33.19Z"/><path class="cls-1" d="M25.13,24.66H21.66a1,1,0,0,0-1,1v9.4a1,1,0,0,0,1,1h3.47a1,1,0,0,0,1-1v-9.4A1,1,0,0,0,25.13,24.66Zm-.26,10.17H21.92V26h2.95Z"/></g></g></svg>