<svg xmlns="http://www.w3.org/2000/svg" viewBox="0 0 209.44 165.9"><defs><style>.cls-1{isolation:isolate;}.cls-2{opacity:0.3;}.cls-3{fill:#ffd371;}.cls-4{fill:#eaeaea;mix-blend-mode:multiply;}.cls-5{fill:#fa5;}.cls-6{fill:#fff;}.cls-10,.cls-12,.cls-15,.cls-19,.cls-22,.cls-34,.cls-37,.cls-7{fill:none;}.cls-7{stroke:#fa5;stroke-width:0.75px;}.cls-10,.cls-15,.cls-19,.cls-22,.cls-34,.cls-37,.cls-7{stroke-linecap:round;stroke-linejoin:round;}.cls-8{fill:#0b181b;}.cls-9{fill:#f6afa4;}.cls-10,.cls-19{stroke:#fff;}.cls-10{stroke-width:0.96px;}.cls-11{fill:#e58d81;}.cls-12{stroke:#54382d;stroke-miterlimit:10;stroke-width:0.72px;}.cls-13{fill:#e8c7cd;}.cls-14{fill:#0b0b0b;}.cls-15{stroke:#031932;stroke-width:0.46px;}.cls-16{fill:#a9a9a9;}.cls-17{fill:#666;}.cls-18{fill:#070707;}.cls-19{stroke-width:0.67px;}.cls-20{fill:#fdafa6;}.cls-21{fill:#2f4c9f;}.cls-22,.cls-34,.cls-37{stroke:#1d0300;}.cls-22{stroke-width:0.42px;}.cls-23{fill:#c7b3a4;}.cls-24{fill:#090b0c;}.cls-25{fill:#3c5057;}.cls-26{fill:#7d949a;}.cls-27{fill:#ec928c;}.cls-28{fill:#1d0300;}.cls-29{fill:#ed574b;}.cls-30{fill:#101010;}.cls-31{fill:#af4739;}.cls-32{fill:#363638;}.cls-33{fill:#75c189;}.cls-34{stroke-width:0.36px;}.cls-35{fill:#a6ddb3;}.cls-36{fill:#331226;}.cls-37{stroke-width:0.36px;}</style></defs><g class="cls-1"><g id="Layer_2" data-name="Layer 2"><g id="Option_1" data-name="Option 1"><g class="cls-2"><path class="cls-3" d="M203.82,54.36c5.26,9.48,8.44,22,2.11,30.77-3.75,5.21-10.2,8.05-13.45,13.6-4.19,7.12-1.81,16.27,1.43,23.89s7.32,15.51,6.19,23.73c-1.49,10.79-12.15,18.55-22.86,19.44s-21.17-3.72-30.15-9.71-17.45-13.58-28-15.1c-9-1.3-18,2.12-26.14,6.31S77,156.54,68.2,158.92c-16.86,4.57-36.15-2.22-46.61-16.39s-11.41-34.86-2.32-50c3.14-5.22,7.46-11.65,4.15-16.77-3-4.59-10.09-4.22-13.83-8.19C5.3,63,7.54,55.49,10.77,50.11A66.65,66.65,0,0,1,37.3,25.28s90.58-52,139-6.89C196.72,37.39,203.82,54.36,203.82,54.36Z"/></g><ellipse class="cls-4" cx="100.72" cy="151.05" rx="100.72" ry="5.31"/><rect class="cls-5" x="61.83" y="23.04" width="19.01" height="13.51" rx="3.24"/><path class="cls-5" d="M64.39,35.45l1.46,2.83a.5.5,0,0,0,.88,0l1.75-2.86Z"/><rect class="cls-6" x="66.91" y="26.86" width="9.09" height="5.69" transform="translate(142.92 59.41) rotate(-180)"/><polyline class="cls-7" points="76 26.86 71.59 29.74 66.91 26.86"/><path class="cls-8" d="M91.41,96.23c-.51.42-7.13,4-11.13,9.15l8,7.37,13.24-3.17.78-13.35Z"/><polygon class="cls-9" points="89.3 144.3 87.89 136.81 92.72 136.81 93.3 144.3 89.3 144.3"/><path d="M93.3,143.59h-4a8.68,8.68,0,0,0-3.5,4.84H97S95.19,144.45,93.3,143.59Z"/><rect class="cls-6" x="85.8" y="148.43" width="11.23" height="1.39"/><path class="cls-10" d="M89.15,145.48s2.37-1.24,4.15,0"/><path class="cls-8" d="M90.81,108.05c1.58,11,4.29,31.81,4.29,31.81l-9.35.18-6.46-29.9a5.85,5.85,0,0,1,4.66-7h0A5.85,5.85,0,0,1,90.81,108.05Z"/><path class="cls-8" d="M111.53,96.23c.5.42,7.12,4,11.13,9.15l-8,7.37-13.25-3.17-.78-13.35Z"/><polygon class="cls-9" points="113.09 144.3 114.5 136.81 109.67 136.81 109.09 144.3 113.09 144.3"/><path d="M109.09,143.59h4a8.68,8.68,0,0,1,3.5,4.84H105.36S107.2,144.45,109.09,143.59Z"/><rect class="cls-6" x="105.36" y="148.43" width="11.23" height="1.39" transform="translate(221.95 298.26) rotate(180)"/><path class="cls-10" d="M113.24,145.48s-2.37-1.24-4.15,0"/><path class="cls-8" d="M112.12,108.05c-1.57,11-5,31.81-5,31.81l9.35.18,7.14-29.9a5.85,5.85,0,0,0-4.67-7h0A5.85,5.85,0,0,0,112.12,108.05Z"/><path class="cls-3" d="M100.26,65.61a23,23,0,0,0-14.69,6.12V88.89s29.81.46,29.81,0V70.6A25.72,25.72,0,0,0,100.26,65.61Z"/><path class="cls-11" d="M87.68,87.93h-8.5a4,4,0,0,0-4,4h0a4,4,0,0,0,4,4h10Z"/><polygon class="cls-11" points="75.64 90.03 81.35 80.75 89.17 81.81 88.01 91.97 75.64 90.03"/><line class="cls-12" x1="85.57" y1="87.93" x2="80.52" y2="87.93"/><path class="cls-3" d="M86.83,70.6s-4.59,3.71-9.44,11.88c0,0,1,4.73,10.07,5.45Z"/><path class="cls-11" d="M114.27,87.93h8.5a4,4,0,0,1,4,4h0a4,4,0,0,1-4,4h-10Z"/><polygon class="cls-11" points="126.29 89.99 119.14 79.05 112.77 81.81 113.93 91.97 126.29 89.99"/><line class="cls-12" x1="114.75" y1="87.93" x2="121.42" y2="87.93"/><path class="cls-3" d="M115.38,70.6s4.6,3.71,9.45,11.88c0,0-1,4.73-10.08,5.45Z"/><rect class="cls-13" x="85.57" y="76.2" width="29.8" height="19.81" rx="1.93"/><path class="cls-6" d="M102.3,86.11a1.83,1.83,0,1,1-1.83-1.83A1.82,1.82,0,0,1,102.3,86.11Z"/><path class="cls-11" d="M97.19,62h6.55a0,0,0,0,1,0,0v3.29a3.26,3.26,0,0,1-3.26,3.26h0a3.26,3.26,0,0,1-3.26-3.26V62A0,0,0,0,1,97.19,62Z"/><path class="cls-14" d="M97.21,62.27s1,2.93,6.53,2.83v-4h0s-.37.76-2.86.65A7.2,7.2,0,0,0,97.21,62.27Z"/><ellipse class="cls-8" cx="100.42" cy="51" rx="8.13" ry="8.34"/><path class="cls-11" d="M107.44,54.05a1.46,1.46,0,0,1,1.79-.48c1.21.46.67,3.39-1.14,3.77a1.43,1.43,0,0,1-1.16-.31S107.37,54.87,107.44,54.05Z"/><path class="cls-15" d="M109,54.61s-1-.34-1.73,1.15"/><path class="cls-11" d="M93.58,54.05a1.46,1.46,0,0,0-1.79-.48c-1.21.46-.67,3.39,1.15,3.77A1.41,1.41,0,0,0,94.09,57S93.65,54.87,93.58,54.05Z"/><path class="cls-15" d="M92,54.61s1-.34,1.73,1.15"/><path class="cls-11" d="M107.56,51.52c0,1.88-.2,5.81-1.42,8.14a6.08,6.08,0,0,1-5.51,3.44c-2.48.07-4.33-.83-5.81-3.68s-1.41-7.87-1.41-7.87,0-6.71,7-6.71C107.78,44.84,107.56,51.52,107.56,51.52Z"/><path class="cls-8" d="M93.58,54.05S96.24,48,94.09,47C94.09,47,92.56,52.21,93.58,54.05Z"/><path class="cls-8" d="M107.42,54.05s-1.49-3.28-.18-5.64C107.24,48.41,108.44,52.21,107.42,54.05Z"/><path class="cls-8" d="M98,55.53a.64.64,0,0,1-.64.64.64.64,0,1,1,.64-.64Z"/><path class="cls-8" d="M104,55.53a.64.64,0,0,1-.64.64.64.64,0,1,1,.64-.64Z"/><path class="cls-15" d="M100,56.92v.86a.34.34,0,0,0,.4.34l.45-.1"/><path class="cls-8" d="M99.29,53.55,95.41,54a2,2,0,0,1,1.9-1.2C98.89,52.63,99.29,53.55,99.29,53.55Z"/><path class="cls-8" d="M101.52,53.55l3.88.46a2.06,2.06,0,0,0-1.9-1.2C101.92,52.63,101.52,53.55,101.52,53.55Z"/><path class="cls-6" d="M98.41,59.11h3.91s.07,1.46-2,1.37S98.41,59.11,98.41,59.11Z"/><path class="cls-8" d="M94.09,47s4.37,5.29,13.62,3.53a5.59,5.59,0,0,0-4-6.25C99,42.8,95.23,46.26,94.09,47Z"/><path class="cls-8" d="M94.09,47S94,42.63,98,42s4.15,1.5,7,1.67c4.25.26,6.19,4.44,2.69,6.86L101.8,47Z"/><path class="cls-8" d="M94.25,45.71s-4.39.54-1.68,7.49Z"/><polygon class="cls-6" points="97.19 64.91 100.42 68.54 98.03 70.98 94.96 66.34 97.19 64.91"/><polygon class="cls-6" points="103.74 65.1 100.42 68.54 102.81 70.98 106.22 66.33 103.74 65.1"/><rect class="cls-16" x="53.47" y="96.01" width="93.13" height="5.16"/><rect class="cls-16" x="67.99" y="101.17" width="3.24" height="48.83"/><rect class="cls-17" x="67.99" y="101.17" width="3.24" height="1.63"/><rect class="cls-16" x="131.31" y="101.17" width="3.24" height="48.83"/><rect class="cls-17" x="131.31" y="101.17" width="3.24" height="1.63"/><polygon class="cls-18" points="20.02 141.9 26.57 141.9 37.4 147.69 18.77 147.47 20.02 141.9"/><polygon class="cls-6" points="18.71 149.51 18.77 147.47 37.4 147.69 37.34 149.74 18.71 149.51"/><line class="cls-19" x1="31.1" y1="144.03" x2="28.95" y2="144.62"/><line class="cls-19" x1="29" y1="142.95" x2="26.85" y2="143.54"/><polygon class="cls-20" points="27.63 133.2 20.95 133.2 20.02 141.9 26.7 141.9 27.63 133.2"/><polygon class="cls-18" points="38.1 141.9 44.65 141.9 55.48 147.69 36.85 147.47 38.1 141.9"/><polygon class="cls-6" points="36.79 149.51 36.85 147.47 55.48 147.69 55.42 149.74 36.79 149.51"/><line class="cls-19" x1="49.18" y1="144.03" x2="47.03" y2="144.62"/><line class="cls-19" x1="47.08" y1="142.95" x2="44.93" y2="143.54"/><polygon class="cls-20" points="44.55 133.2 37.88 133.2 38.1 141.9 44.77 141.9 44.55 133.2"/><path class="cls-21" d="M43.56,66.4s.5,1,1.4,10.78c.19,2,.3,4.78.28,6.79l.47,54L35,137.92l.52-50.34a.13.13,0,0,0-.25,0l-6.73,50.89-10-.33,5.57-70.21,5.11-.7Z"/><line class="cls-22" x1="35.28" y1="87.36" x2="40.35" y2="85.46"/><path class="cls-23" d="M46.36,40.29s5.9,3.45,5.36,15.68l-5.52.23Z"/><path class="cls-23" d="M40.52,36.15l5.84,4.14s2.52,2.5,2.56,3.88l.93,33.93a2.67,2.67,0,0,1-4.1,2.33l-.59-.37Z"/><path class="cls-22" d="M46.86,45.9S48,50.11,48,59.11"/><path class="cls-6" d="M40.52,36.15s4.36,10.7,3.52,31.7H30.34l2.76-32.7Z"/><path class="cls-23" d="M33.1,35.15l-10,7.11a3.76,3.76,0,0,0-1.57,2.93l-1.1,31.92,8.59,3.42c3.77.94,5.58,1,5.82-2.5C35.61,66.91,36.36,49.64,33.1,35.15Z"/><path class="cls-23" d="M21.84,43.93c-3.37,7.44-6.9,22.86-6.9,22.86a4.93,4.93,0,1,0,9.78,1.3L30.82,47C31.86,40.73,21.84,43.93,21.84,43.93Z"/><line class="cls-22" x1="30.34" y1="48.25" x2="29.06" y2="52.89"/><path class="cls-20" d="M32.69,51.4s1.09-3.95,5-4.34,5.12,2.72,4.38,4.77-3.32,5.37-7.22,3.67S32.69,51.4,32.69,51.4Z"/><path class="cls-20" d="M39.05,47.07a24.45,24.45,0,0,1,6.77,1.85.75.75,0,0,1,.41.79h0a.77.77,0,0,1-.9.66l-5.36-1Z"/><polygon class="cls-23" points="23.41 70.92 34.24 59.91 33.3 49.51 22.78 58.13 23.41 70.92"/><line class="cls-22" x1="33.29" y1="49.51" x2="22.68" y2="58.37"/><path class="cls-22" d="M33.8,55.1l.44,4.81-10.83,11a8.82,8.82,0,0,1-2.69,1.56"/><path class="cls-24" d="M58.06,53.3,54,72a1.36,1.36,0,0,1-1.37,1.08l-15-.26a1.37,1.37,0,0,1-1.32-1.68l4.2-18.69A1.37,1.37,0,0,1,42,51.38l14.78.26A1.37,1.37,0,0,1,58.06,53.3Z"/><polygon class="cls-24" points="57.65 52 58.54 52.91 37.58 73.25 36.63 72.27 57.65 52"/><path class="cls-25" d="M58.86,54.12l-4,18.69a1.37,1.37,0,0,1-1.37,1.09l-15-.26A1.38,1.38,0,0,1,37.18,72l4.21-18.69a1.37,1.37,0,0,1,1.36-1.08l14.79.26A1.38,1.38,0,0,1,58.86,54.12Z"/><path class="cls-26" d="M50.63,61a1.6,1.6,0,1,1-1.76-1.42A1.6,1.6,0,0,1,50.63,61Z"/><path class="cls-20" d="M59.13,59.66,58,64.22a1.23,1.23,0,0,1-1.21.94h0a2.72,2.72,0,0,1-2.63-3.23l.29-1.52A2.72,2.72,0,0,1,57,58.2l.9-.06A1.23,1.23,0,0,1,59.13,59.66Z"/><path class="cls-27" d="M43.56,25.35a2.18,2.18,0,1,0,1.93-2.41A2.19,2.19,0,0,0,43.56,25.35Z"/><polygon class="cls-20" points="41.05 29.68 40.52 36.15 39.05 39.56 33.1 35.15 36.06 24.07 41.05 29.68"/><polygon class="cls-28" points="40.68 34.16 36.11 29.12 41.05 29.68 40.68 34.16"/><path class="cls-20" d="M43.43,13.6a5.08,5.08,0,0,1,4,5.18c-.08,2.84-.35,7.46-1.35,9.21-1.47,2.6-4.11,3.94-7.69,2.59,0,0-4.27-1-4.14-7.34C34.4,16.33,39.35,12.87,43.43,13.6Z"/><path class="cls-29" d="M36.51,23l.55-3.16a9.68,9.68,0,0,0,3.63-5.18s-.1-2.26-3.48-1.72-6.53,2.47-3.83,8.86Z"/><path class="cls-20" d="M31.25,23.58a2.65,2.65,0,1,0,2.34-2.93A2.64,2.64,0,0,0,31.25,23.58Z"/><path class="cls-22" d="M32.85,22.3a1.94,1.94,0,0,1,2.13,2"/><path class="cls-29" d="M37.06,19.83l1.4,6.42s5.1-.9,8.2.83l-.26,1.78c-.35,2.38-2.3,3.16-5.09,2.82-2.15-.26-5.05-1.54-6.07-3.79l.44-6.55Z"/><path class="cls-30" d="M45.71,23.55a.5.5,0,1,0,.46-.53A.49.49,0,0,0,45.71,23.55Z"/><path class="cls-30" d="M41.4,22.84a.48.48,0,0,0,.53.46.49.49,0,0,0,.46-.53.5.5,0,0,0-.53-.46A.49.49,0,0,0,41.4,22.84Z"/><path class="cls-22" d="M44.75,23.78l.19,1.44a.31.31,0,0,1-.28.34l-.69.05"/><path d="M44,20.52l-3.95.09A2.25,2.25,0,0,1,42,19.56,2.44,2.44,0,0,1,44,20.52Z"/><path d="M45.7,20.69l2,.69a1.22,1.22,0,0,0-.7-1.12A1.4,1.4,0,0,0,45.7,20.69Z"/><path class="cls-22" d="M42.24,26.8a3.38,3.38,0,0,0,2.52.37"/><path class="cls-29" d="M37.56,16.4s6.3-1.67,11,.65c0,0,0-9.44-11.91-4Z"/><path class="cls-5" d="M117.75,23.1h15.63a1.5,1.5,0,0,1,1.5,1.5v6.27a1.5,1.5,0,0,1-1.5,1.5H119.25a1.5,1.5,0,0,1-1.5-1.5V23.1A0,0,0,0,1,117.75,23.1Z" transform="translate(252.63 55.47) rotate(-180)"/><polygon class="cls-5" points="134.88 30.45 134.89 34.54 131.4 30.46 134.88 30.45"/><path class="cls-6" d="M123.43,27.63a.78.78,0,0,1-.77.77.77.77,0,0,1,0-1.54A.77.77,0,0,1,123.43,27.63Z"/><path class="cls-6" d="M126.73,27.62a.76.76,0,0,1-.76.77.77.77,0,1,1,0-1.54A.76.76,0,0,1,126.73,27.62Z"/><path class="cls-6" d="M130,27.61a.77.77,0,1,1-.77-.77A.77.77,0,0,1,130,27.61Z"/><path d="M155.23,145.3l-4.1,1.86a1,1,0,0,0-.59,1.14c.09.36.42.71,1.32.75,2,.1,10.86-1,10.86-1l0,1.33,4.13.05s.43-5.46-.8-6.18Z"/><path class="cls-31" d="M161.46,140.81l-6.23,4.49s.63,1.81,3.75.72,7-2.76,7-2.76l-.06-2.92-4.41-.53Z"/><path d="M168.27,145.43l-4,2a1,1,0,0,0-.56,1.15c.11.36.45.69,1.35.71,2,0,10.82-1.34,10.82-1.34v1.33l4.13-.08s.26-5.47-1-6.16Z"/><path class="cls-31" d="M174.36,140.75l-6.09,4.68s.7,1.79,3.78.6,6.94-3,6.94-3l-.16-2.91Z"/><path class="cls-32" d="M166.41,140.79s3.08-16.51.08-30.15l.73-21.55,6.41,51.47s4.71,1.71,6,0,1.18-21.84-.69-29.78L178,71.15l-2.35-8.92-14.85-.58-4.15,3.23a109.33,109.33,0,0,0-1.22,18.5c.24,9.72,5.06,57.41,5.06,57.41S165.44,141.76,166.41,140.79Z"/><path class="cls-33" d="M161.05,36.41s-6.61,1.48-7.88,10.18l4.18,3.67Z"/><path class="cls-20" d="M147.47,61.58c.12-.2,2.65,1.13,2.73.91a96.43,96.43,0,0,0,5.2-10.59c.76-1.78-.17-7.26-2.1-7.44-1.41-.13-3.13,2.49-3.48,3.87l-3.63,8.8Z"/><path class="cls-31" d="M149.25,57.94l-13.61-7.57-1.28,1.38,10.93,11.13a3.19,3.19,0,0,0,5.23-1h0A3.19,3.19,0,0,0,149.25,57.94Z"/><path class="cls-31" d="M129.89,49.65A4.37,4.37,0,0,0,131.52,54c1.49,1.16,3.47,1.12,4.4-.08s0-6.23-1.5-7.4S130.44,46.88,129.89,49.65Z"/><path class="cls-6" d="M174.53,62.66l-16.08-.18L159,38.87l12,2.2Z"/><path class="cls-31" d="M171,36.29l-4.81-.9-3.56.59-2.83,5.56s-.85,2.55,3.53,3a8.22,8.22,0,0,0,8.22-4.49A4.38,4.38,0,0,0,171,36.29Z"/><path class="cls-33" d="M162.65,36s-3.71,7.55-2.91,15.41S157,70.93,157,70.93l-.73-25.1S156.41,36.8,162.65,36Z"/><path class="cls-34" d="M156.74,42.46s-1.52,3.59-.58,9.67"/><path class="cls-33" d="M171,36.29s-9.81,15.78,7,34.86l-2.76-33.68Z"/><path class="cls-33" d="M175.24,37.46s8.09,1.82,8.28,18.17l-9.69-1-1.16-13.31Z"/><path class="cls-35" d="M174,58.58s-2.09-2.1-.21-4c0,0,5.77-.82,9.81,1a2.13,2.13,0,0,1,1.26,2.16,3.24,3.24,0,0,1-1.44,2.38S181.34,58.67,174,58.58Z"/><line class="cls-34" x1="173.83" y1="54.59" x2="172.35" y2="44.67"/><path class="cls-31" d="M174,58.58l-15.1,1.71.8,3,20.37.77c2,.07,3-1.88,3.35-3.9h0A12,12,0,0,0,174,58.58Z"/><path class="cls-31" d="M153,61.75c.05,1.88,2,3.36,4.32,3.29s5.58-1.46,5.52-3.34-4.39-4.47-6.72-4.4S152.92,59.87,153,61.75Z"/><path class="cls-25" d="M159.63,60.08l-23.74-.3a1.9,1.9,0,0,1-1.82-1.42L129.66,41.7a1.24,1.24,0,0,1,1.22-1.56l23.11.29a1,1,0,0,1,.93.74Z"/><path class="cls-26" d="M144.65,50.74a1.81,1.81,0,1,1-1.79-1.83A1.81,1.81,0,0,1,144.65,50.74Z"/><path d="M173.61,18.13s1,6.49,3.24,10.15a1.5,1.5,0,0,1-.49,2c-2.66,1.67-10.11,4.8-19.52,1a1.52,1.52,0,0,1-.91-1.59c.22-1.75,1.78-5.17,4-8.22Z"/><path class="cls-31" d="M160.42,24A2.19,2.19,0,1,1,159,21.22,2.19,2.19,0,0,1,160.42,24Z"/><polygon class="cls-31" points="162.91 28.44 163.01 37.3 169.38 37.11 167.18 23.53 162.91 28.44"/><polygon class="cls-36" points="162.97 33.32 167.22 28.78 162.92 29.76 162.97 33.32"/><path class="cls-31" d="M159,15.51a3.19,3.19,0,0,0-1.07,1.81c-.45,2.09-1.32,6.43-.61,8.66.93,2.9,3.25,4.76,7,4.09,0,0,4.39-.15,5.56-6.59C171.56,14.34,163.75,11.58,159,15.51Z"/><path d="M158.63,23.91a.5.5,0,1,1-.35-.61A.49.49,0,0,1,158.63,23.91Z"/><path d="M162.86,24.05a.5.5,0,0,1-.62.35.49.49,0,0,1-.34-.61.48.48,0,0,1,.61-.35A.5.5,0,0,1,162.86,24.05Z"/><path class="cls-37" d="M159.47,25l-.4.92a.25.25,0,0,0,.16.34l.53.15"/><path d="M160.83,21.41l3.57.13a2,2,0,0,0-1.72-1A2.23,2.23,0,0,0,160.83,21.41Z"/><path d="M156.71,21.39l2.18,0s-.27-.92-1-.93S156.71,21.39,156.71,21.39Z"/><path class="cls-37" d="M162.88,26.82a2.79,2.79,0,0,1-2.8.6"/><path d="M168.25,22.78s-3.09-.41-1.76-6A38.33,38.33,0,0,1,158,17s1.11-6.09,9.88-4.51c9.12,1.63,5.61,12.15,2.18,15.2Z"/><path class="cls-31" d="M172.65,24.68a2.55,2.55,0,1,1-1.66-3.2A2.55,2.55,0,0,1,172.65,24.68Z"/><path class="cls-37" d="M171.38,23.18A1.87,1.87,0,0,0,169,24.67"/><path d="M164.53,12.26s-7.65,0-8.68,6.1l12.1.43.78-4Z"/></g></g></g></svg>