<svg xmlns="http://www.w3.org/2000/svg" viewBox="0 0 236.63 172.72"><defs><style>.cls-1{isolation:isolate;}.cls-2{opacity:0.7;}.cls-2,.cls-4,.cls-5,.cls-7{mix-blend-mode:multiply;}.cls-3,.cls-5{fill:#eaeaea;}.cls-6{fill:#826239;}.cls-7{opacity:0.5;}.cls-8{fill:#603813;}.cls-9{fill:#bc926d;}.cls-10{fill:#cc1525;}.cls-11{fill:#281728;}.cls-12{fill:#ec7738;}.cls-13{fill:#fff;}.cls-14{fill:#f0d5ba;}.cls-15{fill:#fa5;}.cls-16{fill:#b27150;}.cls-17{fill:#ce8f74;}.cls-18{fill:#00433b;}.cls-19{fill:#006c60;}.cls-20{fill:#55a062;}.cls-21{fill:#75c189;}.cls-22{fill:#ffd371;}.cls-23{fill:#594b53;}</style></defs><g class="cls-1"><g id="Layer_2" data-name="Layer 2"><g id="Option_1" data-name="Option 1"><g class="cls-2"><path class="cls-3" d="M217.05,136.86c41.24-35.6,4.54-55.31,4.54-55.31a42.67,42.67,0,0,1-16.33-18.48c-7-15.36,4.72-35.06-3.73-49.72C195.31,2.56,180.44-.65,167.63,1S142.73,8,130,10c-15.3,2.32-30.79-.33-46.12-2S52.34,5.9,38.21,12.13s-25.41,21-22.44,35.6c1.35,6.56,5.39,12.82,4.28,19.46C18.33,77.46,5.55,82.71,1.35,92.33c-4.11,9.4,1.93,19.46,7.76,27.81,23.64,33.93,64.47,46,97.48,49.51C106.59,169.65,170.93,176.67,217.05,136.86Z"/></g><g class="cls-4"><ellipse class="cls-5" cx="119.62" cy="169.62" rx="59.51" ry="3.1"/></g><polygon class="cls-6" points="140.48 151.42 140.48 169.62 148.03 169.62 152.35 154.15 153.95 148.42 140.48 151.42"/><g class="cls-7"><path class="cls-8" d="M140.48,151.42v4.64c3.43-.38,8.31-1.24,11.87-1.91l1.6-5.73Z"/></g><polygon class="cls-6" points="97.95 151.42 97.95 169.62 90.4 169.62 86.09 154.15 84.49 148.42 97.95 151.42"/><g class="cls-7"><path class="cls-8" d="M98,151.42v4.64c-3.42-.38-8.3-1.24-11.86-1.91l-1.6-5.73Z"/></g><path class="cls-9" d="M63,44.09c.73,7.68,7.18,35.64,10.42,49.42.33,1.37.62,2.61.87,3.66.61,2.59,1,4.12,1,4.12l69.48-1.45.53-2.47c2.48-11.63,12.73-60.67,10-65.45a4.17,4.17,0,0,0-.84-1,8.79,8.79,0,0,0-.9-.68,10.56,10.56,0,0,0-1.13-.66c-5-2.66-15.51-4.87-27.42-6.18-14-1.54-30-1.82-41.42-.08l-1,.15-2.39.42c-14.9,2.83-17.78,6.88-17.88,12.63h0A75.48,75.48,0,0,0,63,44.09Z"/><path class="cls-6" d="M62.35,36.52h0c0,2.11.38,4.43.63,7,.73,7.68,7.18,35.64,10.42,49.42H84.76S72.24,47.27,71.5,36c-.48-7.33,4.92-10.7,8.73-12.14C65.33,26.72,62.45,30.77,62.35,36.52Z"/><path class="cls-6" d="M144.69,98.52s10.68-1,11.55,2.83c.68,3-.23,30-.67,41.75a5.65,5.65,0,0,0,5.34,5.85c.68,0,1.39.08,2.13.1a44.88,44.88,0,0,0,10.3-.54c6-1.35,6.19-9.86,8.31-24s4.06-39.23-9.08-44.07c-.45-.16-.91-.31-1.36-.45-12.66-3.83-24.73,3.74-24.73,3.74A32,32,0,0,0,144.69,98.52Z"/><path class="cls-9" d="M163,149.05a44.88,44.88,0,0,0,10.3-.54c6-1.35,6.19-9.86,8.31-24s4.06-39.23-9.08-44.07c-.45-.16-.91-.31-1.36-.45-2.24.53-4.29,2-5.41,5.29C162.79,94.16,167.57,124.93,163,149.05Z"/><path class="cls-6" d="M170,146.94a6.79,6.79,0,0,0,6.15-3.27c2-3.36,5-32.13,5.08-33.35a.29.29,0,0,0-.25-.3.28.28,0,0,0-.29.24c0,.3-3,29.88-5,33.12-3,4.93-9.56,2.3-9.63,2.28a.27.27,0,1,0-.21.5,12.05,12.05,0,0,0,3.91.77Z"/><path class="cls-6" d="M177.45,88.84h.06a.28.28,0,0,0,.21-.33c0-.18-1-4.41-4.55-5.25a4.21,4.21,0,0,0-3.77.76,6.65,6.65,0,0,0-2.28,4.55.28.28,0,0,0,.28.27.27.27,0,0,0,.27-.27,6.11,6.11,0,0,1,2.07-4.12,3.7,3.7,0,0,1,3.31-.66c3.19.76,4.12,4.8,4.13,4.84A.27.27,0,0,0,177.45,88.84Z"/><path class="cls-10" d="M70.38,96.71c.68,2.87,1.1,4.58,1.1,4.58l77.24-1.62.58-2.74C135.62,94.61,88.64,95.39,70.38,96.71Z"/><path class="cls-9" d="M71,111.3c0,1.46,0,3,.1,4.6.43,14.4,2.19,33.37,8.43,35,10.17,2.71,73.24,4.09,76.54-1.94,1-1.8,1.59-4.83,2-8.53q.12-1.09.21-2.25c.54-6.71.55-15,.77-22.32.06-2,.14-3.83.25-5.57.78-12.81-9.65-13-9.65-13-14.74-.35-36.39.34-53.23,1-8.78.37-16.26.75-20.76,1l-4.57.24S70.91,104.53,71,111.3Z"/><path class="cls-6" d="M99.88,122s-2.45,3.46,0,4.64,5.33-6,10.47-8.15,8.41-5.5,10.53-4.46,5.57,1,7.17-.39,27.56-11.43,29.37-14.52-3.35-2.94-3.35-2.94S106.29,114.31,99.88,122Z"/><path class="cls-6" d="M120.4,140.66c1.27,0,2.58,0,3.93,0,20.36-.42,32.07-5,32.19-5.05a.33.33,0,0,0,.19-.43.34.34,0,0,0-.44-.19c-.11.05-11.73,4.58-32,5s-31.37-2.47-31.48-2.5a.33.33,0,0,0-.41.24.34.34,0,0,0,.24.41C92.77,138.12,102.55,140.66,120.4,140.66Z"/><path class="cls-6" d="M159.33,123.4s-11.93-7.21-17.15-8.44c-7.2-1.69-6.09,1.21-11.06-.4-10.25-3.31-28.38-6.64-38-13.27l12.57-2.18,32.44,6.12,5.73-1.08s10.12,10.78,13.38,13.68S159.33,123.4,159.33,123.4Z"/><path class="cls-6" d="M71,111.3c0,1.46,0,3,.1,4.6.43,14.4,2.19,33.37,8.43,35,10.17,2.71,73.24,4.09,76.54-1.94,1-1.8,1.59-4.83,2-8.53q.12-1.09.21-2.25c-3,2-12,4.61-18.14,5.24a181.79,181.79,0,0,1-45.74-1c3.38-13.93,2.48-36.17,2-44.12-8.78.37-16.26.75-20.76,1Z"/><path class="cls-11" d="M114.85.82a12.37,12.37,0,0,0-8.6,10.7c-.76,8.55-6.23,6.68-7.65,13.16-1.47,6.69,3.85,7.75-1.84,12.63s-2.4,15.53,11.2,9.33,13.37-3.67,23.47-1.52,1.14-13.26.56-21.6C131.31,13.86,134.72,3.48,114.85.82Z"/><path class="cls-12" d="M135.24,34S149.66,53.6,153,63.35,148.25,80,148.25,80l-7.41,2.78S133.22,48.39,135.24,34Z"/><path class="cls-13" d="M134,88.84c-6.31,2.09-21.71,7.57-28.4,5.35a6.35,6.35,0,0,1-.8-.32,4.11,4.11,0,0,1-1.72-1.46c-2.63-4-5.23-20.74-4.06-30.59a37.48,37.48,0,0,0,.24-4c0-2.06,0-4.27-.12-6.49C98.78,43,97.46,37.22,101,35.19a41.64,41.64,0,0,1,9.87-3.88A28.5,28.5,0,0,1,117,30.16l8,1.45s6.88,1.15,8.47,2.32,2.4,6.34,5.27,11.06,3.49,9.47.75,14.66c-2.39,4.52-2,2.8-2.28,10.21C136.79,78.94,146.27,84.77,134,88.84Z"/><path class="cls-14" d="M112.79,46.32a49.89,49.89,0,0,1,19.67-.17l.27,7.62s-12.13-1.35-19.77.6Z"/><path class="cls-14" d="M122.72,39.88h-.35c-4.73-.24-9.05-4.41-9.24-4.58a.33.33,0,0,1,.46-.47s4.33,4.18,8.81,4.41c4.29.22,4.81-4,4.83-4.21a.32.32,0,0,1,.35-.29.33.33,0,0,1,.29.36S127.3,39.88,122.72,39.88Z"/><path class="cls-14" d="M109.34,78.05a.28.28,0,0,1-.09-.1.34.34,0,0,1,.11-.46A39.82,39.82,0,0,1,125.26,72a28.89,28.89,0,0,1,7-.07.34.34,0,0,1,.29.38.34.34,0,0,1-.39.28,29.44,29.44,0,0,0-6.85.09,39.14,39.14,0,0,0-15.6,5.37A.33.33,0,0,1,109.34,78.05Z"/><path class="cls-15" d="M117.36,91.88a40.15,40.15,0,0,1-14.31-8.65l-.8-.75c-1.81-1.77-3.09-.86-3.65-1.88-2.12-3.88-.92-19.11,0-24.7s-2.94-15.84-.86-19.5S107,31.46,107,31.46s-1-1.19.91-2.54,7-.79,7-.79C115.15,52.34,118.58,74.82,117.36,91.88Z"/><path class="cls-13" d="M111.79,84.94a.32.32,0,0,1-.32-.27c-2.58-16.79,0-48.37,0-48.68a.31.31,0,0,1,.34-.29.3.3,0,0,1,.29.34c0,.31-2.57,31.82,0,48.53a.32.32,0,0,1-.27.37Z"/><path class="cls-12" d="M117,87.46a.32.32,0,0,1-.31-.26C113.29,67.91,113,34.64,113,34.31a.31.31,0,0,1,.31-.32h0a.31.31,0,0,1,.31.31c0,.34.27,33.55,3.64,52.79a.31.31,0,0,1-.26.36Z"/><path class="cls-12" d="M111.37,34.11h-.08a10.78,10.78,0,0,1-4.38-2.35.33.33,0,0,1,0-.45.32.32,0,0,1,.45,0h0a10.06,10.06,0,0,0,4.1,2.2.32.32,0,0,1-.09.62Z"/><path class="cls-15" d="M142,81.31a17.46,17.46,0,0,1-9.56,10.06c-.93-18.47-3-39.55-5.78-62,0,0,2.88-.51,4.08,1.14a4.63,4.63,0,0,1,.62,1.91,14.84,14.84,0,0,1,3.09,1c1.61.75,1.42,1.78,1.81,4.4S140.63,44.53,142,50s-2.17,9-3.26,13.58S142,81.31,142,81.31Z"/><path class="cls-13" d="M135.48,84.17a.31.31,0,0,1-.31-.31,313.91,313.91,0,0,0-5.36-47.78.31.31,0,0,1,.24-.38.33.33,0,0,1,.38.25,314.73,314.73,0,0,1,5.37,47.89.32.32,0,0,1-.31.33Z"/><path class="cls-12" d="M128.55,34.81a.32.32,0,0,1-.05-.63s2.05-.37,2.51-1.84a.32.32,0,0,1,.61.19c-.59,1.84-2.91,2.26-3,2.27Z"/><path class="cls-12" d="M134.75,84.17a.32.32,0,0,1-.32-.28c-2.22-18.52-5.74-48.11-5.78-48.41a.32.32,0,0,1,.28-.35.31.31,0,0,1,.35.27c0,.3,3.55,29.9,5.78,48.41a.32.32,0,0,1-.28.36Z"/><path class="cls-11" d="M115.57,24.86s-7.78-2.53-8-10.95S111.7-.49,120.4.24C120.4.24,124.28,24,115.57,24.86Z"/><path class="cls-11" d="M132.06,6s2.11,6.86,1,8.13-2.87-1.26-2.87-1.26S130.73,6.35,132.06,6Z"/><path class="cls-16" d="M130.56,15.29s1.72-2.25,2.86-.14.55,6.52-2.26,5.94Z"/><path class="cls-17" d="M126.47,25.6l.5,5.78s-3.33,5.28-12-1.64c-.24-2.61.16-4.83-.07-6.82a12.45,12.45,0,0,0,1.87.88l.76.29C119.94,25,123.52,26,126.47,25.6Z"/><path class="cls-11" d="M126.47,26.6l.24,2.76c-2.57-.44-7.21-1.59-9.92-4.56l.76.29C119.94,26,123.52,27,126.47,26.6Z"/><path class="cls-17" d="M132.39,15.2c0,.61.05,1.19.06,1.74.14,4.13,0,6.39-1,7.47-4.75,5.41-16.16-.23-16.53-.41h0c-.13-.46-.24-.91-.35-1.36a36.34,36.34,0,0,1-.88-10.81,8.21,8.21,0,0,1,4.92-8.41c3.44-1.44,6.64-.05,8.55.44,2.89.74,4.85,4.32,5.12,9.55Q132.35,14.35,132.39,15.2Z"/><path class="cls-11" d="M124.06,9s1,.05.72,1-2.45,0-3.86,1.85C120.92,11.9,120.18,9.65,124.06,9Z"/><path class="cls-11" d="M128.77,8.8s-1,.16-.63,1.09,2.45-.21,4,1.47C132.16,11.36,132.69,9,128.77,8.8Z"/><path class="cls-16" d="M124.08,16.47c0,.49-1,.93-2.18,1s-2.25-.29-2.27-.77,1-.93,2.18-1S124.06,16,124.08,16.47Z"/><path class="cls-11" d="M128,20a5.84,5.84,0,0,1-3.25-1.06.28.28,0,0,1-.06-.39.27.27,0,0,1,.38-.05h0c.12.08,2.89,2.1,4.8.05a.27.27,0,0,1,.39,0,.27.27,0,0,1,0,.38A3.21,3.21,0,0,1,128,20Z"/><path class="cls-11" d="M128.1,16.15a2.61,2.61,0,0,1-1.28-.25.28.28,0,0,1-.13-.37.29.29,0,0,1,.37-.13,2.09,2.09,0,0,0,1.13.19l-1-2.54a.29.29,0,0,1,.16-.36.27.27,0,0,1,.35.16l1.16,2.85a.33.33,0,0,1,0,.22.24.24,0,0,1-.17.14A2.26,2.26,0,0,1,128.1,16.15Z"/><path class="cls-11" d="M124.41,15.07c0,.66-.24,1.22-.62,1.23s-.7-.5-.73-1.17.25-1.22.62-1.24S124.38,14.4,124.41,15.07Z"/><path class="cls-11" d="M131,14.75c0,.66-.25,1.22-.62,1.24s-.7-.51-.73-1.18.24-1.22.61-1.23S131,14.08,131,14.75Z"/><path class="cls-11" d="M117,21.19a6.1,6.1,0,0,1-2,2.81h0c-.13-.46-.24-.91-.35-1.36A5,5,0,0,0,117,21.19Z"/><path class="cls-17" d="M115.54,16.63s-2.84-3.45-4.65-.54c-1.49,2.39,1.83,8.41,5,6Z"/><path class="cls-11" d="M115.39,21.09a.3.3,0,0,1-.29-.24,4.53,4.53,0,0,0-2.83-3.55.28.28,0,0,1-.17-.35.27.27,0,0,1,.35-.17,5.14,5.14,0,0,1,3.2,4,.27.27,0,0,1-.23.31Z"/><path class="cls-11" d="M112.75,19.55a.27.27,0,0,1-.21-.09.26.26,0,0,1,0-.39,2.65,2.65,0,0,1,1.88-.74.27.27,0,1,1-.11.53c-.48-.09-1.19.43-1.41.62A.28.28,0,0,1,112.75,19.55Z"/><path class="cls-11" d="M126.24.36a9.64,9.64,0,0,1,6.2,4.54c.83,1.45,1.68,3.41-.56,3.58-6.1.46-10.52-5.09-10.52-5.09s0,5.93-4.85,6.16-5.37-3.33-3.1-5.85C115.25,1.64,120.47-1,126.24.36Z"/><path class="cls-11" d="M116.57,8.86s-2.1,3.38-.53,6.27,2.12,5.34,1.45,7.19a19,19,0,0,0-2.58-5.41c-1.37-1.82-2.58-3.17-2.34-5.64C112.73,9.58,113.6,7.81,116.57,8.86Z"/><path class="cls-18" d="M116,97.46a17.27,17.27,0,0,0,4.76,2.13c12.92,4.11,24.76-2.52,24.76-2.52.72-3.54.27-7.56-.92-9a1.29,1.29,0,0,0,.13-1.15l11.88-12.34C149.89,80.16,141.53,82,135,85.92h0c-1.88,1.14-3.56,2.14-4.8,2.83a10.73,10.73,0,0,1-6.65.84,32.61,32.61,0,0,1-9-2.9S99.76,80,97,80.2C94.82,80.37,106.44,92.5,116,97.46Z"/><path class="cls-13" d="M158.8,122.29c-.69.39-1.34-1.69-4.73-4.25l-.68-.49c-4-2.78-18.32-6.1-18.32-6.1l1.79-4.91a11.43,11.43,0,0,0,4-1.21l.07,0a5.17,5.17,0,0,1,4.71-.68c1.9.69,2.46,2.52,3.33,3.79a4.07,4.07,0,0,0,.48.6c1.38,1.38,4.25,3.3,6,5.11.17.17.32.34.47.51,1.37,1.62,1.91,3.13,2.79,4.13C159.77,120,159.53,121.86,158.8,122.29Z"/><path class="cls-15" d="M149,108.4a7,7,0,0,1-8.11-3.07l.07,0a5.17,5.17,0,0,1,4.71-.68C147.52,105.3,148.08,107.13,149,108.4Z"/><path class="cls-15" d="M158.8,122.29c-.69.39-1.34-1.69-4.73-4.25a9.73,9.73,0,0,1,1.8-3.42c1.37,1.62,1.91,3.13,2.79,4.13C159.77,120,159.53,121.86,158.8,122.29Z"/><path class="cls-19" d="M97,80.2s-9.37-5.06-14.79-1.15c-9.93,7.15,6.91,20.9,26.17,27.61s25.52,5.8,25.52,5.8,4.19-1.15,2.7-7.93c0,0-11.1-4.22-16.88-8.65S110,86,97,80.2Z"/><path class="cls-18" d="M135.83,106.5c-4-1-12.27-4.75-22-10.1-7.29-4-15.7-9.12-16.94-10.9-.66-1-.83-1.74-.49-2.33.5-.88,1.94-1,2.6-1a.29.29,0,0,1,.29.31h0a.29.29,0,0,1-.29.27c-.65,0-1.78.11-2.1.67s.11,1.19.48,1.71c1,1.43,8,5.94,16.73,10.71,7.5,4.12,17.18,8.92,21.88,10.05Z"/><path class="cls-18" d="M135.07,103.63c-.45,3.56-1.38,6.8-3.39,9.29a3.34,3.34,0,0,0,3.3.35c1.2-.68,3.52-6.25,2.64-9.22A2.84,2.84,0,0,0,135.07,103.63Z"/><path class="cls-13" d="M99.73,125.33c.74.3,1.1-1.84,4.13-4.83.19-.19.39-.39.6-.58,3.59-3.29,17.35-8.49,17.35-8.49l-2.43-4.63a11.38,11.38,0,0,1-4.11-.67l-.08,0a5.13,5.13,0,0,0-4.75,0c-1.79.94-2.11,2.82-2.79,4.19a4.39,4.39,0,0,1-.4.67c-1.18,1.55-3.77,3.83-5.24,5.86q-.21.28-.39.57c-1.14,1.78-1.48,3.35-2.22,4.46C98.47,123.22,99,125,99.73,125.33Z"/><path class="cls-15" d="M107.65,110.25a7,7,0,0,0,7.62-4.12l-.08,0a5.13,5.13,0,0,0-4.75,0C108.65,107,108.33,108.88,107.65,110.25Z"/><path class="cls-15" d="M99.73,125.33c.74.3,1.1-1.84,4.13-4.83a9.75,9.75,0,0,0-2.24-3.15c-1.14,1.78-1.48,3.35-2.22,4.46C98.47,123.22,99,125,99.73,125.33Z"/><path class="cls-19" d="M155.39,75.38s8.61-6.26,14.51-3.11c10.79,5.76-4.07,21.63-22.26,30.85s-24.52,9.15-24.52,9.15-4.3-.58-3.73-7.5c0,0,10.44-5.67,15.57-10.82S143.28,82.9,155.39,75.38Z"/><path class="cls-18" d="M120.39,106.62c3.88-1.5,11.53-6.34,20.48-12.94,6.69-5,14.35-11.14,15.33-13.06.54-1,.6-1.84.19-2.38-.62-.8-2.06-.7-2.71-.61a.3.3,0,0,0-.25.35h0a.28.28,0,0,0,.33.23c.64-.09,1.77-.13,2.16.39s.05,1.19-.24,1.75c-.79,1.55-7.17,7-15.16,12.85-6.88,5.08-15.83,11.13-20.34,12.88Z"/><path class="cls-18" d="M120.76,103.67c.93,3.48,2.28,6.57,4.6,8.76a3.34,3.34,0,0,1-3.22.79c-1.28-.52-4.32-5.73-3.84-8.79A2.87,2.87,0,0,1,120.76,103.67Z"/><path class="cls-15" d="M115.86,74.79,115.15,85s-12.1-1.73-18-3.24a24.6,24.6,0,0,1-5.44-2c-3.28-1.75-6-4.78-5.8-10.69A27,27,0,0,1,87,62.44,137.63,137.63,0,0,1,98.6,35.26c9.32,4,8.53,10.62,8.53,10.62C104.48,53,98.6,68.07,98.6,68.07,102,72.23,115.86,74.79,115.86,74.79Z"/><path class="cls-12" d="M98.6,68.38a.24.24,0,0,1-.16,0A20,20,0,0,0,94.58,67a.32.32,0,0,1-.24-.38.31.31,0,0,1,.38-.23,24.54,24.54,0,0,1,3.36,1,5.69,5.69,0,0,0-.93-1.36.32.32,0,1,1,.48-.42A5,5,0,0,1,98.91,68a.32.32,0,0,1-.13.32A.41.41,0,0,1,98.6,68.38Z"/><path class="cls-12" d="M91.67,79.77c-3.28-1.75-6-4.78-5.8-10.69C88.47,70.44,93,73.73,91.67,79.77Z"/><path class="cls-12" d="M108.25,73.23h-.08a24.92,24.92,0,0,1-9.78-4.92.32.32,0,0,1-.07-.38c4.27-8.4,7-15.07,8.51-21a.31.31,0,1,1,.61.15C105.91,53,103.23,59.65,99,68a25.26,25.26,0,0,0,9.33,4.61.32.32,0,0,1-.08.63Z"/><path class="cls-12" d="M105.85,51.64a.37.37,0,0,1-.19-.07.32.32,0,0,1,0-.45l2.22-2.79a.32.32,0,1,1,.49.4l-2.22,2.79A.3.3,0,0,1,105.85,51.64Z"/><path class="cls-6" d="M55.75,101.3a26.53,26.53,0,0,1-.12-5.93,13.94,13.94,0,0,1,9.91-12.25,29.29,29.29,0,0,1,16.73-.32c.46.14.91.29,1.36.45,13.14,4.84,11.21,30,9.08,44.07s-2.31,22.62-8.31,24a45.42,45.42,0,0,1-10.3.55l-2.13-.1s-7.45.64-11.27-2.63S55.75,101.3,55.75,101.3Z"/><path class="cls-9" d="M74.1,151.84a45.42,45.42,0,0,0,10.3-.55c6-1.35,6.19-9.86,8.31-24s4.06-39.23-9.08-44.07c-.45-.16-.9-.31-1.36-.45a7.39,7.39,0,0,0-5.4,5.29C73.85,96.94,78.64,127.71,74.1,151.84Z"/><path class="cls-6" d="M81.52,149.49a6.77,6.77,0,0,0,6.15-3.27c2-3.35,5-32.12,5.08-33.34a.26.26,0,0,0-.24-.3.26.26,0,0,0-.3.24c0,.3-3,29.87-5,33.12a6.21,6.21,0,0,1-5.9,3,11.54,11.54,0,0,1-3.73-.73.28.28,0,0,0-.21.51,12.13,12.13,0,0,0,3.91.77Z"/><path class="cls-6" d="M78.88,91.2a.27.27,0,0,0,.27-.27,6.15,6.15,0,0,1,2.07-4.13,3.71,3.71,0,0,1,3.31-.66c3.19.77,4.13,4.8,4.13,4.85a.27.27,0,0,0,.33.2.27.27,0,0,0,.21-.32c0-.18-1-4.42-4.55-5.26a4.26,4.26,0,0,0-3.77.76,6.65,6.65,0,0,0-2.28,4.56A.28.28,0,0,0,78.88,91.2Z"/><path class="cls-20" d="M107.28,93.94l-2.66-5.07a1.89,1.89,0,0,1,1.69-2.77l41.91.45L147,93.05Z"/><path class="cls-21" d="M146.26,92.51H108.75a1.44,1.44,0,0,1-1.46-1.64l2.56-23.17a1.88,1.88,0,0,1,1.82-1.64h37.51a1.44,1.44,0,0,1,1.46,1.64l-2.56,23.17A1.88,1.88,0,0,1,146.26,92.51Z"/><path class="cls-22" d="M120.63,75.58c-.31,1.59-3.35,3.58-3.35,3.58s-2.79-2-2.89-3.58,1.94-2.26,3.18-1C119,73.32,121,73.85,120.63,75.58Z"/><path class="cls-15" d="M120,86.13c-.14,1.31-1,2-1.83,2a1,1,0,0,1-1-.59,1.21,1.21,0,0,1-1.1.59,1.37,1.37,0,0,1-1.27-1.7,1.77,1.77,0,0,1,1.64-1.71,1,1,0,0,1,.81.34l0-.27h1.31l-.21,2c0,.29.07.38.23.38s.37-.2.45-1A1.87,1.87,0,0,0,116.94,84a2.55,2.55,0,0,0-2.6,2.3,1.94,1.94,0,0,0,2.07,2.3,3.59,3.59,0,0,0,1.42-.3l.2.84a4.45,4.45,0,0,1-1.71.33,2.78,2.78,0,0,1-3-3.17A3.62,3.62,0,0,1,117,83.16,2.69,2.69,0,0,1,120,86.13Zm-2.9.29c0-.42-.14-.63-.42-.63s-.51.21-.56.63.14.63.42.63S117.07,86.83,117.11,86.42Z"/><path class="cls-23" d="M108.19,93.51h0a.32.32,0,0,1-.27-.36L111,68.33a.32.32,0,0,1,.63.08l-3.11,24.82A.32.32,0,0,1,108.19,93.51Z"/><path class="cls-13" d="M126.44,79.7a3.31,3.31,0,0,0,3.06,3.58,3.4,3.4,0,0,0,3.58-3.16A3.29,3.29,0,0,0,130,76.54,3.41,3.41,0,0,0,126.44,79.7Z"/><path class="cls-20" d="M146.44,94.53h-38A1.38,1.38,0,0,1,107.05,93l.36-2.65h40.81l-.41,3A1.39,1.39,0,0,1,146.44,94.53Z"/><path class="cls-15" d="M188.31,39.73V49a2.21,2.21,0,0,1-2.21,2.21H169.36L164.3,53a.64.64,0,0,1-.81-.84l1.91-4.94V39.73a2.21,2.21,0,0,1,2.21-2.21H186.1A2.21,2.21,0,0,1,188.31,39.73Z"/><path class="cls-13" d="M173.76,44.6a1.6,1.6,0,1,1-1.59-1.6A1.6,1.6,0,0,1,173.76,44.6Z"/><path class="cls-13" d="M178.82,44.6a1.6,1.6,0,1,1-1.6-1.6A1.6,1.6,0,0,1,178.82,44.6Z"/><path class="cls-13" d="M183.87,44.6a1.6,1.6,0,1,1-1.59-1.6A1.6,1.6,0,0,1,183.87,44.6Z"/></g></g></g></svg>