<?xml version="1.0" encoding="utf-8"?>
<!-- Generator: Adobe Illustrator 25.0.1, SVG Export Plug-In . SVG Version: 6.00 Build 0)  -->
<svg version="1.1" id="Layer_1" xmlns="http://www.w3.org/2000/svg" xmlns:xlink="http://www.w3.org/1999/xlink" x="0px" y="0px"
	 viewBox="0 0 56.3 56" style="enable-background:new 0 0 56.3 56;" xml:space="preserve">
<style type="text/css">
	.st0{fill:#FFAA55;}
</style>
<g id="Layer_2_1_">
	<g id="Option_1">
		<path class="st0" d="M44.5,41.1c-3.3,0-6.3,1.8-7.9,4.7c-2.3-4.3-7.7-6-12-3.7c-1.6,0.8-2.9,2.1-3.7,3.7c-1.5-2.9-4.6-4.7-7.9-4.7
			c-4.8,0-8.8,3.8-8.8,8.6v4.4c0,0.5,0.4,1,1,1h47.2c0.5,0,1-0.4,1-1v-4.4C53.2,45,49.3,41.1,44.5,41.1z M19.9,53.2H6.1v-3.4
			c0.1-3.8,3.3-6.8,7.2-6.6c3.6,0.1,6.5,3,6.6,6.6L19.9,53.2z M35.6,53.2H21.8v-3.4c0-3.8,3.1-6.9,6.9-6.9s6.9,3.1,6.9,6.9
			L35.6,53.2z M51.3,53.2H37.5v-3.4c0.1-3.8,3.3-6.8,7.2-6.6c3.6,0.1,6.5,3,6.6,6.6V53.2z"/>
		<path class="st0" d="M40,11.6L29.3,7.1c-0.4-0.2-0.8-0.2-1.2,0l-10.7,4.5c-0.6,0.3-1,0.9-1,1.6v6c-0.1,0.6,0.4,1.1,1,1.2
			s1.1-0.4,1.2-1c0-0.1,0-0.1,0-0.2v-3.9l2.2,1v5c0,0.1,0,0.3,0.1,0.4l0,0c0.1,0.1,0.1,0.2,0.2,0.3l0,0c0.1,0.1,0.2,0.2,0.3,0.2
			l4.3,1.8c1.9,0.8,4.1,0.8,6,0l4.3-1.7c0.1-0.1,0.2-0.1,0.3-0.2l0,0l0.2-0.3l0,0c0.1-0.1,0.1-0.3,0.2-0.4v-5l3.3-1.4
			c0.9-0.4,1.3-1.4,0.9-2.3C40.7,12.1,40.4,11.8,40,11.6L40,11.6z M30.9,22c-1.4,0.6-3,0.6-4.4,0l-3.6-1.5v-3.4l5.2,2.2
			c0.4,0.2,0.8,0.2,1.2,0l5.2-2.2v3.4L30.9,22z M28.7,17.2l-9.5-4l9.5-4.1l9.5,4.1L28.7,17.2z"/>
		<path class="st0" d="M52.8,0.9H3.5C2.1,0.8,0.9,2,0.9,3.4v31.3c0,1.4,1.2,2.5,2.6,2.5h4.7c1.7,2.7,5.3,3.5,7.9,1.8
			c0.7-0.5,1.3-1,1.8-1.8h5.8h0.3c1.7,2.7,5.3,3.5,7.9,1.8c0.7-0.5,1.3-1,1.8-1.8h5.8c0.1,0,0.2,0,0.3,0c1.7,2.7,5.3,3.5,7.9,1.8
			c0.7-0.5,1.3-1,1.8-1.8h3.5c1.4,0,2.6-1.1,2.6-2.5c0,0,0,0,0,0V3.4C55.3,2,54.2,0.9,52.8,0.9z M13,37.9c-2.1,0-3.9-1.7-3.9-3.9
			s1.7-3.9,3.9-3.9s3.9,1.7,3.9,3.9S15.1,37.9,13,37.9z M28.7,37.9c-2.1,0-3.9-1.7-3.9-3.9c0-2.1,1.7-3.9,3.9-3.9s3.9,1.7,3.9,3.9
			l0,0C32.6,36.1,30.9,37.9,28.7,37.9z M44.4,37.9c-2.1,0-3.9-1.7-3.9-3.9s1.7-3.9,3.9-3.9s3.9,1.7,3.9,3.9
			C48.3,36.1,46.6,37.9,44.4,37.9L44.4,37.9z M53.4,34.7c0,0.3-0.3,0.5-0.6,0.5h-2.7c0.6-3.1-1.5-6.1-4.6-6.7
			c-3.1-0.6-6.1,1.5-6.7,4.6c-0.1,0.7-0.1,1.4,0,2.2h-4.4c0.6-3.1-1.4-6.1-4.5-6.7s-6.1,1.4-6.7,4.5c-0.1,0.7-0.1,1.5,0,2.2h-4.4
			c0.6-3.1-1.4-6.1-4.5-6.7S8,29.8,7.4,32.9c-0.1,0.7-0.1,1.5,0,2.2H3.5c-0.3,0-0.6-0.2-0.6-0.5V3.4c0-0.3,0.3-0.5,0.6-0.5h49.3
			c0.3,0,0.6,0.2,0.6,0.5V34.7z"/>
	</g>
</g>
</svg>
