<svg xmlns="http://www.w3.org/2000/svg" xmlns:xlink="http://www.w3.org/1999/xlink" viewBox="0 0 337.43 270.39"><defs><style>.cls-1{fill:#1a9cda;}.cls-2{fill:#1076a7;}.cls-3{fill:#ffd371;opacity:0.3;}.cls-4{clip-path:url(#clip-path);}.cls-5{fill:#333;}.cls-6{fill:#eff6fa;}.cls-7{fill:#5b5b5b;}.cls-14,.cls-8{fill:#fff;}.cls-12,.cls-8,.cls-9{opacity:0.1;}.cls-10,.cls-15{font-size:8.09px;}.cls-10,.cls-11,.cls-12,.cls-23{fill:#231f20;}.cls-10,.cls-11,.cls-15,.cls-16{font-family:OpenSans-Bold, Open Sans;font-weight:700;}.cls-11,.cls-16{font-size:9.17px;}.cls-13{fill:#a9d2df;}.cls-15,.cls-16{fill:#4b6e86;}.cls-17{fill:none;stroke:#a9d2df;stroke-miterlimit:10;stroke-width:2px;}.cls-18{fill:#bad1d9;}.cls-19{clip-path:url(#clip-path-2);}.cls-20{fill:#f8db69;}.cls-21{fill:#199cdf;}.cls-22{fill:#dc5e69;}.cls-24{fill:#fdd682;}.cls-25{fill:#ebad36;}.cls-26{fill:#fa5;}</style><clipPath id="clip-path"><rect class="cls-1" x="47.25" y="120.3" width="113.22" height="69.42" rx="5.38" transform="translate(-43.57 40.65) rotate(-18.38)"/></clipPath><clipPath id="clip-path-2"><rect class="cls-2" x="65.78" y="149.54" width="69.42" height="113.22" rx="5.38" transform="translate(-120.83 266.28) rotate(-79.21)"/></clipPath></defs><g id="Layer_2" data-name="Layer 2"><g id="Option_1" data-name="Option 1"><path class="cls-3" d="M162.85,236.3c95.46,0,137.11-28.37,137.11-28.37s62.39-29.76,26.16-107.56C297.29,38.46,194.05-12.18,143.38,9.83S97.27,59.67,41.62,100-1.16,172.22,8.81,188.41C8.81,188.41,39.84,236.3,162.85,236.3Z"/><rect class="cls-1" x="47.25" y="120.3" width="113.22" height="69.42" rx="5.38" transform="translate(-43.57 40.65) rotate(-18.38)"/><g class="cls-4"><circle class="cls-1" cx="141.6" cy="142.47" r="56.79"/></g><rect class="cls-5" x="40.69" y="129.16" width="113.22" height="12.2" transform="translate(-37.68 37.58) rotate(-18.38)"/><rect class="cls-6" x="51.83" y="143.69" width="99.98" height="10.34" transform="translate(-41.74 39.7) rotate(-18.38)"/><rect class="cls-2" x="57.45" y="166.52" width="59.14" height="5.1" transform="translate(-48.87 36.06) rotate(-18.38)"/><rect class="cls-7" x="56.76" y="154.49" width="40.84" height="5.1" transform="translate(-45.58 32.34) rotate(-18.38)"/><rect class="cls-2" x="60.57" y="177.39" width="40.84" height="5.1" transform="translate(-52.6 34.71) rotate(-18.38)"/><polygon class="cls-8" points="138.13 180.2 109.55 189.7 113.57 115.2 142.16 105.71 138.13 180.2"/><g class="cls-9"><text class="cls-10" transform="translate(156.7 173.87)">TOTAL</text><text class="cls-11" transform="translate(157.71 39.36)">RECEIPT</text></g><g class="cls-9"><text class="cls-10" transform="translate(143.53 171.01)">TOTAL</text><text class="cls-11" transform="translate(153.97 36.49)">RECEIPT</text></g><polygon class="cls-12" points="223.39 65.97 223.39 11.55 223.39 6.87 220.03 4.71 216.67 6.87 213.32 4.71 209.96 6.87 206.6 4.71 203.25 6.87 199.89 4.71 196.53 6.87 193.18 4.71 189.82 6.87 186.46 4.71 183.1 6.87 179.75 4.71 176.39 6.87 173.03 4.71 169.67 6.87 166.31 4.71 162.95 6.87 159.59 4.71 156.23 6.87 152.88 4.71 149.52 6.87 146.16 4.71 142.8 6.87 139.44 4.71 136.08 6.87 132.72 4.71 129.36 6.87 126 4.71 122.63 6.87 122.63 11.55 122.63 65.97 122.63 98.27 122.63 106.99 122.63 106.99 128.84 106.99 138.04 106.99 138.04 200.56 138.04 201.05 138.04 205.24 141.4 207.4 144.76 205.24 148.11 207.4 151.47 205.24 154.83 207.4 158.18 205.24 161.54 207.4 164.9 205.24 168.25 207.4 171.61 205.24 174.97 207.4 178.33 205.24 181.69 207.4 185.04 205.24 188.4 207.4 191.76 205.24 195.12 207.4 198.48 205.24 201.84 207.4 205.2 205.24 208.55 207.4 211.91 205.24 215.27 207.4 218.63 205.24 221.99 207.4 225.35 205.24 228.71 207.4 232.07 205.24 235.43 207.4 238.8 205.24 238.8 201.05 238.8 200.56 238.8 65.97 223.39 65.97"/><path class="cls-6" d="M113.24,75.57h41a0,0,0,0,1,0,0V88a0,0,0,0,1,0,0h-31.8a9.23,9.23,0,0,1-9.23-9.23V75.57A0,0,0,0,1,113.24,75.57Z" transform="translate(51.98 215.52) rotate(-90)"/><rect class="cls-6" x="127.54" y="6.84" width="100.76" height="86.72"/><polygon class="cls-6" points="228.3 2.16 224.94 0 221.59 2.16 218.23 0 214.87 2.16 211.51 0 208.16 2.16 204.8 0 201.44 2.16 198.09 0 194.73 2.16 191.37 0 188.01 2.16 184.66 0 181.3 2.16 177.94 0 174.58 2.16 171.22 0 167.86 2.16 164.5 0 161.14 2.16 157.79 0 154.43 2.16 151.07 0 147.71 2.16 144.35 0 140.99 2.16 137.63 0 134.27 2.16 130.91 0 127.54 2.16 127.54 6.84 228.3 6.84 228.3 2.16"/><rect class="cls-13" x="176.3" y="65.58" width="16.92" height="3.6"/><rect class="cls-13" x="209.05" y="46.69" width="12.41" height="3.6"/><rect class="cls-13" x="134.38" y="46.69" width="28.79" height="3.6"/><rect class="cls-13" x="204.19" y="56.14" width="17.27" height="3.6"/><rect class="cls-13" x="134.38" y="56.14" width="43.54" height="3.6"/><rect class="cls-13" x="204.19" y="65.58" width="17.27" height="3.6"/><rect class="cls-13" x="134.38" y="65.58" width="38.15" height="3.6"/><rect class="cls-13" x="204.19" y="75.03" width="17.27" height="3.6"/><rect class="cls-13" x="134.38" y="75.03" width="28.79" height="3.6"/><rect class="cls-13" x="166.59" y="46.69" width="28.79" height="3.6"/><rect class="cls-13" x="166.59" y="75.03" width="28.79" height="3.6"/><rect class="cls-13" x="209.05" y="84.47" width="12.41" height="3.6"/><rect class="cls-13" x="134.38" y="84.47" width="43.54" height="3.6"/><rect class="cls-14" x="142.95" y="61.26" width="100.76" height="135.08"/><polygon class="cls-14" points="142.95 200.53 146.31 202.69 149.67 200.53 153.02 202.69 156.38 200.53 159.74 202.69 163.09 200.53 166.45 202.69 169.81 200.53 173.17 202.69 176.52 200.53 179.88 202.69 183.24 200.53 186.6 202.69 189.96 200.53 193.31 202.69 196.67 200.53 200.03 202.69 203.39 200.53 206.75 202.69 210.11 200.53 213.47 202.69 216.82 200.53 220.18 202.69 223.54 200.53 226.9 202.69 230.26 200.53 233.62 202.69 236.98 200.53 240.35 202.69 243.71 200.53 243.71 195.85 142.95 195.85 142.95 200.53"/><rect class="cls-13" x="183.31" y="15.74" width="38.15" height="3.6"/><rect class="cls-13" x="174.26" y="179.71" width="38.15" height="3.6"/><rect class="cls-13" x="219.6" y="70.35" width="17.27" height="3.6"/><rect class="cls-13" x="149.79" y="70.35" width="38.15" height="3.6"/><rect class="cls-13" x="191.71" y="70.35" width="16.92" height="3.6"/><rect class="cls-13" x="191.71" y="98.69" width="16.92" height="3.6"/><rect class="cls-13" x="224.46" y="79.79" width="12.41" height="3.6"/><rect class="cls-13" x="149.79" y="79.79" width="28.79" height="3.6"/><rect class="cls-13" x="219.6" y="89.24" width="17.27" height="3.6"/><rect class="cls-13" x="149.79" y="89.24" width="43.54" height="3.6"/><rect class="cls-13" x="219.6" y="98.69" width="17.27" height="3.6"/><rect class="cls-13" x="149.79" y="98.69" width="38.15" height="3.6"/><rect class="cls-13" x="219.6" y="108.13" width="17.27" height="3.6"/><rect class="cls-13" x="149.79" y="108.13" width="28.79" height="3.6"/><rect class="cls-13" x="182" y="79.79" width="28.79" height="3.6"/><rect class="cls-13" x="182" y="108.13" width="28.79" height="3.6"/><rect class="cls-13" x="224.46" y="117.58" width="12.41" height="3.6"/><rect class="cls-13" x="219.6" y="162.59" width="17.27" height="3.6"/><rect class="cls-13" x="149.79" y="117.58" width="43.54" height="3.6"/><rect class="cls-13" x="191.71" y="126.11" width="16.92" height="3.6"/><rect class="cls-13" x="219.6" y="126.11" width="17.27" height="3.6"/><rect class="cls-13" x="149.79" y="126.11" width="38.15" height="3.6"/><rect class="cls-13" x="219.6" y="135.55" width="17.27" height="3.6"/><rect class="cls-13" x="149.79" y="135.55" width="28.79" height="3.6"/><rect class="cls-13" x="182" y="135.55" width="28.79" height="3.6"/><rect class="cls-13" x="224.46" y="145" width="12.41" height="3.6"/><rect class="cls-13" x="149.79" y="145" width="43.54" height="3.6"/><text class="cls-15" transform="translate(149.79 166.97)">TOTAL</text><text class="cls-16" transform="translate(160.23 32.45)">RECEIPT</text><line class="cls-17" x1="134.65" y1="37.63" x2="221.73" y2="37.63"/><line class="cls-17" x1="149.79" y1="156.25" x2="236.87" y2="156.25"/><line class="cls-17" x1="149.79" y1="172.54" x2="236.87" y2="172.54"/><polygon class="cls-18" points="142.95 61.26 142.95 102.28 127.54 102.28 142.95 61.26"/><rect class="cls-2" x="65.78" y="149.54" width="69.42" height="113.22" rx="5.38" transform="translate(-120.83 266.28) rotate(-79.21)"/><g class="cls-19"><circle class="cls-2" cx="139.55" cy="213.59" r="56.79" transform="translate(-95.95 115.43) rotate(-34.21)"/></g><polygon class="cls-8" points="118.13 244.85 88.54 239.21 128.36 176.12 157.95 181.76 118.13 244.85"/><rect class="cls-6" x="50.39" y="200.32" width="22.42" height="5.49" transform="matrix(0.98, 0.19, -0.19, 0.98, 39.09, -7.94)"/><rect class="cls-6" x="113.75" y="221.61" width="11.87" height="5.49" transform="translate(44.1 -18.44) rotate(10.79)"/><rect class="cls-6" x="98.3" y="218.67" width="11.87" height="5.49" transform="translate(43.28 -15.6) rotate(10.79)"/><rect class="cls-6" x="75.23" y="205.05" width="22.42" height="5.49" transform="translate(40.42 -12.51) rotate(10.79)"/><rect class="cls-6" x="126.52" y="214.82" width="22.42" height="5.49" transform="translate(43.15 -21.93) rotate(10.79)"/><rect class="cls-6" x="100.07" y="209.78" width="22.42" height="5.49" transform="translate(41.74 -17.07) rotate(10.79)"/><rect class="cls-1" x="103.85" y="185.38" width="49.7" height="5.1" transform="translate(37.45 -20.77) rotate(10.79)"/><rect class="cls-1" x="46.51" y="221.74" width="40.84" height="5.1" transform="translate(43.16 -8.56) rotate(10.79)"/><rect class="cls-20" x="53.15" y="180.35" width="20.42" height="16.21" rx="6.65" transform="translate(36.39 -8.53) rotate(10.79)"/><circle class="cls-21" cx="139.47" cy="239.32" r="5.29" transform="translate(-110.43 119.84) rotate(-34.21)"/><path class="cls-22" d="M138.36,239.11a5.29,5.29,0,1,1-4.2-6.18A5.28,5.28,0,0,1,138.36,239.11Z"/><g class="cls-9"><path class="cls-23" d="M259.19,45.4a15.12,15.12,0,1,0-20.67,5.43A15.12,15.12,0,0,0,259.19,45.4Z"/><circle class="cls-23" cx="262.29" cy="85.19" r="15.12" transform="translate(-7.13 26.3) rotate(-5.66)"/><circle class="cls-23" cx="280.58" cy="55.73" r="15.12" transform="translate(-3.86 86.14) rotate(-17.34)"/></g><circle class="cls-24" cx="248.89" cy="34.79" r="15.12" transform="translate(56.73 196.75) rotate(-48.08)"/><circle class="cls-25" cx="248.89" cy="34.79" r="12.27" transform="translate(15.63 128.32) rotate(-29.81)"/><circle class="cls-24" cx="265.03" cy="82.21" r="15.12" transform="translate(-12.28 72.34) rotate(-15.2)"/><circle class="cls-25" cx="265.03" cy="82.21" r="12.27" transform="translate(38.28 242.16) rotate(-52.43)"/><path class="cls-24" d="M297.41,47.26a15.12,15.12,0,1,1-19.57-8.6A15.12,15.12,0,0,1,297.41,47.26Z"/><path class="cls-25" d="M294.76,48.3a12.27,12.27,0,1,1-15.89-7A12.28,12.28,0,0,1,294.76,48.3Z"/><path class="cls-24" d="M252.26,27.33a4,4,0,0,1,2.17,5.56l-2.19-1a1.73,1.73,0,0,0-.88-2.55c-1-.48-2-.24-2.64,1.12a7.22,7.22,0,0,0-.52,2.08l3.19,1.5-.77,1.63-2.76-1.31c-.05.15-.1.29-.16.43A4.3,4.3,0,0,1,245.27,37l6,2.83-.89,1.9-8.23-3.88.2-1.39a4.78,4.78,0,0,0,3.1-2.75,2,2,0,0,0,.15-.41l-1.88-.88.77-1.63,1.4.66a8.08,8.08,0,0,1,.65-2.25C247.64,26.83,249.93,26.23,252.26,27.33Z"/><path class="cls-24" d="M281,45.45a4,4,0,0,1,5.51,2.29l-2.26.86a1.72,1.72,0,0,0-2.44-1.13,1.83,1.83,0,0,0-1,2.68A7,7,0,0,0,281.94,52l3.29-1.27.64,1.68L283,53.48a3.91,3.91,0,0,1,.2.41,4.26,4.26,0,0,1-.09,3.28l6.2-2.38.75,2L281.59,60l-.87-1.11a4.76,4.76,0,0,0,.16-4.14,2.81,2.81,0,0,0-.19-.39l-1.94.75-.64-1.68,1.45-.56a7.69,7.69,0,0,1-1.18-2C277.45,48.44,278.61,46.38,281,45.45Z"/><path class="cls-24" d="M262.37,75.06a4,4,0,0,1,5.51,2.29l-2.25.86a1.74,1.74,0,0,0-2.45-1.13c-1.05.4-1.55,1.28-1,2.68a7.49,7.49,0,0,0,1.14,1.81l3.29-1.26.65,1.68-2.86,1.1a2.14,2.14,0,0,1,.2.4,4.33,4.33,0,0,1-.08,3.29l6.19-2.38.75,2L263,89.62l-.86-1.11a4.8,4.8,0,0,0,.16-4.14c-.06-.14-.12-.26-.19-.39l-1.95.75-.64-1.68,1.45-.56a8,8,0,0,1-1.18-2C258.82,78.05,260,76,262.37,75.06Z"/><polygon class="cls-26" points="274.93 152.93 240.26 157.28 247.07 146.31 184.21 107.33 170.32 134.24 54.67 67.14 63.22 52.41 163.39 110.52 177.52 83.14 256.05 131.83 263.42 119.94 274.93 152.93"/></g></g></svg>