<svg xmlns="http://www.w3.org/2000/svg" xmlns:xlink="http://www.w3.org/1999/xlink" viewBox="0 0 372.82 230.6"><defs><style>.cls-1{fill:none;}.cls-2{isolation:isolate;}.cls-17,.cls-3{fill:#75c189;}.cls-3{opacity:0.25;}.cls-4{opacity:0.8;}.cls-5{opacity:0.5;}.cls-6{fill:#ccd3e6;}.cls-21,.cls-7{fill:#eaeaea;}.cls-20,.cls-7{mix-blend-mode:multiply;}.cls-8{fill:#fff;}.cls-9{fill:#575759;}.cls-10{fill:#363638;}.cls-11{fill:#fa5;}.cls-12{fill:#1b95f2;}.cls-13{fill:#cfdceb;}.cls-14{clip-path:url(#clip-path);}.cls-15{fill:#ff9c7d;}.cls-16{fill:#f36d66;}.cls-18{fill:#55a062;}.cls-19{fill:#db7f2f;}.cls-22{fill:#da7c5d;}.cls-23{fill:#c22e4d;}.cls-24{fill:#ed6b46;}.cls-25{fill:#fb6260;}.cls-26{fill:#50a364;}</style><clipPath id="clip-path"><path class="cls-1" d="M157.48,100.23c-.57,1.77-.57,2.08-.57,1.77V51.55c0-.31,0-.26,0-36.8H270.36l0,85.48Z"/></clipPath></defs><g class="cls-2"><g id="Layer_2" data-name="Layer 2"><g id="Option_1" data-name="Option 1"><path class="cls-3" d="M227.13,230.54C314,233.25,403.71,139.85,362.49,82.69,330.53,38.36,276.4,58.76,237,36.93,164.56-3.21,62.2-11,42.34,46.19S70.44,171.85,98.07,196C137.05,229.93,227.13,230.54,227.13,230.54Z"/><g class="cls-4"><g class="cls-5"><ellipse class="cls-6" cx="330.21" cy="69.49" rx="4.77" ry="5.13"/></g></g><ellipse class="cls-7" cx="215.96" cy="200.42" rx="111.8" ry="5.77"/><path class="cls-6" d="M291.69,184.28H276.2v16.11h18.11V186.91A2.62,2.62,0,0,0,291.69,184.28Z"/><rect class="cls-6" x="193.32" y="149.76" width="53.78" height="34.53"/><path class="cls-8" d="M153.26,184.28H274.81a13.41,13.41,0,0,1,13.41,13.41v2.71a0,0,0,0,1,0,0H139.85a0,0,0,0,1,0,0v-2.71A13.41,13.41,0,0,1,153.26,184.28Z"/><rect class="cls-8" x="186.73" y="149.76" width="53.78" height="34.53"/><polygon class="cls-6" points="186.73 160.36 240.5 156.05 240.51 149.76 186.8 149.76 186.73 160.36"/><rect class="cls-6" x="91.96" width="244" height="149.76" rx="7.19"/><path class="cls-9" d="M336,7.19V132.57H313.74V0h15A7.19,7.19,0,0,1,336,7.19Z"/><path class="cls-8" d="M326.82,7.19V142.58a7.18,7.18,0,0,1-7.18,7.18H99.15A7.18,7.18,0,0,1,92,142.58V7.19A7.19,7.19,0,0,1,99.15,0H320.2l.16,0a2.4,2.4,0,0,1,.28,0l.18,0h.09l.17,0A7.18,7.18,0,0,1,326.82,7.19Z"/><path class="cls-10" d="M321.08.15l-.17,0h-.09l-.18,0a2.4,2.4,0,0,0-.28,0l-.16,0h-221A7.19,7.19,0,0,0,92,7.19V132.57H326.82V7.19A7.18,7.18,0,0,0,321.08.15ZM317.51,120a2,2,0,0,1-2,2H103.23a2,2,0,0,1-2-2V11.27a2,2,0,0,1,2-1.95H315.55a2,2,0,0,1,2,1.95Z"/><rect class="cls-6" x="101.28" y="9.32" width="216.23" height="112.68" rx="1.95"/><path class="cls-8" d="M317.51,11.27V21.53H101.28V11.27a2,2,0,0,1,2-1.95H315.55A2,2,0,0,1,317.51,11.27Z"/><path class="cls-11" d="M300.76,15.26a1.66,1.66,0,1,1-1.66-1.66A1.66,1.66,0,0,1,300.76,15.26Z"/><circle class="cls-12" cx="304.48" cy="15.26" r="1.66"/><rect class="cls-13" x="120.16" y="13.5" width="172.02" height="3.51" rx="1.55"/><path d="M109.08,15.26v1.63a.29.29,0,0,1-.44.26l-1.41-.82-1.41-.81a.3.3,0,0,1,0-.52l1.41-.81,1.41-.81a.29.29,0,0,1,.44.26Z"/><path d="M111.56,15.26v1.63a.3.3,0,0,0,.45.26l1.4-.82,1.41-.81a.3.3,0,0,0,0-.52l-1.41-.81-1.4-.81a.3.3,0,0,0-.45.26Z"/><rect class="cls-10" x="320.38" y="61.79" width="3.99" height="0.94" rx="0.42" transform="translate(50.4 246.19) rotate(-45)"/><rect class="cls-10" x="321.9" y="60.26" width="0.94" height="3.99" rx="0.42" transform="translate(50.4 246.19) rotate(-45)"/><rect class="cls-8" x="125.72" y="24.01" width="166.76" height="93.61" rx="4.09"/><path class="cls-6" d="M174,71.91H137.42a1,1,0,0,1-1-1h0a1,1,0,0,1,1-1H174a1,1,0,0,1,1,1h0A1,1,0,0,1,174,71.91Z"/><path class="cls-6" d="M174,63.31H137.42a1,1,0,0,1-1-1h0a1,1,0,0,1,1-1H174a1,1,0,0,1,1,1h0A1,1,0,0,1,174,63.31Z"/><path class="cls-6" d="M174,80.5H137.42a1,1,0,0,1-1-1h0a1,1,0,0,1,1-1H174a1,1,0,0,1,1,1h0A1,1,0,0,1,174,80.5Z"/><path class="cls-6" d="M286.33,71.91H249.77a1,1,0,0,1-1-1h0a1,1,0,0,1,1-1h36.56a1,1,0,0,1,1,1h0A1,1,0,0,1,286.33,71.91Z"/><path class="cls-6" d="M286.33,63.31H249.77a1,1,0,0,1-1-1h0a1,1,0,0,1,1-1h36.56a1,1,0,0,1,1,1h0A1,1,0,0,1,286.33,63.31Z"/><path class="cls-6" d="M286.33,80.5H249.77a1,1,0,0,1-1-1h0a1,1,0,0,1,1-1h36.56a1,1,0,0,1,1,1h0A1,1,0,0,1,286.33,80.5Z"/><path class="cls-10" d="M125.72,103.08H292.48v13.68a.86.86,0,0,1-.86.86h-165a.87.87,0,0,1-.87-.86Z"/><path class="cls-8" d="M276.1,108.47v-1.23h1.55v-1.1h-2.09a.55.55,0,0,0-.55.55v1.78Z"/><path class="cls-8" d="M276.1,110.67H275v1.87a.55.55,0,0,0,.55.55h2.09V112H276.1Z"/><path class="cls-8" d="M280.86,108.47H282v-1.78a.55.55,0,0,0-.55-.55h-2v1.1h1.47Z"/><path class="cls-8" d="M280.86,110.67V112h-1.47v1.1h2a.55.55,0,0,0,.55-.55v-1.87Z"/><polygon class="cls-8" points="135.43 109.85 135.43 106.39 138.43 108.12 141.43 109.85 138.43 111.58 135.43 113.32 135.43 109.85"/><rect class="cls-8" x="150.74" y="106.74" width="1.86" height="6.31" rx="0.77"/><rect class="cls-8" x="154.62" y="106.74" width="1.86" height="6.31" rx="0.77"/><rect class="cls-6" x="125.72" y="100.35" width="166.76" height="2.73"/><rect class="cls-11" x="125.72" y="100.35" width="85.57" height="2.73"/><path class="cls-10" d="M265.82,89.71h1.88v4.13h2.52v1.45h-4.4Z"/><path class="cls-10" d="M270.74,89.71h1.88v5.58h-1.88Z"/><path class="cls-10" d="M279.49,89.71l-2.36,5.58h-1.85l-2.36-5.58h2L276.28,93l1.36-3.27Z"/><path class="cls-10" d="M284.31,93.88v1.41h-4.64V89.71h4.54v1.42h-2.69v.66h2.36v1.35h-2.36v.74Z"/><path class="cls-11" d="M262.72,92.46a2.3,2.3,0,1,1-2.29-2.3A2.29,2.29,0,0,1,262.72,92.46Z"/><path class="cls-10" d="M146.09,94c0,1.28-1.21,2.1-2.94,2.1s-2.94-.82-2.94-2.1a1.71,1.71,0,0,1,.88-1.51,1.56,1.56,0,0,1-.65-1.29c0-1.19,1.12-2,2.71-2s2.7.77,2.7,2a1.57,1.57,0,0,1-.64,1.29A1.73,1.73,0,0,1,146.09,94Zm-2.22-.07a.72.72,0,0,0-1.44,0,.72.72,0,0,0,1.44,0Zm-1.25-2.63a.52.52,0,0,0,.53.56.57.57,0,0,0,0-1.13A.52.52,0,0,0,142.62,91.31Z"/><path class="cls-10" d="M146.5,92.68c0-2.17,1.24-3.43,3-3.43s3,1.26,3,3.43-1.24,3.43-3,3.43S146.5,94.86,146.5,92.68Zm3.72,0c0-1.26-.32-1.66-.75-1.66s-.75.4-.75,1.66.32,1.66.75,1.66S150.22,94,150.22,92.68Z"/><path class="cls-11" d="M136.36,90.84a2,2,0,1,1-2-2A2,2,0,0,1,136.36,90.84Z"/><path class="cls-11" d="M138.12,95.94h-7.54a3.9,3.9,0,0,1,3.71-2.39h.12A3.9,3.9,0,0,1,138.12,95.94Z"/><g class="cls-14"><path class="cls-15" d="M175,62.21s-.69,4.24-3.81,5c-2.52.61-4.89-1.81-5.71-2.76-.2-.23-.3-.37-.3-.37h-.47c-.66,0-1.83-.14-2.28-1-.65-1.15,1.72-1.94,1.72-1.94s-1.22-1.08-.91-1.87,1.93-.94,1.93-.94-1.76-1.14-1.17-2.13c.88-1.5,2.7.15,2.84.24-.11-.13-2.39-2.49-1.14-2.91,1.08-.37,2.87.85,4.05,2.06L170,56l.19-.14c.59-.39,2.39-1.44,3.54-.48C175.13,56.49,175,62.21,175,62.21Z"/><path class="cls-16" d="M171.72,64.81a.25.25,0,0,1-.25,0,.25.25,0,0,1-.06-.35,2.22,2.22,0,0,0,.37-1.85c-.41-1.59-2.53-2.68-2.55-2.69a.26.26,0,0,1-.11-.34.25.25,0,0,1,.33-.11c.1,0,2.34,1.22,2.81,3a2.69,2.69,0,0,1-.44,2.25A.19.19,0,0,1,171.72,64.81Z"/><path class="cls-16" d="M169.55,58.71a.76.76,0,0,1-.34.67.91.91,0,0,1-.17.09,1.68,1.68,0,0,1-.44.1,1.65,1.65,0,0,1,.32.26.91.91,0,0,1,.19.29.66.66,0,0,1-.11.62,3.17,3.17,0,0,1-2.06.83,2.58,2.58,0,0,1,1.15,1.17.76.76,0,0,1-.1.76,1.41,1.41,0,0,1-.53.39,8.2,8.2,0,0,1-2,.56,4.21,4.21,0,0,1-.3-.38,2.71,2.71,0,0,1-.47,0,.19.19,0,0,1,.13,0c.91-.11,2.48-.43,2.79-.84a.27.27,0,0,0,0-.29,3,3,0,0,0-1.83-1.29.25.25,0,0,1,.07-.49c.61,0,2.29-.09,2.74-.69a.14.14,0,0,0,0-.16.81.81,0,0,0-.38-.34,6.1,6.1,0,0,0-1.46-.55.22.22,0,0,1-.13-.08.22.22,0,0,1,0-.22.24.24,0,0,1,.29-.18c.09,0,.27.06.49.13a5.47,5.47,0,0,0,1.12,0,.92.92,0,0,0,.42-.11.3.3,0,0,0,.12-.27,1.6,1.6,0,0,0-.27-.75.24.24,0,0,1,0-.27h0a.24.24,0,0,1,.4,0A2,2,0,0,1,169.55,58.71Z"/><path class="cls-10" d="M167.74,54.08a6.53,6.53,0,0,1,1.16.85c.35.33.57.5.82.72h0L165,35.47a.25.25,0,0,0-.48.1l3.26,18.51Z"/><path class="cls-10" d="M171.88,65.29c-1.65,1.06-2.12.27-2.12.27l-.83-4.74.07-.08a.66.66,0,0,0,.11-.62.91.91,0,0,0-.19-.29l-.2-.17v-.11l.33-.08a.91.91,0,0,0,.17-.09.68.68,0,0,0,.3-.4,1.19,1.19,0,0,0,.74.34h.24Z"/><path class="cls-16" d="M173.31,57.88A7.68,7.68,0,0,1,171.69,59a2.88,2.88,0,0,1-1.44.35,1.22,1.22,0,0,1-.89-.51c-.79-1.05-.12-2.43.36-3.16L170,56l.19-.14c-.4.6-1.08,1.84-.45,2.7a.75.75,0,0,0,.55.3c.88.1,2.23-.91,2.68-1.31a.25.25,0,1,1,.33.37Z"/><path class="cls-17" d="M198.78,53h0v.08l0,.15-.06.32c0,.11,0,.22-.08.34s-.05.22-.07.34c-.11.46-.22.93-.35,1.4-.26.93-.53,1.88-.85,2.8s-.65,1.85-1,2.75c-.19.45-.38.9-.58,1.34s-.41.88-.62,1.32c-.43.86-.89,1.71-1.38,2.53-.11.21-.24.41-.37.61s-.24.41-.38.61c-.26.39-.52.79-.79,1.17-.54.78-1.13,1.51-1.72,2.23s-1.23,1.4-1.89,2c-.16.17-.33.33-.49.49l-.52.46-.25.24-.07.06,0,0,0,0,.19-.14a3.05,3.05,0,0,1,.92-.42l.22-.06.11,0h.54l.1,0h.1c.07,0-.07,0-.28-.09a8.5,8.5,0,0,1-.83-.43c-.32-.19-.66-.42-1-.67-.71-.5-1.45-1.09-2.19-1.73s-1.48-1.32-2.22-2-1.48-1.44-2.21-2.19-1.46-1.52-2.18-2.29L177.5,63l-1-1.13-8,6,.27.4.25.37.51.74c.34.48.68,1,1,1.43.7.94,1.42,1.88,2.16,2.8s1.53,1.82,2.33,2.72c.41.44.82.89,1.25,1.33s.86.88,1.31,1.32c.91.87,1.86,1.72,2.94,2.57.54.41,1.11.83,1.74,1.24a18.49,18.49,0,0,0,2.1,1.18,12.71,12.71,0,0,0,2.88,1l.21,0,.24,0,.47.07.52,0h.53l.57,0c.19,0,.4,0,.6-.06l.3,0,.31-.06.63-.15a8.82,8.82,0,0,0,2.43-1.13l.52-.39.13-.1.11-.1.09-.08.37-.33L196,82l.71-.68c.94-.9,1.81-1.88,2.65-2.86s1.62-2,2.34-3.09,1.4-2.16,2-3.27l.46-.84c.15-.28.29-.56.43-.85s.29-.56.42-.85l.4-.86A45.78,45.78,0,0,0,208,61.6c.32-1.21.61-2.43.83-3.67q.17-.93.3-1.89l.06-.48c0-.16,0-.32,0-.49s0-.34.05-.51l.05-.61Z"/><path class="cls-18" d="M173.7,66.59a.69.69,0,0,0,1.38-.12.69.69,0,0,0-.75-.62A.69.69,0,0,0,173.7,66.59Z"/><path class="cls-18" d="M188,78.43a.31.31,0,0,0,.29-.23,22.52,22.52,0,0,0,.48-5.1.29.29,0,0,0-.31-.28.28.28,0,0,0-.28.3,22.14,22.14,0,0,1-.46,4.94.29.29,0,0,0,.21.36Z"/><path class="cls-18" d="M189.91,76.3a.24.24,0,0,0,.13,0,.3.3,0,0,0,.13-.39,24,24,0,0,0-1.44-2.55.3.3,0,0,0-.42,0,.31.31,0,0,0,0,.42,24.4,24.4,0,0,1,1.37,2.44A.29.29,0,0,0,189.91,76.3Z"/><path class="cls-18" d="M171.59,72.31a.3.3,0,0,0,.21-.09,81.6,81.6,0,0,1,8.08-6.6.3.3,0,0,0,.07-.41.29.29,0,0,0-.41-.06,81.72,81.72,0,0,0-8.16,6.66.3.3,0,0,0,.21.5Z"/><path class="cls-18" d="M174,70.14a.37.37,0,0,0,.19-.07.3.3,0,0,0,0-.42l-3-3.57a.29.29,0,0,0-.41,0,.28.28,0,0,0,0,.41l3,3.57A.3.3,0,0,0,174,70.14Z"/><path class="cls-10" d="M206.05,139.57,210,116l.33-1.92-11.48-4.06-.66-.23-2.73-1s-.22,1-.56,2.74l-.12.65a217.22,217.22,0,0,0-3.65,27.31Z"/><path class="cls-9" d="M204,139.57c1.72-9.38,3.94-23.09,4.07-23.89a.32.32,0,0,0-.26-.36.3.3,0,0,0-.35.26c0,.2-2.34,14.43-4.1,24Z"/><path class="cls-10" d="M229.27,101.36s.87,8.19-1,12.76-26,2.21-32.15-1.9C193.6,110.54,199,95,199,95Z"/><path class="cls-9" d="M194.82,112.27a7.51,7.51,0,0,0,1.06-.28,6.87,6.87,0,0,0,1.59-.77,8.92,8.92,0,0,0,1.42-1.15,14.9,14.9,0,0,0,3.48-6.94.31.31,0,1,0-.61-.12,14.24,14.24,0,0,1-3.53,6.82,6.69,6.69,0,0,1-1.1.87,6.78,6.78,0,0,1-1.51.73c-.22.07-.45.13-.68.18C194.9,111.82,194.86,112,194.82,112.27Z"/><path class="cls-9" d="M209.71,114.56a.3.3,0,0,0,.29.31h0a.3.3,0,0,0,.32-.28c.06-1.12.13-2.27.2-3.42,0-.2,0-.4,0-.6.24-3.75.55-7.42.78-10l.06-.61c0-.57.1-1.07.14-1.5l-.62-.1c0,.43-.08.94-.14,1.51,0,.2,0,.4-.05.61-.23,2.58-.54,6.22-.78,9.94,0,.21,0,.41,0,.62C209.83,112.21,209.76,113.4,209.71,114.56Z"/><path class="cls-9" d="M208.82,110.6a7.74,7.74,0,0,0,1.09.42,5,5,0,0,0,.61.15,3.85,3.85,0,0,0,.58.08,2.2,2.2,0,0,0,1-.16,1.28,1.28,0,0,0,.71-1c.22-1.15.7-5.92,1-9.3l.06-.61c.05-.53.1-1,.14-1.44l-.62-.08c0,.42-.08.92-.14,1.46,0,.2,0,.4-.05.61-.32,3.37-.79,8.13-1,9.25a.67.67,0,0,1-.37.52,2.14,2.14,0,0,1-1.31,0l-.61-.17a5.85,5.85,0,0,1-.85-.33.33.33,0,0,0-.42.13A.3.3,0,0,0,208.82,110.6Z"/><path class="cls-10" d="M226.27,139.57c1-8.74,2.06-20.42,2.68-27.19,0-.21,0-.42.06-.62.28-3,.45-4.87.45-4.87-1.48-.62-4.17-.19-7,.62l-.62.18a84.86,84.86,0,0,0-10.46,4.09v27.79Z"/><path class="cls-9" d="M224.81,139.57c.83-9.71,1.81-23.74,1.82-23.92a.31.31,0,0,0-.29-.33.31.31,0,0,0-.33.29c0,.18-1,14.26-1.82,24Z"/><path class="cls-9" d="M220.1,103.13a16.35,16.35,0,0,0,1.71,4.56,10,10,0,0,0,3.19,3.53,7.2,7.2,0,0,0,4,1.16c0-.21,0-.42,0-.62a6.65,6.65,0,0,1-3.68-1.06,9.28,9.28,0,0,1-2.9-3.19,16.1,16.1,0,0,1-1.72-4.5.32.32,0,0,0-.36-.25A.32.32,0,0,0,220.1,103.13Z"/><path class="cls-17" d="M195.28,100.84c6.68,6.24,22.48,9.55,34.65,3.62,1.34-3.65,2.81-16.67,3.2-20.57.08-.77.14-1.55.19-2.33a101.25,101.25,0,0,0,0-11.43l0-.64c-.16-3.24-.4-6.6-.62-10.17-.45-7-2.81-11.4-6.9-12a16.79,16.79,0,0,1-4.52-1.37c-.13-.06-.26-.12-.38-.19a12.63,12.63,0,0,1-2.07-1.28h-9.13a7,7,0,0,1-2.84,2.38l-.36.16c-3.24,1.4-7,1.12-7.8,5-.49,2.45,1.39,7.5,1.19,17.73,0,.75,0,1.53-.07,2.34s-.09,1.54-.15,2.35-.12,1.52-.2,2.32-.15,1.42-.24,2.15-.19,1.53-.3,2.32C198.31,85.46,196.68,95.37,195.28,100.84Z"/><path class="cls-18" d="M226.57,103h-.08a.27.27,0,0,1-.19-.33c5.07-18.59,4-37.49,4-37.68a.27.27,0,0,1,.26-.29.26.26,0,0,1,.28.26c0,.19,1,19.18-4,37.85A.27.27,0,0,1,226.57,103Z"/><path class="cls-18" d="M199.05,78.83a.3.3,0,0,0,.3-.26c.6-5.38.61-16.08.61-16.18a.3.3,0,1,0-.59,0c0,.1,0,10.77-.61,16.11a.3.3,0,0,0,.26.33Z"/><path class="cls-18" d="M211.56,99.08a.69.69,0,0,0,.74.63.7.7,0,0,0,.63-.75.69.69,0,0,0-.74-.63A.7.7,0,0,0,211.56,99.08Z"/><path class="cls-19" d="M211.45,102.41a.69.69,0,0,0,.74.63.7.7,0,0,0,.63-.75.69.69,0,0,0-.74-.63A.7.7,0,0,0,211.45,102.41Z"/><path class="cls-18" d="M203.41,65.78c-1.79-2.08-1.12-6.71-1.09-6.91a.29.29,0,0,1,.29-.25h6.08a.28.28,0,0,1,.29.25c0,.2.7,4.83-1.09,6.91a3,3,0,0,1-4.48,0Zm-.54-6.57c-.11,1-.41,4.56,1,6.19a2.43,2.43,0,0,0,3.59,0c1.39-1.62,1.09-5.21,1-6.19Z"/><path class="cls-10" d="M219.64,21.92c-1.7-1.1-7.06-1.65-7.06-1.65s-.88-2.32-1.87-3c-2.26-1.5-2.54,1.55-2.54,1.55S206,15.75,204,16.63s.55,3.75.55,3.75-3-.55-2.65,2,3.2,3.63,3.2,3.63a5.59,5.59,0,0,0-.44,3.75c.44,2.32,1.44,2.43,1.44,2.43l12.35,1.1s2.54,0,3.2-3.19a4.16,4.16,0,0,0-1.55-4.53S221.52,23.14,219.64,21.92Z"/><path class="cls-15" d="M209.55,42.88V45.2a8.24,8.24,0,0,0,.82.58c4,2.42,8.38-.58,8.38-.58V37.15l-8.1,5.05Z"/><path class="cls-10" d="M209.55,42.81V45.2a8.24,8.24,0,0,0,.82.58,15.5,15.5,0,0,0,5.93-5l-5.65,1.38Z"/><path class="cls-17" d="M218.73,42.84a4.59,4.59,0,0,1,3.45,3.56c-2.64,2.76-5,5.16-8.75,5.86V46.71A9.83,9.83,0,0,0,218.73,42.84Z"/><path class="cls-17" d="M209.47,43.65a5,5,0,0,0-3.37,3.61c2.45,3,3.75,4.09,7.33,5V46.71S211.43,46.68,209.47,43.65Z"/><polygon class="cls-10" points="208.1 86.79 209.67 90.58 209.67 90.58 210.38 92.29 212.37 97.1 213.33 95.24 213.67 94.58 214.44 93.09 214.78 92.44 215.56 90.95 215.9 90.29 216.67 88.8 216.67 88.8 217.01 88.14 217.73 86.74 217.72 86.59 217.6 85.48 217.35 82.96 217.24 81.85 216.98 79.33 216.87 78.22 216.61 75.7 216.5 74.59 216.24 72.07 216.13 70.96 215.87 68.44 215.76 67.33 215.5 64.81 215.39 63.7 215.13 61.19 215.02 60.07 214.76 57.55 214.65 56.44 214.38 53.84 212.46 53.77 212.4 54.2 212.29 55.08 212.02 57.08 211.91 57.96 211.64 59.96 211.53 60.84 211.26 62.84 211.15 63.72 210.88 65.72 210.77 66.6 210.5 68.6 210.39 69.48 210.12 71.48 210.01 72.36 209.74 74.36 209.63 75.24 209.36 77.24 209.25 78.12 208.98 80.12 208.87 81 208.6 83 208.49 83.88 208.22 85.88 208.11 86.76 208.1 86.79"/><polygon class="cls-9" points="212.29 55.08 214.76 57.55 214.65 56.44 212.4 54.2 212.29 55.08"/><polygon class="cls-9" points="211.91 57.96 215.13 61.19 215.02 60.07 212.02 57.08 211.91 57.96"/><polygon class="cls-9" points="211.53 60.84 215.5 64.81 215.39 63.7 211.64 59.96 211.53 60.84"/><polygon class="cls-9" points="211.15 63.72 215.87 68.44 215.76 67.33 211.26 62.84 211.15 63.72"/><polygon class="cls-9" points="210.77 66.6 216.24 72.07 216.13 70.96 210.88 65.72 210.77 66.6"/><polygon class="cls-9" points="210.39 69.48 216.61 75.7 216.5 74.59 210.5 68.6 210.39 69.48"/><polygon class="cls-9" points="210.01 72.36 216.98 79.33 216.87 78.22 210.12 71.48 210.01 72.36"/><polygon class="cls-9" points="209.63 75.24 217.35 82.96 217.24 81.85 209.74 74.36 209.63 75.24"/><polygon class="cls-9" points="209.25 78.12 217.72 86.59 217.6 85.48 209.36 77.24 209.25 78.12"/><polygon class="cls-9" points="208.87 81 216.67 88.8 217.01 88.14 208.98 80.12 208.87 81"/><polygon class="cls-9" points="208.49 83.88 215.56 90.95 215.9 90.29 208.6 83 208.49 83.88"/><polygon class="cls-9" points="208.11 86.76 214.44 93.09 214.78 92.44 208.22 85.88 208.11 86.76"/><polygon class="cls-9" points="209.67 90.58 210.38 92.29 213.33 95.24 213.67 94.58 209.67 90.58"/><polygon class="cls-9" points="214.38 53.84 213.43 55.27 212.46 53.77 212.29 55.05 213.41 56.19 214.49 54.83 214.38 53.84"/><polygon class="cls-10" points="215.99 51.45 213.43 55.27 210.97 51.45 213.43 48.26 215.99 51.45"/><path class="cls-18" d="M217.48,54.06a.31.31,0,0,0,.19-.06c2.54-2,4.7-7.27,4.79-7.49a.28.28,0,0,0-.16-.38.29.29,0,0,0-.38.16c0,.05-2.06,5-4.38,7.05l-3.87-5.25a.3.3,0,0,0-.24-.12.33.33,0,0,0-.24.12l-3.6,5.12c-.55-1-2-3.63-3.22-6.08A.3.3,0,0,0,206,47a.28.28,0,0,0-.13.39c1.53,3.09,3.43,6.49,3.45,6.52a.3.3,0,0,0,.24.15.3.3,0,0,0,.26-.12l3.64-5.17,3.81,5.17a.32.32,0,0,0,.2.12Z"/><path class="cls-19" d="M213.43,48.56a.29.29,0,0,0,.3-.3V47a.3.3,0,0,0-.59,0v1.31A.29.29,0,0,0,213.43,48.56Z"/><path class="cls-16" d="M206.65,32.6s-1.32-1.56-2.06,0-.17,4.7,1.83,4.19Z"/><path class="cls-15" d="M205.25,38.06a4.73,4.73,0,0,0,5,4.78c5,0,8.34-3.9,8.51-4.08h0l.05-1,.29-5.24.15-2.8s.63-5-4.16-5.95c-3.49-.67-6.77-.09-8.43,1.73l-.15.18a4.29,4.29,0,0,0-.94,2.35l-.16,5,0,1.24Z"/><path class="cls-10" d="M211,29.44s2.09,1.56,3.34.57-1.66-2.08-2.62-2S210.35,29.09,211,29.44Z"/><path class="cls-10" d="M208.7,29.44s-2.1,1.56-3.34.57S207,27.93,208,28,209.32,29.09,208.7,29.44Z"/><path class="cls-16" d="M210.35,38.68a2.11,2.11,0,0,0,1.42-.45.22.22,0,0,0,0-.32.22.22,0,0,0-.31,0,1.54,1.54,0,0,1-1.54.24.22.22,0,1,0-.18.4A1.61,1.61,0,0,0,210.35,38.68Z"/><path class="cls-8" d="M212.51,35.26a22.44,22.44,0,0,1-4.58.47,2.32,2.32,0,0,0,4.58-.47Z"/><path class="cls-10" d="M206.5,25.67c.78-.27,1.35,0,2.57.52,1.76.78,3.73.08,5.47-.81s2.79.35,2.2,1.16-.53,1.47.13,2.51-1.25,1.52-.2,2.33a1.06,1.06,0,0,1,.24,1.33.72.72,0,0,0,.81.95h0c.57-.14,1.37-1.15,1.37-1.15l.15-2.8s.63-5-4.16-5.95c-3.49-.67-6.77-.09-8.43,1.73Z"/><path class="cls-16" d="M211.91,33.66c0,.35.72.63,1.61.63s1.6-.28,1.6-.63-.72-.63-1.6-.63S211.91,33.31,211.91,33.66Z"/><path class="cls-16" d="M205.36,34.28h.39c.89,0,1.61-.28,1.61-.63s-.72-.63-1.61-.63h-.35Z"/><path class="cls-10" d="M211.21,31.74c0,.48.22.87.49.87s.49-.39.49-.87-.22-.87-.49-.87S211.21,31.26,211.21,31.74Z"/><path class="cls-10" d="M206.39,31.74c0,.48.22.87.49.87s.49-.39.49-.87-.22-.87-.49-.87S206.39,31.26,206.39,31.74Z"/><path class="cls-10" d="M217.18,36.81a4.44,4.44,0,0,0,1.56,1.95h0l.05-1A3.52,3.52,0,0,1,217.18,36.81Z"/><path class="cls-15" d="M218.06,33.48s1.92-2.58,3.32-.55c1.16,1.67-1,6-3.32,4.53Z"/><path class="cls-10" d="M218.32,36.68a.2.2,0,0,0,.2-.18,3.26,3.26,0,0,1,1.92-2.65.2.2,0,1,0-.15-.37,3.69,3.69,0,0,0-2.16,3,.19.19,0,0,0,.17.22Z"/><path class="cls-10" d="M220.17,35.48a.19.19,0,0,0,.15-.07.2.2,0,0,0,0-.28,1.94,1.94,0,0,0-1.38-.47.2.2,0,0,0-.14.24A.19.19,0,0,0,219,35a1.57,1.57,0,0,1,1,.4A.2.2,0,0,0,220.17,35.48Z"/><path class="cls-10" d="M209.66,34.15a.18.18,0,0,0,.19-.19.19.19,0,0,0-.19-.2,1.34,1.34,0,0,1-1.18-.55c.79-1.62,1.57-3.26,1.58-3.27a.21.21,0,0,0-.1-.27.2.2,0,0,0-.26.1s-.82,1.71-1.62,3.36a.17.17,0,0,0,0,.17A1.67,1.67,0,0,0,209.66,34.15Z"/><path class="cls-15" d="M257.41,51.94s2.65,2.69,5.28,1.64c2.12-.85,2.58-3.79,2.69-4.89l0-.42.34-.23c.47-.34,1.23-1,1.15-1.85-.12-1.15-2.22-.51-2.22-.51s.32-1.4-.3-1.81-1.87.31-1.87.31.68-1.71-.25-2.12c-1.39-.62-1.86,1.48-1.91,1.62,0-.15.68-6.61-.43-6.28s-1.86,5.69-2.09,7.16c0,.23-.05.36-.05.36h-.21c-.62,0-2.45.19-2.79,1.46C254.38,47.92,257.41,51.94,257.41,51.94Z"/><path class="cls-16" d="M262.84,47.38a2.38,2.38,0,0,0-.23,1.43.67.67,0,0,0,.46.49,1.24,1.24,0,0,0,.58,0,7.08,7.08,0,0,0,1.73-.62l0-.42a3.65,3.65,0,0,0,.34-.23.27.27,0,0,0-.12,0,5.31,5.31,0,0,1-2.43.82.25.25,0,0,1-.17-.2,2.58,2.58,0,0,1,.66-1.85.21.21,0,0,0,0-.29.21.21,0,0,0-.29,0c-.43.32-1.69,1.1-2.32.9-.09,0-.1-.07-.1-.09a.73.73,0,0,1,.09-.44,5.44,5.44,0,0,1,.77-1.14.21.21,0,0,0,.05-.12.2.2,0,0,0-.07-.19.22.22,0,0,0-.31,0,6,6,0,0,0-.78,1.14,2.06,2.06,0,0,0-.19.54.8.8,0,0,0,0,.31.55.55,0,0,0,.39.39A2.78,2.78,0,0,0,262.84,47.38Z"/><path class="cls-16" d="M259.51,45.55a.21.21,0,0,1,.16.19,1.33,1.33,0,0,0,.19.67.24.24,0,0,0,.22.13,1.13,1.13,0,0,0,.36-.13,6.44,6.44,0,0,0,1.17-1,.34.34,0,0,1-.06.12,5.57,5.57,0,0,0-.77,1.14.57.57,0,0,1-.13.08,1.45,1.45,0,0,1-.39.17l-.16,0a.66.66,0,0,1-.59-.3,1.88,1.88,0,0,1-.28-.9.21.21,0,0,1,.27-.22Z"/><path class="cls-16" d="M256.39,48a6.89,6.89,0,0,0,1.72-.05,2.44,2.44,0,0,0,1.21-.48,1.13,1.13,0,0,0,.38-.82c0-1.16-1.16-1.8-1.87-2.08,0,.23-.05.36-.05.36h-.21c.6.23,1.72.77,1.69,1.71a.66.66,0,0,1-.23.5,4.33,4.33,0,0,1-2.59.43.22.22,0,0,0-.05.43Z"/><path class="cls-16" d="M261.07,52.15a.19.19,0,0,0,.16-.14.21.21,0,0,0-.12-.28,2,2,0,0,1-1.22-1.14,4.79,4.79,0,0,1,.46-3.23.23.23,0,0,0-.09-.3.23.23,0,0,0-.3.1c0,.08-1.06,2.06-.48,3.59A2.44,2.44,0,0,0,261,52.14Z"/><path class="cls-17" d="M228.73,48.81l4.54,3.95c.73.67,1.46,1.35,2.19,2l2.19,2q1.09,1,2.19,1.95c.72.64,1.46,1.27,2.18,1.87s1.44,1.19,2.11,1.69c.34.25.66.47.93.65l.17.11.08,0,0,0a.17.17,0,0,1,.06.06s0,0,.05.07a.29.29,0,0,0,.22,0,3.5,3.5,0,0,0,1.28-.5,11.19,11.19,0,0,0,1.74-1.3,23.5,23.5,0,0,0,1.8-1.8,46.15,46.15,0,0,0,3.38-4.36c1.08-1.56,1.84-2.76,2.82-4.42a7.25,7.25,0,0,0,6.61,2.53,59.14,59.14,0,0,1-2.55,5.91,46.72,46.72,0,0,1-3.37,5.72,29.06,29.06,0,0,1-2.19,2.79,19.78,19.78,0,0,1-2.85,2.65,12.85,12.85,0,0,1-1.85,1.21,12.71,12.71,0,0,1-2.3,1,10.24,10.24,0,0,1-2.78.43,9.77,9.77,0,0,1-2.94-.37,11.48,11.48,0,0,1-1.36-.48l-.31-.15-.27-.13-.25-.12-.24-.13c-.61-.33-1.14-.65-1.64-1-1-.64-1.9-1.27-2.78-1.91s-1.72-1.28-2.55-1.93-1.65-1.31-2.45-2-1.6-1.33-2.38-2-1.57-1.35-2.34-2l-2.29-2.08-1.14-1-.56-.53-.57-.55Z"/><path class="cls-18" d="M233.07,67.44a.24.24,0,0,1-.16,0c-3-2.1-8.33-6.52-8.38-6.56a.27.27,0,0,1,0-.39.28.28,0,0,1,.39,0c.05,0,5.36,4.45,8.34,6.53a.28.28,0,0,1,.07.39A.28.28,0,0,1,233.07,67.44Z"/><path class="cls-18" d="M226.86,62.66h0l-2.11-.31a.27.27,0,0,1-.23-.31.27.27,0,0,1,.31-.23l2.11.3a.3.3,0,0,1,.24.32A.28.28,0,0,1,226.86,62.66Z"/><path class="cls-18" d="M261.82,56.84a.26.26,0,0,0,.14-.3.28.28,0,0,0-.33-.22c-4,.87-6-2.92-6-3a.27.27,0,0,0-.37-.13h0a.27.27,0,0,0-.12.37s2.2,4.22,6.59,3.26Z"/><path class="cls-18" d="M259.77,56.92a.25.25,0,0,0,.13-.14l1.31-3.06a.28.28,0,1,0-.51-.22l-1.31,3.06a.28.28,0,0,0,.15.37A.3.3,0,0,0,259.77,56.92Z"/><path class="cls-18" d="M257.43,54a.49.49,0,0,0,.86-.45.49.49,0,0,0-.65-.21A.5.5,0,0,0,257.43,54Z"/><path class="cls-18" d="M244.81,66.68a.27.27,0,0,0,.14-.2,12.52,12.52,0,0,1,.82-2.78.28.28,0,0,0-.12-.37.28.28,0,0,0-.38.12,12.58,12.58,0,0,0-.87,2.94.28.28,0,0,0,.41.29Z"/><path class="cls-18" d="M246.62,66.05l0,0a.27.27,0,0,0,0-.39,5.38,5.38,0,0,1-1-1.86.28.28,0,1,0-.54.11,5.44,5.44,0,0,0,1.09,2.1A.26.26,0,0,0,246.62,66.05Z"/></g><g class="cls-20"><ellipse class="cls-21" cx="72.61" cy="225.9" rx="72.61" ry="4.43"/></g><path class="cls-22" d="M62,87.42l-.09.43-.06.35-.12.66q-.12.63-.21,1.26c-.12.83-.22,1.64-.31,2.46-.18,1.63-.31,3.24-.38,4.86s-.1,3.23-.08,4.84.09,3.23.2,4.83.28,3.22.48,4.82c.11.8.21,1.6.35,2.4.06.4.12.8.19,1.19l.22,1.2c.07.39.16.79.24,1.19s.16.79.26,1.18c.18.79.36,1.58.57,2.37.1.39.19.78.3,1.17l.33,1.18.09.29,0,.15.09.29c.08.28.17.52.26.77s.19.46.29.67.2.4.3.6l.15.27.15.26.15.24.16.24.3.43a17.74,17.74,0,0,0,1.17,1.46c.38.42.76.8,1.12,1.16.74.7,1.45,1.3,2.15,1.86a48.41,48.41,0,0,0,4.16,2.94c2.73,1.75,5.45,3.26,8.19,4.68s5.48,2.73,8.24,4c1.38.62,2.77,1.23,4.16,1.82.7.3,1.39.6,2.1.89l1,.43,1.09.43,4.78-10.8-.92-.47-1-.5-1.91-1c-1.27-.67-2.54-1.35-3.8-2-2.52-1.37-5-2.79-7.43-4.24-1.21-.72-2.4-1.47-3.56-2.22s-2.3-1.51-3.37-2.29-2.09-1.56-3-2.32A15.39,15.39,0,0,1,78,120.71a4.63,4.63,0,0,1-.59-.74,0,0,0,0,0,0,0h0v0h0l0,0,.06.1s0,.1.07.16,0,.14.09.24l0,.07h0v0l0-.13,0-.24-.22-1c-.08-.32-.14-.65-.21-1-.14-.65-.25-1.3-.37-2-.06-.32-.1-.65-.16-1s-.11-.66-.15-1c-.19-1.32-.34-2.65-.46-4s-.19-2.67-.25-4,0-2.68,0-4,.07-2.68.16-4,.21-2.65.37-4c.08-.65.17-1.3.27-1.93l.15-.92.08-.43.06-.31Z"/><path class="cls-23" d="M77.9,91.1l2.72,20.59a38.15,38.15,0,0,1-11.43,4.53Z"/><path class="cls-24" d="M72.14,122.92a.34.34,0,0,0,.17,0,38,38,0,0,1,5-2.12.35.35,0,0,0,.23-.45.35.35,0,0,0-.45-.23A35.84,35.84,0,0,0,72,122.24a.36.36,0,0,0-.15.49A.37.37,0,0,0,72.14,122.92Z"/><path class="cls-24" d="M77,120.84a.37.37,0,0,0,.36-.32.36.36,0,0,0-.32-.4c-1.5-.17-3.47-.18-3.55-.18h0a.36.36,0,0,0-.36.36.37.37,0,0,0,.36.37s2,0,3.47.17Z"/><polygon class="cls-22" points="116.08 205.34 119.82 211.45 126.95 208.3 123.72 201.73 116.08 205.34"/><path class="cls-11" d="M149.54,211.77l-27,11.94a4,4,0,0,1-1-1.34c-1.18-2.21-2.07-6.17-2.73-8.62-.07-.29-.15-.56-.22-.8a9.63,9.63,0,0,0-.33-1,1.51,1.51,0,0,1,1-2.29c3.91,1.47,5.23-3.91,7.61-3.39,0,0,1,.21,4,1.19s7.2.64,10.88.56c4.74-.1,6.61,1.07,7.34,2.13A2.31,2.31,0,0,1,149.54,211.77Z"/><path class="cls-19" d="M149.54,211.77l-27,11.94a4,4,0,0,1-1-1.34l27.54-12.19A2.31,2.31,0,0,1,149.54,211.77Z"/><path class="cls-19" d="M125.31,222.49l-.8.36a6.42,6.42,0,0,0-.46-5,8.28,8.28,0,0,0-5.23-4.14c-.07-.29-.15-.56-.22-.8a9.07,9.07,0,0,1,6.08,4.62A7.14,7.14,0,0,1,125.31,222.49Z"/><path class="cls-8" d="M131.12,209.28a.48.48,0,0,1-.58-.14.49.49,0,0,1,.08-.69l1.5-1.16a.48.48,0,0,1,.69.09.49.49,0,0,1-.09.68l-1.5,1.16A.27.27,0,0,1,131.12,209.28Z"/><path class="cls-8" d="M128.82,208.62a.48.48,0,0,1-.58-.15.49.49,0,0,1,.09-.68l1.5-1.16a.48.48,0,0,1,.68.08.49.49,0,0,1-.08.69l-1.5,1.16Z"/><path class="cls-8" d="M133.24,209.52a.5.5,0,0,1-.58-.15.48.48,0,0,1,.08-.68l1.5-1.17a.49.49,0,0,1,.68.09.48.48,0,0,1-.08.68l-1.5,1.17Z"/><path class="cls-8" d="M135.34,209.71a.49.49,0,0,1-.5-.83l1.5-1.16a.49.49,0,0,1,.69.08.5.5,0,0,1-.09.69l-1.5,1.16A.27.27,0,0,1,135.34,209.71Z"/><path class="cls-8" d="M137.56,209.77a.48.48,0,0,1-.58-.15.49.49,0,0,1,.09-.68l1.5-1.16a.48.48,0,1,1,.59.76l-1.5,1.17Z"/><path class="cls-8" d="M139.88,209.63a.48.48,0,0,1-.58-.15.49.49,0,0,1,.09-.68l1.5-1.16a.48.48,0,1,1,.59.76l-1.5,1.17Z"/><path class="cls-10" d="M99.33,146.35c-2.5-2.47-22.25-8-35.36-4.31a17,17,0,0,0,1.28,17c17.24,2.82,26.86,8.62,26.86,8.62s6.11,14.12,9.74,19.3,12,21.65,12,21.65l12.55-5.36S106.14,153.06,99.33,146.35Z"/><path class="cls-9" d="M112.47,205.49a.31.31,0,0,0,.13,0l12.28-5.1a.36.36,0,0,0,.2-.47.36.36,0,0,0-.47-.2l-12.28,5.11a.36.36,0,0,0-.2.47A.37.37,0,0,0,112.47,205.49Z"/><path class="cls-9" d="M114.53,204.46a.31.31,0,0,0,.13,0,.35.35,0,0,0,.21-.46,97.34,97.34,0,0,0-8.59-15.57c-6-9-12.18-24.31-12.24-24.46a.37.37,0,0,0-.47-.2.36.36,0,0,0-.2.47c.06.16,6.31,15.49,12.3,24.58a95.43,95.43,0,0,1,8.52,15.44A.38.38,0,0,0,114.53,204.46Z"/><polygon class="cls-22" points="84.41 206.42 85.36 213.52 93.15 213.52 92.85 206.21 84.41 206.42"/><path class="cls-11" d="M112.4,225.84H82.9a4.12,4.12,0,0,1-.39-1.64c-.18-2.49.62-6.47,1-9,0-.29.08-.56.11-.81a7.67,7.67,0,0,0,.09-1,1.51,1.51,0,0,1,1.82-1.69c3,2.92,6.36-1.47,8.33,0,0,0,.85.61,3.2,2.72s6.32,3.5,9.71,4.92c4.38,1.83,5.62,3.65,5.86,4.91A2.32,2.32,0,0,1,112.4,225.84Z"/><path class="cls-19" d="M112.4,225.84H82.9a4.12,4.12,0,0,1-.39-1.64h30.13A2.32,2.32,0,0,1,112.4,225.84Z"/><path class="cls-19" d="M85.91,225.84H85a6.47,6.47,0,0,0,1.58-4.72,8.34,8.34,0,0,0-3.1-5.91c0-.29.08-.56.11-.81a9,9,0,0,1,3.69,6.68A7.08,7.08,0,0,1,85.91,225.84Z"/><path class="cls-8" d="M96.57,216.11a.49.49,0,0,1-.12-1l1.84-.45a.49.49,0,1,1,.24.94l-1.85.46Z"/><path class="cls-8" d="M94.73,214.58a.5.5,0,0,1-.47-.37.49.49,0,0,1,.36-.59l1.84-.46a.5.5,0,0,1,.59.36.48.48,0,0,1-.35.58l-1.85.46Z"/><path class="cls-8" d="M98.41,217.18a.49.49,0,0,1-.12-1l1.84-.45a.49.49,0,1,1,.24.94l-1.84.46Z"/><path class="cls-8" d="M100.25,218.21a.48.48,0,0,1-.47-.37.49.49,0,0,1,.35-.59l1.85-.45a.48.48,0,0,1,.59.35.5.5,0,0,1-.36.59l-1.84.46Z"/><path class="cls-8" d="M102.26,219.16a.48.48,0,0,1-.12-.95l1.85-.46a.48.48,0,0,1,.59.35.49.49,0,0,1-.36.59l-1.84.46Z"/><path class="cls-8" d="M104.44,220a.49.49,0,0,1-.12-1l1.84-.46a.49.49,0,1,1,.24.94l-1.84.46Z"/><path class="cls-25" d="M25.31,147.63c0,.12,0,.23,0,.34l.18.14a41.35,41.35,0,0,0,15.38,7.18l.57.13c.94.22,1.88.41,2.82.56,1.27.21,2.54.38,3.8.49s2.23.15,3.32.17a41,41,0,0,0,13-1.73l.43-.14a29.47,29.47,0,0,0,2.84-1.13l.4-.2c.56-.27,1.09-.56,1.59-.86-.08-1.82-.1-4-.08-6.32v-.59c0-3.23.13-6.73.26-9.92,0-.15,0-.3,0-.45.07-1.67.14-3.26.22-4.67,0-.15,0-.3,0-.44.06-1.2.13-2.26.18-3.13,0-.22,0-.44,0-.66l0-.51h0c0-.62.1-1.22.15-1.81.08-1,.17-1.86.27-2.76s.23-2,.36-3,.28-2,.44-3,.34-2,.52-2.94c.63-3.32,1.34-6.17,2.06-8.63,0-.17.09-.34.14-.5.29-1,.58-1.89.86-2.74.07-.19.13-.38.19-.56,1.58-4.7,2.89-7.54,2.91-9.45,0-4-2.85-5.23-5.87-6.83L72,83.51c-.51-.27-1-.56-1.52-.87-.2-.13-.41-.27-.61-.42l-.41-.29a8.9,8.9,0,0,1-2.93-3.72L55.09,75.8a16.45,16.45,0,0,1-2.93,1c-.17.05-.34.1-.53.14l-.67.15-.45.08-.36.06a21.62,21.62,0,0,1-3.79.25h-.43l-.31,0a8,8,0,0,0-2.78.36h0l-.5.19C38.62,79.53,35.7,84,33.81,90.77c-.52,1.9-1,3.74-1.54,5.55-.06.19-.11.39-.17.59-.11.39-.21.78-.32,1.18h0l-.12.42c-.39,1.4-.76,2.78-1.13,4.14h0c0,.14-.07.29-.11.43h0a1.87,1.87,0,0,0-.07.22l-.2.8a129.94,129.94,0,0,0-3,14.31c-.14,1-.27,2-.37,3q0,.36-.09.81a.88.88,0,0,1,0,.16l0,.32s0,.1,0,.16c-.19,1.79-.42,4.28-.65,7,0,.15,0,.29,0,.44C25.41,136.7,24.94,144.29,25.31,147.63Z"/><path class="cls-23" d="M58,142.34h0c-6.68-1.52-10.27-11.6-10.42-12a.34.34,0,0,1,.21-.42.32.32,0,0,1,.41.2c0,.1,3.62,10.17,9.94,11.61a.33.33,0,0,1,.25.39A.33.33,0,0,1,58,142.34Z"/><path class="cls-23" d="M63.54,151.52a4.79,4.79,0,0,0-4-1.08,6.67,6.67,0,0,0-4.23,2c-1.25,1.14-2,1.84-5.67-.56-4-2.58-7.19-2.28-8.53-.9-1,1-1.05,2.59-.16,4.27l.58.13c-1-1.63-1-3.14-.11-4.09.75-.78,2.19-1.16,4.06-.77a11.52,11.52,0,0,1,3.92,1.73c3.76,2.46,4.76,1.83,6.21.51a6.19,6.19,0,0,1,4-1.92,4.4,4.4,0,0,1,3.69.94,4.49,4.49,0,0,1,1.17,3.09l.44-.15A4.88,4.88,0,0,0,63.54,151.52Z"/><path class="cls-23" d="M39.53,145.4c-1.25-.86-1.07-1.23-.66-2.05a4.85,4.85,0,0,0,.59-3.08,2.63,2.63,0,0,0-1.12-1.93c-1.51-1-3.93-.43-4-.41h0c-2.19,1-2.41,3.32-2.32,5.68.11,3,1.59,5.13,4.16,5.86l.21.05a3.82,3.82,0,0,0,4-1.78A1.8,1.8,0,0,0,39.53,145.4Z"/><path class="cls-23" d="M68,153.4a3.86,3.86,0,0,1-1-3.15,7.29,7.29,0,0,1,2.58-4c0-.2,0-.39,0-.58-1.09.89-2.74,2.54-3,4.51a4.24,4.24,0,0,0,1.11,3.45l.4-.2S68.06,153.41,68,153.4Z"/><path class="cls-10" d="M76.48,58.57S83,57.2,83.1,54.73c.14-2.28-2.55-2-2.55-2s3.14-5.15,1.34-6.16-4.08,1.87-4.08,1.87,1.65-6.11-.55-5.67-2.49,3.8-2.49,3.8-7.31-2.61-11.47-1.36a5.33,5.33,0,0,0-3.5,3.58s-1.68-1-2.88-.39-.1,2.72-.1,2.72a3.71,3.71,0,0,0-1.28,3.68c.56,2.25,2.18,6.71,2.18,6.71Z"/><path class="cls-22" d="M67.35,76.53l-.63,3a9.59,9.59,0,0,1-1.21.52c-5.81,2-10.58-3-10.58-3l2.18-10.31,9,8.65Z"/><path class="cls-10" d="M67.35,76.53l-.63,3a9.59,9.59,0,0,1-1.21.52c-4-2.67-6.25-8-6.25-8l6.87,3.3Z"/><path class="cls-10" d="M73.07,52.45s7,2.19,2.87,9.16C75.94,61.61,72.49,54.38,73.07,52.45Z"/><path class="cls-24" d="M73.84,64.13s2.11-1.63,2.64.56-1,6.08-3.48,4.88Z"/><path class="cls-22" d="M74.17,71.51s-1.29,6.15-7.68,4.79-9.63-7.25-9.81-7.53h0l.2-1.31,1-6.78L58.49,57s.55-6.62,6.93-6.5c4.66.08,8.71,1.71,10.34,4.49a5.63,5.63,0,0,1,.72,3.54l-1.16,6.48L75,66.64Z"/><path class="cls-10" d="M61.13,61.47s.94,3.78,3,3.6a8.93,8.93,0,0,1,6,1.27s3.22-.48,4.74,1.12c1,1.08-1.38,9.09-5.83,9.38s-9.81-2.38-10.34-6.63A23.71,23.71,0,0,1,59,62.59Z"/><path class="cls-8" d="M71.46,68.14a17.72,17.72,0,0,1-5.36-1.38s-.79,3.51,2.25,3.81C70.79,70.82,71.46,68.14,71.46,68.14Z"/><path class="cls-24" d="M66.81,64.08c-.09.45-1.09.62-2.23.38s-2-.8-1.88-1.25,1.09-.61,2.23-.37S66.91,63.63,66.81,64.08Z"/><path class="cls-24" d="M75,66.64l-.5-.09c-1.14-.23-2-.79-1.89-1.24s1.09-.62,2.23-.38c.15,0,.3.07.44.12Z"/><path class="cls-10" d="M67.27,61.6c-.13.62-.52,1.06-.86,1S65.89,62,66,61.34s.51-1.05.86-1S67.4,61,67.27,61.6Z"/><path class="cls-10" d="M73.35,62.89c-.13.61-.51,1-.86,1s-.52-.63-.39-1.25.52-1,.86-1S73.48,62.27,73.35,62.89Z"/><path class="cls-10" d="M69.57,65.32a.26.26,0,0,1-.2-.31.27.27,0,0,1,.31-.2,1.76,1.76,0,0,0,1.65-.38c-.57-2.29-1.13-4.6-1.13-4.62a.26.26,0,1,1,.5-.13s.59,2.42,1.17,4.76a.26.26,0,0,1-.05.22A2.19,2.19,0,0,1,69.57,65.32Z"/><path class="cls-10" d="M64.78,58.13c.28-.62,1.08-1.72,3.17-1.38a.57.57,0,0,1,.47.52h0a.55.55,0,0,1-.57.59,2.5,2.5,0,0,0-2.08.92.55.55,0,0,1-.81,0l-.06,0A.58.58,0,0,1,64.78,58.13Z"/><path class="cls-10" d="M75.42,60.37c0-.67-.29-2-2.35-2.54a.56.56,0,0,0-.63.29h0a.56.56,0,0,0,.28.77,2.48,2.48,0,0,1,1.54,1.68.54.54,0,0,0,.72.36l.07,0A.59.59,0,0,0,75.42,60.37Z"/><path class="cls-10" d="M59.21,66.69a5.75,5.75,0,0,1-2.53,2.08h0l.2-1.31A4.52,4.52,0,0,0,59.21,66.69Z"/><path class="cls-22" d="M59,62.19s-1.76-3.82-4.11-1.61c-1.93,1.83-.3,8,3,6.7Z"/><path class="cls-10" d="M57.78,66.22a.25.25,0,0,1-.2-.28A4.35,4.35,0,0,0,55.84,62a.25.25,0,0,1-.07-.35.26.26,0,0,1,.36-.08,4.85,4.85,0,0,1,2,4.41.26.26,0,0,1-.28.23Z"/><path class="cls-10" d="M55.74,64.19a.26.26,0,0,1-.17-.14.25.25,0,0,1,.11-.35,2.5,2.5,0,0,1,1.89-.23.27.27,0,0,1,.12.35.26.26,0,0,1-.35.12c-.41-.21-1.18.1-1.42.22A.29.29,0,0,1,55.74,64.19Z"/><path class="cls-10" d="M75.76,55a1.1,1.1,0,0,1-.4.5c-1.52,1-4.35,0-6.9-1.46a4.89,4.89,0,0,0-4.87.16c.21,2.76-2.4,2.44-2.27,4.52a16.19,16.19,0,0,1-.63,4.66l-1.55-.55a4,4,0,0,0-1.21-2.19L58.49,57s.55-6.62,6.93-6.51C70.08,50.62,74.13,52.25,75.76,55Z"/><path class="cls-10" d="M28.12,142.24s-6.08,24,25.48,24c16.86,0,24.88-1.63,24.88-1.63s.4,14.89,1.19,21.17,3.56,21.93,3.56,21.93l13.28,1s2.12-54.51-6-59.53-19.84-5.17-39.93-7.09C50.56,142.14,32.52,139.08,28.12,142.24Z"/><path class="cls-9" d="M85.05,203.37h.08a.35.35,0,0,0,.27-.43c-1.83-7.67-2.56-18.65-3.15-27.48s-.92-13.27-1.82-14.07-4-.57-8.86,0c-6.07.65-15.24,1.62-25.13.49-4.91-.57-8.67-2.49-11.19-5.72-4.51-5.8-3.48-13.93-3.46-14a.38.38,0,0,0-.31-.41.36.36,0,0,0-.41.31c-.05.34-1.09,8.51,3.61,14.55,2.64,3.39,6.57,5.41,11.68,6,10,1.15,19.19.17,25.29-.48,4.21-.45,7.54-.8,8.3-.13.17.15.51.89.86,4.2.26,2.43.47,5.65.72,9.38.59,8.85,1.32,19.87,3.17,27.6A.36.36,0,0,0,85.05,203.37Z"/><path class="cls-9" d="M96.37,204.46a.36.36,0,0,0,0-.72l-13.58-.82a.35.35,0,0,0-.38.34.36.36,0,0,0,.33.38l13.58.82Z"/><rect class="cls-6" x="59.67" y="143.88" width="40.11" height="5.23" rx="0.16"/><path class="cls-8" d="M104,149.11a3.33,3.33,0,0,0,3.22-2.47l7.5-28.09a2.7,2.7,0,0,0-2.61-3.4H94.12a2.7,2.7,0,0,0-2.61,2l-9,32Z"/><path class="cls-6" d="M91.51,117.12,82.6,148.85h-2l8.91-31.73a2.7,2.7,0,0,1,2.6-2h2A2.7,2.7,0,0,0,91.51,117.12Z"/><path class="cls-17" d="M96.58,132.58a2.46,2.46,0,0,0,2.46,3.2,4.26,4.26,0,0,0,3.93-3.2,2.45,2.45,0,0,0-2.45-3.19A4.27,4.27,0,0,0,96.58,132.58Z"/><path class="cls-22" d="M72.09,137.67s8.14.56,10.74,3l-1.58,5.64s-4.87-2-6.22-1.8-2.15,2.41-6.66,1.06Z"/><path class="cls-22" d="M72.05,137.3l-.92-.38-.95-.4-1.91-.83c-1.27-.56-2.54-1.15-3.79-1.75-2.5-1.2-5-2.48-7.33-3.83a74.07,74.07,0,0,1-6.74-4.33c-.52-.39-1-.78-1.53-1.18s-1-.79-1.41-1.2A20.6,20.6,0,0,1,45.11,121a10.07,10.07,0,0,1-.82-1.16,7.9,7.9,0,0,1-.53-1.09,13.55,13.55,0,0,1-.74-2.8,28.88,28.88,0,0,1-.13-7,57.2,57.2,0,0,1,1.23-7.6c.29-1.28.62-2.56,1-3.82.18-.63.37-1.26.57-1.88l.3-.91.15-.44.07-.21,0-.1v-.06a7.19,7.19,0,1,0-13.38-5.16l-.22.75,0,.2-.05.16-.08.3-.16.6c-.1.39-.19.77-.28,1.16-.18.77-.35,1.53-.51,2.3-.32,1.53-.59,3.07-.83,4.62a70.35,70.35,0,0,0-.81,9.51,49.38,49.38,0,0,0,.18,5,36.4,36.4,0,0,0,.85,5.19,25.23,25.23,0,0,0,1.94,5.37,20.48,20.48,0,0,0,1.61,2.66,22.19,22.19,0,0,0,1.85,2.22,33.45,33.45,0,0,0,3.89,3.49c1.32,1,2.66,1.91,4,2.75a81.6,81.6,0,0,0,8.12,4.41c2.74,1.3,5.49,2.48,8.26,3.56,1.39.55,2.78,1.07,4.18,1.57l2.11.74,1.06.35L69,146a4.59,4.59,0,0,0,3.15-8.61Z"/><path class="cls-24" d="M38.74,121.83h.08a20.7,20.7,0,0,1,5.91-.7.29.29,0,1,0,0-.57,20.38,20.38,0,0,0-6.1.73.28.28,0,0,0-.19.35A.29.29,0,0,0,38.74,121.83Z"/><path class="cls-24" d="M44,121.11a.26.26,0,0,0,.21-.1.28.28,0,0,0,0-.4,7,7,0,0,0-2.39-1.3.28.28,0,1,0-.16.54A7,7,0,0,1,43.84,121,.26.26,0,0,0,44,121.11Z"/><path class="cls-25" d="M28.59,103.68l5.9,1.62.43.12L39,106.54l.49.13,5.25,1.44.4-1.86.1-.44.94-4.37.1-.44,1.78-8.24a17.26,17.26,0,0,0,.54-6.23A8.08,8.08,0,0,0,41,79.67a5.86,5.86,0,0,0-2.34.34,3.38,3.38,0,0,0-.44.18,9.3,9.3,0,0,0-3.68,3.32l-.24.36c-2,3-3.35,7.28-4.27,11.25,0,.15-.07.31-.11.46-.42,1.89-.74,3.71-1,5.28,0,.24-.07.48-.1.72C28.75,102.36,28.66,103.07,28.59,103.68Z"/><path class="cls-23" d="M44.33,107.51c1-5.76,4-17.61,4.05-17.67a.21.21,0,0,1,.26-.16.22.22,0,0,1,.16.25c0,.06-3.08,11.88-4,17.62C44.69,107.77,44.33,107.79,44.33,107.51Z"/><path class="cls-23" d="M47.73,94.1a.27.27,0,0,0,.12,0l2.22-1.43a.21.21,0,0,0,.07-.29.22.22,0,0,0-.3-.07l-2.22,1.43a.21.21,0,0,0-.07.29A.2.2,0,0,0,47.73,94.1Z"/><path class="cls-8" d="M62.14,94.72a3,3,0,0,0,2.06-.82c3.52-3.1,3.5-14.35,3.5-14.83a.4.4,0,0,0-.41-.4h0a.41.41,0,0,0-.41.41c0,.11,0,11.35-3.22,14.21a2.23,2.23,0,0,1-1.84.59c-4.32-.57-6.29-13.17-6.69-18a.41.41,0,0,0-.44-.38.41.41,0,0,0-.37.45,67.7,67.7,0,0,0,1.43,9c1.45,6.14,3.46,9.43,6,9.76A3,3,0,0,0,62.14,94.72Z"/><path class="cls-26" d="M29.46,199.84H72.09a1.81,1.81,0,1,0,0-3.61H29.46a1.81,1.81,0,0,0,0,3.61Z"/><path class="cls-17" d="M76,227.42l.24,0a1.8,1.8,0,0,0,1.55-2l-7.77-58a1.8,1.8,0,0,0-1.79-1.57H33.47a1.8,1.8,0,0,0-1.79,1.57l-7.65,58a1.81,1.81,0,0,0,3.59.47l7.43-56.42H66.67l7.56,56.42A1.81,1.81,0,0,0,76,227.42Z"/><path class="cls-17" d="M58.18,167.63H35.59c-7.16,0-14.82-3.92-15.92-11a134.16,134.16,0,0,1-1.42-27c.46-9.51,4.15-18.33,11.62-24.22h0s-3.22,36.66-.31,46.79C33.45,165.72,58.18,167.63,58.18,167.63Z"/><path class="cls-11" d="M118.36,34.94V45.79a2.59,2.59,0,0,0,2.6,2.59h19.69l5.94,2.14a.76.76,0,0,0,1-1l-2.25-5.81V34.94a2.59,2.59,0,0,0-2.59-2.59H121A2.59,2.59,0,0,0,118.36,34.94Z"/><path class="cls-8" d="M135.47,40.67a1.88,1.88,0,1,0,1.88-1.88A1.88,1.88,0,0,0,135.47,40.67Z"/><path class="cls-8" d="M129.52,40.67a1.88,1.88,0,1,0,1.88-1.88A1.88,1.88,0,0,0,129.52,40.67Z"/><path class="cls-8" d="M123.58,40.67a1.88,1.88,0,1,0,1.87-1.88A1.88,1.88,0,0,0,123.58,40.67Z"/></g></g></g></svg>