<?xml version="1.0" encoding="utf-8"?>
<!-- Generator: Adobe Illustrator 25.0.1, SVG Export Plug-In . SVG Version: 6.00 Build 0)  -->
<svg version="1.1" id="Layer_1" xmlns="http://www.w3.org/2000/svg" xmlns:xlink="http://www.w3.org/1999/xlink" x="0px" y="0px"
	 viewBox="0 0 29.2 32.9" style="enable-background:new 0 0 29.2 32.9;" xml:space="preserve">
<style type="text/css">
	.st0{fill:#FFAB4B;}
</style>
<g>
	<path class="st0" d="M8.2,11.4c3.1,0,5.7-2.6,5.7-5.7c0-3.1-2.6-5.7-5.7-5.7C5,0,2.5,2.6,2.5,5.7C2.5,8.9,5,11.4,8.2,11.4z
		 M8.2,1.2c2.5,0,4.5,2,4.5,4.5c0,2.5-2,4.5-4.5,4.5s-4.5-2-4.5-4.5C3.7,3.2,5.7,1.2,8.2,1.2z"/>
	<path class="st0" d="M21.1,17.8c3.1,0,5.7-2.6,5.7-5.7c0-3.1-2.6-5.7-5.7-5.7c-3.1,0-5.7,2.6-5.7,5.7S17.9,17.8,21.1,17.8z
		 M21.1,7.6c2.5,0,4.5,2,4.5,4.5s-2,4.5-4.5,4.5c-2.5,0-4.5-2-4.5-4.5S18.6,7.6,21.1,7.6z"/>
	<path class="st0" d="M21.1,19.8c-1.5,0-2.9,0.4-4.1,1.1l-0.5,0.3l-0.1-0.6c-0.5-4.1-4-7.2-8.1-7.2C3.7,13.4,0,17,0,21.6V26
		c0,0.3,0.2,0.5,0.5,0.5H13L12.9,27c0,0.3-0.1,0.7-0.1,1v4.4c0,0.3,0.2,0.5,0.5,0.5h15.3c0.3,0,0.5-0.2,0.5-0.5V28
		C29.3,23.4,25.6,19.8,21.1,19.8z M13.4,25.2l-0.1,0.3H1.1v-3.9c0-3.9,3.2-7.1,7.1-7.1s7.1,3.2,7.1,7.1v0.6l-0.1,0.1
		C14.4,23.1,13.8,24.1,13.4,25.2z M28.2,31.8H14V28c0-3.9,3.2-7.1,7.1-7.1c3.9,0,7.1,3.2,7.1,7.1V31.8z"/>
</g>
</svg>
