<svg xmlns="http://www.w3.org/2000/svg" viewBox="0 0 49.12 31.15"><defs><style>.cls-1{fill:#fa5;}</style></defs><g id="Layer_2" data-name="Layer 2"><g id="Option_1" data-name="Option 1"><path class="cls-1" d="M39.27,11.46a11.07,11.07,0,0,0-1.15.06,8.22,8.22,0,0,0-3-4.17,8.1,8.1,0,0,0-4.88-1.62h0a8,8,0,0,0-2.61.43A10.65,10.65,0,0,0,7.33,10.67a10.31,10.31,0,0,0,.31,2.53A9,9,0,0,0,9,31.15H39.27a9.85,9.85,0,1,0,0-19.69ZM8.77,14.8a.89.89,0,0,0,.68-.37.82.82,0,0,0,.09-.76A9,9,0,0,1,15,2.28,9,9,0,0,1,18,1.74,9,9,0,0,1,26.4,7.55a.84.84,0,0,0,.47.49.82.82,0,0,0,.67,0,6.52,6.52,0,0,1,9.12,4.63.84.84,0,0,0,.36.54.83.83,0,0,0,.63.12,8,8,0,0,1,1.62-.16,8.16,8.16,0,0,1,0,16.31H9A7.33,7.33,0,0,1,8.77,14.8Z"/><path class="cls-1" d="M29.11,19.91a.83.83,0,0,0-.61-.26.86.86,0,0,0-.6.25l-2.85,2.85V13a.86.86,0,1,0-1.71,0v9.78L20.49,19.9a.84.84,0,0,0-.6-.25.86.86,0,0,0-.61.25.88.88,0,0,0-.25.61.86.86,0,0,0,.25.61l4.31,4.31a.84.84,0,0,0,.6.25.86.86,0,0,0,.61-.25l4.31-4.31a.86.86,0,0,0,.25-.61A.84.84,0,0,0,29.11,19.91Z"/></g></g></svg>