<svg xmlns="http://www.w3.org/2000/svg" viewBox="0 0 343.73 231.72"><defs><style>.cls-1{isolation:isolate;}.cls-2{fill:#46c7ce;opacity:0.25;}.cls-3{fill:#fa5;}.cls-4{fill:#fff;}.cls-5{fill:#ffd371;}.cls-6{fill:#634e43;}.cls-7{opacity:0.15;mix-blend-mode:multiply;}</style></defs><g class="cls-1"><g id="Layer_2" data-name="Layer 2"><g id="Option_1" data-name="Option 1"><path class="cls-2" d="M169.14,231.72c95.47,0,137.11-28.37,137.11-28.37s62.4-29.77,26.17-107.57C303.59,33.87,200.35-16.77,149.68,5.24S103.57,55.08,47.91,95.36,5.14,167.63,15.1,183.83C15.1,183.83,46.14,231.72,169.14,231.72Z"/><rect class="cls-3" y="67" width="121.8" height="44.91" rx="10.3"/><path class="cls-4" d="M41.17,90.32A14.42,14.42,0,1,1,26.74,75.91,14.38,14.38,0,0,1,41.17,90.32Z"/><circle class="cls-5" cx="26.75" cy="86.94" r="5.22" transform="translate(-64.02 92.9) rotate(-76.66)"/><path class="cls-5" d="M37.58,99.84a14.4,14.4,0,0,1-21.66,0,12.21,12.21,0,0,1,21.66,0Z"/><path class="cls-4" d="M99,83.11H50.4A2.4,2.4,0,0,1,48,80.71h0a2.39,2.39,0,0,1,2.39-2.39H99a2.39,2.39,0,0,1,2.39,2.39h0A2.4,2.4,0,0,1,99,83.11Z"/><path class="cls-4" d="M99,91.85H50.4A2.39,2.39,0,0,1,48,89.46h0a2.39,2.39,0,0,1,2.39-2.4H99a2.39,2.39,0,0,1,2.39,2.4h0A2.39,2.39,0,0,1,99,91.85Z"/><path class="cls-4" d="M83.36,100.59h-33A2.39,2.39,0,0,1,48,98.2h0a2.39,2.39,0,0,1,2.39-2.39h33a2.4,2.4,0,0,1,2.4,2.39h0A2.4,2.4,0,0,1,83.36,100.59Z"/><path class="cls-6" d="M266.25,141.64l-17.35,1.47-6.83-80.47A32.65,32.65,0,1,0,177,68.16l6.84,80.48-17.35,1.47-6.84-80.47a50.06,50.06,0,1,1,99.76-8.48Z"/><rect class="cls-3" x="157.52" y="94.78" width="120.15" height="118.01" rx="7.65" transform="translate(-12.24 18.97) rotate(-4.86)"/><circle class="cls-7" cx="216.26" cy="138.07" r="13" transform="translate(-22.75 44.77) rotate(-11.23)"/><path class="cls-7" d="M219.49,182.49h0a6.66,6.66,0,0,1-7.19-6.06l-2.2-25.91a6.66,6.66,0,0,1,6.06-7.18h0a6.66,6.66,0,0,1,7.18,6.06l2.21,25.91A6.66,6.66,0,0,1,219.49,182.49Z"/><path class="cls-6" d="M224.45,138.78a8.1,8.1,0,1,0-11.9,7.83,3.21,3.21,0,0,0,0,.62L214.81,174a4.14,4.14,0,1,0,8.26-.7l-2.27-26.81c0-.08,0-.16-.05-.24A8.08,8.08,0,0,0,224.45,138.78Z"/><rect class="cls-5" x="250.64" y="113.1" width="11.97" height="24.91" transform="translate(-9.71 22.17) rotate(-4.86)"/><rect class="cls-5" x="253.25" y="143.77" width="11.97" height="24.91" transform="translate(-12.29 22.5) rotate(-4.86)"/><path class="cls-3" d="M339.43,66H294.59a2.51,2.51,0,0,0-2.52,2.51V88.05l0,11.23L297.46,93h42a2.51,2.51,0,0,0,2.51-2.52V68.49A2.51,2.51,0,0,0,339.43,66Z"/><path class="cls-4" d="M325.42,79.15a2.25,2.25,0,1,0,2.25-2.23A2.23,2.23,0,0,0,325.42,79.15Z"/><path class="cls-4" d="M315.79,79.12A2.25,2.25,0,1,0,318,76.89,2.23,2.23,0,0,0,315.79,79.12Z"/><path class="cls-4" d="M306.16,79.09a2.25,2.25,0,1,0,2.25-2.23A2.23,2.23,0,0,0,306.16,79.09Z"/><rect class="cls-4" x="80.6" y="153.56" width="49.38" height="40.82" rx="2.16"/><path class="cls-3" d="M94.46,172.37v1.37a1.25,1.25,0,0,0,1,1.23l1.63.29a8.14,8.14,0,0,0,.84,2L97,178.64a1.24,1.24,0,0,0,.14,1.6l1,1a1.24,1.24,0,0,0,1.6.14l1.32-.92a8.51,8.51,0,0,0,2,.83l.29,1.62a1.25,1.25,0,0,0,1.23,1H106a1.26,1.26,0,0,0,1.24-1l.28-1.62a8.51,8.51,0,0,0,2-.83l1.35.94a1.24,1.24,0,0,0,1.6-.14l1-1a1.24,1.24,0,0,0,.14-1.6l-.94-1.35a8.54,8.54,0,0,0,.84-2l1.61-.28a1.26,1.26,0,0,0,1-1.24V172.4a1.25,1.25,0,0,0-1-1.23l-1.61-.29a8.54,8.54,0,0,0-.84-2l.94-1.35a1.24,1.24,0,0,0-.14-1.6l-1-1a1.24,1.24,0,0,0-1.6-.14l-1.34.9a8.86,8.86,0,0,0-2-.83l-.29-1.62a1.25,1.25,0,0,0-1.23-1h-1.4a1.25,1.25,0,0,0-1.21,1l-.28,1.66a8.47,8.47,0,0,0-2,.84l-1.35-.95a1.24,1.24,0,0,0-1.6.11l-1,1a1.25,1.25,0,0,0-.14,1.6l.95,1.35a8.37,8.37,0,0,0-.84,2l-1.63.28A1.25,1.25,0,0,0,94.46,172.37Zm7.12.71v0a3.72,3.72,0,1,1,3.71,3.72A3.71,3.71,0,0,1,101.58,173.05Z"/></g></g></g></svg>