<svg xmlns="http://www.w3.org/2000/svg" viewBox="0 0 40.25 31.5"><defs><style>.cls-1{fill:#fa5;}</style></defs><g id="Layer_2" data-name="Layer 2"><g id="Option_1" data-name="Option 1"><path class="cls-1" d="M13.59,18.05a5.4,5.4,0,1,0-5.41-5.4A5.41,5.41,0,0,0,13.59,18.05Zm0-9.29a3.89,3.89,0,1,1-3.9,3.89A3.89,3.89,0,0,1,13.59,8.76Z"/><path class="cls-1" d="M39.59,22.3H37.87v-21h1.72a.67.67,0,0,0,.66-.66A.66.66,0,0,0,39.59,0H.65A.65.65,0,0,0,0,.65a.66.66,0,0,0,.65.66H2.38v21H.65a.65.65,0,1,0,0,1.3H6.6a7.63,7.63,0,0,0-.68,3.16v4a.7.7,0,0,0,.69.7h14a.71.71,0,0,0,.7-.7v-4a7.64,7.64,0,0,0-.69-3.16h19a.65.65,0,1,0,0-1.3ZM19.86,30.1H7.31V26.76A6.27,6.27,0,0,1,17.71,22a.77.77,0,0,0,.17.19.71.71,0,0,0,.14.1,6.22,6.22,0,0,1,1.84,4.43Zm16.7-7.8H19.82a7,7,0,0,0-.48-.6l6.92-8.3a.78.78,0,0,0-1.2-1l-6.87,8.23A7.65,7.65,0,0,0,7.36,22.3H3.68v-21H36.56Z"/><path class="cls-1" d="M21.16,6H32.67a.74.74,0,1,0,0-1.48H21.16a.74.74,0,1,0,0,1.48Z"/><path class="cls-1" d="M32.67,8.48h-5.3a.74.74,0,0,0,0,1.48h5.3a.74.74,0,0,0,0-1.48Z"/></g></g></svg>