<svg xmlns="http://www.w3.org/2000/svg" xmlns:xlink="http://www.w3.org/1999/xlink" viewBox="0 0 201.9 167.57"><defs><style>.cls-1{fill:none;}.cls-2{isolation:isolate;}.cls-3{opacity:0.25;}.cls-4{fill:#75c189;}.cls-5{fill:#eaeaea;mix-blend-mode:multiply;}.cls-11,.cls-12,.cls-6{fill:#fff;}.cls-7{fill:#e7e7e7;}.cls-8{fill:#f0f0f0;}.cls-13,.cls-9{fill:#1b2e35;}.cls-11,.cls-20,.cls-9{opacity:0.2;}.cls-10{fill:#fa5;}.cls-12,.cls-14{opacity:0.1;}.cls-15{fill:#c2c2c2;}.cls-16{fill:#cc5b54;}.cls-17{fill:#ffd371;}.cls-18{fill:#cb5b54;}.cls-19{fill:#b82425;}.cls-21{clip-path:url(#clip-path);}</style><clipPath id="clip-path"><path class="cls-1" d="M119.22,85s-4.15,22-1,31.6c14.07-2.3,28.8,6.82,39.51-1.41-.4-11.68-2.57-26.12-4.55-29.7C153.17,85.5,134.87,83.73,119.22,85Z"/></clipPath></defs><g class="cls-2"><g id="Layer_2" data-name="Layer 2"><g id="Option_1" data-name="Option 1"><g class="cls-3"><path class="cls-4" d="M185.19,120.21C220.37,89.84,189.06,73,189.06,73a36.5,36.5,0,0,1-13.93-15.77c-6-13.11,4-29.91-3.19-42.42C166.64,5.63,154,2.89,143,4.31s-21.24,6-32.14,7.64c-13.06,2-26.27-.28-39.35-1.67S44.66,8.48,32.6,13.8,10.92,31.74,13.46,44.17c1.14,5.6,4.6,10.93,3.65,16.6C15.64,69.54,4.74,74,1.15,82.22c-3.5,8,1.65,16.6,6.62,23.73,20.17,28.94,55,39.24,83.17,42.24C90.94,148.19,145.84,154.18,185.19,120.21Z"/></g><ellipse id="_Path_" data-name="&lt;Path&gt;" class="cls-5" cx="134.3" cy="162.17" rx="35.51" ry="5.4"/><path class="cls-6" d="M49.05,58.5a1.82,1.82,0,0,1,1.84-2,2.18,2.18,0,0,1,2.14,2l-.21,0,.21,0a1.82,1.82,0,0,1-1.84,2A2.19,2.19,0,0,1,49.05,58.5Zm.78-1.14a1.4,1.4,0,0,0-.36,1.1,1.75,1.75,0,0,0,1.72,1.59,1.42,1.42,0,0,0,1.06-.45,1.4,1.4,0,0,0,.36-1.1,1.75,1.75,0,0,0-1.72-1.59A1.42,1.42,0,0,0,49.83,57.36Z"/><path class="cls-6" d="M55.36,58.5a1.82,1.82,0,0,1,1.84-2,2.18,2.18,0,0,1,2.14,2l-.21,0,.21,0a1.82,1.82,0,0,1-1.84,2A2.19,2.19,0,0,1,55.36,58.5Zm.78-1.14a1.4,1.4,0,0,0-.36,1.1,1.75,1.75,0,0,0,1.72,1.59,1.42,1.42,0,0,0,1.06-.45,1.4,1.4,0,0,0,.36-1.1,1.75,1.75,0,0,0-1.72-1.59A1.43,1.43,0,0,0,56.14,57.36Z"/><path class="cls-6" d="M61.67,58.5a1.82,1.82,0,0,1,1.84-2,2.18,2.18,0,0,1,2.14,2l-.21,0,.21,0a1.82,1.82,0,0,1-1.84,2A2.19,2.19,0,0,1,61.67,58.5Zm.78-1.14a1.4,1.4,0,0,0-.36,1.1,1.75,1.75,0,0,0,1.72,1.59,1.42,1.42,0,0,0,1.06-.45,1.4,1.4,0,0,0,.36-1.1,1.75,1.75,0,0,0-1.72-1.59A1.43,1.43,0,0,0,62.45,57.36Z"/><path class="cls-7" d="M55,66.38A1.81,1.81,0,0,1,55.44,65a1.84,1.84,0,0,1,1.37-.59,2.19,2.19,0,0,1,2.14,2h0a1.87,1.87,0,0,1-.48,1.42,1.83,1.83,0,0,1-1.36.58A2.18,2.18,0,0,1,55,66.38Zm.78-1.14a1.43,1.43,0,0,0-.36,1.11,1.76,1.76,0,0,0,1.72,1.59,1.41,1.41,0,0,0,1.42-1.56,1.76,1.76,0,0,0-1.72-1.59A1.42,1.42,0,0,0,55.75,65.24Z"/><path class="cls-7" d="M61.28,66.38A1.81,1.81,0,0,1,61.75,65a1.84,1.84,0,0,1,1.37-.59,2.19,2.19,0,0,1,2.14,2h0a1.9,1.9,0,0,1-.47,1.42,1.87,1.87,0,0,1-1.37.58A2.18,2.18,0,0,1,61.28,66.38Zm.78-1.14a1.43,1.43,0,0,0-.36,1.11,1.76,1.76,0,0,0,1.72,1.59,1.41,1.41,0,0,0,1.42-1.56,1.75,1.75,0,0,0-1.72-1.59A1.42,1.42,0,0,0,62.06,65.24Z"/><path class="cls-7" d="M67.59,66.38a1.82,1.82,0,0,1,1.84-2,2.19,2.19,0,0,1,2.14,2h0a1.81,1.81,0,0,1-1.84,2A2.18,2.18,0,0,1,67.59,66.38Zm.78-1.14A1.43,1.43,0,0,0,68,66.35a1.76,1.76,0,0,0,1.72,1.59,1.41,1.41,0,0,0,1.42-1.56,1.75,1.75,0,0,0-1.72-1.59A1.42,1.42,0,0,0,68.37,65.24Z"/><path class="cls-8" d="M60.89,74.26a1.83,1.83,0,0,1,.47-1.42,1.86,1.86,0,0,1,1.37-.58,2.2,2.2,0,0,1,2.14,2l-.21,0,.21,0a1.86,1.86,0,0,1-.48,1.42,1.81,1.81,0,0,1-1.36.59A2.19,2.19,0,0,1,60.89,74.26Zm.78-1.13a1.44,1.44,0,0,0-.37,1.1A1.77,1.77,0,0,0,63,75.82a1.43,1.43,0,0,0,1.06-.45,1.47,1.47,0,0,0,.36-1.11,1.77,1.77,0,0,0-1.72-1.59A1.39,1.39,0,0,0,61.67,73.13Z"/><path class="cls-8" d="M67.2,74.26a1.83,1.83,0,0,1,.47-1.42A1.86,1.86,0,0,1,69,72.26a2.19,2.19,0,0,1,2.14,2l-.21,0,.21,0a1.86,1.86,0,0,1-.48,1.42,1.81,1.81,0,0,1-1.36.59A2.19,2.19,0,0,1,67.2,74.26ZM68,73.13a1.44,1.44,0,0,0-.37,1.1,1.77,1.77,0,0,0,1.73,1.59,1.4,1.4,0,0,0,1.42-1.56A1.77,1.77,0,0,0,69,72.67,1.39,1.39,0,0,0,68,73.13Z"/><path class="cls-8" d="M73.51,74.26A1.83,1.83,0,0,1,74,72.84a1.86,1.86,0,0,1,1.37-.58,2.19,2.19,0,0,1,2.14,2l-.21,0,.21,0A1.86,1.86,0,0,1,77,75.65a1.81,1.81,0,0,1-1.36.59A2.19,2.19,0,0,1,73.51,74.26Zm.78-1.13a1.44,1.44,0,0,0-.37,1.1,1.77,1.77,0,0,0,1.73,1.59,1.4,1.4,0,0,0,1.42-1.56,1.77,1.77,0,0,0-1.72-1.59A1.39,1.39,0,0,0,74.29,73.13Z"/><path class="cls-8" d="M10,115.49H175.59a1.34,1.34,0,0,0,1.35-1.43L170.6,3.9a1.53,1.53,0,0,0-1.51-1.43H3.47A1.34,1.34,0,0,0,2.12,3.9L8.46,114.06A1.53,1.53,0,0,0,10,115.49Z"/><path class="cls-9" d="M8.19,114.08,1.86,3.91A1.58,1.58,0,0,1,2.29,2.7a1.62,1.62,0,0,1,1.18-.5H169.09a1.81,1.81,0,0,1,1.78,1.68l6.33,110.17a1.59,1.59,0,0,1-1.61,1.71H10A1.81,1.81,0,0,1,8.19,114.08Z"/><path class="cls-6" d="M12,113.29H177.58a1.34,1.34,0,0,0,1.35-1.43L172.59,1.7A1.53,1.53,0,0,0,171.08.27H5.46A1.33,1.33,0,0,0,4.11,1.7l6.34,110.16A1.53,1.53,0,0,0,12,113.29Z"/><path class="cls-6" d="M10.18,111.88,3.85,1.71A1.58,1.58,0,0,1,4.28.5,1.6,1.6,0,0,1,5.46,0H171.08a1.81,1.81,0,0,1,1.78,1.68l6.33,110.17a1.59,1.59,0,0,1-1.61,1.71H12A1.81,1.81,0,0,1,10.18,111.88Z"/><path class="cls-10" d="M5.46.27H171.08a1.53,1.53,0,0,1,1.51,1.43l.6,10.36H4.71L4.11,1.7A1.33,1.33,0,0,1,5.46.27Z"/><path class="cls-11" d="M22.86,9.41H87.4a1.38,1.38,0,0,0,1.39-1.48L88.58,4.4A1.57,1.57,0,0,0,87,2.92H22.49A1.38,1.38,0,0,0,21.1,4.4l.2,3.53A1.6,1.6,0,0,0,22.86,9.41Z"/><path class="cls-12" d="M127.69,113.29h49.79a1.42,1.42,0,0,0,1.44-1.52l-.5-8.68H127.1Z"/><path class="cls-13" d="M131.77,57.57h27.45a.53.53,0,0,0,.54-.57l-.08-1.39a.61.61,0,0,0-.6-.57H131.62a.54.54,0,0,0-.54.57l.08,1.39A.62.62,0,0,0,131.77,57.57Z"/><path class="cls-13" d="M132.57,67H152.5a.53.53,0,0,0,.54-.57L153,65.09a.61.61,0,0,0-.61-.57H132.42a.53.53,0,0,0-.54.57l.08,1.38A.61.61,0,0,0,132.57,67Z"/><path class="cls-13" d="M132.92,76.52h16.16a.54.54,0,0,0,.54-.57l-.08-1.39a.62.62,0,0,0-.61-.57H132.78a.53.53,0,0,0-.54.57l.08,1.39A.61.61,0,0,0,132.92,76.52Z"/><path class="cls-13" d="M133.73,86h23.82a.53.53,0,0,0,.54-.57L158,84a.62.62,0,0,0-.6-.57H133.58A.54.54,0,0,0,133,84l.08,1.39A.62.62,0,0,0,133.73,86Z"/><path class="cls-13" d="M135.52,99.4h12.86a.56.56,0,0,0,.57-.6l-.09-1.63a.65.65,0,0,0-.64-.6H135.35a.57.57,0,0,0-.57.6l.1,1.63A.64.64,0,0,0,135.52,99.4Z"/><g class="cls-14"><polygon class="cls-6" points="122.56 24.1 173.88 24.1 173.19 12.06 121.86 12.06 122.56 24.1"/><path class="cls-13" d="M122.42,24.11l-.69-12a.13.13,0,0,1,0-.1.15.15,0,0,1,.09,0h51.33a.14.14,0,0,1,.13.13l.69,12a.13.13,0,0,1,0,.1.11.11,0,0,1-.09,0H122.56A.14.14,0,0,1,122.42,24.11ZM173.06,12.2H122L122.68,24h51.06Z"/><path class="cls-13" d="M123.12,36.14l-.7-12a.14.14,0,0,1,.14-.14h51.32a.12.12,0,0,1,.13.12l.69,12a.15.15,0,0,1,0,.1.14.14,0,0,1-.1.05H123.25A.13.13,0,0,1,123.12,36.14Zm50.63-11.91h-51L123.37,36h51.06Z"/><path class="cls-13" d="M123.81,48.17l-.69-12a.12.12,0,0,1,0-.1.13.13,0,0,1,.1,0h51.32a.12.12,0,0,1,.13.12l.69,12a.12.12,0,0,1,0,.1.18.18,0,0,1-.1,0H123.94A.13.13,0,0,1,123.81,48.17Zm50.64-11.9H123.39L124.07,48h51.05Z"/><polygon class="cls-6" points="127.1 103.09 178.42 103.09 177.83 92.88 126.51 92.88 127.1 103.09"/><path class="cls-13" d="M127,103.1l-.59-10.21a.17.17,0,0,1,0-.1.13.13,0,0,1,.1,0h51.32a.14.14,0,0,1,.14.12l.58,10.21a.12.12,0,0,1,0,.1.13.13,0,0,1-.1,0H127.1A.12.12,0,0,1,127,103.1ZM177.71,93H126.65l.57,9.94h51.06Z"/><path class="cls-13" d="M126.38,92.89l-2.57-44.72a.14.14,0,0,1,.13-.14h51.32a.13.13,0,0,1,.13.13L178,92.87a.14.14,0,0,1-.14.14H126.51A.12.12,0,0,1,126.38,92.89ZM175.14,48.3H124.08l2.56,44.45h51.05Z"/><line class="cls-6" x1="122.21" y1="18.08" x2="5.05" y2="18.08"/><path class="cls-13" d="M5.05,18.21H122.21a.13.13,0,0,0,0-.26H5.05a.13.13,0,0,0,0,.26Z"/></g><path class="cls-15" d="M34.56,80.85a12.63,12.63,0,0,0,1.85-.68l.84-.42a2.18,2.18,0,0,0,.66-.43l.45-.42a21.42,21.42,0,0,0,2.4-3,59.46,59.46,0,0,0,3.79-6.8c1.16-2.39,2.27-4.86,3.4-7.36.57-1.25,1.14-2.5,1.74-3.73a30.08,30.08,0,0,1,1.94-3.48l.25-.34,0,0s.07,0,.09,0a8.24,8.24,0,0,1,.38,1.25l.5,2.1,1,4.22.51,2.11a21.88,21.88,0,0,0,.6,2.25,5.39,5.39,0,0,0,1.68,2.53,3.57,3.57,0,0,0,1.73.73,4.06,4.06,0,0,0,1.7-.14,8.57,8.57,0,0,0,2.31-1.15l1.8-1.17c2.38-1.58,4.67-3.22,6.85-4.88s4.26-3.35,6.21-5l2.82-2.49a7.93,7.93,0,0,1,2.62-1.68,9.76,9.76,0,0,1,3-.38c1.1,0,2.2,0,3.25-.09,2.1-.09,4-.24,5.81-.42,7.08-.77,11.32-1.82,11.28-2.11s-4.41.14-11.46.42c-1.76.07-3.69.11-5.77.09l-3.22-.07a11.06,11.06,0,0,0-3.77.39,10.74,10.74,0,0,0-3.48,2.06L75.5,55.1c-2,1.6-4.08,3.2-6.27,4.77s-4.5,3.13-6.87,4.62L60.57,65.6a4.53,4.53,0,0,1-1.43.63c-.34,0-.37,0-.57-.18A3.2,3.2,0,0,1,58,64.79c-.17-.56-.31-1.3-.48-2L57,60.65l-1-4.26-.49-2.17A11.52,11.52,0,0,0,55.22,53a6.43,6.43,0,0,0-1-1.79,2.68,2.68,0,0,0-3.37-.7,5,5,0,0,0-1.54,1.29,9.36,9.36,0,0,0-.81,1.1,67.48,67.48,0,0,0-4,7.75c-1.17,2.53-2.28,5-3.44,7.28a50.45,50.45,0,0,1-3.63,6.35c-.33.46-.66.91-1,1.31-.17.2-.34.4-.52.58a2.66,2.66,0,0,1-.34.34l-.52.27a4.74,4.74,0,0,1-.66.29,3.65,3.65,0,0,1-.62.23,2.93,2.93,0,0,1-.56.13,1.13,1.13,0,0,1-.43,0c-.13,0-.17,0-.23,0s-.12,0-.21-.22a4.49,4.49,0,0,1-.37-2,27,27,0,0,1,.52-4.91c.58-3.11,1.25-5.73,1.72-7.83,1-4.2,1.19-6.4.73-6.46s-1.52,1.93-3.18,6.08a60.59,60.59,0,0,0-2.58,8,22.94,22.94,0,0,0-.71,5.73,8.76,8.76,0,0,0,.24,1.82,7.33,7.33,0,0,0,.36,1,4.15,4.15,0,0,0,.71,1.07,3.39,3.39,0,0,0,.51.49c.2.14.41.27.62.39a4.5,4.5,0,0,0,1.33.4,5,5,0,0,0,1.22,0A5.65,5.65,0,0,0,34.56,80.85Z"/><path class="cls-16" d="M148.24,58.28l.59.76.65.86c.43.58.86,1.16,1.26,1.76.82,1.18,1.58,2.38,2.26,3.58.33.6.64,1.2.91,1.79a16,16,0,0,1,.74,1.75,11.14,11.14,0,0,1,.7,3.11l.35-1.46c-.29.87-.59,1.78-1,2.7s-.76,1.86-1.21,2.8-.87,1.9-1.33,2.86-1,2-1.37,2.89l-.08.2A2.58,2.58,0,0,0,154.61,85a29.34,29.34,0,0,0,2.8-2.3c.87-.81,1.7-1.67,2.5-2.57a36.35,36.35,0,0,0,2.26-2.88,28.33,28.33,0,0,0,2-3.27,2.93,2.93,0,0,0,.31-1l0-.44a18.12,18.12,0,0,0-.54-6.47,27.85,27.85,0,0,0-2-5.42,38.48,38.48,0,0,0-2.73-4.74c-.5-.74-1-1.48-1.57-2.19-.27-.35-.55-.71-.84-1.06l-.45-.52-.51-.58A5.07,5.07,0,0,0,148,58Z"/><path class="cls-17" d="M150.28,46.35c4.5,1.38,9,8.68,9,8.68-.07,2.74-4.1,9.14-7.12,10.62a15.2,15.2,0,0,1-4.92-6.72C145.65,54.29,148,47.14,150.28,46.35Z"/><path class="cls-18" d="M151.83,81.32l2.68,1.2c2.19,2.17-1.09,4.49-1.09,4.49l-1.12,1.76a1.56,1.56,0,0,1-2,.46l-1.88-.82a1.63,1.63,0,0,1-1-2l.72-1.67a3.3,3.3,0,0,1,1-1.24Z"/><path class="cls-18" d="M134.15,46.56a4.08,4.08,0,0,1,1.95-1.84,3.8,3.8,0,0,0,.07-2.55l9.53-3c-.77,3.15-1.38,5.64-.2,7.17-1.88,1.14-5.31,3.19-9.05,3.09S133.54,47.88,134.15,46.56Z"/><path class="cls-13" d="M135.07,33.16c-.07.37-.32.63-.56.58s-.37-.38-.31-.75.32-.62.56-.57S135.14,32.8,135.07,33.16Z"/><path class="cls-19" d="M134.81,33.69l-.55,3.07a3.32,3.32,0,0,1-1.09-.15.41.41,0,0,1-.09-.72A7.33,7.33,0,0,0,134.81,33.69Z"/><path class="cls-13" d="M134.43,30.94a.21.21,0,0,0,.16.13,1.74,1.74,0,0,1,1.3.89.22.22,0,0,0,.29.11.22.22,0,0,0,.1-.29,2.12,2.12,0,0,0-1.62-1.15.23.23,0,0,0-.25.19A.25.25,0,0,0,134.43,30.94Z"/><path class="cls-18" d="M147.56,34.31c-1.14,4.11-2,6.87-5,8.19-5.88,2.62-8.51-.16-8.72-4.49-.19-3.9,1.7-9.95,6.43-10.83S148.69,30.21,147.56,34.31Z"/><polygon class="cls-18" points="147.94 151.49 154.56 151.55 154.85 159.76 149.32 159.72 147.94 151.49"/><path class="cls-13" d="M155.38,120.1c.56-10.54.34-29.76-3.19-34.6L131.49,85s6.6,26.42,8.28,36.25c1.76,10.22,9,35.27,9,35.27l5.94-.19S158.21,132.12,155.38,120.1Z"/><polygon class="cls-18" points="121.72 151.49 128.33 151.55 126.83 159.76 121.31 159.72 121.72 151.49"/><path class="cls-13" d="M127,162.3h-1.4l-.25-.61-.87.62H116.4a5.17,5.17,0,0,1,.81-2.09,6.39,6.39,0,0,0,3.48-1.61.38.38,0,0,1,.34-.14c.8.19,4,.88,6,.16a.25.25,0,0,1,.35.3A23.66,23.66,0,0,0,127,162.3Z"/><path class="cls-13" d="M136.3,120.1c2.92-10.54,7.21-29.76,4.76-34.6L120,85s.93,26.42.42,36.25c-.53,10.22,1,35.27,1,35.27l5.9.24S136.44,132.12,136.3,120.1Z"/><path class="cls-20" d="M141.63,87.59c5.11.63,9.47,1.32,12.15,1.78,2,7.61,2.06,22.09,1.6,30.73.09.37.17.75.24,1.15-5,1.93-10.29,1.16-15.88-.18-.36-2.09-.94-4.89-1.62-8C140.3,104,142.37,93,141.63,87.59Z"/><path class="cls-20" d="M120.36,96.62c1.2-5.88,2.52-10.43,2.52-10.43,3,0,6,.2,9,.42,1.09,4.39,4.15,16.9,6.23,26.44-.62,2.57-1.24,5-1.82,7v.1c-5.1-1.32-10.39-2.74-15.74-2.7C120.66,111.65,120.52,103.36,120.36,96.62Z"/><path class="cls-17" d="M133.15,45.27a90.82,90.82,0,0,1,14,.11,9.24,9.24,0,0,1,8.27,10.76c-2.33,13.82-.82,24-2.23,29.36,0,0-21.45.37-33.95-.49-.9-14.61,2.32-17.65,6-33.05A9.34,9.34,0,0,1,133.15,45.27Z"/><path class="cls-13" d="M119.22,85s-4.15,22-1,31.6c14.07-2.3,28.8,6.82,39.51-1.41-.4-11.68-2.57-26.12-4.55-29.7C153.17,85.5,134.87,83.73,119.22,85Z"/><g class="cls-21"><path class="cls-11" d="M153.07,130.18l2.49.23C148.93,113,156,98.47,150,84.35l-2.12-.17C153.78,98.28,146.59,112.75,153.07,130.18Z"/><path class="cls-11" d="M145.1,129.43l2.48.23c-6.16-17.37,1.27-31.8-4.35-45.85l-2.1-.17C146.63,97.67,139.08,112.08,145.1,129.43Z"/><path class="cls-11" d="M137.17,128.68l2.46.23c-5.7-17.29,2.09-31.65-3.16-45.65l-2.09-.17C139.51,97.07,131.61,111.41,137.17,128.68Z"/><path class="cls-11" d="M129.27,127.94l2.46.23c-5.25-17.21,2.9-31.51-2-45.45l-2.09-.17C132.42,96.47,124.17,110.75,129.27,127.94Z"/><path class="cls-11" d="M121.42,127.2l2.44.23c-4.79-17.13,3.7-31.37-.82-45.25L121,82C125.36,95.88,116.77,110.09,121.42,127.2Z"/><path class="cls-11" d="M156.81,91.87c-.14-.76-.3-1.51-.49-2.27l-38.93-3.18c.08.73.13,1.47.16,2.21Z"/><path class="cls-11" d="M157.54,99.36c0-.79-.07-1.58-.12-2.36l-40-3.36c-.06.76-.13,1.53-.22,2.3Z"/><path class="cls-11" d="M157.56,107.21c0-.83,0-1.66,0-2.49l-41.11-3.55c-.12.81-.25,1.62-.38,2.43Z"/><path class="cls-11" d="M157.72,115.53c-.06-.89-.09-1.77-.12-2.65l-42.28-3.75c-.1.85-.18,1.71-.25,2.58Z"/><path class="cls-11" d="M159,124.45q-.33-1.44-.57-2.85l-43.53-4c0,.91.07,1.84.15,2.77Z"/></g><path class="cls-16" d="M124.54,50.7s0,0,0,0h0l0,0-.09.08-.21.19-.47.42c-.34.28-.68.57-1,.83a20.52,20.52,0,0,1-2.23,1.48,19.88,19.88,0,0,1-2.38,1.13,17.92,17.92,0,0,1-2.53.73l2.07.31c-.83-.24-1.72-.55-2.64-.87s-1.87-.67-2.81-1l-2.9-1.1c-1-.36-2-.75-3-1.06l-.11,0a2.6,2.6,0,0,0-2.75,4.17,31.93,31.93,0,0,0,2.35,2.43c.82.76,1.67,1.49,2.54,2.19s1.8,1.38,2.76,2a30.17,30.17,0,0,0,3.13,1.8,3.27,3.27,0,0,0,1.45.33l.62,0a20.92,20.92,0,0,0,4.45-.55c.73-.17,1.44-.37,2.15-.61s1.39-.52,2.07-.83a23,23,0,0,0,3.81-2.23c.59-.44,1.17-.89,1.73-1.4.28-.25.55-.51.83-.78l.41-.44.22-.24.28-.32a5.08,5.08,0,1,0-7.73-6.59Z"/><path class="cls-18" d="M106.8,53.24,105,55.57c-2.61,1.63-4.13-2.09-4.13-2.09l-2.13-2.13a1.56,1.56,0,0,1,0-2L100,47.7a1.61,1.61,0,0,1,2.2-.49l2.15,1.72a3.14,3.14,0,0,1,1,1.21Z"/><path class="cls-17" d="M132.94,45.48c-4.69.37-10.79,6.66-10.79,6.66-.4,1.87-.1,8.89,3.14,11.39,0,0,5.58-.27,8-4.11C135.86,55.23,137.92,45.09,132.94,45.48Z"/><path class="cls-13" d="M135.36,28.2c-1.37-2.74,2.32-6.45,5.15-3.88s4.89,2.06,7.25,2.26c3.15.26,1.69,3.33,1.69,3.33s5.13-1,3,4.33c-2.49,6.33,3.16,10.12.55,16.09s-10,7.14-14.82,6.46a6.21,6.21,0,0,0-1.42-6.46c-5.79-5.62,1.92-10.37,1.3-15.44C135.72,35.33,137.05,31.6,135.36,28.2Z"/><path class="cls-13" d="M138.09,34.89l1.39.75c.16,2.15-2.58,5-4.08,6.91s-1.91,3.8-1.51,7.26C131,41.53,137.74,40,138.09,34.89Z"/><path class="cls-18" d="M139.53,35.55a3.94,3.94,0,0,1-2.24,2c-1.3.44-2-.71-1.76-2s1.25-2.77,2.6-2.66A1.78,1.78,0,0,1,139.53,35.55Z"/><path class="cls-13" d="M155.59,162.3h-1.4l-.38-.61-.74.62h-8.48a4.29,4.29,0,0,1,.36-2.09s2.54-.25,3.51-1.61a.33.33,0,0,1,.32-.14c.84.19,4.19.88,6,.16a.3.3,0,0,1,.41.3A24.64,24.64,0,0,0,155.59,162.3Z"/></g></g></g></svg>