<svg xmlns="http://www.w3.org/2000/svg" viewBox="0 0 223.83 144.6"><defs><style>.cls-1{isolation:isolate;}.cls-2{fill:#75c189;opacity:0.25;}.cls-3{fill:#eaeaea;mix-blend-mode:multiply;}.cls-4{fill:#f3a59c;}.cls-5{fill:#bda99a;}.cls-6{fill:#fff;}.cls-15,.cls-17,.cls-21,.cls-26,.cls-30,.cls-31,.cls-32,.cls-7{fill:none;}.cls-15,.cls-26,.cls-7{stroke:#1d0300;}.cls-15,.cls-17,.cls-21,.cls-26,.cls-30,.cls-31,.cls-7{stroke-linecap:round;stroke-linejoin:round;}.cls-7{stroke-width:0.36px;}.cls-8{fill:#d3c2b5;}.cls-9{fill:#090b0c;}.cls-10{fill:#3c5057;}.cls-11{fill:#7d8a90;}.cls-12{fill:#b95360;}.cls-13{fill:#e28882;}.cls-14{fill:#331226;}.cls-15{stroke-width:0.36px;}.cls-16{fill:#fa5;}.cls-17,.cls-30,.cls-31{stroke:#000;}.cls-17{stroke-width:1.53px;}.cls-18{fill:#b7c2ca;}.cls-19{fill:#ec9992;}.cls-20{fill:#070707;}.cls-21{stroke:#fff;stroke-width:0.87px;}.cls-22{fill:#2d3f88;}.cls-23{fill:#4151a5;}.cls-24{fill:#e48280;}.cls-25{fill:#318dee;}.cls-26{stroke-width:0.54px;}.cls-27{fill:#282828;}.cls-28{fill:#e8643d;}.cls-29{fill:#1d0300;}.cls-30{stroke-width:0.36px;}.cls-31{stroke-width:0.37px;}.cls-32{stroke:#363638;stroke-miterlimit:10;stroke-width:2px;}.cls-33{fill:#14284d;}.cls-34{fill:#a4b1ba;}</style></defs><g class="cls-1"><g id="Layer_2" data-name="Layer 2"><g id="Option_1" data-name="Option 1"><path class="cls-2" d="M39.78,30.37s-61.25,52-21.61,84.37c23.46,19.14,53.63-3.68,81.76,15.52,36.29,24.77,67.13,14.51,91-8.42,17.88-17.2,17.62-18.85,26.86-32.91,24-36.47-30.67-67.8-30.67-67.8S109.22-32.07,39.78,30.37Z"/><ellipse class="cls-3" cx="172.66" cy="139.47" rx="36.89" ry="2.98"/><path d="M160.1,134.45l-3.81,1.73a.92.92,0,0,0-.54,1c.08.34.39.66,1.22.7,1.86.09,10.1-.92,10.1-.92l0,1.23,3.83,0s.4-5.07-.73-5.74Z"/><path class="cls-4" d="M165.9,130.27l-5.8,4.18s.59,1.68,3.49.66,6.54-2.56,6.54-2.56l-.07-2.72Z"/><path class="cls-4" d="M160.31,76.91,163,101.45a3.12,3.12,0,0,0,3.61,2.64h0c1.39-.24,3,.55,3.15-.86.6-6.6,2.08-27.55-.41-33Z"/><path class="cls-4" d="M163,101.45l2.81,28.82,4.25.74,1.14-13.1s.85-15.9-4.43-21.73Z"/><path d="M172.23,134.57l-3.75,1.85a.94.94,0,0,0-.52,1.07c.1.34.42.65,1.25.66,1.86,0,10.06-1.24,10.06-1.24v1.23l3.83-.07s.24-5.09-.92-5.72Z"/><path class="cls-4" d="M177.88,130.21l-5.65,4.36s.64,1.66,3.51.55,6.44-2.77,6.44-2.77l-.15-2.71Z"/><path class="cls-4" d="M170.55,77.05l3.51,24.45a3.1,3.1,0,0,0,3.69,2.51h0c1.38-.28,3,.46,3.12-1,.38-6.62,1.18-27.6-1.47-32.95Z"/><path class="cls-4" d="M174.06,101.5l3.77,28.71,4.27.6.72-13.12s.3-15.93-5.17-21.58Z"/><path d="M177.69,58.07S184.44,64.51,183,90a70.23,70.23,0,0,1-23.54-.88s1.94-26.39,3.64-31.61Z"/><path class="cls-5" d="M165.51,33.26s-6.14,1.37-7.32,9.46l3.88,3.41Z"/><path class="cls-4" d="M152.89,56.64c.12-.18,2.47,1,2.54.85a87.88,87.88,0,0,0,4.83-9.84c.71-1.66-.15-6.75-1.95-6.91-1.31-.12-2.9,2.31-3.23,3.59l-3.38,8.18Z"/><path class="cls-4" d="M154.55,53.26l-12.65-7-1.19,1.28,10.16,10.35a3,3,0,0,0,4.86-.91h0A3,3,0,0,0,154.55,53.26Z"/><path class="cls-4" d="M136.56,45.56a4,4,0,0,0,1.51,4.06c1.39,1.08,3.22,1.05,4.09-.07s0-5.79-1.39-6.87S137.07,43,136.56,45.56Z"/><path class="cls-6" d="M178,57.65l-14.94-.17.49-21.94,11.13,2.05Z"/><path class="cls-4" d="M174.78,33.15l-4.47-.85-3.31.56L164.37,38s-.79,2.37,3.28,2.8a7.63,7.63,0,0,0,7.64-4.17A4.09,4.09,0,0,0,174.78,33.15Z"/><path class="cls-5" d="M167,32.86s-3.45,7-2.71,14.32-2.57,18.16-2.57,18.16L161.05,42S161.2,33.62,167,32.86Z"/><path class="cls-7" d="M161.51,38.87s-1.41,3.34-.54,9"/><path class="cls-5" d="M174.78,33.15s-9.11,14.66,6.51,32.39l-2.56-31.3Z"/><path class="cls-5" d="M178.7,34.23s7.52,1.69,7.69,16.89l-9-1-1.08-12.37Z"/><path class="cls-8" d="M177.58,53.86s-1.94-2-.19-3.71c0,0,5.36-.76,9.12.93a2,2,0,0,1,1.17,2,3,3,0,0,1-1.34,2.21S184.37,54,177.58,53.86Z"/><line class="cls-7" x1="177.39" y1="50.15" x2="176.01" y2="40.93"/><path class="cls-4" d="M177.58,53.86l-14,1.59.74,2.76,18.94.71c1.89.07,2.83-1.74,3.11-3.62h0A11.15,11.15,0,0,0,177.58,53.86Z"/><path class="cls-4" d="M158,56.8c.05,1.75,1.85,3.12,4,3.06s5.18-1.35,5.13-3.1-4.08-4.16-6.25-4.09S158,55.05,158,56.8Z"/><path class="cls-9" d="M177.19,55.42l-15-.19,0-1.69,15,.19a.85.85,0,0,1,.83.86h0A.85.85,0,0,1,177.19,55.42Z"/><path class="cls-10" d="M164.2,55.25,142.13,55a1.78,1.78,0,0,1-1.69-1.32l-4.09-15.48a1.15,1.15,0,0,1,1.13-1.45L159,37a.9.9,0,0,1,.86.69Z"/><path class="cls-11" d="M150.27,46.57a1.68,1.68,0,1,1-1.66-1.7A1.67,1.67,0,0,1,150.27,46.57Z"/><path class="cls-12" d="M177.18,16.27s.89,6,3,9.43a1.4,1.4,0,0,1-.46,1.9c-2.47,1.55-9.39,4.46-18.14.91a1.39,1.39,0,0,1-.84-1.48c.2-1.62,1.65-4.79,3.76-7.63Z"/><path class="cls-13" d="M164.92,21.69a2,2,0,1,1-1.32-2.55A2,2,0,0,1,164.92,21.69Z"/><polygon class="cls-4" points="167.24 25.85 167.33 34.08 173.25 33.91 171.21 21.29 167.24 25.85"/><polygon class="cls-14" points="167.3 30.39 171.25 26.17 167.25 27.08 167.3 30.39"/><path class="cls-4" d="M163.59,13.84a3,3,0,0,0-1,1.68c-.41,1.94-1.22,6-.56,8,.86,2.7,3,4.42,6.55,3.8,0,0,4.08-.13,5.16-6.12C175.28,12.75,168,10.18,163.59,13.84Z"/><path d="M163.27,21.64a.47.47,0,1,1-.9-.25.47.47,0,0,1,.9.25Z"/><path d="M167.2,21.77a.48.48,0,0,1-.58.33.48.48,0,0,1-.32-.58.46.46,0,0,1,.57-.32A.47.47,0,0,1,167.2,21.77Z"/><path class="cls-15" d="M164,22.69l-.37.86a.23.23,0,0,0,.15.31l.49.14"/><path d="M165.31,19.32l3.32.12a1.92,1.92,0,0,0-1.61-.91A2.06,2.06,0,0,0,165.31,19.32Z"/><path d="M161.48,19.3l2,0s-.25-.85-.95-.86S161.48,19.3,161.48,19.3Z"/><path class="cls-15" d="M167.21,24.34a2.59,2.59,0,0,1-2.6.56"/><path class="cls-12" d="M172.21,20.59s-2.88-.38-1.64-5.58a35.52,35.52,0,0,1-7.92.23s1-5.66,9.19-4.2c8.47,1.52,5.21,11.3,2,14.14Z"/><path class="cls-4" d="M176.3,22.36a2.38,2.38,0,1,1-1.55-3A2.38,2.38,0,0,1,176.3,22.36Z"/><path class="cls-15" d="M175.11,21a1.74,1.74,0,0,0-2.22,1.39"/><path class="cls-12" d="M168.74,10.81s-7.1,0-8.06,5.67l11.25.4.72-3.75Z"/><rect class="cls-16" x="196.04" y="24.86" width="20.14" height="19.21" rx="6.41"/><circle class="cls-6" cx="206.16" cy="34.14" r="4.97"/><path class="cls-16" d="M206.16,34.62a.48.48,0,0,1-.49-.48V32.67a.49.49,0,0,1,1,0v1.47A.48.48,0,0,1,206.16,34.62Z"/><path class="cls-16" d="M206.16,34.9a.5.5,0,0,1-.49-.45.48.48,0,0,1,.45-.52l3.31-.27a.47.47,0,0,1,.52.44.47.47,0,0,1-.44.52l-3.31.27Z"/><ellipse class="cls-3" cx="73.17" cy="139.65" rx="48.77" ry="3.11"/><line class="cls-17" x1="39.55" y1="81.03" x2="39.55" y2="138.51"/><path class="cls-18" d="M46.16,85.23H32.93a4.65,4.65,0,0,1-4.64-4.65h0a4.65,4.65,0,0,1,4.64-4.65H46.16a4.65,4.65,0,0,1,4.65,4.65h0A4.65,4.65,0,0,1,46.16,85.23Z"/><polygon class="cls-19" points="81.72 116.72 74.17 119.91 78.75 129.75 86.29 126.56 81.72 116.72"/><polygon class="cls-20" points="78.75 129.75 86.15 126.63 101.16 128 79.14 137.01 78.75 129.75"/><path class="cls-6" d="M85.61,135.51a1.4,1.4,0,0,0-.72,1.84l-4.85,2-.9-2.34,22-9,.9,2.34-14.61,6h0A1.42,1.42,0,0,0,85.61,135.51Z"/><line class="cls-21" x1="92.29" y1="126.88" x2="90.14" y2="128.56"/><line class="cls-21" x1="89.4" y1="126.66" x2="87.26" y2="128.35"/><path class="cls-22" d="M62,80.15l5,5.45A57.84,57.84,0,0,1,76,98.86l9.58,22.55-11.24,4.18L64.9,101.68,48.29,84Z"/><polygon class="cls-19" points="61.06 118.63 52.87 118.63 49.59 129.96 57.79 129.96 61.06 118.63"/><polygon class="cls-20" points="49.59 129.96 57.63 129.96 70.92 137.07 47.13 136.8 49.59 129.96"/><path class="cls-6" d="M53.67,137.93a1.42,1.42,0,0,0-1.38,1.42l-5.23,0,.07-2.5,23.8.27-.08,2.5-15.79-.19h0A1.42,1.42,0,0,0,53.67,137.93Z"/><line class="cls-21" x1="63.19" y1="132.58" x2="60.55" y2="133.3"/><line class="cls-21" x1="60.61" y1="131.26" x2="57.98" y2="131.98"/><path class="cls-23" d="M30.23,68.76S28.29,77.19,43.8,83.38L56.5,93.84l-8.39,32.69H60.26L70.29,97A9.69,9.69,0,0,0,68,85.79L49.54,66.86Z"/><path class="cls-24" d="M55.85,60A5.33,5.33,0,0,0,59.24,62l24.27-2.09.61-3.49L61.83,54.38Z"/><path class="cls-24" d="M83.71,56.44s8.53-3.65,10.18,3.49H83.1Z"/><path class="cls-24" d="M42,48.63l14.06,12a4.26,4.26,0,0,0,5.71-.18h0a4.24,4.24,0,0,0,0-6.07L49.35,42Z"/><path class="cls-25" d="M54.69,45.2l-8.13,7.88L35.45,45.35s1.41-6.29,5.77-7.55S49.77,42,54.69,45.2Z"/><path class="cls-25" d="M37.77,36.38l-6.7,3.44a3.39,3.39,0,0,0-1.85,3V50.7l1,18.06,19.31-1.9-.77-23a6.48,6.48,0,0,0-5-6.11Z"/><path class="cls-19" d="M32.73,39l5-2.58,4.48,1s2.77,1.93.93,3.23C38.83,43.69,32.73,39,32.73,39Z"/><path class="cls-26" d="M48.94,50.77c.06-.06-.17-6.91-.17-6.91"/><path class="cls-19" d="M56.78,53.74l1-3.87a2.13,2.13,0,0,1,1.1-1.34l3.78-1.91-.41,1.68-1.41,1.05a.37.37,0,0,0-.18.5h0c.11.22.33.23.54.12l6.06-3s2.17,1.47-.61,4.55-5.23,3.21-8.28,5.5Z"/><path class="cls-27" d="M61,50.08l1.06-5.16a.4.4,0,0,1,.23-.29l5.5-2.11a.4.4,0,0,1,.57.42l-1.13,4Z"/><path class="cls-19" d="M57,53,42.65,59.6a3.69,3.69,0,0,0-1.92,4.83h0c.92,2.18,3.63,2.94,6.49,1.55l11.66-9.36Z"/><path class="cls-19" d="M34.83,45.84,47.18,59.59a4.26,4.26,0,0,1,0,5.71h0a4.25,4.25,0,0,1-6.08.2L28.37,53.35Z"/><path class="cls-25" d="M29.57,57.4,40,50.26,32,39.34s-4.66,1.6-5.81,6S26.19,52.57,29.57,57.4Z"/><line class="cls-26" x1="39.26" y1="50.77" x2="34.83" y2="45.84"/><line class="cls-26" x1="31.24" y1="56.26" x2="29.69" y2="57.31"/><circle class="cls-28" cx="42.25" cy="22.4" r="7.29" transform="matrix(1, -0.02, 0.02, 1, -0.47, 0.91)"/><polygon class="cls-19" points="38.81 27.36 34.97 38.73 41.41 39.88 43.73 31.23 38.81 27.36"/><polygon points="40.41 30.94 42.77 34.81 43.71 31.35 41.31 30.45 40.41 30.94"/><path class="cls-19" d="M43.27,15.74s7.41,1.69,7.62,6.39-.77,11.38-3.31,11.68-7.86-1.41-8.72-4.91S38.76,15.14,43.27,15.74Z"/><path class="cls-19" d="M50.25,26.49l1.47,2.45a.3.3,0,0,1-.32.41l-1.8-.15Z"/><path d="M49.65,26.56a.5.5,0,0,1-.58.4.49.49,0,0,1-.39-.58.48.48,0,0,1,.57-.39A.49.49,0,0,1,49.65,26.56Z"/><path class="cls-29" d="M50.25,23.85s.07.58-.81.48a9.93,9.93,0,0,0-1.91,0,.56.56,0,0,1-.53-.28h0a.3.3,0,0,1,.1-.39,3.66,3.66,0,0,1,2-.47C50.19,23.31,50.25,23.85,50.25,23.85Z"/><path class="cls-30" d="M50,30.44a2.16,2.16,0,0,1-1.85-.55"/><path class="cls-28" d="M42.82,25.85s4.8-3.56.39-5.84l6.88-.24s-.57-4.29-7.74-4.66l-4.53,4.83s-1.67,5.89.61,8.55l.71.11A3.38,3.38,0,0,0,41.75,28Z"/><path class="cls-19" d="M43.61,26.06a2.11,2.11,0,1,1-1.91-2.29A2.11,2.11,0,0,1,43.61,26.06Z"/><path class="cls-31" d="M41,25.15s1.13-.1,1.56,1.41"/><path class="cls-28" d="M50.09,19.77s4.51,0,1.23-5.56l-9.81.94Z"/><path class="cls-28" d="M44.27,23.18l.9,7.27,1.23,0s.9-1.86,3.85-1.12A10.36,10.36,0,0,1,48.66,34a1.34,1.34,0,0,1-1.44.62A15.46,15.46,0,0,1,41,31.81l2.66-7.47Z"/><line class="cls-32" x1="72.01" y1="64.24" x2="72.01" y2="138.95"/><line class="cls-32" x1="109.68" y1="64.24" x2="109.68" y2="138.95"/><rect class="cls-33" x="61.64" y="60.76" width="60.38" height="4.63"/><rect class="cls-34" x="69.66" y="58.66" width="29.22" height="2.1"/><path class="cls-34" d="M98.65,60.76a.62.62,0,0,1-.32-.09.64.64,0,0,1-.23-.87l12.63-21.7a.64.64,0,1,1,1.1.64L99.21,60.44A.64.64,0,0,1,98.65,60.76Z"/><path class="cls-16" d="M15,43.68H2.92A2.92,2.92,0,0,1,0,40.76H0a2.91,2.91,0,0,1,2.92-2.91H15a2.91,2.91,0,0,1,2.91,2.91h0A2.91,2.91,0,0,1,15,43.68Z"/><path class="cls-6" d="M6.39,40.77a.78.78,0,0,1-.78.78.77.77,0,0,1-.78-.77A.78.78,0,0,1,5.61,40,.77.77,0,0,1,6.39,40.77Z"/><path class="cls-6" d="M9.73,40.76a.78.78,0,0,1-.78.78.77.77,0,0,1-.78-.77A.78.78,0,0,1,9,40,.77.77,0,0,1,9.73,40.76Z"/><path class="cls-6" d="M13.07,40.75a.78.78,0,0,1-.78.78.77.77,0,0,1-.78-.77.78.78,0,0,1,.78-.78A.77.77,0,0,1,13.07,40.75Z"/></g></g></g></svg>