<svg xmlns="http://www.w3.org/2000/svg" viewBox="0 0 60.12 54.41"><defs><style>.cls-1{fill:#46c7ce;}</style></defs><g id="Layer_2" data-name="Layer 2"><g id="Option_1" data-name="Option 1"><path class="cls-1" d="M23.05,22.94a8.81,8.81,0,1,0-8.8-8.81A8.81,8.81,0,0,0,23.05,22.94Zm0-15.54a6.74,6.74,0,1,1-6.73,6.73A6.74,6.74,0,0,1,23.05,7.4Z"/><path class="cls-1" d="M59.81,19.9a1,1,0,0,0-.74-.31,1.38,1.38,0,0,0-.9.46l-.45.45-.66.67-.83.82c-.3.3-.6.61-.91.91l-.94.94-.16.16a27.2,27.2,0,1,0-1.3,12.09l3.17-3.18a1,1,0,0,0,0-1.48L54.3,29.64c.07-.8.11-1.61.11-2.44,0-.14,0-.28,0-.42l.7-.7.94-.94,1-1,.92-.92.81-.81.62-.62.38-.38.08-.08a1,1,0,0,0,.31-.69A1,1,0,0,0,59.81,19.9ZM27.21,2.07a25.16,25.16,0,0,1,25.1,23.84l-.3.3-.42.43-.14.14h0l-.55-.55a1,1,0,0,0-1.49,0L44.62,31c-.92.91-2.31,1.86-3.42.76l-.67-.66-3.69-4.31a6.24,6.24,0,0,0-4.75-2.18H13.62a6.27,6.27,0,0,0-6.27,6.26V42.61h0A25.13,25.13,0,0,1,27.21,2.07Zm8.32,48.85v-11h0l2.34,2.35a6.2,6.2,0,0,0,4.43,1.81h0a6.2,6.2,0,0,0,4.43-1.81l1.82-1.82A25.24,25.24,0,0,1,35.53,50.92ZM53.87,32.18l-8.61,8.61a4.19,4.19,0,0,1-5.9,0l-4.13-4.14a1,1,0,0,0-1.79.74V51.56a25.17,25.17,0,0,1-19-2.69h4.85a18.48,18.48,0,0,0,4.46-.15c2-.48,2.67-2.64,2.76-4.44.1-2.11-.47-4.5-2.79-5.18A3.75,3.75,0,0,0,22.7,39H17.27V35.67a1.08,1.08,0,0,0-1-1.09,1.05,1.05,0,0,0-1.11,1.05V40a1.06,1.06,0,0,0,1.05,1.06h6.51a1.56,1.56,0,0,1,1.57,1.56v2a2.53,2.53,0,0,1-2.41,2.13H13.62A4.18,4.18,0,0,1,9.45,42.6V30.87a4.17,4.17,0,0,1,4.17-4.17H32.09a4.16,4.16,0,0,1,3.16,1.45l2.13,2.49,1.44,1.68c1,1.14,2.13,2.6,3.84,2.4s3-1.82,4.16-3l3.31-3.32h0l3.73,3.73Z"/></g></g></svg>