<svg xmlns="http://www.w3.org/2000/svg" xmlns:xlink="http://www.w3.org/1999/xlink" viewBox="0 0 354.2 231.72"><defs><style>.cls-1{fill:none;}.cls-2{isolation:isolate;}.cls-17,.cls-3{fill:#75c189;}.cls-3{opacity:0.25;}.cls-4{opacity:0.8;}.cls-5{opacity:0.5;}.cls-6{fill:#ccd3e6;}.cls-7{fill:#eaeaea;mix-blend-mode:multiply;}.cls-8{fill:#fff;}.cls-9{fill:#575759;}.cls-10{fill:#363638;}.cls-11{fill:#fa5;}.cls-12{fill:#1b95f2;}.cls-13{fill:#cfdceb;}.cls-14{clip-path:url(#clip-path);}.cls-15{fill:#ff9c7d;}.cls-16{fill:#f36d66;}.cls-18{fill:#55a062;}.cls-19{fill:#db7f2f;}.cls-20{fill:#ffaf3c;}.cls-21{fill:#e67779;}.cls-22{fill:#bf6179;}.cls-23{fill:#fb6260;}.cls-24{fill:#00b471;}.cls-25{fill:#007c56;}.cls-26{fill:#007af6;}.cls-27{fill:#0052c7;}.cls-28{fill:#cc1525;}</style><clipPath id="clip-path"><path class="cls-1" d="M170.37,113.33c.5,1.53.5,1.8.5,1.53l0-43.95c0-.27,0-.23,0-32.06H72v74.47Z"/></clipPath></defs><g class="cls-2"><g id="Layer_2" data-name="Layer 2"><g id="Option_1" data-name="Option 1"><path class="cls-3" d="M162.85,231.72c95.46,0,137.11-28.37,137.11-28.37s62.39-29.77,26.16-107.57C297.29,33.87,194.05-16.77,143.38,5.24S97.27,55.08,41.62,95.36-1.16,167.63,8.81,183.83C8.81,183.83,39.84,231.72,162.85,231.72Z"/><g class="cls-4"><g class="cls-5"><ellipse class="cls-6" cx="223" cy="86.54" rx="4.15" ry="4.47"/></g></g><ellipse class="cls-7" cx="123.46" cy="200.62" rx="97.41" ry="5.03"/><path class="cls-6" d="M189.44,186.56h-13.5v14h15.78V188.85A2.28,2.28,0,0,0,189.44,186.56Z"/><rect class="cls-6" x="103.73" y="156.48" width="46.86" height="30.08"/><path class="cls-8" d="M70.55,186.56H173A13.41,13.41,0,0,1,186.41,200v.63a0,0,0,0,1,0,0H57.14a0,0,0,0,1,0,0V200a13.41,13.41,0,0,1,13.41-13.41Z"/><rect class="cls-8" x="97.98" y="156.48" width="46.86" height="30.08"/><polygon class="cls-6" points="97.98 165.71 144.84 161.96 144.85 156.48 98.04 156.48 97.98 165.71"/><rect class="cls-6" x="15.41" y="25.99" width="212.6" height="130.49" rx="6.26"/><path class="cls-9" d="M228,32.25V141.5H208.65V26h13.1A6.26,6.26,0,0,1,228,32.25Z"/><path class="cls-8" d="M220.05,32.25v118a6.26,6.26,0,0,1-6.26,6.26H21.67a6.26,6.26,0,0,1-6.26-6.26v-118A6.26,6.26,0,0,1,21.67,26H214.42l.24,0,.16,0h.08l.15,0A6.26,6.26,0,0,1,220.05,32.25Z"/><path class="cls-10" d="M215.05,26.12l-.15,0h-.08l-.16,0-.24,0H21.67a6.26,6.26,0,0,0-6.26,6.26V141.5H220.05V32.25A6.26,6.26,0,0,0,215.05,26.12Zm-3.12,104.47a1.7,1.7,0,0,1-1.7,1.7h-185a1.7,1.7,0,0,1-1.7-1.7V35.81a1.7,1.7,0,0,1,1.7-1.7h185a1.7,1.7,0,0,1,1.7,1.7Z"/><rect class="cls-6" x="23.53" y="34.11" width="188.4" height="98.18" rx="1.7"/><path class="cls-8" d="M211.93,35.81v8.95H23.53V35.81a1.7,1.7,0,0,1,1.7-1.7h185A1.7,1.7,0,0,1,211.93,35.81Z"/><path class="cls-11" d="M197.34,39.29a1.45,1.45,0,1,1-1.45-1.45A1.45,1.45,0,0,1,197.34,39.29Z"/><circle class="cls-12" cx="200.58" cy="39.29" r="1.45"/><rect class="cls-13" x="39.98" y="37.76" width="149.88" height="3.06" rx="1.35"/><path d="M30.33,39.29v1.42a.26.26,0,0,1-.39.22l-1.22-.71-1.23-.71a.26.26,0,0,1,0-.45l1.23-.7,1.22-.71a.26.26,0,0,1,.39.22Z"/><path d="M32.49,39.29v1.42a.26.26,0,0,0,.39.22l1.22-.71,1.23-.71a.26.26,0,0,0,0-.45l-1.23-.7-1.22-.71a.26.26,0,0,0-.39.22Z"/><rect class="cls-10" x="214.44" y="79.83" width="3.47" height="0.82" rx="0.36" transform="translate(6.58 176.36) rotate(-45)"/><rect class="cls-10" x="215.77" y="78.5" width="0.82" height="3.47" rx="0.36" transform="translate(6.58 176.36) rotate(-45)"/><rect class="cls-8" x="44.83" y="46.91" width="145.3" height="81.56" rx="3.56"/><path class="cls-6" d="M86.88,88.65H55a.89.89,0,0,1-.89-.89h0a.88.88,0,0,1,.89-.88H86.88a.88.88,0,0,1,.89.88h0A.89.89,0,0,1,86.88,88.65Z"/><path class="cls-6" d="M86.88,81.16H55a.89.89,0,0,1-.89-.89h0a.88.88,0,0,1,.89-.88H86.88a.88.88,0,0,1,.89.88h0A.89.89,0,0,1,86.88,81.16Z"/><path class="cls-6" d="M86.88,96.13H55a.88.88,0,0,1-.89-.88h0a.89.89,0,0,1,.89-.89H86.88a.89.89,0,0,1,.89.89h0A.88.88,0,0,1,86.88,96.13Z"/><path class="cls-6" d="M184.77,88.65H152.91a.89.89,0,0,1-.88-.89h0a.88.88,0,0,1,.88-.88h31.86a.88.88,0,0,1,.89.88h0A.89.89,0,0,1,184.77,88.65Z"/><path class="cls-6" d="M184.77,81.16H152.91a.89.89,0,0,1-.88-.89h0a.88.88,0,0,1,.88-.88h31.86a.88.88,0,0,1,.89.88h0A.89.89,0,0,1,184.77,81.16Z"/><path class="cls-6" d="M184.77,96.13H152.91a.88.88,0,0,1-.88-.88h0a.89.89,0,0,1,.88-.89h31.86a.89.89,0,0,1,.89.89h0A.88.88,0,0,1,184.77,96.13Z"/><path class="cls-10" d="M44.83,115.81h145.3v11.91a.76.76,0,0,1-.75.76H45.58a.75.75,0,0,1-.75-.76Z"/><path class="cls-8" d="M175.86,120.51v-1.08h1.34v-1h-1.82a.48.48,0,0,0-.48.47v1.56Z"/><path class="cls-8" d="M175.86,122.42h-1v1.63a.49.49,0,0,0,.48.48h1.82v-1h-1.34Z"/><path class="cls-8" d="M180,120.51H181V119a.47.47,0,0,0-.47-.47h-1.76v1H180Z"/><path class="cls-8" d="M180,122.42v1.15h-1.28v1h1.76a.48.48,0,0,0,.47-.48v-1.63Z"/><polygon class="cls-8" points="53.29 121.71 53.29 118.69 55.9 120.2 58.52 121.71 55.9 123.22 53.29 124.72 53.29 121.71"/><rect class="cls-8" x="66.63" y="118.99" width="1.62" height="5.49" rx="0.77"/><rect class="cls-8" x="70.01" y="118.99" width="1.62" height="5.49" rx="0.77"/><rect class="cls-6" x="44.83" y="113.43" width="145.3" height="2.38"/><rect class="cls-11" x="44.83" y="113.43" width="74.56" height="2.38"/><path class="cls-10" d="M166.9,104.16h1.64v3.59h2.19V109H166.9Z"/><path class="cls-10" d="M171.18,104.16h1.64V109h-1.64Z"/><path class="cls-10" d="M178.81,104.16,176.75,109h-1.61l-2.06-4.86h1.77L176,107l1.19-2.84Z"/><path class="cls-10" d="M183,107.79V109h-4v-4.86h3.95v1.24h-2.34V106h2v1.18h-2v.64Z"/><path class="cls-11" d="M164.2,106.55a2,2,0,1,1-2-2A2,2,0,0,1,164.2,106.55Z"/><path class="cls-10" d="M62.57,107.91c0,1.11-1,1.82-2.56,1.82s-2.56-.71-2.56-1.82a1.49,1.49,0,0,1,.77-1.32,1.4,1.4,0,0,1-.57-1.12c0-1,1-1.71,2.36-1.71s2.36.67,2.36,1.71a1.39,1.39,0,0,1-.56,1.12A1.5,1.5,0,0,1,62.57,107.91Zm-1.93-.07a.63.63,0,0,0-1.26,0,.63.63,0,0,0,1.26,0Zm-1.08-2.29A.44.44,0,0,0,60,106a.49.49,0,0,0,0-1A.44.44,0,0,0,59.56,105.55Z"/><path class="cls-10" d="M62.93,106.75c0-1.9,1.08-3,2.59-3s2.59,1.09,2.59,3-1.08,3-2.59,3S62.93,108.64,62.93,106.75Zm3.24,0c0-1.1-.27-1.45-.65-1.45s-.65.35-.65,1.45.27,1.44.65,1.44S66.17,107.85,66.17,106.75Z"/><path class="cls-11" d="M54.1,105.14a1.76,1.76,0,1,1-1.76-1.75A1.76,1.76,0,0,1,54.1,105.14Z"/><path class="cls-11" d="M55.63,109.59H49.06a3.41,3.41,0,0,1,3.24-2.09h.09A3.41,3.41,0,0,1,55.63,109.59Z"/><g class="cls-14"><path class="cls-15" d="M155.13,80.2s.6,3.69,3.32,4.35c2.19.53,4.26-1.57,5-2.4.17-.2.26-.33.26-.33a2.76,2.76,0,0,0,.41,0,2.27,2.27,0,0,0,2-.82c.57-1-1.49-1.69-1.49-1.69s1-.95.79-1.63-1.68-.82-1.68-.82,1.53-1,1-1.86c-.77-1.3-2.36.13-2.48.21.1-.12,2.08-2.17,1-2.53-.94-.33-2.5.74-3.52,1.79l-.26.27-.17-.12c-.51-.34-2.08-1.26-3.08-.42C155,75.22,155.13,80.2,155.13,80.2Z"/><path class="cls-16" d="M158,82.46a.22.22,0,0,0,.22,0,.22.22,0,0,0,0-.3,2,2,0,0,1-.32-1.61c.35-1.39,2.2-2.34,2.22-2.35a.22.22,0,1,0-.19-.39,5.13,5.13,0,0,0-2.45,2.63,2.36,2.36,0,0,0,.39,2A.18.18,0,0,0,158,82.46Z"/><path class="cls-16" d="M159.85,77.15a.64.64,0,0,0,.3.58l.14.08a1.41,1.41,0,0,0,.39.08,1.64,1.64,0,0,0-.28.23.76.76,0,0,0-.16.25.56.56,0,0,0,.09.55,2.83,2.83,0,0,0,1.8.72,2.29,2.29,0,0,0-1,1,.7.7,0,0,0,.09.66,1.23,1.23,0,0,0,.46.34,7.43,7.43,0,0,0,1.75.49,3.72,3.72,0,0,0,.27-.33,3.65,3.65,0,0,0,.41,0,.16.16,0,0,0-.11,0,5.26,5.26,0,0,1-2.44-.73.26.26,0,0,1,0-.26,2.61,2.61,0,0,1,1.59-1.12.21.21,0,0,0,.17-.23.22.22,0,0,0-.22-.19c-.53,0-2-.08-2.39-.6a.16.16,0,0,1,0-.14.76.76,0,0,1,.33-.3,5.34,5.34,0,0,1,1.28-.48.19.19,0,0,0,.11-.07.21.21,0,0,0-.21-.35l-.42.12a4.79,4.79,0,0,1-1,0,.77.77,0,0,1-.36-.1.24.24,0,0,1-.11-.23,1.42,1.42,0,0,1,.23-.65.2.2,0,0,0,0-.24h0a.22.22,0,0,0-.35,0A1.86,1.86,0,0,0,159.85,77.15Z"/><path class="cls-10" d="M161.43,73.11a5.7,5.7,0,0,0-1,.74c-.31.29-.5.44-.71.63,0,0,0,0,0,0l4.14-17.59a.21.21,0,0,1,.42.09l-2.84,16.13Z"/><path class="cls-10" d="M157.82,82.88c1.44.92,1.84.24,1.84.24l.73-4.13-.06-.07a.56.56,0,0,1-.09-.55.76.76,0,0,1,.16-.25l.17-.15,0-.09-.3-.07-.14-.08a.59.59,0,0,1-.26-.34,1.17,1.17,0,0,1-.65.29H159Z"/><path class="cls-16" d="M156.57,76.43a7.94,7.94,0,0,0,1.42.95,2.42,2.42,0,0,0,1.25.3,1.11,1.11,0,0,0,.78-.45c.68-.91.1-2.11-.31-2.75l-.26.27-.17-.12c.36.52.95,1.6.39,2.35a.64.64,0,0,1-.48.27,4.19,4.19,0,0,1-2.33-1.15.21.21,0,0,0-.3,0A.23.23,0,0,0,156.57,76.43Z"/><path class="cls-17" d="M134.38,72.16h0v.08l0,.12,0,.28c0,.1,0,.2.07.3l.06.29c.09.41.2.82.3,1.22.23.82.47,1.64.74,2.45s.57,1.61.89,2.39c.17.4.33.79.51,1.17s.36.77.54,1.15c.38.75.77,1.49,1.2,2.2.1.19.21.36.32.54l.33.52c.23.35.45.69.7,1,.46.67,1,1.31,1.49,1.94s1.07,1.22,1.65,1.78l.43.42.45.41.22.2.05,0,0,0,0,0-.17-.11a2.79,2.79,0,0,0-.8-.38l-.19,0-.1,0h-.64c-.07,0,.06,0,.25-.08a7.6,7.6,0,0,0,.72-.38c.27-.16.57-.36.88-.58.61-.43,1.25-1,1.9-1.51s1.29-1.15,1.94-1.77,1.29-1.25,1.92-1.91,1.28-1.32,1.9-2l.94-1,.9-1,7,5.22-.23.36-.22.32-.44.64-.9,1.25q-.92,1.23-1.89,2.43c-.65.8-1.32,1.59-2,2.37q-.52.59-1.08,1.17c-.37.38-.75.76-1.15,1.14A30.16,30.16,0,0,1,150.28,97c-.47.37-1,.73-1.51,1.08a14.2,14.2,0,0,1-1.83,1,10.78,10.78,0,0,1-2.51.86l-.19,0-.2,0-.42.06-.44,0-.23,0h-.24l-.49,0-.52-.05-.26,0-.28-.06a5.29,5.29,0,0,1-.54-.13,7.57,7.57,0,0,1-2.12-1l-.46-.34-.11-.09-.1-.08-.08-.08-.32-.28-.64-.57-.61-.59a34,34,0,0,1-2.31-2.5c-.72-.87-1.41-1.76-2-2.69s-1.22-1.88-1.77-2.84l-.4-.74-.38-.73c-.12-.25-.25-.5-.36-.75l-.35-.75a40.65,40.65,0,0,1-2.21-6.18c-.28-1-.53-2.11-.72-3.2-.1-.54-.19-1.08-.26-1.64l-.06-.42c0-.14,0-.28,0-.43s0-.29,0-.44l0-.53Z"/><path class="cls-18" d="M156.23,84a.6.6,0,0,1-.65.55.6.6,0,1,1,.65-.55Z"/><path class="cls-18" d="M143.76,94.33a.26.26,0,0,1-.25-.2,19.59,19.59,0,0,1-.42-4.44.26.26,0,1,1,.51,0A19.43,19.43,0,0,0,144,94a.25.25,0,0,1-.18.31Z"/><path class="cls-18" d="M142.12,92.47a.27.27,0,0,1-.12,0,.24.24,0,0,1-.11-.34,19.61,19.61,0,0,1,1.25-2.22.26.26,0,1,1,.4.32,20.14,20.14,0,0,0-1.19,2.13A.27.27,0,0,1,142.12,92.47Z"/><path class="cls-18" d="M158.08,89a.26.26,0,0,1-.19-.07,69.18,69.18,0,0,0-7-5.75.27.27,0,0,1-.06-.36.27.27,0,0,1,.36-.06,72.59,72.59,0,0,1,7.11,5.81.25.25,0,0,1,0,.36A.23.23,0,0,1,158.08,89Z"/><path class="cls-18" d="M156,87.1a.25.25,0,0,1-.16-.06.26.26,0,0,1,0-.36l2.6-3.11a.26.26,0,1,1,.39.33L156.2,87A.25.25,0,0,1,156,87.1Z"/><path class="cls-10" d="M128.05,147.6l-3.48-20.5-.28-1.68,10-3.53.57-.2,2.38-.84s.19.88.49,2.39c0,.18.07.37.11.57A189.66,189.66,0,0,1,141,147.6Z"/><path class="cls-9" d="M129.82,147.6c-1.5-8.18-3.43-20.12-3.55-20.82a.28.28,0,0,1,.23-.31.28.28,0,0,1,.31.23c0,.17,2,12.57,3.56,20.9Z"/><path class="cls-10" d="M107.81,114.31s-.75,7.14.88,11.11,22.65,1.93,28-1.65c2.19-1.46-2.49-15-2.49-15Z"/><path class="cls-9" d="M137.84,123.81a7,7,0,0,1-.93-.24,6.14,6.14,0,0,1-1.39-.67,7,7,0,0,1-1.23-1,12.84,12.84,0,0,1-3-6,.27.27,0,0,1,.21-.32.28.28,0,0,1,.32.22,12.3,12.3,0,0,0,3.07,5.94,5.94,5.94,0,0,0,1,.76,5.7,5.7,0,0,0,1.32.63l.59.16C137.76,123.42,137.8,123.61,137.84,123.81Z"/><path class="cls-9" d="M124.86,125.81a.26.26,0,0,1-.25.27h0a.27.27,0,0,1-.29-.25c0-1-.1-2-.16-3,0-.18,0-.35,0-.53-.21-3.26-.48-6.46-.68-8.73,0-.18,0-.36,0-.53,0-.49-.09-.93-.12-1.31l.53-.08q.06.55.12,1.32c0,.17,0,.34,0,.53.2,2.24.47,5.41.68,8.66,0,.18,0,.36,0,.53C124.75,123.76,124.81,124.8,124.86,125.81Z"/><path class="cls-9" d="M125.63,122.36a6.18,6.18,0,0,1-.94.36,4.58,4.58,0,0,1-.53.14,4.34,4.34,0,0,1-.52.07,1.9,1.9,0,0,1-.9-.15,1.07,1.07,0,0,1-.61-.82c-.2-1-.61-5.16-.89-8.1,0-.18,0-.36,0-.53,0-.47-.08-.9-.12-1.26l.54-.07c0,.36.07.8.12,1.27,0,.17,0,.35,0,.53.28,2.94.69,7.09.88,8.06a.57.57,0,0,0,.32.46,2,2,0,0,0,1.14,0l.53-.14a7.7,7.7,0,0,0,.74-.29.27.27,0,0,1,.37.11A.26.26,0,0,1,125.63,122.36Z"/><path class="cls-10" d="M110.43,147.6c-.83-7.61-1.8-17.79-2.34-23.69,0-.19,0-.36,0-.54l-.39-4.24c1.29-.54,3.63-.17,6.12.54l.55.15a74.73,74.73,0,0,1,9.11,3.57V147.6Z"/><path class="cls-9" d="M111.7,147.6c-.72-8.46-1.57-20.68-1.58-20.84a.27.27,0,0,1,.54,0c0,.16.86,12.43,1.58,20.88Z"/><path class="cls-9" d="M115.81,115.85a14.66,14.66,0,0,1-1.49,4,8.75,8.75,0,0,1-2.78,3.08,6.3,6.3,0,0,1-3.45,1c0-.19,0-.36,0-.54a5.87,5.87,0,0,0,3.21-.92,8,8,0,0,0,2.52-2.78,14.25,14.25,0,0,0,1.51-3.92.27.27,0,0,1,.31-.22A.28.28,0,0,1,115.81,115.85Z"/><path class="cls-17" d="M137.43,113.86c-5.82,5.43-19.58,8.32-30.19,3.15-1.17-3.18-2.45-14.53-2.79-17.92-.07-.68-.12-1.35-.17-2a89.38,89.38,0,0,1,0-10l0-.56c.14-2.83.34-5.75.54-8.86.39-6.15,2.44-9.94,6-10.51A14.53,14.53,0,0,0,114.78,66l.34-.17a11.66,11.66,0,0,0,1.8-1.11h8a6.19,6.19,0,0,0,2.47,2.07l.31.14c2.83,1.22,6.12,1,6.8,4.38.43,2.14-1.21,6.53-1,15.45,0,.66,0,1.33.07,2s.07,1.34.12,2,.11,1.33.18,2,.13,1.23.21,1.87.16,1.33.26,2C134.79,100.45,136.21,109.09,137.43,113.86Z"/><path class="cls-18" d="M110.17,115.71h.07a.24.24,0,0,0,.16-.3,116.52,116.52,0,0,1-3.51-32.83.24.24,0,1,0-.48,0,117.16,117.16,0,0,0,3.53,33A.25.25,0,0,0,110.17,115.71Z"/><path class="cls-18" d="M134.14,94.68a.26.26,0,0,1-.25-.23c-.53-4.69-.54-14-.54-14.1a.26.26,0,1,1,.52,0c0,.09,0,9.38.53,14a.26.26,0,0,1-.23.28Z"/><path class="cls-18" d="M123.25,112.32a.6.6,0,1,1-.55-.65A.6.6,0,0,1,123.25,112.32Z"/><path class="cls-19" d="M123.34,115.22a.6.6,0,0,1-.65.55.6.6,0,0,1-.54-.65.6.6,0,0,1,.65-.55A.6.6,0,0,1,123.34,115.22Z"/><path class="cls-18" d="M128.39,84.18a2.5,2.5,0,0,1-1.95-.87c-1.56-1.82-1-5.85-1-6a.26.26,0,0,1,.26-.21H131a.26.26,0,0,1,.26.21c0,.18.61,4.21-1,6A2.51,2.51,0,0,1,128.39,84.18ZM126,77.58c-.1.85-.35,4,.86,5.39A2.12,2.12,0,0,0,130,83c1.21-1.41.95-4.54.86-5.39Z"/><path class="cls-10" d="M116.2,45.09c1.49-1,6.16-1.44,6.16-1.44A6.92,6.92,0,0,1,124,41.06c2-1.31,2.21,1.34,2.21,1.34s1.92-2.69,3.65-1.92-.48,3.27-.48,3.27,2.6-.48,2.31,1.73-2.79,3.17-2.79,3.17a4.83,4.83,0,0,1,.38,3.27C128.89,53.94,128,54,128,54l-10.77,1s-2.21,0-2.79-2.78a3.61,3.61,0,0,1,1.35-3.94S114.57,46.15,116.2,45.09Z"/><path class="cls-15" d="M125,63.35v2a7.8,7.8,0,0,1-.72.5c-3.51,2.11-7.3-.5-7.3-.5v-7l7.06,4.4Z"/><path class="cls-10" d="M125,63.3v2.08a7.8,7.8,0,0,1-.72.5,13.49,13.49,0,0,1-5.16-4.32l4.92,1.2Z"/><path class="cls-17" d="M117,63.32a4,4,0,0,0-3,3.1c2.3,2.41,4.34,4.5,7.63,5.11V66.69A8.53,8.53,0,0,1,117,63.32Z"/><path class="cls-17" d="M125.07,64A4.35,4.35,0,0,1,128,67.17c-2.13,2.59-3.26,3.57-6.38,4.36V66.69S123.36,66.66,125.07,64Z"/><polygon class="cls-10" points="126.26 101.62 124.89 104.92 124.89 104.92 124.28 106.4 122.54 110.6 121.7 108.98 121.41 108.4 120.73 107.11 120.44 106.53 119.77 105.23 119.47 104.66 118.8 103.36 118.8 103.36 118.5 102.79 117.87 101.57 117.88 101.44 117.98 100.47 118.2 98.28 118.3 97.31 118.53 95.11 118.62 94.14 118.85 91.95 118.95 90.98 119.17 88.79 119.27 87.82 119.49 85.63 119.59 84.66 119.81 82.47 119.91 81.5 120.14 79.3 120.23 78.33 120.46 76.14 120.56 75.17 120.79 72.9 122.46 72.84 122.51 73.22 122.61 73.98 122.84 75.72 122.94 76.49 123.17 78.23 123.28 79 123.5 80.74 123.61 81.51 123.84 83.25 123.94 84.02 124.17 85.76 124.27 86.53 124.5 88.27 124.6 89.04 124.83 90.78 124.93 91.55 125.16 93.29 125.26 94.06 125.49 95.8 125.59 96.57 125.82 98.31 125.92 99.08 126.16 100.82 126.26 101.59 126.26 101.62"/><polygon class="cls-9" points="122.61 73.98 120.46 76.14 120.56 75.17 122.51 73.22 122.61 73.98"/><polygon class="cls-9" points="122.94 76.49 120.14 79.3 120.23 78.33 122.84 75.72 122.94 76.49"/><polygon class="cls-9" points="123.28 79 119.81 82.47 119.91 81.5 123.17 78.23 123.28 79"/><polygon class="cls-9" points="123.61 81.51 119.49 85.63 119.59 84.66 123.5 80.74 123.61 81.51"/><polygon class="cls-9" points="123.94 84.02 119.17 88.79 119.27 87.82 123.84 83.25 123.94 84.02"/><polygon class="cls-9" points="124.27 86.53 118.85 91.95 118.95 90.98 124.17 85.76 124.27 86.53"/><polygon class="cls-9" points="124.6 89.04 118.53 95.11 118.62 94.14 124.5 88.27 124.6 89.04"/><polygon class="cls-9" points="124.93 91.55 118.2 98.28 118.3 97.31 124.83 90.78 124.93 91.55"/><polygon class="cls-9" points="125.26 94.06 117.88 101.44 117.98 100.47 125.16 93.29 125.26 94.06"/><polygon class="cls-9" points="125.59 96.57 118.8 103.36 118.5 102.79 125.49 95.8 125.59 96.57"/><polygon class="cls-9" points="125.92 99.08 119.77 105.23 119.47 104.66 125.82 98.31 125.92 99.08"/><polygon class="cls-9" points="126.26 101.59 120.73 107.11 120.44 106.53 126.16 100.82 126.26 101.59"/><polygon class="cls-9" points="124.89 104.92 124.28 106.4 121.7 108.98 121.41 108.4 124.89 104.92"/><polygon class="cls-9" points="120.79 72.9 121.62 74.14 122.46 72.84 122.61 73.95 121.63 74.95 120.7 73.77 120.79 72.9"/><polygon class="cls-10" points="119.38 70.82 121.62 74.14 123.76 70.82 121.62 68.04 119.38 70.82"/><path class="cls-18" d="M118.09,73.09a.22.22,0,0,1-.16,0c-2.22-1.77-4.1-6.33-4.18-6.52a.26.26,0,0,1,.14-.34.25.25,0,0,1,.33.14c0,.05,1.79,4.34,3.82,6.15l3.37-4.58a.28.28,0,0,1,.21-.1.23.23,0,0,1,.2.11L125,72.36c.48-.87,1.74-3.17,2.8-5.3a.25.25,0,0,1,.34-.12.27.27,0,0,1,.12.35c-1.34,2.69-3,5.64-3,5.67a.26.26,0,0,1-.22.13.24.24,0,0,1-.22-.1l-3.17-4.51L118.29,73a.23.23,0,0,1-.17.1Z"/><path class="cls-19" d="M121.61,68.3a.25.25,0,0,1-.25-.26V66.9a.26.26,0,1,1,.51,0V68A.25.25,0,0,1,121.61,68.3Z"/><path class="cls-16" d="M127.52,54.39s1.15-1.35,1.8,0,.15,4.11-1.6,3.66Z"/><path class="cls-15" d="M128.75,59.15a4.13,4.13,0,0,1-4.34,4.17c-4.32,0-7.27-3.4-7.42-3.56h0l0-.88-.25-4.56-.13-2.44s-.55-4.39,3.62-5.19c3-.58,5.9-.08,7.34,1.51l.14.16a3.8,3.8,0,0,1,.82,2l.13,4.37,0,1.08Z"/><path class="cls-10" d="M123.76,51.64s-1.83,1.36-2.91.5,1.44-1.81,2.27-1.74S124.3,51.34,123.76,51.64Z"/><path class="cls-10" d="M125.74,51.64s1.83,1.36,2.91.5-1.44-1.81-2.27-1.74S125.2,51.34,125.74,51.64Z"/><path class="cls-16" d="M124.3,59.7a1.85,1.85,0,0,1-1.24-.4.19.19,0,1,1,.25-.29,1.34,1.34,0,0,0,1.34.2.19.19,0,0,1,.25.1.2.2,0,0,1-.1.26A2,2,0,0,1,124.3,59.7Z"/><path class="cls-8" d="M122.42,56.71a19.46,19.46,0,0,0,4,.42,2,2,0,0,1-4-.42Z"/><path class="cls-10" d="M127.66,48.36c-.68-.24-1.18,0-2.24.45-1.54.68-3.25.07-4.77-.71s-2.43.31-1.91,1,.46,1.28-.12,2.18,1.09,1.32.17,2a.94.94,0,0,0-.2,1.16.63.63,0,0,1-.71.83h0c-.49-.12-1.19-1-1.19-1l-.13-2.44s-.55-4.39,3.62-5.19c3-.58,5.9-.08,7.34,1.51Z"/><path class="cls-16" d="M122.94,55.32c0,.31-.62.55-1.4.55s-1.4-.24-1.4-.55.63-.55,1.4-.55S122.94,55,122.94,55.32Z"/><path class="cls-16" d="M128.65,55.86h-.34c-.77,0-1.4-.24-1.4-.55s.63-.55,1.4-.55h.3Z"/><path class="cls-10" d="M123.55,53.65c0,.41-.19.75-.42.75s-.43-.34-.43-.75.19-.76.43-.76S123.55,53.23,123.55,53.65Z"/><path class="cls-10" d="M127.75,53.65c0,.41-.19.75-.42.75s-.43-.34-.43-.75.19-.76.43-.76S127.75,53.23,127.75,53.65Z"/><path class="cls-10" d="M118.35,58.07A3.81,3.81,0,0,1,117,59.76h0l0-.88A3.06,3.06,0,0,0,118.35,58.07Z"/><path class="cls-15" d="M117.58,55.16s-1.67-2.24-2.89-.48c-1,1.46.9,5.24,2.89,4Z"/><path class="cls-10" d="M117.35,58a.17.17,0,0,1-.17-.15,2.88,2.88,0,0,0-1.67-2.32.17.17,0,0,1-.09-.22.17.17,0,0,1,.22-.1,3.23,3.23,0,0,1,1.89,2.6.18.18,0,0,1-.16.19Z"/><path class="cls-10" d="M115.75,56.91a.15.15,0,0,1-.13-.07.17.17,0,0,1,0-.24c.07-.05.69-.54,1.2-.41a.17.17,0,1,1-.08.34c-.3-.08-.75.22-.9.34A.15.15,0,0,1,115.75,56.91Z"/><path class="cls-10" d="M124.91,55.75a.18.18,0,0,1-.18-.17.17.17,0,0,1,.18-.17,1.18,1.18,0,0,0,1-.48l-1.37-2.86a.17.17,0,0,1,.31-.14s.71,1.49,1.41,2.93a.16.16,0,0,1,0,.15A1.45,1.45,0,0,1,124.91,55.75Z"/><path class="cls-15" d="M83.3,71.25S81,73.59,78.7,72.68c-1.85-.74-2.26-3.31-2.35-4.27,0-.23,0-.36,0-.36a2.51,2.51,0,0,1-.3-.2c-.4-.3-1.07-.9-1-1.61.1-1,1.93-.45,1.93-.45s-.27-1.21.27-1.57,1.62.27,1.62.27-.59-1.49.22-1.85c1.21-.54,1.62,1.29,1.67,1.41,0-.13-.59-5.76.37-5.47s1.62,5,1.82,6.23c0,.21,0,.32,0,.32h.18c.54,0,2.13.16,2.43,1.27C85.94,67.75,83.3,71.25,83.3,71.25Z"/><path class="cls-16" d="M78.56,67.28a1.91,1.91,0,0,1,.2,1.24.59.59,0,0,1-.39.43,1.23,1.23,0,0,1-.51,0,5.81,5.81,0,0,1-1.5-.55,3.1,3.1,0,0,1,0-.36,2.51,2.51,0,0,1-.3-.2.16.16,0,0,1,.1,0,4.7,4.7,0,0,0,2.12.72.24.24,0,0,0,.15-.17,2.33,2.33,0,0,0-.57-1.62.18.18,0,0,1,0-.25.2.2,0,0,1,.25,0c.38.28,1.48,1,2,.79.08,0,.1-.06.1-.08a.68.68,0,0,0-.08-.38,5.14,5.14,0,0,0-.67-1,.14.14,0,0,1,0-.1.17.17,0,0,1,.06-.16.19.19,0,0,1,.27,0,5,5,0,0,1,.69,1,1.93,1.93,0,0,1,.16.48.75.75,0,0,1,0,.26.49.49,0,0,1-.35.34A2.42,2.42,0,0,1,78.56,67.28Z"/><path class="cls-16" d="M81.47,65.68a.18.18,0,0,0-.14.16,1.15,1.15,0,0,1-.17.59.21.21,0,0,1-.19.11.77.77,0,0,1-.31-.11,6.11,6.11,0,0,1-1-.85.16.16,0,0,0,0,.11,4.79,4.79,0,0,1,.67,1l.11.07a1.48,1.48,0,0,0,.35.15l.13,0a.6.6,0,0,0,.52-.27,1.5,1.5,0,0,0,.24-.78.18.18,0,0,0-.24-.19Z"/><path class="cls-16" d="M84.18,67.81a6.84,6.84,0,0,1-1.5,0,2.07,2.07,0,0,1-1-.42,1,1,0,0,1-.34-.71c0-1,1-1.57,1.63-1.82,0,.21,0,.32,0,.32h.18c-.52.2-1.5.67-1.48,1.49a.58.58,0,0,0,.21.44,3.73,3.73,0,0,0,2.25.37.19.19,0,0,1,.21.17A.2.2,0,0,1,84.18,67.81Z"/><path class="cls-16" d="M80.11,71.43a.22.22,0,0,1-.15-.12.21.21,0,0,1,.12-.25,1.7,1.7,0,0,0,1-1,4.2,4.2,0,0,0-.39-2.81.19.19,0,1,1,.33-.18,4.46,4.46,0,0,1,.42,3.13,2.11,2.11,0,0,1-1.28,1.21Z"/><path class="cls-17" d="M108.28,68.52l-4,3.44-1.91,1.76-1.9,1.74-1.91,1.7c-.63.56-1.27,1.1-1.9,1.63s-1.26,1-1.85,1.47c-.29.21-.57.41-.8.56l-.15.1-.07,0,0,0,0,0s0,0,0,.07a.4.4,0,0,1-.2,0,3.27,3.27,0,0,1-1.11-.43,9.85,9.85,0,0,1-1.52-1.14A21.05,21.05,0,0,1,89.34,78a37.16,37.16,0,0,1-3-3.8c-.94-1.36-1.6-2.4-2.45-3.85a6.38,6.38,0,0,1-5.77,2.21A53,53,0,0,0,80.4,77.7a40.47,40.47,0,0,0,2.93,5,27.81,27.81,0,0,0,1.91,2.43,17.93,17.93,0,0,0,2.48,2.31,12.77,12.77,0,0,0,1.61,1,10.83,10.83,0,0,0,2,.84,9.29,9.29,0,0,0,2.42.38,8.87,8.87,0,0,0,2.56-.33,9.3,9.3,0,0,0,1.19-.42l.27-.12L98,88.7a1.51,1.51,0,0,0,.22-.11l.21-.11c.53-.29,1-.57,1.43-.84.87-.56,1.66-1.11,2.42-1.66s1.5-1.13,2.22-1.69,1.44-1.14,2.14-1.72l2.08-1.74c.68-.59,1.36-1.18,2-1.78s1.34-1.2,2-1.81l1-.91.49-.47.49-.48Z"/><path class="cls-18" d="M104.51,84.76a.24.24,0,0,0,.13-.05C107.26,82.88,111.9,79,112,79a.24.24,0,0,0,0-.33.24.24,0,0,0-.34,0s-4.67,3.88-7.27,5.7a.24.24,0,0,0,.14.44Z"/><path class="cls-18" d="M109.91,80.59h0l1.84-.27a.24.24,0,0,0-.07-.47l-1.84.26a.24.24,0,0,0,0,.48Z"/><path class="cls-18" d="M79.46,75.52a.25.25,0,0,1-.13-.27.24.24,0,0,1,.29-.18c3.47.75,5.19-2.55,5.21-2.59a.24.24,0,0,1,.33-.1h0a.23.23,0,0,1,.1.32s-1.92,3.68-5.74,2.84A.08.08,0,0,1,79.46,75.52Z"/><path class="cls-18" d="M81.24,75.58a.19.19,0,0,1-.11-.12L80,72.8a.25.25,0,0,1,.13-.32.24.24,0,0,1,.32.13l1.14,2.66a.23.23,0,0,1-.13.32A.2.2,0,0,1,81.24,75.58Z"/><path class="cls-18" d="M83.28,73a.42.42,0,0,1-.57.18.42.42,0,1,1,.39-.75A.42.42,0,0,1,83.28,73Z"/><path class="cls-18" d="M94.28,84.09a.23.23,0,0,1-.13-.17,10.32,10.32,0,0,0-.71-2.42.25.25,0,0,1,.11-.33.24.24,0,0,1,.32.1,10.68,10.68,0,0,1,.76,2.57.25.25,0,0,1-.2.28A.37.37,0,0,1,94.28,84.09Z"/><path class="cls-18" d="M92.7,83.54a.05.05,0,0,1,0,0,.24.24,0,0,1,0-.35,4.55,4.55,0,0,0,.84-1.62.25.25,0,0,1,.48.1,5,5,0,0,1-1,1.84A.24.24,0,0,1,92.7,83.54Z"/></g><ellipse class="cls-7" cx="265.53" cy="221.57" rx="88.67" ry="5.4"/><path class="cls-15" d="M271.06,71.38l-9,32.75,3.2-3.68a16.4,16.4,0,0,1-4.07,1.45,29.66,29.66,0,0,1-4.89.63c-1.73.09-3.53.07-5.37,0s-3.72-.21-5.63-.37h0a5.12,5.12,0,0,0-1.24,10.15c2,.32,4,.61,6,.85s4.16.42,6.34.47a41.55,41.55,0,0,0,6.78-.38,28.11,28.11,0,0,0,7.11-2,5.59,5.59,0,0,0,3.08-3.34l.12-.34,10.74-32.21A6.91,6.91,0,0,0,271.17,71C271.13,71.13,271.09,71.26,271.06,71.38Z"/><path class="cls-6" d="M267.61,190.11a1.12,1.12,0,0,0,.4-.07l46.92-16.92a1.18,1.18,0,1,0-.8-2.23l-46.92,16.92a1.19,1.19,0,0,0,.4,2.3Z"/><path class="cls-6" d="M316.48,190.11a1.19,1.19,0,0,0,.41-2.3l-47.48-17.19a1.18,1.18,0,1,0-.81,2.22L316.08,190A1.12,1.12,0,0,0,316.48,190.11Z"/><path class="cls-6" d="M263.44,220.34a2,2,0,0,0,2-1.75l8.48-63.29h35.46l8.35,63.28a2,2,0,1,0,4-.53l-8.57-65a2,2,0,0,0-2-1.76h-39a2,2,0,0,0-2,1.76l-8.71,65a2,2,0,0,0,1.74,2.27A1.23,1.23,0,0,0,263.44,220.34Z"/><path class="cls-6" d="M283.45,153.28h25.33c8,0,16.63-4.4,17.86-12.33a150.31,150.31,0,0,0,1.6-30.3,37,37,0,0,0-14-27.19h0s-5.06,22.06,1.31,52.5C313.12,147.53,283.45,153.28,283.45,153.28Z"/><path class="cls-10" d="M288.73,23.91s3-7.26,11-5.89c5.58.95,8,7.9,7.62,18.62-.48,15.6,4.8,25,4.8,25l-7,1.59S287.29,36.49,288.73,23.91Z"/><path class="cls-10" d="M224.82,193.23h11.32s2.62-12.57,3.5-19.61S241,149.88,241,149.88s9,2.93,27.9,1.82c41.84-2.44,26-33.18,26-33.18-1.41,2-10.07.6-16,1.53-18.17,1.75-33.92,8.88-43.37,13a46.88,46.88,0,0,0-6.07,3.12c-2.28,1.4-3.71,5.66-4.57,11.27C222.27,164.24,224.82,193.23,224.82,193.23Z"/><path class="cls-9" d="M234.74,187.17a.39.39,0,0,0,.39-.32c1.64-8.08,2.19-18.14,2.63-26.22.36-6.71.71-13,1.57-13.8.69-.61,3.59-.13,7.25.48,7.3,1.21,18.31,3,30.46.21,6.62-1.54,11.49-4.75,14.47-9.56,5.13-8.27,2.79-18.54,2.77-18.64a.41.41,0,0,0-.49-.3.4.4,0,0,0-.3.49c0,.09,2.28,10-2.68,18-2.86,4.61-7.55,7.7-13.95,9.19-12,2.79-22.92,1-30.14-.22-4.33-.72-6.94-1.15-7.93-.28s-1.36,5.57-1.84,14.35c-.44,8.06-1,18.08-2.61,26.11a.4.4,0,0,0,.32.47Z"/><path class="cls-9" d="M224.61,187.39h0l12.58-.27a.41.41,0,0,0,.4-.42.4.4,0,0,0-.42-.39l-12.58.27a.41.41,0,0,0-.4.41A.42.42,0,0,0,224.61,187.39Z"/><polygon class="cls-15" points="225.14 207.73 233.13 207.73 234.66 198.35 235.51 193.23 225.58 193.23 225.42 198.35 225.14 207.73"/><polygon class="cls-20" points="225.14 207.73 233.13 207.73 234.27 200.75 234.66 198.35 225.42 198.35 225.35 200.84 225.14 207.73"/><polygon class="cls-19" points="225.35 200.84 234.27 200.75 234.66 198.35 225.42 198.35 225.35 200.84"/><path class="cls-21" d="M205.42,220.34h30.22a4.33,4.33,0,0,0,.39-1.68c.19-2.55-.62-6.63-1-9.2q-.07-.45-.12-.84a7.93,7.93,0,0,1-.09-1.05,1.54,1.54,0,0,0-1.86-1.74c-3.06,3-6.52-1.49-8.54,0l-.27.21c-.17.13-.43.34-.78.64-.52.43-1.24,1.05-2.22,1.93-2.4,2.16-6.48,3.59-9.95,5-.44.18-.86.37-1.24.55l-.82.42c-2.84,1.53-3.74,3-3.94,4.06A2.35,2.35,0,0,0,205.42,220.34Z"/><path class="cls-22" d="M209.12,214.6c.78.62,2.51,1.86,3.9,1.86h.18c1-.08,4.58-1.85,7.51-3.46,1.68-.92,3.22-1.83,4.32-2.56,1.81-1.19,2.12-1.64,2.19-2,.27-1.19-1.71-2-3.09-2.45-.17.13-.43.34-.78.64,1.71.47,3.12,1.2,3.06,1.62s-2,1.71-6.23,4.05a38.73,38.73,0,0,1-7.05,3.29c-.93.08-2.29-.77-3.19-1.44Z"/><path class="cls-22" d="M205.42,220.34h30.22a4.33,4.33,0,0,0,.39-1.68H205.18A2.35,2.35,0,0,0,205.42,220.34Z"/><path class="cls-22" d="M232.55,220.34h.9a6.64,6.64,0,0,1-1.62-4.84,8.51,8.51,0,0,1,3.18-6q-.07-.45-.12-.84a9.29,9.29,0,0,0-3.78,6.85A7.33,7.33,0,0,0,232.55,220.34Z"/><path class="cls-8" d="M221.64,210.38a.49.49,0,0,0,.48-.38.5.5,0,0,0-.36-.61l-1.89-.46a.49.49,0,0,0-.24,1l1.89.47Z"/><path class="cls-8" d="M223.52,208.8a.5.5,0,0,0,.12-1l-1.89-.47a.5.5,0,0,0-.24,1l1.89.47Z"/><path class="cls-8" d="M219.75,211.47a.5.5,0,0,0,.12-1L218,210a.51.51,0,0,0-.61.37.51.51,0,0,0,.37.6l1.88.47Z"/><path class="cls-8" d="M217.87,212.53a.5.5,0,0,0,.48-.38.49.49,0,0,0-.36-.6l-1.89-.47a.49.49,0,0,0-.24,1l1.89.47Z"/><path class="cls-8" d="M215.81,213.5a.5.5,0,0,0,.12-1l-1.89-.47a.5.5,0,0,0-.24,1l1.89.47Z"/><path class="cls-8" d="M213.58,214.33a.5.5,0,0,0,.12-1l-1.89-.47a.5.5,0,0,0-.24,1l1.89.47Z"/><path class="cls-22" d="M315.79,108.78s.36,2.44-2.91,3.13L278.8,113a3.82,3.82,0,0,1-1.89-4S291.3,101,315.79,108.78Z"/><path class="cls-15" d="M278.33,120.05c17.69,9.74,37,1.9,37,1.9a54.77,54.77,0,0,1-2.15-8.13c-.59-3.08-.92-5.8-1.07-7.23-7.53-.41-26-1.19-33.21.52l-.05,2.9Z"/><path class="cls-16" d="M291.4,115.39c.13.91.54,1.6.92,1.55s.58-.84.44-1.75-.54-1.61-.92-1.55S291.27,114.47,291.4,115.39Z"/><path class="cls-16" d="M278.86,110c7.53-.46,22.36-.62,34.33,3.81-.59-3.08-.92-5.8-1.07-7.23-7.53-.41-26-1.19-33.21.52Z"/><path class="cls-21" d="M270.45,96a4.85,4.85,0,0,0,.25.61l.12.22a16.42,16.42,0,0,0,3.64,4.36l.73.62c.45.37.84.65,1.1.84s.39.27.39.27v0c0,.13,0,.27,0,.41,0,.56.08,1.22.1,2,0,.61.05,1.28.06,2,0,.54,0,1.09,0,1.67,10-4.46,30.59-1.65,38.88-.25q-.23-1.08-.42-2.1a66.48,66.48,0,0,1-1-8.56,89.27,89.27,0,0,1,.94-15.4c.05-.39.1-.77.16-1.15s.07-.5.11-.75c.29-1.85.62-3.7,1-5.5,1.64-7.85.49-16.08-7.46-17.06l-1.7-.19c-3.75-.4-6.84-.54-7.7-.57h-.23L284.06,62l-1.46.42c-.84.27-1.62.53-2.34.79l-.89.33c-.75.28-1.42.55-2,.82a16.57,16.57,0,0,0-3,1.62c-3.38,2.4-2.85,5.1-2.77,10.45v.07a1.48,1.48,0,0,0,0,.21v.74c0,.69,0,1.38-.07,2.07-.06,1-.15,2-.26,3,0,.4-.09.79-.14,1.18s-.09.72-.14,1.08C270.38,89.41,269.61,93.51,270.45,96Z"/><path class="cls-22" d="M284.06,62c.86,1.33,2.64,2.85,6.24,2.59,5-.36,8.23-5.1,9.37-7h-.23Z"/><path class="cls-8" d="M289.34,70.75a3.32,3.32,0,0,1-.44.06,3.84,3.84,0,0,1-3.3-1.18c-2.39-2.61-1.41-8.56-1.37-8.81a.37.37,0,0,1,.43-.3.36.36,0,0,1,.3.42c0,.06-1,5.85,1.18,8.19a3.1,3.1,0,0,0,2.7,1c4.82-.39,10.21-12.61,10.26-12.74a.37.37,0,1,1,.68.3C299.55,58.14,294.44,69.71,289.34,70.75Z"/><path class="cls-15" d="M274.36,65.94a27,27,0,0,1-2.83,13.54c.05-.91.08-1.81.07-2.72v-.09a2.72,2.72,0,0,1,0-.28C271.51,71,271,68.34,274.36,65.94Z"/><path class="cls-15" d="M302.64,72.15c1.77,6.81,8.22,12.27,12.63,10.57.05-.39.11-.77.16-1.15s.08-.5.11-.75c.29-1.85.62-3.7,1-5.5,1.64-7.85.49-16.08-7.46-17.06l-1.7-.19C303.38,59.77,300.61,64.31,302.64,72.15Z"/><path class="cls-15" d="M301.73,67l-10.33,37.8,3.68-4.25a18.76,18.76,0,0,1-4.69,1.67,34,34,0,0,1-5.65.73c-2,.1-4.07.08-6.19,0s-4.3-.25-6.5-.44h0a5.91,5.91,0,0,0-1.44,11.72c2.28.36,4.59.7,7,1s4.8.48,7.32.53a45.61,45.61,0,0,0,7.82-.43,32.72,32.72,0,0,0,8.21-2.26,6.45,6.45,0,0,0,3.55-3.86l.13-.39L317,71.59a8,8,0,1,0-15.13-5Z"/><path class="cls-16" d="M297.11,103.55a.3.3,0,0,0,.26-.16.29.29,0,0,0-.11-.41,12.67,12.67,0,0,0-4.72-1.52.31.31,0,0,0-.05.61,12.33,12.33,0,0,1,4.47,1.44A.37.37,0,0,0,297.11,103.55Z"/><path class="cls-16" d="M293.35,102.18a.29.29,0,0,0,.16,0,8,8,0,0,1,3.17-1,.31.31,0,0,0,0-.61,8.64,8.64,0,0,0-3.45,1.08.32.32,0,0,0-.1.43A.31.31,0,0,0,293.35,102.18Z"/><path class="cls-10" d="M291.33,52.49s7.34-1.38,9.41-8.79c2-7.05.45-10.71-1.6-14.52-1.54-2.87-6.44-6.75-13.3-5.36s-12.12,5-12.88,10.66C271.52,45.15,280.13,58.16,291.33,52.49Z"/><path class="cls-20" d="M300.39,44.84a.39.39,0,0,0,.33-.19,16.66,16.66,0,0,0,.66-13.1A12,12,0,0,0,294.25,24a12.72,12.72,0,0,0-4.8-.88.38.38,0,0,0,0,.76h0a12.28,12.28,0,0,1,4.52.85,11.14,11.14,0,0,1,6.65,7,16.17,16.17,0,0,1-.6,12.46.38.38,0,0,0,.14.52A.32.32,0,0,0,300.39,44.84Z"/><path class="cls-16" d="M277.09,45s-2.39-1.88-3,.61,1.14,6.94,3.93,5.59Z"/><path class="cls-20" d="M279.42,49.55a3.78,3.78,0,0,1,2.5,2.75,3.6,3.6,0,1,1-5.56-2.25,3.71,3.71,0,0,1,1.32-.56h0a.58.58,0,0,1-.1.59,2.92,2.92,0,0,0-1.06.52,3,3,0,1,0,4.81,1.81,2.93,2.93,0,0,0-2.23-2.3Z"/><path class="cls-15" d="M284.33,55.67l1,6.25s4.68,4.78,13.23-3.79c-2.3-1.72-3.17-5.68-2.9-8.24a12.64,12.64,0,0,0-1.72,1.35c-.2.18-.46.32-.71.5C291,53.27,287.5,55.27,284.33,55.67Z"/><path class="cls-10" d="M284.33,55.67l.47,3c2.57-1.14,7.1-3.59,9.14-7.39l-.71.5C291,53.27,287.5,55.27,284.33,55.67Z"/><path class="cls-15" d="M274.77,43.46c.14.66.26,1.29.39,1.89s.26,1.26.39,1.83c.95,4.33,1.73,6.65,3,7.52,6.38,4.39,16.77-4.5,17.11-4.79h0c0-.51,0-1,0-1.51a39.08,39.08,0,0,0-1.94-11.49,8.83,8.83,0,0,0-7.35-7.46c-3.95-.59-6.93,1.7-8.79,2.71C274.77,33.68,273.67,37.94,274.77,43.46Z"/><path class="cls-10" d="M293.5,33s-4.46-8.59-13.38-6.19-9.39,6.54-9.54,8.61,4.61-1.6,4.61-1.6.17,4.14,1.76,2.86a25.74,25.74,0,0,0,4.13-4.94s5.31,5.22,10.36,3.81C294.3,34.73,293.5,33,293.5,33Z"/><path class="cls-16" d="M282.55,51.88a3,3,0,0,0,2-.84.32.32,0,1,0-.46-.44,2.22,2.22,0,0,1-2.18.54.32.32,0,0,0-.2.6A2.64,2.64,0,0,0,282.55,51.88Z"/><path class="cls-8" d="M285.22,46.68A32.63,32.63,0,0,1,278.69,48,3.3,3.3,0,0,0,283,50,3.27,3.27,0,0,0,285.22,46.68Z"/><path class="cls-10" d="M277.24,37.73s1.12-.11.94,1-2.6.42-3.8,2.59C274.38,41.29,273.22,39,277.24,37.73Z"/><path class="cls-10" d="M282.21,36.73s-1.08.33-.49,1.25,2.56-.62,4.51.91C286.23,38.89,286.41,36.34,282.21,36.73Z"/><path class="cls-16" d="M284.14,44.48c.11.52,1.24.72,2.54.45s2.27-.89,2.16-1.4-1.24-.71-2.53-.45S284,44,284.14,44.48Z"/><path class="cls-8" d="M271.46,44.82l3.47-.59a3,3,0,0,0,.09.43.24.24,0,0,0,0,.08l-3.5.59a.26.26,0,1,1-.08-.51Z"/><path class="cls-8" d="M280.81,42.72h0a4.39,4.39,0,0,0,5.17,3.4A4.38,4.38,0,0,0,288.13,45a4.82,4.82,0,0,0,.69-.86,4.35,4.35,0,0,0,.56-3.18,3.74,3.74,0,0,0-.12-.45,2.53,2.53,0,0,0-.19-.48,4.38,4.38,0,0,0-4.86-2.46h0a4.28,4.28,0,0,0-2.24,1.26,4.39,4.39,0,0,0-1.17,2.49,3.08,3.08,0,0,0,0,.53A4.26,4.26,0,0,0,280.81,42.72Zm.51-.09a3.85,3.85,0,0,1,1.12-3.57,3.72,3.72,0,0,1,1.88-1,3.86,3.86,0,0,1,4.37,2.39s0,0,0,0a3.41,3.41,0,0,1,.16.57,3.86,3.86,0,0,1-2.93,4.54h-.06A3.86,3.86,0,0,1,281.32,42.63Z"/><path class="cls-8" d="M270.7,44.82a4.34,4.34,0,0,0,2.25,3,3.81,3.81,0,0,0,.94.36,4.52,4.52,0,0,0,.53.11l.19,0a4.51,4.51,0,0,0,1.26-.08l.12,0,.24-.06a4.5,4.5,0,0,0,1.43-.73,4.39,4.39,0,0,0,1.6-4.35,4.27,4.27,0,0,0-.21-.72,0,0,0,0,1,0,0c-.08-.18-.16-.35-.25-.51a4.37,4.37,0,0,0-3.35-2.2,4.42,4.42,0,0,0-.73,0,4.28,4.28,0,0,0-.61.09l-.33.08a3.57,3.57,0,0,0-.46.16,2.92,2.92,0,0,0-.36.17A4.36,4.36,0,0,0,270.7,44.82ZM273,40.61a2.21,2.21,0,0,1,.34-.18,3.8,3.8,0,0,1,.47-.18l.35-.09.5-.07H275a3.75,3.75,0,0,1,1.63.37,3.86,3.86,0,0,1,1.88,1.88,4.48,4.48,0,0,1,.27.83,3.86,3.86,0,0,1-1,3.45l-.2.19a3.71,3.71,0,0,1-1.61.87l-.07,0-.12,0a4.05,4.05,0,0,1-1.25.05l-.16,0a4.17,4.17,0,0,1-1.4-.52,3.83,3.83,0,0,1-1.57-1.92,1.93,1.93,0,0,1-.11-.34,1.05,1.05,0,0,1-.06-.24A3.85,3.85,0,0,1,273,40.61Z"/><path class="cls-8" d="M294.6,40.81a.16.16,0,0,0,.09,0,.26.26,0,0,0,.08-.36c-1.74-2.72-5.92-.28-6-.25a.26.26,0,0,0-.09.35.25.25,0,0,0,.36.09s3.78-2.21,5.25.09A.25.25,0,0,0,294.6,40.81Z"/><path class="cls-8" d="M278.84,42.45a.25.25,0,0,0,.17-.11c.55-.86,1.74-.48,1.76-.47a.26.26,0,0,0,.32-.17.24.24,0,0,0-.16-.32,2,2,0,0,0-2.36.67.27.27,0,0,0,.08.36A.27.27,0,0,0,278.84,42.45Z"/><g class="cls-4"><path class="cls-16" d="M275.16,45.35q.19,1,.39,1.83c1.18-.28,2-.87,1.93-1.35S276.36,45.15,275.16,45.35Z"/></g><path class="cls-10" d="M283.23,41.92c.14.7.58,1.2,1,1.12s.59-.71.45-1.41-.57-1.21-1-1.13S283.09,41.22,283.23,41.92Z"/><path class="cls-10" d="M276.29,43.32c.14.71.57,1.21,1,1.13s.59-.71.45-1.41-.58-1.21-1-1.13S276.15,42.62,276.29,43.32Z"/><path class="cls-10" d="M279.87,45.21a2.59,2.59,0,0,1-.59.06.31.31,0,0,1-.21-.11.28.28,0,0,1-.07-.23l.45-3.28a.29.29,0,0,1,.58.08l-.4,2.92a2.21,2.21,0,0,0,1.13-.49.29.29,0,0,1,.42,0,.29.29,0,0,1,0,.41A2.85,2.85,0,0,1,279.87,45.21Z"/><path class="cls-10" d="M292.79,47.53c0,.07,1.4,2,2.86,2.38h0c0-.51,0-1,0-1.51A5.51,5.51,0,0,1,292.79,47.53Z"/><path class="cls-15" d="M293.09,42.39s2-4.33,4.69-1.79c2.19,2.1.28,9.11-3.52,7.61Z"/><path class="cls-20" d="M298.11,46.13a3.83,3.83,0,0,1,2.51,2.75,3.6,3.6,0,1,1-4.24-2.81h0a.58.58,0,0,1-.1.59,3.09,3.09,0,0,0-1.06.52A3,3,0,1,0,300.07,49a3,3,0,0,0-2.24-2.31Z"/><path class="cls-10" d="M294.42,47h0a.28.28,0,0,1-.32-.27,5.53,5.53,0,0,1,2.27-5,.29.29,0,0,1,.41.09.3.3,0,0,1-.08.41h0a4.91,4.91,0,0,0-2,4.45A.3.3,0,0,1,294.42,47Z"/><path class="cls-10" d="M296.76,44.7a.28.28,0,0,1-.2,0c-.29-.15-1.15-.5-1.62-.27a.3.3,0,0,1-.4-.13.3.3,0,0,1,.14-.4,2.84,2.84,0,0,1,2.16.28.3.3,0,0,1,.12.4A.3.3,0,0,1,296.76,44.7Z"/><path class="cls-10" d="M290.45,35s2.75,7.46,2.9,9c.2,2.05,2.91-5,.19-11Z"/><path class="cls-10" d="M244.53,193.26h11.31s2.62-12.56,3.5-19.6,1.34-23.75,1.34-23.75,9,2.93,27.9,1.83c41.83-2.44,26-33.18,26-33.18-1.42,2-12,4.64-17.94,5.58-18.16,1.74-32,4.82-41.42,8.9a46.28,46.28,0,0,0-6.07,3.12c-2.28,1.4-3.7,5.66-4.56,11.27C242,164.28,244.53,193.26,244.53,193.26Z"/><path class="cls-9" d="M254.44,187.21a.41.41,0,0,0,.4-.32c1.63-8.08,2.18-18.14,2.62-26.22.36-6.71.71-13,1.57-13.8.7-.61,3.59-.13,7.26.48,7.29,1.21,18.31,3,30.46.21,6.62-1.54,11.48-4.76,14.46-9.56,5.13-8.28,2.79-18.54,2.77-18.64a.4.4,0,0,0-.49-.3.4.4,0,0,0-.3.48c0,.1,2.29,10-2.67,18-2.86,4.61-7.56,7.7-14,9.19-12,2.79-22.91,1-30.14-.22-4.33-.72-6.94-1.15-7.93-.28s-1.36,5.57-1.84,14.35c-.44,8.06-1,18.08-2.61,26.11a.4.4,0,0,0,.32.47Z"/><path class="cls-9" d="M244.31,187.42h0l12.59-.27a.4.4,0,0,0,.39-.41.4.4,0,0,0-.41-.4l-12.59.27a.4.4,0,0,0-.39.42A.39.39,0,0,0,244.31,187.42Z"/><polygon class="cls-15" points="244.84 207.76 252.83 207.76 254.37 198.39 255.21 193.26 245.28 193.26 245.13 198.39 244.84 207.76"/><polygon class="cls-20" points="244.84 207.76 252.83 207.76 253.97 200.79 254.37 198.39 245.13 198.39 245.05 200.88 244.84 207.76"/><polygon class="cls-19" points="245.05 200.88 253.97 200.79 254.37 198.39 245.13 198.39 245.05 200.88"/><path class="cls-21" d="M225.13,220.38h30.21a4.15,4.15,0,0,0,.4-1.68c.19-2.55-.63-6.63-1-9.2q-.08-.45-.12-.84a8.06,8.06,0,0,1-.09-1,1.54,1.54,0,0,0-1.86-1.74c-3.06,3-6.52-1.49-8.54,0l-.27.2-.78.65c-.52.43-1.24,1.05-2.22,1.93-2.4,2.16-6.47,3.58-10,5-.44.18-.85.37-1.23.55s-.57.28-.82.42c-2.84,1.53-3.75,3-4,4.06A2.32,2.32,0,0,0,225.13,220.38Z"/><path class="cls-21" d="M228.83,214.64c.77.62,2.51,1.86,3.89,1.86h.19c1-.08,4.58-1.85,7.51-3.46,1.68-.92,3.21-1.83,4.31-2.56,1.81-1.19,2.12-1.65,2.19-2,.27-1.19-1.7-2-3.09-2.46l-.78.65c1.72.46,3.13,1.2,3.06,1.62s-2,1.71-6.23,4.05a38.76,38.76,0,0,1-7,3.29,6,6,0,0,1-3.19-1.44C229.36,214.36,229.08,214.5,228.83,214.64Z"/><path class="cls-22" d="M225.13,220.38h30.21a4.15,4.15,0,0,0,.4-1.68H224.88A2.34,2.34,0,0,0,225.13,220.38Z"/><path class="cls-22" d="M252.26,220.38h.9a6.6,6.6,0,0,1-1.63-4.84,8.55,8.55,0,0,1,3.18-6q-.08-.45-.12-.84a9.29,9.29,0,0,0-3.78,6.85A7.33,7.33,0,0,0,252.26,220.38Z"/><path class="cls-8" d="M241.34,210.41a.5.5,0,0,0,.49-.37.51.51,0,0,0-.37-.61l-1.88-.47a.51.51,0,0,0-.61.37.51.51,0,0,0,.37.6l1.88.47Z"/><path class="cls-8" d="M243.22,208.84a.5.5,0,0,0,.12-1l-1.89-.47a.51.51,0,0,0-.6.37.5.5,0,0,0,.36.6l1.89.47Z"/><path class="cls-8" d="M239.46,211.51a.5.5,0,0,0,.12-1l-1.89-.47a.49.49,0,0,0-.6.36.5.5,0,0,0,.36.61l1.89.47Z"/><path class="cls-8" d="M237.57,212.57a.5.5,0,0,0,.12-1l-1.89-.46a.49.49,0,1,0-.24,1l1.89.47Z"/><path class="cls-8" d="M235.51,213.54a.48.48,0,0,0,.48-.38.49.49,0,0,0-.36-.6l-1.89-.47a.5.5,0,0,0-.24,1l1.89.47Z"/><path class="cls-8" d="M233.28,214.37a.5.5,0,0,0,.12-1l-1.89-.47a.51.51,0,0,0-.6.37.5.5,0,0,0,.36.6l1.89.47Z"/><path class="cls-11" d="M202.84,118.11v2.51c0,1.44.87,2.61,1.95,2.61H340.37c1.07,0,1.95-1.17,1.95-2.61v-2.51c0-1.44-.88-2.61-1.95-2.61H204.79C203.71,115.5,202.84,116.67,202.84,118.11Z"/><rect class="cls-19" x="202.84" y="118.91" width="139.48" height="1.15"/><path class="cls-19" d="M206.91,129.68H334.36a1,1,0,0,0,1-1V123.2H205.88v5.45A1,1,0,0,0,206.91,129.68Z"/><rect class="cls-19" x="212.64" y="161.67" width="113.97" height="4.44"/><polygon class="cls-11" points="334.83 221.17 312.76 129.68 320.51 129.68 342.58 221.17 334.83 221.17"/><polygon class="cls-11" points="204.57 221.17 226.63 129.68 218.89 129.68 196.82 221.17 204.57 221.17"/><rect class="cls-20" x="328.54" y="94.54" width="2.42" height="18.25" transform="translate(639.99 256.08) rotate(-171.29)"/><polygon class="cls-15" points="329.93 94.47 332.32 94.83 331.8 93 331.53 92.06 330.98 92.88 329.93 94.47"/><rect class="cls-10" x="327.26" y="111.37" width="2.42" height="1.33" transform="translate(636.18 272.51) rotate(-171.29)"/><path class="cls-23" d="M327.17,113.57l2.07.32a.18.18,0,0,0,.19-.13l.13-.89-2.39-.37-.14.89A.16.16,0,0,0,327.17,113.57Z"/><polygon class="cls-10" points="330.98 92.88 331.8 93 331.53 92.06 330.98 92.88"/><rect class="cls-19" x="328.16" y="109.7" width="0.95" height="2.42" transform="matrix(0.15, -0.99, 0.99, 0.15, 169.26, 418.96)"/><path class="cls-19" d="M331.59,95.63l-2,13.36a.18.18,0,0,1-.21.15h0a.19.19,0,0,1-.16-.21l2.05-13.36a.18.18,0,0,1,.21-.15h0A.18.18,0,0,1,331.59,95.63Z"/><path class="cls-19" d="M330.66,95.48l-2.05,13.36a.19.19,0,0,1-.21.16h0a.18.18,0,0,1-.15-.21l2-13.36a.2.2,0,0,1,.21-.16h0A.2.2,0,0,1,330.66,95.48Z"/><rect class="cls-24" x="317.66" y="102.47" width="18.25" height="2.42" transform="translate(222.04 430.12) rotate(-89.81)"/><polygon class="cls-15" points="325.61 94.55 328.03 94.56 327.24 92.83 326.83 91.93 326.41 92.82 325.61 94.55"/><rect class="cls-10" x="325.55" y="111.47" width="2.42" height="1.33" transform="translate(653.15 225.35) rotate(-179.81)"/><path class="cls-23" d="M325.7,113.85h2.1a.16.16,0,0,0,.16-.16v-.9h-2.42v.89A.16.16,0,0,0,325.7,113.85Z"/><polygon class="cls-10" points="326.41 92.82 327.24 92.83 326.83 91.93 326.41 92.82"/><rect class="cls-25" x="326.29" y="109.79" width="0.95" height="2.42" transform="translate(214.69 437.4) rotate(-89.81)"/><path class="cls-25" d="M327.42,95.45l0,13.52a.19.19,0,0,1-.19.18h0A.18.18,0,0,1,327,109l0-13.52a.19.19,0,0,1,.19-.18h0A.18.18,0,0,1,327.42,95.45Z"/><path class="cls-25" d="M326.48,95.45,326.43,109a.18.18,0,0,1-.18.19h0a.19.19,0,0,1-.19-.19l.05-13.51a.19.19,0,0,1,.18-.19h0A.2.2,0,0,1,326.48,95.45Z"/><rect class="cls-26" x="322.7" y="94.54" width="2.42" height="18.25" transform="translate(-11.36 46.59) rotate(-8.09)"/><polygon class="cls-15" points="321.43 94.81 323.83 94.47 322.8 92.87 322.26 92.04 321.98 92.98 321.43 94.81"/><rect class="cls-10" x="323.89" y="111.38" width="2.42" height="1.33" transform="translate(662.73 177.25) rotate(171.91)"/><path class="cls-23" d="M324.31,113.9l2.07-.3a.16.16,0,0,0,.14-.18l-.13-.89-2.39.34.12.89A.18.18,0,0,0,324.31,113.9Z"/><polygon class="cls-10" points="321.98 92.98 322.8 92.87 322.26 92.04 321.98 92.98"/><rect class="cls-27" x="323.73" y="110.44" width="2.42" height="0.95" transform="translate(-12.37 46.82) rotate(-8.09)"/><path class="cls-27" d="M323.36,95.44l1.9,13.38a.2.2,0,0,1-.16.21h0a.2.2,0,0,1-.21-.16L323,95.49a.2.2,0,0,1,.16-.21h0A.2.2,0,0,1,323.36,95.44Z"/><path class="cls-27" d="M322.42,95.57l1.9,13.38a.18.18,0,0,1-.16.21h0A.2.2,0,0,1,324,109l-1.9-13.38a.2.2,0,0,1,.16-.21h0A.19.19,0,0,1,322.42,95.57Z"/><polygon class="cls-23" points="320.64 101.77 320.77 102.75 320.88 103.63 321.06 104.98 321.17 105.86 321.35 107.22 321.46 108.09 321.64 109.46 321.75 110.32 321.93 111.7 322.04 112.55 322.22 113.94 322.32 114.78 322.42 115.5 331.93 115.5 332.02 114.78 332.13 113.94 332.31 112.55 332.42 111.7 332.6 110.32 332.71 109.46 332.89 108.09 333 107.22 333.17 105.86 333.29 104.98 333.46 103.63 333.58 102.75 333.7 101.77 320.64 101.77"/><polygon class="cls-28" points="320.77 102.75 320.88 103.63 333.46 103.63 333.58 102.75 320.77 102.75"/><polygon class="cls-28" points="321.06 104.98 321.17 105.86 333.17 105.86 333.29 104.98 321.06 104.98"/><polygon class="cls-28" points="321.35 107.22 321.46 108.09 332.89 108.09 333 107.22 321.35 107.22"/><polygon class="cls-28" points="321.64 109.46 321.75 110.32 332.6 110.32 332.71 109.46 321.64 109.46"/><polygon class="cls-28" points="321.93 111.7 322.04 112.55 332.31 112.55 332.42 111.7 321.93 111.7"/><polygon class="cls-28" points="322.22 113.94 322.32 114.78 332.02 114.78 332.13 113.94 322.22 113.94"/><path class="cls-10" d="M203.63,67l8.11,34.31.21.9.55,2.31a2.21,2.21,0,0,0,2.15,1.71H269.3a2.22,2.22,0,0,0,2.16-2.73L262.59,66a2.22,2.22,0,0,0-2.16-1.7H205.78A2.21,2.21,0,0,0,203.63,67Z"/><polygon class="cls-9" points="211.74 101.29 211.95 102.19 268.69 102.19 268.69 101.29 211.74 101.29"/><path class="cls-20" d="M247.28,72.75a5.54,5.54,0,0,0,5.22,4.4,3.55,3.55,0,0,0,3.58-4.4,5.54,5.54,0,0,0-5.22-4.41A3.55,3.55,0,0,0,247.28,72.75Z"/><path class="cls-10" d="M252.25,71.9c.09.49.34.88.55.88s.31-.39.22-.88-.34-.88-.55-.88S252.16,71.42,252.25,71.9Z"/><path class="cls-10" d="M250,71.9c.1.49.34.88.55.88s.31-.39.22-.88-.34-.88-.55-.88S249.86,71.42,250,71.9Z"/><path class="cls-10" d="M252,74.89A2,2,0,0,0,254,73a.24.24,0,0,0-.19-.23.15.15,0,0,0-.2.15A1.63,1.63,0,0,1,252,74.51a2.63,2.63,0,0,1-2.26-1.61.23.23,0,0,0-.25-.15.15.15,0,0,0-.1.23A3.11,3.11,0,0,0,252,74.89Z"/><path class="cls-23" d="M222,93.3c-.05,2.28-3.91,5.13-3.91,5.13s-4.48-2.85-5-5.13c-.59-2.47,2.23-3.23,4.32-1.36C219.08,90.07,222.07,90.83,222,93.3Z"/><path class="cls-9" d="M230.18,86.7A4.9,4.9,0,0,0,234.93,91a3.75,3.75,0,0,0,3.8-4.27A4.9,4.9,0,0,0,234,82.42,3.76,3.76,0,0,0,230.18,86.7Z"/><path class="cls-9" d="M258.27,64.26l9.44,41.95h1.59a2.22,2.22,0,0,0,2.16-2.73L262.59,66a2.22,2.22,0,0,0-2.16-1.7Z"/><polygon class="cls-8" points="242.44 106.2 244.09 115.53 238.62 115.53 236.96 106.2 242.44 106.2"/><path class="cls-8" d="M252.29,113.92l-1.12-1.57a2.15,2.15,0,0,0-1.74-.9h-15a2.11,2.11,0,0,0-1.89,1.15l-.76,1.44a1,1,0,0,0,.9,1.49h18.79A1,1,0,0,0,252.29,113.92Z"/><path class="cls-8" d="M283.57,115.52h-45.1l-.49-1.7a1.68,1.68,0,0,1,1.61-2.14H281.2a1.68,1.68,0,0,1,1.61,1.22Z"/></g></g></g></svg>