<svg xmlns="http://www.w3.org/2000/svg" viewBox="0 0 333.12 265.72"><defs><style>.cls-1{isolation:isolate;}.cls-2,.cls-7{fill:#75c189;}.cls-2{opacity:0.3;}.cls-3{fill:#c2c2c2;}.cls-4{fill:#fff;}.cls-5{fill:#006be1;}.cls-6{fill:#fa5;}.cls-12,.cls-19,.cls-22,.cls-8{fill:none;}.cls-8{stroke:#dcdcdc;}.cls-19,.cls-8{stroke-miterlimit:10;}.cls-9{fill:#171223;}.cls-10{fill:#f97341;}.cls-11{fill:#a4614e;}.cls-12{stroke:#8a453a;stroke-width:0.42px;}.cls-12,.cls-22{stroke-linecap:round;stroke-linejoin:round;}.cls-13{fill:#1a1a1a;}.cls-14{fill:#231b22;}.cls-15{fill:#100f11;}.cls-16{fill:#925041;}.cls-17{fill:#e7ae22;}.cls-18{fill:#4ec0c4;}.cls-19{stroke:#fff;}.cls-20{fill:#ffd371;}.cls-21{fill:#f3a3a6;}.cls-22{stroke:#bf717a;stroke-width:0.42px;}.cls-23{fill:#f16854;}.cls-24{fill:#ee6432;}.cls-25{fill:#8f8f8f;}.cls-26{fill:#eaeaea;mix-blend-mode:multiply;}</style></defs><g class="cls-1"><g id="Layer_2" data-name="Layer 2"><g id="Option_1" data-name="Option 1"><path class="cls-2" d="M146,244.15c-85.78,2.68-174.43-89.59-133.72-146,31.58-43.79,85.05-23.64,124-45.2,71.56-39.66,172.68-47.36,192.3,9.14S300.73,186.17,273.43,210C234.93,243.55,146,244.15,146,244.15Z"/><rect class="cls-3" x="70.28" y="46.17" width="236.81" height="158.39" rx="4"/><rect class="cls-4" x="65.69" y="41.01" width="236.81" height="158.39" rx="4"/><path class="cls-5" d="M90.11,51.29a3.37,3.37,0,1,1-3.36-3.36A3.36,3.36,0,0,1,90.11,51.29Z"/><path class="cls-6" d="M101.31,51.29a3.37,3.37,0,1,1-3.37-3.36A3.37,3.37,0,0,1,101.31,51.29Z"/><path class="cls-7" d="M112.5,51.29a3.37,3.37,0,1,1-3.36-3.36A3.36,3.36,0,0,1,112.5,51.29Z"/><rect class="cls-8" x="83.38" y="74.49" width="92.43" height="107.98" rx="1.76"/><rect class="cls-8" x="199.53" y="74.49" width="78.78" height="33.07" rx="1.76"/><rect class="cls-8" x="97.85" y="89.79" width="63.2" height="60.49" rx="5.6"/><line class="cls-8" x1="99.84" y1="161.35" x2="159.15" y2="161.35"/><line class="cls-8" x1="99.84" y1="170.67" x2="133.24" y2="170.67"/><path class="cls-9" d="M18.94,78.07c3.77,2,8.1,1.17,9.68-1.82s-.19-7-4-9S16.55,66.05,15,69,15.17,76.08,18.94,78.07Z"/><path class="cls-10" d="M24.16,77.66a4.71,4.71,0,1,0,3.11-5.89A4.71,4.71,0,0,0,24.16,77.66Z"/><path class="cls-9" d="M47.44,81.33A12,12,0,0,1,35.7,93.56,12,12,0,0,1,24,81.33C24,74.57,29.21,70,35.7,70S47.44,74.57,47.44,81.33Z"/><path class="cls-11" d="M35.29,109.71h0c-2.54-.14-5.12-1.73-5-4.28l1.5-16.91L41,89l-.88,16.33A4.62,4.62,0,0,1,35.29,109.71Z"/><path class="cls-9" d="M34.12,92a8.22,8.22,0,0,0,6.27,8.27l.15-3.84L33.38,92"/><path class="cls-11" d="M41.58,97.35h0c-4.76,0-8.63-3.45-8.63-7.7V75.72l8-.74c3,0,6.94,4.56,6.94,7.2l-.15,7.66C47.71,92.94,45.59,97.35,41.58,97.35Z"/><path class="cls-11" d="M46.8,83.34l2.25,4.46a.67.67,0,0,1-.6,1.06H45.3Z"/><path class="cls-12" d="M44.52,90.31a4.94,4.94,0,0,0,2.92.47"/><path class="cls-13" d="M46.74,85a.71.71,0,0,1-.71.71.7.7,0,0,1-.7-.71.7.7,0,0,1,.7-.7A.7.7,0,0,1,46.74,85Z"/><path class="cls-13" d="M43.07,83.33h3.36a.65.65,0,1,0,0-1.3H43.2a.65.65,0,0,0-.13,1.29Z"/><path class="cls-9" d="M47.69,81.05c-1.39-.72-2.42-3.33-2.42-3.33L44,76.93l-3.58-1.12-3.59,1.12-1.26.79s2.41,2.61,1,3.33l-2.21,5.12s-11.08-6.83-1.76-12.3a8.54,8.54,0,0,1,4-1.36,8.11,8.11,0,0,1,3.87,1.25s7.27.44,7.15,7.29"/><path class="cls-9" d="M32.63,81.05h17s.49-8-8-8.91C33.36,71.25,32.63,81.05,32.63,81.05Z"/><path class="cls-13" d="M31.51,92.76s1.87,0,2.26-3.54l-4.1-1.45Z"/><path class="cls-11" d="M28.9,86.84a3.22,3.22,0,1,0,3.35-3.09A3.23,3.23,0,0,0,28.9,86.84Z"/><polygon class="cls-11" points="14.14 225.88 9.43 220.56 29.35 205.72 35.12 212.24 14.14 225.88"/><path class="cls-14" d="M10.31,219.18l7.75,8.76,2.5,8.76a5.55,5.55,0,0,1-1.71,5.55h0L3.54,224.52Z"/><path class="cls-14" d="M18.35,228.91l.89-4.17s-2.08-3.45-5.08-.33Z"/><path class="cls-15" d="M44.32,136.4s9.66,36,11.08,43.14,4.26,21.32-1.71,26.44S33.6,219.36,33.6,219.36l-10.5-9.7L30,200Z"/><polygon class="cls-11" points="31.13 252.66 24.02 252.66 26.1 227.91 34.81 227.91 31.13 252.66"/><path class="cls-14" d="M23.57,251.09h11.7L43.49,255a5.58,5.58,0,0,1,3,5h0l-23.42-.28Z"/><path class="cls-14" d="M36.19,251.51l-2.53-3.43s-4-.72-3.62,3.59Z"/><path class="cls-14" d="M44.32,136.4l1,54.37a30.68,30.68,0,0,1-.47,5.82l-6.51,36.5H21.39s3.6-25.6-1-70.91c0,0-3.31-19.67,5.77-25.68Z"/><path class="cls-16" d="M46.34,110.84l12.47,9.08,12.5-18.33,4.21,2.32s-5.06,17.23-11.81,25.93a4.33,4.33,0,0,1-5,1.34c-3.66-1.43-10.46-4.76-18.92-12Z"/><path class="cls-17" d="M49.85,113.12l-8.69,14.46-8.39-6.47A8.25,8.25,0,0,1,30.91,110h0A8.26,8.26,0,0,1,43,108.14Z"/><path class="cls-11" d="M71.31,101.59l4.21,2.32,5.18-7.14s-7.89-3.47-7.84-3.35S71.31,101.59,71.31,101.59Z"/><path class="cls-11" d="M71.31,101.59c.13-.39-1.24-5.3-1.55-7a.73.73,0,0,1,.7-.83h0a.69.69,0,0,1,.66.38l1.66,3.61Z"/><path class="cls-11" d="M72.86,93.42l1-1.67a.82.82,0,0,1,1-.51h0a.69.69,0,0,1,.46.85l-1.22,3.27Z"/><path class="cls-11" d="M74.83,94.22,77,91.64a.81.81,0,0,1,1.07-.36h0a.7.7,0,0,1,.34.89l-2,3.69Z"/><path class="cls-11" d="M76.79,95.46,79.14,92a.88.88,0,0,1,1.19-.28h0a.77.77,0,0,1,.25,1.07l-2.36,4Z"/><path class="cls-11" d="M80.7,96.77l1.35-2.12a.63.63,0,0,0-.19-.88h0a.73.73,0,0,0-.91.13l-2.73,2.87Z"/><rect class="cls-18" x="61.68" y="79.55" width="65.05" height="64.21" rx="3.97"/><polyline class="cls-19" points="76.23 129.44 90.06 111.76 97.91 117.19 111.95 100.16"/><polyline class="cls-19" points="108.46 99.87 112.38 99.86 112.71 103.6"/><path class="cls-20" d="M29.55,103.2s-9.19,8.54-3.4,33.3l18.17-.1s5.19-17.55-1.4-28.59Z"/><path class="cls-11" d="M29.55,103.2a19.67,19.67,0,0,0,13.37,4.61l-5.82-6.87H30.72Z"/><path class="cls-20" d="M42.92,107.81s12.5,5.63,3.3,15.41-10-7.71-10-7.71Z"/><path class="cls-11" d="M43.32,115.71l9.83,11.9L69.81,113l3.51,3.29s-9.19,15.44-17.89,22.19a4.33,4.33,0,0,1-5.19.05c-3.18-2.3-8.94-7.21-15.36-16.28Z"/><path class="cls-20" d="M46.16,118.79l-12,11.86-6.52-8.35a8.27,8.27,0,0,1,.95-11.21h0a8.27,8.27,0,0,1,12.19,1.19Z"/><path class="cls-11" d="M69.81,113l3.51,3.29,6.79-5.63s-6.79-5.32-6.77-5.19S69.81,113,69.81,113Z"/><path class="cls-11" d="M69.81,113c.22-.35.12-5.44.24-7.17a.72.72,0,0,1,.88-.63h0a.66.66,0,0,1,.55.53l.71,3.9Z"/><path class="cls-11" d="M73.34,105.43l1.76-2.76a.82.82,0,0,1,1.12-.24h0a.71.71,0,0,1,.24.94l-2.36,4.26Z"/><path class="cls-11" d="M75.05,106.7l3.09-3.37a.82.82,0,0,1,1.12-.08h0a.72.72,0,0,1,.11,1l-3.25,4.46Z"/><path class="cls-11" d="M76.65,108.38l3.14-2.81a.88.88,0,0,1,1.21,0h0a.77.77,0,0,1,0,1.1L77.7,110Z"/><path class="cls-11" d="M80.11,110.62l1.83-1.72a.63.63,0,0,0,0-.9h0a.72.72,0,0,0-.91-.09L77.7,110Z"/><path class="cls-6" d="M294.74,64.59H324.3a1.51,1.51,0,0,1,1.51,1.51v14.6a1.51,1.51,0,0,1-1.51,1.51H293.23a0,0,0,0,1,0,0V66.1A1.51,1.51,0,0,1,294.74,64.59Z"/><polygon class="cls-6" points="293.23 78.56 293.2 86.34 299.85 78.58 293.23 78.56"/><path class="cls-4" d="M315,73.2a1.47,1.47,0,0,0,1.46,1.47,1.47,1.47,0,1,0,0-2.94A1.47,1.47,0,0,0,315,73.2Z"/><path class="cls-4" d="M308.72,73.18a1.47,1.47,0,1,0,1.47-1.47A1.47,1.47,0,0,0,308.72,73.18Z"/><path class="cls-4" d="M302.43,73.16a1.47,1.47,0,1,0,1.47-1.47A1.47,1.47,0,0,0,302.43,73.16Z"/><rect class="cls-6" x="133.68" width="77.45" height="21.25" rx="1.38"/><line class="cls-19" x1="141.74" y1="8.08" x2="194.16" y2="8.08"/><line class="cls-19" x1="141.74" y1="13.17" x2="158.33" y2="13.17"/><polygon class="cls-6" points="141.74 18.84 141.74 28.64 152.16 18.84 141.74 18.84"/><g id="_2wrnD5" data-name="2wrnD5"><path class="cls-7" d="M213.6,86.89,201.51,99.28a65.26,65.26,0,0,0-6.95-4.23c-11.93-5.42-25.94-.9-33.08,10.53-9.48,15.16-1.88,35.55,15.31,40.47,9,2.58,17.52,1.11,24.85-5.08a19.87,19.87,0,0,0,6.54-11.41,3.37,3.37,0,0,0,0-.59H184.07V111.78c.32,0,.66-.07,1-.07q19.89,0,39.79,0c.78,0,1.09.2,1.23,1,2.88,17-3.31,34.62-18.4,44.65a41.83,41.83,0,0,1-20.58,6.93A44.15,44.15,0,0,1,140.28,128a44.39,44.39,0,0,1,73.21-41.3C213.56,86.81,213.62,86.9,213.6,86.89Z"/></g><path class="cls-14" d="M238.37,59.44a5.92,5.92,0,0,1,6.14,5,4.57,4.57,0,0,1,2.51-.9c2.54-.12,4.64,1,5.25,3.51,14.61-1.58.91,19.9.91,19.9l-1.11-8.28-.4-9.28a4.6,4.6,0,0,1-8.81.14,5.93,5.93,0,1,1-4.49-10.09Z"/><path class="cls-21" d="M253.89,80.18l-.32,16.31a5.49,5.49,0,0,1-5.23,5.38h0a5.51,5.51,0,0,1-5.77-5.4l-.24-13.69Z"/><path class="cls-14" d="M252.76,84s0,10.7-10.23,9.4l-.09-4.92Z"/><path class="cls-21" d="M244.77,90.81h.34a9,9,0,0,0,9-9V71.62a2.33,2.33,0,0,0-2.33-2.33H239.94a4.17,4.17,0,0,0-4.17,4.16v8.35A9,9,0,0,0,244.77,90.81Z"/><path class="cls-14" d="M244.71,78.9a.73.73,0,1,0,.67-.79A.73.73,0,0,0,244.71,78.9Z"/><path class="cls-14" d="M237.4,78.91a.73.73,0,1,0,.67-.79A.73.73,0,0,0,237.4,78.91Z"/><path class="cls-22" d="M240.31,79.59l-.24,1.76s.13,1.11,1.71.68"/><path class="cls-14" d="M247.38,76h-.14l-3.33-.12a.68.68,0,1,1,.05-1.35l3.33.13a.67.67,0,0,1,.09,1.33Z"/><path class="cls-14" d="M238.78,75.93h-.14l-2-.08a.67.67,0,1,1,0-1.34l2,.07a.67.67,0,0,1,.65.7A.66.66,0,0,1,238.78,75.93Z"/><path class="cls-4" d="M239.34,84H245s-.19,1.72-3,1.64C239.48,85.53,239.34,84,239.34,84Z"/><path class="cls-14" d="M253.89,80.18s-5.17-1.18-4.19-9l-13.09-.23.32-3.19,14.52.2a3.52,3.52,0,0,1,3.46,3.88Z"/><path class="cls-21" d="M252.07,79.93A2.9,2.9,0,1,0,255,77,2.9,2.9,0,0,0,252.07,79.93Z"/><polygon class="cls-21" points="259.29 251.67 269.27 251.67 267.86 237.76 257.89 237.76 259.29 251.67"/><path class="cls-14" d="M269.27,250.06H256.61l-10.52,4.41a6.28,6.28,0,0,0-3.41,5.58h28.18Z"/><path class="cls-14" d="M255.58,250.53l2.85-3.86s4.46-.81,4.07,4Z"/><path class="cls-23" d="M265.06,144.47s2.84,8.22,2,21.43l5.27,75.67H253.53L247.43,186l-2.7-41.66Z"/><rect class="cls-21" x="230.84" y="233.9" width="9.98" height="13.49" transform="translate(517.87 424.97) rotate(167.59)"/><path class="cls-14" d="M241.8,244.58l-12.35,2.72-9.34,6.57a6.25,6.25,0,0,0-2.12,6.18h0l26.74-5.89Z"/><path class="cls-14" d="M228.54,248l2-4.38s4.18-1.75,4.84,3.06Z"/><path class="cls-23" d="M231.38,145.28l-17.81,44.57a10.39,10.39,0,0,0-.59,6.3l13,43.64,18.66-3.94-11.1-40.69,24.33-49.95Z"/><path class="cls-24" d="M246.33,169l-.18-9.91s-8.36,15.74-10.41,31.65Z"/><path class="cls-25" d="M232.4,98.08s-7.51,3.79-6.87,30l10.16.64-1.29-28.11Z"/><path class="cls-3" d="M248.23,95.74l-14.66,1.88c-2.63.35-3.9,4.56-3.74,6.17l1.55,41.49,33.87-.09,3.18-40.46c.42-3.28-1.57-7.18-4.57-7.25Z"/><path class="cls-21" d="M241.34,96.62l6.89-1.26,7.54,1.22s-.66,6.28-10.14,5.16a6.75,6.75,0,0,1-3.78-1.57C240.89,99.3,240.55,98.34,241.34,96.62Z"/><polygon class="cls-25" points="266.86 123.84 259.42 112.03 259.42 137.99 266.86 123.84"/><rect class="cls-6" x="208.71" y="119.38" width="110.51" height="48.34" rx="3.91"/><line class="cls-19" x1="222.28" y1="133.05" x2="305.55" y2="133.05"/><line class="cls-19" x1="222.28" y1="142.4" x2="270.26" y2="142.4"/><line class="cls-19" x1="240.75" y1="152.93" x2="253.7" y2="152.93"/><line class="cls-19" x1="222.28" y1="152.93" x2="233.49" y2="152.93"/><path class="cls-3" d="M254.93,105.28s9.19,13.61,17.38,27.61c.92,1.56,3.32,2.51,5.14,2.59h0c4.09.18,6.2-4.07,5-7.78,0,0-14.23-28.43-16-29.08C266.15,98.52,254.93,105.28,254.93,105.28Z"/><polygon class="cls-21" points="274.03 162.87 274.27 156.27 281.73 156.7 281.48 162.87 274.03 162.87"/><path class="cls-21" d="M275.52,160.51a6.38,6.38,0,1,1-4.89,7.58A6.38,6.38,0,0,1,275.52,160.51Z"/><path class="cls-3" d="M271.54,131.82l.59,25.63,12-.67-.93-26.62a5.89,5.89,0,0,0-8.06-4.58h0A5.87,5.87,0,0,0,271.54,131.82Z"/><ellipse id="_Path_" data-name="&lt;Path&gt;" class="cls-26" cx="67.55" cy="258.13" rx="67.55" ry="6.56"/><ellipse id="_Path_2" data-name="&lt;Path&gt;" class="cls-26" cx="258.29" cy="260.2" rx="64.45" ry="5.53"/></g></g></g></svg>