<svg xmlns="http://www.w3.org/2000/svg" xmlns:xlink="http://www.w3.org/1999/xlink" viewBox="0 0 335.17 225.55"><defs><style>.cls-1{fill:none;}.cls-2{isolation:isolate;}.cls-3{fill:#46c7ce;opacity:0.25;}.cls-4{fill:#eaeaea;mix-blend-mode:multiply;}.cls-5{fill:#a9a9a9;}.cls-6{fill:#fff;}.cls-7{fill:#9b5c29;}.cls-8{fill:#dcdcdc;}.cls-9{fill:#77cbda;}.cls-10{fill:#549893;}.cls-11{fill:#db5045;}.cls-12{fill:#f8a7af;}.cls-13{fill:#ffd371;}.cls-14{fill:#1b9e76;}.cls-15{clip-path:url(#clip-path);}.cls-16{fill:#894021;}.cls-17{fill:#1e1b1b;}.cls-18{fill:#f5ae30;}.cls-19{fill:#6d3016;}.cls-20{clip-path:url(#clip-path-2);}.cls-21{fill:#2b3c7b;}.cls-22{fill:#f6a684;}.cls-23{fill:#e38b66;}.cls-24{clip-path:url(#clip-path-3);}.cls-25{fill:#fdcdb9;}.cls-26{fill:#ded6d3;}.cls-27{fill:#f7b5a8;}.cls-28{clip-path:url(#clip-path-4);}.cls-29{fill:#f8c649;}.cls-30{fill:#a1ace0;}.cls-31{clip-path:url(#clip-path-5);}.cls-32{fill:#23a398;}.cls-33{clip-path:url(#clip-path-6);}.cls-34{fill:#d87432;}.cls-35{fill:#be572c;}.cls-36{fill:#8abef9;}.cls-37{fill:#19172f;}.cls-38{fill:#538ad0;}.cls-39{fill:#f5f5f5;}.cls-40{fill:#fa8119;}.cls-41{fill:#ffb940;}.cls-42{fill:#ffa41c;}</style><clipPath id="clip-path"><rect class="cls-1" x="194.66" y="96.73" width="62.21" height="58.23"/></clipPath><clipPath id="clip-path-2"><rect class="cls-1" x="194.66" y="38.5" width="62.21" height="58.23"/></clipPath><clipPath id="clip-path-3"><rect class="cls-1" x="132.45" y="38.5" width="62.21" height="58.23"/></clipPath><clipPath id="clip-path-4"><rect class="cls-1" x="70.24" y="96.73" width="62.21" height="58.23"/></clipPath><clipPath id="clip-path-5"><rect class="cls-1" x="132.45" y="96.73" width="62.21" height="58.23"/></clipPath><clipPath id="clip-path-6"><rect class="cls-1" x="70.24" y="38.5" width="62.21" height="58.23"/></clipPath></defs><g class="cls-2"><g id="Layer_2" data-name="Layer 2"><g id="Option_1" data-name="Option 1"><path class="cls-3" d="M189.48,225.49c86.83,2.71,176.58-90.7,135.37-147.85-32-44.33-86.1-23.94-125.48-45.76C126.92-8.27,24.55-16.06,4.69,41.13s28.1,125.66,55.74,149.76C99.4,224.88,189.48,225.49,189.48,225.49Z"/><ellipse id="_Path_" data-name="&lt;Path&gt;" class="cls-4" cx="158.78" cy="185.37" rx="136.9" ry="30.52"/><rect class="cls-5" x="66.65" y="159.29" width="28.35" height="5.35"/><rect class="cls-5" x="230.67" y="159.29" width="28.35" height="5.35"/><rect class="cls-6" x="59.91" y="28.94" width="205.86" height="132.62" rx="7.43"/><rect class="cls-6" x="68.8" y="37.01" width="188.07" height="116.47"/><rect class="cls-7" x="68.8" y="37.01" width="188.07" height="117.95"/><rect class="cls-6" x="70.24" y="38.5" width="186.63" height="116.47"/><path class="cls-6" d="M281.36,191.78l-13-24.3a8.47,8.47,0,0,0-2.55-2.84,5.65,5.65,0,0,0-3.11-1.18H64.55a6,6,0,0,0-3.18,1.18,9.12,9.12,0,0,0-2.69,2.84l-14.26,24.3a4,4,0,0,0-.64,2,1.9,1.9,0,0,0,.64,1.49,2.63,2.63,0,0,0,1.78.56H279.36a2.79,2.79,0,0,0,1.87-.6,2.08,2.08,0,0,0,.66-1.59A4,4,0,0,0,281.36,191.78Z"/><path class="cls-5" d="M281.89,195.18a3.69,3.69,0,0,1-3.69,3.69H47.48a3.7,3.7,0,0,1-3.7-3.69h0a3.7,3.7,0,0,1,3.7-3.7H278.2a3.7,3.7,0,0,1,3.69,3.7Z"/><path class="cls-8" d="M133.13,191.48V192a3.71,3.71,0,0,0,3.71,3.71h52a3.71,3.71,0,0,0,3.71-3.71v-.48Z"/><polygon class="cls-5" points="268.82 178.24 56.85 178.24 64.6 166.61 261.78 166.51 268.82 178.24"/><polygon class="cls-5" points="199.99 188.37 195.47 180.83 173.53 180.84 173.53 180.83 130.67 180.85 125.69 188.32 172.78 188.32 172.78 188.37 199.99 188.37"/><path class="cls-7" d="M95,191.48l6.33-.06,7.27,0c2.8,0,6-.05,9.42-.06l23.59-.1,13.3,0h27.48l13.3,0,12.44,0,11.15.05c3.45,0,6.62,0,9.42.06l7.27,0,6.33.06-6.33.06-7.27.06c-2.8,0-6,.05-9.42.06l-11.15.05-12.44,0-13.3,0H154.91l-13.3,0-23.59-.1c-3.45,0-6.62,0-9.42-.06l-7.27-.06Z"/><rect class="cls-9" x="70.24" y="38.5" width="62.21" height="58.23"/><rect class="cls-10" x="70.24" y="96.73" width="62.21" height="58.23"/><rect class="cls-11" x="132.45" y="38.5" width="62.21" height="58.23"/><rect class="cls-12" x="132.45" y="96.73" width="62.21" height="58.23"/><rect class="cls-13" x="194.66" y="38.5" width="62.21" height="58.23"/><rect class="cls-14" x="194.66" y="96.73" width="62.21" height="58.23"/><g class="cls-15"><path class="cls-16" d="M204.61,136.93s-1.53,18.45-11.45,25.26l4.26,6.19s10.44-6.15,18.59-28.67Z"/><path class="cls-17" d="M203.89,141.76s-2.23,15.78-12.54,21.86C191.35,163.62,200.08,158.39,203.89,141.76Z"/><path class="cls-18" d="M209.73,123.32c4.11-.7,18.64,1.54,21.08,2.11s13.4,3.79,15.35,5.64c1.2,1.14-5.08,4.55-3.45,45.36,0,1.08-19.64,4.22-35.61-.53C205.58,175.45,211.29,133.77,209.73,123.32Z"/><path class="cls-16" d="M241.62,135.22c-.32.82-.61,1.64-.91,2.47-.73,2-1.36,4-2,6-.72,2.48-1.4,4.94-2,7.45a15.77,15.77,0,0,0-.7,5.23c.41,3.7,5.48,5.38,7.95,3.36,1.42-1.16,2.39-3.95,2.54-5.69s.31-3.66.48-5.49c.24-2.69.55-5.38.82-8.06l.18-1.72Z"/><path class="cls-18" d="M234.16,147.74c0-3.29.15-6.58.09-9.86a13.89,13.89,0,0,1,.51-4.63,5.55,5.55,0,0,1,3.35-3.2c2.39-.81,6.38-.64,8.28,1.21a5.39,5.39,0,0,1,1.25,1.87,7.62,7.62,0,0,1,.55,2.49l-.16,12.3Z"/><path class="cls-18" d="M203.19,140.22c.53-3.24,1.12-6.48,1.56-9.74a13.74,13.74,0,0,1,1.18-4.5,5.55,5.55,0,0,1,3.8-2.66c2.48-.45,6.4.31,8,2.42a5.64,5.64,0,0,1,.95,2,7.31,7.31,0,0,1,.17,2.55l-2,12.14Z"/><rect class="cls-16" x="224.78" y="118.77" width="6.51" height="8.24" transform="translate(86.34 339.73) rotate(-85.16)"/><path class="cls-16" d="M232.11,123.29s-.12,1-.12,1.12c-.1,1,.08,2.12-.59,3a5,5,0,0,1-2.75,1.47c-1.51.35-3.94.62-4.72-1a3.51,3.51,0,0,1-.33-1.41c0-.7.08-1.39.12-2.09a2,2,0,0,1,.24-1c.17-.28,1,.4,1.1.09s0-.52.46-.67c.23-.08.53-.06.77-.12a9.22,9.22,0,0,1,3.1,0A17,17,0,0,1,232.11,123.29Z"/><path class="cls-17" d="M225.61,102.32c.19.11.19.69.48.66s.4-.72.57-.94a.91.91,0,0,1,1.41-.12c.26.26.42,1,.88.63.26-.21.26-.61.49-.84a.82.82,0,0,1,1.06,0,2.82,2.82,0,0,1,.61,1c.14.27.4.47.61.18s-.06-.82.25-1.16c.59-.66,1.63-.13,2.12.26,1.92,1.54,2.32,5.63,2.24,8.37,0,.86-.11,1.72-.21,2.57a13.42,13.42,0,0,1-.81,3.88c-.68,1.53-2.28,2-3.68,2.45-3,.88-4.93,2.12-7.13-.56a8.31,8.31,0,0,1-1.85-4.37,45.89,45.89,0,0,1-.12-8.37S222.63,100.45,225.61,102.32Z"/><path class="cls-19" d="M230.44,121s-1.38,3.81-6.7,3.78l.37-4.37Z"/><path class="cls-16" d="M222.22,115.55c0,1.86.08,3.92,1.28,5.45,1.85,2.37,5.56,2,7.83.49a7.81,7.81,0,0,0,2-1.8,9.81,9.81,0,0,0,1.74-5.28c.07-2,.05-4.06-1.24-5.36s-3.47-1-5.47-.77c-1.25.11-3.12-.4-4.38-.21-1.71.26-1.54,2.93-1.64,4.15S222.2,114.44,222.22,115.55Z"/><path class="cls-16" d="M233.65,116.56a5,5,0,0,1,.33-.8c.1-.2.22-.39.32-.6a3.88,3.88,0,0,1,.42-.81,1.44,1.44,0,0,1,.39-.35,1.36,1.36,0,0,1,.45-.12,1.33,1.33,0,0,1,.83.16l.09.07,0,0a1,1,0,0,1,.43.94,3.08,3.08,0,0,1-.48,1.1c-.21.39-.38.81-.61,1.19a1.86,1.86,0,0,1-1.11,1,1.11,1.11,0,0,1-.79-.19,1,1,0,0,1-.42-.76A2.11,2.11,0,0,1,233.65,116.56Z"/><path class="cls-17" d="M230.63,112.45l-.13,0a2.85,2.85,0,0,1-.74.18c-.34,0-.55-.19-.38-.55.36-.72,1.32-.55,1.93-.34a5.67,5.67,0,0,1,1.06.49c.17.1.48.52.1.6s-.81-.2-1.21-.34A1.51,1.51,0,0,0,230.63,112.45Z"/><path class="cls-17" d="M225.3,111.56l.12,0a2.39,2.39,0,0,0,.73.23c.34,0,.56-.15.41-.52-.3-.74-1.27-.64-1.9-.47a5.5,5.5,0,0,0-1.09.4c-.17.09-.52.49-.14.59s.82-.14,1.23-.25A1.53,1.53,0,0,1,225.3,111.56Z"/><path class="cls-17" d="M230.08,113.77c0,.36.14.65.35.66s.4-.27.42-.62-.14-.64-.35-.65S230.09,113.42,230.08,113.77Z"/><path class="cls-17" d="M225,113.09c0,.35.15.65.36.66s.4-.27.42-.62-.14-.65-.36-.66S225,112.74,225,113.09Z"/><path class="cls-17" d="M227.8,112.85a3.34,3.34,0,0,1-.07,1.66,5.53,5.53,0,0,1-.82,1.67c-.11.16-.34.29-.28.49s.52.43.83.46c.15,0,.12.25,0,.23-.46,0-1-.22-1.05-.73,0-.19.11-.29.22-.43a5.68,5.68,0,0,0,.66-1.08,3.89,3.89,0,0,0,.37-1.57,2.26,2.26,0,0,0,0-.45,1.08,1.08,0,0,0,0-.16C227.54,112.79,227.76,112.7,227.8,112.85Z"/><path class="cls-17" d="M234.33,109.68s1.46,2.51-.8,6l1.06-.31s.07-1.77,1.42-1.49C236,113.87,235.45,109.77,234.33,109.68Z"/><path class="cls-17" d="M236.09,115.82c-.25.61-1.11,2.42-2,1.62-.08-.07,0-.19.11-.12.71.66,1.5-1.06,1.7-1.54C236,115.68,236.13,115.73,236.09,115.82Z"/><path class="cls-6" d="M226.59,119.43a15.69,15.69,0,0,0,2.15.29c-.13.49-1.15.7-2.31.47s-2-.81-2-1.31A16.65,16.65,0,0,0,226.59,119.43Z"/><path class="cls-19" d="M226.78,108.22c-.23,0,.44.19.66.24a15.83,15.83,0,0,0,4.07.07,2.9,2.9,0,0,1,3,2.69,5.69,5.69,0,0,1,0,1,11.2,11.2,0,0,1-1,3.44s3.16-4,.05-6.84c0,0-1.05-1.13-4-.66C229.57,108.17,227.37,108.29,226.78,108.22Z"/><path class="cls-17" d="M234.17,118.22a.23.23,0,0,1,0,.07l-.09.18a2,2,0,0,1-.15.28c-.06.11-.14.22-.21.34l-.14.19-.15.2-.17.21-.18.2a10,10,0,0,1-2.82,2.1c-.25.13-.5.24-.75.36.61-.31,1.25-.52,1.84-.87a1.94,1.94,0,0,0,.24-.15,7.78,7.78,0,0,0,2.19-2.2c.07-.13.14-.25.19-.36s.1-.21.14-.29a1.3,1.3,0,0,0,.06-.19A.17.17,0,0,0,234.17,118.22Z"/><path class="cls-17" d="M232.33,120.68c-.05.47-.09.93-.14,1.39s-.08.93-.13,1.39-.09.92-.12,1.38l-.12,1.39h0a1.76,1.76,0,0,1-.15.44,3.86,3.86,0,0,1-2.47,2.08,7.13,7.13,0,0,1-1.89.32c-.32,0-.64,0-1,0l-.49,0-.48,0c.16,0,.32.05.48.06l.48.05.49,0h.48l.49,0,.48-.06a4.48,4.48,0,0,0,3.28-1.9,3.68,3.68,0,0,0,.23-.44,2.35,2.35,0,0,0,.15-.47h0l.11-1.39c0-.46.07-.92.1-1.39s.07-.92.1-1.39S232.31,121.15,232.33,120.68Z"/><path class="cls-17" d="M232.35,125.83l2.49.92,2.5.91,2.5.9,1.25.44c.42.15.84.29,1.25.45s.83.31,1.23.48.79.37,1.17.57c.19.11.38.22.55.34a6.28,6.28,0,0,1,.52.38,5.47,5.47,0,0,1,.9.9l.1.12.09.13.18.27.15.27c.05.1.11.19.15.29a5.19,5.19,0,0,1,.24.59l.1.29.09.32a7.36,7.36,0,0,1,.16,1.26,6.82,6.82,0,0,1-.06,1.28v0h0c0,.91,0,1.83,0,2.74l0,2.73,0,1.37v4.1l.22-.22H241.5l-3.26,0-1.63,0-1.63,0,1.63.07,1.63.05,3.26.11,3.26.08,3.27.08h.22v-.23l.06-2.74,0-1.36,0-1.37,0-2.74c0-.91,0-1.82,0-2.73v0a9,9,0,0,0,0-1.37,7.15,7.15,0,0,0-.18-1.37l-.09-.32-.12-.33c-.07-.22-.17-.43-.26-.64s-.11-.21-.16-.31-.11-.2-.18-.3l-.19-.28-.1-.14-.11-.13a6.05,6.05,0,0,0-1-1c-.18-.13-.36-.27-.56-.39s-.39-.24-.58-.35q-.6-.31-1.23-.57c-.41-.17-.84-.32-1.26-.46s-.84-.29-1.26-.42l-1.26-.41-2.53-.82-2.53-.8Z"/><path class="cls-17" d="M242.71,176.43A66.33,66.33,0,0,1,218,178a60.07,60.07,0,0,0,24.68-1Z"/><path class="cls-16" d="M220.91,147.28c.61.64,8.66,10.36,10.67,12a15.65,15.65,0,0,0,4.43,2.86c3.52,1.2,6.53-.35,9-3.61,1.11-1.46-5.15-6-6.66-6.88l-4.76-2.76c-2.34-1.37-4.64-2.79-7-4.18l-1.48-.89Z"/><path class="cls-17" d="M228.9,146.05l12,7.1A100.09,100.09,0,0,1,228.9,146.05Z"/><path class="cls-17" d="M209.9,133.63l-3,38.62S209.67,146,209.9,133.63Z"/><path class="cls-16" d="M226.94,138a.62.62,0,0,0-.43-.25c-.37,0-.65.53-.82.81a6.75,6.75,0,0,0-.66,1.35,3.84,3.84,0,0,1-.54,1.39.2.2,0,0,1-.26.06c-.4-.29-2-5.74-2.57-7.45a.86.86,0,0,0-1.63.52c.51,1.61,1.67,5.33,1.73,5.59s0,.42-.14.46-.35-.4-.41-.53-.19-.44-.3-.65l-.73-1.56-.72-1.64c-.2-.44-.4-.88-.59-1.33a.69.69,0,0,0-.05-.13.87.87,0,0,0-1.08-.55.85.85,0,0,0-.55,1.07c.34.8,2.5,5.19,2.57,5.34s.1.15.13.23-.16.17-.23.13-2.26-2.7-2.82-3.48l-.64-.92a.76.76,0,1,0-1.24.85c.65,1,3.24,4,3.37,4.19s-.06.63-.33.48a4.59,4.59,0,0,1-.72-.6,19.81,19.81,0,0,1-1.95-2.15,2,2,0,0,0-1.05-.75.58.58,0,0,0-.72.51,1.51,1.51,0,0,0,.38.84c.09.12.19.24.29.35.5.57,3.36,4.08,4.43,5.14a21.41,21.41,0,0,0,1.89,1.68c.69.55,1.32,1.15,2,1.68a3.19,3.19,0,0,0,1.61.8.19.19,0,0,0,.09,0,3.31,3.31,0,0,0,2-.9,5.21,5.21,0,0,0,1.55-1.16c.26-.38,1.86.82,1.6.48-2.4-3.18-2.95-4.55-3-6.17a11.87,11.87,0,0,1,.58-2.56A1.66,1.66,0,0,0,226.94,138Z"/></g><g class="cls-20"><path class="cls-21" d="M236,63.49c.09-.35.18-.69.26-1a7.39,7.39,0,0,0-.27-3.3c-.32-1.35.14-2.7,0-4.06a7.94,7.94,0,0,0-.75-2.33,8.8,8.8,0,0,0-3.34-3.53c-2.66-1.68-6.58-1.85-9.61-1.29a8.78,8.78,0,0,0-5,3A11.08,11.08,0,0,0,214.89,54c-.82,2,.09,4.13-.56,6.12a15.36,15.36,0,0,0-.72,3.17,14.5,14.5,0,0,0,.6,3.54c1,4.74,3.3,2.41,4.46,2.64s4.25.94,5.49.61a7.22,7.22,0,0,1,3.74.3,3.29,3.29,0,0,0,1.58.17c1-.22,1.84-.93,2.87-1.11a4.68,4.68,0,0,1,1.4-.1c.5.06,1.14.3,1.6,0s.31-.72.3-1.07c0-.82.11-1.64.13-2.46A10.78,10.78,0,0,1,236,63.49Z"/><path class="cls-21" d="M218.41,70a23.28,23.28,0,0,1,11.9,0L230,72,219,72.9l-.55-2.83"/><rect class="cls-22" x="221.65" y="60.44" width="5.79" height="10.4"/><path class="cls-22" d="M218.7,70.61s9.72-.68,11.56.2l-2,5h-7.62Z"/><path class="cls-12" d="M212.48,113.34l22.83-.42-3.68-41.23h-2.78c-.46,1.27-2.3,2.22-4.51,2.22s-4-1-4.51-2.22H216.9Z"/><path class="cls-11" d="M230.08,70.64s4.1,1.21,4.32,1.31a10.63,10.63,0,0,1,6.21,7.55A81.6,81.6,0,0,1,242.28,99a39.87,39.87,0,0,0,.63,8.38c.65,3.49.25,11.18-4.49,11.28-.3,0-9.64-.88-11.13-22.56-.18-2.7-.74-8.27-.6-10.83C227.22,75.59,230.09,70.66,230.08,70.64Z"/><path class="cls-11" d="M218.88,70.64s-4.1,1.21-4.31,1.31a10.63,10.63,0,0,0-6.21,7.55c-1.11,4.74-1.22,9.62-1.46,14.45-.2,4.3-1.17,8.43-1.52,12.69-.28,3.34.55,11,4.89,11.12.31,0,2.18-2.63,2.22-2.68,1.31-1.52,8.39-19.8,9.6-30.71C223.15,74.86,218.88,70.66,218.88,70.64Z"/><path class="cls-17" d="M220.71,72.9a6.49,6.49,0,0,0,5.06.87s-3.62.27-5.25-1.52Z"/><path class="cls-23" d="M223.6,73.66a3.84,3.84,0,0,0,3.85-3.26l2.12.1A4.83,4.83,0,0,1,223.6,73.66Z"/><path class="cls-11" d="M231,70.5s4.67,5.74-.37,8.15c0,0,.64,4.64-3.92,5.75C226.69,84.4,227.38,66.35,231,70.5Z"/><path class="cls-17" d="M230.26,70.5c2,2.3,2.9,5.72.13,7.75C233.31,76.33,232.41,72.71,230.26,70.5Z"/><path class="cls-17" d="M230.07,79a5.39,5.39,0,0,1-2.84,4.72A4.83,4.83,0,0,0,230.07,79Z"/><path class="cls-11" d="M217.8,70.47s-4.66,5.74.38,8.15c0,0-.64,4.64,3.91,5.75C222.09,84.37,221.41,66.32,217.8,70.47Z"/><path class="cls-17" d="M218.53,70.47c-2,2.3-2.9,5.72-.14,7.75C215.48,76.29,216.38,72.68,218.53,70.47Z"/><path class="cls-17" d="M218.71,78.94a5.41,5.41,0,0,0,2.84,4.72A4.84,4.84,0,0,1,218.71,78.94Z"/><path class="cls-17" d="M217.36,71.09l-.18.33-.19.38c-.07.15-.14.32-.22.51s-.16.39-.23.61-.14.44-.21.68a6.58,6.58,0,0,0-.14.75,5.11,5.11,0,0,0-.05.78c0,.13,0,.26,0,.39a1.23,1.23,0,0,1,0,.19,1.29,1.29,0,0,1,0,.19l0,.09,0,.09,0,.18c0,.12.09.24.13.35s.1.22.16.32a3,3,0,0,0,.18.3l.19.26.2.24c.06.08.14.14.2.21l.19.18.17.15.08.06.07.06.3.23-.34-.17-.09,0-.08,0-.2-.13a1.12,1.12,0,0,1-.22-.16,1.3,1.3,0,0,1-.23-.18l-.24-.23c-.08-.08-.15-.17-.23-.26a3.46,3.46,0,0,1-.22-.31,1.4,1.4,0,0,1-.1-.16l-.09-.18c-.06-.12-.11-.24-.16-.37s-.09-.26-.12-.4,0-.14,0-.21l0-.21c0-.14,0-.28,0-.42a5.73,5.73,0,0,1,.06-.84,4.8,4.8,0,0,1,.19-.79c.08-.25.17-.48.26-.7l.15-.31.15-.29c.1-.18.2-.34.29-.48l.26-.35A2.78,2.78,0,0,1,217.36,71.09Z"/><path class="cls-17" d="M229.88,69.89H230a1.4,1.4,0,0,1,.33.08,1.58,1.58,0,0,1,.23.11l.12.07.11.1a3.23,3.23,0,0,1,.49.49,3.79,3.79,0,0,1,.47.67,6.27,6.27,0,0,1,.41.82c.12.3.22.6.32.92s.17.65.24,1a2,2,0,0,1,.05.24v.06l0,.07,0,.12c0,.17,0,.34.05.51a4.06,4.06,0,0,1-.07,1,4.37,4.37,0,0,1-.27.89,1.88,1.88,0,0,1-.47.69,6.14,6.14,0,0,1-.53.44c-.17.12-.32.21-.45.29l-.3.15-.11.05.1-.06.28-.19a4.56,4.56,0,0,0,.41-.33c.15-.13.31-.29.49-.47a1.85,1.85,0,0,0,.38-.66,4.22,4.22,0,0,0,.22-.85,4,4,0,0,0,0-.92c0-.16,0-.32-.05-.48l0-.12v-.06l0-.06-.05-.24c-.07-.33-.14-.65-.23-1s-.18-.62-.28-.91a7.59,7.59,0,0,0-.36-.81,4.9,4.9,0,0,0-.41-.68,3.83,3.83,0,0,0-.43-.51l-.11-.1a.39.39,0,0,0-.1-.08l-.2-.12a1.31,1.31,0,0,0-.32-.12s-.07,0-.09,0Z"/><path class="cls-17" d="M231.48,71.13s8.43.52,9.55,10.58C241,81.71,240.27,72.83,231.48,71.13Z"/><path class="cls-17" d="M242.26,93.94l.13,9.49A61.49,61.49,0,0,1,242.26,93.94Z"/><path class="cls-23" d="M227.45,68.44c.05-1.81.14-4.12.14-4.12l-4.69.17a4.26,4.26,0,0,0-1,2.09C223.42,68.26,225.26,68.6,227.45,68.44Z"/><path class="cls-22" d="M230.82,59.83c0,3.29-3.12,7.78-6.27,7.78s-6.32-4.42-6.32-7.78a6.3,6.3,0,1,1,12.59,0Z"/><path class="cls-23" d="M224.17,59.37a4.69,4.69,0,0,1,.08.84c0,.1,0,.2,0,.3a2.68,2.68,0,0,1-.17.85c0,.13-.13.27-.19.42a1.17,1.17,0,0,0-.09.24,1,1,0,0,0,0,.25,1.09,1.09,0,0,0,0,.24.92.92,0,0,0,.14.26.81.81,0,0,0,.34.24,1.15,1.15,0,0,0,.41.08.1.1,0,0,0,.1-.09.09.09,0,0,0-.09-.09.88.88,0,0,1-.45-.12.42.42,0,0,1-.16-.13.53.53,0,0,1-.11-.21.57.57,0,0,1,0-.18.76.76,0,0,1,0-.21,1.51,1.51,0,0,1,.12-.31,3.13,3.13,0,0,0,.15-.32,2.89,2.89,0,0,0,.18-.91c0-.1,0-.21,0-.31a6.52,6.52,0,0,0-.07-.88.09.09,0,0,0-.11-.07.11.11,0,0,0-.08.11Z"/><path class="cls-17" d="M221.9,59.6c0,.28-.17.51-.37.51s-.38-.23-.38-.51.17-.51.38-.51S221.9,59.31,221.9,59.6Z"/><path class="cls-17" d="M222,57.67a3.48,3.48,0,0,0-1.14.21,4.66,4.66,0,0,0-.6.28c-.18.12-.36.24-.56.35a.11.11,0,0,0-.06.14.12.12,0,0,0,.05.05.11.11,0,0,0,.08,0,6.53,6.53,0,0,0,1.14-.35A4.79,4.79,0,0,1,222,58.2c.18,0,.58,0,.54-.29S222.2,57.67,222,57.67Z"/><path class="cls-17" d="M226.54,59.6c0,.28.17.51.38.51s.37-.23.37-.51-.16-.51-.37-.51S226.54,59.31,226.54,59.6Z"/><path class="cls-17" d="M226.41,57.67a3.43,3.43,0,0,1,1.14.21,4.11,4.11,0,0,1,.6.28l.56.35a.1.1,0,0,1,.06.14.1.1,0,0,1,0,.05.12.12,0,0,1-.09,0,6.8,6.8,0,0,1-1.14-.35,4.79,4.79,0,0,0-1.07-.18c-.18,0-.57,0-.54-.29S226.24,57.67,226.41,57.67Z"/><path class="cls-6" d="M222.66,64.22a8.17,8.17,0,0,0,3.89.1,2.74,2.74,0,0,1-2,1.06A2.34,2.34,0,0,1,222.66,64.22Z"/><path class="cls-22" d="M229.65,60.43c.1.94-.09,1.74.54,1.67s1.94-1.1,1.93-2.05c0-1.24-.63-1.49-1.26-1.43A1.64,1.64,0,0,0,229.65,60.43Z"/><path class="cls-23" d="M230.45,61.3A2.12,2.12,0,0,0,231,61a1.31,1.31,0,0,0,.38-.5v0a1.48,1.48,0,0,0-.07-.46,1,1,0,0,0-.23-.39l-.1-.09,0,0h0a.11.11,0,0,1,0-.15.11.11,0,0,1,.15,0,.92.92,0,0,1,.28.27,1.08,1.08,0,0,1,.14.24,2.19,2.19,0,0,0-.06-.33c0-.06,0-.11,0-.14l0,0h0a.11.11,0,0,1,.06-.15.11.11,0,0,1,.14.06.93.93,0,0,1,.08.22,2.34,2.34,0,0,1,.07.52,2,2,0,0,1,0,.41c0,.06,0,.13-.07.2h0a1.37,1.37,0,0,1-.25.41,2,2,0,0,1-.76.51.11.11,0,0,1-.14-.07A.1.1,0,0,1,230.45,61.3Z"/><path class="cls-23" d="M224.55,52.73s.06.78.07.82A2.41,2.41,0,0,0,226,55.1c.42.2.89.24,1.32.41a2.2,2.2,0,0,1,.87.63c.93,1,1.43,2.29,2.83,2.75a1.49,1.49,0,0,0,.66.08c.06,0,.65-.18.63-.24l-2-4.58Z"/><path class="cls-21" d="M233.91,56.54a5.13,5.13,0,0,0-2.7-4.55,7,7,0,0,0-5.19-.6,1.85,1.85,0,0,0-1.21,2.51c.41,1,1.56,1,2.43,1.2,1.13.28,1.82,1.62,2.29,2.57,2.35,4.72,4.2,5.23,5.48,4.94C236.09,62.37,233.93,57.5,233.91,56.54Z"/><path class="cls-21" d="M225,51.6l-.14,2.26s.12.7-2.19,1a2.81,2.81,0,0,0-2.52,1.62,6.24,6.24,0,0,1-1.42,2.25,2.55,2.55,0,0,1-1.7.66S216.64,52.49,225,51.6Z"/><path class="cls-22" d="M219.16,60.43c-.1.94.09,1.74-.54,1.67s-1.94-1.1-1.93-2.05c0-1.24.63-1.49,1.26-1.43A1.64,1.64,0,0,1,219.16,60.43Z"/><path class="cls-23" d="M218.36,61.3a1.93,1.93,0,0,1-.5-.28,1.31,1.31,0,0,1-.38-.5v0a1.48,1.48,0,0,1,.07-.46.87.87,0,0,1,.23-.39l.1-.09,0,0h0a.11.11,0,0,0,0-.15.11.11,0,0,0-.15,0,.92.92,0,0,0-.28.27,1.08,1.08,0,0,0-.14.24,2.19,2.19,0,0,1,.06-.33.84.84,0,0,1,0-.14l0,0h0a.11.11,0,0,0-.06-.15.12.12,0,0,0-.15.06l-.07.22a2.34,2.34,0,0,0-.07.52,1.48,1.48,0,0,0,0,.41l.06.2h0a1.66,1.66,0,0,0,.26.41,2,2,0,0,0,.76.51.11.11,0,0,0,.14-.07A.1.1,0,0,0,218.36,61.3Z"/><path class="cls-21" d="M230.35,44.73a1.33,1.33,0,0,0-.41-.64,2.74,2.74,0,0,0-1.54-.55c-1.45-.17-4,0-4.85,1.35-.54.86,0,2.13.37,3.08.94,2.56,3.45-.45,4.64-1.19C229.24,46.36,230.59,45.74,230.35,44.73Z"/><path class="cls-12" d="M228.83,48c-.07-.32-.44-.44-.72-.48h0c.25-.18.59-.46.45-.8a.51.51,0,0,0-.42-.27.65.65,0,0,0-.47.25,2.72,2.72,0,0,0-.49.9l0,0a18.12,18.12,0,0,1-3.17-.15.19.19,0,0,0-.19.34,18.75,18.75,0,0,0,3.47.18,1,1,0,0,0,.89.8A.67.67,0,0,0,228.83,48Zm-.73-1.17h0l0,0s0,0,0,0h0v0a.23.23,0,0,1-.09.11,1.44,1.44,0,0,1-.3.24l-.07,0c.05-.09.11-.18.17-.27A.44.44,0,0,1,228.1,46.86Zm.36,1.33s0,.05,0,.07a.3.3,0,0,1-.3.18.68.68,0,0,1-.38-.18.65.65,0,0,1-.17-.34,1.93,1.93,0,0,1,.34,0,1.28,1.28,0,0,1,.32.06l.05,0,.07,0,0,0,0,0v.1Z"/></g><g class="cls-24"><path class="cls-25" d="M151.89,75.41l.34.09c1.91.52,4.49,1.22,6.31.1a3.31,3.31,0,0,0,1.39-2.48,2.72,2.72,0,0,0-.53-1.85,5.69,5.69,0,0,0-3.33-2c-3.32-.88-6.53-2.11-9.9-2.79-1.69-.33-3.62-1-4-2.88-.25-1.32.94-4.85,1.26-6.14.18-.69-.52.75-.33.06.14-.48.26-1,.36-1.46a4.61,4.61,0,0,0,.26-1.4l-3.6-6c-.14.4-1,3.68-1.17,4.16-1.21,3.64-2.92,7.27-3.49,11.08-.25,1.63-.48,3.54.42,5,1.09,1.8,3.27,2.42,5.14,3.07q3.54,1.23,7.13,2.31C149.41,74.71,150.65,75.07,151.89,75.41Z"/><path class="cls-25" d="M149.26,52.07a.5.5,0,0,0,0-.43c-.18-.27-.69-.24-1-.24a5.8,5.8,0,0,0-1.32.14,3.55,3.55,0,0,1-1.28.25.19.19,0,0,1-.16-.18c0-.43,3.33-4.15,4.35-5.35a.75.75,0,0,0-1.14-1c-1,1.13-3.19,3.71-3.36,3.87s-.31.2-.4.11.14-.45.2-.55l.35-.52c.27-.42.54-.85.82-1.26s.58-.87.88-1.3.47-.7.72-1a.61.61,0,0,1,.07-.1.77.77,0,0,0-.09-1.06.74.74,0,0,0-1,.09c-.44.63-2.69,4.26-2.78,4.38a2,2,0,0,1-.11.2c-.07.07-.2,0-.2-.11s1-2.93,1.28-3.71c.13-.3.25-.6.39-.89a.66.66,0,1,0-1.21-.53c-.43.94-1.46,4.25-1.55,4.44s-.5.24-.51,0a4.28,4.28,0,0,1,.11-.8A15.94,15.94,0,0,1,143,44a1.82,1.82,0,0,0,.07-1.13.51.51,0,0,0-.71-.3,1.32,1.32,0,0,0-.45.68c0,.12-.09.25-.13.38-.19.63-1.47,4.38-1.77,5.66a20.25,20.25,0,0,0-.37,2.18c-.09.76-.24,1.51-.31,2.27a2.75,2.75,0,0,0,.15,1.57.1.1,0,0,0,0,.09c.3.62,1,.84,1.6,1.1a4.55,4.55,0,0,0,1.58.61c.4,0,.25,1.75.38,1.41,1.25-3.26,2-4.3,3.19-5.09a10.35,10.35,0,0,1,2.17-.76A1.42,1.42,0,0,0,149.26,52.07Z"/><path class="cls-9" d="M163.21,70.67s-3.25,7.76-7.87,7.51l-10.87-2.66,3.23-10.29,10.37,3.33Z"/><path class="cls-25" d="M183.7,107.26s-2.95,4.15-3.15,4.73c-.28.84.63,1.79,1,2.39a2.2,2.2,0,0,0,.84.82c.45.2.81-.14.87-.6a2.39,2.39,0,0,0-.36-1.4c0-.06-.46-.82-.47-.81l1.61-1.22-.39-3.91"/><path class="cls-26" d="M182.69,112.74l.26.46a2.6,2.6,0,0,1,.37,1.24,10.56,10.56,0,0,1-.68.82.76.76,0,0,1-.2-.06,2.2,2.2,0,0,1-.84-.82l-.12-.17.18-.25a15.89,15.89,0,0,1,1-1.22"/><path class="cls-25" d="M187.91,84.35s3,10.08,2.13,25.09l-7.12-1.07s2.24-3.84-2.89-25Z"/><path class="cls-9" d="M151.87,112.72c1.16,1.11,26.89,1.64,27.67,0,.41-.86,0-23.36.73-32.5q.31-3.84.78-7.66c.24-1.87,0-3.5-2-4-4.41-1-24.69,0-25.68.46-1.33.64-.8,2.24-.63,3.35C153.9,80.34,151.51,112.37,151.87,112.72Z"/><rect class="cls-25" x="163.7" y="61.22" width="5.74" height="7.52"/><path class="cls-25" d="M160.09,57.69a10,10,0,0,0,2.19,5.15,5.22,5.22,0,0,0,8.43,0,9.89,9.89,0,0,0,2.19-5.15,6.82,6.82,0,0,0-1.47-5.26,6.32,6.32,0,0,0-9.87,0A6.86,6.86,0,0,0,160.09,57.69Z"/><path class="cls-25" d="M160.09,57.69a10,10,0,0,0,2.19,5.15,5.22,5.22,0,0,0,8.43,0,9.89,9.89,0,0,0,2.19-5.15,6.82,6.82,0,0,0-1.47-5.26,6.32,6.32,0,0,0-9.87,0A6.86,6.86,0,0,0,160.09,57.69Z"/><path class="cls-25" d="M171.74,58.82a3.5,3.5,0,0,1,.17-.71c.05-.18.13-.36.18-.54a3.12,3.12,0,0,1,.24-.73,1,1,0,0,1,.27-.34,1,1,0,0,1,.36-.16,1.05,1.05,0,0,1,.7,0l.09,0h0a.84.84,0,0,1,.49.72,2.53,2.53,0,0,1-.25,1c-.12.36-.2.73-.34,1.08a1.56,1.56,0,0,1-.79,1,1,1,0,0,1-.68-.05.87.87,0,0,1-.45-.57A1.78,1.78,0,0,1,171.74,58.82Z"/><path class="cls-25" d="M161.23,59.51a.84.84,0,0,1-.45.57.94.94,0,0,1-.68.05,1.55,1.55,0,0,1-.78-1c-.15-.35-.23-.72-.35-1.08a2.73,2.73,0,0,1-.25-1,.86.86,0,0,1,.49-.72h0l.09,0a1.08,1.08,0,0,1,.71,0,.86.86,0,0,1,.35.16,1.16,1.16,0,0,1,.28.34,3.67,3.67,0,0,1,.24.73c.05.18.12.36.18.54a4.29,4.29,0,0,1,.16.71A1.78,1.78,0,0,1,161.23,59.51Z"/><path class="cls-17" d="M167.23,55.69c.29,1,1,4.09-.82,3.88-.11,0-.11-.18,0-.17,1.67.19.92-2.79.65-3.66A.09.09,0,0,1,167.23,55.69Z"/><path class="cls-27" d="M173.61,58.25c-.13.66-.59,1.37-1.35,1.2-.1,0-.06-.18.05-.16.66.15,1-.53,1.13-1.08C173.46,58.1,173.63,58.15,173.61,58.25Z"/><path class="cls-27" d="M159.64,58.21c.11.55.48,1.23,1.14,1.08.1,0,.15.14,0,.16-.75.17-1.21-.54-1.34-1.2C159.46,58.15,159.62,58.1,159.64,58.21Z"/><path class="cls-17" d="M169.5,56a.3.3,0,0,1,.08-.16.24.24,0,0,1,.09-.08s0,0,.07,0H170l.07,0a.3.3,0,0,1,.08.08.31.31,0,0,1,.08.15,1.43,1.43,0,0,1,.09.41.74.74,0,0,1-.19.53.31.31,0,0,1-.33.09.36.36,0,0,1-.24-.24A1.16,1.16,0,0,1,169.5,56Z"/><path class="cls-17" d="M170,54.78c.32.12.63.26.94.4s.63.29.81,0c.28-.48-.89-1.06-1.2-1.23a2.11,2.11,0,0,0-1.07-.36.62.62,0,0,0-.27.09.45.45,0,0,0-.19.25C168.89,54.42,169.63,54.65,170,54.78Zm-.36-.92h0S169.58,53.8,169.62,53.86Z"/><path class="cls-17" d="M163.62,56a.35.35,0,0,1,.08-.16.24.24,0,0,1,.09-.08l.07,0h.21l.07,0a.34.34,0,0,1,.09.08.44.44,0,0,1,.08.15,1.49,1.49,0,0,1,.08.41.76.76,0,0,1-.18.53.33.33,0,0,1-.34.09.33.33,0,0,1-.23-.24A1.1,1.1,0,0,1,163.62,56Z"/><path class="cls-17" d="M165.07,54a.42.42,0,0,0-.18-.25.5.5,0,0,0-.27-.08,2,2,0,0,0-1.07.35c-.31.17-1.48.75-1.2,1.23.18.3.57.11.81,0s.62-.28.94-.4S165.19,54.47,165.07,54Zm-.61-.07h0C164.5,53.85,164.49,53.88,164.46,53.9Z"/><path class="cls-6" d="M164.9,60.61a1.83,1.83,0,0,1,.58.48,2.89,2.89,0,0,0,.62.48,2,2,0,0,0,1.73,0l.51-.24c.18-.08.34-.12.4,0s-.08.38-.29.56a2.27,2.27,0,0,1-.69.38,3,3,0,0,1-2.43-.15,1.91,1.91,0,0,1-1-1,.53.53,0,0,1,.07-.52A.4.4,0,0,1,164.9,60.61Z"/><path class="cls-18" d="M158.9,53.71c-.73-3,.84-6,2.81-8.11a8.45,8.45,0,0,1,1-1A7,7,0,0,1,166,43.36c1.43-.15,2.48.12,2.69,1.69a7.86,7.86,0,0,0,1.34-.24,8.66,8.66,0,0,1,1.44,0c.94.07,3,.31,3.09,1.56,0,.38-.21.6-.44.85.5.12,1.06.13,1.58.24a8.11,8.11,0,0,1,1.53.44,3.52,3.52,0,0,1,.69.37c.34.24.48.52.2.86a5.85,5.85,0,0,1-1,.84c-.39.29-.78.56-1.18.82a6.2,6.2,0,0,0-2,2.25,12.08,12.08,0,0,0-.87,3.26c-.07.31-.15.61-.24.92s-.06.47-.19.61-.25-.42-.26-.5a20.3,20.3,0,0,0-.33-3.48,4.62,4.62,0,0,0-1.46-2.24,5.7,5.7,0,0,0-2.26-1.11,6.46,6.46,0,0,0-1.52-.12c-3,.12-5.82,1.93-6,5.15a11.35,11.35,0,0,0,.22,2.85A18.16,18.16,0,0,1,158.9,53.71Z"/><path class="cls-9" d="M174.39,68.19s3.44.1,3.63.12a17.4,17.4,0,0,1,5.16,1.08,4.88,4.88,0,0,1,2.78,3c.7,1.92,4.53,12.75,4.46,12.94l-9.91,1.92-4-11.22Z"/><path class="cls-25" d="M174.39,68.19s-9.92-.48-16.22.37l8.7,4.43Z"/><path class="cls-27" d="M166.32,65a4,4,0,0,1-2.62-.87v3.5A4.2,4.2,0,0,1,166.32,65Z"/><path class="cls-27" d="M170.62,70.6,166.87,73l-8.7-4.43s8.15,3.59,8.73,4.13Z"/><path class="cls-27" d="M165.5,50.5s-6.21.81-4.49,7.85C161,58.35,159.66,51.92,165.5,50.5Z"/><path class="cls-6" d="M179.25,75.12A11.36,11.36,0,0,1,178,80.93a4.41,4.41,0,0,1-3.3,2.46,4,4,0,0,1-3.41-2.1,10.53,10.53,0,0,1-1.52-5.64v-.53a.12.12,0,0,1,.11-.1h9.31a.11.11,0,0,1,0,.21h-9.31l.1-.11a11.12,11.12,0,0,0,1.21,5.61,4.15,4.15,0,0,0,3.34,2.46c1.51,0,2.66-1.25,3.34-2.46A10.89,10.89,0,0,0,179,75.12C179,75,179.24,75,179.25,75.12Z"/><path class="cls-17" d="M174.44,68.27l-4.9,3.13L167.12,73c-.1.06-.21.17-.32.11l-.62-.31-8.06-4.1c-.11-.06,0-.24.1-.18l5,2.56,3,1.52c.22.11.44.22.65.34s-.13,0,0,0l.26-.16,7.22-4.61C174.45,68,174.55,68.2,174.44,68.27Z"/><path class="cls-17" d="M179.15,112.09a124.65,124.65,0,0,1-17.81.67c-3-.09-6-.29-9-.67-.13,0-.13-.21,0-.2a118.37,118.37,0,0,0,24.68.2c.7-.06,1.4-.12,2.1-.2C179.28,111.88,179.28,112.08,179.15,112.09Z"/><path class="cls-25" d="M189.63,105.71a32.68,32.68,0,0,1,.44,4.63,22.76,22.76,0,0,1-.2,3.08,3.84,3.84,0,0,1-.81,2.11,1.26,1.26,0,0,1-1.09.38s-.17.9-1.83.64c0,0-.33,1-1.94.28-.13-.06-.53.1-.7.08-1.33-.09-1.32-1.77-1.42-2.77a11.57,11.57,0,0,1,0-3.22,5.88,5.88,0,0,1,1.09-2.7l.67-3.49Z"/><path class="cls-21" d="M168,56.37a1.69,1.69,0,0,0,.93,1.38,3.07,3.07,0,0,0,2.08.3,2.33,2.33,0,0,0,1.57-1,1.34,1.34,0,0,0-.12-1.56,2.8,2.8,0,0,0-2.69-.82c-.83.16-1.76.75-1.77,1.68a.11.11,0,0,1-.21,0c0-1.34,1.54-2,2.69-1.95s2.62.76,2.51,2.08-1.59,1.84-2.69,1.82-2.49-.68-2.51-2A.11.11,0,0,1,168,56.37Z"/><path class="cls-21" d="M161.86,56.51a1.69,1.69,0,0,0,.93,1.37,3.07,3.07,0,0,0,2.08.31,2.31,2.31,0,0,0,1.57-1,1.36,1.36,0,0,0-.11-1.56,2.82,2.82,0,0,0-2.7-.81,2,2,0,0,0-1.77,1.68.11.11,0,0,1-.21,0c0-1.35,1.55-2,2.69-1.95s2.62.75,2.51,2.08-1.59,1.84-2.69,1.82-2.49-.69-2.51-2A.11.11,0,1,1,161.86,56.51Z"/><path class="cls-21" d="M167.9,56.29h-1.17a.1.1,0,0,1,0-.21h1.17A.11.11,0,1,1,167.9,56.29Z"/><path class="cls-21" d="M161.7,56.7l-2.6-1.91c-.11-.08,0-.26.11-.18l2.59,1.91C161.91,56.6,161.81,56.79,161.7,56.7Z"/></g><g class="cls-28"><polygon class="cls-16" points="71.67 165.47 70.12 163.58 72.23 160.78 74.58 162.85 71.67 165.47"/><path class="cls-29" d="M113.35,113.61c.35-3-11.31,2.27-13.45.21a4.38,4.38,0,0,0,1.52-3.31c0-2.41,2.77-9.37.39-9-9.87,1.64-10.25,7.76-13.06,8.66-3.12,1-7,1.9-9.33,4.42-1.32,1.44-1.61,3.53-3.09,4.86s-3.55,1.62-5.35,2.25c-5.93,2.06-10.52,7.48-10.52,14,0,7.45,7.61,19,17.67,19s18.48-7.15,18.48-14.6c0-.53.44-2.9.36-3.42C101.67,134.81,111.59,128.51,113.35,113.61Z"/><path class="cls-11" d="M119.92,125.67a3.88,3.88,0,0,0-5.26-2.79,3.2,3.2,0,0,0-1.85,3.1c0,.72-1.4,1.46-1.2,2.14.75,2.63,7.8,18.7,10.31,21.2.67.67,5.22-4.49,4.72-5C125.42,143.08,119.92,125.67,119.92,125.67Z"/><path class="cls-16" d="M137.94,160.89s-14.14-8.69-10.74-10.84c0,0,2.25-1.94,5.12.88l7.22,8.62Z"/><path class="cls-16" d="M139.4,159.37a9.73,9.73,0,0,1,4.65.82l3.56,1.32s.27.88-2.52-.15c0,0,1,2.17-.27,2.83,0,0-.4-.06-.08-.81a2.8,2.8,0,0,0-.57-2.21s.59,2-.79,3c0,0-.59,0-.13-.64a2.62,2.62,0,0,0,.15-2.52.71.71,0,0,1,0,.25,4.56,4.56,0,0,1,0,.64,2.4,2.4,0,0,1-.64,1.5,1.54,1.54,0,0,1-.43.33c-.16.06-.39.06-.42-.15s.39-.67.54-.93a2.38,2.38,0,0,0,.29-.74c.05-.19.13-.62-.08-.76s-.41,0-.55.07a7.4,7.4,0,0,1-1.52.46,3.16,3.16,0,0,1-2-.13,1.19,1.19,0,0,1-.42-.35c0-.05-.34-.45-.3-.5l1.08-1.53Z"/><path class="cls-11" d="M122.69,150.2c-5.77-6.08,1.48-8.17,3.5-6.34,1.7,1.55,12.43,12.06,13.27,13.58.28.5-3.19,3.91-3.48,3.38C134.25,157.73,128.55,156.39,122.69,150.2Z"/><path class="cls-18" d="M140.51,157.5s-3.56,2.89-4.37,4.33l-1.56-2.68a27.22,27.22,0,0,1,3.62-3.26Z"/><path class="cls-11" d="M89.89,131.49s7.1,14,2.36,25.65c0,0-7.68,14.49-.32,25.44l27.06-.72s3.5-10.29-3.63-28.44c0,0-5.11-16.65,5.91-23.83Z"/><path class="cls-29" d="M101,101.66c-5.86,1.36-8.73,7.92-6.91,15.72.47,2,.67,2.72,1.12,4.62L112,124.3c1.43-1.24,3-8,1.36-14.79-1.28-5.47-4.14-7.23-7.54-8A21.11,21.11,0,0,0,101,101.66Z"/><rect class="cls-16" x="99.33" y="123.18" width="10.92" height="5.08"/><polygon class="cls-12" points="112.24 141.98 96.39 141.98 97.07 123.12 98.98 123.18 104.65 127.02 110.2 123.17 112.24 122.98 112.24 141.98"/><path class="cls-17" d="M97.07,123.12s2.12,16.07,11.35,11.7l-3.35,2.86S96.21,132.56,97.07,123.12Z"/><path class="cls-11" d="M95.76,166l18.58.23-1.28-16.67,3.15-27-4.67.44s0,.18,0,.23c0,4-3.24,12.83-7.24,12.83s-7.24-8.84-7.24-12.83v-.14H91c-3.47,0,4.75,26.66,4.75,26.66l-3.83,16.33S95.76,166,95.76,166Z"/><rect class="cls-16" x="99.8" y="117.68" width="8.96" height="5.55" transform="translate(-16.69 224.12) rotate(-89.71)"/><path class="cls-19" d="M102.05,118.65s2.93,1.74,5,.66l0,1.47S104.56,121.27,102.05,118.65Z"/><path class="cls-16" d="M110.07,113.79a9.57,9.57,0,0,1-.86,3.29,4.91,4.91,0,0,1-3.27,2.93,5.19,5.19,0,0,1-1.11.08,5.66,5.66,0,0,1-.92-.13,6.94,6.94,0,0,1-4.46-3.41,10.29,10.29,0,0,1-.85-2.13,8.73,8.73,0,0,1-.23-1.34,5.94,5.94,0,0,1,1.53-4.67,6.19,6.19,0,0,1,4.72-2c1.89.06,2.86.28,3.91,1.57A8.2,8.2,0,0,1,110.07,113.79Z"/><path class="cls-30" d="M106.27,115.75h0v0Z"/><path class="cls-17" d="M105.9,116a.68.68,0,0,0,.12-.13,3.86,3.86,0,0,1-.6-1.2,5.91,5.91,0,0,1-.25-1.31,4,4,0,0,1,.17-1.55h0a6.69,6.69,0,0,0,0,1.54,6.78,6.78,0,0,0,.24,1.26,3.62,3.62,0,0,0,.62,1.2l0,0,0,.06a.69.69,0,0,1-.19.23.94.94,0,0,1-.57.24.9.9,0,0,1-.28,0A1.15,1.15,0,0,0,105.9,116Z"/><path class="cls-17" d="M107.47,112.45c0,.31-.12.58-.33.59s-.4-.22-.43-.53.12-.58.33-.6S107.44,112.14,107.47,112.45Z"/><path class="cls-17" d="M102.81,113.46c0,.31-.12.57-.33.59s-.4-.22-.43-.53.13-.58.34-.6S102.79,113.14,102.81,113.46Z"/><path class="cls-17" d="M102.94,111.29a.69.69,0,0,0-.49-.07,2.8,2.8,0,0,0-1.12.44,2,2,0,0,0-.33.25.09.09,0,0,0,0,.16.09.09,0,0,0,.09,0,1,1,0,0,0,.29-.11,2.06,2.06,0,0,1,.35-.12,4.35,4.35,0,0,1,.63-.1l.35,0a.42.42,0,0,0,.32-.13C103.15,111.48,103,111.36,102.94,111.29Z"/><path class="cls-17" d="M106.15,110.92a.47.47,0,0,0,.35,0c.11,0,.22-.06.33-.09a4.62,4.62,0,0,1,.63-.11,1.53,1.53,0,0,1,.37,0,1.63,1.63,0,0,0,.31,0,.1.1,0,0,0,.08-.06.09.09,0,0,0,0-.16,2.64,2.64,0,0,0-.4-.12,2.86,2.86,0,0,0-1.2,0,.74.74,0,0,0-.44.24C106.09,110.69,106,110.84,106.15,110.92Z"/><path class="cls-6" d="M103.64,117.8l3.86-.9S106.5,120.07,103.64,117.8Z"/><path class="cls-19" d="M100.4,123.18s3.33,2.93,4.23,3.84L99,123.18Z"/><path class="cls-19" d="M104.43,107.5c.08.06-.39.91-.41,1a6,6,0,0,1-1.71,2,23.47,23.47,0,0,0-3.26,2.41,3.5,3.5,0,0,0-.61.82S102.59,106.1,104.43,107.5Z"/><path class="cls-29" d="M103.77,106.17c.32,0,.11,1.31.07,1.5a4.54,4.54,0,0,1-1.88,2.49,13.63,13.63,0,0,0-2.34,1.94,12,12,0,0,0-1.18,1.58c-1.34,2.24-1.78-.67-1.78-.67S97.67,106.85,103.77,106.17Z"/><path class="cls-16" d="M100.1,115.78a14.06,14.06,0,0,0-.88-1.73,1.18,1.18,0,0,0-.31-.28,1.19,1.19,0,0,0-.36-.09,1,1,0,0,0-.65.14l-.08.06,0,0a.78.78,0,0,0-.33.75,2.46,2.46,0,0,0,.4.85c.17.32.31.64.5.94a1.48,1.48,0,0,0,.9.75.87.87,0,0,0,.62-.16.81.81,0,0,0,.32-.61A1.56,1.56,0,0,0,100.1,115.78Z"/><path class="cls-19" d="M98.28,115.57c.23.58.77,1.17,1.44.88a.07.07,0,0,0-.06-.13c-.59.25-1-.32-1.25-.82C98.38,115.42,98.24,115.48,98.28,115.57Z"/><path class="cls-29" d="M103.77,106.17c-1.2,1.57,1.34,2,2.26,2.26a6.66,6.66,0,0,1,3.92,2.73,2.64,2.64,0,0,1,.55,1.19,2.76,2.76,0,0,1,0,1.31,3.89,3.89,0,0,0,.36-2.1,7.53,7.53,0,0,0-.72-2.11c-.18-.37-.38-.73-.58-1.09s-.42-.73-.66-1.09-.51-.94-.83-1.13C108.06,106.14,105.15,104.35,103.77,106.17Z"/><path class="cls-16" d="M109.34,113.62a14,14,0,0,1,0-1.94.86.86,0,0,1,.16-.38.72.72,0,0,1,.28-.24,1,1,0,0,1,.64-.17l.09,0h0a.83.83,0,0,1,.63.53,2.53,2.53,0,0,1,0,1c0,.35,0,.71,0,1.06a1.44,1.44,0,0,1-.47,1.06.8.8,0,0,1-.62.14.86.86,0,0,1-.56-.4A1.72,1.72,0,0,1,109.34,113.62Z"/><path class="cls-19" d="M110.88,112.63c.06.62-.17,1.39-.9,1.43a.08.08,0,0,1,0-.15c.64,0,.8-.75.76-1.28C110.73,112.53,110.88,112.53,110.88,112.63Z"/><path class="cls-11" d="M85.89,131c1.83-6,3.56-7.1,3.56-7.1s1-1.13,3.7-.7c1.35.22,1.93,1.83,2,2.93a9.22,9.22,0,0,1,.3,2.25c-.58,2.62-4,15.84-8.89,22.25-.57.75-6.23-4.77-5.9-5.39C82.14,142.42,85.46,132.36,85.89,131Z"/><path class="cls-11" d="M82.86,141.13c4.65-6.46,5.31,7.48,3.63,9.56-1.42,1.76-11,13.14-12.49,14.06-.48.3-4-2.9-3.51-3.22C73.42,159.66,82.25,142,82.86,141.13Z"/><path class="cls-18" d="M74,165.78s-3-3.32-4.49-4l2.54-1.68a26.33,26.33,0,0,1,3.4,3.37Z"/></g><g class="cls-31"><path class="cls-21" d="M152,128s-10.49,9-9.32,22.28c0,0,.35,7.58,8.44,4.37,0,0-3.29-5.42,4.75-16.59Z"/><path class="cls-21" d="M184.82,196.08A74.47,74.47,0,0,1,182.26,179c-.26-5.73-1.76-11.28-3.24-16.79-1-3.75-2-8.23-4.62-11.25-4.53-5.32-13.91-4.89-19-.77-8.52,6.84-7,19.46-5.57,28.95.41,2.74.87,5.49,1.18,8.25a86.18,86.18,0,0,1,.65,13.24c-.1,2.59-1.56,6.42,1.38,8a6.53,6.53,0,0,0,1.82.57,19.48,19.48,0,0,0,4.18.14c1.6-.09,3.19-.19,4.79-.18a105.4,105.4,0,0,1,14.08,1.28c3.46.48,8.59.7,8.69-4A35.59,35.59,0,0,0,184.82,196.08Z"/><path class="cls-21" d="M177.66,135c0,10-6.7,17.53-13.5,17.53S150.71,145,150.71,135c0-6.32.8-7.82,4.46-7.73,2.66.07,6.47,0,9,0,2,0,6.93,0,8.74,0C177.26,127.18,177.66,127.9,177.66,135Z"/><path class="cls-25" d="M155.17,127.25c.14,3,4.06,5.48,8.86,5.48s8.73-2.44,8.87-5.48Z"/><path class="cls-32" d="M154.63,147.18s6.83,2.2,19.09,0v3.08s-3.28,2.83-19.23.71C154.49,151,155.32,148.67,154.63,147.18Z"/><path class="cls-21" d="M171.61,129.18a27.67,27.67,0,0,1,3.73-1.93c2.35-.28,4,0,5.42,1.82s1.88,5.14,2.89,7.11a22.16,22.16,0,0,0,2.56,3.82,5.85,5.85,0,0,1,1.52,3,4.19,4.19,0,0,1-2.17,3.84,3.59,3.59,0,0,1-2.54.05,8.07,8.07,0,0,1-2.26-1.58,12.27,12.27,0,0,1-1.49-1.65,16,16,0,0,1-1.57-2.35Z"/><path class="cls-25" d="M162.82,160.63c-4.38-1.71-14.7-5.25-16-5.83a4.19,4.19,0,0,1-2.12-1.57c-1.37-2.49,1.77-5.81,4.32-5,2.15.68,14.89,9,15.27,9.22Z"/><rect class="cls-25" x="161.77" y="118.97" width="4.99" height="9"/><path class="cls-27" d="M163.86,122.57a5.47,5.47,0,0,0,2.9-.54v3.53A3.12,3.12,0,0,0,163.86,122.57Z"/><path class="cls-32" d="M164.75,106.19c.16-1.11.15-2.18-1.13-2.62a4.18,4.18,0,0,0-3.78.44,5,5,0,0,1-.9.63c-.74.31-1.58,0-2.32.39-.91.44-1.45,1.34-2.31,1.86a7.07,7.07,0,0,1-2.55.78,2.8,2.8,0,0,0-2.19,1.39c-.38.77-.19,1.69-.6,2.44a5.33,5.33,0,0,1-1.68,1.48c-1.54,1.17-1.1,3.11,0,4.36s.76,2.63,2.36,3.33c1.77.77,3.77.12,5.5,1.09a3.78,3.78,0,0,0,2.42.72,14.45,14.45,0,0,1,3.77-.14c1,.15,2.11.15,2.62-.84,1.11-2.2.12-4.94.33-7.26a30.18,30.18,0,0,0,.43-3.13c0-1-.24-2.06-.24-3.1A14.26,14.26,0,0,1,164.75,106.19Z"/><path class="cls-32" d="M163.72,106.19c-.16-1.11-.15-2.18,1.14-2.62a4.18,4.18,0,0,1,3.78.44,4.62,4.62,0,0,0,.89.63c.74.31,1.59,0,2.33.39.91.44,1.45,1.34,2.3,1.86a7.12,7.12,0,0,0,2.56.78,2.8,2.8,0,0,1,2.19,1.39c.38.77.19,1.69.59,2.44s1.1,1,1.69,1.48c1.53,1.17,1.09,3.11,0,4.36s-.77,2.63-2.37,3.33c-1.76.77-3.76.12-5.49,1.09a3.8,3.8,0,0,1-2.43.72,14.36,14.36,0,0,0-3.76-.14c-1,.15-2.12.15-2.62-.84-1.11-2.2-.13-4.94-.33-7.26a30.21,30.21,0,0,1-.44-3.13c0-1,.25-2.06.24-3.1A12.67,12.67,0,0,0,163.72,106.19Z"/><path class="cls-25" d="M171.61,115.38a10.65,10.65,0,0,1-2.52,5.63,6.2,6.2,0,0,1-9.7,0,10.65,10.65,0,0,1-2.52-5.63,7.22,7.22,0,0,1,1.69-5.75,7.51,7.51,0,0,1,11.35,0A7.27,7.27,0,0,1,171.61,115.38Z"/><path class="cls-25" d="M171.61,115.38a10.65,10.65,0,0,1-2.52,5.63,6.2,6.2,0,0,1-9.7,0,10.65,10.65,0,0,1-2.52-5.63,7.22,7.22,0,0,1,1.69-5.75,7.51,7.51,0,0,1,11.35,0A7.27,7.27,0,0,1,171.61,115.38Z"/><path class="cls-25" d="M158.21,117.12a5.6,5.6,0,0,0-.19-.81c-.07-.21-.15-.42-.21-.63a4.06,4.06,0,0,0-.28-.83,1,1,0,0,0-.72-.58,1.25,1.25,0,0,0-.81,0l-.11.06h0a1,1,0,0,0-.57.83,3.15,3.15,0,0,0,.29,1.12c.14.41.23.83.4,1.24a1.78,1.78,0,0,0,.9,1.09,1.05,1.05,0,0,0,.78-.06,1,1,0,0,0,.52-.65A2.16,2.16,0,0,0,158.21,117.12Z"/><path class="cls-25" d="M170.3,117.92a1,1,0,0,0,.51.65,1.06,1.06,0,0,0,.78.06,1.77,1.77,0,0,0,.91-1.09c.16-.41.26-.83.4-1.24a3.13,3.13,0,0,0,.28-1.12,1,1,0,0,0-.56-.83h0l-.1-.06a1.25,1.25,0,0,0-.81,0,1.17,1.17,0,0,0-.41.18,1.35,1.35,0,0,0-.31.4,3.53,3.53,0,0,0-.28.83c-.06.21-.15.42-.21.63a5.6,5.6,0,0,0-.19.81A2,2,0,0,0,170.3,117.92Z"/><path class="cls-17" d="M162.34,114.19c-.12,0-.24-.11-.36-.16h0a.39.39,0,0,0,.06-.21.19.19,0,0,0-.11-.18h-.05c-.1,0-.13.18-.16.26a.81.81,0,0,1-.25.33,1,1,0,0,1-1.06.12c-.33-.14-.69-.39-.63-.79,0-.18-.25-.2-.28,0a.92.92,0,0,0,.21.67,1.06,1.06,0,0,1-.43.26c-.1,0-.07.17,0,.15a1.1,1.1,0,0,0,.51-.3l.13.11.19.11a2.56,2.56,0,0,1-.17.43c-.05.08.07.17.12.09a4.47,4.47,0,0,0,.19-.46,1.53,1.53,0,0,0,.59.13c0,.15,0,.29,0,.44s.15.07.15,0,0-.28,0-.42a1.36,1.36,0,0,0,.47-.15,2,2,0,0,0,.35.3c.08,0,.17-.08.09-.13a1.3,1.3,0,0,1-.31-.26l.1-.09a2,2,0,0,0,.19-.22c.13.06.25.13.39.18S162.44,114.22,162.34,114.19Z"/><path class="cls-17" d="M159.2,112.11a1.26,1.26,0,0,1,.26-.13l0,0s0,0,0,0l.07,0,.17-.06.39-.1a2.43,2.43,0,0,1,2,.52l.19.17c.11.1.28-.07.17-.17a2.71,2.71,0,0,0-2.1-.79,2.94,2.94,0,0,0-1.26.38l0,0C159,112,159.07,112.19,159.2,112.11Z"/><path class="cls-17" d="M166.13,114.19c.13,0,.25-.11.37-.16h0a.51.51,0,0,1-.06-.21.19.19,0,0,1,.11-.18h.06c.09,0,.13.18.16.26a.88.88,0,0,0,.24.33,1,1,0,0,0,1.07.12c.33-.14.69-.39.63-.79,0-.18.25-.2.27,0a.87.87,0,0,1-.21.67,1,1,0,0,0,.44.26c.09,0,.07.17,0,.15a1.15,1.15,0,0,1-.51-.3.69.69,0,0,1-.13.11,1.18,1.18,0,0,1-.19.11,3.93,3.93,0,0,0,.18.43c0,.08-.08.17-.13.09a4.37,4.37,0,0,1-.18-.46,1.53,1.53,0,0,1-.59.13c0,.15,0,.29,0,.44s-.16.07-.15,0,0-.28,0-.42a1.29,1.29,0,0,1-.47-.15,2,2,0,0,1-.35.3c-.09,0-.18-.08-.09-.13a1.53,1.53,0,0,0,.31-.26l-.1-.09a2,2,0,0,1-.19-.22c-.13.06-.26.13-.39.18S166,114.22,166.13,114.19Z"/><path class="cls-17" d="M169.28,112.11,169,112l0,0s0,0,0,0l-.07,0-.17-.06-.38-.1a2.43,2.43,0,0,0-2,.52,1.54,1.54,0,0,0-.19.17c-.11.1-.28-.07-.17-.17a2.69,2.69,0,0,1,2.09-.79,3,3,0,0,1,1.27.38l0,0C169.53,112,169.41,112.19,169.28,112.11Z"/><path class="cls-17" d="M162.57,119.62a3.18,3.18,0,0,0,.89.56,2.07,2.07,0,0,0,1.89-.09,2.3,2.3,0,0,0,.56-.47c.1-.11-.07-.29-.17-.17a2,2,0,0,1-1,.63,1.76,1.76,0,0,1-.91,0,2.88,2.88,0,0,1-.72-.32l-.24-.17,0,0s0,0,0,0l0,0-.06,0,0,0A.12.12,0,0,0,162.57,119.62Z"/><path class="cls-17" d="M163.92,113.53c-.33,1.11-1.16,4.7,1,4.45.11,0,.11-.2,0-.18-1.93.23-1.1-3.22-.8-4.22A.09.09,0,0,0,163.92,113.53Z"/><path class="cls-17" d="M157.76,118.52s2,4.89,6.59,4.83A6.69,6.69,0,0,1,157.76,118.52Z"/><path class="cls-27" d="M156.07,116.47c.14.75.66,1.57,1.53,1.37.12,0,.07-.2,0-.17-.76.17-1.19-.61-1.31-1.25C156.22,116.31,156,116.35,156.07,116.47Z"/><path class="cls-17" d="M172.13,116.42c-.13.64-.55,1.42-1.32,1.25-.11,0-.16.15,0,.17.86.2,1.39-.62,1.53-1.37C172.32,116.35,172.15,116.31,172.13,116.42Z"/><path class="cls-27" d="M164,107.32c-.08,0,0,.81,0,.87a1.86,1.86,0,0,0,1.52,1.21,3.34,3.34,0,0,1,.93.34,4.44,4.44,0,0,1,.77.73,3.18,3.18,0,0,0,1.85.81s1.26.17,2,2.62l-.85-5Z"/><path class="cls-32" d="M173.31,113a7,7,0,0,0-.4-.77c-.23-.4-.49-.77-.74-1.15-.48-.7-.93-1.42-1.46-2.09a7.69,7.69,0,0,0-2.08-1.86,6.49,6.49,0,0,0-2.52-.88,5.36,5.36,0,0,0-.7-.06,3,3,0,0,0-.6,0,1.12,1.12,0,0,0-.36.09.68.68,0,0,0-.2-.07,3.62,3.62,0,0,0-.46-.06c-.3,0-.59,0-.89,0a10,10,0,0,0-1.45,0,4.34,4.34,0,0,0-1.37.36,5.37,5.37,0,0,0-2.05,1.64,4.87,4.87,0,0,0-.71,1.23c-.09.23-.16.47-.25.7s-.16.38-.24.57a3.93,3.93,0,0,0-.45,1.52,6.42,6.42,0,0,0,.12.88c.05.25,0,1.21.35,1.28s.49-.63.56-.91a5,5,0,0,1,.63-1.49,3,3,0,0,1,1.36-1.4,4.22,4.22,0,0,0,1.26-.51,8.47,8.47,0,0,0,.89-1.09c.43-.5,1.13-.51,1.71-.73a1.84,1.84,0,0,0,.86-.62c-.08.11.22.61.28.7a1.55,1.55,0,0,0,.54.48c.48.26,1.05.32,1.52.6s.95,1.06,1.61,1.35,1.43.29,1.82.95a6,6,0,0,1,1.08,3.1c0,.13-.16.7.14.62s.72-.81.91-1.11c.52-.81,1.44.38,1.46-.57A1.75,1.75,0,0,0,173.31,113Z"/><path class="cls-17" d="M155.17,127.25a1.09,1.09,0,0,0,0,.12c0,.07,0,.18.08.32a4,4,0,0,0,.17.47,4.39,4.39,0,0,0,.28.59,5.33,5.33,0,0,0,.41.65,6.51,6.51,0,0,0,1.26,1.23,6.34,6.34,0,0,0,.79.52c.13.08.27.15.41.22l.43.21c.14.06.29.11.43.18l.43.15c.14.06.28.09.42.14l.2.07.2,0,.39.11.36.09.65.14.27.06.23,0,.44.09-.45,0h-.23l-.28,0c-.2,0-.42,0-.66-.08l-.38-.06-.4-.08-.21-.05-.21,0-.22-.06-.22-.06-.45-.15-.44-.17-.45-.21-.44-.23a9,9,0,0,1-.82-.55,6.29,6.29,0,0,1-.71-.65,6.72,6.72,0,0,1-.55-.7,4.49,4.49,0,0,1-.38-.71,4.08,4.08,0,0,1-.34-1.14A3,3,0,0,1,155.17,127.25Z"/><path class="cls-27" d="M172,127.27s.18,2.88-4.28,4.94c0,0,4.84-1.11,5.14-5Z"/><path class="cls-17" d="M155.62,148.32l.19.05.54.14c.47.11,1.13.26,1.94.4.4.07.84.13,1.31.19l.71.08.75.08.78.05.39,0,.4,0,.81,0h.82c.54,0,1.08,0,1.62,0l.4,0,.39,0c.27,0,.52,0,.78-.06l.75-.08c.24,0,.48-.06.71-.09l.68-.1.63-.09.58-.11.27-.05.25,0,.46-.09.2,0,.19,0,.54-.12.19,0-.18.06-.53.18-.83.26-1.09.28c-.4.09-.84.2-1.31.27l-.72.13-.37.05-.38,0c-.51.07-1,.12-1.59.16s-1.09.05-1.64.06h-.83l-.82,0-.8-.06-.79-.08c-.51-.06-1-.14-1.47-.22s-.91-.17-1.31-.27-.77-.19-1.09-.29-.6-.19-.83-.26l-.52-.2Z"/><path class="cls-17" d="M155.62,149.6l.19.06.54.13c.47.12,1.13.26,1.94.4.4.07.84.13,1.31.19l.71.08.75.08.78.05.39,0,.4,0,.81,0h.82c.54,0,1.08,0,1.62,0l.4,0,.39,0c.27,0,.52,0,.78-.06l.75-.08c.24,0,.48-.06.71-.09l.68-.1.63-.09.58-.11.27-.05.25,0,.46-.09.2,0,.19,0,.54-.12.19,0-.18.06-.53.18-.83.26c-.32.1-.69.18-1.09.28s-.84.2-1.31.28l-.72.12-.37.05-.38,0c-.51.07-1,.12-1.59.16s-1.09.05-1.64.06h-.83l-.82,0c-.27,0-.54,0-.8-.06l-.79-.08c-.51-.06-1-.14-1.47-.22s-.91-.17-1.31-.27-.77-.19-1.09-.29-.6-.19-.83-.26l-.52-.2Z"/><path class="cls-17" d="M168.54,132.16a1.44,1.44,0,0,0-.63-.49,1.3,1.3,0,0,0-.85,0,5.1,5.1,0,0,0-2.45,2.32,3.23,3.23,0,0,0-.37-.37,3.77,3.77,0,0,0-1.06-.66,6.15,6.15,0,0,0-1.27-.44,1,1,0,0,0-.88.12,1.44,1.44,0,0,0-.27,1,1.23,1.23,0,0,0,.34.86,1.81,1.81,0,0,0,1.63.26c.54-.11,1.06-.34,1.6-.41-.06.23-.22.43-.27.67a1.72,1.72,0,0,0,.19.91,1.4,1.4,0,0,1-.11.92,1.36,1.36,0,0,0,0,.72.28.28,0,0,0,.29.31.31.31,0,0,0,0-.62h0a3,3,0,0,1,.13-.49,1.68,1.68,0,0,0,.07-.89c-.08-.29-.28-.54-.19-.86a2.3,2.3,0,0,1,.17-.39,1.21,1.21,0,0,0,.39.26,1.21,1.21,0,0,1,.35.24.87.87,0,0,1,.14.52,5.21,5.21,0,0,0,0,.55,1,1,0,0,0,.19.44,1.56,1.56,0,0,1,.22.47,1.1,1.1,0,0,1,0,.31.31.31,0,1,0,.32.19,1.88,1.88,0,0,0-.23-1,1.77,1.77,0,0,1-.21-.41,2.28,2.28,0,0,1,0-.59,1,1,0,0,0-.44-.87,2.57,2.57,0,0,1-.51-.31.8.8,0,0,0,.15,0,7,7,0,0,0,2,0,2.53,2.53,0,0,0,1.67-.83A1.28,1.28,0,0,0,168.54,132.16Zm-6.39,2.4a1,1,0,0,1-.93-.37,1.36,1.36,0,0,1-.1-1c0-.13.08-.31.22-.37a1.16,1.16,0,0,1,.49,0,6,6,0,0,1,1.29.45,3.63,3.63,0,0,1,1,.69l.09.1A16.76,16.76,0,0,1,162.15,134.56Zm6.32-1.34c-.15.58-.92.82-1.44.93a6.77,6.77,0,0,1-2,0,.61.61,0,0,1-.13,0,7.35,7.35,0,0,1,1.24-1.54c.43-.38,1.12-.86,1.72-.63A1.1,1.1,0,0,1,168.47,133.22Z"/><path class="cls-17" d="M166.54,118.55a.15.15,0,0,0,0,.29A.15.15,0,0,0,166.54,118.55Z"/><path class="cls-17" d="M166.67,111.7v0h-.08v0Z"/><path class="cls-25" d="M181.25,123.38a5.41,5.41,0,0,0-.05.59c0,.56-.11,1.12-.15,1.68-.07.82-.11,1.63-.16,2.45-.07,1-.14,2-.18,3s0,2.2-.06,3.3-.05,2.24,0,3.36.15,2.1.22,3.14a19.4,19.4,0,0,0,.49,2.94,3.7,3.7,0,0,0,1,2.23c1.11.9,3,.48,4.06-.38a3.94,3.94,0,0,0,1.1-3.26,16.8,16.8,0,0,0-.7-3.51l-3.4-15.66Z"/><path class="cls-17" d="M183.75,124.54l3.05,14S184.93,131.77,183.75,124.54Z"/><path class="cls-25" d="M183.72,123.36a11.71,11.71,0,0,0,2.64-5l1.38-4.34s-.64-.9-1.72,2.49c0,0-1.3-2.57-2.88-1.82,0,0-.24.42.7.67a3.38,3.38,0,0,1,1.69,2.17s-1.5-2.06-3.41-1.45c0,0-.45.55.51.59a3.15,3.15,0,0,1,2.49,1.72c0-.08-.16-.16-.22-.21a3.84,3.84,0,0,0-.61-.45,2.85,2.85,0,0,0-1.9-.5,1.54,1.54,0,0,0-.62.16c-.17.1-.35.33-.18.51s.94.12,1.29.17a2.9,2.9,0,0,1,.91.27c.23.1.69.33.67.63s-.31.39-.48.48a8.38,8.38,0,0,0-1.55,1.1,3.78,3.78,0,0,0-1.37,2,1.3,1.3,0,0,0,0,.65c0,.08.18.66.25.66l2.25.1Z"/></g><g class="cls-33"><path class="cls-17" d="M96.13,45.76s4.8-.37,6.11,1.48l-.55-.08A10.2,10.2,0,0,0,96.13,45.76Z"/><path class="cls-17" d="M99.32,43.74a5.48,5.48,0,0,1,3.05,4.36S101.28,45,99.32,43.74Z"/><path class="cls-17" d="M96.51,46.92a7.23,7.23,0,0,0-1.51.5,10.59,10.59,0,0,0-4.1,3.9,5.7,5.7,0,0,0-.73,1.51,10.31,10.31,0,0,0,0,5.43,6.24,6.24,0,0,0,1.47,2.57,16.3,16.3,0,0,0,4.63,3.24c3,1.43.21,5.44.22,6.09,0,.45,5.43-.27,6.79-1.81.45-.51,1.6-1.16,2.51-1.92a20.79,20.79,0,0,0,4.18-4.2,11.51,11.51,0,0,0,1.58-7.95,15.85,15.85,0,0,0-.55-2.36,10.07,10.07,0,0,0-1.33-2.81,6.62,6.62,0,0,0-2.92-2.34,5.1,5.1,0,0,0-2.07-.41,13.61,13.61,0,0,0-2.25.46,3.35,3.35,0,0,1-.54.08,1.46,1.46,0,0,1-.55,0,6.51,6.51,0,0,0-3.61-.22C97.35,46.76,96.93,46.83,96.51,46.92Z"/><path class="cls-17" d="M107.11,49a8.6,8.6,0,0,0-3.86-1.65,16.62,16.62,0,0,0-7.12.37,3.4,3.4,0,0,0-1.61.74c-1.26,1.29-1.52,3.24-1.63,5a14.34,14.34,0,0,0,.43,5.38A8.45,8.45,0,0,0,96.1,63a10.92,10.92,0,0,0,3.83,1.7c.73.19,1.48.22,2.22.36,1.36.26,2.07.46,3.33-.17a9.22,9.22,0,0,0,4.79-7.8C110.27,56.85,110.79,51.87,107.11,49Z"/><rect class="cls-34" x="97.85" y="63.46" width="8.51" height="5.26" transform="translate(35.5 167.87) rotate(-89.71)"/><path class="cls-35" d="M100,64.39s2.77,1.65,4.77.63l0,1.38S102.36,66.87,100,64.39Z"/><path class="cls-34" d="M108.67,60.21a10.59,10.59,0,0,1-1.7,3.23,4.65,4.65,0,0,1-5.31,2.07,5.58,5.58,0,0,1-.93-.36A6.9,6.9,0,0,1,99.05,64,7.35,7.35,0,0,1,96.9,60.5a10.49,10.49,0,0,1-.36-2.43,8.82,8.82,0,0,1,.08-1.45,6.36,6.36,0,0,1,2.74-4.5,6.6,6.6,0,0,1,5.41-.92c2,.51,2.92,1,3.7,2.58A8.79,8.79,0,0,1,108.67,60.21Z"/><path class="cls-36" d="M105.78,55.7h0Z"/><path class="cls-17" d="M103.79,61.45l.16-.1a3.94,3.94,0,0,1-.34-1.41,6.09,6.09,0,0,1,.06-1.43,4.3,4.3,0,0,1,.55-1.57h0a7.45,7.45,0,0,0-.41,1.59,6.25,6.25,0,0,0-.06,1.38,4.06,4.06,0,0,0,.35,1.4l0,.07,0,.06a1.59,1.59,0,0,1-.25.18,1,1,0,0,1-.66.12,1.15,1.15,0,0,1-.29-.08A1.31,1.31,0,0,0,103.79,61.45Z"/><path class="cls-17" d="M106.28,58.17c0,.34-.27.58-.49.55s-.37-.33-.32-.66.27-.58.49-.55S106.33,57.84,106.28,58.17Z"/><path class="cls-17" d="M101.17,58.09c0,.33-.27.58-.49.54s-.37-.32-.32-.66.27-.57.5-.54S101.22,57.76,101.17,58.09Z"/><path class="cls-17" d="M101.83,55.87a.75.75,0,0,0-.5-.2,3.07,3.07,0,0,0-1.27.19,3,3,0,0,0-.41.18.1.1,0,0,0,0,.17.08.08,0,0,0,.08,0,1.27,1.27,0,0,0,.34,0,2.45,2.45,0,0,1,.39,0,3.82,3.82,0,0,1,.68,0l.37.05a.46.46,0,0,0,.38-.06C102,56.11,101.91,56,101.83,55.87Z"/><path class="cls-17" d="M105.27,56.26a.47.47,0,0,0,.36.1,2.29,2.29,0,0,0,.37,0,5.32,5.32,0,0,1,.69,0,1.62,1.62,0,0,1,.38.09,2,2,0,0,0,.33.08.08.08,0,0,0,.09,0,.1.1,0,0,0,0-.17,3.64,3.64,0,0,0-.39-.23,3.13,3.13,0,0,0-1.24-.33.73.73,0,0,0-.52.13C105.27,56,105.16,56.15,105.27,56.26Z"/><path class="cls-35" d="M104.05,52.23c.18.13-1.26,1.56-1.41,1.68a17.16,17.16,0,0,1-3.42,1.66c-.48.23-1.66.45-2,.93C97.27,56.5,102.75,51.31,104.05,52.23Z"/><path class="cls-17" d="M103.94,50.71c.35,0-.2,1.41-.29,1.59a4.84,4.84,0,0,1-1.72,1.79,6.69,6.69,0,0,1-2,.8c-.75.21-1.92.9-2.12,3.83C97.76,60.08,96,56.89,95,56.11c-2.18-1.76-.18,0-.18,0S97.41,49.94,103.94,50.71Z"/><path class="cls-34" d="M97.77,59a16.24,16.24,0,0,0-.5-2,1.14,1.14,0,0,0-.26-.36.9.9,0,0,0-.35-.18,1.08,1.08,0,0,0-.71,0l-.1,0h0a.84.84,0,0,0-.53.7,2.67,2.67,0,0,0,.21,1c.1.36.17.74.3,1.1a1.52,1.52,0,0,0,.75,1,.85.85,0,0,0,.68,0,.87.87,0,0,0,.49-.55A1.83,1.83,0,0,0,97.77,59Z"/><path class="cls-17" d="M95.92,58.3c.1.66.52,1.41,1.29,1.27a.08.08,0,0,0,0-.16c-.68.13-1-.58-1.11-1.15C96.06,58.16,95.9,58.2,95.92,58.3Z"/><path class="cls-17" d="M103.94,50.71c-1.63,1.35.91,2.45,1.82,2.92a6.91,6.91,0,0,1,3.54,3.54,4,4,0,0,1,.17,1.64,3,3,0,0,1-.33,1.37,4.13,4.13,0,0,0,.88-2.11,8,8,0,0,0-.23-2.38c-.1-.43-.22-.85-.34-1.27a11.64,11.64,0,0,0-.43-1.3,4.54,4.54,0,0,0-.58-1.39S105.83,49.15,103.94,50.71Z"/><path class="cls-6" d="M101,62.83l4.13.49S103.41,64.83,101,62.83Z"/><rect class="cls-34" x="97.4" y="68.68" width="10.37" height="4.82"/><polygon class="cls-18" points="109.65 86.54 94.61 86.54 95.26 68.63 97.12 68.63 102.45 72.33 107.8 68.63 109.65 68.63 109.65 86.54"/><path class="cls-11" d="M102.44,73.44a.48.48,0,1,0,0,1,.48.48,0,1,0,0-1Zm-.25.56a.08.08,0,0,1,0-.16.08.08,0,0,1,0,.16Zm.49,0a.08.08,0,0,1,0-.16.08.08,0,0,1,0,.16Z"/><path class="cls-37" d="M102.7,73.92a0,0,0,0,1,0,0h-.47a0,0,0,0,1,0,0h0a0,0,0,0,1,0,0h.47a0,0,0,0,1,0,0Z"/><path class="cls-11" d="M102.44,75.62a.47.47,0,0,0-.48.48.48.48,0,0,0,.48.48.49.49,0,0,0,.48-.48A.48.48,0,0,0,102.44,75.62Zm-.25.56a.09.09,0,0,1-.08-.08.08.08,0,0,1,.08-.08.07.07,0,0,1,.08.08A.08.08,0,0,1,102.19,76.18Zm.49,0a.08.08,0,0,1-.08-.08.07.07,0,0,1,.08-.08.08.08,0,0,1,.08.08A.09.09,0,0,1,102.68,76.18Z"/><path class="cls-37" d="M102.7,76.1a0,0,0,0,1,0,0h-.47a0,0,0,0,1,0,0h0a0,0,0,0,1,0,0h.47a0,0,0,0,1,0,0Z"/><path class="cls-11" d="M102.44,77.79a.48.48,0,0,0-.48.48.47.47,0,0,0,.48.48.48.48,0,0,0,.48-.48A.49.49,0,0,0,102.44,77.79Zm-.25.56a.08.08,0,0,1-.08-.08.09.09,0,0,1,.08-.08.08.08,0,0,1,.08.08A.07.07,0,0,1,102.19,78.35Zm.49,0a.07.07,0,0,1-.08-.08.08.08,0,0,1,.08-.08.09.09,0,0,1,.08.08A.08.08,0,0,1,102.68,78.35Z"/><path class="cls-37" d="M102.7,78.27a0,0,0,0,1,0,0h-.47a0,0,0,0,1,0,0h0a0,0,0,0,1,0,0h.47a0,0,0,0,1,0,0Z"/><path class="cls-35" d="M98.42,68.68s3.73,2.17,4,3.65l-5.36-3.65Z"/><path class="cls-37" d="M102.5,72.33l6.59-3.28a.76.76,0,0,0-.16-.52Z"/><path class="cls-21" d="M120.5,78.18c-1.28-7-3-8.41-3-8.41a5.34,5.34,0,0,0-3.63-1.36c-1.46-.08-2.48,2-2.68,3.2a10.23,10.23,0,0,0-.06,2.47c.33,3,4.58,23.38,6.75,23.52,1,.06,3.26.4,3.87-.06C124.66,95.29,120.8,79.81,120.5,78.18Z"/><path class="cls-21" d="M113.87,68.41l-4.87.22v.13c0,3.79-3.07,12.18-6.87,12.18s-6.87-8.39-6.87-12.18v-.13l-6.9.06c-3.29,0,3.11,24.64,3.11,24.64l-4.29,16.2c0,3.28,29.9,3.28,29.9,0l-4.53-15.6Z"/><path class="cls-21" d="M82.25,78.86c.91-7.06,2.56-8.57,2.56-8.57a5.36,5.36,0,0,1,3.55-1.58c1.45-.16,2.58,1.83,2.84,3.05a9.23,9.23,0,0,1,.19,2.46c-.17,3-2.28,20.56-4.28,23.88-.54.89-4.46.59-5.09.16C79,96.19,82,80.5,82.25,78.86Z"/><path class="cls-11" d="M107.25,68.7c.52-.27,1.49-.59,1.75-.07l-6.55,3.7C102.19,71.82,107.25,68.7,107.25,68.7Z"/><path class="cls-11" d="M97.63,68.7c-.51-.27-2.11-.59-2.37-.07l7.17,3.7C102.7,71.82,97.63,68.7,97.63,68.7Z"/></g><path class="cls-38" d="M165.67,32.91h-.19a2.22,2.22,0,0,1-2.21,2.21,2.24,2.24,0,0,1-1.57-.65,2.19,2.19,0,0,1-.64-1.56,2.19,2.19,0,0,1,2.21-2.21,2.19,2.19,0,0,1,1.56.64,2.22,2.22,0,0,1,.65,1.57h.38a2.59,2.59,0,1,0-2.59,2.58,2.59,2.59,0,0,0,2.59-2.58Z"/><g id="Character"><path class="cls-39" d="M97.82,84.29a2.21,2.21,0,0,0-.24-.6,1.25,1.25,0,0,0-.72-.53,1.37,1.37,0,0,1,.78,1.16l-2,1.91Z"/></g><circle class="cls-40" cx="48.78" cy="37.15" r="26.42" transform="translate(-8.63 58.7) rotate(-57.86)"/><circle class="cls-41" cx="46.54" cy="36.61" r="26.42" transform="translate(-11.84 46.49) rotate(-47.79)"/><path class="cls-42" d="M46.51,61a24.3,24.3,0,0,1-5.72-.68,24,24,0,1,1,5.72.68Zm-.08-46.72a22.68,22.68,0,1,0,5.38.65A22.46,22.46,0,0,0,46.43,14.27Z"/><path class="cls-42" d="M53.65,22.85c5.49,2.59,6.35,7.25,4.5,11.54l-4.54-2.14c.94-2.09.72-4.09-1.81-5.28-2.11-1-4.16-.49-5.48,2.32a14.83,14.83,0,0,0-1.08,4.31l6.61,3.12L50.26,40.1l-5.74-2.71a6.59,6.59,0,0,1-.32.88,8.91,8.91,0,0,1-5.05,4.59l12.46,5.87-1.85,4-17.08-8,.42-2.9A9.82,9.82,0,0,0,39.53,36a7.63,7.63,0,0,0,.31-.84l-3.91-1.84L37.53,30l2.92,1.37a16.07,16.07,0,0,1,1.33-4.66C44.07,21.83,48.83,20.58,53.65,22.85Z"/><path class="cls-40" d="M274.86,24.51a16.69,16.69,0,1,0-15.19,18.06A16.7,16.7,0,0,0,274.86,24.51Z"/><path class="cls-41" d="M273.41,24.64A16.69,16.69,0,1,0,258.22,42.7,16.68,16.68,0,0,0,273.41,24.64Z"/><path class="cls-42" d="M256.79,41.48a15.23,15.23,0,0,1-15.14-13.9h0a15.21,15.21,0,1,1,16.46,13.84Q257.45,41.48,256.79,41.48Zm-14.23-14a14.29,14.29,0,1,0,13-15.47,14.29,14.29,0,0,0-13,15.47Z"/><path class="cls-42" d="M257.43,16.57c3.75,0,5.47,2.35,5.58,5.23l-3.1,0a2.2,2.2,0,0,0-2.41-2.46c-1.45,0-2.45.83-2.44,2.75a9.06,9.06,0,0,0,.54,2.69l4.52,0v2.31l-3.92,0a3.94,3.94,0,0,1,.06.58,5.53,5.53,0,0,1-1.59,3.9l8.51,0v2.69l-11.66.06L251,32.56a6.1,6.1,0,0,0,2.07-4.89,5.11,5.11,0,0,0,0-.55l-2.67,0V24.83h2a10,10,0,0,1-.49-3C251.82,18.55,254.14,16.59,257.43,16.57Z"/><path class="cls-40" d="M306.64,46.84a17.31,17.31,0,1,0-6.8,23.52A17.31,17.31,0,0,0,306.64,46.84Z"/><path class="cls-41" d="M305.32,47.57a17.31,17.31,0,1,0-6.81,23.51A17.32,17.32,0,0,0,305.32,47.57Z"/><path class="cls-42" d="M290.28,71.88a15.78,15.78,0,1,1,13.79-23.39,15.78,15.78,0,0,1-13.79,23.39Zm0-30.61a14.66,14.66,0,0,0-7.13,1.85,14.74,14.74,0,1,0,7.13-1.85Z"/><path class="cls-42" d="M286.18,46.75c3.52-1.85,6.3-.46,7.81,2.21l-2.91,1.53a2.34,2.34,0,0,0-3.48-1.14c-1.36.71-1.9,2-1,3.78a9.6,9.6,0,0,0,1.83,2.27l4.24-2.23,1.14,2.17-3.68,1.93a5.69,5.69,0,0,1,.33.52,5.86,5.86,0,0,1,.41,4.45l8-4.2,1.33,2.53-10.95,5.76L287.94,65a6.46,6.46,0,0,0-.45-5.61,5.19,5.19,0,0,0-.31-.5l-2.51,1.32L283.53,58l1.87-1a11,11,0,0,1-1.91-2.54C281.85,51.36,283.08,48.38,286.18,46.75Z"/></g></g></g></svg>