<svg xmlns="http://www.w3.org/2000/svg" viewBox="0 0 22.88 22.88"><defs><style>.cls-1{fill:#fa5;}</style></defs><g id="Layer_2" data-name="Layer 2"><g id="Option_1" data-name="Option 1"><path class="cls-1" d="M11.44,0A11.44,11.44,0,1,0,22.88,11.44,11.45,11.45,0,0,0,11.44,0Zm0,21.85A10.41,10.41,0,1,1,21.85,11.44,10.42,10.42,0,0,1,11.44,21.85Z"/><path class="cls-1" d="M15.41,7.47a.52.52,0,0,0-.73,0l-3.24,3.24L8.2,7.47a.51.51,0,0,0-.37-.15.51.51,0,0,0-.51.51.51.51,0,0,0,.15.37l3.24,3.24L7.47,14.68a.51.51,0,0,0-.15.36.51.51,0,0,0,.52.52.51.51,0,0,0,.36-.15l3.24-3.24,3.24,3.24a.51.51,0,0,0,.36.15.51.51,0,0,0,.52-.52.51.51,0,0,0-.15-.36l-3.24-3.24L15.41,8.2A.52.52,0,0,0,15.41,7.47Z"/></g></g></svg>