<svg xmlns="http://www.w3.org/2000/svg" xmlns:xlink="http://www.w3.org/1999/xlink" viewBox="0 0 330.09 219.38"><defs><style>.cls-1{isolation:isolate;}.cls-2{fill:#eaeaea;mix-blend-mode:multiply;}.cls-3{fill:#fff;}.cls-4{fill:#8f8f8f;}.cls-5{fill:#c2c2c2;}.cls-6{fill:#ffefe1;}.cls-7{fill:#323756;}.cls-8{fill:#ffd371;}.cls-9{fill:#e0ae4b;}.cls-10{fill:#ffa41c;}.cls-11{fill:#ffb940;}.cls-12{fill:#ddcbc4;}.cls-13{fill:#c4d1dc;}.cls-14{fill:#292929;}.cls-15{fill:#272b44;}.cls-16{fill:#51588c;}.cls-17{fill:#eba788;}.cls-18{fill:#292d46;}.cls-19{fill:#fa5;}.cls-20{fill:#434343;}.cls-21{fill:#a57862;}.cls-22{fill:#c78365;}.cls-23{fill:#cebeb7;}.cls-24{fill:#26354c;}.cls-25{fill:#304662;}.cls-26{fill:#ecd9d3;}.cls-27{fill:#c3c3c3;}.cls-28{fill:#fa8119;}.cls-29{fill:none;stroke:#422e2d;stroke-miterlimit:10;}.cls-30{fill:#422e2d;}.cls-31{fill:#e1d1ca;}.cls-32{fill:#706865;}.cls-33{fill:#cbbcb6;}.cls-34{fill:url(#linear-gradient);}.cls-35{fill:#b38f76;}.cls-36{fill:#75c189;}.cls-37{fill:#e9d7cf;}.cls-38{fill:#d89960;}.cls-39{fill:#424872;}.cls-40{fill:#3a3f47;}.cls-41{fill:#736a67;}.cls-42{fill:#5e5854;}.cls-43{fill:#beb1ab;}.cls-44{fill:url(#linear-gradient-2);}.cls-45{fill:#f4f6ff;}.cls-46{fill:#908682;}.cls-47{fill:#dee0e7;}</style><linearGradient id="linear-gradient" x1="72.75" y1="149.05" x2="72.75" y2="157.46" gradientUnits="userSpaceOnUse"><stop offset="0.08" stop-color="#bcd6e6"/><stop offset="1" stop-color="#e5e6e7"/></linearGradient><linearGradient id="linear-gradient-2" x1="-6278.43" y1="132.46" x2="-6232.85" y2="132.46" gradientTransform="matrix(-1, 0, 0, 1, -6182.88, 0)" xlink:href="#linear-gradient"/></defs><g class="cls-1"><g id="Layer_2" data-name="Layer 2"><g id="Option_1" data-name="Option 1"><ellipse id="_Path_" data-name="&lt;Path&gt;" class="cls-2" cx="216.53" cy="192.67" rx="113.56" ry="8.74"/><path class="cls-3" d="M202.78,46.14a11.46,11.46,0,0,1,3.26.47,9.3,9.3,0,0,1,17.41,1.12,6.77,6.77,0,0,1,2.4-.44,6.34,6.34,0,0,1,6.49,6.18h-38.7C193.64,49.42,197.73,46.14,202.78,46.14Z"/><path class="cls-3" d="M125.22,49.1a9.47,9.47,0,0,1,2.75.41,7.86,7.86,0,0,1,14.71.94,5.67,5.67,0,0,1,2-.37,5.35,5.35,0,0,1,5.48,5.22h-32.7C117.49,51.88,121,49.1,125.22,49.1Z"/><rect class="cls-4" x="158.28" y="128.13" width="19.86" height="60.31" transform="translate(336.42 316.57) rotate(180)"/><path class="cls-5" d="M216,34.74c-1.14-.09-2.3-.15-3.46-.15H123.92l-.16.15H82.47v120.8H254.33V34.74Z"/><rect class="cls-6" x="88.55" y="40.51" width="159.03" height="93.04"/><rect class="cls-5" x="123.55" y="186.16" width="89.33" height="4.55"/><path class="cls-7" d="M95.43,123.61h0S95.46,123.63,95.43,123.61Z"/><path class="cls-8" d="M230.69,152.37h61.13a0,0,0,0,1,0,0V171.2a0,0,0,0,1,0,0H230.69a9.42,9.42,0,0,1-9.42-9.42v0A9.42,9.42,0,0,1,230.69,152.37Z" transform="translate(513.08 323.57) rotate(-180)"/><polyline class="cls-9" points="256.52 152.37 208.82 152.37 208.82 154.31 209.98 154.31 209.98 169.26 208.82 169.26 208.82 171.2 256.52 171.2"/><path class="cls-10" d="M237.57,139.32h72.36a0,0,0,0,1,0,0v13a0,0,0,0,1,0,0H237.57a6.52,6.52,0,0,1-6.52-6.52v0a6.52,6.52,0,0,1,6.52-6.52Z"/><path class="cls-11" d="M273.76,139.32s-5.68.51-5.68,6.4,5.68,6.65,5.68,6.65h48.61V151h-1.16V140.66h1.16v-1.34h-49.6"/><path class="cls-3" d="M277.4,140.66h43.81a0,0,0,0,1,0,0V151a0,0,0,0,1,0,0H277.4a5.18,5.18,0,0,1-5.18-5.18v0A5.18,5.18,0,0,1,277.4,140.66Z"/><rect class="cls-12" x="294.93" y="142.87" width="18.62" height="0.37"/><rect class="cls-12" x="286.2" y="146.57" width="19.88" height="0.26"/><path class="cls-8" d="M231.07,126.27h50.86a0,0,0,0,1,0,0v13a0,0,0,0,1,0,0H231.07a6.52,6.52,0,0,1-6.52-6.52v0a6.52,6.52,0,0,1,6.52-6.52Z"/><path class="cls-9" d="M255.69,126.27H291v1.34h-.84V138H291v1.35H255.69s-5.6-.79-5.6-6.53S255.69,126.27,255.69,126.27Z"/><path class="cls-3" d="M259.68,127.61h30.46a0,0,0,0,1,0,0V138a0,0,0,0,1,0,0H259.68a5.18,5.18,0,0,1-5.18-5.18v0a5.18,5.18,0,0,1,5.18-5.18Z"/><rect class="cls-13" x="271.02" y="129.82" width="13.54" height="0.37"/><rect class="cls-13" x="264.67" y="133.52" width="14.46" height="0.26"/><rect class="cls-14" x="253.41" y="48.64" width="23.61" height="0.95" transform="matrix(0, -1, 1, 0, 214.93, 314.12)"/><path class="cls-14" d="M265.15,60.18h0c2.24.11,1.93,11.63,1.93,11.63h-4S262.91,60.27,265.15,60.18Z"/><polygon class="cls-15" points="209.56 28.55 187.81 15.66 233.45 3.29 283.86 39.82 256.37 45.49 209.56 28.55"/><path class="cls-16" d="M208.84,34.59s21.74-.16,45.1,15.17l4.55-8s-15.66-20.25-49-15.61Z"/><path class="cls-17" d="M191.32,102.15s1.53,3.49,3,3.06a13.29,13.29,0,0,1,4.33-.24c.92.1,3.89-.6,3.72.52s-4.86,1.37-5.84,1.61,2.54,2.74,2.79,3.69-4.68,6.51-6.87,4.53-3.11-5.57-3.57-5.84a26.29,26.29,0,0,1-2.48-3.12Z"/><path class="cls-17" d="M198.92,110.21s6.29,6.53,6.31,7.32-.39,1.11-1,.52-6.27-6.13-6.27-6.13,6,9,6.19,9.62c.09.37-.66,1-1,.76s-6.88-8.84-6.88-8.84,5.61,8.4,5.58,9a.76.76,0,0,1-1.33.36c-.46-.59-6.14-8.09-6.14-8.09s3.67,6.38,3.34,6.87c-.2.3-.82.9-1.71-.77s-3.44-5.4-3.44-5.4Z"/><path class="cls-18" d="M160.49,133.55h-19.4c-.42-2.25-.81-3.61-1.09-3.58s-.83,1.39-1.52,3.58H117.09c1-8.38,2.24-17.73,3.22-25.16.07-.46.13-.9.19-1.33.33-2.54.59-4.41.71-5.3.05-.39.08-.6.08-.6.46-.21.95-.41,1.46-.59,12.12-4.35,35.49.25,35.49.25s0,.12,0,.33.08.68.15,1.21c.13,1.15.33,2.87.56,4.85a.43.43,0,0,0,0,.05,1.1,1.1,0,0,0,0,.18c.81,7.08,1.22,11,1.86,18.53C160.9,126.4,160.75,129.35,160.49,133.55Z"/><path class="cls-19" d="M147.34,34.09s19.84,4.21,21.5,9.73,4.86,18.47,9.33,32.55C180.84,84.8,194.43,104,194.43,104s-7.77,5.73-7.77,5-18.31-25.19-18.53-28.17-5.77-18.21-5.77-18.21-2.62,29.28-2.62,33.8.3,13.68.3,13.68-7.36,2.82-21.64,2.08c0,0-22.72-.78-18.85-7.71,2.94-5.24,1.14-40.48.7-40.7s-8.37,9.71-7.59,11.62,21.27,8.76,21.27,8.76.6,2.21-2.58,7.21c0,0-30.63-9-30.74-10.82s12.74-38.29,16.94-40.2c6-2.75,21.84-7.06,21.84-7.06Z"/><path class="cls-17" d="M147,27.19s-.81,4.48.59,7.54c0,0,1.43,7.13-5.87,7.45S134.26,36,134.26,36s1.75-2.35.58-8.73S147,27.19,147,27.19Z"/><path class="cls-17" d="M142.57,1.27s9.35,1.51,7.93,16.48-9.67,13.74-10.23,13.73-8.27.27-8.88-18C131.39,13.47,131.13,0,142.57,1.27Z"/><path class="cls-17" d="M150.64,13.52s1-1.12,1.4,0-1.33,6-1.46,6.43c0,0-.19.44-.43.19S150.64,13.52,150.64,13.52Z"/><path class="cls-17" d="M131.62,13.33s-1-1.14-1.4,0,1.26,6.26,1.34,6.45c0,0,.18.44.43.2S131.62,13.33,131.62,13.33Z"/><path class="cls-20" d="M150.64,15.82l-1.34,1.83a36.58,36.58,0,0,0-.18-4.65c-.21-.63.25-2.82.08-3.27s-6.4,1.23-16.58.2c0,0,1.13,3.61.47,3.87s-.34,4.7-.34,4.7l-1.1-1.27s-1.24-7.59-1.12-8.86c.16-1.69-.41-9.57,13.92-8.21A8.65,8.65,0,0,1,149,1.93a6.52,6.52,0,0,1,2.85,5.41A84.84,84.84,0,0,1,150.64,15.82Z"/><path class="cls-21" d="M136,29.49s3.85,4.51,10,0c0,0-1.71,3.42-5.31,3.5S136,29.49,136,29.49Z"/><rect class="cls-8" x="111.47" y="54.93" width="30.06" height="45.27" transform="translate(26.64 -32.19) rotate(16.19)"/><path class="cls-22" d="M139.31,83.79s1.89-.05,2.46-.14.2,1.15-.47,1.38S139.31,83.79,139.31,83.79Z"/><path class="cls-17" d="M140.41,92.79a3.78,3.78,0,0,1-1.22.11s-.72-.21-1.24-.34l-.41-.07a7,7,0,0,1-2.22-.38c-.93-.36-4.1-2-4.1-2l.91-2.95.68-2.33s5.35-1.42,6.25-1.18l.26.08a9.3,9.3,0,0,1,1.57,1c.13.07,1.46.87,1.53,1.32a1.54,1.54,0,0,1-.42,1.41,3.66,3.66,0,0,1-.33,2,2.24,2.24,0,0,1-.67,1.86S141,92.47,140.41,92.79Z"/><path class="cls-19" d="M133.93,84.1a11.07,11.07,0,0,1-2.58,7.21s-22.49-7-25.17-8.07,9.73-34,9.73-34L125,52.31l-4.9,9.28s-2.43,5.2-7.48,13.75C112.66,75.34,115.77,78.29,133.93,84.1Z"/><path class="cls-19" d="M149.77,39.29l-2.08-6.54s-3.34,1.56-13,.48l-2.19,6.26S140.78,46.73,149.77,39.29Z"/><path class="cls-23" d="M241.71,125.15a6.32,6.32,0,0,1-.78-1.62,2,2,0,0,0-.45-.94s-2.54-.37-3.52-1.27-3.05-3.38-4-2.64.71,3.86,1.71,4.8,2.35,2.59,3.58,2.47S241.12,125.24,241.71,125.15Z"/><path class="cls-24" d="M241.71,125l-1.23-2.4s5.88-1.07,7.6-2.11l1.26-.76a22.23,22.23,0,0,0,1.92-1.27c.85-.73,4.25-3.14,5.17-4s2-.35,3.44-.33,6.62,1.45,8.17,1.66S275.2,117,275.2,117C274.21,119.7,241.71,125,241.71,125Z"/><path class="cls-25" d="M275.53,116.92s-3.16.45-4,.51-5.54.45-7.81.66-6.73.09-7.62.48-6,2.12-7.67,2.66-12.56,2.54-12.56,2.54a3.69,3.69,0,0,0,.78,2.6,42.16,42.16,0,0,1,7.33-.05,20.64,20.64,0,0,0,9.63-1.42c2.68-1.21,6.94-.1,9.31.73s11.46,1.51,12.6,1.25a11.25,11.25,0,0,0,5-3.12C282.21,122,275.53,116.92,275.53,116.92Z"/><path class="cls-26" d="M236.67,126.37a6.18,6.18,0,0,1-.37-1.75,1.61,1.61,0,0,0-.14-.9s-2.44-1.1-3.17-2.22-2.14-4-3.27-3.53-.25,3.92.49,5.07,1.2,4.23,2.42,4.41S236.07,126.32,236.67,126.37Z"/><path class="cls-25" d="M282.64,114.89s4,9.07-2.21,11.27c-4.95,1.76-14.07.14-14.07.14l5.61-8.84Z"/><path class="cls-7" d="M272.35,80.66c1.52.34.62,4.16,1.64,9.5s4.24,6.18,4.24,6.18A9.61,9.61,0,0,1,277,91.5c.12-1.94,2.47-7.22.15-10.67-1.79-2.67-4.94-.25-4.94-.25Z"/><path class="cls-17" d="M274.64,91.78l-3,3a6.73,6.73,0,0,0-.44-1.81c-.11-.27-.21-.53-.3-.72s-.19-.41-.19-.41l2.64-2.8Z"/><path class="cls-8" d="M271.12,94.53a7.47,7.47,0,0,1-.91,2.82c-.8,1.35-2.12,3.59-1.93,5.05a3.53,3.53,0,0,0,1.36,2.51,18.75,18.75,0,0,1,2.29,5.78,28,28,0,0,1-.05,6.71s10.38,1.21,11.42-.61c0,0-1.29-5.83-1.89-7.29S279.53,99.3,279,97.81a16.45,16.45,0,0,0-2.62-4c-.7-.92-2-2.64-2-2.64Z"/><path class="cls-17" d="M269.82,81a4.65,4.65,0,0,0-4.36,4.79,11,11,0,0,0,.55,1.7c.32.74-.1,3.07.09,3.16a5,5,0,0,0,.94.15S268.12,93.14,269,93a7.23,7.23,0,0,0,5.24-4.42C275.42,85.36,275.35,80.6,269.82,81Z"/><path class="cls-7" d="M265.46,85.76a12.36,12.36,0,0,0,4.61,1.3c2.23,0,4.06,3.63,4.06,3.63s2.7-6.06-.39-9.13S264.5,81.61,265.46,85.76Z"/><path class="cls-17" d="M270.6,87a.68.68,0,0,1,1.12-.62c.76.5.06,2.63-.53,2.5S270.63,87.48,270.6,87Z"/><path class="cls-21" d="M273.06,90.61A13.49,13.49,0,0,1,271.24,93c-.11-.27-.21-.53-.3-.72A9.33,9.33,0,0,0,273.06,90.61Z"/><rect class="cls-27" x="250.71" y="117.73" width="14.76" height="1.28" transform="matrix(-0.98, 0.19, -0.19, -0.98, 533.66, 186.81)"/><rect class="cls-27" x="239.93" y="113.28" width="14.76" height="1.28" transform="translate(293.21 382.31) rotate(-124.44)"/><path class="cls-17" d="M253.73,118.54c-.07-.32,0-.86,1-1.4s3.21-1.78,4-1.81,2.29.09,2.6.09-.49,1.83-.49,1.83Z"/><path class="cls-17" d="M261,115.56s4.23-1.67,4.92-2,3.89-1.41,4.17-1.55,1.62-8.14,1.74-10.16.24-6.28,2.51-6.09,2.82,1.69,2.54,4.62-2,13.46-2.68,13.82-8.87,2.18-13.17,3C256.88,118.06,261,115.56,261,115.56Z"/><path class="cls-8" d="M271.57,102.48s3.28.61,5.17.8c0,0,2.35-6.7-.85-7.77C272.09,94.24,271.25,99.44,271.57,102.48Z"/><path class="cls-28" d="M309.17,79a12,12,0,1,0,8.61,14.63A12,12,0,0,0,309.17,79Z"/><path class="cls-11" d="M308.16,78.74a12,12,0,1,0,8.61,14.63A12,12,0,0,0,308.16,78.74Z"/><path class="cls-10" d="M305.11,101.44a10.93,10.93,0,0,1-10.58-13.68h0a10.93,10.93,0,1,1,21.17,5.48A10.94,10.94,0,0,1,305.11,101.44Zm0-21.23a10.31,10.31,0,0,0-9.94,7.71h0a10.28,10.28,0,0,0,7.38,12.54,10.28,10.28,0,1,0,5.15-19.91A10,10,0,0,0,305.1,80.21Z"/><path class="cls-10" d="M309.52,84.78a3.79,3.79,0,0,1,1.29,5.55l-1.93-1.27a1.64,1.64,0,0,0-.48-2.53,1.74,1.74,0,0,0-2.64.7,6.63,6.63,0,0,0-.78,1.89L307.79,91l-1,1.44-2.43-1.61c-.07.13-.13.26-.21.38a4,4,0,0,1-2.6,1.75l5.29,3.5-1.11,1.67-7.24-4.78.38-1.3a4.52,4.52,0,0,0,3.3-2.17,2.53,2.53,0,0,0,.2-.36l-1.66-1.1.95-1.43,1.24.82a7.35,7.35,0,0,1,.91-2C305.22,83.68,307.47,83.43,309.52,84.78Z"/><path class="cls-28" d="M84,31a18.87,18.87,0,1,0-6.47,25.9A18.88,18.88,0,0,0,84,31Z"/><path class="cls-11" d="M82.63,31.79A18.88,18.88,0,1,0,76.16,57.7,18.87,18.87,0,0,0,82.63,31.79Z"/><path class="cls-10" d="M66.59,58.9a17.21,17.21,0,0,1-14.78-8.35h0A17.2,17.2,0,1,1,66.59,58.9ZM52.69,50a16.17,16.17,0,1,0,5.55-22.19A16.19,16.19,0,0,0,52.69,50Z"/><path class="cls-10" d="M62.1,31.89c3.65-2,6.58-.58,8.21,2.17l-3,1.65c-.78-1.37-2-2.05-3.66-1.13-1.4.76-2,2.09-.93,4a10.7,10.7,0,0,0,1.94,2.34l4.4-2.4,1.23,2.24-3.81,2.08a6.22,6.22,0,0,1,.35.54,6.12,6.12,0,0,1,.5,4.65l8.28-4.52L77,46.1,65.67,52.29l-1.43-1.4A6.74,6.74,0,0,0,63.68,45a4.21,4.21,0,0,0-.34-.52l-2.6,1.42-1.22-2.25,1.94-1.06a11.09,11.09,0,0,1-2-2.62C57.66,36.77,58.9,33.64,62.1,31.89Z"/><path class="cls-29" d="M144,14.34a2.84,2.84,0,0,1,3,.52"/><path class="cls-29" d="M136,15.54a2.86,2.86,0,0,1,2.93-.83"/><path class="cls-3" d="M144.14,24.69a45.46,45.46,0,0,1-6.94-.53,6.7,6.7,0,0,0,5.06,2.73C143,26.88,144.14,24.69,144.14,24.69Z"/><ellipse class="cls-30" cx="137.63" cy="18.47" rx="1.53" ry="0.85" transform="matrix(0.08, -1, 1, 0.08, 108.85, 154.32)"/><ellipse class="cls-30" cx="145.25" cy="18.1" rx="1.53" ry="0.85" transform="translate(116.27 161.58) rotate(-85.68)"/><path class="cls-30" d="M141.26,17.79a4.64,4.64,0,0,0,.42,1.89,14.2,14.2,0,0,0,1,1.67,1,1,0,0,1-.19,1.16c-.23.28-.46.4-.43.48s.31.09.71-.17a1.57,1.57,0,0,0,.54-.65,1.41,1.41,0,0,0,0-1.09,5.38,5.38,0,0,0-.5-.93,5.33,5.33,0,0,1-.41-.83,4.69,4.69,0,0,1-.31-1.58c0-.9,0-1.4-.24-1.47S141.26,16.66,141.26,17.79Z"/><path class="cls-11" d="M235,171.13h47.88v2.51h-1.15V193h1.15v2.51H235s-13.08-.71-13.08-12.49S235,171.13,235,171.13Z"/><path class="cls-10" d="M262.32,195.53l-5.46-.08a4.35,4.35,0,0,1-.71-.18l-.13,0-.26-.09a12.26,12.26,0,0,1-1.44-22.61,4.54,4.54,0,0,1,3.28-1.4h47.88v2.51h-1.15V193h1.15v2.51H262.32"/><path class="cls-3" d="M266.23,173.64h38.09a0,0,0,0,1,0,0V193a0,0,0,0,1,0,0H266.23a9.69,9.69,0,0,1-9.69-9.69v0A9.69,9.69,0,0,1,266.23,173.64Z"/><rect class="cls-12" x="278.04" y="183.23" width="18.62" height="0.48"/><rect class="cls-12" x="269.31" y="184.69" width="19.88" height="0.48"/><path class="cls-9" d="M256.53,152.37s8.14,1.34,8.14,9.62-8.14,9.21-8.14,9.21Z"/><path class="cls-3" d="M217.46,154.3h41.17a0,0,0,0,1,0,0v15a0,0,0,0,1,0,0H217.46a7.48,7.48,0,0,1-7.48-7.48v0a7.48,7.48,0,0,1,7.48-7.48Z" transform="translate(468.61 323.57) rotate(180)"/><rect class="cls-13" x="229.18" y="158.84" width="14.42" height="0.29" transform="translate(472.78 317.98) rotate(180)"/><rect class="cls-13" x="234.96" y="159.72" width="15.4" height="0.29" transform="translate(485.33 319.72) rotate(180)"/><ellipse id="_Path_2" data-name="&lt;Path&gt;" class="cls-2" cx="62.4" cy="213.72" rx="62.4" ry="5.66"/><rect class="cls-31" x="49.03" y="155.39" width="19.91" height="1.18"/><rect class="cls-32" x="51.7" y="159.65" width="1.75" height="53.76" transform="translate(105.15 373.07) rotate(180)"/><rect class="cls-33" x="65.83" y="155.06" width="13.84" height="1.69"/><rect class="cls-34" x="70.13" y="140.66" width="5.24" height="15.92"/><rect class="cls-35" x="41.89" y="156.6" width="76.69" height="3.06"/><path class="cls-36" d="M27.17,138.09s-.84,11.77,1.46,13.18c1.44.88,7.18,3.85,7,4.41s-3.24,5-3.24,5-11-7.26-11.38-9.55.54-17.22,2.06-17.91c1.13-.52,1.73-.09,3.16,1A3.34,3.34,0,0,1,27.17,138.09Z"/><path class="cls-37" d="M47.27,141.45l1-.36s-1.21-2.84-1.74-2.77a13.29,13.29,0,0,0-1.37.28Z"/><path class="cls-38" d="M47.49,141.94c-.12-.09-2.07-3.81-2.07-3.81l-4.14.56,2.24,4.41Z"/><path class="cls-39" d="M40.74,206.07l-.39,2.74c0,.36-3.81-.21-3.81-.21l-.31-2.83S40.27,205.74,40.74,206.07Z"/><path class="cls-18" d="M40.39,208.51a10.43,10.43,0,0,0,2.35,2.06c1.16.62,3,.87,3.66,1.52.49.46,1.8,2.48-3,2.43s-7.12.29-7.63-.48.74-5.69.74-5.69A10.13,10.13,0,0,0,40.39,208.51Z"/><path class="cls-39" d="M64.9,206.1s-.34,2.38-.38,2.73-3.82-.21-3.82-.21l-.3-2.83S64.43,205.76,64.9,206.1Z"/><path class="cls-18" d="M64.56,208.53a10.19,10.19,0,0,0,2.35,2.06c1.15.63,5.41,1.14,6.09,1.79.49.46,1.31,2.34-5.44,2.17-4.8-.13-7.11.28-7.63-.49s.75-5.69.75-5.69A9.14,9.14,0,0,0,64.56,208.53Z"/><path class="cls-18" d="M28.57,165s13.72,2.32,16.81,2.81,19.89,4.66,22,5.93c1.67,1-.87,25.36-1.47,34.65H59.29l-.48-27.86c-7.94.2-13.6-1.86-19.38-1s-10.6,2.12-14.28-2.8C25.15,176.71,25,166,28.57,165Z"/><path class="cls-18" d="M42.09,208.37l-6.45-.4L35,180.49a39.24,39.24,0,0,1-7.35-.47l-5.2-12.1c4.56.92,19.17,4.6,21.12,5.78C45.25,174.72,42.68,199.08,42.09,208.37Z"/><path class="cls-17" d="M34.89,113.56s5-1.39,6.94,2.51,1.05,11.3-1.49,12-6.17-.11-7.22-2.54a18.51,18.51,0,0,1-1.64-8.11A4.88,4.88,0,0,1,34.89,113.56Z"/><path class="cls-17" d="M39,127.29a15.73,15.73,0,0,0,.27,3.6c.33.63-7,.47-7,.47a14.78,14.78,0,0,0,.5-6.6C32.15,121.76,39,127.29,39,127.29Z"/><path class="cls-40" d="M32.41,123.64s.39.8,2.29.67,4.39-2.42,5.2-2.62.85-.67.85-.67l.43.76.82.13s-.56-2.3.66-3.1-.55-7.31-6.73-5.75c0,0-4.72.87-4.78,3.5S31.49,122.24,32.41,123.64Z"/><path class="cls-31" d="M39.69,130.81s0-1.21-.57-1.32-5.76-.83-6.43-.57l-.29,1.6S33.7,131.31,39.69,130.81Z"/><path class="cls-17" d="M41.2,120.48c-.14-1-1.27-2.12-1.92-.58s.44,3.79,1.16,3.67S41.39,121.83,41.2,120.48Z"/><path class="cls-7" d="M61.52,145.1h0S61.55,145.11,61.52,145.1Z"/><path class="cls-40" d="M33.42,114.27s-6.13-.29-1.07,9.28Z"/><polygon class="cls-41" points="19.76 211.63 20.22 212.91 39.48 206.94 38.56 204.35 19.76 211.63"/><rect class="cls-41" x="37.95" y="185.09" width="2.19" height="20.94"/><rect class="cls-42" x="32.59" y="183.97" width="12.91" height="1.23"/><polygon class="cls-41" points="58.51 211.63 58.05 212.91 38.78 206.94 39.63 204.18 58.51 211.63"/><polygon class="cls-41" points="44.93 212.78 44.93 214.27 38.78 206.94 39.63 204.18 44.93 212.78"/><circle class="cls-43" cx="58.51" cy="213.41" r="1.8"/><path class="cls-43" d="M45.09,213.41a1.81,1.81,0,1,1-1.81-1.8A1.8,1.8,0,0,1,45.09,213.41Z"/><path class="cls-43" d="M21.56,213.41a1.8,1.8,0,1,1-1.8-1.8A1.79,1.79,0,0,1,21.56,213.41Z"/><rect class="cls-41" x="23.84" y="179.3" width="30.6" height="4.67" rx="2.34"/><rect class="cls-32" x="107.03" y="159.65" width="1.75" height="53.76"/><path class="cls-44" d="M88.52,148.32H57.1c-8.73,0-7,2.2-7-6.53V124.11c0-8.72-.77-7.72,8-7.72H88.52c8.73,0,6.86-1,6.86,7.72v16.7C95.38,149.54,97.25,148.32,88.52,148.32Z"/><rect class="cls-45" x="51.89" y="118.12" width="41.72" height="25.2"/><path class="cls-3" d="M82.12,156.64v-.57s-.8-3.54-6.45-3.54-5.53,4.11-5.53,4.11Z"/><path class="cls-17" d="M70.07,153.06a5.67,5.67,0,0,0,1.68-.37c.45-.27,3.14-2.08,3.77-1.79s4.84,1.58,4.69,2.19-.53.56-.83.45a21.34,21.34,0,0,0-3.62-.64s3,1.09,3,1.89-.63,1-.91,1.3-.63,1-1.4,1.11-4.55-1.26-5.32-1.32a18.05,18.05,0,0,1-2.31-.08A21.47,21.47,0,0,1,70.07,153.06Z"/><path class="cls-36" d="M47.72,132.49c-3.91-.69-8-1.68-8-1.68l-7.29-.29a70.58,70.58,0,0,0-9.32,2.66c-.25.11-.26,6-.94,7.5l2.18,4.61s1.26,9.13,1.53,13.19c.12,1.86-.34,18-.34,18s.65.32,5.63.87,17.4-.2,17.48-.78-2.41-21.88-2.52-23c-.17-1.69.49-9.51.49-9.51.94,1.26,3.33,6.95,5.82,9.65,1.46,1.59,8.72,2.57,10.08,2.62,3,.09,8.41.69,8.57.4s.47-4.82.13-4.94-10.38-.68-13-2.05c-.95-.5-3.77-6.66-3.77-6.66S49.88,133.46,47.72,132.49Z"/><rect class="cls-41" x="16.69" y="146.8" width="21.1" height="29.22" rx="10.55"/><path class="cls-46" d="M34.05,182.81a9.68,9.68,0,0,1-7.5-3.11c-4.22-4.65-3.46-12.84-3.43-13.18a1.18,1.18,0,1,1,2.34.23c0,.09-.68,7.51,2.83,11.38a7.33,7.33,0,0,0,5.76,2.33,1.18,1.18,0,0,1,0,2.35Z"/><rect class="cls-47" x="54.85" y="120.13" width="12.22" height="1.33" rx="0.67"/><rect class="cls-47" x="54.85" y="122.98" width="12.22" height="1.33" rx="0.67"/><rect class="cls-47" x="71.83" y="120.19" width="19.64" height="20.62"/><rect class="cls-47" x="55.13" y="126.08" width="11.79" height="14.73"/></g></g></g></svg>