<svg xmlns="http://www.w3.org/2000/svg" viewBox="0 0 322.98 235.33"><defs><style>.cls-1{isolation:isolate;}.cls-2{opacity:0.25;}.cls-3{fill:#4ec0c4;}.cls-4{fill:#e4f2f1;}.cls-5{fill:#fa5;}.cls-6{fill:#ffd371;}.cls-7{fill:#fff;}.cls-8{fill:#fb6265;}.cls-9{fill:#64516d;}.cls-10{fill:#332938;}.cls-11{fill:#7f454b;}.cls-12{fill:#f49971;}.cls-13,.cls-16{fill:#b96438;}.cls-13{opacity:0.5;}.cls-14{fill:#fc7465;}.cls-15{opacity:0.15;mix-blend-mode:multiply;}.cls-17{fill:#46c7ce;}.cls-18{fill:#ebfffe;}.cls-19{fill:#c6e9fb;}.cls-20{fill:#f0d39f;}.cls-21{fill:#f9c382;}.cls-22{fill:#a15b60;}.cls-23{fill:#c45553;}</style></defs><g class="cls-1"><g id="Layer_2" data-name="Layer 2"><g id="Option_1" data-name="Option 1"><g class="cls-2"><path class="cls-3" d="M8.08,77.11C.52,90.56-4.06,108.29,5,120.75c5.39,7.39,14.67,11.43,19.36,19.3,6,10.11,2.59,23.08-2.06,33.89s-10.53,22-8.91,33.65c2.14,15.31,17.47,26.32,32.87,27.59s30.46-5.28,43.37-13.78S114.77,202.14,130,200c13-1.85,25.93,3,37.6,9s22.91,13.12,35.56,16.5c24.25,6.48,52-3.15,67-23.25s16.41-49.45,3.34-70.88c-4.52-7.41-10.74-16.53-6-23.79,4.28-6.51,14.51-6,19.89-11.62,6.17-6.47,2.95-17.18-1.7-24.81a95.2,95.2,0,0,0-38.16-35.22S117.31-37.85,47.66,26.08C18.29,53,8.08,77.11,8.08,77.11Z"/></g><path class="cls-4" d="M37.41,33.57a5.56,5.56,0,0,0-5.55,5.55V197.53a5.56,5.56,0,0,0,5.55,5.55H253.84a5.56,5.56,0,0,0,5.55-5.55V39.12a5.56,5.56,0,0,0-5.55-5.55Z"/><path class="cls-5" d="M30.4,53.87H260.85V46.4c0-3.94.28-9.8-2.3-12.39s-8-1.9-12-1.9H44.69c-3.89,0-9.77.22-12.35,2.74S30.4,42.4,30.4,46.4Z"/><path class="cls-5" d="M28.94,197.53V39.12a8.48,8.48,0,0,1,8.47-8.47H253.84a8.48,8.48,0,0,1,8.47,8.47V197.53a8.48,8.48,0,0,1-8.47,8.47H37.41A8.48,8.48,0,0,1,28.94,197.53Zm8.47-164a5.56,5.56,0,0,0-5.55,5.55V197.53a5.56,5.56,0,0,0,5.55,5.55H253.84a5.56,5.56,0,0,0,5.55-5.55V39.12a5.56,5.56,0,0,0-5.55-5.55Z"/><circle class="cls-6" cx="234.91" cy="43.2" r="3.32"/><circle class="cls-7" cx="248.4" cy="43.2" r="3.32"/><circle class="cls-8" cx="221.99" cy="43.2" r="3.32"/><path class="cls-9" d="M237.61,151.71l-9,51.37H164.77l.7-4,.07-.38L169,179.47l.27-1.54.44-2.48.85-4.8.36-2.05,1.62-9.11.46-2.62L175.25,144h56A6.49,6.49,0,0,1,237.61,151.71Z"/><path class="cls-10" d="M222,144l-10.49,59.12h-88.3L126,187.21l1.84-10.47L132.21,152A10,10,0,0,1,142,144Z"/><path class="cls-11" d="M124.83,91.57s8,5-1.52,13.26-15.94,21.58-10.31,31a24.61,24.61,0,0,0,14.38,11.33l29.9-32.74S168,76,124.83,91.57Z"/><ellipse class="cls-11" cx="143.74" cy="87.5" rx="20.46" ry="19.52" transform="translate(-13.47 27.49) rotate(-10.44)"/><rect class="cls-12" x="138.91" y="96.95" width="16.75" height="19.49" transform="matrix(0.98, -0.18, 0.18, 0.98, -16.89, 28.45)"/><polygon class="cls-10" points="139.44 110.38 149.35 107.26 140.35 115.31 139.44 110.38"/><path class="cls-12" d="M139.23,110.85l15.82-4.79L151.47,86.6a11.88,11.88,0,0,0-14.05-9.2h0A11.88,11.88,0,0,0,127.57,91l2.36,12.83C130.8,108.55,135,112.51,139.23,110.85Z"/><path class="cls-13" d="M128.54,96.3l1.15,6.23a2.57,2.57,0,0,0,.73,0,3.31,3.31,0,0,0-1.19-6.45A2.69,2.69,0,0,0,128.54,96.3Z"/><path class="cls-11" d="M149,89.94l3.62-.66-3.11-16.87L129,76.18h0A17.15,17.15,0,0,0,149,89.94Z"/><circle class="cls-14" cx="153.28" cy="93.05" r="5.54"/><path class="cls-13" d="M140.6,97.4a3.47,3.47,0,1,0,2.79-4A3.48,3.48,0,0,0,140.6,97.4Z"/><path class="cls-10" d="M140.36,104.8a2.81,2.81,0,0,1-.86-.11l.26-.83-.13.42.13-.42c.08,0,2.08.58,3.6-1.81l.74.48A4.35,4.35,0,0,1,140.36,104.8Z"/><path class="cls-10" d="M140.05,94.4a1.09,1.09,0,1,0,.88-1.28A1.1,1.1,0,0,0,140.05,94.4Z"/><path class="cls-10" d="M130.61,96.13a1.1,1.1,0,1,0,.88-1.27A1.09,1.09,0,0,0,130.61,96.13Z"/><path class="cls-10" d="M135.88,100.37a1,1,0,0,1-.54-.16,1,1,0,0,1-.44-.76l-.31-4.82.88-.06.3,4.82.29.51-.63-.3,2.8-.94.3.82-2.32.83A1,1,0,0,1,135.88,100.37Z"/><path class="cls-12" d="M120.1,203.08H98.65l-22.8-42.56s32.65,4.89,42.78,35.61A29.41,29.41,0,0,1,120.1,203.08Z"/><path class="cls-12" d="M68.32,162.32s-6-13-3.81-13.46,7.22,11,7.22,11Z"/><path class="cls-12" d="M66.27,157.34l9.82-.46A6.66,6.66,0,0,1,83,162.5l.43,2.76S71.19,173,60.84,167.31Z"/><path class="cls-12" d="M66.77,167.73s-12-16.76-9.26-17.59,13.31,14,13.31,14Z"/><path class="cls-12" d="M60.84,167.31c-3.82-2.31-11.43-14.95-9-15.69S65.18,165,65.18,165Z"/><polygon class="cls-5" points="179.08 203.08 97.86 203.08 104.39 174.12 105.31 170.13 105.55 169.13 105.55 169.12 106.7 164.13 106.8 163.7 108.1 158.11 112.21 140.35 114.73 138.37 140.81 117.8 156.88 114.84 156.88 114.84 157.28 114.76 157.28 114.77 157.28 114.77 164.73 124 165.73 125 168.73 128 168.73 128 168.53 132.11 170.25 143.96 172.5 159.49 173.87 168.96 174.79 175.28 174.79 175.29 176.25 185.34 177.78 195.85 178.32 199.56 179.08 203.08"/><path class="cls-5" d="M169.22,128.51s39.18,38.86,30.58,54.73c-12.84,23.7-44.75-19-44.75-19Z"/><polygon class="cls-15" points="179.35 203.08 125.53 203.08 130.22 190.05 130.48 189.32 135.08 176.52 146.79 143.96 148.64 138.81 149.17 137.33 157.28 114.77 157.28 114.76 166.09 124.91 166.67 125.57 169.21 128.51 171.25 143.96 172.96 156.87 174.57 169.05 175.4 175.26 176.77 185.69 176.77 185.69 178.1 195.7 178.61 199.57 179.35 203.08"/><polygon class="cls-10" points="148.64 138.81 156.53 133.02 157.67 132.18 166.66 125.57 166.09 124.91 149.18 137.33 148.64 138.81"/><polygon class="cls-10" points="157.71 132.04 157.67 132.18 154.44 143.96 145.63 176.19 145.63 176.19 141.64 190.74 140.58 194.64 140.42 195.21 140.42 195.21 138.27 203.08 137.36 203.08 139.6 194.88 140.19 192.74 140.99 189.81 144.71 176.22 153.53 143.96 156.53 133.02 156.86 131.81 157.71 132.04"/><path class="cls-16" d="M125.9,154.84s1.43-15.34-.92-15-3.43,13.71-3.43,13.71Z"/><path class="cls-12" d="M190.1,177.79,120.5,162.3s14.53,32.4,49.29,34C193.26,197.36,190.1,177.79,190.1,177.79Z"/><path class="cls-12" d="M120.18,154s-15.21-2.42-15-.05,13.45,4.3,13.45,4.3Z"/><path class="cls-12" d="M114.43,153.31l2.38,10.3a7.15,7.15,0,0,0,7.81,5.5l3-.35s4.5-14.91-4.42-24Z"/><path class="cls-12" d="M125.34,150.81s-20.83-7.55-20.9-4.5,18.35,9.74,18.35,9.74Z"/><path class="cls-12" d="M123.19,144.79c-3.51-3.29-18.8-7.51-18.87-4.79S122.07,150,122.07,150Z"/><path class="cls-5" d="M162.53,199l0-31.45L183,170.07a14.83,14.83,0,0,1,12.89,12.63h0a14.84,14.84,0,0,1-15.19,16.94Z"/><polygon class="cls-15" points="170.54 168.52 170.25 199.29 169.03 199.25 169.32 168.51 170.54 168.52"/><path class="cls-7" d="M151.54,87.48l4.29-.65-1.25-8.32a15.81,15.81,0,0,0-18-13.26l-2,.3.65,4.3,2-.31a11.47,11.47,0,0,1,13,9.62Z"/><circle class="cls-10" cx="153.45" cy="91.18" r="7.61" transform="translate(18.99 208.58) rotate(-71.84)"/><path class="cls-7" d="M150,111.87a15,15,0,0,0,6.16-6.06c2.07-4,.84-10.36.79-10.62l-1.31.26c0,.06,1.19,6.13-.66,9.76a13.83,13.83,0,0,1-5.56,5.46Z"/><path class="cls-7" d="M147.69,111.58a2.08,2.08,0,1,0,1.75-2.37A2.08,2.08,0,0,0,147.69,111.58Z"/><path class="cls-7" d="M148.24,92a7,7,0,1,0,5.9-8A7,7,0,0,0,148.24,92Z"/><path class="cls-10" d="M152.1,91.39a4.34,4.34,0,1,0,3.64-4.94A4.32,4.32,0,0,0,152.1,91.39Z"/><rect class="cls-7" x="226.94" y="107.84" width="96.04" height="35.41" rx="11.06"/><path class="cls-17" d="M259.4,126.23A11.37,11.37,0,1,1,248,114.86,11.33,11.33,0,0,1,259.4,126.23Z"/><circle class="cls-18" cx="248.03" cy="123.56" r="4.12"/><path class="cls-18" d="M256.57,133.74a11.38,11.38,0,0,1-17.08,0,9.62,9.62,0,0,1,17.08,0Z"/><path class="cls-19" d="M305,120.54H266.68a1.88,1.88,0,0,1-1.88-1.89h0a1.88,1.88,0,0,1,1.88-1.88H305a1.89,1.89,0,0,1,1.89,1.88h0A1.89,1.89,0,0,1,305,120.54Z"/><path class="cls-19" d="M305,127.43H266.68a1.88,1.88,0,0,1-1.88-1.88h0a1.89,1.89,0,0,1,1.88-1.89H305a1.89,1.89,0,0,1,1.89,1.89h0A1.89,1.89,0,0,1,305,127.43Z"/><path class="cls-19" d="M292.67,134.33h-26a1.89,1.89,0,0,1-1.88-1.89h0a1.89,1.89,0,0,1,1.88-1.89h26a1.89,1.89,0,0,1,1.89,1.89h0A1.89,1.89,0,0,1,292.67,134.33Z"/><rect class="cls-7" x="226.94" y="66.92" width="96.04" height="35.41" rx="11.06"/><path class="cls-17" d="M259.4,85.31A11.37,11.37,0,1,1,248,73.94,11.35,11.35,0,0,1,259.4,85.31Z"/><circle class="cls-18" cx="248.03" cy="82.64" r="4.12" transform="translate(110.39 304.91) rotate(-76.66)"/><path class="cls-18" d="M256.57,92.82a11.38,11.38,0,0,1-17.08,0,9.62,9.62,0,0,1,17.08,0Z"/><path class="cls-19" d="M305,79.62H266.68a1.89,1.89,0,0,1-1.88-1.89h0a1.88,1.88,0,0,1,1.88-1.88H305a1.89,1.89,0,0,1,1.89,1.88h0A1.89,1.89,0,0,1,305,79.62Z"/><path class="cls-19" d="M305,86.51H266.68a1.88,1.88,0,0,1-1.88-1.88h0a1.88,1.88,0,0,1,1.88-1.89H305a1.89,1.89,0,0,1,1.89,1.89h0A1.89,1.89,0,0,1,305,86.51Z"/><path class="cls-19" d="M292.67,93.41h-26a1.89,1.89,0,0,1-1.88-1.89h0a1.89,1.89,0,0,1,1.88-1.89h26a1.89,1.89,0,0,1,1.89,1.89h0A1.89,1.89,0,0,1,292.67,93.41Z"/><path class="cls-3" d="M99.39,53.61A45,45,0,0,1,86.17,85.53,46.39,46.39,0,0,1,81.9,89.3a45,45,0,0,1-27.65,9.45c-.61,0-1.21,0-1.81,0l-1,0-.67,0a43.94,43.94,0,0,1-7.57-1.22c-.42-.1-.84-.21-1.25-.33l-.68-.2-.77-.23-.82-.27-.32-.11c-.58-.21-1.16-.42-1.73-.65A45.12,45.12,0,0,1,23.81,87c-.51-.46-1-.93-1.49-1.42A45.15,45.15,0,1,1,99.39,53.61Z"/><path class="cls-20" d="M81.9,89.3a45,45,0,0,1-27.65,9.45c-.61,0-1.21,0-1.81,0l-1,0-.67,0a43.94,43.94,0,0,1-7.57-1.22c-.42-.1-.84-.21-1.25-.33l-.68-.2-.77-.23-.82-.27-.32-.11c-.58-.21-1.16-.42-1.73-.65A45.12,45.12,0,0,1,23.81,87,17.64,17.64,0,0,1,28,83.34L47.85,71H59.09l2.63,2.11Z"/><path class="cls-21" d="M47.85,71H59.09l2.63,2.11S60.43,78.27,56,78.21s-10.5-5.79-10.5-5.79Z"/><ellipse class="cls-10" cx="52.17" cy="46.32" rx="20.56" ry="19.62"/><rect class="cls-22" x="47.85" y="57.87" width="11.25" height="13.09"/><polygon class="cls-10" points="59.09 65.9 52.17 65.04 59.09 69.27 59.09 65.9"/><path class="cls-22" d="M59.3,66.86l-11-1.92V53.17a8,8,0,0,1,8.16-7.79h0a8,8,0,0,1,8.16,7.79v9.28C64.58,65.67,62.31,67.44,59.3,66.86Z"/><rect class="cls-10" x="47.49" y="42.48" width="4.6" height="13.14"/><path class="cls-23" d="M64.58,55.27v4.26a1.92,1.92,0,0,1-.48.07,2.22,2.22,0,0,1,0-4.4A1.92,1.92,0,0,1,64.58,55.27Z"/><path class="cls-22" d="M50.49,56.39a3.72,3.72,0,1,1-3.72-3.72A3.71,3.71,0,0,1,50.49,56.39Z"/><circle class="cls-23" cx="54.42" cy="57.47" r="2.33"/><path class="cls-7" d="M54.78,58l3.45,3.91S53.68,62.45,54.78,58Z"/><path class="cls-10" d="M56.75,55.41a.74.74,0,1,1-.74-.73A.74.74,0,0,1,56.75,55.41Z"/><path class="cls-10" d="M63.19,55.41a.73.73,0,0,1-.73.74.74.74,0,1,1,0-1.47A.73.73,0,0,1,63.19,55.41Z"/><path class="cls-10" d="M60.11,58.86H58.67v-.59l1.49,0h0l0-.08V57.4h.59v.76a.65.65,0,0,1-.2.52A.67.67,0,0,1,60.11,58.86Z"/><path class="cls-22" d="M42,97.07l-.68-.2-.77-.23-.82-.27-.32-.11.69-.28.45-.18.79-.32h0Z"/><path class="cls-22" d="M47.85,71H59.09s-.62,3.93-3.81,3.93S47.85,71,47.85,71Z"/><path class="cls-7" d="M54.25,100.58c-.63,0-1.27,0-1.88,0l-1-.05-.69,0a47.41,47.41,0,0,1-7.88-1.27c-.42-.1-.86-.22-1.3-.35l-.69-.19-.07,0L40,98.37l-.86-.28L38.81,98c-.58-.2-1.16-.42-1.8-.67a46.73,46.73,0,0,1-14.43-9c-.53-.49-1-1-1.55-1.48A47,47,0,0,1,87.46,20.39a47,47,0,0,1,0,66.43A48.6,48.6,0,0,1,83,90.74,46.58,46.58,0,0,1,54.25,100.58Zm0-90.3a43.33,43.33,0,0,0-30.64,74c.46.46.94.92,1.43,1.36a43.19,43.19,0,0,0,13.3,8.32c.59.23,1.13.43,1.66.61l.3.11.8.26.69.21.05,0,.63.18,1.21.32A42.21,42.21,0,0,0,51,96.8l.63,0,.93,0c.57,0,1.16,0,1.74,0A43.32,43.32,0,0,0,84.88,23,43,43,0,0,0,54.25,10.28Z"/><circle class="cls-5" cx="92.66" cy="37.39" r="18.76" transform="translate(0.7 76.47) rotate(-45)"/><path class="cls-7" d="M92.66,57.32a19.94,19.94,0,1,1,19.93-19.93A20,20,0,0,1,92.66,57.32Zm0-37.52a17.59,17.59,0,1,0,17.59,17.59A17.61,17.61,0,0,0,92.66,19.8Z"/><path class="cls-7" d="M86.81,37.39a1.9,1.9,0,1,1-1.9-1.9A1.9,1.9,0,0,1,86.81,37.39Z"/><path class="cls-7" d="M94.55,37.39a1.89,1.89,0,1,1-1.89-1.9A1.89,1.89,0,0,1,94.55,37.39Z"/><path class="cls-7" d="M102.3,37.39a1.9,1.9,0,1,1-1.89-1.9A1.89,1.89,0,0,1,102.3,37.39Z"/></g></g></g></svg>