<svg xmlns="http://www.w3.org/2000/svg" viewBox="0 0 210.37 156.79"><defs><style>.cls-1{isolation:isolate;}.cls-2{opacity:0.25;}.cls-3{fill:#75c189;}.cls-4{fill:#eaeaea;mix-blend-mode:multiply;}.cls-5{fill:#fff;}.cls-6{fill:#dcdcdc;}.cls-7{fill:#c2c2c2;}.cls-8{fill:#f7b897;}.cls-9{fill:#a05f4e;}.cls-10{fill:#46c7ce;}.cls-11{fill:#e67779;}.cls-12{fill:#352f31;}.cls-13{fill:#ef846f;}.cls-14{fill:#d7634e;}.cls-15{fill:#504647;}.cls-16{fill:#363638;}.cls-17{fill:#ffd371;}.cls-18{fill:#cc5b54;}</style></defs><g class="cls-1"><g id="Layer_2" data-name="Layer 2"><g id="Option_1" data-name="Option 1"><g class="cls-2"><path class="cls-3" d="M191,132.72c38.86-29.9,7.39-50.81,7.39-50.81a40.08,40.08,0,0,1-13.43-18.28c-5.32-14.72,6.33-32.08-.31-46.25C179.72,7,166.68,2.89,155.17,3.5S132.58,8.16,121.1,9c-13.77,1-27.39-2.54-40.94-5.17S52.25-.4,39.29,4.33,15.4,21.92,17.17,35.61c.8,6.17,4,12.24,2.63,18.31C17.65,63.29,6,67.21,1.63,75.8c-4.22,8.39.55,18.14,5.23,26.29,19,33.1,54.61,47.23,83.78,52.9C90.64,155,147.49,166.18,191,132.72Z"/></g><ellipse id="_Path_" data-name="&lt;Path&gt;" class="cls-4" cx="38.38" cy="152.05" rx="25.43" ry="4.41"/><ellipse id="_Path_2" data-name="&lt;Path&gt;" class="cls-4" cx="170.56" cy="152.05" rx="24.33" ry="4.41"/><path class="cls-3" d="M161.17,66A66,66,0,1,1,103,.47c1,.11,1.91.25,2.86.4.72.12,1.45.25,2.16.4A66,66,0,0,1,161.17,66Z"/><circle class="cls-5" cx="95.17" cy="66.01" r="59.56" transform="translate(-18.8 86.62) rotate(-45)"/><path class="cls-6" d="M75,31.45a.64.64,0,0,1-.55-.31l-5.73-9.93a.64.64,0,1,1,1.1-.64l5.73,9.93a.64.64,0,0,1-.23.87A.61.61,0,0,1,75,31.45Z"/><path class="cls-6" d="M60.21,46.18a.59.59,0,0,1-.31-.09L50,40.36a.63.63,0,1,1,.63-1.1L60.53,45a.64.64,0,0,1,.23.87A.65.65,0,0,1,60.21,46.18Z"/><path class="cls-6" d="M50.2,92.22a.61.61,0,0,1-.55-.32.62.62,0,0,1,.23-.86l9.93-5.74a.64.64,0,0,1,.87.24.63.63,0,0,1-.24.86l-9.93,5.73A.61.61,0,0,1,50.2,92.22Z"/><path class="cls-6" d="M69.12,111.2a.61.61,0,0,1-.32-.08.64.64,0,0,1-.23-.87l5.73-9.93a.63.63,0,0,1,.87-.23.64.64,0,0,1,.23.87l-5.73,9.93A.65.65,0,0,1,69.12,111.2Z"/><path class="cls-6" d="M120.89,111.29a.63.63,0,0,1-.55-.32L114.61,101a.63.63,0,0,1,1.1-.63l5.73,9.93a.64.64,0,0,1-.55,1Z"/><path class="cls-6" d="M139.87,92.37a.61.61,0,0,1-.31-.09l-9.93-5.73a.62.62,0,0,1-.23-.86.63.63,0,0,1,.86-.24l9.93,5.74a.63.63,0,0,1-.32,1.18Z"/><path class="cls-6" d="M130,46.33a.64.64,0,0,1-.31-1.19l9.93-5.73a.62.62,0,0,1,.86.23.64.64,0,0,1-.23.87l-9.93,5.73A.62.62,0,0,1,130,46.33Z"/><path class="cls-6" d="M115.31,31.54a.72.72,0,0,1-.32-.08.64.64,0,0,1-.23-.87l5.73-9.93a.63.63,0,0,1,1.1.63l-5.73,9.93A.63.63,0,0,1,115.31,31.54Z"/><path class="cls-6" d="M95.17,26.73a1.27,1.27,0,0,1-1.27-1.27V14a1.27,1.27,0,1,1,2.53,0V25.46A1.26,1.26,0,0,1,95.17,26.73Z"/><path class="cls-6" d="M54.62,67.27H43.16a1.27,1.27,0,1,1,0-2.53H54.62a1.27,1.27,0,1,1,0,2.53Z"/><path class="cls-6" d="M95.17,119.28A1.26,1.26,0,0,1,93.9,118V106.55a1.27,1.27,0,1,1,2.53,0V118A1.25,1.25,0,0,1,95.17,119.28Z"/><path class="cls-6" d="M147.18,67.27H135.71a1.27,1.27,0,1,1,0-2.53h11.47a1.27,1.27,0,0,1,0,2.53Z"/><path class="cls-7" d="M124.54,67.82H96.14a2.17,2.17,0,0,1-2.07-1.49L78.92,20.51a2.19,2.19,0,0,1,4.15-1.37L97.72,63.46h26.82a2.18,2.18,0,0,1,0,4.36Z"/><path class="cls-8" d="M173.16,151.63a.51.51,0,0,0,.41.2h11.16a.94.94,0,0,0,.33-.17c.44-.37.4-1.07.33-2.09,0-.29,0-.6,0-.93a10.5,10.5,0,0,1,0-1.26,12.56,12.56,0,0,1-2.07.18,11.39,11.39,0,0,1-2.73-.34,5.33,5.33,0,0,1-1,1.21,6.44,6.44,0,0,1-1.9,1.14,25.44,25.44,0,0,1-3.81,1.21c-.14,0-.57.16-.68.45A.49.49,0,0,0,173.16,151.63Z"/><path class="cls-9" d="M185.06,151.66a1,1,0,0,1-.33.17H173.57a.51.51,0,0,1-.41-.2.49.49,0,0,1,0-.4c.11-.3.54-.41.68-.45a26.65,26.65,0,0,0,3.81-1.21h7.78C185.46,150.59,185.51,151.29,185.06,151.66Z"/><path class="cls-8" d="M155.06,151.63a.52.52,0,0,0,.41.2h11.16a.77.77,0,0,0,.32-.17c.46-.37.41-1.07.34-2.09q0-.44-.06-.93c0-.38,0-.85,0-1.42a8.9,8.9,0,0,1-2.86.23,9.59,9.59,0,0,1-1.86-.36,5.22,5.22,0,0,1-1.12,1.34,6.4,6.4,0,0,1-1.88,1.14,25.93,25.93,0,0,1-3.82,1.21c-.14,0-.58.16-.68.45A.49.49,0,0,0,155.06,151.63Z"/><path class="cls-9" d="M167,151.66a.91.91,0,0,1-.32.17H155.47a.51.51,0,0,1-.41-.2.45.45,0,0,1,0-.4c.11-.3.54-.41.68-.45a27.18,27.18,0,0,0,3.82-1.21h7.77C167.36,150.59,167.41,151.29,167,151.66Z"/><path class="cls-10" d="M159.09,126.34a182.92,182.92,0,0,0,2.77,20.51l.66.24a9.59,9.59,0,0,0,1.86.36,8.9,8.9,0,0,0,2.86-.23,7.39,7.39,0,0,0,1-.3,45.07,45.07,0,0,0,1.05-9.37c0-4-.5-4.82-.82-11.15-.39-7.79.23-10.19.52-11.22.48-1.64.79-2,2.56-6.11,1.46-3.41,2.54-6.23,3.25-8.12q.57,8.91,1.54,18.34c1,9.69,2.24,19,3.66,27.77a5.94,5.94,0,0,0,.58.16,11.39,11.39,0,0,0,2.73.34,12.56,12.56,0,0,0,2.07-.18,9.32,9.32,0,0,0,1-.24q.42-10.92.57-22.28c.17-14.82-.06-29.13-.61-42.88l-20.41-.24c-1.31,6.71-2.63,12.13-3.6,15.86-2,7.76-3.11,10.42-3.6,15.8C158.61,114.6,158.43,117.82,159.09,126.34Z"/><path class="cls-11" d="M158.89,69.31a.88.88,0,0,1,.38-.42c.16-.08.24,0,.93,0a10,10,0,0,0,2,0c1.26-.25,1.32-3.7,2.18-7.8A24,24,0,0,1,167,54a7.63,7.63,0,0,1,2.91-2.89,6.12,6.12,0,0,1,1.26-.51c.87-.18,1.83-.33,2.85-.45a32.25,32.25,0,0,1,4.15-.17l2.35.68a13.65,13.65,0,0,1,5.25,5.84c.95,2.15.62,3.19.89,7.87.36,6.34.7,8,1.07,14,.12,1.85.28,5.24-1.72,6.69-1.26.93-2.75.6-4.65.37-9.3-1.13-14.34,1.8-16-.82a3.53,3.53,0,0,1-.31-2.46c.27-1.69.58-4,.95-6.93-.82,0-2.06-.09-3.89-.25-1.42-.13-1.63-.19-1.87-.34a2.8,2.8,0,0,1-1-1A5.38,5.38,0,0,1,158.89,69.31Z"/><rect class="cls-5" x="172.79" y="69.53" width="23.99" height="17.2" rx="2.06" transform="translate(381.28 118.68) rotate(168.74)"/><path class="cls-8" d="M179.72,87.91a3.75,3.75,0,0,0,3.57,1.56,3.18,3.18,0,0,0,2.1-1.31,11.86,11.86,0,0,0,.62-2.33c.11-.39.22-.69.44-1.29.85-2.27,1.82-4.18,2.81-6.58a3.64,3.64,0,0,1-2.18-.79,5.25,5.25,0,0,1-1.84-2.29c-.43,1.28-.7,2.37-.89,3.18a29.32,29.32,0,0,1-1.16,4.37,6.59,6.59,0,0,1-.81,1.78c-1,1.31-2.71,1.58-2.65,2.32a.52.52,0,0,0,.15.33c.45.41,1.59-.43,1.87-.11a.54.54,0,0,1-.11.62.44.44,0,0,1-.22.13C181.11,87.57,180.51,87.73,179.72,87.91Z"/><path class="cls-11" d="M181,57.08c5.18,5.25,5.56,7.62,5.41,8.66,0,.13-.65,4.13-.88,5.51a6.09,6.09,0,0,0-.51,2.67,3.56,3.56,0,0,0,.25,1,5.25,5.25,0,0,0,1.84,2.29,3.64,3.64,0,0,0,2.18.79,1.43,1.43,0,0,0,.28-.07c1.1-.37,1.45-2,1.81-4.76.63-4.83.94-7.25.68-8.78-1.25-7.32-7.14-11.31-8-11.87a18.13,18.13,0,0,0-5-2.27Z"/><path class="cls-8" d="M146.92,72.51c1.71.56,1.92.48,3.57-.14a5.86,5.86,0,0,1,2.1-.29q2.5.63,5.17,1.22l1.49.32a5.38,5.38,0,0,1-.36-4.31c-.74,0-4.39-.16-5.44-.23a16.92,16.92,0,0,0-2.32-.84c-.67-.14-2.73-.1-2.82.43-.24.87,2.17.66,2.26,1s-1.42,1.51-3,1.31c-2.61-.32-2.85-.61-3.22-.4C143.23,71.15,145.72,72.11,146.92,72.51Z"/><path class="cls-8" d="M180.3,43.82c-.39.21-.7,0-1.05,0-.49-.26-1,.91-2.38.95-1.12,0-1.25-.77-2.54-.81s-1.71.56-2.43.19a1.75,1.75,0,0,1-.74-1,19.59,19.59,0,0,1,.63-4,21.27,21.27,0,0,1,.88-2.6,3.06,3.06,0,0,0,1.52.26c1.09.08,1.11.57,2.11.63a5.21,5.21,0,0,1,1,0,7.48,7.48,0,0,1,1.21.46c.83.31.93.24,1,.41.23.38-.28.8-.44,1.92-.05.28-.18,1.35.24,1.56.2.11.34-.07.71,0a1.21,1.21,0,0,1,.71.51A1.16,1.16,0,0,1,180.3,43.82Z"/><path class="cls-8" d="M179.68,48.09c-.05.39-.23,1.87-.28,2.22a2.65,2.65,0,0,1-1.27,1.38,2.43,2.43,0,0,1-1.61.24,2.64,2.64,0,0,1-1.68-1.36h.31a3.73,3.73,0,0,0,2.3-.48,4.24,4.24,0,0,0,1.15-1.83c.25-.6.35-1.1.53-1.1S179.3,47.71,179.68,48.09Z"/><path class="cls-9" d="M184,41.27a8.3,8.3,0,0,0,0,1.46,4.8,4.8,0,0,1-.55,2.36c-.46.77-.8.62-1.16,1.39s-.15.88-.52,1.34a1.59,1.59,0,0,1-1.1.65,1.31,1.31,0,0,1-.89-.27l-.11-.11c-.38-.38-.37-.9-.55-.92s-.28.5-.53,1.1a4.24,4.24,0,0,1-1.15,1.83,3.73,3.73,0,0,1-2.3.48h-.31a3.87,3.87,0,0,1-2.92-.83c-.25-.27-.53-.7-.69-3.28-.08-1.35-.09-2.48-.07-3.3a1.75,1.75,0,0,0,.74,1c.72.37,1.28-.23,2.43-.19s1.42.83,2.54.81c1.36,0,1.89-1.21,2.38-.95.35,0,.66.25,1.05,0a1.16,1.16,0,0,0,.45-1.44,1.21,1.21,0,0,0-.71-.51c-.37-.09-.51.09-.71,0-.42-.21-.29-1.28-.24-1.56.16-1.12.67-1.54.44-1.92-.11-.17-.21-.1-1-.41a7.48,7.48,0,0,0-1.21-.46,5.21,5.21,0,0,0-1,0c-1-.06-1-.55-2.11-.63a3.06,3.06,0,0,1-1.52-.26,2.19,2.19,0,0,1-.62-.63,2.49,2.49,0,0,1-.16-2.24,2.26,2.26,0,0,1,1.54-1.36c.47-.1.57.11,1.53.12s.86-.13,1.37-.06c.88.09,1,.52,1.86.79s1-.14,2.24,0A3.75,3.75,0,0,1,183,34.43c.35.47.14.62.62,1.47s.81.92,1,1.52a3.65,3.65,0,0,1-.17,2.38A7.38,7.38,0,0,0,184,41.27Z"/><path class="cls-12" d="M173.32,40.55c-.06.44-.35.75-.65.71s-.47-.43-.41-.86.35-.75.65-.71S173.38,40.12,173.32,40.55Z"/><path class="cls-12" d="M177.39,41.25c-.1.42-.42.71-.71.64s-.44-.47-.34-.89.42-.72.71-.65S177.49,40.82,177.39,41.25Z"/><path class="cls-9" d="M178.58,39.93c0-.35-.73-.71-1-.82s-.71-.33-.92-.15a.31.31,0,0,0-.09.2c0,.13.18.22.25.25.94.49,1.35.89,1.61.69A.32.32,0,0,0,178.58,39.93Z"/><path class="cls-13" d="M174.58,43.51a.11.11,0,0,0,.06-.2c-.26-.13-.69-.39-.69-.74,0-.12.05-.21.25-.53l0-.07c.25-.39.44-.71.56-.93a.09.09,0,0,0,0-.14.1.1,0,0,0-.14,0l-.56.93,0,.07c-.21.33-.29.46-.29.64,0,.46.51.78.82.93Z"/><path class="cls-9" d="M172.32,38.76c.07-.33.89-.37,1.13-.39s.75,0,.87.18a.22.22,0,0,1,0,.21.34.34,0,0,1-.3.14c-1,.11-1.51.32-1.68.05A.33.33,0,0,1,172.32,38.76Z"/><path class="cls-14" d="M172.62,44.79a.48.48,0,0,0,0,.12.08.08,0,0,0,0,0,1.81,1.81,0,0,0,.6,1,1.68,1.68,0,0,0,1.28.3,1.82,1.82,0,0,0,1.12-.7.57.57,0,0,0,.12-.21.33.33,0,0,0,0-.17c-.09-.23-.59-.05-1.69-.29-.9-.19-1.23-.46-1.39-.3A.35.35,0,0,0,172.62,44.79Z"/><path class="cls-5" d="M172.62,44.79a4.57,4.57,0,0,0,1.16.47,4.9,4.9,0,0,0,2,.08.33.33,0,0,0,0-.17c-.09-.23-.59-.05-1.69-.29-.9-.19-1.23-.46-1.39-.3A.35.35,0,0,0,172.62,44.79Z"/><path class="cls-8" d="M23.1,151.67a1.26,1.26,0,0,0,.32.17H34.58a.5.5,0,0,0,.41-.2.45.45,0,0,0,0-.4c-.11-.3-.54-.42-.68-.45a25.5,25.5,0,0,1-3.81-1.22,6,6,0,0,1-1.89-1.13,4.86,4.86,0,0,1-1-1.21,11.53,11.53,0,0,1-2.74.33,10.6,10.6,0,0,1-2.06-.18c0,.5,0,.92,0,1.27s0,.64-.06.92C22.69,150.6,22.65,151.3,23.1,151.67Z"/><path class="cls-15" d="M23.1,151.67a1.12,1.12,0,0,0,.32.17H34.58a.51.51,0,0,0,.41-.2.45.45,0,0,0,0-.4c-.1-.3-.54-.41-.68-.45a25.5,25.5,0,0,1-3.81-1.22H22.76C22.69,150.6,22.64,151.29,23.1,151.67Z"/><path class="cls-8" d="M41.2,151.67a1.12,1.12,0,0,0,.32.17H52.68a.51.51,0,0,0,.41-.2.45.45,0,0,0,0-.4c-.1-.3-.54-.42-.67-.45a25.25,25.25,0,0,1-3.82-1.22,6,6,0,0,1-1.89-1.13,4.94,4.94,0,0,1-1.12-1.35,8.29,8.29,0,0,1-1.86.36,8.93,8.93,0,0,1-2.86-.22c0,.57,0,1,0,1.42s0,.64-.06.92C40.79,150.6,40.74,151.3,41.2,151.67Z"/><path class="cls-15" d="M41.2,151.67a1.26,1.26,0,0,0,.32.17H52.68a.51.51,0,0,0,.41-.2.45.45,0,0,0,0-.4c-.11-.3-.54-.41-.67-.45a25.25,25.25,0,0,1-3.82-1.22H40.86C40.79,150.6,40.74,151.29,41.2,151.67Z"/><path class="cls-16" d="M21.21,124.87q.15,11.35.57,22.28a9.68,9.68,0,0,0,1,.23,10.6,10.6,0,0,0,2.06.18,11.53,11.53,0,0,0,2.74-.33,5.71,5.71,0,0,0,.57-.16c1.42-8.81,2.66-18.08,3.66-27.77C32.5,113,33,106.9,33.39,101c.71,1.89,1.8,4.71,3.25,8.12,1.76,4.13,2.08,4.48,2.56,6.11.3,1,.91,3.42.52,11.21-.32,6.34-.85,7.16-.82,11.16A45.14,45.14,0,0,0,40,146.94c.26.09.58.19.95.29a8.93,8.93,0,0,0,2.86.22,8.29,8.29,0,0,0,1.86-.36c.24-.07.46-.15.66-.23a180.89,180.89,0,0,0,2.77-20.51c.66-8.52.48-11.73.37-12.93-.49-5.39-1.58-8-3.6-15.82-1-3.72-2.29-9.14-3.6-15.86L21.83,82Q21,102.62,21.21,124.87Z"/><path class="cls-17" d="M11,73.05c.69,1.22,2.4,1.41,4.53,1.66,1.38.16,2.38.27,3.38-.37l.15-.12a5.57,5.57,0,0,0,1.74-3,8.87,8.87,0,0,0,.36-1.35A1.37,1.37,0,0,0,21,68.66c-.45-.48-1.23,0-1.54-.3-.6-.69,1.52-3.73,2.64-5.24,0,.22,0,.44,0,.65C22,65.15,22,66,22,66.64c-.34,11.55-2.19,16.53.23,18.45.7.56,1.14.38,4.65.37,10.22,0,14.54,1.48,16-.82a3.46,3.46,0,0,0,.31-2.46c-.26-1.69-.58-4-1-6.93.82,0,2.06-.09,3.89-.25,1.42-.13,1.63-.19,1.87-.33a2.76,2.76,0,0,0,.93-1,5.07,5.07,0,0,0,.36-4.35.74.74,0,0,0-.34-.32c-.16-.08-.24,0-.94,0a11.12,11.12,0,0,1-2,0c-1.25-.25-1.32-3.63-2.17-7.64a22.86,22.86,0,0,0-2.6-7,8.23,8.23,0,0,0-1.76-2.07l0,0a.4.4,0,0,0-.12-.1,8.25,8.25,0,0,0-2.12-1.4,9.59,9.59,0,0,0-2.86-.78A19.77,19.77,0,0,0,29.27,50a15.12,15.12,0,0,0-5,1.2,12.69,12.69,0,0,0-1.66.89c-3,1.89-4.77,4.74-6.75,7.92a38.55,38.55,0,0,0-2.78,5.4C11.24,69.75,10.39,71.92,11,73.05Z"/><path class="cls-18" d="M19.09,74.22c1.36,0,2.74-.12,4.17-.22s2.92-.24,4.31-.38a7.28,7.28,0,0,1,3.07.37c1.79.71,2,.81,3.89.25,1.32-.41,4.06-1.38,2.88-2.06-.41-.24-.68.07-3.53.34-1.74.18-3.35-1.22-3.25-1.51s2.73-.05,2.5-1c-.09-.58-2.33-.69-3.07-.56a14.74,14.74,0,0,0-2.46.83c-.94,0-2,0-3.06,0a31.12,31.12,0,0,1-3.35-.4,8.87,8.87,0,0,1-.36,1.35A5.57,5.57,0,0,1,19.09,74.22Z"/><path class="cls-18" d="M26.11,43.34a1.81,1.81,0,0,0,2.15.73,17.19,17.19,0,0,1,.89,3.73A16.45,16.45,0,0,1,29.27,50a18.75,18.75,0,0,0,2.85,6.74c.61.87,2,2.91,2.9,2.61.71-.24.75-1.92.77-2.94a15.31,15.31,0,0,0-1.28-6.31,1.39,1.39,0,0,0-.12-.28c-.09-.64-.19-1.28-.29-1.92a2.43,2.43,0,0,0,1-.15c2.29-.85,3.11-5.38,2.17-8.76a9.67,9.67,0,0,0-2.52-4.26c-1,1.06-2,2.14-3.12,3.23-1.26,1.28-2.52,2.51-3.76,3.69a1.29,1.29,0,0,0-1.57,0A1.36,1.36,0,0,0,26.11,43.34Z"/><path class="cls-12" d="M35.77,40.57c0,.46.32.8.63.77s.52-.42.48-.87-.32-.8-.63-.78S35.73,40.11,35.77,40.57Z"/><path class="cls-12" d="M31.5,41.06c.08.45.39.77.7.72s.48-.47.4-.92-.4-.77-.7-.71S31.41,40.61,31.5,41.06Z"/><path class="cls-15" d="M30.48,39.61c0-.37.8-.69,1-.79s.76-.31,1-.11a.26.26,0,0,1,.09.21c0,.14-.2.22-.27.25-1,.45-1.46.84-1.72.62A.31.31,0,0,1,30.48,39.61Z"/><path class="cls-15" d="M34.3,43.58h0c.32-.14.87-.44.9-.92,0-.19-.06-.33-.26-.69l0-.08c-.23-.41-.41-.76-.53-1a.11.11,0,0,0-.15,0,.11.11,0,0,0,0,.15l.53,1,0,.08c.19.35.24.44.23.57,0,.35-.48.6-.76.72a.12.12,0,0,0-.06.15A.12.12,0,0,0,34.3,43.58Z"/><path class="cls-15" d="M36.9,38.48c-.09-.35-.94-.36-1.19-.37s-.79,0-.9.22a.24.24,0,0,0,0,.22c.07.12.25.13.33.13,1,.08,1.58.28,1.74,0A.28.28,0,0,0,36.9,38.48Z"/><path class="cls-15" d="M24,46.24c.15-.48.36-1.07.64-1.82,1.74-4.65,0-6,1.83-8.66A7.1,7.1,0,0,1,30.48,33a7,7,0,0,1,5.71,1.2c2.57,2,.89,4,3.79,10.19a7.5,7.5,0,0,1,1,4.41,6.89,6.89,0,0,1-1.16,2.87,6.31,6.31,0,0,1-.55.61,8.25,8.25,0,0,0-2.12-1.4,9,9,0,0,0-2.67-.75c-.14-.74-.27-1.47-.41-2.2a2.43,2.43,0,0,0,1-.15c2.29-.85,3.11-5.38,2.17-8.76a9.67,9.67,0,0,0-2.52-4.26c-1,1.06-2,2.14-3.12,3.23-1.26,1.28-2.52,2.51-3.76,3.69a1.29,1.29,0,0,0-1.57,0,1.36,1.36,0,0,0-.23,1.68,1.81,1.81,0,0,0,2.15.73c.12.33.23.7.34,1.09a10.89,10.89,0,0,1,1.31,6.71,3.93,3.93,0,0,1-1.3,2.74,3.85,3.85,0,0,1-2.44.6,4.72,4.72,0,0,1-2.5-.76C22.13,53.31,21.94,49.82,24,46.24Z"/><path class="cls-15" d="M34.4,45.46a2.48,2.48,0,0,0,.45-.05,2.39,2.39,0,0,0,.86-.36.09.09,0,0,0,0-.13.09.09,0,0,0-.13,0,2.13,2.13,0,0,1-.79.34,2.19,2.19,0,0,1-1.36-.18.1.1,0,0,0-.13.05.09.09,0,0,0,0,.12A2.35,2.35,0,0,0,34.4,45.46Z"/><path class="cls-18" d="M48.87,73.71c2.74-.92,4.86-1.59,5.93-1.91a9.62,9.62,0,0,1,1.53-.31,7.75,7.75,0,0,1,1.57,0c2.08-.15,3.68-.7,4-1.4a3.07,3.07,0,0,0,.17-.44,5.76,5.76,0,0,0,.14-1.53c.19-1.27,3.11-1.47,3.11-2.41a.74.74,0,0,0-.35-.57c-.81-.53-2.77,1.17-3.92,1.35l-1.4.22a16.59,16.59,0,0,0-3.85,1.15c-.71.33-.7.4-1.29.63a10.13,10.13,0,0,1-2.13.53c-.8.13-1.87.28-3.15.37a5,5,0,0,1-.36,4.35Z"/></g></g></g></svg>