<svg xmlns="http://www.w3.org/2000/svg" viewBox="0 0 334.74 276"><defs><style>.cls-1{isolation:isolate;}.cls-17,.cls-2{fill:#46c7ce;}.cls-2{opacity:0.25;}.cls-3{fill:#eaeaea;mix-blend-mode:multiply;}.cls-4{fill:#fff;}.cls-5{fill:#ccd3e6;}.cls-6{fill:#363638;}.cls-7{fill:#dcdcdc;}.cls-8{fill:#fb6260;}.cls-9{fill:#00b471;}.cls-10{fill:#cfdceb;}.cls-11{fill:#fff8eb;}.cls-12{fill:#ffd371;}.cls-13{fill:#fa5;}.cls-14{fill:none;}.cls-15{fill:#ff9c7d;}.cls-16{fill:#ed6b46;}.cls-18{fill:#2a9e9e;}.cls-19{fill:#575759;}.cls-20{opacity:0.8;}</style></defs><g class="cls-1"><g id="Layer_2" data-name="Layer 2"><g id="Option_1" data-name="Option 1"><path class="cls-2" d="M168.86,23.5c94.94,7.84,133.83,41.82,133.83,41.82s59.4,37.19,16.46,118C285,247.67,177.8,293.75,129.37,265.88S87.94,208.41,36.18,160.44.06,79.08,11.41,62.45C11.41,62.45,46.53,13.41,168.86,23.5Z"/><ellipse class="cls-3" cx="169.78" cy="267.36" rx="120.77" ry="8.64"/><path class="cls-4" d="M104,248.51H232.4a15.92,15.92,0,0,1,15.92,15.92v1.48a0,0,0,0,1,0,0H88.06a0,0,0,0,1,0,0v-1.48A15.92,15.92,0,0,1,104,248.51Z"/><rect class="cls-4" x="138.69" y="211.22" width="58.09" height="37.29"/><polygon class="cls-5" points="138.69 222.67 196.78 218.02 196.79 211.22 138.7 211.28 138.69 222.67"/><path class="cls-4" d="M292,57.21V203.46a7.76,7.76,0,0,1-7.76,7.77H46.1a7.77,7.77,0,0,1-7.76-7.77V57.21a7.77,7.77,0,0,1,7.76-7.76H284.61l.25,0h.19l.3,0,.2,0h.09l.19,0A7.76,7.76,0,0,1,292,57.21Z"/><circle class="cls-5" cx="167.71" cy="200.72" r="5.37" transform="translate(-90.39 158.26) rotate(-40.78)"/><path class="cls-6" d="M285.83,49.61l-.19,0h-.09l-.2,0-.3,0h-.19l-.25,0H46.1a7.77,7.77,0,0,0-7.76,7.76V192.65H292V57.21A7.76,7.76,0,0,0,285.83,49.61ZM282,179.12a2.11,2.11,0,0,1-2.11,2.11H50.51a2.11,2.11,0,0,1-2.11-2.11V61.63a2.12,2.12,0,0,1,2.11-2.12H279.86A2.12,2.12,0,0,1,282,61.63Z"/><rect class="cls-7" x="48.4" y="59.51" width="233.57" height="121.72" rx="2.11"/><path class="cls-4" d="M282,61.63V72.71H48.4V61.63a2.12,2.12,0,0,1,2.11-2.12H279.86A2.12,2.12,0,0,1,282,61.63Z"/><path class="cls-8" d="M263.88,65.94a1.8,1.8,0,1,1-1.8-1.8A1.8,1.8,0,0,1,263.88,65.94Z"/><path class="cls-9" d="M269.69,65.94a1.8,1.8,0,1,1-1.79-1.8A1.79,1.79,0,0,1,269.69,65.94Z"/><rect class="cls-10" x="68.8" y="64.04" width="185.81" height="3.79" rx="1.6"/><path d="M56.84,65.94v1.75a.32.32,0,0,1-.49.28l-1.52-.88-1.52-.87a.33.33,0,0,1,0-.56l1.52-.88,1.52-.88a.33.33,0,0,1,.49.28Z"/><path d="M59.51,65.94v1.75A.32.32,0,0,0,60,68l1.52-.88L63,66.22a.32.32,0,0,0,0-.56l-1.52-.88L60,63.9a.32.32,0,0,0-.48.28Z"/><rect class="cls-6" x="271.44" y="65.37" width="4.31" height="1.01" rx="0.43" transform="translate(33.55 212.74) rotate(-45)"/><rect class="cls-6" x="273.08" y="63.72" width="1.01" height="4.31" rx="0.43" transform="translate(33.56 212.76) rotate(-45)"/><rect class="cls-11" x="74.8" y="75.39" width="180.14" height="101.11" rx="4.22"/><rect class="cls-12" x="80.82" y="124.21" width="45.66" height="25.63" rx="1.98"/><rect class="cls-12" x="202.39" y="81.41" width="45.66" height="25.63" rx="1.98"/><rect class="cls-13" x="80.75" y="103.18" width="45.73" height="2.19" rx="1.05"/><rect class="cls-13" x="80.75" y="93.9" width="45.73" height="2.19" rx="1.05"/><rect class="cls-13" x="80.75" y="112.47" width="45.73" height="2.19" rx="1.05"/><rect class="cls-13" x="202.39" y="124.93" width="45.66" height="2.19" rx="1.05"/><rect class="cls-13" x="202.39" y="115.65" width="45.66" height="2.19" rx="1.05"/><rect class="cls-13" x="202.39" y="134.22" width="45.66" height="2.19" rx="1.05"/><path class="cls-6" d="M74.8,160.8H254.94v14.77a.93.93,0,0,1-.94.93H75.74a.93.93,0,0,1-.94-.93Z"/><path class="cls-4" d="M242,166.62v-1.33h1.67v-1.18h-2.26a.59.59,0,0,0-.59.59v1.92Z"/><path class="cls-4" d="M242,169h-1.18v2a.6.6,0,0,0,.59.59h2.26v-1.19H242Z"/><path class="cls-4" d="M247.16,166.62h1.18V164.7a.58.58,0,0,0-.59-.59h-2.17v1.18h1.58Z"/><path class="cls-4" d="M247.16,169v1.43h-1.58v1.19h2.17a.59.59,0,0,0,.59-.59v-2Z"/><rect class="cls-5" x="74.8" y="157.85" width="180.14" height="2.95"/><path class="cls-6" d="M87.89,78.47h2v4.46h2.72V84.5H87.89Z"/><path class="cls-6" d="M93.2,78.47h2v6h-2Z"/><path class="cls-6" d="M102.66,78.47l-2.55,6h-2l-2.55-6h2.19L99.19,82l1.47-3.53Z"/><path class="cls-6" d="M107.87,83V84.5h-5v-6h4.9V80h-2.9v.7h2.55v1.47h-2.55V83Z"/><path class="cls-13" d="M84.54,81.44A2.48,2.48,0,1,1,82.07,79,2.47,2.47,0,0,1,84.54,81.44Z"/><path class="cls-13" d="M231.47,147.84a2.18,2.18,0,1,1-2.18-2.18A2.19,2.19,0,0,1,231.47,147.84Z"/><path class="cls-13" d="M233.36,153.35h-8.14a4.22,4.22,0,0,1,4-2.59h.12A4.21,4.21,0,0,1,233.36,153.35Z"/><path class="cls-6" d="M240.87,146.52v1.37l-2.2,5.22h-2.42l2.09-4.87h-1.28v1h-1.83v-2.68Z"/><path class="cls-6" d="M246.65,151.39v1.72h-5.28v-1.36l2.38-2.21c.45-.42.52-.67.52-.9s-.22-.52-.64-.52a1.07,1.07,0,0,0-1,.61L241,147.9a3,3,0,0,1,2.85-1.53c1.57,0,2.67.81,2.67,2.06a2.59,2.59,0,0,1-1.13,2.1l-.94.86Z"/><path class="cls-14" d="M73.18,147c-1,3-1,3.56-1,3l0-86.78c0-.53,0-.44,0-63.28H267.34l0,147Z"/><path class="cls-15" d="M218.12,83s1.78,5.73,6.25,6.18c3.6.36,6.42-3.45,7.37-4.92.23-.36.35-.58.35-.58a6.34,6.34,0,0,0,.65-.07c.9-.14,2.49-.55,3-1.75.68-1.72-2.75-2.35-2.75-2.35s1.47-1.74.9-2.77-2.86-.93-2.86-.93,2.21-1.91,1.21-3.18c-1.51-1.89-3.71.73-3.89.89.13-.21,5.79-8.81,4-9.16-1.58-.3-6.78,6.65-8.17,8.55l-.35.47-.29-.15c-.89-.43-3.59-1.53-5,0C216.8,75.13,218.12,83,218.12,83Z"/><path class="cls-16" d="M229.12,80.57a3.69,3.69,0,0,0-1.37,1.85,1.09,1.09,0,0,0,.28,1,2,2,0,0,0,.82.44,11.31,11.31,0,0,0,2.89.38c.23-.35.35-.57.35-.57a6.34,6.34,0,0,0,.65-.07.31.31,0,0,0-.19,0c-1.29,0-3.52-.12-4-.63a.4.4,0,0,1-.09-.39,4.15,4.15,0,0,1,2.28-2.14.34.34,0,0,0,.21-.41.34.34,0,0,0-.39-.25c-.84.13-3.19.31-3.93-.43-.1-.11-.09-.17-.08-.21a1.15,1.15,0,0,1,.45-.55,8.47,8.47,0,0,1,1.92-1,.35.35,0,0,0,.16-.13.33.33,0,0,0,0-.32.35.35,0,0,0-.45-.2,10,10,0,0,0-1.94,1,2.79,2.79,0,0,0-.65.63,1,1,0,0,0-.21.44.92.92,0,0,0,.27.84A4.42,4.42,0,0,0,229.12,80.57Z"/><path class="cls-16" d="M225.77,75.55a.34.34,0,0,1,.09.38,2.18,2.18,0,0,0-.23,1.09.42.42,0,0,0,.22.34,1.5,1.5,0,0,0,.61.07,10,10,0,0,0,2.35-.51.39.39,0,0,1-.17.14,8.3,8.3,0,0,0-1.92,1l-.24,0a2.86,2.86,0,0,1-.68-.05,1.34,1.34,0,0,1-.24-.09,1.08,1.08,0,0,1-.61-.86,2.91,2.91,0,0,1,.27-1.47.34.34,0,0,1,.55-.11Z"/><path class="cls-16" d="M219.59,76.7a11.22,11.22,0,0,0,2.46,1.2,3.87,3.87,0,0,0,2,.19,1.71,1.71,0,0,0,1.14-.87c.88-1.61-.31-3.39-1.1-4.3l-.35.47-.29-.15c.67.76,1.85,2.34,1.13,3.65a1,1,0,0,1-.7.53c-1.19.3-3.26-.84-4-1.3a.35.35,0,0,0-.38.58Z"/><path class="cls-16" d="M223.13,86a.33.33,0,0,0,.34-.07.36.36,0,0,0,0-.49,3.06,3.06,0,0,1-.88-2.49c.26-2.27,3-4.2,3-4.22a.35.35,0,0,0-.4-.57c-.12.09-3,2.13-3.3,4.71a3.8,3.8,0,0,0,1,3A.29.29,0,0,0,223.13,86Z"/><path class="cls-17" d="M180,57.6l3.51,8.89q.79,2.22,1.6,4.44c.54,1.48,1.07,2.95,1.62,4.41s1.1,2.92,1.65,4.36,1.13,2.85,1.71,4.23,1.16,2.72,1.75,3.92c.29.6.58,1.16.82,1.59l.17.29.07.12,0,.05a.35.35,0,0,1,0,.12c0,.06,0,.1,0,.15s.1.13.29.21a5.2,5.2,0,0,0,2.15.24,16.84,16.84,0,0,0,3.42-.56,39.27,39.27,0,0,0,3.84-1.22,70.54,70.54,0,0,0,8-3.67c2.66-1.4,4.61-2.54,7.2-4.15a11.58,11.58,0,0,0,7.47,8.41,93.21,93.21,0,0,1-7.93,6.44,73.11,73.11,0,0,1-8.94,5.6,45.35,45.35,0,0,1-5.12,2.32,32.78,32.78,0,0,1-6,1.66,23.87,23.87,0,0,1-3.5.34,19.62,19.62,0,0,1-3.94-.34,17,17,0,0,1-4.23-1.41,16.22,16.22,0,0,1-3.87-2.68,17.45,17.45,0,0,1-1.56-1.68l-.34-.43-.28-.38-.26-.36-.25-.36c-.62-.91-1.13-1.75-1.6-2.57-.94-1.63-1.75-3.18-2.52-4.72s-1.48-3.07-2.18-4.6-1.36-3-2-4.57-1.28-3-1.89-4.56-1.21-3.06-1.8-4.58S166,69.48,165.45,68l-.82-2.32-.4-1.16c-.14-.4-.27-.77-.41-1.19Z"/><path class="cls-18" d="M189.58,94.55a.42.42,0,0,0,.35-.18,19.29,19.29,0,0,1,3.19-3.31.46.46,0,0,0,.1-.62.45.45,0,0,0-.62-.11,19.44,19.44,0,0,0-3.37,3.51.44.44,0,0,0,.08.62A.46.46,0,0,0,189.58,94.55Z"/><path class="cls-18" d="M192.59,95h.1a.43.43,0,0,0,.33-.53,8.16,8.16,0,0,1,0-3.32.44.44,0,0,0-.31-.55.43.43,0,0,0-.54.3,8.93,8.93,0,0,0,0,3.77A.45.45,0,0,0,192.59,95Z"/><path class="cls-6" d="M188.48,142.33c-8.2,4.72-28,7.15-41,2-4.74-1.88-5.58-3-5.22-11.56,0-.32,0-.63.05-.95,0-.67.08-1.34.12-2,0-.32,0-.64.08-1,.1-1.19.21-2.36.34-3.48,0-.31.07-.61.1-.91a53.48,53.48,0,0,1,1.2-6.47c.08-.32.16-.61.24-.89.46-1.7.83-2.73.83-2.73a51.6,51.6,0,0,0,6.39.62l.92,0c11.19.29,22.57-2.24,27.84-3.61l.89-.24c1.37-.37,2.14-.61,2.14-.61s.49.85,1.17,2.25l.39.82a46.45,46.45,0,0,1,3.22,9.14.79.79,0,0,1,0,.13c.07.3.14.61.2.91,0,.06,0,.12,0,.18.53,2.53,1,5.19,1.35,7.73h0c0,.33.09.65.12,1C190.6,138.29,190.7,141.05,188.48,142.33Z"/><path class="cls-19" d="M188.48,124l-.06,0a12.91,12.91,0,0,1-4.4-4.1c-.17-.25-.34-.51-.5-.77h0a28.38,28.38,0,0,1-3.11-7.68l.89-.24a27.36,27.36,0,0,0,3.05,7.51c.17.27.34.52.51.77a12.3,12.3,0,0,0,3.36,3.32.79.79,0,0,1,0,.13c.07.3.14.61.2.91C188.45,123.9,188.47,124,188.48,124Z"/><path class="cls-19" d="M152.56,115.05a25.41,25.41,0,0,1-2.14,8.14c-.14.29-.28.57-.44.85a12.37,12.37,0,0,1-3.17,3.82,9.89,9.89,0,0,1-4.35,2c0-.32,0-.64.08-1a8.93,8.93,0,0,0,3.72-1.75,11.14,11.14,0,0,0,2.78-3.26c.15-.27.31-.56.45-.84a24.47,24.47,0,0,0,2.15-8Z"/><path class="cls-19" d="M185,113.66q-.94.42-2,.87l-.86.34a61.41,61.41,0,0,1-15.72,4l-.69.06a86,86,0,0,1-15.47-.15l-1-.1c-1.91-.2-3.63-.42-5.07-.63.08-.32.16-.61.24-.89,1.47.21,3.23.44,5.21.64l.94.09a83.58,83.58,0,0,0,15.7.07,60.59,60.59,0,0,0,15.37-3.86h0l.86-.34c.75-.3,1.45-.6,2.1-.88Z"/><path class="cls-6" d="M197.73,181.29c-1.2-18.49-3.92-35.64-7.9-49.54l-22,10.24a123,123,0,0,0,8,39.3Z"/><path class="cls-19" d="M179.35,181.29A143.09,143.09,0,0,1,171.84,148a.47.47,0,0,0-.49-.43.46.46,0,0,0-.42.49,144.17,144.17,0,0,0,7.46,33.22Z"/><path class="cls-6" d="M163.47,181.29c1.35-13.13,2.92-29.27,3.12-35.52l-24.3-13s-4.28,14.78-1.47,48.51Z"/><path class="cls-19" d="M161.24,181.29l4.08-33.64a.52.52,0,0,0-1-.13l-4.09,33.77Z"/><path class="cls-19" d="M168.7,142.78a.46.46,0,0,0,.51.4h0a.45.45,0,0,0,.4-.51c-.2-1.7-.4-3.45-.58-5.2,0-.31-.07-.62-.1-.93-.59-5.72-1.08-11.35-1.39-15.34,0-.32-.06-.63-.08-.93-.07-.87-.13-1.65-.18-2.31h-.92c0,.65.11,1.44.18,2.32,0,.3.05.61.08.94.31,3.94.79,9.53,1.38,15.21,0,.32.06.63.1.95C168.29,139.2,168.49,141,168.7,142.78Z"/><path class="cls-19" d="M166.41,137a11.69,11.69,0,0,0,1.69.36,9,9,0,0,0,.93.08,6.33,6.33,0,0,0,.87,0,3.14,3.14,0,0,0,1.48-.5,2,2,0,0,0,.78-1.61c0-1.8-.48-9.13-.87-14.31,0-.32,0-.63-.07-.93-.07-.83-.13-1.58-.18-2.22l-.91,0c.05.64.11,1.4.17,2.24,0,.3,0,.61.07.93.39,5.17.91,12.49.88,14.23a1,1,0,0,1-.42.89,3.09,3.09,0,0,1-1.9.35,7,7,0,0,1-.93-.1,9.64,9.64,0,0,1-1.33-.29.46.46,0,1,0-.26.88Z"/><path class="cls-6" d="M138.73,65.06l35.06-.9c-1.08-1.53-1-16-1.47-19.06s-.12-9.23.35-14.25a15.94,15.94,0,0,0-16.59-17.41l-.44,0c-14.74.94-15.82,13.57-14.45,21.21C142.44,41.65,143.32,60.62,138.73,65.06Z"/><path class="cls-4" d="M146.34,110.6l2.83,11.85c7.06-.56,15.42-1.59,21.71-4.84,0,0,8.38,2.82,12.64,1.51l-3.12-8.52Z"/><path class="cls-17" d="M187.84,119.37c-8.14-.05-13-1.11-17.48-4.75-8.32,8.66-28.91,9-28.91,9,2.06-6.65,2.74-18.4,2.74-18.4-.17-1.22-.26-2.49-.38-3.78a25,25,0,0,0-.64-3.87c-2-5.86-4.41-10.06-6.52-16.12l-.42-1.18c-.09-.25-.18-.51-.28-.76-.69-1.9-1.44-3.79-2.22-5.61C130.32,66,129.77,57,138,54.28l1.75-.57c3.88-1.23,7.11-2,8-2.25l.25-.06,17.2,1.42,1.64.14c2.4.27,5,.2,6.56.56,1.42.31,2.28.23,3.72.66,3.39,1,3.29,5.56,4.35,11.22,0,.1,0,.2.05.3s0,.06,0,.09c.18,1,.4,1.92.65,2.86s.59,2.1.92,3.11c2,6.22,4.37,9.08,4,13-.37,3.54-4,8.38-4.94,9.41l-.36.36s0,0,0,.06,0,.29.05.44c.07.6.18,1.31.31,2.11.3,3,.72,5.71,1.2,8.13.26,1.3.54,2.52.82,3.65A48.42,48.42,0,0,0,187.84,119.37Z"/><path class="cls-18" d="M184.14,108.92c-2.32,1.23-4.21,2-4.21,2l-1.73-3.27a33.85,33.85,0,0,0,5.12-2.43A11.21,11.21,0,0,1,184.14,108.92Z"/><path class="cls-18" d="M146.6,105.85s7.83,3.32,13.62,3.88l-.88,3.6s-9.49-1.57-13.3-4.27Z"/><path class="cls-18" d="M183.16,93.65a.47.47,0,0,0,.32-.14c.21-.22,5.18-5.53,3.45-10.37-.48-1.34-1-2.7-1.64-4.14-1.8-4.36-3.84-9.31-4.36-15.73a.44.44,0,0,0-.88.07c.53,6.56,2.6,11.57,4.42,16,.59,1.43,1.15,2.78,1.62,4.1,1.55,4.33-3.21,9.41-3.25,9.46a.45.45,0,0,0,.32.75Z"/><path class="cls-18" d="M168.7,74.74a1,1,0,1,1-1-1A1,1,0,0,1,168.7,74.74Z"/><path class="cls-18" d="M170.14,83.29a1,1,0,1,1-1.93,0,1,1,0,0,1,1.93,0Z"/><path class="cls-18" d="M171,92a1,1,0,1,1-1-1A1,1,0,0,1,171,92Z"/><path class="cls-18" d="M171.37,100.93a1,1,0,1,1-1-1A1,1,0,0,1,171.37,100.93Z"/><path class="cls-18" d="M171.33,110.23a1,1,0,1,1-1-1A1,1,0,0,1,171.33,110.23Z"/><path class="cls-18" d="M163.21,52.81a22.45,22.45,0,0,1,6.35.35L169.28,63l-2.23.48,1.88,1.85-2.26,6.58S163.59,60.94,163.21,52.81Z"/><path class="cls-18" d="M148,51.4l-6.84,1.87,8,10.67,6-.48-2.11,4.6,13.59,3.83s-15.74-15-17-20.35Z"/><path class="cls-4" d="M149.17,52.2s3.92,8.36,17.5,19.69a107.85,107.85,0,0,0-3.46-18.47S155.22,56.2,149.17,52.2Z"/><path class="cls-18" d="M168.57,78.89c-4.48,0-13.6-6.4-14-6.67a.37.37,0,0,1-.08-.51.36.36,0,0,1,.51-.09c.09.06,9.32,6.54,13.56,6.54,4.05,0,5-4.43,5-4.48a.37.37,0,0,1,.43-.29.36.36,0,0,1,.29.43C174.24,73.87,173.22,78.89,168.57,78.89Z"/><path class="cls-15" d="M163.21,52.81l.18,2.31c.34,4.32-2.73,5.55-7.2,3.26-3.53-1.81-6.53-4.51-7-6.18Z"/><path class="cls-18" d="M156.8,96.91a.41.41,0,0,0,.35.2.32.32,0,0,0,.19,0,22.9,22.9,0,0,1,14.41-2.14,24.54,24.54,0,0,0,10.06.11c0-.15,0-.3-.05-.44v-.06s.13-.12.35-.36a23.59,23.59,0,0,1-10.19,0,23.39,23.39,0,0,0-15,2.23A.4.4,0,0,0,156.8,96.91Z"/><path class="cls-6" d="M170.58,24s2,7.79.72,9.15-3.15-1.56-3.15-1.56S169.07,24.29,170.58,24Z"/><path class="cls-16" d="M168.39,34.29s2.06-2.42,3.22,0,.26,7.33-2.86,6.53Z"/><path class="cls-4" d="M166.59,40.32a3.34,3.34,0,1,0,2.86,0A3.25,3.25,0,0,0,168.2,40c-.08-.21-.15-.42-.24-.62h0a3.94,3.94,0,0,1,4,4A4,4,0,1,1,166,39.92Z"/><path class="cls-15" d="M163.21,46.73v6.69s-3.52,5.77-14-1.22c2-2.23,2.05-6.53,1.25-9.09a14.87,14.87,0,0,0,2,1.09l.84.36C155.93,45.66,159.88,47,163.21,46.73Z"/><path class="cls-6" d="M163.21,46.73v3.13c-2.86-.63-7.87-2.19-10.75-5.66l.84.36C155.93,45.66,159.88,47,163.21,46.73Z"/><path class="cls-15" d="M168.93,44.55c-5.62,5.81-18.09-1.13-18.49-1.35h0c-.11-.52-.21-1-.31-1.54a40.82,40.82,0,0,1-.4-12.15,9.2,9.2,0,0,1,6-9.15c3.93-1.43,7.44.3,9.55.95,3.19,1,5.2,5.1,5.22,11C170.47,39.48,170.32,43.1,168.93,44.55Z"/><path class="cls-6" d="M169.78,25.57c-1.3.18-2.63.32-4,.43L165,22.41l-.24,3.66c-2.53.17-5.15.24-7.83.24l-.34-3.78-.73,3.78c-2,0-4,0-6-.11-1.63-7.53,6.53-10.81,13.4-9.24S169.78,25.57,169.78,25.57Z"/><path class="cls-6" d="M155.06,24s-2.53,3.37-1.15,6.5.42,6.21-.24,8.5c0,0-1.43-5-4.81-6S147.23,22.8,155.06,24Z"/><path class="cls-16" d="M164.11,41.38a3.27,3.27,0,0,0,1.38-.1.24.24,0,1,0-.16-.46h0a2.51,2.51,0,0,1-2.14-.32.24.24,0,0,0-.34,0,.25.25,0,0,0,.06.34A2.76,2.76,0,0,0,164.11,41.38Z"/><path class="cls-4" d="M167.68,37.62s-3.91,1.36-6.84-.57c0,0,1,2.64,3.56,2.89A3.21,3.21,0,0,0,167.68,37.62Z"/><path class="cls-6" d="M161.46,26.93s1.16.12.75,1.19S159.46,28,157.79,30C157.79,30,157.08,27.41,161.46,26.93Z"/><path class="cls-6" d="M166.74,26.93s-1.17.12-.76,1.19S168.73,28,170.4,30C170.4,30,171.11,27.41,166.74,26.93Z"/><g class="cls-20"><path class="cls-16" d="M160.82,34.85c0,.55-1.12,1-2.5,1s-2.5-.44-2.5-1,1.12-1,2.5-1S160.82,34.31,160.82,34.85Z"/></g><path class="cls-16" d="M171,35.81a5.74,5.74,0,0,1-.6,0c-1.38,0-2.5-.44-2.5-1s1.12-1,2.5-1l.54,0Z"/><path class="cls-6" d="M161.11,32.27c0,.75-.34,1.35-.76,1.35s-.76-.6-.76-1.35.34-1.35.76-1.35S161.11,31.53,161.11,32.27Z"/><path class="cls-6" d="M168.5,32.27c0,.75-.34,1.35-.76,1.35S167,33,167,32.27s.34-1.35.76-1.35S168.5,31.53,168.5,32.27Z"/><path class="cls-6" d="M165.6,35.12a3.3,3.3,0,0,0,.62-.06.33.33,0,0,0,.19-.16.29.29,0,0,0,0-.24L165.3,31.4a.32.32,0,0,0-.4-.19.3.3,0,0,0-.18.39l1,2.9a2.31,2.31,0,0,1-1.26-.27.31.31,0,0,0-.42.13.3.3,0,0,0,.13.41A3,3,0,0,0,165.6,35.12Z"/><path class="cls-6" d="M152.87,40.17c0,.08-1,2.36-2.43,3h0c-.11-.52-.21-1-.31-1.54A5.75,5.75,0,0,0,152.87,40.17Z"/><path class="cls-15" d="M151.51,35s-3-4-5.18-.86c-1.8,2.6,1.59,9.52,5.24,7Z"/><path class="cls-4" d="M148.41,41.15a3.38,3.38,0,0,0-1.93,3.05,3.34,3.34,0,1,0,4.79-3,3.31,3.31,0,0,0-1.25-.33c-.08-.2-.15-.41-.24-.62h0a3.76,3.76,0,0,1,1.54.32,4,4,0,1,1-5.5,3.64,4,4,0,0,1,2-3.46A4,4,0,0,0,148.41,41.15Z"/><path class="cls-6" d="M151.1,40h0a.3.3,0,0,0,.27-.34A5.75,5.75,0,0,0,148,35a.31.31,0,1,0-.23.57,5.16,5.16,0,0,1,3,4.14A.3.3,0,0,0,151.1,40Z"/><path class="cls-6" d="M148.23,38.1a.26.26,0,0,0,.19-.07h0c.27-.22,1.08-.75,1.61-.61a.3.3,0,0,0,.37-.22.3.3,0,0,0-.22-.38,3,3,0,0,0-2.14.73.31.31,0,0,0,0,.44A.32.32,0,0,0,148.23,38.1Z"/><path class="cls-18" d="M127.83,98.47s1,2.12-.15,6.74a26.34,26.34,0,0,1-3,7.53S119.91,105.54,127.83,98.47Z"/><path class="cls-15" d="M106.9,94.05c0,.23,0,.46,0,.69s.06.46.1.69l.06.33.08.33a12.11,12.11,0,0,0,.86,2.38c.18.35.37.7.56,1s.2.32.3.46l.31.43a15.23,15.23,0,0,0,2.54,2.67,25,25,0,0,0,2.51,1.82c.41.27.83.51,1.23.74s.81.46,1.22.68c.8.42,1.6.81,2.39,1.17,1.59.72,3.16,1.34,4.73,1.9s3.13,1,4.69,1.5,3.13.88,4.69,1.26,3.13.73,4.7,1.06a17.91,17.91,0,0,0,2.18.26c1.25.1,2.61.17,3.51.32.21-1.3-.88-2.35-.67-3.64.25-1.52.51-3,.78-4.55l-.63-1.35c-1-.23-1.9-.48-2.85-.74l-.09,0c-1.39-.38-2.77-.79-4.14-1.24s-2.77-.93-4.13-1.44-2.69-1.06-4-1.64-2.53-1.2-3.7-1.85c-.57-.33-1.14-.66-1.66-1-.26-.18-.52-.35-.76-.53s-.47-.36-.68-.54a9,9,0,0,1-.88-.83l-.2-.23h0l.22-.31.4-.55.64-.86c.45-.58.88-1.16,1.34-1.74L124,88.91c.94-1.16,1.87-2.34,2.83-3.5l.71-.88.72-.87,1-1.22.43-.52.52-.64.93-1.11,1.47-1.74q1.45-1.75,2.94-3.49L141.44,68l0,0a6.95,6.95,0,0,0-10.54-9.06l-1.54,1.77-1.52,1.78-1.5,1.78c-.5.59-1,1.19-1.49,1.79-1,1.19-2,2.4-3,3.61l-1.46,1.82-.19.24L119,73.27c-.49.61-1,1.23-1.45,1.85l-.72.93-.32.42-.39.52c-.95,1.24-1.9,2.51-2.84,3.78l-1.39,1.94c-.47.65-.93,1.32-1.39,2-.23.32-.46.67-.69,1l-.68,1L109,87l0,.07,0,0,0,0-.14.23-.28.47-.14.25-.13.26c-.09.17-.18.34-.26.52s-.16.38-.23.57l-.11.28-.11.3c-.06.21-.12.41-.19.62l-.15.65c0,.22-.09.43-.12.66s-.06.46-.08.68,0,.47,0,.7v.35C106.89,93.82,106.9,93.93,106.9,94.05Z"/><path d="M137.3,102.61a3.06,3.06,0,0,0-2.51-.81s-3.27,5.55-1.57,10.3a3.17,3.17,0,0,0,2.35.55S134,106.93,137.3,102.61Z"/><path d="M131,107.45a3.31,3.31,0,1,0,3.12-3.48A3.32,3.32,0,0,0,131,107.45Z"/><path class="cls-4" d="M134.39,109.73a2.47,2.47,0,1,0-2.6-2.32A2.46,2.46,0,0,0,134.39,109.73Z"/><path class="cls-16" d="M140.09,113.25c1.25.1,2.62.16,3.51.32.21-1.3-.88-2.35-.67-3.64.25-1.52.51-3,.78-4.55l-.63-1.36c-1-.22-1.9-.47-2.85-.73l-.09,0C139.75,105.42,139.14,109.94,140.09,113.25Z"/><path class="cls-17" d="M143.17,61.58a6.58,6.58,0,0,1-1.33,6.24c-2.78,3.21-8.1,9.43-11.05,13.33-4.12,5.45-9.33,12.29-9.33,12.29a78,78,0,0,0,6.37,5,13,13,0,0,0-3.18,14.27s-11.55-6.35-17.4-12.45c-4.27-4.45-3.08-10,.82-15.33,2-2.68,17.15-20,22.54-26a7.46,7.46,0,0,1,8-2.16A7.07,7.07,0,0,1,143.17,61.58Z"/><path class="cls-15" d="M140.35,104.91s.46-2.64,1.14-5.18A4.47,4.47,0,0,1,143.21,97a22.62,22.62,0,0,1,.66,4.93,2.11,2.11,0,0,1,1.8-.36c1.17.24,5.2,1.09,5.25,2,.12,2.13-4.93,1.12-4.93,1.12s5.4,1,5.26,2.51c-.11,1.2-5,1.43-5,1.43s4.71,0,4.14,1.73-5,.67-5,.67,3.15,1.51,2.84,2.14c-.43.92-2.3,1.17-5.31.44S140.35,104.91,140.35,104.91Z"/><path class="cls-18" d="M134.79,77.26a.37.37,0,0,1-.33-.1.4.4,0,0,1-.05-.58l7-8.28a.41.41,0,0,1,.59,0,.4.4,0,0,1,.05.58l-7,8.28A.44.44,0,0,1,134.79,77.26Z"/><path class="cls-18" d="M142.37,71.12l-2.63.4a.42.42,0,1,1-.13-.82l2.64-.4a.41.41,0,0,1,.47.34A.42.42,0,0,1,142.37,71.12Z"/><path class="cls-18" d="M114,95.23a.25.25,0,0,0,.17.1.26.26,0,0,0,.21,0c2-1.48,5.53-1.64,7.28-1.62l-.2-.23h0l.23-.31h-.52A15.54,15.54,0,0,0,117,91a.28.28,0,0,0-.35.17.27.27,0,0,0,.17.34,19,19,0,0,1,3.52,1.63c-1.93.09-4.57.45-6.26,1.71A.27.27,0,0,0,114,95.23Z"/><rect class="cls-4" x="92.59" y="165.49" width="8.26" height="6.37" rx="1.66"/><polygon class="cls-4" points="103.24 165.49 103.24 171.86 100.67 169.69 100.67 167.65 103.24 165.49"/><circle class="cls-13" cx="114.32" cy="168.67" r="5.3"/><path class="cls-4" d="M111.82,171.73a.53.53,0,0,0,.39-.16l5-5a.56.56,0,0,0,0-.78.56.56,0,0,0-.79,0l-5,5a.56.56,0,0,0,0,.79A.53.53,0,0,0,111.82,171.73Z"/><path class="cls-4" d="M116.82,171.73a.57.57,0,0,0,.4-.16.57.57,0,0,0,0-.79l-5-5a.55.55,0,0,0-.78.78l5,5A.54.54,0,0,0,116.82,171.73Z"/><rect class="cls-4" x="83.09" y="163.75" width="2.92" height="7.61" rx="1.46" transform="translate(169.09 335.11) rotate(-180)"/><rect class="cls-4" x="84.25" y="169.6" width="0.6" height="3.57" rx="0.3" transform="translate(169.09 342.76) rotate(180)"/><rect class="cls-4" x="81.61" y="172.18" width="5.86" height="1.25" rx="0.63" transform="translate(169.09 345.62) rotate(-180)"/></g></g></g></svg>