<svg xmlns="http://www.w3.org/2000/svg" viewBox="0 0 39.66 32.99"><defs><style>.cls-1{fill:#fa5;}</style></defs><g id="Layer_2" data-name="Layer 2"><g id="Option_1" data-name="Option 1"><path class="cls-1" d="M36.51,5H28V3.15A3.15,3.15,0,0,0,24.83,0h-10a3.16,3.16,0,0,0-3.16,3.15V5H3.15A3.16,3.16,0,0,0,0,8.16V29.84A3.16,3.16,0,0,0,3.15,33H36.51a3.16,3.16,0,0,0,3.15-3.15V8.16A3.16,3.16,0,0,0,36.51,5ZM13,3.15A1.86,1.86,0,0,1,14.83,1.3h10a1.85,1.85,0,0,1,1.85,1.85V5H13ZM1.3,8.16A1.85,1.85,0,0,1,3.15,6.3H36.51a1.85,1.85,0,0,1,1.85,1.86v6.67a1.85,1.85,0,0,1-1.85,1.85H3.15A1.85,1.85,0,0,1,1.3,14.83ZM29.24,18h4v3.56c0,.52-.25.78-.31.78H29.56c-.06,0-.32-.26-.32-.78ZM6.45,18h4v3.56c0,.52-.25.78-.31.78H6.77c-.06,0-.32-.26-.32-.78ZM38.36,29.84a1.85,1.85,0,0,1-1.85,1.85H3.15A1.85,1.85,0,0,1,1.3,29.84V17.38l.28.16A3.11,3.11,0,0,0,3.15,18h2v3.56a1.85,1.85,0,0,0,1.6,2.06H10.1a1.85,1.85,0,0,0,1.6-2.06V18H28v3.56a1.85,1.85,0,0,0,1.6,2.06h3.33a1.85,1.85,0,0,0,1.6-2.06V18h2a3.11,3.11,0,0,0,1.57-.44l.28-.16Z"/></g></g></svg>