<svg xmlns="http://www.w3.org/2000/svg" viewBox="0 0 354.24 253.78"><defs><style>.cls-1{isolation:isolate;}.cls-2{opacity:0.25;}.cls-3{fill:#46c7ce;}.cls-4{fill:#eaeaea;mix-blend-mode:multiply;}.cls-5{fill:gray;}.cls-6{fill:#4aa79e;}.cls-7{fill:#fff;}.cls-8{fill:#a5ddeb;}.cls-9{fill:#75c189;}.cls-10{fill:#509660;}.cls-11{fill:#fa5;}.cls-12{fill:#fcb1a9;}.cls-13{fill:#e88f79;}.cls-14{fill:#fb5a78;}.cls-15{fill:#010760;}.cls-16{fill:#2e3078;}.cls-17{fill:#e3f8ff;}.cls-18{fill:#4b4d91;}.cls-19{fill:#c1f1fd;}.cls-20{fill:#4d4d4d;}.cls-21{fill:#e03756;}</style></defs><g class="cls-1"><g id="Layer_2" data-name="Layer 2"><g id="Option_1" data-name="Option 1"><g class="cls-2"><path class="cls-3" d="M324.93,204c61.73-53.28,6.79-82.79,6.79-82.79a63.9,63.9,0,0,1-24.45-27.67c-10.51-23,7.07-52.48-5.58-74.42-9.31-16.16-31.57-21-50.75-18.47S213.66,11.11,194.54,14c-22.9,3.48-46.08-.48-69-2.92S78.36,7.93,57.2,17.26s-38,31.48-33.59,53.29c2,9.82,8.07,19.19,6.41,29.13-2.58,15.38-21.71,23.23-28,37.63-6.15,14.08,2.9,29.13,11.61,41.64,35.4,50.78,96.52,68.85,145.93,74.12C159.56,253.07,255.88,263.57,324.93,204Z"/></g><ellipse id="_Path_" data-name="&lt;Path&gt;" class="cls-4" cx="170.4" cy="240.81" rx="150.12" ry="5.81"/><rect class="cls-5" x="117.95" y="21.05" width="172.94" height="93.93"/><rect class="cls-6" x="121.21" y="23.73" width="166.11" height="88.56"/><path class="cls-7" d="M175.46,48.39c.1-.29.16-.58.26-.88l.39-1.61c.25-1.28.51-2.58.77-3.85.55-2.62,1.17-5.27,1.85-7.89.09-.29.16-.61.25-.9a3.11,3.11,0,0,1,.29-.84c.13-.17.49-.34.65-.07a5.22,5.22,0,0,1,.13.91c.19,1.24.49,2.52.74,3.77s.52,2.59.84,3.87.65,2.52.88,3.82c.09.64.19,1.27.32,1.89s.23,1.17.32,1.76c0,.2,0,.46-.32.46s-.35-.29-.39-.46c-.09-.64-.19-1.25-.29-1.86s-.22-1.23-.29-1.86c0-.15-.45-.08-.58,0l-1.23.07c-.87,0-1.71.12-2.59.1-.16,0-.58-.1-.61.1s0,.24-.06.34c-.13.71-.26,1.42-.39,2.15-.07.35-.16.69-.23,1s-.1.57-.45.57S175.4,48.57,175.46,48.39ZM177,44.23c1.58.1,3.17-.17,4.75-.17-.39-2.08-.94-4.12-1.39-6.17-.19-.81-.35-1.62-.52-2.41-.06-.31-.12-.66-.19-1,0-.09-.13-.78-.16-.93C178.63,37,177.59,40.82,177,44.23Z"/><path class="cls-7" d="M191.14,48.32c-.39,0-.42-.22-.36-.44a7.35,7.35,0,0,0,.13-1.86c0-1.33-.06-2.67-.1-4-.06-2.52-.12-5-.09-7.56,0-.64,0-1.25,0-1.89,0-.22,0-.52.16-.71a1,1,0,0,1,.71-.25A4.81,4.81,0,0,1,195,33a4.19,4.19,0,0,1,1.32,2.82,7.49,7.49,0,0,1-.58,3.35,5,5,0,0,1-1.2,1.69,7.17,7.17,0,0,1-1.64,1.08,6.3,6.3,0,0,1,2.78,1.15,3.11,3.11,0,0,1,.9,1.06,3,3,0,0,1,.13,1.39,3,3,0,0,1-1.13,2.11,5.89,5.89,0,0,1-3.4.73C191.85,48.34,191.49,48.34,191.14,48.32Zm.32-15.9c0,.22,0,.42,0,.64,0,.39,0,.81,0,1.22V37l.09,4.83a5.55,5.55,0,0,0,3-1.76A5.67,5.67,0,0,0,195.6,37a4.36,4.36,0,0,0-.74-3.3,4,4,0,0,0-3-1.57C191.59,32.13,191.46,32.23,191.46,32.42Zm0,15.39a8.41,8.41,0,0,0,3.14-.3,2.44,2.44,0,0,0,1.45-2.23,2.27,2.27,0,0,0-1.19-2.13,6.37,6.37,0,0,0-1.68-.68,8.88,8.88,0,0,0-1.72-.15v.19A34.73,34.73,0,0,1,191.49,47.81Z"/><path class="cls-7" d="M206,46.75a10.27,10.27,0,0,1-1.17-3.43,10.75,10.75,0,0,1,.74-7.13,8,8,0,0,1,2.17-2.79,2.47,2.47,0,0,1,1.91-.51c.35.07,1.65.71,1.1,1-.36.19-.58-.17-.78-.3a1.27,1.27,0,0,0-1-.19,2.83,2.83,0,0,0-1.55,1.1,9.3,9.3,0,0,0-1.81,3.23,10.3,10.3,0,0,0-.29,1.72,9.63,9.63,0,0,0,0,1.93,13.62,13.62,0,0,0,.65,3.6,5.79,5.79,0,0,0,2,3,1.47,1.47,0,0,0,1.52.17,1.81,1.81,0,0,0,.94-.86,3.74,3.74,0,0,0,.45-1.42c0-.24,0-.71.46-.66s.29.46.25.66a4,4,0,0,1-.77,1.91,2.22,2.22,0,0,1-1.81,1A3.72,3.72,0,0,1,206,46.75Z"/><path class="cls-7" d="M219.62,48c0-.32,0-.62,0-.93,0-.54,0-1.06.06-1.6V42c0-1.35,0-2.7-.13-4s-.22-2.64-.32-4c0-.32,0-.64-.07-.94a2.69,2.69,0,0,1,0-.85c0-.1.17-.15.23-.22a.43.43,0,0,1,.42-.08l.94.3a8.64,8.64,0,0,1,3.75,2,7.34,7.34,0,0,1,1.58,3.23,10.61,10.61,0,0,1,.33,3.8,8.53,8.53,0,0,1-1.72,4.68,7.14,7.14,0,0,1-2.07,1.76,5.53,5.53,0,0,1-2.62.81C219.65,48.42,219.62,48.17,219.62,48Zm.71-7.45c.06,2.45,0,4.9,0,7.35a6.3,6.3,0,0,0,3.29-1.72A7.77,7.77,0,0,0,225.37,43a9.68,9.68,0,0,0,.39-3.58,12.85,12.85,0,0,0-.91-3.38,4.37,4.37,0,0,0-.71-1.37,3.92,3.92,0,0,0-1.36-1.08,16.7,16.7,0,0,0-2.94-1.12,2.16,2.16,0,0,0,0,.44c0,.86.23,2.55.33,3.79S220.3,39.26,220.33,40.53Z"/><path class="cls-7" d="M234.49,48.61a7.21,7.21,0,0,1,0-.93c0-.63.09-1.25.09-1.88.07-1.28.07-2.53,0-3.8s0-2.52-.07-3.8-.06-2.67.07-4c0-.22,0-.51.12-.73s.52-.18.78-.18c.74,0,1.52,0,2.3,0,.38,0,1.94,0,1.77.54-.09.35-.51.13-.74.08a7,7,0,0,0-1.2-.13h-1l-.52,0a3.36,3.36,0,0,0-.55,0c-.26,0-.22.27-.26.42a7.77,7.77,0,0,0,0,.85c-.06,1.25,0,2.5,0,3.75,0,.83,0,1.64.06,2.45v1.45c0,.12,0,.31.07.44s.39.14.58.14a15.71,15.71,0,0,0,1.68,0,.82.82,0,0,1,.55.13.18.18,0,0,1,0,.29,1,1,0,0,1-.58.12c-.32,0-.61,0-.94,0a12.18,12.18,0,0,1-1.35-.05c0,1.59-.17,3.18-.17,4.78.91,0,1.85,0,2.78,0a7.23,7.23,0,0,0,1.49-.17,1.21,1.21,0,0,1,.42,0,.25.25,0,0,1,.2.34,1.26,1.26,0,0,1-.81.27,10.47,10.47,0,0,1-1.36.15c-1,0-2,0-3,0C234.52,49.1,234.49,48.83,234.49,48.61Z"/><path class="cls-8" d="M232.73,112.29H217.41a1.1,1.1,0,1,1,0-2.2h15.32a1.1,1.1,0,1,1,0,2.2Z"/><path class="cls-9" d="M279.94,197.22s-13-30.23-4.07-61.68C275.87,135.54,290.26,162.13,279.94,197.22Z"/><path class="cls-10" d="M276.65,142.82q0,6.28.33,12.55c.17,4.18.42,8.36.69,12.53s.6,8.35,1,12.51.81,8.33,1.34,12.49c0-4.19-.13-8.38-.33-12.56s-.42-8.35-.69-12.52-.6-8.35-1-12.51S277.18,147,276.65,142.82Z"/><path class="cls-9" d="M282.77,216.2S291.22,186,256.22,161C256.22,161,243.81,195.27,282.77,216.2Z"/><path class="cls-10" d="M281.51,212.9c-2.51-3.49-4.76-7.13-6.93-10.81-1.08-1.85-2.12-3.71-3.13-5.6l-1.5-2.83-1.41-2.87c-1.87-3.84-3.63-7.74-5.2-11.72s-3-8-4.42-12.07c.23,1.05.47,2.1.73,3.14s.48,2.1.79,3.13c.61,2.06,1.2,4.14,1.95,6.16a108,108,0,0,0,5,11.93,106.51,106.51,0,0,0,6.35,11.26A76.51,76.51,0,0,0,281.51,212.9Z"/><path class="cls-10" d="M256.22,161c35,24.95,26.55,55.17,26.55,55.17S282.12,189.63,256.22,161Z"/><path class="cls-9" d="M305.34,134.86s19.2,45.78-20.79,80.82C284.55,215.68,267.34,173.32,305.34,134.86Z"/><path class="cls-10" d="M302.09,143.58a138.89,138.89,0,0,0-6.8,16.17c-1,2.75-1.89,5.53-2.76,8.33-.44,1.39-.83,2.8-1.22,4.22s-.79,2.81-1.14,4.24l-1,4.27c-.32,1.43-.62,2.86-.91,4.3l-.42,2.16-.36,2.16c-.24,1.45-.5,2.89-.68,4.35a103.9,103.9,0,0,0-1,17.53c.89-5.79,1.82-11.51,3-17.19.13-.72.31-1.42.46-2.13l.45-2.12.45-2.13.51-2.11c.34-1.41.63-2.83,1-4.24l1.06-4.22c.33-1.41.72-2.8,1.07-4.21l.56-2.1.57-2.1c.73-2.81,1.56-5.59,2.32-8.4Z"/><path class="cls-10" d="M284.55,215.68c29-38.29,20.79-80.82,20.79-80.82S324.54,180.64,284.55,215.68Z"/><path class="cls-9" d="M274.64,218.1S246,214.37,237.8,169.86C237.8,169.86,275.46,179.91,274.64,218.1Z"/><path class="cls-10" d="M241.53,174l7,10.65c1.18,1.76,2.34,3.53,3.54,5.26l1.79,2.62,1.83,2.59c.59.87,1.23,1.72,1.84,2.58l.93,1.28.95,1.26c.64.84,1.25,1.7,1.91,2.53s1.31,1.64,2,2.48c2.66,3.27,5.43,6.45,8.44,9.48a57.75,57.75,0,0,1-9.6-8.49,104,104,0,0,1-8-10q-3.71-5.23-6.86-10.81A102.42,102.42,0,0,1,241.53,174Z"/><path class="cls-10" d="M274.64,218.1c.82-38.19-36.84-48.24-36.84-48.24S266.24,184.81,274.64,218.1Z"/><path class="cls-9" d="M286.53,213.53s1.15-30,40-39.23C326.49,174.3,323.14,210.46,286.53,213.53Z"/><path class="cls-10" d="M323.5,177.13c-3.41,2.18-6.7,4.57-9.88,7.08s-6.28,5.14-9.24,7.91a111,111,0,0,0-8.45,8.77,60.31,60.31,0,0,0-7,10,101.64,101.64,0,0,1,7.77-9.27l2.08-2.18,2.14-2.14c.7-.71,1.43-1.41,2.16-2.11s1.44-1.4,2.19-2.07l2.22-2.06,2.25-2c1.49-1.35,3-2.68,4.53-4C317.32,182.36,320.38,179.72,323.5,177.13Z"/><path class="cls-10" d="M286.53,213.53c29-9.35,40-39.23,40-39.23S323.14,210.46,286.53,213.53Z"/><rect class="cls-11" x="257.59" y="210.29" width="43.79" height="28.84" transform="translate(558.96 449.42) rotate(180)"/><rect class="cls-7" x="263.75" y="214.25" width="37.63" height="1.58" transform="translate(565.12 430.07) rotate(180)"/><rect class="cls-7" x="263.75" y="220.77" width="37.63" height="1.49" transform="translate(565.12 443.03) rotate(180)"/><rect class="cls-7" x="263.75" y="227.21" width="37.63" height="1.57" transform="translate(565.12 455.98) rotate(180)"/><path class="cls-8" d="M87.57,122.06a8.21,8.21,0,0,0,4.14,5.14A6.16,6.16,0,0,0,87.57,122.06Z"/><path class="cls-12" d="M92.38,125.64l-3.52,3.3s5.59,2.13,1.76,2.13-4.56-1.8-6.85-2.13-4.86,2.14-11.41,2.13,2.4-.48,4.86-2.6c0,0,1.85-4,3.2-4.23a32.7,32.7,0,0,1,4.75,0l4.3-2.52Z"/><path class="cls-12" d="M219.78,56.61s10.55-6.34,11-5.78-6.48,6-6.48,6Z"/><path class="cls-13" d="M224.33,56.87s7-5.48,6.48-6c0,0-.13,0-.26,0-.79,1-3,3-9.36,5.53l-.18.33Z"/><path class="cls-12" d="M224.12,56.24s3.56-1.27,3,.67-3.36,6.67-7.76,4.75S224.12,56.24,224.12,56.24Z"/><path class="cls-13" d="M225.56,55.88s-.08,4.49-4.07,5.57-.82-4.17-.82-4.17l4-1.72Z"/><path class="cls-12" d="M213.66,61.68l6.12-5.07s4.84-1,4.62,0-1.72,4.47-2.68,4.47-.45-2.61-.45-2.61l-3.88,6.64Z"/><path class="cls-14" d="M133.3,224.15s-2,8.27-2.06,13.31a1.69,1.69,0,0,1-1.69,1.67H109.49c-1.9,0,3.8-3.81,9.05-4,4.63-.19,5.6-8.32,5.6-8.32Z"/><path class="cls-15" d="M133.3,224.15l-9.16,2.64s-.73,6-3.88,7.82a9.13,9.13,0,0,1,4.1,1.84c1.56,1.56,4.24-1.35,7.08-1.84A103.89,103.89,0,0,1,133.3,224.15Z"/><path class="cls-14" d="M187.61,224.15s2,8.27,2.06,13.31a1.7,1.7,0,0,0,1.69,1.67h20.07c1.9,0-3.8-3.81-9.06-4-4.62-.19-5.59-8.32-5.59-8.32Z"/><path class="cls-15" d="M196,236.56a11.53,11.53,0,0,1,4.63-2c-3.13-1.81-3.85-7.81-3.85-7.81l-9.17-2.64a104,104,0,0,1,1.84,10.27C193.18,235.23,193.71,238.37,196,236.56Z"/><path class="cls-16" d="M200.76,232.91a26.9,26.9,0,0,1-12.78-.29c-5.57-1.69-24.52-48.6-33.59-77.24a152.8,152.8,0,0,1-4.54-16.77c-1-5.9.14-10.5,2.5-14a18.72,18.72,0,0,1,8.13-6.53c5.26-2.29,11-2.32,13.53-.54,0,0,.17.93.49,2.63,2.83,15.06,17.28,90.23,26.95,111.32A1,1,0,0,1,200.76,232.91Z"/><path class="cls-15" d="M151,127.12a19.19,19.19,0,0,0-1.12,11.49c1,5.59,3.93,15.34,7.76,26.5a112,112,0,0,1,8.5-38.5Z"/><path class="cls-16" d="M172,117.59,169.1,122l-10.31,15.83s-1.77,7.13-4.4,17.52c-6.06,23.92-16.69,65.08-20.92,76.19a1.6,1.6,0,0,1-1.44,1,25.06,25.06,0,0,1-9.53-1.38,1.59,1.59,0,0,1-1-1.58c.59-9.6,5-79.06,13.4-108.27.21-.72.41-1.4.62-2.07l24.94-1.17Z"/><path class="cls-15" d="M174.5,120.22c-1.54.59-3.33,1.2-5.4,1.81s-4.48,1.24-7.17,1.82a40.09,40.09,0,0,1-9.58.81,62.31,62.31,0,0,1-17.43-3.29c.21-.72.41-1.4.62-2.07l24.94-1.17c5.26-2.29,11-2.32,13.53-.54C174,117.59,174.18,118.52,174.5,120.22Z"/><path class="cls-17" d="M149.11,60.56a165.85,165.85,0,0,1,25.59,57,1.19,1.19,0,0,1-.63,1.33,48.33,48.33,0,0,1-38.53.45s1.49-15.06,0-19.08-7-17.66-5.52-26.09Z"/><path class="cls-17" d="M219.11,64.21c-2.34,3.25-18.3,24.84-28.33,24.53-10.85-.34-29.63-8.17-29.63-8.17l-28.52,6.49s-8.94,14.76-12.07,18.45S91.71,127.2,91.71,127.2c-.56-2.12-4.14-5.14-4.14-5.14l1.69-1.76s.1-.11.16-.16c4.48-4.66,15.77-16.41,18.61-19.44,3.58-3.8,18-30.64,19.46-32.31a5.82,5.82,0,0,1,1-.83l.2-.14c3.49-2.34,12.54-6.86,12.54-6.86h11.88c2.24,0,35.86,16.77,35.86,16.77l23.55-15.49.22-.14,1.48-1a.57.57,0,0,1,.52-.06A13.86,13.86,0,0,1,219,63.44.59.59,0,0,1,219.11,64.21Z"/><path class="cls-15" d="M141.13,57.45s5-8.38.21-13.77-25,.29-16.25,7S141.13,57.45,141.13,57.45Z"/><path class="cls-12" d="M133.7,58.9A11.48,11.48,0,0,1,138.1,64a3.52,3.52,0,0,0,6.7-1.43,1.39,1.39,0,0,0-.28-.84L138.73,54Z"/><path class="cls-13" d="M137,62.05a10.58,10.58,0,0,0-3.28-3.15l2-1.94,2.66-1.91S138.86,60.14,137,62.05Z"/><path class="cls-12" d="M138.73,54s-2.25,7.27-6.94,8.69S123,49.52,126.26,46.76s9.54-.42,11.44,5c0,0,1-2,1.61-1.22S140.64,55.26,138.73,54Z"/><path class="cls-13" d="M134.75,47.57l1.9,5.19s-1.74.34-3.58-1.95-7.55,0-8,.12c0-1.88.3-3.44,1.16-4.17C128.45,44.9,132.06,45.37,134.75,47.57Z"/><path class="cls-15" d="M137.7,51.78s-.58,1.46-1.51.82c-1.75-1.21-3.06-6.44-11.1-2l-1.46-4.22,12.52-3S137.28,49.57,137.7,51.78Z"/><path class="cls-13" d="M129.63,57s-.9,1.68-2.08.46A1.85,1.85,0,0,0,129.63,57Z"/><path class="cls-7" d="M132.58,58.29l-4.09,1.5S130.82,63.47,132.58,58.29Z"/><path class="cls-15" d="M131.6,53.08s-1.75-1.43-2.72.51Z"/><path class="cls-18" d="M123.56,48.31a8.93,8.93,0,0,0,3.53.26,11.8,11.8,0,0,0,1.76-.31c.58-.12,1.15-.35,1.71-.47a5,5,0,0,1,.85-.12,5.09,5.09,0,0,1,.87.06,5.27,5.27,0,0,1,1.63.57,7.26,7.26,0,0,1,1.42,1,8.7,8.7,0,0,1,1.18,1.32A7.47,7.47,0,0,0,134,48.16a4.8,4.8,0,0,0-3.49-.59c-.6.14-1.13.37-1.71.5-.28.08-.57.13-.86.19s-.58.11-.87.14a11.48,11.48,0,0,1-1.76.11A7.89,7.89,0,0,1,123.56,48.31Z"/><path class="cls-18" d="M140.18,44.25a8.22,8.22,0,0,1,.67,1.19c.1.2.19.41.28.62s.16.42.23.63l.2.65.16.66c0,.22.07.44.11.66s0,.45.06.67l0,.34V50c0,.22,0,.45,0,.67l-.07.67a1.86,1.86,0,0,1-.06.34l-.06.33a10.13,10.13,0,0,1-.35,1.31,5.47,5.47,0,0,1-.23.64l-.26.63c.11-.2.21-.41.31-.61a5.75,5.75,0,0,0,.29-.62,10.44,10.44,0,0,0,.41-1.31,9,9,0,0,0,.23-2.74,9.54,9.54,0,0,0-.6-2.69A8.48,8.48,0,0,0,140.18,44.25Z"/><path class="cls-13" d="M138.72,52.29c.11.53.32.94.48.9s.21-.48.1-1-.32-.94-.48-.9S138.62,51.76,138.72,52.29Z"/><path class="cls-19" d="M165.51,118.52a.1.1,0,0,1-.11-.1,105.84,105.84,0,0,0-11.49-37.58A80.48,80.48,0,0,0,145,67a.11.11,0,1,1,.17-.14,80.93,80.93,0,0,1,8.94,13.83,106.23,106.23,0,0,1,11.51,37.66.11.11,0,0,1-.1.13Z"/><path class="cls-19" d="M133.56,94.84a54.54,54.54,0,0,0,1.09-11.32l-3,5.2C132.23,90.92,132.92,93,133.56,94.84Z"/><path class="cls-19" d="M157,72.75c2.07,3.46,4.2,7.82,4.2,7.82s1.25.53,3.3,1.31C161.45,78.63,157,72.75,157,72.75Z"/><path class="cls-19" d="M141.38,75l-5.16-10.58a.12.12,0,0,1,.06-.15.11.11,0,0,1,.14,0l4.91,10.08,2.83-8.79a.12.12,0,0,1,.14-.08.11.11,0,0,1,.07.14Z"/><path class="cls-19" d="M153.89,70.61l-9.14-4.53a.12.12,0,0,1-.05-.15.11.11,0,0,1,.15-.05L153.09,70l-6.73-8.44a.11.11,0,0,1,0-.15.12.12,0,0,1,.16,0Z"/><path class="cls-19" d="M134.76,76.25a.11.11,0,0,1-.09.13.12.12,0,0,1-.13-.09,13.94,13.94,0,0,0-6-8.73l.2-.14A14.12,14.12,0,0,1,134.76,76.25Z"/><path class="cls-19" d="M148.52,69.34c.3.48.38,1,.17,1.11s-.62-.15-.93-.64-.38-1-.17-1.12S148.21,68.85,148.52,69.34Z"/><path class="cls-19" d="M160,90.55c.17.55.12,1-.12,1.13s-.56-.31-.73-.86-.12-1,.11-1.12S159.83,90,160,90.55Z"/><path class="cls-19" d="M163.81,102.33c.13.56,0,1.06-.2,1.12s-.54-.36-.67-.92,0-1,.2-1.11S163.68,101.77,163.81,102.33Z"/><path class="cls-19" d="M166.56,115.23c.09.56,0,1.06-.26,1.1s-.53-.38-.63-.94,0-1.06.26-1.1S166.46,114.66,166.56,115.23Z"/><path class="cls-19" d="M154.75,79.24c.25.51.28,1,.06,1.13s-.61-.22-.86-.74-.28-1-.06-1.12S154.5,78.73,154.75,79.24Z"/><polygon class="cls-19" points="205.14 66.7 188.99 77.33 183.4 82.25 205.14 66.7"/><path class="cls-19" d="M95.08,114.25l20-19.41-7,5.86c-2,2.09-8,8.35-13,13.55Z"/><path class="cls-15" d="M133.13,139.26a.65.65,0,0,1-.41-.15.67.67,0,0,1-.11-.94l10.12-12.84a.67.67,0,0,1,1.05.83L133.66,139A.67.67,0,0,1,133.13,139.26Z"/><path class="cls-15" d="M123.69,230.19a.11.11,0,0,1-.11-.12c.88-37.81,14.37-95.27,14.51-95.85a.11.11,0,0,1,.13-.08.11.11,0,0,1,.08.14c-.13.57-13.62,58-14.5,95.8A.11.11,0,0,1,123.69,230.19Z"/><path class="cls-15" d="M191.9,231.75a.11.11,0,0,1-.1-.06c-20.57-39.37-28.46-93.64-28.54-94.18a.11.11,0,0,1,.1-.13.1.1,0,0,1,.12.09c.08.55,8,54.78,28.52,94.12a.12.12,0,0,1-.05.15Z"/><path class="cls-19" d="M93.44,124.79c-.09,0-.13,0-.15,0a16.38,16.38,0,0,0-4-4.45s.1-.11.16-.16a16.57,16.57,0,0,1,4.06,4.5A.1.1,0,0,1,93.44,124.79Z"/><path class="cls-19" d="M212.76,61.7A14.71,14.71,0,0,1,217.18,65a.12.12,0,0,1,0,.16.11.11,0,0,1-.08,0,.1.1,0,0,1-.08,0,14.5,14.5,0,0,0-4.47-3.34Z"/><path class="cls-19" d="M218.33,64.8a.47.47,0,1,1-.47-.47A.47.47,0,0,1,218.33,64.8Z"/><path class="cls-19" d="M92.85,125.62a.47.47,0,1,1-.47-.47A.47.47,0,0,1,92.85,125.62Z"/><path class="cls-20" d="M48.66,236.22a2.91,2.91,0,1,1-2.91-2.9A2.91,2.91,0,0,1,48.66,236.22Z"/><path class="cls-20" d="M91.37,236.22a2.91,2.91,0,1,1-2.9-2.9A2.9,2.9,0,0,1,91.37,236.22Z"/><path class="cls-16" d="M89.7,236.22A1.23,1.23,0,1,1,88.47,235,1.23,1.23,0,0,1,89.7,236.22Z"/><path class="cls-16" d="M47,236.22A1.23,1.23,0,1,1,45.75,235,1.23,1.23,0,0,1,47,236.22Z"/><path class="cls-11" d="M97.58,132.46V133H36.1v-1.88H96.19a1.38,1.38,0,0,1,1.38,1.27A.49.49,0,0,1,97.58,132.46Z"/><path class="cls-21" d="M97.58,132.46V133H36.1v-.61H97.57A.49.49,0,0,1,97.58,132.46Z"/><path class="cls-11" d="M26.19,107a.58.58,0,0,0-.53.81l10.16,22.67.28.61H70.49L60,107.75a1.31,1.31,0,0,0-1.19-.77Z"/><path class="cls-7" d="M68.93,130.28c.07,0,.09-.07.07-.1l-9.94-22.37a.07.07,0,0,0-.07,0H30.18a.07.07,0,0,0-.08.07.08.08,0,0,0,.08.08H58.94l9.92,22.32A.07.07,0,0,0,68.93,130.28Z"/><polygon class="cls-7" points="47.64 118.46 44.34 118.46 46.91 121.26 47.64 118.46"/><rect class="cls-5" x="65.1" y="134.25" width="3.91" height="100.3"/><path class="cls-5" d="M105.17,135.55H29.05a1.3,1.3,0,1,1,0-2.6h76.12a1.3,1.3,0,0,1,0,2.6Z"/><path class="cls-5" d="M91.06,234.55H43a1,1,0,0,1,0-1.93h48a1,1,0,0,1,0,1.93Z"/><path class="cls-5" d="M75.12,136.78H59a1.23,1.23,0,0,1-1.23-1.23H76.35A1.23,1.23,0,0,1,75.12,136.78Z"/></g></g></g></svg>