<svg xmlns="http://www.w3.org/2000/svg" viewBox="0 0 16 21.55"><defs><style>.cls-1{fill:#46c7ce;}</style></defs><g id="Layer_2" data-name="Layer 2"><g id="Option_1" data-name="Option 1"><path class="cls-1" d="M14.24,8.32h-1V5.23a5.23,5.23,0,0,0-10.46,0V8.32h-1A1.76,1.76,0,0,0,0,10.08v9.71a1.76,1.76,0,0,0,1.76,1.76H14.24A1.76,1.76,0,0,0,16,19.79V10.08A1.76,1.76,0,0,0,14.24,8.32ZM3.52,5.23a4.48,4.48,0,1,1,9,0V8.32h-9ZM15.26,19.79a1,1,0,0,1-1,1H1.76a1,1,0,0,1-1-1V10.08a1,1,0,0,1,1-1H14.24a1,1,0,0,1,1,1Z"/><path class="cls-1" d="M8,12a1.54,1.54,0,0,0-1.53,1.53,1.52,1.52,0,0,0,1,1.41l.2.09v2.43a.37.37,0,1,0,.74,0V15.05l.2-.09a1.52,1.52,0,0,0,1-1.41A1.54,1.54,0,0,0,8,12Zm0,2.31a.78.78,0,0,1-.78-.78.78.78,0,1,1,1.56,0A.78.78,0,0,1,8,14.33Z"/></g></g></svg>