<svg xmlns="http://www.w3.org/2000/svg" xmlns:xlink="http://www.w3.org/1999/xlink" viewBox="0 0 801.05 174.46"><defs><style>.cls-1,.cls-15,.cls-17,.cls-7{fill:none;}.cls-2{isolation:isolate;}.cls-3{fill:#eaeaea;mix-blend-mode:multiply;}.cls-4{fill:#f3a59c;}.cls-5{fill:#bda99a;}.cls-6{fill:#fff;}.cls-15,.cls-7{stroke:#1d0300;stroke-linecap:round;stroke-linejoin:round;}.cls-7{stroke-width:0.31px;}.cls-8{fill:#d3c2b5;}.cls-9{fill:#090b0c;}.cls-10{fill:#3c5057;}.cls-11{fill:#7d8a90;}.cls-12{fill:#b95360;}.cls-13{fill:#e28882;}.cls-14{fill:#331226;}.cls-15{stroke-width:0.32px;}.cls-16{fill:#ffab4b;}.cls-17{stroke:#fff;stroke-miterlimit:10;stroke-width:0.45px;}.cls-18{fill:#a4b1ba;}.cls-19{fill:#151d3e;}.cls-20{fill:#4e60ac;}.cls-21{fill:#2a3956;}.cls-22{fill:#db8038;}.cls-23{fill:#ba5e5a;}.cls-24{clip-path:url(#clip-path);}.cls-25{fill:#df807a;}.cls-26{fill:#f9fdff;}.cls-27{fill:#00302d;}.cls-28{fill:#28203d;}</style><clipPath id="clip-path"><path class="cls-1" d="M77.13,52.74c-.73-10.14-15.74-12.62-18.2-13v0l-.17,0-.18,0v0c-2.47.35-17.46,2.86-18.18,13-.77,11,0,40.44,0,40.44l16.81,0h3.11l16.82,0S77.93,63.78,77.13,52.74Z"/></clipPath></defs><g class="cls-2"><g id="Layer_2" data-name="Layer 2"><g id="Layer_2-2" data-name="Layer 2"><ellipse class="cls-3" cx="743.37" cy="170.5" rx="48.89" ry="3.95"/><path d="M726.73,163.85l-5.05,2.29a1.24,1.24,0,0,0-.72,1.4c.11.45.52.87,1.62.93,2.46.12,13.38-1.22,13.38-1.22l-.05,1.63L741,169s.53-6.72-1-7.62Z"/><path class="cls-4" d="M734.41,158.32l-7.68,5.53s.78,2.23,4.62.89,8.66-3.41,8.66-3.41l-.08-3.59Z"/><path class="cls-4" d="M727,87.6l3.61,32.53a4.12,4.12,0,0,0,4.78,3.49h0c1.84-.32,4,.73,4.17-1.13.79-8.75,2.75-36.51-.54-43.71Z"/><path class="cls-4" d="M730.62,120.13l3.72,38.19,5.63,1,1.51-17.36s1.12-21.07-5.88-28.8Z"/><path d="M742.8,164l-5,2.45a1.24,1.24,0,0,0-.69,1.42c.13.44.55.85,1.66.87,2.46.05,13.33-1.65,13.33-1.65v1.64l5.08-.1s.32-6.74-1.22-7.58Z"/><path class="cls-4" d="M750.29,158.24,742.8,164s.85,2.2,4.65.73,8.54-3.68,8.54-3.68l-.2-3.59Z"/><path class="cls-4" d="M740.57,87.8l4.65,32.39a4.13,4.13,0,0,0,4.89,3.34h0c1.84-.38,4,.59,4.14-1.27.51-8.77,1.57-36.58-2-43.67Z"/><path class="cls-4" d="M745.22,120.19l5,38.05,5.66.8,1-17.4s.4-21.1-6.85-28.59Z"/><path d="M750,62.64s8.94,8.54,7,42.28c0,0-15.71,2.44-31.2-1.17,0,0,2.57-35,4.82-41.89Z"/><path class="cls-5" d="M733.9,29.76s-8.14,1.82-9.71,12.54l5.15,4.52Z"/><path class="cls-4" d="M717.18,60.75c.15-.24,3.26,1.39,3.36,1.12a118,118,0,0,0,6.4-13c.94-2.19-.21-8.94-2.58-9.16-1.74-.16-3.85,3.07-4.29,4.76L715.6,55.27Z"/><path class="cls-4" d="M719.37,56.27,702.6,47,701,48.65,714.5,62.36a3.93,3.93,0,0,0,6.43-1.2h0A3.93,3.93,0,0,0,719.37,56.27Z"/><path class="cls-4" d="M695.53,46.06a5.37,5.37,0,0,0,2,5.39c1.85,1.43,4.27,1.39,5.43-.1s0-7.67-1.85-9.1S696.21,42.66,695.53,46.06Z"/><path class="cls-6" d="M750.5,62.08c-.69,0-19.8-.22-19.8-.22l.65-29.07,14.76,2.71Z"/><path class="cls-4" d="M746.18,29.61l-5.92-1.11-4.39.73-3.48,6.84s-1.06,3.14,4.34,3.71a10.14,10.14,0,0,0,10.13-5.52A5.44,5.44,0,0,0,746.18,29.61Z"/><path class="cls-5" d="M735.87,29.23s-4.57,9.3-3.59,19-3.4,24.06-3.4,24.06L728,41.36S728.18,30.24,735.87,29.23Z"/><path class="cls-7" d="M728.59,37.2s-1.87,4.43-.71,11.92"/><path class="cls-5" d="M746.18,29.61S734.1,49.05,754.8,72.53l-3.39-41.46Z"/><path class="cls-5" d="M751.38,31.06s10,2.23,10.19,22.37l-11.93-1.28-1.43-16.39Z"/><path class="cls-8" d="M749.89,57.06s-2.57-2.58-.25-4.91c0,0,7.1-1,12.08,1.23A2.6,2.6,0,0,1,763.27,56,4,4,0,0,1,761.5,59S758.89,57.18,749.89,57.06Z"/><line class="cls-7" x1="749.64" y1="52.15" x2="747.81" y2="39.92"/><path class="cls-4" d="M749.89,57.06l-18.59,2.1,1,3.67,25.09.94c2.52.09,3.76-2.31,4.13-4.8h0A14.76,14.76,0,0,0,749.89,57.06Z"/><path class="cls-4" d="M724,61c.06,2.32,2.45,4.14,5.32,4.05s6.87-1.79,6.8-4.11-5.41-5.5-8.28-5.42S723.89,58.64,724,61Z"/><path class="cls-9" d="M749.37,59.13l-19.83-.26,0-2.23,19.83.25A1.12,1.12,0,0,1,750.5,58h0A1.12,1.12,0,0,1,749.37,59.13Z"/><path class="cls-10" d="M732.15,58.91l-29.23-.38a2.33,2.33,0,0,1-2.24-1.74l-5.43-20.52a1.52,1.52,0,0,1,1.5-1.92l28.45.36a1.21,1.21,0,0,1,1.15.91Z"/><path class="cls-11" d="M713.7,47.41a2.23,2.23,0,1,1-2.2-2.26A2.22,2.22,0,0,1,713.7,47.41Z"/><path class="cls-12" d="M749.37,7.25s1.18,8,4,12.5a1.85,1.85,0,0,1-.61,2.51c-3.27,2.06-12.44,5.91-24,1.22a1.88,1.88,0,0,1-1.13-2c.27-2.15,2.19-6.35,5-10.11Z"/><path class="cls-13" d="M733.12,14.44a2.7,2.7,0,1,1-1.75-3.38A2.69,2.69,0,0,1,733.12,14.44Z"/><polygon class="cls-4" points="736.19 19.95 736.31 30.86 744.15 30.62 741.44 13.9 736.19 19.95"/><polygon class="cls-14" points="736.27 25.96 741.5 20.37 736.21 21.57 736.27 25.96"/><path class="cls-4" d="M731.35,4A4,4,0,0,0,730,6.26c-.55,2.56-1.63,7.91-.75,10.66,1.14,3.57,4,5.85,8.68,5,0,0,5.41-.18,6.85-8.11C746.84,2.59,737.23-.82,731.35,4Z"/><path d="M730.92,14.37a.62.62,0,0,1-.76.43.62.62,0,1,1,.33-1.19A.62.62,0,0,1,730.92,14.37Z"/><path d="M736.13,14.54a.62.62,0,1,1-.43-.76A.62.62,0,0,1,736.13,14.54Z"/><path class="cls-15" d="M732,15.75l-.49,1.14a.31.31,0,0,0,.2.42l.65.18"/><path d="M733.62,11.29l4.4.16a2.49,2.49,0,0,0-2.12-1.2A2.73,2.73,0,0,0,733.62,11.29Z"/><path d="M728.55,11.26l2.69.05s-.34-1.13-1.27-1.14S728.55,11.26,728.55,11.26Z"/><path class="cls-15" d="M736.15,17.94a3.43,3.43,0,0,1-3.45.74"/><path class="cls-12" d="M742.77,13s-3.81-.5-2.17-7.39a47.24,47.24,0,0,1-10.49.3s1.36-7.5,12.17-5.56c11.22,2,6.91,15,2.68,18.73Z"/><path class="cls-4" d="M748.19,15.32a3.15,3.15,0,1,1-2.05-4A3.16,3.16,0,0,1,748.19,15.32Z"/><path class="cls-15" d="M746.62,13.47a2.29,2.29,0,0,0-2.94,1.83"/><path class="cls-12" d="M738.18,0s-9.41,0-10.69,7.51l14.91.53,1-5Z"/><rect class="cls-16" x="774.36" y="18.63" width="26.69" height="25.45" rx="5.61"/><circle class="cls-6" cx="787.76" cy="30.93" r="6.58"/><path class="cls-16" d="M787.76,31.57a.64.64,0,0,1-.64-.64V29a.64.64,0,0,1,.64-.64.64.64,0,0,1,.64.64v1.95A.64.64,0,0,1,787.76,31.57Z"/><path class="cls-16" d="M787.76,31.93a.64.64,0,0,1,0-1.28l4.39-.36a.64.64,0,1,1,.1,1.28l-4.39.36Z"/><path class="cls-6" d="M112.85,35.46H87.57a2.3,2.3,0,0,1-2.31-2.31V5.47h29.9V33.15A2.3,2.3,0,0,1,112.85,35.46Z"/><path class="cls-16" d="M115.16,2.28V5.47H85.26V2.28A1.7,1.7,0,0,1,87,.59h26.5A1.7,1.7,0,0,1,115.16,2.28Z"/><rect class="cls-15" x="105.06" y="10.29" width="5.68" height="5.68" transform="translate(215.8 26.26) rotate(180)"/><rect class="cls-15" x="97.49" y="10.29" width="5.68" height="5.68" transform="translate(200.67 26.26) rotate(180)"/><rect class="cls-15" x="89.93" y="10.29" width="5.68" height="5.68" transform="translate(185.55 26.26) rotate(180)"/><rect class="cls-15" x="105.06" y="17.5" width="5.68" height="5.68" transform="translate(215.8 40.69) rotate(180)"/><rect class="cls-15" x="97.49" y="17.5" width="5.68" height="5.68" transform="translate(200.67 40.69) rotate(180)"/><rect class="cls-16" x="89.93" y="17.5" width="5.68" height="5.68" transform="translate(185.55 40.69) rotate(180)"/><line class="cls-17" x1="91.98" y1="19.53" x2="93.56" y2="21.16"/><line class="cls-17" x1="93.56" y1="19.53" x2="91.98" y2="21.16"/><rect class="cls-15" x="105.06" y="24.72" width="5.68" height="5.68" transform="translate(215.8 55.13) rotate(180)"/><rect class="cls-15" x="97.49" y="24.72" width="5.68" height="5.68" transform="translate(200.67 55.13) rotate(180)"/><rect class="cls-15" x="89.93" y="24.72" width="5.68" height="5.68" transform="translate(185.55 55.13) rotate(180)"/><path class="cls-16" d="M26.51,34.82H10.81A3.8,3.8,0,0,1,7,31H7a3.79,3.79,0,0,1,3.79-3.79h15.7A3.8,3.8,0,0,1,30.31,31h0A3.8,3.8,0,0,1,26.51,34.82Z"/><path class="cls-6" d="M15.33,31a1,1,0,1,1-1-1A1,1,0,0,1,15.33,31Z"/><path class="cls-6" d="M19.68,31a1,1,0,1,1-1-1A1,1,0,0,1,19.68,31Z"/><path class="cls-6" d="M24,31a1,1,0,1,1-2,0,1,1,0,0,1,2,0Z"/><path class="cls-3" d="M119.69,167c0,2.58-26.79,4.67-59.84,4.67S0,169.53,0,167s26.79-4.67,59.85-4.67S119.69,164.37,119.69,167Z"/><path class="cls-18" d="M83.21,104.7H34.37l-.06,58.67a1.19,1.19,0,1,0,2.38,0V109.48H80.87v53.89a1.2,1.2,0,1,0,2.39,0Z"/><polygon class="cls-19" points="70.84 105.79 46.72 105.79 46.72 86.95 70.28 86.95 70.84 105.79"/><path class="cls-20" d="M45,159.79s-4,2.84-6.43,3S30.15,166,36.76,167c0,0,8.21-.11,10.13-2.81l.12,2.32,3.68-.17s2.21-5.42-.32-6.75Z"/><path class="cls-20" d="M72.52,160.43s4,2.84,6.43,3,8.46,3.28,1.85,4.19c0,0-8.21-.11-10.13-2.81l-.11,2.33-3.69-.18s-2.21-5.41.32-6.75Z"/><path class="cls-21" d="M54.9,94.91a7.67,7.67,0,1,0-15.34-.49h0v.2c0,.09,0,.19,0,.29a8.4,8.4,0,0,0,.15,1.59l3.59,64.32,8.5.18,2.13-56.95C54.54,102.9,54.9,96.33,54.9,94.91Z"/><path class="cls-21" d="M62.5,94.91a7.52,7.52,0,1,1,15-.49h0l0,.2a2.64,2.64,0,0,1,0,.29,9.31,9.31,0,0,1-.15,1.59l-3.52,64.32-8.33.18-2.09-56.95C62.85,102.9,62.5,96.33,62.5,94.91Z"/><polygon class="cls-22" points="12.9 168.19 31.13 91.33 25.83 91.33 10.27 166.87 12.9 168.19"/><polygon class="cls-22" points="104.66 168.19 86.43 91.33 91.73 91.33 107.29 166.87 104.66 168.19"/><rect class="cls-23" x="55.69" y="28.05" width="6.18" height="13.62"/><path class="cls-20" d="M77.13,52.74c-.73-10.14-15.74-12.62-18.2-13v0l-.17,0-.18,0v0c-2.47.35-17.46,2.86-18.18,13-.77,11,0,40.44,0,40.44l16.81,0h3.11l16.82,0S77.93,63.78,77.13,52.74Z"/><g class="cls-24"><path class="cls-25" d="M68.39,36a9.61,9.61,0,1,1-9.61-9.61A9.6,9.6,0,0,1,68.39,36Z"/></g><path class="cls-25" d="M50.91,26.54a4.76,4.76,0,0,0-1.17-3,2.38,2.38,0,0,0-3.56.11c-1.07,1.59,1.11,3.72,2.63,4.14a1.4,1.4,0,0,0,2.1-1.21Z"/><path class="cls-25" d="M66.14,26.54a4.82,4.82,0,0,1,1.18-3,2.38,2.38,0,0,1,3.56.11c1.07,1.59-1.12,3.72-2.63,4.14a1.4,1.4,0,0,1-2.11-1.21Z"/><path class="cls-25" d="M49.24,28.42A7.6,7.6,0,0,0,56.83,36h3.8a7.6,7.6,0,0,0,7.59-7.61V21.19a7.6,7.6,0,0,0-7.59-7.61h-3.8a7.6,7.6,0,0,0-7.59,7.61Z"/><path class="cls-26" d="M61.49,30.65A3.2,3.2,0,0,1,56,30.7Z"/><path class="cls-19" d="M49.94,24c-.94-3.63.74-9,5.17-9.09a1.07,1.07,0,0,0,0-2.13c-5.86.06-8.51,6.78-7.22,11.79a1.06,1.06,0,0,0,2-.57Z"/><path class="cls-19" d="M67.53,24c.93-3.63-.75-9-5.18-9.09a1.07,1.07,0,0,1,0-2.13c5.86.06,8.51,6.78,7.22,11.79a1.06,1.06,0,0,1-2-.57Z"/><path class="cls-27" d="M59.19,20.14a5.13,5.13,0,0,0-.48,4.2c.3,1,2.43,4.55-.09,4.28-.3,0-.3.44,0,.47,1.2.13,1.82-.65,1.66-1.82a10.72,10.72,0,0,0-1-2.72,4.59,4.59,0,0,1,.32-4.17c.14-.27-.27-.5-.41-.24Z"/><path class="cls-28" d="M53,25c0,.76.44,1.37,1,1.37s1-.62,1-1.37-.43-1.37-1-1.37S53,24.25,53,25Z"/><path class="cls-28" d="M62.34,25c0,.76.43,1.37,1,1.37s1-.62,1-1.37-.44-1.37-1-1.37S62.33,24.25,62.34,25Z"/><path class="cls-19" d="M67.6,17.68a6.83,6.83,0,0,0-1.15-4.61C63,7.45,53.06,6.75,51.23,14.14c-.66,2.68.51,6.24,3.79,6.52a2.87,2.87,0,0,0,2-.55,5,5,0,0,0,4.43.82,3.94,3.94,0,0,0,1.22-.67,8.74,8.74,0,0,0,.87.14C65.21,20.53,67.38,19.52,67.6,17.68Z"/><rect class="cls-16" x="5.13" y="88.63" width="107.3" height="5.41"/><path class="cls-18" d="M84.43,51.68H33.13c-3.09,0-5.18,2.77-4.68,6.13l3.92,26.24a6.07,6.07,0,0,0,5.78,5.09H79.41a6.07,6.07,0,0,0,5.78-5.09l3.92-26.24C89.61,54.45,87.52,51.68,84.43,51.68Z"/><path class="cls-6" d="M64,70.44a5.26,5.26,0,1,1-5.26-5.25A5.26,5.26,0,0,1,64,70.44Z"/></g></g></g></svg>