<svg xmlns="http://www.w3.org/2000/svg" viewBox="0 0 215.68 187.56"><defs><style>.cls-1{fill:#ffd371;opacity:0.3;}.cls-2{fill:#fa8119;}.cls-3{fill:#ffb940;}.cls-4{fill:#ffa41c;}</style></defs><g id="Layer_2" data-name="Layer 2"><g id="Option_1" data-name="Option 1"><path class="cls-1" d="M111.28,177.11c-61-.3-87.55-22.11-87.55-22.11S-16,132.05,7.4,72.71C26.07,25.49,92.27-12.89,124.58,4.09s29.29,38.24,64.72,69.2S216.38,128.65,210,141C210,141,189.93,177.5,111.28,177.11Z"/><circle class="cls-2" cx="115.02" cy="79.11" r="31.9" transform="translate(-13.15 134.43) rotate(-57.86)"/><circle class="cls-3" cx="112.31" cy="78.45" r="31.9" transform="translate(-21.25 108.94) rotate(-47.79)"/><path class="cls-4" d="M112.28,107.9a29.75,29.75,0,0,1-6.92-.83,28.93,28.93,0,1,1,6.92.83Zm-.1-56.43a27.4,27.4,0,1,0,6.5.79A27.18,27.18,0,0,0,112.18,51.47Z"/><path class="cls-2" d="M147.27,138.91a31.9,31.9,0,1,0-12.54,43.34A31.9,31.9,0,0,0,147.27,138.91Z"/><path class="cls-3" d="M144.83,140.25a31.9,31.9,0,1,0-12.54,43.34A31.91,31.91,0,0,0,144.83,140.25Z"/><path class="cls-4" d="M117.11,185.06a29.09,29.09,0,1,1,14-3.62A29,29,0,0,1,117.11,185.06ZM117,128.64a27.34,27.34,0,1,0,7.64,1.08A27.81,27.81,0,0,0,117,128.64Z"/><path class="cls-2" d="M86.49,109.59a24,24,0,1,0-21.81,25.95A24,24,0,0,0,86.49,109.59Z"/><path class="cls-3" d="M84.41,109.77a24,24,0,1,0-21.82,26A24,24,0,0,0,84.41,109.77Z"/><path class="cls-4" d="M60.53,134a21.87,21.87,0,0,1-21.74-20h0a21.84,21.84,0,1,1,23.64,19.88C61.8,133.93,61.16,134,60.53,134ZM40.09,113.89A20.54,20.54,0,1,0,58.78,91.66a20.56,20.56,0,0,0-18.69,22.23Z"/><path class="cls-2" d="M79.49,45.14a12.53,12.53,0,1,0-4.3,17.19A12.52,12.52,0,0,0,79.49,45.14Z"/><path class="cls-3" d="M78.55,45.7a12.53,12.53,0,1,0-4.29,17.19A12.53,12.53,0,0,0,78.55,45.7Z"/><path class="cls-4" d="M67.91,63.68a11.4,11.4,0,0,1-9.81-5.54h0a11.43,11.43,0,1,1,9.81,5.54Zm-9.23-5.89A10.73,10.73,0,0,0,78.3,54.88a10.63,10.63,0,0,0-1.21-8.13,10.73,10.73,0,0,0-18.41,11Z"/><path class="cls-2" d="M124.65,1a12.53,12.53,0,1,0,9,15.27A12.53,12.53,0,0,0,124.65,1Z"/><path class="cls-3" d="M123.59.7a12.53,12.53,0,1,0,9,15.27A12.52,12.52,0,0,0,123.59.7Z"/><path class="cls-4" d="M120.41,24.39a11.47,11.47,0,0,1-9.84-5.63,11.39,11.39,0,0,1-1.21-8.65h0a11.41,11.41,0,1,1,11,14.28Zm0-22.16a10.76,10.76,0,0,0-10.37,8h0a10.74,10.74,0,0,0,7.7,13.08,10.7,10.7,0,0,0,13.08-7.7A10.76,10.76,0,0,0,120.39,2.23Z"/><path class="cls-2" d="M149.07,106.53a9.87,9.87,0,1,1,13.53,3.38A9.87,9.87,0,0,1,149.07,106.53Z"/><path class="cls-3" d="M148.33,107a9.87,9.87,0,1,1,13.53,3.39A9.87,9.87,0,0,1,148.33,107Z"/><path class="cls-4" d="M156.86,111a9,9,0,0,1-7.72-4.36h0a9,9,0,1,1,12.33,3.08A8.88,8.88,0,0,1,156.86,111Zm-7.26-4.64a8.45,8.45,0,1,0,2.9-11.59,8.46,8.46,0,0,0-2.9,11.59Z"/><path class="cls-4" d="M120.9,61.84c6.63,3.13,7.66,8.76,5.43,13.94l-5.48-2.59c1.14-2.52.87-4.94-2.19-6.38-2.55-1.2-5-.59-6.62,2.81a18.23,18.23,0,0,0-1.31,5.2l8,3.76-1.93,4.08-6.93-3.26a7.91,7.91,0,0,1-.39,1.06A10.7,10.7,0,0,1,103.39,86l15,7.09-2.25,4.76L95.58,88.14l.5-3.5a12,12,0,0,0,7.77-6.89,8.69,8.69,0,0,0,.37-1L99.5,74.51l1.93-4.08L105,72.1a19.34,19.34,0,0,1,1.62-5.63C109.33,60.6,115.07,59.1,120.9,61.84Z"/><path class="cls-4" d="M125,7a4,4,0,0,1,1.34,5.79l-2-1.33a1.71,1.71,0,0,0-.5-2.63,1.82,1.82,0,0,0-2.76.72,7.25,7.25,0,0,0-.81,2l2.93,1.93-1,1.5-2.54-1.68c-.07.13-.13.27-.21.39a4.29,4.29,0,0,1-2.72,1.84l5.52,3.64-1.15,1.75-7.56-5,.4-1.35a4.74,4.74,0,0,0,3.44-2.27c.08-.13.14-.25.21-.38l-1.73-1.14,1-1.5,1.29.86A7.7,7.7,0,0,1,119.1,8C120.52,5.85,122.87,5.59,125,7Z"/><path class="cls-4" d="M154,97.28a2.85,2.85,0,0,1,4.2.86l-1.47.92a1.24,1.24,0,0,0-1.88-.47,1.31,1.31,0,0,0-.35,2,5.38,5.38,0,0,0,1,1.13l2.15-1.35.68,1.1-1.86,1.16c.07.09.14.17.2.26a3.1,3.1,0,0,1,.39,2.33l4-2.53.8,1.28-5.54,3.47-.76-.67a3.44,3.44,0,0,0-.46-2.94c-.06-.09-.12-.16-.19-.25l-1.27.8-.68-1.1,1-.59a5.68,5.68,0,0,1-1.11-1.26A2.86,2.86,0,0,1,154,97.28Z"/><path class="cls-4" d="M61.46,98.18c5.38,0,7.86,3.38,8,7.52l-4.46,0c0-2-1-3.55-3.47-3.53-2.07,0-3.52,1.19-3.5,4a13.18,13.18,0,0,0,.78,3.86l6.49,0,0,3.31-5.63,0a5.67,5.67,0,0,1,.07.82,7.87,7.87,0,0,1-2.28,5.61l12.23-.07,0,3.87L53,123.64l-.77-2.48a8.78,8.78,0,0,0,3-7,7.23,7.23,0,0,0-.07-.79l-3.83,0,0-3.31,2.86,0a14.43,14.43,0,0,1-.71-4.24C53.39,101,56.73,98.21,61.46,98.18Z"/><path class="cls-4" d="M64.93,45.76a3.74,3.74,0,0,1,5.44,1.45l-2,1.09a1.63,1.63,0,0,0-2.43-.75,1.72,1.72,0,0,0-.61,2.63,6.46,6.46,0,0,0,1.29,1.55l2.92-1.59.81,1.49L67.82,53c.08.12.16.23.23.36a4,4,0,0,1,.33,3.08l5.5-3,1,1.74L67.3,59.3l-1-.93A4.52,4.52,0,0,0,66,54.48a3.39,3.39,0,0,0-.23-.34L64,55.08l-.81-1.49,1.28-.7a7.62,7.62,0,0,1-1.35-1.74C62,49,62.8,46.92,64.93,45.76Z"/><path class="cls-4" d="M109.55,138.75c6.5-3.42,11.62-.85,14.41,4.06l-5.37,2.82c-1.33-2.43-3.42-3.67-6.42-2.1-2.49,1.31-3.5,3.65-1.75,7a18.25,18.25,0,0,0,3.37,4.18l7.82-4.12,2.1,4-6.78,3.57a9.56,9.56,0,0,1,.61,1,10.76,10.76,0,0,1,.75,8.21L133,159.56l2.45,4.66-20.19,10.61-2.49-2.52A11.92,11.92,0,0,0,112,162a8.83,8.83,0,0,0-.59-.91l-4.62,2.42-2.1-4,3.46-1.82A19.58,19.58,0,0,1,104.6,153C101.59,147.24,103.85,141.74,109.55,138.75Z"/></g></g></svg>