<svg xmlns="http://www.w3.org/2000/svg" viewBox="0 0 29.57 39.83"><defs><style>.cls-1{fill:#fa5;}</style></defs><g id="Layer_2" data-name="Layer 2"><g id="Option_1" data-name="Option 1"><path class="cls-1" d="M26.32,15.38H24.44V9.66a9.66,9.66,0,1,0-19.31,0v5.72H3.25A3.26,3.26,0,0,0,0,18.63v18a3.26,3.26,0,0,0,3.25,3.25H26.32a3.26,3.26,0,0,0,3.25-3.25V18.63A3.26,3.26,0,0,0,26.32,15.38ZM6.5,9.66a8.29,8.29,0,1,1,16.57,0v5.72H6.5ZM28.2,36.58a1.88,1.88,0,0,1-1.88,1.87H3.25a1.88,1.88,0,0,1-1.88-1.87V18.63a1.89,1.89,0,0,1,1.88-1.88H26.32a1.88,1.88,0,0,1,1.88,1.88Z"/><path class="cls-1" d="M14.79,22.22a2.82,2.82,0,0,0-1.06,5.44l.37.15V32.3a.69.69,0,1,0,1.37,0V27.81l.37-.15a2.82,2.82,0,0,0-1.05-5.44Zm0,4.27A1.45,1.45,0,1,1,16.24,25,1.45,1.45,0,0,1,14.79,26.49Z"/></g></g></svg>