<svg xmlns="http://www.w3.org/2000/svg" viewBox="0 0 232.33 178.67"><defs><style>.cls-1{isolation:isolate;}.cls-2{opacity:0.3;}.cls-3{fill:#ffd371;}.cls-4{fill:#fff;}.cls-5{fill:#fa5;}.cls-6{fill:#dcdcdc;}.cls-7{fill:#634e43;}.cls-8{opacity:0.15;mix-blend-mode:multiply;}</style></defs><g class="cls-1"><g id="Layer_2" data-name="Layer 2"><g id="Option_1" data-name="Option 1"><g class="cls-2"><path class="cls-3" d="M226.28,58.55c5.66,10.21,9.09,23.67,2.28,33.13-4,5.61-11,8.68-14.5,14.65-4.5,7.67-1.94,17.52,1.54,25.73s7.89,16.7,6.67,25.55c-1.6,11.63-13.08,20-24.61,20.94s-22.81-4-32.47-10.45-18.8-14.63-30.19-16.27c-9.71-1.4-19.42,2.29-28.16,6.8s-17.15,10-26.62,12.52c-18.16,4.92-38.94-2.38-50.2-17.65S17.73,116,27.52,99.69c3.39-5.63,8-12.56,4.47-18.06-3.21-4.95-10.87-4.55-14.9-8.83-4.61-4.91-2.2-13,1.28-18.83A71.65,71.65,0,0,1,46.94,27.23s97.55-56,149.71-7.43C218.64,40.27,226.28,58.55,226.28,58.55Z"/></g><rect class="cls-4" y="54.02" width="81.65" height="30.11" rx="11.06"/><path class="cls-3" d="M27.6,69.66A9.67,9.67,0,1,1,17.93,60,9.62,9.62,0,0,1,27.6,69.66Z"/><circle class="cls-5" cx="17.93" cy="67.39" r="3.5" transform="translate(-51.78 69.29) rotate(-76.66)"/><path class="cls-5" d="M25.19,76a9.66,9.66,0,0,1-14.52,0,8.18,8.18,0,0,1,14.52,0Z"/><path class="cls-6" d="M66.39,64.82H33.79a1.6,1.6,0,0,1-1.6-1.61h0a1.6,1.6,0,0,1,1.6-1.6h32.6A1.61,1.61,0,0,1,68,63.21h0A1.61,1.61,0,0,1,66.39,64.82Z"/><path class="cls-6" d="M66.39,70.68H33.79a1.6,1.6,0,0,1-1.6-1.6h0a1.6,1.6,0,0,1,1.6-1.61h32.6A1.61,1.61,0,0,1,68,69.08h0A1.61,1.61,0,0,1,66.39,70.68Z"/><path class="cls-6" d="M55.89,76.54H33.79a1.6,1.6,0,0,1-1.6-1.6h0a1.6,1.6,0,0,1,1.6-1.61h22.1a1.61,1.61,0,0,1,1.6,1.61h0A1.6,1.6,0,0,1,55.89,76.54Z"/><path class="cls-7" d="M178.5,104.06l-11.63,1L162.28,51.1a21.88,21.88,0,1,0-43.61,3.7l4.58,54-11.63,1L107,55.79a33.56,33.56,0,1,1,66.87-5.68Z"/><rect class="cls-5" x="105.6" y="72.65" width="80.55" height="79.11" rx="7.65" transform="translate(-8.97 12.75) rotate(-4.86)"/><circle class="cls-8" cx="144.98" cy="101.67" r="8.72" transform="translate(-17.03 30.19) rotate(-11.23)"/><path class="cls-8" d="M147.14,131.45h0a4.46,4.46,0,0,1-4.81-4.06L140.85,110a4.47,4.47,0,0,1,4.06-4.82h0a4.47,4.47,0,0,1,4.82,4.06l1.48,17.37A4.48,4.48,0,0,1,147.14,131.45Z"/><path class="cls-7" d="M150.48,102.15a5.44,5.44,0,1,0-8,5.24,2,2,0,0,0,0,.42l1.52,18a2.78,2.78,0,1,0,5.54-.47l-1.53-18a.76.76,0,0,0,0-.16A5.45,5.45,0,0,0,150.48,102.15Z"/><rect class="cls-3" x="168.03" y="84.93" width="8.02" height="16.7" transform="translate(-7.28 14.9) rotate(-4.86)"/><rect class="cls-3" x="169.78" y="105.49" width="8.02" height="16.7" transform="translate(-9.01 15.12) rotate(-4.86)"/><path class="cls-4" d="M227.55,53.34H197.5A1.68,1.68,0,0,0,195.81,55V68.13l0,7.53,3.63-4.24h28.13a1.69,1.69,0,0,0,1.69-1.69V55A1.68,1.68,0,0,0,227.55,53.34Z"/><path class="cls-5" d="M218.16,62.17a1.51,1.51,0,1,0,1.51-1.5A1.51,1.51,0,0,0,218.16,62.17Z"/><path class="cls-5" d="M211.71,62.15a1.49,1.49,0,0,0,1.5,1.51,1.51,1.51,0,1,0-1.5-1.51Z"/><path class="cls-5" d="M205.25,62.13a1.51,1.51,0,1,0,1.51-1.5A1.51,1.51,0,0,0,205.25,62.13Z"/><rect class="cls-4" x="54.04" y="112.05" width="33.1" height="27.36" rx="2.16"/><path class="cls-5" d="M63.33,124.66v.92a.84.84,0,0,0,.69.83l1.09.19a5.5,5.5,0,0,0,.56,1.35l-.63.92a.82.82,0,0,0,.09,1.07l.65.65a.82.82,0,0,0,1.07.09l.89-.62a5.53,5.53,0,0,0,1.35.57l.19,1.08a.83.83,0,0,0,.83.69h.94a.83.83,0,0,0,.82-.69l.19-1.08a5.6,5.6,0,0,0,1.36-.57l.9.64a.85.85,0,0,0,1.08-.1l.65-.65a.85.85,0,0,0,.09-1.07l-.63-.9a6.19,6.19,0,0,0,.56-1.36l1.08-.19a.85.85,0,0,0,.7-.83v-.92a.83.83,0,0,0-.7-.82l-1.08-.2a5.92,5.92,0,0,0-.56-1.35l.63-.91a.85.85,0,0,0-.09-1.07l-.65-.65a.84.84,0,0,0-1.08-.09l-.9.6a5.92,5.92,0,0,0-1.35-.56l-.2-1.08a.82.82,0,0,0-.82-.7h-.94a.84.84,0,0,0-.81.7l-.19,1.11a5.92,5.92,0,0,0-1.35.56l-.91-.63a.83.83,0,0,0-1.07.07l-.65.65a.84.84,0,0,0-.09,1.08l.63.9a5.57,5.57,0,0,0-.56,1.36l-1.09.19A.83.83,0,0,0,63.33,124.66Zm4.77.48v0a2.49,2.49,0,1,1,2.49,2.49A2.49,2.49,0,0,1,68.1,125.12Z"/></g></g></g></svg>