<svg xmlns="http://www.w3.org/2000/svg" viewBox="0 0 24 24"><defs><style>.cls-1{fill:#fa5;}</style></defs><g id="Layer_2" data-name="Layer 2"><g id="Option_1" data-name="Option 1"><path class="cls-1" d="M23.58,9.62H21.89v0A10,10,0,0,0,20.7,6.73l0,0,1.2-1.2A.41.41,0,0,0,22,5.2a.43.43,0,0,0-.13-.3L19.1,2.13a.41.41,0,0,0-.59,0l-1.2,1.2,0,0a10,10,0,0,0-2.85-1.18h0V.42A.42.42,0,0,0,14,0H10a.42.42,0,0,0-.42.42V2.11h0A10,10,0,0,0,6.73,3.3l0,0-1.2-1.2A.41.41,0,0,0,5.2,2a.43.43,0,0,0-.3.13L2.13,4.9A.43.43,0,0,0,2,5.2a.41.41,0,0,0,.13.29l1.19,1.2,0,0A10,10,0,0,0,2.12,9.58v0H.42A.42.42,0,0,0,0,10V14a.42.42,0,0,0,.42.42H2.11v0A10,10,0,0,0,3.3,17.27l0,0-1.2,1.2A.41.41,0,0,0,2,18.8a.43.43,0,0,0,.13.3L4.9,21.87a.43.43,0,0,0,.3.13.41.41,0,0,0,.29-.13l1.2-1.2,0,0a10,10,0,0,0,2.85,1.18h0v1.69A.42.42,0,0,0,10,24H14a.42.42,0,0,0,.42-.42V21.89h0a10,10,0,0,0,2.85-1.18l0,0,1.2,1.2a.4.4,0,0,0,.59,0l2.77-2.77a.4.4,0,0,0,0-.59l-1.19-1.2,0,0a10,10,0,0,0,1.18-2.85v0h1.69A.42.42,0,0,0,24,14V10A.42.42,0,0,0,23.58,9.62Zm-.41,3.93H21.55a.42.42,0,0,0-.4.33,9.43,9.43,0,0,1-1.35,3.26.41.41,0,0,0,.05.52L21,18.8,18.8,21l-1.14-1.14a.42.42,0,0,0-.52-.06,9.34,9.34,0,0,1-3.26,1.36.42.42,0,0,0-.33.4v1.62h-3.1V21.55a.42.42,0,0,0-.33-.4,9.34,9.34,0,0,1-3.26-1.36.42.42,0,0,0-.52.06L5.2,21,3,18.8l1.14-1.14a.42.42,0,0,0,.06-.52,9.34,9.34,0,0,1-1.36-3.26.42.42,0,0,0-.4-.33H.83v-3.1H2.45a.42.42,0,0,0,.4-.33A9.43,9.43,0,0,1,4.2,6.86a.41.41,0,0,0,0-.52L3,5.2,5.2,3,6.34,4.15a.42.42,0,0,0,.52.06,9.34,9.34,0,0,1,3.26-1.36.42.42,0,0,0,.33-.4V.83h3.1V2.45a.42.42,0,0,0,.33.4,9.34,9.34,0,0,1,3.26,1.36.42.42,0,0,0,.52-.06L18.8,3,21,5.2,19.85,6.34a.42.42,0,0,0-.06.52,9.34,9.34,0,0,1,1.36,3.26.42.42,0,0,0,.4.33h1.62Z"/><path class="cls-1" d="M12,6.72A5.28,5.28,0,1,0,17.28,12,5.29,5.29,0,0,0,12,6.72Zm0,9.71A4.43,4.43,0,1,1,16.43,12,4.44,4.44,0,0,1,12,16.43Z"/></g></g></svg>