<svg xmlns="http://www.w3.org/2000/svg" viewBox="0 0 235.91 168.7"><defs><style>.cls-1{isolation:isolate;}.cls-2{opacity:0.3;}.cls-3{fill:#ffd371;}.cls-4{fill:#eaeaea;mix-blend-mode:multiply;}.cls-5{fill:#fa5;}.cls-6{fill:#fff;}.cls-7{fill:#dcdcdc;}.cls-8{fill:#c2c2c2;}.cls-9{fill:#f7b897;}.cls-10{fill:#a05f4e;}.cls-11{fill:#46c7ce;}.cls-12{fill:#e67779;}.cls-13{fill:#352f31;}.cls-14{fill:#ef846f;}.cls-15{fill:#d7634e;}.cls-16{fill:#504647;}.cls-17{fill:#363638;}.cls-18{fill:#cc5b54;}</style></defs><g class="cls-1"><g id="Layer_2" data-name="Layer 2"><g id="Option_1" data-name="Option 1"><g class="cls-2"><path class="cls-3" d="M21.7,27.11c-43.5,33-8.16,55.43-8.16,55.43A43.21,43.21,0,0,1,28.63,102.3c6,16-7,35,.46,50.36,5.5,11.31,20.13,15.57,33,14.78s25.31-5.34,38.19-6.41c15.43-1.29,30.71,2.45,45.9,5.16s31.3,4.31,45.83-1,26.74-19.44,24.73-34.32c-.91-6.72-4.54-13.3-3-19.92,2.4-10.23,15.49-14.63,20.32-24,4.72-9.19-.65-19.74-5.91-28.57C206.8,22.52,166.84,7.54,134.12,1.7,134.12,1.7,70.36-9.82,21.7,27.11Z"/></g><ellipse id="_Path_" data-name="&lt;Path&gt;" class="cls-4" cx="39.12" cy="155.03" rx="24.76" ry="4.29"/><ellipse id="_Path_2" data-name="&lt;Path&gt;" class="cls-4" cx="176.06" cy="155.03" rx="23.68" ry="4.29"/><path class="cls-5" d="M166.92,71.26A64.27,64.27,0,1,1,94.21,7.55,63.53,63.53,0,0,1,102.65,7a62.57,62.57,0,0,1,7.67.46c.93.11,1.86.24,2.78.39.71.12,1.41.25,2.11.39A64.27,64.27,0,0,1,166.92,71.26Z"/><circle class="cls-6" cx="102.65" cy="71.26" r="57.99" transform="translate(-20.32 93.46) rotate(-45)"/><path class="cls-7" d="M83,37.62a.62.62,0,0,1-.54-.31L76.9,27.64A.62.62,0,0,1,78,27l5.58,9.67a.62.62,0,0,1-.53.93Z"/><path class="cls-7" d="M68.62,52a.68.68,0,0,1-.31-.08l-9.67-5.58a.63.63,0,0,1-.22-.85.62.62,0,0,1,.84-.22l9.67,5.58a.62.62,0,0,1,.23.84A.63.63,0,0,1,68.62,52Z"/><path class="cls-7" d="M58.87,96.78a.62.62,0,0,1-.54-.31.61.61,0,0,1,.23-.84l9.67-5.58a.61.61,0,0,1,.84.22.62.62,0,0,1-.22.84L59.18,96.7A.71.71,0,0,1,58.87,96.78Z"/><path class="cls-7" d="M77.29,115.26a.58.58,0,0,1-.31-.08.62.62,0,0,1-.23-.84l5.59-9.67a.61.61,0,0,1,.84-.23.62.62,0,0,1,.23.84L77.82,115A.6.6,0,0,1,77.29,115.26Z"/><path class="cls-7" d="M127.7,115.35a.6.6,0,0,1-.53-.31l-5.59-9.67a.61.61,0,0,1,.23-.84.62.62,0,0,1,.84.22l5.58,9.67a.61.61,0,0,1-.22.84A.59.59,0,0,1,127.7,115.35Z"/><path class="cls-7" d="M146.18,96.93a.61.61,0,0,1-.31-.09l-9.66-5.58a.62.62,0,1,1,.61-1.07l9.67,5.58a.62.62,0,0,1,.23.85A.64.64,0,0,1,146.18,96.93Z"/><path class="cls-7" d="M136.6,52.1a.63.63,0,0,1-.54-.31.62.62,0,0,1,.23-.85L146,45.36a.62.62,0,0,1,.62,1.07L136.91,52A.61.61,0,0,1,136.6,52.1Z"/><path class="cls-7" d="M122.26,37.7a.64.64,0,0,1-.3-.08.62.62,0,0,1-.23-.85l5.58-9.67a.62.62,0,0,1,1.07.62l-5.58,9.67A.62.62,0,0,1,122.26,37.7Z"/><path class="cls-7" d="M102.65,33a1.24,1.24,0,0,1-1.23-1.24V20.62a1.24,1.24,0,1,1,2.47,0V31.78A1.25,1.25,0,0,1,102.65,33Z"/><path class="cls-7" d="M63.18,72.49H52A1.24,1.24,0,0,1,52,70H63.18a1.24,1.24,0,0,1,0,2.47Z"/><path class="cls-7" d="M102.65,123.13a1.23,1.23,0,0,1-1.23-1.23V110.73a1.24,1.24,0,0,1,2.47,0V121.9A1.24,1.24,0,0,1,102.65,123.13Z"/><path class="cls-7" d="M153.29,72.49H142.13a1.24,1.24,0,1,1,0-2.47h11.16a1.24,1.24,0,0,1,0,2.47Z"/><path class="cls-8" d="M131.25,73H103.6a2.13,2.13,0,0,1-2-1.46L86.84,27a2.13,2.13,0,0,1,4-1.34l14.26,43.15h26.11a2.13,2.13,0,0,1,0,4.26Z"/><path class="cls-9" d="M37,154.62a.48.48,0,0,1-.4.2H25.7a1,1,0,0,1-.32-.17c-.43-.36-.4-1-.32-2,0-.28,0-.57.05-.9s0-.74,0-1.23a11.81,11.81,0,0,0,2,.18,11.32,11.32,0,0,0,2.66-.33,4.93,4.93,0,0,0,1,1.17,5.85,5.85,0,0,0,1.84,1.11,23.09,23.09,0,0,0,3.71,1.18c.14,0,.56.16.67.45A.51.51,0,0,1,37,154.62Z"/><path class="cls-10" d="M25.38,154.65a1,1,0,0,0,.32.17H36.56a.48.48,0,0,0,.4-.2.46.46,0,0,0,0-.38c-.11-.29-.53-.41-.67-.45a24.13,24.13,0,0,1-3.71-1.18H25.06C25,153.61,24.94,154.29,25.38,154.65Z"/><path class="cls-9" d="M54.58,154.62a.48.48,0,0,1-.39.2H43.32a.88.88,0,0,1-.31-.17c-.45-.36-.4-1-.33-2,0-.28,0-.57,0-.9s0-.83,0-1.38a8.72,8.72,0,0,0,2.78.22,9.08,9.08,0,0,0,1.81-.35,4.9,4.9,0,0,0,1.09,1.3,6,6,0,0,0,1.84,1.11A23.19,23.19,0,0,0,54,153.79c.13,0,.55.16.66.45A.43.43,0,0,1,54.58,154.62Z"/><path class="cls-10" d="M43,154.65a.88.88,0,0,0,.31.17H54.19a.48.48,0,0,0,.39-.2.43.43,0,0,0,.05-.38c-.11-.29-.53-.41-.66-.45a24.25,24.25,0,0,1-3.72-1.18H42.68C42.61,153.61,42.57,154.29,43,154.65Z"/><path class="cls-11" d="M50.67,130A176,176,0,0,1,48,150a5.85,5.85,0,0,1-.64.23,9.08,9.08,0,0,1-1.81.35,8.72,8.72,0,0,1-2.78-.22,6.94,6.94,0,0,1-.93-.29,43.76,43.76,0,0,1-1-9.13c0-3.89.48-4.69.8-10.85.38-7.59-.22-9.92-.51-10.92-.46-1.6-.77-1.93-2.49-6-1.42-3.31-2.48-6.06-3.16-7.9q-.57,8.68-1.51,17.86c-1,9.43-2.18,18.46-3.56,27l-.56.15a11.32,11.32,0,0,1-2.66.33,11.81,11.81,0,0,1-2-.18,9,9,0,0,1-1-.23q-.41-10.63-.55-21.69c-.17-14.43.06-28.36.6-41.75L44,86.57c1.28,6.54,2.56,11.82,3.51,15.45,2,7.55,3,10.15,3.5,15.39C51.13,118.57,51.31,121.7,50.67,130Z"/><path class="cls-12" d="M50.86,74.48a.86.86,0,0,0-.37-.42c-.16-.07-.24,0-.91.06a10.17,10.17,0,0,1-1.92,0c-1.22-.24-1.29-3.6-2.11-7.6a23.61,23.61,0,0,0-2.54-7,7.45,7.45,0,0,0-2.83-2.82A6.31,6.31,0,0,0,39,56.27c-.85-.18-1.78-.33-2.78-.44a30.41,30.41,0,0,0-4-.17l-2.29.67A13.2,13.2,0,0,0,24.73,62c-.92,2.09-.6,3.1-.86,7.65-.35,6.18-.68,7.79-1.05,13.65-.11,1.8-.27,5.1,1.68,6.51,1.23.9,2.68.58,4.53.36,9.06-1.1,14,1.75,15.55-.8A3.4,3.4,0,0,0,44.89,87c-.26-1.65-.57-3.94-.93-6.75.8,0,2-.09,3.79-.25,1.39-.12,1.58-.19,1.82-.33a2.74,2.74,0,0,0,.94-1A5.22,5.22,0,0,0,50.86,74.48Z"/><rect class="cls-6" x="13.96" y="74.69" width="23.36" height="16.75" rx="2.06" transform="translate(16.71 -3.41) rotate(11.26)"/><path class="cls-9" d="M30.58,92.58a3.62,3.62,0,0,1-3.47,1.52,3.1,3.1,0,0,1-2.06-1.27,11.93,11.93,0,0,1-.6-2.28c-.11-.38-.21-.66-.43-1.25-.83-2.2-1.77-4.07-2.73-6.41a3.44,3.44,0,0,0,2.12-.76,5.14,5.14,0,0,0,1.8-2.24c.42,1.26.68,2.31.86,3.1a28,28,0,0,0,1.13,4.25A6.84,6.84,0,0,0,28,89c1,1.28,2.64,1.54,2.59,2.26a.54.54,0,0,1-.15.32c-.43.4-1.55-.42-1.82-.11a.53.53,0,0,0,.1.61.46.46,0,0,0,.23.12Z"/><path class="cls-12" d="M29.36,62.57C24.32,67.68,24,70,24.09,71c0,.13.64,4,.86,5.37A5.69,5.69,0,0,1,25.44,79a3.73,3.73,0,0,1-.23.93,5.14,5.14,0,0,1-1.8,2.24,3.44,3.44,0,0,1-2.12.76,1.31,1.31,0,0,1-.27-.06c-1.07-.37-1.42-2-1.76-4.64-.62-4.7-.92-7-.67-8.55,1.22-7.13,7-11,7.77-11.55a17.51,17.51,0,0,1,4.87-2.21Q30.29,59.22,29.36,62.57Z"/><path class="cls-9" d="M62.51,77.59c-1.66.55-1.86.47-3.47-.13a5.59,5.59,0,0,0-2-.29q-2.45.61-5,1.19l-1.45.31a5.22,5.22,0,0,0,.35-4.19c.71,0,4.27-.17,5.29-.23a15.7,15.7,0,0,1,2.26-.82c.66-.14,2.66-.1,2.75.42.23.85-2.11.65-2.2,1s1.38,1.48,2.93,1.28c2.54-.31,2.77-.59,3.14-.39C66.1,76.26,63.68,77.2,62.51,77.59Z"/><path class="cls-9" d="M30,49.66c.38.2.68,0,1,0,.48-.26,1,.89,2.32.92,1.1,0,1.22-.75,2.48-.79s1.66.55,2.36.18a1.7,1.7,0,0,0,.73-.91,20,20,0,0,0-.62-3.89,18.62,18.62,0,0,0-.86-2.53,3,3,0,0,1-1.48.25c-1.06.08-1.08.56-2.05.61a5,5,0,0,0-1,0,7.38,7.38,0,0,0-1.17.45c-.81.3-.91.23-1,.4-.23.37.26.77.42,1.87,0,.28.18,1.31-.23,1.52-.2.1-.33-.07-.69,0a1.1,1.1,0,0,0-.69.49A1.14,1.14,0,0,0,30,49.66Z"/><path class="cls-9" d="M30.61,53.82c.05.37.23,1.82.27,2.16a2.71,2.71,0,0,0,1.24,1.34,2.36,2.36,0,0,0,1.58.23,2.6,2.6,0,0,0,1.63-1.32,1.5,1.5,0,0,1-.3,0,3.54,3.54,0,0,1-2.24-.46A4,4,0,0,1,31.67,54c-.24-.59-.35-1.07-.52-1.07S31,53.44,30.61,53.82Z"/><path class="cls-10" d="M26.45,47.18a10,10,0,0,1,0,1.41,4.48,4.48,0,0,0,.53,2.3c.44.75.77.6,1.12,1.36.27.6.15.85.51,1.3a1.54,1.54,0,0,0,1.07.64,1.37,1.37,0,0,0,.87-.27l.1-.1c.38-.38.36-.88.54-.9s.28.48.52,1.07a4,4,0,0,0,1.12,1.78,3.54,3.54,0,0,0,2.24.46,1.5,1.5,0,0,0,.3,0,3.8,3.8,0,0,0,2.84-.81c.25-.26.52-.68.67-3.2.08-1.31.09-2.41.08-3.2a1.7,1.7,0,0,1-.73.91c-.7.37-1.24-.21-2.36-.18s-1.38.81-2.48.79c-1.32,0-1.84-1.18-2.32-.92-.34,0-.64.24-1,0a1.14,1.14,0,0,1-.43-1.41,1.1,1.1,0,0,1,.69-.49c.36-.09.49.08.69,0,.41-.21.28-1.24.23-1.52-.16-1.1-.65-1.5-.42-1.87.1-.17.2-.1,1-.4A7.38,7.38,0,0,1,33,43.5a5,5,0,0,1,1,0c1-.05,1-.53,2.05-.61a3,3,0,0,0,1.48-.25A2.19,2.19,0,0,0,38,42a2.43,2.43,0,0,0,.17-2.18,2.22,2.22,0,0,0-1.51-1.32c-.46-.1-.55.1-1.49.12s-.84-.13-1.34-.07c-.85.09-1,.52-1.81.78s-1-.14-2.18,0a3.65,3.65,0,0,0-2.47,1.18c-.35.46-.15.6-.61,1.44s-.79.89-1,1.48A3.45,3.45,0,0,0,26,45.74,8.46,8.46,0,0,1,26.45,47.18Z"/><path class="cls-13" d="M36.81,46.47c.06.43.34.74.63.69s.46-.41.4-.84-.34-.73-.63-.69S36.75,46.05,36.81,46.47Z"/><path class="cls-13" d="M32.85,47.15c.1.42.41.7.69.63s.42-.46.32-.87-.41-.7-.69-.63S32.75,46.73,32.85,47.15Z"/><path class="cls-10" d="M31.69,45.87c-.05-.34.71-.69.93-.8s.69-.32.9-.15a.26.26,0,0,1,.08.2c0,.13-.17.21-.24.24-.91.48-1.31.87-1.56.67A.27.27,0,0,1,31.69,45.87Z"/><path class="cls-14" d="M35.58,49.36a.13.13,0,0,1-.11-.06.11.11,0,0,1,.05-.14c.25-.13.68-.39.68-.72,0-.12-.05-.2-.25-.52l0-.07c-.24-.38-.42-.69-.55-.9a.11.11,0,0,1,0-.14.11.11,0,0,1,.15,0c.12.2.3.51.54.89l0,.07c.2.33.28.45.28.63,0,.45-.5.76-.8.91Z"/><path class="cls-10" d="M37.78,44.73c-.07-.32-.87-.36-1.1-.38s-.73-.05-.85.18a.27.27,0,0,0,0,.2c.06.11.23.13.3.14,1,.1,1.47.31,1.63.05A.26.26,0,0,0,37.78,44.73Z"/><path class="cls-15" d="M37.49,50.6a.41.41,0,0,1,0,.11s0,0,0,0A1.57,1.57,0,0,1,35.64,52a1.81,1.81,0,0,1-1.09-.69.58.58,0,0,1-.11-.2.21.21,0,0,1,0-.17c.08-.23.57,0,1.64-.28.87-.19,1.19-.45,1.35-.29A.26.26,0,0,1,37.49,50.6Z"/><path class="cls-6" d="M37.49,50.6a4.33,4.33,0,0,1-1.13.46,4.79,4.79,0,0,1-1.92.08.21.21,0,0,1,0-.17c.08-.23.57,0,1.64-.28.87-.19,1.19-.45,1.35-.29A.26.26,0,0,1,37.49,50.6Z"/><path class="cls-9" d="M188,154.66a1.26,1.26,0,0,1-.32.17H176.84a.48.48,0,0,1-.39-.2.49.49,0,0,1,0-.39c.11-.29.53-.4.66-.44a25.4,25.4,0,0,0,3.72-1.18,5.85,5.85,0,0,0,1.84-1.11,4.93,4.93,0,0,0,1-1.17,10.87,10.87,0,0,0,2.66.32,10.19,10.19,0,0,0,2-.17c0,.49,0,.89,0,1.23s0,.62,0,.9C188.42,153.62,188.46,154.3,188,154.66Z"/><path class="cls-16" d="M188,154.66a1.26,1.26,0,0,1-.32.17H176.84a.48.48,0,0,1-.39-.2.45.45,0,0,1,0-.39c.11-.29.53-.4.66-.44a24.25,24.25,0,0,0,3.72-1.18h7.57C188.42,153.62,188.47,154.3,188,154.66Z"/><path class="cls-9" d="M170.4,154.66a1.12,1.12,0,0,1-.32.17H159.22a.5.5,0,0,1-.4-.2.47.47,0,0,1,0-.39c.1-.29.53-.4.66-.44a25.4,25.4,0,0,0,3.72-1.18,6,6,0,0,0,1.84-1.11,5,5,0,0,0,1.09-1.31,8.26,8.26,0,0,0,1.81.36,8.72,8.72,0,0,0,2.78-.22c0,.55,0,1,0,1.38s0,.62.06.9C170.8,153.62,170.84,154.3,170.4,154.66Z"/><path class="cls-16" d="M170.4,154.66a1.12,1.12,0,0,1-.32.17H159.22a.49.49,0,0,1-.4-.2.47.47,0,0,1,0-.39c.11-.29.53-.4.66-.44a24.25,24.25,0,0,0,3.72-1.18h7.57C170.8,153.62,170.84,154.3,170.4,154.66Z"/><path class="cls-17" d="M189.86,128.57q-.13,11.06-.55,21.69a9.58,9.58,0,0,1-1,.23,10.19,10.19,0,0,1-2,.17,10.87,10.87,0,0,1-2.66-.32l-.57-.15c-1.37-8.59-2.59-17.61-3.56-27q-.94-9.17-1.5-17.85c-.69,1.84-1.75,4.58-3.16,7.9-1.72,4-2,4.36-2.49,6-.29,1-.89,3.33-.51,10.91.31,6.17.83,7,.8,10.86a43.76,43.76,0,0,1-1,9.13c-.26.09-.57.19-.93.29a8.72,8.72,0,0,1-2.78.22,8.26,8.26,0,0,1-1.81-.36c-.24-.07-.45-.15-.64-.22a173.63,173.63,0,0,1-2.7-20c-.64-8.3-.47-11.43-.37-12.59.48-5.24,1.54-7.84,3.51-15.4,1-3.62,2.23-8.9,3.51-15.44l19.86.24C189.8,100.21,190,114.14,189.86,128.57Z"/><path class="cls-3" d="M199.77,78.12c-.67,1.18-2.33,1.37-4.41,1.61-1.34.15-2.31.27-3.28-.36a1,1,0,0,1-.15-.11,5.51,5.51,0,0,1-1.7-3,8.08,8.08,0,0,1-.34-1.31,1.35,1.35,0,0,1,.19-1.15c.45-.47,1.21,0,1.5-.29.59-.67-1.47-3.63-2.56-5.1,0,.21,0,.43,0,.63,0,1.34.07,2.15.08,2.8.34,11.24,2.13,16.08-.22,18-.68.54-1.12.37-4.53.36-9.95,0-14.16,1.44-15.55-.8a3.35,3.35,0,0,1-.31-2.4c.25-1.65.57-3.92.93-6.74-.8,0-2-.09-3.79-.25-1.39-.12-1.59-.18-1.82-.32a2.7,2.7,0,0,1-.91-.93,4.93,4.93,0,0,1-.35-4.24.8.8,0,0,1,.33-.31c.16-.08.24,0,.91,0a10.47,10.47,0,0,0,1.93,0c1.22-.23,1.28-3.53,2.11-7.43a22.22,22.22,0,0,1,2.53-6.79,7.83,7.83,0,0,1,1.71-2l0,0,.11-.1a8.41,8.41,0,0,1,2.07-1.36,9.4,9.4,0,0,1,2.79-.76,19.2,19.2,0,0,1,4.92-.07,14.7,14.7,0,0,1,4.85,1.17,12.83,12.83,0,0,1,1.62.86c2.92,1.85,4.65,4.62,6.57,7.72a37.12,37.12,0,0,1,2.71,5.26C199.57,74.9,200.4,77,199.77,78.12Z"/><path class="cls-18" d="M191.93,79.26c-1.32-.05-2.67-.12-4.07-.22s-2.83-.23-4.19-.37a7.09,7.09,0,0,0-3,.36c-1.74.69-2,.79-3.79.24-1.28-.39-3.95-1.34-2.8-2,.4-.23.66.07,3.44.33,1.7.17,3.25-1.19,3.16-1.47s-2.66,0-2.43-1c.09-.56,2.27-.67,3-.54a16.6,16.6,0,0,1,2.4.8,27.4,27.4,0,0,0,3,0,30.35,30.35,0,0,0,3.27-.38,8.08,8.08,0,0,0,.34,1.31A5.51,5.51,0,0,0,191.93,79.26Z"/><path class="cls-18" d="M185.09,49.19a1.76,1.76,0,0,1-2.09.71,16,16,0,0,0-1,5.81,18.05,18.05,0,0,1-2.78,6.56c-.59.85-2,2.83-2.83,2.55-.69-.24-.72-1.87-.75-2.87a15.15,15.15,0,0,1,1.25-6.15l.12-.26c.09-.63.19-1.25.28-1.87a2.49,2.49,0,0,1-1-.14c-2.23-.83-3-5.25-2.12-8.53a9.55,9.55,0,0,1,2.47-4.16q1.46,1.56,3,3.15,1.84,1.88,3.66,3.59a1.26,1.26,0,0,1,1.53,0A1.33,1.33,0,0,1,185.09,49.19Z"/><path class="cls-13" d="M175.69,46.49c0,.45-.32.78-.62.76s-.51-.41-.47-.86.32-.78.62-.75S175.73,46.05,175.69,46.49Z"/><path class="cls-13" d="M179.85,47c-.08.44-.39.75-.69.7s-.47-.46-.38-.89.38-.75.68-.7S179.93,46.53,179.85,47Z"/><path class="cls-16" d="M180.84,45.56c0-.36-.78-.68-1-.78s-.73-.3-.93-.1a.22.22,0,0,0-.08.21c0,.13.19.21.26.24,1,.44,1.42.82,1.67.61A.31.31,0,0,0,180.84,45.56Z"/><path class="cls-16" d="M177.12,49.42h0c-.32-.13-.85-.43-.88-.89,0-.19.06-.32.26-.68l0-.07c.22-.41.4-.74.51-1a.12.12,0,0,1,.15-.05.13.13,0,0,1,.05.15c-.12.22-.29.56-.52,1l0,.07c-.19.34-.23.43-.23.55,0,.35.48.6.75.71a.1.1,0,0,1,0,.14A.09.09,0,0,1,177.12,49.42Z"/><path class="cls-16" d="M174.59,44.45c.08-.33.91-.35,1.16-.35s.76,0,.87.21a.22.22,0,0,1,0,.21c-.06.12-.24.13-.32.13-1,.08-1.54.27-1.69,0A.26.26,0,0,1,174.59,44.45Z"/><path class="cls-16" d="M187.2,52c-.15-.47-.35-1-.63-1.77-1.7-4.53,0-5.86-1.78-8.44a6.71,6.71,0,0,0-9.52-1.5c-2.49,1.93-.86,3.94-3.68,9.92a7.36,7.36,0,0,0-1,4.29,6.75,6.75,0,0,0,1.14,2.8,4.88,4.88,0,0,0,.52.59,8.41,8.41,0,0,1,2.07-1.36,9.17,9.17,0,0,1,2.6-.74c.14-.71.27-1.42.4-2.13a2.49,2.49,0,0,1-1-.14c-2.23-.83-3-5.25-2.12-8.53a9.55,9.55,0,0,1,2.47-4.16q1.46,1.56,3,3.15,1.84,1.88,3.66,3.59a1.26,1.26,0,0,1,1.53,0,1.33,1.33,0,0,1,.22,1.64,1.76,1.76,0,0,1-2.09.71c-.11.32-.23.68-.34,1.06a10.66,10.66,0,0,0-1.27,6.53,3.82,3.82,0,0,0,1.27,2.67,3.63,3.63,0,0,0,2.37.58,4.67,4.67,0,0,0,2.44-.73C189,58.9,189.15,55.49,187.2,52Z"/><path class="cls-16" d="M177,51.25a2.15,2.15,0,0,1-.43,0,2.23,2.23,0,0,1-.84-.36.09.09,0,0,1,0-.13.08.08,0,0,1,.12,0,2.07,2.07,0,0,0,.77.32,2.12,2.12,0,0,0,1.33-.17.09.09,0,0,1,.12,0,.1.1,0,0,1,0,.12A2.38,2.38,0,0,1,177,51.25Z"/><path class="cls-18" d="M162.93,78.76c-2.67-.9-4.73-1.55-5.77-1.86a9.14,9.14,0,0,0-1.49-.31,8,8,0,0,0-1.53,0c-2-.15-3.58-.69-3.9-1.37a3.43,3.43,0,0,1-.16-.43,5.33,5.33,0,0,1-.13-1.49c-.19-1.23-3-1.42-3-2.34a.76.76,0,0,1,.34-.56c.8-.51,2.71,1.14,3.83,1.32l1.36.22A15.91,15.91,0,0,1,156.19,73c.68.32.67.39,1.25.61a9.23,9.23,0,0,0,2.08.52c.78.13,1.81.27,3.06.36a4.93,4.93,0,0,0,.35,4.24Z"/></g></g></g></svg>