<svg xmlns="http://www.w3.org/2000/svg" viewBox="0 0 365.01 268.27"><defs><style>.cls-1{isolation:isolate;}.cls-13,.cls-2{fill:#75c189;}.cls-2{opacity:0.25;}.cls-20,.cls-21,.cls-24,.cls-3{mix-blend-mode:multiply;}.cls-4{fill:#eaeaea;}.cls-5{fill:#98b8d4;}.cls-6{fill:#404040;}.cls-7{fill:#fff8f3;}.cls-10,.cls-8{fill:#fa5;}.cls-8{opacity:0.3;}.cls-9{fill:#bec9dc;}.cls-11{fill:#c2c2c2;}.cls-12{fill:#fff;}.cls-14{fill:#508c5e;}.cls-15{fill:#f7f7f7;}.cls-16{fill:#fc8667;}.cls-17{fill:#2b1711;}.cls-18{fill:#bf6179;}.cls-19{fill:#44251b;}.cls-20{fill:#ccc;}.cls-21{fill:#deb2a8;}.cls-22{fill:#fffaf4;}.cls-23{fill:#daedfd;}.cls-24{fill:#bfbfbf;}.cls-25{fill:#eae1de;}.cls-26{fill:#2f241d;}.cls-27{fill:#fa9582;}.cls-28{fill:#e9725e;}.cls-29{fill:#ffd371;}.cls-30{fill:#ce9e3c;}.cls-31{fill:#64605a;}.cls-32{fill:#44413d;}.cls-33{fill:#064b55;}.cls-34{fill:#db766e;}.cls-35{fill:#f4f7ff;}.cls-36{fill:#f1f1ef;}.cls-37{fill:#d37f33;}</style></defs><g class="cls-1"><g id="Layer_2" data-name="Layer 2"><g id="Option_1" data-name="Option 1"><path class="cls-2" d="M176.06,268.27c103.26.11,148.34-31.46,148.34-31.46s67.52-33.1,28.42-119.82C321.71,48,210.09-8.57,155.26,15.9S105.33,71.38,45.08,116.21-1.27,196.68,9.49,214.74C9.49,214.74,43,268.13,176.06,268.27Z"/><g class="cls-3"><ellipse class="cls-4" cx="184.13" cy="252.83" rx="159.2" ry="10.17"/></g><path class="cls-5" d="M251.35,11a.4.4,0,0,1,.78-.21,25.85,25.85,0,0,0,1.66,4.47.41.41,0,0,1-.19.54.4.4,0,0,1-.53-.19c-.35-.73-.67-1.48-.95-2.24S251.57,11.82,251.35,11Zm4.33,8.27a.4.4,0,0,1,.56.09A25.54,25.54,0,0,0,259.41,23a.4.4,0,1,1-.55.58,26.56,26.56,0,0,1-3.27-3.68.93.93,0,0,1-.05-.1A.4.4,0,0,1,255.68,19.3ZM250.51,6.18a26.08,26.08,0,0,1,.07-4.92A.4.4,0,0,1,251,.9a.39.39,0,0,1,.35.44,25.34,25.34,0,0,0-.06,4.77.4.4,0,0,1-.37.43.4.4,0,0,1-.41-.25A.43.43,0,0,1,250.51,6.18Z"/><rect class="cls-6" x="84.35" width="181.37" height="248.56" rx="7.95"/><rect class="cls-7" x="88.89" y="4.54" width="172.28" height="228.79" rx="5.36"/><rect class="cls-8" x="107" y="68.55" width="138.2" height="149.52" rx="5.21"/><g class="cls-3"><rect class="cls-9" x="169.54" y="147.73" width="21.98" height="21.98" rx="2.39"/></g><rect class="cls-10" x="168.3" y="145.95" width="21.98" height="21.98" rx="4.4" transform="translate(358.58 313.87) rotate(-180)"/><rect class="cls-11" x="133.63" y="147.73" width="30.57" height="5.34" rx="2.55" transform="translate(297.82 300.79) rotate(-180)"/><rect class="cls-11" x="121.24" y="156.43" width="42.95" height="5.34" rx="2.55" transform="translate(285.44 318.2) rotate(-180)"/><rect class="cls-11" x="121.24" y="165.13" width="42.95" height="5.34" rx="2.55" transform="translate(285.44 335.6) rotate(180)"/><g class="cls-3"><rect class="cls-9" x="169.23" y="182.86" width="21.98" height="21.98" rx="2.39"/></g><rect class="cls-10" x="167.99" y="181.08" width="21.98" height="21.98" rx="4.4" transform="translate(357.96 384.14) rotate(-180)"/><rect class="cls-11" x="133.32" y="182.86" width="30.57" height="5.34" rx="2.55" transform="translate(297.2 371.06) rotate(180)"/><rect class="cls-11" x="120.93" y="191.56" width="42.95" height="5.34" rx="2.55" transform="translate(284.82 388.47) rotate(180)"/><rect class="cls-11" x="120.93" y="200.27" width="42.95" height="5.34" rx="2.55" transform="translate(284.82 405.87) rotate(-180)"/><g class="cls-3"><rect class="cls-9" x="121.91" y="81.66" width="62.53" height="54.79" rx="4.04"/></g><rect class="cls-12" x="119.23" y="79.39" width="62.53" height="54.79" rx="4.04"/><rect class="cls-13" x="194.79" y="194" width="128.15" height="54.85" rx="13.59"/><path class="cls-14" d="M255.24,194a27.43,27.43,0,0,1,27.42,27.43h0a27.42,27.42,0,0,1-27.42,27.42h-68.3a5,5,0,0,1-5-5l17.68-20.12L181.94,199a5,5,0,0,1,5-5Z"/><path class="cls-15" d="M181.94,244.92h73.3a23.5,23.5,0,0,0,0-47h-73.3C190.4,218.35,183.73,241,181.94,244.92Z"/><rect class="cls-11" x="214.94" y="207.52" width="51.9" height="2.69" rx="1.35" transform="translate(481.77 417.74) rotate(-180)"/><rect class="cls-11" x="201.29" y="217.14" width="51.9" height="2.69" rx="1.35" transform="translate(454.48 436.96) rotate(-180)"/><rect class="cls-11" x="216.47" y="231.55" width="51.9" height="2.69" rx="1.35" transform="translate(484.85 465.79) rotate(-180)"/><path class="cls-10" d="M264.27,192.34H222.48a15.63,15.63,0,0,1-15.63-15.64h0a15.63,15.63,0,0,1,15.63-15.63h41.79c8.63,0,35.28,7,35.28,15.63h0C299.55,185.34,272.9,192.34,264.27,192.34Z"/><path class="cls-10" d="M245.45,161.07a15.63,15.63,0,0,0-15.64,15.63h0a15.64,15.64,0,0,0,15.64,15.64H304a2.85,2.85,0,0,0,2.85-2.85L296.8,178l10.08-14.1a2.85,2.85,0,0,0-2.85-2.85Z"/><path class="cls-15" d="M306.88,190.1H245.45a13.4,13.4,0,1,1,0-26.79h61.43C302.06,175,305.86,187.86,306.88,190.1Z"/><rect class="cls-11" x="238.83" y="168.78" width="49.24" height="1.53" rx="0.77"/><rect class="cls-11" x="246.62" y="174.26" width="49.24" height="1.53" rx="0.77"/><rect class="cls-11" x="237.96" y="182.48" width="49.24" height="1.53" rx="0.77"/><path class="cls-10" d="M291.57,222.52c.18-4.8-.14-17-11-26.57a9.24,9.24,0,0,0-6.08-2.27h-3a5.25,5.25,0,0,1-5.26-5.31l.14-13H287l-.14,13a5.25,5.25,0,0,0,5.26,5.31h3a9.22,9.22,0,0,1,6.08,2.27c10.85,9.56,11.17,21.77,11,26.57l-8.78-8.14Z"/><path class="cls-13" d="M227.08,108s.4-1.54,3.88-2.53a4.91,4.91,0,0,0,.74,1c.27.18,8.23,10.69,9.48,11.33s8.08-6.26,10.46-8.57l2.25-2.35c2.87-3.27,4.44-5.36,6.24-5.23l8.53.91,11.51-1.21s5.36,2.26,6,4.61,1.44,13.21,1.44,20,2.61,24.06,2.22,27.46-2.48,4.31-6.8,3.79-4.7-30.86-4.7-30.86-1.57,8.11-3.36,9.2c-.35,0-13.12,1.91-13.12,1.91s-5.62-1.43-7.67-4.14c-2.05-1.13-.83-8.93-1.09-10l-2.64,2.78c-.85,1.38-9.39,4-15.71-.56s-8.42-13.63-7.38-16.43Z"/><path class="cls-16" d="M231.19,184.43s2.34,22.65,1.07,24-4,9.28-4.36,9.37-3.44,2.27-2.73,2.54,7.16-1.46,8.54-2.73,3.28-5.3,3.76-5.51-.09,5.07-.09,5.07l.65-.26a41.24,41.24,0,0,0,1.37-6c0-1.54-1.08-2.69-1.37-3.78s4.31-23.79,4.31-23.79Z"/><path class="cls-17" d="M227.9,217.78c-.34.09-3.44,2.27-2.73,2.54s7.16-1.46,8.54-2.73,3.28-5.3,3.76-5.51-.09,5.07-.09,5.07l.65-.26a41.24,41.24,0,0,0,1.37-6c0-1.49-1-2.62-1.34-3.68a11.26,11.26,0,0,0-4.12,6C233.09,216.14,226.16,220.2,227.9,217.78Z"/><path class="cls-16" d="M212,184.39s-3.57,22.49-5.14,23.45-6.28,7.93-6.63,7.93-3.9,1.31-3.29,1.74,7.3.44,9-.43,4.53-4.27,5.06-4.36-1.4,4.88-1.4,4.88l.7-.09a40.65,40.65,0,0,0,2.87-5.49c.44-1.48-.34-2.87-.34-4s10.28-21.88,10.28-21.88Z"/><path class="cls-18" d="M253.28,135.79s-21.36,2.88-28.16,6.54-17.26,42.1-17.26,42.1c11.11,8.5,30.47,4.58,35.43,1.83,6.41-13.72,6.8-23.14,9.94-23.53s18.18-.39,20.92-5.23.39-16.87.39-19.09S253.28,135.79,253.28,135.79Z"/><path class="cls-16" d="M284.09,158.15a4.9,4.9,0,0,0,4.31,4.15,59.21,59.21,0,0,0,7.16,0c.82.07.23-1.11-.49-1.4s-4.21-.36-3.89-.46,4.25-.79,5-.2,3.73,2.45,4.74,2l-.69-1.05s1.21.49,1.77.26a2.29,2.29,0,0,0-.46-1.08,4.36,4.36,0,0,0-.68-1.17c-.36-.36-3.86-2.52-5.2-2.55s-7.19.72-7.19.72l-3.21-.33Z"/><path class="cls-13" d="M283.13,157.2c0,1.08.47,1.25.63,1.38,1.73.42,4.68-1.24,4.68-1.24a1.08,1.08,0,0,1-.11-.72Z"/><circle class="cls-19" cx="277.94" cy="94.48" r="3.99" transform="translate(140.17 353.7) rotate(-80.78)"/><path class="cls-17" d="M264.08,79.77c-1.17-3.47,2.62-6,6.61-5.36,2.22.65,2.42,1.43,3.4,1.7s5.55,2.87,6.21,6.47-1.05,5.16-.72,6.54-1.24,6.93-7.26,5.55S264.08,79.77,264.08,79.77Z"/><rect class="cls-17" x="261.12" y="81.31" width="0.57" height="4.18" rx="0.18" transform="translate(26.06 -57.67) rotate(13.24)"/><path class="cls-20" d="M253.56,121.66a.13.13,0,0,1-.12-.11s-.19-1.85-.19-3.54a11.39,11.39,0,0,1,1.24-3.32c1.22-2.63,2.88-6.24,2.55-9a.12.12,0,0,1,.23,0c.34,2.85-1.34,6.49-2.57,9.14a12.21,12.21,0,0,0-1.22,3.23c0,1.68.19,3.5.19,3.52a.11.11,0,0,1-.1.13Z"/><path class="cls-20" d="M279.64,114.6h0a.11.11,0,0,1-.06-.15s1.89-4.71,5.81-6.47a.11.11,0,0,1,.15.06.11.11,0,0,1-.06.15c-3.83,1.73-5.67,6.3-5.69,6.34A.12.12,0,0,1,279.64,114.6Z"/><path class="cls-20" d="M235.54,187.73a.1.1,0,0,1-.09,0,.11.11,0,0,1,0-.16c2.59-2.33,7.68-21,8.07-22.86l.08-.37c.28-1.37.35-1.74,1.28-2.32l.41-.25c.69-.4,1.06-.62,1.28-2.11,0-.21,0-.41.07-.59.16-1.48.24-2.3,4-3.17,4.1-.94,18.42-8.28,20.83-15.87a.12.12,0,0,1,.15-.08.12.12,0,0,1,.08.15c-1.35,4.23-6.11,8.07-9.86,10.55-4.39,2.91-9,5-11.15,5.48-3.62.83-3.7,1.54-3.85,3,0,.19,0,.39-.07.6-.23,1.61-.67,1.86-1.39,2.28l-.41.24c-.84.54-.9.85-1.17,2.17l-.08.37c-.39,1.84-5.52,20.63-8.15,23A.11.11,0,0,1,235.54,187.73Z"/><path class="cls-20" d="M267.79,145.54h0a4.46,4.46,0,0,1-2.53-2.51,4.23,4.23,0,0,1,1-3.69.12.12,0,0,1,.17,0,.11.11,0,0,1,0,.16,4,4,0,0,0-1,3.48,4.28,4.28,0,0,0,2.39,2.36.12.12,0,0,1,.07.15A.12.12,0,0,1,267.79,145.54Z"/><path class="cls-20" d="M250.18,163.15a10.29,10.29,0,0,1-2.21-.44c-.56-.15-.66-.26-.69-.36a.21.21,0,0,1,.06-.18,4.69,4.69,0,0,1,2.7.05c.65.19.76.1.76.1s-.34-.55-2-1.54a.12.12,0,0,1,0-.16.13.13,0,0,1,.16,0c1,.62,2.25,1.45,2.08,1.84-.08.2-.4.21-1,0a5.31,5.31,0,0,0-2.43-.14,1.65,1.65,0,0,0,.48.18,11.33,11.33,0,0,0,2.15.43.11.11,0,0,1,.12.11A.12.12,0,0,1,250.18,163.15Z"/><path class="cls-16" d="M267.71,75.71c-2.81,1.51-4.44,3.7-4.61,4.68s-.52,2.91-1.17,3.59-3,1-3,1c0,.49,1.18,1.63,1.41,2a.68.68,0,0,1-.23.92c-.23.36.39,1.6.39,1.6a1.47,1.47,0,0,0-.36,1.47c.23.75-.26,1.67-.29,2.06s0,1.24,1.76,1.53,3.14-.42,3.89.33,1.87,3.79.56,4.9-5.46,1.64-5.95,1.87c-.1,4.28,1.89,8.63,7.06,9.09s12.68-8.63,13-9.39c-5.53-.29-6.9-2.58-7.06-3.79s.06-4.41,0-4.41a3.77,3.77,0,0,1-1.17-2.58c1,.32,2.91-1.87,2.81-3.34s-1.9-1.7-2.85-.68c-.68.09-1.24-3-1.56-3.53a24.2,24.2,0,0,0-2.16-3.11C266.6,78.3,267.71,75.71,267.71,75.71Z"/><path class="cls-21" d="M265.91,94.16a.12.12,0,0,1-.11-.1.11.11,0,0,1,.09-.13A7.11,7.11,0,0,0,271,90.76a.12.12,0,0,1,.16-.05.12.12,0,0,1,.05.16,7.35,7.35,0,0,1-5.23,3.29Z"/><path class="cls-17" d="M264.39,80.27c0,.87.48,1.35,1.74,1.87a4.78,4.78,0,0,1,1.92,1.44,3.23,3.23,0,0,0-1.61-2.35A21.93,21.93,0,0,1,264.39,80.27Z"/><path class="cls-17" d="M265.85,84.12c0,.62-.24,1.12-.53,1.12s-.53-.5-.53-1.12S265,83,265.32,83,265.85,83.5,265.85,84.12Z"/><path class="cls-17" d="M270.64,86.25h0l-7.13-1.56a.11.11,0,0,1-.08-.07s-.64-1.53-1.83-1.33a.12.12,0,1,1,0-.23c1.23-.2,1.92,1.11,2.06,1.41l7,1.54a2,2,0,0,1,2.54-.29.11.11,0,0,1,0,.16.11.11,0,0,1-.16,0,1.75,1.75,0,0,0-2.3.32A.11.11,0,0,1,270.64,86.25Z"/><rect class="cls-17" x="263.41" y="82.25" width="0.57" height="4.18" rx="0.18" transform="translate(26.34 -58.17) rotate(13.25)"/><path class="cls-21" d="M263.89,89.8a40.69,40.69,0,0,1-3.76-1.89c-.23.36.39,1.6.39,1.6a1.53,1.53,0,0,0-.39,1.41h.05C260.62,91,261.5,90.75,263.89,89.8Z"/><path class="cls-17" d="M262.8,90.05a6.23,6.23,0,0,1-1.93-.3.12.12,0,0,1-.08-.15.12.12,0,0,1,.15-.07,6.42,6.42,0,0,0,3,.17.11.11,0,0,1,.14.09.11.11,0,0,1-.09.14A5.45,5.45,0,0,1,262.8,90.05Z"/><path class="cls-21" d="M271.76,90a1.73,1.73,0,0,1-.47-.07.11.11,0,1,1,.06-.22,1,1,0,0,0,1.07-.23.78.78,0,0,0,.08-.83.57.57,0,0,0-.57-.33.08.08,0,0,1-.08,0,.12.12,0,0,1,0-.08,1.6,1.6,0,0,1,.5-1.11,1.78,1.78,0,0,1,1.47-.32.12.12,0,0,1,0,.24,1.54,1.54,0,0,0-1.28.26,1.27,1.27,0,0,0-.4.81.79.79,0,0,1,.65.46,1,1,0,0,1-.11,1.08A1,1,0,0,1,271.76,90Z"/><circle class="cls-22" cx="271.7" cy="91.14" r="0.85"/><path class="cls-17" d="M254.19,133.35c6.71,4.54,20.79,2.23,20.79,2.23l-.09,3.27c-5,1.3-20,.26-21.61-3.06C254.45,134.23,254.19,133.35,254.19,133.35Z"/><rect class="cls-23" x="256.93" y="134.87" width="3.49" height="3.95" transform="translate(34.53 -51.3) rotate(12.13)"/><path class="cls-21" d="M299.65,160.43l-.07,0L296,157.86a12.86,12.86,0,0,0-1.41,0,.11.11,0,0,1-.12-.11.12.12,0,0,1,.12-.12c1.41,0,1.5,0,1.54,0l3.63,2.55a.12.12,0,0,1,0,.17A.11.11,0,0,1,299.65,160.43Z"/><path class="cls-21" d="M300.43,159.9h-.06l-2.09-1.31a.12.12,0,1,1,.12-.2l2.1,1.31a.11.11,0,0,1,0,.16A.12.12,0,0,1,300.43,159.9Z"/><path class="cls-17" d="M200.23,215.77c-.35,0-3.9,1.31-3.29,1.74s7.3.44,9-.43,4.53-4.27,5.06-4.36-1.4,4.88-1.4,4.88l.7-.09a40.65,40.65,0,0,0,2.87-5.49c.43-1.43-.29-2.78-.34-3.9a11.26,11.26,0,0,0-5.52,4.72C205.67,215.52,197.93,217.66,200.23,215.77Z"/><path class="cls-21" d="M265.91,104.05a.11.11,0,0,1-.11-.11.11.11,0,0,1,.11-.12,1.13,1.13,0,0,0,1-1.19.12.12,0,0,1,.12-.12.11.11,0,0,1,.11.12,1.36,1.36,0,0,1-1.24,1.42Z"/><path class="cls-16" d="M230.88,105.86c-.17-.48.32-1.87.47-3.13a5.06,5.06,0,0,0-.69-3.18c-.54-1.11-.36-3-.47-3.09-.59-.19-1.11.78-1.1,1.57s.36,1.83-.75,2-2.67-2.16-3.28-3.5-1.19-2.8-1.66-2.72-.12,2.18.46,3.39,1,1.94.39,1.63-2.05-4.53-2.53-4.55-.69,1.21-.32,2.26c-.85-1.21-1.21,1-.76,2.22s1.57,2.22,1.23,2.24-1.06-1.33-1.31-1.74-.66.67.19,2.58,2.93,2.76,4.3,3.39,2.38,2.79,2.38,2.79l3-1.27.64-.86Z"/><path class="cls-24" d="M240.48,120.7a.08.08,0,0,1,0-.07c.1-.86.22-1.68.28-2.06a2.68,2.68,0,0,0-.42.57.07.07,0,0,1-.08,0,.06.06,0,0,1-.05-.08,3.58,3.58,0,0,1,.61-.81.06.06,0,0,1,.08,0,.07.07,0,0,1,0,.07s-.19,1.12-.33,2.28a.06.06,0,0,1-.07.06Z"/><path class="cls-21" d="M223.39,102.48a2.24,2.24,0,0,1-1.27-.82.08.08,0,0,1,0-.1.07.07,0,0,1,.09,0,2.12,2.12,0,0,0,1.51.81,4.58,4.58,0,0,0,.86-.09,2.45,2.45,0,0,1,2.5.57c.15-.43.72-1.86,1.87-2.07a.08.08,0,0,1,.08.06.08.08,0,0,1-.06.08c-1.24.22-1.79,2.06-1.79,2.08a.1.1,0,0,1-.06,0,.07.07,0,0,1-.06,0,2.3,2.3,0,0,0-2.46-.6,4.79,4.79,0,0,1-.89.09A1.86,1.86,0,0,1,223.39,102.48Z"/><path class="cls-21" d="M223.86,100.54h0a5.94,5.94,0,0,1-2.11-3.15.07.07,0,0,1,.05-.08s.08,0,.08,0a5.8,5.8,0,0,0,2.06,3.07.06.06,0,0,1,0,.09S223.89,100.54,223.86,100.54Z"/><path class="cls-21" d="M223.71,101.14h0a.08.08,0,0,1,0-.1,3.6,3.6,0,0,1,.84-.74.07.07,0,0,1,.09,0,.07.07,0,0,1,0,.1,3.08,3.08,0,0,0-.79.71A.1.1,0,0,1,223.71,101.14Z"/><path class="cls-13" d="M226.89,107.83c.19,1.06.28,1.26.47,1.36,1.78.06,4-3.12,4-3.12a1.06,1.06,0,0,1-.25-.68Z"/><g class="cls-3"><rect class="cls-25" x="108.39" y="19.77" width="136.59" height="40.56" rx="5.51"/></g><rect class="cls-10" x="105.08" y="15.91" width="136.59" height="40.56" rx="5.51"/><path class="cls-12" d="M150,32.71h49.83a3,3,0,0,0,3-3h0a3,3,0,0,0-3-3H150a3,3,0,0,0-3,3h0A3,3,0,0,0,150,32.71Z"/><path class="cls-12" d="M141.88,44.5h65.78a3,3,0,0,0,3-3h0a3,3,0,0,0-3-3H141.88a3,3,0,0,0-3,3h0A3,3,0,0,0,141.88,44.5Z"/><path class="cls-26" d="M68.78,89.92s-16.39-3.43-20.26,9-5.72,41.9,10.41,42.22C76.53,141.52,68.78,89.92,68.78,89.92Z"/><path class="cls-26" d="M56.35,92.55l-1.1-.17a9.38,9.38,0,0,1,.88-2.58,4.66,4.66,0,0,1,4-2.8,3.87,3.87,0,0,1,3,1,4.25,4.25,0,0,1,1.13,2.86l-1.11,0a3.14,3.14,0,0,0-.8-2,2.83,2.83,0,0,0-2.18-.68C57.06,88.23,56.35,92.51,56.35,92.55Z"/><path class="cls-27" d="M93,136.05A65.85,65.85,0,0,1,88.87,153l-6.78-4a29.46,29.46,0,0,0,3.6-13.71c0-3.21-1.08-9.31-2.33-15.55-.21-1.07-.44-2.14-.66-3.19-1.19-5.69-2.46-11.1-3.2-14.12a3.94,3.94,0,1,1,7.66-1.88c0,.06,1.57,6.42,3.13,13.76,0,.2.09.39.13.59.1.48.19,1,.29,1.42C92.54,125.31,93.36,132.5,93,136.05Z"/><path class="cls-28" d="M90.71,116.24l-7.35,3.42c-.21-1.07-.44-2.14-.66-3.19l7.72-1.65C90.52,115.3,90.61,115.77,90.71,116.24Z"/><path class="cls-29" d="M83.73,96.15s2.45-.15,4.23,5.5,3.82,13.24,3.82,13.24l-9.32,2.72S78.46,98.4,83.73,96.15Z"/><path class="cls-30" d="M83.9,115.09a.26.26,0,0,1-.25-.2.26.26,0,0,1,.18-.32l7-2a.27.27,0,0,1,.33.18.26.26,0,0,1-.18.33l-7,2Z"/><path class="cls-28" d="M85.43,128.41a.21.21,0,0,1-.21-.17.22.22,0,0,1,.16-.27l2.93-.69a.23.23,0,0,1,.1.44l-2.92.69Z"/><path class="cls-28" d="M86.42,128.18a.23.23,0,0,1-.15-.07.22.22,0,0,1,0-.31l1.12-1.1a.21.21,0,0,1,.31,0,.22.22,0,0,1,0,.32l-1.11,1.09A.23.23,0,0,1,86.42,128.18Z"/><polygon class="cls-27" points="65.38 236.42 65.95 240.99 71.78 240.99 72.11 236.18 65.38 236.42"/><polygon class="cls-27" points="80.95 235.68 81.66 240.99 87.48 240.99 87.25 235.53 80.95 235.68"/><path class="cls-26" d="M101.85,250.19h-22a3.22,3.22,0,0,1-.29-1.23,36.68,36.68,0,0,1,.75-6.71c0-.22.07-.42.09-.61a6.64,6.64,0,0,0,.07-.76,1.12,1.12,0,0,1,1.35-1.27c2.23,2.19,4.75-1.09,6.23,0,0,0,.63.46,2.38,2s4.72,2.61,7.26,3.67c3.26,1.37,4.19,2.73,4.37,3.67A1.76,1.76,0,0,1,101.85,250.19Z"/><path class="cls-31" d="M101.85,250.19h-22a3.22,3.22,0,0,1-.29-1.23H102A1.76,1.76,0,0,1,101.85,250.19Z"/><path class="cls-31" d="M82.07,250.19h-.65a4.85,4.85,0,0,0,1.18-3.53,6.23,6.23,0,0,0-2.32-4.41c0-.22.07-.42.09-.61a6.77,6.77,0,0,1,2.76,5A5.38,5.38,0,0,1,82.07,250.19Z"/><path class="cls-12" d="M90,242.92a.36.36,0,0,1-.09-.71l1.38-.35a.37.37,0,0,1,.17.71l-1.37.34Z"/><path class="cls-12" d="M88.66,241.78a.36.36,0,0,1-.35-.28.37.37,0,0,1,.26-.44l1.38-.34a.37.37,0,0,1,.44.26.35.35,0,0,1-.27.44l-1.37.35Z"/><path class="cls-12" d="M91.4,243.72a.36.36,0,0,1-.35-.27.35.35,0,0,1,.27-.44l1.37-.35a.37.37,0,0,1,.18.71l-1.38.34Z"/><path class="cls-12" d="M92.78,244.49a.36.36,0,0,1-.35-.28.37.37,0,0,1,.26-.44l1.38-.34a.37.37,0,0,1,.17.71l-1.37.34Z"/><path class="cls-12" d="M94.28,245.2a.36.36,0,0,1-.35-.27.36.36,0,0,1,.26-.44l1.38-.35a.37.37,0,0,1,.44.27.36.36,0,0,1-.27.44l-1.37.34Z"/><path class="cls-12" d="M95.91,245.81a.37.37,0,0,1-.36-.28.38.38,0,0,1,.27-.44l1.38-.34a.36.36,0,0,1,.44.27.38.38,0,0,1-.27.44L96,245.8Z"/><path class="cls-31" d="M56.33,157.94c.06.23.12.45.19.67v0c.09.3.2.59.31.86,1,2.42,8.61,2.77,16.12,1.93,5.82-.65,11.57-2,14.09-3.71s-2.67-16.19-2.67-16.19l-28.48,6S55.24,153.57,56.33,157.94Z"/><path class="cls-31" d="M73.49,161.36l4.66,40.27C77.08,208.41,80,236.16,80,236.16l8.39-.26,2.43-36.75c-.05-10.64-1.18-25.36-2.83-41.4,0-.25,0-.5-.07-.74-.09-.82-.17-1.64-.26-2.47,0-.22,0-.44-.07-.66l-2.74,1.26-.68.31-10.76,5Z"/><path class="cls-32" d="M81.31,235h0a.34.34,0,0,0,.3-.39c-3-24.24-1.05-34.2-1-34.3a.49.49,0,0,0,0-.12l-5-38.41a.35.35,0,0,0-.7.1l5,38.35c-.16.87-1.85,11.06,1,34.46A.35.35,0,0,0,81.31,235Z"/><path class="cls-32" d="M81.12,149.17a14.24,14.24,0,0,0,3,6.28,8.21,8.21,0,0,0,1.61,1.37,7,7,0,0,0,1.48.72c.24.08.49.15.73.21,0-.25,0-.5-.07-.74l-.35-.11a5.94,5.94,0,0,1-1.42-.67,6.84,6.84,0,0,1-1.3-1.09,13.73,13.73,0,0,1-3-6.1.34.34,0,0,0-.4-.28A.35.35,0,0,0,81.12,149.17Z"/><path class="cls-32" d="M75.36,159.9a.29.29,0,0,1-.28.3h0a.28.28,0,0,1-.3-.27c0-1.05-.12-2.13-.18-3.21,0-.19,0-.37,0-.56-.23-3.52-.52-7-.74-9.42,0-.2,0-.39,0-.57,0-.54-.09-1-.13-1.41l.57-.1c0,.4.09.88.14,1.42,0,.19,0,.38.05.58.22,2.42.5,5.84.73,9.34,0,.19,0,.39,0,.58C75.24,157.7,75.31,158.81,75.36,159.9Z"/><path class="cls-32" d="M76.19,156.19a8.7,8.7,0,0,1-1,.39l-.57.14a3.65,3.65,0,0,1-.55.08,2,2,0,0,1-1-.16,1.16,1.16,0,0,1-.66-.89c-.22-1.08-.66-5.57-1-8.74,0-.19,0-.38,0-.57-.05-.51-.09-1-.13-1.36l.58-.07c0,.39.08.86.13,1.37,0,.19,0,.38,0,.57.3,3.17.74,7.65,1,8.7a.64.64,0,0,0,.35.49,2,2,0,0,0,1.23,0l.57-.16a7.18,7.18,0,0,0,.8-.31.29.29,0,0,1,.39.12A.28.28,0,0,1,76.19,156.19Z"/><path class="cls-31" d="M55.93,152.2s.2,2.26.52,5.74q0,.31.06.66h0v0l.06.7c.81,8.74,2.21,23.27,3.13,30.26,0,0-.14,13.14.35,23.29.45,9.43,3.7,20.73,4.16,23.53h8.64l.09-1.24V156.79a85.32,85.32,0,0,0-8.07-3.27l-.68-.23c-.43-.14-.86-.28-1.29-.4l-.68-.2C59.66,152,57.27,151.64,55.93,152.2Z"/><path class="cls-32" d="M65.16,236h.07a.34.34,0,0,0,.27-.41c0-.13-2.39-12.39-3.41-19.34s-.52-26.41-.51-26.6a.07.07,0,0,0,0-.05c-.76-6.52-2.33-29-2.35-29.24a.35.35,0,0,0-.37-.33.34.34,0,0,0-.32.37c0,.23,1.58,22.69,2.35,29.25,0,.81-.49,19.83.52,26.7s3.39,19.25,3.42,19.37A.34.34,0,0,0,65.16,236Z"/><path class="cls-26" d="M74.21,248.78v.15c0,.23,0,.44,0,.62,0,.4-.05.64-.05.64H61a6.87,6.87,0,0,1,0-1.26,6.56,6.56,0,0,1,2.35-4.86c2.48-1.92,1.52-1.52,2-2.39.06-.1.5-1.58.55-1.69.43-.9.82-1.33,3.17-1.33,3.12,0,3.39,1.51,3.72,2.31a13.61,13.61,0,0,1,.52,1.85c.08.33.16.69.24,1.05.19.9.37,1.84.49,2.6A13.54,13.54,0,0,1,74.21,248.78Z"/><path class="cls-31" d="M74.21,248.78v.15c0,.23,0,.44,0,.62a3.67,3.67,0,0,1-1.36-1.77c-.81-2.21.43-4.86.49-5h0c.08.33.16.69.24,1.05a5.93,5.93,0,0,0-.17,3.7A3.23,3.23,0,0,0,74.21,248.78Z"/><path class="cls-31" d="M74.21,248.93c0,.75-.08,1.26-.08,1.26H61a6.87,6.87,0,0,1,0-1.26Z"/><path class="cls-12" d="M69.52,242.75h-.09a6.48,6.48,0,0,0-3-.07.37.37,0,0,1-.46-.26.37.37,0,0,1,.26-.46,7.19,7.19,0,0,1,3.43.06.38.38,0,0,1-.1.74Z"/><path class="cls-12" d="M69.73,241.33h-.1a6.55,6.55,0,0,0-3-.06.38.38,0,0,1-.46-.26.37.37,0,0,1,.26-.46,7.19,7.19,0,0,1,3.43.06.37.37,0,0,1-.09.73Z"/><path class="cls-12" d="M69,243.93h-.09a6.47,6.47,0,0,0-3.05-.06.37.37,0,0,1-.19-.72,7,7,0,0,1,3.42.06.37.37,0,0,1,.27.45A.36.36,0,0,1,69,243.93Z"/><path class="cls-12" d="M68.3,245.28h-.09a6.41,6.41,0,0,0-3-.06.38.38,0,0,1-.46-.27.37.37,0,0,1,.26-.46,7.33,7.33,0,0,1,3.43.06.37.37,0,0,1,.26.46A.36.36,0,0,1,68.3,245.28Z"/><path class="cls-32" d="M56.51,158.6h0v0l.06.7a5.72,5.72,0,0,0,2.9-.26,9.34,9.34,0,0,0,4.22-3.57,17.68,17.68,0,0,0,1.18-2,16.78,16.78,0,0,0,.84-1.87.36.36,0,0,0-.22-.45.34.34,0,0,0-.44.22,17.72,17.72,0,0,1-.86,1.87,17.37,17.37,0,0,1-1.1,1.83,8.64,8.64,0,0,1-3.86,3.29A5,5,0,0,1,56.51,158.6Z"/><path class="cls-29" d="M88.09,145.1a12.84,12.84,0,0,1-1,.88l-.26.21a21,21,0,0,1-1.91,1.26l-.3.17a30.61,30.61,0,0,1-9.24,3.28c-.8.15-1.63.28-2.46.38s-1.9.19-2.86.23c-.71,0-1.43,0-2.15,0h-.44a30.85,30.85,0,0,1-12.38-2.89l-.15-.07c0-.08-.06-.16-.08-.24-.79-2.39-1.62-8-2.22-12.79,0-.11,0-.22,0-.33-.26-2.1-.48-4-.62-5.36,0-.13,0-.25,0-.37s0-.42-.06-.6c-.07-.75-.13-1.49-.18-2.23a97.46,97.46,0,0,1,0-11l0-.62a.91.91,0,0,0,0-.17c0-.12,0-.23,0-.34.06-1.06.12-2.13.19-3.21,0-.11,0-.22,0-.33h0c0-.31,0-.61,0-.92l0-.45c.09-1.4.19-2.84.28-4.3.33-5.29,1.78-9,4.27-10.65l.35-.21h0a5.76,5.76,0,0,1,2-.69l.23,0,.32-.06a15.92,15.92,0,0,0,2.74-.77l.25-.09.31-.13.47-.21.38-.19a12.36,12.36,0,0,0,2-1.22L73.93,91A7.85,7.85,0,0,0,77,93.37l.34.16.52.2c.41.16.83.29,1.24.41l.35.1c2.46.71,4.78,1.19,5.35,4.1.28,1.4-.24,3.69-.68,7.38,0,.14,0,.28,0,.43-.08.67-.15,1.38-.21,2.14l0,.39c-.14,1.91-.23,4.11-.18,6.64,0,.72,0,1.47.08,2.24s.08,1.47.13,2.24.12,1.47.2,2.23.14,1.35.23,2.06c.05.44.1.89.17,1.35h0c0,.12,0,.25.05.38s0,.32.07.49c.09.65.21,1.43.35,2.32,0,.1,0,.22.05.33.16,1,.35,2.22.56,3.45l.06.33c.4,2.36.86,4.94,1.34,7.32,0,.14.06.28.08.42C87.4,142.19,87.75,143.78,88.09,145.1Z"/><circle class="cls-33" cx="76.08" cy="138.03" r="0.75"/><circle class="cls-33" cx="76.34" cy="141.92" r="0.75"/><circle class="cls-33" cx="76.7" cy="145.81" r="0.75"/><path class="cls-30" d="M56.49,146.82a.27.27,0,0,1-.26-.2c-3.41-14.29-2.31-31.12-2.3-31.29a.26.26,0,0,1,.28-.25.27.27,0,0,1,.25.28c0,.17-1.11,16.93,2.29,31.14a.27.27,0,0,1-.2.32Z"/><polygon class="cls-30" points="70.99 92.89 68.78 96.95 72.32 100.67 74.18 96.6 70.99 92.89"/><polygon class="cls-30" points="71.17 98.55 71.26 128.17 76.65 136.04 79.92 127.37 72.76 98.1 71.17 98.55"/><path class="cls-26" d="M63.53,79.18a1.66,1.66,0,0,0-1.41-.81,1.66,1.66,0,0,1-1.8-1.29s-2-1-1.61-2.48,2-1.4,2.16-2.28-.54-4.27,4.16-3.68c0,0,.91-3.28,3.49-2.59s4.13.5,5.17-.11a2.25,2.25,0,0,1,3.27.72,3.1,3.1,0,0,1-.26,3.93s2.22.77,2.18,2.64-2.79,1.63-2.79,1.63,1.12,1.19-.09,2-1.37,1.31-1.37,1.31Z"/><path class="cls-34" d="M73,79.57s.39-2.33,2.27-2.07,2.8,6.26-.67,6.55Z"/><path class="cls-27" d="M65.27,91.53s-.37.81,3.1,1.43a7.24,7.24,0,0,0,5-1.08,6.14,6.14,0,0,0,.64-.51,9.37,9.37,0,0,1-.4-4.63.66.66,0,0,1,0-.09l-9.21-3.56Z"/><path class="cls-26" d="M66,86.42s2.66,5.62,7.38,5.46a6.14,6.14,0,0,0,.64-.51,9.37,9.37,0,0,1-.4-4.63Z"/><path class="cls-27" d="M69.65,89.14c3.69.34,6.41-1.52,6.44-4.66,0-.75-.06-1.84-.17-3v0c0-.24,0-.48-.07-.72s0-.35,0-.52c-.21-2-.46-3.84-.46-3.84-1-4.94-6.18-6.29-10-4s-1.61,8.24-1.29,11.21A6,6,0,0,0,69.65,89.14Z"/><path class="cls-26" d="M69.53,79.27c0,.37-.17.66-.38.66s-.38-.29-.38-.66.17-.66.38-.66S69.53,78.91,69.53,79.27Z"/><path class="cls-26" d="M73.37,79.05c0,.36-.17.66-.38.66s-.38-.3-.38-.66.17-.66.38-.66S73.37,78.68,73.37,79.05Z"/><path class="cls-34" d="M65.94,81.81c.06.36.84.53,1.75.38s1.59-.58,1.53-.94-.85-.54-1.76-.38S65.88,81.44,65.94,81.81Z"/><path class="cls-26" d="M63.26,78.7a2.7,2.7,0,0,1,1.63,1.71c.27,1.23,1.59-.06.5-1.33s.69-1.35.87-2.38-1.5-.93-.62-2.19,2.45.56,4.22,0-.22-1.68.86-1.57,4.86,3.23,4.14,1.33a6.44,6.44,0,0,0-8.27-3.18C62.37,72.83,62.73,76.55,63.26,78.7Z"/><path class="cls-35" d="M69.48,82.86s.77,1.84,2.34,2c1.8.19,2-2,2-2Z"/><path class="cls-26" d="M67.91,78c-1,.31-1.4-.76-.53-1.41a2.72,2.72,0,0,1,1.32-.62c1.35-.13,1.48.82.84,1.27A7.59,7.59,0,0,1,67.91,78Z"/><path class="cls-26" d="M74.16,77.22c1,0,1.1-1.15.07-1.51a2.68,2.68,0,0,0-1.44-.19c-1.33.28-1.17,1.22-.42,1.46A7.6,7.6,0,0,0,74.16,77.22Z"/><path class="cls-34" d="M75.52,81.6a2.59,2.59,0,0,0,.4-.09v0c0-.24,0-.48-.07-.72s0-.35,0-.52a3.14,3.14,0,0,0-.51,0c-.9.15-1.58.57-1.52.94S74.61,81.75,75.52,81.6Z"/><path class="cls-26" d="M72.42,82.22a.2.2,0,0,0,.08,0c.77-.64.89-1,.91-1a.16.16,0,0,0,0-.16L72,79.35h0a3.12,3.12,0,0,1-.49-1.61.16.16,0,0,0-.18-.14.18.18,0,0,0-.14.19,3.19,3.19,0,0,0,.58,1.78l1.27,1.59a3.7,3.7,0,0,1-.77.78.16.16,0,0,0,0,.23A.16.16,0,0,0,72.42,82.22Z"/><path class="cls-34" d="M72.65,85.72a.37.37,0,0,0,.11,0,.16.16,0,1,0-.15-.29,1,1,0,0,1-1-.07.17.17,0,0,0-.23,0,.16.16,0,0,0,0,.23A1.32,1.32,0,0,0,72.65,85.72Z"/><path class="cls-27" d="M64.41,79.45a2.19,2.19,0,0,0-2.83-.58c-1.62,1,0,6.86,3.25,5.74Z"/><path class="cls-26" d="M63.94,82.56h0a.17.17,0,0,0,.09-.21,3,3,0,0,0-2.33-1.84.17.17,0,0,0-.17.16.16.16,0,0,0,.15.17,2.67,2.67,0,0,1,2,1.63A.15.15,0,0,0,63.94,82.56Z"/><path class="cls-26" d="M62.43,82.17a.17.17,0,0,0,.1-.06s.28-.38.61-.76a.17.17,0,0,0,0-.23.16.16,0,0,0-.23,0c-.35.39-.62.76-.63.77a.16.16,0,0,0,0,.23A.13.13,0,0,0,62.43,82.17Z"/><path class="cls-29" d="M65,89.16a6.43,6.43,0,0,0-1.6,3.39A12.78,12.78,0,0,0,68.78,97L71,92.86S66.91,91.17,65,89.16Z"/><path class="cls-29" d="M73.59,89.77s0,1.44-2.6,3.12l3.19,3.71A8.61,8.61,0,0,0,76,92.84S76,91.17,73.59,89.77Z"/><path class="cls-27" d="M83.41,148.18s2.55,6.73,4.07,8.17c0,0,3.94-5.92,0-9.53C86.23,145.67,83.41,148.18,83.41,148.18Z"/><path class="cls-26" d="M77.43,93.4A38.32,38.32,0,0,1,82.13,107c1.36,9.08,2.36,18.43,2.36,18.43s2-14.57.85-22.75S81.09,93.4,77.43,93.4Z"/><path class="cls-26" d="M57.62,94.15s4.57,1.83,6.7,9.62c3.89,14.21-12.1,30.47-12.1,30.47-.13,2.59-.07,5.14,1.19,7.34,0,0,30.49-27.63,9.38-49.18C62.79,92.4,59.32,91.63,57.62,94.15Z"/><rect class="cls-10" x="63.05" y="105.09" width="17.26" height="24.19" rx="0.46" transform="translate(-4.46 2.85) rotate(-2.21)"/><rect class="cls-36" x="66.48" y="109.18" width="8.98" height="2.71" rx="1.36" transform="translate(-4.2 2.81) rotate(-2.21)"/><path class="cls-37" d="M79.85,105.23l.89,23.25a.47.47,0,0,1-.44.48l-2,.07-.93-24.17,2-.07A.46.46,0,0,1,79.85,105.23Z"/><path class="cls-27" d="M67.35,122.29a23.26,23.26,0,0,1-1.69-3.94c-.24.14-1.34.87-1.58,1-.86.48-1.87,1-2.75,1.39A38.59,38.59,0,0,1,56,122.6a21.06,21.06,0,0,1-2.52.67,10.82,10.82,0,0,1-1.18.17l0,0c.32-.87.69-1.79,1.08-2.71.52-1.23,1.08-2.47,1.66-3.71.28-.62.58-1.23.87-1.85l.35-.71q1.19-2.43,2.44-4.86c.47-.93,1-1.85,1.44-2.77l.74-1.38.73-1.35,0-.07c0-.06.06-.11.09-.18a5.26,5.26,0,1,0-9.45-4.62l-.73,1.47-.7,1.46L49.52,105c-.91,2-1.8,3.92-2.67,5.91-.06.13-.12.26-.17.39-.2.46-.4.91-.59,1.37-.6,1.42-1.19,2.86-1.76,4.35-.4,1-.78,2.11-1.14,3.24-.19.57-.36,1.15-.53,1.77a19.58,19.58,0,0,0-.44,2.1c0,.21-.06.43-.08.67s0,.51,0,.83a6.6,6.6,0,0,0,.09,1.15c0,.12,0,.25.07.38s.07.29.11.45l.09.25,0,.13.06.14c0,.1.08.19.13.29a3.18,3.18,0,0,0,.16.32,5.46,5.46,0,0,0,.44.67l.3.36.16.17,0,0a3.85,3.85,0,0,0,.3.27c.2.18.41.35.62.51a9,9,0,0,0,1.34.83,10.27,10.27,0,0,0,2.73.93,12.84,12.84,0,0,0,2.47.23,18.37,18.37,0,0,0,4.18-.52A27.43,27.43,0,0,0,59,131,45.49,45.49,0,0,0,65,128c1-.53,2-1.23,3-1.81.24-.15,1.87-1.22,2.12-1.37C69.2,123.88,68,123.4,67.35,122.29Z"/><path class="cls-27" d="M70.11,124.54c6.9-2.21,10.15-4.9,10.9-5.9a1.64,1.64,0,0,0-.15-2,1.47,1.47,0,0,0-.37-1.75c.74-1.66-.35-2.2-.35-2.2s1.43-1.28.52-2.1-2.5,1.32-3.88,1.9l-.21.08c.59-.8,1.19-1.85.91-2.56-.5-1.3-5,3.91-5,3.91-.92.68-2.51,2.19-3.92,3.25-.54.4-2.44,1.11-2.92,1.46l.12.58Z"/><path class="cls-28" d="M56.3,114.41l-.35.71c-.29.62-.59,1.23-.87,1.85l-9-4.27c.19-.46.39-.91.59-1.37Z"/><path class="cls-28" d="M48.51,125.31a.26.26,0,0,1-.21-.11.24.24,0,0,1,.08-.33A18.41,18.41,0,0,1,52,123.34a.24.24,0,0,1,.3.16.24.24,0,0,1-.16.3,17.59,17.59,0,0,0-3.55,1.48A.27.27,0,0,1,48.51,125.31Z"/><path class="cls-28" d="M51.87,123.81a.2.2,0,0,1-.13,0,5,5,0,0,0-2.58-.45.25.25,0,0,1-.26-.22.24.24,0,0,1,.22-.26,5.49,5.49,0,0,1,2.88.53.24.24,0,0,1,.07.33A.24.24,0,0,1,51.87,123.81Z"/><path class="cls-26" d="M71.51,124.26a2.64,2.64,0,0,1-1.64,1h-.09c-2.81-2.41-4.3-6.77-4.3-6.77a1.88,1.88,0,0,1,.16-.23,2.44,2.44,0,0,1,1.46-.93v0a17.45,17.45,0,0,0,4.34,6.85Z"/><path class="cls-26" d="M69.6,119.51a2.53,2.53,0,1,1-3.41-.66A2.46,2.46,0,0,1,69.6,119.51Z"/><path class="cls-12" d="M68.39,122.31a1.72,1.72,0,1,1,.61-2.42A1.76,1.76,0,0,1,68.39,122.31Z"/><path class="cls-29" d="M63.17,100.54a5.42,5.42,0,0,1,.06.58c.25,5-5.86,15.09-5.86,15.09l-.77-.31-.31-.12-5.16-2.06-.32-.12-5.66-2.26A32.05,32.05,0,0,1,47,106.85c.09-.19.18-.39.29-.6.62-1.32,1.45-3,2.55-5.2a12.84,12.84,0,0,1,2.27-3.4l.25-.24a8.65,8.65,0,0,1,1.55-1.15,6.18,6.18,0,0,1,6.4-.06A15.36,15.36,0,0,1,63.17,100.54Z"/><path class="cls-30" d="M58.17,114.42l-.1,0L46,109.52a.26.26,0,0,1-.14-.35.25.25,0,0,1,.34-.14l12.07,4.88a.26.26,0,0,1-.09.51Z"/><path class="cls-30" d="M57.62,116.05a.23.23,0,0,1-.14,0,.26.26,0,0,1-.08-.37c.05-.07,4.52-6.8,5.12-11.29a.26.26,0,1,1,.52.07c-.61,4.61-5,11.23-5.2,11.51A.25.25,0,0,1,57.62,116.05Z"/><rect class="cls-10" x="130.14" y="106.11" width="6.09" height="19.75"/><rect class="cls-29" x="139.34" y="96.2" width="6.09" height="29.67"/><rect class="cls-10" x="148.54" y="88" width="6.09" height="37.87"/><rect class="cls-29" x="157.75" y="100.6" width="6.09" height="25.27"/><rect class="cls-10" x="166.95" y="111.03" width="6.09" height="14.83"/></g></g></g></svg>