<svg xmlns="http://www.w3.org/2000/svg" viewBox="0 0 17 20.84"><defs><style>.cls-1{fill:#fa5;}</style></defs><g id="Layer_2" data-name="Layer 2"><g id="Option_1" data-name="Option 1"><path class="cls-1" d="M8.47,8.34A2.83,2.83,0,1,0,5.64,5.51,2.84,2.84,0,0,0,8.47,8.34Zm0-4.87a2,2,0,1,1-2,2A2,2,0,0,1,8.47,3.47Z"/><path class="cls-1" d="M4.82,15.37h7.3a.36.36,0,0,0,.36-.36V12.89a4,4,0,0,0-8,0V15A.36.36,0,0,0,4.82,15.37Zm.37-2.48a3.28,3.28,0,1,1,6.56,0v1.75H5.19Z"/><rect class="cls-1" x="2.11" y="17.5" width="12.72" height="0.69" rx="0.34"/><path class="cls-1" d="M16.64,0H.36A.36.36,0,0,0,0,.36V20.48a.36.36,0,0,0,.36.36H16.64a.36.36,0,0,0,.36-.36V.36A.36.36,0,0,0,16.64,0Zm-.37,20.11H.73V.73H16.27Z"/></g></g></svg>