<svg xmlns="http://www.w3.org/2000/svg" viewBox="0 0 40.89 37.91"><defs><style>.cls-1{fill:#fa5;}</style></defs><g id="Layer_2" data-name="Layer 2"><g id="Option_1" data-name="Option 1"><path class="cls-1" d="M13.74,15.75a1,1,0,0,0,.32.7l3.46,3.24a1,1,0,0,0,1.4,0l8-7.83a1,1,0,0,0,.3-.72,1,1,0,0,0-.29-.72,1,1,0,0,0-1.43,0l-7.3,7.15L15.45,15a1,1,0,0,0-.7-.27,1,1,0,0,0-1,1.05Z"/><path class="cls-1" d="M20.41,37.91a1.57,1.57,0,0,1-1.15-.52l-.05-.07L14,30H6.4C2.87,30,0,26.86,0,23V7C0,3.13,2.87,0,6.4,0H34.49A6.1,6.1,0,0,1,39,2.08,7.27,7.27,0,0,1,40.89,7V23c0,3.85-2.87,7-6.4,7H26.84l-5.22,7.32-.06.08A1.57,1.57,0,0,1,20.41,37.91ZM6.4,1.62C3.77,1.62,1.62,4,1.62,7V23c0,2.95,2.15,5.36,4.78,5.36h8a.79.79,0,0,1,.66.34l5.38,7.5,5.35-7.5a.81.81,0,0,1,.66-.34h8.07c2.63,0,4.78-2.41,4.78-5.36V7a5.64,5.64,0,0,0-1.43-3.81,4.49,4.49,0,0,0-3.35-1.55Z"/></g></g></svg>