<svg xmlns="http://www.w3.org/2000/svg" viewBox="0 0 26.47 22.94"><defs><style>.cls-1{fill:#fa5;}</style></defs><g id="Layer_2" data-name="Layer 2"><g id="Option_1" data-name="Option 1"><path class="cls-1" d="M18.5,17.41a.47.47,0,0,0,.43,0l3.65-1.83a.43.43,0,0,0,.19-.58.41.41,0,0,0-.19-.2L18.93,13a.44.44,0,0,0-.59.19.45.45,0,0,0,0,.2V17A.46.46,0,0,0,18.5,17.41Zm.67-3.32,2.23,1.12-2.23,1.12Z"/><path class="cls-1" d="M26,9.91H17.51V3.35a.07.07,0,0,1,0-.05h0l0,0h0l0,0h0l0,0h0l0,0h0l-3.19-3h0l0,0h0l-.05,0h0L14,0H5.52a.43.43,0,0,0-.43.43V12.34H.44a.44.44,0,0,0-.44.44v9.73a.44.44,0,0,0,.44.43h15.8a.43.43,0,0,0,.44-.43v-2H26a.44.44,0,0,0,.44-.44V10.35A.44.44,0,0,0,26,9.91ZM14.31,1.4,16,3H14.31ZM5.94.85h7.52V3.39a.43.43,0,0,0,.43.43h2.77V9.91H13.87a.44.44,0,0,0-.44.44v2H5.94Zm9.87,12.37v5.19l-3.4-3.59a.42.42,0,0,0-.57,0L5.58,19.65l-1.5-1.17a.42.42,0,0,0-.53,0L.87,20.61V13.22ZM.87,22.07V21.7l2.95-2.34,1.49,1.17a.44.44,0,0,0,.53,0l6.21-4.84,3.69,3.89.07.06v2.43Zm24.72-2.43H16.68V12.78a.44.44,0,0,0-.44-.44H14.31V10.78H25.59Z"/><path class="cls-1" d="M5.58,17.56A1.59,1.59,0,1,0,4,16,1.58,1.58,0,0,0,5.58,17.56Zm0-2.31a.73.73,0,0,1,0,1.46.73.73,0,1,1,0-1.46Z"/><path class="cls-1" d="M8,3.82H9.47a.43.43,0,0,0,.43-.43A.43.43,0,0,0,9.47,3H8a.43.43,0,0,0-.43.43A.43.43,0,0,0,8,3.82Z"/><path class="cls-1" d="M8,6h6.52A.42.42,0,0,0,15,5.6a.43.43,0,0,0-.42-.43H8a.43.43,0,0,0-.43.43A.43.43,0,0,0,8,6Z"/><path class="cls-1" d="M8,8.1h6.52a.43.43,0,0,0,0-.86H8A.43.43,0,0,0,8,8.1Z"/><path class="cls-1" d="M11.79,9.49H8a.43.43,0,0,0-.43.43.43.43,0,0,0,.43.43h3.77a.43.43,0,0,0,.43-.43A.43.43,0,0,0,11.79,9.49Z"/></g></g></svg>