<svg xmlns="http://www.w3.org/2000/svg" xmlns:xlink="http://www.w3.org/1999/xlink" viewBox="0 0 306.76 249.86"><defs><style>.cls-1,.cls-23,.cls-24{fill:none;}.cls-2,.cls-5{fill:#46c7ce;}.cls-2{opacity:0.25;}.cls-3{fill:#fff;}.cls-4{fill:#fa5;}.cls-6{clip-path:url(#clip-path);}.cls-7{fill:#fb6563;}.cls-8{fill:#ffd371;}.cls-9{fill:#f9a79f;}.cls-10{fill:#f4948e;}.cls-11{fill:#dcdcdc;}.cls-12{fill:#c2c2c2;}.cls-13{fill:#813228;}.cls-14{fill:gray;}.cls-15{fill:#f0cf92;}.cls-16{fill:#e6be7e;}.cls-17{opacity:0.52;}.cls-18{fill:#a9a9a9;}.cls-19{fill:#cc5b54;}.cls-20{fill:#ef8480;}.cls-21{fill:#363638;}.cls-22{fill:#551e17;}.cls-23{stroke:#551e17;stroke-linecap:round;stroke-linejoin:round;stroke-width:1.03px;}.cls-24{stroke:#fb6563;stroke-miterlimit:10;}</style><clipPath id="clip-path" transform="translate(0 0.45)"><path class="cls-1" d="M222.76,127.64H72.61c-5.67,0-10.26-4.32-10.26-9.66V26.72c0-5.33,4.59-9.66,10.26-9.66H222.76c5.66,0,10.26,4.33,10.26,9.66V118C233,123.32,228.42,127.64,222.76,127.64Z"/></clipPath></defs><g id="Layer_2" data-name="Layer 2"><g id="Option_1" data-name="Option 1"><path class="cls-2" d="M146.39.08c86.7-1.76,125.08,25.38,125.08,25.38S328.73,53.6,297.38,130.8C272.44,192.24,179.69,244,133.23,223.24S90.36,175.06,39,136.46-1.28,66.15,7.45,50C7.45,50,34.68,2.35,146.39.08Z" transform="translate(0 0.45)"/><path class="cls-3" d="M236.07,135.51H64.71a11.19,11.19,0,0,1-11.35-11V20.22a11.19,11.19,0,0,1,11.35-11H236.07a11.19,11.19,0,0,1,11.35,11V124.48A11.19,11.19,0,0,1,236.07,135.51Z" transform="translate(0 0.45)"/><path class="cls-4" d="M222.76,127.64H72.61c-5.67,0-10.26-4.32-10.26-9.66V26.72c0-5.33,4.59-9.66,10.26-9.66H222.76c5.66,0,10.26,4.33,10.26,9.66V118C233,123.32,228.42,127.64,222.76,127.64Z" transform="translate(0 0.45)"/><path class="cls-5" d="M242.09,83.6A2,2,0,0,1,240,85.5h0a2,2,0,0,1-2.12-1.9V61.49a2,2,0,0,1,2.12-1.9h0a2,2,0,0,1,2.12,1.9Z" transform="translate(0 0.45)"/><g class="cls-6"><path class="cls-7" d="M126.79-.45C120.61,4,111.35,24.69,111.35,39.69s-5.3,19-9.71,22.94c-2.39,2.15,25.46,7.6,52.05,7.44,22.49-.13,44.19-5.59,45-7,1.76-3.09-10.15-8.82-9.71-27.35.36-15-3.52-22.06-10.58-29.11S126.79-.45,126.79-.45Z" transform="translate(0 0.45)"/><rect class="cls-8" x="86.87" y="86.9" width="127.04" height="101.9" rx="39.7"/><path class="cls-9" d="M139.53,75.39c14.86,11.89,24.8,3.49,35-12.59,12.11-19.11,12.18-38-2.68-49.87a34.49,34.49,0,0,0-48.47,5.37C111.48,33.17,124.66,63.49,139.53,75.39Z" transform="translate(0 0.45)"/></g><path class="cls-10" d="M167.92,86.94S165.44,98,151.21,97.2s-16.54-10.92-16.54-10.92l.5-19.86h31.75Z" transform="translate(0 0.45)"/><path class="cls-7" d="M122.93,52.7c1.23,4.78,4.3,23.16,13.12,27.57s24.74,7.43,32.53.72c10.75-9.26,11.91-29.61,11.91-29.61C180.16,42.78,120.28,42.45,122.93,52.7Z" transform="translate(0 0.45)"/><path class="cls-9" d="M137.48,54.69c.72-4.77,29.66-5.63,29.45,0C166.6,63.62,136.49,61.3,137.48,54.69Z" transform="translate(0 0.45)"/><polygon class="cls-3" points="139.92 62.38 164.95 76.83 139.92 91.28 139.92 62.38"/><path class="cls-11" d="M103.19,183.38A37.39,37.39,0,1,1,65.8,146,37.39,37.39,0,0,1,103.19,183.38Z" transform="translate(0 0.45)"/><path class="cls-12" d="M90.6,183.38a24.8,24.8,0,1,1-24.8-24.8A24.8,24.8,0,0,1,90.6,183.38Z" transform="translate(0 0.45)"/><path class="cls-3" d="M87.64,183.38A21.84,21.84,0,1,1,65.8,161.54,21.84,21.84,0,0,1,87.64,183.38Z" transform="translate(0 0.45)"/><path class="cls-13" d="M83.2,183.38A17.4,17.4,0,1,1,65.8,166,17.4,17.4,0,0,1,83.2,183.38Z" transform="translate(0 0.45)"/><path class="cls-3" d="M84.34,170.35a3.72,3.72,0,0,1-5.24,0h0a3.72,3.72,0,0,1,0-5.24l3.67-3.66a3.69,3.69,0,0,1,5.23,0h0a3.69,3.69,0,0,1,0,5.23Z" transform="translate(0 0.45)"/><rect class="cls-14" x="118.84" y="154.84" width="66.08" height="63.37"/><rect class="cls-14" x="184.92" y="154.84" width="66.08" height="63.37"/><path class="cls-14" d="M187.4,216.49a2.46,2.46,0,0,1-2.48,2.43h0a2.45,2.45,0,0,1-2.47-2.43v-60.7a2.45,2.45,0,0,1,2.47-2.42h0a2.45,2.45,0,0,1,2.48,2.42Z" transform="translate(0 0.45)"/><rect class="cls-15" x="120.88" y="153.24" width="64.05" height="63.08"/><rect class="cls-16" x="184.92" y="153.24" width="64.05" height="63.08"/><rect class="cls-3" x="120.88" y="153.24" width="64.05" height="63.08"/><rect class="cls-11" x="184.92" y="153.24" width="64.05" height="63.08"/><g class="cls-17"><path class="cls-12" d="M181.09,160a1,1,0,0,1-1,1h-52.4a1,1,0,0,1-1-1h0a1,1,0,0,1,1-1h52.4a1,1,0,0,1,1,1Z" transform="translate(0 0.45)"/></g><g class="cls-17"><path class="cls-18" d="M244.94,160a1,1,0,0,1-1,1h-52.4a1,1,0,0,1-1-1h0a1,1,0,0,1,1-1H244a1,1,0,0,1,1,1Z" transform="translate(0 0.45)"/></g><g class="cls-17"><path class="cls-18" d="M244.94,166.18a1,1,0,0,1-1,1h-52.4a1,1,0,0,1-1-1h0a1,1,0,0,1,1-1H244a1,1,0,0,1,1,1Z" transform="translate(0 0.45)"/></g><g class="cls-17"><path class="cls-18" d="M208.36,175.49c0,.54-.14,1-.32,1H190.92c-.18,0-.32-.43-.32-1h0c0-.53.14-1,.32-1H208c.18,0,.32.44.32,1Z" transform="translate(0 0.45)"/></g><g class="cls-17"><path class="cls-12" d="M181.09,165a1,1,0,0,1-1,1h-52.4a1,1,0,0,1-1-1h0a1,1,0,0,1,1-1h52.4a1,1,0,0,1,1,1Z" transform="translate(0 0.45)"/></g><g class="cls-17"><path class="cls-12" d="M181.09,174.58a1,1,0,0,1-1,1h-52.4a1,1,0,0,1-1-1h0a1,1,0,0,1,1-1h52.4a1,1,0,0,1,1,1Z" transform="translate(0 0.45)"/></g><g class="cls-17"><path class="cls-3" d="M181.09,197.49a1,1,0,0,1-1,1h-52.4a1,1,0,0,1-1-1h0a1,1,0,0,1,1-1h52.4a1,1,0,0,1,1,1Z" transform="translate(0 0.45)"/></g><g class="cls-17"><path class="cls-3" d="M181.09,201.76a1,1,0,0,1-1,1h-52.4a1,1,0,0,1-1-1h0a1,1,0,0,1,1-1h52.4a1,1,0,0,1,1,1Z" transform="translate(0 0.45)"/></g><path class="cls-19" d="M176,223.76c-3.57-2.36-17,4.54-20.42,3.56s-2-4.57-2-4.57l7-13a8.34,8.34,0,0,0-3.39-11.3l-11.12-6c-13.4-7.21-22.82-5.09-30,8.32l-12,32.61a4.25,4.25,0,0,0,2,5.21l17,9.11a14,14,0,0,0,14.7-.88,44.45,44.45,0,0,1,4.49-2.9c6.48-3.32,18.43-6.4,27.71-8.91S179.55,226.13,176,223.76Z" transform="translate(0 0.45)"/><path class="cls-19" d="M124.38,201.58c-.88,2.81-2.08,11.33-4.33,10.62l-1.34-6.81c-2.25-.7-5.25,3-4.37.22l12.06-39c.88-2.82,3.42-4.53,5.67-3.82h0c2.25.71,3.36,3.56,2.48,6.37Z" transform="translate(0 0.45)"/><path class="cls-19" d="M139.26,196.07c-1.15,2.71-3.84,4.17-6,3.25h0c-2.17-.92-3-3.86-1.85-6.58l13.24-31.28c1.15-2.71,3.84-4.17,6-3.25h0c2.17.92,3,3.87,1.85,6.58Z" transform="translate(0 0.45)"/><path class="cls-19" d="M157.47,212.94c-1.92,2.24-4.92,2.81-6.71,1.27h0c-1.8-1.53-1.69-4.59.22-6.83l22.1-25.8c1.91-2.23,4.92-2.81,6.71-1.27h0c1.79,1.53,1.69,4.59-.23,6.83Z" transform="translate(0 0.45)"/><path class="cls-19" d="M152.62,197.93c-1.43,2.58-4.26,3.74-6.32,2.61h0c-2.07-1.15-2.58-4.16-1.16-6.74l16.43-29.73c1.43-2.58,4.26-3.74,6.32-2.6h0c2.07,1.14,2.58,4.15,1.16,6.73Z" transform="translate(0 0.45)"/><path class="cls-20" d="M132.89,168.65a2.53,2.53,0,1,1-1-3.42A2.53,2.53,0,0,1,132.89,168.65Z" transform="translate(0 0.45)"/><path class="cls-20" d="M150.91,164.23a2.53,2.53,0,1,1-1-3.42A2.52,2.52,0,0,1,150.91,164.23Z" transform="translate(0 0.45)"/><path class="cls-20" d="M167.75,167.34a2.53,2.53,0,1,1-1-3.42A2.53,2.53,0,0,1,167.75,167.34Z" transform="translate(0 0.45)"/><path class="cls-20" d="M178.76,185.38a2.52,2.52,0,1,1-1-3.42A2.52,2.52,0,0,1,178.76,185.38Z" transform="translate(0 0.45)"/><path class="cls-19" d="M240.38,183.74c5.85-9.55,28.67-25.27,28.53-20-.58,22.42,15,27.68,14.33,31.3s-10.09,19.26-14.76,19.46S235.19,192.22,240.38,183.74Z" transform="translate(0 0.45)"/><path class="cls-19" d="M252.8,199.46c-7,.39-26.69-8.05-28.14-13.29-2.61-9.38-5.24-18-.19-18.73s8.34,7.28,8.73,11.54,12.61,5.54,12.61,5.54Z" transform="translate(0 0.45)"/><path class="cls-19" d="M242.71,181c1.94-5,4.75-12.32,1.07-21.44s-8.35.48-13.4.87-5.82-8.83,4.66-12.32,13.49-2.33,17.37,3.1,6.6,22.42,6.6,22.42Z" transform="translate(0 0.45)"/><path class="cls-19" d="M267,171.51c-.78-4.27-4.32-13.37-5.73-21.25-1.26-7.08-5.33-8.93-19-8.54-10.44.3-5.82,7-3.1,7s12.61-1.07,14.36,4.56c1.51,4.87,3.4,22.42,3.4,22.42Z" transform="translate(0 0.45)"/><path class="cls-19" d="M266.58,178.31c0-5.44,4.46-19.7,2.91-23.58s-7.28-14.17-10.77-12.33C256,143.85,261,154.73,261,158.22S259,174.13,259,174.13Z" transform="translate(0 0.45)"/><rect class="cls-5" x="206.22" y="151.33" width="70.64" height="6.5" transform="translate(-45.23 154.54) rotate(-32.52)"/><path class="cls-21" d="M210,170.83l3.5,5.48-4.93,0a.69.69,0,0,1-.64-1Z" transform="translate(0 0.45)"/><path class="cls-20" d="M227.6,173.88a2.53,2.53,0,1,1-1-3.42A2.52,2.52,0,0,1,227.6,173.88Z" transform="translate(0 0.45)"/><path class="cls-20" d="M230,156.24c-.66,1.22-1.74,1.92-2.41,1.56s-.69-1.65,0-2.88,1.74-1.93,2.42-1.56S230.68,155,230,156.24Z" transform="translate(0 0.45)"/><path class="cls-20" d="M174.19,231.21c-1.87.64-3.73.15-4.15-1.08s.76-2.76,2.63-3.39,3.72-.16,4.15,1.08S176.06,230.57,174.19,231.21Z" transform="translate(0 0.45)"/><path class="cls-20" d="M239.08,145.4c-1.39,0-2.53-.57-2.55-1.33s1.1-1.41,2.49-1.44,2.54.56,2.55,1.33S240.47,145.37,239.08,145.4Z" transform="translate(0 0.45)"/><path class="cls-21" d="M274.05,136a3.39,3.39,0,1,1-3.39-3.38A3.39,3.39,0,0,1,274.05,136Z" transform="translate(0 0.45)"/><path class="cls-22" d="M142.76,34.72c0,2.36-1.15,4.28-2.56,4.28s-2.56-1.92-2.56-4.28,1.14-4.28,2.56-4.28S142.76,32.36,142.76,34.72Z" transform="translate(0 0.45)"/><path class="cls-22" d="M165.91,34.72c0,2.36-1.15,4.28-2.56,4.28s-2.56-1.92-2.56-4.28,1.14-4.28,2.56-4.28S165.91,32.36,165.91,34.72Z" transform="translate(0 0.45)"/><path class="cls-23" d="M130.88,25.81s3.79-6.25,11.88-4" transform="translate(0 0.45)"/><path class="cls-23" d="M156.69,21.71s5.84-5.33,11.57.51" transform="translate(0 0.45)"/><path class="cls-24" d="M151.57,28.06s2.76,7.07,5.12,11.47-4.61,6.35-4.61,6.35" transform="translate(0 0.45)"/><path class="cls-24" d="M142.29,53.79s5.71,5.54,13.05,2.15" transform="translate(0 0.45)"/></g></g></svg>