<svg xmlns="http://www.w3.org/2000/svg" viewBox="0 0 45.08 43.45"><defs><style>.cls-1{fill:#fa5;}</style></defs><g id="Layer_2" data-name="Layer 2"><g id="Option_1" data-name="Option 1"><path class="cls-1" d="M42.47,2.64H23.26V.72a.72.72,0,0,0-1.44,0V2.64H2.62a2.62,2.62,0,0,0,0,5.24h.53V31.27a.72.72,0,0,0,.72.72h18v2.52l-7.41,7.41a.72.72,0,0,0,0,1,.75.75,0,0,0,.51.21.71.71,0,0,0,.51-.21l6.39-6.39v6.18a.72.72,0,1,0,1.44,0V36.61l6.33,6.33a.71.71,0,0,0,.51.21.72.72,0,0,0,.51-1.23l-7.35-7.35V32H41.09a.72.72,0,0,0,.72-.72V7.88h.66a2.62,2.62,0,0,0,0-5.24Zm-2.1,27.91H4.59V7.88H40.37Zm2.1-24.12H2.62a1.18,1.18,0,1,1,0-2.35H42.47a1.18,1.18,0,0,1,0,2.35Z"/><path class="cls-1" d="M14.92,26.24a7.42,7.42,0,1,0-7.41-7.42A7.43,7.43,0,0,0,14.92,26.24Zm.72-13.35a6,6,0,0,1,5.22,5.21H15.64Zm-1.44,0v5.93a.72.72,0,0,0,.72.72h5.94a6,6,0,1,1-6.66-6.65Z"/><path class="cls-1" d="M26.39,15h10a.72.72,0,0,0,0-1.44h-10a.72.72,0,1,0,0,1.44Z"/><path class="cls-1" d="M26.39,19.54h10a.72.72,0,0,0,0-1.44h-10a.72.72,0,0,0,0,1.44Z"/><path class="cls-1" d="M26.39,24.11h10a.72.72,0,0,0,0-1.44h-10a.72.72,0,0,0,0,1.44Z"/></g></g></svg>