<svg xmlns="http://www.w3.org/2000/svg" viewBox="0 0 43.8 40.83"><defs><style>.cls-1{fill:#75c189;}</style></defs><g id="Layer_2" data-name="Layer 2"><g id="Option_1" data-name="Option 1"><path class="cls-1" d="M11.28,18.27a2.82,2.82,0,1,0-2.82-2.82A2.82,2.82,0,0,0,11.28,18.27Zm-1.5-2.82a1.5,1.5,0,1,1,1.5,1.5A1.5,1.5,0,0,1,9.78,15.45Z"/><path class="cls-1" d="M4.2,18.27a2.82,2.82,0,1,0-2.82-2.82A2.82,2.82,0,0,0,4.2,18.27ZM2.7,15.45A1.5,1.5,0,1,1,4.2,17,1.5,1.5,0,0,1,2.7,15.45Z"/><path class="cls-1" d="M18.36,18.27a2.82,2.82,0,1,0-2.82-2.82A2.82,2.82,0,0,0,18.36,18.27Zm-1.5-2.82a1.5,1.5,0,1,1,1.5,1.5A1.5,1.5,0,0,1,16.86,15.45Z"/><path class="cls-1" d="M32.52,18.27a2.82,2.82,0,1,0-2.82-2.82A2.82,2.82,0,0,0,32.52,18.27ZM31,15.45a1.5,1.5,0,1,1,1.5,1.5A1.5,1.5,0,0,1,31,15.45Z"/><path class="cls-1" d="M25.44,18.27a2.82,2.82,0,1,0-2.82-2.82A2.82,2.82,0,0,0,25.44,18.27Zm-1.5-2.82a1.5,1.5,0,1,1,1.5,1.5A1.5,1.5,0,0,1,23.94,15.45Z"/><path class="cls-1" d="M39.6,18.27a2.82,2.82,0,1,0-2.82-2.82A2.82,2.82,0,0,0,39.6,18.27Zm-1.5-2.82A1.5,1.5,0,1,1,39.6,17,1.5,1.5,0,0,1,38.1,15.45Z"/><path class="cls-1" d="M42.55,20.26a4.21,4.21,0,0,0-2.95-1.2A4.28,4.28,0,0,0,36.06,21,4.24,4.24,0,0,0,29,21a4.23,4.23,0,0,0-6.49-.71,4.36,4.36,0,0,0-.59.71,4.36,4.36,0,0,0-.59-.71,4.23,4.23,0,0,0-2.95-1.2A4.28,4.28,0,0,0,14.82,21a4.24,4.24,0,0,0-7.08,0,4.23,4.23,0,0,0-6.49-.71A4,4,0,0,0,0,23.17v2a.67.67,0,0,0,.66.66H43.14a.66.66,0,0,0,.66-.66v-2A4,4,0,0,0,42.55,20.26Zm-.07,2.91V24.5H36.72V23.17a2.88,2.88,0,0,1,5.76,0Zm-7.08,0V24.5H29.64V23.17a2.88,2.88,0,0,1,5.76,0ZM1.32,24.5V23.17a2.88,2.88,0,0,1,5.76,0V24.5Zm7.08,0V23.17a2.88,2.88,0,0,1,5.76,0V24.5Zm14.16-1.33a2.88,2.88,0,0,1,5.76,0V24.5H22.56ZM15.48,24.5V23.17a2.88,2.88,0,0,1,5.76,0V24.5Z"/><path class="cls-1" d="M14.1,30.46a2.82,2.82,0,1,0-2.82,2.82A2.82,2.82,0,0,0,14.1,30.46Zm-1.32,0A1.5,1.5,0,1,1,11.28,29,1.5,1.5,0,0,1,12.78,30.46Z"/><path class="cls-1" d="M7,30.46A2.82,2.82,0,1,0,4.2,33.28,2.82,2.82,0,0,0,7,30.46Zm-1.32,0A1.5,1.5,0,1,1,4.2,29,1.5,1.5,0,0,1,5.7,30.46Z"/><path class="cls-1" d="M21.18,30.46a2.82,2.82,0,1,0-2.82,2.82A2.82,2.82,0,0,0,21.18,30.46Zm-4.32,0a1.5,1.5,0,1,1,1.5,1.5A1.5,1.5,0,0,1,16.86,30.46Z"/><path class="cls-1" d="M35.34,30.46a2.82,2.82,0,1,0-2.82,2.82A2.82,2.82,0,0,0,35.34,30.46Zm-4.32,0a1.5,1.5,0,1,1,1.5,1.5A1.5,1.5,0,0,1,31,30.46Z"/><path class="cls-1" d="M28.26,30.46a2.82,2.82,0,1,0-2.82,2.82A2.82,2.82,0,0,0,28.26,30.46Zm-4.32,0a1.5,1.5,0,1,1,1.5,1.5A1.5,1.5,0,0,1,23.94,30.46Z"/><path class="cls-1" d="M42.42,30.46a2.82,2.82,0,1,0-2.82,2.82A2.82,2.82,0,0,0,42.42,30.46Zm-1.32,0A1.5,1.5,0,1,1,39.6,29,1.5,1.5,0,0,1,41.1,30.46Z"/><path class="cls-1" d="M39.6,34.07A4.28,4.28,0,0,0,36.06,36,4.24,4.24,0,0,0,29,36a4.23,4.23,0,0,0-6.49-.71,4.36,4.36,0,0,0-.59.71,4.36,4.36,0,0,0-.59-.71,4.23,4.23,0,0,0-2.95-1.2A4.28,4.28,0,0,0,14.82,36a4.24,4.24,0,0,0-7.08,0,4.23,4.23,0,0,0-6.49-.71A4,4,0,0,0,0,38.18v2a.67.67,0,0,0,.66.66H43.14a.66.66,0,0,0,.66-.66v-2a4,4,0,0,0-1.25-2.91A4.21,4.21,0,0,0,39.6,34.07Zm2.88,4.11v1.33H36.72V38.18a2.88,2.88,0,0,1,5.76,0Zm-7.08,0v1.33H29.64V38.18a2.88,2.88,0,0,1,5.76,0ZM1.32,39.51V38.18a2.88,2.88,0,0,1,5.76,0v1.33Zm7.08,0V38.18a2.88,2.88,0,0,1,5.76,0v1.33Zm14.16-1.33a2.88,2.88,0,0,1,5.76,0v1.33H22.56Zm-7.08,1.33V38.18a2.88,2.88,0,0,1,5.76,0v1.33Z"/><path class="cls-1" d="M13.38,0H6.72a2.3,2.3,0,0,0-2.3,2.3V7.18A2.29,2.29,0,0,0,6.36,9.46L6,11.22a.85.85,0,0,0,.43.89.91.91,0,0,0,.4.1A.81.81,0,0,0,7.44,12l2.63-2.49h3.31a2.31,2.31,0,0,0,2.3-2.31V2.3A2.3,2.3,0,0,0,13.38,0ZM7.74,9.21a.85.85,0,0,0-.19-.72.87.87,0,0,0-.68-.32H6.72a1,1,0,0,1-1-1V2.3a1,1,0,0,1,1-1h6.66a1,1,0,0,1,1,1V7.18a1,1,0,0,1-1,1H10a1.14,1.14,0,0,0-.82.33L7.6,10Z"/><path class="cls-1" d="M36.39.67A2.29,2.29,0,0,0,34.77,0H28.1a2.31,2.31,0,0,0-2.3,2.3V7.18a2.3,2.3,0,0,0,1.95,2.28l-.32,1.76a.85.85,0,0,0,.43.89.9.9,0,0,0,.39.1.83.83,0,0,0,.58-.23l2.63-2.49h3.31a2.31,2.31,0,0,0,2.3-2.31V2.3A2.29,2.29,0,0,0,36.39.67ZM29.13,9.21a.85.85,0,0,0-.19-.72.87.87,0,0,0-.68-.32H28.1a1,1,0,0,1-1-1V2.3a1,1,0,0,1,1-1h6.67a1,1,0,0,1,1,1V7.18a1,1,0,0,1-1,1H31.41a1.14,1.14,0,0,0-.82.33L29,10Z"/><circle class="cls-1" cx="7.77" cy="4.73" r="0.71"/><circle class="cls-1" cx="10.04" cy="4.73" r="0.71"/><circle class="cls-1" cx="12.33" cy="4.73" r="0.71"/><circle class="cls-1" cx="29.16" cy="4.73" r="0.71"/><circle class="cls-1" cx="31.43" cy="4.73" r="0.71"/><circle class="cls-1" cx="33.72" cy="4.73" r="0.71"/></g></g></svg>