<svg xmlns="http://www.w3.org/2000/svg" viewBox="0 0 40 39.81"><defs><style>.cls-1{fill:#fa5;}</style></defs><g id="Layer_2" data-name="Layer 2"><g id="Option_1" data-name="Option 1"><path class="cls-1" d="M32,29.54A6.56,6.56,0,0,0,26.2,33a6.52,6.52,0,0,0-11.54,0,6.53,6.53,0,0,0-5.77-3.48,6.44,6.44,0,0,0-6.47,6.33v3.24a.7.7,0,0,0,.7.7H37.74a.7.7,0,0,0,.71-.7V35.87A6.45,6.45,0,0,0,32,29.54ZM14,38.4H3.83V35.87a5.07,5.07,0,0,1,10.13,0Zm11.54,0H15.37V35.87a5.07,5.07,0,0,1,10.13,0ZM37,38.4H26.91V35.87a5.07,5.07,0,0,1,10.13,0Z"/><path class="cls-1" d="M28.68,7.87l-7.8-3.32a1.17,1.17,0,0,0-.9,0l-7.8,3.32A1.24,1.24,0,0,0,11.44,9v4.38a.78.78,0,0,0,.78.78.77.77,0,0,0,.77-.78V10.54l1.61.68v3.7a.6.6,0,0,0,.06.27v0a1.43,1.43,0,0,0,.14.2v0a.72.72,0,0,0,.25.18L18.22,17a5.68,5.68,0,0,0,4.43,0l3.14-1.33a.64.64,0,0,0,.25-.18l0,0c.05-.06.09-.13.14-.2v0a1.07,1.07,0,0,0,.06-.27v-3.7l2.42-1a1.28,1.28,0,0,0,0-2.33Zm-6.63,7.64a4.16,4.16,0,0,1-3.23,0l-2.66-1.13V11.89L20,13.51a1.17,1.17,0,0,0,.9,0l3.83-1.62v2.49ZM20.43,12l-7-3,7-3,7,3Z"/><path class="cls-1" d="M38.09,0H1.91A1.86,1.86,0,0,0,0,1.81v23A1.86,1.86,0,0,0,1.91,26.6H5.33a4.21,4.21,0,0,0,7.12,0h4.22l.19,0a4.21,4.21,0,0,0,7.13,0h4.22l.19,0a4.21,4.21,0,0,0,7.13,0h2.56A1.86,1.86,0,0,0,40,24.79v-23A1.86,1.86,0,0,0,38.09,0ZM8.89,27.15a2.82,2.82,0,1,1,2.82-2.82A2.81,2.81,0,0,1,8.89,27.15Zm11.54,0a2.82,2.82,0,1,1,2.82-2.82A2.81,2.81,0,0,1,20.43,27.15Zm11.54,0a2.82,2.82,0,1,1,2.82-2.82A2.81,2.81,0,0,1,32,27.15Zm6.56-2.36a.41.41,0,0,1-.44.34h-2a4.17,4.17,0,0,0,.08-.8,4.23,4.23,0,0,0-8.45,0,4.17,4.17,0,0,0,.08.8H24.58a4.18,4.18,0,0,0,.07-.8,4.22,4.22,0,0,0-8.44,0,4.17,4.17,0,0,0,.08.8H13a4.18,4.18,0,0,0,.07-.8,4.22,4.22,0,0,0-8.44,0,4.17,4.17,0,0,0,.08.8H1.91c-.23,0-.44-.16-.44-.34v-23c0-.18.21-.34.44-.34H38.09a.41.41,0,0,1,.44.34Z"/></g></g></svg>