<svg xmlns="http://www.w3.org/2000/svg" viewBox="0 0 49.27 38.24"><defs><style>.cls-1{fill:#fa5;}</style></defs><g id="Layer_2" data-name="Layer 2"><g id="Option_1" data-name="Option 1"><path class="cls-1" d="M38.86,30.06a12.25,12.25,0,0,0,5.37-5.56l.22-.47h4a.81.81,0,0,0,.81-.81v-9.5a.81.81,0,0,0-.71-.81h0l-4.46-.57L43.9,12a11.44,11.44,0,0,0-2.19-2.83l-.32-.31L42.91,1a.77.77,0,0,0-.16-.65.79.79,0,0,0-.6-.31c-5.27-.27-8,2.22-9.35,4.36l-.3.46L32,4.74A49.3,49.3,0,0,0,22.82,4,19.54,19.54,0,0,0,11.11,7.43a13.29,13.29,0,0,0-5.43,9.64l-.07.73H4.16a2.54,2.54,0,0,1-2.54-2.54v-2.5a.82.82,0,0,0-.81-.82.82.82,0,0,0-.81.82v2.5a4.17,4.17,0,0,0,4.16,4.16H5.62l.07.72a13.33,13.33,0,0,0,5,9.23l.25.2,1.13,8a.81.81,0,0,0,.8.69h7.47a.81.81,0,0,0,.81-.81V33.11l.83,0c1.24,0,3.54,0,5.56-.16l.86-.06v4.52a.81.81,0,0,0,.81.81h7.47a.8.8,0,0,0,.8-.69l1-7.29Zm-4-25.8a7.78,7.78,0,0,1,5.17-2.57l1.08-.12L40,7.7l-1-.55a18.67,18.67,0,0,0-3.72-1.59l-1.17-.37ZM37.41,29a.83.83,0,0,0-.45.61l-1,7H30V32a.8.8,0,0,0-.28-.61.84.84,0,0,0-.63-.2,47,47,0,0,1-8.7.21.82.82,0,0,0-.63.21.81.81,0,0,0-.26.6v4.41h-6L12.48,29a.8.8,0,0,0-.33-.54,12,12,0,0,1-4.92-9.9A11.87,11.87,0,0,1,11.55,9.1c2.78-2.28,6.67-3.49,11.27-3.49A41.31,41.31,0,0,1,34.19,6.93c4.34,1.26,7.24,3.44,8.62,6.5a.83.83,0,0,0,.64.47l4.2.53v8H43.88a.81.81,0,0,0-.76.54A10.68,10.68,0,0,1,37.41,29Z"/><path class="cls-1" d="M26.71,12.55a.81.81,0,0,0,0-1.62H19.5a.81.81,0,1,0,0,1.62Z"/><circle class="cls-1" cx="37.64" cy="14.51" r="1.09"/></g></g></svg>