<svg xmlns="http://www.w3.org/2000/svg" viewBox="0 0 31 31"><defs><style>.cls-1{fill:#46c7ce;}</style></defs><g id="Layer_2" data-name="Layer 2"><g id="Option_1" data-name="Option 1"><path class="cls-1" d="M15.5,31A15.5,15.5,0,1,1,31,15.5,15.51,15.51,0,0,1,15.5,31Zm0-29.82A14.32,14.32,0,1,0,29.82,15.5,14.33,14.33,0,0,0,15.5,1.18Z"/><path class="cls-1" d="M25.72,19.19H5.28a.6.6,0,0,1-.59-.59V12.4a.6.6,0,0,1,.59-.59H25.72a.6.6,0,0,1,.59.59v6.2A.6.6,0,0,1,25.72,19.19ZM5.87,18H25.13V13H5.87Z"/></g></g></svg>