<svg xmlns="http://www.w3.org/2000/svg" viewBox="0 0 50.51 50.27"><defs><style>.cls-1{fill:#46c7ce;}</style></defs><g id="Layer_2" data-name="Layer 2"><g id="Option_1" data-name="Option 1"><path class="cls-1" d="M40.37,37.29a8.28,8.28,0,0,0-7.29,4.4,8.23,8.23,0,0,0-14.57,0,8.26,8.26,0,0,0-7.28-4.4,8.15,8.15,0,0,0-8.18,8v4.09a.89.89,0,0,0,.89.89H47.66a.88.88,0,0,0,.88-.89V45.29A8.14,8.14,0,0,0,40.37,37.29ZM17.62,48.49H4.83v-3.2a6.4,6.4,0,0,1,12.79,0Zm14.58,0H19.4v-3.2a6.4,6.4,0,0,1,12.8,0Zm14.57,0H34v-3.2a6.4,6.4,0,0,1,12.8,0Z"/><path class="cls-1" d="M48.1,0H2.42A2.36,2.36,0,0,0,0,2.29v29a2.36,2.36,0,0,0,2.42,2.29H6.74a5.33,5.33,0,0,0,9,0h5.33l.24,0a5.33,5.33,0,0,0,9,0h5.33l.24,0a5.33,5.33,0,0,0,9,0H48.1a2.36,2.36,0,0,0,2.41-2.29v-29A2.36,2.36,0,0,0,48.1,0ZM11.23,34.28a3.56,3.56,0,1,1,3.55-3.56A3.57,3.57,0,0,1,11.23,34.28Zm14.57,0a3.56,3.56,0,1,1,3.55-3.56A3.57,3.57,0,0,1,25.8,34.28Zm0-8.89a5.33,5.33,0,0,0-5.33,5.33,5.58,5.58,0,0,0,.09,1h-4a9.3,9.3,0,0,1,18.49-.57c0,.12,0,.24,0,.36a1.48,1.48,0,0,0,0,.21H31a4.81,4.81,0,0,0,.1-1A5.33,5.33,0,0,0,25.8,25.39Zm14.57,8.89a3.56,3.56,0,1,1,3.55-3.56A3.56,3.56,0,0,1,40.37,34.28Zm8.28-3a.52.52,0,0,1-.55.43H45.6a4.81,4.81,0,0,0,.1-1,5.32,5.32,0,0,0-9.84-2.82A11,11,0,0,0,15.79,28,5.32,5.32,0,0,0,5.9,30.72a5.58,5.58,0,0,0,.09,1H2.42a.52.52,0,0,1-.56-.43v-29a.52.52,0,0,1,.56-.43H48.1a.52.52,0,0,1,.55.43Z"/><path class="cls-1" d="M25.84,4.66a7.68,7.68,0,1,0,7.68,7.68A7.68,7.68,0,0,0,25.84,4.66Zm0,13.52a5.84,5.84,0,1,1,5.85-5.84A5.85,5.85,0,0,1,25.84,18.18Z"/></g></g></svg>