<svg xmlns="http://www.w3.org/2000/svg" viewBox="0 0 39 41.49"><defs><style>.cls-1{fill:#fa5;}</style></defs><g id="Layer_2" data-name="Layer 2"><g id="Option_1" data-name="Option 1"><path class="cls-1" d="M19.48,7.65h0a3.83,3.83,0,1,0-3.82-3.82A3.83,3.83,0,0,0,19.48,7.65Zm0-6.23a2.41,2.41,0,1,1-2.4,2.41A2.41,2.41,0,0,1,19.48,1.42Z"/><path class="cls-1" d="M14.81,16.89h9.34a.67.67,0,0,0,.68-.67v-2.7a5.35,5.35,0,1,0-10.69,0v2.7A.67.67,0,0,0,14.81,16.89Zm.67-3.37a4,4,0,0,1,8,0v2h-8Z"/><path class="cls-1" d="M3.86,34.46h0A2.83,2.83,0,1,0,1,31.64,2.84,2.84,0,0,0,3.86,34.46Zm0-4.27a1.45,1.45,0,1,1-1.44,1.45A1.45,1.45,0,0,1,3.86,30.19Z"/><path class="cls-1" d="M3.86,35.11A3.86,3.86,0,0,0,0,39v1.86a.67.67,0,0,0,.66.66h6.4a.67.67,0,0,0,.67-.66V39A3.87,3.87,0,0,0,3.86,35.11ZM6.4,40.17H1.33V39A2.54,2.54,0,0,1,6.4,39Z"/><path class="cls-1" d="M16.66,31.64a2.83,2.83,0,0,0,2.82,2.82h0a2.83,2.83,0,1,0-2.82-2.82Zm4.27,0a1.45,1.45,0,1,1-1.45-1.45A1.45,1.45,0,0,1,20.93,31.64Z"/><path class="cls-1" d="M19.48,35.11A3.86,3.86,0,0,0,15.62,39v1.86a.67.67,0,0,0,.66.66h6.4a.67.67,0,0,0,.67-.66V39A3.87,3.87,0,0,0,19.48,35.11ZM22,40.17H16.94V39A2.54,2.54,0,0,1,22,39Z"/><path class="cls-1" d="M32.31,31.64a2.83,2.83,0,0,0,2.83,2.82h0a2.83,2.83,0,1,0-2.83-2.82Zm4.27,0a1.45,1.45,0,1,1-1.44-1.45A1.45,1.45,0,0,1,36.58,31.64Z"/><path class="cls-1" d="M35.14,35.11A3.87,3.87,0,0,0,31.27,39v1.86a.67.67,0,0,0,.67.66h6.4a.67.67,0,0,0,.66-.66V39A3.86,3.86,0,0,0,35.14,35.11Zm2.53,5.06H32.6V39a2.54,2.54,0,0,1,5.07,0Z"/><path class="cls-1" d="M3.67,27.25a.61.61,0,0,0,.63-.62V23.51H18.81v3.12a.63.63,0,0,0,1.26,0V23.51H34.58v3.12a.64.64,0,0,0,1.27,0V22.85a.61.61,0,0,0-.21-.47.66.66,0,0,0-.53-.14h-15V18.81a.63.63,0,0,0-1.26,0v3.43H3.66a.65.65,0,0,0-.63.63v3.76A.61.61,0,0,0,3.67,27.25Z"/></g></g></svg>