<svg xmlns="http://www.w3.org/2000/svg" viewBox="0 0 183.32 147.37"><defs><style>.cls-1{fill:#f7f7f7;}</style></defs><g id="Layer_2" data-name="Layer 2"><g id="Option_1" data-name="Option 1"><path class="cls-1" d="M168.89,120.42c31.1-30.25,2.24-48.37,2.24-48.37a39.34,39.34,0,0,1-13.06-16.57c-5.79-13.63,2.85-30.62-4-43.66C149,2.22,137.4-.94,127.52.23s-19.11,5.58-29,7c-11.79,1.69-23.83-1-35.73-2.76S38.4,1.87,27.59,7,8.41,24.86,11.05,37.69c1.18,5.79,4.46,11.36,3.75,17.16-1.1,9-10.87,13.27-13.9,21.6-3,8.15,1.94,17.1,6.64,24.56,19.08,30.27,51,41.78,76.59,45.63C84.13,146.64,134.1,154.26,168.89,120.42Z"/></g></g></svg>