<svg xmlns="http://www.w3.org/2000/svg" viewBox="0 0 48.6 30.83"><defs><style>.cls-1{fill:#fa5;}</style></defs><g id="Layer_2" data-name="Layer 2"><g id="Option_1" data-name="Option 1"><path class="cls-1" d="M38.86,11.34a10.74,10.74,0,0,0-1.14.06A8.17,8.17,0,0,0,30,5.67h0a7.8,7.8,0,0,0-2.58.43A10.54,10.54,0,0,0,7.25,10.55a10.09,10.09,0,0,0,.31,2.51A8.94,8.94,0,0,0,8.9,30.83h30a9.75,9.75,0,0,0,0-19.49ZM8.68,14.64a.82.82,0,0,0,.67-.36.83.83,0,0,0,.09-.75A8.87,8.87,0,0,1,26.12,7.47a.85.85,0,0,0,1.14.47A6.37,6.37,0,0,1,30,7.34a6.49,6.49,0,0,1,6.32,5.18.88.88,0,0,0,.36.53.83.83,0,0,0,.63.12,8.51,8.51,0,0,1,1.6-.16,8.07,8.07,0,0,1,0,16.14h-30a7.26,7.26,0,0,1-.18-14.51Z"/><path class="cls-1" d="M28.81,19.7a.86.86,0,0,0-.6-.25.84.84,0,0,0-.6.25l-2.82,2.81V12.83a.85.85,0,1,0-1.7,0v9.68L20.28,19.7a.86.86,0,0,0-.6-.25.85.85,0,0,0-.85.85.86.86,0,0,0,.25.6l4.26,4.26a.84.84,0,0,0,1.2,0l4.27-4.26a.85.85,0,0,0,.24-.6A.83.83,0,0,0,28.81,19.7Z"/></g></g></svg>