<svg xmlns="http://www.w3.org/2000/svg" viewBox="0 0 589.82 150.59"><defs><style>.cls-1{isolation:isolate;}.cls-2{fill:#eaeaea;mix-blend-mode:multiply;}.cls-3{fill:#4ec0c4;}.cls-4{fill:#231f20;}.cls-5{fill:#2d74b5;}.cls-6{fill:#282733;}.cls-7{fill:#ec9992;}.cls-8{fill:#ffab4b;}.cls-9{fill:#323340;}.cls-10{fill:#db8038;}.cls-11{fill:#fff;}.cls-12{fill:#ee81ab;}.cls-13{fill:#dd769e;}.cls-14{fill:#fc8c6f;}.cls-15,.cls-23{fill:none;stroke:#0d0000;stroke-miterlimit:10;}.cls-15{stroke-width:0.49px;}.cls-16{fill:#72462c;}.cls-17{fill:#283d50;}.cls-18{fill:#835033;}.cls-19{fill:#9a5e3c;}.cls-20{fill:#431b16;}.cls-21{fill:#ef8f79;}.cls-22{fill:#0d0000;}.cls-23{stroke-width:0.32px;}.cls-24{fill:#e5715e;}.cls-25{fill:#314b62;}</style></defs><g class="cls-1"><g id="Layer_2" data-name="Layer 2"><g id="Layer_11" data-name="Layer 11"><ellipse class="cls-2" cx="558.37" cy="144.92" rx="31.45" ry="5.39"/><ellipse class="cls-2" cx="69.78" cy="145.22" rx="69.05" ry="5.37"/><path class="cls-3" d="M113.85,78.24c-1.12-12-7.93-25.25-16.86-33-6.5-5.63-16-8.29-24.47-8.64A55.08,55.08,0,0,0,50.44,41.1C43,44.64,37.29,54.61,34.28,62.46c-7.94,20.74-5.66,38.92-2.69,61a25.1,25.1,0,0,0,3,8.62,15.05,15.05,0,0,0,10.75,8c10.27,2.14,18.75-1.13,29.21-.51a150.11,150.11,0,0,0,21.31.25c6.1-.52,12.71-2.12,16.43-7.17,2.86-3.89,3.43-9.05,3.69-13.93C116.67,105.07,113.85,78.24,113.85,78.24Z"/><path class="cls-4" d="M111.15,90c-8.33-.21-16.66-.45-25-.63-4-.09-8.07-.1-12.1,0-3.76.11-7.53.26-11.29.15a39.47,39.47,0,0,1-11.53-1.77c-.19-.07-.11-.35.08-.29,6.84,2.32,14.37,1.87,21.48,1.65,8.12-.25,16.23,0,24.34.21l14,.36a.15.15,0,0,1,0,.3Z"/><path class="cls-5" d="M77.64,22.47c.33-.49-3.32-5.41-4.85-5.9A7.78,7.78,0,0,0,63,21.67a10.45,10.45,0,0,1-.61,1.84,1.83,1.83,0,0,1-1.52,1.06c-.88,0-1.49-.86-2.31-1.19a2.61,2.61,0,0,0-2.39.38,5.44,5.44,0,0,0-1.58,1.94A4.82,4.82,0,0,1,52.79,28a4.58,4.58,0,0,1-3-.18c-1-.26-2.22-.36-2.92.41s-.55,1.58-.93,2.33a3.62,3.62,0,0,1-3.55,1.59,4.12,4.12,0,0,0-1.68.05,2.65,2.65,0,0,0-1.46,2.23c-.46,3,1.35,6,3.87,7.73a18.25,18.25,0,0,0,8.63,2.6,21.93,21.93,0,0,0,7.14-.3,10.77,10.77,0,0,0,6-3.62c1.46-1.84,2.22-4.35,4.26-5.52,1.29-.74,2.85-.79,4.21-1.39a10.28,10.28,0,0,0,2.19-1.45A6.25,6.25,0,0,0,77.68,30c1-2.53-.53-4.85,0-7.51"/><path class="cls-4" d="M76.37,24.67a1.22,1.22,0,0,1,1.4.54,3.14,3.14,0,0,1,.47,1.73,3.55,3.55,0,0,1-.41,1.83,1.49,1.49,0,0,1-1.37.82,1.64,1.64,0,0,1-1.18-.95A4.21,4.21,0,0,1,74.85,27a3.16,3.16,0,0,1,.24-1.86.93.93,0,0,1,1.39-.43"/><path class="cls-6" d="M59.18,83c3.54,8.77,10,6.44,13.15,6.75,4.93.5,9.87,1,14.75,1.87,1.54,2.8,1.81,6.1,2,9.3q1,14.09,2.08,28.19c1.73.88,5.75,0,7.68-.18.79-7.51,3.09-36.45,2.48-38.39a14.94,14.94,0,0,0-1.77-3.44q-2-3.24-4.09-6.46a11.25,11.25,0,0,0-3.16-3.68,11.36,11.36,0,0,0-4-1.33c-2.21-.44-9.63-1.69-11.84-2.13"/><path class="cls-7" d="M75.27,21.88c.63,2.61,1.24,5.4.32,7.92a3.36,3.36,0,0,1-1.25,1.76,3,3,0,0,1-2.09.34A5.77,5.77,0,0,1,68.36,29,11.32,11.32,0,0,1,67,24.23c-.14-1.68,0-3.6,1.35-4.64A4.85,4.85,0,0,1,71,18.75a4.2,4.2,0,0,1,2.6.44,3.9,3.9,0,0,1,1.47,3.07"/><path class="cls-7" d="M73.65,31.51a20.6,20.6,0,0,1,.57,4.29,12.34,12.34,0,0,1,2.76.4l3.86.88a10.5,10.5,0,0,1,2.53.8,3.62,3.62,0,0,1,1.8,1.88c-.44,1.34-2.09,1.76-3.49,1.92a115.74,115.74,0,0,1-13.3.57,28.52,28.52,0,0,1-5.77-.37A14.26,14.26,0,0,1,58,40a2.45,2.45,0,0,1,1.11-1.71A6.7,6.7,0,0,1,61,37.51a41.33,41.33,0,0,1,9.43-1.58,18.53,18.53,0,0,0-.15-5.66,8.84,8.84,0,0,0,3.55,1"/><path class="cls-5" d="M74.34,18.73A3.54,3.54,0,0,1,75.6,21a2.08,2.08,0,0,1,0,.86,2.22,2.22,0,0,1-1.45,1.41,8.06,8.06,0,0,1-2.07.33,8.29,8.29,0,0,0-3.44.9,3.54,3.54,0,0,0-1.9,2.84c-1.22-1.64-1-3.93-.46-5.9a5.58,5.58,0,0,1,1.67-2.86,4.9,4.9,0,0,1,1.89-.84c1.59-.38,3.5-.25,4.55,1"/><path class="cls-4" d="M65.66,26.69a1.71,1.71,0,0,1,2.24-.59,2.42,2.42,0,0,1,.78.78,4.69,4.69,0,0,1,.78,2.82,2,2,0,0,1-.34,1.08,1.68,1.68,0,0,1-.4.35,2.27,2.27,0,0,1-2.33-.1,3.2,3.2,0,0,1-1.33-2,2.49,2.49,0,0,1,.55-2.4"/><path class="cls-4" d="M76.53,26.22a15.08,15.08,0,0,0-.39-5.33,6,6,0,0,0-2.82-3.42,4.85,4.85,0,0,0-4.66.39,8,8,0,0,0-3,4,7.49,7.49,0,0,0-.1,5.47,2.32,2.32,0,0,1,1.07-.17,13.12,13.12,0,0,1,0-3.65,7.05,7.05,0,0,1,1.93-4.4,4.1,4.1,0,0,1,5.19,0c1.51,1.19,2.25,5,2.25,7,0,0,.41,0,.58,0"/><path class="cls-8" d="M84.76,38.27c5.66,4.09,11.62,8.59,14,15.17a8,8,0,0,1,.56,3.7c-.3,2.31-2.06,4.13-3.78,5.69A91.24,91.24,0,0,1,80.11,74.09c-3.31,1.92-6.75,3.64-9.87,5.84a22.46,22.46,0,0,0-7.6,8.43c-.6-.93-2.54-2.34-3.46-4.27-1.42-3-1-7.58-.44-10.82a18.1,18.1,0,0,1-5.4,0,7.6,7.6,0,0,1-4.61-2.63,8.26,8.26,0,0,1-1.19-6.52,42,42,0,0,1,2.14-6.48c1.2-3.36,1.94-6.87,3.09-10.25a21.32,21.32,0,0,1,5.42-9.1c2.51,2.16,6.07,2.5,9.37,2.62,2.78.09,15.47.55,17.2-2.61"/><path class="cls-4" d="M80.66,69.29c-1.85,0-5.79-.27-7.71-.16a3.91,3.91,0,0,1,.3-1.79.27.27,0,0,1,.1-.15.31.31,0,0,1,.23,0c2.34.32,4.35-.08,7.08.24-.34.64.19,1.19,0,1.89"/><path class="cls-9" d="M101.53,69.8q8.14,16,16,32.1a4.51,4.51,0,0,1,.67,2.81,4,4,0,0,1-1.59,2.16,14.86,14.86,0,0,1-3,1.89.66.66,0,0,1-1-.25L101.23,93C98.15,88.73,95,84.45,93,79.63a3.62,3.62,0,0,0-.91-1.46A3.36,3.36,0,0,0,91,77.68L79.53,74.2a22.42,22.42,0,0,1,5.18-8.94,4.56,4.56,0,0,1,1.46-1.13,4.87,4.87,0,0,1,3.15.11,53.33,53.33,0,0,1,12.37,5.19"/><path class="cls-4" d="M62.86,54.48a43,43,0,0,0-1.62,6.44c0,.19-.32.11-.29-.08a43.08,43.08,0,0,1,1.63-6.44c.06-.18.35-.1.28.08Z"/><path class="cls-7" d="M76.52,60.53a5,5,0,0,1,2.18-.15,6.3,6.3,0,0,1,1.63.51,5.3,5.3,0,0,1,2,1.45A2.92,2.92,0,0,1,83,64.67a2,2,0,0,1-1.66,1.64,4,4,0,0,1-1.14-.1,10.5,10.5,0,0,0-3.58,0c.19-2-.68-3.87-.62-5.84"/><path class="cls-8" d="M119.41,103.38c.61,1.46,1.41,3.26,2,4.72a.39.39,0,0,0,.52.29,18.61,18.61,0,0,1,4.4-.43,5.72,5.72,0,0,1,3.94,1.76c-2,1.39-4,2.75-6,4.1-.78.52-1.56,1-2.39,1.49-1,.58-2.16,1-3.17,1.68a11.1,11.1,0,0,1-2.69,1.58.74.74,0,0,1-.36,0,.69.69,0,0,1-.34-.39q-2.25-4.54-4.35-9.14a47.7,47.7,0,0,1,8.4-5.69"/><path class="cls-10" d="M130.8,110c.4,2.58-12.12,8.91-13.93,9.17s-1.22-.58-1.31-.73.17-.57.37-.84a16.3,16.3,0,0,1,3.1-2.86c.55-.44,7.25-5.1,10.77-5.23a1.67,1.67,0,0,1,.63,0,.47.47,0,0,1,.35.47"/><path class="cls-5" d="M48,140.75a49.64,49.64,0,0,0-.38-8.62l27.68-.34a13.06,13.06,0,0,1,3.48.26,5.68,5.68,0,0,1,3.94,3.29,4.41,4.41,0,0,1-1.18,5,4.18,4.18,0,0,1-2.1.75c-9,.51-19.53.32-31.39,0"/><path class="cls-11" d="M48.33,139.43a28.14,28.14,0,0,0-.31-5.87l23-.23a13.91,13.91,0,0,1,2.89.17,4.61,4.61,0,0,1,3.26,2.25,2.64,2.64,0,0,1-1,3.43,4,4,0,0,1-1.75.51c-7.5.35-16.2.22-26,0"/><path class="cls-6" d="M51,132.07a54.48,54.48,0,0,0-.27-7.67l19.92-.3a7.6,7.6,0,0,1,2.51.23A4.45,4.45,0,0,1,76,127.26c.5,1.53.19,3.58-.85,4.47a2.66,2.66,0,0,1-1.51.68c-6.51.45-14.06.28-22.59,0"/><path class="cls-11" d="M51.33,131.2a35.22,35.22,0,0,0-.23-5.81l17.25-.23a7.53,7.53,0,0,1,2.17.18A3.62,3.62,0,0,1,73,127.56a3.12,3.12,0,0,1-.74,3.39,2.43,2.43,0,0,1-1.31.51c-5.63.34-12.17.21-19.56,0"/><path class="cls-5" d="M29.11,105.41a23.6,23.6,0,0,1,5.55-10.52c1.56-1.71,3.53-3.64,3.06-5.91a1,1,0,0,0-.36-.66,1.25,1.25,0,0,0-1.18.07l-3.49,1.48c-1.77-4.73,4.47-12.66,3-14.44s-2.82,1.46-2.82,1.46c.3-3.64.6-7.27.89-10.91a4.75,4.75,0,0,0-.44-3.1c-1.09-1.6-3.78-1.18-5,.31s-1.45,3.57-1.61,5.5c-.24,2.75-.5,5.49-.8,8.23a1,1,0,0,1-.75.86c-.81.16-1.13-.91-1.63-1.52a2.21,2.21,0,0,0-3.26.25,3.81,3.81,0,0,0-.41,3.55,16.76,16.76,0,0,0,1.75,3.29,22.85,22.85,0,0,1,2.91,7.84c-1.33.56-2.88-1.07-4.21-.21a1.85,1.85,0,0,0-.8,1.55,4.83,4.83,0,0,0,1.5,3c2.83,3.38,5.29,6.45,8.12,9.83"/><path class="cls-12" d="M35.63,141.93l1.83-26.17H16.7s.72,26.69,1,26.68C19.44,142.41,35.63,141.93,35.63,141.93Z"/><path class="cls-4" d="M28.24,115c1.17-6.34-.14-12.78-.33-19.15A81.57,81.57,0,0,1,28.37,86q.45-4.92.91-9.82.51-5.55,1-11.12c.05-.48.81-.49.76,0Q30.16,75,29.23,84.93a96.87,96.87,0,0,0-.58,9.92c0,3.23.39,6.45.63,9.67a42.26,42.26,0,0,1-.3,10.72c-.09.49-.83.28-.74-.2Z"/><path class="cls-5" d="M33.94,112.7a7.09,7.09,0,0,1,3.91-2.43,27.22,27.22,0,0,1,4.33-.26,5.91,5.91,0,0,0,4-1.46c.43-.46.69-1.32.14-1.64s-1.28.17-1.67-.26.16-1.07.66-1.37A51.5,51.5,0,0,0,50.59,102a9.22,9.22,0,0,0,3.49-5,2.92,2.92,0,0,0-.34-2.42c-.9-1.17-2.76-.86-4.09-.22a13.58,13.58,0,0,0-5,4.06,4.59,4.59,0,0,1-1.4,1.44,1.29,1.29,0,0,1-1.75-.44c-.33-.79.46-1.91-.2-2.45a1.09,1.09,0,0,0-.79-.18A4.71,4.71,0,0,0,37.48,99,23.79,23.79,0,0,0,33,112.8"/><path class="cls-5" d="M24.19,108.91a16.87,16.87,0,0,0-4.36-9.06,1.14,1.14,0,0,0-.44-.34.87.87,0,0,0-1,.7,2.49,2.49,0,0,0,.21,1.39c-1,.18-1.69-1-2-2Q15.32,96,14.1,92.33c-.3-.88-1.19-2-1.91-1.39-.39.31-.37.89-.42,1.39s-.4,1.08-.89,1c-.26-.06-.42-.32-.54-.56C9,90.1,8.94,86.85,7.08,84.57a3.53,3.53,0,0,0-1.88-1.3c-1.57-.36-3.14,1-3.5,2.59a7,7,0,0,0,1,4.65,29.63,29.63,0,0,1,2.18,4.32c-.76.54-1.6-.56-2.47-.88A1.9,1.9,0,0,0,0,95.45a3.09,3.09,0,0,0,1.11,2.77,9.07,9.07,0,0,0,2.73,1.49l5.46,2.22c.88.36,1.93,1,1.81,1.93l-2.72.45c-.49.61.36,1.4,1.08,1.7a34.27,34.27,0,0,0,14.21,2.62"/><path class="cls-4" d="M31.87,115.14a28.23,28.23,0,0,1,9.87-11.51,27,27,0,0,1,3.79-2.11c.44-.2.83.46.38.66a27.39,27.39,0,0,0-11.31,9.64,29.14,29.14,0,0,0-2.07,3.7c-.2.45-.86.06-.66-.38Z"/><path class="cls-4" d="M25.31,115.17a11.11,11.11,0,0,0-1.4-5.26A11.38,11.38,0,0,0,20,105.84c-1.67-1.07-3.46-1.93-5.07-3.1a24.84,24.84,0,0,1-4.13-3.81,24.29,24.29,0,0,1-3.46-5.28c-.22-.44.44-.83.66-.39A23.45,23.45,0,0,0,15.2,102c1.62,1.21,3.43,2.08,5.13,3.17a12.42,12.42,0,0,1,4,4,11.89,11.89,0,0,1,1.71,6,.38.38,0,0,1-.76,0Z"/><polygon class="cls-13" points="14.4 113.43 14.55 117.42 39.76 117.42 39.76 113.53 14.4 113.43"/><path class="cls-10" d="M106.06,141.92c.32.13.27.65,0,.85a1.42,1.42,0,0,1-1,.13,52.85,52.85,0,0,1-15.13-4,1.14,1.14,0,0,1-.42-.26.76.76,0,0,1,.35-1.08,2.14,2.14,0,0,1,1.28-.06,72.49,72.49,0,0,1,10.76,3l4.06,1.36"/><path class="cls-8" d="M99.92,128.49c-.29,1.6-1,3.89-1.2,5.27a8.05,8.05,0,0,1,4.47,1.07,5.07,5.07,0,0,1,2.36,2.26,6.86,6.86,0,0,1,.59,1.72,9.37,9.37,0,0,1,.08,3.58,41.47,41.47,0,0,1-5.17-.8,81.67,81.67,0,0,1-10.47-3c-.33-.13-.71-.23-.88-.55a1.3,1.3,0,0,1,0-.83c.52-2.89.09-6,.83-8.87,1.4-.15,9,.22,9.42.12"/><path class="cls-8" d="M47.4,65.11c.56-1.35,2.68-2.69,5.68-3.27,3.9-.77,21.25-2.36,23.26-2.39a67.51,67.51,0,0,1,.8,6.73c-.06.23-16,9.15-26.21,6.79-2.53-.58-4.57-4.3-3.53-7.86"/><path class="cls-4" d="M47.27,65a5.05,5.05,0,0,1,2.41-2.22,12.71,12.71,0,0,1,3.76-1.2c1.66-.29,3.33-.47,5-.67C63,60.43,67.5,60,72,59.61c1.42-.12,2.86-.28,4.3-.31a.14.14,0,0,1,.14.11c.31,1.7.51,3.43.68,5.15a5.81,5.81,0,0,1,.13,1.55.36.36,0,0,1-.18.28,10.56,10.56,0,0,1-1.57.89q-1.59.82-3.21,1.56a61.21,61.21,0,0,1-9.18,3.38,28.74,28.74,0,0,1-10.3,1.21A9.15,9.15,0,0,1,50.36,73a4.9,4.9,0,0,1-2-1.63,7.31,7.31,0,0,1-1.1-6.25.15.15,0,0,1,.29.08,7,7,0,0,0,.64,5.36,5.34,5.34,0,0,0,1.59,1.78,4.8,4.8,0,0,0,2,.7,23.44,23.44,0,0,0,8.59-.4A57.33,57.33,0,0,0,75,67.24c.57-.29,1.13-.58,1.68-.91A1.28,1.28,0,0,0,77,66.1s0,.07,0,0a1.49,1.49,0,0,0,0-.47c-.09-1.31-.25-2.61-.42-3.91-.06-.39-.11-.78-.17-1.17,0-.17-.05-.33-.08-.5s-.12-.57,0-.46c-.09-.07-.49,0-.59,0-4.34.26-8.67.72-13,1.17-2.34.24-4.68.49-7,.8s-5,.66-7,2.18a3.66,3.66,0,0,0-1.2,1.42c-.08.18-.34,0-.26-.15Z"/><path class="cls-4" d="M109.19,53.08c-2.27,5.55-4,11-6.53,16.3-3.33-.09-21.89-.18-23.85-.1q2.72-8.53,5.44-17.08c2.22.44,24.94.88,24.94.88"/><path class="cls-4" d="M75.72,25.4a1,1,0,0,1-.8,1,.74.74,0,0,1-.84-.73c0-.19.31-.19.3,0a.44.44,0,0,0,.57.42.76.76,0,0,0,.47-.73c0-.19.31-.19.3,0Z"/><path class="cls-4" d="M71.67,26.1a.8.8,0,0,1-1.59.21.15.15,0,0,1,.29-.07.51.51,0,0,0,1-.14.15.15,0,0,1,.3,0Z"/><path class="cls-4" d="M73.43,26.35c0,.81.09,1.63.14,2.44a.15.15,0,0,1-.15.15h-.29c-.2,0-.2-.29,0-.3h.29l-.15.15c0-.81-.09-1.63-.13-2.44,0-.19.28-.19.29,0Z"/><path class="cls-4" d="M73.13,30.74a1.51,1.51,0,0,1-1.48-.85c-.08-.18.17-.33.26-.16a1.22,1.22,0,0,0,1.22.71c.19,0,.19.28,0,.3Z"/><path class="cls-4" d="M86,39.3c-1.26,1.79-3.72,2.33-5.76,2.69a44.85,44.85,0,0,1-7.5.64,54.83,54.83,0,0,1-8-.5,21,21,0,0,1-5.25-1.21,8.7,8.7,0,0,1-2.23-1.42c-.14-.12.07-.33.22-.21a8.24,8.24,0,0,0,1.77,1.2,16.28,16.28,0,0,0,4.35,1.17,51.36,51.36,0,0,0,15.26.25,23.8,23.8,0,0,0,3.26-.65,6.32,6.32,0,0,0,3.62-2.11c.11-.16.37,0,.26.15Z"/><path class="cls-8" d="M552.34,139.81a12.75,12.75,0,0,1,.54,2.91,14.76,14.76,0,0,1-.15,2.12H537.59s.9-3.06,2-3.56,7.78.61,7.78.61l.27-2.08Z"/><path class="cls-11" d="M552.73,144.84H543.8a3.83,3.83,0,0,0-1.08-3.61,8.48,8.48,0,0,0-3.07-.06c-1,.32-2.13,3-2.3,4.56h15.24Z"/><path class="cls-14" d="M547.69,139.81l.32-9.34h4.84l-.51,9.34s-1.89.14-2.26,1.59C550.08,141.4,547.93,141.08,547.69,139.81Z"/><line class="cls-15" x1="547.42" y1="141.89" x2="548.67" y2="142.33"/><path class="cls-8" d="M567.05,139.81a14,14,0,0,0-1,2.91,14.88,14.88,0,0,0-.18,2.12H581s-.41-3.06-1.49-3.56-7.87.61-7.87.61l.06-2.08Z"/><path class="cls-11" d="M565.87,144.84h8.92a4.33,4.33,0,0,1,1.65-3.61,8.61,8.61,0,0,1,3.08-.06c1,.32,1.67,3,1.58,4.56H565.87Z"/><path class="cls-14" d="M571.7,139.81l1.14-9.34H568l-1,9.34s1.86.14,2,1.59C569.06,141.4,571.25,141.08,571.7,139.81Z"/><line class="cls-15" x1="571.64" y1="141.89" x2="570.32" y2="142.33"/><polygon class="cls-16" points="548.99 25.84 533.76 72.69 536.69 73.59 551.02 26.61 548.99 25.84"/><polygon class="cls-17" points="546.07 68.82 545.24 134.55 553.45 134.55 559.11 80 561.66 80 568.32 103.17 566.8 134.55 574.33 134.55 578.73 102.5 574.33 68.82 546.07 68.82"/><line class="cls-15" x1="557.03" y1="79.94" x2="564.12" y2="79.94"/><line class="cls-15" x1="559.11" y1="80" x2="557.28" y2="81.75"/><line class="cls-15" x1="561.66" y1="80" x2="563.78" y2="81.75"/><path class="cls-15" d="M562.51,70.61a21,21,0,0,1-1.12,5,18.7,18.7,0,0,0-.81,4.36"/><path class="cls-16" d="M529.5,70.61S524,84.47,523.93,85.37s6.65,3.82,22.1,4.85l4.49-16.87Z"/><path class="cls-15" d="M533.1,76.31,532.24,79A9.14,9.14,0,0,0,534,80.87c.78.5,3.45-.46,3.45-.46l1-2.75"/><path class="cls-18" d="M552.53,71.2s-18.92-4.1-20.09-4.3-2.74.2-3.13.78a54.23,54.23,0,0,0-2,5.67c-.3,1,7.43,5.19,8.65,5.19s11.2-1.32,13.35-2.23S552.53,71.2,552.53,71.2Z"/><path class="cls-19" d="M543.84,89.06c0-.08,4.1-16.41,4.66-17.23s3.79-.63,4-.63-.44,16.75-.73,17.86S544.38,91,543.84,89.06Z"/><path class="cls-14" d="M579.18,43.63s2.64,8.75,3.18,10.14-5.87,20.54-5.87,20.54l-1.94-3.7,1.94-13.49L572.73,46.8Z"/><line class="cls-15" x1="576.49" y1="57.12" x2="578.05" y2="56.58"/><path class="cls-14" d="M531.53,49s.87-3.74,6.15-10.21l5.7,5.63-5.94,5.91Z"/><path class="cls-20" d="M554.9,16a4,4,0,0,1-1.85-2.82c-.32-2-1-9.21-.55-9.72s2.11-.78,2.11-.78-2.22-.45-2.08-.88,1.93-.55,1.93-.55-1.11-.75-.79-1,8.11-.48,9.9.27,4.18,2.18,2.83,4.69c0,0,1,0,1.1.68s-.3,8.82-2.7,9.8S556.9,16.92,554.9,16Z"/><path class="cls-8" d="M571.08,25.08c1.73.82,4,2.57,5.64,7.71,1.22,3.72,4,12.71,4,12.71l-7.23,3S560.52,20.08,571.08,25.08Z"/><polygon class="cls-11" points="572.53 48.94 570.56 45.81 580.11 41.67 581.73 45.07 572.53 48.94"/><path class="cls-8" d="M549.72,24.49c-1.87.43-6.33,3.22-9.08,7.88-2,3.36-6.63,11.54-6.63,11.54l6.4,4.54S561.11,21.9,549.72,24.49Z"/><polygon class="cls-11" points="541.24 49.04 543.84 46.41 535.42 40.3 533.1 43.27 541.24 49.04"/><path class="cls-8" d="M574.33,68.82H546.07S546,48.28,546,35.11c0-4.66,0-6.91.09-7.49.2-2.23,9.44-5.83,9.44-5.83h8.57s8.06,3,8.8,5.1a68,68,0,0,1,.51,8.22C573.89,48.58,574.33,68.82,574.33,68.82Z"/><line class="cls-15" x1="545.69" y1="66.46" x2="574.33" y2="66.46"/><path class="cls-8" d="M573.54,38.61H546c0-4.66,0-10.41.09-11,.2-2.23,9.44-5.83,9.44-5.83h8.57s8.06,3,8.8,5.1A103.46,103.46,0,0,1,573.54,38.61Z"/><rect class="cls-10" x="551.02" y="37.15" width="18.53" height="4.52"/><path class="cls-15" d="M553.67,22.57s1.89,6.22,6,6.22,6.53-6.15,6.53-6.15"/><path class="cls-21" d="M564.39,13.79l-.27,8a4.29,4.29,0,0,1-4.29,4.15h0a4.29,4.29,0,0,1-4.28-4.29V13.79Z"/><path class="cls-14" d="M564.8,11s2.51-.9,2.8.42-.74,2.63-2.8,2.34Z"/><path class="cls-14" d="M554.9,11s-2.51-.9-2.8.42.74,2.63,2.8,2.34Z"/><path class="cls-14" d="M565.18,6.35c-.65-3-5.32-2.58-5.32-2.58s-4.66-.44-5.32,2.58,0,8.05,0,9.15,1.32,5.41,5.32,5.41,5.28-3.91,5.33-5S565.84,9.37,565.18,6.35Z"/><line class="cls-15" x1="559.94" y1="13.44" x2="559.69" y2="16.39"/><path class="cls-22" d="M561.94,13.44c0,.45.2.82.45.82s.44-.37.45-.82-.2-.82-.45-.82S561.94,13,561.94,13.44Z"/><path class="cls-20" d="M564.37,11.61c.13-.32-.53-.91-.74-.95a6.89,6.89,0,0,0-2,.12,1.21,1.21,0,0,0-.43.56A8.57,8.57,0,0,0,564.37,11.61Z"/><path class="cls-22" d="M557.92,13.44c0,.45-.19.82-.44.82s-.45-.37-.45-.82.2-.82.45-.82S557.92,13,557.92,13.44Z"/><path class="cls-20" d="M555.49,11.61c-.12-.32.54-.91.75-.95a6.82,6.82,0,0,1,1.94.12,1.14,1.14,0,0,1,.43.56A8.55,8.55,0,0,1,555.49,11.61Z"/><path class="cls-20" d="M553.44,5.69s1.46,2.79,8.75,3.81c2.54.35-.27-2.35-.27-2.35s3.66.76,3.77-.31C566.22,1.76,554.13,1.91,553.44,5.69Z"/><path class="cls-23" d="M558.11,17.84a3,3,0,0,0,3.3,0"/><path class="cls-24" d="M559.27,19.2c0-.26,1.47-.3,1.4-.06S559.34,19.51,559.27,19.2Z"/><path class="cls-15" d="M565.49,12.93s.67-2,1.45-1"/><path class="cls-15" d="M554.17,12.93s-.67-2-1.45-1"/><polygon class="cls-18" points="566.16 21.79 549.45 72.69 552.39 73.59 568.19 22.56 566.16 21.79"/><path class="cls-14" d="M534.88,46.41c3-.07,19.51-2.46,19.51-2.46l.42,3.34s-16.13,6.53-19.17,6.48a4.34,4.34,0,0,1-4.17-3.85A3.45,3.45,0,0,1,534.88,46.41Z"/><path class="cls-14" d="M554.39,44s.93-2.23,1.14-2.52,2.58-2.24,2.74-2.08c.7.71-.79,2.08-.79,2.08s2.22,0,2.3.24a3.37,3.37,0,0,1-.17,1.08s1,.8.78,1a6.6,6.6,0,0,0-.47.75s.77.71.63,1-1.79,1.33-5.74,1.75Z"/><line class="cls-15" x1="537.26" y1="46.21" x2="534.57" y2="46.43"/><path class="cls-14" d="M574.56,76.31a3.09,3.09,0,0,0,1.93-2l-1.94-3.7s-2.08.31-2.36.37a6,6,0,0,0-1.62,1.76Z"/><line class="cls-15" x1="574.55" y1="70.61" x2="575.14" y2="70.61"/><line class="cls-15" x1="546.01" y1="40.7" x2="546.05" y2="32.48"/><path class="cls-15" d="M573.72,44.6c0-.16-.39-13-.39-13"/><line class="cls-15" x1="569.99" y1="72.4" x2="575.14" y2="77.02"/><path class="cls-15" d="M564.59,70.61a36.39,36.39,0,0,1-1.23,5.09c-.31.52-2.88.61-2.88.61"/><line class="cls-15" x1="568.32" y1="103.17" x2="569.99" y2="105.62"/><polygon class="cls-25" points="569.56 85.48 573.92 84.58 574.14 85.22 569.57 86.15 569.56 85.48"/><polygon class="cls-25" points="568.63 87.53 575.36 86.18 575.92 87.6 568.79 89.06 568.63 87.53"/><polygon class="cls-25" points="545.24 131.8 545.24 134.55 553.45 134.55 553.75 131.8 545.24 131.8"/><polygon class="cls-25" points="566.8 134.55 566.95 131.8 574.76 131.8 574.33 134.55 566.8 134.55"/><line class="cls-15" x1="556.7" y1="103.17" x2="554.73" y2="105.28"/><polygon class="cls-25" points="548.66 98.12 553.28 98.52 553.28 99.51 554.15 99.82 553.84 100.76 547.69 100.19 547.69 99.2 548.62 99.2 548.66 98.12"/><polygon class="cls-25" points="548.5 101.22 552.53 101.44 552.35 101.95 548.5 101.94 548.5 101.22"/><path class="cls-15" d="M544.27,89.62s3.37-3.23,4.23-3.44,3.3,2.88,3.3,2.88"/></g></g></g></svg>