<svg xmlns="http://www.w3.org/2000/svg" xmlns:xlink="http://www.w3.org/1999/xlink" viewBox="0 0 325.74 240.62"><defs><style>.cls-1,.cls-3{fill:#46c7ce;}.cls-2{isolation:isolate;}.cls-3{opacity:0.25;}.cls-4{fill:#fa5;}.cls-18,.cls-5{fill:#fff;}.cls-6{fill:#363638;}.cls-7{fill:#b77969;}.cls-8{opacity:0.5;mix-blend-mode:multiply;}.cls-9{fill:#2a9e9e;}.cls-10{fill:#9e5f52;}.cls-11{clip-path:url(#clip-path);}.cls-12{fill:#f5a07e;}.cls-13{fill:#e27860;}.cls-14{fill:#b8d0cd;}.cls-15{fill:#dcdcdc;}.cls-16{fill:#a9a9a9;}.cls-17{fill:#4ec0c4;}.cls-18{opacity:0.2;}.cls-19{fill:#bc926d;}.cls-20{fill:none;stroke:#422e2d;stroke-miterlimit:10;}.cls-21{fill:#422e2d;}.cls-22{fill:#ec7738;}</style><clipPath id="clip-path"><path class="cls-1" d="M129.69,177.14c.87,4.5.66,10.55.83,15.21a85.89,85.89,0,0,1-.42,13.81c7.16,1,13.84.84,21.07.75,3.06,0,6.13-.07,9.19-.3,4.89-.36,9.73-1.21,14.6-1.81q6.9-.87,13.87-1.08a268.21,268.21,0,0,1,1.49-34.7c1.36-11.34,4-23,3.91-34.41,0-3.72.33-10.19-4-11.87-3.86-1.51-7.76-2.86-11.68-4.2a58.07,58.07,0,0,0-11.15-2.83,49.46,49.46,0,0,0-16.5.77,102,102,0,0,0-14.49,4.37c-1.74.64-4.11,1.07-5.51,2.27-1.61,1.39-2.51,4.21-3.32,6.1a64.51,64.51,0,0,0-4.92,20.12,36.33,36.33,0,0,0,.28,10c1.11,5.22,4,9.81,5.86,14.74A18.33,18.33,0,0,1,129.69,177.14Z"/></clipPath></defs><g class="cls-2"><g id="Layer_2" data-name="Layer 2"><g id="Option_1" data-name="Option 1"><path class="cls-3" d="M46,99.94c-6.46,9.18-11.44,21.68-8,33.21s14.47,18.59,19.29,29.51c2.73,6.18,2.8,13,2.9,19.59.14,8.67-1.56,17.89,4.3,25.22,3.47,4.33,8.71,6.89,14,8.58,10.62,3.38,21.76,5,31.19,11.35,15.51,10.49,34.56,14.15,53,13a119.8,119.8,0,0,0,27.65-5.08c10.43-3.18,19.7-8.82,30.2-11.83,18.2-5.24,43.09-5.31,53.74-23.72,7.17-12.4,9.65-27.72,4.07-41.23-2.65-6.42-7.71-11.33-10.59-17.64a40.42,40.42,0,0,1-2.4-27.9c.11-.38.22-.76.35-1.13,2.78-8.66,8.37-16.1,10.69-24.91,4.78-18.18-5.78-37.41-19.67-49.1a58.81,58.81,0,0,0-19.23-11.2c-19.36-6.36-40.88,1-60.3-5.15C162.37,16.81,150.14,4.55,135,1c-11.66-2.72-24.27.18-34.18,7.3S83.67,26.58,80.39,38.85c-3,11.37-2.94,23.86-8.33,34.19-4.61,8.84-13.15,13.61-20.09,20A43.18,43.18,0,0,0,46,99.94Z"/><path class="cls-4" d="M52.84,73.35H69.32A12.77,12.77,0,0,1,82.06,86.09h0a12.74,12.74,0,0,1-5.52,10.48v9l-9.17-6.71H52.84A12.77,12.77,0,0,1,40.1,86.09h0A12.77,12.77,0,0,1,52.84,73.35Z"/><circle class="cls-5" cx="70.31" cy="86.09" r="1.93"/><circle class="cls-5" cx="61.08" cy="86.09" r="1.93"/><circle class="cls-5" cx="51.85" cy="86.09" r="1.93"/><path class="cls-6" d="M208.22,160.75c-8.25,2.92-18.2,2.62-25.71-2.2s-14.1-8.15-23.18-8c-8.11.15-14.82,4.53-22.68,5.46-6.23.74-12.56-2-17.08-6.33s-7.33-10.74-5.42-16.56c1-3,3.2-5.56,4.45-8.51,2.89-6.81-4.71-10.92-2.82-18.09,1.61-6.09,8.3-10.44,8.2-16.75-.08-4.61-3.65-8.19-4.91-12.46a17,17,0,0,1,1.25-13.07,15.6,15.6,0,0,1,7.36-6.56c2.75-1.17,5.82-1.19,7.95-3.6,3.79-4.28,5.18-8.92,10.38-12.06,4.4-2.65,10.22-2.82,15.27-2.35,11.22,1,22.12,7,28.44,16.39,2.24,3.34,3.86,6.76,3.91,10.74.07,4.34.06,8.71,2.73,12.41,2.23,3.1,5.82,4.91,9.38,6.31s7.28,2.53,10.41,4.74,5.6,5.8,5.23,9.61c-.3,3.18-2.51,6-2.8,9.13-.53,5.8,5,10,8.49,14.7a22.81,22.81,0,0,1,2,23.15c-4.18,8.4-11.76,10.29-19.71,13.45Z"/><path d="M188,122.26c.29,7.12-1.36,12.46-7.87,16-5.19,2.81-11.4,3.73-17.12,3.87-9.6.24-20.29-2.24-27.47-9-1.3-1.22-2.56-2.72-2.65-4.51-.08-1.62.81-3.15.89-4.77.13-2.74-2-5-2.95-7.58-1.26-3.39-.4-7.18.73-10.62s2.54-6.91,2.37-10.52c-.22-4.69-3-8.79-5.3-12.9s-4-9.13-2.1-13.41a9.57,9.57,0,0,1,7.4-5.33c3.27-.37,6.21,3.37,8.3,5.43a51.31,51.31,0,0,0,9.34,7.26c4.67,2.84,9.8,4.93,14.2,8.18,2.66,2,5.51,4.67,6.78,7.8,1.43,3.53-1.07,7,2,10.19,1.95,2.1,4.95,2.81,7.32,4.43C186.84,110.25,187.71,116.64,188,122.26Z"/><path class="cls-7" d="M169.6,130.9c-4.31,4.9-12.6,5.29-18.4,3.28-3.95-1.36-6.74-4.47-6.82-8.75-.09-4.79,4.1-8.19,5.16-12.64a30.21,30.21,0,0,0,.48-7.71c-.07-3-.09-6-.24-9a32.22,32.22,0,0,1,8.54-.81c2.61.11,5.22-.16,7.83,0a.89.89,0,0,1,.58.17.86.86,0,0,1,.2.57c.35,4.05,0,8.15.28,12.21a20.46,20.46,0,0,0,3.27,10.58A9.88,9.88,0,0,1,169.6,130.9Z"/><path class="cls-7" d="M100.85,186.16,97.43,185c-6.22-2.18-12.56-4-18.77-6.14-4.16-1.46-8.3-3-12.46-4.45-3.54-1.24-7.18-3.36-10.93-3.72a3.73,3.73,0,0,0-2.65.49c-1,.77-1.13,2.24-1.16,3.52,0,1.64,0,3.44,1.1,4.65A6.31,6.31,0,0,0,54,180.43c5.17,3.23,10.26,6.72,15.53,9.82,6.21,3.68,12.56,7.14,19.09,10.25,3.64,1.73,7.39,3.28,11.08,4.95s7.85,3.77,12.11,3.76a8.26,8.26,0,0,0,8.09-5.57,9.57,9.57,0,0,0-1.38-8.86,14.45,14.45,0,0,0-4.25-3.21A85.13,85.13,0,0,0,100.85,186.16Z"/><path class="cls-1" d="M126.72,186.05c2.68-8,4.77-12.26,7.8-19.36,4.56-10.7,9.87-22.41,7.89-34.42-.95-5.75-5.88-10.54-12-9.48a13.49,13.49,0,0,0-8.9,6c-2.31,3.47-3.59,7.5-5,11.4a208.23,208.23,0,0,0-6.12,20.94c-1.7,7.07-2.61,14.38-4.92,21.29a24.62,24.62,0,0,0-1.33,4.87c3.66,2.91,11.83,9,15.69,17.12A165.45,165.45,0,0,0,126.72,186.05Z"/><g class="cls-8"><path class="cls-9" d="M124.51,168.36c.29,7,.79,14,1.08,21,.86-2.65,2.18-6.32,2.89-8.3,1.41-3.94,3.58-8.38,4.6-12.44a113.73,113.73,0,0,0,2.48-15.12,25.14,25.14,0,0,0,.13-5.68,39.94,39.94,0,0,0-1.88-6.27q-.81-2.48-1.71-4.91c-.49-1.34-2.76-3-2-4.66a92.16,92.16,0,0,0-5.17,14c-1.16,4.64-1,8.83-.77,13.53C124.26,162.49,124.38,165.43,124.51,168.36Z"/></g><path class="cls-1" d="M211.25,148.93c3.18,6.77,6.13,13.64,8.69,20.65,1.77,4.85,3.78,9.65,5,14.68,1,4.22,2.21,9.77-.57,13.56-2.51,3.41-7.32,4.4-11.17,2.89-3.2-1.25-5.45-4.21-7-7.18-2-3.95-4-7.93-6.14-11.83-4.39-8.12-9.27-16-13.72-24-3.94-7.15-7.36-15.18-7.24-23.49.09-5.83,4.25-11.3,10.46-11.15a13.48,13.48,0,0,1,9.68,4.63c2.81,3.08,4.67,6.88,6.61,10.53S209.55,145.31,211.25,148.93Z"/><path class="cls-9" d="M199.71,168.9c1.16,6.11,2.26,12.23,3.52,18.3,0,.24.09.47.14.71-1.23-2.5-3.27-6.17-4.26-8-2-3.69-5.73-10.19-8-13.83a33.46,33.46,0,0,1-4.35-10.75c-.71-3.17.28-4.81.87-8a34.14,34.14,0,0,1,2.54-6.74c.45-1.06.78-2.44,1.23-3.49.27-.64,1-3.77.72-4.45a37.79,37.79,0,0,1,1.47,6.29C195.35,149,197.82,158.89,199.71,168.9Z"/><path class="cls-10" d="M149.71,112.18a32.69,32.69,0,0,0,.37-7.13c-.08-3-.1-6-.24-9a31.78,31.78,0,0,1,8.53-.81c2.61.11,5.22-.17,7.83,0a.91.91,0,0,1,.59.17A.85.85,0,0,1,167,96c.35,4.06,0,8.16.28,12.22a31,31,0,0,0,.44,3.47c-.41.36-.83.71-1.25,1A13.35,13.35,0,0,1,155,114.74,17.08,17.08,0,0,1,149.71,112.18Z"/><path class="cls-1" d="M129.69,177.14c.87,4.5.66,10.55.83,15.21a85.89,85.89,0,0,1-.42,13.81c7.16,1,13.84.84,21.07.75,3.06,0,6.13-.07,9.19-.3,4.89-.36,9.73-1.21,14.6-1.81q6.9-.87,13.87-1.08a268.21,268.21,0,0,1,1.49-34.7c1.36-11.34,4-23,3.91-34.41,0-3.72.33-10.19-4-11.87-3.86-1.51-7.76-2.86-11.68-4.2a58.07,58.07,0,0,0-11.15-2.83,49.46,49.46,0,0,0-16.5.77,102,102,0,0,0-14.49,4.37c-1.74.64-4.11,1.07-5.51,2.27-1.61,1.39-2.51,4.21-3.32,6.1a64.51,64.51,0,0,0-4.92,20.12,36.33,36.33,0,0,0,.28,10c1.11,5.22,4,9.81,5.86,14.74A18.33,18.33,0,0,1,129.69,177.14Z"/><g class="cls-11"><path class="cls-7" d="M152.14,97.44a32.49,32.49,0,0,1,5.54-.26,23.06,23.06,0,0,1,14,4.88c3.18,2.6,6.54,6.44,6.59,12.07,0,3.41-1.45,6.42-2.85,9.52-4.79,10.55-12.3,18.81-21.25,17.87-11.4-1.2-18.46-17.49-14.07-32.8a17.89,17.89,0,0,1,3.89-7.49A13.72,13.72,0,0,1,152.14,97.44Z"/></g><path class="cls-12" d="M31.76,170.38a25.94,25.94,0,0,0-5.24,2.69c-1.13.74-2.53,1.81-2.35,3.34a.66.66,0,0,0,.49.6.88.88,0,0,0,.36,0c2.17-.52,4-2.21,6.27-2.19a6.72,6.72,0,0,0-2.27,1c-.78.38-1.54.8-2.29,1.25a9,9,0,0,0-3.26,2.84,1.32,1.32,0,0,0,1.29,2.07,4.46,4.46,0,0,0,1.75-.54l1.33-.62a6.3,6.3,0,0,0-2.34,2,1.56,1.56,0,0,0,.48,2.11c.66.32,1.29-.06,1.91-.26,1-.29,1.89-.81,2.87-1-.6.14-.92,1.08-1,1.69a2,2,0,0,0,.62,1.67,1.25,1.25,0,0,0,.64.36,1.84,1.84,0,0,0,.94-.16L37.9,185c3.07-1.11,6-2.48,9.17-3.33a22.93,22.93,0,0,1,3.47-.79c1.93-.19,4.25-1,6.18-.52,1.63.43,5.31,1.33,6.89.76,2.24-.81,1.83-1.09,1.62-3.07-.27-2.51-4.88-3.89-7-5-1.37-.71-2.07-2.72-3.23-3.74a21,21,0,0,0-3.52-2.47,11.36,11.36,0,0,0-3.05-1.05,20.89,20.89,0,0,0-2.74-.17,19.78,19.78,0,0,1-5.21-1.76c-1.22-.47-2.57-1-3.72-.08A2.45,2.45,0,0,0,36,166c.15,1,.73,1,1.56,1.38.58.23,1.88,1.07,2.48,1A35.1,35.1,0,0,0,31.76,170.38Z"/><path class="cls-13" d="M37.27,172.8a13.46,13.46,0,0,0-1.77.25,17.53,17.53,0,0,0-1.73.44,17,17,0,0,0-1.68.63l-.81.37c-.26.14-.52.28-.78.44l.83-.34.83-.32c.55-.2,1.11-.4,1.68-.57s1.13-.34,1.7-.49S36.69,172.93,37.27,172.8Z"/><path class="cls-13" d="M37.47,176a17.13,17.13,0,0,0-2.8.87A29.08,29.08,0,0,0,32,178.18c-.85.48-1.69,1-2.5,1.52l-1.21.82c-.4.28-.8.56-1.19.85l2.49-1.53c.83-.5,1.66-1,2.52-1.47a27.4,27.4,0,0,1,2.6-1.3A24.27,24.27,0,0,1,37.47,176Z"/><path class="cls-13" d="M38.54,179.9,38,180l-.55.12-.55.15-.54.18a16,16,0,0,0-2.08.92c-.67.35-1.32.74-1.95,1.15l-.93.64-.92.66c.33-.18.65-.38,1-.57l1-.58c.65-.38,1.3-.76,2-1.11s1.35-.67,2-1A14.86,14.86,0,0,1,38.54,179.9Z"/><path class="cls-7" d="M201.19,188.07l-3.5.71c-6.37,1.26-12.65,2.92-19,4.18-4.27.84-8.55,1.6-12.82,2.44-3.62.72-7.79.73-11.15,2.31a3.7,3.7,0,0,0-2,1.75c-.47,1.18.19,2.5.82,3.62.81,1.42,1.76,3,3.3,3.45a7,7,0,0,0,1.76.21c6,.18,12.12.61,18.16.62,7.14,0,14.28-.18,21.39-.8,4-.34,7.93-.9,11.91-1.32s8.56-.71,12.17-2.87a8.15,8.15,0,0,0,4-8.86,9.68,9.68,0,0,0-5.7-6.92,14.22,14.22,0,0,0-5.23-.62A82.92,82.92,0,0,0,201.19,188.07Z"/><path class="cls-5" d="M129.32,80.67c-5.62,5.78-.52,19.91,8.44,17.87,9.63-2.2,8.19-17.21-.52-19.67A7.63,7.63,0,0,0,129.32,80.67Z"/><path class="cls-7" d="M173.65,80.35A39.06,39.06,0,0,0,172,68.74c-4.71-14.42-22.7-18-33.53-7.63-12.07,11.54-7.45,39.14,5.27,48.83a14.3,14.3,0,0,0,12.15,2.4C168.34,109,173.73,93.6,173.65,80.35Z"/><path class="cls-12" d="M171.29,80.71c5.53-3,7.23,4.63,6.28,8.44a12.07,12.07,0,0,1-2,4.41c-1.32,1.75-5.08,4.64-7.25,2.73-1-.87-1.09-2.34-1.12-3.65C167.13,89.13,167.54,82.76,171.29,80.71Z"/><path class="cls-10" d="M173.68,69.34c-5-15.18-23.9-18.93-35.3-8a22.52,22.52,0,0,0-5.55,8.94,10.31,10.31,0,0,0,.88,1.18,16.87,16.87,0,0,0,5.9,4,84.69,84.69,0,0,0,20.06,6l1.53.29a17,17,0,0,1,5.42,1.81c4.67,2.75,2.66,8.81,6.08,11.46a3.35,3.35,0,0,0,.94.51,51.12,51.12,0,0,0,1.83-13.88A40.9,40.9,0,0,0,173.68,69.34Z"/><path class="cls-6" d="M161.69,79.92a16.78,16.78,0,0,1,5.06,2.66c4.17,3.46,1.23,9.12,4.18,12.29,2.62,2.8,6.59-.91,7.64-3.5,1.91-4.77,1.8-10.08,1.66-15.22a32,32,0,0,0-1-8.52,21.14,21.14,0,0,0-4.83-8A31,31,0,0,0,150,50.17c-7,.44-19.32,6.34-13.82,15.27a16.93,16.93,0,0,0,5.18,4.89,84.91,84.91,0,0,0,18.86,9.07Z"/><path class="cls-14" d="M178.22,79.56l-3.88-.24c1.13-10.78-2-24.9-11.23-30-3.45-1.92-18.73-5-24.45,1a20.5,20.5,0,0,0-1.3,1.62c3.18-10.66,20.47-9.32,28.43-5.74C177.85,51.63,179.36,68.1,178.22,79.56Z"/><path class="cls-5" d="M173.61,78.53c-7.81,2-10.83,16.71-2.12,19.64,9.37,3.15,16-10.41,9.81-17A7.58,7.58,0,0,0,173.61,78.53Z"/><path class="cls-14" d="M176.17,80.41c-5.39.87-8.71,12.33-3.16,15.48,6,3.39,11.58-6.81,8.07-12.69C179.71,80.91,177.91,80.14,176.17,80.41Z"/><rect class="cls-15" x="94.91" y="197.28" width="43.67" height="8.55"/><path class="cls-15" d="M102.41,198.11,91.38,142a3.16,3.16,0,0,0-3.1-2.55H15a3.14,3.14,0,0,0-2.54,1.31h0l-3.38,4,3-.66,10.85,55.25a3.16,3.16,0,0,0,3.1,2.55H99.31A3.16,3.16,0,0,0,102.41,198.11Z"/><path class="cls-16" d="M22.68,205.83H96a3.16,3.16,0,0,0,3.1-3.77L88,146a3.16,3.16,0,0,0-3.1-2.56H11.66a3.16,3.16,0,0,0-3.1,3.77l11,56.12A3.16,3.16,0,0,0,22.68,205.83Z"/><path class="cls-5" d="M45.73,173.22a8.55,8.55,0,0,0,8.08,6.85,5.49,5.49,0,0,0,5.53-6.85,8.66,8.66,0,0,0-8.08-6.85A5.54,5.54,0,0,0,45.73,173.22Z"/><path class="cls-7" d="M165.08,205.29c-2.14.44-3.81,2.32-5.94,3a7.3,7.3,0,0,1-4.61-.34c-1.34-.51-2.7-.78-4.08-1.22-1.08-.34-2.53-1.06-3.68-.82-3,.63-6,2.78-8.78,4.17a3.15,3.15,0,0,1-2,.51c-.68-.13-1.25-.95-.86-1.52-.79.73-1.83,2.21-3.1,1.63a1.06,1.06,0,0,1-.55-1.41,4.36,4.36,0,0,1-1.5,1.21,1.46,1.46,0,0,1-1.75-.41,1.64,1.64,0,0,1-.23-.87,6.46,6.46,0,0,1,.7-3c2.16-4.71,7-8.21,11.19-11a9.09,9.09,0,0,1,2.33-1.26,7.82,7.82,0,0,1,2.36-.26,47,47,0,0,1,15.19,2.45,6.6,6.6,0,0,0,3.27-.14,5,5,0,0,1,2.36-.07,4.07,4.07,0,0,1,2,1.64,7.67,7.67,0,0,1,1.57,4.74c-.09,1.26-.18,2.63-1.67,2.89-.6.11-1.22,0-1.83.11A3.5,3.5,0,0,0,165.08,205.29Z"/><path class="cls-5" d="M256.05,172.33a6.68,6.68,0,0,0,.15-5,19.2,19.2,0,0,0-2.31-4.56,21,21,0,0,1-2.53-5.14,11.07,11.07,0,0,1,.13-6.15c1.2-3.88,3.67-6.74,5.36-9.66a14,14,0,0,0,1.83-4.65,8,8,0,0,0-.61-5.05,7.31,7.31,0,0,1,2.17,5.14,13,13,0,0,1-1.15,5.66c-1.47,3.52-3.68,6.38-4.54,9.47a8.25,8.25,0,0,0-.26,4.5,24.44,24.44,0,0,0,1.8,4.72,16.28,16.28,0,0,1,1.65,5.43A6.42,6.42,0,0,1,256.05,172.33Z"/><path class="cls-17" d="M245.91,174.46h21.77a0,0,0,0,1,0,0v20.3a10.89,10.89,0,0,1-10.89,10.89h0a10.89,10.89,0,0,1-10.89-10.89v-20.3a0,0,0,0,1,0,0Z"/><path class="cls-17" d="M269.21,181.51a9.6,9.6,0,1,0,9.45,9.6A9.53,9.53,0,0,0,269.21,181.51Zm0,15.77a6.18,6.18,0,1,1,6.08-6.17A6.13,6.13,0,0,1,269.21,197.28Z"/><path class="cls-18" d="M249.17,193.81h0a1.18,1.18,0,0,1-1.18-1.18V177.45a1.18,1.18,0,0,1,1.18-1.17h0a1.18,1.18,0,0,1,1.18,1.17v15.18A1.18,1.18,0,0,1,249.17,193.81Z"/><path class="cls-9" d="M262.66,174.46v25.67a5.52,5.52,0,0,1-5.52,5.52h5a5.52,5.52,0,0,0,5.52-5.52V174.46Z"/><path class="cls-19" d="M320,216.2H5.79A5.66,5.66,0,0,1,0,210.68H0a5.67,5.67,0,0,1,5.79-5.53H320a5.67,5.67,0,0,1,5.79,5.53h0A5.66,5.66,0,0,1,320,216.2Z"/><path class="cls-20" d="M142.8,77.92s-4-1.27-6.47,1.78"/><path class="cls-20" d="M160.48,78.91s-3-2.88-6.61-1.22"/><path class="cls-5" d="M144.55,100.67a102.06,102.06,0,0,0,15.12-2.6s-3.62,6.43-10.53,7C147.55,105.24,144.55,100.67,144.55,100.67Z"/><ellipse class="cls-21" cx="157.54" cy="85.67" rx="1.87" ry="3.38" transform="translate(-12.23 27.91) rotate(-9.75)"/><ellipse class="cls-21" cx="140.73" cy="86.45" rx="1.87" ry="3.38" transform="translate(-12.61 25.08) rotate(-9.75)"/><path class="cls-21" d="M148,85a10.29,10.29,0,0,1-.41,3.72,11.76,11.76,0,0,1-.8,1.95,10.67,10.67,0,0,0-.92,2,2.83,2.83,0,0,0,.2,2.12,3.4,3.4,0,0,0,1.15,1.24c.82.5,1.43.48,1.44.42s-.54-.22-1.2-.77a2.55,2.55,0,0,1-.9-2.83,11.3,11.3,0,0,1,.95-1.86,11.53,11.53,0,0,0,.92-2.1,10.57,10.57,0,0,0,.47-4.07,6.78,6.78,0,0,0-.67-2.5c-.26-.51-.48-.71-.57-.66C147.41,81.85,147.81,82.91,148,85Z"/><rect class="cls-4" x="222.93" y="35.51" width="39.61" height="27.36" transform="matrix(1, 0, 0, 1, -0.07, 0.35)"/><polygon class="cls-22" points="222.91 35.54 222.92 37.3 242.75 54.82 262.53 37.24 262.53 35.48 242.75 53.13 222.91 35.54"/><polygon class="cls-22" points="246.56 49.67 261.42 62.85 262.57 62.85 262.56 62.15 247.41 48.71 246.56 49.67"/><polygon class="cls-22" points="222.95 62.3 222.95 62.91 224.2 62.9 239.03 49.68 238.17 48.72 222.95 62.3"/><polygon class="cls-4" points="262.53 35.48 242.75 53.13 222.91 35.54 262.53 35.48"/><circle class="cls-1" cx="260.66" cy="36.88" r="8.6"/><path class="cls-5" d="M258.9,41h0a.83.83,0,0,1-.59-.25l-2.11-2.11a.83.83,0,1,1,1.18-1.18L258.9,39,264.81,33A.83.83,0,0,1,266,34.22l-6.5,6.5A.83.83,0,0,1,258.9,41Z"/></g></g></g></svg>