<svg xmlns="http://www.w3.org/2000/svg" viewBox="0 0 37.35 37.35"><defs><style>.cls-1{fill:#fa5;}</style></defs><g id="Layer_2" data-name="Layer 2"><g id="Option_1" data-name="Option 1"><path class="cls-1" d="M32.21,27.07H28.38V23.24a.67.67,0,0,0-.66-.66.66.66,0,0,0-.65.66v4.48a.66.66,0,0,0,.65.66h4.49a.67.67,0,0,0,.66-.66A.66.66,0,0,0,32.21,27.07Z"/><path class="cls-1" d="M8,13.61H5.76a.66.66,0,0,0,0,1.31H8a.66.66,0,1,0,0-1.31Z"/><path class="cls-1" d="M8,18.1H5.76a.65.65,0,0,0-.65.65.66.66,0,0,0,.65.66H8a.66.66,0,0,0,.66-.66A.65.65,0,0,0,8,18.1Z"/><path class="cls-1" d="M8,22.58H5.76a.66.66,0,0,0-.65.66.65.65,0,0,0,.65.65H8a.65.65,0,0,0,.66-.65A.66.66,0,0,0,8,22.58Z"/><path class="cls-1" d="M17.05,13.61H14.81a.66.66,0,1,0,0,1.31h2.24a.66.66,0,1,0,0-1.31Z"/><path class="cls-1" d="M17.05,18.1H14.81a.66.66,0,0,0-.66.65.67.67,0,0,0,.66.66h2.24a.67.67,0,0,0,.66-.66A.66.66,0,0,0,17.05,18.1Z"/><path class="cls-1" d="M17.05,22.58H14.81a.67.67,0,0,0-.66.66.66.66,0,0,0,.66.65h2.24a.66.66,0,0,0,.66-.65A.67.67,0,0,0,17.05,22.58Z"/><path class="cls-1" d="M17,27.07H14.73a.65.65,0,0,0-.65.65.66.66,0,0,0,.65.66H17a.66.66,0,0,0,.66-.66A.65.65,0,0,0,17,27.07Z"/><path class="cls-1" d="M8,27.07H5.76a.65.65,0,0,0-.65.65.66.66,0,0,0,.65.66H8a.66.66,0,0,0,.66-.66A.65.65,0,0,0,8,27.07Z"/><path class="cls-1" d="M25.48,14.92h2.24a.66.66,0,1,0,0-1.31H25.48a.66.66,0,0,0,0,1.31Z"/><path class="cls-1" d="M35.21,21.68l-.1-.13V3a.66.66,0,0,0-.66-.65H28.3V.65A.65.65,0,0,0,27.65,0,.66.66,0,0,0,27,.65V2.32H21.57V.65A.65.65,0,0,0,20.92,0a.66.66,0,0,0-.66.65V2.32H14.84V.65A.65.65,0,0,0,14.19,0a.66.66,0,0,0-.66.65V2.32H8.11V.65A.65.65,0,0,0,7.46,0,.66.66,0,0,0,6.8.65V2.32H.65A.65.65,0,0,0,0,3V32.21a.66.66,0,0,0,.65.66H19.58l.14.2A9.62,9.62,0,1,0,35.21,21.68Zm-33.9-18H6.8V5.22a.66.66,0,0,0,.66.65.65.65,0,0,0,.65-.65V3.63h5.42V5.22a.66.66,0,0,0,.66.65.65.65,0,0,0,.65-.65V3.63h5.42V5.22a.66.66,0,0,0,.66.65.65.65,0,0,0,.65-.65V3.63H27V5.22a.66.66,0,0,0,.66.65.65.65,0,0,0,.65-.65V3.63h5.5V9.05H1.31Zm0,27.93V10.36H33.8v9.85l-.73-.49a9.62,9.62,0,0,0-13.42,2.77l-.23.35-.55,1.05-.22.62a9.47,9.47,0,0,0-.49,2.14l-.05.42v1.31l.05.41a9.23,9.23,0,0,0,.49,2.14l.22.63ZM27.72,36A8.32,8.32,0,1,1,36,27.72,8.32,8.32,0,0,1,27.72,36Z"/></g></g></svg>