<svg xmlns="http://www.w3.org/2000/svg" viewBox="0 0 45.41 16.6"><defs><style>.cls-1{fill:#363638;}.cls-2{fill:#fff;}</style></defs><g id="Layer_2" data-name="Layer 2"><g id="Option_1" data-name="Option 1"><path class="cls-1" d="M44.13,0H1.28A1.29,1.29,0,0,0,0,1.28v9.57a1.28,1.28,0,0,0,1.28,1.28h3.6V16.6l4.75-4.47h34.5a1.28,1.28,0,0,0,1.28-1.28V1.28A1.28,1.28,0,0,0,44.13,0Z"/><path class="cls-2" d="M6.92,4.1A1.69,1.69,0,0,1,8.61,5.27H7.78a.91.91,0,0,0-.87-.51A1.07,1.07,0,0,0,5.83,6,1.08,1.08,0,0,0,6.91,7.14a.91.91,0,0,0,.87-.52h.83A1.68,1.68,0,0,1,6.92,7.78,1.78,1.78,0,0,1,5.09,6,1.79,1.79,0,0,1,6.92,4.1Z"/><path class="cls-2" d="M10.5,7.8A1.4,1.4,0,0,1,9.05,6.32a1.41,1.41,0,0,1,1.47-1.47A1.41,1.41,0,0,1,12,6.32,1.43,1.43,0,0,1,10.5,7.8Zm0-.63a.77.77,0,0,0,.75-.85.75.75,0,0,0-.74-.84c-.38,0-.72.27-.72.84S10.12,7.17,10.5,7.17Z"/><path class="cls-2" d="M16.53,6.17a.64.64,0,1,0-1.28,0V7.75h-.72V6.17a.64.64,0,1,0-1.28,0V7.75h-.72V4.89h.72v.35a1,1,0,0,1,.84-.39,1.09,1.09,0,0,1,1,.55,1.16,1.16,0,0,1,2.15.68V7.75h-.72Z"/><path class="cls-2" d="M17.86,4.13a.45.45,0,1,1,.45.42A.42.42,0,0,1,17.86,4.13Zm.08.76h.72V7.75h-.72Z"/><path class="cls-2" d="M21.38,6.17a.64.64,0,1,0-1.28,0V7.75h-.72V4.89h.72v.36a1.06,1.06,0,0,1,.86-.4A1.11,1.11,0,0,1,22.1,6.08V7.75h-.72Z"/><path class="cls-2" d="M23.91,4.85a1.1,1.1,0,0,1,.94.45V4.89h.73V7.77a1.3,1.3,0,0,1-1.41,1.39c-.81,0-1.37-.4-1.44-1.06h.72a.73.73,0,0,0,1.4-.33V7.33a1.11,1.11,0,0,1-.94.47A1.36,1.36,0,0,1,22.6,6.31,1.34,1.34,0,0,1,23.91,4.85Zm.19.63a.77.77,0,0,0-.76.83.78.78,0,0,0,.76.85.77.77,0,0,0,.75-.84A.77.77,0,0,0,24.1,5.48Z"/><path class="cls-2" d="M28.62,7.8a1.13,1.13,0,0,1-1.25-1h.72a.48.48,0,0,0,.52.38c.28,0,.44-.13.44-.29,0-.51-1.62-.19-1.62-1.24,0-.47.43-.85,1.13-.85a1,1,0,0,1,1.15.94H29c0-.22-.19-.37-.48-.37s-.4.11-.4.27c0,.52,1.58.2,1.6,1.25C29.74,7.43,29.31,7.8,28.62,7.8Z"/><path class="cls-2" d="M31.61,7.8a1.4,1.4,0,0,1-1.45-1.48,1.47,1.47,0,0,1,2.94,0A1.43,1.43,0,0,1,31.61,7.8Zm0-.63a.76.76,0,0,0,.74-.85.74.74,0,1,0-1.46,0C30.89,6.89,31.22,7.17,31.61,7.17Z"/><path class="cls-2" d="M34.9,7.8a1.4,1.4,0,0,1-1.45-1.48,1.47,1.47,0,0,1,2.94,0A1.43,1.43,0,0,1,34.9,7.8Zm0-.63a.77.77,0,0,0,.75-.85.74.74,0,1,0-1.47,0C34.18,6.89,34.51,7.17,34.9,7.17Z"/><path class="cls-2" d="M38.93,6.17a.64.64,0,1,0-1.28,0V7.75h-.72V4.89h.72v.36a1.06,1.06,0,0,1,.86-.4,1.11,1.11,0,0,1,1.14,1.23V7.75h-.72Z"/></g></g></svg>