<svg xmlns="http://www.w3.org/2000/svg" viewBox="0 0 30.95 24.22"><defs><style>.cls-1{fill:#fa5;}</style></defs><g id="Layer_2" data-name="Layer 2"><g id="Option_1" data-name="Option 1"><path class="cls-1" d="M10.45,13.88A4.16,4.16,0,1,0,6.29,9.73,4.17,4.17,0,0,0,10.45,13.88Zm0-7.15a3,3,0,1,1-3,3A3,3,0,0,1,10.45,6.73Z"/><path class="cls-1" d="M30.44,17.14H29.12V1h1.32A.5.5,0,0,0,31,.5a.51.51,0,0,0-.51-.5H.5A.51.51,0,0,0,0,.5.5.5,0,0,0,.5,1H1.83V17.14H.5a.51.51,0,0,0,0,1H5.07a6,6,0,0,0-.52,2.43v3.1a.54.54,0,0,0,.54.54H15.81a.54.54,0,0,0,.53-.54v-3.1a5.79,5.79,0,0,0-.52-2.43H30.44a.51.51,0,1,0,0-1Zm-15.17,6H5.62V20.58a4.84,4.84,0,0,1,4.83-4.83A4.77,4.77,0,0,1,13.62,17a.43.43,0,0,0,.13.14l.1.08a4.78,4.78,0,0,1,1.42,3.41Zm12.84-6H15.24c-.12-.16-.24-.31-.37-.46l5.32-6.37a.61.61,0,0,0-.93-.78L14,15.86a5.9,5.9,0,0,0-8.33,1.28H2.83V1H28.11Z"/><path class="cls-1" d="M16.27,4.63h8.85a.57.57,0,1,0,0-1.14H16.27a.57.57,0,1,0,0,1.14Z"/><path class="cls-1" d="M25.12,6.52H21a.57.57,0,0,0,0,1.14h4.08a.57.57,0,0,0,0-1.14Z"/></g></g></svg>