<svg xmlns="http://www.w3.org/2000/svg" viewBox="0 0 223.18 158.84"><defs><style>.cls-1{isolation:isolate;}.cls-12,.cls-2{fill:#75c189;}.cls-2{opacity:0.25;}.cls-3{fill:#eaeaea;}.cls-25,.cls-3{mix-blend-mode:multiply;}.cls-4{fill:#72787a;}.cls-5{fill:#9b9e9f;}.cls-23,.cls-6{fill:#303e68;}.cls-7{fill:#fff;}.cls-8{fill:#fa5;}.cls-9{fill:#bc926d;}.cls-10{fill:#826239;}.cls-11{fill:#82534b;}.cls-13{fill:#59847a;}.cls-14{fill:#9c653f;}.cls-15{fill:#b7331d;}.cls-16{fill:#fabcaa;}.cls-17{fill:#ce788d;}.cls-17,.cls-20,.cls-23{opacity:0.5;}.cls-18,.cls-20{fill:#bf6179;}.cls-19{fill:#e67779;}.cls-21{fill:#e55748;}.cls-22{fill:#425989;}.cls-24{fill:#202c51;}.cls-25{fill:#dfdee9;}.cls-26{fill:#626b6d;}.cls-27{fill:#585d5e;}.cls-28{fill:#4f5354;}</style></defs><g class="cls-1"><g id="Layer_2" data-name="Layer 2"><g id="Option_1" data-name="Option 1"><path class="cls-2" d="M123.68,2.87C61.2-6.17,31.18,9,31.18,9s-43.73,14.16-27.61,70C16.4,123.52,79,167.43,114.33,157.39s35-29.23,75.39-51.12,35-44.67,30.1-56.53C219.82,49.74,204.18,14.52,123.68,2.87Z"/><path class="cls-3" d="M124.68,135.86c-20.79,2.71-71.5.79-85.74-4.94s.38-9.73,32.32-11.74,61.82-7,81.06-5.46,38.45,4.27,31.79,12.43-20.47,6.59-36.44,8S138.91,134,124.68,135.86Z"/><polygon class="cls-4" points="132.59 65.63 116.61 65.63 120.97 56.18 128.23 56.18 132.59 65.63"/><rect class="cls-5" x="98.74" y="22.09" width="51.68" height="35.28" rx="2"/><rect class="cls-6" x="99.89" y="23.12" width="49.37" height="27.45" rx="2"/><rect class="cls-7" x="105.56" y="24.46" width="36.9" height="24.86" rx="1.09"/><path class="cls-8" d="M112.42,24.46V49.33h-5.77a1.09,1.09,0,0,1-1.09-1.09V25.55a1.09,1.09,0,0,1,1.09-1.09Z"/><rect class="cls-2" x="114.08" y="27.65" width="24.73" height="4.58" rx="1.2"/><rect class="cls-2" x="114.08" y="34.52" width="24.73" height="8.12" rx="1.2"/><path class="cls-2" d="M138.81,46.73v2.6H114.08v-2.6a.82.82,0,0,1,.82-.82H138A.82.82,0,0,1,138.81,46.73Z"/><path class="cls-7" d="M110.06,28.71a1.07,1.07,0,1,1-2.13,0,1.07,1.07,0,0,1,2.13,0Z"/><path class="cls-7" d="M109.92,35.58a1.07,1.07,0,1,1-2.13,0,1.07,1.07,0,0,1,2.13,0Z"/><path class="cls-4" d="M125.94,54.05a1.44,1.44,0,1,1-1.44-1.44A1.43,1.43,0,0,1,125.94,54.05Z"/><path class="cls-7" d="M109.92,47a1.07,1.07,0,1,1-2.13,0,1.07,1.07,0,0,1,2.13,0Z"/><path class="cls-4" d="M160.27,63.73l-1.7-.86,9.68-19.09c-2.42-7.09-6-17.5-6.26-18.13a.94.94,0,0,0,.9.54l0-1-.9-.3.9-.65c.69,0,.84.42,1.2,1.43.19.51.44,1.24.75,2.11.61,1.75,1.41,4.08,2.21,6.41l3.18,9.31.13.38Z"/><path class="cls-5" d="M155.67,64.69c0-3.47,8.79-3.52,8.79-.14Z"/><circle class="cls-4" cx="169.07" cy="43.83" r="2.15"/><path class="cls-4" d="M160.49,25.11c1.13,2.49,4.69,1.07,3.61-1.8Z"/><path class="cls-4" d="M153.49,64.55h12.59a1.23,1.23,0,0,1,1.23,1.23v.11a0,0,0,0,1,0,0h-15a0,0,0,0,1,0,0v-.11A1.23,1.23,0,0,1,153.49,64.55Z"/><path class="cls-5" d="M163.21,24.21l-4.51,2.2-2.91-5.95,4.51-2.2a3.31,3.31,0,0,1,2.91,5.95Z"/><polygon class="cls-4" points="157.66 32.97 149.97 17.24 157.99 19.38 160.9 25.34 157.66 32.97"/><rect class="cls-5" x="144.72" y="24.67" width="17.67" height="1.13" rx="0.52" transform="translate(108.86 -123.82) rotate(63.98)"/><rect class="cls-9" x="80.51" y="65.66" width="97.24" height="11.25" rx="0.43"/><rect class="cls-10" x="134.42" y="67.68" width="37.92" height="6.95" rx="1.6"/><path class="cls-9" d="M154.84,71.1a1.46,1.46,0,1,1-1.45-1.46A1.45,1.45,0,0,1,154.84,71.1Z"/><rect class="cls-10" x="93.31" y="67.68" width="37.92" height="6.95" rx="1.6"/><path class="cls-9" d="M113.73,71.1a1.46,1.46,0,1,1-1.46-1.46A1.46,1.46,0,0,1,113.73,71.1Z"/><rect class="cls-10" x="96.42" y="76.91" width="68.9" height="3.06"/><path class="cls-9" d="M167.4,77.54l8.06,44.37a.65.65,0,0,1,0,.24c-.06.39-.32,1.41-1.5.64a.75.75,0,0,1-.32-.44L161.76,77.84a.76.76,0,0,1,.75-1l4.14,0A.76.76,0,0,1,167.4,77.54Z"/><path class="cls-9" d="M88,77.54,79.91,121.9a.71.71,0,0,0,0,.25c.06.39.33,1.41,1.51.64a.78.78,0,0,0,.31-.44l11.89-44.5a.77.77,0,0,0-.75-1l-4.13,0A.77.77,0,0,0,88,77.54Z"/><path class="cls-11" d="M92,72.09,92,71.83c.52-.16,5-1.66,3.93-5.9s-1.16-7.83,2.17-11.24l.19.19c-3.23,3.32-3.17,6.79-2.09,11C97.32,70.34,92.58,71.92,92,72.09Z"/><path class="cls-8" d="M67.36,108.59l-2.12,15.16a2.43,2.43,0,0,1-1.13,1.76c-1,.65-3.12,1.4-7.19,1.49H56c-4-.09-6-.8-7.12-1.44a2.54,2.54,0,0,1-1.2-1.81l-2.11-15.16,10.06-.2.83,0,.82,0Z"/><path class="cls-10" d="M67.34,108.58c0,1-4.87,1.83-10.88,1.83s-10.88-.82-10.88-1.83,4.87-1.83,10.88-1.83S67.34,107.57,67.34,108.58Z"/><path class="cls-12" d="M53,16.26c.13-.11-.9,6.65.87,10.12a.24.24,0,0,1,0,.22c-.43.65-2.64,4.14-2,4.52a2,2,0,0,0,1.24.23.22.22,0,0,1,.25.21c0,1.32.25,7.22.08,7.76s-2.73,2.63-2.22,3,2.22-.69,2.36-.14.19,3.06-.32,3.43-2,.69-1.53.92,1.3-.27,1.44.47a12.13,12.13,0,0,1-.84,4.44A14.19,14.19,0,0,0,51,55.65a.23.23,0,0,1-.36.17c-1.48-1.2-6.73-5.53-6.29-6.69.51-1.34,1.3-3.38.51-5.18a19.25,19.25,0,0,1-1-3.05.23.23,0,0,1,.4-.19c.57.74,1.42,1.62,2.15,1.34,1.2-.47-2.27-2.32-2.88-5.56-.52-2.81,1.26-6.4,1.74-7.29a.23.23,0,0,1,.31-.09c.5.3,1.79,1,2.12.2.42-1-1-3.38-.69-4.44A25,25,0,0,1,53,16.26Z"/><path class="cls-13" d="M55.23,108.17A.22.22,0,0,1,55,108c-.55-1.75-.64-6.71-.75-12.45-.15-8.43-.34-18.92-2.07-23.66a50.24,50.24,0,0,0-10.5-16.59c-.68-.67-2-1.78-3.55-3.05-3.37-2.8-7.56-6.27-9-8.56a.24.24,0,0,1,.08-.32.22.22,0,0,1,.31.07c1.4,2.23,5.73,5.82,8.89,8.45C40,53.18,41.32,54.29,42,55A50.5,50.5,0,0,1,52.63,71.74c1.75,4.82,1.94,15.35,2.1,23.81.1,5.7.19,10.63.72,12.32a.23.23,0,0,1-.15.29Z"/><path class="cls-13" d="M51.76,64.15a0,0,0,0,0,0,0,43.56,43.56,0,0,0,.79,7.45.43.43,0,0,1,0,.24l0-.05A50.66,50.66,0,0,0,41.94,55.15c-2.07-2.08-10-7.94-12.33-11.33,0,0,0-.07.05,0,2.16,1.85,9.7,4.44,10.71,6s2.5,4.58,3.29,5.37-1-3.47-1.38-4.27c0,0,0-.06,0,0,.74.56,5,3.83,8.5,6.07C54.66,59.36,56,65.16,51.76,64.15Z"/><path class="cls-13" d="M82.59,40.18a.1.1,0,0,0-.07-.1c-.51-.19-3.45-1.24-4.64-.46a21.21,21.21,0,0,0-3.82,3.75c-.24.38.06-2,.15-2.71a.1.1,0,0,0-.15-.1c-.84.37-4.73,2.12-5.28,3s-.49,5.83-1.08,5.86-1.53-.94-1.83-1.23a.09.09,0,0,0-.15,0A15.91,15.91,0,0,0,63.37,53a.09.09,0,0,0,.07.11c.33.11,1.5.51,1.41.81s-2.29,1.15-2.32,2,0,5.56,0,5.35,6.21-7.64,10.55-10.46a64.4,64.4,0,0,0,9.18-7.82.09.09,0,0,0,0-.06Z"/><path class="cls-12" d="M62.53,61.32c1.8-3.68,11.35-9.1,13.54-11.08l2.19-4.93S74.12,46.8,73.05,48a31.26,31.26,0,0,1-2.85,3,14.88,14.88,0,0,0-2.92,2.5,29.34,29.34,0,0,0-3.5,5A14.85,14.85,0,0,0,62.53,61.32Z"/><path class="cls-13" d="M59.4,50.39c-.33-1-.65-2-1.16-.75a18.86,18.86,0,0,0-.78,3.61,30.27,30.27,0,0,1,.46,4.22c-.17.17-1.31-1.44-1.5-1.72a0,0,0,0,0-.05,0c-.18.51-1.75,5-1.23,8,.56,3.15,2.69,4.54,3.61,6.95a14.43,14.43,0,0,1,1,3.8l-1.25-14.4Z"/><path class="cls-12" d="M60.94,50.79a11.78,11.78,0,0,1,.17-1.17c.61-3.33,1.11-5.87,0-5.25s-2.4,7.47-2.5,8.41a13.4,13.4,0,0,0,.31,2.95l-.73-1.22a20.8,20.8,0,0,1-.73,4.28c-.62,2.15-1.56,3.71-.49,5.93a31.13,31.13,0,0,1,2.84,9.79s-.13-11.7.32-15.79C60.45,55.51,60.8,52.11,60.94,50.79Z"/><path class="cls-13" d="M37.69,62.06c-1.45-2.44-3.35-5.28-3.12-5.69s1.54,1.36,3,2.21,2.8,1.63,2.85,2.17-.64,3.44-.37,3.85,2.17-.86,2.67-.41a19.71,19.71,0,0,1,2.62,4.92,16.6,16.6,0,0,1-1.67,3s2.49.31,3,1.22a5.12,5.12,0,0,1,.09,4.61c-.86,2-2.71,4.11-2.62,6.46L41.53,68.21Z"/><path class="cls-12" d="M34.64,57s0,0,0,0c.63,3,3.14,6.54,4.06,8.76s2.13,7.88,3.19,10.38,2.48,10.46,2.48,10.46-.21-13.45-.53-15A24.62,24.62,0,0,0,41,65.92c-.47-.61-1.9-3.64-2.92-5S35,57.37,34.64,57Z"/><path class="cls-12" d="M53.5,109a.29.29,0,0,1-.24-.13c-.19-.33-4.73-8.08-.72-25.76C55.6,69.59,64,57.91,67.46,53.52a.26.26,0,0,1,.38,0,.27.27,0,0,1,0,.38c-3.45,4.36-11.79,16-14.82,29.37-4,17.44.61,25.28.66,25.35a.28.28,0,0,1-.09.38A.43.43,0,0,1,53.5,109Z"/><path class="cls-12" d="M53.84,108.72a.25.25,0,0,1-.16-.06C48.2,104.4,44.74,89.24,44.6,88.6c-.23-1-.48-1.92-.74-2.89a47.92,47.92,0,0,1-1.82-10,.28.28,0,0,1,.25-.3.29.29,0,0,1,.3.25,46.93,46.93,0,0,0,1.79,9.93c.27,1,.52,1.89.75,2.91.14.63,3.56,15.61,8.88,19.75a.27.27,0,0,1,.05.38A.29.29,0,0,1,53.84,108.72Z"/><path class="cls-12" d="M4.21,47.24c4.12.14,12,2.43,12.3,2.54.17.21,2.59,3.48,3.53,3.7s-1.76-3.61-.55-3.38,8.56,3.85,9.4,4.68S33,61.45,33.47,62.2a0,0,0,0,1,0,.06,73.28,73.28,0,0,1-8.57-2.48C22,58.62,17,55.38,14.3,53.72c-2.48-1.55-9.12-5.78-10.11-6.41A0,0,0,0,1,4.21,47.24Z"/><path class="cls-12" d="M57.46,109.76a.13.13,0,0,1-.14-.12,88.48,88.48,0,0,0-3.26-17.13C50.18,78.87,44.66,70.42,35,63.36,32.41,61.46,13.28,51,7.59,48.89a.14.14,0,1,1,.09-.26c5.7,2.08,24.88,12.6,27.49,14.51,9.7,7.1,15.25,15.59,19.15,29.29a88.91,88.91,0,0,1,3.27,17.19.12.12,0,0,1-.13.14Z"/><path class="cls-12" d="M55.16,109.21a.24.24,0,0,1-.14,0,.27.27,0,0,1-.09-.37c3-4.64,4.75-27.73,4.23-39.23a.28.28,0,0,1,.55,0c.46,10.23-1.09,34.51-4.32,39.54A.28.28,0,0,1,55.16,109.21Z"/><path class="cls-12" d="M55.79,109.14h0a.13.13,0,0,1-.09-.17A67.38,67.38,0,0,0,55,75c-5-17.35-8.25-41.74-2.63-58.15a.13.13,0,1,1,.25.09c-5.59,16.35-2.3,40.67,2.64,58a67.74,67.74,0,0,1,.7,34.11A.14.14,0,0,1,55.79,109.14Z"/><path class="cls-13" d="M49.58,35.1a.21.21,0,0,1-.1,0,21.74,21.74,0,0,1-2.93-4,.14.14,0,0,1,.05-.19.15.15,0,0,1,.19.06,21.67,21.67,0,0,0,2.89,3.95.14.14,0,0,1,0,.19A.13.13,0,0,1,49.58,35.1Z"/><path class="cls-13" d="M25.74,58a.12.12,0,0,1-.12-.07,26,26,0,0,0-4.28-5.38.13.13,0,1,1,.18-.2,26.2,26.2,0,0,1,4.34,5.45.15.15,0,0,1-.06.19Z"/><path class="cls-13" d="M49.58,40.93h0a.14.14,0,0,1-.07-.18c.09-.2.24-.51.42-.87.65-1.34,1.87-3.84,1.84-4.62a.14.14,0,0,1,.13-.15.13.13,0,0,1,.14.13C52,36,51.09,38,50.12,40c-.17.36-.32.66-.41.86A.14.14,0,0,1,49.58,40.93Z"/><path class="cls-12" d="M69.26,52a.14.14,0,0,1-.13-.15c.23-1.72,2.46-6.07,2.56-6.25a.13.13,0,0,1,.18-.06.14.14,0,0,1,.06.18s-2.31,4.5-2.53,6.17A.14.14,0,0,1,69.26,52Z"/><path class="cls-14" d="M50.58,108.93c1.3-1.68,3.61-.78,3.68-.69s2-1.18,3.42.61a2.18,2.18,0,0,1,2-.65,2.69,2.69,0,0,1,1.93.94,21.46,21.46,0,0,1-5.54.63A26.18,26.18,0,0,1,50.58,108.93Z"/><path class="cls-15" d="M130.11,116.41c.9.67-3.53,5.18-7.35,5.79l-.85-1.07s-.38-3.15-.38-3.1,3.94-2.88,3.94-2.88Z"/><path class="cls-16" d="M139.8,118.87a25.6,25.6,0,0,1-3.44,2.27c-3.89,2.17-7.09,7.08-9.13,6.2s-3.24-7-4.35-8.24l1.72-1.9.38-.06,2.58-.36a10.59,10.59,0,0,0,.95,1.29c1,1.09,1.87,1,4.24.84,3.05-.23,7.77-3.8,8.56-2.82C141.81,116.7,141.25,117.68,139.8,118.87Z"/><path class="cls-17" d="M139.8,118.87a25.6,25.6,0,0,1-3.44,2.27c-3.89,2.17-7.09,7.08-9.13,6.2s-3.24-7-4.35-8.24l2.1-2,2.58-.36a10.59,10.59,0,0,0,.95,1.29c-.26,1.25-1.19,4-.88,5.22.35,1.34,1.9,1.41,2.91.71a58,58,0,0,1,6.47-3.91C137.87,119.76,139,119.23,139.8,118.87Z"/><path class="cls-18" d="M130.11,116.41c-.93,0-5.38,1.21-8.2,4.72a53.38,53.38,0,0,1-14.31-20.6l8.48-5s7.17,12.31,9.4,15.6A27.2,27.2,0,0,0,130.11,116.41Z"/><path class="cls-15" d="M112.7,119.65c-.41,1.66,8.26,4.67,10.92,2.6l-.91-6.44L115,116Z"/><path class="cls-16" d="M129.85,130.91a4.11,4.11,0,0,1-2.1.34c-5.28,0-4-1.6-9.24-2s-6.86-1.24-6.74-3.06c.11-1.61,2.57-5.55,3.36-7.7a5.26,5.26,0,0,0,.22-.74l4,1.45,1.17.43a13.73,13.73,0,0,0-.27,2.52c0,2,1,3.31,3.92,4.6C127.32,128.15,131,130.14,129.85,130.91Z"/><path class="cls-17" d="M129.85,130.91a4.11,4.11,0,0,1-2.1.34c-5.28,0-4-1.6-9.24-2s-6.86-1.24-6.74-3.06c.11-1.61,2.57-5.55,3.36-7.7l4.2.71,1.17.43a13.73,13.73,0,0,0-.27,2.52,8.19,8.19,0,0,0-4.94,1.88c-2,2,1.25,3.66,3.84,4.1s6.23,2.41,7.69,2.57C127.87,130.84,129.2,130.89,129.85,130.91Z"/><path class="cls-19" d="M125.57,105.72c-1.67,4.49-2.27,13.1-1.95,16.52a8,8,0,0,0-5.39-2.9,14.62,14.62,0,0,0-5.53.31l3.88-25-9.11-1.11L102.93,93l-1.75-2.52-6.41-9.24,5.26-3.1,1.18-.7c2.32,1.72,21.38,4.82,26.54,7.64S127.23,101.22,125.57,105.72Z"/><path class="cls-20" d="M118.64,108.62c-1.86,6.71-.24,10.66-.24,10.66l-.17.06a14.62,14.62,0,0,0-5.53.31l3.88-25-9.11-1.11-6.29-3.08-6.77-3.32.43-9,4.8-.86c.12.3.25.59.39.88,3.32,7,13.38,13,22.66,15.74C122.69,93.86,120.5,101.9,118.64,108.62Z"/><path class="cls-21" d="M119.17,94.55h-.09a.14.14,0,0,1,0-.27s0,0,.08,0a9,9,0,0,0,4.38-1.18.14.14,0,0,1,.19,0,.14.14,0,0,1,0,.19A9.27,9.27,0,0,1,119.17,94.55Z"/><path class="cls-5" d="M140.22,65.69c1.37-2.27,6.05-3.45,8.8,0Z"/><path class="cls-16" d="M134.93,63.51c3-1.88,9.24-2.57,11.08-1.84s3.3,2.36,2.64,2.85-2.71-.8-3.92-.32-2.85,1.36-2.85,1.36-2.12,1.56-7.22,1.39Z"/><path class="cls-22" d="M136.73,68s-15,3.75-19,4.21c-2.89.33-8.52-4.32-11.58-7.08l0,0c-.78-.71-1.39-1.28-1.74-1.61l0,0-.29-.28v0a16.46,16.46,0,0,1-2,4.28c-1.39,2-2.08,6.39-1.62,7.17l.06.11c.54.8,2,2,2.16,2.67s-1,2.92-6.11,4.4L91.1,72.58l-4.06-7,5.43-8,2.64-3.87,3.74-5.51c3.2,0,10.05,6.67,19.45,16.07l15.79-2.83a8.14,8.14,0,0,1,2.33,4.42A13.12,13.12,0,0,1,136.73,68Z"/><path class="cls-23" d="M136.64,67.91s-15,3.75-19,4.21c-2.88.33-8.52-4.32-11.58-7.08l0,0c-.63-.62-1.22-1.17-1.73-1.61l0,0-.3-.26c-.72-.6-1.23-.93-1.43-.86-1.11.42-3,4.93-3.54,7.36a5.27,5.27,0,0,0,1.39,5.06c.53.8,2,2,2.15,2.67s-1,2.92-6.11,4.4L91,72.51l-.79-2.2,2.17-12.75.4-2.39L95,53.69l4.86-3.24c2.15,1.32,5.62,8.13,7.57,11s7.64,8.76,10.07,8.89c2.15.13,15.71-3.61,18.81-4.47A12.05,12.05,0,0,1,136.64,67.91Z"/><path class="cls-24" d="M117.07,66.23H117a.14.14,0,0,1-.07-.18A13.7,13.7,0,0,1,118,64.3a.13.13,0,0,1,.19,0,.14.14,0,0,1,0,.19,16.26,16.26,0,0,0-1,1.67A.14.14,0,0,1,117.07,66.23Z"/><path class="cls-24" d="M118.82,66.16a.13.13,0,0,1-.13-.09,10.54,10.54,0,0,0-.47-1.26.14.14,0,0,1,0-.19.15.15,0,0,1,.19,0A9.69,9.69,0,0,1,119,66a.14.14,0,0,1-.09.17Z"/><path class="cls-24" d="M104,63.3a.12.12,0,0,1-.1,0c-.19-.21-1.87-2.09-2-2.3a.14.14,0,0,1,0-.19.13.13,0,0,1,.19,0c.1.15,1.24,1.45,2,2.28a.14.14,0,0,1,0,.19A.12.12,0,0,1,104,63.3Z"/><path class="cls-24" d="M101,75.94h0a18.52,18.52,0,0,0-3.77-1,.15.15,0,0,1-.11-.16.13.13,0,0,1,.15-.11,18.52,18.52,0,0,1,3.84,1,.14.14,0,0,1,.07.18A.16.16,0,0,1,101,75.94Z"/><path class="cls-16" d="M100.69,30.52c.18,2.15,1.91,4.76,2.19,5.21s-1.49,1.07-1.49,1.07.55,4.27-3,5.35l-3.36-6.37,2.39-4.39Z"/><path class="cls-8" d="M101.77,49c-.56,4.07-4.54,5-5.72,9.95s2.38,5.46,2,10.12-4.88,6.07-4.88,6.07l0,0c-.71-.53-12.31-9.2-18-13.48C73.22,60.23,72,59.28,72,59.27s-.75-1.88,3.65-4.2l.08,0c4.22-2.34-3-7.19.58-11.73,3.16-4,6,1.76,7.71-10s10-11.55,12.75-9.54a10.79,10.79,0,0,1,3.24.73c1.31.56,2.51,1.52,2.46,3.19-.1,3.19-1.48,5.27-4.59,8.72S102.32,44.94,101.77,49Z"/><path class="cls-25" d="M101.77,49c-.56,4.07-4.54,5-5.72,9.95s2.38,5.46,2,10.12-4.88,6.07-4.88,6.07l0,0L85.84,58.67s-1.8-3.52-.28-6.62,5.79-5.19,8.11-9.08.92-7.59,1.71-9.86,4-.19,5.32-3.8c1.06-2.85-.16-4.34-.72-4.85,1.31.56,2.51,1.52,2.46,3.19-.1,3.19-1.48,5.27-4.59,8.72S102.32,44.94,101.77,49Z"/><path class="cls-25" d="M82.83,53.72a4.33,4.33,0,0,1-1,5.55l-6.74,2.38C73.22,60.23,72,59.28,72,59.27s-.75-1.88,3.65-4.2l.08,0c2.91-.46,4.56-1.69,3.56-4.23C78.15,48,79,46.86,81.12,45.24s4.81-3.38,4.63-6.43a6,6,0,0,1-3.06,7.27C80.07,47.5,81.07,50.2,82.83,53.72Z"/><path class="cls-16" d="M99.31,35.15c-.3-1.25-1.58-1.93-2.38-.49-.7,1.25,1,3.84,1,3.84Z"/><path class="cls-26" d="M80,129.14a5.92,5.92,0,0,1,5.91-5.91h4.49A4.55,4.55,0,0,0,95,118.69v-15.4h1.36v15.4a5.91,5.91,0,0,1-5.9,5.9H85.93a4.55,4.55,0,0,0-4.55,4.55Z"/><path class="cls-27" d="M100.2,101.61a3.19,3.19,0,0,1-1.85,2.71,5.7,5.7,0,0,1-2.7.65c-2.52,0-4.57-1.5-4.57-3.36Z"/><path class="cls-26" d="M82.88,131.11a2.29,2.29,0,1,1-2.29-2.29A2.28,2.28,0,0,1,82.88,131.11Z"/><path class="cls-26" d="M109.93,129.14a4.55,4.55,0,0,0-4.55-4.55h-4.49a5.91,5.91,0,0,1-5.91-5.9h1.36a4.55,4.55,0,0,0,4.55,4.54h4.49a5.92,5.92,0,0,1,5.91,5.91Z"/><path class="cls-26" d="M112.81,131.11a2.3,2.3,0,1,1-2.3-2.29A2.29,2.29,0,0,1,112.81,131.11Z"/><path class="cls-26" d="M104,131.16a2.3,2.3,0,1,1-2.29-2.29A2.3,2.3,0,0,1,104,131.16Z"/><path class="cls-26" d="M102.42,130.24h-1.36v-3.11a2.36,2.36,0,0,0-2.36-2.36A3.73,3.73,0,0,1,95,121V119h1.36V121a2.37,2.37,0,0,0,2.36,2.37,3.73,3.73,0,0,1,3.72,3.72Z"/><circle class="cls-26" cx="89.62" cy="131.16" r="2.29"/><path class="cls-26" d="M90.23,130.24H88.87v-3.11a3.73,3.73,0,0,1,3.72-3.72A2.37,2.37,0,0,0,95,121V119h1.36V121a3.73,3.73,0,0,1-3.73,3.73,2.36,2.36,0,0,0-2.36,2.36Z"/><path class="cls-28" d="M98.35,104.32a5.7,5.7,0,0,1-2.7.65c-2.52,0-4.57-1.5-4.57-3.36H95.7A3.06,3.06,0,0,0,98.35,104.32Z"/><path class="cls-7" d="M119.09,94.42c-7.83,8.75-24.22,7.87-31.63,7.31S77.64,99.28,75,93.26s-6-20.93-5-28.89,7.33-8.72,12.27-7.88a9,9,0,0,1,2.57.93,15.52,15.52,0,0,1,6,5.83c2,3.48,4.81,13.15,7.45,19.54s7.09,9.26,10.24,10.38a36.63,36.63,0,0,0,8.13,1.15C118,94.4,119.09,94.42,119.09,94.42Z"/><path class="cls-25" d="M119.09,94.42c-7.83,8.75-24.22,7.87-31.63,7.31S77.64,99.28,75,93.26s-6-20.93-5-28.89,7.33-8.72,12.27-7.88a9,9,0,0,1,2.57.93A5.34,5.34,0,0,0,81.35,59c-2.57,2.3,1.89,31.08,5.13,35.47s12.63,5.06,17.7,4.19c4.12-.71,10.24-3.34,12.39-4.3C118,94.4,119.09,94.42,119.09,94.42Z"/></g></g></g></svg>