<svg xmlns="http://www.w3.org/2000/svg" viewBox="0 0 281.92 192.06"><defs><style>.cls-1{isolation:isolate;}.cls-2{opacity:0.7;}.cls-2,.cls-4{mix-blend-mode:multiply;}.cls-3,.cls-4{fill:#eaeaea;}.cls-5{fill:#b2bbba;}.cls-6{fill:#e1e1e1;}.cls-7{fill:#c3c3c3;}.cls-8{fill:#f6f6f6;}.cls-9{fill:#f3f3f3;}.cls-10{fill:#dad4d4;}.cls-11{fill:#fff;}.cls-12{fill:#262d39;}.cls-13{fill:#ffdbbb;}.cls-14{fill:#fa5;}.cls-15{fill:#beb9b9;}.cls-16{fill:#ef7677;}.cls-17{fill:#e58f41;}.cls-18{fill:#fc8283;}.cls-19{fill:#8f8f8f;}.cls-20{fill:#ffeded;}.cls-21{fill:#7fb6b5;}.cls-22{fill:#d5395b;}.cls-23{fill:#e74b67;}.cls-24{fill:#fc797b;}.cls-25{fill:#fca8a9;}.cls-26{fill:#152a5e;}.cls-27{fill:#d9dee9;}.cls-28{fill:#bec5d6;}.cls-29{fill:#051534;}.cls-30{fill:#0e214b;}.cls-31{fill:#1d273e;}.cls-32{fill:#091639;}.cls-33{fill:#01000f;}.cls-34{fill:#080927;}.cls-35{fill:#c97936;}.cls-36{fill:#f4cb52;}.cls-37{fill:#f7d785;}.cls-38{fill:#f5bb34;}.cls-39{fill:#f67591;}.cls-40{fill:#197e6a;}.cls-41{fill:#2aab90;}.cls-42{fill:#116855;}.cls-43{fill:#81dbca;}.cls-44{fill:#4ba5ee;}.cls-45{fill:#3896d7;}.cls-46{fill:#5cb1ea;}.cls-47{fill:#e7e7e7;}.cls-48{fill:#103853;}.cls-49{fill:#26475d;}</style></defs><g class="cls-1"><g id="Layer_2" data-name="Layer 2"><g id="Option_1" data-name="Option 1"><g class="cls-2"><path class="cls-3" d="M30.7,75.94c5.18-3.6,5.34-12.67,3-19.26a44.56,44.56,0,0,1-2.32-11.55c-2.48-33,33-45.35,57-45.13,17.34.16,32.88.24,58.85,20.21,18,13.83,34,4.93,44.27.72,14.34-5.86,27.35-4,36.68,1.73,19.46,11.87,19.14,28.7,17.38,39.51-.87,5.37,2.11,9.64,6.06,12.09,53.46,33.27,28.48,101.48-16.12,102.92-13.45.43-115.21.82-162.92-.84C-4,173.67-23.3,113.58,30.7,75.94Z"/></g><path class="cls-4" d="M258.29,188.22c0,3.11-54.62,3.84-122,3.84s-122-.73-122-3.84,54.62-4.44,122-4.44S258.29,185.1,258.29,188.22Z"/><rect class="cls-5" x="214.16" y="97.17" width="6.69" height="89.74" transform="translate(435.02 284.09) rotate(180)"/><rect class="cls-6" x="209.61" y="97.17" width="6.69" height="89.74" transform="translate(425.9 284.09) rotate(180)"/><rect class="cls-7" x="196.18" y="97.17" width="6.69" height="89.74" transform="translate(399.05 284.09) rotate(180)"/><rect class="cls-8" x="191.62" y="97.17" width="6.69" height="89.74" transform="translate(389.93 284.09) rotate(180)"/><rect class="cls-5" x="74.49" y="99.35" width="6.69" height="86.99" transform="translate(155.67 285.69) rotate(180)"/><rect class="cls-6" x="69.93" y="99.35" width="6.69" height="86.99" transform="translate(146.55 285.69) rotate(180)"/><rect class="cls-7" x="56.51" y="99.35" width="6.69" height="86.99" transform="translate(119.7 285.69) rotate(180)"/><rect class="cls-8" x="51.95" y="99.35" width="6.69" height="86.99" transform="translate(110.59 285.69) rotate(180)"/><path class="cls-7" d="M56.93,94.82H238.79V100h-6.74v9.09H64.69c-1,0-2-1.16-2-2.61V100h-5.8Z"/><rect class="cls-9" x="48.79" y="97.51" width="169.08" height="11.58" transform="translate(266.66 206.6) rotate(180)"/><rect class="cls-10" x="48.78" y="97.64" width="169.16" height="5.64"/><rect class="cls-11" x="42.74" y="94.8" width="181.93" height="5.42" transform="translate(267.41 195.02) rotate(180)"/><path class="cls-12" d="M112.78,178.62l-.82-1c-.31-.2-.68.07-.68.49v4.64a.52.52,0,0,0,.46.55h1.71a.52.52,0,0,0,.46-.55v-3.52C113.91,179,112.93,178.72,112.78,178.62Z"/><path class="cls-7" d="M132.52,92.31h5.93v-13h16.93v13h5.22a1.26,1.26,0,0,1,0,2.51H132.52a1.26,1.26,0,0,1,0-2.51Z"/><rect class="cls-6" x="135.36" y="79.31" width="17.04" height="15.35" transform="translate(287.77 173.97) rotate(180)"/><path class="cls-9" d="M129.56,94.71h28.08a1.18,1.18,0,0,0,1.18-1.18h0a1.18,1.18,0,0,0-1.18-1.18H129.56a1.18,1.18,0,0,0-1.18,1.18h0A1.18,1.18,0,0,0,129.56,94.71Z"/><rect class="cls-7" x="135.36" y="81" width="17.04" height="7.02" transform="translate(287.77 169.02) rotate(180)"/><rect class="cls-7" x="113.25" y="41.06" width="67.79" height="45.13" rx="20" transform="translate(294.28 127.25) rotate(180)"/><rect class="cls-11" x="110.11" y="41.06" width="67.79" height="45.13" rx="20" transform="translate(288 127.25) rotate(180)"/><rect class="cls-13" x="124.42" y="31.62" width="38.43" height="62.29" rx="17.03" transform="translate(206.4 -80.87) rotate(90)"/><rect class="cls-11" x="127.22" y="36.15" width="32.84" height="53.23" rx="14.55" transform="translate(206.4 -80.87) rotate(90)"/><path class="cls-11" d="M159.73,48.16a.41.41,0,0,1-.41.41.42.42,0,0,1-.41-.41.41.41,0,0,1,.41-.41A.41.41,0,0,1,159.73,48.16Z"/><path class="cls-11" d="M162.31,48.16a.42.42,0,0,0,.41.41.41.41,0,0,0,.41-.41.41.41,0,0,0-.41-.41A.41.41,0,0,0,162.31,48.16Z"/><path class="cls-11" d="M161.43,48.16a.41.41,0,0,1-.41.41.42.42,0,0,1-.41-.41.41.41,0,0,1,.41-.41A.41.41,0,0,1,161.43,48.16Z"/><circle class="cls-14" cx="125.41" cy="55.88" r="1.77"/><path class="cls-14" d="M125.41,58a4.33,4.33,0,0,0-4.48,4h9A4.31,4.31,0,0,0,125.41,58Z"/><path class="cls-15" d="M138.57,53.88h-4.49a.58.58,0,0,1-.57-.57h0a.58.58,0,0,1,.57-.58h4.49a.58.58,0,0,1,.57.58h0A.58.58,0,0,1,138.57,53.88Z"/><path class="cls-15" d="M143,56.27h-8.92a.58.58,0,0,1-.57-.57h0a.57.57,0,0,1,.57-.57H143a.56.56,0,0,1,.57.57h0A.57.57,0,0,1,143,56.27Z"/><path class="cls-15" d="M143.38,53.88h-2.65a.58.58,0,0,1-.57-.57h0a.58.58,0,0,1,.57-.58h2.65a.58.58,0,0,1,.57.58h0A.58.58,0,0,1,143.38,53.88Z"/><path class="cls-15" d="M147.77,53.84h-2.65a.56.56,0,0,1-.57-.57h0a.57.57,0,0,1,.57-.57h2.65a.58.58,0,0,1,.57.57h0A.57.57,0,0,1,147.77,53.84Z"/><path class="cls-15" d="M138.54,58.89h-4.49a.56.56,0,0,1-.57-.57h0a.57.57,0,0,1,.57-.57h4.49a.58.58,0,0,1,.57.57h0A.57.57,0,0,1,138.54,58.89Z"/><path class="cls-15" d="M143.35,58.89H140.7a.56.56,0,0,1-.57-.57h0a.57.57,0,0,1,.57-.57h2.65a.58.58,0,0,1,.57.57h0A.57.57,0,0,1,143.35,58.89Z"/><path class="cls-15" d="M147.73,58.86h-2.65a.58.58,0,0,1-.57-.57h0a.58.58,0,0,1,.57-.57h2.65a.58.58,0,0,1,.58.57h0A.58.58,0,0,1,147.73,58.86Z"/><path class="cls-15" d="M150.81,56.27h-5.69a.57.57,0,0,1-.57-.57h0a.56.56,0,0,1,.57-.57h5.69a.56.56,0,0,1,.57.57h0A.57.57,0,0,1,150.81,56.27Z"/><path class="cls-15" d="M154.37,53.9h-4.49a.58.58,0,0,1-.57-.57h0a.58.58,0,0,1,.57-.57h4.49a.58.58,0,0,1,.57.57h0A.58.58,0,0,1,154.37,53.9Z"/><path class="cls-15" d="M159.18,53.9h-2.65a.58.58,0,0,1-.57-.57h0a.58.58,0,0,1,.57-.57h2.65a.58.58,0,0,1,.57.57h0A.58.58,0,0,1,159.18,53.9Z"/><path class="cls-15" d="M154.34,58.92h-4.49a.58.58,0,0,1-.57-.57h0a.57.57,0,0,1,.57-.57h4.49a.57.57,0,0,1,.57.57h0A.58.58,0,0,1,154.34,58.92Z"/><path class="cls-15" d="M159.15,58.92H156.5a.57.57,0,0,1-.57-.57h0a.56.56,0,0,1,.57-.57h2.65a.57.57,0,0,1,.57.57h0A.58.58,0,0,1,159.15,58.92Z"/><path class="cls-15" d="M163.54,58.88h-2.66a.57.57,0,0,1-.57-.57h0a.58.58,0,0,1,.57-.57h2.66a.58.58,0,0,1,.57.57h0A.57.57,0,0,1,163.54,58.88Z"/><path class="cls-15" d="M158.36,56.27h-5.7a.58.58,0,0,1-.57-.57h0a.57.57,0,0,1,.57-.57h5.7a.57.57,0,0,1,.57.57h0A.58.58,0,0,1,158.36,56.27Z"/><path class="cls-15" d="M138.51,63.63H134a.57.57,0,0,1-.57-.57h0a.58.58,0,0,1,.57-.57h4.49a.57.57,0,0,1,.57.57h0A.56.56,0,0,1,138.51,63.63Z"/><path class="cls-15" d="M143,66H134a.58.58,0,0,1-.57-.58h0a.58.58,0,0,1,.57-.57H143a.58.58,0,0,1,.57.57h0A.58.58,0,0,1,143,66Z"/><path class="cls-15" d="M143.32,63.63h-2.65a.57.57,0,0,1-.57-.57h0a.58.58,0,0,1,.57-.57h2.65a.57.57,0,0,1,.57.57h0A.56.56,0,0,1,143.32,63.63Z"/><path class="cls-15" d="M147.71,63.6h-2.65a.58.58,0,0,1-.57-.57h0a.57.57,0,0,1,.57-.57h2.65a.57.57,0,0,1,.57.57h0A.58.58,0,0,1,147.71,63.6Z"/><path class="cls-15" d="M138.48,68.65H134a.58.58,0,0,1-.57-.57h0a.58.58,0,0,1,.57-.57h4.49a.57.57,0,0,1,.57.57h0A.57.57,0,0,1,138.48,68.65Z"/><path class="cls-15" d="M143.29,68.65h-2.65a.58.58,0,0,1-.57-.57h0a.58.58,0,0,1,.57-.57h2.65a.58.58,0,0,1,.57.57h0A.58.58,0,0,1,143.29,68.65Z"/><path class="cls-15" d="M147.68,68.62H145a.57.57,0,0,1-.57-.57h0a.56.56,0,0,1,.57-.57h2.65a.57.57,0,0,1,.57.57h0A.58.58,0,0,1,147.68,68.62Z"/><path class="cls-15" d="M150.76,66h-5.7a.58.58,0,0,1-.57-.58h0a.58.58,0,0,1,.57-.57h5.7a.58.58,0,0,1,.57.57h0A.58.58,0,0,1,150.76,66Z"/><path class="cls-15" d="M154.31,63.66h-4.49a.58.58,0,0,1-.57-.57h0a.57.57,0,0,1,.57-.57h4.49a.56.56,0,0,1,.57.57h0A.57.57,0,0,1,154.31,63.66Z"/><path class="cls-15" d="M159.12,63.66h-2.65a.58.58,0,0,1-.57-.57h0a.57.57,0,0,1,.57-.57h2.65a.56.56,0,0,1,.57.57h0A.57.57,0,0,1,159.12,63.66Z"/><path class="cls-15" d="M163.51,63.62h-2.65a.57.57,0,0,1-.57-.57h0a.58.58,0,0,1,.57-.57h2.65a.58.58,0,0,1,.57.57h0A.57.57,0,0,1,163.51,63.62Z"/><path class="cls-15" d="M154.28,68.67h-4.49a.57.57,0,0,1-.57-.57h0a.58.58,0,0,1,.57-.57h4.49a.57.57,0,0,1,.57.57h0A.56.56,0,0,1,154.28,68.67Z"/><path class="cls-15" d="M159.09,68.67h-2.65a.57.57,0,0,1-.57-.57h0a.58.58,0,0,1,.57-.57h2.65a.57.57,0,0,1,.57.57h0A.56.56,0,0,1,159.09,68.67Z"/><path class="cls-15" d="M163.48,68.64h-2.65a.57.57,0,0,1-.57-.57h0a.57.57,0,0,1,.57-.57h2.65a.58.58,0,0,1,.57.57h0A.58.58,0,0,1,163.48,68.64Z"/><path class="cls-15" d="M158.3,66h-5.69a.57.57,0,0,1-.57-.58h0a.57.57,0,0,1,.57-.57h5.69a.57.57,0,0,1,.57.57h0A.57.57,0,0,1,158.3,66Z"/><path class="cls-15" d="M138.51,73.45H134a.58.58,0,0,1-.57-.58h0a.58.58,0,0,1,.57-.57h4.49a.57.57,0,0,1,.57.57h0A.57.57,0,0,1,138.51,73.45Z"/><path class="cls-15" d="M143.32,73.45h-2.65a.58.58,0,0,1-.57-.58h0a.58.58,0,0,1,.57-.57h2.65a.57.57,0,0,1,.57.57h0A.57.57,0,0,1,143.32,73.45Z"/><path class="cls-15" d="M147.71,73.41h-2.65a.58.58,0,0,1-.57-.57h0a.58.58,0,0,1,.57-.57h2.65a.58.58,0,0,1,.57.57h0A.58.58,0,0,1,147.71,73.41Z"/><path class="cls-15" d="M154.31,73.47h-4.49a.58.58,0,0,1-.57-.57h0a.58.58,0,0,1,.57-.57h4.49a.57.57,0,0,1,.57.57h0A.57.57,0,0,1,154.31,73.47Z"/><path class="cls-15" d="M159.12,73.47h-2.65a.58.58,0,0,1-.57-.57h0a.58.58,0,0,1,.57-.57h2.65a.57.57,0,0,1,.57.57h0A.57.57,0,0,1,159.12,73.47Z"/><path class="cls-16" d="M119.94,116.39l-12.51,4.55,4.11,57.65,3.18,1.11C117.67,152.71,120.62,113.34,119.94,116.39Z"/><path class="cls-17" d="M110.52,170.46c-.25,3.68-1.75,10.67-1.58,12.45.12,1.22,2.16,1.75,6.76,1.75,5.89,0,8.06-1,7.91-2.71-.1-1.22-7.19-2.08-8.21-2.66s1.44-7.32.44-8.7Z"/><path class="cls-18" d="M135.45,121.43c-.94-1.37-18.41-4.43-23.79-3.79-8.88,1.06-24.79,15.21-24.79,15.21l37.44-1s-1.06,28.21-2.56,46.79c-.06.78,4.61,1.5,4.23.37C125.11,176.43,137.41,124.28,135.45,121.43Z"/><path class="cls-19" d="M121.09,171.3a89.9,89.9,0,0,0-.67,11.31c0,1.23.32,3.16,6.59,2.31,2.22-.3,7.6,1.3,7.6-2,0-1.21-6.79-2.11-7.76-2.78s-.47-6.34.59-8.45Z"/><path class="cls-20" d="M73.43,50.61a3,3,0,0,1-.6,0c0,.29-.07.63-.07,1v.12a1.84,1.84,0,0,0,.65-.12c1-.36,1.7-1.36,1.59-1.49S74.37,50.54,73.43,50.61Z"/><path class="cls-21" d="M80.94,55.52c-1.42,0-2.58.4-2.58.88s1.16.89,2.58.89,2.58-.4,2.58-.89S82.37,55.52,80.94,55.52Z"/><path class="cls-22" d="M70.22,95.14c-8.45-6.48,3.68-18,.14-23.5-4.08-6.32-7.26-10.81-9.73-8.09-12.13,13.36-17.23,32.09,1,42.17,13.15,7.29,35.12,1,35.12,1l.08-4.84S79.8,102.48,70.22,95.14Z"/><path class="cls-23" d="M97.52,60.84c-5.2-2.55-12.57-3.46-14.94-3.61a24.53,24.53,0,0,0-4.79,0c-2.62.31-10.35,2-14.36,4-7.51,3.88-7.55,17.35-8,23.75-.78,12.48,11.06,28.78,14,40.13,0,0,27.41,1.59,30.43-1.42,3.18-3.15,9.92-43.15,6.06-54.58C103.86,62.76,99.2,61.66,97.52,60.84Z"/><path class="cls-22" d="M100.61,71.83c-1.15,1.11-1.06,5.66-1,8.4,0,0-3.66,24.23-2.95,31.64,3.48-.4,2.43,8.76,3.29,7.95,3.18-3,10.28-31.29,6.52-48.49C104.57,70.81,102.07,70.43,100.61,71.83Z"/><path class="cls-18" d="M77.19,57.23c-1,.1-2.52.35-4.23.7a12.94,12.94,0,0,0,9.2,2.66,11.42,11.42,0,0,0,6.55-2.74,53.53,53.53,0,0,0-6.19-.62A34.85,34.85,0,0,0,77.19,57.23Z"/><path class="cls-22" d="M82.16,61.29a13.06,13.06,0,0,1-9.69-3c-1,.24-2.23.45-3.33.76a19.06,19.06,0,0,0,12.67,5.12c5.1-.14,9.43-3.55,11-4.88-1.36-.41-2.92-.77-4.13-1A10.91,10.91,0,0,1,82.16,61.29Z"/><path class="cls-24" d="M78.77,53.42a21.15,21.15,0,0,0,0,4.34,2.11,2.11,0,0,0,.75.76,2.54,2.54,0,0,0,3.66-1.2c.15-.47.15-4.92-.17-5.42C82.37,50.91,79.8,51.31,78.77,53.42Z"/><path class="cls-25" d="M82.16,60.59C78.8,61,76.39,60,73,57.93c-1,.24-2.56.6-3.44.71a17.07,17.07,0,0,0,12.29,4.84c5.1-.14,9.43-3.6,11-4.94-1.58-.24-3.19-.51-4.41-.73A10,10,0,0,1,82.16,60.59Z"/><path class="cls-23" d="M103.55,109.91c-14.36-2.23-31.79,5.22-32.22,11.43-.12,1.75,1.27,3.87,2.19,5.26.46.71-3.07,4.2.07,5.86,3.91,2.06,44.26,2.52,46,.52,3.17-3.56,7.19-8.18,9.45-16.12C129.57,115.15,111.76,111.19,103.55,109.91Z"/><path class="cls-22" d="M71.9,121.93a40.19,40.19,0,0,1-6.76-6.79c4.89,11.49,5.24,18.78,14.42,19.46,4.8.36,10.77,1.2,13.76.79,11.11.32,25.38-1.36,26.31-2.41a41.13,41.13,0,0,0,3.31-3.93c-9.16-.06-32.67,0-40.1-2.24C79.5,125.82,76.49,125.35,71.9,121.93Z"/><path class="cls-18" d="M86,40.15c-1.18-.51-4.54-2-7.15-.47-1.79,1-2.33,2.92-2.78,4.49-.27,1-1.59,3.88.24,6.42S83,56.45,86.61,55.72c3.14-.63,3.6-12,2-13.89A6.5,6.5,0,0,0,86,40.15Z"/><path class="cls-26" d="M88.64,38.14c-3.46-4.22-9.38-3.83-10.59-3.57-10.34,2.2-7.12,14.9-7.87,18.3-.55,2.52-2.11,2.28-2.47,4.67-.45,2.93,1.78,4.15,1.29,6.88-.42,2.34-2.17,2-3,4.54-1.06,3.17,1.24,4.9.43,9.08-.52,2.72-1.47,2.53-1.94,4.93C63,90.6,84.29,95.49,84.62,88.16c.09-1.87-1.77-2.83-1.5-4.8.24-1.76,1.86-1.68,2.26-3.5.51-2.32-1.83-3.74-1.4-6.36.24-1.48,1.07-1.57,1.72-3,1.4-3.06-.93-6-1.61-10.91-.77-5.48,1.59-5.71,1.4-13.23C85.41,43.31,91.14,41.2,88.64,38.14Z"/><path class="cls-18" d="M148,85.71a4.73,4.73,0,0,1,4.61-.91,4.36,4.36,0,0,1,2.6,2.08,4.86,4.86,0,0,1-.13,4.3c-.23.43-.69,1.32-1.34,1.33s-.43-1.42-1.43-2.55a6.62,6.62,0,0,0-3.49-1.64c-1.11-.3-1.77.09-2-.33S147.28,86.36,148,85.71Z"/><path class="cls-23" d="M96,60.34c9.41,2.7,17.08,12.18,21.83,18.72,3.63,5,7.06,7.47,11.86,7.41,6.88-.08,15.87-2.37,18.75-2.09,1.42.13,2.49,4.18,1.39,5.3-.93,1-23.32,13.62-37.36,5.58-6.79-3.89-15-12.24-14.23-19.43C98.82,70.56,94.26,59.84,96,60.34Z"/><path class="cls-11" d="M86.38,45.42l-1.59-.28a8,8,0,0,0-3.93-8.74,6.82,6.82,0,0,0-7.15.29V36l1.93-1a7.6,7.6,0,0,1,6,0C85.5,36.51,87.16,41.17,86.38,45.42Z"/><path class="cls-27" d="M86.7,45.1l-1.59-.28a8.17,8.17,0,0,0-4-8.74,8,8,0,0,0-7.5-.13s.23-.59,1.93-1.29c1.46-.61,2.81-1.3,6.35.06C85.81,36.19,87.48,40.86,86.7,45.1Z"/><path class="cls-28" d="M87.5,46.85c0,1.76,0,3.36-.74,3.76a5.67,5.67,0,0,1-1.09,0c-1,0-1.82-1.68-1.82-3.76s.82-3.76,1.82-3.76a7.93,7.93,0,0,1,1.09,0C87.59,43.44,87.5,45,87.5,46.85Z"/><ellipse class="cls-11" cx="86.76" cy="46.85" rx="1.37" ry="3.76"/><path class="cls-29" d="M88.71,173.87c5.06.15,22.3,2.44,24.44,7.73a8.06,8.06,0,0,1,.65,2.3c0,.64,1.85-1.6,1.94-3.41a5.44,5.44,0,0,0-.51-2.34c-1.13-2.29-5.55-5.26-23.66-8.69-.18.43-2.59.77-2.86,1.26C88.33,171.41,89.09,173.4,88.71,173.87Z"/><path class="cls-30" d="M114,180.2c-1.17-2.25-6.48-5.46-25.43-8.42a18,18,0,0,1-.3-2.88c19.43,2.79,25.82,7,27,9.25a5.44,5.44,0,0,1,.51,2.34,6.06,6.06,0,0,1-1.37,3.12,4.18,4.18,0,0,0,.2-1.08A5.36,5.36,0,0,0,114,180.2Z"/><path class="cls-31" d="M85,174c-5,.14-21.7,2.31-23.84,7.6a8,8,0,0,0-.64,2.3c0,.64-1.86-1.6-1.94-3.41a5.28,5.28,0,0,1,.51-2.34c1.12-2.29,6.06-5.27,23.66-8.69.17.43.6,1.85.87,2.34A20.69,20.69,0,0,0,85,174Z"/><path class="cls-29" d="M85.15,174c-5.06.14-21.7,2.31-23.84,7.6a7.73,7.73,0,0,0-.65,2.3c0,.64-1.85-1.6-1.94-3.41a5.28,5.28,0,0,1,.51-2.34c1.13-2.29,5.77-5.15,23.88-8.58.18.43,3.74.53,4,1C87.5,171.29,84.77,173.53,85.15,174Z"/><path class="cls-30" d="M60.3,180.2c1.17-2.25,5.6-5.1,23.48-8.13,0,0,3.25-.15,3.63-.5.87-.81-.66-2.26-.69-2.32-.27-.49-2.94.1-3.75.1-21.28,4-22.78,6.52-23.88,8.8a5.47,5.47,0,0,0-.51,2.34,6,6,0,0,0,1.36,3.12,4.18,4.18,0,0,1-.2-1.08A5.36,5.36,0,0,1,60.3,180.2Z"/><rect class="cls-32" x="85.12" y="137.42" width="4.27" height="17.56" transform="translate(174.51 292.4) rotate(180)"/><rect class="cls-30" x="85.12" y="141.66" width="2.63" height="10.89" transform="translate(172.88 294.21) rotate(180)"/><rect class="cls-32" x="84.03" y="154.22" width="6.3" height="13.09" transform="translate(174.35 321.53) rotate(180)"/><rect class="cls-30" x="84.03" y="154.22" width="4.22" height="10.46" transform="translate(172.27 318.9) rotate(180)"/><rect class="cls-32" x="82.97" y="165.92" width="8.37" height="3.54" transform="translate(174.31 335.38) rotate(180)"/><rect class="cls-30" x="82.97" y="165.92" width="6.66" height="1.77" transform="translate(172.6 333.62) rotate(180)"/><path class="cls-32" d="M88,183.6c.78-1.65,1.27-13.21,1.08-14.33-.25-1.46-4.27-1.48-4.33,0,0,.72.46,13.07,1.09,14.33C86.39,184.61,88,183.75,88,183.6Z"/><path class="cls-30" d="M88,183.6c.78-1.65,1.27-13.21,1.08-14.33-.25-1.46-4.27-1.48-4.33,0,0,.72.46,13.07,1.09,14.33C86.39,184.61,88,183.75,88,183.6Z"/><path class="cls-32" d="M89.12,169.27c-.25-1.46-4.59-1.87-4.59.19,0,.06,3.45-.4,3.67,1.21A93.88,93.88,0,0,1,87.4,184a1.69,1.69,0,0,0,.64-.35C88.82,182,89.31,170.39,89.12,169.27Z"/><ellipse class="cls-33" cx="112.5" cy="182.88" rx="2.83" ry="2.58"/><ellipse class="cls-33" cx="86.96" cy="183.08" rx="2.67" ry="2.6"/><ellipse class="cls-33" cx="61.92" cy="182.99" rx="2.83" ry="2.58"/><circle class="cls-34" cx="112.31" cy="184.14" r="2.19"/><circle class="cls-34" cx="86.96" cy="184.13" r="2.19"/><circle class="cls-34" cx="62.01" cy="184.14" r="2.19"/><path class="cls-14" d="M89.11,89.94H57.76A3.91,3.91,0,0,0,54,94.32l1.58,15.05a3.88,3.88,0,0,0,3.8,3.53l27.9,21.7c5.56.43.84,2.21,8.32.59,0,0,1.21-17-2.63-41.72A4,4,0,0,0,89.11,89.94Z"/><path class="cls-17" d="M90.63,94.42a3.66,3.66,0,0,0-3.58-3.35H57.53a3.7,3.7,0,0,0-3.59,4.16l1.49,14.31c.19,1.91,2.15,24.67,4,24.67H92.34c2.15,0,0-23.26-.23-25.48Z"/><rect class="cls-35" x="61.11" y="137.12" width="52.06" height="5.11"/><rect class="cls-17" x="94.66" y="137.12" width="21.25" height="5.11"/><rect class="cls-17" x="58" y="134.07" width="59.42" height="4.98" rx="1.87"/><path class="cls-14" d="M116.71,134.07H94.61c-.89,0-1.61,1.12-1.61,2.49s.72,2.49,1.61,2.49h22.1c.89,0,1.61-1.11,1.61-2.49S117.6,134.07,116.71,134.07Z"/><path class="cls-35" d="M79.11,132.22A24.35,24.35,0,0,1,74,130.27a25.15,25.15,0,0,1-9.86-10c-3.33-5.65-4-10.78-5.28-20.83-.4-3.18-.64-5.87-.79-8.38h-.51a3.7,3.7,0,0,0-3.59,4.16l1.49,14.25c.19,1.91,2.15,24.55,4,24.55H92.34c.28,0,.49-.3.64-1A37.89,37.89,0,0,1,79.11,132.22Z"/><path class="cls-26" d="M69.14,87.13c-1,2.53-1.24,5,.79,7.69a9.63,9.63,0,0,0,3,2.24s-5.37,8.1,5.76,13.75c.33.17-2.72-3.26-1.72-5.49s2.13-.31,4-3.61c1-1.79-1.33-4-.54-5.8.44-1,1.8-.62,2.51-1.56,1.56-2.1-1.27-9.1-6.75-11.13C72.6,81.87,70.31,84.18,69.14,87.13Z"/><path class="cls-11" d="M190.49,32.88H162.91A1.92,1.92,0,0,0,161,34.81V50.87l3.88-5a.36.36,0,0,1,.28-.13h25.34a1.93,1.93,0,0,0,1.93-1.93v-9A1.92,1.92,0,0,0,190.49,32.88Z"/><path class="cls-15" d="M173.72,38.31h4a.51.51,0,0,0,.5-.51h0a.51.51,0,0,0-.5-.5h-4a.51.51,0,0,0-.51.5h0A.51.51,0,0,0,173.72,38.31Z"/><path class="cls-15" d="M169.79,40.43h7.91a.51.51,0,0,0,.5-.51h0a.51.51,0,0,0-.5-.5h-7.91a.5.5,0,0,0-.5.5h0A.5.5,0,0,0,169.79,40.43Z"/><path class="cls-15" d="M169.46,38.31h2.35a.5.5,0,0,0,.5-.51h0a.5.5,0,0,0-.5-.5h-2.35a.51.51,0,0,0-.51.5h0A.51.51,0,0,0,169.46,38.31Z"/><path class="cls-15" d="M165.57,38.28h2.35a.51.51,0,0,0,.51-.51h0a.51.51,0,0,0-.51-.5h-2.35a.51.51,0,0,0-.5.5h0A.51.51,0,0,0,165.57,38.28Z"/><path class="cls-15" d="M164.84,40.43h3.08a.51.51,0,0,0,.51-.51h0a.51.51,0,0,0-.51-.5h-3.08a.5.5,0,0,0-.5.5h0A.5.5,0,0,0,164.84,40.43Z"/><path class="cls-14" d="M192.42,34.65a1.77,1.77,0,0,0-1.77-1.77H162.76A1.77,1.77,0,0,0,161,34.65V35h31.43Z"/><path class="cls-11" d="M187.34,34a.41.41,0,1,1-.41-.41A.4.4,0,0,1,187.34,34Z"/><path class="cls-11" d="M189.9,34a.4.4,0,1,0,.4-.41A.4.4,0,0,0,189.9,34Z"/><path class="cls-11" d="M189,34a.41.41,0,0,1-.81,0,.41.41,0,1,1,.81,0Z"/><rect class="cls-36" x="180.49" y="36.98" width="9.41" height="6.42" transform="translate(370.38 80.38) rotate(180)"/><polygon class="cls-37" points="185.19 39.71 189.9 43.4 180.49 43.4 185.19 39.71"/><polygon class="cls-38" points="185.19 40.99 189.9 37.3 189.9 36.98 180.49 36.98 180.49 37.3 185.19 40.99"/><polygon class="cls-37" points="185.19 40.67 189.9 36.98 180.49 36.98 185.19 40.67"/><path class="cls-39" d="M189.41,58.77h0a3.43,3.43,0,0,0-.28-1.68c-.24-.53-.71-1.13-.89-1.05s-.11.84.07,1.4.45.9.39.94-.77-.85-1-.74-.06.68.27,1.09a1.49,1.49,0,0,0,1.76.47,1.55,1.55,0,0,0,.54-1.29,2.63,2.63,0,0,0-.39-1.56Z"/><path class="cls-40" d="M193.65,62a3,3,0,0,0-.92-2.18,3.45,3.45,0,0,0-4.59.23,3.38,3.38,0,0,0-.87,2.36,3.47,3.47,0,0,0,1.84,3.21C191,66.3,193.6,64.13,193.65,62Z"/><path class="cls-41" d="M188.31,61.82a16.08,16.08,0,0,1,.29-2,1.93,1.93,0,0,1,0-.24,2.8,2.8,0,0,0-.5.41,3.38,3.38,0,0,0-.87,2.36,3.47,3.47,0,0,0,1.84,3.21,2.35,2.35,0,0,0,1.39,0A5.25,5.25,0,0,1,188.31,61.82Z"/><path class="cls-42" d="M188.92,59.46a2.61,2.61,0,0,0-.28.17,1.93,1.93,0,0,0,0,.24,16.08,16.08,0,0,0-.29,2,5.25,5.25,0,0,0,2.19,3.84,1.57,1.57,0,0,0,.29-.08,9.51,9.51,0,0,1-1.74-3.87A10,10,0,0,1,188.92,59.46Z"/><path class="cls-42" d="M191.81,61.36a5.76,5.76,0,0,0-2.07-2.21l-.35.11c.1.1.2.2.3.32a5.7,5.7,0,0,1,1,1.84,10.44,10.44,0,0,1,.4,4,4.34,4.34,0,0,0,1.08-.7A5.56,5.56,0,0,0,191.81,61.36Z"/><path class="cls-40" d="M199.37,78.05c2-1.3,2.3-3.65,2.55-5.51s.67-5-1.58-7.13a7.74,7.74,0,0,0-4.74-1.84c-1.13-.12-4.15-.45-6.57,1.5a7.64,7.64,0,0,0-2.56,6.43c0,.86-.08,4.3,1.84,6.11,1.43,1.35,3.34.62,4.85.9C195.05,78.87,197.44,79.32,199.37,78.05Z"/><path class="cls-42" d="M200.34,65.41a7,7,0,0,0-4-1.74,10.68,10.68,0,0,1,.55,1.17,11.21,11.21,0,0,1,.69,3.9,16,16,0,0,1-.69,5.06,15.26,15.26,0,0,1-2.65,4.91,7,7,0,0,0,5.09-.66c2-1.3,2.3-3.65,2.55-5.51S202.59,67.57,200.34,65.41Z"/><path class="cls-41" d="M195.2,71.73a10.12,10.12,0,0,0,0-3c-.19-1.24-.42-1-.92-3.1-.23-1-.25-1.28-.57-1.49-.64-.42-1.82.07-2.53.69-.32.28-1.08,1.06-1.38,4.36a16.35,16.35,0,0,0,.23,5.86,18.08,18.08,0,0,0,1,3,18,18,0,0,0,2.12.5l.2,0c.21-.76.51-1.9,1-3.6A16.07,16.07,0,0,0,195.2,71.73Z"/><path class="cls-41" d="M200.34,65.41a6.19,6.19,0,0,0-2.24-1.34c.29.58.56,1.07.78,1.46a10.12,10.12,0,0,1,1.49,3,6.44,6.44,0,0,1,0,2.53A10.57,10.57,0,0,1,198.88,75q-1.08,1.8-2.4,3.93a5.43,5.43,0,0,0,2.89-.83c2-1.3,2.3-3.65,2.55-5.51S202.59,67.57,200.34,65.41Z"/><path class="cls-42" d="M192.21,70.58a23.74,23.74,0,0,1,.46-4.36,15.72,15.72,0,0,1,.68-2.21,3,3,0,0,0-2.17.83c-.32.28-1.08,1.06-1.38,4.36a16.35,16.35,0,0,0,.23,5.86,18.08,18.08,0,0,0,1,3,13.31,13.31,0,0,0,1.31.34c-.14-1-.22-1.86-.25-2.6C192,74.37,192.09,73.1,192.21,70.58Z"/><path class="cls-43" d="M187.93,68.58l0,0h0l0,0-1.19-2.09a.15.15,0,0,0-.22-.06h0a.17.17,0,0,0-.06.22l.78,1.36-1.35-1.1a.15.15,0,0,0-.22,0h0a.16.16,0,0,0,0,.23l1.53,1.25-2-.49A.15.15,0,0,0,185,68h0a.17.17,0,0,0,.11.2l2.57.64a.16.16,0,0,0,.2-.11v-.07Z"/><path class="cls-43" d="M195.56,65.44v0h0v0l0,0,1.75-1.65a.16.16,0,0,0,0-.22h0a.16.16,0,0,0-.23,0L196,64.56l.76-1.57a.15.15,0,0,0-.08-.21h0a.15.15,0,0,0-.21.07l-.86,1.78,0-2a.16.16,0,0,0-.16-.16h0a.16.16,0,0,0-.16.16l0,2.65a.16.16,0,0,0,.16.16h.08Z"/><path class="cls-43" d="M190.65,71.52h-.09L188.66,70a.16.16,0,0,0-.22,0h0a.16.16,0,0,0,0,.23l1.25,1-1.67-.5a.16.16,0,0,0-.2.11h0a.17.17,0,0,0,.11.2l1.89.56-2,.3a.18.18,0,0,0-.14.19h0a.17.17,0,0,0,.18.13l2.62-.39a.16.16,0,0,0,.14-.18v-.08Z"/><path class="cls-43" d="M187.91,73.47h-.08l-2.17-.39a.15.15,0,0,0-.17.12h0a.13.13,0,0,0,.11.17l1.42.26-1.58.31a.14.14,0,0,0-.12.17h0a.15.15,0,0,0,.17.12l1.8-.35L185.75,75a.15.15,0,0,0,0,.21h0a.16.16,0,0,0,.21,0l2-1.45a.15.15,0,0,0,0-.21l0,0Z"/><path class="cls-43" d="M197.83,72.71h0v0h0l2.17-.42a.14.14,0,0,0,.12-.17h0A.14.14,0,0,0,200,72l-1.41.27,1.36-.86a.15.15,0,0,0,.06-.2h0a.16.16,0,0,0-.21,0l-1.55,1,1-1.59a.14.14,0,0,0,0-.2h0a.14.14,0,0,0-.2,0l-1.36,2.07a.15.15,0,0,0,0,.21l0,0Z"/><path class="cls-43" d="M193.31,71.3l0,0h0v0L195,69.8a.15.15,0,0,0,0-.21h0a.15.15,0,0,0-.21,0l-1.1.93.77-1.41a.16.16,0,0,0-.05-.21h0a.14.14,0,0,0-.2.06l-.88,1.6.13-1.89a.15.15,0,0,0-.14-.16h0a.13.13,0,0,0-.15.13l-.18,2.48a.16.16,0,0,0,.14.16h.07Z"/><path class="cls-43" d="M199.56,69v0h0v0l0,0,1.69-1.43a.15.15,0,0,0,0-.21h0a.16.16,0,0,0-.21,0L200,68.2l.78-1.41a.15.15,0,0,0-.06-.21h0a.14.14,0,0,0-.19.06l-.89,1.61.13-1.9a.15.15,0,0,0-.13-.16h0a.15.15,0,0,0-.16.14l-.17,2.47a.15.15,0,0,0,.14.16h.06Z"/><path class="cls-43" d="M192.85,75.6l0,0h0v0l1.44-1.13a.11.11,0,0,0,0-.16h0a.14.14,0,0,0-.18,0l-.94.74.67-1.11a.11.11,0,0,0,0-.16h0a.13.13,0,0,0-.17,0L192.93,75l.13-1.48a.12.12,0,0,0-.11-.12h0a.12.12,0,0,0-.14.1l-.17,1.93a.11.11,0,0,0,.11.13h.06Z"/><path class="cls-43" d="M200.3,75.51h.07l1.74.54a.11.11,0,0,0,.15-.07h0a.13.13,0,0,0-.09-.16L201,75.46l1.3-.08a.11.11,0,0,0,.1-.13h0a.12.12,0,0,0-.13-.11l-1.48.09,1.3-.73a.14.14,0,0,0,0-.17h0a.13.13,0,0,0-.17,0l-1.69.95a.12.12,0,0,0,0,.17l0,0Z"/><path class="cls-43" d="M191.79,66.28l0,0h0l-.5-1.76a.1.1,0,0,0-.14-.08h0a.12.12,0,0,0-.08.15l.32,1.15-.77-1a.12.12,0,0,0-.17,0h0a.12.12,0,0,0,0,.17l.88,1.19L190,65.3a.11.11,0,0,0-.15.06h0a.13.13,0,0,0,0,.17l1.72.89a.11.11,0,0,0,.15-.06l0,0Z"/><rect class="cls-44" x="183.73" y="79.2" width="20.57" height="15.57" rx="6.9"/><path class="cls-45" d="M187.84,88V87.5c0-3.72,2-6.79,4.41-6.79h10.46a3.71,3.71,0,0,0-2.78-1.57H188.1c-2.4,0-4.81,3.43-4.34,6.81V88c-.24,3.14,1.13,6.09,4.34,6.8h4.15C189.85,94.82,187.84,91.74,187.84,88Z"/><path class="cls-44" d="M200.55,79.53H187.48a1,1,0,0,1-1-1h0a1,1,0,0,1,1-1h13.07a1,1,0,0,1,1,1h0A1,1,0,0,1,200.55,79.53Z"/><path class="cls-46" d="M199.84,91.16h0a1.68,1.68,0,0,1-1.68-1.67V84.24a1.68,1.68,0,0,1,1.68-1.67h0a1.67,1.67,0,0,1,1.67,1.67v5.25A1.67,1.67,0,0,1,199.84,91.16Z"/><path class="cls-8" d="M178.88,166c0,4.47-17.87,0-17.87,0s-7.92-16-3.8-16c10.86-.15,21.67-7.93,21.67-7.93Z"/><path class="cls-47" d="M167.34,163.2c.85-2.58-1-5.91-4.85-12.46-2.91-5-5.48-9.36-7.12-8.88-1,.27-.45,1.86-2,4.37a23.45,23.45,0,0,1-4.92,5.62,17.74,17.74,0,0,0,2.63,3.26c6.3,5.31,4.66,12.5,8.46,13.54C162.32,169.39,166.26,166.49,167.34,163.2Z"/><polygon class="cls-48" points="153.63 173.67 179.15 173.67 179.34 172.42 153.38 172.42 153.63 173.67"/><polygon class="cls-48" points="181.7 155.96 150.31 155.96 151 159.56 181.17 159.56 181.7 155.96"/><polygon class="cls-48" points="152.09 165.52 152.35 166.78 180.13 166.78 180.33 165.52 152.09 165.52"/><polygon class="cls-48" points="159.63 155.96 162.39 186.53 163.41 186.53 160.65 155.96 159.63 155.96"/><polygon class="cls-48" points="162.38 155.96 164.07 186.53 164.93 186.53 163.24 155.96 162.38 155.96"/><polygon class="cls-48" points="152.52 155.96 157.44 186.53 157.96 186.53 153.04 155.96 152.52 155.96"/><polygon class="cls-48" points="157.65 155.96 160.81 186.53 161.68 186.53 158.51 155.96 157.65 155.96"/><polygon class="cls-48" points="153.93 155.96 158.5 186.53 159 186.53 154.46 155.96 153.93 155.96"/><polygon class="cls-48" points="155.44 155.96 159.49 186.53 160.27 186.53 156.22 155.96 155.44 155.96"/><polygon class="cls-48" points="176.93 155.96 172.88 186.53 173.66 186.53 177.71 155.96 176.93 155.96"/><polygon class="cls-48" points="174.64 155.96 171.48 186.53 172.34 186.53 175.5 155.96 174.64 155.96"/><polygon class="cls-48" points="165.98 156.01 165.12 155.99 165.57 186.47 166.37 186.49 166.42 185.81 165.98 156.01"/><polygon class="cls-48" points="178.45 155.98 174.39 186.51 174.89 186.5 178.99 155.97 178.45 155.98"/><polygon class="cls-48" points="179.65 155.95 175.66 186.55 176.18 186.53 180.16 155.94 179.65 155.95"/><polygon class="cls-48" points="151.66 155.96 156.58 186.44 155.24 182.33 150.31 155.96 151.66 155.96"/><polygon class="cls-48" points="180.31 156.99 176.86 185 177.73 183.46 181.65 156.94 180.31 156.99"/><polygon class="cls-48" points="168.12 155.96 167.61 168.17 167.61 168.05 166.84 185.75 166.86 186.53 167.62 186.53 167.66 186.53 168.98 155.96 168.12 155.96"/><polygon class="cls-48" points="172.5 155.96 169.74 186.53 170.76 186.53 173.52 155.96 172.5 155.96"/><polygon class="cls-48" points="170.43 155.96 168.74 186.53 169.6 186.53 171.29 155.96 170.43 155.96"/><polygon class="cls-48" points="155.99 186.53 177.33 186.53 178.23 180.1 154.82 180.1 155.99 186.53"/><path class="cls-49" d="M181.74,157.16H150.38a.93.93,0,0,1-.93-.92h0a.93.93,0,0,1,.93-.93h31.36a.93.93,0,0,1,.93.93h0A.93.93,0,0,1,181.74,157.16Z"/><path class="cls-14" d="M112.25,8V20.67a1.52,1.52,0,0,1-1.7,1.29l-25.43,0a1.54,1.54,0,0,1-1.69-1.29V8a1.54,1.54,0,0,1,1.7-1.29h25.43A1.54,1.54,0,0,1,112.25,8Z"/><polygon class="cls-14" points="96.63 13.67 107.72 30.74 107.72 10.82 96.63 13.67"/><circle class="cls-11" cx="104.06" cy="14.46" r="1.47" transform="translate(79.42 116.6) rotate(-84.35)"/><circle class="cls-11" cx="97.72" cy="14.46" r="1.47" transform="translate(73.7 110.28) rotate(-84.35)"/><circle class="cls-11" cx="91.38" cy="14.46" r="1.47" transform="translate(67.98 103.97) rotate(-84.35)"/></g></g></g></svg>