<svg xmlns="http://www.w3.org/2000/svg" viewBox="0 0 193.58 128.74"><defs><style>.cls-1{isolation:isolate;}.cls-2{opacity:0.3;}.cls-3{fill:#ffd371;}.cls-4{fill:#fa5;}.cls-5{fill:#fff;}.cls-6{fill:#634e43;}.cls-7{opacity:0.15;mix-blend-mode:multiply;}</style></defs><g class="cls-1"><g id="Layer_2" data-name="Layer 2"><g id="Option_1" data-name="Option 1"><g class="cls-2"><path class="cls-3" d="M178.71,103.47c31.32-27,3.45-42,3.45-42a32.41,32.41,0,0,1-12.4-14c-5.34-11.67,3.58-26.62-2.84-37.76-4.72-8.19-16-10.63-25.74-9.37s-18.91,5.33-28.61,6.8C101,8.88,89.2,6.87,77.56,5.63S53.64,4,42.9,8.76s-19.29,16-17,27c1,5,4.09,9.73,3.24,14.78-1.3,7.8-11,11.78-14.2,19.08-3.12,7.14,1.47,14.78,5.89,21.13,18,25.76,49,34.92,74,37.59C94.83,128.37,143.69,133.7,178.71,103.47Z"/></g><rect class="cls-4" y="30.16" width="66.71" height="24.6" rx="10.3"/><path class="cls-5" d="M22.55,42.93A7.9,7.9,0,1,1,14.65,35,7.85,7.85,0,0,1,22.55,42.93Z"/><circle class="cls-3" cx="14.65" cy="41.08" r="2.86" transform="translate(-28.7 45.86) rotate(-76.66)"/><path class="cls-3" d="M20.58,48.15a7.9,7.9,0,0,1-11.86,0,6.68,6.68,0,0,1,11.86,0Z"/><path class="cls-5" d="M54.24,39H27.61a1.31,1.31,0,0,1-1.31-1.31h0a1.31,1.31,0,0,1,1.31-1.31H54.24a1.31,1.31,0,0,1,1.31,1.31h0A1.31,1.31,0,0,1,54.24,39Z"/><path class="cls-5" d="M54.24,43.77H27.61a1.31,1.31,0,0,1-1.31-1.31h0a1.3,1.3,0,0,1,1.31-1.31H54.24a1.3,1.3,0,0,1,1.31,1.31h0A1.31,1.31,0,0,1,54.24,43.77Z"/><path class="cls-5" d="M45.66,48.56h-18a1.31,1.31,0,0,1-1.31-1.31h0a1.3,1.3,0,0,1,1.31-1.31h18A1.31,1.31,0,0,1,47,47.25h0A1.31,1.31,0,0,1,45.66,48.56Z"/><path class="cls-6" d="M145.83,71l-9.5.81-3.75-44.08A17.88,17.88,0,0,0,97,30.8l3.74,44.07-9.5.81L87.45,31.6A27.41,27.41,0,0,1,142.08,27Z"/><rect class="cls-4" x="86.27" y="45.37" width="65.81" height="64.63" rx="7.65" transform="translate(-6.15 10.37) rotate(-4.86)"/><circle class="cls-7" cx="118.44" cy="69.09" r="7.12" transform="translate(-11.19 24.4) rotate(-11.23)"/><path class="cls-7" d="M120.21,93.42h0a3.65,3.65,0,0,1-3.93-3.32l-1.21-14.19A3.66,3.66,0,0,1,118.39,72h0a3.65,3.65,0,0,1,3.94,3.32l1.2,14.19A3.65,3.65,0,0,1,120.21,93.42Z"/><path class="cls-6" d="M122.94,69.47a4.45,4.45,0,1,0-6.53,4.29c0,.12,0,.23,0,.34l1.24,14.69a2.27,2.27,0,1,0,4.53-.39l-1.25-14.68s0-.09,0-.13A4.46,4.46,0,0,0,122.94,69.47Z"/><rect class="cls-3" x="137.28" y="55.41" width="6.56" height="13.64" transform="translate(-4.76 12.12) rotate(-4.86)"/><rect class="cls-3" x="138.71" y="72.21" width="6.56" height="13.64" transform="translate(-6.18 12.3) rotate(-4.86)"/><path class="cls-4" d="M185.91,29.6H161.35A1.38,1.38,0,0,0,160,31V41.69l0,6.15,3-3.47h23A1.37,1.37,0,0,0,187.28,43V31A1.37,1.37,0,0,0,185.91,29.6Z"/><path class="cls-5" d="M178.23,36.82a1.23,1.23,0,0,0,2.46,0,1.22,1.22,0,0,0-1.22-1.23A1.24,1.24,0,0,0,178.23,36.82Z"/><path class="cls-5" d="M173,36.8a1.23,1.23,0,0,0,2.46,0,1.24,1.24,0,0,0-1.23-1.24A1.23,1.23,0,0,0,173,36.8Z"/><path class="cls-5" d="M167.68,36.78A1.24,1.24,0,0,0,168.91,38a1.23,1.23,0,0,0,1.23-1.23,1.21,1.21,0,0,0-1.22-1.23A1.24,1.24,0,0,0,167.68,36.78Z"/><rect class="cls-5" x="44.15" y="77.57" width="27.04" height="22.36" rx="2.16"/><path class="cls-4" d="M51.74,87.87v.75a.68.68,0,0,0,.56.68l.89.15a4.91,4.91,0,0,0,.46,1.11l-.52.75a.67.67,0,0,0,.08.87l.53.53a.68.68,0,0,0,.88.08l.72-.51a4.49,4.49,0,0,0,1.11.46l.15.89a.7.7,0,0,0,.68.57H58a.69.69,0,0,0,.68-.57l.15-.89A4.49,4.49,0,0,0,60,92.28l.74.52a.7.7,0,0,0,.88-.07l.53-.54a.68.68,0,0,0,.08-.87l-.52-.74a4.91,4.91,0,0,0,.46-1.11l.88-.16a.68.68,0,0,0,.57-.67v-.75a.69.69,0,0,0-.57-.68l-.88-.15A4.91,4.91,0,0,0,61.69,86l.52-.74a.7.7,0,0,0-.08-.88l-.53-.53a.7.7,0,0,0-.88-.08l-.74.5a4.42,4.42,0,0,0-1.1-.46l-.16-.89a.69.69,0,0,0-.67-.56h-.77a.67.67,0,0,0-.66.56l-.16.91a4.83,4.83,0,0,0-1.1.46l-.74-.52a.7.7,0,0,0-.88.07l-.53.53a.67.67,0,0,0-.08.87l.52.74A4.91,4.91,0,0,0,53.19,87l-.89.16A.68.68,0,0,0,51.74,87.87Zm3.89.39h0a2,2,0,1,1,2,2A2,2,0,0,1,55.63,88.25Z"/></g></g></g></svg>