<svg xmlns="http://www.w3.org/2000/svg" viewBox="0 0 235.91 187.38"><defs><style>.cls-1{isolation:isolate;}.cls-2{opacity:0.3;}.cls-3{fill:#ffd371;}.cls-4{mix-blend-mode:multiply;}.cls-5{fill:#eaeaea;}.cls-6{fill:#fb9d75;}.cls-7{fill:#377872;}.cls-8{fill:#dc7b58;}.cls-9{fill:#e67779;}.cls-10{fill:#bf6179;}.cls-11{fill:#f6eee0;}.cls-12{fill:#152216;}.cls-13{fill:#534730;}.cls-14{fill:#46c7ce;}.cls-15{fill:#882d12;}.cls-16{fill:#b2682b;}.cls-17{fill:#fa5;}.cls-18{fill:#fff;}.cls-19{fill:#1ba5a5;}.cls-20{fill:#db7f2f;}.cls-21{fill:#75c189;}.cls-22{fill:#3e3d18;}.cls-23{fill:#593a0f;}.cls-24{fill:#825e2b;}.cls-25{fill:#be4a32;}</style></defs><g class="cls-1"><g id="Layer_2" data-name="Layer 2"><g id="Option_1" data-name="Option 1"><g class="cls-2"><path class="cls-3" d="M21.7,27.11c-43.5,33-8.16,55.43-8.16,55.43A43.21,43.21,0,0,1,28.63,102.3c6,16-7,35,.46,50.36,5.5,11.31,20.13,15.57,33,14.78s25.31-5.34,38.19-6.41c15.43-1.29,30.71,2.45,45.9,5.16s31.3,4.31,45.83-1,26.74-19.44,24.73-34.32c-.91-6.72-4.54-13.3-3-19.92,2.4-10.23,15.49-14.63,20.32-24,4.72-9.19-.65-19.74-5.91-28.57C206.8,22.52,166.84,7.54,134.12,1.7,134.12,1.7,70.36-9.82,21.7,27.11Z"/></g><g class="cls-4"><ellipse class="cls-5" cx="114.96" cy="181.45" rx="108.72" ry="5.94"/></g><path class="cls-6" d="M68.26,49.13l-.09.41-.06.32-.12.62c-.07.41-.13.8-.19,1.19-.12.79-.21,1.56-.3,2.33-.16,1.54-.28,3.07-.36,4.6s-.09,3-.07,4.58.08,3,.19,4.56.26,3,.45,4.56c.11.75.2,1.51.33,2.26.06.38.12.76.19,1.13l.2,1.13c.07.38.15.75.23,1.13s.15.75.24,1.12c.18.75.34,1.49.54,2.23.1.37.19.75.29,1.12l.31,1.1.08.28,0,.14.08.28c.08.26.17.49.25.73s.18.43.28.63.18.38.28.56l.14.26.15.24.14.24.14.22.29.41A14,14,0,0,0,73,88.88c.36.41.71.77,1.06,1.1.69.67,1.37,1.23,2,1.76A45.32,45.32,0,0,0,80,94.52c2.59,1.66,5.15,3.09,7.74,4.43s5.18,2.58,7.79,3.76c1.31.59,2.62,1.17,3.94,1.73l2,.84,1,.4,1,.41L108,95.89l-.88-.45-.9-.47L104.45,94c-1.2-.63-2.4-1.28-3.59-1.93-2.38-1.31-4.74-2.64-7-4-1.14-.69-2.27-1.39-3.37-2.1s-2.17-1.43-3.18-2.17-2-1.47-2.8-2.2a13.67,13.67,0,0,1-1.08-1,3.68,3.68,0,0,1-.55-.7v0h0v0l0,0,0,.09.07.15c0,.07,0,.14.08.23l0,.07s0,0,0,0v0l0-.11,0-.23-.21-.92c-.07-.31-.13-.62-.2-.92-.13-.62-.23-1.24-.35-1.86l-.15-.93c-.05-.31-.1-.62-.14-.93-.18-1.25-.32-2.51-.44-3.76s-.18-2.53-.23-3.79,0-2.53,0-3.8.07-2.53.15-3.78.2-2.51.35-3.74c.08-.62.16-1.23.26-1.82,0-.3.09-.59.14-.88l.07-.41.06-.29Z"/><path class="cls-7" d="M83.28,52.61l2.56,19.46A36.35,36.35,0,0,1,75,76.36Z"/><path class="cls-8" d="M77.83,82.68a.32.32,0,0,0,.16,0,35.54,35.54,0,0,1,4.77-2,.33.33,0,0,0,.21-.43.34.34,0,0,0-.43-.22A35.9,35.9,0,0,0,77.66,82a.35.35,0,0,0-.13.47A.34.34,0,0,0,77.83,82.68Z"/><path class="cls-8" d="M82.46,80.72a.34.34,0,0,0,0-.68c-1.42-.16-3.28-.17-3.36-.17h0a.34.34,0,0,0,0,.68s1.9,0,3.28.17Z"/><polygon class="cls-6" points="119.37 160.6 122.9 166.38 129.65 163.4 126.58 157.19 119.37 160.6"/><path class="cls-9" d="M151,166.68,125.5,178a3.74,3.74,0,0,1-1-1.27c-1.11-2.08-2-5.83-2.57-8.15q-.1-.41-.21-.75a9.64,9.64,0,0,0-.31-.92,1.42,1.42,0,0,1,.91-2.16c3.7,1.39,5-3.7,7.2-3.21,0,0,1,.2,3.8,1.12s6.81.61,10.28.54c4.48-.1,6.26,1,7,2A2.17,2.17,0,0,1,151,166.68Z"/><path class="cls-10" d="M151,166.68,125.5,178a3.74,3.74,0,0,1-1-1.27l26.05-11.53A2.17,2.17,0,0,1,151,166.68Z"/><path class="cls-10" d="M128.1,176.82l-.76.33a6.1,6.1,0,0,0-.44-4.69,7.85,7.85,0,0,0-4.94-3.91q-.1-.41-.21-.75a8.53,8.53,0,0,1,5.75,4.36A6.79,6.79,0,0,1,128.1,176.82Z"/><path class="cls-11" d="M133.59,164.33a.47.47,0,0,1-.55-.14.45.45,0,0,1,.08-.64l1.42-1.1a.46.46,0,1,1,.56.72l-1.42,1.1Z"/><path class="cls-11" d="M131.42,163.7a.45.45,0,0,1-.55-.13.46.46,0,0,1,.08-.65l1.42-1.1a.45.45,0,0,1,.64.08.46.46,0,0,1-.08.65l-1.42,1.1Z"/><path class="cls-11" d="M135.59,164.55a.47.47,0,0,1-.55-.14.45.45,0,0,1,.08-.64l1.42-1.1a.46.46,0,1,1,.56.72l-1.42,1.1Z"/><path class="cls-11" d="M137.57,164.74a.46.46,0,0,1-.54-.14.46.46,0,0,1,.08-.65l1.42-1.1a.46.46,0,0,1,.56.73l-1.42,1.1Z"/><path class="cls-11" d="M139.68,164.79a.47.47,0,0,1-.55-.14.45.45,0,0,1,.08-.64l1.42-1.1a.46.46,0,1,1,.56.72l-1.42,1.1A.24.24,0,0,1,139.68,164.79Z"/><path class="cls-11" d="M141.87,164.66a.47.47,0,0,1-.55-.14.46.46,0,0,1,.08-.64l1.42-1.11a.47.47,0,0,1,.65.09.46.46,0,0,1-.09.64L142,164.6Z"/><path class="cls-12" d="M103.53,104.83c-2.36-2.33-21-7.53-33.43-4.07a16.06,16.06,0,0,0,1.22,16.06C87.61,119.49,96.7,125,96.7,125s5.78,13.35,9.21,18.25,11.31,20.46,11.31,20.46l11.86-5.07S110,111.17,103.53,104.83Z"/><path class="cls-13" d="M116,160.75a.28.28,0,0,0,.13,0l11.61-4.82a.35.35,0,0,0-.26-.64l-11.61,4.83a.34.34,0,0,0,.13.66Z"/><path class="cls-13" d="M117.9,159.77l.13,0a.35.35,0,0,0,.19-.45,90.76,90.76,0,0,0-8.12-14.71c-5.63-8.54-11.51-23-11.57-23.12a.34.34,0,1,0-.63.25c.06.15,6,14.64,11.63,23.24a91.59,91.59,0,0,1,8.06,14.6A.34.34,0,0,0,117.9,159.77Z"/><polygon class="cls-6" points="89.43 161.62 90.32 168.34 97.69 168.34 97.41 161.42 89.43 161.62"/><path class="cls-9" d="M115.89,180H88a3.89,3.89,0,0,1-.36-1.55c-.18-2.35.57-6.12.94-8.49,0-.28.09-.54.11-.77a6.93,6.93,0,0,0,.09-1,1.42,1.42,0,0,1,1.71-1.61c2.82,2.77,6-1.38,7.89,0,0,0,.8.58,3,2.57s6,3.31,9.19,4.65c4.13,1.73,5.31,3.45,5.54,4.64A2.17,2.17,0,0,1,115.89,180Z"/><path class="cls-10" d="M115.89,180H88a3.89,3.89,0,0,1-.36-1.55h28.48A2.17,2.17,0,0,1,115.89,180Z"/><path class="cls-10" d="M90.85,180H90a6.09,6.09,0,0,0,1.5-4.46,7.87,7.87,0,0,0-2.94-5.58c0-.28.09-.54.11-.77a8.52,8.52,0,0,1,3.49,6.32A6.74,6.74,0,0,1,90.85,180Z"/><path class="cls-11" d="M100.92,170.78a.46.46,0,0,1-.11-.9l1.74-.43a.46.46,0,1,1,.22.89l-1.74.43Z"/><path class="cls-11" d="M99.19,169.33a.47.47,0,0,1-.45-.34.46.46,0,0,1,.34-.56l1.74-.43a.46.46,0,1,1,.22.89l-1.74.43Z"/><path class="cls-11" d="M102.66,171.8a.46.46,0,0,1-.11-.91l1.74-.43a.46.46,0,1,1,.22.89l-1.74.43Z"/><path class="cls-11" d="M104.4,172.77a.46.46,0,0,1-.11-.9l1.75-.44a.46.46,0,0,1,.22.89l-1.75.44Z"/><path class="cls-11" d="M106.3,173.67a.46.46,0,0,1-.11-.9l1.74-.44a.46.46,0,0,1,.23.89l-1.75.44Z"/><path class="cls-11" d="M108.36,174.44a.46.46,0,0,1-.44-.35.46.46,0,0,1,.33-.56l1.74-.43a.46.46,0,0,1,.23.89l-1.75.44Z"/><path class="cls-14" d="M33.56,106.05c0,.11,0,.22,0,.32l.16.13a38.94,38.94,0,0,0,14.54,6.78l.54.13c.89.21,1.78.38,2.67.53,1.2.2,2.4.36,3.59.46s2.11.15,3.14.17a38.77,38.77,0,0,0,12.28-1.64l.4-.14a22.49,22.49,0,0,0,2.69-1.07,2.64,2.64,0,0,0,.38-.18c.53-.25,1-.53,1.5-.81-.07-1.72-.09-3.78-.08-6,0-.19,0-.37,0-.55,0-3.06.12-6.37.24-9.39,0-.14,0-.28,0-.42.07-1.58.14-3.08.21-4.41,0-.15,0-.29,0-.43.06-1.12.12-2.13.17-3,0-.21,0-.42,0-.63l0-.48h0c0-.58.09-1.15.14-1.71.07-.89.16-1.76.25-2.6s.22-1.9.34-2.8.27-1.91.42-2.81.32-1.9.49-2.79c.6-3.14,1.27-5.83,1.94-8.15.05-.16.1-.32.14-.48.28-.92.55-1.78.81-2.59l.18-.52c1.5-4.45,2.74-7.13,2.76-8.94,0-3.74-2.7-4.94-5.55-6.45l-.41-.22c-.48-.26-1-.53-1.43-.83-.19-.12-.39-.25-.58-.39l-.39-.28a8.42,8.42,0,0,1-2.76-3.52l-10.8-2.27a15.81,15.81,0,0,1-2.77,1l-.5.12-.64.14-.42.08-.34.06a21.3,21.3,0,0,1-3.58.24l-.41,0h-.3a7.38,7.38,0,0,0-2.62.34h0l-.47.17c-3.51,1.41-6.27,5.6-8.06,12-.49,1.79-1,3.53-1.46,5.24l-.15.55c-.1.38-.21.75-.31,1.12h0c0,.14-.07.27-.11.4-.37,1.33-.72,2.63-1.07,3.92h0c0,.14-.07.27-.1.41h0a2.25,2.25,0,0,0-.05.22l-.2.75A124.53,124.53,0,0,0,35.3,78.44c-.14.93-.25,1.87-.36,2.81,0,.22,0,.48-.08.76,0,0,0,.1,0,.16s0,.19,0,.3a.77.77,0,0,0,0,.15c-.17,1.69-.4,4-.61,6.64,0,.13,0,.27,0,.41C33.65,95.71,33.2,102.89,33.56,106.05Z"/><path class="cls-15" d="M64.47,101h0c-6.31-1.43-9.7-11-9.85-11.37a.31.31,0,0,1,.19-.39.32.32,0,0,1,.4.19c0,.09,3.42,9.61,9.4,11a.31.31,0,0,1,.23.37A.3.3,0,0,1,64.47,101Z"/><path class="cls-15" d="M69.69,109.72a4.53,4.53,0,0,0-3.82-1,6.31,6.31,0,0,0-4,1.92c-1.18,1.08-1.9,1.74-5.36-.53-3.74-2.44-6.8-2.15-8.07-.85-.95,1-1,2.45-.14,4l.54.13c-.93-1.54-1-3-.1-3.87a4.11,4.11,0,0,1,3.84-.72,10.92,10.92,0,0,1,3.7,1.63c3.56,2.32,4.51,1.73,5.87.48a5.83,5.83,0,0,1,3.77-1.81,4.16,4.16,0,0,1,3.49.89,4.32,4.32,0,0,1,1.11,2.92l.4-.14A4.56,4.56,0,0,0,69.69,109.72Z"/><path class="cls-15" d="M74,111.5a3.64,3.64,0,0,1-1-3,6.82,6.82,0,0,1,2.44-3.77c0-.19,0-.37,0-.55a7.51,7.51,0,0,0-2.86,4.27,4,4,0,0,0,1,3.25c.13-.06.26-.11.38-.18Z"/><path class="cls-12" d="M81.93,21.85s6.12-1.29,6.26-3.63c.13-2.15-2.41-1.92-2.41-1.92s3-4.88,1.26-5.83-3.85,1.77-3.85,1.77,1.56-5.78-.52-5.36-2.35,3.59-2.35,3.59S73.4,8,69.47,9.19a5,5,0,0,0-3.31,3.38s-1.59-1-2.72-.37-.1,2.57-.1,2.57a3.52,3.52,0,0,0-1.21,3.48c.54,2.13,2.06,6.35,2.06,6.35Z"/><path class="cls-6" d="M73.3,38.83l-.59,2.81a8.62,8.62,0,0,1-1.15.49c-5.5,1.9-10-2.84-10-2.84l2.06-9.74,8.52,8.17Z"/><path class="cls-12" d="M73.3,38.83l-.59,2.81a8.62,8.62,0,0,1-1.15.49c-3.81-2.52-5.91-7.52-5.91-7.52l6.49,3.11Z"/><path class="cls-12" d="M78.71,16.07s6.66,2.07,2.71,8.66C81.42,24.73,78.16,17.89,78.71,16.07Z"/><path class="cls-8" d="M79.44,27.11s2-1.55,2.49.53-1,5.75-3.29,4.61Z"/><path class="cls-6" d="M79.74,34.09s-1.21,5.81-7.25,4.52-9.11-6.86-9.28-7.12h0l.19-1.23,1-6.41.54-3.43s.51-6.26,6.55-6.15c4.4.08,8.23,1.62,9.77,4.25a5.29,5.29,0,0,1,.68,3.34L80.84,28l-.27,1.5Z"/><path class="cls-12" d="M67.42,24.6s.89,3.57,2.85,3.4a8.44,8.44,0,0,1,5.67,1.19s3-.45,4.49,1.07c1,1-1.31,8.59-5.52,8.86s-9.27-2.25-9.77-6.27a22.46,22.46,0,0,1,.25-7.19Z"/><path class="cls-11" d="M77.18,30.9a16.71,16.71,0,0,1-5.07-1.31s-.74,3.33,2.13,3.61C76.55,33.43,77.18,30.9,77.18,30.9Z"/><path class="cls-8" d="M72.79,27.06c-.09.42-1,.58-2.1.36s-1.88-.76-1.79-1.18,1-.58,2.11-.35S72.88,26.64,72.79,27.06Z"/><path class="cls-8" d="M80.57,29.48l-.48-.08c-1.07-.23-1.87-.75-1.78-1.18s1-.58,2.11-.35a3.25,3.25,0,0,1,.42.11Z"/><path class="cls-12" d="M73.22,24.72c-.12.58-.48,1-.81.93s-.49-.6-.37-1.18.49-1,.81-.93S73.34,24.14,73.22,24.72Z"/><path class="cls-12" d="M79,25.93c-.12.58-.48,1-.81.93s-.49-.6-.37-1.18.49-1,.81-.93S79.09,25.35,79,25.93Z"/><path class="cls-12" d="M75.4,28.23a.24.24,0,0,1-.19-.29.24.24,0,0,1,.29-.18,1.7,1.7,0,0,0,1.57-.37C76.53,25.22,76,23,76,23a.25.25,0,0,1,.48-.11s.55,2.28,1.1,4.49a.26.26,0,0,1,0,.21A2.1,2.1,0,0,1,75.4,28.23Z"/><path class="cls-12" d="M70.87,21.44c.27-.59,1-1.63,3-1.3a.53.53,0,0,1,.44.48h0a.53.53,0,0,1-.54.56,2.33,2.33,0,0,0-2,.87.53.53,0,0,1-.77,0L71,22A.54.54,0,0,1,70.87,21.44Z"/><path class="cls-12" d="M80.93,23.56c0-.64-.27-1.9-2.22-2.4a.53.53,0,0,0-.6.26h0a.52.52,0,0,0,.27.73,2.35,2.35,0,0,1,1.45,1.59.51.51,0,0,0,.68.34l.07,0A.54.54,0,0,0,80.93,23.56Z"/><path class="cls-12" d="M65.6,29.53a5.4,5.4,0,0,1-2.39,2h0l.19-1.23A4.22,4.22,0,0,0,65.6,29.53Z"/><path class="cls-6" d="M65.39,25.27s-1.67-3.61-3.89-1.52c-1.83,1.73-.28,7.56,2.87,6.34Z"/><path class="cls-12" d="M64.25,29.08a.25.25,0,0,1-.19-.26,4.07,4.07,0,0,0-1.64-3.71.25.25,0,0,1,.27-.41,4.57,4.57,0,0,1,1.86,4.16.23.23,0,0,1-.27.22Z"/><path class="cls-12" d="M62.33,27.16a.24.24,0,0,1-.17-.13.25.25,0,0,1,.11-.33,2.37,2.37,0,0,1,1.79-.21.24.24,0,0,1,.11.32.25.25,0,0,1-.33.11,1.94,1.94,0,0,0-1.35.22A.3.3,0,0,1,62.33,27.16Z"/><path class="cls-12" d="M81.25,18.51a1.07,1.07,0,0,1-.38.46c-1.43,1-4.11,0-6.52-1.37a4.6,4.6,0,0,0-4.6.15c.19,2.61-2.27,2.3-2.15,4.28A15.4,15.4,0,0,1,67,26.42l-1.47-.51a3.71,3.71,0,0,0-1.15-2.07l.54-3.43s.51-6.26,6.55-6.15C75.89,14.34,79.71,15.88,81.25,18.51Z"/><path class="cls-11" d="M81,26.81l2.57.42a.21.21,0,0,1,.18.25.22.22,0,0,1-.25.18L81,27.25C81,27.1,81,27,81,26.81Z"/><path class="cls-11" d="M75.73,24.78a3.4,3.4,0,0,0,0-.45,3.84,3.84,0,0,0-1-2.1,3.64,3.64,0,0,0-1.91-1.05h0a3.71,3.71,0,0,0-4.1,2.12,2.9,2.9,0,0,0-.16.41c0,.13-.07.26-.1.39a3.66,3.66,0,0,0,1.1,3.41,3.62,3.62,0,0,0,1.82.94,3.72,3.72,0,0,0,4.36-2.91h0A3.78,3.78,0,0,0,75.73,24.78ZM71.39,28h-.06a3.29,3.29,0,0,1-2.52-3.83,3.79,3.79,0,0,1,.14-.48,0,0,0,0,0,0,0,3.25,3.25,0,0,1,2.84-2.11,3,3,0,0,1,.85.05,3.15,3.15,0,0,1,1.6.82A3.26,3.26,0,0,1,71.39,28Z"/><path class="cls-11" d="M82.31,23.21c-.1-.06-.21-.1-.31-.15l-.39-.13-.28-.06a3.09,3.09,0,0,0-.52-.07,4.24,4.24,0,0,0-.62,0,3.8,3.8,0,0,0-1.57.56,3.71,3.71,0,0,0-1.25,1.33,3.42,3.42,0,0,0-.21.43,0,0,0,0,1,0,0,5.43,5.43,0,0,0-.18.61,3.73,3.73,0,0,0,1.4,3.68,3.63,3.63,0,0,0,1.21.61l.21.05.1,0a3.52,3.52,0,0,0,1.07.05h.16a2.42,2.42,0,0,0,.45-.1,3.61,3.61,0,0,0,.79-.31,3.7,3.7,0,0,0,0-6.56Zm1.51,3.93c0,.07,0,.14,0,.21l-.09.28a3.27,3.27,0,0,1-1.33,1.64,2.81,2.81,0,0,1-.7.33,2.49,2.49,0,0,1-.47.12l-.14,0a3.15,3.15,0,0,1-1.06,0l-.1,0h-.06A3.4,3.4,0,0,1,78.44,29c0-.05-.11-.1-.16-.16a3.24,3.24,0,0,1-.87-2.92,2.72,2.72,0,0,1,.22-.7,3.31,3.31,0,0,1,3-1.94h.23l.43.06.3.07a3.12,3.12,0,0,1,.39.15,2.1,2.1,0,0,1,.3.15A3.28,3.28,0,0,1,83.82,27.14Z"/><path class="cls-11" d="M64,24l-.07,0a.22.22,0,0,1-.07-.3c1.45-2.32,5-.28,5-.26a.21.21,0,0,1,.08.3.23.23,0,0,1-.3.08s-3.23-1.85-4.46.11A.21.21,0,0,1,64,24Z"/><path class="cls-11" d="M77.33,25.27a.18.18,0,0,1-.14-.1c-.48-.72-1.49-.38-1.5-.38a.22.22,0,0,1-.28-.14.23.23,0,0,1,.14-.28,1.76,1.76,0,0,1,2,.56.22.22,0,0,1-.06.31A.23.23,0,0,1,77.33,25.27Z"/><path class="cls-12" d="M36.22,101s-5.76,22.7,24.08,22.7c15.94,0,23.52-1.53,23.52-1.53s.38,14.07,1.12,20,3.37,20.73,3.37,20.73l12.56,1s2-51.52-5.69-56.27-18.76-4.89-37.75-6.71C57.43,100.85,40.38,98,36.22,101Z"/><path class="cls-13" d="M90,158.74h.08a.32.32,0,0,0,.25-.41c-1.73-7.24-2.42-17.63-3-26S86.52,119.8,85.66,119s-3.74-.53-8.37,0c-5.73.61-14.41,1.53-23.75.46-4.65-.53-8.21-2.35-10.59-5.41-4.26-5.48-3.28-13.17-3.27-13.25a.35.35,0,0,0-.29-.38.35.35,0,0,0-.39.29c0,.33-1,8.05,3.41,13.76,2.5,3.2,6.21,5.11,11.05,5.67,9.42,1.08,18.14.15,23.91-.46,4-.43,7.12-.76,7.84-.13.16.14.48.85.81,4,.25,2.31.45,5.35.69,8.87.55,8.37,1.24,18.79,3,26.09A.34.34,0,0,0,90,158.74Z"/><path class="cls-13" d="M100.73,159.77a.34.34,0,0,0,0-.68l-12.84-.78a.34.34,0,1,0,0,.68l12.84.78Z"/><rect class="cls-16" x="66.04" y="102.5" width="37.92" height="4.94" rx="0.15"/><path class="cls-17" d="M107.91,107.45a3.16,3.16,0,0,0,3-2.34l7.09-26.56a2.55,2.55,0,0,0-2.47-3.21h-17a2.56,2.56,0,0,0-2.46,1.86l-8.49,30.25Z"/><path class="cls-16" d="M96.14,77.2l-8.42,30H85.78l8.42-30a2.56,2.56,0,0,1,2.46-1.86H98.6A2.56,2.56,0,0,0,96.14,77.2Z"/><path class="cls-18" d="M100.94,91.82a2.32,2.32,0,0,0,2.32,3,4,4,0,0,0,3.72-3,2.33,2.33,0,0,0-2.33-3A4,4,0,0,0,100.94,91.82Z"/><path class="cls-6" d="M77.78,96.63s7.7.53,10.16,2.88l-1.5,5.32s-4.6-1.88-5.88-1.7-2,2.28-6.3,1Z"/><path class="cls-6" d="M77.74,96.28l-.87-.36-.9-.38q-.9-.37-1.8-.78c-1.2-.53-2.4-1.09-3.58-1.65-2.37-1.14-4.69-2.35-6.93-3.63a67.59,67.59,0,0,1-6.38-4.09l-1.44-1.11c-.46-.38-.91-.76-1.34-1.14a20,20,0,0,1-2.23-2.32,11.21,11.21,0,0,1-.77-1.09,7.59,7.59,0,0,1-.5-1,12.9,12.9,0,0,1-.7-2.65,27.29,27.29,0,0,1-.12-6.62,52.93,52.93,0,0,1,1.16-7.19c.28-1.2.59-2.41.93-3.6.17-.6.35-1.19.53-1.78.09-.29.19-.58.28-.86l.15-.42.07-.2,0-.09,0,0v0a6.8,6.8,0,1,0-12.26-5.87,6.09,6.09,0,0,0-.39,1l-.2.7-.06.19,0,.15-.08.29-.14.56c-.1.37-.19.74-.27,1.1-.17.73-.33,1.45-.48,2.17-.3,1.45-.56,2.9-.78,4.37a66.05,66.05,0,0,0-.77,9,46.77,46.77,0,0,0,.17,4.7,33.66,33.66,0,0,0,.8,4.91,23.63,23.63,0,0,0,1.84,5.08,18.86,18.86,0,0,0,1.52,2.51A22.12,22.12,0,0,0,44,88.19a30.86,30.86,0,0,0,3.68,3.3c1.24,1,2.5,1.81,3.77,2.6a75.77,75.77,0,0,0,7.68,4.17c2.58,1.23,5.18,2.34,7.8,3.37,1.31.51,2.63,1,4,1.48l2,.69,1,.34,1,.34a4.34,4.34,0,0,0,3-8.15Z"/><path class="cls-8" d="M46.25,81.66h.08A19.45,19.45,0,0,1,51.91,81a.27.27,0,1,0,0-.53,19.52,19.52,0,0,0-5.77.68.27.27,0,0,0,.08.53Z"/><path class="cls-8" d="M51.25,81a.26.26,0,0,0,.2-.1.27.27,0,0,0,0-.38,6.56,6.56,0,0,0-2.27-1.23.27.27,0,0,0-.33.18.28.28,0,0,0,.18.34,6.17,6.17,0,0,1,2.06,1.12A.31.31,0,0,0,51.25,81Z"/><path class="cls-19" d="M36.66,64.5,42.23,66l.41.11L46.5,67.2l.47.13,5,1.36.38-1.76.08-.42.9-4.13.09-.42,1.69-7.78a16.31,16.31,0,0,0,.5-5.89,7.63,7.63,0,0,0-7.16-6.49,5.4,5.4,0,0,0-2.21.32l-.42.17a8.88,8.88,0,0,0-3.48,3.14c-.08.11-.15.23-.22.34A34,34,0,0,0,38,56.4c0,.15-.07.29-.1.44-.4,1.78-.7,3.5-.93,5,0,.23-.07.46-.1.68C36.81,63.25,36.72,63.92,36.66,64.5Z"/><path class="cls-7" d="M52.28,67c.91-5.45,3.07-15.55,3.09-15.61a.2.2,0,0,1,.39.09c0,.06-2.16,10.13-3.08,15.55C52.62,67.26,52.28,67.27,52.28,67Z"/><path class="cls-7" d="M54.75,55.44a.2.2,0,0,0,.11,0L57,54.06a.21.21,0,0,0,.06-.28.21.21,0,0,0-.28-.06l-2.1,1.35a.2.2,0,0,0-.07.28A.21.21,0,0,0,54.75,55.44Z"/><path class="cls-11" d="M68.38,56a2.83,2.83,0,0,0,1.94-.77c3.33-2.93,3.31-13.56,3.31-14a.38.38,0,0,0-.39-.39h0a.39.39,0,0,0-.38.39c0,.11,0,10.74-3,13.43a2.07,2.07,0,0,1-1.73.56c-4.09-.54-6-12.44-6.33-17a.39.39,0,1,0-.77.07,66.27,66.27,0,0,0,1.35,8.46C63.71,52.58,65.6,55.68,68,56Z"/><path class="cls-16" d="M37.48,155.4H77.79a1.71,1.71,0,0,0,0-3.41H37.48a1.71,1.71,0,1,0,0,3.41Z"/><path class="cls-20" d="M81.49,181.47h.23a1.71,1.71,0,0,0,1.47-1.92l-7.34-54.82a1.72,1.72,0,0,0-1.7-1.48H41.27a1.71,1.71,0,0,0-1.69,1.49l-7.23,54.81a1.71,1.71,0,1,0,3.39.45l7-53.33H72.66L79.8,180A1.71,1.71,0,0,0,81.49,181.47Z"/><path class="cls-20" d="M64.63,125H43.27c-6.76,0-14-3.7-15.05-10.39A126.58,126.58,0,0,1,26.88,89c.44-9,3.93-17.33,11-22.9h0s-3,34.66-.3,44.23C41.25,123.15,64.63,125,64.63,125Z"/><circle class="cls-17" cx="109.67" cy="34.41" r="11.41" transform="translate(-3.32 13.35) rotate(-6.86)"/><path class="cls-11" d="M103.08,34.41a6.6,6.6,0,1,0,6.59-6.6A6.6,6.6,0,0,0,103.08,34.41Zm3.7,2.43a8.59,8.59,0,0,1-.35-2.31h3v2.31Zm1.55,3.48a6,6,0,0,1-3.94-3h2a7.48,7.48,0,0,0,1.15,2.1A7.16,7.16,0,0,0,108.33,40.32Zm1.08-3v3.09a5.37,5.37,0,0,1-1.47-1.33,7,7,0,0,1-1-1.76Zm-2.3-6.21a8.21,8.21,0,0,1,2.06-2.8h.24v2.81Zm-2.55,0a6.07,6.07,0,0,1,3.69-2.65,9.42,9.42,0,0,0-.84,1,8.47,8.47,0,0,0-.88,1.62ZM106.43,34a7.59,7.59,0,0,1,.46-2.31h2.52V34Zm-2.81,0a6.16,6.16,0,0,1,.63-2.31h2.08A7.93,7.93,0,0,0,105.9,34Zm2.28.53a9.07,9.07,0,0,0,.33,2.31h-2.11a6.11,6.11,0,0,1-.51-2.31Zm7.49,0h2.35a6.11,6.11,0,0,1-.51,2.31h-2.17A9.54,9.54,0,0,0,113.39,34.53Zm-3.45-3.37V28.35h.17a7.75,7.75,0,0,1,1.34,1.49,8,8,0,0,1,.73,1.31Zm2.46.53a8,8,0,0,1,.46,2.31h-2.92V31.69Zm.36-.53a8.52,8.52,0,0,0-.89-1.62,8,8,0,0,0-.85-1.05,6.12,6.12,0,0,1,3.77,2.67Zm.1,3.37a8.94,8.94,0,0,1-.35,2.31h-2.57V34.53Zm.53-.53a8.27,8.27,0,0,0-.43-2.31h2.13a6,6,0,0,1,.64,2.31ZM115,37.37a6.1,6.1,0,0,1-4,3,6.79,6.79,0,0,0,.82-.87,7.21,7.21,0,0,0,1.14-2.1Zm-2.63,0a6.32,6.32,0,0,1-2.39,3.06V37.37Z"/><polygon class="cls-17" points="103.84 43.74 97.7 45.04 100.36 39.75 103.84 43.74"/><path class="cls-21" d="M188.1,112.25s4,1.14,8.44-4.59c3.2-4.15,8.87-13,16.68-13.15,0,0-9.27-4-17.46.07s-12.55,14.69-7.66,17.67"/><path class="cls-22" d="M185.71,128.82h0a.21.21,0,0,0,.2-.22,61,61,0,0,1,.84-11.9c1-5.79,3.41-13.43,9.09-17a.2.2,0,0,0,.06-.29.21.21,0,0,0-.29-.07,17.47,17.47,0,0,0-6.34,7.54,37.43,37.43,0,0,0-2.94,9.71,60,60,0,0,0-.84,12A.21.21,0,0,0,185.71,128.82Z"/><path class="cls-21" d="M185.06,99.61s-4.06-1-5.15-8.11c-.78-5.18-1.43-15.67-8.18-19.6,0,0,10.06,1,15.22,8.55s3.83,18.94-1.89,19.16"/><path class="cls-22" d="M179.47,129.29a.23.23,0,0,0,.2-.14,143.67,143.67,0,0,0,4.66-16.57,88.92,88.92,0,0,0,2-14.55c.24-5.39-.3-9.86-1.59-13.28a.21.21,0,0,0-.27-.13.22.22,0,0,0-.13.28c2.89,7.65,1.36,19.22-.44,27.59A137.39,137.39,0,0,1,179.27,129a.21.21,0,0,0,.13.27Z"/><path class="cls-21" d="M178,103.12s-4.13.57-7.71-5.74c-2.58-4.56-6.93-14.12-14.65-15.37,0,0,9.75-2.67,17.27,2.54s10.36,16.32,5.09,18.57"/><path class="cls-22" d="M177.32,129.29a.21.21,0,0,0,.21-.17,92.91,92.91,0,0,0,1.4-15.37,57.57,57.57,0,0,0-1.27-13.1,25.38,25.38,0,0,0-5.31-11.3.21.21,0,1,0-.32.28c5.42,6.1,6.52,16.48,6.48,24.12a91.71,91.71,0,0,1-1.4,15.28.21.21,0,0,0,.17.25Z"/><path class="cls-21" d="M170.85,112.77s-3.94,1.37-8.7-4.1c-3.43-4-9.6-12.45-17.42-12.15,0,0,9-4.55,17.44-.94s13.39,13.93,8.68,17.19"/><path class="cls-22" d="M174.68,129.29a.22.22,0,0,0,.22-.21,45,45,0,0,0-1.33-10.73,37.89,37.89,0,0,0-3.62-9.41,27,27,0,0,0-7.33-8.56.21.21,0,0,0-.3.05.21.21,0,0,0,0,.29c6.53,4.91,9.48,12.35,10.8,17.73a44.66,44.66,0,0,1,1.31,10.62.22.22,0,0,0,.21.22Z"/><rect class="cls-23" x="162.74" y="163.64" width="32.62" height="2.58" rx="1.16" transform="translate(358.1 329.86) rotate(180)"/><rect class="cls-24" x="163.21" y="135.01" width="31.61" height="5.46" rx="0.9"/><path class="cls-25" d="M165.37,120.51l.37,1,.24.63.68,1.81.24.63.7,1.85.23.63,3,8H187.2l3-8,.24-.63.69-1.85.24-.63.68-1.81.24-.63.37-1a1,1,0,0,0-1-1.41H166.34A1,1,0,0,0,165.37,120.51Z"/><polygon class="cls-15" points="165.74 121.5 165.98 122.13 192.05 122.13 192.29 121.5 165.74 121.5"/><polygon class="cls-15" points="166.66 123.94 166.9 124.57 191.13 124.57 191.37 123.94 166.66 123.94"/><polygon class="cls-15" points="167.6 126.42 167.83 127.05 190.2 127.05 190.44 126.42 167.6 126.42"/><polygon class="cls-23" points="195.11 178.22 184.31 143.4 183.4 140.47 190.65 140.47 191.4 144.23 198.23 178.22 195.11 178.22"/><polygon class="cls-23" points="162.84 178.22 159.73 178.22 167.13 141.38 167.13 141.38 167.31 140.47 174.56 140.47 174.02 142.19 162.84 178.22"/><rect class="cls-24" x="162.74" y="158.02" width="32.62" height="2.58" rx="1.16" transform="translate(358.1 318.62) rotate(-180)"/></g></g></g></svg>