<svg xmlns="http://www.w3.org/2000/svg" viewBox="0 0 31.01 37.9"><defs><style>.cls-1{fill:#fa5;}</style></defs><g id="Layer_2" data-name="Layer 2"><g id="Option_1" data-name="Option 1"><path class="cls-1" d="M23.19,7.42H7.82a.67.67,0,0,0,0,1.33H23.19a.67.67,0,1,0,0-1.33Z"/><path class="cls-1" d="M23.19,18H7.82a.67.67,0,0,0,0,1.33H23.19a.67.67,0,1,0,0-1.33Z"/><path class="cls-1" d="M16.3,23.32H7.82a.67.67,0,0,0,0,1.33H16.3a.67.67,0,1,0,0-1.33Z"/><path class="cls-1" d="M23.19,12.72H7.82a.67.67,0,0,0,0,1.33H23.19a.67.67,0,1,0,0-1.33Z"/><path class="cls-1" d="M29,0H2A2,2,0,0,0,0,2V35.91a2,2,0,0,0,2,2H20a6,6,0,0,0,3.57-1.42l5.93-5.57A5.46,5.46,0,0,0,31,27.43V2A2,2,0,0,0,29,0Zm-.16,29.63a2.22,2.22,0,0,1-.27.31l-5.92,5.57a3.37,3.37,0,0,1-.47.35L22,36V30.87a1.41,1.41,0,0,1,.43-1,1.43,1.43,0,0,1,1-.43H29Zm.82-2.2a2.67,2.67,0,0,1-.08.56l0,.1H23.45a2.79,2.79,0,0,0-2.78,2.78v5.61l-.11,0a2.5,2.5,0,0,1-.55.07H2a.63.63,0,0,1-.46-.2.63.63,0,0,1-.2-.46V2A.67.67,0,0,1,2,1.33H29a.67.67,0,0,1,.66.66Z"/></g></g></svg>