<svg xmlns="http://www.w3.org/2000/svg" viewBox="0 0 203.19 182.01"><defs><style>.cls-1{isolation:isolate;}.cls-2{fill:#ffd371;opacity:0.3;}.cls-3{mix-blend-mode:multiply;}.cls-4{fill:#eaeaea;}.cls-5{fill:#fa5;}.cls-6{fill:#db7f2f;}.cls-7{fill:#4f4644;}.cls-8{fill:#716663;}.cls-9{fill:#94867e;}.cls-10{fill:#bba99e;}.cls-11{fill:#13242c;}.cls-12{fill:#0b6163;}.cls-13{fill:#043133;}.cls-14{fill:#af4739;}.cls-15{fill:#3f5576;}.cls-16{fill:#f0ebe6;}.cls-17{fill:#b14e15;}.cls-18{fill:#86241b;}.cls-19{fill:#f98c6a;}.cls-20{fill:#c35f49;}.cls-21{fill:#881f0b;}.cls-22{fill:#e3d7cf;}.cls-23{fill:#d24942;}</style></defs><g class="cls-1"><g id="Layer_2" data-name="Layer 2"><g id="Option_1" data-name="Option 1"><path class="cls-2" d="M104.84,15.16C47.33,15.44,22.35,36,22.35,36S-15.12,57.6,7,113.51c17.59,44.49,80,80.64,110.39,64.64s27.6-36,61-65.19,25.51-52.15,19.45-63.78C197.79,49.18,178.93,14.79,104.84,15.16Z"/><g class="cls-3"><ellipse class="cls-4" cx="99.79" cy="164.4" rx="82.83" ry="7.05"/></g><path class="cls-5" d="M140.24,32.38c0,.49-.06.95-.1,1.42s-.08.94-.13,1.4-.11.93-.16,1.4L139.66,38c-.26,1.86-.59,3.7-1,5.55-.19.92-.39,1.84-.61,2.77s-.45,1.84-.71,2.77-.53,1.87-.84,2.82l-.24.71-.26.73-.28.74-.13.32c0,.1-.09.21-.14.31s-.2.41-.3.6a11.18,11.18,0,0,1-1.38,1.95,14,14,0,0,1-1.46,1.43,17.72,17.72,0,0,1-1.47,1.11c-.49.33-1,.63-1.46.9s-1,.53-1.44.76-1,.45-1.44.65c-1,.42-1.91.76-2.86,1.08A48,48,0,0,1,118,64.67c-1,.19-1.91.35-2.87.48-.47.07-1,.12-1.44.17l-.73.07-.37,0-.19,0h-.2a2.81,2.81,0,0,1-1.62-5.26l.38-.22.13-.06.15-.07.3-.14.61-.27,1.22-.55,2.42-1.11c1.61-.75,3.18-1.5,4.67-2.3q1.13-.6,2.16-1.23c.35-.2.68-.42,1-.63s.63-.43.93-.65A11.15,11.15,0,0,0,126,51.67a4.61,4.61,0,0,0,.46-.54,1.24,1.24,0,0,0,.18-.33v0h0s0,0,0,0l.18-.56.17-.58.17-.6c.23-.81.46-1.65.68-2.5l1.33-5.17c.45-1.74.9-3.5,1.39-5.25l.37-1.31c.13-.44.25-.88.38-1.31s.26-.87.4-1.31.27-.87.42-1.29l0-.07a4.15,4.15,0,0,1,8.07,1.57Z"/><path class="cls-6" d="M131.56,53l-.11,0a22.33,22.33,0,0,0-4.75-1.35.26.26,0,1,1,.09-.51,22.77,22.77,0,0,1,4.88,1.39.26.26,0,0,1,.12.34A.26.26,0,0,1,131.56,53Z"/><path class="cls-6" d="M127.68,51.8a.26.26,0,0,1-.24-.16.25.25,0,0,1,.14-.33,23.2,23.2,0,0,1,2.4-.71.26.26,0,0,1,.31.2.26.26,0,0,1-.19.3,22.82,22.82,0,0,0-2.32.68A.2.2,0,0,1,127.68,51.8Z"/><polygon class="cls-7" points="164.3 144.86 164.43 154.62 162.1 154.35 161.46 144.86 164.3 144.86"/><path class="cls-8" d="M164.49,106.3c.11.35.2.7.3,1a43.71,43.71,0,0,1,1.1,5.44c1.18,8.71-.62,15.94-4.69,14.95s-5.09-10-5.42-15.94c-.06-1.14-.09-2.16-.11-3,0-1.37,0-2.23,0-2.23Z"/><path class="cls-7" d="M164.79,107.35a43.71,43.71,0,0,1,1.1,5.44c-3.15.63-7.78-.38-10.11-1-.06-1.14-.09-2.16-.11-3Z"/><path class="cls-8" d="M159.11,121.42s-3.17,1.65-1.25,9.66,1.11,15.93,5.62,16.3c2.27.19.53-5.1,3.76-12.88C168.08,132.49,168.28,118.09,159.11,121.42Z"/><circle class="cls-9" cx="161.73" cy="125.9" r="4.84" transform="translate(-15.12 22.3) rotate(-7.54)"/><path class="cls-10" d="M164.43,125.74a2.7,2.7,0,1,1-2.85-2.54A2.71,2.71,0,0,1,164.43,125.74Z"/><path class="cls-11" d="M163.08,125.82a1.35,1.35,0,1,1-1.43-1.27A1.35,1.35,0,0,1,163.08,125.82Z"/><path class="cls-12" d="M167.48,161.41v.14c0,.21,0,.4,0,.56l-.05.59H155.47a6.86,6.86,0,0,1,0-1.15,6,6,0,0,1,2.14-4.42c2.25-1.75,1.38-1.38,1.84-2.18.06-.09.46-1.44.51-1.53.38-.83.74-1.22,2.88-1.22,2.84,0,3.09,1.38,3.39,2.1a12.07,12.07,0,0,1,.47,1.69c.08.3.15.62.22.95.17.82.34,1.68.45,2.37A13.13,13.13,0,0,1,167.48,161.41Z"/><path class="cls-13" d="M167.48,161.41v.14c0,.21,0,.4,0,.56a3.29,3.29,0,0,1-1.25-1.6,6.72,6.72,0,0,1,.45-4.53h0c.08.3.15.62.22.95a5.41,5.41,0,0,0-.15,3.37A2.73,2.73,0,0,0,167.48,161.41Z"/><path class="cls-13" d="M167.48,161.55c0,.68-.07,1.15-.07,1.15H155.47a6.86,6.86,0,0,1,0-1.15Z"/><path class="cls-13" d="M163.22,155.92h-.09a5.81,5.81,0,0,0-2.77,0,.34.34,0,0,1-.18-.66,6.43,6.43,0,0,1,3.12.05.34.34,0,0,1,.24.42A.33.33,0,0,1,163.22,155.92Z"/><path class="cls-13" d="M163.41,154.55h-.08a5.89,5.89,0,0,0-2.77-.06.34.34,0,0,1-.42-.24.34.34,0,0,1,.24-.42,6.64,6.64,0,0,1,3.12.06.33.33,0,0,1,.24.41A.34.34,0,0,1,163.41,154.55Z"/><path class="cls-13" d="M162.7,157h-.08a6.06,6.06,0,0,0-2.77-.06.34.34,0,1,1-.18-.65,6.43,6.43,0,0,1,3.12.05.34.34,0,0,1,.24.42A.33.33,0,0,1,162.7,157Z"/><path class="cls-13" d="M162.1,158.23H162a6.06,6.06,0,0,0-2.77-.06.34.34,0,1,1-.18-.66,6.66,6.66,0,0,1,3.12.06.34.34,0,0,1-.09.67Z"/><polygon class="cls-14" points="141.61 145.76 141.61 153.4 135.67 153.81 134.47 145.25 141.61 145.76"/><path class="cls-12" d="M121.82,162.7l21.24,0a2.88,2.88,0,0,0,.28-1.18,34.94,34.94,0,0,0-.72-6.48c0-.21-.07-.4-.09-.58a6,6,0,0,1-.06-.74,1.08,1.08,0,0,0-1.31-1.22c-2.15,2.11-4.59-1-6,0,0,0-.61.44-2.29,1.95s-4.56,2.53-7,3.55c-3.15,1.32-4,2.64-4.22,3.55A1.71,1.71,0,0,0,121.82,162.7Z"/><path class="cls-13" d="M121.82,162.7l21.24,0a2.88,2.88,0,0,0,.28-1.18l-21.7,0A1.71,1.71,0,0,0,121.82,162.7Z"/><path class="cls-13" d="M140.9,162.68h.63a4.69,4.69,0,0,1-1.15-3.4,6,6,0,0,1,2.24-4.26c0-.21-.07-.4-.09-.58a6.5,6.5,0,0,0-2.65,4.81A5.16,5.16,0,0,0,140.9,162.68Z"/><path class="cls-13" d="M133.22,155.68a.36.36,0,0,0,.34-.27.35.35,0,0,0-.26-.42l-1.33-.33a.35.35,0,0,0-.16.68l1.32.33Z"/><path class="cls-13" d="M134.43,154.65a.35.35,0,0,0,.08-.69l-1.33-.33a.35.35,0,1,0-.16.68l1.32.33Z"/><path class="cls-13" d="M131.89,156.45a.35.35,0,0,0,.08-.69l-1.32-.33a.36.36,0,0,0-.43.26.35.35,0,0,0,.26.42l1.33.33Z"/><path class="cls-13" d="M130.56,157.19a.34.34,0,0,0,.34-.26.35.35,0,0,0-.25-.43l-1.33-.33a.35.35,0,0,0-.42.26.33.33,0,0,0,.25.42l1.33.33Z"/><path class="cls-13" d="M129.12,157.88a.35.35,0,0,0,.34-.27.36.36,0,0,0-.26-.42l-1.33-.33a.36.36,0,0,0-.42.26.34.34,0,0,0,.26.42l1.32.33Z"/><path class="cls-13" d="M127.55,158.47a.35.35,0,0,0,.34-.27.34.34,0,0,0-.26-.42l-1.32-.33a.36.36,0,0,0-.43.25.36.36,0,0,0,.26.43l1.32.33Z"/><path class="cls-11" d="M141.27,123.61c.61,10.16,1.35,23.75,1.35,23.75l-9.44-.11a332.51,332.51,0,0,1-7-39.39l12.91-32,14.75,6.69-15.15,29.7h-.05A31.38,31.38,0,0,1,141.27,123.61Z"/><path class="cls-15" d="M142.16,144.16h-9.31a.32.32,0,0,1-.32-.33.32.32,0,0,1,.32-.32h9.31a.32.32,0,0,1,.33.32A.33.33,0,0,1,142.16,144.16Z"/><path class="cls-15" d="M130.18,109.67a5.68,5.68,0,0,1-3.86-1.52.32.32,0,0,1,0-.45.31.31,0,0,1,.45,0,5.19,5.19,0,0,0,3.54,1.32.32.32,0,0,1,.34.31.34.34,0,0,1-.32.34Z"/><path class="cls-15" d="M140.93,144.16a.33.33,0,0,1-.33-.3c0-.15-1.19-15.14-1.39-20.24s-2.72-12.1-2.74-12.17a.34.34,0,0,1,0-.26c3.37-6.39,13.63-27.11,13.74-27.31a.31.31,0,0,1,.43-.15.32.32,0,0,1,.15.43c-.1.21-10.24,20.67-13.68,27.21.35,1,2.54,7.48,2.73,12.23.19,5.08,1.38,20.06,1.39,20.21a.32.32,0,0,1-.3.35Z"/><path class="cls-11" d="M160.94,111.29h-2.19a5.69,5.69,0,0,1-5.68-5.3c-.83-11.93.38-30.54.38-30.54l14.77-1.33s-.12,3.58-.64,13.7c-.24,4.57-.63,12-1,18.07A5.7,5.7,0,0,1,160.94,111.29Z"/><path class="cls-11" d="M138.43,70.85s-.82,11.23,6.22,12.31c4.94.75,17.31.42,22.89-3.06,4-2.48-.11-13.49-.11-13.49Z"/><path class="cls-15" d="M138,79.63a.31.31,0,0,1-.31-.25.32.32,0,0,1,.23-.39h0a3.91,3.91,0,0,0,2.23-1.7,4.14,4.14,0,0,0,0-3.38.33.33,0,0,1,.19-.42.33.33,0,0,1,.42.2,4.71,4.71,0,0,1-.06,3.91,4.49,4.49,0,0,1-2.64,2Z"/><path class="cls-15" d="M166.45,78.51a7,7,0,0,1-5.75-2.89A10.34,10.34,0,0,1,158.94,72a.33.33,0,0,1,.24-.39.32.32,0,0,1,.39.25h0a10,10,0,0,0,1.66,3.4,6.45,6.45,0,0,0,6.62,2.5.32.32,0,0,1,.37.27.32.32,0,0,1-.27.37A9,9,0,0,1,166.45,78.51Z"/><path class="cls-16" d="M165.92,81.54a3.37,3.37,0,0,0,.69-.07,2.94,2.94,0,0,0,2.07-1.54c2-3.72-1.64-12.72-1.8-13.1a.37.37,0,0,0-.49-.21.38.38,0,0,0-.22.5c0,.09,3.65,9,1.83,12.44a2.14,2.14,0,0,1-1.55,1.16c-2.49.51-4.6-2.72-5.93-5.52a42.39,42.39,0,0,1-2.35-6.49.38.38,0,1,0-.74.19C157.56,69.44,160.72,81.54,165.92,81.54Z"/><path class="cls-15" d="M152.91,83.72a.37.37,0,0,1-.17,0A16.94,16.94,0,0,1,147,77.53a.34.34,0,0,1,.13-.44.33.33,0,0,1,.44.14,16.6,16.6,0,0,0,5.52,5.88.33.33,0,0,1-.16.61Z"/><path class="cls-5" d="M137.53,26.08s-5.14-9.29,8.14-11.47c10.87-1.77,11.65,5.79,10.36,9.13S142.26,29.11,137.53,26.08Z"/><path class="cls-5" d="M147,21s8.3.59,11.6,2.43c4.46,2.49,4.78,18,6.32,24.71s5,18.1,4.26,21.19-25.51,6.27-30.54,4.49c-2.65-.94-.91-19-3.22-26.54s-4.83-12.53-4.48-15.89c.28-2.73,8-6.87,8-6.87Z"/><path class="cls-6" d="M151.31,34.1l.95,5s-9.09,1.34-12.41,1.76l-.75-5Z"/><path class="cls-6" d="M139.42,27.74h-.09a4.27,4.27,0,0,1-2.14-2,.25.25,0,0,1,.12-.34.27.27,0,0,1,.35.12h0a3.74,3.74,0,0,0,1.85,1.71.26.26,0,0,1,.15.33A.25.25,0,0,1,139.42,27.74Z"/><path class="cls-6" d="M150.39,48a20.6,20.6,0,0,1-9.88-2.45,16.76,16.76,0,0,1-4.37-3.29.26.26,0,0,1,.39-.34,16.24,16.24,0,0,0,4.24,3.19,20.54,20.54,0,0,0,12.32,2.22.25.25,0,0,1,.28.22.26.26,0,0,1-.22.29A24.23,24.23,0,0,1,150.39,48Z"/><path class="cls-6" d="M135.83,49.21a.27.27,0,0,1-.25-.19c0-.09-2.81-9.58-4.34-13.38a.25.25,0,0,1,.14-.33.26.26,0,0,1,.34.14c1.54,3.82,4.33,13.33,4.36,13.43a.26.26,0,0,1-.18.32Z"/><path class="cls-6" d="M166.49,67.9a56.63,56.63,0,0,0-3.08-17.09c-2.49-7.48-3.14-18.79-3.15-18.9a.26.26,0,0,0-.28-.25.27.27,0,0,0-.25.28c0,.11.67,11.49,3.18,19A56.12,56.12,0,0,1,166,67.9Z"/><path class="cls-6" d="M145.21,72a32,32,0,0,1-7.37-.68.26.26,0,0,1-.18-.32.24.24,0,0,1,.31-.18,33.68,33.68,0,0,0,8.23.66,72,72,0,0,0,22.62-4.52.26.26,0,0,1,.33.15.26.26,0,0,1-.16.33A71.78,71.78,0,0,1,146.18,72Z"/><path class="cls-17" d="M155.65,59.12a21.11,21.11,0,0,1-8.9-2.27,35.76,35.76,0,0,1-6.47-4,.27.27,0,0,1,.34-.42,35.39,35.39,0,0,0,6.37,3.9c3.37,1.59,8.3,3.15,12.64,1.54a.27.27,0,1,1,.19.51A12.05,12.05,0,0,1,155.65,59.12Z"/><path class="cls-6" d="M155.1,63.74a16.74,16.74,0,0,1-6.87-1.51,14.93,14.93,0,0,1-3.41-2.07.28.28,0,0,1,0-.38.29.29,0,0,1,.39,0A16.3,16.3,0,0,0,157,63.08a.28.28,0,0,1,.3.24.26.26,0,0,1-.23.3A16,16,0,0,1,155.1,63.74Z"/><path class="cls-6" d="M143.94,28a7.76,7.76,0,0,1-4.42-1.63.27.27,0,1,1,.34-.42,7,7,0,0,0,4.7,1.47A5.46,5.46,0,0,0,148.28,25a.27.27,0,1,1,.44.32A6,6,0,0,1,144.63,28,5.32,5.32,0,0,1,143.94,28Z"/><path class="cls-11" d="M136,14.13s-2.9,1.54-3.62-1.25a2.45,2.45,0,0,1-2.12-2.32,1.53,1.53,0,0,1,1.48-1.62s-2-2.34,0-3.61c0,0-1.5-1.9-.23-3.07s3.31.13,3.31.13S134.31.54,136,.19s2.68,1.56,2.68,1.56.75-2,2.34-1.71,2.09,2.39,2.09,2.39a3.79,3.79,0,0,1,3.79.13,2,2,0,0,1,.59,2.91s2-.09,2.63,1-1.5,2.21-1.5,2.21,1.44,1.67.1,2.8a4.36,4.36,0,0,1-3.22.81Z"/><path class="cls-18" d="M137.13,14.3s-1.11-2-2.71-1.11-.44,6.53,2.76,5.65Z"/><path class="cls-14" d="M147.94,22.47s.59.6-2.3,2.3a7,7,0,0,1-4.79.67,6.48,6.48,0,0,1-.75-.25,8.72,8.72,0,0,0-1.16-4.27l-.05-.08L146,14.63Z"/><path class="cls-11" d="M145.65,18.13s-.53,5.9-4.8,7.31a6.48,6.48,0,0,1-.75-.25,8.72,8.72,0,0,0-1.16-4.27Z"/><path class="cls-14" d="M143.24,21.78c-3.19,1.51-6.24.75-7.3-2.05-.25-.67-.55-1.67-.83-2.72v0c0-.22-.11-.44-.17-.67s-.09-.32-.13-.48c-.47-1.87-.85-3.58-.85-3.58-.7-4.77,3.45-7.67,7.58-6.85s4.16,6.84,4.85,9.6A5.69,5.69,0,0,1,143.24,21.78Z"/><path class="cls-11" d="M139.46,14.32a.23.23,0,0,0,.13-.18s.09-.66.52-.78a1.19,1.19,0,0,1,.88.15.21.21,0,1,0,.24-.35A1.51,1.51,0,0,0,140,13c-.71.19-.83,1.1-.83,1.14a.2.2,0,0,0,.18.24A.2.2,0,0,0,139.46,14.32Z"/><path class="cls-11" d="M137.05,14.82h0a.22.22,0,0,0,.11-.29s-.36-.76-1-.73a1.34,1.34,0,0,0-1,.5.21.21,0,0,0,0,.3.22.22,0,0,0,.3,0,1,1,0,0,1,.65-.33c.35,0,.58.47.59.48A.21.21,0,0,0,137.05,14.82Z"/><path class="cls-16" d="M141.31,16A3.26,3.26,0,0,1,140,18.71c-1.54.84-2.56-1.1-2.56-1.1Z"/><path class="cls-11" d="M140.81,11.67c1-.06,1-1.14,0-1.44a2.62,2.62,0,0,0-1.38-.12c-1.25.32-1.06,1.22-.33,1.41A7.47,7.47,0,0,0,140.81,11.67Z"/><path class="cls-11" d="M135.28,12.59c-.95.35-1.37-.66-.56-1.32a2.53,2.53,0,0,1,1.22-.64c1.29-.19,1.45.71.86,1.16A6.63,6.63,0,0,1,135.28,12.59Z"/><path class="cls-18" d="M135.51,17a2.91,2.91,0,0,1-.4.05v0c0-.22-.11-.44-.17-.67s-.09-.32-.13-.48a3.59,3.59,0,0,1,.47-.12c.86-.16,1.61,0,1.68.33S136.37,16.8,135.51,17Z"/><path class="cls-11" d="M138.41,16.5h-.08a2.66,2.66,0,0,1-1.15-.6.14.14,0,0,1,0-.14l.65-1.94v0a3,3,0,0,0-.09-1.6.15.15,0,1,1,.3-.06,3.16,3.16,0,0,1,.08,1.78l-.63,1.84a3.9,3.9,0,0,0,1,.45.16.16,0,0,1,.1.2A.17.17,0,0,1,138.41,16.5Z"/><path class="cls-18" d="M144.14,14c.06.35-.58.76-1.44.92s-1.61,0-1.67-.34.58-.75,1.44-.91S144.08,13.65,144.14,14Z"/><path class="cls-11" d="M145.49,10.12a1.23,1.23,0,0,1,0,.18s-.69.48-.67,2.07l-1,.22A7.56,7.56,0,0,1,143,9.32a1.94,1.94,0,0,0-.11-.49c-.68-1.81-4.33-2.64-6.46-1.62a4.53,4.53,0,0,0-2.49,3.52,8.25,8.25,0,0,0,.14,1.84,5.8,5.8,0,0,1,.16-4.89c1.61-3.29,6.37-4.39,9-2.19A6,6,0,0,1,145.49,10.12Z"/><path class="cls-18" d="M145.49,10.12a1.23,1.23,0,0,1,0,.18s-.69.48-.67,2.07l-1,.22A7.56,7.56,0,0,1,143,9.32a1.94,1.94,0,0,0-.11-.49Z"/><path class="cls-11" d="M141,7.23a5,5,0,0,0-2.59.33c-.74.54-1.81,1.28-2.87.87S134,10.2,134,10.2s.23-3.69,3.22-3.73S140.08,6.17,141,7.23Z"/><path class="cls-18" d="M139.72,19.6h-.14a.17.17,0,0,1-.17-.19.19.19,0,0,1,.2-.17,1.13,1.13,0,0,0,1-.51.17.17,0,0,1,.25-.06.19.19,0,0,1,.06.25A1.51,1.51,0,0,1,139.72,19.6Z"/><path class="cls-14" d="M144.74,11.39a2.07,2.07,0,0,1,2.34-1.45c1.77.34,2.29,6.12-1,6.2Z"/><path class="cls-11" d="M146.18,14h0a.17.17,0,0,1-.15-.16,2.83,2.83,0,0,1,1.48-2.41.15.15,0,0,1,.2.08.15.15,0,0,1-.08.2,2.58,2.58,0,0,0-1.29,2.14A.14.14,0,0,1,146.18,14Z"/><path class="cls-11" d="M147.4,13.17a.18.18,0,0,1-.12,0s-.37-.24-.79-.47a.16.16,0,0,1-.06-.21.14.14,0,0,1,.21-.06c.44.23.8.47.82.48a.16.16,0,0,1,0,.22A.14.14,0,0,1,147.4,13.17Z"/><path class="cls-15" d="M164.16,110.29c.53-9.5,1-26.62,1-26.81a.32.32,0,0,0-.32-.33.34.34,0,0,0-.33.32c0,.19-.43,17.83-1,27.22Z"/><path class="cls-16" d="M145.31,61a.26.26,0,0,1-.24-.15c-2.72-5.88-3.95-15-4.51-21.63C140,32,140,26.17,140,26.12a.25.25,0,0,1,.26-.26h0a.26.26,0,0,1,.25.26c0,.23-.11,23.36,5,34.5a.26.26,0,0,1-.13.34A.18.18,0,0,1,145.31,61Z"/><path class="cls-16" d="M155.74,60.8a.25.25,0,0,1-.24-.17C151,47.9,148,25.14,148,24.92a.26.26,0,1,1,.51-.07c0,.23,3,22.93,7.52,35.61a.26.26,0,0,1-.15.33Z"/><path class="cls-19" d="M76,70.44s0,0,0,.08l0,.09-.08.19-.17.38-.36.77c-.24.51-.48,1-.73,1.54-.5,1-1,2-1.55,3q-.39.74-.81,1.44c-.27.47-.55.94-.84,1.38s-.57.87-.85,1.26c-.14.2-.28.39-.42.56a5.12,5.12,0,0,1-.39.47,3.52,3.52,0,0,1-.29.32s-.05,0,0,0,0,0,0,0l-.12.08a8.29,8.29,0,0,1-1.07.59,16.28,16.28,0,0,1-2.74.91c-1,.25-2.14.45-3.29.66s-2.36.41-3.59.64a3.49,3.49,0,0,0,1.06,6.9h0c1.11-.14,2.26-.24,3.45-.35s2.44-.22,3.74-.41A23.51,23.51,0,0,0,71,90.06a15.19,15.19,0,0,0,2.17-.88l.27-.14.4-.23c.24-.16.47-.31.67-.46.4-.31.73-.6,1-.88s.57-.55.83-.83.5-.54.72-.8c.46-.53.88-1.06,1.28-1.58s.78-1.05,1.16-1.57.73-1,1.08-1.57c.7-1.05,1.37-2.1,2-3.15.33-.53.65-1.06,1-1.59l.47-.8.24-.41.12-.21.13-.22.15-.26a4.83,4.83,0,0,0-8.4-4.78A5.46,5.46,0,0,0,76,70.44Z"/><path class="cls-20" d="M71.76,84a.22.22,0,0,0,.15-.06.22.22,0,0,0,0-.3A7.92,7.92,0,0,0,69.5,82a.21.21,0,0,0-.28.11.22.22,0,0,0,.12.28A7.65,7.65,0,0,1,71.61,84,.23.23,0,0,0,71.76,84Z"/><path class="cls-20" d="M71.52,82.73a.21.21,0,0,0,0-.41,7.62,7.62,0,0,0-1.68-.13.21.21,0,1,0,0,.42,7.6,7.6,0,0,1,1.58.12Z"/><path class="cls-19" d="M58.23,85a7.92,7.92,0,0,0-5.62,4.34c-1.2,2.71-2.86,8.42-1.33,8s5.54-6.94,8.36-6.39S58.23,85,58.23,85Z"/><path class="cls-12" d="M84,67.08l-.76,12.64-6-6.56-.25-.26-2.21-2.23S76.54,66.5,78,63l.15-.37.27-.7a16.31,16.31,0,0,1,3.72-5.72Z"/><path class="cls-10" d="M101,137.82H78.6l20.9-8a.24.24,0,0,0,.13-.3.25.25,0,0,0-.3-.13l-21,8.06,15.94-15.93a.24.24,0,0,0,0-.33.22.22,0,0,0-.32,0l-16,16,8.6-21.07a.23.23,0,0,0-.12-.3.23.23,0,0,0-.3.12l-8.48,20.79v-22.3a.23.23,0,0,0-.23-.22.22.22,0,0,0-.23.22V136.8l-8-20.89a.24.24,0,0,0-.3-.14.25.25,0,0,0-.13.3l8.07,21.05L60.82,121.18a.23.23,0,1,0-.33.33l15.64,15.63-20.56-8.38a.23.23,0,1,0-.17.42l21.16,8.64H53.74a.23.23,0,1,0,0,.45H76.11l-20.89,8a.23.23,0,0,0,.08.44h.08l21.05-8.06L60.49,154.58a.24.24,0,0,0,0,.33.23.23,0,0,0,.33,0l15.79-15.79-8.39,20.56a.22.22,0,0,0,.13.29.12.12,0,0,0,.08,0,.24.24,0,0,0,.22-.14l8.48-20.79v22.61a.23.23,0,0,0,.23.23.24.24,0,0,0,.23-.23V139.29l8,20.89a.22.22,0,0,0,.21.15h.09A.24.24,0,0,0,86,160L78,139,93.9,154.91a.23.23,0,0,0,.32-.33L78.07,138.43,99.14,147h.09a.23.23,0,0,0,.08-.44L78.9,138.27H101a.23.23,0,1,0,0-.45Z"/><path class="cls-9" d="M77.36,164.26a26.22,26.22,0,1,1,18.53-7.68A26,26,0,0,1,77.36,164.26Zm0-49.11a22.9,22.9,0,1,0,22.89,22.9A22.92,22.92,0,0,0,77.36,115.15Z"/><circle class="cls-8" cx="77.36" cy="138.05" r="3.69" transform="translate(-74.96 95.13) rotate(-45)"/><circle class="cls-11" cx="77.36" cy="138.05" r="2.04"/><path class="cls-10" d="M77.87,139.27l-.2,0a1,1,0,0,1-.78-1.17L92.33,61.34a1,1,0,0,1,1-.8H106a1,1,0,1,1,0,2H94.12L78.84,138.47A1,1,0,0,1,77.87,139.27Z"/><path class="cls-10" d="M35.29,161.16a1,1,0,0,1-1-1V153a1,1,0,0,1,0-.24l9.86-39.28a1,1,0,0,1,1-.76H97.8a1,1,0,0,1,0,2H45.92l-9.64,38.41v7A1,1,0,0,1,35.29,161.16Z"/><circle class="cls-10" cx="35.07" cy="160.94" r="4.24" transform="translate(-103.53 71.94) rotate(-45)"/><path class="cls-11" d="M37,160.94A1.94,1.94,0,1,1,35.07,159,1.94,1.94,0,0,1,37,160.94Z"/><path class="cls-21" d="M63.23,88.71H100a1.22,1.22,0,0,1,1.34,1v18.81a1.22,1.22,0,0,1-1.34,1H63.23a1.22,1.22,0,0,1-1.34-1V89.73A1.22,1.22,0,0,1,63.23,88.71Z"/><path class="cls-10" d="M103.25,89.71H60a1,1,0,1,1,0-2h43.25a1,1,0,0,1,0,2Z"/><path class="cls-21" d="M108.28,61.52a74.15,74.15,0,0,1,8.78-.12c2.77.3,1.78.46,1.33,4.76s-6.88,34.16-6.88,34.16H100.57Z"/><polygon class="cls-19" points="50.64 125.43 48.2 132.76 42.37 131.26 43.95 122.65 50.64 125.43"/><path class="cls-22" d="M26.24,135.37l20.4,6.76a3.1,3.1,0,0,0,.64-1,35.27,35.27,0,0,0,1.37-6.44c0-.22.07-.42.1-.59a5.53,5.53,0,0,1,.18-.73,1.1,1.1,0,0,0-.87-1.59c-2.73,1.34-4.06-2.47-5.76-1.93,0,0-.73.23-2.83,1.15s-5.17,1-7.84,1.17c-3.45.26-4.72,1.24-5.18,2.06A1.7,1.7,0,0,0,26.24,135.37Z"/><path class="cls-10" d="M26.24,135.37l20.4,6.76a3.1,3.1,0,0,0,.64-1l-20.83-6.9A1.7,1.7,0,0,0,26.24,135.37Z"/><path class="cls-13" d="M44.56,141.44l.6.2a4.73,4.73,0,0,1,0-3.63,6,6,0,0,1,3.5-3.37c0-.22.07-.42.1-.59a6.59,6.59,0,0,0-4.08,3.77A5.22,5.22,0,0,0,44.56,141.44Z"/><path class="cls-10" d="M39.42,132.27a.36.36,0,0,0,.41-.15.37.37,0,0,0-.11-.49l-1.17-.74a.37.37,0,0,0-.49.11.36.36,0,0,0,.11.49l1.17.74Z"/><path class="cls-10" d="M40.91,131.67a.36.36,0,0,0,.41-.15.36.36,0,0,0-.11-.49L40,130.29a.36.36,0,0,0-.38.6l1.17.74Z"/><path class="cls-10" d="M37.9,132.59a.36.36,0,0,0,.3-.64L37,131.21a.37.37,0,0,0-.49.11.36.36,0,0,0,.11.49l1.17.74Z"/><path class="cls-10" d="M36.39,132.87a.35.35,0,0,0,.3-.63l-1.17-.74a.37.37,0,0,0-.49.11.36.36,0,0,0,.11.49l1.17.74S36.36,132.87,36.39,132.87Z"/><path class="cls-10" d="M34.78,133.07a.35.35,0,0,0,.41-.14.35.35,0,0,0-.11-.49l-1.17-.74a.35.35,0,0,0-.49.11.36.36,0,0,0,.12.49l1.16.74Z"/><path class="cls-10" d="M33.09,133.14a.36.36,0,0,0,.3-.64l-1.17-.74a.37.37,0,0,0-.49.11.36.36,0,0,0,.11.49l1.17.74Z"/><path class="cls-11" d="M98.78,96.55s.58,11.84-8.75,13.11-29.63-5.1-31.49-8.5c0,0,2.77,3.34.13,8.37-3.08,5.86-9.32,19.76-9.32,19.76L42.8,127.4s6.59-35.79,11.43-36.75,28.55.3,28.55.3S95.43,93.59,98.78,96.55Z"/><path class="cls-15" d="M49.16,126.45a.33.33,0,0,0,.4-.18C51.8,121.53,57,105,57.09,104.86a.33.33,0,0,0-.21-.42h0a.33.33,0,0,0-.41.22c-.06.16-5.28,16.62-7.5,21.33a.33.33,0,0,0,.16.44Z"/><path class="cls-15" d="M43.56,125l6.5,2a.33.33,0,0,0,.42-.22.35.35,0,0,0-.22-.42l-6.5-2a.34.34,0,0,0-.42.22A.33.33,0,0,0,43.56,125Z"/><polygon class="cls-19" points="59.5 128.11 57.07 135.44 51.23 133.94 52.81 125.34 59.5 128.11"/><polygon class="cls-9" points="26.22 134.99 62.67 145.9 61.61 150.39 25.79 139.11 26.22 134.99"/><path class="cls-22" d="M35.1,138.05l20.4,6.76a3,3,0,0,0,.64-1.05,34.45,34.45,0,0,0,1.37-6.44c0-.21.07-.41.11-.59a5,5,0,0,1,.17-.73,1.1,1.1,0,0,0-.87-1.59c-2.73,1.34-4.06-2.47-5.76-1.93,0,0-.72.23-2.83,1.15s-5.17,1-7.84,1.18c-3.45.26-4.72,1.24-5.18,2.05A1.7,1.7,0,0,0,35.1,138.05Z"/><path class="cls-10" d="M35.1,138.05l20.4,6.76a3,3,0,0,0,.64-1.05l-20.83-6.9A1.7,1.7,0,0,0,35.1,138.05Z"/><path class="cls-10" d="M53.42,144.12l.61.2a4.72,4.72,0,0,1,0-3.63,6.09,6.09,0,0,1,3.5-3.37c0-.21.07-.41.11-.59a6.58,6.58,0,0,0-4.09,3.77A5.22,5.22,0,0,0,53.42,144.12Z"/><path class="cls-10" d="M48.28,135a.36.36,0,0,0,.41-.15.35.35,0,0,0-.11-.49l-1.17-.74a.36.36,0,0,0-.49.12.35.35,0,0,0,.11.48l1.17.74Z"/><path class="cls-10" d="M49.77,134.35a.36.36,0,0,0,.41-.15.35.35,0,0,0-.11-.49L48.9,133a.37.37,0,0,0-.49.11.36.36,0,0,0,.11.49l1.17.74Z"/><path class="cls-10" d="M46.76,135.27a.36.36,0,0,0,.41-.15.35.35,0,0,0-.11-.49l-1.17-.74a.37.37,0,0,0-.49.11.36.36,0,0,0,.11.49l1.17.74Z"/><path class="cls-10" d="M45.25,135.56a.36.36,0,0,0,.41-.15.35.35,0,0,0-.11-.49l-1.17-.74a.37.37,0,0,0-.49.11.36.36,0,0,0,.11.49l1.17.74Z"/><path class="cls-10" d="M43.64,135.76a.36.36,0,0,0,.3-.64l-1.16-.74a.36.36,0,0,0-.49.11.35.35,0,0,0,.11.49l1.17.74Z"/><path class="cls-10" d="M42,135.82a.36.36,0,0,0,.41-.15.35.35,0,0,0-.11-.49l-1.17-.74a.37.37,0,0,0-.49.11.36.36,0,0,0,.11.49l1.17.74Z"/><path class="cls-11" d="M107.65,100.5s.63,12.67-8.7,13.94S69.57,110.38,67.7,107a26.84,26.84,0,0,1-2.88,9.94,140.36,140.36,0,0,0-6.24,14.77L52,129.62s3.12-33.38,8-34.34,32,2.89,32,2.89S104.31,97.54,107.65,100.5Z"/><path class="cls-15" d="M52.57,121h.06a.32.32,0,0,0,.37-.28c0-.07.91-6.44,2.16-12.91,2.26-11.67,3.7-13.49,4.21-13.73,3.47-1.62,22.86,1.2,23.06,1.23a.33.33,0,0,0,.1-.66c-.81-.12-19.79-2.88-23.44-1.17-.5.23-1.3,1-2.46,5-.67,2.29-1.39,5.39-2.12,9.21-1.26,6.48-2.16,12.87-2.17,12.94A.34.34,0,0,0,52.57,121Z"/><path class="cls-15" d="M52.58,128.06l6.3,1.95a.33.33,0,1,0,.19-.63l-6.3-2a.32.32,0,0,0-.41.22A.33.33,0,0,0,52.58,128.06Z"/><path class="cls-15" d="M57.64,129.63a.33.33,0,0,0,.41-.19c.05-.12,4.51-11.32,6.19-14.86a32.23,32.23,0,0,0,2.71-10c7,5.22,29.08,12.24,34.45,8.92,2.24-1.39,3.81-4,4.53-7.64a21.8,21.8,0,0,0,.42-5,.33.33,0,0,0-.35-.31.34.34,0,0,0-.32.35c0,.09.42,8.94-4.63,12.07-2.29,1.41-8.49.87-16.58-1.47-7.48-2.15-14.54-5.28-17.58-7.78a.34.34,0,0,0-.35-.05.36.36,0,0,0-.2.29,31.53,31.53,0,0,1-2.7,10.37c-1.69,3.57-6.16,14.79-6.21,14.9a.33.33,0,0,0,.19.43Z"/><path class="cls-12" d="M80.9,65c.06.63.13,1.28.19,2s.16,1.59.23,2.43q.08.94.15,1.95c0,.49.07,1,.1,1.51l0,.62c0,.71.09,1.35.13,1.94.38,5.41.57,6.65-2.3,15.54-.55,1.69,0,3.17,3.76,5.33a3.82,3.82,0,0,0,.92.36c1.23.29,3.52.91,5.35,1.22a21.3,21.3,0,0,1,8.82,4,10.88,10.88,0,0,0,3.27,1.67l.52.16c2.61.61,5,.1,5.38-.58,1.39-2.8,3.45-16.31,3.55-23.11s2.63-19.2-1.06-22.65c-2.73-2.55-11.57-6.31-11.57-6.31l-7.06.68S81.77,55,80.85,57.58C80.15,59.53,80.54,61.32,80.9,65Z"/><path class="cls-19" d="M91.06,51.33l.36,2a6.78,6.78,0,0,0,.78.36c3.77,1.41,7-1.79,7-1.79l-1.25-6.77-6,5.5Z"/><path class="cls-11" d="M91.06,51.33l.36,2a6.78,6.78,0,0,0,.78.36,13.23,13.23,0,0,0,4.22-5.1l-4.55,2Z"/><path class="cls-11" d="M98.66,36.66s2.18.36,2.19,1.85-1,1.51-1,1.51,2.49,1.59,1.74,2.85a1.48,1.48,0,0,1-1.76.86s1.61,2.82.2,3.85S96,46,96,46,94.84,37.11,98.66,36.66Z"/><path class="cls-11" d="M87.08,33.37S83.47,37,85.44,39.79C85.44,39.79,87.43,34.64,87.08,33.37Z"/><path class="cls-20" d="M87,43.12s-1.36-1.11-1.74.32.59,4,2.19,3.24Z"/><path class="cls-19" d="M86.68,47.93a4.06,4.06,0,0,0,4.94,3.26c4.18-.78,6.42-4.58,6.54-4.76h0l-.11-.86-.58-4.45-.3-2.38s-.25-4.34-4.43-4.37c-3,0-5.72,1-6.83,2.77a3.73,3.73,0,0,0-.53,2.3L86,43.69l.16,1Z"/><path class="cls-11" d="M86.47,40.94c-1,.22-1.25-.8-.39-1.36a2.58,2.58,0,0,1,1.27-.48c1.27,0,1.33.87.7,1.24A6.81,6.81,0,0,1,86.47,40.94Z"/><path class="cls-20" d="M91.61,43.2c0,.29.7.42,1.45.28s1.31-.49,1.26-.78-.71-.42-1.46-.29S91.56,42.9,91.61,43.2Z"/><path class="cls-20" d="M86.19,44.73l.33,0c.75-.14,1.31-.49,1.25-.79s-.7-.42-1.45-.28l-.29.07Z"/><path class="cls-11" d="M88.58,43.86a5.41,5.41,0,0,0,.76,0,.14.14,0,0,0,.14-.15.15.15,0,0,0-.15-.14,3.34,3.34,0,0,1-.92-.07l.89-1.06a.15.15,0,0,0,0-.11l-.14-.89a.14.14,0,0,0-.16-.12.14.14,0,0,0-.12.16l.12.83-1,1.17a.13.13,0,0,0,0,.12.14.14,0,0,0,.08.1A1.55,1.55,0,0,0,88.58,43.86Z"/><path class="cls-11" d="M91.94,40.32c1,.11,1.15-.94.24-1.4a2.64,2.64,0,0,0-1.32-.33c-1.27.11-1.22,1-.55,1.31A7.35,7.35,0,0,0,91.94,40.32Z"/><path class="cls-16" d="M88.22,45.74a26.53,26.53,0,0,0,3.43-.87,1.8,1.8,0,0,1-1.32,2A1.77,1.77,0,0,1,88.22,45.74Z"/><path class="cls-20" d="M90.89,47.62l.09-.08a.15.15,0,0,0-.21-.21,1,1,0,0,1-.93.22.16.16,0,0,0-.19.1.15.15,0,0,0,.1.19A1.24,1.24,0,0,0,90.89,47.62Z"/><path class="cls-11" d="M91.72,41.36c.07.36,0,.68-.25.72s-.43-.23-.49-.59,0-.68.25-.71S91.65,41,91.72,41.36Z"/><path class="cls-11" d="M88.34,41.9c.07.36,0,.68-.25.72s-.43-.23-.49-.58.05-.69.25-.72S88.28,41.54,88.34,41.9Z"/><path class="cls-11" d="M98.63,38.85a3.5,3.5,0,0,1-.3,1.79,2.49,2.49,0,0,0-1.68,1.88l-1,.34a10.64,10.64,0,0,1-.33-3.06c.09-1-.9-1.19-1.28-2a1.16,1.16,0,0,1-.14-.77,4,4,0,0,0-3.4,0c-1.69.88-3.29,1.38-4.31.44a.93.93,0,0,1-.25-.33c-.4-1.78.26-5.73,7.5-5.07a5.42,5.42,0,0,1,4.78,4.12A6.12,6.12,0,0,1,98.63,38.85Z"/><path class="cls-11" d="M96.54,45a3.78,3.78,0,0,0,1.62,1.4h0l-.11-.86A3,3,0,0,1,96.54,45Z"/><path class="cls-19" d="M96.76,42.09s1.22-2.47,2.72-1c1.23,1.22.06,5.22-2.1,4.33Z"/><path class="cls-16" d="M98.89,44.44a.39.39,0,0,1-.3.45.38.38,0,0,1-.44-.31.37.37,0,0,1,.3-.44A.38.38,0,0,1,98.89,44.44Z"/><path class="cls-11" d="M97.48,44.74h0a.17.17,0,0,1-.18-.15,3.16,3.16,0,0,1,1.36-2.85.16.16,0,0,1,.23,0,.18.18,0,0,1-.05.24h0a2.78,2.78,0,0,0-1.2,2.53A.18.18,0,0,1,97.48,44.74Z"/><path class="cls-11" d="M98.85,43.45a.25.25,0,0,1-.12,0h0a1.29,1.29,0,0,0-.93-.17.17.17,0,0,1-.22-.08.18.18,0,0,1,.08-.23,1.65,1.65,0,0,1,1.24.18.17.17,0,0,1,.06.23A.16.16,0,0,1,98.85,43.45Z"/><path class="cls-13" d="M81.4,71.8a.22.22,0,0,1-.12-.16c0-.4-1.19-9.84.43-13.85a.21.21,0,0,1,.27-.12.21.21,0,0,1,.12.27c-1.58,3.92-.42,13.55-.41,13.65a.2.2,0,0,1-.18.23A.2.2,0,0,1,81.4,71.8Z"/><path class="cls-13" d="M106,102.18a.26.26,0,0,0,.32-.17,55.17,55.17,0,0,0,2.22-18.83c-.33-7.79,2.12-18.73,2.15-18.84a.26.26,0,0,0-.2-.31.25.25,0,0,0-.31.19c0,.11-2.5,11.12-2.16,19a54.43,54.43,0,0,1-2.2,18.65.26.26,0,0,0,.17.32Z"/><path class="cls-13" d="M98.19,89a21.06,21.06,0,0,1-8-4.29,34.94,34.94,0,0,1-5.28-5.36.27.27,0,0,1,.43-.32,34.86,34.86,0,0,0,5.19,5.27c2.86,2.32,7.23,5,11.78,4.48a.27.27,0,0,1,.3.24.26.26,0,0,1-.24.29A11.77,11.77,0,0,1,98.19,89Z"/><path class="cls-13" d="M96.57,93.34a16.47,16.47,0,0,1-6.24-3.09,14.44,14.44,0,0,1-2.79-2.79.27.27,0,0,1,.07-.37.26.26,0,0,1,.37.06,16.17,16.17,0,0,0,10.52,6,.27.27,0,0,1,.24.3.26.26,0,0,1-.3.23A15.14,15.14,0,0,1,96.57,93.34Z"/><path class="cls-13" d="M93.38,60.7a7.65,7.65,0,0,1-3.86-2.62.27.27,0,0,1,.43-.32,7,7,0,0,0,4.17,2.53,5.46,5.46,0,0,0,4.16-1.48.27.27,0,0,1,.34.41,5.94,5.94,0,0,1-4.57,1.6A3.76,3.76,0,0,1,93.38,60.7Z"/><path class="cls-16" d="M92,58.64h-.27a2.34,2.34,0,0,1-1.85-1.12c-1.13-1.87.19-5.34.25-5.49a.23.23,0,0,1,.29-.13.24.24,0,0,1,.13.3s-1.29,3.41-.28,5.09a1.91,1.91,0,0,0,1.51.9c3,.35,7.7-6.37,7.75-6.44a.22.22,0,0,1,.31-.06.24.24,0,0,1,.06.32C99.74,52.28,95.25,58.64,92,58.64Z"/><path class="cls-23" d="M118.06,93.07v20.05a1.24,1.24,0,0,1-1.34,1.08H79.92a1.23,1.23,0,0,1-1.33-1.08V93.07a.9.9,0,0,1,.29-.67,1.45,1.45,0,0,1,1-.41h36.8a1.27,1.27,0,0,1,1.33,1S118.06,93,118.06,93.07Z"/><path class="cls-21" d="M118.06,93.07v3.19L78.59,94.34V93.07a.9.9,0,0,1,.29-.67l39.17.54S118.06,93,118.06,93.07Z"/><path class="cls-10" d="M119.45,93.64H76.21a1,1,0,1,1,0-2h43.24a1,1,0,1,1,0,2Z"/><path class="cls-10" d="M58.74,162.89a1,1,0,0,1-1-1V156a1,1,0,0,1,0-.25l10.6-42.25a1,1,0,0,1,1-.76H122a1,1,0,0,1,0,2H70.12L59.74,156.09v5.81A1,1,0,0,1,58.74,162.89Z"/><circle class="cls-10" cx="58.74" cy="161.55" r="4.24" transform="translate(-110.13 193.66) rotate(-80.78)"/><path class="cls-11" d="M60.68,161.55a1.94,1.94,0,1,1-1.94-1.94A1.94,1.94,0,0,1,60.68,161.55Z"/><path class="cls-10" d="M127.12,137.82H104.74l20.9-8a.24.24,0,0,0,.13-.3.25.25,0,0,0-.3-.13l-21,8.06,15.94-15.93a.24.24,0,0,0,0-.33.22.22,0,0,0-.32,0l-16,16,8.6-21.07a.23.23,0,0,0-.12-.3.23.23,0,0,0-.3.12l-8.48,20.79v-22.3a.23.23,0,0,0-.23-.22.22.22,0,0,0-.23.22V136.8l-8-20.89a.23.23,0,0,0-.29-.14.24.24,0,0,0-.14.3l8.07,21.05L87,121.18a.23.23,0,1,0-.33.33l15.64,15.63-20.56-8.38a.23.23,0,0,0-.3.12.24.24,0,0,0,.13.3l21.16,8.64H79.88a.23.23,0,1,0,0,.45h22.37l-20.89,8a.23.23,0,0,0,.08.44h.08l21-8.06L86.63,154.58a.24.24,0,0,0,0,.33.23.23,0,0,0,.33,0l15.79-15.79-8.39,20.56a.22.22,0,0,0,.13.29.13.13,0,0,0,.08,0,.24.24,0,0,0,.22-.14l8.48-20.79v22.61a.23.23,0,0,0,.23.23.24.24,0,0,0,.23-.23V139.29l8,20.89a.22.22,0,0,0,.22.15H112a.23.23,0,0,0,.13-.3L104.1,139,120,154.91a.23.23,0,0,0,.32-.33l-16.15-16.15,21.07,8.6h.09a.23.23,0,0,0,.08-.44L105,138.27h22.08a.23.23,0,1,0,0-.45Z"/><path class="cls-8" d="M103.5,164.26A26.22,26.22,0,1,1,122,156.58,26,26,0,0,1,103.5,164.26Zm0-49.11a22.9,22.9,0,1,0,22.89,22.9A22.92,22.92,0,0,0,103.5,115.15Z"/><circle class="cls-8" cx="103.5" cy="138.05" r="3.69" transform="translate(-68.7 127.28) rotate(-49.56)"/><circle class="cls-11" cx="103.5" cy="138.05" r="2.04"/><path class="cls-10" d="M65.87,156.87l2.68.78a.84.84,0,0,0,.27,0,1,1,0,0,0,.5-.13,1,1,0,0,0,.47-.62l10.93-43a1,1,0,0,0-.72-1.21,1,1,0,0,0-1.21.72l-10.68,42L66.46,155Z"/><path class="cls-10" d="M103.5,139.27l-.2,0a1,1,0,0,1-.78-1.17L118,61.34a1,1,0,0,1,1-.8h12.72a1,1,0,1,1,0,2H119.75l-15.28,75.94A1,1,0,0,1,103.5,139.27Z"/><rect class="cls-11" x="125.41" y="59.52" width="11.16" height="4.04" rx="0.54"/><path class="cls-19" d="M92.66,82.12l.32.26.3.25.59.47c.39.31.78.62,1.18.91.79.6,1.6,1.18,2.43,1.75a43.26,43.26,0,0,0,5.28,3.14,26.44,26.44,0,0,0,3,1.29,16.78,16.78,0,0,0,3.61.84,11.33,11.33,0,0,0,2.19,0,9.46,9.46,0,0,0,2.48-.56,8.47,8.47,0,0,0,1.25-.61c.2-.11.4-.25.59-.38l.29-.21,0,0,.16-.13a4.11,4.11,0,0,0,.3-.29,6.77,6.77,0,0,0,.45-.54l.17-.27.14-.24.06-.12,0-.1.1-.22.14-.38c0-.11.07-.22.1-.33a6.12,6.12,0,0,0,.18-1,6.49,6.49,0,0,0,0-.72c0-.22,0-.41,0-.6a17.82,17.82,0,0,0-.2-1.88c-.09-.56-.19-1.09-.29-1.6-.22-1-.45-2-.71-3-.5-1.91-1-3.75-1.63-5.58s-1.18-3.63-1.8-5.42l-.93-2.69-.48-1.35-.5-1.35a4.63,4.63,0,1,0-8.71,3.17l.06.17,0,.06.52,1.25.51,1.28c.34.85.68,1.7,1,2.56q1,2.57,1.92,5.13c.61,1.72,1.2,3.43,1.71,5.11.26.85.49,1.68.69,2.48v0a8.86,8.86,0,0,1-1-.26,18.72,18.72,0,0,1-2.15-.82,36.38,36.38,0,0,1-4.42-2.42c-.73-.46-1.45-1-2.17-1.46-.35-.25-.71-.5-1-.76L98,76.64l-.47-.37-.11-.08a3.81,3.81,0,0,0-4.79,5.93Z"/><path class="cls-20" d="M112.52,84.75a.21.21,0,0,0,.15-.38,15.61,15.61,0,0,0-3.06-1.68.21.21,0,0,0-.28.11.21.21,0,0,0,.11.28,15.5,15.5,0,0,1,3,1.62A.22.22,0,0,0,112.52,84.75Z"/><path class="cls-20" d="M109.72,83.12l.11,0a4.37,4.37,0,0,1,2.3-.16.21.21,0,0,0,.25-.17.21.21,0,0,0-.17-.25,4.77,4.77,0,0,0-2.57.2.21.21,0,0,0,.08.4Z"/><path class="cls-19" d="M96.43,80.11A4.1,4.1,0,0,0,97,75.47a23.75,23.75,0,0,0-3.32-5C91.51,68.2,89.9,65.3,89,66.24c-.62.69,1.47,3,2.14,4.39,0,0-3.2-4.59-4-3.28-.45.71,1.57,2.89,2.74,4.33,0,0-.79-.55-1.19-.31A1.07,1.07,0,0,0,88.51,73s-1.13-.47-1,.64c.1.86.93,1,1.66,3s.68,3,2.22,3.94A4,4,0,0,0,96.43,80.11Z"/><path class="cls-19" d="M97.38,77.05s-.66-4.86-2.12-5.64a3.34,3.34,0,0,0-2.69-.29Z"/><path class="cls-11" d="M98.89,77.42a16.94,16.94,0,0,1-4.68,5.9,2.49,2.49,0,0,1-1.52-1.09,16.31,16.31,0,0,0,4.81-6A2.31,2.31,0,0,1,98.89,77.42Z"/><path class="cls-11" d="M95.82,76.86a2.46,2.46,0,0,0,3.71,3,2.46,2.46,0,0,0-3.71-3Z"/><path class="cls-16" d="M96.86,79.36a1.35,1.35,0,1,0,1.62-2,1.35,1.35,0,1,0-1.62,2Z"/><path class="cls-12" d="M116.43,72.49,114,73l-.31.07h0l-5.32,1.16-.2,0h0l-3,.66s-.38-.94-.88-2.38a2.91,2.91,0,0,0-.12-.35,43.43,43.43,0,0,1-2-7.75,1.1,1.1,0,0,1,0-.18,10.23,10.23,0,0,1,0-3.29,5.37,5.37,0,0,1,1.26-2.5c.13-.14.26-.26.39-.38a5.34,5.34,0,0,1,6.78-.3l.28.22.07.06a7.49,7.49,0,0,1,1.58,1.8l.18.29a13.62,13.62,0,0,1,1.1,2.66c.73,2.39,1.26,4.12,1.63,5.43l.09.32A25.21,25.21,0,0,1,116.43,72.49Z"/><path class="cls-5" d="M136.38,54.1l1.36-.13,1.4-.15c.94-.1,1.88-.23,2.81-.36s1.86-.29,2.78-.45,1.83-.34,2.73-.54A45.65,45.65,0,0,0,152.67,51l.61-.22.3-.11.3-.12c.2-.08.4-.15.59-.24l.29-.12.14-.06.07,0-.17.07a2.75,2.75,0,0,0-.55.34,2.44,2.44,0,0,0-.32.28c-.14.14-.18.22-.19.22s0,0,0-.13l.08-.33c.06-.27.12-.62.17-1s.09-.77.12-1.19c.06-.83.09-1.71.09-2.61s0-1.83,0-2.76-.08-1.88-.14-2.82-.13-1.9-.2-2.85-.17-1.91-.26-2.87-.19-1.91-.28-2.87L153,28.8v-.07a4.88,4.88,0,0,1,9.68-1.24l.06.41.05.38.11.76.18,1.53c.12,1,.21,2,.3,3s.17,2,.23,3.06c0,.51.06,1,.09,1.54s0,1,.06,1.55q.06,1.55.06,3.12c0,1,0,2.11-.08,3.19s-.13,2.17-.28,3.31c-.07.57-.16,1.16-.28,1.76s-.26,1.24-.46,1.92c-.11.35-.23.7-.38,1.08a9.49,9.49,0,0,1-.58,1.23,7.44,7.44,0,0,1-1,1.45,7.32,7.32,0,0,1-.85.79,6.21,6.21,0,0,1-1.18.73l-.34.15-.1,0-.21.07-.4.15c-.27.1-.54.18-.81.26l-.4.13-.41.12c-.27.08-.54.16-.8.22l-.81.21-.8.19c-.53.11-1.07.23-1.6.32-1.06.2-2.12.35-3.18.48s-2.11.22-3.16.29-2.09.1-3.13.12-2.09,0-3.13,0L137.83,61l-.79-.06-.4,0-.43,0a3.39,3.39,0,0,1,0-6.74Z"/><path class="cls-6" d="M156.39,59.27s.36-4.13,5.32-3.61A6.35,6.35,0,0,1,156.39,59.27Z"/><path class="cls-6" d="M136.74,54.36a.25.25,0,0,1-.24-.23.26.26,0,0,1,.22-.29c1.36-.14,14.67-2.21,17.48-3.1.06-1.53.44-12.49-.32-17.62a.26.26,0,0,1,.22-.3.26.26,0,0,1,.29.22c.83,5.55.33,17.78.32,17.9a.24.24,0,0,1-.17.23c-2.51.89-16.35,3-17.76,3.19Z"/><path class="cls-6" d="M154.32,36.31a.3.3,0,0,1-.17-.08l-1.65-1.69a.26.26,0,0,1,.37-.37l1.65,1.7a.25.25,0,0,1,0,.36A.26.26,0,0,1,154.32,36.31Z"/><path class="cls-14" d="M123.72,63.18c-.83-.83,3.38-3.64,3.38-3.64l-1.36,0s.8-3.11,3.06-3.29A25,25,0,0,0,134,55c2.43.38,3.48,4.44,3.48,4.44L134,62.56s-2.26,2.32-3,2.38-.87-.74-.87-.74a2.31,2.31,0,0,1-1.57.17.89.89,0,0,1-.68-1,3.2,3.2,0,0,1-1.58.44.86.86,0,0,1-.7-.75A1.25,1.25,0,0,1,123.72,63.18Z"/><path class="cls-6" d="M139.3,60.65a.25.25,0,0,1-.24-.26.26.26,0,0,1,.26-.26c.16,0,16.45.12,19.89-2.08,3.68-2.34,4.36-9.38,4.37-9.45a.27.27,0,0,1,.28-.24.28.28,0,0,1,.24.29c0,.3-.72,7.36-4.61,9.84-3.57,2.28-19.5,2.17-20.18,2.16Z"/><path class="cls-6" d="M151.47,26.85a.25.25,0,0,1-.25-.24.25.25,0,0,1,.23-.27c.12,0,2.8-.28,4.4-3.79a.25.25,0,0,1,.34-.12.25.25,0,0,1,.13.33c-1.74,3.8-4.7,4.08-4.83,4.09Z"/></g></g></g></svg>