<svg xmlns="http://www.w3.org/2000/svg" viewBox="0 0 17.93 20.18"><defs><style>.cls-1{fill:#fa5;}</style></defs><g id="Layer_2" data-name="Layer 2"><g id="Option_1" data-name="Option 1"><path class="cls-1" d="M5,7a3.5,3.5,0,1,0-3.5-3.5A3.52,3.52,0,0,0,5,7ZM5,.75A2.75,2.75,0,1,1,2.27,3.5,2.75,2.75,0,0,1,5,.75Z"/><path class="cls-1" d="M12.91,10.92a3.5,3.5,0,1,0-3.5-3.5A3.51,3.51,0,0,0,12.91,10.92Zm0-6.25a2.75,2.75,0,1,1-2.75,2.75A2.75,2.75,0,0,1,12.91,4.67Z"/><path class="cls-1" d="M12.91,12.11a5,5,0,0,0-2.54.69l-.32.19L10,12.62a5,5,0,0,0-10,.59v2.71a.34.34,0,0,0,.34.34H8l0,.28c0,.2,0,.4,0,.59v2.71a.34.34,0,0,0,.33.34h9.37a.34.34,0,0,0,.34-.34V17.13A5,5,0,0,0,12.91,12.11ZM8.19,15.42l-.06.16H.67V13.21a4.35,4.35,0,0,1,8.7,0v.37l-.07.07A4.91,4.91,0,0,0,8.19,15.42Zm9.06,4.09H8.56V17.13a4.35,4.35,0,0,1,8.69,0Z"/></g></g></svg>