<svg xmlns="http://www.w3.org/2000/svg" viewBox="0 0 226.97 172"><defs><style>.cls-1{isolation:isolate;}.cls-2{opacity:0.3;}.cls-3{fill:#ffd371;}.cls-4{mix-blend-mode:multiply;}.cls-5{fill:#eaeaea;}.cls-6{fill:#fb9d75;}.cls-7{fill:#825e2b;}.cls-8{fill:#593a0f;}.cls-9{fill:#152216;}.cls-10{fill:#534730;}.cls-11{fill:#f6eee0;}.cls-12{fill:#75c189;}.cls-13{fill:#60874f;}.cls-14{fill:#dc7b58;}.cls-15{fill:#894532;}.cls-16{fill:#e0ccbb;}.cls-17{fill:#e8e8e8;}.cls-18{fill:#8f8f8f;}.cls-19{fill:#decab9;}.cls-20{fill:#fa5;}.cls-21{fill:#db7f2f;}.cls-22{fill:#e67779;}.cls-23{fill:#bf6179;}.cls-24{fill:#bb5437;}.cls-25{fill:#344c83;}.cls-26{fill:#142549;}.cls-27{fill:#973721;}.cls-28{fill:#b14f22;}.cls-29{fill:#10211d;}.cls-30{fill:#5571a9;}</style></defs><g class="cls-1"><g id="Layer_2" data-name="Layer 2"><g id="Option_1" data-name="Option 1"><g class="cls-2"><path class="cls-3" d="M209,141.48c37.83-32.65,4.16-50.73,4.16-50.73a39.16,39.16,0,0,1-15-17c-6.44-14.1,4.34-32.16-3.42-45.61-5.7-9.89-19.34-12.84-31.09-11.31s-22.84,6.43-34.56,8.21c-14,2.13-28.24-.3-42.3-1.79S57.92,21.36,45,27.07,21.65,46.36,24.38,59.72c1.23,6,4.94,11.76,3.92,17.86C26.72,87,15,91.81,11.15,100.63c-3.77,8.63,1.77,17.85,7.11,25.52C40,157.26,77.4,168.33,107.68,171.56,107.68,171.56,166.69,178,209,141.48Z"/></g><g class="cls-4"><ellipse class="cls-5" cx="109.28" cy="155.63" rx="109.28" ry="5.97"/></g><polygon class="cls-6" points="195.35 141.94 195.76 147.71 189.84 147.82 189.52 142.41 195.35 141.94"/><path class="cls-7" d="M171.57,75.88l.35,1,11.54,31.07c0,12.83,5.8,36,5.8,36l7-.33-1.91-36.2,0-.5s0-.08,0-.13c-1.78-7.13-5.49-24.94-8-33.53-.07-.25-.13-.48-.2-.71-.4-1.36-.71-2.41-.9-3-.12-.43-.19-.66-.19-.66l-2,1-.56.29Z"/><path class="cls-8" d="M190.61,106.91a7.33,7.33,0,0,0,2.72.49c.34,0,.67,0,1-.05l0-.5s0-.08,0-.13a9,9,0,0,1-.93,0,6.67,6.67,0,0,1-2.46-.44.31.31,0,1,0-.24.58Z"/><path class="cls-9" d="M188.5,154.38a.66.66,0,0,0,0,.14c0,.2,0,.38,0,.54,0,.35,0,.56,0,.56h11.49a6.21,6.21,0,0,0,0-1.1,5.77,5.77,0,0,0-2.06-4.26c-2.17-1.68-1.33-1.33-1.77-2.09-.05-.09-.45-1.39-.49-1.48-.37-.79-.71-1.17-2.77-1.17-2.73,0-3,1.33-3.27,2a13.33,13.33,0,0,0-.45,1.63c-.07.29-.14.6-.21.91-.16.79-.32,1.62-.43,2.28A12.18,12.18,0,0,0,188.5,154.38Z"/><path class="cls-10" d="M188.5,154.38a.66.66,0,0,0,0,.14c0,.2,0,.38,0,.54a3.15,3.15,0,0,0,1.19-1.55,6.39,6.39,0,0,0-.43-4.35h0c-.07.29-.14.6-.21.91a5.25,5.25,0,0,1,.15,3.25A2.61,2.61,0,0,1,188.5,154.38Z"/><path class="cls-10" d="M188.51,154.52c0,.65.06,1.1.06,1.1h11.49a6.21,6.21,0,0,0,0-1.1Z"/><path class="cls-11" d="M192.61,149.1h.08a5.65,5.65,0,0,1,2.66-.05.34.34,0,0,0,.41-.23.33.33,0,0,0-.23-.4,6.24,6.24,0,0,0-3,.05.33.33,0,0,0-.24.4A.32.32,0,0,0,192.61,149.1Z"/><path class="cls-11" d="M192.42,147.78h.08a5.74,5.74,0,0,1,2.66-.06.33.33,0,0,0,.41-.22.34.34,0,0,0-.23-.41,6.38,6.38,0,0,0-3,0,.34.34,0,0,0-.24.4A.33.33,0,0,0,192.42,147.78Z"/><path class="cls-11" d="M193.1,150.14h.08a5.73,5.73,0,0,1,2.67,0,.33.33,0,0,0,.17-.64,6.46,6.46,0,0,0-3,.06.33.33,0,0,0-.24.4A.33.33,0,0,0,193.1,150.14Z"/><path class="cls-11" d="M193.68,151.32h.08a5.67,5.67,0,0,1,2.66-.05.34.34,0,0,0,.41-.23.33.33,0,0,0-.23-.4,6.28,6.28,0,0,0-3,.05.32.32,0,0,0-.23.4A.33.33,0,0,0,193.68,151.32Z"/><path class="cls-8" d="M190,143.76h.07a.3.3,0,0,0,.24-.37c0-.15-3-15.15-3.87-19.76s-1.17-16.65-1.18-16.77a.27.27,0,0,0,0-.12c-2-4.38-10.92-28.91-11-29.15a.31.31,0,0,0-.59.21c.09.25,9,24.59,11,29.14,0,.95.38,12.34,1.18,16.8.83,4.62,3.85,19.62,3.88,19.78A.32.32,0,0,0,190,143.76Z"/><polygon class="cls-6" points="170.93 141.94 170.82 147.72 165.42 147.82 165.39 142.38 170.93 141.94"/><path class="cls-9" d="M152.75,155.81,172,155.6a2.73,2.73,0,0,0,.24-1.07,30.86,30.86,0,0,0-.71-5.87q-.06-.3-.09-.54a4.82,4.82,0,0,1-.06-.67,1,1,0,0,0-1.2-1.09c-1.93,1.93-4.17-.92-5.45,0a26.15,26.15,0,0,0-2.07,1.8c-1.52,1.39-4.11,2.33-6.32,3.28-2.85,1.23-3.65,2.43-3.8,3.26A1.5,1.5,0,0,0,152.75,155.81Z"/><path class="cls-10" d="M152.75,155.81,172,155.6a2.73,2.73,0,0,0,.24-1.07l-19.7.21A1.5,1.5,0,0,0,152.75,155.81Z"/><path class="cls-10" d="M170.07,155.62h.58a4.18,4.18,0,0,1-1.07-3.07,5.39,5.39,0,0,1,2-3.88q-.06-.3-.09-.54a5.91,5.91,0,0,0-2.36,4.4A4.63,4.63,0,0,0,170.07,155.62Z"/><path class="cls-11" d="M163,149.33a.31.31,0,0,0,.3-.24.33.33,0,0,0-.23-.39l-1.21-.28a.31.31,0,0,0-.38.23.32.32,0,0,0,.23.39l1.21.28Z"/><path class="cls-11" d="M164.36,148.28a.31.31,0,0,0,.3-.25.31.31,0,0,0-.23-.38l-1.21-.29a.32.32,0,0,0-.38.24.31.31,0,0,0,.23.38l1.21.29Z"/><path class="cls-11" d="M161.84,150.05a.34.34,0,0,0,.31-.25.32.32,0,0,0-.24-.38l-1.21-.29a.32.32,0,0,0-.38.24.31.31,0,0,0,.23.38l1.21.29Z"/><path class="cls-11" d="M160.64,150.73a.32.32,0,0,0,.07-.63l-1.21-.28a.31.31,0,0,0-.38.23.33.33,0,0,0,.24.39l1.2.28Z"/><path class="cls-11" d="M159.33,151.37a.32.32,0,0,0,.07-.63l-1.2-.29a.33.33,0,0,0-.39.24.32.32,0,0,0,.24.38l1.21.29Z"/><path class="cls-11" d="M157.92,151.91a.31.31,0,0,0,.07-.62l-1.21-.29a.33.33,0,0,0-.39.24.32.32,0,0,0,.24.38l1.21.29Z"/><path class="cls-7" d="M157.7,73.41c2.21,1.47,7.25,2.67,12.35,3.24,6.57.74,13.25.43,14.11-1.69q.15-.36.27-.75v0c.06-.19.12-.39.17-.59.09-.36.16-.73.23-1.11,0-.23.07-.45.1-.68a36.12,36.12,0,0,0,0-7.35L160,59.23s-2.46,7.12-2.85,11.31c0,.23,0,.45,0,.66C157.11,72.3,157.25,73.11,157.7,73.41Z"/><path class="cls-7" d="M157.12,71.71v.59c0,.46,0,.91,0,1.37,0,.23,0,.47,0,.7v.1c0,.22,0,.43,0,.65.17,14.13.67,27,1.68,36.3h0l.12.64,5.68,32,7.32-.62s-.26-25.36-1.87-31.15l0-35.51V71.7l-9.87,1-.61-.2-.36-.12-.61-.2Z"/><path class="cls-8" d="M158.83,111.42h0l.12.64h.33a9.63,9.63,0,0,0,4.5-1.24.32.32,0,0,0-.33-.54A9,9,0,0,1,158.83,111.42Z"/><path class="cls-8" d="M170.51,141.49h0a.31.31,0,0,1-.31-.31c.17-21.39-2.51-29.86-2.53-29.94a.44.44,0,0,1,0-.1l.54-33.93a.31.31,0,0,1,.31-.3.32.32,0,0,1,.3.31l-.54,33.88c.23.74,2.72,9.44,2.55,30.08A.3.3,0,0,1,170.51,141.49Z"/><path class="cls-8" d="M157.15,71.2l.07,0a5.57,5.57,0,0,0,1.3-.63l.32-.22a7.24,7.24,0,0,0,1.08-1,12.32,12.32,0,0,0,2.65-5.5.3.3,0,0,0-.24-.36.31.31,0,0,0-.36.25,11.86,11.86,0,0,1-2.64,5.34,6.17,6.17,0,0,1-1,.85l-.16.1a5,5,0,0,1-1,.51C157.17,70.77,157.16,71,157.15,71.2Z"/><path class="cls-8" d="M167.57,75.33a.24.24,0,0,0,.24.25h0a.23.23,0,0,0,.26-.23c.05-.92.1-1.87.16-2.81,0-.17,0-.33,0-.5.2-3.08.45-6.11.64-8.24,0-.18,0-.34.05-.5,0-.47.08-.89.11-1.24l-.5-.08c0,.35-.07.77-.12,1.24,0,.16,0,.33,0,.5-.19,2.12-.45,5.12-.65,8.19l0,.5C167.67,73.39,167.61,74.37,167.57,75.33Z"/><path class="cls-8" d="M166.84,72.07a5.76,5.76,0,0,0,.89.34,3.81,3.81,0,0,0,1,.19,1.72,1.72,0,0,0,.85-.13,1,1,0,0,0,.58-.78c.19-1,.58-4.88.84-7.65,0-.17,0-.34,0-.5,0-.45.07-.85.11-1.2l-.51-.06c0,.35-.07.76-.11,1.21,0,.16,0,.32-.05.5-.26,2.77-.65,6.69-.83,7.61a.55.55,0,0,1-.31.43,1.75,1.75,0,0,1-1.07,0,3.8,3.8,0,0,1-.51-.13c-.29-.1-.54-.21-.7-.28a.26.26,0,0,0-.34.11A.24.24,0,0,0,166.84,72.07Z"/><path class="cls-8" d="M181,66.87a13.31,13.31,0,0,0,1.43,3.24,7.41,7.41,0,0,0,2.38,2.51l.36.2a4.78,4.78,0,0,0,1.06.37c-.07-.25-.13-.48-.2-.71a3.18,3.18,0,0,1-.58-.23,3.5,3.5,0,0,1-.53-.31A6.85,6.85,0,0,1,183,69.82a12.5,12.5,0,0,1-1.38-3.12.33.33,0,0,0-.39-.22A.31.31,0,0,0,181,66.87Z"/><path class="cls-12" d="M144.87,52.91a28.41,28.41,0,0,1-5.75-3.19,60.32,60.32,0,0,1-6.25-5,4.26,4.26,0,0,1,5.84-6.2,51.75,51.75,0,0,0,4.47,3.68c3.18,2.33,4.85,2.89,5.48,3,.68-.62,2.58-2.68,6.26-8.81,2.53-4.21,4.59-8.16,4.62-8.22a4.26,4.26,0,1,1,7.56,3.92c-.09.18-2.26,4.35-5,8.88-5.3,8.79-7.91,11-9.6,11.91a7.29,7.29,0,0,1-3.51.89A11.74,11.74,0,0,1,144.87,52.91Zm3.49-7.49Z"/><path class="cls-10" d="M138.83,41.73a.56.56,0,1,1-1,.44.56.56,0,0,1,1-.44Z"/><path class="cls-10" d="M134.94,46a5.54,5.54,0,0,0,4.78-2.61,8.35,8.35,0,0,0,1.17-2.87.24.24,0,0,0-.19-.27.25.25,0,0,0-.28.2,7.91,7.91,0,0,1-1.1,2.7,5.08,5.08,0,0,1-4.9,2.37.23.23,0,0,0-.25.21.24.24,0,0,0,.22.26A5.14,5.14,0,0,0,134.94,46Z"/><path class="cls-10" d="M137.36,45.24a.26.26,0,0,0,.2-.11.24.24,0,0,0-.08-.33,6.61,6.61,0,0,1-2-2.2.24.24,0,0,0-.33-.09.23.23,0,0,0-.1.32,7.14,7.14,0,0,0,2.19,2.37A.2.2,0,0,0,137.36,45.24Z"/><path class="cls-10" d="M151,48.6a.31.31,0,0,0,.13,0,.24.24,0,0,0,.07-.33,27.55,27.55,0,0,0-2.43-2.91.24.24,0,1,0-.35.33,27.1,27.1,0,0,1,2.38,2.83A.23.23,0,0,0,151,48.6Z"/><path class="cls-10" d="M151.6,47a.23.23,0,0,0,.21-.14.24.24,0,0,0-.11-.32,9.71,9.71,0,0,0-2.58-.83.24.24,0,0,0-.25.23.25.25,0,0,0,.23.25,9.42,9.42,0,0,1,2.39.78A.23.23,0,0,0,151.6,47Z"/><path class="cls-12" d="M157.12,67.82a0,0,0,0,0,0,0,14.64,14.64,0,0,0,1.8,1.42l.07,0c.21.14.43.28.66.41a6.05,6.05,0,0,0,.55.32l.3.17.57.29a25.71,25.71,0,0,0,5.18,1.88l.52.13.37.08.52.11c.21,0,.42.08.63.12l.52.09.32,0,.52.07a30.5,30.5,0,0,0,5.34.25l.74,0c.38,0,.76,0,1.14-.1l.73-.08.12,0h0l.6-.1a27,27,0,0,0,3.18-.71l.31-.1.63-.2c.59-.2,1.18-.42,1.75-.66l.45-.2.27-.12.28-.14.05,0c1.09-3,2.28-13.57,2.6-16.73.07-.63.12-1.27.16-1.9.11-1.71.15-3.44.13-5.19,0-1.35-.06-2.72-.12-4.11,0-.17,0-.35,0-.52,0-.64-.07-1.28-.11-1.93l0-.45v-.18l-.09-1.55c-.06-.87-.12-1.76-.18-2.66,0-.5-.06-1-.09-1.5a15.24,15.24,0,0,0-2-7.36,6.48,6.48,0,0,0-.94-1.12,4.56,4.56,0,0,0-.78-.61,5,5,0,0,0-1.89-.71,14.36,14.36,0,0,1-1.73-.39l-.28-.08c-.3-.09-.57-.19-.83-.29s-.58-.23-.83-.35l-.12-.06-.2-.1h0l-.49-.27c-.44-.25-.77-.47-1-.61l-.21-.16h-7.42l-.18.25h0q-.15.19-.3.36a5.32,5.32,0,0,1-.61.56,5.2,5.2,0,0,1-.85.56l-.37.19-.29.14-.3.12c-.24.1-.49.18-.74.26h0c-1.54.49-3.09.74-4.13,1.62a3.2,3.2,0,0,0-.51.53h0a3.85,3.85,0,0,0-.66,1.56,3.46,3.46,0,0,0-.06.59c-.06,1.64.64,4.37.92,8.87.1,1.46.15,3.1.11,5,0,.47,0,1,0,1.45,0,.15,0,.3,0,.45,0,.31,0,.62-.05.94h0c0,.32-.05.64-.07,1,0,.61-.1,1.24-.16,1.89s-.12,1.15-.2,1.75-.15,1.24-.25,1.88c-.36,2.56-1.18,7.65-2,11.92-.13.67-.27,1.33-.41,1.94,0,.07,0,.13,0,.2C157.42,66.6,157.26,67.24,157.12,67.82Z"/><path class="cls-13" d="M182.5,72.14l-.07,0a.23.23,0,0,1-.14-.29c4.13-11.26,3.57-31,3.56-31.2a.23.23,0,0,1,.46,0c0,.2.57,20-3.59,31.37A.24.24,0,0,1,182.5,72.14Z"/><path class="cls-13" d="M160.86,42.69h0a.17.17,0,0,1-.16-.18c.18-3.75-.39-12.72-.4-12.81a.18.18,0,0,1,.16-.18.17.17,0,0,1,.18.16c0,.09.58,9.07.4,12.85A.17.17,0,0,1,160.86,42.69Z"/><path class="cls-13" d="M170.46,39.58a.26.26,0,0,0,.19-.1l11.16-15a.25.25,0,0,0-.05-.34.23.23,0,0,0-.34.05L170.54,38.81l-4.76-14.29a.25.25,0,0,0-.31-.16.25.25,0,0,0-.15.31l4.9,14.74a.24.24,0,0,0,.2.16Z"/><path class="cls-13" d="M171,43.3a9.38,9.38,0,0,0,4-1,16.72,16.72,0,0,0,4.19-2.95.17.17,0,0,0,0-.24.15.15,0,0,0-.23,0A16.41,16.41,0,0,1,174.89,42c-3.14,1.51-5.85,1.3-8-.63a.16.16,0,0,0-.23,0,.2.2,0,0,0,0,.25A6.44,6.44,0,0,0,171,43.3Z"/><path class="cls-13" d="M166.57,61.43a12.59,12.59,0,0,0,2-.17,17,17,0,0,0,5.22-1.94,25.18,25.18,0,0,0,5.14-3.83.18.18,0,0,0,0-.25.15.15,0,0,0-.23,0A24.64,24.64,0,0,1,173.65,59c-2.75,1.53-6.87,3-10.88,1.32a.16.16,0,0,0-.21.1.19.19,0,0,0,.09.23A10.22,10.22,0,0,0,166.57,61.43Z"/><path class="cls-9" d="M179,13.17l1.26-3.6a2.26,2.26,0,0,0,1.48-2A1.42,1.42,0,0,0,180.42,6s1.48-2,.17-2.93S178.5,3,178.5,3a2.42,2.42,0,0,0-1.42-2.6,1.64,1.64,0,0,0-2.27,1.13s-.12-1.58-2.33-1.5-1.67,1.69-1.67,1.69-1.2-1-2.19-.23-.4,1.55-.4,1.55-1-.48-1.94.83a1.72,1.72,0,0,0,.5,2.34l0,4.89Z"/><path class="cls-14" d="M169.43,12.17s-.44-2-2.1-1.74-2.22,5.67.87,5.79Z"/><path class="cls-6" d="M176.74,22.46s.36.7-2.69,1.39a6.48,6.48,0,0,1-4.44-.74,6.39,6.39,0,0,1-.59-.43,8.21,8.21,0,0,0,.16-4.12.66.66,0,0,0,0-.09l8-3.54Z"/><path class="cls-9" d="M175.92,18s-2.12,5.09-6.31,5.15a6.39,6.39,0,0,1-.59-.43,8.21,8.21,0,0,0,.16-4.12Z"/><path class="cls-6" d="M172.76,20.52c-3.26.45-5.75-1.08-5.91-3.86,0-.67,0-1.64,0-2.64v0l0-.65c0-.16,0-.31,0-.47.11-1.79.25-3.41.25-3.41.71-4.43,5.21-5.85,8.65-4s1.78,7.24,1.62,9.88A5.29,5.29,0,0,1,172.76,20.52Z"/><path class="cls-11" d="M168.53,15.14a17.09,17.09,0,0,0,3.28-.12s0,2.13-1.79,1.92C168.58,16.77,168.53,15.14,168.53,15.14Z"/><path class="cls-15" d="M170,17.72l-.12,0a.17.17,0,1,1,.14-.31,1.08,1.08,0,0,0,1.06-.13.16.16,0,0,1,.23,0,.17.17,0,0,1,0,.24A1.39,1.39,0,0,1,170,17.72Z"/><path class="cls-9" d="M171.58,12.38c0,.3.12.55.3.56s.33-.24.34-.54-.13-.55-.3-.56S171.59,12.08,171.58,12.38Z"/><path class="cls-9" d="M168.12,12.2c0,.3.13.55.31.56s.32-.24.33-.54-.12-.55-.3-.55S168.13,11.9,168.12,12.2Z"/><path class="cls-14" d="M167.24,14.08l-.36-.06v0l0-.65c0-.16,0-.31,0-.47a3.4,3.4,0,0,1,.45,0c.81.1,1.44.44,1.4.77S168.05,14.18,167.24,14.08Z"/><path class="cls-11" d="M166,12.29a1.95,1.95,0,1,1,2,1.87A1.95,1.95,0,0,1,166,12.29Zm.31,0a1.64,1.64,0,1,0,1.57-1.71A1.64,1.64,0,0,0,166.34,12.28Z"/><path class="cls-9" d="M173.47,10.78c.9.23,1.2-.73.4-1.28A2.39,2.39,0,0,0,172.68,9c-1.2-.06-1.28.78-.69,1.16A7.12,7.12,0,0,0,173.47,10.78Z"/><path class="cls-9" d="M168.06,10.36c-.93,0-1-1-.13-1.33a2.38,2.38,0,0,1,1.27-.23c1.19.19,1.09,1,.44,1.28A6.72,6.72,0,0,1,168.06,10.36Z"/><path class="cls-9" d="M170,14.48a.09.09,0,0,1-.07,0c-.71-.53-.83-.8-.85-.85a.14.14,0,0,1,0-.14l1.12-1.54h0a2.86,2.86,0,0,0,.36-1.44.16.16,0,0,1,.16-.14.15.15,0,0,1,.13.16,2.84,2.84,0,0,1-.44,1.61l-1.06,1.46a3.66,3.66,0,0,0,.71.66.14.14,0,0,1,0,.2A.12.12,0,0,1,170,14.48Z"/><path class="cls-14" d="M175.74,13.86c0,.33-.73.51-1.53.41s-1.44-.44-1.4-.77.73-.5,1.54-.41S175.78,13.54,175.74,13.86Z"/><path class="cls-9" d="M178,10.8A1.1,1.1,0,0,1,178,11s-.74.23-1.16,1.65l-1-.09A7.1,7.1,0,0,1,176,9.37a1.44,1.44,0,0,0,0-.46c-.1-1.79-3.11-3.55-5.28-3.25a4.24,4.24,0,0,0-3.2,2.43,7.12,7.12,0,0,0-.39,1.67,5.41,5.41,0,0,1,1.51-4.3C171,3,175.56,3.35,177.26,6A5.59,5.59,0,0,1,178,10.8Z"/><path class="cls-14" d="M178,10.8A1.1,1.1,0,0,1,178,11s-.74.23-1.16,1.65l-1-.09A7.1,7.1,0,0,1,176,9.37a1.44,1.44,0,0,0,0-.46Z"/><path class="cls-9" d="M174.85,7a4.68,4.68,0,0,0-2.4-.44c-.8.28-2,.63-2.79,0s-1.9,1.13-1.9,1.13,1.24-3.21,3.9-2.41S174.33,5.78,174.85,7Z"/><path class="cls-6" d="M177,11.71a1.93,1.93,0,0,1,2.48-.63c1.48.81.33,6.08-2.64,5.22Z"/><path class="cls-9" d="M177.54,14.45h0a.15.15,0,0,1-.09-.18,2.65,2.65,0,0,1,2-1.73.15.15,0,0,1,0,.29,2.36,2.36,0,0,0-1.74,1.53A.15.15,0,0,1,177.54,14.45Z"/><path class="cls-9" d="M178.87,14a.19.19,0,0,1-.1,0,7.44,7.44,0,0,0-.57-.65.14.14,0,0,1,0-.2.13.13,0,0,1,.2,0c.32.33.58.65.59.66a.15.15,0,0,1,0,.21A.23.23,0,0,1,178.87,14Z"/><path class="cls-11" d="M170.52,12.41a1.95,1.95,0,0,1,3.89-.16,1.95,1.95,0,1,1-3.89.16Zm.3,0a1.64,1.64,0,1,0,1.57-1.7A1.65,1.65,0,0,0,170.82,12.4Z"/><path class="cls-11" d="M170.68,12.32a.16.16,0,0,0,.11-.05.16.16,0,0,0,0-.22.88.88,0,0,0-1.07,0,.16.16,0,0,0-.05.22.16.16,0,0,0,.21,0,.55.55,0,0,1,.7,0A.15.15,0,0,0,170.68,12.32Z"/><path class="cls-11" d="M174.26,12a.16.16,0,0,0,.11-.05A3.78,3.78,0,0,1,178,11a.16.16,0,0,0,.2-.1.15.15,0,0,0-.11-.19,4.07,4.07,0,0,0-3.9,1,.16.16,0,0,0,0,.22A.15.15,0,0,0,174.26,12Z"/><path class="cls-11" d="M179.57,23.67l-8.73,12.8-4-12.79s.46-1.88,2.1-1.88a7.27,7.27,0,0,0,3.22,1.89s3.54-.6,4.66-2.29A3.81,3.81,0,0,1,179.57,23.67Z"/><path class="cls-16" d="M175.8,29a.23.23,0,0,0,.14,0,.25.25,0,0,0,.05-.35l-3.6-4.78a.23.23,0,0,0-.17-.1.26.26,0,0,0-.19.07l-3.86,3.68a.24.24,0,0,0,0,.34.25.25,0,0,0,.35,0l3.66-3.49,3.43,4.57A.25.25,0,0,0,175.8,29Z"/><polygon class="cls-9" points="173.72 26.39 171.82 28.66 170.1 26.32 172.16 24.34 173.72 26.39"/><polygon class="cls-9" points="172.66 27.66 173.09 33.16 170.84 36.47 169.49 32.09 171.17 27.77 172.66 27.66"/><rect class="cls-17" x="123.19" y="34.17" width="44.83" height="64.07" rx="3.09" transform="translate(-12.95 45.11) rotate(-16.87)"/><path class="cls-6" d="M139.58,34.51s-.87-1.64-2.06-1.21-2.06,3.3-2.3,4.33,1.74-.47,2.18-1.48,1-1.14,1-1.14Z"/><path class="cls-6" d="M135.54,35.52s-.87-1.64-2.06-1.21-2.06,3.3-2.3,4.33,1.74-.47,2.18-1.48,1-1.14,1-1.14Z"/><path class="cls-6" d="M133.5,35.76s-.77-1.45-1.82-1.06-1.82,2.91-2,3.82,1.54-.41,1.93-1.3.89-1,.89-1Z"/><path class="cls-6" d="M137.61,35.09s-.87-1.64-2.06-1.2-2.06,3.3-2.3,4.32,1.74-.46,2.18-1.47,1-1.14,1-1.14Z"/><rect class="cls-18" x="135.46" y="89.28" width="15.34" height="1.95" rx="0.81" transform="translate(-20.03 45.43) rotate(-16.87)"/><rect class="cls-18" x="122.27" y="46.11" width="15.34" height="1.95" rx="0.81" transform="matrix(0.96, -0.29, 0.29, 0.96, -8.07, 39.74)"/><path class="cls-18" d="M156.73,48.06l-31,9.41a1,1,0,0,1-1.22-.65h0a1,1,0,0,1,.65-1.22l31-9.4a1,1,0,0,1,1.22.65h0A1,1,0,0,1,156.73,48.06Z"/><path class="cls-18" d="M158.35,53.42l-31,9.4a1,1,0,0,1-1.21-.65h0a1,1,0,0,1,.65-1.21l31-9.41a1,1,0,0,1,1.22.65h0A1,1,0,0,1,158.35,53.42Z"/><path class="cls-18" d="M160,58.77l-31,9.41a1,1,0,0,1-1.22-.65h0a1,1,0,0,1,.65-1.22l31-9.4a1,1,0,0,1,1.21.65h0A1,1,0,0,1,160,58.77Z"/><path class="cls-18" d="M161.6,64.13l-31,9.4a1,1,0,0,1-1.21-.64h0a1,1,0,0,1,.65-1.22l31-9.4a1,1,0,0,1,1.22.64h0A1,1,0,0,1,161.6,64.13Z"/><path class="cls-18" d="M163.22,69.49l-31,9.4a1,1,0,0,1-1.22-.65h0a1,1,0,0,1,.65-1.21l31-9.41a1,1,0,0,1,1.21.65h0A1,1,0,0,1,163.22,69.49Z"/><path class="cls-18" d="M164.85,74.84l-31,9.41a1,1,0,0,1-1.21-.65h0a1,1,0,0,1,.65-1.22l31-9.4a1,1,0,0,1,1.22.65h0A1,1,0,0,1,164.85,74.84Z"/><path class="cls-12" d="M179.28,32.85l.31.53.33.58.66,1.16c.43.79.85,1.58,1.26,2.38.21.39.41.79.61,1.19s.39.8.58,1.2c.39.8.75,1.61,1.09,2.42s.67,1.6,1,2.41q.22.6.42,1.2c.13.39.26.79.38,1.18.23.79.42,1.56.56,2.31a13.61,13.61,0,0,1,.23,2.08,5.25,5.25,0,0,1-.14,1.51,2.79,2.79,0,0,1-.15.42l0,0v0h0v0l-.13.2-.07.1-.07.11c-.05.07-.11.14-.16.22-.21.29-.46.6-.71.91s-.54.62-.82.94c-.57.63-1.18,1.26-1.81,1.89s-1.27,1.25-1.94,1.88l-1,.93-1,.93-2.06,1.84-2.06,1.8-.07.06a3.34,3.34,0,0,0,3.93,5.36l.33-.2.31-.2q.31-.18.63-.39l1.23-.79c.81-.54,1.62-1.09,2.42-1.66l1.19-.86c.4-.29.79-.59,1.18-.89.79-.6,1.57-1.21,2.34-1.86s1.54-1.32,2.3-2a30.52,30.52,0,0,0,2.25-2.38l.28-.35.14-.17.15-.19.28-.38v0l0,0,0-.07.09-.13c.06-.09.11-.18.17-.26a11.13,11.13,0,0,0,1-2.18,13.82,13.82,0,0,0,.66-4.09,20.49,20.49,0,0,0-.27-3.58,31.77,31.77,0,0,0-.69-3.23c-.14-.52-.29-1-.44-1.54s-.33-1-.5-1.48c-.34-1-.72-1.94-1.1-2.89S191.59,37,191.16,36c-.21-.45-.43-.91-.66-1.35s-.45-.9-.68-1.34c-.46-.89-.94-1.76-1.44-2.63-.25-.43-.5-.86-.76-1.29l-.4-.65-.21-.32-.22-.36a4.44,4.44,0,0,0-7.58,4.64Z"/><path class="cls-13" d="M177.25,64.91a.5.5,0,1,1-.44.56A.51.51,0,0,1,177.25,64.91Z"/><path class="cls-13" d="M179.9,69.36a5,5,0,0,0-1-4.77,7.45,7.45,0,0,0-2.15-1.75.22.22,0,0,0-.29.09.22.22,0,0,0,.1.29,6.93,6.93,0,0,1,2,1.65,4.53,4.53,0,0,1,.75,4.81.21.21,0,0,0,.4.15C179.8,69.67,179.85,69.51,179.9,69.36Z"/><path class="cls-13" d="M179.87,67.09a.21.21,0,0,0,0-.2.21.21,0,0,0-.3,0A5.87,5.87,0,0,1,177.12,68a.23.23,0,0,0-.17.26.22.22,0,0,0,.26.16,6.24,6.24,0,0,0,2.6-1.25A.17.17,0,0,0,179.87,67.09Z"/><path class="cls-6" d="M176.38,65.32c-.39-.38-1.33-.26-2-.43a8.21,8.21,0,0,0-3.19-.09c-.49.11-1.48.36-2.37.65a1.39,1.39,0,0,1,.06.19s0,.08,0,.1,0,.09,0,.15.06.14.08.23a5.43,5.43,0,0,1,.17.53c.05.2.1.34.15.49a1.92,1.92,0,0,1,.94.07s-7.16,2-7.49,2.8,3.85,0,4.89-.17c0,0-5.31,1.83-5.37,2.39-.11,1.11,5.84-.75,5.84-.75s-4.39,1.77-4.08,2.48,5-1.15,5-1.15-2.69,1.57-2.71,2.31,5.9-2.12,6.75-2.67a38.5,38.5,0,0,0,4.26-2.73C178.05,69.11,177.62,66.51,176.38,65.32Z"/><path class="cls-13" d="M184.24,42.91a.24.24,0,0,0,.32-.33,35.29,35.29,0,0,1-2.78-6.13.25.25,0,0,0-.3-.17.24.24,0,0,0-.17.3,35,35,0,0,0,2.83,6.24A.28.28,0,0,0,184.24,42.91Z"/><path class="cls-13" d="M182.19,38.81a.24.24,0,0,0,.31-.07.24.24,0,0,0-.07-.34l-1.64-1.13a.25.25,0,0,0-.34.07.25.25,0,0,0,.07.34l1.64,1.12Z"/><path class="cls-13" d="M191.09,53.32a.15.15,0,0,0,.06-.09A.16.16,0,0,0,191,53a11.54,11.54,0,0,0-4.41,0,.15.15,0,0,0-.12.18.16.16,0,0,0,.18.12,11.66,11.66,0,0,1,4.27.05A.19.19,0,0,0,191.09,53.32Z"/><path class="cls-13" d="M189.73,51.86a.17.17,0,0,0,.06-.19.16.16,0,0,0-.2-.09A14.31,14.31,0,0,0,186.92,53a.16.16,0,0,0,0,.21.16.16,0,0,0,.22,0,13.74,13.74,0,0,1,2.59-1.34Z"/><path class="cls-12" d="M111.9,138.69v17.38H36.28a8.69,8.69,0,0,1,0-17.38Z"/><path class="cls-13" d="M111.9,138.69v17.38H44.27a8.69,8.69,0,0,1,0-17.38Z"/><path class="cls-11" d="M43.17,141.41h68.51a.22.22,0,0,1,.22.22v11.5a.22.22,0,0,1-.22.22H43.17a5,5,0,0,1-5-5v-2a5,5,0,0,1,5-5Z"/><path class="cls-19" d="M44.06,144.59l67.84-.08v-.89l-67.83.08a.44.44,0,0,0-.44.45h0A.44.44,0,0,0,44.06,144.59Z"/><path class="cls-19" d="M44.06,147.58l67.84-.08v-.9l-67.83.09a.44.44,0,0,0-.44.44h0A.44.44,0,0,0,44.06,147.58Z"/><path class="cls-19" d="M44.06,150.7l67.84-.08v-.89l-67.83.08a.44.44,0,0,0-.44.45h0A.44.44,0,0,0,44.06,150.7Z"/><path class="cls-20" d="M125.43,121.46v17.38H49.81a8.69,8.69,0,0,1,0-17.38Z"/><path class="cls-21" d="M125.43,121.46v17.38H57.8a8.69,8.69,0,0,1,0-17.38Z"/><path class="cls-11" d="M56.7,124.18h68.73a0,0,0,0,1,0,0v11.95a0,0,0,0,1,0,0H56.7a5,5,0,0,1-5-5v-2a5,5,0,0,1,5-5Z"/><path class="cls-19" d="M57.59,130.35l67.84-.09v-.89l-67.83.08a.45.45,0,0,0-.44.45h0A.44.44,0,0,0,57.59,130.35Z"/><path class="cls-19" d="M57.59,133.47l67.84-.09v-.89l-67.83.09a.44.44,0,0,0-.44.44h0A.44.44,0,0,0,57.59,133.47Z"/><path class="cls-19" d="M57.59,127.36l67.84-.08v-.89l-67.83.08a.44.44,0,0,0-.44.44h0A.44.44,0,0,0,57.59,127.36Z"/><polygon class="cls-20" points="65.6 126.51 65.6 135.03 68.27 132.36 71.03 135.13 71.03 126.47 65.6 126.51"/><path class="cls-22" d="M114.64,104.24v17.37H39a8.69,8.69,0,1,1,0-17.37Z"/><path class="cls-23" d="M114.64,104.24v17.37H47a8.69,8.69,0,1,1,0-17.37Z"/><path class="cls-11" d="M45.91,107h68.73a0,0,0,0,1,0,0V118.9a0,0,0,0,1,0,0H45.91a5,5,0,0,1-5-5v-2a5,5,0,0,1,5-5Z"/><path class="cls-19" d="M46.81,110.13l67.83-.08v-.89l-67.84.08a.45.45,0,0,0-.44.45h0A.43.43,0,0,0,46.81,110.13Z"/><path class="cls-19" d="M46.81,113.12l67.83-.08v-.89l-67.84.08a.45.45,0,0,0-.44.45h0A.45.45,0,0,0,46.81,113.12Z"/><path class="cls-19" d="M46.81,116.24l67.83-.08v-.89l-67.84.08a.45.45,0,0,0-.44.45h0A.45.45,0,0,0,46.81,116.24Z"/><polygon class="cls-24" points="114.45 131.39 116.93 135.44 121.65 133.35 119.51 129 114.45 131.39"/><path class="cls-25" d="M136.62,135.65l-17.88,7.91a2.7,2.7,0,0,1-.67-.88,32.28,32.28,0,0,1-1.81-5.72c-.05-.19-.09-.37-.14-.53a6.55,6.55,0,0,0-.22-.64,1,1,0,0,1,.64-1.52c2.59,1,3.47-2.59,5-2.25,0,0,.68.15,2.66.79s4.77.43,7.21.38c3.14-.07,4.38.71,4.87,1.4A1.55,1.55,0,0,1,136.62,135.65Z"/><path class="cls-26" d="M136.62,135.65l-17.88,7.91a2.7,2.7,0,0,1-.67-.88l18.26-8.09A1.55,1.55,0,0,1,136.62,135.65Z"/><path class="cls-26" d="M120.57,142.76,120,143a4.32,4.32,0,0,0-.31-3.29,5.54,5.54,0,0,0-3.47-2.74c-.05-.19-.09-.37-.14-.53a6,6,0,0,1,4,3.07A4.78,4.78,0,0,1,120.57,142.76Z"/><path class="cls-11" d="M124.41,134a.32.32,0,0,1-.38-.09.33.33,0,0,1,.06-.46l1-.77a.32.32,0,0,1,.4.51l-1,.77Z"/><path class="cls-11" d="M122.89,133.56a.31.31,0,0,1-.38-.09.32.32,0,0,1,.06-.46l1-.77a.32.32,0,0,1,.45.06.31.31,0,0,1-.06.45l-1,.77Z"/><path class="cls-11" d="M125.82,134.16a.33.33,0,0,1-.39-.1.32.32,0,0,1,.06-.45l1-.77a.32.32,0,1,1,.4.51l-1,.77Z"/><path class="cls-11" d="M127.21,134.29a.31.31,0,0,1-.38-.1.32.32,0,0,1,0-.45l1-.77a.32.32,0,0,1,.45.05.33.33,0,0,1-.06.46l-1,.77Z"/><path class="cls-11" d="M128.68,134.33a.33.33,0,0,1-.38-.1.32.32,0,0,1,.06-.45l1-.78a.33.33,0,0,1,.45.06.32.32,0,0,1-.05.45l-1,.77Z"/><path class="cls-11" d="M130.22,134.23a.32.32,0,0,1-.38-.09.33.33,0,0,1,0-.46l1-.77a.32.32,0,1,1,.39.51l-1,.77Z"/><path class="cls-9" d="M103.35,92.29C101.69,90.66,88.6,87,79.91,89.44a11.27,11.27,0,0,0,.85,11.26c11.42,1.87,17.8,5.71,17.8,5.71s4,9.36,6.46,12.79,7.92,14.35,7.92,14.35l8.32-3.55S107.86,96.74,103.35,92.29Z"/><path class="cls-10" d="M112.05,131.49l.09,0,8.14-3.38a.24.24,0,0,0,.13-.31.23.23,0,0,0-.31-.13L112,131a.24.24,0,0,0-.13.31A.23.23,0,0,0,112.05,131.49Z"/><path class="cls-10" d="M113.42,130.81l.09,0a.24.24,0,0,0,.13-.31A63.89,63.89,0,0,0,108,120.16c-3.94-6-8.07-16.11-8.11-16.21a.24.24,0,0,0-.31-.13.23.23,0,0,0-.13.31c0,.1,4.18,10.27,8.15,16.29a63.42,63.42,0,0,1,5.65,10.24A.23.23,0,0,0,113.42,130.81Z"/><polygon class="cls-24" points="92.3 132.18 92.41 137.34 97.61 139.45 98.3 132.53 92.3 132.18"/><path class="cls-25" d="M105.43,152.11l-17.84-8a2.55,2.55,0,0,1,.21-1.1,31,31,0,0,1,3-5.16c.1-.17.2-.32.29-.46s.26-.45.33-.6c.55-1.24.91-1,.91-1,2.2,3.27,5.57.31,5.7,2.71,0,0,.35.59,1.19,2.5s2.88,3.83,4.55,5.61c2.15,2.29,2.41,3.73,2.21,4.56A1.5,1.5,0,0,1,105.43,152.11Z"/><path class="cls-26" d="M105.43,152.11l-17.84-8a2.55,2.55,0,0,1,.21-1.1L106,151.19A1.5,1.5,0,0,1,105.43,152.11Z"/><path class="cls-26" d="M89.41,144.94l-.53-.23a4.32,4.32,0,0,0,2.24-2.43,5.55,5.55,0,0,0-.28-4.41c.1-.17.2-.32.29-.46a6,6,0,0,1,.42,5A4.7,4.7,0,0,1,89.41,144.94Z"/><path class="cls-11" d="M98.49,141.94a.34.34,0,0,1-.19-.35.32.32,0,0,1,.38-.26l1.24.22a.33.33,0,0,1,.26.38.34.34,0,0,1-.38.26L98.56,142Z"/><path class="cls-11" d="M97.8,140.52a.32.32,0,0,1-.19-.35.31.31,0,0,1,.37-.26l1.24.22a.32.32,0,0,1-.11.63l-1.24-.22Z"/><path class="cls-11" d="M99.31,143.09a.32.32,0,0,1-.18-.35.31.31,0,0,1,.37-.26l1.24.22a.32.32,0,0,1-.11.63l-1.24-.22Z"/><path class="cls-11" d="M100.15,144.21a.34.34,0,0,1-.19-.35.32.32,0,0,1,.38-.26l1.24.22a.32.32,0,0,1,.26.37.32.32,0,0,1-.38.26l-1.24-.22Z"/><path class="cls-11" d="M101.11,145.33a.31.31,0,0,1-.19-.35.32.32,0,0,1,.37-.26l1.24.22a.32.32,0,0,1-.11.63l-1.24-.22Z"/><path class="cls-11" d="M102.2,146.41a.32.32,0,0,1,.19-.61l1.24.22a.32.32,0,0,1-.11.64l-1.24-.23Z"/><path class="cls-9" d="M56.45,86.46S47.08,107,71.28,106c11.17-.44,16.49-1.08,16.49-1.08s.27,9.87.79,14,2.36,14.54,2.36,14.54l8.8.68s1.41-36.12-4-39.45S82.58,91.28,69.27,90C69.27,90,59.37,84.37,56.45,86.46Z"/><path class="cls-10" d="M92.13,130.59h.05a.25.25,0,0,0,.18-.29c-1.22-5.08-1.7-12.36-2.09-18.21s-.61-8.8-1.21-9.33-2.62-.38-5.86,0a74.64,74.64,0,0,1-16.66.32,10.47,10.47,0,0,1-7.42-3.79c-3-3.84-2.3-9.23-2.29-9.29a.24.24,0,1,0-.48-.06c0,.23-.72,5.64,2.39,9.64a11,11,0,0,0,7.74,4,75.49,75.49,0,0,0,16.77-.33c2.79-.29,5-.53,5.49-.08.12.1.34.59.58,2.78.17,1.62.31,3.75.47,6.22.39,5.87.88,13.17,2.1,18.29A.25.25,0,0,0,92.13,130.59Z"/><path class="cls-10" d="M99.63,131.31a.25.25,0,0,0,.24-.22.25.25,0,0,0-.23-.26l-9-.54a.23.23,0,0,0-.25.22.24.24,0,0,0,.22.26l9,.54Z"/><path class="cls-11" d="M77.71,58.65a2.19,2.19,0,0,0,1.48-.59c2.54-2.23,2.52-10.33,2.52-10.67a.29.29,0,0,0-.29-.3h0a.3.3,0,0,0-.3.3c0,.08,0,8.18-2.32,10.23a1.61,1.61,0,0,1-1.32.43c-3.11-.41-4.53-9.48-4.82-12.94a.29.29,0,0,0-.58,0,49.17,49.17,0,0,0,1,6.45c1,4.43,2.49,6.79,4.29,7Z"/><path class="cls-24" d="M93.24,73.4l-.17.21-.17.23-.35.45-.7.91q-.7.92-1.41,1.8c-.94,1.18-1.88,2.34-2.84,3.38l-.71.75c-.24.24-.48.47-.71.67s-.45.4-.66.56a4.68,4.68,0,0,1-.55.35l0,0h-.1l0,0,.06,0,.08,0,.19,0a2.9,2.9,0,0,1,.43,0,3.05,3.05,0,0,1,.95.16,3.1,3.1,0,0,1,.69.37,2.59,2.59,0,0,1,.36.31,1.72,1.72,0,0,1,.18.23s0,0,0-.11-.11-.39-.17-.66A17.49,17.49,0,0,1,87.3,81c-.08-.7-.13-1.42-.18-2.16-.1-1.47-.14-3-.18-4.51s0-3.07-.06-4.62V67.42l0-2.31v0a3.5,3.5,0,0,0-7-.41c0,.22,0,.42-.07.62l-.07.61c0,.41-.09.81-.13,1.21q-.1,1.22-.18,2.43c-.1,1.62-.16,3.24-.17,4.88,0,.82,0,1.64,0,2.47s.06,1.66.12,2.51.14,1.7.25,2.58c0,.44.12.88.21,1.34s.18.93.3,1.42a12.37,12.37,0,0,0,.52,1.61,9,9,0,0,0,.45,1A6.44,6.44,0,0,0,82,88.52a5.16,5.16,0,0,0,.79.71,4.62,4.62,0,0,0,1.21.65,4.69,4.69,0,0,0,1.53.27,4.33,4.33,0,0,0,.73-.05,3.23,3.23,0,0,0,.33-.06l.16,0,.07,0h.06A7.74,7.74,0,0,0,88,89.52l.24-.13.12-.06.11-.06.22-.13.2-.13A11.66,11.66,0,0,0,90.27,88c.39-.36.74-.71,1.06-1.07s.63-.71.91-1.07.55-.72.81-1.08a36.27,36.27,0,0,0,2.64-4.37c.39-.74.75-1.49,1.09-2.25.16-.37.33-.75.49-1.14.08-.19.15-.39.23-.58l.11-.3.11-.31a2.56,2.56,0,0,0-4.35-2.54Z"/><path class="cls-27" d="M84,83.51a.16.16,0,0,0,.19-.05,16.22,16.22,0,0,1,3-2.49.16.16,0,0,0,.05-.23.17.17,0,0,0-.23,0A16.48,16.48,0,0,0,84,83.26a.17.17,0,0,0,0,.23Z"/><path class="cls-27" d="M84.61,81.68a.16.16,0,0,0,.12,0h0a3.91,3.91,0,0,1,1.51-.07.17.17,0,0,0,.18-.15.16.16,0,0,0-.14-.18,4.06,4.06,0,0,0-1.66.09.16.16,0,0,0-.1.2A.15.15,0,0,0,84.61,81.68Z"/><path class="cls-20" d="M79.91,91.52a56.77,56.77,0,0,1-23.65-4.61,110.51,110.51,0,0,0,4.08-13.57,34.09,34.09,0,0,0,.5-3.5c0-.47.09-1,.13-1.46s.07-1,.09-1.51,0-1,.06-1.49c0-.32,0-.64,0-1s0-.39,0-.58V63.3c0-.32,0-.64,0-1,0-.76,0-1.52-.08-2.27-.26-4.65,1.12-9.28,5.77-9.15l1,0c2.19.1,4,.29,4.47.34l.14,0,8.44,3.9.8.37a31.47,31.47,0,0,1,2.85,1.57,9.8,9.8,0,0,1,1.57,1.19c1.73,1.67,1.2,3.18.68,6.24a.88.88,0,0,0,0,.16v.05c-.09.52-.15,1-.2,1.57s-.09,1.17-.11,1.74c-.05,1.21-.05,2.37-.07,3.45,0,.52,0,1,0,1.48a13,13,0,0,1-.16,1.5,5.33,5.33,0,0,1-.4,1.36,2.5,2.5,0,0,1-.23.39,6.75,6.75,0,0,1-.7.82,9.8,9.8,0,0,1-1.23,1.05,13.71,13.71,0,0,1-1.8,1.11l-.25.12v0l-.06.23c-.07.32-.15.7-.23,1.13A73.39,73.39,0,0,0,79.91,91.52Z"/><path class="cls-28" d="M86.31,73,63.47,64.69a6.31,6.31,0,0,0,2-.79l20.93,7.65C86.35,72.07,86.33,72.56,86.31,73Z"/><path class="cls-28" d="M85.75,75.89l-24.69-9c0-.49,0-1,.06-1.49l25,9.15A5.33,5.33,0,0,1,85.75,75.89Z"/><path class="cls-28" d="M84.82,77.1a9.8,9.8,0,0,1-1.23,1.05L60.84,69.84c0-.47.09-1,.13-1.46Z"/><path class="cls-11" d="M77.54,60l.24.07a2.21,2.21,0,0,0,2-.39c1.6-1.29,1.56-4.79,1.55-4.94a.21.21,0,0,0-.21-.21.21.21,0,0,0-.21.22s0,3.44-1.4,4.6a1.8,1.8,0,0,1-1.63.31c-2.73-.65-4.76-8.13-4.78-8.21a.22.22,0,0,0-.42.11C72.77,51.84,74.7,58.93,77.54,60Z"/><path class="cls-24" d="M86.09,58.34a15.63,15.63,0,0,0,.45,8c0-.52.11-1,.2-1.57v-.05l0-.16C87.29,61.52,87.82,60,86.09,58.34Z"/><path class="cls-24" d="M69.93,59c-1.61,3.76-6.4,6.83-8.79,5.46,0-.22,0-.44,0-.67V63.3c0-1.08,0-2.18-.09-3.24-.26-4.65,1.12-9.28,5.77-9.15l1,0C70,52.27,71.78,54.63,69.93,59Z"/><path class="cls-21" d="M68.48,76a.19.19,0,0,0,.14.16.12.12,0,0,0,.1,0,12.41,12.41,0,0,1,7.69,1.59,13.44,13.44,0,0,0,5.07,1.91l.06-.23v0l.25-.12a12.79,12.79,0,0,1-5.16-1.9,12.55,12.55,0,0,0-8-1.64A.22.22,0,0,0,68.48,76Z"/><path class="cls-21" d="M79.06,66.86c2.55.93,4.11-1.61,4.12-1.64a.21.21,0,0,0-.07-.29.22.22,0,0,0-.3.07c0,.1-1.39,2.27-3.6,1.46s-6.07-6.23-6.11-6.29a.22.22,0,0,0-.3-.05.21.21,0,0,0,0,.3C72.9,60.64,76.61,66,79.06,66.86Z"/><path class="cls-9" d="M80.77,52.19s1.6,2.32,3.73.63c0,0,2.88,1,3.41-1.82,0,0,2.36-.28,1.83-4.36,0,0,2.42-.45,1.83-4.08a5,5,0,0,0,1.51-4.14,3.56,3.56,0,0,0-3.21-3.05s.37-1.79-2.09-3.17-3.06.27-3.06.27S83.14,30.14,81,30.35a3.48,3.48,0,0,0-2.87,1.53,3.71,3.71,0,0,0-3.84.2,4.16,4.16,0,0,0-1.88,3.33s-1.69,0-2.27,2.3.21,2.87.21,2.87-2.47,2.36,0,4.48c0,0,1.17,3.51,4.67,3.84A9.43,9.43,0,0,1,80.77,52.19Z"/><path class="cls-24" d="M80.49,56.51c-3.69,3.61-7-3.41-6.82-4.67a14.84,14.84,0,0,0,2.27-5.64l6.29,4.68-.24.6a28.93,28.93,0,0,0-1,2.94C80.81,54.91,80.58,56,80.49,56.51Z"/><path class="cls-9" d="M81,54.42c-3.46-2-4.71-6.51-4.71-6.51L82,51.48A28.93,28.93,0,0,0,81,54.42Z"/><path class="cls-27" d="M85.37,46.1s1.07-1.57,2.37-.75,0,5.54-2.7,4.59Z"/><path class="cls-11" d="M82.57,50.64a2.46,2.46,0,1,1,2,2.82A2.46,2.46,0,0,1,82.57,50.64Zm.36.06A2.09,2.09,0,1,0,85.33,49,2.09,2.09,0,0,0,82.93,50.7Z"/><path class="cls-24" d="M75.67,46.74c.19,2.1,4.47,5.7,6.75,5.35,1.39-.22,2.8-1.05,4.12-3.4l0,0,.22-.41.36-.72c0-.06,0-.11.07-.17s.13-.29.18-.42.13-.34.18-.49c.79-2.51,1.73-5.31-.13-7.54s-5.33-3.69-8-2a9.75,9.75,0,0,0-3.06,5.22C75.37,45.78,75.53,45.22,75.67,46.74Z"/><path class="cls-9" d="M86.16,45.47c-.13.35-.4.57-.59.49s-.25-.41-.12-.76.4-.56.59-.49S86.29,45.13,86.16,45.47Z"/><path class="cls-9" d="M83,44.17c-.13.35-.4.57-.6.49s-.25-.41-.12-.76.4-.56.6-.49S83.08,43.83,83,44.17Z"/><path class="cls-9" d="M81.46,37s-2.28,3.63-3.65,4.1S76,39.37,76,39.37,80,34,81.46,37Z"/><path class="cls-9" d="M86.36,38.47s-3.13,2.65-5.77,1.12-.08-3.39-.08-3.39S86.39,35.47,86.36,38.47Z"/><path class="cls-9" d="M85.67,38s.27,4.61,3.25,4.64.19-5.21-1.72-5.55S85.67,38,85.67,38Z"/><path class="cls-27" d="M86.56,48.65l.22-.41.36-.72c0-.06,0-.11.07-.17l-.12,0c-.94-.31-1.8-.25-1.93.13S85.66,48.34,86.56,48.65Z"/><path class="cls-27" d="M78,44.55c-.12.38.54.93,1.48,1.24s1.8.25,1.93-.13-.54-.93-1.48-1.24S78.17,44.17,78,44.55Z"/><path class="cls-9" d="M83.44,41.14A2,2,0,0,0,81.55,41c-.55.27-.34.83.33.68a2.24,2.24,0,0,1,1.23,0A.33.33,0,0,0,83.44,41.14Z"/><path class="cls-9" d="M86.15,42.44a2,2,0,0,1,1.67.89c.32.52-.15.89-.65.4a2.28,2.28,0,0,0-1-.65A.32.32,0,0,1,86.15,42.44Z"/><path class="cls-24" d="M77.39,41.92a2,2,0,0,0-2.08-1.52c-1.68.2-2.58,5.55.51,5.86Z"/><path class="cls-9" d="M78.76,40.07s-.52,4.78-1.44,4.07-.48-3.55-.48-3.55Z"/><path class="cls-11" d="M74,44.68c.06.13.08.24.13.36a2.1,2.1,0,1,0,1.26.46c-.4-.26-.41-.46-.37-.64a2.45,2.45,0,1,1-3.36,1.87A2.5,2.5,0,0,1,74,44.68Z"/><path class="cls-9" d="M76,44.14a.15.15,0,0,1-.15.14h0a.15.15,0,0,1-.11-.15,3,3,0,0,0-.2-1.08c-.36.17-.66.34-.67.34a.12.12,0,0,1-.1,0,.13.13,0,0,1-.09-.07.15.15,0,0,1,0-.2s.32-.17.69-.34A1.79,1.79,0,0,0,74.7,42a.14.14,0,0,1-.06-.19.14.14,0,0,1,.2-.06A2.65,2.65,0,0,1,76,44.14Z"/><path class="cls-11" d="M80.74,46.28s-.32,2,1,3c1.49,1.13,2.87-.76,2.87-.76Z"/><path class="cls-27" d="M82,50.25h.12a.14.14,0,0,0,.15-.14.15.15,0,0,0-.14-.16,1,1,0,0,1-.78-.55c0-.12-.24-.14-.3.05A1.25,1.25,0,0,0,82,50.25Z"/><path class="cls-9" d="M83.44,46.75a1.75,1.75,0,0,1-.35-.11,0,0,0,0,1,0,0c-.1-.21.07-.35.22-.29a1.11,1.11,0,0,0,.87,0,8.72,8.72,0,0,1-.14-3,.19.19,0,0,1,.2-.17.19.19,0,0,1,.16.2,7.27,7.27,0,0,0,.18,2.9.2.2,0,0,1,0,.24A1.51,1.51,0,0,1,83.44,46.75Z"/><path class="cls-25" d="M128,80.46l-11.17,2h0L112,81.75l-3.09-.44-13.8-2L92,78.9l-2-.28L87,78.18l-2.3-.32-3.08-.44L49.9,72.91l-3.08-.44-18-2.56-7.86-1.12a4.3,4.3,0,0,1,1.21-8.51l7.68,1.09L48.05,64l3.08.44,31.61,4.5,3.08.43,2.3.33,3.08.44,2,.28,3.09.44,13.82,2,3.09.44,4.84.69,0,0,10.12,5.52A.54.54,0,0,1,128,80.46Z"/><path class="cls-29" d="M28.49,69.87l-7.56-1.08a4.3,4.3,0,0,1,1.21-8.51l7.68,1.09Z"/><polygon class="cls-26" points="49.9 72.91 46.82 72.47 48.05 63.96 51.13 64.4 49.9 72.91"/><polygon class="cls-26" points="84.68 77.86 81.6 77.42 82.74 68.9 85.82 69.33 84.68 77.86"/><polygon class="cls-26" points="90.06 78.62 86.98 78.19 88.12 69.66 91.2 70.1 90.06 78.62"/><polygon class="cls-26" points="95.13 79.34 92.04 78.9 93.18 70.38 96.27 70.82 95.13 79.34"/><path class="cls-30" d="M118.06,73.94l7.1,3.87,3,1.65a.54.54,0,0,1-.17,1L124.7,81l-7.85,1.38Z"/><path class="cls-9" d="M125.16,77.81l3,1.65a.54.54,0,0,1-.17,1L124.7,81Z"/><path class="cls-26" d="M37.2,62.44l-1.36-.19.28-2a1.36,1.36,0,0,1,1.54-1.15l20.89,3a.73.73,0,0,1,.63.83h0a.73.73,0,0,1-.83.63L38.81,60.76a1.36,1.36,0,0,0-1.54,1.15Z"/><path class="cls-26" d="M35.94,72.49l5.48.78A1.55,1.55,0,0,0,43.17,72h0l-8.54-1.22h0A1.55,1.55,0,0,0,35.94,72.49Z"/><path class="cls-24" d="M62.82,64.1,62.59,64l-.25-.09-.5-.19-1-.36-2-.74c-1.31-.49-2.59-1-3.79-1.55l-.88-.42-.82-.43c-.26-.15-.51-.3-.73-.45a6.8,6.8,0,0,1-.6-.42,2.89,2.89,0,0,1-.35-.34l0-.05,0,0,0,0v0l0,.06a2.75,2.75,0,0,1,.16.4,2.33,2.33,0,0,1,.1.56,2.54,2.54,0,0,1-.17,1.12,1.66,1.66,0,0,1-.17.33,1.11,1.11,0,0,1-.12.18c-.06.08-.08.1-.07.1l.34-.2c.19-.1.42-.2.67-.31.5-.21,1.09-.42,1.7-.61s1.25-.39,1.9-.56,1.33-.34,2-.51c1.35-.32,2.73-.63,4.12-.93l2.08-.44,2.06-.44.06,0a3.49,3.49,0,0,0-.92-6.9h-.3l-.29,0-.58,0L63.2,51c-.76.08-1.51.17-2.27.27-1.5.21-3,.46-4.53.79-.75.15-1.51.34-2.28.53s-1.54.43-2.32.69a23,23,0,0,0-2.42.93c-.42.2-.86.41-1.31.68a9.12,9.12,0,0,0-1.48,1,7.25,7.25,0,0,0-.86.88,4.75,4.75,0,0,0-.44.62,6.12,6.12,0,0,0-.42.81,5.27,5.27,0,0,0-.3,1,5,5,0,0,0-.07,1.16,4.86,4.86,0,0,0,.19,1.11,7,7,0,0,0,.37.9l0,.1,0,.05,0,0,.08.13.17.27.17.25.18.22a7.66,7.66,0,0,0,.7.77,9.3,9.3,0,0,0,1.35,1.06,15,15,0,0,0,2.49,1.31,25,25,0,0,0,2.36.85,36.15,36.15,0,0,0,4.62,1.07c.77.13,1.53.23,2.3.32l1.15.1.59,0,.29,0h.31A2.55,2.55,0,0,0,63,64.19Z"/><path class="cls-24" d="M63.82,64.76s2.91.69,4.76,1.31c1.27.43,2.38.54,2.55,1.16s-2.56.36-2.8.34S63.82,64.76,63.82,64.76Z"/><path class="cls-24" d="M61.36,65.09a2.72,2.72,0,0,0,.33,3.75,6.63,6.63,0,0,1,1.43,1.75c.73,1.45.76,3.49,1.66,4.37s1.16.62,1.08-.46-.43-3.07-.43-3.07A14.68,14.68,0,0,1,66.75,75c.07,1.08.87,1.65,1.38.6s-.3-4-.75-4.81a5.79,5.79,0,0,1,1.31,2.78c.14,1.46.16,2.3.5,2.78s1.2-.2,1-2.24a8.9,8.9,0,0,0-1.16-4,11.17,11.17,0,0,1,1.61,1.4c.94,1,1,2.66,1.72,2.93s.65-1.69.09-2.74a7.45,7.45,0,0,0-2-2.84,19.3,19.3,0,0,0-3.14-2.29c-.84-.42-3.63-2.29-5-2A1.74,1.74,0,0,0,61.36,65.09Z"/><path class="cls-9" d="M63.54,64.52s-2.77.71-3.32,4.49c0,0-.81.36-1.26-.17,0,0,.62-4,3.38-4.92C62.34,63.92,63.28,63.9,63.54,64.52Z"/><path class="cls-27" d="M60,59.32a.15.15,0,0,0,.19.11s4.21-.78,6-1.27a.16.16,0,0,0,.12-.2.15.15,0,0,0-.2-.11c-1.82.48-6,1.25-6,1.26a.16.16,0,0,0-.13.19Z"/><path class="cls-27" d="M64.88,58.34a.18.18,0,0,0,.08.11l1.12.66a.17.17,0,0,0,.23-.06.17.17,0,0,0-.06-.22l-1.12-.66a.18.18,0,0,0-.23.06A.36.36,0,0,0,64.88,58.34Z"/><path class="cls-27" d="M51.32,59.27a.15.15,0,0,0,.13.13,5.54,5.54,0,0,1,2.3,1.24.17.17,0,0,0,.23,0,.17.17,0,0,0,0-.24,6,6,0,0,0-2.47-1.32.18.18,0,0,0-.19.14A.13.13,0,0,0,51.32,59.27Z"/><path class="cls-27" d="M52.22,58.52a.14.14,0,0,0,.07.11A1.62,1.62,0,0,1,52.93,60a.15.15,0,0,0,.17.15.16.16,0,0,0,.15-.17,1.91,1.91,0,0,0-.79-1.58.15.15,0,0,0-.22.06A.15.15,0,0,0,52.22,58.52Z"/><path class="cls-24" d="M93.14,79.06s.25,1.74,1.45,1.73,2.9-2.29,3.44-3.13-1.71-.14-2.42.62-1.27.7-1.27.7Z"/><path class="cls-24" d="M97.07,79.45s.25,1.74,1.45,1.73,2.9-2.29,3.44-3.13-1.71-.14-2.42.62-1.27.7-1.27.7Z"/><path class="cls-24" d="M99,79.88s.22,1.54,1.28,1.53,2.56-2,3-2.77-1.5-.12-2.13.55-1.12.62-1.12.62Z"/><path class="cls-24" d="M95.08,79.16s.26,1.75,1.46,1.73,2.89-2.28,3.43-3.12-1.7-.14-2.41.62-1.27.69-1.27.69Z"/></g></g></g></svg>