<svg xmlns="http://www.w3.org/2000/svg" viewBox="0 0 335.17 237.26"><defs><style>.cls-1{isolation:isolate;}.cls-10,.cls-12,.cls-2{fill:#46c7ce;}.cls-2{opacity:0.25;}.cls-3{fill:#eaeaea;}.cls-3,.cls-8{mix-blend-mode:multiply;}.cls-4{fill:#404040;}.cls-5{fill:#737373;}.cls-6{fill:#d0efef;}.cls-7{fill:#fff;}.cls-9{fill:#d6d6d6;}.cls-11{fill:#e8e8e8;}.cls-12{opacity:0.5;}.cls-13{fill:#2b1711;}.cls-14{fill:#fa5;}.cls-15{fill:#fc8667;}.cls-16{fill:#deb2a8;}.cls-17{fill:#bfbfbf;}.cls-18{fill:gray;}.cls-19{fill:#a9a9a9;}.cls-20{fill:#363638;}.cls-21{fill:#ffd371;}.cls-22{fill:#5c1813;}</style></defs><g class="cls-1"><g id="Layer_2" data-name="Layer 2"><g id="Option_1" data-name="Option 1"><path class="cls-2" d="M189.48,225.49c86.83,2.71,176.58-90.7,135.37-147.85-32-44.33-86.1-23.94-125.48-45.76C126.92-8.27,24.55-16.06,4.69,41.13s28.1,125.66,55.74,149.76C99.4,224.88,189.48,225.49,189.48,225.49Z"/><ellipse class="cls-3" cx="166.98" cy="230.4" rx="141.48" ry="6.86"/><rect class="cls-4" x="84.24" y="3.26" width="134.34" height="225.22" rx="5.17"/><rect class="cls-5" x="87" y="5.94" width="128.82" height="212.55" rx="1.38"/><rect class="cls-6" x="88.49" y="7.73" width="125.83" height="208.97"/><rect class="cls-7" x="57.16" y="59.83" width="188.49" height="104.76" transform="translate(263.62 -39.2) rotate(90)"/><g class="cls-8"><rect class="cls-9" x="105.65" y="105.64" width="23.76" height="23.76"/></g><rect class="cls-10" x="107.06" y="104.16" width="23.76" height="23.76"/><polygon class="cls-7" points="112.68 122.89 112.68 109.2 125.19 115.9 112.68 122.89"/><rect class="cls-11" x="132.79" y="110.94" width="66.4" height="10.2"/><rect class="cls-12" x="133.86" y="114.17" width="64.25" height="3.76"/><circle class="cls-7" cx="161.22" cy="116.58" r="3.49" transform="translate(20.32 257.05) rotate(-80.78)"/><g class="cls-8"><rect class="cls-9" x="105.65" y="141.92" width="23.76" height="23.76"/></g><rect class="cls-10" x="107.06" y="140.44" width="23.76" height="23.76"/><rect class="cls-7" x="114.87" y="145.45" width="2.21" height="13.74"/><rect class="cls-7" x="120.79" y="145.45" width="2.21" height="13.74"/><rect class="cls-11" x="132.79" y="147.22" width="66.4" height="10.2"/><rect class="cls-12" x="133.86" y="150.44" width="64.25" height="3.76"/><circle class="cls-7" cx="186.95" cy="152.86" r="3.49" transform="translate(-4.77 299.69) rotate(-76.72)"/><g class="cls-8"><rect class="cls-9" x="105.65" y="175.62" width="23.76" height="23.76"/></g><rect class="cls-10" x="107.06" y="174.14" width="23.76" height="23.76"/><rect class="cls-7" x="114.87" y="179.15" width="2.21" height="13.74"/><rect class="cls-7" x="120.79" y="179.15" width="2.21" height="13.74"/><rect class="cls-11" x="132.79" y="180.92" width="66.4" height="10.2"/><rect class="cls-12" x="133.86" y="184.15" width="64.25" height="3.76"/><circle class="cls-7" cx="186.95" cy="186.56" r="3.49" transform="translate(-77.16 186.84) rotate(-45)"/><path class="cls-13" d="M89,222.07a5.35,5.35,0,0,1-1.46-1.34l-7.44,1.78-.16,0c-2.17,3.78-1.89,6-1.89,6H99.16C96,224.59,89.86,222.59,89,222.07Z"/><path class="cls-13" d="M91.44,223.05a0,0,0,0,1-.06,0,.07.07,0,0,1,0-.09c1.37-.83,1.71-1.32,1.69-1.47s0-.05-.06-.07a2.39,2.39,0,0,0-1.69,1,.08.08,0,0,1-.09.07c-.06,0-.06,0,0-.35a5.09,5.09,0,0,0-.06-2.44q-.12-.15-.24-.09c-.32.18-.61,1.41,0,3a.06.06,0,0,1,0,.07,0,0,0,0,1-.07,0c-.61-1.62-.39-2.95.05-3.18.14-.08.28,0,.4.12.34.46.17,1.85.08,2.52v.09a2.32,2.32,0,0,1,1.72-.9.18.18,0,0,1,.15.16c0,.32-.6.9-1.75,1.6Z"/><path class="cls-13" d="M58.7,222.07a5.41,5.41,0,0,1-1.45-1.34l-7.45,1.78-.15,0c-2.17,3.78-1.89,6-1.89,6h21.1C65.71,224.59,59.57,222.59,58.7,222.07Z"/><path class="cls-14" d="M85.76,181.43c.82-3-3.14-36.82-4.94-39.85s-21.95-1.16-21.95-1.16C56.2,143.47,53,168.67,53.15,175s-6.93,38-5.83,48.84c8.51-.48,12-2.52,12-2.52s8-30.09,8.19-32.3,2-10.24,2-10.24a75.14,75.14,0,0,1,1.11,7.57c-1.66,12.28,6.77,37.8,6.77,37.8a32.82,32.82,0,0,0,12.21-2.91S84.93,184.39,85.76,181.43Z"/><path class="cls-13" d="M59.4,137.75c0,.94-.63,2.36-.53,2.67,7.25,2.89,21.95,1.16,21.95,1.16-.21-.42-.94-2.42-.94-2.42Z"/><path class="cls-7" d="M69.32,95.66s-2.58,2-2.74,2c-1.77.55-7.36,1.5-9.81,5.71s-2.2,17.6-.9,23.75,2.24,11.34,2.83,11.58c2.37,1.53,20.68,2.12,21.62.82a3.45,3.45,0,0,0,.48-2.83s16.42-13.08,16.54-17a33.84,33.84,0,0,0-1.07-8.35s-11.69-9.93-14.18-11.58a32.3,32.3,0,0,0-6.49-3Z"/><path class="cls-13" d="M65.91,89.28c-4-6.77-.11-9.24,0-9.29,1.05-2.42,8.93-3.36,9.19-2.57s-.42,1.26-.21,1.31A5.36,5.36,0,0,1,76.67,83l-5.51,7.46-3.73.21Z"/><path class="cls-15" d="M68,80.44c1.23,1,.73,2.12-.21,3.44a2.15,2.15,0,0,0,.71,3.22c1,.74,1.7.87,1.26,1.58s-1.87,1-2.11.58c-.55-.58-3-.9-2.73,1.52s4.1,2.13,4.44,1.34a5.57,5.57,0,0,1-.08,3.54A9.46,9.46,0,0,0,76,99.05c.48-.18.66-1.16.53-1.6-.45-1.1.5-2.78.5-2.78a3.39,3.39,0,0,0,2.81-3c.39-2.28-1.16-5.75-2.1-7.32s-2.24-5.33-4.34-5.8C73.31,79.94,68,80.44,68,80.44Z"/><path class="cls-15" d="M93.61,114.83c1.2-1.63,1.57-5.57,2.25-6.57s2-2.31,2.58-3.46.73-1.73.81-1.73c.68.29.84,1.18.32,2.73s-1.53,2.83-.53,3,3.91-4.2,5.83-3.72a40,40,0,0,1-3.05,4.59c1-.74,2.89-2.94,3.42-3s-.06,1.32-.06,1.32c.06.89-1.26,2.31-1.18,2.31.37-.24.76-.74.82-.56a9.48,9.48,0,0,1-1.87,3.65c-1.13,1.29-2.52,2.34-3.44,3.26a21.93,21.93,0,0,0-2.17,3Z"/><path class="cls-13" d="M77,87.64l0,0a.05.05,0,0,1,0-.08,11.41,11.41,0,0,0,.91-1.3,0,0,0,0,0,0,0,1.37,1.37,0,0,0-.3,0,6.89,6.89,0,0,1-1,0,3.08,3.08,0,0,1-1.9-1.3,2.81,2.81,0,0,1-.44-2.29.06.06,0,0,1,.08,0,.06.06,0,0,1,0,.07,2.69,2.69,0,0,0,.42,2.2,3,3,0,0,0,1.81,1.25,6.72,6.72,0,0,0,1,0c.23,0,.35,0,.4.06a.14.14,0,0,1,0,.13A15.16,15.16,0,0,1,77,87.61.05.05,0,0,1,77,87.64Z"/><g class="cls-8"><path class="cls-16" d="M76.76,92.3a.06.06,0,0,1-.06-.06.06.06,0,0,1,0-.06c1.57-.16,2.09-.91,2.09-1.22,0,0,0-.06.07-.06A.06.06,0,0,1,79,91c0,.36-.54,1.17-2.2,1.34Z"/></g><g class="cls-8"><path class="cls-16" d="M67.8,91.91a.9.9,0,0,1-.49-.13.72.72,0,0,1-.31-.7,1.1,1.1,0,0,1,.81-.82,2.94,2.94,0,0,0-1.65-.3.65.65,0,0,0-.51.46.06.06,0,1,1-.11,0c.14-.49.65-.68,1.42-.54.37.08,1.05.3,1,.44a.11.11,0,0,1-.07.06,1,1,0,0,0-.81.75.56.56,0,0,0,.26.57,1.15,1.15,0,0,0,1.23-.15.07.07,0,0,1,.09,0,.06.06,0,0,1,0,.08A1.73,1.73,0,0,1,67.8,91.91Z"/></g><g class="cls-8"><path class="cls-16" d="M75.05,94.93A6.77,6.77,0,0,1,69.72,92a.06.06,0,1,1,.1-.08c1.9,2.46,4.39,3.37,7,2.58a.06.06,0,0,1,0,.12A6.41,6.41,0,0,1,75.05,94.93Z"/></g><g class="cls-8"><path class="cls-16" d="M72.35,87.82h0a1,1,0,0,1-.77-.33,0,0,0,0,1,0-.08.06.06,0,0,1,.08,0,1,1,0,0,0,.68.29,1.59,1.59,0,0,0,.81-.21.08.08,0,0,1,.09,0,.06.06,0,0,1,0,.08A1.61,1.61,0,0,1,72.35,87.82Z"/></g><g class="cls-8"><path class="cls-17" d="M74,103.73a5.9,5.9,0,0,1-2.19-1c-1-.6-2-1.27-2.06-1.28a.05.05,0,0,1,0-.08.07.07,0,0,1,.09,0c2,1.3,4.09,2.49,4.27,2.22.31-.46,2.13-3.43,2.15-3.46l0,0,.05,0c1.44,1.25,3.1,2.51,3.27,2.38a5.42,5.42,0,0,0,.2-1.6.06.06,0,0,1,.06-.06.05.05,0,0,1,.06.06,5.39,5.39,0,0,1-.21,1.65.13.13,0,0,1-.1.07h0c-.51,0-2.82-2-3.28-2.37-.26.43-1.83,3-2.12,3.41C74.12,103.7,74.07,103.73,74,103.73Z"/></g><g class="cls-8"><path class="cls-17" d="M84.6,106.78a.07.07,0,0,1-.06,0,18.3,18.3,0,0,0-2.3-5.07.07.07,0,0,1,0-.09.06.06,0,0,1,.08,0,18.8,18.8,0,0,1,2.32,5.11s0,.07,0,.07Z"/></g><g class="cls-8"><path class="cls-17" d="M86.23,119.12a.07.07,0,0,1-.06-.07s0-3.19-.42-7.45a.06.06,0,0,1,0-.06s.07,0,.07,0c.42,4.26.42,7.43.42,7.46A.07.07,0,0,1,86.23,119.12Z"/></g><g class="cls-8"><path class="cls-17" d="M67.8,106.25a.06.06,0,0,1-.06,0c-.6-1.47-3.37-5.6-7.92-5.16a.05.05,0,0,1-.06,0,.07.07,0,0,1,.05-.07c4.63-.44,7.43,3.74,8,5.24a.07.07,0,0,1,0,.08Z"/></g><g class="cls-8"><path class="cls-17" d="M72.74,120.69a.07.07,0,0,1-.06,0s-1.91-3.24-3.41-6.46a.06.06,0,0,1,0-.08s.06,0,.08,0c1.5,3.21,3.39,6.42,3.41,6.45a.06.06,0,0,1,0,.08Z"/></g><g class="cls-8"><path class="cls-17" d="M80.61,122.27a.05.05,0,0,1,0,0,.07.07,0,0,1,0-.09,31.33,31.33,0,0,1,3.93-2A22.47,22.47,0,0,0,88,118.38c1.66-1.2,5.16-3.5,5.2-3.52a.06.06,0,0,1,.08,0,.07.07,0,0,1,0,.09s-3.54,2.32-5.2,3.51a21.44,21.44,0,0,1-3.49,1.8,28.71,28.71,0,0,0-3.92,2Z"/></g><g class="cls-8"><path class="cls-17" d="M96.42,121.37h0a16.58,16.58,0,0,1-4.22-4.9.08.08,0,0,1,0-.08.07.07,0,0,1,.09,0,16.47,16.47,0,0,0,4.18,4.86.08.08,0,0,1,0,.09Z"/></g><g class="cls-8"><path class="cls-17" d="M77.15,128h0s-.06,0,0-.07a3.6,3.6,0,0,0-.93-2.71l0,1.67a.06.06,0,1,1-.12,0L76,125s0-.05,0-.06a.08.08,0,0,1,.07,0,3.94,3.94,0,0,1,1.07,2.94A.06.06,0,0,1,77.15,128Z"/></g><g class="cls-8"><path class="cls-17" d="M75.14,138.39c-2.55,0-11.25-5.43-15.38-13.95a.06.06,0,0,1,0-.08.05.05,0,0,1,.08,0c4.15,8.56,12.9,14,15.33,13.88a.06.06,0,0,1,.06.06s0,.06-.05.07Z"/></g><g class="cls-8"><path class="cls-17" d="M50.79,219.65h0a.05.05,0,0,1-.05-.06c.12-1.47,3-35.84,5-37.49.72-.6,1-5.15,1.28-10.91.54-10.09,1.29-23.89,5.09-29.49a.06.06,0,0,1,.08,0,.05.05,0,0,1,0,.08c-3.79,5.57-4.53,19.35-5.07,29.42-.32,6-.56,10.37-1.32,11-2,1.62-4.91,37.05-4.94,37.41A.06.06,0,0,1,50.79,219.65Z"/></g><g class="cls-8"><path class="cls-17" d="M48.24,220.84h-.76a.06.06,0,0,1-.06-.06.06.06,0,0,1,.06-.06c7,.12,10.69-1.39,10.73-1.41a.07.07,0,0,1,.08,0,.07.07,0,0,1,0,.08S54.77,220.84,48.24,220.84Z"/></g><g class="cls-8"><path class="cls-17" d="M78.54,220.84h-.77a.06.06,0,0,1-.06-.06.06.06,0,0,1,.06-.06c7,.12,10.69-1.39,10.73-1.41a.06.06,0,1,1,0,.11S85.06,220.84,78.54,220.84Z"/></g><g class="cls-8"><path class="cls-17" d="M60.54,147h-.31a.08.08,0,0,1,0-.07.05.05,0,0,1,.07-.05,6.26,6.26,0,0,0,6.19-4.22s0,0,.08,0a.06.06,0,0,1,0,.08A6.4,6.4,0,0,1,60.54,147Z"/></g><g class="cls-8"><path class="cls-17" d="M70,176.89h0s0,0,0-.07c0-.22,4.37-22.68,4.37-23.14a.25.25,0,0,1,.07-.19,1.32,1.32,0,0,1,.84-.13,2.84,2.84,0,0,0,.9-.09s0,0,.13-.26c.6-1.79,1.3-10.4,1-10.88a.06.06,0,1,1,.1-.06c.36.59-.45,9.31-1,11-.07.2-.13.3-.2.33a2.8,2.8,0,0,1-.94.1c-.32,0-.64,0-.75.1a.12.12,0,0,0,0,.1c0,.47-4.2,22.24-4.38,23.17A.06.06,0,0,1,70,176.89Z"/></g><path class="cls-13" d="M61.15,223.05a.07.07,0,0,1-.07,0,.1.1,0,0,1,0-.09c1.38-.83,1.72-1.32,1.7-1.47s0-.05-.06-.07a2.37,2.37,0,0,0-1.69,1s0,.08-.09.07-.06,0,0-.35a5.09,5.09,0,0,0-.06-2.44c-.08-.1-.16-.13-.25-.09-.32.18-.61,1.41,0,3a.06.06,0,0,1,0,.07s-.06,0-.08,0c-.61-1.62-.38-2.95.06-3.18a.29.29,0,0,1,.39.12c.35.46.17,1.85.09,2.52v.09a2.32,2.32,0,0,1,1.72-.9.18.18,0,0,1,.15.16c0,.32-.6.9-1.75,1.6Z"/><path class="cls-13" d="M72.59,86.09c.21.43.17.89-.1,1s-.65-.12-.86-.56-.16-.89.1-1S72.38,85.65,72.59,86.09Z"/><path class="cls-13" d="M76.35,84.06c.21.44.17.89-.1,1s-.65-.12-.86-.56-.16-.89.1-1S76.14,83.62,76.35,84.06Z"/><path class="cls-13" d="M78.09,88.44c-.89,1.29-4.51,2.1-4.38,2.37a4.35,4.35,0,0,0,3.57.49C79,90.83,78.09,88.44,78.09,88.44Z"/><path class="cls-7" d="M77.91,88.66a8.88,8.88,0,0,1-3,1.58C77,90.74,78.31,89.59,77.91,88.66Z"/><path class="cls-13" d="M69.32,86A9.93,9.93,0,0,1,72,83.46,2.26,2.26,0,0,0,69.32,86Z"/><path class="cls-13" d="M74.39,82.43A2.84,2.84,0,0,1,76.24,82C75.52,81.2,74.34,81.42,74.39,82.43Z"/><path class="cls-14" d="M76.27,100.24l-1.76,2.85a11.68,11.68,0,0,0,1.84,2.25,2.74,2.74,0,0,1,2.15-.15c0-.34.18-3,.18-3Z"/><path class="cls-14" d="M73.23,121.34s2.88,3.23,3,3.15,3.7-2,3.7-2c2-7.87-1.43-17.25-1.43-17.25a1.48,1.48,0,0,0-2.15.15C76.54,110.43,73.23,121.34,73.23,121.34Z"/><path class="cls-18" d="M252.56,228.42h-61.7a4.87,4.87,0,0,1-4.87-4.87l16.6-62.68a4.87,4.87,0,0,1,4.87-4.87h61.7a4.87,4.87,0,0,1,4.87,4.87l-16.59,62.68A4.88,4.88,0,0,1,252.56,228.42Z"/><path class="cls-7" d="M277.46,228.42h-61.7a4.87,4.87,0,0,1-4.87-4.87l-8.3-62.68a4.87,4.87,0,0,1,4.87-4.87h61.7a4.87,4.87,0,0,1,4.87,4.87l8.3,62.68A4.87,4.87,0,0,1,277.46,228.42Z"/><path class="cls-18" d="M217.85,162.38a2.41,2.41,0,1,1-2.41-2.38A2.4,2.4,0,0,1,217.85,162.38Z"/><path class="cls-11" d="M223.05,180.76H211.46a1.93,1.93,0,0,1-1.91-1.64l-1.32-9.07a1.92,1.92,0,0,1,1.9-2.2h11.59a1.92,1.92,0,0,1,1.9,1.65l1.33,9.06A1.92,1.92,0,0,1,223.05,180.76Z"/><path class="cls-11" d="M247,180.76H235.38a1.91,1.91,0,0,1-1.9-1.64l-1.33-9.07a1.92,1.92,0,0,1,1.9-2.2h11.59a1.91,1.91,0,0,1,1.9,1.65l1.33,9.06A1.92,1.92,0,0,1,247,180.76Z"/><path class="cls-11" d="M270.89,180.76H259.3a1.92,1.92,0,0,1-1.9-1.64l-1.33-9.07a1.92,1.92,0,0,1,1.91-2.2h11.58a1.93,1.93,0,0,1,1.91,1.65l1.32,9.06A1.92,1.92,0,0,1,270.89,180.76Z"/><path class="cls-14" d="M226.05,200.89H214.46a1.92,1.92,0,0,1-1.9-1.64l-1.33-9.06a1.92,1.92,0,0,1,1.9-2.2h11.59a1.93,1.93,0,0,1,1.91,1.64l1.32,9.06A1.92,1.92,0,0,1,226.05,200.89Z"/><path class="cls-11" d="M250,200.89H238.38a1.92,1.92,0,0,1-1.9-1.64l-1.33-9.06a1.93,1.93,0,0,1,1.91-2.2h11.59a1.92,1.92,0,0,1,1.9,1.64l1.32,9.06A1.92,1.92,0,0,1,250,200.89Z"/><path class="cls-11" d="M273.89,200.89H262.3a1.92,1.92,0,0,1-1.9-1.64l-1.32-9.06A1.92,1.92,0,0,1,261,188h11.59a1.92,1.92,0,0,1,1.9,1.64l1.33,9.06A1.92,1.92,0,0,1,273.89,200.89Z"/><path class="cls-11" d="M228.89,220.62H217.3a1.92,1.92,0,0,1-1.9-1.64l-1.33-9.07a1.92,1.92,0,0,1,1.91-2.2h11.59a1.92,1.92,0,0,1,1.9,1.65l1.32,9.06A1.92,1.92,0,0,1,228.89,220.62Z"/><path class="cls-11" d="M252.81,220.62H241.22a1.92,1.92,0,0,1-1.9-1.64L238,209.91a1.92,1.92,0,0,1,1.9-2.2h11.59a1.92,1.92,0,0,1,1.9,1.65l1.33,9.06A1.92,1.92,0,0,1,252.81,220.62Z"/><path class="cls-11" d="M276.74,220.62H265.15a1.93,1.93,0,0,1-1.91-1.64l-1.32-9.07a1.92,1.92,0,0,1,1.9-2.2h11.59a1.92,1.92,0,0,1,1.9,1.65l1.33,9.06A1.92,1.92,0,0,1,276.74,220.62Z"/><path class="cls-19" d="M215.9,162.89a.83.83,0,1,1,0-1.66,6.1,6.1,0,1,0-6.09-6.1.83.83,0,1,1-1.66,0,7.76,7.76,0,1,1,7.75,7.76Z"/><path class="cls-18" d="M243.58,162.38a2.41,2.41,0,1,1-2.41-2.38A2.4,2.4,0,0,1,243.58,162.38Z"/><path class="cls-19" d="M241.63,162.89a.83.83,0,1,1,0-1.66,6.1,6.1,0,1,0-6.1-6.1.83.83,0,1,1-1.66,0,7.76,7.76,0,1,1,7.76,7.76Z"/><path class="cls-18" d="M269.31,162.38A2.41,2.41,0,1,1,266.9,160,2.4,2.4,0,0,1,269.31,162.38Z"/><path class="cls-19" d="M267.36,162.89a.83.83,0,0,1,0-1.66,6.1,6.1,0,1,0-6.1-6.1.83.83,0,1,1-1.66,0,7.76,7.76,0,1,1,7.76,7.76Z"/><path class="cls-13" d="M242.65,94.51c-1.34-2.77-6.32-2.77-8.29-2.1s-3.3-.67-5,.59-1.69,7-.84,9.66c2.4,7.47-6.68,10.34-1.29,15.83,1,1,9-3,10.2-2.61s10.31,4.06,9.56,2.51c6.52.46,6-8.74,3.49-10.67s-4.14-2.38-4.85-4.72S244.7,95.34,242.65,94.51Z"/><path class="cls-15" d="M208.63,119.83a7.1,7.1,0,0,0-2.06-2c-.72-.58-1.08-1.65-1.21-1.65-.53.22-.39,1,0,1.65s.8,1-1.48.16-3.71-1-3-.55,4,2.12,2.66,1.9-2.8-.94-3-.63,2.78,1.87,1.81,1.54-2.06-.75-1.4,0,3.14,1.65,2.2,1.67-2.33-.52-1.87.11,3.91,1.57,5,1.63a8.12,8.12,0,0,1,2.34.55Z"/><path class="cls-15" d="M229.89,172a5.78,5.78,0,0,0,.26,1.82,6.27,6.27,0,0,1,1.59,3.19s-11.17,3.77-11.17,3.65c.57-3.59,4-4.74,4-7.07S229.89,172,229.89,172Z"/><path class="cls-13" d="M226.67,176a4.82,4.82,0,0,0,3.85-1.82,6.83,6.83,0,0,1,1.22,2.81s-11.17,3.77-11.17,3.65c.47-3,2.89-4.26,3.72-5.93A5.18,5.18,0,0,1,226.67,176Z"/><path class="cls-20" d="M247.06,144.94c-.25,7.92-2.23,7.3-5.94,8.78s-11,4.87-11,4.87a62.18,62.18,0,0,1,2.27,14,23.08,23.08,0,0,1-9.65,1.28l-2.68-13.2c-1.69-1.69-7.21-10.8-7.42-12.61s7.5-8.62,18.64-10.23c10.06-.21,15.42,2.51,15.42,2.51Z"/><path class="cls-15" d="M246,144.78c0,1,.25,1.65-.78,2.31s-2.36,3.58-1.86,3.71,1-.91,2.14-1.49,1.86,6.31,2.4,5.86-.17-4.87.61-4,.53,3.48,1.36,3.42a.78.78,0,0,0,.69-.62c1.36.7.68-1.81.43-4.29,1.48,3.47,1.81,1.65,1-.45a38.17,38.17,0,0,1-1.32-4Z"/><path class="cls-21" d="M241.49,111.07c6.95,1.83,10.46,11.45,11,20.74s-.82,14-1,14.41c-4.67,1.65-6.38-.5-6.38-.5l.06-3.73c-6.27,1.54-8.64.11-11.71-1.71a29.8,29.8,0,0,1-3.69-2.36,80.6,80.6,0,0,0-.6-12.54,27.53,27.53,0,0,1-21.39-1.1l.88-4.45s9,.6,14.62-2.42,10.22-5.62,11.3-6S241.49,111.07,241.49,111.07Z"/><path class="cls-15" d="M236.88,95a5.24,5.24,0,0,0,3.21,6.33c0,.66.83,1,.83,1,.94-1.3,2.66-.92,2.41,1s-2.66,1.82-3,1.59c-.91,2.27-1.18,6,1.15,6.11-1.19,3-4.68,4.68-6.41,3.83s-.53-3.46-.53-3.46c.84-.6,0-2.66,0-2.66a4,4,0,0,1-4.2-2.68,14.36,14.36,0,0,1-.72-8C230.15,96.24,233.68,93.68,236.88,95Z"/><path class="cls-13" d="M232.11,103.91a.06.06,0,0,0,.06,0s0-.07,0-.07a7,7,0,0,1-1.58-.45,3.66,3.66,0,0,1,.29-.23c.53-.39,1.52-1.11,1.54-2a2.06,2.06,0,0,0-.95-1.58.06.06,0,0,0-.08.1,1.92,1.92,0,0,1,.9,1.48c0,.87-1,1.56-1.48,1.94-.29.21-.4.29-.34.38a5.57,5.57,0,0,0,1.67.52Z"/><g class="cls-8"><path class="cls-16" d="M234.52,108.78h0a6.44,6.44,0,0,0,5.72-3.85.07.07,0,0,0,0-.09.07.07,0,0,0-.08,0,6.33,6.33,0,0,1-5.61,3.79.06.06,0,0,0-.06.06A.06.06,0,0,0,234.52,108.78Z"/></g><g class="cls-8"><path class="cls-16" d="M241.14,104.61a.67.67,0,0,0,.65-.36.93.93,0,0,0-.19-1,.54.54,0,0,0-.54-.17,1.16,1.16,0,0,1,.92-.69.62.62,0,0,1,.62.51.07.07,0,0,0,.08,0,.06.06,0,0,0,0-.08.73.73,0,0,0-.74-.6,1.3,1.3,0,0,0-1.08.9.06.06,0,0,0,0,.07.07.07,0,0,0,.06,0,.44.44,0,0,1,.53.1.83.83,0,0,1,.17.87.6.6,0,0,1-.66.28s-.07,0-.07.06a.07.07,0,0,0,.06.07Z"/></g><g class="cls-8"><path class="cls-17" d="M241.89,120.11a.07.07,0,0,0,.07-.06c0-2.51,1.34-5.42,3.69-6.15a.07.07,0,0,0,0-.08.06.06,0,0,0-.08,0c-2.52.79-3.72,3.81-3.78,6.28a.06.06,0,0,0,.06.06Z"/></g><g class="cls-8"><path class="cls-17" d="M244.81,141.66a.06.06,0,0,0,.06,0c0-.09.85-8.84-1.6-15.59a.06.06,0,0,0-.12,0c2.44,6.73,1.6,15.45,1.59,15.53a.07.07,0,0,0,.06.07Z"/></g><g class="cls-8"><path class="cls-17" d="M228.92,124.56h0s0,0,0-.07a17,17,0,0,1,.82-7.39.06.06,0,0,0-.12,0,17.36,17.36,0,0,0-.83,7.45A.08.08,0,0,0,228.92,124.56Z"/></g><g class="cls-8"><path class="cls-16" d="M205.25,122.74a.07.07,0,0,0,.06,0,1.32,1.32,0,0,1,1.29-.9.05.05,0,0,0,.06,0s0,0,0-.07a2.88,2.88,0,0,1-.69-2.25.07.07,0,0,0-.05-.08.09.09,0,0,0-.08.05,2.91,2.91,0,0,0,.63,2.26,1.5,1.5,0,0,0-1.28,1,.06.06,0,0,0,0,.08Z"/></g><g class="cls-8"><path class="cls-17" d="M219.72,159.6h0a.07.07,0,0,0,0-.08c0-.07-2.17-6.72-1.69-8.46s14.71-7.57,14.85-7.63a.07.07,0,0,0,0-.06,6,6,0,0,1,.74-2.15.08.08,0,0,0,0-.09.08.08,0,0,0-.09,0,6.53,6.53,0,0,0-.74,2.17c-1,.4-14.4,5.94-14.89,7.7s1.6,8.25,1.69,8.53A.05.05,0,0,0,219.72,159.6Z"/></g><g class="cls-8"><path class="cls-17" d="M229,158.66a3.63,3.63,0,0,0,.61,0c.14,0,.27-.05.29-.14s-.1-.2-.33-.37a2.35,2.35,0,0,1-1-1.22s0,0-.07,0a.06.06,0,0,0,0,.08,2.43,2.43,0,0,0,1.08,1.29,1.07,1.07,0,0,1,.28.23.68.68,0,0,1-.19.05,2.21,2.21,0,0,1-1.16,0,.08.08,0,0,0-.09,0,.06.06,0,0,0,0,.08A1.39,1.39,0,0,0,229,158.66Z"/></g><ellipse class="cls-13" cx="235.18" cy="101.58" rx="0.66" ry="0.99"/><path class="cls-13" d="M230.36,101.44c0,.54.3,1,.66,1s.66-.45.66-1-.3-1-.66-1S230.36,100.89,230.36,101.44Z"/><path class="cls-13" d="M237.7,100.16A6.35,6.35,0,0,0,234.46,99C235.86,98,237.68,99,237.7,100.16Z"/><path class="cls-13" d="M231.08,99.37a2.15,2.15,0,0,0-1.63.44A.89.89,0,0,1,231.08,99.37Z"/><g class="cls-8"><path class="cls-16" d="M233.38,107.47a1.7,1.7,0,0,1-1.21-.18.06.06,0,0,1,0-.08.07.07,0,0,1,.08,0,2.08,2.08,0,0,0,1.8,0,.06.06,0,1,1,.05.11A3,3,0,0,1,233.38,107.47Z"/></g><path class="cls-13" d="M231.23,105.26c0-.68.43-.28,1.34-.18s1.82-.72,2.33-.63.4,2-1.13,2.37A2,2,0,0,1,231.23,105.26Z"/><path class="cls-22" d="M234.9,104.45a2,2,0,0,0-.94.3l-.2.39a2,2,0,0,0-.81,1.76,2.38,2.38,0,0,0,.82-.08C235.3,106.4,235.41,104.55,234.9,104.45Z"/><path class="cls-7" d="M234.54,104.5a4.28,4.28,0,0,1-2,.58c-.53-.06-.88-.21-1.1-.21A1.63,1.63,0,0,0,234.54,104.5Z"/><rect class="cls-9" x="105.18" y="31.88" width="88.43" height="66.22"/><rect class="cls-10" x="107.43" y="28.45" width="88.43" height="66.22"/><rect class="cls-7" x="113.49" y="84.06" width="76.31" height="5.13"/><rect class="cls-12" x="114.91" y="85.55" width="73.46" height="2.16"/><polygon class="cls-7" points="139.22 71.48 139.22 41.49 164.06 56.49 139.22 71.48"/><circle class="cls-10" cx="170.67" cy="86.49" r="1.83"/></g></g></g></svg>