<svg xmlns="http://www.w3.org/2000/svg" viewBox="0 0 46.83 29.7"><defs><style>.cls-1{fill:#46c7ce;}</style></defs><g id="Layer_2" data-name="Layer 2"><g id="Option_1" data-name="Option 1"><path class="cls-1" d="M37.44,10.92a10.32,10.32,0,0,0-1.1.07,7.83,7.83,0,0,0-7.48-5.53h0a7.83,7.83,0,0,0-2.49.41A10.17,10.17,0,0,0,7,10.17a9.9,9.9,0,0,0,.3,2.42A8.61,8.61,0,0,0,8.57,29.7H37.44a9.39,9.39,0,0,0,0-18.78ZM8.36,14.11A.84.84,0,0,0,9,13.76.82.82,0,0,0,9.1,13,8.55,8.55,0,0,1,14.25,2.18a8.56,8.56,0,0,1,10.92,5,.81.81,0,0,0,1.09.45,6.31,6.31,0,0,1,2.6-.57,6.25,6.25,0,0,1,6.09,5,.82.82,0,0,0,.95.63,8,8,0,0,1,1.54-.15,7.78,7.78,0,1,1,0,15.55H8.54a7,7,0,0,1-.18-14Z"/><path class="cls-1" d="M27.76,19a.8.8,0,0,0-.58-.24.78.78,0,0,0-.58.24l-2.71,2.71V12.37a.82.82,0,0,0-1.64,0v9.32L19.54,19a.78.78,0,0,0-.58-.24.8.8,0,0,0-.58.24.83.83,0,0,0-.24.58.84.84,0,0,0,.24.58l4.11,4.1a.78.78,0,0,0,.58.24.8.8,0,0,0,.58-.24l4.11-4.1a.84.84,0,0,0,.24-.58A.83.83,0,0,0,27.76,19Z"/></g></g></svg>