<svg xmlns="http://www.w3.org/2000/svg" viewBox="0 0 239.13 192.97"><defs><style>.cls-1{isolation:isolate;}.cls-2{opacity:0.25;}.cls-3{fill:#46c7ce;}.cls-4{fill:#eaeaea;mix-blend-mode:multiply;}.cls-5{fill:#ff9494;}.cls-6{fill:#103161;}.cls-7{fill:#fff;}.cls-8{fill:#0c224b;}.cls-9{fill:#fa5;}.cls-10{fill:#00676b;}.cls-11{fill:#ff6a6c;}.cls-12{fill:#ffd146;}.cls-13{opacity:0.8;}.cls-14{fill:#ff6b4d;}.cls-15,.cls-16{fill:#37202b;}.cls-16{stroke:#ff9494;stroke-miterlimit:10;stroke-width:0.2px;}</style></defs><g class="cls-1"><g id="Layer_2" data-name="Layer 2"><g id="Option_1" data-name="Option 1"><g class="cls-2"><path class="cls-3" d="M211.88,175.88c49.41-28.23,16.53-57.25,16.53-57.25a46.57,46.57,0,0,1-12.53-23.16c-3.79-17.76,12.35-35.87,7-53.22-4-12.77-18.31-19.5-31.63-20.62s-26.72,1.78-40.06.95c-16-1-31.09-7.26-46.25-12.42S73.49.84,57.83,4.23,27.58,20.68,27.45,36.69c-.06,7.22,2.68,14.72.12,21.47-4,10.44-18,13.09-24.36,22.28C-3,89.43,1,101.38,5.06,111.5c16.6,41.06,55.31,63,88,74.09C93,185.59,156.6,207.46,211.88,175.88Z"/></g><path class="cls-4" d="M180.93,186.32c0,1.48-25.52,2.68-57,2.68s-57-1.2-57-2.68,25.52-2.68,57-2.68S180.93,184.84,180.93,186.32Z"/><polygon class="cls-5" points="114.75 45.94 99.78 59.34 102.08 64.69 119.66 52.87 114.75 45.94"/><path class="cls-6" d="M99.28,13c3,2,5.29,5.38,4.87,8.92-.25,2.12-1.4,4.33-.48,6.24.62,1.28,2,2,3,3a5.8,5.8,0,0,1,0,7.59c-1.28,1.37-3.26,2.11-4.12,3.78-.44.85-.54,1.84-1,2.68-.9,1.75-3.09,2.5-5.05,2.36A20.77,20.77,0,0,1,90.82,46a10,10,0,0,0-5.76-.79c-3.13.74-5.42,4-8.63,4-2.86,0-5.11-2.95-5-5.8s2-5.39,4.41-7a6.16,6.16,0,0,0,2.32-2c.81-1.55-.16-3.38-.81-5-.75-1.9-.93-4.34.57-5.72a10.78,10.78,0,0,0,1.3-1.12,4.85,4.85,0,0,0,.59-2.6,11.3,11.3,0,0,1,6.64-9.2C90.6,8.93,95.59,10.63,99.28,13Z"/><path class="cls-5" d="M117.89,63.89l12.56,13.5-1.67,3.35s-14.45-8.9-17-15.49S117.89,63.89,117.89,63.89Z"/><path class="cls-7" d="M125.3,178.25l1.62-9.77,5.19-.34-1,10.65S126.67,179.62,125.3,178.25Z"/><path class="cls-8" d="M131.14,178.08a12.45,12.45,0,0,1-5.84.17s-9.74,3.71-9.54,6.61c0,0-.47.85,3.94.84s11.25.06,11.43,0S133.37,184.57,131.14,178.08Z"/><path class="cls-7" d="M131.35,185.7c-.19.09-7.13,0-11.59,0s-4-.85-4-.85a1.49,1.49,0,0,1,.09-.58l16.3-.41C132,185.29,131.46,185.65,131.35,185.7Z"/><path class="cls-7" d="M159.47,178.25l-2.69-9.49,6.49-1.1,2,11.13S160.84,179.62,159.47,178.25Z"/><path class="cls-8" d="M165.31,178.08a12.45,12.45,0,0,1-5.84.17s-9.74,3.71-9.54,6.61c0,0-.47.85,3.94.84s11.25.06,11.43,0S167.54,184.57,165.31,178.08Z"/><path class="cls-7" d="M165.52,185.7c-.19.09-7.13,0-11.59,0s-4-.85-4-.85a1.49,1.49,0,0,1,.09-.58l16.3-.41C166.21,185.29,165.63,185.65,165.52,185.7Z"/><path class="cls-9" d="M160.07,87.54l5.65,86.34h-8.79l-15.2-65-8.66,65h-8.48s.63-74.09,0-86.34S160.07,87.54,160.07,87.54Z"/><path class="cls-10" d="M148.47,27s16.31,4.88,18.82,9.27,3.09,16.12,3.09,16.12l-9.16,1.46.21,38.73s-14.23,5-37.47,0V53.42l-2.72,1.68-8.16-11.51s11.44-13,17-14.6A55.77,55.77,0,0,1,148.47,27Z"/><path class="cls-11" d="M138,13s-.59-1.06-1.17-.7c-1.48.91-.22,2.37.67,2.74Z"/><path class="cls-5" d="M138.06,9.32h0c0-.1,0-.21,0-.31a8.41,8.41,0,0,1,9.76-7.33,8.29,8.29,0,0,1,7.12,8,8,8,0,0,1-1.08,4c-1,1.83-1.8,3.4-2.65,4.69a11.33,11.33,0,0,0-1.84,7.19l.16,2c-5.43,2.2-7.56-.48-7.56-.48l.25-3.6a.92.92,0,0,0-.8-1h0C135.06,21.61,137.8,12.11,138.06,9.32Z"/><polygon class="cls-8" points="155.63 11.12 152.83 16.42 151.33 15.99 151.08 8.81 155.63 11.12"/><path class="cls-5" d="M151.11,15.79a1.2,1.2,0,0,1,.71-.51,2.17,2.17,0,0,1,2.29.41c.94,1.09-1.39,3.55-3.33,2.06C150.78,17.75,150.25,17.13,151.11,15.79Z"/><path class="cls-8" d="M139.71,6.28s-1.29.72-2.05,5.63c0,0,.11-5.54.8-6.09S139.71,6.28,139.71,6.28Z"/><path class="cls-8" d="M156.55,8.69a10.09,10.09,0,0,0-.46-3.08,4.06,4.06,0,0,0-1.79-2.45,3.69,3.69,0,0,1-1.17-.76,6.18,6.18,0,0,1-.41-.86C152.12.39,150.54.2,149.27.45s-2.53.8-3.8.58-2.8-1.42-4.14-.89A12,12,0,0,0,140.1.9a6.55,6.55,0,0,1-2.79.48,3.26,3.26,0,0,0-2.55,1.06,1.92,1.92,0,0,0,.81,2.76,3.36,3.36,0,0,1,.58.24c.77.52.28,1.88.95,2.51a1.5,1.5,0,0,0,1.34.26A5.54,5.54,0,0,1,139.83,8c1,0,1.83,1,2.84,1.22,1.44.32,2.82-.89,4.3-.86,2.18,0,3.48,2.61,5.57,3.25C155.13,12.38,156.47,11,156.55,8.69Z"/><path class="cls-5" d="M92.57,141.36s-6.71,32.27-4.38,35.57,6,6.63,6.1,8.38-12.16-2.27-13-4.15-.17-4.66,0-12.74,2-24.57,2-24.57Z"/><path class="cls-6" d="M94.29,185.31c-.06-1.19-1.78-3.12-3.61-5.26-1.09,3.53-7.55-1.39-9.75-3.19-.1,2.09-.08,3.32.36,4.3C82.13,183,94.38,187.06,94.29,185.31Z"/><path class="cls-5" d="M107.17,141.67s-1.42,32.94,1.41,35.81,7,5.58,7.37,7.29-12.37-.28-13.5-2-.92-4.58-2-12.58-2-24.58-2-24.58Z"/><path class="cls-6" d="M116,184.77c-.25-1.17-2.26-2.79-4.41-4.61-.51,3.66-7.68-.15-10.14-1.58.24,2.08.46,3.29,1,4.19C103.58,184.49,116.32,186.49,116,184.77Z"/><path class="cls-12" d="M94.93,35s11,0,12.93,3.58c2.41,4.48,8.57,23.69,11.24,25.41a48.47,48.47,0,0,1-7.38,3.77s-3.93-7.18-5-9.85c0,0,.32,10,.79,11s8.32,8.63,7.69,22.45-2.09,56.51-2.09,56.51H80.32s1.57-51.17,2.2-57.45C83,85.84,86.86,78.52,89,74.8A5.24,5.24,0,0,0,89.18,70l-5.72-12L80.32,71.53l-6.85-1s1.3-27.3,5.45-30.71C85.14,34.69,94.93,35,94.93,35Z"/><path class="cls-7" d="M86.39,36.64s-8.23,5.47,11.85,9.3c0,0,8.24-8.16,1.49-10.23L93.93,35Z"/><path class="cls-11" d="M98.28,21.37s.53-1,1.07-.69c1.37.85.14,2.3-.67,2.67Z"/><path class="cls-5" d="M95.7,34.11l-.4-3.62c4.8-1.1,3.17-10,2.88-12.64h0l0-.3A7.76,7.76,0,1,0,83.73,22.3a32.89,32.89,0,0,0,3.77,6.13,7.65,7.65,0,0,1,1.91,5.28h0a2.28,2.28,0,0,1-1.83,2.15l-.87.18,10.71,8.4,1.35-9.24-2-.08A1.13,1.13,0,0,1,95.7,34.11Z"/><path class="cls-6" d="M89.38,18.66a32,32,0,0,0-2.24,3.39,8.27,8.27,0,0,0-1.55,4,10.07,10.07,0,0,1-3.15-3.49,7.52,7.52,0,0,1-.93-2,8,8,0,0,1,0-3.09,8.48,8.48,0,0,1,1.15-3.81,6.41,6.41,0,0,1,2-1.73,10.94,10.94,0,0,1,5.9-1.67,7.83,7.83,0,0,1,5.54,2.42c1.8,2,2.29,4.77,2.69,7.41a7.77,7.77,0,0,0-2-2.72A6.34,6.34,0,0,0,95.07,16a32.35,32.35,0,0,1-3.42-1.44A9.19,9.19,0,0,1,89.38,18.66Z"/><path class="cls-5" d="M86.32,24.21a1.11,1.11,0,0,0-.66-.48,1.92,1.92,0,0,0-2.09.43c-.85,1.05,1.33,3.35,3.08,1.9C86.65,26.06,87.13,25.46,86.32,24.21Z"/><path class="cls-11" d="M96.59,26.23s-.93-.53-1.27-.42a1,1,0,0,0-.51.54.8.8,0,0,0-.65-.4,7.44,7.44,0,0,0-1.79.87s1.4,1.73,2.67,1.44,1.55-2,1.55-2Z"/><path class="cls-7" d="M92.37,26.82a39.68,39.68,0,0,0,4.22-.59s-.71,1.35-1.69,1.4A6.51,6.51,0,0,1,92.37,26.82Z"/><path class="cls-8" d="M106.69,58a.12.12,0,0,1-.09-.05.11.11,0,0,1,0-.15s2.82-1.71,1.79-6.12c-.49-2.13-3.54-3.76-3.57-3.78a.1.1,0,0,1,0-.14.11.11,0,0,1,.15-.05c.12.07,3.16,1.7,3.68,3.92,1.06,4.57-1.87,6.34-1.9,6.36Z"/><path class="cls-8" d="M92.07,58.64a9.41,9.41,0,0,1-4.83-1.78.1.1,0,0,1,0-.15.1.1,0,0,1,.15,0s3.29,2.38,5.95,1.55,3.76-4,3.77-4a.11.11,0,0,1,.21.07s-1.15,3.28-3.92,4.15A4.51,4.51,0,0,1,92.07,58.64Z"/><path class="cls-5" d="M115.77,105.72s.27,17.52,3,25.31l-3,1.08a55.65,55.65,0,0,1-5.38-22.82C110.21,96.35,115.77,105.72,115.77,105.72Z"/><path class="cls-5" d="M115.24,131a26.56,26.56,0,0,0,1.07,4.42c.51,1,.7,2.64,1.36,2.56s.09-2.52.09-2.52,1.87,1.4,2.38,1.92,1.2,1.06,1.61.71-1.76-2.5-1.76-2.5,2.4,1.73,2.85,1.49-2.29-2.89-2.29-2.89a19.69,19.69,0,0,0,2.8,2c.33,0,.32-.44-.38-1.35a11.1,11.1,0,0,0-1.67-1.66,24.66,24.66,0,0,0,2.12,1.33c.27.07.7,0-.49-1.26s-3-2-4.67-4Z"/><path class="cls-5" d="M86.13,132.54a27.85,27.85,0,0,1,1.93,4.12c.25,1.12,1.1,2.49.54,2.85S87,137.6,87,137.6s-.59,2.26-.66,3-.27,1.57-.81,1.56-.19-3.06-.19-3.06S84.51,142,84,142s0-3.68,0-3.68a19.16,19.16,0,0,1-1,3.28c-.27.19-.53-.14-.55-1.29a10.85,10.85,0,0,1,.26-2.34s-.65,2.14-.81,2.36-.57.43-.42-1.28,1.09-3.49,1.14-6.05Z"/><path class="cls-7" d="M111.88,174.71s-.28,6.2-.24,6.29-.48.86-.48.86l-2,.28-1.76-.87s.34-5.77.18-6.68S111.88,174.71,111.88,174.71Z"/><path class="cls-8" d="M107.44,181.27a5.08,5.08,0,0,0,4.2-.39s7.42,3.06,7.12,5.19c0,0,.3.65-3,.41s-8.3-.55-8.44-.63S106.59,186.1,107.44,181.27Z"/><path class="cls-7" d="M95.93,174.71s-.29,6.2-.24,6.29-.48.86-.48.86l-2,.28-1.76-.87s.34-5.77.18-6.68S95.93,174.71,95.93,174.71Z"/><path class="cls-8" d="M91.48,181.27a5.08,5.08,0,0,0,4.2-.39s7.42,3.06,7.13,5.19c0,0,.3.65-3,.41s-8.31-.55-8.44-.63S90.64,186.1,91.48,181.27Z"/><path class="cls-8" d="M114.34,129.87s2.51,14.81,1.7,27.71a117.87,117.87,0,0,1-3,21.15h-6.65s2-41.51-2-42.18-.27,10.68-7.66,41.33l-6.05-.2s1.35-30.92,0-46.51Z"/><path class="cls-7" d="M105.21,89.63s6.93,2.89,9.08,6.25,4,10.62,4,10.62a9.46,9.46,0,0,1-5.85,1.34s.31,17.37,2.64,22.3c0,0-1.25,2.87-7.35,3s-13.59-.9-14.68-.36a22.4,22.4,0,0,1-3.24,1.07s-1.11-15.53-1.26-23.54c-.06-3.57-1.19-3.24-1.19-3.24l-4.63-3s2.87-10.33,7.17-12.19a31.12,31.12,0,0,1,8.63-2.21Z"/><path class="cls-5" d="M109.83,75.39s.69-1,1.24-.62c1.4,1.09,0,2.49-.93,2.8Z"/><path class="cls-5" d="M110.13,71.52h0v-.34A8.56,8.56,0,0,0,93,71a8.76,8.76,0,0,0,.74,3.73c1.81,4.55,2.91,7.69,5.27,9.16a1.45,1.45,0,0,1,.68,1.24v2.17a2.92,2.92,0,0,1-1.21,2.37h0c4.7,1.81,6.71,0,6.71,0h0a3.14,3.14,0,0,1-1.14-2.41V86a1.49,1.49,0,0,1,1.27-1.47h0C113.48,83.31,110.14,74.46,110.13,71.52Z"/><path class="cls-8" d="M96.14,77.57S98.76,72,98.5,69.06l-5.42-.47A10.25,10.25,0,0,0,94.69,77Z"/><path class="cls-5" d="M96.38,77.08a1.31,1.31,0,0,0-.67-.6,2.14,2.14,0,0,0-2.35.22c-1,1,1.06,3.84,3.15,2.45C96.51,79.15,97.11,78.55,96.38,77.08Z"/><path class="cls-8" d="M92.62,67.56a4.21,4.21,0,0,1-.79-2.68,1.17,1.17,0,0,1,1.32.46,3.4,3.4,0,0,1,.53,1.4c0-1.26,1.07-2.15,2-2.83A9.83,9.83,0,0,1,99.42,62a24.61,24.61,0,0,1,5.88,0c1.45,0,2.92.19,4.35.21l.84.06c.42,0,1.24-.17,1.24.47a2.39,2.39,0,0,1-1,1.75,6.84,6.84,0,0,1-1.77.89,3.18,3.18,0,0,1,1.06.09c.45.11.89.26,1.32.41a1,1,0,0,1,.58.45.81.81,0,0,1,.07.4c-.07,1.25-1.52,2.13-2.55,2.5-3.35,1.2-7,.35-10.6.48-1.59.06-3.48.55-5,.11a5.36,5.36,0,0,1-2.23-1.64.35.35,0,0,1,.28-.53A3.76,3.76,0,0,0,92.62,67.56Z"/><path class="cls-8" d="M109,69.41a11.12,11.12,0,0,1,1.28,3.21s.33-3-.27-4S109,69.41,109,69.41Z"/><path class="cls-5" d="M88.46,106.7s-3.53,21.36-2.27,27l-3.49.1a90.13,90.13,0,0,1,.82-30.25Z"/><path class="cls-7" d="M86,96s-3.19,6.93-4,10.5c0,0,3.85,2.87,6.49,2.64s2.65-2.11,2.65-2.11l-2.65-7.53Z"/><path class="cls-5" d="M80.32,71.53s5.34,15.07,8.27,21.35l-2.26,2.37S74,79.42,74,70.62Z"/><path class="cls-5" d="M86.84,91A30.33,30.33,0,0,1,91,92.32c1,.53,2.35.32,2.25,1s-2.26.45-2.26.45,1.3,1.89,1.79,2.41,1.12,1.68.77,2.06S91,95.93,91,95.93s1.6,2.42,1.35,2.84-2.74-2.35-2.74-2.35a18.87,18.87,0,0,1,1.81,2.82c0,.32-.44.3-1.31-.43a11.21,11.21,0,0,1-1.56-1.69,24,24,0,0,1,1.22,2.12c.06.27,0,.69-1.22-.52a17.47,17.47,0,0,1-3.69-6.19Z"/><path class="cls-5" d="M160.57,86.35a40.9,40.9,0,0,0-3.78,4.37c-.76,1.29-2.46,2-1.9,2.64s2.87-1,2.87-1-.18,3-.38,4-.13,2.67.53,2.87,1.31-4.31,1.31-4.31-.17,3.84.4,4.16,1.51-4.55,1.51-4.55-.38,4.09-.13,4.44.71,0,1.19-1.38a14,14,0,0,0,.62-3,31.14,31.14,0,0,0,.07,3.25c.11.35.53.75,1-1.43s.82-7,0-9.55Z"/><path class="cls-5" d="M163.92,87.52c0-1.45,5.56-11,6-19.65a102.91,102.91,0,0,0-.49-16c-2.44-1.19-10.17-.41-10.17-.41l3.59,17.11L160.2,87.09Z"/><g class="cls-13"><path class="cls-14" d="M92.37,24.64c0,.33-.64.66-1.48.74s-1.56-.14-1.59-.47.63-.66,1.48-.74S92.34,24.31,92.37,24.64Z"/></g><g class="cls-13"><path class="cls-14" d="M99.56,24c0,.33-.53.66-1.26.72s-1.33-.15-1.36-.49.54-.65,1.26-.72S99.53,23.67,99.56,24Z"/></g><path class="cls-15" d="M92.25,22.8c0,.46-.13.85-.39.87s-.49-.33-.53-.79.13-.84.39-.87S92.21,22.34,92.25,22.8Z"/><path class="cls-15" d="M96.78,22.4c0,.46-.14.85-.39.87s-.5-.33-.54-.79.14-.85.39-.87S96.74,21.94,96.78,22.4Z"/><path class="cls-16" d="M89.68,20.91c.06-.49.38-1.43,1.92-1.64a.41.41,0,0,1,.43.26h0a.4.4,0,0,1-.27.54,1.82,1.82,0,0,0-1.26,1.08.4.4,0,0,1-.55.21l0,0A.39.39,0,0,1,89.68,20.91Z"/><path class="cls-16" d="M97.59,20.21a1.94,1.94,0,0,0-2.18-1.28.41.41,0,0,0-.38.34h0a.41.41,0,0,0,.36.48,1.78,1.78,0,0,1,1.43.84.4.4,0,0,0,.58.1l0,0A.4.4,0,0,0,97.59,20.21Z"/><path class="cls-15" d="M94.56,24.92A1.6,1.6,0,0,0,96,24a.18.18,0,0,0,0-.16l-1.84-3.07a.19.19,0,0,0-.26-.07.2.2,0,0,0-.06.26s.89,1.51,1.78,3a1.28,1.28,0,0,1-1.08.62.19.19,0,1,0,0,.38Z"/><g class="cls-13"><path class="cls-14" d="M144.87,15.92c0,.36.75.65,1.66.65s1.67-.29,1.67-.65-.75-.65-1.67-.65S144.87,15.56,144.87,15.92Z"/></g><g class="cls-13"><path class="cls-14" d="M137.06,15.92c0,.36.64.65,1.42.65s1.42-.29,1.42-.65-.63-.65-1.42-.65S137.06,15.56,137.06,15.92Z"/></g><path class="cls-15" d="M144.82,13.93c0,.5.22.9.5.9s.5-.4.5-.9-.22-.9-.5-.9S144.82,13.43,144.82,13.93Z"/><path class="cls-15" d="M139.9,13.93c0,.5.23.9.51.9s.5-.4.5-.9-.23-.9-.5-.9S139.9,13.43,139.9,13.93Z"/><path class="cls-15" d="M147.41,11.65a2.07,2.07,0,0,0-2.23-1.58.44.44,0,0,0-.44.32h0a.44.44,0,0,0,.34.55A2,2,0,0,1,146.54,12a.44.44,0,0,0,.62.16l.05,0A.44.44,0,0,0,147.41,11.65Z"/><path class="cls-15" d="M138.82,11.65a2.07,2.07,0,0,1,2.23-1.58.44.44,0,0,1,.44.32h0a.44.44,0,0,1-.34.55A2,2,0,0,0,139.69,12a.44.44,0,0,1-.62.16l0,0A.44.44,0,0,1,138.82,11.65Z"/><path class="cls-15" d="M145,17.42A5.3,5.3,0,0,1,141.71,19a3.16,3.16,0,0,1-1.86-.62.2.2,0,0,1,.24-.33c2.25,1.6,4.62-.88,4.65-.91a.21.21,0,1,1,.3.28"/><path class="cls-15" d="M142.54,16.43a1.77,1.77,0,0,1-1.64-.88.23.23,0,0,1,0-.18c.83-1.71,1.67-3.47,1.68-3.48a.2.2,0,1,1,.37.17l-1.63,3.39a1.39,1.39,0,0,0,1.22.57.2.2,0,0,1,.2.21A.2.2,0,0,1,142.54,16.43Z"/><g class="cls-13"><path class="cls-14" d="M102.39,77.92c0,.36-.75.65-1.67.65s-1.66-.29-1.66-.65.75-.65,1.66-.65S102.39,77.56,102.39,77.92Z"/></g><g class="cls-13"><path class="cls-14" d="M110.2,77.92c0,.36-.64.65-1.42.65s-1.42-.29-1.42-.65.63-.65,1.42-.65S110.2,77.56,110.2,77.92Z"/></g><path class="cls-15" d="M102.44,75.93c0,.5-.22.9-.5.9s-.5-.4-.5-.9.22-.9.5-.9S102.44,75.43,102.44,75.93Z"/><path class="cls-15" d="M107.36,75.93c0,.5-.23.9-.51.9s-.5-.4-.5-.9.23-.9.5-.9S107.36,75.43,107.36,75.93Z"/><path class="cls-15" d="M99.85,73.65a2.07,2.07,0,0,1,2.22-1.58.44.44,0,0,1,.45.32h0a.44.44,0,0,1-.34.55,2,2,0,0,0-1.46,1,.44.44,0,0,1-.62.16l-.06,0A.45.45,0,0,1,99.85,73.65Z"/><path class="cls-15" d="M108.44,73.65a2.07,2.07,0,0,0-2.23-1.58.43.43,0,0,0-.44.32h0a.44.44,0,0,0,.34.55,2,2,0,0,1,1.46,1,.44.44,0,0,0,.62.16l0,0A.44.44,0,0,0,108.44,73.65Z"/><path class="cls-15" d="M102.22,79.42A5.3,5.3,0,0,0,105.55,81a3.16,3.16,0,0,0,1.86-.62.2.2,0,0,0-.24-.33c-2.25,1.6-4.62-.88-4.65-.91a.21.21,0,1,0-.3.28"/><path class="cls-15" d="M104.72,78.43a1.77,1.77,0,0,0,1.64-.88.28.28,0,0,0,0-.18c-.83-1.71-1.67-3.47-1.68-3.48a.2.2,0,0,0-.28-.1.2.2,0,0,0-.09.27l1.63,3.39a1.4,1.4,0,0,1-1.22.57.2.2,0,0,0-.2.21A.2.2,0,0,0,104.72,78.43Z"/></g></g></g></svg>