<svg xmlns="http://www.w3.org/2000/svg" viewBox="0 0 40.21 20.53"><defs><style>.cls-1{fill:#4ec0c4;}</style></defs><g id="Layer_2" data-name="Layer 2"><g id="Option_1" data-name="Option 1"><path class="cls-1" d="M35.6,8.47a2.54,2.54,0,1,0,0,3.59A2.54,2.54,0,0,0,35.6,8.47ZM32.87,11.2a1.32,1.32,0,1,1,1.87,0A1.33,1.33,0,0,1,32.87,11.2Z"/><path class="cls-1" d="M40.21,10.26A10.27,10.27,0,0,0,22.68,3a10.63,10.63,0,0,0-1.89,2.59l-.1.2L4.48,5.71A.6.6,0,0,0,4,5.89L.17,9.76h0a.61.61,0,0,0,0,.8h0l4.9,5.87a.6.6,0,0,0,.81.11l2.56-1.7L11,16.56a.59.59,0,0,0,.67,0l2.56-1.7,2.56,1.7a.61.61,0,0,0,.61,0l3.43-1.66.16.3a10.26,10.26,0,0,0,19.24-5ZM4.72,6.93h.15L20.19,7l-.13.45a9.92,9.92,0,0,0-.34,1.87l0,.33L2.07,9.58ZM29.94,19.31a9,9,0,0,1-6.39-2.65,9.16,9.16,0,0,1-1.9-2.78.57.57,0,0,0-.34-.32.61.61,0,0,0-.48,0l-3.67,1.78-2.61-1.74a.59.59,0,0,0-.67,0l-2.56,1.71L8.76,13.62a.6.6,0,0,0-.68,0L5.64,15.25,1.91,10.79l18.37.08a.61.61,0,0,0,.61-.61,9.05,9.05,0,1,1,18.1,0A9.06,9.06,0,0,1,29.94,19.31Z"/></g></g></svg>