<svg xmlns="http://www.w3.org/2000/svg" viewBox="0 0 24.38 32.84"><defs><style>.cls-1{fill:#46c7ce;}</style></defs><g id="Layer_2" data-name="Layer 2"><g id="Option_1" data-name="Option 1"><path class="cls-1" d="M21.7,12.68H20.16V8A8,8,0,0,0,4.23,8v4.72H2.68A2.69,2.69,0,0,0,0,15.36v14.8a2.68,2.68,0,0,0,2.68,2.68h19a2.68,2.68,0,0,0,2.68-2.68V15.36A2.69,2.69,0,0,0,21.7,12.68ZM5.36,8A6.83,6.83,0,0,1,19,8v4.72H5.36Zm17.89,22.2a1.55,1.55,0,0,1-1.55,1.55h-19a1.56,1.56,0,0,1-1.55-1.55V15.36a1.55,1.55,0,0,1,1.55-1.54h19a1.54,1.54,0,0,1,1.55,1.54Z"/><path class="cls-1" d="M12.19,18.32a2.33,2.33,0,0,0-.87,4.49l.31.12v3.71a.56.56,0,0,0,.56.56.57.57,0,0,0,.57-.56V22.93l.3-.12a2.33,2.33,0,0,0-.87-4.49Zm0,3.52a1.2,1.2,0,0,1,0-2.39,1.2,1.2,0,1,1,0,2.39Z"/></g></g></svg>