<svg xmlns="http://www.w3.org/2000/svg" viewBox="0 0 43.41 36.1"><defs><style>.cls-1{fill:#fa5;}</style></defs><g id="Layer_2" data-name="Layer 2"><g id="Option_1" data-name="Option 1"><path class="cls-1" d="M30.26,5.64H5.65a.73.73,0,1,0,0,1.46H30.26a.73.73,0,1,0,0-1.46Z"/><path class="cls-1" d="M30.26,11.46H5.65a.73.73,0,0,0,0,1.46H30.26a.73.73,0,0,0,0-1.46Z"/><path class="cls-1" d="M36.22,23.25a4.63,4.63,0,1,0-4.63,4.62A4.64,4.64,0,0,0,36.22,23.25Zm-4.63,3.13a3.14,3.14,0,1,1,3.14-3.13A3.14,3.14,0,0,1,31.59,26.38Z"/><path class="cls-1" d="M16.77,17.19H5.65a.73.73,0,0,0,0,1.46H16.77a.73.73,0,0,0,0-1.46Z"/><path class="cls-1" d="M41.56,0H1.85A1.85,1.85,0,0,0,0,1.85v26.8a1.85,1.85,0,0,0,1.85,1.86H25.08l-.56,1.16L24,32.86a.88.88,0,0,0,.93,1.26L27,33.79l1.15,1.88a.88.88,0,0,0,.76.43h0a.89.89,0,0,0,.75-.51l2-4.18,2,4.18a.89.89,0,0,0,.76.51h0a.88.88,0,0,0,.76-.43l1.15-1.88,2,.33a.88.88,0,0,0,.94-1.25l-1.1-2.32h0l0,0h3.34a1.85,1.85,0,0,0,1.85-1.86V1.85A1.85,1.85,0,0,0,41.56,0ZM28.79,33.94,28,32.67a.89.89,0,0,0-.89-.42l-1.33.22,1.4-2.92a2.63,2.63,0,0,0,2.14.78,1.18,1.18,0,0,1,.78.21l.23.15Zm3-4.41h0a1,1,0,0,1-.34,0h0a1.16,1.16,0,0,1-.49-.2,2.66,2.66,0,0,0-1.54-.49h-.25A1.16,1.16,0,0,1,28,28.18a2.2,2.2,0,0,0-.34-.55l0,0,0,0,0,0a2.68,2.68,0,0,0-.89-.67A1.17,1.17,0,0,1,26,25.71a2.65,2.65,0,0,0-.48-1.79,1.19,1.19,0,0,1,0-1.35A2.64,2.64,0,0,0,26,20.79a1.18,1.18,0,0,1,.68-1.17A2.63,2.63,0,0,0,28,18.31a1.16,1.16,0,0,1,1.17-.67A2.66,2.66,0,0,0,31,17.16a1.14,1.14,0,0,1,1.34,0,2.65,2.65,0,0,0,1.79.48,1.14,1.14,0,0,1,1.16.67,2.65,2.65,0,0,0,1.31,1.31,1.18,1.18,0,0,1,.68,1.17,2.68,2.68,0,0,0,.47,1.78,1.16,1.16,0,0,1,0,1.35,2.7,2.7,0,0,0-.47,1.79,1.17,1.17,0,0,1-.68,1.16,2.68,2.68,0,0,0-.89.67l0,0,0,0,0,0a2.85,2.85,0,0,0-.35.55,1.14,1.14,0,0,1-1.16.67,2.66,2.66,0,0,0-1.79.48A1.16,1.16,0,0,1,31.83,29.53Zm4.35,2.72a.88.88,0,0,0-.89.42L34.51,34,33,30.69a1.82,1.82,0,0,0,.23-.15,1.23,1.23,0,0,1,.79-.21,2.63,2.63,0,0,0,2.14-.78l1.39,2.92ZM42,28.65a.4.4,0,0,1-.39.4h-4l-.38-.79a.09.09,0,0,1,.06,0,2.67,2.67,0,0,0,1.54-2.67,1.16,1.16,0,0,1,.21-.78,2.66,2.66,0,0,0,0-3.07,1.16,1.16,0,0,1-.21-.78,2.65,2.65,0,0,0-1.54-2.66,1.15,1.15,0,0,1-.57-.58A2.65,2.65,0,0,0,34,16.16a1.23,1.23,0,0,1-.79-.21,2.63,2.63,0,0,0-3.07,0,1.18,1.18,0,0,1-.78.21,2.65,2.65,0,0,0-2.66,1.53,1.19,1.19,0,0,1-.57.58,2.64,2.64,0,0,0-1.54,2.66,1.16,1.16,0,0,1-.21.78,2.66,2.66,0,0,0,0,3.07,1.16,1.16,0,0,1,.21.78,2.63,2.63,0,0,0,1.54,2.66l0,0-.37.8H1.85a.4.4,0,0,1-.39-.4V1.85a.4.4,0,0,1,.39-.39H41.56a.4.4,0,0,1,.39.39Z"/></g></g></svg>