<svg xmlns="http://www.w3.org/2000/svg" xmlns:xlink="http://www.w3.org/1999/xlink" viewBox="0 0 316.34 260.67"><defs><style>.cls-1{fill:#fff;}.cls-2{isolation:isolate;}.cls-3{fill:#4ec0c4;opacity:0.25;}.cls-4{fill:#eaeaea;}.cls-11,.cls-4,.cls-8{mix-blend-mode:multiply;}.cls-5{fill:#363638;}.cls-6{fill:#dfdbe0;}.cls-7,.cls-8{fill:#e4f2f1;}.cls-9{fill:#3c3368;}.cls-10{fill:#4d4184;}.cls-11{opacity:0.15;}.cls-12{fill:#fa5;}.cls-13{clip-path:url(#clip-path);}.cls-14{fill:#414042;}.cls-15{fill:#a16a4e;}.cls-16{fill:#885a41;}.cls-17{fill:#272143;}.cls-18{fill:#e5e6e7;}.cls-19{fill:#118542;}.cls-20{fill:#fcb88a;}.cls-21{fill:#ed926a;}.cls-22{fill:#332417;}.cls-23{fill:#46c7ce;}.cls-24{clip-path:url(#clip-path-2);}.cls-25{fill:#473220;}.cls-26{fill:#fc8724;}.cls-27{fill:#b23532;}</style><clipPath id="clip-path"><circle class="cls-1" cx="172.48" cy="147.57" r="19.65" transform="matrix(0.22, -0.98, 0.98, 0.22, -9.23, 283.61)"/></clipPath><clipPath id="clip-path-2"><circle class="cls-1" cx="68.95" cy="77.74" r="19.65"/></clipPath></defs><g class="cls-2"><g id="Layer_2" data-name="Layer 2"><g id="Option_1" data-name="Option 1"><path class="cls-3" d="M165.38,241c-89.4,1.82-129-26.17-129-26.17s-59-29-26.72-108.63C35.4,42.85,131-10.49,179,10.88s44.21,49.68,97.16,89.49,41.54,72.5,32.54,89.12C308.65,189.49,280.58,238.66,165.38,241Z"/><ellipse class="cls-4" cx="151.26" cy="242.54" rx="73.25" ry="10.86"/><path class="cls-5" d="M106.43,0H196.1a17.73,17.73,0,0,1,17.73,17.73V218.8c0,12.78,0,23.14-23.14,23.14H111.85c-23.15,0-23.15-10.36-23.15-23.14V17.73A17.73,17.73,0,0,1,106.43,0Z"/><rect class="cls-1" x="96.21" y="24.66" width="110.67" height="194.18"/><path class="cls-1" d="M143.2,11.38h15.24a1.38,1.38,0,0,1,0,2.76H143.2a1.38,1.38,0,1,1,0-2.76Z"/><path class="cls-6" d="M143.2,11.38h15.24a1.38,1.38,0,0,1,1.38,1.38,1.05,1.05,0,0,1-.08.36,1.35,1.35,0,0,0-1.3-1H143.2a1.37,1.37,0,0,0-1.31,1,1.35,1.35,0,0,1-.07-.36A1.38,1.38,0,0,1,143.2,11.38Z"/><path class="cls-1" d="M135.14,11.38a1.33,1.33,0,1,1-1.32,1.33A1.33,1.33,0,0,1,135.14,11.38Z"/><path class="cls-6" d="M135.14,12.11a.6.6,0,1,1,0,1.2.6.6,0,0,1,0-1.2Z"/><rect class="cls-7" x="96.21" y="24.66" width="110.67" height="194.18"/><polygon class="cls-8" points="96.21 177.32 168.79 24.66 96.21 24.66 96.21 177.32"/><polygon class="cls-8" points="206.87 67.05 133.82 218.84 206.87 218.84 206.87 67.05"/><path class="cls-9" d="M151.26,222.23a7.53,7.53,0,1,1-7.52,7.53A7.53,7.53,0,0,1,151.26,222.23Z"/><path class="cls-10" d="M151.26,222.23a7.53,7.53,0,0,1,7.53,7.53h-15A7.53,7.53,0,0,1,151.26,222.23Z"/><path class="cls-6" d="M151.26,223.64a6.12,6.12,0,1,1-6.12,6.12A6.12,6.12,0,0,1,151.26,223.64Z"/><rect class="cls-1" x="102.77" y="198.75" width="97" height="13.41"/><polygon class="cls-11" points="205.47 176.22 188.57 194.81 213.83 183.56 213.83 176.22 205.47 176.22"/><path class="cls-12" d="M145.14,124.43v47.31a5.56,5.56,0,0,0,5.57,5.56h37.87v17.51l18.78-17.51h48.09a5.56,5.56,0,0,0,5.57-5.56V124.43a5.56,5.56,0,0,0-5.57-5.56H150.71A5.56,5.56,0,0,0,145.14,124.43Z"/><path class="cls-11" d="M172.48,127.91a19.66,19.66,0,0,0-19.66,19.66h0a19.66,19.66,0,1,0,39.31,0h0A19.66,19.66,0,0,0,172.48,127.91Z"/><rect class="cls-1" x="198.33" y="131.67" width="52.63" height="5.21" rx="2.12"/><path class="cls-1" d="M248.35,145.71H200.93a2.6,2.6,0,0,1-2.6-2.6h0a2.6,2.6,0,0,1,2.6-2.61h47.42a2.61,2.61,0,0,1,2.61,2.61h0A2.61,2.61,0,0,1,248.35,145.71Z"/><path class="cls-1" d="M248.35,154.84H200.93a2.6,2.6,0,0,1-2.6-2.61h0a2.6,2.6,0,0,1,2.6-2.6h47.42a2.61,2.61,0,0,1,2.61,2.6h0A2.61,2.61,0,0,1,248.35,154.84Z"/><path class="cls-1" d="M224.52,163.82H200.93a2.6,2.6,0,0,1-2.6-2.6h0a2.6,2.6,0,0,1,2.6-2.61h23.59a2.6,2.6,0,0,1,2.6,2.61h0A2.6,2.6,0,0,1,224.52,163.82Z"/><circle class="cls-1" cx="172.48" cy="147.57" r="19.65" transform="matrix(0.22, -0.98, 0.98, 0.22, -9.23, 283.61)"/><g class="cls-13"><path class="cls-14" d="M189.16,257.58a5.2,5.2,0,0,0,2.27,1.37c1.33.33,1.51,1.27,1,1.47s-3.1.69-4.61-.66-.54-2.18-.54-2.18Z"/><path class="cls-15" d="M162.12,187.87S160.38,216,160.47,225s.83,32.58.83,32.58,2.22.3,2.33,0,2.91-17.63,2.9-24.87c0-6.69-.58-20.25,3.74-27.66a3.45,3.45,0,0,1,3-1.7h0a3.72,3.72,0,0,1,3.45,3c1.77,6.52,5.2,21.8,5.45,25.85.4,6.46,4.93,25.49,4.93,25.49h2.34s-2.75-46.37-2.34-53.6A88.56,88.56,0,0,0,186,187.87Z"/><path class="cls-14" d="M161.49,257.58a5.27,5.27,0,0,1-2.28,1.37c-1.33.33-1.51,1.27-1,1.47s3.1.69,4.61-.66.53-2.18.53-2.18Z"/><path class="cls-16" d="M186.14,188.7c-.08-.53-.13-.83-.13-.83H162.12s-.06,1-.16,2.72C166.35,191.17,179.06,192.42,186.14,188.7Z"/><path class="cls-16" d="M183.46,189.34a3,3,0,0,0-.13-.32l.22-.1s0,.11.13.34Z"/><path class="cls-16" d="M189,256.59l-.07-.7.23,0,.07.7Zm-.13-1.4-.07-.71.23,0,.07.71Zm-.13-1.41-.07-.7.23,0,.07.7Zm-.13-1.4-.07-.7.24,0,.06.7Zm-.13-1.41-.06-.7.23,0,.06.7Zm-.13-1.4-.06-.7.23,0,.07.7Zm-.12-1.4-.06-.7.23,0,.06.7Zm-.13-1.41-.06-.7.23,0,.07.7Zm-.12-1.4-.06-.7.23,0,.06.7Zm-.12-1.4-.06-.7.23,0,.06.7Zm-.12-1.4-.06-.71.23,0,.06.7Zm-.13-1.41-.06-.7.24,0,.06.7Zm-.12-1.4-.05-.7.23,0,.06.7Zm-.11-1.41-.06-.7.23,0,.06.71Zm-.12-1.4-.06-.7.23,0,.06.7Zm-.12-1.4-.06-.7.24,0,0,.7Zm-.11-1.41-.06-.7.23,0,.06.71Zm-.12-1.4-.06-.7.24,0,.05.7Zm-.11-1.4-.06-.7.23,0,.06.7Zm-.11-1.41-.06-.7.23,0,.06.71Zm-.11-1.4-.06-.71h.23l.06.7Zm-.11-1.41-.06-.7.24,0,.05.7Zm-.11-1.4-.05-.7.23,0,0,.7Zm-.11-1.4,0-.7.23,0,.06.7Zm-.1-1.41,0-.7.23,0,.05.71Zm-.1-1.4-.05-.7.23,0,0,.7Zm-.1-1.41-.05-.7h.23l0,.7Zm-.1-1.4,0-.7.23,0,0,.7Zm-.09-1.41-.05-.7h.24l0,.7Zm-.09-1.4,0-.71h.23l0,.7Zm-.09-1.41,0-.7.24,0,0,.71Zm-.08-1.4,0-.71h.24l0,.7Zm-.08-1.41,0-.71h.23l0,.71Zm-.07-1.41,0-.7h.23l0,.7Zm-.06-1.41,0-.7h.24c0,.23,0,.46,0,.7Zm-.05-1.41c0-.24,0-.47,0-.7h.23c0,.23,0,.46,0,.71Zm0-1.41c0-.24,0-.48,0-.7h.23c0,.23,0,.47,0,.71Zm.22-1.41h-.24v-.06c0-.15,0-.31,0-.46v-.18h.23v.7Zm0-1.41h-.23v-.7h.23Zm-.24-1.4c0-.24,0-.47,0-.7h.23c0,.23,0,.47,0,.7Zm0-1.41c0-.23,0-.47,0-.7h.23l0,.71ZM185,199c0-.24,0-.47,0-.7l.23,0c0,.23,0,.47.05.71Zm-.09-1.4-.06-.7.24,0,.06.7Zm-.12-1.4c0-.24,0-.47-.08-.7l.24,0c0,.22.05.46.07.7Zm-.16-1.39c0-.24-.06-.47-.1-.7l.23,0c0,.22.07.46.1.7Zm-.21-1.39c0-.24-.08-.47-.12-.69l.23,0c0,.22.09.45.13.69ZM184.2,192c0-.24-.1-.47-.15-.68l.23-.06q.08.33.15.69Zm-.32-1.36c-.07-.26-.13-.48-.19-.67l.22-.07c.06.19.13.42.19.68Z"/><rect class="cls-16" x="189.02" y="257.23" width="0.23" height="0.35" transform="translate(-23.41 18.96) rotate(-5.41)"/><path class="cls-16" d="M163.45,257.52l-.24,0,.08-.7.23,0Zm.14-1.39-.23,0,.07-.7.23,0Zm.14-1.4-.23,0,.07-.7.23,0Zm.14-1.4-.23,0,.07-.7.23,0Zm.14-1.4-.24,0,.07-.7.23,0Zm.13-1.4-.23,0,.06-.7.24,0Zm.13-1.39-.23,0,.06-.69.24,0Zm.13-1.4-.23,0,.06-.7.23,0Zm.12-1.4-.23,0,.06-.7.24,0Zm.13-1.4-.24,0,.06-.7.24,0Zm.12-1.4-.24,0,.06-.69h.23Zm.11-1.39-.23,0,0-.7.23,0Zm.11-1.4-.24,0,.06-.7.23,0Zm.1-1.4-.23,0,0-.7.24,0Zm.09-1.4-.23,0,0-.7h.24Zm.09-1.41H165l0-.7h.24C165.29,236.07,165.28,236.3,165.27,236.54Zm.07-1.4h-.23c0-.24,0-.48,0-.7h.24C165.36,234.66,165.35,234.9,165.34,235.14Zm0-1.41h-.24c0-.25,0-.48,0-.7h.23C165.4,233.25,165.39,233.49,165.39,233.73Zm-.23-1.4c0-.22,0-.42,0-.6v-.1h.24v.1c0,.18,0,.38,0,.61Zm-.06-1.4c0-.22,0-.45,0-.7h.24c0,.25,0,.48,0,.7Zm0-1.4c0-.23,0-.46,0-.7h.23c0,.24,0,.47,0,.7Zm0-1.4v-.7h.23v.7Zm.24-1.4H165c0-.23,0-.46,0-.7h.24C165.28,226.26,165.28,226.5,165.28,226.73Zm0-1.4h-.24l0-.7h.23Zm0-1.41h-.23c0-.23,0-.47,0-.7h.23C165.34,223.46,165.34,223.69,165.33,223.92Zm0-1.4h-.24l0-.71h.24Zm.06-1.4h-.24c0-.23,0-.46,0-.7h.23Zm.07-1.4h-.23c0-.23,0-.47,0-.7l.23,0C165.54,219.26,165.53,219.49,165.51,219.72Zm.09-1.39-.23,0c0-.23,0-.47,0-.7l.23,0C165.63,217.86,165.62,218.09,165.6,218.33Zm.11-1.4-.24,0,.06-.7.24,0Zm.12-1.39-.23,0c0-.23.05-.46.07-.69l.23,0C165.88,215.07,165.85,215.3,165.83,215.54Zm.15-1.4-.23,0c0-.24.05-.47.08-.7l.23,0C166,213.68,166,213.91,166,214.14Zm.18-1.38-.23,0c0-.23.06-.47.1-.69l.23,0C166.22,212.29,166.19,212.52,166.16,212.76Zm.21-1.39-.23,0c0-.23.08-.46.13-.69l.23.05C166.45,210.91,166.41,211.14,166.37,211.37Zm.27-1.37-.23-.05c.05-.24.11-.47.17-.68l.22.06C166.75,209.54,166.69,209.77,166.64,210Zm.36-1.34-.23-.07c.08-.23.16-.46.24-.67l.22.09C167.15,208.21,167.07,208.43,167,208.66Zm.5-1.29-.21-.1c.11-.21.22-.42.34-.62l.2.11C167.71,207,167.6,207.16,167.5,207.37Zm.7-1.19-.19-.13a6.41,6.41,0,0,1,.44-.56l.18.15C168.48,205.81,168.34,206,168.2,206.18Zm.9-1-.16-.17a5.83,5.83,0,0,1,.55-.46l.14.19A5.37,5.37,0,0,0,169.1,205.15Zm1.1-.82-.11-.21c.2-.12.42-.22.63-.32l.1.22A5.12,5.12,0,0,0,170.2,204.33Zm1.26-.54-.06-.23a3.27,3.27,0,0,1,.71-.13l0,.23A3.71,3.71,0,0,0,171.46,203.79Z"/><path class="cls-17" d="M166.86,154.52s-8.2,2.81-13.24,9-5.83,13.79-3.26,14.89,14.89.84,14.89.84-1.39-.5-.79-2.47c0,0-8.55-.6-9.07-3s3.31-5.06,6.41-8S166.86,154.52,166.86,154.52Z"/><path class="cls-17" d="M159.59,159s3.55,25.58,2.17,28.76a69.44,69.44,0,0,0,24.9.74s-.51-17.13.82-22.29l1.34-5.16a26.67,26.67,0,0,0-11-6.26c-1.7-.47-3.21-1.25-5.23-1.15C162.79,154.13,159.59,159,159.59,159Z"/><path class="cls-1" d="M166.53,154.82s-.57,4.08,4.85,7.08a12,12,0,0,0,6.48-7.08Z"/><path class="cls-18" d="M176.6,157.43a11.61,11.61,0,0,1-4.41.81,8.79,8.79,0,0,1-5.48-1.67c0,.13.07.25.11.39a9.4,9.4,0,0,0,5.36,1.51h.15a11.52,11.52,0,0,0,4-.73Z"/><path class="cls-19" d="M161.76,179.33c0,.36.06.71.08,1.06a18.94,18.94,0,0,0,3.41-1.09Z"/><path class="cls-19" d="M178.54,173.12c0,9.77,5.8,14.2,7.84,15.46l.28-.05s0-1.68-.08-4.15l-.07-.15C179.14,181.36,178.54,173.12,178.54,173.12Z"/><path class="cls-17" d="M177.86,154.82s6.44.82,12.81,7.35,6.58,21.76,3.12,22.77S184,186.53,180,174.1c0,0,2.3.53,2.11-1.81,0,0,3.9,9.15,5.75,8s1-10.74-3-14.06S177.86,157.17,177.86,154.82Z"/><path class="cls-20" d="M180,174.1s-1.91-.14-1.5-1.81a21,21,0,0,1,.69-2.38l-.61-2.82a.59.59,0,0,1,.27-.62h0a.57.57,0,0,1,.7.07c.8.72,2.71,2.66,2.56,4.33C182,173,182.05,174.4,180,174.1Z"/><path class="cls-21" d="M179.23,169.91l-.95-1a.46.46,0,0,0-.72.1h0a.47.47,0,0,0,0,.37l1,2.88S179.63,170.87,179.23,169.91Z"/><path class="cls-20" d="M163.71,178.46s-.06.91,3.15,1a5.13,5.13,0,0,0,1-.07c2.74-.54,3.4-3.33.62-3.13-.8.06-3.12-.61-3.93,0C163,177.42,163.71,178.46,163.71,178.46Z"/><path class="cls-20" d="M168.64,149.13s-.38,4.43-2.11,5.69a8.78,8.78,0,0,0,5.88,2,9.62,9.62,0,0,0,5.45-2,11.11,11.11,0,0,1-2.05-5.69Z"/><path class="cls-21" d="M166.86,154.52a14.89,14.89,0,0,0,9-4.5,8.65,8.65,0,0,1-.09-.89h-7.17S168.31,153,166.86,154.52Z"/><path class="cls-20" d="M180,142.32c0,4.73-3.56,8.56-8,8.56s-6.8-3.83-6.8-8.56c0-7.59,2.4-8.56,6.8-8.56S180,137.59,180,142.32Z"/><path class="cls-1" d="M168.56,146.12s2.65.11,3.52,0c0,0,0,1.53-1.87,1.67A1.41,1.41,0,0,1,168.56,146.12Z"/><path class="cls-22" d="M168.68,142.48a.59.59,0,1,1-.59-.59A.59.59,0,0,1,168.68,142.48Z"/><path class="cls-22" d="M173.44,142.48a.6.6,0,1,1-.59-.59A.6.6,0,0,1,173.44,142.48Z"/><path class="cls-21" d="M169.72,144.91l-.08,0a.27.27,0,0,1-.18-.33,9.06,9.06,0,0,0,.54-3.4c-.16-.65-1.81-1-2.81-1.12a.27.27,0,1,1,.05-.53c.3,0,3,.28,3.28,1.52a9.55,9.55,0,0,1-.55,3.69A.26.26,0,0,1,169.72,144.91Z"/><path class="cls-20" d="M179.93,140.65a1.55,1.55,0,0,1,2,1c.41,1.53-1.19,3.42-3.08,3.33S179.93,140.65,179.93,140.65Z"/><path class="cls-22" d="M167.65,137.86a28,28,0,0,0,10-1.13s-.46,3.85,2.16,5.16a38.25,38.25,0,0,0,0-6.8c-.39-2.21-16.62-3-16.62-3a10,10,0,0,0,1,3.48A4.24,4.24,0,0,0,167.65,137.86Z"/></g><polygon class="cls-11" points="97.07 105.81 113.96 124.4 88.7 113.16 88.7 105.81 97.07 105.81"/><path class="cls-23" d="M157.39,54v47.3a5.57,5.57,0,0,1-5.57,5.57H114v17.5L95.17,106.9H47.08a5.57,5.57,0,0,1-5.57-5.57V54a5.57,5.57,0,0,1,5.57-5.57H151.82A5.57,5.57,0,0,1,157.39,54Z"/><path class="cls-11" d="M69,58.09A19.65,19.65,0,0,0,49.3,77.74h0a19.65,19.65,0,1,0,39.3,0h0A19.65,19.65,0,0,0,69,58.09Z"/><path class="cls-1" d="M144.83,67.05H97.41a2.6,2.6,0,0,1-2.61-2.6h0a2.61,2.61,0,0,1,2.61-2.61h47.42a2.61,2.61,0,0,1,2.6,2.61h0A2.6,2.6,0,0,1,144.83,67.05Z"/><path class="cls-1" d="M144.83,75.89H97.41a2.61,2.61,0,0,1-2.61-2.61h0a2.6,2.6,0,0,1,2.61-2.6h47.42a2.6,2.6,0,0,1,2.6,2.6h0A2.61,2.61,0,0,1,144.83,75.89Z"/><path class="cls-1" d="M144.83,85H97.41a2.6,2.6,0,0,1-2.61-2.6h0a2.61,2.61,0,0,1,2.61-2.61h47.42a2.61,2.61,0,0,1,2.6,2.61h0A2.6,2.6,0,0,1,144.83,85Z"/><path class="cls-1" d="M121,94H97.41a2.6,2.6,0,0,1-2.61-2.6h0a2.6,2.6,0,0,1,2.61-2.6H121a2.6,2.6,0,0,1,2.61,2.6h0A2.6,2.6,0,0,1,121,94Z"/><circle class="cls-1" cx="68.95" cy="77.74" r="19.65"/><g class="cls-24"><path class="cls-25" d="M59.56,74.67v2.46a5.8,5.8,0,0,1-4.23,4.44c-3.58.8-4.91,5,0,6.51,0,0-6.09,1.82-6,7.22s6,3.58,6,3.58-2.62,3.26,1.34,4.33,11-.06,12.49-3.8c0,0,0,2.78-1.21,3.9,0,0,4,.7,5.94-3.9,0,0,1,3,3.4,2.25s2.38-6.72.47-7.48c0,0,1.78-1.59.6-4.62s-1.63-1.7-1.63-1.7,2.4-.37,2-2.4-3.38-1.3-2.43-5.11c1.18-4.69,1.22-10.89-1.82-10.61C72.5,69.92,59.92,72.09,59.56,74.67Z"/><path class="cls-22" d="M64.56,80.34S60,83.5,61.91,86.11s6.27,2.83,6,3.74,8.22-1.39,8.22-1.39,2-1.6.73-3.26-2.49-1.5-2-4.38S64.56,80.34,64.56,80.34Z"/><path class="cls-14" d="M58.32,176.83a3.77,3.77,0,0,1-1.6,1.2c-.93.3-1.06,1.12-.72,1.29a3.05,3.05,0,0,0,3.23-.58c1.05-1.18.37-1.91.37-1.91Z"/><path class="cls-15" d="M77.93,115.53s.54,24.75.47,32.65-.57,28.65-.57,28.65-1.56.26-1.64,0-2-15.51-2-21.87c0-5.88.41-17.8-2.62-24.32a2.36,2.36,0,0,0-2.09-1.49h0c-1.22,0-2.09,1.17-2.42,2.65-1.24,5.73-3.64,19.17-3.81,22.73-.28,5.68-3.46,22.41-3.46,22.41H58.13s1.92-40.77,1.63-47.13,1.88-14.28,1.88-14.28Z"/><path class="cls-14" d="M77.69,176.83a3.77,3.77,0,0,0,1.6,1.2c.93.3,1.06,1.12.72,1.29a3.05,3.05,0,0,1-3.23-.58c-1-1.18-.37-1.91-.37-1.91Z"/><path class="cls-16" d="M61.55,116.27c.06-.47.09-.74.09-.74H77.93s.06.43.15,1.18C74.86,117.24,65.78,118.33,61.55,116.27Z"/><path class="cls-16" d="M63.38,116.78l-.16-.09.15-.24.15.11Z"/><path class="cls-16" d="M58.47,176.05h-.19l0-.56.19,0Zm.08-1.11h-.19l0-.55h.18Zm.08-1.1h-.18l0-.56.18,0Zm.08-1.1-.18,0,0-.55h.18Zm.08-1.11h-.18l0-.55h.18Zm.08-1.1h-.18l0-.56.18,0Zm.08-1.1-.19,0,0-.55H59Zm.08-1.11h-.19l0-.55h.18Zm.07-1.1h-.18l0-.56.18,0Zm.08-1.1-.18,0,0-.55h.18Zm.08-1.11h-.18l0-.55h.19Zm.07-1.1h-.18l0-.55h.18Zm.08-1.1-.18,0,0-.55.18,0Zm.08-1.11H59.3l0-.55h.18Zm.07-1.1h-.18l0-.55h.19Zm.07-1.1-.18,0,0-.55.18,0Zm.08-1.11h-.18l0-.55h.19Zm.07-1.1H59.6l0-.55h.19Zm.07-1.1h-.18l0-.56.18,0Zm.08-1.11h-.19l0-.55H60ZM60,154h-.19l0-.55H60Zm.07-1.1h-.19l0-.55h.18Zm.07-1.11H60l0-.55h.18Zm.07-1.1H60l0-.55h.18Zm.06-1.1-.18,0,0-.55.19,0Zm.07-1.11h-.18l0-.55h.18Zm.07-1.1h-.19l0-.55h.19Zm.06-1.1h-.18l0-.56h.18Zm.06-1.11h-.18l0-.55h.18Zm.07-1.1h-.19l0-.55h.19Zm.06-1.11h-.19l0-.56h.19Zm.06-1.1h-.19l0-.55h.18Zm.05-1.1h-.18l0-.56h.18Zm.06-1.11h-.19l0-.55h.18Zm.05-1.1H60.7l0-.55h.19Zm0-1.11h-.18l0-.55H61Zm0-1.1H60.8l0-.55H61Zm0-1.11h-.18l0-.55H61Zm0-1.1h-.18l0-.55h.18Zm0-1.11h-.19l0-.55h.18Zm0-1.11h-.18c0-.19,0-.37,0-.55h.18C61.13,131.52,61.13,131.7,61.12,131.89Zm0-1.1H61v-.55h.18ZM61,129.68v-.55h.18v.55Zm.18-1.1H61c0-.18,0-.37,0-.55h.19C61.15,128.21,61.15,128.39,61.14,128.58Zm0-1.11H61c0-.19,0-.38,0-.56h.19Zm0-1.1H61c0-.19,0-.37,0-.55h.18C61.25,126,61.24,126.19,61.22,126.37Zm.08-1.1h-.18c0-.19,0-.37.05-.55h.19Zm.11-1.09-.18,0c0-.18.05-.37.07-.54l.18,0C61.46,123.81,61.44,124,61.41,124.18Zm.15-1.1-.19,0,.09-.55.18,0C61.61,122.72,61.58,122.9,61.56,123.08Zm.17-1.08-.18,0c0-.18.07-.36.11-.54l.18,0C61.8,121.63,61.77,121.81,61.73,122Zm.22-1.08-.18,0c0-.19.09-.37.13-.54l.18,0C62,120.55,62,120.73,62,120.92Zm.26-1.07-.17,0c.05-.19.1-.36.15-.53l.17,0C62.31,119.49,62.26,119.66,62.21,119.85Zm.32-1-.17-.06c.06-.19.12-.36.18-.53l.17.07C62.65,118.44,62.59,118.61,62.53,118.8Zm.38-1-.17-.07c.08-.2.16-.37.23-.51l.16.08Z"/><polygon class="cls-16" points="58.41 176.83 58.22 176.82 58.24 176.55 58.43 176.56 58.41 176.83"/><path class="cls-16" d="M76.29,176.55l0-.55.18,0,0,.55Zm-.09-1.1,0-.55.18,0,0,.55Zm-.09-1.1,0-.55.18,0,0,.55Zm-.08-1.1,0-.55.19,0,0,.55Zm-.09-1.1,0-.55h.18l0,.54Zm-.08-1.1,0-.55H76l0,.55Zm-.09-1.1,0-.55h.19l0,.55Zm-.08-1.1,0-.54.19,0,0,.55Zm-.08-1.09,0-.55.19,0,0,.55Zm-.07-1.1,0-.55h.18l0,.54Zm-.08-1.1,0-.55h.19l0,.55Zm-.07-1.1,0-.55h.18l0,.55Zm-.07-1.1,0-.55h.18l0,.55Zm-.07-1.1,0-.55h.19l0,.55Zm-.07-1.1,0-.55h.18l0,.55Zm-.06-1.1,0-.55h.19l0,.55Zm-.06-1.1,0-.55h.18l0,.55Zm0-1.1,0-.55h.19c0,.17,0,.36,0,.55Zm0-1.1c0-.19,0-.37,0-.55h.18c0,.17,0,.36,0,.55Zm0-1.1c0-.2,0-.38,0-.55h.19v.55Zm.18-1.1H75c0-.17,0-.32,0-.46V154h.18v.09C75.14,154.24,75.13,154.39,75.13,154.56Zm0-1.1H75c0-.17,0-.35,0-.55h.18C75.18,153.1,75.18,153.28,75.17,153.46Zm0-1.1H75c0-.18,0-.37,0-.55h.18C75.21,152,75.2,152.18,75.2,152.36Zm0-1.1H75v-.55h.19C75.21,150.9,75.21,151.08,75.21,151.26Zm-.18-1.1v-.55h.18v.55Zm0-1.1v-.55h.18v.55Zm0-1.1v-.55h.18V148Zm0-1.1v-.55h.18l0,.55Zm0-1.1,0-.55h.19v.54Zm0-1.1,0-.55h.18l0,.55Zm0-1.1,0-.55H75l0,.55Zm-.06-1.1,0-.54H75l0,.55Zm-.06-1.09c0-.19,0-.37,0-.55h.18c0,.18,0,.36,0,.55Zm-.08-1.1c0-.18,0-.37,0-.55h.18c0,.18,0,.36,0,.55Zm-.08-1.1c0-.18,0-.36,0-.54l.18,0c0,.18,0,.36,0,.55Zm-.11-1.09c0-.18,0-.37,0-.55l.18,0,.06.55ZM74.36,137l-.06-.55.18,0c0,.18,0,.36.07.55Zm-.14-1.09c0-.19,0-.37-.08-.54l.18,0c0,.17.06.36.08.54ZM74,134.82c0-.19-.07-.37-.1-.54l.18,0c0,.17.07.35.1.54Zm-.23-1.07c0-.18-.1-.36-.15-.52l.17-.06c.06.17.11.35.16.53Zm-.33-1c-.06-.17-.13-.34-.2-.5l.16-.08a4.71,4.71,0,0,1,.21.52Zm-.45-1c-.08-.16-.18-.31-.27-.46l.15-.1a5.55,5.55,0,0,1,.29.48Zm-.59-.9c-.12-.14-.24-.28-.36-.4l.13-.13a5,5,0,0,1,.37.42Zm-.76-.76q-.23-.17-.45-.3l.09-.15a3.46,3.46,0,0,1,.47.31Zm-.93-.52a1.82,1.82,0,0,0-.51-.13v-.19a2.32,2.32,0,0,1,.56.14Z"/><path class="cls-26" d="M74,86.74a25.56,25.56,0,0,1,7.56,7.85c3.53,5.49,4.08,12.13,2.29,13.1s-8.8.31-8.8.31,1-.45.56-2.17c0,0,4.79,0,5.15-2.12s-1.29-4.53-3.46-7.09S74,86.74,74,86.74Z"/><path class="cls-26" d="M78.08,90.44s-.86,22.22.11,25a36.62,36.62,0,0,1-17,.65c.44-.15,0-15.31-1.7-19.59S58.55,92,58.55,92a18.67,18.67,0,0,1,7.68-5.51,11.07,11.07,0,0,1,3.66-1C74.31,85.38,78.08,90.44,78.08,90.44Z"/><path class="cls-27" d="M64,102.79h1.36a16,16,0,0,1-4,9.59c0-1.24-.09-2.7-.18-4.23Z"/><path class="cls-27" d="M77.73,108.14c0,.19,0,.37,0,.55-1.24-.3-3.95-.7-3.95-.7Z"/><path class="cls-26" d="M66.9,86.18s-5.19,1-9.64,6.75S53,112.49,55.43,113.38s6.52,1,9.27-9.95c0,0-1.61.46-1.48-1.59,0,0-3.84,9.08-5.13,8.08s.38-10.48,3.18-13.4S66.9,88.25,66.9,86.18Z"/><path class="cls-20" d="M64,103.68s1.68-.12,1.32-1.59a17.39,17.39,0,0,0-.61-2.09l.53-2.48A.53.53,0,0,0,65,97h0a.51.51,0,0,0-.62.06c-.7.64-2.38,2.34-2.25,3.81C62.32,102.68,62.24,103.94,64,103.68Z"/><path class="cls-21" d="M64.72,100l.84-.85a.39.39,0,0,1,.62.08h0a.36.36,0,0,1,0,.32l-.88,2.54S64.37,100.84,64.72,100Z"/><path class="cls-20" d="M76.14,107.26s0,.8-2.21.9a2.52,2.52,0,0,1-.69-.07c-1.92-.47-2.39-2.92-.44-2.75.56,0,2.19-.53,2.75,0A1.66,1.66,0,0,1,76.14,107.26Z"/><path class="cls-20" d="M72.68,82.66a8.35,8.35,0,0,0,.69,3.73,1,1,0,0,1-.23,1.29c-.49.42-1.14-.28-1.89-.27-1.27,0-2,1.63-3,1C67.43,88,66.86,86,66.86,86a11,11,0,0,0,.73-3.35Z"/><path class="cls-21" d="M73.06,85.64A6.27,6.27,0,0,1,67.58,83a1.36,1.36,0,0,0,0-.29h5.09A8.89,8.89,0,0,0,73.06,85.64Z"/><path class="cls-20" d="M62.91,75.59a8.33,8.33,0,0,0,8,8.09c4.06,0,5.16-3.75,5.16-8.11,0-7-1.72-6.92-5.78-6.92S62.91,71.23,62.91,75.59Z"/><path class="cls-20" d="M63,74.05a1.44,1.44,0,0,0-1.86,1c-.38,1.41,1.1,3.15,2.85,3.08S63,74.05,63,74.05Z"/><path class="cls-25" d="M59.66,77.81S57,75.53,58.59,70c1.71-5.91,9.35-4.6,9.35-4.6,4.6-2.46,10.32-2,9.73,2.72A7,7,0,0,1,72.61,74c1.14-1.44-.21-3.3-.21-3.3-1.2,4.66-6.33,4.46-6.33,4.46s2.13,5.57-3.37,7.76S62.33,80.21,59.66,77.81Z"/><path class="cls-1" d="M73.62,79.86a29.39,29.39,0,0,1-3,0s0,1.31,1.6,1.44A1.22,1.22,0,0,0,73.62,79.86Z"/><path class="cls-22" d="M73.37,76.58a.55.55,0,0,0,.55.55.55.55,0,0,0,0-1.1A.55.55,0,0,0,73.37,76.58Z"/><circle class="cls-22" cx="69.53" cy="76.64" r="0.55"/><path class="cls-21" d="M72.37,78.94a.23.23,0,0,1-.13-.42c.15-.1.35-.3.35-.43s0-.08-.1-.13a2,2,0,0,1-.61-1.55.24.24,0,0,1,.25-.22.23.23,0,0,1,.21.24s0,.84.42,1.15a.64.64,0,0,1,.29.52c0,.41-.46.74-.56.8A.17.17,0,0,1,72.37,78.94Z"/><rect class="cls-27" x="71.12" y="87.41" width="0.27" height="3.3"/><path class="cls-1" d="M73.37,86.39a2.72,2.72,0,0,1-.2,2.71s-.58-1.6-1.92-1.69A4.55,4.55,0,0,0,73.37,86.39Z"/><path class="cls-1" d="M66.86,86a3.28,3.28,0,0,0,2.44,3.35s.62-1.86,2-2C71.25,87.41,68,86.91,66.86,86Z"/><ellipse class="cls-1" cx="70.65" cy="88.76" rx="0.25" ry="0.25"/><ellipse class="cls-1" cx="70.65" cy="90.2" rx="0.25" ry="0.25"/></g></g></g></g></svg>