<svg xmlns="http://www.w3.org/2000/svg" xmlns:xlink="http://www.w3.org/1999/xlink" viewBox="0 0 226.77 173.85"><defs><style>.cls-1{fill:none;}.cls-2{isolation:isolate;}.cls-17,.cls-3{fill:#ffd371;}.cls-3{opacity:0.3;}.cls-4{opacity:0.8;}.cls-5{opacity:0.5;}.cls-6{fill:#ccd3e6;}.cls-7{fill:#eaeaea;mix-blend-mode:multiply;}.cls-8{fill:#fff;}.cls-9{fill:#575759;}.cls-10{fill:#363638;}.cls-11{fill:#fa5;}.cls-12{fill:#1b95f2;}.cls-13{fill:#cfdceb;}.cls-14{clip-path:url(#clip-path);}.cls-15{fill:#ff9c7d;}.cls-16{fill:#f36d66;}.cls-18{fill:#d6a138;}.cls-19{fill:#db7f2f;}.cls-20{fill:#75c189;}.cls-21{fill:#458254;}.cls-22{fill:#ffaf3c;}.cls-23{fill:#fb6260;}.cls-24{fill:#00b471;}.cls-25{fill:#007c56;}.cls-26{fill:#007af6;}.cls-27{fill:#0052c7;}.cls-28{fill:#cc1525;}</style><clipPath id="clip-path"><path class="cls-1" d="M105.8,65.61c-.36,1.13-.36,1.33-.36,1.13V34.54c0-.19,0-.16,0-23.48h72.4V65.61Z"/></clipPath></defs><g class="cls-2"><g id="Layer_2" data-name="Layer 2"><g id="Option_1" data-name="Option 1"><path class="cls-3" d="M128,161.3C66.54,168.63,37.37,152,37.37,152s-42.64-16-25.78-73C25,33.64,87.25-9.59,121.7,1.87s33.83,31.21,73,55,33.55,47.11,28.48,59.17C223.19,116.08,207.19,151.86,128,161.3Z"/><g class="cls-4"><g class="cls-5"><ellipse class="cls-6" cx="216.04" cy="46" rx="3.04" ry="3.28"/></g></g><ellipse class="cls-7" cx="143.13" cy="129.56" rx="71.35" ry="3.68"/><path class="cls-6" d="M191.45,119.25h-9.88v10.29h11.56v-8.61A1.68,1.68,0,0,0,191.45,119.25Z"/><rect class="cls-6" x="128.67" y="97.22" width="34.32" height="22.03"/><path class="cls-8" d="M104.84,119.25H179a10.28,10.28,0,0,1,10.28,10.28v0a0,0,0,0,1,0,0H94.55a0,0,0,0,1,0,0v0a10.28,10.28,0,0,1,10.28-10.28Z"/><rect class="cls-8" x="124.47" y="97.22" width="34.32" height="22.03"/><polygon class="cls-6" points="124.47 103.98 158.79 101.24 158.79 97.22 124.51 97.22 124.47 103.98"/><rect class="cls-6" x="63.99" y="1.65" width="155.71" height="95.58" rx="4.59"/><path class="cls-9" d="M219.7,6.23v80H205.53V1.65h9.59A4.58,4.58,0,0,1,219.7,6.23Z"/><path class="cls-8" d="M213.87,6.23V92.64a4.58,4.58,0,0,1-4.58,4.58H68.58A4.58,4.58,0,0,1,64,92.64V6.23a4.58,4.58,0,0,1,4.59-4.58H209.75l.18,0,.12,0h0l.11,0A4.59,4.59,0,0,1,213.87,6.23Z"/><path class="cls-10" d="M210.21,1.74l-.11,0h0l-.12,0-.18,0H68.58A4.58,4.58,0,0,0,64,6.23v80H213.87v-80A4.59,4.59,0,0,0,210.21,1.74Zm-2.28,76.52a1.24,1.24,0,0,1-1.25,1.24H71.18a1.23,1.23,0,0,1-1.24-1.24V8.84a1.24,1.24,0,0,1,1.24-1.25h135.5a1.25,1.25,0,0,1,1.25,1.25Z"/><rect class="cls-6" x="69.94" y="7.59" width="137.99" height="71.91" rx="1.25"/><path class="cls-8" d="M207.93,8.84v6.55h-138V8.84a1.24,1.24,0,0,1,1.24-1.25h135.5A1.25,1.25,0,0,1,207.93,8.84Z"/><path class="cls-11" d="M197.24,11.39a1.06,1.06,0,1,1-1.06-1.06A1.06,1.06,0,0,1,197.24,11.39Z"/><circle class="cls-12" cx="199.62" cy="11.39" r="1.06"/><rect class="cls-13" x="81.98" y="10.27" width="109.78" height="2.24" rx="0.99"/><path d="M74.92,11.39v1a.2.2,0,0,1-.29.17l-.9-.52-.89-.52a.19.19,0,0,1,0-.33l.89-.52.9-.52a.2.2,0,0,1,.29.17Z"/><path d="M76.5,11.39v1a.19.19,0,0,0,.28.17l.9-.52.9-.52a.19.19,0,0,0,0-.33l-.9-.52-.9-.52a.19.19,0,0,0-.28.17Z"/><rect class="cls-10" x="209.76" y="41.08" width="2.54" height="0.6" rx="0.27" transform="translate(32.55 161.34) rotate(-45)"/><rect class="cls-10" x="210.74" y="40.11" width="0.6" height="2.54" rx="0.27" transform="translate(32.55 161.34) rotate(-45)"/><rect class="cls-8" x="85.53" y="16.97" width="106.43" height="59.74" rx="2.61"/><path class="cls-6" d="M116.34,47.54H93a.65.65,0,0,1-.64-.65h0a.65.65,0,0,1,.64-.65h23.34a.65.65,0,0,1,.65.65h0A.65.65,0,0,1,116.34,47.54Z"/><path class="cls-6" d="M116.34,42.05H93a.65.65,0,0,1-.64-.65h0a.64.64,0,0,1,.64-.64h23.34a.65.65,0,0,1,.65.64h0A.65.65,0,0,1,116.34,42.05Z"/><path class="cls-6" d="M116.34,53H93a.65.65,0,0,1-.64-.65h0a.64.64,0,0,1,.64-.64h23.34a.65.65,0,0,1,.65.64h0A.65.65,0,0,1,116.34,53Z"/><path class="cls-6" d="M188,47.54H164.7a.65.65,0,0,1-.65-.65h0a.65.65,0,0,1,.65-.65H188a.65.65,0,0,1,.64.65h0A.65.65,0,0,1,188,47.54Z"/><path class="cls-6" d="M188,42.05H164.7a.65.65,0,0,1-.65-.65h0a.65.65,0,0,1,.65-.64H188a.64.64,0,0,1,.64.64h0A.65.65,0,0,1,188,42.05Z"/><path class="cls-6" d="M188,53H164.7a.65.65,0,0,1-.65-.65h0a.65.65,0,0,1,.65-.64H188a.64.64,0,0,1,.64.64h0A.65.65,0,0,1,188,53Z"/><path class="cls-10" d="M85.53,67.43H192v8.73a.55.55,0,0,1-.55.55H86.09a.56.56,0,0,1-.56-.55Z"/><path class="cls-8" d="M181.51,70.87v-.78h1v-.7h-1.33a.34.34,0,0,0-.35.35v1.13Z"/><path class="cls-8" d="M181.51,72.27h-.7v1.2a.35.35,0,0,0,.35.35h1.33v-.7h-1Z"/><path class="cls-8" d="M184.54,70.87h.7V69.74a.35.35,0,0,0-.35-.35h-1.28v.7h.93Z"/><path class="cls-8" d="M184.54,72.27v.85h-.93v.7h1.28a.35.35,0,0,0,.35-.35v-1.2Z"/><polygon class="cls-8" points="91.73 71.75 91.73 69.54 93.65 70.65 95.56 71.75 93.65 72.86 91.73 73.96 91.73 71.75"/><rect class="cls-8" x="101.5" y="69.76" width="1.19" height="4.02" rx="0.59"/><rect class="cls-8" x="103.98" y="69.76" width="1.19" height="4.02" rx="0.59"/><rect class="cls-6" x="85.53" y="65.69" width="106.43" height="1.74"/><rect class="cls-11" x="85.53" y="65.69" width="54.61" height="1.74"/><path class="cls-10" d="M174.94,58.9h1.2v2.63h1.61v.93h-2.81Z"/><path class="cls-10" d="M178.08,58.9h1.2v3.56h-1.2Z"/><path class="cls-10" d="M183.67,58.9l-1.51,3.56H181l-1.51-3.56h1.3l.85,2.08.87-2.08Z"/><path class="cls-10" d="M186.74,61.56v.9h-3V58.9h2.9v.91H185v.41h1.51v.87H185v.47Z"/><path class="cls-11" d="M173,60.65a1.47,1.47,0,1,1-2.93,0,1.47,1.47,0,0,1,2.93,0Z"/><path class="cls-10" d="M98.53,61.64c0,.82-.77,1.34-1.87,1.34s-1.88-.52-1.88-1.34a1.11,1.11,0,0,1,.56-1,1,1,0,0,1-.41-.82c0-.76.71-1.25,1.73-1.25s1.72.49,1.72,1.25a1,1,0,0,1-.41.82A1.11,1.11,0,0,1,98.53,61.64Zm-1.41,0a.46.46,0,0,0-.92,0,.46.46,0,0,0,.92,0Zm-.8-1.68a.34.34,0,0,0,.34.36.33.33,0,0,0,.33-.36.32.32,0,0,0-.33-.36A.33.33,0,0,0,96.32,59.92Z"/><path class="cls-10" d="M98.8,60.8c0-1.39.78-2.19,1.89-2.19a2.21,2.21,0,0,1,0,4.37C99.58,63,98.8,62.18,98.8,60.8Zm2.37,0c0-.81-.2-1.06-.48-1.06s-.48.25-.48,1.06.21,1.05.48,1.05S101.17,61.6,101.17,60.8Z"/><path class="cls-11" d="M92.33,59.62A1.29,1.29,0,1,1,91,58.33,1.29,1.29,0,0,1,92.33,59.62Z"/><path class="cls-11" d="M93.45,62.88H88.64A2.47,2.47,0,0,1,91,61.35h.08A2.49,2.49,0,0,1,93.45,62.88Z"/><g class="cls-14"><path class="cls-15" d="M117,41.35s-.45,2.7-2.44,3.19c-1.6.39-3.12-1.16-3.64-1.76a2.71,2.71,0,0,1-.19-.24h-.3c-.42,0-1.17-.09-1.46-.61-.41-.73,1.1-1.23,1.1-1.23s-.78-.7-.58-1.2,1.23-.6,1.23-.6-1.12-.73-.75-1.36c.57-.95,1.73.1,1.82.15-.07-.08-1.53-1.58-.73-1.85s1.83.54,2.58,1.31l.19.2.12-.09c.38-.25,1.53-.92,2.26-.31C117.07,37.7,117,41.35,117,41.35Z"/><path class="cls-16" d="M114.89,43a.18.18,0,0,1-.16,0,.16.16,0,0,1,0-.22,1.43,1.43,0,0,0,.24-1.18c-.26-1-1.62-1.72-1.63-1.72a.16.16,0,0,1,.14-.28,3.69,3.69,0,0,1,1.8,1.92A1.74,1.74,0,0,1,115,43,.15.15,0,0,1,114.89,43Z"/><path class="cls-16" d="M113.51,39.11a.49.49,0,0,1-.22.43.39.39,0,0,1-.11.06,1.06,1.06,0,0,1-.28.06.85.85,0,0,1,.2.17.41.41,0,0,1,.12.18.39.39,0,0,1-.07.4,2,2,0,0,1-1.31.53,1.59,1.59,0,0,1,.73.75.46.46,0,0,1-.06.48.94.94,0,0,1-.34.25,5.24,5.24,0,0,1-1.28.36,2.71,2.71,0,0,1-.19-.24h-.3a.11.11,0,0,1,.08,0,3.94,3.94,0,0,0,1.78-.54.18.18,0,0,0,0-.19,1.91,1.91,0,0,0-1.17-.82.15.15,0,0,1-.12-.17.16.16,0,0,1,.16-.14c.39,0,1.46-.06,1.75-.44,0-.06,0-.09,0-.1a.49.49,0,0,0-.23-.22,3.94,3.94,0,0,0-.94-.35l-.08,0a.18.18,0,0,1,0-.14.16.16,0,0,1,.19-.12l.31.09a3.59,3.59,0,0,0,.72,0,.54.54,0,0,0,.26-.07s.08-.06.08-.17a1,1,0,0,0-.17-.48.15.15,0,0,1,0-.17h0a.15.15,0,0,1,.25,0A1.26,1.26,0,0,1,113.51,39.11Z"/><path class="cls-10" d="M112.35,36.16a4.38,4.38,0,0,1,.74.54c.23.22.37.32.52.46s0,0,0,0l-3-12.88a.15.15,0,0,0-.3.06l2.08,11.82Z"/><path class="cls-10" d="M115,43.31c-1,.68-1.35.18-1.35.18l-.53-3a.1.1,0,0,0,0-.05.39.39,0,0,0,.07-.4.41.41,0,0,0-.12-.18.63.63,0,0,0-.12-.11v-.07l.21,0a.39.39,0,0,0,.11-.06.44.44,0,0,0,.19-.25.81.81,0,0,0,.47.21h.16Z"/><path class="cls-16" d="M115.91,38.59a5.64,5.64,0,0,1-1,.69,1.76,1.76,0,0,1-.92.22.78.78,0,0,1-.57-.32c-.5-.67-.07-1.55.23-2l.19.2.12-.09c-.26.38-.69,1.18-.28,1.72a.47.47,0,0,0,.35.2c.55.06,1.42-.59,1.71-.84a.16.16,0,0,1,.22,0A.17.17,0,0,1,115.91,38.59Z"/><path class="cls-17" d="M132.16,35.46h0v0l0,.09,0,.21c0,.07,0,.14-.05.21a1.42,1.42,0,0,1,0,.22c-.07.3-.14.6-.22.89q-.24.9-.54,1.8c-.2.59-.41,1.18-.65,1.75-.12.29-.24.57-.38.85s-.26.57-.39.85c-.27.55-.56,1.09-.88,1.61-.07.13-.15.26-.23.39s-.16.26-.25.39l-.5.75c-.34.49-.72,1-1.1,1.42s-.78.89-1.2,1.3l-.32.31-.33.3-.16.15,0,0,0,0,0,0,.12-.08a1.88,1.88,0,0,1,.59-.28l.14,0h.54s0,0-.18-.06a4.74,4.74,0,0,1-.53-.28c-.2-.12-.42-.26-.65-.42-.45-.32-.92-.7-1.39-1.11s-.95-.84-1.42-1.29-.94-.92-1.41-1.4-.93-1-1.39-1.47l-.69-.74-.66-.72-5.09,3.82.17.26.16.24.32.46c.22.31.43.62.66.92.44.6.9,1.2,1.38,1.78s1,1.17,1.49,1.74c.26.28.52.57.79.85s.55.56.84.84a23.75,23.75,0,0,0,1.88,1.64c.34.27.7.53,1.1.79a11.2,11.2,0,0,0,1.35.76,7.81,7.81,0,0,0,1.83.62l.14,0,.15,0,.3,0,.33,0h.7c.13,0,.26,0,.38,0l.19,0,.2,0,.4-.09a5.7,5.7,0,0,0,1.56-.73l.33-.25.08-.06.08-.06.05,0,.24-.21.46-.42c.16-.14.3-.29.45-.43a24.39,24.39,0,0,0,1.7-1.83c.52-.64,1-1.29,1.49-2s.89-1.38,1.3-2.09l.29-.53.27-.54a5.6,5.6,0,0,0,.27-.55l.26-.55A29.72,29.72,0,0,0,138,41c.2-.77.39-1.55.53-2.34.07-.4.13-.8.19-1.21,0-.1,0-.2,0-.31l0-.31,0-.32,0-.39Z"/><path class="cls-18" d="M116.16,44.14a.42.42,0,0,0,.47.4.44.44,0,1,0-.47-.4Z"/><path class="cls-18" d="M125.29,51.7a.19.19,0,0,0,.19-.15,14.25,14.25,0,0,0,.3-3.25.19.19,0,0,0-.19-.18.18.18,0,0,0-.18.19,14.18,14.18,0,0,1-.3,3.15.19.19,0,0,0,.14.23Z"/><path class="cls-18" d="M126.5,50.34l.08,0a.19.19,0,0,0,.08-.25,13,13,0,0,0-.92-1.63.18.18,0,0,0-.26,0,.19.19,0,0,0,0,.26,17.18,17.18,0,0,1,.88,1.56A.18.18,0,0,0,126.5,50.34Z"/><path class="cls-18" d="M114.81,47.79a.21.21,0,0,0,.13,0,49.56,49.56,0,0,1,5.16-4.21.2.2,0,0,0,0-.27.19.19,0,0,0-.26,0,54.13,54.13,0,0,0-5.21,4.25.19.19,0,0,0,.14.32Z"/><path class="cls-18" d="M116.33,46.41a.21.21,0,0,0,.12,0,.18.18,0,0,0,0-.26l-1.9-2.28a.18.18,0,0,0-.26,0,.19.19,0,0,0,0,.26l1.9,2.28A.21.21,0,0,0,116.33,46.41Z"/><path class="cls-10" d="M136.8,90.72l2.55-15,.2-1.23-7.32-2.58-.42-.15-1.74-.61s-.14.64-.36,1.74c0,.14-.05.28-.08.42a138,138,0,0,0-2.33,17.43Z"/><path class="cls-9" d="M135.5,90.72c1.1-6,2.52-14.74,2.6-15.25a.2.2,0,0,0-.16-.23.21.21,0,0,0-.23.17c0,.12-1.49,9.21-2.61,15.31Z"/><path class="cls-10" d="M151.62,66.33s.55,5.23-.64,8.14-16.59,1.42-20.51-1.2c-1.61-1.08,1.81-11,1.81-11Z"/><path class="cls-9" d="M129.63,73.29a5.2,5.2,0,0,0,.68-.17,4.71,4.71,0,0,0,1-.49,5.54,5.54,0,0,0,.91-.74,9.38,9.38,0,0,0,2.22-4.43.2.2,0,0,0-.16-.23.2.2,0,0,0-.23.16,9,9,0,0,1-2.25,4.35,4.77,4.77,0,0,1-.7.56,4.53,4.53,0,0,1-1,.46l-.43.11C129.69,73,129.66,73.15,129.63,73.29Z"/><path class="cls-9" d="M139.13,74.76a.21.21,0,0,0,.19.2h0a.21.21,0,0,0,.21-.19c0-.71.07-1.44.12-2.17l0-.39c.15-2.39.35-4.74.5-6.39q0-.21,0-.39c0-.36.07-.69.09-1l-.39-.06q0,.41-.09,1l0,.39c-.15,1.64-.35,4-.5,6.34l0,.4C139.21,73.26,139.17,74,139.13,74.76Z"/><path class="cls-9" d="M138.57,72.23a5.34,5.34,0,0,0,.69.27l.39.1a2.33,2.33,0,0,0,.38,0,1.32,1.32,0,0,0,.66-.1.81.81,0,0,0,.45-.6c.14-.74.44-3.78.65-5.94l0-.38c0-.35.06-.66.09-.93l-.39,0c0,.27-.06.59-.09.94,0,.12,0,.25,0,.38-.2,2.15-.5,5.19-.64,5.91a.42.42,0,0,1-.24.33,1.36,1.36,0,0,1-.83,0l-.39-.11a3.8,3.8,0,0,1-.55-.21.19.19,0,0,0-.26.09A.18.18,0,0,0,138.57,72.23Z"/><path class="cls-10" d="M149.71,90.72c.6-5.58,1.31-13,1.71-17.35l0-.4c.18-1.91.29-3.11.29-3.11-1-.39-2.66-.12-4.49.4l-.39.11A54.54,54.54,0,0,0,140.18,73V90.72Z"/><path class="cls-9" d="M148.77,90.72c.53-6.2,1.15-15.15,1.16-15.27a.19.19,0,0,0-.18-.21.2.2,0,0,0-.21.18c0,.12-.64,9.11-1.16,15.3Z"/><path class="cls-9" d="M145.77,67.46a9.81,9.81,0,0,0,1.09,2.91,6.32,6.32,0,0,0,2,2.26,4.74,4.74,0,0,0,2.53.74l0-.4a4.24,4.24,0,0,1-2.34-.68,5.77,5.77,0,0,1-1.85-2,10,10,0,0,1-1.1-2.87.21.21,0,0,0-.24-.16A.2.2,0,0,0,145.77,67.46Z"/><path class="cls-17" d="M129.93,66c4.26,4,14.34,6.1,22.11,2.31.85-2.33,1.79-10.64,2-13.12,0-.5.09-1,.13-1.49a65.83,65.83,0,0,0,0-7.3l0-.41c-.1-2.06-.25-4.21-.39-6.48-.29-4.51-1.79-7.28-4.4-7.7a10.19,10.19,0,0,1-2.88-.87l-.25-.12A7.66,7.66,0,0,1,145,30h-5.83a4.48,4.48,0,0,1-1.81,1.52l-.23.1c-2.07.9-4.48.72-5,3.21-.31,1.57.89,4.79.76,11.32,0,.48,0,1-.05,1.49s-.05,1-.09,1.5-.08,1-.13,1.48-.09.9-.15,1.37-.12,1-.19,1.48C131.86,56.19,130.82,62.51,129.93,66Z"/><path class="cls-18" d="M149.89,67.36h0a.18.18,0,0,1-.13-.22,85.28,85.28,0,0,0,2.58-24,.18.18,0,0,1,.16-.19.19.19,0,0,1,.19.17,85.83,85.83,0,0,1-2.59,24.15A.17.17,0,0,1,149.89,67.36Z"/><path class="cls-18" d="M132.34,52a.18.18,0,0,0,.18-.16c.39-3.43.39-10.26.39-10.33a.19.19,0,1,0-.37,0c0,.07,0,6.87-.39,10.28a.18.18,0,0,0,.16.21Z"/><path class="cls-18" d="M140.32,64.88a.44.44,0,0,0,.47.4.45.45,0,0,0,.4-.48.44.44,0,1,0-.87.08Z"/><path class="cls-19" d="M140.25,67a.44.44,0,1,0,.4-.47A.43.43,0,0,0,140.25,67Z"/><path class="cls-18" d="M135.12,43.63c-1.15-1.33-.72-4.29-.7-4.41a.18.18,0,0,1,.19-.16h3.88a.18.18,0,0,1,.18.16c0,.12.45,3.08-.69,4.41a1.82,1.82,0,0,1-1.43.63A1.79,1.79,0,0,1,135.12,43.63Zm-.35-4.2c-.07.63-.26,2.92.63,4a1.54,1.54,0,0,0,2.29,0c.89-1,.7-3.32.63-4Z"/><path class="cls-10" d="M145.47,15.64c-1.08-.7-4.5-1.06-4.5-1.06a5.09,5.09,0,0,0-1.2-1.9c-1.44-1-1.62,1-1.62,1s-1.4-2-2.67-1.41.35,2.39.35,2.39-1.9-.35-1.69,1.27a3.32,3.32,0,0,0,2,2.32,3.59,3.59,0,0,0-.28,2.4c.28,1.47.92,1.54.92,1.54l7.88.71a2.24,2.24,0,0,0,2-2,2.66,2.66,0,0,0-1-2.89S146.67,16.41,145.47,15.64Z"/><path class="cls-15" d="M139,29v1.48a5.66,5.66,0,0,0,.53.37c2.57,1.54,5.34-.37,5.34-.37V25.36l-5.17,3.22Z"/><path class="cls-10" d="M139,29v1.52a5.66,5.66,0,0,0,.53.37,9.88,9.88,0,0,0,3.78-3.16l-3.61.88Z"/><path class="cls-17" d="M144.89,29a2.94,2.94,0,0,1,2.21,2.27c-1.69,1.76-3.18,3.29-5.59,3.74V31.46A6.27,6.27,0,0,0,144.89,29Z"/><path class="cls-17" d="M139,29.5a3.18,3.18,0,0,0-2.15,2.31c1.56,1.9,2.39,2.61,4.68,3.19V31.46S140.23,31.44,139,29.5Z"/><polygon class="cls-10" points="138.11 57.04 139.11 59.46 139.11 59.46 139.56 60.54 140.83 63.61 141.45 62.43 141.66 62.01 142.16 61.06 142.37 60.64 142.87 59.69 143.08 59.27 143.58 58.32 143.58 58.32 143.79 57.9 144.26 57 144.25 56.91 144.17 56.2 144.01 54.59 143.94 53.88 143.78 52.27 143.7 51.56 143.54 49.96 143.47 49.25 143.3 47.64 143.23 46.93 143.07 45.33 143 44.62 142.83 43.01 142.76 42.3 142.6 40.69 142.52 39.98 142.36 38.38 142.29 37.67 142.12 36.01 140.89 35.96 140.85 36.24 140.78 36.8 140.61 38.07 140.54 38.64 140.37 39.91 140.29 40.47 140.13 41.75 140.05 42.31 139.88 43.59 139.81 44.15 139.64 45.42 139.57 45.99 139.4 47.26 139.32 47.83 139.16 49.1 139.08 49.66 138.91 50.94 138.84 51.5 138.67 52.78 138.6 53.34 138.43 54.61 138.35 55.18 138.19 56.45 138.11 57.02 138.11 57.04"/><polygon class="cls-9" points="140.78 36.8 142.36 38.38 142.29 37.67 140.85 36.24 140.78 36.8"/><polygon class="cls-9" points="140.54 38.64 142.6 40.69 142.52 39.98 140.61 38.07 140.54 38.64"/><polygon class="cls-9" points="140.29 40.47 142.83 43.01 142.76 42.3 140.37 39.91 140.29 40.47"/><polygon class="cls-9" points="140.05 42.31 143.07 45.33 143 44.62 140.13 41.75 140.05 42.31"/><polygon class="cls-9" points="139.81 44.15 143.3 47.64 143.23 46.93 139.88 43.59 139.81 44.15"/><polygon class="cls-9" points="139.57 45.99 143.54 49.96 143.47 49.25 139.64 45.42 139.57 45.99"/><polygon class="cls-9" points="139.32 47.83 143.78 52.27 143.7 51.56 139.4 47.26 139.32 47.83"/><polygon class="cls-9" points="139.08 49.66 144.01 54.59 143.94 53.88 139.16 49.1 139.08 49.66"/><polygon class="cls-9" points="138.84 51.5 144.25 56.91 144.17 56.2 138.91 50.94 138.84 51.5"/><polygon class="cls-9" points="138.6 53.34 143.58 58.32 143.79 57.9 138.67 52.78 138.6 53.34"/><polygon class="cls-9" points="138.35 55.18 142.87 59.69 143.08 59.27 138.43 54.61 138.35 55.18"/><polygon class="cls-9" points="138.11 57.02 142.16 61.06 142.37 60.64 138.19 56.45 138.11 57.02"/><polygon class="cls-9" points="139.11 59.46 139.56 60.54 141.45 62.43 141.66 62.01 139.11 59.46"/><polygon class="cls-9" points="142.12 36.01 141.51 36.92 140.89 35.96 140.78 36.78 141.5 37.5 142.18 36.64 142.12 36.01"/><polygon class="cls-10" points="143.15 34.48 141.51 36.92 139.94 34.48 141.51 32.45 143.15 34.48"/><path class="cls-18" d="M144.1,36.15a.21.21,0,0,0,.11,0c1.63-1.3,3-4.64,3.06-4.78a.17.17,0,0,0-.1-.24.18.18,0,0,0-.24.1,15.73,15.73,0,0,1-2.8,4.5l-2.47-3.35a.18.18,0,0,0-.3,0l-2.3,3.27c-.35-.64-1.28-2.32-2.05-3.88a.2.2,0,0,0-.26-.09.19.19,0,0,0-.08.25c1,2,2.19,4.14,2.2,4.16a.21.21,0,0,0,.16.1.21.21,0,0,0,.16-.08l2.33-3.3,2.43,3.3a.2.2,0,0,0,.12.08Z"/><path class="cls-19" d="M141.51,32.64a.19.19,0,0,0,.19-.19v-.84a.19.19,0,0,0-.19-.19.2.2,0,0,0-.19.19v.84A.2.2,0,0,0,141.51,32.64Z"/><path class="cls-16" d="M137.18,22.45s-.84-1-1.31,0-.11,3,1.17,2.67Z"/><path class="cls-15" d="M136.29,25.93A3,3,0,0,0,139.47,29a7.89,7.89,0,0,0,5.43-2.61h0l0-.64.18-3.34.1-1.79s.4-3.21-2.65-3.8c-2.24-.43-4.33-.06-5.39,1.11l-.09.11a2.73,2.73,0,0,0-.61,1.5l-.09,3.21,0,.78Z"/><path class="cls-10" d="M139.94,20.44s1.34,1,2.14.36-1.06-1.33-1.67-1.28S139.55,20.21,139.94,20.44Z"/><path class="cls-10" d="M138.49,20.44s-1.34,1-2.13.36,1.06-1.33,1.66-1.28S138.89,20.21,138.49,20.44Z"/><path class="cls-16" d="M139.54,26.33a1.29,1.29,0,0,0,.91-.29.14.14,0,1,0-.18-.21,1,1,0,0,1-1,.15.15.15,0,0,0-.19.07.14.14,0,0,0,.08.19A1.27,1.27,0,0,0,139.54,26.33Z"/><path class="cls-8" d="M140.92,24.15a14.26,14.26,0,0,1-2.92.3,1.48,1.48,0,0,0,2.92-.3Z"/><path class="cls-10" d="M137.09,18c.5-.18.86,0,1.63.33a4.13,4.13,0,0,0,3.5-.52c1.11-.57,1.78.22,1.4.74s-.34.94.08,1.6-.79,1-.12,1.49a.69.69,0,0,1,.15.85.47.47,0,0,0,.52.61h0c.36-.09.87-.73.87-.73l.1-1.79s.4-3.21-2.65-3.8c-2.24-.43-4.33-.06-5.39,1.11Z"/><path class="cls-16" d="M140.54,23.13c0,.22.46.4,1,.4s1-.18,1-.4-.46-.4-1-.4S140.54,22.91,140.54,23.13Z"/><path class="cls-16" d="M136.36,23.52h.25c.56,0,1-.18,1-.4s-.46-.4-1-.4h-.22Z"/><path class="cls-10" d="M140.1,21.9c0,.31.13.56.31.56s.31-.25.31-.56-.14-.55-.31-.55S140.1,21.6,140.1,21.9Z"/><path class="cls-10" d="M137,21.9c0,.31.14.56.31.56s.31-.25.31-.56-.14-.55-.31-.55S137,21.6,137,21.9Z"/><path class="cls-10" d="M143.9,25.14a2.84,2.84,0,0,0,1,1.24h0l0-.64A2.27,2.27,0,0,1,143.9,25.14Z"/><path class="cls-15" d="M144.47,23s1.22-1.64,2.12-.35c.74,1.07-.66,3.84-2.12,2.89Z"/><path class="cls-10" d="M144.63,25.05a.12.12,0,0,0,.13-.11A2.08,2.08,0,0,1,146,23.25a.12.12,0,0,0,.07-.17.14.14,0,0,0-.16-.07,2.37,2.37,0,0,0-1.38,1.91.12.12,0,0,0,.11.13Z"/><path class="cls-10" d="M145.81,24.29a.12.12,0,0,0,.1-.05.12.12,0,0,0,0-.17,1.2,1.2,0,0,0-.88-.3.12.12,0,0,0-.09.15.11.11,0,0,0,.15.09,1,1,0,0,1,.66.25A.11.11,0,0,0,145.81,24.29Z"/><path class="cls-10" d="M139.1,23.44a.12.12,0,0,0,.13-.12.13.13,0,0,0-.13-.13.85.85,0,0,1-.75-.35c.5-1,1-2.08,1-2.09a.13.13,0,0,0-.06-.17.13.13,0,0,0-.17.06s-.52,1.1-1,2.15a.2.2,0,0,0,0,.11A1.08,1.08,0,0,0,139.1,23.44Z"/><path class="cls-15" d="M169.57,34.8s1.7,1.71,3.38,1c1.35-.54,1.65-2.42,1.71-3.12a2.57,2.57,0,0,0,0-.27,2,2,0,0,0,.22-.15c.3-.21.79-.65.73-1.17-.07-.74-1.41-.33-1.41-.33s.2-.89-.2-1.15-1.19.19-1.19.19.44-1.09-.16-1.35c-.89-.4-1.18.94-1.22,1,0-.09.43-4.21-.27-4s-1.19,3.63-1.33,4.56c0,.15,0,.24,0,.24a.45.45,0,0,0-.13,0c-.4,0-1.57.11-1.78.93C167.64,32.23,169.57,34.8,169.57,34.8Z"/><path class="cls-16" d="M173,31.89a1.45,1.45,0,0,0-.14.91.4.4,0,0,0,.29.31.9.9,0,0,0,.37,0,4.62,4.62,0,0,0,1.1-.4,2.57,2.57,0,0,0,0-.27,2,2,0,0,0,.22-.15l-.08,0a3.35,3.35,0,0,1-1.55.53.16.16,0,0,1-.1-.13,1.62,1.62,0,0,1,.41-1.18.14.14,0,0,0-.18-.21c-.28.21-1.08.71-1.48.58-.06,0-.07,0-.07-.06a.41.41,0,0,1,.06-.28,3.46,3.46,0,0,1,.49-.73.11.11,0,0,0,0-.07.13.13,0,0,0,0-.12.14.14,0,0,0-.2,0,3.77,3.77,0,0,0-.5.72,1.32,1.32,0,0,0-.12.35.44.44,0,0,0,0,.2.38.38,0,0,0,.25.25A1.79,1.79,0,0,0,173,31.89Z"/><path class="cls-16" d="M170.92,30.72a.14.14,0,0,1,.1.11.85.85,0,0,0,.12.44.16.16,0,0,0,.14.08.76.76,0,0,0,.23-.09,3.88,3.88,0,0,0,.75-.62.2.2,0,0,1,0,.08,3.88,3.88,0,0,0-.49.73l-.08.05a1.12,1.12,0,0,1-.26.11h-.1a.41.41,0,0,1-.37-.19,1.1,1.1,0,0,1-.18-.57.14.14,0,0,1,.17-.15Z"/><path class="cls-16" d="M168.93,32.27a4.15,4.15,0,0,0,1.1,0,1.53,1.53,0,0,0,.76-.31.7.7,0,0,0,.25-.52c0-.74-.74-1.15-1.19-1.33,0,.15,0,.24,0,.24a.45.45,0,0,0-.13,0c.38.14,1.09.49,1.08,1.08a.39.39,0,0,1-.15.32A2.74,2.74,0,0,1,169,32a.14.14,0,0,0-.16.12A.14.14,0,0,0,168.93,32.27Z"/><path class="cls-16" d="M171.91,34.93a.14.14,0,0,0,.11-.09.14.14,0,0,0-.08-.18,1.26,1.26,0,0,1-.78-.73,3.07,3.07,0,0,1,.29-2.06.14.14,0,0,0-.06-.19.13.13,0,0,0-.18.06A3.27,3.27,0,0,0,170.9,34a1.51,1.51,0,0,0,.94.89Z"/><path class="cls-17" d="M151.28,32.8l2.89,2.51c.47.44.93.87,1.4,1.29L157,37.88l1.4,1.24c.47.41.93.81,1.39,1.19s.92.76,1.35,1.08l.59.42.12.07,0,0h0l0,0,0,0a.2.2,0,0,0,.14,0,2.15,2.15,0,0,0,.81-.31,7.59,7.59,0,0,0,1.12-.84,13.79,13.79,0,0,0,1.14-1.15A28.07,28.07,0,0,0,167.31,37c.69-1,1.18-1.76,1.8-2.82a4.64,4.64,0,0,0,4.22,1.62,39,39,0,0,1-1.63,3.77,29.24,29.24,0,0,1-2.15,3.65,17.22,17.22,0,0,1-1.4,1.77,12.36,12.36,0,0,1-1.81,1.7,10.45,10.45,0,0,1-1.18.77,7.54,7.54,0,0,1-1.47.61,6.76,6.76,0,0,1-1.77.28,6.26,6.26,0,0,1-1.88-.24,6.41,6.41,0,0,1-.87-.31l-.2-.09-.17-.08-.16-.08-.15-.08c-.39-.21-.73-.42-1.05-.62-.64-.41-1.21-.81-1.78-1.22s-1.09-.82-1.62-1.24-1-.83-1.57-1.25L151,41.81l-1.49-1.3L148,39.19l-.72-.68-.36-.34c-.13-.11-.24-.22-.37-.35Z"/><path class="cls-18" d="M154,44.69a.19.19,0,0,1-.1,0c-1.91-1.34-5.31-4.17-5.35-4.19a.19.19,0,0,1,0-.25.17.17,0,0,1,.24,0s3.43,2.84,5.33,4.17a.18.18,0,0,1,.05.24A.19.19,0,0,1,154,44.69Z"/><path class="cls-18" d="M150.08,41.64h0l-1.35-.19a.18.18,0,0,1-.15-.2.18.18,0,0,1,.2-.15l1.35.2a.18.18,0,0,1,.15.2A.19.19,0,0,1,150.08,41.64Z"/><path class="cls-18" d="M172.39,37.92a.16.16,0,0,0,.09-.19.17.17,0,0,0-.21-.14,3.61,3.61,0,0,1-3.81-1.89.19.19,0,0,0-.24-.08h0a.17.17,0,0,0-.08.24,4,4,0,0,0,4.21,2.08Z"/><path class="cls-18" d="M171.09,38a.24.24,0,0,0,.08-.09l.83-2a.17.17,0,0,0-.09-.23.17.17,0,0,0-.23.09l-.84,2a.18.18,0,0,0,.09.24A.22.22,0,0,0,171.09,38Z"/><path class="cls-18" d="M169.59,36.09a.32.32,0,0,0,.42.14.31.31,0,1,0-.29-.55A.3.3,0,0,0,169.59,36.09Z"/><path class="cls-18" d="M161.53,44.2a.17.17,0,0,0,.1-.13,7.67,7.67,0,0,1,.52-1.77.18.18,0,0,0-.08-.24.18.18,0,0,0-.24.08,7.36,7.36,0,0,0-.55,1.87.18.18,0,0,0,.14.21A.14.14,0,0,0,161.53,44.2Z"/><path class="cls-18" d="M162.69,43.8l0,0a.17.17,0,0,0,0-.25,3.25,3.25,0,0,1-.61-1.19.19.19,0,0,0-.21-.14.18.18,0,0,0-.14.21,3.54,3.54,0,0,0,.69,1.35A.19.19,0,0,0,162.69,43.8Z"/></g><ellipse class="cls-7" cx="64.95" cy="169.9" rx="64.95" ry="3.95"/><path class="cls-15" d="M60.9,59.89l6.56,24-2.34-2.7a11.88,11.88,0,0,0,3,1.07,22,22,0,0,0,3.58.45c1.26.07,2.58.06,3.93,0s2.73-.15,4.13-.27h0a3.74,3.74,0,0,1,.91,7.43c-1.44.23-2.91.45-4.41.63s-3,.3-4.65.34a30.2,30.2,0,0,1-5-.28,20.11,20.11,0,0,1-5.21-1.44,4,4,0,0,1-2.25-2.44l-.09-.25L51.21,62.83a5.06,5.06,0,1,1,9.6-3.21C60.84,59.71,60.87,59.81,60.9,59.89Z"/><path class="cls-6" d="M63.42,146.85a.74.74,0,0,1-.29,0L28.76,134.41a.87.87,0,0,1,.59-1.63l34.37,12.39a.87.87,0,0,1-.3,1.68Z"/><path class="cls-6" d="M27.63,146.85a.87.87,0,0,1-.3-1.68l34.78-12.59a.87.87,0,0,1,.59,1.63L27.92,146.8A.77.77,0,0,1,27.63,146.85Z"/><path class="cls-6" d="M66.48,169A1.49,1.49,0,0,1,65,167.71L58.8,121.36h-26l-6.11,46.35a1.49,1.49,0,0,1-2.95-.39l6.28-47.64a1.49,1.49,0,0,1,1.48-1.29H60.1a1.49,1.49,0,0,1,1.47,1.29L68,167.32A1.48,1.48,0,0,1,66.68,169Z"/><path class="cls-6" d="M51.82,119.88H33.27c-5.88,0-12.18-3.22-13.08-9A109.81,109.81,0,0,1,19,88.65,27,27,0,0,1,29.27,68.74h0s3.7,16.15-1,38.45C30.09,115.66,51.82,119.88,51.82,119.88Z"/><path class="cls-10" d="M48,25.12a7.41,7.41,0,0,0-8.05-4.31c-4.08.7-5.82,5.78-5.58,13.64.35,11.43-3.52,18.31-3.52,18.31l5.13,1.17S49,34.34,48,25.12Z"/><path class="cls-10" d="M94.76,149.14H86.47s-1.92-9.21-2.56-14.36-1-17.4-1-17.4-6.61,2.15-20.43,1.34c-30.64-1.79-19-24.3-19-24.3,1,1.43,7.37.44,11.71,1.12C68.49,96.82,80,102,87,105a34.71,34.71,0,0,1,4.45,2.28c1.67,1,2.71,4.15,3.34,8.25C96.63,127.9,94.76,149.14,94.76,149.14Z"/><path class="cls-9" d="M87.5,144.7a.3.3,0,0,1-.29-.24c-1.2-5.91-1.6-13.28-1.92-19.2-.27-4.91-.52-9.55-1.15-10.1s-2.63-.1-5.32.34c-5.34.89-13.41,2.23-22.31.16-4.84-1.13-8.41-3.48-10.59-7-3.76-6.06-2.05-13.58-2-13.66a.31.31,0,0,1,.36-.22.3.3,0,0,1,.22.36c0,.07-1.67,7.36,2,13.21,2.09,3.38,5.53,5.64,10.22,6.73,8.78,2,16.78.72,22.08-.16,3.17-.53,5.08-.85,5.8-.21s1,4.08,1.35,10.52c.32,5.9.72,13.24,1.91,19.12a.3.3,0,0,1-.23.35Z"/><path class="cls-9" d="M94.92,144.86h0l-9.22-.2a.3.3,0,0,1-.29-.3.29.29,0,0,1,.31-.29l9.21.19a.31.31,0,0,1,.3.31A.31.31,0,0,1,94.92,144.86Z"/><polygon class="cls-15" points="94.53 159.76 88.68 159.76 87.55 152.89 86.94 149.14 94.21 149.14 94.32 152.89 94.53 159.76"/><polygon class="cls-17" points="94.53 159.76 88.68 159.76 87.84 154.65 87.55 152.89 94.32 152.89 94.38 154.71 94.53 159.76"/><polygon class="cls-18" points="94.38 154.71 87.84 154.65 87.55 152.89 94.32 152.89 94.38 154.71"/><path class="cls-20" d="M109,169H86.84a3.27,3.27,0,0,1-.29-1.23A36.24,36.24,0,0,1,87.3,161c0-.22.07-.42.09-.61a6.59,6.59,0,0,0,.07-.77,1.13,1.13,0,0,1,1.36-1.27c2.24,2.2,4.77-1.1,6.25,0l.2.15.57.47c.38.32.91.78,1.63,1.42,1.75,1.58,4.74,2.63,7.29,3.69.32.13.62.27.9.4l.6.31c2.08,1.12,2.74,2.2,2.89,3A1.7,1.7,0,0,1,109,169Z"/><path class="cls-21" d="M106.26,164.79a5.6,5.6,0,0,1-2.85,1.36h-.14a28,28,0,0,1-5.5-2.54c-1.23-.67-2.35-1.34-3.16-1.87-1.32-.87-1.55-1.21-1.6-1.44-.2-.87,1.25-1.48,2.26-1.8l.57.47c-1.25.35-2.29.88-2.24,1.19s1.43,1.26,4.57,3a27.91,27.91,0,0,0,5.15,2.41,4.44,4.44,0,0,0,2.34-1.06Z"/><path class="cls-21" d="M109,169H86.84a3.27,3.27,0,0,1-.29-1.23h22.6A1.7,1.7,0,0,1,109,169Z"/><path class="cls-21" d="M89.1,169h-.66a4.85,4.85,0,0,0,1.19-3.55A6.28,6.28,0,0,0,87.3,161c0-.22.07-.42.09-.61a6.8,6.8,0,0,1,2.77,5A5.41,5.41,0,0,1,89.1,169Z"/><path class="cls-8" d="M97.09,161.7A.37.37,0,0,1,97,161l1.39-.35a.38.38,0,0,1,.44.27.36.36,0,0,1-.27.44l-1.38.35Z"/><path class="cls-8" d="M95.72,160.55a.38.38,0,0,1-.36-.28.37.37,0,0,1,.27-.44l1.38-.35a.37.37,0,0,1,.18.71l-1.38.34Z"/><path class="cls-8" d="M98.47,162.5a.37.37,0,0,1-.08-.72l1.38-.34a.37.37,0,0,1,.44.26.37.37,0,0,1-.27.45l-1.38.34Z"/><path class="cls-8" d="M99.86,163.27a.36.36,0,0,1-.09-.72l1.38-.34a.36.36,0,0,1,.44.27.37.37,0,0,1-.26.44l-1.39.34Z"/><path class="cls-8" d="M101.36,164a.37.37,0,0,1-.08-.72l1.38-.34a.37.37,0,0,1,.44.26.36.36,0,0,1-.27.44l-1.38.35Z"/><path class="cls-8" d="M103,164.6a.37.37,0,0,1-.09-.72l1.38-.35a.37.37,0,0,1,.18.71l-1.38.35Z"/><path class="cls-21" d="M28.13,87.29s-.26,1.78,2.13,2.29l25,.83a2.81,2.81,0,0,0,1.38-2.94S46.07,81.55,28.13,87.29Z"/><path class="cls-15" d="M55.57,95.54c-13,7.13-27.11,1.39-27.11,1.39A39.4,39.4,0,0,0,30,91c.43-2.25.67-4.24.78-5.29,5.52-.3,19-.87,24.32.38l0,2.12Z"/><path class="cls-16" d="M46,92.12c-.1.67-.4,1.18-.67,1.14S44.9,92.65,45,92s.4-1.18.67-1.14S46.1,91.46,46,92.12Z"/><g class="cls-5"><path class="cls-20" d="M55.19,88.18C49.67,87.85,38.81,87.73,30,91c.43-2.25.67-4.24.78-5.29,5.52-.3,19-.87,24.32.38Z"/></g><path class="cls-20" d="M61.34,77.93a3,3,0,0,1-.18.45l-.09.16a12.22,12.22,0,0,1-2.66,3.2l-.54.45c-.33.27-.61.47-.81.61l-.28.2v0q0,.13,0,.3c0,.41-.06.89-.08,1.45s0,.93,0,1.46,0,.79,0,1.22c-7.32-3.27-22.4-1.21-28.48-.19.11-.52.21-1,.31-1.54a46.63,46.63,0,0,0,.76-6.27,65.44,65.44,0,0,0-.69-11.28c0-.28-.07-.56-.11-.84l-.09-.54c-.2-1.36-.44-2.72-.72-4C26.39,57,27.23,51,33.06,50.28l1.24-.14c2.75-.29,5-.39,5.64-.42h.17L51.37,53l1.08.31c.61.2,1.18.39,1.71.58l.65.24c.55.2,1,.4,1.49.6a12.55,12.55,0,0,1,2.18,1.19c2.47,1.75,2.09,3.73,2,7.65v0a.76.76,0,0,0,0,.15v.55c0,.5,0,1,0,1.51.05.74.11,1.47.19,2.19,0,.29.07.58.1.86s.07.54.1.8C61.4,73.1,62,76.1,61.34,77.93Z"/><path class="cls-21" d="M51.37,53c-.63,1-1.93,2.09-4.57,1.9-3.63-.27-6-3.74-6.86-5.17h.17Z"/><path class="cls-8" d="M47.51,59.43a1.65,1.65,0,0,0,.32,0,2.8,2.8,0,0,0,2.42-.86c1.75-1.91,1-6.27,1-6.45a.28.28,0,0,0-.31-.23.27.27,0,0,0-.22.32s.7,4.28-.87,6a2.28,2.28,0,0,1-2,.7c-3.52-.29-7.47-9.24-7.51-9.33a.27.27,0,0,0-.36-.14.28.28,0,0,0-.14.36C40,50.2,43.77,58.67,47.51,59.43Z"/><path class="cls-15" d="M58.48,55.91a19.75,19.75,0,0,0,2.07,9.91c0-.66,0-1.32,0-2v-.07c0-.07,0-.13,0-.2C60.57,59.65,61,57.66,58.48,55.91Z"/><path class="cls-15" d="M37.76,60.46c-1.29,5-6,9-9.25,7.73,0-.28-.07-.55-.11-.84l-.09-.54c-.2-1.36-.45-2.72-.72-4C26.39,57,27.23,51,33.06,50.28l1.24-.14C37.22,51.39,39.25,54.71,37.76,60.46Z"/><path class="cls-15" d="M38.43,56.65,46,84.34l-2.7-3.11a13.53,13.53,0,0,0,3.44,1.22,24.13,24.13,0,0,0,4.13.53c1.46.08,3,.07,4.54,0s3.15-.18,4.76-.32h0a4.33,4.33,0,0,1,1,8.59c-1.66.26-3.36.51-5.09.71s-3.52.35-5.37.4A34,34,0,0,1,45.05,92a23.68,23.68,0,0,1-6-1.66,4.75,4.75,0,0,1-2.6-2.82l-.09-.29L27.25,60a5.84,5.84,0,0,1,11.09-3.69C38.37,56.44,38.4,56.56,38.43,56.65Z"/><path class="cls-16" d="M41.82,83.45a.22.22,0,0,1-.11-.42,9.51,9.51,0,0,1,3.45-1.11.23.23,0,0,1,0,.45,9.18,9.18,0,0,0-3.27,1Z"/><path class="cls-16" d="M44.57,82.45a.27.27,0,0,1-.12,0,6,6,0,0,0-2.32-.73.23.23,0,1,1,0-.45,6.39,6.39,0,0,1,2.52.8.22.22,0,0,1,.08.3A.23.23,0,0,1,44.57,82.45Z"/><path class="cls-10" d="M46.05,46.06a9.38,9.38,0,0,1-6.89-6.44c-1.44-5.17-.33-7.85,1.17-10.64a9,9,0,0,1,9.74-3.92c5.08,1,8.88,3.63,9.44,7.81C60.56,40.68,54.25,50.21,46.05,46.06Z"/><path class="cls-20" d="M39.41,40.45a.28.28,0,0,1-.24-.14,12.15,12.15,0,0,1-.48-9.59,8.78,8.78,0,0,1,5.22-5.51,9.51,9.51,0,0,1,3.51-.65.28.28,0,0,1,.27.3.28.28,0,0,1-.29.26h0a9.14,9.14,0,0,0-3.31.62,8.14,8.14,0,0,0-4.87,5.17A11.85,11.85,0,0,0,39.66,40a.28.28,0,0,1-.11.38A.32.32,0,0,1,39.41,40.45Z"/><path class="cls-16" d="M56.48,40.54s1.75-1.38,2.21.45-.84,5.08-2.87,4.09Z"/><path class="cls-22" d="M54.77,43.9a2.77,2.77,0,0,0-1.83,2A2.63,2.63,0,1,0,57,44.27a2.48,2.48,0,0,0-1-.41h0a.43.43,0,0,0,.07.43,2.36,2.36,0,0,1,.78.38A2.22,2.22,0,1,1,53.34,46,2.17,2.17,0,0,1,55,44.31Z"/><path class="cls-15" d="M51.18,48.38,50.45,53s-3.43,3.5-9.7-2.78c1.68-1.25,2.33-4.15,2.13-6a9.45,9.45,0,0,1,1.25,1,4.45,4.45,0,0,0,.53.36A16.48,16.48,0,0,0,51.18,48.38Z"/><path class="cls-10" d="M51.18,48.38l-.35,2.17c-1.88-.83-5.2-2.62-6.7-5.41l.53.36A16.48,16.48,0,0,0,51.18,48.38Z"/><path class="cls-15" d="M58.17,39.44c-.09.48-.19.94-.28,1.38s-.19.93-.28,1.35c-.7,3.17-1.27,4.87-2.19,5.5-4.68,3.22-12.29-3.29-12.53-3.5h0q0-.55,0-1.11a28.47,28.47,0,0,1,1.42-8.41,6.44,6.44,0,0,1,5.38-5.46c2.9-.44,5.07,1.24,6.44,2C58.17,32.28,59,35.4,58.17,39.44Z"/><path class="cls-10" d="M44.46,31.76s3.27-6.29,9.8-4.54,6.87,4.79,7,6.31-3.38-1.17-3.38-1.17-.12,3-1.29,2.1a19.11,19.11,0,0,1-3-3.62S49.67,34.66,46,33.63C43.87,33,44.46,31.76,44.46,31.76Z"/><path class="cls-16" d="M52.48,45.61A2.21,2.21,0,0,1,51,45a.23.23,0,0,1,.33-.33,1.64,1.64,0,0,0,1.6.4.22.22,0,0,1,.29.14.24.24,0,0,1-.14.3A2.05,2.05,0,0,1,52.48,45.61Z"/><path class="cls-8" d="M50.52,41.8a23.92,23.92,0,0,0,4.78.93,2.46,2.46,0,0,1-4.78-.93Z"/><path class="cls-10" d="M56.37,35.25s-.82-.09-.69.71,1.91.3,2.78,1.89C58.46,37.85,59.31,36.19,56.37,35.25Z"/><path class="cls-10" d="M52.73,34.51s.79.24.36.92-1.88-.46-3.3.66C49.79,36.09,49.65,34.23,52.73,34.51Z"/><path class="cls-16" d="M51.31,40.19c-.07.38-.91.52-1.86.33s-1.66-.65-1.58-1,.91-.52,1.86-.32S51.39,39.82,51.31,40.19Z"/><path class="cls-8" d="M60.61,40.44,58.06,40a3,3,0,0,1-.06.32s0,0,0,.06l2.56.43a.19.19,0,0,0,.22-.15A.18.18,0,0,0,60.61,40.44Z"/><path class="cls-8" d="M53.82,38.27a2.56,2.56,0,0,0,0-.39,3.15,3.15,0,0,0-.85-1.82,3.19,3.19,0,0,0-1.65-.93h0a3.22,3.22,0,0,0-3.56,1.81,3.65,3.65,0,0,0-.14.35c0,.11-.06.22-.08.33a3.12,3.12,0,0,0,.41,2.33,3.38,3.38,0,0,0,.5.63,3.21,3.21,0,0,0,4.36.08,3.16,3.16,0,0,0,1-1.74h0A2.7,2.7,0,0,0,53.82,38.27ZM50,41h0a2.82,2.82,0,0,1-2.15-3.33,3.31,3.31,0,0,1,.12-.42,0,0,0,0,1,0,0,2.84,2.84,0,0,1,2.47-1.81,2.68,2.68,0,0,1,.74.06,2.75,2.75,0,0,1,1.37.72A2.82,2.82,0,0,1,50,41Z"/><path class="cls-8" d="M59.51,37a2.1,2.1,0,0,0-.26-.13l-.34-.11-.24-.06a1.74,1.74,0,0,0-.45-.06,2.34,2.34,0,0,0-.53,0,3.2,3.2,0,0,0-2.45,1.61,3.2,3.2,0,0,0-.19.37v0a2.49,2.49,0,0,0-.16.53,3.2,3.2,0,0,0,1.18,3.19,3.1,3.1,0,0,0,1,.53l.17,0,.09,0a3.18,3.18,0,0,0,.92,0h.15a2.7,2.7,0,0,0,.39-.08,3.09,3.09,0,0,0,.68-.26,3.2,3.2,0,0,0,0-5.67Zm1.28,3.4c0,.06,0,.12,0,.18a1.84,1.84,0,0,1-.09.25,2.75,2.75,0,0,1-1.15,1.4,2.84,2.84,0,0,1-.61.29l-.41.1h-.12a2.85,2.85,0,0,1-.92,0l-.08,0h0a2.81,2.81,0,0,1-1.19-.64L56,41.75a2.82,2.82,0,0,1-.73-2.53,2.49,2.49,0,0,1,.2-.6,2.79,2.79,0,0,1,1.37-1.38A2.71,2.71,0,0,1,58,37h.2a1.49,1.49,0,0,1,.36.05l.26.06.34.13.26.13A2.85,2.85,0,0,1,60.79,40.36Z"/><path class="cls-8" d="M43.65,37.5l-.06,0a.19.19,0,0,1-.06-.26c1.27-2,4.33-.21,4.36-.19a.19.19,0,1,1-.19.33s-2.78-1.62-3.85.06A.18.18,0,0,1,43.65,37.5Z"/><path class="cls-8" d="M55.19,38.7a.23.23,0,0,1-.12-.08c-.4-.63-1.28-.35-1.28-.35a.18.18,0,0,1-.24-.12.19.19,0,0,1,.12-.24,1.5,1.5,0,0,1,1.72.5.19.19,0,0,1,0,.26A.21.21,0,0,1,55.19,38.7Z"/><g class="cls-4"><path class="cls-16" d="M57.89,40.82c-.09.48-.19.93-.28,1.35-.87-.21-1.49-.64-1.42-1S57,40.68,57.89,40.82Z"/></g><path class="cls-10" d="M52,38.31c-.1.52-.42.89-.71.83s-.43-.52-.33-1,.42-.88.71-.82S52.09,37.8,52,38.31Z"/><path class="cls-10" d="M57.07,39.34c-.11.52-.43.89-.71.83s-.44-.52-.34-1,.43-.88.71-.82S57.17,38.83,57.07,39.34Z"/><path class="cls-10" d="M54.44,40.72a1.9,1.9,0,0,0,.44,0,.21.21,0,0,0,.15-.07.22.22,0,0,0,0-.17l-.33-2.4a.22.22,0,0,0-.24-.19.23.23,0,0,0-.19.25l.3,2.13a1.66,1.66,0,0,1-.83-.36.23.23,0,0,0-.31,0,.22.22,0,0,0,0,.3A2,2,0,0,0,54.44,40.72Z"/><path class="cls-10" d="M45,42.42a4.87,4.87,0,0,1-2.09,1.75h0q0-.55,0-1.11A3.93,3.93,0,0,0,45,42.42Z"/><path class="cls-15" d="M44.76,38.66s-1.49-3.18-3.44-1.31c-1.6,1.53-.2,6.67,2.58,5.57Z"/><path class="cls-22" d="M41.08,41.4a2.78,2.78,0,0,0-1.83,2,2.63,2.63,0,1,0,4.07-1.64,2.48,2.48,0,0,0-1-.41h0a.44.44,0,0,0,.07.44,2,2,0,0,1,.78.38,2.22,2.22,0,1,1-3.53,1.33,2.14,2.14,0,0,1,1.64-1.69Z"/><path class="cls-10" d="M43.79,42h0a.21.21,0,0,0,.24-.19,4.06,4.06,0,0,0-1.67-3.66.22.22,0,1,0-.24.36h0a3.6,3.6,0,0,1,1.48,3.26A.21.21,0,0,0,43.79,42Z"/><path class="cls-10" d="M42.07,40.35a.26.26,0,0,0,.15,0,1.67,1.67,0,0,1,1.19-.2.22.22,0,0,0,.29-.1.23.23,0,0,0-.1-.29A2.07,2.07,0,0,0,42,40a.2.2,0,0,0-.09.29A.19.19,0,0,0,42.07,40.35Z"/><path class="cls-10" d="M46.69,33.27a67.26,67.26,0,0,0-2.12,6.57c-.15,1.5-2.14-3.64-.14-8Z"/><path class="cls-10" d="M80.33,149.16H72s-1.92-9.2-2.56-14.36-1-17.39-1-17.39-6.61,2.15-20.43,1.34C17.43,117,29,94.45,29,94.45c1,1.43,8.8,3.4,13.14,4.08,13.3,1.28,23.41,3.54,30.34,6.53A33.32,33.32,0,0,1,77,107.34c1.67,1,2.72,4.15,3.35,8.25C82.2,127.93,80.33,149.16,80.33,149.16Z"/><path class="cls-9" d="M73.07,144.73a.3.3,0,0,1-.29-.24c-1.2-5.92-1.6-13.28-1.92-19.2-.27-4.91-.52-9.55-1.15-10.1s-2.63-.1-5.32.34c-5.34.89-13.41,2.23-22.31.16-4.85-1.13-8.41-3.49-10.59-7-3.76-6.07-2-13.58-2-13.66a.3.3,0,1,1,.58.14c0,.07-1.68,7.36,2,13.21,2.09,3.38,5.53,5.64,10.22,6.73,8.78,2,16.78.72,22.07-.16,3.17-.53,5.09-.85,5.81-.21s1,4.08,1.35,10.51c.32,5.91.72,13.25,1.91,19.13a.29.29,0,0,1-.23.34Z"/><path class="cls-9" d="M80.49,144.89h0l-9.22-.2a.3.3,0,0,1-.29-.3.29.29,0,0,1,.31-.29l9.21.19a.29.29,0,0,1,.29.31A.29.29,0,0,1,80.49,144.89Z"/><polygon class="cls-15" points="80.1 159.78 74.25 159.78 73.12 152.92 72.51 149.16 79.78 149.16 79.89 152.92 80.1 159.78"/><polygon class="cls-17" points="80.1 159.78 74.25 159.78 73.41 154.67 73.12 152.92 79.89 152.92 79.95 154.74 80.1 159.78"/><polygon class="cls-18" points="79.95 154.74 73.41 154.67 73.12 152.92 79.89 152.92 79.95 154.74"/><path class="cls-20" d="M94.54,169H72.41a2.93,2.93,0,0,1-.29-1.23,36.15,36.15,0,0,1,.75-6.75c0-.22.07-.42.09-.61a6.28,6.28,0,0,0,.06-.77,1.14,1.14,0,0,1,1.37-1.27c2.23,2.2,4.77-1.1,6.25,0l.2.15.57.47c.38.32.91.78,1.63,1.42,1.75,1.58,4.74,2.62,7.28,3.69.33.13.63.27.91.4l.6.31c2.08,1.12,2.74,2.2,2.89,3A1.78,1.78,0,0,1,94.54,169Z"/><path class="cls-21" d="M91.83,164.82A5.67,5.67,0,0,1,89,166.18h-.13a28,28,0,0,1-5.5-2.54c-1.23-.67-2.35-1.34-3.16-1.87-1.32-.88-1.55-1.21-1.61-1.44-.19-.87,1.25-1.48,2.27-1.8l.57.47c-1.26.35-2.29.88-2.24,1.19s1.43,1.26,4.56,3a28.19,28.19,0,0,0,5.16,2.41,4.44,4.44,0,0,0,2.34-1.06Z"/><path class="cls-21" d="M94.54,169H72.41a3.09,3.09,0,0,1-.29-1.23h22.6A1.78,1.78,0,0,1,94.54,169Z"/><path class="cls-21" d="M74.67,169H74a4.85,4.85,0,0,0,1.19-3.55,6.28,6.28,0,0,0-2.33-4.43c0-.22.06-.42.09-.61a6.8,6.8,0,0,1,2.77,5A5.41,5.41,0,0,1,74.67,169Z"/><path class="cls-8" d="M82.66,161.73a.37.37,0,0,1-.35-.28.36.36,0,0,1,.26-.44l1.38-.35a.37.37,0,0,1,.45.27.36.36,0,0,1-.27.44l-1.38.34Z"/><path class="cls-8" d="M81.29,160.57a.37.37,0,0,1-.36-.27.35.35,0,0,1,.27-.44l1.38-.35a.36.36,0,0,1,.44.27.37.37,0,0,1-.26.44l-1.39.34Z"/><path class="cls-8" d="M84,162.53a.36.36,0,0,1-.35-.28.37.37,0,0,1,.26-.44l1.39-.34a.37.37,0,0,1,.44.26.35.35,0,0,1-.27.44l-1.38.35Z"/><path class="cls-8" d="M85.42,163.3a.37.37,0,0,1-.08-.72l1.38-.34a.36.36,0,0,1,.44.27.37.37,0,0,1-.26.44l-1.39.34Z"/><path class="cls-8" d="M86.93,164a.37.37,0,0,1-.35-.28.36.36,0,0,1,.26-.44l1.39-.35a.37.37,0,0,1,.44.27.36.36,0,0,1-.27.44L87,164Z"/><path class="cls-8" d="M88.57,164.62a.37.37,0,0,1-.36-.27.35.35,0,0,1,.27-.44l1.38-.35a.35.35,0,0,1,.44.27.37.37,0,0,1-.26.44l-1.38.34Z"/><path class="cls-11" d="M110.86,94.12V96c0,1.05-.63,1.91-1.42,1.91H10.13C9.34,97.87,8.7,97,8.7,96V94.12c0-1.06.64-1.91,1.43-1.91h99.31C110.23,92.21,110.86,93.06,110.86,94.12Z"/><rect class="cls-19" x="8.7" y="94.7" width="102.16" height="0.84"/><path class="cls-19" d="M107.88,102.59H14.53a.75.75,0,0,1-.75-.75v-4h94.86v4A.75.75,0,0,1,107.88,102.59Z"/><rect class="cls-19" x="20.21" y="126.02" width="83.48" height="3.25"/><polygon class="cls-11" points="14.19 169.6 30.35 102.59 24.68 102.59 8.51 169.6 14.19 169.6"/><polygon class="cls-11" points="109.6 169.6 93.43 102.59 99.11 102.59 115.27 169.6 109.6 169.6"/><rect class="cls-22" x="17.02" y="76.86" width="1.77" height="13.37" transform="translate(-12.44 3.68) rotate(-8.71)"/><polygon class="cls-15" points="17.77 76.8 16.02 77.07 16.41 75.73 16.61 75.04 17.01 75.64 17.77 76.8"/><rect class="cls-10" x="17.96" y="89.18" width="1.77" height="0.97" transform="translate(-13.36 3.89) rotate(-8.71)"/><path class="cls-23" d="M19.8,90.79,18.28,91a.12.12,0,0,1-.13-.1l-.1-.65L19.8,90l.1.65A.12.12,0,0,1,19.8,90.79Z"/><polygon class="cls-10" points="17.01 75.64 16.41 75.73 16.61 75.04 17.01 75.64"/><rect class="cls-19" x="17.84" y="88.49" width="1.77" height="0.7" transform="translate(-13.23 3.86) rotate(-8.71)"/><path class="cls-19" d="M16.56,77.65l1.5,9.79a.13.13,0,0,0,.15.11h0a.13.13,0,0,0,.11-.15l-1.49-9.79a.14.14,0,0,0-.16-.11h0A.13.13,0,0,0,16.56,77.65Z"/><path class="cls-19" d="M17.24,77.55l1.5,9.78a.13.13,0,0,0,.16.11h0a.13.13,0,0,0,.11-.15l-1.5-9.78a.13.13,0,0,0-.15-.12h0A.14.14,0,0,0,17.24,77.55Z"/><rect class="cls-24" x="19.19" y="76.86" width="1.77" height="13.37" transform="translate(-0.27 0.07) rotate(-0.19)"/><polygon class="cls-15" points="20.94 76.86 19.17 76.87 19.75 75.6 20.05 74.94 20.36 75.6 20.94 76.86"/><rect class="cls-10" x="19.21" y="89.26" width="1.77" height="0.97" transform="translate(-0.29 0.07) rotate(-0.19)"/><path class="cls-23" d="M20.87,91H19.33a.12.12,0,0,1-.11-.12v-.66H21v.65A.12.12,0,0,1,20.87,91Z"/><polygon class="cls-10" points="20.36 75.6 19.75 75.6 20.05 74.94 20.36 75.6"/><rect class="cls-25" x="19.21" y="88.56" width="1.77" height="0.7" transform="matrix(1, 0, 0, 1, -0.29, 0.07)"/><path class="cls-25" d="M19.61,77.52l0,9.9a.13.13,0,0,0,.13.14h0a.14.14,0,0,0,.14-.14l0-9.9a.13.13,0,0,0-.13-.13h0A.13.13,0,0,0,19.61,77.52Z"/><path class="cls-25" d="M20.31,77.52l0,9.9a.13.13,0,0,0,.14.13h0a.13.13,0,0,0,.13-.13l0-9.9a.14.14,0,0,0-.14-.14h0A.14.14,0,0,0,20.31,77.52Z"/><rect class="cls-26" x="15.5" y="82.65" width="13.37" height="1.77" transform="translate(-63.65 93.75) rotate(-81.91)"/><polygon class="cls-15" points="24 77.05 22.25 76.8 23 75.63 23.39 75.02 23.6 75.71 24 77.05"/><rect class="cls-10" x="20.43" y="89.19" width="1.77" height="0.97" transform="matrix(0.99, 0.14, -0.14, 0.99, 12.82, -2.11)"/><path class="cls-23" d="M21.9,91l-1.52-.21a.13.13,0,0,1-.11-.14l.1-.65,1.75.25-.09.65A.11.11,0,0,1,21.9,91Z"/><polygon class="cls-10" points="23.6 75.71 23 75.63 23.39 75.02 23.6 75.71"/><rect class="cls-27" x="21.08" y="87.96" width="0.7" height="1.77" transform="translate(-69.55 97.57) rotate(-81.91)"/><path class="cls-27" d="M22.59,77.51l-1.39,9.8a.14.14,0,0,0,.11.16h0a.15.15,0,0,0,.16-.12l1.39-9.8a.13.13,0,0,0-.12-.15h0A.13.13,0,0,0,22.59,77.51Z"/><path class="cls-27" d="M23.28,77.61l-1.39,9.8a.13.13,0,0,0,.11.15h0a.13.13,0,0,0,.15-.11l1.4-9.8a.15.15,0,0,0-.12-.16h0A.14.14,0,0,0,23.28,77.61Z"/><polygon class="cls-23" points="24.58 82.15 24.49 82.86 24.4 83.52 24.27 84.5 24.19 85.15 24.06 86.14 23.98 86.78 23.85 87.79 23.77 88.41 23.64 89.43 23.56 90.05 23.43 91.07 23.35 91.68 23.28 92.21 16.31 92.21 16.24 91.68 16.16 91.07 16.03 90.05 15.95 89.43 15.82 88.41 15.74 87.79 15.61 86.78 15.53 86.14 15.4 85.15 15.32 84.5 15.19 83.52 15.11 82.86 15.01 82.15 24.58 82.15"/><polygon class="cls-28" points="24.49 82.86 24.4 83.52 15.19 83.52 15.11 82.86 24.49 82.86"/><polygon class="cls-28" points="24.27 84.5 24.19 85.15 15.4 85.15 15.32 84.5 24.27 84.5"/><polygon class="cls-28" points="24.06 86.14 23.98 86.78 15.61 86.78 15.53 86.14 24.06 86.14"/><polygon class="cls-28" points="23.85 87.79 23.77 88.41 15.82 88.41 15.74 87.79 23.85 87.79"/><polygon class="cls-28" points="23.64 89.43 23.56 90.05 16.03 90.05 15.95 89.43 23.64 89.43"/><polygon class="cls-28" points="23.43 91.07 23.35 91.68 16.24 91.68 16.16 91.07 23.43 91.07"/><path class="cls-10" d="M110.29,56.67l-6,25.13-.15.66-.4,1.69a1.63,1.63,0,0,1-1.58,1.25h-40a1.63,1.63,0,0,1-1.58-2l6.5-27.48a1.63,1.63,0,0,1,1.58-1.25h40A1.63,1.63,0,0,1,110.29,56.67Z"/><polygon class="cls-9" points="104.34 81.8 104.19 82.46 62.63 82.46 62.63 81.8 104.34 81.8"/><path class="cls-11" d="M78.31,60.89a4.06,4.06,0,0,1-3.82,3.23,2.61,2.61,0,0,1-2.63-3.23,4.07,4.07,0,0,1,3.83-3.22A2.59,2.59,0,0,1,78.31,60.89Z"/><path class="cls-10" d="M74.67,60.27c-.06.36-.24.65-.4.65s-.23-.29-.16-.65.25-.64.4-.64S74.74,59.92,74.67,60.27Z"/><path class="cls-10" d="M76.35,60.27c-.06.36-.24.65-.4.65s-.22-.29-.16-.65.25-.64.4-.64S76.42,59.92,76.35,60.27Z"/><path class="cls-10" d="M74.82,62.46a1.43,1.43,0,0,1-1.44-1.4.19.19,0,0,1,.14-.17.11.11,0,0,1,.14.11,1.2,1.2,0,0,0,1.22,1.18A1.9,1.9,0,0,0,76.53,61a.2.2,0,0,1,.19-.11.12.12,0,0,1,.07.17A2.28,2.28,0,0,1,74.82,62.46Z"/><path class="cls-20" d="M96.82,76c0,1.66,2.86,3.75,2.86,3.75S103,77.61,103.36,76c.43-1.81-1.63-2.37-3.16-1C99,73.58,96.78,74.14,96.82,76Z"/><path class="cls-9" d="M90.84,71.11a3.59,3.59,0,0,1-3.48,3.13,2.75,2.75,0,0,1-2.79-3.13A3.59,3.59,0,0,1,88.05,68,2.75,2.75,0,0,1,90.84,71.11Z"/><path class="cls-9" d="M70.27,54.67,63.35,85.4H62.18a1.63,1.63,0,0,1-1.58-2l6.5-27.48a1.63,1.63,0,0,1,1.58-1.25Z"/><polygon class="cls-8" points="81.86 85.4 80.65 92.23 84.66 92.23 85.87 85.4 81.86 85.4"/><path class="cls-8" d="M74.64,91.05l.83-1.15a1.55,1.55,0,0,1,1.27-.66h11a1.55,1.55,0,0,1,1.39.84l.55,1.06A.75.75,0,0,1,89,92.23H75.25A.75.75,0,0,1,74.64,91.05Z"/><path class="cls-8" d="M51.73,92.22h33L85.12,91a1.22,1.22,0,0,0-1.18-1.57H53.47a1.22,1.22,0,0,0-1.18.89Z"/></g></g></g></svg>