<svg xmlns="http://www.w3.org/2000/svg" viewBox="0 0 26.81 20.22"><defs><style>.cls-1{fill:#fa5;}</style></defs><g id="Layer_2" data-name="Layer 2"><g id="Option_1" data-name="Option 1"><path class="cls-1" d="M23.25,2.06H3.56a.42.42,0,0,0-.41.41V14.7a.41.41,0,0,0,.41.41H23.25a.41.41,0,0,0,.41-.41V2.47A.42.42,0,0,0,23.25,2.06Zm-.41,12.23H4V2.88H22.84Z"/><path class="cls-1" d="M26.4,16.35h-.68V1.89A1.89,1.89,0,0,0,23.84,0H3A1.89,1.89,0,0,0,1.09,1.89V16.35H.41a.41.41,0,0,0-.41.41v1.35a2.11,2.11,0,0,0,2.1,2.11H24.71a2.11,2.11,0,0,0,2.1-2.11V16.76A.41.41,0,0,0,26.4,16.35ZM1.91,1.89A1.07,1.07,0,0,1,3,.82H23.84A1.07,1.07,0,0,1,24.9,1.89V16.35h-23ZM15.49,17.17v0a.83.83,0,0,1-.81.62H12.13a.83.83,0,0,1-.81-.62v0Zm10.5.94a1.28,1.28,0,0,1-1.28,1.29H2.1A1.29,1.29,0,0,1,.82,18.11v-.94h9.67v0a1.65,1.65,0,0,0,1.64,1.45h2.55a1.65,1.65,0,0,0,1.64-1.45v0H26Z"/><path class="cls-1" d="M15.92,10.8a.4.4,0,0,0,.57-.57L11.6,5.34a.41.41,0,0,0-.58,0h0a.42.42,0,0,0,0,.57Z"/><path class="cls-1" d="M12.3,10.35a.41.41,0,0,0,.58,0h0a.42.42,0,0,0,0-.57L11.39,8.29a.41.41,0,0,0-.58.58Z"/></g></g></svg>