<svg xmlns="http://www.w3.org/2000/svg" viewBox="0 0 35.84 35.84"><defs><style>.cls-1{fill:#fa5;}</style></defs><g id="Layer_2" data-name="Layer 2"><g id="Option_1" data-name="Option 1"><path class="cls-1" d="M24.52,10.59a.73.73,0,0,0-.52.22L9.29,25.51a.75.75,0,0,0,0,1,.75.75,0,0,0,1,0L25,11.84a.74.74,0,0,0,0-1h0A.74.74,0,0,0,24.52,10.59Z"/><path class="cls-1" d="M35.8,34.88l-3-9.08a.81.81,0,0,0-.17-.28l0,0L25,17.92,35.63,7.3a.74.74,0,0,0,0-1L29.58.21A.78.78,0,0,0,29.06,0h0a.76.76,0,0,0-.52.21L17.92,10.83,7.3.21A.76.76,0,0,0,6.78,0a.74.74,0,0,0-.51.21L.21,6.27a.74.74,0,0,0,0,1L10.83,17.92l-7.6,7.61a.83.83,0,0,0-.17.27L0,34.88a.74.74,0,0,0,.17.75A.74.74,0,0,0,1,35.8l9.08-3a.88.88,0,0,0,.29-.18L17.92,25l7.59,7.59a.88.88,0,0,0,.29.18l9.08,3a.72.72,0,0,0,.92-.92ZM29.06,1.77l5,5-3.5,3.51-5-5Zm-27.29,5,5-5,3.51,3.5-5,5Zm4.54,4.54,5-5,5.57,5.56-2,2-3.06-3a.73.73,0,0,0-.52-.22.7.7,0,0,0-.51.22.72.72,0,0,0,0,1l3,3.05-2,2ZM1.89,34l2.19-6.56,4.38,4.37Zm7.92-2.9-5-5L5,25.79,24.52,6.31l5,5-.24.24ZM19,24l5-5L31.05,26l-5,5Zm8.43,7.79,4.37-4.37L34,34Z"/></g></g></svg>