<svg xmlns="http://www.w3.org/2000/svg" viewBox="0 0 31.79 20.16"><defs><style>.cls-1{fill:#fa5;}</style></defs><g id="Layer_2" data-name="Layer 2"><g id="Option_1" data-name="Option 1"><path class="cls-1" d="M25.41,7.41a6,6,0,0,0-.74,0,5.31,5.31,0,0,0-5.08-3.75h0A5.16,5.16,0,0,0,17.89,4,6.9,6.9,0,0,0,4.94,8.54a5.9,5.9,0,0,0-3.67,2.13,5.85,5.85,0,0,0,4.55,9.49H25.41a6.38,6.38,0,1,0,0-12.75ZM5.68,9.58a.58.58,0,0,0,.43-.24.54.54,0,0,0,.07-.49A5.79,5.79,0,0,1,9.67,1.48a5.72,5.72,0,0,1,2-.35,5.87,5.87,0,0,1,2.42.53,5.77,5.77,0,0,1,3,3.23.59.59,0,0,0,.31.31.5.5,0,0,0,.43,0,4.31,4.31,0,0,1,1.77-.39,4.25,4.25,0,0,1,4.13,3.39.52.52,0,0,0,.24.34.53.53,0,0,0,.41.08,5.16,5.16,0,0,1,1-.1,5.28,5.28,0,1,1,0,10.55H5.8a4.75,4.75,0,0,1-4.75-4.68A4.73,4.73,0,0,1,5.68,9.58Z"/><path class="cls-1" d="M18.84,12.88a.57.57,0,0,0-.79,0l-1.84,1.84V8.39a.56.56,0,0,0-1.11,0v6.33l-1.84-1.84a.56.56,0,0,0-.95.39.56.56,0,0,0,.17.4l2.78,2.78a.56.56,0,0,0,.4.17.52.52,0,0,0,.39-.17l2.79-2.78a.57.57,0,0,0,0-.79Z"/></g></g></svg>