<svg xmlns="http://www.w3.org/2000/svg" viewBox="0 0 36.84 35"><defs><style>.cls-1{fill:#fa5;}</style></defs><g id="Layer_2" data-name="Layer 2"><g id="Option_1" data-name="Option 1"><path class="cls-1" d="M36,33.37H.82a.82.82,0,0,0-.82.81A.82.82,0,0,0,.82,35H36a.82.82,0,0,0,.81-.82A.81.81,0,0,0,36,33.37Z"/><path class="cls-1" d="M17.74,30.65a.64.64,0,0,0,.1.13.82.82,0,0,0,1.16,0l9-9a.81.81,0,0,0,0-1.15.82.82,0,0,0-1.16,0l-7.55,7.55V.82a.82.82,0,1,0-1.64,0V28.21l-7.55-7.55A.81.81,0,0,0,8.9,21.81Z"/></g></g></svg>