<svg xmlns="http://www.w3.org/2000/svg" xmlns:xlink="http://www.w3.org/1999/xlink" viewBox="0 0 356.08 287.83"><defs><style>.cls-1{isolation:isolate;}.cls-2{fill:#ffd371;opacity:0.3;}.cls-3{fill:#fa5;}.cls-21,.cls-22,.cls-23,.cls-24,.cls-25,.cls-4{fill:none;stroke-linecap:round;stroke-linejoin:round;}.cls-4{stroke:#fff;stroke-width:0.89px;}.cls-5{fill:#eaeaea;mix-blend-mode:multiply;}.cls-6{fill:#db8038;}.cls-7{fill:#dfa47f;}.cls-8{fill:#cc8457;}.cls-9{fill:#0d164e;}.cls-10{fill:#232f6d;}.cls-11{fill:#f6383c;}.cls-12{fill:#dd2630;}.cls-13{fill:#fff;}.cls-14{fill:#222221;}.cls-15{fill:#a9a9a9;}.cls-16{fill:#666;}.cls-17{fill:#8c8484;}.cls-18{fill:url(#linear-gradient);}.cls-19{fill:#33261e;}.cls-20{fill:#211913;}.cls-21,.cls-22,.cls-23,.cls-24{stroke:#211913;}.cls-21,.cls-22,.cls-23,.cls-24,.cls-25{stroke-width:0.5px;}.cls-22{stroke-dasharray:2.01 2.01;}.cls-23{stroke-dasharray:1.99 1.99;}.cls-24,.cls-25{stroke-dasharray:2;}.cls-25{stroke:#ba1c21;}.cls-26{fill:#60874f;}.cls-27{fill:#75c189;}.cls-28{fill:#c5503d;}.cls-29{fill:url(#linear-gradient-2);}.cls-30{fill:#b3b4f2;}.cls-31{fill:#9b392c;}.cls-32{fill:#ad4735;}</style><linearGradient id="linear-gradient" x1="86.19" y1="151.01" x2="151.7" y2="151.01" gradientTransform="matrix(-1, 0, 0, 1, 346.15, 0)" gradientUnits="userSpaceOnUse"><stop offset="0" stop-color="#fff"/><stop offset="1" stop-color="#eaeaea"/></linearGradient><linearGradient id="linear-gradient-2" x1="170.4" y1="49.66" x2="328.99" y2="49.66" gradientTransform="matrix(1, 0, 0, -1, -153.24, 99.32)" gradientUnits="userSpaceOnUse"><stop offset="0" stop-color="#fff"/><stop offset="0.14" stop-color="#fbfbfb"/><stop offset="1" stop-color="#eaeaea"/></linearGradient></defs><g class="cls-1"><g id="Layer_2" data-name="Layer 2"><g id="Option_1" data-name="Option 1"><path class="cls-2" d="M187.22,272.33c-99,0-142.18-29.42-142.18-29.42S-19.66,212,17.91,131.37c29.9-64.2,137-116.71,189.49-93.88s47.82,51.68,105.52,93.45,44.36,74.93,34,91.73C347,222.67,314.77,272.33,187.22,272.33Z"/><rect class="cls-3" x="223.49" y="71.03" width="46.2" height="18.08" rx="1.96" transform="translate(493.18 160.15) rotate(-180)"/><line class="cls-4" x1="261.62" y1="77.96" x2="230.8" y2="77.96"/><line class="cls-4" x1="247.92" y1="82.77" x2="230.8" y2="82.77"/><polygon class="cls-3" points="229.05 86.71 229.05 94.88 239.47 86.71 229.05 86.71"/><ellipse class="cls-5" cx="316.1" cy="249.24" rx="26.67" ry="6.94"/><path class="cls-5" d="M286.56,275.7s-13,6.25-20.69,5.77a39.44,39.44,0,0,1-28.26,5.77s-14.88-13.44-33.23-17.06-55.52-14.55-55.52-14.55-85.53-.9-90.41-9.08,156.77-9.62,161.41-4.67-15.48,10.41-15.48,10.41S297.23,262.56,286.56,275.7Z"/><path class="cls-3" d="M177.25,129.6c-6.54-9.36-14.36-18.52-25-22.63-11.37-4.39-24.26-2.34-35.72,1.8-16.37,5.92-31.82,16.7-39.16,32.49-5.26,11.31-6,24.11-8,36.42-1.63,10-4.19,20-4.52,30.15s1.82,20.89,8.5,28.56c10.4,12,28.17,13.28,44,13.74L154,251.19c9,.26,18.13.52,27-1.09s17.65-5.26,23.91-11.77c7.9-8.23,11-20.4,9.42-31.7-1.79-13-10.21-23.23-14.79-35.22A194.11,194.11,0,0,0,177.25,129.6Z"/><path class="cls-6" d="M64.07,207.83c.34-10.16,2.9-20.11,4.53-30.15,2-12.31,2.7-25.11,8-36.42,7.34-15.79,22.79-26.57,39.16-32.49a67.86,67.86,0,0,1,19.35-4.18c-5.47.45-10.47,2.7-16.07,4.63-60.56,20.83-49,115.11-52.4,116.72A49.72,49.72,0,0,1,64.07,207.83Z"/><path class="cls-6" d="M80.41,229.08c13.21,25.39,46.72,8.12,71.1,12.19a167.09,167.09,0,0,0,22.35,2c18.9-.68,34.65-14.37,40.11-31.52.14,9.73-3.08,19.56-9.79,26.55-6.26,6.51-15,10.15-23.91,11.77s-18,1.35-27,1.09l-36.66-1.06c-15.84-.46-33.61-1.79-44-13.74a32.06,32.06,0,0,1-6-10.45C70,224.33,79,226.43,80.41,229.08Z"/><path class="cls-6" d="M182.63,217.93c-11.58,5-24.83,5.15-37.14,2.41-5.67-1.27-11.36-3.21-15.78-7a40.28,40.28,0,0,1-6.11-7q-3.31-4.59-6.31-9.4a133.68,133.68,0,0,1-16.41-37.5c-1.25-4.91-2.18-10-1.36-15s3.64-9.91,8.22-12.08c3.65-1.74,8.45-1.91,10.63-5.31,3.41-5.33-3-13.36.86-18.36,2.66-3.43,8-2.54,12.12-1.23,5.45,1.73,10.94,3.68,15.58,7s8.39,8.32,9,14c7.9-4,18.82-.17,22.41,7.94,2.59,5.85,1.59,12.75,3.88,18.71s7.6,10.4,9.52,16.47c1.2,3.78,1.38,8.55,4.84,10.49,2.28,1.27,5.21.75,7.53,1.93,6.78,3.48-.66,15.38-3.54,19.49A42.52,42.52,0,0,1,182.63,217.93Z"/><path class="cls-7" d="M157.38,119.08c0,2.66-.07,5.56-1.78,7.6-1.89,2.26-5.14,2.71-8.07,3a35.38,35.38,0,0,1-9.25.09,11.85,11.85,0,0,1-7.83-4.5c-1.89-2.72-2.07-6.24-2.19-9.55q-.34-9.21-.68-18.43a10.65,10.65,0,0,1,.76-5.47c1.41-2.66,4.68-3.63,7.64-4.16a74,74,0,0,1,13.45-1.15c7,0,8.53,2.68,8,8.76C156.68,103.07,157.37,111.25,157.38,119.08Z"/><path class="cls-7" d="M129.17,98.05c6.09,1,8.12-7.11,11.17-5.08C146.43,97,150.5,98.05,155.58,97a7.57,7.57,0,0,0,1.79-1.31c-.66,7.67,0,15.68,0,23.36,0,2.66-.07,5.56-1.78,7.6-1.89,2.26-5.14,2.71-8.07,3a35.38,35.38,0,0,1-9.25.09,11.85,11.85,0,0,1-7.83-4.5,11.45,11.45,0,0,1-1.76-4.54C131.85,114.72,128.44,104.57,129.17,98.05Z"/><path class="cls-8" d="M127.58,97.29a10.65,10.65,0,0,1,.76-5.47c1.41-2.66,4.68-3.63,7.64-4.16a74,74,0,0,1,13.45-1.15c7,0,8.53,2.68,8,8.76l0,.45A7.57,7.57,0,0,1,155.58,97c-5.08,1-9.15,0-15.24-4.06-3.05-2-5.08,6.09-11.17,5.08-.73,6.52,2.68,16.67-.48,22.68a35,35,0,0,1-.43-5Q127.92,106.51,127.58,97.29Z"/><path class="cls-9" d="M145.71,93.32a11,11,0,0,0,14.42-2.61c1.53-2.08,2-5.54-.25-6.85-1.15-.67-2.57-.51-3.88-.67-4.62-.58-7.76-5.18-12.23-6.48s-9.25,1-13.41,3.23a14.21,14.21,0,0,0-5.07,3.8c-1.26,1.72-1.6,4.31-.21,5.92-1.78-1.57-4.86-.52-6,1.55s-.83,4.67,0,6.91,2,4.32,2.6,6.62c.67,2.65.49,5.46,1.28,8.07s3.11,5.14,5.81,4.76c1.55-3.13,1-6.47-.06-9.79a22.16,22.16,0,0,1-.41-10.37c.44-1.92,3.23-2.21,4.83-3.36,2.37-1.71,1.76-5,4.8-5.48S143.62,92,145.71,93.32Z"/><path class="cls-10" d="M123.07,93c5.08-3,8.13-10.16,15.24-10.16,5.55,0,9.25,6.2,14.48,6.49a5.41,5.41,0,0,0,5.53-4.66,8,8,0,0,1,.3-1.22,3.79,3.79,0,0,1,1.26.44A2.9,2.9,0,0,1,161,85a7.19,7.19,0,0,1-5.39,5.94c-7.11,3-13.21-9.14-19.3-5.08-4,2.42-5.51,4.84-9,7.26a6.06,6.06,0,0,0-2.13,7.09,7.05,7.05,0,0,1,.42,1.67,3.74,3.74,0,0,0-2.5,1.25,5.9,5.9,0,0,0-.39.46C121.64,99.48,120.28,94.41,123.07,93Z"/><path class="cls-10" d="M127.84,102.56a18.45,18.45,0,0,0,.82,5.22,18,18,0,0,1,1,5.22c-1.28,1.88-3.21,3.09-5.18,2.69a8.16,8.16,0,0,1-1.59-2.88c-.76-2.52-.63-5.24-1.23-7.8a8.17,8.17,0,0,1,1.39-1.88A3.48,3.48,0,0,1,127.84,102.56Z"/><path class="cls-7" d="M148.86,121.49c0,.26-1.24,18-1.24,18l-18.39-1.67,2.39-21.52Z"/><path class="cls-8" d="M148.86,121.49c0,.14-.72,10.4-.72,10.4-6.87,1.52-11.89.7-17.87-3.5l1.35-12.14Z"/><path class="cls-11" d="M179,162.07c3.59,2.77,14.5,10.9,15.39,10.76,2-.31,9.93-4.71,12.59-8.38-6-3.13-12.15-9.28-17.47-13.44-6.87-5.36-16.46-25.37-26.59-19.12-6.26,3.87,3.54,17.26,6.18,21C171.43,156.21,175.84,159.6,179,162.07Z"/><path class="cls-12" d="M163,131.89a7.94,7.94,0,0,1,2.81-1.09c7.91,4.12,7.3,16.55,7.51,26.58a26.91,26.91,0,0,1-4.14-4.45C166.5,149.15,156.7,135.76,163,131.89Z"/><path class="cls-11" d="M108.17,138.76c7.48,21.54,16.21,45.79,25.21,66.73a148.13,148.13,0,0,0,33.31-15,12.25,12.25,0,0,0,4-3.31c1.48-2.16,1.5-5,1.45-7.59-.25-13.57,0-23.31-2.66-36.36-1.14-5.59-1.62-12.12-7.27-11.37a61.29,61.29,0,0,0-10.7,3,59.48,59.48,0,0,1-14.24,3.26c-4.22.78-6.54-.49-10.87-.25C121.05,138.21,111.14,134.87,108.17,138.76Z"/><path class="cls-12" d="M146,144.3c-13.17,1.94-17.71,1-23.45-6.58a24,24,0,0,0,3.83.2c4.33-.24,6.65,1,10.87.25a59.48,59.48,0,0,0,14.24-3.26c.74-.28,1.56-.56,2.4-.84a14.75,14.75,0,0,1,0,2.11A9.16,9.16,0,0,1,146,144.3Z"/><path class="cls-12" d="M115.09,136.89c9.69,6.33,17.7,26.53,20.53,39a3.28,3.28,0,0,0,4,2.47c4.67-1.21,12.85-3.62,15.55-6.34,6.21-6.25,24-7.49,12.82,9.84-6.22,9.62-38.49,21.31-37,18-8.71-20.51-15.56-40.17-22.82-61.07C109.47,137.06,112.1,136.74,115.09,136.89Z"/><path class="cls-9" d="M145.22,115.52c-6.16-2.29-10.46,1.72-13.74-1.32-.83-.76,0-11.32-4.41-12-1.11-.17,1.44,4.85.85,5.8a3.73,3.73,0,0,0-.24,2.43c.41,3.07.36,5.94.82,9,.33,2.24.64,5,2,6.84,2.39,3.13,7.52,4.19,11.46,4.29,3.38.09,8.37.26,11.31-1.41,3.13-1.78,3.64-4,4.19-6.83.42-2.16,1.54-8.5-1.12-8.83-1.85-.23-5.42,1.86-6.2,2A9.12,9.12,0,0,1,145.22,115.52Z"/><path class="cls-10" d="M131.62,116c-3.14-.78-1.44-6.69-4-10.41-.5-1.67-1.2-3.52-.52-3.41,4.41.72,3.58,11.28,4.41,12,3.28,3,7.58-1,13.75,1.32a9.08,9.08,0,0,0,4.93-.06c.78-.15,4.35-2.24,6.2-2,.8.1,1.25.75,1.49,1.66-.89-1-7.4,2-10.67,1.49C141.2,115.69,135,117.11,131.62,116Z"/><path class="cls-3" d="M222,271.34c5.84,2.25,9.62,6.48,14,9.5,4.64,3.23,11.25,3.11,16.46.93,1.37-.58,2.77-1.49,3.14-2.93a4,4,0,0,0-1.38-3.73,14.27,14.27,0,0,0-3.58-2.1,43.92,43.92,0,0,1-12.33-8.9c-3.47-3.58-7.34-9-14.74-6.42C218,259.63,216.93,269.37,222,271.34Z"/><path class="cls-6" d="M254.41,275.33a3.89,3.89,0,0,1,1.17,3.51c-.37,1.44-1.77,2.35-3.14,2.93-4.69,2-10.51,2.25-15-.07A22.73,22.73,0,0,1,254.41,275.33Z"/><path class="cls-6" d="M228.64,264.63c-3.52.46-6.33-.71-8.78-3.61a8.53,8.53,0,0,1,3.69-3.33c4.68-1.64,7.95-.07,10.6,2.21a4.66,4.66,0,0,1-1.28,2.69A6.89,6.89,0,0,1,228.64,264.63Z"/><path class="cls-6" d="M224.06,272.24c-.65-.32-1.33-.63-2-.9-3.59-1.39-4.52-5.76-2.56-9.42C223,264.21,224.52,267.8,224.06,272.24Z"/><path class="cls-13" d="M150.27,118.54l-8.73.27a5.13,5.13,0,0,0,9.44-.11"/><path class="cls-11" d="M148.4,141.3c-6.29,2.11-15.56,3.32-20.85-.68-1.23-.92-2.33-1.13-2.94-2.67a5.86,5.86,0,0,1,.7-4.83c.61-.88,3.6-1.48,4.55-1-.13,1.28-.25,2,1,2.67,7.81,4.42,17.92-.16,17.18-1.39C154.6,133.39,152.49,139.93,148.4,141.3Z"/><path class="cls-12" d="M147.15,135.84c-6.35,5.06-15.55,3.69-20.84-2.46-.21-.24-.42-.35-.62-.6.53-.61,3.41-1.05,4.17-.67-1,1.22-.25,2,1,2.67,7.81,4.42,17.92-.16,17.18-1.39.25,0,1.18.06,1.4.08A12.49,12.49,0,0,1,147.15,135.84Z"/><path class="cls-7" d="M231.67,259.13c.59,5.08-8.63,5.75-10,2.62-.22-.52-3.17-9.32-2.8-12.81a63.62,63.62,0,0,1,9.41-1.32C229.67,249.3,231.53,258,231.67,259.13Z"/><path class="cls-3" d="M250.46,265.61c5.84,2.25,9.62,6.47,14,9.5,4.63,3.23,11.24,3.1,16.45.92,1.37-.57,2.77-1.49,3.14-2.93a4,4,0,0,0-1.38-3.72,14.61,14.61,0,0,0-3.58-2.11,43.53,43.53,0,0,1-12.33-8.9c-3.47-3.57-7.33-9-14.74-6.41C246.43,253.9,245.37,263.64,250.46,265.61Z"/><path class="cls-6" d="M282.85,269.6a3.88,3.88,0,0,1,1.17,3.5c-.37,1.44-1.77,2.36-3.14,2.93-4.69,2-10.51,2.26-15-.06A22.75,22.75,0,0,1,282.85,269.6Z"/><path class="cls-6" d="M257.08,258.9c-3.52.46-6.33-.71-8.78-3.61A8.58,8.58,0,0,1,252,252c4.68-1.64,7.95-.07,10.6,2.21a4.6,4.6,0,0,1-1.28,2.69A6.92,6.92,0,0,1,257.08,258.9Z"/><path class="cls-6" d="M252.5,266.51c-.65-.32-1.33-.63-2-.9-3.59-1.39-4.52-5.76-2.56-9.42C251.4,258.48,253,262.06,252.5,266.51Z"/><path class="cls-7" d="M260.11,253.4c.6,5.07-8.63,5.75-10,2.62-.22-.53-3.17-9.32-2.8-12.82a65.05,65.05,0,0,1,9.41-1.32C258.11,243.57,260,252.22,260.11,253.4Z"/><path class="cls-11" d="M124.6,150.87c-1.45-4.46-3-9.12-6.82-12.05a9.35,9.35,0,0,0-5.86-2c-5.45.11-7.54,4.88-7.23,9.12a26,26,0,0,0,2.46,8.2q8.76,20.59,17.5,41.19c.81,1.9,1.74,3.93,3.55,4.91,2.57,1.38,5.7.08,8.31-1.23q10.73-5.38,21.33-11c2.7-1.44,9.7-5.69,10.18-6.11,3.89-3.43-1.09-7.51-3.62-11.68-.55-.92-4.15-.65-4.91.1a40,40,0,0,1-24.22,11.11c-3.4-12.52-3.77-14.66-8.9-27.09Z"/><path class="cls-12" d="M160.15,173.47c-.07-4.55,5.43-5,8.58-2.78a4.23,4.23,0,0,1,.41.33,7.4,7.4,0,0,1,2,6.26C165.43,186.42,160.21,177.8,160.15,173.47Z"/><path class="cls-14" d="M151.43,106.37c0,1.14.55,2.06,1.24,2.06s1.24-.92,1.24-2.06-.55-2.06-1.24-2.06S151.43,105.23,151.43,106.37Z"/><path class="cls-14" d="M140.74,106.37c0,1.14.55,2.06,1.24,2.06s1.24-.92,1.24-2.06-.55-2.06-1.24-2.06S140.74,105.23,140.74,106.37Z"/><path class="cls-14" d="M150.8,98.71a4.06,4.06,0,0,1,2.31-.45c.8.09,1.27.6,1.4.51s0-.25-.17-.51a2.2,2.2,0,0,0-1.06-.69,3.25,3.25,0,0,0-1.58-.1,5.29,5.29,0,0,0-1.31.43C149.06,98.61,149.58,99.33,150.8,98.71Z"/><path class="cls-14" d="M142.61,97.76A4.17,4.17,0,0,0,141,97.5a5.1,5.1,0,0,0-1.72.41c-1,.45-1.62,1.09-1.53,1.22s.83-.29,1.78-.56a4.49,4.49,0,0,1,2.8,0c.68.26,1.07.39,1.23.22S143.52,98.11,142.61,97.76Z"/><path class="cls-14" d="M147.17,106.54a8.16,8.16,0,0,0,.94,4,9.51,9.51,0,0,1,.61,1.17,1.82,1.82,0,0,1-.26,1.84c-.32.42-.65.57-.62.65s.43.07.93-.36a2.18,2.18,0,0,0,.62-1,2.29,2.29,0,0,0,0-1.42,9.36,9.36,0,0,0-.57-1.32,7.33,7.33,0,0,1-.46-1.26,8.09,8.09,0,0,1-.29-2.37c.05-1.34.13-2-.11-2.1S147.23,105,147.17,106.54Z"/><ellipse class="cls-8" cx="155.03" cy="110.96" rx="1.82" ry="1.14"/><ellipse class="cls-8" cx="139.06" cy="110.96" rx="1.82" ry="1.14"/><polygon class="cls-15" points="259.97 129.44 256.41 127.41 202.58 127.41 192.84 168.2 194.45 172.01 245.49 170.55 259.97 129.44"/><polygon class="cls-16" points="192.84 168.2 163.76 187.13 162.96 190.13 195.84 170.72 192.84 168.2"/><polygon class="cls-17" points="196.48 168.8 162.96 190.13 164.76 192.48 204.38 169.66 196.48 168.8"/><polygon class="cls-18" points="259.97 129.44 204.61 129.44 194.45 172.01 247.52 172.58 259.97 129.44"/><path class="cls-15" d="M226.79,149.06a2.92,2.92,0,0,0,2.92-2.92,3.87,3.87,0,0,0-.05-.49,2.92,2.92,0,1,1-4.48,2.93A2.93,2.93,0,0,0,226.79,149.06Z"/><path class="cls-19" d="M237.55,158.3l.8-.55c1-.66,11-2.6,13,5.94,7.47,31.08,7.6,52.18,9.83,81-2-.81-8.56,0-10.66,2.62-7.07-14.61-13.7-43.52-16.78-58.15a117.1,117.1,0,0,1-11.08,10.07l-.21.15-.59.39c-2-10.48-3.81-20.91-5.17-31.48A155.76,155.76,0,0,1,237.55,158.3Z"/><path class="cls-20" d="M214.26,172.56c-.15-1.1-.32-2.2-.46-3.31a157,157,0,0,1,20.86-10l.8-.55c1-.65,10.95-2.6,13,5.95l0,.12C242.42,154.17,223.32,166.59,214.26,172.56Z"/><path class="cls-20" d="M220.23,165.76c4.35,8.73,5.94,18.31,6.77,28.15-2.4,2.26-4.84,4.38-7.22,6.28l-.22.15-.59.39c-1.95-10.48-3.8-20.91-5.17-31.48C215.75,168.12,217.94,166.94,220.23,165.76Z"/><path class="cls-20" d="M235.61,186.33c2,20.52,6.71,41.65,14.52,60.22a6.64,6.64,0,0,0-2.5,1.72c-7.07-14.61-13.7-43.52-16.78-58.14a112.38,112.38,0,0,1-8.78,8.17c-.26-1.37-.52-2.75-.76-4.13C224.89,191.91,231.5,187.36,235.61,186.33Z"/><path class="cls-21" d="M219.29,186.83c.2-.27.4-.53.61-.79"/><path class="cls-22" d="M221.2,184.5a27.82,27.82,0,0,1,10.56-7.22,2.18,2.18,0,0,1,2,2c2,22.69,6.82,44.43,15.57,65.4"/><path class="cls-21" d="M249.74,245.63l.39.92"/><path class="cls-19" d="M134.37,202.29c2.68-1.35,4.45.51,15-4.26,3.94-1.78,7.27-4.67,10.9-7l21.82-14a148.27,148.27,0,0,1,24.14-12l.8-.54c1-.66,10.95-2.61,13,5.94,7.48,31.08,7.61,52.18,9.84,81-2-.81-8.56,0-10.67,2.62-7.07-14.62-13.7-43.52-16.78-58.15a113.26,113.26,0,0,1-11.08,10.06,1.13,1.13,0,0,1-.21.15c-6.35,4.23-12.38,7.87-19.94,9.64a43.82,43.82,0,0,1-20,.19C146.78,214.87,127.36,205.81,134.37,202.29Z"/><path class="cls-20" d="M230.78,180.66c1.95-.57,2.88,10.52,1.54,10.56C230.57,191.26,228.68,181.28,230.78,180.66Z"/><path class="cls-20" d="M148.32,198.49l1-.46c3.94-1.78,7.27-4.67,10.9-7l21.82-14a148.27,148.27,0,0,1,24.14-12l.8-.54a11,11,0,0,1,5.17-.61c-21.32,5.12-37.79,25.49-57.63,33.75A18.32,18.32,0,0,1,148.32,198.49Z"/><path class="cls-20" d="M134.37,202.29l.11,0c1.34,2,2.48,4.26,4.84,3.48,11.18-5.08,24.38,2,33.52,3,10.16,1,19.3-11.17,31.49-14.22,2,20.53,9.55,39.17,17.36,57.74a6.47,6.47,0,0,0-2.5,1.73c-7.07-14.62-13.7-43.52-16.78-58.15a113.26,113.26,0,0,1-11.08,10.06,1.13,1.13,0,0,1-.21.15c-6.35,4.23-12.38,7.87-19.94,9.64a43.82,43.82,0,0,1-20,.19C146.78,214.87,127.36,205.81,134.37,202.29Z"/><path class="cls-21" d="M163.32,207.75a6.24,6.24,0,0,0,1-.12"/><path class="cls-23" d="M166.25,207.17c4.92-1.44,16.24-6.41,35.2-23.66,0,0,3.9-1,3.73,2.57,0,0,3.31,36.88,15.67,64.38"/><path class="cls-21" d="M221.27,251.38l.42.9"/><path class="cls-24" d="M139.2,201.89s-.43,3.18,5.21,4.5"/><path class="cls-20" d="M198.33,184.75c-.9-.76-2.06-1.48-3.2-1.17a2,2,0,0,0,.14,1.82,6.16,6.16,0,0,0,1.24,1.41l5.75,5.31a18.26,18.26,0,0,0-7-3,1.51,1.51,0,0,0-1.38.2,1.05,1.05,0,0,0,0,1.29,3.17,3.17,0,0,0,1.08.87L201.1,195c1.82,1.05,3.73,2.23,3.18-.81C203.63,190.65,201.06,187,198.33,184.75Z"/><path class="cls-7" d="M168,178.34l9.06-3.27a5.94,5.94,0,0,1,3.34-.18l1.86.46-.32,2.41c-.19,1.36,1.27,1.17,1.27,1.17.83-.23,1.1-1.2,1.21-1.85l.45-3.31a1,1,0,0,0-.93-1.13l-5.24-.32,6.31-.25v2.43a1.18,1.18,0,0,0,1.68,1.07.86.86,0,0,0,.49-.74l.07-4.53a1,1,0,0,0-.95-1h.1l-.25-2.36a1.62,1.62,0,0,0-1.78-1.44l-.71.07-.27.05-1.14-2.81a1.51,1.51,0,0,0-2-.82l-6.24,3v0l-9,4.59C163,170.39,161.75,179.39,168,178.34Zm12.29-13.79.45,1.46-3.68.6Zm-2.09,4.83,6-1.28.06,1.28Z"/><polygon class="cls-8" points="183.17 165.04 181.01 165.34 180.25 163.48 177.04 166.61 180.27 164.55 180.72 166.01 183.37 165.59 183.17 165.04"/><polygon class="cls-8" points="184.27 169.38 184.99 169.38 184.63 167.47 178.18 169.38 184.21 168.1 184.27 169.38"/><path class="cls-8" d="M185.83,175.59s-1.16.45-.84-3.52l-5.93.22,6.26-.7S185,175.62,185.83,175.59Z"/><path class="cls-8" d="M182.45,178.83s-1,0-.21-3.48a14.77,14.77,0,0,0-3.81-.61,29.81,29.81,0,0,0-3.94,1.3l-6.51,2.3s-4,.86-4.48-3c0,0,2,4.15,6.14,1.77,0,0,7.93-3,8.82-3.05,0,0,4.13.38,4.22.82C182.68,174.89,182,178.78,182.45,178.83Z"/><path class="cls-6" d="M134.14,211c6.14-2.47,12.22-5.95,18.84-5.78,11.58.3,21,11.67,32.53,11a11.49,11.49,0,0,1,4.38.1c1.39.47,2.55,2.06,1.92,3.39a3.78,3.78,0,0,1-1.72,1.48c-11.24,6.08-24,9.56-36.76,9.1s-25.49-5-35.08-13.45c-1.69-1.49-3.83-3.68-3.77-6.08,2.2-.19,5,2.35,7.49,2.58C126.1,213.67,130.35,212.5,134.14,211Z"/><path class="cls-6" d="M114.2,212.26c-1.34-.41-2.84-1.17-3-2.56a118.45,118.45,0,0,0,15.6,1.79,28.28,28.28,0,0,1-9.49-2.18c-.61-.26-1.32-1-.87-1.44a1.09,1.09,0,0,1,1-.15l8.29,1.68a11.85,11.85,0,0,1-7.39-5.31c-.51-.84-.8-2.15.06-2.62s1.6.22,2.2.8l6.81,6.61c.72.7,2.68,2.33,2,3.37-.59.84-4.07.94-5,1A26,26,0,0,1,114.2,212.26Z"/><path class="cls-6" d="M193.66,220c.61.47,1.26,1.19,1,1.89a1.24,1.24,0,0,1-1.26.65A3.53,3.53,0,0,1,192,222l-13.18-7.26c.27.15,1.59-.16,2-.09a12.32,12.32,0,0,1,1.75.57c1.14.36,2.33.57,3.48.91A23.86,23.86,0,0,1,193.66,220Z"/><path class="cls-6" d="M98,145.26a35.31,35.31,0,0,1-.08-9.74,16.33,16.33,0,0,1,4-8.73c.63-.67,1.75-1.26,2.37-.58s-.12,1.76-.76,2.46a12.93,12.93,0,0,0-3.33,9.77,10.56,10.56,0,0,1,7.16-9.12,1,1,0,0,1,1,1.61,24.6,24.6,0,0,1-2.69,2.15,12.36,12.36,0,0,0-4,6.18,26.56,26.56,0,0,0-1,7.38c-.08,5.61.9,10.87,1.85,16.36-1.56-.28-2.51-6.55-2.86-8A86.45,86.45,0,0,1,98,145.26Z"/><path class="cls-6" d="M85.42,174.42c.08-1,.37-2.3,1.36-2.65a2,2,0,0,1,2.32,1.33,6.71,6.71,0,0,1,.18,2.93A33.19,33.19,0,0,0,98.15,201a31,31,0,0,1-3.59-7.8,13.23,13.23,0,0,1-.4-3.2,1.46,1.46,0,0,1,2.85-.46,112.4,112.4,0,0,0,4.86,12.31c1.19,2.54,2.59,5-1.05,3a26.07,26.07,0,0,1-5.65-4.55A33.64,33.64,0,0,1,85.42,174.42Z"/><path class="cls-7" d="M123.05,108.56c0,2.58,1.39,4.67,3.09,4.67s3.09-2.09,3.09-4.67-1.38-4.67-3.09-4.67S123.05,106,123.05,108.56Z"/><path class="cls-8" d="M127.56,106.72a1.32,1.32,0,0,1,.09.56,8.79,8.79,0,0,1-.11,1.25,3.71,3.71,0,0,1-.35,1.13,1.74,1.74,0,0,1-.83.82.85.85,0,0,1-.76,0,1,1,0,0,1-.35-.86,4.37,4.37,0,0,1,.86-2.7,1.33,1.33,0,0,1,.44-.41A.83.83,0,0,1,127.56,106.72Z"/><path class="cls-8" d="M129.23,108.56c0,2.55-1.35,4.62-3,4.66,2.94-2,1.82-8,1.82-8.36A4.91,4.91,0,0,1,129.23,108.56Z"/><path class="cls-14" d="M126.21,106.57a3.25,3.25,0,0,0-1.29,2.25c-.1.86.09,1.5.25,1.48s.22-.64.44-1.34a3.22,3.22,0,0,1,1.14-1.66c.41-.29.63-.51.59-.75S126.85,106.14,126.21,106.57Z"/><path class="cls-14" d="M125.65,108.56c.22.29.54.73.79,1.12s.47.73.63.68.17-.47,0-1a4.26,4.26,0,0,0-.74-1.39C125.76,107.34,125.19,108,125.65,108.56Z"/><path class="cls-12" d="M139.38,171.15A27.16,27.16,0,0,0,154,162.41a40.09,40.09,0,0,1-9,14.67c4.67-2.9,8.07-7.53,10.4-12.51a60.77,60.77,0,0,0,3.39-9.48c.26-.91,1.61-3.92,1.26-4.76-.6-1.44-1.53.93-1.92,1.58a60.41,60.41,0,0,1-11.12,13.36C145.22,166.93,141.86,170.61,139.38,171.15Z"/><path class="cls-25" d="M109.19,138s-6.94,4.91,6.6,27.76c0,0,11.18,35.83,15.41,32.73,0,0,23.86-10.93,33.93-17.17"/><line class="cls-25" x1="192.35" y1="167.31" x2="171.14" y2="151.45"/><polygon class="cls-15" points="0 58.79 158.59 58.79 175.75 55.31 17.16 44.01 0 55.45 0 58.79"/><path class="cls-26" d="M28.4,8.92c-.86-1.25-2.26-2.6-3.68-2a2.42,2.42,0,0,0-1.26,2.68,7,7,0,0,0,1.43,2.85q6.65,9.25,13.86,18.08A44.19,44.19,0,0,0,50.48,6a2.08,2.08,0,0,0-1.36-2.26c-1.53-.47-2.34,1.17-2.73,2.51-3.13,10.73-3.55,12.82-6.2,21.3.37-5.77.67-11.67.87-15.49a9.46,9.46,0,0,0-1-4.88l0,0a2.15,2.15,0,0,0-4,1.14c.23,6.14,1.41,12.4,1,18.32C35,21.22,30.52,12,28.4,8.92Z"/><rect class="cls-27" x="149.29" width="12.69" height="49.66" transform="translate(311.28 49.66) rotate(-180)"/><rect class="cls-26" x="139.76" y="11.6" width="9.53" height="39.04" transform="translate(289.05 62.25) rotate(-180)"/><rect class="cls-27" x="123.68" width="12.69" height="49.66" transform="translate(260.05 49.66) rotate(-180)"/><rect class="cls-26" x="114.15" y="11.6" width="9.53" height="39.04" transform="translate(237.83 62.25) rotate(-180)"/><path class="cls-3" d="M61.25,38.62a6.33,6.33,0,0,0-4.45-6v-.29h49.66V45H56.8v-.32A6.32,6.32,0,0,0,61.25,38.62Z"/><path class="cls-28" d="M32.46,27H46.09a11.93,11.93,0,1,1-13.63,0Z"/><rect class="cls-29" x="17.16" y="44.01" width="158.59" height="11.3" transform="translate(192.91 99.32) rotate(-180)"/><path class="cls-27" d="M309.39,201.49l1.8,0c-4.64-17.76-8.72-35.93-8.65-54,0-4.93,7.12-5.74,8.28-.95a136.89,136.89,0,0,1,1.82,54.94h.5C311.88,202.68,310.63,202.38,309.39,201.49Z"/><path class="cls-28" d="M334.42,207.49,330.57,249c-.05,4.65-28,4.33-27.9-.33l-2.87-41.54Z"/><path class="cls-30" d="M314.94,201.56c.29,1.08.57,2.16.87,3.24.2-1.08.4-2.15.58-3.23Z"/><path class="cls-31" d="M300.14,212.13l-.74-10.75,1.4,0,31.72.37,2.43,0-1,10.73C333.93,214.28,300.12,213.89,300.14,212.13Z"/><path class="cls-27" d="M331.08,201.75l-.21,2.29A81.55,81.55,0,0,0,345,190.74c3.63-4.32-2.42-10.05-6.58-6.24a119.72,119.72,0,0,0-11.58,12,57.7,57.7,0,0,0-3.76,5.11Z"/><path class="cls-26" d="M313.61,201.54l5.79.07c9.21-14,18-28.63,23.44-44.11,2.25-6.36-6.7-10.36-10.09-4.53A175.26,175.26,0,0,0,313.61,201.54Z"/><path class="cls-26" d="M280.22,158.43a147.21,147.21,0,0,0,21.19,43l6.71.08c-.69-4.68-1.26-9.23-2.27-12.27A120.15,120.15,0,0,0,290,157.68c-2.24-3.17-7.14-6.34-9.34-3A4.47,4.47,0,0,0,280.22,158.43Z"/><path class="cls-32" d="M297,209.71c0,2.45,40.11,2.92,40.13.47l1.64-9.32-43.19-.5Z"/></g></g></g></svg>