<svg xmlns="http://www.w3.org/2000/svg" viewBox="0 0 348.98 252.77"><defs><style>.cls-1{isolation:isolate;}.cls-2,.cls-22{fill:#75c189;}.cls-13,.cls-2,.cls-6{opacity:0.3;}.cls-3{fill:#eaeaea;mix-blend-mode:multiply;}.cls-4{fill:#1b2e35;}.cls-5{fill:#8f8f8f;}.cls-7{fill:#4d4d4d;}.cls-19,.cls-8{fill:#007cff;}.cls-9{fill:#ffb576;}.cls-10{opacity:0.2;}.cls-11,.cls-20{fill:#bf6179;}.cls-12{fill:#e67779;}.cls-14{fill:#ff8941;}.cls-15{fill:#fa5;}.cls-16{fill:#cc8a4e;}.cls-17{fill:#a36f45;}.cls-18,.cls-23{fill:#fff;}.cls-18{opacity:0.9;}.cls-19{opacity:0.5;}.cls-20{opacity:0.6;}.cls-21{fill:#599b69;}</style></defs><g class="cls-1"><g id="Layer_2" data-name="Layer 2"><g id="Option_1" data-name="Option 1"><path class="cls-2" d="M169,252.77c98.44,0,141.38-29.25,141.38-29.25s64.33-30.69,27-110.91C307.59,48.77,201.14-3.45,148.89,19.25S101.35,70.64,44,112.18-.15,186.69,10.13,203.39C10.13,203.39,42.13,252.77,169,252.77Z"/><ellipse id="_Path_" data-name="&lt;Path&gt;" class="cls-3" cx="168.7" cy="236.33" rx="168.7" ry="9.85"/><rect class="cls-4" x="148.09" y="133.77" width="79.34" height="8.02" rx="2.93"/><polygon class="cls-5" points="224.18 231.12 227.43 231.12 223.69 141.79 219.18 141.79 224.18 231.12"/><polygon class="cls-5" points="194.22 231.12 190.96 231.12 194.71 141.79 199.21 141.79 194.22 231.12"/><polygon class="cls-5" points="181.31 231.12 184.56 231.12 180.81 141.79 176.31 141.79 181.31 231.12"/><polygon class="cls-5" points="151.34 231.12 148.09 231.12 151.84 141.79 156.34 141.79 151.34 231.12"/><g class="cls-6"><polyline class="cls-7" points="223.85 145.59 223.69 141.79 219.18 141.79 219.39 145.59"/><polygon class="cls-7" points="194.55 145.59 199 145.59 199.21 141.79 194.71 141.79 194.55 145.59"/><polygon class="cls-7" points="176.31 141.79 176.52 145.59 180.97 145.59 180.81 141.79 176.31 141.79"/><polygon class="cls-8" points="151.67 145.59 156.13 145.59 156.34 141.79 151.83 141.79 151.67 145.59"/></g><polygon class="cls-9" points="179.22 217.99 171.85 221.9 160.25 206.23 167.62 202.32 179.22 217.99"/><path class="cls-4" d="M169.19,219.49l7.69-5.35a.59.59,0,0,1,.83.11l4.6,5.83a1.48,1.48,0,0,1-.35,2c-2.71,1.81-3.93,2.45-7.47,4.55a120.16,120.16,0,0,1-10.61,5.75c-3.14,1.37-4.5-1.82-3.26-2.69,2.93-2.08,6.81-6.15,7.69-9A2.26,2.26,0,0,1,169.19,219.49Z"/><polygon class="cls-10" points="167.62 202.32 160.25 206.24 165.84 213.78 173.04 209.64 167.62 202.32"/><path class="cls-11" d="M185.4,109.5s-57.21-1.78-57.4,22.12c-.28,34.36,32.32,79.46,32.32,79.46L173,202.6S150.67,169.81,150.48,143c16.86-4.76,56.54-1.77,61.69-15.75,4.22-11.43,2-17.74,2-17.74Z"/><polygon class="cls-4" points="176.51 204.78 161.34 214.08 156.58 209.25 173.25 198.75 176.51 204.78"/><polygon class="cls-9" points="165.59 227.59 157.32 227.2 155.97 207.68 164.24 208.07 165.59 227.59"/><path class="cls-4" d="M157.14,225.79l9.35-.3a.6.6,0,0,1,.64.55l.69,7.39a1.48,1.48,0,0,1-1.41,1.53c-3.26,0-4.83-.09-8.94,0a78.45,78.45,0,0,1-11,0c-3.39-.43-2.94-3.86-1.43-4,3.58-.29,8.37-2.76,10.67-4.68A2.35,2.35,0,0,1,157.14,225.79Z"/><polygon class="cls-10" points="164.24 208.08 155.97 207.69 156.75 218.85 164.99 218.84 164.24 208.08"/><path class="cls-12" d="M205.74,109.5s-59.85,5.66-57.67,23.68c3.15,26,4.7,82,4.7,82l15.25.6s6.47-50.51,3.12-77.12c15.49,0,53.41,1.12,56.87-8.21,3.05-8.25,2-20.93,2-20.93Z"/><polygon class="cls-4" points="169.71 216.7 151.4 215.79 150.74 207.82 170.82 209.21 169.71 216.7"/><path class="cls-9" d="M192.46,56.72c-.11,1.47-.23,2.73-.39,4.08s-.34,2.65-.55,4c-.41,2.64-.92,5.26-1.54,7.9a62.73,62.73,0,0,1-5.73,15.85,28.52,28.52,0,0,1-2.69,4,18.29,18.29,0,0,1-3.95,3.68A19.84,19.84,0,0,1,168,99.43a27.77,27.77,0,0,1-8.94-.85,33.72,33.72,0,0,1-4.06-1.3c-.66-.25-1.3-.54-1.94-.83s-1.23-.61-2-1l2.29-5.83,1.66.21,1.75.18c1.16.09,2.31.15,3.43.15a23.76,23.76,0,0,0,6.28-.72,10.27,10.27,0,0,0,4.43-2.3,10.14,10.14,0,0,0,1.44-1.69A20.73,20.73,0,0,0,173.73,83,39.4,39.4,0,0,0,176,76.79c.66-2.2,1.2-4.51,1.67-6.86s.89-4.72,1.27-7.12l.51-3.6c.15-1.18.33-2.45.44-3.52Z"/><path class="cls-4" d="M192.51,49.64c-6.12-5.92-13.66-2.43-16.67,8.65a102,102,0,0,0-3.47,18.16l19.37,4C195.27,69.89,198.78,55.69,192.51,49.64Z"/><path class="cls-13" d="M186.27,61.73c1.39-1.25,5.32,4.34,7.72,11.25-.67,2.58-1.45,5.12-2.24,7.48l-11.66-2.41C181,71.16,183.17,64.53,186.27,61.73Z"/><path class="cls-9" d="M152,86.94l-4.31-1.66-.19,9.23s7.31,3.16,8.8-.47l-.52-2.3A7.48,7.48,0,0,0,152,86.94Z"/><polygon class="cls-9" points="142.56 85.52 140 93.27 147.54 94.51 147.73 85.28 142.56 85.52"/><path class="cls-4" d="M149.14,91.67a.5.5,0,0,1-.44-.27l-7.78-15a.51.51,0,0,1,.22-.68.5.5,0,0,1,.67.22l7.78,15a.51.51,0,0,1-.22.68A.59.59,0,0,1,149.14,91.67Z"/><path class="cls-4" d="M191.8,43.71l9.28-2.65L213,40.49a8.29,8.29,0,0,1,8.25,5.71c2.28,6.94,4.38,17,5.9,25.67,1.71,9.73,2.6,24.34,2.79,37.63H185.4a334.76,334.76,0,0,0-6.11-53.16,8.25,8.25,0,0,1,4.59-8.86Z"/><path class="cls-13" d="M227.18,71.87C226,65,224.43,57.35,222.71,51c-8-1.35-11.8,16.08-9.44,24.72s14.94,3.4,14.94,3.4C227.91,76.51,227.56,74.07,227.18,71.87Z"/><path class="cls-4" d="M199.5,23c1.91,4.69.76,13.31-3,10.87S198.34,20.1,199.5,23Z"/><path class="cls-9" d="M197.38,26l-3.61,5.51L188.86,39a7.88,7.88,0,0,1,1.52,2.22c.89,1.81,1.63,3.16-2.16,5.75a2.53,2.53,0,0,0-1.14,2.49c.22,1.18,1.39,2.32,5.49,1.59a18.92,18.92,0,0,0,10.29-5.71c1.36-1.36,1-2.39-.27-3.8C198.87,37.52,197.75,31.13,197.38,26Z"/><path class="cls-10" d="M190.07,37.14l3-5.35c.06.13.13.29.21.44a13.84,13.84,0,0,1,.64,2.05c.55,2.38-1.29,5.77-3.32,7.39-.08-.15-.15-.3-.24-.46A9,9,0,0,0,189,39.08a.47.47,0,0,0-.12-.09Z"/><path class="cls-4" d="M172,19.48c-1.11,2.53,2.87,9.7,7.42,6.8S174,15,172,19.48Z"/><path class="cls-9" d="M195.79,16.93c1.7,7.88,3.1,12.41.28,17.43-4.24,7.54-14.86,6.52-18.9-.74-3.63-6.53-5.8-18.32,1-23.41A11.21,11.21,0,0,1,195.79,16.93Z"/><path class="cls-4" d="M198.13,22.34c-2.72,3.85-9.83-3.22-9.25-8-7.07,4-14.74,9.39-19.4,4.86-5.37-5.22-3.9-12.7,2.4-13.37C170.76,8,177.07,9,180.47,5.64c5.69-5.64,14.7-4.46,14.53.11C199.35,4,204.09,13.87,198.13,22.34Z"/><path class="cls-4" d="M194.17,7c1.68-1.25.56-5.71-3.34-7C194.54.48,198.38,3.24,194.17,7Z"/><path class="cls-9" d="M200.64,22A7.36,7.36,0,0,1,199,27c-1.5,1.78-3.81.36-4.34-1.86-.49-2,.14-5.08,2.1-6S200.54,19.75,200.64,22Z"/><path class="cls-4" d="M184.48,23.32c.21.64,0,1.28-.37,1.43s-.92-.24-1.13-.88,0-1.28.37-1.43S184.27,22.68,184.48,23.32Z"/><path class="cls-4" d="M177.34,25.94c.21.64,0,1.28-.36,1.43s-.92-.25-1.13-.89,0-1.28.37-1.43S177.13,25.3,177.34,25.94Z"/><path class="cls-14" d="M179.78,25.6a21.42,21.42,0,0,1-.66,5.65,3.24,3.24,0,0,0,2.69-.63Z"/><path class="cls-4" d="M183.61,34.12a5.8,5.8,0,0,0,3.4-3,.2.2,0,1,0-.37-.15,5.54,5.54,0,0,1-3.87,3,.19.19,0,1,0,.08.38A4.46,4.46,0,0,0,183.61,34.12Z"/><path class="cls-4" d="M185.13,20.56a.39.39,0,0,0,0-.68,3.81,3.81,0,0,0-3.55-.37.4.4,0,1,0,.34.72,3,3,0,0,1,2.78.31A.41.41,0,0,0,185.13,20.56Z"/><path class="cls-4" d="M175.93,21.81a.35.35,0,0,0,0-.2.38.38,0,0,0-.51-.21,3.76,3.76,0,0,0-2.32,2.71.38.38,0,0,0,.32.45.4.4,0,0,0,.46-.33,3,3,0,0,1,1.84-2.1A.4.4,0,0,0,175.93,21.81Z"/><path class="cls-9" d="M219.75,46.47c.84,1.41,1.56,2.67,2.28,4s1.42,2.69,2.1,4c1.38,2.71,2.63,5.49,3.82,8.33a93.33,93.33,0,0,1,3.15,8.8,49.28,49.28,0,0,1,2,9.8,23.78,23.78,0,0,1-.2,5.83A13.21,13.21,0,0,1,231.73,91a10.89,10.89,0,0,1-2.66,3.43,11.92,11.92,0,0,1-3.36,2,15.32,15.32,0,0,1-3.2.89,21.61,21.61,0,0,1-5.58.15,34.38,34.38,0,0,1-4.92-.79c-1.57-.36-3.09-.79-4.58-1.29a58.4,58.4,0,0,1-8.57-3.63l2.2-5.86c5.41,1,11.22,2,16.1,1.68a13.59,13.59,0,0,0,3.15-.54c.85-.27,1.32-.66,1.28-.78s-.05,0-.07-.08,0-.09,0-.55a12.88,12.88,0,0,0-.17-2.91,40.41,40.41,0,0,0-1.94-7.29c-.89-2.52-1.92-5.07-3.07-7.6s-2.36-5-3.61-7.58c-.63-1.25-1.27-2.51-1.93-3.75l-2-3.64Z"/><path class="cls-4" d="M215.67,40.63c-8.41-1.28-12.54,5.93-8.58,16.7a102.89,102.89,0,0,0,7.67,16.83l18.12-8C229.64,55.55,224.29,41.94,215.67,40.63Z"/><path class="cls-9" d="M196.41,85.07l-3.89,1.17L198,94.06s8.16-2.92,6.49-6.47l-2.05-1.17C200.71,85.41,198.49,84.36,196.41,85.07Z"/><polygon class="cls-9" points="189.09 91.63 192.97 95.52 198.03 94.06 192.52 86.24 189.09 91.63"/><path class="cls-15" d="M289.33,98.41H48.07a2.91,2.91,0,0,1-2.9-2.89h0a2.91,2.91,0,0,1,2.9-2.9H289.33a2.91,2.91,0,0,1,2.9,2.9h0A2.91,2.91,0,0,1,289.33,98.41Z"/><path class="cls-16" d="M289.33,98.41H232.85a2.91,2.91,0,0,1-2.9-2.89h0a2.91,2.91,0,0,1,2.9-2.9h56.48a2.91,2.91,0,0,1,2.9,2.9h0A2.91,2.91,0,0,1,289.33,98.41Z"/><polygon class="cls-16" points="286.67 234.93 292.23 234.93 285.83 98.41 278.14 98.41 286.67 234.93"/><polygon class="cls-16" points="235.51 234.93 229.95 234.93 236.35 98.41 244.04 98.41 235.51 234.93"/><polygon class="cls-17" points="101.89 234.93 107.45 234.93 101.05 98.41 93.36 98.41 101.89 234.93"/><polygon class="cls-16" points="50.73 234.93 45.17 234.93 51.57 98.41 59.26 98.41 50.73 234.93"/><rect class="cls-16" x="53.19" y="105.68" width="185.55" height="11.44"/><path class="cls-8" d="M83.72,84.92a1.22,1.22,0,0,0-1.22,1.22V91.4a1.22,1.22,0,0,0,1.22,1.22h39.46a.4.4,0,0,0,.4-.4v-6.9a.4.4,0,0,0-.4-.4Z"/><path class="cls-18" d="M107.18,85.65h16.4a0,0,0,0,1,0,0v6.23a0,0,0,0,1,0,0h-16.4a.81.81,0,0,1-.81-.81V86.46A.81.81,0,0,1,107.18,85.65Z"/><rect class="cls-8" x="63.28" y="84.92" width="42.29" height="7.7" rx="1.4"/><rect class="cls-10" x="63.28" y="84.92" width="42.29" height="7.7" rx="1.4"/><rect class="cls-19" x="78.21" y="84.92" width="7.03" height="7.7" rx="0.57"/><rect class="cls-19" x="86.94" y="84.92" width="7.03" height="7.7" rx="0.57"/><path class="cls-11" d="M76.58,75.44a1.22,1.22,0,0,0-1.21,1.22v7a1.21,1.21,0,0,0,1.21,1.22h42.75a.4.4,0,0,0,.4-.4V75.84a.4.4,0,0,0-.4-.4Z"/><path class="cls-18" d="M100,76.18h19.68a0,0,0,0,1,0,0v8a0,0,0,0,1,0,0H100a.81.81,0,0,1-.81-.81V77A.81.81,0,0,1,100,76.18Z"/><rect class="cls-12" x="62.48" y="75.44" width="35.95" height="9.48" rx="1.4"/><rect class="cls-20" x="68.79" y="77.32" width="26.02" height="5.72" rx="0.85"/><path class="cls-21" d="M89.12,70.9c-.67,0-1.21.32-1.21.72v3.11c0,.39.54.71,1.21.71h39.46c.22,0,.4-.1.4-.23V71.14c0-.13-.18-.24-.4-.24Z"/><path class="cls-18" d="M112.4,71.34H129a0,0,0,0,1,0,0V75a0,0,0,0,1,0,0H112.4a.62.62,0,0,1-.62-.62V72A.62.62,0,0,1,112.4,71.34Z"/><rect class="cls-8" x="68.68" y="70.9" width="42.29" height="4.54" rx="1.07"/><rect class="cls-22" x="68.68" y="70.9" width="42.29" height="4.54" rx="1.07"/><rect class="cls-21" x="73.25" y="70.9" width="1.63" height="4.54" rx="0.21"/><rect class="cls-21" x="106.1" y="70.9" width="1.6" height="4.54" rx="0.21"/><path class="cls-15" d="M82,64.34c-.67,0-1.22.32-1.22.72v5.13c0,.39.55.71,1.22.71h42.74c.22,0,.4-.1.4-.23V64.58c0-.13-.18-.24-.4-.24Z"/><path class="cls-18" d="M105.26,64.78h19.87a0,0,0,0,1,0,0v5.7a0,0,0,0,1,0,0H105.26a.62.62,0,0,1-.62-.62V65.4A.62.62,0,0,1,105.26,64.78Z"/><rect class="cls-16" x="67.89" y="64.34" width="35.95" height="6.56" rx="1.07"/><path class="cls-23" d="M177.33,91.17H141.42a.73.73,0,0,0-.73.72h0a.73.73,0,0,0,.73.73h35.91a.73.73,0,0,0,.73-.73h0A.73.73,0,0,0,177.33,91.17Z"/><polygon class="cls-4" points="247.58 89.45 271.18 89.45 273.31 92.53 245.45 92.53 247.58 89.45"/><path d="M284,36.73a3.18,3.18,0,1,1-3.17-3.17A3.17,3.17,0,0,1,284,36.73Z"/><path class="cls-4" d="M260.16,91.54a1.09,1.09,0,0,1-.39-.08,1,1,0,0,1-.53-1.32L282,36.34a1,1,0,0,1,1.85.78l-22.74,53.8A1,1,0,0,1,260.16,91.54Z"/><path class="cls-4" d="M282.89,37.74a1,1,0,0,1-.6-.2L241,6.59A1,1,0,0,1,242.21,5l41.29,31a1,1,0,0,1-.61,1.81Z"/><path class="cls-4" d="M286.07,36.73a3.18,3.18,0,1,1-3.18-3.17A3.18,3.18,0,0,1,286.07,36.73Z"/><circle class="cls-4" cx="241.6" cy="5.78" r="3.17"/><path class="cls-23" d="M237.17,20.26a7.1,7.1,0,1,1,0-10A7.1,7.1,0,0,1,237.17,20.26Z"/><path class="cls-4" d="M241.6,5.78a15.21,15.21,0,0,0-21.51,0L241.6,27.29A15.19,15.19,0,0,0,241.6,5.78Z"/></g></g></g></svg>