<svg xmlns="http://www.w3.org/2000/svg" xmlns:xlink="http://www.w3.org/1999/xlink" viewBox="0 0 209.51 147.67"><defs><style>.cls-1{fill:none;}.cls-2{isolation:isolate;}.cls-3,.cls-31{fill:#eaeaea;}.cls-3{mix-blend-mode:multiply;}.cls-4{fill:#303160;}.cls-5{fill:#ffd371;}.cls-6{fill:#fa5;}.cls-7{fill:#fff;}.cls-8{opacity:0.29;}.cls-9{fill:#8f5422;}.cls-10{fill:#c97d3d;}.cls-11{fill:#a46631;}.cls-12{clip-path:url(#clip-path);}.cls-13{fill:#e9e9e9;}.cls-14{fill:#e8e8e8;}.cls-15{fill:#e7e7e7;}.cls-16{fill:#e6e6e6;}.cls-17{fill:#e5e5e5;}.cls-18{fill:#e4e4e4;}.cls-19{fill:#e3e3e3;}.cls-20{fill:#e2e2e2;}.cls-21{fill:#e1e1e1;}.cls-22{fill:#dfdfdf;}.cls-23{fill:#dedede;}.cls-24{fill:#ddd;}.cls-25{fill:#dcdcdc;}.cls-26{fill:#dbdbdb;}.cls-27{fill:#dadada;}.cls-28{fill:#d9d9d9;}.cls-29{fill:#ececec;}.cls-30{fill:#ebebeb;}.cls-32{fill:#d8d8d8;}.cls-33{fill:#d7d7d7;}.cls-34{fill:#d6d6d6;}.cls-35{fill:#d5d5d5;}.cls-36{clip-path:url(#clip-path-2);}.cls-37{fill:#8dcfac;}.cls-38{fill:#fcb85e;}.cls-39{clip-path:url(#clip-path-3);}.cls-40{fill:#363638;}.cls-41{fill:#9b4931;}.cls-42{clip-path:url(#clip-path-4);}.cls-43{fill:#bc4623;}.cls-44{fill:#2a0909;}.cls-45{fill:#868686;}.cls-46{fill:#b2b2b2;}.cls-47{fill:#a5a5a5;}</style><clipPath id="clip-path"><path class="cls-1" d="M49.6,55.46A4.45,4.45,0,1,1,53.89,51,4.38,4.38,0,0,1,49.6,55.46Zm0-7.14A2.69,2.69,0,1,0,52.19,51,2.65,2.65,0,0,0,49.6,48.32Z"/></clipPath><clipPath id="clip-path-2"><path class="cls-1" d="M41.83,43.77h4.81a3.43,3.43,0,0,1,3.43,3.43V57.76a0,0,0,0,1,0,0H38.4a0,0,0,0,1,0,0V47.2a3.43,3.43,0,0,1,3.43-3.43Z"/></clipPath><clipPath id="clip-path-3"><rect class="cls-1" x="13.89" y="54.93" width="18.22" height="3.01"/></clipPath><clipPath id="clip-path-4"><rect class="cls-1" x="67.13" y="57.07" width="39" height="1.56"/></clipPath></defs><g class="cls-2"><g id="Layer_2" data-name="Layer 2"><g id="Option_1" data-name="Option 1"><ellipse id="_Path_" data-name="&lt;Path&gt;" class="cls-3" cx="106.23" cy="140.83" rx="103.28" ry="6.83"/><rect class="cls-4" x="41.35" y="17.44" width="58.91" height="35.08" rx="1.78"/><rect class="cls-5" x="43.93" y="19.92" width="53.76" height="30.03"/><rect class="cls-4" x="65.91" y="50.62" width="9.81" height="5.76"/><rect class="cls-6" x="52.96" y="23.03" width="37.86" height="23.09"/><rect class="cls-7" x="80.87" y="24.59" width="5.83" height="11.57"/><rect class="cls-7" x="80.87" y="37.33" width="5.83" height="6.51"/><rect class="cls-7" x="53.49" y="24.07" width="1.58" height="20.65"/><rect class="cls-7" x="61.49" y="26.79" width="15.9" height="15.64"/><rect class="cls-7" x="52.96" y="22.15" width="37.86" height="1.65"/><g class="cls-8"><polygon class="cls-7" points="62.83 19.87 43.81 39.37 43.81 44.02 64.61 19.87 62.83 19.87"/><path class="cls-7" d="M73.25,19.87C72.36,21,50.4,50.09,50.4,50.09h3.87L75,19.87Z"/><polygon class="cls-7" points="91.04 19.92 67.87 50.17 79.45 49.95 93.98 19.98 91.04 19.92"/></g><rect class="cls-4" x="60.91" y="55.46" width="19.81" height="2.49"/><polygon class="cls-9" points="149.09 138.34 161.44 67.77 165.95 59.82 170.04 67.88 184.5 138.56 181.05 138.56 165.8 76.28 151.82 138.39 149.09 138.34"/><polygon class="cls-9" points="26.12 138.34 38.46 67.77 42.98 59.82 47.06 67.88 61.52 138.56 58.07 138.56 42.82 76.28 28.85 138.39 26.12 138.34"/><rect class="cls-10" y="57.81" width="184.33" height="9.96"/><rect class="cls-11" x="28.59" y="57.81" width="155.74" height="9.96"/><g class="cls-12"><rect class="cls-13" x="47.01" y="48.32" width="0.07" height="5.37"/><rect class="cls-14" x="47.08" y="48.32" width="0.36" height="5.37"/><rect class="cls-15" x="47.44" y="48.32" width="0.36" height="5.37"/><rect class="cls-16" x="47.8" y="48.32" width="0.36" height="5.37"/><rect class="cls-17" x="48.15" y="48.32" width="0.36" height="5.37"/><rect class="cls-18" x="48.51" y="48.32" width="0.36" height="5.37"/><rect class="cls-19" x="48.87" y="48.32" width="0.36" height="5.37"/><rect class="cls-20" x="49.23" y="48.32" width="0.36" height="5.37"/><rect class="cls-21" x="49.59" y="48.32" width="0.36" height="5.37"/><rect class="cls-22" x="49.95" y="48.32" width="0.36" height="5.37"/><rect class="cls-23" x="50.31" y="48.32" width="0.36" height="5.37"/><rect class="cls-24" x="50.66" y="48.32" width="0.36" height="5.37"/><rect class="cls-25" x="51.02" y="48.32" width="0.36" height="5.37"/><rect class="cls-26" x="51.38" y="48.32" width="0.36" height="5.37"/><rect class="cls-27" x="51.74" y="48.32" width="0.36" height="5.37"/><rect class="cls-28" x="52.1" y="48.32" width="0.1" height="5.37"/><rect class="cls-29" x="45.31" y="46.57" width="0.34" height="8.89"/><rect class="cls-29" x="45.65" y="46.57" width="0.36" height="8.89"/><rect class="cls-30" x="46" y="46.57" width="0.36" height="8.89"/><rect class="cls-31" x="46.36" y="46.57" width="0.36" height="8.89"/><rect class="cls-13" x="46.72" y="46.57" width="0.36" height="8.89"/><rect class="cls-14" x="47.08" y="46.57" width="0.36" height="8.89"/><rect class="cls-15" x="47.44" y="46.57" width="0.36" height="8.89"/><rect class="cls-16" x="47.8" y="46.57" width="0.36" height="8.89"/><rect class="cls-17" x="48.15" y="46.57" width="0.36" height="8.89"/><rect class="cls-18" x="48.51" y="46.57" width="0.36" height="8.89"/><rect class="cls-19" x="48.87" y="46.57" width="0.36" height="8.89"/><rect class="cls-20" x="49.23" y="46.57" width="0.36" height="8.89"/><rect class="cls-21" x="49.59" y="46.57" width="0.36" height="8.89"/><rect class="cls-22" x="49.95" y="46.57" width="0.36" height="8.89"/><rect class="cls-23" x="50.31" y="46.57" width="0.36" height="8.89"/><rect class="cls-24" x="50.66" y="46.57" width="0.36" height="8.89"/><rect class="cls-25" x="51.02" y="46.57" width="0.36" height="8.89"/><rect class="cls-26" x="51.38" y="46.57" width="0.36" height="8.89"/><rect class="cls-27" x="51.74" y="46.57" width="0.36" height="8.89"/><rect class="cls-28" x="52.1" y="46.57" width="0.36" height="8.89"/><rect class="cls-32" x="52.46" y="46.57" width="0.36" height="8.89"/><rect class="cls-33" x="52.82" y="46.57" width="0.36" height="8.89"/><rect class="cls-34" x="53.17" y="46.57" width="0.36" height="8.89"/><rect class="cls-35" x="53.53" y="46.57" width="0.36" height="8.89"/><path class="cls-35" d="M53.89,55.46v0Z"/></g><g class="cls-36"><rect class="cls-29" x="38.4" y="43.77" width="0.46" height="13.99"/><rect class="cls-29" x="38.85" y="43.77" width="0.49" height="13.99"/><rect class="cls-30" x="39.34" y="43.77" width="0.49" height="13.99"/><rect class="cls-31" x="39.83" y="43.77" width="0.49" height="13.99"/><rect class="cls-13" x="40.32" y="43.77" width="0.49" height="13.99"/><rect class="cls-14" x="40.81" y="43.77" width="0.49" height="13.99"/><rect class="cls-15" x="41.29" y="43.77" width="0.49" height="13.99"/><rect class="cls-16" x="41.78" y="43.77" width="0.49" height="13.99"/><rect class="cls-17" x="42.27" y="43.77" width="0.49" height="13.99"/><rect class="cls-18" x="42.76" y="43.77" width="0.49" height="13.99"/><rect class="cls-19" x="43.24" y="43.77" width="0.49" height="13.99"/><rect class="cls-20" x="43.73" y="43.77" width="0.49" height="13.99"/><rect class="cls-21" x="44.22" y="43.77" width="0.49" height="13.99"/><rect class="cls-22" x="44.71" y="43.77" width="0.49" height="13.99"/><rect class="cls-23" x="45.2" y="43.77" width="0.49" height="13.99"/><rect class="cls-24" x="45.68" y="43.77" width="0.49" height="13.99"/><rect class="cls-25" x="46.17" y="43.77" width="0.49" height="13.99"/><rect class="cls-26" x="46.66" y="43.77" width="0.49" height="13.99"/><rect class="cls-27" x="47.15" y="43.77" width="0.49" height="13.99"/><rect class="cls-28" x="47.63" y="43.77" width="0.49" height="13.99"/><rect class="cls-32" x="48.12" y="43.77" width="0.49" height="13.99"/><rect class="cls-33" x="48.61" y="43.77" width="0.49" height="13.99"/><rect class="cls-34" x="49.1" y="43.77" width="0.49" height="13.99"/><rect class="cls-35" x="49.59" y="43.77" width="0.49" height="13.99"/><path class="cls-35" d="M50.07,57.76v0Z"/></g><path class="cls-4" d="M50,46.39H38.34a.27.27,0,1,1,0-.53H50a.27.27,0,1,1,0,.53Z"/><path class="cls-4" d="M50,48H38.34a.27.27,0,0,1,0-.54H50A.27.27,0,0,1,50,48Z"/><path class="cls-9" d="M27,52.6a.23.23,0,0,1-.17-.07.27.27,0,0,1,0-.37s1.56-1.82,1.07-3.21a.28.28,0,0,1,.17-.34.26.26,0,0,1,.34.16c.58,1.69-1.1,3.65-1.18,3.74A.25.25,0,0,1,27,52.6Z"/><ellipse class="cls-37" cx="27.02" cy="53.47" rx="3.48" ry="3.4"/><path class="cls-38" d="M17.5,51.94h2.79a2,2,0,0,1,2,2v2.46a0,0,0,0,1,0,0H15.51a0,0,0,0,1,0,0V53.93A2,2,0,0,1,17.5,51.94Z"/><g class="cls-39"><rect class="cls-29" x="13.89" y="54.93" width="0.71" height="3.01"/><rect class="cls-29" x="14.6" y="54.93" width="0.76" height="3.01"/><rect class="cls-30" x="15.36" y="54.93" width="0.76" height="3.01"/><rect class="cls-31" x="16.13" y="54.93" width="0.76" height="3.01"/><rect class="cls-13" x="16.89" y="54.93" width="0.76" height="3.01"/><rect class="cls-14" x="17.65" y="54.93" width="0.76" height="3.01"/><rect class="cls-15" x="18.41" y="54.93" width="0.76" height="3.01"/><rect class="cls-16" x="19.17" y="54.93" width="0.76" height="3.01"/><rect class="cls-17" x="19.93" y="54.93" width="0.76" height="3.01"/><rect class="cls-18" x="20.69" y="54.93" width="0.76" height="3.01"/><rect class="cls-19" x="21.45" y="54.93" width="0.76" height="3.01"/><rect class="cls-20" x="22.21" y="54.93" width="0.76" height="3.01"/><rect class="cls-21" x="22.97" y="54.93" width="0.76" height="3.01"/><rect class="cls-22" x="23.73" y="54.93" width="0.76" height="3.01"/><rect class="cls-23" x="24.5" y="54.93" width="0.76" height="3.01"/><rect class="cls-24" x="25.26" y="54.93" width="0.76" height="3.01"/><rect class="cls-25" x="26.02" y="54.93" width="0.76" height="3.01"/><rect class="cls-26" x="26.78" y="54.93" width="0.76" height="3.01"/><rect class="cls-27" x="27.54" y="54.93" width="0.76" height="3.01"/><rect class="cls-28" x="28.3" y="54.93" width="0.76" height="3.01"/><rect class="cls-32" x="29.06" y="54.93" width="0.76" height="3.01"/><rect class="cls-33" x="29.82" y="54.93" width="0.76" height="3.01"/><rect class="cls-34" x="30.58" y="54.93" width="0.76" height="3.01"/><rect class="cls-35" x="31.34" y="54.93" width="0.76" height="3.01"/><path class="cls-35" d="M32.1,57.94v0Z"/></g><path class="cls-40" d="M173,35.91a4.94,4.94,0,0,1-5,5,5,5,0,0,1,0-10C170.78,30.91,173,33.85,173,35.91Z"/><path class="cls-40" d="M180.86,45.93c.66,6.14.8,12.16-7.42,12.16-6.27,0-7.94-4.63-7.6-11.7s2.37-14.14,6.16-12.33C176.2,36.06,180.2,39.74,180.86,45.93Z"/><path class="cls-40" d="M185.7,70.42h0a1.29,1.29,0,0,1-1.23-1.34s.1-2.38,0-4.91c-.2-4.34-1-5.1-1.54-5.4a37.57,37.57,0,0,0-7.75-1.25A1.29,1.29,0,0,1,174,56.13,1.28,1.28,0,0,1,175.33,55c1.79.16,7.76.73,9.36,1.58.84.45,1.4,1.44,1.77,3.12a25.57,25.57,0,0,1,.49,4.1c.15,2.75,0,5.33,0,5.44A1.28,1.28,0,0,1,185.7,70.42Zm-2.22-11.56Z"/><path class="cls-40" d="M163.85,35.68l-2-1.85a.32.32,0,0,1,.2-.56l2.66-.15Z"/><path class="cls-40" d="M169.4,31.39l-1.25-1.83a.19.19,0,0,0-.36.06l-.55,1.9Z"/><path class="cls-40" d="M167.73,46.82a1.28,1.28,0,0,1-1.11-1.33,1.82,1.82,0,0,0-.83-1.7,1.41,1.41,0,0,0-1.1-.25,1.28,1.28,0,0,1-1.56-2,3.52,3.52,0,0,1,3.69-.07,4.37,4.37,0,0,1,2.36,4.17,1.29,1.29,0,0,1-1.34,1.23Z"/><path class="cls-40" d="M169.8,55.45c-.34,0-5.82-.33-5.84,1.16s.71,1.23,2.71,1.23l5.17,0Z"/><polygon class="cls-38" points="119.72 19.35 113.8 19.35 115.04 13.69 120.96 13.69 119.72 19.35"/><path class="cls-41" d="M107.67,132.33c1.82-8.55,7.6-54.54,3.06-55.52-8.41-1.81-10,8-10.67,15.82-.36,4.08,2.28,42.31,2.7,42.12C104.71,133.85,107.67,132.33,107.67,132.33Z"/><path class="cls-41" d="M107.66,132c0,1.89.78,5.57-.22,6s-14.91.64-14.91-.05,3.49-.7,6.51-2.18,3.79-2.36,3.79-3.31S107.66,132,107.66,132Z"/><path class="cls-40" d="M99.68,98.8c1.32,2.44,11.29,2,13.22,1,1-.47,1-15.29,1-15.29l-13.72-3.2C99.94,82.61,98.36,96.35,99.68,98.8Z"/><path class="cls-41" d="M76,116.43c3.16-6,7.32-40,13.4-40.82,7.83-1,14.83.14,1.56,24.17a144.86,144.86,0,0,0-9,18.61Z"/><path class="cls-41" d="M76.55,115.1c-.93,2-3.9,6.8-8.12,6.78s-2.31,2.12,1.11,2.51,7.1-3.13,10.16-2.38,2.4-3.28,3.33-5.81S76.55,115.1,76.55,115.1Z"/><path class="cls-40" d="M117.17,69.08c-9.08-.28-29-2.45-31,5a89.44,89.44,0,0,0-4.44,18c-.2,1.43,8.76,6.7,11.28,4.35s4.39-10.2,5.61-11.69c1.38-1.69,4.75,1.9,9.12,1.17C116.32,84.46,117.17,69.08,117.17,69.08Z"/><g class="cls-42"><rect class="cls-29" x="67.13" y="57.07" width="1.53" height="1.56"/><rect class="cls-29" x="68.66" y="57.07" width="1.63" height="1.56"/><rect class="cls-30" x="70.29" y="57.07" width="1.63" height="1.56"/><rect class="cls-31" x="71.91" y="57.07" width="1.63" height="1.56"/><rect class="cls-13" x="73.54" y="57.07" width="1.63" height="1.56"/><rect class="cls-14" x="75.17" y="57.07" width="1.63" height="1.56"/><rect class="cls-15" x="76.8" y="57.07" width="1.63" height="1.56"/><rect class="cls-16" x="78.43" y="57.07" width="1.63" height="1.56"/><rect class="cls-17" x="80.06" y="57.07" width="1.63" height="1.56"/><rect class="cls-18" x="81.69" y="57.07" width="1.63" height="1.56"/><rect class="cls-19" x="83.32" y="57.07" width="1.63" height="1.56"/><rect class="cls-20" x="84.95" y="57.07" width="1.63" height="1.56"/><rect class="cls-21" x="86.58" y="57.07" width="1.63" height="1.56"/><rect class="cls-22" x="88.2" y="57.07" width="1.63" height="1.56"/><rect class="cls-23" x="89.83" y="57.07" width="1.63" height="1.56"/><rect class="cls-24" x="91.46" y="57.07" width="1.63" height="1.56"/><rect class="cls-25" x="93.09" y="57.07" width="1.63" height="1.56"/><rect class="cls-26" x="94.72" y="57.07" width="1.63" height="1.56"/><rect class="cls-27" x="96.35" y="57.07" width="1.63" height="1.56"/><rect class="cls-28" x="97.98" y="57.07" width="1.63" height="1.56"/><rect class="cls-32" x="99.61" y="57.07" width="1.63" height="1.56"/><rect class="cls-33" x="101.24" y="57.07" width="1.63" height="1.56"/><rect class="cls-34" x="102.87" y="57.07" width="1.63" height="1.56"/><rect class="cls-35" x="104.5" y="57.07" width="1.63" height="1.56"/><path class="cls-35" d="M106.12,58.63v0Z"/></g><path class="cls-41" d="M74.13,57.07a11.44,11.44,0,0,1,9.08-4.35H87l-.4,4.35Z"/><path class="cls-6" d="M81.71,58.7s-1-3.94,1.5-5.94c2.93-2.32,7-2.24,9.67-2.59,8.37-1.12,8.44,0,8.44,0L97,58.7Z"/><path class="cls-43" d="M93.68,53a.26.26,0,0,1-.26-.22c0-.06-.21-1.38,1.48-3.07a.26.26,0,0,1,.38,0,.27.27,0,0,1,0,.37c-1.5,1.5-1.34,2.59-1.34,2.61a.25.25,0,0,1-.21.3Z"/><path class="cls-41" d="M125.14,10.78c1.26,5.09-.57,11.6-5,12.69s-8.77-3.54-10-8.63.18-11.54,4.59-12.63S123.89,5.69,125.14,10.78Z"/><polygon class="cls-41" points="127.14 25.89 124.78 17.3 117.82 17.99 119.16 25.07 123.11 27.87 127.14 25.89"/><path class="cls-44" d="M110,8c-.09,2,3.92,2.13,4.26,3.78.39,1.93,4.38,7.81,7.32,8.68s2.79-.1,4.4-1.71c1.83-1.83,5.17-13.88-2.79-16.76S110.27,2.79,110,8Z"/><circle class="cls-44" cx="125.37" cy="5.07" r="4.47"/><path class="cls-44" d="M110.2,13.26h-.26a.51.51,0,0,1-.51-.5h0a.51.51,0,0,1,.51-.51h.26a.51.51,0,0,1,.51.51h0A.51.51,0,0,1,110.2,13.26Z"/><path class="cls-44" d="M112.63,4a1,1,0,1,1-1-1A1,1,0,0,1,112.63,4Z"/><path class="cls-44" d="M112.1,5a1,1,0,1,1-.95-1A1,1,0,0,1,112.1,5Z"/><path class="cls-44" d="M111.8,6a1,1,0,1,1-1-1A1,1,0,0,1,111.8,6Z"/><path class="cls-44" d="M111.43,7.38a1,1,0,1,1-1-1A1,1,0,0,1,111.43,7.38Z"/><path class="cls-44" d="M112,8.77a1,1,0,1,1-1-.95A1,1,0,0,1,112,8.77Z"/><circle class="cls-44" cx="112.1" cy="9.81" r="0.95"/><path class="cls-41" d="M115.94,14.2c-.42,1.42-1.52,2.38-2.63,2.05a2.46,2.46,0,0,1-1.25-3.18c.42-1.42,1.54-2.27,2.65-1.94S116.36,12.78,115.94,14.2Z"/><path class="cls-44" d="M114.14,11.1a1,1,0,1,1-1-.95A.94.94,0,0,1,114.14,11.1Z"/><circle class="cls-44" cx="113.19" cy="12.56" r="0.95"/><path class="cls-44" d="M113.88,3.05a.95.95,0,1,1-.95-.95A.95.95,0,0,1,113.88,3.05Z"/><path class="cls-44" d="M115.1,2.1a1,1,0,1,1-1-1A1,1,0,0,1,115.1,2.1Z"/><path class="cls-44" d="M116.5,1.73a1,1,0,1,1-1-1A.95.95,0,0,1,116.5,1.73Z"/><path class="cls-44" d="M117.91,1.54a1,1,0,1,1-1-1A.95.95,0,0,1,117.91,1.54Z"/><path class="cls-44" d="M119.16,1.54a1,1,0,1,1-1-1A1,1,0,0,1,119.16,1.54Z"/><path class="cls-44" d="M120.45,1.54a1,1,0,1,1-1-1A.95.95,0,0,1,120.45,1.54Z"/><circle class="cls-44" cx="120.73" cy="1.73" r="0.95"/><path class="cls-44" d="M124.43,1.54a1,1,0,1,1-1-1A1,1,0,0,1,124.43,1.54Z"/><path class="cls-44" d="M125.94,1A1,1,0,1,1,125,0,1,1,0,0,1,125.94,1Z"/><path class="cls-44" d="M127.46,1a1,1,0,1,1-1-.95A1,1,0,0,1,127.46,1Z"/><path class="cls-44" d="M128.6,1.54a1,1,0,1,1-.95-1A.95.95,0,0,1,128.6,1.54Z"/><path class="cls-44" d="M129.56,2.56a1,1,0,1,1-1-.95A1,1,0,0,1,129.56,2.56Z"/><path class="cls-44" d="M130.2,4a1,1,0,1,1-1-1A1,1,0,0,1,130.2,4Z"/><path class="cls-44" d="M130.31,5.08a.95.95,0,1,1-.95-1A.94.94,0,0,1,130.31,5.08Z"/><path class="cls-44" d="M130,6.5a.95.95,0,1,1-.95-1A.95.95,0,0,1,130,6.5Z"/><path class="cls-44" d="M129.3,7.66a1,1,0,1,1-1-1A1,1,0,0,1,129.3,7.66Z"/><path class="cls-44" d="M122.64,2.05a1,1,0,1,1-1-1A1,1,0,0,1,122.64,2.05Z"/><path class="cls-44" d="M123.76,2.49a1,1,0,1,1-1-1A1,1,0,0,1,123.76,2.49Z"/><circle class="cls-44" cx="124.23" cy="3" r="0.95"/><path class="cls-44" d="M126.12,3.82a1,1,0,1,1-1-.95A1,1,0,0,1,126.12,3.82Z"/><circle class="cls-44" cx="125.94" cy="4.47" r="0.95"/><path class="cls-44" d="M127.84,5.48a1,1,0,1,1-1-1A.94.94,0,0,1,127.84,5.48Z"/><path class="cls-44" d="M128.29,6.87a1,1,0,1,1-.95-1A1,1,0,0,1,128.29,6.87Z"/><path class="cls-44" d="M128.6,8.26a1,1,0,1,1-.95-1A.95.95,0,0,1,128.6,8.26Z"/><path class="cls-44" d="M128.6,9.57a.95.95,0,1,1-.95-1A.94.94,0,0,1,128.6,9.57Z"/><path class="cls-44" d="M128.8,10.43a1,1,0,1,1-1-.95A1,1,0,0,1,128.8,10.43Z"/><path class="cls-44" d="M128.6,11.72a.95.95,0,1,1-.95-1A.95.95,0,0,1,128.6,11.72Z"/><path class="cls-44" d="M128.41,13a1,1,0,1,1-1-1A1,1,0,0,1,128.41,13Z"/><path class="cls-44" d="M128.1,14.38a1,1,0,1,1-1-1A1,1,0,0,1,128.1,14.38Z"/><path class="cls-44" d="M127.84,15.58a1,1,0,1,1-1-.95A.94.94,0,0,1,127.84,15.58Z"/><path class="cls-44" d="M127.34,17a1,1,0,1,1-1-1A1,1,0,0,1,127.34,17Z"/><path class="cls-44" d="M126.69,18.23a1,1,0,1,1-1-.95A1,1,0,0,1,126.69,18.23Z"/><path class="cls-44" d="M125.94,19.18a1,1,0,1,1-1-.95A1,1,0,0,1,125.94,19.18Z"/><path class="cls-44" d="M123.28,20a1,1,0,1,1-1-1A1,1,0,0,1,123.28,20Z"/><path class="cls-44" d="M121.69,19.41a1,1,0,1,1-1-.95A1,1,0,0,1,121.69,19.41Z"/><path class="cls-44" d="M120.3,18.73a1,1,0,1,1-1-1A1,1,0,0,1,120.3,18.73Z"/><path class="cls-44" d="M118.77,17.61a1,1,0,1,1-1-.95A.94.94,0,0,1,118.77,17.61Z"/><path class="cls-44" d="M117.82,16.53a1,1,0,1,1-.95-1A1,1,0,0,1,117.82,16.53Z"/><path class="cls-44" d="M117.09,15.46a1,1,0,1,1-1-1A.95.95,0,0,1,117.09,15.46Z"/><path class="cls-6" d="M110.34,24.48C107,27.88,91.48,51.91,94.21,56c.52.78,1.68,2.48,2.72,2.54,11,.67,16-17.78,16-17.78S111,61,111.39,70.34c.25,6.13-.45,9.64,4.55,10,17.82,1.21,19.14-.13,21.86-2.71s1.32-23.49,1.32-23.49-3.36.51,5.95.26c5-.14-2.14-22.69-10.68-30.57-2.24-2.07-7.92-1.36-10.8-1.42C117.42,22.26,111.51,23.31,110.34,24.48Z"/><path class="cls-43" d="M110.11,47.52a.24.24,0,0,1-.19-.08.27.27,0,0,1,0-.37c1.77-1.77,5.92-11.34,6-11.44a.27.27,0,1,1,.49.21c-.17.4-4.24,9.77-6.07,11.6A.25.25,0,0,1,110.11,47.52Z"/><path class="cls-43" d="M139.44,42.7a.27.27,0,0,1-.27-.25c0-.07-.23-6.48-1.3-9.78a.25.25,0,0,1,.17-.33.27.27,0,0,1,.34.17c1.09,3.37,1.32,9.65,1.33,9.92a.27.27,0,0,1-.26.27Z"/><circle class="cls-45" cx="141.59" cy="135.49" r="3.3"/><circle class="cls-46" cx="139.54" cy="135.49" r="3.3"/><rect class="cls-47" x="125.31" y="89.34" width="4.54" height="44.29"/><path class="cls-46" d="M140.57,134.84h-26a3.06,3.06,0,0,1,3.07-3.07h19.83a3.07,3.07,0,0,1,3.08,3.07Z"/><circle class="cls-45" cx="114.69" cy="135.49" r="3.3"/><circle class="cls-46" cx="112.63" cy="135.49" r="3.3"/><circle class="cls-45" cx="132.29" cy="135.49" r="3.3"/><circle class="cls-46" cx="130.24" cy="135.49" r="3.3"/><path class="cls-17" d="M104.54,85.9h18.95a0,0,0,0,1,0,0v7a0,0,0,0,1,0,0H101.41a.48.48,0,0,1-.48-.48V89.5A3.61,3.61,0,0,1,104.54,85.9Z"/><path class="cls-46" d="M112.81,90.28h27.87a0,0,0,0,1,0,0v2.53a3.61,3.61,0,0,1-3.61,3.61h-23.5a.77.77,0,0,1-.77-.77V90.28a0,0,0,0,1,0,0Z"/><path class="cls-27" d="M143.17,91H111.79a2.22,2.22,0,0,1-1.9-2.43,273.62,273.62,0,0,0,0-43.89c0-2.14,1.36-3.88,3-3.88a261.2,261.2,0,0,0,29.08,0c1.69,0,3,1.74,3,3.88,2.36,15.67,2.76,30.48,0,43.89A2.22,2.22,0,0,1,143.17,91Z"/><path class="cls-17" d="M114.55,86.21a224.65,224.65,0,0,0,0-41.74A3.68,3.68,0,0,1,116.68,41c-1.25-.05-2.49-.1-3.74-.17-1.69,0-3,1.65-3,3.69a247.56,247.56,0,0,1,0,41.74,2.13,2.13,0,0,0,1.9,2.31h4.66A2.13,2.13,0,0,1,114.55,86.21Z"/><path class="cls-44" d="M117.23,19.42a1,1,0,0,1-.71-.27.23.23,0,0,1,.33-.33.8.8,0,0,0,1-.09c.21-.17.64-.65.09-1.53a.23.23,0,0,1,.08-.32.23.23,0,0,1,.32.07,1.53,1.53,0,0,1-.2,2.15A1.47,1.47,0,0,1,117.23,19.42Z"/><path class="cls-44" d="M129.36,13.66a.23.23,0,0,1-.23-.24.56.56,0,0,0-.41-.49,1.29,1.29,0,0,0-1.4.48.23.23,0,1,1-.36-.3,1.75,1.75,0,0,1,1.92-.62,1,1,0,0,1,.72.93A.24.24,0,0,1,129.36,13.66Z"/></g></g></g></svg>