<svg xmlns="http://www.w3.org/2000/svg" viewBox="0 0 26 26"><defs><style>.cls-1{fill:#fa5;}</style></defs><g id="Layer_2" data-name="Layer 2"><g id="Option_1" data-name="Option 1"><path class="cls-1" d="M13,0A13,13,0,1,0,26,13,13,13,0,0,0,13,0ZM3.36,5.73a12.14,12.14,0,0,1,5.56-4.1L10,1.25l-.69.88A12.9,12.9,0,0,0,7.29,6l-.07.22H3ZM1,12.2A11.84,11.84,0,0,1,2.34,7.33l.09-.17H7l-.09.39a23.39,23.39,0,0,0-.6,4.68v.31H.93Zm1.39,6.47A11.88,11.88,0,0,1,1,13.8l0-.34H6.25v.31a23.29,23.29,0,0,0,.6,4.67l.09.4H2.43Zm6.58,5.7a12.14,12.14,0,0,1-5.56-4.1L3,19.76H7.22l.07.22a12.9,12.9,0,0,0,2,3.89l.69.88Zm3.62.7-.42-.14a5,5,0,0,1-2.37-2,12.71,12.71,0,0,1-1.41-2.77l-.16-.43h4.36Zm0-6.23H7.91l-.06-.24a21.72,21.72,0,0,1-.67-4.81v-.33h5.37Zm0-6.3H7.17v-.33A21.72,21.72,0,0,1,7.85,7.4l.06-.24h4.63Zm0-6.3H8.18l.16-.43A12.71,12.71,0,0,1,9.75,3a5,5,0,0,1,2.37-2l.42-.14ZM13.46.93l.42.14a5,5,0,0,1,2.37,2,12.71,12.71,0,0,1,1.41,2.77l.16.43H13.46Zm0,6.23h4.63l.06.24a21.72,21.72,0,0,1,.67,4.81v.33H13.46Zm0,6.3h5.37v.33a21.72,21.72,0,0,1-.67,4.81l-.06.24H13.46Zm.42,11.47-.42.14V19.75h4.36l-.16.43A12.54,12.54,0,0,1,16.25,23,5,5,0,0,1,13.88,24.93Zm8.76-4.67a12.14,12.14,0,0,1-5.56,4.11l-1,.38.69-.88a12.84,12.84,0,0,0,2-3.9l.07-.22H23Zm2.41-6.46a11.92,11.92,0,0,1-1.39,4.87l-.09.17H19.05l.09-.4a23.29,23.29,0,0,0,.6-4.67v-.31h5.32ZM23.66,7.33a11.88,11.88,0,0,1,1.39,4.87l0,.34H19.75v-.31a23.29,23.29,0,0,0-.6-4.67l-.09-.4h4.52ZM23,6.24H18.78L18.71,6a12.9,12.9,0,0,0-2-3.89L16,1.25l1,.38a12.14,12.14,0,0,1,5.56,4.1Z"/></g></g></svg>