<svg xmlns="http://www.w3.org/2000/svg" viewBox="0 0 41.98 42.68"><defs><style>.cls-1{fill:#fa5;}</style></defs><g id="Layer_2" data-name="Layer 2"><g id="Option_1" data-name="Option 1"><path class="cls-1" d="M21,8.56a4.28,4.28,0,1,0-4.28-4.28A4.3,4.3,0,0,0,21,8.56Zm0-7.13a2.85,2.85,0,1,1-2.85,2.85A2.85,2.85,0,0,1,21,1.43Z"/><path class="cls-1" d="M36,23.53a4.28,4.28,0,1,0,4.28,4.28A4.28,4.28,0,0,0,36,23.53Zm0,7.13a2.85,2.85,0,1,1,2.85-2.85A2.86,2.86,0,0,1,36,30.66Z"/><path class="cls-1" d="M6,32.09a4.28,4.28,0,1,0-4.28-4.28A4.28,4.28,0,0,0,6,32.09ZM6,25a2.85,2.85,0,1,1-2.86,2.85A2.85,2.85,0,0,1,6,25Z"/><path class="cls-1" d="M28.06,36.21a.71.71,0,0,0-.93-.38,15.78,15.78,0,0,1-10.17.7l.66-.2a.71.71,0,1,0-.4-1.36l-2.85.83,0,0a.81.81,0,0,0-.18.1l-.07,0a.64.64,0,0,0-.18.25.71.71,0,0,0-.05.29c0,.1,0,.19.07.29a0,0,0,0,0,0,0l1.42,2.73a.72.72,0,0,0,1,.3.71.71,0,0,0,.3-1l-.58-1.11a17.11,17.11,0,0,0,11.63-.64.7.7,0,0,0,.38-.93Z"/><path class="cls-1" d="M27.13,7a15.65,15.65,0,0,1,9.43,12.6l-.81-.8a.7.7,0,0,0-1,0,.72.72,0,0,0,0,1l2.13,2.13a.72.72,0,0,0,1,0h0L40,19.76a.71.71,0,1,0-1-1l-1,1A17.08,17.08,0,0,0,27.69,5.64.71.71,0,1,0,27.13,7Z"/><path class="cls-1" d="M15.22,6.58a.83.83,0,0,0,0-.15l0-.12a.89.89,0,0,0,0-.14.49.49,0,0,0,0-.12V6s0,0,0,0l-.07-.09a.5.5,0,0,0-.08-.12L15,5.7l-.08,0L12,4.34a.71.71,0,0,0-.93.39.71.71,0,0,0,.33.91l1.48.68a17.06,17.06,0,0,0-9,15.07.71.71,0,0,0,1.42,0A15.69,15.69,0,0,1,13,7.88L12.5,9a.71.71,0,0,0,.34.95.64.64,0,0,0,.31.07.72.72,0,0,0,.64-.4l1.42-3Z"/><path class="cls-1" d="M21,9.35a6,6,0,0,0-6,6v3.1a.67.67,0,0,0,.67.67h10.7a.67.67,0,0,0,.67-.67v-3.1A6,6,0,0,0,21,9.35Zm4.68,8.45H16.31V15.37a4.68,4.68,0,0,1,9.36,0Z"/><path class="cls-1" d="M6,32.9a6,6,0,0,0-6,6V42a.67.67,0,0,0,.67.67H11.36A.67.67,0,0,0,12,42V38.92A6,6,0,0,0,6,32.9Zm4.68,8.44H1.34V38.92a4.68,4.68,0,0,1,9.36,0Z"/><path class="cls-1" d="M36,32.9a6,6,0,0,0-6,6V42a.67.67,0,0,0,.66.67h10.7A.67.67,0,0,0,42,42V38.92A6,6,0,0,0,36,32.9Zm4.68,8.44H31.28V38.92a4.68,4.68,0,1,1,9.36,0Z"/></g></g></svg>