<svg xmlns="http://www.w3.org/2000/svg" viewBox="0 0 187.38 167.52"><defs><style>.cls-1{isolation:isolate;}.cls-2{opacity:0.25;}.cls-3{fill:#75c189;}.cls-4{mix-blend-mode:multiply;}.cls-5{fill:#eaeaea;}.cls-6{fill:#4d965e;}.cls-7{fill:#ff5146;}.cls-8{fill:#cc1525;}.cls-9{fill:#ff9e86;}.cls-10{fill:#00433b;}.cls-11{fill:#006c60;}.cls-12{fill:#ff7e6a;}.cls-13{fill:#260a05;}.cls-14{opacity:0.5;}.cls-15{fill:#fff;}.cls-16{fill:#088;}.cls-17{fill:gray;}.cls-18{fill:#ffad4d;}.cls-19{fill:#594b53;}.cls-20{fill:#fa5;}.cls-21{fill:#ffd371;}.cls-22{fill:#ec7738;}</style></defs><g class="cls-1"><g id="Layer_2" data-name="Layer 2"><g id="Option_1" data-name="Option 1"><g class="cls-2"><path class="cls-3" d="M182.2,50.13c4.85,8.75,7.78,20.27,2,28.38-3.46,4.8-9.41,7.43-12.41,12.54-3.86,6.57-1.66,15,1.32,22s6.75,14.31,5.71,21.88c-1.37,10-11.2,17.11-21.08,17.94s-19.53-3.44-27.81-9S113.79,131.42,104,130c-8.32-1.2-16.63,2-24.11,5.82s-14.69,8.53-22.8,10.73c-15.55,4.21-33.34-2.05-43-15.12S3.62,99.3,12,85.36c2.9-4.82,6.89-10.75,3.83-15.46C13.08,65.66,6.53,66,3.07,62.34c-3.95-4.2-1.88-11.17,1.1-16.13A61.36,61.36,0,0,1,28.63,23.32S112.16-24.61,156.82,17C175.65,34.48,182.2,50.13,182.2,50.13Z"/></g><g class="cls-4"><ellipse class="cls-5" cx="78.41" cy="159.95" rx="76.52" ry="7.56"/></g><path class="cls-3" d="M121.31,148.72a30.69,30.69,0,0,1-3,2.57c-5.32,4.09-12.67,7-22.44,8-49.94,5-66.44-18.43-70.48-54.48-1.8-16.06,2.41-26.66,7.63-33.48.54-.71,1.1-1.38,1.66-2,.32-.36.64-.71,1-1a29.71,29.71,0,0,1,26-8.54C69.23,61,76.05,65,81.59,73c8.85,12.82.48,23.84,25.78,24.58C126.74,98.13,139,131.06,121.31,148.72Z"/><path class="cls-6" d="M44.84,70.88s-5.9,12.63.92,35.83,15.85,21.37,21.68,21.37c10.2,0,30.84-9.61,34.88-17.17s-3.58-8-17.84-9.13S59.59,65.87,44.84,70.88Z"/><path class="cls-6" d="M57.65,137.81a.43.43,0,0,1-.31-.13.43.43,0,0,1,0-.6,52.57,52.57,0,0,1,13.15-9.24,29.7,29.7,0,0,1,5.8-2.22.43.43,0,0,1,.51.32.44.44,0,0,1-.32.51c-.11,0-9,2.14-18.55,11.25A.48.48,0,0,1,57.65,137.81Z"/><path class="cls-6" d="M59.34,132.13A.44.44,0,0,1,59,132a.42.42,0,0,1,.12-.59,29.24,29.24,0,0,1,12.29-4.09.43.43,0,1,1,.09.85,29,29,0,0,0-11.91,3.94A.39.39,0,0,1,59.34,132.13Z"/><path class="cls-6" d="M43.94,97a.43.43,0,0,1-.43-.37,23.77,23.77,0,0,0-4.39-11,21.68,21.68,0,0,0-3.51-3.84.42.42,0,1,1,.52-.66,21.15,21.15,0,0,1,3.66,4,24.68,24.68,0,0,1,4.57,11.38A.42.42,0,0,1,44,97Z"/><path class="cls-6" d="M121.31,148.72a30.69,30.69,0,0,1-3,2.57,54.6,54.6,0,0,1-21.91,7.07,66.39,66.39,0,0,1-7.73.44,68.52,68.52,0,0,1-21-3.29c-17.53-5.68-30.18-17.83-35.62-34.21a79.62,79.62,0,0,1-4.35-26A58.79,58.79,0,0,1,30.9,76.6a51.87,51.87,0,0,1,2.17-5.28c.54-.71,1.1-1.38,1.66-2,.32-.36.64-.71,1-1a49.33,49.33,0,0,0-4,8.68c-3.13,9-5.47,24,1.2,44.08,5.35,16.1,17.79,28.05,35,33.63,18.33,5.94,39.53,3.53,52.76-6A.43.43,0,0,1,121.31,148.72Z"/><path class="cls-7" d="M48.07,56.28s-6.9-7.05,3.14-12S73.09,46.89,75,52.42,48.07,56.28,48.07,56.28Z"/><path class="cls-8" d="M60.06,51.45a.23.23,0,0,1-.17-.07c-2.74-2.34-7.33-2.13-7.38-2.13h0a.27.27,0,0,1-.27-.25.28.28,0,0,1,.25-.28c.2,0,4.86-.22,7.76,2.26a.27.27,0,0,1,0,.37A.3.3,0,0,1,60.06,51.45Z"/><path class="cls-8" d="M53.33,51.78a.25.25,0,0,1-.23-.14.27.27,0,0,1,.11-.36c.13-.07,3.31-1.74,5.56-1.22a.27.27,0,0,1-.12.52c-2.06-.48-5.16,1.15-5.19,1.17A.31.31,0,0,1,53.33,51.78Z"/><path class="cls-9" d="M122.82,144.48l3.54,6.52a70.23,70.23,0,0,0,9.51,1.42c7.86.6,10.19-.63,10.75,1.12.43,1.37-5.55,4.46-8.31,5s-8.81,3-12.73,3.4-5.65-4.51-6.53-6.28-3.68-7.73-3.68-7.73Z"/><path class="cls-7" d="M143.54,155.26a2.26,2.26,0,0,1-.34,1.34l-.13.17c-1.39,1.53-7,2.28-7,2.28a2.7,2.7,0,0,0,.72-1.71,11.91,11.91,0,0,0-1-4.93l-.16-.37a17,17,0,0,1,2.7-.42,17.64,17.64,0,0,1,2.15,0,13,13,0,0,1,1.83.19,7.9,7.9,0,0,1,.43.79A7.37,7.37,0,0,1,143.54,155.26Z"/><path class="cls-8" d="M141.17,154.18l-1.93.2s-.26-.94-.55-1.81a8.32,8.32,0,0,0-.36-.95,17.64,17.64,0,0,1,2.15,0,7.41,7.41,0,0,1,.37,1A6.93,6.93,0,0,1,141.17,154.18Z"/><path class="cls-7" d="M145.94,154.5s-18,5.7-20.42,6.12a7.81,7.81,0,0,1-3.73-.05,15.84,15.84,0,0,0,.27,1.92,1.93,1.93,0,0,0,2.45,1.41c4.81-1.49,20.73-6.46,21.81-7.34C147.6,155.52,147.32,154.41,145.94,154.5Z"/><path class="cls-9" d="M106.24,143l-.24,5.86a71,71,0,0,0,7.46,6.09c6.44,4.54,9.08,4.66,8.66,6.45-.33,1.4-7.05,1-9.67,0s-9.09-1.95-12.68-3.58-2.54-6.77-2.41-8.74.43-6.4.43-6.4Z"/><path class="cls-7" d="M118.59,161.29a2.24,2.24,0,0,1-1,1l-.2.07c-2,.61-7.15-1.6-7.15-1.6a2.66,2.66,0,0,0,1.49-1.09,12,12,0,0,0,1.63-4.77c0-.26,0-.41,0-.41a17.41,17.41,0,0,1,2.54,1,17.23,17.23,0,0,1,1.86,1.07,13,13,0,0,1,1.48,1.1,8.24,8.24,0,0,1,0,.9A7.1,7.1,0,0,1,118.59,161.29Z"/><path class="cls-8" d="M117.1,159.15l-1.75-.82s.26-.94.45-1.83a9.79,9.79,0,0,0,.18-1,17.23,17.23,0,0,1,1.86,1.07,8.27,8.27,0,0,1-.2,1.06A6.54,6.54,0,0,1,117.1,159.15Z"/><path class="cls-7" d="M121,161.86s-18.38-4.3-20.67-5.18a7.93,7.93,0,0,1-3.19-2,16.27,16.27,0,0,0-.74,1.79A1.92,1.92,0,0,0,97.82,159c4.9,1.18,21.12,5.05,22.5,4.85C122,163.59,122.28,162.49,121,161.86Z"/><path class="cls-10" d="M112.49,96.46c-4.67-3.59-21.42-2.11-34.55-.26-.37,6,1.46,1,.35,6.86,16.39.84,21,2.14,21,2.14S96.83,118.53,97,124.11s-1.86,21.71-1.86,21.71l11.82,2.23S119.17,101.6,112.49,96.46Z"/><path class="cls-11" d="M107.51,145.45a.29.29,0,0,1-.16,0l-11.67-2.38a.33.33,0,0,1-.25-.38.31.31,0,0,1,.38-.24l11.66,2.38a.31.31,0,0,1,.25.38A.29.29,0,0,1,107.51,145.45Z"/><path class="cls-11" d="M97.93,143.19a.33.33,0,0,1-.17,0,.3.3,0,0,1-.24-.37,85.32,85.32,0,0,0,1.33-15.49c.07-9.59,3-23.89,3-24a.33.33,0,0,1,.38-.25.32.32,0,0,1,.24.38c0,.14-3,14.38-3,23.91A86.45,86.45,0,0,1,98.14,143,.34.34,0,0,1,97.93,143.19Z"/><path class="cls-9" d="M106.22,61.78c-.43-.58-.12-1.8-.22-2.75a11.25,11.25,0,0,1,.41-4.22c.58-1.59,2.53-6.17,3.82-6.71s-.08,3.55-.34,4.39a3.33,3.33,0,0,0-.14,1.51s3.88-9.12,5-9.43-.61,5.1-1,6.44c0,0,3.31-6.71,4-6.7,1.49,0-2,7.6-2,7.6s3.07-5.51,4-5-2.36,6.45-2.36,6.45,2.52-3.29,3.5-3.19-3.79,7.44-4.66,8.48a50.94,50.94,0,0,1-4.33,5.17C111,64.62,107.59,63.62,106.22,61.78Z"/><path class="cls-12" d="M116.88,55.76a.28.28,0,0,0,0-.36,7.91,7.91,0,0,0-5.32-3.06.27.27,0,0,0-.3.25.27.27,0,0,0,.25.3h0a7.45,7.45,0,0,1,4.91,2.83.29.29,0,0,0,.39.07Z"/><path class="cls-12" d="M111.65,60.44a.28.28,0,0,0,.08-.31,4.62,4.62,0,0,1,.72-4.94.27.27,0,0,0,0-.39.28.28,0,0,0-.39,0h0a5.09,5.09,0,0,0-.86,5.54.27.27,0,0,0,.35.16A.19.19,0,0,0,111.65,60.44Z"/><path class="cls-7" d="M80.27,55.4v0h0v0l0,.06.06.13.13.31.3.65c.21.45.42.9.66,1.35.46.89,1,1.79,1.48,2.66.26.43.53.87.81,1.29s.56.85.85,1.27.59.82.9,1.23.61.8.93,1.19a35.31,35.31,0,0,0,8.84,7.83l.62.38.64.36.16.09-.22-.11a4,4,0,0,0-.52-.18,5.3,5.3,0,0,0-.55-.1H94.9a3.66,3.66,0,0,0-.65.11l-.19.08a1.1,1.1,0,0,0,.38-.24,9.25,9.25,0,0,0,.78-.67c.29-.28.59-.6.9-.94.61-.68,1.23-1.47,1.85-2.3,1.23-1.66,2.44-3.48,3.6-5.36.59-.93,1.16-1.89,1.73-2.85.28-.48.57-1,.84-1.44l.81-1.4,9.83,4.47-.18.48-.18.44-.35.87c-.24.58-.48,1.15-.73,1.71-.51,1.14-1,2.26-1.6,3.38A65.88,65.88,0,0,1,108,76.79a40.21,40.21,0,0,1-2.42,3.31c-.45.56-.93,1.11-1.47,1.68a20.47,20.47,0,0,1-1.83,1.7,15.14,15.14,0,0,1-2.56,1.69,10.75,10.75,0,0,1-1.82.74,10.23,10.23,0,0,1-2.38.42,9.2,9.2,0,0,1-1.38,0,9.39,9.39,0,0,1-2.76-.73l-.61-.3-.23-.13-.9-.5-.89-.53Q87.82,83.58,87,83c-.56-.39-1.13-.78-1.67-1.2S84.2,81,83.67,80.52s-1-.88-1.54-1.34a44.38,44.38,0,0,1-5.47-6q-1.22-1.61-2.28-3.3c-.71-1.14-1.39-2.29-2-3.47-.3-.6-.59-1.2-.88-1.8s-.55-1.22-.8-1.84-.5-1.26-.73-1.91q-.16-.48-.33-1c-.06-.17-.11-.34-.16-.52l-.19-.64Z"/><path class="cls-8" d="M96.81,78.79a.31.31,0,0,1-.38-.16,21.47,21.47,0,0,1-1.61-5,.31.31,0,0,1,.26-.37.32.32,0,0,1,.37.25A20.78,20.78,0,0,0,97,78.35a.31.31,0,0,1-.15.42A.05.05,0,0,1,96.81,78.79Z"/><path class="cls-8" d="M94.36,77a.37.37,0,0,1-.18,0,.33.33,0,0,1-.23-.39,25.14,25.14,0,0,1,.92-3,.32.32,0,1,1,.57.28,24.36,24.36,0,0,0-.87,2.87A.31.31,0,0,1,94.36,77Z"/><path class="cls-8" d="M112.47,68.5a.29.29,0,0,1-.27,0,85.26,85.26,0,0,0-9.69-4.91.32.32,0,1,1,.25-.59,85.9,85.9,0,0,1,9.79,5,.32.32,0,0,1,.09.44A.27.27,0,0,1,112.47,68.5Z"/><path class="cls-7" d="M80.36,55.59c.84,2.54-.55,8.7.79,19.55.1.8.22,1.62.35,2.47s.26,1.63.41,2.48.3,1.61.47,2.44.32,1.49.49,2.26.38,1.6.59,2.43c.05.23.12.49.19.75a1.46,1.46,0,0,0,0,.2,1.21,1.21,0,0,0,0,.18l0,.14,0,.1c0,.06,0,.12,0,.18a.08.08,0,0,1,0,0l.06.22s0,0,0,0,0,.12,0,.19c.08.31.17.63.25,1a1.82,1.82,0,0,1,.07.25l.09.33c.06.23.12.45.18.69a3.57,3.57,0,0,1,.1.35l.21.75,0,.15c.17.61.35,1.23.53,1.88l.24.88c.1.35.21.71.31,1.07.15.53.31,1.06.46,1.6l.2.67.18.61.22.73c0,.16.1.32.14.48s.07.2.1.3l.18.6.18.59c0,.14.09.28.13.41s.08.25.11.37a.36.36,0,0,1,0,.09l.06.21c.05.14.09.28.14.42l.15.49c.42,1.29.83,2.49,1.22,3.53-2.87,3.3-7.74,6.17-13.46,7.9l-3.18-2.07-2.66,3.37a35.35,35.35,0,0,1-17.11-1.51c-1.82-3.73-4.83-17.4-5.68-21.49-.17-.82-.32-1.63-.46-2.45a106.87,106.87,0,0,1-1.28-12.15c0-.22,0-.45,0-.68,0,0,0-.06,0-.08-.26-3.54-4.88-14-4.42-17.73.93-7.44,5.67-5.48,9.94-6.63a17.65,17.65,0,0,0,3.55-1.34c.41-.2.77-.41,1.1-.61l.39-.24a13.62,13.62,0,0,0,2.06-1.59l9.69-1a7.42,7.42,0,0,0,3.28,2.2l.4.14.6.17C75.64,52.76,79.26,52.27,80.36,55.59Z"/><path class="cls-8" d="M56,107.81a.27.27,0,0,1-.25-.18c-5.3-14.24-8.05-38.84-8.08-39.08a.28.28,0,0,1,.24-.3.27.27,0,0,1,.29.24c0,.24,2.77,24.78,8.05,39a.27.27,0,0,1-.16.34Z"/><path class="cls-8" d="M65.4,55.34c.1.31-.27.71-.83.89s-1.09.09-1.19-.22.27-.71.83-.9S65.3,55,65.4,55.34Z"/><path class="cls-8" d="M69.73,54.23c.11.31-.27.71-.82.9s-1.1.08-1.2-.23.27-.71.83-.89S69.63,53.93,69.73,54.23Z"/><path class="cls-8" d="M71,56.55a.26.26,0,0,1-.07-.52c3.74-1,4-3.21,4-3.31a.27.27,0,0,1,.28-.24.25.25,0,0,1,.24.28c0,.12-.24,2.72-4.37,3.78Z"/><path class="cls-8" d="M76.71,80a33.2,33.2,0,0,1-12.2-2.44,30.69,30.69,0,0,1-5.87-3,.27.27,0,0,1,.31-.43,30,30,0,0,0,5.77,3A31.78,31.78,0,0,0,79,79.38a.28.28,0,0,1,.29.25.27.27,0,0,1-.25.28Q77.84,80,76.71,80Z"/><path class="cls-8" d="M61.61,89.39s11.92-3,19.34-3.13l2.27,9.83s-11.77,2-19.21,3.28Z"/><path class="cls-8" d="M54.93,58.86a10.77,10.77,0,0,1-5.25-1.31,8.89,8.89,0,0,1-2.87-2.4.26.26,0,1,1,.43-.3h0A8.76,8.76,0,0,0,50,57.1a11.13,11.13,0,0,0,8.37.77.27.27,0,0,1,.33.19.27.27,0,0,1-.19.32A14,14,0,0,1,54.93,58.86Z"/><path class="cls-13" d="M85.44,94.62c-.18-.65-.36-1.27-.53-1.88C85.08,93.35,85.26,94,85.44,94.62Z"/><path class="cls-13" d="M84.57,91.49c-.06-.24-.12-.46-.18-.69C84.45,91,84.51,91.25,84.57,91.49Z"/><path class="cls-8" d="M82,78.78h-.06a.31.31,0,0,1-.35-.27c-.58-4.44-1.23-9.71-1.29-11.19a.32.32,0,1,1,.64,0c.06,1.46.7,6.71,1.28,11.14A.33.33,0,0,1,82,78.78Z"/><path class="cls-13" d="M70.36,29.26a4.76,4.76,0,0,1,1,6.1A34.44,34.44,0,0,1,70.36,29.26Z"/><path class="cls-13" d="M58,45.89s-2,1.93-2.4.5a2.2,2.2,0,0,1,.28-2.14s-2.15,2.07-2.18.51a5.18,5.18,0,0,1,1.08-2.95A3.69,3.69,0,0,1,53.48,38a9.4,9.4,0,0,0,.08-6c-.66-1.92-.36-3.9.59-4.76a4.89,4.89,0,0,1,3.39-1.06,5.11,5.11,0,0,1,5.08-3.41c4,.1,6.33-3,8.35-2.21s4.34,7.48-1.1,9.46C69.87,30.06,59.11,37.27,58,45.89Z"/><path class="cls-9" d="M68.21,47.79l.26,2.53a7.76,7.76,0,0,1-.83.72c-4.12,3.1-9.2.33-9.2.33l-.91-8.77,9.4,4.57Z"/><path class="cls-13" d="M68.18,47.57l.29,2.75a7.76,7.76,0,0,1-.83.72c-3.89-1.09-7-4.73-7-4.73l6.32.86Z"/><path class="cls-12" d="M70.2,36.25s1.26-1.85,2.25-.24.72,5.12-1.53,4.78Z"/><path class="cls-9" d="M72.35,42s.56,5.23-4.89,5.79-9.53-3.31-9.74-3.49h0l-.17-1.09-.91-5.68-.48-3s-1.27-5.42,3.85-7c3.73-1.13,7.38-.88,9.39.93a1.57,1.57,0,0,1,.19.18,4.69,4.69,0,0,1,1.29,2.45l.74,5.46.18,1.33Z"/><path class="cls-13" d="M56.63,37.57a3.07,3.07,0,0,1,1.77,1.87h0a1.39,1.39,0,0,0,1.22-1.64c-.08-.46-.19-1-.32-1.65-.39-1.88-1-2.47.1-3.65s.07-1.88,1.06-2.71,3.78.71,5.76.3c2.35-.49,2.15-2.09,4.2-.26a4.81,4.81,0,0,0-3.22-3.5c-2.67-.74-10.18-.08-11.33,3.49S56.63,37.57,56.63,37.57Z"/><path class="cls-13" d="M60.94,33.62h0a1.31,1.31,0,0,0,1.77.49A8.34,8.34,0,0,1,64,33.54,1.21,1.21,0,0,0,64.73,32h0S62,32,60.94,33.62Z"/><path class="cls-13" d="M71,32.5h0a1.24,1.24,0,0,1-1.54.79A6.72,6.72,0,0,0,68.18,33a1.14,1.14,0,0,1-1-1.32h0S69.69,31.21,71,32.5Z"/><path class="cls-12" d="M64.59,38c0,.38-.72.77-1.68.87s-1.79-.12-1.83-.5.71-.78,1.68-.88S64.55,37.63,64.59,38Z"/><path class="cls-12" d="M71.79,37.93l-.42.07c-1,.1-1.78-.13-1.82-.51s.71-.77,1.68-.87a2.48,2.48,0,0,1,.38,0Z"/><path class="cls-13" d="M64.69,35.88c0,.52-.14,1-.43,1s-.58-.37-.63-.89.13-1,.43-1S64.63,35.36,64.69,35.88Z"/><path class="cls-13" d="M69.94,35.33c.06.52-.14,1-.43,1s-.57-.36-.63-.89.14-1,.43-1S69.89,34.81,69.94,35.33Z"/><path class="cls-13" d="M68.23,40.74a5.57,5.57,0,0,1-3.67-1.3.21.21,0,0,1,0-.3.22.22,0,0,1,.3,0c.12.1,2.81,2.38,5,.45a.21.21,0,0,1,.28.32A3.36,3.36,0,0,1,68.23,40.74Z"/><path class="cls-13" d="M59.2,42a4.75,4.75,0,0,1-1.48,2.3h0l-.17-1.09A3.81,3.81,0,0,0,59.2,42Z"/><path class="cls-9" d="M57.86,38.51s-2.39-2.59-3.69-.22c-1.07,2,1.81,6.44,4.14,4.56Z"/><path class="cls-13" d="M57.94,42a.23.23,0,0,1-.24-.17,3.6,3.6,0,0,0-2.39-2.68.22.22,0,0,1-.15-.27.23.23,0,0,1,.27-.15,4.08,4.08,0,0,1,2.7,3A.22.22,0,0,1,58,42Z"/><path class="cls-13" d="M55.79,40.94a.23.23,0,0,1-.17-.07.2.2,0,0,1,0-.3c.08-.08.78-.77,1.45-.67a.21.21,0,0,1,.18.24.23.23,0,0,1-.25.19c-.38-.06-.9.37-1.08.54A.21.21,0,0,1,55.79,40.94Z"/><path class="cls-13" d="M67.1,38.29a.22.22,0,0,1-.24-.19.22.22,0,0,1,.19-.24,1.5,1.5,0,0,0,1.23-.73c-1-1.68-2.09-3.38-2.1-3.39a.22.22,0,0,1,.37-.23S67.64,35.29,68.7,37a.19.19,0,0,1,0,.18A1.87,1.87,0,0,1,67.1,38.29Z"/><g class="cls-14"><path class="cls-15" d="M67.2,36.58c0,.72-1.14,1.39-2.64,1.48s-2.75-.43-2.8-1.15,1.14-1.39,2.64-1.49S67.16,35.85,67.2,36.58Z"/></g><g class="cls-14"><path class="cls-15" d="M74.16,36.28c0,.73-1.14,1.4-2.64,1.49s-2.76-.43-2.8-1.16,1.14-1.39,2.64-1.48S74.12,35.56,74.16,36.28Z"/></g><path class="cls-13" d="M68.73,36.61a.14.14,0,0,1-.1,0,1.19,1.19,0,0,0-1.36,0,.16.16,0,0,1-.22,0,.16.16,0,0,1,0-.22,1.47,1.47,0,0,1,1.75,0,.16.16,0,0,1,0,.22A.14.14,0,0,1,68.73,36.61Z"/><path class="cls-13" d="M56,37.34a.18.18,0,0,1-.13-.06.16.16,0,0,1,0-.22c2.4-1.87,5.78-.52,5.92-.47a.17.17,0,0,1,.09.21.17.17,0,0,1-.21.09s-3.35-1.33-5.6.42A.19.19,0,0,1,56,37.34Z"/><path class="cls-11" d="M51.54,110.94s.75,21.89,27.16,13.17c14.12-4.66,20.37-8.23,20.37-8.23s4.45,12.35,6.84,17.39,9,17.37,9,17.37l11.4-2.81s-13.28-46.2-21.47-48.15-18,1.15-35.38,5.09C69.5,104.77,54.35,107.09,51.54,110.94Z"/><path class="cls-16" d="M115.27,146.49a.32.32,0,0,1-.37-.13c-3.68-6-7.33-15-10.27-22.22-1.24-3.06-2.3-5.69-3.2-7.66-1.2-2.66-1.69-3.2-1.88-3.27-.82-.36-3.5.86-6.9,2.4-4.93,2.22-12.38,5.59-21,7.39-4.45.92-8.29.32-11.44-1.8-5.6-3.75-7-10.87-7-11.18a.32.32,0,0,1,.25-.37.32.32,0,0,1,.37.26c0,.07,1.4,7.16,6.77,10.77,3,2,6.68,2.58,10.95,1.69,8.59-1.78,16-5.13,20.89-7.34,4-1.79,6.35-2.87,7.42-2.41s2.53,4.16,5.42,11.28,6.57,16.21,10.22,22.12a.32.32,0,0,1-.1.44Z"/><path class="cls-16" d="M125,144.29h0l-11.52,3a.31.31,0,0,1-.39-.22.32.32,0,0,1,.23-.39l11.52-3a.33.33,0,0,1,.39.23A.32.32,0,0,1,125,144.29Z"/><path class="cls-17" d="M77.46,105.75l35-3.29a.14.14,0,0,0,.11-.13L112.11,98a.14.14,0,0,0-.14-.11L77,101.17a.11.11,0,0,0-.11.13l.41,4.34A.11.11,0,0,0,77.46,105.75Z"/><path class="cls-15" d="M116.2,102.1a2.92,2.92,0,0,0,2.62-2.43l4.26-25.27a2.39,2.39,0,0,0-2.57-2.77l-15.76,1.49a2.38,2.38,0,0,0-2.12,1.94l-5.24,28.81Z"/><path class="cls-15" d="M106,97l-.29,1.15,1.07-.08-.19,1.36-1.24.1-.32,1.25-1.41.11.32-1.26-.88.07-.32,1.25-1.42.11.33-1.25-1.07.08.18-1.36,1.24-.09.29-1.15-1.07.08.19-1.36,1.23-.09.33-1.26,1.41-.1L104,95.8l.88-.07.32-1.25,1.41-.11-.32,1.25,1.07-.08-.19,1.36Zm-1.42.11-.88.07-.28,1.15.87-.07Z"/><path class="cls-18" d="M121.14,78.56a4.2,4.2,0,0,1-3.35,3.22c-1.48.13-2.38-1.1-2-2.75a4.2,4.2,0,0,1,3.34-3.22C120.6,75.68,121.5,76.91,121.14,78.56Z"/><path class="cls-13" d="M118.14,78.26c-.07.33-.23.61-.36.62s-.18-.25-.1-.58.23-.6.36-.61S118.22,77.93,118.14,78.26Z"/><path class="cls-13" d="M119.54,78.14c-.07.33-.24.61-.37.62s-.17-.25-.1-.58.24-.6.37-.62S119.61,77.81,119.54,78.14Z"/><path class="cls-13" d="M118.16,80.25c-1.16.1-1.13-1.16-1.13-1.17a.2.2,0,0,1,.12-.17.09.09,0,0,1,.12.09s0,1.07.94,1a2,2,0,0,0,1.44-1.2.17.17,0,0,1,.16-.11c.06,0,.08.08,0,.15A2.35,2.35,0,0,1,118.16,80.25Z"/><path class="cls-15" d="M102.63,75.06l-5.2,28.58-1.8.17,5.2-28.58A2.38,2.38,0,0,1,103,73.29l1.8-.17A2.38,2.38,0,0,0,102.63,75.06Z"/><path class="cls-17" d="M97.6,103.45h0a.27.27,0,0,1-.21-.31l5.13-28.51a.27.27,0,0,1,.53.09l-5.14,28.51A.27.27,0,0,1,97.6,103.45Z"/><path class="cls-17" d="M108.36,88.21a2.17,2.17,0,0,0,2.42,2.6A3.74,3.74,0,0,0,114,87.68a2.16,2.16,0,0,0-2.41-2.6A3.77,3.77,0,0,0,108.36,88.21Z"/><path class="cls-9" d="M86.28,95.08s8.2-1.83,11.07-.47l-1,5.21s-4.62-.33-5.69.21-1.14,2.61-5.29,2.73Z"/><path class="cls-7" d="M85.38,94.05l-1-.15-1.94-.32c-1.28-.22-2.57-.45-3.85-.69-2.57-.47-5.11-1-7.61-1.55-1.25-.29-2.48-.6-3.69-.92s-2.39-.66-3.52-1a28.23,28.23,0,0,1-3.09-1.19,9.55,9.55,0,0,1-1.1-.59h0l0-.06-.42-.71c-.27-.49-.53-1-.78-1.47-.5-1-.94-2-1.34-3.08a39.21,39.21,0,0,1-1.82-6.6c-.22-1.13-.38-2.29-.51-3.45s-.2-2.33-.24-3.5-.05-2.34,0-3.5c0-.58,0-1.16.1-1.72,0-.28,0-.56.07-.82l0-.39,0-.26L41.44,60l0,.24,0,.17,0,.33-.07.61c0,.4-.08.79-.11,1.17-.05.78-.08,1.54-.1,2.3,0,1.52,0,3,0,4.54a56.13,56.13,0,0,0,1.22,9c.16.74.34,1.49.54,2.23s.41,1.47.64,2.21c.47,1.46,1,2.91,1.61,4.34S46.32,89.71,47,91l.18.33c.38.69.78,1.36,1.2,2,.21.33.42.66.65,1l.16.25.08.12.17.24A9.34,9.34,0,0,0,50.35,96a10,10,0,0,0,.83.79c.27.23.53.43.78.61a16.31,16.31,0,0,0,1.42.9c.63.35,1.22.64,1.79.89l.7.3c.79.32,1.55.59,2.3.83s1.47.46,2.19.65c1.44.39,2.86.72,4.26,1s2.78.54,4.17.77c2.76.46,5.5.81,8.24,1.11,1.37.15,2.74.28,4.11.4l2.06.17,1,.07,1.06.06,1-10.35Zm-26-6.65s0,0,0,0l.11.1s0,0,0,0Z"/><path class="cls-8" d="M55.17,99.18c-.57-.25-1.16-.54-1.79-.89a16.31,16.31,0,0,1-1.42-.9c-.25-.18-.51-.38-.78-.61a10,10,0,0,1-.83-.79,9.34,9.34,0,0,1-.89-1.07l-.17-.24-.08-.12-.16-.25c-.23-.32-.44-.65-.65-1-.42-.67-.82-1.34-1.2-2L47,91l.1,0S55.68,91,55.17,99.18Z"/><path class="cls-8" d="M73,103.72a.29.29,0,0,1-.13,0c-.11,0-10.87-1-16.89-3.87a21,21,0,0,1-9-8.51.33.33,0,0,1,.14-.43.32.32,0,0,1,.43.14,20.68,20.68,0,0,0,8.73,8.22c5.93,2.78,16.57,3.81,16.68,3.82a.32.32,0,0,1,.07.62Z"/><path class="cls-8" d="M55.72,91.33a.32.32,0,0,1-.33-.52,32.81,32.81,0,0,1,3.71-3.24.33.33,0,0,1,.45.07.32.32,0,0,1-.07.44,34,34,0,0,0-3.63,3.17A.26.26,0,0,1,55.72,91.33Z"/><path class="cls-8" d="M59.24,88.24h0c-1.27.27-2.93.81-3,.81a.32.32,0,1,1-.2-.6h0c.07,0,1.72-.56,3-.83a.32.32,0,0,1,.38.24A.32.32,0,0,1,59.24,88.24Z"/><path class="cls-8" d="M56.38,80.47h0a.31.31,0,0,1-.39-.21c-.12-.41-3-10.09-3-15a.32.32,0,1,1,.63,0c0,4.78,2.92,14.68,3,14.78A.31.31,0,0,1,56.38,80.47Z"/><path class="cls-8" d="M53.62,68.3a.33.33,0,0,1-.27,0,.32.32,0,0,1-.1-.44l1-1.66a.32.32,0,0,1,.44-.1.33.33,0,0,1,.1.44l-1.05,1.66A.27.27,0,0,1,53.62,68.3Z"/><path class="cls-8" d="M80.33,104.12a.29.29,0,0,1-.13,0,.32.32,0,0,1-.29-.35l1.1-10a.31.31,0,0,1,.35-.28.32.32,0,0,1,.28.35l-1.09,10A.34.34,0,0,1,80.33,104.12Z"/><path class="cls-15" d="M72,88.19a.27.27,0,0,1-.25-.18c-3.08-9.19-7.52-32.09-7.57-32.32a.27.27,0,0,1,.21-.31.26.26,0,0,1,.31.21c0,.23,4.49,23.09,7.56,32.25a.26.26,0,0,1-.17.33Z"/><path class="cls-15" d="M78.56,87.31a.26.26,0,0,1-.26-.23C76.43,73.4,68.6,55,68.52,54.81a.27.27,0,0,1,.14-.35.26.26,0,0,1,.35.14c.08.18,7.93,18.66,9.82,32.41a.26.26,0,0,1-.23.3Z"/><path class="cls-15" d="M59.66,123a3.43,3.43,0,0,1-1.79-.58c-2.26-1.42-5-5.7-6-12.08a.25.25,0,0,1,.22-.3.26.26,0,0,1,.3.22c1,6.21,3.6,10.36,5.76,11.71a2.5,2.5,0,0,0,2,.43,1.87,1.87,0,0,0,1.1-1c1.88-3.54-1.38-14.21-1.42-14.32a.27.27,0,1,1,.51-.15c.14.44,3.37,11,1.38,14.72a2.37,2.37,0,0,1-1.42,1.23A2.05,2.05,0,0,1,59.66,123Z"/><path class="cls-3" d="M45,156.9q-.1.45-.24.87a6.29,6.29,0,0,1-3.33,4.07c-5.89,2.4-11.44,1.57-22.72,1.31S-1,159.9.09,150.61a10.78,10.78,0,0,1,.42-2.05,10.09,10.09,0,0,1,1-2.29h0a10.73,10.73,0,0,1,1.64-2.14,11.78,11.78,0,0,1,12.2-2.8c4.21,1.44,11.66,2.14,19.42,2.3C43.1,143.8,46.21,151.58,45,156.9Z"/><path class="cls-6" d="M45,156.9q-.1.45-.24.87c-2,1.74-5.77,2.85-11.22,3.28-1.72.14-3.6.21-5.63.21a139.74,139.74,0,0,1-16.14-1.08c-5-.61-8.47-2.39-10.16-5.3a9.82,9.82,0,0,1-1.08-6.32,10.09,10.09,0,0,1,1-2.29c-.44,1.35-1.4,5.16.48,8.39,1.61,2.78,4.92,4.48,9.82,5.07C29.53,161.86,41.59,160.82,45,156.9Z"/><path class="cls-6" d="M11.28,145.41a6,6,0,0,0-5.46,6.87,1.42,1.42,0,0,0,0,.2c.74,3.74,5.77,3.62,19.72,3.75,10.93.11,16.55-3.8,13.64-8.63C36.91,143.76,18.66,144.81,11.28,145.41Z"/><path class="cls-13" d="M37.64,148.24c-5.09,6.33-25.83,6.68-28.55,1.94-1.32-2.31-1-5.26-.23-7.69.07-.26.15-.51.23-.75A23.1,23.1,0,0,1,10.78,138s-.09,2.26,7.56,1.45a22.58,22.58,0,0,1,2.94-.12h.6C30.13,139.55,42,142.76,37.64,148.24Z"/><path class="cls-3" d="M21,144.46c-1.2,1.34-3.27,1.84-6,1.46l-.18,0c-3.45-.53-5.13-2.17-5.92-3.4.07-.26.15-.51.23-.75.59,1.14,2.13,3.07,5.95,3.6,2.53.36,4.44-.08,5.5-1.27s1.21-2.71.74-4.78h.6C22.35,141.5,22,143.27,21,144.46Z"/><path class="cls-13" d="M34.76,143.63s4.87-.36,5.45-2.82-10.59-.3-11.82-5.36,3.7-9.1,5.31-7.62c1.9,1.76-2.27,2.5-2.49,5.11-.19,2.16,1.16,4.15,5.31,4.45s6,.94,6,2.88c0,2.1-3.38,4.27-5.43,4.4S34.76,143.63,34.76,143.63Z"/><path class="cls-13" d="M13.4,136.1A13,13,0,0,0,9.6,133a.49.49,0,0,0-.71.48l.45,4.31S12.71,138,13.4,136.1Z"/><path class="cls-19" d="M10.16,137.24c-.19-1-.23-2-.46-3.16,0,0,2.54,1.51,2.69,2.35C12.39,136.43,11,137.49,10.16,137.24Z"/><path class="cls-13" d="M17.81,136.27a13,13,0,0,1,4.58-1.52.54.54,0,0,1,.55.78l-1.78,3.55S17.74,138.33,17.81,136.27Z"/><path class="cls-19" d="M20.41,138.51c.53-.84.95-1.78,1.58-2.77,0,0-2.92.48-3.36,1.2C18.63,136.94,19.55,138.44,20.41,138.51Z"/><path class="cls-13" d="M11.51,136.18a3.5,3.5,0,0,0-2.78,4,4.18,4.18,0,0,0,3.66,3.9,4,4,0,0,0,2.73,1.59c1.35.29,3.37.2,3.88-.8,0,0,2.95-1.08,2.92-3.7C21.88,138.24,18.37,134.67,11.51,136.18Z"/><path class="cls-13" d="M8.46,144.5s1.22,5,2.25,6a5.78,5.78,0,0,0,3.58,1.77c2.31.28,1.88,1.82,1.19,2.35s-2.21.27-4.34.27c-1.83,0-3.56-.37-4.19-1.58s-.57-4.78.09-6.79A3.21,3.21,0,0,1,8.46,144.5Z"/><path class="cls-13" d="M24,144.83s-1.22,5-2.25,6a6.11,6.11,0,0,1-3.58,1.77A1.51,1.51,0,0,0,17,155c.67.75,2.21.27,4.34.27,1.83,0,4-.74,4.63-1.95s.14-4.41-.52-6.42A3.25,3.25,0,0,0,24,144.83Z"/><path class="cls-13" d="M34.26,143.84s3.24-.78,4.28,1.66c1.64,3.84.33,6-4,6.64s-9.34,1.43-5.58-1.68A20.67,20.67,0,0,0,34.26,143.84Z"/><path class="cls-19" d="M16.85,141.87a5.78,5.78,0,0,0-1.66,0c-.58.27.36,1.36,1,1.45a1.18,1.18,0,0,0,1.17-1.06A.41.41,0,0,0,16.85,141.87Z"/><path class="cls-19" d="M17.52,140.86c-.06,0-.13,0-.09.1a1.43,1.43,0,0,0,1.39.58,1,1,0,0,0,.81-.81.07.07,0,0,0-.12,0,1.07,1.07,0,0,1-.93.52A1.91,1.91,0,0,1,17.52,140.86Z"/><path class="cls-19" d="M12.46,140.6a.06.06,0,0,0-.1.08,1.41,1.41,0,0,0,1.25.82,1,1,0,0,0,1-.65.07.07,0,0,0-.11-.07,1.08,1.08,0,0,1-1,.34A1.93,1.93,0,0,1,12.46,140.6Z"/><path class="cls-15" d="M149.06,5.86V36.32a1.45,1.45,0,0,1-1.45,1.45H96.05a1.45,1.45,0,0,1-1.45-1.45V5.86a1.45,1.45,0,0,1,1.45-1.45h51.56A1.45,1.45,0,0,1,149.06,5.86Z"/><path class="cls-20" d="M117.35,23.11A9.6,9.6,0,1,1,98.9,19.4l8.86,3.71-.46-9.58h.46A9.59,9.59,0,0,1,117.35,23.11Z"/><path class="cls-21" d="M106.35,12a9.57,9.57,0,0,0-7.08,3.63A9.85,9.85,0,0,0,98,17.82l8.85,3.71Z"/><rect class="cls-22" x="139.13" y="16.51" width="1.32" height="1.32"/><rect class="cls-20" x="141.33" y="17" width="4.75" height="0.33" rx="0.01"/><rect class="cls-22" x="139.13" y="14.16" width="1.32" height="1.32"/><rect class="cls-20" x="141.33" y="14.65" width="4.75" height="0.33" rx="0.01"/><rect class="cls-22" x="139.13" y="18.85" width="1.32" height="1.32"/><rect class="cls-20" x="141.33" y="19.35" width="4.75" height="0.33" rx="0.01"/><path class="cls-20" d="M145.91,24.3H139.3a.17.17,0,0,1-.17-.16h0a.17.17,0,0,1,.17-.17h6.61a.17.17,0,0,1,.17.17h0A.17.17,0,0,1,145.91,24.3Z"/><path class="cls-20" d="M145.91,25.66H139.3a.18.18,0,0,1-.17-.17h0a.18.18,0,0,1,.17-.17h6.61a.18.18,0,0,1,.17.17h0A.18.18,0,0,1,145.91,25.66Z"/><path class="cls-20" d="M145.91,27H139.3a.17.17,0,0,1-.17-.17h0a.17.17,0,0,1,.17-.16h6.61a.17.17,0,0,1,.17.16h0A.17.17,0,0,1,145.91,27Z"/><path class="cls-20" d="M145.91,28.36H139.3a.17.17,0,0,1-.17-.16h0a.18.18,0,0,1,.17-.17h6.61a.18.18,0,0,1,.17.17h0A.17.17,0,0,1,145.91,28.36Z"/><path class="cls-20" d="M145.91,29.72H139.3a.17.17,0,0,1-.17-.17h0a.17.17,0,0,1,.17-.16h6.61a.17.17,0,0,1,.17.16h0A.17.17,0,0,1,145.91,29.72Z"/><path class="cls-20" d="M145.91,31.07H139.3a.17.17,0,0,1-.17-.16h0a.18.18,0,0,1,.17-.17h6.61a.18.18,0,0,1,.17.17h0A.17.17,0,0,1,145.91,31.07Z"/><path class="cls-20" d="M145.91,32.43H139.3a.17.17,0,0,1-.17-.17h0a.17.17,0,0,1,.17-.16h6.61a.17.17,0,0,1,.17.16h0A.17.17,0,0,1,145.91,32.43Z"/><path class="cls-20" d="M149.06,5.86V8.4H94.6V5.86a1.45,1.45,0,0,1,1.45-1.45h51.56A1.45,1.45,0,0,1,149.06,5.86Z"/><path class="cls-21" d="M143.32,6.4a.67.67,0,1,1-.67-.67A.67.67,0,0,1,143.32,6.4Z"/><path class="cls-15" d="M145.49,6.4a.67.67,0,1,1-.67-.67A.67.67,0,0,1,145.49,6.4Z"/><path class="cls-22" d="M147.58,6.4a.68.68,0,1,1-.67-.67A.67.67,0,0,1,147.58,6.4Z"/><path class="cls-22" d="M117.35,23.11a9.53,9.53,0,0,1-2.47,6.43l-7.12-6.43-.46-9.58h.46A9.59,9.59,0,0,1,117.35,23.11Z"/><rect class="cls-20" x="126.69" y="20.69" width="3.06" height="13.09"/><path class="cls-22" d="M126.69,30.33a12.18,12.18,0,0,0,3.06-1.58v5h-3.06Z"/><rect class="cls-20" x="121.7" y="24.33" width="3.06" height="9.45"/><path class="cls-22" d="M124.19,30.55a5.48,5.48,0,0,0,.57.05v3.18H121.7V30.63A5.48,5.48,0,0,1,124.19,30.55Z"/><rect class="cls-20" x="131.69" y="16.78" width="3.06" height="17"/><path class="cls-22" d="M134.74,26.1v7.68h-3.05V27.4A5.81,5.81,0,0,1,134.74,26.1Z"/><path class="cls-21" d="M134.62,11.82l-2.76.59.74.73-4.22,4.3L126.9,16l-5.24,5.34a.52.52,0,0,0,0,.73h0a.51.51,0,0,0,.73,0l4.51-4.6,1.49,1.45,4.94-5,.74.73Z"/><rect class="cls-20" x="18.16" y="38.99" width="21.03" height="14.53" transform="translate(-0.07 0.04) rotate(-0.08)"/><polygon class="cls-22" points="18.15 39.01 18.15 39.94 28.68 49.24 39.18 39.91 39.18 38.98 28.68 48.35 18.15 39.01"/><polygon class="cls-22" points="30.7 46.51 38.59 53.51 39.2 53.51 39.2 53.14 31.15 46 30.7 46.51"/><polygon class="cls-22" points="18.17 53.22 18.17 53.54 18.83 53.54 26.7 46.51 26.25 46.01 18.17 53.22"/><polygon class="cls-20" points="39.18 38.98 28.68 48.35 18.15 39.01 39.18 38.98"/><circle class="cls-22" cx="38.19" cy="39.72" r="4.57"/><path class="cls-15" d="M37.26,41.89h0a.48.48,0,0,1-.32-.13l-1.12-1.12a.45.45,0,0,1,.63-.63l.81.81,3.14-3.14a.44.44,0,1,1,.62.62l-3.45,3.46A.46.46,0,0,1,37.26,41.89Z"/><path class="cls-15" d="M159.15,97V45.44A1.43,1.43,0,0,0,157.72,44H131.61a1.43,1.43,0,0,0-1.43,1.43V97a2.89,2.89,0,0,0,2.89,2.89h23.19A2.89,2.89,0,0,0,159.15,97Z"/><path class="cls-20" d="M154.81,83.2h-19.3a.64.64,0,0,1-.63-.64h0a.63.63,0,0,1,.63-.63h19.3a.63.63,0,0,1,.64.63h0A.64.64,0,0,1,154.81,83.2Z"/><path class="cls-20" d="M154.81,87.24h-19.3a.64.64,0,0,1-.63-.64h0a.64.64,0,0,1,.63-.64h19.3a.64.64,0,0,1,.64.64h0A.64.64,0,0,1,154.81,87.24Z"/><path class="cls-20" d="M154.81,91.27h-19.3a.63.63,0,0,1-.63-.63h0a.63.63,0,0,1,.63-.64h19.3a.63.63,0,0,1,.64.64h0A.63.63,0,0,1,154.81,91.27Z"/><path class="cls-20" d="M154.81,95.31h-19.3a.64.64,0,0,1-.63-.64h0a.63.63,0,0,1,.63-.63h19.3a.63.63,0,0,1,.64.63h0A.64.64,0,0,1,154.81,95.31Z"/><path class="cls-20" d="M159.15,45.44v4h-29v-4A1.43,1.43,0,0,1,131.61,44h26.11A1.43,1.43,0,0,1,159.15,45.44Z"/><path class="cls-21" d="M152.14,46.44a.95.95,0,1,1-.94-.94A.95.95,0,0,1,152.14,46.44Z"/><path class="cls-15" d="M155.19,46.44a.94.94,0,1,1-.94-.94A.95.95,0,0,1,155.19,46.44Z"/><path class="cls-22" d="M158.11,46.44a.94.94,0,1,1-.94-.94A.95.95,0,0,1,158.11,46.44Z"/><rect class="cls-22" x="135.92" y="71.48" width="3.26" height="7.87"/><rect class="cls-20" x="140.72" y="65.89" width="3.26" height="13.47"/><rect class="cls-22" x="146.05" y="61.77" width="3.26" height="17.59"/><rect class="cls-20" x="151.26" y="56.92" width="3.26" height="22.44"/><polygon class="cls-21" points="148.51 53.47 150.77 54.3 150.51 51.66 148.51 53.47"/><path class="cls-21" d="M135,67.66a.24.24,0,0,1-.09-.47,29.47,29.47,0,0,0,14.69-13.9.25.25,0,0,1,.33-.11.24.24,0,0,1,.11.32,30,30,0,0,1-14.95,14.15Z"/><path class="cls-20" d="M24,13.15v8.06A1.93,1.93,0,0,0,26,23.14H40.59L45,24.72a.56.56,0,0,0,.71-.73l-1.67-4.31V13.15a1.92,1.92,0,0,0-1.93-1.92H26A1.92,1.92,0,0,0,24,13.15Z"/><path class="cls-15" d="M36.74,17.41a1.4,1.4,0,1,0,2.79,0,1.4,1.4,0,0,0-2.79,0Z"/><path class="cls-15" d="M32.33,17.41A1.4,1.4,0,1,0,33.72,16,1.4,1.4,0,0,0,32.33,17.41Z"/><path class="cls-15" d="M27.91,17.41a1.4,1.4,0,1,0,2.79,0,1.4,1.4,0,0,0-2.79,0Z"/><rect class="cls-20" x="50.97" y="4.56" width="8.58" height="8.58" rx="0.81"/><path class="cls-15" d="M57.69,7.09a1.16,1.16,0,0,0,0-.18,1.37,1.37,0,0,0-.29-.56A1.64,1.64,0,0,0,57,6.06a.4.4,0,0,0-.52.1L55.78,7a.42.42,0,0,0,0,.59l.4.33.05,0a3.83,3.83,0,0,1-1.62,2l-.29-.24-.16-.13a.39.39,0,0,0-.49,0,.57.57,0,0,0-.14.13l-.64.78a.65.65,0,0,0-.13.28v.12a1.22,1.22,0,0,0,.12.19,1.38,1.38,0,0,0,.43.32,1.28,1.28,0,0,0,.61.12,2.07,2.07,0,0,0,.42-.08,3.43,3.43,0,0,0,1-.47,4.92,4.92,0,0,0,.82-.69,8.27,8.27,0,0,0,.9-1.13,4.13,4.13,0,0,0,.52-1,2.21,2.21,0,0,0,.11-.57,1.69,1.69,0,0,0,0-.23Z"/><rect class="cls-20" x="63.4" y="4.41" width="8.71" height="8.71" rx="0.72"/><rect class="cls-20" x="75.14" y="4.41" width="8.71" height="8.71" rx="0.72"/><path class="cls-15" d="M68.42,9.73a1.29,1.29,0,0,1-1.08.52,1,1,0,0,1-1-1.07,1.66,1.66,0,0,1,1.49-1.8.76.76,0,0,1,.74.39l0-.35h.89L69.21,9c0,.3,0,.49.23.49.45,0,.64-.7.64-1.31,0-1-.65-1.58-1.78-1.58a2.56,2.56,0,0,0-2.57,2.63,1.54,1.54,0,0,0,1.73,1.64,2.76,2.76,0,0,0,1.14-.23l.17.7a3.43,3.43,0,0,1-1.42.28A2.23,2.23,0,0,1,64.9,9.35,3.39,3.39,0,0,1,68.41,5.9a2.26,2.26,0,0,1,2.51,2.29c0,1.08-.57,2.05-1.63,2.05A.83.83,0,0,1,68.42,9.73Zm-.49-1.56a.74.74,0,0,0-.66.82.41.41,0,0,0,.43.47.76.76,0,0,0,.69-.8A.44.44,0,0,0,67.93,8.17Z"/><path class="cls-15" d="M79.45,6a1.47,1.47,0,0,1,1.62,1.51H80c0-.34-.17-.58-.56-.58s-.56.21-.56.64a2.72,2.72,0,0,0,.15.72h1.21v.77h-1v0a1.4,1.4,0,0,1-.44,1H81.1V11H77.7l-.16-.56a1.64,1.64,0,0,0,.61-1.37h-.73V8.32H78a3.31,3.31,0,0,1-.12-.83A1.44,1.44,0,0,1,79.45,6Z"/></g></g></g></svg>