<svg xmlns="http://www.w3.org/2000/svg" viewBox="0 0 20.12 14.51"><defs><style>.cls-1{fill:#fa5;}</style></defs><g id="Layer_2" data-name="Layer 2"><g id="Option_1" data-name="Option 1"><path class="cls-1" d="M18,0H2.13A2.13,2.13,0,0,0,0,2.13V12.38a2.13,2.13,0,0,0,2.13,2.13H18a2.14,2.14,0,0,0,2.13-2.13V2.13A2.13,2.13,0,0,0,18,0ZM2.13.63H18a1.5,1.5,0,0,1,1.44,1.09L15.85,4.66l-4.92,4,0,0a1.18,1.18,0,0,1-1.48,0l-5-4-3.71-3A1.5,1.5,0,0,1,2.13.63ZM18,13.88H2.13a1.5,1.5,0,0,1-1.5-1.5V2.49L4,5.22l3.06,2.5L2.47,12.08a.45.45,0,0,0-.12.26.36.36,0,0,0,.09.23.37.37,0,0,0,.27.12.31.31,0,0,0,.23-.09H3L7.61,8.15,9,9.25a1.74,1.74,0,0,0,1.16.41h0a1.75,1.75,0,0,0,1.16-.43l0,0,1.32-1.07,4.69,4.48a.32.32,0,0,0,.24.09.35.35,0,0,0,.26-.12.31.31,0,0,0,.09-.23.39.39,0,0,0-.12-.26L13.22,7.69l3.07-2.47,3.2-2.6v9.76A1.51,1.51,0,0,1,18,13.88Z"/></g></g></svg>