<svg xmlns="http://www.w3.org/2000/svg" viewBox="0 0 22.79 21.96"><defs><style>.cls-1{fill:#fa5;}</style></defs><g id="Layer_2" data-name="Layer 2"><g id="Option_1" data-name="Option 1"><path class="cls-1" d="M21.46,1.34h-9.7v-1A.37.37,0,0,0,11.39,0,.36.36,0,0,0,11,.36v1H1.32A1.32,1.32,0,0,0,1.32,4h.27V15.81a.37.37,0,0,0,.37.36H11v1.27L7.29,21.19a.35.35,0,0,0,0,.51.36.36,0,0,0,.25.11.36.36,0,0,0,.26-.11L11,18.47V21.6a.36.36,0,0,0,.36.36.37.37,0,0,0,.37-.36V18.5L15,21.7a.36.36,0,0,0,.25.11.37.37,0,0,0,.26-.62l-3.71-3.72v-1.3h9a.36.36,0,0,0,.36-.36V4h.33a1.32,1.32,0,1,0,0-2.64ZM20.4,15.44H2.32V4H20.4ZM21.46,3.25H1.32a.58.58,0,0,1-.59-.59.59.59,0,0,1,.59-.6H21.46a.6.6,0,0,1,.6.6A.59.59,0,0,1,21.46,3.25Z"/><path class="cls-1" d="M7.54,13.26A3.75,3.75,0,1,0,3.79,9.51,3.75,3.75,0,0,0,7.54,13.26Zm.37-6.74a3,3,0,0,1,2.63,2.63H7.91Zm-.73,0v3a.37.37,0,0,0,.36.37h3A3,3,0,1,1,7.18,6.52Z"/><path class="cls-1" d="M13.34,7.57h5.07a.37.37,0,0,0,.36-.37.36.36,0,0,0-.36-.36H13.34A.37.37,0,0,0,13,7.2.38.38,0,0,0,13.34,7.57Z"/><path class="cls-1" d="M13.34,9.88h5.07a.37.37,0,0,0,.36-.37.36.36,0,0,0-.36-.36H13.34a.37.37,0,0,0-.37.36A.38.38,0,0,0,13.34,9.88Z"/><path class="cls-1" d="M13.34,12.19h5.07a.37.37,0,0,0,.36-.37.36.36,0,0,0-.36-.36H13.34a.37.37,0,0,0-.37.36A.38.38,0,0,0,13.34,12.19Z"/></g></g></svg>