<svg xmlns="http://www.w3.org/2000/svg" viewBox="0 0 217.45 203.9"><defs><style>.cls-1{isolation:isolate;}.cls-2{fill:#ffd371;opacity:0.3;}.cls-3{mix-blend-mode:multiply;}.cls-4{fill:#eaeaea;}.cls-5{fill:#38333d;}.cls-6{fill:#cc5b54;}.cls-7{fill:#a03e3c;}.cls-8{fill:#75c189;}.cls-9{fill:#202023;}.cls-10{fill:#6c5d68;}.cls-11{fill:#f5eaea;}.cls-12{fill:#38343b;}.cls-13{fill:#60874f;}.cls-14{fill:#422e2d;}.cls-15{fill:#654242;}.cls-16{fill:#fa5;}.cls-17{fill:#db7f2f;}.cls-18{fill:#fff;}.cls-19{fill:#f19e86;}.cls-20{fill:#7f94b9;}.cls-21{fill:#e67779;}.cls-22{fill:#d1967b;}.cls-23{fill:#e57957;}.cls-24{fill:#efdcbb;}.cls-25{fill:#551e17;}.cls-26,.cls-27{fill:none;}.cls-26{stroke:#551e17;stroke-linecap:round;stroke-linejoin:round;stroke-width:0.4px;}.cls-27{stroke:#fff;stroke-miterlimit:10;}</style></defs><g class="cls-1"><g id="Layer_2" data-name="Layer 2"><g id="Option_1" data-name="Option 1"><path class="cls-2" d="M14.23,115.72C.71,62.83,62.83-11.88,113.43,1.6c39.24,10.45,30.2,48,52.62,67.73,41.24,36.25,60.81,97.65,18.18,121.78S81.17,200,58.49,188C26.51,171.06,14.23,115.72,14.23,115.72Z"/><g class="cls-3"><ellipse class="cls-4" cx="108.72" cy="192.09" rx="108.72" ry="5.94"/></g><path class="cls-5" d="M48.51,47.45c1.4,2.36,6.82,1.54,8.79.53,3.54-1.83,4.16-5,3.32-8.1,3.42,2.88,3,3.64,3.38,1.71.33-1.69-2.18-8.31-1.84-10.36A19.82,19.82,0,0,1,64,25.61a18.34,18.34,0,0,0,1-3.14,13.65,13.65,0,0,0,1.36-.73.6.6,0,0,0-.2-1.09c-.76-1.88-3.33-3.08-5.57-3a5.89,5.89,0,0,0-2.51.9,3.14,3.14,0,0,0-.77,1,3.37,3.37,0,0,0-3.86,3.83c-1.81,0-2.51,1.94-2.08,3.72a2.86,2.86,0,0,0,.19.63,3,3,0,0,0-.68,3.5c-1.62.79-1.74,3.3-.84,4.89-1.67,1.07-1.64,3-.92,4.79-1.34.87-1.11,2.36-.23,3.56a1.55,1.55,0,0,0-.49,1.11A1.55,1.55,0,0,0,48.51,47.45Z"/><path class="cls-5" d="M64.1,28.18c-2.23-1.84-.38-4.7.78-6.82a.55.55,0,0,1-.18-.57c.85-3.24,6.53-4.11,6.45-.79,1.37.14,2.81.45,3.5,1.75a2.25,2.25,0,0,1-.13,2.45h0c1.8.53,3.37,1.56,3.14,3.56A1.91,1.91,0,0,1,79.14,29c.26.74-.46,1.55-.33,2a3.1,3.1,0,0,1,1.69,2.64,2.44,2.44,0,0,1-.28,1.69c1.48.46,3,1.32,3.21,3a2.74,2.74,0,0,1-1.12,2.78c1.82,1.76,4.13,5.43,1.63,6.63,1.32,1.32,2.43,3.27.91,4.88a2,2,0,0,1-2.9.16c-.83,1.64-2.08,3.2-4.15,2.73-2.38-.54-2.85-3-2.6-5.07a2.85,2.85,0,0,1-1.39-1.26,5.46,5.46,0,0,1-1.4-.65C70.5,51.9,65.58,50,66,46.06c-1.5-.1-2.18-.15-2.7-2.16a10.34,10.34,0,0,1,.76-6.77C60.94,34.77,62.42,31.31,64.1,28.18Z"/><path class="cls-5" d="M55.39,182.23s-6.72,4.37-6.19,4.92,7.6-1.86,7.6-1.86l2.77-1s.23,3.2-.24,4.17a32.64,32.64,0,0,1-9,2.81,20.13,20.13,0,0,1-5.36,0,1.33,1.33,0,0,1-.26-2.2C47.12,186.57,55.39,182.23,55.39,182.23Z"/><path class="cls-6" d="M54.81,177.41l.58,4.82s-6.83,4.05-6.19,4.92c.49.65,6.54-.61,9.3-1.61a1.69,1.69,0,0,0,1.07-1.24l.06-5.23Z"/><path class="cls-5" d="M98.49,170.06s-.17,8,.58,7.88,2.75-7.32,2.75-7.32l.74-2.85s2.77,1.61,3.31,2.55a32.84,32.84,0,0,1-2.75,9,19.22,19.22,0,0,1-3.05,4.41,1.32,1.32,0,0,1-2-1C97.42,179.33,98.49,170.06,98.49,170.06Z"/><path class="cls-6" d="M94.18,167.82l4.31,2.24s-.5,7.92.58,7.88c.81,0,3.18-5.75,3.91-8.6a1.68,1.68,0,0,0-.42-1.57l-4.29-3Z"/><path class="cls-6" d="M17.72,93.34l2.88-1.41c1.55-.77,3.45-1.29,4.07-3.07.42-1.18.88-2.9-.33-3.75a.17.17,0,0,0-.2,0l-.05,0c-2.45-2.26-6.22-2.79-8.23-1.4-.17.11-.16.73,0,.81,1.26.49,3-.09,3.81,1.12-2.33,1-5.12,1-7.24,2.48-.34.24-1.19,1-.37,1.3.52.16,1.34-.24,1.84-.36l2.41-.58-2.68,1.65a6.38,6.38,0,0,0-1.85,1.26.84.84,0,0,0,.1,1.16,1.48,1.48,0,0,0,1.28.32.3.3,0,0,1,0,.1.21.21,0,0,0,.09.23,2.09,2.09,0,0,0,2-.15c.33-.17.65-.35,1-.53a1.3,1.3,0,0,0-.18.23.66.66,0,0,0,.07.86C16.57,94,17.25,93.57,17.72,93.34Z"/><path class="cls-7" d="M22,87.86a2.53,2.53,0,0,1-2-1.13.24.24,0,0,1,.06-.32.23.23,0,0,1,.32.07,2,2,0,0,0,1.95.88.23.23,0,0,1,.28.17.25.25,0,0,1-.18.28A2.59,2.59,0,0,1,22,87.86Z"/><path class="cls-7" d="M12.65,92.89a1.33,1.33,0,0,1-.81-.26,1.1,1.1,0,0,1-.42-1c0-.54,1.76-1.68,3.26-2.56-1.26.27-2.48.47-2.55.48a.23.23,0,0,1-.27-.19.23.23,0,0,1,.19-.26,37,37,0,0,0,4.21-.93.24.24,0,0,1,.29.13.25.25,0,0,1-.1.3c-2.13,1.16-4.48,2.66-4.57,3.06a.68.68,0,0,0,.24.58,1,1,0,0,0,.9.1c.67-.22,3.88-1.86,3.91-1.88a.23.23,0,0,1,.21.42c-.13.06-3.27,1.66-4,1.89A1.52,1.52,0,0,1,12.65,92.89Z"/><path class="cls-7" d="M13.71,93.66h-.05c-.59,0-.78-.69-.8-1.06a.22.22,0,0,1,.21-.24.25.25,0,0,1,.25.21s0,.6.37.63h0a8.55,8.55,0,0,0,2.47-1l2.41-1.46.24.39-2.4,1.46A8.85,8.85,0,0,1,13.71,93.66Z"/><path class="cls-8" d="M45.12,59.36c-1,3.31-3.18,11.38-5.08,14.39-2.74,4.36-17.63,8.69-17.59,9,.34,2.69,1.05,5.78,3.15,7.46.32.26,16.62-3.17,22.68-9.23,1.88-1.87,7.38-18.39,9.24-23.84,1.09-3.2.36-9.58-2.09-10.22C51.5,45.85,47.11,52.93,45.12,59.36Z"/><path class="cls-9" d="M77,82.86H51s-3.85,11.92-4.62,17.87,7,78.84,7,78.84l7.72.73,3.23-65.81s3.27,36.17,3.53,36.83l28.08,20.17,4.08-7.33L80.77,147.41s1.19-45.76,1.4-48.32C82.55,94.37,77,82.86,77,82.86Z"/><path class="cls-10" d="M95.94,171.71a.19.19,0,0,1-.12,0L67.73,151.5a.23.23,0,0,1-.07-.1c-.27-.67-3.22-33.19-3.55-36.89L62.42,98.2a.22.22,0,0,1,.19-.24.2.2,0,0,1,.24.19l1.69,16.31c1.11,12.19,3.23,35.24,3.51,36.73l28,20.13a.21.21,0,0,1,.05.3A.21.21,0,0,1,95.94,171.71Z"/><path class="cls-10" d="M81.87,96.25h-.06C77.23,95,75.13,89.37,75,89.13a.22.22,0,0,1,.13-.28.2.2,0,0,1,.28.13s2.12,5.66,6.48,6.84a.23.23,0,0,1,.15.27A.21.21,0,0,1,81.87,96.25Z"/><path class="cls-10" d="M47.23,96.4a.23.23,0,0,1-.21-.13.23.23,0,0,1,.12-.29c3-1.24,6.18-7,6.21-7a.21.21,0,0,1,.29-.09.22.22,0,0,1,.09.3c-.13.24-3.24,5.92-6.42,7.23Z"/><path class="cls-11" d="M77.21,60.83c.4-1.24,4-10.13-.58-12.6a25.9,25.9,0,0,0-14.32-2.55c-5.08.63-10.17,1.46-11.68,4-4.37,7.25-4.44,13.63-1.5,21.31.88,2.3,1.08,7.49,1.7,12.66A175.76,175.76,0,0,0,77.21,83C75.82,74.59,76.93,61.74,77.21,60.83Z"/><path class="cls-6" d="M60.1,41.05s.2,4.31-2.09,5.46l1.52,4.86S68,47.14,70,45.89c-2.15-1.66-2-4.87-2-7.27C68,38.62,62.19,41.32,60.1,41.05Z"/><path class="cls-12" d="M49.13,71.17a.21.21,0,0,1-.21-.16c-.18-.68-.4-1.39-.63-2.15A27.08,27.08,0,0,1,47,63a22.28,22.28,0,0,1,3.48-13.46.22.22,0,0,1,.37.23A21.92,21.92,0,0,0,47.4,63a26.69,26.69,0,0,0,1.31,5.77c.23.76.45,1.47.63,2.16a.22.22,0,0,1-.15.26Z"/><path class="cls-12" d="M51.93,68.08a.22.22,0,0,1-.21-.14.22.22,0,0,1,.13-.28c3.28-1.18,11.45-1.4,15.33-.42a.22.22,0,0,1,.15.27.22.22,0,0,1-.26.16c-3.82-1-11.85-.75-15.07.4Z"/><path class="cls-12" d="M50.83,83.83a.22.22,0,0,1-.22-.22.21.21,0,0,1,.21-.22,103.41,103.41,0,0,0,11.78-.74.22.22,0,0,1,.25.18.22.22,0,0,1-.18.25,102.94,102.94,0,0,1-11.84.75Z"/><path class="cls-8" d="M63,57.38c-2.35,9.19.46,18.92,2,28.35a115.11,115.11,0,0,0,5.84,22.32c7.64-1,13.26-4.2,17-8.75-2.4-5-7.23-15-8.32-20.39-1.21-6-1.55-12.23.06-18.23,1-3.54,2.42-7.24.06-10.55-2-2.78-7.1-4.21-10.17-4.61C69.23,45.47,64,53.42,63,57.38Z"/><path class="cls-8" d="M43.82,105.06c-.08.67,2.73,1.39,3,.89.09-.07,0-3.85,0-4a71.43,71.43,0,0,1,3.87-14.17c1.56-4.42,1.2-8.83.72-13.42-1-10,.47-19.72,6.6-27.86a2.53,2.53,0,0,0,.9-.73c-10,.19-13.92,10.88-13,19.11.34,3,1.08,6,1.19,9s0,6-.08,9C46.83,89.34,44.59,98.73,43.82,105.06Z"/><path class="cls-13" d="M47.07,82.26h0a.23.23,0,0,1-.2-.25c.53-4.64-.36-11.62-1-16.23-.12-1-.23-1.83-.31-2.55-.48-4.2,2-10,2.12-10.21a.23.23,0,0,1,.31-.12.24.24,0,0,1,.12.31s-2.56,5.89-2.1,10l.32,2.54c.59,4.64,1.49,11.65.95,16.34A.23.23,0,0,1,47.07,82.26Z"/><path class="cls-6" d="M55.92,28.09S55,35.42,56.39,38s3.81,4.88,5.77,5c2.63.2,7-3,8.39-5.63S72,30.66,72,28.68c-.08-3.69-1.13-6.75-8.32-7.74C60.35,20.49,56.67,25,55.92,28.09Z"/><path class="cls-14" d="M57.44,29.75a.3.3,0,0,1-.2-.08.31.31,0,0,1,0-.44,2.84,2.84,0,0,1,3.33-.41.31.31,0,0,1,.14.41.32.32,0,0,1-.42.14,2.27,2.27,0,0,0-2.6.28A.33.33,0,0,1,57.44,29.75Z"/><path class="cls-14" d="M67.81,29.8a.31.31,0,0,1-.22-.09A2,2,0,0,0,65,29.46a.31.31,0,1,1-.34-.52,2.67,2.67,0,0,1,3.36.33.31.31,0,0,1,0,.44A.31.31,0,0,1,67.81,29.8Z"/><path class="cls-5" d="M65.57,19.78s.64,3.44-1.39,5c0,0-8.17,1.69-9.28,4.93C54.9,29.68,54.24,18.53,65.57,19.78Z"/><path class="cls-5" d="M64.18,24.75a21.58,21.58,0,0,0,5.52,2.08c2,.23,2.27,4.68,2.27,4.68s.83,1.17,1-.15c.3-3.08.25-10.79-7.36-11.58C65.57,19.78,65.1,24.53,64.18,24.75Z"/><path class="cls-10" d="M69.7,27.06h0a14.14,14.14,0,0,1-3.82-1.27,19.33,19.33,0,0,1-1.76-1,.23.23,0,0,1,0-.35,6.74,6.74,0,0,0,1-2.73.23.23,0,0,1,.25-.21.24.24,0,0,1,.22.24,7.36,7.36,0,0,1-1,2.79c.28.16.83.47,1.51.8a13.53,13.53,0,0,0,3.69,1.23.23.23,0,0,1,.19.27A.22.22,0,0,1,69.7,27.06Z"/><path class="cls-7" d="M62.31,43.32a4.36,4.36,0,0,1-2.68-1.09.23.23,0,0,1,0-.32.24.24,0,0,1,.33,0,3.84,3.84,0,0,0,2.71,1c1.52-.21,5.12-2.58,5.15-2.6a.23.23,0,0,1,.26.39c-.15.1-3.72,2.45-5.35,2.66A2.83,2.83,0,0,1,62.31,43.32Z"/><path class="cls-6" d="M71,31.58s1.31-1.14,2.3-.38-.63,4.91-2.2,4C69.87,34.46,71,31.58,71,31.58Z"/><path class="cls-10" d="M54.9,30.59h0a.24.24,0,0,1-.19-.27c.44-2.67,2.32-3.58,4.28-4.16,2.58-.77,5.14-1.73,5.17-1.74a.23.23,0,0,1,.3.13.24.24,0,0,1-.14.3s-2.6,1-5.2,1.75c-2.1.63-3.58,1.51-3.95,3.79A.23.23,0,0,1,54.9,30.59Z"/><path class="cls-6" d="M90.78,96s-3.55,3-3.9,4.07-.84,2.7-.3,3c1.34.81,1.63-3.22,3-3.45C90.1,99.52,90.78,96,90.78,96Z"/><path class="cls-12" d="M118,127.52a24.08,24.08,0,0,0-5-12.3,15.53,15.53,0,0,0-3.8-3.75,18.71,18.71,0,0,0-7.94-5c-.66-.2-.93,1-.27,1.18a2.34,2.34,0,0,0,.24.09.61.61,0,0,0,0,.8,13.42,13.42,0,0,0,3.58,2.15c3.06,2.48,5.37,6.3,7.05,10a26.81,26.81,0,0,1,2.37,8.72c.19,2.32.41,4.5-2.26,5.34-1.34.42-3.17-.15-4.47-.48a.6.6,0,0,0-.27,0l-.87-.39c-.54-.27-1.06.44-.63,1,2.08,2.54,5.61,4.77,8.65,3.16S118.22,131,118,127.52Z"/><path class="cls-15" d="M99.75,102c-.06-.52-1.45-3.52-3.64-3.67-1.51-.1-3-.23-4.52-.35a8.09,8.09,0,0,0-5.85,2.46c-1.49,1.58-1.18,4-2.28,5.79a.25.25,0,0,0,0,.33.24.24,0,0,0,.09.16c1.08.86,1.79-.25,2.19-1.18.72-1.66,1.3-4.62,3.37-4.74a40.11,40.11,0,0,1,6.36.48c1.46.44,1.07,2.83,1.27,4a1.43,1.43,0,0,0,.83,1.13c.88.45,2,.4,2.25-.62A12.63,12.63,0,0,0,99.75,102Z"/><path class="cls-15" d="M109.75,119.08c-.84-3.53-2.09-7.5-4.24-10.29s-5.29-3.52-8.31-4.11-6.39-1.05-9,1.31-4,6.08-5.25,9.41c-1.52,4.17-3,9-2.83,13.6.13,4.39,2.32,8,4.52,11.44-.13.22,0,.58.24.56l12.53-.88c3-.21,6.27-.14,9-1.67C112.43,135.13,111.19,125.14,109.75,119.08Z"/><path class="cls-16" d="M107.85,116.93c-.9-3.76-2.5-7.49-5.31-9.83-3.61-3-8.57-3.2-12.84-2.82A20.64,20.64,0,0,0,78.26,110c-4.35,4.62-10.81,16.3-7.58,25.83a8.05,8.05,0,0,0,7.44,5.89c4.76.29,9.68-.29,14.44-.52,6.92-.35,14.73-2.2,16.18-11.34A33.75,33.75,0,0,0,107.85,116.93Z"/><path class="cls-17" d="M84.3,137.88c-4.63,0-8.68-.29-9.42-1-1.89-1.84-2.45-10.39-.79-12.2,2.24-2.46,18.47-2.74,24.89-1.82,2.19.31,2.61.67,2.73.92,1.14,2.33.34,11.21-2,12.78C98.5,137.3,90.83,137.88,84.3,137.88ZM90,122.79c-6.76,0-14.25.65-15.63,2.16s-1,9.9.77,11.6,22.55.73,24.24-.38c.93-.61,1.75-2.82,2.15-5.77.37-2.74.26-5.39-.26-6.45,0,0-.24-.37-2.39-.68A68.69,68.69,0,0,0,90,122.79Z"/><path class="cls-17" d="M88.59,117.33c-5.93,0-11.76-.34-12.43-.75a.31.31,0,0,1-.17-.32c.67-4.43,5.4-7.55,5.6-7.68l0,0a29,29,0,0,1,18.49-.25c.84.39,2.36,2.82,2.55,5a3,3,0,0,1-1.1,2.85C100.31,117,94.4,117.33,88.59,117.33Zm-12.16-1.1c.69.33,5.58.69,11.89.69h.05c7,0,11.94-.44,12.95-1.16a2.5,2.5,0,0,0,.91-2.45c-.18-2-1.63-4.3-2.3-4.61-1-.46-9.93-2.9-18.12.26C81.48,109.17,77.11,112.18,76.43,116.23Z"/><path class="cls-17" d="M90.46,110.85a1.29,1.29,0,1,1-1.3-1.27A1.28,1.28,0,0,1,90.46,110.85Z"/><path class="cls-17" d="M79.71,127.49a1.29,1.29,0,1,1-1.3-1.27A1.28,1.28,0,0,1,79.71,127.49Z"/><path class="cls-17" d="M98.4,127.23a1.27,1.27,0,0,1-1.26,1.3,1.29,1.29,0,1,1,0-2.57A1.27,1.27,0,0,1,98.4,127.23Z"/><path class="cls-6" d="M96.31,93.51c-1.41-.82-5-.3-5-.24-.84,3.27-2,4.43-2.42,7.8,0,.54-.73,1.8.46,2.25.33.13,1,.38,1.38-.18.33.84,1.88.84,2,.23a1.69,1.69,0,0,0,1.15.39c.69-.14,1-.38,1.07-1.09.72.44,1.66.34,1.88-.59.3-1.26-.26-1.8-.2-3.09s.29-2.48.39-3.73C97.17,94.3,97.14,94,96.31,93.51Z"/><path class="cls-7" d="M89.71,103.65a1.47,1.47,0,0,1-.54-.1,1.15,1.15,0,0,1-.64-.8c-.44-1.65,1.08-4.73,1.15-4.86a.23.23,0,0,1,.41.21s-1.51,3.05-1.11,4.53a.72.72,0,0,0,.38.5,1.9,1.9,0,0,0,1.31-.19.22.22,0,0,1,.31.1.23.23,0,0,1-.09.31A2.89,2.89,0,0,1,89.71,103.65Z"/><path class="cls-7" d="M91.84,102.09l-.25,0a.23.23,0,0,1,.06-.46,13.88,13.88,0,0,0,3-.45.23.23,0,1,1,.11.44A16.26,16.26,0,0,1,91.84,102.09Z"/><path class="cls-8" d="M75.76,62.06c2.28,2.62,7.19,7.45,9,10.51,2.64,4.43,5.44,22.71,5.7,22.8A9.33,9.33,0,0,0,97.84,95c.37-.16-.28-18.38-2.91-26.53C94.11,66,87.84,55.3,82.54,50.94c-2.6-2.15-8.36-4.68-10.05-2.79C69.78,51.18,72.64,58.46,75.76,62.06Z"/><path class="cls-13" d="M79.8,66.68a.24.24,0,0,1-.14-.05,25.63,25.63,0,0,1-7.17-9.52c-2.53-6-.28-9-.18-9.1a.23.23,0,1,1,.36.28s-2.17,2.92.24,8.64a25,25,0,0,0,7,9.33.24.24,0,0,1,0,.33A.23.23,0,0,1,79.8,66.68Z"/><path class="cls-18" d="M59.34,37.19a36.45,36.45,0,0,0,5.48,0A5.25,5.25,0,0,1,60.69,39C60.12,39,59.34,37.19,59.34,37.19Z"/><ellipse class="cls-14" cx="64.82" cy="32.69" rx="0.67" ry="1.21"/><ellipse class="cls-14" cx="58.86" cy="31.95" rx="0.67" ry="1.21"/><path class="cls-14" d="M61.21,31.86a3.83,3.83,0,0,1-.33,1.19c-.17.43-.52.74-.8,1.32a1.2,1.2,0,0,0,0,.91,1.23,1.23,0,0,0,.42.55c.31.23.55.21.57.14s-.13-.2-.27-.44a.75.75,0,0,1,0-.85,8.51,8.51,0,0,0,.95-1.26,3.75,3.75,0,0,0,.45-1.5c0-.91-.34-1.28-.54-1.21S61.27,31.18,61.21,31.86Z"/><path class="cls-12" d="M175.59,49.85s12.93,24.29,14.1,34.22l3-.85s-7.3-25-15.56-34.65Z"/><polygon class="cls-19" points="110.16 61.64 113.77 65.67 110.27 70.17 105.6 65.5 110.16 61.64"/><path class="cls-16" d="M147.58,45.59c-4.63-2.08-10.86,8.88-13.28,13.09C132.14,62.44,127,75.51,127,75.51l-14.82-14-5.33,6.08s15.93,20,20.73,20.06C135.74,87.82,158,50.25,147.58,45.59Z"/><polygon class="cls-19" points="128.37 185.94 130.85 179.48 124.41 177.19 122.48 184.26 127.45 187.17 128.37 185.94"/><path class="cls-20" d="M128.86,186.12s-4.62-.9-6-4c0,0-4,1.4-5.7,1.17s-5.58-1.69-6.93.66l17.2,6.12A7.65,7.65,0,0,0,128.86,186.12Z"/><rect class="cls-5" x="117.72" y="178.69" width="1.68" height="18.26" transform="translate(-98.13 236.53) rotate(-70.41)"/><path class="cls-12" d="M128.86,186.33h0c-.18,0-4.38-.9-6.12-4.09a.21.21,0,0,1,.08-.29.22.22,0,0,1,.29.09c1.64,3,5.79,3.87,5.83,3.88a.2.2,0,0,1,.16.25A.21.21,0,0,1,128.86,186.33Z"/><path class="cls-12" d="M121.88,184.11a.21.21,0,0,1-.19-.13l-.58-1.27a.2.2,0,0,1,.11-.27.2.2,0,0,1,.27.1l.58,1.27a.21.21,0,0,1-.1.28Z"/><path class="cls-12" d="M120.2,184.57a.2.2,0,0,1-.19-.12l-.58-1.27a.21.21,0,0,1,.11-.28.2.2,0,0,1,.27.11l.58,1.26a.21.21,0,0,1-.1.28A.15.15,0,0,1,120.2,184.57Z"/><polygon class="cls-19" points="174.89 187.95 174.92 181.03 168.08 181.03 168.77 188.34 174.43 189.41 174.89 187.95"/><path class="cls-20" d="M175.4,188s-4.65.7-7-1.75c0,0-3.3,2.67-5,3s-5.83.28-6.32,2.94H175.4A7.64,7.64,0,0,0,175.4,188Z"/><rect class="cls-5" x="157.14" y="192.16" width="18.26" height="1.68"/><path class="cls-12" d="M174.08,188.24a8.8,8.8,0,0,1-5.79-1.88.22.22,0,0,1,0-.3.21.21,0,0,1,.29,0c2.56,2.29,6.76,1.71,6.8,1.71a.21.21,0,0,1,.24.17.22.22,0,0,1-.18.24A9.93,9.93,0,0,1,174.08,188.24Z"/><path class="cls-12" d="M168.08,188.41a.22.22,0,0,1-.15-.06l-1-1a.21.21,0,0,1,0-.3.21.21,0,0,1,.29,0l1,1a.21.21,0,0,1,0,.29A.22.22,0,0,1,168.08,188.41Z"/><path class="cls-12" d="M166.66,189.41a.25.25,0,0,1-.16-.06l-1-1a.22.22,0,0,1,0-.3.21.21,0,0,1,.3,0l1,1a.21.21,0,0,1-.15.35Z"/><path class="cls-21" d="M140.51,99l-11.95,41.52-6.44,37.42L133,182.18l11.18-34s14.62-30.62,14.9-31.17c.56-1.12,1.68,36.4,1.68,36.4l5.45,29.87,10.69.35s-1.33-27.21-1.14-30.91c.29-5.73,4.64-50.84,3-54.5C152.64,99.41,140.51,99,140.51,99Z"/><path class="cls-12" d="M159.09,117.25a.21.21,0,0,1-.19-.13c-1.87-4.33-2.2-12.9-2.22-13.26a.22.22,0,0,1,.21-.22.2.2,0,0,1,.21.2c0,.09.35,8.85,2.18,13.11a.21.21,0,0,1-.11.28Z"/><path class="cls-12" d="M158,114.3a.2.2,0,0,1-.11,0,36.33,36.33,0,0,1-4.1-3c-.44-.58-1.16-8.48-1.3-10.06a.21.21,0,0,1,.19-.23.19.19,0,0,1,.22.19c.33,3.57.94,9.41,1.23,9.85a34.14,34.14,0,0,0,4,2.9.22.22,0,0,1,.06.29A.21.21,0,0,1,158,114.3Z"/><path class="cls-19" d="M154.89,37.11s.24,3.76.24,6.55c0,0,3.53,4,9.17-.4,0-2.29-.48-5.25-.56-7.64C163.74,35.62,156.86,37.56,154.89,37.11Z"/><path class="cls-22" d="M167.69,31.16s-.53,4.48-2.51,5.18l-.08-3.2Z"/><path class="cls-22" d="M150.77,23.34s-1.26,7.3,1.51,8.83c2.38,1.3,2.09-8.25,2.09-8.25Z"/><path class="cls-19" d="M152.26,25s-.89,6.61-.13,9.35c.68,2.47,4,5,5.91,5.13,2.53.24,7-1.21,8.15-5.29a37.06,37.06,0,0,0,1.47-8.4c0-3.56-1-6.51-7.89-7.55C156.61,17.77,153,22.07,152.26,25Z"/><path class="cls-23" d="M158.58,39.72h0a5.15,5.15,0,0,1-2.91-1.06.22.22,0,1,1,.28-.34,4.78,4.78,0,0,0,2.63,1h0c1.83,0,5.18-1.84,5.21-1.86a.22.22,0,0,1,.3.09.22.22,0,0,1-.08.3C163.87,37.88,160.52,39.72,158.58,39.72Z"/><path class="cls-22" d="M164.91,23.92S167,28,166.73,29.2a9.65,9.65,0,0,0,2.16-3.73c.6-2.22.29-5.72-2.19-6.3C166.7,19.17,166.41,23.21,164.91,23.92Z"/><path class="cls-22" d="M164.91,23.92s-3.55-1.46-4.56-1.43c-3.79.12-8.53,4.29-12-.48,1.71-3.8,7.75-8.65,13.92-6.89,2.91.83,4.23,2.68,4.46,4.05C166.7,19.17,168.36,23.47,164.91,23.92Z"/><path class="cls-19" d="M166.68,28.57s1.27-1.08,2.22-.34-.67,4.72-2.17,3.8C165.57,31.33,166.68,28.57,166.68,28.57Z"/><path class="cls-12" d="M166.68,28.79a.23.23,0,0,1-.22-.2,10.82,10.82,0,0,0-1.73-4.54l-.18-.25.29-.09a3.34,3.34,0,0,0,1.84-1.47,2.73,2.73,0,0,0,.06-2.15.22.22,0,0,1,.13-.28.23.23,0,0,1,.29.14,3.09,3.09,0,0,1-.09,2.49A3.6,3.6,0,0,1,165.25,24a10.74,10.74,0,0,1,1.65,4.52.22.22,0,0,1-.2.24Z"/><path class="cls-12" d="M160.35,22.71a.18.18,0,0,1-.1,0s-4.21-1.94-6.68-.24a.22.22,0,1,1-.25-.37c2.68-1.84,6.94.13,7.12.21a.23.23,0,0,1,.11.3A.22.22,0,0,1,160.35,22.71Z"/><path class="cls-16" d="M164.91,41.76s-6.45,2.11-10.79,0c0,0-10.25,3.69-11.18,4.87s-3.58,50.12-3.15,52.62a129.45,129.45,0,0,0,40-.93c0-13.33-2.79-51.56-4.37-52.74S164.91,41.76,164.91,41.76Z"/><path class="cls-17" d="M141.33,74.17h0a.21.21,0,0,1-.2-.22c0-1.06,1.32-25.87,1.61-27.36a.21.21,0,0,1,.25-.16.2.2,0,0,1,.17.24c-.29,1.47-1.6,27-1.61,27.3A.22.22,0,0,1,141.33,74.17Z"/><path class="cls-19" d="M99.82,60.2l2.27,2.09c1.22,1.13,2,3.57,3.82,3.52,1.2,0,4.3-3,4.31-3.06,1.18-3-5.38-7.72-7.48-9.09-.34-.23-1.35-.71-1.29.11,0,.53.68,1.13,1,1.53l1.35,2-2.4-1.83a6.09,6.09,0,0,0-1.77-1.22.81.81,0,0,0-1,.49A1.42,1.42,0,0,0,98.73,56h-.1a.19.19,0,0,0-.18.15,2,2,0,0,0,.82,1.73c.27.24.54.46.81.68a1.25,1.25,0,0,0-.26-.07.62.62,0,0,0-.75.35C98.84,59.39,99.45,59.86,99.82,60.2Z"/><polygon class="cls-10" points="100.32 70.03 85.76 57.81 96.5 36.6 112.51 49.2 100.32 70.03"/><polygon class="cls-10" points="93.04 37.63 96.5 36.6 97.37 42.74 94.44 44.17 93.04 37.63"/><polygon class="cls-18" points="93.75 38.68 96.35 37.82 111.03 49.3 100.06 68.11 96.37 69.28 94.25 62.26 93.75 38.68"/><polygon class="cls-10" points="96.86 71.06 82.3 58.84 93.04 37.63 109.05 50.23 96.86 71.06"/><path class="cls-19" d="M103.45,59.34c.12.4.8,0,1.12,0a2.68,2.68,0,0,1,2.23,1,14.93,14.93,0,0,1,.93,2.21c.09.19,1.76-1.91,1.42-2.68-.47-1.07-2-2.63-3.29-2.57C105.24,57.36,103.18,58.45,103.45,59.34Z"/><path class="cls-23" d="M106.53,62.42a.21.21,0,0,1-.2-.13,2.55,2.55,0,0,1,.23-1.9,2.38,2.38,0,0,0-2.14-.68c-.49,0-.9,0-1.13-.24a.68.68,0,0,1-.09-.68,3.51,3.51,0,0,1,2.62-1.66c1.8-.32,3.44,2.54,3.51,2.66a.21.21,0,0,1-.08.29A.2.2,0,0,1,109,60s-1.58-2.72-3.08-2.46a3.14,3.14,0,0,0-2.29,1.39c-.07.18,0,.25,0,.27s.44.11.79.09a2.71,2.71,0,0,1,2.57,1,.21.21,0,0,1,0,.23,2.33,2.33,0,0,0-.27,1.66.21.21,0,0,1-.11.27Z"/><path class="cls-10" d="M159.85,94.33c-.55,4.81,6.25,16.69,6.71,18.35s30.26-7.64,34-11.24c1.23-1.19-5.1-19.22-6.11-19.76S160.59,87.8,159.85,94.33Z"/><path class="cls-12" d="M159,93.05c-.63.73,1.43,7.45,2.47,10.29.41,1.1,37.17-11.28,37.67-12S194.75,81,194.52,80.67,164.74,86.32,159,93.05Z"/><rect class="cls-24" x="167.86" y="99.04" width="2.28" height="4.92" transform="translate(-24.57 64.19) rotate(-20.08)"/><rect class="cls-24" x="190.01" y="91.95" width="2.28" height="4.92" transform="translate(-20.8 71.37) rotate(-20.08)"/><path class="cls-12" d="M169.33,43.14c-1.61,1-6.55,11.56-8.36,21.61-2.09,11.62-1.16,27.74-1.15,27.81,0,.73,2.84-.84,2.79-1.57-.54-8.84-.62-17.5,1.21-26.17s6.39-19.26,8.12-20.73C172.33,43.75,169.53,43,169.33,43.14Z"/><path class="cls-19" d="M184.34,93.57s-2.89,1-3.73,2.29-1.93,3.87-1.14,5,1.32-.43,1.32-.43Z"/><path class="cls-19" d="M189.18,94.14c-1.07-1.17-4.6-1.74-4.52-1.65-1.74,2.8-3.87,5.38-5.19,8.42-.21.48-1.25,2.62-.18,2.87.33.08.51-.16.71-.38a12.82,12.82,0,0,0,1-1.37,13.84,13.84,0,0,0-.45,2.29c-.06.61-.16,2.1.55,2.46.37.18.72-.12,1-.64a.43.43,0,0,0,.52.32c.82-.13,1.5-1.61,1.82-2.24s.57-1.29.85-1.93c-.26,1.22-.39,2.61.43,2.45.57-.1.92-1.35,1.08-1.79.42-1.18.68-2.41,1.11-3.59s1-2.23,1.44-3.36C189.76,95.13,189.82,94.84,189.18,94.14Z"/><path class="cls-23" d="M182.16,106.35h0a.22.22,0,0,1-.17-.25c0-.2.88-4.89,1.7-6a.22.22,0,0,1,.3,0,.21.21,0,0,1,0,.29c-.76,1-1.61,5.78-1.62,5.82A.21.21,0,0,1,182.16,106.35Z"/><path class="cls-23" d="M185.35,102.5l-.09,0a.23.23,0,0,1-.11-.28l.81-1.87a.22.22,0,0,1,.28-.11.23.23,0,0,1,.11.28l-.81,1.87A.21.21,0,0,1,185.35,102.5Z"/><path class="cls-23" d="M186.84,99h0a5.07,5.07,0,0,1-3.52-1.71.2.2,0,0,1,0-.29.21.21,0,0,1,.3,0,4.74,4.74,0,0,0,3.22,1.55.22.22,0,0,1,0,.43Z"/><path class="cls-23" d="M179.31,104h0a.5.5,0,0,1-.44-.3c-.48-1,.87-4.54,4-8.77a.21.21,0,1,1,.34.25c-3.38,4.63-4.22,7.71-3.92,8.34,0,.08.07.06.09.06.61,0,1.31-1.19,1.51-1.63a14.31,14.31,0,0,1,1.34-3.13.2.2,0,0,1,.28-.07.2.2,0,0,1,.07.29,15.14,15.14,0,0,0-1.29,2.94.22.22,0,0,1,0,.14C181.12,102.31,180.31,104,179.31,104Z"/><path class="cls-16" d="M172.45,46.7c-3.87,3.27,2.2,14.75,4.92,18.77,2.43,3.59,11.56,10.46,11.56,10.46l-6.08,17,6.28,4.35S199.5,78,199.59,73.14C199.7,67.92,179.8,40.47,172.45,46.7Z"/><path class="cls-17" d="M178.37,67.08a.19.19,0,0,1-.15-.07c-.3-.32-7.42-8.07-7.25-15,.07-2.72.73-4.66,2-5.76a3.44,3.44,0,0,1,2.49-.91.21.21,0,0,1,.19.23.21.21,0,0,1-.23.19,3.13,3.13,0,0,0-2.18.82c-1.16,1-1.78,2.85-1.84,5.44-.16,6.72,7.06,14.6,7.14,14.68a.21.21,0,0,1,0,.29A.22.22,0,0,1,178.37,67.08Z"/><path class="cls-25" d="M160.5,30.41c0,.55.29,1,.65,1s.66-.44.66-1-.29-1-.66-1S160.5,29.86,160.5,30.41Z"/><path class="cls-25" d="M154.18,29.9c0,.55.29,1,.65,1s.66-.45.66-1-.29-1-.66-1S154.18,29.35,154.18,29.9Z"/><path class="cls-26" d="M163.74,28.13a2.67,2.67,0,0,0-3-1"/><path class="cls-26" d="M157.14,27.09a2.09,2.09,0,0,0-3,.13"/><path class="cls-26" d="M158.45,28.71s-.71,1.81-1.31,2.93,1.18,1.63,1.18,1.63"/><path class="cls-26" d="M160.82,35.29a3.12,3.12,0,0,1-3.34.55"/><path class="cls-26" d="M166.52,30.8s0-1.8,1.36-1.31"/><rect class="cls-16" x="88.72" y="4.7" width="39.74" height="12" rx="1.38"/><line class="cls-27" x1="93.27" y1="9.26" x2="122.88" y2="9.26"/><line class="cls-27" x1="93.27" y1="12.14" x2="102.64" y2="12.14"/><polygon class="cls-16" points="93.27 15.34 93.27 20.87 99.16 15.34 93.27 15.34"/></g></g></g></svg>