<svg xmlns="http://www.w3.org/2000/svg" viewBox="0 0 59.93 59.93"><defs><style>.cls-1{fill:#fa5;}.cls-2{fill:#fff;}</style></defs><g id="Layer_2" data-name="Layer 2"><g id="Option_1" data-name="Option 1"><circle class="cls-1" cx="29.97" cy="29.97" r="29.97"/><path class="cls-2" d="M40.42,13.94H19.51a3.63,3.63,0,0,0-3.62,3.62V38.47a3.63,3.63,0,0,0,3.62,3.62H32.34L44,45.68V17.56A3.63,3.63,0,0,0,40.42,13.94Z"/><g id="USvHfJ.tif"><path class="cls-1" d="M29.93,38.52a17.41,17.41,0,0,1-8.54-2.08,10.61,10.61,0,0,1-1.26-.84.89.89,0,0,1-.28-1.33c.37-.51.86-.45,1.34-.12a14.52,14.52,0,0,0,7.54,2.5,15.46,15.46,0,0,0,9.68-2.25c.61-.4,1.22-.88,1.76,0s-.25,1.18-.76,1.51A16.8,16.8,0,0,1,29.93,38.52Z"/></g></g></g></svg>