<svg xmlns="http://www.w3.org/2000/svg" viewBox="0 0 320.41 235"><defs><style>.cls-1{fill:#4ec0c4;opacity:0.25;}.cls-2{fill:#cbcbcb;}.cls-10,.cls-11,.cls-12,.cls-13,.cls-14,.cls-15,.cls-17,.cls-18,.cls-2,.cls-20,.cls-21,.cls-22,.cls-23,.cls-24,.cls-25,.cls-27,.cls-28,.cls-29,.cls-3,.cls-30,.cls-31,.cls-32,.cls-33,.cls-34,.cls-35,.cls-36,.cls-37,.cls-4,.cls-40,.cls-41,.cls-44,.cls-45,.cls-46,.cls-47,.cls-48,.cls-49,.cls-5,.cls-50,.cls-51,.cls-52,.cls-53,.cls-54,.cls-57,.cls-58,.cls-59,.cls-6,.cls-63,.cls-64,.cls-65,.cls-67,.cls-68,.cls-69,.cls-7,.cls-8{fill-rule:evenodd;}.cls-3{fill:#301e49;}.cls-4{fill:#3b3678;}.cls-5{fill:#ae4432;}.cls-6{fill:#5e281e;}.cls-7{fill:#bcbcbc;}.cls-8{fill:#fa5;}.cls-9{fill:#db8f49;}.cls-10{fill:#c6c7fc;}.cls-11{fill:#e9eef2;}.cls-12{fill:#354a63;}.cls-13,.cls-62{fill:#3c150b;}.cls-14,.cls-43{fill:#db8f7b;}.cls-15{fill:#fcae98;}.cls-16,.cls-37{fill:#a46451;}.cls-17,.cls-19{fill:#fff;}.cls-18{fill:#377872;}.cls-20{fill:#d6dbf5;}.cls-21{fill:#1e62b9;}.cls-22{fill:#3677e4;}.cls-23{fill:#e6a498;}.cls-24{fill:#f7beb3;}.cls-25{fill:#4c3530;}.cls-26{fill:#b16d61;}.cls-27{fill:#b5beea;}.cls-28{fill:#8a94c9;}.cls-29{fill:#b0b2f7;}.cls-30{fill:#cecffc;}.cls-31{fill:#d8d9fd;}.cls-32{fill:#e4e4fd;}.cls-33,.cls-38{fill:#26364c;}.cls-34,.cls-60{fill:#fad27f;}.cls-35{fill:#fc7270;}.cls-36{fill:#c27d6a;}.cls-39,.cls-59{fill:#834837;}.cls-40,.cls-66{fill:#e94846;}.cls-41,.cls-42{fill:#29307d;}.cls-44,.cls-56{fill:#e85451;}.cls-45,.cls-55{fill:#cd8876;}.cls-46{fill:#9da7d8;}.cls-47{fill:#f3bc5b;}.cls-48{fill:#b77b24;}.cls-49{fill:#ce9334;}.cls-50{fill:#cf8a7f;}.cls-51{fill:#e5e5e5;}.cls-52{fill:#fcb9a4;}.cls-53{fill:#eaa18c;}.cls-54{fill:#314865;}.cls-57{fill:#718da9;}.cls-58{fill:#3c5677;}.cls-61,.cls-63{fill:#cf9d38;}.cls-64{fill:#eef0f1;}.cls-65{fill:#ceccca;}.cls-67{fill:#f4f4ff;}.cls-68{fill:#3980ec;}.cls-69{fill:#cc665a;}</style></defs><g id="Layer_2" data-name="Layer 2"><g id="Option_1" data-name="Option 1"><path class="cls-1" d="M151,.08c89.41-1.81,129,26.18,129,26.18s59.05,29,26.72,108.62c-25.72,63.36-121.37,116.69-169.27,95.33s-44.21-49.69-97.16-89.5S-1.32,68.22,7.68,51.59C7.68,51.59,35.76,2.42,151,.08Z"/><path class="cls-2" d="M249.4,28.9H79.47a6.38,6.38,0,0,0-6.42,6.3V160.73a6.38,6.38,0,0,0,6.42,6.3H249.4a6.37,6.37,0,0,0,6.41-6.3V35.2a6.37,6.37,0,0,0-6.41-6.3Z"/><path class="cls-3" d="M249.4,30.7H79.47a4.57,4.57,0,0,0-4.59,4.5V160.73a4.57,4.57,0,0,0,4.59,4.51H249.4a4.57,4.57,0,0,0,4.59-4.51V35.2a4.57,4.57,0,0,0-4.59-4.5Z"/><polygon class="cls-4" points="91.2 43.89 232.91 43.89 232.91 152.05 91.2 152.05 91.2 43.89 91.2 43.89"/><path class="cls-5" d="M73.37,67.5c4.74-9,16.73-13.2,15.26-2.3s-9.08,19-9.88,27.7,1.75,17.2-3.54,27.58-14.1,12.6-16.63,17.07-3.34,10.86-3.34,10.86H22s9.62-18.48,10.42-28.33,3.74-34.27,6.41-39.65,5.61-5.25,5.61-5.25a32.25,32.25,0,0,1,11-7.36c6.68-2.62,18-9.31,18-9.31l0,9Z"/><path class="cls-6" d="M73.53,67.19c.26-.45.53-.9.81-1.33,0,.06-.34.53-.81,1.33Zm-.14-4.49,0,4.78a53.84,53.84,0,0,0-5.08,12,43,43,0,0,1-6.91,13.66s-3-11.24-.39-16.48,9.17-11.43,12.4-14Z"/><path class="cls-7" d="M240.4,94a3.94,3.94,0,1,0,4,3.94,4,4,0,0,0-4-3.94Z"/><path class="cls-2" d="M238.94,94.3a3.92,3.92,0,0,0,0,7.34,3.92,3.92,0,0,0,0-7.34Z"/><path class="cls-5" d="M255.79,67.63c-4.74-9-16.73-13.19-15.26-2.3s9.08,19,9.88,27.71-1.74,17.2,3.54,27.57,14.1,12.61,16.64,17.07,3.34,10.87,3.34,10.87h33.26s-9.62-18.48-10.42-28.33S293,86,290.36,80.57s-5.61-5.26-5.61-5.26a32.31,32.31,0,0,0-11-7.35c-6.68-2.63-18-9.32-18-9.32l0,9Z"/><path class="cls-6" d="M255.63,67.33c-.26-.46-.53-.9-.81-1.33,0,.06.34.53.81,1.33Zm.14-4.49,0,4.78a53.84,53.84,0,0,1,5.08,12,42.83,42.83,0,0,0,6.91,13.65s2.19-10.58-.45-15.82S259,65.39,255.77,62.84Z"/><path class="cls-8" d="M17.83,148.41c10.88-4.95,27.49-3.86,41,0v53.84H3.84q7-26.92,14-53.84Z"/><path class="cls-8" d="M311.07,148.41c-8.93-7.55-26.56-5.54-40.95,0l-2.85,53.84h53.14l-9.34-53.84Z"/><path class="cls-9" d="M15.6,167.73c.07,0,26.93-4,39.24.79l-.78,1.91c-11.77-4.62-38.08-.67-38.15-.66l-.31-2Z"/><path class="cls-9" d="M272.32,167.73c.07,0,26.93-4,39.24.79l-.78,1.91c-11.77-4.62-38.08-.67-38.15-.66l-.31-2Z"/><polygon class="cls-10" points="161.24 75.41 128 75.41 128 45.52 161.24 45.52 161.24 75.41 161.24 75.41"/><path class="cls-11" d="M141.87,67.58s-.71-.41-4.12.52-5,1.84-5.84,3.81a14,14,0,0,0-.84,3.5h27.11a10.09,10.09,0,0,0-1.08-4.56c-1.57-2.48-9.35-3.36-9.35-3.36a6.78,6.78,0,0,1-5.88.09Z"/><polygon class="cls-12" points="151.59 67.49 154.22 68.39 154.22 75.41 151.59 75.41 151.59 67.49 151.59 67.49"/><path class="cls-13" d="M148.52,47.55s-1.15-1.61-4.52-1.33a6.44,6.44,0,0,0-5.95,4.54c-.89,2.37.2,6.27.8,7.21s11.7.51,11.7.51,1.32-1.12,2-5.46-3.28-5.9-4-5.47Z"/><path class="cls-14" d="M139.44,56.53s-.53-1-1.35-.65-.87,2,0,3,1.35.63,1.35.63V56.53Z"/><path class="cls-14" d="M150.06,56.53s.53-1,1.36-.65.87,2,0,3-1.36.63-1.36.63V56.53Z"/><path class="cls-15" d="M145.64,61.45l1.25.14s-.65,3.89,0,4.76a8.94,8.94,0,0,0,2.47,1.76,9.81,9.81,0,0,1-4.91.89,7,7,0,0,1-4.14-1.38s1.8-.57,2.06-1.16a25.37,25.37,0,0,0-.09-4.48l3.36-.53Z"/><path class="cls-14" d="M145.64,61.45l1.25.14a20,20,0,0,0-.27,3.73,6,6,0,0,1-4.16,0c0-1.35-.18-3.34-.18-3.34l3.36-.53Z"/><polygon class="cls-12" points="136.05 68.1 138.68 67.49 138.68 75.41 136.05 75.41 136.05 68.1 136.05 68.1"/><path class="cls-15" d="M138.86,54.16s-.25,5.75,1.34,7.82a5.79,5.79,0,0,0,7.52,1.16c2.8-1.6,3-5.72,3.1-6.68a19.56,19.56,0,0,0-.62-3.86,9.15,9.15,0,0,1-1.65-2.15,4.68,4.68,0,0,1-.21-.82s-1.07.58-1.94,1.15a2.72,2.72,0,0,0-1.08,1.13,1,1,0,0,1-.13-1.15c.35-.67.39-.77.39-.77a7.59,7.59,0,0,0-2.51,1.18,5.67,5.67,0,0,0-1.13,1.25s-.46-.11-.25-.76.42-1.16.42-1.16a35,35,0,0,0-2.34,2.61,5.4,5.4,0,0,1-.91,1Z"/><path class="cls-16" d="M142.55,59.8a3.81,3.81,0,0,0,4.08,0l.22.35a4.28,4.28,0,0,1-4.57,0l.27-.31Z"/><path class="cls-16" d="M144.78,56.45a3.72,3.72,0,0,1-.37,1.44l-.14.15c-.15.17-.28.32-.2.42s.77.17.77.17V59s-.82,0-1.12-.33-.05-.61.22-.91l.12-.15a3.43,3.43,0,0,0,.28-1.22l.44,0Z"/><path class="cls-13" d="M141.94,55a.81.81,0,1,1-.62.78.72.72,0,0,1,.62-.78Z"/><path class="cls-13" d="M147,55a.8.8,0,1,1-.63.78A.72.72,0,0,1,147,55Z"/><path d="M140.53,54s1.52-1,2.62.11l-.33.26c-.83-.88-2-.05-2-.05l-.26-.32Zm7.92,0s-1.52-1-2.62.11l.33.26c.83-.88,2-.05,2-.05l.26-.32Z"/><path class="cls-17" d="M141.72,55.31a.17.17,0,0,1,.18.16.18.18,0,0,1-.36,0,.17.17,0,0,1,.18-.16Z"/><path class="cls-17" d="M146.71,55.31a.17.17,0,0,1,.18.16.18.18,0,0,1-.36,0,.17.17,0,0,1,.18-.16Z"/><polygon class="cls-18" points="196.1 137.97 128 137.97 128 76.59 196.1 76.59 196.1 137.97 196.1 137.97"/><path class="cls-19" d="M145.65,124.35c-.31-.07-.63-.12-.92-.21a4.79,4.79,0,0,1-3.7-3.77,3.61,3.61,0,0,1,1.08-3.26,5.62,5.62,0,0,1,3.7-1.69,9.45,9.45,0,0,1,1.19,0,2.66,2.66,0,0,0,.69,0,.59.59,0,0,1,.34,0c.31.08.62.17.92.28s.57.27.87.41c.05-.05.12-.1.17-.16a6.42,6.42,0,0,1,3.81-1.81,7.63,7.63,0,0,1,1.91,0,.83.83,0,0,0,.27,0,1.11,1.11,0,0,1,.6,0,6.12,6.12,0,0,1,2.57,1.25,3.79,3.79,0,0,1,1.45,2.68A4.24,4.24,0,0,1,159,121.7a5.19,5.19,0,0,1-1.53,1c-.15.07-.2.14-.19.29a5.07,5.07,0,0,1-1.61,4,6.21,6.21,0,0,1-3.46,1.73,5.74,5.74,0,0,1-5.8-2.27,4.68,4.68,0,0,1-.78-2.09Zm45.94-45.49c-.29.33-.7.35-.86.07.14-.1.27-.11.86-.07Zm2.4,7.86a.94.94,0,0,1,.8,0,.51.51,0,0,1-.13.16.65.65,0,0,1-.49.07c-.12,0-.18-.11-.18-.25ZM192,90a1.5,1.5,0,0,1,.87-.09.84.84,0,0,1-.71.36A.2.2,0,0,1,192,90Zm-5.45-1.9a1.08,1.08,0,0,1-.78.11.24.24,0,0,1-.22-.21.87.87,0,0,1,1,.1Zm-.94.39a2,2,0,0,1,1.18,0,3,3,0,0,1-.89.29c-.18,0-.21,0-.29-.25Zm6.84-1.36a.81.81,0,0,1-.87.36.22.22,0,0,1-.2-.26,3.42,3.42,0,0,1,1.07-.1ZM183,79.37a5.41,5.41,0,0,1,1.39.07s-.06.09-.1.11a2.25,2.25,0,0,1-1,.11c-.18,0-.22-.07-.26-.29Zm-2.14,8.9c-.05,0-.06.08-.09.09a1.83,1.83,0,0,1-.76.2c-.28,0-.29,0-.39-.27a1.82,1.82,0,0,1,1.24,0Zm14.5,1.5c0,.14-.06.2-.15.25a1.23,1.23,0,0,1-.57.17c-.25,0-.29,0-.38-.26a1.75,1.75,0,0,1,1.1-.16ZM183,79.93a4.13,4.13,0,0,1,1.48,0l-.2.11a2.64,2.64,0,0,1-.89.15.39.39,0,0,1-.39-.31Zm3.9,14.63a2,2,0,0,1-1.07.24c-.17,0-.3-.07-.32-.27a4.62,4.62,0,0,1,1.05-.1c.1,0,.26,0,.34.13Zm5.35-12.29a.66.66,0,0,1-.54.32c-.13,0-.27,0-.41,0s-.21,0-.32-.17a1.54,1.54,0,0,1,1.27-.18Zm-5.14,12.86a3,3,0,0,1-1.28.24c-.15,0-.17-.1-.21-.19s.18-.11.29-.12a2.87,2.87,0,0,1,1.2.07ZM194,90.81c-.06.12-.14.09-.22,0a1,1,0,0,1-.43-.62,1.08,1.08,0,0,1,.3-.94s.09,0,.2-.07c-.1.3-.29.55-.21.83a1.9,1.9,0,0,0,.36.76Zm-.09-4.92a2.2,2.2,0,0,1-.09.21,1.13,1.13,0,0,0,0,1c.08.2.16.39.23.59a.11.11,0,0,1,0,.1s-.12,0-.14,0a1.76,1.76,0,0,1-.33-.49,1.39,1.39,0,0,1,.14-1.22.2.2,0,0,1,.25-.12Zm-12.66,9.9c-.19-.08-.18-.2-.21-.31s0-.14-.13-.18-.13-.13-.21-.22l.31-.14c0-.1,0-.22,0-.33s0-.18.21-.15c0,.15.06.32.1.5l.53,0c-.07.27-.34.32-.56.44,0,.13,0,.28-.06.44ZM193.4,79.08c-.18-.18-.18-.2,0-.3a1.74,1.74,0,0,1,.33-.18,1.83,1.83,0,0,1,.32-.07,1.68,1.68,0,0,1,0,1.32c-.33-.24-.27-.57-.3-.89l-.35.12Zm-3,9c-.22-.19-.23-.24-.27-.91a3.16,3.16,0,0,0-.27-.2c.13-.12.22-.23.34-.32a.36.36,0,0,1,.25,0,.26.26,0,0,1,.11.17c0,.26,0,.51.05.76a.56.56,0,0,1-.21.54Zm4.43-4.73a.65.65,0,0,1-.26-.55,5.9,5.9,0,0,1,0-.6c-.09,0-.22.09-.28-.06s0-.18.25-.3.3-.07.36,0a.24.24,0,0,1,.05.13c0,.31,0,.62.05.93a.62.62,0,0,1-.16.44Zm-6.21-1.14c.17-.09.25-.28.52-.19l-.27.34c.14.18.42.29.4.61l-.61-.33c-.24.12-.23.42-.49.56a.18.18,0,0,1-.09-.29l.32-.49-.33-.35c.15-.09.15-.09.55.14Zm4.69-.25c-.13-.15-.41-.18-.37-.42.27-.1.41.12.63.16s.37-.37.75-.32l-.49.46.24.4c-.21.1-.31-.06-.47-.08l-.47.45c-.16-.29.1-.45.18-.65Zm-4.95-3.12c.17-.24.21-.52.48-.75a3.37,3.37,0,0,1-.18.65c-.06.22-.12.43-.19.65s-.15.4-.22.6c-.13,0-.15-.07-.15-.13a2.74,2.74,0,0,1,.08-.5.45.45,0,0,0,0-.34c-.1-.21-.19-.43-.29-.64,0,0,0,0,0-.07a.69.69,0,0,1,0-.13c.05,0,.14,0,.15.06.12.19.22.39.33.6Zm-7.83,2.28c-.35-.28-.29-.63-.29-1l-.18,0a.18.18,0,0,1-.2-.1c0-.07,0-.12.07-.16a3.78,3.78,0,0,1,.33-.22c.23-.12.38,0,.39.17s0,.48,0,.72a.62.62,0,0,1-.17.53Zm8.57-1.79c-.13,0-.24,0-.25-.12s.07-.14.13-.19a.7.7,0,0,1,.27-.11.44.44,0,0,1,.28,0c.1.06.08.16,0,.24s-.13.26-.19.4l.57.07a1.19,1.19,0,0,1-.61.41A.31.31,0,0,1,189,80c-.09-.1-.19-.21-.1-.35l.18-.3Zm3.38.66c-.15-.44.12-.81.25-1.21a1.75,1.75,0,0,1-.57-.61.17.17,0,0,1,.27,0,1.45,1.45,0,0,1,.21.22l.15.25c.22-.26.22-.62.61-.76a7.39,7.39,0,0,0-.52,1.37c-.09.22-.2.43-.3.64a.64.64,0,0,1-.1.13Zm-2.24,16.6a.61.61,0,0,1-.19,0,.49.49,0,0,1-.2-.11,1.81,1.81,0,0,1-.71-1.33,2.28,2.28,0,0,1,.17-1,.25.25,0,0,1,0-.09.17.17,0,0,1,.12,0,.11.11,0,0,1,.06.09,1.94,1.94,0,0,1-.07.33,2.33,2.33,0,0,0,.55,1.94,2.61,2.61,0,0,0,.23.25Zm.56-6.85c.46.07.59.22.35.64a1.31,1.31,0,0,1-.62.61c-.26-.16-.28-.24-.08-.41l.36-.34a1.37,1.37,0,0,0,.08-.14c-.25,0-.49,0-.52-.27h-.1c-.09,0-.18,0-.2-.06s.06-.11.1-.15l.22-.1c.27-.08.37,0,.41.21Zm.42,5.79a.33.33,0,0,1,.1-.06c.47-.1.94-.21,1.4-.29a2.6,2.6,0,0,1,.56,0c.07,0,.18.07.19.11a.25.25,0,0,1-.1.2.64.64,0,0,1-.3.11l-1.31.19-.17,0c-.25,0-.29,0-.37-.26Zm3,.51c0-.06-.07-.13-.06-.18a5.54,5.54,0,0,1,.07-.57c0-.13.08-.26.12-.39a1.31,1.31,0,0,0-.14-1.09c0-.08-.15-.18,0-.25s.2.05.26.13a1.37,1.37,0,0,1,.3,1.06,2.76,2.76,0,0,1-.34,1.1,1.33,1.33,0,0,1-.14.19Zm1-9.62c-.18,0-.32,0-.36-.14s0-.18.27-.26l.16,0c.28,0,.43.06.39.31a2.08,2.08,0,0,1-.12.32c0,.08-.06.16-.11.27H196a.46.46,0,0,1-.32.45.5.5,0,0,1-.49-.08c-.14-.14-.25-.28-.14-.48l.17-.35Zm-5.56-3.5a1.24,1.24,0,0,0-.2.1c-.17-.15-.18-.19,0-.3a1.31,1.31,0,0,1,.39-.2c.26-.06.4.08.33.29s-.17.35-.25.53a2.14,2.14,0,0,1-.1.22l.55.06a.57.57,0,0,1-.68.42.38.38,0,0,1-.27-.46,3.17,3.17,0,0,1,.19-.42,2.25,2.25,0,0,1,.12-.21l0,0ZM182,88.22c.17-.25.23-.53.51-.73a.42.42,0,0,1,0,.13,6.32,6.32,0,0,0-.49,1.64c-.06.3-.15.6-.24.9a.71.71,0,0,1-.09.15,1.06,1.06,0,0,1-.06-.22,3.2,3.2,0,0,1,.2-1.26.48.48,0,0,0,0-.37c-.12-.22-.2-.46-.3-.69,0-.07,0-.14.06-.16s.15,0,.17.07a3.91,3.91,0,0,1,.28.54Zm-3-7.14a.22.22,0,0,1-.11-.31,6,6,0,0,1,.25-.58c.07-.16.15-.31.23-.46a2,2,0,0,1-.74-.86c.13-.1.21-.08.29,0l.31.43.19.26c.24-.34.32-.72.67-1a13.26,13.26,0,0,1-1.09,2.48Zm17,8.1a.52.52,0,0,0-.1.5c.15,0,.15-.05.17-.12s0-.26.09-.38l0-.09v1.52a1.33,1.33,0,0,1-.14-.44.44.44,0,0,1-.49-.31.65.65,0,0,1,.11-.61c.06-.1.16-.13.32-.07Zm-12.85-.88-.2.13c-.19-.15-.2-.17-.1-.32a.62.62,0,0,1,.45-.33c.24,0,.42.07.37.28a5.52,5.52,0,0,1-.18.53l-.16.39.56,0a.44.44,0,0,1-.32.48.51.51,0,0,1-.52,0,.44.44,0,0,1-.2-.51c.08-.2.18-.4.3-.65Zm9.43,9.91c-.19-.27-.06-.52-.13-.75-.21,0-.3-.07-.36-.25l.43-.18c0-.13,0-.26,0-.42l-.45,0c-.22,0-.25,0-.28-.23a4.18,4.18,0,0,1,.93-.21c.22,0,.29.07.26.26s0,.29,0,.44c.19.09.42-.07.6.12-.15,0-.27.11-.41.15a.24.24,0,0,0-.21.26,1.25,1.25,0,0,1-.36.76Zm0-4.56.2.06c.29.1.37.22.3.48a.9.9,0,0,1-.32.52.53.53,0,0,1-.77,0,2.17,2.17,0,0,1-.21-.3l.39,0a.37.37,0,0,0,.41-.21c-.17-.06-.35-.09-.45-.24a.33.33,0,0,1,0-.44,1.22,1.22,0,0,1-.28-.14s0-.11-.06-.18a.71.71,0,0,1,.68,0c.21.13.09.31.06.5Zm-12.67,1.51.35-.78a.88.88,0,0,1,.12-.21c0-.06.09-.12.17-.07s0,.1,0,.15c-.1.31-.21.62-.31.94-.16.47-.31,1-.46,1.42a1.08,1.08,0,0,0,0,.18.68.68,0,0,1,0,.15c0,.08-.07.18-.18.14a.28.28,0,0,1-.15-.17,1.35,1.35,0,0,1,0-.45,4.79,4.79,0,0,1,.24-.73.42.42,0,0,0,0-.43c-.19-.27-.36-.55-.53-.83a.68.68,0,0,1-.07-.28.12.12,0,0,1,.09-.09.15.15,0,0,1,.13.06c.1.36.47.6.63,1Zm14.58,4.93.58-.28,0,0-.11.13c.45.17.48.23.38.68a.08.08,0,0,0,0,0c.32.15.36.28.24.58a1,1,0,0,1-.62.55.77.77,0,0,1-1-.52l.19,0c.11,0,.23.05.35.06a.57.57,0,0,0,.61-.29c-.14,0-.29,0-.37-.12s-.09-.19,0-.28a.59.59,0,0,0,.19-.33c-.15-.15-.51,0-.57-.27Zm-11.62-5.35c-.19-.16-.21-.25-.1-.4a.83.83,0,0,1,.68-.37c.31,0,.47.11.43.38a.88.88,0,0,1-.1.3l-.37.7a2.17,2.17,0,0,1,1,.23,1.9,1.9,0,0,1-1.06.32c-.36,0-.61-.36-.45-.64s.24-.38.36-.56l.18-.3c-.16,0-.28,0-.28.12s-.16.17-.27.22Zm6.46-3.35a1.85,1.85,0,0,1-.21-.29,5.75,5.75,0,0,1-.23-.78c-.14-.64-.27-1.27-.38-1.91a3.75,3.75,0,0,1,.07-1.63,1.55,1.55,0,0,1,.17-.4.49.49,0,0,1,.16-.16.26.26,0,0,1,.15,0,.12.12,0,0,1,0,.12.38.38,0,0,1-.09.18.91.91,0,0,0-.24.77,6.43,6.43,0,0,0,.28,2c.14.54.29,1.08.42,1.62a.52.52,0,0,1-.13.51Zm-2.32-13.31-.08-.17a.71.71,0,0,0-.26.32,2.63,2.63,0,0,0-.2,1.06c0,.72,0,1.43.06,2.15,0,.41.05.81.09,1.22,0,.12.05.25.05.37a.41.41,0,0,1-.16.35.38.38,0,0,1-.22-.28,2.87,2.87,0,0,1-.07-.5c0-.88-.05-1.75-.05-2.63a5,5,0,0,1,.18-1.54,2.54,2.54,0,0,1,.16-.38,1.4,1.4,0,0,1,.16-.2c.12-.12.27-.18.35-.13s.07.12,0,.36Zm.29,3.16a2.24,2.24,0,0,1,.72-.14c.78-.08,1.57-.14,2.34-.24s1.81-.28,2.71-.41a17,17,0,0,1,2.37-.23,1.34,1.34,0,0,1,.35,0s.11.07.11.11a.18.18,0,0,1-.1.13,2.26,2.26,0,0,1-.45.1,35.06,35.06,0,0,0-3.55.41c-.9.13-1.8.27-2.72.32l-1.49.08c-.21,0-.22,0-.29-.18Zm8.94,7-2.29.27c-.38,0-.76.07-1.14.08a16.26,16.26,0,0,0-2.09.21c-.25,0-.52,0-.78,0a.19.19,0,0,1-.13,0,.17.17,0,0,1-.07-.12s.06-.07.1-.09.07,0,.1,0c.55-.09,1.09-.2,1.64-.27s.95-.09,1.43-.13l2-.22,1.25-.15v.45Zm-42.26.38.14.13c1.29,1,2.68,1.79,4.06,2.64,1.84,1.12,3.67,2.26,5.5,3.39l.08,0c.21.11.31.25.2.46,0,0,0,0,0,.05s.21,0,.31.08.17.14.1.25a.43.43,0,0,1-.39.23l-1.52,0-1.87,0-2,0-1.8,0c-.63,0-1.26,0-1.89,0s-1.41-.05-2.12,0-1.48.06-2.21.1c-.56,0-1.11.09-1.66.1a8.22,8.22,0,0,1-1.1-.12c-.11,0-.22,0-.26-.16s0-.1,0-.11.09-.19.09-.3a4,4,0,0,1,0-.69,4.67,4.67,0,0,0,0-1.12c0-.75,0-1.49-.07-2.24,0-.41,0-.82-.06-1.22-.08-1.37-.11-2.74-.1-4.11,0-.76,0-1.52,0-2.28a3.39,3.39,0,0,1,.06-.41c.14-.08.23,0,.32.09a3.67,3.67,0,0,0,.44.52c.44.39.89.77,1.34,1.15l1.6,1.26,2.45,1.94c.08.06.17.09.25.14l-.5-.54a1.5,1.5,0,0,1-.19-.32,1,1,0,0,1,.16-1.15,3.46,3.46,0,0,1,.78-.64,13.25,13.25,0,0,1,2.62-1.2c.56-.19,1.13-.36,1.72-.54l0,0a21.57,21.57,0,0,1,1.36-2.88,6.12,6.12,0,0,0,.61-1.45c0-.16.12-.2.3-.18a.17.17,0,0,1,.17.24,1.42,1.42,0,0,1-.14.41l-1.17,2.2c-.25.47-.49.94-.73,1.42a1.13,1.13,0,0,0-.07.18l.27-.06a23.16,23.16,0,0,1,3.32-.52c1.06-.09,2.12-.15,3.19-.14a7.82,7.82,0,0,1,1.6.16,1,1,0,0,1,.28.1c.09,0,.12.11,0,.2a.57.57,0,0,0-.38-.16,10,10,0,0,0-1.1-.1,27.49,27.49,0,0,0-7.13.82,16.91,16.91,0,0,0-4.17,1.6,4.66,4.66,0,0,0-1,.76.63.63,0,0,0-.13.8,2,2,0,0,0,.73.75A4.48,4.48,0,0,0,156,89c.71.11,1.43.2,2.15.25.93.08,1.86.1,2.79.15a15.21,15.21,0,0,0,4.21-.34,5.25,5.25,0,0,0,2.23-1,2.63,2.63,0,0,0,1.13-1.75A2.45,2.45,0,0,0,168.3,85a.62.62,0,0,0-.35-.32,3.54,3.54,0,0,0-1.16-.2,7.71,7.71,0,0,1-1.67-.21,7.16,7.16,0,0,1-1-.35.31.31,0,0,1,.28-.09l1.61.07L167,84a4.15,4.15,0,0,1,1.05.2,1.25,1.25,0,0,1,.74.64,2.75,2.75,0,0,1-.69,3.3,5.53,5.53,0,0,1-2.68,1.33,13.5,13.5,0,0,1-2.55.35c-.72,0-1.44.05-2.16,0a38.36,38.36,0,0,1-4.42-.37,5.59,5.59,0,0,1-2.37-.82Zm-15.22-8.16a1.87,1.87,0,0,1-.25,0,.3.3,0,0,0-.39.07,1.5,1.5,0,0,0-.2.24c.09.23.4.38.27.66a.23.23,0,0,1-.25-.11,1.49,1.49,0,0,1-.37-.92l.2,0a.71.71,0,0,1,.66-.39c.26,0,.26.24.36.37l0,.07Zm20.67,17.3a1.68,1.68,0,0,1,.67-.18c.17,0,.23.08.16.22s-.3.21-.51.23-.23-.13-.32-.27Zm-18-7a.56.56,0,0,1-.42.27,3.57,3.57,0,0,1-.57,0,.14.14,0,0,1-.18-.14,2.22,2.22,0,0,1,1.17-.16Zm16.24-3.55a1.27,1.27,0,0,1,1-.07.45.45,0,0,1-.41.27,1.34,1.34,0,0,1-.35,0c-.17,0-.2-.11-.25-.24Zm-1.68,10.85a1.14,1.14,0,0,1-.81.36.29.29,0,0,1-.25-.12c-.06-.1,0-.17.09-.2a2.37,2.37,0,0,1,1,0Zm1.65-11.44a1.51,1.51,0,0,1,1.05,0c-.08.23-.28.23-.49.23s-.47,0-.56-.28Zm5.59.12.28.12c-.27.09-.27.3-.38.48-.12-.12-.17-.26-.35-.28s-.1-.13,0-.19a1.29,1.29,0,0,1,.16-.09,1.38,1.38,0,0,1,0-.22.17.17,0,0,1,.13-.1s.1,0,.12.09a.53.53,0,0,1,0,.19Zm14-7.31a2.52,2.52,0,0,1,1.39,0c-.08.06-.12.11-.18.12a2.37,2.37,0,0,1-1,.07c-.12,0-.18-.06-.18-.19Zm-37,10.76a2.32,2.32,0,0,1,1-.11.23.23,0,0,1,.17.1c0,.08-.06.12-.14.15a2.45,2.45,0,0,1-.76.11c-.17,0-.2,0-.25-.25Zm14.53,7.41a.4.4,0,0,1,.16-.06c.25,0,.49,0,.74-.06s.27,0,.33.12-.11.19-.29.2a5.77,5.77,0,0,1-.72,0c-.12,0-.12,0-.22-.21Zm19.31-3.13c-.05.07-.07.13-.12.16-.21.13-.42.25-.64.36a.51.51,0,0,1-.22,0,.22.22,0,0,1-.22-.17c0-.09.05-.13.12-.16a3,3,0,0,1,1.08-.23ZM147.41,81.3a.85.85,0,0,1-.14-.11c-.11-.17-.21-.35-.31-.53a.22.22,0,0,1,0-.14.13.13,0,0,1,.2-.08.57.57,0,0,1,.12.15l.6-.28c0,.08,0,.13,0,.16s-.13.13-.2.2-.22.18-.12.35,0,.2-.12.28Zm16.93,5.25c-.23.07-.34.17-.31.37a.38.38,0,0,1-.08.24,1,1,0,0,1-.14-.93c.24,0,.12.16.21.22s.15-.1.24-.14a.3.3,0,0,1,.44.12c.11.2.19.41,0,.62-.24-.11-.27-.3-.32-.5Zm-2.18,10.58h.27c.17,0,.21.09.12.22a.44.44,0,0,1-.51.2.42.42,0,0,1-.27-.43c0-.06,0-.12,0-.18-.15,0-.15,0-.29.18-.17-.16-.18-.23,0-.35a.76.76,0,0,1,.28-.15c.25-.07.39,0,.39.25v.26ZM161,98.23a.88.88,0,0,1-.17-.26,4.39,4.39,0,0,1-.15-.6s0-.09.07-.14.12,0,.15.07a.69.69,0,0,1,.1.19s0,0,.05,0c.3-.19.49-.15.66.14a.41.41,0,0,1,0,.52c-.32-.06-.25-.34-.38-.51-.15.07-.21.16-.17.3s0,.18-.13.29ZM144,77.55a1.71,1.71,0,0,0,.3-.14c.35-.27.46-.28.87,0,0,.28-.15.33-.48.18l-.42.31a1.93,1.93,0,0,1,.26.91,1.55,1.55,0,0,1-.53-1.21Zm15.53,19.58a.79.79,0,0,1-.82.33.28.28,0,0,1-.2-.44l.11-.14a.1.1,0,0,0,0,0,.17.17,0,0,1-.07-.26.33.33,0,0,1,.34-.11c.13,0,.21.11.2.23s0,.18,0,.27c.37,0,.37,0,.53.17Zm-2.87-9.84a.82.82,0,0,1-.47.41.36.36,0,0,1-.36-.08,1,1,0,0,1-.35-.84.67.67,0,0,1,.76-.42c.15,0,.15.08.05.27h-.12c-.3,0-.42.18-.33.42a1.09,1.09,0,0,0,.08.15.25.25,0,0,0,.29.13l.33,0Zm-25,9.22c-.15.2-.19.44-.4.58-.1,0-.16-.06-.11-.15.13-.27.26-.55.38-.82a.2.2,0,0,1,.2-.14.18.18,0,0,1,.18.14l.4,1a.43.43,0,0,1-.07.48c-.4-.28-.36-.72-.58-1.08Zm13.73-6.92c.18,0,.18,0,.35.23l.11-.1a.46.46,0,0,1,.74.16.88.88,0,0,1,0,.85c-.34-.2-.32-.53-.42-.81-.25,0-.39.11-.4.31s0,.24,0,.36,0,.14,0,.24a2.18,2.18,0,0,1-.31-1.24Zm19.53-3.92-.25.12c-.18-.15-.18-.25,0-.36a.71.71,0,0,1,.25-.11c.29-.08.47.05.45.31,0,.08,0,.15-.05.24.18,0,.38-.06.54.08a.48.48,0,0,1-.36.43l-.18.06c-.32.09-.57-.09-.51-.38,0-.09.07-.18.1-.27a1,1,0,0,0,0-.12Zm-6.81,12.5c-.28-.15-.27-.36-.35-.56-.27.11-.11.4-.34.53-.22,0-.2-.23-.31-.38-.05.16-.09.3-.14.43-.27-.08-.31-.31-.17-.77.17,0,.34,0,.51,0a.51.51,0,0,0,.16-.09c.3-.18.55-.12.65.19a1.59,1.59,0,0,1,.07.38,1.3,1.3,0,0,1-.08.27Zm-21.53-3c.34,0,.27.27.43.4.09,0,.1-.12.13-.18a.5.5,0,0,1,.33-.21c.12,0,.24,0,.32.07a.25.25,0,0,1-.08.31c-.32.15-.32.41-.35.67a.8.8,0,0,1-.09.3c0,.1-.13.1-.21,0a.46.46,0,0,1-.13-.18l-.36-1.1s0,0,0-.1Zm25.31-9.2a3,3,0,0,1,.34-.07.88.88,0,0,1,.28,0,.15.15,0,0,1,.12.1c0,.12-.12.31-.25.34l-.57.11a.29.29,0,0,1-.31-.1c-.07-.09-.14-.19-.06-.31s.17-.33.27-.51a.41.41,0,0,0-.36.19c-.2-.11-.24-.22-.08-.33a1.28,1.28,0,0,1,.45-.17.24.24,0,0,1,.29.24,1.09,1.09,0,0,1,0,.26c0,.08,0,.15-.08.25ZM175.65,80a7.19,7.19,0,0,1,.78-1.35s0,.06,0,.08l-.9,2.38s-.06.06-.11.11-.05-.09-.05-.13a.91.91,0,0,1,0-.33,1.18,1.18,0,0,0-.06-.92,5.38,5.38,0,0,1-.17-.89c0-.08,0-.15.11-.16s.14.06.16.13c.06.35.13.69.2,1.08ZM138.4,89.4a3.29,3.29,0,0,1,.16.84l.22-.08c.32-.1.57,0,.58.33a.93.93,0,0,1-.34.76.35.35,0,0,1-.33.12c-.17-.07-.35-.13-.39-.32a.41.41,0,0,1,0-.19,4.09,4.09,0,0,0,0-1.21,1,1,0,0,1,0-.24Zm.62,1h0a.44.44,0,0,0-.37.6.49.49,0,0,0,.37-.6Zm40-2.62a.25.25,0,0,1,0,.12l-.48,2.15a.9.9,0,0,1-.07.11.3.3,0,0,1-.16-.29,2.3,2.3,0,0,1,0-.45.44.44,0,0,0-.06-.29c-.2-.38-.39-.77-.58-1.16,0-.07-.06-.15,0-.19a.15.15,0,0,1,.2.07,1.26,1.26,0,0,1,.13.26l.4.76c.07-.2.13-.39.2-.57a1.34,1.34,0,0,1,.24-.53Zm-33.75,3c-.29-.15-.28-.44-.41-.72,0,.13-.05.21-.08.29s-.08.14-.15.15-.15-.07-.19-.14a.93.93,0,0,0-.15-.27c0,.06-.07.11-.07.17s0,.19,0,.28a.7.7,0,0,1,0,.23,1.17,1.17,0,0,1-.28-1.07c.18,0,.1.15.21.17a.85.85,0,0,1,.23,0,.23.23,0,0,0,.19-.1.39.39,0,0,1,.66.06,4.24,4.24,0,0,1,.18.5.47.47,0,0,1-.14.49Zm-2.43,0c.3,0,.56-.17.84,0a.5.5,0,0,1,0,.13.9.9,0,0,1-.8.31.46.46,0,0,1-.37-.56,3.78,3.78,0,0,1,.21-.38c-.11,0-.23.1-.31,0a.24.24,0,0,1,0-.31.84.84,0,0,1,.53-.24c.15,0,.25.07.24.2a1.18,1.18,0,0,1-.09.37c-.07.17-.17.33-.26.51Zm3-14.21,0,.24c.27,0,.51-.19.8-.08a.84.84,0,0,1-.45.53l-.29.13a.42.42,0,0,1-.42,0,.38.38,0,0,1-.16-.41c0-.11.08-.23.11-.34a.14.14,0,0,0,0-.07ZM133.48,97.12a1,1,0,0,1-.36.49,16.84,16.84,0,0,1-2.05,1.46l0,0c-.07,0-.15.09-.22,0s-.05-.17,0-.23l.89-.68.94-.75a4,4,0,0,1,.48-.32,1.07,1.07,0,0,1,.27-.07l0,.05Zm12.78-15.3c-.33-.25-.38-.61-.53-.94l-.29.16c-.16-.16-.16-.16,0-.3a4.42,4.42,0,0,1,1.24-.91c.12,0,.12,0,.31,0-.15.13-.27.27-.41.39a.22.22,0,0,0-.08.31,9,9,0,0,1,.34.86.7.7,0,0,1,0,.35,2.78,2.78,0,0,1-.57-1.23l-.28.19c.12.27.25.53.37.79s.11.23-.06.34Zm13.46,5.54a.25.25,0,0,1-.19-.28c0-.22,0-.43.05-.66a.44.44,0,0,0,.32-.06.43.43,0,0,1,.46,0c.13,0,.24-.09.37-.12s.37,0,.4.18a4.51,4.51,0,0,1,.12.82c0,.09-.08.18-.14.3-.4-.2-.34-.52-.37-.83-.25.09-.17.36-.37.47-.28-.1-.27-.33-.31-.58a.55.55,0,0,0-.21.4.33.33,0,0,1-.13.32Zm-6.59,10.82-.15.21a.42.42,0,0,1-.68,0c-.35-.46.17-1,.61-1a.34.34,0,0,1,.33.14l.15.25a3.7,3.7,0,0,0,.21.33.33.33,0,0,0,.31.14c.1,0,.16,0,.15.12a.36.36,0,0,1-.2.27.32.32,0,0,1-.34,0c-.14-.12-.26-.24-.39-.37Zm-.28-.52h0c-.34.21-.38.31-.21.49a.71.71,0,0,0,.21-.49ZM132,100.25c.28.15.35.14.57,0a.65.65,0,0,0,.26-.52h-.33c-.22,0-.34-.17-.25-.34l.14-.22-.05,0-.4.44c-.12-.07-.15-.15-.08-.26a2,2,0,0,1,.65-.64.43.43,0,0,1,.16,0c.14,0,.22,0,.2.15a1.21,1.21,0,0,1-.11.37c0,.06-.06.13-.08.19l0,0c.47.07.58.19.49.6a1.17,1.17,0,0,1-.45.7.52.52,0,0,1-.78-.25s0-.06,0-.11ZM144,77.14c-.17.17-.29.32-.44.45a.26.26,0,0,0-.09.3c0,.14.07.28.12.42a1.64,1.64,0,0,1,.07.87c-.14-.09-.2-.19-.33-.6-.06-.21-.1-.43-.16-.69l-.44.27c.1.2.18.39.28.57s.14.25.19.37a.32.32,0,0,1,0,.34c-.21-.09-.21-.09-.64-1.15l-.28.16a.66.66,0,0,1-.19.09.31.31,0,0,1-.19,0c-.07-.05,0-.12,0-.17s.26-.2.4-.29c.44-.3.87-.59,1.32-.87.11-.08.12-.06.38,0Zm.3,4.53-.17.2c-.17-.1-.23-.2-.15-.36a3.34,3.34,0,0,1,.36-.48.4.4,0,0,1,.41-.07.25.25,0,0,1,.13.31c-.05.24-.11.48-.17.73l0,.18a3.57,3.57,0,0,1,1.08-.33c0,.06,0,.11-.06.13a5.44,5.44,0,0,1-1,.76c-.12.06-.25.14-.38.05a.37.37,0,0,1-.2-.42c.06-.23.13-.46.2-.69Zm30.46,13c.64-.11,1.18-.32,1.77-.36l0,0a1,1,0,0,1-.17.14c-.31.18-.62.35-.94.5a3.2,3.2,0,0,1-.55.17.46.46,0,0,1-.46-.16c-.12-.13-.2-.28-.1-.44l.31-.51a1.2,1.2,0,0,0,.13-.28.43.43,0,0,0-.47.08l.11.24a.26.26,0,0,1-.26-.17.23.23,0,0,1,.07-.31.68.68,0,0,1,.62-.14.34.34,0,0,1,.28.45,3.23,3.23,0,0,1-.21.47,2.83,2.83,0,0,1-.15.28Zm-4,.74c0,.23.09.44-.11.61a.3.3,0,0,1-.2-.25c-.07-.29-.15-.57-.21-.86,0-.07,0-.17,0-.19a.38.38,0,0,1,.29,0,1.13,1.13,0,0,1,.31.19l.18.18c.13-.2.25-.37.36-.55a.42.42,0,0,1,.31-.18.28.28,0,0,1,.35.16,3.28,3.28,0,0,1,.31.84.31.31,0,0,1-.12.3c-.36-.13-.39-.46-.57-.74-.1.2-.2.37-.28.55-.17.35-.23.36-.53.08l-.12-.1Zm-.75.8a1.13,1.13,0,0,1-.64.46c-.36.12-.72.22-1.08.31a.41.41,0,0,1-.54-.21.27.27,0,0,1,0-.32l.61-.77c.06-.07.13-.13.23-.23a1.7,1.7,0,0,0-.28,0l-1,.23c-.18,0-.18,0-.28-.12a4.5,4.5,0,0,1,2.2-.48c.07.15,0,.28-.13.39s-.27.26-.4.4a4.89,4.89,0,0,0-.45.55,3.81,3.81,0,0,1,1.72-.24Zm-32.16-2.3c-.26,0-.26.24-.38.35-.18-.07-.22-.14-.2-.27a.64.64,0,0,1,.57-.46c.22,0,.35.07.37.27a3.38,3.38,0,0,1,0,.45v.24l.73-.16c0-.09-.05-.19-.08-.29s0-.17-.07-.26a.12.12,0,0,1,.06-.08.16.16,0,0,1,.12,0s0,.09.07.13c.11.24.22.49.35.75a1.77,1.77,0,0,1,.17-.2.42.42,0,0,1,.62,0,1.2,1.2,0,0,1,.22.36,3.2,3.2,0,0,1,.18.52s0,.07,0,.13c-.41-.15-.48-.49-.68-.77-.2.11-.19.28-.18.44a.86.86,0,0,0,.06.23.29.29,0,0,1-.1.34c-.16,0-.2-.14-.25-.23s-.19-.47-.29-.7l-.1-.26-.19.15a5.34,5.34,0,0,1-.48.35.27.27,0,0,1-.4-.08.57.57,0,0,1-.13-.43c0-.18,0-.36.05-.55ZM134.45,96l-.37.22c-.09,0-.17.08-.25,0s0-.15,0-.21.31-.26.47-.37l1.31-.89a1.38,1.38,0,0,1,.4-.15,1.09,1.09,0,0,1,.25,0c-.08.33-.38.46-.63.63a2.65,2.65,0,0,1,.39,1.83.92.92,0,0,1-.16.26c-.23-.14-.23-.15-.16-.38a1,1,0,0,0,0-.3,3.13,3.13,0,0,0-.31-1.28l-.68.41c.09.36.18.7.25,1a3.72,3.72,0,0,1,.08.57.59.59,0,0,1-.07.25c-.05.12-.17.12-.24,0a.53.53,0,0,1-.08-.25c-.06-.42-.11-.84-.17-1.25a.48.48,0,0,0-.06-.18Zm28-17.94c.26-.1.48-.2.71-.28l1.46-.46a1.2,1.2,0,0,1,.28,0l0,0a.5.5,0,0,1-.12.08l-1.29.6a5.2,5.2,0,0,0-.46.25l.32.17c0,.16-.19.06-.26.11a4,4,0,0,1,.42.4.38.38,0,0,1,.06.26s-.08.08-.14.09-.07,0-.1-.08,0-.06-.05-.07l-.8-.46c-.06.24.07.49-.07.71-.25-.11-.09-.42-.39-.51a2.49,2.49,0,0,0-.89.69c-.17-.07-.2-.12-.11-.25a2.66,2.66,0,0,1,.32-.35,1,1,0,0,0,.18-.18c-.29.12-.65.13-.82.43-.24-.09-.27-.19-.05-.33s.33-.17.5-.25l.59-.28a5.24,5.24,0,0,0-1.45-.21l-.08.14-.22-.12c-.12-.1-.1-.22.07-.25a7.36,7.36,0,0,1,.82-.06l.37,0c0-.19-.3-.28-.29-.48a.23.23,0,0,1,.3,0l.32.26a.36.36,0,0,0,.4.08c0,.09,0,.24.17.22l.15-.82c0-.1.07-.19.11-.29a.13.13,0,0,1,.19-.07c.07.21-.12.39-.12.59s0,.39-.05.62Zm15.29,22.15c-.1.19-.14.21-.33.16a1.28,1.28,0,0,1-.27-.11,11.23,11.23,0,0,0-2.9-1.08c-.88-.23-1.76-.43-2.64-.65-.49-.12-.37-.05-.66-.4l-.21.1c.31.38.62.73.91,1.1a2.71,2.71,0,0,1,.24.35c.07.09,0,.19-.06.26s-.19,0-.27,0a1.44,1.44,0,0,1-.3-.24c-.17-.19-.32-.4-.47-.59s-.31-.39-.46-.58a1.25,1.25,0,0,1-.09-.12c-.17-.25-.14-.32.16-.43a8.38,8.38,0,0,0,1.38-.67c.11-.07.11-.07.3,0,0,.36-.46.42-.67.67l.28.09c.86.24,1.73.46,2.59.71a13.71,13.71,0,0,1,2.28.81l.17.09,1,.6ZM138,78.26a5.18,5.18,0,0,1,3.26,1,3.69,3.69,0,0,1,1.56,2.46,4.84,4.84,0,0,1-1.59,4.42,5.93,5.93,0,0,1-3.68,1.71,5,5,0,0,1-4.77-1.93,3.89,3.89,0,0,1-.8-3A4.75,4.75,0,0,1,133.55,80a6.34,6.34,0,0,1,1.71-1.1,1.92,1.92,0,0,0,.17-.13,1,1,0,0,1,.21-.14,6.46,6.46,0,0,1,2.35-.41Zm4,2.61h0l-.22.11c-.53.3-1.06.62-1.61.89-1,.49-2,.94-3,1.42a.41.41,0,0,1-.27-.27.2.2,0,0,1,.18-.29,1.13,1.13,0,0,0,.39-.17l.52-.28c1.16-.54,2.32-1.09,3.42-1.73l.26-.17a4.6,4.6,0,0,0-3.5-1.62,5.54,5.54,0,0,0-2.32.39c-.05,0-.13,0-.15,0s-.25,0-.35,0a5.91,5.91,0,0,0-1.72,1.3,3.89,3.89,0,0,0-1,3.88,4.47,4.47,0,0,0,5.22,2.84,5.57,5.57,0,0,0,2.64-1.2,4.55,4.55,0,0,0,1.88-3.74,3.22,3.22,0,0,0-.36-1.43Zm21.41,14.52h0a1.87,1.87,0,0,0-.23-.17c-1.94-1.21-3.86-2.42-5.81-3.61a48.06,48.06,0,0,1-6.6-4.77l-.59-.5c-.52-.43-1-.85-1.53-1.29-.32-.29-.6-.61-.9-.91l-.14-.15c0,.1,0,.15,0,.21l.06,1.86c0,.42,0,.84.05,1.27l.12,2.14c0,.67.08,1.34.12,2s.06,1.18.1,1.77c0,.35,0,.69.06,1.06l.23,0a12.33,12.33,0,0,1,1.72-.13.78.78,0,0,1,.21,0,4.4,4.4,0,0,0,.1,1.53c.84,0,1.66-.09,2.48-.11.61,0,1.22,0,1.83,0l2.75-.08,1.47,0,2.89-.06,1.42,0,.16,0Zm-13.56.42h0V94.54a8,8,0,0,0-1.68.13l-.12,1.2a7.75,7.75,0,0,0,1.8-.06Zm-14,10.87a.21.21,0,0,1,.3.13l.36.8.14.26c.07-.24.12-.42.18-.6.2-.59.39-1.18.61-1.77a6.89,6.89,0,0,0,.36-1.54,1.55,1.55,0,0,1,0-.21c0-.2.12-.26.34-.2a4.45,4.45,0,0,0,1.26.1l2,0,2.37,0,2.56,0,2.89,0,2.87,0c1.33,0,2.67,0,4,0s2.67,0,4-.05c.91,0,1.81-.07,2.72-.12l1.58-.1,1.16-.09a.34.34,0,0,1,.42.24c.27,0,.54-.07.81-.12a9.53,9.53,0,0,1,1.51-.14c.4,0,.8,0,1.2,0,.23,0,.29.08.21.27s-.16.23-.38.21a13.85,13.85,0,0,0-2.88.16,2.76,2.76,0,0,1-1.18,0,3.77,3.77,0,0,0-1.34,0l-1.31.07c-1.44.1-2.88.09-4.33.09-1.74,0-3.49,0-5.23,0s-3.21,0-4.81-.07l-2.48,0-3.78,0c-1,0-1.91,0-2.87-.06-.29,0-.58,0-.9-.07a.73.73,0,0,0-.05.09,8.25,8.25,0,0,1-.59,2.16c-.19.59-.38,1.18-.56,1.77a.51.51,0,0,0,0,.21c0,.06,0,.12,0,.16a1.14,1.14,0,0,1-.19.19,1.39,1.39,0,0,1-.19-.15,5.59,5.59,0,0,1-.77-1.71.27.27,0,0,1,0-.09ZM161.31,108h-.17s0-.11,0-.15a1,1,0,0,1,.47-.55l.07,0a.75.75,0,0,1,.34,0c.11,0,0,.17,0,.26a5.89,5.89,0,0,1-.29.55l.63,0,.2,0a.31.31,0,0,1,0,.17,1.14,1.14,0,0,1-.9.4.27.27,0,0,1-.26-.15.55.55,0,0,1,0-.53Zm10.25-6.63a.36.36,0,0,1,.19.5.55.55,0,0,1-.19-.5ZM165,107.1c0,.14-.14.19-.26.24a1.3,1.3,0,0,1-.78,0,.19.19,0,0,1-.17-.23,4.39,4.39,0,0,1,1.21-.06Zm26.26-5.71v0a2.13,2.13,0,0,1-1.22.36c-.17,0-.19,0-.3-.24.12-.16.31-.08.47-.11a4.85,4.85,0,0,1,.55-.08,1.05,1.05,0,0,1,.5,0Zm-1.69-.36.47-.1a1.84,1.84,0,0,1,.74,0c.13,0,.26.09.21.28-.35,0-.71.07-1.08.09s-.25,0-.34-.26Zm-10.53,8.44a1.88,1.88,0,0,1,1.55,0,1.28,1.28,0,0,1-.63.21c-.23,0-.46,0-.7,0s-.19,0-.22-.22Zm-27-6.76-.14.08a4.44,4.44,0,0,1-1.4.25c-.25,0-.25,0-.32-.24a3.47,3.47,0,0,1,1.86-.09Zm-1.66-.75a3.13,3.13,0,0,1,1.72-.06c-.08.06-.11.1-.16.13a2.33,2.33,0,0,1-.83.18l-.38,0c-.27,0-.27,0-.35-.27Zm30,6.81a.66.66,0,0,1-.56.28c-.31,0-.63,0-.94,0a.17.17,0,0,1-.17-.16.2.2,0,0,1,.08-.13,2.71,2.71,0,0,1,1.52,0l.07,0Zm2.39-8.39a.83.83,0,0,1,0,.15l-.12.27a.6.6,0,0,0,.18.76.49.49,0,0,1,.21.5.34.34,0,0,1-.33-.1,1.15,1.15,0,0,1-.44-.72,1.17,1.17,0,0,1,.29-.8s.12-.07.19-.11l.06,0Zm-31.44,5.94a.32.32,0,0,1,.37.09.84.84,0,0,1,.27.67,1.14,1.14,0,0,1-.26.79.23.23,0,0,1-.07.07l0,0c-.18-.12-.2-.19-.14-.38a3,3,0,0,0,.14-.39.69.69,0,0,0-.14-.63,1.08,1.08,0,0,1-.12-.24Zm7.84,1.77c-.11.17-.18.2-.35.14a.93.93,0,0,1-.46-.41,1.3,1.3,0,0,1,0-1.2,2,2,0,0,1,.16-.33,1.58,1.58,0,0,1,.13-.13c.09.1,0,.17,0,.24a2.07,2.07,0,0,0-.14.78,1.5,1.5,0,0,0,.48.84s.13,0,.21.07Zm26.18-5.83-.09-.31c-.18,0-.32-.09-.35-.28s.22-.07.35-.12a3.82,3.82,0,0,1,.14-.56.9.9,0,0,1,.21-.27s.09,0,.19,0a1.23,1.23,0,0,0-.18.87l.47,0c0,.14-.13.21-.26.24s-.34.14-.36.34c0,0,0,0-.05.07Zm-40.67,4.94a3.86,3.86,0,0,1,.59,0,2.81,2.81,0,0,0,.77,0,2.14,2.14,0,0,1,.67,0,1.25,1.25,0,0,1-.75.41,2.76,2.76,0,0,1-1.11-.08c-.15,0-.17-.13-.17-.29ZM140,108.54c-.06.12-.19.12-.31,0a1.14,1.14,0,0,1-.35-.3,3.15,3.15,0,0,1-.32-.7,1.1,1.1,0,0,1,.4-1,.18.18,0,0,1,.25,0s0,.06,0,.09a.71.71,0,0,1-.1.14.94.94,0,0,0,.06,1.31c.13.15.25.32.39.49Zm27.29-1.23c-.07,0-.12.06-.17.06a.26.26,0,0,1-.17-.05c0-.06,0-.15,0-.19a1.48,1.48,0,0,1,.39-.31.54.54,0,0,1,.31,0c.13,0,.12.14.13.24s0,.41,0,.62a.77.77,0,0,1-.14.5c-.09.12-.2.12-.26,0a1.25,1.25,0,0,1-.11-.39c0-.14,0-.28,0-.45Zm-19,.57c-.15-.21-.15-.26,0-.4l.38-.38c0-.1-.27-.16-.25-.36.24-.07.33.17.54.2.14-.12.3-.24.46-.36a.35.35,0,0,1,.4-.08l-.57.58.25.15a.48.48,0,0,1,.09.11c-.05,0-.1.08-.15.08a3,3,0,0,1-.32-.06l-.12,0-.7.56Zm7.71-.06c-.46.07-.46.07-.57-.16a1.15,1.15,0,0,1,.25-.12c.28-.06.4-.19.37-.44a.36.36,0,0,1,0-.14c0-.12.1-.14.24-.08s0,.27.05.43a3.38,3.38,0,0,1,.9,0c0,.11-.11.13-.19.17l-.65.26a.24.24,0,0,0-.17.17,3.62,3.62,0,0,1-.13.4c-.14-.16-.06-.31-.12-.44Zm-5.82,2a.8.8,0,0,1-.28-.63c0-.23,0-.46-.06-.69a.84.84,0,0,1-.19-.08.17.17,0,0,1,0-.29.51.51,0,0,1,.4-.06c.13,0,.14.15.15.26.05.31.11.63.16.94a.56.56,0,0,1-.22.55Zm36.63-.29a.7.7,0,0,1-.29-.45,5.43,5.43,0,0,1-.09-.69c0-.07,0-.18.1-.19s.12.09.21.16a1,1,0,0,1,.22-.09,2.26,2.26,0,0,1,.51-.08c.39,0,.53.2.36.56-.34-.14-.69-.28-1,0a1.57,1.57,0,0,1,0,.78Zm-45.19-1.9-.59.8c-.16-.06-.13-.14-.09-.21s.21-.37.32-.55a2,2,0,0,1,.16-.23l-.23-.21a3.13,3.13,0,0,1-.26-.25c0-.05,0-.12,0-.18s.15,0,.2,0a2.37,2.37,0,0,1,.33.22l.19.12c.2-.13.25-.37.58-.44-.15.22-.27.39-.39.58a2.44,2.44,0,0,1,.23.22,1,1,0,0,1,.18.31c0,.11-.08.16-.19.1s-.27-.19-.42-.29ZM177,110.92a.36.36,0,0,1-.22-.29c0-.23-.05-.47-.07-.71,0-.08,0-.16.14-.19l.11.33.1-.07a.57.57,0,0,1,.57-.16.44.44,0,0,1,.34.38,1.23,1.23,0,0,1,0,.43s-.06.09-.1.14c-.26-.12-.3-.35-.42-.54a.51.51,0,0,0-.3.38.41.41,0,0,1-.16.3Zm-8.56-5.08a.79.79,0,0,1,.29,0c.36.23.68.51.54,1a3,3,0,0,1-.79,1.2c-.12-.11-.07-.21,0-.3a6.5,6.5,0,0,1,.25-.61,1.76,1.76,0,0,1,.09-.2.58.58,0,0,0-.16-.8.35.35,0,0,1-.18-.37ZM188.11,102a1.13,1.13,0,0,1,0-.18l.39-.86c.05-.12.1-.24.14-.36s0-.31-.2-.45a1,1,0,0,1-.2-.12.19.19,0,0,1-.05-.17s.12-.06.19-.06a.78.78,0,0,1,.68.55,1.08,1.08,0,0,1,0,.47,2.5,2.5,0,0,1-.75,1.11,1,1,0,0,1-.13.09l-.06,0Zm-44.91,6.41c-.23,0-.29.14-.43.19-.14-.15-.15-.2,0-.28a1.72,1.72,0,0,1,.44-.19c.19,0,.33.08.3.25a1.2,1.2,0,0,1-.13.36c-.13.21-.29.42-.44.64h1a.43.43,0,0,1-.09.15,1.36,1.36,0,0,1-1.14.29.28.28,0,0,1-.21-.48c.2-.23.39-.47.58-.7a1.71,1.71,0,0,0,.13-.23Zm18.05-1.89v.07c-.26.72-.51,1.45-.78,2.16-.09.25-.2.48-.31.72a1.45,1.45,0,0,1-.12.19.17.17,0,0,1-.12-.24,6.57,6.57,0,0,1,.21-.76c.1-.28.22-.56.32-.8-.2-.35-.4-.67-.59-1,0,0,0-.07,0-.1s.2,0,.26.07.33.41.5.63c.06-.11.11-.22.16-.33s.1-.22.17-.33.16-.2.24-.3l.06,0Zm22.81-4.79.55-1s0,0,.07,0a.27.27,0,0,1,0,.26c-.2.51-.41,1-.62,1.51l-.13.29.19,0a.84.84,0,0,1-.4.45.29.29,0,0,1-.18-.37,3.51,3.51,0,0,1,.26-.6.35.35,0,0,0,0-.42,7.77,7.77,0,0,1-.48-.78.2.2,0,0,1,0-.17.43.43,0,0,1,.23-.05.22.22,0,0,1,.1.09c.06.09.1.19.15.28l.28.52Zm-18.42,7.21a.27.27,0,0,1-.14-.31,3.81,3.81,0,0,1,.35-.9l.24-.48a1,1,0,0,1-.8-.71.23.23,0,0,1,.32,0l.37.32a1.41,1.41,0,0,1,.16.21,1.26,1.26,0,0,0,.14-.2c.13-.22.24-.45.37-.67a.57.57,0,0,1,.11-.16s.07,0,.09,0,.07,0,.06.09a.33.33,0,0,1,0,.13l-.9,2.16a1.82,1.82,0,0,1-.33.52Zm-12-2.63c.35-.06.66-.2,1,0a.78.78,0,0,1-.54.47,2.88,2.88,0,0,1-.51.1c-.14,0-.31,0-.41-.08a.39.39,0,0,1,0-.47c.09-.14.17-.28.25-.43a1.36,1.36,0,0,0,.1-.21l-.05,0-.29.18c-.19-.14-.22-.29-.05-.42a.65.65,0,0,1,.56-.12c.2,0,.3.16.27.34a2.64,2.64,0,0,1-.15.45,1.31,1.31,0,0,1-.12.24Zm16.16-1-.12-.17s0-.05.05-.06a1,1,0,0,1,.55-.15c.26,0,.39.15.32.37s-.13.27-.19.4l-.21.37c.49,0,.93-.27,1.44-.11a.77.77,0,0,1-.13.2,1.25,1.25,0,0,1-.62.3c-.18,0-.36.07-.55.09a.51.51,0,0,1-.55-.27.22.22,0,0,1,0-.27c.09-.16.18-.32.28-.47s.1-.18.19-.32l-.46.09Zm15,4.55a1,1,0,0,1,.13-.15.44.44,0,0,1,.64.07,3.23,3.23,0,0,1,.24.68c0,.09-.05.2-.1.29a.13.13,0,0,1-.22,0,1.61,1.61,0,0,1-.2-.33,1.65,1.65,0,0,1-.08-.32c-.08.12-.12.2-.18.28s-.13.16-.18.15a.38.38,0,0,1-.22-.15,1.28,1.28,0,0,1-.16-.26c-.25.22,0,.55-.32.75a.66.66,0,0,1-.17-.16c-.07-.21-.13-.43-.18-.65,0-.07,0-.15.11-.13s.16,0,.24-.07a.45.45,0,0,1,.45-.09l.2.06Zm-3.59-8.65-.69.29a1.33,1.33,0,0,1-.3.93c-.28-.23-.15-.52-.26-.79-.21,0-.44.07-.52-.19.1-.12.26-.11.4-.14s.19-.09.2-.21,0-.4.05-.63h-.39c-.19,0-.22,0-.26-.26a3.86,3.86,0,0,1,.84-.07c.2,0,.28.12.26.32s0,.44-.06.68h.72v.07Zm3.49,8c-.46-.08-.6-.41-.84-.69l-.15.28a.61.61,0,0,1-.53.37.62.62,0,0,1-.53-.36.81.81,0,0,1,.81-1.16.41.41,0,0,1,.24.08,3.85,3.85,0,0,1,.4.41,3,3,0,0,1,.35.43,4.2,4.2,0,0,1,.26.52s0,.05,0,.12Zm-1.51-.4h0a1,1,0,0,0,.13-.16c.11-.26.21-.52.3-.77a.17.17,0,0,0-.23,0,2.46,2.46,0,0,0-.41.28c-.24.23-.17.5.21.7Zm3.32-7.44c-.32-.15-.36-.32-.14-.57a1,1,0,0,1,.69-.33c.31,0,.46.13.37.38a2.85,2.85,0,0,1-.25.45,2.29,2.29,0,0,1-.2.31c.26,0,.51-.06.73.06a1.47,1.47,0,0,1-.79.57.41.41,0,0,1-.37-.11.42.42,0,0,1-.11-.6c0-.05.05-.09.07-.13v0Zm-10.36,8.73a.44.44,0,0,1-.36-.24c-.1-.16-.18-.33-.28-.49s-.09-.15-.16-.26c-.06.15-.1.27-.16.39s-.16.31-.38.3-.31-.14-.41-.28c-.28-.43.13-1.09.58-1.21a.41.41,0,0,1,.48.15c.2.33.42.65.61,1a1.55,1.55,0,0,1,.14.43c0,.07,0,.14-.06.22Zm-1.42-.67h0a1.11,1.11,0,0,0,.26-.9c-.4.22-.51.6-.26.9Zm-26.19-8c.09-.36-.08-.74.13-1.07h.08s0,.1.05.16c0,.37,0,.74.06,1.11a2,2,0,0,0,0,.26,2.32,2.32,0,0,1,.06.45.29.29,0,0,1-.24.33c-.08,0-.14.1-.21.15-.44.35-.83.27-1-.22a.86.86,0,0,1,.68-1.17,2.54,2.54,0,0,1,.39,0Zm.07,1h0a2.47,2.47,0,0,0-.09-.5.23.23,0,0,0-.3-.15.5.5,0,0,0-.36.74.22.22,0,0,0,.28.08l.47-.17Zm42.57,4.37a.4.4,0,0,1-.37.26h-.42c-.12,0-.22-.09-.22-.18s.1-.13.19-.14l.47-.07a.37.37,0,0,1,.35.13Zm4.25,5,.64-.06v.35l-.14,0c-.31,0-.44,0-.5-.31Zm-6.25-4.91a.35.35,0,0,0-.27.34.54.54,0,0,1-.16.34.84.84,0,0,1-.27-1l.23.08a.61.61,0,0,1,.59-.22.6.6,0,0,1,.3.14.68.68,0,0,1,.05.75c-.08.11-.18.12-.25,0a4.12,4.12,0,0,1-.22-.47Zm4,.26a.76.76,0,0,1-.34-.49c-.28.08-.23.36-.42.49a.51.51,0,0,1-.31-.54c-.33,0-.37.07-.37.33v.39l-.07,0s-.09-.09-.1-.14c-.08-.26-.15-.53-.22-.79,0-.08,0-.15.08-.18s.15,0,.18.11a.93.93,0,0,0,.05.1.65.65,0,0,1,.19-.09,1.3,1.3,0,0,1,.37-.08.59.59,0,0,0,.32,0,1.09,1.09,0,0,1,.31-.08.45.45,0,0,1,.52.34.64.64,0,0,1-.19.66ZM192.17,132a2,2,0,0,1-.37-1.28l-.24.08L188,132.24a.28.28,0,0,1-.12,0,.13.13,0,0,1-.09,0,.08.08,0,0,1,0-.09L188,132l1.54-.71,2.08-.92c.16-.07.16-.07.17-.25l-.45-.08a4.29,4.29,0,0,1-2.81-1.77,2.66,2.66,0,0,1,.29-3.43,4.9,4.9,0,0,1,2.82-1.45l.19,0a.19.19,0,0,0,.09,0c0-.45,0-.9,0-1.35s.07-.89.11-1.35a3.41,3.41,0,0,0-.68.47c-.21-.12-.24-.19-.1-.34s.37-.31.55-.47l.33-.29c.13-.13.19-.15.44-.12.09.16-.07.28-.11.45l.55.29a3,3,0,0,1,.34.25c.06.06.13.14,0,.25-.4-.05-.65-.33-1-.5-.06.9,0,1.78,0,2.66l.57,0s.08,0,.1,0a.87.87,0,0,1,.69-.06,5,5,0,0,1,2.27.94l.09.07v.63a2.55,2.55,0,0,0-.38-.35,4.62,4.62,0,0,0-2.15-.85c-.16,0-.31,0-.41-.16a.11.11,0,0,0-.09,0,3.75,3.75,0,0,0-.67,0v2.27a.28.28,0,0,0,.1.26,22.32,22.32,0,0,1,2.07,1.59c.25-.18.51-.34.73-.53s.36-.2.58,0l.22.2v.59l-.59-.55-.74.44c.32.22.62.43.9.64a.73.73,0,0,0,.43-.36v.74a4.94,4.94,0,0,1-2.79,1.27,3.18,3.18,0,0,0-.87.29c-.11.05-.1.13-.1.21,0,.26,0,.52,0,.79a.83.83,0,0,1-.17.59Zm2.14-6.68a.43.43,0,0,1-.16.47.31.31,0,0,1-.12-.38c0-.09.07-.1.28-.09Zm-.41-.25a.54.54,0,0,1-.44.46.53.53,0,0,1-.54-.3.28.28,0,0,1,0-.18.67.67,0,0,1,.78-.24c.15.06.21.13.2.26Zm-.42.09h0l-.28-.19-.1.15c.12.09.21.19.38,0Zm1.49,0-.13.22a1.23,1.23,0,0,1-.24-.82c0-.07,0-.12.15-.12l.16.33c.25,0,.38-.25.69-.18l-.2.26c.1.13.25.26.19.47a1,1,0,0,1-.62-.16Zm.5-2.67a.94.94,0,0,1,.63-.06v.11a.61.61,0,0,1-.44.12c-.07,0-.11-.1-.19-.17Zm.47,9.09a.67.67,0,0,1-.31.59.31.31,0,0,1,0-.42c.05-.09.08-.23.31-.17Zm.16-9.4-.22.05c-.22,0-.26,0-.36-.2.08-.12.22-.09.34-.08a.83.83,0,0,1,.24,0v.2Zm-1.92,8.6a1.72,1.72,0,0,1-.07.21.84.84,0,0,0-.07.69.1.1,0,0,1,0,.1.17.17,0,0,1-.12,0,.43.43,0,0,1-.2-.42,2.3,2.3,0,0,1,.26-.52s.12-.06.17-.09l.07,0Zm-1.67-12.86a.56.56,0,0,1-.07.18l-1,1.45a.35.35,0,0,1-.27.19c-.13-.13-.14-.2,0-.35s.23-.27.34-.41l.18-.21a1.24,1.24,0,0,1-.52-.63.23.23,0,0,1,.31,0l.36.37c.27-.2.39-.49.66-.67l.06,0ZM195,131.35a1,1,0,0,1,.2.06c.18.07.2.15.08.29a.56.56,0,0,1-.57.14.52.52,0,0,1-.35-.37.28.28,0,0,1,.06-.15l.16-.16s0,0,0,0-.24-.12-.21-.24.18-.12.29-.13a.48.48,0,0,1,.17,0c.29,0,.39.16.29.4a1.89,1.89,0,0,1-.1.21Zm-1.78-9.26c.25,0,.48-.22.76,0l.23-.18a.43.43,0,0,1,.69.22.37.37,0,0,1-.12.41c-.2,0-.2-.19-.34-.29-.07.07-.15.14-.21.21l-.17.19c-.24,0-.23-.19-.37-.3l-.26.38c-.24-.12-.29-.28-.21-.6ZM192,123.6h-.09l-.14,0a4.55,4.55,0,0,0-2.7,1.53,2.24,2.24,0,0,0-.22,2.83,3.87,3.87,0,0,0,2.74,1.67l.28,0c0-2,.09-4.05.13-6.08Zm.39,6.12h0a2.06,2.06,0,0,0,1.09-.15l1.69-.82.15-.08c-1-.77-1.8-1.64-2.87-2.34l-.06,3.39Zm-15.88-3.13-.2-.12-.07,0a1,1,0,0,1-.38.3c-.31.17-.62.36-.92.54a7.24,7.24,0,0,1-3.37,1.07,9.55,9.55,0,0,1-3.24-.29l-2.21-.64a4.63,4.63,0,0,1-.78-.37.86.86,0,0,1-.47-.77c0-.32,0-.63,0-.95s0-.85,0-1.27,0-.76.05-1.14c0-1.35,0-2.69,0-4,0-.63,0-1.27-.08-1.9l-.06-1.34a.78.78,0,0,0-.11-.44c-.16-.24-.1-.42.16-.6a3.51,3.51,0,0,1,1-.41,15.61,15.61,0,0,1,2.47-.47,26.93,26.93,0,0,1,2.84-.21c.51,0,1,0,1.53,0s1.31.08,2,.12c.15,0,.3,0,.44,0a.65.65,0,0,1,.19,0,5.66,5.66,0,0,1,1.36.35l.17.08a.41.41,0,0,1,.21.56.89.89,0,0,1-.4.48.2.2,0,0,0-.11.22c0,.42.08.84.1,1.26,0,.91.08,1.83.12,2.74,0,.51,0,1,.05,1.53,0,.89.06,1.77.05,2.65s0,1.76-.07,2.63a.6.6,0,0,1-.21.43Zm4.92-5.89-.68.15-.16.27c-.23-.13-.28-.25-.23-.47.11-.39.21-.78.31-1.17,0-.18.07-.37.12-.55s.08-.1.12-.14.15.07.18.13.13.31.21.46c.19.41.38.81.58,1.22a.63.63,0,0,1,.08.59c-.08.16-.18.18-.3,0s-.18-.15-.15-.29-.05-.16-.08-.25Zm-.66-.27h.53c-.12-.31-.22-.59-.33-.88h0q-.08.42-.15.87Zm-10.78,11.63a.74.74,0,0,0-.15-.54.18.18,0,0,1,0-.31,1.49,1.49,0,0,1-.12-.14.22.22,0,0,1,.08-.32,1.5,1.5,0,0,1,1.14-.12c.15.07.2.17.12.32a1.49,1.49,0,0,1-.14.24,2.33,2.33,0,0,1,.28.11c.23.1.28.23.17.43a1.2,1.2,0,0,1-.32.39,4.83,4.83,0,0,1-.74.41.75.75,0,0,1-.57,0c-.22-.07-.24-.19-.06-.31l.28-.17Zm.16-1.18h0c0,.1.05.16.07.24l.41-.2,0-.06-.46,0Zm.58.85h0l0-.06h-.4l.08.27.34-.2Zm8.59-5.39a.83.83,0,0,1-.19-.64c0-.7.07-1.4.08-2.1,0-.36,0-.72,0-1.08s-.08-.66-.1-1c-.06-.71-.11-1.42-.16-2.14,0-.15,0-.3,0-.45,0-.4-.07-.79-.1-1.19s0-.86-.07-1.29-.07-1-.11-1.5a.61.61,0,0,0,0-.16l-.55.12a1.13,1.13,0,0,1-.18,0,.15.15,0,0,1-.11-.09s0-.11,0-.12a3.41,3.41,0,0,1,1.41-.31c.07,0,.19.06.19.1a.38.38,0,0,1-.09.24s-.11,0-.18.08l-.06-.12c-.15,0-.16.06-.15.16.05.29.1.59.14.88.09.59.14,1.19.26,1.77s.08,1.32.17,2a1.82,1.82,0,0,1,0,.33.34.34,0,0,1-.22.3c0,.38.08.77.13,1.17a18,18,0,0,1,.26,2.63c0,.6,0,1.2,0,1.8,0,.18,0,.36,0,.55a2.73,2.73,0,0,0,.7-.15c.07,0,.1-.13.14-.21.19.11.25.21.18.37a.57.57,0,0,1-.49.38l-.71.09-.85.13c-.12,0-.21,0-.27-.08s0-.18.12-.21l.67-.22.23,0ZM164.58,130a.3.3,0,0,1-.19.3l-.17-.24a.21.21,0,0,1-.29-.13c-.07-.18.12-.22.23-.31l0-.4a.47.47,0,0,1,0-.16s.08-.07.13-.11a.91.91,0,0,1,.07.14c0,.14,0,.28,0,.43a87.71,87.71,0,0,1,13.17-.64c0-.07,0-.13,0-.19a1,1,0,0,1,0-.17c0-.09,0-.19.14-.2s.13.1.15.19,0,.14,0,.21a.22.22,0,0,0,.16.17c.18.07.21.15.1.28a.71.71,0,0,0-.08.51,1.49,1.49,0,0,1,0,.42c0,.07-.11.12-.17.18,0-.16,0-.29,0-.42a3,3,0,0,0-.13-.39l-1.11-.06c-.81,0-1.63,0-2.44,0s-1.45,0-2.17.07l-2,.07c-.57,0-1.13.06-1.69.1s-.87.05-1.3.09l-2.34.25-.09,0Zm.41-14.27h0v.09c.07.64.15,1.28.2,1.92s.1,1.35.12,2c0,1,.05,1.93.06,2.89,0,.43,0,.86,0,1.29v2c0,.68.12.83.85,1.07.49.15,1,.31,1.47.43a12.67,12.67,0,0,0,2.68.49,7.18,7.18,0,0,0,4-.89c.52-.31,1.05-.6,1.58-.89l0,0a.26.26,0,0,0,.16-.26c0-.22,0-.45,0-.67,0-.45.08-.9.09-1.36,0-1.23,0-2.47,0-3.71,0-1.43,0-2.87,0-4.3v-.46l-.23.07c-.22.06-.44.14-.66.19a23.78,23.78,0,0,1-4.38.58l-.72,0c-.64,0-1.28,0-1.92,0-.23,0-.46,0-.62.17a.54.54,0,0,1-.13.06c0-.09,0-.16-.06-.23a.58.58,0,0,0-.47,0c-.16,0-.27-.08-.39-.1s-.45,0-.66-.07-.66-.19-1-.3Zm9.72-1.69h0a23.6,23.6,0,0,0-2.9-.06c-.71.62-1.5,1.13-2.22,1.77h.7a.56.56,0,0,0,.38-.17c.31-.29.63-.58,1-.86a6,6,0,0,1,1.28-.77.87.87,0,0,1-.08.22,2.91,2.91,0,0,1-.3.31c-.31.26-.64.51-1,.76l-.51.42a1.78,1.78,0,0,0,.31,0,.54.54,0,0,0,.45-.19,6.23,6.23,0,0,1,1.57-1.2l.26-.11,0,.05a4.23,4.23,0,0,1-.72.68l-.78.66a2.62,2.62,0,0,0,.49,0,.49.49,0,0,0,.38-.17,7.44,7.44,0,0,1,1.6-1.28s0,0,0-.07Zm-5.17.06h0l-2,1.61h.2a.5.5,0,0,0,.45-.15,7.77,7.77,0,0,1,.75-.65c.33-.24.69-.45,1-.67a.3.3,0,0,1,.32,0c-.32.26-.62.5-.91.76a7.28,7.28,0,0,0-.91.77,1,1,0,0,0,.84-.2,8.38,8.38,0,0,1,1.93-1.48l.08-.08-1.83.12Zm-.28,0h0c-.29,0-.55.08-.8.09a.66.66,0,0,0-.43.19c-.29.26-.6.52-.9.77l-.51.44.45.05a.32.32,0,0,0,.31-.1,4.57,4.57,0,0,1,.66-.58c.38-.29.78-.55,1.22-.86Zm6.62.21h0l-1,.85a2.31,2.31,0,0,0,1.51-.67l-.55-.18Zm-.85-.14h0l-1.51,1.2a.56.56,0,0,0,.46-.08,7.06,7.06,0,0,1,1.24-.83,4,4,0,0,0,.37-.21l-.56-.08Zm-9.21,1.29h0c.48.1.39.13.69-.14s.72-.59,1.08-.89l.15-.12a1.1,1.1,0,0,0-.79.3,2.23,2.23,0,0,1-.24.19l-.89.66Zm-.83-.37h0a.64.64,0,0,0,.41.26.24.24,0,0,0,.17,0l1-.79a4.86,4.86,0,0,0-1.54.56Zm-13.14,10.51a.74.74,0,0,1-.24,1.36l-.4.1a.67.67,0,0,1-.2,0,.35.35,0,0,1-.33-.17.15.15,0,0,1,.07-.23c-.05-.29-.09-.54-.13-.79s0-.22,0-.33,0-.18-.13-.24-.12-.16,0-.27a1,1,0,0,1,1.36-.2.4.4,0,0,1,.17.55,1.89,1.89,0,0,1-.09.21Zm-.78,1h.15l.23-.07c.24-.09.26-.14.18-.39a1.2,1.2,0,0,0-.56.11v.36Zm.47-1.32h0a.55.55,0,0,0-.56-.11s-.12.08-.12.11,0,.26.09.43l.59-.43ZM144.12,120c-.16-.07-.15-.16-.14-.24a7.48,7.48,0,0,1,.13-1c.07-.29.18-.57.27-.85a.48.48,0,0,1,.31-.32s.05.07.06.11a7,7,0,0,0,.65,1.28c.07.13,0,.46-.07.5a.27.27,0,0,1-.15,0,.36.36,0,0,1-.13-.08l-.78.2c0,.07-.09.19-.15.32Zm.89-.91h0c-.15-.36-.28-.7-.42-1a3.53,3.53,0,0,0-.26,1.24l.68-.21Zm11.55-1.88c-.05.13-.05.21-.1.27a4.42,4.42,0,0,1-.47.5.91.91,0,0,1-1.26-.1.86.86,0,0,1-.24-.76,2.63,2.63,0,0,1,.27-.85.84.84,0,0,1,1.05-.25c.28.15.31.28.09.54l-.22-.13a.35.35,0,0,0-.51.11,1.3,1.3,0,0,0-.15.82.41.41,0,0,0,.53.26c.24-.08.48-.18.71-.27l.3-.14Zm.65,5h0l.21-.08a5.86,5.86,0,0,0,1.53-1.05,3.72,3.72,0,0,0,1.2-3.15,3.4,3.4,0,0,0-1.29-2.22,5.76,5.76,0,0,0-2.42-1.13.67.67,0,0,1-.43-.18.39.39,0,0,0-.23-.06,9.46,9.46,0,0,0-1.19,0,7,7,0,0,0-3.34,1,4.25,4.25,0,0,0-1.11,1,4.32,4.32,0,0,1,1.69,2.29H152a6,6,0,0,1,2.69.66l.17.07a1.85,1.85,0,0,1,.33.12,4.85,4.85,0,0,1,1.41,1.33,4.5,4.5,0,0,1,.64,1.41Zm-7.7-5.68h0l-.21-.13a5.63,5.63,0,0,0-1.41-.5.62.62,0,0,1-.39-.16.29.29,0,0,0-.19-.07,5.65,5.65,0,0,0-1.3,0,5.71,5.71,0,0,0-3.31,1.43,3.24,3.24,0,0,0-1.11,3.58,4.57,4.57,0,0,0,3.87,3.06,1,1,0,0,0,.17,0,5.4,5.4,0,0,1,3.27-4.48,3.31,3.31,0,0,1,0-1.4,4.13,4.13,0,0,1,.58-1.34Zm7.31,6.34h0a7.2,7.2,0,0,1-5.77-.65,5.91,5.91,0,0,1-5,2.11,4.22,4.22,0,0,0,1.79,3,5.54,5.54,0,0,0,5,.75,5.64,5.64,0,0,0,3.49-2.78,4.1,4.1,0,0,0,.48-2.39Zm-4.9-3.86h0a4.19,4.19,0,0,1-.63,2.85,6.49,6.49,0,0,0,5.45.52,3.48,3.48,0,0,0-.61-1.42,8,8,0,0,0-1.56-1.38l-.07,0a5.5,5.5,0,0,0-1.83-.52,1.72,1.72,0,0,0-.75,0Zm-2.92.66h0a5,5,0,0,0-2.93,4.11,5.19,5.19,0,0,0,4.54-1.9c-.26-.1-.35-.39-.66-.47,0,0,0-.06-.06-.09s0-.1,0-.1-.09-.16-.15-.2-.17-.11-.16-.22-.06,0-.08-.06-.08-.05-.08-.08c0-.34-.3-.62-.38-1Zm.81-3h0a3.31,3.31,0,0,0-.54,2.39,8.74,8.74,0,0,1,2-.48,3.57,3.57,0,0,0-1.48-1.91Zm1.65,2.94h0l-.07,0-1,1.48.17.18.78-.79a.2.2,0,0,0,.06-.13c0-.24.07-.48.11-.72Zm-.21-.38h0l-.68.88-.44.6s0,.09,0,.13l.08,0a.14.14,0,0,1,.05-.08c.37-.47.75-.92,1.12-1.39a.42.42,0,0,0,.06-.19,1.85,1.85,0,0,0,0-.23c-.33,0-.41,0-.52.4.13,0,.16-.2.39-.15Zm-.77-.13h0l-.63.89a.92.92,0,0,0-.13.21s0,.07,0,.12l1-1.27-.23,0Zm-.36.13h0l0,0c-.18.2-.36.39-.53.59,0,0,0,.11,0,.16h.06l.52-.74Zm.74,2.28h0a1.64,1.64,0,0,0,.26-.53c-.33.32-.38.42-.26.53Zm-1.42-1.88h0l.17-.24c-.17,0-.28.06-.17.24Z"/><polygon class="cls-20" points="178.14 81.06 172.52 83.85 172.95 84.56 178.57 81.77 178.14 81.06 178.14 81.06"/><path class="cls-21" d="M136.33,106.19s-1-.08-1.16.19.76,1.79.93,1.91.23-2.1.23-2.1Z"/><path class="cls-22" d="M134.27,109.46s-3.78,5.15-5,8.94,1.26,13.43,1.69,16.08c.12.72.22,2,.3,3.49H154V127.38c0-3.55-7.06-17.92-7.06-17.92s-11.71,1.3-12.66,0Z"/><path class="cls-21" d="M154,138V127.28a4.9,4.9,0,0,1-2.86.65c-1.68-.28-4-.7-5.76,0s-4.1-.42-4.1-1.84a35.71,35.71,0,0,0-.64-5.74,7.13,7.13,0,0,0-4.28-5.05c-3-1.12-3.2,0-3.2,0l1,.47L137.38,138Z"/><path class="cls-21" d="M130.33,115.89a18.77,18.77,0,0,0-1,2.51c-1.19,3.79,1.26,13.43,1.69,16.08.12.72.22,2,.3,3.49h2.65c-.83-8.51-1-18,1.47-22.15a4.37,4.37,0,0,0-5.08.07Z"/><path class="cls-23" d="M142.91,108.11s1,5.37,1,5.92-8.13-2-8.13-2l.68-7.29s3.48,4.18,6.45,3.39Z"/><path class="cls-24" d="M144.16,108.9s.75.3,4.43-2.52,15.16-13.82,17-15.95,3.17-4.07,3.17-4.8a2.79,2.79,0,0,1,1-2.24,3.84,3.84,0,0,1,1.71-.49c.4-.1,1.23-.41,1.61-.47s3.33-1.26,3.8-1.13,0,.87-1.37,1.52-2.42.85-2.52,1.36-.69,2.15-.15,1.58.72-1.36,1.26-1.89,1.17-1,1.3-.49-1.14,2.58-1.62,3.31A10.33,10.33,0,0,1,171,89.57c-1.35.91-4.59,6-4.59,6s-5.44,9.16-8.94,12.54a68.68,68.68,0,0,1-8.12,6.49l-5.2-5.73Z"/><path class="cls-23" d="M163.5,92.6c1-1,1.72-1.75,2.09-2.17s.88-1.05,1.27-1.54a12.48,12.48,0,0,1,3.12,1.7A47.29,47.29,0,0,0,166.84,95L163.5,92.6Z"/><path class="cls-22" d="M165.91,89.34s3.11,1.09,3.87,2.39l.77,1.3s-4.23,5.07-5.06,6.37-2.57,3.37-4.74,6.46a24.21,24.21,0,0,1-5.52,5.64c-.53.28-5.37,4.54-5.37,4.54l-6.7-6.1L143,109s4.11-1.31,5.09-2.24,1.51-2,2.19-2.28,1.7-1.7,2.31-2,.36-.65,1.73-1.56a21.46,21.46,0,0,0,3.05-2.74l8.55-8.82Z"/><path class="cls-24" d="M147.36,101.19a14.72,14.72,0,0,1-.54,3.93c-1.22,4.32-5.08,4.68-7.71,3.21-2.32-1.3-3.1-2.28-3.57-5,0,0,.24-3.37,1-4.55a18.3,18.3,0,0,1,1.59-2.16s.09,0,.83.77a2.69,2.69,0,0,0,1.45.87l-.6-1.36a10.34,10.34,0,0,0,2.23,1.8,4.4,4.4,0,0,0,3,.31l-.72-.47c-.72-.46-.86-1.77-.86-1.77a10.94,10.94,0,0,0,2.79,2.29,2.44,2.44,0,0,1,1.19,2.1Zm-11.82,2.17c-.06-.36-.12-.75-.17-1.18-.1-.7-.17-1.41-.2-2.1l.37,3.28Z"/><path class="cls-25" d="M140.37,100.27a.79.79,0,1,0,.61.77.71.71,0,0,0-.61-.77Zm5.2,0a.79.79,0,1,0,.6.77.71.71,0,0,0-.6-.77Z"/><path class="cls-26" d="M143.64,100.69a13.45,13.45,0,0,0,1.23,3.09c.27.26-1.42.37-1.43.37l0,.23s2.23-.14,1.6-.75a13.83,13.83,0,0,1-1.18-3l-.24,0Z"/><path class="cls-17" d="M145,105.44a10,10,0,0,1-2.12.11c-1.11-.07-2.33-.22-2.33-.22a3.45,3.45,0,0,0,2.41,1,2.54,2.54,0,0,0,2-.94Z"/><path class="cls-25" d="M136.86,92.05c-5-.06-4.91,8.1-2.59,10.41,1.8,1.8,2.06,2,2.06,2a27.93,27.93,0,0,1-.27-4.5,8.6,8.6,0,0,1,2-3.34c.18,0,1.27,1.51,2.28,1.64l-.6-1.36c1.23,1.52,3,2.81,5.19,2.11l-.72-.47c-.72-.46-.86-1.77-.86-1.77a10.94,10.94,0,0,0,2.79,2.29c1.56.83,1.16,3,1.16,3,3.31-3.83,1.82-8.5-3.09-10.48-4.72-1.91-7.38.39-7.38.39Z"/><path class="cls-26" d="M145.68,104.58s.27.22-.22,1.23l.22.09c.57-1.16.16-1.48.16-1.48l-.16.16Z"/><path class="cls-26" d="M139.05,104.2a1.61,1.61,0,0,0-.1,1.71l.22-.11a1.4,1.4,0,0,1,.09-1.48l-.21-.12Z"/><path class="cls-20" d="M135.17,106.38s-1.57,2.26-1.57,3.21,7.38,7.52,7.38,7.52l2.84-3.47s-8.56-4.64-8.65-7.26Z"/><polygon class="cls-27" points="145.46 111.64 144.22 115.89 143 109.02 145.46 111.64 145.46 111.64"/><polygon class="cls-28" points="143.82 113.64 144.21 115.82 142.44 115.33 143.82 113.64 143.82 113.64"/><path class="cls-22" d="M133,114.92a6.63,6.63,0,0,1,5.54,3.16c2,3.26,2,12,2,17.25,0,.76,0,1.66,0,2.64h-7.24c-.09-.87-.19-1.68-.3-2.38-.88-5.3-3.42-12-3-15.82s3-4.85,3-4.85Z"/><path class="cls-24" d="M135.54,100.82a1.16,1.16,0,0,0-1.1,0c-.77.52-.24,3.28,1.21,3.11a8.67,8.67,0,0,1-.11-3.1Z"/><path class="cls-25" d="M146.7,99.71s-1.38-1.12-2.37.14l.33.21c.73-.91,1.76-.07,1.76-.06l.28-.29Zm-5.25,0a1.65,1.65,0,0,0-2.36.14l.33.21c.72-.91,1.76-.07,1.76-.06l.27-.29Z"/><polygon class="cls-20" points="145.46 111.64 145.86 114.26 144.89 113.6 145.46 111.64 145.46 111.64"/><path class="cls-21" d="M151.27,104.87s3-.14,4.15,1.59l.29-.15c-1.26-1.89-4.45-1.74-4.46-1.74l0,.3Zm-2,1.62s3.57,3.14,1.79,6.8l.31.12c1.87-3.85-1.86-7.12-1.87-7.13l-.23.21Zm8.11-7.16s1,1.46,3.93,1.46v-.3c-2.74,0-3.65-1.32-3.66-1.32l-.27.16Zm-2.57,1.85a3.58,3.58,0,0,1,2.33,4.68l.32.08a3.86,3.86,0,0,0-2.54-5l-.11.28Zm-4.86,14.26s-1.87-3.68-4.84-5.13l-.16.27c2.87,1.4,4.7,5,4.7,5l.3-.13Zm-7.62,3.24s2.29,4.83,7,6l.09-.29c-4.56-1.13-6.79-5.8-6.8-5.82l-.3.12Zm-10.6,1.46s-.86,10.15,4.14,15.32l.25-.2c-4.91-5.07-4.06-15.07-4.06-15.1l-.33,0ZM135,122.9s-.12,7.91,2.31,10.92l.26-.18c-2.36-2.93-2.24-10.71-2.24-10.73Z"/><path class="cls-23" d="M134.48,101.81s0-.52.37-.58.49.42.51.87-.09,1.17-.17,1.07-.35-.65-.47-.47-.53-.17-.24-.4.53.39.62,0-.18-.44-.45-.4-.17-.09-.17-.09Z"/><polygon class="cls-29" points="126.38 106.69 93.14 106.69 93.14 76.81 126.38 76.81 126.38 106.69 126.38 106.69"/><polygon class="cls-30" points="126.38 106.69 93.14 106.69 93.14 82.56 126.38 106.47 126.38 106.69 126.38 106.69"/><polygon class="cls-31" points="126.38 137.97 93.14 137.97 93.14 108.09 126.38 108.09 126.38 137.97 126.38 137.97"/><polygon class="cls-32" points="230.97 106.69 197.73 106.69 197.73 76.81 230.97 76.81 230.97 106.69 230.97 106.69"/><polygon class="cls-31" points="230.97 137.97 197.73 137.97 197.73 108.09 230.97 108.09 230.97 137.97 230.97 137.97"/><path class="cls-30" d="M231,138H197.73V132.9c2.26-2.12,5.7-3.38,4.54-6.64-1.83-5.15-3.91-5.61,2.46-11.27s14-6.61,24.69-.55c.56.31,1.07.62,1.55.92V138Z"/><polygon class="cls-32" points="126.38 75.41 93.14 75.41 93.14 45.52 126.38 45.52 126.38 75.41 126.38 75.41"/><polygon class="cls-32" points="196.1 75.41 162.87 75.41 162.87 45.52 196.1 45.52 196.1 75.41 196.1 75.41"/><polygon class="cls-30" points="230.97 75.41 197.73 75.41 197.73 45.52 230.97 45.52 230.97 75.41 230.97 75.41"/><path class="cls-33" d="M108.77,48.19a3,3,0,0,0-4.34,2.23,4.28,4.28,0,0,0-3.39.66,2.34,2.34,0,0,0-1,2.88,3.47,3.47,0,0,0-2.24,2.68,3.63,3.63,0,0,0,.54,2.86s-1,1.92-.06,3.27,1.14,1.12,1.14,1.12a2.25,2.25,0,0,0,.92,2.29,6.48,6.48,0,0,0,3.29.93s.17.82,1.56,1a3.4,3.4,0,0,0,2.16-.36,4.86,4.86,0,0,0,2.67.86,2.34,2.34,0,0,0,2.08-.94s2.21.82,3.54,0a2.06,2.06,0,0,0,1.08-2.07,2.53,2.53,0,0,0,3-.66c1.59-1.47.74-2.59.74-2.59a2.69,2.69,0,0,0,2-2.17c.43-1.9-1.53-2.93-1.53-2.93a3.47,3.47,0,0,0,.6-3.27,2.23,2.23,0,0,0-2.68-1.71s.62-1-.46-2.35-3.53-1-3.53-1a2.86,2.86,0,0,0-1.67-1.35,1.74,1.74,0,0,0-1.72.52,2,2,0,0,0-2.73.12Z"/><path class="cls-34" d="M109,69a20.08,20.08,0,0,0-4.52,1.08c-1.67.73-3.67,2.41-4.06,3.8a9.45,9.45,0,0,0-.13,1.5H121c-1.55-4.88-4.93-6.82-12.07-6.38Z"/><path class="cls-35" d="M105.22,69.81a7.24,7.24,0,0,0-.79.3c-1.67.73-3.67,2.41-4.06,3.8a9.45,9.45,0,0,0-.13,1.5h5v-5.6ZM121,75.41c-1-3-2.59-4.87-5.36-5.78v5.78Z"/><path class="cls-36" d="M112.58,65.6s-.45,2.69,0,3.27a2.66,2.66,0,0,0,1.41.76,6.65,6.65,0,0,1-4.31.85c-2.56-.33-2.3-.91-2.3-.91s1.16,0,1.2-.76,0-2.73,0-2.73a4.82,4.82,0,0,0,4-.48Z"/><path class="cls-37" d="M115.35,59.93s.09-.56,1.39-.22.25,3-.7,3.16-1.15,0-1.15,0l.46-2.94Z"/><path class="cls-37" d="M104.76,59.93s-.09-.56-1.39-.22-.26,3,.69,3.16,1.16,0,1.16,0l-.46-2.94Z"/><path class="cls-37" d="M112.58,65.6a14.27,14.27,0,0,0-.19,2.51,5.53,5.53,0,0,1-3.8.26c0-.89,0-2.29,0-2.29a4.82,4.82,0,0,0,4-.48Z"/><path class="cls-36" d="M114.35,54.82c1.08,1.2,1.8,3.23.94,7.81a5.3,5.3,0,0,1-10.47,0c-.86-4.58-.17-6.57,1-7.81s7.5-1.23,8.58,0Z"/><path class="cls-33" d="M107.83,58.93a.58.58,0,1,1-.45.57.52.52,0,0,1,.45-.57Z"/><path class="cls-33" d="M112.58,58.93a.58.58,0,1,1-.45.57.52.52,0,0,1,.45-.57Z"/><path class="cls-38" d="M106.12,58.1a2,2,0,0,1,2.66-.05l-.31.28c-.91-.87-2.06.07-2.06.07l-.29-.3Zm7.87,0a2.05,2.05,0,0,0-2.67-.05l.32.28c.9-.87,2.06.07,2.06.07l.29-.3Z"/><path class="cls-39" d="M109.22,61.6a1.42,1.42,0,0,0,1.66.06l.28.31a1.87,1.87,0,0,1-2.21,0l.27-.32Z"/><path class="cls-39" d="M108.41,63.45a3.54,3.54,0,0,0,3.39.12l.19.36a4,4,0,0,1-3.84-.16l.26-.32Z"/><path class="cls-34" d="M116.13,55.92a4,4,0,0,0-2.5-2,10.85,10.85,0,0,0-7.16,0,4,4,0,0,0-2.5,2c-1.38-5.44,13.54-5.44,12.16,0Z"/><path class="cls-17" d="M124.48,75.41H95.3a1.36,1.36,0,0,1,0-.2V73.48A1.66,1.66,0,0,1,97,71.89h25.78a1.66,1.66,0,0,1,1.72,1.59v1.73a1.36,1.36,0,0,1,0,.2Z"/><path class="cls-14" d="M208.05,88.9a1.66,1.66,0,0,0,1.44,1.75.91.91,0,0,0,.74-.38l-.29-2.14c-.8-.51-1.82-.3-1.89.77Z"/><path class="cls-14" d="M221.76,88.9a1.66,1.66,0,0,1-1.44,1.75.91.91,0,0,1-.75-.38l.29-2.14c.81-.51,1.82-.3,1.9.77Z"/><path class="cls-35" d="M213.67,97.35a6.36,6.36,0,0,1-3.57,1.13c-1.71-.16-4.17-.12-5.5,2.1a39.81,39.81,0,0,0-2.63,6.11h24.75a9.66,9.66,0,0,0-1.53-5.64,7.4,7.4,0,0,0-5.07-2.8s-5.77.75-6.45-.9Z"/><path class="cls-40" d="M206.14,106.69h.52c.58-2.2,1.62-5,1.63-5l-.49-.15s-1.09,2.86-1.66,5.12Zm16.25,0h.52a53.71,53.71,0,0,0-1.66-5.12l-.49.15s1.06,2.77,1.63,5Z"/><path class="cls-15" d="M217.35,93.62s-.1,3.41.57,4a4.3,4.3,0,0,0,2.2.63,16.32,16.32,0,0,1-5.4,1.26,5.71,5.71,0,0,1-3.45-1.08s1.57-.48,1.7-1.33a22.09,22.09,0,0,0,0-3s4,.13,4.38-.48Z"/><path class="cls-14" d="M217.35,93.62s0,1.06.06,2.11a5.7,5.7,0,0,1-3.54.32,4.31,4.31,0,0,1-.84-.23c0-.88-.06-1.72-.06-1.72s4,.13,4.38-.48Z"/><path class="cls-15" d="M215.64,83a40.59,40.59,0,0,0-4.13.67c-1.65.39-1.92,2.26-2,3.14a11.54,11.54,0,0,0,0,1.69s0,5.27,4.35,6.09,6-2.3,6.16-4a37,37,0,0,0,0-4.77c0-.76-1.29-2.77-4.39-2.77Z"/><path class="cls-41" d="M220.11,89.61c.75-1.25,2.58-4.81,1.65-7.79-.35-1.12-2.32-2.24-2.3-1.76s1.22,1-1-.16a13.5,13.5,0,0,0-6.83-1c-1.35.2-1.53.57-.9.83a4.74,4.74,0,0,1,.82.39c-2-.37-4.05,1-4.51,1.29s.36.69.36.69-.78,0-1.1,1.7-.31,2.78,0,2.84.94-1,.94-1a18,18,0,0,0,1.19,2.85A12.41,12.41,0,0,0,209.7,90a10.85,10.85,0,0,1,.14-4c.52-1.57,3-2.16,4.29-2.35s3.12-.37,3.12-.37a25.74,25.74,0,0,1,2.12,1.61c.58.54.74,4.75.74,4.75Z"/><path class="cls-13" d="M213,87.08a.71.71,0,1,1-.53.68.62.62,0,0,1,.53-.68Z"/><path class="cls-13" d="M216.54,87.08a.7.7,0,1,1-.54.68.62.62,0,0,1,.54-.68Z"/><path class="cls-42" d="M211.27,86.52a2.06,2.06,0,0,1,2.91-.09l-.36.33a1.54,1.54,0,0,0-2.16.06l-.39-.3Zm4.09,0a2.07,2.07,0,0,1,2.91-.09l-.35.33a1.55,1.55,0,0,0-2.17.06l-.39-.3Z"/><path class="cls-43" d="M214,89.74a1.67,1.67,0,0,0,1.71-.06L216,90a2.13,2.13,0,0,1-2.18.1l.2-.32Z"/><path class="cls-17" d="M213.19,91.71a35.75,35.75,0,0,1,4-.07c.17.15-2.85,1.43-4,.07Z"/><path class="cls-17" d="M212.85,87.4a.16.16,0,1,1,0,.31.16.16,0,1,1,0-.31Z"/><path class="cls-17" d="M216.76,87.4a.16.16,0,1,1,0,.31.16.16,0,1,1,0-.31Z"/><path class="cls-17" d="M156.25,75.41H129.16c0-.11,0-.21,0-.32V72.23c0-1.44.72-2.62,1.59-2.62h23.93c.88,0,1.59,1.18,1.59,2.62v2.86c0,.11,0,.21,0,.32Z"/><path class="cls-33" d="M211,52.18s-1.53-.94-1.53-1.66-.89-2.5-1.74-2.7a3.94,3.94,0,0,0-2.1.44s-1.34-.07-1.66.49a1.6,1.6,0,0,0-.2,1.07.91.91,0,0,0-.82,1,2.44,2.44,0,0,0,.18,1.17s-1.19.85-.69,1.65.61.94.61.94-.88.24-.49,1,.7.89.7.89-.29,1.72.35,2a2.93,2.93,0,0,0,1,.27,2.7,2.7,0,0,0,1.15.46,1.91,1.91,0,0,0,.88-.25s1.2.28,1.58,0,.18-4.54,2.76-6.77Z"/><path class="cls-33" d="M217.74,52.18s1.54-.94,1.54-1.66.89-2.5,1.73-2.7a4,4,0,0,1,2.11.44s1.34-.07,1.66.49a1.6,1.6,0,0,1,.2,1.07.91.91,0,0,1,.82,1,2.44,2.44,0,0,1-.18,1.17s1.19.85.68,1.65-.6.94-.6.94.88.24.48,1-.7.89-.7.89.29,1.72-.35,2a2.93,2.93,0,0,1-1,.27,2.7,2.7,0,0,1-1.14.46,1.91,1.91,0,0,1-.88-.25s-1.18,1-2-.06.22-4.46-2.36-6.69Z"/><path class="cls-37" d="M209.42,60.61s.24,1.58-.71,1.1a2.78,2.78,0,0,1-1-2.85c.24-.71.56-.81.56-.81s1.18-.15,1.18,2.56Z"/><path class="cls-37" d="M218.8,60.61s.21,1.5,1.17,1,.8-2.07.56-2.77-.56-.81-.56-.81-1.17-.15-1.17,2.56Z"/><path class="cls-36" d="M212.06,64.7s.49,2.33-.31,2.5a45.09,45.09,0,0,0-6.69,2.29c-1.16.68-1.71,2-2.07,3.76a18.72,18.72,0,0,0-.34,2.16h23.66c-.05-1.29-.15-3.26-.91-4.28-1.16-1.55-4.69-3.14-5.64-3.59s-2-.28-2-1.07V64.2s-3.62,1.42-5.68.5Z"/><path class="cls-37" d="M212.06,64.7s.48,2.27-.27,2.49a6.16,6.16,0,0,0,4,.48,5.3,5.3,0,0,0,2-1.07s0-.09,0-.13V64.2s-3.62,1.42-5.68.5Z"/><path class="cls-33" d="M214.85,51s-3.38.06-5.08,1.5a7,7,0,0,0-2.08,4.74c-.12,1,.89,2.15,1,2.79s.24-3,.4-3.92,1.6-1.3,2.14-1.16a10.5,10.5,0,0,0,4.52.12c1.44-.48,2.11,0,2.35.49a3.61,3.61,0,0,0,.92,1.26c.39.28.54,2.31.54,2.31a8.19,8.19,0,0,1,.86-1.64c.21-.11.7-6.49-5.61-6.49Z"/><path class="cls-36" d="M219.76,57.59s-.22,4.63-.43,5.45a5.53,5.53,0,0,1-3.54,3.27c-2.06.6-5.48-.56-6-2.46a24.88,24.88,0,0,1-1.19-5.16c0-.24-.05-.48-.06-.71A3.84,3.84,0,0,1,211,54.14c1.4-.42,5.3-.79,6.83-.08s2,3.53,2,3.53Z"/><path class="cls-33" d="M212.06,59.59a.7.7,0,1,1-.59.69.64.64,0,0,1,.59-.69Z"/><path class="cls-33" d="M217.16,59.59a.7.7,0,1,1-.59.69.64.64,0,0,1,.59-.69Z"/><path class="cls-38" d="M210.31,58.71a2.53,2.53,0,0,1,2.89,0l-.41.43a1.91,1.91,0,0,0-2.13,0l-.35-.47Z"/><path class="cls-38" d="M215.71,58.71a2.55,2.55,0,0,1,2.9,0l-.42.43a1.92,1.92,0,0,0-2.13,0l-.35-.47Z"/><path class="cls-39" d="M213.39,62.05s1.25.93,2.17-.06l.47.37a2.28,2.28,0,0,1-3,.14l.38-.45Z"/><path class="cls-39" d="M212.75,63.8s2.39,1.13,3.65-.1l.34.3c-1.51,1.46-4.19.19-4.2.19l.21-.39Z"/><path class="cls-44" d="M209.47,50.16a.89.89,0,1,1-1,.89.93.93,0,0,1,1-.89Z"/><path class="cls-35" d="M208.46,51.25a.89.89,0,1,1-1,.89.93.93,0,0,1,1-.89Z"/><path class="cls-44" d="M219.23,50.16a.89.89,0,1,0,1,.89.93.93,0,0,0-1-.89Z"/><path class="cls-35" d="M220.24,51.25a.89.89,0,1,0,1,.89.93.93,0,0,0-1-.89Z"/><path class="cls-35" d="M205.3,68.67l2.71-1s1.57,4,4.53,4.92,6.81-.37,7.22-1.61,1-3.62,1-3.62l2.47,1.39v5a13.73,13.73,0,0,0,.15,1.68h-18a23,23,0,0,0,0-6.74Z"/><path class="cls-17" d="M212.05,60.29a.15.15,0,0,1,.15.14.15.15,0,0,1-.15.15.16.16,0,0,1-.16-.15.15.15,0,0,1,.16-.14Z"/><path class="cls-17" d="M217.21,60.29a.15.15,0,0,1,.16.14.16.16,0,0,1-.16.15.15.15,0,0,1-.15-.15.15.15,0,0,1,.15-.14Z"/><path class="cls-44" d="M206.05,68.9a.37.37,0,0,1,.38.35.38.38,0,0,1-.76,0,.37.37,0,0,1,.38-.35Z"/><path class="cls-44" d="M208.16,68.9a.37.37,0,0,1,.38.35.38.38,0,0,1-.76,0,.37.37,0,0,1,.38-.35Z"/><path class="cls-44" d="M207,70.61a.36.36,0,1,1-.38.36.37.37,0,0,1,.38-.36Z"/><path class="cls-44" d="M209.31,71.15a.36.36,0,1,1-.38.35.37.37,0,0,1,.38-.35Z"/><path class="cls-44" d="M206.2,72.44a.36.36,0,1,1-.38.35.37.37,0,0,1,.38-.35Z"/><path class="cls-44" d="M208.38,73.15a.36.36,0,0,1,.38.35.38.38,0,0,1-.76,0,.36.36,0,0,1,.38-.35Z"/><path class="cls-44" d="M206.43,74.46a.36.36,0,1,1-.38.35.37.37,0,0,1,.38-.35Z"/><path class="cls-44" d="M210.92,73.15a.36.36,0,0,1,.39.35.39.39,0,0,1-.77,0,.36.36,0,0,1,.38-.35Z"/><path class="cls-44" d="M209.84,74.46a.36.36,0,1,1-.38.35.37.37,0,0,1,.38-.35Z"/><path class="cls-44" d="M212.9,73.15a.36.36,0,0,1,.38.35.38.38,0,0,1-.76,0,.36.36,0,0,1,.38-.35Z"/><path class="cls-44" d="M215.08,73.15a.36.36,0,0,1,.38.35.38.38,0,0,1-.76,0,.36.36,0,0,1,.38-.35Z"/><path class="cls-44" d="M213.13,74.46a.36.36,0,1,1-.38.35.37.37,0,0,1,.38-.35Z"/><path class="cls-44" d="M217.63,73.15a.36.36,0,0,1,.38.35.37.37,0,0,1-.38.35.38.38,0,0,1-.39-.35.37.37,0,0,1,.39-.35Z"/><path class="cls-44" d="M216.54,74.46a.36.36,0,1,1-.38.35.37.37,0,0,1,.38-.35Z"/><path class="cls-44" d="M219.13,72.44a.36.36,0,1,1-.38.35.37.37,0,0,1,.38-.35Z"/><path class="cls-44" d="M221.32,73.15a.36.36,0,0,1,.38.35.38.38,0,0,1-.76,0,.36.36,0,0,1,.38-.35Z"/><path class="cls-44" d="M219.37,74.46a.36.36,0,1,1-.38.35.37.37,0,0,1,.38-.35Z"/><path class="cls-44" d="M222.78,74.46a.36.36,0,1,1-.38.35.37.37,0,0,1,.38-.35Z"/><path class="cls-44" d="M222.5,72.2a.36.36,0,1,1-.38.35.37.37,0,0,1,.38-.35Z"/><path class="cls-44" d="M220.94,70.8a.36.36,0,0,1,.38.35.38.38,0,0,1-.76,0,.36.36,0,0,1,.38-.35Z"/><path class="cls-44" d="M222.5,69.6a.36.36,0,1,1-.38.36.37.37,0,0,1,.38-.36Z"/><path class="cls-44" d="M221.32,68.19a.36.36,0,1,1-.38.35.37.37,0,0,1,.38-.35Z"/><path class="cls-45" d="M221.75,74.31a15.53,15.53,0,0,0-.92-3.73,5.93,5.93,0,0,1-.8-2.9c0-.92-.56-1.8,0-1.88a.75.75,0,0,1,.91.6c.09.36.12.95.23,1.28s.06.51.19.32a10.54,10.54,0,0,0,.62-2.21,17.1,17.1,0,0,1,.32-2.47.42.42,0,0,1,.75.09c.12.38-.12,3.09,0,3.15a14.76,14.76,0,0,0,.51-2.33c.08-.35.07-1.1.62-1.1s.31,1.19.27,1.49a18.25,18.25,0,0,0-.36,2.23c.07.13.22.16.27,0s.82-2,.92-2.37.28-.74.62-.67.39.33.24.89-1,2.85-1,3a.22.22,0,0,0,.23.28,6.08,6.08,0,0,0,1.22-.75,4.85,4.85,0,0,1,.82-.81c.21-.1.58-.07.57.23a6.21,6.21,0,0,1-1.26,1.64,9.84,9.84,0,0,1-.93.82,14.7,14.7,0,0,1-1.4,2.15c-.23.08.89,4.1.89,4.1H221.8l-.05-1.1Z"/><path class="cls-46" d="M183.81,71.12H196.1v4.29H182.42v-3a1.34,1.34,0,0,1,1.39-1.29Z"/><path class="cls-27" d="M181.92,71.63H196.1v3.78H180.6V72.85a1.28,1.28,0,0,1,1.32-1.22Z"/><path class="cls-47" d="M178.27,67c1.27,1.76,5.74,1,6.31-.42,4.13,1.46,5.08,2.06,5.35,6.27a12,12,0,0,1-.28,2.58H172.42l-.09-3c0-.9,1-4.15,5.94-5.38Zm-6.48,5.42s-.48,1.41-1.07,3h1l0-3Z"/><path class="cls-48" d="M185.05,69.29a8.65,8.65,0,0,0-3.61,4.89,12.49,12.49,0,0,1-.43,1.23h2.66l1.38-6.12Z"/><path class="cls-49" d="M178.27,67s4.18-.89,6.31-.42c1,.91-5.38,3.32-6.31.42Z"/><path class="cls-24" d="M183.06,62.17a7.18,7.18,0,0,0,.48,2.69,5.13,5.13,0,0,0,1.21,2.25,5.67,5.67,0,0,1-3.05,1.51,4.76,4.76,0,0,1-3-.77l.34-3.64a4.07,4.07,0,0,0,4-2Z"/><path class="cls-17" d="M178.27,67c1.27,1.76,5.74,1,6.31-.42,0,0,.31.11.79.31a6,6,0,0,1-4.14,1.77,5.16,5.16,0,0,1-3.79-1.43c.23-.09.66-.18.83-.23Z"/><path class="cls-48" d="M175.88,70.57a13.1,13.1,0,0,0-1.78,4.84h-1.38a8.31,8.31,0,0,1,3.16-4.84Z"/><path class="cls-50" d="M183.06,62.17a7.18,7.18,0,0,0,.48,2.69l.09.25A5.16,5.16,0,0,1,180,66.43a4.88,4.88,0,0,1-1.2-.17l.19-2.05a4.07,4.07,0,0,0,4-2Z"/><path class="cls-3" d="M178.49,49.6a6.14,6.14,0,0,0-4.59.72,4.27,4.27,0,0,1,4.59-.72Zm-5.61,1.58c-1.19,1.36-1.73,5.06,1.26,4.87,1.81-.11,6.87-.65,7.49.11s-.62,4.66.61,5,1.09,1.31,2.2,1.31S187.38,61,187.86,58s-.44-10.06-8.36-8.19c-3.77-1.81-5.74,0-6.62,1.4Z"/><path class="cls-24" d="M174.43,56a10.57,10.57,0,0,1,.18,4.52c-.39,2.9,2.82,4.28,4.69,4.31a4.72,4.72,0,0,0,5-4.07s1.15-.62,1.26-1.56-1.09-1.29-1.6-1a1.76,1.76,0,0,0-.83,1.51c0,.62-.16,1-.46,1-.74,0-.43-3.17-.24-3.56a1.15,1.15,0,0,0-.61-1.74,45.13,45.13,0,0,0-7.36.54Z"/><path class="cls-23" d="M174.43,56a4,4,0,0,1,.15.64,30.93,30.93,0,0,1,4.7-.61c2.56-.1,2.66.09,2.94,1.1a.79.79,0,0,0,.12.26.85.85,0,0,1,.06-.19,1.15,1.15,0,0,0-.61-1.74,45.13,45.13,0,0,0-7.36.54Z"/><path class="cls-3" d="M176.6,57.89a.66.66,0,1,1-.53.65.6.6,0,0,1,.53-.65Z"/><path class="cls-3" d="M180.05,57.89a.66.66,0,1,1-.53.65.6.6,0,0,1,.53-.65Z"/><path class="cls-26" d="M178.16,59.21s-.38,1.32-1,1.63c-.09,0-.13.1-.13.15a.19.19,0,0,0,0,.12.6.6,0,0,0,.14.13,1,1,0,0,0,.76.08l.08.21a1.16,1.16,0,0,1-1-.11.65.65,0,0,1-.21-.19.41.41,0,0,1-.08-.25.39.39,0,0,1,.25-.33c.49-.26.85-1.49.85-1.5l.23.06Z"/><path class="cls-26" d="M177.5,62.42a1.85,1.85,0,0,0,2.34-.36l.27.22a2.23,2.23,0,0,1-2.81.42l.2-.28Z"/><path class="cls-3" d="M175.58,57.21a1.48,1.48,0,0,1,2,0l-.33.33a1,1,0,0,0-1.3,0l-.35-.32Zm3.4,0a1.48,1.48,0,0,1,2,0l-.32.33a1,1,0,0,0-1.31,0l-.35-.32Z"/><path class="cls-48" d="M188.32,69.29c.4,1.44-.17,3.81-1,6.12h1.9c.3-2.39.2-4.71-.85-6.12Z"/><path class="cls-47" d="M187.86,75.41c1-3,1.3-6,0-6.48-3.33-1.25-5.27,3-6.42,6.48Z"/><path class="cls-17" d="M176.89,58.18a.18.18,0,1,1-.19.17.19.19,0,0,1,.19-.17Z"/><path class="cls-17" d="M180.31,58.18a.18.18,0,1,1-.18.17.18.18,0,0,1,.18-.17Z"/><path class="cls-23" d="M185,59a.73.73,0,0,0-.73-.42c-.57,0-.87,1-.72,1.43s.77-.11.89.18.54-.08.4-.44-.85,0-.86-.32.23-.53.38-.4.37.33.55.22S185,59,185,59Z"/><path class="cls-2" d="M162.87,60l7.25-.55a.69.69,0,0,1,.71.59l2.94,15.42h-10.9V60Z"/><path class="cls-51" d="M162.87,60.2l6.86-.53a.69.69,0,0,1,.71.59l3,15.15H162.87V60.2Z"/><path class="cls-48" d="M186.52,70.06a22.81,22.81,0,0,1-.51,5.35h-.25a22.39,22.39,0,0,0,.52-5.34Z"/><path class="cls-48" d="M177.44,69.81a9,9,0,0,0,3.16,4.54l-.15.18a9.29,9.29,0,0,1-3.24-4.67l.23,0Zm-1.08,1.84a6.31,6.31,0,0,0,.64,3.76h-.26a6.53,6.53,0,0,1-.62-3.8l.24,0Z"/><path class="cls-34" d="M109.71,79.37s1-1,3.57,0,2.92,3.39,3.49,4.66,2.55,1.26,2,3.58-.64,1.39.1,2.53,1.13,2.27.31,3a1.57,1.57,0,0,0-.27,2.43c.73,1,2.4,1.35.73,3.82s-17.58,2.68-18.9,0,.29-2.58,0-4.64-1.12-3.15,0-4.29-.52-1.55-.09-3.38,1.92-1.07,2.16-2.55,2-6.21,6.9-5.15Z"/><path class="cls-52" d="M107.23,93.28s.19,3.19-1,4-6.54.84-7.77,1.71c-1,.73-1.57,6.16-1.7,7.75h24c.12-1.81.24-6.49-1.53-7.37-2.21-1.1-5.84-1-6.8-2.64s-.6-2.45-.6-2.45-4.13.08-4.58-1Z"/><path class="cls-53" d="M107.23,93.28a10,10,0,0,1-.12,2.13,9.11,9.11,0,0,0,1.65.78,4.76,4.76,0,0,0,3.37,0,2.53,2.53,0,0,1-.32-1.92s-4.13.08-4.58-1Z"/><path class="cls-52" d="M114.84,84.91a10.51,10.51,0,0,0,.28,2.7,8.67,8.67,0,0,1-.68,5.24,4.82,4.82,0,0,1-5.68,1.93c-2.35-.88-3.32-2-3.53-3.4a16.55,16.55,0,0,0-.47-2.18,3.37,3.37,0,0,0,.4-2c-.19-.87-.21-1,.37-1.68s.15-.88.62-1.53.88-1.63,2-.82,1.91,0,2.66-.31,1.41-.94,1.92.41,1.87,1,2,1.19a.43.43,0,0,1,.08.42Z"/><path class="cls-54" d="M112.74,87.27a.59.59,0,1,0,.54.59.56.56,0,0,0-.54-.59Z"/><path class="cls-54" d="M108,87.27a.59.59,0,1,0,.54.59.56.56,0,0,0-.54-.59Z"/><path class="cls-55" d="M114.11,86.92a2,2,0,0,0-2.74-.07l.15.16a1.75,1.75,0,0,1,2.41.06l.18-.15Z"/><path class="cls-55" d="M109.41,86.92a2,2,0,0,0-2.74-.07l.15.16a1.75,1.75,0,0,1,2.41.06l.18-.15Z"/><path class="cls-16" d="M110.28,88.33s.18,1.11.63,1.35a.69.69,0,0,1,.22.19.41.41,0,0,1,.05.17.33.33,0,0,1-.1.18,1,1,0,0,1-.42.19l.07.24a1.19,1.19,0,0,0,.53-.25.52.52,0,0,0,.19-.33.55.55,0,0,0-.09-.33,1,1,0,0,0-.32-.28c-.33-.17-.5-1.17-.5-1.18l-.26,0Z"/><path class="cls-17" d="M112,91.66s-3.79-.11-3.85,0a3.22,3.22,0,0,0,2.17,1c1,0,2.15-.94,1.68-1Z"/><path class="cls-53" d="M113.11,89.57c-.39,0-.7.14-.7.31s.31.31.7.31.7-.14.7-.31-.31-.31-.7-.31Z"/><path class="cls-53" d="M107.69,89.57c-.39,0-.7.14-.7.31s.31.31.7.31.7-.14.7-.31-.31-.31-.7-.31Z"/><path class="cls-53" d="M115.46,87.59a.89.89,0,0,1,.81.21,1.56,1.56,0,0,1-.13,1.9,2,2,0,0,1-1,.75,12.42,12.42,0,0,0,.29-2.86Z"/><path class="cls-53" d="M104,87.27s-.56-.37-.88.38a2.26,2.26,0,0,0,.66,2.1,3.39,3.39,0,0,0,1.19.35,8.66,8.66,0,0,1-1-2.83Z"/><polygon class="cls-56" points="116.21 98.1 115.97 102.37 116.66 102.41 116.9 98.13 116.21 98.1 116.21 98.1"/><polygon class="cls-56" points="101.05 97.94 101.63 102.19 102.32 102.1 101.74 97.86 101.05 97.94 101.05 97.94"/><path class="cls-44" d="M116.44,101.7s-1.27,2.24-6,2.11a23.35,23.35,0,0,1-8.75-2.11l-.93,5h16.41a16.08,16.08,0,0,0-.72-5Z"/><path class="cls-55" d="M110.82,99.54l2.44-.55-.06-.21-2.43.55,0,.21Zm-2.19-.21-2.44-.55,0,.21,2.43.55.06-.21Z"/><path class="cls-17" d="M113,87.57a.15.15,0,0,0-.16.14.16.16,0,0,0,.32,0,.15.15,0,0,0-.16-.14Z"/><path class="cls-17" d="M108.23,87.57a.15.15,0,0,0-.16.14.16.16,0,0,0,.16.15.16.16,0,0,0,.16-.15.15.15,0,0,0-.16-.14Z"/><path class="cls-57" d="M213,100.62h18v6.07H209.29v-3.8c0-1.25,1.66-2.27,3.68-2.27Z"/><path class="cls-58" d="M231,101.21v5.48H209.29v-3.2c0-1.26,1.66-2.28,3.68-2.28Z"/><path class="cls-33" d="M222.66,102.72h.47v2.07h-.47v-2.07Zm4.59,0h.47v2.07h-.47v-2.07Zm-.92,0h.48v2.07h-.48v-2.07Zm-.92,0h.48v2.07h-.48v-2.07Zm-.91,0H225v2.07h-.47v-2.07Zm-.92,0h.47v2.07h-.47v-2.07Z"/><path class="cls-59" d="M219.05,112.05c3.29,1.25,4.08,3,4.08,3.92s.15,1.68-1,5c1,4.29,1.42,16.41,1.42,16.41l-18.52-3.54s2.18-6.88,2.7-9.75c.34-1.94-.14-5.57,1.21-8.52,1.62-3.58,6.77-4.77,10.07-3.53Z"/><path class="cls-34" d="M222.69,118.82s1.34.4,1.42,1.5,0,2.75-.72,3.37-1.22.27-1.22.27l.52-5.14Z"/><path class="cls-52" d="M212.25,125.73a21.06,21.06,0,0,1-.72,4.61c-.54,1.32-.54,1.36-.54,1.36a9.69,9.69,0,0,0,3.74,1.28,4.26,4.26,0,0,0,2.85-.95v-4.24s-3.83-.41-5.33-2.06Z"/><path class="cls-14" d="M212.25,125.73s-.08,1.54-.31,2.93a6.88,6.88,0,0,0,5.64,1.87v-2.74s-3.83-.41-5.33-2.06Z"/><path class="cls-52" d="M222.66,116.84a29,29,0,0,1-.52,7.22,5.36,5.36,0,0,1-5.68,4.39c-2.85-.1-5.11-2-5.57-3.53a38.06,38.06,0,0,1-.7-5.61,3.83,3.83,0,0,0,2.66-.63c1.75-.92,7.7-3.57,7.7-3.57a8.09,8.09,0,0,1,2.11,1.73Z"/><path class="cls-60" d="M210.67,120s1.47-8.46,9-7.8c-5-3.27-10.13,2.26-10.49,7.53l1.49.27Z"/><path class="cls-61" d="M210.67,120a10.75,10.75,0,0,1,.57-2,2.17,2.17,0,0,0-1.45-.57h-.19a10.17,10.17,0,0,0-.42,2.24l1.49.27Z"/><path class="cls-34" d="M217.42,131.66a20.38,20.38,0,0,1,2.42,1.33c3.6,2.13,4.39,2.45,5.08,5H200.09a8.79,8.79,0,0,1,.29-.95c.79-2.08.58-3.13,2-4s9-2.2,9-2.2c-.52,1.54,4.5,2.73,6.07.87Z"/><path class="cls-61" d="M218.24,132.56s-4,3.21-8.31-.86l-.27.25c4.55,4.3,8.81.89,8.82.88l-.24-.27Z"/><path class="cls-61" d="M206,135.64a21.92,21.92,0,0,1,.69,2.33H207a22.23,22.23,0,0,0-.72-2.44l-.36.11Z"/><path class="cls-13" d="M215.68,119.55c-.29,0-.53.32-.53.72s.24.71.53.71.53-.32.53-.71-.24-.72-.53-.72Z"/><path class="cls-13" d="M220.55,119.55c-.29,0-.52.32-.52.72s.23.71.52.71.53-.32.53-.71-.24-.72-.53-.72Z"/><path class="cls-62" d="M221.79,119a1.8,1.8,0,0,0-2.46,0l.2.22a1.46,1.46,0,0,1,2,0l.23-.19Z"/><path class="cls-62" d="M216.91,119a1.79,1.79,0,0,0-2.46,0l.2.22a1.46,1.46,0,0,1,2,0l.23-.19Z"/><path class="cls-16" d="M218.62,121s.09,1.75.61,2.16c.27.2-.89.63-.9.63l.12.26s1.65-.6,1-1.11c-.42-.32-.5-2-.5-2Z"/><path class="cls-17" d="M219.41,125.09l-3.67-.7s1,1.57,2,1.74,1.65-1,1.65-1Z"/><path class="cls-34" d="M209.79,118.06a3,3,0,1,0,2.46,2.92,2.72,2.72,0,0,0-2.46-2.92Z"/><path class="cls-63" d="M209.16,118.27a2.21,2.21,0,1,0,1.83,2.18,2,2,0,0,0-1.83-2.18Z"/><path class="cls-34" d="M208.7,118.82a1.65,1.65,0,1,0,1.37,1.63,1.51,1.51,0,0,0-1.37-1.63Z"/><path class="cls-17" d="M215.7,119.82a.16.16,0,1,0,0,.31.16.16,0,0,0,.16-.15.16.16,0,0,0-.16-.16Z"/><path class="cls-17" d="M220.55,119.82a.16.16,0,0,0-.16.16.16.16,0,0,0,.16.15.16.16,0,1,0,0-.31Z"/><path class="cls-35" d="M105.25,128.56s-5.85,2.18-6.66,3.52c-.5.82-1,3.77-1.39,5.89h25.23a28.44,28.44,0,0,0-1-5.89c-.67-1.39-7.89-3.52-7.89-3.52l-4.65,4-3.63-4Z"/><path class="cls-37" d="M103.38,117.51a2.11,2.11,0,0,0-.6,2c.14,1.1.93,1.81,1.3,1.64s-.7-3.68-.7-3.68Z"/><path class="cls-37" d="M116.21,117.51a2.11,2.11,0,0,1,.6,2c-.14,1.1-.93,1.81-1.3,1.64s.7-3.68.7-3.68Z"/><path class="cls-12" d="M102.71,113.53a10.26,10.26,0,0,0-.08,2.76,22.83,22.83,0,0,0,1.16,3.26l12.07-.12a12.37,12.37,0,0,0,1.4-5.9,4.13,4.13,0,0,0-3.1-3.72,9.26,9.26,0,0,0-6.71-1,7.06,7.06,0,0,0-4.74,4.67Z"/><path class="cls-53" d="M112.47,123.91l.2,2.74.2,2.75-3.14,2.68-2.88-2.94.6-5.23s3.54.87,5,0Z"/><path class="cls-45" d="M112.47,123.91l.15,2a7.73,7.73,0,0,1-5.41,0l.24-2s3.54.87,5,0Z"/><path class="cls-53" d="M114.06,112.4a11.94,11.94,0,0,1,2,3.37c.42,1.47-.67,7-2,8.16a7.26,7.26,0,0,1-8.25,0c-2.89-2.15-1.93-7.61-1.86-8.16s2.89-3.55,2.83-3.16-.74,1-.74,1a8.35,8.35,0,0,0,1.54-.83c.88-.59,1.12-.77,1-.59s-1.37,1.31-1.2,1.36a6.25,6.25,0,0,0,1.89-.82c.7-.41,2.06-1.32,2.06-1.32s.6,2.09,1,1.76,0-1.48,0-1.48a9.88,9.88,0,0,0,1.6,1.45c.46.21.09-.77.09-.77Z"/><path class="cls-38" d="M111.58,115.39a2,2,0,0,1,2.58,0l-.21.25a1.69,1.69,0,0,0-2.14,0l-.23-.23Z"/><path class="cls-38" d="M105.56,115.39a2,2,0,0,1,2.58,0l-.21.25a1.68,1.68,0,0,0-2.14,0l-.23-.23Z"/><path class="cls-33" d="M107.06,116.11c.25,0,.46.31.46.7s-.21.7-.46.7-.47-.31-.47-.7.21-.7.47-.7Z"/><path class="cls-33" d="M112.47,116.11c.26,0,.47.31.47.7s-.21.7-.47.7-.46-.31-.46-.7.21-.7.46-.7Z"/><path class="cls-16" d="M108.57,118.71a1.93,1.93,0,0,0,2.36,0l.2.26a2.28,2.28,0,0,1-2.79,0l.23-.22Z"/><path class="cls-16" d="M107.6,121a6.65,6.65,0,0,0,5.2,0l.15.28a7,7,0,0,1-5.5,0l.15-.28Z"/><polygon class="cls-64" points="111.68 130.7 109.83 132.53 109.97 136.7 108.34 136.7 108.34 132.53 110.2 130.12 111.68 130.7 111.68 130.7"/><polygon class="cls-65" points="107.98 129.59 109.27 131.32 108.34 132.53 106.85 130.38 107.98 129.59 107.98 129.59"/><polygon class="cls-66" points="100.45 134.96 99.89 137.97 99.55 137.97 100.11 134.91 100.45 134.96 100.45 134.96"/><polygon class="cls-66" points="118.61 134.96 119.16 137.97 119.5 137.97 118.94 134.91 118.61 134.96 118.61 134.96"/><polygon class="cls-34" points="100.15 136.55 118.8 136 119.16 137.97 99.89 137.97 100.15 136.55 100.15 136.55"/><path class="cls-67" d="M112.67,126.65c.17,2.31-2.63,3.36-2.47,3.47l3.35,2.41c.78-3.47,1.93-3.89-.88-5.88Z"/><path class="cls-67" d="M107.11,126.85s-.29.26-.26,1.14,1.13,1.6,1.13,1.6l-3.24,2.49v-3.5c0-1.08,2.41-2.06,2.37-1.73Z"/><path class="cls-17" d="M107,116.41a.13.13,0,1,1,0,.26.13.13,0,1,1,0-.26Z"/><path class="cls-17" d="M112.49,116.41a.13.13,0,1,1,0,.26.13.13,0,1,1,0-.26Z"/><path class="cls-53" d="M102.43,127.7a8.3,8.3,0,0,0,1.19-3.69c0-1.13.7-2.23,0-2.32a.9.9,0,0,0-1.11.74c-.12.45-.15,1.17-.28,1.58s-.09.62-.24.39a12.65,12.65,0,0,1-.76-2.72,22.21,22.21,0,0,0-.4-3.05.52.52,0,0,0-.92.12c-.15.47.15,3.8,0,3.87a17.63,17.63,0,0,1-.64-2.86c-.1-.44-.08-1.36-.75-1.36s-.39,1.46-.33,1.83a24.18,24.18,0,0,1,.44,2.75c-.1.17-.27.2-.34,0s-1-2.47-1.14-2.92-.34-.91-.75-.82-.48.4-.3,1.09,1.2,3.51,1.25,3.72a.29.29,0,0,1-.29.35,7.61,7.61,0,0,1-1.51-.93,5.9,5.9,0,0,0-1-1c-.26-.11-.72-.08-.7.29a7.69,7.69,0,0,0,1.55,2,15.18,15.18,0,0,0,1.14,1,17.83,17.83,0,0,0,1.72,2.64c.29.1-2,9.5-2,9.5h4.14c.53-1.88,1.4-9,2.07-10.27Z"/><path class="cls-68" d="M146.84,139.48a4.9,4.9,0,1,1-5,4.9,4.95,4.95,0,0,1,5-4.9Z"/><path class="cls-68" d="M162,139.48a4.9,4.9,0,1,1-5,4.9,4.94,4.94,0,0,1,5-4.9Z"/><path class="cls-17" d="M158.82,142.91h2.25v-.42h-2.25V142h2.69v.87h1.15v2.93h-3.84v-2.93Zm6.34-.87-2.2.87v2.93l2.2.87V142Z"/><path class="cls-69" d="M177.27,139.48a4.9,4.9,0,1,1-5,4.9,4.94,4.94,0,0,1,5-4.9Z"/><path class="cls-17" d="M144.64,141.8h4a.87.87,0,0,1,.87.86V145a.88.88,0,0,1-.85.86l.41,1.36-1.41-1.36h-3a.87.87,0,0,1-.87-.86v-2.35a.87.87,0,0,1,.87-.86Zm.3,1.89a.35.35,0,1,1-.35.34.35.35,0,0,1,.35-.34Zm3.4,0a.35.35,0,1,1,0,.69.35.35,0,0,1,0-.69Zm-1.13,0a.35.35,0,1,1-.35.34.35.35,0,0,1,.35-.34Zm-1.14,0a.35.35,0,1,1-.34.34.35.35,0,0,1,.34-.34Z"/><path class="cls-17" d="M178.16,147.41a1.62,1.62,0,0,0,2-1l-1.43-1.28c-.73,1.89-3.91-1.94-1.89-2.27l-1-1.63s-1.55.3-1.37,1.69c.17,1.23,2.53,4.07,3.73,4.47Z"/></g></g></svg>