<svg xmlns="http://www.w3.org/2000/svg" viewBox="0 0 226.73 174.35"><defs><style>.cls-1{isolation:isolate;}.cls-2{opacity:0.3;}.cls-3{fill:#ffd371;}.cls-4{fill:#f5f5f5;}.cls-5{fill:#f0f0f0;}.cls-6{fill:#eaeaea;}.cls-21,.cls-22,.cls-6{mix-blend-mode:multiply;}.cls-7{fill:#1b2e35;}.cls-8{fill:#8f3c3a;}.cls-9{fill:#75c189;}.cls-10,.cls-11{opacity:0.2;}.cls-12{fill:#72090d;}.cls-13,.cls-17{fill:#fff;}.cls-14{fill:#e1e1e1;}.cls-15{fill:#0080ff;}.cls-16{fill:#db7f2f;}.cls-17{opacity:0.5;}.cls-18{fill:#fa5;}.cls-19,.cls-21{fill:#363638;}.cls-20{fill:#a9a9a9;}.cls-21,.cls-22{opacity:0.15;}</style></defs><g class="cls-1"><g id="Layer_2" data-name="Layer 2"><g id="Option_1" data-name="Option 1"><g class="cls-2"><path class="cls-3" d="M208,142.47c39.51-34.1,4.35-53,4.35-53a40.87,40.87,0,0,1-15.65-17.71c-6.73-14.72,4.53-33.58-3.57-47.63-6-10.34-20.21-13.42-32.48-11.82S136.75,19,124.51,20.9C109.85,23.12,95,20.59,80.33,19S50.15,17,36.61,23s-24.35,20.15-21.5,34.1c1.29,6.3,5.17,12.29,4.1,18.65C17.56,85.56,5.32,90.59,1.29,99.81c-3.93,9,1.86,18.64,7.44,26.65,22.65,32.5,61.77,44.06,93.4,47.44C102.13,173.9,163.77,180.62,208,142.47Z"/></g><rect class="cls-4" x="73.83" y="95.42" width="18.87" height="2.24" rx="1.12"/><rect class="cls-4" x="73.83" y="116.65" width="18.87" height="2.24" rx="1.12"/><path class="cls-5" d="M87.49,73.83s.23,8.39,9,8.39,9-8.39,9-8.39Z"/><path class="cls-5" d="M87.49,68.27s.23,8.39,9,8.39,9-8.39,9-8.39Z"/><path class="cls-5" d="M46.29,73.83s.23,8.39,9,8.39,9-8.39,9-8.39Z"/><path class="cls-5" d="M46.29,68.27s.23,8.39,9,8.39,9-8.39,9-8.39Z"/><ellipse id="_Path_" data-name="&lt;Path&gt;" class="cls-6" cx="116.21" cy="151.34" rx="92.23" ry="5.39"/><path class="cls-7" d="M71,4.35c5.14,3,1,6.15,1.79,9.18s.7,4-.62,5.71,2.71,2.5-.25,4.08-14.54.17-12.3-10S68.13,2.69,71,4.35Z"/><path class="cls-8" d="M68.56,34.68c.51,2.35,1.09,4.7,1.68,7s1.21,4.67,1.85,7l.23.87.12.44.11.39c0,.16.11.32.17.48A5.22,5.22,0,0,0,74,52.67a5.16,5.16,0,0,0,1.71,1.07,7.33,7.33,0,0,0,2.9.43,13.6,13.6,0,0,0,2.26-.34,20.53,20.53,0,0,0,3.8-1.37,25.32,25.32,0,0,0,3.4-1.9,1.72,1.72,0,0,0-1.33-3.1l-.09,0A38.29,38.29,0,0,1,80,48.6a7.19,7.19,0,0,1-1.35-.05c-.38,0-.67-.17-.65-.22s.09,0,.21.07a1.53,1.53,0,0,1,.25.28s0,0,0,0v0h0v-.06l-.08-.45-.15-.9c-.42-2.4-.88-4.78-1.38-7.16s-1-4.74-1.66-7.1a3.43,3.43,0,0,0-6.66,1.6Z"/><path class="cls-9" d="M73.11,27.81c2.94,1.44,3.94,9,3.94,9l-8.89,5.1s-3.54-6.7-2.33-11.08C66.51,28.35,68,25.32,73.11,27.81Z"/><path class="cls-8" d="M86,47.59l2.47-1.43.35,4.3s-2.09,1.41-3.52-.21l-.19-1A1.79,1.79,0,0,1,86,47.59Z"/><path class="cls-8" d="M91.53,47.19l.31,1.54a.75.75,0,0,1-.48.89l-2.51.84-.35-4.3,1.85,0A1.31,1.31,0,0,1,91.53,47.19Z"/><polygon class="cls-8" points="56.22 146.72 60.74 146.82 61.59 136.51 57.06 136.41 56.22 146.72"/><path class="cls-7" d="M61,146.26H56a.35.35,0,0,0-.35.31l-.57,4a.72.72,0,0,0,.71.8c1.75,0,2.59-.14,4.79-.14,1.36,0,5.25.15,7.13.15s2-1.86,1.19-2c-3.5-.76-6-1.79-7.14-2.78A1.16,1.16,0,0,0,61,146.26Z"/><g class="cls-10"><polygon points="61.58 136.51 61.15 141.83 56.62 141.73 57.06 136.41 61.58 136.51"/></g><path class="cls-9" d="M50.38,27.12a4,4,0,0,1,3.9-3.59,48.82,48.82,0,0,1,17.29,3.55A4.55,4.55,0,0,1,74.33,31a22.55,22.55,0,0,1,0,2.83h0c.27,1.11,2.3,9.36-1.65,10.83l-.29.08c-.88,3.47-2.13,7.64-3.87,12.65-7.08-1.24-19.17-3.92-22.61-4.53C45.61,47.53,49.17,40.31,50.38,27.12Z"/><path class="cls-8" d="M59.31,15c.25,2.73.13,7.63-2.71,8.93,0,0,2.46,5,9.39,8.36,4.1-2.37,1.86-6.39,1.86-6.39-3.92-1.4-3.44-3.54-2.38-5.44Z"/><path class="cls-7" d="M67.77,25.87a.25.25,0,0,1,.26-.35c3.44.54,5.91,2.1,6.5,6.27a88.13,88.13,0,0,1,1.2,9,3.64,3.64,0,0,1-1.43,2.85,34.44,34.44,0,0,1-2.41,9.83,6.14,6.14,0,0,1-4.75-.09S71.37,33.27,67.77,25.87Z"/><path class="cls-7" d="M57.47,23.39c4.07,1.51,4.31,3.62,3.88,9.41a104.35,104.35,0,0,1-3.72,18.9c-8.34-1.76-12-5-12-5s2.82-17.46,3.79-20.4S54.4,22.24,57.47,23.39Z"/><path class="cls-11" d="M61.82,17.26l3.65,3.22a6.64,6.64,0,0,0-.6,1.38,3.53,3.53,0,0,1-3.52-2.65A4.54,4.54,0,0,1,61.82,17.26Z"/><path class="cls-8" d="M59.28,9.81c-.32,4.41-.55,6.28,1.36,8.82,2.87,3.83,8.36,3.26,10-1C72.1,13.85,72.38,7.27,68.33,5A6,6,0,0,0,59.28,9.81Z"/><path class="cls-7" d="M68.5,57.34S71.19,83.73,70,97.28c-1.24,14.1-7.28,43.47-7.28,43.47H55.36S55,107.75,57.14,93C54.45,77.82,52,54.46,53.37,54.69Z"/><polygon class="cls-9" points="54.84 140.96 63.23 140.96 63.75 138.71 54.51 138.43 54.84 140.96"/><path class="cls-11" d="M57.06,64.91c-1.19-2.19-2.54-2.29-3.63-1.18.6,7.6,1.86,18.12,3.26,26.62C58.83,82.87,61.12,72.37,57.06,64.91Z"/><polygon class="cls-8" points="21.81 131.66 26.09 133.73 32.16 125.19 27.88 123.12 21.81 131.66"/><path class="cls-7" d="M26.84,133.23l-3.53-3.57a.41.41,0,0,0-.49-.07l-3.58,2a.62.62,0,0,0-.14,1c1.25,1.23,1.93,1.76,3.48,3.33,1,1,3.77,4,5.44,4.88s2.81-.63,2.22-1.13c-2.68-2.23-3.07-4.31-3.1-5.76A1.06,1.06,0,0,0,26.84,133.23Z"/><g class="cls-10"><polygon points="32.16 125.19 29.03 129.59 24.75 127.52 27.87 123.12 32.16 125.19"/></g><path class="cls-7" d="M61.5,56.12S58,83.31,52,95.66c-6.31,12.84-21.3,32.93-21.3,32.93L25,126.48S32.86,103.62,41,89.9c.78-14.75.94-30.69,4.83-36.53Z"/><polygon class="cls-9" points="24.47 126.18 30.5 129.43 32.42 127.6 25.14 123.37 24.47 126.18"/><path class="cls-9" d="M26.53,133.8a.09.09,0,0,1,0-.12.12.12,0,0,1,.13,0c.22.08,2.2.79,2.34,1.36a.29.29,0,0,1-.09.3.7.7,0,0,1-.55.18,1.82,1.82,0,0,1-1-.61A6.9,6.9,0,0,1,26.53,133.8Zm.37.16c.56.8,1.11,1.3,1.5,1.34a.42.42,0,0,0,.35-.12s.06-.08,0-.12a.35.35,0,0,0-.1-.16A6.4,6.4,0,0,0,26.9,134Z"/><path class="cls-9" d="M26.51,133.76a.11.11,0,0,1,0-.09,3.41,3.41,0,0,1,1.85-.58.9.9,0,0,1,.56.31c.18.23.12.38,0,.46-.35.37-1.86.21-2.43,0l0,0Zm1.86-.47a2.85,2.85,0,0,0-1.5.44,3.21,3.21,0,0,0,2,0s.07-.08,0-.23l0,0A.59.59,0,0,0,28.37,133.29Z"/><path class="cls-7" d="M66.52,12c0,.36.1.67.33.7s.46-.23.51-.59-.1-.67-.33-.7S66.57,11.68,66.52,12Z"/><path class="cls-7" d="M70.55,12.58c0,.36.1.67.33.71s.46-.24.51-.59-.1-.67-.33-.7S70.6,12.23,70.55,12.58Z"/><path class="cls-7" d="M71,12l.89-.13S71.31,12.48,71,12Z"/><path class="cls-12" d="M68.81,12.93a9.39,9.39,0,0,0,1,2.45,1.55,1.55,0,0,1-1.3.06Z"/><path class="cls-7" d="M66.33,16.58a4,4,0,0,0,.52.11A.1.1,0,0,0,67,16.6a.1.1,0,0,0-.09-.12,2.81,2.81,0,0,1-2.15-1.41.1.1,0,0,0-.14-.05.09.09,0,0,0,0,.14A3,3,0,0,0,66.33,16.58Z"/><path class="cls-8" d="M57.56,13.41a3.5,3.5,0,0,0,1.78,2.14c1.13.54,1.93-.52,1.82-1.78s-.81-2.8-2-2.81A1.81,1.81,0,0,0,57.56,13.41Z"/><path class="cls-7" d="M71.89,5.06C71.25,7,66.67,6.36,66.2,8.3s-.32,4.29-2.79,4.36-3.28,3.64-2.94,5.39-.38,5.18-4.81,4.05-6.17-5.18-3.28-9c1.63-2.17.93-2.4.84-4.77-.08-1.94,0-4.6,2.82-5.36,2.61-.7,3.39.33,5.94-1.52C66-1.49,73.54.21,71.89,5.06Z"/><path class="cls-7" d="M65.2,10.73a.21.21,0,0,0,.23-.1,2.48,2.48,0,0,1,1.75-1,.22.22,0,0,0,.19-.23.21.21,0,0,0-.23-.19,2.86,2.86,0,0,0-2.08,1.19.2.2,0,0,0,.08.28S65.18,10.72,65.2,10.73Z"/><path class="cls-7" d="M71.84,11a.22.22,0,0,0,.21,0,.22.22,0,0,0,.06-.3,2.08,2.08,0,0,0-1.65-1,.21.21,0,0,0-.21.21.21.21,0,0,0,.21.21h0a1.68,1.68,0,0,1,1.3.8A.2.2,0,0,0,71.84,11Z"/><path class="cls-8" d="M49.11,26.59c-.7.33-1.27.63-1.88,1s-1.19.68-1.77,1c-1.16.72-2.31,1.48-3.41,2.31a32.49,32.49,0,0,0-6.22,5.89l-.18.23a3.61,3.61,0,0,0-.34.49,5.08,5.08,0,0,0-.44.87,7.44,7.44,0,0,0-.42,1.43,15.07,15.07,0,0,0-.25,2.37,30.5,30.5,0,0,0,.19,4.22,49.9,49.9,0,0,0,1.53,7.9,1.71,1.71,0,0,0,3.36-.41v0c.08-2.53.12-5.11.28-7.58.07-1.23.2-2.45.37-3.55a8.72,8.72,0,0,1,.35-1.46,2.4,2.4,0,0,1,.18-.42s0,0,0,0a.68.68,0,0,1-.06.09l.14-.13a26.75,26.75,0,0,1,2.53-2.27C44,37.83,45,37.14,46,36.46s2-1.32,3.08-2c.52-.32,1-.63,1.58-.93l1.54-.87.11-.07a3.42,3.42,0,0,0-3.18-6.05Z"/><path class="cls-9" d="M53.73,23.57c-3.88-.29-9.15,4.79-9.15,4.79L48.14,36s5.72-1.1,7.92-3.93C58.41,29.1,56.61,23.79,53.73,23.57Z"/><path class="cls-9" d="M61.32,146.88a.1.1,0,0,1-.09-.08.1.1,0,0,1,.06-.11c.2-.11,2-1,2.52-.72a.34.34,0,0,1,.18.28.57.57,0,0,1-.19.52,1.65,1.65,0,0,1-1.08.27A7.1,7.1,0,0,1,61.32,146.88Zm.35-.15a2.77,2.77,0,0,0,2-.12.39.39,0,0,0,.12-.34.12.12,0,0,0-.07-.11.37.37,0,0,0-.2,0A5.79,5.79,0,0,0,61.67,146.73Z"/><path class="cls-9" d="M61.27,146.87a.12.12,0,0,1,0-.1,3,3,0,0,1,.67-1.72.78.78,0,0,1,.58-.18c.3,0,.38.18.4.3.08.5-1,1.47-1.5,1.71h0Zm.76-1.65a2.44,2.44,0,0,0-.56,1.37c.54-.33,1.25-1.08,1.2-1.39,0,0,0-.1-.21-.12H62.4A.52.52,0,0,0,62,145.22Z"/><path class="cls-7" d="M66.92,11.46l.89-.13S67.28,11.94,66.92,11.46Z"/><path class="cls-13" d="M45.85,52.3l-.74,1.52c-.08.11,0,.26.25.3l23.09,4c.16,0,.31,0,.34-.13l.44-1.57c0-.11-.1-.23-.27-.26l-22.8-4A.31.31,0,0,0,45.85,52.3Z"/><path class="cls-7" d="M50.58,55.21l-.49-.08c-.09,0-.16-.08-.14-.14l.59-2c0-.06.11-.09.21-.08l.48.09c.1,0,.16.08.14.14l-.58,2A.19.19,0,0,1,50.58,55.21Z"/><path class="cls-7" d="M67.06,58.09,66.58,58c-.1,0-.16-.08-.15-.14l.59-2c0-.06.11-.09.21-.08l.48.09c.1,0,.16.08.15.14l-.59,2A.18.18,0,0,1,67.06,58.09Z"/><path class="cls-14" d="M62.11,57.25l-3.73-.65c-.1,0-.17-.09-.15-.15l.64-2.22c0-.07.12-.1.22-.09l3.73.66c.11,0,.18.08.16.15l-.64,2.21C62.32,57.23,62.22,57.27,62.11,57.25Z"/><path class="cls-8" d="M39,52l1.83,5.35-5.11-.08s-1.52-3,.27-4.4Z"/><path class="cls-8" d="M38.63,60.74l-.91,0a2,2,0,0,1-1.88-1.83l-.12-1.6,5.11.08L40.68,59A2,2,0,0,1,38.63,60.74Z"/><path class="cls-15" d="M146.29,46.73l-6.83,8.16A6,6,0,0,1,134.4,57l-30.34-2.24a8.57,8.57,0,0,0-9.17,7.91l-4.13,56.05a8.57,8.57,0,0,0,7.91,9.17l84.14,6.19a8.56,8.56,0,0,0,9.17-7.9L197.29,54a6,6,0,0,0-5.55-6.44l-40.4-3A6,6,0,0,0,146.29,46.73Z"/><path class="cls-16" d="M146.29,46.73l-6.83,8.16A6,6,0,0,1,134.4,57l-30.34-2.24a8.57,8.57,0,0,0-9.17,7.91l-4.13,56.05a8.57,8.57,0,0,0,7.91,9.17l84.14,6.19a8.56,8.56,0,0,0,9.17-7.9L197.29,54a6,6,0,0,0-5.55-6.44l-40.4-3A6,6,0,0,0,146.29,46.73Z"/><rect class="cls-14" x="111.04" y="48.35" width="62.72" height="96.71" rx="4.04" transform="translate(35.5 231.63) rotate(-85.79)"/><rect class="cls-13" x="94.05" y="65.3" width="95.44" height="62.72" rx="8.49" transform="translate(276.06 203.47) rotate(-175.79)"/><polygon class="cls-4" points="180.18 130.94 161.94 129.59 178.45 75.29 180.18 130.94"/><rect class="cls-13" x="96.26" y="37.59" width="62.72" height="96.71" rx="4.04" transform="matrix(0.17, -0.99, 0.99, 0.17, 21.68, 197.53)"/><rect class="cls-3" x="79.28" y="54.48" width="95.44" height="62.72" rx="8.49" transform="translate(237.98 191.57) rotate(-170.44)"/><path class="cls-17" d="M90.1,57.65l80.21,13.5c1,.16,1.85-.22,1.95-.85l.3-1.75c.1-.63-.6-1.28-1.57-1.45L90.78,53.6c-1-.16-1.85.22-2,.85l-.3,1.75C88.43,56.83,89.13,57.48,90.1,57.65Z"/><path class="cls-17" d="M89,62.22l80.33,13.52c.94.16,1.62.79,1.52,1.4l-.26,1.54c-.11.61-1,1-1.89.83L88.4,66c-.94-.15-1.62-.78-1.51-1.4L87.15,63C87.25,62.43,88.1,62.06,89,62.22Z"/><path class="cls-18" d="M81.63,126.66l92.53,6.82h0l8.65.63a8.67,8.67,0,0,1-8-9.28l2.79-37.94a5.73,5.73,0,0,0-5.29-6.14L82.54,74.14a5.73,5.73,0,0,0-6.13,5.3l-2.79,37.94A8.67,8.67,0,0,0,81.63,126.66Z"/><path class="cls-19" d="M149.49,88.51l-7.11-.36,1.68-33a13.34,13.34,0,1,0-26.64-1.35l-1.68,33-7.1-.36,1.68-33a20.45,20.45,0,0,1,40.85,2.09Z"/><rect class="cls-20" x="104.58" y="66.63" width="49.09" height="48.21" rx="7.65" transform="translate(4.78 -6.45) rotate(2.92)"/><circle class="cls-21" cx="129.45" cy="84.3" r="5.31" transform="translate(-4.85 7.97) rotate(-3.46)"/><path class="cls-21" d="M128.3,102.46h0a2.71,2.71,0,0,1-2.57-2.85L126.27,89a2.72,2.72,0,0,1,2.85-2.57h0a2.72,2.72,0,0,1,2.57,2.85l-.54,10.61A2.72,2.72,0,0,1,128.3,102.46Z"/><path class="cls-19" d="M132.73,85a3.31,3.31,0,1,0-5.26,2.52c0,.08,0,.16,0,.25l-.55,11a1.69,1.69,0,0,0,3.38.18l.56-11s0-.07,0-.1A3.33,3.33,0,0,0,132.73,85Z"/><g class="cls-22"><rect class="cls-19" x="141.39" y="79.02" width="10.18" height="4.89" transform="translate(57.67 223.61) rotate(-87.08)"/></g><g class="cls-22"><rect class="cls-19" x="140.75" y="91.58" width="10.18" height="4.89" transform="translate(44.51 234.9) rotate(-87.08)"/></g></g></g></g></svg>