<svg xmlns="http://www.w3.org/2000/svg" viewBox="0 0 18 29.02"><defs><style>.cls-1{fill:#fa5;}</style></defs><g id="Layer_2" data-name="Layer 2"><g id="Option_1" data-name="Option 1"><path class="cls-1" d="M5.49,29a.63.63,0,0,1-.19,0A.5.5,0,0,1,5,28.46L6.84,16.74.57,17.91a.49.49,0,0,1-.5-.22.5.5,0,0,1,0-.54L12.52.2A.48.48,0,0,1,13.1,0a.47.47,0,0,1,.29.51L11.64,12.93l5.77-1.3a.49.49,0,0,1,.51.21.48.48,0,0,1,0,.55l-12,16.43A.47.47,0,0,1,5.49,29ZM7.43,15.66a.47.47,0,0,1,.33.14.44.44,0,0,1,.14.42L6.28,26.64,16.36,12.86,11.16,14a.49.49,0,0,1-.43-.11.49.49,0,0,1-.15-.43L12.16,2.33,1.6,16.73l5.74-1.06Z"/></g></g></svg>