<svg xmlns="http://www.w3.org/2000/svg" viewBox="0 0 43 37.28"><defs><style>.cls-1{fill:#fa5;}</style></defs><g id="Layer_2" data-name="Layer 2"><g id="Option_1" data-name="Option 1"><path class="cls-1" d="M30.06,28.28a.71.71,0,0,0,.69,0l5.93-3a.72.72,0,0,0,.32-1,.69.69,0,0,0-.32-.31l-5.93-3a.7.7,0,0,0-1,.64v5.93A.7.7,0,0,0,30.06,28.28Zm1.09-5.38,3.62,1.81-3.62,1.82Z"/><path class="cls-1" d="M42.29,16.1H28.44V5.45s0-.06,0-.09h0a.19.19,0,0,0,0-.08v0l0-.08h0l-.05-.07h0L28.23,5h0L23,.18h0L23,.12h0l-.08,0h0a.13.13,0,0,0-.08,0h0l-.08,0H9a.69.69,0,0,0-.69.69V20.05H.71a.71.71,0,0,0-.71.71v15.8a.71.71,0,0,0,.71.72H26.39a.71.71,0,0,0,.71-.72V33.32H42.29a.71.71,0,0,0,.71-.71V16.81A.71.71,0,0,0,42.29,16.1Zm-19-13.82L26,4.82H23.25ZM9.66,1.39H21.87V5.51a.69.69,0,0,0,.69.69h4.5v9.9H22.54a.71.71,0,0,0-.71.71v3.24H9.66Zm16,20.08v8.44l-5.52-5.84a.72.72,0,0,0-.93-.07L9.06,31.92,6.63,30a.69.69,0,0,0-.86,0L1.42,33.49v-12ZM1.42,35.85v-.59l4.79-3.81,2.42,1.9a.71.71,0,0,0,.85,0l10.1-7.87,6,6.33.11.1v3.94Zm40.16-4H27.1V20.76a.71.71,0,0,0-.71-.71H23.25V17.52H41.58Z"/><path class="cls-1" d="M9.06,28.53A2.58,2.58,0,1,0,6.48,26,2.57,2.57,0,0,0,9.06,28.53Zm0-3.76A1.19,1.19,0,1,1,7.87,26,1.19,1.19,0,0,1,9.06,24.77Z"/><path class="cls-1" d="M13,6.2h2.37a.69.69,0,1,0,0-1.38H13A.69.69,0,1,0,13,6.2Z"/><path class="cls-1" d="M13,9.79h10.6a.69.69,0,1,0,0-1.38H13a.69.69,0,0,0,0,1.38Z"/><path class="cls-1" d="M13,13.15h10.6a.69.69,0,1,0,0-1.38H13a.69.69,0,0,0,0,1.38Z"/><path class="cls-1" d="M19.15,15.43H13a.69.69,0,1,0,0,1.38h6.13a.69.69,0,1,0,0-1.38Z"/></g></g></svg>