<svg xmlns="http://www.w3.org/2000/svg" viewBox="0 0 24.14 32.51"><defs><style>.cls-1{fill:#4ec0c4;}</style></defs><g id="Layer_2" data-name="Layer 2"><g id="Option_1" data-name="Option 1"><path class="cls-1" d="M21.49,12.55H20V7.88a7.89,7.89,0,0,0-15.77,0v4.67H2.65A2.66,2.66,0,0,0,0,15.21V29.85a2.66,2.66,0,0,0,2.65,2.66H21.49a2.66,2.66,0,0,0,2.65-2.66V15.21A2.66,2.66,0,0,0,21.49,12.55ZM5.31,7.88a6.76,6.76,0,1,1,13.52,0v4.67H5.31ZM23,29.85a1.54,1.54,0,0,1-1.53,1.54H2.65a1.54,1.54,0,0,1-1.53-1.54V15.21a1.53,1.53,0,0,1,1.53-1.53H21.49A1.53,1.53,0,0,1,23,15.21Z"/><path class="cls-1" d="M12.07,18.13a2.32,2.32,0,0,0-2.31,2.31,2.29,2.29,0,0,0,1.45,2.13l.3.13v3.67a.56.56,0,1,0,1.12,0V22.7l.3-.13a2.28,2.28,0,0,0,1.44-2.13A2.31,2.31,0,0,0,12.07,18.13Zm0,3.49a1.18,1.18,0,1,1,1.18-1.18A1.18,1.18,0,0,1,12.07,21.62Z"/></g></g></svg>