<svg xmlns="http://www.w3.org/2000/svg" viewBox="0 0 237.34 181.13"><defs><style>.cls-1{isolation:isolate;}.cls-2{opacity:0.25;}.cls-3{fill:#46c7ce;}.cls-4{fill:#c2c2c2;}.cls-5{fill:#fff;}.cls-6{fill:#006be1;}.cls-7{fill:#fa5;}.cls-8{fill:#75c189;}.cls-13,.cls-19,.cls-23,.cls-9{fill:none;}.cls-9{stroke:#dcdcdc;}.cls-19,.cls-9{stroke-miterlimit:10;}.cls-10{fill:#171223;}.cls-11{fill:#f97341;}.cls-12{fill:#a4614e;}.cls-13{stroke:#8a453a;stroke-width:0.42px;}.cls-13,.cls-23{stroke-linecap:round;stroke-linejoin:round;}.cls-14{fill:#1a1a1a;}.cls-15{fill:#231b22;}.cls-16{fill:#100f11;}.cls-17{fill:#925041;}.cls-18{fill:#e7ae22;}.cls-19{stroke:#fff;}.cls-20{fill:#ffd371;}.cls-21{fill:#4ec0c4;}.cls-22{fill:#f3a3a6;}.cls-23{stroke:#bf717a;stroke-width:0.42px;}.cls-24{fill:#f16854;}.cls-25{fill:#ee6432;}.cls-26{fill:#8f8f8f;}.cls-27{fill:#eaeaea;mix-blend-mode:multiply;}</style></defs><g class="cls-1"><g id="Layer_2" data-name="Layer 2"><g id="Option_1" data-name="Option 1"><g class="cls-2"><path class="cls-3" d="M218.32,143.73c40.05-34.58,4.4-53.73,4.4-53.73a41.37,41.37,0,0,1-15.86-18C200,57.12,211.45,38,203.23,23.75c-6-10.48-20.48-13.61-32.93-12s-24.19,6.81-36.6,8.7c-14.86,2.26-29.9-.31-44.79-1.9s-30.6-2-44.34,4S19.89,43,22.78,57.14c1.31,6.38,5.24,12.45,4.16,18.91C25.26,86,12.85,91.12,8.77,100.47c-4,9.13,1.88,18.9,7.54,27,23,33,62.63,44.68,94.69,48.1C111,175.59,173.51,182.4,218.32,143.73Z"/></g><rect class="cls-4" x="47.9" y="31.47" width="161.43" height="107.97" rx="4"/><rect class="cls-5" x="44.78" y="27.95" width="161.43" height="107.97" rx="4"/><path class="cls-6" d="M61.43,35a2.3,2.3,0,1,1-2.3-2.29A2.3,2.3,0,0,1,61.43,35Z"/><path class="cls-7" d="M69.06,35a2.3,2.3,0,1,1-2.3-2.29A2.3,2.3,0,0,1,69.06,35Z"/><path class="cls-8" d="M76.69,35a2.3,2.3,0,1,1-2.29-2.29A2.3,2.3,0,0,1,76.69,35Z"/><rect class="cls-9" x="56.84" y="50.78" width="63.01" height="73.6" rx="1.76"/><rect class="cls-9" x="136.01" y="50.78" width="53.7" height="22.54" rx="1.76"/><rect class="cls-9" x="66.7" y="61.21" width="43.08" height="41.24" rx="3.82"/><line class="cls-9" x1="68.06" y1="109.99" x2="108.49" y2="109.99"/><line class="cls-9" x1="68.06" y1="116.34" x2="90.83" y2="116.34"/><path class="cls-10" d="M12.91,53.22c2.57,1.35,5.52.8,6.6-1.24s-.13-4.8-2.7-6.16-5.53-.8-6.6,1.24S10.34,51.86,12.91,53.22Z"/><path class="cls-11" d="M16.47,52.93a3.21,3.21,0,1,0,2.12-4A3.2,3.2,0,0,0,16.47,52.93Z"/><path class="cls-10" d="M32.34,55.44a8.17,8.17,0,0,1-8,8.34,8.17,8.17,0,0,1-8-8.34,7.66,7.66,0,0,1,8-7.74A7.67,7.67,0,0,1,32.34,55.44Z"/><path class="cls-12" d="M24.06,74.78h0c-1.74-.09-3.49-1.18-3.4-2.91l1-11.53,6.28.34-.6,11.13A3.14,3.14,0,0,1,24.06,74.78Z"/><path class="cls-10" d="M23.26,62.74a5.59,5.59,0,0,0,4.27,5.63l.1-2.62-4.88-3"/><path class="cls-12" d="M28.35,66.36h0c-3.25,0-5.89-2.35-5.89-5.25v-9.5l5.43-.5c2,0,4.73,3.11,4.73,4.91l-.1,5.22C32.52,63.35,31.08,66.36,28.35,66.36Z"/><path class="cls-12" d="M31.9,56.81l1.53,3a.45.45,0,0,1-.41.72H30.88Z"/><path class="cls-13" d="M30.35,61.56a3.37,3.37,0,0,0,2,.32"/><path class="cls-14" d="M31.86,58a.48.48,0,0,1-.48.48A.47.47,0,0,1,30.9,58a.48.48,0,0,1,.48-.48A.49.49,0,0,1,31.86,58Z"/><path class="cls-14" d="M29.36,56.8h2.29a.45.45,0,0,0,.44-.45.44.44,0,0,0-.44-.44h-2.2a.44.44,0,0,0-.09.88Z"/><path class="cls-10" d="M32.51,55.25A5.21,5.21,0,0,1,30.86,53L30,52.44l-2.44-.76-2.45.76-.85.54s1.64,1.78.69,2.27l-1.51,3.49s-7.55-4.66-1.2-8.38A5.77,5.77,0,0,1,25,49.43a5.4,5.4,0,0,1,2.63.85s5,.3,4.88,5"/><path class="cls-10" d="M22.24,55.25H33.81a5.76,5.76,0,0,0-5.46-6.07C22.74,48.57,22.24,55.25,22.24,55.25Z"/><path class="cls-14" d="M21.48,63.23s1.27,0,1.54-2.41l-2.8-1Z"/><path class="cls-12" d="M19.7,59.19A2.2,2.2,0,1,0,22,57.09,2.2,2.2,0,0,0,19.7,59.19Z"/><polygon class="cls-12" points="9.64 153.98 6.43 150.35 20.01 140.23 23.94 144.68 9.64 153.98"/><path class="cls-15" d="M7,149.41l5.29,6,1.71,6a3.81,3.81,0,0,1-1.17,3.79h0L2.42,153.05Z"/><path class="cls-15" d="M12.51,156l.61-2.84A2,2,0,0,0,9.65,153Z"/><path class="cls-16" d="M30.21,93s6.58,24.57,7.55,29.41,2.91,14.53-1.16,18-13.7,9.12-13.7,9.12l-7.16-6.62,4.72-6.57Z"/><polygon class="cls-12" points="21.22 172.23 16.38 172.23 17.79 155.36 23.73 155.36 21.22 172.23"/><path class="cls-15" d="M16.07,171.16h8l5.61,2.67a3.81,3.81,0,0,1,2.06,3.38h0l-16-.19Z"/><path class="cls-15" d="M24.67,171.45l-1.73-2.34a2,2,0,0,0-2.46,2.44Z"/><path class="cls-15" d="M30.21,93,30.86,130a20.32,20.32,0,0,1-.31,4L26.1,158.89H14.58s2.46-17.45-.69-48.34c0,0-2.26-13.41,3.94-17.51Z"/><path class="cls-17" d="M31.59,75.55l8.5,6.19,8.52-12.49,2.87,1.58s-3.45,11.75-8,17.68a3,3,0,0,1-3.42.91,47.17,47.17,0,0,1-12.9-8.15Z"/><path class="cls-18" d="M34,77.11,28.06,87l-5.72-4.41A5.63,5.63,0,0,1,21.07,75h0a5.63,5.63,0,0,1,8.25-1.28Z"/><path class="cls-12" d="M48.61,69.25l2.87,1.58L55,66s-5.38-2.36-5.34-2.28S48.61,69.25,48.61,69.25Z"/><path class="cls-12" d="M48.61,69.25c.08-.27-.84-3.61-1-4.78a.49.49,0,0,1,.47-.56h0a.46.46,0,0,1,.45.26l1.13,2.46Z"/><path class="cls-12" d="M49.67,63.68l.69-1.14a.56.56,0,0,1,.7-.35h0a.48.48,0,0,1,.31.58L50.54,65Z"/><path class="cls-12" d="M51,64.23l1.47-1.77a.54.54,0,0,1,.72-.24h0a.48.48,0,0,1,.24.61l-1.39,2.51Z"/><path class="cls-12" d="M52.35,65.07,54,62.68a.61.61,0,0,1,.8-.19h0a.53.53,0,0,1,.18.73L53.32,66Z"/><path class="cls-12" d="M55,66l.92-1.44a.43.43,0,0,0-.13-.6h0a.5.5,0,0,0-.62.09L53.32,66Z"/><rect class="cls-3" x="42.05" y="54.23" width="44.34" height="43.77" rx="3.97"/><polyline class="cls-19" points="51.97 88.24 61.39 76.18 66.74 79.88 76.31 68.28"/><polyline class="cls-19" points="73.93 68.08 76.61 68.07 76.83 70.62"/><path class="cls-20" d="M20.14,70.35S13.88,76.17,17.83,93L30.21,93s3.54-12-.95-19.49Z"/><path class="cls-12" d="M20.14,70.35a13.4,13.4,0,0,0,9.12,3.14l-4-4.68H20.94Z"/><path class="cls-20" d="M29.26,73.49S37.78,77.33,31.51,84s-6.81-5.26-6.81-5.26Z"/><path class="cls-12" d="M29.53,78.88,36.23,87,47.59,77,50,79.25S43.72,89.77,37.79,94.37a3,3,0,0,1-3.54,0,47.15,47.15,0,0,1-10.47-11.1Z"/><path class="cls-20" d="M31.46,81l-8.18,8.08-4.45-5.69a5.64,5.64,0,0,1,.65-7.64h0a5.63,5.63,0,0,1,8.31.8Z"/><path class="cls-12" d="M47.59,77,50,79.25l4.63-3.84S50,71.78,50,71.87,47.59,77,47.59,77Z"/><path class="cls-12" d="M47.59,77c.15-.24.08-3.71.16-4.89a.5.5,0,0,1,.6-.43h0a.45.45,0,0,1,.37.37l.49,2.66Z"/><path class="cls-12" d="M50,71.87,51.19,70a.55.55,0,0,1,.76-.17h0a.48.48,0,0,1,.17.64l-1.61,2.91Z"/><path class="cls-12" d="M51.16,72.73l2.1-2.29a.56.56,0,0,1,.77-.06h0a.48.48,0,0,1,.07.65l-2.21,3Z"/><path class="cls-12" d="M52.25,73.88,54.39,72a.61.61,0,0,1,.83,0h0a.53.53,0,0,1,0,.75L53,75Z"/><path class="cls-12" d="M54.61,75.41l1.24-1.18a.43.43,0,0,0,0-.61h0a.5.5,0,0,0-.62-.06L53,75Z"/><path class="cls-21" d="M194.58,44h19.19a1.51,1.51,0,0,1,1.51,1.51v9A1.51,1.51,0,0,1,213.76,56h-20.7a0,0,0,0,1,0,0V45.54A1.51,1.51,0,0,1,194.58,44Z"/><polygon class="cls-21" points="193.07 53.55 193.05 58.86 197.58 53.56 193.07 53.55"/><path class="cls-5" d="M207.92,49.89a1,1,0,0,0,1,1,1,1,0,0,0,1-1,1,1,0,0,0-2,0Z"/><path class="cls-5" d="M203.63,49.88a1,1,0,0,0,2,0,1,1,0,0,0-1-1A1,1,0,0,0,203.63,49.88Z"/><path class="cls-5" d="M199.34,49.87a1,1,0,1,0,1-1A1,1,0,0,0,199.34,49.87Z"/><rect class="cls-7" x="84.31" width="52.8" height="14.48" rx="1.38"/><line class="cls-19" x1="89.8" y1="5.51" x2="125.54" y2="5.51"/><line class="cls-19" x1="89.8" y1="8.98" x2="101.11" y2="8.98"/><polygon class="cls-7" points="89.8 12.85 89.8 19.52 96.9 12.85 89.8 12.85"/><path class="cls-15" d="M155.67,40.52a4,4,0,0,1,4.19,3.4,3.24,3.24,0,0,1,1.71-.61,3.2,3.2,0,0,1,3.58,2.4c9.95-1.08.62,13.56.62,13.56L165,53.63l-.28-6.33a3.13,3.13,0,0,1-6,.1,4,4,0,1,1-3.06-6.88Z"/><path class="cls-22" d="M166.25,54.66,166,65.77a3.75,3.75,0,0,1-3.57,3.67h0a3.74,3.74,0,0,1-3.93-3.68l-.17-9.33Z"/><path class="cls-15" d="M165.48,57.22s0,7.3-7,6.41l-.06-3.35Z"/><path class="cls-22" d="M160,61.9h.23a6.14,6.14,0,0,0,6.15-6.14V48.82a1.59,1.59,0,0,0-1.59-1.59h-8.09a2.83,2.83,0,0,0-2.84,2.83v5.69A6.15,6.15,0,0,0,160,61.9Z"/><path class="cls-15" d="M160,53.79a.5.5,0,0,0,.54.46.51.51,0,0,0,.46-.54.5.5,0,0,0-.54-.46A.5.5,0,0,0,160,53.79Z"/><path class="cls-15" d="M155,53.79a.5.5,0,0,0,.54.46.5.5,0,0,0-.08-1A.5.5,0,0,0,155,53.79Z"/><path class="cls-23" d="M157,54.25l-.16,1.2s.09.76,1.16.46"/><path class="cls-15" d="M161.81,51.84h-.09l-2.27-.08a.47.47,0,0,1-.44-.48.46.46,0,0,1,.47-.44l2.27.08a.46.46,0,0,1,.06.92Z"/><path class="cls-15" d="M156,51.76h-.09l-1.39-.06a.46.46,0,1,1,0-.91l1.38.05a.46.46,0,0,1,.06.91Z"/><path class="cls-5" d="M156.33,57.22h3.82s-.13,1.18-2.05,1.13C156.43,58.3,156.33,57.22,156.33,57.22Z"/><path class="cls-15" d="M166.25,54.66s-3.52-.81-2.85-6.15l-8.93-.16.22-2.17,9.9.13A2.41,2.41,0,0,1,167,49Z"/><path class="cls-22" d="M165,54.48a2,2,0,1,0,2-2A2,2,0,0,0,165,54.48Z"/><polygon class="cls-22" points="169.93 171.55 176.73 171.55 175.78 162.07 168.98 162.07 169.93 171.55"/><path class="cls-15" d="M176.73,170.46h-8.62l-7.18,3a4.28,4.28,0,0,0-2.32,3.8h19.21Z"/><path class="cls-15" d="M167.41,170.78l1.94-2.63a2.29,2.29,0,0,1,2.77,2.75Z"/><path class="cls-24" d="M173.86,98.48s1.94,5.6,1.36,14.6l3.59,51.59H166l-4.15-37.87L160,98.4Z"/><rect class="cls-22" x="150.54" y="159.44" width="6.8" height="9.19" transform="translate(339.54 291.15) rotate(167.59)"/><path class="cls-15" d="M158,166.72l-8.42,1.85-6.36,4.48a4.25,4.25,0,0,0-1.45,4.21h0l18.23-4Z"/><path class="cls-15" d="M149,169l1.33-3a2.29,2.29,0,0,1,3.3,2.09Z"/><path class="cls-24" d="M150.91,99l-12.15,30.38a7.12,7.12,0,0,0-.39,4.3l8.87,29.75L160,160.77,152.4,133,169,99Z"/><path class="cls-25" d="M161.1,115.17l-.12-6.76s-5.7,10.73-7.1,21.58Z"/><path class="cls-26" d="M151.6,66.86s-5.12,2.58-4.68,20.43l6.92.43L153,68.56Z"/><path class="cls-4" d="M162.39,65.26l-10,1.29c-1.8.23-2.66,3.1-2.55,4.2L150.91,99,174,99l2.16-27.58c.29-2.23-1.07-4.89-3.11-4.94Z"/><path class="cls-22" d="M157.7,65.86l4.69-.85,5.14.82s-.44,4.28-6.91,3.53a4.63,4.63,0,0,1-2.57-1.08A1.79,1.79,0,0,1,157.7,65.86Z"/><polygon class="cls-26" points="175.09 84.42 170.02 76.37 170.02 94.06 175.09 84.42"/><rect class="cls-7" x="135.46" y="81.38" width="75.33" height="32.95" rx="3.91"/><line class="cls-19" x1="144.7" y1="90.69" x2="201.47" y2="90.69"/><line class="cls-19" x1="144.7" y1="97.07" x2="177.41" y2="97.07"/><line class="cls-19" x1="157.29" y1="104.25" x2="166.12" y2="104.25"/><line class="cls-19" x1="144.7" y1="104.25" x2="152.34" y2="104.25"/><path class="cls-4" d="M167,71.77s6.27,9.28,11.85,18.81a4.53,4.53,0,0,0,3.5,1.77h0c2.79.12,4.23-2.77,3.39-5.3,0,0-9.7-19.38-10.91-19.82C174.61,67.16,167,71.77,167,71.77Z"/><polygon class="cls-22" points="179.98 111.02 180.14 106.52 185.23 106.82 185.06 111.02 179.98 111.02"/><path class="cls-22" d="M181,109.42a4.34,4.34,0,1,1-3.34,5.16A4.33,4.33,0,0,1,181,109.42Z"/><path class="cls-4" d="M178.28,89.86l.41,17.47,8.17-.46-.63-18.14a4,4,0,0,0-5.5-3.13h0A4,4,0,0,0,178.28,89.86Z"/><ellipse id="_Path_" data-name="&lt;Path&gt;" class="cls-27" cx="46.04" cy="175.96" rx="46.04" ry="4.47"/><ellipse id="_Path_2" data-name="&lt;Path&gt;" class="cls-27" cx="176.07" cy="177.37" rx="43.93" ry="3.77"/></g></g></g></svg>