<svg xmlns="http://www.w3.org/2000/svg" xmlns:xlink="http://www.w3.org/1999/xlink" viewBox="0 0 208.23 182.27"><defs><style>.cls-1,.cls-16,.cls-37{fill:none;}.cls-2{isolation:isolate;}.cls-3{fill:#ffd371;opacity:0.3;}.cls-4{fill:#eaeaea;mix-blend-mode:multiply;}.cls-5{fill:#845940;}.cls-6{fill:#b38d6a;}.cls-7{fill:#fcb659;}.cls-8{fill:#fdd58c;}.cls-9{fill:#323340;}.cls-10{fill:#db8038;}.cls-11{fill:#5e281e;}.cls-12{fill:#fff;}.cls-13{fill:#fa5;}.cls-14{fill:#ae4434;}.cls-15{fill:#422e2d;}.cls-16{stroke:#422e2d;stroke-miterlimit:10;}.cls-17{fill:#f0e9df;}.cls-18{fill:#eeeadf;}.cls-19{fill:#a9a9a9;}.cls-20{fill:#ae4432;}.cls-21{fill:#282733;}.cls-22{fill:#e7decf;}.cls-23{fill:#bc926d;}.cls-24{fill:#9c7c52;}.cls-25{fill:#60874f;}.cls-26{fill:#f2f4f3;}.cls-27{fill:#c5503d;}.cls-28{fill:#ad4735;}.cls-29{clip-path:url(#clip-path);}.cls-30{fill:#dfa47f;}.cls-31{fill:#75c189;}.cls-32{fill:#cc8457;}.cls-33{fill:#449156;}.cls-34{fill:#a5baa9;}.cls-35{fill:#b7c2ca;}.cls-36{fill:#e2e2e2;}.cls-37{stroke:#8f8f8f;stroke-linecap:round;stroke-linejoin:round;}.cls-38{fill:#d0cdc6;}</style><clipPath id="clip-path"><circle class="cls-1" cx="167.82" cy="40.41" r="40.41"/></clipPath></defs><g class="cls-2"><g id="Layer_2" data-name="Layer 2"><g id="Option_1" data-name="Option 1"><path class="cls-3" d="M97.21,26c57.57-1.17,83.06,16.85,83.06,16.85s38,18.69,17.21,69.95c-16.57,40.8-78.16,75.15-109,61.39s-28.47-32-62.56-57.63S-.85,69.84,5,59.14C5,59.14,23,27.48,97.21,26Z"/><ellipse class="cls-4" cx="79.99" cy="176.91" rx="76.98" ry="5.36"/><rect class="cls-5" x="53.09" y="148.65" width="32.15" height="4.72"/><polygon class="cls-6" points="97.52 176.53 93.52 176.53 74.67 124 78.67 124 97.52 176.53"/><polygon class="cls-6" points="65.24 176.53 69.24 176.53 73.95 124 69.95 124 65.24 176.53"/><polygon class="cls-6" points="41.67 176.53 45.67 176.53 64.53 124 60.52 124 41.67 176.53"/><path class="cls-7" d="M47.69,86.85h30a5.42,5.42,0,0,1,5.42,5.42v32.21a0,0,0,0,1,0,0H49a3.55,3.55,0,0,1-3.55-3.55V89.08a2.23,2.23,0,0,1,2.23-2.23Z"/><path class="cls-7" d="M61.83,124.48H93.44a2.44,2.44,0,0,1,2.44,2.44V127a2.44,2.44,0,0,1-2.44,2.44H61.83a0,0,0,0,1,0,0v-5A0,0,0,0,1,61.83,124.48Z"/><path class="cls-8" d="M48.16,119.09V89A2.12,2.12,0,0,0,46,86.85h0A2.12,2.12,0,0,0,43.92,89v30.52a10,10,0,0,0,10,10h7.34A2.51,2.51,0,0,0,63.77,127h0a2.5,2.5,0,0,0-2.51-2.5H53.54A5.38,5.38,0,0,1,48.16,119.09Z"/><path class="cls-9" d="M82.18,124H65.28a11.67,11.67,0,0,1-11.12-15.23L57,100l24.79-3Z"/><polygon class="cls-10" points="84.71 64.47 91.83 89.86 84.71 89.86 77.21 77.17 84.71 64.47"/><path class="cls-11" d="M91.51,88.69l18.27,3.54-.49,1.52s-16.22,3.87-24.58-3.89Z"/><path class="cls-11" d="M109.78,92.23l7.86-.72-2.17,2a4.86,4.86,0,0,1-6.18.28h0Z"/><path class="cls-11" d="M117.64,91.51l1.43,3.21s-2.07.48-2-2.66Z"/><path class="cls-11" d="M115.91,91.93l1.29,3.39S114.81,95.59,115.91,91.93Z"/><path class="cls-11" d="M117.64,91.51l2.68,2.12s-1.81,1-2.86-1.7Z"/><rect class="cls-12" x="80.65" y="93.79" width="33.2" height="2.36"/><path class="cls-13" d="M84.71,64.47l-7.89-3.18H67.51l-11.9,3.54L61,87.44l-4.88,12.2h23L77.36,86.87l.08-.22A5.05,5.05,0,0,1,80,83.73c2.06-1,3.26-2.44,3.43-3.92a7.93,7.93,0,0,0-.14-2.23A22,22,0,0,1,84,66.72Z"/><path class="cls-10" d="M80.44,84.42a5.54,5.54,0,0,0,2.78-3.74S80.4,83.22,70.6,82.31c-11.31-1-4.26,7.3-8.29,17.33H79.13L77.36,86.87l.08-.22C77.86,85.36,79.23,85,80.44,84.42Z"/><polygon class="cls-14" points="75.39 67.52 67.51 61.29 71.69 52.84 78.76 52.84 75.39 67.52"/><polygon class="cls-11" points="77.04 60.33 73.19 55.52 78.76 52.84 77.04 60.33"/><path class="cls-15" d="M71.29,35.5A7.33,7.33,0,0,1,75.45,34c2,0,7.21,2.13,9.14,7s2.65,9,.73,14.52L76.8,52.84Z"/><path class="cls-14" d="M84.43,47.77c.39,4.39-1.06,9.77-5.45,10.16S68,53.09,67.65,48.7,66.89,37,72.84,36.49C81.49,35.72,84,43.38,84.43,47.77Z"/><path class="cls-16" d="M81,44.23a2.05,2.05,0,0,1,2.2.22"/><path class="cls-15" d="M67.1,48s10.33-.12,12.61-9.13c0,0,1.57.27,3.74,2.7,0,0-1-5.33-9.65-5.33C65,36.25,67.1,48,67.1,48Z"/><path class="cls-16" d="M79.55,38.2s1.7,7-9.32,9.36"/><path class="cls-15" d="M71.29,46.38a15.31,15.31,0,0,0,.86,10.47s-8.39,1.1-13.93-5.1c-.13-5.6,2.66-11,6.17-14.64,2.94-3,11.29-4,13.41,1.77C77.8,38.88,72,38.71,71.29,46.38Z"/><path class="cls-12" d="M81.67,51.75a34.4,34.4,0,0,1-5.08,0,4.9,4.9,0,0,0,3.83,1.7C81,53.4,81.67,51.75,81.67,51.75Z"/><ellipse class="cls-15" cx="76.59" cy="47.59" rx="0.62" ry="1.12"/><ellipse class="cls-15" cx="82.12" cy="46.9" rx="0.62" ry="1.12"/><ellipse class="cls-14" cx="68.93" cy="49.93" rx="2.55" ry="3.29" transform="translate(-13.21 27.61) rotate(-20.71)"/><rect class="cls-10" x="67.42" y="40.9" width="1.25" height="6.67"/><rect class="cls-13" x="66.59" y="40.9" width="1.25" height="6.67"/><path class="cls-10" d="M69.37,42.4V39.17a4.18,4.18,0,0,1,2-3.46c.62-.37,2.36-1.46,2.36-1.46a17.2,17.2,0,0,0-4.38.52L69,34.9a3.69,3.69,0,0,0-2.37,3.44V42.4Z"/><path class="cls-13" d="M68.54,42.4V39.17a3.67,3.67,0,0,1,2-3.27l3.19-1.65-1-.09a9.59,9.59,0,0,0-4.24.61l-.35.13a3.69,3.69,0,0,0-2.37,3.44V42.4Z"/><circle class="cls-10" cx="67.76" cy="49.1" r="3.53"/><circle class="cls-17" cx="67.07" cy="49.1" r="3.53"/><circle class="cls-13" cx="67.07" cy="49.1" r="2.21"/><circle class="cls-17" cx="67.07" cy="49.1" r="1"/><polygon class="cls-17" points="79.61 56.16 71.22 55.19 66.84 49.27 67.3 48.93 71.53 54.65 79.67 55.59 79.61 56.16"/><rect class="cls-13" x="77.36" y="54.9" width="2.8" height="1.55" rx="0.64"/><polygon class="cls-18" points="61.56 78.45 59.96 83.18 59 79.91 61.56 78.45"/><polygon class="cls-13" points="55.61 64.83 45.46 90.16 53.85 90.16 61.56 78.45 55.61 64.83"/><path class="cls-19" d="M100.35,96.15H93.07a3.64,3.64,0,0,1,7.28,0Z"/><path class="cls-20" d="M55.05,88.34l35.31,3.89-.49,1.52s-27.56,9.41-44.41-3.59Z"/><path class="cls-20" d="M90.36,92.23l7.86-.72-2.17,2a4.86,4.86,0,0,1-6.18.28h0Z"/><path class="cls-20" d="M98.22,91.51l1.43,3.21s-2.07.48-2-2.66Z"/><path class="cls-20" d="M96.48,91.93l1.3,3.39S95.39,95.59,96.48,91.93Z"/><path class="cls-20" d="M98.22,91.51l2.68,2.12s-1.81,1-2.86-1.7Z"/><path class="cls-9" d="M98.19,106H86.89l-5.58,60.39h1.75c13.11-35.09,16.88-50.88,18-57A2.87,2.87,0,0,0,98.19,106Z"/><path class="cls-21" d="M81.52,164.08S94,131.81,90.82,110c-.2-1.39-3.93-4-3.93-4Z"/><path class="cls-9" d="M87.25,106h-9.6L55.11,164.08l1.41,2.3c16.24-25,31.07-47.13,34.15-55.48A3.65,3.65,0,0,0,87.25,106Z"/><path class="cls-21" d="M74,116.07c-5.48,1.34-11.26-.56-12.39-4a5.37,5.37,0,0,1,2-6.08l-2.4-6.46L57,100l-2.79,8.73A11.67,11.67,0,0,0,65.28,124h5.38L55.11,164.08C78.43,127,74,116.07,74,116.07Z"/><polygon class="cls-10" points="56.68 100.88 81.78 100.88 81.89 105.99 55.05 105.99 56.68 100.88"/><polygon class="cls-20" points="83.06 166.38 83.06 173.57 87.56 174.06 81.68 174.06 81.31 169.66 79.23 166.94 81.52 164.08 83.06 166.38"/><path class="cls-21" d="M87.56,174.06l-.7,2.47H82.21a1.45,1.45,0,0,1-1.45-1.45v-4.85l-2.38-3.09,3.14-3.06.16,10Z"/><polygon class="cls-21" points="78.38 167.14 78.38 176.53 80.02 168.18 78.38 167.14"/><polygon class="cls-20" points="56.64 166.38 56.64 173.57 61.15 174.06 55.27 174.06 54.9 169.66 52.82 166.94 55.11 164.08 56.64 166.38"/><path class="cls-21" d="M61.15,174.06l-.7,2.47H55.8a1.45,1.45,0,0,1-1.45-1.45v-4.85L52,167.14l3.14-3.06.15,10Z"/><polygon class="cls-22" points="51.97 167.14 51.97 176.53 53.6 168.18 51.97 167.14"/><path class="cls-22" d="M32,100.88H55.09a0,0,0,0,1,0,0v68.31a7.34,7.34,0,0,1-7.34,7.34H39.31A7.34,7.34,0,0,1,32,169.19V100.88A0,0,0,0,1,32,100.88Z"/><path class="cls-23" d="M28.67,100.88H51.79a0,0,0,0,1,0,0v68.31a7.34,7.34,0,0,1-7.34,7.34H36a7.34,7.34,0,0,1-7.34-7.34V100.88A0,0,0,0,1,28.67,100.88Z"/><path class="cls-22" d="M121.55,100.88h23.13a0,0,0,0,1,0,0v68.31a7.34,7.34,0,0,1-7.34,7.34h-8.45a7.34,7.34,0,0,1-7.34-7.34V100.88A0,0,0,0,1,121.55,100.88Z"/><path class="cls-23" d="M118.25,100.88h23.13a0,0,0,0,1,0,0v68.31a7.34,7.34,0,0,1-7.34,7.34h-8.45a7.34,7.34,0,0,1-7.34-7.34V100.88A0,0,0,0,1,118.25,100.88Z"/><rect class="cls-23" x="19.11" y="96.15" width="122.66" height="7.28" rx="3.55"/><rect class="cls-24" x="72.24" y="96.15" width="87.2" height="7.28" rx="3.55"/><rect class="cls-24" x="28.67" y="103.44" width="23.13" height="4.26"/><rect class="cls-24" x="118.25" y="103.44" width="23.13" height="4.26"/><path class="cls-25" d="M24.44,124.17h.3a5.88,5.88,0,0,1,5.88,5.88v39.16a1.54,1.54,0,0,1-1.54,1.54h-9a1.54,1.54,0,0,1-1.54-1.54V130.06a5.88,5.88,0,0,1,5.88-5.88Z"/><path class="cls-25" d="M29.93,148H26a3,3,0,1,1,0-5.95h4a4,4,0,0,0,4-4v-4.16a3,3,0,1,1,5.94,0v4.16A10,10,0,0,1,29.93,148Z"/><path class="cls-25" d="M23.63,155.86H19.46a10,10,0,0,1-10-10v-4a3,3,0,0,1,6,0v4a4,4,0,0,0,4,4h4.17a3,3,0,0,1,0,6Z"/><rect class="cls-26" x="21.15" y="130.95" width="0.5" height="2.07"/><rect class="cls-26" x="27.47" y="127.84" width="0.5" height="2.07"/><rect class="cls-26" x="23.95" y="139.86" width="0.5" height="2.07"/><rect class="cls-26" x="25.71" y="133.6" width="0.5" height="2.07"/><rect class="cls-26" x="28.42" y="151.3" width="0.5" height="2.07"/><rect class="cls-26" x="35.17" y="132.87" width="0.5" height="2.07"/><rect class="cls-26" x="21.15" y="146.43" width="0.5" height="2.07"/><rect class="cls-26" x="21.67" y="155.27" width="0.5" height="2.07"/><rect class="cls-26" x="26.33" y="145.96" width="0.5" height="2.07"/><rect class="cls-26" x="11.25" y="146.38" width="0.5" height="2.07"/><rect class="cls-26" x="13.63" y="142.52" width="0.5" height="2.07"/><rect class="cls-26" x="14.72" y="148.44" width="0.5" height="2.07"/><rect class="cls-26" x="28.85" y="138.07" width="0.5" height="2.07"/><rect class="cls-26" x="36.21" y="140.9" width="0.5" height="2.07"/><path class="cls-27" d="M34.81,159.31H14.58a.9.9,0,0,0-.9,1L15.78,176a3.23,3.23,0,0,0,3.2,2.81H30.76A3.23,3.23,0,0,0,34,176l1.74-15.64A.9.9,0,0,0,34.81,159.31Z"/><polygon class="cls-28" points="34.77 168.77 35.12 165.59 14.39 165.59 14.81 168.77 34.77 168.77"/><circle class="cls-12" cx="164.55" cy="41.38" r="40.41"/><circle class="cls-26" cx="167.82" cy="40.41" r="40.41"/><g class="cls-29"><polygon class="cls-30" points="157.43 81.8 150.75 81.8 151.28 67.14 157.1 67.14 157.43 81.8"/><polygon class="cls-31" points="153.57 42.31 146.61 66.33 149 68.7 146.61 71.59 159.29 73.01 153.57 42.31"/><polygon class="cls-31" points="157.43 82.32 177.15 82.32 183.96 39.38 173.01 38.69 160.72 39.38 153.57 42.31 157.43 82.32"/><polygon class="cls-30" points="164.05 45.78 173.01 38.69 169.73 27.83 160.22 29.08 164.05 45.78"/><polygon class="cls-32" points="162.17 37.6 166.56 32.13 160.22 29.08 162.17 37.6"/><path class="cls-30" d="M153.77,23.31c-.44,5,1.2,11.11,6.2,11.55s11-5.5,11.47-10.49,2.29-13.3-4.48-13.89C157.11,9.61,154.21,18.31,153.77,23.31Z"/><path class="cls-16" d="M162.82,18.87a4,4,0,0,0,2.23,2.79"/><path class="cls-16" d="M155.26,19.18a3,3,0,0,0,2.39-.31"/><path class="cls-12" d="M156.91,27.83a37,37,0,0,0,5.77,0,5.53,5.53,0,0,1-4.35,1.94C157.73,29.72,156.91,27.83,156.91,27.83Z"/><ellipse class="cls-15" cx="162.68" cy="23.1" rx="0.7" ry="1.27"/><ellipse class="cls-15" cx="156.4" cy="22.32" rx="0.7" ry="1.27"/><path class="cls-15" d="M173,26.4c6.21-7.42,8.57-9,0-15,0,0-.83-5.64-8.2-3.82-11.36,2.8-9.27,3.82-9.64,10,0,0,6.12.79,11.07-2.1,0,0,.17,3.48,2.2,5.25l-.35,3.72Z"/><ellipse class="cls-30" cx="171.44" cy="25.77" rx="3.74" ry="2.91" transform="translate(86.7 177.01) rotate(-69.29)"/><polygon class="cls-31" points="174.79 39.38 172.51 33.63 159.8 36.59 163.39 47.42 174.79 39.38"/><polygon class="cls-33" points="160.22 37.85 167.34 37.47 160.72 39.38 160.22 37.85"/><polygon class="cls-31" points="183.96 39.38 185.57 71.16 175.57 76.4 174.79 39.38 183.96 39.38"/><rect class="cls-34" x="168.76" y="23.46" width="4.99" height="10.43" rx="1.31" transform="translate(16.29 -49.66) rotate(17.31)"/><rect class="cls-22" x="169.5" y="23.71" width="5.17" height="10.43" rx="1.31" transform="translate(16.4 -49.9) rotate(17.31)"/><circle class="cls-34" cx="172.08" cy="24.84" r="0.53"/><path class="cls-30" d="M183.56,69.8,173.94,34l-1.46.67s-1.37,27.7,4.87,38.27Z"/><path class="cls-30" d="M173.94,34l2.86-6.27s-7.53,1.78-4.32,6.94Z"/><path class="cls-30" d="M176.8,27.68l-3.35-2.93s-1.18,2,2.75,3.31Z"/><path class="cls-30" d="M172.47,30.11l1.9-1.24-2-2.47s-.71,1.28,1.1,2.58Z"/><path class="cls-30" d="M176.2,28.06l-3.54-2.8s-1,1.78,3,3Z"/><polygon class="cls-33" points="157.43 82.32 153.57 42.31 159.8 82.32 157.43 82.32"/></g><path class="cls-15" d="M158.87,22a5.24,5.24,0,0,1-.26,1.34c-.15.49-.46.88-.7,1.49a1.46,1.46,0,0,0,0,.92,1.31,1.31,0,0,0,.38.61c.31.28.58.28.6.21s-.14-.21-.28-.47a1,1,0,0,1,0-1,8.69,8.69,0,0,0,.85-1.47,4.64,4.64,0,0,0,.35-1.61c0-.94-.36-1.34-.56-1.27S158.91,21.26,158.87,22Z"/><path class="cls-19" d="M130.94,85.86H98.59a3.52,3.52,0,0,1-3.52-3.73l1.26-21a3.54,3.54,0,0,1,3.52-3.33H132.2a3.53,3.53,0,0,1,3.52,3.73l-1.26,21A3.52,3.52,0,0,1,130.94,85.86Z"/><path class="cls-35" d="M133,85.86H100.61a3.53,3.53,0,0,1-3.52-3.73l1.27-21a3.53,3.53,0,0,1,3.52-3.33h32.35a3.54,3.54,0,0,1,3.52,3.73l-1.26,21A3.53,3.53,0,0,1,133,85.86Z"/><path class="cls-19" d="M121.73,77.92H111.64l4.24,15.49a.8.8,0,0,1-.77,1h-9.85v1.77h18.1A2.57,2.57,0,0,0,125.83,93ZM121,90.63a2.29,2.29,0,1,1,2.28-2.29A2.29,2.29,0,0,1,121,90.63Z"/><path class="cls-19" d="M119.92,71.84h-5.79a2.5,2.5,0,0,0-2.49,2.49v3.59h10.77V74.33A2.5,2.5,0,0,0,119.92,71.84Z"/><path class="cls-36" d="M121.57,71.84h-5.78a2.5,2.5,0,0,0-2.49,2.49v3.59h10.77V74.33A2.5,2.5,0,0,0,121.57,71.84Z"/><path class="cls-36" d="M128.16,92.81,124.1,77.92H113.3l.61,2.23h0l3.81,14a1.63,1.63,0,0,1-1.46,2h9.33A2.68,2.68,0,0,0,128.16,92.81Zm-6.37-2.18a2.29,2.29,0,1,1,2.28-2.29A2.29,2.29,0,0,1,121.79,90.63Z"/><path class="cls-35" d="M121.57,71.84h-5.78a2.5,2.5,0,0,0-2.49,2.49v3.59h10.77V74.33A2.5,2.5,0,0,0,121.57,71.84Z"/><path class="cls-19" d="M128.16,92.81,124.1,77.92H113.3l.61,2.23h0l3.81,14a1.63,1.63,0,0,1-1.46,2h9.33A2.68,2.68,0,0,0,128.16,92.81Zm-6.37-2.18a2.29,2.29,0,1,1,2.28-2.29A2.29,2.29,0,0,1,121.79,90.63Z"/><path class="cls-37" d="M128.16,92.81,124.1,77.92h0V74.33a2.5,2.5,0,0,0-2.5-2.49h-5.78"/><path class="cls-37" d="M124.1,77.92l4.06,14.89a2.68,2.68,0,0,1-2.58,3.38"/><path class="cls-38" d="M101.4,76.53h0a.26.26,0,0,1-.24-.27l.7-12.42a.26.26,0,1,1,.51,0l-.7,12.42A.25.25,0,0,1,101.4,76.53Z"/><path class="cls-38" d="M103.05,76.53h0a.26.26,0,0,1-.24-.27l.7-12.42a.24.24,0,0,1,.26-.24.26.26,0,0,1,.24.27l-.69,12.42A.25.25,0,0,1,103.05,76.53Z"/><path class="cls-38" d="M104.71,76.53h0a.26.26,0,0,1-.24-.27l.7-12.42a.25.25,0,0,1,.27-.24.26.26,0,0,1,.24.27L105,76.29A.25.25,0,0,1,104.71,76.53Z"/><path class="cls-38" d="M106.36,76.53h0a.26.26,0,0,1-.24-.27l.7-12.42a.25.25,0,0,1,.26-.24.26.26,0,0,1,.24.27l-.69,12.42A.25.25,0,0,1,106.36,76.53Z"/><path class="cls-38" d="M108,76.53h0a.25.25,0,0,1-.23-.27l.69-12.42a.26.26,0,1,1,.51,0l-.7,12.42A.25.25,0,0,1,108,76.53Z"/><path class="cls-38" d="M127.22,76.53h0a.26.26,0,0,1-.24-.27l.7-12.42a.24.24,0,0,1,.26-.24.26.26,0,0,1,.24.27l-.69,12.42A.25.25,0,0,1,127.22,76.53Z"/><path class="cls-38" d="M128.88,76.53h0a.26.26,0,0,1-.24-.27l.7-12.42a.26.26,0,1,1,.51,0l-.7,12.42A.25.25,0,0,1,128.88,76.53Z"/><path class="cls-38" d="M130.53,76.53h0a.26.26,0,0,1-.24-.27l.7-12.42a.24.24,0,0,1,.26-.24.26.26,0,0,1,.24.27l-.69,12.42A.25.25,0,0,1,130.53,76.53Z"/><path class="cls-38" d="M132.19,76.53h0a.25.25,0,0,1-.23-.27l.69-12.42a.26.26,0,1,1,.51,0l-.7,12.42A.25.25,0,0,1,132.19,76.53Z"/><path class="cls-38" d="M133.84,76.53h0a.26.26,0,0,1-.24-.27l.7-12.42a.25.25,0,1,1,.5,0l-.69,12.42A.25.25,0,0,1,133.84,76.53Z"/><path class="cls-15" d="M79.07,46.9a3.69,3.69,0,0,0,.43,1.39,9.05,9.05,0,0,0,.88,1.15.7.7,0,0,1,0,.77c-.13.22-.28.33-.25.41s.26.09.55-.12A1.15,1.15,0,0,0,81,50a1.12,1.12,0,0,0,0-.86c-.27-.55-.59-.83-.74-1.23a3.44,3.44,0,0,1-.3-1.1c0-.62-.14-1-.37-1S79,46.05,79.07,46.9Z"/></g></g></g></svg>