<svg xmlns="http://www.w3.org/2000/svg" viewBox="0 0 45.33 35.32"><defs><style>.cls-1{fill:#46c7ce;}</style></defs><g id="Layer_2" data-name="Layer 2"><g id="Option_1" data-name="Option 1"><path class="cls-1" d="M45.33,23.53A3.56,3.56,0,0,0,43,20.18l-.35-.12v-9.4l2.18-.81a.83.83,0,0,0,0-1.55L23,.05a.86.86,0,0,0-.59,0L.54,8.3A.82.82,0,0,0,0,9.08a.83.83,0,0,0,.54.77l7.71,2.88V23a.8.8,0,0,0,.52.77,37.15,37.15,0,0,0,13.89,2.68,37.16,37.16,0,0,0,13.9-2.68.8.8,0,0,0,.52-.77V12.73L41,11.28v8.78l-.35.12a3.55,3.55,0,0,0-1.46,5.71l.32.35-.32.36a3.54,3.54,0,0,0-.9,2.36v5.53a.83.83,0,0,0,.82.83H44.5a.83.83,0,0,0,.83-.83V29a3.5,3.5,0,0,0-.91-2.36l-.31-.36.31-.35A3.5,3.5,0,0,0,45.33,23.53Zm-9.9-1.09-.35.13a35.7,35.7,0,0,1-12.42,2.24,35.68,35.68,0,0,1-12.41-2.24l-.35-.13V13.35L22.37,18A.86.86,0,0,0,23,18l12.47-4.65ZM40.82,9.56l-18,6.71-.19.07-.18-.07-18-6.71L3.18,9.07,22.66,1.71,42.14,9.07Zm2.85,24.1H39.89V29a1.89,1.89,0,0,1,3.78,0Zm-1.89-8.24a1.89,1.89,0,1,1,1.89-1.89A1.89,1.89,0,0,1,41.78,25.42Z"/></g></g></svg>