<svg xmlns="http://www.w3.org/2000/svg" viewBox="0 0 317 266.52"><defs><style>.cls-1{isolation:isolate;}.cls-15,.cls-2{fill:#75c189;}.cls-2{opacity:0.3;}.cls-3{mix-blend-mode:multiply;}.cls-4{fill:#eaeaea;}.cls-5{fill:#bb5437;}.cls-6{fill:#c35f49;}.cls-7{fill:#bba99e;}.cls-8{fill:#94867e;}.cls-9{fill:#716663;}.cls-10{fill:#13242c;}.cls-11{fill:#881f0b;}.cls-12{fill:#e3d7cf;}.cls-13{fill:#043133;}.cls-14{fill:#3f5576;}.cls-16{fill:#f0ebe6;}.cls-17{fill:#459959;}.cls-18{fill:#152216;}.cls-19{fill:#973721;}.cls-20{fill:#f6eee0;}.cls-21{fill:#384e4f;}.cls-22{fill:#00302d;}.cls-23{fill:#d24942;}.cls-24{fill:#fa5;}.cls-25{fill:#fff;}</style></defs><g class="cls-1"><g id="Layer_2" data-name="Layer 2"><g id="Option_1" data-name="Option 1"><path class="cls-2" d="M184.68,22c88.67,34.62,116.2,78.26,116.2,78.26S347.14,152.86,282.93,218c-51.09,51.83-166.87,65.34-205.28,24.82S54.39,176,18.53,115.25,7.18,27,22.8,14.36C22.8,14.36,70.43-22.57,184.68,22Z"/><g class="cls-3"><ellipse class="cls-4" cx="146.34" cy="249.69" rx="119.96" ry="10.21"/></g><path class="cls-5" d="M149.1,85.84,149,86l-.07.16-.15.34-.3.67-.62,1.36c-.43.91-.86,1.82-1.3,2.72-.88,1.79-1.79,3.57-2.73,5.3-.47.86-1,1.71-1.43,2.55s-1,1.65-1.49,2.43-1,1.54-1.5,2.24c-.25.35-.5.67-.74,1s-.48.59-.69.83l-.51.56c-.06.06-.09.09-.08.1s0,0,0,0l-.21.14a13.93,13.93,0,0,1-1.89,1,27.43,27.43,0,0,1-4.84,1.61c-1.81.44-3.77.81-5.81,1.17s-4.17.72-6.34,1.13a6.17,6.17,0,0,0,1.88,12.19h0c2-.24,4-.42,6.11-.61s4.3-.39,6.61-.72a42.7,42.7,0,0,0,7.28-1.64,29.34,29.34,0,0,0,3.83-1.56l.48-.24c.21-.13.49-.28.7-.42a13.62,13.62,0,0,0,1.19-.82,22,22,0,0,0,1.83-1.54c.53-.5,1-1,1.46-1.46s.87-1,1.28-1.42c.8-.94,1.55-1.87,2.26-2.8s1.38-1.85,2-2.77,1.3-1.85,1.92-2.77c1.24-1.85,2.42-3.7,3.58-5.56.58-.93,1.15-1.87,1.71-2.81l.85-1.42.42-.72.21-.36.23-.4.26-.46a8.52,8.52,0,0,0-3.2-11.63c-4.09-2.33-1.83-23.67-4.16-19.58C156.94,62.18,149.25,85.41,149.1,85.84Z"/><path class="cls-6" d="M141.62,109.84a.37.37,0,0,0,.26-.1.37.37,0,0,0,0-.52,14.16,14.16,0,0,0-4.27-3,.37.37,0,1,0-.28.68,13.78,13.78,0,0,1,4,2.82A.36.36,0,0,0,141.62,109.84Z"/><path class="cls-6" d="M141.19,107.56a.37.37,0,0,0,.07-.74,14,14,0,0,0-3-.21.37.37,0,0,0-.34.39.36.36,0,0,0,.4.34,14,14,0,0,1,2.79.21Z"/><path class="cls-5" d="M117.72,111.47a14,14,0,0,0-9.94,7.68c-2.12,4.78-5,14.87-2.34,14.12S115.23,121,120.22,122,117.72,111.47,117.72,111.47Z"/><path class="cls-7" d="M193.23,204.86H153.7l36.91-14.14a.4.4,0,0,0,.24-.52.41.41,0,0,0-.53-.24L153.14,204.2l28.15-28.15a.4.4,0,1,0-.57-.57l-28.27,28.26,15.19-37.22a.41.41,0,0,0-.75-.31l-15,36.72V163.54a.41.41,0,0,0-.81,0v39.53L137,166.16a.41.41,0,0,0-.53-.24.41.41,0,0,0-.23.53l14.24,37.18-28.15-28.15a.41.41,0,0,0-.58,0,.4.4,0,0,0,0,.57l27.63,27.62L113,188.86a.39.39,0,0,0-.52.22.4.4,0,0,0,.22.53l37.38,15.25H109.78a.41.41,0,1,0,0,.81h39.53l-36.92,14.14a.42.42,0,0,0-.23.53.41.41,0,0,0,.38.26.4.4,0,0,0,.15,0l37.18-14.24-28.16,28.15a.41.41,0,0,0,.58.58l27.89-27.9-14.81,36.31a.4.4,0,0,0,.22.53.4.4,0,0,0,.15,0,.41.41,0,0,0,.38-.25l15-36.71V247a.41.41,0,1,0,.81,0V207.46l14.14,36.91a.4.4,0,0,0,.38.27.32.32,0,0,0,.14,0,.41.41,0,0,0,.24-.53L152.56,206.9l28.16,28.16a.39.39,0,0,0,.29.11.38.38,0,0,0,.28-.11.41.41,0,0,0,0-.58L152.76,206,190,221.13a.41.41,0,0,0,.16,0,.39.39,0,0,0,.37-.25.4.4,0,0,0-.22-.53l-36-14.71h39a.41.41,0,0,0,0-.81Z"/><path class="cls-8" d="M151.5,251.57A46.3,46.3,0,1,1,184.25,238,46,46,0,0,1,151.5,251.57Zm0-86.75A40.45,40.45,0,1,0,192,205.27,40.49,40.49,0,0,0,151.5,164.82Z"/><circle class="cls-9" cx="151.5" cy="205.27" r="6.52" transform="translate(-100.77 167.25) rotate(-45)"/><circle class="cls-10" cx="151.5" cy="205.27" r="3.61"/><path class="cls-7" d="M152.41,207.43a2.07,2.07,0,0,1-.35,0,1.77,1.77,0,0,1-1.38-2.08L178,69.78a1.75,1.75,0,0,1,1.72-1.42h22.48a1.76,1.76,0,0,1,0,3.52h-21L154.13,206A1.76,1.76,0,0,1,152.41,207.43Z"/><path class="cls-7" d="M77.19,246.1a1.75,1.75,0,0,1-1.75-1.76V231.67a1.54,1.54,0,0,1,0-.43L92.9,161.85a1.75,1.75,0,0,1,1.71-1.33h93a1.76,1.76,0,1,1,0,3.51H96L79,231.89v12.45A1.76,1.76,0,0,1,77.19,246.1Z"/><circle class="cls-7" cx="76.81" cy="245.71" r="7.49" transform="translate(-151.25 126.28) rotate(-45)"/><path class="cls-10" d="M80.24,245.71a3.43,3.43,0,1,1-3.43-3.42A3.44,3.44,0,0,1,80.24,245.71Z"/><path class="cls-11" d="M126.54,118.12h65a2.14,2.14,0,0,1,2.36,1.79v33.25c0,1-1.06,1.78-2.36,1.78h-65c-1.3,0-2.36-.8-2.36-1.78V119.91A2.14,2.14,0,0,1,126.54,118.12Z"/><path class="cls-7" d="M197.24,119.88h-76.4a1.76,1.76,0,1,1,0-3.51h76.4a1.76,1.76,0,1,1,0,3.51Z"/><path class="cls-11" d="M206.13,70.09s10.62-.72,15.51-.2,3.15.8,2.34,8.39-12.14,60.35-12.14,60.35H192.51Z"/><polygon class="cls-5" points="104.31 182.97 100.01 195.92 89.71 193.28 92.5 178.08 104.31 182.97"/><path class="cls-12" d="M61.21,200.54l36,11.93a5.29,5.29,0,0,0,1.14-1.84c1.23-3,1.87-8.16,2.41-11.38.07-.38.13-.73.19-1.05a9.86,9.86,0,0,1,.31-1.29,1.93,1.93,0,0,0-1.53-2.8c-4.83,2.36-7.18-4.37-10.18-3.41,0,0-1.28.4-5,2s-9.14,1.71-13.85,2.07c-6.09.47-8.34,2.2-9.15,3.64A3,3,0,0,0,61.21,200.54Z"/><path class="cls-7" d="M61.21,200.54l36,11.93a5.29,5.29,0,0,0,1.14-1.84l-36.8-12.19A3,3,0,0,0,61.21,200.54Z"/><path class="cls-13" d="M93.57,211.26l1.07.35a8.29,8.29,0,0,1,0-6.41,10.71,10.71,0,0,1,6.18-5.95c.07-.38.13-.73.19-1.05a11.62,11.62,0,0,0-7.21,6.67A9.2,9.2,0,0,0,93.57,211.26Z"/><path class="cls-7" d="M84.49,195.06a.62.62,0,0,0,.53-1.12L83,192.63a.63.63,0,1,0-.67,1.06l2.06,1.3Z"/><path class="cls-7" d="M87.12,194a.66.66,0,0,0,.73-.26.64.64,0,0,0-.2-.87l-2.06-1.3a.63.63,0,0,0-.87.19.64.64,0,0,0,.2.87l2.06,1.3Z"/><path class="cls-7" d="M81.81,195.62a.62.62,0,0,0,.53-1.12l-2.07-1.31a.63.63,0,0,0-.86.2.62.62,0,0,0,.19.86l2.07,1.31A.59.59,0,0,0,81.81,195.62Z"/><path class="cls-7" d="M79.14,196.13a.61.61,0,0,0,.72-.26.62.62,0,0,0-.19-.86l-2.07-1.3a.62.62,0,1,0-.66,1L79,196.07A.42.42,0,0,0,79.14,196.13Z"/><path class="cls-7" d="M76.3,196.48a.62.62,0,0,0,.53-1.12l-2.07-1.3a.62.62,0,1,0-.66,1.05l2.06,1.31A.42.42,0,0,0,76.3,196.48Z"/><path class="cls-7" d="M73.31,196.59a.62.62,0,0,0,.53-1.12l-2.07-1.3a.62.62,0,1,0-.66,1.05l2.06,1.31A.42.42,0,0,0,73.31,196.59Z"/><path class="cls-10" d="M189.34,132s1,20.91-15.46,23.15-52.32-9-55.61-15c0,0,4.88,5.9.22,14.78-5.44,10.36-16.46,34.9-16.46,34.9l-11.56-3.32s11.64-63.23,20.18-64.92,50.43.52,50.43.52S183.43,126.75,189.34,132Z"/><path class="cls-14" d="M101.7,184.78a.59.59,0,0,0,.71-.31c4-8.38,13.21-37.53,13.3-37.82a.59.59,0,0,0-.38-.74h0a.57.57,0,0,0-.73.38c-.1.29-9.33,29.37-13.25,37.68a.59.59,0,0,0,.28.78Z"/><path class="cls-14" d="M91.8,182.19l11.49,3.57a.59.59,0,0,0,.35-1.13l-11.49-3.57a.59.59,0,0,0-.74.39A.6.6,0,0,0,91.8,182.19Z"/><polygon class="cls-5" points="119.97 187.71 115.66 200.66 105.36 198.02 108.15 182.82 119.97 187.71"/><polygon class="cls-8" points="61.17 199.86 125.57 219.14 123.69 227.08 60.42 207.15 61.17 199.86"/><path class="cls-12" d="M76.87,205.27l36,11.94a5.28,5.28,0,0,0,1.13-1.84c1.24-3,1.88-8.16,2.42-11.39.06-.37.12-.72.18-1,.11-.53.21-1,.31-1.29a1.94,1.94,0,0,0-1.53-2.81c-4.83,2.37-7.18-4.36-10.17-3.4,0,0-1.29.4-5,2s-9.14,1.71-13.86,2.07c-6.08.47-8.34,2.2-9.15,3.64A3,3,0,0,0,76.87,205.27Z"/><path class="cls-7" d="M76.87,205.27l36,11.94a5.28,5.28,0,0,0,1.13-1.84l-36.8-12.19A3,3,0,0,0,76.87,205.27Z"/><path class="cls-7" d="M109.22,216l1.07.36a8.34,8.34,0,0,1,0-6.41,10.68,10.68,0,0,1,6.18-6c.06-.37.12-.72.18-1a11.66,11.66,0,0,0-7.21,6.67A9.23,9.23,0,0,0,109.22,216Z"/><path class="cls-7" d="M100.14,199.8a.63.63,0,0,0,.54-1.13l-2.07-1.3a.62.62,0,0,0-.86.19.63.63,0,0,0,.19.87l2.07,1.3Z"/><path class="cls-7" d="M102.78,198.73a.62.62,0,0,0,.53-1.12l-2.07-1.3a.62.62,0,1,0-.67,1.05l2.07,1.31A.35.35,0,0,0,102.78,198.73Z"/><path class="cls-7" d="M97.46,200.36a.62.62,0,0,0,.53-1.12l-2.06-1.31a.63.63,0,1,0-.67,1.06l2.06,1.3Z"/><path class="cls-7" d="M94.79,200.87a.63.63,0,0,0,.73-.26.62.62,0,0,0-.2-.86l-2.06-1.31a.63.63,0,0,0-.86.2.62.62,0,0,0,.19.86l2.07,1.31Z"/><path class="cls-7" d="M92,201.22a.63.63,0,0,0,.73-.26.62.62,0,0,0-.2-.86l-2.06-1.31a.63.63,0,0,0-.86.2.62.62,0,0,0,.19.86l2.07,1.31Z"/><path class="cls-7" d="M89,201.33a.63.63,0,0,0,.73-.26.62.62,0,0,0-.2-.86l-2.06-1.31a.63.63,0,0,0-.86.2.62.62,0,0,0,.19.86l2.07,1.31Z"/><path class="cls-10" d="M205,139s1.12,22.37-15.37,24.61-51.91-7.17-55.19-13.18a47.34,47.34,0,0,1-5.11,17.55c-5.44,10.37-11,26.08-11,26.08l-11.69-3.63s5.51-59,14-60.65,56.46,5.1,56.46,5.1S199.11,133.72,205,139Z"/><path class="cls-14" d="M107.73,175.23l.09,0a.6.6,0,0,0,.67-.5c0-.12,1.6-11.38,3.81-22.8,4-20.62,6.53-23.83,7.44-24.25,6.13-2.87,40.38,2.11,40.73,2.16a.59.59,0,0,0,.17-1.16c-1.43-.21-35-5.09-41.4-2.07-.88.41-2.29,1.77-4.35,8.83-1.18,4.06-2.44,9.53-3.75,16.27-2.21,11.45-3.8,22.74-3.82,22.85A.6.6,0,0,0,107.73,175.23Z"/><path class="cls-14" d="M107.73,187.62l11.13,3.46a.59.59,0,0,0,.74-.39.6.6,0,0,0-.39-.74l-11.13-3.45a.59.59,0,0,0-.74.38A.6.6,0,0,0,107.73,187.62Z"/><path class="cls-14" d="M116.68,190.4a.59.59,0,0,0,.72-.34c.08-.2,8-20,10.94-26.25a57.21,57.21,0,0,0,4.79-17.66c12.37,9.23,51.36,21.62,60.84,15.75,4-2.45,6.73-7.12,8-13.48a38.91,38.91,0,0,0,.75-8.9.59.59,0,0,0-.62-.56.61.61,0,0,0-.56.62c0,.16.74,15.78-8.19,21.32-4,2.5-15,1.53-29.29-2.59-13.2-3.81-25.68-9.33-31.05-13.74a.57.57,0,0,0-.61-.09.6.6,0,0,0-.35.51,55.91,55.91,0,0,1-4.77,18.32c-3,6.29-10.89,26.11-11,26.31a.6.6,0,0,0,.33.77Z"/><path class="cls-7" d="M131.21,238.52l4.73,1.38a1.66,1.66,0,0,0,.49.07,1.77,1.77,0,0,0,1.71-1.32l19.31-75.94a1.76,1.76,0,0,0-3.41-.87L135.17,236l-2.92-.85Z"/><path class="cls-15" d="M162.76,131.25c13,.37,30.31-1.95,53.56-8a143.72,143.72,0,0,1-4-26.49,65.24,65.24,0,0,1,0-7.22c0-1,.1-2,.17-3s.15-2,.25-3.1.21-2,.33-3c.08-.65.16-1.31.25-2,0-.39.1-.78.16-1.17l0-.2c0-.3.09-.6.13-.89.11-.66.21-1.32.32-2,.26-1.55.56-3.09.88-4.6,2-9.38.34-19.12-10.1-20l-2.23-.17c-4.92-.34-9-.39-10.09-.4H192L172,54.91l-1.92.56c-2.78.89-5,1.7-6.85,2.48a23.14,23.14,0,0,0-3.88,2c-4.37,3-3.64,6.16-3.43,12.51,0,.1,0,.21,0,.32a.37.37,0,0,0,0,.11c0,1.08,0,2.16,0,3.23s-.15,2.4-.28,3.57c-.26,2.46-.62,4.83-.9,7-.14,1.06-.26,2.08-.34,3a25.31,25.31,0,0,0-.11,3.07,9.34,9.34,0,0,0,.48,2.86,5.1,5.1,0,0,0,.39.85,13.08,13.08,0,0,0,1.31,1.84,20.18,20.18,0,0,0,2.44,2.45,28.88,28.88,0,0,0,3.68,2.68l.51.31v.06c0,.15,0,.32,0,.49.07.66.13,1.45.18,2.34C163.3,107.12,167.76,114.71,162.76,131.25Z"/><path class="cls-16" d="M178,65.39l-.58.09A5.28,5.28,0,0,1,173,64.2c-3.18-3-2-10.12-1.95-10.42a.48.48,0,0,1,.55-.37.43.43,0,0,1,.4.49c0,.07-1.15,7,1.7,9.69a4.27,4.27,0,0,0,3.56,1c6.3-.63,13.14-15.34,13.21-15.49a.51.51,0,0,1,.63-.24.42.42,0,0,1,.26.57C191.11,50.06,184.62,64,178,65.39Z"/><path class="cls-17" d="M193.29,100.13a.48.48,0,0,1-.36.3.65.65,0,0,1-.24,0A30.65,30.65,0,0,0,175,101.74a33,33,0,0,1-11.92,2.65c0-.17,0-.34,0-.49v-.06l-.51-.31A31.52,31.52,0,0,0,174.64,101,31.12,31.12,0,0,1,193,99.58.43.43,0,0,1,193.29,100.13Z"/><path class="cls-17" d="M172.43,79c-6,1.27-8.68-4.28-8.71-4.34a.43.43,0,0,1,.26-.58.5.5,0,0,1,.63.23c.1.2,2.43,4.94,7.62,3.84C177.67,77,187.71,67,187.81,66.9a.52.52,0,0,1,.68,0,.41.41,0,0,1,0,.62C188.1,67.9,178.18,77.81,172.43,79Z"/><path class="cls-18" d="M174.3,49.65s-4.21,3.66-7.47-.63c0,0-6,.49-5.64-5.19,0,0-4.38-1.71-1.34-9.26,0,0-4.41-2.08-1.48-8.75,0,0-2.78-4.23-.83-8.69a7,7,0,0,1,7.66-4.24s.18-3.62,5.57-5.05c5.17-1.37,5.75,2,5.75,2s4.17-3.69,8.28-2.2S189.55,12,189.55,12a7.36,7.36,0,0,1,7.26,2.28,8.27,8.27,0,0,1,1.95,7.33s3.24.88,3.22,5.53-1.83,5.4-1.83,5.4,3.56,5.75-2.16,8.62c0,0-4,6.16-10.86,5S174.3,49.65,174.3,49.65Z"/><path class="cls-5" d="M172.7,58.08c5.27,8.76,15.2-3,15.4-5.56a29.29,29.29,0,0,1-1.55-12l-14.4,5.84c.06.43.11.86.17,1.28a59.6,59.6,0,0,1,.54,6.15C172.88,54.86,172.79,57,172.7,58.08Z"/><path class="cls-18" d="M172.86,53.84c7.6-2,12.25-10.15,12.25-10.15l-12.79,4A59.6,59.6,0,0,1,172.86,53.84Z"/><path class="cls-19" d="M168.5,35.7s-1.27-3.55-4.17-2.63-2.65,10.67,2.91,10.16Z"/><path class="cls-20" d="M166.32,50.2a4.87,4.87,0,1,1,5.29-4.41A4.88,4.88,0,0,1,166.32,50.2Zm.82-9a4.14,4.14,0,1,0,3.75,4.5A4.15,4.15,0,0,0,167.14,41.23Z"/><path class="cls-5" d="M186.79,41.73c-1.41,3.93-11.4,8.73-15.6,6.91-2.55-1.11-4.84-3.4-6.21-8.56l0-.08c-.08-.31-.16-.61-.23-.9-.12-.54-.23-1.07-.32-1.57,0-.12,0-.23-.07-.35-.05-.31-.09-.61-.13-.91s-.07-.7-.09-1c-.28-5.2-.7-11,4-14.4s12.06-4.42,16.42.15c0,0,3.25,4,3.29,11.52S187.81,38.89,186.79,41.73Z"/><path class="cls-18" d="M167.29,34.1c.08.73.49,1.28.9,1.23s.69-.67.61-1.4-.48-1.28-.9-1.23S167.21,33.37,167.29,34.1Z"/><path class="cls-18" d="M174.1,33.2c.08.73.49,1.28.9,1.23s.69-.67.61-1.4-.48-1.28-.9-1.23S174,32.47,174.1,33.2Z"/><path class="cls-18" d="M180.51,20.16s2.58,8.09,5,9.68,4.33-2.41,4.33-2.41S184.84,15.06,180.51,20.16Z"/><path class="cls-18" d="M170.39,20.57s4.69,6.64,10.51,5,1.83-6.45,1.83-6.45S171.82,14.8,170.39,20.57Z"/><path class="cls-18" d="M172,20s-2.8,8.72-8.53,7.29,2.22-10.09,6-9.78S172,20,172,20Z"/><path class="cls-19" d="M165,40c-.08-.31-.16-.61-.23-.9-.12-.54-.23-1.07-.32-1.57,0-.12,0-.23-.07-.35l.27,0c1.95-.12,3.58.42,3.62,1.21S166.83,39.85,165,40Z"/><path class="cls-19" d="M183.33,36.35c0,.79-1.5,1.53-3.45,1.65s-3.58-.42-3.63-1.21,1.49-1.52,3.45-1.64S183.28,35.57,183.33,36.35Z"/><path class="cls-18" d="M174.67,27.14a4,4,0,0,1,3.68.71c.92.79.25,1.76-1,1.14a4.38,4.38,0,0,0-2.36-.61A.65.65,0,0,1,174.67,27.14Z"/><path class="cls-18" d="M168.82,28.28a4,4,0,0,0-3.63.89c-.88.83-.17,1.77,1,1.09a4.31,4.31,0,0,1,2.33-.73A.64.64,0,0,0,168.82,28.28Z"/><path class="cls-5" d="M185.89,31.64s1.61-3.09,4.73-1.88,2.21,11.91-3.87,11Z"/><path class="cls-18" d="M184.18,27.41s-1.39,9.43.74,8.52,2.68-6.57,2.68-6.57Z"/><path class="cls-20" d="M191.11,38.64c-.17.21-.27.42-.43.63a4.12,4.12,0,1,1-2.64.24c.89-.29,1-.66,1-1a4.9,4.9,0,1,0,2,.17Z"/><path class="cls-18" d="M187.37,36.56a.29.29,0,0,0,.22.34h.07a.3.3,0,0,0,.28-.23,5.61,5.61,0,0,1,.91-2c.61.5,1.11,1,1.11,1a.32.32,0,0,0,.21.08.28.28,0,0,0,.2-.09.29.29,0,0,0,0-.41s-.51-.49-1.14-1a3.42,3.42,0,0,1,1.76-1,.29.29,0,0,0,.21-.35.28.28,0,0,0-.35-.21C188.09,33.3,187.4,36.43,187.37,36.56Z"/><path class="cls-20" d="M177.29,38.33s-.4,4.08-3.42,5.34c-3.43,1.43-5.14-2.88-5.14-2.88Z"/><path class="cls-19" d="M172.85,45.3l-.23,0a.3.3,0,1,1,.12-.58,1.91,1.91,0,0,0,1.77-.67c.16-.2.53-.14.56.25A2.44,2.44,0,0,1,172.85,45.3Z"/><path class="cls-18" d="M171.88,37.89a2.61,2.61,0,0,0,.73,0l0,0c.29-.36,0-.71-.28-.68a2.18,2.18,0,0,1-1.65-.52c1.13-1.56,1.71-5.42,1.74-5.6a.36.36,0,0,0-.72-.1c-.18,1.2-.85,4.52-1.77,5.47a.35.35,0,0,0,0,.48A3,3,0,0,0,171.88,37.89Z"/><path class="cls-21" d="M111.9,127.18l60.36,1.75a.23.23,0,0,0,.25-.23h0a3.4,3.4,0,0,0-3.29-3.5L112,123.54a.25.25,0,0,0-.25.24l-.09,3.15A.25.25,0,0,0,111.9,127.18Z"/><path class="cls-22" d="M92.71,93.24l6.61,32.08a1.9,1.9,0,0,0,1.79,1.51l46.42,1.34a1.87,1.87,0,0,0,1.89-2.26l-6.6-32.08A1.9,1.9,0,0,0,141,92.32L94.61,91A1.88,1.88,0,0,0,92.71,93.24Z"/><path class="cls-21" d="M124.11,109.94c-.14,2.85-5.09,6.29-5.09,6.29s-5.53-3.74-6.13-6.62c-.65-3.12,2.92-4,5.47-1.56C120.54,105.78,124.27,106.84,124.11,109.94Z"/><path class="cls-21" d="M139.19,92.27l7,35.86,1.36,0a1.87,1.87,0,0,0,1.89-2.26l-6.6-32.08A1.9,1.9,0,0,0,141,92.32Z"/><path class="cls-23" d="M223.4,125.81v35.42a2.18,2.18,0,0,1-2.37,1.91H156a2.18,2.18,0,0,1-2.36-1.91V125.81a1.66,1.66,0,0,1,.51-1.18,2.59,2.59,0,0,1,1.85-.72h65a2.24,2.24,0,0,1,2.35,1.69A1.49,1.49,0,0,1,223.4,125.81Z"/><path class="cls-7" d="M118.63,249.15a1.75,1.75,0,0,1-1.76-1.75V236.92a2.1,2.1,0,0,1,0-.43l18.73-74.64a1.75,1.75,0,0,1,1.71-1.33h93a1.76,1.76,0,1,1,0,3.51H138.73l-18.34,73.11V247.4A1.75,1.75,0,0,1,118.63,249.15Z"/><circle class="cls-7" cx="118.63" cy="246.78" r="7.49" transform="translate(-143.97 324.34) rotate(-80.78)"/><path class="cls-10" d="M122.05,246.78a3.43,3.43,0,1,1-3.42-3.43A3.43,3.43,0,0,1,122.05,246.78Z"/><path class="cls-7" d="M239.4,204.86H199.87l36.92-14.14a.4.4,0,0,0,.23-.52.4.4,0,0,0-.52-.24L199.31,204.2l28.16-28.15a.4.4,0,1,0-.57-.57l-28.27,28.26,15.19-37.22a.41.41,0,0,0-.23-.53.4.4,0,0,0-.53.22l-15,36.72V163.54a.41.41,0,0,0-.82,0v39.53l-14.14-36.91a.4.4,0,0,0-.52-.24.41.41,0,0,0-.23.53l14.24,37.18-28.16-28.15a.4.4,0,0,0-.57.57l27.62,27.62L159.2,188.86a.4.4,0,0,0-.53.22.41.41,0,0,0,.22.53l37.38,15.25H156a.41.41,0,1,0,0,.81h39.52l-36.91,14.14a.41.41,0,0,0-.23.53.4.4,0,0,0,.38.26l.14,0L196,206.33l-28.15,28.15a.41.41,0,0,0,0,.58.39.39,0,0,0,.29.11.38.38,0,0,0,.28-.11l27.9-27.9-14.82,36.31a.41.41,0,0,0,.23.53.4.4,0,0,0,.15,0,.39.39,0,0,0,.37-.25l15-36.71V247a.41.41,0,0,0,.82,0V207.46l14.13,36.91a.42.42,0,0,0,.38.27l.15,0a.41.41,0,0,0,.23-.53L198.74,206.9l28.16,28.16a.38.38,0,0,0,.28.11.39.39,0,0,0,.29-.11.41.41,0,0,0,0-.58L198.93,206l37.23,15.18a.4.4,0,0,0,.15,0,.41.41,0,0,0,.16-.78l-36.06-14.71h39a.41.41,0,1,0,0-.81Z"/><path class="cls-9" d="M197.68,251.57A46.31,46.31,0,1,1,230.42,238,46,46,0,0,1,197.68,251.57Zm0-86.75a40.45,40.45,0,1,0,40.44,40.45A40.49,40.49,0,0,0,197.68,164.82Z"/><circle class="cls-9" cx="197.68" cy="205.27" r="6.52" transform="translate(-86.77 222.58) rotate(-49.56)"/><circle class="cls-10" cx="197.68" cy="205.27" r="3.61"/><path class="cls-7" d="M197.68,207.43l-.35,0a1.76,1.76,0,0,1-1.37-2.08L223.23,69.78A1.75,1.75,0,0,1,225,68.36h22.48a1.76,1.76,0,0,1,0,3.52h-21L199.4,206A1.75,1.75,0,0,1,197.68,207.43Z"/><rect class="cls-10" x="234.39" y="66.55" width="19.71" height="7.14" rx="0.95"/><path class="cls-5" d="M190.69,151.74c-2-.56,2.08-8.52,2.08-8.52l-2.12,1.14s-1.45-5.5,1.87-7.72a44.11,44.11,0,0,0,7-6.41c4.06-1.51,9.19,3.85,9.19,3.85l-2.63,7.8s-1.49,5.54-2.57,6.27a1.51,1.51,0,0,1-2-.39,4,4,0,0,1-2.27,1.61,1.56,1.56,0,0,1-1.87-.87s-1,1.65-2.05,2a1.52,1.52,0,0,1-1.73-.56A2.22,2.22,0,0,1,190.69,151.74Z"/><path class="cls-11" d="M223.4,125.81v5.65l-69.72-3.4v-2.25a1.66,1.66,0,0,1,.51-1.18l69.19,1A1.49,1.49,0,0,1,223.4,125.81Z"/><path class="cls-7" d="M225.87,126.82h-76.4a1.76,1.76,0,1,1,0-3.52h76.4a1.76,1.76,0,0,1,0,3.52Z"/><path class="cls-5" d="M214.71,132.12c1.39-1.05,2.77-2.13,4.12-3.25s2.67-2.27,4-3.47,2.57-2.44,3.81-3.71,2.46-2.62,3.63-4c.59-.69,1.16-1.4,1.74-2.12l.84-1.11c.28-.37.55-.75.82-1.13s.54-.77.81-1.16l.4-.58.38-.61c.26-.4.52-.8.77-1.22l.37-.62.19-.31.09-.16c.09-.17.19-.37.28-.56a9.91,9.91,0,0,0,.75-2.25,11.33,11.33,0,0,0,.24-2,13.44,13.44,0,0,0-.25-3.09,18.43,18.43,0,0,0-.59-2.31c-.22-.68-.45-1.3-.69-1.88a34.43,34.43,0,0,0-1.5-3.15c-.51-1-1-1.86-1.56-2.73-1.07-1.73-2.17-3.33-3.28-4.88s-2.25-3-3.4-4.49S214.31,55.6,213.13,54.21l-9.07,24.2c1.12,1.24,9.11,12,10.18,13.25s2.11,2.5,3.09,3.76,1.92,2.51,2.75,3.72c.42.6.81,1.19,1.15,1.76a16.16,16.16,0,0,1,.86,1.53c.11.22.2.41.26.55s.09.23.1.21,0-.16,0-.51a3.82,3.82,0,0,1,.1-.72,4.78,4.78,0,0,1,.36-1c.05-.1.1-.2.15-.28l-.06.12-.12.24-.24.47c-.16.32-.34.63-.51,1l-.26.47-.28.48c-.18.31-.36.63-.56.94l-19.21,23.82c-3.36,2.7-3.8,4.92-2.2,7.35,1.82,2.76,8.07,1.42,10.69-.3l.6-.39.56-.38"/><path class="cls-24" d="M76,54.33h32.83a1.51,1.51,0,0,1,1.51,1.51V71.38a1.51,1.51,0,0,1-1.51,1.51H77.55A1.51,1.51,0,0,1,76,71.38V54.33a0,0,0,0,1,0,0Z" transform="translate(186.41 127.22) rotate(-180)"/><polygon class="cls-24" points="110.38 69.05 110.4 77.26 103.39 69.08 110.38 69.05"/><path class="cls-25" d="M87.42,63.4a1.55,1.55,0,1,1-1.55-1.54A1.55,1.55,0,0,1,87.42,63.4Z"/><path class="cls-25" d="M94.05,63.38a1.55,1.55,0,0,1-3.09,0,1.55,1.55,0,1,1,3.09,0Z"/><path class="cls-25" d="M100.68,63.36a1.55,1.55,0,0,1-3.09,0,1.55,1.55,0,0,1,3.09,0Z"/></g></g></g></svg>