<svg xmlns="http://www.w3.org/2000/svg" viewBox="0 0 234.29 157.66"><defs><style>.cls-1,.cls-5{fill:#ffd371;}.cls-1{opacity:0.3;}.cls-2{fill:#dcdcdc;}.cls-3{fill:#fa5;}.cls-4{fill:#fff;}.cls-6{fill:#1b2e35;}.cls-7{fill:#dfa47f;}.cls-8{fill:#ffc4bf;}.cls-9{fill:#cc8457;}.cls-10{fill:#222221;}</style></defs><g id="Layer_2" data-name="Layer 2"><g id="Option_1" data-name="Option 1"><path class="cls-1" d="M101.84,157.62C41.14,159.51-21.59,94.22,7.22,54.27c22.34-31,60.18-16.73,87.71-32C145.57-5.78,217.13-11.23,231,28.75s-19.64,87.84-39,104.69C164.81,157.19,101.84,157.62,101.84,157.62Z"/><path class="cls-2" d="M214.77,131.64H28.41a6,6,0,0,1-6-6.42l5.22-89a6.92,6.92,0,0,1,6.8-6.42H220.74a6,6,0,0,1,6,6.42l-5.22,89A6.91,6.91,0,0,1,214.77,131.64Z"/><path class="cls-3" d="M209.77,125.64H23.41a6,6,0,0,1-6-6.42l5.22-89a6.92,6.92,0,0,1,6.8-6.42H215.74a6,6,0,0,1,6,6.42l-5.22,89A6.91,6.91,0,0,1,209.77,125.64Z"/><path class="cls-4" d="M196.09,58.41H129.34a9,9,0,0,1-9.1-9.66h0a10.41,10.41,0,0,1,10.23-9.67h66.75a9,9,0,0,1,9.1,9.67h0A10.41,10.41,0,0,1,196.09,58.41Z"/><path class="cls-4" d="M194.57,84.38H127.81a9,9,0,0,1-9.1-9.66h0A10.43,10.43,0,0,1,129,65.05H195.7a9,9,0,0,1,9.1,9.67h0A10.42,10.42,0,0,1,194.57,84.38Z"/><path class="cls-4" d="M193,110.36H126.29a9,9,0,0,1-9.1-9.67h0A10.42,10.42,0,0,1,127.42,91h66.76a9,9,0,0,1,9.1,9.67h0A10.42,10.42,0,0,1,193,110.36Z"/><ellipse class="cls-5" cx="131.15" cy="48.75" rx="5.13" ry="4.83" transform="translate(3.1 105.15) rotate(-44.16)"/><path class="cls-5" d="M130.56,70l.66,2.48a.65.65,0,0,0,.63.47h2.61a.67.67,0,0,1,.33,1.25l-2.2,1.54a.71.71,0,0,0-.29.77L133,79a.72.72,0,0,1-1.11.77l-2-1.53a.67.67,0,0,0-.81,0l-2.2,1.53a.66.66,0,0,1-1-.77l1-2.48a.65.65,0,0,0-.2-.77l-2-1.54A.71.71,0,0,1,125,73h2.6a.75.75,0,0,0,.69-.47l.95-2.48A.69.69,0,0,1,130.56,70Z"/><path class="cls-5" d="M132.4,98.06l-.41,7a1.16,1.16,0,0,1-1.15,1.08h-6.1a1,1,0,0,1-1-1.08l.51-8.68a1.17,1.17,0,0,1,1.15-1.09h4.38Z"/><path class="cls-4" d="M129.76,95.26l2.64,2.8h-1.72a1,1,0,0,1-1-1.08l.1-1.72m-.69-1.92L129,95.22l-.1,1.71a1.78,1.78,0,0,0,.49,1.37,1.81,1.81,0,0,0,1.33.57h3.59L133,97.51l-2.63-2.8-1.28-1.37Z"/><path class="cls-2" d="M193.84,47.72H143.9a1.46,1.46,0,0,1-1.48-1.57h0a1.69,1.69,0,0,1,1.66-1.57H194a1.46,1.46,0,0,1,1.48,1.57h0A1.69,1.69,0,0,1,193.84,47.72Z"/><path class="cls-2" d="M184.38,52.92H143.59a1.48,1.48,0,0,1-1.48-1.58h0a1.7,1.7,0,0,1,1.67-1.57h40.78a1.48,1.48,0,0,1,1.49,1.57h0A1.71,1.71,0,0,1,184.38,52.92Z"/><path class="cls-2" d="M192.2,75.74H178.42a1.71,1.71,0,0,0-1.67,1.57h0a1.48,1.48,0,0,0,1.49,1.58H192a1.7,1.7,0,0,0,1.66-1.58h0A1.47,1.47,0,0,0,192.2,75.74Z"/><path class="cls-2" d="M170.37,75.74H142.26a1.7,1.7,0,0,0-1.67,1.57h0a1.47,1.47,0,0,0,1.48,1.58h28.11a1.7,1.7,0,0,0,1.67-1.58h0A1.47,1.47,0,0,0,170.37,75.74Z"/><path class="cls-2" d="M183.34,70.55H142.56a1.69,1.69,0,0,0-1.67,1.57h0a1.48,1.48,0,0,0,1.49,1.58h40.78a1.7,1.7,0,0,0,1.67-1.58h0A1.47,1.47,0,0,0,183.34,70.55Z"/><rect class="cls-2" x="139.07" y="101.71" width="53.1" height="3.15" rx="1.57"/><path class="cls-2" d="M181.82,96.52H141a1.7,1.7,0,0,0-1.67,1.57h0a1.48,1.48,0,0,0,1.48,1.58h40.79a1.7,1.7,0,0,0,1.66-1.58h0A1.47,1.47,0,0,0,181.82,96.52Z"/><ellipse class="cls-4" cx="70.66" cy="74.61" rx="37.85" ry="35.69" transform="translate(-32.01 70.31) rotate(-44.16)"/><ellipse class="cls-5" cx="70.66" cy="74.61" rx="32.98" ry="31.1" transform="translate(-32.01 70.31) rotate(-44.16)"/><path class="cls-6" d="M67.1,79h0c1.54-.33,2.26-1.65,2.59-3.15,0-.16.06-.31.08-.47l0-.14A15.29,15.29,0,0,0,70,73.3a6.11,6.11,0,0,1-5.51-6,18.11,18.11,0,0,1,1.87-8.56,2,2,0,0,0-.94.39.22.22,0,0,1-.19,0A.24.24,0,0,1,65,59.1a.24.24,0,0,1,0-.34,2.43,2.43,0,0,1,1.51-.5c.1-.17.2-.35.31-.51h-1.3c.46-3.23,6.68-6,10.92-3.47,1.89.38,5,3.08,5,3.08a39.34,39.34,0,0,1-.15,5.16h0c-.27,2.92-1,6.36-2.65,8.28a6,6,0,0,0,.44-3.11,3.14,3.14,0,0,1-1.45.82A8.24,8.24,0,0,1,77,69.75c-.66,3-1.12,7-.12,9.3.9.06,1.78.14,2.61.23l.2,0a13.91,13.91,0,0,0,1.59-1.08c6.29-4.9-.39-10.64,1.18-15.92s.25-7.27-4.06-7.44c1.79-2.84-9.55-7.4-14.54,1.45-4.51,8-6,12-4.34,18.28a8.19,8.19,0,0,0,3.86,4.82,7.41,7.41,0,0,1,1-.19C65.27,79.12,66.19,79,67.1,79Z"/><path class="cls-7" d="M57.31,91.27a14.94,14.94,0,0,1-.73-1.39c-.47,1.41-.94,2.83-1.41,4.22s-.84,2.52-1.28,3.72l-.64,1.7-.29.68c-.09.19,0,.08,0,.13a7.7,7.7,0,0,1-1,1l-.26.21a30.13,30.13,0,0,0,6.21,3.2,28.33,28.33,0,0,1,.86-7.41C56.3,95.53,56.68,93.63,57.31,91.27Z"/><path class="cls-6" d="M59.76,81.83l-.18.25.19-.24Z"/><path class="cls-6" d="M58.14,86.52a7.54,7.54,0,0,1,1.34-4.31,33.82,33.82,0,0,0-3.29,6.72s.13.37.39.95a14.94,14.94,0,0,0,.73,1.39A17.6,17.6,0,0,0,58.14,86.52Z"/><path class="cls-6" d="M82.54,96.68a29.18,29.18,0,0,1-2.2-3.83l-.65.32c-2.1-2.22-3.89-4-3.89-4-2.62-5.46-1-8.57,4-9.83a6.34,6.34,0,0,1,2.17.87,5.34,5.34,0,0,0-2.2-.88l-.2,0c-.83-.09-1.71-.17-2.61-.23.19.51-4.3,7-7.12,8A5.32,5.32,0,0,0,65.4,84s-3-.62-4,1.28c.62-3.93,4.4-6,5.66-6.3-.91.08-1.83.17-2.72.29a7.41,7.41,0,0,0-1,.19,7,7,0,0,0-3.65,2.41l-.19.24a1.47,1.47,0,0,0-.1.13,7.54,7.54,0,0,0-1.34,4.31,17.6,17.6,0,0,1-.83,4.75c-.63,2.36-1,4.26,1.46,6a28.33,28.33,0,0,0-.86,7.41,31,31,0,0,0,10.87,1.94,33,33,0,0,0,13.76-3,74,74,0,0,1,.06-7.82h0Z"/><path class="cls-4" d="M65.4,84a5.32,5.32,0,0,1,4.4,3.11c2.82-1.06,7.31-7.52,7.12-8C76.92,79.05,70.54,82.15,65.4,84Z"/><path class="cls-4" d="M67.12,78.94h0c-1.26.3-5,2.37-5.66,6.3.94-1.9,4-1.28,4-1.28C64.43,80.29,67.12,78.94,67.12,78.94Z"/><path class="cls-8" d="M69.79,75.32l0-.14Z"/><path class="cls-7" d="M77,69.75A8.59,8.59,0,0,1,74.78,72a8.43,8.43,0,0,1-1.19.68,8.18,8.18,0,0,1-3.91,3.24l0-.12c-.33,1.5-1,2.82-2.59,3.15,0,0-2.69,1.35-1.72,5,5.14-1.82,11.52-4.92,11.52-4.92C75.92,76.75,76.38,72.75,77,69.75Z"/><path class="cls-6" d="M69.71,75.79c0-.16.06-.31.08-.47C69.77,75.48,69.74,75.63,69.71,75.79Z"/><path d="M69.71,75.79c0-.16.06-.31.08-.47C69.77,75.48,69.74,75.63,69.71,75.79Z"/><path class="cls-6" d="M70,73.3a15.29,15.29,0,0,1-.14,1.88A15.29,15.29,0,0,0,70,73.3Z"/><path d="M70,73.3a15.29,15.29,0,0,1-.14,1.88A15.29,15.29,0,0,0,70,73.3Z"/><path class="cls-8" d="M73.59,72.67A6.94,6.94,0,0,1,70,73.3a15.29,15.29,0,0,1-.14,1.88l0,.14c0,.16-.05.31-.08.47l0,.12A8.18,8.18,0,0,0,73.59,72.67Z"/><path class="cls-9" d="M73.59,72.67A6.94,6.94,0,0,1,70,73.3a15.29,15.29,0,0,1-.14,1.88l0,.14c0,.16-.05.31-.08.47l0,.12A8.18,8.18,0,0,0,73.59,72.67Z"/><path class="cls-7" d="M73.59,72.67A8.43,8.43,0,0,0,74.78,72,8.59,8.59,0,0,0,77,69.75a8.24,8.24,0,0,0,.69-1.24,2,2,0,0,1-.39.09c-1.17.11-1.5-1.21-1-2.39a4.67,4.67,0,0,1,.7-1.09,4.26,4.26,0,0,1,.21-3c-1.06-2.18-2.19-4.18-2.29-5.66a29.74,29.74,0,0,1-8.08,1.32c-.11.16-.21.34-.31.51a2,2,0,0,1,.67.1.24.24,0,0,1,.14.31.23.23,0,0,1-.31.14,2,2,0,0,0-.78-.05,18.11,18.11,0,0,0-1.87,8.56,6.11,6.11,0,0,0,5.51,6h0A6.94,6.94,0,0,0,73.59,72.67ZM72,58.92a2.37,2.37,0,0,1,1.74,1.38.24.24,0,0,1-.11.32.23.23,0,0,1-.18,0,.26.26,0,0,1-.15-.12A1.93,1.93,0,0,0,72,59.4a.25.25,0,0,1-.21-.27A.24.24,0,0,1,72,58.92Zm-.24,3.46h0a.77.77,0,0,1,.24.78c-.08.4-.36.69-.62.64s-.42-.42-.34-.83a.89.89,0,0,1,.29-.53,1.08,1.08,0,0,1-.48-.53ZM66,62.09a.89.89,0,0,1,.3-.53,1.11,1.11,0,0,1-.49-.54l.92.47h0a.71.71,0,0,1,.24.77c-.08.41-.35.7-.62.65S66,62.49,66,62.09Zm3,5.27a.12.12,0,0,1,0-.24,3.32,3.32,0,0,0,2.87-.75.12.12,0,0,1,.17,0,.13.13,0,0,1,0,.18,3.4,3.4,0,0,1-2.39.89A3.37,3.37,0,0,1,69,67.36Z"/><polygon class="cls-6" points="81.39 62.52 81.39 62.52 81.39 62.52 81.39 62.52"/><path class="cls-6" d="M78.25,64.24c-.29-.73-.62-1.45-1-2.15a4.26,4.26,0,0,0-.21,3A2.93,2.93,0,0,1,78.25,64.24Z"/><path class="cls-6" d="M71.34,62.44a.89.89,0,0,0-.29.53c-.08.41.07.78.34.83s.54-.24.62-.64a.77.77,0,0,0-.24-.78A.44.44,0,0,1,71.34,62.44Z"/><path class="cls-6" d="M67,62.27a.71.71,0,0,0-.24-.77.47.47,0,0,1-.42.06.89.89,0,0,0-.3.53c-.08.4.07.77.34.83S66.92,62.68,67,62.27Z"/><path class="cls-6" d="M66.76,61.5h0L65.85,61a1.11,1.11,0,0,0,.49.54A.47.47,0,0,0,66.76,61.5Z"/><path class="cls-6" d="M72.1,66.36a.12.12,0,0,0-.17,0,3.32,3.32,0,0,1-2.87.75.12.12,0,0,0,0,.24,3.37,3.37,0,0,0,.69.07,3.4,3.4,0,0,0,2.39-.89A.13.13,0,0,0,72.1,66.36Z"/><path class="cls-7" d="M78.25,64.24a2.93,2.93,0,0,0-1.18.88,4.67,4.67,0,0,0-.7,1.09c-.53,1.18-.2,2.5,1,2.39a2,2,0,0,0,.39-.09,3.14,3.14,0,0,0,1.45-.82A12.65,12.65,0,0,0,78.25,64.24Z"/><path class="cls-6" d="M75.13,55.38c0-1,.62-1.26,1.4-1.1-4.24-2.48-10.46.24-10.92,3.47h1.3A29.74,29.74,0,0,0,75,56.43,2.24,2.24,0,0,1,75.13,55.38Z"/><path class="cls-6" d="M75.13,55.38a2.24,2.24,0,0,0-.14,1c.1,1.48,1.23,3.48,2.29,5.66.35.7.68,1.42,1,2.15a12.65,12.65,0,0,1,.93,3.45,6,6,0,0,1-.44,3.11c1.68-1.92,2.38-5.36,2.65-8.28h0a39.34,39.34,0,0,0,.15-5.16s-3.12-2.7-5-3.08C75.75,54.12,75.17,54.37,75.13,55.38Z"/><path class="cls-6" d="M72,59.4a1.93,1.93,0,0,1,1.36,1.11.26.26,0,0,0,.15.12.23.23,0,0,0,.18,0,.24.24,0,0,0,.11-.32A2.37,2.37,0,0,0,72,58.92a.24.24,0,0,0-.27.21A.25.25,0,0,0,72,59.4Z"/><path class="cls-6" d="M67.1,58.81a.23.23,0,0,0,.31-.14.24.24,0,0,0-.14-.31,2,2,0,0,0-.67-.1,2.43,2.43,0,0,0-1.51.5.24.24,0,0,0,0,.34.24.24,0,0,0,.15.09.22.22,0,0,0,.19,0,2,2,0,0,1,1.72-.34Z"/><path class="cls-6" d="M71.34,62.44a.44.44,0,0,0,.43-.06h0l-.92-.47A1.08,1.08,0,0,0,71.34,62.44Z"/><path class="cls-6" d="M82.54,96.68l.06-.89c-.39-.62-.79-1.25-1.2-1.88l-.81-1.2-.25.14A29.18,29.18,0,0,0,82.54,96.68Z"/><path d="M82.54,96.68l.06-.89c-.39-.62-.79-1.25-1.2-1.88l-.81-1.2-.25.14A29.18,29.18,0,0,0,82.54,96.68Z"/><path class="cls-7" d="M84.63,102.48l0,.11A34.84,34.84,0,0,0,92.25,97a32.18,32.18,0,0,0-1.35-3.31,45.38,45.38,0,0,0-2.26-4.27c-.69-1.21-1.44-2.36-2.21-3.49-.71,1.46-2.68,5-5.84,6.79l.81,1.2c.41.63.81,1.26,1.2,1.88h0c.35.55.68,1.1,1,1.65.53,1,1,1.89,1.42,2.77l-.07.47C84.86,101.27,84.75,101.87,84.63,102.48Z"/><path class="cls-6" d="M75.8,89.16s1.79,1.79,3.89,4l.65-.32.25-.14c3.16-1.81,5.13-5.33,5.84-6.79.21-.41.31-.67.31-.67a17,17,0,0,0-4.81-5,6.34,6.34,0,0,0-2.17-.87C74.8,80.59,73.18,83.7,75.8,89.16Z"/><path class="cls-10" d="M68.78,62.24a3.94,3.94,0,0,1-.33,1.13c-.17.41-.49.73-.71,1.16a1.06,1.06,0,0,0,.1,1.16c.2.25.39.29.4.26s-.13-.12-.26-.35a.92.92,0,0,1,0-.95,9,9,0,0,0,.78-1.14,3.92,3.92,0,0,0,.37-1.24c.09-.74-.1-1.09-.17-1.06S68.87,61.58,68.78,62.24Z"/></g></g></svg>