<svg xmlns="http://www.w3.org/2000/svg" viewBox="0 0 395.11 276.68"><defs><style>.cls-1{isolation:isolate;}.cls-2{fill:#363638;opacity:0.05;}.cls-3{fill:#eaeaea;mix-blend-mode:multiply;}.cls-4{fill:#00433b;}.cls-5{fill:#006c60;}.cls-6{fill:#260a05;}.cls-7{fill:#ffad4d;}.cls-8{fill:#ec7738;}.cls-9{fill:#cc5b54;}.cls-10{fill:#cc1525;}.cls-11{fill:#9c0520;}.cls-12{fill:#ff5146;}.cls-13{fill:#594b53;}.cls-14{fill:#fff;}.cls-15{fill:#ff9e86;}.cls-16{fill:#ff7e6a;}.cls-17{opacity:0.8;}.cls-18{fill:#3c2027;}.cls-19{fill:#f0d6c0;}.cls-20{fill:#6c4845;}.cls-21{fill:#895c55;}.cls-22{opacity:0.5;}.cls-23{fill:#a9a9a9;}.cls-24{fill:#fa5;}.cls-25{fill:#ffd371;}</style></defs><g class="cls-1"><g id="Layer_2" data-name="Layer 2"><g id="Option_1" data-name="Option 1"><path class="cls-2" d="M343.25,199.45S443.75,85.07,364.94,31.23c-46.63-31.86-96.73,19-151.88-11.9C141.92-20.6,88,6.13,49.43,55.83c-28.93,37.29-28.11,40.42-42,69.71-36,76,69.89,124.53,69.89,124.53S230,335.83,343.25,199.45Z"/><ellipse class="cls-3" cx="211.63" cy="251.36" rx="130.32" ry="9.77"/><path class="cls-4" d="M111.25,253.81a1.46,1.46,0,0,1-.53-.1,1.44,1.44,0,0,1-.81-1.88l28.94-73.52a1.45,1.45,0,1,1,2.69,1.06L112.6,252.89A1.45,1.45,0,0,1,111.25,253.81Z"/><path class="cls-4" d="M187.93,253.81a1.44,1.44,0,0,1-1.34-.92l-28.94-73.52a1.45,1.45,0,1,1,2.69-1.06l28.94,73.52a1.45,1.45,0,0,1-.82,1.88A1.39,1.39,0,0,1,187.93,253.81Z"/><path class="cls-4" d="M174.54,219.79a1.61,1.61,0,0,1-.48-.08l-43.85-15.37a1.45,1.45,0,0,1,1-2.73L175,217a1.45,1.45,0,0,1-.48,2.81Z"/><path class="cls-4" d="M124.64,219.79a1.45,1.45,0,0,1-.48-2.81L168,201.61a1.45,1.45,0,1,1,1,2.73l-43.85,15.37A1.61,1.61,0,0,1,124.64,219.79Z"/><path class="cls-4" d="M165.34,253.81a1.39,1.39,0,0,1-.53-.1,1.45,1.45,0,0,1-.82-1.88l28.94-73.52a1.45,1.45,0,0,1,2.7,1.06l-28.94,73.52A1.46,1.46,0,0,1,165.34,253.81Z"/><path class="cls-4" d="M242,253.81a1.46,1.46,0,0,1-1.35-.92l-28.94-73.52a1.45,1.45,0,0,1,2.7-1.06l28.94,73.52a1.45,1.45,0,0,1-.82,1.88A1.39,1.39,0,0,1,242,253.81Z"/><path class="cls-4" d="M228.63,219.79a1.61,1.61,0,0,1-.48-.08L184.3,204.34a1.45,1.45,0,1,1,1-2.73L229.11,217a1.45,1.45,0,0,1-.48,2.81Z"/><path class="cls-4" d="M178.73,219.79a1.45,1.45,0,0,1-.48-2.81l43.85-15.37a1.45,1.45,0,0,1,1,2.73l-43.85,15.37A1.61,1.61,0,0,1,178.73,219.79Z"/><path class="cls-5" d="M237.74,180.62s-61,34.92-99.74,6.68a54.73,54.73,0,0,1-4.52-3.68c-.5-.46-1-.93-1.49-1.41-33-32.27,9.08-84,9.08-84q1.65.69,3.27,1.41l1.15.51C205.78,127.3,237.74,180.62,237.74,180.62Z"/><path class="cls-4" d="M133.74,119c-5,10.09-10.57,25.19-8.31,39.8,2,12.73,6.55,21.93,12.57,28.52a54.73,54.73,0,0,1-4.52-3.68c-4.69-6.69-7.81-14.93-9.3-24.65a55.39,55.39,0,0,1,1.28-21.53,91.79,91.79,0,0,1,7.16-19A116.8,116.8,0,0,1,144.34,99.6l1.15.51a.57.57,0,0,1-.12.23A114.71,114.71,0,0,0,133.74,119Z"/><path class="cls-4" d="M152.82,129.35s-11.78,32.06-.57,46.53,37.13,21.34,74.68-.57Z"/><path class="cls-6" d="M173.72,25.67c-.45,7-2.89,17.09-6.49,26.65C162.41,65.09,155.52,77,148.54,79.66c-12.21,4.68-18.45-4-18.45-4,18,3.61,18.86-16,17.61-30.59S150.48,18.94,161.19,18c7.39-.67,10.54,3.25,11.79,5.75A9.22,9.22,0,0,1,173.72,25.67Z"/><path class="cls-7" d="M173.72,25.67c-.45,7-2.89,17.09-6.49,26.65L155.87,54s-5.1-11.87.24-21.28c4-7,12.54-8.91,16.87-9A9.22,9.22,0,0,1,173.72,25.67Z"/><path class="cls-7" d="M191.57,78.38l.07.53.11.69q.1.7.24,1.44c.17,1,.37,2,.58,2.95.42,2,.91,4,1.45,6a112.2,112.2,0,0,0,3.84,11.72c.76,1.92,1.54,3.82,2.38,5.7s1.74,3.72,2.69,5.54c.22.46.47.91.71,1.37s.48.9.73,1.35c.51.89,1,1.79,1.54,2.66.26.44.52.88.79,1.32l.81,1.3.21.32.1.16,0,0s0,0,0,0l-.05-.06a1.75,1.75,0,0,0-.16-.19l-.1-.1c-.11-.1-.06,0,0,.07a10.37,10.37,0,0,0,1.5.93c.68.35,1.48.71,2.32,1,1.7.69,3.6,1.32,5.55,1.9s4,1.12,6,1.61,4.15,1,6.25,1.4c4.21.87,8.49,1.65,12.79,2.36q3.22.54,6.47,1l3.24.46,1.61.23,1.58.21L253.67,147l-1.75-.1-1.72-.11-3.41-.26c-2.27-.18-4.53-.39-6.8-.61-4.54-.47-9.08-1-13.64-1.73s-9.15-1.54-13.84-2.71a71.54,71.54,0,0,1-7.2-2.14c-1.24-.44-2.5-.94-3.83-1.56a26.91,26.91,0,0,1-4.27-2.44,18.26,18.26,0,0,1-2.47-2.12c-.21-.22-.44-.47-.65-.72s-.45-.54-.67-.86l-.25-.34-.13-.19-.25-.37-1-1.5c-.34-.49-.66-1-1-1.51-.67-1-1.3-2-1.93-3-.32-.52-.62-1-.93-1.56s-.61-1-.9-1.56l-.88-1.57c-.29-.53-.57-1.06-.85-1.59-.57-1.06-1.1-2.14-1.64-3.22-1-2.16-2-4.34-3-6.55a131.62,131.62,0,0,1-4.81-13.57q-1-3.47-1.8-7c-.27-1.18-.52-2.38-.74-3.6-.11-.61-.22-1.23-.32-1.86l-.15-1-.07-.51-.07-.62Z"/><path class="cls-8" d="M202.49,126.49a.55.55,0,0,1-.47-.13.54.54,0,0,1,0-.77,44.65,44.65,0,0,1,5.06-4.73.53.53,0,0,1,.76.09.55.55,0,0,1-.09.77,44.57,44.57,0,0,0-4.92,4.61A.55.55,0,0,1,202.49,126.49Z"/><path class="cls-8" d="M203.37,122.59a.54.54,0,0,1-.63-.39.54.54,0,0,1,.38-.67s2.09-.57,3.86-.91a.55.55,0,0,1,.21,1.07c-1.73.33-3.76.89-3.78.89Z"/><path class="cls-8" d="M244.93,147.92a.38.38,0,0,1-.15,0,.54.54,0,0,1-.49-.59L246,130.1a.55.55,0,0,1,.6-.49.53.53,0,0,1,.49.59l-1.68,17.24A.52.52,0,0,1,244.93,147.92Z"/><path class="cls-8" d="M253.57,144h-.16l-7.91-.91a.54.54,0,1,1,.12-1.08l7.91.9a.56.56,0,0,1,.48.61A.54.54,0,0,1,253.57,144Z"/><path class="cls-8" d="M251.18,138.39a1.26,1.26,0,1,1-1.65-.67A1.26,1.26,0,0,1,251.18,138.39Z"/><path class="cls-9" d="M261.6,221.22l2.7,13.66,12.45,4.3c5.24,1.8,17.69,1.71,19.07,5.22.87,2.22-9.68,4.88-14.33,5.08s-15.92,3.13-22.46,3-5.2-10.52-6.28-13.61-3.55-16.3-3.55-16.3Z"/><path class="cls-5" d="M269.3,234.33s1.64,9.47-2.83,17.51c0,0,25.72-.91,30.54-6.52,1.78-2.07.63-3.95-2.33-5.55-.37-.2-.78-.4-1.21-.6a31.58,31.58,0,0,0-3.58-1.33l-1.09-.33c-1.1-.32-2.27-.61-3.51-.89l-1.11-.25c-1.09-.23-2.22-.44-3.38-.64l-1.12-.19c-1.09-.18-2.2-.34-3.32-.49l-1.09-.13c-1.1-.14-2.21-.26-3.33-.37l-1.06-.09Z"/><path class="cls-4" d="M293.47,239.17a10.17,10.17,0,0,1,0,6.12.5.5,0,0,0,0,.34.51.51,0,0,0,.3.31.52.52,0,0,0,.65-.3,11,11,0,0,0,.24-5.87C294.31,239.57,293.9,239.37,293.47,239.17Z"/><path class="cls-4" d="M288.8,237.51a.5.5,0,0,0,0,.27,0,0,0,0,0,0,0,12.85,12.85,0,0,1-.07,8,.47.47,0,0,0,0,.35.51.51,0,0,0,.95,0,13.72,13.72,0,0,0,.19-8.38Z"/><path class="cls-4" d="M284.18,236.37a.57.57,0,0,0,0,.18l0,0a15.6,15.6,0,0,1-.21,9.83.47.47,0,0,0,0,.35.53.53,0,0,0,.29.3.5.5,0,0,0,.65-.28,16.28,16.28,0,0,0,.34-10.17Z"/><path class="cls-4" d="M279.68,235.54a18.32,18.32,0,0,1-.4,11.44.5.5,0,0,0,0,.36.5.5,0,0,0,.94,0,19.23,19.23,0,0,0,.59-11.64Z"/><path class="cls-4" d="M275.27,234.92a21.3,21.3,0,0,1-.73,12.63.5.5,0,0,0,0,.36.49.49,0,0,0,.28.3.51.51,0,0,0,.66-.27,22.2,22.2,0,0,0,.89-12.89Z"/><path class="cls-4" d="M270.88,234.46a24.4,24.4,0,0,1-1.08,13.66.5.5,0,0,0,0,.36.49.49,0,0,0,.28.3.5.5,0,0,0,.66-.27,25.13,25.13,0,0,0,1.21-14Z"/><path class="cls-5" d="M268.15,248s-8.72,1.55-14.5-.32a5.59,5.59,0,0,0,1.57,5.38s20.44,0,28.52-1.67,13.7-3.36,13.6-6.52Z"/><path class="cls-4" d="M268.31,248.64a.5.5,0,0,0,.48.33,134.26,134.26,0,0,0,27.8-3.5.49.49,0,0,0,.37-.6.5.5,0,0,0-.61-.37A134.2,134.2,0,0,1,268.78,248a.51.51,0,0,0-.5.5A.47.47,0,0,0,268.31,248.64Z"/><path class="cls-9" d="M302.05,215l5.65,7.79s7.89,1.68,14.09.12c5.37-1.35,15.75-8.24,18.82-6,1.94,1.38-5.44,9.37-9.22,12.08s-11.62,11.33-17.17,14.79-10.6-5.46-12.7-8c-3.66-4.39-8.7-11.32-8.7-11.32Z"/><path class="cls-5" d="M312.9,222.9s6.55,7,7.21,16.21c0,0,21-14.82,22-22.15.36-2.71-1.63-3.65-5-3.38-.43,0-.88.09-1.34.16a32.36,32.36,0,0,0-3.73.85c-.36.1-.72.2-1.09.32-1.1.33-2.24.73-3.43,1.17l-1.06.4c-1,.41-2.11.84-3.19,1.31l-1,.45q-1.51.67-3.06,1.41l-1,.48c-1,.49-2,1-3,1.52l-.94.5Z"/><path class="cls-4" d="M335.79,213.74a10.08,10.08,0,0,1,3.36,5.11.53.53,0,0,0,.19.29.46.46,0,0,0,.41.09.5.5,0,0,0,.38-.6,10.92,10.92,0,0,0-3-5C336.7,213.62,336.25,213.67,335.79,213.74Z"/><path class="cls-4" d="M331,214.91a.48.48,0,0,0,.16.22h0a12.79,12.79,0,0,1,4.34,6.77.48.48,0,0,0,.19.3.49.49,0,0,0,.41.1.52.52,0,0,0,.39-.6,13.71,13.71,0,0,0-4.42-7.12C331.7,214.69,331.34,214.79,331,214.91Z"/><path class="cls-4" d="M326.48,216.48a.49.49,0,0,0,.12.13l0,0a15.51,15.51,0,0,1,5.19,8.34.56.56,0,0,0,.19.3.56.56,0,0,0,.4.1.52.52,0,0,0,.4-.6,16.4,16.4,0,0,0-5.28-8.7Z"/><path class="cls-4" d="M322.26,218.24a18.32,18.32,0,0,1,5.91,9.8.58.58,0,0,0,.19.31.55.55,0,0,0,.4.1.51.51,0,0,0,.4-.59,19.17,19.17,0,0,0-5.87-10.07Z"/><path class="cls-4" d="M318.22,220.13a21.32,21.32,0,0,1,6.29,11,.58.58,0,0,0,.19.31.5.5,0,0,0,.4.09.5.5,0,0,0,.4-.58,22.08,22.08,0,0,0-6.3-11.28Z"/><path class="cls-4" d="M314.29,222.15a24.32,24.32,0,0,1,6.56,12,.63.63,0,0,0,.19.31.5.5,0,0,0,.4.09.51.51,0,0,0,.41-.58,25.08,25.08,0,0,0-6.62-12.35Z"/><path class="cls-5" d="M319.42,235s-6.46,6.06-12.32,7.65a5.59,5.59,0,0,0,4.26,3.65s17.1-11.18,23-17,9.64-10.3,7.82-12.89Z"/><path class="cls-4" d="M319.89,235.42a.51.51,0,0,0,.59,0,135.88,135.88,0,0,0,21.37-18.13.51.51,0,0,0-.74-.69,134.47,134.47,0,0,1-21.19,18,.5.5,0,0,0-.14.69A.43.43,0,0,0,319.89,235.42Z"/><path class="cls-10" d="M257.79,144.23c-4.42-2.93-66.44-6.37-84.83,2.84-1.4,4.72,29,17.11,37.95,25.81,26.38-.8,42.32,5,42.32,5s13.14,19.18,20,25.82,21.3,26,21.3,26l12.82-9.46S269.84,152.21,257.79,144.23Z"/><path class="cls-11" d="M289.2,222.29a.55.55,0,0,1-.41-1l13.26-9.09a.55.55,0,0,1,.76.14.55.55,0,0,1-.14.76l-13.26,9.09A1,1,0,0,1,289.2,222.29Z"/><path class="cls-11" d="M292.64,219.9a.54.54,0,0,1-.55-.23c-.06-.09-1.68-2.34-12.64-14.34-11.95-13.07-25.2-32.69-25.33-32.88a.54.54,0,1,1,.9-.61c.13.19,13.34,19.74,25.23,32.76C291.34,216.73,292.92,219,293,219.05a.55.55,0,0,1-.14.76A.67.67,0,0,1,292.64,219.9Z"/><path class="cls-12" d="M151.31,146.29s-11.52,48.2,44.42,40.66c25.24-3.4,36.42-9.59,36.42-9.59s4.9,22,7.87,31,9.67,25,9.67,25l15-2.91s-7.26-69.23-20.77-74.33-35.54-6.61-65.89-3.67C178,152.52,156.11,147.57,151.31,146.29Z"/><path class="cls-10" d="M250,225.07a.55.55,0,0,1-.61-.33c-4.23-10.27-7.55-23.42-10.21-34-2.21-8.76-4.29-17-5.63-17.83-1.08-.63-4.78.75-9.47,2.5-9.33,3.47-23.43,8.73-40.22,8.12-9.15-.34-16.41-3.34-21.58-8.92-8.92-9.62-8.47-23.8-8.46-23.94a.54.54,0,0,1,.56-.52.55.55,0,0,1,.53.57c0,.13-.44,13.87,8.17,23.16,5,5.35,12,8.23,20.82,8.56,16.57.6,30.55-4.61,39.8-8.06,5.54-2.06,8.88-3.31,10.41-2.41s3.23,7,6.13,18.51c2.65,10.54,6,23.65,10.16,33.84a.55.55,0,0,1-.29.72Z"/><path class="cls-10" d="M263.39,222.46h0l-16.71,2.88a.55.55,0,0,1-.63-.44.54.54,0,0,1,.45-.63l16.71-2.88a.53.53,0,0,1,.63.44A.55.55,0,0,1,263.39,222.46Z"/><rect class="cls-6" x="190.33" y="145.81" width="60.6" height="7.9" rx="1.15" transform="matrix(-1, 0.04, -0.04, -1, 447.24, 290.31)"/><path class="cls-6" d="M257.38,152.2a5.05,5.05,0,0,0,4.71-3.93l9.58-42.87a4.1,4.1,0,0,0-4.16-5l-27.11,1.12a4.09,4.09,0,0,0-3.8,3.14L225,153.53Z"/><path class="cls-7" d="M254.58,126.9c-.63,2.81-3.18,5.27-5.7,5.49s-4-1.88-3.43-4.69,3.18-5.27,5.7-5.49S255.2,124.09,254.58,126.9Z"/><path class="cls-6" d="M249.48,126.39c-.13.56-.41,1-.63,1s-.29-.42-.17-1,.41-1,.63-1S249.6,125.83,249.48,126.39Z"/><path class="cls-6" d="M251.86,126.18c-.13.57-.41,1-.63,1.06s-.29-.43-.17-1,.41-1,.63-1S252,125.62,251.86,126.18Z"/><path class="cls-6" d="M249.5,129.77c-2,.17-1.92-2-1.92-2a.31.31,0,0,1,.21-.27.14.14,0,0,1,.2.15c0,.07,0,1.82,1.61,1.68a3.33,3.33,0,0,0,2.44-2,.31.31,0,0,1,.28-.19c.1,0,.14.13.09.25S251.46,129.6,249.5,129.77Z"/><path class="cls-6" d="M236.6,104.68l-11.48,48.45-3.1.13,11.48-48.45a4.08,4.08,0,0,1,3.81-3.14l3.09-.13A4.07,4.07,0,0,0,236.6,104.68Z"/><path class="cls-13" d="M225.94,150.11a.44.44,0,0,0,.43-.34l10.66-45a.45.45,0,0,0-.87-.2l-10.65,45a.43.43,0,0,0,.32.53Z"/><path class="cls-7" d="M201.7,112.07l0,.15a12.3,12.3,0,0,1-.6,1.67,26.2,26.2,0,0,1-4.71,7c-.26.29-.42.44-.42.44s0,0,0,.06l.06.52a24.46,24.46,0,0,0,.37,2.47c2.32,10.67,2.89,12.45,3.83,17-14,20.16-47.13,7.38-48.88,4.88-1.52-10.8-1.52-10.8-3.13-21.26a116.94,116.94,0,0,0-5.57-20.16l-.33-.89c-.83-2.22-1.7-4.43-2.62-6.54-4-9.29-3.08-17.63,2.34-21.43,1.84-1.29,7.5-3,10-3.51l2-.4c3.53-.68,6.29-1.06,6.29-1.06l16.95.15c1.66.18,3.16.39,4.51.64,1.19.2,2.26.45,3.23.71,8.63,2.38,9,6.92,10.55,15.1a60.69,60.69,0,0,0,1.79,6.84l.69,2.06C200.21,103,202.64,108.62,201.7,112.07Z"/><path class="cls-14" d="M159.34,71.19s-8.82,1.41-8.77,6.46,18,4.65,18,4.65S160.26,76.76,159.34,71.19Z"/><path class="cls-14" d="M176.82,71.19s8.83,1.41,8.78,6.46-12.46,5.13-12.46,5.13A53.9,53.9,0,0,0,176.82,71.19Z"/><path class="cls-15" d="M176.75,70.49l.61,6a5.94,5.94,0,0,1-9,5.66c-4.89-3-9.28-7.07-9.34-10.93Z"/><path class="cls-8" d="M195.92,121.38s0,0,0,.06l.06.52a29,29,0,0,1-11.76-.08,26.62,26.62,0,0,0-16.85,2.56.5.5,0,0,1-.24.06.44.44,0,0,1-.39-.24.45.45,0,0,1,.16-.63,27.28,27.28,0,0,1,17.5-2.66,27.47,27.47,0,0,0,11.93,0C196.08,121.23,195.92,121.38,195.92,121.38Z"/><path class="cls-8" d="M180.64,98.37c-5.66,0-17.22-8-17.71-8.38a.48.48,0,0,1-.12-.65.47.47,0,0,1,.65-.11c.12.08,11.81,8.23,17.17,8.21,5.13,0,6.25-5.62,6.26-5.68a.46.46,0,0,1,.91.17C187.79,92,186.52,98.35,180.64,98.37Z"/><path class="cls-8" d="M199,133.69a.56.56,0,0,1-.63-.38c-1.33-4.2-2.92-11.68-2.93-11.75a.55.55,0,0,1,.21-.56,15.84,15.84,0,0,0,5.55-9,.54.54,0,1,1,1.07.19,16.59,16.59,0,0,1-5.69,9.49c.32,1.49,1.68,7.67,2.83,11.33a.55.55,0,0,1-.35.68Z"/><path class="cls-6" d="M191,38.54s2.8,8.22-1.61,11.4L189,38.65Z"/><path class="cls-6" d="M186.25,29.75s-10.47-10.32-22.9-1.8c-12.64,8.66-11.23,30.78.12,33.47C163.47,61.42,182.36,45,186.25,29.75Z"/><path class="cls-16" d="M186.17,51.43s3.06-2.54,4,.7-1.28,9.09-4.95,7.42Z"/><path class="cls-9" d="M177.59,65.71l-1.12,8.2s-6,8.24-17.46-2.69c2.22-3.27,4-9.36,3.61-12.69a15.8,15.8,0,0,1,2.28,1.7,9.21,9.21,0,0,0,.95.63C168.85,62.8,173.43,65.3,177.59,65.71Z"/><path class="cls-6" d="M177.59,65.71l-.53,3.89c-3.39-1.41-9.38-4.46-12.16-9.37l.95.63C168.85,62.8,173.43,65.3,177.59,65.71Z"/><path class="cls-9" d="M185.18,63.9c-7.3,7-22.11-5-22.55-5.35h0c0-.66,0-1.32-.05-2a50.87,50.87,0,0,1,2.17-15.06,11.52,11.52,0,0,1,9.36-10c5.15-.9,9.1,2,11.56,3.26,3.71,1.91,5.28,7.43,4,14.67C188.12,58.37,187.19,62,185.18,63.9Z"/><path class="cls-6" d="M179.77,40.93s1.41.4.67,1.62-3.36-.73-5.85,1.32C174.59,43.87,174.27,40.56,179.77,40.93Z"/><path class="cls-6" d="M186.28,42.09s-1.46-.12-1.19,1.29,3.41.47,5,3.26C190.13,46.64,191.57,43.64,186.28,42.09Z"/><path class="cls-16" d="M177.48,51.11c-.12.67-1.6,1-3.3.67s-3-1.09-2.87-1.76,1.6-1,3.3-.67S177.6,50.44,177.48,51.11Z"/><g class="cls-17"><path class="cls-16" d="M189.83,54.53a7,7,0,0,1-.75-.1c-1.7-.3-3-1.09-2.87-1.76s1.6-1,3.3-.67l.67.15Z"/></g><path class="cls-6" d="M166.29,55.35c-.06.1-1.77,2.69-3.66,3.2h0v0c0-.66,0-1.32-.05-2A7.14,7.14,0,0,0,166.29,55.35Z"/><path class="cls-15" d="M165.74,48.66s-2.8-5.6-6.19-2.19c-2.79,2.8-.07,11.89,4.83,9.82Z"/><path class="cls-14" d="M161.76,54s2.21,6.15.33,6.61C158.62,61.49,161.76,54,161.76,54Z"/><path class="cls-6" d="M164.14,54.71a.38.38,0,0,1-.31-.4,6.44,6.44,0,0,0-2.77-5.76.38.38,0,0,1,.41-.65,7.2,7.2,0,0,1,3.13,6.46.4.4,0,0,1-.41.36Z"/><path class="cls-6" d="M161,51.79a.39.39,0,0,1-.27-.2.38.38,0,0,1,.15-.52,3.7,3.7,0,0,1,2.81-.43.38.38,0,0,1-.32.7,3.08,3.08,0,0,0-2.12.4A.38.38,0,0,1,161,51.79Z"/><path class="cls-6" d="M178.7,47.72c-.17.92-.72,1.6-1.23,1.5s-.8-.91-.64-1.83.72-1.59,1.23-1.5S178.86,46.8,178.7,47.72Z"/><path class="cls-6" d="M187.8,49.15c-.16.92-.71,1.59-1.23,1.5s-.8-.91-.63-1.83.71-1.6,1.23-1.5S188,48.23,187.8,49.15Z"/><path class="cls-6" d="M181.8,57.14a8.1,8.1,0,0,1-4.12-2.48.38.38,0,0,1,0-.54.37.37,0,0,1,.54.05c.14.15,3.3,3.78,6.55,1.57a.38.38,0,0,1,.43.63A4.52,4.52,0,0,1,181.8,57.14Z"/><path class="cls-6" d="M169.3,38.46s.64,10.89-2.6,11.54c-3.83.77-4.13-7.84-1.56-14.68Z"/><path class="cls-6" d="M167.68,40.68s15.41,2.18,18.47-3.79c0,0,1.39,5.31,4.78,5.65,0,0,2.17-5.83-4.68-12.79,0,0-16.42-4.47-20.41,2.44S167.68,40.68,167.68,40.68Z"/><path class="cls-14" d="M178.25,51.88l-5.34-.77a2.93,2.93,0,0,1-2.48-3.32l.29-2a1.47,1.47,0,0,1,1.66-1.24l8.24,1.19a1.47,1.47,0,0,1,1.24,1.66l-.29,2a2.94,2.94,0,0,1-2.9,2.51Zm-6.83-6-.29,2a2.17,2.17,0,0,0,.42,1.65,2.23,2.23,0,0,0,1.46.87l5.34.77a2.23,2.23,0,0,0,2.52-1.88l.29-2a.76.76,0,0,0-.64-.86l-8.24-1.19h-.11A.76.76,0,0,0,171.42,45.86Z"/><path class="cls-14" d="M189,53.43,186.32,53a2.93,2.93,0,0,1-2.48-3.32l.29-2a1.47,1.47,0,0,1,1.66-1.24l5.56.8a1.47,1.47,0,0,1,1.23,1.66l-.29,2a3,3,0,0,1-2.89,2.51A3,3,0,0,1,189,53.43Zm-4.14-5.63-.29,2a2.21,2.21,0,0,0,1.88,2.51l2.65.39a2.22,2.22,0,0,0,2.52-1.89l.29-2a.75.75,0,0,0-.64-.85l-5.56-.8h-.1A.76.76,0,0,0,184.83,47.8Z"/><path class="cls-6" d="M183.08,51.93a3.9,3.9,0,0,1-1.68-.74.39.39,0,0,1-.06-.54.38.38,0,0,1,.54-.07,3,3,0,0,0,1.49.61l-.61-3.79a.39.39,0,0,1,.32-.44.38.38,0,0,1,.44.32l.69,4.26a.42.42,0,0,1-.08.3.38.38,0,0,1-.27.14A2.71,2.71,0,0,1,183.08,51.93Z"/><path class="cls-14" d="M184.47,47.61l.36-.61a3.67,3.67,0,0,0-3.4-.34l.26.66A3,3,0,0,1,184.47,47.61Z"/><path class="cls-14" d="M171.07,46.16a.35.35,0,0,0,.34-.24.37.37,0,0,0-.22-.45c-.18-.06-4.42-1.47-7.79-.19a.35.35,0,0,0,.25.66c3.13-1.18,7.27.19,7.31.2A.22.22,0,0,0,171.07,46.16Z"/><path class="cls-9" d="M209.65,142.47s10.62-4.78,15.48-2.33l-1.93,8.12-6.12,2.87c-1.87.87-2.06,4.42-9.17,4.46Z"/><path class="cls-7" d="M137.58,111.85a75.6,75.6,0,0,0,4,15c.47,1.22,1,2.42,1.53,3.61s1.12,2.37,1.73,3.53l.2.37c.55,1,1.13,2.06,1.74,3.06.33.57.68,1.12,1,1.68l.13.2.08.12.16.24a11,11,0,0,0,.65.9,15.48,15.48,0,0,0,1.28,1.43,19.28,19.28,0,0,0,2.38,2,25.54,25.54,0,0,0,2.16,1.38,32.13,32.13,0,0,0,3.15,1.59l.81.36a69.89,69.89,0,0,0,7.34,2.6c4.78,1.4,9.43,2.45,14.08,3.35s9.26,1.63,13.88,2.28q3.48.47,6.94.87,1.74.21,3.48.39l1.74.17,1.79.17,1.78-14.62-1.6-.27-1.64-.29-3.3-.59c-2.19-.4-4.39-.83-6.57-1.28-4.37-.87-8.72-1.83-13-2.88s-8.47-2.21-12.39-3.57a57.17,57.17,0,0,1-5.47-2.18,21.39,21.39,0,0,1-2.14-1.16c-.28-.18-.51-.35-.68-.48l0,0q-.37-.63-.72-1.26c-.47-.85-.91-1.71-1.33-2.58s-.8-1.77-1.17-2.66-.72-1.81-1-2.73-.62-1.85-.89-2.8-.52-1.89-.75-2.85-.42-1.92-.6-2.89-.35-2-.48-2.94a68.63,68.63,0,0,1-.59-12c.07-2,.21-4,.44-6,.12-1,.25-2,.41-2.94.08-.48.16-1,.25-1.42l.13-.66.1-.48L138.25,81l-.09.38-.06.28-.12.53c-.07.35-.13.68-.2,1q-.18,1-.33,2c-.2,1.29-.37,2.57-.5,3.84-.27,2.55-.42,5.09-.47,7.63A87.13,87.13,0,0,0,137.58,111.85Zm25.1,17.71.15.15,0,0C162.72,129.63,162.66,129.55,162.68,129.56Z"/><path class="cls-8" d="M145.09,134.35c.55,1,1.13,2.06,1.74,3.06.33.57.68,1.12,1,1.68l.13.2.08.12.16.24a11,11,0,0,0,.65.9,15.48,15.48,0,0,0,1.28,1.43,19.28,19.28,0,0,0,2.38,2,25.54,25.54,0,0,0,2.16,1.38,32.13,32.13,0,0,0,3.15,1.59C157.34,134.74,149.35,133.91,145.09,134.35Z"/><path class="cls-8" d="M157.51,134.83a.53.53,0,0,1-.49-.14.56.56,0,0,1,0-.78,56.1,56.1,0,0,1,6.51-5.4.54.54,0,0,1,.76.13.56.56,0,0,1-.13.76,53.68,53.68,0,0,0-6.36,5.28A.55.55,0,0,1,157.51,134.83Z"/><path class="cls-8" d="M158.53,131a.55.55,0,0,1-.63-.38.54.54,0,0,1,.37-.68c.12,0,3-.89,5.2-1.31a.55.55,0,0,1,.64.44.56.56,0,0,1-.44.64c-2.18.4-5.06,1.26-5.09,1.27Z"/><path class="cls-8" d="M198.64,140.74a.6.6,0,0,1-.23,0c-20.25-5-33.84-10.81-34.53-11.47a.47.47,0,0,1-.12-.19c-.47-1.14-11.36-28.16-9.79-39a.53.53,0,0,1,.61-.46.54.54,0,0,1,.47.61c-1.47,10.19,8.76,36.11,9.66,38.34,1.41.82,14.64,6.36,34,11.16a.55.55,0,0,1,.4.66A.53.53,0,0,1,198.64,140.74Z"/><path class="cls-8" d="M154.84,95.28a.52.52,0,0,1-.4-.08.54.54,0,0,1-.16-.76l1.86-2.81a.53.53,0,0,1,.75-.15.55.55,0,0,1,.16.75L155.19,95A.54.54,0,0,1,154.84,95.28Z"/><path class="cls-8" d="M199.36,156.39a.56.56,0,0,1-.65-.61l1.89-14.27a.57.57,0,0,1,.62-.47.55.55,0,0,1,.47.62l-1.9,14.26A.55.55,0,0,1,199.36,156.39Z"/><path class="cls-8" d="M208,154.08h-.19l-7.87-1.18a.54.54,0,0,1-.46-.62.56.56,0,0,1,.62-.46l7.88,1.18a.55.55,0,0,1,0,1.08Z"/><path class="cls-8" d="M205.73,148.43a1.26,1.26,0,0,1-.73,1.63,1.28,1.28,0,0,1-1.63-.74,1.26,1.26,0,0,1,.74-1.62A1.25,1.25,0,0,1,205.73,148.43Z"/><rect class="cls-18" x="317.29" y="5.39" width="49.33" height="119.71"/><rect class="cls-19" x="320.99" y="9.09" width="41.92" height="112.3"/><rect class="cls-14" x="287.65" y="46.13" width="108.59" height="38.21" transform="translate(407.19 -276.71) rotate(90)"/><rect class="cls-7" x="328.26" y="17.7" width="27.2" height="95.08"/><circle class="cls-14" cx="344.24" cy="63.42" r="10.19"/><path class="cls-4" d="M347.89,65.24s-8.65-12.82-19.63-13.7V99.77S351,75.21,347.89,65.24Z"/><path class="cls-5" d="M355.46,62.3s-5.28-1.48-15.39,10.56c-9.49,11.3-11.81,25.82-11.81,25.82v14.1h27.2Z"/><path class="cls-3" d="M103.31,234c0,2.48-17.34,4.49-38.72,4.49s-38.72-2-38.72-4.49,17.33-4.5,38.72-4.5S103.31,231.48,103.31,234Z"/><polygon class="cls-20" points="35.24 222.12 29.69 139.43 93.5 139.43 87.96 222.12 35.24 222.12"/><polygon class="cls-18" points="30.22 147.21 92.72 150.81 93.17 144.26 30.02 144.26 30.22 147.21"/><rect class="cls-21" x="25.87" y="137.02" width="71.46" height="7.24" rx="3.57" transform="translate(123.19 281.28) rotate(180)"/><polygon class="cls-18" points="36.84 157.56 38.41 185.21 84.78 185.21 86.35 157.56 36.84 157.56"/><path class="cls-20" d="M59.28,172.53a2.32,2.32,0,1,0,2.32-2.32A2.32,2.32,0,0,0,59.28,172.53Z"/><polygon class="cls-18" points="39.02 191.68 40.45 216.88 82.74 216.88 84.17 191.68 39.02 191.68"/><path class="cls-20" d="M59.28,205.2a2.32,2.32,0,1,0,2.32-2.32A2.31,2.31,0,0,0,59.28,205.2Z"/><path class="cls-18" d="M68.39,222.12h.38a13.82,13.82,0,0,1,13.31,10.59l.4,1.69h5l.47-12.28Z"/><path class="cls-18" d="M54.78,222.12h-.37a13.84,13.84,0,0,0-13.32,10.59l-.39,1.69H35.76l-.5-12.28Z"/><path class="cls-10" d="M54.05,133.34H48.33a4.49,4.49,0,0,1-4.48-4.48v-6.75a4.49,4.49,0,0,1,4.48-4.48h5.72a4.49,4.49,0,0,1,4.48,4.48v6.75A4.49,4.49,0,0,1,54.05,133.34Zm-5.72-13.41a2.19,2.19,0,0,0-2.18,2.18v6.75A2.19,2.19,0,0,0,48.33,131h5.72a2.19,2.19,0,0,0,2.18-2.18v-6.75a2.19,2.19,0,0,0-2.18-2.18Z"/><path class="cls-12" d="M53.37,137.16a146.25,146.25,0,0,1-16.75,0V114.23a120,120,0,0,1,16.75,0Z"/><g class="cls-22"><path class="cls-23" d="M45.56,111.87s-4.48-1.81-1.79-6.66,5.79-8.63,2.89-12.44c0,0,3.48,1,3.76,6.47S44,108.38,45.56,111.87Z"/></g><path class="cls-14" d="M117,3.61V54.52a2.43,2.43,0,0,1-2.42,2.42H28.41A2.43,2.43,0,0,1,26,54.52V3.61a2.43,2.43,0,0,1,2.42-2.42h86.16A2.43,2.43,0,0,1,117,3.61Z"/><path class="cls-24" d="M64,32.45a16,16,0,1,1-30.83-6.2L48,32.45l-.76-16c.25,0,.51,0,.76,0A16,16,0,0,1,64,32.45Z"/><path class="cls-25" d="M45.62,13.79a16.08,16.08,0,0,0-14,9.82l14.8,6.19Z"/><rect class="cls-8" x="100.41" y="21.41" width="2.2" height="2.2"/><rect class="cls-24" x="104.07" y="22.23" width="7.94" height="0.55" rx="0.02"/><rect class="cls-8" x="100.41" y="17.48" width="2.2" height="2.2"/><rect class="cls-24" x="104.07" y="18.31" width="7.94" height="0.55" rx="0.02"/><rect class="cls-8" x="100.41" y="25.33" width="2.2" height="2.2"/><rect class="cls-24" x="104.07" y="26.16" width="7.94" height="0.55" rx="0.02"/><path class="cls-24" d="M111.73,34.43h-11a.27.27,0,0,1-.27-.27h0a.28.28,0,0,1,.27-.28h11a.29.29,0,0,1,.28.28h0A.28.28,0,0,1,111.73,34.43Z"/><path class="cls-24" d="M111.73,36.7h-11a.28.28,0,0,1-.27-.28h0a.27.27,0,0,1,.27-.27h11a.28.28,0,0,1,.28.27h0A.29.29,0,0,1,111.73,36.7Z"/><path class="cls-24" d="M111.73,39h-11a.27.27,0,0,1-.27-.27h0a.27.27,0,0,1,.27-.28h11a.28.28,0,0,1,.28.28h0A.28.28,0,0,1,111.73,39Z"/><path class="cls-24" d="M111.73,41.23h-11a.28.28,0,0,1-.27-.28h0a.28.28,0,0,1,.27-.28h11A.29.29,0,0,1,112,41h0A.29.29,0,0,1,111.73,41.23Z"/><path class="cls-24" d="M111.73,43.49h-11a.27.27,0,0,1-.27-.28h0a.27.27,0,0,1,.27-.27h11a.28.28,0,0,1,.28.27h0A.28.28,0,0,1,111.73,43.49Z"/><path class="cls-24" d="M111.73,45.75h-11a.27.27,0,0,1-.27-.27h0a.28.28,0,0,1,.27-.28h11a.29.29,0,0,1,.28.28h0A.28.28,0,0,1,111.73,45.75Z"/><path class="cls-24" d="M111.73,48h-11a.28.28,0,0,1-.27-.28h0a.27.27,0,0,1,.27-.27h11a.28.28,0,0,1,.28.27h0A.29.29,0,0,1,111.73,48Z"/><path class="cls-24" d="M117,3.61V7.86H26V3.61a2.43,2.43,0,0,1,2.42-2.42h86.16A2.43,2.43,0,0,1,117,3.61Z"/><path class="cls-25" d="M107.4,4.53a1.12,1.12,0,1,1-1.12-1.12A1.12,1.12,0,0,1,107.4,4.53Z"/><path class="cls-14" d="M111,4.53a1.12,1.12,0,1,1-1.12-1.12A1.12,1.12,0,0,1,111,4.53Z"/><path class="cls-8" d="M114.51,4.53a1.12,1.12,0,1,1-1.12-1.12A1.12,1.12,0,0,1,114.51,4.53Z"/><path class="cls-8" d="M64,32.45a16,16,0,0,1-4.13,10.74L48,32.45l-.76-16c.25,0,.51,0,.76,0A16,16,0,0,1,64,32.45Z"/><rect class="cls-24" x="79.62" y="28.4" width="5.11" height="21.87"/><path class="cls-8" d="M79.62,44.5a19.76,19.76,0,0,0,5.1-2.63v8.4h-5.1Z"/><rect class="cls-24" x="71.28" y="34.48" width="5.11" height="15.8"/><path class="cls-8" d="M75.44,44.87a7.47,7.47,0,0,0,.94.09v5.31h-5.1V45A9.2,9.2,0,0,1,75.44,44.87Z"/><rect class="cls-24" x="87.96" y="21.86" width="5.11" height="28.41"/><path class="cls-8" d="M93.07,37.43V50.27H88V39.61C89.78,38.38,91.47,37.43,93.07,37.43Z"/><path class="cls-25" d="M92.86,13.58l-4.61,1,1.24,1.21-7,7.19L80,20.55l-8.75,8.92a.87.87,0,0,0,0,1.22h0a.86.86,0,0,0,1.22,0L80,23l2.47,2.43L90.73,17,92,18.21Z"/><path class="cls-24" d="M266.06,59.64V73.1a3.22,3.22,0,0,1-3.22,3.22H238.4L231,79a.94.94,0,0,1-1.19-1.23l2.79-7.2V59.64a3.22,3.22,0,0,1,3.22-3.22h27A3.22,3.22,0,0,1,266.06,59.64Z"/><path class="cls-14" d="M244.83,66.75a2.33,2.33,0,1,1-2.33-2.33A2.33,2.33,0,0,1,244.83,66.75Z"/><path class="cls-14" d="M252.21,66.75a2.33,2.33,0,1,1-2.33-2.33A2.33,2.33,0,0,1,252.21,66.75Z"/><path class="cls-14" d="M259.59,66.75a2.33,2.33,0,1,1-2.33-2.33A2.33,2.33,0,0,1,259.59,66.75Z"/></g></g></g></svg>