<svg xmlns="http://www.w3.org/2000/svg" xmlns:xlink="http://www.w3.org/1999/xlink" viewBox="0 0 323.84 254.76"><defs><style>.cls-1,.cls-15,.cls-36{fill:none;}.cls-2{isolation:isolate;}.cls-3,.cls-30{fill:#46c7ce;}.cls-3{opacity:0.25;}.cls-4{fill:#eaeaea;mix-blend-mode:multiply;}.cls-5{fill:#845940;}.cls-6{fill:#b38d6a;}.cls-7{fill:#fcb659;}.cls-8{fill:#fdd58c;}.cls-9{fill:#323340;}.cls-10{fill:#eeeadf;}.cls-11{fill:#5e281e;}.cls-12{fill:#fff;}.cls-13{fill:#ae4434;}.cls-14{fill:#422e2d;}.cls-15{stroke:#422e2d;stroke-miterlimit:10;}.cls-16{fill:#db8038;}.cls-17{fill:#fa5;}.cls-18{fill:#f0e9df;}.cls-19{fill:#b6c8b8;}.cls-20{fill:#ae4432;}.cls-21{fill:#282733;}.cls-22{fill:#e7decf;}.cls-23{fill:#ffd371;}.cls-24{fill:#60874f;}.cls-25{fill:#f2f4f3;}.cls-26{fill:#c5503d;}.cls-27{fill:#ad4735;}.cls-28{clip-path:url(#clip-path);}.cls-29{fill:#dfa47f;}.cls-31{fill:#cc8457;}.cls-32{fill:#2ba3a3;}.cls-33{fill:#a5baa9;}.cls-34{fill:#a9a9a9;}.cls-35{fill:#e2e2e2;}.cls-36{stroke:#f2f4f3;stroke-linecap:round;stroke-linejoin:round;}.cls-37{fill:#d0cdc6;}</style><clipPath id="clip-path"><circle class="cls-1" cx="239.41" cy="56.48" r="56.48"/></clipPath></defs><g class="cls-2"><g id="Layer_2" data-name="Layer 2"><g id="Option_1" data-name="Option 1"><path class="cls-3" d="M167.55,23C75.93,23,36,50.23,36,50.23S-23.91,78.8,10.85,153.46c27.67,59.42,126.76,108,175.38,86.89s44.26-47.83,97.67-86.49S325,84.51,315.39,69C315.39,69,285.61,23,167.55,23Z"/><ellipse class="cls-4" cx="116.66" cy="247.26" rx="107.6" ry="7.49"/><rect class="cls-5" x="79.06" y="207.75" width="44.93" height="6.6"/><polygon class="cls-6" points="141.16 246.72 135.57 246.72 109.21 173.31 114.81 173.31 141.16 246.72"/><polygon class="cls-6" points="96.04 246.72 101.63 246.72 108.22 173.31 102.63 173.31 96.04 246.72"/><polygon class="cls-6" points="63.1 246.72 68.69 246.72 95.05 173.31 89.45 173.31 63.1 246.72"/><path class="cls-7" d="M70.62,121.38h44.94A5.42,5.42,0,0,1,121,126.8V174a0,0,0,0,1,0,0h-49a3.55,3.55,0,0,1-3.55-3.55v-46.8A2.23,2.23,0,0,1,70.62,121.38Z"/><path class="cls-7" d="M91.28,174h44.09a3.5,3.5,0,0,1,3.5,3.5v0a3.5,3.5,0,0,1-3.5,3.5H91.28a0,0,0,0,1,0,0v-7A0,0,0,0,1,91.28,174Z"/><path class="cls-8" d="M72.17,166.45v-42.1a3,3,0,0,0-3-3h0a3,3,0,0,0-3,3V167a14,14,0,0,0,14,14H90.48a3.51,3.51,0,0,0,3.5-3.51h0a3.5,3.5,0,0,0-3.5-3.5H79.69A7.52,7.52,0,0,1,72.17,166.45Z"/><path class="cls-9" d="M119.72,173.31H96.1A16.32,16.32,0,0,1,80.55,152l3.9-12.21,34.65-4.19Z"/><polygon class="cls-10" points="123.25 90.11 133.21 125.59 123.25 125.59 112.77 107.85 123.25 90.11"/><path class="cls-11" d="M132.75,124l25.55,4.94-.7,2.13s-22.66,5.4-34.35-5.44Z"/><path class="cls-11" d="M158.3,128.9l11-1-3,2.74a6.81,6.81,0,0,1-8.64.39h0Z"/><path class="cls-11" d="M169.28,127.9l2,4.49s-2.9.66-2.85-3.72Z"/><path class="cls-11" d="M166.85,128.49l1.81,4.74S165.32,133.6,166.85,128.49Z"/><path class="cls-11" d="M169.28,127.9l3.74,3s-2.52,1.33-4-2.37Z"/><rect class="cls-12" x="117.57" y="131.09" width="46.4" height="3.3"/><path class="cls-12" d="M123.25,90.11l-11-4.45h-13l-16.63,5,7.47,31.6-6.82,17.06h32.22L113,121.42l.1-.31A7.13,7.13,0,0,1,116.7,117c2.88-1.45,4.55-3.4,4.79-5.48a10.93,10.93,0,0,0-.19-3.11,30.65,30.65,0,0,1,.92-15.18Z"/><path class="cls-10" d="M117.28,118a7.81,7.81,0,0,0,3.9-5.22s-4,3.55-17.65,2.27c-15.8-1.47-6,10.21-11.59,24.23h23.52L113,121.42l.1-.31C113.68,119.31,115.59,118.84,117.28,118Z"/><polygon class="cls-13" points="110.23 94.37 99.22 85.66 105.05 73.86 114.94 73.86 110.23 94.37"/><polygon class="cls-11" points="112.54 84.32 107.15 77.6 114.94 73.86 112.54 84.32"/><path class="cls-14" d="M104.5,49.62a10.2,10.2,0,0,1,5.81-2.13c2.82,0,10.07,3,12.77,9.79s3.71,12.57,1,20.28l-11.9-3.7Z"/><path class="cls-13" d="M122.86,66.76c.54,6.14-1.48,13.66-7.61,14.2S100,74.2,99.41,68.07,98.34,51.73,106.66,51C118.75,49.93,122.32,60.63,122.86,66.76Z"/><path class="cls-15" d="M118,61.82a2.9,2.9,0,0,1,3.09.31"/><path class="cls-14" d="M98.64,67.1s14.44-.16,17.62-12.76c0,0,2.2.37,5.23,3.78,0,0-1.45-7.45-13.49-7.45C95.73,50.67,98.64,67.1,98.64,67.1Z"/><path class="cls-15" d="M116,53.39s2.38,9.82-13,13.09"/><path class="cls-14" d="M104.5,64.82s-2.38,7.5,1.2,14.63c0,0-11.73,1.54-19.47-7.13C86,64.5,90,56.92,94.86,51.87c4.11-4.22,15.78-5.6,18.74,2.47C113.6,54.34,105.55,54.1,104.5,64.82Z"/><path class="cls-12" d="M119,72.32a46.24,46.24,0,0,1-7.09,0,6.82,6.82,0,0,0,5.35,2.38C118,74.64,119,72.32,119,72.32Z"/><ellipse class="cls-14" cx="111.91" cy="66.51" rx="0.86" ry="1.56"/><ellipse class="cls-14" cx="119.63" cy="65.54" rx="0.86" ry="1.56"/><ellipse class="cls-13" cx="101.2" cy="69.79" rx="3.57" ry="4.6" transform="translate(-18.14 40.31) rotate(-20.71)"/><rect class="cls-16" x="99.08" y="57.16" width="1.74" height="9.32"/><rect class="cls-17" x="97.92" y="57.16" width="1.74" height="9.32"/><path class="cls-16" d="M101.82,59.26V54.75a5.83,5.83,0,0,1,2.79-4.84c.86-.52,3.3-2,3.3-2s-4.24,0-6.12.73l-.5.19A5.16,5.16,0,0,0,98,53.59v5.67Z"/><path class="cls-17" d="M100.66,59.26V54.75a5.14,5.14,0,0,1,2.79-4.58l4.46-2.31-1.36-.11a13.42,13.42,0,0,0-5.92.84l-.5.19a5.16,5.16,0,0,0-3.3,4.81v5.67Z"/><circle class="cls-16" cx="99.57" cy="68.63" r="4.93"/><circle class="cls-18" cx="98.6" cy="68.63" r="4.93"/><circle class="cls-17" cx="98.6" cy="68.63" r="3.09"/><circle class="cls-18" cx="98.6" cy="68.63" r="1.4"/><polygon class="cls-18" points="116.12 78.49 104.4 77.14 98.28 68.86 98.92 68.39 104.83 76.38 116.22 77.69 116.12 78.49"/><rect class="cls-17" x="112.99" y="76.73" width="3.91" height="2.16" rx="0.64"/><polygon class="cls-10" points="90.9 109.64 88.66 116.26 87.32 111.68 90.9 109.64"/><polygon class="cls-12" points="82.59 90.61 68.39 126.02 80.12 126.02 90.9 109.64 82.59 90.61"/><path class="cls-19" d="M145.11,134.39H134.94a5.09,5.09,0,1,1,10.17,0Z"/><path class="cls-20" d="M81.79,123.47l49.36,5.43-.69,2.13s-38.52,13.16-62.07-5Z"/><path class="cls-20" d="M131.15,128.9l11-1-3,2.74a6.81,6.81,0,0,1-8.64.39h0Z"/><path class="cls-20" d="M142.14,127.9l2,4.49s-2.9.66-2.85-3.72Z"/><path class="cls-20" d="M139.71,128.49l1.81,4.74S138.17,133.6,139.71,128.49Z"/><path class="cls-20" d="M142.14,127.9l3.73,3s-2.51,1.33-4-2.37Z"/><path class="cls-9" d="M142.09,148.14H126.3l-7.8,84.4h2.44c18.33-49,23.6-71.11,25.11-79.7A4,4,0,0,0,142.09,148.14Z"/><path class="cls-21" d="M118.8,229.32s17.5-45.1,13-75.58c-.28-1.94-5.49-5.6-5.49-5.6Z"/><path class="cls-9" d="M126.8,148.14H113.38l-31.5,81.18,2,3.22c22.71-34.9,43.43-65.87,47.73-77.54A5.1,5.1,0,0,0,126.8,148.14Z"/><path class="cls-21" d="M108.22,162.22c-7.67,1.88-15.74-.78-17.32-5.59a7.49,7.49,0,0,1,2.77-8.49l-3.36-9-5.86.71L80.55,152A16.32,16.32,0,0,0,96.1,173.31h7.51l-21.73,56C114.48,177.45,108.22,162.22,108.22,162.22Z"/><polygon class="cls-16" points="84.08 141 119.16 141 119.31 148.14 81.79 148.14 84.08 141"/><polygon class="cls-20" points="120.94 232.53 120.94 242.59 127.24 243.28 119.02 243.28 118.5 237.13 115.6 233.32 118.8 229.32 120.94 232.53"/><path class="cls-21" d="M127.24,243.28l-1,3.44h-6.5a2,2,0,0,1-2-2v-6.78l-3.32-4.32,4.39-4.28.22,14Z"/><polygon class="cls-21" points="114.41 233.6 114.41 246.72 116.7 235.05 114.41 233.6"/><polygon class="cls-20" points="84.03 232.53 84.03 242.59 90.32 243.28 82.1 243.28 81.58 237.13 78.68 233.32 81.88 229.32 84.03 232.53"/><path class="cls-21" d="M90.32,243.28l-1,3.44h-6.5a2,2,0,0,1-2-2v-6.78l-3.33-4.32,4.39-4.28.22,14Z"/><polygon class="cls-22" points="77.49 233.6 77.49 246.72 79.78 235.05 77.49 233.6"/><path class="cls-22" d="M49.54,141H81.86a0,0,0,0,1,0,0v98.39a7.34,7.34,0,0,1-7.34,7.34H56.87a7.34,7.34,0,0,1-7.34-7.34V141A0,0,0,0,1,49.54,141Z"/><path class="cls-17" d="M44.92,141H77.25a0,0,0,0,1,0,0v98.39a7.34,7.34,0,0,1-7.34,7.34H52.26a7.34,7.34,0,0,1-7.34-7.34V141A0,0,0,0,1,44.92,141Z"/><path class="cls-22" d="M174.74,141h32.32a0,0,0,0,1,0,0v98.39a7.34,7.34,0,0,1-7.34,7.34H182.08a7.34,7.34,0,0,1-7.34-7.34V141A0,0,0,0,1,174.74,141Z"/><path class="cls-17" d="M170.13,141h32.32a0,0,0,0,1,0,0v98.39a7.34,7.34,0,0,1-7.34,7.34H177.47a7.34,7.34,0,0,1-7.34-7.34V141A0,0,0,0,1,170.13,141Z"/><rect class="cls-17" x="31.56" y="134.39" width="171.43" height="10.18" rx="4.65"/><rect class="cls-23" x="105.83" y="134.39" width="121.88" height="10.18" rx="4.65"/><rect class="cls-16" x="44.92" y="144.57" width="32.32" height="5.95"/><rect class="cls-16" x="170.13" y="144.57" width="32.32" height="5.95"/><path class="cls-24" d="M39.23,173.55h0A8.43,8.43,0,0,1,47.66,182v54.46a2.2,2.2,0,0,1-2.2,2.2H33a2.2,2.2,0,0,1-2.2-2.2V182a8.43,8.43,0,0,1,8.43-8.43Z"/><path class="cls-24" d="M46.69,206.89H41.14a4.16,4.16,0,1,1,0-8.31h5.55a5.61,5.61,0,0,0,5.6-5.61v-5.81a4.16,4.16,0,1,1,8.31,0V193A13.93,13.93,0,0,1,46.69,206.89Z"/><path class="cls-24" d="M37.88,217.84H32.06a13.93,13.93,0,0,1-13.91-13.92v-5.55a4.16,4.16,0,0,1,8.31,0v5.55a5.61,5.61,0,0,0,5.6,5.61h5.82a4.16,4.16,0,1,1,0,8.31Z"/><rect class="cls-25" x="34.42" y="183.02" width="0.69" height="2.89"/><rect class="cls-25" x="43.26" y="178.68" width="0.69" height="2.89"/><rect class="cls-25" x="38.34" y="195.48" width="0.69" height="2.89"/><rect class="cls-25" x="40.79" y="186.73" width="0.69" height="2.89"/><rect class="cls-25" x="44.57" y="211.47" width="0.69" height="2.89"/><rect class="cls-25" x="54.02" y="185.71" width="0.69" height="2.89"/><rect class="cls-25" x="34.42" y="204.66" width="0.69" height="2.89"/><rect class="cls-25" x="35.15" y="217.01" width="0.69" height="2.89"/><rect class="cls-25" x="41.65" y="204" width="0.69" height="2.89"/><rect class="cls-25" x="20.58" y="204.58" width="0.69" height="2.89"/><rect class="cls-25" x="23.9" y="199.19" width="0.69" height="2.89"/><rect class="cls-25" x="25.43" y="207.47" width="0.69" height="2.89"/><rect class="cls-25" x="45.19" y="192.97" width="0.69" height="2.89"/><rect class="cls-25" x="55.46" y="196.93" width="0.69" height="2.89"/><path class="cls-26" d="M53.51,222.66H25.24A1.26,1.26,0,0,0,24,224.09L26.91,246a4.51,4.51,0,0,0,4.48,3.91H47.85a4.51,4.51,0,0,0,4.49-4l2.43-21.86A1.26,1.26,0,0,0,53.51,222.66Z"/><polygon class="cls-27" points="53.45 235.88 53.95 231.43 24.96 231.43 25.56 235.88 53.45 235.88"/><circle class="cls-12" cx="234.84" cy="57.84" r="56.48"/><circle class="cls-25" cx="239.41" cy="56.48" r="56.48"/><g class="cls-28"><polygon class="cls-29" points="224.89 114.32 215.55 114.32 216.29 93.84 224.43 93.84 224.89 114.32"/><polygon class="cls-30" points="219.5 59.13 209.77 92.7 213.11 96.02 209.77 100.06 227.49 102.04 219.5 59.13"/><polygon class="cls-30" points="224.89 115.05 252.46 115.05 261.96 55.04 246.67 54.08 229.49 55.04 219.5 59.13 224.89 115.05"/><polygon class="cls-29" points="234.15 63.98 246.67 54.08 242.09 38.9 228.78 40.65 234.15 63.98"/><polygon class="cls-31" points="231.52 52.55 237.65 44.91 228.78 40.65 231.52 52.55"/><path class="cls-29" d="M219.77,32.57c-.61,7,1.68,15.54,8.66,16.15s15.43-7.68,16-14.66,3.2-18.58-6.27-19.42C224.45,13.43,220.39,25.59,219.77,32.57Z"/><path class="cls-15" d="M232.42,26.38a5.63,5.63,0,0,0,3.12,3.89"/><path class="cls-15" d="M221.86,26.8a4.18,4.18,0,0,0,3.34-.42"/><path class="cls-12" d="M224.16,38.9a52.68,52.68,0,0,0,8.07,0s-2.45,3-6.08,2.71C225.31,41.54,224.16,38.9,224.16,38.9Z"/><ellipse class="cls-14" cx="232.23" cy="32.29" rx="0.98" ry="1.78"/><ellipse class="cls-14" cx="223.45" cy="31.19" rx="0.98" ry="1.78"/><path class="cls-14" d="M246.67,36.9c8.67-10.37,12-12.6,0-20.91,0,0-1.17-7.88-11.47-5.35-15.87,3.92-12.95,5.35-13.47,14,0,0,8.56,1.1,15.47-2.94,0,0,.24,4.86,3.08,7.34l-.49,5.2Z"/><ellipse class="cls-29" cx="244.47" cy="36.01" rx="5.23" ry="4.06" transform="translate(124.31 251.95) rotate(-69.29)"/><polygon class="cls-30" points="249.15 55.04 245.97 47 228.2 51.13 233.21 66.27 249.15 55.04"/><polygon class="cls-32" points="228.78 52.9 238.74 52.37 229.49 55.04 228.78 52.9"/><polygon class="cls-30" points="261.96 55.04 264.23 99.45 250.24 106.79 249.15 55.04 261.96 55.04"/><rect class="cls-33" x="240.73" y="32.78" width="6.97" height="14.57" rx="1.31" transform="translate(22.99 -70.86) rotate(17.31)"/><rect class="cls-22" x="241.76" y="33.14" width="7.22" height="14.57" rx="1.31" transform="matrix(0.95, 0.3, -0.3, 0.95, 23.15, -71.19)"/><circle class="cls-33" cx="245.36" cy="34.72" r="0.74"/><path class="cls-29" d="M261.41,97.56,248,47.45l-2,.93s-1.91,38.71,6.82,53.49Z"/><path class="cls-29" d="M248,47.45l4-8.76s-10.52,2.49-6,9.69Z"/><path class="cls-29" d="M252,38.69l-4.69-4.1s-1.64,2.74,3.85,4.62Z"/><path class="cls-29" d="M245.91,42.09l2.66-1.74-2.78-3.45s-1,1.79,1.55,3.6Z"/><path class="cls-29" d="M251.12,39.21l-4.94-3.91s-1.42,2.49,4.18,4.22Z"/><polygon class="cls-32" points="224.89 115.05 219.5 59.13 228.2 115.05 224.89 115.05"/></g><path class="cls-14" d="M227.08,30.8a7.14,7.14,0,0,1-.38,1.92,7.52,7.52,0,0,1-.46,1,8.92,8.92,0,0,0-.55,1.07,2.06,2.06,0,0,0-.08,1.22,1.82,1.82,0,0,0,.49.83c.39.38.75.4.77.33s-.22-.23-.45-.6a1.5,1.5,0,0,1-.07-1.52,14.51,14.51,0,0,0,1.17-2,6.93,6.93,0,0,0,.46-2.2c0-1.29-.41-1.84-.6-1.78S227.13,29.69,227.08,30.8Z"/><path class="cls-34" d="M187.86,120H142.65a4.93,4.93,0,0,1-4.92-5.21l1.77-29.36a4.92,4.92,0,0,1,4.92-4.65h45.21a4.93,4.93,0,0,1,4.92,5.2l-1.76,29.37A4.93,4.93,0,0,1,187.86,120Z"/><path class="cls-12" d="M190.7,120H145.48a4.93,4.93,0,0,1-4.92-5.21l1.77-29.36a4.92,4.92,0,0,1,4.92-4.65h45.21a4.93,4.93,0,0,1,4.92,5.2l-1.76,29.37A4.93,4.93,0,0,1,190.7,120Z"/><path class="cls-34" d="M175,108.9H160.89l5.92,21.65a1.12,1.12,0,0,1-1.07,1.42H152v2.47h25.3a3.58,3.58,0,0,0,3.45-4.52Zm-1.08,17.76a3.19,3.19,0,1,1,3.19-3.19A3.19,3.19,0,0,1,173.92,126.66Z"/><path class="cls-34" d="M172.46,100.4h-8.08a3.49,3.49,0,0,0-3.49,3.49v5H176v-5A3.5,3.5,0,0,0,172.46,100.4Z"/><path class="cls-35" d="M174.78,100.4H166.7a3.49,3.49,0,0,0-3.49,3.49v5h15.06v-5A3.5,3.5,0,0,0,174.78,100.4Z"/><path class="cls-35" d="M184,129.72l-5.67-20.82h-15.1l.85,3.12h0l5.33,19.55a2.28,2.28,0,0,1-2,2.87h13A3.73,3.73,0,0,0,184,129.72Zm-8.9-3.06a3.19,3.19,0,1,1,3.19-3.19A3.19,3.19,0,0,1,175.08,126.66Z"/><path class="cls-12" d="M174.78,100.4H166.7a3.49,3.49,0,0,0-3.49,3.49v5h15.06v-5A3.5,3.5,0,0,0,174.78,100.4Z"/><path class="cls-12" d="M184,129.72l-5.67-20.82h-15.1l.85,3.12h0l5.33,19.55a2.28,2.28,0,0,1-2,2.87h13A3.73,3.73,0,0,0,184,129.72Zm-8.9-3.06a3.19,3.19,0,1,1,3.19-3.19A3.19,3.19,0,0,1,175.08,126.66Z"/><path class="cls-36" d="M184,129.72l-5.67-20.82h0v-5a3.5,3.5,0,0,0-3.49-3.49H166.7"/><path class="cls-36" d="M178.31,108.9,184,129.72a3.73,3.73,0,0,1-3.6,4.72"/><path class="cls-37" d="M146.58,107h0a.36.36,0,0,1-.34-.37l1-17.36a.35.35,0,1,1,.7,0l-1,17.36A.35.35,0,0,1,146.58,107Z"/><path class="cls-37" d="M148.89,107h0a.34.34,0,0,1-.33-.37l1-17.36a.34.34,0,0,1,.37-.33.35.35,0,0,1,.34.37l-1,17.36A.34.34,0,0,1,148.89,107Z"/><path class="cls-37" d="M151.2,107h0a.35.35,0,0,1-.33-.37l1-17.36a.34.34,0,0,1,.38-.33.35.35,0,0,1,.33.37l-1,17.36A.35.35,0,0,1,151.2,107Z"/><path class="cls-37" d="M153.52,107h0a.36.36,0,0,1-.34-.37l1-17.36a.34.34,0,0,1,.37-.33.35.35,0,0,1,.34.37l-1,17.36A.35.35,0,0,1,153.52,107Z"/><path class="cls-37" d="M155.83,107h0a.35.35,0,0,1-.33-.37l1-17.36a.34.34,0,0,1,.37-.33.35.35,0,0,1,.34.37l-1,17.36A.36.36,0,0,1,155.83,107Z"/><path class="cls-37" d="M182.67,107h0a.35.35,0,0,1-.33-.37l1-17.36a.34.34,0,0,1,.38-.33.35.35,0,0,1,.33.37l-1,17.36A.35.35,0,0,1,182.67,107Z"/><path class="cls-37" d="M185,107h0a.36.36,0,0,1-.34-.37l1-17.36a.34.34,0,0,1,.38-.33.35.35,0,0,1,.33.37l-1,17.36A.35.35,0,0,1,185,107Z"/><path class="cls-37" d="M187.3,107h0a.36.36,0,0,1-.34-.37l1-17.36a.34.34,0,0,1,.37-.33.35.35,0,0,1,.34.37l-1,17.36A.34.34,0,0,1,187.3,107Z"/><path class="cls-37" d="M189.61,107h0a.35.35,0,0,1-.33-.37l1-17.36a.34.34,0,0,1,.38-.33.35.35,0,0,1,.33.37l-1,17.36A.35.35,0,0,1,189.61,107Z"/><path class="cls-37" d="M191.93,107h0a.36.36,0,0,1-.34-.37l1-17.36a.36.36,0,0,1,.38-.33.35.35,0,0,1,.33.37l-1,17.36A.35.35,0,0,1,191.93,107Z"/><path class="cls-14" d="M115.55,65.53a5,5,0,0,0,.58,1.89A15.62,15.62,0,0,0,117.32,69a1,1,0,0,1-.11,1.19c-.21.3-.43.44-.4.53s.33.06.71-.24a1.5,1.5,0,0,0,.49-.69,1.46,1.46,0,0,0-.06-1.12,5.58,5.58,0,0,0-.58-.9,5.14,5.14,0,0,1-.48-.8,4.65,4.65,0,0,1-.44-1.6c-.07-.91-.1-1.42-.34-1.47S115.47,64.38,115.55,65.53Z"/><path class="cls-12" d="M234.39,37l7.52-5.27c1.31-.74,2.68-1.34,3.83-.8l.18-.37c-1.32-.63-2.81,0-4.21.82l-7.52,5.26Z"/><path class="cls-12" d="M239.91,42.15a17.23,17.23,0,0,1-4.62,3.28l-.18-.37a16.93,16.93,0,0,0,5.08-3.79Z"/><path class="cls-12" d="M221.35,44.66a13.94,13.94,0,0,1-1.75-5c-.06-.37-.2-4.85-.12-4.84,5.46.75,9.89,1.18,15.4,1.44A22.14,22.14,0,0,1,236.43,45c-6.76,5.13-8,7.75-14.39.51A8.93,8.93,0,0,1,221.35,44.66Z"/></g></g></g></svg>