<svg xmlns="http://www.w3.org/2000/svg" viewBox="0 0 185.11 73.41"><defs><style>.cls-1{fill:#f9c64b;}.cls-2{fill:#f89327;}</style></defs><g id="Layer_2" data-name="Layer 2"><g id="Option_1" data-name="Option 1"><path class="cls-1" d="M80.62,34.37v-5H76.06V23.71l-5.21,1.58v4.07H67.33v5h3.52v8.4c0,5.45,2.46,7.59,9.77,6.78V44.83c-3,.16-4.56.12-4.56-2.06v-8.4Z"/><path class="cls-1" d="M95.12,50.12A10.66,10.66,0,1,0,84.45,39.46,10.59,10.59,0,0,0,95.12,50.12Zm0-5.09a5.36,5.36,0,0,1-5.45-5.57,5.48,5.48,0,1,1,11,0A5.37,5.37,0,0,1,95.12,45Z"/><path class="cls-1" d="M116.54,32.84V29.36h-5.21V49.55h5.21V39.9c0-4.24,3.44-5.45,6.14-5.13V29A6.22,6.22,0,0,0,116.54,32.84Z"/><path class="cls-1" d="M130.15,26.94a3.24,3.24,0,0,0,3.24-3.19,3.22,3.22,0,1,0-6.43,0A3.22,3.22,0,0,0,130.15,26.94Zm-2.58,22.61h5.21V29.36h-5.21Z"/><path class="cls-1" d="M150.62,28.8a6.86,6.86,0,0,0-6,2.83V29.36h-5.21V49.55h5.21V38.65c0-3.51,1.9-5,4.44-5,2.35,0,4,1.42,4,4.16V49.55h5.21V37.16C158.25,31.79,154.9,28.8,150.62,28.8Z"/><path class="cls-1" d="M180,29.36v2.51a7.73,7.73,0,0,0-6.47-3.07,10.12,10.12,0,0,0-10.06,10.34,10.09,10.09,0,0,0,10.06,10.33A7.73,7.73,0,0,0,180,46.4v2.18c0,3.19-2,5-5.3,5-3.11,0-4.44-1.25-5.29-2.83L165,53.27c1.77,3.27,5.25,4.92,9.57,4.92,5.33,0,10.55-3,10.55-9.61V29.36Zm-5.66,15.31A5.52,5.52,0,1,1,180,39.14,5.4,5.4,0,0,1,174.36,44.67Z"/><path class="cls-2" d="M63.59,61.74a36.7,36.7,0,1,1-.17-50.25l-3.83,3.62a31.43,31.43,0,1,0,.15,43Z"/><path class="cls-2" d="M19.46,49.55h18.9V44.18H27.74l5.53-5.53c2.67-2.66,4.65-5.61,4.65-9,0-5.66-4.48-8.89-9.33-8.89a10,10,0,0,0-9.34,6l4.69,2.74a5.14,5.14,0,0,1,4.73-3.31,3.48,3.48,0,0,1,3.67,3.68c0,1.9-1.41,3.75-3.23,5.65l-9.65,9.93Z"/><path class="cls-2" d="M57.38,29.36V40.27c0,3.51-1.9,5-4.44,5-2.35,0-4-1.41-4-4.16V29.36H43.73v12.4c0,5.37,3.35,8.36,7.63,8.36a6.86,6.86,0,0,0,6-2.83v2.26h5.21V29.36Z"/></g></g></svg>