<svg xmlns="http://www.w3.org/2000/svg" viewBox="0 0 365.01 290.27"><defs><style>.cls-1{isolation:isolate;}.cls-2,.cls-6{fill:#75c189;}.cls-2{opacity:0.25;}.cls-3{mix-blend-mode:multiply;}.cls-4{fill:#eaeaea;}.cls-5{fill:#599b69;}.cls-7{fill:#fac4b6;}.cls-8{fill:#1b2e35;}.cls-9{fill:#f16854;}.cls-10{fill:#1a1a1a;}.cls-11{fill:#b23b50;}.cls-12{fill:#00302d;}.cls-13{fill:gray;}.cls-14{fill:#fff;}.cls-15{fill:#c97a32;}.cls-16{fill:#f7c2d7;}.cls-17{fill:#f7c1d6;}.cls-18{fill:#f7c0d6;}.cls-19{fill:#f7bfd5;}.cls-20{fill:#f7bed5;}.cls-21{fill:#f7bdd4;}.cls-22{fill:#f7bcd3;}.cls-23{fill:#f7bbd3;}.cls-24{fill:#f7bad2;}.cls-25{fill:#f7b9d2;}.cls-26{fill:#f7b8d1;}.cls-27{fill:#f7b7d0;}.cls-28{fill:#f7b6d0;}.cls-29{fill:#f7b5cf;}.cls-30{fill:#f7b4cf;}.cls-31{fill:#f7b3ce;}.cls-32{fill:#f7b2ce;}.cls-33{fill:#f7b1cd;}.cls-34{fill:#f7b0cc;}.cls-35{fill:#f7afcc;}.cls-36{fill:#f7aecb;}.cls-37{fill:#f6adcb;}.cls-38{fill:#f6acca;}.cls-39{fill:#f6abc9;}.cls-40{fill:#f6aac9;}.cls-41{fill:#f6a9c8;}.cls-42{fill:#f6a8c8;}.cls-43{fill:#f6a7c7;}.cls-44{fill:#f6a6c6;}.cls-45{fill:#f6a5c6;}.cls-46{fill:#f6a4c5;}.cls-47{fill:#f6a3c5;}.cls-48{fill:#f6a2c4;}.cls-49{fill:#f6a1c3;}.cls-50{fill:#f6a0c3;}.cls-51{fill:#f69fc2;}.cls-52{fill:#f69ec2;}.cls-53{fill:#f69dc1;}.cls-54{fill:#f69cc0;}.cls-55{fill:#f69bc0;}.cls-56{fill:#f69abf;}.cls-57{fill:#f699bf;}.cls-58{fill:#f698be;}.cls-59{fill:#f697be;}.cls-60{fill:#f696bd;}.cls-61{fill:#f695bc;}.cls-62{fill:#f694bc;}.cls-63{fill:#f693bb;}.cls-64{fill:#f692bb;}.cls-65{fill:#f691ba;}.cls-66{fill:#f691b9;}.cls-67{fill:#f690b9;}.cls-68{fill:#f68fb8;}.cls-69{fill:#f68eb8;}.cls-70{fill:#f68db7;}.cls-71{fill:#f68bb6;}.cls-72{fill:#f68ab6;}.cls-73{fill:#f689b5;}.cls-74{fill:#f688b5;}.cls-75{fill:#f687b4;}.cls-76{fill:#f686b3;}.cls-77{fill:#f685b3;}.cls-78{fill:#f684b2;}.cls-79{fill:#f683b2;}.cls-80{fill:#f682b1;}.cls-81{fill:#f681b0;}.cls-82{fill:#f680b0;}.cls-83{fill:#f680af;}.cls-84{fill:#f67faf;}.cls-85{fill:#f67eae;}.cls-86{fill:#f67dae;}.cls-87{fill:#f67cad;}.cls-88{fill:#f67bac;}.cls-89{fill:#f67aac;}.cls-90{fill:#f679ab;}.cls-91{fill:#f678ab;}.cls-92{fill:#f677aa;}.cls-93{fill:#f676a9;}.cls-94{fill:#f675a9;}.cls-95{fill:#f674a8;}.cls-96{fill:#f673a8;}.cls-97{fill:#382d71;}.cls-98{fill:#e89987;}.cls-99{fill:#363638;}.cls-100{fill:#a9a9a9;}.cls-101{fill:#fdd682;}.cls-102{fill:#ebad36;}.cls-103{fill:#fa5;}</style></defs><g class="cls-1"><g id="Layer_2" data-name="Layer 2"><g id="Option_1" data-name="Option 1"><path class="cls-2" d="M176.06,290.27c103.26.11,148.34-31.46,148.34-31.46s67.52-33.1,28.42-119.82C321.71,70,210.09,13.43,155.26,37.9S105.33,93.38,45.08,138.21-1.27,218.68,9.49,236.74C9.49,236.74,43,290.13,176.06,290.27Z"/><g class="cls-3"><ellipse class="cls-4" cx="201.8" cy="276.29" rx="141.14" ry="7.02"/></g><polygon class="cls-5" points="308.89 270.61 308.5 268.41 308.1 266.22 307.71 264.03 307.32 261.83 306.93 259.64 306.53 257.44 306.14 255.25 305.75 253.06 305.36 250.86 304.96 248.67 304.57 246.48 304.18 244.28 303.78 242.09 303.39 239.9 303 237.7 302.61 235.51 302.21 233.31 301.82 231.12 301.43 228.93 301.04 226.73 300.64 224.54 300.25 222.35 299.86 220.15 299.46 217.96 299.07 215.76 298.68 213.57 298.29 211.38 297.89 209.18 297.5 206.99 297.11 204.8 296.72 202.6 296.32 200.41 295.93 198.22 295.54 196.02 295.15 193.83 294.75 191.63 294.36 189.44 293.97 187.25 293.57 185.05 293.18 182.86 292.79 180.67 292.4 178.47 292 176.28 291.61 174.09 291.22 171.89 290.83 169.7 290.43 167.5 290.04 165.31 289.65 163.12 289.26 160.92 289.23 160.75 288.24 160.91 279.21 162.39 279.35 163.01 279.87 165.21 280.38 167.4 280.89 169.6 281.41 171.79 281.92 173.99 282.43 176.18 282.95 178.38 283.46 180.57 283.97 182.77 284.49 184.96 285 187.16 285.51 189.35 286.03 191.54 286.54 193.74 287.06 195.94 287.57 198.13 288.08 200.32 288.6 202.52 289.11 204.72 289.62 206.91 290.14 209.1 290.65 211.3 291.16 213.5 291.68 215.69 292.19 217.88 292.7 220.08 293.22 222.27 293.73 224.47 294.24 226.66 294.76 228.86 295.27 231.05 295.79 233.25 296.3 235.44 296.81 237.64 297.32 239.83 297.84 242.03 298.35 244.22 298.87 246.42 299.38 248.61 299.89 250.81 300.41 253 300.92 255.2 301.43 257.39 301.95 259.59 302.46 261.78 302.97 263.98 303.49 266.17 304 268.37 304.51 270.56 304.66 271.19 308.99 271.19 308.89 270.61"/><polygon class="cls-5" points="219.09 161.57 218.95 162.39 218.58 164.58 218.21 166.76 217.84 168.95 217.47 171.13 217.1 173.32 216.74 175.51 216.37 177.69 216 179.88 215.63 182.06 215.26 184.25 214.89 186.44 214.52 188.62 214.15 190.81 213.78 192.99 213.41 195.18 213.04 197.37 212.67 199.55 212.3 201.74 211.93 203.92 211.56 206.11 211.19 208.29 210.82 210.48 210.45 212.67 210.08 214.85 209.71 217.04 209.34 219.22 208.97 221.41 208.6 223.6 208.23 225.78 207.87 227.97 207.5 230.15 207.13 232.34 206.76 234.53 206.39 236.71 206.02 238.9 205.65 241.08 205.28 243.27 204.91 245.46 204.54 247.64 204.17 249.83 203.8 252.01 203.43 254.2 203.06 256.38 202.69 258.57 202.32 260.76 201.95 262.94 201.58 265.13 201.21 267.31 200.84 269.5 200.68 270.47 205.28 270.47 205.49 269.55 205.98 267.36 206.47 265.18 206.96 262.99 207.45 260.81 207.94 258.62 208.43 256.44 208.93 254.25 209.41 252.07 209.91 249.88 210.4 247.7 210.89 245.52 211.38 243.33 211.87 241.15 212.36 238.96 212.85 236.78 213.34 234.59 213.83 232.41 214.32 230.22 214.81 228.04 215.31 225.85 215.8 223.67 216.29 221.49 216.78 219.3 217.27 217.12 217.76 214.93 218.25 212.75 218.74 210.56 219.23 208.38 219.72 206.19 220.21 204.01 220.71 201.82 221.2 199.64 221.69 197.45 222.18 195.27 222.67 193.09 223.16 190.9 223.65 188.72 224.14 186.53 224.63 184.35 225.12 182.16 225.61 179.98 226.1 177.79 226.59 175.61 227.09 173.42 227.58 171.24 228.07 169.05 228.56 166.87 229.05 164.69 229.38 163.2 224.63 162.45 219.09 161.57"/><polygon class="cls-5" points="246.71 162.12 246.71 162.68 246.69 164.87 246.68 167.06 246.66 169.25 246.64 171.44 246.63 173.62 246.61 175.81 246.59 178 246.58 180.19 246.56 182.38 246.54 184.57 246.53 186.76 246.51 188.95 246.5 191.14 246.48 193.33 246.46 195.52 246.45 197.71 246.43 199.9 246.41 202.09 246.4 204.28 246.38 206.47 246.37 208.66 246.35 210.84 246.33 213.03 246.32 215.22 246.3 217.41 246.28 219.6 246.27 221.79 246.25 223.98 246.23 226.17 246.22 228.36 246.2 230.55 246.19 232.74 246.17 234.93 246.15 237.12 246.14 239.31 246.12 241.5 246.1 243.69 246.09 245.88 246.07 248.07 246.06 250.26 246.04 252.44 246.02 254.63 246.01 256.82 245.99 259.01 245.97 261.2 245.96 263.39 245.94 265.58 245.92 267.77 245.91 269.96 245.9 271.01 250.5 271.01 250.57 270.01 250.71 267.82 250.86 265.63 251 263.44 251.14 261.26 251.29 259.07 251.43 256.88 251.57 254.69 251.72 252.5 251.86 250.32 252 248.13 252.15 245.94 252.29 243.75 252.44 241.56 252.58 239.38 252.72 237.19 252.87 235 253.01 232.81 253.15 230.62 253.3 228.43 253.44 226.25 253.59 224.06 253.73 221.87 253.87 219.68 254.02 217.49 254.16 215.31 254.3 213.12 254.45 210.93 254.59 208.74 254.73 206.55 254.88 204.36 255.02 202.18 255.16 199.99 255.31 197.8 255.45 195.61 255.6 193.42 255.74 191.24 255.88 189.05 256.03 186.86 256.17 184.67 256.31 182.48 256.46 180.29 256.6 178.11 256.75 175.92 256.89 173.73 257.03 171.54 257.18 169.35 257.32 167.16 257.46 164.98 257.54 163.75 250.71 162.72 246.71 162.12"/><path class="cls-6" d="M326.89,93.42a31.67,31.67,0,0,0-1.61-4.2,31.35,31.35,0,0,0-1.63-3c-.51-.83-1.06-1.64-1.64-2.43s-1.08-1.38-1.66-2-1.08-1.16-1.66-1.72-1.09-1-1.66-1.49-1.1-.89-1.67-1.3-1.1-.78-1.67-1.14-1.11-.67-1.68-1-1.11-.58-1.68-.84-1.11-.51-1.68-.73-1.11-.43-1.68-.62-1.12-.35-1.69-.5-1.12-.28-1.69-.4-1.12-.21-1.69-.3-1.12-.15-1.69-.21-1.13-.09-1.7-.11l-.63,0-1.06,0-1.7,0-1.69,0-1.7,0-1.69,0-1.7,0-1.7,0-1.69,0-1.7,0-1.69,0-1.7,0-1.7,0-1.69,0-1.7,0-1.69,0-1.7,0-1.7,0-1.69,0h-.07c-.54,0-1.09,0-1.63,0s-1.14.06-1.7.11-1.14.11-1.7.2-1.14.17-1.7.29-1.15.24-1.71.39-1.14.33-1.71.51-1.14.4-1.71.63-1.14.47-1.71.73-1.15.56-1.71.87-1.16.65-1.72,1-1.16.76-1.72,1.17-1.17.88-1.73,1.35-1.17,1-1.73,1.58-1.18,1.2-1.73,1.85-1.2,1.43-1.75,2.19a31.72,31.72,0,0,0-1.75,2.78c-.16.27-.33.54-.48.83l-1.29,2.44L237,93.12l-1.77,3.35-1.76,3.35-1.77,3.35-1.77,3.35-1.77,3.35-1.77,3.35-1.76,3.35-1.77,3.35-1.77,3.35-1.77,3.35L217.52,130l-1.76,3.35L214,136.66,212.22,140l-1.77,3.35-1.76,3.35-1.77,3.35-7,13.2a10.44,10.44,0,0,0,6.37,14.92,10.29,10.29,0,0,0,1.69.3c.35,0,.71.07,1.08.07h63.56c.51,0,1,0,1.53,0s1.13,0,1.7-.06,1.13-.08,1.7-.13,1.13-.11,1.7-.18,1.14-.13,1.7-.22,1.13-.19,1.7-.3,1.14-.21,1.71-.33,1.14-.25,1.7-.4,1.14-.3,1.71-.46,1.14-.32,1.7-.5,1.15-.38,1.71-.59,1.15-.42,1.71-.64l1.72-.7,1.71-.78c.58-.28,1.15-.57,1.71-.86s1.15-.61,1.72-.93,1.15-.65,1.72-1,1.15-.74,1.72-1.11,1.15-.79,1.72-1.2,1.16-.85,1.72-1.29,1.17-.92,1.73-1.4,1.17-1,1.73-1.51,1.17-1.1,1.73-1.66,1.17-1.21,1.74-1.83,1.17-1.31,1.74-2,1.18-1.46,1.74-2.21,1.19-1.63,1.75-2.47,1.19-1.87,1.76-2.83,1.21-2.16,1.76-3.27c.64-1.29,1.24-2.6,1.78-3.94a54.7,54.7,0,0,0,1.81-5.18,58.07,58.07,0,0,0,2.3-15.91V102.48A31.18,31.18,0,0,0,326.89,93.42Z"/><path class="cls-5" d="M263.78,168a.32.32,0,0,1,0-.63,31.92,31.92,0,0,0,27.55-23l4-14.24a.3.3,0,0,1,.38-.22.31.31,0,0,1,.22.39l-4,14.24a32.38,32.38,0,0,1-10.42,16.12A32,32,0,0,1,263.81,168Z"/><path class="cls-7" d="M177.1,220.41l-4.31,34.67,12.14-1.25,4.1-31.54C184.46,223.48,181.6,221.86,177.1,220.41Z"/><path class="cls-8" d="M255.49,137.75l-43.31,6.71-19.3,2.28a13.17,13.17,0,0,0-11.6,12l-7,77.58a25.18,25.18,0,0,0,14,.43l12-71.22L224.61,163l40.18-15.27Z"/><path class="cls-8" d="M234.29,132.92l-.35,11s43.76,2.24,43.66,1.67,4.15-7.4,4.15-7.4l1.16-.62.14-2Z"/><path class="cls-9" d="M204.08,115.8,208.21,99l3.06-12.47c.9-3.64.54-8,3.38-10.61s7.61-3.77,11-4.79c3.22-1,6.47-1.87,9.7-2.8l9.06-2.62c.86-.25,3.11-1.38,4-1.16l13.13,3.31,10,2.52c3.15.79,7.4,2.61,9.69,5.05,3.21,3.42,4.17,7.56,6,11.79,2,4.58,3.72,9.26,5.58,13.88,2.3,5.74,4.46,11.57,6.93,17.25a10,10,0,0,1-10.7,13.9l-4.54-.69-1.31,5.07-26.34,2a55.71,55.71,0,0,1-16.78-1.27l-5.92-.83-3.81-11.39-6.14-18.64Z"/><path class="cls-7" d="M235.16,251.78l.54-29.28c-.62.26-.91.74-1.47,1.05-2.48,1.37-3.67-.13-6.48.21-1.48.17-3.78,1.56-5.65,1.25l1.26,27.77Z"/><path class="cls-8" d="M226.14,237.88a22,22,0,0,0,8.06-2.57,18.69,18.69,0,0,1,1.79-.9l2.85-66.53,29.92-7.11h0c9.36-2.19,15.22-10.5,14.86-20.1l-.21-5.43-19.25,5-20.3,5.44-12.37,1.77a15.47,15.47,0,0,0-13.26,16.12l2.49,73.67A23.47,23.47,0,0,0,226.14,237.88Z"/><path class="cls-7" d="M262.74,124.65l-7.44-2.78-3.51-2.66h0a2.08,2.08,0,0,1-3-.08L241.5,113a2.59,2.59,0,0,1-.9-2.25l.05-.4s-5.13,1.56-7.27.61-1.57-.89-1.57-.89A84,84,0,0,0,243,105.47,24.63,24.63,0,0,1,246,104.2a4.3,4.3,0,0,1,4.66,1l7.25,7s3,.75,7,1.71"/><path d="M218.38,161.46a.17.17,0,0,1-.17-.15,13.76,13.76,0,0,1,9.31-15.15h0L251,142.83a.17.17,0,0,1,.2.15.17.17,0,0,1-.15.19l-23.44,3.33a13.44,13.44,0,0,0-9.06,14.76.16.16,0,0,1-.14.19Z"/><path class="cls-10" d="M241,110.85a.19.19,0,0,1-.15-.08.18.18,0,0,1,.06-.24c1.77-1.11,3.62-2.14,5.49-3.07a.18.18,0,0,1,.23.08.18.18,0,0,1-.07.24c-1.86.92-3.7,1.94-5.47,3A.16.16,0,0,1,241,110.85Z"/><path class="cls-10" d="M243.68,113.44a.16.16,0,0,1-.14-.07.17.17,0,0,1,.05-.24l5-3.28a.17.17,0,1,1,.19.29l-5,3.28A.18.18,0,0,1,243.68,113.44Z"/><path class="cls-10" d="M245.89,116a.21.21,0,0,1-.15-.07.2.2,0,0,1,0-.25,30.66,30.66,0,0,1,5.2-3,.17.17,0,0,1,.23.09.18.18,0,0,1-.09.23,28.89,28.89,0,0,0-5.13,2.92A.19.19,0,0,1,245.89,116Z"/><path class="cls-10" d="M253.1,119.4a.18.18,0,0,1-.15-.1.16.16,0,0,1,.08-.23.68.68,0,0,0,.37-.53,1.2,1.2,0,0,0-.31-1,3.39,3.39,0,0,0-1.84-.65l-.2,0a.16.16,0,0,1-.14-.13.15.15,0,0,1,.08-.18l2.5-1.57a.18.18,0,0,1,.24.05.17.17,0,0,1-.06.24l-2.11,1.33a3.18,3.18,0,0,1,1.78.71,1.53,1.53,0,0,1,.4,1.31,1,1,0,0,1-.56.78Z"/><path d="M221.86,157.5a.17.17,0,0,1-.16-.13.17.17,0,0,1,.12-.21,18.63,18.63,0,0,1,7.21-.34.17.17,0,0,1,.14.2.16.16,0,0,1-.19.14,18.3,18.3,0,0,0-7.07.34Z"/><path d="M190.7,154.48h-.06a11.52,11.52,0,0,0-6.48-.13.18.18,0,0,1-.22-.13.18.18,0,0,1,.13-.21,12,12,0,0,1,6.68.14.18.18,0,0,1,.11.22A.17.17,0,0,1,190.7,154.48Z"/><path class="cls-9" d="M259,111.83a14.64,14.64,0,0,1-.39,12.26c2.1.72,4,1.74,6.09,2.46,1.47.51,3.15,1,4.52.26a5.15,5.15,0,0,0,2.15-3.29,12.72,12.72,0,0,0,.58-5.73,8.56,8.56,0,0,0-5-6.3C264.39,110.4,261.28,110.27,259,111.83Z"/><path class="cls-11" d="M275.19,113.72a136.44,136.44,0,0,1-16-.94.18.18,0,0,1-.16-.19.17.17,0,0,1,.2-.15,136.74,136.74,0,0,0,31.26.08.18.18,0,0,1,.19.15.18.18,0,0,1-.15.2A137.24,137.24,0,0,1,275.19,113.72Z"/><path class="cls-11" d="M282.55,131h-.05c-8.85-3-15.25-5.1-23.24-7.52a.18.18,0,0,1-.11-.22.17.17,0,0,1,.22-.11c8,2.42,14.38,4.55,23.24,7.52a.18.18,0,0,1,.11.22A.19.19,0,0,1,282.55,131Z"/><path class="cls-11" d="M266.84,123.8h0a.18.18,0,0,1-.14-.2,27.17,27.17,0,0,0,.23-9.43.17.17,0,0,1,.34-.06,27.66,27.66,0,0,1-.22,9.56A.18.18,0,0,1,266.84,123.8Z"/><path class="cls-11" d="M277.19,112.66a.16.16,0,0,1-.16-.11L270.1,95.26a.16.16,0,0,1,.09-.22.17.17,0,0,1,.23.09l6.93,17.29a.18.18,0,0,1-.1.23Z"/><path d="M238.79,168h0a.18.18,0,0,1-.17-.17l0-6a.17.17,0,0,1,.17-.17h0a.16.16,0,0,1,.17.17l0,6A.18.18,0,0,1,238.79,168Z"/><path d="M200.26,167.22h0a.18.18,0,0,1-.15-.19l.6-5.44a.17.17,0,1,1,.34,0l-.59,5.45A.17.17,0,0,1,200.26,167.22Z"/><path d="M278.55,142.35a6.06,6.06,0,0,1-4.93-2.61.17.17,0,0,1,0-.24.19.19,0,0,1,.25.05A5.69,5.69,0,0,0,279,142a.17.17,0,1,1,0,.34A3.87,3.87,0,0,1,278.55,142.35Z"/><path d="M241.54,156.81a.17.17,0,0,1-.17-.16.18.18,0,0,1,.15-.19,107.42,107.42,0,0,0,33.81-9.54.18.18,0,0,1,.23.08.17.17,0,0,1-.08.23,107.86,107.86,0,0,1-33.92,9.58Z"/><path d="M233.55,218.7h0a.16.16,0,0,1-.16-.18,442.89,442.89,0,0,0-.37-55.85.17.17,0,0,1,.34,0,439.79,439.79,0,0,1,.37,55.89A.18.18,0,0,1,233.55,218.7Z"/><path d="M227.4,232a18.41,18.41,0,0,1-5-.67.16.16,0,0,1-.12-.21.16.16,0,0,1,.21-.12,18.28,18.28,0,0,0,12.05-.82.18.18,0,0,1,.23.09.17.17,0,0,1-.09.23A18.56,18.56,0,0,1,227.4,232Z"/><path d="M182.86,231.11a13.89,13.89,0,0,1-6.26-1.48.17.17,0,0,1,.16-.31,13.54,13.54,0,0,0,10.87.57.18.18,0,1,1,.13.33A13.89,13.89,0,0,1,182.86,231.11Z"/><path class="cls-9" d="M236,252.18l2.4,10,.74,8.87a1.88,1.88,0,0,1-1.88,1.93H200a1.67,1.67,0,0,1-1.64-2l.46-2.47a5.74,5.74,0,0,1,3.57-4.32l13-5,8-9.8.33.23a9.66,9.66,0,0,0,10.63.15l1.24-.78Z"/><path class="cls-11" d="M219.56,261.35h-.08l-4.2-2a.18.18,0,0,1,.15-.32L219.5,261l6.12-7.88a.17.17,0,1,1,.27.21l-6.2,8A.16.16,0,0,1,219.56,261.35Z"/><path class="cls-11" d="M236.36,268h-31.6a.17.17,0,1,1,0-.34h31.6a.17.17,0,0,1,0,.34Z"/><path class="cls-9" d="M186.36,251.78l2.4,10,.74,8.87a1.88,1.88,0,0,1-1.88,1.93H150.37a1.67,1.67,0,0,1-1.65-2l.46-2.47a5.74,5.74,0,0,1,3.57-4.32l13-5,8-9.8.33.23a9.68,9.68,0,0,0,10.64.15l1.23-.78Z"/><path class="cls-11" d="M170,261h-.08l-4.2-2a.18.18,0,0,1-.08-.23.18.18,0,0,1,.23-.09l4.08,1.94,6.11-7.89a.18.18,0,0,1,.24,0,.19.19,0,0,1,0,.25l-6.2,8A.2.2,0,0,1,170,261Z"/><path class="cls-11" d="M186.76,267.55h-31.6a.17.17,0,1,1,0-.34h31.6a.17.17,0,0,1,0,.34Z"/><path class="cls-7" d="M248.86,58l1.78,9.18a9.24,9.24,0,0,1-.2,4.31h0a8.7,8.7,0,0,1-10.6,6h0a5,5,0,0,1-3.49-3.44l-4.13-14.61Z"/><path class="cls-12" d="M222.89,48.82a19.08,19.08,0,0,1-.84-4.64l-.23-2.3a7.53,7.53,0,0,1,.06-2.72A3.34,3.34,0,0,1,223.7,37a2.72,2.72,0,0,1,2.76.34,5,5,0,0,1,1.2,1.9l1.26,2.91a10.59,10.59,0,0,1,1,3,8.83,8.83,0,0,1-1.29,5,4.78,4.78,0,0,1-1.25,1.69C225.23,53.47,223.49,50.53,222.89,48.82Z"/><path class="cls-7" d="M224.59,34c1.45-2,4.12-2.81,6.61-3a21.55,21.55,0,0,1,14.07,4,11.94,11.94,0,0,1,3.61,3.81c1.64,3,1.28,6.71,2.31,10a2.93,2.93,0,0,1,1.3-.25,3.79,3.79,0,0,1,2.93,1.82,5.9,5.9,0,0,1,.8,3.45,5.32,5.32,0,0,1-1.59,3.74c-1.42,1.28-3.53,1.34-5.44,1.33.19,3.48-1.62,6.84-4,9.28a14.52,14.52,0,0,1-10.39,4.41,8.53,8.53,0,0,1-8-5.11c-1.36-2.83-1.6-6-1.82-9.18q-.72-10.14-1.43-20.3A6.26,6.26,0,0,1,224.59,34Z"/><path d="M236.59,72.4a.23.23,0,0,1-.23-.22.24.24,0,0,1,.22-.25,13.14,13.14,0,0,0,12.27-10.84.23.23,0,1,1,.46.08A13.76,13.76,0,0,1,244,69.73a13.9,13.9,0,0,1-7.42,2.67Z"/><path class="cls-12" d="M251,51a.85.85,0,0,1-.32-.2,20.08,20.08,0,0,1-2.45-3.93c-.81-1.4-2.43-1.8-3.24-3.19-.41-.69,0-2.39-.41-3.07-.19-.29-.9-1.76-1.22-1.81-4.16-.33-8,.84-12.11,1.22-2.08.19-4.4-.25-6.64-.27-1,0-2.21.41-2.81-.44a13.93,13.93,0,0,1-1.34-2.3,7.31,7.31,0,0,1-.65-2.83c0-2.49,1.52-4.69,3-6.7a11.87,11.87,0,0,1,5.3-4c1.75-.49,3.64.13,5.41-.27C234.8,22.9,236,22,237.32,22s2.76.87,4,1.6a18.63,18.63,0,0,0,6.6,2.27,31.94,31.94,0,0,1,3.92.59A5,5,0,0,1,255,28.71c.74,1.42.42,3.15.71,4.73s1.36,3.19,1.93,4.84c.66,1.92-.54,4.06-.55,6.09a5.81,5.81,0,0,1-.44,2.66,5.85,5.85,0,0,1-2.87,2.24c-.78.37-.36.68-1.13,1C252.15,50.57,251.52,51.1,251,51Z"/><path class="cls-7" d="M232.63,52.49a3.66,3.66,0,0,1-.58.85,9.9,9.9,0,0,0-1.43,2.4,1,1,0,0,0,.32,1.33,8.85,8.85,0,0,0,2.27,1.33.77.77,0,0,0,.64.08.62.62,0,0,0,.25-.58c0-1-.32-2.06-.32-3.1,0-.85.22-1.69.2-2.55a1.56,1.56,0,0,0-.18-.79.8.8,0,0,0-.7-.4c-.28,0-.54.26-.48.52A1.3,1.3,0,0,1,232.63,52.49Z"/><path class="cls-7" d="M250.78,48.62a2.52,2.52,0,0,0-1.34.62,2.59,2.59,0,0,0-.64,1.61,2.66,2.66,0,0,0,.33,1.71,2.36,2.36,0,0,0,1.31.91,3.68,3.68,0,0,0,2.76-.26,1.79,1.79,0,0,0,.89-.89,2.35,2.35,0,0,0,0-1.34c-.09-.48.74-1,.65-1.44-.06-.31-1-.71-1.32-.85A4.93,4.93,0,0,0,250.78,48.62Z"/><path d="M252.84,55a.23.23,0,0,1-.23-.21,3.7,3.7,0,0,0-2.14-3,.22.22,0,0,1-.11-.31.23.23,0,0,1,.3-.11,4.19,4.19,0,0,1,2.41,3.37.23.23,0,0,1-.21.25Z"/><path class="cls-7" d="M180.26,87.05l-1.95-2.86a2.52,2.52,0,0,0-1.74-1.07L167,82l-8.46-3.57h0A1.78,1.78,0,0,1,160.79,77l6.85,2.07,14.12-1.28a3.25,3.25,0,0,1,2.25.63h0a11.33,11.33,0,0,1,3.92,5.34l.3.84Z"/><path class="cls-7" d="M172.15,79.58l-5.73-2.73-1.91-2.41a2,2,0,0,0-2.37-.62l-.18.08,2.71,4.31,4.85,2.29Z"/><path class="cls-7" d="M183.83,78.38,179.5,76l-6.25-2.59h0a1.85,1.85,0,0,0,.66,2.45l1.75,1,.21,3.52,9.51-.17Z"/><path class="cls-7" d="M167.49,82.05l-8.54.14h0a1.43,1.43,0,0,1,1.2-1.77l6.41-.81,2.47,2Z"/><path class="cls-10" d="M181.46,79.81h-.08l-2-.81a6.62,6.62,0,0,0-3.27-.41l-5.67.74a.21.21,0,0,1-.24-.18.22.22,0,0,1,.18-.23l5.68-.74a7,7,0,0,1,3.47.44l2,.8a.21.21,0,0,1,.11.27A.21.21,0,0,1,181.46,79.81Z"/><path class="cls-9" d="M207.68,107.6,195,90.24a19.65,19.65,0,0,0-4.59-4.51l-2.91-2h0a9.86,9.86,0,0,1-6.84,3.09l-.53,0,0,.7a19.89,19.89,0,0,0,2.28,9.8l11.89,22.59a12.6,12.6,0,0,0,11.31,6.83l2,0a14,14,0,0,0,12.5-8L226.69,105Z"/><path class="cls-11" d="M225.12,109.12A.17.17,0,0,1,225,109l-4.84-16.41a.17.17,0,0,1,.12-.21.16.16,0,0,1,.21.11l4.84,16.41a.17.17,0,0,1-.11.22Z"/><path class="cls-11" d="M210.05,111a.15.15,0,0,1-.14-.07l-3.85-5.35a.17.17,0,0,1,0-.24.18.18,0,0,1,.25,0l3.85,5.35a.18.18,0,0,1,0,.24A.19.19,0,0,1,210.05,111Z"/><path class="cls-11" d="M183,91.85a11.87,11.87,0,0,1-1.33-.08.18.18,0,0,1-.16-.19.17.17,0,0,1,.2-.15,12,12,0,0,0,9.55-3.25.16.16,0,0,1,.24,0,.18.18,0,0,1,0,.25A12.3,12.3,0,0,1,183,91.85Z"/><path class="cls-13" d="M151.5,123.29H208l-.12,1a3,3,0,0,1-3,2.68l-56.09-.31Z"/><path class="cls-14" d="M177.24,116.92l-2.11-12.22L173,92.48l-.53-3.12a2.87,2.87,0,0,0-1.55-2,2.79,2.79,0,0,0-1.22-.31h-.85l-2.06,0-2.07,0-2.06,0-2.07,0-2.06,0-2.07,0-2.06,0-2.07,0-2.06,0-2.07,0-2.06,0-2.07,0-2.06,0-2.07,0-2.06,0-2.07,0-2.06,0-2.07,0-2.06,0-2.07,0-2.06,0-2.07,0-2.06,0-2.07,0-2.06,0-2.07,0-2.06,0-2.07,0-1,0a3.07,3.07,0,0,0-1.06.2,2.87,2.87,0,0,0-1.79,3.24L109,98.35l2.1,10.16,2.1,10.16,1,5a3.79,3.79,0,0,0,1.06,1.93,3.84,3.84,0,0,0,2.07,1.05,3.92,3.92,0,0,0,.59,0h61Z"/><path class="cls-14" d="M186,125.66h-4a.2.2,0,0,1-.2-.2v-1.1a.2.2,0,0,1,.2-.2h4a.2.2,0,0,1,.2.2v1.1A.2.2,0,0,1,186,125.66Zm-3.83-.4h3.63v-.69h-3.63Z"/><path class="cls-14" d="M191.84,125.66h-4a.2.2,0,0,1-.2-.2v-1.1a.2.2,0,0,1,.2-.2h4a.2.2,0,0,1,.2.2v1.1A.2.2,0,0,1,191.84,125.66Zm-3.83-.4h3.63v-.69H188Z"/><polygon class="cls-15" points="251.34 271.45 251.1 267.87 250.87 264.28 250.63 260.7 250.39 257.12 250.16 253.54 249.92 249.96 249.69 246.37 249.45 242.79 249.21 239.21 248.98 235.63 248.74 232.05 248.5 228.47 248.27 224.88 248.03 221.3 247.8 217.72 247.56 214.14 247.32 210.56 247.09 206.97 246.85 203.39 246.62 199.81 246.38 196.23 246.14 192.65 245.91 189.07 245.67 185.48 245.44 181.9 245.2 178.32 244.96 174.74 244.73 171.16 244.49 167.57 244.25 163.99 244.02 160.41 243.78 156.83 243.55 153.25 243.31 149.67 243.07 146.09 242.84 142.5 242.6 138.92 242.37 135.34 242.13 131.76 242.06 130.77 237.91 129.56 238.05 131.68 238.28 135.26 238.52 138.84 238.75 142.43 238.99 146.01 239.22 149.59 239.46 153.17 239.69 156.75 239.92 160.34 240.16 163.92 240.39 167.5 240.63 171.08 240.86 174.66 241.09 178.24 241.33 181.82 241.56 185.41 241.8 188.99 242.03 192.57 242.26 196.15 242.5 199.73 242.73 203.32 242.97 206.9 243.2 210.48 243.43 214.06 243.67 217.64 243.9 221.22 244.14 224.81 244.37 228.39 244.6 231.97 244.84 235.55 245.07 239.13 245.31 242.72 245.54 246.3 245.78 249.88 246.01 253.46 246.24 257.04 246.48 260.62 246.71 264.2 246.95 267.79 247.18 271.37 247.2 271.65 251.35 271.65 251.34 271.45"/><polygon class="cls-15" points="99.06 132.64 98.83 136.21 98.59 139.79 98.36 143.36 98.12 146.93 97.88 150.5 97.65 154.08 97.41 157.65 97.18 161.22 96.94 164.8 96.71 168.37 96.47 171.94 96.23 175.51 96 179.09 95.76 182.66 95.53 186.23 95.29 189.81 95.06 193.38 94.82 196.95 94.59 200.53 94.35 204.1 94.11 207.67 93.88 211.24 93.64 214.82 93.41 218.39 93.17 221.96 92.94 225.53 92.7 229.11 92.47 232.68 92.23 236.25 92 239.83 91.76 243.4 91.52 246.97 91.29 250.54 91.05 254.12 90.82 257.69 90.58 261.26 90.35 264.84 90.11 268.41 89.9 271.65 94.05 271.65 94.26 268.49 94.49 264.92 94.72 261.34 94.96 257.77 95.19 254.2 95.42 250.62 95.66 247.05 95.89 243.48 96.13 239.9 96.36 236.33 96.59 232.76 96.83 229.19 97.06 225.61 97.29 222.04 97.53 218.47 97.76 214.89 97.99 211.32 98.23 207.75 98.46 204.18 98.69 200.6 98.93 197.03 99.16 193.46 99.39 189.88 99.63 186.31 99.86 182.74 100.09 179.16 100.33 175.59 100.56 172.02 100.8 168.45 101.03 164.87 101.26 161.3 101.5 157.73 101.73 154.15 101.96 150.58 102.2 147.01 102.43 143.44 102.66 139.86 102.9 136.29 103.13 132.72 103.34 129.56 99.19 130.77 99.06 132.64"/><polygon class="cls-16" points="67.2 126.53 67.17 132.2 62.87 132.2 62.87 126.53 67.2 126.53"/><polygon class="cls-16" points="69.76 126.53 69.72 132.2 67.17 132.2 67.2 126.53 69.76 126.53"/><polygon class="cls-17" points="72.32 126.53 72.28 132.2 69.72 132.2 69.76 126.53 72.32 126.53"/><polygon class="cls-18" points="74.87 126.53 74.83 132.2 72.28 132.2 72.32 126.53 74.87 126.53"/><polygon class="cls-19" points="77.43 126.53 77.39 132.2 74.83 132.2 74.87 126.53 77.43 126.53"/><polygon class="cls-20" points="79.98 126.53 79.94 132.2 77.39 132.2 77.43 126.53 79.98 126.53"/><polygon class="cls-21" points="82.54 126.53 82.5 132.2 79.94 132.2 79.98 126.53 82.54 126.53"/><polygon class="cls-22" points="85.09 126.53 85.05 132.2 82.5 132.2 82.54 126.53 85.09 126.53"/><polygon class="cls-23" points="87.65 126.53 87.61 132.2 85.05 132.2 85.09 126.53 87.65 126.53"/><polygon class="cls-24" points="90.2 126.53 90.16 132.2 87.61 132.2 87.65 126.53 90.2 126.53"/><polygon class="cls-25" points="92.76 126.53 92.72 132.2 90.16 132.2 90.2 126.53 92.76 126.53"/><polygon class="cls-26" points="95.31 126.53 95.27 132.2 92.72 132.2 92.76 126.53 95.31 126.53"/><polygon class="cls-27" points="97.87 126.53 97.83 132.2 95.27 132.2 95.31 126.53 97.87 126.53"/><polygon class="cls-28" points="100.42 126.53 100.38 132.2 97.83 132.2 97.87 126.53 100.42 126.53"/><polygon class="cls-29" points="102.98 126.53 102.94 132.2 100.38 132.2 100.42 126.53 102.98 126.53"/><polygon class="cls-30" points="105.53 126.53 105.5 132.2 102.94 132.2 102.98 126.53 105.53 126.53"/><polygon class="cls-31" points="108.09 126.53 108.05 132.2 105.5 132.2 105.53 126.53 108.09 126.53"/><polygon class="cls-32" points="110.65 126.53 110.61 132.2 108.05 132.2 108.09 126.53 110.65 126.53"/><polygon class="cls-33" points="113.2 126.53 113.16 132.2 110.61 132.2 110.65 126.53 113.2 126.53"/><polygon class="cls-34" points="115.76 126.53 115.72 132.2 113.16 132.2 113.2 126.53 115.76 126.53"/><polygon class="cls-35" points="118.31 126.53 118.27 132.2 115.72 132.2 115.76 126.53 118.31 126.53"/><polygon class="cls-36" points="120.87 126.53 120.83 132.2 118.27 132.2 118.31 126.53 120.87 126.53"/><polygon class="cls-37" points="123.42 126.53 123.38 132.2 120.83 132.2 120.87 126.53 123.42 126.53"/><polygon class="cls-38" points="125.98 126.53 125.94 132.2 123.38 132.2 123.42 126.53 125.98 126.53"/><polygon class="cls-39" points="128.53 126.53 128.49 132.2 125.94 132.2 125.98 126.53 128.53 126.53"/><polygon class="cls-40" points="131.09 126.53 131.05 132.2 128.49 132.2 128.53 126.53 131.09 126.53"/><polygon class="cls-41" points="133.64 126.53 133.6 132.2 131.05 132.2 131.09 126.53 133.64 126.53"/><polygon class="cls-42" points="136.2 126.53 136.16 132.2 133.6 132.2 133.64 126.53 136.2 126.53"/><polygon class="cls-43" points="138.75 126.53 138.71 132.2 136.16 132.2 136.2 126.53 138.75 126.53"/><polygon class="cls-44" points="141.31 126.53 141.27 132.2 138.71 132.2 138.75 126.53 141.31 126.53"/><polygon class="cls-45" points="143.87 126.53 143.82 132.2 141.27 132.2 141.31 126.53 143.87 126.53"/><polygon class="cls-46" points="146.42 126.53 146.38 132.2 143.82 132.2 143.87 126.53 146.42 126.53"/><polygon class="cls-47" points="148.97 126.53 148.94 132.2 146.38 132.2 146.42 126.53 148.97 126.53"/><polygon class="cls-48" points="151.53 126.53 151.49 132.2 148.94 132.2 148.97 126.53 151.53 126.53"/><polygon class="cls-49" points="154.09 126.53 154.05 132.2 151.49 132.2 151.53 126.53 154.09 126.53"/><polygon class="cls-50" points="156.64 126.53 156.6 132.2 154.05 132.2 154.09 126.53 156.64 126.53"/><polygon class="cls-51" points="159.2 126.53 159.16 132.2 156.6 132.2 156.64 126.53 159.2 126.53"/><polygon class="cls-52" points="161.75 126.53 161.71 132.2 159.16 132.2 159.2 126.53 161.75 126.53"/><polygon class="cls-53" points="164.31 126.53 164.27 132.2 161.71 132.2 161.75 126.53 164.31 126.53"/><polygon class="cls-54" points="166.86 126.53 166.82 132.2 164.27 132.2 164.31 126.53 166.86 126.53"/><polygon class="cls-55" points="169.42 126.53 169.38 132.2 166.82 132.2 166.86 126.53 169.42 126.53"/><polygon class="cls-56" points="171.97 126.53 171.93 132.2 169.38 132.2 169.42 126.53 171.97 126.53"/><polygon class="cls-57" points="174.53 126.53 174.49 132.2 171.93 132.2 171.97 126.53 174.53 126.53"/><polygon class="cls-58" points="177.08 126.53 177.04 132.2 174.49 132.2 174.53 126.53 177.08 126.53"/><polygon class="cls-59" points="179.64 126.53 179.6 132.2 177.04 132.2 177.08 126.53 179.64 126.53"/><polygon class="cls-60" points="182.19 126.53 182.15 132.2 179.6 132.2 179.64 126.53 182.19 126.53"/><polygon class="cls-61" points="184.75 126.53 184.71 132.2 182.15 132.2 182.19 126.53 184.75 126.53"/><polygon class="cls-62" points="187.31 126.53 187.26 132.2 184.71 132.2 184.75 126.53 187.31 126.53"/><polygon class="cls-63" points="189.86 126.53 189.82 132.2 187.26 132.2 187.31 126.53 189.86 126.53"/><polygon class="cls-64" points="192.42 126.53 192.38 132.2 189.82 132.2 189.86 126.53 192.42 126.53"/><polygon class="cls-65" points="194.97 126.53 194.93 132.2 192.38 132.2 192.42 126.53 194.97 126.53"/><polygon class="cls-66" points="197.53 126.53 197.49 132.2 194.93 132.2 194.97 126.53 197.53 126.53"/><polygon class="cls-67" points="200.08 126.53 200.04 132.2 197.49 132.2 197.53 126.53 200.08 126.53"/><polygon class="cls-68" points="202.64 126.53 202.6 132.2 200.04 132.2 200.08 126.53 202.64 126.53"/><polygon class="cls-69" points="205.19 126.53 205.15 132.2 202.6 132.2 202.64 126.53 205.19 126.53"/><polygon class="cls-70" points="207.75 126.53 207.71 132.2 205.15 132.2 205.19 126.53 207.75 126.53"/><polygon class="cls-71" points="210.3 126.53 210.26 132.2 207.71 132.2 207.75 126.53 210.3 126.53"/><polygon class="cls-72" points="212.86 126.53 212.82 132.2 210.26 132.2 210.3 126.53 212.86 126.53"/><polygon class="cls-73" points="215.41 126.53 215.37 132.2 212.82 132.2 212.86 126.53 215.41 126.53"/><polygon class="cls-74" points="217.97 126.53 217.93 132.2 215.37 132.2 215.41 126.53 217.97 126.53"/><polygon class="cls-75" points="220.52 126.53 220.48 132.2 217.93 132.2 217.97 126.53 220.52 126.53"/><polygon class="cls-76" points="223.08 126.53 223.04 132.2 220.48 132.2 220.52 126.53 223.08 126.53"/><polygon class="cls-77" points="225.63 126.53 225.59 132.2 223.04 132.2 223.08 126.53 225.63 126.53"/><polygon class="cls-78" points="228.19 126.53 228.15 132.2 225.59 132.2 225.63 126.53 228.19 126.53"/><polygon class="cls-79" points="230.75 126.53 230.71 132.2 228.15 132.2 228.19 126.53 230.75 126.53"/><polygon class="cls-80" points="233.3 126.53 233.26 132.2 230.71 132.2 230.75 126.53 233.3 126.53"/><polygon class="cls-81" points="235.86 126.53 235.82 132.2 233.26 132.2 233.3 126.53 235.86 126.53"/><polygon class="cls-82" points="238.41 126.53 238.37 132.2 235.82 132.2 235.86 126.53 238.41 126.53"/><polygon class="cls-83" points="240.97 126.53 240.93 132.2 238.37 132.2 238.41 126.53 240.97 126.53"/><polygon class="cls-84" points="243.52 126.53 243.48 132.2 240.93 132.2 240.97 126.53 243.52 126.53"/><polygon class="cls-85" points="246.08 126.53 246.04 132.2 243.48 132.2 243.52 126.53 246.08 126.53"/><polygon class="cls-86" points="248.63 126.53 248.59 132.2 246.04 132.2 246.08 126.53 248.63 126.53"/><polygon class="cls-87" points="251.19 126.53 251.15 132.2 248.59 132.2 248.63 126.53 251.19 126.53"/><polygon class="cls-88" points="253.74 126.53 253.7 132.2 251.15 132.2 251.19 126.53 253.74 126.53"/><polygon class="cls-89" points="256.3 126.53 256.26 132.2 253.7 132.2 253.74 126.53 256.3 126.53"/><polygon class="cls-90" points="258.85 126.53 258.81 132.2 256.26 132.2 256.3 126.53 258.85 126.53"/><polygon class="cls-91" points="261.41 126.53 261.37 132.2 258.81 132.2 258.85 126.53 261.41 126.53"/><polygon class="cls-92" points="263.96 126.53 263.93 132.2 261.37 132.2 261.41 126.53 263.96 126.53"/><polygon class="cls-93" points="266.52 126.53 266.48 132.2 263.93 132.2 263.96 126.53 266.52 126.53"/><polygon class="cls-94" points="269.08 126.53 269.04 132.2 266.48 132.2 266.52 126.53 269.08 126.53"/><polygon class="cls-95" points="271.63 126.53 271.59 132.2 269.04 132.2 269.08 126.53 271.63 126.53"/><polygon class="cls-96" points="271.59 132.2 271.63 126.53 272.03 126.53 272.03 132.2 271.59 132.2"/><rect class="cls-15" x="62.87" y="126.53" width="209.16" height="5.67"/><path class="cls-97" d="M94.59,123.3H87.92a4.27,4.27,0,0,1-4.21-3.54l-.89-5.14a4.27,4.27,0,0,1,4.21-5h7.56ZM87,110.81a3.09,3.09,0,0,0-2.37,1.1,3.12,3.12,0,0,0-.68,2.51l.9,5.14a3.07,3.07,0,0,0,3,2.56h5.49V110.81Z"/><path class="cls-9" d="M96.44,107.06h1.24a7,7,0,0,1,7,7v12.6a0,0,0,0,1,0,0H89.41a0,0,0,0,1,0,0v-12.6A7,7,0,0,1,96.44,107.06Z" transform="translate(194.12 233.75) rotate(180)"/><path class="cls-14" d="M230.63,62.52s5.77-.19,8.69-1.6c0,0,.86,5.67-4,5.82C231.4,66.85,230.63,62.52,230.63,62.52Z"/><path class="cls-98" d="M238.47,56.58c.1.72,1.67,1.1,3.5.84s3.25-1.05,3.14-1.77-1.67-1.1-3.5-.85S238.37,55.85,238.47,56.58Z"/><path class="cls-98" d="M225.1,59.73a7.82,7.82,0,0,0,.81-.07c1.83-.26,3.24-1,3.14-1.77s-1.67-1.1-3.5-.85c-.25,0-.49.08-.72.14Z"/><path class="cls-99" d="M238,52.58c.14,1,.7,1.74,1.26,1.66s.89-.94.75-1.94-.7-1.73-1.25-1.65S237.88,51.59,238,52.58Z"/><path class="cls-99" d="M228.2,54c.14,1,.7,1.74,1.26,1.66s.89-1,.75-1.94-.7-1.73-1.25-1.65S228.07,53,228.2,54Z"/><path class="cls-99" d="M234,58.24a.41.41,0,1,0-.12-.81,2.82,2.82,0,0,1-2.59-.8c1.16-3.58,2.31-7.19,2.32-7.23a.42.42,0,0,0-.27-.52.43.43,0,0,0-.52.27s-1.2,3.79-2.38,7.44a.43.43,0,0,0,0,.35A3.53,3.53,0,0,0,234,58.24Z"/><path class="cls-99" d="M242.35,47.34c-.37-1-1.52-2.86-4.89-2.55a.88.88,0,0,0-.79.77h0a.88.88,0,0,0,.84,1,4,4,0,0,1,3.2,1.69.89.89,0,0,0,1.29.16l.09-.08A.89.89,0,0,0,242.35,47.34Z"/><path class="cls-99" d="M225.19,49.73c.08-1.08.68-3.17,4-3.78a.88.88,0,0,1,1,.52h0a.88.88,0,0,1-.53,1.19,4,4,0,0,0-2.62,2.5.88.88,0,0,1-1.2.5l-.11,0A.9.9,0,0,1,225.19,49.73Z"/><path class="cls-100" d="M143.18,107.53a3.9,3.9,0,0,0,0-3.61c-1.45-2.46-5.47-1.41-5.3,1.47S141.46,111,143.18,107.53Z"/><circle class="cls-101" cx="178.28" cy="42.91" r="11.76" transform="translate(39.31 162.55) rotate(-54.26)"/><circle class="cls-102" cx="178.28" cy="42.91" r="9.55" transform="translate(8.81 112.93) rotate(-35.98)"/><path class="cls-101" d="M177.07,36.51A3.1,3.1,0,0,1,181,39.07l-1.86.33a1.33,1.33,0,0,0-1.69-1.22c-.87.15-1.38.74-1.18,1.89a5.67,5.67,0,0,0,.6,1.56l2.7-.48.24,1.38-2.34.41a2.14,2.14,0,0,1,.09.34,3.33,3.33,0,0,1-.55,2.5l5.09-.9.28,1.61-7,1.23-.5-1a3.69,3.69,0,0,0,.74-3.14,1.92,1.92,0,0,0-.09-.32l-1.59.28-.25-1.38,1.2-.21a5.83,5.83,0,0,1-.6-1.72A3.1,3.1,0,0,1,177.07,36.51Z"/><path class="cls-101" d="M183.86,1.33a11.76,11.76,0,1,1-5,15.86A11.76,11.76,0,0,1,183.86,1.33Z"/><path class="cls-102" d="M184.88,3.29a9.55,9.55,0,1,1-4.07,12.88A9.55,9.55,0,0,1,184.88,3.29Z"/><path class="cls-101" d="M190.53,6A3.08,3.08,0,0,1,193,9.88l-1.82-.47a1.34,1.34,0,0,0-1-1.82c-.85-.21-1.56.11-1.85,1.24a5.55,5.55,0,0,0-.1,1.67l2.66.68-.35,1.36-2.3-.6c0,.12,0,.24-.06.35a3.34,3.34,0,0,1-1.54,2.05l5,1.28-.41,1.58-6.85-1.75,0-1.1a3.7,3.7,0,0,0,2-2.56,3.23,3.23,0,0,0,.06-.33l-1.57-.4.35-1.36,1.17.3a6,6,0,0,1,.16-1.81A3.1,3.1,0,0,1,190.53,6Z"/><circle class="cls-101" cx="292.61" cy="39.45" r="11.76" transform="translate(5.75 109.35) rotate(-21.37)"/><circle class="cls-102" cx="292.61" cy="39.45" r="9.55" transform="translate(106.52 268.68) rotate(-58.61)"/><path class="cls-101" d="M291.24,33.71a3.08,3.08,0,0,1,4.08,2.22l-1.82.48a1.33,1.33,0,0,0-1.79-1.08,1.42,1.42,0,0,0-1,2,5.49,5.49,0,0,0,.73,1.5l2.65-.7.36,1.35-2.3.61c0,.11.09.22.12.33a3.31,3.31,0,0,1-.34,2.54l5-1.33.42,1.58L290.5,45l-.58-.93a3.71,3.71,0,0,0,.46-3.19,3,3,0,0,0-.11-.32L288.7,41l-.36-1.36,1.17-.31a5.72,5.72,0,0,1-.74-1.66A3.09,3.09,0,0,1,291.24,33.71Z"/><rect class="cls-103" x="88.93" y="34.21" width="42.89" height="30.06" rx="5"/><polygon class="cls-14" points="119.86 41.7 118.59 45.06 117.92 43.92 111.36 47.77 113.14 50.32 101.5 57.64 100.57 56.15 110.66 49.82 108.84 47.22 117.03 42.41 116.3 41.16 119.86 41.7"/></g></g></g></svg>