<svg xmlns="http://www.w3.org/2000/svg" viewBox="0 0 38.18 38.5"><defs><style>.cls-1{fill:#fa5;}</style></defs><g id="Layer_2" data-name="Layer 2"><g id="Option_1" data-name="Option 1"><circle class="cls-1" cx="4.07" cy="8.29" r="1.01"/><circle class="cls-1" cx="7.03" cy="8.29" r="1.01"/><circle class="cls-1" cx="10.07" cy="8.29" r="1.01"/><path class="cls-1" d="M37.43,0H5.58a.76.76,0,0,0-.76.76V4.07H.76A.76.76,0,0,0,0,4.83V37.75a.76.76,0,0,0,.76.75H32.6a.76.76,0,0,0,.76-.75V34.43h4.07a.76.76,0,0,0,.75-.76V.76A.76.76,0,0,0,37.43,0ZM31.84,5.59v5.49H1.51V5.59Zm0,31.4H1.51V12.59H31.84Zm4.83-4.07H33.36V4.83a.76.76,0,0,0-.76-.76H6.34V1.51H36.67Z"/></g></g></svg>