<svg xmlns="http://www.w3.org/2000/svg" viewBox="0 0 34.09 28"><defs><style>.cls-1{fill:#fa5;}</style></defs><g id="Layer_2" data-name="Layer 2"><g id="Option_1" data-name="Option 1"><path class="cls-1" d="M31,9.16A.55.55,0,0,0,31.36,9l1.93-1.76a.57.57,0,0,0,0-.8.59.59,0,0,0-.42-.18.54.54,0,0,0-.38.15L30.59,8.18a.57.57,0,0,0-.18.39.53.53,0,0,0,.15.41A.58.58,0,0,0,31,9.16Z"/><path class="cls-1" d="M33.33,19.89a.57.57,0,0,1-.42.19.54.54,0,0,1-.38-.15l-1.94-1.76a.57.57,0,0,1-.18-.39.53.53,0,0,1,.15-.41.56.56,0,0,1,.42-.18.62.62,0,0,1,.38.14l1.93,1.76A.57.57,0,0,1,33.33,19.89Z"/><path class="cls-1" d="M33.53,12.61H32a.57.57,0,0,0,0,1.13h1.49a.57.57,0,0,0,0-1.13Z"/><path class="cls-1" d="M30.67,13.05a3.26,3.26,0,0,0-2.88-3.24H27.7V1.05a1.05,1.05,0,0,0-2-.53A13.93,13.93,0,0,1,17.12,7a18.39,18.39,0,0,1-5.36.71H5.5a5.5,5.5,0,0,0-.52,11h.07l1.88,7.7A2.13,2.13,0,0,0,9,28H10.3a2.15,2.15,0,0,0,2.08-2.65l-1.62-6.67h1a18.06,18.06,0,0,1,5.37.71,14,14,0,0,1,8.62,6.43,1,1,0,0,0,.9.53.86.86,0,0,0,.28,0,1,1,0,0,0,.78-1V16.55h.09a3.26,3.26,0,0,0,2.88-3.24ZM11.28,25.62a1,1,0,0,1-1,1.25H9a1,1,0,0,1-1-.77L6.22,18.68H9.59Zm-.12-8.08H5.49a4.37,4.37,0,0,1,0-8.74h5.66ZM26.57,25l-.19-.29a15.34,15.34,0,0,0-9-6.41,20.16,20.16,0,0,0-5-.75h-.1V8.81h.1a20.66,20.66,0,0,0,5-.75,15.34,15.34,0,0,0,9-6.41l.19-.3Zm3-11.69a2.14,2.14,0,0,1-1.71,2.09l-.13,0V10.93l.13,0a2.14,2.14,0,0,1,1.71,2.09Z"/></g></g></svg>