<svg xmlns="http://www.w3.org/2000/svg" viewBox="0 0 336.8 258.08"><defs><style>.cls-1{isolation:isolate;}.cls-19,.cls-2{fill:#75c189;}.cls-2{opacity:0.25;}.cls-3{mix-blend-mode:multiply;}.cls-4{fill:#eaeaea;}.cls-5{fill:#da7c5d;}.cls-6{fill:#134286;}.cls-21,.cls-24,.cls-26,.cls-7,.cls-9{fill:none;stroke-linecap:round;stroke-linejoin:round;}.cls-24,.cls-26,.cls-7,.cls-9{stroke:#000;}.cls-7{stroke-width:0.46px;}.cls-8{fill:#d99abf;}.cls-9{stroke-width:0.44px;}.cls-10,.cls-25{fill:#fff;}.cls-11{fill:#c97a32;}.cls-12{fill:#fa5;}.cls-13{fill:#b8563a;}.cls-14{fill:#d65642;}.cls-15{fill:#e89987;}.cls-16{fill:#dcdcdc;}.cls-17{fill:#142a35;}.cls-18{fill:#f9b08b;}.cls-20{fill:#599b69;}.cls-21{stroke:#e0e0e0;stroke-width:0.75px;}.cls-22{fill:#9b5c29;}.cls-23{fill:#ec8970;}.cls-24{stroke-width:0.45px;}.cls-25{opacity:0.22;}.cls-26{stroke-width:1.01px;}.cls-27{fill:#ffd371;}</style></defs><g class="cls-1"><g id="Layer_2" data-name="Layer 2"><g id="Option_1" data-name="Option 1"><path class="cls-2" d="M53.76,70.75s-94.18,80-33.23,129.74c36.08,29.43,82.47-5.67,125.73,23.86,55.81,38.1,103.24,22.31,139.89-12.94,27.5-26.46,27.1-29,41.31-50.61C364.31,104.72,280.3,56.53,280.3,56.53S160.54-25.29,53.76,70.75Z"/><g class="cls-3"><ellipse class="cls-4" cx="161.86" cy="251.06" rx="124.43" ry="7.02"/></g><path d="M249.1,242.17l6.09,3.35a1.76,1.76,0,0,1,.84,1.95c-.16.61-.68,1.07-2,1.1-3,.06-19.57-2.16-19.57-2.16v1.71l-6.23,0s-.39-8.85,1.49-10Z"/><path class="cls-5" d="M237.7,236.7l11.4,5.47s-4.28,3-8.94,1-10.48-5-10.48-5l.85-2.3Z"/><polygon class="cls-5" points="230.53 235.84 229.68 210.46 238.42 211 238.42 239.33 230.53 235.84"/><path d="M173.32,242.17l-6.09,3.35a1.76,1.76,0,0,0-.84,1.95c.16.61.68,1.07,2,1.1,3,.06,19.57-2.16,19.57-2.16v1.79l6.14-.08s.48-8.83-1.4-10Z"/><path class="cls-5" d="M184.72,236.7l-11.4,5.47s4.28,3,8.94,1,10.48-5,10.48-5l-.85-2.3Z"/><polygon class="cls-5" points="191.89 235.84 198.28 210.46 189.54 211 183.29 239.91 191.89 235.84"/><path class="cls-6" d="M233,88s12,19.61,11.73,36.92-4.54,103.21-4.54,103.21H225.79l-2.9-108.56-1.74-.11L198.65,228.2l-13.54-1.3L199.38,126a79.19,79.19,0,0,1,5.08-18.19c2.08-5,4.57-13.38,8.13-17.78Z"/><line class="cls-7" x1="222.81" y1="119.66" x2="214.75" y2="119.18"/><path class="cls-5" d="M253.22,68.18l10.68,16c3.74,5.85-5.19,11.87-9.23,6.27L236.48,66.14Z"/><path class="cls-8" d="M237.68,49.59c6.74-2.22,17,15.18,21.08,21.46L242.47,81.76C239.45,76.8,219.34,56.78,237.68,49.59Z"/><path class="cls-8" d="M210.84,49.39s-11.67.76-12.14,17.93l8,1.84Z"/><path class="cls-8" d="M239.37,49.32c-13.05-2.4-20.26-2.4-30.06.38-11.08,3.14-1.69,33.07.91,44.43h26l8.74-33.76C243.73,57.66,243.45,49.57,239.37,49.32Z"/><line class="cls-9" x1="239.87" y1="79.9" x2="242.98" y2="66.77"/><line class="cls-9" x1="206.4" y1="75.41" x2="204.53" y2="62.28"/><path class="cls-10" d="M220.16,53.05l8.12-5-.43-2.78h1.34a2.12,2.12,0,0,1,1.48.61l2.43,2.43-5.59,8.37a1.77,1.77,0,0,1-2.61.37Z"/><path class="cls-10" d="M217.73,45.26h-1a2.1,2.1,0,0,0-1.74.93L213.3,48.7,214,56a1,1,0,0,0,1.52.65l4.61-3.56-2.59-4.34Z"/><path class="cls-10" d="M219.36,56.51a.81.81,0,1,0,.8-.8A.8.8,0,0,0,219.36,56.51Z"/><path class="cls-10" d="M219.18,59.71a.81.81,0,0,0,1.61,0,.81.81,0,0,0-1.61,0Z"/><path class="cls-5" d="M227.25,75.06s-4.53-8-16.41-3.28l4.61,9.79,10.38-.35Z"/><polygon class="cls-5" points="227.25 75.06 259.16 80.53 257.3 92.43 225.83 81.22 227.25 75.06"/><line class="cls-9" x1="247.67" y1="78.56" x2="255.47" y2="79.9"/><path class="cls-10" d="M225,100.58l2.16-2.41L214,67.32s-23.58-4-33.23-.7Z"/><path class="cls-11" d="M180.78,66.62l5.13.7,15.26,29.94s-4.43.11-6.41-3.73Z"/><polygon class="cls-12" points="185.91 67.32 212.16 69.65 224.99 100.58 201.17 97.26 185.91 67.32"/><polygon class="cls-10" points="194.74 74.58 209.4 75.88 210.84 79.4 196.56 78.05 194.74 74.58"/><polygon class="cls-10" points="180.78 66.62 183.87 52.4 186.9 52.4 192.77 65.88 180.78 66.62"/><path class="cls-5" d="M191.86,87.94s-3.49.86-6.45-3.66-.09-6.91-.09-6.91l7.41-5.21a.77.77,0,0,1,1,.08h0a.79.79,0,0,1,0,1.13l-4.4,4.23L196,73.22a1.06,1.06,0,0,1,1.5.35h0a1.07,1.07,0,0,1-.26,1.38l-6.16,4.83,5.53-2.87a.89.89,0,0,1,1.21.39h0a.88.88,0,0,1-.27,1.11l-5.64,4.11,4.81-2.3a1,1,0,0,1,1.25.42h0a1,1,0,0,1-.28,1.21l-6.48,4.74Z"/><path class="cls-13" d="M214.5,29.25a10.11,10.11,0,0,0-1-3.73c-.82-1.62-2.08-3.18-4-2.29-3.3,1.51-.13,6.89,3.23,7.37,1,.14,1.9-.54,1.83-1.35Z"/><circle class="cls-10" cx="210.02" cy="29.71" r="0.91" transform="translate(132.55 227.16) rotate(-76.63)"/><circle cx="234.65" cy="31.85" r="8.33" transform="translate(46.2 175.25) rotate(-45)"/><path d="M232.6,10.28s2.47-1.33,5,2.37,2.18,11.43-3.07,12.84Z"/><path d="M232.6,10.28s-1.4-7.23-12.27-5.74S202.28,10.67,209.83,21Z"/><path d="M210,19a12.49,12.49,0,0,0,12.67,12.85c7.55.11,13.74-5.49,13.84-12.49S230.6,6.58,223.05,6.48A12.51,12.51,0,0,0,210,19Z"/><polygon class="cls-5" points="225.4 29.33 228.28 48.04 220.16 53.05 217.57 48.71 218.38 31.4 225.4 29.33"/><polygon class="cls-13" points="217.87 42.18 224.92 35.5 218.34 32.71 217.87 42.18"/><path class="cls-5" d="M225.16,9.37A15.28,15.28,0,0,0,218.05,9c-3.19.62-7.29,2.57-7.88,8.37-1,9.68.08,16.94,4.83,19.2,3.65,1.74,6.33,1.13,10.6-1.28,1.58-.89,3.14-4.2,3.59-6.05l1.89-5.15S236.18,12.55,225.16,9.37Z"/><path d="M214.8,18.13s.32.81-.93.95a10.76,10.76,0,0,0-2.09.35.78.78,0,0,1-.83-.21h0a.44.44,0,0,1,0-.58,3.15,3.15,0,0,1,2.09-1.05C214.53,17.41,214.8,18.13,214.8,18.13Z"/><path d="M218.56,18.11s-.43.8,1.33,1a27.25,27.25,0,0,1,3.66.7,1.39,1.39,0,0,0,1.16-.19h0a.36.36,0,0,0,0-.58A8.37,8.37,0,0,0,221,17.6C218.92,17.39,218.56,18.11,218.56,18.11Z"/><path class="cls-14" d="M214.46,31.91a2,2,0,0,0,2.08,1.4,3.88,3.88,0,0,0,3.2-2Z"/><path class="cls-14" d="M219.53,31.36s-4.69-.82-5,.5C214.54,31.86,217.81,32.35,219.53,31.36Z"/><path class="cls-9" d="M214.2,31.73a6.53,6.53,0,0,0,5.71-.57"/><path d="M229.31,26.9s-5.19-11.21,1.94-14.79c0,0,2.28-2.26,3.44,3.8C236.54,25.65,229.31,26.9,229.31,26.9Z"/><path class="cls-5" d="M227.88,29.42a10.8,10.8,0,0,1,1.62-3.74c1.09-1.57,2.63-3,4.52-1.81,3.22,2.05-.86,7.2-4.43,7.21-1.05,0-1.91-.83-1.71-1.66Z"/><path class="cls-9" d="M233.1,26.47c-2.52-.89-3.91,1.93-3.91,1.93"/><path class="cls-10" d="M229.19,30.73a.91.91,0,1,0,.91-.91A.9.9,0,0,0,229.19,30.73Z"/><path d="M230.42,12.59s-6.29,2.6-11.65,0-8.52,2.33-8.52,2.33a10,10,0,0,1,10.8-7.22C229.93,8.31,230.42,12.59,230.42,12.59Z"/><path class="cls-15" d="M220.25,27.59c0,.6,1.22,1.13,2.77,1.17s2.81-.43,2.83-1-1.23-1.13-2.78-1.17S220.26,27,220.25,27.59Z"/><path class="cls-15" d="M208.81,28.38c.22,0,.45,0,.68.05,1.54,0,2.81-.43,2.82-1s-1.22-1.13-2.77-1.17c-.21,0-.41,0-.61,0Z"/><path d="M220.42,24.24c0,.83.34,1.52.81,1.53s.86-.66.88-1.49-.34-1.52-.81-1.53S220.44,23.4,220.42,24.24Z"/><path d="M212.15,24c0,.83.34,1.52.81,1.53s.86-.65.88-1.49-.34-1.52-.81-1.53S212.17,23.2,212.15,24Z"/><path d="M216.3,28.35a.35.35,0,0,0,.35-.34.34.34,0,0,0-.33-.35,2.34,2.34,0,0,1-2-1c1.44-2.79,2.87-5.61,2.88-5.64a.34.34,0,0,0-.15-.46.35.35,0,0,0-.46.15s-1.5,3-3,5.8a.35.35,0,0,0,0,.3A3,3,0,0,0,216.3,28.35Z"/><rect class="cls-16" x="98.52" y="227.65" width="10.83" height="14.84"/><path d="M108.78,238.58l-4.28,2.85-4.75-1.5a1.66,1.66,0,0,0-1.14,0h0a1.65,1.65,0,0,0-1,1.53v6.09h32s0-5.33-8-4l-11.21-5.1A1.67,1.67,0,0,0,108.78,238.58Z"/><rect x="97.59" y="247.6" width="7.9" height="2.04" transform="translate(203.07 497.24) rotate(180)"/><polygon points="105.48 247.6 109.67 249.64 129.57 249.64 129.57 247.6 105.48 247.6"/><polygon class="cls-16" points="67.97 227.65 78.8 227.65 76.91 242.49 66.08 242.49 67.97 227.65"/><path d="M76.33,238.58l-4.27,2.85-4.76-1.5a1.63,1.63,0,0,0-1.13,0h0a1.65,1.65,0,0,0-1,1.53v6.09h32s0-5.33-8-4L78,238.45A1.69,1.69,0,0,0,76.33,238.58Z"/><rect x="65.14" y="247.6" width="7.9" height="2.04" transform="translate(138.18 497.24) rotate(180)"/><polygon points="73.04 247.6 77.22 249.64 97.13 249.64 97.13 247.6 73.04 247.6"/><path class="cls-17" d="M109.74,90.1s1.07,2.09,1.74,21.94c.13,4.08.79,11.38.83,17.94L112,233.91H95.2l-1.92-108.6L80.91,233.91l-17-.45,10-139.52,15.94-2Z"/><line class="cls-7" x1="93.28" y1="125.31" x2="101.75" y2="121.67"/><path class="cls-18" d="M108.89,96.5l16.21,35.24,5.15-.35c-6.25-24.06-6.24-24-10.84-38.86-.72-2.35-5.46-2.91-7.75-2h0C109.52,91.39,108,94.36,108.89,96.5Z"/><path class="cls-18" d="M124.64,128.58a13.71,13.71,0,0,0,.93,9.14l-.47,4.78a1.43,1.43,0,0,0,1.14,1.56h0A1.53,1.53,0,0,0,128,143l.77-2.8.27,1a7.11,7.11,0,0,1-.29,4.66L127,150c-.2.48-.75.39-.43.79h0a1.44,1.44,0,0,0,2.35-.24l3.65-4.65a8.06,8.06,0,0,0,.65-6.65l-4.67-12.35Z"/><path class="cls-10" d="M120.68,92l-1.4-22.43c-2-17.18-12.71-21.77-12.71-21.77l-.91,29.26,3.26-1.79,2.31,30.5,9.84,22.88,9.64-4Z"/><path class="cls-19" d="M89.67,43.67a47.72,47.72,0,0,0-13.33,3,32.25,32.25,0,0,0-3.47,1.55c-3,1.59-2.13,5-1.75,8.54l1.79,47.46,37.11-.9a3,3,0,0,0,2.91-3.14l-1.47-38.07c-.14-6.68-1.29-13.18-5.77-14.76-5-1.76-11.14-3.74-13.81-3.91Z"/><path class="cls-10" d="M103.43,46.61s-7.05-2.76-11.55-3.13a50.77,50.77,0,0,0-10.37,1.57l15.4,20.26Z"/><polygon class="cls-20" points="94.83 46.98 91.72 50.9 95.41 53.58 98.35 50.46 94.83 46.98"/><polygon class="cls-20" points="94.63 51.91 92.77 59.87 96.91 65.31 98.35 61.18 95.88 51.91 94.63 51.91"/><polyline class="cls-21" points="91.58 51.11 90.73 52.4 85.74 50.28"/><polyline class="cls-21" points="98.35 50.46 99.49 51.54 102.1 49.53"/><path class="cls-10" d="M74.25,47.54s-11.47,1.85-35.88,35l12.57,9.83L71.11,69C79,58.69,74.25,47.54,74.25,47.54Z"/><polygon class="cls-22" points="66.9 58.69 94.14 68.59 91.86 75.2 65.46 65.31 66.9 58.69"/><polygon class="cls-10" points="91.77 72.31 92.77 69.1 67.07 59.98 66.15 63.28 91.77 72.31"/><polygon class="cls-12" points="67.31 61.77 54.09 99.72 81.31 109.1 94.86 71.56 67.31 61.77"/><polygon class="cls-22" points="67.31 61.77 66.9 58.69 53.63 96.48 54.09 99.72 67.31 61.77"/><polygon class="cls-10" points="85 82.28 67.73 76.15 69.29 71.58 86.56 77.72 85 82.28"/><polygon class="cls-18" points="57.89 85.51 77.92 92.78 76.93 100.28 56.45 96.45 57.89 85.51"/><path class="cls-18" d="M77.92,92.78s12.79-4.33,13,.47-.5,16.3-14,7Z"/><path class="cls-18" d="M77.57,93.38l1.5-2.17a7.58,7.58,0,0,1,3.5-2.77l2.62-1a1.46,1.46,0,0,1,1.73.53h0a1.46,1.46,0,0,1-.23,1.92L83.17,93Z"/><path class="cls-10" d="M47.79,80.29l26,8.42-2.4,13.21-29-7.24A7.7,7.7,0,0,1,37.61,84h0A7.7,7.7,0,0,1,47.79,80.29Z"/><line class="cls-21" x1="57.99" y1="83.6" x2="50.94" y2="81.31"/><path class="cls-16" d="M93.43,2.85s8.78-3.93,13.33.85c3.56,3.76-2.51,10.3-5.76,9.94S93.43,2.85,93.43,2.85Z"/><path class="cls-23" d="M100.78,25.32a10.23,10.23,0,0,1,1-3.75c.82-1.63,2.09-3.2,4-2.31,3.33,1.52.13,6.94-3.25,7.41-1,.14-1.91-.53-1.84-1.35Z"/><path class="cls-16" d="M105.29,14.43A12.56,12.56,0,0,1,92.54,27.37c-7.6.11-13.84-5.52-13.94-12.57s6-12.87,13.57-13A12.59,12.59,0,0,1,105.29,14.43Z"/><polygon class="cls-18" points="88.68 24.84 87.13 43.95 94.83 46.98 97.72 44.78 96.88 26.92 88.68 24.84"/><polygon class="cls-23" points="97.39 37.78 90.29 31.05 96.92 28.24 97.39 37.78"/><path class="cls-18" d="M90.05,4.74a15.23,15.23,0,0,1,7.16-.38c3.21.63,7.34,2.58,7.93,8.43,1,9.74-.08,17.62-4.86,19.89-3.68,1.75-6.38,1.13-10.67-1.29-1.6-.9-3.17-4.79-3.62-6.65l-1.9-5.19S79,7.94,90.05,4.74Z"/><path class="cls-18" d="M87.32,25.49a10.86,10.86,0,0,0-1.64-3.76c-1.09-1.58-2.65-3-4.55-1.82-3.24,2.06.87,7.25,4.46,7.26,1.06,0,1.92-.84,1.73-1.68Z"/><path class="cls-24" d="M82.06,22.52c2.53-.9,3.93,1.94,3.93,1.94"/><path class="cls-16" d="M97.21,4.36a3.76,3.76,0,0,0-4.55,2.39c-1.74,4.58-7,6.6-11.52,5.21a11.08,11.08,0,0,1,7.74-8.43C95.58,1.61,97.21,4.36,97.21,4.36Z"/><path class="cls-16" d="M97.39,2.85S95.92-.6,89.75.09c-7.36.83-11.7,7.07-10.54,10.75C80.11,13.68,86,9.62,86,9.62Z"/><path d="M94.7,18.22c0,.92-.38,1.68-.9,1.69s-1-.72-1-1.65.38-1.69.9-1.7S94.68,17.29,94.7,18.22Z"/><path d="M103.86,18c0,.93-.38,1.69-.9,1.7S102,19,102,18s.38-1.69.9-1.7S103.84,17.07,103.86,18Z"/><path class="cls-10" d="M90,14.41c.26-.68,1.15-2,4.24-2.39a.71.71,0,0,1,.78.34h0c.1.3-.21.65-.68.75a4.75,4.75,0,0,0-2.78,1.58,1.11,1.11,0,0,1-1.15.32l-.09,0A.43.43,0,0,1,90,14.41Z"/><path class="cls-10" d="M105.8,13c-.16-.65-.86-1.82-3.93-1.63a1,1,0,0,0-.85.48h0c-.14.33.12.63.58.64a3.28,3.28,0,0,1,2.58,1.08,1,1,0,0,0,1.12.11l.09-.05C105.7,13.43,105.86,13.17,105.8,13Z"/><polyline class="cls-24" points="99.62 19.76 100.78 21.99 99.9 22.7"/><path class="cls-10" d="M100.09,23.73a1.31,1.31,0,0,0-.91-.8A3.22,3.22,0,0,0,96,24.08C94,26.14,92.25,26,91.61,25.56c0,0,3.46,4.43,8,.7A2.84,2.84,0,0,0,100.09,23.73Z"/><path class="cls-10" d="M99.55,24.78a1.64,1.64,0,0,1,1.86-1.92,3.25,3.25,0,0,1,2,1.11c1.76,1.88,2.83,1.76,3.42,1.35,0,0-2.6,4-6.7.64A3.13,3.13,0,0,1,99.55,24.78Z"/><path class="cls-25" d="M104.73,14.72l3.49,3.79s0,2.72-2.52,3l-5.36-6S100.64,14.09,104.73,14.72Z"/><path class="cls-25" d="M93.44,14.72,97.55,19s0,2.76-3.15,2.48l-6-6.34S89.68,14.64,93.44,14.72Z"/><path class="cls-26" d="M98,16.59a10.39,10.39,0,0,1-.86,3.85,2,2,0,0,1-1.67,1.08l-5,0a2.2,2.2,0,0,1-2-1.8,9.35,9.35,0,0,1-.12-3,2,2,0,0,1,1.65-1.76,56.73,56.73,0,0,1,6.68-.15A1.68,1.68,0,0,1,98,16.59Z"/><path d="M90.76,14.54l-3.26.17a.35.35,0,0,0-.33.36l0,.61a.36.36,0,0,0,.15.27l1.08.75A3.11,3.11,0,0,1,90.76,14.54Z"/><path class="cls-26" d="M100.34,16.52a10.7,10.7,0,0,0,.79,3.92,2,2,0,0,0,1.67,1.08l3.28,0a2.19,2.19,0,0,0,2-1.8,9.35,9.35,0,0,0,.12-3,2,2,0,0,0-1.65-1.76,34.86,34.86,0,0,0-4.92-.22C100.64,14.79,100.28,15.69,100.34,16.52Z"/><path d="M105.83,14.54l3.26.17a.35.35,0,0,1,.33.36l0,.61a.36.36,0,0,1-.15.27l-1.08.75A3.11,3.11,0,0,0,105.83,14.54Z"/><path class="cls-26" d="M100.34,18s-.82-.83-2.42.11"/><line class="cls-26" x1="84.25" y1="19.98" x2="88.44" y2="15.87"/><rect class="cls-12" x="267.4" y="12.68" width="42.89" height="30.06" rx="5"/><rect class="cls-10" x="273.4" y="28.44" width="4.38" height="9.78"/><rect class="cls-27" x="280.02" y="23.53" width="4.38" height="14.69"/><rect class="cls-10" x="286.65" y="19.47" width="4.38" height="18.75"/><rect class="cls-27" x="293.28" y="25.71" width="4.38" height="12.51"/><rect class="cls-10" x="299.9" y="30.88" width="4.38" height="7.34"/></g></g></g></svg>