<svg xmlns="http://www.w3.org/2000/svg" viewBox="0 0 19 19"><defs><style>.cls-1{fill:#fa5;}</style></defs><g id="Layer_2" data-name="Layer 2"><g id="Option_1" data-name="Option 1"><path class="cls-1" d="M8.85,6a.34.34,0,0,0-.34.34v4.18a.34.34,0,0,0,.34.34H13a.34.34,0,0,0,.34-.34.34.34,0,0,0-.34-.34H9.19V6.3A.34.34,0,0,0,8.85,6Z"/><path class="cls-1" d="M13.47,1.72A.46.46,0,1,0,13,1.26.47.47,0,0,0,13.47,1.72Z"/><path class="cls-1" d="M15.51,3.13a.46.46,0,0,0,0-.92.46.46,0,0,0,0,.92Z"/><path class="cls-1" d="M17.16,4.84a.46.46,0,1,0-.46-.46A.45.45,0,0,0,17.16,4.84Z"/><path class="cls-1" d="M18.33,6c-.08-.19-.26-.46-.5-.42s-.28.37-.2.58a8.44,8.44,0,0,1,.35,1A9.16,9.16,0,0,1,18.3,9.3v.2A8.8,8.8,0,1,1,9.5.7,9,9,0,0,1,11.59,1c.48.12.77-.35.27-.63a2.12,2.12,0,0,0-.75-.18A9.63,9.63,0,0,0,9.5,0a9.49,9.49,0,1,0,8.83,6Z"/></g></g></svg>