<svg xmlns="http://www.w3.org/2000/svg" viewBox="0 0 40.45 33.22"><defs><style>.cls-1{fill:#fa5;}</style></defs><g id="Layer_2" data-name="Layer 2"><g id="Option_1" data-name="Option 1"><path class="cls-1" d="M36.75,10.87a.71.71,0,0,0,.46-.17L39.5,8.61a.68.68,0,0,0,0-.95.64.64,0,0,0-.49-.22.71.71,0,0,0-.46.17L36.3,9.7a.69.69,0,0,0-.22.47.66.66,0,0,0,.18.48A.64.64,0,0,0,36.75,10.87Z"/><path class="cls-1" d="M39.54,23.61a.66.66,0,0,1-.49.22.72.72,0,0,1-.46-.18L36.3,21.56a.67.67,0,0,1-.22-.46.69.69,0,0,1,.18-.49.68.68,0,0,1,.49-.22.67.67,0,0,1,.46.18l2.29,2.09A.68.68,0,0,1,39.54,23.61Z"/><path class="cls-1" d="M39.78,15H38a.67.67,0,0,0,0,1.34h1.76a.67.67,0,1,0,0-1.34Z"/><path class="cls-1" d="M36.39,15.49A3.87,3.87,0,0,0,33,11.64l-.11,0V1.25A1.24,1.24,0,0,0,32,0a1.26,1.26,0,0,0-1.41.58A16.54,16.54,0,0,1,20.32,8.26,22,22,0,0,1,14,9.1H6.53a6.53,6.53,0,0,0-.62,13H6l2.22,9.14a2.54,2.54,0,0,0,2.47,1.94h1.53a2.54,2.54,0,0,0,2.47-3.14l-1.92-7.92H14a21.26,21.26,0,0,1,6.37.84,16.49,16.49,0,0,1,10.22,7.63,1.23,1.23,0,0,0,1.07.62,1.32,1.32,0,0,0,.34,0A1.23,1.23,0,0,0,32.87,30V19.64H33a3.88,3.88,0,0,0,3.41-3.85Zm-23,14.91a1.21,1.21,0,0,1-.23,1,1.19,1.19,0,0,1-.94.46H10.69A1.22,1.22,0,0,1,9.52,31l-2.14-8.8h4Zm-.15-9.58H6.51a5.19,5.19,0,0,1,0-10.37h6.71Zm18.28,8.84-.22-.36a18.27,18.27,0,0,0-10.67-7.6,23.92,23.92,0,0,0-5.93-.89h-.12V10.45h.12a23.92,23.92,0,0,0,5.93-.89A18.27,18.27,0,0,0,31.3,2l.22-.35Zm3.53-13.88a2.54,2.54,0,0,1-2,2.48l-.15,0V13L33,13a2.55,2.55,0,0,1,2,2.49Z"/></g></g></svg>