<svg xmlns="http://www.w3.org/2000/svg" viewBox="0 0 25.36 25.36"><defs><style>.cls-1{fill:#fa5;}</style></defs><g id="Layer_2" data-name="Layer 2"><g id="Option_1" data-name="Option 1"><path class="cls-1" d="M23.3,14.7h-2V6.14A2.46,2.46,0,0,0,18.8,3.68h-2l-.05-.28a4.1,4.1,0,0,0-8.08,0l-.05.28h-2A2.47,2.47,0,0,0,4.08,6.14V14.7h-2a2.06,2.06,0,0,0-.66,4l.23.08v6.14a.43.43,0,0,0,.43.43H23.3a.42.42,0,0,0,.42-.43V18.79l.23-.08a2.06,2.06,0,0,0-.65-4ZM16.77,4.53h2a1.61,1.61,0,0,1,1.62,1.61V14.7H18v-2A5.32,5.32,0,0,0,15.16,8l-.47-.25.43-.32a4.08,4.08,0,0,0,1.6-2.59Zm.38,8.15v2H8.2v-2a4.46,4.46,0,0,1,1.18-3l.24-.26.67-.53.42-.21a4.45,4.45,0,0,1,3.94,0l.42.21.67.53.24.26A4.45,4.45,0,0,1,17.15,12.68ZM9.43,4.1a3.25,3.25,0,1,1,3.25,3.25A3.26,3.26,0,0,1,9.43,4.1Zm-4.49,2A1.61,1.61,0,0,1,6.55,4.53h2l.05.28a4.08,4.08,0,0,0,1.6,2.59l.43.32L10.2,8a5.3,5.3,0,0,0-2.85,4.71v2H4.94ZM22.87,24.5H2.49V18.82H22.87ZM23.3,18H2.06a1.21,1.21,0,1,1,0-2.41H23.3a1.21,1.21,0,0,1,0,2.41Z"/></g></g></svg>