<svg xmlns="http://www.w3.org/2000/svg" viewBox="0 0 30.58 30.43"><defs><style>.cls-1{fill:#fa5;}</style></defs><g id="Layer_2" data-name="Layer 2"><g id="Option_1" data-name="Option 1"><path class="cls-1" d="M28.23,19.1a.76.76,0,0,0-.76.76v6.76a2.31,2.31,0,0,1-2.29,2.29H3.81a2.3,2.3,0,0,1-2.29-2.29V6.77A2.29,2.29,0,0,1,3.81,4.49h6.76a.76.76,0,0,0,.76-.76A.77.77,0,0,0,10.57,3H3.81A3.82,3.82,0,0,0,0,6.77V26.62a3.82,3.82,0,0,0,3.81,3.81H25.18A3.82,3.82,0,0,0,29,26.62V19.86A.76.76,0,0,0,28.23,19.1Z"/><path class="cls-1" d="M28.69,1a3.45,3.45,0,0,0-4.85,0L10.25,14.59a.77.77,0,0,0-.19.34L8.27,21.38a.75.75,0,0,0,.19.74.77.77,0,0,0,.75.2l6.45-1.79a.75.75,0,0,0,.33-.2L29.58,6.75a3.43,3.43,0,0,0,0-4.85ZM11.91,15.09,23,4l3.59,3.58L15.5,18.67Zm-.72,1.44,2.87,2.86-4,1.1ZM28.5,5.67l-.8.81L24.11,2.89l.81-.81a1.91,1.91,0,0,1,2.69,0L28.5,3A1.9,1.9,0,0,1,28.5,5.67Z"/></g></g></svg>