<svg xmlns="http://www.w3.org/2000/svg" viewBox="0 0 100.86 119.84"><defs><style>.cls-1{fill:#fa5;}</style></defs><g id="Layer_2" data-name="Layer 2"><g id="Layer_8" data-name="Layer 8"><path class="cls-1" d="M76.64,50.43A26.21,26.21,0,1,0,50.43,76.64,26.24,26.24,0,0,0,76.64,50.43Zm-48,0A21.84,21.84,0,1,1,50.43,72.27,21.87,21.87,0,0,1,28.59,50.43Z"/><path class="cls-1" d="M66.49,50.43A16.06,16.06,0,1,0,50.43,66.49,16.08,16.08,0,0,0,66.49,50.43Zm-27.75,0A11.69,11.69,0,1,1,50.43,62.12,11.71,11.71,0,0,1,38.74,50.43Z"/><path class="cls-1" d="M77.78,92.79a50.44,50.44,0,1,0-54.69,0c-8.53,6-13.55,15.17-13.55,24.87a2.18,2.18,0,0,0,2.18,2.18H89.14a2.19,2.19,0,0,0,2.19-2.18C91.33,108,86.3,98.81,77.78,92.79ZM4.37,50.43A46.06,46.06,0,1,1,50.43,96.49,46.11,46.11,0,0,1,4.37,50.43Zm46.06,65H14c.74-8,5.58-15.48,13.26-20.22l0,0a50.35,50.35,0,0,0,46.27,0l0,0c7.68,4.74,12.52,12.18,13.27,20.22Z"/></g></g></svg>