<svg xmlns="http://www.w3.org/2000/svg" viewBox="0 0 106.95 109.84"><defs><style>.cls-1{fill:#fa5;}</style></defs><g id="Layer_2" data-name="Layer 2"><g id="Layer_8" data-name="Layer 8"><path class="cls-1" d="M66,63.9A12.54,12.54,0,1,0,53.48,76.43,12.54,12.54,0,0,0,66,63.9ZM53.48,72.26a8.36,8.36,0,1,1,8.35-8.36A8.37,8.37,0,0,1,53.48,72.26Z"/><path class="cls-1" d="M31.75,63.9A12.54,12.54,0,1,0,19.22,76.43,12.54,12.54,0,0,0,31.75,63.9ZM19.22,72.26a8.36,8.36,0,1,1,8.35-8.36A8.37,8.37,0,0,1,19.22,72.26Z"/><path class="cls-1" d="M100.27,63.9A12.54,12.54,0,1,0,87.74,76.43,12.54,12.54,0,0,0,100.27,63.9ZM87.74,72.26a8.36,8.36,0,1,1,8.35-8.36A8.37,8.37,0,0,1,87.74,72.26Z"/><path class="cls-1" d="M87.74,79.35A19.44,19.44,0,0,0,70.61,89.68a19.37,19.37,0,0,0-34.26,0A19.44,19.44,0,0,0,19.22,79.35C8.8,79.35,0,87.77,0,98.15v9.61a2.09,2.09,0,0,0,2.09,2.08H104.86a2.08,2.08,0,0,0,2.09-2.08V98.15C107,87.77,98.15,79.35,87.74,79.35ZM53.48,83.52c8.15,0,15,6.7,15,14.63v7.52H38.44V98.15C38.44,90.22,45.32,83.52,53.48,83.52ZM4.18,98.15c0-7.93,6.89-14.63,15-14.63s15,6.7,15,14.63v7.52H4.18Zm98.6,7.52H72.7V98.15c0-7.93,6.88-14.63,15-14.63s15,6.7,15,14.63Z"/><path class="cls-1" d="M88.39,0H62a8.57,8.57,0,0,0-8.57,8.57V27.91A8.59,8.59,0,0,0,62,36.48H75.35l10.54,10a2.78,2.78,0,0,0,1.91.76,2.71,2.71,0,0,0,1.31-.33A2.75,2.75,0,0,0,90.52,44l-1.36-7.56A8.56,8.56,0,0,0,97,27.91V8.57A8.57,8.57,0,0,0,88.39,0ZM85.5,33.41a3,3,0,0,0-.64,2.43l.86,4.8-7.53-7.15a4.15,4.15,0,0,0-2.87-1.14H62a4.44,4.44,0,0,1-4.44-4.44V8.57A4.44,4.44,0,0,1,62,4.13H88.39a4.44,4.44,0,0,1,4.44,4.44V27.91a4.44,4.44,0,0,1-4.44,4.44h-.61A3,3,0,0,0,85.5,33.41Z"/><rect class="cls-1" x="62.93" y="16.12" width="24.55" height="4.13" rx="2.07"/><path class="cls-1" d="M6.68,8.57V27.91a8.56,8.56,0,0,0,7.8,8.53L13.12,44a2.77,2.77,0,0,0,4.63,2.5l10.55-10H41.63a8.58,8.58,0,0,0,8.57-8.57V8.57A8.57,8.57,0,0,0,41.63,0H15.25A8.58,8.58,0,0,0,6.68,8.57Zm9.19,23.78h-.62a4.44,4.44,0,0,1-4.43-4.44V8.57a4.44,4.44,0,0,1,4.43-4.44H41.63a4.44,4.44,0,0,1,4.44,4.44V27.91a4.44,4.44,0,0,1-4.44,4.44H28.33a4.11,4.11,0,0,0-2.87,1.14l-7.54,7.15.87-4.8a3,3,0,0,0-.65-2.43A2.92,2.92,0,0,0,15.87,32.35Z"/><rect class="cls-1" x="16.17" y="16.12" width="24.55" height="4.13" rx="2.07" transform="translate(56.89 36.38) rotate(-180)"/></g></g></svg>