<svg xmlns="http://www.w3.org/2000/svg" viewBox="0 0 464.93 502.95"><defs><style>.cls-1{fill:#5255a7;}.cls-2{fill:#fcb180;}.cls-3{fill:#f6b57f;}.cls-4{fill:#3f4250;}.cls-5{fill:#99c6f5;}.cls-6{fill:#fc6da3;}.cls-7{fill:#cee7f7;}.cls-8{fill:#6995e3;}.cls-9{fill:#fff;}.cls-10{fill:#75c189;}</style></defs><g id="Layer_2" data-name="Layer 2"><g id="Layer_8" data-name="Layer 8"><path class="cls-1" d="M448.37,154.15c-2.16-3.11-7.12-10.28-14.05-10.27-6.38,0-11.13,6.08-12.9,8.6a311.87,311.87,0,0,1,12.69,63.93c.74,8.22,3.63,48.17-10.93,66a25.67,25.67,0,0,1-2.66,2.79c-5.45,5-12,7.69-34.93,10.48a442.58,442.58,0,0,1-81.88,2.19A18.41,18.41,0,0,0,295.9,310c-.18,1.2-.71,5.72,1.36,9.5,4.26,7.8,17.28,8.33,23.09,8.49,19.56.56,35.95,1,49.66,1.15V483.49c-21.34,1.18-38.1,9.31-38.1,19.06H418.7c0-9.75-16.76-17.88-38.1-19.06V329.17c22.63-.16,36.47-1.73,44-6.36C487.72,284,461.08,172.54,448.37,154.15Z"/><path class="cls-2" d="M355.65,174.83c-5.76,5.76-11.19,9.4-18.31,10.7-6,1-12.66.38-30.42-8.1a261,261,0,0,1-45.7-27.92,13.4,13.4,0,0,0-7.06-1.31c-1.79.17-2.17.6-6.9,1.63-4,.93-6,1.36-8,1.31-3.59-.11-6.25-1.47-9.07-3-6.58-3.7-11.9-9.89-11-11.09.32-.43,1.25-.32,2.33.06,5.6,1.9,11.58,3.75,12.83,4.07,7.38,2,15.43-2.88,15.26-4.24-.11-.59-2.12-.38-5.81-2.17-1.47-.71-3.64-1.79-3.53-3.1,0-.16.05-.7,1-1.41,1.68-1.25,4-1.19,7.6-.65,5.43.76,8.26,1.19,11.74,3a31.33,31.33,0,0,1,3,1.9,4.28,4.28,0,0,1,.76.6c12.66,10,35.1,17.87,35.1,17.87,17.17,6.09,25.75,9.07,31.89,7.12,5.71-1.85,9.45-5.6,13.53-11.14a67.26,67.26,0,0,0,2.93,7C349.24,159.07,352.34,165.86,355.65,174.83Z"/><path class="cls-3" d="M328.27,501.08a4.69,4.69,0,0,1-3.7,1h-48a3.14,3.14,0,0,1-1.47-.65c-.05-.05-.6-.49-.65-.82-.33-1.08,5.75-3.58,11.62-6.41,3.75-1.79,5.55-2.66,7-3.53,1.36-.7,2.44-1.36,4.34-2.45a45.51,45.51,0,0,0,4.62-2.71,9.81,9.81,0,0,0,2.71-2.61s1.14-2-.81-10.38q-19.23-56-38.41-112.08c1.25-3.81,2.82-8,4.83-12.55a177.14,177.14,0,0,1,25.48-41.13l1.31,1.14h1.95A132,132,0,0,0,297,341c2.12,32.87,14.94,37.33,20.11,79.43,1.52,12.39,1.35,19.89,2.66,31.52a153,153,0,0,0,2.33,16.78c2,9.4,4.56,16.63,6.14,22C329.68,495.93,330.22,499.29,328.27,501.08Z"/><path class="cls-4" d="M328.27,501.08a4.84,4.84,0,0,1-3.7,1h-48a3.46,3.46,0,0,1-1.47-.65c-.06-.06-.59-.52-.65-.82-.35-1.11,5.79-3.58,11.62-6.41,3.76-1.82,5.55-2.7,7-3.53h35.14C329.68,495.89,330.21,499.32,328.27,501.08Z"/><path class="cls-4" d="M364.18,82.68c-3.1,8-6.19,15.92-9.29,23.85-.27.6-.49,1.2-.76,1.74-.71,1.63-1.47,3.15-2.12,4.62-3.31-5.76.6-9.51-1.47-17.55-2.44-9.29-9.07-9.29-12.71-18.2a17.37,17.37,0,0,1-1.2-9.45l.17.16c2.93,3.26,5.87,5.38,8.26,5.87a14.08,14.08,0,0,0,7.49-.49,13,13,0,0,0,6.2-5.33,73.54,73.54,0,0,1,3.37,7.77C363,78.17,363.64,80.56,364.18,82.68Z"/><path class="cls-5" d="M442.69,244.69q-37.65.17-75.3.28a137.81,137.81,0,0,0-.06-21.52c-1.52-18-6.79-35.64-11.68-48.62-3.31-9-6.41-15.76-7.88-18.91a67.26,67.26,0,0,1-2.93-7c-.71-2.06-1.25-4-2-6.36-2.44-7.77,2.23-15.05,9.13-29.66.65-1.47,1.41-3,2.12-4.62.27-.54.49-1.14.76-1.74a38.89,38.89,0,0,0,11.74-10.48c.1-.17.27-.33.38-.49A38.13,38.13,0,0,0,373.2,81.7c1.14,4.78,4,11.9,8.26,17,9.4,11.25,20.32,6.69,31.4,17.88a39.22,39.22,0,0,1,3.8,4.56c0,.06.06.11.06.17,1.25,2.11,2.39,4.34,3.58,6.57.39.71.71,1.47,1.09,2.17C445.46,177.87,444.59,223,442.69,244.69Z"/><path class="cls-2" d="M428.89,204.18c-.41.76-.88,1.47-.88,1.47-3.59,5-9.29,6.82-11.94,7.53-13.29,3.7-52.93,11-63.17,13-4.58.88-11.52,2.41-20,4.83-1.53.52-3.53,1.29-5.83,2.29s-2.88,1.35-6.41,2.94a25.82,25.82,0,0,1-8.94,2.71c-1.82.11-3-.06-3.41-.83a2.34,2.34,0,0,1,.18-2c.59-1.29,1.82-1.76,3.23-2.41,3.3-1.53,4.94-2.29,4.88-2.88,0-1.35-7.88-4.77-14.29-1.71-1.06.47-6.17,3.06-10.94,5.71a3.41,3.41,0,0,1-2.06.41,2.72,2.72,0,0,1-1.58-1.12c-1-2.17,6.17-8.11,10-10.94A23.24,23.24,0,0,1,305.5,219c5.29-1.71,8.11-.24,16.41-.18a55.09,55.09,0,0,0,8.76-.41c2.65-.47,6.47-1.29,10.94-2.47,11.53-2.94,16.7-5.53,33.41-12.23,20.35-8.12,23.47-8.59,25.17-12.71,1.65-3.88.18-7.41-5.17-21.29-1.3-3.35-2.47-6.53-3.65-9.65l30.05-7.58C429.25,181.89,433.07,196.53,428.89,204.18Z"/><path class="cls-2" d="M295.83,306.8a177.14,177.14,0,0,0-25.48,41.13c-2,4.56-3.58,8.74-4.83,12.55-9,27-2,37.54-18.31,67-7.72,13.91-18.91,28.95-26.63,56.17-.7,2.56-1.3,4.89-1.84,7.07-.93,4-1.58,7.28-2.07,9.78a1.71,1.71,0,0,1-.38,1,2.65,2.65,0,0,1-.81.6,4,4,0,0,1-.55.16h-50.2a1.45,1.45,0,0,1-.7-.16,1.65,1.65,0,0,1-1-1.25,1.68,1.68,0,0,1,.92-2c3.53-1.79,14.34-6.3,19-8.2,1.41-.55,2.22-.93,2.22-.93,12-4.61,14-6.14,14-6.14,5.59-4.29,7-11,7.82-14.5q24-102.69,47.92-205.26c0,4,6,10.54,16.3,20.53C277.31,290.28,285.56,298.05,295.83,306.8Z"/><path class="cls-6" d="M433.07,284.41a58,58,0,0,1-15.26,16.41c-15.49,10.92-31.35,9.07-73.41,7.88-10.48-.33-26.07-.71-45.31-.76h-1.95l-1.31-1.14c-10.27-8.75-18.52-16.52-24.61-22.39-10.32-10-16.3-16.51-16.3-20.53a.48.48,0,0,1,.06-.28,9.65,9.65,0,0,1,.27-1.25,5,5,0,0,1,3.09-2.22c12.07-3.81,96.71-14.78,105.79-15.92l78.56.48C443.18,251.38,443.45,268.06,433.07,284.41Z"/><path class="cls-7" d="M421.42,152.48l-30.05,7.58c-1.08-3.55-2.89-9.12-5.62-15.79C381.1,132.9,379,131,378.14,124.83c-.94-7,.09-18,6.64-21.64,4.18-2.29,9.18-.53,10.65,0C404,106.19,411.54,115.54,421.42,152.48Z"/><path class="cls-2" d="M373.2,81.7A38.13,38.13,0,0,1,367,95.56c-.11.16-.28.32-.38.49a38.41,38.41,0,0,1-11.69,10.43c3.05-7.93,6.14-15.81,9.24-23.8-.54-2.12-1.19-4.51-2.06-7a73.54,73.54,0,0,0-3.37-7.77,13,13,0,0,1-6.2,5.33,14.08,14.08,0,0,1-7.49.49c-2.39-.49-5.33-2.61-8.26-5.87l-.17-.16c-7.76-8.59-15.48-25-13.79-39.12a40.45,40.45,0,0,0,17.54,10.48c8.81,2.72,17.61,2.39,22.06-1.57,0,0,.11-.06.11-.11,1.09-.87,2.93-2.72,5.16-2.66,2.07.16,4.13,2.44,4.46,5a5.42,5.42,0,0,1-1.63,4.67,4.93,4.93,0,0,1-2.72,1.14c-1.36,0-2.55-.16-3.2.54-2,2.18,4.29,8,7,17.22,2.07,7.07,0,8.92,1.09,15.87C372.82,79.91,373,80.78,373.2,81.7Z"/><path class="cls-4" d="M430,100c0,3-3,13.91-9.73,27.82a33.6,33.6,0,0,0-3.58-6.57c0-.06-.06-.11-.06-.17a39.22,39.22,0,0,0-3.8-4.56c-11.08-11.19-22-6.63-31.4-17.88-4.29-5.05-7.12-12.17-8.26-17a13,13,0,0,1-.27-1.36,9.94,9.94,0,0,1-.22-1.19c-1.09-7,1-8.8-1.09-15.87-2.71-9.23-9-15.1-7.06-17.22,1.14-1.3,3.75.33,5.92-1.68a5.49,5.49,0,0,0,1.69-4.73c-.33-2.5-2.39-4.78-4.51-4.94a6.1,6.1,0,0,0-1.41.16,11.9,11.9,0,0,0-3.81,2.61c-7.77,6.84-28.41,2.88-39.55-8.91-2.45-2.5-3.7-3.81-4-6C318,16,327.07,7.6,338.86,3.14a49.64,49.64,0,0,1,6.41-2A42.43,42.43,0,0,1,353.86,0c1.36-.16,18.74-.49,30.31,11.85A43.66,43.66,0,0,1,392.38,25c3.37,8.09,1.41,10.21,4.29,16.19,4.18,8.91,9.67,6.79,15.05,15.37,6.14,9.94.33,14.94,7.06,23.42,3.37,4.24,7.07,5.81,9.67,12.06a25.16,25.16,0,0,1,.82,2.45A24.5,24.5,0,0,1,430,100Z"/><path class="cls-6" d="M365.59,28.73a7.43,7.43,0,0,0-2.93-.16,7.79,7.79,0,0,0-1.9.54c-1.58-6.19-5.11-15-13.37-21.3a32.17,32.17,0,0,0-8.53-4.67,6.29,6.29,0,0,1,8.42-.81,37.39,37.39,0,0,1,9.19,7.55A39.62,39.62,0,0,1,365.59,28.73Z"/><path class="cls-8" d="M366.3,55.24a10,10,0,0,1-2.06,4.4c-.55.66-1.85,2.23-8.86,4-1.25.32-2.55.48-3.8.76a1.92,1.92,0,0,1-1.53,1.9l-5.7,1.19A2,2,0,0,1,342,66l-.05-.27a1.91,1.91,0,0,1,1.47-2.34l5.76-1.25a2,2,0,0,1,2.06.87c1.25-.27,2.5-.43,3.75-.76,6.57-1.68,7.66-3,8.09-3.53a8.21,8.21,0,0,0,1.63-3.48c-4.83-.38-9.12-5.37-10.05-12-.87-6.47,1.74-12.34,6.09-14.13a7.79,7.79,0,0,1,1.9-.54,7.43,7.43,0,0,1,2.93.16c4.24,1.14,7.83,5.81,8.64,11.84C375.26,47.91,371.68,54.48,366.3,55.24Z"/><path class="cls-4" d="M218.74,490.71c-.93,4-1.58,7.28-2.07,9.78a1.71,1.71,0,0,1-.38,1,2.65,2.65,0,0,1-.81.6H164a1.65,1.65,0,0,1-1-1.25,1.68,1.68,0,0,1,.92-2c3.53-1.79,14.34-6.3,19-8.2Z"/><path class="cls-1" d="M168.48,168.91a6.26,6.26,0,0,1,5.34-3h87.35a6.27,6.27,0,0,1,5.6,3.44l31.38,62a6.23,6.23,0,0,1,.65,2.82h42.6v6.29H205.21a6.26,6.26,0,0,1-5.6-3.44l-31.39-62A6.29,6.29,0,0,1,168.48,168.91Z"/><path class="cls-4" d="M362.31,240.47H5a5,5,0,0,0-5,5v1.73a5,5,0,0,0,5,5h44l-32.88,248a2.49,2.49,0,0,0,4.93.7L59,252.16H313l38,248.68a2.49,2.49,0,0,0,4.93-.7l-32.88-248h39.26a5,5,0,0,0,5-5v-1.73A5,5,0,0,0,362.31,240.47Z"/><path class="cls-9" d="M130.77,18.71h78.57A4.24,4.24,0,0,1,213.59,23V57.19l.06,19.67-9.47-11.07H130.77a4.24,4.24,0,0,1-4.25-4.24V23A4.24,4.24,0,0,1,130.77,18.71Z"/><path class="cls-10" d="M157.16,41.66a3.92,3.92,0,1,1-3.93-3.91A3.91,3.91,0,0,1,157.16,41.66Z"/><path class="cls-10" d="M174,41.61A3.92,3.92,0,1,1,170,37.7,3.93,3.93,0,0,1,174,41.61Z"/><path class="cls-10" d="M190.79,41.56a3.92,3.92,0,1,1-3.93-3.91A3.92,3.92,0,0,1,190.79,41.56Z"/></g></g></svg>