<svg xmlns="http://www.w3.org/2000/svg" viewBox="0 0 127.56 122.95"><defs><style>.cls-1{fill:#fa5;}</style></defs><g id="Layer_2" data-name="Layer 2"><g id="Layer_8" data-name="Layer 8"><path class="cls-1" d="M120.16,7.48H65.82V2a2,2,0,1,0-4.08,0V7.48H7.4a7.4,7.4,0,1,0,0,14.8H8.92V88.49a2,2,0,0,0,2,2H61.74v7.12l-21,21a2,2,0,0,0,0,2.88,2.05,2.05,0,0,0,2.88,0l18.07-18.07v17.49a2,2,0,0,0,4.08,0V103.59l17.9,17.9a2,2,0,0,0,2.88-2.88L65.82,97.82V90.53h50.44a2,2,0,0,0,2-2V22.28h1.87a7.4,7.4,0,1,0,0-14.8Zm-5.94,79H13V22.28H114.22Zm5.94-68.24H7.4a3.33,3.33,0,0,1,0-6.65H120.16a3.33,3.33,0,0,1,0,6.65Z"/><path class="cls-1" d="M42.23,74.24a21,21,0,1,0-21-21A21,21,0,0,0,42.23,74.24Zm2-37.77A16.94,16.94,0,0,1,59,51.22H44.27Zm-4.08,0V53.26a2,2,0,0,0,2,2H59A16.91,16.91,0,1,1,40.19,36.47Z"/><path class="cls-1" d="M74.67,42.36h28.39a2,2,0,0,0,0-4.07H74.67a2,2,0,1,0,0,4.07Z"/><path class="cls-1" d="M74.67,55.3h28.39a2,2,0,0,0,0-4.08H74.67a2,2,0,0,0,0,4.08Z"/><path class="cls-1" d="M74.67,68.23h28.39a2,2,0,0,0,0-4.08H74.67a2,2,0,0,0,0,4.08Z"/></g></g></svg>