<svg xmlns="http://www.w3.org/2000/svg" viewBox="0 0 142.8 103.82"><defs><style>.cls-1{fill:#fa5;stroke:#fa5;stroke-miterlimit:10;}</style></defs><g id="Layer_2" data-name="Layer 2"><g id="Layer_8" data-name="Layer 8"><path class="cls-1" d="M79.17,24H13.91A13.42,13.42,0,0,0,.5,37.41V71.12A13.42,13.42,0,0,0,13.91,84.53h.47l-2.69,14.9a3.31,3.31,0,0,0,5.53,3L35.6,85a1.56,1.56,0,0,1,1.09-.43H79.17a13.42,13.42,0,0,0,13.4-13.41V37.41A13.41,13.41,0,0,0,79.17,24Zm9.25,47.11a9.26,9.26,0,0,1-9.25,9.25H36.69A5.71,5.71,0,0,0,32.74,82L16.24,97.61l2.33-12.94A3.65,3.65,0,0,0,15,80.37H13.91a9.27,9.27,0,0,1-9.26-9.25V37.41a9.27,9.27,0,0,1,9.26-9.25H79.17a9.26,9.26,0,0,1,9.25,9.25Z"/><path class="cls-1" d="M130.16.5H72.21A12.16,12.16,0,0,0,60.07,12.64v3.73a2.08,2.08,0,0,0,4.16,0V12.64a8,8,0,0,1,8-8h58a8,8,0,0,1,8,8V42.18a8,8,0,0,1-8,8h-.95a3.47,3.47,0,0,0-3.42,4.09L127.73,65,113.6,51.63a5.31,5.31,0,0,0-3.68-1.47h-9.71a2.08,2.08,0,1,0,0,4.15h9.71a1.18,1.18,0,0,1,.82.33l16.32,15.49a3.17,3.17,0,0,0,5.3-2.85l-2.34-13h.14A12.15,12.15,0,0,0,142.3,42.18V12.64A12.15,12.15,0,0,0,130.16.5Z"/><path class="cls-1" d="M56.83,44.2l-15,14.74-5.57-5.23A2.32,2.32,0,1,0,33,57.09l7.19,6.75a2.33,2.33,0,0,0,3.21,0L60.07,47.51a2.32,2.32,0,1,0-3.24-3.31Z"/></g></g></svg>