<svg xmlns="http://www.w3.org/2000/svg" viewBox="0 0 574.3 381.42"><defs><style>.cls-1{isolation:isolate;}.cls-2{fill:#75c189;opacity:0.25;}.cls-3{fill:#eaeaea;mix-blend-mode:multiply;}.cls-4{fill:#b7c2ca;}.cls-5{fill:#070707;}.cls-6{fill:#9ba9b3;}.cls-7{fill:#2d4f8a;}.cls-8{fill:#ec9992;}.cls-13,.cls-17,.cls-19,.cls-20,.cls-24,.cls-25,.cls-9{fill:none;}.cls-17,.cls-9{stroke:#1d0300;}.cls-13,.cls-17,.cls-24,.cls-9{stroke-linecap:round;stroke-linejoin:round;}.cls-9{stroke-width:0.47px;}.cls-10{fill:#ecedef;}.cls-11{fill:#318dee;}.cls-12,.cls-18{fill:#fff;}.cls-13,.cls-19,.cls-20,.cls-24{stroke:#fff;}.cls-13{stroke-width:0.82px;}.cls-14{fill:#363638;}.cls-15{fill:#1d0300;}.cls-16{fill:#e48280;}.cls-17{stroke-width:0.42px;}.cls-18{opacity:0.23;}.cls-19,.cls-20,.cls-25{stroke-miterlimit:10;}.cls-19{stroke-width:0.34px;}.cls-20{stroke-width:0.3px;}.cls-21{fill:#a9a9a9;}.cls-22{fill:#14284d;}.cls-23{fill:#fa5;}.cls-24{stroke-width:0.89px;}.cls-25{stroke:#363638;stroke-width:2px;}</style></defs><g class="cls-1"><g id="Layer_2" data-name="Layer 2"><g id="Layer_8" data-name="Layer 8"><path class="cls-2" d="M75.39,275S-70.7,117.27,43.85,43.05C111.63-.87,184.45,69.3,264.61,26.64,368-28.4,446.42,8.45,502.45,77c42.05,51.41,40.87,55.73,61,96.1,52.27,104.72-101.59,171.67-101.59,171.67S240,463,75.39,275Z"/><ellipse class="cls-3" cx="306.51" cy="344.08" rx="124.54" ry="7.95"/><rect class="cls-4" x="246.78" y="258.83" width="6.02" height="29.68"/><rect class="cls-5" x="243.88" y="282.7" width="12.05" height="37.26"/><rect class="cls-4" x="224.85" y="317.55" width="50.32" height="4.84"/><rect class="cls-4" x="224.85" y="317.55" width="3.96" height="14.52"/><path class="cls-5" d="M232.18,336.48a7.34,7.34,0,1,1-7.33-7.34A7.33,7.33,0,0,1,232.18,336.48Z"/><rect class="cls-4" x="271.2" y="317.55" width="3.96" height="14.52" transform="translate(546.36 649.63) rotate(180)"/><path class="cls-5" d="M267.83,336.48a7.34,7.34,0,1,0,7.33-7.34A7.33,7.33,0,0,0,267.83,336.48Z"/><rect class="cls-5" x="232.1" y="251.98" width="35.54" height="10.82"/><path class="cls-4" d="M148.23,127.73,192.8,246.85H286L231.33,122.93a6.32,6.32,0,0,0-5.78-3.74H154.16A6.33,6.33,0,0,0,148.23,127.73Z"/><path class="cls-6" d="M315.5,256.22H203.06A10.18,10.18,0,0,1,192.88,246h0a10.18,10.18,0,0,1,10.18-10.18H315.5Z"/><path class="cls-7" d="M272.5,121.66s14.83,4.63,20.42,59.37l-12.05,8.54Z"/><polygon class="cls-8" points="328.51 184.11 315.43 181.66 315.84 194.08 327.17 194.08 328.51 184.11"/><path class="cls-8" d="M328.51,184.11s26.92-13.67,23.59,9.95H325.42Z"/><path class="cls-7" d="M274.84,169.41l51.08,4.85-.45,19.82-49.38-.33c-6.6.63-12.57-6.05-13.67-12.59h0C261.16,173.67,267.07,169.72,274.84,169.41Z"/><line class="cls-9" x1="291.3" y1="170.98" x2="285.06" y2="170.38"/><path class="cls-10" d="M235.37,213S255.5,217,272,209l5.48-69.08-19.39-22.79H236.69l-8.86,37.59Z"/><path class="cls-8" d="M236.69,117.14l.33,9.56s15.12,6.1,24.16,0a51.25,51.25,0,0,0-3.13-9.56Z"/><path class="cls-7" d="M236.69,117.14s2.5,67.72,1.77,101.86l-14.91-1.77c-7.91-.94-12.35,1.31-12.12-6.65l2.21-55L209,133.44c.81-7.1,5.67-11.71,7.52-12.45C220.41,119.4,228.11,118.09,236.69,117.14Z"/><path class="cls-7" d="M258.05,117.14s4.62,8.5,6.59,32.83,2.62,65.91,2.62,65.91h0c8.48-1.74,14.64,6.78,14.38-1.87-.55-18-2-63.46-4.84-75.87l-2.64-13.47c-.15-.64-.77-2.56-.77-2.56s-2.12-1.94-15.34-5Z"/><path class="cls-9" d="M281.45,199.58s.13-34.54-4-59.65"/><path class="cls-7" d="M231.13,142.31a249.65,249.65,0,0,1-25.68,45.36c-1.92,2.72-6.47,4.07-9.8,3.93h0c-7.52-.33-10.7-8.42-7.86-15,0,0,13.33-38.33,25.16-52.58Z"/><path class="cls-11" d="M257.56,164.69l9.29,20.2L270,183.2l-9-20a1.85,1.85,0,0,0-2.39-.95h0A1.86,1.86,0,0,0,257.56,164.69Z"/><polygon class="cls-8" points="252.33 182.92 239.25 180.47 239.66 192.89 250.98 192.89 252.33 182.92"/><path class="cls-8" d="M252.33,182.92s26.92-13.67,23.58,10H249.24Z"/><path class="cls-7" d="M198.89,171.33l46.84,5.44-.74,17-48.85-1a10.81,10.81,0,0,1-8.62-14.68h0A10.81,10.81,0,0,1,198.89,171.33Z"/><polyline class="cls-9" points="228.77 144.89 215.68 173.28 238.23 175.9"/><line class="cls-9" x1="215.68" y1="173.28" x2="209.77" y2="175.07"/><polygon class="cls-5" points="339.85 320.58 359.54 320.58 392.11 338 336.12 337.33 339.85 320.58"/><polygon class="cls-12" points="335.92 343.47 336.12 337.33 392.11 338 391.91 344.13 335.92 343.47"/><line class="cls-13" x1="373.15" y1="326.99" x2="366.7" y2="328.76"/><line class="cls-13" x1="366.85" y1="323.76" x2="360.4" y2="325.52"/><polygon class="cls-8" points="352.34 292.82 332.27 292.82 339.85 320.58 359.92 320.58 352.34 292.82"/><path class="cls-5" d="M301.4,203.22,320,204.91a22.4,22.4,0,0,1,20.15,16.33l19.71,84.34-28.28,1.29-25.07-78.45Z"/><polygon class="cls-5" points="328 309.38 363.63 309.38 361.18 296.33 325.54 296.33 328 309.38"/><polygon class="cls-5" points="287.41 320.58 307.1 320.58 339.66 338 283.67 337.33 287.41 320.58"/><polygon class="cls-12" points="283.47 343.47 283.67 337.33 339.66 338 339.46 344.13 283.47 343.47"/><line class="cls-13" x1="320.71" y1="326.99" x2="314.25" y2="328.76"/><line class="cls-13" x1="314.4" y1="323.76" x2="307.95" y2="325.52"/><polygon class="cls-8" points="308.55 292.82 288.48 292.82 287.41 320.58 307.48 320.58 308.55 292.82"/><path class="cls-14" d="M211.43,203.11H299.5a16.83,16.83,0,0,1,16.84,16.57c.42,28.29-1.77,90-3.1,89.7-1.8-.36-29.08,0-29.08,0l.26-70-40.77-.93a66.83,66.83,0,0,1-11.46-1.31C222.06,235,204.88,228.76,211.43,203.11Z"/><rect class="cls-14" x="281.14" y="296.33" width="36.83" height="13.05" transform="translate(599.11 605.71) rotate(180)"/><path class="cls-15" d="M275.75,58.4s2,8.18-2.5,13.18l-3.18-9.65Z"/><path class="cls-16" d="M267.14,84.14A6,6,0,1,0,271.63,77,6,6,0,0,0,267.14,84.14Z"/><polygon class="cls-8" points="257.33 98.98 256.79 122.38 239.21 120.85 243.54 82.83 257.33 98.98"/><polygon class="cls-15" points="257.04 111.43 244.47 95.99 257.24 100.24 257.04 111.43"/><path class="cls-8" d="M265.57,59c6,.8,8.94,7.17,9.53,12.89.69,6.58,1.3,16.78-.75,21.78-3.16,7.72-9.88,12.25-20,9.5,0,0-11.89-1.45-13.61-19.38C238.67,62.59,252.78,57.3,265.57,59Z"/><path class="cls-15" d="M243.54,87l5.56-12.2c.59-3-1.21-6.44-1.87-10.13,12.86-4.92,15.58-4.76,25-1.19,0,0-4.79-10.15-24.53-8.34C220.43,57.62,223.77,88,242,96Z"/><path class="cls-8" d="M234.79,85a6.52,6.52,0,1,0,4.92-7.79A6.51,6.51,0,0,0,234.79,85Z"/><path class="cls-17" d="M238.35,81.46a4.78,4.78,0,0,1,5.76,4.31"/><path class="cls-15" d="M247.23,64.65s15.37,5.8,26.32,1.19c0,0,9.16-11.32-8.95-15.26-18.87-4.11-26.22,7.16-26.22,7.16Z"/><path class="cls-15" d="M271.6,82.45a1.36,1.36,0,1,0,1.09-1.59A1.36,1.36,0,0,0,271.6,82.45Z"/><path class="cls-15" d="M260.11,82.45a1.36,1.36,0,1,0,1.09-1.59A1.36,1.36,0,0,0,260.11,82.45Z"/><path class="cls-9" d="M269.08,84l1,2.87a.77.77,0,0,1-.59.93L268,88"/><path class="cls-15" d="M270.41,72.62s-.54,1.62,1.47,1.95a14.79,14.79,0,0,1,3.36.75,1.09,1.09,0,0,0,1.34-.4h0a1.08,1.08,0,0,0,0-1.17,5,5,0,0,0-3.34-2.17C270.86,71.15,270.41,72.62,270.41,72.62Z"/><path class="cls-15" d="M263.36,72.69s.62,1.63-2,1.91A31.54,31.54,0,0,0,256,75.91a1.59,1.59,0,0,1-1.7-.43h0a.88.88,0,0,1,0-1.17,10.65,10.65,0,0,1,5.49-2.73C262.85,71.21,263.36,72.69,263.36,72.69Z"/><path class="cls-9" d="M264.31,91.62a5.83,5.83,0,0,0,6-.21"/><path class="cls-18" d="M258.76,75.29l7.33,9.95s-2.21,4.22-5.73,3.75l-7.4-9.7S255,75,258.76,75.29Z"/><path class="cls-18" d="M275.41,75.53l5.76,9.78s-1.74,4.15-4.5,3.69l-5.82-9.54S272.42,75.26,275.41,75.53Z"/><path class="cls-19" d="M266.67,82.2A7.17,7.17,0,1,1,259.5,75,7.17,7.17,0,0,1,266.67,82.2Z"/><path class="cls-20" d="M281.64,82.32c0,3.89-2.52,7.05-5.63,7.05s-5.63-3.16-5.63-7.05,2.52-7,5.63-7S281.64,78.43,281.64,82.32Z"/><path class="cls-19" d="M266.67,82.2a5.6,5.6,0,0,1,3.71,0"/><line class="cls-19" x1="252.34" y1="82.2" x2="246.56" y2="79.94"/><rect class="cls-6" x="306.4" y="75.42" width="127.6" height="85.7" rx="4.01"/><rect class="cls-4" x="315.43" y="75.42" width="127.6" height="85.7" rx="4.01"/><circle class="cls-6" cx="382.06" cy="107.03" r="7.48"/><path class="cls-21" d="M371.49,128.81,376.22,180a12.64,12.64,0,0,1-3.13,9.56H344.84a1.6,1.6,0,0,0-1.6,1.59h0a1.6,1.6,0,0,0,1.6,1.6H404l.53-.53a13.19,13.19,0,0,0,3.4-12.76l-13.72-50.68Z"/><path class="cls-11" d="M277.88,189.57h46.8a1.6,1.6,0,0,1,1.61,1.6h0a1.61,1.61,0,0,1-1.61,1.61h-46.8a1.61,1.61,0,0,1-1.61-1.61h0A1.6,1.6,0,0,1,277.88,189.57Z"/><rect class="cls-22" x="156.08" y="192.82" width="327.16" height="11.16" transform="translate(639.33 396.8) rotate(180)"/><rect class="cls-23" x="357.38" y="12.46" width="65.27" height="25.54" rx="1.96" transform="translate(780.03 50.46) rotate(180)"/><line class="cls-24" x1="411.25" y1="22.25" x2="367.71" y2="22.25"/><line class="cls-24" x1="391.9" y1="29.03" x2="367.71" y2="29.03"/><polygon class="cls-23" points="365.23 34.6 365.23 46.15 379.95 34.6 365.23 34.6"/><rect class="cls-23" x="130.58" y="30.71" width="60.25" height="49.81" rx="2.16" transform="translate(321.41 111.23) rotate(180)"/><path class="cls-12" d="M172.66,52.16l-2-.35a10.22,10.22,0,0,0-1-2.47l1.16-1.64a1.53,1.53,0,0,0-.17-2l-1.19-1.19a1.53,1.53,0,0,0-1.95-.14l-1.65,1.15a10.29,10.29,0,0,0-2.47-1l-.34-2a1.53,1.53,0,0,0-1.47-1.27h-1.71a1.52,1.52,0,0,0-1.5,1.27l-.35,2a10.64,10.64,0,0,0-2.47,1l-1.64-1.1a1.52,1.52,0,0,0-2,.17l-1.19,1.19a1.53,1.53,0,0,0-.17,1.95l1.16,1.64a10.22,10.22,0,0,0-1,2.47l-2,.35a1.52,1.52,0,0,0-1.26,1.5v1.68a1.52,1.52,0,0,0,1.26,1.5l2,.35a10.22,10.22,0,0,0,1,2.47l-1.16,1.65a1.53,1.53,0,0,0,.17,1.95L152,64.47a1.51,1.51,0,0,0,2,.17l1.65-1.15a9.9,9.9,0,0,0,2.47,1l.34,2a1.53,1.53,0,0,0,1.51,1.26h1.7a1.52,1.52,0,0,0,1.5-1.26l.35-2a10.22,10.22,0,0,0,2.47-1l1.61,1.13a1.53,1.53,0,0,0,1.95-.17l1.19-1.19a1.53,1.53,0,0,0,.17-1.95l-1.16-1.66a9.9,9.9,0,0,0,1-2.47l2-.34a1.53,1.53,0,0,0,1.26-1.51V53.65A1.52,1.52,0,0,0,172.66,52.16ZM160.7,59a4.54,4.54,0,1,1,4.53-4.54v0A4.53,4.53,0,0,1,160.7,59Z"/><line class="cls-25" x1="473.08" y1="207.34" x2="473.08" y2="356.67"/><line class="cls-25" x1="165.08" y1="207.34" x2="165.08" y2="356.67"/></g></g></g></svg>