<svg xmlns="http://www.w3.org/2000/svg" xmlns:xlink="http://www.w3.org/1999/xlink" viewBox="0 0 526.67 385.23"><defs><style>.cls-1{isolation:isolate;}.cls-2{fill:#ffd371;opacity:0.3;}.cls-15,.cls-3{fill:#eaeaea;}.cls-14,.cls-3{mix-blend-mode:multiply;}.cls-4{fill:#ff8368;}.cls-5{fill:#ff6b53;}.cls-6{fill:#3938a8;}.cls-7{fill:#37202b;}.cls-8{fill:#fa5;}.cls-9{fill:#db8038;}.cls-10{fill:#fff;}.cls-11{fill:#6a4d5d;}.cls-12{fill:#ff9217;}.cls-13{fill:#2d4f8a;}.cls-16{fill:#614aff;}.cls-17{fill:#4151a5;}.cls-18{fill:#5425b9;}.cls-19{opacity:0.5;}.cls-20{fill:#503947;}.cls-21{fill:#ff6b4d;}.cls-22{opacity:0.8;}.cls-23{fill:#d0887d;}.cls-24{clip-path:url(#clip-path);}.cls-25,.cls-26,.cls-27,.cls-28,.cls-30,.cls-31,.cls-32,.cls-34,.cls-35,.cls-36{fill:none;}.cls-25,.cls-26,.cls-27,.cls-30,.cls-36{stroke:#fff;}.cls-25,.cls-26,.cls-27,.cls-28,.cls-30,.cls-31,.cls-32,.cls-35,.cls-36{stroke-linecap:round;stroke-linejoin:round;}.cls-25{stroke-width:0.73px;}.cls-26{stroke-width:0.72px;}.cls-27{stroke-width:0.7px;}.cls-28,.cls-31{stroke:#000;}.cls-28{stroke-width:0.5px;}.cls-29{clip-path:url(#clip-path-2);}.cls-30{stroke-width:0.79px;}.cls-31,.cls-32{stroke-width:0.82px;}.cls-32{stroke:#ead9dd;}.cls-33{fill:#a15342;}.cls-34{stroke:#f1ad2d;stroke-miterlimit:10;stroke-width:0.75px;}.cls-35{stroke:#a15342;stroke-width:0.48px;}.cls-36{stroke-width:0.94px;}</style><clipPath id="clip-path"><path d="M97.85,360.88l-.8-12.34S93.83,343,86,347.83c0,0-2.33,5.62-4.37,7.7a39.06,39.06,0,0,0-4.44,5.35Z"/></clipPath><clipPath id="clip-path-2"><path d="M126.5,348.88a11.5,11.5,0,0,0,10.38-.08s1.6-4.92,6.06-2.06a26,26,0,0,0,12.81,7.32c10.61,2.15,11.09,7.09,11.09,7.09H123.28a97.93,97.93,0,0,1,.86-10.95A1.72,1.72,0,0,1,126.5,348.88Z"/></clipPath></defs><g class="cls-1"><g id="Layer_2" data-name="Layer 2"><g id="Layer_8" data-name="Layer 8"><path class="cls-2" d="M316.27,48.94C451.4,56.81,577.7,214.24,505.79,297.2,450,361.55,368.85,322.38,304.7,350.78,186.69,403,26.75,400.88,3.87,309.36S65,118.26,111.19,84.7C176.39,37.37,316.27,48.94,316.27,48.94Z"/><ellipse class="cls-3" cx="417.14" cy="358.83" rx="94.87" ry="7.67"/><path class="cls-4" d="M338.54,69.16c.39,2.81.79,5.62,1.28,8.44s1,5.65,1.63,8.49,1.32,5.7,2.19,8.59a68.45,68.45,0,0,0,3.24,8.79,40.07,40.07,0,0,0,2.49,4.58,23.8,23.8,0,0,0,3.91,4.75l.67.59.17.15.19.14.38.29.39.29.4.28.87.54c.28.17.62.34.94.5s.64.32,1,.46.71.27,1.07.39.76.22,1.15.32a15.2,15.2,0,0,0,4.8.32,16.42,16.42,0,0,0,4.3-1.06c.31-.13.63-.25.93-.39l.87-.43c.54-.29,1.08-.6,1.56-.92s.94-.64,1.4-1,.85-.66,1.23-1,.76-.68,1.12-1,.7-.68,1-1c.66-.69,1.26-1.37,1.83-2.06a47.67,47.67,0,0,0,3.05-4.18q.69-1.05,1.32-2.13l.63-1.11.31-.58.16-.31.09-.17.11-.23a9.19,9.19,0,0,0-16.74-7.59h0v0l0,.06-.06.16-.15.35c-.11.24-.22.49-.34.73-.23.5-.48,1-.74,1.47a28.32,28.32,0,0,1-1.61,2.7c-.28.41-.56.8-.83,1.14l-.4.49c-.13.14-.26.3-.38.42l-.06.07c-.08.09-.16.16-.23.23l-.06,0-.21.21-.06-.07a2.89,2.89,0,0,1-.24-.25,7,7,0,0,1-.58-.69,22.82,22.82,0,0,1-1.71-2.59,49.43,49.43,0,0,1-3.06-6.57c-.93-2.35-1.77-4.83-2.55-7.34s-1.49-5.1-2.16-7.7-1.28-5.23-1.87-7.87l0-.08a6.41,6.41,0,0,0-12.6,2.3Z"/><path class="cls-5" d="M364,106.18a.39.39,0,0,0,.35.44h.05a.41.41,0,0,0,.4-.36,14.29,14.29,0,0,0-.37-4.7c-.14-.6-.3-1.15-.45-1.64,0-.14-.09-.27-.13-.4-.08.09-.16.16-.23.23a.43.43,0,0,0-.32.17,0,0,0,0,0,0,0,2.89,2.89,0,0,1-.24-.25A15.74,15.74,0,0,1,364,106.18Z"/><path class="cls-5" d="M363.42,100.49a4.91,4.91,0,0,1,1.05,1.08,12.49,12.49,0,0,1,1.55,2.79.42.42,0,0,0,.38.26.4.4,0,0,0,.15,0,.41.41,0,0,0,.23-.52A11.54,11.54,0,0,0,364,99.93l-.11-.09a.49.49,0,0,0-.25-.08.43.43,0,0,0-.32.17,0,0,0,0,0,0,0A.4.4,0,0,0,363.42,100.49Z"/><path class="cls-6" d="M380.6,65.37s-3.33.92-7.8,11.5C369.73,84.13,366,92.59,366,92.59l17.47,13.63s10-19.44,11.35-25.48C396.3,73.74,391.73,64.46,380.6,65.37Z"/><path class="cls-4" d="M351.69,70.7c.56-1.09-.3-3-.39-4.62a19,19,0,0,0-1.88-6.9c-1.41-2.47-5.93-9.52-8.23-10S342.32,55,343,56.32a5.62,5.62,0,0,1,.65,2.47s-9-14-10.88-14.24,2.46,8.28,3.54,10.37c0,0-7.37-10.19-8.6-10-2.47.48,5.39,12,5.39,12s-6.64-8.26-8-7.13,5.73,10,5.73,10-5.12-4.75-6.71-4.3,8.38,11.26,10.12,12.74,6.07,5.84,8.63,7.37C344.65,76.74,350,74.13,351.69,70.7Z"/><path class="cls-5" d="M332.33,63.72a.47.47,0,0,1-.16-.6,13.32,13.32,0,0,1,7.95-6.57.47.47,0,1,1,.24.9h0c-.05,0-5.13,1.44-7.35,6.08a.47.47,0,0,1-.62.22Z"/><path class="cls-5" d="M342.31,70a.49.49,0,0,1-.21-.48c1-5.49-2.55-8-2.59-8a.47.47,0,0,1,.52-.78h0c.17.12,4.15,2.87,3,8.95a.46.46,0,0,1-.54.37A.49.49,0,0,1,342.31,70Z"/><path class="cls-7" d="M369.06,177.31c5,3.3,16.25,6,27.68,7.27,14.73,1.65,29.69,1,31.63-3.78q.33-.81.6-1.68a.43.43,0,0,1,0-.05c.14-.43.26-.87.37-1.32.2-.81.37-1.65.51-2.5.09-.5.16-1,.23-1.52a80.86,80.86,0,0,0,.13-16.47l-55.9-11.73s-5.52,15.95-6.39,25.35c-.05.51-.08,1-.1,1.48C367.74,174.82,368.07,176.64,369.06,177.31Z"/><polygon class="cls-4" points="369.87 325.88 367.15 338.54 355.22 336.44 357.5 324.47 369.87 325.88"/><path class="cls-8" d="M323.5,347.17l42,10.41a6.18,6.18,0,0,0,1.13-2.2c1.14-3.48,1.41-9.43,1.75-13.14,0-.43.07-.83.11-1.2a12.94,12.94,0,0,1,.24-1.49,2.2,2.2,0,0,0-2-3.05c-5.28,3.11-8.54-4.33-11.85-3,0,0-1.43.57-5.5,2.74s-10.23,2.74-15.56,3.56c-6.87,1.06-9.28,3.22-10.07,4.93A3.4,3.4,0,0,0,323.5,347.17Z"/><path class="cls-9" d="M323.5,347.17l42,10.41a6.18,6.18,0,0,0,1.13-2.2l-42.86-10.63A3.4,3.4,0,0,0,323.5,347.17Z"/><path class="cls-10" d="M353.79,335.15s-.3-2-2.11-1.85-2.32,3-2.32,3S349.74,339,353.79,335.15Z"/><path class="cls-10" d="M352.25,343.53a.72.72,0,0,0,.87-.52,9.14,9.14,0,0,0-1.1-7.2.73.73,0,0,0-1-.16.72.72,0,0,0-.16,1,7.65,7.65,0,0,1,.87,6A.73.73,0,0,0,352.25,343.53Z"/><path class="cls-10" d="M344.88,335.93a.73.73,0,0,0,.5-.06c1.08-.56,3.69-.07,5.09.37a.7.7,0,0,0,.89-.46.71.71,0,0,0-.46-.89c-.43-.14-4.23-1.3-6.18-.28a.71.71,0,0,0,.16,1.32Z"/><path class="cls-10" d="M351.54,335.12l.26.44h0l0,0-.64,1.35.16.07a10.75,10.75,0,0,0,1.31.4l.28.07a26.45,26.45,0,0,0,3.13.5,7,7,0,0,0,3.62-.46,3.12,3.12,0,0,0,1.35-1.11l.07-.12a2.17,2.17,0,0,0,0-2.24,3,3,0,0,0-1.94-1.46l-.05,0a6.19,6.19,0,0,0-2.67,0,15.67,15.67,0,0,0-3.27,1.12l-.26.12c-.43.2-.79.39-1.06.54l-.48.28Zm1.4.79-.5-.13c.36-.2.82-.44,1.34-.67h0a17.26,17.26,0,0,1,2.06-.78,7.39,7.39,0,0,1,1.78-.33,3,3,0,0,1,1,.07h0a1.5,1.5,0,0,1,1,.73.69.69,0,0,1,.07.63s-.05.08-.07.13c-.39.58-1.62,1.08-3.52.88l-.89-.11A21.92,21.92,0,0,1,352.94,335.91Z"/><path class="cls-10" d="M350.12,336l1-1.2c-1.22-1-2.11-3-1.77-4.06.08-.24.27-.53,1-.55a.84.84,0,0,1,.79.29c.59.74.34,2.69.05,3.74l1.49.42c.1-.36.93-3.53-.33-5.11a2.66,2.66,0,0,0-4.43.72C347.26,332.05,348.57,334.73,350.12,336Z"/><path class="cls-9" d="M361.18,356.51l1.24.31a9.52,9.52,0,0,1-.59-7.28,12.25,12.25,0,0,1,6.51-7.3c0-.43.07-.83.11-1.2a13.23,13.23,0,0,0-7.6,8.21A10.41,10.41,0,0,0,361.18,356.51Z"/><path class="cls-10" d="M349.45,338.91a.71.71,0,0,0,.51-1.32l-2.46-1.3a.7.7,0,0,0-1,.3.71.71,0,0,0,.29,1l2.46,1.3Z"/><path class="cls-10" d="M346.46,339.78a.71.71,0,0,0,.8-.35.72.72,0,0,0-.3-1l-2.46-1.3a.71.71,0,0,0-.67,1.26l2.46,1.3A.58.58,0,0,0,346.46,339.78Z"/><path class="cls-10" d="M343.47,340.6a.7.7,0,0,0,.8-.36.71.71,0,0,0-.29-1l-2.46-1.3a.71.71,0,1,0-.67,1.26l2.46,1.3Z"/><path class="cls-10" d="M340.28,341.24a.71.71,0,0,0,.8-.35.72.72,0,0,0-.3-1l-2.46-1.3a.71.71,0,0,0-1,.3.7.7,0,0,0,.3,1l2.46,1.3A.44.44,0,0,0,340.28,341.24Z"/><path class="cls-10" d="M336.89,341.63a.7.7,0,0,0,.8-.36.71.71,0,0,0-.29-1l-2.46-1.3a.71.71,0,1,0-.67,1.26l2.46,1.3A.52.52,0,0,0,336.89,341.63Z"/><path class="cls-7" d="M355.1,327.9l16.37,1.8s10.34-55.9,9.29-69.33l15.37-78.08,2.2-11.24-22.14-2-1.27-.71-.75-.42-1.24-.69-3.18-1.79-.24,1.29c-.19,1-.38,2-.56,3-.1.52-.19,1-.29,1.55,0,.08,0,.15,0,.22-.09.47-.17.95-.26,1.43-5.72,31.14-10.19,59.75-11.94,80.56v.25l0,1.47Z"/><path class="cls-11" d="M356.39,255.27a28.11,28.11,0,0,0,7.41,1h0a.71.71,0,0,0,0-1.41h0a26.69,26.69,0,0,1-7.41-1.08Z"/><path class="cls-11" d="M368.54,323.89c9.59-47,7.34-66.76,7.32-67a.55.55,0,0,1,0-.22l14.69-69.21a.68.68,0,0,1,.76-.53h0a.68.68,0,0,1,.58.81l-14.67,69.11c.17,1.72,1.9,21.93-7.36,67.27a.69.69,0,0,1-.72.55l-.09,0A.67.67,0,0,1,368.54,323.89Z"/><path class="cls-11" d="M367.83,172.36l.16,0a13.35,13.35,0,0,0,2.92-1.42l.72-.49a16.91,16.91,0,0,0,2.42-2.19c4.52-5,5.88-12,5.94-12.33a.68.68,0,0,0-.55-.8.69.69,0,0,0-.8.55c0,.09-1.39,7.25-5.91,12a13.92,13.92,0,0,1-2.21,1.9l-.36.24a11.4,11.4,0,0,1-2.23,1.13C367.88,171.39,367.85,171.89,367.83,172.36Z"/><path class="cls-11" d="M391.18,181.61a.56.56,0,0,0,.54.58h0a.56.56,0,0,0,.6-.52c.1-2.07.22-4.19.35-6.3,0-.37.05-.75.08-1.12.45-6.91,1-13.69,1.45-18.48,0-.38.07-.76.1-1.12.1-1.05.18-2,.26-2.77l-1.14-.19c-.07.79-.16,1.73-.25,2.8,0,.36-.07.73-.11,1.12-.42,4.75-1,11.47-1.44,18.34,0,.37-.05.76-.07,1.13C391.41,177.28,391.28,179.47,391.18,181.61Z"/><path class="cls-11" d="M389.55,174.32a15,15,0,0,0,2,.76,11.42,11.42,0,0,0,1.12.29,8.13,8.13,0,0,0,1.09.14,3.86,3.86,0,0,0,1.91-.3,2.31,2.31,0,0,0,1.3-1.75c.42-2.13,1.29-10.93,1.88-17.15,0-.39.07-.76.11-1.12l.24-2.67-1.13-.14c-.08.77-.16,1.69-.26,2.7,0,.36-.06.73-.1,1.11-.59,6.21-1.46,15-1.86,17.07a1.23,1.23,0,0,1-.69,1,4,4,0,0,1-2.41,0c-.39-.08-.77-.19-1.13-.3-.65-.22-1.22-.46-1.57-.62a.58.58,0,0,0-.76.25A.55.55,0,0,0,389.55,174.32Z"/><polygon class="cls-4" points="484.85 320.29 490.81 329.9 480.02 339.17 472.8 328.79 484.85 320.29"/><path class="cls-10" d="M478,350.22a.68.68,0,0,0,.14-.44c0-1.11,1.42-3.09,2.34-4.07a.64.64,0,0,0,0-.92.65.65,0,0,0-.92,0c-.29.31-2.77,3-2.7,5a.67.67,0,0,0,.68.64A.68.68,0,0,0,478,350.22Z"/><path class="cls-8" d="M462.86,358.81h30.31a141,141,0,0,0,7.56-13.36c.13-.28.26-.56.38-.84.93-2.13,1.49-3.92,1.27-4.83a4,4,0,0,0-.52-1.17c-1.33-2.1-4.62-4.46-6.77-5.86h0l-.86-.55c-.71-.44-3.54-3.15-3.54-3.15-3.52-.6-7.73,8.47-7.73,8.47s-5.27-.5-5.2,3.42c0,1.37,3.31,5.48,3.31,5.48s-8.66,1.94-11.59,3.62c-4.13,2.38-5.71,4.82-6.3,6.52A4.83,4.83,0,0,0,462.86,358.81Z"/><path class="cls-9" d="M495.55,341.25a9.66,9.66,0,0,0,5.18,4.2c.13-.28.26-.56.38-.84a8.71,8.71,0,0,1-4.75-3.86,11,11,0,0,1-1.27-8h0l-.86-.55A11.89,11.89,0,0,0,495.55,341.25Z"/><path class="cls-10" d="M480.9,342.52s-1.79-.56-2.37,1,1.53,3.11,1.53,3.11S482.49,347.42,480.9,342.52Z"/><path class="cls-10" d="M487.24,347.13a.65.65,0,0,0-.09-.92,8.39,8.39,0,0,0-6.4-2,.67.67,0,0,0-.53.77.66.66,0,0,0,.76.53,7,7,0,0,1,5.34,1.67A.65.65,0,0,0,487.24,347.13Z"/><path class="cls-10" d="M481.32,345.46l-.89-1.1,0,0-1,.09c-.05-.52-.41-5.14,1.34-7.25l0,0a2.79,2.79,0,0,1,2-1,2,2,0,0,1,1.94,1c.69,1.14.43,3-.68,4.74a22.28,22.28,0,0,1-1.83,2.6A6.54,6.54,0,0,1,481.32,345.46Zm-.43-1.57a21.14,21.14,0,0,0,2-2.8c.92-1.49,1-2.72.67-3.27a.61.61,0,0,0-.63-.3,1.35,1.35,0,0,0-1,.53l0,0C480.88,339.36,480.81,342.4,480.89,343.89Z"/><path class="cls-10" d="M480.15,345.9l-.61-1.29c-1.31.62-3.36.54-4.06-.15-.18-.16-.34-.43-.08-1,.18-.41.39-.5.56-.54.84-.19,2.36.79,3.12,1.45l.94-1.07c-.26-.23-2.55-2.17-4.37-1.77a2.47,2.47,0,0,0-1.17,4C475.74,346.7,478.48,346.68,480.15,345.9Z"/><path class="cls-10" d="M481,347.46a.66.66,0,0,0,0-1.3l-2.55-.26a.65.65,0,0,0-.14,1.3l2.55.27Z"/><path class="cls-10" d="M478,348.47a.66.66,0,0,0,0-1.3l-2.55-.27a.66.66,0,1,0-.13,1.31l2.54.26Z"/><path class="cls-10" d="M475,349.43a.67.67,0,0,0,.56-.59.65.65,0,0,0-.58-.72l-2.55-.26a.65.65,0,0,0-.72.58.67.67,0,0,0,.59.72l2.54.27Z"/><path class="cls-9" d="M462.86,358.81h30.31s10-15.62,9.21-19a4,4,0,0,0-.52-1.17c-2.68,5.07-8.58,16-10.55,18l-28.13-.09A4.83,4.83,0,0,0,462.86,358.81Z"/><path class="cls-7" d="M398.55,181.92l22.54,70.34.05.15.74,1.15,52,81,15.67-10S472.91,288.2,466,274a111.63,111.63,0,0,0-17.51-25.16c-6.94-19.35-19.29-78.58-19.29-78.58Z"/><path class="cls-11" d="M421.09,252.26l.05.15.74,1.15a30.24,30.24,0,0,0,8.39-3.09.7.7,0,0,0,.26-1,.69.69,0,0,0-1-.26A29.11,29.11,0,0,1,421.09,252.26Z"/><path class="cls-11" d="M485.18,326a.71.71,0,0,0,.32-.07.7.7,0,0,0,.31-.95c-.14-.29-14.6-28.91-22.32-47.44s-17.44-25.74-18.9-26.76c-5.95-13.12-17-68.46-17.1-69a.7.7,0,0,0-1.38.27c.46,2.31,11.28,56.57,17.28,69.51a.71.71,0,0,0,.25.29c.11.07,10.61,7.19,18.55,26.25,7.74,18.58,22.22,47.25,22.36,47.54A.72.72,0,0,0,485.18,326Z"/><path class="cls-12" d="M426.76,190.93a8.75,8.75,0,0,1-4.18-.11c-10.64-2.72-14-27.29-14.14-28.34a.79.79,0,1,1,1.57-.2c0,.24,3.36,24.55,13,27a6.15,6.15,0,0,0,6.28-1.57c2-2.16,2.59-5.83,1.44-9.36a.79.79,0,1,1,1.5-.49c1.33,4.07.63,8.36-1.78,10.93A7.24,7.24,0,0,1,426.76,190.93Z"/><path class="cls-11" d="M427.36,173.23a10,10,0,0,0,2.5,2c.09-.5.16-1,.23-1.52a8.21,8.21,0,0,1-1.68-1.44c-4.47-5-3.38-14.65-3.37-14.75a.71.71,0,0,0-1.4-.17C423.59,157.8,422.47,167.78,427.36,173.23Z"/><path class="cls-13" d="M371.62,156.53a30.42,30.42,0,0,0,4,3.12l.14.09c1,.68,2.13,1.34,3.28,1.95l1.25.65a56.86,56.86,0,0,0,11.25,4.08c.37.1.74.19,1.12.27,1.09.25,2.19.48,3.31.68l1.13.19a67,67,0,0,0,13.43.8l1.62-.09c1.43-.1,2.87-.25,4.3-.44l.1,0,1.3-.19a59.38,59.38,0,0,0,6.91-1.56,51.44,51.44,0,0,0,5.84-2.09l1-.42,1.2-.57.11,0c2.36-6.45,4.95-29.47,5.65-36.35.14-1.37.25-2.74.34-4.11.25-3.74.33-7.49.29-11.3,0-2.55-.11-5.13-.22-7.76,0-.39,0-.77-.05-1.15v-.09c0-.35,0-.7-.05-1-.09-1.83-.2-3.69-.31-5.57-.24-4-.52-8.1-.79-12.39-.43-6.89-1.9-12.32-4.34-16a14.94,14.94,0,0,0-2-2.44,10.87,10.87,0,0,0-5.81-2.88,31.53,31.53,0,0,1-3.76-.82l-.62-.19c-.64-.2-1.24-.41-1.81-.62s-1.25-.52-1.8-.78l-.25-.11-.43-.22a22.58,22.58,0,0,1-3.66-2.26H397.08c-.12.18-.25.36-.38.53l0,0a12.08,12.08,0,0,1-3.81,3.21,8.62,8.62,0,0,1-.8.41c-.21.11-.42.2-.63.29l-.66.28c-.53.2-1.07.39-1.6.56h0c-3.91,1.25-7.88,1.79-10.06,4.67a7.76,7.76,0,0,0-.87,1.5,9.45,9.45,0,0,0-.57,1.88,7.18,7.18,0,0,0-.14,1.29c-.16,4.73,2.56,13.59,2.25,30.05,0,1-.06,2.07-.1,3.15,0,.33,0,.65,0,1,0,.67-.07,1.34-.12,2h0c0,.69-.08,1.39-.14,2.1q-.14,2-.36,4.11c-.11,1.23-.25,2.5-.41,3.8s-.34,2.69-.55,4.09c-.79,5.57-2.58,16.62-4.45,25.9-.3,1.46-.6,2.87-.89,4.22,0,.14-.06.28-.1.42C372.27,153.87,371.94,155.26,371.62,156.53Z"/><path class="cls-6" d="M396.45,86.78l-13.22-1s-3.84,17.31,4.41,18.17C397.2,104.93,396.45,86.78,396.45,86.78Z"/><path class="cls-10" d="M402.09,72.49c8.74,0,14.76-13.36,15-14a.61.61,0,0,0-.3-.8.62.62,0,0,0-.8.31c-.07.15-6.67,14.82-15.37,13.1a6.27,6.27,0,0,1-4.58-3c-2-3.68.09-9.24.11-9.3A.6.6,0,1,0,395,58.4c-.09.25-2.33,6.15,0,10.31a7.45,7.45,0,0,0,5.4,3.62A9,9,0,0,0,402.09,72.49Z"/><path class="cls-6" d="M402,82a20.11,20.11,0,0,0,8.7-2.21,37,37,0,0,0,9.12-6.39.4.4,0,0,0,0-.54.32.32,0,0,0-.49,0,36.54,36.54,0,0,1-8.95,6.27c-6.82,3.27-12.7,2.8-17.46-1.38a.32.32,0,0,0-.49.05.41.41,0,0,0,.05.54A14.1,14.1,0,0,0,401.92,82Z"/><path class="cls-6" d="M402.23,75.3c3.8,0,8.22-3.27,8.47-3.45a.4.4,0,0,0,.09-.53.34.34,0,0,0-.49-.1c-.07.06-7.46,5.52-10.9,2.3a.34.34,0,0,0-.5,0,.41.41,0,0,0,0,.54A4.65,4.65,0,0,0,402.23,75.3Z"/><path class="cls-6" d="M392.16,142.65a25.34,25.34,0,0,0,4.37-.39,36.4,36.4,0,0,0,11.34-4.2A54.86,54.86,0,0,0,419,129.74a.41.41,0,0,0,0-.54.34.34,0,0,0-.5,0,52.86,52.86,0,0,1-11,8.21c-6,3.32-14.91,6.51-23.63,2.87a.33.33,0,0,0-.45.22.39.39,0,0,0,.2.49A21.9,21.9,0,0,0,392.16,142.65Z"/><path class="cls-7" d="M417.6,44.26s-.66,5.21.84,7.28c0,0-3.82,2.93-6.78,1.36C411.66,52.9,414.93,45.1,417.6,44.26Z"/><path class="cls-7" d="M391.15,25.53a12.73,12.73,0,0,0,0,1.51h0A16.61,16.61,0,0,0,392.32,32l.42.06.41.06,1.45.21s6.41-11.53,12.45-9.53,6.49,15.73,6.49,15.73l7.71.24s5.42-8.41,2.53-15.79c-2.41-6.15-9-5.7-9-5.7s-5.69-5.3-12.63-3.48C397.61,14.93,391.52,18.68,391.15,25.53Z"/><path class="cls-4" d="M397.88,52.83l-.77,4a11.63,11.63,0,0,0,1.24,1.28c6.22,5.56,14.8,1.78,14.8,1.78l2.67-14L400,52Z"/><path class="cls-7" d="M397.88,52.83l-.65,3.43c8.94.12,13.1-4.79,13.1-4.79L400,52Z"/><path class="cls-5" d="M396.2,34.13s-1.78-3.15-3.6-.69-1.86,8.16,1.81,7.92Z"/><path class="cls-4" d="M391.94,43.18s-1.61,8.37,7.1,10,15.83-4,16.2-4.3h0l.43-1.74,2.23-9,1.19-4.82s2.78-8.58-5.26-11.77c-5.88-2.33-11.79-2.41-15.28.23l-.33.26a7.66,7.66,0,0,0-2.42,3.78l-1.94,8.71-.47,2.13Z"/><path class="cls-10" d="M405,39.85s-5.38,1-9.07-.42c0,0,0,5,4.69,4.73C403.73,44,405,39.85,405,39.85Z"/><path class="cls-7" d="M393.28,32.09l2.73.25s.67-6.57,4.82-9.2c2.68-1.69,7.31-.18,10.29,1.11.16.08.32.14.48.21.74.34,1.35.65,1.76.87l.4.21.16.09s-2.35,3.19-.21,6.33c1.81,2.66-2.17,7.63-2.17,7.63l4,.75c2.19-.63,3.73-4.67,3.73-4.67s3.14-5.29,1.44-10.37c-.93-2.76-5-5.22-9.5-6.62l-.8-.24c-3.53-1-7.24-1.3-9.81-.58-2,.57-3.53,2.37-4.61,4.51a19.31,19.31,0,0,0-.8,1.8A34.93,34.93,0,0,0,393.28,32.09Z"/><path class="cls-7" d="M411.16,31h0a2,2,0,0,1-2.76.51,10.64,10.64,0,0,0-1.84-1,1.84,1.84,0,0,1-.94-2.51h0S409.73,28.35,411.16,31Z"/><path class="cls-7" d="M395.42,28h0a2,2,0,0,0,2.38,1.49,11,11,0,0,1,2.09-.27,1.85,1.85,0,0,0,1.8-2h0S397.71,26.06,395.42,28Z"/><path class="cls-5" d="M405,37.74c-.12.6,1,1.34,2.59,1.63s2.89,0,3-.57-1-1.34-2.59-1.63S405.13,37.13,405,37.74Z"/><path class="cls-5" d="M393.4,36.63a6,6,0,0,0,.67.16c1.54.3,2.89,0,3-.57s-1.05-1.34-2.59-1.63l-.62-.09Z"/><path class="cls-7" d="M405.65,34.38c-.16.84.09,1.59.56,1.68s1-.52,1.14-1.35-.09-1.59-.56-1.68S405.81,33.55,405.65,34.38Z"/><path class="cls-7" d="M397.25,32.78c-.16.84.09,1.59.56,1.68s1-.52,1.13-1.36-.09-1.58-.56-1.67S397.41,32,397.25,32.78Z"/><path class="cls-7" d="M413.16,45c0,.1.64,2.86,2.08,3.91h0l.43-1.75A6.07,6.07,0,0,1,413.16,45Z"/><path class="cls-4" d="M415.8,39.46s4.2-3.85,6,.14c1.47,3.3-3.8,10.15-7.3,6.79Z"/><path class="cls-7" d="M415.2,45.13a.36.36,0,0,0,.4-.25,5.84,5.84,0,0,1,4.22-4,.36.36,0,0,0,.28-.41.35.35,0,0,0-.41-.28,6.55,6.55,0,0,0-4.76,4.48.35.35,0,0,0,.23.44Z"/><path class="cls-7" d="M418.81,43.65a.35.35,0,0,0,.29-.07.36.36,0,0,0,0-.5c-.12-.14-1.17-1.34-2.25-1.28a.36.36,0,0,0-.33.38.35.35,0,0,0,.37.32c.63,0,1.42.73,1.67,1A.33.33,0,0,0,418.81,43.65Z"/><path class="cls-7" d="M400.92,37.85a.35.35,0,0,0,.41-.28.35.35,0,0,0-.28-.41,2.42,2.42,0,0,1-1.87-1.35c1.91-2.57,3.82-5.16,3.84-5.19a.35.35,0,1,0-.56-.41s-2,2.71-3.95,5.33a.32.32,0,0,0-.06.3A3,3,0,0,0,400.92,37.85Z"/><path class="cls-4" d="M413.19,152.85a6.59,6.59,0,0,0,8.22,3.5l1.66-.6,1.61-.6,3.2-1.22c2.13-.83,4.24-1.69,6.35-2.58,4.2-1.8,8.38-3.72,12.55-5.87,2.08-1.08,4.15-2.23,6.22-3.48a67.85,67.85,0,0,0,6.22-4.19,38.76,38.76,0,0,0,3.14-2.65,26.71,26.71,0,0,0,3.16-3.48,19.38,19.38,0,0,0,1.54-2.39,15.54,15.54,0,0,0,.71-1.47c.1-.23.24-.61.35-.94s.21-.66.28-1a15.66,15.66,0,0,0,.47-3.5,19.91,19.91,0,0,0-.14-2.87,28,28,0,0,0-1-4.64c-.4-1.39-.85-2.67-1.34-3.9a71.52,71.52,0,0,0-3.15-6.87c-2.24-4.32-4.67-8.33-7.2-12.22s-5.15-7.66-7.86-11.36q-2-2.78-4.11-5.49c-.7-.91-1.4-1.82-2.11-2.72L440.92,71l-.55-.68-.58-.71a9.77,9.77,0,1,0-15.18,12.31l.26.3.09.1,1,1.15,1,1.2c.7.81,1.4,1.63,2.09,2.45q2.08,2.46,4.11,5c2.7,3.34,5.34,6.72,7.83,10.14,1.24,1.71,2.45,3.43,3.61,5.16s2.26,3.45,3.28,5.18a56.11,56.11,0,0,1,2.7,5.07c.38.82.71,1.61,1,2.33.18.51.33,1,.43,1.38,0,.17.08.32.11.46s0,.25.06.34a.2.2,0,0,1,0,.07,9.57,9.57,0,0,1-1.18,1.5c-.53.57-1.16,1.17-1.84,1.77a53.19,53.19,0,0,1-4.59,3.54c-1.66,1.15-3.41,2.27-5.19,3.36-3.58,2.18-7.35,4.23-11.17,6.19q-2.88,1.47-5.8,2.88l-2.92,1.37-1.47.67-1.42.64-.15.07A6.56,6.56,0,0,0,413.19,152.85Z"/><path class="cls-5" d="M452.05,121.32c0,.17.08.32.11.46s0,.25.06.34a16.18,16.18,0,0,1,7,1.13.47.47,0,0,0,.17,0,.4.4,0,0,0,.17-.76,14.85,14.85,0,0,0-5.45-1.2c-.52,0-1,0-1.4,0Z"/><path class="cls-5" d="M452.83,122.1a.46.46,0,0,0,.25-.08,21.92,21.92,0,0,1,3.78-2.14.4.4,0,0,0,.21-.53.41.41,0,0,0-.53-.21,22.27,22.27,0,0,0-4,2.25.39.39,0,0,0-.07.56A.41.41,0,0,0,452.83,122.1Z"/><path class="cls-4" d="M420.59,147.14a8.62,8.62,0,0,0-3.73-1.54,16.91,16.91,0,0,0-6.43.05c-2.48.65-9.66,3-10.64,4.86s5.36.36,6.67.07a5,5,0,0,1,2.3,0s-14.29,4.62-14.91,6.2,7.78-.23,9.86-.69c0,0-10.58,4.07-10.65,5.2-.15,2.26,11.72-1.93,11.72-1.93s-8.72,3.88-8,5.3S406.79,162,406.79,162s-5.31,3.36-5.29,4.85,11.74-4.71,13.42-5.88,6.49-3.94,8.4-5.82C424.62,153.84,423.18,149.45,420.59,147.14Z"/><path class="cls-7" d="M415.43,144.92s1.67,7.34,5.81,11.74a4.31,4.31,0,0,0,3-1.31,28.19,28.19,0,0,1-6-12A4,4,0,0,0,415.43,144.92Z"/><path class="cls-7" d="M422.73,148.41a4.12,4.12,0,1,1-5.53-1.85A4.12,4.12,0,0,1,422.73,148.41Z"/><path class="cls-10" d="M420.37,152.91a3,3,0,1,1,1.33-4A3,3,0,0,1,420.37,152.91Z"/><path class="cls-13" d="M426,63.62s7.91-2.67,13.8,2.43,15,18.52,15,18.52-13.43,12.69-22.24,14.16c0,0-9.79-14.33-12.12-20.38C416.56,68.26,426,63.62,426,63.62Z"/><path class="cls-6" d="M427.09,84.2c.11.2,1,1.85,2.29,4.16l.59,1c2.54,4.45,6.22,10.63,8.95,14,0-.39,0-.77-.05-1.15v-.09A136.21,136.21,0,0,1,430.57,89l0,0c-1.64-2.89-2.79-5-2.82-5.08a.35.35,0,0,0-.49-.15A.36.36,0,0,0,427.09,84.2Z"/><path class="cls-6" d="M430.24,89.49a.21.21,0,0,1-.15,0l-4.48-2a.37.37,0,0,1-.18-.48.35.35,0,0,1,.47-.18l4.48,2a.36.36,0,0,1-.14.69Z"/><g class="cls-14"><ellipse class="cls-15" cx="168.53" cy="363.37" rx="119.66" ry="7.23"/></g><path class="cls-16" d="M179.6,178.2c.11.45.24.9.37,1.33v.05c.19.59.39,1.16.61,1.7,1.95,4.79,17.08,5.49,32,3.83,11.55-1.29,23-4,28-7.36,4.7-3.14-5.32-32.11-5.32-32.11L178.72,157.5S177.45,169.55,179.6,178.2Z"/><polygon class="cls-4" points="228.43 332.39 229.83 342.91 241.38 342.91 240.93 332.08 228.43 332.39"/><path class="cls-7" d="M269.88,361.16H226.2a6,6,0,0,1-.58-2.43c-.27-3.69.91-9.59,1.48-13.31.07-.43.13-.84.18-1.21a12.91,12.91,0,0,0,.13-1.52,2.23,2.23,0,0,1,2.69-2.51c4.42,4.33,9.42-2.17,12.35,0,0,0,1.25.9,4.72,4s9.37,5.18,14.39,7.28c6.48,2.71,8.32,5.42,8.68,7.28A3.44,3.44,0,0,1,269.88,361.16Z"/><path class="cls-11" d="M269.88,361.16H226.2a6,6,0,0,1-.58-2.43h44.62A3.44,3.44,0,0,1,269.88,361.16Z"/><path class="cls-10" d="M243.1,342s.78-1.91,2.51-1.3,1.56,3.47,1.56,3.47S246.13,346.77,243.1,342Z"/><path class="cls-10" d="M242.56,350.59a.72.72,0,0,1-.72-.72,9.23,9.23,0,0,1,2.83-6.79.74.74,0,0,1,1,.09.72.72,0,0,1-.09,1,7.81,7.81,0,0,0-2.32,5.69A.72.72,0,0,1,242.56,350.59Z"/><path class="cls-10" d="M251.64,344.93a.74.74,0,0,1-.48-.18c-.91-.81-3.59-1-5.07-.87a.72.72,0,1,1-.09-1.43c.45,0,4.46-.24,6.12,1.22a.73.73,0,0,1,.06,1A.71.71,0,0,1,251.64,344.93Z"/><path class="cls-10" d="M243.74,344.51a25.44,25.44,0,0,1-3.48-.26c-2.28-.31-4-1.37-4.49-2.75a2.22,2.22,0,0,1,.52-2.33,3.1,3.1,0,0,1,2.26-1h.06c3,0,6.67,3.54,7.08,3.94l-.75.75H245l.3,1.53A8.33,8.33,0,0,1,243.74,344.51Zm-5.13-4.75h0a1.54,1.54,0,0,0-1.15.48.66.66,0,0,0-.18.74c.23.67,1.32,1.46,3.23,1.72a22.6,22.6,0,0,0,3.8.25C243.06,341.83,240.44,339.76,238.61,339.76Z"/><path class="cls-10" d="M246.49,343.72l-.67-1.41c1.44-.67,2.81-2.47,2.72-3.55,0-.26-.13-.58-.81-.78a.86.86,0,0,0-.85.1c-.75.58-1,2.55-1,3.66l-1.56,0c0-.37-.05-3.68,1.56-4.93a2.7,2.7,0,0,1,4.18,1.79C250.25,340.56,248.32,342.86,246.49,343.72Z"/><path class="cls-11" d="M230.65,361.16h-1.29a9.61,9.61,0,0,0,2.34-7,12.33,12.33,0,0,0-4.6-8.74c.07-.43.13-.84.18-1.21a13.39,13.39,0,0,1,5.46,9.9A10.59,10.59,0,0,1,230.65,361.16Z"/><path class="cls-10" d="M246.43,346.75a.72.72,0,0,1-.17-1.42l2.73-.68a.72.72,0,1,1,.34,1.4l-2.72.67Z"/><path class="cls-10" d="M249.16,348.33a.72.72,0,0,1-.17-1.42l2.73-.67a.72.72,0,1,1,.34,1.39l-2.73.68A.47.47,0,0,1,249.16,348.33Z"/><path class="cls-10" d="M251.89,349.86a.72.72,0,0,1-.17-1.42l2.73-.68a.72.72,0,0,1,.87.53.73.73,0,0,1-.53.87l-2.73.68Z"/><path class="cls-10" d="M254.86,351.27a.72.72,0,0,1-.17-1.42l2.73-.68a.72.72,0,0,1,.35,1.4l-2.73.68Z"/><path class="cls-10" d="M258.09,352.47a.72.72,0,0,1-.17-1.42l2.73-.68a.73.73,0,0,1,.87.53.71.71,0,0,1-.53.87l-2.72.68Z"/><path class="cls-17" d="M248,259.93l-4.41,66.51-.11,1.6-.31,4.78-16.64.51s-.2-2-.52-5.29c-.05-.5-.1-1-.16-1.6-1.45-15.19-4.59-51.08-2.92-61.58L213.63,185l-.22-1.88,21.35-9.83,1.34-.61,5.43-2.51c.05.44.1.88.14,1.31.18,1.64.35,3.27.52,4.9l.15,1.46c3.18,30.88,5.36,59.25,5.59,80.19,0,.49,0,1,0,1.46C247.94,259.63,248,259.78,248,259.93Z"/><path class="cls-18" d="M247.94,259.47a20.51,20.51,0,0,1-4.78.52,27.85,27.85,0,0,1-5-.45.71.71,0,1,1,.28-1.39,24.89,24.89,0,0,0,9.51-.14C247.94,258.5,247.94,259,247.94,259.47Z"/><path class="cls-18" d="M243.54,326.44l-.11,1.6H226c-.05-.5-.1-1-.16-1.6Z"/><path class="cls-18" d="M228.16,328c-.07-.54-.13-1.07-.19-1.6-5-43.58-1.87-62.69-1.57-64.36l-10-76.07a.69.69,0,0,1,1.37-.18l10,76.18a.6.6,0,0,1,0,.23c0,.19-3.67,18.9,1.59,64.2l.18,1.6Z"/><path class="cls-18" d="M228.76,160.82c.07.35,1.43,7.43,6,12.45a16.33,16.33,0,0,0,3.18,2.71,13.16,13.16,0,0,0,2.95,1.43,10.41,10.41,0,0,0,1.45.41l-.15-1.46c-.24-.06-.47-.13-.7-.21a12.16,12.16,0,0,1-2.8-1.33,14.27,14.27,0,0,1-2.59-2.17c-4.57-4.76-6-12-6-12.09a.69.69,0,0,0-1.36.26Z"/><path class="cls-18" d="M218.83,182.1a.57.57,0,0,1-.54.59h0a.56.56,0,0,1-.6-.53c-.1-2.09-.23-4.23-.36-6.36,0-.38,0-.76-.07-1.13-.46-7-1-13.84-1.47-18.68,0-.39-.07-.77-.1-1.13-.1-1.06-.19-2-.26-2.8l1.14-.19c.08.8.16,1.75.26,2.82,0,.37.07.75.1,1.14.44,4.8,1,11.59,1.46,18.53,0,.38.05.77.08,1.15C218.6,177.72,218.73,179.94,218.83,182.1Z"/><path class="cls-18" d="M220.48,174.74a16.11,16.11,0,0,1-2,.77c-.36.11-.75.21-1.14.29a8.13,8.13,0,0,1-1.09.14,4,4,0,0,1-1.94-.31,2.36,2.36,0,0,1-1.32-1.76c-.42-2.15-1.3-11.05-1.89-17.34,0-.38-.07-.76-.11-1.13-.09-1-.18-1.92-.25-2.69l1.15-.15c.07.78.16,1.71.25,2.73,0,.36.07.74.11,1.13.59,6.27,1.47,15.15,1.88,17.24a1.25,1.25,0,0,0,.7,1,4.08,4.08,0,0,0,2.44,0c.38-.09.77-.2,1.13-.31a16.81,16.81,0,0,0,1.59-.62.58.58,0,0,1,.77.25A.56.56,0,0,1,220.48,174.74Z"/><polygon class="cls-4" points="197.55 333.86 198.69 342.92 210.24 342.92 210.91 333.38 197.55 333.86"/><path class="cls-17" d="M212.55,175.93V331.37l-.17,2.46H195.24c-.2-1.2-.66-3.2-1.26-5.79-.12-.51-.25-1-.38-1.6-2.25-9.57-5.95-25.44-6.61-39.27-1-20.12-.69-46.2-.69-46.2-1.87-14.22-4.73-44.22-6.33-61.39v-.05c-.05-.45-.09-.9-.13-1.33l-1-11.38c2.66-1.11,7.4-.41,12.5,1l1.36.38A157.71,157.71,0,0,1,212.55,175.93Z"/><path class="cls-18" d="M212.55,326.44V328H194c-.12-.51-.25-1-.38-1.6Z"/><path class="cls-18" d="M212.55,254.78v1.46a19.26,19.26,0,0,1-4.12.41,31.15,31.15,0,0,1-7.89-1.1.72.72,0,0,1-.47-.89.71.71,0,0,1,.88-.48C201,254.2,207.3,256,212.55,254.78Z"/><path class="cls-18" d="M195.58,328c-.09-.5-.19-1-.3-1.6-1.54-8.17-4.22-22.77-5.63-32.33-2-13.62-1.07-51.34-1-53-1.53-13-4.63-57.56-4.66-58a.69.69,0,1,1,1.38-.09c0,.45,3.14,45.07,4.66,58a.31.31,0,0,1,0,.1c0,.39-1,39,1,52.76,1.42,9.63,4.14,24.42,5.67,32.53.11.57.21,1.1.3,1.6Z"/><path class="cls-7" d="M215.06,358.36c0,.1,0,.2,0,.3,0,.46,0,.88-.05,1.23,0,.79-.1,1.27-.1,1.27h-26a14.18,14.18,0,0,1,0-2.5c.17-2.66,1.05-6.86,4.65-9.63,4.92-3.81,3-3,4-4.75.11-.19,1-3.14,1.09-3.34.85-1.8,1.62-2.65,6.29-2.65,6.18,0,6.72,3,7.38,4.58a27.72,27.72,0,0,1,1,3.67c.16.66.31,1.36.47,2.08.38,1.79.73,3.66,1,5.16A27.74,27.74,0,0,1,215.06,358.36Z"/><path class="cls-11" d="M215.06,358.36c0,.1,0,.2,0,.3,0,.46,0,.88-.05,1.23a7.3,7.3,0,0,1-2.7-3.5c-1.61-4.39.87-9.65,1-9.87l0,0c.16.66.31,1.36.47,2.08-.59,1.79-1.26,4.8-.33,7.35A6.26,6.26,0,0,0,215.06,358.36Z"/><path class="cls-11" d="M215.05,358.66c0,1.48-.15,2.5-.15,2.5h-26a14.18,14.18,0,0,1,0-2.5Z"/><path class="cls-10" d="M202.17,342.1a.7.7,0,0,1-.31-.07c-.66-.3-6.45-3-6.91-5.81a2.34,2.34,0,0,1,.83-2.17,2.16,2.16,0,0,1,2.11-.59c2.62.69,4.61,6.51,5,7.67a.74.74,0,0,1-.22.78A.73.73,0,0,1,202.17,342.1Zm-4.83-7.23a.83.83,0,0,0-.56.27.87.87,0,0,0-.36.84c.19,1.2,2.4,2.76,4.41,3.87-.92-2.26-2.25-4.67-3.32-5Z"/><path class="cls-10" d="M203.43,342.1a.75.75,0,0,1-.49-.19.74.74,0,0,1-.21-.78c.37-1.16,2.36-7,5-7.67a2.18,2.18,0,0,1,2.12.59,2.35,2.35,0,0,1,.82,2.17c-.45,2.82-6.25,5.51-6.91,5.81A.67.67,0,0,1,203.43,342.1Zm4.83-7.23-.17,0c-1.07.29-2.4,2.7-3.32,5,2-1.11,4.22-2.68,4.41-3.87a.85.85,0,0,0-.36-.84A.83.83,0,0,0,208.26,334.87Z"/><path class="cls-10" d="M202.78,339.93s-1.21-.57-1.31,1.09c-.07,1.35.89,1.63,1.28,1.41A1.11,1.11,0,0,0,204,342C204.4,341.36,204.12,339.26,202.78,339.93Z"/><path class="cls-10" d="M197.46,344.47a.76.76,0,0,1-.45-.15.75.75,0,0,1-.15-1,6.33,6.33,0,0,1,6.1-2.42.74.74,0,1,1-.29,1.45,4.86,4.86,0,0,0-4.62,1.86A.72.72,0,0,1,197.46,344.47Z"/><path class="cls-10" d="M208.83,345.22a.73.73,0,0,1-.68-.44c-1.2-2.64-5.4-3.28-5.44-3.29a.74.74,0,0,1,.21-1.47c.21,0,5.05.77,6.58,4.15a.74.74,0,0,1-.37,1A.66.66,0,0,1,208.83,345.22Z"/><path class="cls-10" d="M205.76,346.4l-.18,0a13,13,0,0,0-6-.13.74.74,0,1,1-.4-1.43,14.43,14.43,0,0,1,6.8.12.74.74,0,0,1-.19,1.46Z"/><path class="cls-10" d="M204.65,348.75l-.18,0a13.22,13.22,0,0,0-6-.13.74.74,0,1,1-.39-1.43,14.42,14.42,0,0,1,6.8.12.74.74,0,0,1-.19,1.46Z"/><path class="cls-10" d="M203.34,351.42a.55.55,0,0,1-.18,0,13,13,0,0,0-6-.12.74.74,0,0,1-.39-1.43,14.19,14.19,0,0,1,6.8.11.75.75,0,0,1,.53.91A.74.74,0,0,1,203.34,351.42Z"/><path class="cls-18" d="M179.6,178.2c.11.45.24.9.37,1.33v.05h0a11.26,11.26,0,0,0,6.69-2.22c3-2.25,4.87-5.82,6-9.17a36.14,36.14,0,0,0,1.66-8.46.69.69,0,0,0-.66-.73.71.71,0,0,0-.73.66,34.7,34.7,0,0,1-1.63,8.14c-1,3.13-2.73,6.43-5.46,8.45a10,10,0,0,1-6,1.95Z"/><path class="cls-10" d="M178.62,170.88l-1.42,8.71s16.48,3.68,26.86,1,35.44-5.17,39.73-5.34l-3.18-11.05S208.9,173.81,178.62,170.88Z"/><path class="cls-9" d="M213.84,61.71S220,49.27,207,42.37c-9.09-4.83-26.65-5.72-32,5.34-5,10.28,6.22,18.92,6.22,18.92S205.18,71.76,213.84,61.71Z"/><path class="cls-7" d="M192.68,47.31s-11.24,1.53-7.17,7.52c2.16,3.17,14.34,4.9,14.34,4.9S202.23,48.75,192.68,47.31Z"/><path class="cls-8" d="M170.26,93.48c.11,1.5.22,2.92.34,4.26,0,.46.08.9.12,1.34,1.13,12.42,2.36,18.66,1.85,31.28-1.48,36.72,7.6,37.26,7.6,37.26,17.94,7,59.57-7,59.57-7s3.87-8.31,1.43-23.08c-3.15-19-7.65-28-10-39.41s.1-31.27-7.41-34-17.3-7.53-17.3-7.53c-6.42,2.89-15.55,0-15.55,0A121.39,121.39,0,0,0,172,65.19C163.83,70.06,169.05,77.08,170.26,93.48Z"/><path class="cls-9" d="M241.33,154.85s1.79,5.71-.72,9.37c0,0-36.9,12.71-62,6.66,0,0-2.25-2.72-2.88-8.31C175.74,162.57,205.4,170.07,241.33,154.85Z"/><path class="cls-9" d="M203.15,74.08a9.77,9.77,0,0,0,9.13-6.28.46.46,0,0,0-.29-.58.45.45,0,0,0-.57.29h0a8.72,8.72,0,0,1-9,5.64C195.37,72.7,186.27,68,186.18,68a.45.45,0,1,0-.42.8c.38.2,9.36,4.82,16.64,5.27Z"/><path class="cls-9" d="M227.31,126.68s4.81,14.72,3.05,22.89c0,0-15.83,9.43-39.41,4.69,0,0-1.33-14.55-2.25-23.91C188.7,130.35,212.78,126.45,227.31,126.68Z"/><path class="cls-10" d="M200.44,139.24a.34.34,0,0,0,.34-.32c1.46-31.44-7.34-78.59-7.43-79.06a.32.32,0,0,0-.39-.27.34.34,0,0,0-.28.39c.09.48,8.87,47.55,7.42,78.91a.34.34,0,0,0,.33.35Z"/><path class="cls-10" d="M221.45,137.12h0a.34.34,0,0,0,.33-.35c-1.15-38-14-76.69-14.17-77.08a.34.34,0,1,0-.64.22c.13.38,13,39,14.13,76.88A.33.33,0,0,0,221.45,137.12Z"/><path class="cls-7" d="M219.56,62.16S222,85.81,212.78,102c-12.34,21.59-40.21,28.39-40.21,28.39a14.61,14.61,0,0,1,.08-8.7s25.78-4.79,36.58-26.36c8.79-17.54,4.61-35.06,4.61-35.06S217.63,60.23,219.56,62.16Z"/><path class="cls-7" d="M198.1,121.48l.48,0a21.13,21.13,0,0,0,2.37-.34c.42-.08.84-.18,1.25-.29.63-.17,1.25-.36,1.86-.59.44-.16.88-.33,1.31-.52a25.89,25.89,0,0,0,13.43-14c.17-.44.33-.88.47-1.34a23,23,0,0,0,.64-2.44c.08-.42.15-.83.2-1.25a16.92,16.92,0,0,0,.18-2.25c0-.16,0-.32,0-.48,0-7.68-11.1-12.26-11.1-12.26l-3,5.18-.68,1.19-5.28,9.24-8.75,5.7-1.13.74-5.19,3.38S190.43,121.89,198.1,121.48Z"/><g class="cls-19"><path class="cls-11" d="M201,121.11c.42-.08.84-.18,1.25-.29-2.12-5.77-7-10.71-10.67-13.82l-1.13.74C194,110.72,198.84,115.56,201,121.11Z"/></g><g class="cls-19"><path class="cls-11" d="M210.08,96.78c3.37,3,6.69,4.71,9.83,5.15.08-.42.15-.83.2-1.25-5.65-.78-10.86-6.1-13.87-9.81l-.68,1.19A43.34,43.34,0,0,0,210.08,96.78Z"/></g><path class="cls-20" d="M209.2,85.69S218,90.32,213,98s-13.86,17.18-19.25,17.74-8.55-4.6-8.55-4.6Z"/><g class="cls-19"><path class="cls-11" d="M204.06,120.23c.44-.16.88-.33,1.31-.52a14.63,14.63,0,0,1,3.58-9.22,15.18,15.18,0,0,1,9.85-4.78c.17-.44.33-.88.47-1.34A16.61,16.61,0,0,0,208,109.66,15.89,15.89,0,0,0,204.06,120.23Z"/></g><path class="cls-4" d="M206.79,53.2v4.16a13.12,13.12,0,0,1-1.47,1c-7.24,4.34-15-1-15-1V42.92l14.54,9Z"/><path class="cls-7" d="M206.79,53.08v4.28a13.12,13.12,0,0,1-1.47,1c-6.16-2.44-10.64-8.89-10.64-8.89L204.82,52Z"/><path class="cls-7" d="M208.89,18.66s8.07,2,5.09,8.63C214,27.29,208.66,21.42,208.89,18.66Z"/><path class="cls-21" d="M211.4,34.74s2.37-2.79,3.7,0,.31,8.45-3.29,7.53Z"/><path class="cls-4" d="M214.52,44.54s0,8.61-9,8.59-15-7-15.28-7.33h0L190.19,44l-.51-9.39-.27-5s-1.14-9,7.45-10.69C203.14,17.68,209,18.72,212,22a7.68,7.68,0,0,1,2,4.53l.28,9,.07,2.21Z"/><path class="cls-7" d="M186.45,30.37A7.42,7.42,0,0,0,187.74,34a5.26,5.26,0,0,1,4.18,3.23l2.24.3a22.3,22.3,0,0,0-.47-6.42c-.59-2.13,1.4-2.79,1.87-4.65a2.45,2.45,0,0,0,0-1.64,8.34,8.34,0,0,1,7-1.27c3.81,1.18,7.3,1.58,9-.73A1.94,1.94,0,0,0,212,22c-3-3.28-8.85-4.32-15.13-3.12-8.59,1.65-10.54,5.82-10.54,5.82C185.66,26.82,186.27,28.54,186.45,30.37Z"/><path class="cls-21" d="M193.61,30a38.69,38.69,0,0,0-6.82,2.1,6.52,6.52,0,0,0,1,1.89,5.26,5.26,0,0,1,4.18,3.23l2.24.3a22.3,22.3,0,0,0-.47-6.42A2.51,2.51,0,0,1,193.61,30Z"/><path class="cls-13" d="M185,24.5s14-5.52,23.86-5.85l.77,0a17.86,17.86,0,0,1,2.91.19s-1.89-5.07-8.67-6.56a17,17,0,0,0-2.52-.35,21.92,21.92,0,0,0-3.93.08l-.14,0c-.38,0-.74.09-1.1.15a17,17,0,0,0-3,.74c-.24.08-.47.17-.69.26a12.93,12.93,0,0,0-4,2.53,12.59,12.59,0,0,0-.95,1A10.8,10.8,0,0,0,185,24.5Z"/><path class="cls-18" d="M201.33,11.91a12.93,12.93,0,0,1,7.51,6.74,7.17,7.17,0,0,1,.3.69l.66-.26c-.06-.15-.12-.3-.19-.45a13.36,13.36,0,0,0-5.76-6.37A17,17,0,0,0,201.33,11.91Z"/><path class="cls-18" d="M196.16,12.16c3.47,1.51,5.14,5.49,5.16,5.54l.66-.27A12.66,12.66,0,0,0,197.4,12l-.14,0C196.88,12.05,196.52,12.1,196.16,12.16Z"/><path class="cls-18" d="M192.5,13.16c.25,1.76,1.11,5.4,4.1,7.26l.38-.6c-2.81-1.75-3.59-5.35-3.79-6.92C193,13,192.72,13.07,192.5,13.16Z"/><path class="cls-18" d="M188.31,23.24l.61-.36c-1.3-2.22-.95-5.15-.45-7.19a12.59,12.59,0,0,0-.95,1A9.79,9.79,0,0,0,188.31,23.24Z"/><path class="cls-13" d="M213.51,21.51a36.24,36.24,0,0,0-27.26,7.42,4.46,4.46,0,0,1-1.27-4.6s12.35-11.1,27.54-6.33A3.44,3.44,0,0,1,213.51,21.51Z"/><g class="cls-22"><path class="cls-21" d="M202.56,36.65c0,.63-1.29,1.14-2.89,1.14s-2.88-.51-2.88-1.14,1.29-1.13,2.88-1.13S202.56,36,202.56,36.65Z"/></g><g class="cls-22"><path class="cls-21" d="M214.31,37.76c-.23,0-.46,0-.7,0-1.59,0-2.88-.51-2.88-1.14s1.29-1.13,2.88-1.13q.33,0,.63,0Z"/></g><path class="cls-7" d="M202.65,33.2c0,.87-.39,1.56-.87,1.56s-.87-.69-.87-1.56.39-1.55.87-1.55S202.65,32.34,202.65,33.2Z"/><path class="cls-7" d="M211.17,33.2c0,.87-.39,1.56-.87,1.56s-.88-.69-.88-1.56.39-1.55.88-1.55S211.17,32.34,211.17,33.2Z"/><path class="cls-7" d="M198.15,29.25c.2-.9,1-2.61,3.86-2.74a.76.76,0,0,1,.77.56h0a.76.76,0,0,1-.59.95,3.42,3.42,0,0,0-2.53,1.82.76.76,0,0,1-1.08.28l-.08-.05A.78.78,0,0,1,198.15,29.25Z"/><path class="cls-7" d="M213.05,29.25c-.2-.9-1-2.61-3.86-2.74a.76.76,0,0,0-.77.56h0A.76.76,0,0,0,209,28a3.42,3.42,0,0,1,2.53,1.82.76.76,0,0,0,1.08.28l.09-.05A.78.78,0,0,0,213.05,29.25Z"/><path class="cls-7" d="M202.27,39.26S204.88,42,208,42a5.41,5.41,0,0,0,3.22-1.07.35.35,0,1,0-.41-.57c-3.9,2.78-8-1.53-8.05-1.58a.35.35,0,0,0-.5,0,.36.36,0,0,0,0,.5"/><path class="cls-7" d="M193.1,42.31c0,.09-1.18,2.72-2.81,3.49h0L190.19,44A6.2,6.2,0,0,0,193.1,42.31Z"/><path class="cls-4" d="M191.52,36.33s-3.44-4.63-6-1c-2.08,3,1.85,10.79,6,8.12Z"/><path class="cls-10" d="M188,42a.8.8,0,1,0,1.59,0A.8.8,0,0,0,188,42Z"/><path class="cls-7" d="M191.05,42.07h0a.36.36,0,0,0,.31-.39,6.6,6.6,0,0,0-3.88-5.35.35.35,0,0,0-.46.19.35.35,0,0,0,.2.46h0a5.94,5.94,0,0,1,3.44,4.77A.36.36,0,0,0,191.05,42.07Z"/><path class="cls-7" d="M187.74,39.92a.34.34,0,0,0,.23-.08h0c.3-.25,1.24-.86,1.85-.7a.36.36,0,0,0,.43-.26.36.36,0,0,0-.26-.43,3.43,3.43,0,0,0-2.47.84.36.36,0,0,0-.05.5A.34.34,0,0,0,187.74,39.92Z"/><path class="cls-7" d="M206.6,37.54A3,3,0,0,0,209.44,36a.39.39,0,0,0,0-.3c-1.44-3-2.9-6-2.92-6.05a.35.35,0,1,0-.63.31s1.41,3,2.83,5.87a2.44,2.44,0,0,1-2.12,1,.36.36,0,0,0,0,.71Z"/><path class="cls-9" d="M190.2,54.37S198.09,60,200.44,60a13.06,13.06,0,0,1-7.91,4c-6.35.63-17.07-.76-17.07-.76S183.57,57.37,190.2,54.37Z"/><path class="cls-9" d="M206.79,54.23A9.55,9.55,0,0,1,200.44,60a5.08,5.08,0,0,0,5.89,3.66,13.78,13.78,0,0,0,7.51-3.45S210.6,54.23,206.79,54.23Z"/><path class="cls-8" d="M191,154.26s-19.12,3.26-32.27-4.5c-7.46-4.41-13-12.38-12-26.51,0-.21,0-.43.05-.64,3.1-38.15,22.78-55.41,22.78-55.41,7.38-1.92,15.58,0,4.2,48.61-3.33,19.7,15.66,21.31,15.66,21.31Z"/><path class="cls-9" d="M173.29,120.31a.58.58,0,0,1-.19,0,.59.59,0,0,1-.38-.75c.07-.24,7.66-23.73,7.79-36.14a.6.6,0,0,1,.6-.6h0a.62.62,0,0,1,.6.61c-.14,12.59-7.78,36.26-7.85,36.5A.61.61,0,0,1,173.29,120.31Z"/><path class="cls-9" d="M180.14,93.26a.62.62,0,0,1-.32-.09.59.59,0,0,1-.19-.82l3.5-5.68a.59.59,0,0,1,.82-.19.6.6,0,0,1,.2.82L180.65,93A.61.61,0,0,1,180.14,93.26Z"/><path class="cls-9" d="M186.89,155.54a.61.61,0,0,1-.55-.36c-2.19-5.15-1.69-19.69-1.67-20.31a.6.6,0,0,1,1.2,0c0,.15-.52,14.89,1.57,19.8a.59.59,0,0,1-.31.78A.69.69,0,0,1,186.89,155.54Z"/><path class="cls-9" d="M181.33,156.11a35,35,0,0,1-9.52-1.27.6.6,0,0,1,.33-1.15,36.7,36.7,0,0,0,18.63,0,.6.6,0,0,1,.75.4.59.59,0,0,1-.4.74A35.78,35.78,0,0,1,181.33,156.11Z"/><path class="cls-9" d="M185.54,135.49c-.24,0-.5,0-.75,0-2.57-.16-6.3-1.29-9.5-5.71a.6.6,0,0,1,1-.71c5.56,7.69,12.63,4.72,12.93,4.59a.6.6,0,1,1,.48,1.1A11.15,11.15,0,0,1,185.54,135.49Z"/><path class="cls-9" d="M158.68,149.76c-7.46-4.41-13-12.38-12-26.51C151.89,129.06,160.35,140.14,158.68,149.76Z"/><path class="cls-8" d="M252.92,135.94c-8.33,8.75-22.27,11.67-22.27,11.67a53.22,53.22,0,0,0-2.12-16.68s7.84-1.52,4.64-20.64c-11.38-31.82-10-45.11-7.21-44.58,0,0,23.44,13.76,31.47,50.28.26,1.18.5,2.39.73,3.62C259.4,126.39,256.89,131.76,252.92,135.94Z"/><path class="cls-9" d="M252.92,135.94c-1.32-7.34,2.55-16.13,4.51-20,.26,1.18.5,2.39.73,3.62C259.4,126.39,256.89,131.76,252.92,135.94Z"/><path class="cls-9" d="M236.91,121.08a.6.6,0,0,1-.59-.55c-1.35-15-8.44-35.47-8.51-35.68a.6.6,0,0,1,1.13-.39c.07.2,7.21,20.82,8.57,36a.6.6,0,0,1-.54.65Z"/><path class="cls-9" d="M230.76,92.73a.58.58,0,0,1-.47-.23l-3.94-5.19a.6.6,0,1,1,1-.72l3.93,5.18a.6.6,0,0,1-.11.84A.63.63,0,0,1,230.76,92.73Z"/><path class="cls-9" d="M230,148.51a.6.6,0,0,1-.14-1.19c.09,0,9.3-2.27,13.61-4.54a.6.6,0,0,1,.56,1.06c-4.44,2.34-13.5,4.56-13.89,4.65Z"/><path class="cls-9" d="M227.47,127.77a.6.6,0,0,1-.38-1.07c.91-.73,9-7.1,12.49-6.17a.62.62,0,0,1,.43.74.59.59,0,0,1-.73.42c-2.5-.66-9.1,4.07-11.44,5.94A.59.59,0,0,1,227.47,127.77Z"/><path class="cls-7" d="M102.77,141.77c-7.27-1.31-13.4,3.25-15.26,10.39a134.44,134.44,0,0,0-3.92,26.56c-1.39,26.09-.7,48.73.27,60.49A11.74,11.74,0,0,0,95.25,250h0a11.74,11.74,0,0,0,12-10.43l7.33-82.3A14.08,14.08,0,0,0,103,141.81Z"/><polygon class="cls-23" points="86.41 350.37 86.3 316.74 99.43 317.23 96.6 352.11 86.41 350.37"/><path class="cls-10" d="M77.16,360.88A7.81,7.81,0,0,0,76,365.76H97.85v-4.88Z"/><path d="M97.85,360.88l-.8-12.34S93.83,343,86,347.83c0,0-2.33,5.62-4.37,7.7a39.06,39.06,0,0,0-4.44,5.35Z"/><g class="cls-24"><path class="cls-10" d="M98.62,362.21s-.34-5.47-10.05-5.47S76.12,362,76.12,362l24.1.17"/></g><path class="cls-25" d="M86.55,354.5a7,7,0,0,1,6.73.22"/><path class="cls-26" d="M87.15,352.43a6.5,6.5,0,0,1,6.47.21"/><path class="cls-27" d="M87.86,350.36a5.81,5.81,0,0,1,6.08.2"/><line class="cls-28" x1="97.85" y1="360.88" x2="77.16" y2="360.88"/><path class="cls-7" d="M107.06,238.74l-5.63,99.95L82,339l1.76-101.19a11.67,11.67,0,0,1,12-11.17h0A11.65,11.65,0,0,1,107.06,238.74Z"/><path class="cls-7" d="M127.46,141.65c7.29-1.11,11.7,3.61,13.37,10.8a133.22,133.22,0,0,1,3.22,26.65c.71,26.12-.57,48.72-1.85,60.46A11.72,11.72,0,0,1,130.54,250h0a11.73,11.73,0,0,1-11.69-10.73l-3.57-82.47a14.08,14.08,0,0,1,11.93-15.11Z"/><polygon class="cls-23" points="127.24 353.67 125.81 320.07 139.68 320.07 138.06 355.03 127.24 353.67"/><path d="M126.5,348.88a11.5,11.5,0,0,0,10.38-.08s1.6-4.92,6.06-2.06a26,26,0,0,0,12.81,7.32c10.61,2.15,11.09,7.09,11.09,7.09H123.28a97.93,97.93,0,0,1,.86-10.95A1.72,1.72,0,0,1,126.5,348.88Z"/><g class="cls-29"><path class="cls-10" d="M157.24,352.59s-4.83,2.22-7.06,11l18.08-.74S168.75,354.82,157.24,352.59Z"/></g><rect class="cls-10" x="123.28" y="361.15" width="43.56" height="4.92"/><path class="cls-30" d="M151.52,352.72s-1.7,0-3,2.31"/><path class="cls-30" d="M149.36,351.56s-1.71,0-3,2.31"/><path class="cls-30" d="M147.15,350.19s-1.71,0-3,2.31"/><line class="cls-28" x1="150.09" y1="360.97" x2="166.84" y2="360.97"/><path class="cls-7" d="M119,238.48l3.52,100.07H142l.37-100.41a11.65,11.65,0,0,0-11.66-11.47h0A11.65,11.65,0,0,0,119,238.48Z"/><path class="cls-7" d="M129.94,128.17H99.88s-7.68,5.51-12,22.69l22.7,12.94a8.34,8.34,0,0,0,8.57,0l21.15-13C135.71,134.1,129.94,128.17,129.94,128.17Z"/><line class="cls-31" x1="123.91" y1="164.99" x2="113.47" y2="164.99"/><path class="cls-31" d="M104,133.84s-.59,10.18-9.39,12.74"/><path class="cls-31" d="M129.53,134.06s1.21,8.22,8.23,12.73"/><path class="cls-23" d="M137.15,128.48l13.26,47.32,5.4-.55s-3.76-30.35-6.95-49.07c-.51-3-4.46-5.25-7.38-4.5h0C138.74,122.37,136.46,125.74,137.15,128.48Z"/><path class="cls-23" d="M150,172.82a14.51,14.51,0,0,0-.74,11.39l-1.19,6.26a2.09,2.09,0,0,0,1.2,2.32h0a1.78,1.78,0,0,0,2.35-1.1l1.3-3.56.21,1.33a10.11,10.11,0,0,1-1,6.14l-2.71,5.27a2,2,0,0,0,.06,1.94h0a1.69,1.69,0,0,0,2.91.17l4.38-6.4a11.37,11.37,0,0,0,1.67-8.72L155,171.42Z"/><path class="cls-23" d="M148.93,126.72l-6.63-34.9-13.52,4,8.58,33.45a5.93,5.93,0,0,0,7.16,4.29h0A5.94,5.94,0,0,0,148.93,126.72Z"/><path class="cls-10" d="M126.51,110.08,149,105.45,143.86,80.3a11.5,11.5,0,0,0-13.57-9h0a11.5,11.5,0,0,0-8.95,13.58Z"/><path class="cls-10" d="M114.06,63.42,88.65,73.7a3.65,3.65,0,0,0-2.13,4.4l13.58,45.47h30s6.63-35.48,9.41-47.19a3.69,3.69,0,0,0-2.29-4.4Z"/><path class="cls-23" d="M96.49,70.53l17.57-7.11L129.46,69s4.43,8.66-9.21,9.78C103.15,80.22,96.49,70.53,96.49,70.53Z"/><rect x="99.88" y="123.57" width="30.05" height="4.6"/><line class="cls-32" x1="132.93" y1="108.71" x2="136.4" y2="91.04"/><path class="cls-23" d="M89.13,130.17,75.87,177.49l-5.4-.55s3.76-30.35,7-49.08c.5-3,4.45-5.24,7.37-4.5h0C87.54,124.06,89.83,127.43,89.13,130.17Z"/><path class="cls-23" d="M76.3,174.51A14.5,14.5,0,0,1,77,185.89l1.19,6.27a2.08,2.08,0,0,1-1.2,2.32h0a1.78,1.78,0,0,1-2.35-1.1l-1.3-3.57-.21,1.34a10.07,10.07,0,0,0,1,6.13l2.72,5.28a2.06,2.06,0,0,1-.06,1.93h0a1.71,1.71,0,0,1-2.92.18l-4.38-6.41a11.32,11.32,0,0,1-1.66-8.72l3.45-16.44Z"/><path class="cls-23" d="M77.35,128.4,84,93.51l13.52,4L88.93,131a5.93,5.93,0,0,1-7.17,4.29h0A5.93,5.93,0,0,1,77.35,128.4Z"/><path class="cls-10" d="M99.78,111.76l-22.52-4.62L82.42,82A11.49,11.49,0,0,1,96,73h0a11.5,11.5,0,0,1,9,13.57Z"/><polyline class="cls-32" points="102.89 95.38 99.4 111.78 96.36 111.06"/><path d="M118.63,16.71a10.19,10.19,0,0,1,10.64,2.05c4.86,4.57,1.43,7.62,5.72,9.88s1.15,8.53,6.16,11.38,1.7,9.88-3.45,10.88c0,0-2.47,6.52-7.89,5.89,0,0-5,5.57-14.79,2l-3.59-1.47Z"/><path d="M98.84,18.63s-6.5.84-7.76,6.62-.8,4.41-4.37,7.35.94,6.26-1.89,9.2A6.84,6.84,0,0,0,82.55,46a5.19,5.19,0,0,0,3.89,5.39c1.64.47,3,2,4,4.14,1.94,4.2,8.88,2.38,8.88,2.38s6.56,3.82,10.57,1-2-41.89-2-41.89Z"/><path d="M124.31,17S121.68,11,112.2,11s-12.41,9.3-12.41,9.3l13.79,7.51Z"/><path class="cls-33" d="M125.4,38.55c-.89,2-.82,5.18,1.06,5.89s4.13-1.85,5-3.83.35-3.7-1.53-4.41S126.28,36.57,125.4,38.55Z"/><path class="cls-34" d="M125.36,49.68a4.22,4.22,0,1,0,3.69-6.89"/><path class="cls-23" d="M103.52,38.55c.88,2,1.64,4.92-1.07,5.89-1.89.67-4.12-1.85-5-3.83S97.1,36.91,99,36.2,102.63,36.57,103.52,38.55Z"/><path class="cls-35" d="M98.92,38.58s2.29-.61,3.15,2.52"/><path class="cls-34" d="M106.47,48.42a4.22,4.22,0,1,1-4.41-5.64"/><path d="M131.76,30.92a15.43,15.43,0,0,1-15.66,15.2c-8.65,0-16.57-7.15-16.57-15.54s7.92-14.86,16.57-14.86A15.44,15.44,0,0,1,131.76,30.92Z"/><polygon class="cls-23" points="110.23 49.43 108.24 68.4 120.04 68.4 118 49.23 110.23 49.43"/><polygon class="cls-33" points="109.96 51.77 119.13 59.89 118.13 50.34 109.96 51.77"/><path class="cls-23" d="M116.3,17.5h0c-7.33,0-13.79,5.66-13.79,12.65l.42,8.38s.15,11.89,11.43,15.5a6.39,6.39,0,0,0,3.87,0c11.28-3.61,11.43-15.5,11.43-15.5l.42-8.38C130.08,23.16,123.62,17.5,116.3,17.5Z"/><path d="M124.7,17a9,9,0,0,1-8.11,7.68c-7.62,1.07-6,5.52-15.22,4.45,0,0-3.35-4.84,1.61-9.84,3.28-3.3,9.7-6.06,14.29-5.6C118.82,13.87,122.48,16.58,124.7,17Z"/><path d="M123.73,17.5s-4.74,4.77,8.41,13.42a9.12,9.12,0,0,0-.85-5.5C129.87,22.64,123.73,17.5,123.73,17.5Z"/><g class="cls-22"><path class="cls-21" d="M113.27,41.31c0,.66-1.36,1.19-3,1.19s-3-.53-3-1.19,1.36-1.19,3-1.19S113.27,40.65,113.27,41.31Z"/></g><g class="cls-22"><path class="cls-21" d="M127.49,41.31c0,.66-1.16,1.19-2.58,1.19s-2.59-.53-2.59-1.19,1.16-1.19,2.59-1.19S127.49,40.65,127.49,41.31Z"/></g><path class="cls-7" d="M113.37,37.69c0,.9-.41,1.63-.92,1.63s-.91-.73-.91-1.63.41-1.64.91-1.64S113.37,36.78,113.37,37.69Z"/><path class="cls-7" d="M122.32,37.69c0,.9-.41,1.63-.92,1.63s-.92-.73-.92-1.63.41-1.64.92-1.64S122.32,36.78,122.32,37.69Z"/><path class="cls-7" d="M108.64,33.54c.21-1,1-2.75,4.06-2.89a.82.82,0,0,1,.81.59h0a.81.81,0,0,1-.63,1,3.59,3.59,0,0,0-2.65,1.91.81.81,0,0,1-1.14.3l-.09-.06A.8.8,0,0,1,108.64,33.54Z"/><path class="cls-7" d="M124.29,33.54c-.2-1-1-2.75-4.05-2.89a.81.81,0,0,0-.81.59h0a.79.79,0,0,0,.62,1,3.6,3.6,0,0,1,2.66,1.91.8.8,0,0,0,1.13.3l.09-.06A.8.8,0,0,0,124.29,33.54Z"/><path class="cls-7" d="M113,44.05s2.74,2.87,6,2.87a5.78,5.78,0,0,0,3.39-1.12.38.38,0,0,0,.08-.52.37.37,0,0,0-.52-.09c-4.09,2.92-8.41-1.61-8.46-1.65a.37.37,0,0,0-.52,0,.38.38,0,0,0,0,.53"/><path class="cls-7" d="M117.52,42.24a3.16,3.16,0,0,0,3-1.61.34.34,0,0,0,0-.31c-1.51-3.12-3-6.32-3.06-6.36a.37.37,0,1,0-.67.33s1.49,3.11,3,6.17a2.56,2.56,0,0,1-2.22,1,.36.36,0,0,0-.37.37A.37.37,0,0,0,117.52,42.24Z"/><rect class="cls-8" x="294.92" width="66.51" height="22.84" rx="1.96"/><line class="cls-36" x1="305.11" y1="8.75" x2="352.19" y2="8.75"/><line class="cls-36" x1="339.01" y1="14.82" x2="352.19" y2="14.82"/><polygon class="cls-8" points="354.4 19.8 354.4 30.13 341.24 19.8 354.4 19.8"/></g></g></g></svg>