<svg width="640" height="622" viewBox="0 0 640 622" fill="none" xmlns="http://www.w3.org/2000/svg">
<mask id="mask0" mask-type="alpha" maskUnits="userSpaceOnUse" x="0" y="64" width="640" height="558">
<path fill-rule="evenodd" clip-rule="evenodd" d="M0.000732422 64.521H640V621.954H0.000732422V64.521Z" fill="white"/>
</mask>
<g mask="url(#mask0)">
<path fill-rule="evenodd" clip-rule="evenodd" d="M600.466 368.6C598.483 371.77 596.507 374.885 594.398 377.989C575.953 405.562 553.062 432.047 527.714 456.392C526.566 457.522 525.365 458.664 524.169 459.794C520.558 463.203 516.833 466.617 513.108 469.9C506.686 475.767 500.071 481.442 493.342 486.883C489.797 489.873 486.138 492.809 482.527 495.674C440.597 528.689 395.776 557.572 351.611 579.333C337.918 586.156 324.22 592.25 310.702 597.512C240.161 625.325 174.498 631.843 129.197 604.269C114.772 595.539 102.455 583.34 92.6621 567.26C91.1 564.682 89.5379 562.111 87.9758 559.545C73.5023 535.44 59.6777 511.228 47.5414 486.883C44.6575 481.202 41.9599 475.587 39.3163 469.9C-4.723 375.716 -21.4916 280.396 40.9325 186.631C65.2052 150.16 105.045 121.755 152.863 101.656C166.508 95.8618 180.741 90.8327 195.527 86.4673C202.796 84.195 210.12 82.2216 217.63 80.4336C227.069 78.0416 236.676 75.9486 246.409 74.1487C253.865 72.7195 261.309 71.4637 268.819 70.3813C271.944 69.9687 275.068 69.5501 278.192 69.1255C300.362 66.321 322.832 64.7602 345.188 64.5868C348.126 64.521 351.07 64.521 353.96 64.521C367.478 64.5868 380.87 65.119 394.088 66.2014C397.633 66.4406 401.178 66.7395 404.722 67.1522C472.193 73.6763 534.077 92.9257 576.133 124.864C585.326 131.861 593.563 139.39 600.706 147.588C602.034 149.083 603.296 150.578 604.491 152.127C604.912 152.605 605.278 153.084 605.693 153.568C614.405 164.446 621.374 175.694 626.607 187.175C653.343 245.121 637.716 309.04 600.466 368.6Z" fill="#FDE6D6"/>
</g>
<path fill-rule="evenodd" clip-rule="evenodd" d="M464.474 543.741C448.264 560.652 436.723 584.835 454.158 599.163C473.63 615.159 513.794 611.446 534.558 581.265C547.83 561.986 554.854 531.506 540.152 514.41C527.565 499.771 484.361 522.991 464.474 543.741Z" fill="#E8E5EA"/>
<path fill-rule="evenodd" clip-rule="evenodd" d="M228.747 539.331C224.722 539.505 220.636 539.63 216.671 539.63C216.251 539.63 215.95 539.983 215.95 540.408C215.95 540.76 216.251 541.125 216.671 541.125C220.697 541.125 224.722 541 228.807 540.826C229.228 540.826 229.528 540.461 229.528 540.049C229.468 539.69 229.108 539.331 228.747 539.331ZM204.655 539.451C200.569 539.331 196.484 539.092 192.639 538.852C192.098 538.793 191.858 539.092 191.798 539.504C191.798 539.929 192.098 540.288 192.519 540.347C196.424 540.587 200.509 540.826 204.595 540.945C205.015 540.945 205.376 540.646 205.376 540.222C205.376 539.809 205.075 539.451 204.655 539.451ZM252.78 537.597C248.754 538.01 244.729 538.374 240.764 538.673C240.343 538.673 240.043 539.026 240.043 539.451C240.103 539.869 240.403 540.168 240.824 540.168H240.884C244.849 539.869 248.874 539.505 252.9 539.092C253.32 539.026 253.621 538.673 253.621 538.249C253.561 537.836 253.2 537.531 252.78 537.597ZM180.622 537.656C176.657 537.232 172.632 536.64 168.726 535.976C168.306 535.922 167.945 536.161 167.825 536.58C167.765 536.992 168.066 537.357 168.486 537.417C172.391 538.135 176.417 538.673 180.442 539.151H180.562C180.923 539.151 181.223 538.912 181.283 538.487C181.343 538.075 181.043 537.71 180.622 537.656ZM276.692 534.428C272.606 535.02 268.641 535.624 264.736 536.162C264.315 536.216 264.015 536.581 264.075 536.993C264.135 537.358 264.495 537.657 264.856 537.657H264.916C268.821 537.119 272.847 536.515 276.932 535.863C277.293 535.803 277.593 535.444 277.533 535.02C277.473 534.607 277.112 534.368 276.692 534.428ZM156.951 533.59C152.985 532.693 149.08 531.677 145.295 530.601C144.874 530.481 144.454 530.66 144.334 531.079C144.213 531.492 144.454 531.916 144.874 532.03C148.539 533.046 152.264 534.069 156.049 534.966C156.23 535.02 156.41 535.02 156.59 535.085H156.77C156.891 535.085 157.011 535.02 157.131 534.966L157.191 534.906C157.371 534.846 157.431 534.667 157.491 534.481C157.551 534.129 157.311 533.71 156.951 533.59ZM300.364 529.943C296.459 530.774 292.433 531.617 288.648 532.335H288.528C288.107 532.394 287.867 532.747 287.927 533.172C287.987 533.525 288.348 533.764 288.708 533.764H288.828C291.532 533.285 294.296 532.747 297.059 532.155C298.261 531.916 299.463 531.677 300.664 531.378C301.085 531.318 301.325 530.899 301.265 530.481C301.145 530.122 300.784 529.823 300.364 529.943ZM323.795 524.256C320.01 525.273 316.105 526.289 312.14 527.246C311.719 527.372 311.479 527.73 311.599 528.149C311.659 528.502 311.959 528.741 312.32 528.741C312.38 528.741 312.44 528.741 312.5 528.687C316.466 527.73 320.431 526.714 324.216 525.751C324.576 525.637 324.817 525.219 324.757 524.794C324.637 524.441 324.216 524.202 323.795 524.256ZM133.88 526.767C132.558 526.289 131.296 525.811 129.974 525.272C127.511 524.316 125.168 523.245 122.825 522.169C122.464 521.989 121.984 522.169 121.803 522.522C121.623 522.886 121.803 523.365 122.164 523.538C124.687 524.74 127.331 525.811 129.974 526.893C131.056 527.371 132.197 527.784 133.339 528.209H133.639C133.94 528.209 134.24 528.023 134.36 527.73C134.48 527.371 134.3 526.953 133.88 526.767ZM346.926 517.559C346.145 517.798 345.364 518.097 344.523 518.336C341.579 519.239 338.515 520.196 335.451 521.087C335.03 521.212 334.79 521.565 334.91 521.99C335.03 522.349 335.331 522.522 335.631 522.522H335.872C338.876 521.631 341.94 520.734 344.824 519.831C345.725 519.532 346.566 519.293 347.407 519C347.768 518.88 348.008 518.462 347.888 518.037C347.768 517.684 347.347 517.445 346.926 517.559ZM112.13 516.667L111.71 516.368C108.345 514.455 105.101 512.422 101.977 510.269C101.676 510.03 101.196 510.149 100.955 510.508C100.715 510.801 100.835 511.285 101.135 511.525C104.26 513.612 107.564 515.71 110.929 517.684L111.409 517.983C111.529 518.037 111.65 518.037 111.77 518.037C112.07 518.037 112.311 517.923 112.431 517.684C112.671 517.319 112.491 516.841 112.13 516.667ZM369.757 509.844C365.972 511.226 362.127 512.541 358.402 513.851C357.981 513.976 357.801 514.395 357.921 514.754C358.041 515.107 358.282 515.286 358.642 515.286C358.702 515.286 358.762 515.286 358.883 515.232C362.668 513.976 366.453 512.595 370.238 511.226C370.658 511.1 370.839 510.687 370.719 510.269C370.538 509.844 370.058 509.671 369.757 509.844ZM393.189 501.478C393.009 501.06 392.588 500.875 392.227 501.06C388.563 502.555 384.777 504.104 380.992 505.545C380.632 505.724 380.452 506.137 380.572 506.561C380.692 506.854 380.992 507.04 381.293 507.04C381.353 507.04 381.473 506.98 381.593 506.98C385.378 505.485 389.163 503.93 392.768 502.435C393.189 502.256 393.369 501.831 393.189 501.478ZM92.3636 503.146C90.9817 502.076 89.5999 500.94 88.3382 499.858C86.5958 498.363 84.9736 496.814 83.3515 495.319C83.051 495.02 82.5704 495.02 82.27 495.319C81.9696 495.612 81.9696 496.096 82.27 496.389C84.1926 498.189 86.1753 499.983 88.2781 501.717C89.2995 502.608 90.3208 503.511 91.4023 504.342C91.5225 504.468 91.7027 504.528 91.8829 504.528C92.1233 504.528 92.3035 504.408 92.4837 504.229C92.7241 503.93 92.664 503.451 92.3636 503.146ZM415.299 491.665C415.118 491.253 414.638 491.127 414.277 491.313C410.792 492.921 407.248 494.602 403.282 496.336C402.922 496.455 402.742 496.934 402.922 497.293C403.042 497.592 403.342 497.771 403.583 497.771C403.703 497.771 403.823 497.711 403.883 497.645C407.849 495.911 411.453 494.303 414.938 492.622C415.299 492.449 415.479 492.03 415.299 491.665ZM75.0604 486.642C72.4168 483.652 69.8934 480.489 67.6104 477.32C67.37 476.955 66.8894 476.901 66.5289 477.14C66.2285 477.379 66.1684 477.858 66.4087 478.157C68.5116 481.147 70.8547 484.077 73.258 486.881C73.4983 487.127 73.6785 487.42 73.9189 487.659C74.039 487.784 74.2793 487.898 74.4596 487.898C74.6398 487.898 74.8201 487.844 75.0003 487.725C75.2406 487.485 75.3007 487.18 75.1806 486.881C75.1806 486.768 75.1205 486.702 75.0604 486.642ZM436.868 480.847C436.687 480.488 436.207 480.369 435.846 480.548C432.422 482.396 428.757 484.256 425.152 486.05C424.791 486.229 424.671 486.588 424.791 486.881C424.731 486.941 424.791 487.006 424.791 487.066C424.911 487.305 425.212 487.485 425.452 487.485C425.572 487.485 425.693 487.419 425.813 487.365C426.113 487.18 426.474 487.066 426.774 486.881C430.139 485.272 433.383 483.538 436.567 481.864C436.928 481.678 437.048 481.2 436.868 480.847ZM457.896 469.067C457.716 468.702 457.235 468.588 456.875 468.762C456.214 469.127 455.613 469.545 454.952 469.904C452.188 471.578 449.364 473.187 446.42 474.807C446.06 474.981 445.94 475.459 446.18 475.824C446.3 476.063 446.541 476.177 446.841 476.177C446.961 476.177 447.081 476.177 447.202 476.123C450.746 474.09 454.291 472.057 457.656 470.083C457.716 470.023 457.776 469.958 457.836 469.904C458.076 469.665 458.076 469.366 457.896 469.067ZM61.1216 467.267C59.0788 463.865 57.2163 460.271 55.5941 456.689C55.4139 456.33 54.9332 456.151 54.5727 456.33C54.2123 456.503 54.032 456.928 54.2123 457.347C55.8945 460.935 57.757 464.582 59.7998 468.051C59.92 468.29 60.1603 468.409 60.4607 468.409C60.5808 468.409 60.701 468.35 60.8212 468.29C61.1816 468.11 61.3018 467.632 61.1216 467.267ZM478.383 456.39C478.383 456.33 478.323 456.264 478.323 456.21C478.083 455.851 477.602 455.786 477.302 455.971C477.062 456.091 476.881 456.264 476.641 456.39C474.959 457.52 473.156 458.722 471.414 459.792C470.032 460.749 468.59 461.652 467.208 462.549C466.848 462.722 466.728 463.207 466.968 463.566C467.088 463.805 467.329 463.924 467.569 463.924C467.689 463.924 467.869 463.865 467.99 463.805C470.092 462.483 472.135 461.174 474.178 459.792C475.5 458.961 476.821 458.124 478.143 457.227C478.383 457.041 478.504 456.689 478.383 456.39ZM497.97 442.277C497.73 441.918 497.249 441.852 496.948 442.092C493.764 444.49 490.46 446.882 487.215 449.214C486.855 449.453 486.795 449.871 487.035 450.23C487.215 450.41 487.396 450.523 487.636 450.523C487.816 450.523 487.936 450.523 488.117 450.41C491.361 448.072 494.665 445.686 497.85 443.288C498.21 443.048 498.27 442.57 497.97 442.277ZM47.5434 434.204C47.4232 433.785 47.0026 433.546 46.5821 433.666C46.2216 433.785 45.9813 434.204 46.0413 434.557C47.1228 438.509 48.3244 442.396 49.6462 446.104C49.7664 446.463 50.0067 446.642 50.3672 446.642C50.4272 446.642 50.4873 446.642 50.6075 446.576C50.968 446.463 51.2083 446.038 51.0281 445.626C49.7063 441.918 48.5647 438.085 47.5434 434.204ZM516.775 427.082C516.475 426.789 515.994 426.789 515.694 427.029C512.75 429.54 509.686 432.106 506.441 434.743C506.141 434.982 506.081 435.46 506.321 435.759C506.501 435.939 506.682 436.052 506.922 436.052C507.102 436.052 507.222 435.999 507.403 435.873C510.647 433.308 513.771 430.676 516.655 428.165C517.016 427.86 517.016 427.447 516.775 427.082ZM43.2776 410.637C43.2776 410.284 42.9171 409.92 42.4965 409.985C42.0759 410.045 41.7755 410.398 41.8356 410.823C42.2562 414.883 42.7969 418.889 43.4578 422.782C43.5179 423.135 43.8784 423.374 44.2388 423.374H44.359C44.7796 423.321 45.0199 422.962 44.9598 422.543C44.2989 418.65 43.6981 414.71 43.2776 410.637ZM534.439 410.763C534.139 410.458 533.658 410.458 533.358 410.763C530.594 413.514 527.65 416.324 524.706 419.075C524.405 419.314 524.345 419.792 524.646 420.091C524.766 420.271 525.006 420.331 525.187 420.331C525.367 420.331 525.547 420.271 525.727 420.145C528.671 417.395 531.615 414.59 534.439 411.779C534.739 411.48 534.739 411.002 534.439 410.763ZM550.721 392.997C550.421 392.698 549.94 392.757 549.639 393.062C547.176 396.052 544.473 399.102 541.709 402.092C541.408 402.391 541.468 402.869 541.769 403.162C541.889 403.288 542.069 403.348 542.25 403.348C542.49 403.348 542.67 403.222 542.79 403.109C545.614 400.059 548.318 397.003 550.841 394.013C551.081 393.714 551.021 393.236 550.721 392.997ZM42.3763 392.105C42.3763 390.371 42.3763 388.577 42.4364 386.777C42.4364 386.365 42.136 386 41.7154 386C41.2948 386 40.9343 386.305 40.9343 386.717C40.8743 388.511 40.8743 390.311 40.8743 392.105C40.8743 394.378 40.9343 396.59 40.9944 398.803C40.9944 399.162 41.3549 399.52 41.7154 399.52H41.7755C42.196 399.455 42.4965 399.162 42.4965 398.737C42.4364 396.53 42.3763 394.318 42.3763 392.105ZM565.26 373.867C564.9 373.628 564.479 373.688 564.239 374.04C562.016 377.27 559.613 380.559 557.21 383.728C556.909 384.093 557.029 384.571 557.33 384.81C557.45 384.87 557.63 384.93 557.81 384.93C557.991 384.93 558.231 384.87 558.411 384.631C560.815 381.461 563.218 378.173 565.441 374.884C565.681 374.519 565.621 374.04 565.26 373.867ZM43.7583 362.08C43.2776 361.967 42.9772 362.266 42.9171 362.684C42.3764 366.751 41.9558 370.757 41.5953 374.704C41.5953 375.123 41.8957 375.481 42.3163 375.481H42.3764C42.7369 375.481 43.0974 375.182 43.0974 374.818C43.4579 370.877 43.8784 366.87 44.4191 362.924C44.4792 362.505 44.1788 362.08 43.7583 362.08ZM577.577 353.176C577.217 353.056 576.796 353.176 576.556 353.535C574.813 356.943 572.831 360.471 570.728 363.94C570.488 364.293 570.608 364.777 570.968 365.016C571.088 365.07 571.208 365.07 571.329 365.07C571.629 365.07 571.869 364.956 571.99 364.717C574.152 361.189 576.135 357.661 577.938 354.193C578.118 353.828 577.938 353.349 577.577 353.176ZM48.084 338.4C47.6635 338.346 47.303 338.585 47.1828 339.003C46.3417 342.95 45.5006 346.891 44.7796 350.784C44.7195 351.203 45.0199 351.561 45.3804 351.681H45.5606C45.9211 351.681 46.2215 351.442 46.2816 351.083C47.0026 347.196 47.7836 343.249 48.6848 339.302C48.7449 338.878 48.5046 338.525 48.084 338.4ZM587.07 331.11C586.649 330.991 586.229 331.164 586.109 331.589C584.847 335.237 583.345 339.004 581.723 342.711C581.542 343.124 581.723 343.549 582.143 343.728C582.203 343.728 582.324 343.788 582.444 343.788C582.684 343.788 582.984 343.608 583.105 343.309C584.727 339.542 586.229 335.775 587.491 332.067C587.671 331.702 587.43 331.29 587.07 331.11ZM54.3325 315.203C53.972 315.084 53.5514 315.323 53.4313 315.736C52.2296 319.569 51.0881 323.45 50.0667 327.283C50.0067 327.695 50.247 328.12 50.6075 328.174C50.6675 328.234 50.7276 328.234 50.8478 328.234C51.1482 328.234 51.4486 328 51.5688 327.695C52.5301 323.874 53.6716 319.981 54.8732 316.16C54.9934 315.736 54.753 315.323 54.3325 315.203ZM593.438 307.968C593.018 307.848 592.657 308.147 592.537 308.5C591.696 312.333 590.675 316.214 589.593 320.167C589.533 320.526 589.714 320.938 590.134 321.064C590.194 321.064 590.254 321.124 590.314 321.124C590.675 321.124 590.975 320.884 591.035 320.526C592.117 316.639 593.138 312.692 594.039 308.865C594.099 308.446 593.859 308.022 593.438 307.968ZM62.203 292.48C61.7825 292.354 61.3619 292.533 61.2417 292.898C59.7998 296.666 58.4179 300.493 57.1562 304.254C56.976 304.619 57.2163 305.032 57.5768 305.217H57.8171C58.1776 305.217 58.4179 305.032 58.5381 304.739C59.8599 300.971 61.2417 297.144 62.6236 293.436C62.7438 293.072 62.5635 292.593 62.203 292.48ZM597.764 284.287C597.404 284.227 596.983 284.526 596.923 284.945C596.382 288.892 595.722 292.832 595.001 296.779C594.94 297.204 595.181 297.557 595.601 297.682H595.722C596.082 297.682 596.382 297.443 596.503 297.078C597.224 293.072 597.884 289.065 598.425 285.184C598.425 284.765 598.185 284.341 597.764 284.287ZM71.3354 270.234C70.9749 270.055 70.5543 270.234 70.3741 270.647C68.7519 274.301 67.1297 278.008 65.6277 281.716C65.5075 282.069 65.6878 282.553 66.0483 282.673C66.1684 282.733 66.2285 282.733 66.3487 282.733C66.6491 282.733 66.8894 282.553 67.0095 282.254C68.5116 278.6 70.1338 274.893 71.7559 271.251C71.9362 270.832 71.7559 270.408 71.3354 270.234ZM599.867 260.367C599.507 260.421 599.146 260.66 599.086 261.085C598.906 265.091 598.666 269.098 598.305 273.045C598.245 273.463 598.545 273.822 598.966 273.876H599.026C599.386 273.876 599.747 273.583 599.747 273.158C600.168 269.218 600.408 265.211 600.588 261.139C600.648 260.786 600.288 260.421 599.867 260.367ZM81.7293 248.527C81.3689 248.348 80.8882 248.461 80.708 248.826C78.9055 252.414 77.1031 256.062 75.4208 259.644C75.2406 260.068 75.4208 260.487 75.7813 260.66C75.9015 260.726 75.9616 260.726 76.0817 260.726C76.3821 260.726 76.6225 260.606 76.7426 260.307C78.485 256.713 80.2874 253.072 82.0898 249.544C82.2701 249.125 82.0898 248.7 81.7293 248.527ZM600.588 237.099C600.588 236.687 600.228 236.388 599.807 236.388C599.386 236.388 599.086 236.746 599.086 237.165C599.266 241.112 599.386 245.118 599.386 249.125C599.386 249.544 599.747 249.902 600.107 249.902C600.528 249.902 600.888 249.544 600.888 249.125C600.888 245.118 600.768 241.052 600.588 237.099ZM93.1447 227.299C92.7842 227.119 92.3035 227.239 92.1233 227.598C90.0805 231.12 88.1579 234.714 86.2954 238.182C86.1152 238.541 86.2354 238.959 86.5958 239.139C86.716 239.199 86.8362 239.258 86.9563 239.258C87.1966 239.258 87.4971 239.139 87.6172 238.84C89.4797 235.431 91.4023 231.843 93.4451 228.315C93.6253 227.956 93.5051 227.538 93.1447 227.299ZM598.305 213.066C598.245 212.648 597.884 212.349 597.464 212.468C597.043 212.528 596.803 212.887 596.863 213.3C597.404 217.252 597.884 221.259 598.245 225.206C598.305 225.624 598.605 225.863 599.026 225.863H599.086C599.507 225.863 599.807 225.505 599.747 225.086C599.386 221.079 598.906 217.073 598.305 213.066ZM105.461 206.668C105.161 206.429 104.68 206.548 104.44 206.907C102.337 210.31 100.234 213.724 98.1916 217.193C97.9512 217.551 98.0714 217.97 98.4319 218.209C98.5521 218.269 98.6722 218.329 98.7924 218.329C99.0928 218.329 99.3331 218.209 99.4533 217.97C101.496 214.502 103.599 211.093 105.702 207.684C105.942 207.32 105.822 206.907 105.461 206.668ZM596.262 200.748H596.202C595.541 196.98 594.64 193.213 593.739 189.38C593.679 188.967 593.258 188.728 592.838 188.848C592.477 188.907 592.177 189.326 592.297 189.745C593.198 193.392 593.979 197.04 594.7 200.688C594.76 200.927 594.82 201.22 594.88 201.465C594.94 201.824 595.241 202.063 595.601 202.063H595.722C596.142 201.944 596.382 201.585 596.322 201.166C596.322 201.047 596.262 200.867 596.262 200.748ZM118.98 186.157C118.679 185.918 118.198 185.977 117.958 186.336L117.658 186.755C115.435 190.044 113.152 193.392 110.989 196.735C110.748 197.1 110.809 197.578 111.169 197.818C111.289 197.877 111.469 197.937 111.59 197.937C111.83 197.937 112.07 197.818 112.19 197.578C114.413 194.23 116.636 190.875 118.919 187.592L119.22 187.173C119.4 186.874 119.34 186.39 118.98 186.157ZM589.774 175.034C588.872 172.044 587.911 169.114 586.95 166.243C586.83 165.825 586.349 165.645 585.989 165.765C585.568 165.944 585.388 166.363 585.508 166.722C586.649 170.011 587.731 173.36 588.752 176.768C588.872 177.246 589.053 177.665 589.173 178.143C589.293 178.502 589.593 178.682 589.894 178.682H590.134C590.495 178.562 590.735 178.143 590.615 177.725C590.374 176.828 590.074 175.925 589.774 175.034ZM132.858 166.483C132.498 166.244 132.017 166.304 131.777 166.662C129.494 169.891 127.151 173.121 124.807 176.469C124.567 176.768 124.687 177.247 124.988 177.486C125.168 177.606 125.288 177.606 125.468 177.606C125.649 177.606 125.889 177.546 126.069 177.301C128.352 174.018 130.695 170.729 133.038 167.5C133.279 167.141 133.159 166.722 132.858 166.483ZM147.157 147.108C146.797 146.868 146.376 146.928 146.076 147.227C143.673 150.391 141.269 153.626 138.866 156.915C138.626 157.214 138.746 157.692 139.047 157.931C139.167 158.051 139.347 158.111 139.467 158.111C139.707 158.111 139.948 157.985 140.128 157.752C142.471 154.523 144.874 151.294 147.278 148.124C147.518 147.825 147.458 147.347 147.157 147.108ZM582.684 154.942C582.323 154.045 581.903 153.088 581.482 152.131C581.302 151.653 581.062 151.115 580.821 150.576C579.92 148.364 578.899 146.091 577.878 143.879C577.697 143.52 577.277 143.341 576.856 143.52C576.496 143.699 576.315 144.118 576.496 144.477C577.217 146.026 577.938 147.586 578.598 149.141C579.079 150.158 579.5 151.174 579.86 152.131C580.341 153.148 580.761 154.105 581.122 155.121C581.182 155.241 581.242 155.36 581.302 155.48C581.422 155.779 581.663 155.958 581.963 155.958C582.083 155.958 582.143 155.958 582.263 155.898C582.564 155.779 582.804 155.48 582.744 155.121C582.744 155.061 582.744 154.996 582.684 154.942ZM161.997 128.086C161.637 127.852 161.216 127.912 160.916 128.211C158.453 131.201 156.11 134.311 153.706 137.36C153.646 137.48 153.526 137.54 153.466 137.659C153.166 138.018 153.226 138.497 153.586 138.736C153.706 138.855 153.887 138.915 154.007 138.915C154.187 138.915 154.367 138.855 154.487 138.736C154.547 138.676 154.547 138.676 154.607 138.616C157.131 135.387 159.594 132.278 162.118 129.168C162.358 128.869 162.298 128.391 161.997 128.086ZM572.59 133.055C571.809 131.62 571.088 130.244 570.307 128.869C569.166 126.716 567.964 124.623 566.702 122.53C566.522 122.171 566.042 122.052 565.681 122.231C565.321 122.47 565.2 122.889 565.441 123.248C566.702 125.401 567.904 127.613 569.166 129.886C569.827 131.141 570.548 132.451 571.208 133.773C571.389 134.012 571.629 134.131 571.869 134.131C571.99 134.131 572.11 134.131 572.23 134.066C572.59 133.892 572.771 133.414 572.59 133.055ZM177.438 109.614C177.078 109.374 176.657 109.434 176.357 109.733C173.773 112.723 171.13 115.773 168.546 118.882C168.306 119.241 168.306 119.72 168.666 119.959C168.787 120.078 168.967 120.138 169.147 120.138C169.327 120.138 169.568 120.019 169.688 119.839C172.271 116.73 174.915 113.68 177.498 110.69C177.739 110.391 177.739 109.913 177.438 109.614ZM560.334 112.245C558.171 108.896 555.888 105.607 553.545 102.318C553.304 101.959 552.824 101.899 552.463 102.139C552.163 102.378 552.043 102.856 552.283 103.215C554.626 106.444 556.969 109.733 559.132 113.082C559.252 113.261 559.493 113.381 559.733 113.381C559.853 113.381 560.033 113.381 560.154 113.261C560.514 113.082 560.574 112.604 560.334 112.245ZM193.54 91.7335C193.24 91.4943 192.759 91.4943 192.519 91.7933C189.755 94.6637 187.051 97.6536 184.348 100.644C184.047 101.002 184.107 101.421 184.408 101.72C184.528 101.84 184.708 101.899 184.888 101.899C185.069 101.899 185.309 101.84 185.429 101.66C188.133 98.6702 190.896 95.6803 193.6 92.8099C193.9 92.5109 193.84 92.0325 193.54 91.7335ZM546.215 92.7499C543.691 89.5806 541.048 86.471 538.404 83.4811C538.164 83.1821 537.683 83.1821 537.383 83.4213C537.022 83.7203 537.022 84.1986 537.323 84.4976C539.906 87.4278 542.55 90.5374 545.013 93.6469C545.193 93.8263 545.374 93.9459 545.614 93.9459C545.794 93.9459 545.914 93.8861 546.095 93.7665C546.395 93.5273 546.455 93.0489 546.215 92.7499ZM210.483 74.631C210.182 74.332 209.762 74.332 209.461 74.631C206.638 77.322 203.754 80.1923 200.87 83.1165C200.569 83.4215 200.569 83.8999 200.87 84.1391C200.99 84.3185 201.17 84.3783 201.411 84.3783C201.591 84.3783 201.771 84.3185 201.951 84.1391C204.775 81.2687 207.659 78.3983 210.483 75.7074C210.783 75.4084 210.783 74.93 210.483 74.631ZM530.233 74.6905C527.41 71.8201 524.526 68.9498 521.582 66.2588C521.281 65.9598 520.801 65.9598 520.5 66.2588C520.26 66.5578 520.26 67.0362 520.56 67.3352C523.504 70.0261 526.388 72.8965 529.152 75.7071C529.272 75.8267 529.452 75.9463 529.693 75.9463C529.873 75.9463 530.053 75.8865 530.173 75.7071C530.474 75.4081 530.474 74.9297 530.233 74.6905ZM228.387 58.4853C228.087 58.1863 227.606 58.1265 227.305 58.4255C225.143 60.2792 222.98 62.133 220.877 64.0466C220.336 64.4652 219.855 64.9436 219.375 65.422C219.014 65.721 218.594 66.02 218.233 66.3788C217.933 66.6718 217.933 67.1562 218.173 67.4552C218.353 67.5748 218.534 67.6944 218.774 67.6944C218.954 67.6944 219.134 67.6346 219.255 67.515C219.916 66.917 220.576 66.319 221.237 65.721L223.4 63.7476C225.022 62.3064 226.645 60.937 228.267 59.5617C228.567 59.2627 228.627 58.7843 228.387 58.4853ZM512.57 58.2459C509.505 55.6147 506.321 53.1032 503.197 50.6514C502.836 50.4122 502.356 50.472 502.116 50.771C501.875 51.1298 501.935 51.6082 502.236 51.8414C505.42 54.2393 508.544 56.8107 511.608 59.3821C511.728 59.5017 511.909 59.5615 512.089 59.5615C512.269 59.5615 512.51 59.4419 512.63 59.2625C512.93 58.9635 512.87 58.4851 512.57 58.2459ZM247.252 43.5354C247.012 43.2364 246.531 43.1168 246.231 43.4158C243.047 45.6882 239.862 48.1997 236.618 50.7113C236.317 51.0103 236.257 51.4289 236.498 51.7877C236.678 51.9671 236.858 52.0867 237.099 52.0867C237.279 52.0867 237.399 52.0269 237.579 51.9073C240.763 49.3359 243.948 46.8842 247.132 44.6118C247.432 44.3666 247.493 43.8942 247.252 43.5354ZM493.404 43.5353C490.099 41.2031 486.735 38.9906 483.31 36.8378C483.01 36.6584 482.529 36.7182 482.289 37.077C482.048 37.4358 482.169 37.9142 482.529 38.0936C485.894 40.2463 489.258 42.4589 492.563 44.7313C492.683 44.8509 492.863 44.8509 492.983 44.8509C493.223 44.8509 493.464 44.7911 493.584 44.5519C493.824 44.1931 493.764 43.7745 493.404 43.5353ZM267.319 30.14C267.079 29.841 266.598 29.7214 266.298 29.9008C262.873 31.9938 259.449 34.1466 256.084 36.419C255.724 36.6582 255.664 37.1365 255.904 37.4953C256.024 37.6747 256.264 37.7943 256.505 37.7943C256.685 37.7943 256.805 37.7345 256.925 37.6747C260.29 35.3964 263.654 33.2496 267.079 31.2164C267.439 30.9772 267.5 30.4988 267.319 30.14ZM472.976 30.6785C469.432 28.7051 465.827 26.7317 462.282 24.9317C461.921 24.7583 461.441 24.9317 461.26 25.2965C461.08 25.6553 461.26 26.0739 461.621 26.3071C465.166 28.1071 468.711 29.9609 472.195 31.9342C472.315 32.0538 472.436 32.0538 472.556 32.0538C472.856 32.0538 473.096 31.9342 473.217 31.695C473.457 31.3363 473.337 30.8579 472.976 30.6785ZM288.528 18.7787C288.348 18.3601 287.927 18.2405 287.506 18.4199C283.962 20.0943 280.297 21.9421 276.752 23.8616C276.391 24.1008 276.271 24.5194 276.452 24.8782C276.572 25.1772 276.872 25.2968 277.112 25.2968C277.233 25.2968 277.353 25.237 277.473 25.1772C281.018 23.2636 284.623 21.4697 288.167 19.7355C288.528 19.5561 288.708 19.1375 288.528 18.7787ZM451.347 19.7354C447.682 18.1208 443.957 16.5062 440.232 15.0112C439.872 14.8916 439.391 15.071 439.271 15.4298C439.091 15.8424 439.271 16.267 439.691 16.4464C443.416 17.8816 447.141 19.4962 450.746 21.1107C450.866 21.1705 450.927 21.1705 451.047 21.1705C451.347 21.1705 451.648 20.9911 451.768 20.752C451.948 20.3274 451.768 19.9148 451.347 19.7354ZM309.977 9.33019C306.192 10.586 302.346 12.0212 298.621 13.5161C298.201 13.6955 298.021 14.1141 298.201 14.4669C298.321 14.7719 298.621 14.9513 298.862 14.9513C298.982 14.9513 299.102 14.9513 299.162 14.8915C302.887 13.3965 306.672 11.9614 310.457 10.7056C310.818 10.586 311.058 10.1674 310.878 9.80858C310.758 9.38999 310.337 9.21059 309.977 9.33019ZM428.877 10.8249C425.032 9.50928 421.186 8.3133 417.341 7.23691C416.921 7.11731 416.5 7.35651 416.38 7.7751C416.26 8.1339 416.5 8.55249 416.921 8.67209C420.706 9.74848 424.611 10.9445 428.396 12.26H428.637C428.937 12.26 429.237 12.0807 429.357 11.7817C429.478 11.3571 429.297 10.9445 428.877 10.8249ZM333.348 3.11091C329.383 3.88232 325.418 4.78529 321.572 5.86168C321.152 5.92148 320.911 6.34007 321.032 6.75867C321.092 7.05766 321.392 7.29686 321.753 7.29686H321.933C325.778 6.28027 329.743 5.3773 333.649 4.60589C334.009 4.54609 334.31 4.1275 334.249 3.7089C334.129 3.35011 333.769 3.05111 333.348 3.11091ZM405.565 4.30709C401.6 3.4699 397.575 2.69251 393.669 2.09452C393.249 2.03472 392.828 2.33372 392.768 2.69251C392.708 3.11111 393.009 3.5297 393.429 3.5895C397.334 4.18749 401.3 4.90509 405.265 5.74228C405.325 5.80207 405.385 5.80207 405.385 5.80207C405.746 5.80207 406.046 5.56288 406.166 5.20408C406.226 4.78549 405.986 4.42669 405.565 4.30709ZM357.441 0.180887H357.381C353.355 0.420084 349.27 0.77888 345.304 1.25727C344.884 1.31707 344.583 1.67587 344.643 2.09446C344.704 2.45326 345.004 2.75226 345.425 2.75226H345.485C349.45 2.27386 353.475 1.91507 357.501 1.67587C357.861 1.67587 358.222 1.31707 358.162 0.892498C358.162 0.539683 357.801 0.180887 357.441 0.180887ZM381.593 0.659257C377.628 0.300461 373.542 0.0612641 369.517 0.00146484C369.096 0.00146484 368.736 0.300461 368.736 0.719056C368.736 1.13765 369.036 1.49645 369.457 1.49645C373.482 1.55625 377.508 1.79544 381.473 2.15424H381.533C381.954 2.15424 382.254 1.85524 382.314 1.43665C382.314 1.01207 382.014 0.659257 381.593 0.659257Z" fill="#D8D5DB"/>
<path fill-rule="evenodd" clip-rule="evenodd" d="M597.585 161.519L589.775 175.033L588.753 176.768L577.452 196.202L574.995 200.508L502.537 325.369L490.521 346.059L478.505 325.369L435.547 251.337L428.938 239.975L414.212 214.561L379.732 155.12H601.31L597.585 161.519ZM374.565 152.13L414.212 220.481L425.508 239.976L432.122 251.337L475.074 325.369L490.521 352.039L506.022 325.369L577.693 201.764L580.216 197.458L599.808 163.731L605.216 154.343L605.696 153.566L606.537 152.13H374.565Z" fill="white"/>
<path fill-rule="evenodd" clip-rule="evenodd" d="M411.933 456.985C412.113 457.643 411.813 458.606 411.152 459.796C409.65 462.606 406.051 466.613 402.266 469.902C401.479 470.566 400.698 471.217 399.917 471.756C397.634 473.609 395.411 475.051 393.668 475.583C387.54 477.616 361.044 474.148 354.616 470.679C354.201 470.44 353.895 470.201 353.594 469.902C350.957 470.081 347.046 470.141 342.299 469.902C340.136 469.788 337.793 469.603 335.27 469.244C329.322 468.586 322.533 467.211 315.203 464.879C311.598 463.808 307.813 462.427 303.967 460.753C300.363 459.138 296.638 457.284 292.913 455.132C292.011 454.653 291.351 454.055 290.569 453.583C291.29 459.084 292.011 464.52 292.792 469.902C293.033 471.397 293.273 472.892 293.453 474.327C294.114 478.573 294.775 482.765 295.496 486.885C298.32 503.091 301.564 518.339 305.47 531.974C305.83 533.409 306.251 534.85 306.671 536.219C305.409 536.399 304.148 536.584 302.946 536.758C303.247 538.133 303.487 539.574 303.727 541.003C306.731 557.149 309.014 577.062 310.697 597.514C240.162 625.32 174.493 631.838 129.192 604.271C114.773 595.54 102.456 583.341 92.663 567.255C91.1009 564.684 89.5388 562.112 87.9767 559.541C88.2771 551.109 88.6376 543.993 88.938 539.149C87.7964 539.03 87.1956 539.03 87.1956 539.03C87.1956 529.283 87.6162 516.486 88.2771 501.715C88.3372 501.117 88.3372 500.519 88.3372 499.861C88.5775 495.675 88.8178 491.37 89.1182 486.885C89.3585 481.383 89.719 475.768 90.0795 469.902C90.6202 461.41 91.221 452.56 91.8819 443.59C77.2222 439.703 64.9657 435.517 58.0564 431.331C49.0442 425.89 45.6196 418.295 45.86 410.82C45.7398 409.325 45.7398 407.711 46.1003 406.036C49.5249 394.734 61.3007 361.067 74.6387 327.639L59.8588 322.616C59.8588 322.616 103.057 246.013 128.411 229.15C128.531 229.09 128.591 229.03 128.712 228.971C137.664 220.718 150.581 215.396 169.927 213.243C170.047 197.277 168.785 170.308 167.464 149.677C161.155 148.242 156.889 143.039 154.486 138.733C154.186 138.255 153.885 137.777 153.705 137.358C152.744 135.504 152.203 133.95 151.963 133.172C150.641 127.91 151.903 123.544 154.486 120.734C153.945 116.369 153.164 109.193 152.864 101.658C152.263 87.7845 153.044 72.5955 159.353 71.2201C159.293 71.0407 159.173 70.9211 159.112 70.8015C157.49 65.8382 160.434 60.3366 160.554 60.1572L163.198 61.5326C163.198 61.5924 160.795 66.1372 161.936 69.8447C166.983 64.2834 183.986 62.4894 201.83 63.506C202.851 63.506 203.933 63.6256 204.954 63.6854C208.619 63.9844 212.284 64.3432 215.889 64.8814C217.091 65.001 218.232 65.1804 219.374 65.4196C219.974 65.4794 220.635 65.599 221.236 65.7186C225.141 66.3764 228.866 67.2135 232.291 68.1703C238.179 69.7849 243.106 71.8181 246.41 74.1503C247.491 74.8679 248.333 75.6452 249.054 76.4226C252.058 79.891 252.538 82.3428 251.216 83.9573C250.435 84.8543 249.174 85.5121 247.491 85.9905C248.212 91.0137 248.513 95.379 248.633 99.3856C248.993 100.342 249.354 101.359 249.714 102.376C250.015 103.273 250.315 104.229 250.616 105.186C250.676 105.246 250.736 105.246 250.796 105.306C251.156 105.605 251.517 105.844 251.877 106.143C253.199 107.339 254.401 108.834 255.302 110.807L252.598 112.063C252.538 111.943 252.478 111.884 252.418 111.764C253.139 114.814 253.8 117.983 254.281 121.332C255.002 126.295 255.783 131.259 256.564 136.102C256.804 137.956 257.044 139.81 257.285 141.604C257.825 145.311 258.306 148.959 258.606 152.428C258.727 153.504 258.847 154.52 258.847 155.537C260.108 171.324 258.606 184.42 249.114 190.998C247.311 192.314 245.148 193.39 242.685 194.108C239.561 195.124 235.836 195.662 231.51 195.722C231.63 199.908 231.87 203.975 232.231 207.802C232.411 209.297 232.591 210.792 232.832 212.167C233.012 213.602 233.252 215.037 233.553 216.353C249.594 220.18 261.671 226.638 269.301 235.429C269.661 235.788 270.082 236.147 270.442 236.565C274.708 240.691 278.854 247.036 282.759 254.625C287.686 264.133 292.312 275.68 296.397 287.215C296.698 288.112 296.998 289.069 297.359 289.966C297.659 290.982 298.02 291.939 298.32 292.956C300.002 297.919 301.564 302.883 303.006 307.613C304.088 311.135 305.049 314.549 306.01 317.773C310.637 333.984 313.34 345.944 313.34 345.944L306.01 347.672L303.006 348.39L300.843 348.934C301.564 351.798 302.285 354.609 303.006 357.479C303.066 357.778 303.186 358.137 303.247 358.442C304.208 362.15 305.109 365.917 306.01 369.559C310.637 388.276 314.542 405.618 316.284 417.099C321.451 421.345 325.236 427.983 330.824 434.148C336.471 440.361 344.102 445.982 357.019 448.195C357.079 448.195 357.079 448.255 357.139 448.255C362.192 444.308 371.559 439.649 377.266 437.915C378.047 437.73 378.714 437.551 379.309 437.431C379.79 437.311 380.216 437.251 380.571 437.251C382.98 436.773 383.334 436.952 384.776 437.849C385.317 438.268 386.038 438.806 387.18 439.464C391.866 442.215 396.793 444.786 401.058 447.298C406.345 450.354 410.491 453.278 411.693 456.387C411.813 456.573 411.873 456.806 411.933 456.985Z" fill="#D1CDD3"/>
<path fill-rule="evenodd" clip-rule="evenodd" d="M429.781 439.437C425.497 436.883 426.747 436.56 421.904 437.446C416.677 438.408 405.43 443.778 399.741 448.251C399.68 448.245 399.638 448.215 399.578 448.203C373.816 443.808 369.286 425.671 358.867 417.084C353.094 379.434 324.003 276.974 324.003 276.974L280.167 293.198C286.554 336.367 312.257 418.471 318.926 436.997C320.019 439.24 321.431 441.022 323.011 442.469C325.198 447.067 329.127 451.504 335.478 455.158C361.757 470.281 386.631 470.491 396.148 469.887C396.454 470.192 396.803 470.455 397.199 470.676C403.646 474.18 430.093 477.613 436.27 475.597C442.548 473.546 455.405 460.594 454.48 457.006C452.978 451.146 440.517 445.835 429.781 439.437Z" fill="#FFAD69"/>
<path fill-rule="evenodd" clip-rule="evenodd" d="M284.669 249.3C272.292 276.987 276.84 364.718 276.84 364.718L355.937 345.953C355.937 345.953 317.305 176.261 284.669 249.3Z" fill="#377ADB"/>
<path fill-rule="evenodd" clip-rule="evenodd" d="M351.611 579.334C337.919 586.157 324.214 592.251 310.696 597.513C240.161 625.32 174.498 631.838 129.191 604.271C129.852 578.377 130.754 551.408 131.474 539.149C131.595 537.714 131.715 536.458 131.775 535.442L156.048 534.963H157.129L157.189 534.903L288.526 532.338H288.652L297.057 532.153L305.469 531.973L344.281 531.196C344.708 532.99 345.122 534.903 345.483 536.823C348.006 549.022 349.989 563.667 351.611 579.334Z" fill="#232323"/>
<path fill-rule="evenodd" clip-rule="evenodd" d="M226.565 212.202C179.378 213.751 163.426 229.604 155.291 257.022C146.051 288.153 129.781 476.186 129.781 539.017C129.781 539.017 271.001 548.98 349.232 536.213C324.701 453.744 322.052 305.465 321.559 261.286C321.193 228.145 286.382 210.235 226.565 212.202Z" fill="#4D8DFF"/>
<mask id="mask1" mask-type="alpha" maskUnits="userSpaceOnUse" x="0" y="0" width="640" height="622">
<path fill-rule="evenodd" clip-rule="evenodd" d="M0 621.954H640V0H0V621.954Z" fill="white"/>
</mask>
<g mask="url(#mask1)">
<path fill-rule="evenodd" clip-rule="evenodd" d="M234.274 375.898H303.006V292.957H234.274V375.898ZM231.27 378.888H306.01V289.967H231.27V378.888Z" fill="white"/>
<path fill-rule="evenodd" clip-rule="evenodd" d="M268.135 135.312C272.779 131.826 297.027 134.989 290.046 85.8524C287.499 67.9246 270.586 79.8904 258.612 82.2824C246.632 84.6743 254.25 136.197 254.25 136.197L268.135 135.312Z" fill="#232323"/>
<path fill-rule="evenodd" clip-rule="evenodd" d="M207.76 123.543C209.773 136.567 213.798 207.029 212.122 223.396C210.446 239.763 289.969 244.433 279.563 226.404C269.163 208.368 276.547 148.587 276.547 148.587L207.76 123.543Z" fill="#FFAD69"/>
<path fill-rule="evenodd" clip-rule="evenodd" d="M213.264 125.534L276.535 148.593C276.535 148.593 272.263 183.408 274.841 207.926C226.596 204.212 214.213 143.564 213.402 131.885C213.264 129.684 213.198 127.561 213.264 125.534Z" fill="#D88344"/>
<path fill-rule="evenodd" clip-rule="evenodd" d="M296.849 121.324C302.713 161.551 312.668 201.664 263.678 195.056C214.682 188.454 207.076 125.934 207.214 114.148C207.977 51.2211 285.319 42.2213 296.849 121.324Z" fill="#FFAD69"/>
<path fill-rule="evenodd" clip-rule="evenodd" d="M291.624 76.4072C280.095 63.078 215.273 58.0489 204.543 69.8532C203.365 66.1457 205.769 61.589 205.793 61.5471L203.149 60.1299C203.023 60.3571 200.097 65.8527 201.689 70.7921C201.743 70.9476 201.875 71.0552 201.929 71.2107C190.069 73.812 197.64 125.096 197.64 125.096L211.524 124.211C216.169 120.73 232.288 96.2247 235.839 81.4364C261.223 85.712 306.278 93.3484 291.624 76.4072Z" fill="#232323"/>
<path fill-rule="evenodd" clip-rule="evenodd" d="M284.73 440.856C279.767 441.131 260.511 444.462 253.752 442.901C231.036 437.621 172.493 411.482 140.98 396.873C160.369 354.984 188.907 280.845 188.907 280.845L144.033 267.737C123.208 306.134 94.4477 387.228 88.6559 406.047C88.3315 407.733 88.3075 409.318 88.4096 410.837C88.2053 418.282 91.6299 425.882 100.624 431.336C125.57 446.459 219.674 461.134 245.737 463.998C246.218 464.967 246.855 465.846 247.888 466.426C254.263 469.99 283.27 472.657 289.236 473.709C296.716 475.025 319.421 476.939 318.441 473.913C316.837 468.955 308.42 439.534 284.73 440.856Z" fill="#FFAD69"/>
<path fill-rule="evenodd" clip-rule="evenodd" d="M170.967 229.173C145.655 246.012 102.445 322.609 102.445 322.609L179.39 348.771C179.39 348.771 237.741 184.754 170.967 229.173Z" fill="#4D8DFF"/>
<path fill-rule="evenodd" clip-rule="evenodd" d="M255.596 119.335C255.44 121.296 256.503 122.977 257.975 123.096C259.453 123.21 260.775 121.721 260.937 119.76C261.1 117.804 260.03 116.118 258.552 115.998C257.08 115.885 255.752 117.374 255.596 119.335Z" fill="#232323"/>
<path fill-rule="evenodd" clip-rule="evenodd" d="M286.804 120.159C286.648 122.12 287.711 123.801 289.183 123.92C290.661 124.034 291.983 122.545 292.145 120.583C292.302 118.628 291.232 116.942 289.76 116.822C288.288 116.708 286.96 118.197 286.804 120.159Z" fill="#232323"/>
<path fill-rule="evenodd" clip-rule="evenodd" d="M247.919 108.328L245.402 106.695C250.713 98.5982 259.629 100.476 260.014 100.56L259.359 103.478C259.07 103.418 252.071 101.995 247.919 108.328Z" fill="#232323"/>
<path fill-rule="evenodd" clip-rule="evenodd" d="M295.162 112.056C291.984 105.173 284.846 105.55 284.564 105.58L284.353 102.596C284.738 102.572 293.834 102.016 297.89 110.806L295.162 112.056Z" fill="#232323"/>
<path fill-rule="evenodd" clip-rule="evenodd" d="M265.623 156.371C260.546 156.371 250.783 154.936 244.721 144.902L247.292 143.359C254.64 155.522 267.822 153.304 268.381 153.202L268.928 156.138C268.879 156.15 267.612 156.371 265.623 156.371Z" fill="#232323"/>
<path fill-rule="evenodd" clip-rule="evenodd" d="M288.723 142.746L274.135 142.549L274.177 139.559L284.697 139.703L278.203 117.655L281.081 116.812L288.723 142.746Z" fill="#D88344"/>
<path fill-rule="evenodd" clip-rule="evenodd" d="M219.641 128.661C224.063 138.588 229.609 148.192 215.712 149.974C201.815 151.762 195.351 136.232 194.563 133.188C190.358 116.953 210.936 109.143 219.641 128.661Z" fill="#FFAD69"/>
<path fill-rule="evenodd" clip-rule="evenodd" d="M595.872 486.867H20.9695C16.2772 486.867 12.438 483.046 12.438 478.376C12.438 473.705 16.2772 469.884 20.9695 469.884H595.872C600.564 469.884 604.403 473.705 604.403 478.376C604.403 483.046 600.564 486.867 595.872 486.867Z" fill="white"/>
<path fill-rule="evenodd" clip-rule="evenodd" d="M233.729 486.867H16.7043C12.012 486.867 8.17285 483.046 8.17285 478.376C8.17285 473.705 12.012 469.884 16.7043 469.884H233.729C238.421 469.884 242.26 473.705 242.26 478.376C242.26 483.046 238.421 486.867 233.729 486.867Z" fill="#D8D5DB"/>
<path fill-rule="evenodd" clip-rule="evenodd" d="M567.721 456.401H389.389C382.581 456.401 378.063 450.9 379.301 444.119L398.749 337.67C399.993 330.883 406.518 325.387 413.337 325.387H591.663C598.476 325.387 602.994 330.883 601.757 337.67L582.308 444.119C581.065 450.9 574.54 456.401 567.721 456.401Z" fill="#2B2B2B"/>
<path fill-rule="evenodd" clip-rule="evenodd" d="M572.08 456.401H393.748C386.941 456.401 382.423 450.9 383.66 444.119L403.109 337.67C404.346 330.883 410.877 325.387 417.69 325.387H596.016C602.836 325.387 607.354 330.883 606.116 337.67L586.662 444.119C585.424 450.9 578.893 456.401 572.08 456.401Z" fill="#232323"/>
<path fill-rule="evenodd" clip-rule="evenodd" d="M512.568 412.433H469.376L477.241 369.383H520.445L512.568 412.433ZM474.717 366.394L465.765 415.423H515.032L524.044 366.394H474.717Z" fill="white"/>
<path fill-rule="evenodd" clip-rule="evenodd" d="M358.112 459.806C358.112 465.349 362.672 469.888 368.248 469.888H554.793C560.369 469.888 564.929 465.349 564.929 459.806H358.112Z" fill="#232323"/>
<path fill-rule="evenodd" clip-rule="evenodd" d="M303.916 459.806C303.916 465.349 308.47 469.888 314.046 469.888H387.405C392.98 469.888 397.54 465.349 397.54 459.806H303.916Z" fill="#2B2B2B"/>
<path fill-rule="evenodd" clip-rule="evenodd" d="M508.825 129.438C502.51 129.438 497.391 134.539 497.391 140.824H520.264C520.264 134.539 515.145 129.438 508.825 129.438Z" fill="#377ADB"/>
<path fill-rule="evenodd" clip-rule="evenodd" d="M508.837 129.441V239.986C508.837 246.283 503.706 251.336 497.379 251.336H414.221V140.851C414.221 134.548 419.346 129.441 425.631 129.441H508.837Z" fill="#4D8DFF"/>
<path fill-rule="evenodd" clip-rule="evenodd" d="M485.972 239.985L402.772 239.973C402.772 246.258 407.897 251.353 414.217 251.353L497.375 251.335C491.055 251.335 485.972 246.282 485.972 239.985Z" fill="#6EA9FF"/>
<path fill-rule="evenodd" clip-rule="evenodd" d="M426.659 148.004H496.413V145.014H426.659V148.004Z" fill="white"/>
<path fill-rule="evenodd" clip-rule="evenodd" d="M426.659 159.329H496.413V156.339H426.659V159.329Z" fill="white"/>
<path fill-rule="evenodd" clip-rule="evenodd" d="M426.659 170.655H496.413V167.665H426.659V170.655Z" fill="white"/>
<path fill-rule="evenodd" clip-rule="evenodd" d="M426.659 181.981H496.413V178.991H426.659V181.981Z" fill="white"/>
<path fill-rule="evenodd" clip-rule="evenodd" d="M426.659 193.307H496.413V190.317H426.659V193.307Z" fill="white"/>
<path fill-rule="evenodd" clip-rule="evenodd" d="M426.659 204.633H496.413V201.643H426.659V204.633Z" fill="white"/>
<path fill-rule="evenodd" clip-rule="evenodd" d="M426.659 215.959H496.413V212.969H426.659V215.959Z" fill="white"/>
<path fill-rule="evenodd" clip-rule="evenodd" d="M426.659 227.285H496.413V224.295H426.659V227.285Z" fill="white"/>
<path fill-rule="evenodd" clip-rule="evenodd" d="M625.061 188.837C609.14 204.684 583.317 204.684 567.39 188.837C551.468 172.985 551.468 147.289 567.39 131.436C583.317 115.583 609.14 115.583 625.061 131.436C640.983 147.289 640.983 172.985 625.061 188.837Z" fill="#FFC84D"/>
<path fill-rule="evenodd" clip-rule="evenodd" d="M596.23 160.138L628.631 192.387C610.859 210.082 581.594 210.082 563.822 192.387C556.21 184.805 551.517 174.795 550.574 164.114L596.23 160.138Z" fill="#232323"/>
<path fill-rule="evenodd" clip-rule="evenodd" d="M596.23 160.138L550.712 165.418C550.112 160.305 550.388 155.127 551.53 150.097C552.665 145.074 554.648 140.278 557.399 135.913L596.23 160.138Z" fill="white"/>
<path fill-rule="evenodd" clip-rule="evenodd" d="M396.619 101.419H362.073C357.615 101.419 353.962 97.7891 353.962 93.346V58.9674C353.962 54.5303 357.615 50.8945 362.073 50.8945H396.619C401.077 50.8945 404.73 54.5303 404.73 58.9674V93.346C404.73 97.7891 401.077 101.419 396.619 101.419Z" fill="#232323"/>
<path fill-rule="evenodd" clip-rule="evenodd" d="M386.522 111.469H351.975C347.517 111.469 343.864 107.839 343.864 103.396V69.0177C343.864 64.5806 347.517 60.9448 351.975 60.9448H386.522C390.98 60.9448 394.633 64.5806 394.633 69.0177V103.396C394.633 107.839 390.98 111.469 386.522 111.469Z" fill="#FF4E4A"/>
</g>
</svg>
