<svg xmlns="http://www.w3.org/2000/svg" xmlns:xlink="http://www.w3.org/1999/xlink" viewBox="0 0 474 349"><defs><style>.cls-1{isolation:isolate;}.cls-2{fill:none;}.cls-3{fill:#c5503d;}.cls-4{fill:#456d26;}.cls-5{fill:#2a4117;}.cls-6{fill:#ad4735;}.cls-7{fill:#fa5;}.cls-8{fill:#db8038;}.cls-17,.cls-9{fill:#f5a789;}.cls-10{fill:#186f7f;}.cls-11{fill:#1a7888;}.cls-12,.cls-31{fill:#fff;}.cls-13{fill:#90532e;}.cls-14{fill:#09161c;}.cls-15{fill:#211913;}.cls-16{fill:#33261e;}.cls-17{opacity:0.35;mix-blend-mode:multiply;}.cls-18{fill:#0d164e;}.cls-19{fill:#1d869a;}.cls-20{fill:url(#linear-gradient);}.cls-21{fill:url(#linear-gradient-2);}.cls-22{fill:#5260d0;}.cls-23{fill:url(#linear-gradient-3);}.cls-24{fill:#313744;}.cls-25{fill:url(#linear-gradient-4);}.cls-26{fill:url(#linear-gradient-5);}.cls-27{fill:url(#linear-gradient-6);}.cls-28{fill:url(#linear-gradient-7);}.cls-29{fill:url(#linear-gradient-8);}.cls-30{fill:#33501d;}.cls-31{opacity:0.8;}.cls-32{fill:#231f20;}</style><linearGradient id="linear-gradient" x1="763.2" y1="208.91" x2="787.93" y2="184.17" gradientTransform="matrix(-1, 0, 0, 1, 1029.02, 0)" gradientUnits="userSpaceOnUse"><stop offset="0" stop-color="#7484f7"/><stop offset="1" stop-color="#5260d0"/></linearGradient><linearGradient id="linear-gradient-2" x1="859.97" y1="232.54" x2="859.97" y2="213.89" gradientTransform="matrix(1, 0, 0, -1, -690.92, 388.22)" xlink:href="#linear-gradient"/><linearGradient id="linear-gradient-3" x1="765.09" y1="139.81" x2="809.57" y2="190.45" xlink:href="#linear-gradient"/><linearGradient id="linear-gradient-4" x1="82.71" y1="236.14" x2="82.71" y2="366.79" gradientUnits="userSpaceOnUse"><stop offset="0" stop-color="#868686"/><stop offset="1" stop-color="#424242"/></linearGradient><linearGradient id="linear-gradient-5" x1="8.42" y1="220.54" x2="157.01" y2="220.54" gradientUnits="userSpaceOnUse"><stop offset="0" stop-color="#fff"/><stop offset="0.14" stop-color="#fbfbfb"/><stop offset="1" stop-color="#eaeaea"/></linearGradient><linearGradient id="linear-gradient-6" x1="108.76" y1="202.94" x2="122.6" y2="202.21" gradientUnits="userSpaceOnUse"><stop offset="0" stop-color="#fff"/><stop offset="1" stop-color="#eaeaea"/></linearGradient><linearGradient id="linear-gradient-7" x1="138.25" y1="205.46" x2="128.26" y2="202.17" xlink:href="#linear-gradient-6"/><linearGradient id="linear-gradient-8" x1="150.88" y1="220.65" x2="107.36" y2="206.32" xlink:href="#linear-gradient-6"/></defs><g class="cls-1"><g id="Layer_2" data-name="Layer 2"><g id="Layer_8" data-name="Layer 8"><rect class="cls-2" width="474" height="349"/><polygon class="cls-3" points="42.91 213.93 20.08 213.93 17.82 193.84 45.18 193.84 42.91 213.93"/><path class="cls-4" d="M33.87,194.73s-3.16-23.84,19-31.22c-2.38,1.32-12.65,21.08-12.78,30.43A6.91,6.91,0,0,1,33.87,194.73Z"/><path class="cls-4" d="M34.46,186.18s.93-24-21.79-29.34c2.48,1.09,14.55,19.82,15.55,29.12A6.89,6.89,0,0,0,34.46,186.18Z"/><path class="cls-5" d="M32.29,193.5s-1.31-24-24.43-27.18c2.57.86,16.33,18.38,18.2,27.55A6.9,6.9,0,0,0,32.29,193.5Z"/><path class="cls-5" d="M34.81,194.18s12.09-20.8-5.5-36.12c1.68,2.12,3.56,24.32.09,33A6.9,6.9,0,0,0,34.81,194.18Z"/><path class="cls-6" d="M43.84,197.23H19.16a2.66,2.66,0,1,1,0-5.31H43.84a2.66,2.66,0,0,1,0,5.31Z"/><path class="cls-7" d="M103.21,266.7c5,13.95,18,48.36,27.14,58.43l122.39.46s20.57-21.16,26.22-30.37c29.83-48.52,20.41-73.79-.8-86.49-.75-.46-1.53-.9-2.31-1.32-25.11-13.48-64.25-11.12-76.69-8.74a3.73,3.73,0,0,0-.46.09c-41.13,8.29-58.4-120.32-91.83-100.88-3,1.74-5.64,5.6-7.89,11.09C86.57,139.23,86,219,103.21,266.7Z"/><path class="cls-8" d="M99,109a126.13,126.13,0,0,0,2.61,22.56c12.24,61.56,12.75,83.43,31.52,101.12,10.49,9.88,84.16,29.45,120.09,6.9,20.66-13,22.46-22.93,22.65-32.14-25.11-13.48-64.25-11.12-76.69-8.74a3.73,3.73,0,0,0-.46.09c-41.13,8.29-58.4-120.32-91.83-100.88C103.87,99.62,101.23,103.48,99,109Z"/><path class="cls-9" d="M239.63,165.29a11,11,0,1,1,15.26-3.13A11,11,0,0,1,239.63,165.29Z"/><path class="cls-10" d="M168.4,93.57a10.58,10.58,0,0,0-5.21,14.11l17.61,37.56.86,1.82a16.06,16.06,0,0,0,2.21,3.31,16.25,16.25,0,0,0,6.41,4.55,18.08,18.08,0,0,0,1.89.61c.32.08.64.14,1,.21l.49.09,1.62.27,3.22.54,12.91,2.18,25.82,4.35,3.2-16.74L214.79,141,202,138.21l-3.2-.69-1.6-.34-.2,0-.12,0a.86.86,0,0,1,.17,0,2.14,2.14,0,0,1,.34.09,2.94,2.94,0,0,1,1.16.75,3.43,3.43,0,0,1,.42.58c.13.27-.08-.2-.16-.41l-.32-.75-16-38.27a10.56,10.56,0,0,0-14.11-5.56Z"/><path class="cls-11" d="M131.5,198.6c49-9.2,46.14,7.58,67.35.13-11.64-28.27-16.59-47.6-14.9-89.87.47-11.76-7.29-21.85-18.67-22.49l-23.81-1c-11.35-.64-22.21,10.89-23,25.72C116.43,147.79,120.46,136.15,131.5,198.6Z"/><path class="cls-12" d="M140.88,87.41c-.48,3.83,11.44,11.35,19.67,12s9.64-5.87,10.12-9.7-5.8-7.44-14-8.06S141.36,83.59,140.88,87.41Z"/><path class="cls-12" d="M220.67,309.64l-5.38,12.6a4.23,4.23,0,0,1-3.88,1.83c-2.92,0-4.07-1.31-4.46-1.9s2-10.51,2-10.51Z"/><path class="cls-13" d="M234.8,331.57H218a16.56,16.56,0,0,0-1.76-.57c-.76-.18-3.59-.31-3.59-.31l0,.88h-7.17c-.34-2.16.08-8.88.08-9.37a.67.67,0,0,1,.92-.58c.26.15,2.68,2,4.82,2s3.76-2.1,4.34-2.17a6.88,6.88,0,0,1,2.26.92s13.89,6.75,15.63,7.33C235,330.22,234.79,331,234.8,331.57Z"/><path class="cls-14" d="M205.49,331.57a19.45,19.45,0,0,1-.13-2.34c2.2,0,5.5,0,6.9,0,1.7,0,4.43,1.28,5.93,1.28h16.47a2.19,2.19,0,0,1,.14,1.08H218a16.56,16.56,0,0,0-1.76-.57c-.76-.18-3.59-.31-3.59-.31l0,.88Z"/><path class="cls-12" d="M264.49,308.36,272.72,321a8.42,8.42,0,0,1-5,1.84c-2.92,0-4.07-1.31-4.46-1.9s-10.45-10.51-10.45-10.51Z"/><path class="cls-13" d="M291.07,330.29H274.23a16.56,16.56,0,0,0-1.76-.57c-.76-.18-3.59-.31-3.59-.31l.05.88h-7.17c-.34-2.16.08-8.88.08-9.37a.67.67,0,0,1,.92-.58c.26.15,2.68,2,4.82,2s3.76-2.1,4.34-2.17a6.91,6.91,0,0,1,2.26.91s13.89,6.76,15.63,7.34C291.29,328.94,291.06,329.71,291.07,330.29Z"/><path class="cls-14" d="M261.76,330.29a19.58,19.58,0,0,1-.13-2.34c2.2,0,5.5,0,6.9,0,1.7,0,4.43,1.28,5.93,1.28h16.47a2.19,2.19,0,0,1,.14,1.08H274.23a16.56,16.56,0,0,0-1.76-.57c-.76-.18-3.59-.31-3.59-.31l.05.88Z"/><path class="cls-15" d="M206,312.76c2.14-28.34,14.61-73.44,19.33-77.87-21.3-3.66-32.06-9.14-59.52-9.14s-29.92-30.87-29.92-30.87,120-15.33,126.19,14.88c3.35,16.42-25.07,78.36-38,103Z"/><path class="cls-16" d="M130.37,194.42s98.26-4.86,103,25.35c2.61,16.42,22,67.94,35.55,92.56H252.87c-56.53-51.56-48.6-66.43-47.68-78.09-16.54-3.66-35.79-.27-55.05-9.41C129.78,215.17,130.37,194.42,130.37,194.42Z"/><path class="cls-9" d="M143.3,56.7s2.64,25.72,1.41,30.49c3.91,5.26,18.23,5.48,22.94,4.41,1-5,.66-23.38-.14-24.2s-13-8.22-13-8.22Z"/><path class="cls-17" d="M146,77.34c-1.57-2.12-1.6-8.47-2-12.57l10.47,2.32s12.9,6.49,13.7,7.31c.51.52-.16,8.85-.25,15.6C160.14,88.39,149.14,81.57,146,77.34Z"/><path class="cls-9" d="M143.85,50.67s-.38,15.76,3.49,20,18.55,13.89,26.3,11,5-36.25,3.82-40-7.4-9.41-14.66-10-12.4-2.19-14.33,2.11S143.85,50.67,143.85,50.67Z"/><path class="cls-18" d="M148,54.71c0,.91,5.68,8.36,6.5,8.9s19.8,1.63,22.24,1.72S179,61,179,61s7.61,22.73-7.06,23.46-27.44-11.21-27.44-14S148,54.71,148,54.71Z"/><path class="cls-18" d="M148,63.81l2.15-3.36s-.94-14.38.94-20.57c1.75.54,17.07,6,26.61,1.35s5.52-14.79,1.89-17.34-23.53-2.82-25.28-2-4.83,3.63-5.24,3.5-6.32,3.36-9.54,6.31.67,28.37.67,28.37Z"/><path class="cls-9" d="M146.3,59c2.12,2.64,2.26,6,.31,7.61s-5.25.68-7.37-2-2.25-6.06-.3-7.62S144.18,56.3,146.3,59Z"/><path class="cls-12" d="M166.71,67.87c.34.9,1.86,4.41,5.34,4.45,4,.05,4.72-3.88,4.92-4.33Z"/><circle class="cls-9" cx="199.22" cy="162.4" r="11.01" transform="matrix(0.99, -0.16, 0.16, 0.99, -23.91, 34.83)"/><path class="cls-19" d="M128.31,92.71a10.57,10.57,0,0,0-6.54,13.54l13.9,39.09.69,1.9a16.26,16.26,0,0,0,7.82,8.65,17.18,17.18,0,0,0,1.82.78l.94.31.48.13,1.58.43,3.16.85,12.64,3.41,25.27,6.81,4.8-16.34-25-7.93-12.48-4-3.12-1-1.56-.5-.19-.06s-.18-.05-.11,0l.16.05a1.75,1.75,0,0,1,.32.12,2.86,2.86,0,0,1,1.09.86,2.57,2.57,0,0,1,.36.62c.1.28-.06-.21-.12-.42l-.24-.78L141.82,99.6a10.57,10.57,0,0,0-13.51-6.89Z"/><path d="M194.23,151.93l.32-1L154.46,138.8c-1-3-9.65-29.79-9.87-30.53-.73-2.53-3.71-2.67-3.84-2.67l0,1.08c.09,0,2.33.12,2.84,1.9.23.79,9.57,29.6,10,30.82l.08.27Z"/><path class="cls-20" d="M185.11,197.25H253L272.25,150c1.09-2.65-.68-5.65-3.33-5.65H209.05a3.65,3.65,0,0,0-3.32,2.37Z"/><path class="cls-21" d="M148.25,191h41.6a0,0,0,0,1,0,0v3.64a2.55,2.55,0,0,1-2.55,2.55h-39a0,0,0,0,1,0,0V191A0,0,0,0,1,148.25,191Z" transform="translate(338.1 388.22) rotate(180)"/><path class="cls-12" d="M189.28,197.25h67.87L276.42,150c1.09-2.65-.68-5.65-3.32-5.65H213.23a3.65,3.65,0,0,0-3.33,2.37Z"/><path class="cls-22" d="M209.45,146.52a4.14,4.14,0,0,1,3.78-2.69H273.1a4,4,0,0,1,3.47,2.08,4.89,4.89,0,0,1,.3,4.33l-19.4,47.55h-69ZM276,149.8a3.72,3.72,0,0,0-.23-3.3,3.06,3.06,0,0,0-2.64-1.59H213.23a3.17,3.17,0,0,0-2.88,2.05l-20.3,49.75h66.78Z"/><path class="cls-23" d="M229.51,171.8a8.26,8.26,0,0,1,7.75-5.82c3.49,0,5.68,2.61,4.89,5.82a8.28,8.28,0,0,1-7.75,5.83C230.91,177.63,228.72,175,229.51,171.8Z"/><rect class="cls-24" x="75.5" y="229.9" width="14.43" height="98.95"/><path class="cls-24" d="M130.17,328.85H35.26l.5-.17a140.9,140.9,0,0,1,46.95-8.05h0a140.91,140.91,0,0,1,47,8.05Z"/><polygon class="cls-25" points="140.04 237.98 25.39 237.98 14.75 219.75 150.68 219.75 140.04 237.98"/><rect class="cls-26" x="8.42" y="214.02" width="148.59" height="13.04" rx="2.86"/><path class="cls-27" d="M102.37,193s3.45,19.44,13.08,19.44h9.64S129.91,199.84,133,193Z"/><path class="cls-28" d="M125.53,210.08a1.37,1.37,0,0,1,0-2.74c4.19,0,6.82-1.49,7.83-4.43a5.1,5.1,0,0,0-.24-4.57,3.06,3.06,0,0,0-2.62-1.21,1.37,1.37,0,0,1,0-2.74,5.76,5.76,0,0,1,4.85,2.35,7.76,7.76,0,0,1,.6,7C134.57,207.85,130.87,210.08,125.53,210.08Z"/><path class="cls-29" d="M97.51,209.46c.26.07,2.62,1.63,4.67,3a12.3,12.3,0,0,0,6.83,2.07h25.31a5.65,5.65,0,0,0,3.76-1.43l4.09-3.64Z"/><path class="cls-12" d="M134.72,215.11a2.59,2.59,0,0,1-.48,0,.54.54,0,0,1-.46-.62.56.56,0,0,1,.63-.46c2,.32,4.89-2.26,6.54-4H97.51a.55.55,0,0,1,0-1.09h44.66a.56.56,0,0,1,.5.31.57.57,0,0,1-.08.59C142.4,210,138.1,215.11,134.72,215.11Z"/><path class="cls-30" d="M407.56,291.92S395.43,239.19,368,231.06c9.22,7.05,26,56.67,28.2,61.28S407.56,291.92,407.56,291.92Z"/><path class="cls-12" d="M393.73,270.63s4.87,3.17,9.23,6.07c.67,1.9,1.27,3.68,1.79,5.32l-9.49-6.41s-1.5,3.1-3,6.21c-.64-1.7-1.33-3.54-2.07-5.48Z"/><path class="cls-12" d="M390.28,259.13s3.74,2.43,7.59,5c.9,1.95,1.73,3.89,2.5,5.78l-8.56-5.78s-1.85,3.84-3.56,7.26c-.7-1.81-1.43-3.66-2.17-5.54Z"/><path class="cls-12" d="M383.29,246.67s3.25,1.58,6.91,3.39c1.17,1.78,2.28,3.62,3.33,5.48l-8.1-4.12s-1.2,3.53-2.4,6.94c-.82-2-1.65-3.91-2.49-5.8Z"/><path class="cls-12" d="M384.29,242.27l-7.16-2.48s-.32,1.68-.75,3.85c-1-2-2-3.78-2.9-5.4l.88-2.87,4.2,1.38A48,48,0,0,1,384.29,242.27Z"/><path class="cls-30" d="M398.82,296.09s8.07-53.5,34.76-63.7c-8.65,7.73-21.63,58.49-23.45,63.25S398.82,296.09,398.82,296.09Z"/><path class="cls-12" d="M411,273.81s-4.61,3.53-8.74,6.75c-.52,1.94-1,3.77-1.38,5.45l9-7.12s1.73,3,3.51,6c.51-1.74,1.06-3.63,1.64-5.63Z"/><path class="cls-12" d="M413.55,262.08s-3.55,2.7-7.19,5.54q-1.12,3-2.05,6l8.09-6.42s2.14,3.68,4.1,7c.56-1.85,1.15-3.75,1.75-5.68Z"/><path class="cls-12" d="M419.56,249.12s-3.11,1.82-6.63,3.91c-1,1.87-2,3.78-2.9,5.72L417.8,254s1.46,3.43,2.92,6.73c.66-2,1.34-4,2-6Z"/><path class="cls-12" d="M418.23,244.81l6.95-3s.45,1.65,1.05,3.79c.83-2,1.66-3.92,2.48-5.62l-1.1-2.78-4.08,1.69A47.34,47.34,0,0,0,418.23,244.81Z"/><path class="cls-5" d="M400.59,290.81s38.94-37.56,66.33-29.42c-11.57.87-52.75,33.27-57.08,35.95S400.59,290.81,400.59,290.81Z"/><path class="cls-12" d="M423.79,280.52s-5.81,0-11,.05c-1.6,1.22-3.08,2.39-4.41,3.48l11.45-.19s-.44,3.41-.84,6.86l4.73-3.47Z"/><path class="cls-12" d="M433,272.77s-4.45,0-9.07,0c-1.82,1.14-3.58,2.31-5.25,3.48l10.32-.17s-.54,4.22-1,8c1.57-1.13,3.19-2.29,4.84-3.45Z"/><path class="cls-12" d="M445.62,266.14s-3.58-.45-7.64-.93Q435,266.5,432.2,268l9,1s-.93,3.61-1.78,7.12q2.64-1.8,5.25-3.5Z"/><path class="cls-12" d="M447.18,261.91l7.36,1.84s-.65,1.58-1.47,3.63c1.89-1.1,3.7-2.1,5.38-2.94l.82-2.89L455,260.42A47.61,47.61,0,0,0,447.18,261.91Z"/><path class="cls-5" d="M407.39,294.54S374.22,251.8,346,255.93c11.33,2.52,47.45,40.48,51.36,43.75S407.39,294.54,407.39,294.54Z"/><path class="cls-12" d="M385.9,281s5.75.82,10.92,1.62c1.41,1.44,2.71,2.81,3.87,4.08l-11.3-1.83s-.06,3.45-.15,6.92c-1.3-1.28-2.7-2.66-4.19-4.11Z"/><path class="cls-12" d="M377.93,272.05s4.42.63,9,1.33q2.46,2.1,4.7,4.19l-10.19-1.64s-.07,4.26-.18,8.08l-4.3-4.11Z"/><path class="cls-12" d="M366.35,263.68s3.61.07,7.7.18c1.81,1.12,3.59,2.32,5.32,3.58l-9.08-.34s.4,3.71.74,7.3c-1.57-1.43-3.14-2.85-4.69-4.22Z"/><path class="cls-12" d="M365.42,259.28l-7.55.76s.41,1.65.94,3.81c-1.72-1.37-3.36-2.61-4.91-3.69l-.4-3,4.39-.51A46.67,46.67,0,0,1,365.42,259.28Z"/><path class="cls-3" d="M429.61,291.93c3.4,7.67,4.2,16.22,2.28,22.3-3.32,10.52-14.71,13.23-27.71,13.23s-24.39-2.71-27.71-13.23c-1.92-6.08-1.12-14.63,2.29-22.3Z"/><rect class="cls-3" x="375.5" y="288.34" width="57.36" height="7.15" rx="1.23" transform="translate(808.36 583.83) rotate(180)"/><circle class="cls-7" cx="49.41" cy="79.97" r="26.55" transform="translate(-42.07 58.36) rotate(-45)"/><circle class="cls-31" cx="49.41" cy="79.97" r="20" transform="translate(-42.07 58.36) rotate(-45)"/><path class="cls-22" d="M58.82,87a.52.52,0,0,1-.29-.09l-9.41-6.53A.5.5,0,0,1,48.9,80V66.24a.52.52,0,1,1,1,0V79.7l9.19,6.37a.52.52,0,0,1,.13.72A.54.54,0,0,1,58.82,87Z"/><path class="cls-22" d="M50.54,80a1.13,1.13,0,1,1-1.13-1.12A1.13,1.13,0,0,1,50.54,80Z"/><path class="cls-32" d="M180.15,50.55c-.09,1.53-1,3.23-2.65,3.45a2.48,2.48,0,0,1-2.81-2.44c0-.63,1-.64,1,0A1.48,1.48,0,0,0,177.58,53a2.54,2.54,0,0,0,1.57-2.42c0-.64,1-.64,1,0Z"/><path class="cls-32" d="M166.71,52.86a2.68,2.68,0,0,1-5.29.72.5.5,0,0,1,1-.27,1.69,1.69,0,0,0,3.34-.45.5.5,0,0,1,1,0Z"/><path class="cls-32" d="M172.56,53.69q.23,4.05.44,8.1a.49.49,0,0,1-.49.49l-1,0a.5.5,0,0,1,0-1l1,0-.5.5q-.22-4-.44-8.1c0-.64,1-.64,1,0Z"/></g></g></g></svg>