<svg xmlns="http://www.w3.org/2000/svg" viewBox="0 0 474 349"><defs><style>.cls-1{fill:none;}.cls-2{fill:#885d3e;}.cls-3{fill:#fdca2f;}.cls-4{fill:#ee81ab;}.cls-5{fill:#4ec0c4;}.cls-6{fill:#231f20;}.cls-7{fill:#2d74b5;}.cls-8{fill:#282733;}.cls-9{fill:#ec9992;}.cls-10{fill:#fa5;}.cls-11{fill:#323340;}.cls-12{fill:#db8038;}.cls-13{fill:#fff;}.cls-14{fill:#dd769e;}</style></defs><g id="Layer_2" data-name="Layer 2"><g id="Layer_8" data-name="Layer 8"><rect class="cls-1" width="474" height="349"/><polygon class="cls-2" points="61.81 330.34 54.38 330.34 62.05 222.83 119.91 222.83 130.26 330.34 123.83 330.34 111.75 238.25 71.85 238.25 61.81 330.34"/><rect class="cls-3" x="87.43" y="133.56" width="8.77" height="89.28"/><path class="cls-3" d="M108.42,223.18H76.21c0-1.15,7.21-2.08,16.11-2.08S108.42,222,108.42,223.18Z"/><path class="cls-4" d="M68.93,168.94c0-3.61,8.08-48,8.08-48h29.32l8.38,48.22Z"/><path class="cls-5" d="M142,162.13c2.84-30.46,20.14-64.09,42.8-83.72,16.49-14.29,40.67-21,62.13-21.95,16.35-.68,41.18,4.33,56.05,11.38,19,9,33.37,34.29,41,54.23,20.16,52.64,14.36,98.79,6.83,154.92a64.22,64.22,0,0,1-7.54,21.89c-7.75,14.39-19.17,18.7-27.29,20.39-26.07,5.42-47.61-2.88-74.16-1.31-18,1.07-36.1,2.13-54.08.62-15.51-1.3-32.28-5.38-41.72-18.19-7.27-9.86-8.71-23-9.36-35.36C134.84,230.24,142,162.13,142,162.13Z"/><path class="cls-6" d="M148.84,192c21.15-.54,42.3-1.14,63.44-1.61,10.25-.22,20.49-.23,30.73.07,9.55.28,19.1.67,28.65.38,9.88-.31,19.88-1.31,29.28-4.5.46-.16.26-.89-.2-.74-17.37,5.91-36.49,4.75-54.54,4.2-20.62-.63-41.19,0-61.79.54l-35.57.9c-.48,0-.49.78,0,.76Z"/><path class="cls-7" d="M233.91,20.55c-.83-1.23,8.42-13.73,12.3-15A19.72,19.72,0,0,1,271,18.52a25.21,25.21,0,0,0,1.56,4.68,4.65,4.65,0,0,0,3.85,2.69c2.23,0,3.8-2.19,5.86-3a6.6,6.6,0,0,1,6.08,1,13.74,13.74,0,0,1,4,4.92c1.21,2.22,2.32,4.78,4.62,5.84s5.16.21,7.7-.45,5.66-.92,7.42,1c1.44,1.59,1.39,4,2.35,5.93,1.58,3.12,5.54,4.24,9,4a10.73,10.73,0,0,1,4.27.14c2.24.78,3.36,3.3,3.72,5.65,1.15,7.63-3.45,15.28-9.83,19.61s-14.24,5.9-21.92,6.62c-6.05.56-12.21.64-18.12-.76S270,72,266.27,67.2s-5.63-11.06-10.81-14c-3.26-1.87-7.24-2-10.68-3.53A26,26,0,0,1,239.21,46c-2.19-1.77-4.4-3.71-5.4-6.33-2.47-6.43,1.36-12.31.1-19.08"/><path class="cls-6" d="M237.13,26.15a3,3,0,0,0-3.54,1.36,7.86,7.86,0,0,0-1.2,4.4,8.94,8.94,0,0,0,1,4.63,3.83,3.83,0,0,0,3.49,2.1,4.22,4.22,0,0,0,3-2.41A11.6,11.6,0,0,0,241,32a8.33,8.33,0,0,0-.62-4.72c-.75-1.36-2.44-2.08-3.54-1.11"/><path class="cls-8" d="M280.79,174.09c-9,22.24-25.42,16.33-33.4,17.14-12.52,1.26-25,2.53-37.44,4.72-3.92,7.12-4.59,15.51-5.19,23.61q-2.62,35.79-5.26,71.57c-4.4,2.22-14.61.07-19.51-.45-2-19.08-7.83-92.55-6.29-97.47a38,38,0,0,1,4.5-8.73q5.18-8.21,10.37-16.4c2.21-3.49,4.54-7.09,8-9.33,3-1.93,6.58-2.67,10.08-3.38,5.62-1.13,24.44-4.28,30.06-5.42"/><path class="cls-9" d="M239.92,19.05c-1.58,6.63-3.14,13.72-.81,20.12a8.63,8.63,0,0,0,3.19,4.46,7.62,7.62,0,0,0,5.31.85c4.17-.68,7.73-3.67,9.86-7.33A28.66,28.66,0,0,0,260.82,25c.35-4.25-.06-9.15-3.41-11.78a12.26,12.26,0,0,0-6.63-2.13c-2.28-.18-4.71-.11-6.62,1.13-2.51,1.62-3.48,4.81-3.73,7.78"/><path class="cls-9" d="M244.05,43.5a52,52,0,0,0-1.46,10.89,30.29,30.29,0,0,0-7,1l-9.8,2.22a27,27,0,0,0-6.43,2,9.09,9.09,0,0,0-4.56,4.78c1.12,3.38,5.31,4.46,8.85,4.88,11.2,1.33,22.5,1.38,33.77,1.43a72.33,72.33,0,0,0,14.64-.94,35.83,35.83,0,0,0,11.84-4.69,6.23,6.23,0,0,0-2.82-4.33,16.47,16.47,0,0,0-4.9-2.07,103.78,103.78,0,0,0-23.93-4,46.49,46.49,0,0,1,.36-14.37,22.53,22.53,0,0,1-9,2.64"/><path class="cls-7" d="M242.29,11.05a9.13,9.13,0,0,0-3.21,5.81,5.67,5.67,0,0,0,.11,2.21,5.67,5.67,0,0,0,3.69,3.56,20.29,20.29,0,0,0,5.26.85,20.94,20.94,0,0,1,8.72,2.27c2.63,1.5,4.75,4.19,4.83,7.22,3.1-4.17,2.64-10,1.15-15-.81-2.73-2-5.5-4.22-7.26a12.31,12.31,0,0,0-4.81-2.14c-4-1-8.88-.63-11.55,2.56"/><path class="cls-6" d="M264.32,31.27a4.34,4.34,0,0,0-5.68-1.5,6.14,6.14,0,0,0-2,2,11.72,11.72,0,0,0-2,7.15,4.79,4.79,0,0,0,.85,2.75,3.68,3.68,0,0,0,1,.88,5.73,5.73,0,0,0,5.93-.25,8.17,8.17,0,0,0,3.37-5.08c.5-2.13.21-4.61-1.39-6.1"/><path class="cls-6" d="M236.73,30.06c-.28-4-.34-9.79,1-13.52s3.83-7.07,7.16-8.68a12.26,12.26,0,0,1,11.81,1,20.38,20.38,0,0,1,7.76,10.23c1.63,4.41,2.09,9.58.23,13.88a5.56,5.56,0,0,0-2.7-.44,33,33,0,0,0,0-9.25c-.55-4.2-1.88-8.55-4.89-11.17-3.7-3.23-9.35-2.95-13.18.08s-5.71,12.66-5.72,17.87c0,0-1,0-1.46,0"/><path class="cls-10" d="M215.85,60.65c-14.37,10.4-29.51,21.81-35.46,38.51a20.59,20.59,0,0,0-1.41,9.41c.75,5.86,5.23,10.47,9.6,14.44a231.84,231.84,0,0,0,39.07,28.58c8.4,4.88,17.12,9.24,25,14.84S267.85,179,272,187.81c1.53-2.35,6.45-5.93,8.8-10.84,3.59-7.52,2.39-19.23,1.1-27.47a45.65,45.65,0,0,0,13.71-.07c4.51-.88,8.91-3,11.7-6.67,3.53-4.58,4.07-10.87,3-16.56s-3.48-11-5.43-16.44c-3.05-8.53-4.92-17.44-7.84-26s-7.05-17-13.76-23.1c-6.37,5.47-15.4,6.35-23.8,6.64-7.05.25-39.27,1.4-43.64-6.63"/><path class="cls-6" d="M226.26,139.41c4.69,0,14.69-.7,19.56-.4a10,10,0,0,0-.75-4.56.74.74,0,0,0-.27-.38.8.8,0,0,0-.57-.06c-5.95.8-11-.22-18,.59.85,1.64-.5,3,0,4.81"/><path class="cls-11" d="M173.28,140.7q-20.7,40.53-40.6,81.47c-1.08,2.24-2.2,4.69-1.71,7.13.46,2.28,2.23,4,4,5.51a39.15,39.15,0,0,0,7.63,4.79,1.69,1.69,0,0,0,2.6-.64L174,199.48c7.83-10.74,15.73-21.59,20.92-33.83a8.8,8.8,0,0,1,2.32-3.7,8.5,8.5,0,0,1,2.8-1.24l29.05-8.85A56.71,56.71,0,0,0,216,129.17a11.44,11.44,0,0,0-3.7-2.87c-2.5-1.06-5.37-.43-8,.3a134,134,0,0,0-31.4,13.16"/><path class="cls-6" d="M271.42,101.81a109.48,109.48,0,0,1,4.12,16.34c.08.48.81.28.73-.2a108.28,108.28,0,0,0-4.12-16.34c-.15-.46-.89-.26-.73.2Z"/><path class="cls-9" d="M236.75,117.17a12.72,12.72,0,0,0-5.52-.38,15.87,15.87,0,0,0-4.15,1.29,13.37,13.37,0,0,0-5.09,3.68,7.42,7.42,0,0,0-1.66,5.92,5.17,5.17,0,0,0,4.22,4.17,10.52,10.52,0,0,0,2.9-.26,26.68,26.68,0,0,1,9.09.09c-.49-5,1.71-9.83,1.57-14.8"/><path class="cls-10" d="M127.89,225.94c-1.56,3.7-3.59,8.28-5.15,12a1.36,1.36,0,0,1-.52.71,1.32,1.32,0,0,1-.81,0,46.7,46.7,0,0,0-11.16-1.08c-3.74.26-7.56,1.62-10,4.46q7.55,5.28,15.19,10.42c2,1.32,4,2.64,6.06,3.78,2.67,1.46,5.5,2.62,8.06,4.26,2.23,1.44,4.29,3.26,6.84,4a1.51,1.51,0,0,0,.89.07,1.73,1.73,0,0,0,.88-1q5.7-11.52,11-23.2c-6.37-5.78-13.87-10.13-21.32-14.44"/><path class="cls-12" d="M99,242.64c-1,6.57,30.78,22.63,35.37,23.28s3.09-1.47,3.33-1.85c.46-.72-.43-1.44-.93-2.12-2.25-3.05-5.21-5.1-7.88-7.27-1.39-1.13-18.41-13-27.34-13.28a4.35,4.35,0,0,0-1.61,0,1.21,1.21,0,0,0-.89,1.19"/><path class="cls-7" d="M309.14,320.8a124.16,124.16,0,0,1,.95-21.89l-70.27-.86a34.81,34.81,0,0,0-8.83.66,14.44,14.44,0,0,0-10,8.36c-1.76,4.39-.68,10.23,3,12.78a10.49,10.49,0,0,0,5.33,1.92c23,1.29,49.58.8,79.69,0"/><path class="cls-13" d="M308.32,317.45a70.26,70.26,0,0,1,.79-14.91L250.82,302a34.45,34.45,0,0,0-7.33.45c-3.51.72-6.84,2.7-8.29,5.69a6.73,6.73,0,0,0,2.48,8.71,10,10,0,0,0,4.42,1.3c19,.88,41.14.55,66.11,0"/><path class="cls-8" d="M301.43,298.76a137.46,137.46,0,0,1,.69-19.47l-50.57-.76a20.36,20.36,0,0,0-6.36.58,11.3,11.3,0,0,0-7.19,7.44c-1.26,3.9-.48,9.1,2.15,11.37a6.67,6.67,0,0,0,3.84,1.7c16.52,1.15,35.68.72,57.35-.05"/><path class="cls-13" d="M300.69,296.57a92.11,92.11,0,0,1,.59-14.76l-43.79-.58a20,20,0,0,0-5.51.45,9.2,9.2,0,0,0-6.23,5.63c-1.09,3-.42,6.9,1.87,8.62a6.18,6.18,0,0,0,3.32,1.29c14.31.87,30.9.55,49.67,0"/><path class="cls-7" d="M357.1,231.09A60.14,60.14,0,0,0,343,204.39c-4-4.33-9-9.25-7.78-15a2.64,2.64,0,0,1,.9-1.68c.86-.61,2-.21,3,.2l8.85,3.75c4.51-12-11.34-32.15-7.61-36.67s7.17,3.71,7.17,3.71L345.29,131c-.22-2.69-.38-5.62,1.13-7.86,2.77-4.08,9.58-3,12.74.78s3.68,9,4.1,14q.9,10.44,2,20.87a2.47,2.47,0,0,0,1.92,2.2c2,.41,2.85-2.31,4.14-3.86,2-2.43,6.28-1.83,8.27.63s2,6,1,9-2.85,5.62-4.47,8.33A58.17,58.17,0,0,0,368.8,195c3.39,1.43,7.32-2.7,10.71-.51a4.7,4.7,0,0,1,2,3.93c0,3.1-1.92,5.5-3.81,7.74-7.18,8.57-13.44,16.38-20.62,25"/><path class="cls-4" d="M340.55,323.79l-4.63-66.42h52.7s-1.83,67.74-2.63,67.73C381.66,325,340.55,323.79,340.55,323.79Z"/><path class="cls-6" d="M359.31,255.54c-3-16.11.36-32.44.84-48.61A208.73,208.73,0,0,0,359,181.81q-1.14-12.45-2.31-24.91-1.32-14.11-2.62-28.22c-.12-1.23-2.06-1.25-1.94,0l4.68,50.44a246.13,246.13,0,0,1,1.46,25.17c-.08,8.21-1,16.37-1.58,24.56-.66,9.07-.9,18.22.76,27.21.23,1.22,2.1.7,1.87-.52Z"/><path class="cls-7" d="M344.85,249.61a17.89,17.89,0,0,0-9.94-6.17c-3.59-.81-7.32-.47-11-.67s-7.56-1.07-10.11-3.72c-1.11-1.15-1.76-3.33-.38-4.14s3.26.43,4.24-.67-.4-2.71-1.67-3.48c-4.51-2.74-9.26-5.13-13.41-8.4s-7.74-7.58-8.87-12.74c-.46-2.09-.45-4.45.86-6.14,2.3-3,7-2.2,10.39-.57a34.71,34.71,0,0,1,12.59,10.31c1,1.37,2,2.87,3.56,3.65s3.77.47,4.43-1.12c.84-2-1.16-4.84.51-6.21a2.75,2.75,0,0,1,2-.44c3.31.32,5.84,3,7.79,5.74a60.41,60.41,0,0,1,11.42,35"/><path class="cls-7" d="M369.6,240a42.81,42.81,0,0,1,11-23,3,3,0,0,1,1.12-.86c1.12-.42,2.36.61,2.63,1.78a6.33,6.33,0,0,1-.55,3.51c2.6.47,4.3-2.58,5.15-5.08l6.21-18.43c.76-2.24,3-5,4.86-3.53,1,.79.92,2.26,1.05,3.52s1,2.75,2.25,2.44a2.51,2.51,0,0,0,1.39-1.43c3.4-6.66,3.55-14.92,8.27-20.72a9,9,0,0,1,4.76-3.29c4-.91,8,2.59,8.89,6.58s-.52,8.16-2.41,11.8-4.27,7.06-5.52,11c1.91,1.38,4.06-1.41,6.27-2.22,2.49-.91,5.36,1.2,5.87,3.79s-.85,5.28-2.82,7a23.35,23.35,0,0,1-6.93,3.79l-13.84,5.61c-2.24.92-4.91,2.5-4.6,4.91l6.89,1.13c1.26,1.55-.89,3.56-2.73,4.32a86.85,86.85,0,0,1-36.08,6.66"/><path class="cls-6" d="M350.09,255.78a71.2,71.2,0,0,0-25-29.19,66.92,66.92,0,0,0-9.61-5.36c-1.13-.52-2.11,1.15-1,1.67a69.37,69.37,0,0,1,28.71,24.46,70.33,70.33,0,0,1,5.26,9.4c.52,1.13,2.19.15,1.67-1Z"/><path class="cls-6" d="M366.76,255.86a28,28,0,0,1,3.55-13.35,29.13,29.13,0,0,1,9.84-10.32c4.23-2.73,8.79-4.91,12.87-7.88a62.67,62.67,0,0,0,10.48-9.65,61.79,61.79,0,0,0,8.8-13.42c.54-1.12-1.13-2.1-1.67-1a60.19,60.19,0,0,1-18.2,22.09c-4.12,3.05-8.72,5.27-13,8a31.42,31.42,0,0,0-10.23,10.22,30.22,30.22,0,0,0-4.35,15.26,1,1,0,0,0,1.94,0Z"/><polygon class="cls-14" points="394.45 251.44 394.06 261.59 330.08 261.59 330.08 251.71 394.45 251.44"/><path class="cls-12" d="M161.77,323.77c-.81.32-.69,1.64,0,2.15a3.65,3.65,0,0,0,2.55.35,134.82,134.82,0,0,0,38.4-10.11,2.78,2.78,0,0,0,1.06-.67c.71-.84.11-2.25-.87-2.74a5.39,5.39,0,0,0-3.26-.15c-9.32,1.59-18.34,4.6-27.31,7.59l-10.3,3.45"/><path class="cls-10" d="M177.37,289.67c.72,4.08,2.59,9.9,3,13.39a20.64,20.64,0,0,0-11.35,2.71c-2.88,1.76-4.44,2.74-6,5.73a17.23,17.23,0,0,0-1.49,4.37,23.52,23.52,0,0,0-.22,9.08c0,.25,9.89-1.19,13.12-2,9.66-2.46,16.8-3.75,26.59-7.56.84-.32,1.81-.58,2.22-1.37a3.33,3.33,0,0,0,.08-2.12c-1.32-7.34-.23-15.3-2.11-22.51-3.54-.38-22.71.56-23.89.29"/><path class="cls-10" d="M310.68,128.8c-1.43-3.43-6.81-6.83-14.43-8.32-9.9-1.93-53.94-6-59-6.06a168,168,0,0,0-2,17.08c.16.59,40.71,23.23,66.54,17.26,6.41-1.49,11.59-10.93,8.95-20"/><path class="cls-6" d="M311,128.61c-1.14-2.59-3.68-4.36-6.11-5.62a32.87,32.87,0,0,0-9.56-3.06c-4.2-.73-8.44-1.2-12.67-1.68-11.49-1.33-23-2.44-34.53-3.42-3.63-.31-7.28-.72-10.92-.79a.38.38,0,0,0-.37.28c-.78,4.32-1.29,8.7-1.73,13.07a15.51,15.51,0,0,0-.32,4,.89.89,0,0,0,.45.7,26.19,26.19,0,0,0,4,2.26c2.67,1.4,5.39,2.71,8.14,4a156.2,156.2,0,0,0,23.31,8.59c8.43,2.31,17.37,3.92,26.13,3.07a22.63,22.63,0,0,0,6.33-1.23,12.27,12.27,0,0,0,5.09-4.13,18.44,18.44,0,0,0,2.8-15.86.38.38,0,0,0-.74.2,17.81,17.81,0,0,1-1.61,13.61,13.69,13.69,0,0,1-4,4.52,12.32,12.32,0,0,1-5,1.76c-7.21,1.24-14.7.45-21.81-1a146.26,146.26,0,0,1-37.09-13.57c-1.44-.74-2.87-1.49-4.27-2.31a4.37,4.37,0,0,1-.94-.59c-.11-.13.07.18,0,0a4.5,4.5,0,0,1,.07-1.21c.25-3.31.65-6.62,1.08-9.92.14-1,.27-2,.42-3,.07-.41.13-.83.2-1.25,0-.08.32-1.45,0-1.18.22-.16,1.24,0,1.5.07,11,.65,22,1.82,33,3,5.94.61,11.89,1.24,17.81,2,6.12.8,12.66,1.68,17.71,5.53a9.45,9.45,0,0,1,3.05,3.62c.2.44.85.06.66-.39Z"/><path class="cls-6" d="M153.83,98.26c5.76,14.08,10.26,28,16.56,41.37,8.47-.22,55.58-.44,60.56-.24q-6.9-21.67-13.82-43.36c-5.63,1.12-63.3,2.23-63.3,2.23"/><path class="cls-6" d="M238.79,28a2.63,2.63,0,0,0,2,2.64A1.9,1.9,0,0,0,243,28.77c0-.48-.79-.48-.76,0a1.14,1.14,0,0,1-1.45,1.08A2,2,0,0,1,239.54,28c0-.49-.78-.49-.75,0Z"/><path class="cls-6" d="M249.06,29.76a2,2,0,0,0,4.05.55.38.38,0,0,0-.73-.2,1.3,1.3,0,0,1-2.56-.35.38.38,0,0,0-.76,0Z"/><path class="cls-6" d="M244.59,30.4c-.11,2.06-.23,4.13-.34,6.19a.38.38,0,0,0,.38.38l.74,0a.38.38,0,0,0,0-.76l-.74,0,.38.38c.11-2.06.23-4.13.34-6.19,0-.49-.73-.49-.76,0Z"/><path class="cls-6" d="M245.36,41.54a3.84,3.84,0,0,0,3.76-2.16c.21-.44-.44-.83-.65-.38a3.12,3.12,0,0,1-3.11,1.78c-.48,0-.48.72,0,.76Z"/><path class="cls-6" d="M212.82,63.27c3.21,4.55,9.45,5.91,14.62,6.84a114.6,114.6,0,0,0,19,1.61,139.26,139.26,0,0,0,20.31-1.25,53.82,53.82,0,0,0,13.33-3.08,21.65,21.65,0,0,0,5.64-3.6c.38-.31-.16-.85-.53-.54a21.55,21.55,0,0,1-4.51,3,42,42,0,0,1-11,3,131.49,131.49,0,0,1-38.76.62,61.12,61.12,0,0,1-8.27-1.65c-3.44-1-7-2.33-9.18-5.36-.28-.4-.94,0-.66.38Z"/></g></g></svg>