<?xml version="1.0" encoding="utf-8"?>
<!-- Generator: Adobe Illustrator 25.0.1, SVG Export Plug-In . SVG Version: 6.00 Build 0)  -->
<svg version="1.1" id="Layer_1" xmlns="http://www.w3.org/2000/svg" xmlns:xlink="http://www.w3.org/1999/xlink" x="0px" y="0px"
	 viewBox="0 0 474 349" style="enable-background:new 0 0 474 349;" xml:space="preserve">
<style type="text/css">
	.st0{fill:#75C189;}
	.st1{fill:#55A062;}
	.st2{fill:#FDBBA5;}
	.st3{fill:#ED892F;}
	.st4{fill:#B2B2B2;}
	.st5{fill:#FC9D45;}
	.st6{fill:#CBCBCB;}
	.st7{fill:#0A213F;}
	.st8{fill:#D67D89;}
	.st9{fill:#FFFFFF;}
	.st10{opacity:0.65;fill:#FDBBA5;enable-background:new    ;}
	.st11{fill:#FDDA31;}
	.st12{fill:#DB8038;}
	.st13{fill:#FFAA55;}
	.st14{fill:url(#SVGID_1_);}
	.st15{clip-path:url(#SVGID_3_);}
	.st16{fill:url(#SVGID_4_);}
	.st17{clip-path:url(#SVGID_6_);}
	.st18{fill:url(#SVGID_7_);}
	.st19{fill:url(#SVGID_8_);}
	.st20{clip-path:url(#SVGID_10_);}
	.st21{fill:#2F358F;}
	.st22{clip-path:url(#SVGID_12_);}
	.st23{clip-path:url(#SVGID_14_);}
	.st24{clip-path:url(#SVGID_16_);}
	.st25{clip-path:url(#SVGID_18_);}
	.st26{clip-path:url(#SVGID_20_);}
	.st27{clip-path:url(#SVGID_22_);}
	.st28{clip-path:url(#SVGID_24_);}
	.st29{clip-path:url(#SVGID_26_);}
	.st30{clip-path:url(#SVGID_28_);}
	.st31{clip-path:url(#SVGID_30_);}
	.st32{fill:#C6D8E5;}
	.st33{fill:#1BA575;}
	.st34{fill:#2DC788;}
	.st35{fill:#A8C4E1;}
	.st36{fill:url(#SVGID_31_);}
	.st37{fill:#E78E23;}
	.st38{fill:#FDD39C;}
	.st39{fill:url(#SVGID_32_);}
	.st40{fill:url(#SVGID_33_);}
	.st41{fill:#231F20;}
</style>
<g>
	<g id="Layer_2_2_">
		<g id="Layer_8_1_">
			<path class="st0" d="M376.3,256.7c-4.8,13.3-17.2,46.2-25.9,55.8l-116.8,0.4c0,0-19.6-20.2-25-29c-28.5-46.3-19.5-70.4,0.8-82.6
				c0.7-0.4,1.5-0.9,2.2-1.3c24-12.8,61.3-10.6,73.2-8.4l0.4,0.1c39.3,7.9,55.8-114.9,87.7-96.3c2.9,1.7,5.4,5.4,7.6,10.6
				C392.2,135,392.7,211.2,376.3,256.7z"/>
			<path class="st1" d="M380.4,106.1c-0.2,7.2-1,14.4-2.5,21.5c-11.7,58.8-12.2,79.7-30.1,96.5c-10,9.4-80.4,28.1-114.7,6.6
				c-19.7-12.4-21.4-21.9-21.6-30.7c24-12.8,61.3-10.6,73.2-8.4l0.4,0.1c39.3,7.9,55.7-114.9,87.7-96.3
				C375.7,97.2,378.2,100.9,380.4,106.1z"/>
			<path class="st0" d="M76.3,268.3c2.2,8.2-4.1,38.5,13,42.3c20,4.5,70.1,3,79-1.5s17.1-28.2,12.6-51.2c-2.6-13.7-4-25.3-13.3-31.3
				l-0.5-0.3c-0.2-0.1-0.3-0.2-0.5-0.3c-6.3-3.7-16.1-4.9-31.7-2.8c-12.6,1.7-36.2-3.8-46.8,2.3c-1.4,0.8-2.7,1.8-3.9,3l-0.5,0.5
				l-0.4,0.4C74.2,240,74.4,261.1,76.3,268.3z"/>
			<path class="st1" d="M83.9,228.9c1.9,0.7,3.8,1.1,5.8,1.2c2.5,0.1,5,0.7,7.3,1.7c2.5,1.3,4.9,2.8,7,4.6c1.1,1,2.5,1.7,4,2
				c0.9,0.2,2.2,1,3.2,1.2c3.3,0.3,6.7,0.3,9.9-0.2c12-1.7,28.7-2.7,36.8-5.3c4-1.4,7.3-4.2,9.3-7.9c-0.2-0.1-0.3-0.2-0.5-0.3
				c-6.3-3.7-16.1-4.9-31.7-2.8c-12.6,1.7-36.2-3.8-46.8,2.3c-1.4,0.8-2.7,1.8-3.9,3L83.9,228.9z"/>
			<path class="st2" d="M138.4,221.8c0,0-0.1-0.7-4,0.5c-3,0.9-2.4-0.3-8.4-6.3c-6.2-6.3-6.6-6.8-4-8.1c2.6-1.3,2-1.5,4.8,1.8
				c5.5,6.4,10.6,4.4,10.6,4.4L138.4,221.8z"/>
			<path class="st3" d="M125.1,207.6c0,0-2.4,0.4-1.2,3.3c1.2,2.8,5.6,7.4,6.6,8.9c0.9,1.5,3.4,2.7,4,2.5c0.6-0.2-3.2,3.1-5.8,1.8
				s-2.8-6.4-5.1-8.7c-3.9-3.9-5.7-8.6-4.6-11.1C120.5,201.2,125.1,207.6,125.1,207.6z"/>
			<path class="st4" d="M339.7,194.5c0,0,7.3,14.1-9.7,21.3c-17,7.3-48.4,4.4-60.5,1.9s-39.2-8.2-39.2-8.2s-12.1,7.3-21.8,8.7
				c-21.3,3.2-70.7,4.1-70.7,4.1l-2.9-9c0,0,91.1-22.7,99.3-22.7c8.2,0,76.5,1.4,76.5,1.4L339.7,194.5z"/>
			<path class="st2" d="M154.3,230.3c0,0-0.2-0.8-4.4,1.1c-3.2,1.4-2.7,0-10.1-5.9c-7.7-6.2-8.2-6.7-5.5-8.5c2.7-1.8,2-1.9,5.6,1.4
				c6.9,6.4,12.4,3.5,12.4,3.5L154.3,230.3z"/>
			<path class="st5" d="M137.6,216.3c0,0-2.6,0.8-0.9,3.8s7.2,7.5,8.5,9.1s4.1,2.6,4.8,2.3c0.7-0.3-3.1,3.8-6.2,2.7
				c-3-1.1-3.9-6.7-6.8-9c-4.8-3.9-7.5-8.8-6.5-11.8C131.7,209.8,137.6,216.3,137.6,216.3z"/>
			<path class="st6" d="M342.7,202.3c0,0,7.1,13.6-9.7,21.3c-15.5,7.1-43.5,8.7-60.6,1.9c-11.5-4.5-36.3-12.1-36.3-12.1
				s-9.2,6.8-18.9,8.2c-21.3,3.2-64.9,10.5-64.9,10.5l-5.8-10c0,0,81.4-28.6,89.6-28.6s77.5,6.3,77.5,6.3L342.7,202.3z"/>
			<path class="st7" d="M320,72.6c0,0-2.7,13.1-4.7,19c-2,5.9-6.6,7.9-3,18c3.9,10.8,17.8,8.8,21.4,5.1c3.6-3.6,6.9-3.7,10.5-1.8
				c3.6,1.9,10.9,12.7,15,4C381.3,70.6,320,72.6,320,72.6z"/>
			<path class="st2" d="M276.9,169.4c0,0-14.3,1.8-15.7,2.1c-1.4,0.3,0.2,10.7,0.2,10.7s15.5-0.5,18.6-2.1
				C283,178.5,276.9,169.4,276.9,169.4z"/>
			<path class="st8" d="M277.9,182.1l32.3-5.3c6.8-2.2,6.2-4.9,6.3-5.3l13.8-51.2c1-4.2,1.1-8.2-3.4-8.9c-6.2-0.8-12.1,2.9-13.9,8.9
				c0,0-5.9,35.5-8.7,38.8c-2.8,3.2-27.7,9-27.7,9C278.2,174.5,278.9,175.8,277.9,182.1z"/>
			<path class="st2" d="M247.8,173.8c1.5-5,6.5-8,11.6-7.1c5,1,8.2,5.8,7.3,10.7c0,0.2-0.1,0.5-0.2,0.7c-1.5,5-6.5,8-11.6,7.1
				c-5-1-8.2-5.8-7.3-10.7C247.7,174.3,247.7,174,247.8,173.8z"/>
			<path class="st9" d="M278.3,182.2c0.4-2.8,0.4-5.6,0.1-8.4c0-0.3-0.1-0.5-0.1-0.7c-0.1-1.8-0.5-3.6-1.3-5.2l-0.8,0.5l0.4-0.2
				l-0.4,0.2c0.7,1.5,1.1,3.2,1.2,4.9c0,0.2,0,0.5,0.1,0.7c0.4,2.7,0.3,5.5,0,8.2L278.3,182.2z"/>
			<path class="st8" d="M358.1,118.6c0,0-6.6-6.2-25.1-7.2l-1.1-0.1c-2.7-0.1-5.5,0.1-8.1,0.5c-4.4,0.6-7.8,8.2-7.8,12.6
				c0,6-1.1,8.8-3.7,12.6c-5,7.5-6.4,14.2-2,19.9c3.9,5,5.1,18.9-2.3,43.4c0,0,8.2,7.2,36.5,3.6c0,0-4.4-28,5.4-43.7
				C357.9,147.4,358.1,118.6,358.1,118.6z"/>
			<path class="st2" d="M326.9,111.3c0,0-8.2,13.4-3.8,23.4l1.4,3.5c0,0,17.5-7.9,21.4-24c3.9-16.1-16.4-2.6-16.4-2.6L326.9,111.3z"
				/>
			<path d="M324.3,138.8l0.4-0.2c0.2-0.1,20-8.8,22.6-30.8l-0.9-0.1c-2.3,19.8-18.8,28.5-21.7,29.9c-3.4-8.5-2.5-18.2,2.4-26
				l-0.7-0.5c-5.3,8.1-6.1,18.4-2.4,27.3L324.3,138.8z"/>
			<path class="st2" d="M344.3,98.8c0,0-3.5,8.9,0,14.1c0,0-11.5,6.7-17-0.3c0,0,3.3-10.5,1.9-16.3
				C328.2,91.9,344.3,98.8,344.3,98.8z"/>
			<path class="st10" d="M329.4,97.3c0,0,11.1,2,14.4-0.1c0,0,1.8,15.4,1.3,17.3c-6.7-2.1-12.3-6.8-15.6-13
				C329.5,101.5,329.5,98.2,329.4,97.3z"/>
			<path class="st2" d="M324,70.6c-0.4,0.6-1.1,2.7-1.1,5.9c0,3.7-0.5,5.4-1.1,9.3c-0.7,4.6,4,18.3,19,15.4
				c11.9-2.4,15.2-15.6,15.4-25.7c0,0-12.6-15.2-22.5-12.1C333.7,63.5,329.2,62.2,324,70.6z"/>
			<path class="st9" d="M336.9,90.4c-1.9,0.9-6.3,1.5-10.6-1.2c-0.2-0.1-0.5,0-0.6,0.2c-0.1,0.1-0.1,0.2,0,0.3
				c0.7,2.8,3,4.9,5.9,5.2c3.5,0.4,5.2-2.3,5.9-3.7C337.6,90.8,337.3,90.2,336.9,90.4z"/>
			<path class="st7" d="M338.9,65.7c0,0-14.5,0.2-16,10.6c-0.5,3.4-5.8,17.7,1.2,23.5c0,0-8.7-13-6.4-21.9
				c2.7-10.7,4.7-8.1,3.4-11.7c-1.3-3.6,6.1-17.5,17.3-12.9S338.9,65.7,338.9,65.7z"/>
			<path class="st2" d="M307.6,184c0,0-2.6,3.7,21.5-5.5c3.4-1.3,5,11,5,11s1.1,2.1-22,5.9C303.1,196.9,307.6,184,307.6,184z"/>
			<path class="st8" d="M326.9,193.3c4-2,20.5-6.5,27.4-8.6c1.6-0.4,3.1-1.1,4.5-1.9c2.2-1.3,4-2.9,4.5-8.3
				c1.2-8.5,0.1-47.4,0.1-47.4c-0.1-4.8-4.2-12.1-11.9-12.2c-4.8,0-6.5,6.6-6.4,11.5l0.4,44.5l-22.2,8.8l1.1,2c1,3,1.8,6.1,2.1,9.3
				L326.9,193.3z"/>
			<path class="st2" d="M296.2,188.4c2-4.8,7.3-7.2,12.3-5.8c4.8,1.5,7.5,6.7,6,11.5c-0.1,0.2-0.2,0.5-0.3,0.7
				c-2,4.8-7.3,7.2-12.3,5.8c-4.8-1.5-7.5-6.7-6-11.5C296,188.9,296.1,188.7,296.2,188.4z"/>
			<path d="M323.7,180.6c0.1,0,0.2,0,0.2,0l21.8-9.2c0.2-0.1,0.3-0.2,0.3-0.4l-0.3-26.2c0-0.3-0.2-0.5-0.5-0.5
				c-0.3,0-0.5,0.2-0.5,0.5l0.3,25.9l-21.6,9.1c-0.2,0.1-0.3,0.4-0.2,0.6C323.4,180.5,323.6,180.6,323.7,180.6L323.7,180.6z"/>
			<path class="st7" d="M331.8,60.7l-0.3-4.4c4.5-12.7,19.1-8.1,23.2-6.5c8.7,3.4,13.2,11.4,22,15.2c7.3,3.2,11.7,11.8,9.2,17.4
				c-0.9,2.1,2.2,4,1.8,10.2c-0.5,7.5-2.5,9.7-6.3,11.2c-3.7,1.6-1.7,7-3.7,11.2c-3.7,7.7-16.5,12.6-24.4,7.3
				c-6.9-4.5-7.6-5.2-9.8-11.1c-1.6-4.1-1.6-13,2.1-16.5c3.7-3.4,7-4.8,5.6-10.8c-1.4-6-6.1-8.1-13.3-11.3
				C330,69.3,331.8,60.7,331.8,60.7z"/>
			<path class="st2" d="M345.3,87c-0.4,2.9,1.1,5.6,3.4,5.9c2.3,0.4,4.6-1.7,5.1-4.6c0.5-2.9-1.2-5.8-3.5-5.7
				C347.7,82.5,345.5,84.5,345.3,87z"/>
			<path class="st11" d="M348.6,91.6c-0.2,1,0.5,1.9,1.5,2s1.9-0.5,2-1.5s-0.5-1.9-1.5-2c0,0,0,0,0,0
				C349.7,90,348.8,90.6,348.6,91.6z"/>
			<path class="st12" d="M299,201.8l-51.1-9.1l-8.8-34.9c-0.4-1.5,0.5-3,1.9-3.4c0.4-0.1,0.8-0.1,1.3,0l45.1,8c1.1,0.2,2,1,2.2,2.1
				L299,201.8z"/>
			<path class="st13" d="M295.8,201.3l-51.1-9.1l-8.8-34.9c-0.4-1.5,0.5-3,1.9-3.4c0.4-0.1,0.8-0.1,1.3,0l45.1,8
				c1.1,0.2,2,1,2.2,2.1L295.8,201.3z"/>
			<path class="st9" d="M296.3,201.7l-51.9-9.2l-8.8-35.2c-0.3-1,0-2.1,0.8-2.9c0.7-0.8,1.8-1.1,2.9-1l45.1,8
				c1.2,0.2,2.2,1.1,2.5,2.3L296.3,201.7z M245,191.9l50.3,8.9l-9.2-36.8c-0.2-0.9-1-1.6-1.9-1.8l-45.1-8c-1.3-0.2-2.6,0.7-2.8,2
				c-0.1,0.3,0,0.7,0,1L245,191.9z"/>
			<path class="st9" d="M267.8,178.5c-0.3-2.5-2.1-4.5-4.6-4.9c-2.4-0.4-4.2,1.1-4.1,3.4c0.3,2.5,2.2,4.4,4.6,4.9
				C266.1,182.3,267.9,180.8,267.8,178.5z"/>
			<path class="st7" d="M381.4,101.3c0,0,3.7,2.5,1.8,8.1s-11.5,11.1-11.5,11.1l2.7-19.9L381.4,101.3z"/>
			
				<linearGradient id="SVGID_1_" gradientUnits="userSpaceOnUse" x1="286.8209" y1="166.5288" x2="317.9939" y2="215.6027" gradientTransform="matrix(1 4.000000e-02 4.000000e-02 -1 136.26 389.33)">
				<stop  offset="0" style="stop-color:#FB9B33"/>
				<stop  offset="1" style="stop-color:#FDC762"/>
			</linearGradient>
			<path class="st14" d="M426.2,233.1c2,9,16.3,10.9,21.7,3.2c5.8-8.2-3.6-20.7,5.2-27.5c3.5-2.7,5-2.6,8.4-5.7s-0.1-8.6,4.5-15.3
				c4.7-7-3.9-11.8-11-7.1c-4.7,3.1-7.8,8.5-11.7,12.4c-2.7,2.7-7.5,0.7-8.1,7.3c-0.3,4.3-1,8.7-2.1,12.9c-0.8,2.9-4.1,4.4-5.5,7
				C425.5,223.7,425.3,229.3,426.2,233.1z"/>
			<g>
				<defs>
					<path id="SVGID_2_" d="M426.2,233.1c2,9,16.3,10.9,21.7,3.2c5.8-8.2-3.6-20.7,5.2-27.5c3.5-2.7,5-2.6,8.4-5.7
						s-0.1-8.6,4.5-15.3c4.7-7-3.9-11.8-11-7.1c-4.7,3.1-7.8,8.5-11.7,12.4c-2.7,2.7-7.5,0.7-8.1,7.3c-0.3,4.3-1,8.7-2.1,12.9
						c-0.8,2.9-4.1,4.4-5.5,7C425.5,223.7,425.3,229.3,426.2,233.1z"/>
				</defs>
				<clipPath id="SVGID_3_">
					<use xlink:href="#SVGID_2_"  style="overflow:visible;"/>
				</clipPath>
				<g class="st15">
					<path class="st9" d="M451.9,196.6c-6.6,0-0.1-13,0.7-12.5C452.8,184.2,447.6,196.6,451.9,196.6z"/>
					<path class="st9" d="M451,202.7c-1.3,0.3-2-0.1-2.2-1.1c-0.7,1.4,12.6-5.4,11.1-6.4C461.7,196.5,452.2,202.7,451,202.7z"/>
					<path class="st9" d="M441.3,221.9c-1.3,0.4-2.1,0.1-2.5-0.8c-0.7,2.3,11.1-4.1,9.7-4.8C450.8,217.3,441.9,221.9,441.3,221.9z"
						/>
					<path class="st9" d="M435.8,236.4c-0.9,0.4-1.6,0.2-2-0.6c-0.3,2.2,16.7-5.7,13.6-7C450.6,230.2,437.9,236.4,435.8,236.4z"/>
				</g>
			</g>
			<path class="st9" d="M428.7,265.2c-0.2,0-0.4-0.2-0.4-0.5c0-0.1,0.5-8.1,4.4-25c5.1-22.1,24.2-51.7,24.4-52
				c0.1-0.2,0.4-0.3,0.6-0.2c0.2,0.1,0.3,0.4,0.2,0.6c0,0,0,0.1-0.1,0.1c-0.2,0.3-19.2,29.7-24.3,51.7c-3.9,16.8-4.4,24.7-4.4,24.9
				C429.1,265,429,265.2,428.7,265.2z"/>
			
				<linearGradient id="SVGID_4_" gradientUnits="userSpaceOnUse" x1="243.0784" y1="240.4424" x2="264.0682" y2="196.6205" gradientTransform="matrix(1 4.000000e-02 4.000000e-02 -1 136.26 389.33)">
				<stop  offset="0" style="stop-color:#FDC762"/>
				<stop  offset="1" style="stop-color:#FB9B33"/>
			</linearGradient>
			<path class="st16" d="M408.5,233.6c-4.2,0.8-8.5-4.7-10.4-7.8c-3-5.1-4.6-11.6-3.1-17c1.2-4.3,3.4-9.4,1.6-13.9
				c-1.9-4.7-5.5-4.9-7.9-9.2c-4.1-7.5-0.2-11.4,0-15.8c0.2-6.2-3-7.1-2.7-13.3c0.2-5.1,7.3-8,11.1-5.2c10.1,7.5,6.6,11.8,11.1,18
				c4.5,6.3,10.2,0.2,10.7,21.4c0.1,4.7-1.7,9.2-0.8,14c0.5,2.4,1.8,4.4,2.5,6.7C422.7,218.9,416.3,232.1,408.5,233.6z"/>
			<g>
				<defs>
					<path id="SVGID_5_" d="M408.5,233.6c-4.2,0.8-8.5-4.7-10.4-7.8c-3-5.1-4.6-11.6-3.1-17c1.2-4.3,3.4-9.4,1.6-13.9
						c-1.9-4.7-5.5-4.9-7.9-9.2c-4.1-7.5-0.2-11.4,0-15.8c0.2-6.2-3-7.1-2.7-13.3c0.2-5.1,7.3-8,11.1-5.2c10.1,7.5,6.6,11.8,11.1,18
						c4.5,6.3,10.2,0.2,10.7,21.4c0.1,4.7-1.7,9.2-0.8,14c0.5,2.4,1.8,4.4,2.5,6.7C422.7,218.9,416.3,232.1,408.5,233.6z"/>
				</defs>
				<clipPath id="SVGID_6_">
					<use xlink:href="#SVGID_5_"  style="overflow:visible;"/>
				</clipPath>
				<g class="st17">
					<path class="st9" d="M398,171.2c2.7,0,3-10.5,3.5-10.5C402.4,160.5,402.7,171.2,398,171.2z"/>
					<path class="st9" d="M398.9,180.3c-0.9,0-11.3-5.2-9.3-6.6c-1.6,1.1,12.5,7.4,11.9,5.6C401.2,180.4,400.3,180.7,398.9,180.3z"
						/>
					<path class="st9" d="M403.3,186.6c4.6,0,4-15.7,4.6-15.8C408.4,170.6,410.1,186.6,403.3,186.6z"/>
					<path class="st9" d="M405.3,198.3c-2,0-11.5-7.1-9.4-8.2c-1.8,0.9,11.9,9.5,11.3,7.5C406.9,198.4,406.3,198.6,405.3,198.3z"/>
					<path class="st9" d="M408.9,205.9c4.6,0,7.5-17.2,8.6-17.3C417,188.7,416.1,205.9,408.9,205.9z"/>
				</g>
			</g>
			<path class="st9" d="M415.3,262.5c-0.2,0-0.4-0.2-0.4-0.4v0c0-0.1-0.2-11.6-0.5-29.1c-0.5-20.6-20.2-71.5-20.4-72
				c-0.1-0.2,0-0.4,0.2-0.5c0,0,0,0,0,0c0.2-0.1,0.4,0,0.5,0.2c0.2,0.5,20,51.6,20.5,72.3c0.4,17.5,0.5,29,0.5,29.1
				C415.7,262.3,415.5,262.5,415.3,262.5C415.3,262.5,415.3,262.5,415.3,262.5L415.3,262.5z"/>
			
				<linearGradient id="SVGID_7_" gradientUnits="userSpaceOnUse" x1="287.7184" y1="176.7087" x2="271.9807" y2="270.5302" gradientTransform="matrix(1 4.000000e-02 4.000000e-02 -1 136.26 389.33)">
				<stop  offset="0" style="stop-color:#1BA57D"/>
				<stop  offset="1" style="stop-color:#2DC790"/>
			</linearGradient>
			<path class="st18" d="M434.9,227.5c-5.8,2.6-16.1,1.7-21-3.5c-5.2-5.5-7.8-13-7.3-20.5c0.5-6.9,4.6-8.4,7.3-14.5
				c3.1-7.2,0.4-12.8-4.7-19.1c-3.7-4.5-5.6-5.6-6.6-11.4c-1.8-11.2,4.6-12.6,5-18.2c0.2-2.4-0.5-10.6,0.2-13
				c2.3-7.7,12.2-7.5,17.4-1.3c6.3,7.5,4.9,8.7,7,15.5c2.7,8.7,13.9-1.1,13.3,28.4c-0.2,8.2-2.6,9.8-3,15.5
				c-0.3,4.4,3,10.6,4.1,14.9c0.9,4,1.3,8.1,1.1,12.2C447.5,220.1,438.5,225.9,434.9,227.5z"/>
			<path class="st9" d="M416.3,266.8c-0.1,0-0.2-0.1-0.3-0.1c-0.2-0.2-0.2-0.4,0-0.6c0,0,0,0,0,0c12.5-11.1,13.6-44.8,13.2-63.9
				c-0.7-29.5-12-69.4-12.1-69.8c-0.1-0.2,0.1-0.5,0.3-0.5c0.2-0.1,0.5,0.1,0.5,0.3c0.1,0.4,11.4,40.4,12.1,70
				c0.4,19.2-0.7,53.3-13.5,64.6C416.4,266.7,416.4,266.8,416.3,266.8z"/>
			<path class="st9" d="M422.2,151.5c-0.2,0-0.4-0.2-0.4-0.4c0-0.2,0.1-0.4,0.4-0.5c0,0,0,0,0,0c6.1-0.7,6.4-14.8,6.4-14.9
				c0-0.2,0.2-0.4,0.4-0.4c0.2,0,0.4,0.2,0.4,0.4c0,0,0,0,0,0C429.4,136.4,429,150.7,422.2,151.5L422.2,151.5z"/>
			<path class="st9" d="M421.1,164.9c-9.5,0-16.1-12.8-16.2-13c-0.1-0.2,0-0.5,0.2-0.6c0.2-0.1,0.5,0,0.6,0.2
				c0.1,0.2,8.2,16,19.1,11.8c0.2-0.1,0.5,0,0.6,0.2c0,0,0,0,0,0c0.1,0.2,0,0.5-0.3,0.6C423.8,164.7,422.4,164.9,421.1,164.9z"/>
			<path class="st9" d="M426.3,172.2c-0.2,0-0.4-0.2-0.4-0.4c0-0.2,0.2-0.4,0.4-0.5c0,0,0,0,0,0c11.8-0.6,13.3-22.5,13.3-22.7
				c0-0.2,0.2-0.4,0.4-0.4c0.2,0,0.4,0.2,0.4,0.5C440.4,149.7,439,171.6,426.3,172.2L426.3,172.2z"/>
			<path class="st9" d="M428.9,192c-0.2,0-0.4-0.2-0.4-0.4c0-0.2,0.1-0.4,0.4-0.5c0,0,0,0,0,0c9.6-0.9,13.7-15.1,13.8-15.3
				c0.1-0.2,0.3-0.4,0.5-0.3c0,0,0,0,0,0c0.2,0.1,0.4,0.3,0.3,0.5c0,0,0,0,0,0C443.3,176.7,439.2,191,428.9,192L428.9,192z"/>
			<path class="st9" d="M429.5,200.2c-11.1-1-13.6-11.2-13.6-11.3c-0.1-0.2,0.1-0.5,0.3-0.5c0.2-0.1,0.5,0.1,0.5,0.3l0,0
				c1.6,5.9,6.7,10.1,12.8,10.6c0.2,0,0.4,0.2,0.4,0.4S429.8,200.2,429.5,200.2L429.5,200.2z"/>
			<path class="st9" d="M429.5,218.2L429.5,218.2c-0.3,0-0.5-0.2-0.5-0.4l0,0c0-0.2,0.2-0.4,0.4-0.4c9.4,0,15.3-15.7,15.3-15.9
				c0.1-0.2,0.3-0.3,0.6-0.3c0.2,0.1,0.3,0.3,0.3,0.5C445.4,202.3,439.5,218.2,429.5,218.2z"/>
			<path class="st9" d="M429.2,224.6c-12.8-0.5-18-15.8-18.1-15.9c-0.1-0.2,0-0.5,0.3-0.5c0.2-0.1,0.5,0,0.5,0.3
				c0,0.1,5.1,14.9,17.3,15.3c0.3,0,0.5,0.2,0.5,0.5C429.6,224.5,429.4,224.7,429.2,224.6L429.2,224.6z"/>
			
				<linearGradient id="SVGID_8_" gradientUnits="userSpaceOnUse" x1="266.7293" y1="164.1676" x2="234.0164" y2="204.2956" gradientTransform="matrix(1 4.000000e-02 4.000000e-02 -1 136.26 389.33)">
				<stop  offset="0" style="stop-color:#1BA57D"/>
				<stop  offset="1" style="stop-color:#2DC790"/>
			</linearGradient>
			<path class="st19" d="M415.4,239.3c-2.7,9.8-16.8,9.5-19.7,1.1c-2.7-7.6,2.9-15.3-5.6-20.3c-3.1-1.8-5.5-1.8-8.7-5.2
				s-1.5-7.1-2.4-10.7c-0.3-1.3-4.2-5.3-4.6-6.6c-2-6.4,6.1-12.3,11.3-6.5c4.4,4.8,9.7,5.2,13.9,8.9c2.8,2.3,5.2,5.2,7,8.4
				c2.1,4.2,1.6,8.8,2.9,13.2c0.9,2.7,3.8,3.8,5.2,6.2C417,231.6,416.4,235.5,415.4,239.3z"/>
			<g>
				<defs>
					<path id="SVGID_9_" d="M415.4,239.3c-2.7,9.8-16.8,9.5-19.7,1.1c-2.7-7.6,2.9-15.3-5.6-20.3c-3.1-1.8-5.5-1.8-8.7-5.2
						s-1.5-7.1-2.4-10.7c-0.3-1.3-4.2-5.3-4.6-6.6c-2-6.4,6.1-12.3,11.3-6.5c4.4,4.8,9.7,5.2,13.9,8.9c2.8,2.3,5.2,5.2,7,8.4
						c2.1,4.2,1.6,8.8,2.9,13.2c0.9,2.7,3.8,3.8,5.2,6.2C417,231.6,416.4,235.5,415.4,239.3z"/>
				</defs>
				<clipPath id="SVGID_10_">
					<use xlink:href="#SVGID_9_"  style="overflow:visible;"/>
				</clipPath>
				<g class="st20">
					<path class="st9" d="M387.2,203.4c2.3,0,1.8-4.6,0.9-9C388,193.7,392,203.4,387.2,203.4z"/>
					<path class="st9" d="M387.4,211.8c-0.7,0-7.8-1.6-6.8-2.9c-0.6,0.8,13.8,3.2,12.3,0.7C394.8,212.4,387.5,211.8,387.4,211.8z"/>
					<path class="st9" d="M397.3,216.6c3.1-2.1,3.3-6.5,2.3-9.1c-0.2-0.5-2.9-8.4-2.4-8.6C398.1,198.4,405,216.6,397.3,216.6z"/>
					<path class="st9" d="M402.5,227.7c3.8-3.2,5.4-7.8,5.4-9.9C409.5,217.8,406.5,226.8,402.5,227.7z"/>
					<path class="st9" d="M407.2,240.9c5.7-3.6,5.6-13.7,6-13.7C414.3,227.2,412.2,240.9,407.2,240.9z"/>
					<path class="st9" d="M396.2,221.7c-1.3,0-8.2-3.6-7.8-6.1c1.6,3.3,9.6,7.1,11,4.7C399.2,221.6,398.1,222.1,396.2,221.7z"/>
				</g>
			</g>
			<path class="st9" d="M411.1,262.4c-0.2,0-0.4-0.2-0.4-0.4c0-0.2-1.6-21.2-10.5-38.8c-5.2-10-11.8-19.1-19.7-27.1
				c-0.2-0.2-0.2-0.4,0-0.6c0.2-0.2,0.4-0.2,0.6,0c0,0,0,0,0,0c8,8.1,14.7,17.3,19.9,27.4c9,17.8,10.6,38.9,10.6,39.1
				C411.6,262.2,411.4,262.4,411.1,262.4C411.2,262.4,411.2,262.4,411.1,262.4L411.1,262.4z"/>
			<path class="st21" d="M422,311.7c-14.4,0-26-11.7-26-26.1v-26.9c0-1.1,0.9-2.1,2.1-2.1h48c1.1,0,2.1,0.9,2.1,2c0,0,0,0,0,0v26.9
				C448.1,300.1,436.4,311.7,422,311.7C422,311.7,422,311.7,422,311.7z"/>
			<g>
				<defs>
					<path id="SVGID_11_" d="M422,311.7c-14.4,0-26-11.7-26-26.1v-26.8c0-1.2,1-2.2,2.2-2.2l0,0h47.8c1.2,0,2.2,1,2.2,2.2l0,0v26.8
						C448.1,300.1,436.4,311.7,422,311.7C422,311.7,422,311.7,422,311.7z"/>
				</defs>
				<clipPath id="SVGID_12_">
					<use xlink:href="#SVGID_11_"  style="overflow:visible;"/>
				</clipPath>
				<g class="st22">
					<g>
						<defs>
							<rect id="SVGID_13_" x="439.8" y="238.7" width="24.9" height="24.9"/>
						</defs>
						<clipPath id="SVGID_14_">
							<use xlink:href="#SVGID_13_"  style="overflow:visible;"/>
						</clipPath>
						<g class="st23">
							<path class="st9" d="M464.8,264.9c0.7,0,1.2-0.6,1.2-1.2c0-0.7-0.6-1.2-1.2-1.2s-1.2,0.6-1.2,1.2v0
								C463.5,264.4,464.1,264.9,464.8,264.9z"/>
							<path class="st9" d="M452.3,264.9c0.7,0,1.2-0.6,1.2-1.2c0-0.7-0.6-1.2-1.2-1.2c-0.7,0-1.2,0.6-1.2,1.2v0
								C451,264.4,451.6,264.9,452.3,264.9z"/>
							<path class="st9" d="M464.8,252.5c0.7,0,1.2-0.6,1.2-1.2s-0.6-1.2-1.2-1.2c-0.7,0-1.2,0.6-1.2,1.2v0
								C463.5,251.9,464.1,252.5,464.8,252.5z"/>
							<path class="st9" d="M452.3,252.5c0.7,0,1.2-0.6,1.2-1.2s-0.6-1.2-1.2-1.2c-0.7,0-1.2,0.6-1.2,1.2v0
								C451,251.9,451.6,252.5,452.3,252.5z"/>
							<path class="st9" d="M446.1,258.7c0.7,0,1.2-0.6,1.2-1.2s-0.6-1.2-1.2-1.2c-0.7,0-1.2,0.6-1.2,1.2v0
								C444.8,258.1,445.4,258.7,446.1,258.7z"/>
							<path class="st9" d="M458.5,258.7c0.7,0,1.2-0.6,1.2-1.2s-0.6-1.2-1.2-1.2c-0.7,0-1.2,0.6-1.2,1.2v0
								C457.3,258.1,457.8,258.7,458.5,258.7z"/>
							<path class="st9" d="M446.1,246.2c0.7,0,1.2-0.6,1.2-1.2s-0.6-1.2-1.2-1.2c-0.7,0-1.2,0.6-1.2,1.2v0
								C444.8,245.7,445.4,246.2,446.1,246.2z"/>
							<path class="st9" d="M458.5,246.2c0.7,0,1.2-0.6,1.2-1.2s-0.6-1.2-1.2-1.2c-0.7,0-1.2,0.6-1.2,1.2v0
								C457.3,245.7,457.8,246.2,458.5,246.2z"/>
							<path class="st9" d="M439.8,264.9c0.7,0,1.2-0.6,1.2-1.2c0-0.7-0.6-1.2-1.2-1.2s-1.2,0.6-1.2,1.2v0
								C438.6,264.4,439.1,264.9,439.8,264.9z"/>
							<path class="st9" d="M439.8,252.5c0.7,0,1.2-0.6,1.2-1.2s-0.6-1.2-1.2-1.2c-0.7,0-1.2,0.6-1.2,1.2v0
								C438.6,251.9,439.1,252.5,439.8,252.5z"/>
							<path class="st9" d="M464.8,240c0.7,0,1.2-0.6,1.2-1.2s-0.6-1.2-1.2-1.2c-0.7,0-1.2,0.6-1.2,1.2v0
								C463.5,239.4,464.1,240,464.8,240z"/>
							<path class="st9" d="M452.3,240c0.7,0,1.2-0.6,1.2-1.2s-0.6-1.2-1.2-1.2c-0.7,0-1.2,0.6-1.2,1.2v0
								C451,239.4,451.6,240,452.3,240z"/>
							<path class="st9" d="M439.8,240c0.7,0,1.2-0.6,1.2-1.2s-0.6-1.2-1.2-1.2c-0.7,0-1.2,0.6-1.2,1.2v0
								C438.6,239.4,439.1,240,439.8,240z"/>
						</g>
					</g>
					<g>
						<defs>
							<rect id="SVGID_15_" x="439.8" y="263.7" width="24.9" height="24.9"/>
						</defs>
						<clipPath id="SVGID_16_">
							<use xlink:href="#SVGID_15_"  style="overflow:visible;"/>
						</clipPath>
						<g class="st24">
							<path class="st9" d="M464.8,289.8c0.7,0,1.2-0.6,1.2-1.2c0-0.7-0.6-1.2-1.2-1.2s-1.2,0.6-1.2,1.2v0
								C463.5,289.3,464.1,289.8,464.8,289.8z"/>
							<path class="st9" d="M452.3,289.8c0.7,0,1.2-0.6,1.2-1.2c0-0.7-0.6-1.2-1.2-1.2c-0.7,0-1.2,0.6-1.2,1.2v0
								C451,289.3,451.6,289.8,452.3,289.8z"/>
							<path class="st9" d="M464.8,277.4c0.7,0,1.2-0.6,1.2-1.2c0-0.7-0.6-1.2-1.2-1.2c-0.7,0-1.2,0.6-1.2,1.2l0,0
								C463.5,276.8,464.1,277.4,464.8,277.4z"/>
							<path class="st9" d="M452.3,277.4c0.7,0,1.2-0.6,1.2-1.2c0-0.7-0.6-1.2-1.2-1.2c-0.7,0-1.2,0.6-1.2,1.2l0,0
								C451,276.8,451.6,277.4,452.3,277.4z"/>
							<path class="st9" d="M446.1,283.6c0.7,0,1.2-0.6,1.2-1.2s-0.6-1.2-1.2-1.2s-1.2,0.6-1.2,1.2v0
								C444.8,283.1,445.4,283.6,446.1,283.6z"/>
							<path class="st9" d="M458.5,283.6c0.7,0,1.2-0.6,1.2-1.2s-0.6-1.2-1.2-1.2s-1.2,0.6-1.2,1.2v0
								C457.3,283.1,457.8,283.6,458.5,283.6z"/>
							<path class="st9" d="M446.1,271.1c0.7,0,1.2-0.6,1.2-1.2c0-0.7-0.6-1.2-1.2-1.2s-1.2,0.6-1.2,1.2v0
								C444.8,270.6,445.4,271.1,446.1,271.1z"/>
							<path class="st9" d="M458.5,271.1c0.7,0,1.2-0.6,1.2-1.2c0-0.7-0.6-1.2-1.2-1.2s-1.2,0.6-1.2,1.2v0
								C457.3,270.6,457.8,271.1,458.5,271.1z"/>
							<path class="st9" d="M439.8,289.8c0.7,0,1.2-0.6,1.2-1.2c0-0.7-0.6-1.2-1.2-1.2s-1.2,0.6-1.2,1.2v0
								C438.6,289.3,439.1,289.8,439.8,289.8z"/>
							<path class="st9" d="M439.8,277.4c0.7,0,1.2-0.6,1.2-1.2c0-0.7-0.6-1.2-1.2-1.2c-0.7,0-1.2,0.6-1.2,1.2l0,0
								C438.6,276.8,439.1,277.4,439.8,277.4z"/>
							<path class="st9" d="M464.8,264.9c0.7,0,1.2-0.6,1.2-1.2c0-0.7-0.6-1.2-1.2-1.2s-1.2,0.6-1.2,1.2v0
								C463.5,264.4,464.1,264.9,464.8,264.9z"/>
							<path class="st9" d="M452.3,264.9c0.7,0,1.2-0.6,1.2-1.2c0-0.7-0.6-1.2-1.2-1.2c-0.7,0-1.2,0.6-1.2,1.2v0
								C451,264.4,451.6,264.9,452.3,264.9z"/>
							<path class="st9" d="M439.8,264.9c0.7,0,1.2-0.6,1.2-1.2c0-0.7-0.6-1.2-1.2-1.2s-1.2,0.6-1.2,1.2v0
								C438.6,264.4,439.1,264.9,439.8,264.9z"/>
						</g>
					</g>
					<g>
						<defs>
							<rect id="SVGID_17_" x="439.8" y="288.6" width="24.9" height="24.9"/>
						</defs>
						<clipPath id="SVGID_18_">
							<use xlink:href="#SVGID_17_"  style="overflow:visible;"/>
						</clipPath>
						<g class="st25">
							<path class="st9" d="M464.8,314.8c0.7,0,1.2-0.6,1.2-1.2s-0.6-1.2-1.2-1.2s-1.2,0.6-1.2,1.2v0
								C463.5,314.2,464.1,314.8,464.8,314.8z"/>
							<path class="st9" d="M452.3,314.8c0.7,0,1.2-0.6,1.2-1.2s-0.6-1.2-1.2-1.2c-0.7,0-1.2,0.6-1.2,1.2v0
								C451,314.2,451.6,314.8,452.3,314.8z"/>
							<path class="st9" d="M464.8,302.3c0.7,0,1.2-0.6,1.2-1.2s-0.6-1.2-1.2-1.2s-1.2,0.6-1.2,1.2v0
								C463.5,301.7,464.1,302.3,464.8,302.3z"/>
							<path class="st9" d="M452.3,302.3c0.7,0,1.2-0.6,1.2-1.2s-0.6-1.2-1.2-1.2c-0.7,0-1.2,0.6-1.2,1.2v0
								C451,301.7,451.6,302.3,452.3,302.3z"/>
							<path class="st9" d="M446.1,308.5c0.7,0,1.2-0.6,1.2-1.2s-0.6-1.2-1.2-1.2s-1.2,0.6-1.2,1.2v0
								C444.8,308,445.4,308.5,446.1,308.5z"/>
							<path class="st9" d="M458.5,308.5c0.7,0,1.2-0.6,1.2-1.2s-0.6-1.2-1.2-1.2s-1.2,0.6-1.2,1.2v0
								C457.3,308,457.8,308.5,458.5,308.5z"/>
							<path class="st9" d="M446.1,296.1c0.7,0,1.2-0.6,1.2-1.2s-0.6-1.2-1.2-1.2s-1.2,0.6-1.2,1.2v0
								C444.8,295.5,445.4,296.1,446.1,296.1z"/>
							<path class="st9" d="M458.5,296.1c0.7,0,1.2-0.6,1.2-1.2s-0.6-1.2-1.2-1.2s-1.2,0.6-1.2,1.2v0
								C457.3,295.5,457.8,296.1,458.5,296.1z"/>
							<path class="st9" d="M439.8,314.8c0.7,0,1.2-0.6,1.2-1.2s-0.6-1.2-1.2-1.2s-1.2,0.6-1.2,1.2v0
								C438.6,314.2,439.1,314.8,439.8,314.8z"/>
							<path class="st9" d="M439.8,302.3c0.7,0,1.2-0.6,1.2-1.2s-0.6-1.2-1.2-1.2s-1.2,0.6-1.2,1.2v0
								C438.6,301.7,439.1,302.3,439.8,302.3z"/>
							<path class="st9" d="M464.8,289.8c0.7,0,1.2-0.6,1.2-1.2c0-0.7-0.6-1.2-1.2-1.2s-1.2,0.6-1.2,1.2v0
								C463.5,289.3,464.1,289.8,464.8,289.8z"/>
							<path class="st9" d="M452.3,289.8c0.7,0,1.2-0.6,1.2-1.2c0-0.7-0.6-1.2-1.2-1.2c-0.7,0-1.2,0.6-1.2,1.2v0
								C451,289.3,451.6,289.8,452.3,289.8z"/>
							<path class="st9" d="M439.8,289.8c0.7,0,1.2-0.6,1.2-1.2c0-0.7-0.6-1.2-1.2-1.2s-1.2,0.6-1.2,1.2v0
								C438.6,289.3,439.1,289.8,439.8,289.8z"/>
						</g>
					</g>
					<g>
						<defs>
							<rect id="SVGID_19_" x="414.9" y="238.7" width="24.9" height="24.9"/>
						</defs>
						<clipPath id="SVGID_20_">
							<use xlink:href="#SVGID_19_"  style="overflow:visible;"/>
						</clipPath>
						<g class="st26">
							<path class="st9" d="M439.8,264.9c0.7,0,1.2-0.6,1.2-1.2c0-0.7-0.6-1.2-1.2-1.2s-1.2,0.6-1.2,1.2v0
								C438.6,264.4,439.1,264.9,439.8,264.9z"/>
							<path class="st9" d="M427.4,264.9c0.7,0,1.3-0.5,1.3-1.2c0-0.7-0.5-1.3-1.2-1.3s-1.3,0.5-1.3,1.2c0,0,0,0,0,0
								C426.1,264.4,426.7,264.9,427.4,264.9z"/>
							<path class="st9" d="M439.8,252.5c0.7,0,1.2-0.6,1.2-1.2s-0.6-1.2-1.2-1.2c-0.7,0-1.2,0.6-1.2,1.2v0
								C438.6,251.9,439.1,252.5,439.8,252.5z"/>
							<path class="st9" d="M427.4,252.5c0.7,0,1.2-0.6,1.2-1.2s-0.6-1.2-1.2-1.2s-1.2,0.6-1.2,1.2S426.7,252.5,427.4,252.5z"/>
							<path class="st9" d="M421.1,258.7c0.7,0,1.2-0.6,1.2-1.2s-0.6-1.2-1.2-1.2c-0.7,0-1.2,0.6-1.2,1.2v0
								C419.9,258.1,420.5,258.7,421.1,258.7z"/>
							<path class="st9" d="M433.6,258.7c0.7,0,1.2-0.6,1.2-1.2s-0.6-1.2-1.2-1.2c-0.7,0-1.2,0.6-1.2,1.2v0
								C432.4,258.1,432.9,258.7,433.6,258.7z"/>
							<path class="st9" d="M421.1,246.2c0.7,0,1.2-0.6,1.2-1.2s-0.6-1.2-1.2-1.2c-0.7,0-1.2,0.6-1.2,1.2v0
								C419.9,245.7,420.5,246.2,421.1,246.2z"/>
							<path class="st9" d="M433.6,246.2c0.7,0,1.2-0.6,1.2-1.2s-0.6-1.2-1.2-1.2c-0.7,0-1.2,0.6-1.2,1.2v0
								C432.4,245.7,432.9,246.2,433.6,246.2z"/>
							<path class="st9" d="M414.9,264.9c0.7,0,1.2-0.6,1.2-1.2c0-0.7-0.6-1.2-1.2-1.2s-1.2,0.6-1.2,1.2v0
								C413.7,264.4,414.2,264.9,414.9,264.9z"/>
							<path class="st9" d="M414.9,252.5c0.7,0,1.2-0.6,1.2-1.2s-0.6-1.2-1.2-1.2c-0.7,0-1.2,0.6-1.2,1.2v0
								C413.7,251.9,414.2,252.5,414.9,252.5z"/>
							<path class="st9" d="M439.8,240c0.7,0,1.2-0.6,1.2-1.2s-0.6-1.2-1.2-1.2c-0.7,0-1.2,0.6-1.2,1.2v0
								C438.6,239.4,439.1,240,439.8,240z"/>
							<path class="st9" d="M427.4,240c0.7,0,1.3-0.5,1.3-1.2c0-0.7-0.5-1.3-1.2-1.3c-0.7,0-1.3,0.5-1.3,1.2c0,0,0,0,0,0
								C426.1,239.4,426.7,240,427.4,240z"/>
							<path class="st9" d="M414.9,240c0.7,0,1.2-0.6,1.2-1.2s-0.6-1.2-1.2-1.2c-0.7,0-1.2,0.6-1.2,1.2v0
								C413.7,239.4,414.2,240,414.9,240z"/>
						</g>
					</g>
					<g>
						<defs>
							<rect id="SVGID_21_" x="414.9" y="263.7" width="24.9" height="24.9"/>
						</defs>
						<clipPath id="SVGID_22_">
							<use xlink:href="#SVGID_21_"  style="overflow:visible;"/>
						</clipPath>
						<g class="st27">
							<path class="st9" d="M439.8,289.8c0.7,0,1.2-0.6,1.2-1.2c0-0.7-0.6-1.2-1.2-1.2s-1.2,0.6-1.2,1.2v0
								C438.6,289.3,439.1,289.8,439.8,289.8z"/>
							<path class="st9" d="M427.4,289.8c0.7,0.1,1.3-0.4,1.3-1.1c0.1-0.7-0.4-1.3-1.1-1.3c-0.1,0-0.1,0-0.2,0
								c-0.7,0.1-1.2,0.7-1.1,1.3C426.3,289.3,426.8,289.8,427.4,289.8z"/>
							<path class="st9" d="M439.8,277.4c0.7,0,1.2-0.6,1.2-1.2c0-0.7-0.6-1.2-1.2-1.2c-0.7,0-1.2,0.6-1.2,1.2l0,0
								C438.6,276.8,439.1,277.4,439.8,277.4z"/>
							<path class="st9" d="M427.4,277.4c0.7,0,1.3-0.5,1.3-1.2c0-0.7-0.5-1.3-1.2-1.3s-1.3,0.5-1.3,1.2c0,0,0,0,0,0
								C426.1,276.8,426.7,277.4,427.4,277.4z"/>
							<path class="st9" d="M421.1,283.6c0.7,0,1.2-0.6,1.2-1.2s-0.6-1.2-1.2-1.2s-1.2,0.6-1.2,1.2v0
								C419.9,283.1,420.5,283.6,421.1,283.6z"/>
							<path class="st9" d="M433.6,283.6c0.7,0,1.2-0.6,1.2-1.2s-0.6-1.2-1.2-1.2s-1.2,0.6-1.2,1.2v0
								C432.4,283.1,432.9,283.6,433.6,283.6z"/>
							<path class="st9" d="M421.1,271.1c0.7,0,1.2-0.6,1.2-1.2c0-0.7-0.6-1.2-1.2-1.2s-1.2,0.6-1.2,1.2v0
								C419.9,270.6,420.5,271.1,421.1,271.1z"/>
							<path class="st9" d="M433.6,271.1c0.7,0,1.2-0.6,1.2-1.2c0-0.7-0.6-1.2-1.2-1.2s-1.2,0.6-1.2,1.2v0
								C432.4,270.6,432.9,271.1,433.6,271.1z"/>
							<path class="st9" d="M414.9,289.8c0.7,0,1.2-0.6,1.2-1.2c0-0.7-0.6-1.2-1.2-1.2s-1.2,0.6-1.2,1.2v0
								C413.7,289.3,414.2,289.8,414.9,289.8z"/>
							<path class="st9" d="M414.9,277.4c0.7,0,1.2-0.6,1.2-1.2c0-0.7-0.6-1.2-1.2-1.2c-0.7,0-1.2,0.6-1.2,1.2l0,0
								C413.7,276.8,414.2,277.4,414.9,277.4z"/>
							<path class="st9" d="M439.8,264.9c0.7,0,1.2-0.6,1.2-1.2c0-0.7-0.6-1.2-1.2-1.2s-1.2,0.6-1.2,1.2v0
								C438.6,264.4,439.1,264.9,439.8,264.9z"/>
							<path class="st9" d="M427.4,264.9c0.7,0,1.3-0.5,1.3-1.2c0-0.7-0.5-1.3-1.2-1.3s-1.3,0.5-1.3,1.2c0,0,0,0,0,0
								C426.1,264.4,426.7,264.9,427.4,264.9z"/>
							<path class="st9" d="M414.9,264.9c0.7,0,1.2-0.6,1.2-1.2c0-0.7-0.6-1.2-1.2-1.2s-1.2,0.6-1.2,1.2v0
								C413.7,264.4,414.2,264.9,414.9,264.9z"/>
						</g>
					</g>
					<g>
						<defs>
							<rect id="SVGID_23_" x="414.9" y="288.6" width="24.9" height="24.9"/>
						</defs>
						<clipPath id="SVGID_24_">
							<use xlink:href="#SVGID_23_"  style="overflow:visible;"/>
						</clipPath>
						<g class="st28">
							<path class="st9" d="M439.8,314.8c0.7,0,1.2-0.6,1.2-1.2s-0.6-1.2-1.2-1.2s-1.2,0.6-1.2,1.2v0
								C438.6,314.2,439.1,314.8,439.8,314.8z"/>
							<path class="st9" d="M427.4,314.8c0.7,0,1.3-0.5,1.3-1.2c0-0.7-0.5-1.3-1.2-1.3c-0.7,0-1.3,0.5-1.3,1.2c0,0,0,0,0,0
								C426.1,314.2,426.7,314.8,427.4,314.8z"/>
							<path class="st9" d="M439.8,302.3c0.7,0,1.2-0.6,1.2-1.2s-0.6-1.2-1.2-1.2s-1.2,0.6-1.2,1.2v0
								C438.6,301.7,439.1,302.3,439.8,302.3z"/>
							<path class="st9" d="M427.4,302.3c0.7,0,1.3-0.5,1.3-1.2c0-0.7-0.5-1.3-1.2-1.3c-0.7,0-1.3,0.5-1.3,1.2c0,0,0,0,0,0
								C426.1,301.7,426.7,302.3,427.4,302.3z"/>
							<path class="st9" d="M421.1,308.5c0.7,0,1.2-0.6,1.2-1.2s-0.6-1.2-1.2-1.2s-1.2,0.6-1.2,1.2v0
								C419.9,308,420.5,308.5,421.1,308.5z"/>
							<path class="st9" d="M433.6,308.5c0.7,0,1.2-0.6,1.2-1.2s-0.6-1.2-1.2-1.2s-1.2,0.6-1.2,1.2v0
								C432.4,308,432.9,308.5,433.6,308.5z"/>
							<path class="st9" d="M421.1,296.1c0.7,0,1.2-0.6,1.2-1.2s-0.6-1.2-1.2-1.2s-1.2,0.6-1.2,1.2v0
								C419.9,295.5,420.5,296.1,421.1,296.1z"/>
							<path class="st9" d="M433.6,296.1c0.7,0,1.2-0.6,1.2-1.2s-0.6-1.2-1.2-1.2s-1.2,0.6-1.2,1.2v0
								C432.4,295.5,432.9,296.1,433.6,296.1z"/>
							<path class="st9" d="M414.9,314.8c0.7,0,1.2-0.6,1.2-1.2s-0.6-1.2-1.2-1.2s-1.2,0.6-1.2,1.2v0
								C413.7,314.2,414.2,314.8,414.9,314.8z"/>
							<path class="st9" d="M414.9,302.3c0.7,0,1.2-0.6,1.2-1.2s-0.6-1.2-1.2-1.2s-1.2,0.6-1.2,1.2v0
								C413.7,301.7,414.2,302.3,414.9,302.3z"/>
							<path class="st9" d="M439.8,289.8c0.7,0,1.2-0.6,1.2-1.2c0-0.7-0.6-1.2-1.2-1.2s-1.2,0.6-1.2,1.2v0
								C438.6,289.3,439.1,289.8,439.8,289.8z"/>
							<path class="st9" d="M427.4,289.8c0.7,0.1,1.3-0.4,1.3-1.1c0.1-0.7-0.4-1.3-1.1-1.3c-0.1,0-0.1,0-0.2,0
								c-0.7,0.1-1.2,0.7-1.1,1.3C426.3,289.3,426.8,289.8,427.4,289.8z"/>
							<path class="st9" d="M414.9,289.8c0.7,0,1.2-0.6,1.2-1.2c0-0.7-0.6-1.2-1.2-1.2s-1.2,0.6-1.2,1.2v0
								C413.7,289.3,414.2,289.8,414.9,289.8z"/>
						</g>
					</g>
					<g>
						<defs>
							<rect id="SVGID_25_" x="390" y="238.7" width="24.9" height="24.9"/>
						</defs>
						<clipPath id="SVGID_26_">
							<use xlink:href="#SVGID_25_"  style="overflow:visible;"/>
						</clipPath>
						<g class="st29">
							<path class="st9" d="M414.9,264.9c0.7,0,1.2-0.6,1.2-1.2c0-0.7-0.6-1.2-1.2-1.2s-1.2,0.6-1.2,1.2v0
								C413.7,264.4,414.2,264.9,414.9,264.9z"/>
							<path class="st9" d="M402.4,264.9c0.7,0,1.2-0.6,1.2-1.2c0-0.7-0.6-1.2-1.2-1.2s-1.2,0.6-1.2,1.2v0
								C401.2,264.4,401.8,264.9,402.4,264.9z"/>
							<path class="st9" d="M414.9,252.5c0.7,0,1.2-0.6,1.2-1.2s-0.6-1.2-1.2-1.2c-0.7,0-1.2,0.6-1.2,1.2v0
								C413.7,251.9,414.2,252.5,414.9,252.5z"/>
							<path class="st9" d="M402.4,252.5c0.7,0,1.2-0.6,1.2-1.2s-0.6-1.2-1.2-1.2c-0.7,0-1.2,0.6-1.2,1.2v0
								C401.2,251.9,401.8,252.5,402.4,252.5z"/>
							<path class="st9" d="M396.2,258.7c0.7,0,1.2-0.6,1.2-1.2s-0.6-1.2-1.2-1.2c-0.7,0-1.2,0.6-1.2,1.2v0
								C395,258.1,395.5,258.7,396.2,258.7z"/>
							<path class="st9" d="M408.7,258.7c0.7,0,1.2-0.6,1.2-1.2s-0.6-1.2-1.2-1.2c-0.7,0-1.2,0.6-1.2,1.2v0
								C407.4,258.1,408,258.7,408.7,258.7z"/>
							<path class="st9" d="M396.2,246.2c0.7,0,1.2-0.6,1.2-1.2s-0.6-1.2-1.2-1.2c-0.7,0-1.2,0.6-1.2,1.2v0
								C395,245.7,395.5,246.2,396.2,246.2z"/>
							<path class="st9" d="M408.7,246.2c0.7,0,1.2-0.6,1.2-1.2s-0.6-1.2-1.2-1.2c-0.7,0-1.2,0.6-1.2,1.2v0
								C407.4,245.7,408,246.2,408.7,246.2z"/>
							<path class="st9" d="M390,264.9c0.7,0,1.2-0.6,1.2-1.2c0-0.7-0.6-1.2-1.2-1.2s-1.2,0.6-1.2,1.2v0
								C388.7,264.4,389.3,264.9,390,264.9z"/>
							<path class="st9" d="M390,252.5c0.7,0,1.2-0.6,1.2-1.2s-0.6-1.2-1.2-1.2c-0.7,0-1.2,0.6-1.2,1.2v0
								C388.7,251.9,389.3,252.5,390,252.5z"/>
							<path class="st9" d="M414.9,240c0.7,0,1.2-0.6,1.2-1.2s-0.6-1.2-1.2-1.2c-0.7,0-1.2,0.6-1.2,1.2v0
								C413.7,239.4,414.2,240,414.9,240z"/>
							<path class="st9" d="M402.4,240c0.7,0,1.2-0.6,1.2-1.2s-0.6-1.2-1.2-1.2c-0.7,0-1.2,0.6-1.2,1.2v0
								C401.2,239.4,401.8,240,402.4,240z"/>
							<path class="st9" d="M390,240c0.7,0,1.2-0.6,1.2-1.2s-0.6-1.2-1.2-1.2c-0.7,0-1.2,0.6-1.2,1.2v0
								C388.7,239.4,389.3,240,390,240z"/>
						</g>
					</g>
					<g>
						<defs>
							<rect id="SVGID_27_" x="390" y="263.7" width="24.9" height="24.9"/>
						</defs>
						<clipPath id="SVGID_28_">
							<use xlink:href="#SVGID_27_"  style="overflow:visible;"/>
						</clipPath>
						<g class="st30">
							<path class="st9" d="M414.9,289.8c0.7,0,1.2-0.6,1.2-1.2c0-0.7-0.6-1.2-1.2-1.2s-1.2,0.6-1.2,1.2v0
								C413.7,289.3,414.2,289.8,414.9,289.8z"/>
							<path class="st9" d="M402.4,289.8c0.7,0,1.2-0.6,1.2-1.2c0-0.7-0.6-1.2-1.2-1.2s-1.2,0.6-1.2,1.2v0
								C401.2,289.3,401.8,289.8,402.4,289.8z"/>
							<path class="st9" d="M414.9,277.4c0.7,0,1.2-0.6,1.2-1.2c0-0.7-0.6-1.2-1.2-1.2c-0.7,0-1.2,0.6-1.2,1.2l0,0
								C413.7,276.8,414.2,277.4,414.9,277.4z"/>
							<path class="st9" d="M402.4,277.4c0.7,0,1.2-0.6,1.2-1.2c0-0.7-0.6-1.2-1.2-1.2c-0.7,0-1.2,0.6-1.2,1.2l0,0
								C401.2,276.8,401.8,277.4,402.4,277.4z"/>
							<path class="st9" d="M396.2,283.6c0.7,0,1.3-0.5,1.3-1.2c0-0.7-0.5-1.3-1.2-1.3c-0.7,0-1.3,0.5-1.3,1.2c0,0,0,0,0,0
								C395,283,395.5,283.6,396.2,283.6z"/>
							<path class="st9" d="M408.7,283.6c0.7,0,1.2-0.6,1.2-1.2s-0.6-1.2-1.2-1.2s-1.2,0.6-1.2,1.2v0
								C407.4,283.1,408,283.6,408.7,283.6z"/>
							<path class="st9" d="M396.2,271.1c0.7,0,1.2-0.6,1.2-1.2c0-0.7-0.6-1.2-1.2-1.2s-1.2,0.6-1.2,1.2v0
								C395,270.6,395.5,271.1,396.2,271.1z"/>
							<path class="st9" d="M408.7,271.1c0.7,0,1.2-0.6,1.2-1.2c0-0.7-0.6-1.2-1.2-1.2s-1.2,0.6-1.2,1.2v0
								C407.4,270.6,408,271.1,408.7,271.1z"/>
							<path class="st9" d="M390,289.8c0.7,0,1.2-0.6,1.2-1.2c0-0.7-0.6-1.2-1.2-1.2s-1.2,0.6-1.2,1.2v0
								C388.7,289.3,389.3,289.8,390,289.8z"/>
							<path class="st9" d="M390,277.4c0.7,0,1.2-0.6,1.2-1.2c0-0.7-0.6-1.2-1.2-1.2c-0.7,0-1.2,0.6-1.2,1.2l0,0
								C388.7,276.8,389.3,277.4,390,277.4z"/>
							<path class="st9" d="M414.9,264.9c0.7,0,1.2-0.6,1.2-1.2c0-0.7-0.6-1.2-1.2-1.2s-1.2,0.6-1.2,1.2v0
								C413.7,264.4,414.2,264.9,414.9,264.9z"/>
							<path class="st9" d="M402.4,264.9c0.7,0,1.2-0.6,1.2-1.2c0-0.7-0.6-1.2-1.2-1.2s-1.2,0.6-1.2,1.2v0
								C401.2,264.4,401.8,264.9,402.4,264.9z"/>
							<path class="st9" d="M390,264.9c0.7,0,1.2-0.6,1.2-1.2c0-0.7-0.6-1.2-1.2-1.2s-1.2,0.6-1.2,1.2v0
								C388.7,264.4,389.3,264.9,390,264.9z"/>
						</g>
					</g>
					<g>
						<defs>
							<rect id="SVGID_29_" x="390" y="288.6" width="24.9" height="24.9"/>
						</defs>
						<clipPath id="SVGID_30_">
							<use xlink:href="#SVGID_29_"  style="overflow:visible;"/>
						</clipPath>
						<g class="st31">
							<path class="st9" d="M414.9,314.8c0.7,0,1.2-0.6,1.2-1.2s-0.6-1.2-1.2-1.2s-1.2,0.6-1.2,1.2v0
								C413.7,314.2,414.2,314.8,414.9,314.8z"/>
							<path class="st9" d="M402.4,314.8c0.7,0,1.2-0.6,1.2-1.2s-0.6-1.2-1.2-1.2s-1.2,0.6-1.2,1.2v0
								C401.2,314.2,401.8,314.8,402.4,314.8z"/>
							<path class="st9" d="M414.9,302.3c0.7,0,1.2-0.6,1.2-1.2s-0.6-1.2-1.2-1.2s-1.2,0.6-1.2,1.2v0
								C413.7,301.7,414.2,302.3,414.9,302.3z"/>
							<path class="st9" d="M402.4,302.3c0.7,0,1.2-0.6,1.2-1.2s-0.6-1.2-1.2-1.2s-1.2,0.6-1.2,1.2v0
								C401.2,301.7,401.8,302.3,402.4,302.3z"/>
							<path class="st9" d="M396.2,308.5c0.7,0,1.2-0.6,1.2-1.2s-0.6-1.2-1.2-1.2s-1.2,0.6-1.2,1.2v0
								C395,308,395.5,308.5,396.2,308.5z"/>
							<path class="st9" d="M408.7,308.5c0.7,0,1.2-0.6,1.2-1.2s-0.6-1.2-1.2-1.2s-1.2,0.6-1.2,1.2v0
								C407.4,308,408,308.5,408.7,308.5z"/>
							<path class="st9" d="M396.2,296.1c0.7,0,1.2-0.6,1.2-1.2s-0.6-1.2-1.2-1.2s-1.2,0.6-1.2,1.2v0
								C395,295.5,395.5,296.1,396.2,296.1z"/>
							<path class="st9" d="M408.7,296.1c0.7,0,1.2-0.6,1.2-1.2s-0.6-1.2-1.2-1.2s-1.2,0.6-1.2,1.2v0
								C407.4,295.5,408,296.1,408.7,296.1z"/>
							<path class="st9" d="M390,314.8c0.7,0,1.2-0.6,1.2-1.2s-0.6-1.2-1.2-1.2s-1.2,0.6-1.2,1.2v0
								C388.7,314.2,389.3,314.8,390,314.8z"/>
							<path class="st9" d="M390,302.3c0.7,0,1.2-0.6,1.2-1.2s-0.6-1.2-1.2-1.2s-1.2,0.6-1.2,1.2v0
								C388.7,301.7,389.3,302.3,390,302.3z"/>
							<path class="st9" d="M414.9,289.8c0.7,0,1.2-0.6,1.2-1.2c0-0.7-0.6-1.2-1.2-1.2s-1.2,0.6-1.2,1.2v0
								C413.7,289.3,414.2,289.8,414.9,289.8z"/>
							<path class="st9" d="M402.4,289.8c0.7,0,1.2-0.6,1.2-1.2c0-0.7-0.6-1.2-1.2-1.2s-1.2,0.6-1.2,1.2v0
								C401.2,289.3,401.8,289.8,402.4,289.8z"/>
							<path class="st9" d="M390,289.8c0.7,0,1.2-0.6,1.2-1.2c0-0.7-0.6-1.2-1.2-1.2s-1.2,0.6-1.2,1.2v0
								C388.7,289.3,389.3,289.8,390,289.8z"/>
						</g>
					</g>
				</g>
			</g>
			<polygon class="st32" points="125.8,171.6 103.8,171.6 101.6,152.3 128,152.3 			"/>
			<path class="st33" d="M117.1,153.1c0,0-3-22.9,18.3-30.1c-2.3,1.3-12.2,20.3-12.3,29.3C120.4,154.4,117.1,153.1,117.1,153.1z"/>
			<path class="st33" d="M117.7,144.9c0,0,0.9-23.1-21-28.2c2.4,1.1,14,19.1,15,28C114.5,146.5,117.7,144.9,117.7,144.9z"/>
			<path class="st34" d="M115.6,151.9c0,0-1.3-23.1-23.5-26.2c2.5,0.8,15.7,17.7,17.5,26.5C112.6,153.8,115.6,151.9,115.6,151.9z"/>
			<path class="st34" d="M118,152.6c0,0,11.6-20-5.3-34.8c1.6,2,3.4,23.4,0.1,31.8C114.5,152.5,118,152.6,118,152.6z"/>
			<path class="st35" d="M126.7,155.5h-23.7c-1.4,0.1-2.6-1-2.7-2.4c-0.1-1.4,1-2.6,2.4-2.7c0.1,0,0.2,0,0.3,0h23.7
				c1.4-0.1,2.6,1,2.7,2.4c0.1,1.4-1,2.6-2.4,2.7C126.9,155.5,126.8,155.5,126.7,155.5z"/>
			<rect x="5.5" y="170.5" class="st21" width="130.5" height="5.1"/>
			<rect x="65.4" y="128.1" class="st13" width="9.9" height="42.4"/>
			<path class="st9" d="M72.9,164.2c0-1.4-1.2-2.6-2.6-2.6c-1.4,0-2.6,1.2-2.6,2.6c0,1.4,1.2,2.6,2.6,2.6
				C71.8,166.9,72.9,165.7,72.9,164.2C72.9,164.2,72.9,164.2,72.9,164.2z"/>
			<rect x="67" y="131.4" class="st32" width="6.8" height="21.7"/>
			<rect x="54.3" y="128.1" class="st13" width="9.9" height="42.4"/>
			<path class="st9" d="M61.9,164.2c0-1.4-1.2-2.6-2.6-2.6c-1.4,0-2.6,1.2-2.6,2.6c0,1.4,1.2,2.6,2.6,2.6
				C60.7,166.9,61.9,165.7,61.9,164.2C61.9,164.2,61.9,164.2,61.9,164.2z"/>
			<rect x="56" y="131.4" class="st32" width="6.8" height="21.7"/>
			
				<linearGradient id="SVGID_31_" gradientUnits="userSpaceOnUse" x1="1626.8793" y1="-5945.748" x2="1626.8793" y2="-5890.918" gradientTransform="matrix(6.123234e-17 -1 -1 -6.123234e-17 -5881.5801 1792.52)">
				<stop  offset="0" style="stop-color:#FCC855"/>
				<stop  offset="1" style="stop-color:#F3AC4D"/>
			</linearGradient>
			<rect x="10.7" y="160.7" class="st36" width="42.4" height="9.9"/>
			<path class="st37" d="M46.9,163c-1.4,0-2.6,1.2-2.6,2.6c0,1.4,1.2,2.6,2.6,2.6c1.4,0,2.6-1.2,2.6-2.6c0,0,0,0,0,0
				C49.5,164.2,48.3,163,46.9,163z"/>
			<rect x="14.1" y="162.1" class="st38" width="21.7" height="6.8"/>
			
				<linearGradient id="SVGID_32_" gradientUnits="userSpaceOnUse" x1="1636.6317" y1="-5941.293" x2="1636.6317" y2="-5886.4634" gradientTransform="matrix(6.123234e-17 -1 -1 -6.123234e-17 -5881.5796 1792.52)">
				<stop  offset="0" style="stop-color:#FCC855"/>
				<stop  offset="1" style="stop-color:#F3AC4D"/>
			</linearGradient>
			<rect x="6.3" y="151" class="st39" width="42.4" height="9.9"/>
			<path class="st37" d="M42.4,153.3c-1.4,0-2.6,1.2-2.6,2.6c0,1.4,1.2,2.6,2.6,2.6s2.6-1.2,2.6-2.6c0,0,0,0,0,0
				C45,154.4,43.8,153.3,42.4,153.3z"/>
			<rect x="9.6" y="152.4" class="st38" width="21.7" height="6.8"/>
			
				<linearGradient id="SVGID_33_" gradientUnits="userSpaceOnUse" x1="1646.5125" y1="-5946.2246" x2="1646.5125" y2="-5891.4038" gradientTransform="matrix(6.123234e-17 -1 -1 -6.123234e-17 -5881.5801 1792.5199)">
				<stop  offset="0" style="stop-color:#FCC855"/>
				<stop  offset="1" style="stop-color:#F3AC4D"/>
			</linearGradient>
			<rect x="11.2" y="141.1" class="st40" width="42.4" height="9.9"/>
			<path class="st37" d="M47.3,143.4c-1.4,0-2.6,1.2-2.6,2.6s1.2,2.6,2.6,2.6c1.4,0,2.6-1.2,2.6-2.6l0,0
				C50,144.6,48.8,143.4,47.3,143.4z"/>
			<rect x="14.6" y="142.5" class="st38" width="21.7" height="6.8"/>
			<rect x="76.5" y="128.1" class="st13" width="9.9" height="42.4"/>
			<path class="st9" d="M84,164.2c0-1.4-1.2-2.6-2.6-2.6c-1.4,0-2.6,1.2-2.6,2.6c0,1.4,1.2,2.6,2.6,2.6
				C82.8,166.9,84,165.7,84,164.2C84,164.2,84,164.2,84,164.2z"/>
			<rect x="78.1" y="131.4" class="st32" width="6.8" height="21.7"/>
			<path class="st41" d="M323.4,78.1c0.1,1.4,0.9,3,2.5,3.2c1.3,0.2,2.4-0.7,2.6-2c0-0.1,0-0.2,0-0.3c0-0.6-1-0.6-0.9,0
				c0,0.8-0.6,1.4-1.4,1.4c-0.1,0-0.3,0-0.4-0.1c-0.9-0.4-1.5-1.3-1.5-2.3C324.3,77.6,323.4,77.6,323.4,78.1L323.4,78.1z"/>
			<path class="st41" d="M335.9,80.3c-0.1,1.4,1,2.6,2.4,2.6c1.2,0.1,2.3-0.8,2.6-2c0.1-0.3-0.1-0.5-0.3-0.6
				c-0.3-0.1-0.5,0.1-0.6,0.3c-0.2,0.9-1.1,1.4-1.9,1.2c-0.7-0.2-1.2-0.8-1.2-1.6c-0.1-0.3-0.3-0.4-0.6-0.4
				C336.1,80,335.9,80.1,335.9,80.3L335.9,80.3z"/>
			<path class="st41" d="M330.5,81.1l-0.4,7.6c0,0.3,0.2,0.5,0.5,0.5h0.9c0.3-0.1,0.4-0.3,0.4-0.6c0-0.2-0.2-0.3-0.4-0.4h-0.9
				l0.5,0.5l0.4-7.6C331.4,80.5,330.5,80.5,330.5,81.1L330.5,81.1z"/>
		</g>
	</g>
</g>
</svg>
