<svg xmlns="http://www.w3.org/2000/svg" viewBox="0 0 43.03 43.03"><defs><style>.cls-1{fill:#fa5;}</style></defs><g id="Layer_2" data-name="Layer 2"><g id="Layer_8" data-name="Layer 8"><path class="cls-1" d="M21.51,17.4a4.12,4.12,0,1,0,4.12,4.11A4.11,4.11,0,0,0,21.51,17.4Z"/><path class="cls-1" d="M31.14,14.23a3.83,3.83,0,0,0-.92-1.42,3.94,3.94,0,0,0-1.42-.93,6.77,6.77,0,0,0-2.3-.42c-1.3-.06-1.69-.07-5-.07s-3.69,0-5,.07a6.69,6.69,0,0,0-2.29.42,4.16,4.16,0,0,0-2.35,2.35,6.69,6.69,0,0,0-.42,2.29c-.06,1.3-.07,1.69-.07,5s0,3.69.07,5a6.77,6.77,0,0,0,.42,2.3,4.1,4.1,0,0,0,2.35,2.34,6.88,6.88,0,0,0,2.29.43c1.3.06,1.69.07,5,.07s3.69,0,5-.07a7,7,0,0,0,2.3-.43,4,4,0,0,0,2.34-2.34,7,7,0,0,0,.43-2.3c.06-1.3.07-1.69.07-5s0-3.69-.07-5A6.88,6.88,0,0,0,31.14,14.23ZM21.51,27.86a6.35,6.35,0,1,1,6.35-6.35A6.34,6.34,0,0,1,21.51,27.86Zm6.6-11.46a1.48,1.48,0,1,1,1.48-1.48A1.49,1.49,0,0,1,28.11,16.4Z"/><path class="cls-1" d="M21.51,0A21.52,21.52,0,1,0,43,21.51,21.51,21.51,0,0,0,21.51,0ZM33.79,26.61a9.16,9.16,0,0,1-.57,3,6.33,6.33,0,0,1-3.62,3.62,9.16,9.16,0,0,1-3,.57c-1.32.06-1.74.08-5.1.08s-3.77,0-5.09-.08a9.28,9.28,0,0,1-3-.57,6.11,6.11,0,0,1-2.19-1.43A6.05,6.05,0,0,1,9.81,29.6a8.87,8.87,0,0,1-.58-3c-.06-1.32-.07-1.74-.07-5.1s0-3.77.07-5.09a8.94,8.94,0,0,1,.58-3,6.26,6.26,0,0,1,3.61-3.61,8.94,8.94,0,0,1,3-.58c1.32-.06,1.74-.07,5.09-.07s3.78,0,5.1.07a8.87,8.87,0,0,1,3,.58,5.92,5.92,0,0,1,2.19,1.42,6.11,6.11,0,0,1,1.43,2.19,9.22,9.22,0,0,1,.57,3c.06,1.32.08,1.74.08,5.09S33.85,25.29,33.79,26.61Z"/></g></g></svg>