<svg xmlns="http://www.w3.org/2000/svg" viewBox="0 0 29.84 31.14"><defs><style>.cls-1{fill:#fa5;}</style></defs><g id="Layer_2" data-name="Layer 2"><g id="Option_1" data-name="Option 1"><path class="cls-1" d="M29.84,11.64a2,2,0,0,0-.7-1.5L27.25,8.56V.65A.65.65,0,0,0,26.6,0H3.24A.65.65,0,0,0,2.6.65V8.56L.7,10.14a2,2,0,0,0-.7,1.5V29.19A2,2,0,0,0,.42,30.4l0,.06a.8.8,0,0,0,.13.13A2,2,0,0,0,2,31.14h26a2,2,0,0,0,1.36-.55l.12-.13,0-.06a2,2,0,0,0,.42-1.21ZM28.55,29,17.66,20.76l10.89-8.24ZM1.3,12.52l10.89,8.24L1.3,29Zm12.35,8.76,0,0,.18-.14a1.77,1.77,0,0,1,2.14,0l.18.14h0l11.32,8.58H2.35ZM28.27,11.1l-1,.78V10.25ZM26,1.3V12.86L16.58,20a3,3,0,0,0-3.31,0L3.89,12.86V1.3ZM2.6,11.88l-1-.78,1-.85Z"/><path class="cls-1" d="M11,10.38h3.24v3.24a.65.65,0,0,0,1.3,0V10.38h3.24a.65.65,0,0,0,0-1.3H15.57V5.84a.65.65,0,0,0-1.3,0V9.08H11a.65.65,0,0,0,0,1.3Z"/></g></g></svg>