<svg xmlns="http://www.w3.org/2000/svg" viewBox="0 0 43.1 43.1"><defs><style>.cls-1{fill:#fa5;}</style></defs><g id="Layer_2" data-name="Layer 2"><g id="Layer_8" data-name="Layer 8"><path class="cls-1" d="M21.55,0A21.55,21.55,0,1,0,43.1,21.55,21.55,21.55,0,0,0,21.55,0Zm-5.7,32.17H10.7V16.68h5.15ZM13.28,14.56h0a2.68,2.68,0,1,1,.06-5.35,2.68,2.68,0,1,1,0,5.35ZM34.43,32.17H29.28V23.88c0-2.08-.75-3.5-2.61-3.5A2.82,2.82,0,0,0,24,22.26a3.66,3.66,0,0,0-.17,1.26v8.65H18.7s.07-14,0-15.49h5.15v2.19a5.14,5.14,0,0,1,4.65-2.56c3.39,0,5.93,2.22,5.93,7Z"/></g></g></svg>