<svg xmlns="http://www.w3.org/2000/svg" viewBox="0 0 190.98 75.74"><defs><style>.cls-1{fill:#fdca4b;}.cls-2{fill:#fc9727;}</style></defs><g id="Layer_2" data-name="Layer 2"><g id="Layer_8" data-name="Layer 8"><path class="cls-1" d="M83.18,35.46V30.3H78.47V24.46l-5.38,1.63V30.3H69.47v5.16h3.62v8.67c0,5.62,2.55,7.83,10.09,7V46.25c-3.08.17-4.71.12-4.71-2.12V35.46Z"/><path class="cls-1" d="M98.14,51.71a11,11,0,1,0-11-11A10.92,10.92,0,0,0,98.14,51.71Zm0-5.25a5.54,5.54,0,0,1-5.63-5.75,5.65,5.65,0,1,1,11.3,0A5.54,5.54,0,0,1,98.14,46.46Z"/><path class="cls-1" d="M120.24,33.88V30.3h-5.38V51.12h5.38V41.17c0-4.38,3.54-5.63,6.33-5.29v-6A6.41,6.41,0,0,0,120.24,33.88Z"/><path class="cls-1" d="M134.28,27.8a3.34,3.34,0,0,0,3.34-3.29,3.32,3.32,0,1,0-6.63,0A3.33,3.33,0,0,0,134.28,27.8Zm-2.67,23.32H137V30.3h-5.38Z"/><path class="cls-1" d="M155.4,29.71a7.07,7.07,0,0,0-6.21,2.92V30.3h-5.38V51.12h5.38V39.88c0-3.63,1.95-5.17,4.58-5.17,2.42,0,4.13,1.46,4.13,4.29V51.12h5.37V38.34C163.27,32.8,159.81,29.71,155.4,29.71Z"/><path class="cls-1" d="M185.73,30.3v2.58a8,8,0,0,0-6.67-3.17,10.44,10.44,0,0,0-10.38,10.67A10.41,10.41,0,0,0,179.06,51a8,8,0,0,0,6.67-3.17v2.25c0,3.29-2.09,5.13-5.46,5.13-3.21,0-4.59-1.29-5.47-2.92L170.22,55c1.83,3.37,5.42,5.08,9.88,5.08C185.6,60,191,57,191,50.12V30.3Zm-5.84,15.78a5.69,5.69,0,1,1,5.84-5.7A5.57,5.57,0,0,1,179.89,46.08Z"/><path class="cls-2" d="M65.61,63.7a37.87,37.87,0,1,1-.18-51.85l-4,3.73A32.44,32.44,0,1,0,61.63,60Z"/><path class="cls-2" d="M20.07,51.12H39.58V45.58h-11l5.71-5.7c2.75-2.75,4.79-5.79,4.79-9.33,0-5.84-4.62-9.17-9.63-9.17a10.27,10.27,0,0,0-9.63,6.17l4.84,2.83A5.3,5.3,0,0,1,29.58,27a3.58,3.58,0,0,1,3.79,3.79c0,2-1.46,3.88-3.33,5.84l-10,10.24Z"/><path class="cls-2" d="M59.2,30.3V41.54c0,3.63-2,5.17-4.58,5.17-2.42,0-4.13-1.46-4.13-4.29V30.3H45.11V43.08c0,5.54,3.46,8.63,7.88,8.63a7.08,7.08,0,0,0,6.21-2.92v2.33h5.38V30.3Z"/></g></g></svg>