<svg xmlns="http://www.w3.org/2000/svg" viewBox="0 0 34.21 34.22"><defs><style>.cls-1{fill:#fa5;}</style></defs><g id="Layer_2" data-name="Layer 2"><g id="Option_1" data-name="Option 1"><path class="cls-1" d="M3.24,14.46a.66.66,0,1,1,.65.55A.66.66,0,0,1,3.24,14.46Z"/><path class="cls-1" d="M9.38,11.26A4.72,4.72,0,1,1,14.1,16,4.72,4.72,0,0,1,9.38,11.26Zm1.34,0A3.38,3.38,0,1,0,14.1,7.88,3.39,3.39,0,0,0,10.72,11.26Z"/><path class="cls-1" d="M4.24,16.83a.68.68,0,0,0-.41.86,10.91,10.91,0,0,0,5,5.93h0A10.85,10.85,0,0,0,14.1,25h0a10.94,10.94,0,0,0,5.25-1.35h0A10.89,10.89,0,0,0,14.09,3.22h0A10.9,10.9,0,0,0,3.81,10.54.67.67,0,0,0,5.08,11a9.53,9.53,0,0,1,9-6.42h0a9.55,9.55,0,0,1,6.76,16.29,8.89,8.89,0,0,1-1.15,1v-3a2,2,0,0,0-2-2H10.51a2,2,0,0,0-2,2v3a9.67,9.67,0,0,1-3.4-4.57.67.67,0,0,0-.85-.42Zm14.13,5.81a9.61,9.61,0,0,1-8.54,0V18.82a.69.69,0,0,1,.68-.68h7.17a.69.69,0,0,1,.69.68v3.82Z"/><path class="cls-1" d="M14.1,0a14.1,14.1,0,1,0,8.2,25.56l1.29,1.28-.32.32a.68.68,0,0,0,0,.95l1.94,1.94h0l3.17,3.17a3.42,3.42,0,0,0,4.83,0,3.43,3.43,0,0,0,0-4.84l-3.16-3.16h0L28.1,23.27a.68.68,0,0,0-.94,0l-.32.32-1.28-1.28A14.1,14.1,0,0,0,14.1,0ZM26.63,29.58l1.47-1.47,1.47-1.48,2.7,2.7a2.08,2.08,0,0,1-1.48,3.55,2.06,2.06,0,0,1-1.47-.61Zm-1.94-1.94,2.94-2.95,1,1-1.48,1.47-1.47,1.47Zm-1.33-2.91a14.66,14.66,0,0,0,1.36-1.37l1.17,1.18-.68.68-.68.68ZM1.34,14.1A12.76,12.76,0,1,1,14.1,26.87,12.77,12.77,0,0,1,1.34,14.1Z"/></g></g></svg>