<?xml version="1.0" encoding="utf-8"?>
<!-- Generator: Adobe Illustrator 19.0.0, SVG Export Plug-In . SVG Version: 6.00 Build 0)  -->
<svg version="1.1" id="Layer_1" xmlns="http://www.w3.org/2000/svg" xmlns:xlink="http://www.w3.org/1999/xlink" x="0px" y="0px"
	 viewBox="0 0 115.4 115.4" style="enable-background:new 0 0 115.4 115.4;" xml:space="preserve">
<style type="text/css">
	.st0{fill-rule:evenodd;clip-rule:evenodd;}
</style>
<g>
	<path class="st0" d="M9.7,0h81.8c2.7,0,5.1,1.1,6.9,2.8s2.8,4.2,2.8,6.9v15.4h-6V9.7c0-1-0.4-1.9-1.1-2.6C93.5,6.4,92.5,6,91.5,6
		H9.7c-1,0-1.9,0.4-2.6,1.1h0C6.4,7.8,6,8.7,6,9.7v96c0,1,0.4,1.9,1.1,2.6l0,0c0.7,0.7,1.6,1.1,2.6,1.1h76.6l8.9-10.9v-8.8h6v8
		c0,2.7-0.2,3.4-2.1,5.4l-11.4,12.3h-78c-2.7,0-5.1-1.1-6.8-2.8h0c-1.8-1.8-2.8-4.2-2.8-6.9v-96C0,7,1.1,4.6,2.9,2.9l0,0
		C4.6,1.1,7,0,9.7,0z"/>
	<path class="st0" d="M91,100.6l-6.3,0l0,7.8L91,100.6L91,100.6z M84.3,96.1l12.8,0c0.8,0,1.6,0.2,2.2,0.8c1.2,1.1,1.2,3,0.1,4.2
		l-12.6,13.2l0,0c-0.5,0.6-1.3,0.9-2.2,0.9l-1.4,0c-0.1,0-0.2,0-0.3,0c-1.7,0-3-1.3-3-3v-11.3c0-4.4,3.9-5,3.9-5l0,0
		C84,96.1,84.1,96.1,84.3,96.1z"/>
	<g>
		<rect x="27.8" y="16.9" class="st0" width="52.7" height="6"/>
		<rect x="15.1" y="16.9" class="st0" width="6.2" height="6"/>
	</g>
	<g>
		<path class="st0" d="M93,36.9h10.7c1.8,0,3.4,0.7,4.6,1.9v0c1.2,1.2,1.9,2.8,1.9,4.6v7.1c0,1.8-0.7,3.4-1.9,4.6v0
			c-1.2,1.2-2.8,1.9-4.6,1.9H93c-1.8,0-3.4-0.7-4.6-1.9v0c-0.2-0.2-0.4-0.5-0.6-0.7h5.9V51h10c0.1,0,0.2-0.1,0.3-0.1l0,0
			c0.1-0.1,0.1-0.2,0.1-0.3v-7.1c0-0.1-0.1-0.2-0.1-0.3l0,0c-0.1-0.1-0.2-0.1-0.3-0.1H93c-0.1,0-0.2,0.1-0.3,0.1l0,0
			c-0.1,0.1-0.1,0.2-0.1,0.3v2.3h-6v-2.3c0-1.8,0.7-3.4,1.9-4.6v0C89.6,37.7,91.3,36.9,93,36.9z"/>
		<path class="st0" d="M91.2,51h13.1c3,0,5.8,1.2,7.8,3.2c2,2,3.2,4.8,3.2,7.8v5.4c0,3-1.2,5.8-3.2,7.8c-2,2-4.8,3.2-7.8,3.2H91.2
			c-3,0-5.8-1.2-7.8-3.2c-2-2-3.2-4.8-3.2-7.8v-5.4c0-3,1.2-5.8,3.2-7.8C85.4,52.3,88.2,51,91.2,51L91.2,51z M104.3,57H91.2
			c-1.4,0-2.6,0.6-3.6,1.5c-0.9,0.9-1.5,2.2-1.5,3.6v5.4c0,1.4,0.6,2.6,1.5,3.6c0.9,0.9,2.2,1.5,3.6,1.5h13.1c1.4,0,2.6-0.6,3.6-1.5
			c0.9-0.9,1.5-2.2,1.5-3.6v-5.4c0-1.4-0.6-2.6-1.5-3.6C107,57.6,105.7,57,104.3,57z"/>
	</g>
	<g>
		<rect x="27.8" y="42.1" class="st0" width="38.1" height="6"/>
		<rect x="15.1" y="42.1" class="st0" width="6.2" height="6"/>
	</g>
	<g>
		<rect x="27.8" y="67.3" class="st0" width="38" height="6"/>
		<rect x="15.1" y="67.3" class="st0" width="6.2" height="6"/>
	</g>
	<g>
		<rect x="27.8" y="92.5" class="st0" width="37.9" height="6"/>
		<rect x="15.1" y="92.5" class="st0" width="6.2" height="6"/>
	</g>
</g>
</svg>
