<svg xmlns="http://www.w3.org/2000/svg" viewBox="0 0 43.1 43.1"><defs><style>.cls-1{fill:#fa5;}</style></defs><g id="Layer_2" data-name="Layer 2"><g id="Layer_8" data-name="Layer 8"><path class="cls-1" d="M21.55,0A21.55,21.55,0,1,0,43.1,21.55,21.55,21.55,0,0,0,21.55,0ZM32.18,18.15c0,.22,0,.45,0,.67A14.64,14.64,0,0,1,9.64,31.16a10.14,10.14,0,0,0,1.23.07,10.33,10.33,0,0,0,6.4-2.2,5.14,5.14,0,0,1-4.81-3.58,5.07,5.07,0,0,0,1,.09,5,5,0,0,0,1.35-.18,5.15,5.15,0,0,1-4.13-5.05v-.06a5.14,5.14,0,0,0,2.33.64,5.15,5.15,0,0,1-2.29-4.29,5.2,5.2,0,0,1,.7-2.59A14.64,14.64,0,0,0,22,19.4a5.08,5.08,0,0,1-.14-1.18,5.16,5.16,0,0,1,8.92-3.52,10.36,10.36,0,0,0,3.27-1.25,5.19,5.19,0,0,1-2.27,2.85,10.46,10.46,0,0,0,3-.81A10.32,10.32,0,0,1,32.18,18.15Z"/></g></g></svg>