<svg width="36" height="32" viewBox="0 0 36 32" fill="#485465" xmlns="http://www.w3.org/2000/svg">
<path d="M35.5562 28.4445C35.5562 29.4258 34.7615 30.2223 33.7784 30.2223C32.7952 30.2223 32.0006 29.4258 32.0006 28.4445C32.0006 25.504 29.6076 23.111 26.6671 23.111C25.4529 23.111 24.2991 23.527 23.3675 24.2648C24.3346 26.0355 24.8893 28.0658 24.8893 30.2223C24.8893 31.2036 24.0946 32.0001 23.1115 32.0001C22.1284 32.0001 21.3337 31.2036 21.3337 30.2223C21.3337 25.3208 17.3461 21.3332 12.4447 21.3332C7.54324 21.3332 3.55562 25.3208 3.55562 30.2223C3.55562 31.2036 2.76094 32.0001 1.77781 32.0001C0.79468 32.0001 0 31.2036 0 30.2223C0 23.3599 5.5841 17.7776 12.4447 17.7776C15.8705 17.7776 18.9745 19.1696 21.227 21.415C22.7719 20.2203 24.6742 19.5554 26.6671 19.5554C31.5685 19.5554 35.5562 23.543 35.5562 28.4445M26.6664 10.6671C27.6477 10.6671 28.4442 11.4654 28.4442 12.4449C28.4442 13.4245 27.6477 14.2228 26.6664 14.2228C25.685 14.2228 24.8885 13.4245 24.8885 12.4449C24.8885 11.4654 25.685 10.6671 26.6664 10.6671M26.6677 17.7783C29.6082 17.7783 32.0011 15.3854 32.0011 12.4449C32.0011 9.50436 29.6082 7.11143 26.6677 7.11143C23.7272 7.11143 21.3343 9.50436 21.3343 12.4449C21.3343 15.3854 23.7272 17.7783 26.6677 17.7783M12.4437 3.55595C14.4046 3.55595 15.9993 5.15065 15.9993 7.11157C15.9993 9.0725 14.4046 10.6672 12.4437 10.6672C10.4828 10.6672 8.88808 9.0725 8.88808 7.11157C8.88808 5.15065 10.4828 3.55595 12.4437 3.55595M12.4455 14.2225C16.3674 14.2225 19.5568 11.0331 19.5568 7.11124C19.5568 3.18939 16.3674 0 12.4455 0C8.52368 0 5.33429 3.18939 5.33429 7.11124C5.33429 11.0331 8.52368 14.2225 12.4455 14.2225" fill="#485465"/>
</svg>
