<svg width="28" height="35" viewBox="0 0 28 35" fill="#485465" xmlns="http://www.w3.org/2000/svg">
<path d="M26.8902 32.1666C26.8902 33.1786 26.0636 34 25.0409 34C24.0182 34 23.1916 33.1786 23.1916 32.1666C23.1916 27.1121 19.0436 22.9998 13.9451 22.9998C8.84658 22.9998 4.6986 27.1121 4.6986 32.1666C4.6986 33.1786 3.87196 34 2.8493 34C1.82664 34 1 33.1786 1 32.1666C1 25.0899 6.80865 19.3331 13.9451 19.3331C21.0815 19.3331 26.8902 25.0899 26.8902 32.1666ZM13.9453 4.66672C15.985 4.66672 17.6439 6.31124 17.6439 8.33344C17.6439 10.3556 15.985 12.0002 13.9453 12.0002C11.9055 12.0002 10.2467 10.3556 10.2467 8.33344C10.2467 6.31124 11.9055 4.66672 13.9453 4.66672ZM13.9459 15.6669C18.0254 15.6669 21.3431 12.3778 21.3431 8.33343C21.3431 4.28904 18.0254 1 13.9459 1C9.8663 1 6.54866 4.28904 6.54866 8.33343C6.54866 12.3778 9.8663 15.6669 13.9459 15.6669Z" fill="#485465"/>
</svg>
