<svg xmlns="http://www.w3.org/2000/svg" viewBox="0 0 43.74 42.16"><defs><style>.cls-1{fill:#fa5;}</style></defs><g id="Layer_2" data-name="Layer 2"><g id="Option_1" data-name="Option 1"><path class="cls-1" d="M41.2,2.57H22.57V.7a.7.7,0,1,0-1.4,0V2.57H2.54a2.54,2.54,0,1,0,0,5.07h.52v22.7a.7.7,0,0,0,.7.7H21.17v2.44L14,40.67a.69.69,0,0,0,0,1,.7.7,0,0,0,1,0l6.2-6.2v6a.7.7,0,0,0,1.4,0V35.52l6.14,6.14a.7.7,0,0,0,.49.2.74.74,0,0,0,.5-.2.71.71,0,0,0,0-1l-7.13-7.13V31H39.86a.7.7,0,0,0,.7-.7V7.64h.64a2.54,2.54,0,1,0,0-5.07Zm-2,27.07H4.46v-22h34.7Zm2-23.4H2.54A1.14,1.14,0,0,1,2.54,4H41.2a1.14,1.14,0,1,1,0,2.28Z"/><path class="cls-1" d="M14.48,25.46a7.2,7.2,0,1,0-7.2-7.2A7.21,7.21,0,0,0,14.48,25.46Zm.7-12.95a5.79,5.79,0,0,1,5.05,5H15.18Zm-1.4,0v5.75a.7.7,0,0,0,.7.7h5.75a5.8,5.8,0,1,1-6.45-6.45Z"/><path class="cls-1" d="M25.6,14.53h9.74a.7.7,0,1,0,0-1.4H25.6a.7.7,0,1,0,0,1.4Z"/><path class="cls-1" d="M25.6,19h9.74a.7.7,0,0,0,0-1.4H25.6a.7.7,0,1,0,0,1.4Z"/><path class="cls-1" d="M25.6,23.39h9.74a.7.7,0,1,0,0-1.39H25.6a.7.7,0,1,0,0,1.39Z"/></g></g></svg>