<?xml version="1.0" encoding="utf-8"?>
<!-- Generator: Adobe Illustrator 23.0.6, SVG Export Plug-In . SVG Version: 6.00 Build 0)  -->
<svg version="1.1" id="Layer_1" xmlns="http://www.w3.org/2000/svg" xmlns:xlink="http://www.w3.org/1999/xlink" x="0px" y="0px"
	 viewBox="0 0 24 24" style="enable-background:new 0 0 24 24;" xml:space="preserve">

<g>
	<path d="M14.9,20.3h7.6c0.3,0,0.5,0.2,0.5,0.5v0.3c0,0.3-0.2,0.5-0.5,0.5H7.2c-0.5,0-1.1-0.3-1.5-0.6l-4.1-4.1
		c-0.3-0.3-0.6-1-0.6-1.5C1,15,1.3,14.3,1.6,14l11-11c0.3-0.3,1-0.6,1.5-0.6s1.1,0.3,1.5,0.6l6.9,6.9c0.3,0.3,0.6,1,0.6,1.5
		c0,0.5-0.3,1.1-0.6,1.5L14.9,20.3z M12.7,20.3L12.7,20.3c0.2,0,0.4-0.1,0.5-0.2l2.3-2.3L7.6,9.9l-5,5c-0.1,0.1-0.2,0.3-0.2,0.5
		s0.1,0.4,0.2,0.5L6.7,20c0.1,0.1,0.3,0.2,0.5,0.2h0H12.7z M8.6,9l7.8,7.8l5-5c0.1-0.1,0.2-0.3,0.2-0.5s-0.1-0.4-0.2-0.5L14.5,4
		c-0.1-0.1-0.3-0.2-0.5-0.2S13.7,3.8,13.6,4L8.6,9z"/>
</g>
</svg>
