<?xml version="1.0" encoding="utf-8"?>
<!-- Generator: Adobe Illustrator 23.0.6, SVG Export Plug-In . SVG Version: 6.00 Build 0)  -->
<svg version="1.1" id="Layer_1" xmlns="http://www.w3.org/2000/svg" xmlns:xlink="http://www.w3.org/1999/xlink" x="0px" y="0px"
	 viewBox="0 0 24 24" style="enable-background:new 0 0 24 24;" xml:space="preserve">

<g>
	<path d="M22.2,7.3L7.1,22.4L2.1,23c-0.7,0.1-1.2-0.5-1.1-1.1l0.5-4.9L16.7,1.8c1.1-1.1,2.8-1.1,3.9,0l1.6,1.6
		C23.3,4.5,23.3,6.2,22.2,7.3z M7.3,20.3v-1.5H5.2v-2.1H3.7l-0.9,0.9l-0.3,2.5l1.3,1.3l2.5-0.3L7.3,20.3z M8.1,15l7.8-7.8l-1.3-1.3
		l-9.6,9.6h1.5v2.1h2.1v1.5l9.6-9.6l-1.3-1.3L9,15.9c-0.3,0.3-0.7,0.3-1,0C7.8,15.7,7.8,15.2,8.1,15z M21.2,4.4l-1.6-1.6
		c-0.5-0.5-1.4-0.5-1.9,0l-2.1,2.1l3.6,3.6l2.1-2.1C21.8,5.8,21.8,4.9,21.2,4.4z"/>
</g>
</svg>
