<?xml version="1.0" encoding="utf-8"?>
<!-- Generator: Adobe Illustrator 23.0.6, SVG Export Plug-In . SVG Version: 6.00 Build 0)  -->
<svg version="1.1" id="Layer_1" xmlns="http://www.w3.org/2000/svg" xmlns:xlink="http://www.w3.org/1999/xlink" x="0px" y="0px"
	 viewBox="0 0 24 24" style="enable-background:new 0 0 24 24;" xml:space="preserve">
<style type="text/css">
	.st0{enable-background:new    ;}
</style>
<g class="st0">
	<path d="M20,12.4l-8.2,8.2c-0.7,0.7-1.6,1-2.5,1s-1.8-0.3-2.5-1l-4.3-4.3c-1.4-1.4-1.4-3.6,0-5l3.9-3.9L2.6,3.6
		c-0.1-0.1-0.1-0.3,0-0.4L3,2.8c0.1-0.1,0.3-0.1,0.4,0l3.7,3.7L10.6,3c0.2-0.2,0.5-0.3,0.8-0.3c0.3,0,0.6,0.1,0.8,0.3l7.7,7.7
		C20.4,11.2,20.4,12,20,12.4z M19.1,11.6l-7.7-7.7h0L8,7.3l3.3,3.3c0.2,0.2,0.2,0.6,0,0.8c-0.2,0.2-0.6,0.2-0.8,0L7.1,8.2l-3.9,3.9
		c-0.4,0.4-0.6,0.8-0.7,1.3h14.8L19.1,11.6z M16.1,14.6H2.6c0.1,0.3,0.3,0.6,0.6,0.9l4.3,4.3c0.4,0.4,1,0.7,1.7,0.7
		c0.6,0,1.2-0.2,1.7-0.7L16.1,14.6z M22.7,19.3c0,1.3-1.1,2.4-2.4,2.4s-2.4-1.1-2.4-2.4c0-1.3,2.4-4.8,2.4-4.8S22.7,18,22.7,19.3z
		 M21.5,19.3c0-0.4-0.5-1.4-1.2-2.5c-0.7,1.2-1.2,2.2-1.2,2.6c0,0.7,0.5,1.2,1.2,1.2C21,20.5,21.5,20,21.5,19.3z"/>
</g>
</svg>
