<?xml version="1.0" encoding="utf-8"?>
<!-- Generator: Adobe Illustrator 23.0.6, SVG Export Plug-In . SVG Version: 6.00 Build 0)  -->
<svg version="1.1" id="Layer_1" xmlns="http://www.w3.org/2000/svg" xmlns:xlink="http://www.w3.org/1999/xlink" x="0px" y="0px"
	 viewBox="0 0 24 24" style="enable-background:new 0 0 24 24;" xml:space="preserve">

<g>
	<path d="M20.9,6.5v11h1c0.6,0,1.1,0.5,1.1,1.1v3.3c0,0.6-0.5,1.1-1.1,1.1h-3.3c-0.6,0-1.1-0.5-1.1-1.1v-1h-11v1
		C6.5,22.5,6,23,5.4,23H2.1C1.5,23,1,22.5,1,21.9v-3.3c0-0.6,0.5-1.1,1.1-1.1h1v-11h-1C1.5,6.5,1,6,1,5.4V2.1C1,1.5,1.5,1,2.1,1h3.3
		C6,1,6.5,1.5,6.5,2.1v1h11v-1C17.5,1.5,18,1,18.6,1h3.3C22.5,1,23,1.5,23,2.1v3.3c0,0.6-0.5,1.1-1.1,1.1H20.9z M5.1,5.1V2.4H2.4
		v2.8H5.1z M5.1,18.9H2.4v2.8h2.8V18.9z M19.6,6.5h-1c-0.6,0-1.1-0.5-1.1-1.1v-1h-11v1C6.5,6,6,6.5,5.4,6.5h-1v11h1
		c0.6,0,1.1,0.5,1.1,1.1v1h11v-1c0-0.6,0.5-1.1,1.1-1.1h1V6.5z M18.9,5.1h2.8V2.4h-2.8V5.1z M18.9,18.9v2.8h2.8v-2.8H18.9z"/>
</g>
</svg>
