<?xml version="1.0" encoding="utf-8"?>
<!-- Generator: Adobe Illustrator 23.0.6, SVG Export Plug-In . SVG Version: 6.00 Build 0)  -->
<svg version="1.1" id="Layer_1" xmlns="http://www.w3.org/2000/svg" xmlns:xlink="http://www.w3.org/1999/xlink" x="0px" y="0px"
	 viewBox="0 0 24 24" style="enable-background:new 0 0 24 24;" xml:space="preserve">
<style type="text/css">
	.st0{enable-background:new    ;}
</style>
<g class="st0">
	<path d="M22.8,22.6l-0.4,0.4c-0.2,0.2-0.5,0.2-0.7,0l-5.5-5.5c-0.1-0.1-0.2-0.2-0.2-0.4v-0.4c-1.6,1.5-3.7,2.4-6.1,2.4
		c-4.9,0-8.9-4-8.9-8.9s4-8.9,8.9-8.9c4.9,0,8.9,4,8.9,8.9c0,2.3-0.9,4.5-2.4,6.1h0.4c0.1,0,0.3,0.1,0.4,0.2l5.5,5.5
		C23.1,22.1,23.1,22.4,22.8,22.6z M17.5,10.2c0-4.2-3.4-7.6-7.6-7.6S2.4,6,2.4,10.2s3.4,7.6,7.6,7.6S17.5,14.3,17.5,10.2z"/>
</g>
</svg>
