<?xml version="1.0" encoding="utf-8"?>
<!-- Generator: Adobe Illustrator 23.0.6, SVG Export Plug-In . SVG Version: 6.00 Build 0)  -->
<svg version="1.1" id="Layer_1" xmlns="http://www.w3.org/2000/svg" xmlns:xlink="http://www.w3.org/1999/xlink" x="0px" y="0px"
	 viewBox="0 0 24 24" style="enable-background:new 0 0 24 24;" xml:space="preserve">

<g>
	<path d="M23.2,1v3.4h-5.4C17.5,6,17.3,7.9,17.1,10c-0.2,2.1-0.3,3.8-0.3,5.1c0,1.4,0.3,2.4,0.8,3.1c0.6,0.6,1.2,1,2.1,1
		c0.7,0,1.3-0.2,1.7-0.7c0.5-0.4,0.7-1.1,0.8-1.9h0.8c-0.3,2.3-0.9,4-1.8,5c-0.9,1-1.9,1.5-3,1.5c-1.2,0-2.1-0.5-2.9-1.6
		c-0.8-1.1-1.2-3.2-1.2-6.4c0-1.4,0.1-3,0.3-4.8c0.3-2.8,0.5-4.8,0.6-5.8H9.7l-0.5,7c-0.4,3.8-0.9,6.7-1.5,8.7
		c-0.3,1.1-0.8,1.9-1.4,2.5C6,22.9,5.7,23,5.2,23c-0.6,0-1.1-0.2-1.5-0.6c-0.4-0.4-0.6-0.8-0.6-1.4c0-0.4,0.1-0.8,0.2-1.2
		c0.1-0.2,0.5-0.9,1.3-1.9c0.5-0.7,0.9-1.5,1.2-2.3c0.3-0.8,0.5-2.1,0.8-4c0-0.3,0.2-2.7,0.5-7.3H6.5c-1.1,0-2,0.2-2.7,0.7
		C3.1,5.5,2.4,6.4,1.6,7.7H0.8c0.5-1.9,1.1-3.3,1.9-4.3c0.8-1,1.5-1.6,2.2-1.9C5.6,1.1,6.8,1,8.3,1H23.2z"/>
</g>
</svg>
