<?xml version="1.0" encoding="utf-8"?>
<!-- Generator: Adobe Illustrator 25.2.0, SVG Export Plug-In . SVG Version: 6.00 Build 0)  -->
<svg version="1.1" id="Layer_1" xmlns="http://www.w3.org/2000/svg" xmlns:xlink="http://www.w3.org/1999/xlink" x="0px" y="0px"
	 viewBox="0 0 526.7 385.2" style="enable-background:new 0 0 526.7 385.2;" xml:space="preserve">
<style type="text/css">
	.st0{fill-rule:evenodd;clip-rule:evenodd;fill:#FFFFFF;}
	.st1{fill-rule:evenodd;clip-rule:evenodd;fill:#FFE5D2;}
	.st2{fill-rule:evenodd;clip-rule:evenodd;fill:#FF7B5B;}
	.st3{fill-rule:evenodd;clip-rule:evenodd;fill:#D7D4D4;}
	.st4{fill-rule:evenodd;clip-rule:evenodd;fill:#F5F3F3;}
	.st5{fill-rule:evenodd;clip-rule:evenodd;fill:#775298;}
	.st6{fill-rule:evenodd;clip-rule:evenodd;fill:#F3A683;}
	.st7{fill-rule:evenodd;clip-rule:evenodd;fill:#112129;}
	.st8{fill-rule:evenodd;clip-rule:evenodd;fill:#22343D;}
	.st9{fill-rule:evenodd;clip-rule:evenodd;fill:#FFC6B2;}
	.st10{fill-rule:evenodd;clip-rule:evenodd;fill:#FFB2A0;}
	.st11{fill-rule:evenodd;clip-rule:evenodd;fill:#FFA192;}
	.st12{fill-rule:evenodd;clip-rule:evenodd;fill:#654287;}
</style>
<path id="Path_8182" class="st0" d="M319,28.7l-6.2,3.2C312.8,31.9,320.2,37.4,319,28.7z"/>
<path id="Path_8183" class="st1" d="M288.2,367.5C195.6,358,119,289.2,85.4,201.5S178.3,39,269.3,34.8S430.7,112.6,430.7,206
	S380.8,377.1,288.2,367.5z"/>
<path id="Path_8184" class="st0" d="M390.8,268.6c0.1,0,0.5,0.6,1.2,1.8c1,1.8,1.8,3.6,2.4,5.6c1.7,4.8,2.7,12,2.1,19.8
	c-0.6,6.6-1.9,13.2-3.8,19.5c-1.4,4.9-2.4,7.8-2.6,7.8c-0.2-0.1,0.5-3.1,1.7-8c1.6-6.4,2.7-12.8,3.3-19.4c0.6-6.5,0-13.1-1.6-19.4
	C392.2,271.5,390.6,268.8,390.8,268.6z"/>
<path id="Path_8185" class="st0" d="M395.6,229.6c0.1,0,0.7,1,1.6,3c1,2,2.3,4.8,3.9,8.4c4.2,9.2,7.7,18.8,10.4,28.6
	c1.4,5.4,2.5,11,3.1,16.6c0.5,4.6,0.6,9.2,0.3,13.8c-0.2,3.1-0.6,6.2-1.2,9.2c-0.2,1.1-0.5,2.2-0.9,3.3c-0.3-0.1,0.9-4.8,1.1-12.5
	c0.3-7.7-0.7-18.5-3.7-29.9c-3-11.4-7.1-21.4-10-28.6c-1.5-3.6-2.6-6.5-3.5-8.5C395.9,230.8,395.5,229.6,395.6,229.6z"/>
<path id="Path_8186" class="st0" d="M220.2,275.4c0.2,0.2-1.4,1.7-3.5,4.6c-0.6,0.8-1.1,1.6-1.6,2.4c-0.6,0.9-1.1,1.9-1.6,2.9
	c-1.1,2.3-2,4.6-2.8,7.1c-0.7,2.4-1.1,4.9-1.4,7.5c-0.1,1.2-0.2,2.3-0.1,3.3c0,1,0,1.9,0.1,2.9c0.2,3.5,0.8,5.7,0.6,5.8
	c-0.1,0.1-1-2-1.6-5.7c-0.1-1-0.2-2-0.3-3c-0.1-1.1,0-2.2,0-3.4c0.2-2.6,0.6-5.2,1.3-7.8c0.7-2.5,1.7-5,3-7.3c0.5-1,1.1-2,1.8-2.9
	c0.6-0.8,1.1-1.6,1.8-2.4C218.2,276.6,220.1,275.3,220.2,275.4z"/>
<path id="Path_8187" class="st0" d="M223.9,287.9c0.1,0.2-0.8,0.9-1.9,2.2c-0.7,0.8-1.3,1.6-1.8,2.5c-0.6,1.1-1.2,2.2-1.6,3.4
	c-0.4,1.2-0.7,2.4-0.8,3.7c-0.1,1-0.1,2.1-0.1,3.1c0.1,1.8,0.4,2.9,0.2,2.9c-0.1,0.1-0.8-0.9-1.2-2.8c-0.2-1.1-0.3-2.2-0.2-3.3
	c0.2-2.8,1.1-5.4,2.6-7.7c0.6-0.9,1.4-1.7,2.2-2.5C222.7,288.2,223.8,287.8,223.9,287.9z"/>
<path id="Path_8188" class="st0" d="M171.9,171.4c0.1-0.1,0.7,0.6,1.8,1.8c0.7,0.7,1.3,1.5,1.9,2.3c0.7,0.9,1.5,1.9,2.3,3.1
	c0.4,0.6,0.8,1.2,1.3,1.9c0.4,0.7,0.8,1.4,1.3,2.1c0.9,1.5,1.7,3.1,2.6,4.8c3.7,7.5,6,15.6,7,23.9c0.2,1.9,0.4,3.7,0.4,5.4
	c0,0.9,0.1,1.7,0.1,2.5c0,0.8,0,1.6,0,2.3c0,1.5-0.2,2.8-0.3,3.9c-0.1,1-0.2,2-0.4,2.9c-0.3,1.6-0.5,2.5-0.6,2.5
	c-0.2,0,0.2-3.6,0.2-9.3c0-0.7,0-1.5,0-2.2c0-0.8-0.1-1.6-0.1-2.4c-0.1-1.7-0.3-3.5-0.5-5.4c-0.6-4.1-1.4-8.1-2.5-12
	c-1.2-3.9-2.6-7.8-4.3-11.5c-0.8-1.7-1.6-3.3-2.4-4.8c-0.4-0.7-0.8-1.5-1.2-2.1c-0.4-0.7-0.8-1.3-1.2-1.9
	C174,174.3,171.7,171.6,171.9,171.4z"/>
<path id="Path_8189" class="st0" d="M187.9,178.1c0.1-0.1,1.7,1.4,3.8,4.4c1.2,1.7,2.3,3.6,3.2,5.5c1.1,2.3,2.1,4.8,2.8,7.2
	c0.7,2.5,1.2,5,1.5,7.6c0.2,2.1,0.3,4.2,0.2,6.3c-0.1,3.6-0.7,5.8-0.8,5.8c-0.2,0,0-2.2-0.2-5.8c-0.1-2.1-0.3-4.1-0.5-6.2
	c-0.7-5-2.1-9.9-4.2-14.5c-0.9-1.9-1.8-3.7-2.8-5.5C189,180,187.7,178.3,187.9,178.1z"/>
<path id="Path_8190" class="st2" d="M132.1,294.8l-1.2-2.5l-34.1,26.4l14.9,24.4l33.9-29L132.1,294.8z"/>
<path id="Path_8191" class="st3" d="M98.2,319.3l13.1,22.9l0.8-0.4l-11.6-21.4L98.2,319.3z"/>
<path id="Path_8192" class="st4" d="M131.4,294.3l-33.2,24.9c0.2,0.4,0.5,0.7,1,0.9c0.4,0.2,0.9,0.3,1.3,0.2l34.9-24.2
	c-1-0.2-1.9-0.6-2.7-1C132.3,294.8,131.9,294.6,131.4,294.3z"/>
<path id="Path_8193" class="st2" d="M136.3,295.2l-36.4,24.6l11.8,22.7l1.9,3.1l36.4-27.3c0,0-3.8-5.8-6.1-9.3s-6.8-11.8-7.1-12.3
	C136.6,296.3,136.4,295.7,136.3,295.2z"/>
<path id="Path_8194" class="st5" d="M432.8,125.3l30.6,20.7l-9.9,19.1l-1.6,2.6l-30.6-22.9c0,0,3.2-4.9,5.1-7.8
	c1.9-2.9,5.7-9.9,5.9-10.3C432.6,126.2,432.7,125.7,432.8,125.3z"/>
<path id="Path_8195" class="st2" d="M91.4,85.1c-1.3,0.9-1.7,2.6-1.1,4.1c1.1,2.5,5.8,10,12.2,9.8c0.3,0-8.1-13.8-8.1-13.8H91.4z"/>
<path id="Path_8196" class="st5" d="M81.6,223.4c0,0-8-7.2-10.6-5.9c-3.1,1.6-21.1,19.4-20.3,27.8c0.3,3.4,4.2,0.5,11.3-6.9
	c4.1-4.3,10.2-6,15.9-4.2L81.6,223.4z"/>
<path id="Path_8197" class="st5" d="M101.1,235.6l-9.7-5.9c0,0-25,23.8-21.1,27c3,2.4,4.7,0.2,11.7-7.1c7-7.4,15.9-3.1,15.9-3.1
	L101.1,235.6z"/>
<path id="Path_8198" class="st6" d="M160.1,157.3l1.8,26.1l-40.2-10.6L160.1,157.3z"/>
<path id="Path_8199" class="st7" d="M121.7,173.6c0,0,35.2,2.2,39.9,0.7c0,0,6.9,68.5-5.4,75.9c-12.2,7.4-39.7-3.4-39.7-3.4
	l7.4-14.8l16-1.1v-26.4l-1.1,0.3L121.7,173.6z"/>
<path id="Path_8200" class="st8" d="M77.6,220.4c0,0-8.8,3.7-6,12.7c0,0,30.2,24,44.9,18.5c8.2-3.1,17.1-26.8,23.3-47l21.8-30.2
	c0,0-10.3,0.5-13.7,0.5c-6.6,0-26.2-1.2-26.2-1.2s-10.2,54.4-13.9,55.7C104.1,230.7,77.6,220.4,77.6,220.4z"/>
<path id="Path_8201" class="st9" d="M129.9,105.4c0,0,21.1-20.1,24.7-25.3s11.5-23,21.1-30.4l-4.7-10c0,0,2.9-1.6,4.7,2.6
	c0,0,6.8-13.7,8.3-13.5c1.6,0.3-3.1,10.6-3.1,10.6s6.5-9.5,8.3-9.2c1.8,0.3-4.7,10.7-4.7,10.7s7.3-8.6,8.3-7.5
	c1,1.1-5.7,7.5-5.7,7.5s7.3-4.2,8.1-2.8c0.8,1.4-7.3,5.1-7.3,5.1s-0.8,6.1-5.7,8.7c0,0-9.8,26.8-18.6,35.5l-28.4,30L129.9,105.4z"/>
<path id="Path_8202" class="st9" d="M104.7,115.8c0,0-20,21.2-25.2,24.8c-5.2,3.6-22.8,11.4-30.1,21.1l-9.8-4.8c0,0-1.6,2.9,2.6,4.8
	c0,0-13.6,6.7-13.3,8.3c0.2,1.6,10.4-3.1,10.4-3.1s-9.4,6.5-9.2,8.4c0.2,1.8,10.6-4.6,10.6-4.6S32,178,33.1,179
	c1,1.1,7.5-5.7,7.5-5.7s-4.2,7.3-2.9,8.2c1.4,0.8,5.1-7.3,5.1-7.3s6-0.7,8.6-5.7c0,0,25.1-10.1,33.7-19l31.2-22.4L104.7,115.8z"/>
<path id="Path_8203" class="st0" d="M112.2,107.4l-10.1,10l2.6,11.3c0,0,10,24.2,11.5,30.2c2.3,9.2-1.4,23.2-1.4,23.2
	s16.9-1.4,32.2-1.9s20.4-5.5,20.4-5.5s-13.3-45-22.5-57.5c-9.2-12.6-12.5-16.5-12.5-16.5l-13.5,3L112.2,107.4z"/>
<path id="Path_8204" class="st0" d="M141.8,115.6l10.5-6.8c0,0,1.6-7.3-11.1-15.9l-14.9,9.5L141.8,115.6z"/>
<path id="Path_8205" class="st0" d="M104.2,116.6c-5.8,0.8-16.3,15.7-17.5,15.6c0,0,7.4,12.3,13.3,12.7
	C100,144.9,125.9,113.5,104.2,116.6z"/>
<path id="Path_8206" class="st9" d="M124.6,107c0,0-8.4-6.4-8.1-8.9c0.1-0.6,1.2-1.7,1.5-2.6c1.6-4.9-6.2-17.7-11-20.4
	c-3.8-2.1-2.1-2.3-10.1,2.5S93.5,90.7,97,95c3.4,4.1,7.2,5.8,10.7,6.1l4.9,11.1L124.6,107z"/>
<path id="Path_8207" class="st9" d="M109.5,115.8c-1.6-4,1.4-8.9,6.7-11.1c5.3-2.2,10.9-0.8,12.5,3.2s-3.7,9.9-6.7,11.1
	C118.9,120.2,111,119.7,109.5,115.8z"/>
<path id="Path_8208" class="st9" d="M97,95c0,0-2.7-0.2-3,1.7s5,1.8,7,0.5L97,95z"/>
<path id="Path_8209" class="st2" d="M98.4,96.7c-0.5-3.3-4-5.8-3.8-9c1.7,0,2.7-2.1,2-3.9c-0.3-0.7-0.8-1.3-1.1-2
	c-0.3-0.7-0.4-1.6,0.1-2c0.3-0.2,0.6-0.2,0.9-0.2c2.5-0.3,6.7,0.5,9-0.4c2.2-0.8,4.5-2.4,4.3-5.1c-0.2-2.3-2.2-4.3-4.1-5.7
	c-1.1-0.8-4.2-3-5.3-2.8c-1.8,0.3-2.2,2.7-2.3,4.7c-1.2-1.1-3-1.1-4.2,0c-1.1,1-1.6,2.5-2.1,4s-1,3-2,4c-1,0.9-2.6,1.6-2.4,3.2
	c0.2,1.9,2.7,2.5,3.8,4.1c-0.3-0.4-0.5,2.1-0.3,2.5c0.5,1.3,1.7,2.1,2.5,3.1C95.1,93.4,96,95.5,98.4,96.7z"/>
<path id="Path_8210" class="st0" d="M113.6,89.1l-6.2,3.2C107.4,92.4,114.8,97.8,113.6,89.1z"/>
<path id="Path_8211" class="st10" d="M105.1,90.4c0.3,0.7-0.2,1.6-1.1,2.1s-2,0.4-2.3-0.3c-0.3-0.7,0.2-1.6,1.1-2.1
	C103.7,89.6,104.7,89.7,105.1,90.4z"/>
<path id="Path_8212" class="st10" d="M114.1,84.1c0.3,0.7-0.2,1.6-1.1,2.1s-2,0.4-2.3-0.3c-0.3-0.7,0.2-1.6,1.1-2.1
	C112.7,83.4,113.8,83.5,114.1,84.1z"/>
<path id="Path_8213" class="st2" d="M109.3,88.9c0,0,0.1-0.2,0.4-0.4c0.4-0.2,0.7-0.5,1-0.8c0.3-0.3,0.4-1.1-0.1-1.2
	c-0.5-0.2-1.1,0.4-1.8,1c-0.2,0.1-0.3,0.3-0.5,0.4c-0.2,0.2-0.5,0.3-0.8,0.3c-0.5-0.1-0.9-0.4-1.2-0.8c-0.4-0.6-0.8-1.2-1-1.9
	c-0.3-1.2-0.2-1.9-0.1-1.9c0.1,0,0.1,0.7,0.6,1.8c0.2,0.6,0.6,1.2,1,1.6c0.2,0.3,0.5,0.5,0.7,0.5c0.1,0,0.1,0,0.3-0.2
	c0.2-0.1,0.3-0.3,0.5-0.4c0.3-0.3,0.6-0.6,1-0.8c0.4-0.3,0.9-0.4,1.4-0.3c0.5,0.2,0.8,0.7,0.7,1.2c-0.1,0.4-0.2,0.7-0.5,1
	c-0.4,0.3-0.8,0.5-1.3,0.7C109.4,88.8,109.3,88.9,109.3,88.9z"/>
<path id="Path_8214" class="st11" d="M107.7,101.1c0,0,4,0,6.1-1.3c-1.4,1.6-3.4,2.6-5.4,2.9L107.7,101.1z"/>
<path id="Path_8215" class="st8" d="M109.4,83.1c0,0.2-0.6,0.3-1.2,0.5c-0.6,0.2-1,0.6-1.2,0.5c-0.2-0.1,0.1-0.8,0.9-1.1
	C108.8,82.6,109.5,82.9,109.4,83.1z"/>
<path id="Path_8216" class="st8" d="M101.7,88.3c-0.1-0.1,0.1-0.8,0.7-1.4c0.6-0.7,1.3-0.9,1.4-0.7c0.1,0.2-0.4,0.6-0.9,1.2
	C102.3,87.9,101.8,88.4,101.7,88.3z"/>
<path id="Path_8217" class="st2" d="M98.7,87.3c-0.3-0.2-0.6-1.3,0.7-2.7c1.2-1.4,2.6-1.2,2.8-0.8c0.2,0.4-0.3,0.9-1.4,2.2
	C99.6,87.3,99,87.6,98.7,87.3z"/>
<path id="Path_8218" class="st2" d="M105.2,81.8c-0.2-0.3,0-1.3,1.6-2c1.6-0.7,2.7,0.1,2.7,0.5c0,0.4-0.6,0.7-2,1.3
	S105.4,82.2,105.2,81.8z"/>
<path id="Path_8219" class="st5" d="M445.4,91.6c0.1,0.1-1.6,2.1-5.2,4.2c-9.5,5.6-21.3,5.7-30.9,0.2c-3.6-2.1-5.3-4-5.2-4.1
	c0.1-0.2,2.1,1.4,5.7,3.2c9.5,4.8,20.6,4.7,30-0.2C443.3,93,445.2,91.4,445.4,91.6z"/>
<path id="Path_8220" class="st5" d="M406.5,88.6c-0.1,0.2-2-0.6-5.2-1.3c-1.9-0.4-3.8-0.7-5.7-0.9c-2.2-0.2-4.6-0.4-7.1-0.6
	c-2.5-0.2-5-0.4-7.1-0.7c-2-0.2-3.9-0.6-5.8-1.1c-3.3-0.9-5.1-1.9-5.1-2c0.1-0.2,2,0.5,5.3,1c1.6,0.3,3.6,0.6,5.7,0.8
	c2.2,0.2,4.6,0.4,7.1,0.5c2.5,0.2,5,0.4,7.2,0.7c2,0.3,3.9,0.7,5.8,1.3C404.8,87.3,406.6,88.5,406.5,88.6z"/>
<g id="Group_1125" transform="translate(-970 -3484.996)">
	<path id="Path_4461" class="st5" d="M1337.9,3531.4c6.1-1.3,12.4-0.2,18.5,0.9s12.5,2,18.5,0.3c10.8-3,19-14.1,30.2-14
		c4.6,0,9,2,13.5,3.1c5.6,1.3,11.4,1.2,17.1,2.1s11.5,3.2,14.7,8.1c3.8,5.7,2.8,13.8-1.2,19.4c-4,5.6-10.4,9-16.9,10.9
		c-4.6,1.3-9.4,2.1-13.4,4.8c-4,2.7-6.6,7.1-10.3,10.2c-9.3,7.7-23.8,5.5-33.5-1.8c-2.4-1.8-4.7-4-7.4-5.3
		c-11.1-5.5-27,1.8-36.5-8.2C1321.6,3551.7,1323,3534.7,1337.9,3531.4z"/>
</g>
<path id="Path_8221" class="st10" d="M364.9,242.9c0,0,10.1,22,11.3,17.9s0.8-13.9,0.2-15.3s-4.8-7.6-4.8-7.6L364.9,242.9z"/>
<path id="Path_8222" class="st9" d="M334.4,24.5c-1.5,0.3-0.3-0.3-2.3,0.4c-3.2-3.1-2.8-7.9-2.8-7.9s-5.4-4.6-4.5-5.5
	c0.9-0.9,5.5,3.9,5.5,3.9s-3.8-6.4-2.8-7c1-0.6,4.8,7.5,4.8,7.5s-2.7-9.4-1.3-9.2c1.4,0.2,4.4,8.9,4.4,8.9s-1.4-8.9-0.1-8.7
	c1.2,0.1,3.5,12.1,3.5,12.1c2.3-2.8,4.1-1,4.1-1l-5.8,6.5C336.2,24.4,335.3,24.4,334.4,24.5z"/>
<path id="Path_8223" class="st9" d="M370.7,61.7c-1.9-0.3-6.6,2.8-9,8c-1.3,2.9-2.2,5.8-0.7,10.5c0.7,2.2,2.2,2.5,2.5,3.5
	c0.4,1.2-1,5.2-1,5.2l5.5,2.3c0.4-2.7,0.8-5.4,3.5-6.6c1-0.4,2.1-0.8,3.1-1.3c2.6-1.5,4-4.8,5-7.5C380.5,73.7,375.6,62.5,370.7,61.7
	z"/>
<path id="Path_8224" class="st10" d="M364.1,138.2l-9.3-3.8c0,0-27.5,51.7-27.4,66.1c0.1,14.3,37.8,43.1,37.8,43.1l6.3-5.6
	c0,0-11.6-20.6-17.8-27.8S364.1,138.2,364.1,138.2z"/>
<path id="Path_8225" class="st9" d="M410.1,197.1c0,0,20.4-9.8,16.3-10.7c-4.1-0.9-13.7,0.3-15,1.1c-1.3,0.8-7.1,5.4-7.1,5.4
	L410.1,197.1z"/>
<path id="Path_8226" class="st9" d="M373.2,137.7l-14.1,5.2c0,0-14.1,62.7-8.7,72.6c5.4,9.8,20.4,3.3,41.9-8.6l18-10l-6-4.1
	c0,0-20.9,4.2-26.8,8.3c0,0,3.1-8.8,7.2-21.2C388.8,167.5,391.6,154.8,373.2,137.7z"/>
<path id="Path_8227" class="st9" d="M355.9,95c0-4.2,1.3-7.2,5.4-7.2c4.1,0,9.8,1.5,9.8,5.6s-3.2,10.9-7.4,10.9
	C359.7,104.4,355.9,99.2,355.9,95z"/>
<path id="Path_8228" class="st9" d="M359.2,87.2c0,0-12.8-14-15.3-27.8s-6.9-36-6.9-36l-4.9,1.4c0,0-2.3,30.5,0,35.1
	s13.5,35.7,17,43.9L359.2,87.2z"/>
<path id="Path_8229" class="st9" d="M372.9,98.1c0,0,1-4.4,17.1-10.3c16.2-5.9,46.6-25.2,46.6-25.2l3,3.5c0,0-16.6,19.4-26.2,22.8
	s-30.1,16.8-32.2,17.9C378.1,108.6,378.2,110.6,372.9,98.1z"/>
<path id="Path_8230" class="st8" d="M359.2,87.2c0,0-13,4.3-13,24.3c0,0,0,27.4,3.1,32.4c3.7,0.8,7.5,0.8,11.2,0
	c6.5-1.4,12.8-6.2,12.8-6.2l10.2-31.1l-1.2-14.6l-13.9-2.7c0,0,4,18.9-10.4,10.8c-2.8-1.6,4.1-12.3,4.1-12.3L359.2,87.2z"/>
<path id="Path_8231" class="st8" d="M348.2,103.5L341.8,90c0,0,0.9-8.2,12.7-11.1c0,0,1.2,4.1,2.5,5.7c1.3,1.6,5.1,3.3,5.1,3.3
	L348.2,103.5z"/>
<path id="Path_8232" class="st8" d="M372.4,108.9l20.3-4.2c0,0,3.5-7.4-4.9-16.3c0,0-15.9,1-17.9,1.1c-2,0.2-0.6,1.7-0.6,1.7
	L372.4,108.9z"/>
<path id="Path_8233" class="st8" d="M349.2,137.3c0,0-19.2,36.1-22.4,42.5c0,0,56.8,26.5,79.8-5.4c0,0-13.1-28.1-33.4-38.9l-8.7-2.7
	l-14.9,4.2"/>
<path id="Path_8234" class="st9" d="M379,75.4c0,0,2.2-2.2,3.5-0.7s-4.9,3.8-4.9,3.8L379,75.4z"/>
<path id="Path_8235" class="st5" d="M419.1,45c0,0.1-0.8,0.5-2.4,0.8c-2.3,0.5-4.6,0.8-7,0.8c-3.5,0-6.9-0.2-10.4-0.7
	c-3.9-0.5-8.1-1.3-12.5-1.8c-4.1-0.5-8.3-0.5-12.4,0.1c-3.3,0.5-6.6,1.6-9.5,3.3c-2,1.2-3.8,2.6-5.3,4.3c-1.1,1.2-1.5,2-1.7,2
	c0.3-0.8,0.7-1.6,1.2-2.3c1.4-1.9,3.2-3.6,5.2-4.9c3-1.9,6.3-3.1,9.8-3.7c4.2-0.7,8.5-0.7,12.8-0.2c4.5,0.5,8.7,1.3,12.5,1.9
	c3.4,0.6,6.8,0.9,10.2,1C415.5,45.8,419,44.8,419.1,45z"/>
<path id="Path_8236" class="st2" d="M367.8,74.1c0,0.1-0.6,0.1-1.6-0.2c-0.3-0.1-0.5-0.2-0.8-0.4c-0.1-0.1-0.2-0.3-0.3-0.5
	c-0.1-0.3-0.1-0.5,0-0.8c0,0,0-0.2,0.1-0.2l0.2,0c0.1,0,0.3,0,0.4,0.1c0.2,0,0.3,0.1,0.5,0.1c0.3,0,0.6,0,1-0.1
	c1.1-0.3,2.1-1,2.6-2.1c0.4-0.8,0.5-1.4,0.6-1.4c0.1,0,0.2,0.6-0.1,1.6c-0.5,1.3-1.6,2.3-2.9,2.6c-0.4,0.1-0.8,0.1-1.1,0.1
	c-0.2,0-0.3,0-0.5-0.1c-0.1,0-0.1,0-0.1,0c0,0,0,0,0,0c0,0.1,0.1,0.2,0.1,0.3c0.2,0.2,0.3,0.3,0.6,0.4
	C367.2,73.9,367.8,74,367.8,74.1z"/>
<path id="Path_8237" class="st0" d="M363.3,74.3l7.5,3C370.8,77.3,364.2,81.9,363.3,74.3z"/>
<path id="Path_8238" class="st10" d="M373.9,75.8c-0.3,0.5-1.1,0.6-1.8,0.2s-1.1-1.1-0.9-1.7c0.3-0.5,1.1-0.6,1.8-0.2
	C373.8,74.5,374.2,75.3,373.9,75.8z"/>
<path id="Path_8239" class="st10" d="M365.6,71.3c-0.2,0.5-1,0.7-1.8,0.3c-0.8-0.3-1.2-1.1-1-1.6c0.2-0.5,1-0.7,1.8-0.3
	S365.8,70.8,365.6,71.3z"/>
<path id="Path_8240" class="st11" d="M362.8,82.7c0,0,2.6,2.2,5.4,1.5c0,0-0.9,1.4-4.6,0.9C363.8,84.2,363.5,83.3,362.8,82.7z"/>
<path id="Path_8241" class="st8" d="M373.2,71c0,0.3-0.3,0.6-0.6,0.6c-0.3,0-0.6-0.3-0.6-0.6c0-0.3,0.3-0.6,0.6-0.6c0,0,0,0,0,0
	C373,70.4,373.2,70.7,373.2,71z"/>
<path id="Path_8242" class="st8" d="M368.4,69.2c0,0.3-0.3,0.6-0.6,0.6s-0.6-0.3-0.6-0.6c0-0.3,0.3-0.6,0.6-0.6
	C368.1,68.6,368.4,68.9,368.4,69.2z"/>
<path id="Path_8243" class="st5" d="M375.1,69.4c-0.2,0.1-0.5-0.4-1.1-0.7c-0.5-0.4-1.1-0.5-1.1-0.7c0-0.2,0.7-0.4,1.5,0.1
	S375.3,69.3,375.1,69.4z"/>
<path id="Path_8244" class="st5" d="M366.6,66.5c0-0.2,0.6-0.4,1.5-0.4c0.9,0,1.5,0.4,1.4,0.6s-0.7,0.1-1.5,0.1
	C367.3,66.8,366.6,66.7,366.6,66.5z"/>
<path id="Path_8245" class="st8" d="M369.3,251.9c0,0,3.1,11.2,6.3,10.3c3.2-0.9,0.8-16.6,0.8-16.6l-3.2-5.1
	C373.2,240.4,376.2,266.6,369.3,251.9z"/>
<path id="Path_8246" class="st8" d="M408.6,189.6c0,0,2.3-2.5,5-2.9c2.7-0.4,12.6-1.6,14-0.3c1.4,1.3-8,5.8-8,5.8s3.3-2.1,1.9-2.9
	C419.1,187.9,408.6,189.6,408.6,189.6z"/>
<path id="Path_8247" class="st8" d="M404.7,192.6l3.1,6.3l1.7-0.9l-4.1-6.2L404.7,192.6z"/>
<path id="Path_8248" class="st8" d="M370.3,235.5l-7.5,6.9l2.2,1.9l6.3-7L370.3,235.5z"/>
<path id="Path_8249" class="st8" d="M212.5,166.8c-2.1-5.4-3-11.4-6.2-16.3c-4.6-7-13.5-10.4-17.2-17.9c-1.6-3.2-2.1-6.8-2.1-10.4
	c0-7,2-14.5,7.4-19c6.2-5.1,15.4-5.1,22.6-1.6c7.2,3.5,12.7,9.7,17.4,16.3c4.7,6.6,8.8,13.6,14.3,19.5c4,4.4,8.8,8.1,11.9,13.3
	c8.4,14.1-0.2,31.9-15,37C232.6,192.2,216.9,178.1,212.5,166.8z"/>
<path id="Path_8250" class="st9" d="M194,266.2c1.3,1.1-0.1,0.3,1.7,1.6c-0.4,4.7-4.7,7.7-4.7,7.7s-0.2,7.5-1.6,7.4
	c-1.4-0.2-0.5-7.3-0.5-7.3s-2.8,7.4-4,6.9c-1.2-0.5,3.1-9,3.1-9s-6.1,8.5-6.9,7.2c-0.8-1.3,4.5-9.5,4.5-9.5s-6.6,7-7.4,5.9
	c-0.8-1.1,7.9-10.9,7.9-10.9c-4,0-3.7-2.8-3.7-2.8l9.8,0.6C192.7,264.7,193.3,265.5,194,266.2z"/>
<path id="Path_8251" class="st9" d="M287.1,124.1c1.7,0.3,0.4-0.3,2.5,0.4c3.6-3.3,3.1-8.4,3.1-8.4s6-4.8,5-5.8
	c-1-0.9-6.2,4.2-6.2,4.2s4.2-6.8,3.1-7.4c-1.1-0.6-5.3,8-5.3,8s3.1-9.9,1.4-9.7c-1.6,0.2-4.9,9.4-4.9,9.4s1.5-9.4,0.1-9.2
	c-1.4,0.1-3.6,12.5-3.6,12.5c-3.3-2.7-5.6-1-5.6-1l7.1,7.1C285.1,124,286.1,124.1,287.1,124.1z"/>
<path id="Path_8252" class="st9" d="M246.3,165.3c3-0.5,12.2,5.6,9.9,17.9c-0.2,1-1.5,3.3-1.9,4.2c-0.4,1.2,2.8,5.5,2.8,5.5
	l-8.4,2.7c-0.4-2.6,0.2-6.3-2.5-7.5c-1-0.3-2.1-0.8-3.1-1.2c-2.6-1.4-4-4.6-5-7.1c-0.9-1.9-1.3-4-1.4-6.1
	C236.9,168.5,241.5,166,246.3,165.3z"/>
<path id="Path_8253" class="st9" d="M263.1,198.9c0-4.4-1.4-6.1-6-6.1c-4.6,0-10.6,1.7-10.6,6.1s3.2,10,7.8,10
	S263.1,203.3,263.1,198.9z"/>
<path id="Path_8254" class="st9" d="M259.5,190.7c0,0,14.2-14.9,17.1-29.4c2.8-14.6,7.7-38.2,7.7-38.2l5.4,1.5c0,0,2.6,32.3,0,37.3
	c-2.6,4.9-17.1,39.3-16.8,48.1L259.5,190.7z"/>
<path id="Path_8255" class="st9" d="M234.2,197.9c0,0-4.8,0.8-12.2,17.9s-30.2,48.8-30.2,48.8l3.7,3.5c0,0,22.2-16.8,26.5-26.9
	c4.3-10.2,9.7-22.8,12.2-22.3C236.7,219.3,247.6,204.2,234.2,197.9z"/>
<path id="Path_8256" class="st2" d="M272.3,212.1l6.6-18.5c0,0-1-8.7-14.1-11.8l-7.4,10.8L272.3,212.1z"/>
<path id="Path_8257" class="st2" d="M236.4,196.4c0,0-7.8,0.7-14.1,14.8c0,0,7,9.7,12.1,10.1C234.3,221.3,253.2,204.9,236.4,196.4z"
	/>
<path id="Path_8258" class="st12" d="M258.7,252.7l10.3-4c0,0,30.6,54.8,30.5,70.1c-0.1,15.2-42,45.7-42,45.7l-7.1-5.9
	c0,0,19.9-29.6,26.8-37.3c3.5-3.8-21.3-22.7-25.1-40.8S258.7,252.7,258.7,252.7z"/>
<path id="Path_8259" class="st9" d="M196.7,351.5c0,0-21.1,15.8-20.2,11.4c0.9-4.4,6.2-13.5,7.5-14.5c1.3-1,8.5-4.8,8.5-4.8
	L196.7,351.5z"/>
<path id="Path_8260" class="st5" d="M230.7,272.1l30.5-17.9c0,0,1.2,62.3-6.1,75.8c-7.3,13.5-59,22-59,22l-3.5-8.4
	c0,0,31.9-19.3,41.7-23C244,316.8,230.7,272.1,230.7,272.1z"/>
<path id="Path_8261" class="st5" d="M248.8,241.9c0,0-22.5,8.1-18.2,30.2c4.3,22.1,11.5,26.3,11.5,26.3l12.9-21.4l12.9-28.1
	l-12.9-1.7L248.8,241.9z"/>
<path id="Path_8262" class="st2" d="M259.5,190.7c10.3,6.6,16.6,18.2,16.5,30.6c0,0-2.1,24.2-5.5,29.5c-4.1,0.8-8.3,0.8-12.4,0
	c-7.2-1.4-14.2-6.6-14.2-6.6l-5.7-29.7l-4.4-17.3l2.4-0.8l12.4-1.4c0,0-1.8,18.9,12.1,9.5c2.9-2-3.6-11.8-3.6-11.8L259.5,190.7z"/>
<path id="Path_8263" class="st0" d="M269.2,107.7l34.7,20.5l19.5-37.4l-32.5-18.3L269.2,107.7z"/>
<path id="Path_8264" class="st0" d="M317.9,289.3l24.8-15.6l-20.5-36.3l-22.7,14.9L317.9,289.3z"/>
<path id="Path_8265" class="st8" d="M195.8,134.7c0.1-0.1,0.8,0.6,2,2.1c1.7,2,3.2,4.3,4.5,6.6c1.9,3.5,3.4,7.2,4.5,11
	c1.2,4.3,2,9.1,3.9,13.8c0.9,2.2,2.1,4.4,3.5,6.3c1.4,1.8,2.9,3.5,4.6,5c2.9,2.5,6.2,4.5,9.8,5.8c2.4,0.9,4.9,1.5,7.5,1.8
	c1.8,0.2,2.9,0.2,2.9,0.4c0,0.1-1,0.2-2.9,0.2c-2.7-0.1-5.3-0.6-7.8-1.4c-3.8-1.3-7.3-3.2-10.3-5.8c-1.8-1.5-3.4-3.3-4.8-5.1
	c-1.5-2-2.8-4.3-3.7-6.6c-1.9-4.9-2.7-9.7-3.8-14c-0.9-3.8-2.3-7.4-4.1-10.9c-1.2-2.3-2.6-4.6-4.1-6.7
	C196.3,135.6,195.7,134.8,195.8,134.7z"/>
<path id="Path_8266" class="st8" d="M238.4,110.7c0.3,0,0.5,3.4,2.4,8.5c1.1,3,2.6,5.8,4.4,8.4c1.1,1.5,2.2,3,3.5,4.4
	c1.3,1.5,2.7,2.9,4.1,4.6c2.7,3.3,4.6,7,6.4,10.1c1.6,2.8,2.9,5.9,3.9,9c0.6,2.2,0.8,4.4,0.5,6.6c-0.2,1.6-0.6,2.4-0.7,2.3
	c-0.1,0,0.1-0.9,0.1-2.4c0-2.1-0.3-4.3-1-6.3c-1-3-2.4-5.9-4-8.7c-1.8-3.1-3.7-6.7-6.3-9.9c-1.3-1.6-2.7-3.1-4-4.5
	c-1.3-1.4-2.5-3-3.6-4.6c-1.8-2.7-3.3-5.7-4.3-8.8c-0.7-2.1-1.2-4.3-1.4-6.5C238.3,112.3,238.3,111.5,238.4,110.7z"/>
<path id="Path_8267" class="st2" d="M249,178.6c0-0.1,0.6-0.2,1.1-0.8c0.1-0.1,0.2-0.3,0.2-0.5c0-0.2-0.1-0.4-0.3-0.5
	c-0.2-0.2-0.4-0.2-0.6-0.2c-0.2,0-0.6,0.1-0.9,0.2c-0.7,0.1-1.5-0.2-2-0.8c-0.4-0.4-0.8-0.8-1.1-1.2c-0.5-0.8-0.7-1.3-0.6-1.4
	s0.4,0.4,1,1.1c0.3,0.4,0.7,0.7,1.1,1.1c0.4,0.4,0.9,0.6,1.5,0.6c0.3,0,0.6-0.2,1-0.2c0.4,0,0.8,0.1,1.1,0.4c0.3,0.3,0.4,0.6,0.4,1
	c-0.1,0.3-0.2,0.6-0.5,0.8C249.7,178.8,249,178.7,249,178.6z"/>
<path id="Path_8268" class="st0" d="M253.1,179.2l-6.7,2.5C246.5,181.7,252.1,186.7,253.1,179.2z"/>
<path id="Path_8269" class="st10" d="M245.8,178.8c0.3,0.5-0.1,1.3-0.9,1.7c-0.8,0.4-1.6,0.3-1.8-0.2c-0.3-0.5,0.1-1.3,0.9-1.7
	C244.7,178.2,245.5,178.3,245.8,178.8z"/>
<path id="Path_8270" class="st10" d="M253.7,174.7c0.2,0.5-0.2,1.2-1,1.6s-1.6,0.2-1.8-0.4s0.2-1.2,1-1.6S253.5,174.1,253.7,174.7z"
	/>
<path id="Path_8271" class="st11" d="M246.7,188.4c1.7,0.3,3.4,0.2,5.1-0.3c-1,0.9-2.3,1.5-3.7,1.7
	C247.7,189.2,247.2,188.7,246.7,188.4z"/>
<path id="Path_8272" class="st8" d="M248.9,173.2c0.3,0.2,0.3,0.6,0.1,0.8c-0.2,0.3-0.6,0.3-0.8,0.1l0,0c-0.3-0.2-0.3-0.6-0.1-0.8
	C248.3,173,248.7,172.9,248.9,173.2z"/>
<path id="Path_8273" class="st8" d="M244.5,175.8c0.3,0.2,0.3,0.6,0.1,0.9c-0.2,0.3-0.6,0.3-0.8,0.1c-0.3-0.2-0.3-0.6-0.1-0.9
	c0,0,0,0,0,0C243.8,175.6,244.2,175.6,244.5,175.8C244.5,175.8,244.5,175.8,244.5,175.8z"/>
<path id="Path_8274" class="st8" d="M249,170.7c-0.1,0.2-0.6,0.2-1.2,0.4c-0.6,0.2-1.1,0.5-1.2,0.3c-0.2-0.1,0.2-0.8,1-1
	C248.4,170.1,249,170.5,249,170.7z"/>
<path id="Path_8275" class="st8" d="M241.2,175.4c-0.1-0.1,0.1-0.8,0.7-1.4c0.6-0.7,1.3-0.9,1.4-0.7c0.1,0.2-0.4,0.6-0.9,1.2
	C241.9,175.1,241.4,175.5,241.2,175.4z"/>
<path id="Path_8276" class="st9" d="M238.7,180.4c0,0-2.1-1.8-3.2-0.2s4.6,2.5,4.6,2.5L238.7,180.4z"/>
<path id="Path_8259_1_" class="st9" d="M274.1,189.1c0,0-21.1,15.8-20.2,11.4c0.9-4.4,6.2-13.5,7.5-14.5c1.3-1,8.5-4.8,8.5-4.8
	L274.1,189.1z"/>
<path id="Path_8259_2_" class="st9" d="M256.6,362.6c0,0-21.1,15.8-20.2,11.4c0.9-4.4,6.2-13.5,7.5-14.5c1.3-1,8.5-4.8,8.5-4.8
	L256.6,362.6z"/>
<path id="Path_8251_1_" class="st9" d="M437.7,66c1,1.2,0.4,0,1.6,1.8c4.8-0.9,7.9-5.6,7.9-5.6s7.6-0.9,7.5-2.2
	c-0.1-1.4-7.3,0.1-7.3,0.1s7.6-3.5,7.2-4.7c-0.4-1.2-9.2,4-9.2,4s8.9-6.9,7.6-7.6c-1.3-0.7-9.9,5.4-9.9,5.4s7.5-7.3,6.4-8
	c-1.1-0.7-11.1,8.8-11.1,8.8c-0.5-4.2-3.4-4-3.4-4l0.4,10.2C436.3,64.7,437,65.3,437.7,66z"/>
</svg>
